<?xml version="1.0" encoding="UTF-8" standalone="no"?>
<!DOCTYPE svg PUBLIC "-//W3C//DTD SVG 1.1//EN"
 "http://www.w3.org/Graphics/SVG/1.1/DTD/svg11.dtd">
<!-- Generated by graphviz version 2.43.0 (0)
 -->
<!-- Title: Arcane::Internal::ServiceFinderBase2T&lt; InterfaceType &gt; Pages: 1 -->
<svg width="173pt" height="404pt"
 viewBox="0.00 0.00 173.00 404.00" xmlns="http://www.w3.org/2000/svg" xmlns:xlink="http://www.w3.org/1999/xlink">
<g id="graph0" class="graph" transform="scale(1 1) rotate(0) translate(4 400)">
<title>Arcane::Internal::ServiceFinderBase2T&lt; InterfaceType &gt;</title>
<!-- Node1 -->
<g id="Node000001" class="node">
<title>Node1</title>
<g id="a_Node000001"><a xlink:title="Classe utilitaire pour retrouver un ou plusieurs services implémentant l&#39;interface InterfaceType.">
<polygon fill="#999999" stroke="transparent" points="165,-396 0,-396 0,-111 165,-111 165,-396"/>
<text text-anchor="start" x="5.5" y="-383.5" font-family="Helvetica,sans-Serif" font-size="10.00">Arcane::Internal::Service</text>
<text text-anchor="start" x="5.5" y="-372.5" font-family="Helvetica,sans-Serif" font-size="10.00">FinderBase2T&lt; InterfaceType &gt;</text>
<text text-anchor="start" x="7" y="-357.5" font-family="Helvetica,sans-Serif" font-size="10.00">#</text>
<text text-anchor="start" x="22.5" y="-357.5" font-family="Helvetica,sans-Serif" font-size="10.00">m_application</text>
<text text-anchor="start" x="7" y="-342.5" font-family="Helvetica,sans-Serif" font-size="10.00">#</text>
<text text-anchor="start" x="22.5" y="-342.5" font-family="Helvetica,sans-Serif" font-size="10.00">m_service_build_info_base</text>
<text text-anchor="start" x="7" y="-327.5" font-family="Helvetica,sans-Serif" font-size="10.00">+</text>
<text text-anchor="start" x="22.5" y="-327.5" font-family="Helvetica,sans-Serif" font-size="10.00">ServiceFinderBase2T()</text>
<text text-anchor="start" x="7" y="-312.5" font-family="Helvetica,sans-Serif" font-size="10.00">+</text>
<text text-anchor="start" x="22.5" y="-312.5" font-family="Helvetica,sans-Serif" font-size="10.00">~ServiceFinderBase2T()</text>
<text text-anchor="start" x="7" y="-297.5" font-family="Helvetica,sans-Serif" font-size="10.00">+</text>
<text text-anchor="start" x="22.5" y="-297.5" font-family="Helvetica,sans-Serif" font-size="10.00">create()</text>
<text text-anchor="start" x="7" y="-282.5" font-family="Helvetica,sans-Serif" font-size="10.00">+</text>
<text text-anchor="start" x="22.5" y="-282.5" font-family="Helvetica,sans-Serif" font-size="10.00">createReference()</text>
<text text-anchor="start" x="7" y="-267.5" font-family="Helvetica,sans-Serif" font-size="10.00">+</text>
<text text-anchor="start" x="22.5" y="-267.5" font-family="Helvetica,sans-Serif" font-size="10.00">create()</text>
<text text-anchor="start" x="7" y="-252.5" font-family="Helvetica,sans-Serif" font-size="10.00">+</text>
<text text-anchor="start" x="22.5" y="-252.5" font-family="Helvetica,sans-Serif" font-size="10.00">createReference()</text>
<text text-anchor="start" x="7" y="-237.5" font-family="Helvetica,sans-Serif" font-size="10.00">+</text>
<text text-anchor="start" x="22.5" y="-237.5" font-family="Helvetica,sans-Serif" font-size="10.00">getSingleton()</text>
<text text-anchor="start" x="7" y="-222.5" font-family="Helvetica,sans-Serif" font-size="10.00">+</text>
<text text-anchor="start" x="22.5" y="-222.5" font-family="Helvetica,sans-Serif" font-size="10.00">createAll()</text>
<text text-anchor="start" x="7" y="-207.5" font-family="Helvetica,sans-Serif" font-size="10.00">+</text>
<text text-anchor="start" x="22.5" y="-207.5" font-family="Helvetica,sans-Serif" font-size="10.00">createAll()</text>
<text text-anchor="start" x="7" y="-192.5" font-family="Helvetica,sans-Serif" font-size="10.00">+</text>
<text text-anchor="start" x="22.5" y="-192.5" font-family="Helvetica,sans-Serif" font-size="10.00">factories()</text>
<text text-anchor="start" x="7" y="-177.5" font-family="Helvetica,sans-Serif" font-size="10.00">+</text>
<text text-anchor="start" x="22.5" y="-177.5" font-family="Helvetica,sans-Serif" font-size="10.00">getServicesNames()</text>
<text text-anchor="start" x="7" y="-162.5" font-family="Helvetica,sans-Serif" font-size="10.00">#</text>
<text text-anchor="start" x="22.5" y="-162.5" font-family="Helvetica,sans-Serif" font-size="10.00">_create()</text>
<text text-anchor="start" x="7" y="-147.5" font-family="Helvetica,sans-Serif" font-size="10.00">#</text>
<text text-anchor="start" x="22.5" y="-147.5" font-family="Helvetica,sans-Serif" font-size="10.00">_createReference()</text>
<text text-anchor="start" x="7" y="-132.5" font-family="Helvetica,sans-Serif" font-size="10.00">#</text>
<text text-anchor="start" x="22.5" y="-132.5" font-family="Helvetica,sans-Serif" font-size="10.00">_createAll()</text>
<text text-anchor="start" x="7" y="-117.5" font-family="Helvetica,sans-Serif" font-size="10.00">#</text>
<text text-anchor="start" x="22.5" y="-117.5" font-family="Helvetica,sans-Serif" font-size="10.00">_createAll()</text>
<polygon fill="#666666" stroke="#666666" points="0.5,-367.5 0.5,-367.5 165.5,-367.5 165.5,-367.5 0.5,-367.5"/>
<polygon fill="#666666" stroke="#666666" points="0.5,-337.5 0.5,-337.5 20.5,-337.5 20.5,-337.5 0.5,-337.5"/>
<polygon fill="#666666" stroke="#666666" points="20.5,-337.5 20.5,-337.5 165.5,-337.5 165.5,-337.5 20.5,-337.5"/>
<polygon fill="none" stroke="#666666" points="0,-111 0,-396 165,-396 165,-111 0,-111"/>
</a>
</g>
</g>
<!-- Node2 -->
<g id="Node000002" class="node">
<title>Node2</title>
<g id="a_Node000002"><a xlink:href="../../d2/d61/classArcane_1_1ServiceFinder2T.html" target="_top" xlink:title="Classe utilitaire pour retrouver un ou plusieurs services implémentant l&#39;interface InterfaceType.">
<polygon fill="white" stroke="transparent" points="161.5,-75 3.5,-75 3.5,0 161.5,0 161.5,-75"/>
<text text-anchor="start" x="8.5" y="-62.5" font-family="Helvetica,sans-Serif" font-size="10.00">Arcane::ServiceFinder2T</text>
<text text-anchor="start" x="8.5" y="-51.5" font-family="Helvetica,sans-Serif" font-size="10.00">&lt; InterfaceType, ParentType &gt;</text>
<text text-anchor="start" x="80.5" y="-36.5" font-family="Helvetica,sans-Serif" font-size="10.00"> </text>
<text text-anchor="start" x="18" y="-21.5" font-family="Helvetica,sans-Serif" font-size="10.00">+</text>
<text text-anchor="start" x="41.5" y="-21.5" font-family="Helvetica,sans-Serif" font-size="10.00">ServiceFinder2T()</text>
<text text-anchor="start" x="18" y="-6.5" font-family="Helvetica,sans-Serif" font-size="10.00">+</text>
<text text-anchor="start" x="41.5" y="-6.5" font-family="Helvetica,sans-Serif" font-size="10.00">~ServiceFinder2T()</text>
<polygon fill="#666666" stroke="#666666" points="3.5,-46.5 3.5,-46.5 161.5,-46.5 161.5,-46.5 3.5,-46.5"/>
<polygon fill="#666666" stroke="#666666" points="3.5,-31.5 3.5,-31.5 161.5,-31.5 161.5,-31.5 3.5,-31.5"/>
<polygon fill="none" stroke="#666666" points="3.5,0 3.5,-75 161.5,-75 161.5,0 3.5,0"/>
</a>
</g>
</g>
<!-- Node1&#45;&gt;Node2 -->
<g id="edge1_Node000001_Node000002" class="edge">
<title>Node1&#45;&gt;Node2</title>
<g id="a_edge1_Node000001_Node000002"><a xlink:title=" ">
<path fill="none" stroke="#63b8ff" d="M82.5,-100.84C82.5,-91.71 82.5,-83.1 82.5,-75.36"/>
<polygon fill="none" stroke="#63b8ff" points="79,-100.95 82.5,-110.95 86,-100.95 79,-100.95"/>
</a>
</g>
</g>
</g>
</svg>
