<?xml version="1.0" encoding="UTF-8" standalone="no"?>
<!DOCTYPE svg PUBLIC "-//W3C//DTD SVG 1.1//EN"
 "http://www.w3.org/Graphics/SVG/1.1/DTD/svg11.dtd">
<!-- Generated by graphviz version 2.43.0 (0)
 -->
<!-- Title: Arcane::MshCaseMeshReader Pages: 1 -->
<!--zoomable 527 -->

<svg id="main" version="1.1" xmlns="http://www.w3.org/2000/svg" xmlns:xlink="http://www.w3.org/1999/xlink" xml:space="preserve" onload="init(evt)">

<style type="text/css"><![CDATA[
.node, .edge {opacity: 0.7;}
.node.selected, .edge.selected {opacity: 1;}
.edge:hover path { stroke: red; }
.edge:hover polygon { stroke: red; fill: red; }
]]></style>

<defs>
  <circle id="rim" cx="0" cy="0" r="7"/>
  <circle id="rim2" cx="0" cy="0" r="3.5"/>
  <g id="zoomPlus">
    <use xlink:href="#rim" fill="#404040"><set attributeName="fill" to="#808080" begin="zoomplus.mouseover" end="zoomplus.mouseout"/></use>
    <path d="M-4,0h8M0,-4v8" fill="none" stroke="white" stroke-width="1.5" pointer-events="none"/>
  </g>
  <g id="zoomMin">
    <use xlink:href="#rim" fill="#404040"><set attributeName="fill" to="#808080" begin="zoomminus.mouseover" end="zoomminus.mouseout"/></use>
    <path d="M-4,0h8" fill="none" stroke="white" stroke-width="1.5" pointer-events="none"/>
  </g>
  <g id="arrowUp" transform="translate(30 24)">
    <use xlink:href="#rim"/>
    <path pointer-events="none" fill="none" stroke="white" stroke-width="1.5" d="M0,-3.0v7 M-2.5,-0.5L0,-3.0L2.5,-0.5"/>
  </g>
  <g id="arrowRight" transform="rotate(90) translate(36 -43)">
    <use xlink:href="#rim"/>
    <path pointer-events="none" fill="none" stroke="white" stroke-width="1.5" d="M0,-3.0v7 M-2.5,-0.5L0,-3.0L2.5,-0.5"/>
  </g>
  <g id="arrowDown" transform="rotate(180) translate(-30 -48)">
    <use xlink:href="#rim"/>
    <path pointer-events="none" fill="none" stroke="white" stroke-width="1.5" d="M0,-3.0v7 M-2.5,-0.5L0,-3.0L2.5,-0.5"/>
  </g>
  <g id="arrowLeft" transform="rotate(270) translate(-36 17)">
    <use xlink:href="#rim"/>
    <path pointer-events="none" fill="none" stroke="white" stroke-width="1.5" d="M0,-3.0v7 M-2.5,-0.5L0,-3.0L2.5,-0.5"/>
  </g>
  <g id="resetDef">
    <use xlink:href="#rim2" fill="#404040"><set attributeName="fill" to="#808080" begin="reset.mouseover" end="reset.mouseout"/></use>
  </g>
</defs>
<script type="application/ecmascript">
var viewWidth = 369;
var viewHeight = 527;
var sectionId = 'dynsection-0';
</script>
<script type="application/ecmascript" xlink:href="../../svg.min.js"/>
<svg id="graph" class="graph">
<g id="viewport">
<title>Arcane::MshCaseMeshReader</title>
<!-- Node1 -->
<g id="Node000001" class="node">
<title>Node1</title>
<g id="a_Node000001"><a xlink:title=" ">
<polygon fill="#999999" stroke="transparent" points="293.5,-64 138.5,-64 138.5,0 293.5,0 293.5,-64"/>
<text text-anchor="start" x="144" y="-52" font-family="Helvetica,sans-Serif" font-size="10.00">Arcane::MshCaseMeshReader</text>
<text text-anchor="start" x="214.5" y="-37" font-family="Helvetica,sans-Serif" font-size="10.00"> </text>
<text text-anchor="start" x="148" y="-22" font-family="Helvetica,sans-Serif" font-size="10.00">+</text>
<text text-anchor="start" x="166" y="-22" font-family="Helvetica,sans-Serif" font-size="10.00">MshCaseMeshReader()</text>
<text text-anchor="start" x="148" y="-7" font-family="Helvetica,sans-Serif" font-size="10.00">+</text>
<text text-anchor="start" x="166" y="-7" font-family="Helvetica,sans-Serif" font-size="10.00">createBuilder()</text>
<polygon fill="#666666" stroke="#666666" points="139,-47 139,-47 294,-47 294,-47 139,-47"/>
<polygon fill="#666666" stroke="#666666" points="139,-32 139,-32 294,-32 294,-32 139,-32"/>
<polygon fill="none" stroke="#666666" points="138.5,0 138.5,-64 293.5,-64 293.5,0 138.5,0"/>
</a>
</g>
</g>
<!-- Node2 -->
<g id="Node000002" class="node">
<title>Node2</title>
<g id="a_Node000002"><a xlink:href="../../da/d61/classArcane_1_1AbstractService.html" target="_top" xlink:title="Classe de base d&#39;un service.">
<polygon fill="white" stroke="transparent" points="204.5,-239 77.5,-239 77.5,-100 204.5,-100 204.5,-239"/>
<text text-anchor="start" x="83" y="-226.5" font-family="Helvetica,sans-Serif" font-size="10.00">Arcane::AbstractService</text>
<text text-anchor="start" x="87.5" y="-211.5" font-family="Helvetica,sans-Serif" font-size="10.00">&#45;</text>
<text text-anchor="start" x="101" y="-211.5" font-family="Helvetica,sans-Serif" font-size="10.00">m_service_info</text>
<text text-anchor="start" x="87.5" y="-196.5" font-family="Helvetica,sans-Serif" font-size="10.00">&#45;</text>
<text text-anchor="start" x="101" y="-196.5" font-family="Helvetica,sans-Serif" font-size="10.00">m_parent</text>
<text text-anchor="start" x="85" y="-181.5" font-family="Helvetica,sans-Serif" font-size="10.00">+</text>
<text text-anchor="start" x="101" y="-181.5" font-family="Helvetica,sans-Serif" font-size="10.00">~AbstractService()</text>
<text text-anchor="start" x="85" y="-166.5" font-family="Helvetica,sans-Serif" font-size="10.00">+</text>
<text text-anchor="start" x="101" y="-166.5" font-family="Helvetica,sans-Serif" font-size="10.00">build()</text>
<text text-anchor="start" x="85" y="-151.5" font-family="Helvetica,sans-Serif" font-size="10.00">+</text>
<text text-anchor="start" x="101" y="-151.5" font-family="Helvetica,sans-Serif" font-size="10.00">serviceInfo()</text>
<text text-anchor="start" x="85" y="-136.5" font-family="Helvetica,sans-Serif" font-size="10.00">+</text>
<text text-anchor="start" x="101" y="-136.5" font-family="Helvetica,sans-Serif" font-size="10.00">serviceParent()</text>
<text text-anchor="start" x="85" y="-121.5" font-family="Helvetica,sans-Serif" font-size="10.00">+</text>
<text text-anchor="start" x="101" y="-121.5" font-family="Helvetica,sans-Serif" font-size="10.00">serviceInterface()</text>
<text text-anchor="start" x="85" y="-106.5" font-family="Helvetica,sans-Serif" font-size="10.00">#</text>
<text text-anchor="start" x="101" y="-106.5" font-family="Helvetica,sans-Serif" font-size="10.00">AbstractService()</text>
<polygon fill="#666666" stroke="#666666" points="78,-221.5 78,-221.5 205,-221.5 205,-221.5 78,-221.5"/>
<polygon fill="#666666" stroke="#666666" points="78,-191.5 78,-191.5 99,-191.5 99,-191.5 78,-191.5"/>
<polygon fill="#666666" stroke="#666666" points="99,-191.5 99,-191.5 205,-191.5 205,-191.5 99,-191.5"/>
<polygon fill="none" stroke="#666666" points="77.5,-100 77.5,-239 204.5,-239 204.5,-100 77.5,-100"/>
</a>
</g>
</g>
<!-- Node2&#45;&gt;Node1 -->
<g id="edge1_Node000001_Node000002" class="edge">
<title>Node2&#45;&gt;Node1</title>
<g id="a_edge1_Node000001_Node000002"><a xlink:title=" ">
<path fill="none" stroke="#63b8ff" d="M183.83,-91.12C189.12,-81.56 194.27,-72.26 198.84,-64"/>
<polygon fill="none" stroke="#63b8ff" points="180.72,-89.51 178.94,-99.96 186.84,-92.9 180.72,-89.51"/>
</a>
</g>
</g>
<!-- Node3 -->
<g id="Node000003" class="node">
<title>Node3</title>
<g id="a_Node000003"><a xlink:href="../../d1/d17/classArcane_1_1TraceAccessor.html" target="_top" xlink:title="Classe d&#39;accès aux traces.">
<polygon fill="white" stroke="transparent" points="140,-519 0,-519 0,-275 140,-275 140,-519"/>
<text text-anchor="start" x="15.5" y="-507" font-family="Helvetica,sans-Serif" font-size="10.00">Arcane::TraceAccessor</text>
<text text-anchor="start" x="6.5" y="-492" font-family="Helvetica,sans-Serif" font-size="10.00">&#45;</text>
<text text-anchor="start" x="17" y="-492" font-family="Helvetica,sans-Serif" font-size="10.00">m_trace</text>
<text text-anchor="start" x="6.5" y="-477" font-family="Helvetica,sans-Serif" font-size="10.00">&#45;</text>
<text text-anchor="start" x="17" y="-477" font-family="Helvetica,sans-Serif" font-size="10.00">m_local_verbose_level</text>
<text text-anchor="start" x="4" y="-462" font-family="Helvetica,sans-Serif" font-size="10.00">+</text>
<text text-anchor="start" x="17" y="-462" font-family="Helvetica,sans-Serif" font-size="10.00">TraceAccessor()</text>
<text text-anchor="start" x="4" y="-447" font-family="Helvetica,sans-Serif" font-size="10.00">+</text>
<text text-anchor="start" x="17" y="-447" font-family="Helvetica,sans-Serif" font-size="10.00">TraceAccessor()</text>
<text text-anchor="start" x="4" y="-432" font-family="Helvetica,sans-Serif" font-size="10.00">+</text>
<text text-anchor="start" x="17" y="-432" font-family="Helvetica,sans-Serif" font-size="10.00">operator=()</text>
<text text-anchor="start" x="4" y="-417" font-family="Helvetica,sans-Serif" font-size="10.00">+</text>
<text text-anchor="start" x="17" y="-417" font-family="Helvetica,sans-Serif" font-size="10.00">~TraceAccessor()</text>
<text text-anchor="start" x="4" y="-402" font-family="Helvetica,sans-Serif" font-size="10.00">+</text>
<text text-anchor="start" x="17" y="-402" font-family="Helvetica,sans-Serif" font-size="10.00">traceMng()</text>
<text text-anchor="start" x="4" y="-387" font-family="Helvetica,sans-Serif" font-size="10.00">+</text>
<text text-anchor="start" x="17" y="-387" font-family="Helvetica,sans-Serif" font-size="10.00">info()</text>
<text text-anchor="start" x="4" y="-372" font-family="Helvetica,sans-Serif" font-size="10.00">+</text>
<text text-anchor="start" x="17" y="-372" font-family="Helvetica,sans-Serif" font-size="10.00">pinfo()</text>
<text text-anchor="start" x="4" y="-357" font-family="Helvetica,sans-Serif" font-size="10.00">+</text>
<text text-anchor="start" x="17" y="-357" font-family="Helvetica,sans-Serif" font-size="10.00">info()</text>
<text text-anchor="start" x="4" y="-342" font-family="Helvetica,sans-Serif" font-size="10.00">+</text>
<text text-anchor="start" x="17" y="-342" font-family="Helvetica,sans-Serif" font-size="10.00">pinfo()</text>
<text text-anchor="start" x="4" y="-327" font-family="Helvetica,sans-Serif" font-size="10.00">+</text>
<text text-anchor="start" x="17" y="-327" font-family="Helvetica,sans-Serif" font-size="10.00">info()</text>
<text text-anchor="start" x="17" y="-312" font-family="Helvetica,sans-Serif" font-size="10.00">et 15 de plus...</text>
<text text-anchor="start" x="4" y="-297" font-family="Helvetica,sans-Serif" font-size="10.00">#</text>
<text text-anchor="start" x="17" y="-297" font-family="Helvetica,sans-Serif" font-size="10.00">_setLocalVerboseLevel()</text>
<text text-anchor="start" x="4" y="-282" font-family="Helvetica,sans-Serif" font-size="10.00">#</text>
<text text-anchor="start" x="17" y="-282" font-family="Helvetica,sans-Serif" font-size="10.00">_localVerboseLevel()</text>
<polygon fill="#666666" stroke="#666666" points="0,-502 0,-502 140,-502 140,-502 0,-502"/>
<polygon fill="#666666" stroke="#666666" points="0,-472 0,-472 15,-472 15,-472 0,-472"/>
<polygon fill="#666666" stroke="#666666" points="15,-472 15,-472 140,-472 140,-472 15,-472"/>
<polygon fill="none" stroke="#666666" points="0,-275 0,-519 140,-519 140,-275 0,-275"/>
</a>
</g>
</g>
<!-- Node3&#45;&gt;Node2 -->
<g id="edge2_Node000002_Node000003" class="edge">
<title>Node3&#45;&gt;Node2</title>
<g id="a_edge2_Node000002_Node000003"><a xlink:title=" ">
<path fill="none" stroke="#63b8ff" d="M111.18,-265.21C114,-256.24 116.78,-247.43 119.43,-239"/>
<polygon fill="none" stroke="#63b8ff" points="107.76,-264.41 108.1,-275 114.44,-266.51 107.76,-264.41"/>
</a>
</g>
</g>
<!-- Node4 -->
<g id="Node000004" class="node">
<title>Node4</title>
<g id="a_Node000004"><a xlink:href="../../da/d7e/classArcane_1_1IService.html" target="_top" xlink:title="Interface d&#39;un service.">
<polygon fill="white" stroke="transparent" points="266,-451.5 158,-451.5 158,-342.5 266,-342.5 266,-451.5"/>
<text text-anchor="start" x="172.5" y="-439" font-family="Helvetica,sans-Serif" font-size="10.00">Arcane::IService</text>
<text text-anchor="start" x="210" y="-424" font-family="Helvetica,sans-Serif" font-size="10.00"> </text>
<text text-anchor="start" x="162" y="-409" font-family="Helvetica,sans-Serif" font-size="10.00">+</text>
<text text-anchor="start" x="175" y="-409" font-family="Helvetica,sans-Serif" font-size="10.00">~IService()</text>
<text text-anchor="start" x="162" y="-394" font-family="Helvetica,sans-Serif" font-size="10.00">+</text>
<text text-anchor="start" x="175" y="-394" font-family="Helvetica,sans-Serif" font-size="10.00">serviceParent()</text>
<text text-anchor="start" x="162" y="-379" font-family="Helvetica,sans-Serif" font-size="10.00">+</text>
<text text-anchor="start" x="175" y="-379" font-family="Helvetica,sans-Serif" font-size="10.00">serviceInterface()</text>
<text text-anchor="start" x="162" y="-364" font-family="Helvetica,sans-Serif" font-size="10.00">+</text>
<text text-anchor="start" x="175" y="-364" font-family="Helvetica,sans-Serif" font-size="10.00">serviceInfo()</text>
<text text-anchor="start" x="162" y="-349" font-family="Helvetica,sans-Serif" font-size="10.00">#</text>
<text text-anchor="start" x="175" y="-349" font-family="Helvetica,sans-Serif" font-size="10.00">IService()</text>
<polygon fill="#666666" stroke="#666666" points="158,-434 158,-434 266,-434 266,-434 158,-434"/>
<polygon fill="#666666" stroke="#666666" points="158,-419 158,-419 266,-419 266,-419 158,-419"/>
<polygon fill="none" stroke="#666666" points="158,-342.5 158,-451.5 266,-451.5 266,-342.5 158,-342.5"/>
</a>
</g>
</g>
<!-- Node4&#45;&gt;Node2 -->
<g id="edge3_Node000002_Node000004" class="edge">
<title>Node4&#45;&gt;Node2</title>
<g id="a_edge3_Node000002_Node000004"><a xlink:title=" ">
<path fill="none" stroke="#63b8ff" d="M192.05,-332.63C182.88,-303.52 171.99,-268.94 162.63,-239.21"/>
<polygon fill="none" stroke="#63b8ff" points="188.74,-333.79 195.08,-342.27 195.42,-331.68 188.74,-333.79"/>
</a>
</g>
</g>
<!-- Node5 -->
<g id="Node000005" class="node">
<title>Node5</title>
<g id="a_Node000005"><a xlink:href="../../d9/dec/classArcane_1_1ICaseMeshReader.html" target="_top" xlink:title="Interface du service de lecture du maillage à partir du jeu de données.">
<polygon fill="white" stroke="transparent" points="361,-201.5 223,-201.5 223,-137.5 361,-137.5 361,-201.5"/>
<text text-anchor="start" x="228" y="-189.5" font-family="Helvetica,sans-Serif" font-size="10.00">Arcane::ICaseMeshReader</text>
<text text-anchor="start" x="290" y="-174.5" font-family="Helvetica,sans-Serif" font-size="10.00"> </text>
<text text-anchor="start" x="230" y="-159.5" font-family="Helvetica,sans-Serif" font-size="10.00">+</text>
<text text-anchor="start" x="246" y="-159.5" font-family="Helvetica,sans-Serif" font-size="10.00">~ICaseMeshReader()</text>
<text text-anchor="start" x="230" y="-144.5" font-family="Helvetica,sans-Serif" font-size="10.00">+</text>
<text text-anchor="start" x="246" y="-144.5" font-family="Helvetica,sans-Serif" font-size="10.00">createBuilder()</text>
<polygon fill="#666666" stroke="#666666" points="223,-184.5 223,-184.5 361,-184.5 361,-184.5 223,-184.5"/>
<polygon fill="#666666" stroke="#666666" points="223,-169.5 223,-169.5 361,-169.5 361,-169.5 223,-169.5"/>
<polygon fill="none" stroke="#666666" points="223,-137.5 223,-201.5 361,-201.5 361,-137.5 223,-137.5"/>
</a>
</g>
</g>
<!-- Node5&#45;&gt;Node1 -->
<g id="edge4_Node000001_Node000005" class="edge">
<title>Node5&#45;&gt;Node1</title>
<g id="a_edge4_Node000001_Node000005"><a xlink:title=" ">
<path fill="none" stroke="#63b8ff" d="M269.63,-128.62C258.14,-108.13 244.34,-83.53 233.62,-64.41"/>
<polygon fill="none" stroke="#63b8ff" points="266.62,-130.4 274.56,-137.41 272.72,-126.98 266.62,-130.4"/>
</a>
</g>
</g>
</g>
</svg>

<g id="navigator" transform="translate(0 0)" fill="#404254">
  <rect fill="#f2f5e9" fill-opacity="0.5" stroke="#606060" stroke-width=".5" x="0" y="0" width="60" height="60"/>
  <use id="zoomplus" xlink:href="#zoomPlus" x="17" y="9" onmousedown="handleZoom(evt,'in')"/>
  <use id="zoomminus" xlink:href="#zoomMin" x="42" y="9" onmousedown="handleZoom(evt,'out')"/>
  <use id="reset" xlink:href="#resetDef" x="30" y="36" onmousedown="handleReset()"/>
   <use id="arrowup" xlink:href="#arrowUp" x="0" y="0" onmousedown="handlePan(0,-1)"/>
  <use id="arrowright" xlink:href="#arrowRight" x="0" y="0" onmousedown="handlePan(1,0)"/>
  <use id="arrowdown" xlink:href="#arrowDown" x="0" y="0" onmousedown="handlePan(0,1)"/>
  <use id="arrowleft" xlink:href="#arrowLeft" x="0" y="0" onmousedown="handlePan(-1,0)"/>
</g>
<svg viewBox="0 0 15 15" width="100%" height="30px" preserveAspectRatio="xMaxYMin meet">
 <g id="arrow_out" transform="scale(0.3 0.3)">
  <a xlink:href="classArcane_1_1MshCaseMeshReader__inherit__graph_org.svg" target="_base">
   <rect id="button" ry="5" rx="5" y="6" x="6" height="38" width="38"
        fill="#f2f5e9" fill-opacity="0.5" stroke="#606060" stroke-width="1.0"/>
   <path id="arrow"
     d="M 11.500037,31.436501 C 11.940474,20.09759 22.043105,11.32322 32.158766,21.979434 L 37.068811,17.246167 C 37.068811,17.246167 37.088388,32 37.088388,32 L 22.160133,31.978069 C 22.160133,31.978069 26.997745,27.140456 26.997745,27.140456 C 18.528582,18.264221 13.291696,25.230495 11.500037,31.436501 z"
     style="fill:#404040;"/>
  </a>
 </g>
</svg>

<style type='text/css'>
<![CDATA[
[data-mouse-over-selected='false'] { opacity: 0.7; }
[data-mouse-over-selected='true']  { opacity: 1.0; }
]]>
</style>
<script type="application/ecmascript"><![CDATA[
document.addEventListener('DOMContentLoaded', (event) => {
  highlightEdges();
  highlightAdjacentNodes();
});
]]></script>
</svg>
