<?xml version="1.0" encoding="UTF-8" standalone="no"?>
<!DOCTYPE svg PUBLIC "-//W3C//DTD SVG 1.1//EN"
 "http://www.w3.org/Graphics/SVG/1.1/DTD/svg11.dtd">
<!-- Generated by graphviz version 2.43.0 (0)
 -->
<!-- Title: ReferenceCounterImpl.h Pages: 1 -->
<svg width="3265pt" height="247pt"
 viewBox="0.00 0.00 3265.00 247.00" xmlns="http://www.w3.org/2000/svg" xmlns:xlink="http://www.w3.org/1999/xlink">
<g id="graph0" class="graph" transform="scale(1 1) rotate(0) translate(4 243)">
<title>ReferenceCounterImpl.h</title>
<!-- Node1 -->
<g id="Node000001" class="node">
<title>Node1</title>
<g id="a_Node000001"><a xlink:title=" ">
<polygon fill="#999999" stroke="#666666" points="2625,-239 2490,-239 2490,-220 2625,-220 2625,-239"/>
<text text-anchor="middle" x="2557.5" y="-227" font-family="Helvetica,sans-Serif" font-size="10.00">ReferenceCounterImpl.h</text>
</a>
</g>
</g>
<!-- Node2 -->
<g id="Node000002" class="node">
<title>Node2</title>
<g id="a_Node000002"><a xlink:href="../../d1/d07/ArccoreGlobal_8cc_source.html" target="_top" xlink:title=" ">
<polygon fill="white" stroke="#666666" points="304.5,-184 206.5,-184 206.5,-165 304.5,-165 304.5,-184"/>
<text text-anchor="middle" x="255.5" y="-172" font-family="Helvetica,sans-Serif" font-size="10.00">ArccoreGlobal.cc</text>
</a>
</g>
</g>
<!-- Node1&#45;&gt;Node2 -->
<g id="edge1_Node000001_Node000002" class="edge">
<title>Node1&#45;&gt;Node2</title>
<g id="a_edge1_Node000001_Node000002"><a xlink:title=" ">
<path fill="none" stroke="#63b8ff" d="M2479.69,-228.27C2135.5,-227.06 747.68,-219.98 313.5,-184 310.66,-183.76 307.75,-183.48 304.81,-183.16"/>
<polygon fill="#63b8ff" stroke="#63b8ff" points="2479.8,-231.77 2489.81,-228.31 2479.82,-224.77 2479.8,-231.77"/>
</a>
</g>
</g>
<!-- Node3 -->
<g id="Node000003" class="node">
<title>Node3</title>
<g id="a_Node000003"><a xlink:href="../../d3/da2/CaseFunction_8h_source.html" target="_top" xlink:title=" ">
<polygon fill="white" stroke="#666666" points="414,-184 323,-184 323,-165 414,-165 414,-184"/>
<text text-anchor="middle" x="368.5" y="-172" font-family="Helvetica,sans-Serif" font-size="10.00">CaseFunction.h</text>
</a>
</g>
</g>
<!-- Node1&#45;&gt;Node3 -->
<g id="edge2_Node000001_Node000003" class="edge">
<title>Node1&#45;&gt;Node3</title>
<g id="a_edge2_Node000001_Node000003"><a xlink:title=" ">
<path fill="none" stroke="#63b8ff" d="M2479.96,-228.26C2146.75,-227.02 834.78,-219.91 423.5,-184 420.42,-183.73 417.25,-183.4 414.06,-183.02"/>
<polygon fill="#63b8ff" stroke="#63b8ff" points="2479.99,-231.76 2490,-228.3 2480.01,-224.76 2479.99,-231.76"/>
</a>
</g>
</g>
<!-- Node6 -->
<g id="Node000006" class="node">
<title>Node6</title>
<g id="a_Node000006"><a xlink:href="../../d2/ddc/CaseOptions_8h_source.html" target="_top" xlink:title=" ">
<polygon fill="white" stroke="#666666" points="1170,-184 1083,-184 1083,-165 1170,-165 1170,-184"/>
<text text-anchor="middle" x="1126.5" y="-172" font-family="Helvetica,sans-Serif" font-size="10.00">CaseOptions.h</text>
</a>
</g>
</g>
<!-- Node1&#45;&gt;Node6 -->
<g id="edge5_Node000001_Node000006" class="edge">
<title>Node1&#45;&gt;Node6</title>
<g id="a_edge5_Node000001_Node000006"><a xlink:title=" ">
<path fill="none" stroke="#63b8ff" d="M2479.74,-225.62C2217.78,-215.92 1372.67,-184.62 1170.33,-177.12"/>
<polygon fill="#63b8ff" stroke="#63b8ff" points="2479.8,-229.12 2489.92,-226 2480.06,-222.13 2479.8,-229.12"/>
</a>
</g>
</g>
<!-- Node11 -->
<g id="Node000011" class="node">
<title>Node11</title>
<g id="a_Node000011"><a xlink:href="../../da/dd4/core_2materials_2ComponentItemVector_8h_source.html" target="_top" xlink:title=" ">
<polygon fill="white" stroke="#666666" points="566.5,-184 432.5,-184 432.5,-165 566.5,-165 566.5,-184"/>
<text text-anchor="middle" x="499.5" y="-172" font-family="Helvetica,sans-Serif" font-size="10.00">ComponentItemVector.h</text>
</a>
</g>
</g>
<!-- Node1&#45;&gt;Node11 -->
<g id="edge10_Node000001_Node000011" class="edge">
<title>Node1&#45;&gt;Node11</title>
<g id="a_edge10_Node000001_Node000011"><a xlink:title=" ">
<path fill="none" stroke="#63b8ff" d="M2479.84,-226.73C2231.4,-221.04 1433.68,-202.47 773.5,-184 702.97,-182.03 622.24,-179.49 566.78,-177.7"/>
<polygon fill="#63b8ff" stroke="#63b8ff" points="2479.77,-230.23 2489.85,-226.96 2479.94,-223.23 2479.77,-230.23"/>
</a>
</g>
</g>
<!-- Node24 -->
<g id="Node000024" class="node">
<title>Node24</title>
<g id="a_Node000024"><a xlink:href="../../d2/d6a/ConcurrencyGlobal_8cc_source.html" target="_top" xlink:title=" ">
<polygon fill="white" stroke="#666666" points="2864.5,-129 2742.5,-129 2742.5,-110 2864.5,-110 2864.5,-129"/>
<text text-anchor="middle" x="2803.5" y="-117" font-family="Helvetica,sans-Serif" font-size="10.00">ConcurrencyGlobal.cc</text>
</a>
</g>
</g>
<!-- Node1&#45;&gt;Node24 -->
<g id="edge21_Node000001_Node000024" class="edge">
<title>Node1&#45;&gt;Node24</title>
<g id="a_edge21_Node000001_Node000024"><a xlink:title=" ">
<path fill="none" stroke="#63b8ff" d="M2577.68,-213.94C2597.85,-199.9 2630.16,-178.81 2660.5,-165 2695.52,-149.06 2737.85,-136.68 2767.32,-129.07"/>
<polygon fill="#63b8ff" stroke="#63b8ff" points="2575.47,-211.21 2569.31,-219.84 2579.5,-216.93 2575.47,-211.21"/>
</a>
</g>
</g>
<!-- Node25 -->
<g id="Node000025" class="node">
<title>Node25</title>
<g id="a_Node000025"><a xlink:href="../../d1/df1/GlibThreadImplementation_8h_source.html" target="_top" xlink:title=" ">
<polygon fill="white" stroke="#666666" points="940,-184 783,-184 783,-165 940,-165 940,-184"/>
<text text-anchor="middle" x="861.5" y="-172" font-family="Helvetica,sans-Serif" font-size="10.00">GlibThreadImplementation.h</text>
</a>
</g>
</g>
<!-- Node1&#45;&gt;Node25 -->
<g id="edge22_Node000001_Node000025" class="edge">
<title>Node1&#45;&gt;Node25</title>
<g id="a_edge22_Node000001_Node000025"><a xlink:title=" ">
<path fill="none" stroke="#63b8ff" d="M2479.65,-226.44C2259.12,-220.55 1611.39,-202.85 1073.5,-184 1029.32,-182.45 979.98,-180.49 940.02,-178.84"/>
<polygon fill="#63b8ff" stroke="#63b8ff" points="2479.73,-229.95 2489.82,-226.71 2479.92,-222.95 2479.73,-229.95"/>
</a>
</g>
</g>
<!-- Node27 -->
<g id="Node000027" class="node">
<title>Node27</title>
<g id="a_Node000027"><a xlink:href="../../de/d40/MeshHandle_8h_source.html" target="_top" xlink:title=" ">
<polygon fill="white" stroke="#666666" points="1759.5,-184 1673.5,-184 1673.5,-165 1759.5,-165 1759.5,-184"/>
<text text-anchor="middle" x="1716.5" y="-172" font-family="Helvetica,sans-Serif" font-size="10.00">MeshHandle.h</text>
</a>
</g>
</g>
<!-- Node1&#45;&gt;Node27 -->
<g id="edge24_Node000001_Node000027" class="edge">
<title>Node1&#45;&gt;Node27</title>
<g id="a_edge24_Node000001_Node000027"><a xlink:title=" ">
<path fill="none" stroke="#63b8ff" d="M2479.68,-223.6C2306.49,-212.68 1893.9,-186.68 1759.57,-178.21"/>
<polygon fill="#63b8ff" stroke="#63b8ff" points="2479.54,-227.09 2489.74,-224.23 2479.98,-220.11 2479.54,-227.09"/>
</a>
</g>
</g>
<!-- Node140 -->
<g id="Node000140" class="node">
<title>Node140</title>
<g id="a_Node000140"><a xlink:href="../../dd/dfe/MessagePassingMng_8h_source.html" target="_top" xlink:title=" ">
<polygon fill="white" stroke="#666666" points="2575,-184 2448,-184 2448,-165 2575,-165 2575,-184"/>
<text text-anchor="middle" x="2511.5" y="-172" font-family="Helvetica,sans-Serif" font-size="10.00">MessagePassingMng.h</text>
</a>
</g>
</g>
<!-- Node1&#45;&gt;Node140 -->
<g id="edge48_Node000001_Node000140" class="edge">
<title>Node1&#45;&gt;Node140</title>
<g id="a_edge48_Node000001_Node000140"><a xlink:title=" ">
<path fill="none" stroke="#63b8ff" d="M2543.14,-211.96C2535.13,-202.72 2525.47,-191.6 2518.95,-184.09"/>
<polygon fill="#63b8ff" stroke="#63b8ff" points="2540.71,-214.49 2549.9,-219.75 2545.99,-209.9 2540.71,-214.49"/>
</a>
</g>
</g>
<!-- Node150 -->
<g id="Node000150" class="node">
<title>Node150</title>
<g id="a_Node000150"><a xlink:href="../../de/db3/ParallelMngDispatcher_8h_source.html" target="_top" xlink:title=" ">
<polygon fill="white" stroke="#666666" points="2724.5,-129 2590.5,-129 2590.5,-110 2724.5,-110 2724.5,-129"/>
<text text-anchor="middle" x="2657.5" y="-117" font-family="Helvetica,sans-Serif" font-size="10.00">ParallelMngDispatcher.h</text>
</a>
</g>
</g>
<!-- Node1&#45;&gt;Node150 -->
<g id="edge58_Node000001_Node000150" class="edge">
<title>Node1&#45;&gt;Node150</title>
<g id="a_edge58_Node000001_Node000150"><a xlink:title=" ">
<path fill="none" stroke="#63b8ff" d="M2572.5,-212.3C2593.98,-189.1 2632.77,-147.21 2649.48,-129.16"/>
<polygon fill="#63b8ff" stroke="#63b8ff" points="2569.91,-209.95 2565.68,-219.66 2575.05,-214.7 2569.91,-209.95"/>
</a>
</g>
</g>
<!-- Node151 -->
<g id="Node000151" class="node">
<title>Node151</title>
<g id="a_Node000151"><a xlink:href="../../dd/df3/NullThreadImplementation_8h_source.html" target="_top" xlink:title=" ">
<polygon fill="white" stroke="#666666" points="2827,-184 2670,-184 2670,-165 2827,-165 2827,-184"/>
<text text-anchor="middle" x="2748.5" y="-172" font-family="Helvetica,sans-Serif" font-size="10.00">NullThreadImplementation.h</text>
</a>
</g>
</g>
<!-- Node1&#45;&gt;Node151 -->
<g id="edge54_Node000001_Node000151" class="edge">
<title>Node1&#45;&gt;Node151</title>
<g id="a_edge54_Node000001_Node000151"><a xlink:title=" ">
<path fill="none" stroke="#63b8ff" d="M2598.28,-217.18C2634,-207.27 2685.13,-193.08 2717.57,-184.08"/>
<polygon fill="#63b8ff" stroke="#63b8ff" points="2596.89,-213.94 2588.19,-219.98 2598.76,-220.68 2596.89,-213.94"/>
</a>
</g>
</g>
<!-- Node154 -->
<g id="Node000154" class="node">
<title>Node154</title>
<g id="a_Node000154"><a xlink:href="../../d8/d2d/SpinLock_8cc_source.html" target="_top" xlink:title=" ">
<polygon fill="white" stroke="#666666" points="3074.5,-129 3000.5,-129 3000.5,-110 3074.5,-110 3074.5,-129"/>
<text text-anchor="middle" x="3037.5" y="-117" font-family="Helvetica,sans-Serif" font-size="10.00">SpinLock.cc</text>
</a>
</g>
</g>
<!-- Node1&#45;&gt;Node154 -->
<g id="edge60_Node000001_Node000154" class="edge">
<title>Node1&#45;&gt;Node154</title>
<g id="a_edge60_Node000001_Node000154"><a xlink:title=" ">
<path fill="none" stroke="#63b8ff" d="M2635.01,-222.26C2691.57,-216.24 2769.55,-204.84 2835.5,-184 2853.89,-178.19 2856.45,-171.79 2874.5,-165 2916.64,-149.14 2966.85,-136.3 3000.3,-128.56"/>
<polygon fill="#63b8ff" stroke="#63b8ff" points="2634.65,-218.78 2625.06,-223.29 2635.37,-225.74 2634.65,-218.78"/>
</a>
</g>
</g>
<!-- Node155 -->
<g id="Node000155" class="node">
<title>Node155</title>
<g id="a_Node000155"><a xlink:href="../../da/d06/SerializedData_8cc_source.html" target="_top" xlink:title=" ">
<polygon fill="white" stroke="#666666" points="2985,-184 2884,-184 2884,-165 2985,-165 2985,-184"/>
<text text-anchor="middle" x="2934.5" y="-172" font-family="Helvetica,sans-Serif" font-size="10.00">SerializedData.cc</text>
</a>
</g>
</g>
<!-- Node1&#45;&gt;Node155 -->
<g id="edge59_Node000001_Node000155" class="edge">
<title>Node1&#45;&gt;Node155</title>
<g id="a_edge59_Node000001_Node000155"><a xlink:title=" ">
<path fill="none" stroke="#63b8ff" d="M2628.29,-218.55C2702.7,-208.09 2817.91,-191.89 2883.75,-182.63"/>
<polygon fill="#63b8ff" stroke="#63b8ff" points="2627.49,-215.13 2618.07,-219.98 2628.46,-222.06 2627.49,-215.13"/>
</a>
</g>
</g>
<!-- Node156 -->
<g id="Node000156" class="node">
<title>Node156</title>
<g id="a_Node000156"><a xlink:href="../../dd/d01/StdThreadImplementation_8cc_source.html" target="_top" xlink:title=" ">
<polygon fill="white" stroke="#666666" points="3161.5,-184 3003.5,-184 3003.5,-165 3161.5,-165 3161.5,-184"/>
<text text-anchor="middle" x="3082.5" y="-172" font-family="Helvetica,sans-Serif" font-size="10.00">StdThreadImplementation.cc</text>
</a>
</g>
</g>
<!-- Node1&#45;&gt;Node156 -->
<g id="edge61_Node000001_Node000156" class="edge">
<title>Node1&#45;&gt;Node156</title>
<g id="a_edge61_Node000001_Node000156"><a xlink:title=" ">
<path fill="none" stroke="#63b8ff" d="M2635.28,-220.65C2734.08,-210.67 2903.68,-193.55 3003.2,-183.51"/>
<polygon fill="#63b8ff" stroke="#63b8ff" points="2634.66,-217.19 2625.06,-221.68 2635.36,-224.16 2634.66,-217.19"/>
</a>
</g>
</g>
<!-- Node157 -->
<g id="Node000157" class="node">
<title>Node157</title>
<g id="a_Node000157"><a xlink:href="../../d6/de2/arccore_2src_2trace_2arccore_2trace_2TraceMng_8cc_source.html" target="_top" xlink:title=" ">
<polygon fill="white" stroke="#666666" points="3257,-184 3180,-184 3180,-165 3257,-165 3257,-184"/>
<text text-anchor="middle" x="3218.5" y="-172" font-family="Helvetica,sans-Serif" font-size="10.00">TraceMng.cc</text>
</a>
</g>
</g>
<!-- Node1&#45;&gt;Node157 -->
<g id="edge62_Node000001_Node000157" class="edge">
<title>Node1&#45;&gt;Node157</title>
<g id="a_edge62_Node000001_Node000157"><a xlink:title=" ">
<path fill="none" stroke="#63b8ff" d="M2635.56,-225.41C2752.29,-220.2 2979.06,-207.83 3170.5,-184 3173.52,-183.62 3176.65,-183.18 3179.78,-182.71"/>
<polygon fill="#63b8ff" stroke="#63b8ff" points="2635.14,-221.92 2625.3,-225.86 2635.44,-228.91 2635.14,-221.92"/>
</a>
</g>
</g>
<!-- Node4 -->
<g id="Node000004" class="node">
<title>Node4</title>
<g id="a_Node000004"><a xlink:href="../../d0/d6b/CaseFunction2_8h_source.html" target="_top" xlink:title=" ">
<polygon fill="white" stroke="#666666" points="97,-129 0,-129 0,-110 97,-110 97,-129"/>
<text text-anchor="middle" x="48.5" y="-117" font-family="Helvetica,sans-Serif" font-size="10.00">CaseFunction2.h</text>
</a>
</g>
</g>
<!-- Node3&#45;&gt;Node4 -->
<g id="edge3_Node000003_Node000004" class="edge">
<title>Node3&#45;&gt;Node4</title>
<g id="a_edge3_Node000003_Node000004"><a xlink:title=" ">
<path fill="none" stroke="#63b8ff" d="M312.8,-164.27C251.89,-154.19 155.27,-138.18 97.26,-128.58"/>
<polygon fill="#63b8ff" stroke="#63b8ff" points="312.55,-167.78 322.99,-165.96 313.7,-160.88 312.55,-167.78"/>
</a>
</g>
</g>
<!-- Node5 -->
<g id="Node000005" class="node">
<title>Node5</title>
<g id="a_Node000005"><a xlink:href="../../d2/dec/InterfaceImpl_8cc_source.html" target="_top" xlink:title=" ">
<polygon fill="white" stroke="#666666" points="96,-74 1,-74 1,-55 96,-55 96,-74"/>
<text text-anchor="middle" x="48.5" y="-62" font-family="Helvetica,sans-Serif" font-size="10.00">InterfaceImpl.cc</text>
</a>
</g>
</g>
<!-- Node4&#45;&gt;Node5 -->
<g id="edge4_Node000004_Node000005" class="edge">
<title>Node4&#45;&gt;Node5</title>
<g id="a_edge4_Node000004_Node000005"><a xlink:title=" ">
<path fill="none" stroke="#63b8ff" d="M48.5,-99.66C48.5,-90.93 48.5,-80.99 48.5,-74.09"/>
<polygon fill="#63b8ff" stroke="#63b8ff" points="45,-99.75 48.5,-109.75 52,-99.75 45,-99.75"/>
</a>
</g>
</g>
<!-- Node7 -->
<g id="Node000007" class="node">
<title>Node7</title>
<g id="a_Node000007"><a xlink:href="../../d6/ded/CaseOptionBase_8cc_source.html" target="_top" xlink:title=" ">
<polygon fill="white" stroke="#666666" points="1062.5,-129 952.5,-129 952.5,-110 1062.5,-110 1062.5,-129"/>
<text text-anchor="middle" x="1007.5" y="-117" font-family="Helvetica,sans-Serif" font-size="10.00">CaseOptionBase.cc</text>
</a>
</g>
</g>
<!-- Node6&#45;&gt;Node7 -->
<g id="edge6_Node000006_Node000007" class="edge">
<title>Node6&#45;&gt;Node7</title>
<g id="a_edge6_Node000006_Node000007"><a xlink:title=" ">
<path fill="none" stroke="#63b8ff" d="M1098.2,-160.9C1076.22,-151.11 1046.32,-137.79 1026.97,-129.17"/>
<polygon fill="#63b8ff" stroke="#63b8ff" points="1096.82,-164.11 1107.38,-164.98 1099.67,-157.72 1096.82,-164.11"/>
</a>
</g>
</g>
<!-- Node8 -->
<g id="Node000008" class="node">
<title>Node8</title>
<g id="a_Node000008"><a xlink:href="../../d5/d38/CaseOptionList_8cc_source.html" target="_top" xlink:title=" ">
<polygon fill="white" stroke="#666666" points="1294.5,-129 1190.5,-129 1190.5,-110 1294.5,-110 1294.5,-129"/>
<text text-anchor="middle" x="1242.5" y="-117" font-family="Helvetica,sans-Serif" font-size="10.00">CaseOptionList.cc</text>
</a>
</g>
</g>
<!-- Node6&#45;&gt;Node8 -->
<g id="edge7_Node000006_Node000008" class="edge">
<title>Node6&#45;&gt;Node8</title>
<g id="a_edge7_Node000006_Node000008"><a xlink:title=" ">
<path fill="none" stroke="#63b8ff" d="M1154.37,-160.77C1175.77,-150.99 1204.74,-137.75 1223.52,-129.17"/>
<polygon fill="#63b8ff" stroke="#63b8ff" points="1152.78,-157.65 1145.14,-164.98 1155.69,-164.01 1152.78,-157.65"/>
</a>
</g>
</g>
<!-- Node9 -->
<g id="Node000009" class="node">
<title>Node9</title>
<g id="a_Node000009"><a xlink:href="../../d1/db9/CaseOptions_8cc_source.html" target="_top" xlink:title=" ">
<polygon fill="white" stroke="#666666" points="1172.5,-129 1080.5,-129 1080.5,-110 1172.5,-110 1172.5,-129"/>
<text text-anchor="middle" x="1126.5" y="-117" font-family="Helvetica,sans-Serif" font-size="10.00">CaseOptions.cc</text>
</a>
</g>
</g>
<!-- Node6&#45;&gt;Node9 -->
<g id="edge8_Node000006_Node000009" class="edge">
<title>Node6&#45;&gt;Node9</title>
<g id="a_edge8_Node000006_Node000009"><a xlink:title=" ">
<path fill="none" stroke="#63b8ff" d="M1126.5,-154.66C1126.5,-145.93 1126.5,-135.99 1126.5,-129.09"/>
<polygon fill="#63b8ff" stroke="#63b8ff" points="1123,-154.75 1126.5,-164.75 1130,-154.75 1123,-154.75"/>
</a>
</g>
</g>
<!-- Node10 -->
<g id="Node000010" class="node">
<title>Node10</title>
<g id="a_Node000010"><a xlink:href="../../d9/d66/ServiceBuilder_8cc_source.html" target="_top" xlink:title=" ">
<polygon fill="white" stroke="#666666" points="934.5,-129 834.5,-129 834.5,-110 934.5,-110 934.5,-129"/>
<text text-anchor="middle" x="884.5" y="-117" font-family="Helvetica,sans-Serif" font-size="10.00">ServiceBuilder.cc</text>
</a>
</g>
</g>
<!-- Node6&#45;&gt;Node10 -->
<g id="edge9_Node000006_Node000010" class="edge">
<title>Node6&#45;&gt;Node10</title>
<g id="a_edge9_Node000006_Node000010"><a xlink:title=" ">
<path fill="none" stroke="#63b8ff" d="M1077.71,-162.82C1032.36,-152.88 965.67,-138.28 923.69,-129.08"/>
<polygon fill="#63b8ff" stroke="#63b8ff" points="1077.1,-166.26 1087.62,-164.98 1078.6,-159.43 1077.1,-166.26"/>
</a>
</g>
</g>
<!-- Node12 -->
<g id="Node000012" class="node">
<title>Node12</title>
<g id="a_Node000012"><a xlink:href="../../d1/d2e/ComponentItemVector_8cc_source.html" target="_top" xlink:title=" ">
<polygon fill="white" stroke="#666666" points="637,-129 498,-129 498,-110 637,-110 637,-129"/>
<text text-anchor="middle" x="567.5" y="-117" font-family="Helvetica,sans-Serif" font-size="10.00">ComponentItemVector.cc</text>
</a>
</g>
</g>
<!-- Node11&#45;&gt;Node12 -->
<g id="edge11_Node000011_Node000012" class="edge">
<title>Node11&#45;&gt;Node12</title>
<g id="a_edge11_Node000011_Node000012"><a xlink:title=" ">
<path fill="none" stroke="#63b8ff" d="M518.62,-158.6C530.8,-149.11 546.16,-137.13 556.38,-129.17"/>
<polygon fill="#63b8ff" stroke="#63b8ff" points="516.16,-156.08 510.43,-164.98 520.46,-161.6 516.16,-156.08"/>
</a>
</g>
</g>
<!-- Node13 -->
<g id="Node000013" class="node">
<title>Node13</title>
<g id="a_Node000013"><a xlink:href="../../dc/dd3/materials_2ComponentItemVector_8h_source.html" target="_top" xlink:title=" ">
<polygon fill="white" stroke="#666666" points="249.5,-129 115.5,-129 115.5,-110 249.5,-110 249.5,-129"/>
<text text-anchor="middle" x="182.5" y="-117" font-family="Helvetica,sans-Serif" font-size="10.00">ComponentItemVector.h</text>
</a>
</g>
</g>
<!-- Node11&#45;&gt;Node13 -->
<g id="edge12_Node000011_Node000013" class="edge">
<title>Node11&#45;&gt;Node13</title>
<g id="a_edge12_Node000011_Node000013"><a xlink:title=" ">
<path fill="none" stroke="#63b8ff" d="M438.55,-163.31C379.02,-153.36 289.46,-138.38 233.57,-129.04"/>
<polygon fill="#63b8ff" stroke="#63b8ff" points="438.13,-166.79 448.57,-164.98 439.28,-159.88 438.13,-166.79"/>
</a>
</g>
</g>
<!-- Node14 -->
<g id="Node000014" class="node">
<title>Node14</title>
<g id="a_Node000014"><a xlink:href="../../df/dde/core_2materials_2EnvItemVector_8h_source.html" target="_top" xlink:title=" ">
<polygon fill="white" stroke="#666666" points="479.5,-129 383.5,-129 383.5,-110 479.5,-110 479.5,-129"/>
<text text-anchor="middle" x="431.5" y="-117" font-family="Helvetica,sans-Serif" font-size="10.00">EnvItemVector.h</text>
</a>
</g>
</g>
<!-- Node11&#45;&gt;Node14 -->
<g id="edge13_Node000011_Node000014" class="edge">
<title>Node11&#45;&gt;Node14</title>
<g id="a_edge13_Node000011_Node000014"><a xlink:title=" ">
<path fill="none" stroke="#63b8ff" d="M480.38,-158.6C468.2,-149.11 452.84,-137.13 442.62,-129.17"/>
<polygon fill="#63b8ff" stroke="#63b8ff" points="478.54,-161.6 488.57,-164.98 482.84,-156.08 478.54,-161.6"/>
</a>
</g>
</g>
<!-- Node20 -->
<g id="Node000020" class="node">
<title>Node20</title>
<g id="a_Node000020"><a xlink:href="../../dc/d07/core_2materials_2MatItemVector_8h_source.html" target="_top" xlink:title=" ">
<polygon fill="white" stroke="#666666" points="365,-129 268,-129 268,-110 365,-110 365,-129"/>
<text text-anchor="middle" x="316.5" y="-117" font-family="Helvetica,sans-Serif" font-size="10.00">MatItemVector.h</text>
</a>
</g>
</g>
<!-- Node11&#45;&gt;Node20 -->
<g id="edge17_Node000011_Node000020" class="edge">
<title>Node11&#45;&gt;Node20</title>
<g id="a_edge17_Node000011_Node000020"><a xlink:title=" ">
<path fill="none" stroke="#63b8ff" d="M460.43,-162.18C426.2,-152.27 377.21,-138.08 346.13,-129.08"/>
<polygon fill="#63b8ff" stroke="#63b8ff" points="459.52,-165.56 470.1,-164.98 461.47,-158.84 459.52,-165.56"/>
</a>
</g>
</g>
<!-- Node15 -->
<g id="Node000015" class="node">
<title>Node15</title>
<g id="a_Node000015"><a xlink:href="../../de/ddc/EnvItemVector_8cc_source.html" target="_top" xlink:title=" ">
<polygon fill="white" stroke="#666666" points="943,-74 842,-74 842,-55 943,-55 943,-74"/>
<text text-anchor="middle" x="892.5" y="-62" font-family="Helvetica,sans-Serif" font-size="10.00">EnvItemVector.cc</text>
</a>
</g>
</g>
<!-- Node14&#45;&gt;Node15 -->
<g id="edge14_Node000014_Node000015" class="edge">
<title>Node14&#45;&gt;Node15</title>
<g id="a_edge14_Node000014_Node000015"><a xlink:title=" ">
<path fill="none" stroke="#63b8ff" d="M489.64,-109.9C622.6,-92.81 766.96,-77.91 841.72,-70.46"/>
<polygon fill="#63b8ff" stroke="#63b8ff" points="489.15,-106.43 479.68,-111.18 490.05,-113.37 489.15,-106.43"/>
</a>
</g>
</g>
<!-- Node16 -->
<g id="Node000016" class="node">
<title>Node16</title>
<g id="a_Node000016"><a xlink:href="../../d2/d11/materials_2EnvItemVector_8h_source.html" target="_top" xlink:title=" ">
<polygon fill="#fff0f0" stroke="red" points="627.5,-74 531.5,-74 531.5,-55 627.5,-55 627.5,-74"/>
<text text-anchor="middle" x="579.5" y="-62" font-family="Helvetica,sans-Serif" font-size="10.00">EnvItemVector.h</text>
</a>
</g>
</g>
<!-- Node14&#45;&gt;Node16 -->
<g id="edge15_Node000014_Node000016" class="edge">
<title>Node14&#45;&gt;Node16</title>
<g id="a_edge15_Node000014_Node000016"><a xlink:title=" ">
<path fill="none" stroke="#63b8ff" d="M464.87,-106.55C492.35,-96.71 530.67,-82.98 555.29,-74.17"/>
<polygon fill="#63b8ff" stroke="#63b8ff" points="463.51,-103.32 455.28,-109.98 465.87,-109.91 463.51,-103.32"/>
</a>
</g>
</g>
<!-- Node19 -->
<g id="Node000019" class="node">
<title>Node19</title>
<g id="a_Node000019"><a xlink:href="../../d2/de5/MatItemEnumerator_8cc_source.html" target="_top" xlink:title=" ">
<polygon fill="white" stroke="#666666" points="513.5,-74 385.5,-74 385.5,-55 513.5,-55 513.5,-74"/>
<text text-anchor="middle" x="449.5" y="-62" font-family="Helvetica,sans-Serif" font-size="10.00">MatItemEnumerator.cc</text>
</a>
</g>
</g>
<!-- Node14&#45;&gt;Node19 -->
<g id="edge16_Node000014_Node000019" class="edge">
<title>Node14&#45;&gt;Node19</title>
<g id="a_edge16_Node000014_Node000019"><a xlink:title=" ">
<path fill="none" stroke="#63b8ff" d="M437.7,-100.24C440.71,-91.37 444.19,-81.14 446.58,-74.09"/>
<polygon fill="#63b8ff" stroke="#63b8ff" points="434.37,-99.15 434.47,-109.75 441,-101.4 434.37,-99.15"/>
</a>
</g>
</g>
<!-- Node20&#45;&gt;Node19 -->
<g id="edge18_Node000020_Node000019" class="edge">
<title>Node20&#45;&gt;Node19</title>
<g id="a_edge18_Node000020_Node000019"><a xlink:title=" ">
<path fill="none" stroke="#63b8ff" d="M347.47,-106.16C372.09,-96.35 405.91,-82.87 427.74,-74.17"/>
<polygon fill="#63b8ff" stroke="#63b8ff" points="345.86,-103.03 337.87,-109.98 348.45,-109.53 345.86,-103.03"/>
</a>
</g>
</g>
<!-- Node21 -->
<g id="Node000021" class="node">
<title>Node21</title>
<g id="a_Node000021"><a xlink:href="../../d4/d0c/MatItemVector_8cc_source.html" target="_top" xlink:title=" ">
<polygon fill="white" stroke="#666666" points="367,-74 266,-74 266,-55 367,-55 367,-74"/>
<text text-anchor="middle" x="316.5" y="-62" font-family="Helvetica,sans-Serif" font-size="10.00">MatItemVector.cc</text>
</a>
</g>
</g>
<!-- Node20&#45;&gt;Node21 -->
<g id="edge19_Node000020_Node000021" class="edge">
<title>Node20&#45;&gt;Node21</title>
<g id="a_edge19_Node000020_Node000021"><a xlink:title=" ">
<path fill="none" stroke="#63b8ff" d="M316.5,-99.66C316.5,-90.93 316.5,-80.99 316.5,-74.09"/>
<polygon fill="#63b8ff" stroke="#63b8ff" points="313,-99.75 316.5,-109.75 320,-99.75 313,-99.75"/>
</a>
</g>
</g>
<!-- Node22 -->
<g id="Node000022" class="node">
<title>Node22</title>
<g id="a_Node000022"><a xlink:href="../../d2/d52/materials_2MatItemVector_8h_source.html" target="_top" xlink:title=" ">
<polygon fill="#fff0f0" stroke="red" points="248,-74 151,-74 151,-55 248,-55 248,-74"/>
<text text-anchor="middle" x="199.5" y="-62" font-family="Helvetica,sans-Serif" font-size="10.00">MatItemVector.h</text>
</a>
</g>
</g>
<!-- Node20&#45;&gt;Node22 -->
<g id="edge20_Node000020_Node000022" class="edge">
<title>Node20&#45;&gt;Node22</title>
<g id="a_edge20_Node000020_Node000022"><a xlink:title=" ">
<path fill="none" stroke="#63b8ff" d="M288.39,-105.77C266.81,-95.99 237.59,-82.75 218.64,-74.17"/>
<polygon fill="#63b8ff" stroke="#63b8ff" points="287.15,-109.05 297.7,-109.98 290.04,-102.67 287.15,-109.05"/>
</a>
</g>
</g>
<!-- Node26 -->
<g id="Node000026" class="node">
<title>Node26</title>
<g id="a_Node000026"><a xlink:href="../../d0/db9/GlibThreadImplementation_8cc_source.html" target="_top" xlink:title=" ">
<polygon fill="white" stroke="#666666" points="816,-129 655,-129 655,-110 816,-110 816,-129"/>
<text text-anchor="middle" x="735.5" y="-117" font-family="Helvetica,sans-Serif" font-size="10.00">GlibThreadImplementation.cc</text>
</a>
</g>
</g>
<!-- Node25&#45;&gt;Node26 -->
<g id="edge23_Node000025_Node000026" class="edge">
<title>Node25&#45;&gt;Node26</title>
<g id="a_edge23_Node000025_Node000026"><a xlink:title=" ">
<path fill="none" stroke="#63b8ff" d="M831.85,-161.03C808.55,-151.23 776.7,-137.83 756.11,-129.17"/>
<polygon fill="#63b8ff" stroke="#63b8ff" points="830.68,-164.33 841.26,-164.98 833.4,-157.88 830.68,-164.33"/>
</a>
</g>
</g>
<!-- Node27&#45;&gt;Node8 -->
<g id="edge26_Node000027_Node000008" class="edge">
<title>Node27&#45;&gt;Node8</title>
<g id="a_edge26_Node000027_Node000008"><a xlink:title=" ">
<path fill="none" stroke="#63b8ff" d="M1663.19,-168.29C1584.45,-160.48 1432.45,-144.93 1303.5,-129 1300.63,-128.65 1297.7,-128.27 1294.73,-127.89"/>
<polygon fill="#63b8ff" stroke="#63b8ff" points="1663.05,-171.79 1673.34,-169.3 1663.74,-164.83 1663.05,-171.79"/>
</a>
</g>
</g>
<!-- Node27&#45;&gt;Node9 -->
<g id="edge27_Node000027_Node000009" class="edge">
<title>Node27&#45;&gt;Node9</title>
<g id="a_edge27_Node000027_Node000009"><a xlink:title=" ">
<path fill="none" stroke="#63b8ff" d="M1663.33,-170.32C1567.04,-164.29 1357.42,-149.88 1181.5,-129 1178.62,-128.66 1175.66,-128.28 1172.68,-127.88"/>
<polygon fill="#63b8ff" stroke="#63b8ff" points="1663.2,-173.82 1673.4,-170.95 1663.64,-166.83 1663.2,-173.82"/>
</a>
</g>
</g>
<!-- Node28 -->
<g id="Node000028" class="node">
<title>Node28</title>
<g id="a_Node000028"><a xlink:href="../../db/df6/CaseOptionExtended_8cc_source.html" target="_top" xlink:title=" ">
<polygon fill="white" stroke="#666666" points="2183.5,-129 2051.5,-129 2051.5,-110 2183.5,-110 2183.5,-129"/>
<text text-anchor="middle" x="2117.5" y="-117" font-family="Helvetica,sans-Serif" font-size="10.00">CaseOptionExtended.cc</text>
</a>
</g>
</g>
<!-- Node27&#45;&gt;Node28 -->
<g id="edge25_Node000027_Node000028" class="edge">
<title>Node27&#45;&gt;Node28</title>
<g id="a_edge25_Node000027_Node000028"><a xlink:title=" ">
<path fill="none" stroke="#63b8ff" d="M1769.72,-166.47C1842.85,-156.8 1974.3,-139.43 2052.96,-129.03"/>
<polygon fill="#63b8ff" stroke="#63b8ff" points="1769.25,-163 1759.8,-167.78 1770.17,-169.94 1769.25,-163"/>
</a>
</g>
</g>
<!-- Node29 -->
<g id="Node000029" class="node">
<title>Node29</title>
<g id="a_Node000029"><a xlink:href="../../d6/d48/src_2arcane_2cartesianmesh_2ICartesianMesh_8h_source.html" target="_top" xlink:title=" ">
<polygon fill="#fff0f0" stroke="red" points="1906,-129 1805,-129 1805,-110 1906,-110 1906,-129"/>
<text text-anchor="middle" x="1855.5" y="-117" font-family="Helvetica,sans-Serif" font-size="10.00">ICartesianMesh.h</text>
</a>
</g>
</g>
<!-- Node27&#45;&gt;Node29 -->
<g id="edge28_Node000027_Node000029" class="edge">
<title>Node27&#45;&gt;Node29</title>
<g id="a_edge28_Node000027_Node000029"><a xlink:title=" ">
<path fill="none" stroke="#63b8ff" d="M1748.18,-161.42C1773.97,-151.59 1809.74,-137.95 1832.76,-129.17"/>
<polygon fill="#63b8ff" stroke="#63b8ff" points="1746.93,-158.15 1738.83,-164.98 1749.42,-164.69 1746.93,-158.15"/>
</a>
</g>
</g>
<!-- Node43 -->
<g id="Node000043" class="node">
<title>Node43</title>
<g id="a_Node000043"><a xlink:href="../../df/d9c/core_2materials_2IMeshMaterialMng_8h_source.html" target="_top" xlink:title=" ">
<polygon fill="#fff0f0" stroke="red" points="1428.5,-129 1312.5,-129 1312.5,-110 1428.5,-110 1428.5,-129"/>
<text text-anchor="middle" x="1370.5" y="-117" font-family="Helvetica,sans-Serif" font-size="10.00">IMeshMaterialMng.h</text>
</a>
</g>
</g>
<!-- Node27&#45;&gt;Node43 -->
<g id="edge38_Node000027_Node000043" class="edge">
<title>Node27&#45;&gt;Node43</title>
<g id="a_edge38_Node000027_Node000043"><a xlink:title=" ">
<path fill="none" stroke="#63b8ff" d="M1663.46,-165.38C1599.24,-155.54 1491.59,-139.05 1426.2,-129.03"/>
<polygon fill="#63b8ff" stroke="#63b8ff" points="1662.96,-168.84 1673.38,-166.89 1664.02,-161.92 1662.96,-168.84"/>
</a>
</g>
</g>
<!-- Node124 -->
<g id="Node000124" class="node">
<title>Node124</title>
<g id="a_Node000124"><a xlink:href="../../d4/dba/ItemGroup_8cc_source.html" target="_top" xlink:title=" ">
<polygon fill="white" stroke="#666666" points="1528.5,-129 1446.5,-129 1446.5,-110 1528.5,-110 1528.5,-129"/>
<text text-anchor="middle" x="1487.5" y="-117" font-family="Helvetica,sans-Serif" font-size="10.00">ItemGroup.cc</text>
</a>
</g>
</g>
<!-- Node27&#45;&gt;Node124 -->
<g id="edge42_Node000027_Node000124" class="edge">
<title>Node27&#45;&gt;Node124</title>
<g id="a_edge42_Node000027_Node000124"><a xlink:title=" ">
<path fill="none" stroke="#63b8ff" d="M1669.79,-162.69C1626.89,-152.76 1564.14,-138.24 1524.58,-129.08"/>
<polygon fill="#63b8ff" stroke="#63b8ff" points="1669.18,-166.14 1679.71,-164.98 1670.75,-159.32 1669.18,-166.14"/>
</a>
</g>
</g>
<!-- Node125 -->
<g id="Node000125" class="node">
<title>Node125</title>
<g id="a_Node000125"><a xlink:href="../../da/d8b/MeshStats_8cc_source.html" target="_top" xlink:title=" ">
<polygon fill="white" stroke="#666666" points="1628,-129 1547,-129 1547,-110 1628,-110 1628,-129"/>
<text text-anchor="middle" x="1587.5" y="-117" font-family="Helvetica,sans-Serif" font-size="10.00">MeshStats.cc</text>
</a>
</g>
</g>
<!-- Node27&#45;&gt;Node125 -->
<g id="edge43_Node000027_Node000125" class="edge">
<title>Node27&#45;&gt;Node125</title>
<g id="a_edge43_Node000027_Node000125"><a xlink:title=" ">
<path fill="none" stroke="#63b8ff" d="M1686.46,-161.16C1662.58,-151.35 1629.78,-137.87 1608.6,-129.17"/>
<polygon fill="#63b8ff" stroke="#63b8ff" points="1685.19,-164.42 1695.77,-164.98 1687.85,-157.95 1685.19,-164.42"/>
</a>
</g>
</g>
<!-- Node126 -->
<g id="Node000126" class="node">
<title>Node126</title>
<g id="a_Node000126"><a xlink:href="../../d1/d21/MeshTimeHistoryAdder_8h_source.html" target="_top" xlink:title=" ">
<polygon fill="#fff0f0" stroke="red" points="1786.5,-129 1646.5,-129 1646.5,-110 1786.5,-110 1786.5,-129"/>
<text text-anchor="middle" x="1716.5" y="-117" font-family="Helvetica,sans-Serif" font-size="10.00">MeshTimeHistoryAdder.h</text>
</a>
</g>
</g>
<!-- Node27&#45;&gt;Node126 -->
<g id="edge44_Node000027_Node000126" class="edge">
<title>Node27&#45;&gt;Node126</title>
<g id="a_edge44_Node000027_Node000126"><a xlink:title=" ">
<path fill="none" stroke="#63b8ff" d="M1716.5,-154.66C1716.5,-145.93 1716.5,-135.99 1716.5,-129.09"/>
<polygon fill="#63b8ff" stroke="#63b8ff" points="1713,-154.75 1716.5,-164.75 1720,-154.75 1713,-154.75"/>
</a>
</g>
</g>
<!-- Node128 -->
<g id="Node000128" class="node">
<title>Node128</title>
<g id="a_Node000128"><a xlink:href="../../dd/db5/Variable_8cc_source.html" target="_top" xlink:title=" ">
<polygon fill="white" stroke="#666666" points="2246.5,-74 2176.5,-74 2176.5,-55 2246.5,-55 2246.5,-74"/>
<text text-anchor="middle" x="2211.5" y="-62" font-family="Helvetica,sans-Serif" font-size="10.00">Variable.cc</text>
</a>
</g>
</g>
<!-- Node27&#45;&gt;Node128 -->
<g id="edge45_Node000027_Node000128" class="edge">
<title>Node27&#45;&gt;Node128</title>
<g id="a_edge45_Node000027_Node000128"><a xlink:title=" ">
<path fill="none" stroke="#63b8ff" d="M1769.89,-171.83C1887.37,-167.7 2160.37,-155.34 2192.5,-129 2209.05,-115.43 2211.58,-88.06 2211.73,-74.1"/>
<polygon fill="#63b8ff" stroke="#63b8ff" points="1769.57,-168.34 1759.69,-172.19 1769.81,-175.34 1769.57,-168.34"/>
</a>
</g>
</g>
<!-- Node129 -->
<g id="Node000129" class="node">
<title>Node129</title>
<g id="a_Node000129"><a xlink:href="../../d1/d1d/VariableBuildInfo_8h_source.html" target="_top" xlink:title=" ">
<polygon fill="#fff0f0" stroke="red" points="2033,-129 1924,-129 1924,-110 2033,-110 2033,-129"/>
<text text-anchor="middle" x="1978.5" y="-117" font-family="Helvetica,sans-Serif" font-size="10.00">VariableBuildInfo.h</text>
</a>
</g>
</g>
<!-- Node27&#45;&gt;Node129 -->
<g id="edge46_Node000027_Node000129" class="edge">
<title>Node27&#45;&gt;Node129</title>
<g id="a_edge46_Node000027_Node000129"><a xlink:title=" ">
<path fill="none" stroke="#63b8ff" d="M1768.7,-162.94C1817.81,-153.01 1890.43,-138.31 1936.08,-129.08"/>
<polygon fill="#63b8ff" stroke="#63b8ff" points="1767.7,-159.57 1758.59,-164.98 1769.09,-166.43 1767.7,-159.57"/>
</a>
</g>
</g>
<!-- Node30 -->
<g id="Node000030" class="node">
<title>Node30</title>
<g id="a_Node000030"><a xlink:href="../../d1/de9/CartesianMesh_8cc_source.html" target="_top" xlink:title=" ">
<polygon fill="white" stroke="#666666" points="2108,-19 2005,-19 2005,0 2108,0 2108,-19"/>
<text text-anchor="middle" x="2056.5" y="-7" font-family="Helvetica,sans-Serif" font-size="10.00">CartesianMesh.cc</text>
</a>
</g>
</g>
<!-- Node29&#45;&gt;Node30 -->
<g id="edge29_Node000029_Node000030" class="edge">
<title>Node29&#45;&gt;Node30</title>
<g id="a_edge29_Node000029_Node000030"><a xlink:title=" ">
<path fill="none" stroke="#63b8ff" d="M1916.13,-109.64C1995.78,-97.87 2126.04,-78.07 2129.5,-74 2148.44,-51.74 2107.91,-30.4 2080,-19.02"/>
<polygon fill="#63b8ff" stroke="#63b8ff" points="1915.59,-106.19 1906.2,-111.11 1916.61,-113.11 1915.59,-106.19"/>
</a>
</g>
</g>
<!-- Node31 -->
<g id="Node000031" class="node">
<title>Node31</title>
<g id="a_Node000031"><a xlink:href="../../d3/d97/CartesianMeshAMRPatchMng_8h_source.html" target="_top" xlink:title=" ">
<polygon fill="#fff0f0" stroke="red" points="1325.5,-74 1157.5,-74 1157.5,-55 1325.5,-55 1325.5,-74"/>
<text text-anchor="middle" x="1241.5" y="-62" font-family="Helvetica,sans-Serif" font-size="10.00">CartesianMeshAMRPatchMng.h</text>
</a>
</g>
</g>
<!-- Node29&#45;&gt;Node31 -->
<g id="edge30_Node000029_Node000031" class="edge">
<title>Node29&#45;&gt;Node31</title>
<g id="a_edge30_Node000029_Node000031"><a xlink:title=" ">
<path fill="none" stroke="#63b8ff" d="M1794.59,-109.97C1589.5,-87.69 1535.98,-91.07 1334.5,-74 1331.59,-73.75 1328.63,-73.5 1325.65,-73.24"/>
<polygon fill="#63b8ff" stroke="#63b8ff" points="1794.47,-113.48 1804.79,-111.09 1795.23,-106.52 1794.47,-113.48"/>
</a>
</g>
</g>
<!-- Node33 -->
<g id="Node000033" class="node">
<title>Node33</title>
<g id="a_Node000033"><a xlink:href="../../df/db9/CartesianMeshCoarsening_8cc_source.html" target="_top" xlink:title=" ">
<polygon fill="white" stroke="#666666" points="1501.5,-74 1343.5,-74 1343.5,-55 1501.5,-55 1501.5,-74"/>
<text text-anchor="middle" x="1422.5" y="-62" font-family="Helvetica,sans-Serif" font-size="10.00">CartesianMeshCoarsening.cc</text>
</a>
</g>
</g>
<!-- Node29&#45;&gt;Node33 -->
<g id="edge32_Node000029_Node000033" class="edge">
<title>Node29&#45;&gt;Node33</title>
<g id="a_edge32_Node000029_Node000033"><a xlink:title=" ">
<path fill="none" stroke="#63b8ff" d="M1794.56,-109.9C1685.34,-95.72 1571.04,-82.36 1497.93,-74.01"/>
<polygon fill="#63b8ff" stroke="#63b8ff" points="1794.4,-113.41 1804.77,-111.23 1795.31,-106.47 1794.4,-113.41"/>
</a>
</g>
</g>
<!-- Node34 -->
<g id="Node000034" class="node">
<title>Node34</title>
<g id="a_Node000034"><a xlink:href="../../dd/d2a/CartesianMeshCoarsening2_8cc_source.html" target="_top" xlink:title=" ">
<polygon fill="white" stroke="#666666" points="1683.5,-74 1519.5,-74 1519.5,-55 1683.5,-55 1683.5,-74"/>
<text text-anchor="middle" x="1601.5" y="-62" font-family="Helvetica,sans-Serif" font-size="10.00">CartesianMeshCoarsening2.cc</text>
</a>
</g>
</g>
<!-- Node29&#45;&gt;Node34 -->
<g id="edge33_Node000029_Node000034" class="edge">
<title>Node29&#45;&gt;Node34</title>
<g id="a_edge33_Node000029_Node000034"><a xlink:title=" ">
<path fill="none" stroke="#63b8ff" d="M1804.89,-107.94C1757.28,-98.01 1686.88,-83.31 1642.63,-74.08"/>
<polygon fill="#63b8ff" stroke="#63b8ff" points="1804.19,-111.37 1814.69,-109.98 1805.62,-104.52 1804.19,-111.37"/>
</a>
</g>
</g>
<!-- Node35 -->
<g id="Node000035" class="node">
<title>Node35</title>
<g id="a_Node000035"><a xlink:href="../../d5/ddd/CartesianMeshPatch_8cc_source.html" target="_top" xlink:title=" ">
<polygon fill="white" stroke="#666666" points="1831,-74 1702,-74 1702,-55 1831,-55 1831,-74"/>
<text text-anchor="middle" x="1766.5" y="-62" font-family="Helvetica,sans-Serif" font-size="10.00">CartesianMeshPatch.cc</text>
</a>
</g>
</g>
<!-- Node29&#45;&gt;Node35 -->
<g id="edge34_Node000029_Node000035" class="edge">
<title>Node29&#45;&gt;Node35</title>
<g id="a_edge34_Node000029_Node000035"><a xlink:title=" ">
<path fill="none" stroke="#63b8ff" d="M1832.32,-104.7C1816.11,-95.04 1794.95,-82.44 1781.06,-74.17"/>
<polygon fill="#63b8ff" stroke="#63b8ff" points="1830.82,-107.88 1841.2,-109.98 1834.4,-101.86 1830.82,-107.88"/>
</a>
</g>
</g>
<!-- Node36 -->
<g id="Node000036" class="node">
<title>Node36</title>
<g id="a_Node000036"><a xlink:href="../../d4/dcd/CartesianMeshUtils_8cc_source.html" target="_top" xlink:title=" ">
<polygon fill="white" stroke="#666666" points="1974,-74 1849,-74 1849,-55 1974,-55 1974,-74"/>
<text text-anchor="middle" x="1911.5" y="-62" font-family="Helvetica,sans-Serif" font-size="10.00">CartesianMeshUtils.cc</text>
</a>
</g>
</g>
<!-- Node29&#45;&gt;Node36 -->
<g id="edge35_Node000029_Node000036" class="edge">
<title>Node29&#45;&gt;Node36</title>
<g id="a_edge35_Node000029_Node000036"><a xlink:title=" ">
<path fill="none" stroke="#63b8ff" d="M1871.83,-103.04C1881.76,-93.64 1894.09,-81.98 1902.34,-74.17"/>
<polygon fill="#63b8ff" stroke="#63b8ff" points="1869.35,-100.57 1864.5,-109.98 1874.17,-105.65 1869.35,-100.57"/>
</a>
</g>
</g>
<!-- Node37 -->
<g id="Node000037" class="node">
<title>Node37</title>
<g id="a_Node000037"><a xlink:href="../../d3/dc5/CartesianPatchGroup_8h_source.html" target="_top" xlink:title=" ">
<polygon fill="#fff0f0" stroke="red" points="2120.5,-74 1992.5,-74 1992.5,-55 2120.5,-55 2120.5,-74"/>
<text text-anchor="middle" x="2056.5" y="-62" font-family="Helvetica,sans-Serif" font-size="10.00">CartesianPatchGroup.h</text>
</a>
</g>
</g>
<!-- Node29&#45;&gt;Node37 -->
<g id="edge36_Node000029_Node000037" class="edge">
<title>Node29&#45;&gt;Node37</title>
<g id="a_edge36_Node000029_Node000037"><a xlink:title=" ">
<path fill="none" stroke="#63b8ff" d="M1897.93,-107.31C1935.54,-97.39 1989.67,-83.12 2023.95,-74.08"/>
<polygon fill="#63b8ff" stroke="#63b8ff" points="1896.57,-104.05 1887.79,-109.98 1898.36,-110.82 1896.57,-104.05"/>
</a>
</g>
</g>
<!-- Node31&#45;&gt;Node30 -->
<g id="edge31_Node000031_Node000030" class="edge">
<title>Node31&#45;&gt;Node30</title>
<g id="a_edge31_Node000031_Node000030"><a xlink:title=" ">
<path fill="none" stroke="#63b8ff" d="M1335.94,-54.91C1593.46,-35.36 1887.8,-19.29 2004.81,-13.16"/>
<polygon fill="#63b8ff" stroke="#63b8ff" points="1335.35,-51.45 1325.64,-55.7 1335.88,-58.43 1335.35,-51.45"/>
</a>
</g>
</g>
<!-- Node37&#45;&gt;Node30 -->
<g id="edge37_Node000037_Node000030" class="edge">
<title>Node37&#45;&gt;Node30</title>
<g id="a_edge37_Node000037_Node000030"><a xlink:title=" ">
<path fill="none" stroke="#63b8ff" d="M2056.5,-44.66C2056.5,-35.93 2056.5,-25.99 2056.5,-19.09"/>
<polygon fill="#63b8ff" stroke="#63b8ff" points="2053,-44.75 2056.5,-54.75 2060,-44.75 2053,-44.75"/>
</a>
</g>
</g>
<!-- Node43&#45;&gt;Node15 -->
<g id="edge39_Node000043_Node000015" class="edge">
<title>Node43&#45;&gt;Node15</title>
<g id="a_edge39_Node000043_Node000015"><a xlink:title=" ">
<path fill="none" stroke="#63b8ff" d="M1302.23,-109.87C1166.34,-93.97 1018.87,-78.5 943.15,-70.68"/>
<polygon fill="#63b8ff" stroke="#63b8ff" points="1302.06,-113.37 1312.4,-111.06 1302.88,-106.42 1302.06,-113.37"/>
</a>
</g>
</g>
<!-- Node43&#45;&gt;Node19 -->
<g id="edge40_Node000043_Node000019" class="edge">
<title>Node43&#45;&gt;Node19</title>
<g id="a_edge40_Node000043_Node000019"><a xlink:title=" ">
<path fill="none" stroke="#63b8ff" d="M1302.35,-109.98C955.6,-80.52 865.54,-101.84 522.5,-74 519.57,-73.76 516.59,-73.5 513.57,-73.22"/>
<polygon fill="#63b8ff" stroke="#63b8ff" points="1302.16,-113.48 1312.43,-110.84 1302.76,-106.5 1302.16,-113.48"/>
</a>
</g>
</g>
<!-- Node43&#45;&gt;Node21 -->
<g id="edge41_Node000043_Node000021" class="edge">
<title>Node43&#45;&gt;Node21</title>
<g id="a_edge41_Node000043_Node000021"><a xlink:title=" ">
<path fill="none" stroke="#63b8ff" d="M1302.34,-109.99C890.87,-76.58 783.84,-110.67 376.5,-74 373.46,-73.73 370.34,-73.41 367.2,-73.05"/>
<polygon fill="#63b8ff" stroke="#63b8ff" points="1302.18,-113.49 1312.43,-110.82 1302.75,-106.51 1302.18,-113.49"/>
</a>
</g>
</g>
<!-- Node129&#45;&gt;Node128 -->
<g id="edge47_Node000129_Node000128" class="edge">
<title>Node129&#45;&gt;Node128</title>
<g id="a_edge47_Node000129_Node000128"><a xlink:title=" ">
<path fill="none" stroke="#63b8ff" d="M2025.96,-107.7C2070.59,-97.55 2136.38,-82.59 2176.44,-73.47"/>
<polygon fill="#63b8ff" stroke="#63b8ff" points="2024.91,-104.35 2015.94,-109.98 2026.46,-111.18 2024.91,-104.35"/>
</a>
</g>
</g>
<!-- Node141 -->
<g id="Node000141" class="node">
<title>Node141</title>
<g id="a_Node000141"><a xlink:href="../../d3/d7c/MessagePassingMng_8cc_source.html" target="_top" xlink:title=" ">
<polygon fill="white" stroke="#666666" points="2371,-129 2240,-129 2240,-110 2371,-110 2371,-129"/>
<text text-anchor="middle" x="2305.5" y="-117" font-family="Helvetica,sans-Serif" font-size="10.00">MessagePassingMng.cc</text>
</a>
</g>
</g>
<!-- Node140&#45;&gt;Node141 -->
<g id="edge49_Node000140_Node000141" class="edge">
<title>Node140&#45;&gt;Node141</title>
<g id="a_edge49_Node000140_Node000141"><a xlink:title=" ">
<path fill="none" stroke="#63b8ff" d="M2468.5,-162.44C2429.94,-152.52 2374.14,-138.16 2338.86,-129.08"/>
<polygon fill="#63b8ff" stroke="#63b8ff" points="2467.85,-165.88 2478.4,-164.98 2469.59,-159.1 2467.85,-165.88"/>
</a>
</g>
</g>
<!-- Node142 -->
<g id="Node000142" class="node">
<title>Node142</title>
<g id="a_Node000142"><a xlink:href="../../d1/d82/MpiMessagePassingMng_8h_source.html" target="_top" xlink:title=" ">
<polygon fill="#fff0f0" stroke="red" points="2534,-129 2389,-129 2389,-110 2534,-110 2534,-129"/>
<text text-anchor="middle" x="2461.5" y="-117" font-family="Helvetica,sans-Serif" font-size="10.00">MpiMessagePassingMng.h</text>
</a>
</g>
</g>
<!-- Node140&#45;&gt;Node142 -->
<g id="edge50_Node000140_Node000142" class="edge">
<title>Node140&#45;&gt;Node142</title>
<g id="a_edge50_Node000140_Node000142"><a xlink:title=" ">
<path fill="none" stroke="#63b8ff" d="M2496.16,-157.24C2487.4,-147.95 2476.76,-136.68 2469.6,-129.09"/>
<polygon fill="#63b8ff" stroke="#63b8ff" points="2493.84,-159.88 2503.24,-164.75 2498.93,-155.07 2493.84,-159.88"/>
</a>
</g>
</g>
<!-- Node149 -->
<g id="Node000149" class="node">
<title>Node149</title>
<g id="a_Node000149"><a xlink:href="../../d2/d8d/ParallelMngDispatcher_8cc_source.html" target="_top" xlink:title=" ">
<polygon fill="white" stroke="#666666" points="2679,-74 2540,-74 2540,-55 2679,-55 2679,-74"/>
<text text-anchor="middle" x="2609.5" y="-62" font-family="Helvetica,sans-Serif" font-size="10.00">ParallelMngDispatcher.cc</text>
</a>
</g>
</g>
<!-- Node140&#45;&gt;Node149 -->
<g id="edge51_Node000140_Node000149" class="edge">
<title>Node140&#45;&gt;Node149</title>
<g id="a_edge51_Node000140_Node000149"><a xlink:title=" ">
<path fill="none" stroke="#63b8ff" d="M2526.47,-157C2547.58,-133.73 2585.34,-92.13 2601.64,-74.16"/>
<polygon fill="#63b8ff" stroke="#63b8ff" points="2523.65,-154.9 2519.52,-164.66 2528.83,-159.61 2523.65,-154.9"/>
</a>
</g>
</g>
<!-- Node140&#45;&gt;Node150 -->
<g id="edge52_Node000140_Node000150" class="edge">
<title>Node140&#45;&gt;Node150</title>
<g id="a_edge52_Node000140_Node000150"><a xlink:title=" ">
<path fill="none" stroke="#63b8ff" d="M2544.42,-161.55C2571.53,-151.71 2609.33,-137.98 2633.62,-129.17"/>
<polygon fill="#63b8ff" stroke="#63b8ff" points="2543.16,-158.28 2534.96,-164.98 2545.55,-164.86 2543.16,-158.28"/>
</a>
</g>
</g>
<!-- Node150&#45;&gt;Node149 -->
<g id="edge53_Node000150_Node000149" class="edge">
<title>Node150&#45;&gt;Node149</title>
<g id="a_edge53_Node000150_Node000149"><a xlink:title=" ">
<path fill="none" stroke="#63b8ff" d="M2642.77,-102.24C2634.36,-92.95 2624.15,-81.68 2617.28,-74.09"/>
<polygon fill="#63b8ff" stroke="#63b8ff" points="2640.27,-104.69 2649.57,-109.75 2645.46,-99.99 2640.27,-104.69"/>
</a>
</g>
</g>
<!-- Node151&#45;&gt;Node24 -->
<g id="edge55_Node000151_Node000024" class="edge">
<title>Node151&#45;&gt;Node24</title>
<g id="a_edge55_Node000151_Node000024"><a xlink:title=" ">
<path fill="none" stroke="#63b8ff" d="M2764.79,-157.8C2774.54,-148.41 2786.55,-136.83 2794.59,-129.09"/>
<polygon fill="#63b8ff" stroke="#63b8ff" points="2762.35,-155.29 2757.58,-164.75 2767.21,-160.33 2762.35,-155.29"/>
</a>
</g>
</g>
<!-- Node152 -->
<g id="Node000152" class="node">
<title>Node152</title>
<g id="a_Node000152"><a xlink:href="../../d5/dbc/NullThreadMng_8h_source.html" target="_top" xlink:title=" ">
<polygon fill="#fff0f0" stroke="red" points="2982.5,-129 2882.5,-129 2882.5,-110 2982.5,-110 2982.5,-129"/>
<text text-anchor="middle" x="2932.5" y="-117" font-family="Helvetica,sans-Serif" font-size="10.00">NullThreadMng.h</text>
</a>
</g>
</g>
<!-- Node151&#45;&gt;Node152 -->
<g id="edge56_Node000151_Node000152" class="edge">
<title>Node151&#45;&gt;Node152</title>
<g id="a_edge56_Node000151_Node000152"><a xlink:title=" ">
<path fill="none" stroke="#63b8ff" d="M2787.79,-162.18C2822.2,-152.27 2871.46,-138.08 2902.71,-129.08"/>
<polygon fill="#63b8ff" stroke="#63b8ff" points="2786.7,-158.85 2778.06,-164.98 2788.64,-165.58 2786.7,-158.85"/>
</a>
</g>
</g>
<!-- Node151&#45;&gt;Node154 -->
<g id="edge57_Node000151_Node000154" class="edge">
<title>Node151&#45;&gt;Node154</title>
<g id="a_edge57_Node000151_Node000154"><a xlink:title=" ">
<path fill="none" stroke="#63b8ff" d="M2805.22,-163.14C2854.47,-154.14 2927.7,-140.74 2991.5,-129 2994.38,-128.47 2997.35,-127.92 3000.34,-127.37"/>
<polygon fill="#63b8ff" stroke="#63b8ff" points="2804.3,-159.75 2795.09,-164.99 2805.56,-166.64 2804.3,-159.75"/>
</a>
</g>
</g>
</g>
</svg>
