<?xml version="1.0" encoding="UTF-8" standalone="no"?>
<!DOCTYPE svg PUBLIC "-//W3C//DTD SVG 1.1//EN"
 "http://www.w3.org/Graphics/SVG/1.1/DTD/svg11.dtd">
<!-- Generated by graphviz version 2.43.0 (0)
 -->
<!-- Title: Arcane::MEDMeshReader::_readFaces Pages: 1 -->
<svg width="485pt" height="439pt"
 viewBox="0.00 0.00 485.00 438.50" xmlns="http://www.w3.org/2000/svg" xmlns:xlink="http://www.w3.org/1999/xlink">
<g id="graph0" class="graph" transform="scale(1 1) rotate(0) translate(4 434.5)">
<title>Arcane::MEDMeshReader::_readFaces</title>
<!-- Node1 -->
<g id="Node000001" class="node">
<title>Node1</title>
<g id="a_Node000001"><a xlink:title="Lit les faces.">
<polygon fill="#999999" stroke="#666666" points="140,-207 0,-207 0,-177 140,-177 140,-207"/>
<text text-anchor="start" x="8" y="-195" font-family="Helvetica,sans-Serif" font-size="10.00">Arcane::MEDMeshReader</text>
<text text-anchor="middle" x="70" y="-184" font-family="Helvetica,sans-Serif" font-size="10.00">::_readFaces</text>
</a>
</g>
</g>
<!-- Node2 -->
<g id="Node000002" class="node">
<title>Node2</title>
<g id="a_Node000002"><a xlink:href="../../da/d10/classArcane_1_1MEDMeshReader.html#a91df65d78a859855933ea12840f73753" target="_top" xlink:title="Lit les informations des entités d&#39;un type donné.">
<polygon fill="white" stroke="#666666" points="316,-362 176,-362 176,-332 316,-332 316,-362"/>
<text text-anchor="start" x="184" y="-350" font-family="Helvetica,sans-Serif" font-size="10.00">Arcane::MEDMeshReader</text>
<text text-anchor="middle" x="246" y="-339" font-family="Helvetica,sans-Serif" font-size="10.00">::_readItems</text>
</a>
</g>
</g>
<!-- Node1&#45;&gt;Node2 -->
<g id="edge1_Node000001_Node000002" class="edge">
<title>Node1&#45;&gt;Node2</title>
<g id="a_edge1_Node000001_Node000002"><a xlink:title=" ">
<path fill="none" stroke="#63b8ff" d="M80.18,-207.21C96.51,-233.13 132.96,-286.16 176,-318 180.68,-321.47 185.84,-324.61 191.17,-327.43"/>
<polygon fill="#63b8ff" stroke="#63b8ff" points="189.72,-330.62 200.24,-331.89 192.81,-324.33 189.72,-330.62"/>
</a>
</g>
</g>
<!-- Node5 -->
<g id="Node000005" class="node">
<title>Node5</title>
<g id="a_Node000005"><a xlink:href="../../d1/d17/classArcane_1_1TraceAccessor.html#a7f15f017b10b72c85bba3fce76314619" target="_top" xlink:title="Flot pour un message d&#39;information.">
<polygon fill="white" stroke="#666666" points="477,-319 352,-319 352,-289 477,-289 477,-319"/>
<text text-anchor="start" x="360" y="-307" font-family="Helvetica,sans-Serif" font-size="10.00">Arcane::TraceAccessor</text>
<text text-anchor="middle" x="414.5" y="-296" font-family="Helvetica,sans-Serif" font-size="10.00">::info</text>
</a>
</g>
</g>
<!-- Node1&#45;&gt;Node5 -->
<g id="edge7_Node000001_Node000005" class="edge">
<title>Node1&#45;&gt;Node5</title>
<g id="a_edge7_Node000001_Node000005"><a xlink:title=" ">
<path fill="none" stroke="#63b8ff" d="M82.65,-207C100.25,-228.39 135.85,-266.94 176,-284 228.44,-306.28 293.19,-310.38 341.82,-309.41"/>
<polygon fill="#63b8ff" stroke="#63b8ff" points="342.05,-312.9 351.95,-309.13 341.85,-305.91 342.05,-312.9"/>
</a>
</g>
</g>
<!-- Node7 -->
<g id="Node000007" class="node">
<title>Node7</title>
<g id="a_Node000007"><a xlink:href="../../d8/dd7/classArcane_1_1Node.html#a71cd8e93c20bfacc963de4480d940fc4" target="_top" xlink:title="Liste des faces du noeud.">
<polygon fill="white" stroke="#666666" points="303,-275.5 189,-275.5 189,-256.5 303,-256.5 303,-275.5"/>
<text text-anchor="middle" x="246" y="-263.5" font-family="Helvetica,sans-Serif" font-size="10.00">Arcane::Node::faces</text>
</a>
</g>
</g>
<!-- Node1&#45;&gt;Node7 -->
<g id="edge6_Node000001_Node000007" class="edge">
<title>Node1&#45;&gt;Node7</title>
<g id="a_edge6_Node000001_Node000007"><a xlink:title=" ">
<path fill="none" stroke="#63b8ff" d="M96.17,-207.14C117,-219.19 147.67,-235.83 176,-247 181.99,-249.36 188.39,-251.55 194.78,-253.53"/>
<polygon fill="#63b8ff" stroke="#63b8ff" points="194.17,-257 204.75,-256.48 196.15,-250.29 194.17,-257"/>
</a>
</g>
</g>
<!-- Node8 -->
<g id="Node000008" class="node">
<title>Node8</title>
<g id="a_Node000008"><a xlink:href="../../df/d5f/classArcane_1_1Item.html#a337f519e8727634e55ea621f4734ec04" target="_top" xlink:title="Identifiant local de l&#39;entité dans le sous&#45;domaine du processeur.">
<polygon fill="white" stroke="#666666" points="304.5,-238.5 187.5,-238.5 187.5,-219.5 304.5,-219.5 304.5,-238.5"/>
<text text-anchor="middle" x="246" y="-226.5" font-family="Helvetica,sans-Serif" font-size="10.00">Arcane::Item::localId</text>
</a>
</g>
</g>
<!-- Node1&#45;&gt;Node8 -->
<g id="edge8_Node000001_Node000008" class="edge">
<title>Node1&#45;&gt;Node8</title>
<g id="a_edge8_Node000001_Node000008"><a xlink:title=" ">
<path fill="none" stroke="#63b8ff" d="M140.02,-206.68C156.6,-210.2 174.09,-213.92 189.93,-217.29"/>
<polygon fill="#63b8ff" stroke="#63b8ff" points="189.58,-220.79 200.09,-219.45 191.03,-213.95 189.58,-220.79"/>
</a>
</g>
</g>
<!-- Node9 -->
<g id="Node000009" class="node">
<title>Node9</title>
<g id="a_Node000009"><a xlink:href="../../df/d5f/classArcane_1_1Item.html#a8f8568870c3a43ef28b09eaf37a6852c" target="_top" xlink:title="true si l&#39;entité est nul (i.e. non connecté au maillage)">
<polygon fill="white" stroke="#666666" points="297.5,-201.5 194.5,-201.5 194.5,-182.5 297.5,-182.5 297.5,-201.5"/>
<text text-anchor="middle" x="246" y="-189.5" font-family="Helvetica,sans-Serif" font-size="10.00">Arcane::Item::null</text>
</a>
</g>
</g>
<!-- Node1&#45;&gt;Node9 -->
<g id="edge9_Node000001_Node000009" class="edge">
<title>Node1&#45;&gt;Node9</title>
<g id="a_edge9_Node000001_Node000009"><a xlink:title=" ">
<path fill="none" stroke="#63b8ff" d="M140.02,-192C154.6,-192 169.89,-192 184.15,-192"/>
<polygon fill="#63b8ff" stroke="#63b8ff" points="184.32,-195.5 194.32,-192 184.32,-188.5 184.32,-195.5"/>
</a>
</g>
</g>
<!-- Node10 -->
<g id="Node000010" class="node">
<title>Node10</title>
<g id="a_Node000010"><a xlink:href="../../d5/d72/classArcane_1_1AbstractArray.html#a462e7632cf9664d773016bc972bed483" target="_top" xlink:title="Nombre d&#39;éléments du vecteur.">
<polygon fill="white" stroke="#666666" points="307.5,-164 184.5,-164 184.5,-134 307.5,-134 307.5,-164"/>
<text text-anchor="start" x="192.5" y="-152" font-family="Helvetica,sans-Serif" font-size="10.00">Arcane::AbstractArray</text>
<text text-anchor="middle" x="246" y="-141" font-family="Helvetica,sans-Serif" font-size="10.00">::size</text>
</a>
</g>
</g>
<!-- Node1&#45;&gt;Node10 -->
<g id="edge10_Node000001_Node000010" class="edge">
<title>Node1&#45;&gt;Node10</title>
<g id="a_edge10_Node000001_Node000010"><a xlink:title=" ">
<path fill="none" stroke="#63b8ff" d="M131.86,-176.96C145.71,-173.54 160.54,-169.87 174.75,-166.36"/>
<polygon fill="#63b8ff" stroke="#63b8ff" points="175.6,-169.76 184.47,-163.96 173.92,-162.96 175.6,-169.76"/>
</a>
</g>
</g>
<!-- Node11 -->
<g id="Node000011" class="node">
<title>Node11</title>
<g id="a_Node000011"><a xlink:href="../../d1/dfb/classArcane_1_1Array.html#aaa0b7d08701ac99a206a32b98657bd60" target="_top" xlink:title="Vue immutable sur ce tableau.">
<polygon fill="white" stroke="#666666" points="301.5,-115.5 190.5,-115.5 190.5,-96.5 301.5,-96.5 301.5,-115.5"/>
<text text-anchor="middle" x="246" y="-103.5" font-family="Helvetica,sans-Serif" font-size="10.00">Arcane::Array::span</text>
</a>
</g>
</g>
<!-- Node1&#45;&gt;Node11 -->
<g id="edge11_Node000001_Node000011" class="edge">
<title>Node1&#45;&gt;Node11</title>
<g id="a_edge11_Node000001_Node000011"><a xlink:title=" ">
<path fill="none" stroke="#63b8ff" d="M90.89,-176.73C111.27,-161.71 144.38,-139.06 176,-125 181.31,-122.64 186.98,-120.51 192.71,-118.6"/>
<polygon fill="#63b8ff" stroke="#63b8ff" points="193.83,-121.91 202.34,-115.6 191.75,-115.23 193.83,-121.91"/>
</a>
</g>
</g>
<!-- Node12 -->
<g id="Node000012" class="node">
<title>Node12</title>
<g id="a_Node000012"><a xlink:href="../../d7/dbb/classArcane_1_1ItemTypeMng.html#a6dbdcef18e34209d65c7e26b7c315de1" target="_top" xlink:title="Type correspondant au numéro id.">
<polygon fill="white" stroke="#666666" points="307,-78 185,-78 185,-48 307,-48 307,-78"/>
<text text-anchor="start" x="193" y="-66" font-family="Helvetica,sans-Serif" font-size="10.00">Arcane::ItemTypeMng</text>
<text text-anchor="middle" x="246" y="-55" font-family="Helvetica,sans-Serif" font-size="10.00">::typeFromId</text>
</a>
</g>
</g>
<!-- Node1&#45;&gt;Node12 -->
<g id="edge12_Node000001_Node000012" class="edge">
<title>Node1&#45;&gt;Node12</title>
<g id="a_edge12_Node000001_Node000012"><a xlink:title=" ">
<path fill="none" stroke="#63b8ff" d="M82.28,-177C99.95,-154.48 136.25,-111.93 176,-87 178.6,-85.37 181.33,-83.83 184.14,-82.38"/>
<polygon fill="#63b8ff" stroke="#63b8ff" points="185.75,-85.49 193.31,-78.07 182.77,-79.16 185.75,-85.49"/>
</a>
</g>
</g>
<!-- Node13 -->
<g id="Node000013" class="node">
<title>Node13</title>
<g id="a_Node000013"><a xlink:href="../../dc/d74/classArcane_1_1ItemTypeInfo.html#aa3497731926adb83ecaa37521b77b226" target="_top" xlink:title="Nom du type.">
<polygon fill="white" stroke="#666666" points="306,-30 186,-30 186,0 306,0 306,-30"/>
<text text-anchor="start" x="194" y="-18" font-family="Helvetica,sans-Serif" font-size="10.00">Arcane::ItemTypeInfo</text>
<text text-anchor="middle" x="246" y="-7" font-family="Helvetica,sans-Serif" font-size="10.00">::typeName</text>
</a>
</g>
</g>
<!-- Node1&#45;&gt;Node13 -->
<g id="edge13_Node000001_Node000013" class="edge">
<title>Node1&#45;&gt;Node13</title>
<g id="a_edge13_Node000001_Node000013"><a xlink:title=" ">
<path fill="none" stroke="#63b8ff" d="M77.54,-176.57C91.28,-145.94 126.07,-77.12 176,-39 177.8,-37.62 179.69,-36.32 181.64,-35.09"/>
<polygon fill="#63b8ff" stroke="#63b8ff" points="183.5,-38.07 190.54,-30.15 180.1,-31.95 183.5,-38.07"/>
</a>
</g>
</g>
<!-- Node3 -->
<g id="Node000003" class="node">
<title>Node3</title>
<g id="a_Node000003"><a xlink:href="../../d1/dfb/classArcane_1_1Array.html#a13320a574c15951f1ce125c2800293df" target="_top" xlink:title="Supprime les éléments du tableau.">
<polygon fill="white" stroke="#666666" points="470.5,-430.5 358.5,-430.5 358.5,-411.5 470.5,-411.5 470.5,-430.5"/>
<text text-anchor="middle" x="414.5" y="-418.5" font-family="Helvetica,sans-Serif" font-size="10.00">Arcane::Array::clear</text>
</a>
</g>
</g>
<!-- Node2&#45;&gt;Node3 -->
<g id="edge2_Node000002_Node000003" class="edge">
<title>Node2&#45;&gt;Node3</title>
<g id="a_edge2_Node000002_Node000003"><a xlink:title=" ">
<path fill="none" stroke="#63b8ff" d="M271.76,-362.08C292.6,-374.31 323.5,-391.37 352,-403 356.71,-404.92 361.69,-406.73 366.71,-408.4"/>
<polygon fill="#63b8ff" stroke="#63b8ff" points="365.74,-411.77 376.33,-411.46 367.86,-405.1 365.74,-411.77"/>
</a>
</g>
</g>
<!-- Node4 -->
<g id="Node000004" class="node">
<title>Node4</title>
<g id="a_Node000004"><a xlink:href="../../d1/dfb/classArcane_1_1Array.html#a614af631e09a48430321193c95207d27" target="_top" xlink:title="Accès à la racine du tableau hors toute protection.">
<polygon fill="white" stroke="#666666" points="469.5,-393.5 359.5,-393.5 359.5,-374.5 469.5,-374.5 469.5,-393.5"/>
<text text-anchor="middle" x="414.5" y="-381.5" font-family="Helvetica,sans-Serif" font-size="10.00">Arcane::Array::data</text>
</a>
</g>
</g>
<!-- Node2&#45;&gt;Node4 -->
<g id="edge3_Node000002_Node000004" class="edge">
<title>Node2&#45;&gt;Node4</title>
<g id="a_edge3_Node000002_Node000004"><a xlink:title=" ">
<path fill="none" stroke="#63b8ff" d="M314.72,-362.05C330.08,-365.46 346.18,-369.04 360.81,-372.29"/>
<polygon fill="#63b8ff" stroke="#63b8ff" points="360.16,-375.73 370.68,-374.48 361.67,-368.9 360.16,-375.73"/>
</a>
</g>
</g>
<!-- Node2&#45;&gt;Node5 -->
<g id="edge4_Node000002_Node000005" class="edge">
<title>Node2&#45;&gt;Node5</title>
<g id="a_edge4_Node000002_Node000005"><a xlink:title=" ">
<path fill="none" stroke="#63b8ff" d="M305.23,-331.96C318.16,-328.62 331.98,-325.05 345.26,-321.62"/>
<polygon fill="#63b8ff" stroke="#63b8ff" points="346.49,-324.92 355.3,-319.03 344.74,-318.14 346.49,-324.92"/>
</a>
</g>
</g>
<!-- Node6 -->
<g id="Node000006" class="node">
<title>Node6</title>
<g id="a_Node000006"><a xlink:href="../../d1/dfb/classArcane_1_1Array.html#a31fc5b4bd79b4f6e4a011735d33b1818" target="_top" xlink:title="Change le nombre d&#39;éléments du tableau à s.">
<polygon fill="white" stroke="#666666" points="473,-356.5 356,-356.5 356,-337.5 473,-337.5 473,-356.5"/>
<text text-anchor="middle" x="414.5" y="-344.5" font-family="Helvetica,sans-Serif" font-size="10.00">Arcane::Array::resize</text>
</a>
</g>
</g>
<!-- Node2&#45;&gt;Node6 -->
<g id="edge5_Node000002_Node000006" class="edge">
<title>Node2&#45;&gt;Node6</title>
<g id="a_edge5_Node000002_Node000006"><a xlink:title=" ">
<path fill="none" stroke="#63b8ff" d="M316.16,-347C325.98,-347 336.06,-347 345.85,-347"/>
<polygon fill="#63b8ff" stroke="#63b8ff" points="345.91,-350.5 355.91,-347 345.91,-343.5 345.91,-350.5"/>
</a>
</g>
</g>
</g>
</svg>
