<?xml version="1.0" encoding="UTF-8" standalone="no"?>
<!DOCTYPE svg PUBLIC "-//W3C//DTD SVG 1.1//EN"
 "http://www.w3.org/Graphics/SVG/1.1/DTD/svg11.dtd">
<!-- Generated by graphviz version 2.43.0 (0)
 -->
<!-- Title: Simd.h Pages: 1 -->
<svg width="1697pt" height="456pt"
 viewBox="0.00 0.00 1697.00 456.00" xmlns="http://www.w3.org/2000/svg" xmlns:xlink="http://www.w3.org/1999/xlink">
<g id="graph0" class="graph" transform="scale(1 1) rotate(0) translate(4 452)">
<title>Simd.h</title>
<!-- Node1 -->
<g id="Node000001" class="node">
<title>Node1</title>
<g id="a_Node000001"><a xlink:title=" ">
<polygon fill="#999999" stroke="#666666" points="1262,-448 1212,-448 1212,-429 1262,-429 1262,-448"/>
<text text-anchor="middle" x="1237" y="-436" font-family="Helvetica,sans-Serif" font-size="10.00">Simd.h</text>
</a>
</g>
</g>
<!-- Node2 -->
<g id="Node000002" class="node">
<title>Node2</title>
<g id="a_Node000002"><a xlink:href="../../db/dee/MeshMaterialSimdUnitTest_8cc_source.html" target="_top" xlink:title=" ">
<polygon fill="white" stroke="#666666" points="1225.5,-277.5 1064.5,-277.5 1064.5,-258.5 1225.5,-258.5 1225.5,-277.5"/>
<text text-anchor="middle" x="1145" y="-265.5" font-family="Helvetica,sans-Serif" font-size="10.00">MeshMaterialSimdUnitTest.cc</text>
</a>
</g>
</g>
<!-- Node1&#45;&gt;Node2 -->
<g id="edge1_Node000001_Node000002" class="edge">
<title>Node1&#45;&gt;Node2</title>
<g id="a_edge1_Node000001_Node000002"><a xlink:title=" ">
<path fill="none" stroke="#63b8ff" d="M1234.05,-418.74C1229.54,-394.25 1219.24,-350.78 1199,-319 1188.02,-301.76 1169.67,-286.54 1157.45,-277.55"/>
<polygon fill="#63b8ff" stroke="#63b8ff" points="1230.64,-419.55 1235.77,-428.82 1237.54,-418.37 1230.64,-419.55"/>
</a>
</g>
</g>
<!-- Node3 -->
<g id="Node000003" class="node">
<title>Node3</title>
<g id="a_Node000003"><a xlink:href="../../de/d90/Simd_8cc_source.html" target="_top" xlink:title=" ">
<polygon fill="white" stroke="#666666" points="1339.5,-393 1284.5,-393 1284.5,-374 1339.5,-374 1339.5,-393"/>
<text text-anchor="middle" x="1312" y="-381" font-family="Helvetica,sans-Serif" font-size="10.00">Simd.cc</text>
</a>
</g>
</g>
<!-- Node1&#45;&gt;Node3 -->
<g id="edge2_Node000001_Node000003" class="edge">
<title>Node1&#45;&gt;Node3</title>
<g id="a_edge2_Node000001_Node000003"><a xlink:title=" ">
<path fill="none" stroke="#63b8ff" d="M1257.31,-423.15C1270.86,-413.57 1288.24,-401.29 1299.73,-393.17"/>
<polygon fill="#63b8ff" stroke="#63b8ff" points="1255.2,-420.36 1249.05,-428.98 1259.24,-426.07 1255.2,-420.36"/>
</a>
</g>
</g>
<!-- Node4 -->
<g id="Node000004" class="node">
<title>Node4</title>
<g id="a_Node000004"><a xlink:href="../../de/d2d/SimdItem_8h.html" target="_top" xlink:title=" ">
<polygon fill="white" stroke="#666666" points="1181.5,-393 1108.5,-393 1108.5,-374 1181.5,-374 1181.5,-393"/>
<text text-anchor="middle" x="1145" y="-381" font-family="Helvetica,sans-Serif" font-size="10.00">SimdItem.h</text>
</a>
</g>
</g>
<!-- Node1&#45;&gt;Node4 -->
<g id="edge3_Node000001_Node000004" class="edge">
<title>Node1&#45;&gt;Node4</title>
<g id="a_edge3_Node000001_Node000004"><a xlink:title=" ">
<path fill="none" stroke="#63b8ff" d="M1213.51,-423.97C1196.69,-414.28 1174.55,-401.52 1160.05,-393.17"/>
<polygon fill="#63b8ff" stroke="#63b8ff" points="1211.81,-427.03 1222.22,-428.98 1215.3,-420.96 1211.81,-427.03"/>
</a>
</g>
</g>
<!-- Node27 -->
<g id="Node000027" class="node">
<title>Node27</title>
<g id="a_Node000027"><a xlink:href="../../d2/da0/SimdOperation_8h_source.html" target="_top" xlink:title=" ">
<polygon fill="white" stroke="#666666" points="1374,-338 1276,-338 1276,-319 1374,-319 1374,-338"/>
<text text-anchor="middle" x="1325" y="-326" font-family="Helvetica,sans-Serif" font-size="10.00">SimdOperation.h</text>
</a>
</g>
</g>
<!-- Node1&#45;&gt;Node27 -->
<g id="edge28_Node000001_Node000027" class="edge">
<title>Node1&#45;&gt;Node27</title>
<g id="a_edge28_Node000001_Node000027"><a xlink:title=" ">
<path fill="none" stroke="#63b8ff" d="M1246.12,-419.75C1253.34,-406.5 1264.16,-388.29 1276,-374 1287.44,-360.2 1303.13,-346.69 1313.65,-338.25"/>
<polygon fill="#63b8ff" stroke="#63b8ff" points="1242.93,-418.3 1241.34,-428.77 1249.12,-421.58 1242.93,-418.3"/>
</a>
</g>
</g>
<!-- Node5 -->
<g id="Node000005" class="node">
<title>Node5</title>
<g id="a_Node000005"><a xlink:href="../../d0/d7c/VariableView_8h.html" target="_top" xlink:title=" ">
<polygon fill="white" stroke="#666666" points="1189.5,-338 1100.5,-338 1100.5,-319 1189.5,-319 1189.5,-338"/>
<text text-anchor="middle" x="1145" y="-326" font-family="Helvetica,sans-Serif" font-size="10.00">VariableView.h</text>
</a>
</g>
</g>
<!-- Node4&#45;&gt;Node5 -->
<g id="edge4_Node000004_Node000005" class="edge">
<title>Node4&#45;&gt;Node5</title>
<g id="a_edge4_Node000004_Node000005"><a xlink:title=" ">
<path fill="none" stroke="#63b8ff" d="M1145,-363.66C1145,-354.93 1145,-344.99 1145,-338.09"/>
<polygon fill="#63b8ff" stroke="#63b8ff" points="1141.5,-363.75 1145,-373.75 1148.5,-363.75 1141.5,-363.75"/>
</a>
</g>
</g>
<!-- Node7 -->
<g id="Node000007" class="node">
<title>Node7</title>
<g id="a_Node000007"><a xlink:href="../../d7/dd5/VariableViews_8h.html" target="_top" xlink:title=" ">
<polygon fill="white" stroke="#666666" points="971.5,-338 876.5,-338 876.5,-319 971.5,-319 971.5,-338"/>
<text text-anchor="middle" x="924" y="-326" font-family="Helvetica,sans-Serif" font-size="10.00">VariableViews.h</text>
</a>
</g>
</g>
<!-- Node4&#45;&gt;Node7 -->
<g id="edge7_Node000004_Node000007" class="edge">
<title>Node4&#45;&gt;Node7</title>
<g id="a_edge7_Node000004_Node000007"><a xlink:title=" ">
<path fill="none" stroke="#63b8ff" d="M1099.66,-371.63C1058.26,-361.7 997.88,-347.22 959.79,-338.08"/>
<polygon fill="#63b8ff" stroke="#63b8ff" points="1098.95,-375.06 1109.49,-373.98 1100.58,-368.25 1098.95,-375.06"/>
</a>
</g>
</g>
<!-- Node5&#45;&gt;Node2 -->
<g id="edge5_Node000005_Node000002" class="edge">
<title>Node5&#45;&gt;Node2</title>
<g id="a_edge5_Node000005_Node000002"><a xlink:title=" ">
<path fill="none" stroke="#63b8ff" d="M1145,-308.66C1145,-298.24 1145,-285.8 1145,-277.67"/>
<polygon fill="#63b8ff" stroke="#63b8ff" points="1141.5,-308.87 1145,-318.87 1148.5,-308.87 1141.5,-308.87"/>
</a>
</g>
</g>
<!-- Node6 -->
<g id="Node000006" class="node">
<title>Node6</title>
<g id="a_Node000006"><a xlink:href="../../d9/d14/MeshMaterialTesterModule_8cc_source.html" target="_top" xlink:title=" ">
<polygon fill="white" stroke="#666666" points="1406,-277.5 1244,-277.5 1244,-258.5 1406,-258.5 1406,-277.5"/>
<text text-anchor="middle" x="1325" y="-265.5" font-family="Helvetica,sans-Serif" font-size="10.00">MeshMaterialTesterModule.cc</text>
</a>
</g>
</g>
<!-- Node5&#45;&gt;Node6 -->
<g id="edge6_Node000005_Node000006" class="edge">
<title>Node5&#45;&gt;Node6</title>
<g id="a_edge6_Node000005_Node000006"><a xlink:title=" ">
<path fill="none" stroke="#63b8ff" d="M1180.95,-315.82C1215.76,-304.5 1267.72,-287.62 1298.79,-277.52"/>
<polygon fill="#63b8ff" stroke="#63b8ff" points="1179.6,-312.57 1171.17,-318.99 1181.77,-319.23 1179.6,-312.57"/>
</a>
</g>
</g>
<!-- Node8 -->
<g id="Node000008" class="node">
<title>Node8</title>
<g id="a_Node000008"><a xlink:href="../../db/d5b/Accelerator_8h_source.html" target="_top" xlink:title=" ">
<polygon fill="white" stroke="#666666" points="689,-277.5 609,-277.5 609,-258.5 689,-258.5 689,-277.5"/>
<text text-anchor="middle" x="649" y="-265.5" font-family="Helvetica,sans-Serif" font-size="10.00">Accelerator.h</text>
</a>
</g>
</g>
<!-- Node7&#45;&gt;Node8 -->
<g id="edge8_Node000007_Node000008" class="edge">
<title>Node7&#45;&gt;Node8</title>
<g id="a_edge8_Node000007_Node000008"><a xlink:title=" ">
<path fill="none" stroke="#63b8ff" d="M866.36,-317.38C820.75,-309.06 755.53,-296.48 699,-283 692.16,-281.37 684.85,-279.43 677.98,-277.53"/>
<polygon fill="#63b8ff" stroke="#63b8ff" points="865.9,-320.85 876.36,-319.19 867.15,-313.96 865.9,-320.85"/>
</a>
</g>
</g>
<!-- Node24 -->
<g id="Node000024" class="node">
<title>Node24</title>
<g id="a_Node000024"><a xlink:href="../../de/d8b/MaterialHeatTestModule_8cc_source.html" target="_top" xlink:title=" ">
<polygon fill="white" stroke="#666666" points="856.5,-277.5 707.5,-277.5 707.5,-258.5 856.5,-258.5 856.5,-277.5"/>
<text text-anchor="middle" x="782" y="-265.5" font-family="Helvetica,sans-Serif" font-size="10.00">MaterialHeatTestModule.cc</text>
</a>
</g>
</g>
<!-- Node7&#45;&gt;Node24 -->
<g id="edge25_Node000007_Node000024" class="edge">
<title>Node7&#45;&gt;Node24</title>
<g id="a_edge25_Node000007_Node000024"><a xlink:title=" ">
<path fill="none" stroke="#63b8ff" d="M893.86,-315.08C866.43,-303.78 826.66,-287.4 802.67,-277.52"/>
<polygon fill="#63b8ff" stroke="#63b8ff" points="892.77,-318.42 903.35,-318.99 895.44,-311.95 892.77,-318.42"/>
</a>
</g>
</g>
<!-- Node25 -->
<g id="Node000025" class="node">
<title>Node25</title>
<g id="a_Node000025"><a xlink:href="../../dc/d5a/VariableViews_8cc_source.html" target="_top" xlink:title=" ">
<polygon fill="white" stroke="#666666" points="973.5,-277.5 874.5,-277.5 874.5,-258.5 973.5,-258.5 973.5,-277.5"/>
<text text-anchor="middle" x="924" y="-265.5" font-family="Helvetica,sans-Serif" font-size="10.00">VariableViews.cc</text>
</a>
</g>
</g>
<!-- Node7&#45;&gt;Node25 -->
<g id="edge26_Node000007_Node000025" class="edge">
<title>Node7&#45;&gt;Node25</title>
<g id="a_edge26_Node000007_Node000025"><a xlink:title=" ">
<path fill="none" stroke="#63b8ff" d="M924,-308.66C924,-298.24 924,-285.8 924,-277.67"/>
<polygon fill="#63b8ff" stroke="#63b8ff" points="920.5,-308.87 924,-318.87 927.5,-308.87 920.5,-308.87"/>
</a>
</g>
</g>
<!-- Node26 -->
<g id="Node000026" class="node">
<title>Node26</title>
<g id="a_Node000026"><a xlink:href="../../dc/dc7/Views_8h_source.html" target="_top" xlink:title=" ">
<polygon fill="white" stroke="#666666" points="1046.5,-277.5 991.5,-277.5 991.5,-258.5 1046.5,-258.5 1046.5,-277.5"/>
<text text-anchor="middle" x="1019" y="-265.5" font-family="Helvetica,sans-Serif" font-size="10.00">Views.h</text>
</a>
</g>
</g>
<!-- Node7&#45;&gt;Node26 -->
<g id="edge27_Node000007_Node000026" class="edge">
<title>Node7&#45;&gt;Node26</title>
<g id="a_edge27_Node000007_Node000026"><a xlink:title=" ">
<path fill="none" stroke="#63b8ff" d="M946.79,-313.47C964.88,-302.32 989.61,-287.1 1004.92,-277.67"/>
<polygon fill="#63b8ff" stroke="#63b8ff" points="944.7,-310.64 938.02,-318.87 948.37,-316.6 944.7,-310.64"/>
</a>
</g>
</g>
<!-- Node9 -->
<g id="Node000009" class="node">
<title>Node9</title>
<g id="a_Node000009"><a xlink:href="../../d9/d71/AcceleratorMeshMaterialSynchronizerImpl_8h_source.html" target="_top" xlink:title=" ">
<polygon fill="white" stroke="#666666" points="750,-217 548,-217 548,-187 750,-187 750,-217"/>
<text text-anchor="start" x="556" y="-205" font-family="Helvetica,sans-Serif" font-size="10.00">AcceleratorMeshMaterialSynchronizer</text>
<text text-anchor="middle" x="649" y="-194" font-family="Helvetica,sans-Serif" font-size="10.00">Impl.h</text>
</a>
</g>
</g>
<!-- Node8&#45;&gt;Node9 -->
<g id="edge9_Node000008_Node000009" class="edge">
<title>Node8&#45;&gt;Node9</title>
<g id="a_edge9_Node000008_Node000009"><a xlink:title=" ">
<path fill="none" stroke="#63b8ff" d="M649,-248.35C649,-238.47 649,-226.51 649,-217.36"/>
<polygon fill="#63b8ff" stroke="#63b8ff" points="645.5,-248.37 649,-258.37 652.5,-248.37 645.5,-248.37"/>
</a>
</g>
</g>
<!-- Node10 -->
<g id="Node000010" class="node">
<title>Node10</title>
<g id="a_Node000010"><a xlink:href="../../de/d57/AcceleratorMeshMaterialSynchronizerImpl_8cc_source.html" target="_top" xlink:title=" ">
<polygon fill="white" stroke="#666666" points="652,-151 450,-151 450,-121 652,-121 652,-151"/>
<text text-anchor="start" x="458" y="-139" font-family="Helvetica,sans-Serif" font-size="10.00">AcceleratorMeshMaterialSynchronizer</text>
<text text-anchor="middle" x="551" y="-128" font-family="Helvetica,sans-Serif" font-size="10.00">Impl.cc</text>
</a>
</g>
</g>
<!-- Node9&#45;&gt;Node10 -->
<g id="edge10_Node000009_Node000010" class="edge">
<title>Node9&#45;&gt;Node10</title>
<g id="a_edge10_Node000009_Node000010"><a xlink:title=" ">
<path fill="none" stroke="#63b8ff" d="M618.84,-181.3C603.92,-171.56 586.25,-160.02 572.69,-151.16"/>
<polygon fill="#63b8ff" stroke="#63b8ff" points="616.96,-184.26 627.25,-186.8 620.79,-178.4 616.96,-184.26"/>
</a>
</g>
</g>
<!-- Node11 -->
<g id="Node000011" class="node">
<title>Node11</title>
<g id="a_Node000011"><a xlink:href="../../d4/db4/MeshMaterialSynchronizer_8h_source.html" target="_top" xlink:title=" ">
<polygon fill="white" stroke="#666666" points="825.5,-145.5 670.5,-145.5 670.5,-126.5 825.5,-126.5 825.5,-145.5"/>
<text text-anchor="middle" x="748" y="-133.5" font-family="Helvetica,sans-Serif" font-size="10.00">MeshMaterialSynchronizer.h</text>
</a>
</g>
</g>
<!-- Node9&#45;&gt;Node11 -->
<g id="edge11_Node000009_Node000011" class="edge">
<title>Node9&#45;&gt;Node11</title>
<g id="a_edge11_Node000009_Node000011"><a xlink:title=" ">
<path fill="none" stroke="#63b8ff" d="M679.38,-181.36C697.85,-169.42 720.51,-154.77 734.61,-145.66"/>
<polygon fill="#63b8ff" stroke="#63b8ff" points="677.47,-178.43 670.97,-186.8 681.27,-184.31 677.47,-178.43"/>
</a>
</g>
</g>
<!-- Node12 -->
<g id="Node000012" class="node">
<title>Node12</title>
<g id="a_Node000012"><a xlink:href="../../d6/d2e/MeshMaterialMng_8cc_source.html" target="_top" xlink:title=" ">
<polygon fill="white" stroke="#666666" points="118,-24.5 0,-24.5 0,-5.5 118,-5.5 118,-24.5"/>
<text text-anchor="middle" x="59" y="-12.5" font-family="Helvetica,sans-Serif" font-size="10.00">MeshMaterialMng.cc</text>
</a>
</g>
</g>
<!-- Node11&#45;&gt;Node12 -->
<g id="edge12_Node000011_Node000012" class="edge">
<title>Node11&#45;&gt;Node12</title>
<g id="a_edge12_Node000011_Node000012"><a xlink:title=" ">
<path fill="none" stroke="#63b8ff" d="M685.88,-124.79C550.84,-102.53 234.1,-50.07 127,-30 118,-28.31 108.35,-26.39 99.23,-24.53"/>
<polygon fill="#63b8ff" stroke="#63b8ff" points="685.62,-128.29 696.06,-126.46 686.76,-121.38 685.62,-128.29"/>
</a>
</g>
</g>
<!-- Node13 -->
<g id="Node000013" class="node">
<title>Node13</title>
<g id="a_Node000013"><a xlink:href="../../da/d7b/MeshMaterialMng_8h_source.html" target="_top" xlink:title=" ">
<polygon fill="white" stroke="#666666" points="804.5,-85 691.5,-85 691.5,-66 804.5,-66 804.5,-85"/>
<text text-anchor="middle" x="748" y="-73" font-family="Helvetica,sans-Serif" font-size="10.00">MeshMaterialMng.h</text>
</a>
</g>
</g>
<!-- Node11&#45;&gt;Node13 -->
<g id="edge13_Node000011_Node000013" class="edge">
<title>Node11&#45;&gt;Node13</title>
<g id="a_edge13_Node000011_Node000013"><a xlink:title=" ">
<path fill="none" stroke="#63b8ff" d="M748,-116.16C748,-105.74 748,-93.3 748,-85.17"/>
<polygon fill="#63b8ff" stroke="#63b8ff" points="744.5,-116.37 748,-126.37 751.5,-116.37 744.5,-116.37"/>
</a>
</g>
</g>
<!-- Node23 -->
<g id="Node000023" class="node">
<title>Node23</title>
<g id="a_Node000023"><a xlink:href="../../d4/d6f/MeshMaterialSynchronizer_8cc_source.html" target="_top" xlink:title=" ">
<polygon fill="white" stroke="#666666" points="981.5,-85 822.5,-85 822.5,-66 981.5,-66 981.5,-85"/>
<text text-anchor="middle" x="902" y="-73" font-family="Helvetica,sans-Serif" font-size="10.00">MeshMaterialSynchronizer.cc</text>
</a>
</g>
</g>
<!-- Node11&#45;&gt;Node23 -->
<g id="edge24_Node000011_Node000023" class="edge">
<title>Node11&#45;&gt;Node23</title>
<g id="a_edge24_Node000011_Node000023"><a xlink:title=" ">
<path fill="none" stroke="#63b8ff" d="M779.91,-122.88C809.68,-111.57 853.34,-94.99 879.58,-85.02"/>
<polygon fill="#63b8ff" stroke="#63b8ff" points="778.5,-119.67 770.39,-126.49 780.98,-126.21 778.5,-119.67"/>
</a>
</g>
</g>
<!-- Node13&#45;&gt;Node12 -->
<g id="edge22_Node000013_Node000012" class="edge">
<title>Node13&#45;&gt;Node12</title>
<g id="a_edge22_Node000013_Node000012"><a xlink:title=" ">
<path fill="none" stroke="#63b8ff" d="M680.9,-72.58C566.69,-68.68 327.39,-57.69 127,-30 116.85,-28.6 105.95,-26.58 95.9,-24.52"/>
<polygon fill="#63b8ff" stroke="#63b8ff" points="681.12,-76.09 691.23,-72.93 681.35,-69.1 681.12,-76.09"/>
</a>
</g>
</g>
<!-- Node14 -->
<g id="Node000014" class="node">
<title>Node14</title>
<g id="a_Node000014"><a xlink:href="../../d6/de7/AllEnvData_8cc_source.html" target="_top" xlink:title=" ">
<polygon fill="white" stroke="#666666" points="1276,-24.5 1192,-24.5 1192,-5.5 1276,-5.5 1276,-24.5"/>
<text text-anchor="middle" x="1234" y="-12.5" font-family="Helvetica,sans-Serif" font-size="10.00">AllEnvData.cc</text>
</a>
</g>
</g>
<!-- Node13&#45;&gt;Node14 -->
<g id="edge14_Node000013_Node000014" class="edge">
<title>Node13&#45;&gt;Node14</title>
<g id="a_edge14_Node000013_Node000014"><a xlink:title=" ">
<path fill="none" stroke="#63b8ff" d="M814.51,-65.99C979.47,-47.94 1024.13,-59.33 1183,-30 1190.58,-28.6 1198.68,-26.61 1206.14,-24.57"/>
<polygon fill="#63b8ff" stroke="#63b8ff" points="814.06,-62.52 804.51,-67.11 814.84,-69.48 814.06,-62.52"/>
</a>
</g>
</g>
<!-- Node15 -->
<g id="Node000015" class="node">
<title>Node15</title>
<g id="a_Node000015"><a xlink:href="../../db/dd9/ComponentItemInternalData_8cc_source.html" target="_top" xlink:title=" ">
<polygon fill="white" stroke="#666666" points="1464,-24.5 1294,-24.5 1294,-5.5 1464,-5.5 1464,-24.5"/>
<text text-anchor="middle" x="1379" y="-12.5" font-family="Helvetica,sans-Serif" font-size="10.00">ComponentItemInternalData.cc</text>
</a>
</g>
</g>
<!-- Node13&#45;&gt;Node15 -->
<g id="edge15_Node000013_Node000015" class="edge">
<title>Node13&#45;&gt;Node15</title>
<g id="a_edge15_Node000013_Node000015"><a xlink:title=" ">
<path fill="none" stroke="#63b8ff" d="M814.62,-66C1024.56,-44.85 1079.63,-53.11 1285,-30 1298.44,-28.49 1312.92,-26.51 1326.39,-24.51"/>
<polygon fill="#63b8ff" stroke="#63b8ff" points="814.1,-62.53 804.5,-67.03 814.81,-69.5 814.1,-62.53"/>
</a>
</g>
</g>
<!-- Node16 -->
<g id="Node000016" class="node">
<title>Node16</title>
<g id="a_Node000016"><a xlink:href="../../d4/d7a/ConstituentConnectivityList_8cc_source.html" target="_top" xlink:title=" ">
<polygon fill="white" stroke="#666666" points="1647.5,-24.5 1482.5,-24.5 1482.5,-5.5 1647.5,-5.5 1647.5,-24.5"/>
<text text-anchor="middle" x="1565" y="-12.5" font-family="Helvetica,sans-Serif" font-size="10.00">ConstituentConnectivityList.cc</text>
</a>
</g>
</g>
<!-- Node13&#45;&gt;Node16 -->
<g id="edge16_Node000013_Node000016" class="edge">
<title>Node13&#45;&gt;Node16</title>
<g id="a_edge16_Node000013_Node000016"><a xlink:title=" ">
<path fill="none" stroke="#63b8ff" d="M814.92,-65.99C1107.82,-39.71 1184.5,-59.76 1473,-30 1486.66,-28.59 1501.39,-26.57 1514.98,-24.51"/>
<polygon fill="#63b8ff" stroke="#63b8ff" points="814.49,-62.52 804.85,-66.91 815.13,-69.49 814.49,-62.52"/>
</a>
</g>
</g>
<!-- Node17 -->
<g id="Node000017" class="node">
<title>Node17</title>
<g id="a_Node000017"><a xlink:href="../../df/dc4/ConstituentListPrinter_8cc_source.html" target="_top" xlink:title=" ">
<polygon fill="white" stroke="#666666" points="271.5,-24.5 136.5,-24.5 136.5,-5.5 271.5,-5.5 271.5,-24.5"/>
<text text-anchor="middle" x="204" y="-12.5" font-family="Helvetica,sans-Serif" font-size="10.00">ConstituentListPrinter.cc</text>
</a>
</g>
</g>
<!-- Node13&#45;&gt;Node17 -->
<g id="edge17_Node000013_Node000017" class="edge">
<title>Node13&#45;&gt;Node17</title>
<g id="a_edge17_Node000013_Node000017"><a xlink:title=" ">
<path fill="none" stroke="#63b8ff" d="M681.24,-69.93C590.41,-63.3 422.96,-49.63 281,-30 270.1,-28.49 258.39,-26.54 247.47,-24.57"/>
<polygon fill="#63b8ff" stroke="#63b8ff" points="681.16,-73.43 691.39,-70.66 681.67,-66.45 681.16,-73.43"/>
</a>
</g>
</g>
<!-- Node18 -->
<g id="Node000018" class="node">
<title>Node18</title>
<g id="a_Node000018"><a xlink:href="../../d5/df1/IncrementalComponentModifier_8cc_source.html" target="_top" xlink:title=" ">
<polygon fill="white" stroke="#666666" points="474,-24.5 290,-24.5 290,-5.5 474,-5.5 474,-24.5"/>
<text text-anchor="middle" x="382" y="-12.5" font-family="Helvetica,sans-Serif" font-size="10.00">IncrementalComponentModifier.cc</text>
</a>
</g>
</g>
<!-- Node13&#45;&gt;Node18 -->
<g id="edge18_Node000013_Node000018" class="edge">
<title>Node13&#45;&gt;Node18</title>
<g id="a_edge18_Node000013_Node000018"><a xlink:title=" ">
<path fill="none" stroke="#63b8ff" d="M684.69,-64.38C614.19,-53.11 501.45,-35.09 435.28,-24.52"/>
<polygon fill="#63b8ff" stroke="#63b8ff" points="684.35,-67.87 694.78,-65.99 685.46,-60.96 684.35,-67.87"/>
</a>
</g>
</g>
<!-- Node19 -->
<g id="Node000019" class="node">
<title>Node19</title>
<g id="a_Node000019"><a xlink:href="../../d7/d48/IncrementalComponentModifier__Accelerator_8cc_source.html" target="_top" xlink:title=" ">
<polygon fill="white" stroke="#666666" points="663.5,-30 492.5,-30 492.5,0 663.5,0 663.5,-30"/>
<text text-anchor="start" x="500.5" y="-18" font-family="Helvetica,sans-Serif" font-size="10.00">IncrementalComponentModifier</text>
<text text-anchor="middle" x="578" y="-7" font-family="Helvetica,sans-Serif" font-size="10.00">_Accelerator.cc</text>
</a>
</g>
</g>
<!-- Node13&#45;&gt;Node19 -->
<g id="edge19_Node000013_Node000019" class="edge">
<title>Node13&#45;&gt;Node19</title>
<g id="a_edge19_Node000013_Node000019"><a xlink:title=" ">
<path fill="none" stroke="#63b8ff" d="M713.73,-62.71C686.34,-53.28 647.86,-40.04 618.87,-30.06"/>
<polygon fill="#63b8ff" stroke="#63b8ff" points="712.69,-66.05 723.28,-65.99 714.96,-59.43 712.69,-66.05"/>
</a>
</g>
</g>
<!-- Node20 -->
<g id="Node000020" class="node">
<title>Node20</title>
<g id="a_Node000020"><a xlink:href="../../d5/d2c/MeshMaterialBackup_8cc_source.html" target="_top" xlink:title=" ">
<polygon fill="white" stroke="#666666" points="814,-24.5 682,-24.5 682,-5.5 814,-5.5 814,-24.5"/>
<text text-anchor="middle" x="748" y="-12.5" font-family="Helvetica,sans-Serif" font-size="10.00">MeshMaterialBackup.cc</text>
</a>
</g>
</g>
<!-- Node13&#45;&gt;Node20 -->
<g id="edge20_Node000013_Node000020" class="edge">
<title>Node13&#45;&gt;Node20</title>
<g id="a_edge20_Node000013_Node000020"><a xlink:title=" ">
<path fill="none" stroke="#63b8ff" d="M748,-55.66C748,-45.24 748,-32.8 748,-24.67"/>
<polygon fill="#63b8ff" stroke="#63b8ff" points="744.5,-55.87 748,-65.87 751.5,-55.87 744.5,-55.87"/>
</a>
</g>
</g>
<!-- Node21 -->
<g id="Node000021" class="node">
<title>Node21</title>
<g id="a_Node000021"><a xlink:href="../../d6/d4b/MeshMaterialExchangeMng_8cc_source.html" target="_top" xlink:title=" ">
<polygon fill="white" stroke="#666666" points="997.5,-24.5 832.5,-24.5 832.5,-5.5 997.5,-5.5 997.5,-24.5"/>
<text text-anchor="middle" x="915" y="-12.5" font-family="Helvetica,sans-Serif" font-size="10.00">MeshMaterialExchangeMng.cc</text>
</a>
</g>
</g>
<!-- Node13&#45;&gt;Node21 -->
<g id="edge21_Node000013_Node000021" class="edge">
<title>Node13&#45;&gt;Node21</title>
<g id="a_edge21_Node000013_Node000021"><a xlink:title=" ">
<path fill="none" stroke="#63b8ff" d="M781.77,-62.67C814.06,-51.36 861.98,-34.57 890.69,-24.52"/>
<polygon fill="#63b8ff" stroke="#63b8ff" points="780.56,-59.38 772.28,-65.99 782.88,-65.99 780.56,-59.38"/>
</a>
</g>
</g>
<!-- Node22 -->
<g id="Node000022" class="node">
<title>Node22</title>
<g id="a_Node000022"><a xlink:href="../../da/d9e/MeshMaterialModifierImpl_8cc_source.html" target="_top" xlink:title=" ">
<polygon fill="white" stroke="#666666" points="1174,-24.5 1016,-24.5 1016,-5.5 1174,-5.5 1174,-24.5"/>
<text text-anchor="middle" x="1095" y="-12.5" font-family="Helvetica,sans-Serif" font-size="10.00">MeshMaterialModifierImpl.cc</text>
</a>
</g>
</g>
<!-- Node13&#45;&gt;Node22 -->
<g id="edge23_Node000013_Node000022" class="edge">
<title>Node13&#45;&gt;Node22</title>
<g id="a_edge23_Node000013_Node000022"><a xlink:title=" ">
<path fill="none" stroke="#63b8ff" d="M808.43,-64.31C875.3,-53.04 981.88,-35.07 1044.48,-24.52"/>
<polygon fill="#63b8ff" stroke="#63b8ff" points="807.74,-60.88 798.46,-65.99 808.9,-67.78 807.74,-60.88"/>
</a>
</g>
</g>
<!-- Node27&#45;&gt;Node2 -->
<g id="edge29_Node000027_Node000002" class="edge">
<title>Node27&#45;&gt;Node2</title>
<g id="a_edge29_Node000027_Node000002"><a xlink:title=" ">
<path fill="none" stroke="#63b8ff" d="M1289.05,-315.82C1254.24,-304.5 1202.28,-287.62 1171.21,-277.52"/>
<polygon fill="#63b8ff" stroke="#63b8ff" points="1288.23,-319.23 1298.83,-318.99 1290.4,-312.57 1288.23,-319.23"/>
</a>
</g>
</g>
<!-- Node27&#45;&gt;Node6 -->
<g id="edge30_Node000027_Node000006" class="edge">
<title>Node27&#45;&gt;Node6</title>
<g id="a_edge30_Node000027_Node000006"><a xlink:title=" ">
<path fill="none" stroke="#63b8ff" d="M1325,-308.66C1325,-298.24 1325,-285.8 1325,-277.67"/>
<polygon fill="#63b8ff" stroke="#63b8ff" points="1321.5,-308.87 1325,-318.87 1328.5,-308.87 1321.5,-308.87"/>
</a>
</g>
</g>
<!-- Node28 -->
<g id="Node000028" class="node">
<title>Node28</title>
<g id="a_Node000028"><a xlink:href="../../d4/dfe/MeshMaterialTesterModule__Samples_8cc_source.html" target="_top" xlink:title=" ">
<polygon fill="white" stroke="#666666" points="1573.5,-283 1424.5,-283 1424.5,-253 1573.5,-253 1573.5,-283"/>
<text text-anchor="start" x="1432.5" y="-271" font-family="Helvetica,sans-Serif" font-size="10.00">MeshMaterialTesterModule</text>
<text text-anchor="middle" x="1499" y="-260" font-family="Helvetica,sans-Serif" font-size="10.00">_Samples.cc</text>
</a>
</g>
</g>
<!-- Node27&#45;&gt;Node28 -->
<g id="edge31_Node000027_Node000028" class="edge">
<title>Node27&#45;&gt;Node28</title>
<g id="a_edge31_Node000027_Node000028"><a xlink:title=" ">
<path fill="none" stroke="#63b8ff" d="M1360.08,-315.71C1388.11,-306.28 1427.49,-293.04 1457.17,-283.06"/>
<polygon fill="#63b8ff" stroke="#63b8ff" points="1358.66,-312.49 1350.3,-318.99 1360.9,-319.12 1358.66,-312.49"/>
</a>
</g>
</g>
<!-- Node29 -->
<g id="Node000029" class="node">
<title>Node29</title>
<g id="a_Node000029"><a xlink:href="../../df/d8d/SimdMathUtils_8h_source.html" target="_top" xlink:title=" ">
<polygon fill="white" stroke="#666666" points="1689,-277.5 1591,-277.5 1591,-258.5 1689,-258.5 1689,-277.5"/>
<text text-anchor="middle" x="1640" y="-265.5" font-family="Helvetica,sans-Serif" font-size="10.00">SimdMathUtils.h</text>
</a>
</g>
</g>
<!-- Node27&#45;&gt;Node29 -->
<g id="edge32_Node000027_Node000029" class="edge">
<title>Node27&#45;&gt;Node29</title>
<g id="a_edge32_Node000027_Node000029"><a xlink:title=" ">
<path fill="none" stroke="#63b8ff" d="M1384.3,-318.48C1436.74,-310.22 1515.22,-297.15 1583,-283 1590.78,-281.38 1599.11,-279.44 1606.93,-277.54"/>
<polygon fill="#63b8ff" stroke="#63b8ff" points="1383.51,-315.06 1374.17,-320.07 1384.6,-321.98 1383.51,-315.06"/>
</a>
</g>
</g>
</g>
</svg>
