<?xml version="1.0" encoding="UTF-8" standalone="no"?>
<!DOCTYPE svg PUBLIC "-//W3C//DTD SVG 1.1//EN"
 "http://www.w3.org/Graphics/SVG/1.1/DTD/svg11.dtd">
<!-- Generated by graphviz version 2.43.0 (0)
 -->
<!-- Title: Arcane::MachineMemoryWindowBase Pages: 1 -->
<svg width="472pt" height="1159pt"
 viewBox="0.00 0.00 471.50 1159.00" xmlns="http://www.w3.org/2000/svg" xmlns:xlink="http://www.w3.org/1999/xlink">
<g id="graph0" class="graph" transform="scale(1 1) rotate(0) translate(4 1155)">
<title>Arcane::MachineMemoryWindowBase</title>
<!-- Node1 -->
<g id="Node000001" class="node">
<title>Node1</title>
<g id="a_Node000001"><a xlink:title="Classe permettant de créer une fenêtre mémoire partagée entre les sous&#45;domaines d&#39;un même noeud....">
<polygon fill="#999999" stroke="transparent" points="238.5,-184 43.5,-184 43.5,0 238.5,0 238.5,-184"/>
<text text-anchor="start" x="49" y="-172" font-family="Helvetica,sans-Serif" font-size="10.00">Arcane::MachineMemoryWindowBase</text>
<text text-anchor="start" x="55.5" y="-157" font-family="Helvetica,sans-Serif" font-size="10.00">&#45;</text>
<text text-anchor="start" x="71" y="-157" font-family="Helvetica,sans-Serif" font-size="10.00">m_sizeof_elem</text>
<text text-anchor="start" x="53" y="-142" font-family="Helvetica,sans-Serif" font-size="10.00">+</text>
<text text-anchor="start" x="71" y="-142" font-family="Helvetica,sans-Serif" font-size="10.00">MachineMemoryWindowBase()</text>
<text text-anchor="start" x="53" y="-127" font-family="Helvetica,sans-Serif" font-size="10.00">+</text>
<text text-anchor="start" x="71" y="-127" font-family="Helvetica,sans-Serif" font-size="10.00">segmentView()</text>
<text text-anchor="start" x="53" y="-112" font-family="Helvetica,sans-Serif" font-size="10.00">+</text>
<text text-anchor="start" x="71" y="-112" font-family="Helvetica,sans-Serif" font-size="10.00">segmentView()</text>
<text text-anchor="start" x="53" y="-97" font-family="Helvetica,sans-Serif" font-size="10.00">+</text>
<text text-anchor="start" x="71" y="-97" font-family="Helvetica,sans-Serif" font-size="10.00">windowView()</text>
<text text-anchor="start" x="53" y="-82" font-family="Helvetica,sans-Serif" font-size="10.00">+</text>
<text text-anchor="start" x="71" y="-82" font-family="Helvetica,sans-Serif" font-size="10.00">segmentConstView()</text>
<text text-anchor="start" x="53" y="-67" font-family="Helvetica,sans-Serif" font-size="10.00">+</text>
<text text-anchor="start" x="71" y="-67" font-family="Helvetica,sans-Serif" font-size="10.00">segmentConstView()</text>
<text text-anchor="start" x="53" y="-52" font-family="Helvetica,sans-Serif" font-size="10.00">+</text>
<text text-anchor="start" x="71" y="-52" font-family="Helvetica,sans-Serif" font-size="10.00">windowConstView()</text>
<text text-anchor="start" x="53" y="-37" font-family="Helvetica,sans-Serif" font-size="10.00">+</text>
<text text-anchor="start" x="71" y="-37" font-family="Helvetica,sans-Serif" font-size="10.00">resizeSegment()</text>
<text text-anchor="start" x="53" y="-22" font-family="Helvetica,sans-Serif" font-size="10.00">+</text>
<text text-anchor="start" x="71" y="-22" font-family="Helvetica,sans-Serif" font-size="10.00">machineRanks()</text>
<text text-anchor="start" x="53" y="-7" font-family="Helvetica,sans-Serif" font-size="10.00">+</text>
<text text-anchor="start" x="71" y="-7" font-family="Helvetica,sans-Serif" font-size="10.00">barrier()</text>
<polygon fill="#666666" stroke="#666666" points="44,-167 44,-167 239,-167 239,-167 44,-167"/>
<polygon fill="#666666" stroke="#666666" points="44,-152 44,-152 69,-152 69,-152 44,-152"/>
<polygon fill="#666666" stroke="#666666" points="69,-152 69,-152 239,-152 239,-152 69,-152"/>
<polygon fill="none" stroke="#666666" points="43.5,0 43.5,-184 238.5,-184 238.5,0 43.5,0"/>
</a>
</g>
</g>
<!-- Node2 -->
<g id="Node000002" class="node">
<title>Node2</title>
<g id="a_Node000002"><a xlink:href="../../d3/df6/classArcane_1_1IParallelMngInternal.html" target="_top" xlink:title="Partie interne de IParallelMng.">
<polygon fill="white" stroke="transparent" points="178,-714.5 0,-714.5 0,-538.5 178,-538.5 178,-714.5"/>
<text text-anchor="start" x="20" y="-702.5" font-family="Helvetica,sans-Serif" font-size="10.00">Arcane::IParallelMngInternal</text>
<text text-anchor="start" x="87" y="-687.5" font-family="Helvetica,sans-Serif" font-size="10.00"> </text>
<text text-anchor="start" x="4" y="-672.5" font-family="Helvetica,sans-Serif" font-size="10.00">+</text>
<text text-anchor="start" x="17" y="-672.5" font-family="Helvetica,sans-Serif" font-size="10.00">~IParallelMngInternal()</text>
<text text-anchor="start" x="4" y="-657.5" font-family="Helvetica,sans-Serif" font-size="10.00">+</text>
<text text-anchor="start" x="17" y="-657.5" font-family="Helvetica,sans-Serif" font-size="10.00">runner()</text>
<text text-anchor="start" x="4" y="-642.5" font-family="Helvetica,sans-Serif" font-size="10.00">+</text>
<text text-anchor="start" x="17" y="-642.5" font-family="Helvetica,sans-Serif" font-size="10.00">queue()</text>
<text text-anchor="start" x="4" y="-627.5" font-family="Helvetica,sans-Serif" font-size="10.00">+</text>
<text text-anchor="start" x="17" y="-627.5" font-family="Helvetica,sans-Serif" font-size="10.00">isAcceleratorAware()</text>
<text text-anchor="start" x="4" y="-612.5" font-family="Helvetica,sans-Serif" font-size="10.00">+</text>
<text text-anchor="start" x="17" y="-612.5" font-family="Helvetica,sans-Serif" font-size="10.00">createSubParallelMngRef()</text>
<text text-anchor="start" x="4" y="-597.5" font-family="Helvetica,sans-Serif" font-size="10.00">+</text>
<text text-anchor="start" x="17" y="-597.5" font-family="Helvetica,sans-Serif" font-size="10.00">setDefaultRunner()</text>
<text text-anchor="start" x="4" y="-582.5" font-family="Helvetica,sans-Serif" font-size="10.00">+</text>
<text text-anchor="start" x="17" y="-582.5" font-family="Helvetica,sans-Serif" font-size="10.00">createMachineMemoryWindow</text>
<text text-anchor="start" x="17" y="-571.5" font-family="Helvetica,sans-Serif" font-size="10.00">Base()</text>
<text text-anchor="start" x="4" y="-556.5" font-family="Helvetica,sans-Serif" font-size="10.00">+</text>
<text text-anchor="start" x="17" y="-556.5" font-family="Helvetica,sans-Serif" font-size="10.00">createDynamicMachineMemory</text>
<text text-anchor="start" x="17" y="-545.5" font-family="Helvetica,sans-Serif" font-size="10.00">WindowBase()</text>
<polygon fill="#666666" stroke="#666666" points="0,-697.5 0,-697.5 178,-697.5 178,-697.5 0,-697.5"/>
<polygon fill="#666666" stroke="#666666" points="0,-682.5 0,-682.5 178,-682.5 178,-682.5 0,-682.5"/>
<polygon fill="none" stroke="#666666" points="0,-538.5 0,-714.5 178,-714.5 178,-538.5 0,-538.5"/>
</a>
</g>
</g>
<!-- Node2&#45;&gt;Node1 -->
<g id="edge1_Node000001_Node000002" class="edge">
<title>Node2&#45;&gt;Node1</title>
<g id="a_edge1_Node000001_Node000002"><a xlink:title=" ">
<path fill="none" stroke="#63b8ff" d="M97.5,-538.46C106.65,-444.76 121.2,-295.8 130.92,-196.25"/>
<polygon fill="none" stroke="#63b8ff" points="130.94,-196 127.54,-189.64 132.11,-184.06 135.51,-190.42 130.94,-196"/>
</a>
</g>
<text text-anchor="middle" x="170.5" y="-205" font-family="Helvetica,sans-Serif" font-size="10.00" fill="grey"> &#45;m_pm_internal</text>
</g>
<!-- Node3 -->
<g id="Node000003" class="node">
<title>Node3</title>
<g id="a_Node000003"><a xlink:href="../../d6/da9/classArcane_1_1Ref.html" target="_top" xlink:title=" ">
<polygon fill="white" stroke="transparent" points="359.5,-1022 196.5,-1022 196.5,-231 359.5,-231 359.5,-1022"/>
<text text-anchor="start" x="202" y="-1009.5" font-family="Helvetica,sans-Serif" font-size="10.00">Arcane::Ref&lt; Arcane</text>
<text text-anchor="start" x="202" y="-998.5" font-family="Helvetica,sans-Serif" font-size="10.00">::MessagePassing::IMachine</text>
<text text-anchor="start" x="202" y="-987.5" font-family="Helvetica,sans-Serif" font-size="10.00">MemoryWindowBaseInternal &gt;</text>
<text text-anchor="start" x="210" y="-972.5" font-family="Helvetica,sans-Serif" font-size="10.00">+</text>
<text text-anchor="start" x="232" y="-972.5" font-family="Helvetica,sans-Serif" font-size="10.00">RefType</text>
<text text-anchor="start" x="210" y="-957.5" font-family="Helvetica,sans-Serif" font-size="10.00">+</text>
<text text-anchor="start" x="232" y="-957.5" font-family="Helvetica,sans-Serif" font-size="10.00">RefType</text>
<text text-anchor="start" x="210" y="-942.5" font-family="Helvetica,sans-Serif" font-size="10.00">+</text>
<text text-anchor="start" x="232" y="-942.5" font-family="Helvetica,sans-Serif" font-size="10.00">RefType</text>
<text text-anchor="start" x="210" y="-927.5" font-family="Helvetica,sans-Serif" font-size="10.00">+</text>
<text text-anchor="start" x="232" y="-927.5" font-family="Helvetica,sans-Serif" font-size="10.00">Ref()</text>
<text text-anchor="start" x="210" y="-912.5" font-family="Helvetica,sans-Serif" font-size="10.00">+</text>
<text text-anchor="start" x="232" y="-912.5" font-family="Helvetica,sans-Serif" font-size="10.00">Ref()</text>
<text text-anchor="start" x="210" y="-897.5" font-family="Helvetica,sans-Serif" font-size="10.00">+</text>
<text text-anchor="start" x="232" y="-897.5" font-family="Helvetica,sans-Serif" font-size="10.00">Ref()</text>
<text text-anchor="start" x="210" y="-882.5" font-family="Helvetica,sans-Serif" font-size="10.00">+</text>
<text text-anchor="start" x="232" y="-882.5" font-family="Helvetica,sans-Serif" font-size="10.00">operator=()</text>
<text text-anchor="start" x="210" y="-867.5" font-family="Helvetica,sans-Serif" font-size="10.00">+</text>
<text text-anchor="start" x="232" y="-867.5" font-family="Helvetica,sans-Serif" font-size="10.00">~Ref()</text>
<text text-anchor="start" x="210" y="-852.5" font-family="Helvetica,sans-Serif" font-size="10.00">+</text>
<text text-anchor="start" x="232" y="-852.5" font-family="Helvetica,sans-Serif" font-size="10.00">operator bool()</text>
<text text-anchor="start" x="210" y="-837.5" font-family="Helvetica,sans-Serif" font-size="10.00">+</text>
<text text-anchor="start" x="232" y="-837.5" font-family="Helvetica,sans-Serif" font-size="10.00">get()</text>
<text text-anchor="start" x="210" y="-822.5" font-family="Helvetica,sans-Serif" font-size="10.00">+</text>
<text text-anchor="start" x="232" y="-822.5" font-family="Helvetica,sans-Serif" font-size="10.00">isNull()</text>
<text text-anchor="start" x="210" y="-807.5" font-family="Helvetica,sans-Serif" font-size="10.00">+</text>
<text text-anchor="start" x="232" y="-807.5" font-family="Helvetica,sans-Serif" font-size="10.00">operator&#45;&gt;()</text>
<text text-anchor="start" x="210" y="-792.5" font-family="Helvetica,sans-Serif" font-size="10.00">+</text>
<text text-anchor="start" x="232" y="-792.5" font-family="Helvetica,sans-Serif" font-size="10.00">reset()</text>
<text text-anchor="start" x="232" y="-777.5" font-family="Helvetica,sans-Serif" font-size="10.00">et 26 de plus...</text>
<text text-anchor="start" x="210" y="-762.5" font-family="Helvetica,sans-Serif" font-size="10.00">+</text>
<text text-anchor="start" x="232" y="-762.5" font-family="Helvetica,sans-Serif" font-size="10.00">create()</text>
<text text-anchor="start" x="210" y="-747.5" font-family="Helvetica,sans-Serif" font-size="10.00">+</text>
<text text-anchor="start" x="232" y="-747.5" font-family="Helvetica,sans-Serif" font-size="10.00">createRef()</text>
<text text-anchor="start" x="210" y="-732.5" font-family="Helvetica,sans-Serif" font-size="10.00">+</text>
<text text-anchor="start" x="232" y="-732.5" font-family="Helvetica,sans-Serif" font-size="10.00">createWithHandle()</text>
<text text-anchor="start" x="210" y="-717.5" font-family="Helvetica,sans-Serif" font-size="10.00">+</text>
<text text-anchor="start" x="232" y="-717.5" font-family="Helvetica,sans-Serif" font-size="10.00">_createNoDestroy()</text>
<text text-anchor="start" x="210" y="-702.5" font-family="Helvetica,sans-Serif" font-size="10.00">+</text>
<text text-anchor="start" x="232" y="-702.5" font-family="Helvetica,sans-Serif" font-size="10.00">create()</text>
<text text-anchor="start" x="210" y="-687.5" font-family="Helvetica,sans-Serif" font-size="10.00">+</text>
<text text-anchor="start" x="232" y="-687.5" font-family="Helvetica,sans-Serif" font-size="10.00">createRef()</text>
<text text-anchor="start" x="210" y="-672.5" font-family="Helvetica,sans-Serif" font-size="10.00">+</text>
<text text-anchor="start" x="232" y="-672.5" font-family="Helvetica,sans-Serif" font-size="10.00">createWithHandle()</text>
<text text-anchor="start" x="210" y="-657.5" font-family="Helvetica,sans-Serif" font-size="10.00">+</text>
<text text-anchor="start" x="232" y="-657.5" font-family="Helvetica,sans-Serif" font-size="10.00">_createNoDestroy()</text>
<text text-anchor="start" x="210" y="-642.5" font-family="Helvetica,sans-Serif" font-size="10.00">+</text>
<text text-anchor="start" x="232" y="-642.5" font-family="Helvetica,sans-Serif" font-size="10.00">create()</text>
<text text-anchor="start" x="210" y="-627.5" font-family="Helvetica,sans-Serif" font-size="10.00">+</text>
<text text-anchor="start" x="232" y="-627.5" font-family="Helvetica,sans-Serif" font-size="10.00">createRef()</text>
<text text-anchor="start" x="210" y="-612.5" font-family="Helvetica,sans-Serif" font-size="10.00">+</text>
<text text-anchor="start" x="232" y="-612.5" font-family="Helvetica,sans-Serif" font-size="10.00">createWithHandle()</text>
<text text-anchor="start" x="210" y="-597.5" font-family="Helvetica,sans-Serif" font-size="10.00">+</text>
<text text-anchor="start" x="232" y="-597.5" font-family="Helvetica,sans-Serif" font-size="10.00">_createNoDestroy()</text>
<text text-anchor="start" x="212.5" y="-582.5" font-family="Helvetica,sans-Serif" font-size="10.00">&#45;</text>
<text text-anchor="start" x="232" y="-582.5" font-family="Helvetica,sans-Serif" font-size="10.00">Ref()</text>
<text text-anchor="start" x="212.5" y="-567.5" font-family="Helvetica,sans-Serif" font-size="10.00">&#45;</text>
<text text-anchor="start" x="232" y="-567.5" font-family="Helvetica,sans-Serif" font-size="10.00">Ref()</text>
<text text-anchor="start" x="212.5" y="-552.5" font-family="Helvetica,sans-Serif" font-size="10.00">&#45;</text>
<text text-anchor="start" x="232" y="-552.5" font-family="Helvetica,sans-Serif" font-size="10.00">Ref()</text>
<text text-anchor="start" x="212.5" y="-537.5" font-family="Helvetica,sans-Serif" font-size="10.00">&#45;</text>
<text text-anchor="start" x="232" y="-537.5" font-family="Helvetica,sans-Serif" font-size="10.00">Ref()</text>
<text text-anchor="start" x="212.5" y="-522.5" font-family="Helvetica,sans-Serif" font-size="10.00">&#45;</text>
<text text-anchor="start" x="232" y="-522.5" font-family="Helvetica,sans-Serif" font-size="10.00">Ref()</text>
<text text-anchor="start" x="212.5" y="-507.5" font-family="Helvetica,sans-Serif" font-size="10.00">&#45;</text>
<text text-anchor="start" x="232" y="-507.5" font-family="Helvetica,sans-Serif" font-size="10.00">Ref()</text>
<text text-anchor="start" x="212.5" y="-492.5" font-family="Helvetica,sans-Serif" font-size="10.00">&#45;</text>
<text text-anchor="start" x="232" y="-492.5" font-family="Helvetica,sans-Serif" font-size="10.00">Ref()</text>
<text text-anchor="start" x="212.5" y="-477.5" font-family="Helvetica,sans-Serif" font-size="10.00">&#45;</text>
<text text-anchor="start" x="232" y="-477.5" font-family="Helvetica,sans-Serif" font-size="10.00">Ref()</text>
<text text-anchor="start" x="212.5" y="-462.5" font-family="Helvetica,sans-Serif" font-size="10.00">&#45;</text>
<text text-anchor="start" x="232" y="-462.5" font-family="Helvetica,sans-Serif" font-size="10.00">Ref()</text>
<text text-anchor="start" x="212.5" y="-447.5" font-family="Helvetica,sans-Serif" font-size="10.00">&#45;</text>
<text text-anchor="start" x="232" y="-447.5" font-family="Helvetica,sans-Serif" font-size="10.00">Ref()</text>
<text text-anchor="start" x="212.5" y="-432.5" font-family="Helvetica,sans-Serif" font-size="10.00">&#45;</text>
<text text-anchor="start" x="232" y="-432.5" font-family="Helvetica,sans-Serif" font-size="10.00">Ref()</text>
<text text-anchor="start" x="212.5" y="-417.5" font-family="Helvetica,sans-Serif" font-size="10.00">&#45;</text>
<text text-anchor="start" x="232" y="-417.5" font-family="Helvetica,sans-Serif" font-size="10.00">Ref()</text>
<text text-anchor="start" x="212.5" y="-402.5" font-family="Helvetica,sans-Serif" font-size="10.00">&#45;</text>
<text text-anchor="start" x="232" y="-402.5" font-family="Helvetica,sans-Serif" font-size="10.00">_createBasicDeleter()</text>
<text text-anchor="start" x="212.5" y="-387.5" font-family="Helvetica,sans-Serif" font-size="10.00">&#45;</text>
<text text-anchor="start" x="232" y="-387.5" font-family="Helvetica,sans-Serif" font-size="10.00">_createBasicDeleter()</text>
<text text-anchor="start" x="212.5" y="-372.5" font-family="Helvetica,sans-Serif" font-size="10.00">&#45;</text>
<text text-anchor="start" x="232" y="-372.5" font-family="Helvetica,sans-Serif" font-size="10.00">_getDeleter()</text>
<text text-anchor="start" x="212.5" y="-357.5" font-family="Helvetica,sans-Serif" font-size="10.00">&#45;</text>
<text text-anchor="start" x="232" y="-357.5" font-family="Helvetica,sans-Serif" font-size="10.00">_getDeleter()</text>
<text text-anchor="start" x="212.5" y="-342.5" font-family="Helvetica,sans-Serif" font-size="10.00">&#45;</text>
<text text-anchor="start" x="232" y="-342.5" font-family="Helvetica,sans-Serif" font-size="10.00">_createBasicDeleter()</text>
<text text-anchor="start" x="212.5" y="-327.5" font-family="Helvetica,sans-Serif" font-size="10.00">&#45;</text>
<text text-anchor="start" x="232" y="-327.5" font-family="Helvetica,sans-Serif" font-size="10.00">_createBasicDeleter()</text>
<text text-anchor="start" x="212.5" y="-312.5" font-family="Helvetica,sans-Serif" font-size="10.00">&#45;</text>
<text text-anchor="start" x="232" y="-312.5" font-family="Helvetica,sans-Serif" font-size="10.00">_getDeleter()</text>
<text text-anchor="start" x="212.5" y="-297.5" font-family="Helvetica,sans-Serif" font-size="10.00">&#45;</text>
<text text-anchor="start" x="232" y="-297.5" font-family="Helvetica,sans-Serif" font-size="10.00">_getDeleter()</text>
<text text-anchor="start" x="212.5" y="-282.5" font-family="Helvetica,sans-Serif" font-size="10.00">&#45;</text>
<text text-anchor="start" x="232" y="-282.5" font-family="Helvetica,sans-Serif" font-size="10.00">_createBasicDeleter()</text>
<text text-anchor="start" x="212.5" y="-267.5" font-family="Helvetica,sans-Serif" font-size="10.00">&#45;</text>
<text text-anchor="start" x="232" y="-267.5" font-family="Helvetica,sans-Serif" font-size="10.00">_createBasicDeleter()</text>
<text text-anchor="start" x="212.5" y="-252.5" font-family="Helvetica,sans-Serif" font-size="10.00">&#45;</text>
<text text-anchor="start" x="232" y="-252.5" font-family="Helvetica,sans-Serif" font-size="10.00">_getDeleter()</text>
<text text-anchor="start" x="212.5" y="-237.5" font-family="Helvetica,sans-Serif" font-size="10.00">&#45;</text>
<text text-anchor="start" x="232" y="-237.5" font-family="Helvetica,sans-Serif" font-size="10.00">_getDeleter()</text>
<polygon fill="#666666" stroke="#666666" points="197,-982.5 197,-982.5 360,-982.5 360,-982.5 197,-982.5"/>
<polygon fill="#666666" stroke="#666666" points="197,-937.5 197,-937.5 230,-937.5 230,-937.5 197,-937.5"/>
<polygon fill="#666666" stroke="#666666" points="230,-937.5 230,-937.5 360,-937.5 360,-937.5 230,-937.5"/>
<polygon fill="none" stroke="#666666" points="196.5,-231 196.5,-1022 359.5,-1022 359.5,-231 196.5,-231"/>
</a>
</g>
</g>
<!-- Node3&#45;&gt;Node1 -->
<g id="edge2_Node000001_Node000003" class="edge">
<title>Node3&#45;&gt;Node1</title>
<g id="a_edge2_Node000001_Node000003"><a xlink:title=" ">
<path fill="none" stroke="#63b8ff" d="M223.34,-230.9C220.09,-221.11 216.65,-211.46 213,-202 212.14,-199.78 211.24,-197.56 210.28,-195.33"/>
<polygon fill="none" stroke="#63b8ff" points="210.2,-195.17 204.06,-191.4 205.17,-184.27 211.32,-188.04 210.2,-195.17"/>
</a>
</g>
<text text-anchor="middle" x="277" y="-205" font-family="Helvetica,sans-Serif" font-size="10.00" fill="grey"> &#45;m_node_window_base</text>
</g>
<!-- Node4 -->
<g id="Node000004" class="node">
<title>Node4</title>
<g id="a_Node000004"><a xlink:href="../../d2/db9/classArcane_1_1RefBase.html" target="_top" xlink:title="Classe de base de gestion d&#39;une référence.">
<polygon fill="white" stroke="transparent" points="240.5,-1134.5 149.5,-1134.5 149.5,-1085.5 240.5,-1085.5 240.5,-1134.5"/>
<text text-anchor="start" x="155" y="-1122" font-family="Helvetica,sans-Serif" font-size="10.00">Arcane::RefBase</text>
<text text-anchor="start" x="193.5" y="-1107" font-family="Helvetica,sans-Serif" font-size="10.00"> </text>
<text text-anchor="start" x="193.5" y="-1092" font-family="Helvetica,sans-Serif" font-size="10.00"> </text>
<polygon fill="#666666" stroke="#666666" points="150,-1117 150,-1117 241,-1117 241,-1117 150,-1117"/>
<polygon fill="#666666" stroke="#666666" points="150,-1102 150,-1102 241,-1102 241,-1102 150,-1102"/>
<polygon fill="none" stroke="#666666" points="149.5,-1085.5 149.5,-1134.5 240.5,-1134.5 240.5,-1085.5 149.5,-1085.5"/>
</a>
</g>
</g>
<!-- Node4&#45;&gt;Node3 -->
<g id="edge3_Node000003_Node000004" class="edge">
<title>Node4&#45;&gt;Node3</title>
<g id="a_edge3_Node000003_Node000004"><a xlink:title=" ">
<path fill="none" stroke="#63b8ff" d="M200.8,-1075.33C203.26,-1061.08 206.39,-1042.95 209.97,-1022.18"/>
<polygon fill="none" stroke="#63b8ff" points="197.31,-1075 199.06,-1085.45 204.21,-1076.19 197.31,-1075"/>
</a>
</g>
</g>
<!-- Node5 -->
<g id="Node000005" class="node">
<title>Node5</title>
<g id="a_Node000005"><a xlink:href="../../d4/de6/structArcane_1_1RefTraitsTagId.html" target="_top" xlink:title=" ">
<polygon fill="white" stroke="transparent" points="463.5,-1151 258.5,-1151 258.5,-1069 463.5,-1069 463.5,-1151"/>
<text text-anchor="start" x="264" y="-1139" font-family="Helvetica,sans-Serif" font-size="10.00">Arcane::RefTraitsTagId</text>
<text text-anchor="start" x="264" y="-1128" font-family="Helvetica,sans-Serif" font-size="10.00">&lt; Arcane::MessagePassing</text>
<text text-anchor="start" x="264" y="-1117" font-family="Helvetica,sans-Serif" font-size="10.00">::IMachineMemoryWindowBaseInternal,</text>
<text text-anchor="start" x="330.5" y="-1106" font-family="Helvetica,sans-Serif" font-size="10.00"> ImplTagId &gt;</text>
<text text-anchor="start" x="359.5" y="-1091" font-family="Helvetica,sans-Serif" font-size="10.00"> </text>
<text text-anchor="start" x="359.5" y="-1076" font-family="Helvetica,sans-Serif" font-size="10.00"> </text>
<polygon fill="#bfbfbf" stroke="#bfbfbf" points="259,-1101 259,-1101 464,-1101 464,-1101 259,-1101"/>
<polygon fill="#bfbfbf" stroke="#bfbfbf" points="259,-1086 259,-1086 464,-1086 464,-1086 259,-1086"/>
<polygon fill="none" stroke="#bfbfbf" points="258.5,-1069 258.5,-1151 463.5,-1151 463.5,-1069 258.5,-1069"/>
</a>
</g>
</g>
<!-- Node5&#45;&gt;Node3 -->
<g id="edge4_Node000003_Node000005" class="edge">
<title>Node5&#45;&gt;Node3</title>
<g id="a_edge4_Node000003_Node000005"><a xlink:title=" ">
<path fill="none" stroke="#63b8ff" d="M354.07,-1068.78C352.34,-1058.74 350.33,-1047.12 348.12,-1034.28"/>
<polygon fill="none" stroke="#63b8ff" points="348.07,-1033.97 343.11,-1028.74 346.03,-1022.15 350.99,-1027.38 348.07,-1033.97"/>
</a>
</g>
<text text-anchor="middle" x="382" y="-1043" font-family="Helvetica,sans-Serif" font-size="10.00" fill="grey"> &#45;m_instance</text>
</g>
</g>
</svg>
