<?xml version="1.0" encoding="UTF-8" standalone="no"?>
<!DOCTYPE svg PUBLIC "-//W3C//DTD SVG 1.1//EN"
 "http://www.w3.org/Graphics/SVG/1.1/DTD/svg11.dtd">
<!-- Generated by graphviz version 2.43.0 (0)
 -->
<!-- Title: Arcane::ConnectivityItemVector::resizeAndCopy Pages: 1 -->
<svg width="319pt" height="172pt"
 viewBox="0.00 0.00 319.00 171.50" xmlns="http://www.w3.org/2000/svg" xmlns:xlink="http://www.w3.org/1999/xlink">

<svg id="main" version="1.1" xmlns="http://www.w3.org/2000/svg" xmlns:xlink="http://www.w3.org/1999/xlink" xml:space="preserve">

<style type="text/css"><![CDATA[
.node, .edge {opacity: 0.7;}
.node.selected, .edge.selected {opacity: 1;}
.edge:hover path { stroke: red; }
.edge:hover polygon { stroke: red; fill: red; }
]]></style>
<script type="application/ecmascript" xlink:href="../../svg.min.js"/>
<svg id="graph" class="graph">
<g id="graph0" class="graph" transform="scale(1 1) rotate(0) translate(4 167.5)">
<title>Arcane::ConnectivityItemVector::resizeAndCopy</title>
<!-- Node1 -->
<g id="Node000001" class="node">
<title>Node1</title>
<g id="a_Node000001"><a xlink:title="Positionne la liste de connectivité avec les entités spécifiées par ids.">
<polygon fill="#999999" stroke="#666666" points="140,-102 0,-102 0,-72 140,-72 140,-102"/>
<text text-anchor="start" x="8" y="-90" font-family="Helvetica,sans-Serif" font-size="10.00">Arcane::ConnectivityItem</text>
<text text-anchor="middle" x="70" y="-79" font-family="Helvetica,sans-Serif" font-size="10.00">Vector::resizeAndCopy</text>
</a>
</g>
</g>
<!-- Node2 -->
<g id="Node000002" class="node">
<title>Node2</title>
<g id="a_Node000002"><a xlink:href="../../d2/d30/classArcane_1_1ArrayView.html#a1bb112e0a1421569f0308db3c70a3c1a" target="_top" xlink:title="Recopie le tableau copy_array dans l&#39;instance.">
<polygon fill="white" stroke="#666666" points="311,-163.5 176,-163.5 176,-144.5 311,-144.5 311,-163.5"/>
<text text-anchor="middle" x="243.5" y="-151.5" font-family="Helvetica,sans-Serif" font-size="10.00">Arcane::ArrayView::copy</text>
</a>
</g>
</g>
<!-- Node1&#45;&gt;Node2 -->
<g id="edge1_Node000001_Node000002" class="edge">
<title>Node1&#45;&gt;Node2</title>
<g id="a_edge1_Node000001_Node000002"><a xlink:title=" ">
<path fill="none" stroke="#63b8ff" d="M100.82,-102.09C121.57,-112.22 150.05,-125.42 176,-135 182.28,-137.32 188.98,-139.53 195.62,-141.57"/>
<polygon fill="#63b8ff" stroke="#63b8ff" points="194.66,-144.93 205.25,-144.42 196.66,-138.22 194.66,-144.93"/>
</a>
</g>
</g>
<!-- Node3 -->
<g id="Node000003" class="node">
<title>Node3</title>
<g id="a_Node000003"><a xlink:href="../../d1/d71/classArcane_1_1ItemVector.html#aa0d024bda03d9ba8c07d35d834d692f4" target="_top" xlink:title="Positionne le nombre d&#39;éléments du tableau.">
<polygon fill="white" stroke="#666666" points="298.5,-126 188.5,-126 188.5,-96 298.5,-96 298.5,-126"/>
<text text-anchor="start" x="196.5" y="-114" font-family="Helvetica,sans-Serif" font-size="10.00">Arcane::ItemVector</text>
<text text-anchor="middle" x="243.5" y="-103" font-family="Helvetica,sans-Serif" font-size="10.00">::resize</text>
</a>
</g>
</g>
<!-- Node1&#45;&gt;Node3 -->
<g id="edge2_Node000001_Node000003" class="edge">
<title>Node1&#45;&gt;Node3</title>
<g id="a_edge2_Node000001_Node000003"><a xlink:title=" ">
<path fill="none" stroke="#63b8ff" d="M140.26,-96.69C152.75,-98.44 165.73,-100.26 178.08,-101.98"/>
<polygon fill="#63b8ff" stroke="#63b8ff" points="177.89,-105.49 188.28,-103.41 178.86,-98.56 177.89,-105.49"/>
</a>
</g>
</g>
<!-- Node4 -->
<g id="Node000004" class="node">
<title>Node4</title>
<g id="a_Node000004"><a xlink:href="../../d9/d2e/classArcane_1_1ConstArrayView.html#ac6a4f407a7ec0a0e0985113552fe2f54" target="_top" xlink:title="Nombre d&#39;éléments du tableau.">
<polygon fill="white" stroke="#666666" points="310.5,-78 176.5,-78 176.5,-48 310.5,-48 310.5,-78"/>
<text text-anchor="start" x="184.5" y="-66" font-family="Helvetica,sans-Serif" font-size="10.00">Arcane::ConstArrayView</text>
<text text-anchor="middle" x="243.5" y="-55" font-family="Helvetica,sans-Serif" font-size="10.00">::size</text>
</a>
</g>
</g>
<!-- Node1&#45;&gt;Node4 -->
<g id="edge3_Node000001_Node000004" class="edge">
<title>Node1&#45;&gt;Node4</title>
<g id="a_edge3_Node000001_Node000004"><a xlink:title=" ">
<path fill="none" stroke="#63b8ff" d="M140.26,-77.31C148.81,-76.11 157.59,-74.88 166.24,-73.67"/>
<polygon fill="#63b8ff" stroke="#63b8ff" points="166.9,-77.11 176.32,-72.26 165.93,-70.18 166.9,-77.11"/>
</a>
</g>
</g>
<!-- Node5 -->
<g id="Node000005" class="node">
<title>Node5</title>
<g id="a_Node000005"><a xlink:href="../../d1/d71/classArcane_1_1ItemVector.html#ab35cb624a1bebe513af3a70a4f505ea4" target="_top" xlink:title="Vue sur les numéros locaux.">
<polygon fill="white" stroke="#666666" points="298.5,-30 188.5,-30 188.5,0 298.5,0 298.5,-30"/>
<text text-anchor="start" x="196.5" y="-18" font-family="Helvetica,sans-Serif" font-size="10.00">Arcane::ItemVector</text>
<text text-anchor="middle" x="243.5" y="-7" font-family="Helvetica,sans-Serif" font-size="10.00">::viewAsArray</text>
</a>
</g>
</g>
<!-- Node1&#45;&gt;Node5 -->
<g id="edge4_Node000001_Node000005" class="edge">
<title>Node1&#45;&gt;Node5</title>
<g id="a_edge4_Node000001_Node000005"><a xlink:title=" ">
<path fill="none" stroke="#63b8ff" d="M102.41,-71.82C123.12,-62.02 150.95,-49.23 176,-39 180.39,-37.21 184.96,-35.41 189.57,-33.65"/>
<polygon fill="#63b8ff" stroke="#63b8ff" points="190.89,-36.9 199.02,-30.11 188.43,-30.34 190.89,-36.9"/>
</a>
</g>
</g>
</g>
</svg>
</svg>

<style type='text/css'>
<![CDATA[
[data-mouse-over-selected='false'] { opacity: 0.7; }
[data-mouse-over-selected='true']  { opacity: 1.0; }
]]>
</style>
<script type="application/ecmascript"><![CDATA[
document.addEventListener('DOMContentLoaded', (event) => {
  highlightEdges();
  highlightAdjacentNodes();
});
]]></script>
</svg>
