<?xml version="1.0" encoding="UTF-8" standalone="no"?>
<!DOCTYPE svg PUBLIC "-//W3C//DTD SVG 1.1//EN"
 "http://www.w3.org/Graphics/SVG/1.1/DTD/svg11.dtd">
<!-- Generated by graphviz version 14.1.2 (0)
 -->
<!-- Title: Arcane::MeshBuildInfo::addFactoryName Pages: 1 -->
<svg width="375pt" height="198pt"
 viewBox="0.00 0.00 375.00 198.00" xmlns="http://www.w3.org/2000/svg" xmlns:xlink="http://www.w3.org/1999/xlink">
<g id="graph0" class="graph" transform="scale(1 1) rotate(0) translate(4 193.5)">
<title>Arcane::MeshBuildInfo::addFactoryName</title>
<!-- Node1 -->
<g id="Node000001" class="node">
<title>Node1</title>
<g id="a_Node000001"><a xlink:title="Positionne le nom de la fabrique pour créer ce maillage.">
<polygon fill="#999999" stroke="#666666" points="366.5,-111.5 241,-111.5 241,-78 366.5,-78 366.5,-111.5"/>
<text xml:space="preserve" text-anchor="start" x="249" y="-98" font-family="Helvetica,sans-Serif" font-size="10.00">Arcane::MeshBuildInfo</text>
<text xml:space="preserve" text-anchor="middle" x="303.75" y="-85.25" font-family="Helvetica,sans-Serif" font-size="10.00">::addFactoryName</text>
</a>
</g>
</g>
<!-- Node2 -->
<g id="Node000002" class="node">
<title>Node2</title>
<g id="a_Node000002"><a xlink:href="../../df/db4/classArcane_1_1ArcaneCaseMeshService.html#a3abd6cd1e6de5427fbe5bb16772f49fb" target="_top" xlink:title="Créé le maillage avec le nom name.">
<polygon fill="white" stroke="#666666" points="190.38,-189.5 14.62,-189.5 14.62,-156 190.38,-156 190.38,-189.5"/>
<text xml:space="preserve" text-anchor="start" x="22.62" y="-176" font-family="Helvetica,sans-Serif" font-size="10.00">Arcane::ArcaneCaseMeshService</text>
<text xml:space="preserve" text-anchor="middle" x="102.5" y="-163.25" font-family="Helvetica,sans-Serif" font-size="10.00">::createMesh</text>
</a>
</g>
</g>
<!-- Node1&#45;&gt;Node2 -->
<g id="edge1_Node000001_Node000002" class="edge">
<title>Node1&#45;&gt;Node2</title>
<g id="a_edge1_Node000001_Node000002"><a xlink:title=" ">
<path fill="none" stroke="#63b8ff" d="M264.99,-117.55C247.25,-127.55 225.53,-138.79 205,-146.75 196.69,-149.97 187.84,-152.91 178.97,-155.56"/>
<polygon fill="#63b8ff" stroke="#63b8ff" points="266.69,-120.61 273.63,-112.6 263.21,-114.54 266.69,-120.61"/>
</a>
</g>
</g>
<!-- Node3 -->
<g id="Node000003" class="node">
<title>Node3</title>
<g id="a_Node000003"><a xlink:href="../../d3/d15/classArcane_1_1MainFactory.html#a6a5e4a5c3d98fa79ba0f4c05bd7f219d" target="_top" xlink:title="Créé ou récupère un maillage.">
<polygon fill="white" stroke="#666666" points="160,-137.5 45,-137.5 45,-104 160,-104 160,-137.5"/>
<text xml:space="preserve" text-anchor="start" x="53" y="-124" font-family="Helvetica,sans-Serif" font-size="10.00">Arcane::MainFactory</text>
<text xml:space="preserve" text-anchor="middle" x="102.5" y="-111.25" font-family="Helvetica,sans-Serif" font-size="10.00">::createMesh</text>
</a>
</g>
</g>
<!-- Node1&#45;&gt;Node3 -->
<g id="edge2_Node000001_Node000003" class="edge">
<title>Node1&#45;&gt;Node3</title>
<g id="a_edge2_Node000001_Node000003"><a xlink:title=" ">
<path fill="none" stroke="#63b8ff" d="M229.17,-104.35C206.38,-107.33 181.64,-110.55 160.18,-113.35"/>
<polygon fill="#63b8ff" stroke="#63b8ff" points="229.56,-107.83 239.02,-103.07 228.66,-100.89 229.56,-107.83"/>
</a>
</g>
</g>
<!-- Node4 -->
<g id="Node000004" class="node">
<title>Node4</title>
<g id="a_Node000004"><a xlink:href="../../d3/d15/classArcane_1_1MainFactory.html#a04135cf0ed6724157af4d2d6550122ae" target="_top" xlink:title="Créé un sous&#45;maillage pour le maillage mesh, de nom name.">
<polygon fill="white" stroke="#666666" points="160,-85.5 45,-85.5 45,-52 160,-52 160,-85.5"/>
<text xml:space="preserve" text-anchor="start" x="53" y="-72" font-family="Helvetica,sans-Serif" font-size="10.00">Arcane::MainFactory</text>
<text xml:space="preserve" text-anchor="middle" x="102.5" y="-59.25" font-family="Helvetica,sans-Serif" font-size="10.00">::createSubMesh</text>
</a>
</g>
</g>
<!-- Node1&#45;&gt;Node4 -->
<g id="edge3_Node000001_Node000004" class="edge">
<title>Node1&#45;&gt;Node4</title>
<g id="a_edge3_Node000001_Node000004"><a xlink:title=" ">
<path fill="none" stroke="#63b8ff" d="M229.17,-85.15C206.38,-82.17 181.64,-78.95 160.18,-76.15"/>
<polygon fill="#63b8ff" stroke="#63b8ff" points="228.66,-88.61 239.02,-86.43 229.56,-81.67 228.66,-88.61"/>
</a>
</g>
</g>
<!-- Node5 -->
<g id="Node000005" class="node">
<title>Node5</title>
<g id="a_Node000005"><a xlink:href="../../d2/dca/classArcane_1_1VtkPolyhedralCaseMeshReader_1_1Builder.html#af0ae75ddce1f53f30024c9a6bc1f1428" target="_top" xlink:title="Remplit build_info avec les informations nécessaires pour créer le maillage.">
<polygon fill="white" stroke="#666666" points="205,-33.5 0,-33.5 0,0 205,0 205,-33.5"/>
<text xml:space="preserve" text-anchor="start" x="8" y="-20" font-family="Helvetica,sans-Serif" font-size="10.00">Arcane::VtkPolyhedralCase</text>
<text xml:space="preserve" text-anchor="middle" x="102.5" y="-7.25" font-family="Helvetica,sans-Serif" font-size="10.00">MeshReader::Builder::fillMeshBuildInfo</text>
</a>
</g>
</g>
<!-- Node1&#45;&gt;Node5 -->
<g id="edge4_Node000001_Node000005" class="edge">
<title>Node1&#45;&gt;Node5</title>
<g id="a_edge4_Node000001_Node000005"><a xlink:title=" ">
<path fill="none" stroke="#63b8ff" d="M264.99,-71.95C247.25,-61.95 225.53,-50.71 205,-42.75 196.69,-39.53 187.84,-36.59 178.97,-33.94"/>
<polygon fill="#63b8ff" stroke="#63b8ff" points="263.21,-74.96 273.63,-76.9 266.69,-68.89 263.21,-74.96"/>
</a>
</g>
</g>
</g>
</svg>
