<?xml version="1.0" encoding="UTF-8" standalone="no"?>
<!DOCTYPE svg PUBLIC "-//W3C//DTD SVG 1.1//EN"
 "http://www.w3.org/Graphics/SVG/1.1/DTD/svg11.dtd">
<!-- Generated by graphviz version 14.1.2 (0)
 -->
<!-- Title: Arcane::TBBTaskImplementation::Impl::TaskObserver Pages: 1 -->
<!--zoomable 552 -->

<svg id="main" version="1.1" xmlns="http://www.w3.org/2000/svg" xmlns:xlink="http://www.w3.org/1999/xlink" xml:space="preserve" onload="init(evt)">

<style type="text/css"><![CDATA[
.node, .edge {opacity: 0.7;}
.node.selected, .edge.selected {opacity: 1;}
.edge:hover path { stroke: red; }
.edge:hover polygon { stroke: red; fill: red; }
]]></style>

<defs>
  <circle id="rim" cx="0" cy="0" r="7"/>
  <circle id="rim2" cx="0" cy="0" r="3.5"/>
  <g id="zoomPlus">
    <use xlink:href="#rim" fill="#404040"><set attributeName="fill" to="#808080" begin="zoomplus.mouseover" end="zoomplus.mouseout"/></use>
    <path d="M-4,0h8M0,-4v8" fill="none" stroke="white" stroke-width="1.5" pointer-events="none"/>
  </g>
  <g id="zoomMin">
    <use xlink:href="#rim" fill="#404040"><set attributeName="fill" to="#808080" begin="zoomminus.mouseover" end="zoomminus.mouseout"/></use>
    <path d="M-4,0h8" fill="none" stroke="white" stroke-width="1.5" pointer-events="none"/>
  </g>
  <g id="arrowUp" transform="translate(30 24)">
    <use xlink:href="#rim"/>
    <path pointer-events="none" fill="none" stroke="white" stroke-width="1.5" d="M0,-3.0v7 M-2.5,-0.5L0,-3.0L2.5,-0.5"/>
  </g>
  <g id="arrowRight" transform="rotate(90) translate(36 -43)">
    <use xlink:href="#rim"/>
    <path pointer-events="none" fill="none" stroke="white" stroke-width="1.5" d="M0,-3.0v7 M-2.5,-0.5L0,-3.0L2.5,-0.5"/>
  </g>
  <g id="arrowDown" transform="rotate(180) translate(-30 -48)">
    <use xlink:href="#rim"/>
    <path pointer-events="none" fill="none" stroke="white" stroke-width="1.5" d="M0,-3.0v7 M-2.5,-0.5L0,-3.0L2.5,-0.5"/>
  </g>
  <g id="arrowLeft" transform="rotate(270) translate(-36 17)">
    <use xlink:href="#rim"/>
    <path pointer-events="none" fill="none" stroke="white" stroke-width="1.5" d="M0,-3.0v7 M-2.5,-0.5L0,-3.0L2.5,-0.5"/>
  </g>
  <g id="resetDef">
    <use xlink:href="#rim2" fill="#404040"><set attributeName="fill" to="#808080" begin="reset.mouseover" end="reset.mouseout"/></use>
  </g>
</defs>
<script type="application/ecmascript">
var viewWidth = 175;
var viewHeight = 552;
var sectionId = 'dynsection-1';
</script>
<script type="application/ecmascript" xlink:href="../../svg.min.js"/>
<svg id="graph" class="graph">
<g id="viewport">
<title>Arcane::TBBTaskImplementation::Impl::TaskObserver</title>
<!-- Node1 -->
<g id="Node000001" class="node">
<title>Node1</title>
<g id="a_Node000001"><a xlink:title=" ">
<polygon fill="#999999" stroke="none" points="167,-440 0,-440 0,-339.5 167,-339.5 167,-440"/>
<text xml:space="preserve" text-anchor="start" x="4" y="-426.5" font-family="Helvetica,sans-Serif" font-size="10.00">Arcane::TBBTaskImplementation</text>
<text xml:space="preserve" text-anchor="start" x="33.62" y="-413.75" font-family="Helvetica,sans-Serif" font-size="10.00">::Impl::TaskObserver</text>
<text xml:space="preserve" text-anchor="start" x="82" y="-397" font-family="Helvetica,sans-Serif" font-size="10.00"> </text>
<text xml:space="preserve" text-anchor="start" x="15" y="-380.25" font-family="Helvetica,sans-Serif" font-size="10.00">+</text>
<text xml:space="preserve" text-anchor="start" x="38.25" y="-380.25" font-family="Helvetica,sans-Serif" font-size="10.00">TaskObserver()</text>
<text xml:space="preserve" text-anchor="start" x="15" y="-363.5" font-family="Helvetica,sans-Serif" font-size="10.00">+</text>
<text xml:space="preserve" text-anchor="start" x="38.25" y="-363.5" font-family="Helvetica,sans-Serif" font-size="10.00">on_scheduler_entry()</text>
<text xml:space="preserve" text-anchor="start" x="15" y="-346.75" font-family="Helvetica,sans-Serif" font-size="10.00">+</text>
<text xml:space="preserve" text-anchor="start" x="38.25" y="-346.75" font-family="Helvetica,sans-Serif" font-size="10.00">on_scheduler_exit()</text>
<polygon fill="#666666" stroke="#666666" points="0,-408.5 0,-408.5 167,-408.5 167,-408.5 0,-408.5"/>
<polygon fill="#666666" stroke="#666666" points="0,-391.75 0,-391.75 167,-391.75 167,-391.75 0,-391.75"/>
<polygon fill="none" stroke="#666666" points="0,-339.5 0,-440 167,-440 167,-339.5 0,-339.5"/>
</a>
</g>
</g>
<!-- Node3 -->
<g id="Node000003" class="node">
<title>Node3</title>
<g id="a_Node000003"><a xlink:href="../../dd/d88/classArcane_1_1TBBTaskImplementation_1_1Impl.html" target="_top" xlink:title=" ">
<polygon fill="white" stroke="none" points="167,-284.75 0,-284.75 0,0 167,0 167,-284.75"/>
<text xml:space="preserve" text-anchor="start" x="4" y="-271.25" font-family="Helvetica,sans-Serif" font-size="10.00">Arcane::TBBTaskImplementation</text>
<text xml:space="preserve" text-anchor="start" x="69.62" y="-258.5" font-family="Helvetica,sans-Serif" font-size="10.00">::Impl</text>
<text xml:space="preserve" text-anchor="start" x="6.75" y="-241.75" font-family="Helvetica,sans-Serif" font-size="10.00">+</text>
<text xml:space="preserve" text-anchor="start" x="21.75" y="-241.75" font-family="Helvetica,sans-Serif" font-size="10.00">m_main_arena</text>
<text xml:space="preserve" text-anchor="start" x="6.75" y="-225" font-family="Helvetica,sans-Serif" font-size="10.00">+</text>
<text xml:space="preserve" text-anchor="start" x="21.75" y="-225" font-family="Helvetica,sans-Serif" font-size="10.00">m_sub_arena_list</text>
<text xml:space="preserve" text-anchor="start" x="9" y="-208.25" font-family="Helvetica,sans-Serif" font-size="10.00">&#45;</text>
<text xml:space="preserve" text-anchor="start" x="21.75" y="-208.25" font-family="Helvetica,sans-Serif" font-size="10.00">m_nb_allowed_thread</text>
<text xml:space="preserve" text-anchor="start" x="9" y="-191.5" font-family="Helvetica,sans-Serif" font-size="10.00">&#45;</text>
<text xml:space="preserve" text-anchor="start" x="21.75" y="-191.5" font-family="Helvetica,sans-Serif" font-size="10.00">m_task_scheduler_handle</text>
<text xml:space="preserve" text-anchor="start" x="9" y="-174.75" font-family="Helvetica,sans-Serif" font-size="10.00">&#45;</text>
<text xml:space="preserve" text-anchor="start" x="21.75" y="-174.75" font-family="Helvetica,sans-Serif" font-size="10.00">m_thread_created_mutex</text>
<text xml:space="preserve" text-anchor="start" x="9" y="-158" font-family="Helvetica,sans-Serif" font-size="10.00">&#45;</text>
<text xml:space="preserve" text-anchor="start" x="21.75" y="-158" font-family="Helvetica,sans-Serif" font-size="10.00">m_thread_task_infos</text>
<text xml:space="preserve" text-anchor="start" x="9" y="-141.25" font-family="Helvetica,sans-Serif" font-size="10.00">&#45;</text>
<text xml:space="preserve" text-anchor="start" x="21.75" y="-141.25" font-family="Helvetica,sans-Serif" font-size="10.00">m_constructed_thread_map</text>
<text xml:space="preserve" text-anchor="start" x="6.75" y="-124.5" font-family="Helvetica,sans-Serif" font-size="10.00">+</text>
<text xml:space="preserve" text-anchor="start" x="21.75" y="-124.5" font-family="Helvetica,sans-Serif" font-size="10.00">Impl()</text>
<text xml:space="preserve" text-anchor="start" x="6.75" y="-107.75" font-family="Helvetica,sans-Serif" font-size="10.00">+</text>
<text xml:space="preserve" text-anchor="start" x="21.75" y="-107.75" font-family="Helvetica,sans-Serif" font-size="10.00">Impl()</text>
<text xml:space="preserve" text-anchor="start" x="6.75" y="-91" font-family="Helvetica,sans-Serif" font-size="10.00">+</text>
<text xml:space="preserve" text-anchor="start" x="21.75" y="-91" font-family="Helvetica,sans-Serif" font-size="10.00">nbAllowedThread()</text>
<text xml:space="preserve" text-anchor="start" x="6.75" y="-74.25" font-family="Helvetica,sans-Serif" font-size="10.00">+</text>
<text xml:space="preserve" text-anchor="start" x="21.75" y="-74.25" font-family="Helvetica,sans-Serif" font-size="10.00">threadTaskInfo()</text>
<text xml:space="preserve" text-anchor="start" x="6.75" y="-57.5" font-family="Helvetica,sans-Serif" font-size="10.00">+</text>
<text xml:space="preserve" text-anchor="start" x="21.75" y="-57.5" font-family="Helvetica,sans-Serif" font-size="10.00">terminate()</text>
<text xml:space="preserve" text-anchor="start" x="6.75" y="-40.75" font-family="Helvetica,sans-Serif" font-size="10.00">+</text>
<text xml:space="preserve" text-anchor="start" x="21.75" y="-40.75" font-family="Helvetica,sans-Serif" font-size="10.00">notifyThreadCreated()</text>
<text xml:space="preserve" text-anchor="start" x="6.75" y="-24" font-family="Helvetica,sans-Serif" font-size="10.00">+</text>
<text xml:space="preserve" text-anchor="start" x="21.75" y="-24" font-family="Helvetica,sans-Serif" font-size="10.00">notifyThreadDestroyed()</text>
<text xml:space="preserve" text-anchor="start" x="9" y="-7.25" font-family="Helvetica,sans-Serif" font-size="10.00">&#45;</text>
<text xml:space="preserve" text-anchor="start" x="21.75" y="-7.25" font-family="Helvetica,sans-Serif" font-size="10.00">_init()</text>
<polygon fill="#bfbfbf" stroke="#bfbfbf" points="0,-253.25 0,-253.25 167,-253.25 167,-253.25 0,-253.25"/>
<polygon fill="#bfbfbf" stroke="#bfbfbf" points="0,-136 0,-136 19.75,-136 19.75,-136 0,-136"/>
<polygon fill="#bfbfbf" stroke="#bfbfbf" points="19.75,-136 19.75,-136 167,-136 167,-136 19.75,-136"/>
<polygon fill="none" stroke="#bfbfbf" points="0,0 0,-284.75 167,-284.75 167,0 0,0"/>
</a>
</g>
</g>
<!-- Node1&#45;&gt;Node3 -->
<g id="edge3_Node000003_Node000001" class="edge">
<title>Node1&#45;&gt;Node3</title>
<g id="a_edge3_Node000003_Node000001"><a xlink:title=" ">
<path fill="none" stroke="#63b8ff" d="M32.36,-339.67C28.51,-333.9 25.18,-327.81 22.75,-321.5 19.75,-313.7 17.95,-305.67 17.15,-297.55"/>
<polygon fill="none" stroke="#63b8ff" points="17.15,-297.62 12.94,-291.76 16.72,-285.62 20.93,-291.47 17.15,-297.62"/>
</a>
</g>
<text xml:space="preserve" text-anchor="start" x="25.75" y="-309" font-family="Helvetica,sans-Serif" font-size="10.00" fill="grey">&#45;m_task_observer</text>
</g>
<!-- Node2 -->
<g id="Node000002" class="node">
<title>Node2</title>
<g id="a_Node000002"><a xlink:title=" ">
<polygon fill="white" stroke="none" points="135.12,-544 31.88,-544 31.88,-477 135.12,-477 135.12,-544"/>
<text xml:space="preserve" text-anchor="start" x="35.88" y="-530.5" font-family="Helvetica,sans-Serif" font-size="10.00">tbb::task_scheduler</text>
<text xml:space="preserve" text-anchor="start" x="59.5" y="-517.75" font-family="Helvetica,sans-Serif" font-size="10.00">_observer</text>
<text xml:space="preserve" text-anchor="start" x="82" y="-501" font-family="Helvetica,sans-Serif" font-size="10.00"> </text>
<text xml:space="preserve" text-anchor="start" x="82" y="-484.25" font-family="Helvetica,sans-Serif" font-size="10.00"> </text>
<polygon fill="#bfbfbf" stroke="#bfbfbf" points="31.88,-512.5 31.88,-512.5 135.12,-512.5 135.12,-512.5 31.88,-512.5"/>
<polygon fill="#bfbfbf" stroke="#bfbfbf" points="31.88,-495.75 31.88,-495.75 135.12,-495.75 135.12,-495.75 31.88,-495.75"/>
<polygon fill="none" stroke="#bfbfbf" points="31.88,-477 31.88,-544 135.12,-544 135.12,-477 31.88,-477"/>
</a>
</g>
</g>
<!-- Node2&#45;&gt;Node1 -->
<g id="edge1_Node000001_Node000002" class="edge">
<title>Node2&#45;&gt;Node1</title>
<g id="a_edge1_Node000001_Node000002"><a xlink:title=" ">
<path fill="none" stroke="#63b8ff" d="M83.5,-465.8C83.5,-457.29 83.5,-448.32 83.5,-439.65"/>
<polygon fill="none" stroke="#63b8ff" points="80,-465.54 83.5,-475.54 87,-465.54 80,-465.54"/>
</a>
</g>
</g>
<!-- Node3&#45;&gt;Node1 -->
<g id="edge2_Node000001_Node000003" class="edge">
<title>Node3&#45;&gt;Node1</title>
<g id="a_edge2_Node000001_Node000003"><a xlink:title=" ">
<path fill="none" stroke="#63b8ff" d="M124.79,-284.64C124.84,-297.14 123.57,-309.57 120.5,-321.5 119.99,-323.49 119.4,-325.49 118.76,-327.48"/>
<polygon fill="none" stroke="#63b8ff" points="118.73,-327.55 120.31,-334.59 114.42,-338.76 112.84,-331.72 118.73,-327.55"/>
</a>
</g>
<text xml:space="preserve" text-anchor="start" x="126.32" y="-309" font-family="Helvetica,sans-Serif" font-size="10.00" fill="grey">+m_p</text>
</g>
</g>
</svg>

<g id="navigator" transform="translate(0 0)" fill="#404254">
  <rect fill="#f2f5e9" fill-opacity="0.5" stroke="#606060" stroke-width=".5" x="0" y="0" width="60" height="60"/>
  <use id="zoomplus" xlink:href="#zoomPlus" x="17" y="9" onmousedown="handleZoom(evt,'in')"/>
  <use id="zoomminus" xlink:href="#zoomMin" x="42" y="9" onmousedown="handleZoom(evt,'out')"/>
  <use id="reset" xlink:href="#resetDef" x="30" y="36" onmousedown="handleReset()"/>
   <use id="arrowup" xlink:href="#arrowUp" x="0" y="0" onmousedown="handlePan(0,-1)"/>
  <use id="arrowright" xlink:href="#arrowRight" x="0" y="0" onmousedown="handlePan(1,0)"/>
  <use id="arrowdown" xlink:href="#arrowDown" x="0" y="0" onmousedown="handlePan(0,1)"/>
  <use id="arrowleft" xlink:href="#arrowLeft" x="0" y="0" onmousedown="handlePan(-1,0)"/>
</g>
<svg viewBox="0 0 15 15" width="100%" height="30px" preserveAspectRatio="xMaxYMin meet">
 <g id="arrow_out" transform="scale(0.3 0.3)">
  <a xlink:href="classArcane_1_1TBBTaskImplementation_1_1Impl_1_1TaskObserver__coll__graph_org.svg" target="_base">
   <rect id="button" ry="5" rx="5" y="6" x="6" height="38" width="38"
        fill="#f2f5e9" fill-opacity="0.5" stroke="#606060" stroke-width="1.0"/>
   <path id="arrow"
     d="M 11.500037,31.436501 C 11.940474,20.09759 22.043105,11.32322 32.158766,21.979434 L 37.068811,17.246167 C 37.068811,17.246167 37.088388,32 37.088388,32 L 22.160133,31.978069 C 22.160133,31.978069 26.997745,27.140456 26.997745,27.140456 C 18.528582,18.264221 13.291696,25.230495 11.500037,31.436501 z"
     style="fill:#404040;"/>
  </a>
 </g>
</svg>

<style type='text/css'>
<![CDATA[
[data-mouse-over-selected='false'] { opacity: 0.7; }
[data-mouse-over-selected='true']  { opacity: 1.0; }
]]>
</style>
<script type="application/ecmascript"><![CDATA[
document.addEventListener('DOMContentLoaded', (event) => {
  highlightEdges();
  highlightAdjacentNodes();
});
]]></script>
</svg>
