<?xml version="1.0" encoding="UTF-8" standalone="no"?>
<!DOCTYPE svg PUBLIC "-//W3C//DTD SVG 1.1//EN"
 "http://www.w3.org/Graphics/SVG/1.1/DTD/svg11.dtd">
<!-- Generated by graphviz version 14.1.2 (0)
 -->
<!-- Title: Arcane::platform::getOnlineDebuggerService Pages: 1 -->
<svg width="482pt" height="94pt"
 viewBox="0.00 0.00 482.00 94.00" xmlns="http://www.w3.org/2000/svg" xmlns:xlink="http://www.w3.org/1999/xlink">
<g id="graph0" class="graph" transform="scale(1 1) rotate(0) translate(4 89.5)">
<title>Arcane::platform::getOnlineDebuggerService</title>
<!-- Node1 -->
<g id="Node000001" class="node">
<title>Node1</title>
<g id="a_Node000001"><a xlink:title="Service utilisé pour obtenir la mise en place d&#39;une architecture en ligne de debug.">
<polygon fill="#999999" stroke="#666666" points="474,-59.5 323,-59.5 323,-26 474,-26 474,-59.5"/>
<text xml:space="preserve" text-anchor="start" x="331" y="-46" font-family="Helvetica,sans-Serif" font-size="10.00">Arcane::platform::getOnline</text>
<text xml:space="preserve" text-anchor="middle" x="398.5" y="-33.25" font-family="Helvetica,sans-Serif" font-size="10.00">DebuggerService</text>
</a>
</g>
</g>
<!-- Node2 -->
<g id="Node000002" class="node">
<title>Node2</title>
<g id="a_Node000002"><a xlink:href="../../d6/d2a/classArcane_1_1Application.html#a90209a52f4e60c416dd7f30ac01c8204" target="_top" xlink:title="Initialise l&#39;instance. L&#39;instance n&#39;est pas utilisable tant que cette méthode n&#39;a pas été appelée.">
<polygon fill="white" stroke="#666666" points="279.5,-85.5 169,-85.5 169,-52 279.5,-52 279.5,-85.5"/>
<text xml:space="preserve" text-anchor="start" x="177" y="-72" font-family="Helvetica,sans-Serif" font-size="10.00">Arcane::Application</text>
<text xml:space="preserve" text-anchor="middle" x="224.25" y="-59.25" font-family="Helvetica,sans-Serif" font-size="10.00">::initialize</text>
</a>
</g>
</g>
<!-- Node1&#45;&gt;Node2 -->
<g id="edge1_Node000001_Node000002" class="edge">
<title>Node1&#45;&gt;Node2</title>
<g id="a_edge1_Node000001_Node000002"><a xlink:title=" ">
<path fill="none" stroke="#63b8ff" d="M311.48,-55.73C300.68,-57.36 289.88,-58.99 279.76,-60.52"/>
<polygon fill="#63b8ff" stroke="#63b8ff" points="311.84,-59.22 321.2,-54.27 310.79,-52.3 311.84,-59.22"/>
</a>
</g>
</g>
<!-- Node3 -->
<g id="Node000003" class="node">
<title>Node3</title>
<g id="a_Node000003"><a xlink:href="../../db/d63/classArcane_1_1ModuleMaster.html#aaed72a3c4924567377d0a05af5add558" target="_top" xlink:title="Point d&#39;entrée auto&#45;chargé en début d&#39;itération de la boucle de calcul.">
<polygon fill="white" stroke="#666666" points="287,-33.5 161.5,-33.5 161.5,0 287,0 287,-33.5"/>
<text xml:space="preserve" text-anchor="start" x="169.5" y="-20" font-family="Helvetica,sans-Serif" font-size="10.00">Arcane::ModuleMaster</text>
<text xml:space="preserve" text-anchor="middle" x="224.25" y="-7.25" font-family="Helvetica,sans-Serif" font-size="10.00">::timeLoopBegin</text>
</a>
</g>
</g>
<!-- Node1&#45;&gt;Node3 -->
<g id="edge2_Node000001_Node000003" class="edge">
<title>Node1&#45;&gt;Node3</title>
<g id="a_edge2_Node000001_Node000003"><a xlink:title=" ">
<path fill="none" stroke="#63b8ff" d="M311.58,-29.78C303.4,-28.55 295.22,-27.31 287.33,-26.12"/>
<polygon fill="#63b8ff" stroke="#63b8ff" points="310.79,-33.2 321.2,-31.23 311.84,-26.28 310.79,-33.2"/>
</a>
</g>
</g>
<!-- Node4 -->
<g id="Node000004" class="node">
<title>Node4</title>
<g id="a_Node000004"><a xlink:href="../../db/d63/classArcane_1_1ModuleMaster.html#a52f3a2ae1d8ead256923e34ada3ae55f" target="_top" xlink:title="Constructeur.">
<polygon fill="white" stroke="#666666" points="125.5,-33.5 0,-33.5 0,0 125.5,0 125.5,-33.5"/>
<text xml:space="preserve" text-anchor="start" x="8" y="-20" font-family="Helvetica,sans-Serif" font-size="10.00">Arcane::ModuleMaster</text>
<text xml:space="preserve" text-anchor="middle" x="62.75" y="-7.25" font-family="Helvetica,sans-Serif" font-size="10.00">::ModuleMaster</text>
</a>
</g>
</g>
<!-- Node3&#45;&gt;Node4 -->
<g id="edge3_Node000003_Node000004" class="edge">
<title>Node3&#45;&gt;Node4</title>
<g id="a_edge3_Node000003_Node000004"><a xlink:title=" ">
<path fill="none" stroke="#63b8ff" d="M149.63,-16.75C141.72,-16.75 133.73,-16.75 125.97,-16.75"/>
<polygon fill="#63b8ff" stroke="#63b8ff" points="149.61,-20.25 159.61,-16.75 149.61,-13.25 149.61,-20.25"/>
</a>
</g>
</g>
</g>
</svg>
