<?xml version="1.0" encoding="UTF-8" standalone="no"?>
<!DOCTYPE svg PUBLIC "-//W3C//DTD SVG 1.1//EN"
 "http://www.w3.org/Graphics/SVG/1.1/DTD/svg11.dtd">
<!-- Generated by graphviz version 2.43.0 (0)
 -->
<!-- Title: Arcane::PrintableMemoryAllocator::reallocate Pages: 1 -->
<svg width="601pt" height="59pt"
 viewBox="0.00 0.00 601.00 59.00" xmlns="http://www.w3.org/2000/svg" xmlns:xlink="http://www.w3.org/1999/xlink">
<g id="graph0" class="graph" transform="scale(1 1) rotate(0) translate(4 55)">
<title>Arcane::PrintableMemoryAllocator::reallocate</title>
<!-- Node1 -->
<g id="Node000001" class="node">
<title>Node1</title>
<g id="a_Node000001"><a xlink:title="Réalloue de la mémoire pour new_size octets et retourne le pointeur.">
<polygon fill="#999999" stroke="#666666" points="184,-51 0,-51 0,-21 184,-21 184,-51"/>
<text text-anchor="start" x="8" y="-39" font-family="Helvetica,sans-Serif" font-size="10.00">Arcane::PrintableMemoryAllocator</text>
<text text-anchor="middle" x="92" y="-28" font-family="Helvetica,sans-Serif" font-size="10.00">::reallocate</text>
</a>
</g>
</g>
<!-- Node2 -->
<g id="Node000002" class="node">
<title>Node2</title>
<g id="a_Node000002"><a xlink:href="../../d8/df1/classArcane_1_1AllocatedMemoryInfo.html#a9187eeb5ac0a4a663d23d21573b03266" target="_top" xlink:title="Adresse du début de la zone allouée.">
<polygon fill="white" stroke="#666666" points="593,-51 432,-51 432,-21 593,-21 593,-51"/>
<text text-anchor="start" x="440" y="-39" font-family="Helvetica,sans-Serif" font-size="10.00">Arcane::AllocatedMemoryInfo</text>
<text text-anchor="middle" x="512.5" y="-28" font-family="Helvetica,sans-Serif" font-size="10.00">::baseAddress</text>
</a>
</g>
</g>
<!-- Node1&#45;&gt;Node2 -->
<g id="edge1_Node000001_Node000002" class="edge">
<title>Node1&#45;&gt;Node2</title>
<g id="a_edge1_Node000001_Node000002"><a xlink:title=" ">
<path fill="none" stroke="#63b8ff" d="M184.22,-38.41C196.25,-38.66 208.42,-38.86 220,-39 298.22,-39.92 317.78,-40.02 396,-39 404.36,-38.89 413.06,-38.74 421.77,-38.56"/>
<polygon fill="#63b8ff" stroke="#63b8ff" points="422.06,-42.05 431.98,-38.34 421.9,-35.06 422.06,-42.05"/>
</a>
</g>
</g>
<!-- Node3 -->
<g id="Node000003" class="node">
<title>Node3</title>
<g id="a_Node000003"><a xlink:href="../../d5/d29/classArcane_1_1DefaultMemoryAllocator.html#a1cb2eb1dc55253dce7218df87d8d2f21" target="_top" xlink:title="Réalloue de la mémoire pour new_size octets et retourne le pointeur.">
<polygon fill="white" stroke="#666666" points="396,-30 220,-30 220,0 396,0 396,-30"/>
<text text-anchor="start" x="228" y="-18" font-family="Helvetica,sans-Serif" font-size="10.00">Arcane::DefaultMemoryAllocator</text>
<text text-anchor="middle" x="308" y="-7" font-family="Helvetica,sans-Serif" font-size="10.00">::reallocate</text>
</a>
</g>
</g>
<!-- Node1&#45;&gt;Node3 -->
<g id="edge2_Node000001_Node000003" class="edge">
<title>Node1&#45;&gt;Node3</title>
<g id="a_edge2_Node000001_Node000003"><a xlink:title=" ">
<path fill="none" stroke="#63b8ff" d="M184.07,-27.06C192.57,-26.23 201.21,-25.38 209.77,-24.54"/>
<polygon fill="#63b8ff" stroke="#63b8ff" points="210.15,-28.02 219.76,-23.56 209.47,-21.05 210.15,-28.02"/>
</a>
</g>
</g>
<!-- Node3&#45;&gt;Node2 -->
<g id="edge3_Node000003_Node000002" class="edge">
<title>Node3&#45;&gt;Node2</title>
<g id="a_edge3_Node000003_Node000002"><a xlink:title=" ">
<path fill="none" stroke="#63b8ff" d="M396.05,-24.03C404.61,-24.91 413.3,-25.82 421.87,-26.71"/>
<polygon fill="#63b8ff" stroke="#63b8ff" points="421.57,-30.19 431.88,-27.74 422.29,-23.23 421.57,-30.19"/>
</a>
</g>
</g>
</g>
</svg>
