<?xml version="1.0" encoding="UTF-8" standalone="no"?>
<!DOCTYPE svg PUBLIC "-//W3C//DTD SVG 1.1//EN"
 "http://www.w3.org/Graphics/SVG/1.1/DTD/svg11.dtd">
<!-- Generated by graphviz version 14.1.2 (0)
 -->
<!-- Title: Graphe hiérarchique des classes Pages: 1 -->
<svg width="279pt" height="380pt"
 viewBox="0.00 0.00 279.00 380.00" xmlns="http://www.w3.org/2000/svg" xmlns:xlink="http://www.w3.org/1999/xlink">
<g id="graph0" class="graph" transform="scale(1 1) rotate(0) translate(4 375.75)">
<title>Graphe hiérarchique des classes</title>
<!-- Node0 -->
<g id="Node000000" class="node">
<title>Node0</title>
<g id="a_Node000000"><a xlink:title=" ">
<polygon fill="#e0e0e0" stroke="#999999" points="109.75,-195.75 0,-195.75 0,-175 109.75,-175 109.75,-195.75"/>
<text xml:space="preserve" text-anchor="middle" x="54.88" y="-182.25" font-family="Helvetica,sans-Serif" font-size="10.00">GeomElementBase</text>
</a>
</g>
</g>
<!-- Node1 -->
<g id="Node000001" class="node">
<title>Node1</title>
<g id="a_Node000001"><a xlink:href="d1/d3e/classHeptaedron10Element.html" target="_top" xlink:title="Eléments géométriques de type GeomType::Heptaedron10.">
<polygon fill="white" stroke="#666666" points="271.25,-371.75 145.75,-371.75 145.75,-351 271.25,-351 271.25,-371.75"/>
<text xml:space="preserve" text-anchor="middle" x="208.5" y="-358.25" font-family="Helvetica,sans-Serif" font-size="10.00">Heptaedron10Element</text>
</a>
</g>
</g>
<!-- Node0&#45;&gt;Node1 -->
<g id="edge2188_Node000000_Node000001" class="edge">
<title>Node0&#45;&gt;Node1</title>
<g id="a_edge2188_Node000000_Node000001"><a xlink:title=" ">
<path fill="none" stroke="#63b8ff" d="M62.53,-206.67C74.07,-240.17 100.97,-305.11 145.75,-341.38 150.3,-345.06 155.56,-348.08 161.03,-350.54"/>
<polygon fill="#63b8ff" stroke="#63b8ff" points="65.89,-205.7 59.44,-197.3 59.25,-207.89 65.89,-205.7"/>
</a>
</g>
</g>
<!-- Node2 -->
<g id="Node000002" class="node">
<title>Node2</title>
<g id="a_Node000002"><a xlink:href="d2/d66/classHexaedron8Element.html" target="_top" xlink:title="Eléments géométriques de type GeomType::Hexaedron8.">
<polygon fill="white" stroke="#666666" points="266.38,-332.75 150.62,-332.75 150.62,-312 266.38,-312 266.38,-332.75"/>
<text xml:space="preserve" text-anchor="middle" x="208.5" y="-319.25" font-family="Helvetica,sans-Serif" font-size="10.00">Hexaedron8Element</text>
</a>
</g>
</g>
<!-- Node0&#45;&gt;Node2 -->
<g id="edge2189_Node000000_Node000002" class="edge">
<title>Node0&#45;&gt;Node2</title>
<g id="a_edge2189_Node000000_Node000002"><a xlink:title=" ">
<path fill="none" stroke="#63b8ff" d="M66.61,-206.13C81.15,-232.25 109.49,-276.79 145.75,-302.38 151,-306.08 156.97,-309.12 163.08,-311.62"/>
<polygon fill="#63b8ff" stroke="#63b8ff" points="69.79,-204.64 61.96,-197.5 63.63,-207.96 69.79,-204.64"/>
</a>
</g>
</g>
<!-- Node3 -->
<g id="Node000003" class="node">
<title>Node3</title>
<g id="a_Node000003"><a xlink:href="d8/d5c/classHexagon6Element.html" target="_top" xlink:title="Eléments géométriques de type GeomType::Hexagon6.">
<polygon fill="white" stroke="#666666" points="261.5,-293.75 155.5,-293.75 155.5,-273 261.5,-273 261.5,-293.75"/>
<text xml:space="preserve" text-anchor="middle" x="208.5" y="-280.25" font-family="Helvetica,sans-Serif" font-size="10.00">Hexagon6Element</text>
</a>
</g>
</g>
<!-- Node0&#45;&gt;Node3 -->
<g id="edge2190_Node000000_Node000003" class="edge">
<title>Node0&#45;&gt;Node3</title>
<g id="a_edge2190_Node000000_Node000003"><a xlink:title=" ">
<path fill="none" stroke="#63b8ff" d="M73.23,-204.3C90.21,-221.81 117.56,-247.46 145.75,-263.38 152.13,-266.98 159.25,-270.04 166.32,-272.6"/>
<polygon fill="#63b8ff" stroke="#63b8ff" points="75.81,-201.93 66.39,-197.08 70.73,-206.74 75.81,-201.93"/>
</a>
</g>
</g>
<!-- Node4 -->
<g id="Node000004" class="node">
<title>Node4</title>
<g id="a_Node000004"><a xlink:href="dc/d1a/classOctaedron12Element.html" target="_top" xlink:title="Eléments géométriques de type GeomType::Octaedron12.">
<polygon fill="white" stroke="#666666" points="267.88,-254.75 149.12,-254.75 149.12,-234 267.88,-234 267.88,-254.75"/>
<text xml:space="preserve" text-anchor="middle" x="208.5" y="-241.25" font-family="Helvetica,sans-Serif" font-size="10.00">Octaedron12Element</text>
</a>
</g>
</g>
<!-- Node0&#45;&gt;Node4 -->
<g id="edge2191_Node000000_Node000004" class="edge">
<title>Node0&#45;&gt;Node4</title>
<g id="a_edge2191_Node000000_Node000004"><a xlink:title=" ">
<path fill="none" stroke="#63b8ff" d="M89.3,-200.79C106.08,-208.3 126.82,-217.22 145.75,-224.38 154.18,-227.56 163.38,-230.71 172.03,-233.53"/>
<polygon fill="#63b8ff" stroke="#63b8ff" points="90.83,-197.64 80.28,-196.72 87.95,-204.02 90.83,-197.64"/>
</a>
</g>
</g>
<!-- Node5 -->
<g id="Node000005" class="node">
<title>Node5</title>
<g id="a_Node000005"><a xlink:href="d6/db6/classPentaedron6Element.html" target="_top" xlink:title="Eléments géométriques de type GeomType::Pentaedron6.">
<polygon fill="white" stroke="#666666" points="267.5,-215.75 149.5,-215.75 149.5,-195 267.5,-195 267.5,-215.75"/>
<text xml:space="preserve" text-anchor="middle" x="208.5" y="-202.25" font-family="Helvetica,sans-Serif" font-size="10.00">Pentaedron6Element</text>
</a>
</g>
</g>
<!-- Node0&#45;&gt;Node5 -->
<g id="edge2192_Node000000_Node000005" class="edge">
<title>Node0&#45;&gt;Node5</title>
<g id="a_edge2192_Node000000_Node000005"><a xlink:title=" ">
<path fill="none" stroke="#63b8ff" d="M121.35,-194.01C130.61,-195.23 140.09,-196.48 149.21,-197.69"/>
<polygon fill="#63b8ff" stroke="#63b8ff" points="122.06,-190.57 111.69,-192.74 121.14,-197.51 122.06,-190.57"/>
</a>
</g>
</g>
<!-- Node6 -->
<g id="Node000006" class="node">
<title>Node6</title>
<g id="a_Node000006"><a xlink:href="dd/dbe/classPentagon5Element.html" target="_top" xlink:title="Eléments géométriques de type GeomType::Pentagon5.">
<polygon fill="white" stroke="#666666" points="262.62,-176.75 154.38,-176.75 154.38,-156 262.62,-156 262.62,-176.75"/>
<text xml:space="preserve" text-anchor="middle" x="208.5" y="-163.25" font-family="Helvetica,sans-Serif" font-size="10.00">Pentagon5Element</text>
</a>
</g>
</g>
<!-- Node0&#45;&gt;Node6 -->
<g id="edge2193_Node000000_Node000006" class="edge">
<title>Node0&#45;&gt;Node6</title>
<g id="a_edge2193_Node000000_Node000006"><a xlink:title=" ">
<path fill="none" stroke="#63b8ff" d="M121.41,-177.16C132.32,-175.8 143.52,-174.39 154.08,-173.07"/>
<polygon fill="#63b8ff" stroke="#63b8ff" points="121.18,-173.66 111.69,-178.38 122.05,-180.61 121.18,-173.66"/>
</a>
</g>
</g>
<!-- Node7 -->
<g id="Node000007" class="node">
<title>Node7</title>
<g id="a_Node000007"><a xlink:href="d8/dfb/classPyramid5Element.html" target="_top" xlink:title="Eléments géométriques de type GeomType::Pyramid5.">
<polygon fill="white" stroke="#666666" points="260,-137.75 157,-137.75 157,-117 260,-117 260,-137.75"/>
<text xml:space="preserve" text-anchor="middle" x="208.5" y="-124.25" font-family="Helvetica,sans-Serif" font-size="10.00">Pyramid5Element</text>
</a>
</g>
</g>
<!-- Node0&#45;&gt;Node7 -->
<g id="edge2194_Node000000_Node000007" class="edge">
<title>Node0&#45;&gt;Node7</title>
<g id="a_edge2194_Node000000_Node000007"><a xlink:title=" ">
<path fill="none" stroke="#63b8ff" d="M90.03,-170.11C106.7,-162.87 127.13,-154.31 145.75,-147.38 154.3,-144.19 163.63,-141.02 172.37,-138.17"/>
<polygon fill="#63b8ff" stroke="#63b8ff" points="88.82,-166.82 81.07,-174.04 91.63,-173.23 88.82,-166.82"/>
</a>
</g>
</g>
<!-- Node8 -->
<g id="Node000008" class="node">
<title>Node8</title>
<g id="a_Node000008"><a xlink:href="d5/dfe/classQuad4Element.html" target="_top" xlink:title="Eléments géométriques de type GeomType::Quad4.">
<polygon fill="white" stroke="#666666" points="252.5,-98.75 164.5,-98.75 164.5,-78 252.5,-78 252.5,-98.75"/>
<text xml:space="preserve" text-anchor="middle" x="208.5" y="-85.25" font-family="Helvetica,sans-Serif" font-size="10.00">Quad4Element</text>
</a>
</g>
</g>
<!-- Node0&#45;&gt;Node8 -->
<g id="edge2195_Node000000_Node000008" class="edge">
<title>Node0&#45;&gt;Node8</title>
<g id="a_edge2195_Node000000_Node000008"><a xlink:title=" ">
<path fill="none" stroke="#63b8ff" d="M73.56,-166.43C90.59,-149.16 117.82,-124.03 145.75,-108.38 152.14,-104.79 159.27,-101.74 166.34,-99.18"/>
<polygon fill="#63b8ff" stroke="#63b8ff" points="71.1,-163.93 66.68,-173.56 76.14,-168.79 71.1,-163.93"/>
</a>
</g>
</g>
<!-- Node9 -->
<g id="Node000009" class="node">
<title>Node9</title>
<g id="a_Node000009"><a xlink:href="d2/da9/classTetraedron4Element.html" target="_top" xlink:title="Eléments géométriques de type GeomType::Tetraedron4.">
<polygon fill="white" stroke="#666666" points="265.62,-59.75 151.38,-59.75 151.38,-39 265.62,-39 265.62,-59.75"/>
<text xml:space="preserve" text-anchor="middle" x="208.5" y="-46.25" font-family="Helvetica,sans-Serif" font-size="10.00">Tetraedron4Element</text>
</a>
</g>
</g>
<!-- Node0&#45;&gt;Node9 -->
<g id="edge2196_Node000000_Node000009" class="edge">
<title>Node0&#45;&gt;Node9</title>
<g id="a_edge2196_Node000000_Node000009"><a xlink:title=" ">
<path fill="none" stroke="#63b8ff" d="M66.66,-164.8C81.24,-138.91 109.63,-94.75 145.75,-69.38 151.01,-65.68 156.98,-62.64 163.1,-60.15"/>
<polygon fill="#63b8ff" stroke="#63b8ff" points="63.71,-162.89 61.99,-173.35 69.86,-166.24 63.71,-162.89"/>
</a>
</g>
</g>
<!-- Node10 -->
<g id="Node000010" class="node">
<title>Node10</title>
<g id="a_Node000010"><a xlink:href="d1/d71/classTriangle3Element.html" target="_top" xlink:title="Eléments géométriques de type GeomType::Triangle3.">
<polygon fill="white" stroke="#666666" points="258.88,-20.75 158.12,-20.75 158.12,0 258.88,0 258.88,-20.75"/>
<text xml:space="preserve" text-anchor="middle" x="208.5" y="-7.25" font-family="Helvetica,sans-Serif" font-size="10.00">Triangle3Element</text>
</a>
</g>
</g>
<!-- Node0&#45;&gt;Node10 -->
<g id="edge2197_Node000000_Node000010" class="edge">
<title>Node0&#45;&gt;Node10</title>
<g id="a_edge2197_Node000000_Node000010"><a xlink:title=" ">
<path fill="none" stroke="#63b8ff" d="M62.74,-163.73C74.43,-130.3 101.35,-66.23 145.75,-30.38 150.31,-26.69 155.56,-23.68 161.04,-21.22"/>
<polygon fill="#63b8ff" stroke="#63b8ff" points="59.45,-162.52 59.6,-173.12 66.09,-164.75 59.45,-162.52"/>
</a>
</g>
</g>
</g>
</svg>
