<?xml version="1.0" encoding="UTF-8" standalone="no"?>
<!DOCTYPE svg PUBLIC "-//W3C//DTD SVG 1.1//EN"
 "http://www.w3.org/Graphics/SVG/1.1/DTD/svg11.dtd">
<!-- Generated by graphviz version 2.43.0 (0)
 -->
<!-- Title: Arccore::CheckedPointer&lt; T &gt; Pages: 1 -->
<svg width="348pt" height="748pt"
 viewBox="0.00 0.00 348.00 748.00" xmlns="http://www.w3.org/2000/svg" xmlns:xlink="http://www.w3.org/1999/xlink">
<g id="graph0" class="graph" transform="scale(1 1) rotate(0) translate(4 744)">
<title>Arccore::CheckedPointer&lt; T &gt;</title>
<!-- Node1 -->
<g id="Node000001" class="node">
<title>Node1</title>
<g id="a_Node000001"><a xlink:title="Encapsulation d&#39;un pointeur.">
<polygon fill="#999999" stroke="transparent" points="249.5,-740 91.5,-740 91.5,-526 249.5,-526 249.5,-740"/>
<text text-anchor="start" x="96.5" y="-728" font-family="Helvetica,sans-Serif" font-size="10.00">Arccore::CheckedPointer&lt; T &gt;</text>
<text text-anchor="start" x="108.5" y="-713" font-family="Helvetica,sans-Serif" font-size="10.00">#</text>
<text text-anchor="start" x="134.5" y="-713" font-family="Helvetica,sans-Serif" font-size="10.00">m_value</text>
<text text-anchor="start" x="108.5" y="-698" font-family="Helvetica,sans-Serif" font-size="10.00">+</text>
<text text-anchor="start" x="134.5" y="-698" font-family="Helvetica,sans-Serif" font-size="10.00">CheckedPointer()</text>
<text text-anchor="start" x="108.5" y="-683" font-family="Helvetica,sans-Serif" font-size="10.00">+</text>
<text text-anchor="start" x="134.5" y="-683" font-family="Helvetica,sans-Serif" font-size="10.00">CheckedPointer()</text>
<text text-anchor="start" x="108.5" y="-668" font-family="Helvetica,sans-Serif" font-size="10.00">+</text>
<text text-anchor="start" x="134.5" y="-668" font-family="Helvetica,sans-Serif" font-size="10.00">operator bool()</text>
<text text-anchor="start" x="108.5" y="-653" font-family="Helvetica,sans-Serif" font-size="10.00">+</text>
<text text-anchor="start" x="134.5" y="-653" font-family="Helvetica,sans-Serif" font-size="10.00">operator&#45;&gt;()</text>
<text text-anchor="start" x="108.5" y="-638" font-family="Helvetica,sans-Serif" font-size="10.00">+</text>
<text text-anchor="start" x="134.5" y="-638" font-family="Helvetica,sans-Serif" font-size="10.00">operator*()</text>
<text text-anchor="start" x="108.5" y="-623" font-family="Helvetica,sans-Serif" font-size="10.00">+</text>
<text text-anchor="start" x="134.5" y="-623" font-family="Helvetica,sans-Serif" font-size="10.00">get()</text>
<text text-anchor="start" x="108.5" y="-608" font-family="Helvetica,sans-Serif" font-size="10.00">+</text>
<text text-anchor="start" x="134.5" y="-608" font-family="Helvetica,sans-Serif" font-size="10.00">isNull()</text>
<text text-anchor="start" x="108.5" y="-593" font-family="Helvetica,sans-Serif" font-size="10.00">#</text>
<text text-anchor="start" x="134.5" y="-593" font-family="Helvetica,sans-Serif" font-size="10.00">operator=()</text>
<text text-anchor="start" x="108.5" y="-578" font-family="Helvetica,sans-Serif" font-size="10.00">#</text>
<text text-anchor="start" x="134.5" y="-578" font-family="Helvetica,sans-Serif" font-size="10.00">operator=()</text>
<text text-anchor="start" x="108.5" y="-563" font-family="Helvetica,sans-Serif" font-size="10.00">#</text>
<text text-anchor="start" x="134.5" y="-563" font-family="Helvetica,sans-Serif" font-size="10.00">operator=()</text>
<text text-anchor="start" x="108.5" y="-548" font-family="Helvetica,sans-Serif" font-size="10.00">#</text>
<text text-anchor="start" x="134.5" y="-548" font-family="Helvetica,sans-Serif" font-size="10.00">CheckedPointer()</text>
<text text-anchor="start" x="108.5" y="-533" font-family="Helvetica,sans-Serif" font-size="10.00">#</text>
<text text-anchor="start" x="134.5" y="-533" font-family="Helvetica,sans-Serif" font-size="10.00">CheckedPointer()</text>
<polygon fill="#666666" stroke="#666666" points="91.5,-723 91.5,-723 249.5,-723 249.5,-723 91.5,-723"/>
<polygon fill="#666666" stroke="#666666" points="91.5,-708 91.5,-708 132.5,-708 132.5,-708 91.5,-708"/>
<polygon fill="#666666" stroke="#666666" points="132.5,-708 132.5,-708 249.5,-708 249.5,-708 132.5,-708"/>
<polygon fill="none" stroke="#666666" points="91.5,-526 91.5,-740 249.5,-740 249.5,-526 91.5,-526"/>
</a>
</g>
</g>
<!-- Node2 -->
<g id="Node000002" class="node">
<title>Node2</title>
<g id="a_Node000002"><a xlink:href="../../d6/da9/classArcane_1_1ReferenceCounter.html" target="_top" xlink:title=" ">
<polygon fill="white" stroke="transparent" points="154.5,-490 16.5,-490 16.5,-115 154.5,-115 154.5,-490"/>
<text text-anchor="start" x="21.5" y="-477.5" font-family="Helvetica,sans-Serif" font-size="10.00">Arcane::ReferenceCounter</text>
<text text-anchor="start" x="27.5" y="-466.5" font-family="Helvetica,sans-Serif" font-size="10.00">&lt; IModuleFactoryInfo &gt;</text>
<text text-anchor="start" x="23.5" y="-451.5" font-family="Helvetica,sans-Serif" font-size="10.00">+</text>
<text text-anchor="start" x="39.5" y="-451.5" font-family="Helvetica,sans-Serif" font-size="10.00">m_value</text>
<text text-anchor="start" x="23.5" y="-436.5" font-family="Helvetica,sans-Serif" font-size="10.00">+</text>
<text text-anchor="start" x="39.5" y="-436.5" font-family="Helvetica,sans-Serif" font-size="10.00">m_value</text>
<text text-anchor="start" x="23.5" y="-421.5" font-family="Helvetica,sans-Serif" font-size="10.00">+</text>
<text text-anchor="start" x="39.5" y="-421.5" font-family="Helvetica,sans-Serif" font-size="10.00">m_value</text>
<text text-anchor="start" x="23.5" y="-406.5" font-family="Helvetica,sans-Serif" font-size="10.00">+</text>
<text text-anchor="start" x="39.5" y="-406.5" font-family="Helvetica,sans-Serif" font-size="10.00">m_value</text>
<text text-anchor="start" x="23.5" y="-391.5" font-family="Helvetica,sans-Serif" font-size="10.00">+</text>
<text text-anchor="start" x="39.5" y="-391.5" font-family="Helvetica,sans-Serif" font-size="10.00">ReferenceCounter()</text>
<text text-anchor="start" x="23.5" y="-376.5" font-family="Helvetica,sans-Serif" font-size="10.00">+</text>
<text text-anchor="start" x="39.5" y="-376.5" font-family="Helvetica,sans-Serif" font-size="10.00">ReferenceCounter()</text>
<text text-anchor="start" x="23.5" y="-361.5" font-family="Helvetica,sans-Serif" font-size="10.00">+</text>
<text text-anchor="start" x="39.5" y="-361.5" font-family="Helvetica,sans-Serif" font-size="10.00">ReferenceCounter()</text>
<text text-anchor="start" x="23.5" y="-346.5" font-family="Helvetica,sans-Serif" font-size="10.00">+</text>
<text text-anchor="start" x="39.5" y="-346.5" font-family="Helvetica,sans-Serif" font-size="10.00">operator=()</text>
<text text-anchor="start" x="23.5" y="-331.5" font-family="Helvetica,sans-Serif" font-size="10.00">+</text>
<text text-anchor="start" x="39.5" y="-331.5" font-family="Helvetica,sans-Serif" font-size="10.00">operator=()</text>
<text text-anchor="start" x="23.5" y="-316.5" font-family="Helvetica,sans-Serif" font-size="10.00">+</text>
<text text-anchor="start" x="39.5" y="-316.5" font-family="Helvetica,sans-Serif" font-size="10.00">~ReferenceCounter()</text>
<text text-anchor="start" x="23.5" y="-301.5" font-family="Helvetica,sans-Serif" font-size="10.00">+</text>
<text text-anchor="start" x="39.5" y="-301.5" font-family="Helvetica,sans-Serif" font-size="10.00">ReferenceCounter()</text>
<text text-anchor="start" x="23.5" y="-286.5" font-family="Helvetica,sans-Serif" font-size="10.00">+</text>
<text text-anchor="start" x="39.5" y="-286.5" font-family="Helvetica,sans-Serif" font-size="10.00">ReferenceCounter()</text>
<text text-anchor="start" x="23.5" y="-271.5" font-family="Helvetica,sans-Serif" font-size="10.00">+</text>
<text text-anchor="start" x="39.5" y="-271.5" font-family="Helvetica,sans-Serif" font-size="10.00">ReferenceCounter()</text>
<text text-anchor="start" x="23.5" y="-256.5" font-family="Helvetica,sans-Serif" font-size="10.00">+</text>
<text text-anchor="start" x="39.5" y="-256.5" font-family="Helvetica,sans-Serif" font-size="10.00">operator=()</text>
<text text-anchor="start" x="39.5" y="-241.5" font-family="Helvetica,sans-Serif" font-size="10.00">et 14 de plus...</text>
<text text-anchor="start" x="26" y="-226.5" font-family="Helvetica,sans-Serif" font-size="10.00">&#45;</text>
<text text-anchor="start" x="39.5" y="-226.5" font-family="Helvetica,sans-Serif" font-size="10.00">_removeRef()</text>
<text text-anchor="start" x="26" y="-211.5" font-family="Helvetica,sans-Serif" font-size="10.00">&#45;</text>
<text text-anchor="start" x="39.5" y="-211.5" font-family="Helvetica,sans-Serif" font-size="10.00">_changeValue()</text>
<text text-anchor="start" x="26" y="-196.5" font-family="Helvetica,sans-Serif" font-size="10.00">&#45;</text>
<text text-anchor="start" x="39.5" y="-196.5" font-family="Helvetica,sans-Serif" font-size="10.00">_removeRef()</text>
<text text-anchor="start" x="26" y="-181.5" font-family="Helvetica,sans-Serif" font-size="10.00">&#45;</text>
<text text-anchor="start" x="39.5" y="-181.5" font-family="Helvetica,sans-Serif" font-size="10.00">_changeValue()</text>
<text text-anchor="start" x="26" y="-166.5" font-family="Helvetica,sans-Serif" font-size="10.00">&#45;</text>
<text text-anchor="start" x="39.5" y="-166.5" font-family="Helvetica,sans-Serif" font-size="10.00">_removeRef()</text>
<text text-anchor="start" x="26" y="-151.5" font-family="Helvetica,sans-Serif" font-size="10.00">&#45;</text>
<text text-anchor="start" x="39.5" y="-151.5" font-family="Helvetica,sans-Serif" font-size="10.00">_changeValue()</text>
<text text-anchor="start" x="26" y="-136.5" font-family="Helvetica,sans-Serif" font-size="10.00">&#45;</text>
<text text-anchor="start" x="39.5" y="-136.5" font-family="Helvetica,sans-Serif" font-size="10.00">_removeRef()</text>
<text text-anchor="start" x="26" y="-121.5" font-family="Helvetica,sans-Serif" font-size="10.00">&#45;</text>
<text text-anchor="start" x="39.5" y="-121.5" font-family="Helvetica,sans-Serif" font-size="10.00">_changeValue()</text>
<polygon fill="#666666" stroke="#666666" points="16.5,-461.5 16.5,-461.5 154.5,-461.5 154.5,-461.5 16.5,-461.5"/>
<polygon fill="#666666" stroke="#666666" points="16.5,-401.5 16.5,-401.5 37.5,-401.5 37.5,-401.5 16.5,-401.5"/>
<polygon fill="#666666" stroke="#666666" points="37.5,-401.5 37.5,-401.5 154.5,-401.5 154.5,-401.5 37.5,-401.5"/>
<polygon fill="none" stroke="#666666" points="16.5,-115 16.5,-490 154.5,-490 154.5,-115 16.5,-115"/>
</a>
</g>
</g>
<!-- Node1&#45;&gt;Node2 -->
<g id="edge1_Node000001_Node000002" class="edge">
<title>Node1&#45;&gt;Node2</title>
<g id="a_edge1_Node000001_Node000002"><a xlink:title=" ">
<path fill="none" stroke="#63b8ff" d="M140.48,-515.97C138.29,-507.53 136.06,-498.89 133.8,-490.17"/>
<polygon fill="none" stroke="#63b8ff" points="137.13,-516.99 143.02,-525.8 143.9,-515.24 137.13,-516.99"/>
</a>
</g>
</g>
<!-- Node4 -->
<g id="Node000004" class="node">
<title>Node4</title>
<g id="a_Node000004"><a xlink:href="../../d6/da9/classArcane_1_1ReferenceCounter.html" target="_top" xlink:title="Encapsulation d&#39;un pointeur avec compteur de référence.">
<polygon fill="white" stroke="transparent" points="340,-379.5 173,-379.5 173,-225.5 340,-225.5 340,-379.5"/>
<text text-anchor="start" x="178.5" y="-367.5" font-family="Helvetica,sans-Serif" font-size="10.00">Arcane::ReferenceCounter&lt; T &gt;</text>
<text text-anchor="start" x="188" y="-352.5" font-family="Helvetica,sans-Serif" font-size="10.00">+</text>
<text text-anchor="start" x="211.5" y="-352.5" font-family="Helvetica,sans-Serif" font-size="10.00">m_value</text>
<text text-anchor="start" x="188" y="-337.5" font-family="Helvetica,sans-Serif" font-size="10.00">+</text>
<text text-anchor="start" x="211.5" y="-337.5" font-family="Helvetica,sans-Serif" font-size="10.00">ReferenceCounter()</text>
<text text-anchor="start" x="188" y="-322.5" font-family="Helvetica,sans-Serif" font-size="10.00">+</text>
<text text-anchor="start" x="211.5" y="-322.5" font-family="Helvetica,sans-Serif" font-size="10.00">ReferenceCounter()</text>
<text text-anchor="start" x="188" y="-307.5" font-family="Helvetica,sans-Serif" font-size="10.00">+</text>
<text text-anchor="start" x="211.5" y="-307.5" font-family="Helvetica,sans-Serif" font-size="10.00">ReferenceCounter()</text>
<text text-anchor="start" x="188" y="-292.5" font-family="Helvetica,sans-Serif" font-size="10.00">+</text>
<text text-anchor="start" x="211.5" y="-292.5" font-family="Helvetica,sans-Serif" font-size="10.00">operator=()</text>
<text text-anchor="start" x="188" y="-277.5" font-family="Helvetica,sans-Serif" font-size="10.00">+</text>
<text text-anchor="start" x="211.5" y="-277.5" font-family="Helvetica,sans-Serif" font-size="10.00">operator=()</text>
<text text-anchor="start" x="188" y="-262.5" font-family="Helvetica,sans-Serif" font-size="10.00">+</text>
<text text-anchor="start" x="211.5" y="-262.5" font-family="Helvetica,sans-Serif" font-size="10.00">~ReferenceCounter()</text>
<text text-anchor="start" x="190.5" y="-247.5" font-family="Helvetica,sans-Serif" font-size="10.00">&#45;</text>
<text text-anchor="start" x="211.5" y="-247.5" font-family="Helvetica,sans-Serif" font-size="10.00">_removeRef()</text>
<text text-anchor="start" x="190.5" y="-232.5" font-family="Helvetica,sans-Serif" font-size="10.00">&#45;</text>
<text text-anchor="start" x="211.5" y="-232.5" font-family="Helvetica,sans-Serif" font-size="10.00">_changeValue()</text>
<polygon fill="#666666" stroke="#666666" points="173.5,-362.5 173.5,-362.5 340.5,-362.5 340.5,-362.5 173.5,-362.5"/>
<polygon fill="#666666" stroke="#666666" points="173.5,-347.5 173.5,-347.5 209.5,-347.5 209.5,-347.5 173.5,-347.5"/>
<polygon fill="#666666" stroke="#666666" points="209.5,-347.5 209.5,-347.5 340.5,-347.5 340.5,-347.5 209.5,-347.5"/>
<polygon fill="none" stroke="#666666" points="173,-225.5 173,-379.5 340,-379.5 340,-225.5 173,-225.5"/>
</a>
</g>
</g>
<!-- Node1&#45;&gt;Node4 -->
<g id="edge3_Node000001_Node000004" class="edge">
<title>Node1&#45;&gt;Node4</title>
<g id="a_edge3_Node000001_Node000004"><a xlink:title=" ">
<path fill="none" stroke="#63b8ff" d="M200.89,-515.94C212.73,-470.71 225.97,-420.14 236.56,-379.68"/>
<polygon fill="none" stroke="#63b8ff" points="197.45,-515.24 198.3,-525.8 204.22,-517.01 197.45,-515.24"/>
</a>
</g>
</g>
<!-- Node3 -->
<g id="Node000003" class="node">
<title>Node3</title>
<g id="a_Node000003"><a xlink:href="../../d4/d33/classArcane_1_1ModuleFactoryReference.html" target="_top" xlink:title="Compteur de référence sur une fabrique de module.">
<polygon fill="white" stroke="transparent" points="171,-79 0,-79 0,0 171,0 171,-79"/>
<text text-anchor="start" x="5.5" y="-66.5" font-family="Helvetica,sans-Serif" font-size="10.00">Arcane::ModuleFactoryReference</text>
<text text-anchor="start" x="84" y="-51.5" font-family="Helvetica,sans-Serif" font-size="10.00"> </text>
<text text-anchor="start" x="9.5" y="-36.5" font-family="Helvetica,sans-Serif" font-size="10.00">+</text>
<text text-anchor="start" x="27.5" y="-36.5" font-family="Helvetica,sans-Serif" font-size="10.00">ModuleFactoryReference()</text>
<text text-anchor="start" x="9.5" y="-21.5" font-family="Helvetica,sans-Serif" font-size="10.00">+</text>
<text text-anchor="start" x="27.5" y="-21.5" font-family="Helvetica,sans-Serif" font-size="10.00">ModuleFactoryReference()</text>
<text text-anchor="start" x="9.5" y="-6.5" font-family="Helvetica,sans-Serif" font-size="10.00">+</text>
<text text-anchor="start" x="27.5" y="-6.5" font-family="Helvetica,sans-Serif" font-size="10.00">factory()</text>
<polygon fill="#666666" stroke="#666666" points="0.5,-61.5 0.5,-61.5 171.5,-61.5 171.5,-61.5 0.5,-61.5"/>
<polygon fill="#666666" stroke="#666666" points="0.5,-46.5 0.5,-46.5 171.5,-46.5 171.5,-46.5 0.5,-46.5"/>
<polygon fill="none" stroke="#666666" points="0,0 0,-79 171,-79 171,0 0,0"/>
</a>
</g>
</g>
<!-- Node2&#45;&gt;Node3 -->
<g id="edge2_Node000002_Node000003" class="edge">
<title>Node2&#45;&gt;Node3</title>
<g id="a_edge2_Node000002_Node000003"><a xlink:title=" ">
<path fill="none" stroke="#8b1a1a" d="M85.5,-104.69C85.5,-95.45 85.5,-86.82 85.5,-79.06"/>
<polygon fill="none" stroke="#8b1a1a" points="82,-104.94 85.5,-114.94 89,-104.94 82,-104.94"/>
</a>
</g>
</g>
</g>
</svg>
