<?xml version="1.0" encoding="UTF-8" standalone="no"?>
<!DOCTYPE svg PUBLIC "-//W3C//DTD SVG 1.1//EN"
 "http://www.w3.org/Graphics/SVG/1.1/DTD/svg11.dtd">
<!-- Generated by graphviz version 2.43.0 (0)
 -->
<!-- Title: Arcane::ItemVariableArrayRefT::operator= Pages: 1 -->
<svg width="835pt" height="128pt"
 viewBox="0.00 0.00 835.00 128.00" xmlns="http://www.w3.org/2000/svg" xmlns:xlink="http://www.w3.org/1999/xlink">
<g id="graph0" class="graph" transform="scale(1 1) rotate(0) translate(4 124)">
<title>Arcane::ItemVariableArrayRefT::operator=</title>
<!-- Node1 -->
<g id="Node000001" class="node">
<title>Node1</title>
<g id="a_Node000001"><a xlink:title="Positionne la référence de l&#39;instance à la variable rhs.">
<polygon fill="#999999" stroke="#666666" points="145,-87 0,-87 0,-57 145,-57 145,-87"/>
<text text-anchor="start" x="8" y="-75" font-family="Helvetica,sans-Serif" font-size="10.00">Arcane::ItemVariableArray</text>
<text text-anchor="middle" x="72.5" y="-64" font-family="Helvetica,sans-Serif" font-size="10.00">RefT::operator=</text>
</a>
</g>
</g>
<!-- Node2 -->
<g id="Node000002" class="node">
<title>Node2</title>
<g id="a_Node000002"><a xlink:href="../../d2/dbb/classArcane_1_1ItemVariableArrayRefT.html#a7cdc651595d5aacefb09200a85a42321" target="_top" xlink:title="Construit une référence à la variable spécifiée dans vb.">
<polygon fill="white" stroke="#666666" points="358,-120 203,-120 203,-90 358,-90 358,-120"/>
<text text-anchor="start" x="211" y="-108" font-family="Helvetica,sans-Serif" font-size="10.00">Arcane::ItemVariableArray</text>
<text text-anchor="middle" x="280.5" y="-97" font-family="Helvetica,sans-Serif" font-size="10.00">RefT::ItemVariableArrayRefT</text>
</a>
</g>
</g>
<!-- Node1&#45;&gt;Node2 -->
<g id="edge1_Node000001_Node000002" class="edge">
<title>Node1&#45;&gt;Node2</title>
<g id="a_edge1_Node000001_Node000002"><a xlink:title=" ">
<path fill="none" stroke="#63b8ff" d="M145.26,-83.5C160.5,-85.94 176.75,-88.54 192.49,-91.06"/>
<polygon fill="#63b8ff" stroke="#63b8ff" points="192.31,-94.58 202.74,-92.7 193.42,-87.67 192.31,-94.58"/>
</a>
</g>
</g>
<!-- Node3 -->
<g id="Node000003" class="node">
<title>Node3</title>
<g id="a_Node000003"><a xlink:href="../../d4/ddf/classArcane_1_1PrivateVariableArrayT.html#a627531cea8d083391081af6c12603395" target="_top" xlink:title=" ">
<polygon fill="white" stroke="#666666" points="380,-54 181,-54 181,-24 380,-24 380,-54"/>
<text text-anchor="start" x="189" y="-42" font-family="Helvetica,sans-Serif" font-size="10.00">Arcane::PrivateVariableArray</text>
<text text-anchor="middle" x="280.5" y="-31" font-family="Helvetica,sans-Serif" font-size="10.00">T&lt; DataTypeT &gt;::updateFromInternal</text>
</a>
</g>
</g>
<!-- Node1&#45;&gt;Node3 -->
<g id="edge2_Node000001_Node000003" class="edge">
<title>Node1&#45;&gt;Node3</title>
<g id="a_edge2_Node000001_Node000003"><a xlink:title=" ">
<path fill="none" stroke="#63b8ff" d="M145.26,-60.5C155.01,-58.94 165.18,-57.31 175.36,-55.68"/>
<polygon fill="#63b8ff" stroke="#63b8ff" points="176.21,-59.09 185.53,-54.05 175.11,-52.18 176.21,-59.09"/>
</a>
</g>
</g>
<!-- Node3&#45;&gt;Node3 -->
<g id="edge7_Node000003_Node000003" class="edge">
<title>Node3&#45;&gt;Node3</title>
<g id="a_edge7_Node000003_Node000003"><a xlink:title=" ">
<path fill="none" stroke="#63b8ff" d="M246.75,-54.28C239.25,-63.41 250.5,-72 280.5,-72 298.31,-72 309.51,-68.97 314.11,-64.6"/>
<polygon fill="#63b8ff" stroke="#63b8ff" points="317.61,-64.32 314.25,-54.28 310.61,-64.23 317.61,-64.32"/>
</a>
</g>
</g>
<!-- Node4 -->
<g id="Node000004" class="node">
<title>Node4</title>
<g id="a_Node000004"><a xlink:href="../../d6/d00/classArcane_1_1VariableRef.html#a1e21fcd4d593572c541ab7c45c51ab5d" target="_top" xlink:title="Opérateur de recopie.">
<polygon fill="white" stroke="#666666" points="529,-54 416,-54 416,-24 529,-24 529,-54"/>
<text text-anchor="start" x="424" y="-42" font-family="Helvetica,sans-Serif" font-size="10.00">Arcane::VariableRef</text>
<text text-anchor="middle" x="472.5" y="-31" font-family="Helvetica,sans-Serif" font-size="10.00">::operator=</text>
</a>
</g>
</g>
<!-- Node3&#45;&gt;Node4 -->
<g id="edge3_Node000003_Node000004" class="edge">
<title>Node3&#45;&gt;Node4</title>
<g id="a_edge3_Node000003_Node000004"><a xlink:title=" ">
<path fill="none" stroke="#63b8ff" d="M380.12,-39C388.85,-39 397.55,-39 405.91,-39"/>
<polygon fill="#63b8ff" stroke="#63b8ff" points="405.92,-42.5 415.92,-39 405.92,-35.5 405.92,-42.5"/>
</a>
</g>
</g>
<!-- Node5 -->
<g id="Node000005" class="node">
<title>Node5</title>
<g id="a_Node000005"><a xlink:href="../../d6/d00/classArcane_1_1VariableRef.html#a179379f86e9b55c7edfada6a4b808c0f" target="_top" xlink:title="Construit une référence sur une variable avec les infos vbi.">
<polygon fill="white" stroke="#666666" points="678,-54 565,-54 565,-24 678,-24 678,-54"/>
<text text-anchor="start" x="573" y="-42" font-family="Helvetica,sans-Serif" font-size="10.00">Arcane::VariableRef</text>
<text text-anchor="middle" x="621.5" y="-31" font-family="Helvetica,sans-Serif" font-size="10.00">::VariableRef</text>
</a>
</g>
</g>
<!-- Node4&#45;&gt;Node5 -->
<g id="edge4_Node000004_Node000005" class="edge">
<title>Node4&#45;&gt;Node5</title>
<g id="a_edge4_Node000004_Node000005"><a xlink:title=" ">
<path fill="none" stroke="#63b8ff" d="M529.07,-39C537.49,-39 546.24,-39 554.84,-39"/>
<polygon fill="#63b8ff" stroke="#63b8ff" points="554.85,-42.5 564.85,-39 554.85,-35.5 554.85,-42.5"/>
</a>
</g>
</g>
<!-- Node6 -->
<g id="Node000006" class="node">
<title>Node6</title>
<g id="a_Node000006"><a xlink:href="../../d6/d00/classArcane_1_1VariableRef.html#a5b325093f623057b11749671e63c089b" target="_top" xlink:title="Module associé à la variable (ou nullptr, s&#39;il n&#39;y en a pas)">
<polygon fill="white" stroke="#666666" points="827,-78 714,-78 714,-48 827,-48 827,-78"/>
<text text-anchor="start" x="722" y="-66" font-family="Helvetica,sans-Serif" font-size="10.00">Arcane::VariableRef</text>
<text text-anchor="middle" x="770.5" y="-55" font-family="Helvetica,sans-Serif" font-size="10.00">::module</text>
</a>
</g>
</g>
<!-- Node5&#45;&gt;Node6 -->
<g id="edge5_Node000005_Node000006" class="edge">
<title>Node5&#45;&gt;Node6</title>
<g id="a_edge5_Node000005_Node000006"><a xlink:title=" ">
<path fill="none" stroke="#63b8ff" d="M678.07,-48.07C686.49,-49.45 695.24,-50.88 703.84,-52.28"/>
<polygon fill="#63b8ff" stroke="#63b8ff" points="703.41,-55.76 713.85,-53.91 704.54,-48.85 703.41,-55.76"/>
</a>
</g>
</g>
<!-- Node7 -->
<g id="Node000007" class="node">
<title>Node7</title>
<g id="a_Node000007"><a xlink:href="../../d6/d00/classArcane_1_1VariableRef.html#a3f47755100683194ef1a04ba56752693" target="_top" xlink:title="Propriétés de la variable.">
<polygon fill="white" stroke="#666666" points="827,-30 714,-30 714,0 827,0 827,-30"/>
<text text-anchor="start" x="722" y="-18" font-family="Helvetica,sans-Serif" font-size="10.00">Arcane::VariableRef</text>
<text text-anchor="middle" x="770.5" y="-7" font-family="Helvetica,sans-Serif" font-size="10.00">::property</text>
</a>
</g>
</g>
<!-- Node5&#45;&gt;Node7 -->
<g id="edge6_Node000005_Node000007" class="edge">
<title>Node5&#45;&gt;Node7</title>
<g id="a_edge6_Node000005_Node000007"><a xlink:title=" ">
<path fill="none" stroke="#63b8ff" d="M678.07,-29.93C686.49,-28.55 695.24,-27.12 703.84,-25.72"/>
<polygon fill="#63b8ff" stroke="#63b8ff" points="704.54,-29.15 713.85,-24.09 703.41,-22.24 704.54,-29.15"/>
</a>
</g>
</g>
</g>
</svg>
