<?xml version="1.0" encoding="UTF-8" standalone="no"?>
<!DOCTYPE svg PUBLIC "-//W3C//DTD SVG 1.1//EN"
 "http://www.w3.org/Graphics/SVG/1.1/DTD/svg11.dtd">
<!-- Generated by graphviz version 14.1.2 (0)
 -->
<!-- Title: Arcane::Materials::IMeshMaterialMng::name Pages: 1 -->
<svg width="394pt" height="274pt"
 viewBox="0.00 0.00 394.00 274.00" xmlns="http://www.w3.org/2000/svg" xmlns:xlink="http://www.w3.org/1999/xlink">
<g id="graph0" class="graph" transform="scale(1 1) rotate(0) translate(4 269.88)">
<title>Arcane::Materials::IMeshMaterialMng::name</title>
<!-- Node1 -->
<g id="Node000001" class="node">
<title>Node1</title>
<g id="a_Node000001"><a xlink:title="Nom du gestionnaire.">
<polygon fill="#999999" stroke="#666666" points="386,-161.88 245.5,-161.88 245.5,-128.38 386,-128.38 386,-161.88"/>
<text xml:space="preserve" text-anchor="start" x="253.5" y="-148.38" font-family="Helvetica,sans-Serif" font-size="10.00">Arcane::Materials::</text>
<text xml:space="preserve" text-anchor="middle" x="315.75" y="-135.62" font-family="Helvetica,sans-Serif" font-size="10.00">IMeshMaterialMng::name</text>
</a>
</g>
</g>
<!-- Node2 -->
<g id="Node000002" class="node">
<title>Node2</title>
<g id="a_Node000002"><a xlink:href="../../d5/df0/classArcane_1_1Materials_1_1IMeshMaterialMng.html#aa7bb0b22a5459d83dcf9562185a10cba" target="_top" xlink:title="Retourne le bloc de nom name.">
<polygon fill="white" stroke="#666666" points="183.62,-265.88 25.88,-265.88 25.88,-232.38 183.62,-232.38 183.62,-265.88"/>
<text xml:space="preserve" text-anchor="start" x="33.88" y="-252.38" font-family="Helvetica,sans-Serif" font-size="10.00">Arcane::Materials::</text>
<text xml:space="preserve" text-anchor="middle" x="104.75" y="-239.62" font-family="Helvetica,sans-Serif" font-size="10.00">IMeshMaterialMng::findBlock</text>
</a>
</g>
</g>
<!-- Node1&#45;&gt;Node2 -->
<g id="edge1_Node000001_Node000002" class="edge">
<title>Node1&#45;&gt;Node2</title>
<g id="a_edge1_Node000001_Node000002"><a xlink:title=" ">
<path fill="none" stroke="#63b8ff" d="M287.82,-169.78C267.62,-187.04 238.56,-209.38 209.5,-223.12 201.44,-226.93 192.76,-230.23 183.97,-233.07"/>
<polygon fill="#63b8ff" stroke="#63b8ff" points="290.06,-172.46 295.3,-163.25 285.46,-167.18 290.06,-172.46"/>
</a>
</g>
</g>
<!-- Node3 -->
<g id="Node000003" class="node">
<title>Node3</title>
<g id="a_Node000003"><a xlink:href="../../d5/df0/classArcane_1_1Materials_1_1IMeshMaterialMng.html#a7d8f2f22aa39cfd4af160b7f6cb37eb7" target="_top" xlink:title="Retourne le milieux de nom name.">
<polygon fill="white" stroke="#666666" points="201.25,-213.88 8.25,-213.88 8.25,-180.38 201.25,-180.38 201.25,-213.88"/>
<text xml:space="preserve" text-anchor="start" x="16.25" y="-200.38" font-family="Helvetica,sans-Serif" font-size="10.00">Arcane::Materials::</text>
<text xml:space="preserve" text-anchor="middle" x="104.75" y="-187.62" font-family="Helvetica,sans-Serif" font-size="10.00">IMeshMaterialMng::findEnvironment</text>
</a>
</g>
</g>
<!-- Node1&#45;&gt;Node3 -->
<g id="edge2_Node000001_Node000003" class="edge">
<title>Node1&#45;&gt;Node3</title>
<g id="a_edge2_Node000001_Node000003"><a xlink:title=" ">
<path fill="none" stroke="#63b8ff" d="M234.37,-165.12C214.74,-170.01 193.92,-175.19 174.87,-179.93"/>
<polygon fill="#63b8ff" stroke="#63b8ff" points="235.12,-168.54 243.98,-162.73 233.43,-161.75 235.12,-168.54"/>
</a>
</g>
</g>
<!-- Node4 -->
<g id="Node000004" class="node">
<title>Node4</title>
<g id="a_Node000004"><a xlink:href="../../d5/df0/classArcane_1_1Materials_1_1IMeshMaterialMng.html#a385fce400e841d6e11c4f9ae98254d63" target="_top" xlink:title="Variable de nom name ou nullptr si aucune de ce nom existe.">
<polygon fill="white" stroke="#666666" points="190,-161.88 19.5,-161.88 19.5,-128.38 190,-128.38 190,-161.88"/>
<text xml:space="preserve" text-anchor="start" x="27.5" y="-148.38" font-family="Helvetica,sans-Serif" font-size="10.00">Arcane::Materials::</text>
<text xml:space="preserve" text-anchor="middle" x="104.75" y="-135.62" font-family="Helvetica,sans-Serif" font-size="10.00">IMeshMaterialMng::findVariable</text>
</a>
</g>
</g>
<!-- Node1&#45;&gt;Node4 -->
<g id="edge3_Node000001_Node000004" class="edge">
<title>Node1&#45;&gt;Node4</title>
<g id="a_edge3_Node000001_Node000004"><a xlink:title=" ">
<path fill="none" stroke="#63b8ff" d="M233.86,-145.12C219.58,-145.12 204.68,-145.12 190.3,-145.12"/>
<polygon fill="#63b8ff" stroke="#63b8ff" points="233.64,-148.63 243.64,-145.13 233.64,-141.63 233.64,-148.63"/>
</a>
</g>
</g>
<!-- Node5 -->
<g id="Node000005" class="node">
<title>Node5</title>
<g id="a_Node000005"><a xlink:href="../../d5/df0/classArcane_1_1Materials_1_1IMeshMaterialMng.html#a03847f1edc662ed2e63de0efdc20ae42" target="_top" xlink:title="Enregistre les infos du matériau de nom name.">
<polygon fill="white" stroke="#666666" points="179.88,-110.25 29.62,-110.25 29.62,-64 179.88,-64 179.88,-110.25"/>
<text xml:space="preserve" text-anchor="start" x="37.62" y="-96.75" font-family="Helvetica,sans-Serif" font-size="10.00">Arcane::Materials::</text>
<text xml:space="preserve" text-anchor="start" x="37.62" y="-84" font-family="Helvetica,sans-Serif" font-size="10.00">IMeshMaterialMng::register</text>
<text xml:space="preserve" text-anchor="middle" x="104.75" y="-71.25" font-family="Helvetica,sans-Serif" font-size="10.00">MaterialInfo</text>
</a>
</g>
</g>
<!-- Node1&#45;&gt;Node5 -->
<g id="edge4_Node000001_Node000005" class="edge">
<title>Node1&#45;&gt;Node5</title>
<g id="a_edge4_Node000001_Node000005"><a xlink:title=" ">
<path fill="none" stroke="#63b8ff" d="M241.73,-124.86C221.81,-119.33 200.2,-113.34 180.2,-107.78"/>
<polygon fill="#63b8ff" stroke="#63b8ff" points="240.58,-128.17 251.15,-127.48 242.45,-121.43 240.58,-128.17"/>
</a>
</g>
</g>
<!-- Node6 -->
<g id="Node000006" class="node">
<title>Node6</title>
<g id="a_Node000006"><a xlink:href="../../d5/df0/classArcane_1_1Materials_1_1IMeshMaterialMng.html#a42b2e767bb06c78636c99158b4e64847" target="_top" xlink:title=" ">
<polygon fill="white" stroke="#666666" points="209.5,-46.25 0,-46.25 0,0 209.5,0 209.5,-46.25"/>
<text xml:space="preserve" text-anchor="start" x="8" y="-32.75" font-family="Helvetica,sans-Serif" font-size="10.00">Arcane::Materials::</text>
<text xml:space="preserve" text-anchor="start" x="8" y="-20" font-family="Helvetica,sans-Serif" font-size="10.00">IMeshMaterialMng::setDataCompressor</text>
<text xml:space="preserve" text-anchor="middle" x="104.75" y="-7.25" font-family="Helvetica,sans-Serif" font-size="10.00">ServiceName</text>
</a>
</g>
</g>
<!-- Node1&#45;&gt;Node6 -->
<g id="edge5_Node000001_Node000006" class="edge">
<title>Node1&#45;&gt;Node6</title>
<g id="a_edge5_Node000001_Node000006"><a xlink:title=" ">
<path fill="none" stroke="#63b8ff" d="M291.3,-120.05C271.28,-99.96 240.83,-72.37 209.5,-55.12 203.97,-52.08 198.11,-49.28 192.1,-46.72"/>
<polygon fill="#63b8ff" stroke="#63b8ff" points="288.67,-122.36 298.16,-127.07 293.68,-117.47 288.67,-122.36"/>
</a>
</g>
</g>
</g>
</svg>
