<?xml version="1.0" encoding="UTF-8" standalone="no"?>
<!DOCTYPE svg PUBLIC "-//W3C//DTD SVG 1.1//EN"
 "http://www.w3.org/Graphics/SVG/1.1/DTD/svg11.dtd">
<!-- Generated by graphviz version 2.43.0 (0)
 -->
<!-- Title: Arcane::Materials::IMeshMaterialMng::getReference Pages: 1 -->
<svg width="575pt" height="86pt"
 viewBox="0.00 0.00 575.00 86.00" xmlns="http://www.w3.org/2000/svg" xmlns:xlink="http://www.w3.org/1999/xlink">
<g id="graph0" class="graph" transform="scale(1 1) rotate(0) translate(4 82)">
<title>Arcane::Materials::IMeshMaterialMng::getReference</title>
<!-- Node1 -->
<g id="Node000001" class="node">
<title>Node1</title>
<g id="a_Node000001"><a xlink:title="Récupère ou créé la référence associée à mesh.">
<polygon fill="#999999" stroke="#666666" points="179,-54 0,-54 0,-24 179,-24 179,-54"/>
<text text-anchor="start" x="8" y="-42" font-family="Helvetica,sans-Serif" font-size="10.00">Arcane::Materials::</text>
<text text-anchor="middle" x="89.5" y="-31" font-family="Helvetica,sans-Serif" font-size="10.00">IMeshMaterialMng::getReference</text>
</a>
</g>
</g>
<!-- Node2 -->
<g id="Node000002" class="node">
<title>Node2</title>
<g id="a_Node000002"><a xlink:href="../../d5/df0/classArcane_1_1Materials_1_1IMeshMaterialMng.html#a727d8c3f541da759ace1d65acd374cb5" target="_top" xlink:title="Récupère ou créé la référence associée à mesh.">
<polygon fill="white" stroke="#666666" points="414,-78 215,-78 215,-48 414,-48 414,-78"/>
<text text-anchor="start" x="223" y="-66" font-family="Helvetica,sans-Serif" font-size="10.00">Arcane::Materials::</text>
<text text-anchor="middle" x="314.5" y="-55" font-family="Helvetica,sans-Serif" font-size="10.00">IMeshMaterialMng::getTrueReference</text>
</a>
</g>
</g>
<!-- Node1&#45;&gt;Node2 -->
<g id="edge1_Node000001_Node000002" class="edge">
<title>Node1&#45;&gt;Node2</title>
<g id="a_edge1_Node000001_Node000002"><a xlink:title=" ">
<path fill="none" stroke="#63b8ff" d="M179.28,-48.55C187.66,-49.46 196.22,-50.38 204.75,-51.3"/>
<polygon fill="#63b8ff" stroke="#63b8ff" points="204.44,-54.78 214.76,-52.37 205.19,-47.82 204.44,-54.78"/>
</a>
</g>
</g>
<!-- Node4 -->
<g id="Node000004" class="node">
<title>Node4</title>
<g id="a_Node000004"><a xlink:href="../../de/d0d/classArcane_1_1MeshHandleOrMesh.html#ac9c927add40576ed42eb2b33b1cfdedf" target="_top" xlink:title="handle associé.">
<polygon fill="white" stroke="#666666" points="392,-30 237,-30 237,0 392,0 392,-30"/>
<text text-anchor="start" x="245" y="-18" font-family="Helvetica,sans-Serif" font-size="10.00">Arcane::MeshHandleOrMesh</text>
<text text-anchor="middle" x="314.5" y="-7" font-family="Helvetica,sans-Serif" font-size="10.00">::handle</text>
</a>
</g>
</g>
<!-- Node1&#45;&gt;Node4 -->
<g id="edge3_Node000001_Node000004" class="edge">
<title>Node1&#45;&gt;Node4</title>
<g id="a_edge3_Node000001_Node000004"><a xlink:title=" ">
<path fill="none" stroke="#63b8ff" d="M179.28,-29.45C194.92,-27.76 211.18,-26.01 226.77,-24.33"/>
<polygon fill="#63b8ff" stroke="#63b8ff" points="227.33,-27.79 236.9,-23.24 226.58,-20.83 227.33,-27.79"/>
</a>
</g>
</g>
<!-- Node3 -->
<g id="Node000003" class="node">
<title>Node3</title>
<g id="a_Node000003"><a xlink:href="../../d7/d6f/classArcane_1_1MeshHandle.html#a720e331e77e128352fc19c2367269cb7" target="_top" xlink:title="Indique si le handle est nul (il ne référence aucun maillage existant ou non)">
<polygon fill="white" stroke="#666666" points="567,-78 450,-78 450,-48 567,-48 567,-78"/>
<text text-anchor="start" x="458" y="-66" font-family="Helvetica,sans-Serif" font-size="10.00">Arcane::MeshHandle</text>
<text text-anchor="middle" x="508.5" y="-55" font-family="Helvetica,sans-Serif" font-size="10.00">::isNull</text>
</a>
</g>
</g>
<!-- Node2&#45;&gt;Node3 -->
<g id="edge2_Node000002_Node000003" class="edge">
<title>Node2&#45;&gt;Node3</title>
<g id="a_edge2_Node000002_Node000003"><a xlink:title=" ">
<path fill="none" stroke="#63b8ff" d="M414.03,-63C422.74,-63 431.42,-63 439.78,-63"/>
<polygon fill="#63b8ff" stroke="#63b8ff" points="439.81,-66.5 449.81,-63 439.81,-59.5 439.81,-66.5"/>
</a>
</g>
</g>
</g>
</svg>
