<?xml version="1.0" encoding="UTF-8" standalone="no"?>
<!DOCTYPE svg PUBLIC "-//W3C//DTD SVG 1.1//EN"
 "http://www.w3.org/Graphics/SVG/1.1/DTD/svg11.dtd">
<!-- Generated by graphviz version 2.43.0 (0)
 -->
<!-- Title: Arcane::BarycentricGeomShapeComputer::setNodes Pages: 1 -->
<svg width="511pt" height="86pt"
 viewBox="0.00 0.00 511.00 86.00" xmlns="http://www.w3.org/2000/svg" xmlns:xlink="http://www.w3.org/1999/xlink">
<g id="graph0" class="graph" transform="scale(1 1) rotate(0) translate(4 82)">
<title>Arcane::BarycentricGeomShapeComputer::setNodes</title>
<!-- Node1 -->
<g id="Node000001" class="node">
<title>Node1</title>
<g id="a_Node000001"><a xlink:title="Remplit les informations des noeuds de la maille cell avec les coordonnées de node_coord.">
<polygon fill="#999999" stroke="#666666" points="171,-54 0,-54 0,-24 171,-24 171,-54"/>
<text text-anchor="start" x="8" y="-42" font-family="Helvetica,sans-Serif" font-size="10.00">Arcane::BarycentricGeomShape</text>
<text text-anchor="middle" x="85.5" y="-31" font-family="Helvetica,sans-Serif" font-size="10.00">Computer::setNodes</text>
</a>
</g>
</g>
<!-- Node2 -->
<g id="Node000002" class="node">
<title>Node2</title>
<g id="a_Node000002"><a xlink:href="../../d4/d55/classArcane_1_1ItemWithNodes.html#ae1c7e80b8f5f0bf7374bee7371e659c5" target="_top" xlink:title="Nombre de noeuds de l&#39;entité">
<polygon fill="white" stroke="#666666" points="339,-78 207,-78 207,-48 339,-48 339,-78"/>
<text text-anchor="start" x="215" y="-66" font-family="Helvetica,sans-Serif" font-size="10.00">Arcane::ItemWithNodes</text>
<text text-anchor="middle" x="273" y="-55" font-family="Helvetica,sans-Serif" font-size="10.00">::nbNode</text>
</a>
</g>
</g>
<!-- Node1&#45;&gt;Node2 -->
<g id="edge1_Node000001_Node000002" class="edge">
<title>Node1&#45;&gt;Node2</title>
<g id="a_edge1_Node000001_Node000002"><a xlink:title=" ">
<path fill="none" stroke="#63b8ff" d="M171.11,-49.95C179.67,-51.05 188.32,-52.17 196.77,-53.27"/>
<polygon fill="#63b8ff" stroke="#63b8ff" points="196.59,-56.77 206.96,-54.59 197.49,-49.83 196.59,-56.77"/>
</a>
</g>
</g>
<!-- Node4 -->
<g id="Node000004" class="node">
<title>Node4</title>
<g id="a_Node000004"><a xlink:href="../../d4/d55/classArcane_1_1ItemWithNodes.html#a4e5c2583373ef18e3197574686d02775" target="_top" xlink:title="i&#45;ème noeud de l&#39;entité">
<polygon fill="white" stroke="#666666" points="339,-30 207,-30 207,0 339,0 339,-30"/>
<text text-anchor="start" x="215" y="-18" font-family="Helvetica,sans-Serif" font-size="10.00">Arcane::ItemWithNodes</text>
<text text-anchor="middle" x="273" y="-7" font-family="Helvetica,sans-Serif" font-size="10.00">::node</text>
</a>
</g>
</g>
<!-- Node1&#45;&gt;Node4 -->
<g id="edge3_Node000001_Node000004" class="edge">
<title>Node1&#45;&gt;Node4</title>
<g id="a_edge3_Node000001_Node000004"><a xlink:title=" ">
<path fill="none" stroke="#63b8ff" d="M171.11,-28.05C179.67,-26.95 188.32,-25.83 196.77,-24.73"/>
<polygon fill="#63b8ff" stroke="#63b8ff" points="197.49,-28.17 206.96,-23.41 196.59,-21.23 197.49,-28.17"/>
</a>
</g>
</g>
<!-- Node3 -->
<g id="Node000003" class="node">
<title>Node3</title>
<g id="a_Node000003"><a xlink:href="../../df/d5f/classArcane_1_1Item.html#a2d9827ae7ba385ef536e72223d1ed347" target="_top" xlink:title="Nombre de noeuds de l&#39;entité">
<polygon fill="white" stroke="#666666" points="503,-72.5 375,-72.5 375,-53.5 503,-53.5 503,-72.5"/>
<text text-anchor="middle" x="439" y="-60.5" font-family="Helvetica,sans-Serif" font-size="10.00">Arcane::Item::_nbNode</text>
</a>
</g>
</g>
<!-- Node2&#45;&gt;Node3 -->
<g id="edge2_Node000002_Node000003" class="edge">
<title>Node2&#45;&gt;Node3</title>
<g id="a_edge2_Node000002_Node000003"><a xlink:title=" ">
<path fill="none" stroke="#63b8ff" d="M339.29,-63C347.61,-63 356.17,-63 364.6,-63"/>
<polygon fill="#63b8ff" stroke="#63b8ff" points="364.81,-66.5 374.81,-63 364.81,-59.5 364.81,-66.5"/>
</a>
</g>
</g>
</g>
</svg>
