<?xml version="1.0" encoding="UTF-8" standalone="no"?>
<!DOCTYPE svg PUBLIC "-//W3C//DTD SVG 1.1//EN"
 "http://www.w3.org/Graphics/SVG/1.1/DTD/svg11.dtd">
<!-- Generated by graphviz version 2.43.0 (0)
 -->
<!-- Title: Arcane::FlexLMMng::featureInfo Pages: 1 -->
<svg width="502pt" height="161pt"
 viewBox="0.00 0.00 502.00 161.00" xmlns="http://www.w3.org/2000/svg" xmlns:xlink="http://www.w3.org/1999/xlink">
<g id="graph0" class="graph" transform="scale(1 1) rotate(0) translate(4 157)">
<title>Arcane::FlexLMMng::featureInfo</title>
<!-- Node1 -->
<g id="Node000001" class="node">
<title>Node1</title>
<g id="a_Node000001"><a xlink:title="Return info on feature.">
<polygon fill="#999999" stroke="#666666" points="119,-91.5 0,-91.5 0,-61.5 119,-61.5 119,-91.5"/>
<text text-anchor="start" x="8" y="-79.5" font-family="Helvetica,sans-Serif" font-size="10.00">Arcane::FlexLMMng::</text>
<text text-anchor="middle" x="59.5" y="-68.5" font-family="Helvetica,sans-Serif" font-size="10.00">featureInfo</text>
</a>
</g>
</g>
<!-- Node2 -->
<g id="Node000002" class="node">
<title>Node2</title>
<g id="a_Node000002"><a xlink:href="../../db/dc4/classArcane_1_1String.html#a3e077c33daf6f96bc96747fccd1edde0" target="_top" xlink:title="Retourne la conversion de l&#39;instance dans l&#39;encodage UTF&#45;8.">
<polygon fill="white" stroke="#666666" points="285.5,-153 158.5,-153 158.5,-134 285.5,-134 285.5,-153"/>
<text text-anchor="middle" x="222" y="-141" font-family="Helvetica,sans-Serif" font-size="10.00">Arcane::String::localstr</text>
</a>
</g>
</g>
<!-- Node1&#45;&gt;Node2 -->
<g id="edge1_Node000001_Node000002" class="edge">
<title>Node1&#45;&gt;Node2</title>
<g id="a_edge1_Node000001_Node000002"><a xlink:title=" ">
<path fill="none" stroke="#63b8ff" d="M86.76,-91.54C105.39,-101.78 131.2,-115.13 155,-124.5 160.9,-126.82 167.19,-129 173.46,-130.99"/>
<polygon fill="#63b8ff" stroke="#63b8ff" points="172.65,-134.4 183.24,-133.96 174.69,-127.71 172.65,-134.4"/>
</a>
</g>
</g>
<!-- Node3 -->
<g id="Node000003" class="node">
<title>Node3</title>
<g id="a_Node000003"><a xlink:href="../../d9/d2e/classArcane_1_1ConstArrayView.html#ac6a4f407a7ec0a0e0985113552fe2f54" target="_top" xlink:title="Nombre d&#39;éléments du tableau.">
<polygon fill="white" stroke="#666666" points="289,-115.5 155,-115.5 155,-85.5 289,-85.5 289,-115.5"/>
<text text-anchor="start" x="163" y="-103.5" font-family="Helvetica,sans-Serif" font-size="10.00">Arcane::ConstArrayView</text>
<text text-anchor="middle" x="222" y="-92.5" font-family="Helvetica,sans-Serif" font-size="10.00">::size</text>
</a>
</g>
</g>
<!-- Node1&#45;&gt;Node3 -->
<g id="edge2_Node000001_Node000003" class="edge">
<title>Node1&#45;&gt;Node3</title>
<g id="a_edge2_Node000001_Node000003"><a xlink:title=" ">
<path fill="none" stroke="#63b8ff" d="M119.35,-85.3C127.65,-86.54 136.27,-87.83 144.83,-89.11"/>
<polygon fill="#63b8ff" stroke="#63b8ff" points="144.43,-92.59 154.83,-90.61 145.46,-85.67 144.43,-92.59"/>
</a>
</g>
</g>
<!-- Node4 -->
<g id="Node000004" class="node">
<title>Node4</title>
<g id="a_Node000004"><a xlink:href="../../d4/d97/classArcane_1_1StringBuilder.html#adb494f09653425a9b129031cd91e15cb" target="_top" xlink:title="Retourne la chaîne de caractères construite.">
<polygon fill="white" stroke="#666666" points="281.5,-67.5 162.5,-67.5 162.5,-37.5 281.5,-37.5 281.5,-67.5"/>
<text text-anchor="start" x="170.5" y="-55.5" font-family="Helvetica,sans-Serif" font-size="10.00">Arcane::StringBuilder</text>
<text text-anchor="middle" x="222" y="-44.5" font-family="Helvetica,sans-Serif" font-size="10.00">::toString</text>
</a>
</g>
</g>
<!-- Node1&#45;&gt;Node4 -->
<g id="edge3_Node000001_Node000004" class="edge">
<title>Node1&#45;&gt;Node4</title>
<g id="a_edge3_Node000001_Node000004"><a xlink:title=" ">
<path fill="none" stroke="#63b8ff" d="M119.35,-67.7C130.11,-66.09 141.41,-64.4 152.42,-62.75"/>
<polygon fill="#63b8ff" stroke="#63b8ff" points="153.05,-66.2 162.42,-61.26 152.01,-59.28 153.05,-66.2"/>
</a>
</g>
</g>
<!-- Node5 -->
<g id="Node000005" class="node">
<title>Node5</title>
<g id="a_Node000005"><a xlink:href="../../db/dc4/classArcane_1_1String.html#a41d229181f0ab84b40a78915bfeee61a" target="_top" xlink:title="Retourne la conversion de l&#39;instance dans l&#39;encodage UTF&#45;8.">
<polygon fill="white" stroke="#666666" points="277,-19 167,-19 167,0 277,0 277,-19"/>
<text text-anchor="middle" x="222" y="-7" font-family="Helvetica,sans-Serif" font-size="10.00">Arcane::String::utf8</text>
</a>
</g>
</g>
<!-- Node1&#45;&gt;Node5 -->
<g id="edge4_Node000001_Node000005" class="edge">
<title>Node1&#45;&gt;Node5</title>
<g id="a_edge4_Node000001_Node000005"><a xlink:title=" ">
<path fill="none" stroke="#63b8ff" d="M86.76,-61.46C105.39,-51.22 131.2,-37.87 155,-28.5 160.9,-26.18 167.19,-24 173.46,-22.01"/>
<polygon fill="#63b8ff" stroke="#63b8ff" points="174.69,-25.29 183.24,-19.04 172.65,-18.6 174.69,-25.29"/>
</a>
</g>
</g>
<!-- Node6 -->
<g id="Node000006" class="node">
<title>Node6</title>
<g id="a_Node000006"><a xlink:href="../../d0/d32/namespaceArcane.html#a22a70b966ef5efe085714156eb67e1df" target="_top" xlink:title="Vérifie que size peut être converti dans un &#39;Integer&#39; pour servir de taille à un tableau....">
<polygon fill="white" stroke="#666666" points="494,-19 325,-19 325,0 494,0 494,-19"/>
<text text-anchor="middle" x="409.5" y="-7" font-family="Helvetica,sans-Serif" font-size="10.00">Arcane::arccoreCheckArraySize</text>
</a>
</g>
</g>
<!-- Node5&#45;&gt;Node6 -->
<g id="edge5_Node000005_Node000006" class="edge">
<title>Node5&#45;&gt;Node6</title>
<g id="a_edge5_Node000005_Node000006"><a xlink:title=" ">
<path fill="none" stroke="#63b8ff" d="M277.15,-9.5C288.97,-9.5 301.8,-9.5 314.65,-9.5"/>
<polygon fill="#63b8ff" stroke="#63b8ff" points="314.95,-13 324.95,-9.5 314.95,-6 314.95,-13"/>
</a>
</g>
</g>
</g>
</svg>
