<?xml version="1.0" encoding="UTF-8" standalone="no"?>
<!DOCTYPE svg PUBLIC "-//W3C//DTD SVG 1.1//EN"
 "http://www.w3.org/Graphics/SVG/1.1/DTD/svg11.dtd">
<!-- Generated by graphviz version 2.43.0 (0)
 -->
<!-- Title: RunCommandLoop.h Pages: 1 -->
<svg width="1925pt" height="269pt"
 viewBox="0.00 0.00 1925.00 269.00" xmlns="http://www.w3.org/2000/svg" xmlns:xlink="http://www.w3.org/1999/xlink">
<g id="graph0" class="graph" transform="scale(1 1) rotate(0) translate(4 265)">
<title>RunCommandLoop.h</title>
<!-- Node1 -->
<g id="Node000001" class="node">
<title>Node1</title>
<g id="a_Node000001"><a xlink:title="Types et macros pour gérer les boucles sur les accélérateurs.">
<polygon fill="#999999" stroke="#666666" points="682.5,-261 564.5,-261 564.5,-242 682.5,-242 682.5,-261"/>
<text text-anchor="middle" x="623.5" y="-249" font-family="Helvetica,sans-Serif" font-size="10.00">RunCommandLoop.h</text>
</a>
</g>
</g>
<!-- Node2 -->
<g id="Node000002" class="node">
<title>Node2</title>
<g id="a_Node000002"><a xlink:href="../../db/d5b/Accelerator_8h_source.html" target="_top" xlink:title=" ">
<polygon fill="white" stroke="#666666" points="126.5,-206 46.5,-206 46.5,-187 126.5,-187 126.5,-206"/>
<text text-anchor="middle" x="86.5" y="-194" font-family="Helvetica,sans-Serif" font-size="10.00">Accelerator.h</text>
</a>
</g>
</g>
<!-- Node1&#45;&gt;Node2 -->
<g id="edge1_Node000001_Node000002" class="edge">
<title>Node1&#45;&gt;Node2</title>
<g id="a_edge1_Node000001_Node000002"><a xlink:title=" ">
<path fill="none" stroke="#63b8ff" d="M554.03,-245.51C460.05,-238.44 287.29,-224.3 140.5,-206 135.98,-205.44 131.26,-204.79 126.56,-204.1"/>
<polygon fill="#63b8ff" stroke="#63b8ff" points="554.02,-249.02 564.26,-246.27 554.55,-242.04 554.02,-249.02"/>
</a>
</g>
</g>
<!-- Node3 -->
<g id="Node000003" class="node">
<title>Node3</title>
<g id="a_Node000003"><a xlink:href="../../d6/de7/AllEnvData_8cc_source.html" target="_top" xlink:title=" ">
<polygon fill="white" stroke="#666666" points="719.5,-24.5 635.5,-24.5 635.5,-5.5 719.5,-5.5 719.5,-24.5"/>
<text text-anchor="middle" x="677.5" y="-12.5" font-family="Helvetica,sans-Serif" font-size="10.00">AllEnvData.cc</text>
</a>
</g>
</g>
<!-- Node1&#45;&gt;Node3 -->
<g id="edge2_Node000001_Node000003" class="edge">
<title>Node1&#45;&gt;Node3</title>
<g id="a_edge2_Node000001_Node000003"><a xlink:title=" ">
<path fill="none" stroke="#63b8ff" d="M615.44,-232.31C606.14,-208.8 593.36,-166.74 603.5,-132 616.62,-87.05 653.03,-42.93 669.37,-24.72"/>
<polygon fill="#63b8ff" stroke="#63b8ff" points="612.28,-233.84 619.37,-241.72 618.74,-231.14 612.28,-233.84"/>
</a>
</g>
</g>
<!-- Node4 -->
<g id="Node000004" class="node">
<title>Node4</title>
<g id="a_Node000004"><a xlink:href="../../db/dd9/ComponentItemInternalData_8cc_source.html" target="_top" xlink:title=" ">
<polygon fill="white" stroke="#666666" points="352.5,-206 182.5,-206 182.5,-187 352.5,-187 352.5,-206"/>
<text text-anchor="middle" x="267.5" y="-194" font-family="Helvetica,sans-Serif" font-size="10.00">ComponentItemInternalData.cc</text>
</a>
</g>
</g>
<!-- Node1&#45;&gt;Node4 -->
<g id="edge3_Node000001_Node000004" class="edge">
<title>Node1&#45;&gt;Node4</title>
<g id="a_edge3_Node000001_Node000004"><a xlink:title=" ">
<path fill="none" stroke="#63b8ff" d="M556.29,-240.49C489.45,-230.54 388.01,-215.44 324.85,-206.04"/>
<polygon fill="#63b8ff" stroke="#63b8ff" points="555.9,-243.97 566.3,-241.98 556.93,-237.05 555.9,-243.97"/>
</a>
</g>
</g>
<!-- Node5 -->
<g id="Node000005" class="node">
<title>Node5</title>
<g id="a_Node000005"><a xlink:href="../../d4/d7a/ConstituentConnectivityList_8cc_source.html" target="_top" xlink:title=" ">
<polygon fill="white" stroke="#666666" points="1328,-24.5 1163,-24.5 1163,-5.5 1328,-5.5 1328,-24.5"/>
<text text-anchor="middle" x="1245.5" y="-12.5" font-family="Helvetica,sans-Serif" font-size="10.00">ConstituentConnectivityList.cc</text>
</a>
</g>
</g>
<!-- Node1&#45;&gt;Node5 -->
<g id="edge4_Node000001_Node000005" class="edge">
<title>Node1&#45;&gt;Node5</title>
<g id="a_edge4_Node000001_Node000005"><a xlink:title=" ">
<path fill="none" stroke="#63b8ff" d="M650.49,-237.2C665.21,-229.25 683.27,-218.31 697.5,-206 721.39,-185.34 723.68,-176.37 742.5,-151 769.6,-114.47 760.5,-89.41 799.5,-66 867.49,-25.19 1075.84,-40.03 1154.5,-30 1167.03,-28.4 1180.49,-26.46 1193.11,-24.53"/>
<polygon fill="#63b8ff" stroke="#63b8ff" points="648.61,-234.23 641.37,-241.97 651.86,-240.43 648.61,-234.23"/>
</a>
</g>
</g>
<!-- Node6 -->
<g id="Node000006" class="node">
<title>Node6</title>
<g id="a_Node000006"><a xlink:href="../../df/d66/ConstituentItemVectorImpl_8cc_source.html" target="_top" xlink:title=" ">
<polygon fill="white" stroke="#666666" points="1917,-24.5 1756,-24.5 1756,-5.5 1917,-5.5 1917,-24.5"/>
<text text-anchor="middle" x="1836.5" y="-12.5" font-family="Helvetica,sans-Serif" font-size="10.00">ConstituentItemVectorImpl.cc</text>
</a>
</g>
</g>
<!-- Node1&#45;&gt;Node6 -->
<g id="edge5_Node000001_Node000006" class="edge">
<title>Node1&#45;&gt;Node6</title>
<g id="a_edge5_Node000001_Node000006"><a xlink:title=" ">
<path fill="none" stroke="#63b8ff" d="M692.78,-251.25C823.65,-251.58 1115.79,-247.09 1357.5,-206 1445.85,-190.98 1465.63,-176.66 1551.5,-151 1629.62,-127.66 1653.69,-132.68 1726.5,-96 1766.99,-75.6 1808.62,-40.8 1826.9,-24.68"/>
<polygon fill="#63b8ff" stroke="#63b8ff" points="692.52,-247.75 682.5,-251.21 692.49,-254.75 692.52,-247.75"/>
</a>
</g>
</g>
<!-- Node7 -->
<g id="Node000007" class="node">
<title>Node7</title>
<g id="a_Node000007"><a xlink:href="../../d8/d40/GenericFilterer_8h_source.html" target="_top" xlink:title=" ">
<polygon fill="white" stroke="#666666" points="390,-151 293,-151 293,-132 390,-132 390,-151"/>
<text text-anchor="middle" x="341.5" y="-139" font-family="Helvetica,sans-Serif" font-size="10.00">GenericFilterer.h</text>
</a>
</g>
</g>
<!-- Node1&#45;&gt;Node7 -->
<g id="edge6_Node000001_Node000007" class="edge">
<title>Node1&#45;&gt;Node7</title>
<g id="a_edge6_Node000001_Node000007"><a xlink:title=" ">
<path fill="none" stroke="#63b8ff" d="M553.85,-246.74C508.96,-241.89 450.59,-230.87 404.5,-206 379.08,-192.28 357.34,-164.98 347.35,-151.07"/>
<polygon fill="#63b8ff" stroke="#63b8ff" points="553.78,-250.26 564.08,-247.77 554.48,-243.29 553.78,-250.26"/>
</a>
</g>
</g>
<!-- Node10 -->
<g id="Node000010" class="node">
<title>Node10</title>
<g id="a_Node000010"><a xlink:href="../../d7/d48/IncrementalComponentModifier__Accelerator_8cc_source.html" target="_top" xlink:title=" ">
<polygon fill="white" stroke="#666666" points="427,-30 256,-30 256,0 427,0 427,-30"/>
<text text-anchor="start" x="264" y="-18" font-family="Helvetica,sans-Serif" font-size="10.00">IncrementalComponentModifier</text>
<text text-anchor="middle" x="341.5" y="-7" font-family="Helvetica,sans-Serif" font-size="10.00">_Accelerator.cc</text>
</a>
</g>
</g>
<!-- Node1&#45;&gt;Node10 -->
<g id="edge19_Node000001_Node000010" class="edge">
<title>Node1&#45;&gt;Node10</title>
<g id="a_edge19_Node000001_Node000010"><a xlink:title=" ">
<path fill="none" stroke="#63b8ff" d="M554.22,-248.56C516.03,-244.17 469.94,-233.01 437.5,-206 411.35,-184.23 392.02,-95.74 375.5,-66 368.47,-53.34 359.14,-39.8 352.03,-30"/>
<polygon fill="#63b8ff" stroke="#63b8ff" points="553.95,-252.05 564.25,-249.58 554.66,-245.08 553.95,-252.05"/>
</a>
</g>
</g>
<!-- Node11 -->
<g id="Node000011" class="node">
<title>Node11</title>
<g id="a_Node000011"><a xlink:href="../../df/d28/MeshComponentPartData_8cc_source.html" target="_top" xlink:title=" ">
<polygon fill="white" stroke="#666666" points="155,-24.5 0,-24.5 0,-5.5 155,-5.5 155,-24.5"/>
<text text-anchor="middle" x="77.5" y="-12.5" font-family="Helvetica,sans-Serif" font-size="10.00">MeshComponentPartData.cc</text>
</a>
</g>
</g>
<!-- Node1&#45;&gt;Node11 -->
<g id="edge30_Node000001_Node000011" class="edge">
<title>Node1&#45;&gt;Node11</title>
<g id="a_edge30_Node000001_Node000011"><a xlink:title=" ">
<path fill="none" stroke="#63b8ff" d="M554.35,-247.31C435.96,-241.3 204.18,-227.02 173.5,-206 107.34,-160.67 84.37,-55.67 78.9,-24.73"/>
<polygon fill="#63b8ff" stroke="#63b8ff" points="554.24,-250.8 564.4,-247.81 554.59,-243.81 554.24,-250.8"/>
</a>
</g>
</g>
<!-- Node12 -->
<g id="Node000012" class="node">
<title>Node12</title>
<g id="a_Node000012"><a xlink:href="../../d1/daa/MeshMaterialVariableIndexer_8cc_source.html" target="_top" xlink:title=" ">
<polygon fill="white" stroke="#666666" points="617.5,-24.5 445.5,-24.5 445.5,-5.5 617.5,-5.5 617.5,-24.5"/>
<text text-anchor="middle" x="531.5" y="-12.5" font-family="Helvetica,sans-Serif" font-size="10.00">MeshMaterialVariableIndexer.cc</text>
</a>
</g>
</g>
<!-- Node1&#45;&gt;Node12 -->
<g id="edge33_Node000001_Node000012" class="edge">
<title>Node1&#45;&gt;Node12</title>
<g id="a_edge33_Node000001_Node000012"><a xlink:title=" ">
<path fill="none" stroke="#63b8ff" d="M612.77,-233.05C608.06,-224.99 602.66,-215.18 598.5,-206 567.75,-138.14 541.79,-51.67 533.93,-24.54"/>
<polygon fill="#63b8ff" stroke="#63b8ff" points="609.91,-235.09 618.06,-241.87 615.92,-231.49 609.91,-235.09"/>
</a>
</g>
</g>
<!-- Node13 -->
<g id="Node000013" class="node">
<title>Node13</title>
<g id="a_Node000013"><a xlink:href="../../df/d35/GenericScanner_8h_source.html" target="_top" xlink:title=" ">
<polygon fill="white" stroke="#666666" points="714,-151 613,-151 613,-132 714,-132 714,-151"/>
<text text-anchor="middle" x="663.5" y="-139" font-family="Helvetica,sans-Serif" font-size="10.00">GenericScanner.h</text>
</a>
</g>
</g>
<!-- Node1&#45;&gt;Node13 -->
<g id="edge12_Node000001_Node000013" class="edge">
<title>Node1&#45;&gt;Node13</title>
<g id="a_edge12_Node000001_Node000013"><a xlink:title=" ">
<path fill="none" stroke="#63b8ff" d="M630.31,-232.12C639.03,-208.56 653.81,-168.66 660.29,-151.16"/>
<polygon fill="#63b8ff" stroke="#63b8ff" points="626.96,-231.07 626.77,-241.66 633.53,-233.5 626.96,-231.07"/>
</a>
</g>
</g>
<!-- Node15 -->
<g id="Node000015" class="node">
<title>Node15</title>
<g id="a_Node000015"><a xlink:href="../../df/db9/MeshEnvironment_8cc_source.html" target="_top" xlink:title=" ">
<polygon fill="white" stroke="#666666" points="1145,-24.5 1026,-24.5 1026,-5.5 1145,-5.5 1145,-24.5"/>
<text text-anchor="middle" x="1085.5" y="-12.5" font-family="Helvetica,sans-Serif" font-size="10.00">MeshEnvironment.cc</text>
</a>
</g>
</g>
<!-- Node1&#45;&gt;Node15 -->
<g id="edge31_Node000001_Node000015" class="edge">
<title>Node1&#45;&gt;Node15</title>
<g id="a_edge31_Node000001_Node000015"><a xlink:title=" ">
<path fill="none" stroke="#63b8ff" d="M641.77,-235.24C663.02,-216.83 698.28,-184.19 722.5,-151 747.57,-116.63 731.82,-90.64 766.5,-66 858.37,-0.72 906.48,-49.37 1017.5,-30 1026.76,-28.38 1036.69,-26.45 1046.02,-24.55"/>
<polygon fill="#63b8ff" stroke="#63b8ff" points="639.43,-232.63 634.1,-241.79 643.98,-237.95 639.43,-232.63"/>
</a>
</g>
</g>
<!-- Node18 -->
<g id="Node000018" class="node">
<title>Node18</title>
<g id="a_Node000018"><a xlink:href="../../d0/dd5/ItemMaterialVariableBaseT_8H_source.html" target="_top" xlink:title=" ">
<polygon fill="white" stroke="#666666" points="1013,-206 854,-206 854,-187 1013,-187 1013,-206"/>
<text text-anchor="middle" x="933.5" y="-194" font-family="Helvetica,sans-Serif" font-size="10.00">ItemMaterialVariableBaseT.H</text>
</a>
</g>
</g>
<!-- Node1&#45;&gt;Node18 -->
<g id="edge20_Node000001_Node000018" class="edge">
<title>Node1&#45;&gt;Node18</title>
<g id="a_edge20_Node000001_Node000018"><a xlink:title=" ">
<path fill="none" stroke="#63b8ff" d="M683.46,-240.25C741.68,-230.3 829.01,-215.36 883.56,-206.04"/>
<polygon fill="#63b8ff" stroke="#63b8ff" points="682.57,-236.85 673.31,-241.98 683.75,-243.75 682.57,-236.85"/>
</a>
</g>
</g>
<!-- Node27 -->
<g id="Node000027" class="node">
<title>Node27</title>
<g id="a_Node000027"><a xlink:href="../../d2/dcc/MemoryCopier_8cc_source.html" target="_top" xlink:title=" ">
<polygon fill="white" stroke="#666666" points="1132,-206 1031,-206 1031,-187 1132,-187 1132,-206"/>
<text text-anchor="middle" x="1081.5" y="-194" font-family="Helvetica,sans-Serif" font-size="10.00">MemoryCopier.cc</text>
</a>
</g>
</g>
<!-- Node1&#45;&gt;Node27 -->
<g id="edge29_Node000001_Node000027" class="edge">
<title>Node1&#45;&gt;Node27</title>
<g id="a_edge29_Node000001_Node000027"><a xlink:title=" ">
<path fill="none" stroke="#63b8ff" d="M692.94,-243.36C772.42,-235.04 906.47,-220.58 1021.5,-206 1024.53,-205.62 1027.64,-205.21 1030.78,-204.79"/>
<polygon fill="#63b8ff" stroke="#63b8ff" points="692.15,-239.92 682.57,-244.44 692.88,-246.89 692.15,-239.92"/>
</a>
</g>
</g>
<!-- Node28 -->
<g id="Node000028" class="node">
<title>Node28</title>
<g id="a_Node000028"><a xlink:href="../../de/df1/MeshMaterialVariable_8cc_source.html" target="_top" xlink:title=" ">
<polygon fill="white" stroke="#666666" points="1287,-206 1150,-206 1150,-187 1287,-187 1287,-206"/>
<text text-anchor="middle" x="1218.5" y="-194" font-family="Helvetica,sans-Serif" font-size="10.00">MeshMaterialVariable.cc</text>
</a>
</g>
</g>
<!-- Node1&#45;&gt;Node28 -->
<g id="edge32_Node000001_Node000028" class="edge">
<title>Node1&#45;&gt;Node28</title>
<g id="a_edge32_Node000001_Node000028"><a xlink:title=" ">
<path fill="none" stroke="#63b8ff" d="M692.8,-245.08C792.2,-237.19 980.99,-221.75 1141.5,-206 1144.18,-205.74 1146.91,-205.46 1149.66,-205.18"/>
<polygon fill="#63b8ff" stroke="#63b8ff" points="692.28,-241.61 682.58,-245.89 692.83,-248.59 692.28,-241.61"/>
</a>
</g>
</g>
<!-- Node29 -->
<g id="Node000029" class="node">
<title>Node29</title>
<g id="a_Node000029"><a xlink:href="../../df/dd2/Reduce_8h.html" target="_top" xlink:title="Types et fonctions pour gérer les synchronisations sur les accélérateurs.">
<polygon fill="white" stroke="#666666" points="1717.5,-90.5 1655.5,-90.5 1655.5,-71.5 1717.5,-71.5 1717.5,-90.5"/>
<text text-anchor="middle" x="1686.5" y="-78.5" font-family="Helvetica,sans-Serif" font-size="10.00">Reduce.h</text>
</a>
</g>
</g>
<!-- Node1&#45;&gt;Node29 -->
<g id="edge34_Node000001_Node000029" class="edge">
<title>Node1&#45;&gt;Node29</title>
<g id="a_edge34_Node000001_Node000029"><a xlink:title=" ">
<path fill="none" stroke="#63b8ff" d="M692.88,-250.12C815.45,-248.5 1078.03,-240.86 1296.5,-206 1393.9,-190.46 1417.66,-181.37 1511.5,-151 1569.14,-132.35 1635.13,-104.5 1667.11,-90.57"/>
<polygon fill="#63b8ff" stroke="#63b8ff" points="692.83,-246.62 682.87,-250.24 692.92,-253.62 692.83,-246.62"/>
</a>
</g>
</g>
<!-- Node33 -->
<g id="Node000033" class="node">
<title>Node33</title>
<g id="a_Node000033"><a xlink:href="../../d3/dec/ScanImpl_8h_source.html" target="_top" xlink:title=" ">
<polygon fill="white" stroke="#666666" points="518,-206 447,-206 447,-187 518,-187 518,-206"/>
<text text-anchor="middle" x="482.5" y="-194" font-family="Helvetica,sans-Serif" font-size="10.00">ScanImpl.h</text>
</a>
</g>
</g>
<!-- Node1&#45;&gt;Node33 -->
<g id="edge43_Node000001_Node000033" class="edge">
<title>Node1&#45;&gt;Node33</title>
<g id="a_edge43_Node000001_Node000033"><a xlink:title=" ">
<path fill="none" stroke="#63b8ff" d="M591.36,-238.42C565.21,-228.59 528.91,-214.95 505.57,-206.17"/>
<polygon fill="#63b8ff" stroke="#63b8ff" points="590.25,-241.74 600.85,-241.98 592.72,-235.19 590.25,-241.74"/>
</a>
</g>
</g>
<!-- Node8 -->
<g id="Node000008" class="node">
<title>Node8</title>
<g id="a_Node000008"><a xlink:href="../../df/df8/Filter_8h_source.html" target="_top" xlink:title=" ">
<polygon fill="white" stroke="#666666" points="366.5,-90.5 316.5,-90.5 316.5,-71.5 366.5,-71.5 366.5,-90.5"/>
<text text-anchor="middle" x="341.5" y="-78.5" font-family="Helvetica,sans-Serif" font-size="10.00">Filter.h</text>
</a>
</g>
</g>
<!-- Node7&#45;&gt;Node8 -->
<g id="edge7_Node000007_Node000008" class="edge">
<title>Node7&#45;&gt;Node8</title>
<g id="a_edge7_Node000007_Node000008"><a xlink:title=" ">
<path fill="none" stroke="#63b8ff" d="M341.5,-121.66C341.5,-111.24 341.5,-98.8 341.5,-90.67"/>
<polygon fill="#63b8ff" stroke="#63b8ff" points="338,-121.87 341.5,-131.87 345,-121.87 338,-121.87"/>
</a>
</g>
</g>
<!-- Node9 -->
<g id="Node000009" class="node">
<title>Node9</title>
<g id="a_Node000009"><a xlink:href="../../d9/d01/Filterer_8cc_source.html" target="_top" xlink:title=" ">
<polygon fill="white" stroke="#666666" points="237.5,-24.5 173.5,-24.5 173.5,-5.5 237.5,-5.5 237.5,-24.5"/>
<text text-anchor="middle" x="205.5" y="-12.5" font-family="Helvetica,sans-Serif" font-size="10.00">Filterer.cc</text>
</a>
</g>
</g>
<!-- Node8&#45;&gt;Node9 -->
<g id="edge8_Node000008_Node000009" class="edge">
<title>Node8&#45;&gt;Node9</title>
<g id="a_edge8_Node000008_Node000009"><a xlink:title=" ">
<path fill="none" stroke="#63b8ff" d="M313.94,-67.03C287.13,-54.42 247.17,-35.61 223.99,-24.7"/>
<polygon fill="#63b8ff" stroke="#63b8ff" points="312.62,-70.28 323.16,-71.37 315.6,-63.94 312.62,-70.28"/>
</a>
</g>
</g>
<!-- Node8&#45;&gt;Node10 -->
<g id="edge9_Node000008_Node000010" class="edge">
<title>Node8&#45;&gt;Node10</title>
<g id="a_edge9_Node000008_Node000010"><a xlink:title=" ">
<path fill="none" stroke="#63b8ff" d="M341.5,-61.35C341.5,-51.47 341.5,-39.51 341.5,-30.36"/>
<polygon fill="#63b8ff" stroke="#63b8ff" points="338,-61.37 341.5,-71.37 345,-61.37 338,-61.37"/>
</a>
</g>
</g>
<!-- Node8&#45;&gt;Node11 -->
<g id="edge10_Node000008_Node000011" class="edge">
<title>Node8&#45;&gt;Node11</title>
<g id="a_edge10_Node000008_Node000011"><a xlink:title=" ">
<path fill="none" stroke="#63b8ff" d="M306.37,-71.48C255.86,-59.24 163.24,-36.79 112.69,-24.53"/>
<polygon fill="#63b8ff" stroke="#63b8ff" points="305.64,-74.91 316.19,-73.86 307.29,-68.11 305.64,-74.91"/>
</a>
</g>
</g>
<!-- Node8&#45;&gt;Node12 -->
<g id="edge11_Node000008_Node000012" class="edge">
<title>Node8&#45;&gt;Node12</title>
<g id="a_edge11_Node000008_Node000012"><a xlink:title=" ">
<path fill="none" stroke="#63b8ff" d="M376.25,-68.29C413.81,-55.64 472.75,-35.79 506.17,-24.53"/>
<polygon fill="#63b8ff" stroke="#63b8ff" points="375.09,-64.99 366.73,-71.5 377.32,-71.63 375.09,-64.99"/>
</a>
</g>
</g>
<!-- Node14 -->
<g id="Node000014" class="node">
<title>Node14</title>
<g id="a_Node000014"><a xlink:href="../../d0/de1/Scan_8h_source.html" target="_top" xlink:title=" ">
<polygon fill="white" stroke="#666666" points="714,-90.5 665,-90.5 665,-71.5 714,-71.5 714,-90.5"/>
<text text-anchor="middle" x="689.5" y="-78.5" font-family="Helvetica,sans-Serif" font-size="10.00">Scan.h</text>
</a>
</g>
</g>
<!-- Node13&#45;&gt;Node14 -->
<g id="edge13_Node000013_Node000014" class="edge">
<title>Node13&#45;&gt;Node14</title>
<g id="a_edge13_Node000013_Node000014"><a xlink:title=" ">
<path fill="none" stroke="#63b8ff" d="M671.43,-122.65C676.15,-112.04 681.92,-99.06 685.65,-90.67"/>
<polygon fill="#63b8ff" stroke="#63b8ff" points="668.2,-121.31 667.34,-131.87 674.6,-124.15 668.2,-121.31"/>
</a>
</g>
</g>
<!-- Node14&#45;&gt;Node3 -->
<g id="edge14_Node000014_Node000003" class="edge">
<title>Node14&#45;&gt;Node3</title>
<g id="a_edge14_Node000014_Node000003"><a xlink:title=" ">
<path fill="none" stroke="#63b8ff" d="M686.02,-61.45C683.77,-49.43 680.93,-34.32 679.17,-24.91"/>
<polygon fill="#63b8ff" stroke="#63b8ff" points="682.6,-62.18 687.88,-71.37 689.48,-60.89 682.6,-62.18"/>
</a>
</g>
</g>
<!-- Node14&#45;&gt;Node5 -->
<g id="edge15_Node000014_Node000005" class="edge">
<title>Node14&#45;&gt;Node5</title>
<g id="a_edge15_Node000014_Node000005"><a xlink:title=" ">
<path fill="none" stroke="#63b8ff" d="M724.14,-73.04C737.35,-70.56 752.59,-67.91 766.5,-66 938.08,-42.49 982.61,-51.18 1154.5,-30 1167.19,-28.44 1180.84,-26.48 1193.6,-24.54"/>
<polygon fill="#63b8ff" stroke="#63b8ff" points="723.2,-69.65 714.03,-74.97 724.51,-76.53 723.2,-69.65"/>
</a>
</g>
</g>
<!-- Node14&#45;&gt;Node15 -->
<g id="edge16_Node000014_Node000015" class="edge">
<title>Node14&#45;&gt;Node15</title>
<g id="a_edge16_Node000014_Node000015"><a xlink:title=" ">
<path fill="none" stroke="#63b8ff" d="M720.38,-68.22C723.1,-67.39 725.84,-66.64 728.5,-66 854.4,-35.95 889.79,-51.07 1017.5,-30 1027.01,-28.43 1037.22,-26.47 1046.76,-24.53"/>
<polygon fill="#63b8ff" stroke="#63b8ff" points="719.09,-64.96 710.7,-71.43 721.29,-71.6 719.09,-64.96"/>
</a>
</g>
</g>
<!-- Node16 -->
<g id="Node000016" class="node">
<title>Node16</title>
<g id="a_Node000016"><a xlink:href="../../d7/dfe/MeshMaterialVariableSynchronizer_8cc_source.html" target="_top" xlink:title=" ">
<polygon fill="white" stroke="#666666" points="937,-24.5 738,-24.5 738,-5.5 937,-5.5 937,-24.5"/>
<text text-anchor="middle" x="837.5" y="-12.5" font-family="Helvetica,sans-Serif" font-size="10.00">MeshMaterialVariableSynchronizer.cc</text>
</a>
</g>
</g>
<!-- Node14&#45;&gt;Node16 -->
<g id="edge17_Node000014_Node000016" class="edge">
<title>Node14&#45;&gt;Node16</title>
<g id="a_edge17_Node000014_Node000016"><a xlink:title=" ">
<path fill="none" stroke="#63b8ff" d="M718.73,-67.36C747.9,-54.75 791.93,-35.71 817.38,-24.7"/>
<polygon fill="#63b8ff" stroke="#63b8ff" points="717.25,-64.19 709.46,-71.37 720.03,-70.61 717.25,-64.19"/>
</a>
</g>
</g>
<!-- Node17 -->
<g id="Node000017" class="node">
<title>Node17</title>
<g id="a_Node000017"><a xlink:href="../../d9/d1b/Scan_8cc_source.html" target="_top" xlink:title=" ">
<polygon fill="white" stroke="#666666" points="1008,-24.5 955,-24.5 955,-5.5 1008,-5.5 1008,-24.5"/>
<text text-anchor="middle" x="981.5" y="-12.5" font-family="Helvetica,sans-Serif" font-size="10.00">Scan.cc</text>
</a>
</g>
</g>
<!-- Node14&#45;&gt;Node17 -->
<g id="edge18_Node000014_Node000017" class="edge">
<title>Node14&#45;&gt;Node17</title>
<g id="a_edge18_Node000014_Node000017"><a xlink:title=" ">
<path fill="none" stroke="#63b8ff" d="M720.88,-68.19C723.44,-67.39 726,-66.65 728.5,-66 823.11,-41.38 851.22,-55.85 945.5,-30 950.8,-28.55 956.4,-26.59 961.56,-24.6"/>
<polygon fill="#63b8ff" stroke="#63b8ff" points="719.52,-64.95 711.15,-71.45 721.74,-71.59 719.52,-64.95"/>
</a>
</g>
</g>
<!-- Node19 -->
<g id="Node000019" class="node">
<title>Node19</title>
<g id="a_Node000019"><a xlink:href="../../df/d43/MeshMaterialVariableArray_8inst_8h_source.html" target="_top" xlink:title=" ">
<polygon fill="white" stroke="#666666" points="1318.5,-151 1140.5,-151 1140.5,-132 1318.5,-132 1318.5,-151"/>
<text text-anchor="middle" x="1229.5" y="-139" font-family="Helvetica,sans-Serif" font-size="10.00">MeshMaterialVariableArray.inst.h</text>
</a>
</g>
</g>
<!-- Node18&#45;&gt;Node19 -->
<g id="edge21_Node000018_Node000019" class="edge">
<title>Node18&#45;&gt;Node19</title>
<g id="a_edge21_Node000018_Node000019"><a xlink:title=" ">
<path fill="none" stroke="#63b8ff" d="M991.09,-185.19C1046.58,-175.25 1129.57,-160.39 1181.57,-151.08"/>
<polygon fill="#63b8ff" stroke="#63b8ff" points="990.28,-181.78 981.06,-186.98 991.52,-188.67 990.28,-181.78"/>
</a>
</g>
</g>
<!-- Node22 -->
<g id="Node000022" class="node">
<title>Node22</title>
<g id="a_Node000022"><a xlink:href="../../dd/d3a/MeshMaterialVariableScalar_8cc_source.html" target="_top" xlink:title=" ">
<polygon fill="white" stroke="#666666" points="1502.5,-151 1336.5,-151 1336.5,-132 1502.5,-132 1502.5,-151"/>
<text text-anchor="middle" x="1419.5" y="-139" font-family="Helvetica,sans-Serif" font-size="10.00">MeshMaterialVariableScalar.cc</text>
</a>
</g>
</g>
<!-- Node18&#45;&gt;Node22 -->
<g id="edge24_Node000018_Node000022" class="edge">
<title>Node18&#45;&gt;Node22</title>
<g id="a_edge24_Node000018_Node000022"><a xlink:title=" ">
<path fill="none" stroke="#63b8ff" d="M1021.62,-185.89C1112.79,-175.95 1253.83,-160.57 1341.21,-151.04"/>
<polygon fill="#63b8ff" stroke="#63b8ff" points="1021.15,-182.42 1011.58,-186.98 1021.9,-189.38 1021.15,-182.42"/>
</a>
</g>
</g>
<!-- Node23 -->
<g id="Node000023" class="node">
<title>Node23</title>
<g id="a_Node000023"><a xlink:href="../../db/dcf/MeshMaterialVariableScalar_8inst_8h_source.html" target="_top" xlink:title=" ">
<polygon fill="white" stroke="#666666" points="1069.5,-151 887.5,-151 887.5,-132 1069.5,-132 1069.5,-151"/>
<text text-anchor="middle" x="978.5" y="-139" font-family="Helvetica,sans-Serif" font-size="10.00">MeshMaterialVariableScalar.inst.h</text>
</a>
</g>
</g>
<!-- Node18&#45;&gt;Node23 -->
<g id="edge25_Node000018_Node000023" class="edge">
<title>Node18&#45;&gt;Node23</title>
<g id="a_edge25_Node000018_Node000023"><a xlink:title=" ">
<path fill="none" stroke="#63b8ff" d="M947.55,-178.96C955.39,-169.72 964.83,-158.6 971.21,-151.09"/>
<polygon fill="#63b8ff" stroke="#63b8ff" points="944.74,-176.86 940.93,-186.75 950.07,-181.39 944.74,-176.86"/>
</a>
</g>
</g>
<!-- Node20 -->
<g id="Node000020" class="node">
<title>Node20</title>
<g id="a_Node000020"><a xlink:href="../../dc/d3e/MeshMaterialVariableArrayTpl1_8cc_source.html" target="_top" xlink:title=" ">
<polygon fill="white" stroke="#666666" points="1471,-96 1322,-96 1322,-66 1471,-66 1471,-96"/>
<text text-anchor="start" x="1330" y="-84" font-family="Helvetica,sans-Serif" font-size="10.00">MeshMaterialVariableArray</text>
<text text-anchor="middle" x="1396.5" y="-73" font-family="Helvetica,sans-Serif" font-size="10.00">Tpl1.cc</text>
</a>
</g>
</g>
<!-- Node19&#45;&gt;Node20 -->
<g id="edge22_Node000019_Node000020" class="edge">
<title>Node19&#45;&gt;Node20</title>
<g id="a_edge22_Node000019_Node000020"><a xlink:title=" ">
<path fill="none" stroke="#63b8ff" d="M1263.52,-128.58C1290.41,-119.16 1327.99,-106 1356.35,-96.06"/>
<polygon fill="#63b8ff" stroke="#63b8ff" points="1262.06,-125.38 1253.78,-131.99 1264.38,-131.99 1262.06,-125.38"/>
</a>
</g>
</g>
<!-- Node21 -->
<g id="Node000021" class="node">
<title>Node21</title>
<g id="a_Node000021"><a xlink:href="../../d9/d0f/MeshMaterialVariableArrayTpl2_8cc_source.html" target="_top" xlink:title=" ">
<polygon fill="white" stroke="#666666" points="1638,-96 1489,-96 1489,-66 1638,-66 1638,-96"/>
<text text-anchor="start" x="1497" y="-84" font-family="Helvetica,sans-Serif" font-size="10.00">MeshMaterialVariableArray</text>
<text text-anchor="middle" x="1563.5" y="-73" font-family="Helvetica,sans-Serif" font-size="10.00">Tpl2.cc</text>
</a>
</g>
</g>
<!-- Node19&#45;&gt;Node21 -->
<g id="edge23_Node000019_Node000021" class="edge">
<title>Node19&#45;&gt;Node21</title>
<g id="a_edge23_Node000019_Node000021"><a xlink:title=" ">
<path fill="none" stroke="#63b8ff" d="M1288.15,-130.23C1344.02,-120.44 1428.34,-105.67 1488.95,-95.06"/>
<polygon fill="#63b8ff" stroke="#63b8ff" points="1287.31,-126.82 1278.07,-131.99 1288.52,-133.72 1287.31,-126.82"/>
</a>
</g>
</g>
<!-- Node24 -->
<g id="Node000024" class="node">
<title>Node24</title>
<g id="a_Node000024"><a xlink:href="../../dd/d73/MeshMaterialVariableScalarTpl1_8cc_source.html" target="_top" xlink:title=" ">
<polygon fill="white" stroke="#666666" points="962,-96 809,-96 809,-66 962,-66 962,-96"/>
<text text-anchor="start" x="817" y="-84" font-family="Helvetica,sans-Serif" font-size="10.00">MeshMaterialVariableScalar</text>
<text text-anchor="middle" x="885.5" y="-73" font-family="Helvetica,sans-Serif" font-size="10.00">Tpl1.cc</text>
</a>
</g>
</g>
<!-- Node23&#45;&gt;Node24 -->
<g id="edge26_Node000023_Node000024" class="edge">
<title>Node23&#45;&gt;Node24</title>
<g id="a_edge26_Node000023_Node000024"><a xlink:title=" ">
<path fill="none" stroke="#63b8ff" d="M955.91,-126.29C941.35,-117.13 922.48,-105.26 907.94,-96.11"/>
<polygon fill="#63b8ff" stroke="#63b8ff" points="954.45,-129.51 964.78,-131.87 958.18,-123.58 954.45,-129.51"/>
</a>
</g>
</g>
<!-- Node25 -->
<g id="Node000025" class="node">
<title>Node25</title>
<g id="a_Node000025"><a xlink:href="../../da/da6/MeshMaterialVariableScalarTpl2_8cc_source.html" target="_top" xlink:title=" ">
<polygon fill="white" stroke="#666666" points="1133,-96 980,-96 980,-66 1133,-66 1133,-96"/>
<text text-anchor="start" x="988" y="-84" font-family="Helvetica,sans-Serif" font-size="10.00">MeshMaterialVariableScalar</text>
<text text-anchor="middle" x="1056.5" y="-73" font-family="Helvetica,sans-Serif" font-size="10.00">Tpl2.cc</text>
</a>
</g>
</g>
<!-- Node23&#45;&gt;Node25 -->
<g id="edge27_Node000023_Node000025" class="edge">
<title>Node23&#45;&gt;Node25</title>
<g id="a_edge27_Node000023_Node000025"><a xlink:title=" ">
<path fill="none" stroke="#63b8ff" d="M998.14,-125.77C1010.26,-116.68 1025.72,-105.09 1037.68,-96.11"/>
<polygon fill="#63b8ff" stroke="#63b8ff" points="995.91,-123.07 990.01,-131.87 1000.11,-128.67 995.91,-123.07"/>
</a>
</g>
</g>
<!-- Node26 -->
<g id="Node000026" class="node">
<title>Node26</title>
<g id="a_Node000026"><a xlink:href="../../db/d6d/MeshMaterialVariableScalarTpl3_8cc_source.html" target="_top" xlink:title=" ">
<polygon fill="white" stroke="#666666" points="1304,-96 1151,-96 1151,-66 1304,-66 1304,-96"/>
<text text-anchor="start" x="1159" y="-84" font-family="Helvetica,sans-Serif" font-size="10.00">MeshMaterialVariableScalar</text>
<text text-anchor="middle" x="1227.5" y="-73" font-family="Helvetica,sans-Serif" font-size="10.00">Tpl3.cc</text>
</a>
</g>
</g>
<!-- Node23&#45;&gt;Node26 -->
<g id="edge28_Node000023_Node000026" class="edge">
<title>Node23&#45;&gt;Node26</title>
<g id="a_edge28_Node000023_Node000026"><a xlink:title=" ">
<path fill="none" stroke="#63b8ff" d="M1024.54,-129.68C1064.85,-120.21 1123.68,-106.39 1167.64,-96.06"/>
<polygon fill="#63b8ff" stroke="#63b8ff" points="1023.64,-126.3 1014.71,-131.99 1025.24,-133.11 1023.64,-126.3"/>
</a>
</g>
</g>
<!-- Node29&#45;&gt;Node5 -->
<g id="edge37_Node000029_Node000005" class="edge">
<title>Node29&#45;&gt;Node5</title>
<g id="a_edge37_Node000029_Node000005"><a xlink:title=" ">
<path fill="none" stroke="#63b8ff" d="M1655.63,-68.19C1652.9,-67.37 1650.17,-66.62 1647.5,-66 1512.45,-34.36 1474.97,-48.44 1337.5,-30 1325.17,-28.35 1311.93,-26.42 1299.45,-24.54"/>
<polygon fill="#63b8ff" stroke="#63b8ff" points="1654.72,-71.58 1665.31,-71.4 1656.92,-64.93 1654.72,-71.58"/>
</a>
</g>
</g>
<!-- Node29&#45;&gt;Node6 -->
<g id="edge38_Node000029_Node000006" class="edge">
<title>Node29&#45;&gt;Node6</title>
<g id="a_edge38_Node000029_Node000006"><a xlink:title=" ">
<path fill="none" stroke="#63b8ff" d="M1716.13,-67.36C1745.69,-54.75 1790.31,-35.71 1816.11,-24.7"/>
<polygon fill="#63b8ff" stroke="#63b8ff" points="1714.55,-64.23 1706.73,-71.37 1717.3,-70.66 1714.55,-64.23"/>
</a>
</g>
</g>
<!-- Node29&#45;&gt;Node10 -->
<g id="edge41_Node000029_Node000010" class="edge">
<title>Node29&#45;&gt;Node10</title>
<g id="a_edge41_Node000029_Node000010"><a xlink:title=" ">
<path fill="none" stroke="#63b8ff" d="M1656.87,-68.28C1653.74,-67.37 1650.58,-66.58 1647.5,-66 1382.97,-15.9 704.69,-53.67 436.5,-30 433.43,-29.73 430.3,-29.42 427.15,-29.09"/>
<polygon fill="#63b8ff" stroke="#63b8ff" points="1656,-71.68 1666.6,-71.49 1658.2,-65.04 1656,-71.68"/>
</a>
</g>
</g>
<!-- Node29&#45;&gt;Node12 -->
<g id="edge42_Node000029_Node000012" class="edge">
<title>Node29&#45;&gt;Node12</title>
<g id="a_edge42_Node000029_Node000012"><a xlink:title=" ">
<path fill="none" stroke="#63b8ff" d="M1656.66,-68.24C1653.6,-67.35 1650.51,-66.58 1647.5,-66 1424.55,-23.14 852.6,-50.58 626.5,-30 612.06,-28.69 596.46,-26.65 582.16,-24.53"/>
<polygon fill="#63b8ff" stroke="#63b8ff" points="1655.6,-71.58 1666.19,-71.37 1657.78,-64.93 1655.6,-71.58"/>
</a>
</g>
</g>
<!-- Node30 -->
<g id="Node000030" class="node">
<title>Node30</title>
<g id="a_Node000030"><a xlink:href="../../d4/d56/Accelerator_8cc_source.html" target="_top" xlink:title=" ">
<polygon fill="white" stroke="#666666" points="1431,-24.5 1346,-24.5 1346,-5.5 1431,-5.5 1431,-24.5"/>
<text text-anchor="middle" x="1388.5" y="-12.5" font-family="Helvetica,sans-Serif" font-size="10.00">Accelerator.cc</text>
</a>
</g>
</g>
<!-- Node29&#45;&gt;Node30 -->
<g id="edge35_Node000029_Node000030" class="edge">
<title>Node29&#45;&gt;Node30</title>
<g id="a_edge35_Node000029_Node000030"><a xlink:title=" ">
<path fill="none" stroke="#63b8ff" d="M1655.12,-68.21C1652.56,-67.41 1650,-66.66 1647.5,-66 1557.22,-42.14 1531.68,-50.16 1440.5,-30 1433.29,-28.41 1425.58,-26.46 1418.36,-24.54"/>
<polygon fill="#63b8ff" stroke="#63b8ff" points="1654.25,-71.61 1664.84,-71.48 1656.48,-64.98 1654.25,-71.61"/>
</a>
</g>
</g>
<!-- Node31 -->
<g id="Node000031" class="node">
<title>Node31</title>
<g id="a_Node000031"><a xlink:href="../../d6/ddd/AllCellToAllEnvCellConverter_8cc_source.html" target="_top" xlink:title=" ">
<polygon fill="white" stroke="#666666" points="1618,-24.5 1449,-24.5 1449,-5.5 1618,-5.5 1618,-24.5"/>
<text text-anchor="middle" x="1533.5" y="-12.5" font-family="Helvetica,sans-Serif" font-size="10.00">AllCellToAllEnvCellConverter.cc</text>
</a>
</g>
</g>
<!-- Node29&#45;&gt;Node31 -->
<g id="edge36_Node000029_Node000031" class="edge">
<title>Node29&#45;&gt;Node31</title>
<g id="a_edge36_Node000029_Node000031"><a xlink:title=" ">
<path fill="none" stroke="#63b8ff" d="M1656.28,-67.36C1626.13,-54.75 1580.61,-35.71 1554.3,-24.7"/>
<polygon fill="#63b8ff" stroke="#63b8ff" points="1655.29,-70.74 1665.87,-71.37 1657.99,-64.28 1655.29,-70.74"/>
</a>
</g>
</g>
<!-- Node32 -->
<g id="Node000032" class="node">
<title>Node32</title>
<g id="a_Node000032"><a xlink:href="../../df/d7b/GenericReducer_8h_source.html" target="_top" xlink:title=" ">
<polygon fill="white" stroke="#666666" points="1737.5,-24.5 1635.5,-24.5 1635.5,-5.5 1737.5,-5.5 1737.5,-24.5"/>
<text text-anchor="middle" x="1686.5" y="-12.5" font-family="Helvetica,sans-Serif" font-size="10.00">GenericReducer.h</text>
</a>
</g>
</g>
<!-- Node29&#45;&gt;Node32 -->
<g id="edge39_Node000029_Node000032" class="edge">
<title>Node29&#45;&gt;Node32</title>
<g id="a_edge39_Node000029_Node000032"><a xlink:title=" ">
<path fill="none" stroke="#63b8ff" d="M1680.31,-61.45C1679.25,-49.43 1679.7,-34.32 1681.65,-24.91"/>
<polygon fill="#63b8ff" stroke="#63b8ff" points="1676.85,-61.96 1681.71,-71.37 1683.78,-60.98 1676.85,-61.96"/>
</a>
</g>
</g>
<!-- Node32&#45;&gt;Node29 -->
<g id="edge40_Node000032_Node000029" class="edge">
<title>Node32&#45;&gt;Node29</title>
<g id="a_edge40_Node000032_Node000029"><a xlink:title=" ">
<path fill="none" stroke="#63b8ff" d="M1692.72,-34.9C1693.75,-46.98 1693.28,-62.07 1691.29,-71.37"/>
<polygon fill="#63b8ff" stroke="#63b8ff" points="1696.18,-34.34 1691.35,-24.91 1689.24,-35.29 1696.18,-34.34"/>
</a>
</g>
</g>
<!-- Node33&#45;&gt;Node7 -->
<g id="edge44_Node000033_Node000007" class="edge">
<title>Node33&#45;&gt;Node7</title>
<g id="a_edge44_Node000033_Node000007"><a xlink:title=" ">
<path fill="none" stroke="#63b8ff" d="M450.36,-183.42C424.21,-173.59 387.91,-159.95 364.57,-151.17"/>
<polygon fill="#63b8ff" stroke="#63b8ff" points="449.25,-186.74 459.85,-186.98 451.72,-180.19 449.25,-186.74"/>
</a>
</g>
</g>
<!-- Node33&#45;&gt;Node13 -->
<g id="edge45_Node000033_Node000013" class="edge">
<title>Node33&#45;&gt;Node13</title>
<g id="a_edge45_Node000033_Node000013"><a xlink:title=" ">
<path fill="none" stroke="#63b8ff" d="M521.58,-184.06C555.41,-174.15 603.58,-160.04 634.19,-151.08"/>
<polygon fill="#63b8ff" stroke="#63b8ff" points="520.19,-180.82 511.58,-186.98 522.16,-187.53 520.19,-180.82"/>
</a>
</g>
</g>
</g>
</svg>
