<?xml version="1.0" encoding="UTF-8" standalone="no"?>
<!DOCTYPE svg PUBLIC "-//W3C//DTD SVG 1.1//EN"
 "http://www.w3.org/Graphics/SVG/1.1/DTD/svg11.dtd">
<!-- Generated by graphviz version 2.43.0 (0)
 -->
<!-- Title: Arcane::MessagePassing::Mpi::SerializeByteConverter&lt; SpanType &gt; Pages: 1 -->
<svg width="165pt" height="1084pt"
 viewBox="0.00 0.00 165.00 1084.00" xmlns="http://www.w3.org/2000/svg" xmlns:xlink="http://www.w3.org/1999/xlink">
<g id="graph0" class="graph" transform="scale(1 1) rotate(0) translate(4 1080)">
<title>Arcane::MessagePassing::Mpi::SerializeByteConverter&lt; SpanType &gt;</title>
<!-- Node1 -->
<g id="Node000001" class="node">
<title>Node1</title>
<g id="a_Node000001"><a xlink:title="Wrappeur pour envoyer un tableau d&#39;octets d&#39;un sérialiseur.">
<polygon fill="#999999" stroke="transparent" points="155,-161 2,-161 2,0 155,0 155,-161"/>
<text text-anchor="start" x="7.5" y="-148.5" font-family="Helvetica,sans-Serif" font-size="10.00">Arcane::MessagePassing</text>
<text text-anchor="start" x="7.5" y="-137.5" font-family="Helvetica,sans-Serif" font-size="10.00">::Mpi::SerializeByteConverter</text>
<text text-anchor="start" x="44" y="-126.5" font-family="Helvetica,sans-Serif" font-size="10.00">&lt; SpanType &gt;</text>
<text text-anchor="start" x="11.5" y="-111.5" font-family="Helvetica,sans-Serif" font-size="10.00">&#45;</text>
<text text-anchor="start" x="24.5" y="-111.5" font-family="Helvetica,sans-Serif" font-size="10.00">m_datatype</text>
<text text-anchor="start" x="11.5" y="-96.5" font-family="Helvetica,sans-Serif" font-size="10.00">&#45;</text>
<text text-anchor="start" x="24.5" y="-96.5" font-family="Helvetica,sans-Serif" font-size="10.00">m_final_size</text>
<text text-anchor="start" x="9" y="-81.5" font-family="Helvetica,sans-Serif" font-size="10.00">+</text>
<text text-anchor="start" x="24.5" y="-81.5" font-family="Helvetica,sans-Serif" font-size="10.00">SerializeByteConverter()</text>
<text text-anchor="start" x="9" y="-66.5" font-family="Helvetica,sans-Serif" font-size="10.00">+</text>
<text text-anchor="start" x="24.5" y="-66.5" font-family="Helvetica,sans-Serif" font-size="10.00">data()</text>
<text text-anchor="start" x="9" y="-51.5" font-family="Helvetica,sans-Serif" font-size="10.00">+</text>
<text text-anchor="start" x="24.5" y="-51.5" font-family="Helvetica,sans-Serif" font-size="10.00">size()</text>
<text text-anchor="start" x="9" y="-36.5" font-family="Helvetica,sans-Serif" font-size="10.00">+</text>
<text text-anchor="start" x="24.5" y="-36.5" font-family="Helvetica,sans-Serif" font-size="10.00">messageSize()</text>
<text text-anchor="start" x="9" y="-21.5" font-family="Helvetica,sans-Serif" font-size="10.00">+</text>
<text text-anchor="start" x="24.5" y="-21.5" font-family="Helvetica,sans-Serif" font-size="10.00">elementSize()</text>
<text text-anchor="start" x="9" y="-6.5" font-family="Helvetica,sans-Serif" font-size="10.00">+</text>
<text text-anchor="start" x="24.5" y="-6.5" font-family="Helvetica,sans-Serif" font-size="10.00">datatype()</text>
<polygon fill="#666666" stroke="#666666" points="2.5,-121.5 2.5,-121.5 155.5,-121.5 155.5,-121.5 2.5,-121.5"/>
<polygon fill="#666666" stroke="#666666" points="2.5,-91.5 2.5,-91.5 22.5,-91.5 22.5,-91.5 2.5,-91.5"/>
<polygon fill="#666666" stroke="#666666" points="22.5,-91.5 22.5,-91.5 155.5,-91.5 155.5,-91.5 22.5,-91.5"/>
<polygon fill="none" stroke="#666666" points="2,0 2,-161 155,-161 155,0 2,0"/>
</a>
</g>
</g>
<!-- Node2 -->
<g id="Node000002" class="node">
<title>Node2</title>
<g id="a_Node000002"><a xlink:href="../../d2/d5e/classArcane_1_1Span.html" target="_top" xlink:title=" ">
<polygon fill="white" stroke="transparent" points="150,-452 7,-452 7,-208 150,-208 150,-452"/>
<text text-anchor="start" x="12.5" y="-440" font-family="Helvetica,sans-Serif" font-size="10.00">Arcane::Span&lt; SpanType &gt;</text>
<text text-anchor="start" x="77" y="-425" font-family="Helvetica,sans-Serif" font-size="10.00"> </text>
<text text-anchor="start" x="23.5" y="-410" font-family="Helvetica,sans-Serif" font-size="10.00">+</text>
<text text-anchor="start" x="48.5" y="-410" font-family="Helvetica,sans-Serif" font-size="10.00">Span()</text>
<text text-anchor="start" x="23.5" y="-395" font-family="Helvetica,sans-Serif" font-size="10.00">+</text>
<text text-anchor="start" x="48.5" y="-395" font-family="Helvetica,sans-Serif" font-size="10.00">Span()</text>
<text text-anchor="start" x="23.5" y="-380" font-family="Helvetica,sans-Serif" font-size="10.00">+</text>
<text text-anchor="start" x="48.5" y="-380" font-family="Helvetica,sans-Serif" font-size="10.00">Span()</text>
<text text-anchor="start" x="23.5" y="-365" font-family="Helvetica,sans-Serif" font-size="10.00">+</text>
<text text-anchor="start" x="48.5" y="-365" font-family="Helvetica,sans-Serif" font-size="10.00">Span()</text>
<text text-anchor="start" x="23.5" y="-350" font-family="Helvetica,sans-Serif" font-size="10.00">+</text>
<text text-anchor="start" x="48.5" y="-350" font-family="Helvetica,sans-Serif" font-size="10.00">Span()</text>
<text text-anchor="start" x="23.5" y="-335" font-family="Helvetica,sans-Serif" font-size="10.00">+</text>
<text text-anchor="start" x="48.5" y="-335" font-family="Helvetica,sans-Serif" font-size="10.00">Span()</text>
<text text-anchor="start" x="23.5" y="-320" font-family="Helvetica,sans-Serif" font-size="10.00">+</text>
<text text-anchor="start" x="48.5" y="-320" font-family="Helvetica,sans-Serif" font-size="10.00">Span()</text>
<text text-anchor="start" x="23.5" y="-305" font-family="Helvetica,sans-Serif" font-size="10.00">+</text>
<text text-anchor="start" x="48.5" y="-305" font-family="Helvetica,sans-Serif" font-size="10.00">Span()</text>
<text text-anchor="start" x="23.5" y="-290" font-family="Helvetica,sans-Serif" font-size="10.00">+</text>
<text text-anchor="start" x="48.5" y="-290" font-family="Helvetica,sans-Serif" font-size="10.00">Span()</text>
<text text-anchor="start" x="23.5" y="-275" font-family="Helvetica,sans-Serif" font-size="10.00">+</text>
<text text-anchor="start" x="48.5" y="-275" font-family="Helvetica,sans-Serif" font-size="10.00">operator=()</text>
<text text-anchor="start" x="48.5" y="-260" font-family="Helvetica,sans-Serif" font-size="10.00">et 41 de plus...</text>
<text text-anchor="start" x="23.5" y="-245" font-family="Helvetica,sans-Serif" font-size="10.00">+</text>
<text text-anchor="start" x="48.5" y="-245" font-family="Helvetica,sans-Serif" font-size="10.00">create()</text>
<text text-anchor="start" x="23.5" y="-230" font-family="Helvetica,sans-Serif" font-size="10.00">+</text>
<text text-anchor="start" x="48.5" y="-230" font-family="Helvetica,sans-Serif" font-size="10.00">create()</text>
<text text-anchor="start" x="23.5" y="-215" font-family="Helvetica,sans-Serif" font-size="10.00">+</text>
<text text-anchor="start" x="48.5" y="-215" font-family="Helvetica,sans-Serif" font-size="10.00">create()</text>
<polygon fill="#666666" stroke="#666666" points="7.5,-435 7.5,-435 150.5,-435 150.5,-435 7.5,-435"/>
<polygon fill="#666666" stroke="#666666" points="7.5,-420 7.5,-420 150.5,-420 150.5,-420 7.5,-420"/>
<polygon fill="none" stroke="#666666" points="7,-208 7,-452 150,-452 150,-208 7,-208"/>
</a>
</g>
</g>
<!-- Node2&#45;&gt;Node1 -->
<g id="edge1_Node000001_Node000002" class="edge">
<title>Node2&#45;&gt;Node1</title>
<g id="a_edge1_Node000001_Node000002"><a xlink:title=" ">
<path fill="none" stroke="#63b8ff" d="M78.5,-207.79C78.5,-196.18 78.5,-184.55 78.5,-173.3"/>
<polygon fill="none" stroke="#63b8ff" points="78.5,-173.25 74.5,-167.25 78.5,-161.25 82.5,-167.25 78.5,-173.25"/>
</a>
</g>
<text text-anchor="middle" x="104" y="-182" font-family="Helvetica,sans-Serif" font-size="10.00" fill="grey"> &#45;m_buffer</text>
</g>
<!-- Node3 -->
<g id="Node000003" class="node">
<title>Node3</title>
<g id="a_Node000003"><a xlink:href="../../df/d52/classArcane_1_1SpanImpl.html" target="_top" xlink:title=" ">
<polygon fill="white" stroke="transparent" points="157,-954 0,-954 0,-489 157,-489 157,-954"/>
<text text-anchor="start" x="5.5" y="-941.5" font-family="Helvetica,sans-Serif" font-size="10.00">Arcane::SpanImpl&lt; SpanType,</text>
<text text-anchor="start" x="15" y="-930.5" font-family="Helvetica,sans-Serif" font-size="10.00"> Int64, Extent, MinValue &gt;</text>
<text text-anchor="start" x="21" y="-915.5" font-family="Helvetica,sans-Serif" font-size="10.00">&#45;</text>
<text text-anchor="start" x="45.5" y="-915.5" font-family="Helvetica,sans-Serif" font-size="10.00">m_ptr</text>
<text text-anchor="start" x="21" y="-900.5" font-family="Helvetica,sans-Serif" font-size="10.00">&#45;</text>
<text text-anchor="start" x="45.5" y="-900.5" font-family="Helvetica,sans-Serif" font-size="10.00">m_ptr</text>
<text text-anchor="start" x="21" y="-885.5" font-family="Helvetica,sans-Serif" font-size="10.00">&#45;</text>
<text text-anchor="start" x="45.5" y="-885.5" font-family="Helvetica,sans-Serif" font-size="10.00">m_ptr</text>
<text text-anchor="start" x="18.5" y="-870.5" font-family="Helvetica,sans-Serif" font-size="10.00">+</text>
<text text-anchor="start" x="45.5" y="-870.5" font-family="Helvetica,sans-Serif" font-size="10.00">SpanImpl()</text>
<text text-anchor="start" x="18.5" y="-855.5" font-family="Helvetica,sans-Serif" font-size="10.00">+</text>
<text text-anchor="start" x="45.5" y="-855.5" font-family="Helvetica,sans-Serif" font-size="10.00">SpanImpl()</text>
<text text-anchor="start" x="18.5" y="-840.5" font-family="Helvetica,sans-Serif" font-size="10.00">+</text>
<text text-anchor="start" x="45.5" y="-840.5" font-family="Helvetica,sans-Serif" font-size="10.00">SpanImpl()</text>
<text text-anchor="start" x="18.5" y="-825.5" font-family="Helvetica,sans-Serif" font-size="10.00">+</text>
<text text-anchor="start" x="45.5" y="-825.5" font-family="Helvetica,sans-Serif" font-size="10.00">SpanImpl()</text>
<text text-anchor="start" x="18.5" y="-810.5" font-family="Helvetica,sans-Serif" font-size="10.00">+</text>
<text text-anchor="start" x="45.5" y="-810.5" font-family="Helvetica,sans-Serif" font-size="10.00">SpanImpl()</text>
<text text-anchor="start" x="18.5" y="-795.5" font-family="Helvetica,sans-Serif" font-size="10.00">+</text>
<text text-anchor="start" x="45.5" y="-795.5" font-family="Helvetica,sans-Serif" font-size="10.00">operator=()</text>
<text text-anchor="start" x="18.5" y="-780.5" font-family="Helvetica,sans-Serif" font-size="10.00">+</text>
<text text-anchor="start" x="45.5" y="-780.5" font-family="Helvetica,sans-Serif" font-size="10.00">operator[]()</text>
<text text-anchor="start" x="18.5" y="-765.5" font-family="Helvetica,sans-Serif" font-size="10.00">+</text>
<text text-anchor="start" x="45.5" y="-765.5" font-family="Helvetica,sans-Serif" font-size="10.00">operator()()</text>
<text text-anchor="start" x="18.5" y="-750.5" font-family="Helvetica,sans-Serif" font-size="10.00">+</text>
<text text-anchor="start" x="45.5" y="-750.5" font-family="Helvetica,sans-Serif" font-size="10.00">item()</text>
<text text-anchor="start" x="18.5" y="-735.5" font-family="Helvetica,sans-Serif" font-size="10.00">+</text>
<text text-anchor="start" x="45.5" y="-735.5" font-family="Helvetica,sans-Serif" font-size="10.00">setItem()</text>
<text text-anchor="start" x="45.5" y="-720.5" font-family="Helvetica,sans-Serif" font-size="10.00">et 104 de plus...</text>
<text text-anchor="start" x="18.5" y="-705.5" font-family="Helvetica,sans-Serif" font-size="10.00">+</text>
<text text-anchor="start" x="45.5" y="-705.5" font-family="Helvetica,sans-Serif" font-size="10.00">create()</text>
<text text-anchor="start" x="18.5" y="-690.5" font-family="Helvetica,sans-Serif" font-size="10.00">+</text>
<text text-anchor="start" x="45.5" y="-690.5" font-family="Helvetica,sans-Serif" font-size="10.00">create()</text>
<text text-anchor="start" x="18.5" y="-675.5" font-family="Helvetica,sans-Serif" font-size="10.00">+</text>
<text text-anchor="start" x="45.5" y="-675.5" font-family="Helvetica,sans-Serif" font-size="10.00">create()</text>
<text text-anchor="start" x="18.5" y="-660.5" font-family="Helvetica,sans-Serif" font-size="10.00">#</text>
<text text-anchor="start" x="45.5" y="-660.5" font-family="Helvetica,sans-Serif" font-size="10.00">_setArray()</text>
<text text-anchor="start" x="18.5" y="-645.5" font-family="Helvetica,sans-Serif" font-size="10.00">#</text>
<text text-anchor="start" x="45.5" y="-645.5" font-family="Helvetica,sans-Serif" font-size="10.00">_setPtr()</text>
<text text-anchor="start" x="18.5" y="-630.5" font-family="Helvetica,sans-Serif" font-size="10.00">#</text>
<text text-anchor="start" x="45.5" y="-630.5" font-family="Helvetica,sans-Serif" font-size="10.00">_setSize()</text>
<text text-anchor="start" x="18.5" y="-615.5" font-family="Helvetica,sans-Serif" font-size="10.00">#</text>
<text text-anchor="start" x="45.5" y="-615.5" font-family="Helvetica,sans-Serif" font-size="10.00">_setArray()</text>
<text text-anchor="start" x="18.5" y="-600.5" font-family="Helvetica,sans-Serif" font-size="10.00">#</text>
<text text-anchor="start" x="45.5" y="-600.5" font-family="Helvetica,sans-Serif" font-size="10.00">_setPtr()</text>
<text text-anchor="start" x="18.5" y="-585.5" font-family="Helvetica,sans-Serif" font-size="10.00">#</text>
<text text-anchor="start" x="45.5" y="-585.5" font-family="Helvetica,sans-Serif" font-size="10.00">_setSize()</text>
<text text-anchor="start" x="18.5" y="-570.5" font-family="Helvetica,sans-Serif" font-size="10.00">#</text>
<text text-anchor="start" x="45.5" y="-570.5" font-family="Helvetica,sans-Serif" font-size="10.00">_setArray()</text>
<text text-anchor="start" x="18.5" y="-555.5" font-family="Helvetica,sans-Serif" font-size="10.00">#</text>
<text text-anchor="start" x="45.5" y="-555.5" font-family="Helvetica,sans-Serif" font-size="10.00">_setPtr()</text>
<text text-anchor="start" x="18.5" y="-540.5" font-family="Helvetica,sans-Serif" font-size="10.00">#</text>
<text text-anchor="start" x="45.5" y="-540.5" font-family="Helvetica,sans-Serif" font-size="10.00">_setSize()</text>
<text text-anchor="start" x="21" y="-525.5" font-family="Helvetica,sans-Serif" font-size="10.00">&#45;</text>
<text text-anchor="start" x="45.5" y="-525.5" font-family="Helvetica,sans-Serif" font-size="10.00">_min()</text>
<text text-anchor="start" x="21" y="-510.5" font-family="Helvetica,sans-Serif" font-size="10.00">&#45;</text>
<text text-anchor="start" x="45.5" y="-510.5" font-family="Helvetica,sans-Serif" font-size="10.00">_min()</text>
<text text-anchor="start" x="21" y="-495.5" font-family="Helvetica,sans-Serif" font-size="10.00">&#45;</text>
<text text-anchor="start" x="45.5" y="-495.5" font-family="Helvetica,sans-Serif" font-size="10.00">_min()</text>
<polygon fill="#666666" stroke="#666666" points="0.5,-925.5 0.5,-925.5 157.5,-925.5 157.5,-925.5 0.5,-925.5"/>
<polygon fill="#666666" stroke="#666666" points="0.5,-880.5 0.5,-880.5 43.5,-880.5 43.5,-880.5 0.5,-880.5"/>
<polygon fill="#666666" stroke="#666666" points="43.5,-880.5 43.5,-880.5 157.5,-880.5 157.5,-880.5 43.5,-880.5"/>
<polygon fill="none" stroke="#666666" points="0,-489 0,-954 157,-954 157,-489 0,-489"/>
</a>
</g>
</g>
<!-- Node3&#45;&gt;Node2 -->
<g id="edge2_Node000002_Node000003" class="edge">
<title>Node3&#45;&gt;Node2</title>
<g id="a_edge2_Node000002_Node000003"><a xlink:title=" ">
<path fill="none" stroke="#63b8ff" d="M78.5,-478.73C78.5,-469.8 78.5,-461.02 78.5,-452.45"/>
<polygon fill="none" stroke="#63b8ff" points="75,-478.86 78.5,-488.86 82,-478.86 75,-478.86"/>
</a>
</g>
</g>
<!-- Node4 -->
<g id="Node000004" class="node">
<title>Node4</title>
<g id="a_Node000004"><a xlink:href="../../de/d3d/classArcane_1_1Impl_1_1ExtentStorage.html" target="_top" xlink:title=" ">
<polygon fill="white" stroke="transparent" points="152,-1076 5,-1076 5,-1001 152,-1001 152,-1076"/>
<text text-anchor="start" x="10.5" y="-1063.5" font-family="Helvetica,sans-Serif" font-size="10.00">Arcane::Impl::ExtentStorage</text>
<text text-anchor="start" x="36.5" y="-1052.5" font-family="Helvetica,sans-Serif" font-size="10.00">&lt; Int64, Extent &gt;</text>
<text text-anchor="start" x="24" y="-1037.5" font-family="Helvetica,sans-Serif" font-size="10.00">&#45;</text>
<text text-anchor="start" x="46.5" y="-1037.5" font-family="Helvetica,sans-Serif" font-size="10.00">m_size</text>
<text text-anchor="start" x="21.5" y="-1022.5" font-family="Helvetica,sans-Serif" font-size="10.00">+</text>
<text text-anchor="start" x="46.5" y="-1022.5" font-family="Helvetica,sans-Serif" font-size="10.00">ExtentStorage()</text>
<text text-anchor="start" x="21.5" y="-1007.5" font-family="Helvetica,sans-Serif" font-size="10.00">+</text>
<text text-anchor="start" x="46.5" y="-1007.5" font-family="Helvetica,sans-Serif" font-size="10.00">size()</text>
<polygon fill="#666666" stroke="#666666" points="5.5,-1047.5 5.5,-1047.5 152.5,-1047.5 152.5,-1047.5 5.5,-1047.5"/>
<polygon fill="#666666" stroke="#666666" points="5.5,-1032.5 5.5,-1032.5 44.5,-1032.5 44.5,-1032.5 5.5,-1032.5"/>
<polygon fill="#666666" stroke="#666666" points="44.5,-1032.5 44.5,-1032.5 152.5,-1032.5 152.5,-1032.5 44.5,-1032.5"/>
<polygon fill="none" stroke="#666666" points="5,-1001 5,-1076 152,-1076 152,-1001 5,-1001"/>
</a>
</g>
</g>
<!-- Node4&#45;&gt;Node3 -->
<g id="edge3_Node000003_Node000004" class="edge">
<title>Node4&#45;&gt;Node3</title>
<g id="a_edge3_Node000003_Node000004"><a xlink:title=" ">
<path fill="none" stroke="#63b8ff" d="M78.5,-1000.75C78.5,-990.68 78.5,-978.98 78.5,-966.17"/>
<polygon fill="none" stroke="#63b8ff" points="78.5,-966.11 74.5,-960.11 78.5,-954.11 82.5,-960.11 78.5,-966.11"/>
</a>
</g>
<text text-anchor="middle" x="99.5" y="-975" font-family="Helvetica,sans-Serif" font-size="10.00" fill="grey"> &#45;m_size</text>
</g>
</g>
</svg>
