<?xml version="1.0" encoding="UTF-8" standalone="no"?>
<!DOCTYPE svg PUBLIC "-//W3C//DTD SVG 1.1//EN"
 "http://www.w3.org/Graphics/SVG/1.1/DTD/svg11.dtd">
<!-- Generated by graphviz version 2.43.0 (0)
 -->
<!-- Title: MeshEnvironmentVariableRef.h Pages: 1 -->
<svg width="728pt" height="137pt"
 viewBox="0.00 0.00 727.50 137.00" xmlns="http://www.w3.org/2000/svg" xmlns:xlink="http://www.w3.org/1999/xlink">
<g id="graph0" class="graph" transform="scale(1 1) rotate(0) translate(4 133)">
<title>MeshEnvironmentVariableRef.h</title>
<!-- Node1 -->
<g id="Node000001" class="node">
<title>Node1</title>
<g id="a_Node000001"><a xlink:title=" ">
<polygon fill="#999999" stroke="#666666" points="406.5,-129 236.5,-129 236.5,-110 406.5,-110 406.5,-129"/>
<text text-anchor="middle" x="321.5" y="-117" font-family="Helvetica,sans-Serif" font-size="10.00">MeshEnvironmentVariableRef.h</text>
</a>
</g>
</g>
<!-- Node2 -->
<g id="Node000002" class="node">
<title>Node2</title>
<g id="a_Node000002"><a xlink:href="../../da/de8/MaterialVariableViews_8h.html" target="_top" xlink:title=" ">
<polygon fill="white" stroke="#666666" points="216,-74 81,-74 81,-55 216,-55 216,-74"/>
<text text-anchor="middle" x="148.5" y="-62" font-family="Helvetica,sans-Serif" font-size="10.00">MaterialVariableViews.h</text>
</a>
</g>
</g>
<!-- Node1&#45;&gt;Node2 -->
<g id="edge1_Node000001_Node000002" class="edge">
<title>Node1&#45;&gt;Node2</title>
<g id="a_edge1_Node000001_Node000002"><a xlink:title=" ">
<path fill="none" stroke="#63b8ff" d="M283.73,-106.93C251.41,-97.03 205.64,-83.01 176.51,-74.08"/>
<polygon fill="#63b8ff" stroke="#63b8ff" points="283.12,-110.4 293.7,-109.98 285.17,-103.71 283.12,-110.4"/>
</a>
</g>
</g>
<!-- Node5 -->
<g id="Node000005" class="node">
<title>Node5</title>
<g id="a_Node000005"><a xlink:href="../../dc/d70/MeshEnvironmentVariableRef_8cc_source.html" target="_top" xlink:title=" ">
<polygon fill="white" stroke="#666666" points="408.5,-74 234.5,-74 234.5,-55 408.5,-55 408.5,-74"/>
<text text-anchor="middle" x="321.5" y="-62" font-family="Helvetica,sans-Serif" font-size="10.00">MeshEnvironmentVariableRef.cc</text>
</a>
</g>
</g>
<!-- Node1&#45;&gt;Node5 -->
<g id="edge4_Node000001_Node000005" class="edge">
<title>Node1&#45;&gt;Node5</title>
<g id="a_edge4_Node000001_Node000005"><a xlink:title=" ">
<path fill="none" stroke="#63b8ff" d="M321.5,-99.66C321.5,-90.93 321.5,-80.99 321.5,-74.09"/>
<polygon fill="#63b8ff" stroke="#63b8ff" points="318,-99.75 321.5,-109.75 325,-99.75 318,-99.75"/>
</a>
</g>
</g>
<!-- Node6 -->
<g id="Node000006" class="node">
<title>Node6</title>
<g id="a_Node000006"><a xlink:href="../../dc/d40/materials_2MeshEnvironmentVariableRef_8h_source.html" target="_top" xlink:title=" ">
<polygon fill="white" stroke="#666666" points="596.5,-74 426.5,-74 426.5,-55 596.5,-55 596.5,-74"/>
<text text-anchor="middle" x="511.5" y="-62" font-family="Helvetica,sans-Serif" font-size="10.00">MeshEnvironmentVariableRef.h</text>
</a>
</g>
</g>
<!-- Node1&#45;&gt;Node6 -->
<g id="edge5_Node000001_Node000006" class="edge">
<title>Node1&#45;&gt;Node6</title>
<g id="a_edge5_Node000001_Node000006"><a xlink:title=" ">
<path fill="none" stroke="#63b8ff" d="M362.07,-107.18C397.6,-97.27 448.47,-83.08 480.73,-74.08"/>
<polygon fill="#63b8ff" stroke="#63b8ff" points="360.72,-103.93 352.03,-109.98 362.6,-110.67 360.72,-103.93"/>
</a>
</g>
</g>
<!-- Node3 -->
<g id="Node000003" class="node">
<title>Node3</title>
<g id="a_Node000003"><a xlink:href="../../de/d8b/MaterialHeatTestModule_8cc_source.html" target="_top" xlink:title=" ">
<polygon fill="white" stroke="#666666" points="149,-19 0,-19 0,0 149,0 149,-19"/>
<text text-anchor="middle" x="74.5" y="-7" font-family="Helvetica,sans-Serif" font-size="10.00">MaterialHeatTestModule.cc</text>
</a>
</g>
</g>
<!-- Node2&#45;&gt;Node3 -->
<g id="edge2_Node000002_Node000003" class="edge">
<title>Node2&#45;&gt;Node3</title>
<g id="a_edge2_Node000002_Node000003"><a xlink:title=" ">
<path fill="none" stroke="#63b8ff" d="M128.47,-49.15C115.09,-39.57 97.94,-27.29 86.61,-19.17"/>
<polygon fill="#63b8ff" stroke="#63b8ff" points="126.44,-52.01 136.61,-54.98 130.52,-46.32 126.44,-52.01"/>
</a>
</g>
</g>
<!-- Node4 -->
<g id="Node000004" class="node">
<title>Node4</title>
<g id="a_Node000004"><a xlink:href="../../d0/d32/MaterialVariableViews_8cc_source.html" target="_top" xlink:title=" ">
<polygon fill="white" stroke="#666666" points="307.5,-19 167.5,-19 167.5,0 307.5,0 307.5,-19"/>
<text text-anchor="middle" x="237.5" y="-7" font-family="Helvetica,sans-Serif" font-size="10.00">MaterialVariableViews.cc</text>
</a>
</g>
</g>
<!-- Node2&#45;&gt;Node4 -->
<g id="edge3_Node000002_Node000004" class="edge">
<title>Node2&#45;&gt;Node4</title>
<g id="a_edge3_Node000002_Node000004"><a xlink:title=" ">
<path fill="none" stroke="#63b8ff" d="M171.68,-49.7C187.89,-40.04 209.05,-27.44 222.94,-19.17"/>
<polygon fill="#63b8ff" stroke="#63b8ff" points="169.6,-46.86 162.8,-54.98 173.18,-52.88 169.6,-46.86"/>
</a>
</g>
</g>
<!-- Node7 -->
<g id="Node000007" class="node">
<title>Node7</title>
<g id="a_Node000007"><a xlink:href="../../db/dee/MeshMaterialSimdUnitTest_8cc_source.html" target="_top" xlink:title=" ">
<polygon fill="white" stroke="#666666" points="539,-19 378,-19 378,0 539,0 539,-19"/>
<text text-anchor="middle" x="458.5" y="-7" font-family="Helvetica,sans-Serif" font-size="10.00">MeshMaterialSimdUnitTest.cc</text>
</a>
</g>
</g>
<!-- Node6&#45;&gt;Node7 -->
<g id="edge6_Node000006_Node000007" class="edge">
<title>Node6&#45;&gt;Node7</title>
<g id="a_edge6_Node000006_Node000007"><a xlink:title=" ">
<path fill="none" stroke="#63b8ff" d="M495.52,-47.52C486.18,-38.18 474.75,-26.75 467.09,-19.09"/>
<polygon fill="#63b8ff" stroke="#63b8ff" points="493.2,-50.15 502.75,-54.75 498.15,-45.2 493.2,-50.15"/>
</a>
</g>
</g>
<!-- Node8 -->
<g id="Node000008" class="node">
<title>Node8</title>
<g id="a_Node000008"><a xlink:href="../../d9/d14/MeshMaterialTesterModule_8cc_source.html" target="_top" xlink:title=" ">
<polygon fill="white" stroke="#666666" points="719.5,-19 557.5,-19 557.5,0 719.5,0 719.5,-19"/>
<text text-anchor="middle" x="638.5" y="-7" font-family="Helvetica,sans-Serif" font-size="10.00">MeshMaterialTesterModule.cc</text>
</a>
</g>
</g>
<!-- Node6&#45;&gt;Node8 -->
<g id="edge7_Node000006_Node000008" class="edge">
<title>Node6&#45;&gt;Node8</title>
<g id="a_edge7_Node000006_Node000008"><a xlink:title=" ">
<path fill="none" stroke="#63b8ff" d="M541.38,-51.03C564.87,-41.23 596.97,-27.83 617.72,-19.17"/>
<polygon fill="#63b8ff" stroke="#63b8ff" points="539.79,-47.9 531.9,-54.98 542.48,-54.36 539.79,-47.9"/>
</a>
</g>
</g>
</g>
</svg>
