<?xml version="1.0" encoding="UTF-8" standalone="no"?>
<!DOCTYPE svg PUBLIC "-//W3C//DTD SVG 1.1//EN"
 "http://www.w3.org/Graphics/SVG/1.1/DTD/svg11.dtd">
<!-- Generated by graphviz version 2.43.0 (0)
 -->
<!-- Title: Arcane::Accelerator::Impl::AcceleratorSpecificMemoryCopy&lt; DataType, Extent &gt; Pages: 1 -->
<!--zoomable 590 -->

<svg id="main" version="1.1" xmlns="http://www.w3.org/2000/svg" xmlns:xlink="http://www.w3.org/1999/xlink" xml:space="preserve" onload="init(evt)">

<style type="text/css"><![CDATA[
.node, .edge {opacity: 0.7;}
.node.selected, .edge.selected {opacity: 1;}
.edge:hover path { stroke: red; }
.edge:hover polygon { stroke: red; fill: red; }
]]></style>

<defs>
  <circle id="rim" cx="0" cy="0" r="7"/>
  <circle id="rim2" cx="0" cy="0" r="3.5"/>
  <g id="zoomPlus">
    <use xlink:href="#rim" fill="#404040"><set attributeName="fill" to="#808080" begin="zoomplus.mouseover" end="zoomplus.mouseout"/></use>
    <path d="M-4,0h8M0,-4v8" fill="none" stroke="white" stroke-width="1.5" pointer-events="none"/>
  </g>
  <g id="zoomMin">
    <use xlink:href="#rim" fill="#404040"><set attributeName="fill" to="#808080" begin="zoomminus.mouseover" end="zoomminus.mouseout"/></use>
    <path d="M-4,0h8" fill="none" stroke="white" stroke-width="1.5" pointer-events="none"/>
  </g>
  <g id="arrowUp" transform="translate(30 24)">
    <use xlink:href="#rim"/>
    <path pointer-events="none" fill="none" stroke="white" stroke-width="1.5" d="M0,-3.0v7 M-2.5,-0.5L0,-3.0L2.5,-0.5"/>
  </g>
  <g id="arrowRight" transform="rotate(90) translate(36 -43)">
    <use xlink:href="#rim"/>
    <path pointer-events="none" fill="none" stroke="white" stroke-width="1.5" d="M0,-3.0v7 M-2.5,-0.5L0,-3.0L2.5,-0.5"/>
  </g>
  <g id="arrowDown" transform="rotate(180) translate(-30 -48)">
    <use xlink:href="#rim"/>
    <path pointer-events="none" fill="none" stroke="white" stroke-width="1.5" d="M0,-3.0v7 M-2.5,-0.5L0,-3.0L2.5,-0.5"/>
  </g>
  <g id="arrowLeft" transform="rotate(270) translate(-36 17)">
    <use xlink:href="#rim"/>
    <path pointer-events="none" fill="none" stroke="white" stroke-width="1.5" d="M0,-3.0v7 M-2.5,-0.5L0,-3.0L2.5,-0.5"/>
  </g>
  <g id="resetDef">
    <use xlink:href="#rim2" fill="#404040"><set attributeName="fill" to="#808080" begin="reset.mouseover" end="reset.mouseout"/></use>
  </g>
</defs>
<script type="application/ecmascript">
var viewWidth = 192;
var viewHeight = 590;
var sectionId = 'dynsection-0';
</script>
<script type="application/ecmascript" xlink:href="../../svg.min.js"/>
<svg id="graph" class="graph">
<g id="viewport">
<title>Arcane::Accelerator::Impl::AcceleratorSpecificMemoryCopy&lt; DataType, Extent &gt;</title>
<!-- Node1 -->
<g id="Node000001" class="node">
<title>Node1</title>
<g id="a_Node000001"><a xlink:title=" ">
<polygon fill="#999999" stroke="transparent" points="183,-251 1,-251 1,0 183,0 183,-251"/>
<text text-anchor="start" x="6" y="-238.5" font-family="Helvetica,sans-Serif" font-size="10.00">Arcane::Accelerator</text>
<text text-anchor="start" x="6" y="-227.5" font-family="Helvetica,sans-Serif" font-size="10.00">::Impl::AcceleratorSpecific</text>
<text text-anchor="start" x="6" y="-216.5" font-family="Helvetica,sans-Serif" font-size="10.00">MemoryCopy&lt; DataType, Extent &gt;</text>
<text text-anchor="start" x="28.5" y="-201.5" font-family="Helvetica,sans-Serif" font-size="10.00">+</text>
<text text-anchor="start" x="65" y="-201.5" font-family="Helvetica,sans-Serif" font-size="10.00">m_extent</text>
<text text-anchor="start" x="28.5" y="-186.5" font-family="Helvetica,sans-Serif" font-size="10.00">+</text>
<text text-anchor="start" x="65" y="-186.5" font-family="Helvetica,sans-Serif" font-size="10.00">copyFrom()</text>
<text text-anchor="start" x="28.5" y="-171.5" font-family="Helvetica,sans-Serif" font-size="10.00">+</text>
<text text-anchor="start" x="65" y="-171.5" font-family="Helvetica,sans-Serif" font-size="10.00">copyTo()</text>
<text text-anchor="start" x="28.5" y="-156.5" font-family="Helvetica,sans-Serif" font-size="10.00">+</text>
<text text-anchor="start" x="65" y="-156.5" font-family="Helvetica,sans-Serif" font-size="10.00">fill()</text>
<text text-anchor="start" x="28.5" y="-141.5" font-family="Helvetica,sans-Serif" font-size="10.00">+</text>
<text text-anchor="start" x="65" y="-141.5" font-family="Helvetica,sans-Serif" font-size="10.00">copyFrom()</text>
<text text-anchor="start" x="28.5" y="-126.5" font-family="Helvetica,sans-Serif" font-size="10.00">+</text>
<text text-anchor="start" x="65" y="-126.5" font-family="Helvetica,sans-Serif" font-size="10.00">copyTo()</text>
<text text-anchor="start" x="28.5" y="-111.5" font-family="Helvetica,sans-Serif" font-size="10.00">+</text>
<text text-anchor="start" x="65" y="-111.5" font-family="Helvetica,sans-Serif" font-size="10.00">fill()</text>
<text text-anchor="start" x="28.5" y="-96.5" font-family="Helvetica,sans-Serif" font-size="10.00">+</text>
<text text-anchor="start" x="65" y="-96.5" font-family="Helvetica,sans-Serif" font-size="10.00">_copyFrom()</text>
<text text-anchor="start" x="28.5" y="-81.5" font-family="Helvetica,sans-Serif" font-size="10.00">+</text>
<text text-anchor="start" x="65" y="-81.5" font-family="Helvetica,sans-Serif" font-size="10.00">_copyFrom()</text>
<text text-anchor="start" x="28.5" y="-66.5" font-family="Helvetica,sans-Serif" font-size="10.00">+</text>
<text text-anchor="start" x="65" y="-66.5" font-family="Helvetica,sans-Serif" font-size="10.00">_fill()</text>
<text text-anchor="start" x="28.5" y="-51.5" font-family="Helvetica,sans-Serif" font-size="10.00">+</text>
<text text-anchor="start" x="65" y="-51.5" font-family="Helvetica,sans-Serif" font-size="10.00">_fill()</text>
<text text-anchor="start" x="28.5" y="-36.5" font-family="Helvetica,sans-Serif" font-size="10.00">+</text>
<text text-anchor="start" x="65" y="-36.5" font-family="Helvetica,sans-Serif" font-size="10.00">_copyTo()</text>
<text text-anchor="start" x="28.5" y="-21.5" font-family="Helvetica,sans-Serif" font-size="10.00">+</text>
<text text-anchor="start" x="65" y="-21.5" font-family="Helvetica,sans-Serif" font-size="10.00">_copyTo()</text>
<text text-anchor="start" x="31" y="-6.5" font-family="Helvetica,sans-Serif" font-size="10.00">&#45;</text>
<text text-anchor="start" x="65" y="-6.5" font-family="Helvetica,sans-Serif" font-size="10.00">_toTrueType()</text>
<polygon fill="#666666" stroke="#666666" points="1,-211.5 1,-211.5 183,-211.5 183,-211.5 1,-211.5"/>
<polygon fill="#666666" stroke="#666666" points="1,-196.5 1,-196.5 63,-196.5 63,-196.5 1,-196.5"/>
<polygon fill="#666666" stroke="#666666" points="63,-196.5 63,-196.5 183,-196.5 183,-196.5 63,-196.5"/>
<polygon fill="none" stroke="#666666" points="1,0 1,-251 183,-251 183,0 1,0"/>
</a>
</g>
</g>
<!-- Node2 -->
<g id="Node000002" class="node">
<title>Node2</title>
<g id="a_Node000002"><a xlink:href="../../d7/dbe/classArcane_1_1Impl_1_1SpecificMemoryCopyBase.html" target="_top" xlink:title=" ">
<polygon fill="white" stroke="transparent" points="174.5,-392 9.5,-392 9.5,-287 174.5,-287 174.5,-392"/>
<text text-anchor="start" x="15" y="-379.5" font-family="Helvetica,sans-Serif" font-size="10.00">Arcane::Impl::SpecificMemory</text>
<text text-anchor="start" x="15" y="-368.5" font-family="Helvetica,sans-Serif" font-size="10.00">CopyBase&lt; DataType, Extent &gt;</text>
<text text-anchor="start" x="32" y="-353.5" font-family="Helvetica,sans-Serif" font-size="10.00">+</text>
<text text-anchor="start" x="63" y="-353.5" font-family="Helvetica,sans-Serif" font-size="10.00">m_extent</text>
<text text-anchor="start" x="32" y="-338.5" font-family="Helvetica,sans-Serif" font-size="10.00">+</text>
<text text-anchor="start" x="63" y="-338.5" font-family="Helvetica,sans-Serif" font-size="10.00">datatypeSize()</text>
<text text-anchor="start" x="32" y="-323.5" font-family="Helvetica,sans-Serif" font-size="10.00">#</text>
<text text-anchor="start" x="63" y="-323.5" font-family="Helvetica,sans-Serif" font-size="10.00">_toTrueType()</text>
<text text-anchor="start" x="32" y="-308.5" font-family="Helvetica,sans-Serif" font-size="10.00">#</text>
<text text-anchor="start" x="63" y="-308.5" font-family="Helvetica,sans-Serif" font-size="10.00">_toTrueType()</text>
<text text-anchor="start" x="34.5" y="-293.5" font-family="Helvetica,sans-Serif" font-size="10.00">&#45;</text>
<text text-anchor="start" x="63" y="-293.5" font-family="Helvetica,sans-Serif" font-size="10.00">typeSize()</text>
<polygon fill="#bfbfbf" stroke="#bfbfbf" points="10,-363.5 10,-363.5 175,-363.5 175,-363.5 10,-363.5"/>
<polygon fill="#bfbfbf" stroke="#bfbfbf" points="10,-348.5 10,-348.5 61,-348.5 61,-348.5 10,-348.5"/>
<polygon fill="#bfbfbf" stroke="#bfbfbf" points="61,-348.5 61,-348.5 175,-348.5 175,-348.5 61,-348.5"/>
<polygon fill="none" stroke="#bfbfbf" points="9.5,-287 9.5,-392 174.5,-392 174.5,-287 9.5,-287"/>
</a>
</g>
</g>
<!-- Node2&#45;&gt;Node1 -->
<g id="edge1_Node000001_Node000002" class="edge">
<title>Node2&#45;&gt;Node1</title>
<g id="a_edge1_Node000001_Node000002"><a xlink:title=" ">
<path fill="none" stroke="#63b8ff" d="M92,-276.82C92,-268.66 92,-260.07 92,-251.3"/>
<polygon fill="none" stroke="#63b8ff" points="88.5,-276.91 92,-286.91 95.5,-276.91 88.5,-276.91"/>
</a>
</g>
</g>
<!-- Node3 -->
<g id="Node000003" class="node">
<title>Node3</title>
<g id="a_Node000003"><a xlink:href="../../d8/d98/classArcane_1_1Impl_1_1ISpecificMemoryCopy.html" target="_top" xlink:title="Interface d&#39;un copieur mémoire spécialisé pour une taille de donnée.">
<polygon fill="white" stroke="transparent" points="184,-582 0,-582 0,-428 184,-428 184,-582"/>
<text text-anchor="start" x="5" y="-570" font-family="Helvetica,sans-Serif" font-size="10.00">Arcane::Impl::ISpecificMemoryCopy</text>
<text text-anchor="start" x="90" y="-555" font-family="Helvetica,sans-Serif" font-size="10.00"> </text>
<text text-anchor="start" x="14" y="-540" font-family="Helvetica,sans-Serif" font-size="10.00">+</text>
<text text-anchor="start" x="37" y="-540" font-family="Helvetica,sans-Serif" font-size="10.00">~ISpecificMemoryCopy()</text>
<text text-anchor="start" x="14" y="-525" font-family="Helvetica,sans-Serif" font-size="10.00">+</text>
<text text-anchor="start" x="37" y="-525" font-family="Helvetica,sans-Serif" font-size="10.00">copyFrom()</text>
<text text-anchor="start" x="14" y="-510" font-family="Helvetica,sans-Serif" font-size="10.00">+</text>
<text text-anchor="start" x="37" y="-510" font-family="Helvetica,sans-Serif" font-size="10.00">copyTo()</text>
<text text-anchor="start" x="14" y="-495" font-family="Helvetica,sans-Serif" font-size="10.00">+</text>
<text text-anchor="start" x="37" y="-495" font-family="Helvetica,sans-Serif" font-size="10.00">fill()</text>
<text text-anchor="start" x="14" y="-480" font-family="Helvetica,sans-Serif" font-size="10.00">+</text>
<text text-anchor="start" x="37" y="-480" font-family="Helvetica,sans-Serif" font-size="10.00">copyFrom()</text>
<text text-anchor="start" x="14" y="-465" font-family="Helvetica,sans-Serif" font-size="10.00">+</text>
<text text-anchor="start" x="37" y="-465" font-family="Helvetica,sans-Serif" font-size="10.00">copyTo()</text>
<text text-anchor="start" x="14" y="-450" font-family="Helvetica,sans-Serif" font-size="10.00">+</text>
<text text-anchor="start" x="37" y="-450" font-family="Helvetica,sans-Serif" font-size="10.00">fill()</text>
<text text-anchor="start" x="14" y="-435" font-family="Helvetica,sans-Serif" font-size="10.00">+</text>
<text text-anchor="start" x="37" y="-435" font-family="Helvetica,sans-Serif" font-size="10.00">datatypeSize()</text>
<polygon fill="#666666" stroke="#666666" points="0,-565 0,-565 184,-565 184,-565 0,-565"/>
<polygon fill="#666666" stroke="#666666" points="0,-550 0,-550 184,-550 184,-550 0,-550"/>
<polygon fill="none" stroke="#666666" points="0,-428 0,-582 184,-582 184,-428 0,-428"/>
</a>
</g>
</g>
<!-- Node3&#45;&gt;Node2 -->
<g id="edge2_Node000002_Node000003" class="edge">
<title>Node3&#45;&gt;Node2</title>
<g id="a_edge2_Node000002_Node000003"><a xlink:title=" ">
<path fill="none" stroke="#63b8ff" d="M92,-417.99C92,-409.14 92,-400.35 92,-392.04"/>
<polygon fill="none" stroke="#63b8ff" points="88.5,-417.99 92,-427.99 95.5,-417.99 88.5,-417.99"/>
</a>
</g>
</g>
</g>
</svg>

<g id="navigator" transform="translate(0 0)" fill="#404254">
  <rect fill="#f2f5e9" fill-opacity="0.5" stroke="#606060" stroke-width=".5" x="0" y="0" width="60" height="60"/>
  <use id="zoomplus" xlink:href="#zoomPlus" x="17" y="9" onmousedown="handleZoom(evt,'in')"/>
  <use id="zoomminus" xlink:href="#zoomMin" x="42" y="9" onmousedown="handleZoom(evt,'out')"/>
  <use id="reset" xlink:href="#resetDef" x="30" y="36" onmousedown="handleReset()"/>
   <use id="arrowup" xlink:href="#arrowUp" x="0" y="0" onmousedown="handlePan(0,-1)"/>
  <use id="arrowright" xlink:href="#arrowRight" x="0" y="0" onmousedown="handlePan(1,0)"/>
  <use id="arrowdown" xlink:href="#arrowDown" x="0" y="0" onmousedown="handlePan(0,1)"/>
  <use id="arrowleft" xlink:href="#arrowLeft" x="0" y="0" onmousedown="handlePan(-1,0)"/>
</g>
<svg viewBox="0 0 15 15" width="100%" height="30px" preserveAspectRatio="xMaxYMin meet">
 <g id="arrow_out" transform="scale(0.3 0.3)">
  <a xlink:href="classArcane_1_1Accelerator_1_1Impl_1_1AcceleratorSpecificMemoryCopy__inherit__graph_org.svg" target="_base">
   <rect id="button" ry="5" rx="5" y="6" x="6" height="38" width="38"
        fill="#f2f5e9" fill-opacity="0.5" stroke="#606060" stroke-width="1.0"/>
   <path id="arrow"
     d="M 11.500037,31.436501 C 11.940474,20.09759 22.043105,11.32322 32.158766,21.979434 L 37.068811,17.246167 C 37.068811,17.246167 37.088388,32 37.088388,32 L 22.160133,31.978069 C 22.160133,31.978069 26.997745,27.140456 26.997745,27.140456 C 18.528582,18.264221 13.291696,25.230495 11.500037,31.436501 z"
     style="fill:#404040;"/>
  </a>
 </g>
</svg>

<style type='text/css'>
<![CDATA[
[data-mouse-over-selected='false'] { opacity: 0.7; }
[data-mouse-over-selected='true']  { opacity: 1.0; }
]]>
</style>
<script type="application/ecmascript"><![CDATA[
document.addEventListener('DOMContentLoaded', (event) => {
  highlightEdges();
  highlightAdjacentNodes();
});
]]></script>
</svg>
