<?xml version="1.0" encoding="UTF-8" standalone="no"?>
<!DOCTYPE svg PUBLIC "-//W3C//DTD SVG 1.1//EN"
 "http://www.w3.org/Graphics/SVG/1.1/DTD/svg11.dtd">
<!-- Generated by graphviz version 14.1.2 (0)
 -->
<!-- Title: Arcane::MshMeshWriterService Pages: 1 -->
<!--zoomable 1406 -->

<svg id="main" version="1.1" xmlns="http://www.w3.org/2000/svg" xmlns:xlink="http://www.w3.org/1999/xlink" xml:space="preserve" onload="init(evt)">

<style type="text/css"><![CDATA[
.node, .edge {opacity: 0.7;}
.node.selected, .edge.selected {opacity: 1;}
.edge:hover path { stroke: red; }
.edge:hover polygon { stroke: red; fill: red; }
]]></style>

<defs>
  <circle id="rim" cx="0" cy="0" r="7"/>
  <circle id="rim2" cx="0" cy="0" r="3.5"/>
  <g id="zoomPlus">
    <use xlink:href="#rim" fill="#404040"><set attributeName="fill" to="#808080" begin="zoomplus.mouseover" end="zoomplus.mouseout"/></use>
    <path d="M-4,0h8M0,-4v8" fill="none" stroke="white" stroke-width="1.5" pointer-events="none"/>
  </g>
  <g id="zoomMin">
    <use xlink:href="#rim" fill="#404040"><set attributeName="fill" to="#808080" begin="zoomminus.mouseover" end="zoomminus.mouseout"/></use>
    <path d="M-4,0h8" fill="none" stroke="white" stroke-width="1.5" pointer-events="none"/>
  </g>
  <g id="arrowUp" transform="translate(30 24)">
    <use xlink:href="#rim"/>
    <path pointer-events="none" fill="none" stroke="white" stroke-width="1.5" d="M0,-3.0v7 M-2.5,-0.5L0,-3.0L2.5,-0.5"/>
  </g>
  <g id="arrowRight" transform="rotate(90) translate(36 -43)">
    <use xlink:href="#rim"/>
    <path pointer-events="none" fill="none" stroke="white" stroke-width="1.5" d="M0,-3.0v7 M-2.5,-0.5L0,-3.0L2.5,-0.5"/>
  </g>
  <g id="arrowDown" transform="rotate(180) translate(-30 -48)">
    <use xlink:href="#rim"/>
    <path pointer-events="none" fill="none" stroke="white" stroke-width="1.5" d="M0,-3.0v7 M-2.5,-0.5L0,-3.0L2.5,-0.5"/>
  </g>
  <g id="arrowLeft" transform="rotate(270) translate(-36 17)">
    <use xlink:href="#rim"/>
    <path pointer-events="none" fill="none" stroke="white" stroke-width="1.5" d="M0,-3.0v7 M-2.5,-0.5L0,-3.0L2.5,-0.5"/>
  </g>
  <g id="resetDef">
    <use xlink:href="#rim2" fill="#404040"><set attributeName="fill" to="#808080" begin="reset.mouseover" end="reset.mouseout"/></use>
  </g>
</defs>
<script type="application/ecmascript">
var viewWidth = 645;
var viewHeight = 1406;
var sectionId = 'dynsection-1';
</script>
<script type="application/ecmascript" xlink:href="../../svg.min.js"/>
<svg id="graph" class="graph">
<g id="viewport">
<title>Arcane::MshMeshWriterService</title>
<!-- Node1 -->
<g id="Node000001" class="node">
<title>Node1</title>
<g id="a_Node000001"><a xlink:title="Écriture des fichiers de maillage au format msh.">
<polygon fill="#999999" stroke="none" points="480.25,-87.75 320,-87.75 320,0 480.25,0 480.25,-87.75"/>
<text xml:space="preserve" text-anchor="start" x="324" y="-74.25" font-family="Helvetica,sans-Serif" font-size="10.00">Arcane::MshMeshWriterService</text>
<text xml:space="preserve" text-anchor="start" x="398.62" y="-57.5" font-family="Helvetica,sans-Serif" font-size="10.00"> </text>
<text xml:space="preserve" text-anchor="start" x="329" y="-40.75" font-family="Helvetica,sans-Serif" font-size="10.00">+</text>
<text xml:space="preserve" text-anchor="start" x="346.25" y="-40.75" font-family="Helvetica,sans-Serif" font-size="10.00">MshMeshWriterService()</text>
<text xml:space="preserve" text-anchor="start" x="329" y="-24" font-family="Helvetica,sans-Serif" font-size="10.00">+</text>
<text xml:space="preserve" text-anchor="start" x="346.25" y="-24" font-family="Helvetica,sans-Serif" font-size="10.00">build()</text>
<text xml:space="preserve" text-anchor="start" x="329" y="-7.25" font-family="Helvetica,sans-Serif" font-size="10.00">+</text>
<text xml:space="preserve" text-anchor="start" x="346.25" y="-7.25" font-family="Helvetica,sans-Serif" font-size="10.00">writeMeshToFile()</text>
<polygon fill="#666666" stroke="#666666" points="320,-69 320,-69 480.25,-69 480.25,-69 320,-69"/>
<polygon fill="#666666" stroke="#666666" points="320,-52.25 320,-52.25 480.25,-52.25 480.25,-52.25 320,-52.25"/>
<polygon fill="none" stroke="#666666" points="320,0 320,-87.75 480.25,-87.75 480.25,0 320,0"/>
</a>
</g>
</g>
<!-- Node2 -->
<g id="Node000002" class="node">
<title>Node2</title>
<g id="a_Node000002"><a xlink:href="../../da/d61/classArcane_1_1AbstractService.html" target="_top" xlink:title="Classe de base d&#39;un service.">
<polygon fill="white" stroke="none" points="395.25,-262.75 271,-262.75 271,-124.75 395.25,-124.75 395.25,-262.75"/>
<text xml:space="preserve" text-anchor="start" x="275" y="-249.25" font-family="Helvetica,sans-Serif" font-size="10.00">Arcane::AbstractService</text>
<text xml:space="preserve" text-anchor="start" x="331.62" y="-232.5" font-family="Helvetica,sans-Serif" font-size="10.00"> </text>
<text xml:space="preserve" text-anchor="start" x="277.94" y="-215.75" font-family="Helvetica,sans-Serif" font-size="10.00">+</text>
<text xml:space="preserve" text-anchor="start" x="293.12" y="-215.75" font-family="Helvetica,sans-Serif" font-size="10.00">~AbstractService()</text>
<text xml:space="preserve" text-anchor="start" x="277.94" y="-199" font-family="Helvetica,sans-Serif" font-size="10.00">+</text>
<text xml:space="preserve" text-anchor="start" x="293.12" y="-199" font-family="Helvetica,sans-Serif" font-size="10.00">build()</text>
<text xml:space="preserve" text-anchor="start" x="277.94" y="-182.25" font-family="Helvetica,sans-Serif" font-size="10.00">+</text>
<text xml:space="preserve" text-anchor="start" x="293.12" y="-182.25" font-family="Helvetica,sans-Serif" font-size="10.00">serviceInfo()</text>
<text xml:space="preserve" text-anchor="start" x="277.94" y="-165.5" font-family="Helvetica,sans-Serif" font-size="10.00">+</text>
<text xml:space="preserve" text-anchor="start" x="293.12" y="-165.5" font-family="Helvetica,sans-Serif" font-size="10.00">serviceParent()</text>
<text xml:space="preserve" text-anchor="start" x="277.94" y="-148.75" font-family="Helvetica,sans-Serif" font-size="10.00">+</text>
<text xml:space="preserve" text-anchor="start" x="293.12" y="-148.75" font-family="Helvetica,sans-Serif" font-size="10.00">serviceInterface()</text>
<text xml:space="preserve" text-anchor="start" x="277.94" y="-132" font-family="Helvetica,sans-Serif" font-size="10.00">#</text>
<text xml:space="preserve" text-anchor="start" x="293.12" y="-132" font-family="Helvetica,sans-Serif" font-size="10.00">AbstractService()</text>
<polygon fill="#666666" stroke="#666666" points="271,-244 271,-244 395.25,-244 395.25,-244 271,-244"/>
<polygon fill="#666666" stroke="#666666" points="271,-227.25 271,-227.25 395.25,-227.25 395.25,-227.25 271,-227.25"/>
<polygon fill="none" stroke="#666666" points="271,-124.75 271,-262.75 395.25,-262.75 395.25,-124.75 271,-124.75"/>
</a>
</g>
</g>
<!-- Node2&#45;&gt;Node1 -->
<g id="edge1_Node000001_Node000002" class="edge">
<title>Node2&#45;&gt;Node1</title>
<g id="a_edge1_Node000001_Node000002"><a xlink:title=" ">
<path fill="none" stroke="#63b8ff" d="M368.63,-114.39C372.84,-105.1 377,-95.92 380.85,-87.41"/>
<polygon fill="none" stroke="#63b8ff" points="365.44,-112.94 364.5,-123.49 371.82,-115.83 365.44,-112.94"/>
</a>
</g>
</g>
<!-- Node3 -->
<g id="Node000003" class="node">
<title>Node3</title>
<g id="a_Node000003"><a xlink:href="../../d1/d17/classArcane_1_1TraceAccessor.html" target="_top" xlink:title="Classe d&#39;accès aux traces.">
<polygon fill="white" stroke="none" points="187.5,-606.25 48.75,-606.25 48.75,-351 187.5,-351 187.5,-606.25"/>
<text xml:space="preserve" text-anchor="start" x="63.75" y="-592.75" font-family="Helvetica,sans-Serif" font-size="10.00">Arcane::TraceAccessor</text>
<text xml:space="preserve" text-anchor="start" x="55" y="-576" font-family="Helvetica,sans-Serif" font-size="10.00">&#45;</text>
<text xml:space="preserve" text-anchor="start" x="65" y="-576" font-family="Helvetica,sans-Serif" font-size="10.00">m_local_verbose_level</text>
<text xml:space="preserve" text-anchor="start" x="52.75" y="-559.25" font-family="Helvetica,sans-Serif" font-size="10.00">+</text>
<text xml:space="preserve" text-anchor="start" x="65" y="-559.25" font-family="Helvetica,sans-Serif" font-size="10.00">TraceAccessor()</text>
<text xml:space="preserve" text-anchor="start" x="52.75" y="-542.5" font-family="Helvetica,sans-Serif" font-size="10.00">+</text>
<text xml:space="preserve" text-anchor="start" x="65" y="-542.5" font-family="Helvetica,sans-Serif" font-size="10.00">TraceAccessor()</text>
<text xml:space="preserve" text-anchor="start" x="52.75" y="-525.75" font-family="Helvetica,sans-Serif" font-size="10.00">+</text>
<text xml:space="preserve" text-anchor="start" x="65" y="-525.75" font-family="Helvetica,sans-Serif" font-size="10.00">operator=()</text>
<text xml:space="preserve" text-anchor="start" x="52.75" y="-509" font-family="Helvetica,sans-Serif" font-size="10.00">+</text>
<text xml:space="preserve" text-anchor="start" x="65" y="-509" font-family="Helvetica,sans-Serif" font-size="10.00">~TraceAccessor()</text>
<text xml:space="preserve" text-anchor="start" x="52.75" y="-492.25" font-family="Helvetica,sans-Serif" font-size="10.00">+</text>
<text xml:space="preserve" text-anchor="start" x="65" y="-492.25" font-family="Helvetica,sans-Serif" font-size="10.00">traceMng()</text>
<text xml:space="preserve" text-anchor="start" x="52.75" y="-475.5" font-family="Helvetica,sans-Serif" font-size="10.00">+</text>
<text xml:space="preserve" text-anchor="start" x="65" y="-475.5" font-family="Helvetica,sans-Serif" font-size="10.00">info()</text>
<text xml:space="preserve" text-anchor="start" x="52.75" y="-458.75" font-family="Helvetica,sans-Serif" font-size="10.00">+</text>
<text xml:space="preserve" text-anchor="start" x="65" y="-458.75" font-family="Helvetica,sans-Serif" font-size="10.00">pinfo()</text>
<text xml:space="preserve" text-anchor="start" x="52.75" y="-442" font-family="Helvetica,sans-Serif" font-size="10.00">+</text>
<text xml:space="preserve" text-anchor="start" x="65" y="-442" font-family="Helvetica,sans-Serif" font-size="10.00">info()</text>
<text xml:space="preserve" text-anchor="start" x="52.75" y="-425.25" font-family="Helvetica,sans-Serif" font-size="10.00">+</text>
<text xml:space="preserve" text-anchor="start" x="65" y="-425.25" font-family="Helvetica,sans-Serif" font-size="10.00">pinfo()</text>
<text xml:space="preserve" text-anchor="start" x="52.75" y="-408.5" font-family="Helvetica,sans-Serif" font-size="10.00">+</text>
<text xml:space="preserve" text-anchor="start" x="65" y="-408.5" font-family="Helvetica,sans-Serif" font-size="10.00">info()</text>
<text xml:space="preserve" text-anchor="start" x="65" y="-391.75" font-family="Helvetica,sans-Serif" font-size="10.00">et 15 de plus...</text>
<text xml:space="preserve" text-anchor="start" x="52.75" y="-375" font-family="Helvetica,sans-Serif" font-size="10.00">#</text>
<text xml:space="preserve" text-anchor="start" x="65" y="-375" font-family="Helvetica,sans-Serif" font-size="10.00">_setLocalVerboseLevel()</text>
<text xml:space="preserve" text-anchor="start" x="52.75" y="-358.25" font-family="Helvetica,sans-Serif" font-size="10.00">#</text>
<text xml:space="preserve" text-anchor="start" x="65" y="-358.25" font-family="Helvetica,sans-Serif" font-size="10.00">_localVerboseLevel()</text>
<polygon fill="#666666" stroke="#666666" points="48.75,-587.5 48.75,-587.5 187.5,-587.5 187.5,-587.5 48.75,-587.5"/>
<polygon fill="#666666" stroke="#666666" points="48.75,-570.75 48.75,-570.75 63,-570.75 63,-570.75 48.75,-570.75"/>
<polygon fill="#666666" stroke="#666666" points="63,-570.75 63,-570.75 187.5,-570.75 187.5,-570.75 63,-570.75"/>
<polygon fill="none" stroke="#666666" points="48.75,-351 48.75,-606.25 187.5,-606.25 187.5,-351 48.75,-351"/>
</a>
</g>
</g>
<!-- Node3&#45;&gt;Node2 -->
<g id="edge2_Node000002_Node000003" class="edge">
<title>Node3&#45;&gt;Node2</title>
<g id="a_edge2_Node000002_Node000003"><a xlink:title=" ">
<path fill="none" stroke="#63b8ff" d="M180.56,-341.64C185.82,-333.26 191.35,-325.13 197.12,-317.5 218.13,-289.72 246.05,-263.25 271.12,-242.05"/>
<polygon fill="none" stroke="#63b8ff" points="177.74,-339.55 175.52,-349.91 183.71,-343.19 177.74,-339.55"/>
</a>
</g>
</g>
<!-- Node4 -->
<g id="Node000004" class="node">
<title>Node4</title>
<g id="a_Node000004"><a xlink:href="../../d6/da9/classArcane_1_1Ref.html" target="_top" xlink:title=" ">
<polygon fill="white" stroke="none" points="175.88,-962.5 60.38,-962.5 60.38,-694.5 175.88,-694.5 175.88,-962.5"/>
<text xml:space="preserve" text-anchor="start" x="67.5" y="-949" font-family="Helvetica,sans-Serif" font-size="10.00">Arcane::Ref&lt; Arcane</text>
<text xml:space="preserve" text-anchor="start" x="84.75" y="-936.25" font-family="Helvetica,sans-Serif" font-size="10.00">::ITraceMng &gt;</text>
<text xml:space="preserve" text-anchor="start" x="66.62" y="-919.5" font-family="Helvetica,sans-Serif" font-size="10.00">&#45;</text>
<text xml:space="preserve" text-anchor="start" x="76.62" y="-919.5" font-family="Helvetica,sans-Serif" font-size="10.00">Base</text>
<text xml:space="preserve" text-anchor="start" x="64.38" y="-902.75" font-family="Helvetica,sans-Serif" font-size="10.00">+</text>
<text xml:space="preserve" text-anchor="start" x="76.62" y="-902.75" font-family="Helvetica,sans-Serif" font-size="10.00">Ref()</text>
<text xml:space="preserve" text-anchor="start" x="64.38" y="-886" font-family="Helvetica,sans-Serif" font-size="10.00">+</text>
<text xml:space="preserve" text-anchor="start" x="76.62" y="-886" font-family="Helvetica,sans-Serif" font-size="10.00">Ref()</text>
<text xml:space="preserve" text-anchor="start" x="64.38" y="-869.25" font-family="Helvetica,sans-Serif" font-size="10.00">+</text>
<text xml:space="preserve" text-anchor="start" x="76.62" y="-869.25" font-family="Helvetica,sans-Serif" font-size="10.00">Ref()</text>
<text xml:space="preserve" text-anchor="start" x="64.38" y="-852.5" font-family="Helvetica,sans-Serif" font-size="10.00">+</text>
<text xml:space="preserve" text-anchor="start" x="76.62" y="-852.5" font-family="Helvetica,sans-Serif" font-size="10.00">operator=()</text>
<text xml:space="preserve" text-anchor="start" x="64.38" y="-835.75" font-family="Helvetica,sans-Serif" font-size="10.00">+</text>
<text xml:space="preserve" text-anchor="start" x="76.62" y="-835.75" font-family="Helvetica,sans-Serif" font-size="10.00">~Ref()</text>
<text xml:space="preserve" text-anchor="start" x="64.38" y="-819" font-family="Helvetica,sans-Serif" font-size="10.00">+</text>
<text xml:space="preserve" text-anchor="start" x="76.62" y="-819" font-family="Helvetica,sans-Serif" font-size="10.00">create()</text>
<text xml:space="preserve" text-anchor="start" x="64.38" y="-802.25" font-family="Helvetica,sans-Serif" font-size="10.00">+</text>
<text xml:space="preserve" text-anchor="start" x="76.62" y="-802.25" font-family="Helvetica,sans-Serif" font-size="10.00">createRef()</text>
<text xml:space="preserve" text-anchor="start" x="64.38" y="-785.5" font-family="Helvetica,sans-Serif" font-size="10.00">+</text>
<text xml:space="preserve" text-anchor="start" x="76.62" y="-785.5" font-family="Helvetica,sans-Serif" font-size="10.00">createWithHandle()</text>
<text xml:space="preserve" text-anchor="start" x="64.38" y="-768.75" font-family="Helvetica,sans-Serif" font-size="10.00">+</text>
<text xml:space="preserve" text-anchor="start" x="76.62" y="-768.75" font-family="Helvetica,sans-Serif" font-size="10.00">_createNoDestroy()</text>
<text xml:space="preserve" text-anchor="start" x="66.62" y="-752" font-family="Helvetica,sans-Serif" font-size="10.00">&#45;</text>
<text xml:space="preserve" text-anchor="start" x="76.62" y="-752" font-family="Helvetica,sans-Serif" font-size="10.00">Ref()</text>
<text xml:space="preserve" text-anchor="start" x="66.62" y="-735.25" font-family="Helvetica,sans-Serif" font-size="10.00">&#45;</text>
<text xml:space="preserve" text-anchor="start" x="76.62" y="-735.25" font-family="Helvetica,sans-Serif" font-size="10.00">Ref()</text>
<text xml:space="preserve" text-anchor="start" x="66.62" y="-718.5" font-family="Helvetica,sans-Serif" font-size="10.00">&#45;</text>
<text xml:space="preserve" text-anchor="start" x="76.62" y="-718.5" font-family="Helvetica,sans-Serif" font-size="10.00">Ref()</text>
<text xml:space="preserve" text-anchor="start" x="66.62" y="-701.75" font-family="Helvetica,sans-Serif" font-size="10.00">&#45;</text>
<text xml:space="preserve" text-anchor="start" x="76.62" y="-701.75" font-family="Helvetica,sans-Serif" font-size="10.00">_destroyInstance()</text>
<polygon fill="#666666" stroke="#666666" points="60.38,-931 60.38,-931 175.88,-931 175.88,-931 60.38,-931"/>
<polygon fill="#666666" stroke="#666666" points="60.38,-914.25 60.38,-914.25 74.62,-914.25 74.62,-914.25 60.38,-914.25"/>
<polygon fill="#666666" stroke="#666666" points="74.62,-914.25 74.62,-914.25 175.88,-914.25 175.88,-914.25 74.62,-914.25"/>
<polygon fill="none" stroke="#666666" points="60.38,-694.5 60.38,-962.5 175.88,-962.5 175.88,-694.5 60.38,-694.5"/>
</a>
</g>
</g>
<!-- Node4&#45;&gt;Node3 -->
<g id="edge3_Node000003_Node000004" class="edge">
<title>Node4&#45;&gt;Node3</title>
<g id="a_edge3_Node000003_Node000004"><a xlink:title=" ">
<path fill="none" stroke="#63b8ff" d="M118.12,-694.99C118.12,-670.14 118.12,-644.09 118.12,-619.03"/>
<polygon fill="none" stroke="#63b8ff" points="118.13,-618.93 114.13,-612.93 118.13,-606.93 122.13,-612.93 118.13,-618.93"/>
</a>
</g>
<text xml:space="preserve" text-anchor="start" x="121.12" y="-664" font-family="Helvetica,sans-Serif" font-size="10.00" fill="grey">&#45;m_trace</text>
</g>
<!-- Node5 -->
<g id="Node000005" class="node">
<title>Node5</title>
<g id="a_Node000005"><a xlink:href="../../d3/df1/classArcane_1_1RefImpl.html" target="_top" xlink:title=" ">
<polygon fill="white" stroke="none" points="199.38,-1276.25 36.88,-1276.25 36.88,-999.5 199.38,-999.5 199.38,-1276.25"/>
<text xml:space="preserve" text-anchor="start" x="40.88" y="-1262.75" font-family="Helvetica,sans-Serif" font-size="10.00">Arcane::RefImpl&lt; Arcane</text>
<text xml:space="preserve" text-anchor="start" x="40.88" y="-1250" font-family="Helvetica,sans-Serif" font-size="10.00">::ITraceMng, Ref&lt; Arcane</text>
<text xml:space="preserve" text-anchor="start" x="40.88" y="-1237.25" font-family="Helvetica,sans-Serif" font-size="10.00">::ITraceMng &gt;, RefTraits</text>
<text xml:space="preserve" text-anchor="start" x="40.88" y="-1224.5" font-family="Helvetica,sans-Serif" font-size="10.00">&lt; Arcane::ITraceMng &gt;::TagId &gt;</text>
<text xml:space="preserve" text-anchor="start" x="50" y="-1207.75" font-family="Helvetica,sans-Serif" font-size="10.00">+</text>
<text xml:space="preserve" text-anchor="start" x="71.38" y="-1207.75" font-family="Helvetica,sans-Serif" font-size="10.00">RefType</text>
<text xml:space="preserve" text-anchor="start" x="50" y="-1191" font-family="Helvetica,sans-Serif" font-size="10.00">+</text>
<text xml:space="preserve" text-anchor="start" x="71.38" y="-1191" font-family="Helvetica,sans-Serif" font-size="10.00">operator=()</text>
<text xml:space="preserve" text-anchor="start" x="50" y="-1174.25" font-family="Helvetica,sans-Serif" font-size="10.00">+</text>
<text xml:space="preserve" text-anchor="start" x="71.38" y="-1174.25" font-family="Helvetica,sans-Serif" font-size="10.00">~RefImpl()</text>
<text xml:space="preserve" text-anchor="start" x="50" y="-1157.5" font-family="Helvetica,sans-Serif" font-size="10.00">+</text>
<text xml:space="preserve" text-anchor="start" x="71.38" y="-1157.5" font-family="Helvetica,sans-Serif" font-size="10.00">operator bool()</text>
<text xml:space="preserve" text-anchor="start" x="50" y="-1140.75" font-family="Helvetica,sans-Serif" font-size="10.00">+</text>
<text xml:space="preserve" text-anchor="start" x="71.38" y="-1140.75" font-family="Helvetica,sans-Serif" font-size="10.00">get()</text>
<text xml:space="preserve" text-anchor="start" x="50" y="-1124" font-family="Helvetica,sans-Serif" font-size="10.00">+</text>
<text xml:space="preserve" text-anchor="start" x="71.38" y="-1124" font-family="Helvetica,sans-Serif" font-size="10.00">isNull()</text>
<text xml:space="preserve" text-anchor="start" x="50" y="-1107.25" font-family="Helvetica,sans-Serif" font-size="10.00">+</text>
<text xml:space="preserve" text-anchor="start" x="71.38" y="-1107.25" font-family="Helvetica,sans-Serif" font-size="10.00">operator&#45;&gt;()</text>
<text xml:space="preserve" text-anchor="start" x="50" y="-1090.5" font-family="Helvetica,sans-Serif" font-size="10.00">+</text>
<text xml:space="preserve" text-anchor="start" x="71.38" y="-1090.5" font-family="Helvetica,sans-Serif" font-size="10.00">reset()</text>
<text xml:space="preserve" text-anchor="start" x="50" y="-1073.75" font-family="Helvetica,sans-Serif" font-size="10.00">+</text>
<text xml:space="preserve" text-anchor="start" x="71.38" y="-1073.75" font-family="Helvetica,sans-Serif" font-size="10.00">_release()</text>
<text xml:space="preserve" text-anchor="start" x="50" y="-1057" font-family="Helvetica,sans-Serif" font-size="10.00">+</text>
<text xml:space="preserve" text-anchor="start" x="71.38" y="-1057" font-family="Helvetica,sans-Serif" font-size="10.00">_internalInstance()</text>
<text xml:space="preserve" text-anchor="start" x="52.25" y="-1040.25" font-family="Helvetica,sans-Serif" font-size="10.00">&#45;</text>
<text xml:space="preserve" text-anchor="start" x="71.38" y="-1040.25" font-family="Helvetica,sans-Serif" font-size="10.00">RefImpl()</text>
<text xml:space="preserve" text-anchor="start" x="52.25" y="-1023.5" font-family="Helvetica,sans-Serif" font-size="10.00">&#45;</text>
<text xml:space="preserve" text-anchor="start" x="71.38" y="-1023.5" font-family="Helvetica,sans-Serif" font-size="10.00">_createBasicDeleter()</text>
<text xml:space="preserve" text-anchor="start" x="52.25" y="-1006.75" font-family="Helvetica,sans-Serif" font-size="10.00">&#45;</text>
<text xml:space="preserve" text-anchor="start" x="71.38" y="-1006.75" font-family="Helvetica,sans-Serif" font-size="10.00">_getDeleter()</text>
<polygon fill="#666666" stroke="#666666" points="36.88,-1219.25 36.88,-1219.25 199.38,-1219.25 199.38,-1219.25 36.88,-1219.25"/>
<polygon fill="#666666" stroke="#666666" points="36.88,-1202.5 36.88,-1202.5 69.38,-1202.5 69.38,-1202.5 36.88,-1202.5"/>
<polygon fill="#666666" stroke="#666666" points="69.38,-1202.5 69.38,-1202.5 199.38,-1202.5 199.38,-1202.5 69.38,-1202.5"/>
<polygon fill="none" stroke="#666666" points="36.88,-999.5 36.88,-1276.25 199.38,-1276.25 199.38,-999.5 36.88,-999.5"/>
</a>
</g>
</g>
<!-- Node5&#45;&gt;Node4 -->
<g id="edge4_Node000004_Node000005" class="edge">
<title>Node5&#45;&gt;Node4</title>
<g id="a_edge4_Node000004_Node000005"><a xlink:title=" ">
<path fill="none" stroke="#63b8ff" d="M118.12,-988.37C118.12,-979.65 118.12,-970.9 118.12,-962.25"/>
<polygon fill="none" stroke="#63b8ff" points="114.63,-988.3 118.13,-998.3 121.63,-988.3 114.63,-988.3"/>
</a>
</g>
</g>
<!-- Node6 -->
<g id="Node000006" class="node">
<title>Node6</title>
<g id="a_Node000006"><a xlink:href="../../d2/db9/classArcane_1_1RefBase.html" target="_top" xlink:title="Classe de base de gestion d&#39;une référence.">
<polygon fill="white" stroke="none" points="88.25,-1391.62 0,-1391.62 0,-1337.38 88.25,-1337.38 88.25,-1391.62"/>
<text xml:space="preserve" text-anchor="start" x="4" y="-1378.12" font-family="Helvetica,sans-Serif" font-size="10.00">Arcane::RefBase</text>
<text xml:space="preserve" text-anchor="start" x="42.62" y="-1361.38" font-family="Helvetica,sans-Serif" font-size="10.00"> </text>
<text xml:space="preserve" text-anchor="start" x="42.62" y="-1344.62" font-family="Helvetica,sans-Serif" font-size="10.00"> </text>
<polygon fill="#666666" stroke="#666666" points="0,-1372.88 0,-1372.88 88.25,-1372.88 88.25,-1372.88 0,-1372.88"/>
<polygon fill="#666666" stroke="#666666" points="0,-1356.12 0,-1356.12 88.25,-1356.12 88.25,-1356.12 0,-1356.12"/>
<polygon fill="none" stroke="#666666" points="0,-1337.38 0,-1391.62 88.25,-1391.62 88.25,-1337.38 0,-1337.38"/>
</a>
</g>
</g>
<!-- Node6&#45;&gt;Node5 -->
<g id="edge5_Node000005_Node000006" class="edge">
<title>Node6&#45;&gt;Node5</title>
<g id="a_edge5_Node000005_Node000006"><a xlink:title=" ">
<path fill="none" stroke="#63b8ff" d="M56.2,-1326.84C60.97,-1312.37 66.77,-1294.78 72.88,-1276.22"/>
<polygon fill="none" stroke="#63b8ff" points="52.89,-1325.7 53.09,-1336.3 59.54,-1327.89 52.89,-1325.7"/>
</a>
</g>
</g>
<!-- Node7 -->
<g id="Node000007" class="node">
<title>Node7</title>
<g id="a_Node000007"><a xlink:href="../../d4/de6/structArcane_1_1RefTraitsTagId.html" target="_top" xlink:title=" ">
<polygon fill="white" stroke="none" points="279.62,-1398 106.62,-1398 106.62,-1331 279.62,-1331 279.62,-1398"/>
<text xml:space="preserve" text-anchor="start" x="110.62" y="-1384.5" font-family="Helvetica,sans-Serif" font-size="10.00">Arcane::RefTraitsTagId</text>
<text xml:space="preserve" text-anchor="start" x="110.62" y="-1371.75" font-family="Helvetica,sans-Serif" font-size="10.00">&lt; Arcane::ITraceMng, ImplTagId &gt;</text>
<text xml:space="preserve" text-anchor="start" x="191.62" y="-1355" font-family="Helvetica,sans-Serif" font-size="10.00"> </text>
<text xml:space="preserve" text-anchor="start" x="191.62" y="-1338.25" font-family="Helvetica,sans-Serif" font-size="10.00"> </text>
<polygon fill="#bfbfbf" stroke="#bfbfbf" points="106.62,-1366.5 106.62,-1366.5 279.62,-1366.5 279.62,-1366.5 106.62,-1366.5"/>
<polygon fill="#bfbfbf" stroke="#bfbfbf" points="106.62,-1349.75 106.62,-1349.75 279.62,-1349.75 279.62,-1349.75 106.62,-1349.75"/>
<polygon fill="none" stroke="#bfbfbf" points="106.62,-1331 106.62,-1398 279.62,-1398 279.62,-1331 106.62,-1331"/>
</a>
</g>
</g>
<!-- Node7&#45;&gt;Node5 -->
<g id="edge6_Node000005_Node000007" class="edge">
<title>Node7&#45;&gt;Node5</title>
<g id="a_edge6_Node000005_Node000007"><a xlink:title=" ">
<path fill="none" stroke="#63b8ff" d="M182.38,-1331.32C178.31,-1319.14 173.37,-1304.33 168.05,-1288.4"/>
<polygon fill="none" stroke="#63b8ff" points="168,-1288.26 162.31,-1283.84 164.2,-1276.88 169.9,-1281.31 168,-1288.26"/>
</a>
</g>
<text xml:space="preserve" text-anchor="start" x="178" y="-1300.5" font-family="Helvetica,sans-Serif" font-size="10.00" fill="grey">&#45;m_instance</text>
</g>
<!-- Node8 -->
<g id="Node000008" class="node">
<title>Node8</title>
<g id="a_Node000008"><a xlink:href="../../da/d7e/classArcane_1_1IService.html" target="_top" xlink:title="Interface d&#39;un service.">
<polygon fill="white" stroke="none" points="312.38,-539.25 205.88,-539.25 205.88,-418 312.38,-418 312.38,-539.25"/>
<text xml:space="preserve" text-anchor="start" x="219.75" y="-525.75" font-family="Helvetica,sans-Serif" font-size="10.00">Arcane::IService</text>
<text xml:space="preserve" text-anchor="start" x="257.62" y="-509" font-family="Helvetica,sans-Serif" font-size="10.00"> </text>
<text xml:space="preserve" text-anchor="start" x="209.88" y="-492.25" font-family="Helvetica,sans-Serif" font-size="10.00">+</text>
<text xml:space="preserve" text-anchor="start" x="222.12" y="-492.25" font-family="Helvetica,sans-Serif" font-size="10.00">~IService()</text>
<text xml:space="preserve" text-anchor="start" x="209.88" y="-475.5" font-family="Helvetica,sans-Serif" font-size="10.00">+</text>
<text xml:space="preserve" text-anchor="start" x="222.12" y="-475.5" font-family="Helvetica,sans-Serif" font-size="10.00">serviceParent()</text>
<text xml:space="preserve" text-anchor="start" x="209.88" y="-458.75" font-family="Helvetica,sans-Serif" font-size="10.00">+</text>
<text xml:space="preserve" text-anchor="start" x="222.12" y="-458.75" font-family="Helvetica,sans-Serif" font-size="10.00">serviceInterface()</text>
<text xml:space="preserve" text-anchor="start" x="209.88" y="-442" font-family="Helvetica,sans-Serif" font-size="10.00">+</text>
<text xml:space="preserve" text-anchor="start" x="222.12" y="-442" font-family="Helvetica,sans-Serif" font-size="10.00">serviceInfo()</text>
<text xml:space="preserve" text-anchor="start" x="209.88" y="-425.25" font-family="Helvetica,sans-Serif" font-size="10.00">#</text>
<text xml:space="preserve" text-anchor="start" x="222.12" y="-425.25" font-family="Helvetica,sans-Serif" font-size="10.00">IService()</text>
<polygon fill="#666666" stroke="#666666" points="205.88,-520.5 205.88,-520.5 312.38,-520.5 312.38,-520.5 205.88,-520.5"/>
<polygon fill="#666666" stroke="#666666" points="205.88,-503.75 205.88,-503.75 312.38,-503.75 312.38,-503.75 205.88,-503.75"/>
<polygon fill="none" stroke="#666666" points="205.88,-418 205.88,-539.25 312.38,-539.25 312.38,-418 205.88,-418"/>
</a>
</g>
</g>
<!-- Node8&#45;&gt;Node2 -->
<g id="edge7_Node000002_Node000008" class="edge">
<title>Node8&#45;&gt;Node2</title>
<g id="a_edge7_Node000002_Node000008"><a xlink:title=" ">
<path fill="none" stroke="#63b8ff" d="M277.5,-407.37C289.07,-363.17 303.91,-306.42 315.36,-262.67"/>
<polygon fill="none" stroke="#63b8ff" points="274.17,-406.3 275.02,-416.86 280.94,-408.07 274.17,-406.3"/>
</a>
</g>
</g>
<!-- Node9 -->
<g id="Node000009" class="node">
<title>Node9</title>
<g id="a_Node000009"><a xlink:href="../../de/df8/classArcane_1_1IServiceInfo.html" target="_top" xlink:title="Interface des informations d&#39;un service ou d&#39;un module.">
<polygon fill="white" stroke="none" points="485.38,-639.75 330.88,-639.75 330.88,-317.5 485.38,-317.5 485.38,-639.75"/>
<text xml:space="preserve" text-anchor="start" x="359.38" y="-626.25" font-family="Helvetica,sans-Serif" font-size="10.00">Arcane::IServiceInfo</text>
<text xml:space="preserve" text-anchor="start" x="334.88" y="-609.5" font-family="Helvetica,sans-Serif" font-size="10.00">+</text>
<text xml:space="preserve" text-anchor="start" x="347.12" y="-609.5" font-family="Helvetica,sans-Serif" font-size="10.00">Dim1</text>
<text xml:space="preserve" text-anchor="start" x="334.88" y="-592.75" font-family="Helvetica,sans-Serif" font-size="10.00">+</text>
<text xml:space="preserve" text-anchor="start" x="347.12" y="-592.75" font-family="Helvetica,sans-Serif" font-size="10.00">Dim2</text>
<text xml:space="preserve" text-anchor="start" x="334.88" y="-576" font-family="Helvetica,sans-Serif" font-size="10.00">+</text>
<text xml:space="preserve" text-anchor="start" x="347.12" y="-576" font-family="Helvetica,sans-Serif" font-size="10.00">Dim3</text>
<text xml:space="preserve" text-anchor="start" x="334.88" y="-559.25" font-family="Helvetica,sans-Serif" font-size="10.00">+</text>
<text xml:space="preserve" text-anchor="start" x="347.12" y="-559.25" font-family="Helvetica,sans-Serif" font-size="10.00">~IServiceInfo()</text>
<text xml:space="preserve" text-anchor="start" x="334.88" y="-542.5" font-family="Helvetica,sans-Serif" font-size="10.00">+</text>
<text xml:space="preserve" text-anchor="start" x="347.12" y="-542.5" font-family="Helvetica,sans-Serif" font-size="10.00">localName()</text>
<text xml:space="preserve" text-anchor="start" x="334.88" y="-525.75" font-family="Helvetica,sans-Serif" font-size="10.00">+</text>
<text xml:space="preserve" text-anchor="start" x="347.12" y="-525.75" font-family="Helvetica,sans-Serif" font-size="10.00">namespaceURI()</text>
<text xml:space="preserve" text-anchor="start" x="334.88" y="-509" font-family="Helvetica,sans-Serif" font-size="10.00">+</text>
<text xml:space="preserve" text-anchor="start" x="347.12" y="-509" font-family="Helvetica,sans-Serif" font-size="10.00">version()</text>
<text xml:space="preserve" text-anchor="start" x="334.88" y="-492.25" font-family="Helvetica,sans-Serif" font-size="10.00">+</text>
<text xml:space="preserve" text-anchor="start" x="347.12" y="-492.25" font-family="Helvetica,sans-Serif" font-size="10.00">axlVersion()</text>
<text xml:space="preserve" text-anchor="start" x="334.88" y="-475.5" font-family="Helvetica,sans-Serif" font-size="10.00">+</text>
<text xml:space="preserve" text-anchor="start" x="347.12" y="-475.5" font-family="Helvetica,sans-Serif" font-size="10.00">allowDimension()</text>
<text xml:space="preserve" text-anchor="start" x="334.88" y="-458.75" font-family="Helvetica,sans-Serif" font-size="10.00">+</text>
<text xml:space="preserve" text-anchor="start" x="347.12" y="-458.75" font-family="Helvetica,sans-Serif" font-size="10.00">addImplementedInterface()</text>
<text xml:space="preserve" text-anchor="start" x="334.88" y="-442" font-family="Helvetica,sans-Serif" font-size="10.00">+</text>
<text xml:space="preserve" text-anchor="start" x="347.12" y="-442" font-family="Helvetica,sans-Serif" font-size="10.00">implementedInterfaces()</text>
<text xml:space="preserve" text-anchor="start" x="334.88" y="-425.25" font-family="Helvetica,sans-Serif" font-size="10.00">+</text>
<text xml:space="preserve" text-anchor="start" x="347.12" y="-425.25" font-family="Helvetica,sans-Serif" font-size="10.00">caseOptionsFileName()</text>
<text xml:space="preserve" text-anchor="start" x="334.88" y="-408.5" font-family="Helvetica,sans-Serif" font-size="10.00">+</text>
<text xml:space="preserve" text-anchor="start" x="347.12" y="-408.5" font-family="Helvetica,sans-Serif" font-size="10.00">factories()</text>
<text xml:space="preserve" text-anchor="start" x="334.88" y="-391.75" font-family="Helvetica,sans-Serif" font-size="10.00">+</text>
<text xml:space="preserve" text-anchor="start" x="347.12" y="-391.75" font-family="Helvetica,sans-Serif" font-size="10.00">singletonFactory()</text>
<text xml:space="preserve" text-anchor="start" x="334.88" y="-375" font-family="Helvetica,sans-Serif" font-size="10.00">+</text>
<text xml:space="preserve" text-anchor="start" x="347.12" y="-375" font-family="Helvetica,sans-Serif" font-size="10.00">tagName()</text>
<text xml:space="preserve" text-anchor="start" x="334.88" y="-358.25" font-family="Helvetica,sans-Serif" font-size="10.00">+</text>
<text xml:space="preserve" text-anchor="start" x="347.12" y="-358.25" font-family="Helvetica,sans-Serif" font-size="10.00">factoryInfo()</text>
<text xml:space="preserve" text-anchor="start" x="334.88" y="-341.5" font-family="Helvetica,sans-Serif" font-size="10.00">+</text>
<text xml:space="preserve" text-anchor="start" x="347.12" y="-341.5" font-family="Helvetica,sans-Serif" font-size="10.00">usageType()</text>
<text xml:space="preserve" text-anchor="start" x="334.88" y="-324.75" font-family="Helvetica,sans-Serif" font-size="10.00">+</text>
<text xml:space="preserve" text-anchor="start" x="347.12" y="-324.75" font-family="Helvetica,sans-Serif" font-size="10.00">axlContent()</text>
<polygon fill="#666666" stroke="#666666" points="330.88,-621 330.88,-621 485.38,-621 485.38,-621 330.88,-621"/>
<polygon fill="#666666" stroke="#666666" points="330.88,-570.75 330.88,-570.75 345.12,-570.75 345.12,-570.75 330.88,-570.75"/>
<polygon fill="#666666" stroke="#666666" points="345.12,-570.75 345.12,-570.75 485.38,-570.75 485.38,-570.75 345.12,-570.75"/>
<polygon fill="none" stroke="#666666" points="330.88,-317.5 330.88,-639.75 485.38,-639.75 485.38,-317.5 330.88,-317.5"/>
</a>
</g>
</g>
<!-- Node9&#45;&gt;Node2 -->
<g id="edge8_Node000002_Node000009" class="edge">
<title>Node9&#45;&gt;Node2</title>
<g id="a_edge8_Node000002_Node000009"><a xlink:title=" ">
<path fill="none" stroke="#63b8ff" d="M365.69,-317.59C361.83,-303 358.03,-288.68 354.47,-275.26"/>
<polygon fill="none" stroke="#63b8ff" points="354.45,-275.17 349.04,-270.39 351.37,-263.57 356.78,-268.34 354.45,-275.17"/>
</a>
</g>
<text xml:space="preserve" text-anchor="start" x="362.52" y="-287" font-family="Helvetica,sans-Serif" font-size="10.00" fill="grey">&#45;m_service_info</text>
</g>
<!-- Node10 -->
<g id="Node000010" class="node">
<title>Node10</title>
<g id="a_Node000010"><a xlink:href="../../d3/d96/classArcane_1_1IBase.html" target="_top" xlink:title="Interface de la classe de base des objets principaux arcane.">
<polygon fill="white" stroke="none" points="636.5,-581.12 503.75,-581.12 503.75,-376.12 636.5,-376.12 636.5,-581.12"/>
<text xml:space="preserve" text-anchor="start" x="536.75" y="-567.62" font-family="Helvetica,sans-Serif" font-size="10.00">Arcane::IBase</text>
<text xml:space="preserve" text-anchor="start" x="568.62" y="-550.88" font-family="Helvetica,sans-Serif" font-size="10.00"> </text>
<text xml:space="preserve" text-anchor="start" x="507.75" y="-534.12" font-family="Helvetica,sans-Serif" font-size="10.00">+</text>
<text xml:space="preserve" text-anchor="start" x="520" y="-534.12" font-family="Helvetica,sans-Serif" font-size="10.00">~IBase()</text>
<text xml:space="preserve" text-anchor="start" x="507.75" y="-517.38" font-family="Helvetica,sans-Serif" font-size="10.00">+</text>
<text xml:space="preserve" text-anchor="start" x="520" y="-517.38" font-family="Helvetica,sans-Serif" font-size="10.00">build()</text>
<text xml:space="preserve" text-anchor="start" x="507.75" y="-500.62" font-family="Helvetica,sans-Serif" font-size="10.00">+</text>
<text xml:space="preserve" text-anchor="start" x="520" y="-500.62" font-family="Helvetica,sans-Serif" font-size="10.00">initialize()</text>
<text xml:space="preserve" text-anchor="start" x="507.75" y="-483.88" font-family="Helvetica,sans-Serif" font-size="10.00">+</text>
<text xml:space="preserve" text-anchor="start" x="520" y="-483.88" font-family="Helvetica,sans-Serif" font-size="10.00">objectParent()</text>
<text xml:space="preserve" text-anchor="start" x="507.75" y="-467.12" font-family="Helvetica,sans-Serif" font-size="10.00">+</text>
<text xml:space="preserve" text-anchor="start" x="520" y="-467.12" font-family="Helvetica,sans-Serif" font-size="10.00">objectNamespaceURI()</text>
<text xml:space="preserve" text-anchor="start" x="507.75" y="-450.38" font-family="Helvetica,sans-Serif" font-size="10.00">+</text>
<text xml:space="preserve" text-anchor="start" x="520" y="-450.38" font-family="Helvetica,sans-Serif" font-size="10.00">objectLocalName()</text>
<text xml:space="preserve" text-anchor="start" x="507.75" y="-433.62" font-family="Helvetica,sans-Serif" font-size="10.00">+</text>
<text xml:space="preserve" text-anchor="start" x="520" y="-433.62" font-family="Helvetica,sans-Serif" font-size="10.00">objectVersion()</text>
<text xml:space="preserve" text-anchor="start" x="507.75" y="-416.88" font-family="Helvetica,sans-Serif" font-size="10.00">+</text>
<text xml:space="preserve" text-anchor="start" x="520" y="-416.88" font-family="Helvetica,sans-Serif" font-size="10.00">traceMng()</text>
<text xml:space="preserve" text-anchor="start" x="507.75" y="-400.12" font-family="Helvetica,sans-Serif" font-size="10.00">+</text>
<text xml:space="preserve" text-anchor="start" x="520" y="-400.12" font-family="Helvetica,sans-Serif" font-size="10.00">ressourceMng()</text>
<text xml:space="preserve" text-anchor="start" x="507.75" y="-383.38" font-family="Helvetica,sans-Serif" font-size="10.00">+</text>
<text xml:space="preserve" text-anchor="start" x="520" y="-383.38" font-family="Helvetica,sans-Serif" font-size="10.00">serviceMng()</text>
<polygon fill="#666666" stroke="#666666" points="503.75,-562.38 503.75,-562.38 636.5,-562.38 636.5,-562.38 503.75,-562.38"/>
<polygon fill="#666666" stroke="#666666" points="503.75,-545.62 503.75,-545.62 636.5,-545.62 636.5,-545.62 503.75,-545.62"/>
<polygon fill="none" stroke="#666666" points="503.75,-376.12 503.75,-581.12 636.5,-581.12 636.5,-376.12 503.75,-376.12"/>
</a>
</g>
</g>
<!-- Node10&#45;&gt;Node2 -->
<g id="edge9_Node000002_Node000010" class="edge">
<title>Node10&#45;&gt;Node2</title>
<g id="a_edge9_Node000002_Node000010"><a xlink:title=" ">
<path fill="none" stroke="#63b8ff" d="M530.87,-376.44C520.55,-355.87 508.26,-335.16 494.12,-317.5 477.55,-296.8 470,-294.16 447.12,-280.75 432.04,-271.91 424.14,-273.26 406.26,-263.31"/>
<polygon fill="none" stroke="#63b8ff" points="406.17,-263.26 398.97,-263.51 395.96,-256.96 403.17,-256.7 406.17,-263.26"/>
</a>
</g>
<text xml:space="preserve" text-anchor="start" x="480.01" y="-287" font-family="Helvetica,sans-Serif" font-size="10.00" fill="grey">&#45;m_parent</text>
</g>
<!-- Node11 -->
<g id="Node000011" class="node">
<title>Node11</title>
<g id="a_Node000011"><a xlink:href="../../dc/d13/classArcane_1_1IMeshWriter.html" target="_top" xlink:title="Interface d&#39;un service d&#39;écriture d&#39;un maillage.">
<polygon fill="white" stroke="none" points="520.62,-237.62 413.62,-237.62 413.62,-149.88 520.62,-149.88 520.62,-237.62"/>
<text xml:space="preserve" text-anchor="start" x="417.62" y="-224.12" font-family="Helvetica,sans-Serif" font-size="10.00">Arcane::IMeshWriter</text>
<text xml:space="preserve" text-anchor="start" x="465.62" y="-207.38" font-family="Helvetica,sans-Serif" font-size="10.00"> </text>
<text xml:space="preserve" text-anchor="start" x="417.75" y="-190.62" font-family="Helvetica,sans-Serif" font-size="10.00">+</text>
<text xml:space="preserve" text-anchor="start" x="430.12" y="-190.62" font-family="Helvetica,sans-Serif" font-size="10.00">~IMeshWriter()</text>
<text xml:space="preserve" text-anchor="start" x="417.75" y="-173.88" font-family="Helvetica,sans-Serif" font-size="10.00">+</text>
<text xml:space="preserve" text-anchor="start" x="430.12" y="-173.88" font-family="Helvetica,sans-Serif" font-size="10.00">build()</text>
<text xml:space="preserve" text-anchor="start" x="417.75" y="-157.12" font-family="Helvetica,sans-Serif" font-size="10.00">+</text>
<text xml:space="preserve" text-anchor="start" x="430.12" y="-157.12" font-family="Helvetica,sans-Serif" font-size="10.00">writeMeshToFile()</text>
<polygon fill="#666666" stroke="#666666" points="413.62,-218.88 413.62,-218.88 520.62,-218.88 520.62,-218.88 413.62,-218.88"/>
<polygon fill="#666666" stroke="#666666" points="413.62,-202.12 413.62,-202.12 520.62,-202.12 520.62,-202.12 413.62,-202.12"/>
<polygon fill="none" stroke="#666666" points="413.62,-149.88 413.62,-237.62 520.62,-237.62 520.62,-149.88 413.62,-149.88"/>
</a>
</g>
</g>
<!-- Node11&#45;&gt;Node1 -->
<g id="edge10_Node000001_Node000011" class="edge">
<title>Node11&#45;&gt;Node1</title>
<g id="a_edge10_Node000001_Node000011"><a xlink:title=" ">
<path fill="none" stroke="#63b8ff" d="M443.04,-139.58C435.29,-122.49 426.82,-103.79 419.46,-87.55"/>
<polygon fill="none" stroke="#63b8ff" points="439.81,-140.94 447.12,-148.6 446.18,-138.05 439.81,-140.94"/>
</a>
</g>
</g>
</g>
</svg>

<g id="navigator" transform="translate(0 0)" fill="#404254">
  <rect fill="#f2f5e9" fill-opacity="0.5" stroke="#606060" stroke-width=".5" x="0" y="0" width="60" height="60"/>
  <use id="zoomplus" xlink:href="#zoomPlus" x="17" y="9" onmousedown="handleZoom(evt,'in')"/>
  <use id="zoomminus" xlink:href="#zoomMin" x="42" y="9" onmousedown="handleZoom(evt,'out')"/>
  <use id="reset" xlink:href="#resetDef" x="30" y="36" onmousedown="handleReset()"/>
   <use id="arrowup" xlink:href="#arrowUp" x="0" y="0" onmousedown="handlePan(0,-1)"/>
  <use id="arrowright" xlink:href="#arrowRight" x="0" y="0" onmousedown="handlePan(1,0)"/>
  <use id="arrowdown" xlink:href="#arrowDown" x="0" y="0" onmousedown="handlePan(0,1)"/>
  <use id="arrowleft" xlink:href="#arrowLeft" x="0" y="0" onmousedown="handlePan(-1,0)"/>
</g>
<svg viewBox="0 0 15 15" width="100%" height="30px" preserveAspectRatio="xMaxYMin meet">
 <g id="arrow_out" transform="scale(0.3 0.3)">
  <a xlink:href="classArcane_1_1MshMeshWriterService__coll__graph_org.svg" target="_base">
   <rect id="button" ry="5" rx="5" y="6" x="6" height="38" width="38"
        fill="#f2f5e9" fill-opacity="0.5" stroke="#606060" stroke-width="1.0"/>
   <path id="arrow"
     d="M 11.500037,31.436501 C 11.940474,20.09759 22.043105,11.32322 32.158766,21.979434 L 37.068811,17.246167 C 37.068811,17.246167 37.088388,32 37.088388,32 L 22.160133,31.978069 C 22.160133,31.978069 26.997745,27.140456 26.997745,27.140456 C 18.528582,18.264221 13.291696,25.230495 11.500037,31.436501 z"
     style="fill:#404040;"/>
  </a>
 </g>
</svg>

<style type='text/css'>
<![CDATA[
[data-mouse-over-selected='false'] { opacity: 0.7; }
[data-mouse-over-selected='true']  { opacity: 1.0; }
]]>
</style>
<script type="application/ecmascript"><![CDATA[
document.addEventListener('DOMContentLoaded', (event) => {
  highlightEdges();
  highlightAdjacentNodes();
});
]]></script>
</svg>
