<?xml version="1.0" encoding="UTF-8" standalone="no"?>
<!DOCTYPE svg PUBLIC "-//W3C//DTD SVG 1.1//EN"
 "http://www.w3.org/Graphics/SVG/1.1/DTD/svg11.dtd">
<!-- Generated by graphviz version 2.43.0 (0)
 -->
<!-- Title: Arcane::HoneyComb3DMeshGenerator::CellLineInfo Pages: 1 -->
<!--zoomable 550 -->

<svg id="main" version="1.1" xmlns="http://www.w3.org/2000/svg" xmlns:xlink="http://www.w3.org/1999/xlink" xml:space="preserve" onload="init(evt)">

<style type="text/css"><![CDATA[
.node, .edge {opacity: 0.7;}
.node.selected, .edge.selected {opacity: 1;}
.edge:hover path { stroke: red; }
.edge:hover polygon { stroke: red; fill: red; }
]]></style>

<defs>
  <circle id="rim" cx="0" cy="0" r="7"/>
  <circle id="rim2" cx="0" cy="0" r="3.5"/>
  <g id="zoomPlus">
    <use xlink:href="#rim" fill="#404040"><set attributeName="fill" to="#808080" begin="zoomplus.mouseover" end="zoomplus.mouseout"/></use>
    <path d="M-4,0h8M0,-4v8" fill="none" stroke="white" stroke-width="1.5" pointer-events="none"/>
  </g>
  <g id="zoomMin">
    <use xlink:href="#rim" fill="#404040"><set attributeName="fill" to="#808080" begin="zoomminus.mouseover" end="zoomminus.mouseout"/></use>
    <path d="M-4,0h8" fill="none" stroke="white" stroke-width="1.5" pointer-events="none"/>
  </g>
  <g id="arrowUp" transform="translate(30 24)">
    <use xlink:href="#rim"/>
    <path pointer-events="none" fill="none" stroke="white" stroke-width="1.5" d="M0,-3.0v7 M-2.5,-0.5L0,-3.0L2.5,-0.5"/>
  </g>
  <g id="arrowRight" transform="rotate(90) translate(36 -43)">
    <use xlink:href="#rim"/>
    <path pointer-events="none" fill="none" stroke="white" stroke-width="1.5" d="M0,-3.0v7 M-2.5,-0.5L0,-3.0L2.5,-0.5"/>
  </g>
  <g id="arrowDown" transform="rotate(180) translate(-30 -48)">
    <use xlink:href="#rim"/>
    <path pointer-events="none" fill="none" stroke="white" stroke-width="1.5" d="M0,-3.0v7 M-2.5,-0.5L0,-3.0L2.5,-0.5"/>
  </g>
  <g id="arrowLeft" transform="rotate(270) translate(-36 17)">
    <use xlink:href="#rim"/>
    <path pointer-events="none" fill="none" stroke="white" stroke-width="1.5" d="M0,-3.0v7 M-2.5,-0.5L0,-3.0L2.5,-0.5"/>
  </g>
  <g id="resetDef">
    <use xlink:href="#rim2" fill="#404040"><set attributeName="fill" to="#808080" begin="reset.mouseover" end="reset.mouseout"/></use>
  </g>
</defs>
<script type="application/ecmascript">
var viewWidth = 207;
var viewHeight = 550;
var sectionId = 'dynsection-0';
</script>
<script type="application/ecmascript" xlink:href="../../svg.min.js"/>
<svg id="graph" class="graph">
<g id="viewport">
<title>Arcane::HoneyComb3DMeshGenerator::CellLineInfo</title>
<!-- Node1 -->
<g id="Node000001" class="node">
<title>Node1</title>
<g id="a_Node000001"><a xlink:title="Infos sur une ligne d&#39;hexagone.">
<polygon fill="#999999" stroke="transparent" points="199,-90 0,-90 0,0 199,0 199,-90"/>
<text text-anchor="start" x="5.5" y="-78" font-family="Helvetica,sans-Serif" font-size="10.00">Arcane::HoneyComb3DMeshGenerator</text>
<text text-anchor="start" x="68" y="-67" font-family="Helvetica,sans-Serif" font-size="10.00">::CellLineInfo</text>
<text text-anchor="start" x="32.5" y="-52" font-family="Helvetica,sans-Serif" font-size="10.00">+</text>
<text text-anchor="start" x="73.5" y="-52" font-family="Helvetica,sans-Serif" font-size="10.00">m_bottom</text>
<text text-anchor="start" x="32.5" y="-37" font-family="Helvetica,sans-Serif" font-size="10.00">+</text>
<text text-anchor="start" x="73.5" y="-37" font-family="Helvetica,sans-Serif" font-size="10.00">m_top</text>
<text text-anchor="start" x="32.5" y="-22" font-family="Helvetica,sans-Serif" font-size="10.00">+</text>
<text text-anchor="start" x="73.5" y="-22" font-family="Helvetica,sans-Serif" font-size="10.00">m_nb_cell</text>
<text text-anchor="start" x="32.5" y="-7" font-family="Helvetica,sans-Serif" font-size="10.00">+</text>
<text text-anchor="start" x="73.5" y="-7" font-family="Helvetica,sans-Serif" font-size="10.00">CellLineInfo()</text>
<polygon fill="#666666" stroke="#666666" points="0.5,-62 0.5,-62 199.5,-62 199.5,-62 0.5,-62"/>
<polygon fill="#666666" stroke="#666666" points="0.5,-17 0.5,-17 71.5,-17 71.5,-17 0.5,-17"/>
<polygon fill="#666666" stroke="#666666" points="71.5,-17 71.5,-17 199.5,-17 199.5,-17 71.5,-17"/>
<polygon fill="none" stroke="#666666" points="0,0 0,-90 199,-90 199,0 0,0"/>
</a>
</g>
</g>
<!-- Node2 -->
<g id="Node000002" class="node">
<title>Node2</title>
<g id="a_Node000002"><a xlink:href="../../d6/d24/classArcane_1_1Real2.html" target="_top" xlink:title="Classe gérant un vecteur de réel de dimension 2.">
<polygon fill="white" stroke="transparent" points="146.5,-381 52.5,-381 52.5,-137 146.5,-137 146.5,-381"/>
<text text-anchor="start" x="65.5" y="-369" font-family="Helvetica,sans-Serif" font-size="10.00">Arcane::Real2</text>
<text text-anchor="start" x="97.5" y="-354" font-family="Helvetica,sans-Serif" font-size="10.00"> </text>
<text text-anchor="start" x="56.5" y="-339" font-family="Helvetica,sans-Serif" font-size="10.00">+</text>
<text text-anchor="start" x="69.5" y="-339" font-family="Helvetica,sans-Serif" font-size="10.00">Real2()</text>
<text text-anchor="start" x="56.5" y="-324" font-family="Helvetica,sans-Serif" font-size="10.00">+</text>
<text text-anchor="start" x="69.5" y="-324" font-family="Helvetica,sans-Serif" font-size="10.00">Real2()</text>
<text text-anchor="start" x="56.5" y="-309" font-family="Helvetica,sans-Serif" font-size="10.00">+</text>
<text text-anchor="start" x="69.5" y="-309" font-family="Helvetica,sans-Serif" font-size="10.00">Real2()</text>
<text text-anchor="start" x="56.5" y="-294" font-family="Helvetica,sans-Serif" font-size="10.00">+</text>
<text text-anchor="start" x="69.5" y="-294" font-family="Helvetica,sans-Serif" font-size="10.00">Real2()</text>
<text text-anchor="start" x="56.5" y="-279" font-family="Helvetica,sans-Serif" font-size="10.00">+</text>
<text text-anchor="start" x="69.5" y="-279" font-family="Helvetica,sans-Serif" font-size="10.00">Real2()</text>
<text text-anchor="start" x="56.5" y="-264" font-family="Helvetica,sans-Serif" font-size="10.00">+</text>
<text text-anchor="start" x="69.5" y="-264" font-family="Helvetica,sans-Serif" font-size="10.00">Real2()</text>
<text text-anchor="start" x="56.5" y="-249" font-family="Helvetica,sans-Serif" font-size="10.00">+</text>
<text text-anchor="start" x="69.5" y="-249" font-family="Helvetica,sans-Serif" font-size="10.00">Real2()</text>
<text text-anchor="start" x="56.5" y="-234" font-family="Helvetica,sans-Serif" font-size="10.00">+</text>
<text text-anchor="start" x="69.5" y="-234" font-family="Helvetica,sans-Serif" font-size="10.00">operator=()</text>
<text text-anchor="start" x="56.5" y="-219" font-family="Helvetica,sans-Serif" font-size="10.00">+</text>
<text text-anchor="start" x="69.5" y="-219" font-family="Helvetica,sans-Serif" font-size="10.00">operator=()</text>
<text text-anchor="start" x="56.5" y="-204" font-family="Helvetica,sans-Serif" font-size="10.00">+</text>
<text text-anchor="start" x="69.5" y="-204" font-family="Helvetica,sans-Serif" font-size="10.00">copy()</text>
<text text-anchor="start" x="69.5" y="-189" font-family="Helvetica,sans-Serif" font-size="10.00">et 36 de plus...</text>
<text text-anchor="start" x="56.5" y="-174" font-family="Helvetica,sans-Serif" font-size="10.00">+</text>
<text text-anchor="start" x="69.5" y="-174" font-family="Helvetica,sans-Serif" font-size="10.00">null()</text>
<text text-anchor="start" x="59" y="-159" font-family="Helvetica,sans-Serif" font-size="10.00">&#45;</text>
<text text-anchor="start" x="69.5" y="-159" font-family="Helvetica,sans-Serif" font-size="10.00">_eq()</text>
<text text-anchor="start" x="59" y="-144" font-family="Helvetica,sans-Serif" font-size="10.00">&#45;</text>
<text text-anchor="start" x="69.5" y="-144" font-family="Helvetica,sans-Serif" font-size="10.00">_sqrt()</text>
<polygon fill="#666666" stroke="#666666" points="52.5,-364 52.5,-364 146.5,-364 146.5,-364 52.5,-364"/>
<polygon fill="#666666" stroke="#666666" points="52.5,-349 52.5,-349 146.5,-349 146.5,-349 52.5,-349"/>
<polygon fill="none" stroke="#666666" points="52.5,-137 52.5,-381 146.5,-381 146.5,-137 52.5,-137"/>
</a>
</g>
</g>
<!-- Node2&#45;&gt;Node1 -->
<g id="edge1_Node000001_Node000002" class="edge">
<title>Node2&#45;&gt;Node1</title>
<g id="a_edge1_Node000001_Node000002"><a xlink:title=" ">
<path fill="none" stroke="#63b8ff" d="M99.5,-136.83C99.5,-124.96 99.5,-113.36 99.5,-102.62"/>
<polygon fill="none" stroke="#63b8ff" points="99.5,-102.45 95.5,-96.45 99.5,-90.45 103.5,-96.45 99.5,-102.45"/>
</a>
</g>
<text text-anchor="middle" x="140.5" y="-111" font-family="Helvetica,sans-Serif" font-size="10.00" fill="grey"> +m_first_center</text>
</g>
<!-- Node3 -->
<g id="Node000003" class="node">
<title>Node3</title>
<g id="a_Node000003"><a xlink:href="../../d7/d29/structArcane_1_1Real2POD.html" target="_top" xlink:title=" ">
<polygon fill="white" stroke="transparent" points="149.5,-542 49.5,-542 49.5,-418 149.5,-418 149.5,-542"/>
<text text-anchor="start" x="55" y="-530" font-family="Helvetica,sans-Serif" font-size="10.00">Arcane::Real2POD</text>
<text text-anchor="start" x="53.5" y="-515" font-family="Helvetica,sans-Serif" font-size="10.00">+</text>
<text text-anchor="start" x="66.5" y="-515" font-family="Helvetica,sans-Serif" font-size="10.00">x</text>
<text text-anchor="start" x="53.5" y="-500" font-family="Helvetica,sans-Serif" font-size="10.00">+</text>
<text text-anchor="start" x="66.5" y="-500" font-family="Helvetica,sans-Serif" font-size="10.00">y</text>
<text text-anchor="start" x="53.5" y="-485" font-family="Helvetica,sans-Serif" font-size="10.00">+</text>
<text text-anchor="start" x="66.5" y="-485" font-family="Helvetica,sans-Serif" font-size="10.00">operator[]()</text>
<text text-anchor="start" x="53.5" y="-470" font-family="Helvetica,sans-Serif" font-size="10.00">+</text>
<text text-anchor="start" x="66.5" y="-470" font-family="Helvetica,sans-Serif" font-size="10.00">operator()()</text>
<text text-anchor="start" x="53.5" y="-455" font-family="Helvetica,sans-Serif" font-size="10.00">+</text>
<text text-anchor="start" x="66.5" y="-455" font-family="Helvetica,sans-Serif" font-size="10.00">operator[]()</text>
<text text-anchor="start" x="53.5" y="-440" font-family="Helvetica,sans-Serif" font-size="10.00">+</text>
<text text-anchor="start" x="66.5" y="-440" font-family="Helvetica,sans-Serif" font-size="10.00">operator()()</text>
<text text-anchor="start" x="53.5" y="-425" font-family="Helvetica,sans-Serif" font-size="10.00">+</text>
<text text-anchor="start" x="66.5" y="-425" font-family="Helvetica,sans-Serif" font-size="10.00">setComponent()</text>
<polygon fill="#bfbfbf" stroke="#bfbfbf" points="49.5,-525 49.5,-525 149.5,-525 149.5,-525 49.5,-525"/>
<polygon fill="#bfbfbf" stroke="#bfbfbf" points="49.5,-495 49.5,-495 64.5,-495 64.5,-495 49.5,-495"/>
<polygon fill="#bfbfbf" stroke="#bfbfbf" points="64.5,-495 64.5,-495 149.5,-495 149.5,-495 64.5,-495"/>
<polygon fill="none" stroke="#bfbfbf" points="49.5,-418 49.5,-542 149.5,-542 149.5,-418 49.5,-418"/>
</a>
</g>
</g>
<!-- Node3&#45;&gt;Node2 -->
<g id="edge2_Node000002_Node000003" class="edge">
<title>Node3&#45;&gt;Node2</title>
<g id="a_edge2_Node000002_Node000003"><a xlink:title=" ">
<path fill="none" stroke="#63b8ff" d="M99.5,-407.97C99.5,-399.27 99.5,-390.2 99.5,-381.02"/>
<polygon fill="none" stroke="#63b8ff" points="96,-408 99.5,-418 103,-408 96,-408"/>
</a>
</g>
</g>
</g>
</svg>

<g id="navigator" transform="translate(0 0)" fill="#404254">
  <rect fill="#f2f5e9" fill-opacity="0.5" stroke="#606060" stroke-width=".5" x="0" y="0" width="60" height="60"/>
  <use id="zoomplus" xlink:href="#zoomPlus" x="17" y="9" onmousedown="handleZoom(evt,'in')"/>
  <use id="zoomminus" xlink:href="#zoomMin" x="42" y="9" onmousedown="handleZoom(evt,'out')"/>
  <use id="reset" xlink:href="#resetDef" x="30" y="36" onmousedown="handleReset()"/>
   <use id="arrowup" xlink:href="#arrowUp" x="0" y="0" onmousedown="handlePan(0,-1)"/>
  <use id="arrowright" xlink:href="#arrowRight" x="0" y="0" onmousedown="handlePan(1,0)"/>
  <use id="arrowdown" xlink:href="#arrowDown" x="0" y="0" onmousedown="handlePan(0,1)"/>
  <use id="arrowleft" xlink:href="#arrowLeft" x="0" y="0" onmousedown="handlePan(-1,0)"/>
</g>
<svg viewBox="0 0 15 15" width="100%" height="30px" preserveAspectRatio="xMaxYMin meet">
 <g id="arrow_out" transform="scale(0.3 0.3)">
  <a xlink:href="classArcane_1_1HoneyComb3DMeshGenerator_1_1CellLineInfo__coll__graph_org.svg" target="_base">
   <rect id="button" ry="5" rx="5" y="6" x="6" height="38" width="38"
        fill="#f2f5e9" fill-opacity="0.5" stroke="#606060" stroke-width="1.0"/>
   <path id="arrow"
     d="M 11.500037,31.436501 C 11.940474,20.09759 22.043105,11.32322 32.158766,21.979434 L 37.068811,17.246167 C 37.068811,17.246167 37.088388,32 37.088388,32 L 22.160133,31.978069 C 22.160133,31.978069 26.997745,27.140456 26.997745,27.140456 C 18.528582,18.264221 13.291696,25.230495 11.500037,31.436501 z"
     style="fill:#404040;"/>
  </a>
 </g>
</svg>

<style type='text/css'>
<![CDATA[
[data-mouse-over-selected='false'] { opacity: 0.7; }
[data-mouse-over-selected='true']  { opacity: 1.0; }
]]>
</style>
<script type="application/ecmascript"><![CDATA[
document.addEventListener('DOMContentLoaded', (event) => {
  highlightEdges();
  highlightAdjacentNodes();
});
]]></script>
</svg>
