<?xml version="1.0" encoding="UTF-8" standalone="no"?>
<!DOCTYPE svg PUBLIC "-//W3C//DTD SVG 1.1//EN"
 "http://www.w3.org/Graphics/SVG/1.1/DTD/svg11.dtd">
<!-- Generated by graphviz version 2.43.0 (0)
 -->
<!-- Title: Arcane::geometric::Pyramid5ElementView Pages: 1 -->
<svg width="161pt" height="250pt"
 viewBox="0.00 0.00 161.00 250.00" xmlns="http://www.w3.org/2000/svg" xmlns:xlink="http://www.w3.org/1999/xlink">

<svg id="main" version="1.1" xmlns="http://www.w3.org/2000/svg" xmlns:xlink="http://www.w3.org/1999/xlink" xml:space="preserve">

<style type="text/css"><![CDATA[
.node, .edge {opacity: 0.7;}
.node.selected, .edge.selected {opacity: 1;}
.edge:hover path { stroke: red; }
.edge:hover polygon { stroke: red; fill: red; }
]]></style>
<script type="application/ecmascript" xlink:href="../../svg.min.js"/>
<svg id="graph" class="graph">
<g id="graph0" class="graph" transform="scale(1 1) rotate(0) translate(4 246)">
<title>Arcane::geometric::Pyramid5ElementView</title>
<!-- Node1 -->
<g id="Node000001" class="node">
<title>Node1</title>
<g id="a_Node000001"><a xlink:title="Vue modifiable sur les éléments géométriques de type GeomType::Pyramid5.">
<polygon fill="#999999" stroke="transparent" points="153,-116 0,-116 0,0 153,0 153,-116"/>
<text text-anchor="start" x="21" y="-104" font-family="Helvetica,sans-Serif" font-size="10.00">Arcane::geometric::</text>
<text text-anchor="start" x="21" y="-93" font-family="Helvetica,sans-Serif" font-size="10.00">Pyramid5ElementView</text>
<text text-anchor="start" x="75" y="-78" font-family="Helvetica,sans-Serif" font-size="10.00"> </text>
<text text-anchor="start" x="4.5" y="-63" font-family="Helvetica,sans-Serif" font-size="10.00">+</text>
<text text-anchor="start" x="17.5" y="-63" font-family="Helvetica,sans-Serif" font-size="10.00">Pyramid5ElementView()</text>
<text text-anchor="start" x="4.5" y="-48" font-family="Helvetica,sans-Serif" font-size="10.00">+</text>
<text text-anchor="start" x="17.5" y="-48" font-family="Helvetica,sans-Serif" font-size="10.00">init()</text>
<text text-anchor="start" x="4.5" y="-33" font-family="Helvetica,sans-Serif" font-size="10.00">+</text>
<text text-anchor="start" x="17.5" y="-33" font-family="Helvetica,sans-Serif" font-size="10.00">operator Pyramid5Element</text>
<text text-anchor="start" x="17.5" y="-22" font-family="Helvetica,sans-Serif" font-size="10.00">ConstView()</text>
<text text-anchor="start" x="4.5" y="-7" font-family="Helvetica,sans-Serif" font-size="10.00">+</text>
<text text-anchor="start" x="17.5" y="-7" font-family="Helvetica,sans-Serif" font-size="10.00">constView()</text>
<polygon fill="#666666" stroke="#666666" points="0.5,-88 0.5,-88 153.5,-88 153.5,-88 0.5,-88"/>
<polygon fill="#666666" stroke="#666666" points="0.5,-73 0.5,-73 153.5,-73 153.5,-73 0.5,-73"/>
<polygon fill="none" stroke="#666666" points="0,0 0,-116 153,-116 153,0 0,0"/>
</a>
</g>
</g>
<!-- Node2 -->
<g id="Node000002" class="node">
<title>Node2</title>
<g id="a_Node000002"><a xlink:href="../../dc/d95/classArcane_1_1geometric_1_1GeomElementViewBase.html" target="_top" xlink:title="Classe de base des vues modifiables sur des éléments géométriques.">
<polygon fill="white" stroke="transparent" points="150,-242 3,-242 3,-152 150,-152 150,-242"/>
<text text-anchor="start" x="18" y="-230" font-family="Helvetica,sans-Serif" font-size="10.00">Arcane::geometric::</text>
<text text-anchor="start" x="18" y="-219" font-family="Helvetica,sans-Serif" font-size="10.00">GeomElementViewBase</text>
<text text-anchor="start" x="7.5" y="-204" font-family="Helvetica,sans-Serif" font-size="10.00">#</text>
<text text-anchor="start" x="20.5" y="-204" font-family="Helvetica,sans-Serif" font-size="10.00">m_s</text>
<text text-anchor="start" x="7.5" y="-189" font-family="Helvetica,sans-Serif" font-size="10.00">+</text>
<text text-anchor="start" x="20.5" y="-189" font-family="Helvetica,sans-Serif" font-size="10.00">GeomElementViewBase()</text>
<text text-anchor="start" x="7.5" y="-174" font-family="Helvetica,sans-Serif" font-size="10.00">+</text>
<text text-anchor="start" x="20.5" y="-174" font-family="Helvetica,sans-Serif" font-size="10.00">operator[]()</text>
<text text-anchor="start" x="7.5" y="-159" font-family="Helvetica,sans-Serif" font-size="10.00">+</text>
<text text-anchor="start" x="20.5" y="-159" font-family="Helvetica,sans-Serif" font-size="10.00">setValue()</text>
<polygon fill="#666666" stroke="#666666" points="3.5,-214 3.5,-214 150.5,-214 150.5,-214 3.5,-214"/>
<polygon fill="#666666" stroke="#666666" points="3.5,-199 3.5,-199 18.5,-199 18.5,-199 3.5,-199"/>
<polygon fill="#666666" stroke="#666666" points="18.5,-199 18.5,-199 150.5,-199 150.5,-199 18.5,-199"/>
<polygon fill="none" stroke="#666666" points="3,-152 3,-242 150,-242 150,-152 3,-152"/>
</a>
</g>
</g>
<!-- Node2&#45;&gt;Node1 -->
<g id="edge1_Node000001_Node000002" class="edge">
<title>Node2&#45;&gt;Node1</title>
<g id="a_edge1_Node000001_Node000002"><a xlink:title=" ">
<path fill="none" stroke="#63b8ff" d="M76.5,-141.77C76.5,-133.31 76.5,-124.55 76.5,-116.04"/>
<polygon fill="none" stroke="#63b8ff" points="73,-141.9 76.5,-151.9 80,-141.9 73,-141.9"/>
</a>
</g>
</g>
</g>
</svg>
</svg>

<style type='text/css'>
<![CDATA[
[data-mouse-over-selected='false'] { opacity: 0.7; }
[data-mouse-over-selected='true']  { opacity: 1.0; }
]]>
</style>
<script type="application/ecmascript"><![CDATA[
document.addEventListener('DOMContentLoaded', (event) => {
  highlightEdges();
  highlightAdjacentNodes();
});
]]></script>
</svg>
