<?xml version="1.0" encoding="UTF-8" standalone="no"?>
<!DOCTYPE svg PUBLIC "-//W3C//DTD SVG 1.1//EN"
 "http://www.w3.org/Graphics/SVG/1.1/DTD/svg11.dtd">
<!-- Generated by graphviz version 14.1.2 (0)
 -->
<!-- Title: Arcane::OwnActiveCellGroupComputeFunctor::executeFunctor Pages: 1 -->
<svg width="511pt" height="378pt"
 viewBox="0.00 0.00 511.00 378.00" xmlns="http://www.w3.org/2000/svg" xmlns:xlink="http://www.w3.org/1999/xlink">
<g id="graph0" class="graph" transform="scale(1 1) rotate(0) translate(4 373.75)">
<title>Arcane::OwnActiveCellGroupComputeFunctor::executeFunctor</title>
<!-- Node1 -->
<g id="Node000001" class="node">
<title>Node1</title>
<g id="a_Node000001"><a xlink:title="Exécute la méthode associé">
<polygon fill="#999999" stroke="#666666" points="176.5,-195.12 0,-195.12 0,-161.62 176.5,-161.62 176.5,-195.12"/>
<text xml:space="preserve" text-anchor="start" x="8" y="-181.62" font-family="Helvetica,sans-Serif" font-size="10.00">Arcane::OwnActiveCellGroup</text>
<text xml:space="preserve" text-anchor="middle" x="88.25" y="-168.88" font-family="Helvetica,sans-Serif" font-size="10.00">ComputeFunctor::executeFunctor</text>
</a>
</g>
</g>
<!-- Node2 -->
<g id="Node000002" class="node">
<title>Node2</title>
<g id="a_Node000002"><a xlink:href="../../d1/dfb/classArcane_1_1Array.html#afb30a771d3fd8022c7220afe7b78e60b" target="_top" xlink:title="Ajoute l&#39;élément val à la fin du tableau.">
<polygon fill="white" stroke="#666666" points="335.75,-369.75 230.5,-369.75 230.5,-349 335.75,-349 335.75,-369.75"/>
<text xml:space="preserve" text-anchor="middle" x="283.12" y="-356.25" font-family="Helvetica,sans-Serif" font-size="10.00">Arcane::Array::add</text>
</a>
</g>
</g>
<!-- Node1&#45;&gt;Node2 -->
<g id="edge1_Node000001_Node000002" class="edge">
<title>Node1&#45;&gt;Node2</title>
<g id="a_edge1_Node000001_Node000002"><a xlink:title=" ">
<path fill="none" stroke="#63b8ff" d="M97.43,-195.53C114.19,-228.77 155.66,-302.04 212.5,-340.38 214.86,-341.97 217.36,-343.43 219.94,-344.77"/>
<polygon fill="#63b8ff" stroke="#63b8ff" points="218.3,-347.87 228.86,-348.73 221.14,-341.47 218.3,-347.87"/>
</a>
</g>
</g>
<!-- Node3 -->
<g id="Node000003" class="node">
<title>Node3</title>
<g id="a_Node000003"><a xlink:href="../../d3/d00/classArcane_1_1ITraceMng.html#aedf2055d636e0b6261dc5862cea1b786" target="_top" xlink:title="Flot pour un message de debug.">
<polygon fill="white" stroke="#666666" points="338.75,-331.12 227.5,-331.12 227.5,-297.62 338.75,-297.62 338.75,-331.12"/>
<text xml:space="preserve" text-anchor="start" x="235.5" y="-317.62" font-family="Helvetica,sans-Serif" font-size="10.00">Arcane::ITraceMng::</text>
<text xml:space="preserve" text-anchor="middle" x="283.12" y="-304.88" font-family="Helvetica,sans-Serif" font-size="10.00">debug</text>
</a>
</g>
</g>
<!-- Node1&#45;&gt;Node3 -->
<g id="edge2_Node000001_Node000003" class="edge">
<title>Node1&#45;&gt;Node3</title>
<g id="a_edge2_Node000001_Node000003"><a xlink:title=" ">
<path fill="none" stroke="#63b8ff" d="M104.43,-195.44C126.28,-219.12 168.79,-262 212.5,-288.38 214.78,-289.75 217.15,-291.08 219.58,-292.35"/>
<polygon fill="#63b8ff" stroke="#63b8ff" points="217.9,-295.43 228.43,-296.62 220.94,-289.12 217.9,-295.43"/>
</a>
</g>
</g>
<!-- Node4 -->
<g id="Node000004" class="node">
<title>Node4</title>
<g id="a_Node000004"><a xlink:href="../../d3/d00/classArcane_1_1ITraceMng.html#a9e99f88de0e9f0ea3c0f8b7823e5d052" target="_top" xlink:title="Flot pour un message d&#39;erreur fatale.">
<polygon fill="white" stroke="#666666" points="338.75,-279.12 227.5,-279.12 227.5,-245.62 338.75,-245.62 338.75,-279.12"/>
<text xml:space="preserve" text-anchor="start" x="235.5" y="-265.62" font-family="Helvetica,sans-Serif" font-size="10.00">Arcane::ITraceMng::</text>
<text xml:space="preserve" text-anchor="middle" x="283.12" y="-252.88" font-family="Helvetica,sans-Serif" font-size="10.00">fatal</text>
</a>
</g>
</g>
<!-- Node1&#45;&gt;Node4 -->
<g id="edge3_Node000001_Node000004" class="edge">
<title>Node1&#45;&gt;Node4</title>
<g id="a_edge3_Node000001_Node000004"><a xlink:title=" ">
<path fill="none" stroke="#63b8ff" d="M123.7,-195.52C148.23,-207.5 182.1,-223.57 212.5,-236.38 216.12,-237.9 219.86,-239.43 223.64,-240.94"/>
<polygon fill="#63b8ff" stroke="#63b8ff" points="222.36,-244.19 232.94,-244.58 224.91,-237.67 222.36,-244.19"/>
</a>
</g>
</g>
<!-- Node5 -->
<g id="Node000005" class="node">
<title>Node5</title>
<g id="a_Node000005"><a xlink:href="../../d9/db2/classArcane_1_1Cell.html#ab43bdb9c0a96dc537f80ae49d7eedc9b" target="_top" xlink:title=" ">
<polygon fill="white" stroke="#666666" points="342.88,-227.75 223.38,-227.75 223.38,-207 342.88,-207 342.88,-227.75"/>
<text xml:space="preserve" text-anchor="middle" x="283.12" y="-214.25" font-family="Helvetica,sans-Serif" font-size="10.00">Arcane::Cell::isActive</text>
</a>
</g>
</g>
<!-- Node1&#45;&gt;Node5 -->
<g id="edge4_Node000001_Node000005" class="edge">
<title>Node1&#45;&gt;Node5</title>
<g id="a_edge4_Node000001_Node000005"><a xlink:title=" ">
<path fill="none" stroke="#63b8ff" d="M174.41,-195.59C188.76,-198.5 203.44,-201.47 217.17,-204.24"/>
<polygon fill="#63b8ff" stroke="#63b8ff" points="216.48,-207.67 226.97,-206.22 217.86,-200.81 216.48,-207.67"/>
</a>
</g>
</g>
<!-- Node6 -->
<g id="Node000006" class="node">
<title>Node6</title>
<g id="a_Node000006"><a xlink:href="../../df/d5f/classArcane_1_1Item.html#abcc38f4eb268c09c2e733b1ed12f7719" target="_top" xlink:title="true si l&#39;entité est appartient au sous&#45;domaine">
<polygon fill="white" stroke="#666666" points="340.25,-188.75 226,-188.75 226,-168 340.25,-168 340.25,-188.75"/>
<text xml:space="preserve" text-anchor="middle" x="283.12" y="-175.25" font-family="Helvetica,sans-Serif" font-size="10.00">Arcane::Item::isOwn</text>
</a>
</g>
</g>
<!-- Node1&#45;&gt;Node6 -->
<g id="edge5_Node000001_Node000006" class="edge">
<title>Node1&#45;&gt;Node6</title>
<g id="a_edge5_Node000001_Node000006"><a xlink:title=" ">
<path fill="none" stroke="#63b8ff" d="M176.94,-178.38C189.46,-178.38 202.17,-178.38 214.24,-178.38"/>
<polygon fill="#63b8ff" stroke="#63b8ff" points="214.06,-181.88 224.06,-178.38 214.06,-174.88 214.06,-181.88"/>
</a>
</g>
</g>
<!-- Node8 -->
<g id="Node000008" class="node">
<title>Node8</title>
<g id="a_Node000008"><a xlink:href="../../dd/d0a/classArcane_1_1IItemFamily.html#a9ad039c775d18575532c390f1f1eaab4" target="_top" xlink:title="Genre des entités.">
<polygon fill="white" stroke="#666666" points="339.88,-150.12 226.38,-150.12 226.38,-116.62 339.88,-116.62 339.88,-150.12"/>
<text xml:space="preserve" text-anchor="start" x="234.38" y="-136.62" font-family="Helvetica,sans-Serif" font-size="10.00">Arcane::IItemFamily</text>
<text xml:space="preserve" text-anchor="middle" x="283.12" y="-123.88" font-family="Helvetica,sans-Serif" font-size="10.00">::itemKind</text>
</a>
</g>
</g>
<!-- Node1&#45;&gt;Node8 -->
<g id="edge7_Node000001_Node000008" class="edge">
<title>Node1&#45;&gt;Node8</title>
<g id="a_edge7_Node000001_Node000008"><a xlink:title=" ">
<path fill="none" stroke="#63b8ff" d="M162.99,-161.17C180.18,-157.16 198.38,-152.91 215.25,-148.98"/>
<polygon fill="#63b8ff" stroke="#63b8ff" points="215.7,-152.47 224.65,-146.79 214.11,-145.65 215.7,-152.47"/>
</a>
</g>
</g>
<!-- Node9 -->
<g id="Node000009" class="node">
<title>Node9</title>
<g id="a_Node000009"><a xlink:href="../../df/d5f/classArcane_1_1Item.html#a337f519e8727634e55ea621f4734ec04" target="_top" xlink:title="Identifiant local de l&#39;entité dans le sous&#45;domaine du processeur.">
<polygon fill="white" stroke="#666666" points="341.38,-98.75 224.88,-98.75 224.88,-78 341.38,-78 341.38,-98.75"/>
<text xml:space="preserve" text-anchor="middle" x="283.12" y="-85.25" font-family="Helvetica,sans-Serif" font-size="10.00">Arcane::Item::localId</text>
</a>
</g>
</g>
<!-- Node1&#45;&gt;Node9 -->
<g id="edge8_Node000001_Node000009" class="edge">
<title>Node1&#45;&gt;Node9</title>
<g id="a_edge8_Node000001_Node000009"><a xlink:title=" ">
<path fill="none" stroke="#63b8ff" d="M114.23,-161.42C138.46,-145.6 176.71,-122.28 212.5,-107.38 216.55,-105.69 220.79,-104.11 225.1,-102.64"/>
<polygon fill="#63b8ff" stroke="#63b8ff" points="225.96,-106.04 234.43,-99.66 223.84,-99.37 225.96,-106.04"/>
</a>
</g>
</g>
<!-- Node10 -->
<g id="Node000010" class="node">
<title>Node10</title>
<g id="a_Node000010"><a xlink:href="../../d9/d27/classArcane_1_1ItemGroup.html#a315ae5dbc0dbbd2a4f31edc961c4441f" target="_top" xlink:title="Nom du groupe.">
<polygon fill="white" stroke="#666666" points="353.75,-59.75 212.5,-59.75 212.5,-39 353.75,-39 353.75,-59.75"/>
<text xml:space="preserve" text-anchor="middle" x="283.12" y="-46.25" font-family="Helvetica,sans-Serif" font-size="10.00">Arcane::ItemGroup::name</text>
</a>
</g>
</g>
<!-- Node1&#45;&gt;Node10 -->
<g id="edge9_Node000001_Node000010" class="edge">
<title>Node1&#45;&gt;Node10</title>
<g id="a_edge9_Node000001_Node000010"><a xlink:title=" ">
<path fill="none" stroke="#63b8ff" d="M103.83,-161.4C125.28,-137.46 167.68,-93.97 212.5,-69.38 215.91,-67.5 219.51,-65.79 223.21,-64.23"/>
<polygon fill="#63b8ff" stroke="#63b8ff" points="224.29,-67.56 232.4,-60.75 221.81,-61.02 224.29,-67.56"/>
</a>
</g>
</g>
<!-- Node11 -->
<g id="Node000011" class="node">
<title>Node11</title>
<g id="a_Node000011"><a xlink:href="../../d9/d27/classArcane_1_1ItemGroup.html#a5e13f5b3aed43db2383db28d8036c193" target="_top" xlink:title="Nombre d&#39;éléments du groupe.">
<polygon fill="white" stroke="#666666" points="349.62,-20.75 216.62,-20.75 216.62,0 349.62,0 349.62,-20.75"/>
<text xml:space="preserve" text-anchor="middle" x="283.12" y="-7.25" font-family="Helvetica,sans-Serif" font-size="10.00">Arcane::ItemGroup::size</text>
</a>
</g>
</g>
<!-- Node1&#45;&gt;Node11 -->
<g id="edge10_Node000001_Node000011" class="edge">
<title>Node1&#45;&gt;Node11</title>
<g id="a_edge10_Node000001_Node000011"><a xlink:title=" ">
<path fill="none" stroke="#63b8ff" d="M98.71,-161.35C116.73,-130.48 159.01,-65.27 212.5,-30.38 215.08,-28.69 217.8,-27.15 220.61,-25.74"/>
<polygon fill="#63b8ff" stroke="#63b8ff" points="221.96,-28.97 229.72,-21.76 219.16,-22.55 221.96,-28.97"/>
</a>
</g>
</g>
<!-- Node7 -->
<g id="Node000007" class="node">
<title>Node7</title>
<g id="a_Node000007"><a xlink:href="../../df/d5f/classArcane_1_1Item.html#af43f0841125abc9edc3724fe1dc5de91" target="_top" xlink:title="Flags de l&#39;entité">
<polygon fill="white" stroke="#666666" points="502.5,-188.75 389.75,-188.75 389.75,-168 502.5,-168 502.5,-188.75"/>
<text xml:space="preserve" text-anchor="middle" x="446.12" y="-175.25" font-family="Helvetica,sans-Serif" font-size="10.00">Arcane::Item::_flags</text>
</a>
</g>
</g>
<!-- Node6&#45;&gt;Node7 -->
<g id="edge6_Node000006_Node000007" class="edge">
<title>Node6&#45;&gt;Node7</title>
<g id="a_edge6_Node000006_Node000007"><a xlink:title=" ">
<path fill="none" stroke="#63b8ff" d="M340.43,-178.38C352.58,-178.38 365.54,-178.38 378.06,-178.38"/>
<polygon fill="#63b8ff" stroke="#63b8ff" points="377.88,-181.88 387.88,-178.38 377.88,-174.88 377.88,-181.88"/>
</a>
</g>
</g>
</g>
</svg>
