<?xml version="1.0" encoding="UTF-8" standalone="no"?>
<!DOCTYPE svg PUBLIC "-//W3C//DTD SVG 1.1//EN"
 "http://www.w3.org/Graphics/SVG/1.1/DTD/svg11.dtd">
<!-- Generated by graphviz version 14.1.2 (0)
 -->
<!-- Title: Arcane::Variable::onSizeChangedObservable Pages: 1 -->
<svg width="941pt" height="678pt"
 viewBox="0.00 0.00 941.00 678.00" xmlns="http://www.w3.org/2000/svg" xmlns:xlink="http://www.w3.org/1999/xlink">
<g id="graph0" class="graph" transform="scale(1 1) rotate(0) translate(4 673.5)">
<title>Arcane::Variable::onSizeChangedObservable</title>
<!-- Node1 -->
<g id="Node000001" class="node">
<title>Node1</title>
<g id="a_Node000001"><a xlink:title="Observable en redimensionnement.">
<polygon fill="#999999" stroke="#666666" points="932.75,-331.5 799,-331.5 799,-298 932.75,-298 932.75,-331.5"/>
<text xml:space="preserve" text-anchor="start" x="807" y="-318" font-family="Helvetica,sans-Serif" font-size="10.00">Arcane::Variable::onSize</text>
<text xml:space="preserve" text-anchor="middle" x="865.88" y="-305.25" font-family="Helvetica,sans-Serif" font-size="10.00">ChangedObservable</text>
</a>
</g>
</g>
<!-- Node2 -->
<g id="Node000002" class="node">
<title>Node2</title>
<g id="a_Node000002"><a xlink:href="../../d6/df5/classArcane_1_1Variable.html#a7aa656a1694c32fbd49eec25397e217b" target="_top" xlink:title="Synchronise les références.">
<polygon fill="white" stroke="#666666" points="763,-325.12 584.25,-325.12 584.25,-304.38 763,-304.38 763,-325.12"/>
<text xml:space="preserve" text-anchor="middle" x="673.62" y="-311.62" font-family="Helvetica,sans-Serif" font-size="10.00">Arcane::Variable::syncReferences</text>
</a>
</g>
</g>
<!-- Node1&#45;&gt;Node2 -->
<g id="edge1_Node000001_Node000002" class="edge">
<title>Node1&#45;&gt;Node2</title>
<g id="a_edge1_Node000001_Node000002"><a xlink:title=" ">
<path fill="none" stroke="#63b8ff" d="M787.24,-314.75C779.39,-314.75 771.37,-314.75 763.42,-314.75"/>
<polygon fill="#63b8ff" stroke="#63b8ff" points="787.09,-318.25 797.09,-314.75 787.09,-311.25 787.09,-318.25"/>
</a>
</g>
</g>
<!-- Node3 -->
<g id="Node000003" class="node">
<title>Node3</title>
<g id="a_Node000003"><a xlink:href="../../d8/d38/classArcane_1_1Array2VariableT.html#a034bfdea8cad779d5e6b8b5f9e917d1d" target="_top" xlink:title="Compacte les valeurs de la variable.">
<polygon fill="white" stroke="#666666" points="523.12,-669.5 389.38,-669.5 389.38,-636 523.12,-636 523.12,-669.5"/>
<text xml:space="preserve" text-anchor="start" x="397.38" y="-656" font-family="Helvetica,sans-Serif" font-size="10.00">Arcane::Array2VariableT</text>
<text xml:space="preserve" text-anchor="middle" x="456.25" y="-643.25" font-family="Helvetica,sans-Serif" font-size="10.00">::compact</text>
</a>
</g>
</g>
<!-- Node2&#45;&gt;Node3 -->
<g id="edge2_Node000002_Node000003" class="edge">
<title>Node2&#45;&gt;Node3</title>
<g id="a_edge2_Node000002_Node000003"><a xlink:title=" ">
<path fill="none" stroke="#63b8ff" d="M670.44,-336.65C663.58,-393.37 637.34,-546.24 548.25,-626.75 541.06,-633.25 532.35,-638.13 523.2,-641.8"/>
<polygon fill="#63b8ff" stroke="#63b8ff" points="673.88,-337.33 671.51,-327.01 666.92,-336.56 673.88,-337.33"/>
</a>
</g>
</g>
<!-- Node4 -->
<g id="Node000004" class="node">
<title>Node4</title>
<g id="a_Node000004"><a xlink:href="../../d9/d83/classArcane_1_1VariableArrayT.html#a5f5973145e1814d7a688a2a3afe4796a" target="_top" xlink:title="Compacte les valeurs de la variable.">
<polygon fill="white" stroke="#666666" points="520.12,-617.5 392.38,-617.5 392.38,-584 520.12,-584 520.12,-617.5"/>
<text xml:space="preserve" text-anchor="start" x="400.38" y="-604" font-family="Helvetica,sans-Serif" font-size="10.00">Arcane::VariableArrayT</text>
<text xml:space="preserve" text-anchor="middle" x="456.25" y="-591.25" font-family="Helvetica,sans-Serif" font-size="10.00">::compact</text>
</a>
</g>
</g>
<!-- Node2&#45;&gt;Node4 -->
<g id="edge3_Node000002_Node000004" class="edge">
<title>Node2&#45;&gt;Node4</title>
<g id="a_edge3_Node000002_Node000004"><a xlink:title=" ">
<path fill="none" stroke="#63b8ff" d="M668.5,-336.63C657.93,-386.62 625.07,-509.86 548.25,-574.75 540.22,-581.54 530.51,-586.55 520.48,-590.26"/>
<polygon fill="#63b8ff" stroke="#63b8ff" points="671.89,-337.56 670.43,-327.07 665.02,-336.18 671.89,-337.56"/>
</a>
</g>
</g>
<!-- Node5 -->
<g id="Node000005" class="node">
<title>Node5</title>
<g id="a_Node000005"><a xlink:href="../../d8/d38/classArcane_1_1Array2VariableT.html#a496e9030b99a804415a423bcfe2e0446" target="_top" xlink:title="Copie les moyennes des valeurs des entités numéros first_source et second_source dans les entités num...">
<polygon fill="white" stroke="#666666" points="523.12,-565.5 389.38,-565.5 389.38,-532 523.12,-532 523.12,-565.5"/>
<text xml:space="preserve" text-anchor="start" x="397.38" y="-552" font-family="Helvetica,sans-Serif" font-size="10.00">Arcane::Array2VariableT</text>
<text xml:space="preserve" text-anchor="middle" x="456.25" y="-539.25" font-family="Helvetica,sans-Serif" font-size="10.00">::copyItemsMeanValues</text>
</a>
</g>
</g>
<!-- Node2&#45;&gt;Node5 -->
<g id="edge4_Node000002_Node000005" class="edge">
<title>Node2&#45;&gt;Node5</title>
<g id="a_edge4_Node000002_Node000005"><a xlink:title=" ">
<path fill="none" stroke="#63b8ff" d="M665.84,-336.18C651.33,-378.46 613.24,-472.82 548.25,-522.75 540.82,-528.46 532.19,-532.91 523.26,-536.39"/>
<polygon fill="#63b8ff" stroke="#63b8ff" points="669.15,-337.31 668.97,-326.72 662.51,-335.11 669.15,-337.31"/>
</a>
</g>
</g>
<!-- Node6 -->
<g id="Node000006" class="node">
<title>Node6</title>
<g id="a_Node000006"><a xlink:href="../../d9/d83/classArcane_1_1VariableArrayT.html#a0f9157b093c4fe7f728453625e48ca3c" target="_top" xlink:title="Copie les moyennes des valeurs des entités numéros first_source et second_source dans les entités num...">
<polygon fill="white" stroke="#666666" points="522.38,-513.5 390.12,-513.5 390.12,-480 522.38,-480 522.38,-513.5"/>
<text xml:space="preserve" text-anchor="start" x="398.12" y="-500" font-family="Helvetica,sans-Serif" font-size="10.00">Arcane::VariableArrayT</text>
<text xml:space="preserve" text-anchor="middle" x="456.25" y="-487.25" font-family="Helvetica,sans-Serif" font-size="10.00">::copyItemsMeanValues</text>
</a>
</g>
</g>
<!-- Node2&#45;&gt;Node6 -->
<g id="edge5_Node000002_Node000006" class="edge">
<title>Node2&#45;&gt;Node6</title>
<g id="a_edge5_Node000002_Node000006"><a xlink:title=" ">
<path fill="none" stroke="#63b8ff" d="M661.83,-335.36C643.21,-368.87 601.85,-435.02 548.25,-470.75 540.46,-475.95 531.62,-480.12 522.6,-483.46"/>
<polygon fill="#63b8ff" stroke="#63b8ff" points="664.85,-337.13 666.54,-326.67 658.7,-333.79 664.85,-337.13"/>
</a>
</g>
</g>
<!-- Node7 -->
<g id="Node000007" class="node">
<title>Node7</title>
<g id="a_Node000007"><a xlink:href="../../d9/d83/classArcane_1_1VariableArrayT.html#ae9c7cb1813b856a70ed674e6c7912df0" target="_top" xlink:title=" ">
<polygon fill="white" stroke="#666666" points="544.5,-461.5 368,-461.5 368,-428 544.5,-428 544.5,-461.5"/>
<text xml:space="preserve" text-anchor="start" x="376" y="-448" font-family="Helvetica,sans-Serif" font-size="10.00">Arcane::VariableArrayT</text>
<text xml:space="preserve" text-anchor="middle" x="456.25" y="-435.25" font-family="Helvetica,sans-Serif" font-size="10.00">&lt; Real &gt;::copyItemsMeanValues</text>
</a>
</g>
</g>
<!-- Node2&#45;&gt;Node7 -->
<g id="edge6_Node000002_Node000007" class="edge">
<title>Node2&#45;&gt;Node7</title>
<g id="a_edge6_Node000002_Node000007"><a xlink:title=" ">
<path fill="none" stroke="#63b8ff" d="M655.07,-333.66C632.48,-356.91 591.03,-396.08 548.25,-418.75 542.01,-422.06 535.29,-424.99 528.45,-427.58"/>
<polygon fill="#63b8ff" stroke="#63b8ff" points="657.35,-336.34 661.72,-326.69 652.28,-331.51 657.35,-336.34"/>
</a>
</g>
</g>
<!-- Node8 -->
<g id="Node000008" class="node">
<title>Node8</title>
<g id="a_Node000008"><a xlink:href="../../d8/d38/classArcane_1_1Array2VariableT.html#a540b571a78629e7cedf4bc5f75206f65" target="_top" xlink:title="Copie les valeurs des entités numéros source dans les entités numéro destination.">
<polygon fill="white" stroke="#666666" points="523.12,-409.5 389.38,-409.5 389.38,-376 523.12,-376 523.12,-409.5"/>
<text xml:space="preserve" text-anchor="start" x="397.38" y="-396" font-family="Helvetica,sans-Serif" font-size="10.00">Arcane::Array2VariableT</text>
<text xml:space="preserve" text-anchor="middle" x="456.25" y="-383.25" font-family="Helvetica,sans-Serif" font-size="10.00">::copyItemsValues</text>
</a>
</g>
</g>
<!-- Node2&#45;&gt;Node8 -->
<g id="edge7_Node000002_Node000008" class="edge">
<title>Node2&#45;&gt;Node8</title>
<g id="a_edge7_Node000002_Node000008"><a xlink:title=" ">
<path fill="none" stroke="#63b8ff" d="M638.79,-330.17C614.02,-341.14 579.42,-355.82 548.25,-366.75 539.57,-369.79 530.33,-372.75 521.19,-375.51"/>
<polygon fill="#63b8ff" stroke="#63b8ff" points="640.02,-333.45 647.72,-326.18 637.16,-327.06 640.02,-333.45"/>
</a>
</g>
</g>
<!-- Node9 -->
<g id="Node000009" class="node">
<title>Node9</title>
<g id="a_Node000009"><a xlink:href="../../d9/d83/classArcane_1_1VariableArrayT.html#a7649da55a732ce670c0139c4a3e3264c" target="_top" xlink:title="Copie les valeurs des entités numéros source dans les entités numéro destination.">
<polygon fill="white" stroke="#666666" points="520.12,-357.5 392.38,-357.5 392.38,-324 520.12,-324 520.12,-357.5"/>
<text xml:space="preserve" text-anchor="start" x="400.38" y="-344" font-family="Helvetica,sans-Serif" font-size="10.00">Arcane::VariableArrayT</text>
<text xml:space="preserve" text-anchor="middle" x="456.25" y="-331.25" font-family="Helvetica,sans-Serif" font-size="10.00">::copyItemsValues</text>
</a>
</g>
</g>
<!-- Node2&#45;&gt;Node9 -->
<g id="edge8_Node000002_Node000009" class="edge">
<title>Node2&#45;&gt;Node9</title>
<g id="a_edge8_Node000002_Node000009"><a xlink:title=" ">
<path fill="none" stroke="#63b8ff" d="M572.52,-326.83C554.84,-328.97 536.89,-331.14 520.58,-333.11"/>
<polygon fill="#63b8ff" stroke="#63b8ff" points="572.77,-330.33 582.28,-325.66 571.93,-323.38 572.77,-330.33"/>
</a>
</g>
</g>
<!-- Node10 -->
<g id="Node000010" class="node">
<title>Node10</title>
<g id="a_Node000010"><a xlink:href="../../d6/df5/classArcane_1_1Variable.html#a73b7c023bb2fb4835f1ab7524b9a0299" target="_top" xlink:title="Notifie de la modification externe de data().">
<polygon fill="white" stroke="#666666" points="520.88,-305.5 391.62,-305.5 391.62,-272 520.88,-272 520.88,-305.5"/>
<text xml:space="preserve" text-anchor="start" x="399.62" y="-292" font-family="Helvetica,sans-Serif" font-size="10.00">Arcane::Variable::notify</text>
<text xml:space="preserve" text-anchor="middle" x="456.25" y="-279.25" font-family="Helvetica,sans-Serif" font-size="10.00">EndRead</text>
</a>
</g>
</g>
<!-- Node2&#45;&gt;Node10 -->
<g id="edge9_Node000002_Node000010" class="edge">
<title>Node2&#45;&gt;Node10</title>
<g id="a_edge9_Node000002_Node000010"><a xlink:title=" ">
<path fill="none" stroke="#63b8ff" d="M572.4,-302.65C554.99,-300.55 537.32,-298.42 521.23,-296.47"/>
<polygon fill="#63b8ff" stroke="#63b8ff" points="571.93,-306.12 582.28,-303.84 572.77,-299.17 571.93,-306.12"/>
</a>
</g>
</g>
<!-- Node12 -->
<g id="Node000012" class="node">
<title>Node12</title>
<g id="a_Node000012"><a xlink:href="../../d6/df5/classArcane_1_1Variable.html#a07ec2f91233fa4da2ef271bec7300b1f" target="_top" xlink:title="Positionne le nombre d&#39;éléments pour une variable du maillage.">
<polygon fill="white" stroke="#666666" points="521.62,-253.5 390.88,-253.5 390.88,-220 521.62,-220 521.62,-253.5"/>
<text xml:space="preserve" text-anchor="start" x="398.88" y="-240" font-family="Helvetica,sans-Serif" font-size="10.00">Arcane::Variable::resize</text>
<text xml:space="preserve" text-anchor="middle" x="456.25" y="-227.25" font-family="Helvetica,sans-Serif" font-size="10.00">FromGroup</text>
</a>
</g>
</g>
<!-- Node2&#45;&gt;Node12 -->
<g id="edge11_Node000002_Node000012" class="edge">
<title>Node2&#45;&gt;Node12</title>
<g id="a_edge11_Node000002_Node000012"><a xlink:title=" ">
<path fill="none" stroke="#63b8ff" d="M638.79,-299.33C614.02,-288.36 579.42,-273.68 548.25,-262.75 539.57,-259.71 530.33,-256.75 521.19,-253.99"/>
<polygon fill="#63b8ff" stroke="#63b8ff" points="637.16,-302.44 647.72,-303.32 640.02,-296.05 637.16,-302.44"/>
</a>
</g>
</g>
<!-- Node15 -->
<g id="Node000015" class="node">
<title>Node15</title>
<g id="a_Node000015"><a xlink:href="../../d6/df5/classArcane_1_1Variable.html#a57c8d91cfa60faaa82c1ce4d7f1317e9" target="_top" xlink:title=" ">
<polygon fill="white" stroke="#666666" points="527.62,-202.12 384.88,-202.12 384.88,-181.38 527.62,-181.38 527.62,-202.12"/>
<text xml:space="preserve" text-anchor="middle" x="456.25" y="-188.62" font-family="Helvetica,sans-Serif" font-size="10.00">Arcane::Variable::serialize</text>
</a>
</g>
</g>
<!-- Node2&#45;&gt;Node15 -->
<g id="edge14_Node000002_Node000015" class="edge">
<title>Node2&#45;&gt;Node15</title>
<g id="a_edge14_Node000002_Node000015"><a xlink:title=" ">
<path fill="none" stroke="#63b8ff" d="M655.67,-295.7C633.42,-271.97 592.05,-231.97 548.25,-210.75 541.57,-207.51 534.35,-204.83 527,-202.6"/>
<polygon fill="#63b8ff" stroke="#63b8ff" points="652.85,-297.81 662.2,-302.81 658.01,-293.08 652.85,-297.81"/>
</a>
</g>
</g>
<!-- Node16 -->
<g id="Node000016" class="node">
<title>Node16</title>
<g id="a_Node000016"><a xlink:href="../../d6/df5/classArcane_1_1Variable.html#ab81dcb2e96eeb89714d189c82cd4a887" target="_top" xlink:title="Sérialize la variable pour les identifiants ids.">
<polygon fill="white" stroke="#666666" points="527.62,-163.12 384.88,-163.12 384.88,-142.38 527.62,-142.38 527.62,-163.12"/>
<text xml:space="preserve" text-anchor="middle" x="456.25" y="-149.62" font-family="Helvetica,sans-Serif" font-size="10.00">Arcane::Variable::serialize</text>
</a>
</g>
</g>
<!-- Node2&#45;&gt;Node16 -->
<g id="edge15_Node000002_Node000016" class="edge">
<title>Node2&#45;&gt;Node16</title>
<g id="a_edge15_Node000002_Node000016"><a xlink:title=" ">
<path fill="none" stroke="#63b8ff" d="M660.77,-294.34C641.42,-262.96 599.98,-203.33 548.25,-172.75 541.98,-169.05 535.11,-166.03 528.03,-163.56"/>
<polygon fill="#63b8ff" stroke="#63b8ff" points="657.74,-296.09 665.89,-302.86 663.74,-292.49 657.74,-296.09"/>
</a>
</g>
</g>
<!-- Node17 -->
<g id="Node000017" class="node">
<title>Node17</title>
<g id="a_Node000017"><a xlink:href="../../d6/df5/classArcane_1_1Variable.html#afad635a67955f2e0fc16215239759f43" target="_top" xlink:title="Positionne les informations sur l&#39;allocation.">
<polygon fill="white" stroke="#666666" points="548.25,-124.12 364.25,-124.12 364.25,-103.38 548.25,-103.38 548.25,-124.12"/>
<text xml:space="preserve" text-anchor="middle" x="456.25" y="-110.62" font-family="Helvetica,sans-Serif" font-size="10.00">Arcane::Variable::setAllocationInfo</text>
</a>
</g>
</g>
<!-- Node2&#45;&gt;Node17 -->
<g id="edge16_Node000002_Node000017" class="edge">
<title>Node2&#45;&gt;Node17</title>
<g id="a_edge16_Node000002_Node000017"><a xlink:title=" ">
<path fill="none" stroke="#63b8ff" d="M664.38,-293.67C648.25,-255.34 608.73,-174.47 548.25,-133.75 542.75,-130.05 536.68,-127.02 530.35,-124.54"/>
<polygon fill="#63b8ff" stroke="#63b8ff" points="661.05,-294.76 668.06,-302.7 667.53,-292.12 661.05,-294.76"/>
</a>
</g>
</g>
<!-- Node18 -->
<g id="Node000018" class="node">
<title>Node18</title>
<g id="a_Node000018"><a xlink:href="../../d8/d38/classArcane_1_1Array2VariableT.html#afeceb9787480fe7e480a03c774ff8c87" target="_top" xlink:title="Libère l&#39;éventuelle mémoire supplémentaire allouée pour les données.">
<polygon fill="white" stroke="#666666" points="523.12,-85.5 389.38,-85.5 389.38,-52 523.12,-52 523.12,-85.5"/>
<text xml:space="preserve" text-anchor="start" x="397.38" y="-72" font-family="Helvetica,sans-Serif" font-size="10.00">Arcane::Array2VariableT</text>
<text xml:space="preserve" text-anchor="middle" x="456.25" y="-59.25" font-family="Helvetica,sans-Serif" font-size="10.00">::shrinkMemory</text>
</a>
</g>
</g>
<!-- Node2&#45;&gt;Node18 -->
<g id="edge17_Node000002_Node000018" class="edge">
<title>Node2&#45;&gt;Node18</title>
<g id="a_edge17_Node000002_Node000018"><a xlink:title=" ">
<path fill="none" stroke="#63b8ff" d="M666.57,-293.28C653.02,-249.19 615.98,-148.11 548.25,-94.75 540.89,-88.95 532.3,-84.45 523.39,-80.95"/>
<polygon fill="#63b8ff" stroke="#63b8ff" points="663.16,-294.07 669.35,-302.67 669.87,-292.09 663.16,-294.07"/>
</a>
</g>
</g>
<!-- Node19 -->
<g id="Node000019" class="node">
<title>Node19</title>
<g id="a_Node000019"><a xlink:href="../../d9/d83/classArcane_1_1VariableArrayT.html#a3dec00fbc7214c2148fd9003db0e7157" target="_top" xlink:title="Libère l&#39;éventuelle mémoire supplémentaire allouée pour les données.">
<polygon fill="white" stroke="#666666" points="520.12,-33.5 392.38,-33.5 392.38,0 520.12,0 520.12,-33.5"/>
<text xml:space="preserve" text-anchor="start" x="400.38" y="-20" font-family="Helvetica,sans-Serif" font-size="10.00">Arcane::VariableArrayT</text>
<text xml:space="preserve" text-anchor="middle" x="456.25" y="-7.25" font-family="Helvetica,sans-Serif" font-size="10.00">::shrinkMemory</text>
</a>
</g>
</g>
<!-- Node2&#45;&gt;Node19 -->
<g id="edge18_Node000002_Node000019" class="edge">
<title>Node2&#45;&gt;Node19</title>
<g id="a_edge18_Node000002_Node000019"><a xlink:title=" ">
<path fill="none" stroke="#63b8ff" d="M669.02,-292.92C659.34,-241.36 627.91,-111.24 548.25,-42.75 540.28,-35.89 530.6,-30.84 520.58,-27.12"/>
<polygon fill="#63b8ff" stroke="#63b8ff" points="665.53,-293.27 670.72,-302.5 672.42,-292.04 665.53,-293.27"/>
</a>
</g>
</g>
<!-- Node11 -->
<g id="Node000011" class="node">
<title>Node11</title>
<g id="a_Node000011"><a xlink:href="../../d6/df5/classArcane_1_1Variable.html#a79504c8fc6d1ed2ca4ba66579d73d599" target="_top" xlink:title=" ">
<polygon fill="white" stroke="#666666" points="319.25,-299.12 196,-299.12 196,-278.38 319.25,-278.38 319.25,-299.12"/>
<text xml:space="preserve" text-anchor="middle" x="257.62" y="-285.62" font-family="Helvetica,sans-Serif" font-size="10.00">Arcane::Variable::read</text>
</a>
</g>
</g>
<!-- Node10&#45;&gt;Node11 -->
<g id="edge10_Node000010_Node000011" class="edge">
<title>Node10&#45;&gt;Node11</title>
<g id="a_edge10_Node000010_Node000011"><a xlink:title=" ">
<path fill="none" stroke="#63b8ff" d="M379.63,-288.75C359.78,-288.75 338.62,-288.75 319.64,-288.75"/>
<polygon fill="#63b8ff" stroke="#63b8ff" points="379.63,-292.25 389.63,-288.75 379.63,-285.25 379.63,-292.25"/>
</a>
</g>
</g>
<!-- Node13 -->
<g id="Node000013" class="node">
<title>Node13</title>
<g id="a_Node000013"><a xlink:href="../../d6/df5/classArcane_1_1Variable.html#a881b8d622b65e0b26371acd0b91aa02d" target="_top" xlink:title="Positionne l&#39;état d&#39;utilisation de la variable.">
<polygon fill="white" stroke="#666666" points="328.25,-247.12 187,-247.12 187,-226.38 328.25,-226.38 328.25,-247.12"/>
<text xml:space="preserve" text-anchor="middle" x="257.62" y="-233.62" font-family="Helvetica,sans-Serif" font-size="10.00">Arcane::Variable::setUsed</text>
</a>
</g>
</g>
<!-- Node12&#45;&gt;Node13 -->
<g id="edge12_Node000012_Node000013" class="edge">
<title>Node12&#45;&gt;Node13</title>
<g id="a_edge12_Node000012_Node000013"><a xlink:title=" ">
<path fill="none" stroke="#63b8ff" d="M379.26,-236.75C362.64,-236.75 345.12,-236.75 328.74,-236.75"/>
<polygon fill="#63b8ff" stroke="#63b8ff" points="379.08,-240.25 389.08,-236.75 379.08,-233.25 379.08,-240.25"/>
</a>
</g>
</g>
<!-- Node14 -->
<g id="Node000014" class="node">
<title>Node14</title>
<g id="a_Node000014"><a xlink:href="../../d6/df5/classArcane_1_1Variable.html#af8bf87de10b159602c855e2c3df2b76a" target="_top" xlink:title="Opérateur de recopie (ne pas utiliser).">
<polygon fill="white" stroke="#666666" points="151,-247.12 0,-247.12 0,-226.38 151,-226.38 151,-247.12"/>
<text xml:space="preserve" text-anchor="middle" x="75.5" y="-233.62" font-family="Helvetica,sans-Serif" font-size="10.00">Arcane::Variable::operator=</text>
</a>
</g>
</g>
<!-- Node13&#45;&gt;Node14 -->
<g id="edge13_Node000013_Node000014" class="edge">
<title>Node13&#45;&gt;Node14</title>
<g id="a_edge13_Node000013_Node000014"><a xlink:title=" ">
<path fill="none" stroke="#63b8ff" d="M175.21,-236.75C167.29,-236.75 159.28,-236.75 151.43,-236.75"/>
<polygon fill="#63b8ff" stroke="#63b8ff" points="175.21,-240.25 185.21,-236.75 175.21,-233.25 175.21,-240.25"/>
</a>
</g>
</g>
</g>
</svg>
