<?xml version="1.0" encoding="UTF-8" standalone="no"?>
<!DOCTYPE svg PUBLIC "-//W3C//DTD SVG 1.1//EN"
 "http://www.w3.org/Graphics/SVG/1.1/DTD/svg11.dtd">
<!-- Generated by graphviz version 2.43.0 (0)
 -->
<!-- Title: Arcane::StandaloneAcceleratorMng Pages: 1 -->
<!--zoomable 1043 -->

<svg id="main" version="1.1" xmlns="http://www.w3.org/2000/svg" xmlns:xlink="http://www.w3.org/1999/xlink" xml:space="preserve" onload="init(evt)">

<style type="text/css"><![CDATA[
.node, .edge {opacity: 0.7;}
.node.selected, .edge.selected {opacity: 1;}
.edge:hover path { stroke: red; }
.edge:hover polygon { stroke: red; fill: red; }
]]></style>

<defs>
  <circle id="rim" cx="0" cy="0" r="7"/>
  <circle id="rim2" cx="0" cy="0" r="3.5"/>
  <g id="zoomPlus">
    <use xlink:href="#rim" fill="#404040"><set attributeName="fill" to="#808080" begin="zoomplus.mouseover" end="zoomplus.mouseout"/></use>
    <path d="M-4,0h8M0,-4v8" fill="none" stroke="white" stroke-width="1.5" pointer-events="none"/>
  </g>
  <g id="zoomMin">
    <use xlink:href="#rim" fill="#404040"><set attributeName="fill" to="#808080" begin="zoomminus.mouseover" end="zoomminus.mouseout"/></use>
    <path d="M-4,0h8" fill="none" stroke="white" stroke-width="1.5" pointer-events="none"/>
  </g>
  <g id="arrowUp" transform="translate(30 24)">
    <use xlink:href="#rim"/>
    <path pointer-events="none" fill="none" stroke="white" stroke-width="1.5" d="M0,-3.0v7 M-2.5,-0.5L0,-3.0L2.5,-0.5"/>
  </g>
  <g id="arrowRight" transform="rotate(90) translate(36 -43)">
    <use xlink:href="#rim"/>
    <path pointer-events="none" fill="none" stroke="white" stroke-width="1.5" d="M0,-3.0v7 M-2.5,-0.5L0,-3.0L2.5,-0.5"/>
  </g>
  <g id="arrowDown" transform="rotate(180) translate(-30 -48)">
    <use xlink:href="#rim"/>
    <path pointer-events="none" fill="none" stroke="white" stroke-width="1.5" d="M0,-3.0v7 M-2.5,-0.5L0,-3.0L2.5,-0.5"/>
  </g>
  <g id="arrowLeft" transform="rotate(270) translate(-36 17)">
    <use xlink:href="#rim"/>
    <path pointer-events="none" fill="none" stroke="white" stroke-width="1.5" d="M0,-3.0v7 M-2.5,-0.5L0,-3.0L2.5,-0.5"/>
  </g>
  <g id="resetDef">
    <use xlink:href="#rim2" fill="#404040"><set attributeName="fill" to="#808080" begin="reset.mouseover" end="reset.mouseout"/></use>
  </g>
</defs>
<script type="application/ecmascript">
var viewWidth = 290;
var viewHeight = 1043;
var sectionId = 'dynsection-0';
</script>
<script type="application/ecmascript" xlink:href="../../svg.min.js"/>
<svg id="graph" class="graph">
<g id="viewport">
<title>Arcane::StandaloneAcceleratorMng</title>
<!-- Node1 -->
<g id="Node000001" class="node">
<title>Node1</title>
<g id="a_Node000001"><a xlink:title="Implémentation autonome de &#39;IAcceleratorMng.h&#39;.">
<polygon fill="#999999" stroke="transparent" points="211.5,-79 29.5,-79 29.5,0 211.5,0 211.5,-79"/>
<text text-anchor="start" x="34.5" y="-66.5" font-family="Helvetica,sans-Serif" font-size="10.00">Arcane::StandaloneAcceleratorMng</text>
<text text-anchor="start" x="118.5" y="-51.5" font-family="Helvetica,sans-Serif" font-size="10.00"> </text>
<text text-anchor="start" x="39" y="-36.5" font-family="Helvetica,sans-Serif" font-size="10.00">+</text>
<text text-anchor="start" x="57.5" y="-36.5" font-family="Helvetica,sans-Serif" font-size="10.00">StandaloneAcceleratorMng()</text>
<text text-anchor="start" x="39" y="-21.5" font-family="Helvetica,sans-Serif" font-size="10.00">+</text>
<text text-anchor="start" x="57.5" y="-21.5" font-family="Helvetica,sans-Serif" font-size="10.00">traceMng()</text>
<text text-anchor="start" x="39" y="-6.5" font-family="Helvetica,sans-Serif" font-size="10.00">+</text>
<text text-anchor="start" x="57.5" y="-6.5" font-family="Helvetica,sans-Serif" font-size="10.00">acceleratorMng()</text>
<polygon fill="#666666" stroke="#666666" points="29.5,-61.5 29.5,-61.5 211.5,-61.5 211.5,-61.5 29.5,-61.5"/>
<polygon fill="#666666" stroke="#666666" points="29.5,-46.5 29.5,-46.5 211.5,-46.5 211.5,-46.5 29.5,-46.5"/>
<polygon fill="none" stroke="#666666" points="29.5,0 29.5,-79 211.5,-79 211.5,0 29.5,0"/>
</a>
</g>
</g>
<!-- Node2 -->
<g id="Node000002" class="node">
<title>Node2</title>
<g id="a_Node000002"><a xlink:href="../../d6/da9/classArcane_1_1Ref.html" target="_top" xlink:title=" ">
<polygon fill="white" stroke="transparent" points="194.5,-917 46.5,-917 46.5,-126 194.5,-126 194.5,-917"/>
<text text-anchor="start" x="51.5" y="-904.5" font-family="Helvetica,sans-Serif" font-size="10.00">Arcane::Ref&lt; Arcane</text>
<text text-anchor="start" x="51.5" y="-893.5" font-family="Helvetica,sans-Serif" font-size="10.00">::StandaloneAcceleratorMng</text>
<text text-anchor="start" x="100.5" y="-882.5" font-family="Helvetica,sans-Serif" font-size="10.00">::Impl &gt;</text>
<text text-anchor="start" x="55.5" y="-867.5" font-family="Helvetica,sans-Serif" font-size="10.00">+</text>
<text text-anchor="start" x="73.5" y="-867.5" font-family="Helvetica,sans-Serif" font-size="10.00">RefType</text>
<text text-anchor="start" x="55.5" y="-852.5" font-family="Helvetica,sans-Serif" font-size="10.00">+</text>
<text text-anchor="start" x="73.5" y="-852.5" font-family="Helvetica,sans-Serif" font-size="10.00">RefType</text>
<text text-anchor="start" x="55.5" y="-837.5" font-family="Helvetica,sans-Serif" font-size="10.00">+</text>
<text text-anchor="start" x="73.5" y="-837.5" font-family="Helvetica,sans-Serif" font-size="10.00">RefType</text>
<text text-anchor="start" x="55.5" y="-822.5" font-family="Helvetica,sans-Serif" font-size="10.00">+</text>
<text text-anchor="start" x="73.5" y="-822.5" font-family="Helvetica,sans-Serif" font-size="10.00">Ref()</text>
<text text-anchor="start" x="55.5" y="-807.5" font-family="Helvetica,sans-Serif" font-size="10.00">+</text>
<text text-anchor="start" x="73.5" y="-807.5" font-family="Helvetica,sans-Serif" font-size="10.00">Ref()</text>
<text text-anchor="start" x="55.5" y="-792.5" font-family="Helvetica,sans-Serif" font-size="10.00">+</text>
<text text-anchor="start" x="73.5" y="-792.5" font-family="Helvetica,sans-Serif" font-size="10.00">Ref()</text>
<text text-anchor="start" x="55.5" y="-777.5" font-family="Helvetica,sans-Serif" font-size="10.00">+</text>
<text text-anchor="start" x="73.5" y="-777.5" font-family="Helvetica,sans-Serif" font-size="10.00">operator=()</text>
<text text-anchor="start" x="55.5" y="-762.5" font-family="Helvetica,sans-Serif" font-size="10.00">+</text>
<text text-anchor="start" x="73.5" y="-762.5" font-family="Helvetica,sans-Serif" font-size="10.00">~Ref()</text>
<text text-anchor="start" x="55.5" y="-747.5" font-family="Helvetica,sans-Serif" font-size="10.00">+</text>
<text text-anchor="start" x="73.5" y="-747.5" font-family="Helvetica,sans-Serif" font-size="10.00">operator bool()</text>
<text text-anchor="start" x="55.5" y="-732.5" font-family="Helvetica,sans-Serif" font-size="10.00">+</text>
<text text-anchor="start" x="73.5" y="-732.5" font-family="Helvetica,sans-Serif" font-size="10.00">get()</text>
<text text-anchor="start" x="55.5" y="-717.5" font-family="Helvetica,sans-Serif" font-size="10.00">+</text>
<text text-anchor="start" x="73.5" y="-717.5" font-family="Helvetica,sans-Serif" font-size="10.00">isNull()</text>
<text text-anchor="start" x="55.5" y="-702.5" font-family="Helvetica,sans-Serif" font-size="10.00">+</text>
<text text-anchor="start" x="73.5" y="-702.5" font-family="Helvetica,sans-Serif" font-size="10.00">operator&#45;&gt;()</text>
<text text-anchor="start" x="55.5" y="-687.5" font-family="Helvetica,sans-Serif" font-size="10.00">+</text>
<text text-anchor="start" x="73.5" y="-687.5" font-family="Helvetica,sans-Serif" font-size="10.00">reset()</text>
<text text-anchor="start" x="73.5" y="-672.5" font-family="Helvetica,sans-Serif" font-size="10.00">et 26 de plus...</text>
<text text-anchor="start" x="55.5" y="-657.5" font-family="Helvetica,sans-Serif" font-size="10.00">+</text>
<text text-anchor="start" x="73.5" y="-657.5" font-family="Helvetica,sans-Serif" font-size="10.00">create()</text>
<text text-anchor="start" x="55.5" y="-642.5" font-family="Helvetica,sans-Serif" font-size="10.00">+</text>
<text text-anchor="start" x="73.5" y="-642.5" font-family="Helvetica,sans-Serif" font-size="10.00">createRef()</text>
<text text-anchor="start" x="55.5" y="-627.5" font-family="Helvetica,sans-Serif" font-size="10.00">+</text>
<text text-anchor="start" x="73.5" y="-627.5" font-family="Helvetica,sans-Serif" font-size="10.00">createWithHandle()</text>
<text text-anchor="start" x="55.5" y="-612.5" font-family="Helvetica,sans-Serif" font-size="10.00">+</text>
<text text-anchor="start" x="73.5" y="-612.5" font-family="Helvetica,sans-Serif" font-size="10.00">_createNoDestroy()</text>
<text text-anchor="start" x="55.5" y="-597.5" font-family="Helvetica,sans-Serif" font-size="10.00">+</text>
<text text-anchor="start" x="73.5" y="-597.5" font-family="Helvetica,sans-Serif" font-size="10.00">create()</text>
<text text-anchor="start" x="55.5" y="-582.5" font-family="Helvetica,sans-Serif" font-size="10.00">+</text>
<text text-anchor="start" x="73.5" y="-582.5" font-family="Helvetica,sans-Serif" font-size="10.00">createRef()</text>
<text text-anchor="start" x="55.5" y="-567.5" font-family="Helvetica,sans-Serif" font-size="10.00">+</text>
<text text-anchor="start" x="73.5" y="-567.5" font-family="Helvetica,sans-Serif" font-size="10.00">createWithHandle()</text>
<text text-anchor="start" x="55.5" y="-552.5" font-family="Helvetica,sans-Serif" font-size="10.00">+</text>
<text text-anchor="start" x="73.5" y="-552.5" font-family="Helvetica,sans-Serif" font-size="10.00">_createNoDestroy()</text>
<text text-anchor="start" x="55.5" y="-537.5" font-family="Helvetica,sans-Serif" font-size="10.00">+</text>
<text text-anchor="start" x="73.5" y="-537.5" font-family="Helvetica,sans-Serif" font-size="10.00">create()</text>
<text text-anchor="start" x="55.5" y="-522.5" font-family="Helvetica,sans-Serif" font-size="10.00">+</text>
<text text-anchor="start" x="73.5" y="-522.5" font-family="Helvetica,sans-Serif" font-size="10.00">createRef()</text>
<text text-anchor="start" x="55.5" y="-507.5" font-family="Helvetica,sans-Serif" font-size="10.00">+</text>
<text text-anchor="start" x="73.5" y="-507.5" font-family="Helvetica,sans-Serif" font-size="10.00">createWithHandle()</text>
<text text-anchor="start" x="55.5" y="-492.5" font-family="Helvetica,sans-Serif" font-size="10.00">+</text>
<text text-anchor="start" x="73.5" y="-492.5" font-family="Helvetica,sans-Serif" font-size="10.00">_createNoDestroy()</text>
<text text-anchor="start" x="58" y="-477.5" font-family="Helvetica,sans-Serif" font-size="10.00">&#45;</text>
<text text-anchor="start" x="73.5" y="-477.5" font-family="Helvetica,sans-Serif" font-size="10.00">Ref()</text>
<text text-anchor="start" x="58" y="-462.5" font-family="Helvetica,sans-Serif" font-size="10.00">&#45;</text>
<text text-anchor="start" x="73.5" y="-462.5" font-family="Helvetica,sans-Serif" font-size="10.00">Ref()</text>
<text text-anchor="start" x="58" y="-447.5" font-family="Helvetica,sans-Serif" font-size="10.00">&#45;</text>
<text text-anchor="start" x="73.5" y="-447.5" font-family="Helvetica,sans-Serif" font-size="10.00">Ref()</text>
<text text-anchor="start" x="58" y="-432.5" font-family="Helvetica,sans-Serif" font-size="10.00">&#45;</text>
<text text-anchor="start" x="73.5" y="-432.5" font-family="Helvetica,sans-Serif" font-size="10.00">Ref()</text>
<text text-anchor="start" x="58" y="-417.5" font-family="Helvetica,sans-Serif" font-size="10.00">&#45;</text>
<text text-anchor="start" x="73.5" y="-417.5" font-family="Helvetica,sans-Serif" font-size="10.00">Ref()</text>
<text text-anchor="start" x="58" y="-402.5" font-family="Helvetica,sans-Serif" font-size="10.00">&#45;</text>
<text text-anchor="start" x="73.5" y="-402.5" font-family="Helvetica,sans-Serif" font-size="10.00">Ref()</text>
<text text-anchor="start" x="58" y="-387.5" font-family="Helvetica,sans-Serif" font-size="10.00">&#45;</text>
<text text-anchor="start" x="73.5" y="-387.5" font-family="Helvetica,sans-Serif" font-size="10.00">Ref()</text>
<text text-anchor="start" x="58" y="-372.5" font-family="Helvetica,sans-Serif" font-size="10.00">&#45;</text>
<text text-anchor="start" x="73.5" y="-372.5" font-family="Helvetica,sans-Serif" font-size="10.00">Ref()</text>
<text text-anchor="start" x="58" y="-357.5" font-family="Helvetica,sans-Serif" font-size="10.00">&#45;</text>
<text text-anchor="start" x="73.5" y="-357.5" font-family="Helvetica,sans-Serif" font-size="10.00">Ref()</text>
<text text-anchor="start" x="58" y="-342.5" font-family="Helvetica,sans-Serif" font-size="10.00">&#45;</text>
<text text-anchor="start" x="73.5" y="-342.5" font-family="Helvetica,sans-Serif" font-size="10.00">Ref()</text>
<text text-anchor="start" x="58" y="-327.5" font-family="Helvetica,sans-Serif" font-size="10.00">&#45;</text>
<text text-anchor="start" x="73.5" y="-327.5" font-family="Helvetica,sans-Serif" font-size="10.00">Ref()</text>
<text text-anchor="start" x="58" y="-312.5" font-family="Helvetica,sans-Serif" font-size="10.00">&#45;</text>
<text text-anchor="start" x="73.5" y="-312.5" font-family="Helvetica,sans-Serif" font-size="10.00">Ref()</text>
<text text-anchor="start" x="58" y="-297.5" font-family="Helvetica,sans-Serif" font-size="10.00">&#45;</text>
<text text-anchor="start" x="73.5" y="-297.5" font-family="Helvetica,sans-Serif" font-size="10.00">_createBasicDeleter()</text>
<text text-anchor="start" x="58" y="-282.5" font-family="Helvetica,sans-Serif" font-size="10.00">&#45;</text>
<text text-anchor="start" x="73.5" y="-282.5" font-family="Helvetica,sans-Serif" font-size="10.00">_createBasicDeleter()</text>
<text text-anchor="start" x="58" y="-267.5" font-family="Helvetica,sans-Serif" font-size="10.00">&#45;</text>
<text text-anchor="start" x="73.5" y="-267.5" font-family="Helvetica,sans-Serif" font-size="10.00">_getDeleter()</text>
<text text-anchor="start" x="58" y="-252.5" font-family="Helvetica,sans-Serif" font-size="10.00">&#45;</text>
<text text-anchor="start" x="73.5" y="-252.5" font-family="Helvetica,sans-Serif" font-size="10.00">_getDeleter()</text>
<text text-anchor="start" x="58" y="-237.5" font-family="Helvetica,sans-Serif" font-size="10.00">&#45;</text>
<text text-anchor="start" x="73.5" y="-237.5" font-family="Helvetica,sans-Serif" font-size="10.00">_createBasicDeleter()</text>
<text text-anchor="start" x="58" y="-222.5" font-family="Helvetica,sans-Serif" font-size="10.00">&#45;</text>
<text text-anchor="start" x="73.5" y="-222.5" font-family="Helvetica,sans-Serif" font-size="10.00">_createBasicDeleter()</text>
<text text-anchor="start" x="58" y="-207.5" font-family="Helvetica,sans-Serif" font-size="10.00">&#45;</text>
<text text-anchor="start" x="73.5" y="-207.5" font-family="Helvetica,sans-Serif" font-size="10.00">_getDeleter()</text>
<text text-anchor="start" x="58" y="-192.5" font-family="Helvetica,sans-Serif" font-size="10.00">&#45;</text>
<text text-anchor="start" x="73.5" y="-192.5" font-family="Helvetica,sans-Serif" font-size="10.00">_getDeleter()</text>
<text text-anchor="start" x="58" y="-177.5" font-family="Helvetica,sans-Serif" font-size="10.00">&#45;</text>
<text text-anchor="start" x="73.5" y="-177.5" font-family="Helvetica,sans-Serif" font-size="10.00">_createBasicDeleter()</text>
<text text-anchor="start" x="58" y="-162.5" font-family="Helvetica,sans-Serif" font-size="10.00">&#45;</text>
<text text-anchor="start" x="73.5" y="-162.5" font-family="Helvetica,sans-Serif" font-size="10.00">_createBasicDeleter()</text>
<text text-anchor="start" x="58" y="-147.5" font-family="Helvetica,sans-Serif" font-size="10.00">&#45;</text>
<text text-anchor="start" x="73.5" y="-147.5" font-family="Helvetica,sans-Serif" font-size="10.00">_getDeleter()</text>
<text text-anchor="start" x="58" y="-132.5" font-family="Helvetica,sans-Serif" font-size="10.00">&#45;</text>
<text text-anchor="start" x="73.5" y="-132.5" font-family="Helvetica,sans-Serif" font-size="10.00">_getDeleter()</text>
<polygon fill="#666666" stroke="#666666" points="46.5,-877.5 46.5,-877.5 194.5,-877.5 194.5,-877.5 46.5,-877.5"/>
<polygon fill="#666666" stroke="#666666" points="46.5,-832.5 46.5,-832.5 71.5,-832.5 71.5,-832.5 46.5,-832.5"/>
<polygon fill="#666666" stroke="#666666" points="71.5,-832.5 71.5,-832.5 194.5,-832.5 194.5,-832.5 71.5,-832.5"/>
<polygon fill="none" stroke="#666666" points="46.5,-126 46.5,-917 194.5,-917 194.5,-126 46.5,-126"/>
</a>
</g>
</g>
<!-- Node2&#45;&gt;Node1 -->
<g id="edge1_Node000001_Node000002" class="edge">
<title>Node2&#45;&gt;Node1</title>
<g id="a_edge1_Node000001_Node000002"><a xlink:title=" ">
<path fill="none" stroke="#63b8ff" d="M120.5,-125.76C120.5,-113.24 120.5,-101.7 120.5,-91.42"/>
<polygon fill="none" stroke="#63b8ff" points="120.5,-91.1 116.5,-85.1 120.5,-79.1 124.5,-85.1 120.5,-91.1"/>
</a>
</g>
<text text-anchor="middle" x="134.5" y="-100" font-family="Helvetica,sans-Serif" font-size="10.00" fill="grey"> &#45;m_p</text>
</g>
<!-- Node3 -->
<g id="Node000003" class="node">
<title>Node3</title>
<g id="a_Node000003"><a xlink:href="../../d2/db9/classArcane_1_1RefBase.html" target="_top" xlink:title="Classe de base de gestion d&#39;une référence.">
<polygon fill="white" stroke="transparent" points="91,-1024 0,-1024 0,-975 91,-975 91,-1024"/>
<text text-anchor="start" x="5.5" y="-1011.5" font-family="Helvetica,sans-Serif" font-size="10.00">Arcane::RefBase</text>
<text text-anchor="start" x="44" y="-996.5" font-family="Helvetica,sans-Serif" font-size="10.00"> </text>
<text text-anchor="start" x="44" y="-981.5" font-family="Helvetica,sans-Serif" font-size="10.00"> </text>
<polygon fill="#666666" stroke="#666666" points="0.5,-1006.5 0.5,-1006.5 91.5,-1006.5 91.5,-1006.5 0.5,-1006.5"/>
<polygon fill="#666666" stroke="#666666" points="0.5,-991.5 0.5,-991.5 91.5,-991.5 91.5,-991.5 0.5,-991.5"/>
<polygon fill="none" stroke="#666666" points="0,-975 0,-1024 91,-1024 91,-975 0,-975"/>
</a>
</g>
</g>
<!-- Node3&#45;&gt;Node2 -->
<g id="edge2_Node000002_Node000003" class="edge">
<title>Node3&#45;&gt;Node2</title>
<g id="a_edge2_Node000002_Node000003"><a xlink:title=" ">
<path fill="none" stroke="#63b8ff" d="M50.81,-964.81C52.85,-951.88 55.38,-935.77 58.28,-917.4"/>
<polygon fill="none" stroke="#63b8ff" points="47.32,-964.47 49.22,-974.9 54.23,-965.56 47.32,-964.47"/>
</a>
</g>
</g>
<!-- Node4 -->
<g id="Node000004" class="node">
<title>Node4</title>
<g id="a_Node000004"><a xlink:href="../../d4/de6/structArcane_1_1RefTraitsTagId.html" target="_top" xlink:title=" ">
<polygon fill="white" stroke="transparent" points="281.5,-1035 109.5,-1035 109.5,-964 281.5,-964 281.5,-1035"/>
<text text-anchor="start" x="114.5" y="-1022.5" font-family="Helvetica,sans-Serif" font-size="10.00">Arcane::RefTraitsTagId</text>
<text text-anchor="start" x="114.5" y="-1011.5" font-family="Helvetica,sans-Serif" font-size="10.00">&lt; Arcane::StandaloneAccelerator</text>
<text text-anchor="start" x="138.5" y="-1000.5" font-family="Helvetica,sans-Serif" font-size="10.00">Mng::Impl, ImplTagId &gt;</text>
<text text-anchor="start" x="193.5" y="-985.5" font-family="Helvetica,sans-Serif" font-size="10.00"> </text>
<text text-anchor="start" x="193.5" y="-970.5" font-family="Helvetica,sans-Serif" font-size="10.00"> </text>
<polygon fill="#bfbfbf" stroke="#bfbfbf" points="109.5,-995.5 109.5,-995.5 281.5,-995.5 281.5,-995.5 109.5,-995.5"/>
<polygon fill="#bfbfbf" stroke="#bfbfbf" points="109.5,-980.5 109.5,-980.5 281.5,-980.5 281.5,-980.5 109.5,-980.5"/>
<polygon fill="none" stroke="#bfbfbf" points="109.5,-964 109.5,-1035 281.5,-1035 281.5,-964 109.5,-964"/>
</a>
</g>
</g>
<!-- Node4&#45;&gt;Node2 -->
<g id="edge3_Node000002_Node000004" class="edge">
<title>Node4&#45;&gt;Node2</title>
<g id="a_edge3_Node000002_Node000004"><a xlink:title=" ">
<path fill="none" stroke="#63b8ff" d="M190.05,-963.88C188.48,-953.96 186.63,-942.2 184.55,-929.03"/>
<polygon fill="none" stroke="#63b8ff" points="184.54,-928.96 179.66,-923.66 182.68,-917.11 187.56,-922.41 184.54,-928.96"/>
</a>
</g>
<text text-anchor="middle" x="217.5" y="-938" font-family="Helvetica,sans-Serif" font-size="10.00" fill="grey"> &#45;m_instance</text>
</g>
</g>
</svg>

<g id="navigator" transform="translate(0 0)" fill="#404254">
  <rect fill="#f2f5e9" fill-opacity="0.5" stroke="#606060" stroke-width=".5" x="0" y="0" width="60" height="60"/>
  <use id="zoomplus" xlink:href="#zoomPlus" x="17" y="9" onmousedown="handleZoom(evt,'in')"/>
  <use id="zoomminus" xlink:href="#zoomMin" x="42" y="9" onmousedown="handleZoom(evt,'out')"/>
  <use id="reset" xlink:href="#resetDef" x="30" y="36" onmousedown="handleReset()"/>
   <use id="arrowup" xlink:href="#arrowUp" x="0" y="0" onmousedown="handlePan(0,-1)"/>
  <use id="arrowright" xlink:href="#arrowRight" x="0" y="0" onmousedown="handlePan(1,0)"/>
  <use id="arrowdown" xlink:href="#arrowDown" x="0" y="0" onmousedown="handlePan(0,1)"/>
  <use id="arrowleft" xlink:href="#arrowLeft" x="0" y="0" onmousedown="handlePan(-1,0)"/>
</g>
<svg viewBox="0 0 15 15" width="100%" height="30px" preserveAspectRatio="xMaxYMin meet">
 <g id="arrow_out" transform="scale(0.3 0.3)">
  <a xlink:href="classArcane_1_1StandaloneAcceleratorMng__coll__graph_org.svg" target="_base">
   <rect id="button" ry="5" rx="5" y="6" x="6" height="38" width="38"
        fill="#f2f5e9" fill-opacity="0.5" stroke="#606060" stroke-width="1.0"/>
   <path id="arrow"
     d="M 11.500037,31.436501 C 11.940474,20.09759 22.043105,11.32322 32.158766,21.979434 L 37.068811,17.246167 C 37.068811,17.246167 37.088388,32 37.088388,32 L 22.160133,31.978069 C 22.160133,31.978069 26.997745,27.140456 26.997745,27.140456 C 18.528582,18.264221 13.291696,25.230495 11.500037,31.436501 z"
     style="fill:#404040;"/>
  </a>
 </g>
</svg>

<style type='text/css'>
<![CDATA[
[data-mouse-over-selected='false'] { opacity: 0.7; }
[data-mouse-over-selected='true']  { opacity: 1.0; }
]]>
</style>
<script type="application/ecmascript"><![CDATA[
document.addEventListener('DOMContentLoaded', (event) => {
  highlightEdges();
  highlightAdjacentNodes();
});
]]></script>
</svg>
