<?xml version="1.0" encoding="UTF-8" standalone="no"?>
<!DOCTYPE svg PUBLIC "-//W3C//DTD SVG 1.1//EN"
 "http://www.w3.org/Graphics/SVG/1.1/DTD/svg11.dtd">
<!-- Generated by graphviz version 2.43.0 (0)
 -->
<!-- Title: Arcane::Accelerator::Impl::GenericReducerBase&lt; DataType &gt; Pages: 1 -->
<svg width="170pt" height="400pt"
 viewBox="0.00 0.00 170.00 400.00" xmlns="http://www.w3.org/2000/svg" xmlns:xlink="http://www.w3.org/1999/xlink">

<svg id="main" version="1.1" xmlns="http://www.w3.org/2000/svg" xmlns:xlink="http://www.w3.org/1999/xlink" xml:space="preserve">

<style type="text/css"><![CDATA[
.node, .edge {opacity: 0.7;}
.node.selected, .edge.selected {opacity: 1;}
.edge:hover path { stroke: red; }
.edge:hover polygon { stroke: red; fill: red; }
]]></style>
<script type="application/ecmascript" xlink:href="../../svg.min.js"/>
<svg id="graph" class="graph">
<g id="graph0" class="graph" transform="scale(1 1) rotate(0) translate(4 396)">
<title>Arcane::Accelerator::Impl::GenericReducerBase&lt; DataType &gt;</title>
<!-- Node1 -->
<g id="Node000001" class="node">
<title>Node1</title>
<g id="a_Node000001"><a xlink:title="Classe de base pour effectuer une réduction.">
<polygon fill="#999999" stroke="transparent" points="155.5,-392 6.5,-392 6.5,-246 155.5,-246 155.5,-392"/>
<text text-anchor="start" x="13.5" y="-380" font-family="Helvetica,sans-Serif" font-size="10.00">Arcane::Accelerator</text>
<text text-anchor="start" x="13.5" y="-369" font-family="Helvetica,sans-Serif" font-size="10.00">::Impl::GenericReducerBase</text>
<text text-anchor="start" x="47" y="-358" font-family="Helvetica,sans-Serif" font-size="10.00">&lt; DataType &gt;</text>
<text text-anchor="start" x="11" y="-343" font-family="Helvetica,sans-Serif" font-size="10.00">#</text>
<text text-anchor="start" x="24" y="-343" font-family="Helvetica,sans-Serif" font-size="10.00">m_queue</text>
<text text-anchor="start" x="11" y="-328" font-family="Helvetica,sans-Serif" font-size="10.00">#</text>
<text text-anchor="start" x="24" y="-328" font-family="Helvetica,sans-Serif" font-size="10.00">m_algo_storage</text>
<text text-anchor="start" x="11" y="-313" font-family="Helvetica,sans-Serif" font-size="10.00">#</text>
<text text-anchor="start" x="24" y="-313" font-family="Helvetica,sans-Serif" font-size="10.00">m_device_reduce_storage</text>
<text text-anchor="start" x="11" y="-298" font-family="Helvetica,sans-Serif" font-size="10.00">#</text>
<text text-anchor="start" x="24" y="-298" font-family="Helvetica,sans-Serif" font-size="10.00">m_host_reduce_storage</text>
<text text-anchor="start" x="11" y="-283" font-family="Helvetica,sans-Serif" font-size="10.00">+</text>
<text text-anchor="start" x="24" y="-283" font-family="Helvetica,sans-Serif" font-size="10.00">GenericReducerBase()</text>
<text text-anchor="start" x="11" y="-268" font-family="Helvetica,sans-Serif" font-size="10.00">#</text>
<text text-anchor="start" x="24" y="-268" font-family="Helvetica,sans-Serif" font-size="10.00">_reducedValue()</text>
<text text-anchor="start" x="11" y="-253" font-family="Helvetica,sans-Serif" font-size="10.00">#</text>
<text text-anchor="start" x="24" y="-253" font-family="Helvetica,sans-Serif" font-size="10.00">_allocate()</text>
<polygon fill="#666666" stroke="#666666" points="7,-353 7,-353 156,-353 156,-353 7,-353"/>
<polygon fill="#666666" stroke="#666666" points="7,-293 7,-293 22,-293 22,-293 7,-293"/>
<polygon fill="#666666" stroke="#666666" points="22,-293 22,-293 156,-293 156,-293 22,-293"/>
<polygon fill="none" stroke="#666666" points="6.5,-246 6.5,-392 155.5,-392 155.5,-246 6.5,-246"/>
</a>
</g>
</g>
<!-- Node2 -->
<g id="Node000002" class="node">
<title>Node2</title>
<g id="a_Node000002"><a xlink:href="../../da/df6/classArcane_1_1Accelerator_1_1GenericReducer.html" target="_top" xlink:title="Algorithme générique de réduction sur accélérateur.">
<polygon fill="white" stroke="transparent" points="162,-210 0,-210 0,0 162,0 162,-210"/>
<text text-anchor="start" x="5" y="-198" font-family="Helvetica,sans-Serif" font-size="10.00">Arcane::Accelerator</text>
<text text-anchor="start" x="5" y="-187" font-family="Helvetica,sans-Serif" font-size="10.00">::GenericReducer&lt; DataType &gt;</text>
<text text-anchor="start" x="15" y="-172" font-family="Helvetica,sans-Serif" font-size="10.00">&#45;</text>
<text text-anchor="start" x="34" y="-172" font-family="Helvetica,sans-Serif" font-size="10.00">m_is_already_called</text>
<text text-anchor="start" x="12.5" y="-157" font-family="Helvetica,sans-Serif" font-size="10.00">+</text>
<text text-anchor="start" x="34" y="-157" font-family="Helvetica,sans-Serif" font-size="10.00">GenericReducer()</text>
<text text-anchor="start" x="12.5" y="-142" font-family="Helvetica,sans-Serif" font-size="10.00">+</text>
<text text-anchor="start" x="34" y="-142" font-family="Helvetica,sans-Serif" font-size="10.00">applyMin()</text>
<text text-anchor="start" x="12.5" y="-127" font-family="Helvetica,sans-Serif" font-size="10.00">+</text>
<text text-anchor="start" x="34" y="-127" font-family="Helvetica,sans-Serif" font-size="10.00">applyMax()</text>
<text text-anchor="start" x="12.5" y="-112" font-family="Helvetica,sans-Serif" font-size="10.00">+</text>
<text text-anchor="start" x="34" y="-112" font-family="Helvetica,sans-Serif" font-size="10.00">applySum()</text>
<text text-anchor="start" x="12.5" y="-97" font-family="Helvetica,sans-Serif" font-size="10.00">+</text>
<text text-anchor="start" x="34" y="-97" font-family="Helvetica,sans-Serif" font-size="10.00">applyMinWithIndex()</text>
<text text-anchor="start" x="12.5" y="-82" font-family="Helvetica,sans-Serif" font-size="10.00">+</text>
<text text-anchor="start" x="34" y="-82" font-family="Helvetica,sans-Serif" font-size="10.00">applyMaxWithIndex()</text>
<text text-anchor="start" x="12.5" y="-67" font-family="Helvetica,sans-Serif" font-size="10.00">+</text>
<text text-anchor="start" x="34" y="-67" font-family="Helvetica,sans-Serif" font-size="10.00">applySumWithIndex()</text>
<text text-anchor="start" x="12.5" y="-52" font-family="Helvetica,sans-Serif" font-size="10.00">+</text>
<text text-anchor="start" x="34" y="-52" font-family="Helvetica,sans-Serif" font-size="10.00">reducedValue()</text>
<text text-anchor="start" x="15" y="-37" font-family="Helvetica,sans-Serif" font-size="10.00">&#45;</text>
<text text-anchor="start" x="34" y="-37" font-family="Helvetica,sans-Serif" font-size="10.00">_apply()</text>
<text text-anchor="start" x="15" y="-22" font-family="Helvetica,sans-Serif" font-size="10.00">&#45;</text>
<text text-anchor="start" x="34" y="-22" font-family="Helvetica,sans-Serif" font-size="10.00">_applyWithIndex()</text>
<text text-anchor="start" x="15" y="-7" font-family="Helvetica,sans-Serif" font-size="10.00">&#45;</text>
<text text-anchor="start" x="34" y="-7" font-family="Helvetica,sans-Serif" font-size="10.00">_setCalled()</text>
<polygon fill="#666666" stroke="#666666" points="0,-182 0,-182 162,-182 162,-182 0,-182"/>
<polygon fill="#666666" stroke="#666666" points="0,-167 0,-167 32,-167 32,-167 0,-167"/>
<polygon fill="#666666" stroke="#666666" points="32,-167 32,-167 162,-167 162,-167 32,-167"/>
<polygon fill="none" stroke="#666666" points="0,0 0,-210 162,-210 162,0 0,0"/>
</a>
</g>
</g>
<!-- Node1&#45;&gt;Node2 -->
<g id="edge1_Node000001_Node000002" class="edge">
<title>Node1&#45;&gt;Node2</title>
<g id="a_edge1_Node000001_Node000002"><a xlink:title=" ">
<path fill="none" stroke="#8b1a1a" d="M81,-235.8C81,-227.4 81,-218.79 81,-210.2"/>
<polygon fill="none" stroke="#8b1a1a" points="77.5,-235.93 81,-245.93 84.5,-235.93 77.5,-235.93"/>
</a>
</g>
</g>
</g>
</svg>
</svg>

<style type='text/css'>
<![CDATA[
[data-mouse-over-selected='false'] { opacity: 0.7; }
[data-mouse-over-selected='true']  { opacity: 1.0; }
]]>
</style>
<script type="application/ecmascript"><![CDATA[
document.addEventListener('DOMContentLoaded', (event) => {
  highlightEdges();
  highlightAdjacentNodes();
});
]]></script>
</svg>
