<?xml version="1.0" encoding="UTF-8" standalone="no"?>
<!DOCTYPE svg PUBLIC "-//W3C//DTD SVG 1.1//EN"
 "http://www.w3.org/Graphics/SVG/1.1/DTD/svg11.dtd">
<!-- Generated by graphviz version 2.43.0 (0)
 -->
<!-- Title: Arcane::BadAlignmentException Pages: 1 -->
<!--zoomable 617 -->

<svg id="main" version="1.1" xmlns="http://www.w3.org/2000/svg" xmlns:xlink="http://www.w3.org/1999/xlink" xml:space="preserve" onload="init(evt)">

<style type="text/css"><![CDATA[
.node, .edge {opacity: 0.7;}
.node.selected, .edge.selected {opacity: 1;}
.edge:hover path { stroke: red; }
.edge:hover polygon { stroke: red; fill: red; }
]]></style>

<defs>
  <circle id="rim" cx="0" cy="0" r="7"/>
  <circle id="rim2" cx="0" cy="0" r="3.5"/>
  <g id="zoomPlus">
    <use xlink:href="#rim" fill="#404040"><set attributeName="fill" to="#808080" begin="zoomplus.mouseover" end="zoomplus.mouseout"/></use>
    <path d="M-4,0h8M0,-4v8" fill="none" stroke="white" stroke-width="1.5" pointer-events="none"/>
  </g>
  <g id="zoomMin">
    <use xlink:href="#rim" fill="#404040"><set attributeName="fill" to="#808080" begin="zoomminus.mouseover" end="zoomminus.mouseout"/></use>
    <path d="M-4,0h8" fill="none" stroke="white" stroke-width="1.5" pointer-events="none"/>
  </g>
  <g id="arrowUp" transform="translate(30 24)">
    <use xlink:href="#rim"/>
    <path pointer-events="none" fill="none" stroke="white" stroke-width="1.5" d="M0,-3.0v7 M-2.5,-0.5L0,-3.0L2.5,-0.5"/>
  </g>
  <g id="arrowRight" transform="rotate(90) translate(36 -43)">
    <use xlink:href="#rim"/>
    <path pointer-events="none" fill="none" stroke="white" stroke-width="1.5" d="M0,-3.0v7 M-2.5,-0.5L0,-3.0L2.5,-0.5"/>
  </g>
  <g id="arrowDown" transform="rotate(180) translate(-30 -48)">
    <use xlink:href="#rim"/>
    <path pointer-events="none" fill="none" stroke="white" stroke-width="1.5" d="M0,-3.0v7 M-2.5,-0.5L0,-3.0L2.5,-0.5"/>
  </g>
  <g id="arrowLeft" transform="rotate(270) translate(-36 17)">
    <use xlink:href="#rim"/>
    <path pointer-events="none" fill="none" stroke="white" stroke-width="1.5" d="M0,-3.0v7 M-2.5,-0.5L0,-3.0L2.5,-0.5"/>
  </g>
  <g id="resetDef">
    <use xlink:href="#rim2" fill="#404040"><set attributeName="fill" to="#808080" begin="reset.mouseover" end="reset.mouseout"/></use>
  </g>
</defs>
<script type="application/ecmascript">
var viewWidth = 175;
var viewHeight = 617;
var sectionId = 'dynsection-0';
</script>
<script type="application/ecmascript" xlink:href="../../svg.min.js"/>
<svg id="graph" class="graph">
<g id="viewport">
<title>Arcane::BadAlignmentException</title>
<!-- Node1 -->
<g id="Node000001" class="node">
<title>Node1</title>
<g id="a_Node000001"><a xlink:title="Exception lorsqu&#39;une adresse n&#39;est pas correctement alignée.">
<polygon fill="#999999" stroke="transparent" points="167,-94 0,-94 0,0 167,0 167,-94"/>
<text text-anchor="start" x="5.5" y="-82" font-family="Helvetica,sans-Serif" font-size="10.00">Arcane::BadAlignmentException</text>
<text text-anchor="start" x="12" y="-67" font-family="Helvetica,sans-Serif" font-size="10.00">&#45;</text>
<text text-anchor="start" x="27.5" y="-67" font-family="Helvetica,sans-Serif" font-size="10.00">m_ptr</text>
<text text-anchor="start" x="12" y="-52" font-family="Helvetica,sans-Serif" font-size="10.00">&#45;</text>
<text text-anchor="start" x="27.5" y="-52" font-family="Helvetica,sans-Serif" font-size="10.00">m_wanted_alignment</text>
<text text-anchor="start" x="9.5" y="-37" font-family="Helvetica,sans-Serif" font-size="10.00">+</text>
<text text-anchor="start" x="27.5" y="-37" font-family="Helvetica,sans-Serif" font-size="10.00">BadAlignmentException()</text>
<text text-anchor="start" x="9.5" y="-22" font-family="Helvetica,sans-Serif" font-size="10.00">+</text>
<text text-anchor="start" x="27.5" y="-22" font-family="Helvetica,sans-Serif" font-size="10.00">BadAlignmentException()</text>
<text text-anchor="start" x="9.5" y="-7" font-family="Helvetica,sans-Serif" font-size="10.00">+</text>
<text text-anchor="start" x="27.5" y="-7" font-family="Helvetica,sans-Serif" font-size="10.00">explain()</text>
<polygon fill="#666666" stroke="#666666" points="0.5,-77 0.5,-77 167.5,-77 167.5,-77 0.5,-77"/>
<polygon fill="#666666" stroke="#666666" points="0.5,-47 0.5,-47 25.5,-47 25.5,-47 0.5,-47"/>
<polygon fill="#666666" stroke="#666666" points="25.5,-47 25.5,-47 167.5,-47 167.5,-47 25.5,-47"/>
<polygon fill="none" stroke="#666666" points="0,0 0,-94 167,-94 167,0 0,0"/>
</a>
</g>
</g>
<!-- Node2 -->
<g id="Node000002" class="node">
<title>Node2</title>
<g id="a_Node000002"><a xlink:href="../../dd/df6/classArcane_1_1Exception.html" target="_top" xlink:title="Classe de base d&#39;une exception.">
<polygon fill="white" stroke="transparent" points="156.5,-524 10.5,-524 10.5,-130 156.5,-130 156.5,-524"/>
<text text-anchor="start" x="39.5" y="-512" font-family="Helvetica,sans-Serif" font-size="10.00">Arcane::Exception</text>
<text text-anchor="start" x="17" y="-497" font-family="Helvetica,sans-Serif" font-size="10.00">&#45;</text>
<text text-anchor="start" x="27.5" y="-497" font-family="Helvetica,sans-Serif" font-size="10.00">m_name</text>
<text text-anchor="start" x="17" y="-482" font-family="Helvetica,sans-Serif" font-size="10.00">&#45;</text>
<text text-anchor="start" x="27.5" y="-482" font-family="Helvetica,sans-Serif" font-size="10.00">m_where</text>
<text text-anchor="start" x="17" y="-467" font-family="Helvetica,sans-Serif" font-size="10.00">&#45;</text>
<text text-anchor="start" x="27.5" y="-467" font-family="Helvetica,sans-Serif" font-size="10.00">m_stack_trace</text>
<text text-anchor="start" x="17" y="-452" font-family="Helvetica,sans-Serif" font-size="10.00">&#45;</text>
<text text-anchor="start" x="27.5" y="-452" font-family="Helvetica,sans-Serif" font-size="10.00">m_message</text>
<text text-anchor="start" x="17" y="-437" font-family="Helvetica,sans-Serif" font-size="10.00">&#45;</text>
<text text-anchor="start" x="27.5" y="-437" font-family="Helvetica,sans-Serif" font-size="10.00">m_additional_info</text>
<text text-anchor="start" x="17" y="-422" font-family="Helvetica,sans-Serif" font-size="10.00">&#45;</text>
<text text-anchor="start" x="27.5" y="-422" font-family="Helvetica,sans-Serif" font-size="10.00">m_is_collective</text>
<text text-anchor="start" x="17" y="-407" font-family="Helvetica,sans-Serif" font-size="10.00">&#45;</text>
<text text-anchor="start" x="27.5" y="-407" font-family="Helvetica,sans-Serif" font-size="10.00">m_nb_pending_exception</text>
<text text-anchor="start" x="14.5" y="-392" font-family="Helvetica,sans-Serif" font-size="10.00">+</text>
<text text-anchor="start" x="27.5" y="-392" font-family="Helvetica,sans-Serif" font-size="10.00">operator=()</text>
<text text-anchor="start" x="14.5" y="-377" font-family="Helvetica,sans-Serif" font-size="10.00">+</text>
<text text-anchor="start" x="27.5" y="-377" font-family="Helvetica,sans-Serif" font-size="10.00">Exception()</text>
<text text-anchor="start" x="14.5" y="-362" font-family="Helvetica,sans-Serif" font-size="10.00">+</text>
<text text-anchor="start" x="27.5" y="-362" font-family="Helvetica,sans-Serif" font-size="10.00">Exception()</text>
<text text-anchor="start" x="14.5" y="-347" font-family="Helvetica,sans-Serif" font-size="10.00">+</text>
<text text-anchor="start" x="27.5" y="-347" font-family="Helvetica,sans-Serif" font-size="10.00">Exception()</text>
<text text-anchor="start" x="14.5" y="-332" font-family="Helvetica,sans-Serif" font-size="10.00">+</text>
<text text-anchor="start" x="27.5" y="-332" font-family="Helvetica,sans-Serif" font-size="10.00">Exception()</text>
<text text-anchor="start" x="14.5" y="-317" font-family="Helvetica,sans-Serif" font-size="10.00">+</text>
<text text-anchor="start" x="27.5" y="-317" font-family="Helvetica,sans-Serif" font-size="10.00">Exception()</text>
<text text-anchor="start" x="14.5" y="-302" font-family="Helvetica,sans-Serif" font-size="10.00">+</text>
<text text-anchor="start" x="27.5" y="-302" font-family="Helvetica,sans-Serif" font-size="10.00">Exception()</text>
<text text-anchor="start" x="14.5" y="-287" font-family="Helvetica,sans-Serif" font-size="10.00">+</text>
<text text-anchor="start" x="27.5" y="-287" font-family="Helvetica,sans-Serif" font-size="10.00">Exception()</text>
<text text-anchor="start" x="14.5" y="-272" font-family="Helvetica,sans-Serif" font-size="10.00">+</text>
<text text-anchor="start" x="27.5" y="-272" font-family="Helvetica,sans-Serif" font-size="10.00">Exception()</text>
<text text-anchor="start" x="14.5" y="-257" font-family="Helvetica,sans-Serif" font-size="10.00">+</text>
<text text-anchor="start" x="27.5" y="-257" font-family="Helvetica,sans-Serif" font-size="10.00">Exception()</text>
<text text-anchor="start" x="27.5" y="-242" font-family="Helvetica,sans-Serif" font-size="10.00">et 11 de plus...</text>
<text text-anchor="start" x="14.5" y="-227" font-family="Helvetica,sans-Serif" font-size="10.00">+</text>
<text text-anchor="start" x="27.5" y="-227" font-family="Helvetica,sans-Serif" font-size="10.00">hasPendingException()</text>
<text text-anchor="start" x="14.5" y="-212" font-family="Helvetica,sans-Serif" font-size="10.00">+</text>
<text text-anchor="start" x="27.5" y="-212" font-family="Helvetica,sans-Serif" font-size="10.00">staticInit()</text>
<text text-anchor="start" x="14.5" y="-197" font-family="Helvetica,sans-Serif" font-size="10.00">#</text>
<text text-anchor="start" x="27.5" y="-197" font-family="Helvetica,sans-Serif" font-size="10.00">explain()</text>
<text text-anchor="start" x="14.5" y="-182" font-family="Helvetica,sans-Serif" font-size="10.00">#</text>
<text text-anchor="start" x="27.5" y="-182" font-family="Helvetica,sans-Serif" font-size="10.00">setMessage()</text>
<text text-anchor="start" x="17" y="-167" font-family="Helvetica,sans-Serif" font-size="10.00">&#45;</text>
<text text-anchor="start" x="27.5" y="-167" font-family="Helvetica,sans-Serif" font-size="10.00">_setStackTrace()</text>
<text text-anchor="start" x="17" y="-152" font-family="Helvetica,sans-Serif" font-size="10.00">&#45;</text>
<text text-anchor="start" x="27.5" y="-152" font-family="Helvetica,sans-Serif" font-size="10.00">_setWhere()</text>
<text text-anchor="start" x="17" y="-137" font-family="Helvetica,sans-Serif" font-size="10.00">&#45;</text>
<text text-anchor="start" x="27.5" y="-137" font-family="Helvetica,sans-Serif" font-size="10.00">_checkExplainAndPause()</text>
<polygon fill="#666666" stroke="#666666" points="10.5,-507 10.5,-507 156.5,-507 156.5,-507 10.5,-507"/>
<polygon fill="#666666" stroke="#666666" points="10.5,-402 10.5,-402 25.5,-402 25.5,-402 10.5,-402"/>
<polygon fill="#666666" stroke="#666666" points="25.5,-402 25.5,-402 156.5,-402 156.5,-402 25.5,-402"/>
<polygon fill="none" stroke="#666666" points="10.5,-130 10.5,-524 156.5,-524 156.5,-130 10.5,-130"/>
</a>
</g>
</g>
<!-- Node2&#45;&gt;Node1 -->
<g id="edge1_Node000001_Node000002" class="edge">
<title>Node2&#45;&gt;Node1</title>
<g id="a_edge1_Node000001_Node000002"><a xlink:title=" ">
<path fill="none" stroke="#63b8ff" d="M83.5,-119.78C83.5,-110.62 83.5,-101.97 83.5,-94.06"/>
<polygon fill="none" stroke="#63b8ff" points="80,-119.91 83.5,-129.91 87,-119.91 80,-119.91"/>
</a>
</g>
</g>
<!-- Node3 -->
<g id="Node000003" class="node">
<title>Node3</title>
<g id="a_Node000003"><a xlink:title=" ">
<polygon fill="white" stroke="transparent" points="123.5,-609 43.5,-609 43.5,-560 123.5,-560 123.5,-609"/>
<text text-anchor="start" x="48.5" y="-596.5" font-family="Helvetica,sans-Serif" font-size="10.00">std::exception</text>
<text text-anchor="start" x="81.5" y="-581.5" font-family="Helvetica,sans-Serif" font-size="10.00"> </text>
<text text-anchor="start" x="81.5" y="-566.5" font-family="Helvetica,sans-Serif" font-size="10.00"> </text>
<polygon fill="#bfbfbf" stroke="#bfbfbf" points="43.5,-591.5 43.5,-591.5 123.5,-591.5 123.5,-591.5 43.5,-591.5"/>
<polygon fill="#bfbfbf" stroke="#bfbfbf" points="43.5,-576.5 43.5,-576.5 123.5,-576.5 123.5,-576.5 43.5,-576.5"/>
<polygon fill="none" stroke="#bfbfbf" points="43.5,-560 43.5,-609 123.5,-609 123.5,-560 43.5,-560"/>
</a>
</g>
</g>
<!-- Node3&#45;&gt;Node2 -->
<g id="edge2_Node000002_Node000003" class="edge">
<title>Node3&#45;&gt;Node2</title>
<g id="a_edge2_Node000002_Node000003"><a xlink:title=" ">
<path fill="none" stroke="#63b8ff" d="M83.5,-549.8C83.5,-542.15 83.5,-533.48 83.5,-524.12"/>
<polygon fill="none" stroke="#63b8ff" points="80,-549.92 83.5,-559.92 87,-549.92 80,-549.92"/>
</a>
</g>
</g>
</g>
</svg>

<g id="navigator" transform="translate(0 0)" fill="#404254">
  <rect fill="#f2f5e9" fill-opacity="0.5" stroke="#606060" stroke-width=".5" x="0" y="0" width="60" height="60"/>
  <use id="zoomplus" xlink:href="#zoomPlus" x="17" y="9" onmousedown="handleZoom(evt,'in')"/>
  <use id="zoomminus" xlink:href="#zoomMin" x="42" y="9" onmousedown="handleZoom(evt,'out')"/>
  <use id="reset" xlink:href="#resetDef" x="30" y="36" onmousedown="handleReset()"/>
   <use id="arrowup" xlink:href="#arrowUp" x="0" y="0" onmousedown="handlePan(0,-1)"/>
  <use id="arrowright" xlink:href="#arrowRight" x="0" y="0" onmousedown="handlePan(1,0)"/>
  <use id="arrowdown" xlink:href="#arrowDown" x="0" y="0" onmousedown="handlePan(0,1)"/>
  <use id="arrowleft" xlink:href="#arrowLeft" x="0" y="0" onmousedown="handlePan(-1,0)"/>
</g>
<svg viewBox="0 0 15 15" width="100%" height="30px" preserveAspectRatio="xMaxYMin meet">
 <g id="arrow_out" transform="scale(0.3 0.3)">
  <a xlink:href="classArcane_1_1BadAlignmentException__inherit__graph_org.svg" target="_base">
   <rect id="button" ry="5" rx="5" y="6" x="6" height="38" width="38"
        fill="#f2f5e9" fill-opacity="0.5" stroke="#606060" stroke-width="1.0"/>
   <path id="arrow"
     d="M 11.500037,31.436501 C 11.940474,20.09759 22.043105,11.32322 32.158766,21.979434 L 37.068811,17.246167 C 37.068811,17.246167 37.088388,32 37.088388,32 L 22.160133,31.978069 C 22.160133,31.978069 26.997745,27.140456 26.997745,27.140456 C 18.528582,18.264221 13.291696,25.230495 11.500037,31.436501 z"
     style="fill:#404040;"/>
  </a>
 </g>
</svg>

<style type='text/css'>
<![CDATA[
[data-mouse-over-selected='false'] { opacity: 0.7; }
[data-mouse-over-selected='true']  { opacity: 1.0; }
]]>
</style>
<script type="application/ecmascript"><![CDATA[
document.addEventListener('DOMContentLoaded', (event) => {
  highlightEdges();
  highlightAdjacentNodes();
});
]]></script>
</svg>
