<?xml version="1.0" encoding="UTF-8" standalone="no"?>
<!DOCTYPE svg PUBLIC "-//W3C//DTD SVG 1.1//EN"
 "http://www.w3.org/Graphics/SVG/1.1/DTD/svg11.dtd">
<!-- Generated by graphviz version 2.43.0 (0)
 -->
<!-- Title: Arcane::ParallelLoopOptions::setMaxThread Pages: 1 -->
<svg width="797pt" height="182pt"
 viewBox="0.00 0.00 797.00 182.00" xmlns="http://www.w3.org/2000/svg" xmlns:xlink="http://www.w3.org/1999/xlink">
<g id="graph0" class="graph" transform="scale(1 1) rotate(0) translate(4 178)">
<title>Arcane::ParallelLoopOptions::setMaxThread</title>
<!-- Node1 -->
<g id="Node000001" class="node">
<title>Node1</title>
<g id="a_Node000001"><a xlink:title="Positionne le nombre maximal de threads autorisé.">
<polygon fill="#999999" stroke="#666666" points="789,-126 636,-126 636,-96 789,-96 789,-126"/>
<text text-anchor="start" x="644" y="-114" font-family="Helvetica,sans-Serif" font-size="10.00">Arcane::ParallelLoopOptions</text>
<text text-anchor="middle" x="712.5" y="-103" font-family="Helvetica,sans-Serif" font-size="10.00">::setMaxThread</text>
</a>
</g>
</g>
<!-- Node2 -->
<g id="Node000002" class="node">
<title>Node2</title>
<g id="a_Node000002"><a xlink:href="../../d3/dc1/classArcane_1_1TBBTaskImplementation.html#a373185674ea0e974c34cc146772a35ec" target="_top" xlink:title=" ">
<polygon fill="white" stroke="#666666" points="600,-150 424,-150 424,-120 600,-120 600,-150"/>
<text text-anchor="start" x="432" y="-138" font-family="Helvetica,sans-Serif" font-size="10.00">Arcane::TBBTaskImplementation</text>
<text text-anchor="middle" x="512" y="-127" font-family="Helvetica,sans-Serif" font-size="10.00">::initialize</text>
</a>
</g>
</g>
<!-- Node1&#45;&gt;Node2 -->
<g id="edge1_Node000001_Node000002" class="edge">
<title>Node1&#45;&gt;Node2</title>
<g id="a_edge1_Node000001_Node000002"><a xlink:title=" ">
<path fill="none" stroke="#63b8ff" d="M625.9,-121.35C617.33,-122.39 608.61,-123.44 600.03,-124.48"/>
<polygon fill="#63b8ff" stroke="#63b8ff" points="626.38,-124.82 635.89,-120.14 625.54,-117.87 626.38,-124.82"/>
</a>
</g>
</g>
<!-- Node3 -->
<g id="Node000003" class="node">
<title>Node3</title>
<g id="a_Node000003"><a xlink:href="../../d9/d62/classArcane_1_1ParallelLoopOptions.html#a5ae401b82c920309e214873bbcf645cc" target="_top" xlink:title="Fusionne les valeurs non modifiées de l&#39;instance par celles de po.">
<polygon fill="white" stroke="#666666" points="588.5,-102 435.5,-102 435.5,-72 588.5,-72 588.5,-102"/>
<text text-anchor="start" x="443.5" y="-90" font-family="Helvetica,sans-Serif" font-size="10.00">Arcane::ParallelLoopOptions</text>
<text text-anchor="middle" x="512" y="-79" font-family="Helvetica,sans-Serif" font-size="10.00">::mergeUnsetValues</text>
</a>
</g>
</g>
<!-- Node1&#45;&gt;Node3 -->
<g id="edge2_Node000001_Node000003" class="edge">
<title>Node1&#45;&gt;Node3</title>
<g id="a_edge2_Node000001_Node000003"><a xlink:title=" ">
<path fill="none" stroke="#63b8ff" d="M625.65,-100.62C613.37,-99.13 600.8,-97.62 588.73,-96.16"/>
<polygon fill="#63b8ff" stroke="#63b8ff" points="625.54,-104.13 635.89,-101.86 626.38,-97.18 625.54,-104.13"/>
</a>
</g>
</g>
<!-- Node4 -->
<g id="Node000004" class="node">
<title>Node4</title>
<g id="a_Node000004"><a xlink:href="../../d3/dc1/classArcane_1_1TBBTaskImplementation.html#adfa5ce1372fcd7116aa1b551da1cf323" target="_top" xlink:title="Exécution d&#39;une boucle N&#45;dimensions.">
<polygon fill="white" stroke="#666666" points="388,-102 212,-102 212,-72 388,-72 388,-102"/>
<text text-anchor="start" x="220" y="-90" font-family="Helvetica,sans-Serif" font-size="10.00">Arcane::TBBTaskImplementation</text>
<text text-anchor="middle" x="300" y="-79" font-family="Helvetica,sans-Serif" font-size="10.00">::_executeMDParallelFor</text>
</a>
</g>
</g>
<!-- Node3&#45;&gt;Node4 -->
<g id="edge3_Node000003_Node000004" class="edge">
<title>Node3&#45;&gt;Node4</title>
<g id="a_edge3_Node000003_Node000004"><a xlink:title=" ">
<path fill="none" stroke="#63b8ff" d="M425.34,-87C413.14,-87 400.58,-87 388.35,-87"/>
<polygon fill="#63b8ff" stroke="#63b8ff" points="425.48,-90.5 435.48,-87 425.48,-83.5 425.48,-90.5"/>
</a>
</g>
</g>
<!-- Node5 -->
<g id="Node000005" class="node">
<title>Node5</title>
<g id="a_Node000005"><a xlink:href="../../d3/dc1/classArcane_1_1TBBTaskImplementation.html#a5c5f7d09c3b852fd14b7f6a48f0fe844" target="_top" xlink:title="Exécute une boucle 1D en concurrence.">
<polygon fill="white" stroke="#666666" points="176,-174 0,-174 0,-144 176,-144 176,-174"/>
<text text-anchor="start" x="8" y="-162" font-family="Helvetica,sans-Serif" font-size="10.00">Arcane::TBBTaskImplementation</text>
<text text-anchor="middle" x="88" y="-151" font-family="Helvetica,sans-Serif" font-size="10.00">::executeParallelFor</text>
</a>
</g>
</g>
<!-- Node4&#45;&gt;Node5 -->
<g id="edge4_Node000004_Node000005" class="edge">
<title>Node4&#45;&gt;Node5</title>
<g id="a_edge4_Node000004_Node000005"><a xlink:title=" ">
<path fill="none" stroke="#63b8ff" d="M253.77,-105.94C230.7,-115.27 202.08,-126.34 176,-135 166.63,-138.11 156.61,-141.14 146.81,-143.95"/>
<polygon fill="#63b8ff" stroke="#63b8ff" points="255.35,-109.07 263.3,-102.06 252.71,-102.59 255.35,-109.07"/>
</a>
</g>
</g>
<!-- Node6 -->
<g id="Node000006" class="node">
<title>Node6</title>
<g id="a_Node000006"><a xlink:href="../../d3/dc1/classArcane_1_1TBBTaskImplementation.html#aef0bf2b12158389734db05aad9456ac1" target="_top" xlink:title="Exécute une boucle 2D en concurrence.">
<polygon fill="white" stroke="#666666" points="176,-126 0,-126 0,-96 176,-96 176,-126"/>
<text text-anchor="start" x="8" y="-114" font-family="Helvetica,sans-Serif" font-size="10.00">Arcane::TBBTaskImplementation</text>
<text text-anchor="middle" x="88" y="-103" font-family="Helvetica,sans-Serif" font-size="10.00">::executeParallelFor</text>
</a>
</g>
</g>
<!-- Node4&#45;&gt;Node6 -->
<g id="edge5_Node000004_Node000006" class="edge">
<title>Node4&#45;&gt;Node6</title>
<g id="a_edge5_Node000004_Node000006"><a xlink:title=" ">
<path fill="none" stroke="#63b8ff" d="M201.82,-98.11C193.31,-99.08 184.73,-100.06 176.3,-101.02"/>
<polygon fill="#63b8ff" stroke="#63b8ff" points="202.23,-101.58 211.77,-96.97 201.43,-94.63 202.23,-101.58"/>
</a>
</g>
</g>
<!-- Node7 -->
<g id="Node000007" class="node">
<title>Node7</title>
<g id="a_Node000007"><a xlink:href="../../d3/dc1/classArcane_1_1TBBTaskImplementation.html#ab6b5940cc0c9f602fd8bbfd48ca51cc6" target="_top" xlink:title="Exécute une boucle 3D en concurrence.">
<polygon fill="white" stroke="#666666" points="176,-78 0,-78 0,-48 176,-48 176,-78"/>
<text text-anchor="start" x="8" y="-66" font-family="Helvetica,sans-Serif" font-size="10.00">Arcane::TBBTaskImplementation</text>
<text text-anchor="middle" x="88" y="-55" font-family="Helvetica,sans-Serif" font-size="10.00">::executeParallelFor</text>
</a>
</g>
</g>
<!-- Node4&#45;&gt;Node7 -->
<g id="edge6_Node000004_Node000007" class="edge">
<title>Node4&#45;&gt;Node7</title>
<g id="a_edge6_Node000004_Node000007"><a xlink:title=" ">
<path fill="none" stroke="#63b8ff" d="M201.82,-75.89C193.31,-74.92 184.73,-73.94 176.3,-72.98"/>
<polygon fill="#63b8ff" stroke="#63b8ff" points="201.43,-79.37 211.77,-77.03 202.23,-72.42 201.43,-79.37"/>
</a>
</g>
</g>
<!-- Node8 -->
<g id="Node000008" class="node">
<title>Node8</title>
<g id="a_Node000008"><a xlink:href="../../d3/dc1/classArcane_1_1TBBTaskImplementation.html#ac2f35d06696cf9116ac663646bf45e32" target="_top" xlink:title="Exécute une boucle 4D en concurrence.">
<polygon fill="white" stroke="#666666" points="176,-30 0,-30 0,0 176,0 176,-30"/>
<text text-anchor="start" x="8" y="-18" font-family="Helvetica,sans-Serif" font-size="10.00">Arcane::TBBTaskImplementation</text>
<text text-anchor="middle" x="88" y="-7" font-family="Helvetica,sans-Serif" font-size="10.00">::executeParallelFor</text>
</a>
</g>
</g>
<!-- Node4&#45;&gt;Node8 -->
<g id="edge7_Node000004_Node000008" class="edge">
<title>Node4&#45;&gt;Node8</title>
<g id="a_edge7_Node000004_Node000008"><a xlink:title=" ">
<path fill="none" stroke="#63b8ff" d="M253.77,-68.06C230.7,-58.73 202.08,-47.66 176,-39 166.63,-35.89 156.61,-32.86 146.81,-30.05"/>
<polygon fill="#63b8ff" stroke="#63b8ff" points="252.71,-71.41 263.3,-71.94 255.35,-64.93 252.71,-71.41"/>
</a>
</g>
</g>
</g>
</svg>
