<?xml version="1.0" encoding="UTF-8" standalone="no"?>
<!DOCTYPE svg PUBLIC "-//W3C//DTD SVG 1.1//EN"
 "http://www.w3.org/Graphics/SVG/1.1/DTD/svg11.dtd">
<!-- Generated by graphviz version 2.43.0 (0)
 -->
<!-- Title: Arcane::String::utf8 Pages: 1 -->
<svg width="914pt" height="316pt"
 viewBox="0.00 0.00 914.00 316.00" xmlns="http://www.w3.org/2000/svg" xmlns:xlink="http://www.w3.org/1999/xlink">
<g id="graph0" class="graph" transform="scale(1 1) rotate(0) translate(4 312)">
<title>Arcane::String::utf8</title>
<!-- Node1 -->
<g id="Node000001" class="node">
<title>Node1</title>
<g id="a_Node000001"><a xlink:title="Retourne la conversion de l&#39;instance dans l&#39;encodage UTF&#45;8.">
<polygon fill="#999999" stroke="#666666" points="906,-110.5 796,-110.5 796,-91.5 906,-91.5 906,-110.5"/>
<text text-anchor="middle" x="851" y="-98.5" font-family="Helvetica,sans-Serif" font-size="10.00">Arcane::String::utf8</text>
</a>
</g>
</g>
<!-- Node2 -->
<g id="Node000002" class="node">
<title>Node2</title>
<g id="a_Node000002"><a xlink:href="../../d6/d15/classArcane_1_1VtkMeshIOService.html#ab1989ea0e298dde0185e0146d63a51ed" target="_top" xlink:title="Permet de lire les données complémentaires (POINT_DATA / CELL_DATA).">
<polygon fill="white" stroke="#666666" points="748.5,-236 602.5,-236 602.5,-206 748.5,-206 748.5,-236"/>
<text text-anchor="start" x="610.5" y="-224" font-family="Helvetica,sans-Serif" font-size="10.00">Arcane::VtkMeshIOService</text>
<text text-anchor="middle" x="675.5" y="-213" font-family="Helvetica,sans-Serif" font-size="10.00">::_readData</text>
</a>
</g>
</g>
<!-- Node1&#45;&gt;Node2 -->
<g id="edge1_Node000001_Node000002" class="edge">
<title>Node1&#45;&gt;Node2</title>
<g id="a_edge1_Node000001_Node000002"><a xlink:title=" ">
<path fill="none" stroke="#63b8ff" d="M831.18,-117.46C813.41,-132.66 785.72,-155.47 760,-173 742.45,-184.96 721.77,-196.87 705.37,-205.83"/>
<polygon fill="#63b8ff" stroke="#63b8ff" points="833.77,-119.85 839.06,-110.67 829.2,-114.55 833.77,-119.85"/>
</a>
</g>
</g>
<!-- Node9 -->
<g id="Node000009" class="node">
<title>Node9</title>
<g id="a_Node000009"><a xlink:href="../../de/dc9/classArcane_1_1FlexLMMng.html#aedd233c93e1e5ccddc450264fbffa34a" target="_top" xlink:title="Return info on feature.">
<polygon fill="white" stroke="#666666" points="735,-164 616,-164 616,-134 735,-134 735,-164"/>
<text text-anchor="start" x="624" y="-152" font-family="Helvetica,sans-Serif" font-size="10.00">Arcane::FlexLMMng::</text>
<text text-anchor="middle" x="675.5" y="-141" font-family="Helvetica,sans-Serif" font-size="10.00">featureInfo</text>
</a>
</g>
</g>
<!-- Node1&#45;&gt;Node9 -->
<g id="edge10_Node000001_Node000009" class="edge">
<title>Node1&#45;&gt;Node9</title>
<g id="a_edge10_Node000001_Node000009"><a xlink:title=" ">
<path fill="none" stroke="#63b8ff" d="M805.58,-113.29C782.84,-119.58 754.97,-127.29 730.95,-133.94"/>
<polygon fill="#63b8ff" stroke="#63b8ff" points="806.6,-116.64 815.31,-110.6 804.74,-109.89 806.6,-116.64"/>
</a>
</g>
</g>
<!-- Node12 -->
<g id="Node000012" class="node">
<title>Node12</title>
<g id="a_Node000012"><a xlink:href="../../dd/d13/classArcane_1_1GlibDynamicLibrary.html#ae3f08a7fefc9702a55ab7a351d477fe9" target="_top" xlink:title="Retourne l&#39;adresse du symbol de nom symbol_name.">
<polygon fill="white" stroke="#666666" points="752,-116 599,-116 599,-86 752,-86 752,-116"/>
<text text-anchor="start" x="607" y="-104" font-family="Helvetica,sans-Serif" font-size="10.00">Arcane::GlibDynamicLibrary</text>
<text text-anchor="middle" x="675.5" y="-93" font-family="Helvetica,sans-Serif" font-size="10.00">::getSymbolAddress</text>
</a>
</g>
</g>
<!-- Node1&#45;&gt;Node12 -->
<g id="edge13_Node000001_Node000012" class="edge">
<title>Node1&#45;&gt;Node12</title>
<g id="a_edge13_Node000001_Node000012"><a xlink:title=" ">
<path fill="none" stroke="#63b8ff" d="M785.34,-101C774.48,-101 763.13,-101 752.02,-101"/>
<polygon fill="#63b8ff" stroke="#63b8ff" points="785.58,-104.5 795.58,-101 785.58,-97.5 785.58,-104.5"/>
</a>
</g>
</g>
<!-- Node13 -->
<g id="Node000013" class="node">
<title>Node13</title>
<g id="a_Node000013"><a xlink:href="../../d1/d5b/classArcane_1_1IOMng.html#a6a0af6ec299e88bfcddd804837232541" target="_top" xlink:title="Lit et analyse le fichier XML contenu dans la chaîne str.">
<polygon fill="white" stroke="#666666" points="760,-67.5 591,-67.5 591,-48.5 760,-48.5 760,-67.5"/>
<text text-anchor="middle" x="675.5" y="-55.5" font-family="Helvetica,sans-Serif" font-size="10.00">Arcane::IOMng::parseXmlString</text>
</a>
</g>
</g>
<!-- Node1&#45;&gt;Node13 -->
<g id="edge14_Node000001_Node000013" class="edge">
<title>Node1&#45;&gt;Node13</title>
<g id="a_edge14_Node000001_Node000013"><a xlink:title=" ">
<path fill="none" stroke="#63b8ff" d="M805.71,-88.84C791.17,-84.94 774.92,-80.69 760,-77 747.01,-73.79 732.83,-70.49 719.91,-67.56"/>
<polygon fill="#63b8ff" stroke="#63b8ff" points="804.89,-92.25 815.46,-91.47 806.71,-85.49 804.89,-92.25"/>
</a>
</g>
</g>
<!-- Node14 -->
<g id="Node000014" class="node">
<title>Node14</title>
<g id="a_Node000014"><a xlink:href="../../d4/da0/classArcane_1_1impl_1_1BasicWriter.html#ae8e1b3b798ae0af0a68b3a8148e010fd" target="_top" xlink:title="Positionne les infos des méta&#45;données.">
<polygon fill="white" stroke="#666666" points="745.5,-30 605.5,-30 605.5,0 745.5,0 745.5,-30"/>
<text text-anchor="start" x="613.5" y="-18" font-family="Helvetica,sans-Serif" font-size="10.00">Arcane::impl::BasicWriter</text>
<text text-anchor="middle" x="675.5" y="-7" font-family="Helvetica,sans-Serif" font-size="10.00">::setMetaData</text>
</a>
</g>
</g>
<!-- Node1&#45;&gt;Node14 -->
<g id="edge15_Node000001_Node000014" class="edge">
<title>Node1&#45;&gt;Node14</title>
<g id="a_edge15_Node000001_Node000014"><a xlink:title=" ">
<path fill="none" stroke="#63b8ff" d="M830.57,-84.84C813.07,-70.98 786.15,-51.36 760,-39 752.91,-35.65 745.25,-32.67 737.56,-30.05"/>
<polygon fill="#63b8ff" stroke="#63b8ff" points="828.83,-87.93 838.81,-91.49 833.22,-82.48 828.83,-87.93"/>
</a>
</g>
</g>
<!-- Node3 -->
<g id="Node000003" class="node">
<title>Node3</title>
<g id="a_Node000003"><a xlink:href="../../d6/d15/classArcane_1_1VtkMeshIOService.html#aa01640e48757950ac0172b43e073e580" target="_top" xlink:title="Permet de lire le fichier truc.vtkfaces.vtk (s&#39;il existe).">
<polygon fill="white" stroke="#666666" points="555,-308 409,-308 409,-278 555,-278 555,-308"/>
<text text-anchor="start" x="417" y="-296" font-family="Helvetica,sans-Serif" font-size="10.00">Arcane::VtkMeshIOService</text>
<text text-anchor="middle" x="482" y="-285" font-family="Helvetica,sans-Serif" font-size="10.00">::_readFacesMesh</text>
</a>
</g>
</g>
<!-- Node2&#45;&gt;Node3 -->
<g id="edge2_Node000002_Node000003" class="edge">
<title>Node2&#45;&gt;Node3</title>
<g id="a_edge2_Node000002_Node000003"><a xlink:title=" ">
<path fill="none" stroke="#63b8ff" d="M629.12,-239.97C606.9,-249.07 579.68,-259.94 555,-269 546.84,-272 538.1,-275.04 529.62,-277.92"/>
<polygon fill="#63b8ff" stroke="#63b8ff" points="630.72,-243.1 638.64,-236.06 628.06,-236.63 630.72,-243.1"/>
</a>
</g>
</g>
<!-- Node7 -->
<g id="Node000007" class="node">
<title>Node7</title>
<g id="a_Node000007"><a xlink:href="../../d6/d15/classArcane_1_1VtkMeshIOService.html#a3da0bde8376e17b0a4557fd694a7e482" target="_top" xlink:title="Permet de lire un fichier vtk contenant une STRUCTURED_GRID.">
<polygon fill="white" stroke="#666666" points="555,-260 409,-260 409,-230 555,-230 555,-260"/>
<text text-anchor="start" x="417" y="-248" font-family="Helvetica,sans-Serif" font-size="10.00">Arcane::VtkMeshIOService</text>
<text text-anchor="middle" x="482" y="-237" font-family="Helvetica,sans-Serif" font-size="10.00">::_readStructuredGrid</text>
</a>
</g>
</g>
<!-- Node2&#45;&gt;Node7 -->
<g id="edge6_Node000002_Node000007" class="edge">
<title>Node2&#45;&gt;Node7</title>
<g id="a_edge6_Node000002_Node000007"><a xlink:title=" ">
<path fill="none" stroke="#63b8ff" d="M592.11,-231.33C579.78,-232.87 567.15,-234.45 555.06,-235.97"/>
<polygon fill="#63b8ff" stroke="#63b8ff" points="592.89,-234.76 602.37,-230.04 592.02,-227.81 592.89,-234.76"/>
</a>
</g>
</g>
<!-- Node8 -->
<g id="Node000008" class="node">
<title>Node8</title>
<g id="a_Node000008"><a xlink:href="../../d6/d15/classArcane_1_1VtkMeshIOService.html#af373c7d54b8f0d1551601556fccb6436" target="_top" xlink:title="Permet de lire un fichier vtk contenant une UNSTRUCTURED_GRID.">
<polygon fill="white" stroke="#666666" points="555,-212 409,-212 409,-182 555,-182 555,-212"/>
<text text-anchor="start" x="417" y="-200" font-family="Helvetica,sans-Serif" font-size="10.00">Arcane::VtkMeshIOService</text>
<text text-anchor="middle" x="482" y="-189" font-family="Helvetica,sans-Serif" font-size="10.00">::_readUnstructuredGrid</text>
</a>
</g>
</g>
<!-- Node2&#45;&gt;Node8 -->
<g id="edge8_Node000002_Node000008" class="edge">
<title>Node2&#45;&gt;Node8</title>
<g id="a_edge8_Node000002_Node000008"><a xlink:title=" ">
<path fill="none" stroke="#63b8ff" d="M592.11,-210.67C579.78,-209.13 567.15,-207.55 555.06,-206.03"/>
<polygon fill="#63b8ff" stroke="#63b8ff" points="592.02,-214.19 602.37,-211.96 592.89,-207.24 592.02,-214.19"/>
</a>
</g>
</g>
<!-- Node4 -->
<g id="Node000004" class="node">
<title>Node4</title>
<g id="a_Node000004"><a xlink:href="../../d6/d15/classArcane_1_1VtkMeshIOService.html#acc2e361baece2c5ce441ee530485d6cf" target="_top" xlink:title="Permet de débuter la lecture d&#39;un fichier vtk.">
<polygon fill="white" stroke="#666666" points="373,-260 227,-260 227,-230 373,-230 373,-260"/>
<text text-anchor="start" x="235" y="-248" font-family="Helvetica,sans-Serif" font-size="10.00">Arcane::VtkMeshIOService</text>
<text text-anchor="middle" x="300" y="-237" font-family="Helvetica,sans-Serif" font-size="10.00">::readMesh</text>
</a>
</g>
</g>
<!-- Node3&#45;&gt;Node4 -->
<g id="edge3_Node000003_Node000004" class="edge">
<title>Node3&#45;&gt;Node4</title>
<g id="a_edge3_Node000003_Node000004"><a xlink:title=" ">
<path fill="none" stroke="#63b8ff" d="M414.81,-275.35C395.91,-270.31 375.51,-264.87 357.26,-260"/>
<polygon fill="#63b8ff" stroke="#63b8ff" points="413.98,-278.75 424.54,-277.94 415.78,-271.99 413.98,-278.75"/>
</a>
</g>
</g>
<!-- Node5 -->
<g id="Node000005" class="node">
<title>Node5</title>
<g id="a_Node000005"><a xlink:href="../../d3/d89/classArcane_1_1VtkLegacyCaseMeshReader_1_1Builder.html#a138b9e820142f0580c305262dfdfd282" target="_top" xlink:title="Alloue les entités du maillage géré par ce service.">
<polygon fill="white" stroke="#666666" points="191,-284 0,-284 0,-254 191,-254 191,-284"/>
<text text-anchor="start" x="8" y="-272" font-family="Helvetica,sans-Serif" font-size="10.00">Arcane::VtkLegacyCaseMesh</text>
<text text-anchor="middle" x="95.5" y="-261" font-family="Helvetica,sans-Serif" font-size="10.00">Reader::Builder::allocateMeshItems</text>
</a>
</g>
</g>
<!-- Node4&#45;&gt;Node5 -->
<g id="edge4_Node000004_Node000005" class="edge">
<title>Node4&#45;&gt;Node5</title>
<g id="a_edge4_Node000004_Node000005"><a xlink:title=" ">
<path fill="none" stroke="#63b8ff" d="M216.58,-254.77C208.16,-255.77 199.55,-256.79 191.01,-257.8"/>
<polygon fill="#63b8ff" stroke="#63b8ff" points="217.23,-258.22 226.75,-253.56 216.41,-251.26 217.23,-258.22"/>
</a>
</g>
</g>
<!-- Node6 -->
<g id="Node000006" class="node">
<title>Node6</title>
<g id="a_Node000006"><a xlink:href="../../d8/dac/classArcane_1_1VtkMeshReader.html#a3a0f308c69bdea6fe24ed38900cd9377" target="_top" xlink:title="Lit un maillage à partir d&#39;un fichier.">
<polygon fill="white" stroke="#666666" points="162.5,-236 28.5,-236 28.5,-206 162.5,-206 162.5,-236"/>
<text text-anchor="start" x="36.5" y="-224" font-family="Helvetica,sans-Serif" font-size="10.00">Arcane::VtkMeshReader</text>
<text text-anchor="middle" x="95.5" y="-213" font-family="Helvetica,sans-Serif" font-size="10.00">::readMeshFromFile</text>
</a>
</g>
</g>
<!-- Node4&#45;&gt;Node6 -->
<g id="edge5_Node000004_Node000006" class="edge">
<title>Node4&#45;&gt;Node6</title>
<g id="a_edge5_Node000004_Node000006"><a xlink:title=" ">
<path fill="none" stroke="#63b8ff" d="M216.59,-235.23C198.64,-233.11 179.87,-230.88 162.64,-228.84"/>
<polygon fill="#63b8ff" stroke="#63b8ff" points="216.41,-238.74 226.75,-236.44 217.23,-231.78 216.41,-238.74"/>
</a>
</g>
</g>
<!-- Node7&#45;&gt;Node4 -->
<g id="edge7_Node000007_Node000004" class="edge">
<title>Node7&#45;&gt;Node4</title>
<g id="a_edge7_Node000007_Node000004"><a xlink:title=" ">
<path fill="none" stroke="#63b8ff" d="M398.56,-245C390.09,-245 381.54,-245 373.19,-245"/>
<polygon fill="#63b8ff" stroke="#63b8ff" points="398.82,-248.5 408.82,-245 398.82,-241.5 398.82,-248.5"/>
</a>
</g>
</g>
<!-- Node8&#45;&gt;Node4 -->
<g id="edge9_Node000008_Node000004" class="edge">
<title>Node8&#45;&gt;Node4</title>
<g id="a_edge9_Node000008_Node000004"><a xlink:title=" ">
<path fill="none" stroke="#63b8ff" d="M414.81,-214.65C395.91,-219.69 375.51,-225.13 357.26,-230"/>
<polygon fill="#63b8ff" stroke="#63b8ff" points="415.78,-218.01 424.54,-212.06 413.98,-211.25 415.78,-218.01"/>
</a>
</g>
</g>
<!-- Node10 -->
<g id="Node000010" class="node">
<title>Node10</title>
<g id="a_Node000010"><a xlink:href="../../de/dc9/classArcane_1_1FlexLMMng.html#a6069995001352d63da95b9292def5f67" target="_top" xlink:title="Teste la présence d&#39;une fonctionnalité statique.">
<polygon fill="white" stroke="#666666" points="541.5,-164 422.5,-164 422.5,-134 541.5,-134 541.5,-164"/>
<text text-anchor="start" x="430.5" y="-152" font-family="Helvetica,sans-Serif" font-size="10.00">Arcane::FlexLMMng::</text>
<text text-anchor="middle" x="482" y="-141" font-family="Helvetica,sans-Serif" font-size="10.00">checkLicense</text>
</a>
</g>
</g>
<!-- Node9&#45;&gt;Node10 -->
<g id="edge11_Node000009_Node000010" class="edge">
<title>Node9&#45;&gt;Node10</title>
<g id="a_edge11_Node000009_Node000010"><a xlink:title=" ">
<path fill="none" stroke="#63b8ff" d="M605.63,-149C584.68,-149 561.86,-149 541.65,-149"/>
<polygon fill="#63b8ff" stroke="#63b8ff" points="605.74,-152.5 615.74,-149 605.74,-145.5 605.74,-152.5"/>
</a>
</g>
</g>
<!-- Node11 -->
<g id="Node000011" class="node">
<title>Node11</title>
<g id="a_Node000011"><a xlink:href="../../de/dc9/classArcane_1_1FlexLMMng.html#a53fefc5b6b988d86feb26dad640fbd6c" target="_top" xlink:title="Demande l&#39;allocation de.">
<polygon fill="white" stroke="#666666" points="541.5,-116 422.5,-116 422.5,-86 541.5,-86 541.5,-116"/>
<text text-anchor="start" x="430.5" y="-104" font-family="Helvetica,sans-Serif" font-size="10.00">Arcane::FlexLMMng::</text>
<text text-anchor="middle" x="482" y="-93" font-family="Helvetica,sans-Serif" font-size="10.00">getLicense</text>
</a>
</g>
</g>
<!-- Node9&#45;&gt;Node11 -->
<g id="edge12_Node000009_Node000011" class="edge">
<title>Node9&#45;&gt;Node11</title>
<g id="a_edge12_Node000009_Node000011"><a xlink:title=" ">
<path fill="none" stroke="#63b8ff" d="M605.91,-131.81C584.88,-126.54 561.95,-120.79 541.65,-115.7"/>
<polygon fill="#63b8ff" stroke="#63b8ff" points="605.19,-135.24 615.74,-134.27 606.89,-128.45 605.19,-135.24"/>
</a>
</g>
</g>
</g>
</svg>
