<?xml version="1.0" encoding="UTF-8" standalone="no"?>
<!DOCTYPE svg PUBLIC "-//W3C//DTD SVG 1.1//EN"
 "http://www.w3.org/Graphics/SVG/1.1/DTD/svg11.dtd">
<!-- Generated by graphviz version 14.1.2 (0)
 -->
<!-- Title: Arcane::String::substring Pages: 1 -->
<svg width="502pt" height="87pt"
 viewBox="0.00 0.00 502.00 87.00" xmlns="http://www.w3.org/2000/svg" xmlns:xlink="http://www.w3.org/1999/xlink">
<g id="graph0" class="graph" transform="scale(1 1) rotate(0) translate(4 82.75)">
<title>Arcane::String::substring</title>
<!-- Node1 -->
<g id="Node000001" class="node">
<title>Node1</title>
<g id="a_Node000001"><a xlink:title="Sous&#45;chaîne commençant à la position pos et de longueur len.">
<polygon fill="#999999" stroke="#666666" points="135.25,-39.75 0,-39.75 0,-19 135.25,-19 135.25,-39.75"/>
<text xml:space="preserve" text-anchor="middle" x="67.62" y="-26.25" font-family="Helvetica,sans-Serif" font-size="10.00">Arcane::String::substring</text>
</a>
</g>
</g>
<!-- Node2 -->
<g id="Node000002" class="node">
<title>Node2</title>
<g id="a_Node000002"><a xlink:href="../../db/dc4/classArcane_1_1String.html#af775062dadd9569c36dc2dfbfe719fb1" target="_top" xlink:title="Retourne la longueur de la chaîne en 32 bits.">
<polygon fill="white" stroke="#666666" points="283.25,-59.75 178,-59.75 178,-39 283.25,-39 283.25,-59.75"/>
<text xml:space="preserve" text-anchor="middle" x="230.62" y="-46.25" font-family="Helvetica,sans-Serif" font-size="10.00">Arcane::String::len</text>
</a>
</g>
</g>
<!-- Node1&#45;&gt;Node2 -->
<g id="edge1_Node000001_Node000002" class="edge">
<title>Node1&#45;&gt;Node2</title>
<g id="a_edge1_Node000001_Node000002"><a xlink:title=" ">
<path fill="none" stroke="#63b8ff" d="M135.5,-37.68C145.8,-38.96 156.4,-40.28 166.61,-41.55"/>
<polygon fill="#63b8ff" stroke="#63b8ff" points="166.07,-45.01 176.42,-42.77 166.93,-38.06 166.07,-45.01"/>
</a>
</g>
</g>
<!-- Node5 -->
<g id="Node000005" class="node">
<title>Node5</title>
<g id="a_Node000005"><a xlink:href="../../db/dc4/classArcane_1_1String.html#a75a6754b2e2646d71b85095bb3321c1d" target="_top" xlink:title="Crée une chaîne nulle.">
<polygon fill="white" stroke="#666666" points="290,-20.75 171.25,-20.75 171.25,0 290,0 290,-20.75"/>
<text xml:space="preserve" text-anchor="middle" x="230.62" y="-7.25" font-family="Helvetica,sans-Serif" font-size="10.00">Arcane::String::String</text>
</a>
</g>
</g>
<!-- Node1&#45;&gt;Node5 -->
<g id="edge4_Node000001_Node000005" class="edge">
<title>Node1&#45;&gt;Node5</title>
<g id="a_edge4_Node000001_Node000005"><a xlink:title=" ">
<path fill="none" stroke="#63b8ff" d="M135.5,-21.48C143.49,-20.54 151.66,-19.58 159.69,-18.63"/>
<polygon fill="#63b8ff" stroke="#63b8ff" points="159.89,-22.13 169.41,-17.48 159.07,-15.18 159.89,-22.13"/>
</a>
</g>
</g>
<!-- Node3 -->
<g id="Node000003" class="node">
<title>Node3</title>
<g id="a_Node000003"><a xlink:href="../../d0/d32/namespaceArcane.html#a22a70b966ef5efe085714156eb67e1df" target="_top" xlink:title="Vérifie que size peut être converti dans un &#39;Integer&#39; pour servir de taille à un tableau....">
<polygon fill="white" stroke="#666666" points="494.25,-78.75 326,-78.75 326,-58 494.25,-58 494.25,-78.75"/>
<text xml:space="preserve" text-anchor="middle" x="410.12" y="-65.25" font-family="Helvetica,sans-Serif" font-size="10.00">Arcane::arccoreCheckArraySize</text>
</a>
</g>
</g>
<!-- Node2&#45;&gt;Node3 -->
<g id="edge2_Node000002_Node000003" class="edge">
<title>Node2&#45;&gt;Node3</title>
<g id="a_edge2_Node000002_Node000003"><a xlink:title=" ">
<path fill="none" stroke="#63b8ff" d="M283.44,-54.92C293.14,-55.96 303.55,-57.07 314.07,-58.2"/>
<polygon fill="#63b8ff" stroke="#63b8ff" points="313.7,-61.68 324.01,-59.26 314.44,-54.72 313.7,-61.68"/>
</a>
</g>
</g>
<!-- Node4 -->
<g id="Node000004" class="node">
<title>Node4</title>
<g id="a_Node000004"><a xlink:href="../../db/dc4/classArcane_1_1String.html#aeeee15468ed9d9fc82cd10e9ad434832" target="_top" xlink:title="Retourne une vue de la STL sur la chaîne actuelle.">
<polygon fill="white" stroke="#666666" points="494.25,-39.75 326,-39.75 326,-19 494.25,-19 494.25,-39.75"/>
<text xml:space="preserve" text-anchor="middle" x="410.12" y="-26.25" font-family="Helvetica,sans-Serif" font-size="10.00">Arcane::String::toStdStringView</text>
</a>
</g>
</g>
<!-- Node2&#45;&gt;Node4 -->
<g id="edge3_Node000002_Node000004" class="edge">
<title>Node2&#45;&gt;Node4</title>
<g id="a_edge3_Node000002_Node000004"><a xlink:title=" ">
<path fill="none" stroke="#63b8ff" d="M283.44,-43.54C293.24,-42.43 303.77,-41.25 314.41,-40.05"/>
<polygon fill="#63b8ff" stroke="#63b8ff" points="314.47,-43.56 324.01,-38.97 313.68,-36.61 314.47,-43.56"/>
</a>
</g>
</g>
</g>
</svg>
