<?xml version="1.0" encoding="UTF-8" standalone="no"?>
<!DOCTYPE svg PUBLIC "-//W3C//DTD SVG 1.1//EN"
 "http://www.w3.org/Graphics/SVG/1.1/DTD/svg11.dtd">
<!-- Generated by graphviz version 14.1.2 (0)
 -->
<!-- Title: Alien::MoveObject&lt; T &gt; Pages: 1 -->
<svg width="134pt" height="113pt"
 viewBox="0.00 0.00 134.00 113.00" xmlns="http://www.w3.org/2000/svg" xmlns:xlink="http://www.w3.org/1999/xlink">
<g id="graph0" class="graph" transform="scale(1 1) rotate(0) translate(4 108.5)">
<title>Alien::MoveObject&lt; T &gt;</title>
<!-- Node1 -->
<g id="Node000001" class="node">
<title>Node1</title>
<g id="a_Node000001"><a xlink:title=" ">
<polygon fill="#999999" stroke="none" points="125.75,-104.5 0,-104.5 0,0 125.75,0 125.75,-104.5"/>
<text xml:space="preserve" text-anchor="start" x="4" y="-91" font-family="Helvetica,sans-Serif" font-size="10.00">Alien::MoveObject&lt; T &gt;</text>
<text xml:space="preserve" text-anchor="start" x="14.06" y="-74.25" font-family="Helvetica,sans-Serif" font-size="10.00">&#45;</text>
<text xml:space="preserve" text-anchor="start" x="31.88" y="-74.25" font-family="Helvetica,sans-Serif" font-size="10.00">m_object</text>
<text xml:space="preserve" text-anchor="start" x="11.81" y="-57.5" font-family="Helvetica,sans-Serif" font-size="10.00">+</text>
<text xml:space="preserve" text-anchor="start" x="31.88" y="-57.5" font-family="Helvetica,sans-Serif" font-size="10.00">MoveObject()</text>
<text xml:space="preserve" text-anchor="start" x="11.81" y="-40.75" font-family="Helvetica,sans-Serif" font-size="10.00">+</text>
<text xml:space="preserve" text-anchor="start" x="31.88" y="-40.75" font-family="Helvetica,sans-Serif" font-size="10.00">~MoveObject()</text>
<text xml:space="preserve" text-anchor="start" x="11.81" y="-24" font-family="Helvetica,sans-Serif" font-size="10.00">+</text>
<text xml:space="preserve" text-anchor="start" x="31.88" y="-24" font-family="Helvetica,sans-Serif" font-size="10.00">release()</text>
<text xml:space="preserve" text-anchor="start" x="11.81" y="-7.25" font-family="Helvetica,sans-Serif" font-size="10.00">+</text>
<text xml:space="preserve" text-anchor="start" x="31.88" y="-7.25" font-family="Helvetica,sans-Serif" font-size="10.00">reference()</text>
<polygon fill="#666666" stroke="#666666" points="0,-85.75 0,-85.75 125.75,-85.75 125.75,-85.75 0,-85.75"/>
<polygon fill="#666666" stroke="#666666" points="0,-69 0,-69 29.88,-69 29.88,-69 0,-69"/>
<polygon fill="#666666" stroke="#666666" points="29.88,-69 29.88,-69 125.75,-69 125.75,-69 29.88,-69"/>
<polygon fill="none" stroke="#666666" points="0,0 0,-104.5 125.75,-104.5 125.75,0 0,0"/>
</a>
</g>
</g>
</g>
</svg>
