<?xml version="1.0" encoding="UTF-8" standalone="no"?>
<!DOCTYPE svg PUBLIC "-//W3C//DTD SVG 1.1//EN"
 "http://www.w3.org/Graphics/SVG/1.1/DTD/svg11.dtd">
<!-- Generated by graphviz version 2.43.0 (0)
 -->
<!-- Title: Arcane::VtkLegacyMeshWriter::writeMeshToFile Pages: 1 -->
<svg width="704pt" height="461pt"
 viewBox="0.00 0.00 704.00 460.50" xmlns="http://www.w3.org/2000/svg" xmlns:xlink="http://www.w3.org/1999/xlink">
<g id="graph0" class="graph" transform="scale(1 1) rotate(0) translate(4 456.5)">
<title>Arcane::VtkLegacyMeshWriter::writeMeshToFile</title>
<!-- Node1 -->
<g id="Node000001" class="node">
<title>Node1</title>
<g id="a_Node000001"><a xlink:title="Ecriture du maillage au Vtk.">
<polygon fill="#999999" stroke="#666666" points="164,-186.5 0,-186.5 0,-156.5 164,-156.5 164,-186.5"/>
<text text-anchor="start" x="8" y="-174.5" font-family="Helvetica,sans-Serif" font-size="10.00">Arcane::VtkLegacyMeshWriter</text>
<text text-anchor="middle" x="82" y="-163.5" font-family="Helvetica,sans-Serif" font-size="10.00">::writeMeshToFile</text>
</a>
</g>
</g>
<!-- Node2 -->
<g id="Node000002" class="node">
<title>Node2</title>
<g id="a_Node000002"><a xlink:href="../../dc/d93/classArcane_1_1VtkLegacyMeshWriter.html#a95360dec3d446312cefb8a9e479b71d4" target="_top" xlink:title="Ecrit le maillage au format Vtk.">
<polygon fill="white" stroke="#666666" points="364,-295.5 200,-295.5 200,-265.5 364,-265.5 364,-295.5"/>
<text text-anchor="start" x="208" y="-283.5" font-family="Helvetica,sans-Serif" font-size="10.00">Arcane::VtkLegacyMeshWriter</text>
<text text-anchor="middle" x="282" y="-272.5" font-family="Helvetica,sans-Serif" font-size="10.00">::_writeMeshToFile</text>
</a>
</g>
</g>
<!-- Node1&#45;&gt;Node2 -->
<g id="edge1_Node000001_Node000002" class="edge">
<title>Node1&#45;&gt;Node2</title>
<g id="a_edge1_Node000001_Node000002"><a xlink:title=" ">
<path fill="none" stroke="#63b8ff" d="M110.53,-186.66C145.55,-205.94 206.12,-239.28 244.84,-260.59"/>
<polygon fill="#63b8ff" stroke="#63b8ff" points="243.25,-263.72 253.7,-265.47 246.63,-257.58 243.25,-263.72"/>
</a>
</g>
</g>
<!-- Node11 -->
<g id="Node000011" class="node">
<title>Node11</title>
<g id="a_Node000011"><a xlink:href="../../db/dc4/classArcane_1_1String.html#a92fdce512f5825c1e2d29ae2dea2f1bf" target="_top" xlink:title="Indique si la chaîne se termine par les caractères de s.">
<polygon fill="white" stroke="#666666" points="350.5,-93 213.5,-93 213.5,-74 350.5,-74 350.5,-93"/>
<text text-anchor="middle" x="282" y="-81" font-family="Helvetica,sans-Serif" font-size="10.00">Arcane::String::endsWith</text>
</a>
</g>
</g>
<!-- Node1&#45;&gt;Node11 -->
<g id="edge11_Node000001_Node000011" class="edge">
<title>Node1&#45;&gt;Node11</title>
<g id="a_edge11_Node000001_Node000011"><a xlink:title=" ">
<path fill="none" stroke="#63b8ff" d="M117.04,-156.37C154.43,-139.75 213.97,-113.29 250.07,-97.24"/>
<polygon fill="#63b8ff" stroke="#63b8ff" points="251.88,-100.27 259.6,-93.01 249.04,-93.87 251.88,-100.27"/>
</a>
</g>
</g>
<!-- Node3 -->
<g id="Node000003" class="node">
<title>Node3</title>
<g id="a_Node000003"><a xlink:href="../../dd/d0a/classArcane_1_1IItemFamily.html#a3d3659197cb052e60fb2fc573046830b" target="_top" xlink:title="Groupe de toutes les entités.">
<polygon fill="white" stroke="#666666" points="523,-434.5 409,-434.5 409,-404.5 523,-404.5 523,-434.5"/>
<text text-anchor="start" x="417" y="-422.5" font-family="Helvetica,sans-Serif" font-size="10.00">Arcane::IItemFamily</text>
<text text-anchor="middle" x="466" y="-411.5" font-family="Helvetica,sans-Serif" font-size="10.00">::allItems</text>
</a>
</g>
</g>
<!-- Node2&#45;&gt;Node3 -->
<g id="edge2_Node000002_Node000003" class="edge">
<title>Node2&#45;&gt;Node3</title>
<g id="a_edge2_Node000002_Node000003"><a xlink:title=" ">
<path fill="none" stroke="#63b8ff" d="M294.74,-295.62C314.22,-319.79 355.5,-367.28 400,-395.5 402.56,-397.12 405.24,-398.66 408,-400.11"/>
<polygon fill="#63b8ff" stroke="#63b8ff" points="406.49,-403.27 417.02,-404.45 409.53,-396.96 406.49,-403.27"/>
</a>
</g>
</g>
<!-- Node4 -->
<g id="Node000004" class="node">
<title>Node4</title>
<g id="a_Node000004"><a xlink:href="../../d1/dfb/classArcane_1_1Array.html#a0d76a9d28e8c370b17f40851863d6ee3" target="_top" xlink:title="Remplissage du tableau.">
<polygon fill="white" stroke="#666666" points="516,-386 416,-386 416,-367 516,-367 516,-386"/>
<text text-anchor="middle" x="466" y="-374" font-family="Helvetica,sans-Serif" font-size="10.00">Arcane::Array::fill</text>
</a>
</g>
</g>
<!-- Node2&#45;&gt;Node4 -->
<g id="edge4_Node000002_Node000004" class="edge">
<title>Node2&#45;&gt;Node4</title>
<g id="a_edge4_Node000002_Node000004"><a xlink:title=" ">
<path fill="none" stroke="#63b8ff" d="M301.75,-295.77C323.97,-313.18 362.7,-341.44 400,-358.5 404.3,-360.47 408.86,-362.26 413.49,-363.89"/>
<polygon fill="#63b8ff" stroke="#63b8ff" points="412.44,-367.23 423.04,-366.99 414.61,-360.57 412.44,-367.23"/>
</a>
</g>
</g>
<!-- Node5 -->
<g id="Node000005" class="node">
<title>Node5</title>
<g id="a_Node000005"><a xlink:href="../../df/d5f/classArcane_1_1Item.html#a337f519e8727634e55ea621f4734ec04" target="_top" xlink:title="Identifiant local de l&#39;entité dans le sous&#45;domaine du processeur.">
<polygon fill="white" stroke="#666666" points="524.5,-349 407.5,-349 407.5,-330 524.5,-330 524.5,-349"/>
<text text-anchor="middle" x="466" y="-337" font-family="Helvetica,sans-Serif" font-size="10.00">Arcane::Item::localId</text>
</a>
</g>
</g>
<!-- Node2&#45;&gt;Node5 -->
<g id="edge5_Node000002_Node000005" class="edge">
<title>Node2&#45;&gt;Node5</title>
<g id="a_edge5_Node000002_Node000005"><a xlink:title=" ">
<path fill="none" stroke="#63b8ff" d="M323.93,-295.6C346.29,-303.65 374.53,-313.52 400,-321.5 406.09,-323.41 412.53,-325.32 418.89,-327.14"/>
<polygon fill="#63b8ff" stroke="#63b8ff" points="418.2,-330.58 428.77,-329.93 420.1,-323.85 418.2,-330.58"/>
</a>
</g>
</g>
<!-- Node6 -->
<g id="Node000006" class="node">
<title>Node6</title>
<g id="a_Node000006"><a xlink:href="../../db/dc4/classArcane_1_1String.html#a3e077c33daf6f96bc96747fccd1edde0" target="_top" xlink:title="Retourne la conversion de l&#39;instance dans l&#39;encodage UTF&#45;8.">
<polygon fill="white" stroke="#666666" points="529.5,-312 402.5,-312 402.5,-293 529.5,-293 529.5,-312"/>
<text text-anchor="middle" x="466" y="-300" font-family="Helvetica,sans-Serif" font-size="10.00">Arcane::String::localstr</text>
</a>
</g>
</g>
<!-- Node2&#45;&gt;Node6 -->
<g id="edge6_Node000002_Node000006" class="edge">
<title>Node2&#45;&gt;Node6</title>
<g id="a_edge6_Node000002_Node000006"><a xlink:title=" ">
<path fill="none" stroke="#63b8ff" d="M364.15,-290.31C373.55,-291.45 383.09,-292.6 392.36,-293.72"/>
<polygon fill="#63b8ff" stroke="#63b8ff" points="391.96,-297.2 402.3,-294.92 392.8,-290.25 391.96,-297.2"/>
</a>
</g>
</g>
<!-- Node7 -->
<g id="Node000007" class="node">
<title>Node7</title>
<g id="a_Node000007"><a xlink:href="../../dd/d0a/classArcane_1_1IItemFamily.html#adc9dbaecb401f9448826b4c0f8624e40" target="_top" xlink:title="Nombre d&#39;entités.">
<polygon fill="white" stroke="#666666" points="523,-274.5 409,-274.5 409,-244.5 523,-244.5 523,-274.5"/>
<text text-anchor="start" x="417" y="-262.5" font-family="Helvetica,sans-Serif" font-size="10.00">Arcane::IItemFamily</text>
<text text-anchor="middle" x="466" y="-251.5" font-family="Helvetica,sans-Serif" font-size="10.00">::nbItem</text>
</a>
</g>
</g>
<!-- Node2&#45;&gt;Node7 -->
<g id="edge7_Node000002_Node000007" class="edge">
<title>Node2&#45;&gt;Node7</title>
<g id="a_edge7_Node000002_Node000007"><a xlink:title=" ">
<path fill="none" stroke="#63b8ff" d="M364.15,-271.14C375.69,-269.8 387.45,-268.45 398.66,-267.15"/>
<polygon fill="#63b8ff" stroke="#63b8ff" points="399.25,-270.61 408.78,-265.99 398.45,-263.66 399.25,-270.61"/>
</a>
</g>
</g>
<!-- Node8 -->
<g id="Node000008" class="node">
<title>Node8</title>
<g id="a_Node000008"><a xlink:href="../../d4/d55/classArcane_1_1ItemWithNodes.html#ae1c7e80b8f5f0bf7374bee7371e659c5" target="_top" xlink:title="Nombre de noeuds de l&#39;entité">
<polygon fill="white" stroke="#666666" points="532,-226.5 400,-226.5 400,-196.5 532,-196.5 532,-226.5"/>
<text text-anchor="start" x="408" y="-214.5" font-family="Helvetica,sans-Serif" font-size="10.00">Arcane::ItemWithNodes</text>
<text text-anchor="middle" x="466" y="-203.5" font-family="Helvetica,sans-Serif" font-size="10.00">::nbNode</text>
</a>
</g>
</g>
<!-- Node2&#45;&gt;Node8 -->
<g id="edge8_Node000002_Node000008" class="edge">
<title>Node2&#45;&gt;Node8</title>
<g id="a_edge8_Node000002_Node000008"><a xlink:title=" ">
<path fill="none" stroke="#63b8ff" d="M321.68,-265.47C344.45,-256.66 373.83,-245.36 400,-235.5 404.73,-233.72 409.66,-231.87 414.6,-230.03"/>
<polygon fill="#63b8ff" stroke="#63b8ff" points="415.9,-233.29 424.05,-226.52 413.46,-226.72 415.9,-233.29"/>
</a>
</g>
</g>
<!-- Node10 -->
<g id="Node000010" class="node">
<title>Node10</title>
<g id="a_Node000010"><a xlink:href="../../d4/d55/classArcane_1_1ItemWithNodes.html#ac6be927b92f077cf8b023d3b8cc8c2e8" target="_top" xlink:title="Liste des noeuds de l&#39;entité">
<polygon fill="white" stroke="#666666" points="532,-178.5 400,-178.5 400,-148.5 532,-148.5 532,-178.5"/>
<text text-anchor="start" x="408" y="-166.5" font-family="Helvetica,sans-Serif" font-size="10.00">Arcane::ItemWithNodes</text>
<text text-anchor="middle" x="466" y="-155.5" font-family="Helvetica,sans-Serif" font-size="10.00">::nodes</text>
</a>
</g>
</g>
<!-- Node2&#45;&gt;Node10 -->
<g id="edge10_Node000002_Node000010" class="edge">
<title>Node2&#45;&gt;Node10</title>
<g id="a_edge10_Node000002_Node000010"><a xlink:title=" ">
<path fill="none" stroke="#63b8ff" d="M298.48,-265.49C319.83,-245.46 360.2,-209.9 400,-187.5 403.03,-185.8 406.2,-184.17 409.44,-182.63"/>
<polygon fill="#63b8ff" stroke="#63b8ff" points="411,-185.77 418.72,-178.51 408.16,-179.37 411,-185.77"/>
</a>
</g>
</g>
<!-- Node3&#45;&gt;Node3 -->
<g id="edge3_Node000003_Node000003" class="edge">
<title>Node3&#45;&gt;Node3</title>
<g id="a_edge3_Node000003_Node000003"><a xlink:title=" ">
<path fill="none" stroke="#63b8ff" d="M436.82,-434.78C430.34,-443.91 440.06,-452.5 466,-452.5 481.4,-452.5 491.09,-449.47 495.06,-445.1"/>
<polygon fill="#63b8ff" stroke="#63b8ff" points="498.56,-444.82 495.18,-434.78 491.56,-444.73 498.56,-444.82"/>
</a>
</g>
</g>
<!-- Node9 -->
<g id="Node000009" class="node">
<title>Node9</title>
<g id="a_Node000009"><a xlink:href="../../df/d5f/classArcane_1_1Item.html#aa0e31afc10a3550e4808250e09ebae01" target="_top" xlink:title="Nombre de noeuds de l&#39;entité">
<polygon fill="white" stroke="#666666" points="696,-221 568,-221 568,-202 696,-202 696,-221"/>
<text text-anchor="middle" x="632" y="-209" font-family="Helvetica,sans-Serif" font-size="10.00">Arcane::Item::_nbNode</text>
</a>
</g>
</g>
<!-- Node8&#45;&gt;Node9 -->
<g id="edge9_Node000008_Node000009" class="edge">
<title>Node8&#45;&gt;Node9</title>
<g id="a_edge9_Node000008_Node000009"><a xlink:title=" ">
<path fill="none" stroke="#63b8ff" d="M532.29,-211.5C540.61,-211.5 549.17,-211.5 557.6,-211.5"/>
<polygon fill="#63b8ff" stroke="#63b8ff" points="557.81,-215 567.81,-211.5 557.81,-208 557.81,-215"/>
</a>
</g>
</g>
<!-- Node12 -->
<g id="Node000012" class="node">
<title>Node12</title>
<g id="a_Node000012"><a xlink:href="../../db/dc4/classArcane_1_1String.html#a8b7e8192fc80a6dd6fcbf6cdc1c7567d" target="_top" xlink:title="Retourne la conversion de l&#39;instance dans l&#39;encodage UTF&#45;8.">
<polygon fill="white" stroke="#666666" points="525,-130 407,-130 407,-111 525,-111 525,-130"/>
<text text-anchor="middle" x="466" y="-118" font-family="Helvetica,sans-Serif" font-size="10.00">Arcane::String::bytes</text>
</a>
</g>
</g>
<!-- Node11&#45;&gt;Node12 -->
<g id="edge12_Node000011_Node000012" class="edge">
<title>Node11&#45;&gt;Node12</title>
<g id="a_edge12_Node000011_Node000012"><a xlink:title=" ">
<path fill="none" stroke="#63b8ff" d="M329.87,-93.03C353.66,-97.86 382.76,-103.78 407.85,-108.88"/>
<polygon fill="#63b8ff" stroke="#63b8ff" points="407.48,-112.38 417.97,-110.94 408.87,-105.52 407.48,-112.38"/>
</a>
</g>
</g>
<!-- Node13 -->
<g id="Node000013" class="node">
<title>Node13</title>
<g id="a_Node000013"><a xlink:href="../../df/d52/classArcane_1_1SpanImpl.html#a3e1c051a53a97aa6625e6018350f5447" target="_top" xlink:title="Pointeur sur le début de la vue.">
<polygon fill="white" stroke="#666666" points="531,-93 401,-93 401,-74 531,-74 531,-93"/>
<text text-anchor="middle" x="466" y="-81" font-family="Helvetica,sans-Serif" font-size="10.00">Arcane::SpanImpl::data</text>
</a>
</g>
</g>
<!-- Node11&#45;&gt;Node13 -->
<g id="edge13_Node000011_Node000013" class="edge">
<title>Node11&#45;&gt;Node13</title>
<g id="a_edge13_Node000011_Node000013"><a xlink:title=" ">
<path fill="none" stroke="#63b8ff" d="M350.51,-83.5C363.65,-83.5 377.49,-83.5 390.83,-83.5"/>
<polygon fill="#63b8ff" stroke="#63b8ff" points="390.92,-87 400.92,-83.5 390.92,-80 390.92,-87"/>
</a>
</g>
</g>
<!-- Node14 -->
<g id="Node000014" class="node">
<title>Node14</title>
<g id="a_Node000014"><a xlink:href="../../df/d52/classArcane_1_1SpanImpl.html#ad324bebcf918e08f8f21d85a3e57a8e6" target="_top" xlink:title="Retourne la taille du tableau.">
<polygon fill="white" stroke="#666666" points="530,-56 402,-56 402,-37 530,-37 530,-56"/>
<text text-anchor="middle" x="466" y="-44" font-family="Helvetica,sans-Serif" font-size="10.00">Arcane::SpanImpl::size</text>
</a>
</g>
</g>
<!-- Node11&#45;&gt;Node14 -->
<g id="edge14_Node000011_Node000014" class="edge">
<title>Node11&#45;&gt;Node14</title>
<g id="a_edge14_Node000011_Node000014"><a xlink:title=" ">
<path fill="none" stroke="#63b8ff" d="M329.87,-73.97C353.66,-69.14 382.76,-63.22 407.85,-58.12"/>
<polygon fill="#63b8ff" stroke="#63b8ff" points="408.87,-61.48 417.97,-56.06 407.48,-54.62 408.87,-61.48"/>
</a>
</g>
</g>
<!-- Node15 -->
<g id="Node000015" class="node">
<title>Node15</title>
<g id="a_Node000015"><a xlink:href="../../db/dc4/classArcane_1_1String.html#a75a6754b2e2646d71b85095bb3321c1d" target="_top" xlink:title="Crée une chaîne nulle.">
<polygon fill="white" stroke="#666666" points="525.5,-19 406.5,-19 406.5,0 525.5,0 525.5,-19"/>
<text text-anchor="middle" x="466" y="-7" font-family="Helvetica,sans-Serif" font-size="10.00">Arcane::String::String</text>
</a>
</g>
</g>
<!-- Node11&#45;&gt;Node15 -->
<g id="edge15_Node000011_Node000015" class="edge">
<title>Node11&#45;&gt;Node15</title>
<g id="a_edge15_Node000011_Node000015"><a xlink:title=" ">
<path fill="none" stroke="#63b8ff" d="M300.42,-73.97C322.91,-61.93 363.52,-41.16 400,-27.5 405.21,-25.55 410.72,-23.7 416.25,-21.99"/>
<polygon fill="#63b8ff" stroke="#63b8ff" points="417.55,-25.25 426.15,-19.05 415.56,-18.54 417.55,-25.25"/>
</a>
</g>
</g>
</g>
</svg>
