<?xml version="1.0" encoding="UTF-8" standalone="no"?>
<!DOCTYPE svg PUBLIC "-//W3C//DTD SVG 1.1//EN"
 "http://www.w3.org/Graphics/SVG/1.1/DTD/svg11.dtd">
<!-- Generated by graphviz version 2.43.0 (0)
 -->
<!-- Title: Arcane::VtkLegacyMeshWriter::_writeMeshToFile Pages: 1 -->
<!--zoomable 312 -->

<svg id="main" version="1.1" xmlns="http://www.w3.org/2000/svg" xmlns:xlink="http://www.w3.org/1999/xlink" xml:space="preserve" onload="init(evt)">

<style type="text/css"><![CDATA[
.node, .edge {opacity: 0.7;}
.node.selected, .edge.selected {opacity: 1;}
.edge:hover path { stroke: red; }
.edge:hover polygon { stroke: red; fill: red; }
]]></style>

<defs>
  <circle id="rim" cx="0" cy="0" r="7"/>
  <circle id="rim2" cx="0" cy="0" r="3.5"/>
  <g id="zoomPlus">
    <use xlink:href="#rim" fill="#404040"><set attributeName="fill" to="#808080" begin="zoomplus.mouseover" end="zoomplus.mouseout"/></use>
    <path d="M-4,0h8M0,-4v8" fill="none" stroke="white" stroke-width="1.5" pointer-events="none"/>
  </g>
  <g id="zoomMin">
    <use xlink:href="#rim" fill="#404040"><set attributeName="fill" to="#808080" begin="zoomminus.mouseover" end="zoomminus.mouseout"/></use>
    <path d="M-4,0h8" fill="none" stroke="white" stroke-width="1.5" pointer-events="none"/>
  </g>
  <g id="arrowUp" transform="translate(30 24)">
    <use xlink:href="#rim"/>
    <path pointer-events="none" fill="none" stroke="white" stroke-width="1.5" d="M0,-3.0v7 M-2.5,-0.5L0,-3.0L2.5,-0.5"/>
  </g>
  <g id="arrowRight" transform="rotate(90) translate(36 -43)">
    <use xlink:href="#rim"/>
    <path pointer-events="none" fill="none" stroke="white" stroke-width="1.5" d="M0,-3.0v7 M-2.5,-0.5L0,-3.0L2.5,-0.5"/>
  </g>
  <g id="arrowDown" transform="rotate(180) translate(-30 -48)">
    <use xlink:href="#rim"/>
    <path pointer-events="none" fill="none" stroke="white" stroke-width="1.5" d="M0,-3.0v7 M-2.5,-0.5L0,-3.0L2.5,-0.5"/>
  </g>
  <g id="arrowLeft" transform="rotate(270) translate(-36 17)">
    <use xlink:href="#rim"/>
    <path pointer-events="none" fill="none" stroke="white" stroke-width="1.5" d="M0,-3.0v7 M-2.5,-0.5L0,-3.0L2.5,-0.5"/>
  </g>
  <g id="resetDef">
    <use xlink:href="#rim2" fill="#404040"><set attributeName="fill" to="#808080" begin="reset.mouseover" end="reset.mouseout"/></use>
  </g>
</defs>
<script type="application/ecmascript">
var viewWidth = 504;
var viewHeight = 312;
var sectionId = 'dynsection-2';
</script>
<script type="application/ecmascript" xlink:href="../../svg.min.js"/>
<svg id="graph" class="graph">
<g id="viewport">
<title>Arcane::VtkLegacyMeshWriter::_writeMeshToFile</title>
<!-- Node1 -->
<g id="Node000001" class="node">
<title>Node1</title>
<g id="a_Node000001"><a xlink:title="Ecrit le maillage au format Vtk.">
<polygon fill="#999999" stroke="#666666" points="164,-169 0,-169 0,-139 164,-139 164,-169"/>
<text text-anchor="start" x="8" y="-157" font-family="Helvetica,sans-Serif" font-size="10.00">Arcane::VtkLegacyMeshWriter</text>
<text text-anchor="middle" x="82" y="-146" font-family="Helvetica,sans-Serif" font-size="10.00">::_writeMeshToFile</text>
</a>
</g>
</g>
<!-- Node2 -->
<g id="Node000002" class="node">
<title>Node2</title>
<g id="a_Node000002"><a xlink:href="../../dd/d0a/classArcane_1_1IItemFamily.html#a3d3659197cb052e60fb2fc573046830b" target="_top" xlink:title="Groupe de toutes les entités.">
<polygon fill="white" stroke="#666666" points="323,-286 209,-286 209,-256 323,-256 323,-286"/>
<text text-anchor="start" x="217" y="-274" font-family="Helvetica,sans-Serif" font-size="10.00">Arcane::IItemFamily</text>
<text text-anchor="middle" x="266" y="-263" font-family="Helvetica,sans-Serif" font-size="10.00">::allItems</text>
</a>
</g>
</g>
<!-- Node1&#45;&gt;Node2 -->
<g id="edge1_Node000001_Node000002" class="edge">
<title>Node1&#45;&gt;Node2</title>
<g id="a_edge1_Node000001_Node000002"><a xlink:title=" ">
<path fill="none" stroke="#63b8ff" d="M98.48,-169.01C119.83,-189.04 160.2,-224.6 200,-247 203.03,-248.7 206.2,-250.33 209.44,-251.87"/>
<polygon fill="#63b8ff" stroke="#63b8ff" points="208.16,-255.13 218.72,-255.99 211,-248.73 208.16,-255.13"/>
</a>
</g>
</g>
<!-- Node3 -->
<g id="Node000003" class="node">
<title>Node3</title>
<g id="a_Node000003"><a xlink:href="../../d1/dfb/classArcane_1_1Array.html#a0d76a9d28e8c370b17f40851863d6ee3" target="_top" xlink:title="Remplissage du tableau.">
<polygon fill="white" stroke="#666666" points="316,-237.5 216,-237.5 216,-218.5 316,-218.5 316,-237.5"/>
<text text-anchor="middle" x="266" y="-225.5" font-family="Helvetica,sans-Serif" font-size="10.00">Arcane::Array::fill</text>
</a>
</g>
</g>
<!-- Node1&#45;&gt;Node3 -->
<g id="edge3_Node000001_Node000003" class="edge">
<title>Node1&#45;&gt;Node3</title>
<g id="a_edge3_Node000001_Node000003"><a xlink:title=" ">
<path fill="none" stroke="#63b8ff" d="M110.76,-169C134.1,-181.19 168.58,-198.23 200,-210 205.21,-211.95 210.72,-213.8 216.25,-215.51"/>
<polygon fill="#63b8ff" stroke="#63b8ff" points="215.56,-218.96 226.15,-218.45 217.55,-212.25 215.56,-218.96"/>
</a>
</g>
</g>
<!-- Node4 -->
<g id="Node000004" class="node">
<title>Node4</title>
<g id="a_Node000004"><a xlink:href="../../df/d5f/classArcane_1_1Item.html#a337f519e8727634e55ea621f4734ec04" target="_top" xlink:title="Identifiant local de l&#39;entité dans le sous&#45;domaine du processeur.">
<polygon fill="white" stroke="#666666" points="324.5,-200.5 207.5,-200.5 207.5,-181.5 324.5,-181.5 324.5,-200.5"/>
<text text-anchor="middle" x="266" y="-188.5" font-family="Helvetica,sans-Serif" font-size="10.00">Arcane::Item::localId</text>
</a>
</g>
</g>
<!-- Node1&#45;&gt;Node4 -->
<g id="edge4_Node000001_Node000004" class="edge">
<title>Node1&#45;&gt;Node4</title>
<g id="a_edge4_Node000001_Node000004"><a xlink:title=" ">
<path fill="none" stroke="#63b8ff" d="M157.03,-169.05C174.14,-172.53 192.09,-176.18 208.32,-179.48"/>
<polygon fill="#63b8ff" stroke="#63b8ff" points="207.69,-182.92 218.19,-181.48 209.09,-176.06 207.69,-182.92"/>
</a>
</g>
</g>
<!-- Node5 -->
<g id="Node000005" class="node">
<title>Node5</title>
<g id="a_Node000005"><a xlink:href="../../db/dc4/classArcane_1_1String.html#a3e077c33daf6f96bc96747fccd1edde0" target="_top" xlink:title="Retourne la conversion de l&#39;instance dans l&#39;encodage UTF&#45;8.">
<polygon fill="white" stroke="#666666" points="329.5,-163.5 202.5,-163.5 202.5,-144.5 329.5,-144.5 329.5,-163.5"/>
<text text-anchor="middle" x="266" y="-151.5" font-family="Helvetica,sans-Serif" font-size="10.00">Arcane::String::localstr</text>
</a>
</g>
</g>
<!-- Node1&#45;&gt;Node5 -->
<g id="edge5_Node000001_Node000005" class="edge">
<title>Node1&#45;&gt;Node5</title>
<g id="a_edge5_Node000001_Node000005"><a xlink:title=" ">
<path fill="none" stroke="#63b8ff" d="M164.15,-154C173.45,-154 182.89,-154 192.07,-154"/>
<polygon fill="#63b8ff" stroke="#63b8ff" points="192.3,-157.5 202.3,-154 192.3,-150.5 192.3,-157.5"/>
</a>
</g>
</g>
<!-- Node6 -->
<g id="Node000006" class="node">
<title>Node6</title>
<g id="a_Node000006"><a xlink:href="../../dd/d0a/classArcane_1_1IItemFamily.html#adc9dbaecb401f9448826b4c0f8624e40" target="_top" xlink:title="Nombre d&#39;entités.">
<polygon fill="white" stroke="#666666" points="323,-126 209,-126 209,-96 323,-96 323,-126"/>
<text text-anchor="start" x="217" y="-114" font-family="Helvetica,sans-Serif" font-size="10.00">Arcane::IItemFamily</text>
<text text-anchor="middle" x="266" y="-103" font-family="Helvetica,sans-Serif" font-size="10.00">::nbItem</text>
</a>
</g>
</g>
<!-- Node1&#45;&gt;Node6 -->
<g id="edge6_Node000001_Node000006" class="edge">
<title>Node1&#45;&gt;Node6</title>
<g id="a_edge6_Node000001_Node000006"><a xlink:title=" ">
<path fill="none" stroke="#63b8ff" d="M146.65,-138.96C163.62,-134.95 181.99,-130.61 199.07,-126.58"/>
<polygon fill="#63b8ff" stroke="#63b8ff" points="200.04,-129.95 208.96,-124.24 198.43,-123.13 200.04,-129.95"/>
</a>
</g>
</g>
<!-- Node7 -->
<g id="Node000007" class="node">
<title>Node7</title>
<g id="a_Node000007"><a xlink:href="../../d4/d55/classArcane_1_1ItemWithNodes.html#ae1c7e80b8f5f0bf7374bee7371e659c5" target="_top" xlink:title="Nombre de noeuds de l&#39;entité">
<polygon fill="white" stroke="#666666" points="332,-78 200,-78 200,-48 332,-48 332,-78"/>
<text text-anchor="start" x="208" y="-66" font-family="Helvetica,sans-Serif" font-size="10.00">Arcane::ItemWithNodes</text>
<text text-anchor="middle" x="266" y="-55" font-family="Helvetica,sans-Serif" font-size="10.00">::nbNode</text>
</a>
</g>
</g>
<!-- Node1&#45;&gt;Node7 -->
<g id="edge7_Node000001_Node000007" class="edge">
<title>Node1&#45;&gt;Node7</title>
<g id="a_edge7_Node000001_Node000007"><a xlink:title=" ">
<path fill="none" stroke="#63b8ff" d="M106.58,-138.94C129.78,-124.5 166.49,-102.65 200,-87 203.8,-85.22 207.77,-83.49 211.8,-81.81"/>
<polygon fill="#63b8ff" stroke="#63b8ff" points="213.26,-85 221.23,-78.02 210.65,-78.5 213.26,-85"/>
</a>
</g>
</g>
<!-- Node9 -->
<g id="Node000009" class="node">
<title>Node9</title>
<g id="a_Node000009"><a xlink:href="../../d4/d55/classArcane_1_1ItemWithNodes.html#ac6be927b92f077cf8b023d3b8cc8c2e8" target="_top" xlink:title="Liste des noeuds de l&#39;entité">
<polygon fill="white" stroke="#666666" points="332,-30 200,-30 200,0 332,0 332,-30"/>
<text text-anchor="start" x="208" y="-18" font-family="Helvetica,sans-Serif" font-size="10.00">Arcane::ItemWithNodes</text>
<text text-anchor="middle" x="266" y="-7" font-family="Helvetica,sans-Serif" font-size="10.00">::nodes</text>
</a>
</g>
</g>
<!-- Node1&#45;&gt;Node9 -->
<g id="edge9_Node000001_Node000009" class="edge">
<title>Node1&#45;&gt;Node9</title>
<g id="a_edge9_Node000001_Node000009"><a xlink:title=" ">
<path fill="none" stroke="#63b8ff" d="M94.74,-138.88C114.22,-114.71 155.5,-67.22 200,-39 202.56,-37.38 205.24,-35.84 208,-34.39"/>
<polygon fill="#63b8ff" stroke="#63b8ff" points="209.53,-37.54 217.02,-30.05 206.49,-31.23 209.53,-37.54"/>
</a>
</g>
</g>
<!-- Node2&#45;&gt;Node2 -->
<g id="edge2_Node000002_Node000002" class="edge">
<title>Node2&#45;&gt;Node2</title>
<g id="a_edge2_Node000002_Node000002"><a xlink:title=" ">
<path fill="none" stroke="#63b8ff" d="M236.82,-286.28C230.34,-295.41 240.06,-304 266,-304 281.4,-304 291.09,-300.97 295.06,-296.6"/>
<polygon fill="#63b8ff" stroke="#63b8ff" points="298.56,-296.32 295.18,-286.28 291.56,-296.23 298.56,-296.32"/>
</a>
</g>
</g>
<!-- Node8 -->
<g id="Node000008" class="node">
<title>Node8</title>
<g id="a_Node000008"><a xlink:href="../../df/d5f/classArcane_1_1Item.html#aa0e31afc10a3550e4808250e09ebae01" target="_top" xlink:title="Nombre de noeuds de l&#39;entité">
<polygon fill="white" stroke="#666666" points="496,-72.5 368,-72.5 368,-53.5 496,-53.5 496,-72.5"/>
<text text-anchor="middle" x="432" y="-60.5" font-family="Helvetica,sans-Serif" font-size="10.00">Arcane::Item::_nbNode</text>
</a>
</g>
</g>
<!-- Node7&#45;&gt;Node8 -->
<g id="edge8_Node000007_Node000008" class="edge">
<title>Node7&#45;&gt;Node8</title>
<g id="a_edge8_Node000007_Node000008"><a xlink:title=" ">
<path fill="none" stroke="#63b8ff" d="M332.29,-63C340.61,-63 349.17,-63 357.6,-63"/>
<polygon fill="#63b8ff" stroke="#63b8ff" points="357.81,-66.5 367.81,-63 357.81,-59.5 357.81,-66.5"/>
</a>
</g>
</g>
</g>
</svg>

<g id="navigator" transform="translate(0 0)" fill="#404254">
  <rect fill="#f2f5e9" fill-opacity="0.5" stroke="#606060" stroke-width=".5" x="0" y="0" width="60" height="60"/>
  <use id="zoomplus" xlink:href="#zoomPlus" x="17" y="9" onmousedown="handleZoom(evt,'in')"/>
  <use id="zoomminus" xlink:href="#zoomMin" x="42" y="9" onmousedown="handleZoom(evt,'out')"/>
  <use id="reset" xlink:href="#resetDef" x="30" y="36" onmousedown="handleReset()"/>
   <use id="arrowup" xlink:href="#arrowUp" x="0" y="0" onmousedown="handlePan(0,-1)"/>
  <use id="arrowright" xlink:href="#arrowRight" x="0" y="0" onmousedown="handlePan(1,0)"/>
  <use id="arrowdown" xlink:href="#arrowDown" x="0" y="0" onmousedown="handlePan(0,1)"/>
  <use id="arrowleft" xlink:href="#arrowLeft" x="0" y="0" onmousedown="handlePan(-1,0)"/>
</g>
<svg viewBox="0 0 15 15" width="100%" height="30px" preserveAspectRatio="xMaxYMin meet">
 <g id="arrow_out" transform="scale(0.3 0.3)">
  <a xlink:href="classArcane_1_1VtkLegacyMeshWriter_a95360dec3d446312cefb8a9e479b71d4_cgraph_org.svg" target="_base">
   <rect id="button" ry="5" rx="5" y="6" x="6" height="38" width="38"
        fill="#f2f5e9" fill-opacity="0.5" stroke="#606060" stroke-width="1.0"/>
   <path id="arrow"
     d="M 11.500037,31.436501 C 11.940474,20.09759 22.043105,11.32322 32.158766,21.979434 L 37.068811,17.246167 C 37.068811,17.246167 37.088388,32 37.088388,32 L 22.160133,31.978069 C 22.160133,31.978069 26.997745,27.140456 26.997745,27.140456 C 18.528582,18.264221 13.291696,25.230495 11.500037,31.436501 z"
     style="fill:#404040;"/>
  </a>
 </g>
</svg>

<style type='text/css'>
<![CDATA[
[data-mouse-over-selected='false'] { opacity: 0.7; }
[data-mouse-over-selected='true']  { opacity: 1.0; }
]]>
</style>
<script type="application/ecmascript"><![CDATA[
document.addEventListener('DOMContentLoaded', (event) => {
  highlightEdges();
  highlightAdjacentNodes();
});
]]></script>
</svg>
