<?xml version="1.0" encoding="UTF-8" standalone="no"?>
<!DOCTYPE svg PUBLIC "-//W3C//DTD SVG 1.1//EN"
 "http://www.w3.org/Graphics/SVG/1.1/DTD/svg11.dtd">
<!-- Generated by graphviz version 2.43.0 (0)
 -->
<!-- Title: Arcane::Accelerator::WorkGroupLoopContextBase&lt; IndexType_ &gt; Pages: 1 -->
<svg width="324pt" height="358pt"
 viewBox="0.00 0.00 324.00 358.00" xmlns="http://www.w3.org/2000/svg" xmlns:xlink="http://www.w3.org/1999/xlink">

<svg id="main" version="1.1" xmlns="http://www.w3.org/2000/svg" xmlns:xlink="http://www.w3.org/1999/xlink" xml:space="preserve">

<style type="text/css"><![CDATA[
.node, .edge {opacity: 0.7;}
.node.selected, .edge.selected {opacity: 1;}
.edge:hover path { stroke: red; }
.edge:hover polygon { stroke: red; fill: red; }
]]></style>
<script type="application/ecmascript" xlink:href="../../svg.min.js"/>
<svg id="graph" class="graph">
<g id="graph0" class="graph" transform="scale(1 1) rotate(0) translate(4 354)">
<title>Arcane::Accelerator::WorkGroupLoopContextBase&lt; IndexType_ &gt;</title>
<!-- Node1 -->
<g id="Node000001" class="node">
<title>Node1</title>
<g id="a_Node000001"><a xlink:title="Classe de base pour WorkGroupLoopContext et CooperativeWorkGroupLoopContext.">
<polygon fill="#999999" stroke="transparent" points="246.5,-350 77.5,-350 77.5,-174 246.5,-174 246.5,-350"/>
<text text-anchor="start" x="89.5" y="-338" font-family="Helvetica,sans-Serif" font-size="10.00">Arcane::Accelerator</text>
<text text-anchor="start" x="89.5" y="-327" font-family="Helvetica,sans-Serif" font-size="10.00">::WorkGroupLoopContextBase</text>
<text text-anchor="start" x="123.5" y="-316" font-family="Helvetica,sans-Serif" font-size="10.00">&lt; IndexType_ &gt;</text>
<text text-anchor="start" x="82" y="-301" font-family="Helvetica,sans-Serif" font-size="10.00">#</text>
<text text-anchor="start" x="95" y="-301" font-family="Helvetica,sans-Serif" font-size="10.00">m_loop_index</text>
<text text-anchor="start" x="82" y="-286" font-family="Helvetica,sans-Serif" font-size="10.00">#</text>
<text text-anchor="start" x="95" y="-286" font-family="Helvetica,sans-Serif" font-size="10.00">m_total_size</text>
<text text-anchor="start" x="82" y="-271" font-family="Helvetica,sans-Serif" font-size="10.00">#</text>
<text text-anchor="start" x="95" y="-271" font-family="Helvetica,sans-Serif" font-size="10.00">m_group_index</text>
<text text-anchor="start" x="82" y="-256" font-family="Helvetica,sans-Serif" font-size="10.00">#</text>
<text text-anchor="start" x="95" y="-256" font-family="Helvetica,sans-Serif" font-size="10.00">m_group_size</text>
<text text-anchor="start" x="82" y="-241" font-family="Helvetica,sans-Serif" font-size="10.00">#</text>
<text text-anchor="start" x="95" y="-241" font-family="Helvetica,sans-Serif" font-size="10.00">m_nb_active_item</text>
<text text-anchor="start" x="82" y="-226" font-family="Helvetica,sans-Serif" font-size="10.00">+</text>
<text text-anchor="start" x="95" y="-226" font-family="Helvetica,sans-Serif" font-size="10.00">block()</text>
<text text-anchor="start" x="82" y="-211" font-family="Helvetica,sans-Serif" font-size="10.00">+</text>
<text text-anchor="start" x="95" y="-211" font-family="Helvetica,sans-Serif" font-size="10.00">workItem()</text>
<text text-anchor="start" x="82" y="-196" font-family="Helvetica,sans-Serif" font-size="10.00">#</text>
<text text-anchor="start" x="95" y="-196" font-family="Helvetica,sans-Serif" font-size="10.00">WorkGroupLoopContextBase()</text>
<text text-anchor="start" x="82" y="-181" font-family="Helvetica,sans-Serif" font-size="10.00">#</text>
<text text-anchor="start" x="95" y="-181" font-family="Helvetica,sans-Serif" font-size="10.00">WorkGroupLoopContextBase()</text>
<polygon fill="#666666" stroke="#666666" points="78,-311 78,-311 247,-311 247,-311 78,-311"/>
<polygon fill="#666666" stroke="#666666" points="78,-236 78,-236 93,-236 93,-236 78,-236"/>
<polygon fill="#666666" stroke="#666666" points="93,-236 93,-236 247,-236 247,-236 93,-236"/>
<polygon fill="none" stroke="#666666" points="77.5,-174 77.5,-350 246.5,-350 246.5,-174 77.5,-174"/>
</a>
</g>
</g>
<!-- Node2 -->
<g id="Node000002" class="node">
<title>Node2</title>
<g id="a_Node000002"><a xlink:href="../../d5/da6/classArcane_1_1Accelerator_1_1CooperativeWorkGroupLoopContext.html" target="_top" xlink:title="Contexte d&#39;exécution d&#39;une commande sur un ensemble de blocs.">
<polygon fill="white" stroke="transparent" points="158,-138 0,-138 0,0 158,0 158,-138"/>
<text text-anchor="start" x="7.5" y="-126" font-family="Helvetica,sans-Serif" font-size="10.00">Arcane::Accelerator</text>
<text text-anchor="start" x="7.5" y="-115" font-family="Helvetica,sans-Serif" font-size="10.00">::CooperativeWorkGroupLoop</text>
<text text-anchor="start" x="21" y="-104" font-family="Helvetica,sans-Serif" font-size="10.00">Context&lt; IndexType_ &gt;</text>
<text text-anchor="start" x="6.5" y="-89" font-family="Helvetica,sans-Serif" font-size="10.00">&#45;</text>
<text text-anchor="start" x="17" y="-89" font-family="Helvetica,sans-Serif" font-size="10.00">m_nb_block</text>
<text text-anchor="start" x="6.5" y="-74" font-family="Helvetica,sans-Serif" font-size="10.00">&#45;</text>
<text text-anchor="start" x="17" y="-74" font-family="Helvetica,sans-Serif" font-size="10.00">m_syncer</text>
<text text-anchor="start" x="4" y="-59" font-family="Helvetica,sans-Serif" font-size="10.00">+</text>
<text text-anchor="start" x="17" y="-59" font-family="Helvetica,sans-Serif" font-size="10.00">grid()</text>
<text text-anchor="start" x="6.5" y="-44" font-family="Helvetica,sans-Serif" font-size="10.00">&#45;</text>
<text text-anchor="start" x="17" y="-44" font-family="Helvetica,sans-Serif" font-size="10.00">CooperativeWorkGroupLoop</text>
<text text-anchor="start" x="17" y="-33" font-family="Helvetica,sans-Serif" font-size="10.00">Context()</text>
<text text-anchor="start" x="6.5" y="-18" font-family="Helvetica,sans-Serif" font-size="10.00">&#45;</text>
<text text-anchor="start" x="17" y="-18" font-family="Helvetica,sans-Serif" font-size="10.00">CooperativeWorkGroupLoop</text>
<text text-anchor="start" x="17" y="-7" font-family="Helvetica,sans-Serif" font-size="10.00">Context()</text>
<polygon fill="#666666" stroke="#666666" points="0,-99 0,-99 158,-99 158,-99 0,-99"/>
<polygon fill="#666666" stroke="#666666" points="0,-69 0,-69 15,-69 15,-69 0,-69"/>
<polygon fill="#666666" stroke="#666666" points="15,-69 15,-69 158,-69 158,-69 15,-69"/>
<polygon fill="none" stroke="#666666" points="0,0 0,-138 158,-138 158,0 0,0"/>
</a>
</g>
</g>
<!-- Node1&#45;&gt;Node2 -->
<g id="edge1_Node000001_Node000002" class="edge">
<title>Node1&#45;&gt;Node2</title>
<g id="a_edge1_Node000001_Node000002"><a xlink:title=" ">
<path fill="none" stroke="#63b8ff" d="M120.1,-164.58C116.21,-155.64 112.33,-146.71 108.6,-138.11"/>
<polygon fill="none" stroke="#63b8ff" points="116.95,-166.11 124.14,-173.88 123.37,-163.32 116.95,-166.11"/>
</a>
</g>
</g>
<!-- Node3 -->
<g id="Node000003" class="node">
<title>Node3</title>
<g id="a_Node000003"><a xlink:href="../../d3/dcb/classArcane_1_1Accelerator_1_1WorkGroupLoopContext.html" target="_top" xlink:title="Contexte d&#39;exécution d&#39;une commande sur un ensemble de blocs.">
<polygon fill="white" stroke="transparent" points="316,-112 176,-112 176,-26 316,-26 316,-112"/>
<text text-anchor="start" x="185" y="-100" font-family="Helvetica,sans-Serif" font-size="10.00">Arcane::Accelerator</text>
<text text-anchor="start" x="185" y="-89" font-family="Helvetica,sans-Serif" font-size="10.00">::WorkGroupLoopContext</text>
<text text-anchor="start" x="207" y="-78" font-family="Helvetica,sans-Serif" font-size="10.00">&lt; IndexType_ &gt;</text>
<text text-anchor="start" x="244" y="-63" font-family="Helvetica,sans-Serif" font-size="10.00"> </text>
<text text-anchor="start" x="180" y="-48" font-family="Helvetica,sans-Serif" font-size="10.00">&#45;</text>
<text text-anchor="start" x="188" y="-48" font-family="Helvetica,sans-Serif" font-size="10.00">WorkGroupLoopContext()</text>
<text text-anchor="start" x="180" y="-33" font-family="Helvetica,sans-Serif" font-size="10.00">&#45;</text>
<text text-anchor="start" x="188" y="-33" font-family="Helvetica,sans-Serif" font-size="10.00">WorkGroupLoopContext()</text>
<polygon fill="#666666" stroke="#666666" points="176,-73 176,-73 316,-73 316,-73 176,-73"/>
<polygon fill="#666666" stroke="#666666" points="176,-58 176,-58 316,-58 316,-58 176,-58"/>
<polygon fill="none" stroke="#666666" points="176,-26 176,-112 316,-112 316,-26 176,-26"/>
</a>
</g>
</g>
<!-- Node1&#45;&gt;Node3 -->
<g id="edge2_Node000001_Node000003" class="edge">
<title>Node1&#45;&gt;Node3</title>
<g id="a_edge2_Node000001_Node000003"><a xlink:title=" ">
<path fill="none" stroke="#63b8ff" d="M204.41,-164.56C212.51,-146.15 220.59,-127.79 227.44,-112.21"/>
<polygon fill="none" stroke="#63b8ff" points="201.13,-163.32 200.31,-173.88 207.54,-166.14 201.13,-163.32"/>
</a>
</g>
</g>
</g>
</svg>
</svg>

<style type='text/css'>
<![CDATA[
[data-mouse-over-selected='false'] { opacity: 0.7; }
[data-mouse-over-selected='true']  { opacity: 1.0; }
]]>
</style>
<script type="application/ecmascript"><![CDATA[
document.addEventListener('DOMContentLoaded', (event) => {
  highlightEdges();
  highlightAdjacentNodes();
});
]]></script>
</svg>
