<?xml version="1.0" encoding="UTF-8" standalone="no"?>
<!DOCTYPE svg PUBLIC "-//W3C//DTD SVG 1.1//EN"
 "http://www.w3.org/Graphics/SVG/1.1/DTD/svg11.dtd">
<!-- Generated by graphviz version 2.43.0 (0)
 -->
<!-- Title: Arcane::AlephKernel::setup Pages: 1 -->
<svg width="726pt" height="161pt"
 viewBox="0.00 0.00 726.00 161.00" xmlns="http://www.w3.org/2000/svg" xmlns:xlink="http://www.w3.org/1999/xlink">
<g id="graph0" class="graph" transform="scale(1 1) rotate(0) translate(4 157)">
<title>Arcane::AlephKernel::setup</title>
<!-- Node1 -->
<g id="Node000001" class="node">
<title>Node1</title>
<g id="a_Node000001"><a xlink:title=" ">
<polygon fill="#999999" stroke="#666666" points="115,-115.5 0,-115.5 0,-85.5 115,-85.5 115,-115.5"/>
<text text-anchor="start" x="8" y="-103.5" font-family="Helvetica,sans-Serif" font-size="10.00">Arcane::AlephKernel</text>
<text text-anchor="middle" x="57.5" y="-92.5" font-family="Helvetica,sans-Serif" font-size="10.00">::setup</text>
</a>
</g>
</g>
<!-- Node2 -->
<g id="Node000002" class="node">
<title>Node2</title>
<g id="a_Node000002"><a xlink:href="../../d1/dfb/classArcane_1_1Array.html#afb30a771d3fd8022c7220afe7b78e60b" target="_top" xlink:title="Ajoute l&#39;élément val à la fin du tableau.">
<polygon fill="white" stroke="#666666" points="266.5,-153 160.5,-153 160.5,-134 266.5,-134 266.5,-153"/>
<text text-anchor="middle" x="213.5" y="-141" font-family="Helvetica,sans-Serif" font-size="10.00">Arcane::Array::add</text>
</a>
</g>
</g>
<!-- Node1&#45;&gt;Node2 -->
<g id="edge1_Node000001_Node000002" class="edge">
<title>Node1&#45;&gt;Node2</title>
<g id="a_edge1_Node000001_Node000002"><a xlink:title=" ">
<path fill="none" stroke="#63b8ff" d="M112.36,-115.54C130.63,-120.64 150.82,-126.28 168.26,-131.15"/>
<polygon fill="#63b8ff" stroke="#63b8ff" points="167.59,-134.6 178.17,-133.91 169.48,-127.85 167.59,-134.6"/>
</a>
</g>
</g>
<!-- Node3 -->
<g id="Node000003" class="node">
<title>Node3</title>
<g id="a_Node000003"><a xlink:href="../../df/d0f/classArcane_1_1AlephKernel.html#a1004b989571b452c57c4e20ac199ef4f" target="_top" xlink:title=" ">
<polygon fill="white" stroke="#666666" points="271,-115.5 156,-115.5 156,-85.5 271,-85.5 271,-115.5"/>
<text text-anchor="start" x="164" y="-103.5" font-family="Helvetica,sans-Serif" font-size="10.00">Arcane::AlephKernel</text>
<text text-anchor="middle" x="213.5" y="-92.5" font-family="Helvetica,sans-Serif" font-size="10.00">::AlephKernel</text>
</a>
</g>
</g>
<!-- Node1&#45;&gt;Node3 -->
<g id="edge2_Node000001_Node000003" class="edge">
<title>Node1&#45;&gt;Node3</title>
<g id="a_edge2_Node000001_Node000003"><a xlink:title=" ">
<path fill="none" stroke="#63b8ff" d="M115.41,-93.96C125.3,-93.75 135.67,-93.7 145.8,-93.8"/>
<polygon fill="#63b8ff" stroke="#63b8ff" points="145.77,-97.3 155.83,-93.96 145.88,-90.3 145.77,-97.3"/>
</a>
</g>
</g>
<!-- Node8 -->
<g id="Node000008" class="node">
<title>Node8</title>
<g id="a_Node000008"><a xlink:href="../../d1/d17/classArcane_1_1TraceAccessor.html#a24ff2b7ec9158ea6c25512a00b7db890" target="_top" xlink:title="Flot pour un message de debug.">
<polygon fill="white" stroke="#666666" points="276,-67.5 151,-67.5 151,-37.5 276,-37.5 276,-67.5"/>
<text text-anchor="start" x="159" y="-55.5" font-family="Helvetica,sans-Serif" font-size="10.00">Arcane::TraceAccessor</text>
<text text-anchor="middle" x="213.5" y="-44.5" font-family="Helvetica,sans-Serif" font-size="10.00">::debug</text>
</a>
</g>
</g>
<!-- Node1&#45;&gt;Node8 -->
<g id="edge8_Node000001_Node000008" class="edge">
<title>Node1&#45;&gt;Node8</title>
<g id="a_edge8_Node000001_Node000008"><a xlink:title=" ">
<path fill="none" stroke="#63b8ff" d="M106.8,-85.44C122,-80.71 138.93,-75.43 154.71,-70.51"/>
<polygon fill="#63b8ff" stroke="#63b8ff" points="155.86,-73.82 164.37,-67.5 153.78,-67.14 155.86,-73.82"/>
</a>
</g>
</g>
<!-- Node9 -->
<g id="Node000009" class="node">
<title>Node9</title>
<g id="a_Node000009"><a xlink:href="../../d1/dfb/classArcane_1_1Array.html#aa7bc38bbb35d707fe98ccf8ddd2ae222" target="_top" xlink:title="Vue mutable sur ce tableau.">
<polygon fill="white" stroke="#666666" points="269,-19 158,-19 158,0 269,0 269,-19"/>
<text text-anchor="middle" x="213.5" y="-7" font-family="Helvetica,sans-Serif" font-size="10.00">Arcane::Array::view</text>
</a>
</g>
</g>
<!-- Node1&#45;&gt;Node9 -->
<g id="edge9_Node000001_Node000009" class="edge">
<title>Node1&#45;&gt;Node9</title>
<g id="a_edge9_Node000001_Node000009"><a xlink:title=" ">
<path fill="none" stroke="#63b8ff" d="M74.29,-85.26C91.77,-69.14 121.4,-43.93 151,-28.5 155.24,-26.29 159.77,-24.29 164.39,-22.49"/>
<polygon fill="#63b8ff" stroke="#63b8ff" points="165.69,-25.74 173.92,-19.07 163.32,-19.16 165.69,-25.74"/>
</a>
</g>
</g>
<!-- Node3&#45;&gt;Node1 -->
<g id="edge3_Node000003_Node000001" class="edge">
<title>Node3&#45;&gt;Node1</title>
<g id="a_edge3_Node000003_Node000001"><a xlink:title=" ">
<path fill="none" stroke="#63b8ff" d="M155.83,-107.04C145.94,-107.25 135.57,-107.3 125.43,-107.2"/>
<polygon fill="#63b8ff" stroke="#63b8ff" points="125.46,-103.7 115.41,-107.04 125.35,-110.7 125.46,-103.7"/>
</a>
</g>
</g>
<!-- Node4 -->
<g id="Node000004" class="node">
<title>Node4</title>
<g id="a_Node000004"><a xlink:href="../../d1/d17/classArcane_1_1TraceAccessor.html#a0dc4fb7fbd81b8c791b0f7ebb606282d" target="_top" xlink:title="Construit un accesseur via le gestionnaire de trace m.">
<polygon fill="white" stroke="#666666" points="437,-139.5 312,-139.5 312,-109.5 437,-109.5 437,-139.5"/>
<text text-anchor="start" x="320" y="-127.5" font-family="Helvetica,sans-Serif" font-size="10.00">Arcane::TraceAccessor</text>
<text text-anchor="middle" x="374.5" y="-116.5" font-family="Helvetica,sans-Serif" font-size="10.00">::TraceAccessor</text>
</a>
</g>
</g>
<!-- Node3&#45;&gt;Node4 -->
<g id="edge4_Node000003_Node000004" class="edge">
<title>Node3&#45;&gt;Node4</title>
<g id="a_edge4_Node000003_Node000004"><a xlink:title=" ">
<path fill="none" stroke="#63b8ff" d="M271.01,-109.03C280.91,-110.52 291.34,-112.1 301.6,-113.65"/>
<polygon fill="#63b8ff" stroke="#63b8ff" points="301.37,-117.15 311.78,-115.18 302.41,-110.23 301.37,-117.15"/>
</a>
</g>
</g>
<!-- Node7 -->
<g id="Node000007" class="node">
<title>Node7</title>
<g id="a_Node000007"><a xlink:href="../../d1/d17/classArcane_1_1TraceAccessor.html#ab0263636a823e11152e94c4cd094b706" target="_top" xlink:title="Gestionnaire de trace.">
<polygon fill="white" stroke="#666666" points="437,-91.5 312,-91.5 312,-61.5 437,-61.5 437,-91.5"/>
<text text-anchor="start" x="320" y="-79.5" font-family="Helvetica,sans-Serif" font-size="10.00">Arcane::TraceAccessor</text>
<text text-anchor="middle" x="374.5" y="-68.5" font-family="Helvetica,sans-Serif" font-size="10.00">::traceMng</text>
</a>
</g>
</g>
<!-- Node3&#45;&gt;Node7 -->
<g id="edge7_Node000003_Node000007" class="edge">
<title>Node3&#45;&gt;Node7</title>
<g id="a_edge7_Node000003_Node000007"><a xlink:title=" ">
<path fill="none" stroke="#63b8ff" d="M271.01,-91.97C280.91,-90.48 291.34,-88.9 301.6,-87.35"/>
<polygon fill="#63b8ff" stroke="#63b8ff" points="302.41,-90.77 311.78,-85.82 301.37,-83.85 302.41,-90.77"/>
</a>
</g>
</g>
<!-- Node5 -->
<g id="Node000005" class="node">
<title>Node5</title>
<g id="a_Node000005"><a xlink:href="../../d0/d32/namespaceArcane.html#ab92dc7635f8e1ceb84728b8c45dba2b1" target="_top" xlink:title="Créé une référence sur un pointeur.">
<polygon fill="white" stroke="#666666" points="573,-134 473,-134 473,-115 573,-115 573,-134"/>
<text text-anchor="middle" x="523" y="-122" font-family="Helvetica,sans-Serif" font-size="10.00">Arcane::makeRef</text>
</a>
</g>
</g>
<!-- Node4&#45;&gt;Node5 -->
<g id="edge5_Node000004_Node000005" class="edge">
<title>Node4&#45;&gt;Node5</title>
<g id="a_edge5_Node000004_Node000005"><a xlink:title=" ">
<path fill="none" stroke="#63b8ff" d="M437.2,-124.5C445.65,-124.5 454.32,-124.5 462.72,-124.5"/>
<polygon fill="#63b8ff" stroke="#63b8ff" points="462.82,-128 472.82,-124.5 462.82,-121 462.82,-128"/>
</a>
</g>
</g>
<!-- Node6 -->
<g id="Node000006" class="node">
<title>Node6</title>
<g id="a_Node000006"><a xlink:href="../../d6/da9/classArcane_1_1Ref.html#ab0cd388abdc8d216d1534c5b0ef9cf83" target="_top" xlink:title="Créé une référence à partir de l&#39;instance t.">
<polygon fill="white" stroke="#666666" points="718,-134 609,-134 609,-115 718,-115 718,-134"/>
<text text-anchor="middle" x="663.5" y="-122" font-family="Helvetica,sans-Serif" font-size="10.00">Arcane::Ref::create</text>
</a>
</g>
</g>
<!-- Node5&#45;&gt;Node6 -->
<g id="edge6_Node000005_Node000006" class="edge">
<title>Node5&#45;&gt;Node6</title>
<g id="a_edge6_Node000005_Node000006"><a xlink:title=" ">
<path fill="none" stroke="#63b8ff" d="M573.22,-124.5C581.4,-124.5 589.99,-124.5 598.47,-124.5"/>
<polygon fill="#63b8ff" stroke="#63b8ff" points="598.74,-128 608.74,-124.5 598.74,-121 598.74,-128"/>
</a>
</g>
</g>
</g>
</svg>
