<?xml version="1.0" encoding="UTF-8" standalone="no"?>
<!DOCTYPE svg PUBLIC "-//W3C//DTD SVG 1.1//EN"
 "http://www.w3.org/Graphics/SVG/1.1/DTD/svg11.dtd">
<!-- Generated by graphviz version 2.43.0 (0)
 -->
<!-- Title: Messages.h Pages: 1 -->
<svg width="1591pt" height="148pt"
 viewBox="0.00 0.00 1590.50 148.00" xmlns="http://www.w3.org/2000/svg" xmlns:xlink="http://www.w3.org/1999/xlink">
<g id="graph0" class="graph" transform="scale(1 1) rotate(0) translate(4 144)">
<title>Messages.h</title>
<!-- Node1 -->
<g id="Node000001" class="node">
<title>Node1</title>
<g id="a_Node000001"><a xlink:title="Liste des fonctions d&#39;échange de message.">
<polygon fill="#999999" stroke="#666666" points="789.5,-140 715.5,-140 715.5,-121 789.5,-121 789.5,-140"/>
<text text-anchor="middle" x="752.5" y="-128" font-family="Helvetica,sans-Serif" font-size="10.00">Messages.h</text>
</a>
</g>
</g>
<!-- Node2 -->
<g id="Node000002" class="node">
<title>Node2</title>
<g id="a_Node000002"><a xlink:href="../../df/d70/HybridParallelMng_8cc_source.html" target="_top" xlink:title=" ">
<polygon fill="white" stroke="#666666" points="119,-79.5 0,-79.5 0,-60.5 119,-60.5 119,-79.5"/>
<text text-anchor="middle" x="59.5" y="-67.5" font-family="Helvetica,sans-Serif" font-size="10.00">HybridParallelMng.cc</text>
</a>
</g>
</g>
<!-- Node1&#45;&gt;Node2 -->
<g id="edge1_Node000001_Node000002" class="edge">
<title>Node1&#45;&gt;Node2</title>
<g id="a_edge1_Node000001_Node000002"><a xlink:title=" ">
<path fill="none" stroke="#63b8ff" d="M705.19,-128.21C600.71,-124.9 342.56,-114.22 128.5,-85 118.21,-83.59 107.14,-81.58 96.95,-79.51"/>
<polygon fill="#63b8ff" stroke="#63b8ff" points="705.3,-131.71 715.4,-128.52 705.52,-124.72 705.3,-131.71"/>
</a>
</g>
</g>
<!-- Node3 -->
<g id="Node000003" class="node">
<title>Node3</title>
<g id="a_Node000003"><a xlink:href="../../d3/d2f/MeshMaterialVariableSynchronizerList_8cc_source.html" target="_top" xlink:title=" ">
<polygon fill="white" stroke="#666666" points="323.5,-85 137.5,-85 137.5,-55 323.5,-55 323.5,-85"/>
<text text-anchor="start" x="145.5" y="-73" font-family="Helvetica,sans-Serif" font-size="10.00">MeshMaterialVariableSynchronizer</text>
<text text-anchor="middle" x="230.5" y="-62" font-family="Helvetica,sans-Serif" font-size="10.00">List.cc</text>
</a>
</g>
</g>
<!-- Node1&#45;&gt;Node3 -->
<g id="edge2_Node000001_Node000003" class="edge">
<title>Node1&#45;&gt;Node3</title>
<g id="a_edge2_Node000001_Node000003"><a xlink:title=" ">
<path fill="none" stroke="#63b8ff" d="M705.3,-125.01C627.37,-117.5 466.95,-101.54 331.5,-85 328.95,-84.69 326.37,-84.37 323.76,-84.04"/>
<polygon fill="#63b8ff" stroke="#63b8ff" points="705,-128.5 715.28,-125.98 705.67,-121.53 705,-128.5"/>
</a>
</g>
</g>
<!-- Node4 -->
<g id="Node000004" class="node">
<title>Node4</title>
<g id="a_Node000004"><a xlink:href="../../da/d51/Messages_8cc_source.html" target="_top" xlink:title=" ">
<polygon fill="white" stroke="#666666" points="420,-79.5 341,-79.5 341,-60.5 420,-60.5 420,-79.5"/>
<text text-anchor="middle" x="380.5" y="-67.5" font-family="Helvetica,sans-Serif" font-size="10.00">Messages.cc</text>
</a>
</g>
</g>
<!-- Node1&#45;&gt;Node4 -->
<g id="edge3_Node000001_Node000004" class="edge">
<title>Node1&#45;&gt;Node4</title>
<g id="a_edge3_Node000001_Node000004"><a xlink:title=" ">
<path fill="none" stroke="#63b8ff" d="M705.17,-125.21C641.72,-118.95 525.81,-105.76 428.5,-85 421.54,-83.52 414.11,-81.55 407.23,-79.55"/>
<polygon fill="#63b8ff" stroke="#63b8ff" points="704.97,-128.7 715.26,-126.19 705.65,-121.74 704.97,-128.7"/>
</a>
</g>
</g>
<!-- Node5 -->
<g id="Node000005" class="node">
<title>Node5</title>
<g id="a_Node000005"><a xlink:href="../../d7/da7/MpiControlDispatcher_8cc_source.html" target="_top" xlink:title=" ">
<polygon fill="white" stroke="#666666" points="573,-79.5 438,-79.5 438,-60.5 573,-60.5 573,-79.5"/>
<text text-anchor="middle" x="505.5" y="-67.5" font-family="Helvetica,sans-Serif" font-size="10.00">MpiControlDispatcher.cc</text>
</a>
</g>
</g>
<!-- Node1&#45;&gt;Node5 -->
<g id="edge4_Node000001_Node000005" class="edge">
<title>Node1&#45;&gt;Node5</title>
<g id="a_edge4_Node000001_Node000005"><a xlink:title=" ">
<path fill="none" stroke="#63b8ff" d="M706.82,-118.68C659.09,-107.38 585.2,-89.88 541.46,-79.52"/>
<polygon fill="#63b8ff" stroke="#63b8ff" points="706.05,-122.09 716.58,-120.99 707.66,-115.28 706.05,-122.09"/>
</a>
</g>
</g>
<!-- Node6 -->
<g id="Node000006" class="node">
<title>Node6</title>
<g id="a_Node000006"><a xlink:href="../../da/d92/MpiParallelDispatch_8cc_source.html" target="_top" xlink:title=" ">
<polygon fill="white" stroke="#666666" points="705,-19 578,-19 578,0 705,0 705,-19"/>
<text text-anchor="middle" x="641.5" y="-7" font-family="Helvetica,sans-Serif" font-size="10.00">MpiParallelDispatch.cc</text>
</a>
</g>
</g>
<!-- Node1&#45;&gt;Node6 -->
<g id="edge5_Node000001_Node000006" class="edge">
<title>Node1&#45;&gt;Node6</title>
<g id="a_edge5_Node000001_Node000006"><a xlink:title=" ">
<path fill="none" stroke="#63b8ff" d="M705.31,-126.94C675.72,-122.6 639.68,-111.71 620.5,-85 605.76,-64.48 624,-33.92 634.72,-19.13"/>
<polygon fill="#63b8ff" stroke="#63b8ff" points="705.1,-130.44 715.46,-128.22 705.98,-123.5 705.1,-130.44"/>
</a>
</g>
</g>
<!-- Node7 -->
<g id="Node000007" class="node">
<title>Node7</title>
<g id="a_Node000007"><a xlink:href="../../dc/dfb/MpiParallelMng_8cc_source.html" target="_top" xlink:title=" ">
<polygon fill="white" stroke="#666666" points="735,-79.5 630,-79.5 630,-60.5 735,-60.5 735,-79.5"/>
<text text-anchor="middle" x="682.5" y="-67.5" font-family="Helvetica,sans-Serif" font-size="10.00">MpiParallelMng.cc</text>
</a>
</g>
</g>
<!-- Node1&#45;&gt;Node7 -->
<g id="edge6_Node000001_Node000007" class="edge">
<title>Node1&#45;&gt;Node7</title>
<g id="a_edge6_Node000001_Node000007"><a xlink:title=" ">
<path fill="none" stroke="#63b8ff" d="M734.22,-114.22C721.05,-103.21 703.74,-88.75 692.87,-79.67"/>
<polygon fill="#63b8ff" stroke="#63b8ff" points="732.25,-117.14 742.17,-120.87 736.74,-111.77 732.25,-117.14"/>
</a>
</g>
</g>
<!-- Node8 -->
<g id="Node000008" class="node">
<title>Node8</title>
<g id="a_Node000008"><a xlink:href="../../d5/d86/MpiTypeDispatcherImpl_8h_source.html" target="_top" xlink:title=" ">
<polygon fill="white" stroke="#666666" points="893.5,-79.5 753.5,-79.5 753.5,-60.5 893.5,-60.5 893.5,-79.5"/>
<text text-anchor="middle" x="823.5" y="-67.5" font-family="Helvetica,sans-Serif" font-size="10.00">MpiTypeDispatcherImpl.h</text>
</a>
</g>
</g>
<!-- Node1&#45;&gt;Node8 -->
<g id="edge7_Node000001_Node000008" class="edge">
<title>Node1&#45;&gt;Node8</title>
<g id="a_edge7_Node000001_Node000008"><a xlink:title=" ">
<path fill="none" stroke="#63b8ff" d="M771.04,-114.22C784.4,-103.21 801.95,-88.75 812.98,-79.67"/>
<polygon fill="#63b8ff" stroke="#63b8ff" points="768.47,-111.81 762.98,-120.87 772.92,-117.21 768.47,-111.81"/>
</a>
</g>
</g>
<!-- Node10 -->
<g id="Node000010" class="node">
<title>Node10</title>
<g id="a_Node000010"><a xlink:href="../../d2/d8d/ParallelMngDispatcher_8cc_source.html" target="_top" xlink:title=" ">
<polygon fill="white" stroke="#666666" points="1051,-79.5 912,-79.5 912,-60.5 1051,-60.5 1051,-79.5"/>
<text text-anchor="middle" x="981.5" y="-67.5" font-family="Helvetica,sans-Serif" font-size="10.00">ParallelMngDispatcher.cc</text>
</a>
</g>
</g>
<!-- Node1&#45;&gt;Node10 -->
<g id="edge10_Node000001_Node000010" class="edge">
<title>Node1&#45;&gt;Node10</title>
<g id="a_edge10_Node000001_Node000010"><a xlink:title=" ">
<path fill="none" stroke="#63b8ff" d="M795.69,-118.47C839.96,-107.16 907.86,-89.81 948.16,-79.52"/>
<polygon fill="#63b8ff" stroke="#63b8ff" points="794.62,-115.13 785.8,-120.99 796.35,-121.91 794.62,-115.13"/>
</a>
</g>
</g>
<!-- Node11 -->
<g id="Node000011" class="node">
<title>Node11</title>
<g id="a_Node000011"><a xlink:href="../../de/d85/PointToPointSerializerMng_8cc_source.html" target="_top" xlink:title=" ">
<polygon fill="white" stroke="#666666" points="1226,-79.5 1069,-79.5 1069,-60.5 1226,-60.5 1226,-79.5"/>
<text text-anchor="middle" x="1147.5" y="-67.5" font-family="Helvetica,sans-Serif" font-size="10.00">PointToPointSerializerMng.cc</text>
</a>
</g>
</g>
<!-- Node1&#45;&gt;Node11 -->
<g id="edge11_Node000001_Node000011" class="edge">
<title>Node1&#45;&gt;Node11</title>
<g id="a_edge11_Node000001_Node000011"><a xlink:title=" ">
<path fill="none" stroke="#63b8ff" d="M799.51,-122.95C859.94,-114.47 968.11,-99.11 1060.5,-85 1071.84,-83.27 1084.01,-81.35 1095.54,-79.5"/>
<polygon fill="#63b8ff" stroke="#63b8ff" points="798.93,-119.49 789.51,-124.35 799.9,-126.43 798.93,-119.49"/>
</a>
</g>
</g>
<!-- Node12 -->
<g id="Node000012" class="node">
<title>Node12</title>
<g id="a_Node000012"><a xlink:href="../../d7/d5a/SerializeBuffer_8cc_source.html" target="_top" xlink:title=" ">
<polygon fill="white" stroke="#666666" points="1345,-79.5 1244,-79.5 1244,-60.5 1345,-60.5 1345,-79.5"/>
<text text-anchor="middle" x="1294.5" y="-67.5" font-family="Helvetica,sans-Serif" font-size="10.00">SerializeBuffer.cc</text>
</a>
</g>
</g>
<!-- Node1&#45;&gt;Node12 -->
<g id="edge12_Node000001_Node000012" class="edge">
<title>Node1&#45;&gt;Node12</title>
<g id="a_edge12_Node000001_Node000012"><a xlink:title=" ">
<path fill="none" stroke="#63b8ff" d="M799.75,-127.36C886.54,-122.95 1076.99,-110.98 1235.5,-85 1244.23,-83.57 1253.58,-81.57 1262.21,-79.53"/>
<polygon fill="#63b8ff" stroke="#63b8ff" points="799.5,-123.87 789.69,-127.86 799.85,-130.86 799.5,-123.87"/>
</a>
</g>
</g>
<!-- Node13 -->
<g id="Node000013" class="node">
<title>Node13</title>
<g id="a_Node000013"><a xlink:href="../../db/ddc/SerializeMessageList_8cc_source.html" target="_top" xlink:title=" ">
<polygon fill="white" stroke="#666666" points="1496,-79.5 1363,-79.5 1363,-60.5 1496,-60.5 1496,-79.5"/>
<text text-anchor="middle" x="1429.5" y="-67.5" font-family="Helvetica,sans-Serif" font-size="10.00">SerializeMessageList.cc</text>
</a>
</g>
</g>
<!-- Node1&#45;&gt;Node13 -->
<g id="edge13_Node000001_Node000013" class="edge">
<title>Node1&#45;&gt;Node13</title>
<g id="a_edge13_Node000001_Node000013"><a xlink:title=" ">
<path fill="none" stroke="#63b8ff" d="M799.9,-127.78C901.76,-123.7 1148.98,-111.69 1354.5,-85 1365.53,-83.57 1377.4,-81.57 1388.37,-79.53"/>
<polygon fill="#63b8ff" stroke="#63b8ff" points="799.49,-124.3 789.64,-128.19 799.77,-131.29 799.49,-124.3"/>
</a>
</g>
</g>
<!-- Node14 -->
<g id="Node000014" class="node">
<title>Node14</title>
<g id="a_Node000014"><a xlink:href="../../d5/d23/TestMpi_8cc_source.html" target="_top" xlink:title=" ">
<polygon fill="white" stroke="#666666" points="1582.5,-79.5 1514.5,-79.5 1514.5,-60.5 1582.5,-60.5 1582.5,-79.5"/>
<text text-anchor="middle" x="1548.5" y="-67.5" font-family="Helvetica,sans-Serif" font-size="10.00">TestMpi.cc</text>
</a>
</g>
</g>
<!-- Node1&#45;&gt;Node14 -->
<g id="edge14_Node000001_Node000014" class="edge">
<title>Node1&#45;&gt;Node14</title>
<g id="a_edge14_Node000001_Node000014"><a xlink:title=" ">
<path fill="none" stroke="#63b8ff" d="M800.1,-128.28C943.41,-124.35 1369.29,-110.76 1505.5,-85 1512.29,-83.72 1519.49,-81.66 1526.02,-79.52"/>
<polygon fill="#63b8ff" stroke="#63b8ff" points="799.78,-124.78 789.88,-128.55 799.97,-131.78 799.78,-124.78"/>
</a>
</g>
</g>
<!-- Node8&#45;&gt;Node6 -->
<g id="edge8_Node000008_Node000006" class="edge">
<title>Node8&#45;&gt;Node6</title>
<g id="a_edge8_Node000008_Node000006"><a xlink:title=" ">
<path fill="none" stroke="#63b8ff" d="M787.15,-57.32C751.95,-46 699.42,-29.12 668,-19.02"/>
<polygon fill="#63b8ff" stroke="#63b8ff" points="786.44,-60.77 797.04,-60.49 788.59,-54.1 786.44,-60.77"/>
</a>
</g>
</g>
<!-- Node9 -->
<g id="Node000009" class="node">
<title>Node9</title>
<g id="a_Node000009"><a xlink:href="../../dd/d27/MpiTypeDispatcher_8cc_source.html" target="_top" xlink:title=" ">
<polygon fill="white" stroke="#666666" points="884.5,-19 762.5,-19 762.5,0 884.5,0 884.5,-19"/>
<text text-anchor="middle" x="823.5" y="-7" font-family="Helvetica,sans-Serif" font-size="10.00">MpiTypeDispatcher.cc</text>
</a>
</g>
</g>
<!-- Node8&#45;&gt;Node9 -->
<g id="edge9_Node000008_Node000009" class="edge">
<title>Node8&#45;&gt;Node9</title>
<g id="a_edge9_Node000008_Node000009"><a xlink:title=" ">
<path fill="none" stroke="#63b8ff" d="M823.5,-50.16C823.5,-39.74 823.5,-27.3 823.5,-19.17"/>
<polygon fill="#63b8ff" stroke="#63b8ff" points="820,-50.37 823.5,-60.37 827,-50.37 820,-50.37"/>
</a>
</g>
</g>
</g>
</svg>
