<?xml version="1.0" encoding="UTF-8" standalone="no"?>
<!DOCTYPE svg PUBLIC "-//W3C//DTD SVG 1.1//EN"
 "http://www.w3.org/Graphics/SVG/1.1/DTD/svg11.dtd">
<!-- Generated by graphviz version 2.43.0 (0)
 -->
<!-- Title: ViewsCommon.h Pages: 1 -->
<!--zoomable 632 -->

<svg id="main" version="1.1" xmlns="http://www.w3.org/2000/svg" xmlns:xlink="http://www.w3.org/1999/xlink" xml:space="preserve" onload="init(evt)">

<style type="text/css"><![CDATA[
.node, .edge {opacity: 0.7;}
.node.selected, .edge.selected {opacity: 1;}
.edge:hover path { stroke: red; }
.edge:hover polygon { stroke: red; fill: red; }
]]></style>

<defs>
  <circle id="rim" cx="0" cy="0" r="7"/>
  <circle id="rim2" cx="0" cy="0" r="3.5"/>
  <g id="zoomPlus">
    <use xlink:href="#rim" fill="#404040"><set attributeName="fill" to="#808080" begin="zoomplus.mouseover" end="zoomplus.mouseout"/></use>
    <path d="M-4,0h8M0,-4v8" fill="none" stroke="white" stroke-width="1.5" pointer-events="none"/>
  </g>
  <g id="zoomMin">
    <use xlink:href="#rim" fill="#404040"><set attributeName="fill" to="#808080" begin="zoomminus.mouseover" end="zoomminus.mouseout"/></use>
    <path d="M-4,0h8" fill="none" stroke="white" stroke-width="1.5" pointer-events="none"/>
  </g>
  <g id="arrowUp" transform="translate(30 24)">
    <use xlink:href="#rim"/>
    <path pointer-events="none" fill="none" stroke="white" stroke-width="1.5" d="M0,-3.0v7 M-2.5,-0.5L0,-3.0L2.5,-0.5"/>
  </g>
  <g id="arrowRight" transform="rotate(90) translate(36 -43)">
    <use xlink:href="#rim"/>
    <path pointer-events="none" fill="none" stroke="white" stroke-width="1.5" d="M0,-3.0v7 M-2.5,-0.5L0,-3.0L2.5,-0.5"/>
  </g>
  <g id="arrowDown" transform="rotate(180) translate(-30 -48)">
    <use xlink:href="#rim"/>
    <path pointer-events="none" fill="none" stroke="white" stroke-width="1.5" d="M0,-3.0v7 M-2.5,-0.5L0,-3.0L2.5,-0.5"/>
  </g>
  <g id="arrowLeft" transform="rotate(270) translate(-36 17)">
    <use xlink:href="#rim"/>
    <path pointer-events="none" fill="none" stroke="white" stroke-width="1.5" d="M0,-3.0v7 M-2.5,-0.5L0,-3.0L2.5,-0.5"/>
  </g>
  <g id="resetDef">
    <use xlink:href="#rim2" fill="#404040"><set attributeName="fill" to="#808080" begin="reset.mouseover" end="reset.mouseout"/></use>
  </g>
</defs>
<script type="application/ecmascript">
var viewWidth = 1501;
var viewHeight = 632;
var sectionId = 'dynsection-0';
</script>
<script type="application/ecmascript" xlink:href="../../svg.min.js"/>
<svg id="graph" class="graph">
<g id="viewport">
<title>ViewsCommon.h</title>
<!-- Node1 -->
<g id="Node000001" class="node">
<title>Node1</title>
<g id="a_Node000001"><a xlink:title=" ">
<polygon fill="#999999" stroke="#666666" points="635.5,-624 536.5,-624 536.5,-605 635.5,-605 635.5,-624"/>
<text text-anchor="middle" x="586" y="-612" font-family="Helvetica,sans-Serif" font-size="10.00">ViewsCommon.h</text>
</a>
</g>
</g>
<!-- Node2 -->
<g id="Node000002" class="node">
<title>Node2</title>
<g id="a_Node000002"><a xlink:href="../../de/d40/AcceleratorGlobal_8h_source.html" target="_top" xlink:title=" ">
<polygon fill="white" stroke="#666666" points="644,-448 528,-448 528,-418 644,-418 644,-448"/>
<text text-anchor="start" x="536" y="-436" font-family="Helvetica,sans-Serif" font-size="10.00">arcane/accelerator</text>
<text text-anchor="middle" x="586" y="-425" font-family="Helvetica,sans-Serif" font-size="10.00">/AcceleratorGlobal.h</text>
</a>
</g>
</g>
<!-- Node1&#45;&gt;Node2 -->
<g id="edge1_Node000001_Node000002" class="edge">
<title>Node1&#45;&gt;Node2</title>
<g id="a_edge1_Node000001_Node000002"><a xlink:title=" ">
<path fill="none" stroke="#63b8ff" d="M586,-604.84C586,-578.54 586,-498.9 586,-458.33"/>
<polygon fill="#63b8ff" stroke="#63b8ff" points="589.5,-458.22 586,-448.22 582.5,-458.22 589.5,-458.22"/>
</a>
</g>
</g>
<!-- Node21 -->
<g id="Node000021" class="node">
<title>Node21</title>
<g id="a_Node000021"><a xlink:href="../../d2/d3e/DataView_8h.html" target="_top" xlink:title=" ">
<polygon fill="white" stroke="#666666" points="913,-569 781,-569 781,-550 913,-550 913,-569"/>
<text text-anchor="middle" x="847" y="-557" font-family="Helvetica,sans-Serif" font-size="10.00">arcane/core/DataView.h</text>
</a>
</g>
</g>
<!-- Node1&#45;&gt;Node21 -->
<g id="edge34_Node000001_Node000021" class="edge">
<title>Node1&#45;&gt;Node21</title>
<g id="a_edge34_Node000001_Node000021"><a xlink:title=" ">
<path fill="none" stroke="#63b8ff" d="M627.93,-604.98C673.27,-595.78 745.61,-581.09 794.65,-571.13"/>
<polygon fill="#63b8ff" stroke="#63b8ff" points="795.63,-574.5 804.74,-569.08 794.24,-567.64 795.63,-574.5"/>
</a>
</g>
</g>
<!-- Node37 -->
<g id="Node000037" class="node">
<title>Node37</title>
<g id="a_Node000037"><a xlink:href="../../d4/d85/arcane_2src_2arcane_2accelerator_2core_2ViewBuildInfo_8h_source.html" target="_top" xlink:title=" ">
<polygon fill="white" stroke="#666666" points="510,-448 390,-448 390,-418 510,-418 510,-448"/>
<text text-anchor="start" x="398" y="-436" font-family="Helvetica,sans-Serif" font-size="10.00">arcane/accelerator</text>
<text text-anchor="middle" x="450" y="-425" font-family="Helvetica,sans-Serif" font-size="10.00">/core/ViewBuildInfo.h</text>
</a>
</g>
</g>
<!-- Node1&#45;&gt;Node37 -->
<g id="edge63_Node000001_Node000037" class="edge">
<title>Node1&#45;&gt;Node37</title>
<g id="a_edge63_Node000001_Node000037"><a xlink:title=" ">
<path fill="none" stroke="#63b8ff" d="M579.44,-604.84C559.17,-578.09 497.1,-496.17 466.88,-456.28"/>
<polygon fill="#63b8ff" stroke="#63b8ff" points="469.6,-454.08 460.77,-448.22 464.02,-458.31 469.6,-454.08"/>
</a>
</g>
</g>
<!-- Node3 -->
<g id="Node000003" class="node">
<title>Node3</title>
<g id="a_Node000003"><a xlink:href="../../d4/da8/UtilsTypes_8h.html" target="_top" xlink:title="Déclarations des types utilisés dans Arcane.">
<polygon fill="white" stroke="#666666" points="559,-310.5 423,-310.5 423,-291.5 559,-291.5 559,-310.5"/>
<text text-anchor="middle" x="491" y="-298.5" font-family="Helvetica,sans-Serif" font-size="10.00">arcane/utils/UtilsTypes.h</text>
</a>
</g>
</g>
<!-- Node2&#45;&gt;Node3 -->
<g id="edge2_Node000002_Node000003" class="edge">
<title>Node2&#45;&gt;Node3</title>
<g id="a_edge2_Node000002_Node000003"><a xlink:title=" ">
<path fill="none" stroke="#63b8ff" d="M585.72,-417.71C584.73,-400.63 580.92,-371.88 567,-352 555.64,-335.78 537.17,-323.45 521.29,-315.1"/>
<polygon fill="#63b8ff" stroke="#63b8ff" points="522.82,-311.95 512.31,-310.64 519.71,-318.22 522.82,-311.95"/>
</a>
</g>
</g>
<!-- Node9 -->
<g id="Node000009" class="node">
<title>Node9</title>
<g id="a_Node000009"><a xlink:title=" ">
<polygon fill="#e0e0e0" stroke="#999999" points="690,-129 642,-129 642,-110 690,-110 690,-129"/>
<text text-anchor="middle" x="666" y="-117" font-family="Helvetica,sans-Serif" font-size="10.00">iosfwd</text>
</a>
</g>
</g>
<!-- Node2&#45;&gt;Node9 -->
<g id="edge32_Node000002_Node000009" class="edge">
<title>Node2&#45;&gt;Node9</title>
<g id="a_edge32_Node000002_Node000009"><a xlink:title=" ">
<path fill="none" stroke="#63b8ff" d="M590.01,-417.8C600.65,-379.94 630.26,-273.4 652,-184 655.67,-168.9 659.44,-151.67 662.15,-138.98"/>
<polygon fill="#63b8ff" stroke="#63b8ff" points="665.58,-139.66 664.22,-129.15 658.73,-138.22 665.58,-139.66"/>
</a>
</g>
</g>
<!-- Node13 -->
<g id="Node000013" class="node">
<title>Node13</title>
<g id="a_Node000013"><a xlink:title=" ">
<polygon fill="#e0e0e0" stroke="#999999" points="87.5,-129 18.5,-129 18.5,-110 87.5,-110 87.5,-129"/>
<text text-anchor="middle" x="53" y="-117" font-family="Helvetica,sans-Serif" font-size="10.00">type_traits</text>
</a>
</g>
</g>
<!-- Node2&#45;&gt;Node13 -->
<g id="edge33_Node000002_Node000013" class="edge">
<title>Node2&#45;&gt;Node13</title>
<g id="a_edge33_Node000002_Node000013"><a xlink:title=" ">
<path fill="none" stroke="#63b8ff" d="M527.95,-419.54C524.93,-419 521.93,-418.48 519,-418 402.36,-398.99 0,-420.18 0,-302 0,-302 0,-302 0,-234 0,-196.7 23.79,-158.44 39.49,-137.24"/>
<polygon fill="#63b8ff" stroke="#63b8ff" points="42.31,-139.32 45.63,-129.26 36.76,-135.05 42.31,-139.32"/>
</a>
</g>
</g>
<!-- Node19 -->
<g id="Node000019" class="node">
<title>Node19</title>
<g id="a_Node000019"><a xlink:href="../../d5/dfd/AcceleratorCoreGlobal_8h.html" target="_top" xlink:title=" ">
<polygon fill="white" stroke="#666666" points="558,-382 396,-382 396,-352 558,-352 558,-382"/>
<text text-anchor="start" x="404" y="-370" font-family="Helvetica,sans-Serif" font-size="10.00">arcane/accelerator</text>
<text text-anchor="middle" x="477" y="-359" font-family="Helvetica,sans-Serif" font-size="10.00">/core/AcceleratorCoreGlobal.h</text>
</a>
</g>
</g>
<!-- Node2&#45;&gt;Node19 -->
<g id="edge25_Node000002_Node000019" class="edge">
<title>Node2&#45;&gt;Node19</title>
<g id="a_edge25_Node000002_Node000019"><a xlink:title=" ">
<path fill="none" stroke="#63b8ff" d="M562.08,-417.95C546.75,-408.95 526.64,-397.14 509.82,-387.27"/>
<polygon fill="#63b8ff" stroke="#63b8ff" points="511.26,-384.06 500.86,-382.01 507.72,-390.09 511.26,-384.06"/>
</a>
</g>
</g>
<!-- Node4 -->
<g id="Node000004" class="node">
<title>Node4</title>
<g id="a_Node000004"><a xlink:href="../../d0/d1e/ArcaneGlobal_8h.html" target="_top" xlink:title="Fichier de configuration d&#39;Arcane.">
<polygon fill="white" stroke="#666666" points="1194.5,-244.5 1043.5,-244.5 1043.5,-225.5 1194.5,-225.5 1194.5,-244.5"/>
<text text-anchor="middle" x="1119" y="-232.5" font-family="Helvetica,sans-Serif" font-size="10.00">arcane/utils/ArcaneGlobal.h</text>
</a>
</g>
</g>
<!-- Node3&#45;&gt;Node4 -->
<g id="edge3_Node000003_Node000004" class="edge">
<title>Node3&#45;&gt;Node4</title>
<g id="a_edge3_Node000003_Node000004"><a xlink:title=" ">
<path fill="none" stroke="#63b8ff" d="M559.1,-293.06C674.26,-281.32 907.21,-257.58 1033.3,-244.73"/>
<polygon fill="#63b8ff" stroke="#63b8ff" points="1033.71,-248.21 1043.3,-243.71 1033,-241.25 1033.71,-248.21"/>
</a>
</g>
</g>
<!-- Node10 -->
<g id="Node000010" class="node">
<title>Node10</title>
<g id="a_Node000010"><a xlink:href="../../d4/d12/BaseTypes_8h.html" target="_top" xlink:title="Déclarations des types de la composante &#39;base&#39; de Arccore.">
<polygon fill="white" stroke="#666666" points="383.5,-129 240.5,-129 240.5,-110 383.5,-110 383.5,-129"/>
<text text-anchor="middle" x="312" y="-117" font-family="Helvetica,sans-Serif" font-size="10.00">arccore/base/BaseTypes.h</text>
</a>
</g>
</g>
<!-- Node3&#45;&gt;Node10 -->
<g id="edge9_Node000003_Node000010" class="edge">
<title>Node3&#45;&gt;Node10</title>
<g id="a_edge9_Node000003_Node000010"><a xlink:title=" ">
<path fill="none" stroke="#63b8ff" d="M482.57,-291.26C467.19,-275.62 433.09,-242.41 400,-220 370.7,-200.16 351.29,-211.48 329,-184 318.78,-171.4 314.67,-153.21 313.03,-139.52"/>
<polygon fill="#63b8ff" stroke="#63b8ff" points="316.5,-138.97 312.16,-129.31 309.52,-139.57 316.5,-138.97"/>
</a>
</g>
</g>
<!-- Node12 -->
<g id="Node000012" class="node">
<title>Node12</title>
<g id="a_Node000012"><a xlink:href="../../dc/d80/RefDeclarations_8h.html" target="_top" xlink:title=" ">
<polygon fill="white" stroke="#666666" points="279.5,-184 110.5,-184 110.5,-165 279.5,-165 279.5,-184"/>
<text text-anchor="middle" x="195" y="-172" font-family="Helvetica,sans-Serif" font-size="10.00">arccore/base/RefDeclarations.h</text>
</a>
</g>
</g>
<!-- Node3&#45;&gt;Node12 -->
<g id="edge12_Node000003_Node000012" class="edge">
<title>Node3&#45;&gt;Node12</title>
<g id="a_edge12_Node000003_Node000012"><a xlink:title=" ">
<path fill="none" stroke="#63b8ff" d="M432.29,-291.49C374.08,-282.31 289.56,-266.73 261,-250 236.97,-235.92 217.04,-210.05 205.57,-192.8"/>
<polygon fill="#63b8ff" stroke="#63b8ff" points="208.43,-190.78 200.1,-184.24 202.54,-194.55 208.43,-190.78"/>
</a>
</g>
</g>
<!-- Node15 -->
<g id="Node000015" class="node">
<title>Node15</title>
<g id="a_Node000015"><a xlink:href="../../d0/d8d/CollectionsGlobal_8h_source.html" target="_top" xlink:title=" ">
<polygon fill="white" stroke="#666666" points="562,-250 448,-250 448,-220 562,-220 562,-250"/>
<text text-anchor="start" x="456" y="-238" font-family="Helvetica,sans-Serif" font-size="10.00">arccore/collections</text>
<text text-anchor="middle" x="505" y="-227" font-family="Helvetica,sans-Serif" font-size="10.00">/CollectionsGlobal.h</text>
</a>
</g>
</g>
<!-- Node3&#45;&gt;Node15 -->
<g id="edge16_Node000003_Node000015" class="edge">
<title>Node3&#45;&gt;Node15</title>
<g id="a_edge16_Node000003_Node000015"><a xlink:title=" ">
<path fill="none" stroke="#63b8ff" d="M492.89,-291.37C494.63,-283.4 497.3,-271.2 499.69,-260.27"/>
<polygon fill="#63b8ff" stroke="#63b8ff" points="503.14,-260.88 501.86,-250.36 496.3,-259.38 503.14,-260.88"/>
</a>
</g>
</g>
<!-- Node17 -->
<g id="Node000017" class="node">
<title>Node17</title>
<g id="a_Node000017"><a xlink:href="../../d1/db9/ConcurrencyGlobal_8h_source.html" target="_top" xlink:title=" ">
<polygon fill="white" stroke="#666666" points="391.5,-250 270.5,-250 270.5,-220 391.5,-220 391.5,-250"/>
<text text-anchor="start" x="278.5" y="-238" font-family="Helvetica,sans-Serif" font-size="10.00">arccore/concurrency</text>
<text text-anchor="middle" x="331" y="-227" font-family="Helvetica,sans-Serif" font-size="10.00">/ConcurrencyGlobal.h</text>
</a>
</g>
</g>
<!-- Node3&#45;&gt;Node17 -->
<g id="edge21_Node000003_Node000017" class="edge">
<title>Node3&#45;&gt;Node17</title>
<g id="a_edge21_Node000003_Node000017"><a xlink:title=" ">
<path fill="none" stroke="#63b8ff" d="M469.42,-291.37C445.56,-281.82 406.46,-266.18 375.88,-253.95"/>
<polygon fill="#63b8ff" stroke="#63b8ff" points="376.87,-250.58 366.29,-250.12 374.27,-257.08 376.87,-250.58"/>
</a>
</g>
</g>
<!-- Node18 -->
<g id="Node000018" class="node">
<title>Node18</title>
<g id="a_Node000018"><a xlink:href="../../dd/d4e/TraceGlobal_8h_source.html" target="_top" xlink:title=" ">
<polygon fill="white" stroke="#666666" points="176.5,-244.5 27.5,-244.5 27.5,-225.5 176.5,-225.5 176.5,-244.5"/>
<text text-anchor="middle" x="102" y="-232.5" font-family="Helvetica,sans-Serif" font-size="10.00">arccore/trace/TraceGlobal.h</text>
</a>
</g>
</g>
<!-- Node3&#45;&gt;Node18 -->
<g id="edge23_Node000003_Node000018" class="edge">
<title>Node3&#45;&gt;Node18</title>
<g id="a_edge23_Node000003_Node000018"><a xlink:title=" ">
<path fill="none" stroke="#63b8ff" d="M438.94,-291.44C367.61,-279.7 239.71,-258.66 163.67,-246.15"/>
<polygon fill="#63b8ff" stroke="#63b8ff" points="164.19,-242.68 153.75,-244.51 163.05,-249.59 164.19,-242.68"/>
</a>
</g>
</g>
<!-- Node5 -->
<g id="Node000005" class="node">
<title>Node5</title>
<g id="a_Node000005"><a xlink:href="../../dd/d76/ArccoreGlobal_8h_source.html" target="_top" xlink:title=" ">
<polygon fill="white" stroke="#666666" points="948.5,-74 789.5,-74 789.5,-55 948.5,-55 948.5,-74"/>
<text text-anchor="middle" x="869" y="-62" font-family="Helvetica,sans-Serif" font-size="10.00">arccore/base/ArccoreGlobal.h</text>
</a>
</g>
</g>
<!-- Node4&#45;&gt;Node5 -->
<g id="edge4_Node000004_Node000005" class="edge">
<title>Node4&#45;&gt;Node5</title>
<g id="a_edge4_Node000004_Node000005"><a xlink:title=" ">
<path fill="none" stroke="#63b8ff" d="M1163.11,-225.44C1203.25,-216.66 1258.13,-201.78 1271,-184 1275.95,-177.16 1276.2,-171.65 1271,-165 1232.95,-116.39 1065.09,-88.22 958.67,-74.95"/>
<polygon fill="#63b8ff" stroke="#63b8ff" points="958.92,-71.45 948.57,-73.71 958.07,-78.4 958.92,-71.45"/>
</a>
</g>
</g>
<!-- Node8 -->
<g id="Node000008" class="node">
<title>Node8</title>
<g id="a_Node000008"><a xlink:title=" ">
<polygon fill="#e0e0e0" stroke="#999999" points="1261.5,-184 1142.5,-184 1142.5,-165 1261.5,-165 1261.5,-184"/>
<text text-anchor="middle" x="1202" y="-172" font-family="Helvetica,sans-Serif" font-size="10.00">arcane_core_config.h</text>
</a>
</g>
</g>
<!-- Node4&#45;&gt;Node8 -->
<g id="edge7_Node000004_Node000008" class="edge">
<title>Node4&#45;&gt;Node8</title>
<g id="a_edge7_Node000004_Node000008"><a xlink:title=" ">
<path fill="none" stroke="#63b8ff" d="M1131.25,-225.37C1144.36,-216.12 1165.42,-201.28 1181.15,-190.19"/>
<polygon fill="#63b8ff" stroke="#63b8ff" points="1183.55,-192.79 1189.7,-184.17 1179.51,-187.07 1183.55,-192.79"/>
</a>
</g>
</g>
<!-- Node4&#45;&gt;Node9 -->
<g id="edge8_Node000004_Node000009" class="edge">
<title>Node4&#45;&gt;Node9</title>
<g id="a_edge8_Node000004_Node000009"><a xlink:title=" ">
<path fill="none" stroke="#63b8ff" d="M1118.78,-225.11C1117.87,-210.08 1113.69,-179.8 1095,-165 1064.23,-140.64 796.16,-126.33 700.08,-121.95"/>
<polygon fill="#63b8ff" stroke="#63b8ff" points="700.17,-118.45 690.02,-121.5 699.86,-125.45 700.17,-118.45"/>
</a>
</g>
</g>
<!-- Node6 -->
<g id="Node000006" class="node">
<title>Node6</title>
<g id="a_Node000006"><a xlink:title=" ">
<polygon fill="#e0e0e0" stroke="#999999" points="838,-19 788,-19 788,0 838,0 838,-19"/>
<text text-anchor="middle" x="813" y="-7" font-family="Helvetica,sans-Serif" font-size="10.00">cstdint</text>
</a>
</g>
</g>
<!-- Node5&#45;&gt;Node6 -->
<g id="edge5_Node000005_Node000006" class="edge">
<title>Node5&#45;&gt;Node6</title>
<g id="a_edge5_Node000005_Node000006"><a xlink:title=" ">
<path fill="none" stroke="#63b8ff" d="M860,-54.98C851.81,-47.23 839.49,-35.58 829.53,-26.14"/>
<polygon fill="#63b8ff" stroke="#63b8ff" points="831.83,-23.5 822.16,-19.17 827.02,-28.59 831.83,-23.5"/>
</a>
</g>
</g>
<!-- Node7 -->
<g id="Node000007" class="node">
<title>Node7</title>
<g id="a_Node000007"><a xlink:title=" ">
<polygon fill="#e0e0e0" stroke="#999999" points="991.5,-19 856.5,-19 856.5,0 991.5,0 991.5,-19"/>
<text text-anchor="middle" x="924" y="-7" font-family="Helvetica,sans-Serif" font-size="10.00">arccore/arccore_config.h</text>
</a>
</g>
</g>
<!-- Node5&#45;&gt;Node7 -->
<g id="edge6_Node000005_Node000007" class="edge">
<title>Node5&#45;&gt;Node7</title>
<g id="a_edge6_Node000005_Node000007"><a xlink:title=" ">
<path fill="none" stroke="#63b8ff" d="M878.08,-54.75C886.09,-47.03 897.96,-35.6 907.62,-26.28"/>
<polygon fill="#63b8ff" stroke="#63b8ff" points="910.31,-28.55 915.09,-19.09 905.46,-23.51 910.31,-28.55"/>
</a>
</g>
</g>
<!-- Node10&#45;&gt;Node5 -->
<g id="edge10_Node000010_Node000005" class="edge">
<title>Node10&#45;&gt;Node5</title>
<g id="a_edge10_Node000010_Node000005"><a xlink:title=" ">
<path fill="none" stroke="#63b8ff" d="M383.68,-111.68C484.68,-102.07 668.84,-84.55 778.96,-74.07"/>
<polygon fill="#63b8ff" stroke="#63b8ff" points="779.43,-77.54 789.05,-73.11 778.76,-70.57 779.43,-77.54"/>
</a>
</g>
</g>
<!-- Node11 -->
<g id="Node000011" class="node">
<title>Node11</title>
<g id="a_Node000011"><a xlink:title=" ">
<polygon fill="#e0e0e0" stroke="#999999" points="338.5,-74 285.5,-74 285.5,-55 338.5,-55 338.5,-74"/>
<text text-anchor="middle" x="312" y="-62" font-family="Helvetica,sans-Serif" font-size="10.00">cstddef</text>
</a>
</g>
</g>
<!-- Node10&#45;&gt;Node11 -->
<g id="edge11_Node000010_Node000011" class="edge">
<title>Node10&#45;&gt;Node11</title>
<g id="a_edge11_Node000010_Node000011"><a xlink:title=" ">
<path fill="none" stroke="#63b8ff" d="M312,-109.75C312,-102.8 312,-92.85 312,-84.13"/>
<polygon fill="#63b8ff" stroke="#63b8ff" points="315.5,-84.09 312,-74.09 308.5,-84.09 315.5,-84.09"/>
</a>
</g>
</g>
<!-- Node12&#45;&gt;Node10 -->
<g id="edge13_Node000012_Node000010" class="edge">
<title>Node12&#45;&gt;Node10</title>
<g id="a_edge13_Node000012_Node000010"><a xlink:title=" ">
<path fill="none" stroke="#63b8ff" d="M213.8,-164.98C232.62,-156.46 261.82,-143.23 283.5,-133.41"/>
<polygon fill="#63b8ff" stroke="#63b8ff" points="285.2,-136.48 292.86,-129.17 282.31,-130.11 285.2,-136.48"/>
</a>
</g>
</g>
<!-- Node12&#45;&gt;Node13 -->
<g id="edge14_Node000012_Node000013" class="edge">
<title>Node12&#45;&gt;Node13</title>
<g id="a_edge14_Node000012_Node000013"><a xlink:title=" ">
<path fill="none" stroke="#63b8ff" d="M172.19,-164.98C148.83,-156.27 112.3,-142.63 85.83,-132.75"/>
<polygon fill="#63b8ff" stroke="#63b8ff" points="86.82,-129.39 76.23,-129.17 84.37,-135.95 86.82,-129.39"/>
</a>
</g>
</g>
<!-- Node14 -->
<g id="Node000014" class="node">
<title>Node14</title>
<g id="a_Node000014"><a xlink:title=" ">
<polygon fill="#e0e0e0" stroke="#999999" points="222,-129 164,-129 164,-110 222,-110 222,-129"/>
<text text-anchor="middle" x="193" y="-117" font-family="Helvetica,sans-Serif" font-size="10.00">memory</text>
</a>
</g>
</g>
<!-- Node12&#45;&gt;Node14 -->
<g id="edge15_Node000012_Node000014" class="edge">
<title>Node12&#45;&gt;Node14</title>
<g id="a_edge15_Node000012_Node000014"><a xlink:title=" ">
<path fill="none" stroke="#63b8ff" d="M194.67,-164.75C194.41,-157.8 194.03,-147.85 193.7,-139.13"/>
<polygon fill="#63b8ff" stroke="#63b8ff" points="197.2,-138.95 193.32,-129.09 190.2,-139.21 197.2,-138.95"/>
</a>
</g>
</g>
<!-- Node15&#45;&gt;Node5 -->
<g id="edge17_Node000015_Node000005" class="edge">
<title>Node15&#45;&gt;Node5</title>
<g id="a_edge17_Node000015_Node000005"><a xlink:title=" ">
<path fill="none" stroke="#63b8ff" d="M515.1,-219.74C534.61,-193.39 580.23,-137.27 633,-110 677.94,-86.78 733.29,-75.57 779.09,-70.21"/>
<polygon fill="#63b8ff" stroke="#63b8ff" points="779.75,-73.66 789.31,-69.09 778.99,-66.7 779.75,-73.66"/>
</a>
</g>
</g>
<!-- Node16 -->
<g id="Node000016" class="node">
<title>Node16</title>
<g id="a_Node000016"><a xlink:href="../../de/d81/CommonGlobal_8h_source.html" target="_top" xlink:title=" ">
<polygon fill="white" stroke="#666666" points="524,-184 338,-184 338,-165 524,-165 524,-184"/>
<text text-anchor="middle" x="431" y="-172" font-family="Helvetica,sans-Serif" font-size="10.00">arccore/common/CommonGlobal.h</text>
</a>
</g>
</g>
<!-- Node15&#45;&gt;Node16 -->
<g id="edge18_Node000015_Node000016" class="edge">
<title>Node15&#45;&gt;Node16</title>
<g id="a_edge18_Node000015_Node000016"><a xlink:title=" ">
<path fill="none" stroke="#63b8ff" d="M487.09,-219.84C475.91,-211 461.52,-199.63 450.12,-190.62"/>
<polygon fill="#63b8ff" stroke="#63b8ff" points="452.1,-187.72 442.09,-184.27 447.76,-193.21 452.1,-187.72"/>
</a>
</g>
</g>
<!-- Node16&#45;&gt;Node5 -->
<g id="edge19_Node000016_Node000005" class="edge">
<title>Node16&#45;&gt;Node5</title>
<g id="a_edge19_Node000016_Node000005"><a xlink:title=" ">
<path fill="none" stroke="#63b8ff" d="M442.11,-164.81C460.76,-150.74 500.05,-123.19 538,-110 616.66,-82.65 711.24,-71.98 779.13,-67.89"/>
<polygon fill="#63b8ff" stroke="#63b8ff" points="779.58,-71.37 789.36,-67.31 779.18,-64.38 779.58,-71.37"/>
</a>
</g>
</g>
<!-- Node16&#45;&gt;Node9 -->
<g id="edge20_Node000016_Node000009" class="edge">
<title>Node16&#45;&gt;Node9</title>
<g id="a_edge20_Node000016_Node000009"><a xlink:title=" ">
<path fill="none" stroke="#63b8ff" d="M468.76,-164.98C513.92,-154.8 588.84,-137.9 632.19,-128.13"/>
<polygon fill="#63b8ff" stroke="#63b8ff" points="632.98,-131.53 641.97,-125.92 631.44,-124.71 632.98,-131.53"/>
</a>
</g>
</g>
<!-- Node17&#45;&gt;Node12 -->
<g id="edge22_Node000017_Node000012" class="edge">
<title>Node17&#45;&gt;Node12</title>
<g id="a_edge22_Node000017_Node000012"><a xlink:title=" ">
<path fill="none" stroke="#63b8ff" d="M298.42,-219.99C275.94,-210.31 246.28,-197.56 224.49,-188.18"/>
<polygon fill="#63b8ff" stroke="#63b8ff" points="225.65,-184.88 215.08,-184.14 222.89,-191.31 225.65,-184.88"/>
</a>
</g>
</g>
<!-- Node18&#45;&gt;Node12 -->
<g id="edge24_Node000018_Node000012" class="edge">
<title>Node18&#45;&gt;Node12</title>
<g id="a_edge24_Node000018_Node000012"><a xlink:title=" ">
<path fill="none" stroke="#63b8ff" d="M115.72,-225.37C130.7,-215.95 154.89,-200.73 172.62,-189.58"/>
<polygon fill="#63b8ff" stroke="#63b8ff" points="174.62,-192.45 181.22,-184.17 170.89,-186.53 174.62,-192.45"/>
</a>
</g>
</g>
<!-- Node19&#45;&gt;Node3 -->
<g id="edge26_Node000019_Node000003" class="edge">
<title>Node19&#45;&gt;Node3</title>
<g id="a_edge26_Node000019_Node000003"><a xlink:title=" ">
<path fill="none" stroke="#63b8ff" d="M480.11,-351.8C482.1,-342.7 484.7,-330.79 486.87,-320.9"/>
<polygon fill="#63b8ff" stroke="#63b8ff" points="490.35,-321.36 489.07,-310.84 483.51,-319.87 490.35,-321.36"/>
</a>
</g>
</g>
<!-- Node19&#45;&gt;Node9 -->
<g id="edge31_Node000019_Node000009" class="edge">
<title>Node19&#45;&gt;Node9</title>
<g id="a_edge31_Node000019_Node000009"><a xlink:title=" ">
<path fill="none" stroke="#63b8ff" d="M514.06,-351.85C532.06,-343.54 553,-331.58 568,-316 594.71,-288.27 640.61,-181.77 658.53,-138.72"/>
<polygon fill="#63b8ff" stroke="#63b8ff" points="661.86,-139.8 662.45,-129.23 655.39,-137.13 661.86,-139.8"/>
</a>
</g>
</g>
<!-- Node20 -->
<g id="Node000020" class="node">
<title>Node20</title>
<g id="a_Node000020"><a xlink:href="../../df/dee/CommonAcceleratorGlobal_8h_source.html" target="_top" xlink:title=" ">
<polygon fill="white" stroke="#666666" points="380,-316 220,-316 220,-286 380,-286 380,-316"/>
<text text-anchor="start" x="228" y="-304" font-family="Helvetica,sans-Serif" font-size="10.00">arccore/common/accelerator</text>
<text text-anchor="middle" x="300" y="-293" font-family="Helvetica,sans-Serif" font-size="10.00">/CommonAcceleratorGlobal.h</text>
</a>
</g>
</g>
<!-- Node19&#45;&gt;Node20 -->
<g id="edge27_Node000019_Node000020" class="edge">
<title>Node19&#45;&gt;Node20</title>
<g id="a_edge27_Node000019_Node000020"><a xlink:title=" ">
<path fill="none" stroke="#63b8ff" d="M438.16,-351.95C411.76,-342.41 376.64,-329.71 348.42,-319.51"/>
<polygon fill="#63b8ff" stroke="#63b8ff" points="349.35,-316.12 338.75,-316.01 346.97,-322.7 349.35,-316.12"/>
</a>
</g>
</g>
<!-- Node20&#45;&gt;Node9 -->
<g id="edge30_Node000020_Node000009" class="edge">
<title>Node20&#45;&gt;Node9</title>
<g id="a_edge30_Node000020_Node000009"><a xlink:title=" ">
<path fill="none" stroke="#63b8ff" d="M380.33,-288.86C454.6,-277.97 555.75,-261.41 571,-250 604.9,-224.63 587.85,-198.3 614,-165 622.83,-153.76 634.84,-143.25 645.1,-135.28"/>
<polygon fill="#63b8ff" stroke="#63b8ff" points="647.29,-138.01 653.19,-129.21 643.09,-132.41 647.29,-138.01"/>
</a>
</g>
</g>
<!-- Node20&#45;&gt;Node16 -->
<g id="edge28_Node000020_Node000016" class="edge">
<title>Node20&#45;&gt;Node16</title>
<g id="a_edge28_Node000020_Node000016"><a xlink:title=" ">
<path fill="none" stroke="#63b8ff" d="M284.02,-285.72C267.15,-268.91 245.04,-240.67 261,-220 273.12,-204.3 316.76,-193.08 356.78,-185.82"/>
<polygon fill="#63b8ff" stroke="#63b8ff" points="357.61,-189.23 366.86,-184.06 356.41,-182.34 357.61,-189.23"/>
</a>
</g>
</g>
<!-- Node20&#45;&gt;Node18 -->
<g id="edge29_Node000020_Node000018" class="edge">
<title>Node20&#45;&gt;Node18</title>
<g id="a_edge29_Node000020_Node000018"><a xlink:title=" ">
<path fill="none" stroke="#63b8ff" d="M256.55,-285.95C221.06,-274.48 171.49,-258.46 138.14,-247.68"/>
<polygon fill="#63b8ff" stroke="#63b8ff" points="138.94,-244.26 128.35,-244.52 136.79,-250.92 138.94,-244.26"/>
</a>
</g>
</g>
<!-- Node22 -->
<g id="Node000022" class="node">
<title>Node22</title>
<g id="a_Node000022"><a xlink:href="../../dd/d04/DataTypeTraits_8h_source.html" target="_top" xlink:title=" ">
<polygon fill="white" stroke="#666666" points="1080,-514 960,-514 960,-484 1080,-484 1080,-514"/>
<text text-anchor="start" x="968" y="-502" font-family="Helvetica,sans-Serif" font-size="10.00">arcane/core/datatype</text>
<text text-anchor="middle" x="1020" y="-491" font-family="Helvetica,sans-Serif" font-size="10.00">/DataTypeTraits.h</text>
</a>
</g>
</g>
<!-- Node21&#45;&gt;Node22 -->
<g id="edge35_Node000021_Node000022" class="edge">
<title>Node21&#45;&gt;Node22</title>
<g id="a_edge35_Node000021_Node000022"><a xlink:title=" ">
<path fill="none" stroke="#63b8ff" d="M872.16,-549.99C897.38,-541.46 936.94,-528.09 968.79,-517.32"/>
<polygon fill="#63b8ff" stroke="#63b8ff" points="970.06,-520.58 978.41,-514.06 967.81,-513.95 970.06,-520.58"/>
</a>
</g>
</g>
<!-- Node23 -->
<g id="Node000023" class="node">
<title>Node23</title>
<g id="a_Node000023"><a xlink:href="../../db/d48/arcane_2src_2arcane_2utils_2BasicDataType_8h_source.html" target="_top" xlink:title=" ">
<polygon fill="white" stroke="#666666" points="992,-442.5 834,-442.5 834,-423.5 992,-423.5 992,-442.5"/>
<text text-anchor="middle" x="913" y="-430.5" font-family="Helvetica,sans-Serif" font-size="10.00">arcane/utils/BasicDataType.h</text>
</a>
</g>
</g>
<!-- Node22&#45;&gt;Node23 -->
<g id="edge36_Node000022_Node000023" class="edge">
<title>Node22&#45;&gt;Node23</title>
<g id="a_edge36_Node000022_Node000023"><a xlink:title=" ">
<path fill="none" stroke="#63b8ff" d="M996.52,-483.95C978.5,-473.18 953.76,-458.38 935.89,-447.69"/>
<polygon fill="#63b8ff" stroke="#63b8ff" points="937.62,-444.65 927.24,-442.52 934.03,-450.65 937.62,-444.65"/>
</a>
</g>
</g>
<!-- Node25 -->
<g id="Node000025" class="node">
<title>Node25</title>
<g id="a_Node000025"><a xlink:href="../../da/ddd/arcane_2src_2arcane_2utils_2BFloat16_8h_source.html" target="_top" xlink:title=" ">
<polygon fill="white" stroke="#666666" points="1275.5,-310.5 1146.5,-310.5 1146.5,-291.5 1275.5,-291.5 1275.5,-310.5"/>
<text text-anchor="middle" x="1211" y="-298.5" font-family="Helvetica,sans-Serif" font-size="10.00">arcane/utils/BFloat16.h</text>
</a>
</g>
</g>
<!-- Node22&#45;&gt;Node25 -->
<g id="edge40_Node000022_Node000025" class="edge">
<title>Node22&#45;&gt;Node25</title>
<g id="a_edge40_Node000022_Node000025"><a xlink:title=" ">
<path fill="none" stroke="#63b8ff" d="M1033.74,-483.9C1068.25,-448.49 1158.45,-355.92 1195.14,-318.28"/>
<polygon fill="#63b8ff" stroke="#63b8ff" points="1198.02,-320.33 1202.5,-310.73 1193.01,-315.45 1198.02,-320.33"/>
</a>
</g>
</g>
<!-- Node29 -->
<g id="Node000029" class="node">
<title>Node29</title>
<g id="a_Node000029"><a xlink:href="../../d5/d3b/arcane_2src_2arcane_2utils_2Float16_8h_source.html" target="_top" xlink:title=" ">
<polygon fill="white" stroke="#666666" points="1416,-310.5 1294,-310.5 1294,-291.5 1416,-291.5 1416,-310.5"/>
<text text-anchor="middle" x="1355" y="-298.5" font-family="Helvetica,sans-Serif" font-size="10.00">arcane/utils/Float16.h</text>
</a>
</g>
</g>
<!-- Node22&#45;&gt;Node29 -->
<g id="edge46_Node000022_Node000029" class="edge">
<title>Node22&#45;&gt;Node29</title>
<g id="a_edge46_Node000022_Node000029"><a xlink:title=" ">
<path fill="none" stroke="#63b8ff" d="M1044.09,-483.9C1106.04,-447.66 1270.28,-351.57 1331.53,-315.73"/>
<polygon fill="#63b8ff" stroke="#63b8ff" points="1333.58,-318.59 1340.45,-310.51 1330.05,-312.54 1333.58,-318.59"/>
</a>
</g>
</g>
<!-- Node31 -->
<g id="Node000031" class="node">
<title>Node31</title>
<g id="a_Node000031"><a xlink:href="../../d8/d3d/arcane_2src_2arcane_2utils_2Float128_8h_source.html" target="_top" xlink:title=" ">
<polygon fill="white" stroke="#666666" points="1128,-310.5 1000,-310.5 1000,-291.5 1128,-291.5 1128,-310.5"/>
<text text-anchor="middle" x="1064" y="-298.5" font-family="Helvetica,sans-Serif" font-size="10.00">arcane/utils/Float128.h</text>
</a>
</g>
</g>
<!-- Node22&#45;&gt;Node31 -->
<g id="edge50_Node000022_Node000031" class="edge">
<title>Node22&#45;&gt;Node31</title>
<g id="a_edge50_Node000022_Node000031"><a xlink:title=" ">
<path fill="none" stroke="#63b8ff" d="M1024.31,-483.63C1027.23,-473.67 1031.07,-460.09 1034,-448 1045.04,-402.47 1055.47,-348.31 1060.63,-320.51"/>
<polygon fill="#63b8ff" stroke="#63b8ff" points="1064.08,-321.07 1062.45,-310.6 1057.2,-319.81 1064.08,-321.07"/>
</a>
</g>
</g>
<!-- Node33 -->
<g id="Node000033" class="node">
<title>Node33</title>
<g id="a_Node000033"><a xlink:href="../../d6/de6/arcane_2src_2arcane_2utils_2Int128_8h_source.html" target="_top" xlink:title=" ">
<polygon fill="white" stroke="#666666" points="982,-310.5 866,-310.5 866,-291.5 982,-291.5 982,-310.5"/>
<text text-anchor="middle" x="924" y="-298.5" font-family="Helvetica,sans-Serif" font-size="10.00">arcane/utils/Int128.h</text>
</a>
</g>
</g>
<!-- Node22&#45;&gt;Node33 -->
<g id="edge54_Node000022_Node000033" class="edge">
<title>Node22&#45;&gt;Node33</title>
<g id="a_edge54_Node000022_Node000033"><a xlink:title=" ">
<path fill="none" stroke="#63b8ff" d="M1018.19,-483.94C1015.75,-467.58 1010.55,-440 1001,-418 984.33,-379.61 954.99,-340.09 937.74,-318.52"/>
<polygon fill="#63b8ff" stroke="#63b8ff" points="940.39,-316.23 931.36,-310.68 934.96,-320.65 940.39,-316.23"/>
</a>
</g>
</g>
<!-- Node35 -->
<g id="Node000035" class="node">
<title>Node35</title>
<g id="a_Node000035"><a xlink:href="../../d0/d7e/ArcaneTypes_8h.html" target="_top" xlink:title="Déclarations des types généraux de Arcane.">
<polygon fill="white" stroke="#666666" points="815.5,-442.5 668.5,-442.5 668.5,-423.5 815.5,-423.5 815.5,-442.5"/>
<text text-anchor="middle" x="742" y="-430.5" font-family="Helvetica,sans-Serif" font-size="10.00">arcane/core/ArcaneTypes.h</text>
</a>
</g>
</g>
<!-- Node22&#45;&gt;Node35 -->
<g id="edge58_Node000022_Node000035" class="edge">
<title>Node22&#45;&gt;Node35</title>
<g id="a_edge58_Node000022_Node000035"><a xlink:title=" ">
<path fill="none" stroke="#63b8ff" d="M959.68,-484.11C908.5,-472.33 836.1,-455.66 789.1,-444.84"/>
<polygon fill="#63b8ff" stroke="#63b8ff" points="789.72,-441.39 779.19,-442.56 788.15,-448.22 789.72,-441.39"/>
</a>
</g>
</g>
<!-- Node24 -->
<g id="Node000024" class="node">
<title>Node24</title>
<g id="a_Node000024"><a xlink:href="../../dd/d5e/arccore_2src_2base_2arccore_2base_2BasicDataType_8h.html" target="_top" xlink:title="Fichier contenant les définitions des types de données basiques gérés par Arccore.">
<polygon fill="white" stroke="#666666" points="895.5,-184 732.5,-184 732.5,-165 895.5,-165 895.5,-184"/>
<text text-anchor="middle" x="814" y="-172" font-family="Helvetica,sans-Serif" font-size="10.00">arccore/base/BasicDataType.h</text>
</a>
</g>
</g>
<!-- Node23&#45;&gt;Node24 -->
<g id="edge37_Node000023_Node000024" class="edge">
<title>Node23&#45;&gt;Node24</title>
<g id="a_edge37_Node000023_Node000024"><a xlink:title=" ">
<path fill="none" stroke="#63b8ff" d="M908.32,-423.47C898.07,-404.55 873.23,-357.44 857,-316 840.23,-273.21 825.77,-221.05 818.67,-193.91"/>
<polygon fill="#63b8ff" stroke="#63b8ff" points="822.05,-193.02 816.17,-184.21 815.28,-194.77 822.05,-193.02"/>
</a>
</g>
</g>
<!-- Node24&#45;&gt;Node5 -->
<g id="edge38_Node000024_Node000005" class="edge">
<title>Node24&#45;&gt;Node5</title>
<g id="a_edge38_Node000024_Node000005"><a xlink:title=" ">
<path fill="none" stroke="#63b8ff" d="M817.89,-164.78C823.43,-152.45 834.04,-129.28 844,-110 848.62,-101.04 854.07,-91.26 858.7,-83.15"/>
<polygon fill="#63b8ff" stroke="#63b8ff" points="861.87,-84.68 863.83,-74.27 855.8,-81.18 861.87,-84.68"/>
</a>
</g>
</g>
<!-- Node24&#45;&gt;Node9 -->
<g id="edge39_Node000024_Node000009" class="edge">
<title>Node24&#45;&gt;Node9</title>
<g id="a_edge39_Node000024_Node000009"><a xlink:title=" ">
<path fill="none" stroke="#63b8ff" d="M790.22,-164.98C765.77,-156.23 727.47,-142.51 699.85,-132.62"/>
<polygon fill="#63b8ff" stroke="#63b8ff" points="700.81,-129.25 690.21,-129.17 698.45,-135.84 700.81,-129.25"/>
</a>
</g>
</g>
<!-- Node25&#45;&gt;Node4 -->
<g id="edge41_Node000025_Node000004" class="edge">
<title>Node25&#45;&gt;Node4</title>
<g id="a_edge41_Node000025_Node000004"><a xlink:title=" ">
<path fill="none" stroke="#63b8ff" d="M1198.59,-291.37C1183.64,-280.97 1158.28,-263.32 1140.2,-250.75"/>
<polygon fill="#63b8ff" stroke="#63b8ff" points="1141.71,-247.54 1131.5,-244.7 1137.72,-253.28 1141.71,-247.54"/>
</a>
</g>
</g>
<!-- Node26 -->
<g id="Node000026" class="node">
<title>Node26</title>
<g id="a_Node000026"><a xlink:href="../../d1/d53/arccore_2src_2base_2arccore_2base_2BFloat16_8h_source.html" target="_top" xlink:title=" ">
<polygon fill="white" stroke="#666666" points="1347,-244.5 1213,-244.5 1213,-225.5 1347,-225.5 1347,-244.5"/>
<text text-anchor="middle" x="1280" y="-232.5" font-family="Helvetica,sans-Serif" font-size="10.00">arccore/base/BFloat16.h</text>
</a>
</g>
</g>
<!-- Node25&#45;&gt;Node26 -->
<g id="edge42_Node000025_Node000026" class="edge">
<title>Node25&#45;&gt;Node26</title>
<g id="a_edge42_Node000025_Node000026"><a xlink:title=" ">
<path fill="none" stroke="#63b8ff" d="M1220.31,-291.37C1231.15,-281.31 1249.3,-264.48 1262.74,-252.01"/>
<polygon fill="#63b8ff" stroke="#63b8ff" points="1265.45,-254.27 1270.4,-244.91 1260.69,-249.14 1265.45,-254.27"/>
</a>
</g>
</g>
<!-- Node27 -->
<g id="Node000027" class="node">
<title>Node27</title>
<g id="a_Node000027"><a xlink:href="../../d3/d52/FloatConversion_8h_source.html" target="_top" xlink:title=" ">
<polygon fill="white" stroke="#666666" points="1488,-184 1318,-184 1318,-165 1488,-165 1488,-184"/>
<text text-anchor="middle" x="1403" y="-172" font-family="Helvetica,sans-Serif" font-size="10.00">arccore/base/FloatConversion.h</text>
</a>
</g>
</g>
<!-- Node26&#45;&gt;Node27 -->
<g id="edge43_Node000026_Node000027" class="edge">
<title>Node26&#45;&gt;Node27</title>
<g id="a_edge43_Node000026_Node000027"><a xlink:title=" ">
<path fill="none" stroke="#63b8ff" d="M1297.89,-225.49C1318.38,-215.75 1352.19,-199.66 1375.92,-188.38"/>
<polygon fill="#63b8ff" stroke="#63b8ff" points="1377.57,-191.47 1385.09,-184.02 1374.56,-185.15 1377.57,-191.47"/>
</a>
</g>
</g>
<!-- Node27&#45;&gt;Node5 -->
<g id="edge44_Node000027_Node000005" class="edge">
<title>Node27&#45;&gt;Node5</title>
<g id="a_edge44_Node000027_Node000005"><a xlink:title=" ">
<path fill="none" stroke="#63b8ff" d="M1403.24,-164.88C1403.11,-150.91 1400.6,-123.51 1384,-110 1351.83,-83.82 1097.54,-72.24 958.72,-67.83"/>
<polygon fill="#63b8ff" stroke="#63b8ff" points="958.63,-64.33 948.52,-67.52 958.41,-71.33 958.63,-64.33"/>
</a>
</g>
</g>
<!-- Node28 -->
<g id="Node000028" class="node">
<title>Node28</title>
<g id="a_Node000028"><a xlink:title=" ">
<polygon fill="#e0e0e0" stroke="#999999" points="1375,-129 1325,-129 1325,-110 1375,-110 1375,-129"/>
<text text-anchor="middle" x="1350" y="-117" font-family="Helvetica,sans-Serif" font-size="10.00">cstring</text>
</a>
</g>
</g>
<!-- Node27&#45;&gt;Node28 -->
<g id="edge45_Node000027_Node000028" class="edge">
<title>Node27&#45;&gt;Node28</title>
<g id="a_edge45_Node000027_Node000028"><a xlink:title=" ">
<path fill="none" stroke="#63b8ff" d="M1394.25,-164.75C1386.53,-157.03 1375.1,-145.6 1365.78,-136.28"/>
<polygon fill="#63b8ff" stroke="#63b8ff" points="1368.14,-133.69 1358.59,-129.09 1363.19,-138.64 1368.14,-133.69"/>
</a>
</g>
</g>
<!-- Node29&#45;&gt;Node4 -->
<g id="edge47_Node000029_Node000004" class="edge">
<title>Node29&#45;&gt;Node4</title>
<g id="a_edge47_Node000029_Node000004"><a xlink:title=" ">
<path fill="none" stroke="#63b8ff" d="M1323.17,-291.37C1281.09,-279.96 1206.86,-259.83 1160.44,-247.24"/>
<polygon fill="#63b8ff" stroke="#63b8ff" points="1161.27,-243.84 1150.7,-244.6 1159.44,-250.59 1161.27,-243.84"/>
</a>
</g>
</g>
<!-- Node30 -->
<g id="Node000030" class="node">
<title>Node30</title>
<g id="a_Node000030"><a xlink:href="../../d7/d56/arccore_2src_2base_2arccore_2base_2Float16_8h_source.html" target="_top" xlink:title=" ">
<polygon fill="white" stroke="#666666" points="1493,-244.5 1365,-244.5 1365,-225.5 1493,-225.5 1493,-244.5"/>
<text text-anchor="middle" x="1429" y="-232.5" font-family="Helvetica,sans-Serif" font-size="10.00">arccore/base/Float16.h</text>
</a>
</g>
</g>
<!-- Node29&#45;&gt;Node30 -->
<g id="edge48_Node000029_Node000030" class="edge">
<title>Node29&#45;&gt;Node30</title>
<g id="a_edge48_Node000029_Node000030"><a xlink:title=" ">
<path fill="none" stroke="#63b8ff" d="M1364.98,-291.37C1376.72,-281.21 1396.44,-264.16 1410.9,-251.65"/>
<polygon fill="#63b8ff" stroke="#63b8ff" points="1413.43,-254.09 1418.7,-244.91 1408.85,-248.8 1413.43,-254.09"/>
</a>
</g>
</g>
<!-- Node30&#45;&gt;Node27 -->
<g id="edge49_Node000030_Node000027" class="edge">
<title>Node30&#45;&gt;Node27</title>
<g id="a_edge49_Node000030_Node000027"><a xlink:title=" ">
<path fill="none" stroke="#63b8ff" d="M1425.16,-225.37C1421.44,-216.99 1415.67,-204.01 1410.95,-193.39"/>
<polygon fill="#63b8ff" stroke="#63b8ff" points="1414.11,-191.88 1406.85,-184.17 1407.72,-194.73 1414.11,-191.88"/>
</a>
</g>
</g>
<!-- Node31&#45;&gt;Node4 -->
<g id="edge51_Node000031_Node000004" class="edge">
<title>Node31&#45;&gt;Node4</title>
<g id="a_edge51_Node000031_Node000004"><a xlink:title=" ">
<path fill="none" stroke="#63b8ff" d="M1071.42,-291.37C1079.9,-281.5 1093.98,-265.11 1104.63,-252.72"/>
<polygon fill="#63b8ff" stroke="#63b8ff" points="1107.48,-254.77 1111.35,-244.91 1102.17,-250.21 1107.48,-254.77"/>
</a>
</g>
</g>
<!-- Node32 -->
<g id="Node000032" class="node">
<title>Node32</title>
<g id="a_Node000032"><a xlink:href="../../dc/da9/arccore_2src_2base_2arccore_2base_2Float128_8h_source.html" target="_top" xlink:title=" ">
<polygon fill="white" stroke="#666666" points="1086,-184 952,-184 952,-165 1086,-165 1086,-184"/>
<text text-anchor="middle" x="1019" y="-172" font-family="Helvetica,sans-Serif" font-size="10.00">arccore/base/Float128.h</text>
</a>
</g>
</g>
<!-- Node31&#45;&gt;Node32 -->
<g id="edge52_Node000031_Node000032" class="edge">
<title>Node31&#45;&gt;Node32</title>
<g id="a_edge52_Node000031_Node000032"><a xlink:title=" ">
<path fill="none" stroke="#63b8ff" d="M1057.75,-291.22C1051.16,-281.55 1040.93,-265.35 1035,-250 1027.94,-231.71 1023.69,-209.62 1021.36,-194.27"/>
<polygon fill="#63b8ff" stroke="#63b8ff" points="1024.78,-193.44 1019.95,-184.02 1017.85,-194.4 1024.78,-193.44"/>
</a>
</g>
</g>
<!-- Node32&#45;&gt;Node5 -->
<g id="edge53_Node000032_Node000005" class="edge">
<title>Node32&#45;&gt;Node5</title>
<g id="a_edge53_Node000032_Node000005"><a xlink:title=" ">
<path fill="none" stroke="#63b8ff" d="M1016.39,-164.87C1011.89,-151.38 1001.44,-125.24 984,-110 965.97,-94.24 941.73,-83.76 920.16,-76.95"/>
<polygon fill="#63b8ff" stroke="#63b8ff" points="921.05,-73.56 910.47,-74.07 919.06,-80.27 921.05,-73.56"/>
</a>
</g>
</g>
<!-- Node33&#45;&gt;Node4 -->
<g id="edge55_Node000033_Node000004" class="edge">
<title>Node33&#45;&gt;Node4</title>
<g id="a_edge55_Node000033_Node000004"><a xlink:title=" ">
<path fill="none" stroke="#63b8ff" d="M950.3,-291.37C984.56,-280.12 1044.61,-260.42 1083.05,-247.8"/>
<polygon fill="#63b8ff" stroke="#63b8ff" points="1084.4,-251.04 1092.81,-244.6 1082.21,-244.39 1084.4,-251.04"/>
</a>
</g>
</g>
<!-- Node34 -->
<g id="Node000034" class="node">
<title>Node34</title>
<g id="a_Node000034"><a xlink:href="../../d9/d1c/arccore_2src_2base_2arccore_2base_2Int128_8h_source.html" target="_top" xlink:title=" ">
<polygon fill="white" stroke="#666666" points="975,-129 853,-129 853,-110 975,-110 975,-129"/>
<text text-anchor="middle" x="914" y="-117" font-family="Helvetica,sans-Serif" font-size="10.00">arccore/base/Int128.h</text>
</a>
</g>
</g>
<!-- Node33&#45;&gt;Node34 -->
<g id="edge56_Node000033_Node000034" class="edge">
<title>Node33&#45;&gt;Node34</title>
<g id="a_edge56_Node000033_Node000034"><a xlink:title=" ">
<path fill="none" stroke="#63b8ff" d="M923.52,-291.34C921.98,-263.8 917.19,-177.76 915.05,-139.34"/>
<polygon fill="#63b8ff" stroke="#63b8ff" points="918.53,-138.86 914.48,-129.07 911.54,-139.25 918.53,-138.86"/>
</a>
</g>
</g>
<!-- Node34&#45;&gt;Node5 -->
<g id="edge57_Node000034_Node000005" class="edge">
<title>Node34&#45;&gt;Node5</title>
<g id="a_edge57_Node000034_Node000005"><a xlink:title=" ">
<path fill="none" stroke="#63b8ff" d="M906.57,-109.75C900.15,-102.18 890.69,-91.05 882.88,-81.84"/>
<polygon fill="#63b8ff" stroke="#63b8ff" points="885.43,-79.45 876.29,-74.09 880.1,-83.98 885.43,-79.45"/>
</a>
</g>
</g>
<!-- Node35&#45;&gt;Node3 -->
<g id="edge59_Node000035_Node000003" class="edge">
<title>Node35&#45;&gt;Node3</title>
<g id="a_edge59_Node000035_Node000003"><a xlink:title=" ">
<path fill="none" stroke="#63b8ff" d="M725.37,-423.34C697.15,-408.64 638.04,-377.89 588,-352 563.85,-339.5 536.29,-325.3 516.74,-315.24"/>
<polygon fill="#63b8ff" stroke="#63b8ff" points="518.32,-312.12 507.83,-310.66 515.12,-318.34 518.32,-312.12"/>
</a>
</g>
</g>
<!-- Node36 -->
<g id="Node000036" class="node">
<title>Node36</title>
<g id="a_Node000036"><a xlink:href="../../d2/d12/DataTypes_8h.html" target="_top" xlink:title="Fichier contenant les définitions des types de données gérés par Arcane.">
<polygon fill="white" stroke="#666666" points="810,-382 690,-382 690,-352 810,-352 810,-382"/>
<text text-anchor="start" x="698" y="-370" font-family="Helvetica,sans-Serif" font-size="10.00">arcane/core/datatype</text>
<text text-anchor="middle" x="750" y="-359" font-family="Helvetica,sans-Serif" font-size="10.00">/DataTypes.h</text>
</a>
</g>
</g>
<!-- Node35&#45;&gt;Node36 -->
<g id="edge60_Node000035_Node000036" class="edge">
<title>Node35&#45;&gt;Node36</title>
<g id="a_edge60_Node000035_Node000036"><a xlink:title=" ">
<path fill="none" stroke="#63b8ff" d="M743.08,-423.37C744.06,-415.49 745.57,-403.45 746.92,-392.6"/>
<polygon fill="#63b8ff" stroke="#63b8ff" points="750.44,-392.72 748.2,-382.36 743.49,-391.85 750.44,-392.72"/>
</a>
</g>
</g>
<!-- Node36&#45;&gt;Node3 -->
<g id="edge61_Node000036_Node000003" class="edge">
<title>Node36&#45;&gt;Node3</title>
<g id="a_edge61_Node000036_Node000003"><a xlink:title=" ">
<path fill="none" stroke="#63b8ff" d="M693.16,-351.95C645.64,-340.21 578.81,-323.7 535.21,-312.93"/>
<polygon fill="#63b8ff" stroke="#63b8ff" points="536.02,-309.52 525.47,-310.52 534.34,-316.31 536.02,-309.52"/>
</a>
</g>
</g>
<!-- Node36&#45;&gt;Node9 -->
<g id="edge62_Node000036_Node000009" class="edge">
<title>Node36&#45;&gt;Node9</title>
<g id="a_edge62_Node000036_Node000009"><a xlink:title=" ">
<path fill="none" stroke="#63b8ff" d="M745.12,-351.74C730.7,-309.59 688.27,-185.59 672.23,-138.72"/>
<polygon fill="#63b8ff" stroke="#63b8ff" points="675.54,-137.58 668.99,-129.25 668.92,-139.84 675.54,-137.58"/>
</a>
</g>
</g>
<!-- Node37&#45;&gt;Node19 -->
<g id="edge64_Node000037_Node000019" class="edge">
<title>Node37&#45;&gt;Node19</title>
<g id="a_edge64_Node000037_Node000019"><a xlink:title=" ">
<path fill="none" stroke="#63b8ff" d="M455.99,-417.8C459.24,-410.09 463.35,-400.37 467.06,-391.56"/>
<polygon fill="#63b8ff" stroke="#63b8ff" points="470.36,-392.74 471.02,-382.16 463.91,-390.02 470.36,-392.74"/>
</a>
</g>
</g>
<!-- Node38 -->
<g id="Node000038" class="node">
<title>Node38</title>
<g id="a_Node000038"><a xlink:href="../../de/d87/arccore_2src_2common_2arccore_2common_2accelerator_2ViewBuildInfo_8h_source.html" target="_top" xlink:title=" ">
<polygon fill="white" stroke="#666666" points="378,-382 222,-382 222,-352 378,-352 378,-382"/>
<text text-anchor="start" x="230" y="-370" font-family="Helvetica,sans-Serif" font-size="10.00">arccore/common/accelerator</text>
<text text-anchor="middle" x="300" y="-359" font-family="Helvetica,sans-Serif" font-size="10.00">/ViewBuildInfo.h</text>
</a>
</g>
</g>
<!-- Node37&#45;&gt;Node38 -->
<g id="edge65_Node000037_Node000038" class="edge">
<title>Node37&#45;&gt;Node38</title>
<g id="a_edge65_Node000037_Node000038"><a xlink:title=" ">
<path fill="none" stroke="#63b8ff" d="M417.08,-417.95C395.1,-408.58 365.99,-396.16 342.29,-386.05"/>
<polygon fill="#63b8ff" stroke="#63b8ff" points="343.41,-382.72 332.84,-382.01 340.67,-389.16 343.41,-382.72"/>
</a>
</g>
</g>
<!-- Node38&#45;&gt;Node20 -->
<g id="edge66_Node000038_Node000020" class="edge">
<title>Node38&#45;&gt;Node20</title>
<g id="a_edge66_Node000038_Node000020"><a xlink:title=" ">
<path fill="none" stroke="#63b8ff" d="M300,-351.8C300,-344.34 300,-334.99 300,-326.41"/>
<polygon fill="#63b8ff" stroke="#63b8ff" points="303.5,-326.16 300,-316.16 296.5,-326.16 303.5,-326.16"/>
</a>
</g>
</g>
</g>
</svg>

<g id="navigator" transform="translate(0 0)" fill="#404254">
  <rect fill="#f2f5e9" fill-opacity="0.5" stroke="#606060" stroke-width=".5" x="0" y="0" width="60" height="60"/>
  <use id="zoomplus" xlink:href="#zoomPlus" x="17" y="9" onmousedown="handleZoom(evt,'in')"/>
  <use id="zoomminus" xlink:href="#zoomMin" x="42" y="9" onmousedown="handleZoom(evt,'out')"/>
  <use id="reset" xlink:href="#resetDef" x="30" y="36" onmousedown="handleReset()"/>
   <use id="arrowup" xlink:href="#arrowUp" x="0" y="0" onmousedown="handlePan(0,-1)"/>
  <use id="arrowright" xlink:href="#arrowRight" x="0" y="0" onmousedown="handlePan(1,0)"/>
  <use id="arrowdown" xlink:href="#arrowDown" x="0" y="0" onmousedown="handlePan(0,1)"/>
  <use id="arrowleft" xlink:href="#arrowLeft" x="0" y="0" onmousedown="handlePan(-1,0)"/>
</g>
<svg viewBox="0 0 15 15" width="100%" height="30px" preserveAspectRatio="xMaxYMin meet">
 <g id="arrow_out" transform="scale(0.3 0.3)">
  <a xlink:href="ViewsCommon_8h__incl_org.svg" target="_base">
   <rect id="button" ry="5" rx="5" y="6" x="6" height="38" width="38"
        fill="#f2f5e9" fill-opacity="0.5" stroke="#606060" stroke-width="1.0"/>
   <path id="arrow"
     d="M 11.500037,31.436501 C 11.940474,20.09759 22.043105,11.32322 32.158766,21.979434 L 37.068811,17.246167 C 37.068811,17.246167 37.088388,32 37.088388,32 L 22.160133,31.978069 C 22.160133,31.978069 26.997745,27.140456 26.997745,27.140456 C 18.528582,18.264221 13.291696,25.230495 11.500037,31.436501 z"
     style="fill:#404040;"/>
  </a>
 </g>
</svg>

<style type='text/css'>
<![CDATA[
[data-mouse-over-selected='false'] { opacity: 0.7; }
[data-mouse-over-selected='true']  { opacity: 1.0; }
]]>
</style>
<script type="application/ecmascript"><![CDATA[
document.addEventListener('DOMContentLoaded', (event) => {
  highlightEdges();
  highlightAdjacentNodes();
});
]]></script>
</svg>
