<?xml version="1.0" encoding="UTF-8" standalone="no"?>
<!DOCTYPE svg PUBLIC "-//W3C//DTD SVG 1.1//EN"
 "http://www.w3.org/Graphics/SVG/1.1/DTD/svg11.dtd">
<!-- Generated by graphviz version 2.43.0 (0)
 -->
<!-- Title: Arcane::MemoryUtils::copy Pages: 1 -->
<svg width="504pt" height="161pt"
 viewBox="0.00 0.00 504.00 160.50" xmlns="http://www.w3.org/2000/svg" xmlns:xlink="http://www.w3.org/1999/xlink">
<g id="graph0" class="graph" transform="scale(1 1) rotate(0) translate(4 156.5)">
<title>Arcane::MemoryUtils::copy</title>
<!-- Node1 -->
<g id="Node000001" class="node">
<title>Node1</title>
<g id="a_Node000001"><a xlink:title="Copie de source vers destination en utilisant la file queue.">
<polygon fill="#999999" stroke="#666666" points="119,-121 0,-121 0,-91 119,-91 119,-121"/>
<text text-anchor="start" x="8" y="-109" font-family="Helvetica,sans-Serif" font-size="10.00">Arcane::MemoryUtils</text>
<text text-anchor="middle" x="59.5" y="-98" font-family="Helvetica,sans-Serif" font-size="10.00">::copy</text>
</a>
</g>
</g>
<!-- Node2 -->
<g id="Node000002" class="node">
<title>Node2</title>
<g id="a_Node000002"><a xlink:href="../../d0/d32/namespaceArcane.html#ab78f9399c2b501a971109b8de0022ebc" target="_top" xlink:title="Converti la vue en un tableau d&#39;octets non modifiables.">
<polygon fill="white" stroke="#666666" points="271,-115.5 176,-115.5 176,-96.5 271,-96.5 271,-115.5"/>
<text text-anchor="middle" x="223.5" y="-103.5" font-family="Helvetica,sans-Serif" font-size="10.00">Arcane::asBytes</text>
</a>
</g>
</g>
<!-- Node1&#45;&gt;Node2 -->
<g id="edge1_Node000001_Node000002" class="edge">
<title>Node1&#45;&gt;Node2</title>
<g id="a_edge1_Node000001_Node000002"><a xlink:title=" ">
<path fill="none" stroke="#63b8ff" d="M119.44,-106C134.51,-106 150.68,-106 165.65,-106"/>
<polygon fill="#63b8ff" stroke="#63b8ff" points="165.78,-109.5 175.78,-106 165.78,-102.5 165.78,-109.5"/>
</a>
</g>
</g>
<!-- Node5 -->
<g id="Node000005" class="node">
<title>Node5</title>
<g id="a_Node000005"><a xlink:href="../../d0/d32/namespaceArcane.html#ac2bfc9a83958f3f8e203fce7f01c6634" target="_top" xlink:title="Converti la vue en un tableau d&#39;octets modifiables.">
<polygon fill="white" stroke="#666666" points="292,-152.5 155,-152.5 155,-133.5 292,-133.5 292,-152.5"/>
<text text-anchor="middle" x="223.5" y="-140.5" font-family="Helvetica,sans-Serif" font-size="10.00">Arcane::asWritableBytes</text>
</a>
</g>
</g>
<!-- Node1&#45;&gt;Node5 -->
<g id="edge4_Node000001_Node000005" class="edge">
<title>Node1&#45;&gt;Node5</title>
<g id="a_edge4_Node000001_Node000005"><a xlink:title=" ">
<path fill="none" stroke="#63b8ff" d="M119.44,-119.46C136.23,-123.3 154.38,-127.44 170.7,-131.17"/>
<polygon fill="#63b8ff" stroke="#63b8ff" points="170.07,-134.61 180.6,-133.43 171.63,-127.79 170.07,-134.61"/>
</a>
</g>
</g>
<!-- Node6 -->
<g id="Node000006" class="node">
<title>Node6</title>
<g id="a_Node000006"><a xlink:href="../../d5/d03/namespaceArcane_1_1MemoryUtils.html#aed7f55404f772eaf96dabb0a1528ad67" target="_top" xlink:title="Copie de source vers destination en utilisant la file queue.">
<polygon fill="white" stroke="#666666" points="283,-78 164,-78 164,-48 283,-48 283,-78"/>
<text text-anchor="start" x="172" y="-66" font-family="Helvetica,sans-Serif" font-size="10.00">Arcane::MemoryUtils</text>
<text text-anchor="middle" x="223.5" y="-55" font-family="Helvetica,sans-Serif" font-size="10.00">::copy</text>
</a>
</g>
</g>
<!-- Node1&#45;&gt;Node6 -->
<g id="edge7_Node000001_Node000006" class="edge">
<title>Node1&#45;&gt;Node6</title>
<g id="a_edge7_Node000001_Node000006"><a xlink:title=" ">
<path fill="none" stroke="#63b8ff" d="M117.16,-90.96C129.74,-87.62 143.18,-84.05 156.11,-80.62"/>
<polygon fill="#63b8ff" stroke="#63b8ff" points="157.1,-83.98 165.87,-78.03 155.31,-77.21 157.1,-83.98"/>
</a>
</g>
</g>
<!-- Node3 -->
<g id="Node000003" class="node">
<title>Node3</title>
<g id="a_Node000003"><a xlink:href="../../df/d52/classArcane_1_1SpanImpl.html#a3e1c051a53a97aa6625e6018350f5447" target="_top" xlink:title="Pointeur sur le début de la vue.">
<polygon fill="white" stroke="#666666" points="477,-152.5 347,-152.5 347,-133.5 477,-133.5 477,-152.5"/>
<text text-anchor="middle" x="412" y="-140.5" font-family="Helvetica,sans-Serif" font-size="10.00">Arcane::SpanImpl::data</text>
</a>
</g>
</g>
<!-- Node2&#45;&gt;Node3 -->
<g id="edge2_Node000002_Node000003" class="edge">
<title>Node2&#45;&gt;Node3</title>
<g id="a_edge2_Node000002_Node000003"><a xlink:title=" ">
<path fill="none" stroke="#63b8ff" d="M271.08,-115.24C295.95,-120.18 326.8,-126.29 353.19,-131.53"/>
<polygon fill="#63b8ff" stroke="#63b8ff" points="352.58,-134.98 363.07,-133.49 353.94,-128.11 352.58,-134.98"/>
</a>
</g>
</g>
<!-- Node4 -->
<g id="Node000004" class="node">
<title>Node4</title>
<g id="a_Node000004"><a xlink:href="../../df/d52/classArcane_1_1SpanImpl.html#ad8054556fcf18258191c94ba7ef9df4e" target="_top" xlink:title="Retourne la taille du tableau en octets.">
<polygon fill="white" stroke="#666666" points="489.5,-115.5 334.5,-115.5 334.5,-96.5 489.5,-96.5 489.5,-115.5"/>
<text text-anchor="middle" x="412" y="-103.5" font-family="Helvetica,sans-Serif" font-size="10.00">Arcane::SpanImpl::sizeBytes</text>
</a>
</g>
</g>
<!-- Node2&#45;&gt;Node4 -->
<g id="edge3_Node000002_Node000004" class="edge">
<title>Node2&#45;&gt;Node4</title>
<g id="a_edge3_Node000002_Node000004"><a xlink:title=" ">
<path fill="none" stroke="#63b8ff" d="M271.08,-106C287.19,-106 305.81,-106 324.1,-106"/>
<polygon fill="#63b8ff" stroke="#63b8ff" points="324.21,-109.5 334.21,-106 324.21,-102.5 324.21,-109.5"/>
</a>
</g>
</g>
<!-- Node5&#45;&gt;Node3 -->
<g id="edge5_Node000005_Node000003" class="edge">
<title>Node5&#45;&gt;Node3</title>
<g id="a_edge5_Node000005_Node000003"><a xlink:title=" ">
<path fill="none" stroke="#63b8ff" d="M292.09,-143C306.58,-143 321.96,-143 336.68,-143"/>
<polygon fill="#63b8ff" stroke="#63b8ff" points="336.75,-146.5 346.75,-143 336.75,-139.5 336.75,-146.5"/>
</a>
</g>
</g>
<!-- Node5&#45;&gt;Node4 -->
<g id="edge6_Node000005_Node000004" class="edge">
<title>Node5&#45;&gt;Node4</title>
<g id="a_edge6_Node000005_Node000004"><a xlink:title=" ">
<path fill="none" stroke="#63b8ff" d="M272.53,-133.47C297.02,-128.61 326.99,-122.67 352.78,-117.55"/>
<polygon fill="#63b8ff" stroke="#63b8ff" points="353.68,-120.94 362.81,-115.56 352.32,-114.07 353.68,-120.94"/>
</a>
</g>
</g>
<!-- Node7 -->
<g id="Node000007" class="node">
<title>Node7</title>
<g id="a_Node000007"><a xlink:href="../../dc/db5/classArcane_1_1IMemoryResourceMng.html#a0a83ce29b7a81d5f795b504ff5d1b04f" target="_top" xlink:title="Interface interne.">
<polygon fill="white" stroke="#666666" points="495,-78 329,-78 329,-48 495,-48 495,-78"/>
<text text-anchor="start" x="337" y="-66" font-family="Helvetica,sans-Serif" font-size="10.00">Arcane::IMemoryResourceMng</text>
<text text-anchor="middle" x="412" y="-55" font-family="Helvetica,sans-Serif" font-size="10.00">::_internal</text>
</a>
</g>
</g>
<!-- Node6&#45;&gt;Node7 -->
<g id="edge8_Node000006_Node000007" class="edge">
<title>Node6&#45;&gt;Node7</title>
<g id="a_edge8_Node000006_Node000007"><a xlink:title=" ">
<path fill="none" stroke="#63b8ff" d="M283.25,-63C294.6,-63 306.74,-63 318.85,-63"/>
<polygon fill="#63b8ff" stroke="#63b8ff" points="319,-66.5 329,-63 319,-59.5 319,-66.5"/>
</a>
</g>
</g>
<!-- Node8 -->
<g id="Node000008" class="node">
<title>Node8</title>
<g id="a_Node000008"><a xlink:href="../../d5/d03/namespaceArcane_1_1MemoryUtils.html#a0944796a334318fca97c82554cb658f6" target="_top" xlink:title="Gestionnaire de ressource mémoire pour les données.">
<polygon fill="white" stroke="#666666" points="496,-30 328,-30 328,0 496,0 496,-30"/>
<text text-anchor="start" x="336" y="-18" font-family="Helvetica,sans-Serif" font-size="10.00">Arcane::MemoryUtils</text>
<text text-anchor="middle" x="412" y="-7" font-family="Helvetica,sans-Serif" font-size="10.00">::getDataMemoryResourceMng</text>
</a>
</g>
</g>
<!-- Node6&#45;&gt;Node8 -->
<g id="edge9_Node000006_Node000008" class="edge">
<title>Node6&#45;&gt;Node8</title>
<g id="a_edge9_Node000006_Node000008"><a xlink:title=" ">
<path fill="none" stroke="#63b8ff" d="M283,-47.94C302.01,-43.05 323.26,-37.58 342.91,-32.52"/>
<polygon fill="#63b8ff" stroke="#63b8ff" points="343.9,-35.88 352.71,-30 342.15,-29.11 343.9,-35.88"/>
</a>
</g>
</g>
</g>
</svg>
