<?xml version="1.0" encoding="UTF-8" standalone="no"?>
<!DOCTYPE svg PUBLIC "-//W3C//DTD SVG 1.1//EN"
 "http://www.w3.org/Graphics/SVG/1.1/DTD/svg11.dtd">
<!-- Generated by graphviz version 2.43.0 (0)
 -->
<!-- Title: Arcane::MemoryUtils::getDefaultDataAllocator Pages: 1 -->
<svg width="507pt" height="194pt"
 viewBox="0.00 0.00 507.00 194.00" xmlns="http://www.w3.org/2000/svg" xmlns:xlink="http://www.w3.org/1999/xlink">
<g id="graph0" class="graph" transform="scale(1 1) rotate(0) translate(4 190)">
<title>Arcane::MemoryUtils::getDefaultDataAllocator</title>
<!-- Node1 -->
<g id="Node000001" class="node">
<title>Node1</title>
<g id="a_Node000001"><a xlink:title="Allocateur par défaut pour les données.">
<polygon fill="#999999" stroke="#666666" points="499,-105 358,-105 358,-75 499,-75 499,-105"/>
<text text-anchor="start" x="366" y="-93" font-family="Helvetica,sans-Serif" font-size="10.00">Arcane::MemoryUtils</text>
<text text-anchor="middle" x="428.5" y="-82" font-family="Helvetica,sans-Serif" font-size="10.00">::getDefaultDataAllocator</text>
</a>
</g>
</g>
<!-- Node2 -->
<g id="Node000002" class="node">
<title>Node2</title>
<g id="a_Node000002"><a xlink:href="../../da/df1/classArcane_1_1ItemGroupImpl.html#ad10fc5a532168750712baf3793c469bb" target="_top" xlink:title="Initialisation des sous&#45;groupes par types.">
<polygon fill="white" stroke="#666666" points="310,-186 178,-186 178,-156 310,-156 310,-186"/>
<text text-anchor="start" x="186" y="-174" font-family="Helvetica,sans-Serif" font-size="10.00">Arcane::ItemGroupImpl</text>
<text text-anchor="middle" x="244" y="-163" font-family="Helvetica,sans-Serif" font-size="10.00">::_initChildrenByTypeV2</text>
</a>
</g>
</g>
<!-- Node1&#45;&gt;Node2 -->
<g id="edge1_Node000001_Node000002" class="edge">
<title>Node1&#45;&gt;Node2</title>
<g id="a_edge1_Node000001_Node000002"><a xlink:title=" ">
<path fill="none" stroke="#63b8ff" d="M393.74,-110.41C373.43,-122.13 346.79,-136.56 322,-147 314.39,-150.21 306.19,-153.21 298.09,-155.94"/>
<polygon fill="#63b8ff" stroke="#63b8ff" points="395.73,-113.3 402.6,-105.24 392.2,-107.26 395.73,-113.3"/>
</a>
</g>
</g>
<!-- Node4 -->
<g id="Node000004" class="node">
<title>Node4</title>
<g id="a_Node000004"><a xlink:href="../../d5/d03/namespaceArcane_1_1MemoryUtils.html#a52bc12d28c41b5673f6d6427910081ff" target="_top" xlink:title="Allocateur par défaut pour les données essentiellement en lecture.">
<polygon fill="white" stroke="#666666" points="321.5,-137.5 166.5,-137.5 166.5,-96.5 321.5,-96.5 321.5,-137.5"/>
<text text-anchor="start" x="174.5" y="-125.5" font-family="Helvetica,sans-Serif" font-size="10.00">Arcane::MemoryUtils</text>
<text text-anchor="start" x="174.5" y="-114.5" font-family="Helvetica,sans-Serif" font-size="10.00">::getAllocatorForMostlyRead</text>
<text text-anchor="middle" x="244" y="-103.5" font-family="Helvetica,sans-Serif" font-size="10.00">OnlyData</text>
</a>
</g>
</g>
<!-- Node1&#45;&gt;Node4 -->
<g id="edge3_Node000001_Node000004" class="edge">
<title>Node1&#45;&gt;Node4</title>
<g id="a_edge3_Node000001_Node000004"><a xlink:title=" ">
<path fill="none" stroke="#63b8ff" d="M347.85,-101.78C339.15,-103.07 330.3,-104.38 321.63,-105.66"/>
<polygon fill="#63b8ff" stroke="#63b8ff" points="348.6,-105.21 357.98,-100.28 347.58,-98.29 348.6,-105.21"/>
</a>
</g>
</g>
<!-- Node5 -->
<g id="Node000005" class="node">
<title>Node5</title>
<g id="a_Node000005"><a xlink:href="../../d5/d03/namespaceArcane_1_1MemoryUtils.html#a07ed2ebd95bafd3cf733e7cfa2e09040" target="_top" xlink:title="Allocateur par défaut pour les données avec informations sur la localisation attendue.">
<polygon fill="white" stroke="#666666" points="314.5,-78 173.5,-78 173.5,-48 314.5,-48 314.5,-78"/>
<text text-anchor="start" x="181.5" y="-66" font-family="Helvetica,sans-Serif" font-size="10.00">Arcane::MemoryUtils</text>
<text text-anchor="middle" x="244" y="-55" font-family="Helvetica,sans-Serif" font-size="10.00">::getDefaultDataAllocator</text>
</a>
</g>
</g>
<!-- Node1&#45;&gt;Node5 -->
<g id="edge4_Node000001_Node000005" class="edge">
<title>Node1&#45;&gt;Node5</title>
<g id="a_edge4_Node000001_Node000005"><a xlink:title=" ">
<path fill="none" stroke="#63b8ff" d="M347.89,-78.22C336.81,-76.58 325.5,-74.91 314.62,-73.3"/>
<polygon fill="#63b8ff" stroke="#63b8ff" points="347.58,-81.71 357.98,-79.72 348.6,-74.79 347.58,-81.71"/>
</a>
</g>
</g>
<!-- Node6 -->
<g id="Node000006" class="node">
<title>Node6</title>
<g id="a_Node000006"><a xlink:href="../../dd/d27/namespaceArcane_1_1platform.html#aa1642b1adf218ba84fae64d8fb4013f1" target="_top" xlink:title="Allocateur par défaut pour les données.">
<polygon fill="white" stroke="#666666" points="322,-30 166,-30 166,0 322,0 322,-30"/>
<text text-anchor="start" x="174" y="-18" font-family="Helvetica,sans-Serif" font-size="10.00">Arcane::platform::getDefault</text>
<text text-anchor="middle" x="244" y="-7" font-family="Helvetica,sans-Serif" font-size="10.00">DataAllocator</text>
</a>
</g>
</g>
<!-- Node1&#45;&gt;Node6 -->
<g id="edge5_Node000001_Node000006" class="edge">
<title>Node1&#45;&gt;Node6</title>
<g id="a_edge5_Node000001_Node000006"><a xlink:title=" ">
<path fill="none" stroke="#63b8ff" d="M390.3,-70.35C370.37,-60.24 345.19,-48.16 322,-39 314.06,-35.86 305.53,-32.86 297.14,-30.1"/>
<polygon fill="#63b8ff" stroke="#63b8ff" points="388.86,-73.54 399.35,-74.98 392.05,-67.31 388.86,-73.54"/>
</a>
</g>
</g>
<!-- Node3 -->
<g id="Node000003" class="node">
<title>Node3</title>
<g id="a_Node000003"><a xlink:href="../../da/df1/classArcane_1_1ItemGroupImpl.html#ac44c5eb75cd14d5f1904860c84f61bc2" target="_top" xlink:title="Applique l&#39;opération operation sur les entités du groupe.">
<polygon fill="white" stroke="#666666" points="130,-186 0,-186 0,-156 130,-156 130,-186"/>
<text text-anchor="start" x="8" y="-174" font-family="Helvetica,sans-Serif" font-size="10.00">Arcane::ItemGroupImpl</text>
<text text-anchor="middle" x="65" y="-163" font-family="Helvetica,sans-Serif" font-size="10.00">::applyOperation</text>
</a>
</g>
</g>
<!-- Node2&#45;&gt;Node3 -->
<g id="edge2_Node000002_Node000003" class="edge">
<title>Node2&#45;&gt;Node3</title>
<g id="a_edge2_Node000002_Node000003"><a xlink:title=" ">
<path fill="none" stroke="#63b8ff" d="M167.5,-171C155.06,-171 142.26,-171 130.13,-171"/>
<polygon fill="#63b8ff" stroke="#63b8ff" points="167.85,-174.5 177.85,-171 167.85,-167.5 167.85,-174.5"/>
</a>
</g>
</g>
</g>
</svg>
