<?xml version="1.0" encoding="UTF-8" standalone="no"?>
<!DOCTYPE svg PUBLIC "-//W3C//DTD SVG 1.1//EN"
 "http://www.w3.org/Graphics/SVG/1.1/DTD/svg11.dtd">
<!-- Generated by graphviz version 2.43.0 (0)
 -->
<!-- Title: Arcane::MemoryUtils::fillIndexed Pages: 1 -->
<svg width="324pt" height="161pt"
 viewBox="0.00 0.00 324.00 160.50" xmlns="http://www.w3.org/2000/svg" xmlns:xlink="http://www.w3.org/1999/xlink">
<g id="graph0" class="graph" transform="scale(1 1) rotate(0) translate(4 156.5)">
<title>Arcane::MemoryUtils::fillIndexed</title>
<!-- Node1 -->
<g id="Node000001" class="node">
<title>Node1</title>
<g id="a_Node000001"><a xlink:title="Remplit une zone mémoire indexée avec une valeur.">
<polygon fill="#999999" stroke="#666666" points="119,-82.5 0,-82.5 0,-52.5 119,-52.5 119,-82.5"/>
<text text-anchor="start" x="8" y="-70.5" font-family="Helvetica,sans-Serif" font-size="10.00">Arcane::MemoryUtils</text>
<text text-anchor="middle" x="59.5" y="-59.5" font-family="Helvetica,sans-Serif" font-size="10.00">::fillIndexed</text>
</a>
</g>
</g>
<!-- Node2 -->
<g id="Node000002" class="node">
<title>Node2</title>
<g id="a_Node000002"><a xlink:href="../../d4/d71/classArcane_1_1MutableMemoryView.html#add2068aeb4b1ab102a51d575eaedb7df" target="_top" xlink:title="Vue sous forme d&#39;octets.">
<polygon fill="white" stroke="#666666" points="316,-152.5 155,-152.5 155,-122.5 316,-122.5 316,-152.5"/>
<text text-anchor="start" x="163" y="-140.5" font-family="Helvetica,sans-Serif" font-size="10.00">Arcane::MutableMemoryView</text>
<text text-anchor="middle" x="235.5" y="-129.5" font-family="Helvetica,sans-Serif" font-size="10.00">::bytes</text>
</a>
</g>
</g>
<!-- Node1&#45;&gt;Node2 -->
<g id="edge1_Node000001_Node000002" class="edge">
<title>Node1&#45;&gt;Node2</title>
<g id="a_edge1_Node000001_Node000002"><a xlink:title=" ">
<path fill="none" stroke="#63b8ff" d="M88.5,-82.6C107.04,-92.22 132.06,-104.52 155,-113.5 160.03,-115.47 165.3,-117.38 170.62,-119.2"/>
<polygon fill="#63b8ff" stroke="#63b8ff" points="169.63,-122.56 180.22,-122.38 171.83,-115.91 169.63,-122.56"/>
</a>
</g>
</g>
<!-- Node3 -->
<g id="Node000003" class="node">
<title>Node3</title>
<g id="a_Node000003"><a xlink:href="../../d4/d71/classArcane_1_1MutableMemoryView.html#a0c34fdf1bd8e4b60a09913d237dedea7" target="_top" xlink:title="Taille du type de donnée associé (1 par défaut)">
<polygon fill="white" stroke="#666666" points="316,-104.5 155,-104.5 155,-74.5 316,-74.5 316,-104.5"/>
<text text-anchor="start" x="163" y="-92.5" font-family="Helvetica,sans-Serif" font-size="10.00">Arcane::MutableMemoryView</text>
<text text-anchor="middle" x="235.5" y="-81.5" font-family="Helvetica,sans-Serif" font-size="10.00">::datatypeSize</text>
</a>
</g>
</g>
<!-- Node1&#45;&gt;Node3 -->
<g id="edge2_Node000001_Node000003" class="edge">
<title>Node1&#45;&gt;Node3</title>
<g id="a_edge2_Node000001_Node000003"><a xlink:title=" ">
<path fill="none" stroke="#63b8ff" d="M119.41,-74.95C127.63,-75.99 136.22,-77.07 144.85,-78.17"/>
<polygon fill="#63b8ff" stroke="#63b8ff" points="144.62,-81.66 154.98,-79.45 145.5,-74.72 144.62,-81.66"/>
</a>
</g>
</g>
<!-- Node4 -->
<g id="Node000004" class="node">
<title>Node4</title>
<g id="a_Node000004"><a xlink:href="../../df/d52/classArcane_1_1SpanImpl.html#a5ad9ab5e353a35640404153788151ee0" target="_top" xlink:title="Remplit le tableau avec la valeur o.">
<polygon fill="white" stroke="#666666" points="295.5,-56 175.5,-56 175.5,-37 295.5,-37 295.5,-56"/>
<text text-anchor="middle" x="235.5" y="-44" font-family="Helvetica,sans-Serif" font-size="10.00">Arcane::SpanImpl::fill</text>
</a>
</g>
</g>
<!-- Node1&#45;&gt;Node4 -->
<g id="edge3_Node000001_Node000004" class="edge">
<title>Node1&#45;&gt;Node4</title>
<g id="a_edge3_Node000001_Node000004"><a xlink:title=" ">
<path fill="none" stroke="#63b8ff" d="M119.41,-60.39C134.07,-58.62 149.92,-56.71 165.03,-54.88"/>
<polygon fill="#63b8ff" stroke="#63b8ff" points="165.85,-58.31 175.36,-53.64 165.01,-51.36 165.85,-58.31"/>
</a>
</g>
</g>
<!-- Node5 -->
<g id="Node000005" class="node">
<title>Node5</title>
<g id="a_Node000005"><a xlink:href="../../df/d52/classArcane_1_1SpanImpl.html#ad324bebcf918e08f8f21d85a3e57a8e6" target="_top" xlink:title="Retourne la taille du tableau.">
<polygon fill="white" stroke="#666666" points="299.5,-19 171.5,-19 171.5,0 299.5,0 299.5,-19"/>
<text text-anchor="middle" x="235.5" y="-7" font-family="Helvetica,sans-Serif" font-size="10.00">Arcane::SpanImpl::size</text>
</a>
</g>
</g>
<!-- Node1&#45;&gt;Node5 -->
<g id="edge4_Node000001_Node000005" class="edge">
<title>Node1&#45;&gt;Node5</title>
<g id="a_edge4_Node000001_Node000005"><a xlink:title=" ">
<path fill="none" stroke="#63b8ff" d="M93.26,-52.49C111.24,-44.64 134.06,-35.28 155,-28.5 162.77,-25.98 171.07,-23.64 179.27,-21.51"/>
<polygon fill="#63b8ff" stroke="#63b8ff" points="180.32,-24.86 189.17,-19.04 178.62,-18.07 180.32,-24.86"/>
</a>
</g>
</g>
</g>
</svg>
