<?xml version="1.0" encoding="UTF-8" standalone="no"?>
<!DOCTYPE svg PUBLIC "-//W3C//DTD SVG 1.1//EN"
 "http://www.w3.org/Graphics/SVG/1.1/DTD/svg11.dtd">
<!-- Generated by graphviz version 14.1.2 (0)
 -->
<!-- Title: IBlockBuilder.h Pages: 1 -->
<svg width="699pt" height="256pt"
 viewBox="0.00 0.00 699.00 256.00" xmlns="http://www.w3.org/2000/svg" xmlns:xlink="http://www.w3.org/1999/xlink">
<g id="graph0" class="graph" transform="scale(1 1) rotate(0) translate(4 251.75)">
<title>IBlockBuilder.h</title>
<!-- Node1 -->
<g id="Node000001" class="node">
<title>Node1</title>
<g id="a_Node000001"><a xlink:title="IBlockBuilder.h.">
<polygon fill="#999999" stroke="#666666" points="462.38,-247.75 373.62,-247.75 373.62,-227 462.38,-227 462.38,-247.75"/>
<text xml:space="preserve" text-anchor="middle" x="418" y="-234.25" font-family="Helvetica,sans-Serif" font-size="10.00">IBlockBuilder.h</text>
</a>
</g>
</g>
<!-- Node2 -->
<g id="Node000002" class="node">
<title>Node2</title>
<g id="a_Node000002"><a xlink:href="../../d3/d0c/StreamVBlockMatrixBuilderT_8h_source.html" target="_top" xlink:title=" ">
<polygon fill="white" stroke="#666666" points="500.62,-191 335.38,-191 335.38,-170.25 500.62,-170.25 500.62,-191"/>
<text xml:space="preserve" text-anchor="middle" x="418" y="-177.5" font-family="Helvetica,sans-Serif" font-size="10.00">StreamVBlockMatrixBuilderT.h</text>
</a>
</g>
</g>
<!-- Node1&#45;&gt;Node2 -->
<g id="edge1_Node000001_Node000002" class="edge">
<title>Node1&#45;&gt;Node2</title>
<g id="a_edge1_Node000001_Node000002"><a xlink:title=" ">
<path fill="none" stroke="#63b8ff" d="M418,-215.13C418,-206.91 418,-197.93 418,-191.33"/>
<polygon fill="#63b8ff" stroke="#63b8ff" points="414.5,-215.07 418,-225.07 421.5,-215.07 414.5,-215.07"/>
</a>
</g>
</g>
<!-- Node3 -->
<g id="Node000003" class="node">
<title>Node3</title>
<g id="a_Node000003"><a xlink:href="../../d4/db9/StreamVBlockMatrixBuilder_8h_source.html" target="_top" xlink:title=" ">
<polygon fill="white" stroke="#666666" points="497.62,-134.25 338.38,-134.25 338.38,-113.5 497.62,-113.5 497.62,-134.25"/>
<text xml:space="preserve" text-anchor="middle" x="418" y="-120.75" font-family="Helvetica,sans-Serif" font-size="10.00">StreamVBlockMatrixBuilder.h</text>
</a>
</g>
</g>
<!-- Node2&#45;&gt;Node3 -->
<g id="edge2_Node000002_Node000003" class="edge">
<title>Node2&#45;&gt;Node3</title>
<g id="a_edge2_Node000002_Node000003"><a xlink:title=" ">
<path fill="none" stroke="#63b8ff" d="M418,-158.38C418,-150.16 418,-141.18 418,-134.58"/>
<polygon fill="#63b8ff" stroke="#63b8ff" points="414.5,-158.32 418,-168.32 421.5,-158.32 414.5,-158.32"/>
</a>
</g>
</g>
<!-- Node4 -->
<g id="Node000004" class="node">
<title>Node4</title>
<g id="a_Node000004"><a xlink:href="../../da/d9c/AlienRefSemantic_8h_source.html" target="_top" xlink:title=" ">
<polygon fill="white" stroke="#666666" points="396,-77.5 284,-77.5 284,-56.75 396,-56.75 396,-77.5"/>
<text xml:space="preserve" text-anchor="middle" x="340" y="-64" font-family="Helvetica,sans-Serif" font-size="10.00">AlienRefSemantic.h</text>
</a>
</g>
</g>
<!-- Node3&#45;&gt;Node4 -->
<g id="edge3_Node000003_Node000004" class="edge">
<title>Node3&#45;&gt;Node4</title>
<g id="a_edge3_Node000003_Node000004"><a xlink:title=" ">
<path fill="none" stroke="#63b8ff" d="M394.97,-106.71C381.61,-97.33 365.21,-85.82 353.82,-77.83"/>
<polygon fill="#63b8ff" stroke="#63b8ff" points="392.62,-109.34 402.82,-112.22 396.64,-103.61 392.62,-109.34"/>
</a>
</g>
</g>
<!-- Node12 -->
<g id="Node000012" class="node">
<title>Node12</title>
<g id="a_Node000012"><a xlink:href="../../d4/d78/StreamVBlockMatrixBuilder_8cc_source.html" target="_top" xlink:title=" ">
<polygon fill="white" stroke="#666666" points="577.88,-77.5 414.12,-77.5 414.12,-56.75 577.88,-56.75 577.88,-77.5"/>
<text xml:space="preserve" text-anchor="middle" x="496" y="-64" font-family="Helvetica,sans-Serif" font-size="10.00">StreamVBlockMatrixBuilder.cc</text>
</a>
</g>
</g>
<!-- Node3&#45;&gt;Node12 -->
<g id="edge11_Node000003_Node000012" class="edge">
<title>Node3&#45;&gt;Node12</title>
<g id="a_edge11_Node000003_Node000012"><a xlink:title=" ">
<path fill="none" stroke="#63b8ff" d="M441.03,-106.71C454.39,-97.33 470.79,-85.82 482.18,-77.83"/>
<polygon fill="#63b8ff" stroke="#63b8ff" points="439.36,-103.61 433.18,-112.22 443.38,-109.34 439.36,-103.61"/>
</a>
</g>
</g>
<!-- Node5 -->
<g id="Node000005" class="node">
<title>Node5</title>
<g id="a_Node000005"><a xlink:href="../../d2/d1a/BlockMatrix_8cc_source.html" target="_top" xlink:title=" ">
<polygon fill="white" stroke="#666666" points="88,-20.75 0,-20.75 0,0 88,0 88,-20.75"/>
<text xml:space="preserve" text-anchor="middle" x="44" y="-7.25" font-family="Helvetica,sans-Serif" font-size="10.00">BlockMatrix.cc</text>
</a>
</g>
</g>
<!-- Node4&#45;&gt;Node5 -->
<g id="edge4_Node000004_Node000005" class="edge">
<title>Node4&#45;&gt;Node5</title>
<g id="a_edge4_Node000004_Node000005"><a xlink:title=" ">
<path fill="none" stroke="#63b8ff" d="M275.74,-54.24C219.02,-43.75 137.84,-28.73 88.15,-19.54"/>
<polygon fill="#63b8ff" stroke="#63b8ff" points="274.78,-57.62 285.25,-56 276.05,-50.74 274.78,-57.62"/>
</a>
</g>
</g>
<!-- Node6 -->
<g id="Node000006" class="node">
<title>Node6</title>
<g id="a_Node000006"><a xlink:href="../../de/d91/BlockVector_8cc_source.html" target="_top" xlink:title=" ">
<polygon fill="white" stroke="#666666" points="192.25,-20.75 105.75,-20.75 105.75,0 192.25,0 192.25,-20.75"/>
<text xml:space="preserve" text-anchor="middle" x="149" y="-7.25" font-family="Helvetica,sans-Serif" font-size="10.00">BlockVector.cc</text>
</a>
</g>
</g>
<!-- Node4&#45;&gt;Node6 -->
<g id="edge5_Node000004_Node000006" class="edge">
<title>Node4&#45;&gt;Node6</title>
<g id="a_edge5_Node000004_Node000006"><a xlink:title=" ">
<path fill="none" stroke="#63b8ff" d="M295.2,-53.28C260.95,-43.47 214.45,-30.14 183.17,-21.17"/>
<polygon fill="#63b8ff" stroke="#63b8ff" points="293.82,-56.53 304.4,-55.92 295.75,-49.8 293.82,-56.53"/>
</a>
</g>
</g>
<!-- Node7 -->
<g id="Node000007" class="node">
<title>Node7</title>
<g id="a_Node000007"><a xlink:href="../../d1/dce/Matrix_8cc_source.html" target="_top" xlink:title=" ">
<polygon fill="white" stroke="#666666" points="271.5,-20.75 210.5,-20.75 210.5,0 271.5,0 271.5,-20.75"/>
<text xml:space="preserve" text-anchor="middle" x="241" y="-7.25" font-family="Helvetica,sans-Serif" font-size="10.00">Matrix.cc</text>
</a>
</g>
</g>
<!-- Node4&#45;&gt;Node7 -->
<g id="edge6_Node000004_Node000007" class="edge">
<title>Node4&#45;&gt;Node7</title>
<g id="a_edge6_Node000004_Node000007"><a xlink:title=" ">
<path fill="none" stroke="#63b8ff" d="M312.24,-50.78C295.02,-41.25 273.42,-29.31 258.55,-21.08"/>
<polygon fill="#63b8ff" stroke="#63b8ff" points="310.53,-53.83 320.98,-55.6 313.92,-47.7 310.53,-53.83"/>
</a>
</g>
</g>
<!-- Node8 -->
<g id="Node000008" class="node">
<title>Node8</title>
<g id="a_Node000008"><a xlink:href="../../da/d5e/SystemReader_8cc_source.html" target="_top" xlink:title=" ">
<polygon fill="white" stroke="#666666" points="390,-20.75 290,-20.75 290,0 390,0 390,-20.75"/>
<text xml:space="preserve" text-anchor="middle" x="340" y="-7.25" font-family="Helvetica,sans-Serif" font-size="10.00">SystemReader.cc</text>
</a>
</g>
</g>
<!-- Node4&#45;&gt;Node8 -->
<g id="edge7_Node000004_Node000008" class="edge">
<title>Node4&#45;&gt;Node8</title>
<g id="a_edge7_Node000004_Node000008"><a xlink:title=" ">
<path fill="none" stroke="#63b8ff" d="M340,-44.88C340,-36.66 340,-27.68 340,-21.08"/>
<polygon fill="#63b8ff" stroke="#63b8ff" points="336.5,-44.82 340,-54.82 343.5,-44.82 336.5,-44.82"/>
</a>
</g>
</g>
<!-- Node9 -->
<g id="Node000009" class="node">
<title>Node9</title>
<g id="a_Node000009"><a xlink:href="../../d9/dec/VBlockMatrix_8cc_source.html" target="_top" xlink:title=" ">
<polygon fill="white" stroke="#666666" points="502.38,-20.75 407.62,-20.75 407.62,0 502.38,0 502.38,-20.75"/>
<text xml:space="preserve" text-anchor="middle" x="455" y="-7.25" font-family="Helvetica,sans-Serif" font-size="10.00">VBlockMatrix.cc</text>
</a>
</g>
</g>
<!-- Node4&#45;&gt;Node9 -->
<g id="edge8_Node000004_Node000009" class="edge">
<title>Node4&#45;&gt;Node9</title>
<g id="a_edge8_Node000004_Node000009"><a xlink:title=" ">
<path fill="none" stroke="#63b8ff" d="M370.83,-51.45C391.06,-41.82 416.93,-29.5 434.62,-21.08"/>
<polygon fill="#63b8ff" stroke="#63b8ff" points="369.45,-48.23 361.93,-55.69 372.46,-54.55 369.45,-48.23"/>
</a>
</g>
</g>
<!-- Node10 -->
<g id="Node000010" class="node">
<title>Node10</title>
<g id="a_Node000010"><a xlink:href="../../d2/d8d/VBlockVector_8cc_source.html" target="_top" xlink:title=" ">
<polygon fill="white" stroke="#666666" points="613.62,-20.75 520.38,-20.75 520.38,0 613.62,0 613.62,-20.75"/>
<text xml:space="preserve" text-anchor="middle" x="567" y="-7.25" font-family="Helvetica,sans-Serif" font-size="10.00">VBlockVector.cc</text>
</a>
</g>
</g>
<!-- Node4&#45;&gt;Node10 -->
<g id="edge9_Node000004_Node000010" class="edge">
<title>Node4&#45;&gt;Node10</title>
<g id="a_edge9_Node000004_Node000010"><a xlink:title=" ">
<path fill="none" stroke="#63b8ff" d="M391.9,-53.61C432.62,-43.79 488.51,-30.31 526.1,-21.24"/>
<polygon fill="#63b8ff" stroke="#63b8ff" points="391.22,-50.17 382.32,-55.92 392.86,-56.98 391.22,-50.17"/>
</a>
</g>
</g>
<!-- Node11 -->
<g id="Node000011" class="node">
<title>Node11</title>
<g id="a_Node000011"><a xlink:href="../../de/dad/Vector_8cc_source.html" target="_top" xlink:title=" ">
<polygon fill="white" stroke="#666666" points="690.75,-20.75 631.25,-20.75 631.25,0 690.75,0 690.75,-20.75"/>
<text xml:space="preserve" text-anchor="middle" x="661" y="-7.25" font-family="Helvetica,sans-Serif" font-size="10.00">Vector.cc</text>
</a>
</g>
</g>
<!-- Node4&#45;&gt;Node11 -->
<g id="edge10_Node000004_Node000011" class="edge">
<title>Node4&#45;&gt;Node11</title>
<g id="a_edge10_Node000004_Node000011"><a xlink:title=" ">
<path fill="none" stroke="#63b8ff" d="M407.31,-55.99C477.54,-45.3 582.9,-28.9 623,-20.75 625.53,-20.24 628.15,-19.67 630.77,-19.07"/>
<polygon fill="#63b8ff" stroke="#63b8ff" points="407.21,-52.47 397.85,-57.43 408.26,-59.39 407.21,-52.47"/>
</a>
</g>
</g>
</g>
</svg>
