<?xml version="1.0" encoding="UTF-8" standalone="no"?>
<!DOCTYPE svg PUBLIC "-//W3C//DTD SVG 1.1//EN"
 "http://www.w3.org/Graphics/SVG/1.1/DTD/svg11.dtd">
<!-- Generated by graphviz version 2.43.0 (0)
 -->
<!-- Title: Arcane::ItemVector::view Pages: 1 -->
<svg width="512pt" height="86pt"
 viewBox="0.00 0.00 512.00 86.00" xmlns="http://www.w3.org/2000/svg" xmlns:xlink="http://www.w3.org/1999/xlink">
<g id="graph0" class="graph" transform="scale(1 1) rotate(0) translate(4 82)">
<title>Arcane::ItemVector::view</title>
<!-- Node1 -->
<g id="Node000001" class="node">
<title>Node1</title>
<g id="a_Node000001"><a xlink:title="Vue sur le vecteur.">
<polygon fill="#999999" stroke="#666666" points="504,-54 394,-54 394,-24 504,-24 504,-54"/>
<text text-anchor="start" x="402" y="-42" font-family="Helvetica,sans-Serif" font-size="10.00">Arcane::ItemVector</text>
<text text-anchor="middle" x="449" y="-31" font-family="Helvetica,sans-Serif" font-size="10.00">::view</text>
</a>
</g>
</g>
<!-- Node2 -->
<g id="Node000002" class="node">
<title>Node2</title>
<g id="a_Node000002"><a xlink:href="../../d1/d71/classArcane_1_1ItemVector.html#a25d119a2fd078926ab8411bfac3d36e2" target="_top" xlink:title="Operateur de cast vers ItemVectorView.">
<polygon fill="white" stroke="#666666" points="348,-78 204,-78 204,-48 348,-48 348,-78"/>
<text text-anchor="start" x="212" y="-66" font-family="Helvetica,sans-Serif" font-size="10.00">Arcane::ItemVector</text>
<text text-anchor="middle" x="276" y="-55" font-family="Helvetica,sans-Serif" font-size="10.00">::operator ItemVectorView</text>
</a>
</g>
</g>
<!-- Node1&#45;&gt;Node2 -->
<g id="edge1_Node000001_Node000002" class="edge">
<title>Node1&#45;&gt;Node2</title>
<g id="a_edge1_Node000001_Node000002"><a xlink:title=" ">
<path fill="none" stroke="#63b8ff" d="M383.86,-48C372.25,-49.63 360.08,-51.34 348.28,-53"/>
<polygon fill="#63b8ff" stroke="#63b8ff" points="384.48,-51.45 393.89,-46.59 383.51,-44.52 384.48,-51.45"/>
</a>
</g>
</g>
<!-- Node3 -->
<g id="Node000003" class="node">
<title>Node3</title>
<g id="a_Node000003"><a xlink:href="../../d9/d27/classArcane_1_1mesh_1_1ItemsExchangeInfo2.html#a49627164dbc8adbb03baee798762b52d" target="_top" xlink:title="Supprime les entités envoyées.">
<polygon fill="white" stroke="#666666" points="358,-30 194,-30 194,0 358,0 358,-30"/>
<text text-anchor="start" x="202" y="-18" font-family="Helvetica,sans-Serif" font-size="10.00">Arcane::mesh::ItemsExchange</text>
<text text-anchor="middle" x="276" y="-7" font-family="Helvetica,sans-Serif" font-size="10.00">Info2::removeSentItems</text>
</a>
</g>
</g>
<!-- Node1&#45;&gt;Node3 -->
<g id="edge2_Node000001_Node000003" class="edge">
<title>Node1&#45;&gt;Node3</title>
<g id="a_edge2_Node000001_Node000003"><a xlink:title=" ">
<path fill="none" stroke="#63b8ff" d="M383.86,-30C375.5,-28.82 366.84,-27.61 358.24,-26.4"/>
<polygon fill="#63b8ff" stroke="#63b8ff" points="383.51,-33.48 393.89,-31.41 384.48,-26.55 383.51,-33.48"/>
</a>
</g>
</g>
<!-- Node4 -->
<g id="Node000004" class="node">
<title>Node4</title>
<g id="a_Node000004"><a xlink:href="../../d1/d3f/classArcane_1_1mesh_1_1ParticleFamily.html#a04939112ca7a885878829668dcb827d1" target="_top" xlink:title="Échange des entités.">
<polygon fill="white" stroke="#666666" points="158,-30 0,-30 0,0 158,0 158,-30"/>
<text text-anchor="start" x="8" y="-18" font-family="Helvetica,sans-Serif" font-size="10.00">Arcane::mesh::ParticleFamily</text>
<text text-anchor="middle" x="79" y="-7" font-family="Helvetica,sans-Serif" font-size="10.00">::exchangeParticles</text>
</a>
</g>
</g>
<!-- Node3&#45;&gt;Node4 -->
<g id="edge3_Node000003_Node000004" class="edge">
<title>Node3&#45;&gt;Node4</title>
<g id="a_edge3_Node000003_Node000004"><a xlink:title=" ">
<path fill="none" stroke="#63b8ff" d="M183.96,-15C175.36,-15 166.7,-15 158.25,-15"/>
<polygon fill="#63b8ff" stroke="#63b8ff" points="184,-18.5 194,-15 184,-11.5 184,-18.5"/>
</a>
</g>
</g>
</g>
</svg>
