<?xml version="1.0" encoding="UTF-8" standalone="no"?>
<!DOCTYPE svg PUBLIC "-//W3C//DTD SVG 1.1//EN"
 "http://www.w3.org/Graphics/SVG/1.1/DTD/svg11.dtd">
<!-- Generated by graphviz version 14.1.2 (0)
 -->
<!-- Title: Arcane::mesh::MeshExchange::computeInfos Pages: 1 -->
<svg width="562pt" height="210pt"
 viewBox="0.00 0.00 562.00 210.00" xmlns="http://www.w3.org/2000/svg" xmlns:xlink="http://www.w3.org/1999/xlink">
<g id="graph0" class="graph" transform="scale(1 1) rotate(0) translate(4 206.12)">
<title>Arcane::mesh::MeshExchange::computeInfos</title>
<!-- Node1 -->
<g id="Node000001" class="node">
<title>Node1</title>
<g id="a_Node000001"><a xlink:title="Calcule les infos.">
<polygon fill="#999999" stroke="#666666" points="162.25,-82.5 0,-82.5 0,-49 162.25,-49 162.25,-82.5"/>
<text xml:space="preserve" text-anchor="start" x="8" y="-69" font-family="Helvetica,sans-Serif" font-size="10.00">Arcane::mesh::MeshExchange</text>
<text xml:space="preserve" text-anchor="middle" x="81.12" y="-56.25" font-family="Helvetica,sans-Serif" font-size="10.00">::computeInfos</text>
</a>
</g>
</g>
<!-- Node2 -->
<g id="Node000002" class="node">
<title>Node2</title>
<g id="a_Node000002"><a xlink:href="../../d9/dda/classArcane_1_1mesh_1_1MeshExchange.html#aebb9425057815bc7715ba194d8870848" target="_top" xlink:title="AMR.">
<polygon fill="white" stroke="#666666" points="386,-130.5 198.25,-130.5 198.25,-97 386,-97 386,-130.5"/>
<text xml:space="preserve" text-anchor="start" x="206.25" y="-117" font-family="Helvetica,sans-Serif" font-size="10.00">Arcane::mesh::MeshExchange</text>
<text xml:space="preserve" text-anchor="middle" x="292.12" y="-104.25" font-family="Helvetica,sans-Serif" font-size="10.00">::_computeMeshConnectivityInfos2</text>
</a>
</g>
</g>
<!-- Node1&#45;&gt;Node2 -->
<g id="edge1_Node000001_Node000002" class="edge">
<title>Node1&#45;&gt;Node2</title>
<g id="a_edge1_Node000001_Node000002"><a xlink:title=" ">
<path fill="none" stroke="#63b8ff" d="M156.99,-82.94C172.6,-86.53 189.17,-90.33 205.14,-94"/>
<polygon fill="#63b8ff" stroke="#63b8ff" points="204.08,-97.35 214.61,-96.18 205.64,-90.53 204.08,-97.35"/>
</a>
</g>
</g>
<!-- Node7 -->
<g id="Node000007" class="node">
<title>Node7</title>
<g id="a_Node000007"><a xlink:href="../../d9/dda/classArcane_1_1mesh_1_1MeshExchange.html#af66b8d775eee9d2e666c51c11e92d3c0" target="_top" xlink:title="AMR OFF.">
<polygon fill="white" stroke="#666666" points="386,-56.5 198.25,-56.5 198.25,-23 386,-23 386,-56.5"/>
<text xml:space="preserve" text-anchor="start" x="206.25" y="-43" font-family="Helvetica,sans-Serif" font-size="10.00">Arcane::mesh::MeshExchange</text>
<text xml:space="preserve" text-anchor="middle" x="292.12" y="-30.25" font-family="Helvetica,sans-Serif" font-size="10.00">::_computeMeshConnectivityInfos3</text>
</a>
</g>
</g>
<!-- Node1&#45;&gt;Node7 -->
<g id="edge6_Node000001_Node000007" class="edge">
<title>Node1&#45;&gt;Node7</title>
<g id="a_edge6_Node000001_Node000007"><a xlink:title=" ">
<path fill="none" stroke="#63b8ff" d="M162.63,-55.73C170.45,-54.76 178.45,-53.77 186.46,-52.77"/>
<polygon fill="#63b8ff" stroke="#63b8ff" points="186.77,-56.26 196.26,-51.55 185.9,-49.31 186.77,-56.26"/>
</a>
</g>
</g>
<!-- Node3 -->
<g id="Node000003" class="node">
<title>Node3</title>
<g id="a_Node000003"><a xlink:href="../../d1/dfb/classArcane_1_1Array.html#a13320a574c15951f1ce125c2800293df" target="_top" xlink:title="Supprime les éléments du tableau.">
<polygon fill="white" stroke="#666666" points="543.38,-202.12 432.12,-202.12 432.12,-181.38 543.38,-181.38 543.38,-202.12"/>
<text xml:space="preserve" text-anchor="middle" x="487.75" y="-188.62" font-family="Helvetica,sans-Serif" font-size="10.00">Arcane::Array::clear</text>
</a>
</g>
</g>
<!-- Node2&#45;&gt;Node3 -->
<g id="edge2_Node000002_Node000003" class="edge">
<title>Node2&#45;&gt;Node3</title>
<g id="a_edge2_Node000002_Node000003"><a xlink:title=" ">
<path fill="none" stroke="#63b8ff" d="M328.19,-130.95C353.83,-143.17 389.64,-159.52 422,-171.75 427.23,-173.73 432.75,-175.66 438.27,-177.49"/>
<polygon fill="#63b8ff" stroke="#63b8ff" points="436.79,-180.69 447.38,-180.43 438.94,-174.03 436.79,-180.69"/>
</a>
</g>
</g>
<!-- Node4 -->
<g id="Node000004" class="node">
<title>Node4</title>
<g id="a_Node000004"><a xlink:href="../../d1/dfb/classArcane_1_1Array.html#a0d76a9d28e8c370b17f40851863d6ee3" target="_top" xlink:title="Remplissage du tableau.">
<polygon fill="white" stroke="#666666" points="537.38,-163.12 438.12,-163.12 438.12,-142.38 537.38,-142.38 537.38,-163.12"/>
<text xml:space="preserve" text-anchor="middle" x="487.75" y="-149.62" font-family="Helvetica,sans-Serif" font-size="10.00">Arcane::Array::fill</text>
</a>
</g>
</g>
<!-- Node2&#45;&gt;Node4 -->
<g id="edge3_Node000002_Node000004" class="edge">
<title>Node2&#45;&gt;Node4</title>
<g id="a_edge3_Node000002_Node000004"><a xlink:title=" ">
<path fill="none" stroke="#63b8ff" d="M378.62,-130.97C394.92,-134.25 411.66,-137.62 426.95,-140.7"/>
<polygon fill="#63b8ff" stroke="#63b8ff" points="425.82,-144.05 436.31,-142.59 427.2,-137.19 425.82,-144.05"/>
</a>
</g>
</g>
<!-- Node5 -->
<g id="Node000005" class="node">
<title>Node5</title>
<g id="a_Node000005"><a xlink:href="../../df/d5f/classArcane_1_1Item.html#a337f519e8727634e55ea621f4734ec04" target="_top" xlink:title="Identifiant local de l&#39;entité dans le sous&#45;domaine du processeur.">
<polygon fill="white" stroke="#666666" points="546,-124.12 429.5,-124.12 429.5,-103.38 546,-103.38 546,-124.12"/>
<text xml:space="preserve" text-anchor="middle" x="487.75" y="-110.62" font-family="Helvetica,sans-Serif" font-size="10.00">Arcane::Item::localId</text>
</a>
</g>
</g>
<!-- Node2&#45;&gt;Node5 -->
<g id="edge4_Node000002_Node000005" class="edge">
<title>Node2&#45;&gt;Node5</title>
<g id="a_edge4_Node000002_Node000005"><a xlink:title=" ">
<path fill="none" stroke="#63b8ff" d="M386.25,-113.75C396.88,-113.75 407.57,-113.75 417.8,-113.75"/>
<polygon fill="#63b8ff" stroke="#63b8ff" points="417.62,-117.25 427.62,-113.75 417.62,-110.25 417.62,-117.25"/>
</a>
</g>
</g>
<!-- Node6 -->
<g id="Node000006" class="node">
<title>Node6</title>
<g id="a_Node000006"><a xlink:href="../../d4/d55/classArcane_1_1ItemWithNodes.html#ac6be927b92f077cf8b023d3b8cc8c2e8" target="_top" xlink:title="Liste des noeuds de l&#39;entité">
<polygon fill="white" stroke="#666666" points="553.5,-85.5 422,-85.5 422,-52 553.5,-52 553.5,-85.5"/>
<text xml:space="preserve" text-anchor="start" x="430" y="-72" font-family="Helvetica,sans-Serif" font-size="10.00">Arcane::ItemWithNodes</text>
<text xml:space="preserve" text-anchor="middle" x="487.75" y="-59.25" font-family="Helvetica,sans-Serif" font-size="10.00">::nodes</text>
</a>
</g>
</g>
<!-- Node2&#45;&gt;Node6 -->
<g id="edge5_Node000002_Node000006" class="edge">
<title>Node2&#45;&gt;Node6</title>
<g id="a_edge5_Node000002_Node000006"><a xlink:title=" ">
<path fill="none" stroke="#63b8ff" d="M367.16,-96.54C381.45,-93.22 396.44,-89.74 410.8,-86.4"/>
<polygon fill="#63b8ff" stroke="#63b8ff" points="411.2,-89.9 420.15,-84.23 409.62,-83.08 411.2,-89.9"/>
</a>
</g>
</g>
<!-- Node8 -->
<g id="Node000008" class="node">
<title>Node8</title>
<g id="a_Node000008"><a xlink:href="../../d1/d17/classArcane_1_1TraceAccessor.html#a7f15f017b10b72c85bba3fce76314619" target="_top" xlink:title="Flot pour un message d&#39;information.">
<polygon fill="white" stroke="#666666" points="550.12,-33.5 425.38,-33.5 425.38,0 550.12,0 550.12,-33.5"/>
<text xml:space="preserve" text-anchor="start" x="433.38" y="-20" font-family="Helvetica,sans-Serif" font-size="10.00">Arcane::TraceAccessor</text>
<text xml:space="preserve" text-anchor="middle" x="487.75" y="-7.25" font-family="Helvetica,sans-Serif" font-size="10.00">::info</text>
</a>
</g>
</g>
<!-- Node7&#45;&gt;Node8 -->
<g id="edge7_Node000007_Node000008" class="edge">
<title>Node7&#45;&gt;Node8</title>
<g id="a_edge7_Node000007_Node000008"><a xlink:title=" ">
<path fill="none" stroke="#63b8ff" d="M386.25,-28.69C395.52,-27.59 404.82,-26.48 413.84,-25.41"/>
<polygon fill="#63b8ff" stroke="#63b8ff" points="414.05,-28.91 423.57,-24.25 413.23,-21.96 414.05,-28.91"/>
</a>
</g>
</g>
</g>
</svg>
