<?xml version="1.0" encoding="UTF-8" standalone="no"?>
<!DOCTYPE svg PUBLIC "-//W3C//DTD SVG 1.1//EN"
 "http://www.w3.org/Graphics/SVG/1.1/DTD/svg11.dtd">
<!-- Generated by graphviz version 2.43.0 (0)
 -->
<!-- Title: Arcane::MessagePassing::Mpi::NoMpiProfiling Pages: 1 -->
<svg width="139pt" height="560pt"
 viewBox="0.00 0.00 139.00 560.00" xmlns="http://www.w3.org/2000/svg" xmlns:xlink="http://www.w3.org/1999/xlink">
<g id="graph0" class="graph" transform="scale(1 1) rotate(0) translate(4 556)">
<title>Arcane::MessagePassing::Mpi::NoMpiProfiling</title>
<!-- Node1 -->
<g id="Node000001" class="node">
<title>Node1</title>
<g id="a_Node000001"><a xlink:title="Implementation de l&#39;interface des operations MPI. Correspond a un simple appel aux fonctions MPI du m...">
<polygon fill="#999999" stroke="transparent" points="131,-210 0,-210 0,0 131,0 131,-210"/>
<text text-anchor="start" x="5.5" y="-198" font-family="Helvetica,sans-Serif" font-size="10.00">Arcane::MessagePassing</text>
<text text-anchor="start" x="15" y="-187" font-family="Helvetica,sans-Serif" font-size="10.00">::Mpi::NoMpiProfiling</text>
<text text-anchor="start" x="64" y="-172" font-family="Helvetica,sans-Serif" font-size="10.00"> </text>
<text text-anchor="start" x="8.5" y="-157" font-family="Helvetica,sans-Serif" font-size="10.00">+</text>
<text text-anchor="start" x="25.5" y="-157" font-family="Helvetica,sans-Serif" font-size="10.00">NoMpiProfiling()</text>
<text text-anchor="start" x="8.5" y="-142" font-family="Helvetica,sans-Serif" font-size="10.00">+</text>
<text text-anchor="start" x="25.5" y="-142" font-family="Helvetica,sans-Serif" font-size="10.00">~NoMpiProfiling()</text>
<text text-anchor="start" x="8.5" y="-127" font-family="Helvetica,sans-Serif" font-size="10.00">+</text>
<text text-anchor="start" x="25.5" y="-127" font-family="Helvetica,sans-Serif" font-size="10.00">_ret()</text>
<text text-anchor="start" x="8.5" y="-112" font-family="Helvetica,sans-Serif" font-size="10.00">+</text>
<text text-anchor="start" x="25.5" y="-112" font-family="Helvetica,sans-Serif" font-size="10.00">broadcast()</text>
<text text-anchor="start" x="8.5" y="-97" font-family="Helvetica,sans-Serif" font-size="10.00">+</text>
<text text-anchor="start" x="25.5" y="-97" font-family="Helvetica,sans-Serif" font-size="10.00">gather()</text>
<text text-anchor="start" x="8.5" y="-82" font-family="Helvetica,sans-Serif" font-size="10.00">+</text>
<text text-anchor="start" x="25.5" y="-82" font-family="Helvetica,sans-Serif" font-size="10.00">gatherVariable()</text>
<text text-anchor="start" x="8.5" y="-67" font-family="Helvetica,sans-Serif" font-size="10.00">+</text>
<text text-anchor="start" x="25.5" y="-67" font-family="Helvetica,sans-Serif" font-size="10.00">allGather()</text>
<text text-anchor="start" x="8.5" y="-52" font-family="Helvetica,sans-Serif" font-size="10.00">+</text>
<text text-anchor="start" x="25.5" y="-52" font-family="Helvetica,sans-Serif" font-size="10.00">allGatherVariable()</text>
<text text-anchor="start" x="8.5" y="-37" font-family="Helvetica,sans-Serif" font-size="10.00">+</text>
<text text-anchor="start" x="25.5" y="-37" font-family="Helvetica,sans-Serif" font-size="10.00">scatterVariable()</text>
<text text-anchor="start" x="8.5" y="-22" font-family="Helvetica,sans-Serif" font-size="10.00">+</text>
<text text-anchor="start" x="25.5" y="-22" font-family="Helvetica,sans-Serif" font-size="10.00">allToAll()</text>
<text text-anchor="start" x="25.5" y="-7" font-family="Helvetica,sans-Serif" font-size="10.00">et 17 de plus...</text>
<polygon fill="#666666" stroke="#666666" points="0.5,-182 0.5,-182 131.5,-182 131.5,-182 0.5,-182"/>
<polygon fill="#666666" stroke="#666666" points="0.5,-167 0.5,-167 131.5,-167 131.5,-167 0.5,-167"/>
<polygon fill="none" stroke="#666666" points="0,0 0,-210 131,-210 131,0 0,0"/>
</a>
</g>
</g>
<!-- Node2 -->
<g id="Node000002" class="node">
<title>Node2</title>
<g id="a_Node000002"><a xlink:href="../../d3/d23/classArcane_1_1MessagePassing_1_1Mpi_1_1IMpiProfiling.html" target="_top" xlink:title="Interface d&#39;abstraction pour les operations MPI. Sert principalement a utiliser un decorateur pour le...">
<polygon fill="white" stroke="transparent" points="131,-456 0,-456 0,-246 131,-246 131,-456"/>
<text text-anchor="start" x="5.5" y="-444" font-family="Helvetica,sans-Serif" font-size="10.00">Arcane::MessagePassing</text>
<text text-anchor="start" x="20.5" y="-433" font-family="Helvetica,sans-Serif" font-size="10.00">::Mpi::IMpiProfiling</text>
<text text-anchor="start" x="64" y="-418" font-family="Helvetica,sans-Serif" font-size="10.00"> </text>
<text text-anchor="start" x="8.5" y="-403" font-family="Helvetica,sans-Serif" font-size="10.00">+</text>
<text text-anchor="start" x="25.5" y="-403" font-family="Helvetica,sans-Serif" font-size="10.00">IMpiProfiling()</text>
<text text-anchor="start" x="8.5" y="-388" font-family="Helvetica,sans-Serif" font-size="10.00">+</text>
<text text-anchor="start" x="25.5" y="-388" font-family="Helvetica,sans-Serif" font-size="10.00">~IMpiProfiling()</text>
<text text-anchor="start" x="8.5" y="-373" font-family="Helvetica,sans-Serif" font-size="10.00">+</text>
<text text-anchor="start" x="25.5" y="-373" font-family="Helvetica,sans-Serif" font-size="10.00">broadcast()</text>
<text text-anchor="start" x="8.5" y="-358" font-family="Helvetica,sans-Serif" font-size="10.00">+</text>
<text text-anchor="start" x="25.5" y="-358" font-family="Helvetica,sans-Serif" font-size="10.00">gather()</text>
<text text-anchor="start" x="8.5" y="-343" font-family="Helvetica,sans-Serif" font-size="10.00">+</text>
<text text-anchor="start" x="25.5" y="-343" font-family="Helvetica,sans-Serif" font-size="10.00">gatherVariable()</text>
<text text-anchor="start" x="8.5" y="-328" font-family="Helvetica,sans-Serif" font-size="10.00">+</text>
<text text-anchor="start" x="25.5" y="-328" font-family="Helvetica,sans-Serif" font-size="10.00">allGather()</text>
<text text-anchor="start" x="8.5" y="-313" font-family="Helvetica,sans-Serif" font-size="10.00">+</text>
<text text-anchor="start" x="25.5" y="-313" font-family="Helvetica,sans-Serif" font-size="10.00">allGatherVariable()</text>
<text text-anchor="start" x="8.5" y="-298" font-family="Helvetica,sans-Serif" font-size="10.00">+</text>
<text text-anchor="start" x="25.5" y="-298" font-family="Helvetica,sans-Serif" font-size="10.00">scatterVariable()</text>
<text text-anchor="start" x="8.5" y="-283" font-family="Helvetica,sans-Serif" font-size="10.00">+</text>
<text text-anchor="start" x="25.5" y="-283" font-family="Helvetica,sans-Serif" font-size="10.00">allToAll()</text>
<text text-anchor="start" x="8.5" y="-268" font-family="Helvetica,sans-Serif" font-size="10.00">+</text>
<text text-anchor="start" x="25.5" y="-268" font-family="Helvetica,sans-Serif" font-size="10.00">allToAllVariable()</text>
<text text-anchor="start" x="25.5" y="-253" font-family="Helvetica,sans-Serif" font-size="10.00">et 16 de plus...</text>
<polygon fill="#666666" stroke="#666666" points="0.5,-428 0.5,-428 131.5,-428 131.5,-428 0.5,-428"/>
<polygon fill="#666666" stroke="#666666" points="0.5,-413 0.5,-413 131.5,-413 131.5,-413 0.5,-413"/>
<polygon fill="none" stroke="#666666" points="0,-246 0,-456 131,-456 131,-246 0,-246"/>
</a>
</g>
</g>
<!-- Node2&#45;&gt;Node1 -->
<g id="edge1_Node000001_Node000002" class="edge">
<title>Node2&#45;&gt;Node1</title>
<g id="a_edge1_Node000001_Node000002"><a xlink:title=" ">
<path fill="none" stroke="#63b8ff" d="M65.5,-235.55C65.5,-227.1 65.5,-218.61 65.5,-210.23"/>
<polygon fill="none" stroke="#63b8ff" points="62,-235.81 65.5,-245.81 69,-235.81 62,-235.81"/>
</a>
</g>
</g>
<!-- Node3 -->
<g id="Node000003" class="node">
<title>Node3</title>
<g id="a_Node000003"><a xlink:href="../../d5/d6d/classArcane_1_1MessagePassing_1_1IProfiler.html" target="_top" xlink:title="Interface d&#39;un profiler pour les échanges de messages.">
<polygon fill="white" stroke="transparent" points="131,-552 0,-552 0,-492 131,-492 131,-552"/>
<text text-anchor="start" x="5.5" y="-540" font-family="Helvetica,sans-Serif" font-size="10.00">Arcane::MessagePassing</text>
<text text-anchor="start" x="44" y="-529" font-family="Helvetica,sans-Serif" font-size="10.00">::IProfiler</text>
<text text-anchor="start" x="64" y="-514" font-family="Helvetica,sans-Serif" font-size="10.00"> </text>
<text text-anchor="start" x="18.5" y="-499" font-family="Helvetica,sans-Serif" font-size="10.00">+</text>
<text text-anchor="start" x="45.5" y="-499" font-family="Helvetica,sans-Serif" font-size="10.00">~IProfiler()</text>
<polygon fill="#666666" stroke="#666666" points="0.5,-524 0.5,-524 131.5,-524 131.5,-524 0.5,-524"/>
<polygon fill="#666666" stroke="#666666" points="0.5,-509 0.5,-509 131.5,-509 131.5,-509 0.5,-509"/>
<polygon fill="none" stroke="#666666" points="0,-492 0,-552 131,-552 131,-492 0,-492"/>
</a>
</g>
</g>
<!-- Node3&#45;&gt;Node2 -->
<g id="edge2_Node000002_Node000003" class="edge">
<title>Node3&#45;&gt;Node2</title>
<g id="a_edge2_Node000002_Node000003"><a xlink:title=" ">
<path fill="none" stroke="#63b8ff" d="M65.5,-481.94C65.5,-473.96 65.5,-465.21 65.5,-456.15"/>
<polygon fill="none" stroke="#63b8ff" points="62,-481.95 65.5,-491.95 69,-481.95 62,-481.95"/>
</a>
</g>
</g>
</g>
</svg>
