<?xml version="1.0" encoding="UTF-8" standalone="no"?>
<!DOCTYPE svg PUBLIC "-//W3C//DTD SVG 1.1//EN"
 "http://www.w3.org/Graphics/SVG/1.1/DTD/svg11.dtd">
<!-- Generated by graphviz version 2.43.0 (0)
 -->
<!-- Title: Arcane::CartesianMeshRenumberingInfo Pages: 1 -->
<svg width="215pt" height="699pt"
 viewBox="0.00 0.00 215.00 699.00" xmlns="http://www.w3.org/2000/svg" xmlns:xlink="http://www.w3.org/1999/xlink">
<g id="graph0" class="graph" transform="scale(1 1) rotate(0) translate(4 695)">
<title>Arcane::CartesianMeshRenumberingInfo</title>
<!-- Node1 -->
<g id="Node000001" class="node">
<title>Node1</title>
<g id="a_Node000001"><a xlink:title="Informations pour la renumérotation.">
<polygon fill="#999999" stroke="transparent" points="207,-184 0,-184 0,0 207,0 207,-184"/>
<text text-anchor="start" x="5.5" y="-172" font-family="Helvetica,sans-Serif" font-size="10.00">Arcane::CartesianMeshRenumberingInfo</text>
<text text-anchor="start" x="19" y="-157" font-family="Helvetica,sans-Serif" font-size="10.00">&#45;</text>
<text text-anchor="start" x="41.5" y="-157" font-family="Helvetica,sans-Serif" font-size="10.00">m_renumber_patch_method</text>
<text text-anchor="start" x="19" y="-142" font-family="Helvetica,sans-Serif" font-size="10.00">&#45;</text>
<text text-anchor="start" x="41.5" y="-142" font-family="Helvetica,sans-Serif" font-size="10.00">m_renumber_faces_method</text>
<text text-anchor="start" x="19" y="-127" font-family="Helvetica,sans-Serif" font-size="10.00">&#45;</text>
<text text-anchor="start" x="41.5" y="-127" font-family="Helvetica,sans-Serif" font-size="10.00">m_is_sort</text>
<text text-anchor="start" x="16.5" y="-112" font-family="Helvetica,sans-Serif" font-size="10.00">+</text>
<text text-anchor="start" x="41.5" y="-112" font-family="Helvetica,sans-Serif" font-size="10.00">setRenumberPatchMethod()</text>
<text text-anchor="start" x="16.5" y="-97" font-family="Helvetica,sans-Serif" font-size="10.00">+</text>
<text text-anchor="start" x="41.5" y="-97" font-family="Helvetica,sans-Serif" font-size="10.00">renumberPatchMethod()</text>
<text text-anchor="start" x="16.5" y="-82" font-family="Helvetica,sans-Serif" font-size="10.00">+</text>
<text text-anchor="start" x="41.5" y="-82" font-family="Helvetica,sans-Serif" font-size="10.00">setRenumberFaceMethod()</text>
<text text-anchor="start" x="16.5" y="-67" font-family="Helvetica,sans-Serif" font-size="10.00">+</text>
<text text-anchor="start" x="41.5" y="-67" font-family="Helvetica,sans-Serif" font-size="10.00">renumberFaceMethod()</text>
<text text-anchor="start" x="16.5" y="-52" font-family="Helvetica,sans-Serif" font-size="10.00">+</text>
<text text-anchor="start" x="41.5" y="-52" font-family="Helvetica,sans-Serif" font-size="10.00">setSortAfterRenumbering()</text>
<text text-anchor="start" x="16.5" y="-37" font-family="Helvetica,sans-Serif" font-size="10.00">+</text>
<text text-anchor="start" x="41.5" y="-37" font-family="Helvetica,sans-Serif" font-size="10.00">isSortAfterRenumbering()</text>
<text text-anchor="start" x="16.5" y="-22" font-family="Helvetica,sans-Serif" font-size="10.00">+</text>
<text text-anchor="start" x="41.5" y="-22" font-family="Helvetica,sans-Serif" font-size="10.00">setParentPatch()</text>
<text text-anchor="start" x="16.5" y="-7" font-family="Helvetica,sans-Serif" font-size="10.00">+</text>
<text text-anchor="start" x="41.5" y="-7" font-family="Helvetica,sans-Serif" font-size="10.00">parentPatch()</text>
<polygon fill="#666666" stroke="#666666" points="0.5,-167 0.5,-167 207.5,-167 207.5,-167 0.5,-167"/>
<polygon fill="#666666" stroke="#666666" points="0.5,-122 0.5,-122 39.5,-122 39.5,-122 0.5,-122"/>
<polygon fill="#666666" stroke="#666666" points="39.5,-122 39.5,-122 207.5,-122 207.5,-122 39.5,-122"/>
<polygon fill="none" stroke="#666666" points="0,0 0,-184 207,-184 207,0 0,0"/>
</a>
</g>
</g>
<!-- Node2 -->
<g id="Node000002" class="node">
<title>Node2</title>
<g id="a_Node000002"><a xlink:href="../../df/dd0/classArcane_1_1CartesianPatch.html" target="_top" xlink:title="Patch AMR d&#39;un maillage cartésien.">
<polygon fill="white" stroke="transparent" points="165,-475 42,-475 42,-231 165,-231 165,-475"/>
<text text-anchor="start" x="47.5" y="-463" font-family="Helvetica,sans-Serif" font-size="10.00">Arcane::CartesianPatch</text>
<text text-anchor="start" x="102" y="-448" font-family="Helvetica,sans-Serif" font-size="10.00"> </text>
<text text-anchor="start" x="51.5" y="-433" font-family="Helvetica,sans-Serif" font-size="10.00">+</text>
<text text-anchor="start" x="69.5" y="-433" font-family="Helvetica,sans-Serif" font-size="10.00">CartesianPatch()</text>
<text text-anchor="start" x="51.5" y="-418" font-family="Helvetica,sans-Serif" font-size="10.00">+</text>
<text text-anchor="start" x="69.5" y="-418" font-family="Helvetica,sans-Serif" font-size="10.00">CartesianPatch()</text>
<text text-anchor="start" x="51.5" y="-403" font-family="Helvetica,sans-Serif" font-size="10.00">+</text>
<text text-anchor="start" x="69.5" y="-403" font-family="Helvetica,sans-Serif" font-size="10.00">operator=()</text>
<text text-anchor="start" x="51.5" y="-388" font-family="Helvetica,sans-Serif" font-size="10.00">+</text>
<text text-anchor="start" x="69.5" y="-388" font-family="Helvetica,sans-Serif" font-size="10.00">operator=()</text>
<text text-anchor="start" x="51.5" y="-373" font-family="Helvetica,sans-Serif" font-size="10.00">+</text>
<text text-anchor="start" x="69.5" y="-373" font-family="Helvetica,sans-Serif" font-size="10.00">cells()</text>
<text text-anchor="start" x="51.5" y="-358" font-family="Helvetica,sans-Serif" font-size="10.00">+</text>
<text text-anchor="start" x="69.5" y="-358" font-family="Helvetica,sans-Serif" font-size="10.00">cellDirection()</text>
<text text-anchor="start" x="51.5" y="-343" font-family="Helvetica,sans-Serif" font-size="10.00">+</text>
<text text-anchor="start" x="69.5" y="-343" font-family="Helvetica,sans-Serif" font-size="10.00">cellDirection()</text>
<text text-anchor="start" x="51.5" y="-328" font-family="Helvetica,sans-Serif" font-size="10.00">+</text>
<text text-anchor="start" x="69.5" y="-328" font-family="Helvetica,sans-Serif" font-size="10.00">faceDirection()</text>
<text text-anchor="start" x="51.5" y="-313" font-family="Helvetica,sans-Serif" font-size="10.00">+</text>
<text text-anchor="start" x="69.5" y="-313" font-family="Helvetica,sans-Serif" font-size="10.00">faceDirection()</text>
<text text-anchor="start" x="51.5" y="-298" font-family="Helvetica,sans-Serif" font-size="10.00">+</text>
<text text-anchor="start" x="69.5" y="-298" font-family="Helvetica,sans-Serif" font-size="10.00">nodeDirection()</text>
<text text-anchor="start" x="51.5" y="-283" font-family="Helvetica,sans-Serif" font-size="10.00">+</text>
<text text-anchor="start" x="69.5" y="-283" font-family="Helvetica,sans-Serif" font-size="10.00">nodeDirection()</text>
<text text-anchor="start" x="51.5" y="-268" font-family="Helvetica,sans-Serif" font-size="10.00">+</text>
<text text-anchor="start" x="69.5" y="-268" font-family="Helvetica,sans-Serif" font-size="10.00">checkValid()</text>
<text text-anchor="start" x="51.5" y="-253" font-family="Helvetica,sans-Serif" font-size="10.00">+</text>
<text text-anchor="start" x="69.5" y="-253" font-family="Helvetica,sans-Serif" font-size="10.00">isNull()</text>
<text text-anchor="start" x="51.5" y="-238" font-family="Helvetica,sans-Serif" font-size="10.00">+</text>
<text text-anchor="start" x="69.5" y="-238" font-family="Helvetica,sans-Serif" font-size="10.00">patchInterface()</text>
<polygon fill="#666666" stroke="#666666" points="42.5,-458 42.5,-458 165.5,-458 165.5,-458 42.5,-458"/>
<polygon fill="#666666" stroke="#666666" points="42.5,-443 42.5,-443 165.5,-443 165.5,-443 42.5,-443"/>
<polygon fill="none" stroke="#666666" points="42,-231 42,-475 165,-475 165,-231 42,-231"/>
</a>
</g>
</g>
<!-- Node2&#45;&gt;Node1 -->
<g id="edge1_Node000001_Node000002" class="edge">
<title>Node2&#45;&gt;Node1</title>
<g id="a_edge1_Node000001_Node000002"><a xlink:title=" ">
<path fill="none" stroke="#63b8ff" d="M103.5,-230.84C103.5,-219.34 103.5,-207.74 103.5,-196.43"/>
<polygon fill="none" stroke="#63b8ff" points="103.5,-196.27 99.5,-190.27 103.5,-184.27 107.5,-190.27 103.5,-196.27"/>
</a>
</g>
<text text-anchor="middle" x="146.5" y="-205" font-family="Helvetica,sans-Serif" font-size="10.00" fill="grey"> &#45;m_parent_patch</text>
</g>
<!-- Node3 -->
<g id="Node000003" class="node">
<title>Node3</title>
<g id="a_Node000003"><a xlink:href="../../d9/d49/classArcane_1_1ICartesianMeshPatch.html" target="_top" xlink:title="Interface d&#39;un patch AMR d&#39;un maillage cartésien.">
<polygon fill="white" stroke="transparent" points="179.5,-691 27.5,-691 27.5,-522 179.5,-522 179.5,-691"/>
<text text-anchor="start" x="32.5" y="-678.5" font-family="Helvetica,sans-Serif" font-size="10.00">Arcane::ICartesianMeshPatch</text>
<text text-anchor="start" x="101.5" y="-663.5" font-family="Helvetica,sans-Serif" font-size="10.00"> </text>
<text text-anchor="start" x="34.5" y="-648.5" font-family="Helvetica,sans-Serif" font-size="10.00">+</text>
<text text-anchor="start" x="50.5" y="-648.5" font-family="Helvetica,sans-Serif" font-size="10.00">~ICartesianMeshPatch()</text>
<text text-anchor="start" x="34.5" y="-633.5" font-family="Helvetica,sans-Serif" font-size="10.00">+</text>
<text text-anchor="start" x="50.5" y="-633.5" font-family="Helvetica,sans-Serif" font-size="10.00">cells()</text>
<text text-anchor="start" x="34.5" y="-618.5" font-family="Helvetica,sans-Serif" font-size="10.00">+</text>
<text text-anchor="start" x="50.5" y="-618.5" font-family="Helvetica,sans-Serif" font-size="10.00">cellDirection()</text>
<text text-anchor="start" x="34.5" y="-603.5" font-family="Helvetica,sans-Serif" font-size="10.00">+</text>
<text text-anchor="start" x="50.5" y="-603.5" font-family="Helvetica,sans-Serif" font-size="10.00">cellDirection()</text>
<text text-anchor="start" x="34.5" y="-588.5" font-family="Helvetica,sans-Serif" font-size="10.00">+</text>
<text text-anchor="start" x="50.5" y="-588.5" font-family="Helvetica,sans-Serif" font-size="10.00">faceDirection()</text>
<text text-anchor="start" x="34.5" y="-573.5" font-family="Helvetica,sans-Serif" font-size="10.00">+</text>
<text text-anchor="start" x="50.5" y="-573.5" font-family="Helvetica,sans-Serif" font-size="10.00">faceDirection()</text>
<text text-anchor="start" x="34.5" y="-558.5" font-family="Helvetica,sans-Serif" font-size="10.00">+</text>
<text text-anchor="start" x="50.5" y="-558.5" font-family="Helvetica,sans-Serif" font-size="10.00">nodeDirection()</text>
<text text-anchor="start" x="34.5" y="-543.5" font-family="Helvetica,sans-Serif" font-size="10.00">+</text>
<text text-anchor="start" x="50.5" y="-543.5" font-family="Helvetica,sans-Serif" font-size="10.00">nodeDirection()</text>
<text text-anchor="start" x="34.5" y="-528.5" font-family="Helvetica,sans-Serif" font-size="10.00">+</text>
<text text-anchor="start" x="50.5" y="-528.5" font-family="Helvetica,sans-Serif" font-size="10.00">checkValid()</text>
<polygon fill="#666666" stroke="#666666" points="27.5,-673.5 27.5,-673.5 179.5,-673.5 179.5,-673.5 27.5,-673.5"/>
<polygon fill="#666666" stroke="#666666" points="27.5,-658.5 27.5,-658.5 179.5,-658.5 179.5,-658.5 27.5,-658.5"/>
<polygon fill="none" stroke="#666666" points="27.5,-522 27.5,-691 179.5,-691 179.5,-522 27.5,-522"/>
</a>
</g>
</g>
<!-- Node3&#45;&gt;Node2 -->
<g id="edge2_Node000002_Node000003" class="edge">
<title>Node3&#45;&gt;Node2</title>
<g id="a_edge2_Node000002_Node000003"><a xlink:title=" ">
<path fill="none" stroke="#63b8ff" d="M103.5,-521.75C103.5,-510.62 103.5,-498.99 103.5,-487.27"/>
<polygon fill="none" stroke="#63b8ff" points="103.5,-487.04 99.5,-481.04 103.5,-475.04 107.5,-481.04 103.5,-487.04"/>
</a>
</g>
<text text-anchor="middle" x="128" y="-496" font-family="Helvetica,sans-Serif" font-size="10.00" fill="grey"> &#45;m_patch</text>
</g>
</g>
</svg>
