<?xml version="1.0" encoding="UTF-8" standalone="no"?>
<!DOCTYPE svg PUBLIC "-//W3C//DTD SVG 1.1//EN"
 "http://www.w3.org/Graphics/SVG/1.1/DTD/svg11.dtd">
<!-- Generated by graphviz version 2.43.0 (0)
 -->
<!-- Title: Arcane::Alina::backend::backends_compatible&lt; BuiltinBackend&lt; T1 &gt;, BuiltinBackend&lt; T2 &gt; &gt; Pages: 1 -->
<svg width="274pt" height="186pt"
 viewBox="0.00 0.00 274.00 186.00" xmlns="http://www.w3.org/2000/svg" xmlns:xlink="http://www.w3.org/1999/xlink">

<svg id="main" version="1.1" xmlns="http://www.w3.org/2000/svg" xmlns:xlink="http://www.w3.org/1999/xlink" xml:space="preserve">

<style type="text/css"><![CDATA[
.node, .edge {opacity: 0.7;}
.node.selected, .edge.selected {opacity: 1;}
.edge:hover path { stroke: red; }
.edge:hover polygon { stroke: red; fill: red; }
]]></style>
<script type="application/ecmascript" xlink:href="../../svg.min.js"/>
<svg id="graph" class="graph">
<g id="graph0" class="graph" transform="scale(1 1) rotate(0) translate(4 182)">
<title>Arcane::Alina::backend::backends_compatible&lt; BuiltinBackend&lt; T1 &gt;, BuiltinBackend&lt; T2 &gt; &gt;</title>
<!-- Node1 -->
<g id="Node000001" class="node">
<title>Node1</title>
<g id="a_Node000001"><a xlink:title=" ">
<polygon fill="#999999" stroke="transparent" points="222,-82 90,-82 90,0 222,0 222,-82"/>
<text text-anchor="start" x="95" y="-70" font-family="Helvetica,sans-Serif" font-size="10.00">Arcane::Alina::backend</text>
<text text-anchor="start" x="95" y="-59" font-family="Helvetica,sans-Serif" font-size="10.00">::backends_compatible</text>
<text text-anchor="start" x="95" y="-48" font-family="Helvetica,sans-Serif" font-size="10.00">&lt; BuiltinBackend&lt; T1 &gt;,</text>
<text text-anchor="start" x="95" y="-37" font-family="Helvetica,sans-Serif" font-size="10.00"> BuiltinBackend&lt; T2 &gt; &gt;</text>
<text text-anchor="start" x="154" y="-22" font-family="Helvetica,sans-Serif" font-size="10.00"> </text>
<text text-anchor="start" x="154" y="-7" font-family="Helvetica,sans-Serif" font-size="10.00"> </text>
<polygon fill="#666666" stroke="#666666" points="90,-32 90,-32 222,-32 222,-32 90,-32"/>
<polygon fill="#666666" stroke="#666666" points="90,-17 90,-17 222,-17 222,-17 90,-17"/>
<polygon fill="none" stroke="#666666" points="90,0 90,-82 222,-82 222,0 90,0"/>
</a>
</g>
</g>
<!-- Node2 -->
<g id="Node000002" class="node">
<title>Node2</title>
<g id="a_Node000002"><a xlink:title=" ">
<polygon fill="white" stroke="transparent" points="170,-178 0,-178 0,-118 170,-118 170,-178"/>
<text text-anchor="start" x="5" y="-166" font-family="Helvetica,sans-Serif" font-size="10.00">std::is_same&lt; BuiltinBackend</text>
<text text-anchor="start" x="5" y="-155" font-family="Helvetica,sans-Serif" font-size="10.00">&lt; T1 &gt;, BuiltinBackend&lt; T2 &gt; &gt;</text>
<text text-anchor="start" x="83" y="-140" font-family="Helvetica,sans-Serif" font-size="10.00"> </text>
<text text-anchor="start" x="83" y="-125" font-family="Helvetica,sans-Serif" font-size="10.00"> </text>
<polygon fill="#bfbfbf" stroke="#bfbfbf" points="0,-150 0,-150 170,-150 170,-150 0,-150"/>
<polygon fill="#bfbfbf" stroke="#bfbfbf" points="0,-135 0,-135 170,-135 170,-135 0,-135"/>
<polygon fill="none" stroke="#bfbfbf" points="0,-118 0,-178 170,-178 170,-118 0,-118"/>
</a>
</g>
</g>
<!-- Node2&#45;&gt;Node1 -->
<g id="edge1_Node000001_Node000002" class="edge">
<title>Node2&#45;&gt;Node1</title>
<g id="a_edge1_Node000001_Node000002"><a xlink:title=" ">
<path fill="none" stroke="#63b8ff" d="M110.38,-109.46C116.39,-100.58 122.82,-91.07 128.9,-82.08"/>
<polygon fill="none" stroke="#63b8ff" points="107.48,-107.51 104.78,-117.75 113.28,-111.43 107.48,-107.51"/>
</a>
</g>
</g>
<!-- Node3 -->
<g id="Node000003" class="node">
<title>Node3</title>
<g id="a_Node000003"><a xlink:title=" ">
<polygon fill="white" stroke="transparent" points="266,-172.5 188,-172.5 188,-123.5 266,-123.5 266,-172.5"/>
<text text-anchor="start" x="193" y="-160" font-family="Helvetica,sans-Serif" font-size="10.00">std::true_type</text>
<text text-anchor="start" x="225" y="-145" font-family="Helvetica,sans-Serif" font-size="10.00"> </text>
<text text-anchor="start" x="225" y="-130" font-family="Helvetica,sans-Serif" font-size="10.00"> </text>
<polygon fill="#bfbfbf" stroke="#bfbfbf" points="188,-155 188,-155 266,-155 266,-155 188,-155"/>
<polygon fill="#bfbfbf" stroke="#bfbfbf" points="188,-140 188,-140 266,-140 266,-140 188,-140"/>
<polygon fill="none" stroke="#bfbfbf" points="188,-123.5 188,-172.5 266,-172.5 266,-123.5 188,-123.5"/>
</a>
</g>
</g>
<!-- Node3&#45;&gt;Node1 -->
<g id="edge2_Node000001_Node000003" class="edge">
<title>Node3&#45;&gt;Node1</title>
<g id="a_edge2_Node000001_Node000003"><a xlink:title=" ">
<path fill="none" stroke="#63b8ff" d="M205.44,-115.12C198.47,-104.81 190.65,-93.24 183.31,-82.39"/>
<polygon fill="none" stroke="#63b8ff" points="202.57,-117.11 211.07,-123.44 208.36,-113.19 202.57,-117.11"/>
</a>
</g>
</g>
</g>
</svg>
</svg>

<style type='text/css'>
<![CDATA[
[data-mouse-over-selected='false'] { opacity: 0.7; }
[data-mouse-over-selected='true']  { opacity: 1.0; }
]]>
</style>
<script type="application/ecmascript"><![CDATA[
document.addEventListener('DOMContentLoaded', (event) => {
  highlightEdges();
  highlightAdjacentNodes();
});
]]></script>
</svg>
