<?xml version="1.0" encoding="UTF-8" standalone="no"?>
<!DOCTYPE svg PUBLIC "-//W3C//DTD SVG 1.1//EN"
 "http://www.w3.org/Graphics/SVG/1.1/DTD/svg11.dtd">
<!-- Generated by graphviz version 2.43.0 (0)
 -->
<!-- Title: Arcane::UdunitsPhysicalUnitConverter::convert Pages: 1 -->
<svg width="333pt" height="162pt"
 viewBox="0.00 0.00 333.00 161.50" xmlns="http://www.w3.org/2000/svg" xmlns:xlink="http://www.w3.org/1999/xlink">

<svg id="main" version="1.1" xmlns="http://www.w3.org/2000/svg" xmlns:xlink="http://www.w3.org/1999/xlink" xml:space="preserve">

<style type="text/css"><![CDATA[
.node, .edge {opacity: 0.7;}
.node.selected, .edge.selected {opacity: 1;}
.edge:hover path { stroke: red; }
.edge:hover polygon { stroke: red; fill: red; }
]]></style>
<script type="application/ecmascript" xlink:href="../../svg.min.js"/>
<svg id="graph" class="graph">
<g id="graph0" class="graph" transform="scale(1 1) rotate(0) translate(4 157.5)">
<title>Arcane::UdunitsPhysicalUnitConverter::convert</title>
<!-- Node1 -->
<g id="Node000001" class="node">
<title>Node1</title>
<g id="a_Node000001"><a xlink:title="Retourne dans output_values les valeurs converties de input_values.">
<polygon fill="#999999" stroke="#666666" points="155,-94 0,-94 0,-64 155,-64 155,-94"/>
<text text-anchor="start" x="8" y="-82" font-family="Helvetica,sans-Serif" font-size="10.00">Arcane::UdunitsPhysicalUnit</text>
<text text-anchor="middle" x="77.5" y="-71" font-family="Helvetica,sans-Serif" font-size="10.00">Converter::convert</text>
</a>
</g>
</g>
<!-- Node2 -->
<g id="Node000002" class="node">
<title>Node2</title>
<g id="a_Node000002"><a xlink:href="../../d2/d30/classArcane_1_1ArrayView.html#a5f36dbe67833bfba7fa242ff2789b236" target="_top" xlink:title="Pointeur sur le début de la vue.">
<polygon fill="white" stroke="#666666" points="325,-153.5 191,-153.5 191,-134.5 325,-134.5 325,-153.5"/>
<text text-anchor="middle" x="258" y="-141.5" font-family="Helvetica,sans-Serif" font-size="10.00">Arcane::ArrayView::data</text>
</a>
</g>
</g>
<!-- Node1&#45;&gt;Node2 -->
<g id="edge1_Node000001_Node000002" class="edge">
<title>Node1&#45;&gt;Node2</title>
<g id="a_edge1_Node000001_Node000002"><a xlink:title=" ">
<path fill="none" stroke="#63b8ff" d="M112.6,-94.06C134.72,-103.56 164.29,-115.72 191,-125 197.51,-127.26 204.44,-129.47 211.28,-131.53"/>
<polygon fill="#63b8ff" stroke="#63b8ff" points="210.57,-134.97 221.16,-134.44 212.55,-128.26 210.57,-134.97"/>
</a>
</g>
</g>
<!-- Node3 -->
<g id="Node000003" class="node">
<title>Node3</title>
<g id="a_Node000003"><a xlink:href="../../d9/d2e/classArcane_1_1ConstArrayView.html#a3fbe51fa99f522494ab383a7c4326b95" target="_top" xlink:title="Pointeur sur la mémoire allouée.">
<polygon fill="white" stroke="#666666" points="325,-116 191,-116 191,-86 325,-86 325,-116"/>
<text text-anchor="start" x="199" y="-104" font-family="Helvetica,sans-Serif" font-size="10.00">Arcane::ConstArrayView</text>
<text text-anchor="middle" x="258" y="-93" font-family="Helvetica,sans-Serif" font-size="10.00">::data</text>
</a>
</g>
</g>
<!-- Node1&#45;&gt;Node3 -->
<g id="edge2_Node000001_Node000003" class="edge">
<title>Node1&#45;&gt;Node3</title>
<g id="a_edge2_Node000001_Node000003"><a xlink:title=" ">
<path fill="none" stroke="#63b8ff" d="M155.24,-88.46C163.79,-89.51 172.51,-90.59 181.05,-91.64"/>
<polygon fill="#63b8ff" stroke="#63b8ff" points="180.64,-95.12 190.99,-92.86 181.5,-88.17 180.64,-95.12"/>
</a>
</g>
</g>
<!-- Node4 -->
<g id="Node000004" class="node">
<title>Node4</title>
<g id="a_Node000004"><a xlink:href="../../d2/d30/classArcane_1_1ArrayView.html#abdc30b186a464d086d452be8eb6c6397" target="_top" xlink:title="Retourne la taille du tableau.">
<polygon fill="white" stroke="#666666" points="323.5,-67.5 192.5,-67.5 192.5,-48.5 323.5,-48.5 323.5,-67.5"/>
<text text-anchor="middle" x="258" y="-55.5" font-family="Helvetica,sans-Serif" font-size="10.00">Arcane::ArrayView::size</text>
</a>
</g>
</g>
<!-- Node1&#45;&gt;Node4 -->
<g id="edge3_Node000001_Node000004" class="edge">
<title>Node1&#45;&gt;Node4</title>
<g id="a_edge3_Node000001_Node000004"><a xlink:title=" ">
<path fill="none" stroke="#63b8ff" d="M155.24,-69.97C164.23,-68.91 173.4,-67.84 182.36,-66.78"/>
<polygon fill="#63b8ff" stroke="#63b8ff" points="182.85,-70.25 192.38,-65.6 182.04,-63.3 182.85,-70.25"/>
</a>
</g>
</g>
<!-- Node5 -->
<g id="Node000005" class="node">
<title>Node5</title>
<g id="a_Node000005"><a xlink:href="../../d9/d2e/classArcane_1_1ConstArrayView.html#ac6a4f407a7ec0a0e0985113552fe2f54" target="_top" xlink:title="Nombre d&#39;éléments du tableau.">
<polygon fill="white" stroke="#666666" points="325,-30 191,-30 191,0 325,0 325,-30"/>
<text text-anchor="start" x="199" y="-18" font-family="Helvetica,sans-Serif" font-size="10.00">Arcane::ConstArrayView</text>
<text text-anchor="middle" x="258" y="-7" font-family="Helvetica,sans-Serif" font-size="10.00">::size</text>
</a>
</g>
</g>
<!-- Node1&#45;&gt;Node5 -->
<g id="edge4_Node000001_Node000005" class="edge">
<title>Node1&#45;&gt;Node5</title>
<g id="a_edge4_Node000001_Node000005"><a xlink:title=" ">
<path fill="none" stroke="#63b8ff" d="M120.35,-63.99C145.77,-54.88 178.42,-43.17 205.43,-33.49"/>
<polygon fill="#63b8ff" stroke="#63b8ff" points="206.87,-36.69 215.1,-30.02 204.51,-30.1 206.87,-36.69"/>
</a>
</g>
</g>
</g>
</svg>
</svg>

<style type='text/css'>
<![CDATA[
[data-mouse-over-selected='false'] { opacity: 0.7; }
[data-mouse-over-selected='true']  { opacity: 1.0; }
]]>
</style>
<script type="application/ecmascript"><![CDATA[
document.addEventListener('DOMContentLoaded', (event) => {
  highlightEdges();
  highlightAdjacentNodes();
});
]]></script>
</svg>
