<?xml version="1.0" encoding="UTF-8" standalone="no"?>
<!DOCTYPE svg PUBLIC "-//W3C//DTD SVG 1.1//EN"
 "http://www.w3.org/Graphics/SVG/1.1/DTD/svg11.dtd">
<!-- Generated by graphviz version 2.43.0 (0)
 -->
<!-- Title: Arcane::DataSynchronizeDispatcher Pages: 1 -->
<svg width="601pt" height="378pt"
 viewBox="0.00 0.00 600.50 378.00" xmlns="http://www.w3.org/2000/svg" xmlns:xlink="http://www.w3.org/1999/xlink">
<g id="graph0" class="graph" transform="scale(1 1) rotate(0) translate(4 374)">
<title>Arcane::DataSynchronizeDispatcher</title>
<!-- Node1 -->
<g id="Node000001" class="node">
<title>Node1</title>
<g id="a_Node000001"><a xlink:title="Gestion de la synchronisation pour une donnée.">
<polygon fill="#999999" stroke="transparent" points="377.5,-165 192.5,-165 192.5,0 377.5,0 377.5,-165"/>
<text text-anchor="start" x="198" y="-152.5" font-family="Helvetica,sans-Serif" font-size="10.00">Arcane::DataSynchronizeDispatcher</text>
<text text-anchor="start" x="199.5" y="-137.5" font-family="Helvetica,sans-Serif" font-size="10.00">&#45;</text>
<text text-anchor="start" x="210" y="-137.5" font-family="Helvetica,sans-Serif" font-size="10.00">m_sync_buffer</text>
<text text-anchor="start" x="199.5" y="-122.5" font-family="Helvetica,sans-Serif" font-size="10.00">&#45;</text>
<text text-anchor="start" x="210" y="-122.5" font-family="Helvetica,sans-Serif" font-size="10.00">m_is_in_sync</text>
<text text-anchor="start" x="199.5" y="-107.5" font-family="Helvetica,sans-Serif" font-size="10.00">&#45;</text>
<text text-anchor="start" x="210" y="-107.5" font-family="Helvetica,sans-Serif" font-size="10.00">m_is_empty_sync</text>
<text text-anchor="start" x="197" y="-92.5" font-family="Helvetica,sans-Serif" font-size="10.00">+</text>
<text text-anchor="start" x="210" y="-92.5" font-family="Helvetica,sans-Serif" font-size="10.00">DataSynchronizeDispatcher()</text>
<text text-anchor="start" x="197" y="-77.5" font-family="Helvetica,sans-Serif" font-size="10.00">+</text>
<text text-anchor="start" x="210" y="-77.5" font-family="Helvetica,sans-Serif" font-size="10.00">compute()</text>
<text text-anchor="start" x="197" y="-62.5" font-family="Helvetica,sans-Serif" font-size="10.00">+</text>
<text text-anchor="start" x="210" y="-62.5" font-family="Helvetica,sans-Serif" font-size="10.00">setSynchronizeBuffer()</text>
<text text-anchor="start" x="197" y="-47.5" font-family="Helvetica,sans-Serif" font-size="10.00">+</text>
<text text-anchor="start" x="210" y="-47.5" font-family="Helvetica,sans-Serif" font-size="10.00">beginSynchronize()</text>
<text text-anchor="start" x="197" y="-32.5" font-family="Helvetica,sans-Serif" font-size="10.00">+</text>
<text text-anchor="start" x="210" y="-32.5" font-family="Helvetica,sans-Serif" font-size="10.00">endSynchronize()</text>
<text text-anchor="start" x="199.5" y="-17.5" font-family="Helvetica,sans-Serif" font-size="10.00">&#45;</text>
<text text-anchor="start" x="210" y="-17.5" font-family="Helvetica,sans-Serif" font-size="10.00">ARCCORE_DEFINE_REFERENCE</text>
<text text-anchor="start" x="210" y="-6.5" font-family="Helvetica,sans-Serif" font-size="10.00">_COUNTED_INCLASS_METHODS()</text>
<polygon fill="#666666" stroke="#666666" points="193,-147.5 193,-147.5 378,-147.5 378,-147.5 193,-147.5"/>
<polygon fill="#666666" stroke="#666666" points="193,-102.5 193,-102.5 208,-102.5 208,-102.5 193,-102.5"/>
<polygon fill="#666666" stroke="#666666" points="208,-102.5 208,-102.5 378,-102.5 378,-102.5 208,-102.5"/>
<polygon fill="none" stroke="#666666" points="192.5,0 192.5,-165 377.5,-165 377.5,0 192.5,0"/>
</a>
</g>
</g>
<!-- Node2 -->
<g id="Node000002" class="node">
<title>Node2</title>
<g id="a_Node000002"><a xlink:href="../../d8/dba/classArcane_1_1ReferenceCounterImpl.html" target="_top" xlink:title="Implémentation thread&#45;safe d&#39;un compteur de référence.">
<polygon fill="white" stroke="transparent" points="162,-370 0,-370 0,-201 162,-201 162,-370"/>
<text text-anchor="start" x="6" y="-357.5" font-family="Helvetica,sans-Serif" font-size="10.00">Arcane::ReferenceCounterImpl</text>
<text text-anchor="start" x="6.5" y="-342.5" font-family="Helvetica,sans-Serif" font-size="10.00">&#45;</text>
<text text-anchor="start" x="17" y="-342.5" font-family="Helvetica,sans-Serif" font-size="10.00">m_nb_ref</text>
<text text-anchor="start" x="6.5" y="-327.5" font-family="Helvetica,sans-Serif" font-size="10.00">&#45;</text>
<text text-anchor="start" x="17" y="-327.5" font-family="Helvetica,sans-Serif" font-size="10.00">m_external_deleter</text>
<text text-anchor="start" x="4" y="-312.5" font-family="Helvetica,sans-Serif" font-size="10.00">+</text>
<text text-anchor="start" x="17" y="-312.5" font-family="Helvetica,sans-Serif" font-size="10.00">~ReferenceCounterImpl()</text>
<text text-anchor="start" x="4" y="-297.5" font-family="Helvetica,sans-Serif" font-size="10.00">+</text>
<text text-anchor="start" x="17" y="-297.5" font-family="Helvetica,sans-Serif" font-size="10.00">addReference()</text>
<text text-anchor="start" x="4" y="-282.5" font-family="Helvetica,sans-Serif" font-size="10.00">+</text>
<text text-anchor="start" x="17" y="-282.5" font-family="Helvetica,sans-Serif" font-size="10.00">removeReference()</text>
<text text-anchor="start" x="4" y="-267.5" font-family="Helvetica,sans-Serif" font-size="10.00">+</text>
<text text-anchor="start" x="17" y="-267.5" font-family="Helvetica,sans-Serif" font-size="10.00">_internalAddReference()</text>
<text text-anchor="start" x="4" y="-252.5" font-family="Helvetica,sans-Serif" font-size="10.00">+</text>
<text text-anchor="start" x="17" y="-252.5" font-family="Helvetica,sans-Serif" font-size="10.00">_internalRemoveReference()</text>
<text text-anchor="start" x="6.5" y="-237.5" font-family="Helvetica,sans-Serif" font-size="10.00">&#45;</text>
<text text-anchor="start" x="17" y="-237.5" font-family="Helvetica,sans-Serif" font-size="10.00">_setExternalDeleter()</text>
<text text-anchor="start" x="6.5" y="-222.5" font-family="Helvetica,sans-Serif" font-size="10.00">&#45;</text>
<text text-anchor="start" x="17" y="-222.5" font-family="Helvetica,sans-Serif" font-size="10.00">_externalDeleter()</text>
<text text-anchor="start" x="6.5" y="-207.5" font-family="Helvetica,sans-Serif" font-size="10.00">&#45;</text>
<text text-anchor="start" x="17" y="-207.5" font-family="Helvetica,sans-Serif" font-size="10.00">_destroyThisReference()</text>
<polygon fill="#666666" stroke="#666666" points="0,-352.5 0,-352.5 162,-352.5 162,-352.5 0,-352.5"/>
<polygon fill="#666666" stroke="#666666" points="0,-322.5 0,-322.5 15,-322.5 15,-322.5 0,-322.5"/>
<polygon fill="#666666" stroke="#666666" points="15,-322.5 15,-322.5 162,-322.5 162,-322.5 15,-322.5"/>
<polygon fill="none" stroke="#666666" points="0,-201 0,-370 162,-370 162,-201 0,-201"/>
</a>
</g>
</g>
<!-- Node2&#45;&gt;Node1 -->
<g id="edge1_Node000001_Node000002" class="edge">
<title>Node2&#45;&gt;Node1</title>
<g id="a_edge1_Node000001_Node000002"><a xlink:title=" ">
<path fill="none" stroke="#8b1a1a" d="M169.63,-197.17C180.4,-186.56 191.38,-175.74 202.06,-165.22"/>
<polygon fill="none" stroke="#8b1a1a" points="166.88,-194.97 162.21,-204.48 171.79,-199.96 166.88,-194.97"/>
</a>
</g>
</g>
<!-- Node3 -->
<g id="Node000003" class="node">
<title>Node3</title>
<g id="a_Node000003"><a xlink:href="../../d2/ddc/classArcane_1_1DataSynchronizeDispatcherBase.html" target="_top" xlink:title=" ">
<polygon fill="white" stroke="transparent" points="389.5,-358.5 180.5,-358.5 180.5,-212.5 389.5,-212.5 389.5,-358.5"/>
<text text-anchor="start" x="186" y="-346.5" font-family="Helvetica,sans-Serif" font-size="10.00">Arcane::DataSynchronizeDispatcherBase</text>
<text text-anchor="start" x="192.5" y="-331.5" font-family="Helvetica,sans-Serif" font-size="10.00">#</text>
<text text-anchor="start" x="213" y="-331.5" font-family="Helvetica,sans-Serif" font-size="10.00">m_parallel_mng</text>
<text text-anchor="start" x="192.5" y="-316.5" font-family="Helvetica,sans-Serif" font-size="10.00">#</text>
<text text-anchor="start" x="213" y="-316.5" font-family="Helvetica,sans-Serif" font-size="10.00">m_runner</text>
<text text-anchor="start" x="192.5" y="-301.5" font-family="Helvetica,sans-Serif" font-size="10.00">#</text>
<text text-anchor="start" x="213" y="-301.5" font-family="Helvetica,sans-Serif" font-size="10.00">m_sync_info</text>
<text text-anchor="start" x="192.5" y="-286.5" font-family="Helvetica,sans-Serif" font-size="10.00">#</text>
<text text-anchor="start" x="213" y="-286.5" font-family="Helvetica,sans-Serif" font-size="10.00">m_synchronize_implementation</text>
<text text-anchor="start" x="192.5" y="-271.5" font-family="Helvetica,sans-Serif" font-size="10.00">+</text>
<text text-anchor="start" x="213" y="-271.5" font-family="Helvetica,sans-Serif" font-size="10.00">DataSynchronizeDispatcher</text>
<text text-anchor="start" x="213" y="-260.5" font-family="Helvetica,sans-Serif" font-size="10.00">Base()</text>
<text text-anchor="start" x="192.5" y="-245.5" font-family="Helvetica,sans-Serif" font-size="10.00">+</text>
<text text-anchor="start" x="213" y="-245.5" font-family="Helvetica,sans-Serif" font-size="10.00">~DataSynchronizeDispatcher</text>
<text text-anchor="start" x="213" y="-234.5" font-family="Helvetica,sans-Serif" font-size="10.00">Base()</text>
<text text-anchor="start" x="192.5" y="-219.5" font-family="Helvetica,sans-Serif" font-size="10.00">#</text>
<text text-anchor="start" x="213" y="-219.5" font-family="Helvetica,sans-Serif" font-size="10.00">_compute()</text>
<polygon fill="#bfbfbf" stroke="#bfbfbf" points="181,-341.5 181,-341.5 390,-341.5 390,-341.5 181,-341.5"/>
<polygon fill="#bfbfbf" stroke="#bfbfbf" points="181,-281.5 181,-281.5 211,-281.5 211,-281.5 181,-281.5"/>
<polygon fill="#bfbfbf" stroke="#bfbfbf" points="211,-281.5 211,-281.5 390,-281.5 390,-281.5 211,-281.5"/>
<polygon fill="none" stroke="#bfbfbf" points="180.5,-212.5 180.5,-358.5 389.5,-358.5 389.5,-212.5 180.5,-212.5"/>
</a>
</g>
</g>
<!-- Node3&#45;&gt;Node1 -->
<g id="edge2_Node000001_Node000003" class="edge">
<title>Node3&#45;&gt;Node1</title>
<g id="a_edge2_Node000001_Node000003"><a xlink:title=" ">
<path fill="none" stroke="#63b8ff" d="M285,-202.05C285,-189.83 285,-177.24 285,-165.03"/>
<polygon fill="none" stroke="#63b8ff" points="281.5,-202.22 285,-212.22 288.5,-202.22 281.5,-202.22"/>
</a>
</g>
</g>
<!-- Node4 -->
<g id="Node000004" class="node">
<title>Node4</title>
<g id="a_Node000004"><a xlink:href="../../df/d59/classArcane_1_1IDataSynchronizeDispatcher.html" target="_top" xlink:title="Interface pour gérer la synchronisation d&#39;une donnée.">
<polygon fill="white" stroke="transparent" points="592.5,-366 407.5,-366 407.5,-205 592.5,-205 592.5,-366"/>
<text text-anchor="start" x="437.5" y="-353.5" font-family="Helvetica,sans-Serif" font-size="10.00">Arcane::IDataSynchronize</text>
<text text-anchor="start" x="474" y="-342.5" font-family="Helvetica,sans-Serif" font-size="10.00">Dispatcher</text>
<text text-anchor="start" x="498.5" y="-327.5" font-family="Helvetica,sans-Serif" font-size="10.00"> </text>
<text text-anchor="start" x="412" y="-312.5" font-family="Helvetica,sans-Serif" font-size="10.00">+</text>
<text text-anchor="start" x="425" y="-312.5" font-family="Helvetica,sans-Serif" font-size="10.00">compute()</text>
<text text-anchor="start" x="412" y="-297.5" font-family="Helvetica,sans-Serif" font-size="10.00">+</text>
<text text-anchor="start" x="425" y="-297.5" font-family="Helvetica,sans-Serif" font-size="10.00">setSynchronizeBuffer()</text>
<text text-anchor="start" x="412" y="-282.5" font-family="Helvetica,sans-Serif" font-size="10.00">+</text>
<text text-anchor="start" x="425" y="-282.5" font-family="Helvetica,sans-Serif" font-size="10.00">beginSynchronize()</text>
<text text-anchor="start" x="412" y="-267.5" font-family="Helvetica,sans-Serif" font-size="10.00">+</text>
<text text-anchor="start" x="425" y="-267.5" font-family="Helvetica,sans-Serif" font-size="10.00">endSynchronize()</text>
<text text-anchor="start" x="412" y="-252.5" font-family="Helvetica,sans-Serif" font-size="10.00">+</text>
<text text-anchor="start" x="425" y="-252.5" font-family="Helvetica,sans-Serif" font-size="10.00">create()</text>
<text text-anchor="start" x="412" y="-237.5" font-family="Helvetica,sans-Serif" font-size="10.00">#</text>
<text text-anchor="start" x="425" y="-237.5" font-family="Helvetica,sans-Serif" font-size="10.00">~IDataSynchronizeDispatcher()</text>
<text text-anchor="start" x="414.5" y="-222.5" font-family="Helvetica,sans-Serif" font-size="10.00">&#45;</text>
<text text-anchor="start" x="425" y="-222.5" font-family="Helvetica,sans-Serif" font-size="10.00">ARCCORE_DECLARE_REFERENCE</text>
<text text-anchor="start" x="425" y="-211.5" font-family="Helvetica,sans-Serif" font-size="10.00">_COUNTED_INCLASS_METHODS()</text>
<polygon fill="#666666" stroke="#666666" points="408,-337.5 408,-337.5 593,-337.5 593,-337.5 408,-337.5"/>
<polygon fill="#666666" stroke="#666666" points="408,-322.5 408,-322.5 593,-322.5 593,-322.5 408,-322.5"/>
<polygon fill="none" stroke="#666666" points="407.5,-205 407.5,-366 592.5,-366 592.5,-205 407.5,-205"/>
</a>
</g>
</g>
<!-- Node4&#45;&gt;Node1 -->
<g id="edge3_Node000001_Node000004" class="edge">
<title>Node4&#45;&gt;Node1</title>
<g id="a_edge3_Node000001_Node000004"><a xlink:title=" ">
<path fill="none" stroke="#63b8ff" d="M407.15,-197.7C395.58,-186.88 383.78,-175.84 372.29,-165.11"/>
<polygon fill="none" stroke="#63b8ff" points="405.02,-200.5 414.72,-204.77 409.8,-195.38 405.02,-200.5"/>
</a>
</g>
</g>
</g>
</svg>
