<?xml version="1.0" encoding="UTF-8" standalone="no"?>
<!DOCTYPE svg PUBLIC "-//W3C//DTD SVG 1.1//EN"
 "http://www.w3.org/Graphics/SVG/1.1/DTD/svg11.dtd">
<!-- Generated by graphviz version 2.43.0 (0)
 -->
<!-- Title: Arcane::CaseOptionMultiExtendedT&lt; T &gt; Pages: 1 -->
<svg width="332pt" height="913pt"
 viewBox="0.00 0.00 332.00 913.00" xmlns="http://www.w3.org/2000/svg" xmlns:xlink="http://www.w3.org/1999/xlink">
<g id="graph0" class="graph" transform="scale(1 1) rotate(0) translate(4 909)">
<title>Arcane::CaseOptionMultiExtendedT&lt; T &gt;</title>
<!-- Node1 -->
<g id="Node000001" class="node">
<title>Node1</title>
<g id="a_Node000001"><a xlink:title="Option du jeu de donnée de type liste de types étendus.">
<polygon fill="#999999" stroke="transparent" points="262,-120 85,-120 85,0 262,0 262,-120"/>
<text text-anchor="start" x="90.5" y="-108" font-family="Helvetica,sans-Serif" font-size="10.00">Arcane::CaseOptionMultiExtended</text>
<text text-anchor="start" x="156.5" y="-97" font-family="Helvetica,sans-Serif" font-size="10.00">T&lt; T &gt;</text>
<text text-anchor="start" x="93.5" y="-82" font-family="Helvetica,sans-Serif" font-size="10.00">&#45;</text>
<text text-anchor="start" x="105.5" y="-82" font-family="Helvetica,sans-Serif" font-size="10.00">m_values</text>
<text text-anchor="start" x="91" y="-67" font-family="Helvetica,sans-Serif" font-size="10.00">+</text>
<text text-anchor="start" x="105.5" y="-67" font-family="Helvetica,sans-Serif" font-size="10.00">CaseOptionMultiExtendedT()</text>
<text text-anchor="start" x="91" y="-52" font-family="Helvetica,sans-Serif" font-size="10.00">+</text>
<text text-anchor="start" x="105.5" y="-52" font-family="Helvetica,sans-Serif" font-size="10.00">~CaseOptionMultiExtendedT()</text>
<text text-anchor="start" x="91" y="-37" font-family="Helvetica,sans-Serif" font-size="10.00">#</text>
<text text-anchor="start" x="105.5" y="-37" font-family="Helvetica,sans-Serif" font-size="10.00">_tryToConvert()</text>
<text text-anchor="start" x="91" y="-22" font-family="Helvetica,sans-Serif" font-size="10.00">#</text>
<text text-anchor="start" x="105.5" y="-22" font-family="Helvetica,sans-Serif" font-size="10.00">_allocate()</text>
<text text-anchor="start" x="91" y="-7" font-family="Helvetica,sans-Serif" font-size="10.00">#</text>
<text text-anchor="start" x="105.5" y="-7" font-family="Helvetica,sans-Serif" font-size="10.00">_nbElem()</text>
<polygon fill="#666666" stroke="#666666" points="85.5,-92 85.5,-92 262.5,-92 262.5,-92 85.5,-92"/>
<polygon fill="#666666" stroke="#666666" points="85.5,-77 85.5,-77 103.5,-77 103.5,-77 85.5,-77"/>
<polygon fill="#666666" stroke="#666666" points="103.5,-77 103.5,-77 262.5,-77 262.5,-77 103.5,-77"/>
<polygon fill="none" stroke="#666666" points="85,0 85,-120 262,-120 262,0 85,0"/>
</a>
</g>
</g>
<!-- Node2 -->
<g id="Node000002" class="node">
<title>Node2</title>
<g id="a_Node000002"><a xlink:href="../../d8/d7e/classArcane_1_1CaseOptionMultiExtended.html" target="_top" xlink:title="Option du jeu de donnée de type liste de types étendus.">
<polygon fill="white" stroke="transparent" points="177,-430 0,-430 0,-201 177,-201 177,-430"/>
<text text-anchor="start" x="5.5" y="-417.5" font-family="Helvetica,sans-Serif" font-size="10.00">Arcane::CaseOptionMultiExtended</text>
<text text-anchor="start" x="10" y="-402.5" font-family="Helvetica,sans-Serif" font-size="10.00">&#45;</text>
<text text-anchor="start" x="23.5" y="-402.5" font-family="Helvetica,sans-Serif" font-size="10.00">m_type_name</text>
<text text-anchor="start" x="10" y="-387.5" font-family="Helvetica,sans-Serif" font-size="10.00">&#45;</text>
<text text-anchor="start" x="23.5" y="-387.5" font-family="Helvetica,sans-Serif" font-size="10.00">m_values</text>
<text text-anchor="start" x="7.5" y="-372.5" font-family="Helvetica,sans-Serif" font-size="10.00">+</text>
<text text-anchor="start" x="23.5" y="-372.5" font-family="Helvetica,sans-Serif" font-size="10.00">CaseOptionMultiExtended()</text>
<text text-anchor="start" x="7.5" y="-357.5" font-family="Helvetica,sans-Serif" font-size="10.00">+</text>
<text text-anchor="start" x="23.5" y="-357.5" font-family="Helvetica,sans-Serif" font-size="10.00">~CaseOptionMultiExtended()</text>
<text text-anchor="start" x="7.5" y="-342.5" font-family="Helvetica,sans-Serif" font-size="10.00">+</text>
<text text-anchor="start" x="23.5" y="-342.5" font-family="Helvetica,sans-Serif" font-size="10.00">print()</text>
<text text-anchor="start" x="7.5" y="-327.5" font-family="Helvetica,sans-Serif" font-size="10.00">+</text>
<text text-anchor="start" x="23.5" y="-327.5" font-family="Helvetica,sans-Serif" font-size="10.00">function()</text>
<text text-anchor="start" x="7.5" y="-312.5" font-family="Helvetica,sans-Serif" font-size="10.00">+</text>
<text text-anchor="start" x="23.5" y="-312.5" font-family="Helvetica,sans-Serif" font-size="10.00">updateFromFunction()</text>
<text text-anchor="start" x="7.5" y="-297.5" font-family="Helvetica,sans-Serif" font-size="10.00">+</text>
<text text-anchor="start" x="23.5" y="-297.5" font-family="Helvetica,sans-Serif" font-size="10.00">visit()</text>
<text text-anchor="start" x="7.5" y="-282.5" font-family="Helvetica,sans-Serif" font-size="10.00">#</text>
<text text-anchor="start" x="23.5" y="-282.5" font-family="Helvetica,sans-Serif" font-size="10.00">_tryToConvert()</text>
<text text-anchor="start" x="7.5" y="-267.5" font-family="Helvetica,sans-Serif" font-size="10.00">#</text>
<text text-anchor="start" x="23.5" y="-267.5" font-family="Helvetica,sans-Serif" font-size="10.00">_allocate()</text>
<text text-anchor="start" x="7.5" y="-252.5" font-family="Helvetica,sans-Serif" font-size="10.00">#</text>
<text text-anchor="start" x="23.5" y="-252.5" font-family="Helvetica,sans-Serif" font-size="10.00">_allowPhysicalUnit()</text>
<text text-anchor="start" x="7.5" y="-237.5" font-family="Helvetica,sans-Serif" font-size="10.00">#</text>
<text text-anchor="start" x="23.5" y="-237.5" font-family="Helvetica,sans-Serif" font-size="10.00">_nbElem()</text>
<text text-anchor="start" x="7.5" y="-222.5" font-family="Helvetica,sans-Serif" font-size="10.00">#</text>
<text text-anchor="start" x="23.5" y="-222.5" font-family="Helvetica,sans-Serif" font-size="10.00">_typeName()</text>
<text text-anchor="start" x="7.5" y="-207.5" font-family="Helvetica,sans-Serif" font-size="10.00">#</text>
<text text-anchor="start" x="23.5" y="-207.5" font-family="Helvetica,sans-Serif" font-size="10.00">_search()</text>
<polygon fill="#666666" stroke="#666666" points="0.5,-412.5 0.5,-412.5 177.5,-412.5 177.5,-412.5 0.5,-412.5"/>
<polygon fill="#666666" stroke="#666666" points="0.5,-382.5 0.5,-382.5 21.5,-382.5 21.5,-382.5 0.5,-382.5"/>
<polygon fill="#666666" stroke="#666666" points="21.5,-382.5 21.5,-382.5 177.5,-382.5 177.5,-382.5 21.5,-382.5"/>
<polygon fill="none" stroke="#666666" points="0,-201 0,-430 177,-430 177,-201 0,-201"/>
</a>
</g>
</g>
<!-- Node2&#45;&gt;Node1 -->
<g id="edge1_Node000001_Node000002" class="edge">
<title>Node2&#45;&gt;Node1</title>
<g id="a_edge1_Node000001_Node000002"><a xlink:title=" ">
<path fill="none" stroke="#63b8ff" d="M129.93,-190.94C138.19,-166.31 146.5,-141.52 153.62,-120.3"/>
<polygon fill="none" stroke="#63b8ff" points="126.51,-190.13 126.65,-200.73 133.15,-192.36 126.51,-190.13"/>
</a>
</g>
</g>
<!-- Node3 -->
<g id="Node000003" class="node">
<title>Node3</title>
<g id="a_Node000003"><a xlink:href="../../df/d69/classArcane_1_1CaseOptionBase.html" target="_top" xlink:title="Classe de base d&#39;une option du jeu de donnée.">
<polygon fill="white" stroke="transparent" points="167,-905 10,-905 10,-511 167,-511 167,-905"/>
<text text-anchor="start" x="28.5" y="-893" font-family="Helvetica,sans-Serif" font-size="10.00">Arcane::CaseOptionBase</text>
<text text-anchor="start" x="17" y="-878" font-family="Helvetica,sans-Serif" font-size="10.00">&#45;</text>
<text text-anchor="start" x="27.5" y="-878" font-family="Helvetica,sans-Serif" font-size="10.00">m_p</text>
<text text-anchor="start" x="14.5" y="-863" font-family="Helvetica,sans-Serif" font-size="10.00">+</text>
<text text-anchor="start" x="27.5" y="-863" font-family="Helvetica,sans-Serif" font-size="10.00">~CaseOptionBase()</text>
<text text-anchor="start" x="14.5" y="-848" font-family="Helvetica,sans-Serif" font-size="10.00">+</text>
<text text-anchor="start" x="27.5" y="-848" font-family="Helvetica,sans-Serif" font-size="10.00">trueName()</text>
<text text-anchor="start" x="14.5" y="-833" font-family="Helvetica,sans-Serif" font-size="10.00">+</text>
<text text-anchor="start" x="27.5" y="-833" font-family="Helvetica,sans-Serif" font-size="10.00">name()</text>
<text text-anchor="start" x="14.5" y="-818" font-family="Helvetica,sans-Serif" font-size="10.00">+</text>
<text text-anchor="start" x="27.5" y="-818" font-family="Helvetica,sans-Serif" font-size="10.00">translatedName()</text>
<text text-anchor="start" x="14.5" y="-803" font-family="Helvetica,sans-Serif" font-size="10.00">+</text>
<text text-anchor="start" x="27.5" y="-803" font-family="Helvetica,sans-Serif" font-size="10.00">search()</text>
<text text-anchor="start" x="14.5" y="-788" font-family="Helvetica,sans-Serif" font-size="10.00">+</text>
<text text-anchor="start" x="27.5" y="-788" font-family="Helvetica,sans-Serif" font-size="10.00">print()</text>
<text text-anchor="start" x="14.5" y="-773" font-family="Helvetica,sans-Serif" font-size="10.00">+</text>
<text text-anchor="start" x="27.5" y="-773" font-family="Helvetica,sans-Serif" font-size="10.00">caseMng()</text>
<text text-anchor="start" x="14.5" y="-758" font-family="Helvetica,sans-Serif" font-size="10.00">+</text>
<text text-anchor="start" x="27.5" y="-758" font-family="Helvetica,sans-Serif" font-size="10.00">parentOptionList()</text>
<text text-anchor="start" x="14.5" y="-743" font-family="Helvetica,sans-Serif" font-size="10.00">+</text>
<text text-anchor="start" x="27.5" y="-743" font-family="Helvetica,sans-Serif" font-size="10.00">traceMng()</text>
<text text-anchor="start" x="14.5" y="-728" font-family="Helvetica,sans-Serif" font-size="10.00">+</text>
<text text-anchor="start" x="27.5" y="-728" font-family="Helvetica,sans-Serif" font-size="10.00">subDomain()</text>
<text text-anchor="start" x="27.5" y="-713" font-family="Helvetica,sans-Serif" font-size="10.00">et 13 de plus...</text>
<text text-anchor="start" x="14.5" y="-698" font-family="Helvetica,sans-Serif" font-size="10.00">#</text>
<text text-anchor="start" x="27.5" y="-698" font-family="Helvetica,sans-Serif" font-size="10.00">CaseOptionBase()</text>
<text text-anchor="start" x="14.5" y="-683" font-family="Helvetica,sans-Serif" font-size="10.00">#</text>
<text text-anchor="start" x="27.5" y="-683" font-family="Helvetica,sans-Serif" font-size="10.00">_defaultValue()</text>
<text text-anchor="start" x="14.5" y="-668" font-family="Helvetica,sans-Serif" font-size="10.00">#</text>
<text text-anchor="start" x="27.5" y="-668" font-family="Helvetica,sans-Serif" font-size="10.00">_setDefaultValue()</text>
<text text-anchor="start" x="14.5" y="-653" font-family="Helvetica,sans-Serif" font-size="10.00">#</text>
<text text-anchor="start" x="27.5" y="-653" font-family="Helvetica,sans-Serif" font-size="10.00">_search()</text>
<text text-anchor="start" x="14.5" y="-638" font-family="Helvetica,sans-Serif" font-size="10.00">#</text>
<text text-anchor="start" x="27.5" y="-638" font-family="Helvetica,sans-Serif" font-size="10.00">_setIsInitialized()</text>
<text text-anchor="start" x="14.5" y="-623" font-family="Helvetica,sans-Serif" font-size="10.00">#</text>
<text text-anchor="start" x="27.5" y="-623" font-family="Helvetica,sans-Serif" font-size="10.00">_isInitialized()</text>
<text text-anchor="start" x="14.5" y="-608" font-family="Helvetica,sans-Serif" font-size="10.00">#</text>
<text text-anchor="start" x="27.5" y="-608" font-family="Helvetica,sans-Serif" font-size="10.00">_checkIsInitialized()</text>
<text text-anchor="start" x="14.5" y="-593" font-family="Helvetica,sans-Serif" font-size="10.00">#</text>
<text text-anchor="start" x="27.5" y="-593" font-family="Helvetica,sans-Serif" font-size="10.00">_checkMinMaxOccurs()</text>
<text text-anchor="start" x="14.5" y="-578" font-family="Helvetica,sans-Serif" font-size="10.00">#</text>
<text text-anchor="start" x="27.5" y="-578" font-family="Helvetica,sans-Serif" font-size="10.00">_xpathFullName()</text>
<text text-anchor="start" x="17" y="-563" font-family="Helvetica,sans-Serif" font-size="10.00">&#45;</text>
<text text-anchor="start" x="27.5" y="-563" font-family="Helvetica,sans-Serif" font-size="10.00">_setTranslatedName()</text>
<text text-anchor="start" x="17" y="-548" font-family="Helvetica,sans-Serif" font-size="10.00">&#45;</text>
<text text-anchor="start" x="27.5" y="-548" font-family="Helvetica,sans-Serif" font-size="10.00">_setCategoryDefaultValue()</text>
<text text-anchor="start" x="17" y="-533" font-family="Helvetica,sans-Serif" font-size="10.00">&#45;</text>
<text text-anchor="start" x="27.5" y="-533" font-family="Helvetica,sans-Serif" font-size="10.00">CaseOptionBase()</text>
<text text-anchor="start" x="17" y="-518" font-family="Helvetica,sans-Serif" font-size="10.00">&#45;</text>
<text text-anchor="start" x="27.5" y="-518" font-family="Helvetica,sans-Serif" font-size="10.00">operator=()</text>
<polygon fill="#666666" stroke="#666666" points="10.5,-888 10.5,-888 167.5,-888 167.5,-888 10.5,-888"/>
<polygon fill="#666666" stroke="#666666" points="10.5,-873 10.5,-873 25.5,-873 25.5,-873 10.5,-873"/>
<polygon fill="#666666" stroke="#666666" points="25.5,-873 25.5,-873 167.5,-873 167.5,-873 25.5,-873"/>
<polygon fill="none" stroke="#666666" points="10,-511 10,-905 167,-905 167,-511 10,-511"/>
</a>
</g>
</g>
<!-- Node3&#45;&gt;Node2 -->
<g id="edge2_Node000002_Node000003" class="edge">
<title>Node3&#45;&gt;Node2</title>
<g id="a_edge2_Node000002_Node000003"><a xlink:title=" ">
<path fill="none" stroke="#63b8ff" d="M88.5,-500.85C88.5,-476.57 88.5,-452.52 88.5,-430.2"/>
<polygon fill="none" stroke="#63b8ff" points="85,-500.89 88.5,-510.89 92,-500.89 85,-500.89"/>
</a>
</g>
</g>
<!-- Node4 -->
<g id="Node000004" class="node">
<title>Node4</title>
<g id="a_Node000004"><a xlink:href="../../d2/d30/classArcane_1_1ArrayView.html" target="_top" xlink:title="Vue modifiable d&#39;un tableau d&#39;un type T.">
<polygon fill="white" stroke="transparent" points="324,-475 195,-475 195,-156 324,-156 324,-475"/>
<text text-anchor="start" x="200.5" y="-462.5" font-family="Helvetica,sans-Serif" font-size="10.00">Arcane::ArrayView&lt; T &gt;</text>
<text text-anchor="start" x="210.5" y="-447.5" font-family="Helvetica,sans-Serif" font-size="10.00">&#45;</text>
<text text-anchor="start" x="229.5" y="-447.5" font-family="Helvetica,sans-Serif" font-size="10.00">m_size</text>
<text text-anchor="start" x="210.5" y="-432.5" font-family="Helvetica,sans-Serif" font-size="10.00">&#45;</text>
<text text-anchor="start" x="229.5" y="-432.5" font-family="Helvetica,sans-Serif" font-size="10.00">m_ptr</text>
<text text-anchor="start" x="208" y="-417.5" font-family="Helvetica,sans-Serif" font-size="10.00">+</text>
<text text-anchor="start" x="229.5" y="-417.5" font-family="Helvetica,sans-Serif" font-size="10.00">ArrayView()</text>
<text text-anchor="start" x="208" y="-402.5" font-family="Helvetica,sans-Serif" font-size="10.00">+</text>
<text text-anchor="start" x="229.5" y="-402.5" font-family="Helvetica,sans-Serif" font-size="10.00">ArrayView()</text>
<text text-anchor="start" x="208" y="-387.5" font-family="Helvetica,sans-Serif" font-size="10.00">+</text>
<text text-anchor="start" x="229.5" y="-387.5" font-family="Helvetica,sans-Serif" font-size="10.00">ArrayView()</text>
<text text-anchor="start" x="208" y="-372.5" font-family="Helvetica,sans-Serif" font-size="10.00">+</text>
<text text-anchor="start" x="229.5" y="-372.5" font-family="Helvetica,sans-Serif" font-size="10.00">ArrayView()</text>
<text text-anchor="start" x="208" y="-357.5" font-family="Helvetica,sans-Serif" font-size="10.00">+</text>
<text text-anchor="start" x="229.5" y="-357.5" font-family="Helvetica,sans-Serif" font-size="10.00">operator=()</text>
<text text-anchor="start" x="208" y="-342.5" font-family="Helvetica,sans-Serif" font-size="10.00">+</text>
<text text-anchor="start" x="229.5" y="-342.5" font-family="Helvetica,sans-Serif" font-size="10.00">operator=()</text>
<text text-anchor="start" x="208" y="-327.5" font-family="Helvetica,sans-Serif" font-size="10.00">+</text>
<text text-anchor="start" x="229.5" y="-327.5" font-family="Helvetica,sans-Serif" font-size="10.00">operator[]()</text>
<text text-anchor="start" x="208" y="-312.5" font-family="Helvetica,sans-Serif" font-size="10.00">+</text>
<text text-anchor="start" x="229.5" y="-312.5" font-family="Helvetica,sans-Serif" font-size="10.00">operator[]()</text>
<text text-anchor="start" x="208" y="-297.5" font-family="Helvetica,sans-Serif" font-size="10.00">+</text>
<text text-anchor="start" x="229.5" y="-297.5" font-family="Helvetica,sans-Serif" font-size="10.00">operator()()</text>
<text text-anchor="start" x="208" y="-282.5" font-family="Helvetica,sans-Serif" font-size="10.00">+</text>
<text text-anchor="start" x="229.5" y="-282.5" font-family="Helvetica,sans-Serif" font-size="10.00">operator()()</text>
<text text-anchor="start" x="229.5" y="-267.5" font-family="Helvetica,sans-Serif" font-size="10.00">et 33 de plus...</text>
<text text-anchor="start" x="208" y="-252.5" font-family="Helvetica,sans-Serif" font-size="10.00">+</text>
<text text-anchor="start" x="229.5" y="-252.5" font-family="Helvetica,sans-Serif" font-size="10.00">create()</text>
<text text-anchor="start" x="208" y="-237.5" font-family="Helvetica,sans-Serif" font-size="10.00">#</text>
<text text-anchor="start" x="229.5" y="-237.5" font-family="Helvetica,sans-Serif" font-size="10.00">_ptr()</text>
<text text-anchor="start" x="208" y="-222.5" font-family="Helvetica,sans-Serif" font-size="10.00">#</text>
<text text-anchor="start" x="229.5" y="-222.5" font-family="Helvetica,sans-Serif" font-size="10.00">_ptr()</text>
<text text-anchor="start" x="208" y="-207.5" font-family="Helvetica,sans-Serif" font-size="10.00">#</text>
<text text-anchor="start" x="229.5" y="-207.5" font-family="Helvetica,sans-Serif" font-size="10.00">_setArray()</text>
<text text-anchor="start" x="208" y="-192.5" font-family="Helvetica,sans-Serif" font-size="10.00">#</text>
<text text-anchor="start" x="229.5" y="-192.5" font-family="Helvetica,sans-Serif" font-size="10.00">_setPtr()</text>
<text text-anchor="start" x="208" y="-177.5" font-family="Helvetica,sans-Serif" font-size="10.00">#</text>
<text text-anchor="start" x="229.5" y="-177.5" font-family="Helvetica,sans-Serif" font-size="10.00">_setSize()</text>
<text text-anchor="start" x="210.5" y="-162.5" font-family="Helvetica,sans-Serif" font-size="10.00">&#45;</text>
<text text-anchor="start" x="229.5" y="-162.5" font-family="Helvetica,sans-Serif" font-size="10.00">_min()</text>
<polygon fill="#666666" stroke="#666666" points="195.5,-457.5 195.5,-457.5 324.5,-457.5 324.5,-457.5 195.5,-457.5"/>
<polygon fill="#666666" stroke="#666666" points="195.5,-427.5 195.5,-427.5 227.5,-427.5 227.5,-427.5 195.5,-427.5"/>
<polygon fill="#666666" stroke="#666666" points="227.5,-427.5 227.5,-427.5 324.5,-427.5 324.5,-427.5 227.5,-427.5"/>
<polygon fill="none" stroke="#666666" points="195,-156 195,-475 324,-475 324,-156 195,-156"/>
</a>
</g>
</g>
<!-- Node4&#45;&gt;Node1 -->
<g id="edge3_Node000001_Node000004" class="edge">
<title>Node4&#45;&gt;Node1</title>
<g id="a_edge3_Node000001_Node000004"><a xlink:title=" ">
<path fill="none" stroke="#63b8ff" d="M202.41,-146.21C199.33,-137.14 196.37,-128.4 193.58,-120.19"/>
<polygon fill="none" stroke="#63b8ff" points="199.12,-147.41 205.65,-155.75 205.75,-145.16 199.12,-147.41"/>
</a>
</g>
</g>
</g>
</svg>
