<?xml version="1.0" encoding="UTF-8" standalone="no"?>
<!DOCTYPE svg PUBLIC "-//W3C//DTD SVG 1.1//EN"
 "http://www.w3.org/Graphics/SVG/1.1/DTD/svg11.dtd">
<!-- Generated by graphviz version 2.43.0 (0)
 -->
<!-- Title: Arcane::ContigMachineShMemWin&lt; Type &gt; Pages: 1 -->
<!--zoomable 1718 -->

<svg id="main" version="1.1" xmlns="http://www.w3.org/2000/svg" xmlns:xlink="http://www.w3.org/1999/xlink" xml:space="preserve" onload="init(evt)">

<style type="text/css"><![CDATA[
.node, .edge {opacity: 0.7;}
.node.selected, .edge.selected {opacity: 1;}
.edge:hover path { stroke: red; }
.edge:hover polygon { stroke: red; fill: red; }
]]></style>

<defs>
  <circle id="rim" cx="0" cy="0" r="7"/>
  <circle id="rim2" cx="0" cy="0" r="3.5"/>
  <g id="zoomPlus">
    <use xlink:href="#rim" fill="#404040"><set attributeName="fill" to="#808080" begin="zoomplus.mouseover" end="zoomplus.mouseout"/></use>
    <path d="M-4,0h8M0,-4v8" fill="none" stroke="white" stroke-width="1.5" pointer-events="none"/>
  </g>
  <g id="zoomMin">
    <use xlink:href="#rim" fill="#404040"><set attributeName="fill" to="#808080" begin="zoomminus.mouseover" end="zoomminus.mouseout"/></use>
    <path d="M-4,0h8" fill="none" stroke="white" stroke-width="1.5" pointer-events="none"/>
  </g>
  <g id="arrowUp" transform="translate(30 24)">
    <use xlink:href="#rim"/>
    <path pointer-events="none" fill="none" stroke="white" stroke-width="1.5" d="M0,-3.0v7 M-2.5,-0.5L0,-3.0L2.5,-0.5"/>
  </g>
  <g id="arrowRight" transform="rotate(90) translate(36 -43)">
    <use xlink:href="#rim"/>
    <path pointer-events="none" fill="none" stroke="white" stroke-width="1.5" d="M0,-3.0v7 M-2.5,-0.5L0,-3.0L2.5,-0.5"/>
  </g>
  <g id="arrowDown" transform="rotate(180) translate(-30 -48)">
    <use xlink:href="#rim"/>
    <path pointer-events="none" fill="none" stroke="white" stroke-width="1.5" d="M0,-3.0v7 M-2.5,-0.5L0,-3.0L2.5,-0.5"/>
  </g>
  <g id="arrowLeft" transform="rotate(270) translate(-36 17)">
    <use xlink:href="#rim"/>
    <path pointer-events="none" fill="none" stroke="white" stroke-width="1.5" d="M0,-3.0v7 M-2.5,-0.5L0,-3.0L2.5,-0.5"/>
  </g>
  <g id="resetDef">
    <use xlink:href="#rim2" fill="#404040"><set attributeName="fill" to="#808080" begin="reset.mouseover" end="reset.mouseout"/></use>
  </g>
</defs>
<script type="application/ecmascript">
var viewWidth = 518;
var viewHeight = 1718;
var sectionId = 'dynsection-0';
</script>
<script type="application/ecmascript" xlink:href="../../svg.min.js"/>
<svg id="graph" class="graph">
<g id="viewport">
<title>Arcane::ContigMachineShMemWin&lt; Type &gt;</title>
<!-- Node1 -->
<g id="Node000001" class="node">
<title>Node1</title>
<g id="a_Node000001"><a xlink:title="Classe permettant de créer une fenêtre mémoire partagée entre les sous&#45;domaines d&#39;un même noeud....">
<polygon fill="#999999" stroke="transparent" points="237.5,-195 77.5,-195 77.5,0 237.5,0 237.5,-195"/>
<text text-anchor="start" x="82.5" y="-182.5" font-family="Helvetica,sans-Serif" font-size="10.00">Arcane::ContigMachineShMem</text>
<text text-anchor="start" x="125.5" y="-171.5" font-family="Helvetica,sans-Serif" font-size="10.00">Win&lt; Type &gt;</text>
<text text-anchor="start" x="155.5" y="-156.5" font-family="Helvetica,sans-Serif" font-size="10.00"> </text>
<text text-anchor="start" x="82" y="-141.5" font-family="Helvetica,sans-Serif" font-size="10.00">+</text>
<text text-anchor="start" x="95.5" y="-141.5" font-family="Helvetica,sans-Serif" font-size="10.00">ContigMachineShMemWin()</text>
<text text-anchor="start" x="82" y="-126.5" font-family="Helvetica,sans-Serif" font-size="10.00">+</text>
<text text-anchor="start" x="95.5" y="-126.5" font-family="Helvetica,sans-Serif" font-size="10.00">segmentView()</text>
<text text-anchor="start" x="82" y="-111.5" font-family="Helvetica,sans-Serif" font-size="10.00">+</text>
<text text-anchor="start" x="95.5" y="-111.5" font-family="Helvetica,sans-Serif" font-size="10.00">segmentView()</text>
<text text-anchor="start" x="82" y="-96.5" font-family="Helvetica,sans-Serif" font-size="10.00">+</text>
<text text-anchor="start" x="95.5" y="-96.5" font-family="Helvetica,sans-Serif" font-size="10.00">windowView()</text>
<text text-anchor="start" x="82" y="-81.5" font-family="Helvetica,sans-Serif" font-size="10.00">+</text>
<text text-anchor="start" x="95.5" y="-81.5" font-family="Helvetica,sans-Serif" font-size="10.00">segmentConstView()</text>
<text text-anchor="start" x="82" y="-66.5" font-family="Helvetica,sans-Serif" font-size="10.00">+</text>
<text text-anchor="start" x="95.5" y="-66.5" font-family="Helvetica,sans-Serif" font-size="10.00">segmentConstView()</text>
<text text-anchor="start" x="82" y="-51.5" font-family="Helvetica,sans-Serif" font-size="10.00">+</text>
<text text-anchor="start" x="95.5" y="-51.5" font-family="Helvetica,sans-Serif" font-size="10.00">windowConstView()</text>
<text text-anchor="start" x="82" y="-36.5" font-family="Helvetica,sans-Serif" font-size="10.00">+</text>
<text text-anchor="start" x="95.5" y="-36.5" font-family="Helvetica,sans-Serif" font-size="10.00">resizeSegment()</text>
<text text-anchor="start" x="82" y="-21.5" font-family="Helvetica,sans-Serif" font-size="10.00">+</text>
<text text-anchor="start" x="95.5" y="-21.5" font-family="Helvetica,sans-Serif" font-size="10.00">machineRanks()</text>
<text text-anchor="start" x="82" y="-6.5" font-family="Helvetica,sans-Serif" font-size="10.00">+</text>
<text text-anchor="start" x="95.5" y="-6.5" font-family="Helvetica,sans-Serif" font-size="10.00">barrier()</text>
<polygon fill="#666666" stroke="#666666" points="77.5,-166.5 77.5,-166.5 237.5,-166.5 237.5,-166.5 77.5,-166.5"/>
<polygon fill="#666666" stroke="#666666" points="77.5,-151.5 77.5,-151.5 237.5,-151.5 237.5,-151.5 77.5,-151.5"/>
<polygon fill="none" stroke="#666666" points="77.5,0 77.5,-195 237.5,-195 237.5,0 77.5,0"/>
</a>
</g>
</g>
<!-- Node2 -->
<g id="Node000002" class="node">
<title>Node2</title>
<g id="a_Node000002"><a xlink:href="../../d5/df9/classArcane_1_1ContigMachineShMemWinBase.html" target="_top" xlink:title="Classe permettant de créer une fenêtre mémoire partagée entre les sous&#45;domaines d&#39;un même noeud....">
<polygon fill="white" stroke="transparent" points="248,-437 67,-437 67,-242 248,-242 248,-437"/>
<text text-anchor="start" x="83" y="-424.5" font-family="Helvetica,sans-Serif" font-size="10.00">Arcane::ContigMachineShMem</text>
<text text-anchor="start" x="136.5" y="-413.5" font-family="Helvetica,sans-Serif" font-size="10.00">WinBase</text>
<text text-anchor="start" x="74" y="-398.5" font-family="Helvetica,sans-Serif" font-size="10.00">&#45;</text>
<text text-anchor="start" x="84.5" y="-398.5" font-family="Helvetica,sans-Serif" font-size="10.00">m_sizeof_elem</text>
<text text-anchor="start" x="71.5" y="-383.5" font-family="Helvetica,sans-Serif" font-size="10.00">+</text>
<text text-anchor="start" x="84.5" y="-383.5" font-family="Helvetica,sans-Serif" font-size="10.00">ContigMachineShMemWinBase()</text>
<text text-anchor="start" x="71.5" y="-368.5" font-family="Helvetica,sans-Serif" font-size="10.00">+</text>
<text text-anchor="start" x="84.5" y="-368.5" font-family="Helvetica,sans-Serif" font-size="10.00">segmentView()</text>
<text text-anchor="start" x="71.5" y="-353.5" font-family="Helvetica,sans-Serif" font-size="10.00">+</text>
<text text-anchor="start" x="84.5" y="-353.5" font-family="Helvetica,sans-Serif" font-size="10.00">segmentView()</text>
<text text-anchor="start" x="71.5" y="-338.5" font-family="Helvetica,sans-Serif" font-size="10.00">+</text>
<text text-anchor="start" x="84.5" y="-338.5" font-family="Helvetica,sans-Serif" font-size="10.00">windowView()</text>
<text text-anchor="start" x="71.5" y="-323.5" font-family="Helvetica,sans-Serif" font-size="10.00">+</text>
<text text-anchor="start" x="84.5" y="-323.5" font-family="Helvetica,sans-Serif" font-size="10.00">segmentConstView()</text>
<text text-anchor="start" x="71.5" y="-308.5" font-family="Helvetica,sans-Serif" font-size="10.00">+</text>
<text text-anchor="start" x="84.5" y="-308.5" font-family="Helvetica,sans-Serif" font-size="10.00">segmentConstView()</text>
<text text-anchor="start" x="71.5" y="-293.5" font-family="Helvetica,sans-Serif" font-size="10.00">+</text>
<text text-anchor="start" x="84.5" y="-293.5" font-family="Helvetica,sans-Serif" font-size="10.00">windowConstView()</text>
<text text-anchor="start" x="71.5" y="-278.5" font-family="Helvetica,sans-Serif" font-size="10.00">+</text>
<text text-anchor="start" x="84.5" y="-278.5" font-family="Helvetica,sans-Serif" font-size="10.00">resizeSegment()</text>
<text text-anchor="start" x="71.5" y="-263.5" font-family="Helvetica,sans-Serif" font-size="10.00">+</text>
<text text-anchor="start" x="84.5" y="-263.5" font-family="Helvetica,sans-Serif" font-size="10.00">machineRanks()</text>
<text text-anchor="start" x="71.5" y="-248.5" font-family="Helvetica,sans-Serif" font-size="10.00">+</text>
<text text-anchor="start" x="84.5" y="-248.5" font-family="Helvetica,sans-Serif" font-size="10.00">barrier()</text>
<polygon fill="#666666" stroke="#666666" points="67.5,-408.5 67.5,-408.5 248.5,-408.5 248.5,-408.5 67.5,-408.5"/>
<polygon fill="#666666" stroke="#666666" points="67.5,-393.5 67.5,-393.5 82.5,-393.5 82.5,-393.5 67.5,-393.5"/>
<polygon fill="#666666" stroke="#666666" points="82.5,-393.5 82.5,-393.5 248.5,-393.5 248.5,-393.5 82.5,-393.5"/>
<polygon fill="none" stroke="#666666" points="67,-242 67,-437 248,-437 248,-242 67,-242"/>
</a>
</g>
</g>
<!-- Node2&#45;&gt;Node1 -->
<g id="edge1_Node000001_Node000002" class="edge">
<title>Node2&#45;&gt;Node1</title>
<g id="a_edge1_Node000001_Node000002"><a xlink:title=" ">
<path fill="none" stroke="#63b8ff" d="M157.5,-241.92C157.5,-230.63 157.5,-219.06 157.5,-207.62"/>
<polygon fill="none" stroke="#63b8ff" points="157.5,-207.27 153.5,-201.27 157.5,-195.27 161.5,-201.27 157.5,-207.27"/>
</a>
</g>
<text text-anchor="middle" x="179.5" y="-216" font-family="Helvetica,sans-Serif" font-size="10.00" fill="grey"> &#45;m_impl</text>
</g>
<!-- Node3 -->
<g id="Node000003" class="node">
<title>Node3</title>
<g id="a_Node000003"><a xlink:href="../../d3/df6/classArcane_1_1IParallelMngInternal.html" target="_top" xlink:title="Partie interne de IParallelMng.">
<polygon fill="white" stroke="transparent" points="211,-954.5 0,-954.5 0,-684.5 211,-684.5 211,-954.5"/>
<text text-anchor="start" x="37" y="-942.5" font-family="Helvetica,sans-Serif" font-size="10.00">Arcane::IParallelMngInternal</text>
<text text-anchor="start" x="104" y="-927.5" font-family="Helvetica,sans-Serif" font-size="10.00"> </text>
<text text-anchor="start" x="4.5" y="-912.5" font-family="Helvetica,sans-Serif" font-size="10.00">+</text>
<text text-anchor="start" x="17.5" y="-912.5" font-family="Helvetica,sans-Serif" font-size="10.00">~IParallelMngInternal()</text>
<text text-anchor="start" x="4.5" y="-897.5" font-family="Helvetica,sans-Serif" font-size="10.00">+</text>
<text text-anchor="start" x="17.5" y="-897.5" font-family="Helvetica,sans-Serif" font-size="10.00">runner()</text>
<text text-anchor="start" x="4.5" y="-882.5" font-family="Helvetica,sans-Serif" font-size="10.00">+</text>
<text text-anchor="start" x="17.5" y="-882.5" font-family="Helvetica,sans-Serif" font-size="10.00">queue()</text>
<text text-anchor="start" x="4.5" y="-867.5" font-family="Helvetica,sans-Serif" font-size="10.00">+</text>
<text text-anchor="start" x="17.5" y="-867.5" font-family="Helvetica,sans-Serif" font-size="10.00">isAcceleratorAware()</text>
<text text-anchor="start" x="4.5" y="-852.5" font-family="Helvetica,sans-Serif" font-size="10.00">+</text>
<text text-anchor="start" x="17.5" y="-852.5" font-family="Helvetica,sans-Serif" font-size="10.00">createSubParallelMngRef()</text>
<text text-anchor="start" x="4.5" y="-837.5" font-family="Helvetica,sans-Serif" font-size="10.00">+</text>
<text text-anchor="start" x="17.5" y="-837.5" font-family="Helvetica,sans-Serif" font-size="10.00">setDefaultRunner()</text>
<text text-anchor="start" x="4.5" y="-822.5" font-family="Helvetica,sans-Serif" font-size="10.00">+</text>
<text text-anchor="start" x="17.5" y="-822.5" font-family="Helvetica,sans-Serif" font-size="10.00">masterParallelIORank()</text>
<text text-anchor="start" x="4.5" y="-807.5" font-family="Helvetica,sans-Serif" font-size="10.00">+</text>
<text text-anchor="start" x="17.5" y="-807.5" font-family="Helvetica,sans-Serif" font-size="10.00">nbSendersToMasterParallelIO()</text>
<text text-anchor="start" x="4.5" y="-792.5" font-family="Helvetica,sans-Serif" font-size="10.00">+</text>
<text text-anchor="start" x="17.5" y="-792.5" font-family="Helvetica,sans-Serif" font-size="10.00">initializeWindowCreator()</text>
<text text-anchor="start" x="4.5" y="-777.5" font-family="Helvetica,sans-Serif" font-size="10.00">+</text>
<text text-anchor="start" x="17.5" y="-777.5" font-family="Helvetica,sans-Serif" font-size="10.00">isMachineShMemWinAvailable()</text>
<text text-anchor="start" x="4.5" y="-762.5" font-family="Helvetica,sans-Serif" font-size="10.00">+</text>
<text text-anchor="start" x="17.5" y="-762.5" font-family="Helvetica,sans-Serif" font-size="10.00">createContigMachineShMem</text>
<text text-anchor="start" x="17.5" y="-751.5" font-family="Helvetica,sans-Serif" font-size="10.00">WinBase()</text>
<text text-anchor="start" x="4.5" y="-736.5" font-family="Helvetica,sans-Serif" font-size="10.00">+</text>
<text text-anchor="start" x="17.5" y="-736.5" font-family="Helvetica,sans-Serif" font-size="10.00">createMachineShMemWinBase()</text>
<text text-anchor="start" x="4.5" y="-721.5" font-family="Helvetica,sans-Serif" font-size="10.00">+</text>
<text text-anchor="start" x="17.5" y="-721.5" font-family="Helvetica,sans-Serif" font-size="10.00">machineShMemWinMemoryAllocator()</text>
<text text-anchor="start" x="4.5" y="-706.5" font-family="Helvetica,sans-Serif" font-size="10.00">+</text>
<text text-anchor="start" x="17.5" y="-706.5" font-family="Helvetica,sans-Serif" font-size="10.00">machineRanks()</text>
<text text-anchor="start" x="4.5" y="-691.5" font-family="Helvetica,sans-Serif" font-size="10.00">+</text>
<text text-anchor="start" x="17.5" y="-691.5" font-family="Helvetica,sans-Serif" font-size="10.00">machineBarrier()</text>
<polygon fill="#666666" stroke="#666666" points="0.5,-937.5 0.5,-937.5 211.5,-937.5 211.5,-937.5 0.5,-937.5"/>
<polygon fill="#666666" stroke="#666666" points="0.5,-922.5 0.5,-922.5 211.5,-922.5 211.5,-922.5 0.5,-922.5"/>
<polygon fill="none" stroke="#666666" points="0,-684.5 0,-954.5 211,-954.5 211,-684.5 0,-684.5"/>
</a>
</g>
</g>
<!-- Node3&#45;&gt;Node2 -->
<g id="edge2_Node000002_Node000003" class="edge">
<title>Node3&#45;&gt;Node2</title>
<g id="a_edge2_Node000002_Node000003"><a xlink:title=" ">
<path fill="none" stroke="#63b8ff" d="M120.09,-684.4C128.15,-610.28 138.04,-519.37 145.63,-449.64"/>
<polygon fill="none" stroke="#63b8ff" points="145.67,-449.25 142.34,-442.85 146.97,-437.32 150.3,-443.71 145.67,-449.25"/>
</a>
</g>
<text text-anchor="middle" x="186" y="-458" font-family="Helvetica,sans-Serif" font-size="10.00" fill="grey"> &#45;m_pm_internal</text>
</g>
<!-- Node4 -->
<g id="Node000004" class="node">
<title>Node4</title>
<g id="a_Node000004"><a xlink:href="../../d6/da9/classArcane_1_1Ref.html" target="_top" xlink:title=" ">
<polygon fill="white" stroke="transparent" points="408,-1155 229,-1155 229,-484 408,-484 408,-1155"/>
<text text-anchor="start" x="234.5" y="-1142.5" font-family="Helvetica,sans-Serif" font-size="10.00">Arcane::Ref&lt; Arcane</text>
<text text-anchor="start" x="234.5" y="-1131.5" font-family="Helvetica,sans-Serif" font-size="10.00">::MessagePassing::IContigMachine</text>
<text text-anchor="start" x="254.5" y="-1120.5" font-family="Helvetica,sans-Serif" font-size="10.00">ShMemWinBaseInternal &gt;</text>
<text text-anchor="start" x="251.5" y="-1105.5" font-family="Helvetica,sans-Serif" font-size="10.00">&#45;</text>
<text text-anchor="start" x="277.5" y="-1105.5" font-family="Helvetica,sans-Serif" font-size="10.00">Base</text>
<text text-anchor="start" x="251.5" y="-1090.5" font-family="Helvetica,sans-Serif" font-size="10.00">&#45;</text>
<text text-anchor="start" x="277.5" y="-1090.5" font-family="Helvetica,sans-Serif" font-size="10.00">Base</text>
<text text-anchor="start" x="251.5" y="-1075.5" font-family="Helvetica,sans-Serif" font-size="10.00">&#45;</text>
<text text-anchor="start" x="277.5" y="-1075.5" font-family="Helvetica,sans-Serif" font-size="10.00">Base</text>
<text text-anchor="start" x="249" y="-1060.5" font-family="Helvetica,sans-Serif" font-size="10.00">+</text>
<text text-anchor="start" x="277.5" y="-1060.5" font-family="Helvetica,sans-Serif" font-size="10.00">Ref()</text>
<text text-anchor="start" x="249" y="-1045.5" font-family="Helvetica,sans-Serif" font-size="10.00">+</text>
<text text-anchor="start" x="277.5" y="-1045.5" font-family="Helvetica,sans-Serif" font-size="10.00">Ref()</text>
<text text-anchor="start" x="249" y="-1030.5" font-family="Helvetica,sans-Serif" font-size="10.00">+</text>
<text text-anchor="start" x="277.5" y="-1030.5" font-family="Helvetica,sans-Serif" font-size="10.00">Ref()</text>
<text text-anchor="start" x="249" y="-1015.5" font-family="Helvetica,sans-Serif" font-size="10.00">+</text>
<text text-anchor="start" x="277.5" y="-1015.5" font-family="Helvetica,sans-Serif" font-size="10.00">operator=()</text>
<text text-anchor="start" x="249" y="-1000.5" font-family="Helvetica,sans-Serif" font-size="10.00">+</text>
<text text-anchor="start" x="277.5" y="-1000.5" font-family="Helvetica,sans-Serif" font-size="10.00">~Ref()</text>
<text text-anchor="start" x="249" y="-985.5" font-family="Helvetica,sans-Serif" font-size="10.00">+</text>
<text text-anchor="start" x="277.5" y="-985.5" font-family="Helvetica,sans-Serif" font-size="10.00">Ref()</text>
<text text-anchor="start" x="249" y="-970.5" font-family="Helvetica,sans-Serif" font-size="10.00">+</text>
<text text-anchor="start" x="277.5" y="-970.5" font-family="Helvetica,sans-Serif" font-size="10.00">Ref()</text>
<text text-anchor="start" x="249" y="-955.5" font-family="Helvetica,sans-Serif" font-size="10.00">+</text>
<text text-anchor="start" x="277.5" y="-955.5" font-family="Helvetica,sans-Serif" font-size="10.00">Ref()</text>
<text text-anchor="start" x="249" y="-940.5" font-family="Helvetica,sans-Serif" font-size="10.00">+</text>
<text text-anchor="start" x="277.5" y="-940.5" font-family="Helvetica,sans-Serif" font-size="10.00">operator=()</text>
<text text-anchor="start" x="249" y="-925.5" font-family="Helvetica,sans-Serif" font-size="10.00">+</text>
<text text-anchor="start" x="277.5" y="-925.5" font-family="Helvetica,sans-Serif" font-size="10.00">~Ref()</text>
<text text-anchor="start" x="249" y="-910.5" font-family="Helvetica,sans-Serif" font-size="10.00">+</text>
<text text-anchor="start" x="277.5" y="-910.5" font-family="Helvetica,sans-Serif" font-size="10.00">Ref()</text>
<text text-anchor="start" x="249" y="-895.5" font-family="Helvetica,sans-Serif" font-size="10.00">+</text>
<text text-anchor="start" x="277.5" y="-895.5" font-family="Helvetica,sans-Serif" font-size="10.00">Ref()</text>
<text text-anchor="start" x="249" y="-880.5" font-family="Helvetica,sans-Serif" font-size="10.00">+</text>
<text text-anchor="start" x="277.5" y="-880.5" font-family="Helvetica,sans-Serif" font-size="10.00">Ref()</text>
<text text-anchor="start" x="249" y="-865.5" font-family="Helvetica,sans-Serif" font-size="10.00">+</text>
<text text-anchor="start" x="277.5" y="-865.5" font-family="Helvetica,sans-Serif" font-size="10.00">operator=()</text>
<text text-anchor="start" x="249" y="-850.5" font-family="Helvetica,sans-Serif" font-size="10.00">+</text>
<text text-anchor="start" x="277.5" y="-850.5" font-family="Helvetica,sans-Serif" font-size="10.00">~Ref()</text>
<text text-anchor="start" x="249" y="-835.5" font-family="Helvetica,sans-Serif" font-size="10.00">+</text>
<text text-anchor="start" x="277.5" y="-835.5" font-family="Helvetica,sans-Serif" font-size="10.00">create()</text>
<text text-anchor="start" x="249" y="-820.5" font-family="Helvetica,sans-Serif" font-size="10.00">+</text>
<text text-anchor="start" x="277.5" y="-820.5" font-family="Helvetica,sans-Serif" font-size="10.00">createRef()</text>
<text text-anchor="start" x="249" y="-805.5" font-family="Helvetica,sans-Serif" font-size="10.00">+</text>
<text text-anchor="start" x="277.5" y="-805.5" font-family="Helvetica,sans-Serif" font-size="10.00">createWithHandle()</text>
<text text-anchor="start" x="249" y="-790.5" font-family="Helvetica,sans-Serif" font-size="10.00">+</text>
<text text-anchor="start" x="277.5" y="-790.5" font-family="Helvetica,sans-Serif" font-size="10.00">_createNoDestroy()</text>
<text text-anchor="start" x="249" y="-775.5" font-family="Helvetica,sans-Serif" font-size="10.00">+</text>
<text text-anchor="start" x="277.5" y="-775.5" font-family="Helvetica,sans-Serif" font-size="10.00">create()</text>
<text text-anchor="start" x="249" y="-760.5" font-family="Helvetica,sans-Serif" font-size="10.00">+</text>
<text text-anchor="start" x="277.5" y="-760.5" font-family="Helvetica,sans-Serif" font-size="10.00">createRef()</text>
<text text-anchor="start" x="249" y="-745.5" font-family="Helvetica,sans-Serif" font-size="10.00">+</text>
<text text-anchor="start" x="277.5" y="-745.5" font-family="Helvetica,sans-Serif" font-size="10.00">createWithHandle()</text>
<text text-anchor="start" x="249" y="-730.5" font-family="Helvetica,sans-Serif" font-size="10.00">+</text>
<text text-anchor="start" x="277.5" y="-730.5" font-family="Helvetica,sans-Serif" font-size="10.00">_createNoDestroy()</text>
<text text-anchor="start" x="249" y="-715.5" font-family="Helvetica,sans-Serif" font-size="10.00">+</text>
<text text-anchor="start" x="277.5" y="-715.5" font-family="Helvetica,sans-Serif" font-size="10.00">create()</text>
<text text-anchor="start" x="249" y="-700.5" font-family="Helvetica,sans-Serif" font-size="10.00">+</text>
<text text-anchor="start" x="277.5" y="-700.5" font-family="Helvetica,sans-Serif" font-size="10.00">createRef()</text>
<text text-anchor="start" x="249" y="-685.5" font-family="Helvetica,sans-Serif" font-size="10.00">+</text>
<text text-anchor="start" x="277.5" y="-685.5" font-family="Helvetica,sans-Serif" font-size="10.00">createWithHandle()</text>
<text text-anchor="start" x="249" y="-670.5" font-family="Helvetica,sans-Serif" font-size="10.00">+</text>
<text text-anchor="start" x="277.5" y="-670.5" font-family="Helvetica,sans-Serif" font-size="10.00">_createNoDestroy()</text>
<text text-anchor="start" x="251.5" y="-655.5" font-family="Helvetica,sans-Serif" font-size="10.00">&#45;</text>
<text text-anchor="start" x="277.5" y="-655.5" font-family="Helvetica,sans-Serif" font-size="10.00">Ref()</text>
<text text-anchor="start" x="251.5" y="-640.5" font-family="Helvetica,sans-Serif" font-size="10.00">&#45;</text>
<text text-anchor="start" x="277.5" y="-640.5" font-family="Helvetica,sans-Serif" font-size="10.00">Ref()</text>
<text text-anchor="start" x="251.5" y="-625.5" font-family="Helvetica,sans-Serif" font-size="10.00">&#45;</text>
<text text-anchor="start" x="277.5" y="-625.5" font-family="Helvetica,sans-Serif" font-size="10.00">Ref()</text>
<text text-anchor="start" x="251.5" y="-610.5" font-family="Helvetica,sans-Serif" font-size="10.00">&#45;</text>
<text text-anchor="start" x="277.5" y="-610.5" font-family="Helvetica,sans-Serif" font-size="10.00">Ref()</text>
<text text-anchor="start" x="251.5" y="-595.5" font-family="Helvetica,sans-Serif" font-size="10.00">&#45;</text>
<text text-anchor="start" x="277.5" y="-595.5" font-family="Helvetica,sans-Serif" font-size="10.00">Ref()</text>
<text text-anchor="start" x="251.5" y="-580.5" font-family="Helvetica,sans-Serif" font-size="10.00">&#45;</text>
<text text-anchor="start" x="277.5" y="-580.5" font-family="Helvetica,sans-Serif" font-size="10.00">Ref()</text>
<text text-anchor="start" x="251.5" y="-565.5" font-family="Helvetica,sans-Serif" font-size="10.00">&#45;</text>
<text text-anchor="start" x="277.5" y="-565.5" font-family="Helvetica,sans-Serif" font-size="10.00">Ref()</text>
<text text-anchor="start" x="251.5" y="-550.5" font-family="Helvetica,sans-Serif" font-size="10.00">&#45;</text>
<text text-anchor="start" x="277.5" y="-550.5" font-family="Helvetica,sans-Serif" font-size="10.00">Ref()</text>
<text text-anchor="start" x="251.5" y="-535.5" font-family="Helvetica,sans-Serif" font-size="10.00">&#45;</text>
<text text-anchor="start" x="277.5" y="-535.5" font-family="Helvetica,sans-Serif" font-size="10.00">Ref()</text>
<text text-anchor="start" x="251.5" y="-520.5" font-family="Helvetica,sans-Serif" font-size="10.00">&#45;</text>
<text text-anchor="start" x="277.5" y="-520.5" font-family="Helvetica,sans-Serif" font-size="10.00">_destroyInstance()</text>
<text text-anchor="start" x="251.5" y="-505.5" font-family="Helvetica,sans-Serif" font-size="10.00">&#45;</text>
<text text-anchor="start" x="277.5" y="-505.5" font-family="Helvetica,sans-Serif" font-size="10.00">_destroyInstance()</text>
<text text-anchor="start" x="251.5" y="-490.5" font-family="Helvetica,sans-Serif" font-size="10.00">&#45;</text>
<text text-anchor="start" x="277.5" y="-490.5" font-family="Helvetica,sans-Serif" font-size="10.00">_destroyInstance()</text>
<polygon fill="#666666" stroke="#666666" points="229.5,-1115.5 229.5,-1115.5 408.5,-1115.5 408.5,-1115.5 229.5,-1115.5"/>
<polygon fill="#666666" stroke="#666666" points="229.5,-1070.5 229.5,-1070.5 275.5,-1070.5 275.5,-1070.5 229.5,-1070.5"/>
<polygon fill="#666666" stroke="#666666" points="275.5,-1070.5 275.5,-1070.5 408.5,-1070.5 408.5,-1070.5 275.5,-1070.5"/>
<polygon fill="none" stroke="#666666" points="229,-484 229,-1155 408,-1155 408,-484 229,-484"/>
</a>
</g>
</g>
<!-- Node4&#45;&gt;Node2 -->
<g id="edge3_Node000002_Node000004" class="edge">
<title>Node4&#45;&gt;Node2</title>
<g id="a_edge3_Node000002_Node000004"><a xlink:title=" ">
<path fill="none" stroke="#63b8ff" d="M242.04,-483.82C238.35,-474.04 234.51,-464.41 230.5,-455 229.51,-452.67 228.47,-450.33 227.39,-448"/>
<polygon fill="none" stroke="#63b8ff" points="227.33,-447.86 221.11,-444.21 222.08,-437.06 228.3,-440.71 227.33,-447.86"/>
</a>
</g>
<text text-anchor="middle" x="293.5" y="-458" font-family="Helvetica,sans-Serif" font-size="10.00" fill="grey"> &#45;m_node_window_base</text>
</g>
<!-- Node5 -->
<g id="Node000005" class="node">
<title>Node5</title>
<g id="a_Node000005"><a xlink:href="../../d3/df1/classArcane_1_1RefImpl.html" target="_top" xlink:title=" ">
<polygon fill="white" stroke="transparent" points="450,-1581 187,-1581 187,-1192 450,-1192 450,-1581"/>
<text text-anchor="start" x="192.5" y="-1568.5" font-family="Helvetica,sans-Serif" font-size="10.00">Arcane::RefImpl&lt; Arcane</text>
<text text-anchor="start" x="192.5" y="-1557.5" font-family="Helvetica,sans-Serif" font-size="10.00">::MessagePassing::IContigMachine</text>
<text text-anchor="start" x="192.5" y="-1546.5" font-family="Helvetica,sans-Serif" font-size="10.00">ShMemWinBaseInternal, Ref&lt; Arcane</text>
<text text-anchor="start" x="192.5" y="-1535.5" font-family="Helvetica,sans-Serif" font-size="10.00">::MessagePassing::IContigMachineShMemWinBase</text>
<text text-anchor="start" x="192.5" y="-1524.5" font-family="Helvetica,sans-Serif" font-size="10.00">Internal &gt;, RefTraits&lt; Arcane::MessagePassing</text>
<text text-anchor="start" x="192.5" y="-1513.5" font-family="Helvetica,sans-Serif" font-size="10.00">::IContigMachineShMemWinBaseInternal &gt;::TagId &gt;</text>
<text text-anchor="start" x="225.5" y="-1498.5" font-family="Helvetica,sans-Serif" font-size="10.00">+</text>
<text text-anchor="start" x="272.5" y="-1498.5" font-family="Helvetica,sans-Serif" font-size="10.00">RefType</text>
<text text-anchor="start" x="225.5" y="-1483.5" font-family="Helvetica,sans-Serif" font-size="10.00">+</text>
<text text-anchor="start" x="272.5" y="-1483.5" font-family="Helvetica,sans-Serif" font-size="10.00">RefImpl()</text>
<text text-anchor="start" x="225.5" y="-1468.5" font-family="Helvetica,sans-Serif" font-size="10.00">+</text>
<text text-anchor="start" x="272.5" y="-1468.5" font-family="Helvetica,sans-Serif" font-size="10.00">RefImpl()</text>
<text text-anchor="start" x="225.5" y="-1453.5" font-family="Helvetica,sans-Serif" font-size="10.00">+</text>
<text text-anchor="start" x="272.5" y="-1453.5" font-family="Helvetica,sans-Serif" font-size="10.00">RefImpl()</text>
<text text-anchor="start" x="225.5" y="-1438.5" font-family="Helvetica,sans-Serif" font-size="10.00">+</text>
<text text-anchor="start" x="272.5" y="-1438.5" font-family="Helvetica,sans-Serif" font-size="10.00">operator=()</text>
<text text-anchor="start" x="225.5" y="-1423.5" font-family="Helvetica,sans-Serif" font-size="10.00">+</text>
<text text-anchor="start" x="272.5" y="-1423.5" font-family="Helvetica,sans-Serif" font-size="10.00">~RefImpl()</text>
<text text-anchor="start" x="225.5" y="-1408.5" font-family="Helvetica,sans-Serif" font-size="10.00">+</text>
<text text-anchor="start" x="272.5" y="-1408.5" font-family="Helvetica,sans-Serif" font-size="10.00">operator bool()</text>
<text text-anchor="start" x="225.5" y="-1393.5" font-family="Helvetica,sans-Serif" font-size="10.00">+</text>
<text text-anchor="start" x="272.5" y="-1393.5" font-family="Helvetica,sans-Serif" font-size="10.00">get()</text>
<text text-anchor="start" x="225.5" y="-1378.5" font-family="Helvetica,sans-Serif" font-size="10.00">+</text>
<text text-anchor="start" x="272.5" y="-1378.5" font-family="Helvetica,sans-Serif" font-size="10.00">isNull()</text>
<text text-anchor="start" x="225.5" y="-1363.5" font-family="Helvetica,sans-Serif" font-size="10.00">+</text>
<text text-anchor="start" x="272.5" y="-1363.5" font-family="Helvetica,sans-Serif" font-size="10.00">operator&#45;&gt;()</text>
<text text-anchor="start" x="225.5" y="-1348.5" font-family="Helvetica,sans-Serif" font-size="10.00">+</text>
<text text-anchor="start" x="272.5" y="-1348.5" font-family="Helvetica,sans-Serif" font-size="10.00">reset()</text>
<text text-anchor="start" x="225.5" y="-1333.5" font-family="Helvetica,sans-Serif" font-size="10.00">+</text>
<text text-anchor="start" x="272.5" y="-1333.5" font-family="Helvetica,sans-Serif" font-size="10.00">_release()</text>
<text text-anchor="start" x="225.5" y="-1318.5" font-family="Helvetica,sans-Serif" font-size="10.00">+</text>
<text text-anchor="start" x="272.5" y="-1318.5" font-family="Helvetica,sans-Serif" font-size="10.00">_internalInstance()</text>
<text text-anchor="start" x="228" y="-1303.5" font-family="Helvetica,sans-Serif" font-size="10.00">&#45;</text>
<text text-anchor="start" x="272.5" y="-1303.5" font-family="Helvetica,sans-Serif" font-size="10.00">RefImpl()</text>
<text text-anchor="start" x="228" y="-1288.5" font-family="Helvetica,sans-Serif" font-size="10.00">&#45;</text>
<text text-anchor="start" x="272.5" y="-1288.5" font-family="Helvetica,sans-Serif" font-size="10.00">RefImpl()</text>
<text text-anchor="start" x="228" y="-1273.5" font-family="Helvetica,sans-Serif" font-size="10.00">&#45;</text>
<text text-anchor="start" x="272.5" y="-1273.5" font-family="Helvetica,sans-Serif" font-size="10.00">RefImpl()</text>
<text text-anchor="start" x="228" y="-1258.5" font-family="Helvetica,sans-Serif" font-size="10.00">&#45;</text>
<text text-anchor="start" x="272.5" y="-1258.5" font-family="Helvetica,sans-Serif" font-size="10.00">RefImpl()</text>
<text text-anchor="start" x="228" y="-1243.5" font-family="Helvetica,sans-Serif" font-size="10.00">&#45;</text>
<text text-anchor="start" x="272.5" y="-1243.5" font-family="Helvetica,sans-Serif" font-size="10.00">_createBasicDeleter()</text>
<text text-anchor="start" x="228" y="-1228.5" font-family="Helvetica,sans-Serif" font-size="10.00">&#45;</text>
<text text-anchor="start" x="272.5" y="-1228.5" font-family="Helvetica,sans-Serif" font-size="10.00">_createBasicDeleter()</text>
<text text-anchor="start" x="228" y="-1213.5" font-family="Helvetica,sans-Serif" font-size="10.00">&#45;</text>
<text text-anchor="start" x="272.5" y="-1213.5" font-family="Helvetica,sans-Serif" font-size="10.00">_getDeleter()</text>
<text text-anchor="start" x="228" y="-1198.5" font-family="Helvetica,sans-Serif" font-size="10.00">&#45;</text>
<text text-anchor="start" x="272.5" y="-1198.5" font-family="Helvetica,sans-Serif" font-size="10.00">_getDeleter()</text>
<polygon fill="#666666" stroke="#666666" points="187.5,-1508.5 187.5,-1508.5 450.5,-1508.5 450.5,-1508.5 187.5,-1508.5"/>
<polygon fill="#666666" stroke="#666666" points="187.5,-1493.5 187.5,-1493.5 270.5,-1493.5 270.5,-1493.5 187.5,-1493.5"/>
<polygon fill="#666666" stroke="#666666" points="270.5,-1493.5 270.5,-1493.5 450.5,-1493.5 450.5,-1493.5 270.5,-1493.5"/>
<polygon fill="none" stroke="#666666" points="187,-1192 187,-1581 450,-1581 450,-1192 187,-1192"/>
</a>
</g>
</g>
<!-- Node5&#45;&gt;Node4 -->
<g id="edge4_Node000004_Node000005" class="edge">
<title>Node5&#45;&gt;Node4</title>
<g id="a_edge4_Node000004_Node000005"><a xlink:title=" ">
<path fill="none" stroke="#63b8ff" d="M318.5,-1181.69C318.5,-1172.99 318.5,-1164.18 318.5,-1155.3"/>
<polygon fill="none" stroke="#63b8ff" points="315,-1181.85 318.5,-1191.85 322,-1181.85 315,-1181.85"/>
</a>
</g>
</g>
<!-- Node6 -->
<g id="Node000006" class="node">
<title>Node6</title>
<g id="a_Node000006"><a xlink:href="../../d2/db9/classArcane_1_1RefBase.html" target="_top" xlink:title="Classe de base de gestion d&#39;une référence.">
<polygon fill="white" stroke="transparent" points="279,-1693.5 188,-1693.5 188,-1644.5 279,-1644.5 279,-1693.5"/>
<text text-anchor="start" x="193.5" y="-1681" font-family="Helvetica,sans-Serif" font-size="10.00">Arcane::RefBase</text>
<text text-anchor="start" x="232" y="-1666" font-family="Helvetica,sans-Serif" font-size="10.00"> </text>
<text text-anchor="start" x="232" y="-1651" font-family="Helvetica,sans-Serif" font-size="10.00"> </text>
<polygon fill="#666666" stroke="#666666" points="188.5,-1676 188.5,-1676 279.5,-1676 279.5,-1676 188.5,-1676"/>
<polygon fill="#666666" stroke="#666666" points="188.5,-1661 188.5,-1661 279.5,-1661 279.5,-1661 188.5,-1661"/>
<polygon fill="none" stroke="#666666" points="188,-1644.5 188,-1693.5 279,-1693.5 279,-1644.5 188,-1644.5"/>
</a>
</g>
</g>
<!-- Node6&#45;&gt;Node5 -->
<g id="edge5_Node000005_Node000006" class="edge">
<title>Node6&#45;&gt;Node5</title>
<g id="a_edge5_Node000005_Node000006"><a xlink:title=" ">
<path fill="none" stroke="#63b8ff" d="M243.76,-1634.13C248.19,-1619.51 253.76,-1601.15 259.84,-1581.08"/>
<polygon fill="none" stroke="#63b8ff" points="240.3,-1633.5 240.75,-1644.08 247,-1635.53 240.3,-1633.5"/>
</a>
</g>
</g>
<!-- Node7 -->
<g id="Node000007" class="node">
<title>Node7</title>
<g id="a_Node000007"><a xlink:href="../../d4/de6/structArcane_1_1RefTraitsTagId.html" target="_top" xlink:title=" ">
<polygon fill="white" stroke="transparent" points="509.5,-1710 297.5,-1710 297.5,-1628 509.5,-1628 509.5,-1710"/>
<text text-anchor="start" x="302.5" y="-1698" font-family="Helvetica,sans-Serif" font-size="10.00">Arcane::RefTraitsTagId</text>
<text text-anchor="start" x="302.5" y="-1687" font-family="Helvetica,sans-Serif" font-size="10.00">&lt; Arcane::MessagePassing</text>
<text text-anchor="start" x="302.5" y="-1676" font-family="Helvetica,sans-Serif" font-size="10.00">::IContigMachineShMemWinBaseInternal,</text>
<text text-anchor="start" x="372.5" y="-1665" font-family="Helvetica,sans-Serif" font-size="10.00"> ImplTagId &gt;</text>
<text text-anchor="start" x="401.5" y="-1650" font-family="Helvetica,sans-Serif" font-size="10.00"> </text>
<text text-anchor="start" x="401.5" y="-1635" font-family="Helvetica,sans-Serif" font-size="10.00"> </text>
<polygon fill="#bfbfbf" stroke="#bfbfbf" points="297.5,-1660 297.5,-1660 509.5,-1660 509.5,-1660 297.5,-1660"/>
<polygon fill="#bfbfbf" stroke="#bfbfbf" points="297.5,-1645 297.5,-1645 509.5,-1645 509.5,-1645 297.5,-1645"/>
<polygon fill="none" stroke="#bfbfbf" points="297.5,-1628 297.5,-1710 509.5,-1710 509.5,-1628 297.5,-1628"/>
</a>
</g>
</g>
<!-- Node7&#45;&gt;Node5 -->
<g id="edge6_Node000005_Node000007" class="edge">
<title>Node7&#45;&gt;Node5</title>
<g id="a_edge6_Node000005_Node000007"><a xlink:title=" ">
<path fill="none" stroke="#63b8ff" d="M391.32,-1627.81C388.18,-1617.44 384.58,-1605.55 380.69,-1592.73"/>
<polygon fill="none" stroke="#63b8ff" points="380.69,-1592.72 375.12,-1588.14 377.21,-1581.24 382.78,-1585.82 380.69,-1592.72"/>
</a>
</g>
<text text-anchor="middle" x="416.5" y="-1602" font-family="Helvetica,sans-Serif" font-size="10.00" fill="grey"> &#45;m_instance</text>
</g>
</g>
</svg>

<g id="navigator" transform="translate(0 0)" fill="#404254">
  <rect fill="#f2f5e9" fill-opacity="0.5" stroke="#606060" stroke-width=".5" x="0" y="0" width="60" height="60"/>
  <use id="zoomplus" xlink:href="#zoomPlus" x="17" y="9" onmousedown="handleZoom(evt,'in')"/>
  <use id="zoomminus" xlink:href="#zoomMin" x="42" y="9" onmousedown="handleZoom(evt,'out')"/>
  <use id="reset" xlink:href="#resetDef" x="30" y="36" onmousedown="handleReset()"/>
   <use id="arrowup" xlink:href="#arrowUp" x="0" y="0" onmousedown="handlePan(0,-1)"/>
  <use id="arrowright" xlink:href="#arrowRight" x="0" y="0" onmousedown="handlePan(1,0)"/>
  <use id="arrowdown" xlink:href="#arrowDown" x="0" y="0" onmousedown="handlePan(0,1)"/>
  <use id="arrowleft" xlink:href="#arrowLeft" x="0" y="0" onmousedown="handlePan(-1,0)"/>
</g>
<svg viewBox="0 0 15 15" width="100%" height="30px" preserveAspectRatio="xMaxYMin meet">
 <g id="arrow_out" transform="scale(0.3 0.3)">
  <a xlink:href="classArcane_1_1ContigMachineShMemWin__coll__graph_org.svg" target="_base">
   <rect id="button" ry="5" rx="5" y="6" x="6" height="38" width="38"
        fill="#f2f5e9" fill-opacity="0.5" stroke="#606060" stroke-width="1.0"/>
   <path id="arrow"
     d="M 11.500037,31.436501 C 11.940474,20.09759 22.043105,11.32322 32.158766,21.979434 L 37.068811,17.246167 C 37.068811,17.246167 37.088388,32 37.088388,32 L 22.160133,31.978069 C 22.160133,31.978069 26.997745,27.140456 26.997745,27.140456 C 18.528582,18.264221 13.291696,25.230495 11.500037,31.436501 z"
     style="fill:#404040;"/>
  </a>
 </g>
</svg>

<style type='text/css'>
<![CDATA[
[data-mouse-over-selected='false'] { opacity: 0.7; }
[data-mouse-over-selected='true']  { opacity: 1.0; }
]]>
</style>
<script type="application/ecmascript"><![CDATA[
document.addEventListener('DOMContentLoaded', (event) => {
  highlightEdges();
  highlightAdjacentNodes();
});
]]></script>
</svg>
