<?xml version="1.0" encoding="UTF-8" standalone="no"?>
<!DOCTYPE svg PUBLIC "-//W3C//DTD SVG 1.1//EN"
 "http://www.w3.org/Graphics/SVG/1.1/DTD/svg11.dtd">
<!-- Generated by graphviz version 2.43.0 (0)
 -->
<!-- Title: Arcane::ICartesianMeshAMRPatchMng Pages: 1 -->
<svg width="204pt" height="277pt"
 viewBox="0.00 0.00 204.00 277.00" xmlns="http://www.w3.org/2000/svg" xmlns:xlink="http://www.w3.org/1999/xlink">
<g id="graph0" class="graph" transform="scale(1 1) rotate(0) translate(4 273)">
<title>Arcane::ICartesianMeshAMRPatchMng</title>
<!-- Node1 -->
<g id="Node000001" class="node">
<title>Node1</title>
<g id="a_Node000001"><a xlink:title=" ">
<polygon fill="#999999" stroke="transparent" points="196,-269 0,-269 0,-175 196,-175 196,-269"/>
<text text-anchor="start" x="5" y="-257" font-family="Helvetica,sans-Serif" font-size="10.00">Arcane::ICartesianMeshAMRPatchMng</text>
<text text-anchor="start" x="96" y="-242" font-family="Helvetica,sans-Serif" font-size="10.00"> </text>
<text text-anchor="start" x="7" y="-227" font-family="Helvetica,sans-Serif" font-size="10.00">+</text>
<text text-anchor="start" x="23" y="-227" font-family="Helvetica,sans-Serif" font-size="10.00">~ICartesianMeshAMRPatchMng()</text>
<text text-anchor="start" x="7" y="-212" font-family="Helvetica,sans-Serif" font-size="10.00">+</text>
<text text-anchor="start" x="23" y="-212" font-family="Helvetica,sans-Serif" font-size="10.00">flagCellToRefine()</text>
<text text-anchor="start" x="7" y="-197" font-family="Helvetica,sans-Serif" font-size="10.00">+</text>
<text text-anchor="start" x="23" y="-197" font-family="Helvetica,sans-Serif" font-size="10.00">refine()</text>
<text text-anchor="start" x="7" y="-182" font-family="Helvetica,sans-Serif" font-size="10.00">+</text>
<text text-anchor="start" x="23" y="-182" font-family="Helvetica,sans-Serif" font-size="10.00">coarse()</text>
<polygon fill="#666666" stroke="#666666" points="0,-252 0,-252 196,-252 196,-252 0,-252"/>
<polygon fill="#666666" stroke="#666666" points="0,-237 0,-237 196,-237 196,-237 0,-237"/>
<polygon fill="none" stroke="#666666" points="0,-175 0,-269 196,-269 196,-175 0,-175"/>
</a>
</g>
</g>
<!-- Node2 -->
<g id="Node000002" class="node">
<title>Node2</title>
<g id="a_Node000002"><a xlink:href="../../d7/d03/classArcane_1_1CartesianMeshAMRPatchMng.html" target="_top" xlink:title=" ">
<polygon fill="white" stroke="transparent" points="194.5,-139 1.5,-139 1.5,0 194.5,0 194.5,-139"/>
<text text-anchor="start" x="7" y="-126.5" font-family="Helvetica,sans-Serif" font-size="10.00">Arcane::CartesianMeshAMRPatchMng</text>
<text text-anchor="start" x="13.5" y="-111.5" font-family="Helvetica,sans-Serif" font-size="10.00">&#45;</text>
<text text-anchor="start" x="29" y="-111.5" font-family="Helvetica,sans-Serif" font-size="10.00">m_mesh</text>
<text text-anchor="start" x="13.5" y="-96.5" font-family="Helvetica,sans-Serif" font-size="10.00">&#45;</text>
<text text-anchor="start" x="29" y="-96.5" font-family="Helvetica,sans-Serif" font-size="10.00">m_cmesh</text>
<text text-anchor="start" x="13.5" y="-81.5" font-family="Helvetica,sans-Serif" font-size="10.00">&#45;</text>
<text text-anchor="start" x="29" y="-81.5" font-family="Helvetica,sans-Serif" font-size="10.00">m_num_mng</text>
<text text-anchor="start" x="11" y="-66.5" font-family="Helvetica,sans-Serif" font-size="10.00">+</text>
<text text-anchor="start" x="29" y="-66.5" font-family="Helvetica,sans-Serif" font-size="10.00">CartesianMeshAMRPatchMng()</text>
<text text-anchor="start" x="11" y="-51.5" font-family="Helvetica,sans-Serif" font-size="10.00">+</text>
<text text-anchor="start" x="29" y="-51.5" font-family="Helvetica,sans-Serif" font-size="10.00">flagCellToRefine()</text>
<text text-anchor="start" x="11" y="-36.5" font-family="Helvetica,sans-Serif" font-size="10.00">+</text>
<text text-anchor="start" x="29" y="-36.5" font-family="Helvetica,sans-Serif" font-size="10.00">_syncFlagCell()</text>
<text text-anchor="start" x="11" y="-21.5" font-family="Helvetica,sans-Serif" font-size="10.00">+</text>
<text text-anchor="start" x="29" y="-21.5" font-family="Helvetica,sans-Serif" font-size="10.00">refine()</text>
<text text-anchor="start" x="11" y="-6.5" font-family="Helvetica,sans-Serif" font-size="10.00">+</text>
<text text-anchor="start" x="29" y="-6.5" font-family="Helvetica,sans-Serif" font-size="10.00">coarse()</text>
<polygon fill="#bfbfbf" stroke="#bfbfbf" points="2,-121.5 2,-121.5 195,-121.5 195,-121.5 2,-121.5"/>
<polygon fill="#bfbfbf" stroke="#bfbfbf" points="2,-76.5 2,-76.5 27,-76.5 27,-76.5 2,-76.5"/>
<polygon fill="#bfbfbf" stroke="#bfbfbf" points="27,-76.5 27,-76.5 195,-76.5 195,-76.5 27,-76.5"/>
<polygon fill="none" stroke="#bfbfbf" points="1.5,0 1.5,-139 194.5,-139 194.5,0 1.5,0"/>
</a>
</g>
</g>
<!-- Node1&#45;&gt;Node2 -->
<g id="edge1_Node000001_Node000002" class="edge">
<title>Node1&#45;&gt;Node2</title>
<g id="a_edge1_Node000001_Node000002"><a xlink:title=" ">
<path fill="none" stroke="#63b8ff" d="M98,-164.38C98,-156.14 98,-147.58 98,-139.14"/>
<polygon fill="none" stroke="#63b8ff" points="94.5,-164.62 98,-174.62 101.5,-164.62 94.5,-164.62"/>
</a>
</g>
</g>
</g>
</svg>
