<?xml version="1.0" encoding="UTF-8" standalone="no"?>
<!DOCTYPE svg PUBLIC "-//W3C//DTD SVG 1.1//EN"
 "http://www.w3.org/Graphics/SVG/1.1/DTD/svg11.dtd">
<!-- Generated by graphviz version 14.1.2 (0)
 -->
<!-- Title: Arcane::NodeDirectionMng::_computeNodeCellInfos Pages: 1 -->
<!--zoomable 274 -->

<svg id="main" version="1.1" xmlns="http://www.w3.org/2000/svg" xmlns:xlink="http://www.w3.org/1999/xlink" xml:space="preserve" onload="init(evt)">

<style type="text/css"><![CDATA[
.node, .edge {opacity: 0.7;}
.node.selected, .edge.selected {opacity: 1;}
.edge:hover path { stroke: red; }
.edge:hover polygon { stroke: red; fill: red; }
]]></style>

<defs>
  <circle id="rim" cx="0" cy="0" r="7"/>
  <circle id="rim2" cx="0" cy="0" r="3.5"/>
  <g id="zoomPlus">
    <use xlink:href="#rim" fill="#404040"><set attributeName="fill" to="#808080" begin="zoomplus.mouseover" end="zoomplus.mouseout"/></use>
    <path d="M-4,0h8M0,-4v8" fill="none" stroke="white" stroke-width="1.5" pointer-events="none"/>
  </g>
  <g id="zoomMin">
    <use xlink:href="#rim" fill="#404040"><set attributeName="fill" to="#808080" begin="zoomminus.mouseover" end="zoomminus.mouseout"/></use>
    <path d="M-4,0h8" fill="none" stroke="white" stroke-width="1.5" pointer-events="none"/>
  </g>
  <g id="arrowUp" transform="translate(30 24)">
    <use xlink:href="#rim"/>
    <path pointer-events="none" fill="none" stroke="white" stroke-width="1.5" d="M0,-3.0v7 M-2.5,-0.5L0,-3.0L2.5,-0.5"/>
  </g>
  <g id="arrowRight" transform="rotate(90) translate(36 -43)">
    <use xlink:href="#rim"/>
    <path pointer-events="none" fill="none" stroke="white" stroke-width="1.5" d="M0,-3.0v7 M-2.5,-0.5L0,-3.0L2.5,-0.5"/>
  </g>
  <g id="arrowDown" transform="rotate(180) translate(-30 -48)">
    <use xlink:href="#rim"/>
    <path pointer-events="none" fill="none" stroke="white" stroke-width="1.5" d="M0,-3.0v7 M-2.5,-0.5L0,-3.0L2.5,-0.5"/>
  </g>
  <g id="arrowLeft" transform="rotate(270) translate(-36 17)">
    <use xlink:href="#rim"/>
    <path pointer-events="none" fill="none" stroke="white" stroke-width="1.5" d="M0,-3.0v7 M-2.5,-0.5L0,-3.0L2.5,-0.5"/>
  </g>
  <g id="resetDef">
    <use xlink:href="#rim2" fill="#404040"><set attributeName="fill" to="#808080" begin="reset.mouseover" end="reset.mouseout"/></use>
  </g>
</defs>
<script type="application/ecmascript">
var viewWidth = 520;
var viewHeight = 274;
var sectionId = 'dynsection-2';
</script>
<script type="application/ecmascript" xlink:href="../../svg.min.js"/>
<svg id="graph" class="graph">
<g id="viewport">
<title>Arcane::NodeDirectionMng::_computeNodeCellInfos</title>
<!-- Node1 -->
<g id="Node000001" class="node">
<title>Node1</title>
<g id="a_Node000001"><a xlink:title="Calcul des connectivités noeuds/mailles par direction.">
<polygon fill="#999999" stroke="#666666" points="146.5,-149.5 0,-149.5 0,-116 146.5,-116 146.5,-149.5"/>
<text xml:space="preserve" text-anchor="start" x="8" y="-136" font-family="Helvetica,sans-Serif" font-size="10.00">Arcane::NodeDirectionMng</text>
<text xml:space="preserve" text-anchor="middle" x="73.25" y="-123.25" font-family="Helvetica,sans-Serif" font-size="10.00">::_computeNodeCellInfos</text>
</a>
</g>
</g>
<!-- Node2 -->
<g id="Node000002" class="node">
<title>Node2</title>
<g id="a_Node000002"><a xlink:href="../../da/d4d/classArcane_1_1CellDirectionMng.html#a32f26f5458316dfb63d52b604384bda2" target="_top" xlink:title="Groupe de toutes les mailles dans la direction.">
<polygon fill="white" stroke="#666666" points="325.62,-265.5 185.88,-265.5 185.88,-232 325.62,-232 325.62,-265.5"/>
<text xml:space="preserve" text-anchor="start" x="193.88" y="-252" font-family="Helvetica,sans-Serif" font-size="10.00">Arcane::CellDirectionMng</text>
<text xml:space="preserve" text-anchor="middle" x="255.75" y="-239.25" font-family="Helvetica,sans-Serif" font-size="10.00">::allCells</text>
</a>
</g>
</g>
<!-- Node1&#45;&gt;Node2 -->
<g id="edge1_Node000001_Node000002" class="edge">
<title>Node1&#45;&gt;Node2</title>
<g id="a_edge1_Node000001_Node000002"><a xlink:title=" ">
<path fill="none" stroke="#63b8ff" d="M90.84,-149.76C110.95,-169.59 146.65,-202.24 182.5,-222.75 184.98,-224.17 187.55,-225.53 190.18,-226.84"/>
<polygon fill="#63b8ff" stroke="#63b8ff" points="188.63,-229.98 199.17,-230.97 191.55,-223.62 188.63,-229.98"/>
</a>
</g>
</g>
<!-- Node3 -->
<g id="Node000003" class="node">
<title>Node3</title>
<g id="a_Node000003"><a xlink:href="../../d8/d21/classArcane_1_1NodeDirectionMng.html#aa2de1abd19de8b7ce61fa42efb459edb" target="_top" xlink:title="Groupe de tous les noeuds dans la direction.">
<polygon fill="white" stroke="#666666" points="329,-213.5 182.5,-213.5 182.5,-180 329,-180 329,-213.5"/>
<text xml:space="preserve" text-anchor="start" x="190.5" y="-200" font-family="Helvetica,sans-Serif" font-size="10.00">Arcane::NodeDirectionMng</text>
<text xml:space="preserve" text-anchor="middle" x="255.75" y="-187.25" font-family="Helvetica,sans-Serif" font-size="10.00">::allNodes</text>
</a>
</g>
</g>
<!-- Node1&#45;&gt;Node3 -->
<g id="edge2_Node000001_Node000003" class="edge">
<title>Node1&#45;&gt;Node3</title>
<g id="a_edge2_Node000001_Node000003"><a xlink:title=" ">
<path fill="none" stroke="#63b8ff" d="M122.62,-149.9C145.08,-157.86 171.98,-167.4 195.63,-175.79"/>
<polygon fill="#63b8ff" stroke="#63b8ff" points="194.22,-179 204.82,-179.05 196.56,-172.41 194.22,-179"/>
</a>
</g>
</g>
<!-- Node4 -->
<g id="Node000004" class="node">
<title>Node4</title>
<g id="a_Node000004"><a xlink:href="../../d2/d30/classArcane_1_1ArrayView.html#a7ab7bef89740f21eb99577a27e76bf51" target="_top" xlink:title="Remplit le tableau avec la valeur o.">
<polygon fill="white" stroke="#666666" points="317.38,-162.12 194.12,-162.12 194.12,-141.38 317.38,-141.38 317.38,-162.12"/>
<text xml:space="preserve" text-anchor="middle" x="255.75" y="-148.62" font-family="Helvetica,sans-Serif" font-size="10.00">Arcane::ArrayView::fill</text>
</a>
</g>
</g>
<!-- Node1&#45;&gt;Node4 -->
<g id="edge3_Node000001_Node000004" class="edge">
<title>Node1&#45;&gt;Node4</title>
<g id="a_edge3_Node000001_Node000004"><a xlink:title=" ">
<path fill="none" stroke="#63b8ff" d="M146.89,-140.4C158.69,-141.64 170.91,-142.92 182.7,-144.17"/>
<polygon fill="#63b8ff" stroke="#63b8ff" points="182.03,-147.61 192.34,-145.18 182.76,-140.65 182.03,-147.61"/>
</a>
</g>
</g>
<!-- Node5 -->
<g id="Node000005" class="node">
<title>Node5</title>
<g id="a_Node000005"><a xlink:href="../../df/d5f/classArcane_1_1Item.html#a337f519e8727634e55ea621f4734ec04" target="_top" xlink:title="Identifiant local de l&#39;entité dans le sous&#45;domaine du processeur.">
<polygon fill="white" stroke="#666666" points="496.5,-124.12 380,-124.12 380,-103.38 496.5,-103.38 496.5,-124.12"/>
<text xml:space="preserve" text-anchor="middle" x="438.25" y="-110.62" font-family="Helvetica,sans-Serif" font-size="10.00">Arcane::Item::localId</text>
</a>
</g>
</g>
<!-- Node1&#45;&gt;Node5 -->
<g id="edge4_Node000001_Node000005" class="edge">
<title>Node1&#45;&gt;Node5</title>
<g id="a_edge4_Node000001_Node000005"><a xlink:title=" ">
<path fill="none" stroke="#63b8ff" d="M146.84,-128.95C211.31,-125.58 304.87,-120.68 368.24,-117.36"/>
<polygon fill="#63b8ff" stroke="#63b8ff" points="368.39,-120.86 378.19,-116.84 368.02,-113.87 368.39,-120.86"/>
</a>
</g>
</g>
<!-- Node6 -->
<g id="Node000006" class="node">
<title>Node6</title>
<g id="a_Node000006"><a xlink:href="../../d8/d21/classArcane_1_1NodeDirectionMng.html#ad70e45c89f193546a2b4773ed26256f5" target="_top" xlink:title="Noeud direction correspondant au noeud n.">
<polygon fill="white" stroke="#666666" points="329,-85.5 182.5,-85.5 182.5,-52 329,-52 329,-85.5"/>
<text xml:space="preserve" text-anchor="start" x="190.5" y="-72" font-family="Helvetica,sans-Serif" font-size="10.00">Arcane::NodeDirectionMng</text>
<text xml:space="preserve" text-anchor="middle" x="255.75" y="-59.25" font-family="Helvetica,sans-Serif" font-size="10.00">::node</text>
</a>
</g>
</g>
<!-- Node1&#45;&gt;Node6 -->
<g id="edge5_Node000001_Node000006" class="edge">
<title>Node1&#45;&gt;Node6</title>
<g id="a_edge5_Node000001_Node000006"><a xlink:title=" ">
<path fill="none" stroke="#63b8ff" d="M122.62,-115.6C145.08,-107.64 171.98,-98.1 195.63,-89.71"/>
<polygon fill="#63b8ff" stroke="#63b8ff" points="196.56,-93.09 204.82,-86.45 194.22,-86.5 196.56,-93.09"/>
</a>
</g>
</g>
<!-- Node8 -->
<g id="Node000008" class="node">
<title>Node8</title>
<g id="a_Node000008"><a xlink:href="../../d8/d21/classArcane_1_1NodeDirectionMng.html#a3016a116d2443363fb2bf294b3f54183" target="_top" xlink:title="Créé une instance vide.">
<polygon fill="white" stroke="#666666" points="329,-33.5 182.5,-33.5 182.5,0 329,0 329,-33.5"/>
<text xml:space="preserve" text-anchor="start" x="190.5" y="-20" font-family="Helvetica,sans-Serif" font-size="10.00">Arcane::NodeDirectionMng</text>
<text xml:space="preserve" text-anchor="middle" x="255.75" y="-7.25" font-family="Helvetica,sans-Serif" font-size="10.00">::NodeDirectionMng</text>
</a>
</g>
</g>
<!-- Node1&#45;&gt;Node8 -->
<g id="edge8_Node000001_Node000008" class="edge">
<title>Node1&#45;&gt;Node8</title>
<g id="a_edge8_Node000001_Node000008"><a xlink:title=" ">
<path fill="none" stroke="#63b8ff" d="M90.84,-115.74C110.95,-95.91 146.65,-63.26 182.5,-42.75 184.98,-41.33 187.55,-39.97 190.18,-38.66"/>
<polygon fill="#63b8ff" stroke="#63b8ff" points="191.55,-41.88 199.17,-34.53 188.63,-35.52 191.55,-41.88"/>
</a>
</g>
</g>
<!-- Node6&#45;&gt;Node5 -->
<g id="edge7_Node000006_Node000005" class="edge">
<title>Node6&#45;&gt;Node5</title>
<g id="a_edge7_Node000006_Node000005"><a xlink:title=" ">
<path fill="none" stroke="#63b8ff" d="M325.76,-85.96C344.63,-90.66 364.81,-95.69 382.74,-100.16"/>
<polygon fill="#63b8ff" stroke="#63b8ff" points="381.86,-103.55 392.41,-102.57 383.55,-96.75 381.86,-103.55"/>
</a>
</g>
</g>
<!-- Node7 -->
<g id="Node000007" class="node">
<title>Node7</title>
<g id="a_Node000007"><a xlink:href="../../d8/d21/classArcane_1_1NodeDirectionMng.html#aa60be18b4c2e6d2213a87589ff8fd7de" target="_top" xlink:title="Noeud direction correspondant au noeud de numéro local local_id.">
<polygon fill="white" stroke="#666666" points="511.5,-85.5 365,-85.5 365,-52 511.5,-52 511.5,-85.5"/>
<text xml:space="preserve" text-anchor="start" x="373" y="-72" font-family="Helvetica,sans-Serif" font-size="10.00">Arcane::NodeDirectionMng</text>
<text xml:space="preserve" text-anchor="middle" x="438.25" y="-59.25" font-family="Helvetica,sans-Serif" font-size="10.00">::_node</text>
</a>
</g>
</g>
<!-- Node6&#45;&gt;Node7 -->
<g id="edge6_Node000006_Node000007" class="edge">
<title>Node6&#45;&gt;Node7</title>
<g id="a_edge6_Node000006_Node000007"><a xlink:title=" ">
<path fill="none" stroke="#63b8ff" d="M329.39,-68.75C337.31,-68.75 345.42,-68.75 353.46,-68.75"/>
<polygon fill="#63b8ff" stroke="#63b8ff" points="353.25,-72.25 363.25,-68.75 353.25,-65.25 353.25,-72.25"/>
</a>
</g>
</g>
</g>
</svg>

<g id="navigator" transform="translate(0 0)" fill="#404254">
  <rect fill="#f2f5e9" fill-opacity="0.5" stroke="#606060" stroke-width=".5" x="0" y="0" width="60" height="60"/>
  <use id="zoomplus" xlink:href="#zoomPlus" x="17" y="9" onmousedown="handleZoom(evt,'in')"/>
  <use id="zoomminus" xlink:href="#zoomMin" x="42" y="9" onmousedown="handleZoom(evt,'out')"/>
  <use id="reset" xlink:href="#resetDef" x="30" y="36" onmousedown="handleReset()"/>
   <use id="arrowup" xlink:href="#arrowUp" x="0" y="0" onmousedown="handlePan(0,-1)"/>
  <use id="arrowright" xlink:href="#arrowRight" x="0" y="0" onmousedown="handlePan(1,0)"/>
  <use id="arrowdown" xlink:href="#arrowDown" x="0" y="0" onmousedown="handlePan(0,1)"/>
  <use id="arrowleft" xlink:href="#arrowLeft" x="0" y="0" onmousedown="handlePan(-1,0)"/>
</g>
<svg viewBox="0 0 15 15" width="100%" height="30px" preserveAspectRatio="xMaxYMin meet">
 <g id="arrow_out" transform="scale(0.3 0.3)">
  <a xlink:href="classArcane_1_1NodeDirectionMng_a4c09aedc56665c8427d6f8fac3786a87_cgraph_org.svg" target="_base">
   <rect id="button" ry="5" rx="5" y="6" x="6" height="38" width="38"
        fill="#f2f5e9" fill-opacity="0.5" stroke="#606060" stroke-width="1.0"/>
   <path id="arrow"
     d="M 11.500037,31.436501 C 11.940474,20.09759 22.043105,11.32322 32.158766,21.979434 L 37.068811,17.246167 C 37.068811,17.246167 37.088388,32 37.088388,32 L 22.160133,31.978069 C 22.160133,31.978069 26.997745,27.140456 26.997745,27.140456 C 18.528582,18.264221 13.291696,25.230495 11.500037,31.436501 z"
     style="fill:#404040;"/>
  </a>
 </g>
</svg>

<style type='text/css'>
<![CDATA[
[data-mouse-over-selected='false'] { opacity: 0.7; }
[data-mouse-over-selected='true']  { opacity: 1.0; }
]]>
</style>
<script type="application/ecmascript"><![CDATA[
document.addEventListener('DOMContentLoaded', (event) => {
  highlightEdges();
  highlightAdjacentNodes();
});
]]></script>
</svg>
