<?xml version="1.0" encoding="UTF-8" standalone="no"?>
<!DOCTYPE svg PUBLIC "-//W3C//DTD SVG 1.1//EN"
 "http://www.w3.org/Graphics/SVG/1.1/DTD/svg11.dtd">
<!-- Generated by graphviz version 14.1.2 (0)
 -->
<!-- Title: Arcane::BasicRayMeshIntersection Pages: 1 -->
<svg width="520pt" height="1104pt"
 viewBox="0.00 0.00 520.00 1104.00" xmlns="http://www.w3.org/2000/svg" xmlns:xlink="http://www.w3.org/1999/xlink">
<g id="graph0" class="graph" transform="scale(1 1) rotate(0) translate(4 1099.5)">
<title>Arcane::BasicRayMeshIntersection</title>
<!-- Node1 -->
<g id="Node000001" class="node">
<title>Node1</title>
<g id="a_Node000001"><a xlink:title="Service basique de calcul d&#39;intersection entre segments et maillage.">
<polygon fill="#999999" stroke="none" points="441.75,-171.5 265,-171.5 265,0 441.75,0 441.75,-171.5"/>
<text xml:space="preserve" text-anchor="start" x="269" y="-158" font-family="Helvetica,sans-Serif" font-size="10.00">Arcane::BasicRayMeshIntersection</text>
<text xml:space="preserve" text-anchor="start" x="274.19" y="-141.25" font-family="Helvetica,sans-Serif" font-size="10.00">&#45;</text>
<text xml:space="preserve" text-anchor="start" x="287.12" y="-141.25" font-family="Helvetica,sans-Serif" font-size="10.00">m_face_intersector</text>
<text xml:space="preserve" text-anchor="start" x="271.94" y="-124.5" font-family="Helvetica,sans-Serif" font-size="10.00">+</text>
<text xml:space="preserve" text-anchor="start" x="287.12" y="-124.5" font-family="Helvetica,sans-Serif" font-size="10.00">BasicRayMeshIntersection()</text>
<text xml:space="preserve" text-anchor="start" x="271.94" y="-107.75" font-family="Helvetica,sans-Serif" font-size="10.00">+</text>
<text xml:space="preserve" text-anchor="start" x="287.12" y="-107.75" font-family="Helvetica,sans-Serif" font-size="10.00">~BasicRayMeshIntersection()</text>
<text xml:space="preserve" text-anchor="start" x="271.94" y="-91" font-family="Helvetica,sans-Serif" font-size="10.00">+</text>
<text xml:space="preserve" text-anchor="start" x="287.12" y="-91" font-family="Helvetica,sans-Serif" font-size="10.00">build()</text>
<text xml:space="preserve" text-anchor="start" x="271.94" y="-74.25" font-family="Helvetica,sans-Serif" font-size="10.00">+</text>
<text xml:space="preserve" text-anchor="start" x="287.12" y="-74.25" font-family="Helvetica,sans-Serif" font-size="10.00">compute()</text>
<text xml:space="preserve" text-anchor="start" x="271.94" y="-57.5" font-family="Helvetica,sans-Serif" font-size="10.00">+</text>
<text xml:space="preserve" text-anchor="start" x="287.12" y="-57.5" font-family="Helvetica,sans-Serif" font-size="10.00">compute()</text>
<text xml:space="preserve" text-anchor="start" x="271.94" y="-40.75" font-family="Helvetica,sans-Serif" font-size="10.00">+</text>
<text xml:space="preserve" text-anchor="start" x="287.12" y="-40.75" font-family="Helvetica,sans-Serif" font-size="10.00">setFaceIntersector()</text>
<text xml:space="preserve" text-anchor="start" x="271.94" y="-24" font-family="Helvetica,sans-Serif" font-size="10.00">+</text>
<text xml:space="preserve" text-anchor="start" x="287.12" y="-24" font-family="Helvetica,sans-Serif" font-size="10.00">faceIntersector()</text>
<text xml:space="preserve" text-anchor="start" x="271.94" y="-7.25" font-family="Helvetica,sans-Serif" font-size="10.00">+</text>
<text xml:space="preserve" text-anchor="start" x="287.12" y="-7.25" font-family="Helvetica,sans-Serif" font-size="10.00">_checkBoundingBox()</text>
<polygon fill="#666666" stroke="#666666" points="265,-152.75 265,-152.75 441.75,-152.75 441.75,-152.75 265,-152.75"/>
<polygon fill="#666666" stroke="#666666" points="265,-136 265,-136 285.12,-136 285.12,-136 265,-136"/>
<polygon fill="#666666" stroke="#666666" points="285.12,-136 285.12,-136 441.75,-136 441.75,-136 285.12,-136"/>
<polygon fill="none" stroke="#666666" points="265,0 265,-171.5 441.75,-171.5 441.75,0 265,0"/>
</a>
</g>
</g>
<!-- Node2 -->
<g id="Node000002" class="node">
<title>Node2</title>
<g id="a_Node000002"><a xlink:href="../../d1/d5e/classArcane_1_1BasicService.html" target="_top" xlink:title="Classe de base de service lié à un sous&#45;domaine.">
<polygon fill="white" stroke="none" points="333.38,-320.38 223.38,-320.38 223.38,-232.62 333.38,-232.62 333.38,-320.38"/>
<text xml:space="preserve" text-anchor="start" x="227.38" y="-306.88" font-family="Helvetica,sans-Serif" font-size="10.00">Arcane::BasicService</text>
<text xml:space="preserve" text-anchor="start" x="232.56" y="-290.12" font-family="Helvetica,sans-Serif" font-size="10.00">&#45;</text>
<text xml:space="preserve" text-anchor="start" x="245.5" y="-290.12" font-family="Helvetica,sans-Serif" font-size="10.00">m_sub_domain</text>
<text xml:space="preserve" text-anchor="start" x="230.31" y="-273.38" font-family="Helvetica,sans-Serif" font-size="10.00">+</text>
<text xml:space="preserve" text-anchor="start" x="245.5" y="-273.38" font-family="Helvetica,sans-Serif" font-size="10.00">~BasicService()</text>
<text xml:space="preserve" text-anchor="start" x="230.31" y="-256.62" font-family="Helvetica,sans-Serif" font-size="10.00">+</text>
<text xml:space="preserve" text-anchor="start" x="245.5" y="-256.62" font-family="Helvetica,sans-Serif" font-size="10.00">subDomain()</text>
<text xml:space="preserve" text-anchor="start" x="230.31" y="-239.88" font-family="Helvetica,sans-Serif" font-size="10.00">#</text>
<text xml:space="preserve" text-anchor="start" x="245.5" y="-239.88" font-family="Helvetica,sans-Serif" font-size="10.00">BasicService()</text>
<polygon fill="#666666" stroke="#666666" points="223.38,-301.62 223.38,-301.62 333.38,-301.62 333.38,-301.62 223.38,-301.62"/>
<polygon fill="#666666" stroke="#666666" points="223.38,-284.88 223.38,-284.88 243.5,-284.88 243.5,-284.88 223.38,-284.88"/>
<polygon fill="#666666" stroke="#666666" points="243.5,-284.88 243.5,-284.88 333.38,-284.88 333.38,-284.88 243.5,-284.88"/>
<polygon fill="none" stroke="#666666" points="223.38,-232.62 223.38,-320.38 333.38,-320.38 333.38,-232.62 223.38,-232.62"/>
</a>
</g>
</g>
<!-- Node2&#45;&gt;Node1 -->
<g id="edge1_Node000001_Node000002" class="edge">
<title>Node2&#45;&gt;Node1</title>
<g id="a_edge1_Node000001_Node000002"><a xlink:title=" ">
<path fill="none" stroke="#63b8ff" d="M299.6,-222.09C305.86,-206.34 312.87,-188.69 319.71,-171.48"/>
<polygon fill="none" stroke="#63b8ff" points="296.39,-220.68 295.95,-231.26 302.9,-223.26 296.39,-220.68"/>
</a>
</g>
</g>
<!-- Node3 -->
<g id="Node000003" class="node">
<title>Node3</title>
<g id="a_Node000003"><a xlink:href="../../da/d61/classArcane_1_1AbstractService.html" target="_top" xlink:title="Classe de base d&#39;un service.">
<polygon fill="white" stroke="none" points="201.5,-661.88 77.25,-661.88 77.25,-507.12 201.5,-507.12 201.5,-661.88"/>
<text xml:space="preserve" text-anchor="start" x="81.25" y="-648.38" font-family="Helvetica,sans-Serif" font-size="10.00">Arcane::AbstractService</text>
<text xml:space="preserve" text-anchor="start" x="86.44" y="-631.62" font-family="Helvetica,sans-Serif" font-size="10.00">&#45;</text>
<text xml:space="preserve" text-anchor="start" x="99.38" y="-631.62" font-family="Helvetica,sans-Serif" font-size="10.00">m_service_info</text>
<text xml:space="preserve" text-anchor="start" x="86.44" y="-614.88" font-family="Helvetica,sans-Serif" font-size="10.00">&#45;</text>
<text xml:space="preserve" text-anchor="start" x="99.38" y="-614.88" font-family="Helvetica,sans-Serif" font-size="10.00">m_parent</text>
<text xml:space="preserve" text-anchor="start" x="84.19" y="-598.12" font-family="Helvetica,sans-Serif" font-size="10.00">+</text>
<text xml:space="preserve" text-anchor="start" x="99.38" y="-598.12" font-family="Helvetica,sans-Serif" font-size="10.00">~AbstractService()</text>
<text xml:space="preserve" text-anchor="start" x="84.19" y="-581.38" font-family="Helvetica,sans-Serif" font-size="10.00">+</text>
<text xml:space="preserve" text-anchor="start" x="99.38" y="-581.38" font-family="Helvetica,sans-Serif" font-size="10.00">build()</text>
<text xml:space="preserve" text-anchor="start" x="84.19" y="-564.62" font-family="Helvetica,sans-Serif" font-size="10.00">+</text>
<text xml:space="preserve" text-anchor="start" x="99.38" y="-564.62" font-family="Helvetica,sans-Serif" font-size="10.00">serviceInfo()</text>
<text xml:space="preserve" text-anchor="start" x="84.19" y="-547.88" font-family="Helvetica,sans-Serif" font-size="10.00">+</text>
<text xml:space="preserve" text-anchor="start" x="99.38" y="-547.88" font-family="Helvetica,sans-Serif" font-size="10.00">serviceParent()</text>
<text xml:space="preserve" text-anchor="start" x="84.19" y="-531.12" font-family="Helvetica,sans-Serif" font-size="10.00">+</text>
<text xml:space="preserve" text-anchor="start" x="99.38" y="-531.12" font-family="Helvetica,sans-Serif" font-size="10.00">serviceInterface()</text>
<text xml:space="preserve" text-anchor="start" x="84.19" y="-514.38" font-family="Helvetica,sans-Serif" font-size="10.00">#</text>
<text xml:space="preserve" text-anchor="start" x="99.38" y="-514.38" font-family="Helvetica,sans-Serif" font-size="10.00">AbstractService()</text>
<polygon fill="#666666" stroke="#666666" points="77.25,-643.12 77.25,-643.12 201.5,-643.12 201.5,-643.12 77.25,-643.12"/>
<polygon fill="#666666" stroke="#666666" points="77.25,-609.62 77.25,-609.62 97.38,-609.62 97.38,-609.62 77.25,-609.62"/>
<polygon fill="#666666" stroke="#666666" points="97.38,-609.62 97.38,-609.62 201.5,-609.62 201.5,-609.62 97.38,-609.62"/>
<polygon fill="none" stroke="#666666" points="77.25,-507.12 77.25,-661.88 201.5,-661.88 201.5,-507.12 77.25,-507.12"/>
</a>
</g>
</g>
<!-- Node3&#45;&gt;Node2 -->
<g id="edge2_Node000002_Node000003" class="edge">
<title>Node3&#45;&gt;Node2</title>
<g id="a_edge2_Node000002_Node000003"><a xlink:title=" ">
<path fill="none" stroke="#63b8ff" d="M164.76,-496.79C176.71,-460.37 192.33,-418.06 210.38,-381.5 220.78,-360.41 234.66,-338.43 247.16,-320.14"/>
<polygon fill="none" stroke="#63b8ff" points="161.54,-495.36 161.79,-505.95 168.2,-497.52 161.54,-495.36"/>
</a>
</g>
</g>
<!-- Node4 -->
<g id="Node000004" class="node">
<title>Node4</title>
<g id="a_Node000004"><a xlink:href="../../d1/d17/classArcane_1_1TraceAccessor.html" target="_top" xlink:title="Classe d&#39;accès aux traces.">
<polygon fill="white" stroke="none" points="138.75,-1095.5 0,-1095.5 0,-823.5 138.75,-823.5 138.75,-1095.5"/>
<text xml:space="preserve" text-anchor="start" x="15" y="-1082" font-family="Helvetica,sans-Serif" font-size="10.00">Arcane::TraceAccessor</text>
<text xml:space="preserve" text-anchor="start" x="6.25" y="-1065.25" font-family="Helvetica,sans-Serif" font-size="10.00">&#45;</text>
<text xml:space="preserve" text-anchor="start" x="16.25" y="-1065.25" font-family="Helvetica,sans-Serif" font-size="10.00">m_trace</text>
<text xml:space="preserve" text-anchor="start" x="6.25" y="-1048.5" font-family="Helvetica,sans-Serif" font-size="10.00">&#45;</text>
<text xml:space="preserve" text-anchor="start" x="16.25" y="-1048.5" font-family="Helvetica,sans-Serif" font-size="10.00">m_local_verbose_level</text>
<text xml:space="preserve" text-anchor="start" x="4" y="-1031.75" font-family="Helvetica,sans-Serif" font-size="10.00">+</text>
<text xml:space="preserve" text-anchor="start" x="16.25" y="-1031.75" font-family="Helvetica,sans-Serif" font-size="10.00">TraceAccessor()</text>
<text xml:space="preserve" text-anchor="start" x="4" y="-1015" font-family="Helvetica,sans-Serif" font-size="10.00">+</text>
<text xml:space="preserve" text-anchor="start" x="16.25" y="-1015" font-family="Helvetica,sans-Serif" font-size="10.00">TraceAccessor()</text>
<text xml:space="preserve" text-anchor="start" x="4" y="-998.25" font-family="Helvetica,sans-Serif" font-size="10.00">+</text>
<text xml:space="preserve" text-anchor="start" x="16.25" y="-998.25" font-family="Helvetica,sans-Serif" font-size="10.00">operator=()</text>
<text xml:space="preserve" text-anchor="start" x="4" y="-981.5" font-family="Helvetica,sans-Serif" font-size="10.00">+</text>
<text xml:space="preserve" text-anchor="start" x="16.25" y="-981.5" font-family="Helvetica,sans-Serif" font-size="10.00">~TraceAccessor()</text>
<text xml:space="preserve" text-anchor="start" x="4" y="-964.75" font-family="Helvetica,sans-Serif" font-size="10.00">+</text>
<text xml:space="preserve" text-anchor="start" x="16.25" y="-964.75" font-family="Helvetica,sans-Serif" font-size="10.00">traceMng()</text>
<text xml:space="preserve" text-anchor="start" x="4" y="-948" font-family="Helvetica,sans-Serif" font-size="10.00">+</text>
<text xml:space="preserve" text-anchor="start" x="16.25" y="-948" font-family="Helvetica,sans-Serif" font-size="10.00">info()</text>
<text xml:space="preserve" text-anchor="start" x="4" y="-931.25" font-family="Helvetica,sans-Serif" font-size="10.00">+</text>
<text xml:space="preserve" text-anchor="start" x="16.25" y="-931.25" font-family="Helvetica,sans-Serif" font-size="10.00">pinfo()</text>
<text xml:space="preserve" text-anchor="start" x="4" y="-914.5" font-family="Helvetica,sans-Serif" font-size="10.00">+</text>
<text xml:space="preserve" text-anchor="start" x="16.25" y="-914.5" font-family="Helvetica,sans-Serif" font-size="10.00">info()</text>
<text xml:space="preserve" text-anchor="start" x="4" y="-897.75" font-family="Helvetica,sans-Serif" font-size="10.00">+</text>
<text xml:space="preserve" text-anchor="start" x="16.25" y="-897.75" font-family="Helvetica,sans-Serif" font-size="10.00">pinfo()</text>
<text xml:space="preserve" text-anchor="start" x="4" y="-881" font-family="Helvetica,sans-Serif" font-size="10.00">+</text>
<text xml:space="preserve" text-anchor="start" x="16.25" y="-881" font-family="Helvetica,sans-Serif" font-size="10.00">info()</text>
<text xml:space="preserve" text-anchor="start" x="16.25" y="-864.25" font-family="Helvetica,sans-Serif" font-size="10.00">et 15 de plus...</text>
<text xml:space="preserve" text-anchor="start" x="4" y="-847.5" font-family="Helvetica,sans-Serif" font-size="10.00">#</text>
<text xml:space="preserve" text-anchor="start" x="16.25" y="-847.5" font-family="Helvetica,sans-Serif" font-size="10.00">_setLocalVerboseLevel()</text>
<text xml:space="preserve" text-anchor="start" x="4" y="-830.75" font-family="Helvetica,sans-Serif" font-size="10.00">#</text>
<text xml:space="preserve" text-anchor="start" x="16.25" y="-830.75" font-family="Helvetica,sans-Serif" font-size="10.00">_localVerboseLevel()</text>
<polygon fill="#666666" stroke="#666666" points="0,-1076.75 0,-1076.75 138.75,-1076.75 138.75,-1076.75 0,-1076.75"/>
<polygon fill="#666666" stroke="#666666" points="0,-1043.25 0,-1043.25 14.25,-1043.25 14.25,-1043.25 0,-1043.25"/>
<polygon fill="#666666" stroke="#666666" points="14.25,-1043.25 14.25,-1043.25 138.75,-1043.25 138.75,-1043.25 14.25,-1043.25"/>
<polygon fill="none" stroke="#666666" points="0,-823.5 0,-1095.5 138.75,-1095.5 138.75,-823.5 0,-823.5"/>
</a>
</g>
</g>
<!-- Node4&#45;&gt;Node3 -->
<g id="edge3_Node000003_Node000004" class="edge">
<title>Node4&#45;&gt;Node3</title>
<g id="a_edge3_Node000003_Node000004"><a xlink:title=" ">
<path fill="none" stroke="#63b8ff" d="M96.81,-812.33C106.46,-760.89 116.92,-705.15 125.06,-661.8"/>
<polygon fill="none" stroke="#63b8ff" points="93.38,-811.61 94.98,-822.09 100.26,-812.9 93.38,-811.61"/>
</a>
</g>
</g>
<!-- Node5 -->
<g id="Node000005" class="node">
<title>Node5</title>
<g id="a_Node000005"><a xlink:href="../../da/d7e/classArcane_1_1IService.html" target="_top" xlink:title="Interface d&#39;un service.">
<polygon fill="white" stroke="none" points="263.62,-1020.12 157.12,-1020.12 157.12,-898.88 263.62,-898.88 263.62,-1020.12"/>
<text xml:space="preserve" text-anchor="start" x="171" y="-1006.62" font-family="Helvetica,sans-Serif" font-size="10.00">Arcane::IService</text>
<text xml:space="preserve" text-anchor="start" x="208.88" y="-989.88" font-family="Helvetica,sans-Serif" font-size="10.00"> </text>
<text xml:space="preserve" text-anchor="start" x="161.12" y="-973.12" font-family="Helvetica,sans-Serif" font-size="10.00">+</text>
<text xml:space="preserve" text-anchor="start" x="173.38" y="-973.12" font-family="Helvetica,sans-Serif" font-size="10.00">~IService()</text>
<text xml:space="preserve" text-anchor="start" x="161.12" y="-956.38" font-family="Helvetica,sans-Serif" font-size="10.00">+</text>
<text xml:space="preserve" text-anchor="start" x="173.38" y="-956.38" font-family="Helvetica,sans-Serif" font-size="10.00">serviceParent()</text>
<text xml:space="preserve" text-anchor="start" x="161.12" y="-939.62" font-family="Helvetica,sans-Serif" font-size="10.00">+</text>
<text xml:space="preserve" text-anchor="start" x="173.38" y="-939.62" font-family="Helvetica,sans-Serif" font-size="10.00">serviceInterface()</text>
<text xml:space="preserve" text-anchor="start" x="161.12" y="-922.88" font-family="Helvetica,sans-Serif" font-size="10.00">+</text>
<text xml:space="preserve" text-anchor="start" x="173.38" y="-922.88" font-family="Helvetica,sans-Serif" font-size="10.00">serviceInfo()</text>
<text xml:space="preserve" text-anchor="start" x="161.12" y="-906.12" font-family="Helvetica,sans-Serif" font-size="10.00">#</text>
<text xml:space="preserve" text-anchor="start" x="173.38" y="-906.12" font-family="Helvetica,sans-Serif" font-size="10.00">IService()</text>
<polygon fill="#666666" stroke="#666666" points="157.12,-1001.38 157.12,-1001.38 263.62,-1001.38 263.62,-1001.38 157.12,-1001.38"/>
<polygon fill="#666666" stroke="#666666" points="157.12,-984.62 157.12,-984.62 263.62,-984.62 263.62,-984.62 157.12,-984.62"/>
<polygon fill="none" stroke="#666666" points="157.12,-898.88 157.12,-1020.12 263.62,-1020.12 263.62,-898.88 157.12,-898.88"/>
</a>
</g>
</g>
<!-- Node5&#45;&gt;Node3 -->
<g id="edge4_Node000003_Node000005" class="edge">
<title>Node5&#45;&gt;Node3</title>
<g id="a_edge4_Node000003_Node000005"><a xlink:title=" ">
<path fill="none" stroke="#63b8ff" d="M196.9,-887.69C184.59,-823.06 166.46,-727.81 153.86,-661.58"/>
<polygon fill="none" stroke="#63b8ff" points="193.46,-888.33 198.76,-897.5 200.33,-887.02 193.46,-888.33"/>
</a>
</g>
</g>
<!-- Node6 -->
<g id="Node000006" class="node">
<title>Node6</title>
<g id="a_Node000006"><a xlink:href="../../d6/d09/classArcane_1_1MeshAccessor.html" target="_top" xlink:title="Accès aux informations d&#39;un maillage.">
<polygon fill="white" stroke="none" points="337.12,-695.38 219.62,-695.38 219.62,-473.62 337.12,-473.62 337.12,-695.38"/>
<text xml:space="preserve" text-anchor="start" x="223.62" y="-681.88" font-family="Helvetica,sans-Serif" font-size="10.00">Arcane::MeshAccessor</text>
<text xml:space="preserve" text-anchor="start" x="226.38" y="-665.12" font-family="Helvetica,sans-Serif" font-size="10.00">&#45;</text>
<text xml:space="preserve" text-anchor="start" x="236.88" y="-665.12" font-family="Helvetica,sans-Serif" font-size="10.00">m_mesh_handle</text>
<text xml:space="preserve" text-anchor="start" x="224.12" y="-648.38" font-family="Helvetica,sans-Serif" font-size="10.00">+</text>
<text xml:space="preserve" text-anchor="start" x="236.88" y="-648.38" font-family="Helvetica,sans-Serif" font-size="10.00">MeshAccessor()</text>
<text xml:space="preserve" text-anchor="start" x="224.12" y="-631.62" font-family="Helvetica,sans-Serif" font-size="10.00">+</text>
<text xml:space="preserve" text-anchor="start" x="236.88" y="-631.62" font-family="Helvetica,sans-Serif" font-size="10.00">MeshAccessor()</text>
<text xml:space="preserve" text-anchor="start" x="224.12" y="-614.88" font-family="Helvetica,sans-Serif" font-size="10.00">+</text>
<text xml:space="preserve" text-anchor="start" x="236.88" y="-614.88" font-family="Helvetica,sans-Serif" font-size="10.00">MeshAccessor()</text>
<text xml:space="preserve" text-anchor="start" x="224.12" y="-598.12" font-family="Helvetica,sans-Serif" font-size="10.00">+</text>
<text xml:space="preserve" text-anchor="start" x="236.88" y="-598.12" font-family="Helvetica,sans-Serif" font-size="10.00">nbCell()</text>
<text xml:space="preserve" text-anchor="start" x="224.12" y="-581.38" font-family="Helvetica,sans-Serif" font-size="10.00">+</text>
<text xml:space="preserve" text-anchor="start" x="236.88" y="-581.38" font-family="Helvetica,sans-Serif" font-size="10.00">nbFace()</text>
<text xml:space="preserve" text-anchor="start" x="224.12" y="-564.62" font-family="Helvetica,sans-Serif" font-size="10.00">+</text>
<text xml:space="preserve" text-anchor="start" x="236.88" y="-564.62" font-family="Helvetica,sans-Serif" font-size="10.00">nbEdge()</text>
<text xml:space="preserve" text-anchor="start" x="224.12" y="-547.88" font-family="Helvetica,sans-Serif" font-size="10.00">+</text>
<text xml:space="preserve" text-anchor="start" x="236.88" y="-547.88" font-family="Helvetica,sans-Serif" font-size="10.00">nbNode()</text>
<text xml:space="preserve" text-anchor="start" x="224.12" y="-531.12" font-family="Helvetica,sans-Serif" font-size="10.00">+</text>
<text xml:space="preserve" text-anchor="start" x="236.88" y="-531.12" font-family="Helvetica,sans-Serif" font-size="10.00">nodesCoordinates()</text>
<text xml:space="preserve" text-anchor="start" x="224.12" y="-514.38" font-family="Helvetica,sans-Serif" font-size="10.00">+</text>
<text xml:space="preserve" text-anchor="start" x="236.88" y="-514.38" font-family="Helvetica,sans-Serif" font-size="10.00">allNodes()</text>
<text xml:space="preserve" text-anchor="start" x="224.12" y="-497.62" font-family="Helvetica,sans-Serif" font-size="10.00">+</text>
<text xml:space="preserve" text-anchor="start" x="236.88" y="-497.62" font-family="Helvetica,sans-Serif" font-size="10.00">allEdges()</text>
<text xml:space="preserve" text-anchor="start" x="236.88" y="-480.88" font-family="Helvetica,sans-Serif" font-size="10.00">et 9 de plus...</text>
<polygon fill="#666666" stroke="#666666" points="219.62,-676.62 219.62,-676.62 337.12,-676.62 337.12,-676.62 219.62,-676.62"/>
<polygon fill="#666666" stroke="#666666" points="219.62,-659.88 219.62,-659.88 234.88,-659.88 234.88,-659.88 219.62,-659.88"/>
<polygon fill="#666666" stroke="#666666" points="234.88,-659.88 234.88,-659.88 337.12,-659.88 337.12,-659.88 234.88,-659.88"/>
<polygon fill="none" stroke="#666666" points="219.62,-473.62 219.62,-695.38 337.12,-695.38 337.12,-473.62 219.62,-473.62"/>
</a>
</g>
</g>
<!-- Node6&#45;&gt;Node2 -->
<g id="edge5_Node000002_Node000006" class="edge">
<title>Node6&#45;&gt;Node2</title>
<g id="a_edge5_Node000002_Node000006"><a xlink:title=" ">
<path fill="none" stroke="#63b8ff" d="M278.38,-462.57C278.38,-412.29 278.38,-357.16 278.38,-320.26"/>
<polygon fill="none" stroke="#63b8ff" points="274.88,-462.38 278.38,-472.38 281.88,-462.38 274.88,-462.38"/>
</a>
</g>
</g>
<!-- Node7 -->
<g id="Node000007" class="node">
<title>Node7</title>
<g id="a_Node000007"><a xlink:href="../../d1/d74/classArcane_1_1CommonVariables.html" target="_top" xlink:title="Variables communes d&#39;un cas.">
<polygon fill="white" stroke="none" points="511.75,-787.5 355,-787.5 355,-381.5 511.75,-381.5 511.75,-787.5"/>
<text xml:space="preserve" text-anchor="start" x="368.88" y="-774" font-family="Helvetica,sans-Serif" font-size="10.00">Arcane::CommonVariables</text>
<text xml:space="preserve" text-anchor="start" x="359" y="-757.25" font-family="Helvetica,sans-Serif" font-size="10.00">+</text>
<text xml:space="preserve" text-anchor="start" x="371.25" y="-757.25" font-family="Helvetica,sans-Serif" font-size="10.00">m_global_iteration</text>
<text xml:space="preserve" text-anchor="start" x="359" y="-740.5" font-family="Helvetica,sans-Serif" font-size="10.00">+</text>
<text xml:space="preserve" text-anchor="start" x="371.25" y="-740.5" font-family="Helvetica,sans-Serif" font-size="10.00">m_global_time</text>
<text xml:space="preserve" text-anchor="start" x="359" y="-723.75" font-family="Helvetica,sans-Serif" font-size="10.00">+</text>
<text xml:space="preserve" text-anchor="start" x="371.25" y="-723.75" font-family="Helvetica,sans-Serif" font-size="10.00">m_global_deltat</text>
<text xml:space="preserve" text-anchor="start" x="359" y="-707" font-family="Helvetica,sans-Serif" font-size="10.00">+</text>
<text xml:space="preserve" text-anchor="start" x="371.25" y="-707" font-family="Helvetica,sans-Serif" font-size="10.00">m_global_old_time</text>
<text xml:space="preserve" text-anchor="start" x="359" y="-690.25" font-family="Helvetica,sans-Serif" font-size="10.00">+</text>
<text xml:space="preserve" text-anchor="start" x="371.25" y="-690.25" font-family="Helvetica,sans-Serif" font-size="10.00">m_global_old_deltat</text>
<text xml:space="preserve" text-anchor="start" x="359" y="-673.5" font-family="Helvetica,sans-Serif" font-size="10.00">+</text>
<text xml:space="preserve" text-anchor="start" x="371.25" y="-673.5" font-family="Helvetica,sans-Serif" font-size="10.00">m_global_final_time</text>
<text xml:space="preserve" text-anchor="start" x="359" y="-656.75" font-family="Helvetica,sans-Serif" font-size="10.00">+</text>
<text xml:space="preserve" text-anchor="start" x="371.25" y="-656.75" font-family="Helvetica,sans-Serif" font-size="10.00">m_global_old_cpu_time</text>
<text xml:space="preserve" text-anchor="start" x="359" y="-640" font-family="Helvetica,sans-Serif" font-size="10.00">+</text>
<text xml:space="preserve" text-anchor="start" x="371.25" y="-640" font-family="Helvetica,sans-Serif" font-size="10.00">m_global_cpu_time</text>
<text xml:space="preserve" text-anchor="start" x="359" y="-623.25" font-family="Helvetica,sans-Serif" font-size="10.00">+</text>
<text xml:space="preserve" text-anchor="start" x="371.25" y="-623.25" font-family="Helvetica,sans-Serif" font-size="10.00">m_global_old_elapsed_time</text>
<text xml:space="preserve" text-anchor="start" x="359" y="-606.5" font-family="Helvetica,sans-Serif" font-size="10.00">+</text>
<text xml:space="preserve" text-anchor="start" x="371.25" y="-606.5" font-family="Helvetica,sans-Serif" font-size="10.00">m_global_elapsed_time</text>
<text xml:space="preserve" text-anchor="start" x="359" y="-589.75" font-family="Helvetica,sans-Serif" font-size="10.00">+</text>
<text xml:space="preserve" text-anchor="start" x="371.25" y="-589.75" font-family="Helvetica,sans-Serif" font-size="10.00">CommonVariables()</text>
<text xml:space="preserve" text-anchor="start" x="359" y="-573" font-family="Helvetica,sans-Serif" font-size="10.00">+</text>
<text xml:space="preserve" text-anchor="start" x="371.25" y="-573" font-family="Helvetica,sans-Serif" font-size="10.00">CommonVariables()</text>
<text xml:space="preserve" text-anchor="start" x="359" y="-556.25" font-family="Helvetica,sans-Serif" font-size="10.00">+</text>
<text xml:space="preserve" text-anchor="start" x="371.25" y="-556.25" font-family="Helvetica,sans-Serif" font-size="10.00">CommonVariables()</text>
<text xml:space="preserve" text-anchor="start" x="359" y="-539.5" font-family="Helvetica,sans-Serif" font-size="10.00">+</text>
<text xml:space="preserve" text-anchor="start" x="371.25" y="-539.5" font-family="Helvetica,sans-Serif" font-size="10.00">~CommonVariables()</text>
<text xml:space="preserve" text-anchor="start" x="359" y="-522.75" font-family="Helvetica,sans-Serif" font-size="10.00">+</text>
<text xml:space="preserve" text-anchor="start" x="371.25" y="-522.75" font-family="Helvetica,sans-Serif" font-size="10.00">globalIteration()</text>
<text xml:space="preserve" text-anchor="start" x="359" y="-506" font-family="Helvetica,sans-Serif" font-size="10.00">+</text>
<text xml:space="preserve" text-anchor="start" x="371.25" y="-506" font-family="Helvetica,sans-Serif" font-size="10.00">globalTime()</text>
<text xml:space="preserve" text-anchor="start" x="359" y="-489.25" font-family="Helvetica,sans-Serif" font-size="10.00">+</text>
<text xml:space="preserve" text-anchor="start" x="371.25" y="-489.25" font-family="Helvetica,sans-Serif" font-size="10.00">globalOldTime()</text>
<text xml:space="preserve" text-anchor="start" x="359" y="-472.5" font-family="Helvetica,sans-Serif" font-size="10.00">+</text>
<text xml:space="preserve" text-anchor="start" x="371.25" y="-472.5" font-family="Helvetica,sans-Serif" font-size="10.00">globalFinalTime()</text>
<text xml:space="preserve" text-anchor="start" x="359" y="-455.75" font-family="Helvetica,sans-Serif" font-size="10.00">+</text>
<text xml:space="preserve" text-anchor="start" x="371.25" y="-455.75" font-family="Helvetica,sans-Serif" font-size="10.00">globalDeltaT()</text>
<text xml:space="preserve" text-anchor="start" x="359" y="-439" font-family="Helvetica,sans-Serif" font-size="10.00">+</text>
<text xml:space="preserve" text-anchor="start" x="371.25" y="-439" font-family="Helvetica,sans-Serif" font-size="10.00">globalCPUTime()</text>
<text xml:space="preserve" text-anchor="start" x="359" y="-422.25" font-family="Helvetica,sans-Serif" font-size="10.00">+</text>
<text xml:space="preserve" text-anchor="start" x="371.25" y="-422.25" font-family="Helvetica,sans-Serif" font-size="10.00">globalOldCPUTime()</text>
<text xml:space="preserve" text-anchor="start" x="359" y="-405.5" font-family="Helvetica,sans-Serif" font-size="10.00">+</text>
<text xml:space="preserve" text-anchor="start" x="371.25" y="-405.5" font-family="Helvetica,sans-Serif" font-size="10.00">globalElapsedTime()</text>
<text xml:space="preserve" text-anchor="start" x="359" y="-388.75" font-family="Helvetica,sans-Serif" font-size="10.00">+</text>
<text xml:space="preserve" text-anchor="start" x="371.25" y="-388.75" font-family="Helvetica,sans-Serif" font-size="10.00">globalOldElapsedTime()</text>
<polygon fill="#666666" stroke="#666666" points="355,-768.75 355,-768.75 511.75,-768.75 511.75,-768.75 355,-768.75"/>
<polygon fill="#666666" stroke="#666666" points="355,-601.25 355,-601.25 369.25,-601.25 369.25,-601.25 355,-601.25"/>
<polygon fill="#666666" stroke="#666666" points="369.25,-601.25 369.25,-601.25 511.75,-601.25 511.75,-601.25 369.25,-601.25"/>
<polygon fill="none" stroke="#666666" points="355,-381.5 355,-787.5 511.75,-787.5 511.75,-381.5 355,-381.5"/>
</a>
</g>
</g>
<!-- Node7&#45;&gt;Node2 -->
<g id="edge6_Node000002_Node000007" class="edge">
<title>Node7&#45;&gt;Node2</title>
<g id="a_edge6_Node000002_Node000007"><a xlink:title=" ">
<path fill="none" stroke="#63b8ff" d="M349.94,-388.22C348.76,-385.96 347.57,-383.72 346.38,-381.5 335.2,-360.69 321.14,-338.65 308.71,-320.25"/>
<polygon fill="none" stroke="#63b8ff" points="346.71,-389.6 354.41,-396.88 352.93,-386.39 346.71,-389.6"/>
</a>
</g>
</g>
<!-- Node8 -->
<g id="Node000008" class="node">
<title>Node8</title>
<g id="a_Node000008"><a xlink:href="../../d7/d64/classArcane_1_1IRayMeshIntersection.html" target="_top" xlink:title="Calcul de l&#39;intersection entre un ensemble de segments et la surface d&#39;un maillage.">
<polygon fill="white" stroke="none" points="505.12,-345.5 351.62,-345.5 351.62,-207.5 505.12,-207.5 505.12,-345.5"/>
<text xml:space="preserve" text-anchor="start" x="355.62" y="-332" font-family="Helvetica,sans-Serif" font-size="10.00">Arcane::IRayMeshIntersection</text>
<text xml:space="preserve" text-anchor="start" x="426.88" y="-315.25" font-family="Helvetica,sans-Serif" font-size="10.00"> </text>
<text xml:space="preserve" text-anchor="start" x="358.56" y="-298.5" font-family="Helvetica,sans-Serif" font-size="10.00">+</text>
<text xml:space="preserve" text-anchor="start" x="373.75" y="-298.5" font-family="Helvetica,sans-Serif" font-size="10.00">~IRayMeshIntersection()</text>
<text xml:space="preserve" text-anchor="start" x="358.56" y="-281.75" font-family="Helvetica,sans-Serif" font-size="10.00">+</text>
<text xml:space="preserve" text-anchor="start" x="373.75" y="-281.75" font-family="Helvetica,sans-Serif" font-size="10.00">build()</text>
<text xml:space="preserve" text-anchor="start" x="358.56" y="-265" font-family="Helvetica,sans-Serif" font-size="10.00">+</text>
<text xml:space="preserve" text-anchor="start" x="373.75" y="-265" font-family="Helvetica,sans-Serif" font-size="10.00">compute()</text>
<text xml:space="preserve" text-anchor="start" x="358.56" y="-248.25" font-family="Helvetica,sans-Serif" font-size="10.00">+</text>
<text xml:space="preserve" text-anchor="start" x="373.75" y="-248.25" font-family="Helvetica,sans-Serif" font-size="10.00">compute()</text>
<text xml:space="preserve" text-anchor="start" x="358.56" y="-231.5" font-family="Helvetica,sans-Serif" font-size="10.00">+</text>
<text xml:space="preserve" text-anchor="start" x="373.75" y="-231.5" font-family="Helvetica,sans-Serif" font-size="10.00">setFaceIntersector()</text>
<text xml:space="preserve" text-anchor="start" x="358.56" y="-214.75" font-family="Helvetica,sans-Serif" font-size="10.00">+</text>
<text xml:space="preserve" text-anchor="start" x="373.75" y="-214.75" font-family="Helvetica,sans-Serif" font-size="10.00">faceIntersector()</text>
<polygon fill="#666666" stroke="#666666" points="351.62,-326.75 351.62,-326.75 505.12,-326.75 505.12,-326.75 351.62,-326.75"/>
<polygon fill="#666666" stroke="#666666" points="351.62,-310 351.62,-310 505.12,-310 505.12,-310 351.62,-310"/>
<polygon fill="none" stroke="#666666" points="351.62,-207.5 351.62,-345.5 505.12,-345.5 505.12,-207.5 351.62,-207.5"/>
</a>
</g>
</g>
<!-- Node8&#45;&gt;Node1 -->
<g id="edge7_Node000001_Node000008" class="edge">
<title>Node8&#45;&gt;Node1</title>
<g id="a_edge7_Node000001_Node000008"><a xlink:title=" ">
<path fill="none" stroke="#63b8ff" d="M397.2,-197.04C393.84,-188.59 390.42,-179.97 387.03,-171.45"/>
<polygon fill="none" stroke="#63b8ff" points="393.9,-198.22 400.85,-206.22 400.41,-195.63 393.9,-198.22"/>
</a>
</g>
</g>
</g>
</svg>
