<?xml version="1.0" encoding="UTF-8" standalone="no"?>
<!DOCTYPE svg PUBLIC "-//W3C//DTD SVG 1.1//EN"
 "http://www.w3.org/Graphics/SVG/1.1/DTD/svg11.dtd">
<!-- Generated by graphviz version 2.43.0 (0)
 -->
<!-- Title: Arcane::Materials::MeshMaterialVariableRef::materialVariable Pages: 1 -->
<svg width="832pt" height="570pt"
 viewBox="0.00 0.00 832.00 569.50" xmlns="http://www.w3.org/2000/svg" xmlns:xlink="http://www.w3.org/1999/xlink">
<g id="graph0" class="graph" transform="scale(1 1) rotate(0) translate(4 565.5)">
<title>Arcane::Materials::MeshMaterialVariableRef::materialVariable</title>
<!-- Node1 -->
<g id="Node000001" class="node">
<title>Node1</title>
<g id="a_Node000001"><a xlink:title="Variable matériau associée.">
<polygon fill="#999999" stroke="#666666" points="824,-257 684,-257 684,-216 824,-216 824,-257"/>
<text text-anchor="start" x="692" y="-245" font-family="Helvetica,sans-Serif" font-size="10.00">Arcane::Materials::</text>
<text text-anchor="start" x="692" y="-234" font-family="Helvetica,sans-Serif" font-size="10.00">MeshMaterialVariableRef</text>
<text text-anchor="middle" x="754" y="-223" font-family="Helvetica,sans-Serif" font-size="10.00">::materialVariable</text>
</a>
</g>
</g>
<!-- Node2 -->
<g id="Node000002" class="node">
<title>Node2</title>
<g id="a_Node000002"><a xlink:href="../../d3/d68/classArcaneTest_1_1MeshMaterialTesterModule.html#a30102abb722a1c850106ff057ed32e45" target="_top" xlink:title="Test la création à la volée des variables, avec multi&#45;threading.">
<polygon fill="white" stroke="#666666" points="639.5,-501.5 476.5,-501.5 476.5,-471.5 639.5,-471.5 639.5,-501.5"/>
<text text-anchor="start" x="484.5" y="-489.5" font-family="Helvetica,sans-Serif" font-size="10.00">ArcaneTest::MeshMaterial</text>
<text text-anchor="middle" x="558" y="-478.5" font-family="Helvetica,sans-Serif" font-size="10.00">TesterModule::_checkCreation</text>
</a>
</g>
</g>
<!-- Node1&#45;&gt;Node2 -->
<g id="edge1_Node000001_Node000002" class="edge">
<title>Node1&#45;&gt;Node2</title>
<g id="a_edge1_Node000001_Node000002"><a xlink:title=" ">
<path fill="none" stroke="#63b8ff" d="M747.37,-267.17C736.78,-315.96 709.21,-410.98 648,-462.5 643.96,-465.9 639.48,-468.82 634.75,-471.33"/>
<polygon fill="#63b8ff" stroke="#63b8ff" points="750.83,-267.72 749.43,-257.21 743.98,-266.3 750.83,-267.72"/>
</a>
</g>
</g>
<!-- Node3 -->
<g id="Node000003" class="node">
<title>Node3</title>
<g id="a_Node000003"><a xlink:href="../../d2/ddf/VariableUtils_8h.html#add23307aa1675bb5dac925c9c9e010c9" target="_top" xlink:title="Indique que la variable est essentiellement en lecture. void markVariableAsMostlyReadOnly(IVariableRe...">
<polygon fill="white" stroke="#666666" points="648,-453.5 468,-453.5 468,-423.5 648,-423.5 648,-453.5"/>
<text text-anchor="start" x="476" y="-441.5" font-family="Helvetica,sans-Serif" font-size="10.00">Arcane::VariableUtils</text>
<text text-anchor="middle" x="558" y="-430.5" font-family="Helvetica,sans-Serif" font-size="10.00">::markVariableAsMostlyReadOnly</text>
</a>
</g>
</g>
<!-- Node1&#45;&gt;Node3 -->
<g id="edge2_Node000001_Node000003" class="edge">
<title>Node1&#45;&gt;Node3</title>
<g id="a_edge2_Node000001_Node000003"><a xlink:title=" ">
<path fill="none" stroke="#63b8ff" d="M743.39,-266.53C729.06,-306.4 698.27,-376.24 648,-414.5 643.54,-417.89 638.64,-420.81 633.5,-423.31"/>
<polygon fill="#63b8ff" stroke="#63b8ff" points="746.7,-267.67 746.68,-257.07 740.08,-265.37 746.7,-267.67"/>
</a>
</g>
</g>
<!-- Node4 -->
<g id="Node000004" class="node">
<title>Node4</title>
<g id="a_Node000004"><a xlink:href="../../de/dae/namespaceArcane_1_1Accelerator.html#ab1e8235a21fd3d1e28005c16fd2b3dcc" target="_top" xlink:title="Vue en lecture pour les variables materiaux scalaire.">
<polygon fill="white" stroke="#666666" points="614,-405.5 502,-405.5 502,-375.5 614,-375.5 614,-405.5"/>
<text text-anchor="start" x="510" y="-393.5" font-family="Helvetica,sans-Serif" font-size="10.00">Arcane::Accelerator</text>
<text text-anchor="middle" x="558" y="-382.5" font-family="Helvetica,sans-Serif" font-size="10.00">::viewIn</text>
</a>
</g>
</g>
<!-- Node1&#45;&gt;Node4 -->
<g id="edge3_Node000001_Node000004" class="edge">
<title>Node1&#45;&gt;Node4</title>
<g id="a_edge3_Node000001_Node000004"><a xlink:title=" ">
<path fill="none" stroke="#63b8ff" d="M736.93,-265.71C719.05,-295.48 687.43,-340.81 648,-366.5 637.81,-373.14 625.83,-377.95 614.01,-381.44"/>
<polygon fill="#63b8ff" stroke="#63b8ff" points="739.99,-267.41 742.03,-257.01 733.95,-263.87 739.99,-267.41"/>
</a>
</g>
</g>
<!-- Node5 -->
<g id="Node000005" class="node">
<title>Node5</title>
<g id="a_Node000005"><a xlink:href="../../de/dae/namespaceArcane_1_1Accelerator.html#ab5d1da28e4e2275bb0acc8fb21fc0bbd" target="_top" xlink:title="Vue en lecture pour les variables materiaux scalaire.">
<polygon fill="white" stroke="#666666" points="614,-273.5 502,-273.5 502,-243.5 614,-243.5 614,-273.5"/>
<text text-anchor="start" x="510" y="-261.5" font-family="Helvetica,sans-Serif" font-size="10.00">Arcane::Accelerator</text>
<text text-anchor="middle" x="558" y="-250.5" font-family="Helvetica,sans-Serif" font-size="10.00">::viewIn</text>
</a>
</g>
</g>
<!-- Node1&#45;&gt;Node5 -->
<g id="edge4_Node000001_Node000005" class="edge">
<title>Node1&#45;&gt;Node5</title>
<g id="a_edge4_Node000001_Node000005"><a xlink:title=" ">
<path fill="none" stroke="#63b8ff" d="M673.75,-245.49C653.75,-247.76 632.7,-250.14 614.18,-252.24"/>
<polygon fill="#63b8ff" stroke="#63b8ff" points="674.24,-248.95 683.78,-244.35 673.45,-242 674.24,-248.95"/>
</a>
</g>
</g>
<!-- Node11 -->
<g id="Node000011" class="node">
<title>Node11</title>
<g id="a_Node000011"><a xlink:href="../../d0/d32/namespaceArcane.html#aecdf9011fbf16b6ce6f6772e4013f77b" target="_top" xlink:title="Vue en lecture.">
<polygon fill="white" stroke="#666666" points="375.5,-153 286.5,-153 286.5,-134 375.5,-134 375.5,-153"/>
<text text-anchor="middle" x="331" y="-141" font-family="Helvetica,sans-Serif" font-size="10.00">Arcane::viewIn</text>
</a>
</g>
</g>
<!-- Node1&#45;&gt;Node11 -->
<g id="edge11_Node000001_Node000011" class="edge">
<title>Node1&#45;&gt;Node11</title>
<g id="a_edge11_Node000001_Node000011"><a xlink:title=" ">
<path fill="none" stroke="#63b8ff" d="M673.67,-230.78C602.27,-224.66 503.3,-213.47 468,-196.5 448.17,-186.96 451.6,-172.51 432,-162.5 414.69,-153.66 393.79,-148.9 375.59,-146.36"/>
<polygon fill="#63b8ff" stroke="#63b8ff" points="673.74,-234.3 683.99,-231.65 674.32,-227.32 673.74,-234.3"/>
</a>
</g>
</g>
<!-- Node12 -->
<g id="Node000012" class="node">
<title>Node12</title>
<g id="a_Node000012"><a xlink:href="../../de/dae/namespaceArcane_1_1Accelerator.html#a36b8b1c714bce61e4772ec461561bc68" target="_top" xlink:title="Vue en lecture/écriture pour les variables materiaux scalaire.">
<polygon fill="white" stroke="#666666" points="614,-187.5 502,-187.5 502,-157.5 614,-157.5 614,-187.5"/>
<text text-anchor="start" x="510" y="-175.5" font-family="Helvetica,sans-Serif" font-size="10.00">Arcane::Accelerator</text>
<text text-anchor="middle" x="558" y="-164.5" font-family="Helvetica,sans-Serif" font-size="10.00">::viewInOut</text>
</a>
</g>
</g>
<!-- Node1&#45;&gt;Node12 -->
<g id="edge12_Node000001_Node000012" class="edge">
<title>Node1&#45;&gt;Node12</title>
<g id="a_edge12_Node000001_Node000012"><a xlink:title=" ">
<path fill="none" stroke="#63b8ff" d="M682.16,-212.82C670.75,-209.02 659.05,-205.14 648,-201.5 634.26,-196.97 619.32,-192.09 605.67,-187.64"/>
<polygon fill="#63b8ff" stroke="#63b8ff" points="681.08,-216.14 691.67,-215.98 683.29,-209.5 681.08,-216.14"/>
</a>
</g>
</g>
<!-- Node13 -->
<g id="Node000013" class="node">
<title>Node13</title>
<g id="a_Node000013"><a xlink:href="../../de/dae/namespaceArcane_1_1Accelerator.html#a86d836abbb99e1a9b886f57692c58a8e" target="_top" xlink:title="Vue en lecture/écriture pour les variables materiaux scalaire.">
<polygon fill="white" stroke="#666666" points="614,-357.5 502,-357.5 502,-327.5 614,-327.5 614,-357.5"/>
<text text-anchor="start" x="510" y="-345.5" font-family="Helvetica,sans-Serif" font-size="10.00">Arcane::Accelerator</text>
<text text-anchor="middle" x="558" y="-334.5" font-family="Helvetica,sans-Serif" font-size="10.00">::viewInOut</text>
</a>
</g>
</g>
<!-- Node1&#45;&gt;Node13 -->
<g id="edge13_Node000001_Node000013" class="edge">
<title>Node1&#45;&gt;Node13</title>
<g id="a_edge13_Node000001_Node000013"><a xlink:title=" ">
<path fill="none" stroke="#63b8ff" d="M705.96,-262.2C668.66,-282.58 617.79,-310.38 586.74,-327.35"/>
<polygon fill="#63b8ff" stroke="#63b8ff" points="708.04,-265.06 715.13,-257.19 704.68,-258.91 708.04,-265.06"/>
</a>
</g>
</g>
<!-- Node18 -->
<g id="Node000018" class="node">
<title>Node18</title>
<g id="a_Node000018"><a xlink:href="../../de/dae/namespaceArcane_1_1Accelerator.html#aec996eedfe9a99f6cfac5a989b38646c" target="_top" xlink:title="Vue en écriture pour les variables materiaux scalaire.">
<polygon fill="white" stroke="#666666" points="614,-139.5 502,-139.5 502,-109.5 614,-109.5 614,-139.5"/>
<text text-anchor="start" x="510" y="-127.5" font-family="Helvetica,sans-Serif" font-size="10.00">Arcane::Accelerator</text>
<text text-anchor="middle" x="558" y="-116.5" font-family="Helvetica,sans-Serif" font-size="10.00">::viewOut</text>
</a>
</g>
</g>
<!-- Node1&#45;&gt;Node18 -->
<g id="edge19_Node000001_Node000018" class="edge">
<title>Node1&#45;&gt;Node18</title>
<g id="a_edge19_Node000001_Node000018"><a xlink:title=" ">
<path fill="none" stroke="#63b8ff" d="M726.47,-208.56C706.57,-189.12 677.74,-164 648,-148.5 637.5,-143.03 625.63,-138.71 614.07,-135.34"/>
<polygon fill="#63b8ff" stroke="#63b8ff" points="724.09,-211.13 733.64,-215.7 729.03,-206.16 724.09,-211.13"/>
</a>
</g>
</g>
<!-- Node19 -->
<g id="Node000019" class="node">
<title>Node19</title>
<g id="a_Node000019"><a xlink:href="../../de/dae/namespaceArcane_1_1Accelerator.html#a932142f1bed7d73b59c8c01d686e4ed7" target="_top" xlink:title="Vue en écriture pour les variables materiaux scalaire.">
<polygon fill="white" stroke="#666666" points="614,-91.5 502,-91.5 502,-61.5 614,-61.5 614,-91.5"/>
<text text-anchor="start" x="510" y="-79.5" font-family="Helvetica,sans-Serif" font-size="10.00">Arcane::Accelerator</text>
<text text-anchor="middle" x="558" y="-68.5" font-family="Helvetica,sans-Serif" font-size="10.00">::viewOut</text>
</a>
</g>
</g>
<!-- Node1&#45;&gt;Node19 -->
<g id="edge20_Node000001_Node000019" class="edge">
<title>Node1&#45;&gt;Node19</title>
<g id="a_edge20_Node000001_Node000019"><a xlink:title=" ">
<path fill="none" stroke="#63b8ff" d="M737.55,-206.45C720,-175.32 688.48,-127.51 648,-100.5 637.88,-93.75 625.93,-88.89 614.12,-85.4"/>
<polygon fill="#63b8ff" stroke="#63b8ff" points="734.66,-208.46 742.54,-215.54 740.79,-205.09 734.66,-208.46"/>
</a>
</g>
</g>
<!-- Node22 -->
<g id="Node000022" class="node">
<title>Node22</title>
<g id="a_Node000022"><a xlink:href="../../d0/d32/namespaceArcane.html#a13f4d01fa8f47d003b54d1f729608989" target="_top" xlink:title="Vue en écriture.">
<polygon fill="white" stroke="#666666" points="379.5,-19 282.5,-19 282.5,0 379.5,0 379.5,-19"/>
<text text-anchor="middle" x="331" y="-7" font-family="Helvetica,sans-Serif" font-size="10.00">Arcane::viewOut</text>
</a>
</g>
</g>
<!-- Node1&#45;&gt;Node22 -->
<g id="edge24_Node000001_Node000022" class="edge">
<title>Node1&#45;&gt;Node22</title>
<g id="a_edge24_Node000001_Node000022"><a xlink:title=" ">
<path fill="none" stroke="#63b8ff" d="M744.87,-206.08C731.93,-164.03 702.35,-89.19 648,-52.5 566.43,2.56 445.79,1.89 379.66,-3.66"/>
<polygon fill="#63b8ff" stroke="#63b8ff" points="741.55,-207.17 747.74,-215.77 748.26,-205.19 741.55,-207.17"/>
</a>
</g>
</g>
<!-- Node6 -->
<g id="Node000006" class="node">
<title>Node6</title>
<g id="a_Node000006"><a xlink:href="../../d4/d49/classArcaneTest_1_1MaterialHeatTestModule.html#a2dcc91adb84194d9a160bd24398b3521" target="_top" xlink:title=" ">
<polygon fill="white" stroke="#666666" points="401,-357.5 261,-357.5 261,-327.5 401,-327.5 401,-357.5"/>
<text text-anchor="start" x="269" y="-345.5" font-family="Helvetica,sans-Serif" font-size="10.00">ArcaneTest::MaterialHeat</text>
<text text-anchor="middle" x="331" y="-334.5" font-family="Helvetica,sans-Serif" font-size="10.00">TestModule::_addHeat</text>
</a>
</g>
</g>
<!-- Node5&#45;&gt;Node6 -->
<g id="edge5_Node000005_Node000006" class="edge">
<title>Node5&#45;&gt;Node6</title>
<g id="a_edge5_Node000005_Node000006"><a xlink:title=" ">
<path fill="none" stroke="#63b8ff" d="M520.98,-278.31C496.47,-291.15 462.97,-307.49 432,-318.5 422.16,-322 411.59,-325.15 401.15,-327.93"/>
<polygon fill="#63b8ff" stroke="#63b8ff" points="522.72,-281.35 529.92,-273.57 519.44,-275.16 522.72,-281.35"/>
</a>
</g>
</g>
<!-- Node7 -->
<g id="Node000007" class="node">
<title>Node7</title>
<g id="a_Node000007"><a xlink:href="../../d1/d07/classArcane_1_1Materials_1_1MeshEnvironment.html#a1aba2e0e053c1aa2a0288db1c1b9408a" target="_top" xlink:title="Calcul les infos sur les matériaux en mono&#45;matériaux.">
<polygon fill="white" stroke="#666666" points="431,-309 231,-309 231,-268 431,-268 431,-309"/>
<text text-anchor="start" x="239" y="-297" font-family="Helvetica,sans-Serif" font-size="10.00">Arcane::Materials::</text>
<text text-anchor="start" x="239" y="-286" font-family="Helvetica,sans-Serif" font-size="10.00">MeshEnvironment::_computeMaterial</text>
<text text-anchor="middle" x="331" y="-275" font-family="Helvetica,sans-Serif" font-size="10.00">IndexesMonoMat</text>
</a>
</g>
</g>
<!-- Node5&#45;&gt;Node7 -->
<g id="edge6_Node000005_Node000007" class="edge">
<title>Node5&#45;&gt;Node7</title>
<g id="a_edge6_Node000005_Node000007"><a xlink:title=" ">
<path fill="none" stroke="#63b8ff" d="M491.96,-267.17C472.99,-269.7 451.82,-272.52 431.25,-275.27"/>
<polygon fill="#63b8ff" stroke="#63b8ff" points="492.51,-270.63 501.96,-265.84 491.58,-263.69 492.51,-270.63"/>
</a>
</g>
</g>
<!-- Node9 -->
<g id="Node000009" class="node">
<title>Node9</title>
<g id="a_Node000009"><a xlink:href="../../de/dae/namespaceArcane_1_1Accelerator.html#abe42ad3fadd0271d6ce3ffa09e02c56c" target="_top" xlink:title="Vue en lecture.">
<polygon fill="white" stroke="#666666" points="387,-249.5 275,-249.5 275,-219.5 387,-219.5 387,-249.5"/>
<text text-anchor="start" x="283" y="-237.5" font-family="Helvetica,sans-Serif" font-size="10.00">Arcane::Accelerator</text>
<text text-anchor="middle" x="331" y="-226.5" font-family="Helvetica,sans-Serif" font-size="10.00">::viewIn</text>
</a>
</g>
</g>
<!-- Node5&#45;&gt;Node9 -->
<g id="edge8_Node000005_Node000009" class="edge">
<title>Node5&#45;&gt;Node9</title>
<g id="a_edge8_Node000005_Node000009"><a xlink:title=" ">
<path fill="none" stroke="#63b8ff" d="M491.9,-251.56C458.76,-248.02 418.89,-243.77 387.25,-240.39"/>
<polygon fill="#63b8ff" stroke="#63b8ff" points="491.64,-255.05 501.96,-252.63 492.39,-248.09 491.64,-255.05"/>
</a>
</g>
</g>
<!-- Node10 -->
<g id="Node000010" class="node">
<title>Node10</title>
<g id="a_Node000010"><a xlink:href="../../de/dae/namespaceArcane_1_1Accelerator.html#a537b73e3574bb06cdacd5975ac2dda76" target="_top" xlink:title="Vue en lecture.">
<polygon fill="white" stroke="#666666" points="387,-201.5 275,-201.5 275,-171.5 387,-171.5 387,-201.5"/>
<text text-anchor="start" x="283" y="-189.5" font-family="Helvetica,sans-Serif" font-size="10.00">Arcane::Accelerator</text>
<text text-anchor="middle" x="331" y="-178.5" font-family="Helvetica,sans-Serif" font-size="10.00">::viewIn</text>
</a>
</g>
</g>
<!-- Node5&#45;&gt;Node10 -->
<g id="edge9_Node000005_Node000010" class="edge">
<title>Node5&#45;&gt;Node10</title>
<g id="a_edge9_Node000005_Node000010"><a xlink:title=" ">
<path fill="none" stroke="#63b8ff" d="M495.87,-240.11C486.44,-236.84 476.89,-233.26 468,-229.5 451.34,-222.45 448.93,-216.88 432,-210.5 417.8,-205.15 402.01,-200.7 387.24,-197.15"/>
<polygon fill="#63b8ff" stroke="#63b8ff" points="495.03,-243.52 505.62,-243.41 497.27,-236.89 495.03,-243.52"/>
</a>
</g>
</g>
<!-- Node5&#45;&gt;Node11 -->
<g id="edge10_Node000005_Node000011" class="edge">
<title>Node5&#45;&gt;Node11</title>
<g id="a_edge10_Node000005_Node000011"><a xlink:title=" ">
<path fill="none" stroke="#63b8ff" d="M492.28,-244C483.54,-240.22 475.14,-235.47 468,-229.5 442.07,-207.82 459.26,-182.49 432,-162.5 415.9,-150.69 394.53,-145.61 375.68,-143.61"/>
<polygon fill="#63b8ff" stroke="#63b8ff" points="491.27,-247.36 501.86,-247.73 493.81,-240.84 491.27,-247.36"/>
</a>
</g>
</g>
<!-- Node8 -->
<g id="Node000008" class="node">
<title>Node8</title>
<g id="a_Node000008"><a xlink:href="../../d1/d07/classArcane_1_1Materials_1_1MeshEnvironment.html#a7b82be1afe01d69118b1e6456af00a98" target="_top" xlink:title="Calcul les infos sur les matériaux.">
<polygon fill="white" stroke="#666666" points="194,-309 0,-309 0,-268 194,-268 194,-309"/>
<text text-anchor="start" x="8" y="-297" font-family="Helvetica,sans-Serif" font-size="10.00">Arcane::Materials::</text>
<text text-anchor="start" x="8" y="-286" font-family="Helvetica,sans-Serif" font-size="10.00">MeshEnvironment::computeMaterial</text>
<text text-anchor="middle" x="97" y="-275" font-family="Helvetica,sans-Serif" font-size="10.00">Indexes</text>
</a>
</g>
</g>
<!-- Node7&#45;&gt;Node8 -->
<g id="edge7_Node000007_Node000008" class="edge">
<title>Node7&#45;&gt;Node8</title>
<g id="a_edge7_Node000007_Node000008"><a xlink:title=" ">
<path fill="none" stroke="#63b8ff" d="M220.89,-288.5C211.96,-288.5 202.98,-288.5 194.15,-288.5"/>
<polygon fill="#63b8ff" stroke="#63b8ff" points="220.94,-292 230.94,-288.5 220.94,-285 220.94,-292"/>
</a>
</g>
</g>
<!-- Node13&#45;&gt;Node6 -->
<g id="edge14_Node000013_Node000006" class="edge">
<title>Node13&#45;&gt;Node6</title>
<g id="a_edge14_Node000013_Node000006"><a xlink:title=" ">
<path fill="none" stroke="#63b8ff" d="M491.76,-342.5C463.42,-342.5 430.19,-342.5 401.4,-342.5"/>
<polygon fill="#63b8ff" stroke="#63b8ff" points="491.96,-346 501.96,-342.5 491.96,-339 491.96,-346"/>
</a>
</g>
</g>
<!-- Node14 -->
<g id="Node000014" class="node">
<title>Node14</title>
<g id="a_Node000014"><a xlink:href="../../de/dfb/classArcaneTest_1_1CartesianMeshTestUtils.html#afd6cb58587a125da456b0ab3e1d85fc5" target="_top" xlink:title="Méthodes publiques car accessibles sur accélérateur.">
<polygon fill="white" stroke="#666666" points="419.5,-561.5 242.5,-561.5 242.5,-531.5 419.5,-531.5 419.5,-561.5"/>
<text text-anchor="start" x="250.5" y="-549.5" font-family="Helvetica,sans-Serif" font-size="10.00">ArcaneTest::CartesianMesh</text>
<text text-anchor="middle" x="331" y="-538.5" font-family="Helvetica,sans-Serif" font-size="10.00">TestUtils::_testDirCellAccelerator</text>
</a>
</g>
</g>
<!-- Node13&#45;&gt;Node14 -->
<g id="edge15_Node000013_Node000014" class="edge">
<title>Node13&#45;&gt;Node14</title>
<g id="a_edge15_Node000013_Node000014"><a xlink:title=" ">
<path fill="none" stroke="#63b8ff" d="M492.15,-350.99C483.13,-354.58 474.68,-359.57 468,-366.5 418.61,-417.73 482.09,-471.97 432,-522.5 428.35,-526.18 424.25,-529.33 419.84,-532.03"/>
<polygon fill="#63b8ff" stroke="#63b8ff" points="493.37,-354.27 501.7,-347.73 491.11,-347.64 493.37,-354.27"/>
</a>
</g>
</g>
<!-- Node15 -->
<g id="Node000015" class="node">
<title>Node15</title>
<g id="a_Node000015"><a xlink:href="../../de/d22/classArcane_1_1Materials_1_1AcceleratorMeshMaterialSynchronizerImpl.html#ae247b85d9eea8bfacc5c819abbcd1d21" target="_top" xlink:title="Synchronisation de la liste des matériaux/milieux des entités.">
<polygon fill="white" stroke="#666666" points="432,-513 230,-513 230,-472 432,-472 432,-513"/>
<text text-anchor="start" x="238" y="-501" font-family="Helvetica,sans-Serif" font-size="10.00">Arcane::Materials::</text>
<text text-anchor="start" x="238" y="-490" font-family="Helvetica,sans-Serif" font-size="10.00">AcceleratorMeshMaterialSynchronizer</text>
<text text-anchor="middle" x="331" y="-479" font-family="Helvetica,sans-Serif" font-size="10.00">Impl::synchronizeMaterialsInCells</text>
</a>
</g>
</g>
<!-- Node13&#45;&gt;Node15 -->
<g id="edge16_Node000013_Node000015" class="edge">
<title>Node13&#45;&gt;Node15</title>
<g id="a_edge16_Node000013_Node000015"><a xlink:title=" ">
<path fill="none" stroke="#63b8ff" d="M491.97,-352.16C483.2,-355.61 474.87,-360.26 468,-366.5 434.28,-397.15 465.29,-431.38 432,-462.5 428.29,-465.97 424.2,-469.03 419.85,-471.75"/>
<polygon fill="#63b8ff" stroke="#63b8ff" points="493.28,-355.41 501.61,-348.86 491.02,-348.78 493.28,-355.41"/>
</a>
</g>
</g>
<!-- Node16 -->
<g id="Node000016" class="node">
<title>Node16</title>
<g id="a_Node000016"><a xlink:href="../../de/dae/namespaceArcane_1_1Accelerator.html#accca68705d461b9e9c8aa8f2f9d1aa67" target="_top" xlink:title="Vue en lecture/écriture.">
<polygon fill="white" stroke="#666666" points="387,-453.5 275,-453.5 275,-423.5 387,-423.5 387,-453.5"/>
<text text-anchor="start" x="283" y="-441.5" font-family="Helvetica,sans-Serif" font-size="10.00">Arcane::Accelerator</text>
<text text-anchor="middle" x="331" y="-430.5" font-family="Helvetica,sans-Serif" font-size="10.00">::viewInOut</text>
</a>
</g>
</g>
<!-- Node13&#45;&gt;Node16 -->
<g id="edge17_Node000013_Node000016" class="edge">
<title>Node13&#45;&gt;Node16</title>
<g id="a_edge17_Node000013_Node000016"><a xlink:title=" ">
<path fill="none" stroke="#63b8ff" d="M492.14,-354.49C483.62,-357.61 475.32,-361.54 468,-366.5 445.92,-381.45 454.28,-399.85 432,-414.5 418.72,-423.23 402.59,-428.79 387.19,-432.33"/>
<polygon fill="#63b8ff" stroke="#63b8ff" points="493.41,-357.75 501.81,-351.29 491.22,-351.11 493.41,-357.75"/>
</a>
</g>
</g>
<!-- Node17 -->
<g id="Node000017" class="node">
<title>Node17</title>
<g id="a_Node000017"><a xlink:href="../../de/dae/namespaceArcane_1_1Accelerator.html#a91af1d0b3de3e37f142334af87078ecf" target="_top" xlink:title="Vue en lecture/écriture.">
<polygon fill="white" stroke="#666666" points="387,-405.5 275,-405.5 275,-375.5 387,-375.5 387,-405.5"/>
<text text-anchor="start" x="283" y="-393.5" font-family="Helvetica,sans-Serif" font-size="10.00">Arcane::Accelerator</text>
<text text-anchor="middle" x="331" y="-382.5" font-family="Helvetica,sans-Serif" font-size="10.00">::viewInOut</text>
</a>
</g>
</g>
<!-- Node13&#45;&gt;Node17 -->
<g id="edge18_Node000013_Node000017" class="edge">
<title>Node13&#45;&gt;Node17</title>
<g id="a_edge18_Node000013_Node000017"><a xlink:title=" ">
<path fill="none" stroke="#63b8ff" d="M491.9,-356.39C458.76,-363.46 418.89,-371.96 387.25,-378.71"/>
<polygon fill="#63b8ff" stroke="#63b8ff" points="492.91,-359.75 501.96,-354.24 491.45,-352.91 492.91,-359.75"/>
</a>
</g>
</g>
<!-- Node20 -->
<g id="Node000020" class="node">
<title>Node20</title>
<g id="a_Node000020"><a xlink:href="../../de/dae/namespaceArcane_1_1Accelerator.html#adcf6d3e112b6cfc40703f71f25a7ed5b" target="_top" xlink:title="Vue en écriture.">
<polygon fill="white" stroke="#666666" points="387,-115.5 275,-115.5 275,-85.5 387,-85.5 387,-115.5"/>
<text text-anchor="start" x="283" y="-103.5" font-family="Helvetica,sans-Serif" font-size="10.00">Arcane::Accelerator</text>
<text text-anchor="middle" x="331" y="-92.5" font-family="Helvetica,sans-Serif" font-size="10.00">::viewOut</text>
</a>
</g>
</g>
<!-- Node19&#45;&gt;Node20 -->
<g id="edge21_Node000019_Node000020" class="edge">
<title>Node19&#45;&gt;Node20</title>
<g id="a_edge21_Node000019_Node000020"><a xlink:title=" ">
<path fill="none" stroke="#63b8ff" d="M491.9,-83.44C458.76,-86.98 418.89,-91.23 387.25,-94.61"/>
<polygon fill="#63b8ff" stroke="#63b8ff" points="492.39,-86.91 501.96,-82.37 491.64,-79.95 492.39,-86.91"/>
</a>
</g>
</g>
<!-- Node21 -->
<g id="Node000021" class="node">
<title>Node21</title>
<g id="a_Node000021"><a xlink:href="../../de/dae/namespaceArcane_1_1Accelerator.html#a3d03d105db4dff23e401c303fdfefe06" target="_top" xlink:title="Vue en écriture.">
<polygon fill="white" stroke="#666666" points="387,-67.5 275,-67.5 275,-37.5 387,-37.5 387,-67.5"/>
<text text-anchor="start" x="283" y="-55.5" font-family="Helvetica,sans-Serif" font-size="10.00">Arcane::Accelerator</text>
<text text-anchor="middle" x="331" y="-44.5" font-family="Helvetica,sans-Serif" font-size="10.00">::viewOut</text>
</a>
</g>
</g>
<!-- Node19&#45;&gt;Node21 -->
<g id="edge22_Node000019_Node000021" class="edge">
<title>Node19&#45;&gt;Node21</title>
<g id="a_edge22_Node000019_Node000021"><a xlink:title=" ">
<path fill="none" stroke="#63b8ff" d="M491.9,-69.56C458.76,-66.02 418.89,-61.77 387.25,-58.39"/>
<polygon fill="#63b8ff" stroke="#63b8ff" points="491.64,-73.05 501.96,-70.63 492.39,-66.09 491.64,-73.05"/>
</a>
</g>
</g>
<!-- Node19&#45;&gt;Node22 -->
<g id="edge23_Node000019_Node000022" class="edge">
<title>Node19&#45;&gt;Node22</title>
<g id="a_edge23_Node000019_Node000022"><a xlink:title=" ">
<path fill="none" stroke="#63b8ff" d="M495.87,-58.11C486.44,-54.84 476.89,-51.26 468,-47.5 451.34,-40.45 449.08,-34.48 432,-28.5 415.32,-22.66 396.41,-18.49 379.56,-15.56"/>
<polygon fill="#63b8ff" stroke="#63b8ff" points="495.03,-61.52 505.62,-61.41 497.27,-54.89 495.03,-61.52"/>
</a>
</g>
</g>
</g>
</svg>
