<?xml version="1.0" encoding="UTF-8" standalone="no"?>
<!DOCTYPE svg PUBLIC "-//W3C//DTD SVG 1.1//EN"
 "http://www.w3.org/Graphics/SVG/1.1/DTD/svg11.dtd">
<!-- Generated by graphviz version 14.1.2 (0)
 -->
<!-- Title: Arcane::ItemTypeInfoBuilder::addFaceGeneric Pages: 1 -->
<svg width="668pt" height="94pt"
 viewBox="0.00 0.00 668.00 94.00" xmlns="http://www.w3.org/2000/svg" xmlns:xlink="http://www.w3.org/1999/xlink">
<g id="graph0" class="graph" transform="scale(1 1) rotate(0) translate(4 89.5)">
<title>Arcane::ItemTypeInfoBuilder::addFaceGeneric</title>
<!-- Node1 -->
<g id="Node000001" class="node">
<title>Node1</title>
<g id="a_Node000001"><a xlink:title="Adds a generic face to the list of faces.">
<polygon fill="#999999" stroke="#666666" points="659.5,-59.5 505.5,-59.5 505.5,-26 659.5,-26 659.5,-59.5"/>
<text xml:space="preserve" text-anchor="start" x="513.5" y="-46" font-family="Helvetica,sans-Serif" font-size="10.00">Arcane::ItemTypeInfoBuilder</text>
<text xml:space="preserve" text-anchor="middle" x="582.5" y="-33.25" font-family="Helvetica,sans-Serif" font-size="10.00">::addFaceGeneric</text>
</a>
</g>
</g>
<!-- Node2 -->
<g id="Node000002" class="node">
<title>Node2</title>
<g id="a_Node000002"><a xlink:href="../../d7/dbb/classArcane_1_1ItemTypeMng.html#a3e5e30da018e54ee06ca49b4752920b9" target="_top" xlink:title="Reads types from a file named filename.">
<polygon fill="white" stroke="#666666" points="453.38,-85.5 331.62,-85.5 331.62,-52 453.38,-52 453.38,-85.5"/>
<text xml:space="preserve" text-anchor="start" x="339.62" y="-72" font-family="Helvetica,sans-Serif" font-size="10.00">Arcane::ItemTypeMng</text>
<text xml:space="preserve" text-anchor="middle" x="392.5" y="-59.25" font-family="Helvetica,sans-Serif" font-size="10.00">::_readTypes</text>
</a>
</g>
</g>
<!-- Node1&#45;&gt;Node2 -->
<g id="edge1_Node000001_Node000002" class="edge">
<title>Node1&#45;&gt;Node2</title>
<g id="a_edge1_Node000001_Node000002"><a xlink:title=" ">
<path fill="none" stroke="#63b8ff" d="M493.74,-54.89C480.21,-56.76 466.51,-58.65 453.76,-60.42"/>
<polygon fill="#63b8ff" stroke="#63b8ff" points="494.11,-58.37 503.53,-53.53 493.15,-51.44 494.11,-58.37"/>
</a>
</g>
</g>
<!-- Node5 -->
<g id="Node000005" class="node">
<title>Node5</title>
<g id="a_Node000005"><a xlink:href="../../da/d41/classArcane_1_1ItemTypeInfoBuilder.html#aeb9dc67650d8959fbcaa55566b5b0ef7" target="_top" xlink:title="Positions the information for a type.">
<polygon fill="white" stroke="#666666" points="469.5,-33.5 315.5,-33.5 315.5,0 469.5,0 469.5,-33.5"/>
<text xml:space="preserve" text-anchor="start" x="323.5" y="-20" font-family="Helvetica,sans-Serif" font-size="10.00">Arcane::ItemTypeInfoBuilder</text>
<text xml:space="preserve" text-anchor="middle" x="392.5" y="-7.25" font-family="Helvetica,sans-Serif" font-size="10.00">::setInfos</text>
</a>
</g>
</g>
<!-- Node1&#45;&gt;Node5 -->
<g id="edge4_Node000001_Node000005" class="edge">
<title>Node1&#45;&gt;Node5</title>
<g id="a_edge4_Node000001_Node000005"><a xlink:title=" ">
<path fill="none" stroke="#63b8ff" d="M493.81,-30.62C485.82,-29.52 477.77,-28.41 469.9,-27.32"/>
<polygon fill="#63b8ff" stroke="#63b8ff" points="493.15,-34.06 503.53,-31.97 494.11,-27.13 493.15,-34.06"/>
</a>
</g>
</g>
<!-- Node3 -->
<g id="Node000003" class="node">
<title>Node3</title>
<g id="a_Node000003"><a xlink:href="../../d7/dbb/classArcane_1_1ItemTypeMng.html#a41dd6803e01cf2acb179b4fd99d6f92d" target="_top" xlink:title="Constructs the entity types.">
<polygon fill="white" stroke="#666666" points="279.5,-85.5 157.75,-85.5 157.75,-52 279.5,-52 279.5,-85.5"/>
<text xml:space="preserve" text-anchor="start" x="165.75" y="-72" font-family="Helvetica,sans-Serif" font-size="10.00">Arcane::ItemTypeMng</text>
<text xml:space="preserve" text-anchor="middle" x="218.62" y="-59.25" font-family="Helvetica,sans-Serif" font-size="10.00">::_buildTypes</text>
</a>
</g>
</g>
<!-- Node2&#45;&gt;Node3 -->
<g id="edge2_Node000002_Node000003" class="edge">
<title>Node2&#45;&gt;Node3</title>
<g id="a_edge2_Node000002_Node000003"><a xlink:title=" ">
<path fill="none" stroke="#63b8ff" d="M319.88,-68.75C306.62,-68.75 292.88,-68.75 280,-68.75"/>
<polygon fill="#63b8ff" stroke="#63b8ff" points="319.87,-72.25 329.87,-68.75 319.87,-65.25 319.87,-72.25"/>
</a>
</g>
</g>
<!-- Node4 -->
<g id="Node000004" class="node">
<title>Node4</title>
<g id="a_Node000004"><a xlink:href="../../d7/dbb/classArcane_1_1ItemTypeMng.html#af95506949fac3843ab890e478bfd1bef" target="_top" xlink:title="Constructs the instance associated with the mesh mesh.">
<polygon fill="white" stroke="#666666" points="121.75,-85.5 0,-85.5 0,-52 121.75,-52 121.75,-85.5"/>
<text xml:space="preserve" text-anchor="start" x="8" y="-72" font-family="Helvetica,sans-Serif" font-size="10.00">Arcane::ItemTypeMng</text>
<text xml:space="preserve" text-anchor="middle" x="60.88" y="-59.25" font-family="Helvetica,sans-Serif" font-size="10.00">::build</text>
</a>
</g>
</g>
<!-- Node3&#45;&gt;Node4 -->
<g id="edge3_Node000003_Node000004" class="edge">
<title>Node3&#45;&gt;Node4</title>
<g id="a_edge3_Node000003_Node000004"><a xlink:title=" ">
<path fill="none" stroke="#63b8ff" d="M146.17,-68.75C138.15,-68.75 130.05,-68.75 122.19,-68.75"/>
<polygon fill="#63b8ff" stroke="#63b8ff" points="145.89,-72.25 155.89,-68.75 145.89,-65.25 145.89,-72.25"/>
</a>
</g>
</g>
</g>
</svg>
