<?xml version="1.0" encoding="UTF-8" standalone="no"?>
<!DOCTYPE svg PUBLIC "-//W3C//DTD SVG 1.1//EN"
 "http://www.w3.org/Graphics/SVG/1.1/DTD/svg11.dtd">
<!-- Generated by graphviz version 2.43.0 (0)
 -->
<!-- Title: Arcane::CartesianMeshNumberingMng::cellUniqueIdToCoordZ Pages: 1 -->
<!--zoomable 326 -->

<svg id="main" version="1.1" xmlns="http://www.w3.org/2000/svg" xmlns:xlink="http://www.w3.org/1999/xlink" xml:space="preserve" onload="init(evt)">

<style type="text/css"><![CDATA[
.node, .edge {opacity: 0.7;}
.node.selected, .edge.selected {opacity: 1;}
.edge:hover path { stroke: red; }
.edge:hover polygon { stroke: red; fill: red; }
]]></style>

<defs>
  <circle id="rim" cx="0" cy="0" r="7"/>
  <circle id="rim2" cx="0" cy="0" r="3.5"/>
  <g id="zoomPlus">
    <use xlink:href="#rim" fill="#404040"><set attributeName="fill" to="#808080" begin="zoomplus.mouseover" end="zoomplus.mouseout"/></use>
    <path d="M-4,0h8M0,-4v8" fill="none" stroke="white" stroke-width="1.5" pointer-events="none"/>
  </g>
  <g id="zoomMin">
    <use xlink:href="#rim" fill="#404040"><set attributeName="fill" to="#808080" begin="zoomminus.mouseover" end="zoomminus.mouseout"/></use>
    <path d="M-4,0h8" fill="none" stroke="white" stroke-width="1.5" pointer-events="none"/>
  </g>
  <g id="arrowUp" transform="translate(30 24)">
    <use xlink:href="#rim"/>
    <path pointer-events="none" fill="none" stroke="white" stroke-width="1.5" d="M0,-3.0v7 M-2.5,-0.5L0,-3.0L2.5,-0.5"/>
  </g>
  <g id="arrowRight" transform="rotate(90) translate(36 -43)">
    <use xlink:href="#rim"/>
    <path pointer-events="none" fill="none" stroke="white" stroke-width="1.5" d="M0,-3.0v7 M-2.5,-0.5L0,-3.0L2.5,-0.5"/>
  </g>
  <g id="arrowDown" transform="rotate(180) translate(-30 -48)">
    <use xlink:href="#rim"/>
    <path pointer-events="none" fill="none" stroke="white" stroke-width="1.5" d="M0,-3.0v7 M-2.5,-0.5L0,-3.0L2.5,-0.5"/>
  </g>
  <g id="arrowLeft" transform="rotate(270) translate(-36 17)">
    <use xlink:href="#rim"/>
    <path pointer-events="none" fill="none" stroke="white" stroke-width="1.5" d="M0,-3.0v7 M-2.5,-0.5L0,-3.0L2.5,-0.5"/>
  </g>
  <g id="resetDef">
    <use xlink:href="#rim2" fill="#404040"><set attributeName="fill" to="#808080" begin="reset.mouseover" end="reset.mouseout"/></use>
  </g>
</defs>
<script type="application/ecmascript">
var viewWidth = 848;
var viewHeight = 326;
var sectionId = 'dynsection-24';
</script>
<script type="application/ecmascript" xlink:href="../../svg.min.js"/>
<svg id="graph" class="graph">
<g id="viewport">
<title>Arcane::CartesianMeshNumberingMng::cellUniqueIdToCoordZ</title>
<!-- Node1 -->
<g id="Node000001" class="node">
<title>Node1</title>
<g id="a_Node000001"><a xlink:title="Méthode permettant de récupérer la coordonnée en Z d&#39;une maille grâce à son uniqueId.">
<polygon fill="#999999" stroke="#666666" points="840,-198 657,-198 657,-168 840,-168 840,-198"/>
<text text-anchor="start" x="665" y="-186" font-family="Helvetica,sans-Serif" font-size="10.00">Arcane::CartesianMeshNumbering</text>
<text text-anchor="middle" x="748.5" y="-175" font-family="Helvetica,sans-Serif" font-size="10.00">Mng::cellUniqueIdToCoordZ</text>
</a>
</g>
</g>
<!-- Node2 -->
<g id="Node000002" class="node">
<title>Node2</title>
<g id="a_Node000002"><a xlink:href="../../dc/d8a/classArcane_1_1CartesianMeshNumberingMng.html#ad9651a37b35ffce91c0d94f0d056fe25" target="_top" xlink:title="Méthode permettant de récupérer les uniqueIds des faces d&#39;une maille à partir de son uniqueId.">
<polygon fill="white" stroke="#666666" points="621,-318 438,-318 438,-288 621,-288 621,-318"/>
<text text-anchor="start" x="446" y="-306" font-family="Helvetica,sans-Serif" font-size="10.00">Arcane::CartesianMeshNumbering</text>
<text text-anchor="middle" x="529.5" y="-295" font-family="Helvetica,sans-Serif" font-size="10.00">Mng::cellFaceUniqueIds</text>
</a>
</g>
</g>
<!-- Node1&#45;&gt;Node2 -->
<g id="edge1_Node000001_Node000002" class="edge">
<title>Node1&#45;&gt;Node2</title>
<g id="a_edge1_Node000001_Node000002"><a xlink:title=" ">
<path fill="none" stroke="#63b8ff" d="M724.16,-205.24C700.11,-227.02 660.62,-259.66 621,-279 613.99,-282.42 606.42,-285.41 598.76,-287.99"/>
<polygon fill="#63b8ff" stroke="#63b8ff" points="726.71,-207.65 731.71,-198.31 721.98,-202.5 726.71,-207.65"/>
</a>
</g>
</g>
<!-- Node3 -->
<g id="Node000003" class="node">
<title>Node3</title>
<g id="a_Node000003"><a xlink:href="../../dc/d8a/classArcane_1_1CartesianMeshNumberingMng.html#a298b6e02b7390707e6089eb5a146c5c6" target="_top" xlink:title="Méthode permettant de récupérer les uniqueIds des noeuds d&#39;une maille à partir de son uniqueId.">
<polygon fill="white" stroke="#666666" points="621,-270 438,-270 438,-240 621,-240 621,-270"/>
<text text-anchor="start" x="446" y="-258" font-family="Helvetica,sans-Serif" font-size="10.00">Arcane::CartesianMeshNumbering</text>
<text text-anchor="middle" x="529.5" y="-247" font-family="Helvetica,sans-Serif" font-size="10.00">Mng::cellNodeUniqueIds</text>
</a>
</g>
</g>
<!-- Node1&#45;&gt;Node3 -->
<g id="edge2_Node000001_Node000003" class="edge">
<title>Node1&#45;&gt;Node3</title>
<g id="a_edge2_Node000001_Node000003"><a xlink:title=" ">
<path fill="none" stroke="#63b8ff" d="M701.29,-201.85C677.51,-211.21 647.93,-222.35 621,-231 611.25,-234.13 600.82,-237.18 590.63,-239.99"/>
<polygon fill="#63b8ff" stroke="#63b8ff" points="702.77,-205.03 710.77,-198.09 700.18,-198.52 702.77,-205.03"/>
</a>
</g>
</g>
<!-- Node4 -->
<g id="Node000004" class="node">
<title>Node4</title>
<g id="a_Node000004"><a xlink:href="../../dc/d8a/classArcane_1_1CartesianMeshNumberingMng.html#a6383c64e17315b2720e7cfac16c5a0c8" target="_top" xlink:title="Méthode permettant de récupérer les uniqueIds des mailles autour de la maille passée en paramètre.">
<polygon fill="white" stroke="#666666" points="621,-222 438,-222 438,-192 621,-192 621,-222"/>
<text text-anchor="start" x="446" y="-210" font-family="Helvetica,sans-Serif" font-size="10.00">Arcane::CartesianMeshNumbering</text>
<text text-anchor="middle" x="529.5" y="-199" font-family="Helvetica,sans-Serif" font-size="10.00">Mng::cellUniqueIdsAroundCell</text>
</a>
</g>
</g>
<!-- Node1&#45;&gt;Node4 -->
<g id="edge3_Node000001_Node000004" class="edge">
<title>Node1&#45;&gt;Node4</title>
<g id="a_edge3_Node000001_Node000004"><a xlink:title=" ">
<path fill="none" stroke="#63b8ff" d="M646.78,-194.14C638.26,-195.08 629.69,-196.03 621.26,-196.96"/>
<polygon fill="#63b8ff" stroke="#63b8ff" points="647.18,-197.62 656.73,-193.04 646.41,-190.66 647.18,-197.62"/>
</a>
</g>
</g>
<!-- Node6 -->
<g id="Node000006" class="node">
<title>Node6</title>
<g id="a_Node000006"><a xlink:href="../../dc/d8a/classArcane_1_1CartesianMeshNumberingMng.html#af599041229261572f7fcecc39cf6cd01" target="_top" xlink:title="Méthode permettant de récupérer la coordonnée en Z d&#39;une maille.">
<polygon fill="white" stroke="#666666" points="621,-174 438,-174 438,-144 621,-144 621,-174"/>
<text text-anchor="start" x="446" y="-162" font-family="Helvetica,sans-Serif" font-size="10.00">Arcane::CartesianMeshNumbering</text>
<text text-anchor="middle" x="529.5" y="-151" font-family="Helvetica,sans-Serif" font-size="10.00">Mng::cellUniqueIdToCoordZ</text>
</a>
</g>
</g>
<!-- Node1&#45;&gt;Node6 -->
<g id="edge5_Node000001_Node000006" class="edge">
<title>Node1&#45;&gt;Node6</title>
<g id="a_edge5_Node000001_Node000006"><a xlink:title=" ">
<path fill="none" stroke="#63b8ff" d="M646.78,-171.86C638.26,-170.92 629.69,-169.97 621.26,-169.04"/>
<polygon fill="#63b8ff" stroke="#63b8ff" points="646.41,-175.34 656.73,-172.96 647.18,-168.38 646.41,-175.34"/>
</a>
</g>
</g>
<!-- Node7 -->
<g id="Node000007" class="node">
<title>Node7</title>
<g id="a_Node000007"><a xlink:href="../../dc/d8a/classArcane_1_1CartesianMeshNumberingMng.html#ab4134d4fc68639d5c4acc643fbff70b4" target="_top" xlink:title="Méthode permettant de récupérer l&#39;uniqueId d&#39;une maille enfant d&#39;une maille parent à partir de la pos...">
<polygon fill="white" stroke="#666666" points="621,-126 438,-126 438,-96 621,-96 621,-126"/>
<text text-anchor="start" x="446" y="-114" font-family="Helvetica,sans-Serif" font-size="10.00">Arcane::CartesianMeshNumbering</text>
<text text-anchor="middle" x="529.5" y="-103" font-family="Helvetica,sans-Serif" font-size="10.00">Mng::childCellUniqueIdOfCell</text>
</a>
</g>
</g>
<!-- Node1&#45;&gt;Node7 -->
<g id="edge6_Node000001_Node000007" class="edge">
<title>Node1&#45;&gt;Node7</title>
<g id="a_edge6_Node000001_Node000007"><a xlink:title=" ">
<path fill="none" stroke="#63b8ff" d="M701.29,-164.15C677.51,-154.79 647.93,-143.65 621,-135 611.25,-131.87 600.82,-128.82 590.63,-126.01"/>
<polygon fill="#63b8ff" stroke="#63b8ff" points="700.18,-167.48 710.77,-167.91 702.77,-160.97 700.18,-167.48"/>
</a>
</g>
</g>
<!-- Node13 -->
<g id="Node000013" class="node">
<title>Node13</title>
<g id="a_Node000013"><a xlink:href="../../dc/d8a/classArcane_1_1CartesianMeshNumberingMng.html#a0c9f111c28e5a89ce6a35055aa06c9cf" target="_top" xlink:title="Méthode permettant de récupérer l&#39;uniqueId du parent d&#39;une maille.">
<polygon fill="white" stroke="#666666" points="621,-54 438,-54 438,-24 621,-24 621,-54"/>
<text text-anchor="start" x="446" y="-42" font-family="Helvetica,sans-Serif" font-size="10.00">Arcane::CartesianMeshNumbering</text>
<text text-anchor="middle" x="529.5" y="-31" font-family="Helvetica,sans-Serif" font-size="10.00">Mng::parentCellUniqueIdOfCell</text>
</a>
</g>
</g>
<!-- Node1&#45;&gt;Node13 -->
<g id="edge12_Node000001_Node000013" class="edge">
<title>Node1&#45;&gt;Node13</title>
<g id="a_edge12_Node000001_Node000013"><a xlink:title=" ">
<path fill="none" stroke="#63b8ff" d="M721.42,-161.23C696.46,-140.86 657.32,-110.2 621,-87 601.96,-74.84 579.54,-62.93 561.78,-54.02"/>
<polygon fill="#63b8ff" stroke="#63b8ff" points="719.37,-164.07 729.32,-167.71 723.81,-158.66 719.37,-164.07"/>
</a>
</g>
</g>
<!-- Node5 -->
<g id="Node000005" class="node">
<title>Node5</title>
<g id="a_Node000005"><a xlink:href="../../dc/d8a/classArcane_1_1CartesianMeshNumberingMng.html#a4592287c66d8911f52ace403cd9e5f0f" target="_top" xlink:title="Méthode permettant de récupérer les uniqueIds des mailles autour de la maille passée en paramètre.">
<polygon fill="white" stroke="#666666" points="402,-222 219,-222 219,-192 402,-192 402,-222"/>
<text text-anchor="start" x="227" y="-210" font-family="Helvetica,sans-Serif" font-size="10.00">Arcane::CartesianMeshNumbering</text>
<text text-anchor="middle" x="310.5" y="-199" font-family="Helvetica,sans-Serif" font-size="10.00">Mng::cellUniqueIdsAroundCell</text>
</a>
</g>
</g>
<!-- Node4&#45;&gt;Node5 -->
<g id="edge4_Node000004_Node000005" class="edge">
<title>Node4&#45;&gt;Node5</title>
<g id="a_edge4_Node000004_Node000005"><a xlink:title=" ">
<path fill="none" stroke="#63b8ff" d="M427.5,-207C419.08,-207 410.59,-207 402.26,-207"/>
<polygon fill="#63b8ff" stroke="#63b8ff" points="427.73,-210.5 437.73,-207 427.73,-203.5 427.73,-210.5"/>
</a>
</g>
</g>
<!-- Node8 -->
<g id="Node000008" class="node">
<title>Node8</title>
<g id="a_Node000008"><a xlink:href="../../dc/d8a/classArcane_1_1CartesianMeshNumberingMng.html#ad2fbd36cc059c82a32f18798ab8ace6b" target="_top" xlink:title="Méthode permettant de récupérer une maille enfant d&#39;une maille parent à partir de la position de la m...">
<polygon fill="white" stroke="#666666" points="402,-174 219,-174 219,-144 402,-144 402,-174"/>
<text text-anchor="start" x="227" y="-162" font-family="Helvetica,sans-Serif" font-size="10.00">Arcane::CartesianMeshNumbering</text>
<text text-anchor="middle" x="310.5" y="-151" font-family="Helvetica,sans-Serif" font-size="10.00">Mng::childCellOfCell</text>
</a>
</g>
</g>
<!-- Node7&#45;&gt;Node8 -->
<g id="edge7_Node000007_Node000008" class="edge">
<title>Node7&#45;&gt;Node8</title>
<g id="a_edge7_Node000007_Node000008"><a xlink:title=" ">
<path fill="none" stroke="#63b8ff" d="M450.59,-128.23C427.28,-133.39 401.93,-139 379.32,-144"/>
<polygon fill="#63b8ff" stroke="#63b8ff" points="451.43,-131.63 460.44,-126.06 449.92,-124.8 451.43,-131.63"/>
</a>
</g>
</g>
<!-- Node9 -->
<g id="Node000009" class="node">
<title>Node9</title>
<g id="a_Node000009"><a xlink:href="../../dc/d8a/classArcane_1_1CartesianMeshNumberingMng.html#aaba52eb4f58d87d0fd40c8bbdb93d842" target="_top" xlink:title="Méthode permettant de récupérer une maille enfant d&#39;une maille parent à partir de la position de la m...">
<polygon fill="white" stroke="#666666" points="402,-126 219,-126 219,-96 402,-96 402,-126"/>
<text text-anchor="start" x="227" y="-114" font-family="Helvetica,sans-Serif" font-size="10.00">Arcane::CartesianMeshNumbering</text>
<text text-anchor="middle" x="310.5" y="-103" font-family="Helvetica,sans-Serif" font-size="10.00">Mng::childCellOfCell</text>
</a>
</g>
</g>
<!-- Node7&#45;&gt;Node9 -->
<g id="edge8_Node000007_Node000009" class="edge">
<title>Node7&#45;&gt;Node9</title>
<g id="a_edge8_Node000007_Node000009"><a xlink:title=" ">
<path fill="none" stroke="#63b8ff" d="M427.5,-111C419.08,-111 410.59,-111 402.26,-111"/>
<polygon fill="#63b8ff" stroke="#63b8ff" points="427.73,-114.5 437.73,-111 427.73,-107.5 427.73,-114.5"/>
</a>
</g>
</g>
<!-- Node12 -->
<g id="Node000012" class="node">
<title>Node12</title>
<g id="a_Node000012"><a xlink:href="../../dc/d8a/classArcane_1_1CartesianMeshNumberingMng.html#ab8d8c12ab940a609c8ad4a5485043481" target="_top" xlink:title="Méthode permettant de récupérer l&#39;uniqueId d&#39;une maille enfant d&#39;une maille parent à partir de l&#39;inde...">
<polygon fill="white" stroke="#666666" points="402,-78 219,-78 219,-48 402,-48 402,-78"/>
<text text-anchor="start" x="227" y="-66" font-family="Helvetica,sans-Serif" font-size="10.00">Arcane::CartesianMeshNumbering</text>
<text text-anchor="middle" x="310.5" y="-55" font-family="Helvetica,sans-Serif" font-size="10.00">Mng::childCellUniqueIdOfCell</text>
</a>
</g>
</g>
<!-- Node7&#45;&gt;Node12 -->
<g id="edge11_Node000007_Node000012" class="edge">
<title>Node7&#45;&gt;Node12</title>
<g id="a_edge11_Node000007_Node000012"><a xlink:title=" ">
<path fill="none" stroke="#63b8ff" d="M450.59,-93.77C427.28,-88.61 401.93,-83 379.32,-78"/>
<polygon fill="#63b8ff" stroke="#63b8ff" points="449.92,-97.2 460.44,-95.94 451.43,-90.37 449.92,-97.2"/>
</a>
</g>
</g>
<!-- Node10 -->
<g id="Node000010" class="node">
<title>Node10</title>
<g id="a_Node000010"><a xlink:href="../../dc/d8a/classArcane_1_1CartesianMeshNumberingMng.html#ab1d61c0fdbe702f4c4345dac8b9eea2e" target="_top" xlink:title="Méthode permettant de définir les coordonnées spatiales des noeuds des mailles enfants d&#39;une maille p...">
<polygon fill="white" stroke="#666666" points="183,-150 0,-150 0,-120 183,-120 183,-150"/>
<text text-anchor="start" x="8" y="-138" font-family="Helvetica,sans-Serif" font-size="10.00">Arcane::CartesianMeshNumbering</text>
<text text-anchor="middle" x="91.5" y="-127" font-family="Helvetica,sans-Serif" font-size="10.00">Mng::setChildNodeCoordinates</text>
</a>
</g>
</g>
<!-- Node9&#45;&gt;Node10 -->
<g id="edge9_Node000009_Node000010" class="edge">
<title>Node9&#45;&gt;Node10</title>
<g id="a_edge9_Node000009_Node000010"><a xlink:title=" ">
<path fill="none" stroke="#63b8ff" d="M208.78,-122.14C200.26,-123.08 191.69,-124.03 183.26,-124.96"/>
<polygon fill="#63b8ff" stroke="#63b8ff" points="209.18,-125.62 218.73,-121.04 208.41,-118.66 209.18,-125.62"/>
</a>
</g>
</g>
<!-- Node11 -->
<g id="Node000011" class="node">
<title>Node11</title>
<g id="a_Node000011"><a xlink:href="../../dc/d8a/classArcane_1_1CartesianMeshNumberingMng.html#aeac0e553f686e273904608907ac4fd49" target="_top" xlink:title="Méthode permettant de définir les coordonnées spatiales des noeuds d&#39;une maille parent....">
<polygon fill="white" stroke="#666666" points="183,-102 0,-102 0,-72 183,-72 183,-102"/>
<text text-anchor="start" x="8" y="-90" font-family="Helvetica,sans-Serif" font-size="10.00">Arcane::CartesianMeshNumbering</text>
<text text-anchor="middle" x="91.5" y="-79" font-family="Helvetica,sans-Serif" font-size="10.00">Mng::setParentNodeCoordinates</text>
</a>
</g>
</g>
<!-- Node9&#45;&gt;Node11 -->
<g id="edge10_Node000009_Node000011" class="edge">
<title>Node9&#45;&gt;Node11</title>
<g id="a_edge10_Node000009_Node000011"><a xlink:title=" ">
<path fill="none" stroke="#63b8ff" d="M208.78,-99.86C200.26,-98.92 191.69,-97.97 183.26,-97.04"/>
<polygon fill="#63b8ff" stroke="#63b8ff" points="208.41,-103.34 218.73,-100.96 209.18,-96.38 208.41,-103.34"/>
</a>
</g>
</g>
<!-- Node14 -->
<g id="Node000014" class="node">
<title>Node14</title>
<g id="a_Node000014"><a xlink:href="../../dc/d8a/classArcane_1_1CartesianMeshNumberingMng.html#ace657df892a02bbe6957a89e8c8401d5" target="_top" xlink:title="Méthode permettant de récupérer l&#39;uniqueId du parent d&#39;une maille.">
<polygon fill="white" stroke="#666666" points="402,-30 219,-30 219,0 402,0 402,-30"/>
<text text-anchor="start" x="227" y="-18" font-family="Helvetica,sans-Serif" font-size="10.00">Arcane::CartesianMeshNumbering</text>
<text text-anchor="middle" x="310.5" y="-7" font-family="Helvetica,sans-Serif" font-size="10.00">Mng::parentCellUniqueIdOfCell</text>
</a>
</g>
</g>
<!-- Node13&#45;&gt;Node14 -->
<g id="edge13_Node000013_Node000014" class="edge">
<title>Node13&#45;&gt;Node14</title>
<g id="a_edge13_Node000013_Node000014"><a xlink:title=" ">
<path fill="none" stroke="#63b8ff" d="M427.78,-27.86C419.26,-26.92 410.69,-25.97 402.26,-25.04"/>
<polygon fill="#63b8ff" stroke="#63b8ff" points="427.41,-31.34 437.73,-28.96 428.18,-24.38 427.41,-31.34"/>
</a>
</g>
</g>
</g>
</svg>

<g id="navigator" transform="translate(0 0)" fill="#404254">
  <rect fill="#f2f5e9" fill-opacity="0.5" stroke="#606060" stroke-width=".5" x="0" y="0" width="60" height="60"/>
  <use id="zoomplus" xlink:href="#zoomPlus" x="17" y="9" onmousedown="handleZoom(evt,'in')"/>
  <use id="zoomminus" xlink:href="#zoomMin" x="42" y="9" onmousedown="handleZoom(evt,'out')"/>
  <use id="reset" xlink:href="#resetDef" x="30" y="36" onmousedown="handleReset()"/>
   <use id="arrowup" xlink:href="#arrowUp" x="0" y="0" onmousedown="handlePan(0,-1)"/>
  <use id="arrowright" xlink:href="#arrowRight" x="0" y="0" onmousedown="handlePan(1,0)"/>
  <use id="arrowdown" xlink:href="#arrowDown" x="0" y="0" onmousedown="handlePan(0,1)"/>
  <use id="arrowleft" xlink:href="#arrowLeft" x="0" y="0" onmousedown="handlePan(-1,0)"/>
</g>
<svg viewBox="0 0 15 15" width="100%" height="30px" preserveAspectRatio="xMaxYMin meet">
 <g id="arrow_out" transform="scale(0.3 0.3)">
  <a xlink:href="classArcane_1_1CartesianMeshNumberingMng_aa40830398193e1def6ad43d0614ee09f_icgraph_org.svg" target="_base">
   <rect id="button" ry="5" rx="5" y="6" x="6" height="38" width="38"
        fill="#f2f5e9" fill-opacity="0.5" stroke="#606060" stroke-width="1.0"/>
   <path id="arrow"
     d="M 11.500037,31.436501 C 11.940474,20.09759 22.043105,11.32322 32.158766,21.979434 L 37.068811,17.246167 C 37.068811,17.246167 37.088388,32 37.088388,32 L 22.160133,31.978069 C 22.160133,31.978069 26.997745,27.140456 26.997745,27.140456 C 18.528582,18.264221 13.291696,25.230495 11.500037,31.436501 z"
     style="fill:#404040;"/>
  </a>
 </g>
</svg>

<style type='text/css'>
<![CDATA[
[data-mouse-over-selected='false'] { opacity: 0.7; }
[data-mouse-over-selected='true']  { opacity: 1.0; }
]]>
</style>
<script type="application/ecmascript"><![CDATA[
document.addEventListener('DOMContentLoaded', (event) => {
  highlightEdges();
  highlightAdjacentNodes();
});
]]></script>
</svg>
