<?xml version="1.0" encoding="UTF-8" standalone="no"?>
<!DOCTYPE svg PUBLIC "-//W3C//DTD SVG 1.1//EN"
 "http://www.w3.org/Graphics/SVG/1.1/DTD/svg11.dtd">
<!-- Generated by graphviz version 2.43.0 (0)
 -->
<!-- Title: Arcane::CartesianMeshNumberingMng::faceUniqueIdToCoordY Pages: 1 -->
<!--zoomable 306 -->

<svg id="main" version="1.1" xmlns="http://www.w3.org/2000/svg" xmlns:xlink="http://www.w3.org/1999/xlink" xml:space="preserve" onload="init(evt)">

<style type="text/css"><![CDATA[
.node, .edge {opacity: 0.7;}
.node.selected, .edge.selected {opacity: 1;}
.edge:hover path { stroke: red; }
.edge:hover polygon { stroke: red; fill: red; }
]]></style>

<defs>
  <circle id="rim" cx="0" cy="0" r="7"/>
  <circle id="rim2" cx="0" cy="0" r="3.5"/>
  <g id="zoomPlus">
    <use xlink:href="#rim" fill="#404040"><set attributeName="fill" to="#808080" begin="zoomplus.mouseover" end="zoomplus.mouseout"/></use>
    <path d="M-4,0h8M0,-4v8" fill="none" stroke="white" stroke-width="1.5" pointer-events="none"/>
  </g>
  <g id="zoomMin">
    <use xlink:href="#rim" fill="#404040"><set attributeName="fill" to="#808080" begin="zoomminus.mouseover" end="zoomminus.mouseout"/></use>
    <path d="M-4,0h8" fill="none" stroke="white" stroke-width="1.5" pointer-events="none"/>
  </g>
  <g id="arrowUp" transform="translate(30 24)">
    <use xlink:href="#rim"/>
    <path pointer-events="none" fill="none" stroke="white" stroke-width="1.5" d="M0,-3.0v7 M-2.5,-0.5L0,-3.0L2.5,-0.5"/>
  </g>
  <g id="arrowRight" transform="rotate(90) translate(36 -43)">
    <use xlink:href="#rim"/>
    <path pointer-events="none" fill="none" stroke="white" stroke-width="1.5" d="M0,-3.0v7 M-2.5,-0.5L0,-3.0L2.5,-0.5"/>
  </g>
  <g id="arrowDown" transform="rotate(180) translate(-30 -48)">
    <use xlink:href="#rim"/>
    <path pointer-events="none" fill="none" stroke="white" stroke-width="1.5" d="M0,-3.0v7 M-2.5,-0.5L0,-3.0L2.5,-0.5"/>
  </g>
  <g id="arrowLeft" transform="rotate(270) translate(-36 17)">
    <use xlink:href="#rim"/>
    <path pointer-events="none" fill="none" stroke="white" stroke-width="1.5" d="M0,-3.0v7 M-2.5,-0.5L0,-3.0L2.5,-0.5"/>
  </g>
  <g id="resetDef">
    <use xlink:href="#rim2" fill="#404040"><set attributeName="fill" to="#808080" begin="reset.mouseover" end="reset.mouseout"/></use>
  </g>
</defs>
<script type="application/ecmascript">
var viewWidth = 637;
var viewHeight = 306;
var sectionId = 'dynsection-50';
</script>
<script type="application/ecmascript" xlink:href="../../svg.min.js"/>
<svg id="graph" class="graph">
<g id="viewport">
<title>Arcane::CartesianMeshNumberingMng::faceUniqueIdToCoordY</title>
<!-- Node1 -->
<g id="Node000001" class="node">
<title>Node1</title>
<g id="a_Node000001"><a xlink:title="Méthode permettant de récupérer la coordonnée en Y d&#39;une face grâce à son uniqueId.">
<polygon fill="#999999" stroke="#666666" points="183,-164 0,-164 0,-134 183,-134 183,-164"/>
<text text-anchor="start" x="8" y="-152" font-family="Helvetica,sans-Serif" font-size="10.00">Arcane::CartesianMeshNumbering</text>
<text text-anchor="middle" x="91.5" y="-141" font-family="Helvetica,sans-Serif" font-size="10.00">Mng::faceUniqueIdToCoordY</text>
</a>
</g>
</g>
<!-- Node2 -->
<g id="Node000002" class="node">
<title>Node2</title>
<g id="a_Node000002"><a xlink:href="../../dc/d8a/classArcane_1_1CartesianMeshNumberingMng.html#a8d9c5859e0e527be9ffeed9f01add21d" target="_top" xlink:title="Méthode permettant de récupérer le nombre de faces des trois parties de la numérotation.">
<polygon fill="white" stroke="#666666" points="406.5,-212 222.5,-212 222.5,-182 406.5,-182 406.5,-212"/>
<text text-anchor="start" x="230.5" y="-200" font-family="Helvetica,sans-Serif" font-size="10.00">Arcane::CartesianMeshNumbering</text>
<text text-anchor="middle" x="314.5" y="-189" font-family="Helvetica,sans-Serif" font-size="10.00">Mng::face3DNumberingThreeParts</text>
</a>
</g>
</g>
<!-- Node1&#45;&gt;Node2 -->
<g id="edge1_Node000001_Node000002" class="edge">
<title>Node1&#45;&gt;Node2</title>
<g id="a_edge1_Node000001_Node000002"><a xlink:title=" ">
<path fill="none" stroke="#63b8ff" d="M161.82,-164.06C184.86,-169.06 210.68,-174.67 234.4,-179.82"/>
<polygon fill="#63b8ff" stroke="#63b8ff" points="233.91,-183.3 244.43,-182 235.4,-176.45 233.91,-183.3"/>
</a>
</g>
</g>
<!-- Node3 -->
<g id="Node000003" class="node">
<title>Node3</title>
<g id="a_Node000003"><a xlink:href="../../dc/d8a/classArcane_1_1CartesianMeshNumberingMng.html#a5c397cc0a46c2d89a93354808307788d" target="_top" xlink:title="Méthode permettant de récupérer le nombre de mailles global en X d&#39;un niveau.">
<polygon fill="white" stroke="#666666" points="629,-99 446,-99 446,-69 629,-69 629,-99"/>
<text text-anchor="start" x="454" y="-87" font-family="Helvetica,sans-Serif" font-size="10.00">Arcane::CartesianMeshNumbering</text>
<text text-anchor="middle" x="537.5" y="-76" font-family="Helvetica,sans-Serif" font-size="10.00">Mng::globalNbCellsX</text>
</a>
</g>
</g>
<!-- Node1&#45;&gt;Node3 -->
<g id="edge6_Node000001_Node000003" class="edge">
<title>Node1&#45;&gt;Node3</title>
<g id="a_edge6_Node000001_Node000003"><a xlink:title=" ">
<path fill="none" stroke="#63b8ff" d="M167.62,-133.99C184.49,-130.83 202.33,-127.65 219,-125 291.27,-113.49 373.19,-102.97 435.71,-95.47"/>
<polygon fill="#63b8ff" stroke="#63b8ff" points="436.46,-98.91 445.97,-94.25 435.63,-91.96 436.46,-98.91"/>
</a>
</g>
</g>
<!-- Node4 -->
<g id="Node000004" class="node">
<title>Node4</title>
<g id="a_Node000004"><a xlink:href="../../dc/d8a/classArcane_1_1CartesianMeshNumberingMng.html#ad339c3642a3dd83117ff050f2b1b1ce1" target="_top" xlink:title="Méthode permettant de récupérer le nombre de mailles global en Y d&#39;un niveau.">
<polygon fill="white" stroke="#666666" points="629,-257 446,-257 446,-227 629,-227 629,-257"/>
<text text-anchor="start" x="454" y="-245" font-family="Helvetica,sans-Serif" font-size="10.00">Arcane::CartesianMeshNumbering</text>
<text text-anchor="middle" x="537.5" y="-234" font-family="Helvetica,sans-Serif" font-size="10.00">Mng::globalNbCellsY</text>
</a>
</g>
</g>
<!-- Node1&#45;&gt;Node4 -->
<g id="edge7_Node000001_Node000004" class="edge">
<title>Node1&#45;&gt;Node4</title>
<g id="a_edge7_Node000001_Node000004"><a xlink:title=" ">
<path fill="none" stroke="#63b8ff" d="M112.23,-164.04C136.07,-181.27 178.1,-208.72 219,-221 289.43,-242.15 372.48,-246.98 435.96,-246.75"/>
<polygon fill="#63b8ff" stroke="#63b8ff" points="436.01,-250.25 445.98,-246.67 435.95,-243.25 436.01,-250.25"/>
</a>
</g>
</g>
<!-- Node6 -->
<g id="Node000006" class="node">
<title>Node6</title>
<g id="a_Node000006"><a xlink:href="../../dc/d8a/classArcane_1_1CartesianMeshNumberingMng.html#a421660066b6ec9d02d1c2e72fe7698d3" target="_top" xlink:title="Méthode permettant de récupérer le premier unique id utilisé par les faces d&#39;un niveau....">
<polygon fill="white" stroke="#666666" points="406,-164 223,-164 223,-134 406,-134 406,-164"/>
<text text-anchor="start" x="231" y="-152" font-family="Helvetica,sans-Serif" font-size="10.00">Arcane::CartesianMeshNumbering</text>
<text text-anchor="middle" x="314.5" y="-141" font-family="Helvetica,sans-Serif" font-size="10.00">Mng::firstFaceUniqueId</text>
</a>
</g>
</g>
<!-- Node1&#45;&gt;Node6 -->
<g id="edge5_Node000001_Node000006" class="edge">
<title>Node1&#45;&gt;Node6</title>
<g id="a_edge5_Node000001_Node000006"><a xlink:title=" ">
<path fill="none" stroke="#63b8ff" d="M183.03,-149C192.76,-149 202.7,-149 212.55,-149"/>
<polygon fill="#63b8ff" stroke="#63b8ff" points="212.76,-152.5 222.76,-149 212.76,-145.5 212.76,-152.5"/>
</a>
</g>
</g>
<!-- Node7 -->
<g id="Node000007" class="node">
<title>Node7</title>
<g id="a_Node000007"><a xlink:href="../../dc/d8a/classArcane_1_1CartesianMeshNumberingMng.html#a7265842b7b6b4bfdfc29923a4f877ad8" target="_top" xlink:title="Méthode permettant de récupérer le nombre de faces global en X d&#39;un niveau.">
<polygon fill="white" stroke="#666666" points="406,-30 223,-30 223,0 406,0 406,-30"/>
<text text-anchor="start" x="231" y="-18" font-family="Helvetica,sans-Serif" font-size="10.00">Arcane::CartesianMeshNumbering</text>
<text text-anchor="middle" x="314.5" y="-7" font-family="Helvetica,sans-Serif" font-size="10.00">Mng::globalNbFacesX</text>
</a>
</g>
</g>
<!-- Node1&#45;&gt;Node7 -->
<g id="edge8_Node000001_Node000007" class="edge">
<title>Node1&#45;&gt;Node7</title>
<g id="a_edge8_Node000001_Node000007"><a xlink:title=" ">
<path fill="none" stroke="#63b8ff" d="M105.63,-133.68C126.96,-109.8 171.56,-63.83 219,-39 222.71,-37.06 226.59,-35.27 230.57,-33.61"/>
<polygon fill="#63b8ff" stroke="#63b8ff" points="231.9,-36.85 239.99,-30.01 229.4,-30.31 231.9,-36.85"/>
</a>
</g>
</g>
<!-- Node8 -->
<g id="Node000008" class="node">
<title>Node8</title>
<g id="a_Node000008"><a xlink:href="../../dc/d8a/classArcane_1_1CartesianMeshNumberingMng.html#aee6ec49a524341112f1895477a83b3ca" target="_top" xlink:title="Méthode permettant de récupérer la taille de la vue &quot;grille cartésienne&quot; contenant les noeuds.">
<polygon fill="white" stroke="#666666" points="410,-78 219,-78 219,-48 410,-48 410,-78"/>
<text text-anchor="start" x="227" y="-66" font-family="Helvetica,sans-Serif" font-size="10.00">Arcane::CartesianMeshNumbering</text>
<text text-anchor="middle" x="314.5" y="-55" font-family="Helvetica,sans-Serif" font-size="10.00">Mng::globalNbFacesXCartesianView</text>
</a>
</g>
</g>
<!-- Node1&#45;&gt;Node8 -->
<g id="edge10_Node000001_Node000008" class="edge">
<title>Node1&#45;&gt;Node8</title>
<g id="a_edge10_Node000001_Node000008"><a xlink:title=" ">
<path fill="none" stroke="#63b8ff" d="M122.98,-133.96C148.32,-121.78 185.53,-104.62 219,-92 229.08,-88.2 239.9,-84.52 250.49,-81.13"/>
<polygon fill="#63b8ff" stroke="#63b8ff" points="251.63,-84.44 260.13,-78.1 249.54,-77.76 251.63,-84.44"/>
</a>
</g>
</g>
<!-- Node9 -->
<g id="Node000009" class="node">
<title>Node9</title>
<g id="a_Node000009"><a xlink:href="../../dc/d8a/classArcane_1_1CartesianMeshNumberingMng.html#abc0e29732573616177eea06186ca1263" target="_top" xlink:title="Méthode permettant de récupérer le nombre de faces global en Y d&#39;un niveau.">
<polygon fill="white" stroke="#666666" points="406,-298 223,-298 223,-268 406,-268 406,-298"/>
<text text-anchor="start" x="231" y="-286" font-family="Helvetica,sans-Serif" font-size="10.00">Arcane::CartesianMeshNumbering</text>
<text text-anchor="middle" x="314.5" y="-275" font-family="Helvetica,sans-Serif" font-size="10.00">Mng::globalNbFacesY</text>
</a>
</g>
</g>
<!-- Node1&#45;&gt;Node9 -->
<g id="edge12_Node000001_Node000009" class="edge">
<title>Node1&#45;&gt;Node9</title>
<g id="a_edge12_Node000001_Node000009"><a xlink:title=" ">
<path fill="none" stroke="#63b8ff" d="M106.64,-164.06C128.64,-186.66 173.3,-229.31 219,-254 226.27,-257.93 234.15,-261.4 242.15,-264.46"/>
<polygon fill="#63b8ff" stroke="#63b8ff" points="240.98,-267.76 251.57,-267.86 243.35,-261.17 240.98,-267.76"/>
</a>
</g>
</g>
<!-- Node2&#45;&gt;Node3 -->
<g id="edge2_Node000002_Node000003" class="edge">
<title>Node2&#45;&gt;Node3</title>
<g id="a_edge2_Node000002_Node000003"><a xlink:title=" ">
<path fill="none" stroke="#63b8ff" d="M386.66,-181.94C394.68,-179.36 402.62,-176.39 410,-173 448.36,-155.37 487.32,-125.82 511.67,-105.65"/>
<polygon fill="#63b8ff" stroke="#63b8ff" points="513.94,-108.31 519.34,-99.2 509.44,-102.95 513.94,-108.31"/>
</a>
</g>
</g>
<!-- Node2&#45;&gt;Node4 -->
<g id="edge3_Node000002_Node000004" class="edge">
<title>Node2&#45;&gt;Node4</title>
<g id="a_edge3_Node000002_Node000004"><a xlink:title=" ">
<path fill="none" stroke="#63b8ff" d="M389.4,-212.05C409.76,-216.19 432,-220.72 452.87,-224.97"/>
<polygon fill="#63b8ff" stroke="#63b8ff" points="452.18,-228.4 462.67,-226.97 453.57,-221.54 452.18,-228.4"/>
</a>
</g>
</g>
<!-- Node5 -->
<g id="Node000005" class="node">
<title>Node5</title>
<g id="a_Node000005"><a xlink:href="../../dc/d8a/classArcane_1_1CartesianMeshNumberingMng.html#a857020df1673970cc481eaa8623f3edb" target="_top" xlink:title="Méthode permettant de récupérer le nombre de mailles global en Z d&#39;un niveau.">
<polygon fill="white" stroke="#666666" points="629,-209 446,-209 446,-179 629,-179 629,-209"/>
<text text-anchor="start" x="454" y="-197" font-family="Helvetica,sans-Serif" font-size="10.00">Arcane::CartesianMeshNumbering</text>
<text text-anchor="middle" x="537.5" y="-186" font-family="Helvetica,sans-Serif" font-size="10.00">Mng::globalNbCellsZ</text>
</a>
</g>
</g>
<!-- Node2&#45;&gt;Node5 -->
<g id="edge4_Node000002_Node000005" class="edge">
<title>Node2&#45;&gt;Node5</title>
<g id="a_edge4_Node000002_Node000005"><a xlink:title=" ">
<path fill="none" stroke="#63b8ff" d="M406.67,-195.76C416.28,-195.63 426.1,-195.5 435.82,-195.37"/>
<polygon fill="#63b8ff" stroke="#63b8ff" points="435.95,-198.87 445.9,-195.23 435.85,-191.87 435.95,-198.87"/>
</a>
</g>
</g>
<!-- Node7&#45;&gt;Node3 -->
<g id="edge9_Node000007_Node000003" class="edge">
<title>Node7&#45;&gt;Node3</title>
<g id="a_edge9_Node000007_Node000003"><a xlink:title=" ">
<path fill="none" stroke="#63b8ff" d="M378.25,-30.06C388.89,-32.87 399.8,-35.9 410,-39 435.86,-46.86 464.24,-56.83 487.55,-65.39"/>
<polygon fill="#63b8ff" stroke="#63b8ff" points="486.62,-68.78 497.22,-68.96 489.05,-62.21 486.62,-68.78"/>
</a>
</g>
</g>
<!-- Node8&#45;&gt;Node3 -->
<g id="edge11_Node000008_Node000003" class="edge">
<title>Node8&#45;&gt;Node3</title>
<g id="a_edge11_Node000008_Node000003"><a xlink:title=" ">
<path fill="none" stroke="#63b8ff" d="M410.19,-72C418.69,-72.81 427.32,-73.63 435.88,-74.44"/>
<polygon fill="#63b8ff" stroke="#63b8ff" points="435.58,-77.93 445.87,-75.39 436.24,-70.96 435.58,-77.93"/>
</a>
</g>
</g>
<!-- Node9&#45;&gt;Node4 -->
<g id="edge13_Node000009_Node000004" class="edge">
<title>Node9&#45;&gt;Node4</title>
<g id="a_edge13_Node000009_Node000004"><a xlink:title=" ">
<path fill="none" stroke="#63b8ff" d="M396.54,-267.97C412.45,-265.01 429.25,-261.9 445.46,-258.89"/>
<polygon fill="#63b8ff" stroke="#63b8ff" points="446.28,-262.3 455.47,-257.03 445,-255.42 446.28,-262.3"/>
</a>
</g>
</g>
</g>
</svg>

<g id="navigator" transform="translate(0 0)" fill="#404254">
  <rect fill="#f2f5e9" fill-opacity="0.5" stroke="#606060" stroke-width=".5" x="0" y="0" width="60" height="60"/>
  <use id="zoomplus" xlink:href="#zoomPlus" x="17" y="9" onmousedown="handleZoom(evt,'in')"/>
  <use id="zoomminus" xlink:href="#zoomMin" x="42" y="9" onmousedown="handleZoom(evt,'out')"/>
  <use id="reset" xlink:href="#resetDef" x="30" y="36" onmousedown="handleReset()"/>
   <use id="arrowup" xlink:href="#arrowUp" x="0" y="0" onmousedown="handlePan(0,-1)"/>
  <use id="arrowright" xlink:href="#arrowRight" x="0" y="0" onmousedown="handlePan(1,0)"/>
  <use id="arrowdown" xlink:href="#arrowDown" x="0" y="0" onmousedown="handlePan(0,1)"/>
  <use id="arrowleft" xlink:href="#arrowLeft" x="0" y="0" onmousedown="handlePan(-1,0)"/>
</g>
<svg viewBox="0 0 15 15" width="100%" height="30px" preserveAspectRatio="xMaxYMin meet">
 <g id="arrow_out" transform="scale(0.3 0.3)">
  <a xlink:href="classArcane_1_1CartesianMeshNumberingMng_a32a84bc9ffe61edf1cd8e6f61ecedf84_cgraph_org.svg" target="_base">
   <rect id="button" ry="5" rx="5" y="6" x="6" height="38" width="38"
        fill="#f2f5e9" fill-opacity="0.5" stroke="#606060" stroke-width="1.0"/>
   <path id="arrow"
     d="M 11.500037,31.436501 C 11.940474,20.09759 22.043105,11.32322 32.158766,21.979434 L 37.068811,17.246167 C 37.068811,17.246167 37.088388,32 37.088388,32 L 22.160133,31.978069 C 22.160133,31.978069 26.997745,27.140456 26.997745,27.140456 C 18.528582,18.264221 13.291696,25.230495 11.500037,31.436501 z"
     style="fill:#404040;"/>
  </a>
 </g>
</svg>

<style type='text/css'>
<![CDATA[
[data-mouse-over-selected='false'] { opacity: 0.7; }
[data-mouse-over-selected='true']  { opacity: 1.0; }
]]>
</style>
<script type="application/ecmascript"><![CDATA[
document.addEventListener('DOMContentLoaded', (event) => {
  highlightEdges();
  highlightAdjacentNodes();
});
]]></script>
</svg>
