<?xml version="1.0" encoding="UTF-8" standalone="no"?>
<!DOCTYPE svg PUBLIC "-//W3C//DTD SVG 1.1//EN"
 "http://www.w3.org/Graphics/SVG/1.1/DTD/svg11.dtd">
<!-- Generated by graphviz version 2.43.0 (0)
 -->
<!-- Title: Arcane::ArcaneCurveWriter::writeCurve Pages: 1 -->
<svg width="674pt" height="364pt"
 viewBox="0.00 0.00 674.00 363.50" xmlns="http://www.w3.org/2000/svg" xmlns:xlink="http://www.w3.org/1999/xlink">
<g id="graph0" class="graph" transform="scale(1 1) rotate(0) translate(4 359.5)">
<title>Arcane::ArcaneCurveWriter::writeCurve</title>
<!-- Node1 -->
<g id="Node000001" class="node">
<title>Node1</title>
<g id="a_Node000001"><a xlink:title="Ecrit une courbe.">
<polygon fill="#999999" stroke="#666666" points="149,-198 0,-198 0,-168 149,-168 149,-198"/>
<text text-anchor="start" x="8" y="-186" font-family="Helvetica,sans-Serif" font-size="10.00">Arcane::ArcaneCurveWriter</text>
<text text-anchor="middle" x="74.5" y="-175" font-family="Helvetica,sans-Serif" font-size="10.00">::writeCurve</text>
</a>
</g>
</g>
<!-- Node2 -->
<g id="Node000002" class="node">
<title>Node2</title>
<g id="a_Node000002"><a xlink:href="../../db/dc4/classArcane_1_1String.html#a26940acb4223380bddb8180310f796a9" target="_top" xlink:title="Clone cette chaîne.">
<polygon fill="white" stroke="#666666" points="318,-355.5 201,-355.5 201,-336.5 318,-336.5 318,-355.5"/>
<text text-anchor="middle" x="259.5" y="-343.5" font-family="Helvetica,sans-Serif" font-size="10.00">Arcane::String::clone</text>
</a>
</g>
</g>
<!-- Node1&#45;&gt;Node2 -->
<g id="edge1_Node000001_Node000002" class="edge">
<title>Node1&#45;&gt;Node2</title>
<g id="a_edge1_Node000001_Node000002"><a xlink:title=" ">
<path fill="none" stroke="#63b8ff" d="M82.73,-198.31C97.54,-227.96 134.26,-293.26 185,-327 188.09,-329.05 191.39,-330.89 194.82,-332.52"/>
<polygon fill="#63b8ff" stroke="#63b8ff" points="193.54,-335.78 204.12,-336.4 196.24,-329.32 193.54,-335.78"/>
</a>
</g>
</g>
<!-- Node4 -->
<g id="Node000004" class="node">
<title>Node4</title>
<g id="a_Node000004"><a xlink:href="../../d0/d95/classArcane_1_1TimeHistoryCurveInfo.html#a0301c421ac13cc4645ea543dcc03cc8e" target="_top" xlink:title="Liste des itérations.">
<polygon fill="white" stroke="#666666" points="332,-318 187,-318 187,-288 332,-288 332,-318"/>
<text text-anchor="start" x="195" y="-306" font-family="Helvetica,sans-Serif" font-size="10.00">Arcane::TimeHistoryCurve</text>
<text text-anchor="middle" x="259.5" y="-295" font-family="Helvetica,sans-Serif" font-size="10.00">Info::iterations</text>
</a>
</g>
</g>
<!-- Node1&#45;&gt;Node4 -->
<g id="edge3_Node000001_Node000004" class="edge">
<title>Node1&#45;&gt;Node4</title>
<g id="a_edge3_Node000001_Node000004"><a xlink:title=" ">
<path fill="none" stroke="#63b8ff" d="M88.91,-198.1C108.23,-219.02 145.9,-256.73 185,-279 188.07,-280.75 191.28,-282.39 194.58,-283.93"/>
<polygon fill="#63b8ff" stroke="#63b8ff" points="193.46,-287.26 204.03,-288 196.23,-280.83 193.46,-287.26"/>
</a>
</g>
</g>
<!-- Node5 -->
<g id="Node000005" class="node">
<title>Node5</title>
<g id="a_Node000005"><a xlink:href="../../d9/d88/classArcane_1_1ArcaneCurveWriter.html#a34d59a43bd1be7b6c359761a96f7e441" target="_top" xlink:title="Nom de l&#39;écrivain.">
<polygon fill="white" stroke="#666666" points="334,-270 185,-270 185,-240 334,-240 334,-270"/>
<text text-anchor="start" x="193" y="-258" font-family="Helvetica,sans-Serif" font-size="10.00">Arcane::ArcaneCurveWriter</text>
<text text-anchor="middle" x="259.5" y="-247" font-family="Helvetica,sans-Serif" font-size="10.00">::name</text>
</a>
</g>
</g>
<!-- Node1&#45;&gt;Node5 -->
<g id="edge4_Node000001_Node000005" class="edge">
<title>Node1&#45;&gt;Node5</title>
<g id="a_edge4_Node000001_Node000005"><a xlink:title=" ">
<path fill="none" stroke="#63b8ff" d="M107.74,-198.12C129.37,-208.02 158.62,-220.94 185,-231 190.02,-232.91 195.26,-234.81 200.54,-236.66"/>
<polygon fill="#63b8ff" stroke="#63b8ff" points="199.44,-239.98 210.03,-239.92 201.71,-233.36 199.44,-239.98"/>
</a>
</g>
</g>
<!-- Node6 -->
<g id="Node000006" class="node">
<title>Node6</title>
<g id="a_Node000006"><a xlink:href="../../d0/d95/classArcane_1_1TimeHistoryCurveInfo.html#a43142a58ad7c840aa3f4bf32530fc3e8" target="_top" xlink:title="Nom de la courbe.">
<polygon fill="white" stroke="#666666" points="332,-222 187,-222 187,-192 332,-192 332,-222"/>
<text text-anchor="start" x="195" y="-210" font-family="Helvetica,sans-Serif" font-size="10.00">Arcane::TimeHistoryCurve</text>
<text text-anchor="middle" x="259.5" y="-199" font-family="Helvetica,sans-Serif" font-size="10.00">Info::name</text>
</a>
</g>
</g>
<!-- Node1&#45;&gt;Node6 -->
<g id="edge5_Node000001_Node000006" class="edge">
<title>Node1&#45;&gt;Node6</title>
<g id="a_edge5_Node000001_Node000006"><a xlink:title=" ">
<path fill="none" stroke="#63b8ff" d="M149.14,-192.66C158.26,-193.85 167.62,-195.08 176.85,-196.29"/>
<polygon fill="#63b8ff" stroke="#63b8ff" points="176.42,-199.77 186.79,-197.6 177.33,-192.83 176.42,-199.77"/>
</a>
</g>
</g>
<!-- Node7 -->
<g id="Node000007" class="node">
<title>Node7</title>
<g id="a_Node000007"><a xlink:href="../../d9/dcc/classArcane_1_1XmlNode.html#ac7919602cb8e3ad4df135cf3b5f69254" target="_top" xlink:title="Positionne l&#39;attribut name à la valeur value.">
<polygon fill="white" stroke="#666666" points="329.5,-174 189.5,-174 189.5,-144 329.5,-144 329.5,-174"/>
<text text-anchor="start" x="197.5" y="-162" font-family="Helvetica,sans-Serif" font-size="10.00">Arcane::XmlNode::setAttr</text>
<text text-anchor="middle" x="259.5" y="-151" font-family="Helvetica,sans-Serif" font-size="10.00">Value</text>
</a>
</g>
</g>
<!-- Node1&#45;&gt;Node7 -->
<g id="edge6_Node000001_Node000007" class="edge">
<title>Node1&#45;&gt;Node7</title>
<g id="a_edge6_Node000001_Node000007"><a xlink:title=" ">
<path fill="none" stroke="#63b8ff" d="M149.14,-173.34C159.12,-172.03 169.4,-170.69 179.47,-169.36"/>
<polygon fill="#63b8ff" stroke="#63b8ff" points="180,-172.83 189.46,-168.06 179.08,-165.89 180,-172.83"/>
</a>
</g>
</g>
<!-- Node11 -->
<g id="Node000011" class="node">
<title>Node11</title>
<g id="a_Node000011"><a xlink:href="../../d9/d2e/classArcane_1_1ConstArrayView.html#ac6a4f407a7ec0a0e0985113552fe2f54" target="_top" xlink:title="Nombre d&#39;éléments du tableau.">
<polygon fill="white" stroke="#666666" points="326.5,-126 192.5,-126 192.5,-96 326.5,-96 326.5,-126"/>
<text text-anchor="start" x="200.5" y="-114" font-family="Helvetica,sans-Serif" font-size="10.00">Arcane::ConstArrayView</text>
<text text-anchor="middle" x="259.5" y="-103" font-family="Helvetica,sans-Serif" font-size="10.00">::size</text>
</a>
</g>
</g>
<!-- Node1&#45;&gt;Node11 -->
<g id="edge10_Node000001_Node000011" class="edge">
<title>Node1&#45;&gt;Node11</title>
<g id="a_edge10_Node000001_Node000011"><a xlink:title=" ">
<path fill="none" stroke="#63b8ff" d="M107.74,-167.88C129.37,-157.98 158.62,-145.06 185,-135 190.02,-133.09 195.26,-131.19 200.54,-129.34"/>
<polygon fill="#63b8ff" stroke="#63b8ff" points="201.71,-132.64 210.03,-126.08 199.44,-126.02 201.71,-132.64"/>
</a>
</g>
</g>
<!-- Node12 -->
<g id="Node000012" class="node">
<title>Node12</title>
<g id="a_Node000012"><a xlink:href="../../d0/d95/classArcane_1_1TimeHistoryCurveInfo.html#abdfc14e1359aa7fc79c992cc3a68a750" target="_top" xlink:title="Nombre de valeur par temps.">
<polygon fill="white" stroke="#666666" points="332,-78 187,-78 187,-48 332,-48 332,-78"/>
<text text-anchor="start" x="195" y="-66" font-family="Helvetica,sans-Serif" font-size="10.00">Arcane::TimeHistoryCurve</text>
<text text-anchor="middle" x="259.5" y="-55" font-family="Helvetica,sans-Serif" font-size="10.00">Info::subSize</text>
</a>
</g>
</g>
<!-- Node1&#45;&gt;Node12 -->
<g id="edge11_Node000001_Node000012" class="edge">
<title>Node1&#45;&gt;Node12</title>
<g id="a_edge11_Node000001_Node000012"><a xlink:title=" ">
<path fill="none" stroke="#63b8ff" d="M88.91,-167.9C108.23,-146.98 145.9,-109.27 185,-87 188.07,-85.25 191.28,-83.61 194.58,-82.07"/>
<polygon fill="#63b8ff" stroke="#63b8ff" points="196.23,-85.17 204.03,-78 193.46,-78.74 196.23,-85.17"/>
</a>
</g>
</g>
<!-- Node13 -->
<g id="Node000013" class="node">
<title>Node13</title>
<g id="a_Node000013"><a xlink:href="../../d0/d95/classArcane_1_1TimeHistoryCurveInfo.html#a6d3ee3185d8f612281863b957e9ccb33" target="_top" xlink:title="Liste des valeurs de la courbe.">
<polygon fill="white" stroke="#666666" points="332,-30 187,-30 187,0 332,0 332,-30"/>
<text text-anchor="start" x="195" y="-18" font-family="Helvetica,sans-Serif" font-size="10.00">Arcane::TimeHistoryCurve</text>
<text text-anchor="middle" x="259.5" y="-7" font-family="Helvetica,sans-Serif" font-size="10.00">Info::values</text>
</a>
</g>
</g>
<!-- Node1&#45;&gt;Node13 -->
<g id="edge12_Node000001_Node000013" class="edge">
<title>Node1&#45;&gt;Node13</title>
<g id="a_edge12_Node000001_Node000013"><a xlink:title=" ">
<path fill="none" stroke="#63b8ff" d="M82.92,-167.97C98.06,-138.8 135.35,-74.31 185,-39 187.11,-37.5 189.31,-36.09 191.59,-34.77"/>
<polygon fill="#63b8ff" stroke="#63b8ff" points="193.4,-37.78 200.67,-30.07 190.18,-31.56 193.4,-37.78"/>
</a>
</g>
</g>
<!-- Node3 -->
<g id="Node000003" class="node">
<title>Node3</title>
<g id="a_Node000003"><a xlink:href="../../db/dc4/classArcane_1_1String.html#a75a6754b2e2646d71b85095bb3321c1d" target="_top" xlink:title="Crée une chaîne nulle.">
<polygon fill="white" stroke="#666666" points="497,-355.5 378,-355.5 378,-336.5 497,-336.5 497,-355.5"/>
<text text-anchor="middle" x="437.5" y="-343.5" font-family="Helvetica,sans-Serif" font-size="10.00">Arcane::String::String</text>
</a>
</g>
</g>
<!-- Node2&#45;&gt;Node3 -->
<g id="edge2_Node000002_Node000003" class="edge">
<title>Node2&#45;&gt;Node3</title>
<g id="a_edge2_Node000002_Node000003"><a xlink:title=" ">
<path fill="none" stroke="#63b8ff" d="M318.13,-346C333.99,-346 351.34,-346 367.76,-346"/>
<polygon fill="#63b8ff" stroke="#63b8ff" points="367.84,-349.5 377.84,-346 367.84,-342.5 367.84,-349.5"/>
</a>
</g>
</g>
<!-- Node8 -->
<g id="Node000008" class="node">
<title>Node8</title>
<g id="a_Node000008"><a xlink:href="../../d9/dcc/classArcane_1_1XmlNode.html#acf62d5042e539833c53b5739fa5e061e" target="_top" xlink:title="Nom du noeud.">
<polygon fill="white" stroke="#666666" points="505,-186.5 370,-186.5 370,-167.5 505,-167.5 505,-186.5"/>
<text text-anchor="middle" x="437.5" y="-174.5" font-family="Helvetica,sans-Serif" font-size="10.00">Arcane::XmlNode::name</text>
</a>
</g>
</g>
<!-- Node7&#45;&gt;Node8 -->
<g id="edge7_Node000007_Node000008" class="edge">
<title>Node7&#45;&gt;Node8</title>
<g id="a_edge7_Node000007_Node000008"><a xlink:title=" ">
<path fill="none" stroke="#63b8ff" d="M329.55,-166.06C339.52,-167.08 349.83,-168.14 359.93,-169.17"/>
<polygon fill="#63b8ff" stroke="#63b8ff" points="359.64,-172.66 369.95,-170.19 360.36,-165.69 359.64,-172.66"/>
</a>
</g>
</g>
<!-- Node9 -->
<g id="Node000009" class="node">
<title>Node9</title>
<g id="a_Node000009"><a xlink:href="../../d9/dcc/classArcane_1_1XmlNode.html#a8caccaab130a8ddb49c02096094be089" target="_top" xlink:title="Valeur du noeud.">
<polygon fill="white" stroke="#666666" points="504.5,-149.5 370.5,-149.5 370.5,-130.5 504.5,-130.5 504.5,-149.5"/>
<text text-anchor="middle" x="437.5" y="-137.5" font-family="Helvetica,sans-Serif" font-size="10.00">Arcane::XmlNode::value</text>
</a>
</g>
</g>
<!-- Node7&#45;&gt;Node9 -->
<g id="edge8_Node000007_Node000009" class="edge">
<title>Node7&#45;&gt;Node9</title>
<g id="a_edge8_Node000007_Node000009"><a xlink:title=" ">
<path fill="none" stroke="#63b8ff" d="M329.55,-151.55C339.59,-150.46 349.98,-149.34 360.15,-148.24"/>
<polygon fill="#63b8ff" stroke="#63b8ff" points="360.67,-151.71 370.24,-147.15 359.92,-144.75 360.67,-151.71"/>
</a>
</g>
</g>
<!-- Node10 -->
<g id="Node000010" class="node">
<title>Node10</title>
<g id="a_Node000010"><a xlink:href="../../d9/dcc/classArcane_1_1XmlNode.html#aa55e4b639e759107e44fbe17c21d311e" target="_top" xlink:title="Vrai si le noeud est nul.">
<polygon fill="white" stroke="#666666" points="666,-149.5 541,-149.5 541,-130.5 666,-130.5 666,-149.5"/>
<text text-anchor="middle" x="603.5" y="-137.5" font-family="Helvetica,sans-Serif" font-size="10.00">Arcane::XmlNode::null</text>
</a>
</g>
</g>
<!-- Node9&#45;&gt;Node10 -->
<g id="edge9_Node000009_Node000010" class="edge">
<title>Node9&#45;&gt;Node10</title>
<g id="a_edge9_Node000009_Node000010"><a xlink:title=" ">
<path fill="none" stroke="#63b8ff" d="M504.73,-140C513.29,-140 522.09,-140 530.74,-140"/>
<polygon fill="#63b8ff" stroke="#63b8ff" points="530.8,-143.5 540.8,-140 530.8,-136.5 530.8,-143.5"/>
</a>
</g>
</g>
</g>
</svg>
