<?xml version="1.0" encoding="UTF-8" standalone="no"?>
<!DOCTYPE svg PUBLIC "-//W3C//DTD SVG 1.1//EN"
 "http://www.w3.org/Graphics/SVG/1.1/DTD/svg11.dtd">
<!-- Generated by graphviz version 2.43.0 (0)
 -->
<!-- Title: Arcane::IItemFamily::itemKind Pages: 1 -->
<svg width="743pt" height="578pt"
 viewBox="0.00 0.00 743.00 577.50" xmlns="http://www.w3.org/2000/svg" xmlns:xlink="http://www.w3.org/1999/xlink">
<g id="graph0" class="graph" transform="scale(1 1) rotate(0) translate(4 573.5)">
<title>Arcane::IItemFamily::itemKind</title>
<!-- Node1 -->
<g id="Node000001" class="node">
<title>Node1</title>
<g id="a_Node000001"><a xlink:title="Genre des entités.">
<polygon fill="#999999" stroke="#666666" points="735,-305.5 621,-305.5 621,-275.5 735,-275.5 735,-305.5"/>
<text text-anchor="start" x="629" y="-293.5" font-family="Helvetica,sans-Serif" font-size="10.00">Arcane::IItemFamily</text>
<text text-anchor="middle" x="678" y="-282.5" font-family="Helvetica,sans-Serif" font-size="10.00">::itemKind</text>
</a>
</g>
</g>
<!-- Node2 -->
<g id="Node000002" class="node">
<title>Node2</title>
<g id="a_Node000002"><a xlink:href="../../d1/dc8/classArcane_1_1MshMeshWriter.html#af176bc9dc127cb591bf1ebbf826f1d0c" target="_top" xlink:title="Détermine la liste des groupes à traiter pour une famille.">
<polygon fill="white" stroke="#666666" points="562,-569.5 429,-569.5 429,-539.5 562,-539.5 562,-569.5"/>
<text text-anchor="start" x="437" y="-557.5" font-family="Helvetica,sans-Serif" font-size="10.00">Arcane::MshMeshWriter</text>
<text text-anchor="middle" x="495.5" y="-546.5" font-family="Helvetica,sans-Serif" font-size="10.00">::_addGroupsToProcess</text>
</a>
</g>
</g>
<!-- Node1&#45;&gt;Node2 -->
<g id="edge1_Node000001_Node000002" class="edge">
<title>Node1&#45;&gt;Node2</title>
<g id="a_edge1_Node000001_Node000002"><a xlink:title=" ">
<path fill="none" stroke="#63b8ff" d="M674.71,-315.82C668.91,-364.74 649.18,-472.51 585,-530.5 578.39,-536.48 570.43,-540.99 562.04,-544.39"/>
<polygon fill="#63b8ff" stroke="#63b8ff" points="678.2,-316.1 675.8,-305.78 671.24,-315.34 678.2,-316.1"/>
</a>
</g>
</g>
<!-- Node5 -->
<g id="Node000005" class="node">
<title>Node5</title>
<g id="a_Node000005"><a xlink:href="../../d9/d68/classArcane_1_1ItemInfoListView.html#afe36769279bb4dc8c9279b010a04d27b" target="_top" xlink:title="Vérifie que le genre d&#39;entité correspond à celui attendu.">
<polygon fill="white" stroke="#666666" points="565,-521.5 426,-521.5 426,-491.5 565,-491.5 565,-521.5"/>
<text text-anchor="start" x="434" y="-509.5" font-family="Helvetica,sans-Serif" font-size="10.00">Arcane::ItemInfoListView</text>
<text text-anchor="middle" x="495.5" y="-498.5" font-family="Helvetica,sans-Serif" font-size="10.00">::_checkValid</text>
</a>
</g>
</g>
<!-- Node1&#45;&gt;Node5 -->
<g id="edge4_Node000001_Node000005" class="edge">
<title>Node1&#45;&gt;Node5</title>
<g id="a_edge4_Node000001_Node000005"><a xlink:title=" ">
<path fill="none" stroke="#63b8ff" d="M672.03,-315.62C662.55,-356.78 637.93,-438.42 585,-482.5 579.13,-487.39 572.35,-491.29 565.2,-494.4"/>
<polygon fill="#63b8ff" stroke="#63b8ff" points="675.5,-316.12 674.22,-305.61 668.66,-314.63 675.5,-316.12"/>
</a>
</g>
</g>
<!-- Node7 -->
<g id="Node000007" class="node">
<title>Node7</title>
<g id="a_Node000007"><a xlink:href="../../df/d94/classArcane_1_1mesh_1_1DynamicMeshChecker.html#abb79840e72899f1a9cd7e36f10d248a0" target="_top" xlink:title="Vérification sommaire de la validité du maillage. Les vérifications portent sur les points suivants:">
<polygon fill="white" stroke="#666666" points="575,-473.5 416,-473.5 416,-443.5 575,-443.5 575,-473.5"/>
<text text-anchor="start" x="424" y="-461.5" font-family="Helvetica,sans-Serif" font-size="10.00">Arcane::mesh::DynamicMesh</text>
<text text-anchor="middle" x="495.5" y="-450.5" font-family="Helvetica,sans-Serif" font-size="10.00">Checker::checkValidMesh</text>
</a>
</g>
</g>
<!-- Node1&#45;&gt;Node7 -->
<g id="edge6_Node000001_Node000007" class="edge">
<title>Node1&#45;&gt;Node7</title>
<g id="a_edge6_Node000001_Node000007"><a xlink:title=" ">
<path fill="none" stroke="#63b8ff" d="M667.78,-315.36C654.49,-347.72 626.85,-403.76 585,-434.5 580.38,-437.89 575.31,-440.81 570.01,-443.31"/>
<polygon fill="#63b8ff" stroke="#63b8ff" points="671.16,-316.34 671.59,-305.75 664.65,-313.76 671.16,-316.34"/>
</a>
</g>
</g>
<!-- Node8 -->
<g id="Node000008" class="node">
<title>Node8</title>
<g id="a_Node000008"><a xlink:href="../../df/d94/classArcane_1_1mesh_1_1DynamicMeshChecker.html#ae9489b435be95379741940dca1e98409" target="_top" xlink:title="Vérifie que les sous&#45;domaines sont correctement répliqués.">
<polygon fill="white" stroke="#666666" points="580,-425.5 411,-425.5 411,-395.5 580,-395.5 580,-425.5"/>
<text text-anchor="start" x="419" y="-413.5" font-family="Helvetica,sans-Serif" font-size="10.00">Arcane::mesh::DynamicMesh</text>
<text text-anchor="middle" x="495.5" y="-402.5" font-family="Helvetica,sans-Serif" font-size="10.00">Checker::checkValidReplication</text>
</a>
</g>
</g>
<!-- Node1&#45;&gt;Node8 -->
<g id="edge7_Node000001_Node000008" class="edge">
<title>Node1&#45;&gt;Node8</title>
<g id="a_edge7_Node000001_Node000008"><a xlink:title=" ">
<path fill="none" stroke="#63b8ff" d="M660.67,-313.74C644.07,-335.67 616.37,-367.88 585,-386.5 579.25,-389.91 573.01,-392.85 566.58,-395.38"/>
<polygon fill="#63b8ff" stroke="#63b8ff" points="663.55,-315.73 666.68,-305.61 657.92,-311.57 663.55,-315.73"/>
</a>
</g>
</g>
<!-- Node9 -->
<g id="Node000009" class="node">
<title>Node9</title>
<g id="a_Node000009"><a xlink:href="../../d8/d7a/classArcane_1_1ItemGroupDynamicMeshObserver.html#ae5336a7dfdd1b125e74c113f6ebec797" target="_top" xlink:title="Execute l&#39;action associée à l&#39;extension.">
<polygon fill="white" stroke="#666666" points="578,-377.5 413,-377.5 413,-347.5 578,-347.5 578,-377.5"/>
<text text-anchor="start" x="421" y="-365.5" font-family="Helvetica,sans-Serif" font-size="10.00">Arcane::ItemGroupDynamic</text>
<text text-anchor="middle" x="495.5" y="-354.5" font-family="Helvetica,sans-Serif" font-size="10.00">MeshObserver::executeExtend</text>
</a>
</g>
</g>
<!-- Node1&#45;&gt;Node9 -->
<g id="edge8_Node000001_Node000009" class="edge">
<title>Node1&#45;&gt;Node9</title>
<g id="a_edge8_Node000001_Node000009"><a xlink:title=" ">
<path fill="none" stroke="#63b8ff" d="M642.57,-310.73C625.63,-320.08 604.68,-330.8 585,-338.5 576.7,-341.75 567.79,-344.72 558.95,-347.39"/>
<polygon fill="#63b8ff" stroke="#63b8ff" points="644.52,-313.64 651.53,-305.7 641.1,-307.54 644.52,-313.64"/>
</a>
</g>
</g>
<!-- Node11 -->
<g id="Node000011" class="node">
<title>Node11</title>
<g id="a_Node000011"><a xlink:href="../../d0/d1d/classArcane_1_1ActiveCellGroupComputeFunctor.html#a0c1e965c99f7131fd9e1b61eeea80411" target="_top" xlink:title="Exécute la méthode associé">
<polygon fill="white" stroke="#666666" points="585,-329.5 406,-329.5 406,-299.5 585,-299.5 585,-329.5"/>
<text text-anchor="start" x="414" y="-317.5" font-family="Helvetica,sans-Serif" font-size="10.00">Arcane::ActiveCellGroupCompute</text>
<text text-anchor="middle" x="495.5" y="-306.5" font-family="Helvetica,sans-Serif" font-size="10.00">Functor::executeFunctor</text>
</a>
</g>
</g>
<!-- Node1&#45;&gt;Node11 -->
<g id="edge10_Node000001_Node000011" class="edge">
<title>Node1&#45;&gt;Node11</title>
<g id="a_edge10_Node000001_Node000011"><a xlink:title=" ">
<path fill="none" stroke="#63b8ff" d="M610.81,-299.3C602.43,-300.42 593.74,-301.57 585.07,-302.72"/>
<polygon fill="#63b8ff" stroke="#63b8ff" points="611.43,-302.75 620.88,-297.96 610.5,-295.81 611.43,-302.75"/>
</a>
</g>
</g>
<!-- Node12 -->
<g id="Node000012" class="node">
<title>Node12</title>
<g id="a_Node000012"><a xlink:href="../../dc/d84/classArcane_1_1InterfaceItemGroupComputeFunctor.html#a6e1ee3c76cfb183bddd8c6070979fb58" target="_top" xlink:title="Exécute la méthode associé">
<polygon fill="white" stroke="#666666" points="584,-281.5 407,-281.5 407,-251.5 584,-251.5 584,-281.5"/>
<text text-anchor="start" x="415" y="-269.5" font-family="Helvetica,sans-Serif" font-size="10.00">Arcane::InterfaceItemGroup</text>
<text text-anchor="middle" x="495.5" y="-258.5" font-family="Helvetica,sans-Serif" font-size="10.00">ComputeFunctor::executeFunctor</text>
</a>
</g>
</g>
<!-- Node1&#45;&gt;Node12 -->
<g id="edge11_Node000001_Node000012" class="edge">
<title>Node1&#45;&gt;Node12</title>
<g id="a_edge11_Node000001_Node000012"><a xlink:title=" ">
<path fill="none" stroke="#63b8ff" d="M610.82,-281.7C602.11,-280.54 593.07,-279.34 584.07,-278.14"/>
<polygon fill="#63b8ff" stroke="#63b8ff" points="610.5,-285.19 620.88,-283.04 611.43,-278.25 610.5,-285.19"/>
</a>
</g>
</g>
<!-- Node13 -->
<g id="Node000013" class="node">
<title>Node13</title>
<g id="a_Node000013"><a xlink:href="../../d0/d2b/classArcane_1_1ItemItemGroupComputeFunctor.html#afcbcfa687af300ccb504c1ac302b7624" target="_top" xlink:title="Fonctor pour calculer un groupe contenant les entités connectées aux entités du groupe parent.">
<polygon fill="white" stroke="#666666" points="583,-233.5 408,-233.5 408,-203.5 583,-203.5 583,-233.5"/>
<text text-anchor="start" x="416" y="-221.5" font-family="Helvetica,sans-Serif" font-size="10.00">Arcane::ItemItemGroupCompute</text>
<text text-anchor="middle" x="495.5" y="-210.5" font-family="Helvetica,sans-Serif" font-size="10.00">Functor::executeFunctor</text>
</a>
</g>
</g>
<!-- Node1&#45;&gt;Node13 -->
<g id="edge12_Node000001_Node000013" class="edge">
<title>Node1&#45;&gt;Node13</title>
<g id="a_edge12_Node000001_Node000013"><a xlink:title=" ">
<path fill="none" stroke="#63b8ff" d="M642.57,-270.27C625.63,-260.92 604.68,-250.2 585,-242.5 576.7,-239.25 567.79,-236.28 558.95,-233.61"/>
<polygon fill="#63b8ff" stroke="#63b8ff" points="641.1,-273.46 651.53,-275.3 644.52,-267.36 641.1,-273.46"/>
</a>
</g>
</g>
<!-- Node14 -->
<g id="Node000014" class="node">
<title>Node14</title>
<g id="a_Node000014"><a xlink:href="../../d2/d30/classArcane_1_1LevelCellGroupComputeFunctor.html#ae312687e97ffa9349cd4678ea9f455c5" target="_top" xlink:title="Exécute la méthode associé">
<polygon fill="white" stroke="#666666" points="583,-185.5 408,-185.5 408,-155.5 583,-155.5 583,-185.5"/>
<text text-anchor="start" x="416" y="-173.5" font-family="Helvetica,sans-Serif" font-size="10.00">Arcane::LevelCellGroupCompute</text>
<text text-anchor="middle" x="495.5" y="-162.5" font-family="Helvetica,sans-Serif" font-size="10.00">Functor::executeFunctor</text>
</a>
</g>
</g>
<!-- Node1&#45;&gt;Node14 -->
<g id="edge13_Node000001_Node000014" class="edge">
<title>Node1&#45;&gt;Node14</title>
<g id="a_edge13_Node000001_Node000014"><a xlink:title=" ">
<path fill="none" stroke="#63b8ff" d="M660.67,-267.26C644.07,-245.33 616.37,-213.12 585,-194.5 579.25,-191.09 573.01,-188.15 566.58,-185.62"/>
<polygon fill="#63b8ff" stroke="#63b8ff" points="657.92,-269.43 666.68,-275.39 663.55,-265.27 657.92,-269.43"/>
</a>
</g>
</g>
<!-- Node15 -->
<g id="Node000015" class="node">
<title>Node15</title>
<g id="a_Node000015"><a xlink:href="../../de/d02/classArcane_1_1OwnActiveCellGroupComputeFunctor.html#a5bfc889c11a15dc38822c465cdf03924" target="_top" xlink:title="Exécute la méthode associé">
<polygon fill="white" stroke="#666666" points="584,-137.5 407,-137.5 407,-107.5 584,-107.5 584,-137.5"/>
<text text-anchor="start" x="415" y="-125.5" font-family="Helvetica,sans-Serif" font-size="10.00">Arcane::OwnActiveCellGroup</text>
<text text-anchor="middle" x="495.5" y="-114.5" font-family="Helvetica,sans-Serif" font-size="10.00">ComputeFunctor::executeFunctor</text>
</a>
</g>
</g>
<!-- Node1&#45;&gt;Node15 -->
<g id="edge14_Node000001_Node000015" class="edge">
<title>Node1&#45;&gt;Node15</title>
<g id="a_edge14_Node000001_Node000015"><a xlink:title=" ">
<path fill="none" stroke="#63b8ff" d="M667.78,-265.64C654.49,-233.28 626.85,-177.24 585,-146.5 580.38,-143.11 575.31,-140.19 570.01,-137.69"/>
<polygon fill="#63b8ff" stroke="#63b8ff" points="664.65,-267.24 671.59,-275.25 671.16,-264.66 664.65,-267.24"/>
</a>
</g>
</g>
<!-- Node16 -->
<g id="Node000016" class="node">
<title>Node16</title>
<g id="a_Node000016"><a xlink:href="../../de/d60/classArcane_1_1OwnLevelCellGroupComputeFunctor.html#a54f76ec588e72603b9988cb8d358b8df" target="_top" xlink:title="Exécute la méthode associé">
<polygon fill="white" stroke="#666666" points="584,-89.5 407,-89.5 407,-59.5 584,-59.5 584,-89.5"/>
<text text-anchor="start" x="415" y="-77.5" font-family="Helvetica,sans-Serif" font-size="10.00">Arcane::OwnLevelCellGroup</text>
<text text-anchor="middle" x="495.5" y="-66.5" font-family="Helvetica,sans-Serif" font-size="10.00">ComputeFunctor::executeFunctor</text>
</a>
</g>
</g>
<!-- Node1&#45;&gt;Node16 -->
<g id="edge15_Node000001_Node000016" class="edge">
<title>Node1&#45;&gt;Node16</title>
<g id="a_edge15_Node000001_Node000016"><a xlink:title=" ">
<path fill="none" stroke="#63b8ff" d="M672.03,-265.38C662.55,-224.22 637.93,-142.58 585,-98.5 580.84,-95.04 576.23,-92.07 571.35,-89.53"/>
<polygon fill="#63b8ff" stroke="#63b8ff" points="668.66,-266.37 674.22,-275.39 675.5,-264.88 668.66,-266.37"/>
</a>
</g>
</g>
<!-- Node17 -->
<g id="Node000017" class="node">
<title>Node17</title>
<g id="a_Node000017"><a xlink:href="../../d1/d3c/classArcane_1_1mesh_1_1DynamicMeshIncrementalBuilder.html#ae94c065848ede8fd71a656a03d8b02df" target="_top" xlink:title="Supprime les items fantômes.">
<polygon fill="white" stroke="#666666" points="585,-41 406,-41 406,0 585,0 585,-41"/>
<text text-anchor="start" x="414" y="-29" font-family="Helvetica,sans-Serif" font-size="10.00">Arcane::mesh::DynamicMesh</text>
<text text-anchor="start" x="414" y="-18" font-family="Helvetica,sans-Serif" font-size="10.00">IncrementalBuilder::removeNeed</text>
<text text-anchor="middle" x="495.5" y="-7" font-family="Helvetica,sans-Serif" font-size="10.00">RemoveMarkedItems</text>
</a>
</g>
</g>
<!-- Node1&#45;&gt;Node17 -->
<g id="edge16_Node000001_Node000017" class="edge">
<title>Node1&#45;&gt;Node17</title>
<g id="a_edge16_Node000001_Node000017"><a xlink:title=" ">
<path fill="none" stroke="#63b8ff" d="M674.35,-265.22C667.94,-216.77 647.22,-110.33 585,-50.5 581.37,-47.01 577.33,-43.93 573.02,-41.21"/>
<polygon fill="#63b8ff" stroke="#63b8ff" points="670.91,-265.94 675.6,-275.44 677.86,-265.09 670.91,-265.94"/>
</a>
</g>
</g>
<!-- Node3 -->
<g id="Node000003" class="node">
<title>Node3</title>
<g id="a_Node000003"><a xlink:href="../../d1/dc8/classArcane_1_1MshMeshWriter.html#a5b0450bf8909624bf8cb0d0c8015e06f" target="_top" xlink:title="Ecrit au format MSH V4.">
<polygon fill="white" stroke="#666666" points="354,-569.5 221,-569.5 221,-539.5 354,-539.5 354,-569.5"/>
<text text-anchor="start" x="229" y="-557.5" font-family="Helvetica,sans-Serif" font-size="10.00">Arcane::MshMeshWriter</text>
<text text-anchor="middle" x="287.5" y="-546.5" font-family="Helvetica,sans-Serif" font-size="10.00">::writeMesh</text>
</a>
</g>
</g>
<!-- Node2&#45;&gt;Node3 -->
<g id="edge2_Node000002_Node000003" class="edge">
<title>Node2&#45;&gt;Node3</title>
<g id="a_edge2_Node000002_Node000003"><a xlink:title=" ">
<path fill="none" stroke="#63b8ff" d="M418.55,-554.5C397.48,-554.5 374.77,-554.5 354.33,-554.5"/>
<polygon fill="#63b8ff" stroke="#63b8ff" points="418.75,-558 428.75,-554.5 418.75,-551 418.75,-558"/>
</a>
</g>
</g>
<!-- Node4 -->
<g id="Node000004" class="node">
<title>Node4</title>
<g id="a_Node000004"><a xlink:href="../../d3/d98/classArcane_1_1MshMeshWriterService.html#a3a7eaf4bf76067b57b3630deb9ae59a1" target="_top" xlink:title="Ecrit un maillage sur un fichier.">
<polygon fill="white" stroke="#666666" points="169,-569.5 0,-569.5 0,-539.5 169,-539.5 169,-569.5"/>
<text text-anchor="start" x="8" y="-557.5" font-family="Helvetica,sans-Serif" font-size="10.00">Arcane::MshMeshWriterService</text>
<text text-anchor="middle" x="84.5" y="-546.5" font-family="Helvetica,sans-Serif" font-size="10.00">::writeMeshToFile</text>
</a>
</g>
</g>
<!-- Node3&#45;&gt;Node4 -->
<g id="edge3_Node000003_Node000004" class="edge">
<title>Node3&#45;&gt;Node4</title>
<g id="a_edge3_Node000003_Node000004"><a xlink:title=" ">
<path fill="none" stroke="#63b8ff" d="M210.75,-554.5C197.21,-554.5 183.03,-554.5 169.28,-554.5"/>
<polygon fill="#63b8ff" stroke="#63b8ff" points="210.96,-558 220.96,-554.5 210.96,-551 210.96,-558"/>
</a>
</g>
</g>
<!-- Node6 -->
<g id="Node000006" class="node">
<title>Node6</title>
<g id="a_Node000006"><a xlink:href="../../d6/dbc/classArcane_1_1ItemInfoListViewT.html#aaacb7753f1ad1c8cd220a1434009105e" target="_top" xlink:title=" ">
<polygon fill="white" stroke="#666666" points="370,-521.5 205,-521.5 205,-491.5 370,-491.5 370,-521.5"/>
<text text-anchor="start" x="213" y="-509.5" font-family="Helvetica,sans-Serif" font-size="10.00">Arcane::ItemInfoListView</text>
<text text-anchor="middle" x="287.5" y="-498.5" font-family="Helvetica,sans-Serif" font-size="10.00">T&lt; Node &gt;::ItemInfoListViewT</text>
</a>
</g>
</g>
<!-- Node5&#45;&gt;Node6 -->
<g id="edge5_Node000005_Node000006" class="edge">
<title>Node5&#45;&gt;Node6</title>
<g id="a_edge5_Node000005_Node000006"><a xlink:title=" ">
<path fill="none" stroke="#63b8ff" d="M415.68,-506.5C400.73,-506.5 385.05,-506.5 370.02,-506.5"/>
<polygon fill="#63b8ff" stroke="#63b8ff" points="415.91,-510 425.9,-506.5 415.9,-503 415.91,-510"/>
</a>
</g>
</g>
<!-- Node10 -->
<g id="Node000010" class="node">
<title>Node10</title>
<g id="a_Node000010"><a xlink:href="../../d2/daa/classArcane_1_1mesh_1_1DynamicMesh.html#a21ab2ff2e4b01dae20aeaf2eadbfab4a" target="_top" xlink:title=" ">
<polygon fill="white" stroke="#666666" points="367,-377.5 208,-377.5 208,-347.5 367,-347.5 367,-377.5"/>
<text text-anchor="start" x="216" y="-365.5" font-family="Helvetica,sans-Serif" font-size="10.00">Arcane::mesh::DynamicMesh</text>
<text text-anchor="middle" x="287.5" y="-354.5" font-family="Helvetica,sans-Serif" font-size="10.00">::build</text>
</a>
</g>
</g>
<!-- Node9&#45;&gt;Node10 -->
<g id="edge9_Node000009_Node000010" class="edge">
<title>Node9&#45;&gt;Node10</title>
<g id="a_edge9_Node000009_Node000010"><a xlink:title=" ">
<path fill="none" stroke="#63b8ff" d="M402.47,-362.5C390.66,-362.5 378.66,-362.5 367.09,-362.5"/>
<polygon fill="#63b8ff" stroke="#63b8ff" points="402.79,-366 412.79,-362.5 402.79,-359 402.79,-366"/>
</a>
</g>
</g>
</g>
</svg>
