<?xml version="1.0" encoding="UTF-8" standalone="no"?>
<!DOCTYPE svg PUBLIC "-//W3C//DTD SVG 1.1//EN"
 "http://www.w3.org/Graphics/SVG/1.1/DTD/svg11.dtd">
<!-- Generated by graphviz version 2.43.0 (0)
 -->
<!-- Title: Arcane::IItemFamily::allItemsSynchronizer Pages: 1 -->
<svg width="625pt" height="230pt"
 viewBox="0.00 0.00 625.00 230.00" xmlns="http://www.w3.org/2000/svg" xmlns:xlink="http://www.w3.org/1999/xlink">
<g id="graph0" class="graph" transform="scale(1 1) rotate(0) translate(4 226)">
<title>Arcane::IItemFamily::allItemsSynchronizer</title>
<!-- Node1 -->
<g id="Node000001" class="node">
<title>Node1</title>
<g id="a_Node000001"><a xlink:title="Synchroniseur sur toutes les entités de la famille.">
<polygon fill="#999999" stroke="#666666" points="617,-126 492,-126 492,-96 617,-96 617,-126"/>
<text text-anchor="start" x="500" y="-114" font-family="Helvetica,sans-Serif" font-size="10.00">Arcane::IItemFamily</text>
<text text-anchor="middle" x="554.5" y="-103" font-family="Helvetica,sans-Serif" font-size="10.00">::allItemsSynchronizer</text>
</a>
</g>
</g>
<!-- Node1&#45;&gt;Node1 -->
<g id="edge4_Node000001_Node000001" class="edge">
<title>Node1&#45;&gt;Node1</title>
<g id="a_edge4_Node000001_Node000001"><a xlink:title=" ">
<path fill="none" stroke="#63b8ff" d="M583.21,-136.6C579.28,-140.97 569.71,-144 554.5,-144 528.88,-144 519.27,-135.41 525.67,-126.28"/>
<polygon fill="#63b8ff" stroke="#63b8ff" points="586.71,-136.32 583.33,-126.28 579.71,-136.23 586.71,-136.32"/>
</a>
</g>
</g>
<!-- Node2 -->
<g id="Node000002" class="node">
<title>Node2</title>
<g id="a_Node000002"><a xlink:href="../../d9/d6b/classArcane_1_1TimeLoopMng.html#aeff9ebc0473c7c002fbb4457b84e3fa5" target="_top" xlink:title="Effectue un repartitionnement des maillages.">
<polygon fill="white" stroke="#666666" points="451.5,-222 326.5,-222 326.5,-192 451.5,-192 451.5,-222"/>
<text text-anchor="start" x="334.5" y="-210" font-family="Helvetica,sans-Serif" font-size="10.00">Arcane::TimeLoopMng</text>
<text text-anchor="middle" x="389" y="-199" font-family="Helvetica,sans-Serif" font-size="10.00">::_doMeshPartition</text>
</a>
</g>
</g>
<!-- Node1&#45;&gt;Node2 -->
<g id="edge1_Node000001_Node000002" class="edge">
<title>Node1&#45;&gt;Node2</title>
<g id="a_edge1_Node000001_Node000002"><a xlink:title=" ">
<path fill="none" stroke="#63b8ff" d="M528.38,-132.72C509.44,-148.27 482.33,-168.88 456,-183 449.88,-186.29 443.21,-189.3 436.54,-192"/>
<polygon fill="#63b8ff" stroke="#63b8ff" points="530.77,-135.27 536.21,-126.18 526.29,-129.9 530.77,-135.27"/>
</a>
</g>
</g>
<!-- Node5 -->
<g id="Node000005" class="node">
<title>Node5</title>
<g id="a_Node000005"><a xlink:href="../../d8/d38/classArcane_1_1Array2VariableT.html#a90f0303c7db135f11afcbd49f1d4c522" target="_top" xlink:title="Synchronise la variable.">
<polygon fill="white" stroke="#666666" points="456,-174 322,-174 322,-144 456,-144 456,-174"/>
<text text-anchor="start" x="330" y="-162" font-family="Helvetica,sans-Serif" font-size="10.00">Arcane::Array2VariableT</text>
<text text-anchor="middle" x="389" y="-151" font-family="Helvetica,sans-Serif" font-size="10.00">::synchronize</text>
</a>
</g>
</g>
<!-- Node1&#45;&gt;Node5 -->
<g id="edge5_Node000001_Node000005" class="edge">
<title>Node1&#45;&gt;Node5</title>
<g id="a_edge5_Node000001_Node000005"><a xlink:title=" ">
<path fill="none" stroke="#63b8ff" d="M492.44,-128.93C475.53,-133.89 457.37,-139.22 441.1,-144"/>
<polygon fill="#63b8ff" stroke="#63b8ff" points="493.61,-132.23 502.22,-126.06 491.64,-125.51 493.61,-132.23"/>
</a>
</g>
</g>
<!-- Node6 -->
<g id="Node000006" class="node">
<title>Node6</title>
<g id="a_Node000006"><a xlink:href="../../d8/d38/classArcane_1_1Array2VariableT.html#afa64bfaa92622e4f7c313775614c38f7" target="_top" xlink:title="Synchronise la variable sur une liste d&#39;entités.">
<polygon fill="white" stroke="#666666" points="456,-126 322,-126 322,-96 456,-96 456,-126"/>
<text text-anchor="start" x="330" y="-114" font-family="Helvetica,sans-Serif" font-size="10.00">Arcane::Array2VariableT</text>
<text text-anchor="middle" x="389" y="-103" font-family="Helvetica,sans-Serif" font-size="10.00">::synchronize</text>
</a>
</g>
</g>
<!-- Node1&#45;&gt;Node6 -->
<g id="edge6_Node000001_Node000006" class="edge">
<title>Node1&#45;&gt;Node6</title>
<g id="a_edge6_Node000001_Node000006"><a xlink:title=" ">
<path fill="none" stroke="#63b8ff" d="M481.53,-111C473.13,-111 464.59,-111 456.27,-111"/>
<polygon fill="#63b8ff" stroke="#63b8ff" points="481.69,-114.5 491.69,-111 481.69,-107.5 481.69,-114.5"/>
</a>
</g>
</g>
<!-- Node7 -->
<g id="Node000007" class="node">
<title>Node7</title>
<g id="a_Node000007"><a xlink:href="../../d9/d83/classArcane_1_1VariableArrayT.html#aed95644ebb03f76bc44ac4160281da21" target="_top" xlink:title="Synchronise la variable.">
<polygon fill="white" stroke="#666666" points="453,-78 325,-78 325,-48 453,-48 453,-78"/>
<text text-anchor="start" x="333" y="-66" font-family="Helvetica,sans-Serif" font-size="10.00">Arcane::VariableArrayT</text>
<text text-anchor="middle" x="389" y="-55" font-family="Helvetica,sans-Serif" font-size="10.00">::synchronize</text>
</a>
</g>
</g>
<!-- Node1&#45;&gt;Node7 -->
<g id="edge7_Node000001_Node000007" class="edge">
<title>Node1&#45;&gt;Node7</title>
<g id="a_edge7_Node000001_Node000007"><a xlink:title=" ">
<path fill="none" stroke="#63b8ff" d="M492.44,-93.07C475.53,-88.11 457.37,-82.78 441.1,-78"/>
<polygon fill="#63b8ff" stroke="#63b8ff" points="491.64,-96.49 502.22,-95.94 493.61,-89.77 491.64,-96.49"/>
</a>
</g>
</g>
<!-- Node8 -->
<g id="Node000008" class="node">
<title>Node8</title>
<g id="a_Node000008"><a xlink:href="../../d9/d83/classArcane_1_1VariableArrayT.html#a2fa41847a526a1b7d7311564f3b3f261" target="_top" xlink:title="Synchronise la variable sur une liste d&#39;entités.">
<polygon fill="white" stroke="#666666" points="453,-30 325,-30 325,0 453,0 453,-30"/>
<text text-anchor="start" x="333" y="-18" font-family="Helvetica,sans-Serif" font-size="10.00">Arcane::VariableArrayT</text>
<text text-anchor="middle" x="389" y="-7" font-family="Helvetica,sans-Serif" font-size="10.00">::synchronize</text>
</a>
</g>
</g>
<!-- Node1&#45;&gt;Node8 -->
<g id="edge8_Node000001_Node000008" class="edge">
<title>Node1&#45;&gt;Node8</title>
<g id="a_edge8_Node000001_Node000008"><a xlink:title=" ">
<path fill="none" stroke="#63b8ff" d="M528.38,-89.28C509.44,-73.73 482.33,-53.12 456,-39 449.88,-35.71 443.21,-32.7 436.54,-30"/>
<polygon fill="#63b8ff" stroke="#63b8ff" points="526.29,-92.1 536.21,-95.82 530.77,-86.73 526.29,-92.1"/>
</a>
</g>
</g>
<!-- Node3 -->
<g id="Node000003" class="node">
<title>Node3</title>
<g id="a_Node000003"><a xlink:href="../../d9/d6b/classArcane_1_1TimeLoopMng.html#a875da9467f6c9ae3f64d704f8cb584a1" target="_top" xlink:title="Lance l&#39;exécution d&#39;une itération de la boucle de calcul.">
<polygon fill="white" stroke="#666666" points="286,-222 161,-222 161,-192 286,-192 286,-222"/>
<text text-anchor="start" x="169" y="-210" font-family="Helvetica,sans-Serif" font-size="10.00">Arcane::TimeLoopMng</text>
<text text-anchor="middle" x="223.5" y="-199" font-family="Helvetica,sans-Serif" font-size="10.00">::doOneIteration</text>
</a>
</g>
</g>
<!-- Node2&#45;&gt;Node3 -->
<g id="edge2_Node000002_Node000003" class="edge">
<title>Node2&#45;&gt;Node3</title>
<g id="a_edge2_Node000002_Node000003"><a xlink:title=" ">
<path fill="none" stroke="#63b8ff" d="M315.93,-207C305.99,-207 295.86,-207 286.13,-207"/>
<polygon fill="#63b8ff" stroke="#63b8ff" points="316.19,-210.5 326.19,-207 316.19,-203.5 316.19,-210.5"/>
</a>
</g>
</g>
<!-- Node4 -->
<g id="Node000004" class="node">
<title>Node4</title>
<g id="a_Node000004"><a xlink:href="../../d9/d6b/classArcane_1_1TimeLoopMng.html#ab019ca64146dfd7ce6c94e3cb9ea35c4" target="_top" xlink:title="Exécute la boucle de calcul.">
<polygon fill="white" stroke="#666666" points="125,-222 0,-222 0,-192 125,-192 125,-222"/>
<text text-anchor="start" x="8" y="-210" font-family="Helvetica,sans-Serif" font-size="10.00">Arcane::TimeLoopMng</text>
<text text-anchor="middle" x="62.5" y="-199" font-family="Helvetica,sans-Serif" font-size="10.00">::doComputeLoop</text>
</a>
</g>
</g>
<!-- Node3&#45;&gt;Node4 -->
<g id="edge3_Node000003_Node000004" class="edge">
<title>Node3&#45;&gt;Node4</title>
<g id="a_edge3_Node000003_Node000004"><a xlink:title=" ">
<path fill="none" stroke="#63b8ff" d="M150.41,-207C142.01,-207 133.5,-207 125.26,-207"/>
<polygon fill="#63b8ff" stroke="#63b8ff" points="150.57,-210.5 160.57,-207 150.57,-203.5 150.57,-210.5"/>
</a>
</g>
</g>
</g>
</svg>
