<?xml version="1.0" encoding="UTF-8" standalone="no"?>
<!DOCTYPE svg PUBLIC "-//W3C//DTD SVG 1.1//EN"
 "http://www.w3.org/Graphics/SVG/1.1/DTD/svg11.dtd">
<!-- Generated by graphviz version 2.43.0 (0)
 -->
<!-- Title: Arcane::Materials::IMeshMaterialVariableFactoryMng Pages: 1 -->
<svg width="184pt" height="332pt"
 viewBox="0.00 0.00 184.00 332.00" xmlns="http://www.w3.org/2000/svg" xmlns:xlink="http://www.w3.org/1999/xlink">

<svg id="main" version="1.1" xmlns="http://www.w3.org/2000/svg" xmlns:xlink="http://www.w3.org/1999/xlink" xml:space="preserve">

<style type="text/css"><![CDATA[
.node, .edge {opacity: 0.7;}
.node.selected, .edge.selected {opacity: 1;}
.edge:hover path { stroke: red; }
.edge:hover polygon { stroke: red; fill: red; }
]]></style>
<script type="application/ecmascript" xlink:href="../../svg.min.js"/>
<svg id="graph" class="graph">
<g id="graph0" class="graph" transform="scale(1 1) rotate(0) translate(4 328)">
<title>Arcane::Materials::IMeshMaterialVariableFactoryMng</title>
<!-- Node1 -->
<g id="Node000001" class="node">
<title>Node1</title>
<g id="a_Node000001"><a xlink:title="Interface du gestionnaire de fabrique de variables matériaux.">
<polygon fill="#999999" stroke="transparent" points="176,-324 0,-324 0,-193 176,-193 176,-324"/>
<text text-anchor="start" x="5" y="-311.5" font-family="Helvetica,sans-Serif" font-size="10.00">Arcane::Materials::</text>
<text text-anchor="start" x="5" y="-300.5" font-family="Helvetica,sans-Serif" font-size="10.00">IMeshMaterialVariableFactoryMng</text>
<text text-anchor="start" x="86" y="-285.5" font-family="Helvetica,sans-Serif" font-size="10.00"> </text>
<text text-anchor="start" x="4" y="-270.5" font-family="Helvetica,sans-Serif" font-size="10.00">+</text>
<text text-anchor="start" x="17" y="-270.5" font-family="Helvetica,sans-Serif" font-size="10.00">~IMeshMaterialVariableFactory</text>
<text text-anchor="start" x="17" y="-259.5" font-family="Helvetica,sans-Serif" font-size="10.00">Mng()</text>
<text text-anchor="start" x="4" y="-244.5" font-family="Helvetica,sans-Serif" font-size="10.00">+</text>
<text text-anchor="start" x="17" y="-244.5" font-family="Helvetica,sans-Serif" font-size="10.00">build()</text>
<text text-anchor="start" x="4" y="-229.5" font-family="Helvetica,sans-Serif" font-size="10.00">+</text>
<text text-anchor="start" x="17" y="-229.5" font-family="Helvetica,sans-Serif" font-size="10.00">traceMng()</text>
<text text-anchor="start" x="4" y="-214.5" font-family="Helvetica,sans-Serif" font-size="10.00">+</text>
<text text-anchor="start" x="17" y="-214.5" font-family="Helvetica,sans-Serif" font-size="10.00">registerFactory()</text>
<text text-anchor="start" x="4" y="-199.5" font-family="Helvetica,sans-Serif" font-size="10.00">+</text>
<text text-anchor="start" x="17" y="-199.5" font-family="Helvetica,sans-Serif" font-size="10.00">createVariable()</text>
<polygon fill="#666666" stroke="#666666" points="0,-295.5 0,-295.5 176,-295.5 176,-295.5 0,-295.5"/>
<polygon fill="#666666" stroke="#666666" points="0,-280.5 0,-280.5 176,-280.5 176,-280.5 0,-280.5"/>
<polygon fill="none" stroke="#666666" points="0,-193 0,-324 176,-324 176,-193 0,-193"/>
</a>
</g>
</g>
<!-- Node2 -->
<g id="Node000002" class="node">
<title>Node2</title>
<g id="a_Node000002"><a xlink:href="../../da/dd8/classArcane_1_1Materials_1_1MeshMaterialVariableFactoryMng.html" target="_top" xlink:title=" ">
<polygon fill="white" stroke="transparent" points="174.5,-157 1.5,-157 1.5,0 174.5,0 174.5,-157"/>
<text text-anchor="start" x="7" y="-144.5" font-family="Helvetica,sans-Serif" font-size="10.00">Arcane::Materials::</text>
<text text-anchor="start" x="7" y="-133.5" font-family="Helvetica,sans-Serif" font-size="10.00">MeshMaterialVariableFactoryMng</text>
<text text-anchor="start" x="8.5" y="-118.5" font-family="Helvetica,sans-Serif" font-size="10.00">&#45;</text>
<text text-anchor="start" x="19" y="-118.5" font-family="Helvetica,sans-Serif" font-size="10.00">m_factories</text>
<text text-anchor="start" x="6" y="-103.5" font-family="Helvetica,sans-Serif" font-size="10.00">+</text>
<text text-anchor="start" x="19" y="-103.5" font-family="Helvetica,sans-Serif" font-size="10.00">MeshMaterialVariableFactory</text>
<text text-anchor="start" x="19" y="-92.5" font-family="Helvetica,sans-Serif" font-size="10.00">Mng()</text>
<text text-anchor="start" x="6" y="-77.5" font-family="Helvetica,sans-Serif" font-size="10.00">+</text>
<text text-anchor="start" x="19" y="-77.5" font-family="Helvetica,sans-Serif" font-size="10.00">~MeshMaterialVariableFactory</text>
<text text-anchor="start" x="19" y="-66.5" font-family="Helvetica,sans-Serif" font-size="10.00">Mng()</text>
<text text-anchor="start" x="6" y="-51.5" font-family="Helvetica,sans-Serif" font-size="10.00">+</text>
<text text-anchor="start" x="19" y="-51.5" font-family="Helvetica,sans-Serif" font-size="10.00">build()</text>
<text text-anchor="start" x="6" y="-36.5" font-family="Helvetica,sans-Serif" font-size="10.00">+</text>
<text text-anchor="start" x="19" y="-36.5" font-family="Helvetica,sans-Serif" font-size="10.00">traceMng()</text>
<text text-anchor="start" x="6" y="-21.5" font-family="Helvetica,sans-Serif" font-size="10.00">+</text>
<text text-anchor="start" x="19" y="-21.5" font-family="Helvetica,sans-Serif" font-size="10.00">registerFactory()</text>
<text text-anchor="start" x="6" y="-6.5" font-family="Helvetica,sans-Serif" font-size="10.00">+</text>
<text text-anchor="start" x="19" y="-6.5" font-family="Helvetica,sans-Serif" font-size="10.00">createVariable()</text>
<polygon fill="#bfbfbf" stroke="#bfbfbf" points="2,-128.5 2,-128.5 175,-128.5 175,-128.5 2,-128.5"/>
<polygon fill="#bfbfbf" stroke="#bfbfbf" points="2,-113.5 2,-113.5 17,-113.5 17,-113.5 2,-113.5"/>
<polygon fill="#bfbfbf" stroke="#bfbfbf" points="17,-113.5 17,-113.5 175,-113.5 175,-113.5 17,-113.5"/>
<polygon fill="none" stroke="#bfbfbf" points="1.5,0 1.5,-157 174.5,-157 174.5,0 1.5,0"/>
</a>
</g>
</g>
<!-- Node1&#45;&gt;Node2 -->
<g id="edge1_Node000001_Node000002" class="edge">
<title>Node1&#45;&gt;Node2</title>
<g id="a_edge1_Node000001_Node000002"><a xlink:title=" ">
<path fill="none" stroke="#63b8ff" d="M88,-182.76C88,-174.29 88,-165.64 88,-157.13"/>
<polygon fill="none" stroke="#63b8ff" points="84.5,-182.99 88,-192.99 91.5,-182.99 84.5,-182.99"/>
</a>
</g>
</g>
</g>
</svg>
</svg>

<style type='text/css'>
<![CDATA[
[data-mouse-over-selected='false'] { opacity: 0.7; }
[data-mouse-over-selected='true']  { opacity: 1.0; }
]]>
</style>
<script type="application/ecmascript"><![CDATA[
document.addEventListener('DOMContentLoaded', (event) => {
  highlightEdges();
  highlightAdjacentNodes();
});
]]></script>
</svg>
