<?xml version="1.0" encoding="UTF-8" standalone="no"?>
<!DOCTYPE svg PUBLIC "-//W3C//DTD SVG 1.1//EN"
 "http://www.w3.org/Graphics/SVG/1.1/DTD/svg11.dtd">
<!-- Generated by graphviz version 2.43.0 (0)
 -->
<!-- Title: Arcane::Accelerator::GenericFilterer::applyWithIndex Pages: 1 -->
<svg width="1144pt" height="331pt"
 viewBox="0.00 0.00 1144.00 331.00" xmlns="http://www.w3.org/2000/svg" xmlns:xlink="http://www.w3.org/1999/xlink">
<g id="graph0" class="graph" transform="scale(1 1) rotate(0) translate(4 327)">
<title>Arcane::Accelerator::GenericFilterer::applyWithIndex</title>
<!-- Node1 -->
<g id="Node000001" class="node">
<title>Node1</title>
<g id="a_Node000001"><a xlink:title="Applique un filtre avec une sélection suivant un index.">
<polygon fill="#999999" stroke="#666666" points="150,-143.5 0,-143.5 0,-102.5 150,-102.5 150,-143.5"/>
<text text-anchor="start" x="8" y="-131.5" font-family="Helvetica,sans-Serif" font-size="10.00">Arcane::Accelerator</text>
<text text-anchor="start" x="8" y="-120.5" font-family="Helvetica,sans-Serif" font-size="10.00">::GenericFilterer::applyWith</text>
<text text-anchor="middle" x="75" y="-109.5" font-family="Helvetica,sans-Serif" font-size="10.00">Index</text>
</a>
</g>
</g>
<!-- Node2 -->
<g id="Node000002" class="node">
<title>Node2</title>
<g id="a_Node000002"><a xlink:href="../../d2/d10/classArcane_1_1Accelerator_1_1Impl_1_1GenericFilteringIf.html#af68d8d5ad754eb99815aebd71f9d76d8" target="_top" xlink:title="Applique le filtre.">
<polygon fill="white" stroke="#666666" points="320,-143.5 186,-143.5 186,-102.5 320,-102.5 320,-143.5"/>
<text text-anchor="start" x="194" y="-131.5" font-family="Helvetica,sans-Serif" font-size="10.00">Arcane::Accelerator</text>
<text text-anchor="start" x="194" y="-120.5" font-family="Helvetica,sans-Serif" font-size="10.00">::Impl::GenericFilteringIf</text>
<text text-anchor="middle" x="253" y="-109.5" font-family="Helvetica,sans-Serif" font-size="10.00">::apply</text>
</a>
</g>
</g>
<!-- Node1&#45;&gt;Node2 -->
<g id="edge1_Node000001_Node000002" class="edge">
<title>Node1&#45;&gt;Node2</title>
<g id="a_edge1_Node000001_Node000002"><a xlink:title=" ">
<path fill="none" stroke="#63b8ff" d="M150.13,-123C158.55,-123 167.13,-123 175.58,-123"/>
<polygon fill="#63b8ff" stroke="#63b8ff" points="175.79,-126.5 185.79,-123 175.79,-119.5 175.79,-126.5"/>
</a>
</g>
</g>
<!-- Node3 -->
<g id="Node000003" class="node">
<title>Node3</title>
<g id="a_Node000003"><a xlink:href="../../d9/d4f/classArcane_1_1Accelerator_1_1Impl_1_1RunCommandLaunchInfo.html#a1e16331196f425f694bfdd3ddb16529e" target="_top" xlink:title="Indique qu&#39;on commence l&#39;exécution de la commande.">
<polygon fill="white" stroke="#666666" points="529,-256.5 356,-256.5 356,-215.5 529,-215.5 529,-256.5"/>
<text text-anchor="start" x="364" y="-244.5" font-family="Helvetica,sans-Serif" font-size="10.00">Arcane::Accelerator</text>
<text text-anchor="start" x="364" y="-233.5" font-family="Helvetica,sans-Serif" font-size="10.00">::Impl::RunCommandLaunchInfo</text>
<text text-anchor="middle" x="442.5" y="-222.5" font-family="Helvetica,sans-Serif" font-size="10.00">::beginExecute</text>
</a>
</g>
</g>
<!-- Node2&#45;&gt;Node3 -->
<g id="edge2_Node000002_Node000003" class="edge">
<title>Node2&#45;&gt;Node3</title>
<g id="a_edge2_Node000002_Node000003"><a xlink:title=" ">
<path fill="none" stroke="#63b8ff" d="M274.6,-143.83C294.09,-162.56 324.93,-189.7 356,-207 358.65,-208.48 361.4,-209.9 364.2,-211.26"/>
<polygon fill="#63b8ff" stroke="#63b8ff" points="362.76,-214.45 373.31,-215.42 365.66,-208.08 362.76,-214.45"/>
</a>
</g>
</g>
<!-- Node10 -->
<g id="Node000010" class="node">
<title>Node10</title>
<g id="a_Node000010"><a xlink:href="../../d9/d4f/classArcane_1_1Accelerator_1_1Impl_1_1RunCommandLaunchInfo.html#a41caf239174539af3b09e68fb25c36f9" target="_top" xlink:title="Signale la fin de l&#39;exécution.">
<polygon fill="white" stroke="#666666" points="529,-197.5 356,-197.5 356,-156.5 529,-156.5 529,-197.5"/>
<text text-anchor="start" x="364" y="-185.5" font-family="Helvetica,sans-Serif" font-size="10.00">Arcane::Accelerator</text>
<text text-anchor="start" x="364" y="-174.5" font-family="Helvetica,sans-Serif" font-size="10.00">::Impl::RunCommandLaunchInfo</text>
<text text-anchor="middle" x="442.5" y="-163.5" font-family="Helvetica,sans-Serif" font-size="10.00">::endExecute</text>
</a>
</g>
</g>
<!-- Node2&#45;&gt;Node10 -->
<g id="edge9_Node000002_Node000010" class="edge">
<title>Node2&#45;&gt;Node10</title>
<g id="a_edge9_Node000002_Node000010"><a xlink:title=" ">
<path fill="none" stroke="#63b8ff" d="M320.11,-142.04C333.17,-145.8 347.02,-149.79 360.52,-153.68"/>
<polygon fill="#63b8ff" stroke="#63b8ff" points="359.68,-157.08 370.26,-156.48 361.62,-150.35 359.68,-157.08"/>
</a>
</g>
</g>
<!-- Node11 -->
<g id="Node000011" class="node">
<title>Node11</title>
<g id="a_Node000011"><a xlink:href="../../d9/d8e/classArcane_1_1Accelerator_1_1RunQueue.html#ad09c63897fe21d79ff0f7ddf8736d2ca" target="_top" xlink:title="Politique d&#39;exécution de la file.">
<polygon fill="white" stroke="#666666" points="520,-138 365,-138 365,-108 520,-108 520,-138"/>
<text text-anchor="start" x="373" y="-126" font-family="Helvetica,sans-Serif" font-size="10.00">Arcane::Accelerator</text>
<text text-anchor="middle" x="442.5" y="-115" font-family="Helvetica,sans-Serif" font-size="10.00">::RunQueue::executionPolicy</text>
</a>
</g>
</g>
<!-- Node2&#45;&gt;Node11 -->
<g id="edge10_Node000002_Node000011" class="edge">
<title>Node2&#45;&gt;Node11</title>
<g id="a_edge10_Node000002_Node000011"><a xlink:title=" ">
<path fill="none" stroke="#63b8ff" d="M320.11,-123C331.28,-123 343.02,-123 354.63,-123"/>
<polygon fill="#63b8ff" stroke="#63b8ff" points="354.77,-126.5 364.77,-123 354.77,-119.5 354.77,-126.5"/>
</a>
</g>
</g>
<!-- Node12 -->
<g id="Node000012" class="node">
<title>Node12</title>
<g id="a_Node000012"><a xlink:href="../../d9/d4f/classArcane_1_1Accelerator_1_1Impl_1_1RunCommandLaunchInfo.html#acc3aaad2968348dda67098c2ec9ff520" target="_top" xlink:title="Informations d&#39;exécution de la boucle.">
<polygon fill="white" stroke="#666666" points="529,-89.5 356,-89.5 356,-48.5 529,-48.5 529,-89.5"/>
<text text-anchor="start" x="364" y="-77.5" font-family="Helvetica,sans-Serif" font-size="10.00">Arcane::Accelerator</text>
<text text-anchor="start" x="364" y="-66.5" font-family="Helvetica,sans-Serif" font-size="10.00">::Impl::RunCommandLaunchInfo</text>
<text text-anchor="middle" x="442.5" y="-55.5" font-family="Helvetica,sans-Serif" font-size="10.00">::loopRunInfo</text>
</a>
</g>
</g>
<!-- Node2&#45;&gt;Node12 -->
<g id="edge11_Node000002_Node000012" class="edge">
<title>Node2&#45;&gt;Node12</title>
<g id="a_edge11_Node000002_Node000012"><a xlink:title=" ">
<path fill="none" stroke="#63b8ff" d="M320.11,-103.96C333.17,-100.2 347.02,-96.21 360.52,-92.32"/>
<polygon fill="#63b8ff" stroke="#63b8ff" points="361.62,-95.65 370.26,-89.52 359.68,-88.92 361.62,-95.65"/>
</a>
</g>
</g>
<!-- Node13 -->
<g id="Node000013" class="node">
<title>Node13</title>
<g id="a_Node000013"><a xlink:href="../../de/dae/namespaceArcane_1_1Accelerator.html#a7a180bb34b6c0f003f0f2c80a7f0ba42" target="_top" xlink:title="Créé une commande associée à la file run_queue.">
<polygon fill="white" stroke="#666666" points="498.5,-30 386.5,-30 386.5,0 498.5,0 498.5,-30"/>
<text text-anchor="start" x="394.5" y="-18" font-family="Helvetica,sans-Serif" font-size="10.00">Arcane::Accelerator</text>
<text text-anchor="middle" x="442.5" y="-7" font-family="Helvetica,sans-Serif" font-size="10.00">::makeCommand</text>
</a>
</g>
</g>
<!-- Node2&#45;&gt;Node13 -->
<g id="edge12_Node000002_Node000013" class="edge">
<title>Node2&#45;&gt;Node13</title>
<g id="a_edge12_Node000002_Node000013"><a xlink:title=" ">
<path fill="none" stroke="#63b8ff" d="M274.1,-102.48C293.49,-83.76 324.47,-56.57 356,-40 362.49,-36.59 369.52,-33.58 376.65,-30.95"/>
<polygon fill="#63b8ff" stroke="#63b8ff" points="378.09,-34.15 386.41,-27.59 375.81,-27.54 378.09,-34.15"/>
</a>
</g>
</g>
<!-- Node4 -->
<g id="Node000004" class="node">
<title>Node4</title>
<g id="a_Node000004"><a xlink:href="../../d9/d4f/classArcane_1_1Accelerator_1_1Impl_1_1RunCommandLaunchInfo.html#aa7981f75e88471187f65dc23af007b41" target="_top" xlink:title="Calcule la valeur de m_loop_run_info.">
<polygon fill="white" stroke="#666666" points="738,-256.5 565,-256.5 565,-215.5 738,-215.5 738,-256.5"/>
<text text-anchor="start" x="573" y="-244.5" font-family="Helvetica,sans-Serif" font-size="10.00">Arcane::Accelerator</text>
<text text-anchor="start" x="573" y="-233.5" font-family="Helvetica,sans-Serif" font-size="10.00">::Impl::RunCommandLaunchInfo</text>
<text text-anchor="middle" x="651.5" y="-222.5" font-family="Helvetica,sans-Serif" font-size="10.00">::_computeLoopRunInfo</text>
</a>
</g>
</g>
<!-- Node3&#45;&gt;Node4 -->
<g id="edge3_Node000003_Node000004" class="edge">
<title>Node3&#45;&gt;Node4</title>
<g id="a_edge3_Node000003_Node000004"><a xlink:title=" ">
<path fill="none" stroke="#63b8ff" d="M529.19,-236C537.66,-236 546.3,-236 554.87,-236"/>
<polygon fill="#63b8ff" stroke="#63b8ff" points="554.88,-239.5 564.88,-236 554.88,-232.5 554.88,-239.5"/>
</a>
</g>
</g>
<!-- Node5 -->
<g id="Node000005" class="node">
<title>Node5</title>
<g id="a_Node000005"><a xlink:href="../../d9/d4f/classArcane_1_1Accelerator_1_1Impl_1_1RunCommandLaunchInfo.html#aaebbb32edb26bd9945b1fb7f3e582dc9" target="_top" xlink:title="Calcule et retourne les informations pour les boucles multi&#45;thread.">
<polygon fill="white" stroke="#666666" points="947,-256.5 774,-256.5 774,-215.5 947,-215.5 947,-256.5"/>
<text text-anchor="start" x="782" y="-244.5" font-family="Helvetica,sans-Serif" font-size="10.00">Arcane::Accelerator</text>
<text text-anchor="start" x="782" y="-233.5" font-family="Helvetica,sans-Serif" font-size="10.00">::Impl::RunCommandLaunchInfo</text>
<text text-anchor="middle" x="860.5" y="-222.5" font-family="Helvetica,sans-Serif" font-size="10.00">::computeParallelLoopOptions</text>
</a>
</g>
</g>
<!-- Node4&#45;&gt;Node5 -->
<g id="edge4_Node000004_Node000005" class="edge">
<title>Node4&#45;&gt;Node5</title>
<g id="a_edge4_Node000004_Node000005"><a xlink:title=" ">
<path fill="none" stroke="#63b8ff" d="M738.19,-236C746.66,-236 755.3,-236 763.87,-236"/>
<polygon fill="#63b8ff" stroke="#63b8ff" points="763.88,-239.5 773.88,-236 763.88,-232.5 763.88,-239.5"/>
</a>
</g>
</g>
<!-- Node6 -->
<g id="Node000006" class="node">
<title>Node6</title>
<g id="a_Node000006"><a xlink:href="../../d9/d62/classArcane_1_1ParallelLoopOptions.html#a2f99ac84bbb9eedb4e3de78d0e4f9e6b" target="_top" xlink:title="Taille d&#39;un intervalle d&#39;itération.">
<polygon fill="white" stroke="#666666" points="1136,-323 983,-323 983,-293 1136,-293 1136,-323"/>
<text text-anchor="start" x="991" y="-311" font-family="Helvetica,sans-Serif" font-size="10.00">Arcane::ParallelLoopOptions</text>
<text text-anchor="middle" x="1059.5" y="-300" font-family="Helvetica,sans-Serif" font-size="10.00">::grainSize</text>
</a>
</g>
</g>
<!-- Node5&#45;&gt;Node6 -->
<g id="edge5_Node000005_Node000006" class="edge">
<title>Node5&#45;&gt;Node6</title>
<g id="a_edge5_Node000005_Node000006"><a xlink:title=" ">
<path fill="none" stroke="#63b8ff" d="M911.16,-256.51C933.06,-265.32 959.18,-275.52 983,-284 988.48,-285.95 994.21,-287.91 999.95,-289.83"/>
<polygon fill="#63b8ff" stroke="#63b8ff" points="999.01,-293.2 1009.6,-292.99 1001.19,-286.55 999.01,-293.2"/>
</a>
</g>
</g>
<!-- Node7 -->
<g id="Node000007" class="node">
<title>Node7</title>
<g id="a_Node000007"><a xlink:href="../../d2/d94/classArcane_1_1ConcurrencyBase.html#a97edb013bee4ce83c3272e67b3d23f17" target="_top" xlink:title="Nombre maximum de threads autorisés pour le multi&#45;threading.">
<polygon fill="white" stroke="#666666" points="1130,-275 989,-275 989,-245 1130,-245 1130,-275"/>
<text text-anchor="start" x="997" y="-263" font-family="Helvetica,sans-Serif" font-size="10.00">Arcane::ConcurrencyBase</text>
<text text-anchor="middle" x="1059.5" y="-252" font-family="Helvetica,sans-Serif" font-size="10.00">::maxAllowedThread</text>
</a>
</g>
</g>
<!-- Node5&#45;&gt;Node7 -->
<g id="edge6_Node000005_Node000007" class="edge">
<title>Node5&#45;&gt;Node7</title>
<g id="a_edge6_Node000005_Node000007"><a xlink:title=" ">
<path fill="none" stroke="#63b8ff" d="M947.05,-246.42C957.48,-247.69 968.12,-248.99 978.47,-250.25"/>
<polygon fill="#63b8ff" stroke="#63b8ff" points="978.36,-253.76 988.71,-251.5 979.2,-246.81 978.36,-253.76"/>
</a>
</g>
</g>
<!-- Node8 -->
<g id="Node000008" class="node">
<title>Node8</title>
<g id="a_Node000008"><a xlink:href="../../d9/d62/classArcane_1_1ParallelLoopOptions.html#a6c4de2fa0187b8b96afa9c7f2148fe62" target="_top" xlink:title="Nombre maximal de threads autorisés.">
<polygon fill="white" stroke="#666666" points="1136,-227 983,-227 983,-197 1136,-197 1136,-227"/>
<text text-anchor="start" x="991" y="-215" font-family="Helvetica,sans-Serif" font-size="10.00">Arcane::ParallelLoopOptions</text>
<text text-anchor="middle" x="1059.5" y="-204" font-family="Helvetica,sans-Serif" font-size="10.00">::maxThread</text>
</a>
</g>
</g>
<!-- Node5&#45;&gt;Node8 -->
<g id="edge7_Node000005_Node000008" class="edge">
<title>Node5&#45;&gt;Node8</title>
<g id="a_edge7_Node000005_Node000008"><a xlink:title=" ">
<path fill="none" stroke="#63b8ff" d="M947.05,-225.58C955.63,-224.53 964.35,-223.47 972.93,-222.42"/>
<polygon fill="#63b8ff" stroke="#63b8ff" points="973.42,-225.89 982.93,-221.21 972.58,-218.94 973.42,-225.89"/>
</a>
</g>
</g>
<!-- Node9 -->
<g id="Node000009" class="node">
<title>Node9</title>
<g id="a_Node000009"><a xlink:href="../../d9/d62/classArcane_1_1ParallelLoopOptions.html#abb6d3a03def71e968fb0a8f200319c66" target="_top" xlink:title="Positionne la taille (approximative) d&#39;un intervalle d&#39;itération.">
<polygon fill="white" stroke="#666666" points="1136,-179 983,-179 983,-149 1136,-149 1136,-179"/>
<text text-anchor="start" x="991" y="-167" font-family="Helvetica,sans-Serif" font-size="10.00">Arcane::ParallelLoopOptions</text>
<text text-anchor="middle" x="1059.5" y="-156" font-family="Helvetica,sans-Serif" font-size="10.00">::setGrainSize</text>
</a>
</g>
</g>
<!-- Node5&#45;&gt;Node9 -->
<g id="edge8_Node000005_Node000009" class="edge">
<title>Node5&#45;&gt;Node9</title>
<g id="a_edge8_Node000005_Node000009"><a xlink:title=" ">
<path fill="none" stroke="#63b8ff" d="M911.16,-215.49C933.06,-206.68 959.18,-196.48 983,-188 988.48,-186.05 994.21,-184.09 999.95,-182.17"/>
<polygon fill="#63b8ff" stroke="#63b8ff" points="1001.19,-185.45 1009.6,-179.01 999.01,-178.8 1001.19,-185.45"/>
</a>
</g>
</g>
</g>
</svg>
