<?xml version="1.0" encoding="UTF-8" standalone="no"?>
<!DOCTYPE svg PUBLIC "-//W3C//DTD SVG 1.1//EN"
 "http://www.w3.org/Graphics/SVG/1.1/DTD/svg11.dtd">
<!-- Generated by graphviz version 2.43.0 (0)
 -->
<!-- Title: Arcane::Alina::GMRESSolver&lt; Backend, InnerProduct &gt; Pages: 1 -->
<svg width="155pt" height="348pt"
 viewBox="0.00 0.00 155.00 348.00" xmlns="http://www.w3.org/2000/svg" xmlns:xlink="http://www.w3.org/1999/xlink">

<svg id="main" version="1.1" xmlns="http://www.w3.org/2000/svg" xmlns:xlink="http://www.w3.org/1999/xlink" xml:space="preserve">

<style type="text/css"><![CDATA[
.node, .edge {opacity: 0.7;}
.node.selected, .edge.selected {opacity: 1;}
.edge:hover path { stroke: red; }
.edge:hover polygon { stroke: red; fill: red; }
]]></style>
<script type="application/ecmascript" xlink:href="../../svg.min.js"/>
<svg id="graph" class="graph">
<g id="graph0" class="graph" transform="scale(1 1) rotate(0) translate(4 344)">
<title>Arcane::Alina::GMRESSolver&lt; Backend, InnerProduct &gt;</title>
<!-- Node1 -->
<g id="Node000001" class="node">
<title>Node1</title>
<g id="a_Node000001"><a xlink:title="Generalized Minimal Residual (GMRES) method.">
<polygon fill="#999999" stroke="transparent" points="147,-240 0,-240 0,0 147,0 147,-240"/>
<text text-anchor="start" x="5.5" y="-228" font-family="Helvetica,sans-Serif" font-size="10.00">Arcane::Alina::GMRESSolver</text>
<text text-anchor="start" x="8" y="-217" font-family="Helvetica,sans-Serif" font-size="10.00">&lt; Backend, InnerProduct &gt;</text>
<text text-anchor="start" x="17.5" y="-202" font-family="Helvetica,sans-Serif" font-size="10.00">+</text>
<text text-anchor="start" x="43.5" y="-202" font-family="Helvetica,sans-Serif" font-size="10.00">prm</text>
<text text-anchor="start" x="20" y="-187" font-family="Helvetica,sans-Serif" font-size="10.00">&#45;</text>
<text text-anchor="start" x="43.5" y="-187" font-family="Helvetica,sans-Serif" font-size="10.00">n</text>
<text text-anchor="start" x="20" y="-172" font-family="Helvetica,sans-Serif" font-size="10.00">&#45;</text>
<text text-anchor="start" x="43.5" y="-172" font-family="Helvetica,sans-Serif" font-size="10.00">H</text>
<text text-anchor="start" x="20" y="-157" font-family="Helvetica,sans-Serif" font-size="10.00">&#45;</text>
<text text-anchor="start" x="43.5" y="-157" font-family="Helvetica,sans-Serif" font-size="10.00">s</text>
<text text-anchor="start" x="20" y="-142" font-family="Helvetica,sans-Serif" font-size="10.00">&#45;</text>
<text text-anchor="start" x="43.5" y="-142" font-family="Helvetica,sans-Serif" font-size="10.00">cs</text>
<text text-anchor="start" x="20" y="-127" font-family="Helvetica,sans-Serif" font-size="10.00">&#45;</text>
<text text-anchor="start" x="43.5" y="-127" font-family="Helvetica,sans-Serif" font-size="10.00">sn</text>
<text text-anchor="start" x="20" y="-112" font-family="Helvetica,sans-Serif" font-size="10.00">&#45;</text>
<text text-anchor="start" x="43.5" y="-112" font-family="Helvetica,sans-Serif" font-size="10.00">r</text>
<text text-anchor="start" x="20" y="-97" font-family="Helvetica,sans-Serif" font-size="10.00">&#45;</text>
<text text-anchor="start" x="43.5" y="-97" font-family="Helvetica,sans-Serif" font-size="10.00">v</text>
<text text-anchor="start" x="20" y="-82" font-family="Helvetica,sans-Serif" font-size="10.00">&#45;</text>
<text text-anchor="start" x="43.5" y="-82" font-family="Helvetica,sans-Serif" font-size="10.00">inner_product</text>
<text text-anchor="start" x="17.5" y="-67" font-family="Helvetica,sans-Serif" font-size="10.00">+</text>
<text text-anchor="start" x="43.5" y="-67" font-family="Helvetica,sans-Serif" font-size="10.00">GMRESSolver()</text>
<text text-anchor="start" x="17.5" y="-52" font-family="Helvetica,sans-Serif" font-size="10.00">+</text>
<text text-anchor="start" x="43.5" y="-52" font-family="Helvetica,sans-Serif" font-size="10.00">operator()()</text>
<text text-anchor="start" x="17.5" y="-37" font-family="Helvetica,sans-Serif" font-size="10.00">+</text>
<text text-anchor="start" x="43.5" y="-37" font-family="Helvetica,sans-Serif" font-size="10.00">operator()()</text>
<text text-anchor="start" x="17.5" y="-22" font-family="Helvetica,sans-Serif" font-size="10.00">+</text>
<text text-anchor="start" x="43.5" y="-22" font-family="Helvetica,sans-Serif" font-size="10.00">bytes()</text>
<text text-anchor="start" x="20" y="-7" font-family="Helvetica,sans-Serif" font-size="10.00">&#45;</text>
<text text-anchor="start" x="43.5" y="-7" font-family="Helvetica,sans-Serif" font-size="10.00">norm()</text>
<polygon fill="#666666" stroke="#666666" points="0.5,-212 0.5,-212 147.5,-212 147.5,-212 0.5,-212"/>
<polygon fill="#666666" stroke="#666666" points="0.5,-77 0.5,-77 41.5,-77 41.5,-77 0.5,-77"/>
<polygon fill="#666666" stroke="#666666" points="41.5,-77 41.5,-77 147.5,-77 147.5,-77 41.5,-77"/>
<polygon fill="none" stroke="#666666" points="0,0 0,-240 147,-240 147,0 0,0"/>
</a>
</g>
</g>
<!-- Node2 -->
<g id="Node000002" class="node">
<title>Node2</title>
<g id="a_Node000002"><a xlink:href="../../d0/def/classArcane_1_1Alina_1_1SolverBase.html" target="_top" xlink:title="Base class for solvers.">
<polygon fill="white" stroke="transparent" points="141.5,-340 5.5,-340 5.5,-276 141.5,-276 141.5,-340"/>
<text text-anchor="start" x="10.5" y="-328" font-family="Helvetica,sans-Serif" font-size="10.00">Arcane::Alina::SolverBase</text>
<text text-anchor="start" x="71.5" y="-313" font-family="Helvetica,sans-Serif" font-size="10.00"> </text>
<text text-anchor="start" x="20.5" y="-298" font-family="Helvetica,sans-Serif" font-size="10.00">+</text>
<text text-anchor="start" x="44.5" y="-298" font-family="Helvetica,sans-Serif" font-size="10.00">~SolverBase()</text>
<text text-anchor="start" x="20.5" y="-283" font-family="Helvetica,sans-Serif" font-size="10.00">+</text>
<text text-anchor="start" x="44.5" y="-283" font-family="Helvetica,sans-Serif" font-size="10.00">bytes()</text>
<polygon fill="#666666" stroke="#666666" points="5.5,-323 5.5,-323 141.5,-323 141.5,-323 5.5,-323"/>
<polygon fill="#666666" stroke="#666666" points="5.5,-308 5.5,-308 141.5,-308 141.5,-308 5.5,-308"/>
<polygon fill="none" stroke="#666666" points="5.5,-276 5.5,-340 141.5,-340 141.5,-276 5.5,-276"/>
</a>
</g>
</g>
<!-- Node2&#45;&gt;Node1 -->
<g id="edge1_Node000001_Node000002" class="edge">
<title>Node2&#45;&gt;Node1</title>
<g id="a_edge1_Node000001_Node000002"><a xlink:title=" ">
<path fill="none" stroke="#63b8ff" d="M73.5,-265.66C73.5,-257.82 73.5,-249.27 73.5,-240.36"/>
<polygon fill="none" stroke="#63b8ff" points="70,-265.87 73.5,-275.87 77,-265.87 70,-265.87"/>
</a>
</g>
</g>
</g>
</svg>
</svg>

<style type='text/css'>
<![CDATA[
[data-mouse-over-selected='false'] { opacity: 0.7; }
[data-mouse-over-selected='true']  { opacity: 1.0; }
]]>
</style>
<script type="application/ecmascript"><![CDATA[
document.addEventListener('DOMContentLoaded', (event) => {
  highlightEdges();
  highlightAdjacentNodes();
});
]]></script>
</svg>
