<?xml version="1.0" encoding="UTF-8" standalone="no"?>
<!DOCTYPE svg PUBLIC "-//W3C//DTD SVG 1.1//EN"
 "http://www.w3.org/Graphics/SVG/1.1/DTD/svg11.dtd">
<!-- Generated by graphviz version 2.43.0 (0)
 -->
<!-- Title: Arcane::ItemGroupImplNull Pages: 1 -->
<!--zoomable 942 -->

<svg id="main" version="1.1" xmlns="http://www.w3.org/2000/svg" xmlns:xlink="http://www.w3.org/1999/xlink" xml:space="preserve" onload="init(evt)">

<style type="text/css"><![CDATA[
.node, .edge {opacity: 0.7;}
.node.selected, .edge.selected {opacity: 1;}
.edge:hover path { stroke: red; }
.edge:hover polygon { stroke: red; fill: red; }
]]></style>

<defs>
  <circle id="rim" cx="0" cy="0" r="7"/>
  <circle id="rim2" cx="0" cy="0" r="3.5"/>
  <g id="zoomPlus">
    <use xlink:href="#rim" fill="#404040"><set attributeName="fill" to="#808080" begin="zoomplus.mouseover" end="zoomplus.mouseout"/></use>
    <path d="M-4,0h8M0,-4v8" fill="none" stroke="white" stroke-width="1.5" pointer-events="none"/>
  </g>
  <g id="zoomMin">
    <use xlink:href="#rim" fill="#404040"><set attributeName="fill" to="#808080" begin="zoomminus.mouseover" end="zoomminus.mouseout"/></use>
    <path d="M-4,0h8" fill="none" stroke="white" stroke-width="1.5" pointer-events="none"/>
  </g>
  <g id="arrowUp" transform="translate(30 24)">
    <use xlink:href="#rim"/>
    <path pointer-events="none" fill="none" stroke="white" stroke-width="1.5" d="M0,-3.0v7 M-2.5,-0.5L0,-3.0L2.5,-0.5"/>
  </g>
  <g id="arrowRight" transform="rotate(90) translate(36 -43)">
    <use xlink:href="#rim"/>
    <path pointer-events="none" fill="none" stroke="white" stroke-width="1.5" d="M0,-3.0v7 M-2.5,-0.5L0,-3.0L2.5,-0.5"/>
  </g>
  <g id="arrowDown" transform="rotate(180) translate(-30 -48)">
    <use xlink:href="#rim"/>
    <path pointer-events="none" fill="none" stroke="white" stroke-width="1.5" d="M0,-3.0v7 M-2.5,-0.5L0,-3.0L2.5,-0.5"/>
  </g>
  <g id="arrowLeft" transform="rotate(270) translate(-36 17)">
    <use xlink:href="#rim"/>
    <path pointer-events="none" fill="none" stroke="white" stroke-width="1.5" d="M0,-3.0v7 M-2.5,-0.5L0,-3.0L2.5,-0.5"/>
  </g>
  <g id="resetDef">
    <use xlink:href="#rim2" fill="#404040"><set attributeName="fill" to="#808080" begin="reset.mouseover" end="reset.mouseout"/></use>
  </g>
</defs>
<script type="application/ecmascript">
var viewWidth = 192;
var viewHeight = 942;
var sectionId = 'dynsection-0';
</script>
<script type="application/ecmascript" xlink:href="../../svg.min.js"/>
<svg id="graph" class="graph">
<g id="viewport">
<title>Arcane::ItemGroupImplNull</title>
<!-- Node1 -->
<g id="Node000001" class="node">
<title>Node1</title>
<g id="a_Node000001"><a xlink:title="Classe d&#39;un groupe nul.">
<polygon fill="#999999" stroke="transparent" points="163.5,-139 20.5,-139 20.5,0 163.5,0 163.5,-139"/>
<text text-anchor="start" x="26" y="-126.5" font-family="Helvetica,sans-Serif" font-size="10.00">Arcane::ItemGroupImplNull</text>
<text text-anchor="start" x="32.5" y="-111.5" font-family="Helvetica,sans-Serif" font-size="10.00">&#45;</text>
<text text-anchor="start" x="48" y="-111.5" font-family="Helvetica,sans-Serif" font-size="10.00">m_name</text>
<text text-anchor="start" x="30" y="-96.5" font-family="Helvetica,sans-Serif" font-size="10.00">+</text>
<text text-anchor="start" x="48" y="-96.5" font-family="Helvetica,sans-Serif" font-size="10.00">ItemGroupImplNull()</text>
<text text-anchor="start" x="30" y="-81.5" font-family="Helvetica,sans-Serif" font-size="10.00">+</text>
<text text-anchor="start" x="48" y="-81.5" font-family="Helvetica,sans-Serif" font-size="10.00">name()</text>
<text text-anchor="start" x="30" y="-66.5" font-family="Helvetica,sans-Serif" font-size="10.00">+</text>
<text text-anchor="start" x="48" y="-66.5" font-family="Helvetica,sans-Serif" font-size="10.00">fullName()</text>
<text text-anchor="start" x="30" y="-51.5" font-family="Helvetica,sans-Serif" font-size="10.00">+</text>
<text text-anchor="start" x="48" y="-51.5" font-family="Helvetica,sans-Serif" font-size="10.00">convert()</text>
<text text-anchor="start" x="30" y="-36.5" font-family="Helvetica,sans-Serif" font-size="10.00">+</text>
<text text-anchor="start" x="48" y="-36.5" font-family="Helvetica,sans-Serif" font-size="10.00">convert()</text>
<text text-anchor="start" x="30" y="-21.5" font-family="Helvetica,sans-Serif" font-size="10.00">+</text>
<text text-anchor="start" x="48" y="-21.5" font-family="Helvetica,sans-Serif" font-size="10.00">convert()</text>
<text text-anchor="start" x="30" y="-6.5" font-family="Helvetica,sans-Serif" font-size="10.00">+</text>
<text text-anchor="start" x="48" y="-6.5" font-family="Helvetica,sans-Serif" font-size="10.00">convert()</text>
<polygon fill="#666666" stroke="#666666" points="21,-121.5 21,-121.5 164,-121.5 164,-121.5 21,-121.5"/>
<polygon fill="#666666" stroke="#666666" points="21,-106.5 21,-106.5 46,-106.5 46,-106.5 21,-106.5"/>
<polygon fill="#666666" stroke="#666666" points="46,-106.5 46,-106.5 164,-106.5 164,-106.5 46,-106.5"/>
<polygon fill="none" stroke="#666666" points="20.5,0 20.5,-139 163.5,-139 163.5,0 20.5,0"/>
</a>
</g>
</g>
<!-- Node2 -->
<g id="Node000002" class="node">
<title>Node2</title>
<g id="a_Node000002"><a xlink:href="../../da/df1/classArcane_1_1ItemGroupImpl.html" target="_top" xlink:title="Implémentation d&#39;un groupe d&#39;entités de maillage.">
<polygon fill="white" stroke="transparent" points="184,-659 0,-659 0,-175 184,-175 184,-659"/>
<text text-anchor="start" x="35" y="-647" font-family="Helvetica,sans-Serif" font-size="10.00">Arcane::ItemGroupImpl</text>
<text text-anchor="start" x="6.5" y="-632" font-family="Helvetica,sans-Serif" font-size="10.00">&#45;</text>
<text text-anchor="start" x="17" y="-632" font-family="Helvetica,sans-Serif" font-size="10.00">ItemGroup</text>
<text text-anchor="start" x="6.5" y="-617" font-family="Helvetica,sans-Serif" font-size="10.00">&#45;</text>
<text text-anchor="start" x="17" y="-617" font-family="Helvetica,sans-Serif" font-size="10.00">m_p</text>
<text text-anchor="start" x="6.5" y="-602" font-family="Helvetica,sans-Serif" font-size="10.00">&#45;</text>
<text text-anchor="start" x="17" y="-602" font-family="Helvetica,sans-Serif" font-size="10.00">shared_null</text>
<text text-anchor="start" x="4" y="-587" font-family="Helvetica,sans-Serif" font-size="10.00">+</text>
<text text-anchor="start" x="17" y="-587" font-family="Helvetica,sans-Serif" font-size="10.00">ItemGroupImpl()</text>
<text text-anchor="start" x="4" y="-572" font-family="Helvetica,sans-Serif" font-size="10.00">+</text>
<text text-anchor="start" x="17" y="-572" font-family="Helvetica,sans-Serif" font-size="10.00">ItemGroupImpl()</text>
<text text-anchor="start" x="4" y="-557" font-family="Helvetica,sans-Serif" font-size="10.00">+</text>
<text text-anchor="start" x="17" y="-557" font-family="Helvetica,sans-Serif" font-size="10.00">ItemGroupImpl()</text>
<text text-anchor="start" x="4" y="-542" font-family="Helvetica,sans-Serif" font-size="10.00">+</text>
<text text-anchor="start" x="17" y="-542" font-family="Helvetica,sans-Serif" font-size="10.00">~ItemGroupImpl()</text>
<text text-anchor="start" x="4" y="-527" font-family="Helvetica,sans-Serif" font-size="10.00">+</text>
<text text-anchor="start" x="17" y="-527" font-family="Helvetica,sans-Serif" font-size="10.00">sharedReference()</text>
<text text-anchor="start" x="4" y="-512" font-family="Helvetica,sans-Serif" font-size="10.00">+</text>
<text text-anchor="start" x="17" y="-512" font-family="Helvetica,sans-Serif" font-size="10.00">name()</text>
<text text-anchor="start" x="4" y="-497" font-family="Helvetica,sans-Serif" font-size="10.00">+</text>
<text text-anchor="start" x="17" y="-497" font-family="Helvetica,sans-Serif" font-size="10.00">fullName()</text>
<text text-anchor="start" x="4" y="-482" font-family="Helvetica,sans-Serif" font-size="10.00">+</text>
<text text-anchor="start" x="17" y="-482" font-family="Helvetica,sans-Serif" font-size="10.00">nbRef()</text>
<text text-anchor="start" x="4" y="-467" font-family="Helvetica,sans-Serif" font-size="10.00">+</text>
<text text-anchor="start" x="17" y="-467" font-family="Helvetica,sans-Serif" font-size="10.00">parent()</text>
<text text-anchor="start" x="4" y="-452" font-family="Helvetica,sans-Serif" font-size="10.00">+</text>
<text text-anchor="start" x="17" y="-452" font-family="Helvetica,sans-Serif" font-size="10.00">null()</text>
<text text-anchor="start" x="17" y="-437" font-family="Helvetica,sans-Serif" font-size="10.00">et 68 de plus...</text>
<text text-anchor="start" x="4" y="-422" font-family="Helvetica,sans-Serif" font-size="10.00">+</text>
<text text-anchor="start" x="17" y="-422" font-family="Helvetica,sans-Serif" font-size="10.00">checkSharedNull()</text>
<text text-anchor="start" x="4" y="-407" font-family="Helvetica,sans-Serif" font-size="10.00">+</text>
<text text-anchor="start" x="17" y="-407" font-family="Helvetica,sans-Serif" font-size="10.00">_buildSharedNull()</text>
<text text-anchor="start" x="4" y="-392" font-family="Helvetica,sans-Serif" font-size="10.00">+</text>
<text text-anchor="start" x="17" y="-392" font-family="Helvetica,sans-Serif" font-size="10.00">_destroySharedNull()</text>
<text text-anchor="start" x="6.5" y="-377" font-family="Helvetica,sans-Serif" font-size="10.00">&#45;</text>
<text text-anchor="start" x="17" y="-377" font-family="Helvetica,sans-Serif" font-size="10.00">_computeChildrenByType()</text>
<text text-anchor="start" x="6.5" y="-362" font-family="Helvetica,sans-Serif" font-size="10.00">&#45;</text>
<text text-anchor="start" x="17" y="-362" font-family="Helvetica,sans-Serif" font-size="10.00">_executeExtend()</text>
<text text-anchor="start" x="6.5" y="-347" font-family="Helvetica,sans-Serif" font-size="10.00">&#45;</text>
<text text-anchor="start" x="17" y="-347" font-family="Helvetica,sans-Serif" font-size="10.00">_executeReduce()</text>
<text text-anchor="start" x="6.5" y="-332" font-family="Helvetica,sans-Serif" font-size="10.00">&#45;</text>
<text text-anchor="start" x="17" y="-332" font-family="Helvetica,sans-Serif" font-size="10.00">_executeCompact()</text>
<text text-anchor="start" x="6.5" y="-317" font-family="Helvetica,sans-Serif" font-size="10.00">&#45;</text>
<text text-anchor="start" x="17" y="-317" font-family="Helvetica,sans-Serif" font-size="10.00">_executeReorder()</text>
<text text-anchor="start" x="6.5" y="-302" font-family="Helvetica,sans-Serif" font-size="10.00">&#45;</text>
<text text-anchor="start" x="17" y="-302" font-family="Helvetica,sans-Serif" font-size="10.00">_executeInvalidate()</text>
<text text-anchor="start" x="6.5" y="-287" font-family="Helvetica,sans-Serif" font-size="10.00">&#45;</text>
<text text-anchor="start" x="17" y="-287" font-family="Helvetica,sans-Serif" font-size="10.00">_updateNeedInfoFlag()</text>
<text text-anchor="start" x="6.5" y="-272" font-family="Helvetica,sans-Serif" font-size="10.00">&#45;</text>
<text text-anchor="start" x="17" y="-272" font-family="Helvetica,sans-Serif" font-size="10.00">_forceInvalidate()</text>
<text text-anchor="start" x="6.5" y="-257" font-family="Helvetica,sans-Serif" font-size="10.00">&#45;</text>
<text text-anchor="start" x="17" y="-257" font-family="Helvetica,sans-Serif" font-size="10.00">_checkUpdateSimdPadding()</text>
<text text-anchor="start" x="6.5" y="-242" font-family="Helvetica,sans-Serif" font-size="10.00">&#45;</text>
<text text-anchor="start" x="17" y="-242" font-family="Helvetica,sans-Serif" font-size="10.00">deleteMe()</text>
<text text-anchor="start" x="6.5" y="-227" font-family="Helvetica,sans-Serif" font-size="10.00">&#45;</text>
<text text-anchor="start" x="17" y="-227" font-family="Helvetica,sans-Serif" font-size="10.00">_removeItems()</text>
<text text-anchor="start" x="6.5" y="-212" font-family="Helvetica,sans-Serif" font-size="10.00">&#45;</text>
<text text-anchor="start" x="17" y="-212" font-family="Helvetica,sans-Serif" font-size="10.00">_checkNeedUpdateNoPadding()</text>
<text text-anchor="start" x="6.5" y="-197" font-family="Helvetica,sans-Serif" font-size="10.00">&#45;</text>
<text text-anchor="start" x="17" y="-197" font-family="Helvetica,sans-Serif" font-size="10.00">_checkNeedUpdateWithPadding()</text>
<text text-anchor="start" x="6.5" y="-182" font-family="Helvetica,sans-Serif" font-size="10.00">&#45;</text>
<text text-anchor="start" x="17" y="-182" font-family="Helvetica,sans-Serif" font-size="10.00">_checkNeedUpdate()</text>
<polygon fill="#666666" stroke="#666666" points="0,-642 0,-642 184,-642 184,-642 0,-642"/>
<polygon fill="#666666" stroke="#666666" points="0,-597 0,-597 15,-597 15,-597 0,-597"/>
<polygon fill="#666666" stroke="#666666" points="15,-597 15,-597 184,-597 184,-597 15,-597"/>
<polygon fill="none" stroke="#666666" points="0,-175 0,-659 184,-659 184,-175 0,-175"/>
</a>
</g>
</g>
<!-- Node2&#45;&gt;Node1 -->
<g id="edge1_Node000001_Node000002" class="edge">
<title>Node2&#45;&gt;Node1</title>
<g id="a_edge1_Node000001_Node000002"><a xlink:title=" ">
<path fill="none" stroke="#63b8ff" d="M92,-164.49C92,-155.64 92,-147.14 92,-139.12"/>
<polygon fill="none" stroke="#63b8ff" points="88.5,-164.63 92,-174.63 95.5,-164.63 88.5,-164.63"/>
</a>
</g>
</g>
<!-- Node3 -->
<g id="Node000003" class="node">
<title>Node3</title>
<g id="a_Node000003"><a xlink:href="../../dd/d79/classArcane_1_1SharedReference.html" target="_top" xlink:title="Implémentation d&#39;un compteur de référence utilisant std::atomic.">
<polygon fill="white" stroke="transparent" points="159,-804 25,-804 25,-695 159,-695 159,-804"/>
<text text-anchor="start" x="30" y="-791.5" font-family="Helvetica,sans-Serif" font-size="10.00">Arcane::SharedReference</text>
<text text-anchor="start" x="37" y="-776.5" font-family="Helvetica,sans-Serif" font-size="10.00">&#45;</text>
<text text-anchor="start" x="53" y="-776.5" font-family="Helvetica,sans-Serif" font-size="10.00">m_ref_count</text>
<text text-anchor="start" x="34.5" y="-761.5" font-family="Helvetica,sans-Serif" font-size="10.00">+</text>
<text text-anchor="start" x="53" y="-761.5" font-family="Helvetica,sans-Serif" font-size="10.00">SharedReference()</text>
<text text-anchor="start" x="34.5" y="-746.5" font-family="Helvetica,sans-Serif" font-size="10.00">+</text>
<text text-anchor="start" x="53" y="-746.5" font-family="Helvetica,sans-Serif" font-size="10.00">addRef()</text>
<text text-anchor="start" x="34.5" y="-731.5" font-family="Helvetica,sans-Serif" font-size="10.00">+</text>
<text text-anchor="start" x="53" y="-731.5" font-family="Helvetica,sans-Serif" font-size="10.00">removeRef()</text>
<text text-anchor="start" x="34.5" y="-716.5" font-family="Helvetica,sans-Serif" font-size="10.00">+</text>
<text text-anchor="start" x="53" y="-716.5" font-family="Helvetica,sans-Serif" font-size="10.00">refCount()</text>
<text text-anchor="start" x="34.5" y="-701.5" font-family="Helvetica,sans-Serif" font-size="10.00">+</text>
<text text-anchor="start" x="53" y="-701.5" font-family="Helvetica,sans-Serif" font-size="10.00">deleteMe()</text>
<polygon fill="#666666" stroke="#666666" points="25,-786.5 25,-786.5 159,-786.5 159,-786.5 25,-786.5"/>
<polygon fill="#666666" stroke="#666666" points="25,-771.5 25,-771.5 51,-771.5 51,-771.5 25,-771.5"/>
<polygon fill="#666666" stroke="#666666" points="51,-771.5 51,-771.5 159,-771.5 159,-771.5 51,-771.5"/>
<polygon fill="none" stroke="#666666" points="25,-695 25,-804 159,-804 159,-695 25,-695"/>
</a>
</g>
</g>
<!-- Node3&#45;&gt;Node2 -->
<g id="edge2_Node000002_Node000003" class="edge">
<title>Node3&#45;&gt;Node2</title>
<g id="a_edge2_Node000002_Node000003"><a xlink:title=" ">
<path fill="none" stroke="#63b8ff" d="M92,-684.48C92,-676.5 92,-668.01 92,-659.15"/>
<polygon fill="none" stroke="#63b8ff" points="88.5,-684.66 92,-694.66 95.5,-684.66 88.5,-684.66"/>
</a>
</g>
</g>
<!-- Node4 -->
<g id="Node000004" class="node">
<title>Node4</title>
<g id="a_Node000004"><a xlink:href="../../de/d86/classArcane_1_1ISharedReference.html" target="_top" xlink:title="Interface d&#39;un compteur de référence.">
<polygon fill="white" stroke="transparent" points="160.5,-934 23.5,-934 23.5,-840 160.5,-840 160.5,-934"/>
<text text-anchor="start" x="29" y="-922" font-family="Helvetica,sans-Serif" font-size="10.00">Arcane::ISharedReference</text>
<text text-anchor="start" x="90.5" y="-907" font-family="Helvetica,sans-Serif" font-size="10.00"> </text>
<text text-anchor="start" x="31" y="-892" font-family="Helvetica,sans-Serif" font-size="10.00">+</text>
<text text-anchor="start" x="47" y="-892" font-family="Helvetica,sans-Serif" font-size="10.00">~ISharedReference()</text>
<text text-anchor="start" x="31" y="-877" font-family="Helvetica,sans-Serif" font-size="10.00">+</text>
<text text-anchor="start" x="47" y="-877" font-family="Helvetica,sans-Serif" font-size="10.00">addRef()</text>
<text text-anchor="start" x="31" y="-862" font-family="Helvetica,sans-Serif" font-size="10.00">+</text>
<text text-anchor="start" x="47" y="-862" font-family="Helvetica,sans-Serif" font-size="10.00">removeRef()</text>
<text text-anchor="start" x="31" y="-847" font-family="Helvetica,sans-Serif" font-size="10.00">+</text>
<text text-anchor="start" x="47" y="-847" font-family="Helvetica,sans-Serif" font-size="10.00">refCount()</text>
<polygon fill="#666666" stroke="#666666" points="24,-917 24,-917 161,-917 161,-917 24,-917"/>
<polygon fill="#666666" stroke="#666666" points="24,-902 24,-902 161,-902 161,-902 24,-902"/>
<polygon fill="none" stroke="#666666" points="23.5,-840 23.5,-934 160.5,-934 160.5,-840 23.5,-840"/>
</a>
</g>
</g>
<!-- Node4&#45;&gt;Node3 -->
<g id="edge3_Node000003_Node000004" class="edge">
<title>Node4&#45;&gt;Node3</title>
<g id="a_edge3_Node000003_Node000004"><a xlink:title=" ">
<path fill="none" stroke="#63b8ff" d="M92,-829.58C92,-821.12 92,-812.41 92,-804.01"/>
<polygon fill="none" stroke="#63b8ff" points="88.5,-829.75 92,-839.75 95.5,-829.75 88.5,-829.75"/>
</a>
</g>
</g>
</g>
</svg>

<g id="navigator" transform="translate(0 0)" fill="#404254">
  <rect fill="#f2f5e9" fill-opacity="0.5" stroke="#606060" stroke-width=".5" x="0" y="0" width="60" height="60"/>
  <use id="zoomplus" xlink:href="#zoomPlus" x="17" y="9" onmousedown="handleZoom(evt,'in')"/>
  <use id="zoomminus" xlink:href="#zoomMin" x="42" y="9" onmousedown="handleZoom(evt,'out')"/>
  <use id="reset" xlink:href="#resetDef" x="30" y="36" onmousedown="handleReset()"/>
   <use id="arrowup" xlink:href="#arrowUp" x="0" y="0" onmousedown="handlePan(0,-1)"/>
  <use id="arrowright" xlink:href="#arrowRight" x="0" y="0" onmousedown="handlePan(1,0)"/>
  <use id="arrowdown" xlink:href="#arrowDown" x="0" y="0" onmousedown="handlePan(0,1)"/>
  <use id="arrowleft" xlink:href="#arrowLeft" x="0" y="0" onmousedown="handlePan(-1,0)"/>
</g>
<svg viewBox="0 0 15 15" width="100%" height="30px" preserveAspectRatio="xMaxYMin meet">
 <g id="arrow_out" transform="scale(0.3 0.3)">
  <a xlink:href="classArcane_1_1ItemGroupImplNull__inherit__graph_org.svg" target="_base">
   <rect id="button" ry="5" rx="5" y="6" x="6" height="38" width="38"
        fill="#f2f5e9" fill-opacity="0.5" stroke="#606060" stroke-width="1.0"/>
   <path id="arrow"
     d="M 11.500037,31.436501 C 11.940474,20.09759 22.043105,11.32322 32.158766,21.979434 L 37.068811,17.246167 C 37.068811,17.246167 37.088388,32 37.088388,32 L 22.160133,31.978069 C 22.160133,31.978069 26.997745,27.140456 26.997745,27.140456 C 18.528582,18.264221 13.291696,25.230495 11.500037,31.436501 z"
     style="fill:#404040;"/>
  </a>
 </g>
</svg>

<style type='text/css'>
<![CDATA[
[data-mouse-over-selected='false'] { opacity: 0.7; }
[data-mouse-over-selected='true']  { opacity: 1.0; }
]]>
</style>
<script type="application/ecmascript"><![CDATA[
document.addEventListener('DOMContentLoaded', (event) => {
  highlightEdges();
  highlightAdjacentNodes();
});
]]></script>
</svg>
