<?xml version="1.0" encoding="UTF-8" standalone="no"?>
<!DOCTYPE svg PUBLIC "-//W3C//DTD SVG 1.1//EN"
 "http://www.w3.org/Graphics/SVG/1.1/DTD/svg11.dtd">
<!-- Generated by graphviz version 2.43.0 (0)
 -->
<!-- Title: internal::Schema&lt; SchemaDocumentType &gt;::PatternProperty Pages: 1 -->
<!--zoomable 1642 -->

<svg id="main" version="1.1" xmlns="http://www.w3.org/2000/svg" xmlns:xlink="http://www.w3.org/1999/xlink" xml:space="preserve" onload="init(evt)">

<style type="text/css"><![CDATA[
.node, .edge {opacity: 0.7;}
.node.selected, .edge.selected {opacity: 1;}
.edge:hover path { stroke: red; }
.edge:hover polygon { stroke: red; fill: red; }
]]></style>

<defs>
  <circle id="rim" cx="0" cy="0" r="7"/>
  <circle id="rim2" cx="0" cy="0" r="3.5"/>
  <g id="zoomPlus">
    <use xlink:href="#rim" fill="#404040"><set attributeName="fill" to="#808080" begin="zoomplus.mouseover" end="zoomplus.mouseout"/></use>
    <path d="M-4,0h8M0,-4v8" fill="none" stroke="white" stroke-width="1.5" pointer-events="none"/>
  </g>
  <g id="zoomMin">
    <use xlink:href="#rim" fill="#404040"><set attributeName="fill" to="#808080" begin="zoomminus.mouseover" end="zoomminus.mouseout"/></use>
    <path d="M-4,0h8" fill="none" stroke="white" stroke-width="1.5" pointer-events="none"/>
  </g>
  <g id="arrowUp" transform="translate(30 24)">
    <use xlink:href="#rim"/>
    <path pointer-events="none" fill="none" stroke="white" stroke-width="1.5" d="M0,-3.0v7 M-2.5,-0.5L0,-3.0L2.5,-0.5"/>
  </g>
  <g id="arrowRight" transform="rotate(90) translate(36 -43)">
    <use xlink:href="#rim"/>
    <path pointer-events="none" fill="none" stroke="white" stroke-width="1.5" d="M0,-3.0v7 M-2.5,-0.5L0,-3.0L2.5,-0.5"/>
  </g>
  <g id="arrowDown" transform="rotate(180) translate(-30 -48)">
    <use xlink:href="#rim"/>
    <path pointer-events="none" fill="none" stroke="white" stroke-width="1.5" d="M0,-3.0v7 M-2.5,-0.5L0,-3.0L2.5,-0.5"/>
  </g>
  <g id="arrowLeft" transform="rotate(270) translate(-36 17)">
    <use xlink:href="#rim"/>
    <path pointer-events="none" fill="none" stroke="white" stroke-width="1.5" d="M0,-3.0v7 M-2.5,-0.5L0,-3.0L2.5,-0.5"/>
  </g>
  <g id="resetDef">
    <use xlink:href="#rim2" fill="#404040"><set attributeName="fill" to="#808080" begin="reset.mouseover" end="reset.mouseout"/></use>
  </g>
</defs>
<script type="application/ecmascript">
var viewWidth = 853;
var viewHeight = 1642;
var sectionId = 'dynsection-0';
</script>
<script type="application/ecmascript" xlink:href="../../svg.min.js"/>
<svg id="graph" class="graph">
<g id="viewport">
<title>internal::Schema&lt; SchemaDocumentType &gt;::PatternProperty</title>
<!-- Node1 -->
<g id="Node000001" class="node">
<title>Node1</title>
<g id="a_Node000001"><a xlink:title=" ">
<polygon fill="#999999" stroke="transparent" points="845,-90 669,-90 669,-15 845,-15 845,-90"/>
<text text-anchor="start" x="674" y="-77.5" font-family="Helvetica,sans-Serif" font-size="10.00">internal::Schema&lt; Schema</text>
<text text-anchor="start" x="674" y="-66.5" font-family="Helvetica,sans-Serif" font-size="10.00">DocumentType &gt;::PatternProperty</text>
<text text-anchor="start" x="688.5" y="-51.5" font-family="Helvetica,sans-Serif" font-size="10.00">+</text>
<text text-anchor="start" x="717" y="-51.5" font-family="Helvetica,sans-Serif" font-size="10.00">pattern</text>
<text text-anchor="start" x="688.5" y="-36.5" font-family="Helvetica,sans-Serif" font-size="10.00">+</text>
<text text-anchor="start" x="717" y="-36.5" font-family="Helvetica,sans-Serif" font-size="10.00">PatternProperty()</text>
<text text-anchor="start" x="688.5" y="-21.5" font-family="Helvetica,sans-Serif" font-size="10.00">+</text>
<text text-anchor="start" x="717" y="-21.5" font-family="Helvetica,sans-Serif" font-size="10.00">~PatternProperty()</text>
<polygon fill="#666666" stroke="#666666" points="669,-61.5 669,-61.5 845,-61.5 845,-61.5 669,-61.5"/>
<polygon fill="#666666" stroke="#666666" points="669,-46.5 669,-46.5 715,-46.5 715,-46.5 669,-46.5"/>
<polygon fill="#666666" stroke="#666666" points="715,-46.5 715,-46.5 845,-46.5 845,-46.5 715,-46.5"/>
<polygon fill="none" stroke="#666666" points="669,-15 669,-90 845,-90 845,-15 669,-15"/>
</a>
</g>
</g>
<!-- Node2 -->
<g id="Node000002" class="node">
<title>Node2</title>
<g id="a_Node000002"><a xlink:href="../../d2/ddb/classinternal_1_1Schema.html" target="_top" xlink:title=" ">
<polygon fill="white" stroke="transparent" points="488.5,-984 337.5,-984 337.5,-174 488.5,-174 488.5,-984"/>
<text text-anchor="start" x="347" y="-972" font-family="Helvetica,sans-Serif" font-size="10.00">internal::Schema&lt; Schema</text>
<text text-anchor="start" x="371" y="-961" font-family="Helvetica,sans-Serif" font-size="10.00">DocumentType &gt;</text>
<text text-anchor="start" x="342" y="-946" font-family="Helvetica,sans-Serif" font-size="10.00">+</text>
<text text-anchor="start" x="355" y="-946" font-family="Helvetica,sans-Serif" font-size="10.00">b</text>
<text text-anchor="start" x="342" y="-931" font-family="Helvetica,sans-Serif" font-size="10.00">+</text>
<text text-anchor="start" x="355" y="-931" font-family="Helvetica,sans-Serif" font-size="10.00">o</text>
<text text-anchor="start" x="342" y="-916" font-family="Helvetica,sans-Serif" font-size="10.00">+</text>
<text text-anchor="start" x="355" y="-916" font-family="Helvetica,sans-Serif" font-size="10.00">l</text>
<text text-anchor="start" x="342" y="-901" font-family="Helvetica,sans-Serif" font-size="10.00">+</text>
<text text-anchor="start" x="355" y="-901" font-family="Helvetica,sans-Serif" font-size="10.00">e</text>
<text text-anchor="start" x="342" y="-886" font-family="Helvetica,sans-Serif" font-size="10.00">+</text>
<text text-anchor="start" x="355" y="-886" font-family="Helvetica,sans-Serif" font-size="10.00">a</text>
<text text-anchor="start" x="342" y="-871" font-family="Helvetica,sans-Serif" font-size="10.00">+</text>
<text text-anchor="start" x="355" y="-871" font-family="Helvetica,sans-Serif" font-size="10.00">a</text>
<text text-anchor="start" x="342" y="-856" font-family="Helvetica,sans-Serif" font-size="10.00">+</text>
<text text-anchor="start" x="355" y="-856" font-family="Helvetica,sans-Serif" font-size="10.00">r</text>
<text text-anchor="start" x="342" y="-841" font-family="Helvetica,sans-Serif" font-size="10.00">+</text>
<text text-anchor="start" x="355" y="-841" font-family="Helvetica,sans-Serif" font-size="10.00">n</text>
<text text-anchor="start" x="342" y="-826" font-family="Helvetica,sans-Serif" font-size="10.00">+</text>
<text text-anchor="start" x="355" y="-826" font-family="Helvetica,sans-Serif" font-size="10.00">u</text>
<text text-anchor="start" x="342" y="-811" font-family="Helvetica,sans-Serif" font-size="10.00">+</text>
<text text-anchor="start" x="355" y="-811" font-family="Helvetica,sans-Serif" font-size="10.00">m</text>
<text text-anchor="start" x="355" y="-796" font-family="Helvetica,sans-Serif" font-size="10.00">et 115 de plus...</text>
<text text-anchor="start" x="344.5" y="-781" font-family="Helvetica,sans-Serif" font-size="10.00">&#45;</text>
<text text-anchor="start" x="355" y="-781" font-family="Helvetica,sans-Serif" font-size="10.00">allocator_</text>
<text text-anchor="start" x="344.5" y="-766" font-family="Helvetica,sans-Serif" font-size="10.00">&#45;</text>
<text text-anchor="start" x="355" y="-766" font-family="Helvetica,sans-Serif" font-size="10.00">pointer_</text>
<text text-anchor="start" x="344.5" y="-751" font-family="Helvetica,sans-Serif" font-size="10.00">&#45;</text>
<text text-anchor="start" x="355" y="-751" font-family="Helvetica,sans-Serif" font-size="10.00">enum_</text>
<text text-anchor="start" x="344.5" y="-736" font-family="Helvetica,sans-Serif" font-size="10.00">&#45;</text>
<text text-anchor="start" x="355" y="-736" font-family="Helvetica,sans-Serif" font-size="10.00">enumCount_</text>
<text text-anchor="start" x="344.5" y="-721" font-family="Helvetica,sans-Serif" font-size="10.00">&#45;</text>
<text text-anchor="start" x="355" y="-721" font-family="Helvetica,sans-Serif" font-size="10.00">type_</text>
<text text-anchor="start" x="344.5" y="-706" font-family="Helvetica,sans-Serif" font-size="10.00">&#45;</text>
<text text-anchor="start" x="355" y="-706" font-family="Helvetica,sans-Serif" font-size="10.00">validatorCount_</text>
<text text-anchor="start" x="344.5" y="-691" font-family="Helvetica,sans-Serif" font-size="10.00">&#45;</text>
<text text-anchor="start" x="355" y="-691" font-family="Helvetica,sans-Serif" font-size="10.00">notValidatorIndex_</text>
<text text-anchor="start" x="344.5" y="-676" font-family="Helvetica,sans-Serif" font-size="10.00">&#45;</text>
<text text-anchor="start" x="355" y="-676" font-family="Helvetica,sans-Serif" font-size="10.00">patternPropertyCount_</text>
<text text-anchor="start" x="344.5" y="-661" font-family="Helvetica,sans-Serif" font-size="10.00">&#45;</text>
<text text-anchor="start" x="355" y="-661" font-family="Helvetica,sans-Serif" font-size="10.00">propertyCount_</text>
<text text-anchor="start" x="344.5" y="-646" font-family="Helvetica,sans-Serif" font-size="10.00">&#45;</text>
<text text-anchor="start" x="355" y="-646" font-family="Helvetica,sans-Serif" font-size="10.00">minProperties_</text>
<text text-anchor="start" x="355" y="-631" font-family="Helvetica,sans-Serif" font-size="10.00">et 19 de plus...</text>
<text text-anchor="start" x="342" y="-616" font-family="Helvetica,sans-Serif" font-size="10.00">+</text>
<text text-anchor="start" x="355" y="-616" font-family="Helvetica,sans-Serif" font-size="10.00">Schema()</text>
<text text-anchor="start" x="342" y="-601" font-family="Helvetica,sans-Serif" font-size="10.00">+</text>
<text text-anchor="start" x="355" y="-601" font-family="Helvetica,sans-Serif" font-size="10.00">~Schema()</text>
<text text-anchor="start" x="342" y="-586" font-family="Helvetica,sans-Serif" font-size="10.00">+</text>
<text text-anchor="start" x="355" y="-586" font-family="Helvetica,sans-Serif" font-size="10.00">GetURI()</text>
<text text-anchor="start" x="342" y="-571" font-family="Helvetica,sans-Serif" font-size="10.00">+</text>
<text text-anchor="start" x="355" y="-571" font-family="Helvetica,sans-Serif" font-size="10.00">GetId()</text>
<text text-anchor="start" x="342" y="-556" font-family="Helvetica,sans-Serif" font-size="10.00">+</text>
<text text-anchor="start" x="355" y="-556" font-family="Helvetica,sans-Serif" font-size="10.00">GetSpecification()</text>
<text text-anchor="start" x="342" y="-541" font-family="Helvetica,sans-Serif" font-size="10.00">+</text>
<text text-anchor="start" x="355" y="-541" font-family="Helvetica,sans-Serif" font-size="10.00">GetPointer()</text>
<text text-anchor="start" x="342" y="-526" font-family="Helvetica,sans-Serif" font-size="10.00">+</text>
<text text-anchor="start" x="355" y="-526" font-family="Helvetica,sans-Serif" font-size="10.00">BeginValue()</text>
<text text-anchor="start" x="342" y="-511" font-family="Helvetica,sans-Serif" font-size="10.00">+</text>
<text text-anchor="start" x="355" y="-511" font-family="Helvetica,sans-Serif" font-size="10.00">EndValue()</text>
<text text-anchor="start" x="342" y="-496" font-family="Helvetica,sans-Serif" font-size="10.00">+</text>
<text text-anchor="start" x="355" y="-496" font-family="Helvetica,sans-Serif" font-size="10.00">Null()</text>
<text text-anchor="start" x="342" y="-481" font-family="Helvetica,sans-Serif" font-size="10.00">+</text>
<text text-anchor="start" x="355" y="-481" font-family="Helvetica,sans-Serif" font-size="10.00">Bool()</text>
<text text-anchor="start" x="355" y="-466" font-family="Helvetica,sans-Serif" font-size="10.00">et 32 de plus...</text>
<text text-anchor="start" x="342" y="-451" font-family="Helvetica,sans-Serif" font-size="10.00">+</text>
<text text-anchor="start" x="355" y="-451" font-family="Helvetica,sans-Serif" font-size="10.00">GetValidateErrorKeyword()</text>
<text text-anchor="start" x="344.5" y="-436" font-family="Helvetica,sans-Serif" font-size="10.00">&#45;</text>
<text text-anchor="start" x="355" y="-436" font-family="Helvetica,sans-Serif" font-size="10.00">AddUniqueElement()</text>
<text text-anchor="start" x="344.5" y="-421" font-family="Helvetica,sans-Serif" font-size="10.00">&#45;</text>
<text text-anchor="start" x="355" y="-421" font-family="Helvetica,sans-Serif" font-size="10.00">AssignIfExist()</text>
<text text-anchor="start" x="344.5" y="-406" font-family="Helvetica,sans-Serif" font-size="10.00">&#45;</text>
<text text-anchor="start" x="355" y="-406" font-family="Helvetica,sans-Serif" font-size="10.00">CreatePattern()</text>
<text text-anchor="start" x="344.5" y="-391" font-family="Helvetica,sans-Serif" font-size="10.00">&#45;</text>
<text text-anchor="start" x="355" y="-391" font-family="Helvetica,sans-Serif" font-size="10.00">AddType()</text>
<text text-anchor="start" x="344.5" y="-376" font-family="Helvetica,sans-Serif" font-size="10.00">&#45;</text>
<text text-anchor="start" x="355" y="-376" font-family="Helvetica,sans-Serif" font-size="10.00">CreateParallelValidator()</text>
<text text-anchor="start" x="344.5" y="-361" font-family="Helvetica,sans-Serif" font-size="10.00">&#45;</text>
<text text-anchor="start" x="355" y="-361" font-family="Helvetica,sans-Serif" font-size="10.00">CreateSchemaValidators()</text>
<text text-anchor="start" x="344.5" y="-346" font-family="Helvetica,sans-Serif" font-size="10.00">&#45;</text>
<text text-anchor="start" x="355" y="-346" font-family="Helvetica,sans-Serif" font-size="10.00">FindPropertyIndex()</text>
<text text-anchor="start" x="344.5" y="-331" font-family="Helvetica,sans-Serif" font-size="10.00">&#45;</text>
<text text-anchor="start" x="355" y="-331" font-family="Helvetica,sans-Serif" font-size="10.00">CheckBool()</text>
<text text-anchor="start" x="344.5" y="-316" font-family="Helvetica,sans-Serif" font-size="10.00">&#45;</text>
<text text-anchor="start" x="355" y="-316" font-family="Helvetica,sans-Serif" font-size="10.00">CheckInt()</text>
<text text-anchor="start" x="344.5" y="-301" font-family="Helvetica,sans-Serif" font-size="10.00">&#45;</text>
<text text-anchor="start" x="355" y="-301" font-family="Helvetica,sans-Serif" font-size="10.00">CheckUint()</text>
<text text-anchor="start" x="344.5" y="-286" font-family="Helvetica,sans-Serif" font-size="10.00">&#45;</text>
<text text-anchor="start" x="355" y="-286" font-family="Helvetica,sans-Serif" font-size="10.00">CheckDoubleMinimum()</text>
<text text-anchor="start" x="344.5" y="-271" font-family="Helvetica,sans-Serif" font-size="10.00">&#45;</text>
<text text-anchor="start" x="355" y="-271" font-family="Helvetica,sans-Serif" font-size="10.00">CheckDoubleMaximum()</text>
<text text-anchor="start" x="344.5" y="-256" font-family="Helvetica,sans-Serif" font-size="10.00">&#45;</text>
<text text-anchor="start" x="355" y="-256" font-family="Helvetica,sans-Serif" font-size="10.00">CheckDoubleMultipleOf()</text>
<text text-anchor="start" x="344.5" y="-241" font-family="Helvetica,sans-Serif" font-size="10.00">&#45;</text>
<text text-anchor="start" x="355" y="-241" font-family="Helvetica,sans-Serif" font-size="10.00">DisallowedType()</text>
<text text-anchor="start" x="344.5" y="-226" font-family="Helvetica,sans-Serif" font-size="10.00">&#45;</text>
<text text-anchor="start" x="355" y="-226" font-family="Helvetica,sans-Serif" font-size="10.00">GetMember()</text>
<text text-anchor="start" x="344.5" y="-211" font-family="Helvetica,sans-Serif" font-size="10.00">&#45;</text>
<text text-anchor="start" x="355" y="-211" font-family="Helvetica,sans-Serif" font-size="10.00">AssignIfExist()</text>
<text text-anchor="start" x="344.5" y="-196" font-family="Helvetica,sans-Serif" font-size="10.00">&#45;</text>
<text text-anchor="start" x="355" y="-196" font-family="Helvetica,sans-Serif" font-size="10.00">AssignIfExist()</text>
<text text-anchor="start" x="344.5" y="-181" font-family="Helvetica,sans-Serif" font-size="10.00">&#45;</text>
<text text-anchor="start" x="355" y="-181" font-family="Helvetica,sans-Serif" font-size="10.00">IsPatternMatch()</text>
<polygon fill="#bfbfbf" stroke="#bfbfbf" points="338,-956 338,-956 489,-956 489,-956 338,-956"/>
<polygon fill="#bfbfbf" stroke="#bfbfbf" points="338,-626 338,-626 353,-626 353,-626 338,-626"/>
<polygon fill="#bfbfbf" stroke="#bfbfbf" points="353,-626 353,-626 489,-626 489,-626 353,-626"/>
<polygon fill="none" stroke="#bfbfbf" points="337.5,-174 337.5,-984 488.5,-984 488.5,-174 337.5,-174"/>
</a>
</g>
</g>
<!-- Node2&#45;&gt;Node1 -->
<g id="edge1_Node000001_Node000002" class="edge">
<title>Node2&#45;&gt;Node1</title>
<g id="a_edge1_Node000001_Node000002"><a xlink:title=" ">
<path fill="none" stroke="#63b8ff" d="M488.71,-462.57C563.2,-348.99 673.26,-181.18 726.26,-100.37"/>
<polygon fill="none" stroke="#63b8ff" points="726.47,-100.06 726.41,-92.85 733.05,-90.02 733.1,-97.23 726.47,-100.06"/>
</a>
</g>
<text text-anchor="middle" x="732" y="-137" font-family="Helvetica,sans-Serif" font-size="10.00" fill="grey"> +schema</text>
</g>
<!-- Node2&#45;&gt;Node2 -->
<g id="edge5_Node000002_Node000002" class="edge">
<title>Node2&#45;&gt;Node2</title>
<g id="a_edge5_Node000002_Node000002"><a xlink:title=" ">
<path fill="none" stroke="#63b8ff" d="M488.57,-652.7C499.3,-640.78 506.5,-616.21 506.5,-579 506.5,-550.22 502.19,-529 495.28,-515.35"/>
<polygon fill="none" stroke="#63b8ff" points="495.23,-515.28 488.58,-512.51 488.57,-505.3 495.23,-508.07 495.23,-515.28"/>
</a>
</g>
<text text-anchor="start" x="506.5" y="-615" font-family="Helvetica,sans-Serif" font-size="10.00" fill="grey"> &#45;additionalItemsSchema</text>
<text text-anchor="middle" x="568" y="-604" font-family="Helvetica,sans-Serif" font-size="10.00" fill="grey">_</text>
<text text-anchor="start" x="506.5" y="-593" font-family="Helvetica,sans-Serif" font-size="10.00" fill="grey">&#45;additionalProperties</text>
<text text-anchor="middle" x="568" y="-582" font-family="Helvetica,sans-Serif" font-size="10.00" fill="grey">Schema_</text>
<text text-anchor="middle" x="568" y="-571" font-family="Helvetica,sans-Serif" font-size="10.00" fill="grey">&#45;itemsList_</text>
<text text-anchor="middle" x="568" y="-560" font-family="Helvetica,sans-Serif" font-size="10.00" fill="grey">&#45;itemsTuple_</text>
<text text-anchor="middle" x="568" y="-549" font-family="Helvetica,sans-Serif" font-size="10.00" fill="grey">&#45;not_</text>
<text text-anchor="middle" x="568" y="-538" font-family="Helvetica,sans-Serif" font-size="10.00" fill="grey">&#45;typeless_</text>
</g>
<!-- Node6 -->
<g id="Node000006" class="node">
<title>Node6</title>
<g id="a_Node000006"><a xlink:href="../../d5/d4a/structinternal_1_1Schema_1_1SchemaArray.html" target="_top" xlink:title=" ">
<polygon fill="white" stroke="transparent" points="457,-97.5 291,-97.5 291,-7.5 457,-7.5 457,-97.5"/>
<text text-anchor="start" x="296" y="-85.5" font-family="Helvetica,sans-Serif" font-size="10.00">internal::Schema&lt; Schema</text>
<text text-anchor="start" x="296" y="-74.5" font-family="Helvetica,sans-Serif" font-size="10.00">DocumentType &gt;::SchemaArray</text>
<text text-anchor="start" x="310.5" y="-59.5" font-family="Helvetica,sans-Serif" font-size="10.00">+</text>
<text text-anchor="start" x="339" y="-59.5" font-family="Helvetica,sans-Serif" font-size="10.00">begin</text>
<text text-anchor="start" x="310.5" y="-44.5" font-family="Helvetica,sans-Serif" font-size="10.00">+</text>
<text text-anchor="start" x="339" y="-44.5" font-family="Helvetica,sans-Serif" font-size="10.00">count</text>
<text text-anchor="start" x="310.5" y="-29.5" font-family="Helvetica,sans-Serif" font-size="10.00">+</text>
<text text-anchor="start" x="339" y="-29.5" font-family="Helvetica,sans-Serif" font-size="10.00">SchemaArray()</text>
<text text-anchor="start" x="310.5" y="-14.5" font-family="Helvetica,sans-Serif" font-size="10.00">+</text>
<text text-anchor="start" x="339" y="-14.5" font-family="Helvetica,sans-Serif" font-size="10.00">~SchemaArray()</text>
<polygon fill="#bfbfbf" stroke="#bfbfbf" points="291,-69.5 291,-69.5 457,-69.5 457,-69.5 291,-69.5"/>
<polygon fill="#bfbfbf" stroke="#bfbfbf" points="291,-39.5 291,-39.5 337,-39.5 337,-39.5 291,-39.5"/>
<polygon fill="#bfbfbf" stroke="#bfbfbf" points="337,-39.5 337,-39.5 457,-39.5 457,-39.5 337,-39.5"/>
<polygon fill="none" stroke="#bfbfbf" points="291,-7.5 291,-97.5 457,-97.5 457,-7.5 291,-7.5"/>
</a>
</g>
</g>
<!-- Node2&#45;&gt;Node6 -->
<g id="edge7_Node000006_Node000002" class="edge">
<title>Node2&#45;&gt;Node6</title>
<g id="a_edge7_Node000006_Node000002"><a xlink:title=" ">
<path fill="none" stroke="#63b8ff" d="M371.94,-173.77C371.61,-167.81 371.29,-161.88 371,-156 370.26,-141.07 370.33,-124.9 370.75,-109.92"/>
<polygon fill="none" stroke="#63b8ff" points="370.76,-109.65 366.98,-103.52 371.18,-97.66 374.97,-103.8 370.76,-109.65"/>
</a>
</g>
<text text-anchor="middle" x="398.5" y="-137" font-family="Helvetica,sans-Serif" font-size="10.00" fill="grey"> +schemas</text>
</g>
<!-- Node7 -->
<g id="Node000007" class="node">
<title>Node7</title>
<g id="a_Node000007"><a xlink:href="../../db/d33/structinternal_1_1Schema_1_1Property.html" target="_top" xlink:title=" ">
<polygon fill="white" stroke="transparent" points="228,-105 68,-105 68,0 228,0 228,-105"/>
<text text-anchor="start" x="81.5" y="-92.5" font-family="Helvetica,sans-Serif" font-size="10.00">internal::Schema&lt; Schema</text>
<text text-anchor="start" x="82" y="-81.5" font-family="Helvetica,sans-Serif" font-size="10.00">DocumentType &gt;::Property</text>
<text text-anchor="start" x="72" y="-66.5" font-family="Helvetica,sans-Serif" font-size="10.00">+</text>
<text text-anchor="start" x="85" y="-66.5" font-family="Helvetica,sans-Serif" font-size="10.00">dependenciesValidatorIndex</text>
<text text-anchor="start" x="72" y="-51.5" font-family="Helvetica,sans-Serif" font-size="10.00">+</text>
<text text-anchor="start" x="85" y="-51.5" font-family="Helvetica,sans-Serif" font-size="10.00">dependencies</text>
<text text-anchor="start" x="72" y="-36.5" font-family="Helvetica,sans-Serif" font-size="10.00">+</text>
<text text-anchor="start" x="85" y="-36.5" font-family="Helvetica,sans-Serif" font-size="10.00">required</text>
<text text-anchor="start" x="72" y="-21.5" font-family="Helvetica,sans-Serif" font-size="10.00">+</text>
<text text-anchor="start" x="85" y="-21.5" font-family="Helvetica,sans-Serif" font-size="10.00">Property()</text>
<text text-anchor="start" x="72" y="-6.5" font-family="Helvetica,sans-Serif" font-size="10.00">+</text>
<text text-anchor="start" x="85" y="-6.5" font-family="Helvetica,sans-Serif" font-size="10.00">~Property()</text>
<polygon fill="#bfbfbf" stroke="#bfbfbf" points="68,-76.5 68,-76.5 228,-76.5 228,-76.5 68,-76.5"/>
<polygon fill="#bfbfbf" stroke="#bfbfbf" points="68,-31.5 68,-31.5 83,-31.5 83,-31.5 68,-31.5"/>
<polygon fill="#bfbfbf" stroke="#bfbfbf" points="83,-31.5 83,-31.5 228,-31.5 228,-31.5 83,-31.5"/>
<polygon fill="none" stroke="#bfbfbf" points="68,0 68,-105 228,-105 228,0 68,0"/>
</a>
</g>
</g>
<!-- Node2&#45;&gt;Node7 -->
<g id="edge10_Node000007_Node000002" class="edge">
<title>Node2&#45;&gt;Node7</title>
<g id="a_edge10_Node000007_Node000002"><a xlink:title=" ">
<path fill="none" stroke="#63b8ff" d="M337.46,-370.93C304,-290.55 260.87,-199.6 211,-123 209.23,-120.28 207.35,-117.56 205.39,-114.86"/>
<polygon fill="none" stroke="#63b8ff" points="205.29,-114.73 198.47,-112.39 198.01,-105.19 204.83,-107.53 205.29,-114.73"/>
</a>
</g>
<text text-anchor="middle" x="285" y="-142.5" font-family="Helvetica,sans-Serif" font-size="10.00" fill="grey"> +dependenciesSchema</text>
<text text-anchor="middle" x="285" y="-131.5" font-family="Helvetica,sans-Serif" font-size="10.00" fill="grey">+schema</text>
</g>
<!-- Node8 -->
<g id="Node000008" class="node">
<title>Node8</title>
<g id="a_Node000008"><a xlink:href="../../d4/d9a/structinternal_1_1Schema_1_1PatternProperty.html" target="_top" xlink:title=" ">
<polygon fill="white" stroke="transparent" points="651,-90 475,-90 475,-15 651,-15 651,-90"/>
<text text-anchor="start" x="480" y="-77.5" font-family="Helvetica,sans-Serif" font-size="10.00">internal::Schema&lt; Schema</text>
<text text-anchor="start" x="480" y="-66.5" font-family="Helvetica,sans-Serif" font-size="10.00">DocumentType &gt;::PatternProperty</text>
<text text-anchor="start" x="494.5" y="-51.5" font-family="Helvetica,sans-Serif" font-size="10.00">+</text>
<text text-anchor="start" x="523" y="-51.5" font-family="Helvetica,sans-Serif" font-size="10.00">pattern</text>
<text text-anchor="start" x="494.5" y="-36.5" font-family="Helvetica,sans-Serif" font-size="10.00">+</text>
<text text-anchor="start" x="523" y="-36.5" font-family="Helvetica,sans-Serif" font-size="10.00">PatternProperty()</text>
<text text-anchor="start" x="494.5" y="-21.5" font-family="Helvetica,sans-Serif" font-size="10.00">+</text>
<text text-anchor="start" x="523" y="-21.5" font-family="Helvetica,sans-Serif" font-size="10.00">~PatternProperty()</text>
<polygon fill="#bfbfbf" stroke="#bfbfbf" points="475,-61.5 475,-61.5 651,-61.5 651,-61.5 475,-61.5"/>
<polygon fill="#bfbfbf" stroke="#bfbfbf" points="475,-46.5 475,-46.5 521,-46.5 521,-46.5 475,-46.5"/>
<polygon fill="#bfbfbf" stroke="#bfbfbf" points="521,-46.5 521,-46.5 651,-46.5 651,-46.5 521,-46.5"/>
<polygon fill="none" stroke="#bfbfbf" points="475,-15 475,-90 651,-90 651,-15 475,-15"/>
</a>
</g>
</g>
<!-- Node2&#45;&gt;Node8 -->
<g id="edge12_Node000008_Node000002" class="edge">
<title>Node2&#45;&gt;Node8</title>
<g id="a_edge12_Node000008_Node000002"><a xlink:title=" ">
<path fill="none" stroke="#63b8ff" d="M488.57,-178.32C495.42,-159.37 502.88,-140.83 511,-123 514.52,-115.26 519.02,-107.56 523.89,-100.25"/>
<polygon fill="none" stroke="#63b8ff" points="524.04,-100.03 524.23,-92.82 530.95,-90.22 530.77,-97.43 524.04,-100.03"/>
</a>
</g>
<text text-anchor="middle" x="536" y="-137" font-family="Helvetica,sans-Serif" font-size="10.00" fill="grey"> +schema</text>
</g>
<!-- Node3 -->
<g id="Node000003" class="node">
<title>Node3</title>
<g id="a_Node000003"><a xlink:href="../../d4/dc1/classGenericValue.html" target="_top" xlink:title=" ">
<polygon fill="white" stroke="transparent" points="316,-1536.5 0,-1536.5 0,-1161.5 316,-1161.5 316,-1536.5"/>
<text text-anchor="start" x="85" y="-1524" font-family="Helvetica,sans-Serif" font-size="10.00">GenericValue&lt; EncodingType,</text>
<text text-anchor="start" x="117.5" y="-1513" font-family="Helvetica,sans-Serif" font-size="10.00"> AllocatorType &gt;</text>
<text text-anchor="start" x="156" y="-1498" font-family="Helvetica,sans-Serif" font-size="10.00"> </text>
<text text-anchor="start" x="4" y="-1483" font-family="Helvetica,sans-Serif" font-size="10.00">*</text>
<text text-anchor="start" x="14" y="-1483" font-family="Helvetica,sans-Serif" font-size="10.00">GenericDocument</text>
<text text-anchor="start" x="4" y="-1468" font-family="Helvetica,sans-Serif" font-size="10.00">*</text>
<text text-anchor="start" x="14" y="-1468" font-family="Helvetica,sans-Serif" font-size="10.00">GenericDocument</text>
<text text-anchor="start" x="4" y="-1453" font-family="Helvetica,sans-Serif" font-size="10.00">*</text>
<text text-anchor="start" x="14" y="-1453" font-family="Helvetica,sans-Serif" font-size="10.00">kDefaultArrayCapacity</text>
<text text-anchor="start" x="4" y="-1438" font-family="Helvetica,sans-Serif" font-size="10.00">*</text>
<text text-anchor="start" x="14" y="-1438" font-family="Helvetica,sans-Serif" font-size="10.00">kDefaultObjectCapacity</text>
<text text-anchor="start" x="4" y="-1423" font-family="Helvetica,sans-Serif" font-size="10.00">*</text>
<text text-anchor="start" x="14" y="-1423" font-family="Helvetica,sans-Serif" font-size="10.00">kDefaultArrayCapacity</text>
<text text-anchor="start" x="4" y="-1408" font-family="Helvetica,sans-Serif" font-size="10.00">*</text>
<text text-anchor="start" x="14" y="-1408" font-family="Helvetica,sans-Serif" font-size="10.00">kDefaultObjectCapacity</text>
<text text-anchor="start" x="4" y="-1393" font-family="Helvetica,sans-Serif" font-size="10.00">*</text>
<text text-anchor="start" x="14" y="-1393" font-family="Helvetica,sans-Serif" font-size="10.00">data_</text>
<text text-anchor="start" x="4" y="-1378" font-family="Helvetica,sans-Serif" font-size="10.00">*</text>
<text text-anchor="start" x="14" y="-1378" font-family="Helvetica,sans-Serif" font-size="10.00">data_</text>
<text text-anchor="start" x="4" y="-1363" font-family="Helvetica,sans-Serif" font-size="10.00">*</text>
<text text-anchor="start" x="14" y="-1363" font-family="Helvetica,sans-Serif" font-size="10.00">@007135264076206231173350361344053374076042214227</text>
<text text-anchor="start" x="4" y="-1348" font-family="Helvetica,sans-Serif" font-size="10.00">*</text>
<text text-anchor="start" x="14" y="-1348" font-family="Helvetica,sans-Serif" font-size="10.00">operator=()</text>
<text text-anchor="start" x="14" y="-1333" font-family="Helvetica,sans-Serif" font-size="10.00">et 51 de plus...</text>
<text text-anchor="start" x="4" y="-1318" font-family="Helvetica,sans-Serif" font-size="10.00">*</text>
<text text-anchor="start" x="14" y="-1318" font-family="Helvetica,sans-Serif" font-size="10.00">GenericValue()</text>
<text text-anchor="start" x="4" y="-1303" font-family="Helvetica,sans-Serif" font-size="10.00">*</text>
<text text-anchor="start" x="14" y="-1303" font-family="Helvetica,sans-Serif" font-size="10.00">GenericValue()</text>
<text text-anchor="start" x="4" y="-1288" font-family="Helvetica,sans-Serif" font-size="10.00">*</text>
<text text-anchor="start" x="14" y="-1288" font-family="Helvetica,sans-Serif" font-size="10.00">GenericValue()</text>
<text text-anchor="start" x="4" y="-1273" font-family="Helvetica,sans-Serif" font-size="10.00">*</text>
<text text-anchor="start" x="14" y="-1273" font-family="Helvetica,sans-Serif" font-size="10.00">GenericValue()</text>
<text text-anchor="start" x="4" y="-1258" font-family="Helvetica,sans-Serif" font-size="10.00">*</text>
<text text-anchor="start" x="14" y="-1258" font-family="Helvetica,sans-Serif" font-size="10.00">GenericValue()</text>
<text text-anchor="start" x="4" y="-1243" font-family="Helvetica,sans-Serif" font-size="10.00">*</text>
<text text-anchor="start" x="14" y="-1243" font-family="Helvetica,sans-Serif" font-size="10.00">GenericValue()</text>
<text text-anchor="start" x="4" y="-1228" font-family="Helvetica,sans-Serif" font-size="10.00">*</text>
<text text-anchor="start" x="14" y="-1228" font-family="Helvetica,sans-Serif" font-size="10.00">GenericValue()</text>
<text text-anchor="start" x="4" y="-1213" font-family="Helvetica,sans-Serif" font-size="10.00">*</text>
<text text-anchor="start" x="14" y="-1213" font-family="Helvetica,sans-Serif" font-size="10.00">GenericValue()</text>
<text text-anchor="start" x="4" y="-1198" font-family="Helvetica,sans-Serif" font-size="10.00">*</text>
<text text-anchor="start" x="14" y="-1198" font-family="Helvetica,sans-Serif" font-size="10.00">GenericValue()</text>
<text text-anchor="start" x="4" y="-1183" font-family="Helvetica,sans-Serif" font-size="10.00">*</text>
<text text-anchor="start" x="14" y="-1183" font-family="Helvetica,sans-Serif" font-size="10.00">GenericValue()</text>
<text text-anchor="start" x="14" y="-1168" font-family="Helvetica,sans-Serif" font-size="10.00">et 26 de plus...</text>
<polygon fill="#666666" stroke="#666666" points="0,-1508 0,-1508 316,-1508 316,-1508 0,-1508"/>
<polygon fill="#666666" stroke="#666666" points="0,-1493 0,-1493 316,-1493 316,-1493 0,-1493"/>
<polygon fill="none" stroke="#666666" points="0,-1161.5 0,-1536.5 316,-1536.5 316,-1161.5 0,-1161.5"/>
</a>
</g>
</g>
<!-- Node3&#45;&gt;Node2 -->
<g id="edge2_Node000002_Node000003" class="edge">
<title>Node3&#45;&gt;Node2</title>
<g id="a_edge2_Node000002_Node000003"><a xlink:title=" ">
<path fill="none" stroke="#63b8ff" d="M220.05,-1161.11C254.23,-1058.19 297,-929.35 333.59,-819.16"/>
<polygon fill="none" stroke="#63b8ff" points="333.67,-818.92 331.76,-811.97 337.45,-807.54 339.36,-814.49 333.67,-818.92"/>
</a>
</g>
<text text-anchor="middle" x="302.5" y="-1038" font-family="Helvetica,sans-Serif" font-size="10.00" fill="grey"> &#45;maximum_</text>
<text text-anchor="middle" x="302.5" y="-1027" font-family="Helvetica,sans-Serif" font-size="10.00" fill="grey">&#45;minimum_</text>
<text text-anchor="middle" x="302.5" y="-1016" font-family="Helvetica,sans-Serif" font-size="10.00" fill="grey">&#45;multipleOf_</text>
<text text-anchor="middle" x="302.5" y="-1005" font-family="Helvetica,sans-Serif" font-size="10.00" fill="grey">&#45;uri_</text>
</g>
<!-- Node3&#45;&gt;Node7 -->
<g id="edge9_Node000007_Node000003" class="edge">
<title>Node3&#45;&gt;Node7</title>
<g id="a_edge9_Node000007_Node000003"><a xlink:title=" ">
<path fill="none" stroke="#63b8ff" d="M154.31,-1161.42C149.87,-926.79 142.68,-511.59 140,-156 139.89,-141.33 139.16,-137.64 140,-123 140.11,-121.09 140.24,-119.15 140.38,-117.2"/>
<polygon fill="none" stroke="#63b8ff" points="140.39,-117.02 136.91,-110.7 141.4,-105.06 144.88,-111.37 140.39,-117.02"/>
</a>
</g>
<text text-anchor="middle" x="172" y="-576.5" font-family="Helvetica,sans-Serif" font-size="10.00" fill="grey"> +name</text>
</g>
<!-- Node4 -->
<g id="Node000004" class="node">
<title>Node4</title>
<g id="a_Node000004"><a xlink:href="../../d3/d8c/classGenericUri.html" target="_top" xlink:title=" ">
<polygon fill="white" stroke="transparent" points="477,-1634 341,-1634 341,-1064 477,-1064 477,-1634"/>
<text text-anchor="start" x="351" y="-1622" font-family="Helvetica,sans-Serif" font-size="10.00">GenericUri&lt; ValueType,</text>
<text text-anchor="start" x="368.5" y="-1611" font-family="Helvetica,sans-Serif" font-size="10.00"> AllocatorType &gt;</text>
<text text-anchor="start" x="347.5" y="-1596" font-family="Helvetica,sans-Serif" font-size="10.00">&#45;</text>
<text text-anchor="start" x="358" y="-1596" font-family="Helvetica,sans-Serif" font-size="10.00">uri_</text>
<text text-anchor="start" x="347.5" y="-1581" font-family="Helvetica,sans-Serif" font-size="10.00">&#45;</text>
<text text-anchor="start" x="358" y="-1581" font-family="Helvetica,sans-Serif" font-size="10.00">base_</text>
<text text-anchor="start" x="347.5" y="-1566" font-family="Helvetica,sans-Serif" font-size="10.00">&#45;</text>
<text text-anchor="start" x="358" y="-1566" font-family="Helvetica,sans-Serif" font-size="10.00">scheme_</text>
<text text-anchor="start" x="347.5" y="-1551" font-family="Helvetica,sans-Serif" font-size="10.00">&#45;</text>
<text text-anchor="start" x="358" y="-1551" font-family="Helvetica,sans-Serif" font-size="10.00">auth_</text>
<text text-anchor="start" x="347.5" y="-1536" font-family="Helvetica,sans-Serif" font-size="10.00">&#45;</text>
<text text-anchor="start" x="358" y="-1536" font-family="Helvetica,sans-Serif" font-size="10.00">path_</text>
<text text-anchor="start" x="347.5" y="-1521" font-family="Helvetica,sans-Serif" font-size="10.00">&#45;</text>
<text text-anchor="start" x="358" y="-1521" font-family="Helvetica,sans-Serif" font-size="10.00">query_</text>
<text text-anchor="start" x="347.5" y="-1506" font-family="Helvetica,sans-Serif" font-size="10.00">&#45;</text>
<text text-anchor="start" x="358" y="-1506" font-family="Helvetica,sans-Serif" font-size="10.00">frag_</text>
<text text-anchor="start" x="347.5" y="-1491" font-family="Helvetica,sans-Serif" font-size="10.00">&#45;</text>
<text text-anchor="start" x="358" y="-1491" font-family="Helvetica,sans-Serif" font-size="10.00">allocator_</text>
<text text-anchor="start" x="347.5" y="-1476" font-family="Helvetica,sans-Serif" font-size="10.00">&#45;</text>
<text text-anchor="start" x="358" y="-1476" font-family="Helvetica,sans-Serif" font-size="10.00">ownAllocator_</text>
<text text-anchor="start" x="347.5" y="-1461" font-family="Helvetica,sans-Serif" font-size="10.00">&#45;</text>
<text text-anchor="start" x="358" y="-1461" font-family="Helvetica,sans-Serif" font-size="10.00">uri_</text>
<text text-anchor="start" x="358" y="-1446" font-family="Helvetica,sans-Serif" font-size="10.00">et 8 de plus...</text>
<text text-anchor="start" x="345" y="-1431" font-family="Helvetica,sans-Serif" font-size="10.00">+</text>
<text text-anchor="start" x="358" y="-1431" font-family="Helvetica,sans-Serif" font-size="10.00">GenericUri()</text>
<text text-anchor="start" x="345" y="-1416" font-family="Helvetica,sans-Serif" font-size="10.00">+</text>
<text text-anchor="start" x="358" y="-1416" font-family="Helvetica,sans-Serif" font-size="10.00">GenericUri()</text>
<text text-anchor="start" x="345" y="-1401" font-family="Helvetica,sans-Serif" font-size="10.00">+</text>
<text text-anchor="start" x="358" y="-1401" font-family="Helvetica,sans-Serif" font-size="10.00">GenericUri()</text>
<text text-anchor="start" x="345" y="-1386" font-family="Helvetica,sans-Serif" font-size="10.00">+</text>
<text text-anchor="start" x="358" y="-1386" font-family="Helvetica,sans-Serif" font-size="10.00">GenericUri()</text>
<text text-anchor="start" x="345" y="-1371" font-family="Helvetica,sans-Serif" font-size="10.00">+</text>
<text text-anchor="start" x="358" y="-1371" font-family="Helvetica,sans-Serif" font-size="10.00">GenericUri()</text>
<text text-anchor="start" x="345" y="-1356" font-family="Helvetica,sans-Serif" font-size="10.00">+</text>
<text text-anchor="start" x="358" y="-1356" font-family="Helvetica,sans-Serif" font-size="10.00">GenericUri()</text>
<text text-anchor="start" x="345" y="-1341" font-family="Helvetica,sans-Serif" font-size="10.00">+</text>
<text text-anchor="start" x="358" y="-1341" font-family="Helvetica,sans-Serif" font-size="10.00">~GenericUri()</text>
<text text-anchor="start" x="345" y="-1326" font-family="Helvetica,sans-Serif" font-size="10.00">+</text>
<text text-anchor="start" x="358" y="-1326" font-family="Helvetica,sans-Serif" font-size="10.00">operator=()</text>
<text text-anchor="start" x="345" y="-1311" font-family="Helvetica,sans-Serif" font-size="10.00">+</text>
<text text-anchor="start" x="358" y="-1311" font-family="Helvetica,sans-Serif" font-size="10.00">Get()</text>
<text text-anchor="start" x="345" y="-1296" font-family="Helvetica,sans-Serif" font-size="10.00">+</text>
<text text-anchor="start" x="358" y="-1296" font-family="Helvetica,sans-Serif" font-size="10.00">GetString()</text>
<text text-anchor="start" x="358" y="-1281" font-family="Helvetica,sans-Serif" font-size="10.00">et 46 de plus...</text>
<text text-anchor="start" x="347.5" y="-1266" font-family="Helvetica,sans-Serif" font-size="10.00">&#45;</text>
<text text-anchor="start" x="358" y="-1266" font-family="Helvetica,sans-Serif" font-size="10.00">Allocate()</text>
<text text-anchor="start" x="347.5" y="-1251" font-family="Helvetica,sans-Serif" font-size="10.00">&#45;</text>
<text text-anchor="start" x="358" y="-1251" font-family="Helvetica,sans-Serif" font-size="10.00">Free()</text>
<text text-anchor="start" x="347.5" y="-1236" font-family="Helvetica,sans-Serif" font-size="10.00">&#45;</text>
<text text-anchor="start" x="358" y="-1236" font-family="Helvetica,sans-Serif" font-size="10.00">Parse()</text>
<text text-anchor="start" x="347.5" y="-1221" font-family="Helvetica,sans-Serif" font-size="10.00">&#45;</text>
<text text-anchor="start" x="358" y="-1221" font-family="Helvetica,sans-Serif" font-size="10.00">SetBase()</text>
<text text-anchor="start" x="347.5" y="-1206" font-family="Helvetica,sans-Serif" font-size="10.00">&#45;</text>
<text text-anchor="start" x="358" y="-1206" font-family="Helvetica,sans-Serif" font-size="10.00">SetUri()</text>
<text text-anchor="start" x="347.5" y="-1191" font-family="Helvetica,sans-Serif" font-size="10.00">&#45;</text>
<text text-anchor="start" x="358" y="-1191" font-family="Helvetica,sans-Serif" font-size="10.00">CopyPart()</text>
<text text-anchor="start" x="347.5" y="-1176" font-family="Helvetica,sans-Serif" font-size="10.00">&#45;</text>
<text text-anchor="start" x="358" y="-1176" font-family="Helvetica,sans-Serif" font-size="10.00">RemoveDotSegments()</text>
<text text-anchor="start" x="347.5" y="-1161" font-family="Helvetica,sans-Serif" font-size="10.00">&#45;</text>
<text text-anchor="start" x="358" y="-1161" font-family="Helvetica,sans-Serif" font-size="10.00">Allocate()</text>
<text text-anchor="start" x="347.5" y="-1146" font-family="Helvetica,sans-Serif" font-size="10.00">&#45;</text>
<text text-anchor="start" x="358" y="-1146" font-family="Helvetica,sans-Serif" font-size="10.00">Free()</text>
<text text-anchor="start" x="347.5" y="-1131" font-family="Helvetica,sans-Serif" font-size="10.00">&#45;</text>
<text text-anchor="start" x="358" y="-1131" font-family="Helvetica,sans-Serif" font-size="10.00">Parse()</text>
<text text-anchor="start" x="347.5" y="-1116" font-family="Helvetica,sans-Serif" font-size="10.00">&#45;</text>
<text text-anchor="start" x="358" y="-1116" font-family="Helvetica,sans-Serif" font-size="10.00">SetBase()</text>
<text text-anchor="start" x="347.5" y="-1101" font-family="Helvetica,sans-Serif" font-size="10.00">&#45;</text>
<text text-anchor="start" x="358" y="-1101" font-family="Helvetica,sans-Serif" font-size="10.00">SetUri()</text>
<text text-anchor="start" x="347.5" y="-1086" font-family="Helvetica,sans-Serif" font-size="10.00">&#45;</text>
<text text-anchor="start" x="358" y="-1086" font-family="Helvetica,sans-Serif" font-size="10.00">CopyPart()</text>
<text text-anchor="start" x="347.5" y="-1071" font-family="Helvetica,sans-Serif" font-size="10.00">&#45;</text>
<text text-anchor="start" x="358" y="-1071" font-family="Helvetica,sans-Serif" font-size="10.00">RemoveDotSegments()</text>
<polygon fill="#bfbfbf" stroke="#bfbfbf" points="341,-1606 341,-1606 477,-1606 477,-1606 341,-1606"/>
<polygon fill="#bfbfbf" stroke="#bfbfbf" points="341,-1441 341,-1441 356,-1441 356,-1441 341,-1441"/>
<polygon fill="#bfbfbf" stroke="#bfbfbf" points="356,-1441 356,-1441 477,-1441 477,-1441 356,-1441"/>
<polygon fill="none" stroke="#bfbfbf" points="341,-1064 341,-1634 477,-1634 477,-1064 341,-1064"/>
</a>
</g>
</g>
<!-- Node4&#45;&gt;Node2 -->
<g id="edge3_Node000002_Node000004" class="edge">
<title>Node4&#45;&gt;Node2</title>
<g id="a_edge3_Node000002_Node000004"><a xlink:title=" ">
<path fill="none" stroke="#63b8ff" d="M410.48,-1063.93C410.59,-1041.85 410.71,-1019.28 410.83,-996.57"/>
<polygon fill="none" stroke="#63b8ff" points="410.83,-996.31 406.86,-990.28 410.89,-984.31 414.86,-990.33 410.83,-996.31"/>
</a>
</g>
<text text-anchor="middle" x="422" y="-1021.5" font-family="Helvetica,sans-Serif" font-size="10.00" fill="grey"> &#45;id_</text>
</g>
<!-- Node5 -->
<g id="Node000005" class="node">
<title>Node5</title>
<g id="a_Node000005"><a xlink:href="../../d1/de3/structSpecification.html" target="_top" xlink:title=" ">
<polygon fill="white" stroke="transparent" points="595,-1403.5 495,-1403.5 495,-1294.5 595,-1294.5 595,-1403.5"/>
<text text-anchor="start" x="513.5" y="-1391" font-family="Helvetica,sans-Serif" font-size="10.00">Specification</text>
<text text-anchor="start" x="499" y="-1376" font-family="Helvetica,sans-Serif" font-size="10.00">+</text>
<text text-anchor="start" x="512" y="-1376" font-family="Helvetica,sans-Serif" font-size="10.00">draft</text>
<text text-anchor="start" x="499" y="-1361" font-family="Helvetica,sans-Serif" font-size="10.00">+</text>
<text text-anchor="start" x="512" y="-1361" font-family="Helvetica,sans-Serif" font-size="10.00">oapi</text>
<text text-anchor="start" x="499" y="-1346" font-family="Helvetica,sans-Serif" font-size="10.00">+</text>
<text text-anchor="start" x="512" y="-1346" font-family="Helvetica,sans-Serif" font-size="10.00">Specification()</text>
<text text-anchor="start" x="499" y="-1331" font-family="Helvetica,sans-Serif" font-size="10.00">+</text>
<text text-anchor="start" x="512" y="-1331" font-family="Helvetica,sans-Serif" font-size="10.00">Specification()</text>
<text text-anchor="start" x="499" y="-1316" font-family="Helvetica,sans-Serif" font-size="10.00">+</text>
<text text-anchor="start" x="512" y="-1316" font-family="Helvetica,sans-Serif" font-size="10.00">~Specification()</text>
<text text-anchor="start" x="499" y="-1301" font-family="Helvetica,sans-Serif" font-size="10.00">+</text>
<text text-anchor="start" x="512" y="-1301" font-family="Helvetica,sans-Serif" font-size="10.00">IsSupported()</text>
<polygon fill="#bfbfbf" stroke="#bfbfbf" points="495,-1386 495,-1386 595,-1386 595,-1386 495,-1386"/>
<polygon fill="#bfbfbf" stroke="#bfbfbf" points="495,-1356 495,-1356 510,-1356 510,-1356 495,-1356"/>
<polygon fill="#bfbfbf" stroke="#bfbfbf" points="510,-1356 510,-1356 595,-1356 595,-1356 510,-1356"/>
<polygon fill="none" stroke="#bfbfbf" points="495,-1294.5 495,-1403.5 595,-1403.5 595,-1294.5 495,-1294.5"/>
</a>
</g>
</g>
<!-- Node5&#45;&gt;Node2 -->
<g id="edge4_Node000002_Node000005" class="edge">
<title>Node5&#45;&gt;Node2</title>
<g id="a_edge4_Node000002_Node000005"><a xlink:title=" ">
<path fill="none" stroke="#63b8ff" d="M535.77,-1294.3C524.66,-1229.66 504.93,-1114.87 484.49,-995.97"/>
<polygon fill="none" stroke="#63b8ff" points="484.48,-995.91 479.53,-990.67 482.45,-984.08 487.41,-989.31 484.48,-995.91"/>
</a>
</g>
<text text-anchor="middle" x="508.5" y="-1021.5" font-family="Helvetica,sans-Serif" font-size="10.00" fill="grey"> &#45;spec_</text>
</g>
<!-- Node6&#45;&gt;Node2 -->
<g id="edge6_Node000002_Node000006" class="edge">
<title>Node6&#45;&gt;Node2</title>
<g id="a_edge6_Node000002_Node000006"><a xlink:title=" ">
<path fill="none" stroke="#63b8ff" d="M416.5,-97.53C422.03,-105.47 426.86,-114.09 430,-123 434.5,-135.76 438.32,-148.84 441.54,-162.15"/>
<polygon fill="none" stroke="#63b8ff" points="441.55,-162.2 446.78,-167.17 444.21,-173.91 438.98,-168.94 441.55,-162.2"/>
</a>
</g>
<text text-anchor="middle" x="457.5" y="-148" font-family="Helvetica,sans-Serif" font-size="10.00" fill="grey"> &#45;allOf_</text>
<text text-anchor="middle" x="457.5" y="-137" font-family="Helvetica,sans-Serif" font-size="10.00" fill="grey">&#45;anyOf_</text>
<text text-anchor="middle" x="457.5" y="-126" font-family="Helvetica,sans-Serif" font-size="10.00" fill="grey">&#45;oneOf_</text>
</g>
<!-- Node7&#45;&gt;Node2 -->
<g id="edge8_Node000002_Node000007" class="edge">
<title>Node7&#45;&gt;Node2</title>
<g id="a_edge8_Node000002_Node000007"><a xlink:title=" ">
<path fill="none" stroke="#63b8ff" d="M143.06,-105.14C142.91,-121.67 144.28,-139.86 149,-156 151.43,-164.31 254.21,-327.48 330.79,-448.44"/>
<polygon fill="none" stroke="#63b8ff" points="330.99,-448.77 337.58,-451.7 337.41,-458.91 330.82,-455.98 330.99,-448.77"/>
</a>
</g>
<text text-anchor="middle" x="180" y="-137" font-family="Helvetica,sans-Serif" font-size="10.00" fill="grey"> &#45;properties_</text>
</g>
<!-- Node8&#45;&gt;Node2 -->
<g id="edge11_Node000002_Node000008" class="edge">
<title>Node8&#45;&gt;Node2</title>
<g id="a_edge11_Node000002_Node000008"><a xlink:title=" ">
<path fill="none" stroke="#63b8ff" d="M567.11,-90.29C568.45,-109.93 568.77,-134.43 565,-156 550.67,-238.09 521.76,-325.28 492.96,-398.97"/>
<polygon fill="none" stroke="#63b8ff" points="492.93,-399.05 494.46,-406.1 488.53,-410.21 487.01,-403.16 492.93,-399.05"/>
</a>
</g>
<text text-anchor="middle" x="615.5" y="-137" font-family="Helvetica,sans-Serif" font-size="10.00" fill="grey"> &#45;patternProperties_</text>
</g>
</g>
</svg>

<g id="navigator" transform="translate(0 0)" fill="#404254">
  <rect fill="#f2f5e9" fill-opacity="0.5" stroke="#606060" stroke-width=".5" x="0" y="0" width="60" height="60"/>
  <use id="zoomplus" xlink:href="#zoomPlus" x="17" y="9" onmousedown="handleZoom(evt,'in')"/>
  <use id="zoomminus" xlink:href="#zoomMin" x="42" y="9" onmousedown="handleZoom(evt,'out')"/>
  <use id="reset" xlink:href="#resetDef" x="30" y="36" onmousedown="handleReset()"/>
   <use id="arrowup" xlink:href="#arrowUp" x="0" y="0" onmousedown="handlePan(0,-1)"/>
  <use id="arrowright" xlink:href="#arrowRight" x="0" y="0" onmousedown="handlePan(1,0)"/>
  <use id="arrowdown" xlink:href="#arrowDown" x="0" y="0" onmousedown="handlePan(0,1)"/>
  <use id="arrowleft" xlink:href="#arrowLeft" x="0" y="0" onmousedown="handlePan(-1,0)"/>
</g>
<svg viewBox="0 0 15 15" width="100%" height="30px" preserveAspectRatio="xMaxYMin meet">
 <g id="arrow_out" transform="scale(0.3 0.3)">
  <a xlink:href="structinternal_1_1Schema_1_1PatternProperty__coll__graph_org.svg" target="_base">
   <rect id="button" ry="5" rx="5" y="6" x="6" height="38" width="38"
        fill="#f2f5e9" fill-opacity="0.5" stroke="#606060" stroke-width="1.0"/>
   <path id="arrow"
     d="M 11.500037,31.436501 C 11.940474,20.09759 22.043105,11.32322 32.158766,21.979434 L 37.068811,17.246167 C 37.068811,17.246167 37.088388,32 37.088388,32 L 22.160133,31.978069 C 22.160133,31.978069 26.997745,27.140456 26.997745,27.140456 C 18.528582,18.264221 13.291696,25.230495 11.500037,31.436501 z"
     style="fill:#404040;"/>
  </a>
 </g>
</svg>

<style type='text/css'>
<![CDATA[
[data-mouse-over-selected='false'] { opacity: 0.7; }
[data-mouse-over-selected='true']  { opacity: 1.0; }
]]>
</style>
<script type="application/ecmascript"><![CDATA[
document.addEventListener('DOMContentLoaded', (event) => {
  highlightEdges();
  highlightAdjacentNodes();
});
]]></script>
</svg>
