<?xml version="1.0" encoding="UTF-8" standalone="no"?>
<!DOCTYPE svg PUBLIC "-//W3C//DTD SVG 1.1//EN"
 "http://www.w3.org/Graphics/SVG/1.1/DTD/svg11.dtd">
<!-- Generated by graphviz version 2.43.0 (0)
 -->
<!-- Title: Arcane::IParallelSuperMng Pages: 1 -->
<!--zoomable 1300 -->

<svg id="main" version="1.1" xmlns="http://www.w3.org/2000/svg" xmlns:xlink="http://www.w3.org/1999/xlink" xml:space="preserve" onload="init(evt)">

<style type="text/css"><![CDATA[
.node, .edge {opacity: 0.7;}
.node.selected, .edge.selected {opacity: 1;}
.edge:hover path { stroke: red; }
.edge:hover polygon { stroke: red; fill: red; }
]]></style>

<defs>
  <circle id="rim" cx="0" cy="0" r="7"/>
  <circle id="rim2" cx="0" cy="0" r="3.5"/>
  <g id="zoomPlus">
    <use xlink:href="#rim" fill="#404040"><set attributeName="fill" to="#808080" begin="zoomplus.mouseover" end="zoomplus.mouseout"/></use>
    <path d="M-4,0h8M0,-4v8" fill="none" stroke="white" stroke-width="1.5" pointer-events="none"/>
  </g>
  <g id="zoomMin">
    <use xlink:href="#rim" fill="#404040"><set attributeName="fill" to="#808080" begin="zoomminus.mouseover" end="zoomminus.mouseout"/></use>
    <path d="M-4,0h8" fill="none" stroke="white" stroke-width="1.5" pointer-events="none"/>
  </g>
  <g id="arrowUp" transform="translate(30 24)">
    <use xlink:href="#rim"/>
    <path pointer-events="none" fill="none" stroke="white" stroke-width="1.5" d="M0,-3.0v7 M-2.5,-0.5L0,-3.0L2.5,-0.5"/>
  </g>
  <g id="arrowRight" transform="rotate(90) translate(36 -43)">
    <use xlink:href="#rim"/>
    <path pointer-events="none" fill="none" stroke="white" stroke-width="1.5" d="M0,-3.0v7 M-2.5,-0.5L0,-3.0L2.5,-0.5"/>
  </g>
  <g id="arrowDown" transform="rotate(180) translate(-30 -48)">
    <use xlink:href="#rim"/>
    <path pointer-events="none" fill="none" stroke="white" stroke-width="1.5" d="M0,-3.0v7 M-2.5,-0.5L0,-3.0L2.5,-0.5"/>
  </g>
  <g id="arrowLeft" transform="rotate(270) translate(-36 17)">
    <use xlink:href="#rim"/>
    <path pointer-events="none" fill="none" stroke="white" stroke-width="1.5" d="M0,-3.0v7 M-2.5,-0.5L0,-3.0L2.5,-0.5"/>
  </g>
  <g id="resetDef">
    <use xlink:href="#rim2" fill="#404040"><set attributeName="fill" to="#808080" begin="reset.mouseover" end="reset.mouseout"/></use>
  </g>
</defs>
<script type="application/ecmascript">
var viewWidth = 738;
var viewHeight = 1300;
var sectionId = 'dynsection-0';
</script>
<script type="application/ecmascript" xlink:href="../../svg.min.js"/>
<svg id="graph" class="graph">
<g id="viewport">
<title>Arcane::IParallelSuperMng</title>
<!-- Node1 -->
<g id="Node000001" class="node">
<title>Node1</title>
<g id="a_Node000001"><a xlink:title="Classe abstraite du superviseur de parallélisme.">
<polygon fill="#999999" stroke="transparent" points="350,-1292 212,-1292 212,-973 350,-973 350,-1292"/>
<text text-anchor="start" x="217" y="-1279.5" font-family="Helvetica,sans-Serif" font-size="10.00">Arcane::IParallelSuperMng</text>
<text text-anchor="start" x="279" y="-1264.5" font-family="Helvetica,sans-Serif" font-size="10.00"> </text>
<text text-anchor="start" x="216.5" y="-1249.5" font-family="Helvetica,sans-Serif" font-size="10.00">+</text>
<text text-anchor="start" x="230" y="-1249.5" font-family="Helvetica,sans-Serif" font-size="10.00">~IParallelSuperMng()</text>
<text text-anchor="start" x="216.5" y="-1234.5" font-family="Helvetica,sans-Serif" font-size="10.00">+</text>
<text text-anchor="start" x="230" y="-1234.5" font-family="Helvetica,sans-Serif" font-size="10.00">build()</text>
<text text-anchor="start" x="216.5" y="-1219.5" font-family="Helvetica,sans-Serif" font-size="10.00">+</text>
<text text-anchor="start" x="230" y="-1219.5" font-family="Helvetica,sans-Serif" font-size="10.00">initialize()</text>
<text text-anchor="start" x="216.5" y="-1204.5" font-family="Helvetica,sans-Serif" font-size="10.00">+</text>
<text text-anchor="start" x="230" y="-1204.5" font-family="Helvetica,sans-Serif" font-size="10.00">application()</text>
<text text-anchor="start" x="216.5" y="-1189.5" font-family="Helvetica,sans-Serif" font-size="10.00">+</text>
<text text-anchor="start" x="230" y="-1189.5" font-family="Helvetica,sans-Serif" font-size="10.00">threadMng()</text>
<text text-anchor="start" x="216.5" y="-1174.5" font-family="Helvetica,sans-Serif" font-size="10.00">+</text>
<text text-anchor="start" x="230" y="-1174.5" font-family="Helvetica,sans-Serif" font-size="10.00">isParallel()</text>
<text text-anchor="start" x="216.5" y="-1159.5" font-family="Helvetica,sans-Serif" font-size="10.00">+</text>
<text text-anchor="start" x="230" y="-1159.5" font-family="Helvetica,sans-Serif" font-size="10.00">commRank()</text>
<text text-anchor="start" x="216.5" y="-1144.5" font-family="Helvetica,sans-Serif" font-size="10.00">+</text>
<text text-anchor="start" x="230" y="-1144.5" font-family="Helvetica,sans-Serif" font-size="10.00">commSize()</text>
<text text-anchor="start" x="216.5" y="-1129.5" font-family="Helvetica,sans-Serif" font-size="10.00">+</text>
<text text-anchor="start" x="230" y="-1129.5" font-family="Helvetica,sans-Serif" font-size="10.00">traceRank()</text>
<text text-anchor="start" x="216.5" y="-1114.5" font-family="Helvetica,sans-Serif" font-size="10.00">+</text>
<text text-anchor="start" x="230" y="-1114.5" font-family="Helvetica,sans-Serif" font-size="10.00">getMPICommunicator()</text>
<text text-anchor="start" x="230" y="-1099.5" font-family="Helvetica,sans-Serif" font-size="10.00">et 7 de plus...</text>
<text text-anchor="start" x="216.5" y="-1084.5" font-family="Helvetica,sans-Serif" font-size="10.00">+</text>
<text text-anchor="start" x="230" y="-1084.5" font-family="Helvetica,sans-Serif" font-size="10.00">broadcast()</text>
<text text-anchor="start" x="216.5" y="-1069.5" font-family="Helvetica,sans-Serif" font-size="10.00">+</text>
<text text-anchor="start" x="230" y="-1069.5" font-family="Helvetica,sans-Serif" font-size="10.00">broadcast()</text>
<text text-anchor="start" x="216.5" y="-1054.5" font-family="Helvetica,sans-Serif" font-size="10.00">+</text>
<text text-anchor="start" x="230" y="-1054.5" font-family="Helvetica,sans-Serif" font-size="10.00">broadcast()</text>
<text text-anchor="start" x="216.5" y="-1039.5" font-family="Helvetica,sans-Serif" font-size="10.00">+</text>
<text text-anchor="start" x="230" y="-1039.5" font-family="Helvetica,sans-Serif" font-size="10.00">broadcast()</text>
<text text-anchor="start" x="218" y="-1024.5" font-family="Helvetica,sans-Serif" font-size="10.00">*</text>
<text text-anchor="start" x="230" y="-1024.5" font-family="Helvetica,sans-Serif" font-size="10.00">broadcast()</text>
<text text-anchor="start" x="218" y="-1009.5" font-family="Helvetica,sans-Serif" font-size="10.00">*</text>
<text text-anchor="start" x="230" y="-1009.5" font-family="Helvetica,sans-Serif" font-size="10.00">broadcast()</text>
<text text-anchor="start" x="218" y="-994.5" font-family="Helvetica,sans-Serif" font-size="10.00">*</text>
<text text-anchor="start" x="230" y="-994.5" font-family="Helvetica,sans-Serif" font-size="10.00">broadcast()</text>
<text text-anchor="start" x="218" y="-979.5" font-family="Helvetica,sans-Serif" font-size="10.00">*</text>
<text text-anchor="start" x="230" y="-979.5" font-family="Helvetica,sans-Serif" font-size="10.00">broadcast()</text>
<polygon fill="#666666" stroke="#666666" points="212,-1274.5 212,-1274.5 350,-1274.5 350,-1274.5 212,-1274.5"/>
<polygon fill="#666666" stroke="#666666" points="212,-1259.5 212,-1259.5 350,-1259.5 350,-1259.5 212,-1259.5"/>
<polygon fill="none" stroke="#666666" points="212,-973 212,-1292 350,-1292 350,-973 212,-973"/>
</a>
</g>
</g>
<!-- Node2 -->
<g id="Node000002" class="node">
<title>Node2</title>
<g id="a_Node000002"><a xlink:href="../../dd/d32/classArcane_1_1MessagePassing_1_1SharedMemoryParallelSuperMng.html" target="_top" xlink:title="Superviseur du parallélisme utilisant les threads.">
<polygon fill="white" stroke="transparent" points="272,-937 96,-937 96,-589 272,-589 272,-937"/>
<text text-anchor="start" x="101" y="-925" font-family="Helvetica,sans-Serif" font-size="10.00">Arcane::MessagePassing</text>
<text text-anchor="start" x="101" y="-914" font-family="Helvetica,sans-Serif" font-size="10.00">::SharedMemoryParallelSuperMng</text>
<text text-anchor="start" x="102" y="-899" font-family="Helvetica,sans-Serif" font-size="10.00">+</text>
<text text-anchor="start" x="117" y="-899" font-family="Helvetica,sans-Serif" font-size="10.00">m_application</text>
<text text-anchor="start" x="102" y="-884" font-family="Helvetica,sans-Serif" font-size="10.00">+</text>
<text text-anchor="start" x="117" y="-884" font-family="Helvetica,sans-Serif" font-size="10.00">m_stat</text>
<text text-anchor="start" x="102" y="-869" font-family="Helvetica,sans-Serif" font-size="10.00">+</text>
<text text-anchor="start" x="117" y="-869" font-family="Helvetica,sans-Serif" font-size="10.00">m_is_parallel</text>
<text text-anchor="start" x="102" y="-854" font-family="Helvetica,sans-Serif" font-size="10.00">+</text>
<text text-anchor="start" x="117" y="-854" font-family="Helvetica,sans-Serif" font-size="10.00">m_container</text>
<text text-anchor="start" x="102" y="-839" font-family="Helvetica,sans-Serif" font-size="10.00">+</text>
<text text-anchor="start" x="117" y="-839" font-family="Helvetica,sans-Serif" font-size="10.00">m_builder_factory</text>
<text text-anchor="start" x="102" y="-824" font-family="Helvetica,sans-Serif" font-size="10.00">+</text>
<text text-anchor="start" x="117" y="-824" font-family="Helvetica,sans-Serif" font-size="10.00">m_main_builder</text>
<text text-anchor="start" x="102" y="-809" font-family="Helvetica,sans-Serif" font-size="10.00">+</text>
<text text-anchor="start" x="117" y="-809" font-family="Helvetica,sans-Serif" font-size="10.00">m_communicator</text>
<text text-anchor="start" x="102" y="-794" font-family="Helvetica,sans-Serif" font-size="10.00">+</text>
<text text-anchor="start" x="117" y="-794" font-family="Helvetica,sans-Serif" font-size="10.00">m_has_mpi_init</text>
<text text-anchor="start" x="102" y="-779" font-family="Helvetica,sans-Serif" font-size="10.00">+</text>
<text text-anchor="start" x="117" y="-779" font-family="Helvetica,sans-Serif" font-size="10.00">SharedMemoryParallelSuper</text>
<text text-anchor="start" x="117" y="-768" font-family="Helvetica,sans-Serif" font-size="10.00">Mng()</text>
<text text-anchor="start" x="102" y="-753" font-family="Helvetica,sans-Serif" font-size="10.00">+</text>
<text text-anchor="start" x="117" y="-753" font-family="Helvetica,sans-Serif" font-size="10.00">SharedMemoryParallelSuper</text>
<text text-anchor="start" x="117" y="-742" font-family="Helvetica,sans-Serif" font-size="10.00">Mng()</text>
<text text-anchor="start" x="102" y="-727" font-family="Helvetica,sans-Serif" font-size="10.00">+</text>
<text text-anchor="start" x="117" y="-727" font-family="Helvetica,sans-Serif" font-size="10.00">~SharedMemoryParallelSuper</text>
<text text-anchor="start" x="117" y="-716" font-family="Helvetica,sans-Serif" font-size="10.00">Mng()</text>
<text text-anchor="start" x="102" y="-701" font-family="Helvetica,sans-Serif" font-size="10.00">+</text>
<text text-anchor="start" x="117" y="-701" font-family="Helvetica,sans-Serif" font-size="10.00">initialize()</text>
<text text-anchor="start" x="102" y="-686" font-family="Helvetica,sans-Serif" font-size="10.00">+</text>
<text text-anchor="start" x="117" y="-686" font-family="Helvetica,sans-Serif" font-size="10.00">build()</text>
<text text-anchor="start" x="102" y="-671" font-family="Helvetica,sans-Serif" font-size="10.00">+</text>
<text text-anchor="start" x="117" y="-671" font-family="Helvetica,sans-Serif" font-size="10.00">application()</text>
<text text-anchor="start" x="102" y="-656" font-family="Helvetica,sans-Serif" font-size="10.00">+</text>
<text text-anchor="start" x="117" y="-656" font-family="Helvetica,sans-Serif" font-size="10.00">threadMng()</text>
<text text-anchor="start" x="102" y="-641" font-family="Helvetica,sans-Serif" font-size="10.00">+</text>
<text text-anchor="start" x="117" y="-641" font-family="Helvetica,sans-Serif" font-size="10.00">isParallel()</text>
<text text-anchor="start" x="102" y="-626" font-family="Helvetica,sans-Serif" font-size="10.00">+</text>
<text text-anchor="start" x="117" y="-626" font-family="Helvetica,sans-Serif" font-size="10.00">commRank()</text>
<text text-anchor="start" x="102" y="-611" font-family="Helvetica,sans-Serif" font-size="10.00">+</text>
<text text-anchor="start" x="117" y="-611" font-family="Helvetica,sans-Serif" font-size="10.00">commSize()</text>
<text text-anchor="start" x="117" y="-596" font-family="Helvetica,sans-Serif" font-size="10.00">et 13 de plus...</text>
<polygon fill="#666666" stroke="#666666" points="96,-909 96,-909 272,-909 272,-909 96,-909"/>
<polygon fill="#666666" stroke="#666666" points="96,-789 96,-789 115,-789 115,-789 96,-789"/>
<polygon fill="#666666" stroke="#666666" points="115,-789 115,-789 272,-789 272,-789 115,-789"/>
<polygon fill="none" stroke="#666666" points="96,-589 96,-937 272,-937 272,-589 96,-589"/>
</a>
</g>
</g>
<!-- Node1&#45;&gt;Node2 -->
<g id="edge1_Node000001_Node000002" class="edge">
<title>Node1&#45;&gt;Node2</title>
<g id="a_edge1_Node000001_Node000002"><a xlink:title=" ">
<path fill="none" stroke="#63b8ff" d="M236.59,-963.23C234.3,-954.58 232,-945.87 229.72,-937.2"/>
<polygon fill="none" stroke="#63b8ff" points="233.22,-964.2 239.16,-972.98 239.99,-962.42 233.22,-964.2"/>
</a>
</g>
</g>
<!-- Node4 -->
<g id="Node000004" class="node">
<title>Node4</title>
<g id="a_Node000004"><a xlink:href="../../de/d43/classArcane_1_1ParallelSuperMngDispatcher.html" target="_top" xlink:title="Redirige la gestion des messages des sous&#45;domaines suivant le type de l&#39;argument.">
<polygon fill="white" stroke="transparent" points="508.5,-905.5 333.5,-905.5 333.5,-620.5 508.5,-620.5 508.5,-905.5"/>
<text text-anchor="start" x="359" y="-893" font-family="Helvetica,sans-Serif" font-size="10.00">Arcane::ParallelSuperMng</text>
<text text-anchor="start" x="395" y="-882" font-family="Helvetica,sans-Serif" font-size="10.00">Dispatcher</text>
<text text-anchor="start" x="340.5" y="-867" font-family="Helvetica,sans-Serif" font-size="10.00">&#45;</text>
<text text-anchor="start" x="351" y="-867" font-family="Helvetica,sans-Serif" font-size="10.00">m_byte</text>
<text text-anchor="start" x="340.5" y="-852" font-family="Helvetica,sans-Serif" font-size="10.00">&#45;</text>
<text text-anchor="start" x="351" y="-852" font-family="Helvetica,sans-Serif" font-size="10.00">m_int32</text>
<text text-anchor="start" x="340.5" y="-837" font-family="Helvetica,sans-Serif" font-size="10.00">&#45;</text>
<text text-anchor="start" x="351" y="-837" font-family="Helvetica,sans-Serif" font-size="10.00">m_int64</text>
<text text-anchor="start" x="340.5" y="-822" font-family="Helvetica,sans-Serif" font-size="10.00">&#45;</text>
<text text-anchor="start" x="351" y="-822" font-family="Helvetica,sans-Serif" font-size="10.00">m_real</text>
<text text-anchor="start" x="338" y="-807" font-family="Helvetica,sans-Serif" font-size="10.00">+</text>
<text text-anchor="start" x="351" y="-807" font-family="Helvetica,sans-Serif" font-size="10.00">ParallelSuperMngDispatcher()</text>
<text text-anchor="start" x="338" y="-792" font-family="Helvetica,sans-Serif" font-size="10.00">+</text>
<text text-anchor="start" x="351" y="-792" font-family="Helvetica,sans-Serif" font-size="10.00">~ParallelSuperMngDispatcher()</text>
<text text-anchor="start" x="338" y="-777" font-family="Helvetica,sans-Serif" font-size="10.00">+</text>
<text text-anchor="start" x="351" y="-777" font-family="Helvetica,sans-Serif" font-size="10.00">allGather()</text>
<text text-anchor="start" x="338" y="-762" font-family="Helvetica,sans-Serif" font-size="10.00">+</text>
<text text-anchor="start" x="351" y="-762" font-family="Helvetica,sans-Serif" font-size="10.00">allGather()</text>
<text text-anchor="start" x="338" y="-747" font-family="Helvetica,sans-Serif" font-size="10.00">+</text>
<text text-anchor="start" x="351" y="-747" font-family="Helvetica,sans-Serif" font-size="10.00">allGather()</text>
<text text-anchor="start" x="338" y="-732" font-family="Helvetica,sans-Serif" font-size="10.00">+</text>
<text text-anchor="start" x="351" y="-732" font-family="Helvetica,sans-Serif" font-size="10.00">allGather()</text>
<text text-anchor="start" x="338" y="-717" font-family="Helvetica,sans-Serif" font-size="10.00">+</text>
<text text-anchor="start" x="351" y="-717" font-family="Helvetica,sans-Serif" font-size="10.00">reduce()</text>
<text text-anchor="start" x="338" y="-702" font-family="Helvetica,sans-Serif" font-size="10.00">+</text>
<text text-anchor="start" x="351" y="-702" font-family="Helvetica,sans-Serif" font-size="10.00">reduce()</text>
<text text-anchor="start" x="338" y="-687" font-family="Helvetica,sans-Serif" font-size="10.00">+</text>
<text text-anchor="start" x="351" y="-687" font-family="Helvetica,sans-Serif" font-size="10.00">reduce()</text>
<text text-anchor="start" x="338" y="-672" font-family="Helvetica,sans-Serif" font-size="10.00">+</text>
<text text-anchor="start" x="351" y="-672" font-family="Helvetica,sans-Serif" font-size="10.00">reduce()</text>
<text text-anchor="start" x="351" y="-657" font-family="Helvetica,sans-Serif" font-size="10.00">et 36 de plus...</text>
<text text-anchor="start" x="338" y="-642" font-family="Helvetica,sans-Serif" font-size="10.00">#</text>
<text text-anchor="start" x="351" y="-642" font-family="Helvetica,sans-Serif" font-size="10.00">_setDispatchers()</text>
<text text-anchor="start" x="338" y="-627" font-family="Helvetica,sans-Serif" font-size="10.00">#</text>
<text text-anchor="start" x="351" y="-627" font-family="Helvetica,sans-Serif" font-size="10.00">_finalize()</text>
<polygon fill="#666666" stroke="#666666" points="334,-877 334,-877 509,-877 509,-877 334,-877"/>
<polygon fill="#666666" stroke="#666666" points="334,-817 334,-817 349,-817 349,-817 334,-817"/>
<polygon fill="#666666" stroke="#666666" points="349,-817 349,-817 509,-817 509,-817 349,-817"/>
<polygon fill="none" stroke="#666666" points="333.5,-620.5 333.5,-905.5 508.5,-905.5 508.5,-620.5 333.5,-620.5"/>
</a>
</g>
</g>
<!-- Node1&#45;&gt;Node4 -->
<g id="edge3_Node000001_Node000004" class="edge">
<title>Node1&#45;&gt;Node4</title>
<g id="a_edge3_Node000001_Node000004"><a xlink:title=" ">
<path fill="none" stroke="#63b8ff" d="M345,-963.49C352.39,-944.11 359.86,-924.49 367.09,-905.51"/>
<polygon fill="none" stroke="#63b8ff" points="341.68,-962.39 341.39,-972.98 348.22,-964.88 341.68,-962.39"/>
</a>
</g>
</g>
<!-- Node3 -->
<g id="Node000003" class="node">
<title>Node3</title>
<g id="a_Node000003"><a xlink:href="../../d6/d94/classArcane_1_1MessagePassing_1_1MpiSharedMemoryParallelSuperMng.html" target="_top" xlink:title="Superviseur en mémoire partagé avec initialisation MPI.">
<polygon fill="white" stroke="transparent" points="194,-406.5 0,-406.5 0,-294.5 194,-294.5 194,-406.5"/>
<text text-anchor="start" x="5" y="-394.5" font-family="Helvetica,sans-Serif" font-size="10.00">Arcane::MessagePassing</text>
<text text-anchor="start" x="5" y="-383.5" font-family="Helvetica,sans-Serif" font-size="10.00">::MpiSharedMemoryParallelSuperMng</text>
<text text-anchor="start" x="95" y="-368.5" font-family="Helvetica,sans-Serif" font-size="10.00"> </text>
<text text-anchor="start" x="8" y="-353.5" font-family="Helvetica,sans-Serif" font-size="10.00">+</text>
<text text-anchor="start" x="25" y="-353.5" font-family="Helvetica,sans-Serif" font-size="10.00">MpiSharedMemoryParallelSuper</text>
<text text-anchor="start" x="25" y="-342.5" font-family="Helvetica,sans-Serif" font-size="10.00">Mng()</text>
<text text-anchor="start" x="8" y="-327.5" font-family="Helvetica,sans-Serif" font-size="10.00">+</text>
<text text-anchor="start" x="25" y="-327.5" font-family="Helvetica,sans-Serif" font-size="10.00">~MpiSharedMemoryParallel</text>
<text text-anchor="start" x="25" y="-316.5" font-family="Helvetica,sans-Serif" font-size="10.00">SuperMng()</text>
<text text-anchor="start" x="8" y="-301.5" font-family="Helvetica,sans-Serif" font-size="10.00">+</text>
<text text-anchor="start" x="25" y="-301.5" font-family="Helvetica,sans-Serif" font-size="10.00">build()</text>
<polygon fill="#666666" stroke="#666666" points="0,-378.5 0,-378.5 194,-378.5 194,-378.5 0,-378.5"/>
<polygon fill="#666666" stroke="#666666" points="0,-363.5 0,-363.5 194,-363.5 194,-363.5 0,-363.5"/>
<polygon fill="none" stroke="#666666" points="0,-294.5 0,-406.5 194,-406.5 194,-294.5 0,-294.5"/>
</a>
</g>
</g>
<!-- Node2&#45;&gt;Node3 -->
<g id="edge2_Node000002_Node000003" class="edge">
<title>Node2&#45;&gt;Node3</title>
<g id="a_edge2_Node000002_Node000003"><a xlink:title=" ">
<path fill="none" stroke="#63b8ff" d="M145.17,-578.8C131.92,-516.29 118.09,-451.02 108.67,-406.55"/>
<polygon fill="none" stroke="#63b8ff" points="141.8,-579.75 147.29,-588.8 148.64,-578.3 141.8,-579.75"/>
</a>
</g>
</g>
<!-- Node5 -->
<g id="Node000005" class="node">
<title>Node5</title>
<g id="a_Node000005"><a xlink:href="../../d6/dcb/classArcane_1_1MessagePassing_1_1HybridParallelSuperMng.html" target="_top" xlink:title="Superviseur du parallélisme utilisant MPI et Threads.">
<polygon fill="white" stroke="transparent" points="366,-553 212,-553 212,-148 366,-148 366,-553"/>
<text text-anchor="start" x="227" y="-540.5" font-family="Helvetica,sans-Serif" font-size="10.00">Arcane::MessagePassing</text>
<text text-anchor="start" x="227" y="-529.5" font-family="Helvetica,sans-Serif" font-size="10.00">::HybridParallelSuperMng</text>
<text text-anchor="start" x="216" y="-514.5" font-family="Helvetica,sans-Serif" font-size="10.00">+</text>
<text text-anchor="start" x="229" y="-514.5" font-family="Helvetica,sans-Serif" font-size="10.00">m_container</text>
<text text-anchor="start" x="216" y="-499.5" font-family="Helvetica,sans-Serif" font-size="10.00">+</text>
<text text-anchor="start" x="229" y="-499.5" font-family="Helvetica,sans-Serif" font-size="10.00">m_builder_factory</text>
<text text-anchor="start" x="216" y="-484.5" font-family="Helvetica,sans-Serif" font-size="10.00">+</text>
<text text-anchor="start" x="229" y="-484.5" font-family="Helvetica,sans-Serif" font-size="10.00">m_main_builder</text>
<text text-anchor="start" x="216" y="-469.5" font-family="Helvetica,sans-Serif" font-size="10.00">+</text>
<text text-anchor="start" x="229" y="-469.5" font-family="Helvetica,sans-Serif" font-size="10.00">m_application</text>
<text text-anchor="start" x="216" y="-454.5" font-family="Helvetica,sans-Serif" font-size="10.00">+</text>
<text text-anchor="start" x="229" y="-454.5" font-family="Helvetica,sans-Serif" font-size="10.00">m_stat</text>
<text text-anchor="start" x="216" y="-439.5" font-family="Helvetica,sans-Serif" font-size="10.00">+</text>
<text text-anchor="start" x="229" y="-439.5" font-family="Helvetica,sans-Serif" font-size="10.00">m_mpi_comm_rank</text>
<text text-anchor="start" x="216" y="-424.5" font-family="Helvetica,sans-Serif" font-size="10.00">+</text>
<text text-anchor="start" x="229" y="-424.5" font-family="Helvetica,sans-Serif" font-size="10.00">m_mpi_comm_size</text>
<text text-anchor="start" x="216" y="-409.5" font-family="Helvetica,sans-Serif" font-size="10.00">+</text>
<text text-anchor="start" x="229" y="-409.5" font-family="Helvetica,sans-Serif" font-size="10.00">m_mpi_communicator</text>
<text text-anchor="start" x="216" y="-394.5" font-family="Helvetica,sans-Serif" font-size="10.00">+</text>
<text text-anchor="start" x="229" y="-394.5" font-family="Helvetica,sans-Serif" font-size="10.00">m_communicator</text>
<text text-anchor="start" x="216" y="-379.5" font-family="Helvetica,sans-Serif" font-size="10.00">+</text>
<text text-anchor="start" x="229" y="-379.5" font-family="Helvetica,sans-Serif" font-size="10.00">m_local_nb_rank</text>
<text text-anchor="start" x="216" y="-364.5" font-family="Helvetica,sans-Serif" font-size="10.00">+</text>
<text text-anchor="start" x="229" y="-364.5" font-family="Helvetica,sans-Serif" font-size="10.00">m_mpi_lock</text>
<text text-anchor="start" x="216" y="-349.5" font-family="Helvetica,sans-Serif" font-size="10.00">+</text>
<text text-anchor="start" x="229" y="-349.5" font-family="Helvetica,sans-Serif" font-size="10.00">m_mpi_adapter</text>
<text text-anchor="start" x="216" y="-334.5" font-family="Helvetica,sans-Serif" font-size="10.00">+</text>
<text text-anchor="start" x="229" y="-334.5" font-family="Helvetica,sans-Serif" font-size="10.00">m_datatype_list</text>
<text text-anchor="start" x="216" y="-319.5" font-family="Helvetica,sans-Serif" font-size="10.00">+</text>
<text text-anchor="start" x="229" y="-319.5" font-family="Helvetica,sans-Serif" font-size="10.00">m_error_handler</text>
<text text-anchor="start" x="216" y="-304.5" font-family="Helvetica,sans-Serif" font-size="10.00">+</text>
<text text-anchor="start" x="229" y="-304.5" font-family="Helvetica,sans-Serif" font-size="10.00">HybridParallelSuperMng()</text>
<text text-anchor="start" x="216" y="-289.5" font-family="Helvetica,sans-Serif" font-size="10.00">+</text>
<text text-anchor="start" x="229" y="-289.5" font-family="Helvetica,sans-Serif" font-size="10.00">~HybridParallelSuperMng()</text>
<text text-anchor="start" x="216" y="-274.5" font-family="Helvetica,sans-Serif" font-size="10.00">+</text>
<text text-anchor="start" x="229" y="-274.5" font-family="Helvetica,sans-Serif" font-size="10.00">initialize()</text>
<text text-anchor="start" x="216" y="-259.5" font-family="Helvetica,sans-Serif" font-size="10.00">+</text>
<text text-anchor="start" x="229" y="-259.5" font-family="Helvetica,sans-Serif" font-size="10.00">build()</text>
<text text-anchor="start" x="216" y="-244.5" font-family="Helvetica,sans-Serif" font-size="10.00">+</text>
<text text-anchor="start" x="229" y="-244.5" font-family="Helvetica,sans-Serif" font-size="10.00">application()</text>
<text text-anchor="start" x="216" y="-229.5" font-family="Helvetica,sans-Serif" font-size="10.00">+</text>
<text text-anchor="start" x="229" y="-229.5" font-family="Helvetica,sans-Serif" font-size="10.00">threadMng()</text>
<text text-anchor="start" x="216" y="-214.5" font-family="Helvetica,sans-Serif" font-size="10.00">+</text>
<text text-anchor="start" x="229" y="-214.5" font-family="Helvetica,sans-Serif" font-size="10.00">isParallel()</text>
<text text-anchor="start" x="216" y="-199.5" font-family="Helvetica,sans-Serif" font-size="10.00">+</text>
<text text-anchor="start" x="229" y="-199.5" font-family="Helvetica,sans-Serif" font-size="10.00">commRank()</text>
<text text-anchor="start" x="216" y="-184.5" font-family="Helvetica,sans-Serif" font-size="10.00">+</text>
<text text-anchor="start" x="229" y="-184.5" font-family="Helvetica,sans-Serif" font-size="10.00">commSize()</text>
<text text-anchor="start" x="216" y="-169.5" font-family="Helvetica,sans-Serif" font-size="10.00">+</text>
<text text-anchor="start" x="229" y="-169.5" font-family="Helvetica,sans-Serif" font-size="10.00">traceRank()</text>
<text text-anchor="start" x="229" y="-154.5" font-family="Helvetica,sans-Serif" font-size="10.00">et 8 de plus...</text>
<polygon fill="#666666" stroke="#666666" points="212,-524.5 212,-524.5 366,-524.5 366,-524.5 212,-524.5"/>
<polygon fill="#666666" stroke="#666666" points="212,-314.5 212,-314.5 227,-314.5 227,-314.5 212,-314.5"/>
<polygon fill="#666666" stroke="#666666" points="227,-314.5 227,-314.5 366,-314.5 366,-314.5 227,-314.5"/>
<polygon fill="none" stroke="#666666" points="212,-148 212,-553 366,-553 366,-148 212,-148"/>
</a>
</g>
</g>
<!-- Node4&#45;&gt;Node5 -->
<g id="edge4_Node000004_Node000005" class="edge">
<title>Node4&#45;&gt;Node5</title>
<g id="a_edge4_Node000004_Node000005"><a xlink:title=" ">
<path fill="none" stroke="#63b8ff" d="M372.34,-610.67C366.29,-591.87 360.04,-572.41 353.79,-553"/>
<polygon fill="none" stroke="#63b8ff" points="369.09,-611.99 375.48,-620.44 375.75,-609.85 369.09,-611.99"/>
</a>
</g>
</g>
<!-- Node6 -->
<g id="Node000006" class="node">
<title>Node6</title>
<g id="a_Node000006"><a xlink:href="../../d5/dee/classArcane_1_1MpiParallelSuperMng.html" target="_top" xlink:title="Superviseur du parallélisme utilisant MPI.">
<polygon fill="white" stroke="transparent" points="545.5,-547.5 384.5,-547.5 384.5,-153.5 545.5,-153.5 545.5,-547.5"/>
<text text-anchor="start" x="394" y="-535.5" font-family="Helvetica,sans-Serif" font-size="10.00">Arcane::MpiParallelSuperMng</text>
<text text-anchor="start" x="389" y="-520.5" font-family="Helvetica,sans-Serif" font-size="10.00">+</text>
<text text-anchor="start" x="402" y="-520.5" font-family="Helvetica,sans-Serif" font-size="10.00">m_application</text>
<text text-anchor="start" x="389" y="-505.5" font-family="Helvetica,sans-Serif" font-size="10.00">+</text>
<text text-anchor="start" x="402" y="-505.5" font-family="Helvetica,sans-Serif" font-size="10.00">m_thread_mng</text>
<text text-anchor="start" x="389" y="-490.5" font-family="Helvetica,sans-Serif" font-size="10.00">+</text>
<text text-anchor="start" x="402" y="-490.5" font-family="Helvetica,sans-Serif" font-size="10.00">m_stat</text>
<text text-anchor="start" x="389" y="-475.5" font-family="Helvetica,sans-Serif" font-size="10.00">+</text>
<text text-anchor="start" x="402" y="-475.5" font-family="Helvetica,sans-Serif" font-size="10.00">m_is_parallel</text>
<text text-anchor="start" x="389" y="-460.5" font-family="Helvetica,sans-Serif" font-size="10.00">+</text>
<text text-anchor="start" x="402" y="-460.5" font-family="Helvetica,sans-Serif" font-size="10.00">m_rank</text>
<text text-anchor="start" x="389" y="-445.5" font-family="Helvetica,sans-Serif" font-size="10.00">+</text>
<text text-anchor="start" x="402" y="-445.5" font-family="Helvetica,sans-Serif" font-size="10.00">m_nb_rank</text>
<text text-anchor="start" x="389" y="-430.5" font-family="Helvetica,sans-Serif" font-size="10.00">+</text>
<text text-anchor="start" x="402" y="-430.5" font-family="Helvetica,sans-Serif" font-size="10.00">m_nb_local_sub_domain</text>
<text text-anchor="start" x="389" y="-415.5" font-family="Helvetica,sans-Serif" font-size="10.00">+</text>
<text text-anchor="start" x="402" y="-415.5" font-family="Helvetica,sans-Serif" font-size="10.00">m_mpi_main_communicator</text>
<text text-anchor="start" x="389" y="-400.5" font-family="Helvetica,sans-Serif" font-size="10.00">+</text>
<text text-anchor="start" x="402" y="-400.5" font-family="Helvetica,sans-Serif" font-size="10.00">m_main_communicator</text>
<text text-anchor="start" x="389" y="-385.5" font-family="Helvetica,sans-Serif" font-size="10.00">+</text>
<text text-anchor="start" x="402" y="-385.5" font-family="Helvetica,sans-Serif" font-size="10.00">m_error_handler</text>
<text text-anchor="start" x="389" y="-370.5" font-family="Helvetica,sans-Serif" font-size="10.00">+</text>
<text text-anchor="start" x="402" y="-370.5" font-family="Helvetica,sans-Serif" font-size="10.00">m_adapter</text>
<text text-anchor="start" x="389" y="-355.5" font-family="Helvetica,sans-Serif" font-size="10.00">+</text>
<text text-anchor="start" x="402" y="-355.5" font-family="Helvetica,sans-Serif" font-size="10.00">m_datatype_list</text>
<text text-anchor="start" x="389" y="-340.5" font-family="Helvetica,sans-Serif" font-size="10.00">+</text>
<text text-anchor="start" x="402" y="-340.5" font-family="Helvetica,sans-Serif" font-size="10.00">MpiParallelSuperMng()</text>
<text text-anchor="start" x="389" y="-325.5" font-family="Helvetica,sans-Serif" font-size="10.00">+</text>
<text text-anchor="start" x="402" y="-325.5" font-family="Helvetica,sans-Serif" font-size="10.00">~MpiParallelSuperMng()</text>
<text text-anchor="start" x="389" y="-310.5" font-family="Helvetica,sans-Serif" font-size="10.00">+</text>
<text text-anchor="start" x="402" y="-310.5" font-family="Helvetica,sans-Serif" font-size="10.00">initialize()</text>
<text text-anchor="start" x="389" y="-295.5" font-family="Helvetica,sans-Serif" font-size="10.00">+</text>
<text text-anchor="start" x="402" y="-295.5" font-family="Helvetica,sans-Serif" font-size="10.00">build()</text>
<text text-anchor="start" x="389" y="-280.5" font-family="Helvetica,sans-Serif" font-size="10.00">+</text>
<text text-anchor="start" x="402" y="-280.5" font-family="Helvetica,sans-Serif" font-size="10.00">application()</text>
<text text-anchor="start" x="389" y="-265.5" font-family="Helvetica,sans-Serif" font-size="10.00">+</text>
<text text-anchor="start" x="402" y="-265.5" font-family="Helvetica,sans-Serif" font-size="10.00">threadMng()</text>
<text text-anchor="start" x="389" y="-250.5" font-family="Helvetica,sans-Serif" font-size="10.00">+</text>
<text text-anchor="start" x="402" y="-250.5" font-family="Helvetica,sans-Serif" font-size="10.00">isParallel()</text>
<text text-anchor="start" x="389" y="-235.5" font-family="Helvetica,sans-Serif" font-size="10.00">+</text>
<text text-anchor="start" x="402" y="-235.5" font-family="Helvetica,sans-Serif" font-size="10.00">commRank()</text>
<text text-anchor="start" x="389" y="-220.5" font-family="Helvetica,sans-Serif" font-size="10.00">+</text>
<text text-anchor="start" x="402" y="-220.5" font-family="Helvetica,sans-Serif" font-size="10.00">commSize()</text>
<text text-anchor="start" x="389" y="-205.5" font-family="Helvetica,sans-Serif" font-size="10.00">+</text>
<text text-anchor="start" x="402" y="-205.5" font-family="Helvetica,sans-Serif" font-size="10.00">traceRank()</text>
<text text-anchor="start" x="402" y="-190.5" font-family="Helvetica,sans-Serif" font-size="10.00">et 8 de plus...</text>
<text text-anchor="start" x="389" y="-175.5" font-family="Helvetica,sans-Serif" font-size="10.00">+</text>
<text text-anchor="start" x="402" y="-175.5" font-family="Helvetica,sans-Serif" font-size="10.00">initMPI()</text>
<text text-anchor="start" x="391.5" y="-160.5" font-family="Helvetica,sans-Serif" font-size="10.00">&#45;</text>
<text text-anchor="start" x="402" y="-160.5" font-family="Helvetica,sans-Serif" font-size="10.00">_ErrorHandler()</text>
<polygon fill="#666666" stroke="#666666" points="385,-530.5 385,-530.5 546,-530.5 546,-530.5 385,-530.5"/>
<polygon fill="#666666" stroke="#666666" points="385,-350.5 385,-350.5 400,-350.5 400,-350.5 385,-350.5"/>
<polygon fill="#666666" stroke="#666666" points="400,-350.5 400,-350.5 546,-350.5 546,-350.5 400,-350.5"/>
<polygon fill="none" stroke="#666666" points="384.5,-153.5 384.5,-547.5 545.5,-547.5 545.5,-153.5 384.5,-153.5"/>
</a>
</g>
</g>
<!-- Node4&#45;&gt;Node6 -->
<g id="edge5_Node000004_Node000006" class="edge">
<title>Node4&#45;&gt;Node6</title>
<g id="a_edge5_Node000004_Node000006"><a xlink:title=" ">
<path fill="none" stroke="#63b8ff" d="M437.24,-610.45C439.44,-589.95 441.72,-568.68 443.99,-547.55"/>
<polygon fill="none" stroke="#63b8ff" points="433.76,-610.13 436.17,-620.44 440.72,-610.87 433.76,-610.13"/>
</a>
</g>
</g>
<!-- Node7 -->
<g id="Node000007" class="node">
<title>Node7</title>
<g id="a_Node000007"><a xlink:href="../../d1/de4/classArcane_1_1SequentialParallelSuperMng.html" target="_top" xlink:title="Superviseur du parallélisme en mode séquentiel.">
<polygon fill="white" stroke="transparent" points="730,-491 564,-491 564,-210 730,-210 730,-491"/>
<text text-anchor="start" x="583" y="-478.5" font-family="Helvetica,sans-Serif" font-size="10.00">Arcane::SequentialParallel</text>
<text text-anchor="start" x="622.5" y="-467.5" font-family="Helvetica,sans-Serif" font-size="10.00">SuperMng</text>
<text text-anchor="start" x="570.5" y="-452.5" font-family="Helvetica,sans-Serif" font-size="10.00">&#45;</text>
<text text-anchor="start" x="581" y="-452.5" font-family="Helvetica,sans-Serif" font-size="10.00">m_application</text>
<text text-anchor="start" x="570.5" y="-437.5" font-family="Helvetica,sans-Serif" font-size="10.00">&#45;</text>
<text text-anchor="start" x="581" y="-437.5" font-family="Helvetica,sans-Serif" font-size="10.00">m_thread_mng</text>
<text text-anchor="start" x="570.5" y="-422.5" font-family="Helvetica,sans-Serif" font-size="10.00">&#45;</text>
<text text-anchor="start" x="581" y="-422.5" font-family="Helvetica,sans-Serif" font-size="10.00">m_timer_mng</text>
<text text-anchor="start" x="570.5" y="-407.5" font-family="Helvetica,sans-Serif" font-size="10.00">&#45;</text>
<text text-anchor="start" x="581" y="-407.5" font-family="Helvetica,sans-Serif" font-size="10.00">m_owned_timer_mng</text>
<text text-anchor="start" x="570.5" y="-392.5" font-family="Helvetica,sans-Serif" font-size="10.00">&#45;</text>
<text text-anchor="start" x="581" y="-392.5" font-family="Helvetica,sans-Serif" font-size="10.00">m_communicator</text>
<text text-anchor="start" x="568" y="-377.5" font-family="Helvetica,sans-Serif" font-size="10.00">+</text>
<text text-anchor="start" x="581" y="-377.5" font-family="Helvetica,sans-Serif" font-size="10.00">SequentialParallelSuperMng()</text>
<text text-anchor="start" x="568" y="-362.5" font-family="Helvetica,sans-Serif" font-size="10.00">+</text>
<text text-anchor="start" x="581" y="-362.5" font-family="Helvetica,sans-Serif" font-size="10.00">SequentialParallelSuperMng()</text>
<text text-anchor="start" x="568" y="-347.5" font-family="Helvetica,sans-Serif" font-size="10.00">+</text>
<text text-anchor="start" x="581" y="-347.5" font-family="Helvetica,sans-Serif" font-size="10.00">~SequentialParallelSuper</text>
<text text-anchor="start" x="581" y="-336.5" font-family="Helvetica,sans-Serif" font-size="10.00">Mng()</text>
<text text-anchor="start" x="568" y="-321.5" font-family="Helvetica,sans-Serif" font-size="10.00">+</text>
<text text-anchor="start" x="581" y="-321.5" font-family="Helvetica,sans-Serif" font-size="10.00">build()</text>
<text text-anchor="start" x="568" y="-306.5" font-family="Helvetica,sans-Serif" font-size="10.00">+</text>
<text text-anchor="start" x="581" y="-306.5" font-family="Helvetica,sans-Serif" font-size="10.00">initialize()</text>
<text text-anchor="start" x="568" y="-291.5" font-family="Helvetica,sans-Serif" font-size="10.00">+</text>
<text text-anchor="start" x="581" y="-291.5" font-family="Helvetica,sans-Serif" font-size="10.00">application()</text>
<text text-anchor="start" x="568" y="-276.5" font-family="Helvetica,sans-Serif" font-size="10.00">+</text>
<text text-anchor="start" x="581" y="-276.5" font-family="Helvetica,sans-Serif" font-size="10.00">threadMng()</text>
<text text-anchor="start" x="568" y="-261.5" font-family="Helvetica,sans-Serif" font-size="10.00">+</text>
<text text-anchor="start" x="581" y="-261.5" font-family="Helvetica,sans-Serif" font-size="10.00">isParallel()</text>
<text text-anchor="start" x="568" y="-246.5" font-family="Helvetica,sans-Serif" font-size="10.00">+</text>
<text text-anchor="start" x="581" y="-246.5" font-family="Helvetica,sans-Serif" font-size="10.00">commRank()</text>
<text text-anchor="start" x="568" y="-231.5" font-family="Helvetica,sans-Serif" font-size="10.00">+</text>
<text text-anchor="start" x="581" y="-231.5" font-family="Helvetica,sans-Serif" font-size="10.00">commSize()</text>
<text text-anchor="start" x="581" y="-216.5" font-family="Helvetica,sans-Serif" font-size="10.00">et 9 de plus...</text>
<polygon fill="#666666" stroke="#666666" points="564,-462.5 564,-462.5 730,-462.5 730,-462.5 564,-462.5"/>
<polygon fill="#666666" stroke="#666666" points="564,-387.5 564,-387.5 579,-387.5 579,-387.5 564,-387.5"/>
<polygon fill="#666666" stroke="#666666" points="579,-387.5 579,-387.5 730,-387.5 730,-387.5 579,-387.5"/>
<polygon fill="none" stroke="#666666" points="564,-210 564,-491 730,-491 730,-210 564,-210"/>
</a>
</g>
</g>
<!-- Node4&#45;&gt;Node7 -->
<g id="edge6_Node000004_Node000007" class="edge">
<title>Node4&#45;&gt;Node7</title>
<g id="a_edge6_Node000004_Node000007"><a xlink:title=" ">
<path fill="none" stroke="#63b8ff" d="M514.07,-622.83C528.34,-599.83 542.47,-575.99 555,-553 565.72,-533.33 576.33,-512.18 586.32,-491.24"/>
<polygon fill="none" stroke="#63b8ff" points="510.93,-621.26 508.6,-631.6 516.87,-624.97 510.93,-621.26"/>
</a>
</g>
</g>
<!-- Node8 -->
<g id="Node000008" class="node">
<title>Node8</title>
<g id="a_Node000008"><a xlink:href="../../da/d10/classArcane_1_1MpiSequentialParallelSuperMng.html" target="_top" xlink:title="Superviseur en mode MPI avec un seul process alloué pour se comporter comme en séqentiel mais avec un...">
<polygon fill="white" stroke="transparent" points="728.5,-112 565.5,-112 565.5,0 728.5,0 728.5,-112"/>
<text text-anchor="start" x="574.5" y="-100" font-family="Helvetica,sans-Serif" font-size="10.00">Arcane::MpiSequentialParallel</text>
<text text-anchor="start" x="623" y="-89" font-family="Helvetica,sans-Serif" font-size="10.00">SuperMng</text>
<text text-anchor="start" x="645.5" y="-74" font-family="Helvetica,sans-Serif" font-size="10.00"> </text>
<text text-anchor="start" x="570" y="-59" font-family="Helvetica,sans-Serif" font-size="10.00">+</text>
<text text-anchor="start" x="583" y="-59" font-family="Helvetica,sans-Serif" font-size="10.00">MpiSequentialParallelSuper</text>
<text text-anchor="start" x="583" y="-48" font-family="Helvetica,sans-Serif" font-size="10.00">Mng()</text>
<text text-anchor="start" x="570" y="-33" font-family="Helvetica,sans-Serif" font-size="10.00">+</text>
<text text-anchor="start" x="583" y="-33" font-family="Helvetica,sans-Serif" font-size="10.00">~MpiSequentialParallelSuper</text>
<text text-anchor="start" x="583" y="-22" font-family="Helvetica,sans-Serif" font-size="10.00">Mng()</text>
<text text-anchor="start" x="570" y="-7" font-family="Helvetica,sans-Serif" font-size="10.00">+</text>
<text text-anchor="start" x="583" y="-7" font-family="Helvetica,sans-Serif" font-size="10.00">build()</text>
<polygon fill="#666666" stroke="#666666" points="566,-84 566,-84 729,-84 729,-84 566,-84"/>
<polygon fill="#666666" stroke="#666666" points="566,-69 566,-69 729,-69 729,-69 566,-69"/>
<polygon fill="none" stroke="#666666" points="565.5,0 565.5,-112 728.5,-112 728.5,0 565.5,0"/>
</a>
</g>
</g>
<!-- Node7&#45;&gt;Node8 -->
<g id="edge7_Node000007_Node000008" class="edge">
<title>Node7&#45;&gt;Node8</title>
<g id="a_edge7_Node000007_Node000008"><a xlink:title=" ">
<path fill="none" stroke="#63b8ff" d="M647,-199.51C647,-168.22 647,-137.15 647,-112.05"/>
<polygon fill="none" stroke="#63b8ff" points="643.5,-199.68 647,-209.68 650.5,-199.68 643.5,-199.68"/>
</a>
</g>
</g>
</g>
</svg>

<g id="navigator" transform="translate(0 0)" fill="#404254">
  <rect fill="#f2f5e9" fill-opacity="0.5" stroke="#606060" stroke-width=".5" x="0" y="0" width="60" height="60"/>
  <use id="zoomplus" xlink:href="#zoomPlus" x="17" y="9" onmousedown="handleZoom(evt,'in')"/>
  <use id="zoomminus" xlink:href="#zoomMin" x="42" y="9" onmousedown="handleZoom(evt,'out')"/>
  <use id="reset" xlink:href="#resetDef" x="30" y="36" onmousedown="handleReset()"/>
   <use id="arrowup" xlink:href="#arrowUp" x="0" y="0" onmousedown="handlePan(0,-1)"/>
  <use id="arrowright" xlink:href="#arrowRight" x="0" y="0" onmousedown="handlePan(1,0)"/>
  <use id="arrowdown" xlink:href="#arrowDown" x="0" y="0" onmousedown="handlePan(0,1)"/>
  <use id="arrowleft" xlink:href="#arrowLeft" x="0" y="0" onmousedown="handlePan(-1,0)"/>
</g>
<svg viewBox="0 0 15 15" width="100%" height="30px" preserveAspectRatio="xMaxYMin meet">
 <g id="arrow_out" transform="scale(0.3 0.3)">
  <a xlink:href="classArcane_1_1IParallelSuperMng__inherit__graph_org.svg" target="_base">
   <rect id="button" ry="5" rx="5" y="6" x="6" height="38" width="38"
        fill="#f2f5e9" fill-opacity="0.5" stroke="#606060" stroke-width="1.0"/>
   <path id="arrow"
     d="M 11.500037,31.436501 C 11.940474,20.09759 22.043105,11.32322 32.158766,21.979434 L 37.068811,17.246167 C 37.068811,17.246167 37.088388,32 37.088388,32 L 22.160133,31.978069 C 22.160133,31.978069 26.997745,27.140456 26.997745,27.140456 C 18.528582,18.264221 13.291696,25.230495 11.500037,31.436501 z"
     style="fill:#404040;"/>
  </a>
 </g>
</svg>

<style type='text/css'>
<![CDATA[
[data-mouse-over-selected='false'] { opacity: 0.7; }
[data-mouse-over-selected='true']  { opacity: 1.0; }
]]>
</style>
<script type="application/ecmascript"><![CDATA[
document.addEventListener('DOMContentLoaded', (event) => {
  highlightEdges();
  highlightAdjacentNodes();
});
]]></script>
</svg>
