<?xml version="1.0" encoding="UTF-8" standalone="no"?>
<!DOCTYPE svg PUBLIC "-//W3C//DTD SVG 1.1//EN"
 "http://www.w3.org/Graphics/SVG/1.1/DTD/svg11.dtd">
<!-- Generated by graphviz version 2.43.0 (0)
 -->
<!-- Title: Arcane::Alina::ScopedStreamModifier Pages: 1 -->
<svg width="160pt" height="113pt"
 viewBox="0.00 0.00 160.00 113.00" xmlns="http://www.w3.org/2000/svg" xmlns:xlink="http://www.w3.org/1999/xlink">
<g id="graph0" class="graph" transform="scale(1 1) rotate(0) translate(4 109)">
<title>Arcane::Alina::ScopedStreamModifier</title>
<!-- Node1 -->
<g id="Node000001" class="node">
<title>Node1</title>
<g id="a_Node000001"><a xlink:title="Save ostream flags in constructor, restore in destructor.">
<polygon fill="#999999" stroke="transparent" points="152,-105 0,-105 0,0 152,0 152,-105"/>
<text text-anchor="start" x="5" y="-92.5" font-family="Helvetica,sans-Serif" font-size="10.00">Arcane::Alina::ScopedStream</text>
<text text-anchor="start" x="56" y="-81.5" font-family="Helvetica,sans-Serif" font-size="10.00">Modifier</text>
<text text-anchor="start" x="7.5" y="-66.5" font-family="Helvetica,sans-Serif" font-size="10.00">&#45;</text>
<text text-anchor="start" x="19" y="-66.5" font-family="Helvetica,sans-Serif" font-size="10.00">s</text>
<text text-anchor="start" x="7.5" y="-51.5" font-family="Helvetica,sans-Serif" font-size="10.00">&#45;</text>
<text text-anchor="start" x="19" y="-51.5" font-family="Helvetica,sans-Serif" font-size="10.00">f</text>
<text text-anchor="start" x="7.5" y="-36.5" font-family="Helvetica,sans-Serif" font-size="10.00">&#45;</text>
<text text-anchor="start" x="19" y="-36.5" font-family="Helvetica,sans-Serif" font-size="10.00">p</text>
<text text-anchor="start" x="5" y="-21.5" font-family="Helvetica,sans-Serif" font-size="10.00">+</text>
<text text-anchor="start" x="19" y="-21.5" font-family="Helvetica,sans-Serif" font-size="10.00">ScopedStreamModifier()</text>
<text text-anchor="start" x="5" y="-6.5" font-family="Helvetica,sans-Serif" font-size="10.00">+</text>
<text text-anchor="start" x="19" y="-6.5" font-family="Helvetica,sans-Serif" font-size="10.00">~ScopedStreamModifier()</text>
<polygon fill="#666666" stroke="#666666" points="0,-76.5 0,-76.5 152,-76.5 152,-76.5 0,-76.5"/>
<polygon fill="#666666" stroke="#666666" points="0,-31.5 0,-31.5 17,-31.5 17,-31.5 0,-31.5"/>
<polygon fill="#666666" stroke="#666666" points="17,-31.5 17,-31.5 152,-31.5 152,-31.5 17,-31.5"/>
<polygon fill="none" stroke="#666666" points="0,0 0,-105 152,-105 152,0 0,0"/>
</a>
</g>
</g>
</g>
</svg>
