<?xml version="1.0" encoding="UTF-8" standalone="no"?>
<!DOCTYPE svg PUBLIC "-//W3C//DTD SVG 1.1//EN"
 "http://www.w3.org/Graphics/SVG/1.1/DTD/svg11.dtd">
<!-- Generated by graphviz version 2.43.0 (0)
 -->
<!-- Title: Arcane::XmlNode::createText Pages: 1 -->
<!--zoomable 175 -->

<svg id="main" version="1.1" xmlns="http://www.w3.org/2000/svg" xmlns:xlink="http://www.w3.org/1999/xlink" xml:space="preserve" onload="init(evt)">

<style type="text/css"><![CDATA[
.node, .edge {opacity: 0.7;}
.node.selected, .edge.selected {opacity: 1;}
.edge:hover path { stroke: red; }
.edge:hover polygon { stroke: red; fill: red; }
]]></style>

<defs>
  <circle id="rim" cx="0" cy="0" r="7"/>
  <circle id="rim2" cx="0" cy="0" r="3.5"/>
  <g id="zoomPlus">
    <use xlink:href="#rim" fill="#404040"><set attributeName="fill" to="#808080" begin="zoomplus.mouseover" end="zoomplus.mouseout"/></use>
    <path d="M-4,0h8M0,-4v8" fill="none" stroke="white" stroke-width="1.5" pointer-events="none"/>
  </g>
  <g id="zoomMin">
    <use xlink:href="#rim" fill="#404040"><set attributeName="fill" to="#808080" begin="zoomminus.mouseover" end="zoomminus.mouseout"/></use>
    <path d="M-4,0h8" fill="none" stroke="white" stroke-width="1.5" pointer-events="none"/>
  </g>
  <g id="arrowUp" transform="translate(30 24)">
    <use xlink:href="#rim"/>
    <path pointer-events="none" fill="none" stroke="white" stroke-width="1.5" d="M0,-3.0v7 M-2.5,-0.5L0,-3.0L2.5,-0.5"/>
  </g>
  <g id="arrowRight" transform="rotate(90) translate(36 -43)">
    <use xlink:href="#rim"/>
    <path pointer-events="none" fill="none" stroke="white" stroke-width="1.5" d="M0,-3.0v7 M-2.5,-0.5L0,-3.0L2.5,-0.5"/>
  </g>
  <g id="arrowDown" transform="rotate(180) translate(-30 -48)">
    <use xlink:href="#rim"/>
    <path pointer-events="none" fill="none" stroke="white" stroke-width="1.5" d="M0,-3.0v7 M-2.5,-0.5L0,-3.0L2.5,-0.5"/>
  </g>
  <g id="arrowLeft" transform="rotate(270) translate(-36 17)">
    <use xlink:href="#rim"/>
    <path pointer-events="none" fill="none" stroke="white" stroke-width="1.5" d="M0,-3.0v7 M-2.5,-0.5L0,-3.0L2.5,-0.5"/>
  </g>
  <g id="resetDef">
    <use xlink:href="#rim2" fill="#404040"><set attributeName="fill" to="#808080" begin="reset.mouseover" end="reset.mouseout"/></use>
  </g>
</defs>
<script type="application/ecmascript">
var viewWidth = 751;
var viewHeight = 175;
var sectionId = 'dynsection-24';
</script>
<script type="application/ecmascript" xlink:href="../../svg.min.js"/>
<svg id="graph" class="graph">
<g id="viewport">
<title>Arcane::XmlNode::createText</title>
<!-- Node1 -->
<g id="Node000001" class="node">
<title>Node1</title>
<g id="a_Node000001"><a xlink:title="Créé un noeud texte.">
<polygon fill="#999999" stroke="#666666" points="158,-56 0,-56 0,-37 158,-37 158,-56"/>
<text text-anchor="middle" x="79" y="-44" font-family="Helvetica,sans-Serif" font-size="10.00">Arcane::XmlNode::createText</text>
</a>
</g>
</g>
<!-- Node2 -->
<g id="Node000002" class="node">
<title>Node2</title>
<g id="a_Node000002"><a xlink:href="../../d9/dcc/classArcane_1_1XmlNode.html#ad88bb85788ae9abf5bf1d3d0bc72f369" target="_top" xlink:title="Créé un noeud d&#39;un type donné.">
<polygon fill="white" stroke="#666666" points="358,-84 194,-84 194,-65 358,-65 358,-84"/>
<text text-anchor="middle" x="276" y="-72" font-family="Helvetica,sans-Serif" font-size="10.00">Arcane::XmlNode::createNode</text>
</a>
</g>
</g>
<!-- Node1&#45;&gt;Node2 -->
<g id="edge1_Node000001_Node000002" class="edge">
<title>Node1&#45;&gt;Node2</title>
<g id="a_edge1_Node000001_Node000002"><a xlink:title=" ">
<path fill="none" stroke="#63b8ff" d="M146.29,-56.02C163.09,-58.43 181.27,-61.04 198.53,-63.52"/>
<polygon fill="#63b8ff" stroke="#63b8ff" points="198.17,-67 208.56,-64.96 199.16,-60.07 198.17,-67"/>
</a>
</g>
</g>
<!-- Node7 -->
<g id="Node000007" class="node">
<title>Node7</title>
<g id="a_Node000007"><a xlink:href="../../d9/dcc/classArcane_1_1XmlNode.html#a8caccaab130a8ddb49c02096094be089" target="_top" xlink:title="Valeur du noeud.">
<polygon fill="white" stroke="#666666" points="555,-19 421,-19 421,0 555,0 555,-19"/>
<text text-anchor="middle" x="488" y="-7" font-family="Helvetica,sans-Serif" font-size="10.00">Arcane::XmlNode::value</text>
</a>
</g>
</g>
<!-- Node1&#45;&gt;Node7 -->
<g id="edge8_Node000001_Node000007" class="edge">
<title>Node1&#45;&gt;Node7</title>
<g id="a_edge8_Node000001_Node000007"><a xlink:title=" ">
<path fill="none" stroke="#63b8ff" d="M158.47,-39.37C231.13,-32.76 338.5,-23 410.51,-16.45"/>
<polygon fill="#63b8ff" stroke="#63b8ff" points="411.23,-19.9 420.87,-15.51 410.6,-12.93 411.23,-19.9"/>
</a>
</g>
</g>
<!-- Node3 -->
<g id="Node000003" class="node">
<title>Node3</title>
<g id="a_Node000003"><a xlink:href="../../d9/dcc/classArcane_1_1XmlNode.html#a0f517ca44826db71c1dd3c4a01a305a2" target="_top" xlink:title=" ">
<polygon fill="white" stroke="#666666" points="582,-167 394,-167 394,-148 582,-148 582,-167"/>
<text text-anchor="middle" x="488" y="-155" font-family="Helvetica,sans-Serif" font-size="10.00">Arcane::XmlNode::assignDomNode</text>
</a>
</g>
</g>
<!-- Node2&#45;&gt;Node3 -->
<g id="edge2_Node000002_Node000003" class="edge">
<title>Node2&#45;&gt;Node3</title>
<g id="a_edge2_Node000002_Node000003"><a xlink:title=" ">
<path fill="none" stroke="#63b8ff" d="M290.72,-84.03C311.89,-98.28 354.26,-125.03 394,-139.5 400.23,-141.77 406.8,-143.77 413.46,-145.53"/>
<polygon fill="#63b8ff" stroke="#63b8ff" points="412.69,-148.94 423.24,-147.94 414.36,-142.15 412.69,-148.94"/>
</a>
</g>
</g>
<!-- Node4 -->
<g id="Node000004" class="node">
<title>Node4</title>
<g id="a_Node000004"><a xlink:href="../../d9/dcc/classArcane_1_1XmlNode.html#acf62d5042e539833c53b5739fa5e061e" target="_top" xlink:title="Nom du noeud.">
<polygon fill="white" stroke="#666666" points="555.5,-130 420.5,-130 420.5,-111 555.5,-111 555.5,-130"/>
<text text-anchor="middle" x="488" y="-118" font-family="Helvetica,sans-Serif" font-size="10.00">Arcane::XmlNode::name</text>
</a>
</g>
</g>
<!-- Node2&#45;&gt;Node4 -->
<g id="edge3_Node000002_Node000004" class="edge">
<title>Node2&#45;&gt;Node4</title>
<g id="a_edge3_Node000002_Node000004"><a xlink:title=" ">
<path fill="none" stroke="#63b8ff" d="M315.11,-84.06C337.93,-89.68 367.56,-96.78 394,-102.5 404.23,-104.71 415.13,-106.94 425.72,-109.03"/>
<polygon fill="#63b8ff" stroke="#63b8ff" points="425.27,-112.51 435.75,-111 426.61,-105.64 425.27,-112.51"/>
</a>
</g>
</g>
<!-- Node5 -->
<g id="Node000005" class="node">
<title>Node5</title>
<g id="a_Node000005"><a xlink:href="../../d9/dcc/classArcane_1_1XmlNode.html#a0acfe1da618a3530e9c3c8d5c1352ba9" target="_top" xlink:title="Positionne la valeur du noeud.">
<polygon fill="white" stroke="#666666" points="562.5,-93 413.5,-93 413.5,-74 562.5,-74 562.5,-93"/>
<text text-anchor="middle" x="488" y="-81" font-family="Helvetica,sans-Serif" font-size="10.00">Arcane::XmlNode::setValue</text>
</a>
</g>
</g>
<!-- Node2&#45;&gt;Node5 -->
<g id="edge4_Node000002_Node000005" class="edge">
<title>Node2&#45;&gt;Node5</title>
<g id="a_edge4_Node000002_Node000005"><a xlink:title=" ">
<path fill="none" stroke="#63b8ff" d="M358.19,-77.98C372.91,-78.61 388.3,-79.27 403.1,-79.9"/>
<polygon fill="#63b8ff" stroke="#63b8ff" points="403.09,-83.41 413.23,-80.34 403.39,-76.41 403.09,-83.41"/>
</a>
</g>
</g>
<!-- Node6 -->
<g id="Node000006" class="node">
<title>Node6</title>
<g id="a_Node000006"><a xlink:href="../../d9/dcc/classArcane_1_1XmlNode.html#a288740a033d9297a5bcb4d93f9e2b3f1" target="_top" xlink:title="Type du noeud.">
<polygon fill="white" stroke="#666666" points="552.5,-56 423.5,-56 423.5,-37 552.5,-37 552.5,-56"/>
<text text-anchor="middle" x="488" y="-44" font-family="Helvetica,sans-Serif" font-size="10.00">Arcane::XmlNode::type</text>
</a>
</g>
</g>
<!-- Node2&#45;&gt;Node6 -->
<g id="edge5_Node000002_Node000006" class="edge">
<title>Node2&#45;&gt;Node6</title>
<g id="a_edge5_Node000002_Node000006"><a xlink:title=" ">
<path fill="none" stroke="#63b8ff" d="M348.39,-64.98C369.23,-62.2 392.06,-59.16 413.06,-56.36"/>
<polygon fill="#63b8ff" stroke="#63b8ff" points="413.75,-59.8 423.2,-55.01 412.83,-52.86 413.75,-59.8"/>
</a>
</g>
</g>
<!-- Node2&#45;&gt;Node7 -->
<g id="edge6_Node000002_Node000007" class="edge">
<title>Node2&#45;&gt;Node7</title>
<g id="a_edge6_Node000002_Node000007"><a xlink:title=" ">
<path fill="none" stroke="#63b8ff" d="M300.56,-64.9C333.35,-51.56 389.28,-28.89 394,-27.5 401.94,-25.16 410.35,-23.05 418.74,-21.16"/>
<polygon fill="#63b8ff" stroke="#63b8ff" points="419.51,-24.57 428.55,-19.05 418.03,-17.73 419.51,-24.57"/>
</a>
</g>
</g>
<!-- Node8 -->
<g id="Node000008" class="node">
<title>Node8</title>
<g id="a_Node000008"><a xlink:href="../../d9/dcc/classArcane_1_1XmlNode.html#aa55e4b639e759107e44fbe17c21d311e" target="_top" xlink:title="Vrai si le noeud est nul.">
<polygon fill="white" stroke="#666666" points="743,-19 618,-19 618,0 743,0 743,-19"/>
<text text-anchor="middle" x="680.5" y="-7" font-family="Helvetica,sans-Serif" font-size="10.00">Arcane::XmlNode::null</text>
</a>
</g>
</g>
<!-- Node7&#45;&gt;Node8 -->
<g id="edge7_Node000007_Node000008" class="edge">
<title>Node7&#45;&gt;Node8</title>
<g id="a_edge7_Node000007_Node000008"><a xlink:title=" ">
<path fill="none" stroke="#63b8ff" d="M555.09,-9.5C572.07,-9.5 590.42,-9.5 607.67,-9.5"/>
<polygon fill="#63b8ff" stroke="#63b8ff" points="607.68,-13 617.68,-9.5 607.68,-6 607.68,-13"/>
</a>
</g>
</g>
</g>
</svg>

<g id="navigator" transform="translate(0 0)" fill="#404254">
  <rect fill="#f2f5e9" fill-opacity="0.5" stroke="#606060" stroke-width=".5" x="0" y="0" width="60" height="60"/>
  <use id="zoomplus" xlink:href="#zoomPlus" x="17" y="9" onmousedown="handleZoom(evt,'in')"/>
  <use id="zoomminus" xlink:href="#zoomMin" x="42" y="9" onmousedown="handleZoom(evt,'out')"/>
  <use id="reset" xlink:href="#resetDef" x="30" y="36" onmousedown="handleReset()"/>
   <use id="arrowup" xlink:href="#arrowUp" x="0" y="0" onmousedown="handlePan(0,-1)"/>
  <use id="arrowright" xlink:href="#arrowRight" x="0" y="0" onmousedown="handlePan(1,0)"/>
  <use id="arrowdown" xlink:href="#arrowDown" x="0" y="0" onmousedown="handlePan(0,1)"/>
  <use id="arrowleft" xlink:href="#arrowLeft" x="0" y="0" onmousedown="handlePan(-1,0)"/>
</g>
<svg viewBox="0 0 15 15" width="100%" height="30px" preserveAspectRatio="xMaxYMin meet">
 <g id="arrow_out" transform="scale(0.3 0.3)">
  <a xlink:href="classArcane_1_1XmlNode_aa48cf53c602cdc412b53f0095648ddc5_cgraph_org.svg" target="_base">
   <rect id="button" ry="5" rx="5" y="6" x="6" height="38" width="38"
        fill="#f2f5e9" fill-opacity="0.5" stroke="#606060" stroke-width="1.0"/>
   <path id="arrow"
     d="M 11.500037,31.436501 C 11.940474,20.09759 22.043105,11.32322 32.158766,21.979434 L 37.068811,17.246167 C 37.068811,17.246167 37.088388,32 37.088388,32 L 22.160133,31.978069 C 22.160133,31.978069 26.997745,27.140456 26.997745,27.140456 C 18.528582,18.264221 13.291696,25.230495 11.500037,31.436501 z"
     style="fill:#404040;"/>
  </a>
 </g>
</svg>

<style type='text/css'>
<![CDATA[
[data-mouse-over-selected='false'] { opacity: 0.7; }
[data-mouse-over-selected='true']  { opacity: 1.0; }
]]>
</style>
<script type="application/ecmascript"><![CDATA[
document.addEventListener('DOMContentLoaded', (event) => {
  highlightEdges();
  highlightAdjacentNodes();
});
]]></script>
</svg>
