<?xml version="1.0" encoding="UTF-8" standalone="no"?>
<!DOCTYPE svg PUBLIC "-//W3C//DTD SVG 1.1//EN"
 "http://www.w3.org/Graphics/SVG/1.1/DTD/svg11.dtd">
<!-- Generated by graphviz version 2.43.0 (0)
 -->
<!-- Title: Arcane::VariableScalarT::_compareVariable Pages: 1 -->
<svg width="322pt" height="113pt"
 viewBox="0.00 0.00 322.00 112.50" xmlns="http://www.w3.org/2000/svg" xmlns:xlink="http://www.w3.org/1999/xlink">
<g id="graph0" class="graph" transform="scale(1 1) rotate(0) translate(4 108.5)">
<title>Arcane::VariableScalarT::_compareVariable</title>
<!-- Node1 -->
<g id="Node000001" class="node">
<title>Node1</title>
<g id="a_Node000001"><a xlink:title="Comparaison de valeurs entre variables.">
<polygon fill="#999999" stroke="#666666" points="132,-73 0,-73 0,-43 132,-43 132,-73"/>
<text text-anchor="start" x="8" y="-61" font-family="Helvetica,sans-Serif" font-size="10.00">Arcane::VariableScalarT</text>
<text text-anchor="middle" x="66" y="-50" font-family="Helvetica,sans-Serif" font-size="10.00">::_compareVariable</text>
</a>
</g>
</g>
<!-- Node2 -->
<g id="Node000002" class="node">
<title>Node2</title>
<g id="a_Node000002"><a xlink:href="../../d6/da9/classArcane_1_1Ref.html#a9aa63ea7f40a6ed64843924de61526bf" target="_top" xlink:title="Instance associée ou nullptr si aucune.">
<polygon fill="white" stroke="#666666" points="288,-104.5 194,-104.5 194,-85.5 288,-85.5 288,-104.5"/>
<text text-anchor="middle" x="241" y="-92.5" font-family="Helvetica,sans-Serif" font-size="10.00">Arcane::Ref::get</text>
</a>
</g>
</g>
<!-- Node1&#45;&gt;Node2 -->
<g id="edge1_Node000001_Node000002" class="edge">
<title>Node1&#45;&gt;Node2</title>
<g id="a_edge1_Node000001_Node000002"><a xlink:title=" ">
<path fill="none" stroke="#63b8ff" d="M132.4,-71.99C149.84,-75.72 168.49,-79.71 185.28,-83.3"/>
<polygon fill="#63b8ff" stroke="#63b8ff" points="184.96,-86.81 195.47,-85.48 186.42,-79.96 184.96,-86.81"/>
</a>
</g>
</g>
<!-- Node3 -->
<g id="Node000003" class="node">
<title>Node3</title>
<g id="a_Node000003"><a xlink:href="../../d6/df5/classArcane_1_1Variable.html#a98322e3c06a7d994e9cc894ebf6ac7d0" target="_top" xlink:title="Genre des entités du maillage sur lequel repose la variable.">
<polygon fill="white" stroke="#666666" points="314,-67.5 168,-67.5 168,-48.5 314,-48.5 314,-67.5"/>
<text text-anchor="middle" x="241" y="-55.5" font-family="Helvetica,sans-Serif" font-size="10.00">Arcane::Variable::itemKind</text>
</a>
</g>
</g>
<!-- Node1&#45;&gt;Node3 -->
<g id="edge2_Node000001_Node000003" class="edge">
<title>Node1&#45;&gt;Node3</title>
<g id="a_edge2_Node000001_Node000003"><a xlink:title=" ">
<path fill="none" stroke="#63b8ff" d="M132.4,-58C140.64,-58 149.14,-58 157.59,-58"/>
<polygon fill="#63b8ff" stroke="#63b8ff" points="157.85,-61.5 167.85,-58 157.85,-54.5 157.85,-61.5"/>
</a>
</g>
</g>
<!-- Node4 -->
<g id="Node000004" class="node">
<title>Node4</title>
<g id="a_Node000004"><a xlink:href="../../d1/d46/classArcane_1_1IDataReader.html#af1bfb8c5d4d677cd145e5834429cdb8e" target="_top" xlink:title="Lit les données data de la variable var.">
<polygon fill="white" stroke="#666666" points="299.5,-30 182.5,-30 182.5,0 299.5,0 299.5,-30"/>
<text text-anchor="start" x="190.5" y="-18" font-family="Helvetica,sans-Serif" font-size="10.00">Arcane::IDataReader</text>
<text text-anchor="middle" x="241" y="-7" font-family="Helvetica,sans-Serif" font-size="10.00">::read</text>
</a>
</g>
</g>
<!-- Node1&#45;&gt;Node4 -->
<g id="edge3_Node000001_Node000004" class="edge">
<title>Node1&#45;&gt;Node4</title>
<g id="a_edge3_Node000001_Node000004"><a xlink:title=" ">
<path fill="none" stroke="#63b8ff" d="M127.51,-42.96C141.99,-39.36 157.56,-35.49 172.34,-31.82"/>
<polygon fill="#63b8ff" stroke="#63b8ff" points="173.57,-35.12 182.43,-29.31 171.89,-28.32 173.57,-35.12"/>
</a>
</g>
</g>
</g>
</svg>
