<?xml version="1.0" encoding="UTF-8" standalone="no"?>
<!DOCTYPE svg PUBLIC "-//W3C//DTD SVG 1.1//EN"
 "http://www.w3.org/Graphics/SVG/1.1/DTD/svg11.dtd">
<!-- Generated by graphviz version 2.43.0 (0)
 -->
<!-- Title: Arcane::BadPartialVariableItemGroupNameException Pages: 1 -->
<svg width="179pt" height="665pt"
 viewBox="0.00 0.00 179.00 665.00" xmlns="http://www.w3.org/2000/svg" xmlns:xlink="http://www.w3.org/1999/xlink">
<g id="graph0" class="graph" transform="scale(1 1) rotate(0) translate(4 661)">
<title>Arcane::BadPartialVariableItemGroupNameException</title>
<!-- Node1 -->
<g id="Node000001" class="node">
<title>Node1</title>
<g id="a_Node000001"><a xlink:title="Exception sur un nom de groupe d&#39;items de variable partielle non valide.">
<polygon fill="#999999" stroke="transparent" points="171,-127 0,-127 0,0 171,0 171,-127"/>
<text text-anchor="start" x="21" y="-114.5" font-family="Helvetica,sans-Serif" font-size="10.00">Arcane::BadPartialVariable</text>
<text text-anchor="start" x="21" y="-103.5" font-family="Helvetica,sans-Serif" font-size="10.00">ItemGroupNameException</text>
<text text-anchor="start" x="7" y="-88.5" font-family="Helvetica,sans-Serif" font-size="10.00">&#45;</text>
<text text-anchor="start" x="17.5" y="-88.5" font-family="Helvetica,sans-Serif" font-size="10.00">m_valid_var</text>
<text text-anchor="start" x="7" y="-73.5" font-family="Helvetica,sans-Serif" font-size="10.00">&#45;</text>
<text text-anchor="start" x="17.5" y="-73.5" font-family="Helvetica,sans-Serif" font-size="10.00">m_item_group_name</text>
<text text-anchor="start" x="4.5" y="-58.5" font-family="Helvetica,sans-Serif" font-size="10.00">+</text>
<text text-anchor="start" x="17.5" y="-58.5" font-family="Helvetica,sans-Serif" font-size="10.00">BadPartialVariableItemGroup</text>
<text text-anchor="start" x="17.5" y="-47.5" font-family="Helvetica,sans-Serif" font-size="10.00">NameException()</text>
<text text-anchor="start" x="4.5" y="-32.5" font-family="Helvetica,sans-Serif" font-size="10.00">+</text>
<text text-anchor="start" x="17.5" y="-32.5" font-family="Helvetica,sans-Serif" font-size="10.00">~BadPartialVariableItemGroup</text>
<text text-anchor="start" x="17.5" y="-21.5" font-family="Helvetica,sans-Serif" font-size="10.00">NameException()</text>
<text text-anchor="start" x="4.5" y="-6.5" font-family="Helvetica,sans-Serif" font-size="10.00">+</text>
<text text-anchor="start" x="17.5" y="-6.5" font-family="Helvetica,sans-Serif" font-size="10.00">explain()</text>
<polygon fill="#666666" stroke="#666666" points="0.5,-98.5 0.5,-98.5 171.5,-98.5 171.5,-98.5 0.5,-98.5"/>
<polygon fill="#666666" stroke="#666666" points="0.5,-68.5 0.5,-68.5 15.5,-68.5 15.5,-68.5 0.5,-68.5"/>
<polygon fill="#666666" stroke="#666666" points="15.5,-68.5 15.5,-68.5 171.5,-68.5 171.5,-68.5 15.5,-68.5"/>
<polygon fill="none" stroke="#666666" points="0,0 0,-127 171,-127 171,0 0,0"/>
</a>
</g>
</g>
<!-- Node2 -->
<g id="Node000002" class="node">
<title>Node2</title>
<g id="a_Node000002"><a xlink:href="../../dd/df6/classArcane_1_1Exception.html" target="_top" xlink:title="Classe de base d&#39;une exception.">
<polygon fill="white" stroke="transparent" points="158.5,-572 12.5,-572 12.5,-163 158.5,-163 158.5,-572"/>
<text text-anchor="start" x="41.5" y="-559.5" font-family="Helvetica,sans-Serif" font-size="10.00">Arcane::Exception</text>
<text text-anchor="start" x="19" y="-544.5" font-family="Helvetica,sans-Serif" font-size="10.00">&#45;</text>
<text text-anchor="start" x="29.5" y="-544.5" font-family="Helvetica,sans-Serif" font-size="10.00">m_name</text>
<text text-anchor="start" x="19" y="-529.5" font-family="Helvetica,sans-Serif" font-size="10.00">&#45;</text>
<text text-anchor="start" x="29.5" y="-529.5" font-family="Helvetica,sans-Serif" font-size="10.00">m_where</text>
<text text-anchor="start" x="19" y="-514.5" font-family="Helvetica,sans-Serif" font-size="10.00">&#45;</text>
<text text-anchor="start" x="29.5" y="-514.5" font-family="Helvetica,sans-Serif" font-size="10.00">m_stack_trace</text>
<text text-anchor="start" x="19" y="-499.5" font-family="Helvetica,sans-Serif" font-size="10.00">&#45;</text>
<text text-anchor="start" x="29.5" y="-499.5" font-family="Helvetica,sans-Serif" font-size="10.00">m_message</text>
<text text-anchor="start" x="19" y="-484.5" font-family="Helvetica,sans-Serif" font-size="10.00">&#45;</text>
<text text-anchor="start" x="29.5" y="-484.5" font-family="Helvetica,sans-Serif" font-size="10.00">m_additional_info</text>
<text text-anchor="start" x="19" y="-469.5" font-family="Helvetica,sans-Serif" font-size="10.00">&#45;</text>
<text text-anchor="start" x="29.5" y="-469.5" font-family="Helvetica,sans-Serif" font-size="10.00">m_is_collective</text>
<text text-anchor="start" x="19" y="-454.5" font-family="Helvetica,sans-Serif" font-size="10.00">&#45;</text>
<text text-anchor="start" x="29.5" y="-454.5" font-family="Helvetica,sans-Serif" font-size="10.00">m_nb_pending_exception</text>
<text text-anchor="start" x="16.5" y="-439.5" font-family="Helvetica,sans-Serif" font-size="10.00">+</text>
<text text-anchor="start" x="29.5" y="-439.5" font-family="Helvetica,sans-Serif" font-size="10.00">Exception()</text>
<text text-anchor="start" x="16.5" y="-424.5" font-family="Helvetica,sans-Serif" font-size="10.00">+</text>
<text text-anchor="start" x="29.5" y="-424.5" font-family="Helvetica,sans-Serif" font-size="10.00">Exception()</text>
<text text-anchor="start" x="16.5" y="-409.5" font-family="Helvetica,sans-Serif" font-size="10.00">+</text>
<text text-anchor="start" x="29.5" y="-409.5" font-family="Helvetica,sans-Serif" font-size="10.00">Exception()</text>
<text text-anchor="start" x="16.5" y="-394.5" font-family="Helvetica,sans-Serif" font-size="10.00">+</text>
<text text-anchor="start" x="29.5" y="-394.5" font-family="Helvetica,sans-Serif" font-size="10.00">Exception()</text>
<text text-anchor="start" x="16.5" y="-379.5" font-family="Helvetica,sans-Serif" font-size="10.00">+</text>
<text text-anchor="start" x="29.5" y="-379.5" font-family="Helvetica,sans-Serif" font-size="10.00">Exception()</text>
<text text-anchor="start" x="16.5" y="-364.5" font-family="Helvetica,sans-Serif" font-size="10.00">+</text>
<text text-anchor="start" x="29.5" y="-364.5" font-family="Helvetica,sans-Serif" font-size="10.00">Exception()</text>
<text text-anchor="start" x="16.5" y="-349.5" font-family="Helvetica,sans-Serif" font-size="10.00">+</text>
<text text-anchor="start" x="29.5" y="-349.5" font-family="Helvetica,sans-Serif" font-size="10.00">Exception()</text>
<text text-anchor="start" x="16.5" y="-334.5" font-family="Helvetica,sans-Serif" font-size="10.00">+</text>
<text text-anchor="start" x="29.5" y="-334.5" font-family="Helvetica,sans-Serif" font-size="10.00">Exception()</text>
<text text-anchor="start" x="16.5" y="-319.5" font-family="Helvetica,sans-Serif" font-size="10.00">+</text>
<text text-anchor="start" x="29.5" y="-319.5" font-family="Helvetica,sans-Serif" font-size="10.00">Exception()</text>
<text text-anchor="start" x="16.5" y="-304.5" font-family="Helvetica,sans-Serif" font-size="10.00">+</text>
<text text-anchor="start" x="29.5" y="-304.5" font-family="Helvetica,sans-Serif" font-size="10.00">~Exception()</text>
<text text-anchor="start" x="29.5" y="-289.5" font-family="Helvetica,sans-Serif" font-size="10.00">et 10 de plus...</text>
<text text-anchor="start" x="16.5" y="-274.5" font-family="Helvetica,sans-Serif" font-size="10.00">+</text>
<text text-anchor="start" x="29.5" y="-274.5" font-family="Helvetica,sans-Serif" font-size="10.00">hasPendingException()</text>
<text text-anchor="start" x="16.5" y="-259.5" font-family="Helvetica,sans-Serif" font-size="10.00">+</text>
<text text-anchor="start" x="29.5" y="-259.5" font-family="Helvetica,sans-Serif" font-size="10.00">staticInit()</text>
<text text-anchor="start" x="16.5" y="-244.5" font-family="Helvetica,sans-Serif" font-size="10.00">#</text>
<text text-anchor="start" x="29.5" y="-244.5" font-family="Helvetica,sans-Serif" font-size="10.00">explain()</text>
<text text-anchor="start" x="16.5" y="-229.5" font-family="Helvetica,sans-Serif" font-size="10.00">#</text>
<text text-anchor="start" x="29.5" y="-229.5" font-family="Helvetica,sans-Serif" font-size="10.00">setMessage()</text>
<text text-anchor="start" x="19" y="-214.5" font-family="Helvetica,sans-Serif" font-size="10.00">&#45;</text>
<text text-anchor="start" x="29.5" y="-214.5" font-family="Helvetica,sans-Serif" font-size="10.00">operator=()</text>
<text text-anchor="start" x="19" y="-199.5" font-family="Helvetica,sans-Serif" font-size="10.00">&#45;</text>
<text text-anchor="start" x="29.5" y="-199.5" font-family="Helvetica,sans-Serif" font-size="10.00">_setStackTrace()</text>
<text text-anchor="start" x="19" y="-184.5" font-family="Helvetica,sans-Serif" font-size="10.00">&#45;</text>
<text text-anchor="start" x="29.5" y="-184.5" font-family="Helvetica,sans-Serif" font-size="10.00">_setWhere()</text>
<text text-anchor="start" x="19" y="-169.5" font-family="Helvetica,sans-Serif" font-size="10.00">&#45;</text>
<text text-anchor="start" x="29.5" y="-169.5" font-family="Helvetica,sans-Serif" font-size="10.00">_checkExplainAndPause()</text>
<polygon fill="#666666" stroke="#666666" points="12.5,-554.5 12.5,-554.5 158.5,-554.5 158.5,-554.5 12.5,-554.5"/>
<polygon fill="#666666" stroke="#666666" points="12.5,-449.5 12.5,-449.5 27.5,-449.5 27.5,-449.5 12.5,-449.5"/>
<polygon fill="#666666" stroke="#666666" points="27.5,-449.5 27.5,-449.5 158.5,-449.5 158.5,-449.5 27.5,-449.5"/>
<polygon fill="none" stroke="#666666" points="12.5,-163 12.5,-572 158.5,-572 158.5,-163 12.5,-163"/>
</a>
</g>
</g>
<!-- Node2&#45;&gt;Node1 -->
<g id="edge1_Node000001_Node000002" class="edge">
<title>Node2&#45;&gt;Node1</title>
<g id="a_edge1_Node000001_Node000002"><a xlink:title=" ">
<path fill="none" stroke="#63b8ff" d="M85.5,-152.72C85.5,-143.78 85.5,-135.19 85.5,-127.12"/>
<polygon fill="none" stroke="#63b8ff" points="82,-152.97 85.5,-162.97 89,-152.97 82,-152.97"/>
</a>
</g>
</g>
<!-- Node3 -->
<g id="Node000003" class="node">
<title>Node3</title>
<g id="a_Node000003"><a xlink:title=" ">
<polygon fill="white" stroke="transparent" points="125.5,-657 45.5,-657 45.5,-608 125.5,-608 125.5,-657"/>
<text text-anchor="start" x="50.5" y="-644.5" font-family="Helvetica,sans-Serif" font-size="10.00">std::exception</text>
<text text-anchor="start" x="83.5" y="-629.5" font-family="Helvetica,sans-Serif" font-size="10.00"> </text>
<text text-anchor="start" x="83.5" y="-614.5" font-family="Helvetica,sans-Serif" font-size="10.00"> </text>
<polygon fill="#bfbfbf" stroke="#bfbfbf" points="45.5,-639.5 45.5,-639.5 125.5,-639.5 125.5,-639.5 45.5,-639.5"/>
<polygon fill="#bfbfbf" stroke="#bfbfbf" points="45.5,-624.5 45.5,-624.5 125.5,-624.5 125.5,-624.5 45.5,-624.5"/>
<polygon fill="none" stroke="#bfbfbf" points="45.5,-608 45.5,-657 125.5,-657 125.5,-608 45.5,-608"/>
</a>
</g>
</g>
<!-- Node3&#45;&gt;Node2 -->
<g id="edge2_Node000002_Node000003" class="edge">
<title>Node3&#45;&gt;Node2</title>
<g id="a_edge2_Node000002_Node000003"><a xlink:title=" ">
<path fill="none" stroke="#63b8ff" d="M85.5,-597.61C85.5,-589.98 85.5,-581.34 85.5,-572.01"/>
<polygon fill="none" stroke="#63b8ff" points="82,-597.7 85.5,-607.7 89,-597.7 82,-597.7"/>
</a>
</g>
</g>
</g>
</svg>
