<?xml version="1.0" encoding="UTF-8" standalone="no"?>
<!DOCTYPE svg PUBLIC "-//W3C//DTD SVG 1.1//EN"
 "http://www.w3.org/Graphics/SVG/1.1/DTD/svg11.dtd">
<!-- Generated by graphviz version 14.1.2 (0)
 -->
<!-- Title: Arcane::OwnLevelCellGroupComputeFunctor Pages: 1 -->
<svg width="169pt" height="331pt"
 viewBox="0.00 0.00 169.00 331.00" xmlns="http://www.w3.org/2000/svg" xmlns:xlink="http://www.w3.org/1999/xlink">

<svg id="main" version="1.1" xmlns="http://www.w3.org/2000/svg" xmlns:xlink="http://www.w3.org/1999/xlink" xml:space="preserve">

<style type="text/css"><![CDATA[
.node, .edge {opacity: 0.7;}
.node.selected, .edge.selected {opacity: 1;}
.edge:hover path { stroke: red; }
.edge:hover polygon { stroke: red; fill: red; }
]]></style>
<script type="application/ecmascript" xlink:href="../../svg.min.js"/>
<svg id="graph" class="graph">
<g id="graph0" class="graph" transform="scale(1 1) rotate(0) translate(4 327.25)">
<title>Arcane::OwnLevelCellGroupComputeFunctor</title>
<!-- Node1 -->
<g id="Node000001" class="node">
<title>Node1</title>
<g id="a_Node000001"><a xlink:title=" ">
<polygon fill="#999999" stroke="none" points="160.5,-96.5 0,-96.5 0,0 160.5,0 160.5,-96.5"/>
<text xml:space="preserve" text-anchor="start" x="12.38" y="-83" font-family="Helvetica,sans-Serif" font-size="10.00">Arcane::OwnLevelCellGroup</text>
<text xml:space="preserve" text-anchor="start" x="40.12" y="-70.25" font-family="Helvetica,sans-Serif" font-size="10.00">ComputeFunctor</text>
<text xml:space="preserve" text-anchor="start" x="6.25" y="-53.5" font-family="Helvetica,sans-Serif" font-size="10.00">&#45;</text>
<text xml:space="preserve" text-anchor="start" x="16.25" y="-53.5" font-family="Helvetica,sans-Serif" font-size="10.00">m_level</text>
<text xml:space="preserve" text-anchor="start" x="4" y="-36.75" font-family="Helvetica,sans-Serif" font-size="10.00">+</text>
<text xml:space="preserve" text-anchor="start" x="16.25" y="-36.75" font-family="Helvetica,sans-Serif" font-size="10.00">OwnLevelCellGroupCompute</text>
<text xml:space="preserve" text-anchor="start" x="16.25" y="-24" font-family="Helvetica,sans-Serif" font-size="10.00">Functor()</text>
<text xml:space="preserve" text-anchor="start" x="4" y="-7.25" font-family="Helvetica,sans-Serif" font-size="10.00">+</text>
<text xml:space="preserve" text-anchor="start" x="16.25" y="-7.25" font-family="Helvetica,sans-Serif" font-size="10.00">executeFunctor()</text>
<polygon fill="#666666" stroke="#666666" points="0,-65 0,-65 160.5,-65 160.5,-65 0,-65"/>
<polygon fill="#666666" stroke="#666666" points="0,-48.25 0,-48.25 14.25,-48.25 14.25,-48.25 0,-48.25"/>
<polygon fill="#666666" stroke="#666666" points="14.25,-48.25 14.25,-48.25 160.5,-48.25 160.5,-48.25 14.25,-48.25"/>
<polygon fill="none" stroke="#666666" points="0,0 0,-96.5 160.5,-96.5 160.5,0 0,0"/>
</a>
</g>
</g>
<!-- Node2 -->
<g id="Node000002" class="node">
<title>Node2</title>
<g id="a_Node000002"><a xlink:href="../../d5/d78/classArcane_1_1ItemGroupComputeFunctor.html" target="_top" xlink:title="Fonctor pour le calcul des éléments d&#39;un groupe.">
<polygon fill="white" stroke="none" points="160.12,-216.25 0.38,-216.25 0.38,-132.5 160.12,-132.5 160.12,-216.25"/>
<text xml:space="preserve" text-anchor="start" x="12.38" y="-202.75" font-family="Helvetica,sans-Serif" font-size="10.00">Arcane::ItemGroupCompute</text>
<text xml:space="preserve" text-anchor="start" x="62.25" y="-190" font-family="Helvetica,sans-Serif" font-size="10.00">Functor</text>
<text xml:space="preserve" text-anchor="start" x="4.38" y="-173.25" font-family="Helvetica,sans-Serif" font-size="10.00">#</text>
<text xml:space="preserve" text-anchor="start" x="16.62" y="-173.25" font-family="Helvetica,sans-Serif" font-size="10.00">m_group</text>
<text xml:space="preserve" text-anchor="start" x="4.38" y="-156.5" font-family="Helvetica,sans-Serif" font-size="10.00">+</text>
<text xml:space="preserve" text-anchor="start" x="16.62" y="-156.5" font-family="Helvetica,sans-Serif" font-size="10.00">ItemGroupComputeFunctor()</text>
<text xml:space="preserve" text-anchor="start" x="4.38" y="-139.75" font-family="Helvetica,sans-Serif" font-size="10.00">+</text>
<text xml:space="preserve" text-anchor="start" x="16.62" y="-139.75" font-family="Helvetica,sans-Serif" font-size="10.00">setGroup()</text>
<polygon fill="#666666" stroke="#666666" points="0.38,-184.75 0.38,-184.75 160.12,-184.75 160.12,-184.75 0.38,-184.75"/>
<polygon fill="#666666" stroke="#666666" points="0.38,-168 0.38,-168 14.62,-168 14.62,-168 0.38,-168"/>
<polygon fill="#666666" stroke="#666666" points="14.62,-168 14.62,-168 160.12,-168 160.12,-168 14.62,-168"/>
<polygon fill="none" stroke="#666666" points="0.38,-132.5 0.38,-216.25 160.12,-216.25 160.12,-132.5 0.38,-132.5"/>
</a>
</g>
</g>
<!-- Node2&#45;&gt;Node1 -->
<g id="edge1_Node000001_Node000002" class="edge">
<title>Node2&#45;&gt;Node1</title>
<g id="a_edge1_Node000001_Node000002"><a xlink:title=" ">
<path fill="none" stroke="#63b8ff" d="M80.25,-121.3C80.25,-113.06 80.25,-104.58 80.25,-96.45"/>
<polygon fill="none" stroke="#63b8ff" points="76.75,-121.22 80.25,-131.22 83.75,-121.22 76.75,-121.22"/>
</a>
</g>
</g>
<!-- Node3 -->
<g id="Node000003" class="node">
<title>Node3</title>
<g id="a_Node000003"><a xlink:href="../../d1/d94/classArcane_1_1IFunctor.html" target="_top" xlink:title="Interface d&#39;un fonctor.">
<polygon fill="white" stroke="none" points="131.25,-323.25 29.25,-323.25 29.25,-252.25 131.25,-252.25 131.25,-323.25"/>
<text xml:space="preserve" text-anchor="start" x="40.88" y="-309.75" font-family="Helvetica,sans-Serif" font-size="10.00">Arcane::IFunctor</text>
<text xml:space="preserve" text-anchor="start" x="78.75" y="-293" font-family="Helvetica,sans-Serif" font-size="10.00"> </text>
<text xml:space="preserve" text-anchor="start" x="33.25" y="-276.25" font-family="Helvetica,sans-Serif" font-size="10.00">+</text>
<text xml:space="preserve" text-anchor="start" x="45.5" y="-276.25" font-family="Helvetica,sans-Serif" font-size="10.00">~IFunctor()</text>
<text xml:space="preserve" text-anchor="start" x="33.25" y="-259.5" font-family="Helvetica,sans-Serif" font-size="10.00">+</text>
<text xml:space="preserve" text-anchor="start" x="45.5" y="-259.5" font-family="Helvetica,sans-Serif" font-size="10.00">executeFunctor()</text>
<polygon fill="#666666" stroke="#666666" points="29.25,-304.5 29.25,-304.5 131.25,-304.5 131.25,-304.5 29.25,-304.5"/>
<polygon fill="#666666" stroke="#666666" points="29.25,-287.75 29.25,-287.75 131.25,-287.75 131.25,-287.75 29.25,-287.75"/>
<polygon fill="none" stroke="#666666" points="29.25,-252.25 29.25,-323.25 131.25,-323.25 131.25,-252.25 29.25,-252.25"/>
</a>
</g>
</g>
<!-- Node3&#45;&gt;Node2 -->
<g id="edge2_Node000002_Node000003" class="edge">
<title>Node3&#45;&gt;Node2</title>
<g id="a_edge2_Node000002_Node000003"><a xlink:title=" ">
<path fill="none" stroke="#63b8ff" d="M80.25,-241.01C80.25,-232.73 80.25,-224.16 80.25,-216.04"/>
<polygon fill="none" stroke="#63b8ff" points="76.75,-240.91 80.25,-250.91 83.75,-240.91 76.75,-240.91"/>
</a>
</g>
</g>
</g>
</svg>
</svg>

<style type='text/css'>
<![CDATA[
[data-mouse-over-selected='false'] { opacity: 0.7; }
[data-mouse-over-selected='true']  { opacity: 1.0; }
]]>
</style>
<script type="application/ecmascript"><![CDATA[
document.addEventListener('DOMContentLoaded', (event) => {
  highlightEdges();
  highlightAdjacentNodes();
});
]]></script>
</svg>
