<?xml version="1.0" encoding="UTF-8" standalone="no"?>
<!DOCTYPE svg PUBLIC "-//W3C//DTD SVG 1.1//EN"
 "http://www.w3.org/Graphics/SVG/1.1/DTD/svg11.dtd">
<!-- Generated by graphviz version 2.43.0 (0)
 -->
<!-- Title: Arcane::VtkPolyhedralMeshIOService Pages: 1 -->
<svg width="361pt" height="1435pt"
 viewBox="0.00 0.00 361.00 1435.00" xmlns="http://www.w3.org/2000/svg" xmlns:xlink="http://www.w3.org/1999/xlink">
<g id="graph0" class="graph" transform="scale(1 1) rotate(0) translate(4 1431)">
<title>Arcane::VtkPolyhedralMeshIOService</title>
<!-- Node1 -->
<g id="Node000001" class="node">
<title>Node1</title>
<g id="a_Node000001"><a xlink:title=" ">
<polygon fill="#999999" stroke="transparent" points="286.5,-217 116.5,-217 116.5,0 286.5,0 286.5,-217"/>
<text text-anchor="start" x="134" y="-204.5" font-family="Helvetica,sans-Serif" font-size="10.00">Arcane::VtkPolyhedralMesh</text>
<text text-anchor="start" x="178" y="-193.5" font-family="Helvetica,sans-Serif" font-size="10.00">IOService</text>
<text text-anchor="start" x="199.5" y="-178.5" font-family="Helvetica,sans-Serif" font-size="10.00"> </text>
<text text-anchor="start" x="120.5" y="-163.5" font-family="Helvetica,sans-Serif" font-size="10.00">+</text>
<text text-anchor="start" x="133.5" y="-163.5" font-family="Helvetica,sans-Serif" font-size="10.00">VtkPolyhedralMeshIOService()</text>
<text text-anchor="start" x="120.5" y="-148.5" font-family="Helvetica,sans-Serif" font-size="10.00">+</text>
<text text-anchor="start" x="133.5" y="-148.5" font-family="Helvetica,sans-Serif" font-size="10.00">read()</text>
<text text-anchor="start" x="123" y="-133.5" font-family="Helvetica,sans-Serif" font-size="10.00">&#45;</text>
<text text-anchor="start" x="133.5" y="-133.5" font-family="Helvetica,sans-Serif" font-size="10.00">_readVariablesAndGroups()</text>
<text text-anchor="start" x="123" y="-118.5" font-family="Helvetica,sans-Serif" font-size="10.00">&#45;</text>
<text text-anchor="start" x="133.5" y="-118.5" font-family="Helvetica,sans-Serif" font-size="10.00">_createGroup()</text>
<text text-anchor="start" x="123" y="-103.5" font-family="Helvetica,sans-Serif" font-size="10.00">&#45;</text>
<text text-anchor="start" x="133.5" y="-103.5" font-family="Helvetica,sans-Serif" font-size="10.00">_createVariable()</text>
<text text-anchor="start" x="123" y="-88.5" font-family="Helvetica,sans-Serif" font-size="10.00">&#45;</text>
<text text-anchor="start" x="133.5" y="-88.5" font-family="Helvetica,sans-Serif" font-size="10.00">_computeFaceVtkArcaneLid</text>
<text text-anchor="start" x="133.5" y="-77.5" font-family="Helvetica,sans-Serif" font-size="10.00">Conversion()</text>
<text text-anchor="start" x="123" y="-62.5" font-family="Helvetica,sans-Serif" font-size="10.00">&#45;</text>
<text text-anchor="start" x="133.5" y="-62.5" font-family="Helvetica,sans-Serif" font-size="10.00">_createEmptyVariablesAnd</text>
<text text-anchor="start" x="133.5" y="-51.5" font-family="Helvetica,sans-Serif" font-size="10.00">Groups()</text>
<text text-anchor="start" x="123" y="-36.5" font-family="Helvetica,sans-Serif" font-size="10.00">&#45;</text>
<text text-anchor="start" x="133.5" y="-36.5" font-family="Helvetica,sans-Serif" font-size="10.00">_createEmptyVariables()</text>
<text text-anchor="start" x="123" y="-21.5" font-family="Helvetica,sans-Serif" font-size="10.00">&#45;</text>
<text text-anchor="start" x="133.5" y="-21.5" font-family="Helvetica,sans-Serif" font-size="10.00">_createEmptyGroups()</text>
<text text-anchor="start" x="123" y="-6.5" font-family="Helvetica,sans-Serif" font-size="10.00">&#45;</text>
<text text-anchor="start" x="133.5" y="-6.5" font-family="Helvetica,sans-Serif" font-size="10.00">_fillItemAllocationInfo()</text>
<polygon fill="#666666" stroke="#666666" points="116.5,-188.5 116.5,-188.5 286.5,-188.5 286.5,-188.5 116.5,-188.5"/>
<polygon fill="#666666" stroke="#666666" points="116.5,-173.5 116.5,-173.5 286.5,-173.5 286.5,-173.5 116.5,-173.5"/>
<polygon fill="none" stroke="#666666" points="116.5,0 116.5,-217 286.5,-217 286.5,0 116.5,0"/>
</a>
</g>
</g>
<!-- Node2 -->
<g id="Node000002" class="node">
<title>Node2</title>
<g id="a_Node000002"><a xlink:href="../../d1/d17/classArcane_1_1TraceAccessor.html" target="_top" xlink:title="Classe d&#39;accès aux traces.">
<polygon fill="white" stroke="transparent" points="191.5,-493 51.5,-493 51.5,-264 191.5,-264 191.5,-493"/>
<text text-anchor="start" x="67" y="-480.5" font-family="Helvetica,sans-Serif" font-size="10.00">Arcane::TraceAccessor</text>
<text text-anchor="start" x="58" y="-465.5" font-family="Helvetica,sans-Serif" font-size="10.00">&#45;</text>
<text text-anchor="start" x="68.5" y="-465.5" font-family="Helvetica,sans-Serif" font-size="10.00">m_local_verbose_level</text>
<text text-anchor="start" x="55.5" y="-450.5" font-family="Helvetica,sans-Serif" font-size="10.00">+</text>
<text text-anchor="start" x="68.5" y="-450.5" font-family="Helvetica,sans-Serif" font-size="10.00">TraceAccessor()</text>
<text text-anchor="start" x="55.5" y="-435.5" font-family="Helvetica,sans-Serif" font-size="10.00">+</text>
<text text-anchor="start" x="68.5" y="-435.5" font-family="Helvetica,sans-Serif" font-size="10.00">TraceAccessor()</text>
<text text-anchor="start" x="55.5" y="-420.5" font-family="Helvetica,sans-Serif" font-size="10.00">+</text>
<text text-anchor="start" x="68.5" y="-420.5" font-family="Helvetica,sans-Serif" font-size="10.00">operator=()</text>
<text text-anchor="start" x="55.5" y="-405.5" font-family="Helvetica,sans-Serif" font-size="10.00">+</text>
<text text-anchor="start" x="68.5" y="-405.5" font-family="Helvetica,sans-Serif" font-size="10.00">~TraceAccessor()</text>
<text text-anchor="start" x="55.5" y="-390.5" font-family="Helvetica,sans-Serif" font-size="10.00">+</text>
<text text-anchor="start" x="68.5" y="-390.5" font-family="Helvetica,sans-Serif" font-size="10.00">traceMng()</text>
<text text-anchor="start" x="55.5" y="-375.5" font-family="Helvetica,sans-Serif" font-size="10.00">+</text>
<text text-anchor="start" x="68.5" y="-375.5" font-family="Helvetica,sans-Serif" font-size="10.00">info()</text>
<text text-anchor="start" x="55.5" y="-360.5" font-family="Helvetica,sans-Serif" font-size="10.00">+</text>
<text text-anchor="start" x="68.5" y="-360.5" font-family="Helvetica,sans-Serif" font-size="10.00">pinfo()</text>
<text text-anchor="start" x="55.5" y="-345.5" font-family="Helvetica,sans-Serif" font-size="10.00">+</text>
<text text-anchor="start" x="68.5" y="-345.5" font-family="Helvetica,sans-Serif" font-size="10.00">info()</text>
<text text-anchor="start" x="55.5" y="-330.5" font-family="Helvetica,sans-Serif" font-size="10.00">+</text>
<text text-anchor="start" x="68.5" y="-330.5" font-family="Helvetica,sans-Serif" font-size="10.00">pinfo()</text>
<text text-anchor="start" x="55.5" y="-315.5" font-family="Helvetica,sans-Serif" font-size="10.00">+</text>
<text text-anchor="start" x="68.5" y="-315.5" font-family="Helvetica,sans-Serif" font-size="10.00">info()</text>
<text text-anchor="start" x="68.5" y="-300.5" font-family="Helvetica,sans-Serif" font-size="10.00">et 15 de plus...</text>
<text text-anchor="start" x="55.5" y="-285.5" font-family="Helvetica,sans-Serif" font-size="10.00">#</text>
<text text-anchor="start" x="68.5" y="-285.5" font-family="Helvetica,sans-Serif" font-size="10.00">_setLocalVerboseLevel()</text>
<text text-anchor="start" x="55.5" y="-270.5" font-family="Helvetica,sans-Serif" font-size="10.00">#</text>
<text text-anchor="start" x="68.5" y="-270.5" font-family="Helvetica,sans-Serif" font-size="10.00">_localVerboseLevel()</text>
<polygon fill="#666666" stroke="#666666" points="51.5,-475.5 51.5,-475.5 191.5,-475.5 191.5,-475.5 51.5,-475.5"/>
<polygon fill="#666666" stroke="#666666" points="51.5,-460.5 51.5,-460.5 66.5,-460.5 66.5,-460.5 51.5,-460.5"/>
<polygon fill="#666666" stroke="#666666" points="66.5,-460.5 66.5,-460.5 191.5,-460.5 191.5,-460.5 66.5,-460.5"/>
<polygon fill="none" stroke="#666666" points="51.5,-264 51.5,-493 191.5,-493 191.5,-264 51.5,-264"/>
</a>
</g>
</g>
<!-- Node2&#45;&gt;Node1 -->
<g id="edge1_Node000001_Node000002" class="edge">
<title>Node2&#45;&gt;Node1</title>
<g id="a_edge1_Node000001_Node000002"><a xlink:title=" ">
<path fill="none" stroke="#63b8ff" d="M158.35,-254.05C162.01,-241.8 165.7,-229.43 169.3,-217.36"/>
<polygon fill="none" stroke="#63b8ff" points="154.93,-253.26 155.43,-263.84 161.64,-255.26 154.93,-253.26"/>
</a>
</g>
</g>
<!-- Node3 -->
<g id="Node000003" class="node">
<title>Node3</title>
<g id="a_Node000003"><a xlink:href="../../d6/da9/classArcane_1_1Ref.html" target="_top" xlink:title=" ">
<polygon fill="white" stroke="transparent" points="185,-1320 58,-1320 58,-540 185,-540 185,-1320"/>
<text text-anchor="start" x="71" y="-1308" font-family="Helvetica,sans-Serif" font-size="10.00">Arcane::Ref&lt; Arcane</text>
<text text-anchor="start" x="88.5" y="-1297" font-family="Helvetica,sans-Serif" font-size="10.00">::ITraceMng &gt;</text>
<text text-anchor="start" x="62.5" y="-1282" font-family="Helvetica,sans-Serif" font-size="10.00">+</text>
<text text-anchor="start" x="75.5" y="-1282" font-family="Helvetica,sans-Serif" font-size="10.00">RefType</text>
<text text-anchor="start" x="62.5" y="-1267" font-family="Helvetica,sans-Serif" font-size="10.00">+</text>
<text text-anchor="start" x="75.5" y="-1267" font-family="Helvetica,sans-Serif" font-size="10.00">RefType</text>
<text text-anchor="start" x="62.5" y="-1252" font-family="Helvetica,sans-Serif" font-size="10.00">+</text>
<text text-anchor="start" x="75.5" y="-1252" font-family="Helvetica,sans-Serif" font-size="10.00">RefType</text>
<text text-anchor="start" x="62.5" y="-1237" font-family="Helvetica,sans-Serif" font-size="10.00">+</text>
<text text-anchor="start" x="75.5" y="-1237" font-family="Helvetica,sans-Serif" font-size="10.00">Ref()</text>
<text text-anchor="start" x="62.5" y="-1222" font-family="Helvetica,sans-Serif" font-size="10.00">+</text>
<text text-anchor="start" x="75.5" y="-1222" font-family="Helvetica,sans-Serif" font-size="10.00">Ref()</text>
<text text-anchor="start" x="62.5" y="-1207" font-family="Helvetica,sans-Serif" font-size="10.00">+</text>
<text text-anchor="start" x="75.5" y="-1207" font-family="Helvetica,sans-Serif" font-size="10.00">Ref()</text>
<text text-anchor="start" x="62.5" y="-1192" font-family="Helvetica,sans-Serif" font-size="10.00">+</text>
<text text-anchor="start" x="75.5" y="-1192" font-family="Helvetica,sans-Serif" font-size="10.00">operator=()</text>
<text text-anchor="start" x="62.5" y="-1177" font-family="Helvetica,sans-Serif" font-size="10.00">+</text>
<text text-anchor="start" x="75.5" y="-1177" font-family="Helvetica,sans-Serif" font-size="10.00">~Ref()</text>
<text text-anchor="start" x="62.5" y="-1162" font-family="Helvetica,sans-Serif" font-size="10.00">+</text>
<text text-anchor="start" x="75.5" y="-1162" font-family="Helvetica,sans-Serif" font-size="10.00">operator bool()</text>
<text text-anchor="start" x="62.5" y="-1147" font-family="Helvetica,sans-Serif" font-size="10.00">+</text>
<text text-anchor="start" x="75.5" y="-1147" font-family="Helvetica,sans-Serif" font-size="10.00">get()</text>
<text text-anchor="start" x="62.5" y="-1132" font-family="Helvetica,sans-Serif" font-size="10.00">+</text>
<text text-anchor="start" x="75.5" y="-1132" font-family="Helvetica,sans-Serif" font-size="10.00">isNull()</text>
<text text-anchor="start" x="62.5" y="-1117" font-family="Helvetica,sans-Serif" font-size="10.00">+</text>
<text text-anchor="start" x="75.5" y="-1117" font-family="Helvetica,sans-Serif" font-size="10.00">operator&#45;&gt;()</text>
<text text-anchor="start" x="62.5" y="-1102" font-family="Helvetica,sans-Serif" font-size="10.00">+</text>
<text text-anchor="start" x="75.5" y="-1102" font-family="Helvetica,sans-Serif" font-size="10.00">reset()</text>
<text text-anchor="start" x="75.5" y="-1087" font-family="Helvetica,sans-Serif" font-size="10.00">et 26 de plus...</text>
<text text-anchor="start" x="62.5" y="-1072" font-family="Helvetica,sans-Serif" font-size="10.00">+</text>
<text text-anchor="start" x="75.5" y="-1072" font-family="Helvetica,sans-Serif" font-size="10.00">create()</text>
<text text-anchor="start" x="62.5" y="-1057" font-family="Helvetica,sans-Serif" font-size="10.00">+</text>
<text text-anchor="start" x="75.5" y="-1057" font-family="Helvetica,sans-Serif" font-size="10.00">createRef()</text>
<text text-anchor="start" x="62.5" y="-1042" font-family="Helvetica,sans-Serif" font-size="10.00">+</text>
<text text-anchor="start" x="75.5" y="-1042" font-family="Helvetica,sans-Serif" font-size="10.00">createWithHandle()</text>
<text text-anchor="start" x="62.5" y="-1027" font-family="Helvetica,sans-Serif" font-size="10.00">+</text>
<text text-anchor="start" x="75.5" y="-1027" font-family="Helvetica,sans-Serif" font-size="10.00">_createNoDestroy()</text>
<text text-anchor="start" x="62.5" y="-1012" font-family="Helvetica,sans-Serif" font-size="10.00">+</text>
<text text-anchor="start" x="75.5" y="-1012" font-family="Helvetica,sans-Serif" font-size="10.00">create()</text>
<text text-anchor="start" x="62.5" y="-997" font-family="Helvetica,sans-Serif" font-size="10.00">+</text>
<text text-anchor="start" x="75.5" y="-997" font-family="Helvetica,sans-Serif" font-size="10.00">createRef()</text>
<text text-anchor="start" x="62.5" y="-982" font-family="Helvetica,sans-Serif" font-size="10.00">+</text>
<text text-anchor="start" x="75.5" y="-982" font-family="Helvetica,sans-Serif" font-size="10.00">createWithHandle()</text>
<text text-anchor="start" x="62.5" y="-967" font-family="Helvetica,sans-Serif" font-size="10.00">+</text>
<text text-anchor="start" x="75.5" y="-967" font-family="Helvetica,sans-Serif" font-size="10.00">_createNoDestroy()</text>
<text text-anchor="start" x="62.5" y="-952" font-family="Helvetica,sans-Serif" font-size="10.00">+</text>
<text text-anchor="start" x="75.5" y="-952" font-family="Helvetica,sans-Serif" font-size="10.00">create()</text>
<text text-anchor="start" x="62.5" y="-937" font-family="Helvetica,sans-Serif" font-size="10.00">+</text>
<text text-anchor="start" x="75.5" y="-937" font-family="Helvetica,sans-Serif" font-size="10.00">createRef()</text>
<text text-anchor="start" x="62.5" y="-922" font-family="Helvetica,sans-Serif" font-size="10.00">+</text>
<text text-anchor="start" x="75.5" y="-922" font-family="Helvetica,sans-Serif" font-size="10.00">createWithHandle()</text>
<text text-anchor="start" x="62.5" y="-907" font-family="Helvetica,sans-Serif" font-size="10.00">+</text>
<text text-anchor="start" x="75.5" y="-907" font-family="Helvetica,sans-Serif" font-size="10.00">_createNoDestroy()</text>
<text text-anchor="start" x="65" y="-892" font-family="Helvetica,sans-Serif" font-size="10.00">&#45;</text>
<text text-anchor="start" x="75.5" y="-892" font-family="Helvetica,sans-Serif" font-size="10.00">Ref()</text>
<text text-anchor="start" x="65" y="-877" font-family="Helvetica,sans-Serif" font-size="10.00">&#45;</text>
<text text-anchor="start" x="75.5" y="-877" font-family="Helvetica,sans-Serif" font-size="10.00">Ref()</text>
<text text-anchor="start" x="65" y="-862" font-family="Helvetica,sans-Serif" font-size="10.00">&#45;</text>
<text text-anchor="start" x="75.5" y="-862" font-family="Helvetica,sans-Serif" font-size="10.00">Ref()</text>
<text text-anchor="start" x="65" y="-847" font-family="Helvetica,sans-Serif" font-size="10.00">&#45;</text>
<text text-anchor="start" x="75.5" y="-847" font-family="Helvetica,sans-Serif" font-size="10.00">Ref()</text>
<text text-anchor="start" x="65" y="-832" font-family="Helvetica,sans-Serif" font-size="10.00">&#45;</text>
<text text-anchor="start" x="75.5" y="-832" font-family="Helvetica,sans-Serif" font-size="10.00">Ref()</text>
<text text-anchor="start" x="65" y="-817" font-family="Helvetica,sans-Serif" font-size="10.00">&#45;</text>
<text text-anchor="start" x="75.5" y="-817" font-family="Helvetica,sans-Serif" font-size="10.00">Ref()</text>
<text text-anchor="start" x="65" y="-802" font-family="Helvetica,sans-Serif" font-size="10.00">&#45;</text>
<text text-anchor="start" x="75.5" y="-802" font-family="Helvetica,sans-Serif" font-size="10.00">Ref()</text>
<text text-anchor="start" x="65" y="-787" font-family="Helvetica,sans-Serif" font-size="10.00">&#45;</text>
<text text-anchor="start" x="75.5" y="-787" font-family="Helvetica,sans-Serif" font-size="10.00">Ref()</text>
<text text-anchor="start" x="65" y="-772" font-family="Helvetica,sans-Serif" font-size="10.00">&#45;</text>
<text text-anchor="start" x="75.5" y="-772" font-family="Helvetica,sans-Serif" font-size="10.00">Ref()</text>
<text text-anchor="start" x="65" y="-757" font-family="Helvetica,sans-Serif" font-size="10.00">&#45;</text>
<text text-anchor="start" x="75.5" y="-757" font-family="Helvetica,sans-Serif" font-size="10.00">Ref()</text>
<text text-anchor="start" x="65" y="-742" font-family="Helvetica,sans-Serif" font-size="10.00">&#45;</text>
<text text-anchor="start" x="75.5" y="-742" font-family="Helvetica,sans-Serif" font-size="10.00">Ref()</text>
<text text-anchor="start" x="65" y="-727" font-family="Helvetica,sans-Serif" font-size="10.00">&#45;</text>
<text text-anchor="start" x="75.5" y="-727" font-family="Helvetica,sans-Serif" font-size="10.00">Ref()</text>
<text text-anchor="start" x="65" y="-712" font-family="Helvetica,sans-Serif" font-size="10.00">&#45;</text>
<text text-anchor="start" x="75.5" y="-712" font-family="Helvetica,sans-Serif" font-size="10.00">_createBasicDeleter()</text>
<text text-anchor="start" x="65" y="-697" font-family="Helvetica,sans-Serif" font-size="10.00">&#45;</text>
<text text-anchor="start" x="75.5" y="-697" font-family="Helvetica,sans-Serif" font-size="10.00">_createBasicDeleter()</text>
<text text-anchor="start" x="65" y="-682" font-family="Helvetica,sans-Serif" font-size="10.00">&#45;</text>
<text text-anchor="start" x="75.5" y="-682" font-family="Helvetica,sans-Serif" font-size="10.00">_getDeleter()</text>
<text text-anchor="start" x="65" y="-667" font-family="Helvetica,sans-Serif" font-size="10.00">&#45;</text>
<text text-anchor="start" x="75.5" y="-667" font-family="Helvetica,sans-Serif" font-size="10.00">_getDeleter()</text>
<text text-anchor="start" x="65" y="-652" font-family="Helvetica,sans-Serif" font-size="10.00">&#45;</text>
<text text-anchor="start" x="75.5" y="-652" font-family="Helvetica,sans-Serif" font-size="10.00">_createBasicDeleter()</text>
<text text-anchor="start" x="65" y="-637" font-family="Helvetica,sans-Serif" font-size="10.00">&#45;</text>
<text text-anchor="start" x="75.5" y="-637" font-family="Helvetica,sans-Serif" font-size="10.00">_createBasicDeleter()</text>
<text text-anchor="start" x="65" y="-622" font-family="Helvetica,sans-Serif" font-size="10.00">&#45;</text>
<text text-anchor="start" x="75.5" y="-622" font-family="Helvetica,sans-Serif" font-size="10.00">_getDeleter()</text>
<text text-anchor="start" x="65" y="-607" font-family="Helvetica,sans-Serif" font-size="10.00">&#45;</text>
<text text-anchor="start" x="75.5" y="-607" font-family="Helvetica,sans-Serif" font-size="10.00">_getDeleter()</text>
<text text-anchor="start" x="65" y="-592" font-family="Helvetica,sans-Serif" font-size="10.00">&#45;</text>
<text text-anchor="start" x="75.5" y="-592" font-family="Helvetica,sans-Serif" font-size="10.00">_createBasicDeleter()</text>
<text text-anchor="start" x="65" y="-577" font-family="Helvetica,sans-Serif" font-size="10.00">&#45;</text>
<text text-anchor="start" x="75.5" y="-577" font-family="Helvetica,sans-Serif" font-size="10.00">_createBasicDeleter()</text>
<text text-anchor="start" x="65" y="-562" font-family="Helvetica,sans-Serif" font-size="10.00">&#45;</text>
<text text-anchor="start" x="75.5" y="-562" font-family="Helvetica,sans-Serif" font-size="10.00">_getDeleter()</text>
<text text-anchor="start" x="65" y="-547" font-family="Helvetica,sans-Serif" font-size="10.00">&#45;</text>
<text text-anchor="start" x="75.5" y="-547" font-family="Helvetica,sans-Serif" font-size="10.00">_getDeleter()</text>
<polygon fill="#666666" stroke="#666666" points="58.5,-1292 58.5,-1292 185.5,-1292 185.5,-1292 58.5,-1292"/>
<polygon fill="#666666" stroke="#666666" points="58.5,-1247 58.5,-1247 73.5,-1247 73.5,-1247 58.5,-1247"/>
<polygon fill="#666666" stroke="#666666" points="73.5,-1247 73.5,-1247 185.5,-1247 185.5,-1247 73.5,-1247"/>
<polygon fill="none" stroke="#666666" points="58,-540 58,-1320 185,-1320 185,-540 58,-540"/>
</a>
</g>
</g>
<!-- Node3&#45;&gt;Node2 -->
<g id="edge2_Node000002_Node000003" class="edge">
<title>Node3&#45;&gt;Node2</title>
<g id="a_edge2_Node000002_Node000003"><a xlink:title=" ">
<path fill="none" stroke="#63b8ff" d="M121.5,-539.92C121.5,-528.01 121.5,-516.45 121.5,-505.36"/>
<polygon fill="none" stroke="#63b8ff" points="121.5,-505.04 117.5,-499.04 121.5,-493.04 125.5,-499.04 121.5,-505.04"/>
</a>
</g>
<text text-anchor="middle" x="145" y="-514" font-family="Helvetica,sans-Serif" font-size="10.00" fill="grey"> &#45;m_trace</text>
</g>
<!-- Node4 -->
<g id="Node000004" class="node">
<title>Node4</title>
<g id="a_Node000004"><a xlink:href="../../d2/db9/classArcane_1_1RefBase.html" target="_top" xlink:title="Classe de base de gestion d&#39;une référence.">
<polygon fill="white" stroke="transparent" points="91,-1421.5 0,-1421.5 0,-1372.5 91,-1372.5 91,-1421.5"/>
<text text-anchor="start" x="5.5" y="-1409" font-family="Helvetica,sans-Serif" font-size="10.00">Arcane::RefBase</text>
<text text-anchor="start" x="44" y="-1394" font-family="Helvetica,sans-Serif" font-size="10.00"> </text>
<text text-anchor="start" x="44" y="-1379" font-family="Helvetica,sans-Serif" font-size="10.00"> </text>
<polygon fill="#666666" stroke="#666666" points="0.5,-1404 0.5,-1404 91.5,-1404 91.5,-1404 0.5,-1404"/>
<polygon fill="#666666" stroke="#666666" points="0.5,-1389 0.5,-1389 91.5,-1389 91.5,-1389 0.5,-1389"/>
<polygon fill="none" stroke="#666666" points="0,-1372.5 0,-1421.5 91,-1421.5 91,-1372.5 0,-1372.5"/>
</a>
</g>
</g>
<!-- Node4&#45;&gt;Node3 -->
<g id="edge3_Node000003_Node000004" class="edge">
<title>Node4&#45;&gt;Node3</title>
<g id="a_edge3_Node000003_Node000004"><a xlink:title=" ">
<path fill="none" stroke="#63b8ff" d="M51.01,-1362.28C52.93,-1350.55 55.27,-1336.2 57.93,-1319.95"/>
<polygon fill="none" stroke="#63b8ff" points="47.53,-1361.87 49.37,-1372.3 54.44,-1363 47.53,-1361.87"/>
</a>
</g>
</g>
<!-- Node5 -->
<g id="Node000005" class="node">
<title>Node5</title>
<g id="a_Node000005"><a xlink:href="../../d4/de6/structArcane_1_1RefTraitsTagId.html" target="_top" xlink:title=" ">
<polygon fill="white" stroke="transparent" points="285.5,-1427 109.5,-1427 109.5,-1367 285.5,-1367 285.5,-1427"/>
<text text-anchor="start" x="114.5" y="-1415" font-family="Helvetica,sans-Serif" font-size="10.00">Arcane::RefTraitsTagId</text>
<text text-anchor="start" x="114.5" y="-1404" font-family="Helvetica,sans-Serif" font-size="10.00">&lt; Arcane::ITraceMng, ImplTagId &gt;</text>
<text text-anchor="start" x="195.5" y="-1389" font-family="Helvetica,sans-Serif" font-size="10.00"> </text>
<text text-anchor="start" x="195.5" y="-1374" font-family="Helvetica,sans-Serif" font-size="10.00"> </text>
<polygon fill="#bfbfbf" stroke="#bfbfbf" points="109.5,-1399 109.5,-1399 285.5,-1399 285.5,-1399 109.5,-1399"/>
<polygon fill="#bfbfbf" stroke="#bfbfbf" points="109.5,-1384 109.5,-1384 285.5,-1384 285.5,-1384 109.5,-1384"/>
<polygon fill="none" stroke="#bfbfbf" points="109.5,-1367 109.5,-1427 285.5,-1427 285.5,-1367 109.5,-1367"/>
</a>
</g>
</g>
<!-- Node5&#45;&gt;Node3 -->
<g id="edge4_Node000003_Node000005" class="edge">
<title>Node5&#45;&gt;Node3</title>
<g id="a_edge4_Node000003_Node000005"><a xlink:title=" ">
<path fill="none" stroke="#63b8ff" d="M192.75,-1366.91C191.16,-1357.22 189.24,-1345.43 187.04,-1332.02"/>
<polygon fill="none" stroke="#63b8ff" points="186.99,-1331.68 182.07,-1326.4 185.05,-1319.84 189.97,-1325.11 186.99,-1331.68"/>
</a>
</g>
<text text-anchor="middle" x="222.5" y="-1341" font-family="Helvetica,sans-Serif" font-size="10.00" fill="grey"> &#45;m_instance</text>
</g>
<!-- Node6 -->
<g id="Node000006" class="node">
<title>Node6</title>
<g id="a_Node000006"><a xlink:href="../../d8/d07/structArcane_1_1VtkPolyhedralTools_1_1PrintInfoLevel.html" target="_top" xlink:title=" ">
<polygon fill="white" stroke="transparent" points="353,-416 210,-416 210,-341 353,-341 353,-416"/>
<text text-anchor="start" x="215.5" y="-403.5" font-family="Helvetica,sans-Serif" font-size="10.00">Arcane::VtkPolyhedralTools</text>
<text text-anchor="start" x="245" y="-392.5" font-family="Helvetica,sans-Serif" font-size="10.00">::PrintInfoLevel</text>
<text text-anchor="start" x="224.5" y="-377.5" font-family="Helvetica,sans-Serif" font-size="10.00">+</text>
<text text-anchor="start" x="247.5" y="-377.5" font-family="Helvetica,sans-Serif" font-size="10.00">print_mesh_info</text>
<text text-anchor="start" x="224.5" y="-362.5" font-family="Helvetica,sans-Serif" font-size="10.00">+</text>
<text text-anchor="start" x="247.5" y="-362.5" font-family="Helvetica,sans-Serif" font-size="10.00">print_debug_info</text>
<text text-anchor="start" x="280" y="-347.5" font-family="Helvetica,sans-Serif" font-size="10.00"> </text>
<polygon fill="#bfbfbf" stroke="#bfbfbf" points="210.5,-387.5 210.5,-387.5 353.5,-387.5 353.5,-387.5 210.5,-387.5"/>
<polygon fill="#bfbfbf" stroke="#bfbfbf" points="210.5,-357.5 210.5,-357.5 245.5,-357.5 245.5,-357.5 210.5,-357.5"/>
<polygon fill="#bfbfbf" stroke="#bfbfbf" points="245.5,-357.5 245.5,-357.5 353.5,-357.5 353.5,-357.5 245.5,-357.5"/>
<polygon fill="none" stroke="#bfbfbf" points="210,-341 210,-416 353,-416 353,-341 210,-341"/>
</a>
</g>
</g>
<!-- Node6&#45;&gt;Node1 -->
<g id="edge5_Node000001_Node000006" class="edge">
<title>Node6&#45;&gt;Node1</title>
<g id="a_edge5_Node000001_Node000006"><a xlink:title=" ">
<path fill="none" stroke="#63b8ff" d="M270.54,-340.8C261.86,-311.7 249.21,-269.33 237.11,-228.78"/>
<polygon fill="none" stroke="#63b8ff" points="237.06,-228.63 231.51,-224.02 233.63,-217.13 239.18,-221.73 237.06,-228.63"/>
</a>
</g>
<text text-anchor="middle" x="290.5" y="-238" font-family="Helvetica,sans-Serif" font-size="10.00" fill="grey"> &#45;m_print_info_level</text>
</g>
</g>
</svg>
