<?xml version="1.0" encoding="UTF-8" standalone="no"?>
<!DOCTYPE svg PUBLIC "-//W3C//DTD SVG 1.1//EN"
 "http://www.w3.org/Graphics/SVG/1.1/DTD/svg11.dtd">
<!-- Generated by graphviz version 2.43.0 (0)
 -->
<!-- Title: Arcane::Variable::fullName Pages: 1 -->
<!--zoomable 349 -->

<svg id="main" version="1.1" xmlns="http://www.w3.org/2000/svg" xmlns:xlink="http://www.w3.org/1999/xlink" xml:space="preserve" onload="init(evt)">

<style type="text/css"><![CDATA[
.node, .edge {opacity: 0.7;}
.node.selected, .edge.selected {opacity: 1;}
.edge:hover path { stroke: red; }
.edge:hover polygon { stroke: red; fill: red; }
]]></style>

<defs>
  <circle id="rim" cx="0" cy="0" r="7"/>
  <circle id="rim2" cx="0" cy="0" r="3.5"/>
  <g id="zoomPlus">
    <use xlink:href="#rim" fill="#404040"><set attributeName="fill" to="#808080" begin="zoomplus.mouseover" end="zoomplus.mouseout"/></use>
    <path d="M-4,0h8M0,-4v8" fill="none" stroke="white" stroke-width="1.5" pointer-events="none"/>
  </g>
  <g id="zoomMin">
    <use xlink:href="#rim" fill="#404040"><set attributeName="fill" to="#808080" begin="zoomminus.mouseover" end="zoomminus.mouseout"/></use>
    <path d="M-4,0h8" fill="none" stroke="white" stroke-width="1.5" pointer-events="none"/>
  </g>
  <g id="arrowUp" transform="translate(30 24)">
    <use xlink:href="#rim"/>
    <path pointer-events="none" fill="none" stroke="white" stroke-width="1.5" d="M0,-3.0v7 M-2.5,-0.5L0,-3.0L2.5,-0.5"/>
  </g>
  <g id="arrowRight" transform="rotate(90) translate(36 -43)">
    <use xlink:href="#rim"/>
    <path pointer-events="none" fill="none" stroke="white" stroke-width="1.5" d="M0,-3.0v7 M-2.5,-0.5L0,-3.0L2.5,-0.5"/>
  </g>
  <g id="arrowDown" transform="rotate(180) translate(-30 -48)">
    <use xlink:href="#rim"/>
    <path pointer-events="none" fill="none" stroke="white" stroke-width="1.5" d="M0,-3.0v7 M-2.5,-0.5L0,-3.0L2.5,-0.5"/>
  </g>
  <g id="arrowLeft" transform="rotate(270) translate(-36 17)">
    <use xlink:href="#rim"/>
    <path pointer-events="none" fill="none" stroke="white" stroke-width="1.5" d="M0,-3.0v7 M-2.5,-0.5L0,-3.0L2.5,-0.5"/>
  </g>
  <g id="resetDef">
    <use xlink:href="#rim2" fill="#404040"><set attributeName="fill" to="#808080" begin="reset.mouseover" end="reset.mouseout"/></use>
  </g>
</defs>
<script type="application/ecmascript">
var viewWidth = 700;
var viewHeight = 349;
var sectionId = 'dynsection-14';
</script>
<script type="application/ecmascript" xlink:href="../../svg.min.js"/>
<svg id="graph" class="graph">
<g id="viewport">
<title>Arcane::Variable::fullName</title>
<!-- Node1 -->
<g id="Node000001" class="node">
<title>Node1</title>
<g id="a_Node000001"><a xlink:title="Nom complet de la variable (avec le préfixe de la famille)">
<polygon fill="#999999" stroke="#666666" points="692,-189.5 545,-189.5 545,-170.5 692,-170.5 692,-189.5"/>
<text text-anchor="middle" x="618.5" y="-177.5" font-family="Helvetica,sans-Serif" font-size="10.00">Arcane::Variable::fullName</text>
</a>
</g>
</g>
<!-- Node2 -->
<g id="Node000002" class="node">
<title>Node2</title>
<g id="a_Node000002"><a xlink:href="../../d6/df5/classArcane_1_1Variable.html#af8bf87de10b159602c855e2c3df2b76a" target="_top" xlink:title="Opérateur de recopie (ne pas utiliser)">
<polygon fill="white" stroke="#666666" points="152,-313.5 0,-313.5 0,-294.5 152,-294.5 152,-313.5"/>
<text text-anchor="middle" x="76" y="-301.5" font-family="Helvetica,sans-Serif" font-size="10.00">Arcane::Variable::operator=</text>
</a>
</g>
</g>
<!-- Node1&#45;&gt;Node2 -->
<g id="edge1_Node000001_Node000002" class="edge">
<title>Node1&#45;&gt;Node2</title>
<g id="a_edge1_Node000001_Node000002"><a xlink:title=" ">
<path fill="none" stroke="#63b8ff" d="M608.11,-198.91C592.31,-228.29 557.35,-283.83 509,-306 373.33,-368.21 187.54,-332.49 111.54,-313.51"/>
<polygon fill="#63b8ff" stroke="#63b8ff" points="611.39,-200.19 612.89,-189.71 605.17,-196.97 611.39,-200.19"/>
</a>
</g>
</g>
<!-- Node3 -->
<g id="Node000003" class="node">
<title>Node3</title>
<g id="a_Node000003"><a xlink:href="../../d6/df5/classArcane_1_1Variable.html#a07ec2f91233fa4da2ef271bec7300b1f" target="_top" xlink:title="Positionne le nombre d&#39;éléments pour une variable du maillage.">
<polygon fill="white" stroke="#666666" points="503,-297 372,-297 372,-267 503,-267 503,-297"/>
<text text-anchor="start" x="380" y="-285" font-family="Helvetica,sans-Serif" font-size="10.00">Arcane::Variable::resize</text>
<text text-anchor="middle" x="437.5" y="-274" font-family="Helvetica,sans-Serif" font-size="10.00">FromGroup</text>
</a>
</g>
</g>
<!-- Node1&#45;&gt;Node3 -->
<g id="edge2_Node000001_Node000003" class="edge">
<title>Node1&#45;&gt;Node3</title>
<g id="a_edge2_Node000001_Node000003"><a xlink:title=" ">
<path fill="none" stroke="#63b8ff" d="M598.36,-196.08C577.47,-213.02 542.51,-239.6 509,-257 501.97,-260.65 494.29,-263.98 486.66,-266.94"/>
<polygon fill="#63b8ff" stroke="#63b8ff" points="600.65,-198.73 606.15,-189.68 596.2,-193.33 600.65,-198.73"/>
</a>
</g>
</g>
<!-- Node5 -->
<g id="Node000005" class="node">
<title>Node5</title>
<g id="a_Node000005"><a xlink:href="../../d6/df5/classArcane_1_1Variable.html#a57c8d91cfa60faaa82c1ce4d7f1317e9" target="_top" xlink:title=" ">
<polygon fill="white" stroke="#666666" points="509,-248.5 366,-248.5 366,-229.5 509,-229.5 509,-248.5"/>
<text text-anchor="middle" x="437.5" y="-236.5" font-family="Helvetica,sans-Serif" font-size="10.00">Arcane::Variable::serialize</text>
</a>
</g>
</g>
<!-- Node1&#45;&gt;Node5 -->
<g id="edge5_Node000001_Node000005" class="edge">
<title>Node1&#45;&gt;Node5</title>
<g id="a_edge5_Node000001_Node000005"><a xlink:title=" ">
<path fill="none" stroke="#63b8ff" d="M584.02,-193.23C562.71,-201.43 534.43,-211.9 509,-220 498.49,-223.35 486.98,-226.61 476.37,-229.47"/>
<polygon fill="#63b8ff" stroke="#63b8ff" points="585.52,-196.4 593.58,-189.52 582.99,-189.87 585.52,-196.4"/>
</a>
</g>
</g>
<!-- Node6 -->
<g id="Node000006" class="node">
<title>Node6</title>
<g id="a_Node000006"><a xlink:href="../../d6/df5/classArcane_1_1Variable.html#ab81dcb2e96eeb89714d189c82cd4a887" target="_top" xlink:title="Sérialize la variable pour les identifiants ids.">
<polygon fill="white" stroke="#666666" points="509,-211.5 366,-211.5 366,-192.5 509,-192.5 509,-211.5"/>
<text text-anchor="middle" x="437.5" y="-199.5" font-family="Helvetica,sans-Serif" font-size="10.00">Arcane::Variable::serialize</text>
</a>
</g>
</g>
<!-- Node1&#45;&gt;Node6 -->
<g id="edge6_Node000001_Node000006" class="edge">
<title>Node1&#45;&gt;Node6</title>
<g id="a_edge6_Node000001_Node000006"><a xlink:title=" ">
<path fill="none" stroke="#63b8ff" d="M534.9,-190.15C526.28,-191.21 517.58,-192.28 509.12,-193.32"/>
<polygon fill="#63b8ff" stroke="#63b8ff" points="535.45,-193.61 544.95,-188.92 534.6,-186.66 535.45,-193.61"/>
</a>
</g>
</g>
<!-- Node7 -->
<g id="Node000007" class="node">
<title>Node7</title>
<g id="a_Node000007"><a xlink:href="../../d8/d38/classArcane_1_1Array2VariableT.html#a90f0303c7db135f11afcbd49f1d4c522" target="_top" xlink:title="Synchronise la variable.">
<polygon fill="white" stroke="#666666" points="504.5,-174 370.5,-174 370.5,-144 504.5,-144 504.5,-174"/>
<text text-anchor="start" x="378.5" y="-162" font-family="Helvetica,sans-Serif" font-size="10.00">Arcane::Array2VariableT</text>
<text text-anchor="middle" x="437.5" y="-151" font-family="Helvetica,sans-Serif" font-size="10.00">::synchronize</text>
</a>
</g>
</g>
<!-- Node1&#45;&gt;Node7 -->
<g id="edge7_Node000001_Node000007" class="edge">
<title>Node1&#45;&gt;Node7</title>
<g id="a_edge7_Node000001_Node000007"><a xlink:title=" ">
<path fill="none" stroke="#63b8ff" d="M534.84,-170.3C524.67,-169.11 514.39,-167.9 504.51,-166.74"/>
<polygon fill="#63b8ff" stroke="#63b8ff" points="534.61,-173.8 544.95,-171.49 535.43,-166.85 534.61,-173.8"/>
</a>
</g>
</g>
<!-- Node8 -->
<g id="Node000008" class="node">
<title>Node8</title>
<g id="a_Node000008"><a xlink:href="../../d8/d38/classArcane_1_1Array2VariableT.html#afa64bfaa92622e4f7c313775614c38f7" target="_top" xlink:title="Synchronise la variable sur une liste d&#39;entités.">
<polygon fill="white" stroke="#666666" points="504.5,-126 370.5,-126 370.5,-96 504.5,-96 504.5,-126"/>
<text text-anchor="start" x="378.5" y="-114" font-family="Helvetica,sans-Serif" font-size="10.00">Arcane::Array2VariableT</text>
<text text-anchor="middle" x="437.5" y="-103" font-family="Helvetica,sans-Serif" font-size="10.00">::synchronize</text>
</a>
</g>
</g>
<!-- Node1&#45;&gt;Node8 -->
<g id="edge8_Node000001_Node000008" class="edge">
<title>Node1&#45;&gt;Node8</title>
<g id="a_edge8_Node000001_Node000008"><a xlink:title=" ">
<path fill="none" stroke="#63b8ff" d="M586.32,-166.44C564.75,-157.21 535.31,-144.92 509,-135 501.02,-131.99 492.46,-128.94 484.16,-126.06"/>
<polygon fill="#63b8ff" stroke="#63b8ff" points="585.07,-169.71 595.64,-170.44 587.83,-163.28 585.07,-169.71"/>
</a>
</g>
</g>
<!-- Node9 -->
<g id="Node000009" class="node">
<title>Node9</title>
<g id="a_Node000009"><a xlink:href="../../d9/d83/classArcane_1_1VariableArrayT.html#aed95644ebb03f76bc44ac4160281da21" target="_top" xlink:title="Synchronise la variable.">
<polygon fill="white" stroke="#666666" points="501.5,-78 373.5,-78 373.5,-48 501.5,-48 501.5,-78"/>
<text text-anchor="start" x="381.5" y="-66" font-family="Helvetica,sans-Serif" font-size="10.00">Arcane::VariableArrayT</text>
<text text-anchor="middle" x="437.5" y="-55" font-family="Helvetica,sans-Serif" font-size="10.00">::synchronize</text>
</a>
</g>
</g>
<!-- Node1&#45;&gt;Node9 -->
<g id="edge9_Node000001_Node000009" class="edge">
<title>Node1&#45;&gt;Node9</title>
<g id="a_edge9_Node000001_Node000009"><a xlink:title=" ">
<path fill="none" stroke="#63b8ff" d="M601.84,-163.1C581.99,-142.56 545.91,-108.05 509,-87 503.16,-83.67 496.78,-80.7 490.33,-78.09"/>
<polygon fill="#63b8ff" stroke="#63b8ff" points="599.42,-165.64 608.85,-170.47 604.5,-160.81 599.42,-165.64"/>
</a>
</g>
</g>
<!-- Node10 -->
<g id="Node000010" class="node">
<title>Node10</title>
<g id="a_Node000010"><a xlink:href="../../d9/d83/classArcane_1_1VariableArrayT.html#a2fa41847a526a1b7d7311564f3b3f261" target="_top" xlink:title="Synchronise la variable sur une liste d&#39;entités.">
<polygon fill="white" stroke="#666666" points="501.5,-30 373.5,-30 373.5,0 501.5,0 501.5,-30"/>
<text text-anchor="start" x="381.5" y="-18" font-family="Helvetica,sans-Serif" font-size="10.00">Arcane::VariableArrayT</text>
<text text-anchor="middle" x="437.5" y="-7" font-family="Helvetica,sans-Serif" font-size="10.00">::synchronize</text>
</a>
</g>
</g>
<!-- Node1&#45;&gt;Node10 -->
<g id="edge10_Node000001_Node000010" class="edge">
<title>Node1&#45;&gt;Node10</title>
<g id="a_edge10_Node000001_Node000010"><a xlink:title=" ">
<path fill="none" stroke="#63b8ff" d="M607.83,-161.19C591.46,-131.14 555.48,-72.29 509,-39 504.27,-35.61 499.02,-32.67 493.59,-30.13"/>
<polygon fill="#63b8ff" stroke="#63b8ff" points="604.84,-163.02 612.62,-170.2 611.02,-159.73 604.84,-163.02"/>
</a>
</g>
</g>
<!-- Node4 -->
<g id="Node000004" class="node">
<title>Node4</title>
<g id="a_Node000004"><a xlink:href="../../d6/df5/classArcane_1_1Variable.html#a881b8d622b65e0b26371acd0b91aa02d" target="_top" xlink:title="Positionne l&#39;état d&#39;utilisation de la variable.">
<polygon fill="white" stroke="#666666" points="330,-294.5 188,-294.5 188,-275.5 330,-275.5 330,-294.5"/>
<text text-anchor="middle" x="259" y="-282.5" font-family="Helvetica,sans-Serif" font-size="10.00">Arcane::Variable::setUsed</text>
</a>
</g>
</g>
<!-- Node3&#45;&gt;Node4 -->
<g id="edge3_Node000003_Node000004" class="edge">
<title>Node3&#45;&gt;Node4</title>
<g id="a_edge3_Node000003_Node000004"><a xlink:title=" ">
<path fill="none" stroke="#63b8ff" d="M361.47,-283.28C351.05,-283.45 340.38,-283.63 330.06,-283.81"/>
<polygon fill="#63b8ff" stroke="#63b8ff" points="361.84,-286.77 371.78,-283.1 361.72,-279.77 361.84,-286.77"/>
</a>
</g>
</g>
<!-- Node4&#45;&gt;Node2 -->
<g id="edge4_Node000004_Node000002" class="edge">
<title>Node4&#45;&gt;Node2</title>
<g id="a_edge4_Node000004_Node000002"><a xlink:title=" ">
<path fill="none" stroke="#63b8ff" d="M177.58,-293.44C169.17,-294.32 160.64,-295.22 152.29,-296.1"/>
<polygon fill="#63b8ff" stroke="#63b8ff" points="178.18,-296.9 187.76,-292.37 177.45,-289.94 178.18,-296.9"/>
</a>
</g>
</g>
</g>
</svg>

<g id="navigator" transform="translate(0 0)" fill="#404254">
  <rect fill="#f2f5e9" fill-opacity="0.5" stroke="#606060" stroke-width=".5" x="0" y="0" width="60" height="60"/>
  <use id="zoomplus" xlink:href="#zoomPlus" x="17" y="9" onmousedown="handleZoom(evt,'in')"/>
  <use id="zoomminus" xlink:href="#zoomMin" x="42" y="9" onmousedown="handleZoom(evt,'out')"/>
  <use id="reset" xlink:href="#resetDef" x="30" y="36" onmousedown="handleReset()"/>
   <use id="arrowup" xlink:href="#arrowUp" x="0" y="0" onmousedown="handlePan(0,-1)"/>
  <use id="arrowright" xlink:href="#arrowRight" x="0" y="0" onmousedown="handlePan(1,0)"/>
  <use id="arrowdown" xlink:href="#arrowDown" x="0" y="0" onmousedown="handlePan(0,1)"/>
  <use id="arrowleft" xlink:href="#arrowLeft" x="0" y="0" onmousedown="handlePan(-1,0)"/>
</g>
<svg viewBox="0 0 15 15" width="100%" height="30px" preserveAspectRatio="xMaxYMin meet">
 <g id="arrow_out" transform="scale(0.3 0.3)">
  <a xlink:href="classArcane_1_1Variable_a96f2e59e20f21389479a35b1c61b5304_icgraph_org.svg" target="_base">
   <rect id="button" ry="5" rx="5" y="6" x="6" height="38" width="38"
        fill="#f2f5e9" fill-opacity="0.5" stroke="#606060" stroke-width="1.0"/>
   <path id="arrow"
     d="M 11.500037,31.436501 C 11.940474,20.09759 22.043105,11.32322 32.158766,21.979434 L 37.068811,17.246167 C 37.068811,17.246167 37.088388,32 37.088388,32 L 22.160133,31.978069 C 22.160133,31.978069 26.997745,27.140456 26.997745,27.140456 C 18.528582,18.264221 13.291696,25.230495 11.500037,31.436501 z"
     style="fill:#404040;"/>
  </a>
 </g>
</svg>

<style type='text/css'>
<![CDATA[
[data-mouse-over-selected='false'] { opacity: 0.7; }
[data-mouse-over-selected='true']  { opacity: 1.0; }
]]>
</style>
<script type="application/ecmascript"><![CDATA[
document.addEventListener('DOMContentLoaded', (event) => {
  highlightEdges();
  highlightAdjacentNodes();
});
]]></script>
</svg>
