<?xml version="1.0" encoding="UTF-8" standalone="no"?>
<!DOCTYPE svg PUBLIC "-//W3C//DTD SVG 1.1//EN"
 "http://www.w3.org/Graphics/SVG/1.1/DTD/svg11.dtd">
<!-- Generated by graphviz version 2.43.0 (0)
 -->
<!-- Title: Arcane::ArcaneHdf5ReaderWriterObject Pages: 1 -->
<svg width="678pt" height="1734pt"
 viewBox="0.00 0.00 677.50 1734.00" xmlns="http://www.w3.org/2000/svg" xmlns:xlink="http://www.w3.org/1999/xlink">
<g id="graph0" class="graph" transform="scale(1 1) rotate(0) translate(4 1730)">
<title>Arcane::ArcaneHdf5ReaderWriterObject</title>
<!-- Node1 -->
<g id="Node000001" class="node">
<title>Node1</title>
<g id="a_Node000001"><a xlink:title="Generation de la classe de base du Service.">
<polygon fill="#999999" stroke="transparent" points="524,-441 334,-441 334,-321 524,-321 524,-441"/>
<text text-anchor="start" x="363" y="-429" font-family="Helvetica,sans-Serif" font-size="10.00">Arcane::ArcaneHdf5Reader</text>
<text text-anchor="start" x="398" y="-418" font-family="Helvetica,sans-Serif" font-size="10.00">WriterObject</text>
<text text-anchor="start" x="340.5" y="-403" font-family="Helvetica,sans-Serif" font-size="10.00">&#45;</text>
<text text-anchor="start" x="351" y="-403" font-family="Helvetica,sans-Serif" font-size="10.00">m_options</text>
<text text-anchor="start" x="338" y="-388" font-family="Helvetica,sans-Serif" font-size="10.00">+</text>
<text text-anchor="start" x="351" y="-388" font-family="Helvetica,sans-Serif" font-size="10.00">ArcaneHdf5ReaderWriterObject()</text>
<text text-anchor="start" x="338" y="-373" font-family="Helvetica,sans-Serif" font-size="10.00">+</text>
<text text-anchor="start" x="351" y="-373" font-family="Helvetica,sans-Serif" font-size="10.00">~ArcaneHdf5ReaderWriterObject()</text>
<text text-anchor="start" x="338" y="-358" font-family="Helvetica,sans-Serif" font-size="10.00">+</text>
<text text-anchor="start" x="351" y="-358" font-family="Helvetica,sans-Serif" font-size="10.00">options()</text>
<text text-anchor="start" x="338" y="-343" font-family="Helvetica,sans-Serif" font-size="10.00">+</text>
<text text-anchor="start" x="351" y="-343" font-family="Helvetica,sans-Serif" font-size="10.00">fillServiceInfo()</text>
<text text-anchor="start" x="340.5" y="-328" font-family="Helvetica,sans-Serif" font-size="10.00">&#45;</text>
<text text-anchor="start" x="351" y="-328" font-family="Helvetica,sans-Serif" font-size="10.00">getAxlContent()</text>
<polygon fill="#666666" stroke="#666666" points="334,-413 334,-413 524,-413 524,-413 334,-413"/>
<polygon fill="#666666" stroke="#666666" points="334,-398 334,-398 349,-398 349,-398 334,-398"/>
<polygon fill="#666666" stroke="#666666" points="349,-398 349,-398 524,-398 524,-398 349,-398"/>
<polygon fill="none" stroke="#666666" points="334,-321 334,-441 524,-441 524,-321 334,-321"/>
</a>
</g>
</g>
<!-- Node11 -->
<g id="Node000011" class="node">
<title>Node11</title>
<g id="a_Node000011"><a xlink:href="../../dd/dcb/classArcane_1_1ArcaneHdf5CheckpointService2.html" target="_top" xlink:title="Protection/reprise au format ArcaneHdf5.">
<polygon fill="white" stroke="transparent" points="520.5,-285 337.5,-285 337.5,0 520.5,0 520.5,-285"/>
<text text-anchor="start" x="353.5" y="-272.5" font-family="Helvetica,sans-Serif" font-size="10.00">Arcane::ArcaneHdf5Checkpoint</text>
<text text-anchor="start" x="408" y="-261.5" font-family="Helvetica,sans-Serif" font-size="10.00">Service2</text>
<text text-anchor="start" x="344.5" y="-246.5" font-family="Helvetica,sans-Serif" font-size="10.00">&#45;</text>
<text text-anchor="start" x="355" y="-246.5" font-family="Helvetica,sans-Serif" font-size="10.00">m_write_index</text>
<text text-anchor="start" x="344.5" y="-231.5" font-family="Helvetica,sans-Serif" font-size="10.00">&#45;</text>
<text text-anchor="start" x="355" y="-231.5" font-family="Helvetica,sans-Serif" font-size="10.00">m_writer</text>
<text text-anchor="start" x="344.5" y="-216.5" font-family="Helvetica,sans-Serif" font-size="10.00">&#45;</text>
<text text-anchor="start" x="355" y="-216.5" font-family="Helvetica,sans-Serif" font-size="10.00">m_reader</text>
<text text-anchor="start" x="344.5" y="-201.5" font-family="Helvetica,sans-Serif" font-size="10.00">&#45;</text>
<text text-anchor="start" x="355" y="-201.5" font-family="Helvetica,sans-Serif" font-size="10.00">m_fileset_size</text>
<text text-anchor="start" x="344.5" y="-186.5" font-family="Helvetica,sans-Serif" font-size="10.00">&#45;</text>
<text text-anchor="start" x="355" y="-186.5" font-family="Helvetica,sans-Serif" font-size="10.00">m_index_modulo</text>
<text text-anchor="start" x="342" y="-171.5" font-family="Helvetica,sans-Serif" font-size="10.00">+</text>
<text text-anchor="start" x="355" y="-171.5" font-family="Helvetica,sans-Serif" font-size="10.00">ArcaneHdf5CheckpointService2()</text>
<text text-anchor="start" x="342" y="-156.5" font-family="Helvetica,sans-Serif" font-size="10.00">+</text>
<text text-anchor="start" x="355" y="-156.5" font-family="Helvetica,sans-Serif" font-size="10.00">dataWriter()</text>
<text text-anchor="start" x="342" y="-141.5" font-family="Helvetica,sans-Serif" font-size="10.00">+</text>
<text text-anchor="start" x="355" y="-141.5" font-family="Helvetica,sans-Serif" font-size="10.00">dataReader()</text>
<text text-anchor="start" x="342" y="-126.5" font-family="Helvetica,sans-Serif" font-size="10.00">+</text>
<text text-anchor="start" x="355" y="-126.5" font-family="Helvetica,sans-Serif" font-size="10.00">notifyBeginWrite()</text>
<text text-anchor="start" x="342" y="-111.5" font-family="Helvetica,sans-Serif" font-size="10.00">+</text>
<text text-anchor="start" x="355" y="-111.5" font-family="Helvetica,sans-Serif" font-size="10.00">notifyEndWrite()</text>
<text text-anchor="start" x="342" y="-96.5" font-family="Helvetica,sans-Serif" font-size="10.00">+</text>
<text text-anchor="start" x="355" y="-96.5" font-family="Helvetica,sans-Serif" font-size="10.00">notifyBeginRead()</text>
<text text-anchor="start" x="342" y="-81.5" font-family="Helvetica,sans-Serif" font-size="10.00">+</text>
<text text-anchor="start" x="355" y="-81.5" font-family="Helvetica,sans-Serif" font-size="10.00">notifyEndRead()</text>
<text text-anchor="start" x="342" y="-66.5" font-family="Helvetica,sans-Serif" font-size="10.00">+</text>
<text text-anchor="start" x="355" y="-66.5" font-family="Helvetica,sans-Serif" font-size="10.00">close()</text>
<text text-anchor="start" x="342" y="-51.5" font-family="Helvetica,sans-Serif" font-size="10.00">+</text>
<text text-anchor="start" x="355" y="-51.5" font-family="Helvetica,sans-Serif" font-size="10.00">readerServiceName()</text>
<text text-anchor="start" x="344.5" y="-36.5" font-family="Helvetica,sans-Serif" font-size="10.00">&#45;</text>
<text text-anchor="start" x="355" y="-36.5" font-family="Helvetica,sans-Serif" font-size="10.00">_defaultFileName()</text>
<text text-anchor="start" x="344.5" y="-21.5" font-family="Helvetica,sans-Serif" font-size="10.00">&#45;</text>
<text text-anchor="start" x="355" y="-21.5" font-family="Helvetica,sans-Serif" font-size="10.00">_defaultDirectory()</text>
<text text-anchor="start" x="344.5" y="-6.5" font-family="Helvetica,sans-Serif" font-size="10.00">&#45;</text>
<text text-anchor="start" x="355" y="-6.5" font-family="Helvetica,sans-Serif" font-size="10.00">_parseMetaData()</text>
<polygon fill="#666666" stroke="#666666" points="338,-256.5 338,-256.5 521,-256.5 521,-256.5 338,-256.5"/>
<polygon fill="#666666" stroke="#666666" points="338,-181.5 338,-181.5 353,-181.5 353,-181.5 338,-181.5"/>
<polygon fill="#666666" stroke="#666666" points="353,-181.5 353,-181.5 521,-181.5 521,-181.5 353,-181.5"/>
<polygon fill="none" stroke="#666666" points="337.5,0 337.5,-285 520.5,-285 520.5,0 337.5,0"/>
</a>
</g>
</g>
<!-- Node1&#45;&gt;Node11 -->
<g id="edge10_Node000001_Node000011" class="edge">
<title>Node1&#45;&gt;Node11</title>
<g id="a_edge10_Node000001_Node000011"><a xlink:title=" ">
<path fill="none" stroke="#63b8ff" d="M429,-310.83C429,-302.68 429,-294.16 429,-285.45"/>
<polygon fill="none" stroke="#63b8ff" points="425.5,-310.93 429,-320.93 432.5,-310.93 425.5,-310.93"/>
</a>
</g>
</g>
<!-- Node2 -->
<g id="Node000002" class="node">
<title>Node2</title>
<g id="a_Node000002"><a xlink:href="../../d1/df4/classArcane_1_1CheckpointService.html" target="_top" xlink:title="Service de protection/reprise.">
<polygon fill="white" stroke="transparent" points="504.5,-781 353.5,-781 353.5,-477 504.5,-477 504.5,-781"/>
<text text-anchor="start" x="364" y="-769" font-family="Helvetica,sans-Serif" font-size="10.00">Arcane::CheckpointService</text>
<text text-anchor="start" x="360.5" y="-754" font-family="Helvetica,sans-Serif" font-size="10.00">&#45;</text>
<text text-anchor="start" x="371" y="-754" font-family="Helvetica,sans-Serif" font-size="10.00">m_file_name</text>
<text text-anchor="start" x="360.5" y="-739" font-family="Helvetica,sans-Serif" font-size="10.00">&#45;</text>
<text text-anchor="start" x="371" y="-739" font-family="Helvetica,sans-Serif" font-size="10.00">m_checkpoint_times</text>
<text text-anchor="start" x="360.5" y="-724" font-family="Helvetica,sans-Serif" font-size="10.00">&#45;</text>
<text text-anchor="start" x="371" y="-724" font-family="Helvetica,sans-Serif" font-size="10.00">m_current_time</text>
<text text-anchor="start" x="360.5" y="-709" font-family="Helvetica,sans-Serif" font-size="10.00">&#45;</text>
<text text-anchor="start" x="371" y="-709" font-family="Helvetica,sans-Serif" font-size="10.00">m_current_index</text>
<text text-anchor="start" x="360.5" y="-694" font-family="Helvetica,sans-Serif" font-size="10.00">&#45;</text>
<text text-anchor="start" x="371" y="-694" font-family="Helvetica,sans-Serif" font-size="10.00">m_reader_meta_data</text>
<text text-anchor="start" x="360.5" y="-679" font-family="Helvetica,sans-Serif" font-size="10.00">&#45;</text>
<text text-anchor="start" x="371" y="-679" font-family="Helvetica,sans-Serif" font-size="10.00">m_base_directory_name</text>
<text text-anchor="start" x="358" y="-664" font-family="Helvetica,sans-Serif" font-size="10.00">+</text>
<text text-anchor="start" x="371" y="-664" font-family="Helvetica,sans-Serif" font-size="10.00">CheckpointService()</text>
<text text-anchor="start" x="358" y="-649" font-family="Helvetica,sans-Serif" font-size="10.00">+</text>
<text text-anchor="start" x="371" y="-649" font-family="Helvetica,sans-Serif" font-size="10.00">build()</text>
<text text-anchor="start" x="358" y="-634" font-family="Helvetica,sans-Serif" font-size="10.00">+</text>
<text text-anchor="start" x="371" y="-634" font-family="Helvetica,sans-Serif" font-size="10.00">setFileName()</text>
<text text-anchor="start" x="358" y="-619" font-family="Helvetica,sans-Serif" font-size="10.00">+</text>
<text text-anchor="start" x="371" y="-619" font-family="Helvetica,sans-Serif" font-size="10.00">fileName()</text>
<text text-anchor="start" x="358" y="-604" font-family="Helvetica,sans-Serif" font-size="10.00">+</text>
<text text-anchor="start" x="371" y="-604" font-family="Helvetica,sans-Serif" font-size="10.00">setCheckpointTimes()</text>
<text text-anchor="start" x="358" y="-589" font-family="Helvetica,sans-Serif" font-size="10.00">+</text>
<text text-anchor="start" x="371" y="-589" font-family="Helvetica,sans-Serif" font-size="10.00">setCurrentTimeAndIndex()</text>
<text text-anchor="start" x="358" y="-574" font-family="Helvetica,sans-Serif" font-size="10.00">+</text>
<text text-anchor="start" x="371" y="-574" font-family="Helvetica,sans-Serif" font-size="10.00">checkpointTimes()</text>
<text text-anchor="start" x="358" y="-559" font-family="Helvetica,sans-Serif" font-size="10.00">+</text>
<text text-anchor="start" x="371" y="-559" font-family="Helvetica,sans-Serif" font-size="10.00">readerMetaData()</text>
<text text-anchor="start" x="358" y="-544" font-family="Helvetica,sans-Serif" font-size="10.00">+</text>
<text text-anchor="start" x="371" y="-544" font-family="Helvetica,sans-Serif" font-size="10.00">setReaderMetaData()</text>
<text text-anchor="start" x="358" y="-529" font-family="Helvetica,sans-Serif" font-size="10.00">+</text>
<text text-anchor="start" x="371" y="-529" font-family="Helvetica,sans-Serif" font-size="10.00">setBaseDirectoryName()</text>
<text text-anchor="start" x="358" y="-514" font-family="Helvetica,sans-Serif" font-size="10.00">+</text>
<text text-anchor="start" x="371" y="-514" font-family="Helvetica,sans-Serif" font-size="10.00">baseDirectoryName()</text>
<text text-anchor="start" x="358" y="-499" font-family="Helvetica,sans-Serif" font-size="10.00">+</text>
<text text-anchor="start" x="371" y="-499" font-family="Helvetica,sans-Serif" font-size="10.00">currentIndex()</text>
<text text-anchor="start" x="358" y="-484" font-family="Helvetica,sans-Serif" font-size="10.00">+</text>
<text text-anchor="start" x="371" y="-484" font-family="Helvetica,sans-Serif" font-size="10.00">currentTime()</text>
<polygon fill="#666666" stroke="#666666" points="354,-764 354,-764 505,-764 505,-764 354,-764"/>
<polygon fill="#666666" stroke="#666666" points="354,-674 354,-674 369,-674 369,-674 354,-674"/>
<polygon fill="#666666" stroke="#666666" points="369,-674 369,-674 505,-674 505,-674 369,-674"/>
<polygon fill="none" stroke="#666666" points="353.5,-477 353.5,-781 504.5,-781 504.5,-477 353.5,-477"/>
</a>
</g>
</g>
<!-- Node2&#45;&gt;Node1 -->
<g id="edge1_Node000001_Node000002" class="edge">
<title>Node2&#45;&gt;Node1</title>
<g id="a_edge1_Node000001_Node000002"><a xlink:title=" ">
<path fill="none" stroke="#63b8ff" d="M429,-466.61C429,-457.73 429,-449.14 429,-441.06"/>
<polygon fill="none" stroke="#63b8ff" points="425.5,-466.76 429,-476.76 432.5,-466.76 425.5,-466.76"/>
</a>
</g>
</g>
<!-- Node3 -->
<g id="Node000003" class="node">
<title>Node3</title>
<g id="a_Node000003"><a xlink:href="../../d1/d5e/classArcane_1_1BasicService.html" target="_top" xlink:title="Classe de base de service lié à un sous&#45;domaine.">
<polygon fill="white" stroke="transparent" points="339.5,-971 226.5,-971 226.5,-892 339.5,-892 339.5,-971"/>
<text text-anchor="start" x="232" y="-958.5" font-family="Helvetica,sans-Serif" font-size="10.00">Arcane::BasicService</text>
<text text-anchor="start" x="236.5" y="-943.5" font-family="Helvetica,sans-Serif" font-size="10.00">&#45;</text>
<text text-anchor="start" x="250" y="-943.5" font-family="Helvetica,sans-Serif" font-size="10.00">m_sub_domain</text>
<text text-anchor="start" x="234" y="-928.5" font-family="Helvetica,sans-Serif" font-size="10.00">+</text>
<text text-anchor="start" x="250" y="-928.5" font-family="Helvetica,sans-Serif" font-size="10.00">~BasicService()</text>
<text text-anchor="start" x="234" y="-913.5" font-family="Helvetica,sans-Serif" font-size="10.00">+</text>
<text text-anchor="start" x="250" y="-913.5" font-family="Helvetica,sans-Serif" font-size="10.00">subDomain()</text>
<text text-anchor="start" x="234" y="-898.5" font-family="Helvetica,sans-Serif" font-size="10.00">#</text>
<text text-anchor="start" x="250" y="-898.5" font-family="Helvetica,sans-Serif" font-size="10.00">BasicService()</text>
<polygon fill="#666666" stroke="#666666" points="227,-953.5 227,-953.5 340,-953.5 340,-953.5 227,-953.5"/>
<polygon fill="#666666" stroke="#666666" points="227,-938.5 227,-938.5 248,-938.5 248,-938.5 227,-938.5"/>
<polygon fill="#666666" stroke="#666666" points="248,-938.5 248,-938.5 340,-938.5 340,-938.5 248,-938.5"/>
<polygon fill="none" stroke="#666666" points="226.5,-892 226.5,-971 339.5,-971 339.5,-892 226.5,-892"/>
</a>
</g>
</g>
<!-- Node3&#45;&gt;Node2 -->
<g id="edge2_Node000002_Node000003" class="edge">
<title>Node3&#45;&gt;Node2</title>
<g id="a_edge2_Node000002_Node000003"><a xlink:title=" ">
<path fill="none" stroke="#63b8ff" d="M306.2,-882.74C319.73,-854.89 337.63,-818.07 355.55,-781.17"/>
<polygon fill="none" stroke="#63b8ff" points="303.01,-881.31 301.79,-891.83 309.31,-884.37 303.01,-881.31"/>
</a>
</g>
</g>
<!-- Node4 -->
<g id="Node000004" class="node">
<title>Node4</title>
<g id="a_Node000004"><a xlink:href="../../da/d61/classArcane_1_1AbstractService.html" target="_top" xlink:title="Classe de base d&#39;un service.">
<polygon fill="white" stroke="transparent" points="204.5,-1333.5 77.5,-1333.5 77.5,-1194.5 204.5,-1194.5 204.5,-1333.5"/>
<text text-anchor="start" x="83" y="-1321" font-family="Helvetica,sans-Serif" font-size="10.00">Arcane::AbstractService</text>
<text text-anchor="start" x="87.5" y="-1306" font-family="Helvetica,sans-Serif" font-size="10.00">&#45;</text>
<text text-anchor="start" x="101" y="-1306" font-family="Helvetica,sans-Serif" font-size="10.00">m_service_info</text>
<text text-anchor="start" x="87.5" y="-1291" font-family="Helvetica,sans-Serif" font-size="10.00">&#45;</text>
<text text-anchor="start" x="101" y="-1291" font-family="Helvetica,sans-Serif" font-size="10.00">m_parent</text>
<text text-anchor="start" x="85" y="-1276" font-family="Helvetica,sans-Serif" font-size="10.00">+</text>
<text text-anchor="start" x="101" y="-1276" font-family="Helvetica,sans-Serif" font-size="10.00">~AbstractService()</text>
<text text-anchor="start" x="85" y="-1261" font-family="Helvetica,sans-Serif" font-size="10.00">+</text>
<text text-anchor="start" x="101" y="-1261" font-family="Helvetica,sans-Serif" font-size="10.00">build()</text>
<text text-anchor="start" x="85" y="-1246" font-family="Helvetica,sans-Serif" font-size="10.00">+</text>
<text text-anchor="start" x="101" y="-1246" font-family="Helvetica,sans-Serif" font-size="10.00">serviceInfo()</text>
<text text-anchor="start" x="85" y="-1231" font-family="Helvetica,sans-Serif" font-size="10.00">+</text>
<text text-anchor="start" x="101" y="-1231" font-family="Helvetica,sans-Serif" font-size="10.00">serviceParent()</text>
<text text-anchor="start" x="85" y="-1216" font-family="Helvetica,sans-Serif" font-size="10.00">+</text>
<text text-anchor="start" x="101" y="-1216" font-family="Helvetica,sans-Serif" font-size="10.00">serviceInterface()</text>
<text text-anchor="start" x="85" y="-1201" font-family="Helvetica,sans-Serif" font-size="10.00">#</text>
<text text-anchor="start" x="101" y="-1201" font-family="Helvetica,sans-Serif" font-size="10.00">AbstractService()</text>
<polygon fill="#666666" stroke="#666666" points="78,-1316 78,-1316 205,-1316 205,-1316 78,-1316"/>
<polygon fill="#666666" stroke="#666666" points="78,-1286 78,-1286 99,-1286 99,-1286 78,-1286"/>
<polygon fill="#666666" stroke="#666666" points="99,-1286 99,-1286 205,-1286 205,-1286 99,-1286"/>
<polygon fill="none" stroke="#666666" points="77.5,-1194.5 77.5,-1333.5 204.5,-1333.5 204.5,-1194.5 77.5,-1194.5"/>
</a>
</g>
</g>
<!-- Node4&#45;&gt;Node3 -->
<g id="edge3_Node000003_Node000004" class="edge">
<title>Node4&#45;&gt;Node3</title>
<g id="a_edge3_Node000003_Node000004"><a xlink:title=" ">
<path fill="none" stroke="#63b8ff" d="M171.48,-1185.01C184.27,-1152.95 199.5,-1115.55 214,-1082 230.39,-1044.08 250.26,-1001.34 264.46,-971.3"/>
<polygon fill="none" stroke="#63b8ff" points="168.22,-1183.76 167.77,-1194.34 174.72,-1186.34 168.22,-1183.76"/>
</a>
</g>
</g>
<!-- Node5 -->
<g id="Node000005" class="node">
<title>Node5</title>
<g id="a_Node000005"><a xlink:href="../../d1/d17/classArcane_1_1TraceAccessor.html" target="_top" xlink:title="Classe d&#39;accès aux traces.">
<polygon fill="white" stroke="transparent" points="140,-1726 0,-1726 0,-1482 140,-1482 140,-1726"/>
<text text-anchor="start" x="15.5" y="-1714" font-family="Helvetica,sans-Serif" font-size="10.00">Arcane::TraceAccessor</text>
<text text-anchor="start" x="6.5" y="-1699" font-family="Helvetica,sans-Serif" font-size="10.00">&#45;</text>
<text text-anchor="start" x="17" y="-1699" font-family="Helvetica,sans-Serif" font-size="10.00">m_trace</text>
<text text-anchor="start" x="6.5" y="-1684" font-family="Helvetica,sans-Serif" font-size="10.00">&#45;</text>
<text text-anchor="start" x="17" y="-1684" font-family="Helvetica,sans-Serif" font-size="10.00">m_local_verbose_level</text>
<text text-anchor="start" x="4" y="-1669" font-family="Helvetica,sans-Serif" font-size="10.00">+</text>
<text text-anchor="start" x="17" y="-1669" font-family="Helvetica,sans-Serif" font-size="10.00">TraceAccessor()</text>
<text text-anchor="start" x="4" y="-1654" font-family="Helvetica,sans-Serif" font-size="10.00">+</text>
<text text-anchor="start" x="17" y="-1654" font-family="Helvetica,sans-Serif" font-size="10.00">TraceAccessor()</text>
<text text-anchor="start" x="4" y="-1639" font-family="Helvetica,sans-Serif" font-size="10.00">+</text>
<text text-anchor="start" x="17" y="-1639" font-family="Helvetica,sans-Serif" font-size="10.00">operator=()</text>
<text text-anchor="start" x="4" y="-1624" font-family="Helvetica,sans-Serif" font-size="10.00">+</text>
<text text-anchor="start" x="17" y="-1624" font-family="Helvetica,sans-Serif" font-size="10.00">~TraceAccessor()</text>
<text text-anchor="start" x="4" y="-1609" font-family="Helvetica,sans-Serif" font-size="10.00">+</text>
<text text-anchor="start" x="17" y="-1609" font-family="Helvetica,sans-Serif" font-size="10.00">traceMng()</text>
<text text-anchor="start" x="4" y="-1594" font-family="Helvetica,sans-Serif" font-size="10.00">+</text>
<text text-anchor="start" x="17" y="-1594" font-family="Helvetica,sans-Serif" font-size="10.00">info()</text>
<text text-anchor="start" x="4" y="-1579" font-family="Helvetica,sans-Serif" font-size="10.00">+</text>
<text text-anchor="start" x="17" y="-1579" font-family="Helvetica,sans-Serif" font-size="10.00">pinfo()</text>
<text text-anchor="start" x="4" y="-1564" font-family="Helvetica,sans-Serif" font-size="10.00">+</text>
<text text-anchor="start" x="17" y="-1564" font-family="Helvetica,sans-Serif" font-size="10.00">info()</text>
<text text-anchor="start" x="4" y="-1549" font-family="Helvetica,sans-Serif" font-size="10.00">+</text>
<text text-anchor="start" x="17" y="-1549" font-family="Helvetica,sans-Serif" font-size="10.00">pinfo()</text>
<text text-anchor="start" x="4" y="-1534" font-family="Helvetica,sans-Serif" font-size="10.00">+</text>
<text text-anchor="start" x="17" y="-1534" font-family="Helvetica,sans-Serif" font-size="10.00">info()</text>
<text text-anchor="start" x="17" y="-1519" font-family="Helvetica,sans-Serif" font-size="10.00">et 15 de plus...</text>
<text text-anchor="start" x="4" y="-1504" font-family="Helvetica,sans-Serif" font-size="10.00">#</text>
<text text-anchor="start" x="17" y="-1504" font-family="Helvetica,sans-Serif" font-size="10.00">_setLocalVerboseLevel()</text>
<text text-anchor="start" x="4" y="-1489" font-family="Helvetica,sans-Serif" font-size="10.00">#</text>
<text text-anchor="start" x="17" y="-1489" font-family="Helvetica,sans-Serif" font-size="10.00">_localVerboseLevel()</text>
<polygon fill="#666666" stroke="#666666" points="0,-1709 0,-1709 140,-1709 140,-1709 0,-1709"/>
<polygon fill="#666666" stroke="#666666" points="0,-1679 0,-1679 15,-1679 15,-1679 0,-1679"/>
<polygon fill="#666666" stroke="#666666" points="15,-1679 15,-1679 140,-1679 140,-1679 15,-1679"/>
<polygon fill="none" stroke="#666666" points="0,-1482 0,-1726 140,-1726 140,-1482 0,-1482"/>
</a>
</g>
</g>
<!-- Node5&#45;&gt;Node4 -->
<g id="edge4_Node000004_Node000005" class="edge">
<title>Node5&#45;&gt;Node4</title>
<g id="a_edge4_Node000004_Node000005"><a xlink:title=" ">
<path fill="none" stroke="#63b8ff" d="M97.53,-1471.93C107.44,-1424.75 118.23,-1373.41 126.58,-1333.67"/>
<polygon fill="none" stroke="#63b8ff" points="94.06,-1471.42 95.43,-1481.93 100.91,-1472.86 94.06,-1471.42"/>
</a>
</g>
</g>
<!-- Node6 -->
<g id="Node000006" class="node">
<title>Node6</title>
<g id="a_Node000006"><a xlink:href="../../da/d7e/classArcane_1_1IService.html" target="_top" xlink:title="Interface d&#39;un service.">
<polygon fill="white" stroke="transparent" points="266,-1658.5 158,-1658.5 158,-1549.5 266,-1549.5 266,-1658.5"/>
<text text-anchor="start" x="172.5" y="-1646" font-family="Helvetica,sans-Serif" font-size="10.00">Arcane::IService</text>
<text text-anchor="start" x="210" y="-1631" font-family="Helvetica,sans-Serif" font-size="10.00"> </text>
<text text-anchor="start" x="162" y="-1616" font-family="Helvetica,sans-Serif" font-size="10.00">+</text>
<text text-anchor="start" x="175" y="-1616" font-family="Helvetica,sans-Serif" font-size="10.00">~IService()</text>
<text text-anchor="start" x="162" y="-1601" font-family="Helvetica,sans-Serif" font-size="10.00">+</text>
<text text-anchor="start" x="175" y="-1601" font-family="Helvetica,sans-Serif" font-size="10.00">serviceParent()</text>
<text text-anchor="start" x="162" y="-1586" font-family="Helvetica,sans-Serif" font-size="10.00">+</text>
<text text-anchor="start" x="175" y="-1586" font-family="Helvetica,sans-Serif" font-size="10.00">serviceInterface()</text>
<text text-anchor="start" x="162" y="-1571" font-family="Helvetica,sans-Serif" font-size="10.00">+</text>
<text text-anchor="start" x="175" y="-1571" font-family="Helvetica,sans-Serif" font-size="10.00">serviceInfo()</text>
<text text-anchor="start" x="162" y="-1556" font-family="Helvetica,sans-Serif" font-size="10.00">#</text>
<text text-anchor="start" x="175" y="-1556" font-family="Helvetica,sans-Serif" font-size="10.00">IService()</text>
<polygon fill="#666666" stroke="#666666" points="158,-1641 158,-1641 266,-1641 266,-1641 158,-1641"/>
<polygon fill="#666666" stroke="#666666" points="158,-1626 158,-1626 266,-1626 266,-1626 158,-1626"/>
<polygon fill="none" stroke="#666666" points="158,-1549.5 158,-1658.5 266,-1658.5 266,-1549.5 158,-1549.5"/>
</a>
</g>
</g>
<!-- Node6&#45;&gt;Node4 -->
<g id="edge5_Node000004_Node000006" class="edge">
<title>Node6&#45;&gt;Node4</title>
<g id="a_edge5_Node000004_Node000006"><a xlink:title=" ">
<path fill="none" stroke="#63b8ff" d="M198.67,-1539.56C186.36,-1480.94 168.11,-1394.06 155.45,-1333.8"/>
<polygon fill="none" stroke="#63b8ff" points="195.27,-1540.38 200.75,-1549.44 202.12,-1538.94 195.27,-1540.38"/>
</a>
</g>
</g>
<!-- Node7 -->
<g id="Node000007" class="node">
<title>Node7</title>
<g id="a_Node000007"><a xlink:href="../../d6/d09/classArcane_1_1MeshAccessor.html" target="_top" xlink:title="Accès aux informations d&#39;un maillage.">
<polygon fill="white" stroke="transparent" points="343,-1363.5 223,-1363.5 223,-1164.5 343,-1164.5 343,-1363.5"/>
<text text-anchor="start" x="228" y="-1351" font-family="Helvetica,sans-Serif" font-size="10.00">Arcane::MeshAccessor</text>
<text text-anchor="start" x="230" y="-1336" font-family="Helvetica,sans-Serif" font-size="10.00">&#45;</text>
<text text-anchor="start" x="241" y="-1336" font-family="Helvetica,sans-Serif" font-size="10.00">m_mesh_handle</text>
<text text-anchor="start" x="227.5" y="-1321" font-family="Helvetica,sans-Serif" font-size="10.00">+</text>
<text text-anchor="start" x="241" y="-1321" font-family="Helvetica,sans-Serif" font-size="10.00">MeshAccessor()</text>
<text text-anchor="start" x="227.5" y="-1306" font-family="Helvetica,sans-Serif" font-size="10.00">+</text>
<text text-anchor="start" x="241" y="-1306" font-family="Helvetica,sans-Serif" font-size="10.00">MeshAccessor()</text>
<text text-anchor="start" x="227.5" y="-1291" font-family="Helvetica,sans-Serif" font-size="10.00">+</text>
<text text-anchor="start" x="241" y="-1291" font-family="Helvetica,sans-Serif" font-size="10.00">MeshAccessor()</text>
<text text-anchor="start" x="227.5" y="-1276" font-family="Helvetica,sans-Serif" font-size="10.00">+</text>
<text text-anchor="start" x="241" y="-1276" font-family="Helvetica,sans-Serif" font-size="10.00">nbCell()</text>
<text text-anchor="start" x="227.5" y="-1261" font-family="Helvetica,sans-Serif" font-size="10.00">+</text>
<text text-anchor="start" x="241" y="-1261" font-family="Helvetica,sans-Serif" font-size="10.00">nbFace()</text>
<text text-anchor="start" x="227.5" y="-1246" font-family="Helvetica,sans-Serif" font-size="10.00">+</text>
<text text-anchor="start" x="241" y="-1246" font-family="Helvetica,sans-Serif" font-size="10.00">nbEdge()</text>
<text text-anchor="start" x="227.5" y="-1231" font-family="Helvetica,sans-Serif" font-size="10.00">+</text>
<text text-anchor="start" x="241" y="-1231" font-family="Helvetica,sans-Serif" font-size="10.00">nbNode()</text>
<text text-anchor="start" x="227.5" y="-1216" font-family="Helvetica,sans-Serif" font-size="10.00">+</text>
<text text-anchor="start" x="241" y="-1216" font-family="Helvetica,sans-Serif" font-size="10.00">nodesCoordinates()</text>
<text text-anchor="start" x="227.5" y="-1201" font-family="Helvetica,sans-Serif" font-size="10.00">+</text>
<text text-anchor="start" x="241" y="-1201" font-family="Helvetica,sans-Serif" font-size="10.00">allNodes()</text>
<text text-anchor="start" x="227.5" y="-1186" font-family="Helvetica,sans-Serif" font-size="10.00">+</text>
<text text-anchor="start" x="241" y="-1186" font-family="Helvetica,sans-Serif" font-size="10.00">allEdges()</text>
<text text-anchor="start" x="241" y="-1171" font-family="Helvetica,sans-Serif" font-size="10.00">et 9 de plus...</text>
<polygon fill="#666666" stroke="#666666" points="223,-1346 223,-1346 343,-1346 343,-1346 223,-1346"/>
<polygon fill="#666666" stroke="#666666" points="223,-1331 223,-1331 239,-1331 239,-1331 223,-1331"/>
<polygon fill="#666666" stroke="#666666" points="239,-1331 239,-1331 343,-1331 343,-1331 239,-1331"/>
<polygon fill="none" stroke="#666666" points="223,-1164.5 223,-1363.5 343,-1363.5 343,-1164.5 223,-1164.5"/>
</a>
</g>
</g>
<!-- Node7&#45;&gt;Node3 -->
<g id="edge6_Node000003_Node000007" class="edge">
<title>Node7&#45;&gt;Node3</title>
<g id="a_edge6_Node000003_Node000007"><a xlink:title=" ">
<path fill="none" stroke="#63b8ff" d="M283,-1154.29C283,-1091.26 283,-1015.76 283,-971.09"/>
<polygon fill="none" stroke="#63b8ff" points="279.5,-1154.29 283,-1164.29 286.5,-1154.29 279.5,-1154.29"/>
</a>
</g>
</g>
<!-- Node8 -->
<g id="Node000008" class="node">
<title>Node8</title>
<g id="a_Node000008"><a xlink:href="../../d1/d74/classArcane_1_1CommonVariables.html" target="_top" xlink:title="Variables communes d&#39;un cas.">
<polygon fill="white" stroke="transparent" points="519,-1446 361,-1446 361,-1082 519,-1082 519,-1446"/>
<text text-anchor="start" x="375" y="-1434" font-family="Helvetica,sans-Serif" font-size="10.00">Arcane::CommonVariables</text>
<text text-anchor="start" x="365" y="-1419" font-family="Helvetica,sans-Serif" font-size="10.00">+</text>
<text text-anchor="start" x="378" y="-1419" font-family="Helvetica,sans-Serif" font-size="10.00">m_global_iteration</text>
<text text-anchor="start" x="365" y="-1404" font-family="Helvetica,sans-Serif" font-size="10.00">+</text>
<text text-anchor="start" x="378" y="-1404" font-family="Helvetica,sans-Serif" font-size="10.00">m_global_time</text>
<text text-anchor="start" x="365" y="-1389" font-family="Helvetica,sans-Serif" font-size="10.00">+</text>
<text text-anchor="start" x="378" y="-1389" font-family="Helvetica,sans-Serif" font-size="10.00">m_global_deltat</text>
<text text-anchor="start" x="365" y="-1374" font-family="Helvetica,sans-Serif" font-size="10.00">+</text>
<text text-anchor="start" x="378" y="-1374" font-family="Helvetica,sans-Serif" font-size="10.00">m_global_old_time</text>
<text text-anchor="start" x="365" y="-1359" font-family="Helvetica,sans-Serif" font-size="10.00">+</text>
<text text-anchor="start" x="378" y="-1359" font-family="Helvetica,sans-Serif" font-size="10.00">m_global_old_deltat</text>
<text text-anchor="start" x="365" y="-1344" font-family="Helvetica,sans-Serif" font-size="10.00">+</text>
<text text-anchor="start" x="378" y="-1344" font-family="Helvetica,sans-Serif" font-size="10.00">m_global_final_time</text>
<text text-anchor="start" x="365" y="-1329" font-family="Helvetica,sans-Serif" font-size="10.00">+</text>
<text text-anchor="start" x="378" y="-1329" font-family="Helvetica,sans-Serif" font-size="10.00">m_global_old_cpu_time</text>
<text text-anchor="start" x="365" y="-1314" font-family="Helvetica,sans-Serif" font-size="10.00">+</text>
<text text-anchor="start" x="378" y="-1314" font-family="Helvetica,sans-Serif" font-size="10.00">m_global_cpu_time</text>
<text text-anchor="start" x="365" y="-1299" font-family="Helvetica,sans-Serif" font-size="10.00">+</text>
<text text-anchor="start" x="378" y="-1299" font-family="Helvetica,sans-Serif" font-size="10.00">m_global_old_elapsed_time</text>
<text text-anchor="start" x="365" y="-1284" font-family="Helvetica,sans-Serif" font-size="10.00">+</text>
<text text-anchor="start" x="378" y="-1284" font-family="Helvetica,sans-Serif" font-size="10.00">m_global_elapsed_time</text>
<text text-anchor="start" x="365" y="-1269" font-family="Helvetica,sans-Serif" font-size="10.00">+</text>
<text text-anchor="start" x="378" y="-1269" font-family="Helvetica,sans-Serif" font-size="10.00">CommonVariables()</text>
<text text-anchor="start" x="365" y="-1254" font-family="Helvetica,sans-Serif" font-size="10.00">+</text>
<text text-anchor="start" x="378" y="-1254" font-family="Helvetica,sans-Serif" font-size="10.00">CommonVariables()</text>
<text text-anchor="start" x="365" y="-1239" font-family="Helvetica,sans-Serif" font-size="10.00">+</text>
<text text-anchor="start" x="378" y="-1239" font-family="Helvetica,sans-Serif" font-size="10.00">CommonVariables()</text>
<text text-anchor="start" x="365" y="-1224" font-family="Helvetica,sans-Serif" font-size="10.00">+</text>
<text text-anchor="start" x="378" y="-1224" font-family="Helvetica,sans-Serif" font-size="10.00">~CommonVariables()</text>
<text text-anchor="start" x="365" y="-1209" font-family="Helvetica,sans-Serif" font-size="10.00">+</text>
<text text-anchor="start" x="378" y="-1209" font-family="Helvetica,sans-Serif" font-size="10.00">globalIteration()</text>
<text text-anchor="start" x="365" y="-1194" font-family="Helvetica,sans-Serif" font-size="10.00">+</text>
<text text-anchor="start" x="378" y="-1194" font-family="Helvetica,sans-Serif" font-size="10.00">globalTime()</text>
<text text-anchor="start" x="365" y="-1179" font-family="Helvetica,sans-Serif" font-size="10.00">+</text>
<text text-anchor="start" x="378" y="-1179" font-family="Helvetica,sans-Serif" font-size="10.00">globalOldTime()</text>
<text text-anchor="start" x="365" y="-1164" font-family="Helvetica,sans-Serif" font-size="10.00">+</text>
<text text-anchor="start" x="378" y="-1164" font-family="Helvetica,sans-Serif" font-size="10.00">globalFinalTime()</text>
<text text-anchor="start" x="365" y="-1149" font-family="Helvetica,sans-Serif" font-size="10.00">+</text>
<text text-anchor="start" x="378" y="-1149" font-family="Helvetica,sans-Serif" font-size="10.00">globalDeltaT()</text>
<text text-anchor="start" x="365" y="-1134" font-family="Helvetica,sans-Serif" font-size="10.00">+</text>
<text text-anchor="start" x="378" y="-1134" font-family="Helvetica,sans-Serif" font-size="10.00">globalCPUTime()</text>
<text text-anchor="start" x="365" y="-1119" font-family="Helvetica,sans-Serif" font-size="10.00">+</text>
<text text-anchor="start" x="378" y="-1119" font-family="Helvetica,sans-Serif" font-size="10.00">globalOldCPUTime()</text>
<text text-anchor="start" x="365" y="-1104" font-family="Helvetica,sans-Serif" font-size="10.00">+</text>
<text text-anchor="start" x="378" y="-1104" font-family="Helvetica,sans-Serif" font-size="10.00">globalElapsedTime()</text>
<text text-anchor="start" x="365" y="-1089" font-family="Helvetica,sans-Serif" font-size="10.00">+</text>
<text text-anchor="start" x="378" y="-1089" font-family="Helvetica,sans-Serif" font-size="10.00">globalOldElapsedTime()</text>
<polygon fill="#666666" stroke="#666666" points="361,-1429 361,-1429 519,-1429 519,-1429 361,-1429"/>
<polygon fill="#666666" stroke="#666666" points="361,-1279 361,-1279 376,-1279 376,-1279 361,-1279"/>
<polygon fill="#666666" stroke="#666666" points="376,-1279 376,-1279 519,-1279 519,-1279 376,-1279"/>
<polygon fill="none" stroke="#666666" points="361,-1082 361,-1446 519,-1446 519,-1082 361,-1082"/>
</a>
</g>
</g>
<!-- Node8&#45;&gt;Node3 -->
<g id="edge7_Node000003_Node000008" class="edge">
<title>Node8&#45;&gt;Node3</title>
<g id="a_edge7_Node000003_Node000008"><a xlink:title=" ">
<path fill="none" stroke="#63b8ff" d="M356.51,-1087.25C335.73,-1043.5 315.41,-1000.74 301.43,-971.29"/>
<polygon fill="none" stroke="#63b8ff" points="353.36,-1088.77 360.81,-1096.3 359.68,-1085.76 353.36,-1088.77"/>
</a>
</g>
</g>
<!-- Node9 -->
<g id="Node000009" class="node">
<title>Node9</title>
<g id="a_Node000009"><a xlink:href="../../d1/d93/classArcane_1_1ICheckpointWriter.html" target="_top" xlink:title="Interface du service d&#39;écriture d&#39;une protection/reprise.">
<polygon fill="white" stroke="transparent" points="500,-1046 358,-1046 358,-817 500,-817 500,-1046"/>
<text text-anchor="start" x="365" y="-1033.5" font-family="Helvetica,sans-Serif" font-size="10.00">Arcane::ICheckpointWriter</text>
<text text-anchor="start" x="427" y="-1018.5" font-family="Helvetica,sans-Serif" font-size="10.00"> </text>
<text text-anchor="start" x="362" y="-1003.5" font-family="Helvetica,sans-Serif" font-size="10.00">+</text>
<text text-anchor="start" x="375" y="-1003.5" font-family="Helvetica,sans-Serif" font-size="10.00">~ICheckpointWriter()</text>
<text text-anchor="start" x="362" y="-988.5" font-family="Helvetica,sans-Serif" font-size="10.00">+</text>
<text text-anchor="start" x="375" y="-988.5" font-family="Helvetica,sans-Serif" font-size="10.00">dataWriter()</text>
<text text-anchor="start" x="362" y="-973.5" font-family="Helvetica,sans-Serif" font-size="10.00">+</text>
<text text-anchor="start" x="375" y="-973.5" font-family="Helvetica,sans-Serif" font-size="10.00">notifyBeginWrite()</text>
<text text-anchor="start" x="362" y="-958.5" font-family="Helvetica,sans-Serif" font-size="10.00">+</text>
<text text-anchor="start" x="375" y="-958.5" font-family="Helvetica,sans-Serif" font-size="10.00">notifyEndWrite()</text>
<text text-anchor="start" x="362" y="-943.5" font-family="Helvetica,sans-Serif" font-size="10.00">+</text>
<text text-anchor="start" x="375" y="-943.5" font-family="Helvetica,sans-Serif" font-size="10.00">setFileName()</text>
<text text-anchor="start" x="362" y="-928.5" font-family="Helvetica,sans-Serif" font-size="10.00">+</text>
<text text-anchor="start" x="375" y="-928.5" font-family="Helvetica,sans-Serif" font-size="10.00">fileName()</text>
<text text-anchor="start" x="362" y="-913.5" font-family="Helvetica,sans-Serif" font-size="10.00">+</text>
<text text-anchor="start" x="375" y="-913.5" font-family="Helvetica,sans-Serif" font-size="10.00">setBaseDirectoryName()</text>
<text text-anchor="start" x="362" y="-898.5" font-family="Helvetica,sans-Serif" font-size="10.00">+</text>
<text text-anchor="start" x="375" y="-898.5" font-family="Helvetica,sans-Serif" font-size="10.00">baseDirectoryName()</text>
<text text-anchor="start" x="362" y="-883.5" font-family="Helvetica,sans-Serif" font-size="10.00">+</text>
<text text-anchor="start" x="375" y="-883.5" font-family="Helvetica,sans-Serif" font-size="10.00">setCheckpointTimes()</text>
<text text-anchor="start" x="362" y="-868.5" font-family="Helvetica,sans-Serif" font-size="10.00">+</text>
<text text-anchor="start" x="375" y="-868.5" font-family="Helvetica,sans-Serif" font-size="10.00">checkpointTimes()</text>
<text text-anchor="start" x="362" y="-853.5" font-family="Helvetica,sans-Serif" font-size="10.00">+</text>
<text text-anchor="start" x="375" y="-853.5" font-family="Helvetica,sans-Serif" font-size="10.00">close()</text>
<text text-anchor="start" x="362" y="-838.5" font-family="Helvetica,sans-Serif" font-size="10.00">+</text>
<text text-anchor="start" x="375" y="-838.5" font-family="Helvetica,sans-Serif" font-size="10.00">readerServiceName()</text>
<text text-anchor="start" x="362" y="-823.5" font-family="Helvetica,sans-Serif" font-size="10.00">+</text>
<text text-anchor="start" x="375" y="-823.5" font-family="Helvetica,sans-Serif" font-size="10.00">readerMetaData()</text>
<polygon fill="#666666" stroke="#666666" points="358,-1028.5 358,-1028.5 500,-1028.5 500,-1028.5 358,-1028.5"/>
<polygon fill="#666666" stroke="#666666" points="358,-1013.5 358,-1013.5 500,-1013.5 500,-1013.5 358,-1013.5"/>
<polygon fill="none" stroke="#666666" points="358,-817 358,-1046 500,-1046 500,-817 358,-817"/>
</a>
</g>
</g>
<!-- Node9&#45;&gt;Node2 -->
<g id="edge8_Node000002_Node000009" class="edge">
<title>Node9&#45;&gt;Node2</title>
<g id="a_edge8_Node000002_Node000009"><a xlink:title=" ">
<path fill="none" stroke="#63b8ff" d="M429,-806.66C429,-798.22 429,-789.66 429,-781.1"/>
<polygon fill="none" stroke="#63b8ff" points="425.5,-806.89 429,-816.89 432.5,-806.89 425.5,-806.89"/>
</a>
</g>
</g>
<!-- Node10 -->
<g id="Node000010" class="node">
<title>Node10</title>
<g id="a_Node000010"><a xlink:href="../../d9/d1e/classArcane_1_1ICheckpointReader.html" target="_top" xlink:title="Interface du service de lecture d&#39;une protection/reprise.">
<polygon fill="white" stroke="transparent" points="669.5,-1023.5 518.5,-1023.5 518.5,-839.5 669.5,-839.5 669.5,-1023.5"/>
<text text-anchor="start" x="528" y="-1011.5" font-family="Helvetica,sans-Serif" font-size="10.00">Arcane::ICheckpointReader</text>
<text text-anchor="start" x="592.5" y="-996.5" font-family="Helvetica,sans-Serif" font-size="10.00"> </text>
<text text-anchor="start" x="523" y="-981.5" font-family="Helvetica,sans-Serif" font-size="10.00">+</text>
<text text-anchor="start" x="536" y="-981.5" font-family="Helvetica,sans-Serif" font-size="10.00">~ICheckpointReader()</text>
<text text-anchor="start" x="523" y="-966.5" font-family="Helvetica,sans-Serif" font-size="10.00">+</text>
<text text-anchor="start" x="536" y="-966.5" font-family="Helvetica,sans-Serif" font-size="10.00">dataReader()</text>
<text text-anchor="start" x="523" y="-951.5" font-family="Helvetica,sans-Serif" font-size="10.00">+</text>
<text text-anchor="start" x="536" y="-951.5" font-family="Helvetica,sans-Serif" font-size="10.00">notifyBeginRead()</text>
<text text-anchor="start" x="523" y="-936.5" font-family="Helvetica,sans-Serif" font-size="10.00">+</text>
<text text-anchor="start" x="536" y="-936.5" font-family="Helvetica,sans-Serif" font-size="10.00">notifyEndRead()</text>
<text text-anchor="start" x="523" y="-921.5" font-family="Helvetica,sans-Serif" font-size="10.00">+</text>
<text text-anchor="start" x="536" y="-921.5" font-family="Helvetica,sans-Serif" font-size="10.00">setFileName()</text>
<text text-anchor="start" x="523" y="-906.5" font-family="Helvetica,sans-Serif" font-size="10.00">+</text>
<text text-anchor="start" x="536" y="-906.5" font-family="Helvetica,sans-Serif" font-size="10.00">fileName()</text>
<text text-anchor="start" x="523" y="-891.5" font-family="Helvetica,sans-Serif" font-size="10.00">+</text>
<text text-anchor="start" x="536" y="-891.5" font-family="Helvetica,sans-Serif" font-size="10.00">setBaseDirectoryName()</text>
<text text-anchor="start" x="523" y="-876.5" font-family="Helvetica,sans-Serif" font-size="10.00">+</text>
<text text-anchor="start" x="536" y="-876.5" font-family="Helvetica,sans-Serif" font-size="10.00">baseDirectoryName()</text>
<text text-anchor="start" x="523" y="-861.5" font-family="Helvetica,sans-Serif" font-size="10.00">+</text>
<text text-anchor="start" x="536" y="-861.5" font-family="Helvetica,sans-Serif" font-size="10.00">setReaderMetaData()</text>
<text text-anchor="start" x="523" y="-846.5" font-family="Helvetica,sans-Serif" font-size="10.00">+</text>
<text text-anchor="start" x="536" y="-846.5" font-family="Helvetica,sans-Serif" font-size="10.00">setCurrentTimeAndIndex()</text>
<polygon fill="#666666" stroke="#666666" points="519,-1006.5 519,-1006.5 670,-1006.5 670,-1006.5 519,-1006.5"/>
<polygon fill="#666666" stroke="#666666" points="519,-991.5 519,-991.5 670,-991.5 670,-991.5 519,-991.5"/>
<polygon fill="none" stroke="#666666" points="518.5,-839.5 518.5,-1023.5 669.5,-1023.5 669.5,-839.5 518.5,-839.5"/>
</a>
</g>
</g>
<!-- Node10&#45;&gt;Node2 -->
<g id="edge9_Node000002_Node000010" class="edge">
<title>Node10&#45;&gt;Node2</title>
<g id="a_edge9_Node000002_Node000010"><a xlink:title=" ">
<path fill="none" stroke="#63b8ff" d="M538.98,-830.3C527.97,-810.24 516.21,-788.83 504.64,-767.75"/>
<polygon fill="none" stroke="#63b8ff" points="535.94,-832.04 543.82,-839.12 542.08,-828.67 535.94,-832.04"/>
</a>
</g>
</g>
</g>
</svg>
