<?xml version="1.0" encoding="UTF-8" standalone="no"?>
<!DOCTYPE svg PUBLIC "-//W3C//DTD SVG 1.1//EN"
 "http://www.w3.org/Graphics/SVG/1.1/DTD/svg11.dtd">
<!-- Generated by graphviz version 2.43.0 (0)
 -->
<!-- Title: Arcane::IParallelMng::allGatherVariable Pages: 1 -->
<!--zoomable 434 -->

<svg id="main" version="1.1" xmlns="http://www.w3.org/2000/svg" xmlns:xlink="http://www.w3.org/1999/xlink" xml:space="preserve" onload="init(evt)">

<style type="text/css"><![CDATA[
.node, .edge {opacity: 0.7;}
.node.selected, .edge.selected {opacity: 1;}
.edge:hover path { stroke: red; }
.edge:hover polygon { stroke: red; fill: red; }
]]></style>

<defs>
  <circle id="rim" cx="0" cy="0" r="7"/>
  <circle id="rim2" cx="0" cy="0" r="3.5"/>
  <g id="zoomPlus">
    <use xlink:href="#rim" fill="#404040"><set attributeName="fill" to="#808080" begin="zoomplus.mouseover" end="zoomplus.mouseout"/></use>
    <path d="M-4,0h8M0,-4v8" fill="none" stroke="white" stroke-width="1.5" pointer-events="none"/>
  </g>
  <g id="zoomMin">
    <use xlink:href="#rim" fill="#404040"><set attributeName="fill" to="#808080" begin="zoomminus.mouseover" end="zoomminus.mouseout"/></use>
    <path d="M-4,0h8" fill="none" stroke="white" stroke-width="1.5" pointer-events="none"/>
  </g>
  <g id="arrowUp" transform="translate(30 24)">
    <use xlink:href="#rim"/>
    <path pointer-events="none" fill="none" stroke="white" stroke-width="1.5" d="M0,-3.0v7 M-2.5,-0.5L0,-3.0L2.5,-0.5"/>
  </g>
  <g id="arrowRight" transform="rotate(90) translate(36 -43)">
    <use xlink:href="#rim"/>
    <path pointer-events="none" fill="none" stroke="white" stroke-width="1.5" d="M0,-3.0v7 M-2.5,-0.5L0,-3.0L2.5,-0.5"/>
  </g>
  <g id="arrowDown" transform="rotate(180) translate(-30 -48)">
    <use xlink:href="#rim"/>
    <path pointer-events="none" fill="none" stroke="white" stroke-width="1.5" d="M0,-3.0v7 M-2.5,-0.5L0,-3.0L2.5,-0.5"/>
  </g>
  <g id="arrowLeft" transform="rotate(270) translate(-36 17)">
    <use xlink:href="#rim"/>
    <path pointer-events="none" fill="none" stroke="white" stroke-width="1.5" d="M0,-3.0v7 M-2.5,-0.5L0,-3.0L2.5,-0.5"/>
  </g>
  <g id="resetDef">
    <use xlink:href="#rim2" fill="#404040"><set attributeName="fill" to="#808080" begin="reset.mouseover" end="reset.mouseout"/></use>
  </g>
</defs>
<script type="application/ecmascript">
var viewWidth = 570;
var viewHeight = 434;
var sectionId = 'dynsection-7';
</script>
<script type="application/ecmascript" xlink:href="../../svg.min.js"/>
<svg id="graph" class="graph">
<g id="viewport">
<title>Arcane::IParallelMng::allGatherVariable</title>
<!-- Node1 -->
<g id="Node000001" class="node">
<title>Node1</title>
<g id="a_Node000001"><a xlink:title="Effectue un regroupement sur tous les processeurs.">
<polygon fill="#999999" stroke="#666666" points="562,-222 446,-222 446,-192 562,-192 562,-222"/>
<text text-anchor="start" x="454" y="-210" font-family="Helvetica,sans-Serif" font-size="10.00">Arcane::IParallelMng</text>
<text text-anchor="middle" x="504" y="-199" font-family="Helvetica,sans-Serif" font-size="10.00">::allGatherVariable</text>
</a>
</g>
</g>
<!-- Node1&#45;&gt;Node1 -->
<g id="edge6_Node000001_Node000001" class="edge">
<title>Node1&#45;&gt;Node1</title>
<g id="a_edge6_Node000001_Node000001"><a xlink:title=" ">
<path fill="none" stroke="#63b8ff" d="M537.26,-232.6C532.71,-236.97 521.63,-240 504,-240 474.31,-240 463.18,-231.41 470.6,-222.28"/>
<polygon fill="#63b8ff" stroke="#63b8ff" points="540.76,-232.32 537.4,-222.28 533.76,-232.23 540.76,-232.32"/>
</a>
</g>
</g>
<!-- Node2 -->
<g id="Node000002" class="node">
<title>Node2</title>
<g id="a_Node000002"><a xlink:href="../../dd/d49/classArcane_1_1mesh_1_1FaceUniqueIdBuilder.html#abe1b38534432e2a01c1fb6fca4b4e227" target="_top" xlink:title="Calcul les numéros uniques de chaque face en parallèle.">
<polygon fill="white" stroke="#666666" points="400,-425.5 224,-425.5 224,-384.5 400,-384.5 400,-425.5"/>
<text text-anchor="start" x="232" y="-413.5" font-family="Helvetica,sans-Serif" font-size="10.00">Arcane::mesh::FaceUnique</text>
<text text-anchor="start" x="232" y="-402.5" font-family="Helvetica,sans-Serif" font-size="10.00">IdBuilder::_computeFacesUnique</text>
<text text-anchor="middle" x="312" y="-391.5" font-family="Helvetica,sans-Serif" font-size="10.00">IdsParallelV1</text>
</a>
</g>
</g>
<!-- Node1&#45;&gt;Node2 -->
<g id="edge1_Node000001_Node000002" class="edge">
<title>Node1&#45;&gt;Node2</title>
<g id="a_edge1_Node000001_Node000002"><a xlink:title=" ">
<path fill="none" stroke="#63b8ff" d="M495.81,-231.94C483.96,-268.62 456.85,-336.91 410,-375 405.62,-378.56 400.82,-381.7 395.78,-384.46"/>
<polygon fill="#63b8ff" stroke="#63b8ff" points="499.26,-232.64 498.88,-222.05 492.57,-230.57 499.26,-232.64"/>
</a>
</g>
</g>
<!-- Node3 -->
<g id="Node000003" class="node">
<title>Node3</title>
<g id="a_Node000003"><a xlink:href="../../df/de9/classArcane_1_1Hdf5VariableReaderHelper2.html#a3777c937772b1abf337786ae86c05ffa" target="_top" xlink:title="Recherche à quel entité du maillage sauvegardé correspondant une entité du maillage actuel.">
<polygon fill="white" stroke="#666666" points="400,-366 224,-366 224,-336 400,-336 400,-366"/>
<text text-anchor="start" x="232" y="-354" font-family="Helvetica,sans-Serif" font-size="10.00">Arcane::Hdf5VariableReader</text>
<text text-anchor="middle" x="312" y="-343" font-family="Helvetica,sans-Serif" font-size="10.00">Helper2::_createCorrespondance</text>
</a>
</g>
</g>
<!-- Node1&#45;&gt;Node3 -->
<g id="edge2_Node000001_Node000003" class="edge">
<title>Node1&#45;&gt;Node3</title>
<g id="a_edge2_Node000001_Node000003"><a xlink:title=" ">
<path fill="none" stroke="#63b8ff" d="M490.79,-231.14C475.62,-258.62 447.15,-302.82 410,-327 404.77,-330.41 399.09,-333.33 393.19,-335.84"/>
<polygon fill="#63b8ff" stroke="#63b8ff" points="493.95,-232.65 495.59,-222.18 487.78,-229.34 493.95,-232.65"/>
</a>
</g>
</g>
<!-- Node4 -->
<g id="Node000004" class="node">
<title>Node4</title>
<g id="a_Node000004"><a xlink:href="../../d7/d03/classArcane_1_1CartesianMeshAMRPatchMng.html#abd399bf1c3b30a43e4bc1b68a09fc97a" target="_top" xlink:title="Méthode permettant d&#39;obtenir les propriétaires et les flags des mailles autour des mailles de patch_c...">
<polygon fill="white" stroke="#666666" points="410,-318 214,-318 214,-288 410,-288 410,-318"/>
<text text-anchor="start" x="222" y="-306" font-family="Helvetica,sans-Serif" font-size="10.00">Arcane::CartesianMeshAMRPatch</text>
<text text-anchor="middle" x="312" y="-295" font-family="Helvetica,sans-Serif" font-size="10.00">Mng::_shareInfosOfCellsAroundPatch</text>
</a>
</g>
</g>
<!-- Node1&#45;&gt;Node4 -->
<g id="edge3_Node000001_Node000004" class="edge">
<title>Node1&#45;&gt;Node4</title>
<g id="a_edge3_Node000001_Node000004"><a xlink:title=" ">
<path fill="none" stroke="#63b8ff" d="M480.03,-229.24C462.25,-245.28 436.3,-266.27 410,-279 402.89,-282.44 395.25,-285.41 387.48,-287.98"/>
<polygon fill="#63b8ff" stroke="#63b8ff" points="482.62,-231.61 487.6,-222.26 477.87,-226.47 482.62,-231.61"/>
</a>
</g>
</g>
<!-- Node7 -->
<g id="Node000007" class="node">
<title>Node7</title>
<g id="a_Node000007"><a xlink:href="../../d8/d0f/classArcane_1_1mesh_1_1ItemFamily.html#ad7e247f71ece2468e96ad22388136eea" target="_top" xlink:title="Vérifie que les identifiants unique_ids sont bien uniques pour tous les sous&#45;domaines.">
<polygon fill="white" stroke="#666666" points="384,-270 240,-270 240,-240 384,-240 384,-270"/>
<text text-anchor="start" x="248" y="-258" font-family="Helvetica,sans-Serif" font-size="10.00">Arcane::mesh::ItemFamily</text>
<text text-anchor="middle" x="312" y="-247" font-family="Helvetica,sans-Serif" font-size="10.00">::checkUniqueIds</text>
</a>
</g>
</g>
<!-- Node1&#45;&gt;Node7 -->
<g id="edge7_Node000001_Node000007" class="edge">
<title>Node1&#45;&gt;Node7</title>
<g id="a_edge7_Node000001_Node000007"><a xlink:title=" ">
<path fill="none" stroke="#63b8ff" d="M436.12,-224.34C427.34,-226.6 418.46,-228.86 410,-231 398.39,-233.93 386,-237.03 374.08,-239.99"/>
<polygon fill="#63b8ff" stroke="#63b8ff" points="437.16,-227.69 445.97,-221.81 435.41,-220.91 437.16,-227.69"/>
</a>
</g>
</g>
<!-- Node8 -->
<g id="Node000008" class="node">
<title>Node8</title>
<g id="a_Node000008"><a xlink:href="../../dc/de8/MeshUtils_8h.html#a94149358cfe8d428f0579626a3aaa153" target="_top" xlink:title="Vérifie le hash des uniqueId() des entités d&#39;une famille.">
<polygon fill="white" stroke="#666666" points="395.5,-222 228.5,-222 228.5,-192 395.5,-192 395.5,-222"/>
<text text-anchor="start" x="236.5" y="-210" font-family="Helvetica,sans-Serif" font-size="10.00">Arcane::MeshUtils::</text>
<text text-anchor="middle" x="312" y="-199" font-family="Helvetica,sans-Serif" font-size="10.00">checkUniqueIdsHashCollective</text>
</a>
</g>
</g>
<!-- Node1&#45;&gt;Node8 -->
<g id="edge8_Node000001_Node000008" class="edge">
<title>Node1&#45;&gt;Node8</title>
<g id="a_edge8_Node000001_Node000008"><a xlink:title=" ">
<path fill="none" stroke="#63b8ff" d="M435.76,-207C422.77,-207 409.02,-207 395.6,-207"/>
<polygon fill="#63b8ff" stroke="#63b8ff" points="435.99,-210.5 445.99,-207 435.99,-203.5 435.99,-210.5"/>
</a>
</g>
</g>
<!-- Node9 -->
<g id="Node000009" class="node">
<title>Node9</title>
<g id="a_Node000009"><a xlink:href="../../d3/dcc/classArcane_1_1BasicRayMeshIntersection.html#ad732ab39d177f29c70523684bcb7287e" target="_top" xlink:title="Calcule l&#39;intersection de rayons.">
<polygon fill="white" stroke="#666666" points="404.5,-174 219.5,-174 219.5,-144 404.5,-144 404.5,-174"/>
<text text-anchor="start" x="227.5" y="-162" font-family="Helvetica,sans-Serif" font-size="10.00">Arcane::BasicRayMeshIntersection</text>
<text text-anchor="middle" x="312" y="-151" font-family="Helvetica,sans-Serif" font-size="10.00">::compute</text>
</a>
</g>
</g>
<!-- Node1&#45;&gt;Node9 -->
<g id="edge9_Node000001_Node000009" class="edge">
<title>Node1&#45;&gt;Node9</title>
<g id="a_edge9_Node000001_Node000009"><a xlink:title=" ">
<path fill="none" stroke="#63b8ff" d="M436.12,-189.66C427.34,-187.4 418.46,-185.14 410,-183 398.39,-180.07 386,-176.97 374.08,-174.01"/>
<polygon fill="#63b8ff" stroke="#63b8ff" points="435.41,-193.09 445.97,-192.19 437.16,-186.31 435.41,-193.09"/>
</a>
</g>
</g>
<!-- Node10 -->
<g id="Node000010" class="node">
<title>Node10</title>
<g id="a_Node000010"><a xlink:href="../../da/dd4/classArcane_1_1UnstructuredMeshUtilities.html#a0c87c6f179c7c6c137551a9bc3654990" target="_top" xlink:title="Calcule la normale d&#39;un groupe de face.">
<polygon fill="white" stroke="#666666" points="385,-126 239,-126 239,-96 385,-96 385,-126"/>
<text text-anchor="start" x="247" y="-114" font-family="Helvetica,sans-Serif" font-size="10.00">Arcane::UnstructuredMesh</text>
<text text-anchor="middle" x="312" y="-103" font-family="Helvetica,sans-Serif" font-size="10.00">Utilities::computeNormal</text>
</a>
</g>
</g>
<!-- Node1&#45;&gt;Node10 -->
<g id="edge10_Node000001_Node000010" class="edge">
<title>Node1&#45;&gt;Node10</title>
<g id="a_edge10_Node000001_Node000010"><a xlink:title=" ">
<path fill="none" stroke="#63b8ff" d="M480.03,-184.76C462.25,-168.72 436.3,-147.73 410,-135 402.19,-131.22 393.73,-128 385.18,-125.27"/>
<polygon fill="#63b8ff" stroke="#63b8ff" points="477.87,-187.53 487.6,-191.74 482.62,-182.39 477.87,-187.53"/>
</a>
</g>
</g>
<!-- Node11 -->
<g id="Node000011" class="node">
<title>Node11</title>
<g id="a_Node000011"><a xlink:href="../../d7/d03/classArcane_1_1CartesianMeshAMRPatchMng.html#aa0a62d1e4829267c9fb8f5635a396289" target="_top" xlink:title="Méthode permettant de déraffiner les mailles de niveau 0.">
<polygon fill="white" stroke="#666666" points="401,-78 223,-78 223,-48 401,-48 401,-78"/>
<text text-anchor="start" x="231" y="-66" font-family="Helvetica,sans-Serif" font-size="10.00">Arcane::CartesianMeshAMRPatch</text>
<text text-anchor="middle" x="312" y="-55" font-family="Helvetica,sans-Serif" font-size="10.00">Mng::createSubLevel</text>
</a>
</g>
</g>
<!-- Node1&#45;&gt;Node11 -->
<g id="edge11_Node000001_Node000011" class="edge">
<title>Node1&#45;&gt;Node11</title>
<g id="a_edge11_Node000001_Node000011"><a xlink:title=" ">
<path fill="none" stroke="#63b8ff" d="M490.79,-182.86C475.62,-155.38 447.15,-111.18 410,-87 404.77,-83.59 399.09,-80.67 393.19,-78.16"/>
<polygon fill="#63b8ff" stroke="#63b8ff" points="487.78,-184.66 495.59,-191.82 493.95,-181.35 487.78,-184.66"/>
</a>
</g>
</g>
<!-- Node12 -->
<g id="Node000012" class="node">
<title>Node12</title>
<g id="a_Node000012"><a xlink:href="../../d5/dbb/classArcane_1_1TransferValuesParallelOperation.html#a3d094a111254be95bbf5e545af079129" target="_top" xlink:title="Envoie et réceptionne les valeurs.">
<polygon fill="white" stroke="#666666" points="394,-30 230,-30 230,0 394,0 394,-30"/>
<text text-anchor="start" x="238" y="-18" font-family="Helvetica,sans-Serif" font-size="10.00">Arcane::TransferValuesParallel</text>
<text text-anchor="middle" x="312" y="-7" font-family="Helvetica,sans-Serif" font-size="10.00">Operation::transferValues</text>
</a>
</g>
</g>
<!-- Node1&#45;&gt;Node12 -->
<g id="edge12_Node000001_Node000012" class="edge">
<title>Node1&#45;&gt;Node12</title>
<g id="a_edge12_Node000001_Node000012"><a xlink:title=" ">
<path fill="none" stroke="#63b8ff" d="M496.17,-182C484.72,-144.93 458.05,-75.82 410,-39 405.18,-35.31 399.87,-32.17 394.28,-29.52"/>
<polygon fill="#63b8ff" stroke="#63b8ff" points="492.93,-183.38 499.12,-191.97 499.64,-181.39 492.93,-183.38"/>
</a>
</g>
</g>
<!-- Node5 -->
<g id="Node000005" class="node">
<title>Node5</title>
<g id="a_Node000005"><a xlink:href="../../d7/d03/classArcane_1_1CartesianMeshAMRPatchMng.html#ab71423fcbf45daca1ccca75a88e5b368" target="_top" xlink:title="Méthode permettant de retirer les mailles marquées avec le flag &quot;II_Coarsen&quot;.">
<polygon fill="white" stroke="#666666" points="178,-342 0,-342 0,-312 178,-312 178,-342"/>
<text text-anchor="start" x="8" y="-330" font-family="Helvetica,sans-Serif" font-size="10.00">Arcane::CartesianMeshAMRPatch</text>
<text text-anchor="middle" x="89" y="-319" font-family="Helvetica,sans-Serif" font-size="10.00">Mng::coarsen</text>
</a>
</g>
</g>
<!-- Node4&#45;&gt;Node5 -->
<g id="edge4_Node000004_Node000005" class="edge">
<title>Node4&#45;&gt;Node5</title>
<g id="a_edge4_Node000004_Node000005"><a xlink:title=" ">
<path fill="none" stroke="#63b8ff" d="M203.74,-314.65C195.2,-315.58 186.63,-316.51 178.24,-317.42"/>
<polygon fill="#63b8ff" stroke="#63b8ff" points="204.18,-318.12 213.74,-313.56 203.43,-311.16 204.18,-318.12"/>
</a>
</g>
</g>
<!-- Node6 -->
<g id="Node000006" class="node">
<title>Node6</title>
<g id="a_Node000006"><a xlink:href="../../d7/d03/classArcane_1_1CartesianMeshAMRPatchMng.html#a457acbacd8393db706c7014265a5ec70" target="_top" xlink:title="Méthode permettant de raffiner les mailles avec le flag &quot;II_Refine&quot;.">
<polygon fill="white" stroke="#666666" points="178,-294 0,-294 0,-264 178,-264 178,-294"/>
<text text-anchor="start" x="8" y="-282" font-family="Helvetica,sans-Serif" font-size="10.00">Arcane::CartesianMeshAMRPatch</text>
<text text-anchor="middle" x="89" y="-271" font-family="Helvetica,sans-Serif" font-size="10.00">Mng::refine</text>
</a>
</g>
</g>
<!-- Node4&#45;&gt;Node6 -->
<g id="edge5_Node000004_Node000006" class="edge">
<title>Node4&#45;&gt;Node6</title>
<g id="a_edge5_Node000004_Node000006"><a xlink:title=" ">
<path fill="none" stroke="#63b8ff" d="M203.74,-291.35C195.2,-290.42 186.63,-289.49 178.24,-288.58"/>
<polygon fill="#63b8ff" stroke="#63b8ff" points="203.43,-294.84 213.74,-292.44 204.18,-287.88 203.43,-294.84"/>
</a>
</g>
</g>
</g>
</svg>

<g id="navigator" transform="translate(0 0)" fill="#404254">
  <rect fill="#f2f5e9" fill-opacity="0.5" stroke="#606060" stroke-width=".5" x="0" y="0" width="60" height="60"/>
  <use id="zoomplus" xlink:href="#zoomPlus" x="17" y="9" onmousedown="handleZoom(evt,'in')"/>
  <use id="zoomminus" xlink:href="#zoomMin" x="42" y="9" onmousedown="handleZoom(evt,'out')"/>
  <use id="reset" xlink:href="#resetDef" x="30" y="36" onmousedown="handleReset()"/>
   <use id="arrowup" xlink:href="#arrowUp" x="0" y="0" onmousedown="handlePan(0,-1)"/>
  <use id="arrowright" xlink:href="#arrowRight" x="0" y="0" onmousedown="handlePan(1,0)"/>
  <use id="arrowdown" xlink:href="#arrowDown" x="0" y="0" onmousedown="handlePan(0,1)"/>
  <use id="arrowleft" xlink:href="#arrowLeft" x="0" y="0" onmousedown="handlePan(-1,0)"/>
</g>
<svg viewBox="0 0 15 15" width="100%" height="30px" preserveAspectRatio="xMaxYMin meet">
 <g id="arrow_out" transform="scale(0.3 0.3)">
  <a xlink:href="classArcane_1_1IParallelMng_a793d484b2359ad8f06958da66228024e_icgraph_org.svg" target="_base">
   <rect id="button" ry="5" rx="5" y="6" x="6" height="38" width="38"
        fill="#f2f5e9" fill-opacity="0.5" stroke="#606060" stroke-width="1.0"/>
   <path id="arrow"
     d="M 11.500037,31.436501 C 11.940474,20.09759 22.043105,11.32322 32.158766,21.979434 L 37.068811,17.246167 C 37.068811,17.246167 37.088388,32 37.088388,32 L 22.160133,31.978069 C 22.160133,31.978069 26.997745,27.140456 26.997745,27.140456 C 18.528582,18.264221 13.291696,25.230495 11.500037,31.436501 z"
     style="fill:#404040;"/>
  </a>
 </g>
</svg>

<style type='text/css'>
<![CDATA[
[data-mouse-over-selected='false'] { opacity: 0.7; }
[data-mouse-over-selected='true']  { opacity: 1.0; }
]]>
</style>
<script type="application/ecmascript"><![CDATA[
document.addEventListener('DOMContentLoaded', (event) => {
  highlightEdges();
  highlightAdjacentNodes();
});
]]></script>
</svg>
