<?xml version="1.0" encoding="UTF-8" standalone="no"?>
<!DOCTYPE svg PUBLIC "-//W3C//DTD SVG 1.1//EN"
 "http://www.w3.org/Graphics/SVG/1.1/DTD/svg11.dtd">
<!-- Generated by graphviz version 2.43.0 (0)
 -->
<!-- Title: Arcane::TBBTaskImplementation::Impl Pages: 1 -->
<svg width="305pt" height="400pt"
 viewBox="0.00 0.00 305.00 400.00" xmlns="http://www.w3.org/2000/svg" xmlns:xlink="http://www.w3.org/1999/xlink">
<g id="graph0" class="graph" transform="scale(1 1) rotate(0) translate(4 396)">
<title>Arcane::TBBTaskImplementation::Impl</title>
<!-- Node1 -->
<g id="Node000001" class="node">
<title>Node1</title>
<g id="a_Node000001"><a xlink:title=" ">
<polygon fill="#999999" stroke="transparent" points="170,-392 0,-392 0,-137 170,-137 170,-392"/>
<text text-anchor="start" x="5" y="-379.5" font-family="Helvetica,sans-Serif" font-size="10.00">Arcane::TBBTaskImplementation</text>
<text text-anchor="start" x="71" y="-368.5" font-family="Helvetica,sans-Serif" font-size="10.00">::Impl</text>
<text text-anchor="start" x="7" y="-353.5" font-family="Helvetica,sans-Serif" font-size="10.00">+</text>
<text text-anchor="start" x="23" y="-353.5" font-family="Helvetica,sans-Serif" font-size="10.00">m_main_arena</text>
<text text-anchor="start" x="7" y="-338.5" font-family="Helvetica,sans-Serif" font-size="10.00">+</text>
<text text-anchor="start" x="23" y="-338.5" font-family="Helvetica,sans-Serif" font-size="10.00">m_sub_arena_list</text>
<text text-anchor="start" x="9.5" y="-323.5" font-family="Helvetica,sans-Serif" font-size="10.00">&#45;</text>
<text text-anchor="start" x="23" y="-323.5" font-family="Helvetica,sans-Serif" font-size="10.00">m_nb_allowed_thread</text>
<text text-anchor="start" x="9.5" y="-308.5" font-family="Helvetica,sans-Serif" font-size="10.00">&#45;</text>
<text text-anchor="start" x="23" y="-308.5" font-family="Helvetica,sans-Serif" font-size="10.00">m_task_scheduler_handle</text>
<text text-anchor="start" x="9.5" y="-293.5" font-family="Helvetica,sans-Serif" font-size="10.00">&#45;</text>
<text text-anchor="start" x="23" y="-293.5" font-family="Helvetica,sans-Serif" font-size="10.00">m_thread_created_mutex</text>
<text text-anchor="start" x="9.5" y="-278.5" font-family="Helvetica,sans-Serif" font-size="10.00">&#45;</text>
<text text-anchor="start" x="23" y="-278.5" font-family="Helvetica,sans-Serif" font-size="10.00">m_thread_task_infos</text>
<text text-anchor="start" x="9.5" y="-263.5" font-family="Helvetica,sans-Serif" font-size="10.00">&#45;</text>
<text text-anchor="start" x="23" y="-263.5" font-family="Helvetica,sans-Serif" font-size="10.00">m_constructed_thread_map</text>
<text text-anchor="start" x="7" y="-248.5" font-family="Helvetica,sans-Serif" font-size="10.00">+</text>
<text text-anchor="start" x="23" y="-248.5" font-family="Helvetica,sans-Serif" font-size="10.00">Impl()</text>
<text text-anchor="start" x="7" y="-233.5" font-family="Helvetica,sans-Serif" font-size="10.00">+</text>
<text text-anchor="start" x="23" y="-233.5" font-family="Helvetica,sans-Serif" font-size="10.00">Impl()</text>
<text text-anchor="start" x="7" y="-218.5" font-family="Helvetica,sans-Serif" font-size="10.00">+</text>
<text text-anchor="start" x="23" y="-218.5" font-family="Helvetica,sans-Serif" font-size="10.00">nbAllowedThread()</text>
<text text-anchor="start" x="7" y="-203.5" font-family="Helvetica,sans-Serif" font-size="10.00">+</text>
<text text-anchor="start" x="23" y="-203.5" font-family="Helvetica,sans-Serif" font-size="10.00">threadTaskInfo()</text>
<text text-anchor="start" x="7" y="-188.5" font-family="Helvetica,sans-Serif" font-size="10.00">+</text>
<text text-anchor="start" x="23" y="-188.5" font-family="Helvetica,sans-Serif" font-size="10.00">terminate()</text>
<text text-anchor="start" x="7" y="-173.5" font-family="Helvetica,sans-Serif" font-size="10.00">+</text>
<text text-anchor="start" x="23" y="-173.5" font-family="Helvetica,sans-Serif" font-size="10.00">notifyThreadCreated()</text>
<text text-anchor="start" x="7" y="-158.5" font-family="Helvetica,sans-Serif" font-size="10.00">+</text>
<text text-anchor="start" x="23" y="-158.5" font-family="Helvetica,sans-Serif" font-size="10.00">notifyThreadDestroyed()</text>
<text text-anchor="start" x="9.5" y="-143.5" font-family="Helvetica,sans-Serif" font-size="10.00">&#45;</text>
<text text-anchor="start" x="23" y="-143.5" font-family="Helvetica,sans-Serif" font-size="10.00">_init()</text>
<polygon fill="#666666" stroke="#666666" points="0,-363.5 0,-363.5 170,-363.5 170,-363.5 0,-363.5"/>
<polygon fill="#666666" stroke="#666666" points="0,-258.5 0,-258.5 21,-258.5 21,-258.5 0,-258.5"/>
<polygon fill="#666666" stroke="#666666" points="21,-258.5 21,-258.5 170,-258.5 170,-258.5 21,-258.5"/>
<polygon fill="none" stroke="#666666" points="0,-137 0,-392 170,-392 170,-137 0,-137"/>
</a>
</g>
</g>
<!-- Node2 -->
<g id="Node000002" class="node">
<title>Node2</title>
<g id="a_Node000002"><a xlink:href="../../d1/d7e/classArcane_1_1TBBTaskImplementation_1_1Impl_1_1TaskObserver.html" target="_top" xlink:title=" ">
<polygon fill="white" stroke="transparent" points="223,-90 53,-90 53,0 223,0 223,-90"/>
<text text-anchor="start" x="58" y="-78" font-family="Helvetica,sans-Serif" font-size="10.00">Arcane::TBBTaskImplementation</text>
<text text-anchor="start" x="88" y="-67" font-family="Helvetica,sans-Serif" font-size="10.00">::Impl::TaskObserver</text>
<text text-anchor="start" x="136" y="-52" font-family="Helvetica,sans-Serif" font-size="10.00"> </text>
<text text-anchor="start" x="68.5" y="-37" font-family="Helvetica,sans-Serif" font-size="10.00">+</text>
<text text-anchor="start" x="93" y="-37" font-family="Helvetica,sans-Serif" font-size="10.00">TaskObserver()</text>
<text text-anchor="start" x="68.5" y="-22" font-family="Helvetica,sans-Serif" font-size="10.00">+</text>
<text text-anchor="start" x="93" y="-22" font-family="Helvetica,sans-Serif" font-size="10.00">on_scheduler_entry()</text>
<text text-anchor="start" x="68.5" y="-7" font-family="Helvetica,sans-Serif" font-size="10.00">+</text>
<text text-anchor="start" x="93" y="-7" font-family="Helvetica,sans-Serif" font-size="10.00">on_scheduler_exit()</text>
<polygon fill="#bfbfbf" stroke="#bfbfbf" points="53,-62 53,-62 223,-62 223,-62 53,-62"/>
<polygon fill="#bfbfbf" stroke="#bfbfbf" points="53,-47 53,-47 223,-47 223,-47 53,-47"/>
<polygon fill="none" stroke="#bfbfbf" points="53,0 53,-90 223,-90 223,0 53,0"/>
</a>
</g>
</g>
<!-- Node1&#45;&gt;Node2 -->
<g id="edge3_Node000002_Node000001" class="edge">
<title>Node1&#45;&gt;Node2</title>
<g id="a_edge3_Node000002_Node000001"><a xlink:title=" ">
<path fill="none" stroke="#63b8ff" d="M75.4,-136.9C77.04,-126.96 79.5,-117.21 83,-108 83.95,-105.49 85.06,-103.01 86.3,-100.58"/>
<polygon fill="none" stroke="#63b8ff" points="86.31,-100.55 85.93,-93.35 92.43,-90.22 92.81,-97.42 86.31,-100.55"/>
</a>
</g>
<text text-anchor="middle" x="99.5" y="-111" font-family="Helvetica,sans-Serif" font-size="10.00" fill="grey"> +m_p</text>
</g>
<!-- Node2&#45;&gt;Node1 -->
<g id="edge1_Node000001_Node000002" class="edge">
<title>Node2&#45;&gt;Node1</title>
<g id="a_edge1_Node000001_Node000002"><a xlink:title=" ">
<path fill="none" stroke="#63b8ff" d="M127.18,-90.4C124.62,-100.92 121.75,-112.69 118.75,-125.02"/>
<polygon fill="none" stroke="#63b8ff" points="118.67,-125.32 121.14,-132.1 115.83,-136.98 113.36,-130.2 118.67,-125.32"/>
</a>
</g>
<text text-anchor="middle" x="167.5" y="-111" font-family="Helvetica,sans-Serif" font-size="10.00" fill="grey"> &#45;m_task_observer</text>
</g>
<!-- Node3 -->
<g id="Node000003" class="node">
<title>Node3</title>
<g id="a_Node000003"><a xlink:title=" ">
<polygon fill="white" stroke="transparent" points="297,-294.5 191,-294.5 191,-234.5 297,-234.5 297,-294.5"/>
<text text-anchor="start" x="196" y="-282.5" font-family="Helvetica,sans-Serif" font-size="10.00">tbb::task_scheduler</text>
<text text-anchor="start" x="219.5" y="-271.5" font-family="Helvetica,sans-Serif" font-size="10.00">_observer</text>
<text text-anchor="start" x="242" y="-256.5" font-family="Helvetica,sans-Serif" font-size="10.00"> </text>
<text text-anchor="start" x="242" y="-241.5" font-family="Helvetica,sans-Serif" font-size="10.00"> </text>
<polygon fill="#bfbfbf" stroke="#bfbfbf" points="191,-266.5 191,-266.5 297,-266.5 297,-266.5 191,-266.5"/>
<polygon fill="#bfbfbf" stroke="#bfbfbf" points="191,-251.5 191,-251.5 297,-251.5 297,-251.5 191,-251.5"/>
<polygon fill="none" stroke="#bfbfbf" points="191,-234.5 191,-294.5 297,-294.5 297,-234.5 191,-234.5"/>
</a>
</g>
</g>
<!-- Node3&#45;&gt;Node2 -->
<g id="edge2_Node000002_Node000003" class="edge">
<title>Node3&#45;&gt;Node2</title>
<g id="a_edge2_Node000002_Node000003"><a xlink:title=" ">
<path fill="none" stroke="#63b8ff" d="M244.8,-224.2C243.78,-191.04 238.18,-143.44 217,-108 213.24,-101.71 208.59,-95.82 203.44,-90.36"/>
<polygon fill="none" stroke="#63b8ff" points="241.31,-224.49 244.99,-234.43 248.31,-224.37 241.31,-224.49"/>
</a>
</g>
</g>
</g>
</svg>
