<?xml version="1.0" encoding="UTF-8" standalone="no"?>
<!DOCTYPE svg PUBLIC "-//W3C//DTD SVG 1.1//EN"
 "http://www.w3.org/Graphics/SVG/1.1/DTD/svg11.dtd">
<!-- Generated by graphviz version 2.43.0 (0)
 -->
<!-- Title: Arcane::CartesianMeshNumberingMngInternal Pages: 1 -->
<!--zoomable 700 -->

<svg id="main" version="1.1" xmlns="http://www.w3.org/2000/svg" xmlns:xlink="http://www.w3.org/1999/xlink" xml:space="preserve" onload="init(evt)">

<style type="text/css"><![CDATA[
.node, .edge {opacity: 0.7;}
.node.selected, .edge.selected {opacity: 1;}
.edge:hover path { stroke: red; }
.edge:hover polygon { stroke: red; fill: red; }
]]></style>

<defs>
  <circle id="rim" cx="0" cy="0" r="7"/>
  <circle id="rim2" cx="0" cy="0" r="3.5"/>
  <g id="zoomPlus">
    <use xlink:href="#rim" fill="#404040"><set attributeName="fill" to="#808080" begin="zoomplus.mouseover" end="zoomplus.mouseout"/></use>
    <path d="M-4,0h8M0,-4v8" fill="none" stroke="white" stroke-width="1.5" pointer-events="none"/>
  </g>
  <g id="zoomMin">
    <use xlink:href="#rim" fill="#404040"><set attributeName="fill" to="#808080" begin="zoomminus.mouseover" end="zoomminus.mouseout"/></use>
    <path d="M-4,0h8" fill="none" stroke="white" stroke-width="1.5" pointer-events="none"/>
  </g>
  <g id="arrowUp" transform="translate(30 24)">
    <use xlink:href="#rim"/>
    <path pointer-events="none" fill="none" stroke="white" stroke-width="1.5" d="M0,-3.0v7 M-2.5,-0.5L0,-3.0L2.5,-0.5"/>
  </g>
  <g id="arrowRight" transform="rotate(90) translate(36 -43)">
    <use xlink:href="#rim"/>
    <path pointer-events="none" fill="none" stroke="white" stroke-width="1.5" d="M0,-3.0v7 M-2.5,-0.5L0,-3.0L2.5,-0.5"/>
  </g>
  <g id="arrowDown" transform="rotate(180) translate(-30 -48)">
    <use xlink:href="#rim"/>
    <path pointer-events="none" fill="none" stroke="white" stroke-width="1.5" d="M0,-3.0v7 M-2.5,-0.5L0,-3.0L2.5,-0.5"/>
  </g>
  <g id="arrowLeft" transform="rotate(270) translate(-36 17)">
    <use xlink:href="#rim"/>
    <path pointer-events="none" fill="none" stroke="white" stroke-width="1.5" d="M0,-3.0v7 M-2.5,-0.5L0,-3.0L2.5,-0.5"/>
  </g>
  <g id="resetDef">
    <use xlink:href="#rim2" fill="#404040"><set attributeName="fill" to="#808080" begin="reset.mouseover" end="reset.mouseout"/></use>
  </g>
</defs>
<script type="application/ecmascript">
var viewWidth = 346;
var viewHeight = 700;
var sectionId = 'dynsection-0';
</script>
<script type="application/ecmascript" xlink:href="../../svg.min.js"/>
<svg id="graph" class="graph">
<g id="viewport">
<title>Arcane::CartesianMeshNumberingMngInternal</title>
<!-- Node1 -->
<g id="Node000001" class="node">
<title>Node1</title>
<g id="a_Node000001"><a xlink:title=" ">
<polygon fill="#999999" stroke="transparent" points="247.5,-412 70.5,-412 70.5,0 247.5,0 247.5,-412"/>
<text text-anchor="start" x="76" y="-400" font-family="Helvetica,sans-Serif" font-size="10.00">Arcane::CartesianMeshNumbering</text>
<text text-anchor="start" x="130" y="-389" font-family="Helvetica,sans-Serif" font-size="10.00">MngInternal</text>
<text text-anchor="start" x="78" y="-374" font-family="Helvetica,sans-Serif" font-size="10.00">&#45;</text>
<text text-anchor="start" x="89" y="-374" font-family="Helvetica,sans-Serif" font-size="10.00">m_mesh</text>
<text text-anchor="start" x="78" y="-359" font-family="Helvetica,sans-Serif" font-size="10.00">&#45;</text>
<text text-anchor="start" x="89" y="-359" font-family="Helvetica,sans-Serif" font-size="10.00">m_properties</text>
<text text-anchor="start" x="78" y="-344" font-family="Helvetica,sans-Serif" font-size="10.00">&#45;</text>
<text text-anchor="start" x="89" y="-344" font-family="Helvetica,sans-Serif" font-size="10.00">m_dimension</text>
<text text-anchor="start" x="78" y="-329" font-family="Helvetica,sans-Serif" font-size="10.00">&#45;</text>
<text text-anchor="start" x="89" y="-329" font-family="Helvetica,sans-Serif" font-size="10.00">m_pattern</text>
<text text-anchor="start" x="78" y="-314" font-family="Helvetica,sans-Serif" font-size="10.00">&#45;</text>
<text text-anchor="start" x="89" y="-314" font-family="Helvetica,sans-Serif" font-size="10.00">m_p_to_l_level</text>
<text text-anchor="start" x="78" y="-299" font-family="Helvetica,sans-Serif" font-size="10.00">&#45;</text>
<text text-anchor="start" x="89" y="-299" font-family="Helvetica,sans-Serif" font-size="10.00">m_max_level</text>
<text text-anchor="start" x="78" y="-284" font-family="Helvetica,sans-Serif" font-size="10.00">&#45;</text>
<text text-anchor="start" x="89" y="-284" font-family="Helvetica,sans-Serif" font-size="10.00">m_min_level</text>
<text text-anchor="start" x="78" y="-269" font-family="Helvetica,sans-Serif" font-size="10.00">&#45;</text>
<text text-anchor="start" x="89" y="-269" font-family="Helvetica,sans-Serif" font-size="10.00">m_latest_cell_uid</text>
<text text-anchor="start" x="78" y="-254" font-family="Helvetica,sans-Serif" font-size="10.00">&#45;</text>
<text text-anchor="start" x="89" y="-254" font-family="Helvetica,sans-Serif" font-size="10.00">m_first_cell_uid_level</text>
<text text-anchor="start" x="78" y="-239" font-family="Helvetica,sans-Serif" font-size="10.00">&#45;</text>
<text text-anchor="start" x="89" y="-239" font-family="Helvetica,sans-Serif" font-size="10.00">m_latest_node_uid</text>
<text text-anchor="start" x="89" y="-224" font-family="Helvetica,sans-Serif" font-size="10.00">et 8 de plus...</text>
<text text-anchor="start" x="75.5" y="-209" font-family="Helvetica,sans-Serif" font-size="10.00">+</text>
<text text-anchor="start" x="89" y="-209" font-family="Helvetica,sans-Serif" font-size="10.00">CartesianMeshNumberingMng</text>
<text text-anchor="start" x="89" y="-198" font-family="Helvetica,sans-Serif" font-size="10.00">Internal()</text>
<text text-anchor="start" x="75.5" y="-183" font-family="Helvetica,sans-Serif" font-size="10.00">+</text>
<text text-anchor="start" x="89" y="-183" font-family="Helvetica,sans-Serif" font-size="10.00">build()</text>
<text text-anchor="start" x="75.5" y="-168" font-family="Helvetica,sans-Serif" font-size="10.00">+</text>
<text text-anchor="start" x="89" y="-168" font-family="Helvetica,sans-Serif" font-size="10.00">saveInfosInProperties()</text>
<text text-anchor="start" x="75.5" y="-153" font-family="Helvetica,sans-Serif" font-size="10.00">+</text>
<text text-anchor="start" x="89" y="-153" font-family="Helvetica,sans-Serif" font-size="10.00">recreateFromDump()</text>
<text text-anchor="start" x="75.5" y="-138" font-family="Helvetica,sans-Serif" font-size="10.00">+</text>
<text text-anchor="start" x="89" y="-138" font-family="Helvetica,sans-Serif" font-size="10.00">renumberingFacesLevel0From</text>
<text text-anchor="start" x="89" y="-127" font-family="Helvetica,sans-Serif" font-size="10.00">OriginalArcaneNumbering()</text>
<text text-anchor="start" x="75.5" y="-112" font-family="Helvetica,sans-Serif" font-size="10.00">+</text>
<text text-anchor="start" x="89" y="-112" font-family="Helvetica,sans-Serif" font-size="10.00">printStatus()</text>
<text text-anchor="start" x="75.5" y="-97" font-family="Helvetica,sans-Serif" font-size="10.00">+</text>
<text text-anchor="start" x="89" y="-97" font-family="Helvetica,sans-Serif" font-size="10.00">prepareLevel()</text>
<text text-anchor="start" x="75.5" y="-82" font-family="Helvetica,sans-Serif" font-size="10.00">+</text>
<text text-anchor="start" x="89" y="-82" font-family="Helvetica,sans-Serif" font-size="10.00">updateFirstLevel()</text>
<text text-anchor="start" x="75.5" y="-67" font-family="Helvetica,sans-Serif" font-size="10.00">+</text>
<text text-anchor="start" x="89" y="-67" font-family="Helvetica,sans-Serif" font-size="10.00">firstCellUniqueId()</text>
<text text-anchor="start" x="75.5" y="-52" font-family="Helvetica,sans-Serif" font-size="10.00">+</text>
<text text-anchor="start" x="89" y="-52" font-family="Helvetica,sans-Serif" font-size="10.00">firstNodeUniqueId()</text>
<text text-anchor="start" x="89" y="-37" font-family="Helvetica,sans-Serif" font-size="10.00">et 84 de plus...</text>
<text text-anchor="start" x="78" y="-22" font-family="Helvetica,sans-Serif" font-size="10.00">&#45;</text>
<text text-anchor="start" x="89" y="-22" font-family="Helvetica,sans-Serif" font-size="10.00">_face3DNumberingThreeParts()</text>
<text text-anchor="start" x="78" y="-7" font-family="Helvetica,sans-Serif" font-size="10.00">&#45;</text>
<text text-anchor="start" x="89" y="-7" font-family="Helvetica,sans-Serif" font-size="10.00">_pushFront()</text>
<polygon fill="#666666" stroke="#666666" points="71,-384 71,-384 248,-384 248,-384 71,-384"/>
<polygon fill="#666666" stroke="#666666" points="71,-219 71,-219 87,-219 87,-219 71,-219"/>
<polygon fill="#666666" stroke="#666666" points="87,-219 87,-219 248,-219 248,-219 87,-219"/>
<polygon fill="none" stroke="#666666" points="70.5,0 70.5,-412 247.5,-412 247.5,0 70.5,0"/>
</a>
</g>
</g>
<!-- Node2 -->
<g id="Node000002" class="node">
<title>Node2</title>
<g id="a_Node000002"><a xlink:href="../../d1/d17/classArcane_1_1TraceAccessor.html" target="_top" xlink:title="Classe d&#39;accès aux traces.">
<polygon fill="white" stroke="transparent" points="140,-692 0,-692 0,-448 140,-448 140,-692"/>
<text text-anchor="start" x="15.5" y="-680" font-family="Helvetica,sans-Serif" font-size="10.00">Arcane::TraceAccessor</text>
<text text-anchor="start" x="6.5" y="-665" font-family="Helvetica,sans-Serif" font-size="10.00">&#45;</text>
<text text-anchor="start" x="17" y="-665" font-family="Helvetica,sans-Serif" font-size="10.00">m_trace</text>
<text text-anchor="start" x="6.5" y="-650" font-family="Helvetica,sans-Serif" font-size="10.00">&#45;</text>
<text text-anchor="start" x="17" y="-650" font-family="Helvetica,sans-Serif" font-size="10.00">m_local_verbose_level</text>
<text text-anchor="start" x="4" y="-635" font-family="Helvetica,sans-Serif" font-size="10.00">+</text>
<text text-anchor="start" x="17" y="-635" font-family="Helvetica,sans-Serif" font-size="10.00">TraceAccessor()</text>
<text text-anchor="start" x="4" y="-620" font-family="Helvetica,sans-Serif" font-size="10.00">+</text>
<text text-anchor="start" x="17" y="-620" font-family="Helvetica,sans-Serif" font-size="10.00">TraceAccessor()</text>
<text text-anchor="start" x="4" y="-605" font-family="Helvetica,sans-Serif" font-size="10.00">+</text>
<text text-anchor="start" x="17" y="-605" font-family="Helvetica,sans-Serif" font-size="10.00">operator=()</text>
<text text-anchor="start" x="4" y="-590" font-family="Helvetica,sans-Serif" font-size="10.00">+</text>
<text text-anchor="start" x="17" y="-590" font-family="Helvetica,sans-Serif" font-size="10.00">~TraceAccessor()</text>
<text text-anchor="start" x="4" y="-575" font-family="Helvetica,sans-Serif" font-size="10.00">+</text>
<text text-anchor="start" x="17" y="-575" font-family="Helvetica,sans-Serif" font-size="10.00">traceMng()</text>
<text text-anchor="start" x="4" y="-560" font-family="Helvetica,sans-Serif" font-size="10.00">+</text>
<text text-anchor="start" x="17" y="-560" font-family="Helvetica,sans-Serif" font-size="10.00">info()</text>
<text text-anchor="start" x="4" y="-545" font-family="Helvetica,sans-Serif" font-size="10.00">+</text>
<text text-anchor="start" x="17" y="-545" font-family="Helvetica,sans-Serif" font-size="10.00">pinfo()</text>
<text text-anchor="start" x="4" y="-530" font-family="Helvetica,sans-Serif" font-size="10.00">+</text>
<text text-anchor="start" x="17" y="-530" font-family="Helvetica,sans-Serif" font-size="10.00">info()</text>
<text text-anchor="start" x="4" y="-515" font-family="Helvetica,sans-Serif" font-size="10.00">+</text>
<text text-anchor="start" x="17" y="-515" font-family="Helvetica,sans-Serif" font-size="10.00">pinfo()</text>
<text text-anchor="start" x="4" y="-500" font-family="Helvetica,sans-Serif" font-size="10.00">+</text>
<text text-anchor="start" x="17" y="-500" font-family="Helvetica,sans-Serif" font-size="10.00">info()</text>
<text text-anchor="start" x="17" y="-485" font-family="Helvetica,sans-Serif" font-size="10.00">et 15 de plus...</text>
<text text-anchor="start" x="4" y="-470" font-family="Helvetica,sans-Serif" font-size="10.00">#</text>
<text text-anchor="start" x="17" y="-470" font-family="Helvetica,sans-Serif" font-size="10.00">_setLocalVerboseLevel()</text>
<text text-anchor="start" x="4" y="-455" font-family="Helvetica,sans-Serif" font-size="10.00">#</text>
<text text-anchor="start" x="17" y="-455" font-family="Helvetica,sans-Serif" font-size="10.00">_localVerboseLevel()</text>
<polygon fill="#666666" stroke="#666666" points="0,-675 0,-675 140,-675 140,-675 0,-675"/>
<polygon fill="#666666" stroke="#666666" points="0,-645 0,-645 15,-645 15,-645 0,-645"/>
<polygon fill="#666666" stroke="#666666" points="15,-645 15,-645 140,-645 140,-645 15,-645"/>
<polygon fill="none" stroke="#666666" points="0,-448 0,-692 140,-692 140,-448 0,-448"/>
</a>
</g>
</g>
<!-- Node2&#45;&gt;Node1 -->
<g id="edge1_Node000001_Node000002" class="edge">
<title>Node2&#45;&gt;Node1</title>
<g id="a_edge1_Node000001_Node000002"><a xlink:title=" ">
<path fill="none" stroke="#63b8ff" d="M102.19,-438.07C104.27,-429.59 106.4,-420.95 108.54,-412.23"/>
<polygon fill="none" stroke="#63b8ff" points="98.75,-437.41 99.76,-447.96 105.55,-439.08 98.75,-437.41"/>
</a>
</g>
</g>
<!-- Node3 -->
<g id="Node000003" class="node">
<title>Node3</title>
<g id="a_Node000003"><a xlink:href="../../d3/dd9/classArcane_1_1ICartesianMeshNumberingMngInternal.html" target="_top" xlink:title="Interface de gestionnaire de numérotation pour maillage cartesian.">
<polygon fill="white" stroke="transparent" points="338,-686 158,-686 158,-454 338,-454 338,-686"/>
<text text-anchor="start" x="163" y="-674" font-family="Helvetica,sans-Serif" font-size="10.00">Arcane::ICartesianMeshNumbering</text>
<text text-anchor="start" x="218.5" y="-663" font-family="Helvetica,sans-Serif" font-size="10.00">MngInternal</text>
<text text-anchor="start" x="246" y="-648" font-family="Helvetica,sans-Serif" font-size="10.00"> </text>
<text text-anchor="start" x="165" y="-633" font-family="Helvetica,sans-Serif" font-size="10.00">+</text>
<text text-anchor="start" x="181" y="-633" font-family="Helvetica,sans-Serif" font-size="10.00">~ICartesianMeshNumbering</text>
<text text-anchor="start" x="181" y="-622" font-family="Helvetica,sans-Serif" font-size="10.00">MngInternal()</text>
<text text-anchor="start" x="165" y="-607" font-family="Helvetica,sans-Serif" font-size="10.00">+</text>
<text text-anchor="start" x="181" y="-607" font-family="Helvetica,sans-Serif" font-size="10.00">build()</text>
<text text-anchor="start" x="165" y="-592" font-family="Helvetica,sans-Serif" font-size="10.00">+</text>
<text text-anchor="start" x="181" y="-592" font-family="Helvetica,sans-Serif" font-size="10.00">saveInfosInProperties()</text>
<text text-anchor="start" x="165" y="-577" font-family="Helvetica,sans-Serif" font-size="10.00">+</text>
<text text-anchor="start" x="181" y="-577" font-family="Helvetica,sans-Serif" font-size="10.00">recreateFromDump()</text>
<text text-anchor="start" x="165" y="-562" font-family="Helvetica,sans-Serif" font-size="10.00">+</text>
<text text-anchor="start" x="181" y="-562" font-family="Helvetica,sans-Serif" font-size="10.00">renumberingFacesLevel0From</text>
<text text-anchor="start" x="181" y="-551" font-family="Helvetica,sans-Serif" font-size="10.00">OriginalArcaneNumbering()</text>
<text text-anchor="start" x="165" y="-536" font-family="Helvetica,sans-Serif" font-size="10.00">+</text>
<text text-anchor="start" x="181" y="-536" font-family="Helvetica,sans-Serif" font-size="10.00">printStatus()</text>
<text text-anchor="start" x="165" y="-521" font-family="Helvetica,sans-Serif" font-size="10.00">+</text>
<text text-anchor="start" x="181" y="-521" font-family="Helvetica,sans-Serif" font-size="10.00">prepareLevel()</text>
<text text-anchor="start" x="165" y="-506" font-family="Helvetica,sans-Serif" font-size="10.00">+</text>
<text text-anchor="start" x="181" y="-506" font-family="Helvetica,sans-Serif" font-size="10.00">updateFirstLevel()</text>
<text text-anchor="start" x="165" y="-491" font-family="Helvetica,sans-Serif" font-size="10.00">+</text>
<text text-anchor="start" x="181" y="-491" font-family="Helvetica,sans-Serif" font-size="10.00">firstCellUniqueId()</text>
<text text-anchor="start" x="165" y="-476" font-family="Helvetica,sans-Serif" font-size="10.00">+</text>
<text text-anchor="start" x="181" y="-476" font-family="Helvetica,sans-Serif" font-size="10.00">firstNodeUniqueId()</text>
<text text-anchor="start" x="181" y="-461" font-family="Helvetica,sans-Serif" font-size="10.00">et 84 de plus...</text>
<polygon fill="#666666" stroke="#666666" points="158,-658 158,-658 338,-658 338,-658 158,-658"/>
<polygon fill="#666666" stroke="#666666" points="158,-643 158,-643 338,-643 338,-643 158,-643"/>
<polygon fill="none" stroke="#666666" points="158,-454 158,-686 338,-686 338,-454 158,-454"/>
</a>
</g>
</g>
<!-- Node3&#45;&gt;Node1 -->
<g id="edge2_Node000001_Node000003" class="edge">
<title>Node3&#45;&gt;Node1</title>
<g id="a_edge2_Node000001_Node000003"><a xlink:title=" ">
<path fill="none" stroke="#63b8ff" d="M217.29,-444.09C214.74,-433.7 212.12,-423.04 209.47,-412.26"/>
<polygon fill="none" stroke="#63b8ff" points="213.93,-445.09 219.72,-453.96 220.73,-443.42 213.93,-445.09"/>
</a>
</g>
</g>
</g>
</svg>

<g id="navigator" transform="translate(0 0)" fill="#404254">
  <rect fill="#f2f5e9" fill-opacity="0.5" stroke="#606060" stroke-width=".5" x="0" y="0" width="60" height="60"/>
  <use id="zoomplus" xlink:href="#zoomPlus" x="17" y="9" onmousedown="handleZoom(evt,'in')"/>
  <use id="zoomminus" xlink:href="#zoomMin" x="42" y="9" onmousedown="handleZoom(evt,'out')"/>
  <use id="reset" xlink:href="#resetDef" x="30" y="36" onmousedown="handleReset()"/>
   <use id="arrowup" xlink:href="#arrowUp" x="0" y="0" onmousedown="handlePan(0,-1)"/>
  <use id="arrowright" xlink:href="#arrowRight" x="0" y="0" onmousedown="handlePan(1,0)"/>
  <use id="arrowdown" xlink:href="#arrowDown" x="0" y="0" onmousedown="handlePan(0,1)"/>
  <use id="arrowleft" xlink:href="#arrowLeft" x="0" y="0" onmousedown="handlePan(-1,0)"/>
</g>
<svg viewBox="0 0 15 15" width="100%" height="30px" preserveAspectRatio="xMaxYMin meet">
 <g id="arrow_out" transform="scale(0.3 0.3)">
  <a xlink:href="classArcane_1_1CartesianMeshNumberingMngInternal__inherit__graph_org.svg" target="_base">
   <rect id="button" ry="5" rx="5" y="6" x="6" height="38" width="38"
        fill="#f2f5e9" fill-opacity="0.5" stroke="#606060" stroke-width="1.0"/>
   <path id="arrow"
     d="M 11.500037,31.436501 C 11.940474,20.09759 22.043105,11.32322 32.158766,21.979434 L 37.068811,17.246167 C 37.068811,17.246167 37.088388,32 37.088388,32 L 22.160133,31.978069 C 22.160133,31.978069 26.997745,27.140456 26.997745,27.140456 C 18.528582,18.264221 13.291696,25.230495 11.500037,31.436501 z"
     style="fill:#404040;"/>
  </a>
 </g>
</svg>

<style type='text/css'>
<![CDATA[
[data-mouse-over-selected='false'] { opacity: 0.7; }
[data-mouse-over-selected='true']  { opacity: 1.0; }
]]>
</style>
<script type="application/ecmascript"><![CDATA[
document.addEventListener('DOMContentLoaded', (event) => {
  highlightEdges();
  highlightAdjacentNodes();
});
]]></script>
</svg>
