<?xml version="1.0" encoding="UTF-8" standalone="no"?>
<!DOCTYPE svg PUBLIC "-//W3C//DTD SVG 1.1//EN"
 "http://www.w3.org/Graphics/SVG/1.1/DTD/svg11.dtd">
<!-- Generated by graphviz version 2.43.0 (0)
 -->
<!-- Title: Arcane::IDataCompressor Pages: 1 -->
<svg width="507pt" height="307pt"
 viewBox="0.00 0.00 506.50 307.00" xmlns="http://www.w3.org/2000/svg" xmlns:xlink="http://www.w3.org/1999/xlink">
<g id="graph0" class="graph" transform="scale(1 1) rotate(0) translate(4 303)">
<title>Arcane::IDataCompressor</title>
<!-- Node1 -->
<g id="Node000001" class="node">
<title>Node1</title>
<g id="a_Node000001"><a xlink:title="Interface d&#39;un service permettant de compresser/décompresser des données.">
<polygon fill="#999999" stroke="transparent" points="319,-299 184,-299 184,-175 319,-175 319,-299"/>
<text text-anchor="start" x="189.5" y="-287" font-family="Helvetica,sans-Serif" font-size="10.00">Arcane::IDataCompressor</text>
<text text-anchor="start" x="250" y="-272" font-family="Helvetica,sans-Serif" font-size="10.00"> </text>
<text text-anchor="start" x="191.5" y="-257" font-family="Helvetica,sans-Serif" font-size="10.00">+</text>
<text text-anchor="start" x="207.5" y="-257" font-family="Helvetica,sans-Serif" font-size="10.00">~IDataCompressor()</text>
<text text-anchor="start" x="191.5" y="-242" font-family="Helvetica,sans-Serif" font-size="10.00">+</text>
<text text-anchor="start" x="207.5" y="-242" font-family="Helvetica,sans-Serif" font-size="10.00">build()</text>
<text text-anchor="start" x="191.5" y="-227" font-family="Helvetica,sans-Serif" font-size="10.00">+</text>
<text text-anchor="start" x="207.5" y="-227" font-family="Helvetica,sans-Serif" font-size="10.00">name()</text>
<text text-anchor="start" x="191.5" y="-212" font-family="Helvetica,sans-Serif" font-size="10.00">+</text>
<text text-anchor="start" x="207.5" y="-212" font-family="Helvetica,sans-Serif" font-size="10.00">minCompressSize()</text>
<text text-anchor="start" x="191.5" y="-197" font-family="Helvetica,sans-Serif" font-size="10.00">+</text>
<text text-anchor="start" x="207.5" y="-197" font-family="Helvetica,sans-Serif" font-size="10.00">compress()</text>
<text text-anchor="start" x="191.5" y="-182" font-family="Helvetica,sans-Serif" font-size="10.00">+</text>
<text text-anchor="start" x="207.5" y="-182" font-family="Helvetica,sans-Serif" font-size="10.00">decompress()</text>
<polygon fill="#666666" stroke="#666666" points="184.5,-282 184.5,-282 319.5,-282 319.5,-282 184.5,-282"/>
<polygon fill="#666666" stroke="#666666" points="184.5,-267 184.5,-267 319.5,-267 319.5,-267 184.5,-267"/>
<polygon fill="none" stroke="#666666" points="184,-175 184,-299 319,-299 319,-175 184,-175"/>
</a>
</g>
</g>
<!-- Node2 -->
<g id="Node000002" class="node">
<title>Node2</title>
<g id="a_Node000002"><a xlink:href="../../d1/df1/classArcane_1_1Bzip2DataCompressor.html" target="_top" xlink:title="Service de compression utilisant la bibliothèque &#39;Bzip2&#39;.">
<polygon fill="white" stroke="transparent" points="159,-139 0,-139 0,0 159,0 159,-139"/>
<text text-anchor="start" x="5.5" y="-126.5" font-family="Helvetica,sans-Serif" font-size="10.00">Arcane::Bzip2DataCompressor</text>
<text text-anchor="start" x="12" y="-111.5" font-family="Helvetica,sans-Serif" font-size="10.00">&#45;</text>
<text text-anchor="start" x="27.5" y="-111.5" font-family="Helvetica,sans-Serif" font-size="10.00">m_name</text>
<text text-anchor="start" x="9.5" y="-96.5" font-family="Helvetica,sans-Serif" font-size="10.00">+</text>
<text text-anchor="start" x="27.5" y="-96.5" font-family="Helvetica,sans-Serif" font-size="10.00">Bzip2DataCompressor()</text>
<text text-anchor="start" x="9.5" y="-81.5" font-family="Helvetica,sans-Serif" font-size="10.00">+</text>
<text text-anchor="start" x="27.5" y="-81.5" font-family="Helvetica,sans-Serif" font-size="10.00">build()</text>
<text text-anchor="start" x="9.5" y="-66.5" font-family="Helvetica,sans-Serif" font-size="10.00">+</text>
<text text-anchor="start" x="27.5" y="-66.5" font-family="Helvetica,sans-Serif" font-size="10.00">name()</text>
<text text-anchor="start" x="9.5" y="-51.5" font-family="Helvetica,sans-Serif" font-size="10.00">+</text>
<text text-anchor="start" x="27.5" y="-51.5" font-family="Helvetica,sans-Serif" font-size="10.00">minCompressSize()</text>
<text text-anchor="start" x="9.5" y="-36.5" font-family="Helvetica,sans-Serif" font-size="10.00">+</text>
<text text-anchor="start" x="27.5" y="-36.5" font-family="Helvetica,sans-Serif" font-size="10.00">compress()</text>
<text text-anchor="start" x="9.5" y="-21.5" font-family="Helvetica,sans-Serif" font-size="10.00">+</text>
<text text-anchor="start" x="27.5" y="-21.5" font-family="Helvetica,sans-Serif" font-size="10.00">decompress()</text>
<text text-anchor="start" x="12" y="-6.5" font-family="Helvetica,sans-Serif" font-size="10.00">&#45;</text>
<text text-anchor="start" x="27.5" y="-6.5" font-family="Helvetica,sans-Serif" font-size="10.00">_toUInt()</text>
<polygon fill="#666666" stroke="#666666" points="0.5,-121.5 0.5,-121.5 159.5,-121.5 159.5,-121.5 0.5,-121.5"/>
<polygon fill="#666666" stroke="#666666" points="0.5,-106.5 0.5,-106.5 25.5,-106.5 25.5,-106.5 0.5,-106.5"/>
<polygon fill="#666666" stroke="#666666" points="25.5,-106.5 25.5,-106.5 159.5,-106.5 159.5,-106.5 25.5,-106.5"/>
<polygon fill="none" stroke="#666666" points="0,0 0,-139 159,-139 159,0 0,0"/>
</a>
</g>
</g>
<!-- Node1&#45;&gt;Node2 -->
<g id="edge1_Node000001_Node000002" class="edge">
<title>Node1&#45;&gt;Node2</title>
<g id="a_edge1_Node000001_Node000002"><a xlink:title=" ">
<path fill="none" stroke="#63b8ff" d="M180.52,-167.71C170.75,-158.3 160.7,-148.63 150.91,-139.21"/>
<polygon fill="none" stroke="#63b8ff" points="178.31,-170.43 187.94,-174.84 183.16,-165.39 178.31,-170.43"/>
</a>
</g>
</g>
<!-- Node3 -->
<g id="Node000003" class="node">
<title>Node3</title>
<g id="a_Node000003"><a xlink:href="../../df/d52/classArcane_1_1LZ4DataCompressor.html" target="_top" xlink:title="Service de compression utilisant la bibliothèque &#39;LZ4&#39;.">
<polygon fill="white" stroke="transparent" points="326.5,-139 176.5,-139 176.5,0 326.5,0 326.5,-139"/>
<text text-anchor="start" x="181.5" y="-126.5" font-family="Helvetica,sans-Serif" font-size="10.00">Arcane::LZ4DataCompressor</text>
<text text-anchor="start" x="188" y="-111.5" font-family="Helvetica,sans-Serif" font-size="10.00">&#45;</text>
<text text-anchor="start" x="203.5" y="-111.5" font-family="Helvetica,sans-Serif" font-size="10.00">m_name</text>
<text text-anchor="start" x="185.5" y="-96.5" font-family="Helvetica,sans-Serif" font-size="10.00">+</text>
<text text-anchor="start" x="203.5" y="-96.5" font-family="Helvetica,sans-Serif" font-size="10.00">LZ4DataCompressor()</text>
<text text-anchor="start" x="185.5" y="-81.5" font-family="Helvetica,sans-Serif" font-size="10.00">+</text>
<text text-anchor="start" x="203.5" y="-81.5" font-family="Helvetica,sans-Serif" font-size="10.00">build()</text>
<text text-anchor="start" x="185.5" y="-66.5" font-family="Helvetica,sans-Serif" font-size="10.00">+</text>
<text text-anchor="start" x="203.5" y="-66.5" font-family="Helvetica,sans-Serif" font-size="10.00">name()</text>
<text text-anchor="start" x="185.5" y="-51.5" font-family="Helvetica,sans-Serif" font-size="10.00">+</text>
<text text-anchor="start" x="203.5" y="-51.5" font-family="Helvetica,sans-Serif" font-size="10.00">minCompressSize()</text>
<text text-anchor="start" x="185.5" y="-36.5" font-family="Helvetica,sans-Serif" font-size="10.00">+</text>
<text text-anchor="start" x="203.5" y="-36.5" font-family="Helvetica,sans-Serif" font-size="10.00">compress()</text>
<text text-anchor="start" x="185.5" y="-21.5" font-family="Helvetica,sans-Serif" font-size="10.00">+</text>
<text text-anchor="start" x="203.5" y="-21.5" font-family="Helvetica,sans-Serif" font-size="10.00">decompress()</text>
<text text-anchor="start" x="188" y="-6.5" font-family="Helvetica,sans-Serif" font-size="10.00">&#45;</text>
<text text-anchor="start" x="203.5" y="-6.5" font-family="Helvetica,sans-Serif" font-size="10.00">_toInt()</text>
<polygon fill="#666666" stroke="#666666" points="176.5,-121.5 176.5,-121.5 326.5,-121.5 326.5,-121.5 176.5,-121.5"/>
<polygon fill="#666666" stroke="#666666" points="176.5,-106.5 176.5,-106.5 201.5,-106.5 201.5,-106.5 176.5,-106.5"/>
<polygon fill="#666666" stroke="#666666" points="201.5,-106.5 201.5,-106.5 326.5,-106.5 326.5,-106.5 201.5,-106.5"/>
<polygon fill="none" stroke="#666666" points="176.5,0 176.5,-139 326.5,-139 326.5,0 176.5,0"/>
</a>
</g>
</g>
<!-- Node1&#45;&gt;Node3 -->
<g id="edge2_Node000001_Node000003" class="edge">
<title>Node1&#45;&gt;Node3</title>
<g id="a_edge2_Node000001_Node000003"><a xlink:title=" ">
<path fill="none" stroke="#63b8ff" d="M251.5,-164.65C251.5,-156.22 251.5,-147.62 251.5,-139.21"/>
<polygon fill="none" stroke="#63b8ff" points="248,-164.84 251.5,-174.84 255,-164.84 248,-164.84"/>
</a>
</g>
</g>
<!-- Node4 -->
<g id="Node000004" class="node">
<title>Node4</title>
<g id="a_Node000004"><a xlink:href="../../d5/d49/classArcane_1_1ZstdDataCompressor.html" target="_top" xlink:title="Service de compression utilisant la bibliothèque &#39;zstd&#39;.">
<polygon fill="white" stroke="transparent" points="498.5,-131.5 344.5,-131.5 344.5,-7.5 498.5,-7.5 498.5,-131.5"/>
<text text-anchor="start" x="349.5" y="-119.5" font-family="Helvetica,sans-Serif" font-size="10.00">Arcane::ZstdDataCompressor</text>
<text text-anchor="start" x="356" y="-104.5" font-family="Helvetica,sans-Serif" font-size="10.00">&#45;</text>
<text text-anchor="start" x="371.5" y="-104.5" font-family="Helvetica,sans-Serif" font-size="10.00">m_name</text>
<text text-anchor="start" x="353.5" y="-89.5" font-family="Helvetica,sans-Serif" font-size="10.00">+</text>
<text text-anchor="start" x="371.5" y="-89.5" font-family="Helvetica,sans-Serif" font-size="10.00">ZstdDataCompressor()</text>
<text text-anchor="start" x="353.5" y="-74.5" font-family="Helvetica,sans-Serif" font-size="10.00">+</text>
<text text-anchor="start" x="371.5" y="-74.5" font-family="Helvetica,sans-Serif" font-size="10.00">build()</text>
<text text-anchor="start" x="353.5" y="-59.5" font-family="Helvetica,sans-Serif" font-size="10.00">+</text>
<text text-anchor="start" x="371.5" y="-59.5" font-family="Helvetica,sans-Serif" font-size="10.00">name()</text>
<text text-anchor="start" x="353.5" y="-44.5" font-family="Helvetica,sans-Serif" font-size="10.00">+</text>
<text text-anchor="start" x="371.5" y="-44.5" font-family="Helvetica,sans-Serif" font-size="10.00">minCompressSize()</text>
<text text-anchor="start" x="353.5" y="-29.5" font-family="Helvetica,sans-Serif" font-size="10.00">+</text>
<text text-anchor="start" x="371.5" y="-29.5" font-family="Helvetica,sans-Serif" font-size="10.00">compress()</text>
<text text-anchor="start" x="353.5" y="-14.5" font-family="Helvetica,sans-Serif" font-size="10.00">+</text>
<text text-anchor="start" x="371.5" y="-14.5" font-family="Helvetica,sans-Serif" font-size="10.00">decompress()</text>
<polygon fill="#666666" stroke="#666666" points="344.5,-114.5 344.5,-114.5 498.5,-114.5 498.5,-114.5 344.5,-114.5"/>
<polygon fill="#666666" stroke="#666666" points="344.5,-99.5 344.5,-99.5 369.5,-99.5 369.5,-99.5 344.5,-99.5"/>
<polygon fill="#666666" stroke="#666666" points="369.5,-99.5 369.5,-99.5 498.5,-99.5 498.5,-99.5 369.5,-99.5"/>
<polygon fill="none" stroke="#666666" points="344.5,-7.5 344.5,-131.5 498.5,-131.5 498.5,-7.5 344.5,-7.5"/>
</a>
</g>
</g>
<!-- Node1&#45;&gt;Node4 -->
<g id="edge3_Node000001_Node000004" class="edge">
<title>Node1&#45;&gt;Node4</title>
<g id="a_edge3_Node000001_Node000004"><a xlink:title=" ">
<path fill="none" stroke="#63b8ff" d="M321.51,-167.85C333.82,-155.86 346.56,-143.46 358.66,-131.68"/>
<polygon fill="none" stroke="#63b8ff" points="319.04,-165.36 314.32,-174.84 323.93,-170.38 319.04,-165.36"/>
</a>
</g>
</g>
</g>
</svg>
