<?xml version="1.0" encoding="UTF-8" standalone="no"?>
<!DOCTYPE svg PUBLIC "-//W3C//DTD SVG 1.1//EN"
 "http://www.w3.org/Graphics/SVG/1.1/DTD/svg11.dtd">
<!-- Generated by graphviz version 2.43.0 (0)
 -->
<!-- Title: Arcane::Accelerator::HostIndexes&lt; IndexType_ &gt;::HostWorkItemIterator Pages: 1 -->
<svg width="147pt" height="109pt"
 viewBox="0.00 0.00 147.00 109.00" xmlns="http://www.w3.org/2000/svg" xmlns:xlink="http://www.w3.org/1999/xlink">
<g id="graph0" class="graph" transform="scale(1 1) rotate(0) translate(4 105)">
<title>Arcane::Accelerator::HostIndexes&lt; IndexType_ &gt;::HostWorkItemIterator</title>
<!-- Node1 -->
<g id="Node000001" class="node">
<title>Node1</title>
<g id="a_Node000001"><a xlink:title=" ">
<polygon fill="#999999" stroke="transparent" points="139,-101 0,-101 0,0 139,0 139,-101"/>
<text text-anchor="start" x="5.5" y="-88.5" font-family="Helvetica,sans-Serif" font-size="10.00">Arcane::Accelerator</text>
<text text-anchor="start" x="5.5" y="-77.5" font-family="Helvetica,sans-Serif" font-size="10.00">::HostIndexes&lt; IndexType</text>
<text text-anchor="start" x="5.5" y="-66.5" font-family="Helvetica,sans-Serif" font-size="10.00">_ &gt;::HostWorkItemIterator</text>
<text text-anchor="start" x="8" y="-51.5" font-family="Helvetica,sans-Serif" font-size="10.00">&#45;</text>
<text text-anchor="start" x="19.5" y="-51.5" font-family="Helvetica,sans-Serif" font-size="10.00">m_loop_index</text>
<text text-anchor="start" x="5.5" y="-36.5" font-family="Helvetica,sans-Serif" font-size="10.00">+</text>
<text text-anchor="start" x="19.5" y="-36.5" font-family="Helvetica,sans-Serif" font-size="10.00">HostWorkItemIterator()</text>
<text text-anchor="start" x="5.5" y="-21.5" font-family="Helvetica,sans-Serif" font-size="10.00">+</text>
<text text-anchor="start" x="19.5" y="-21.5" font-family="Helvetica,sans-Serif" font-size="10.00">operator*()</text>
<text text-anchor="start" x="5.5" y="-6.5" font-family="Helvetica,sans-Serif" font-size="10.00">+</text>
<text text-anchor="start" x="19.5" y="-6.5" font-family="Helvetica,sans-Serif" font-size="10.00">operator++()</text>
<polygon fill="#666666" stroke="#666666" points="0.5,-61.5 0.5,-61.5 139.5,-61.5 139.5,-61.5 0.5,-61.5"/>
<polygon fill="#666666" stroke="#666666" points="0.5,-46.5 0.5,-46.5 17.5,-46.5 17.5,-46.5 0.5,-46.5"/>
<polygon fill="#666666" stroke="#666666" points="17.5,-46.5 17.5,-46.5 139.5,-46.5 139.5,-46.5 17.5,-46.5"/>
<polygon fill="none" stroke="#666666" points="0,0 0,-101 139,-101 139,0 0,0"/>
</a>
</g>
</g>
</g>
</svg>
