<?xml version="1.0" encoding="UTF-8" standalone="no"?>
<!DOCTYPE svg PUBLIC "-//W3C//DTD SVG 1.1//EN"
 "http://www.w3.org/Graphics/SVG/1.1/DTD/svg11.dtd">
<!-- Generated by graphviz version 2.43.0 (0)
 -->
<!-- Title: Arcane::MpiParallelMng::createRequestListRef Pages: 1 -->
<svg width="560pt" height="38pt"
 viewBox="0.00 0.00 560.00 38.00" xmlns="http://www.w3.org/2000/svg" xmlns:xlink="http://www.w3.org/1999/xlink">
<g id="graph0" class="graph" transform="scale(1 1) rotate(0) translate(4 34)">
<title>Arcane::MpiParallelMng::createRequestListRef</title>
<!-- Node1 -->
<g id="Node000001" class="node">
<title>Node1</title>
<g id="a_Node000001"><a xlink:title="Créé une liste de requêtes pour ce gestionnaire.">
<polygon fill="#999999" stroke="#666666" points="131,-30 0,-30 0,0 131,0 131,-30"/>
<text text-anchor="start" x="8" y="-18" font-family="Helvetica,sans-Serif" font-size="10.00">Arcane::MpiParallelMng</text>
<text text-anchor="middle" x="65.5" y="-7" font-family="Helvetica,sans-Serif" font-size="10.00">::createRequestListRef</text>
</a>
</g>
</g>
<!-- Node2 -->
<g id="Node000002" class="node">
<title>Node2</title>
<g id="a_Node000002"><a xlink:href="../../d0/d32/namespaceArcane.html#a18bc12480b321836a11f8151fd87d6c7" target="_top" xlink:title="Créé une instance de type TrueType avec les arguments Args et retourne une référence dessus.">
<polygon fill="white" stroke="#666666" points="271,-24.5 167,-24.5 167,-5.5 271,-5.5 271,-24.5"/>
<text text-anchor="middle" x="219" y="-12.5" font-family="Helvetica,sans-Serif" font-size="10.00">Arcane::createRef</text>
</a>
</g>
</g>
<!-- Node1&#45;&gt;Node2 -->
<g id="edge1_Node000001_Node000002" class="edge">
<title>Node1&#45;&gt;Node2</title>
<g id="a_edge1_Node000001_Node000002"><a xlink:title=" ">
<path fill="none" stroke="#63b8ff" d="M131.19,-15C139.65,-15 148.3,-15 156.71,-15"/>
<polygon fill="#63b8ff" stroke="#63b8ff" points="156.8,-18.5 166.8,-15 156.8,-11.5 156.8,-18.5"/>
</a>
</g>
</g>
<!-- Node3 -->
<g id="Node000003" class="node">
<title>Node3</title>
<g id="a_Node000003"><a xlink:href="../../d0/d32/namespaceArcane.html#ab92dc7635f8e1ceb84728b8c45dba2b1" target="_top" xlink:title="Créé une référence sur un pointeur.">
<polygon fill="white" stroke="#666666" points="407,-24.5 307,-24.5 307,-5.5 407,-5.5 407,-24.5"/>
<text text-anchor="middle" x="357" y="-12.5" font-family="Helvetica,sans-Serif" font-size="10.00">Arcane::makeRef</text>
</a>
</g>
</g>
<!-- Node2&#45;&gt;Node3 -->
<g id="edge2_Node000002_Node000003" class="edge">
<title>Node2&#45;&gt;Node3</title>
<g id="a_edge2_Node000002_Node000003"><a xlink:title=" ">
<path fill="none" stroke="#63b8ff" d="M271.03,-15C279.48,-15 288.3,-15 296.93,-15"/>
<polygon fill="#63b8ff" stroke="#63b8ff" points="296.94,-18.5 306.94,-15 296.94,-11.5 296.94,-18.5"/>
</a>
</g>
</g>
<!-- Node4 -->
<g id="Node000004" class="node">
<title>Node4</title>
<g id="a_Node000004"><a xlink:href="../../d6/da9/classArcane_1_1Ref.html#ab0cd388abdc8d216d1534c5b0ef9cf83" target="_top" xlink:title="Créé une référence à partir de l&#39;instance t.">
<polygon fill="white" stroke="#666666" points="552,-24.5 443,-24.5 443,-5.5 552,-5.5 552,-24.5"/>
<text text-anchor="middle" x="497.5" y="-12.5" font-family="Helvetica,sans-Serif" font-size="10.00">Arcane::Ref::create</text>
</a>
</g>
</g>
<!-- Node3&#45;&gt;Node4 -->
<g id="edge3_Node000003_Node000004" class="edge">
<title>Node3&#45;&gt;Node4</title>
<g id="a_edge3_Node000003_Node000004"><a xlink:title=" ">
<path fill="none" stroke="#63b8ff" d="M407.22,-15C415.4,-15 423.99,-15 432.47,-15"/>
<polygon fill="#63b8ff" stroke="#63b8ff" points="432.74,-18.5 442.74,-15 432.74,-11.5 432.74,-18.5"/>
</a>
</g>
</g>
</g>
</svg>
