<?xml version="1.0" encoding="UTF-8" standalone="no"?>
<!DOCTYPE svg PUBLIC "-//W3C//DTD SVG 1.1//EN"
 "http://www.w3.org/Graphics/SVG/1.1/DTD/svg11.dtd">
<!-- Generated by graphviz version 2.43.0 (0)
 -->
<!-- Title: Arcane::UnstructuredMeshUtilities Pages: 1 -->
<!--zoomable 643 -->

<svg id="main" version="1.1" xmlns="http://www.w3.org/2000/svg" xmlns:xlink="http://www.w3.org/1999/xlink" xml:space="preserve" onload="init(evt)">

<style type="text/css"><![CDATA[
.node, .edge {opacity: 0.7;}
.node.selected, .edge.selected {opacity: 1;}
.edge:hover path { stroke: red; }
.edge:hover polygon { stroke: red; fill: red; }
]]></style>

<defs>
  <circle id="rim" cx="0" cy="0" r="7"/>
  <circle id="rim2" cx="0" cy="0" r="3.5"/>
  <g id="zoomPlus">
    <use xlink:href="#rim" fill="#404040"><set attributeName="fill" to="#808080" begin="zoomplus.mouseover" end="zoomplus.mouseout"/></use>
    <path d="M-4,0h8M0,-4v8" fill="none" stroke="white" stroke-width="1.5" pointer-events="none"/>
  </g>
  <g id="zoomMin">
    <use xlink:href="#rim" fill="#404040"><set attributeName="fill" to="#808080" begin="zoomminus.mouseover" end="zoomminus.mouseout"/></use>
    <path d="M-4,0h8" fill="none" stroke="white" stroke-width="1.5" pointer-events="none"/>
  </g>
  <g id="arrowUp" transform="translate(30 24)">
    <use xlink:href="#rim"/>
    <path pointer-events="none" fill="none" stroke="white" stroke-width="1.5" d="M0,-3.0v7 M-2.5,-0.5L0,-3.0L2.5,-0.5"/>
  </g>
  <g id="arrowRight" transform="rotate(90) translate(36 -43)">
    <use xlink:href="#rim"/>
    <path pointer-events="none" fill="none" stroke="white" stroke-width="1.5" d="M0,-3.0v7 M-2.5,-0.5L0,-3.0L2.5,-0.5"/>
  </g>
  <g id="arrowDown" transform="rotate(180) translate(-30 -48)">
    <use xlink:href="#rim"/>
    <path pointer-events="none" fill="none" stroke="white" stroke-width="1.5" d="M0,-3.0v7 M-2.5,-0.5L0,-3.0L2.5,-0.5"/>
  </g>
  <g id="arrowLeft" transform="rotate(270) translate(-36 17)">
    <use xlink:href="#rim"/>
    <path pointer-events="none" fill="none" stroke="white" stroke-width="1.5" d="M0,-3.0v7 M-2.5,-0.5L0,-3.0L2.5,-0.5"/>
  </g>
  <g id="resetDef">
    <use xlink:href="#rim2" fill="#404040"><set attributeName="fill" to="#808080" begin="reset.mouseover" end="reset.mouseout"/></use>
  </g>
</defs>
<script type="application/ecmascript">
var viewWidth = 360;
var viewHeight = 643;
var sectionId = 'dynsection-0';
</script>
<script type="application/ecmascript" xlink:href="../../svg.min.js"/>
<svg id="graph" class="graph">
<g id="viewport">
<title>Arcane::UnstructuredMeshUtilities</title>
<!-- Node1 -->
<g id="Node000001" class="node">
<title>Node1</title>
<g id="a_Node000001"><a xlink:title="Fonctions utilitaires sur un maillage.">
<polygon fill="#999999" stroke="transparent" points="258.5,-333 65.5,-333 65.5,0 258.5,0 258.5,-333"/>
<text text-anchor="start" x="97.5" y="-320.5" font-family="Helvetica,sans-Serif" font-size="10.00">Arcane::UnstructuredMesh</text>
<text text-anchor="start" x="143" y="-309.5" font-family="Helvetica,sans-Serif" font-size="10.00">Utilities</text>
<text text-anchor="start" x="72.5" y="-294.5" font-family="Helvetica,sans-Serif" font-size="10.00">&#45;</text>
<text text-anchor="start" x="83" y="-294.5" font-family="Helvetica,sans-Serif" font-size="10.00">m_mesh</text>
<text text-anchor="start" x="72.5" y="-279.5" font-family="Helvetica,sans-Serif" font-size="10.00">&#45;</text>
<text text-anchor="start" x="83" y="-279.5" font-family="Helvetica,sans-Serif" font-size="10.00">m_compute_adjacency</text>
<text text-anchor="start" x="83" y="-268.5" font-family="Helvetica,sans-Serif" font-size="10.00">_functor</text>
<text text-anchor="start" x="70" y="-253.5" font-family="Helvetica,sans-Serif" font-size="10.00">+</text>
<text text-anchor="start" x="83" y="-253.5" font-family="Helvetica,sans-Serif" font-size="10.00">UnstructuredMeshUtilities()</text>
<text text-anchor="start" x="70" y="-238.5" font-family="Helvetica,sans-Serif" font-size="10.00">+</text>
<text text-anchor="start" x="83" y="-238.5" font-family="Helvetica,sans-Serif" font-size="10.00">~UnstructuredMeshUtilities()</text>
<text text-anchor="start" x="70" y="-223.5" font-family="Helvetica,sans-Serif" font-size="10.00">+</text>
<text text-anchor="start" x="83" y="-223.5" font-family="Helvetica,sans-Serif" font-size="10.00">changeOwnersFromCells()</text>
<text text-anchor="start" x="70" y="-208.5" font-family="Helvetica,sans-Serif" font-size="10.00">+</text>
<text text-anchor="start" x="83" y="-208.5" font-family="Helvetica,sans-Serif" font-size="10.00">localIdsFromConnectivity()</text>
<text text-anchor="start" x="70" y="-193.5" font-family="Helvetica,sans-Serif" font-size="10.00">+</text>
<text text-anchor="start" x="83" y="-193.5" font-family="Helvetica,sans-Serif" font-size="10.00">getFacesLocalIdFromConnectivity()</text>
<text text-anchor="start" x="70" y="-178.5" font-family="Helvetica,sans-Serif" font-size="10.00">+</text>
<text text-anchor="start" x="83" y="-178.5" font-family="Helvetica,sans-Serif" font-size="10.00">computeNormal()</text>
<text text-anchor="start" x="70" y="-163.5" font-family="Helvetica,sans-Serif" font-size="10.00">+</text>
<text text-anchor="start" x="83" y="-163.5" font-family="Helvetica,sans-Serif" font-size="10.00">computeDirection()</text>
<text text-anchor="start" x="70" y="-148.5" font-family="Helvetica,sans-Serif" font-size="10.00">+</text>
<text text-anchor="start" x="83" y="-148.5" font-family="Helvetica,sans-Serif" font-size="10.00">computeAdjency()</text>
<text text-anchor="start" x="70" y="-133.5" font-family="Helvetica,sans-Serif" font-size="10.00">+</text>
<text text-anchor="start" x="83" y="-133.5" font-family="Helvetica,sans-Serif" font-size="10.00">writeToFile()</text>
<text text-anchor="start" x="70" y="-118.5" font-family="Helvetica,sans-Serif" font-size="10.00">+</text>
<text text-anchor="start" x="83" y="-118.5" font-family="Helvetica,sans-Serif" font-size="10.00">partitionAndExchangeMesh</text>
<text text-anchor="start" x="83" y="-107.5" font-family="Helvetica,sans-Serif" font-size="10.00">WithReplication()</text>
<text text-anchor="start" x="70" y="-92.5" font-family="Helvetica,sans-Serif" font-size="10.00">+</text>
<text text-anchor="start" x="83" y="-92.5" font-family="Helvetica,sans-Serif" font-size="10.00">mergeNodes()</text>
<text text-anchor="start" x="70" y="-77.5" font-family="Helvetica,sans-Serif" font-size="10.00">+</text>
<text text-anchor="start" x="83" y="-77.5" font-family="Helvetica,sans-Serif" font-size="10.00">computeAndSetOwnersForNodes()</text>
<text text-anchor="start" x="70" y="-62.5" font-family="Helvetica,sans-Serif" font-size="10.00">+</text>
<text text-anchor="start" x="83" y="-62.5" font-family="Helvetica,sans-Serif" font-size="10.00">computeAndSetOwnersForFaces()</text>
<text text-anchor="start" x="70" y="-47.5" font-family="Helvetica,sans-Serif" font-size="10.00">+</text>
<text text-anchor="start" x="83" y="-47.5" font-family="Helvetica,sans-Serif" font-size="10.00">recomputeItemsUniqueIdFrom</text>
<text text-anchor="start" x="83" y="-36.5" font-family="Helvetica,sans-Serif" font-size="10.00">NodesUniqueId()</text>
<text text-anchor="start" x="72.5" y="-21.5" font-family="Helvetica,sans-Serif" font-size="10.00">&#45;</text>
<text text-anchor="start" x="83" y="-21.5" font-family="Helvetica,sans-Serif" font-size="10.00">_round()</text>
<text text-anchor="start" x="72.5" y="-6.5" font-family="Helvetica,sans-Serif" font-size="10.00">&#45;</text>
<text text-anchor="start" x="83" y="-6.5" font-family="Helvetica,sans-Serif" font-size="10.00">_broadcastFarthestNode()</text>
<polygon fill="#666666" stroke="#666666" points="66,-304.5 66,-304.5 259,-304.5 259,-304.5 66,-304.5"/>
<polygon fill="#666666" stroke="#666666" points="66,-263.5 66,-263.5 81,-263.5 81,-263.5 66,-263.5"/>
<polygon fill="#666666" stroke="#666666" points="81,-263.5 81,-263.5 259,-263.5 259,-263.5 81,-263.5"/>
<polygon fill="none" stroke="#666666" points="65.5,0 65.5,-333 258.5,-333 258.5,0 65.5,0"/>
</a>
</g>
</g>
<!-- Node2 -->
<g id="Node000002" class="node">
<title>Node2</title>
<g id="a_Node000002"><a xlink:href="../../d1/d17/classArcane_1_1TraceAccessor.html" target="_top" xlink:title="Classe d&#39;accès aux traces.">
<polygon fill="white" stroke="transparent" points="140,-624 0,-624 0,-380 140,-380 140,-624"/>
<text text-anchor="start" x="15.5" y="-612" font-family="Helvetica,sans-Serif" font-size="10.00">Arcane::TraceAccessor</text>
<text text-anchor="start" x="6.5" y="-597" font-family="Helvetica,sans-Serif" font-size="10.00">&#45;</text>
<text text-anchor="start" x="17" y="-597" font-family="Helvetica,sans-Serif" font-size="10.00">m_trace</text>
<text text-anchor="start" x="6.5" y="-582" font-family="Helvetica,sans-Serif" font-size="10.00">&#45;</text>
<text text-anchor="start" x="17" y="-582" font-family="Helvetica,sans-Serif" font-size="10.00">m_local_verbose_level</text>
<text text-anchor="start" x="4" y="-567" font-family="Helvetica,sans-Serif" font-size="10.00">+</text>
<text text-anchor="start" x="17" y="-567" font-family="Helvetica,sans-Serif" font-size="10.00">TraceAccessor()</text>
<text text-anchor="start" x="4" y="-552" font-family="Helvetica,sans-Serif" font-size="10.00">+</text>
<text text-anchor="start" x="17" y="-552" font-family="Helvetica,sans-Serif" font-size="10.00">TraceAccessor()</text>
<text text-anchor="start" x="4" y="-537" font-family="Helvetica,sans-Serif" font-size="10.00">+</text>
<text text-anchor="start" x="17" y="-537" font-family="Helvetica,sans-Serif" font-size="10.00">operator=()</text>
<text text-anchor="start" x="4" y="-522" font-family="Helvetica,sans-Serif" font-size="10.00">+</text>
<text text-anchor="start" x="17" y="-522" font-family="Helvetica,sans-Serif" font-size="10.00">~TraceAccessor()</text>
<text text-anchor="start" x="4" y="-507" font-family="Helvetica,sans-Serif" font-size="10.00">+</text>
<text text-anchor="start" x="17" y="-507" font-family="Helvetica,sans-Serif" font-size="10.00">traceMng()</text>
<text text-anchor="start" x="4" y="-492" font-family="Helvetica,sans-Serif" font-size="10.00">+</text>
<text text-anchor="start" x="17" y="-492" font-family="Helvetica,sans-Serif" font-size="10.00">info()</text>
<text text-anchor="start" x="4" y="-477" font-family="Helvetica,sans-Serif" font-size="10.00">+</text>
<text text-anchor="start" x="17" y="-477" font-family="Helvetica,sans-Serif" font-size="10.00">pinfo()</text>
<text text-anchor="start" x="4" y="-462" font-family="Helvetica,sans-Serif" font-size="10.00">+</text>
<text text-anchor="start" x="17" y="-462" font-family="Helvetica,sans-Serif" font-size="10.00">info()</text>
<text text-anchor="start" x="4" y="-447" font-family="Helvetica,sans-Serif" font-size="10.00">+</text>
<text text-anchor="start" x="17" y="-447" font-family="Helvetica,sans-Serif" font-size="10.00">pinfo()</text>
<text text-anchor="start" x="4" y="-432" font-family="Helvetica,sans-Serif" font-size="10.00">+</text>
<text text-anchor="start" x="17" y="-432" font-family="Helvetica,sans-Serif" font-size="10.00">info()</text>
<text text-anchor="start" x="17" y="-417" font-family="Helvetica,sans-Serif" font-size="10.00">et 15 de plus...</text>
<text text-anchor="start" x="4" y="-402" font-family="Helvetica,sans-Serif" font-size="10.00">#</text>
<text text-anchor="start" x="17" y="-402" font-family="Helvetica,sans-Serif" font-size="10.00">_setLocalVerboseLevel()</text>
<text text-anchor="start" x="4" y="-387" font-family="Helvetica,sans-Serif" font-size="10.00">#</text>
<text text-anchor="start" x="17" y="-387" font-family="Helvetica,sans-Serif" font-size="10.00">_localVerboseLevel()</text>
<polygon fill="#666666" stroke="#666666" points="0,-607 0,-607 140,-607 140,-607 0,-607"/>
<polygon fill="#666666" stroke="#666666" points="0,-577 0,-577 15,-577 15,-577 0,-577"/>
<polygon fill="#666666" stroke="#666666" points="15,-577 15,-577 140,-577 140,-577 15,-577"/>
<polygon fill="none" stroke="#666666" points="0,-380 0,-624 140,-624 140,-380 0,-380"/>
</a>
</g>
</g>
<!-- Node2&#45;&gt;Node1 -->
<g id="edge1_Node000001_Node000002" class="edge">
<title>Node2&#45;&gt;Node1</title>
<g id="a_edge1_Node000001_Node000002"><a xlink:title=" ">
<path fill="none" stroke="#63b8ff" d="M106.14,-369.98C109.49,-357.84 112.91,-345.44 116.33,-333.05"/>
<polygon fill="none" stroke="#63b8ff" points="102.76,-369.08 103.47,-379.66 109.51,-370.95 102.76,-369.08"/>
</a>
</g>
</g>
<!-- Node3 -->
<g id="Node000003" class="node">
<title>Node3</title>
<g id="a_Node000003"><a xlink:href="../../dd/d6a/classArcane_1_1IMeshUtilities.html" target="_top" xlink:title="Interface d&#39;une classe proposant des fonctions utilitaires sur maillage.">
<polygon fill="white" stroke="transparent" points="351.5,-635 158.5,-635 158.5,-369 351.5,-369 351.5,-635"/>
<text text-anchor="start" x="201.5" y="-623" font-family="Helvetica,sans-Serif" font-size="10.00">Arcane::IMeshUtilities</text>
<text text-anchor="start" x="253.5" y="-608" font-family="Helvetica,sans-Serif" font-size="10.00"> </text>
<text text-anchor="start" x="163" y="-593" font-family="Helvetica,sans-Serif" font-size="10.00">+</text>
<text text-anchor="start" x="176" y="-593" font-family="Helvetica,sans-Serif" font-size="10.00">~IMeshUtilities()</text>
<text text-anchor="start" x="163" y="-578" font-family="Helvetica,sans-Serif" font-size="10.00">+</text>
<text text-anchor="start" x="176" y="-578" font-family="Helvetica,sans-Serif" font-size="10.00">localIdsFromConnectivity()</text>
<text text-anchor="start" x="163" y="-563" font-family="Helvetica,sans-Serif" font-size="10.00">+</text>
<text text-anchor="start" x="176" y="-563" font-family="Helvetica,sans-Serif" font-size="10.00">getFacesLocalIdFromConnectivity()</text>
<text text-anchor="start" x="163" y="-548" font-family="Helvetica,sans-Serif" font-size="10.00">+</text>
<text text-anchor="start" x="176" y="-548" font-family="Helvetica,sans-Serif" font-size="10.00">computeNormal()</text>
<text text-anchor="start" x="163" y="-533" font-family="Helvetica,sans-Serif" font-size="10.00">+</text>
<text text-anchor="start" x="176" y="-533" font-family="Helvetica,sans-Serif" font-size="10.00">computeDirection()</text>
<text text-anchor="start" x="163" y="-518" font-family="Helvetica,sans-Serif" font-size="10.00">+</text>
<text text-anchor="start" x="176" y="-518" font-family="Helvetica,sans-Serif" font-size="10.00">computeAdjency()</text>
<text text-anchor="start" x="163" y="-503" font-family="Helvetica,sans-Serif" font-size="10.00">+</text>
<text text-anchor="start" x="176" y="-503" font-family="Helvetica,sans-Serif" font-size="10.00">computeAdjacency()</text>
<text text-anchor="start" x="163" y="-488" font-family="Helvetica,sans-Serif" font-size="10.00">+</text>
<text text-anchor="start" x="176" y="-488" font-family="Helvetica,sans-Serif" font-size="10.00">changeOwnersFromCells()</text>
<text text-anchor="start" x="163" y="-473" font-family="Helvetica,sans-Serif" font-size="10.00">+</text>
<text text-anchor="start" x="176" y="-473" font-family="Helvetica,sans-Serif" font-size="10.00">computeAndSetOwnersForNodes()</text>
<text text-anchor="start" x="163" y="-458" font-family="Helvetica,sans-Serif" font-size="10.00">+</text>
<text text-anchor="start" x="176" y="-458" font-family="Helvetica,sans-Serif" font-size="10.00">computeAndSetOwnersForFaces()</text>
<text text-anchor="start" x="163" y="-443" font-family="Helvetica,sans-Serif" font-size="10.00">+</text>
<text text-anchor="start" x="176" y="-443" font-family="Helvetica,sans-Serif" font-size="10.00">writeToFile()</text>
<text text-anchor="start" x="163" y="-428" font-family="Helvetica,sans-Serif" font-size="10.00">+</text>
<text text-anchor="start" x="176" y="-428" font-family="Helvetica,sans-Serif" font-size="10.00">partitionAndExchangeMesh</text>
<text text-anchor="start" x="176" y="-417" font-family="Helvetica,sans-Serif" font-size="10.00">WithReplication()</text>
<text text-anchor="start" x="163" y="-402" font-family="Helvetica,sans-Serif" font-size="10.00">+</text>
<text text-anchor="start" x="176" y="-402" font-family="Helvetica,sans-Serif" font-size="10.00">mergeNodes()</text>
<text text-anchor="start" x="163" y="-387" font-family="Helvetica,sans-Serif" font-size="10.00">+</text>
<text text-anchor="start" x="176" y="-387" font-family="Helvetica,sans-Serif" font-size="10.00">recomputeItemsUniqueIdFrom</text>
<text text-anchor="start" x="176" y="-376" font-family="Helvetica,sans-Serif" font-size="10.00">NodesUniqueId()</text>
<polygon fill="#666666" stroke="#666666" points="159,-618 159,-618 352,-618 352,-618 159,-618"/>
<polygon fill="#666666" stroke="#666666" points="159,-603 159,-603 352,-603 352,-603 159,-603"/>
<polygon fill="none" stroke="#666666" points="158.5,-369 158.5,-635 351.5,-635 351.5,-369 158.5,-369"/>
</a>
</g>
</g>
<!-- Node3&#45;&gt;Node1 -->
<g id="edge2_Node000001_Node000003" class="edge">
<title>Node3&#45;&gt;Node1</title>
<g id="a_edge2_Node000001_Node000003"><a xlink:title=" ">
<path fill="none" stroke="#63b8ff" d="M215.41,-359.04C213.01,-350.44 210.59,-341.75 208.17,-333.06"/>
<polygon fill="none" stroke="#63b8ff" points="212.05,-360.02 218.11,-368.71 218.8,-358.14 212.05,-360.02"/>
</a>
</g>
</g>
</g>
</svg>

<g id="navigator" transform="translate(0 0)" fill="#404254">
  <rect fill="#f2f5e9" fill-opacity="0.5" stroke="#606060" stroke-width=".5" x="0" y="0" width="60" height="60"/>
  <use id="zoomplus" xlink:href="#zoomPlus" x="17" y="9" onmousedown="handleZoom(evt,'in')"/>
  <use id="zoomminus" xlink:href="#zoomMin" x="42" y="9" onmousedown="handleZoom(evt,'out')"/>
  <use id="reset" xlink:href="#resetDef" x="30" y="36" onmousedown="handleReset()"/>
   <use id="arrowup" xlink:href="#arrowUp" x="0" y="0" onmousedown="handlePan(0,-1)"/>
  <use id="arrowright" xlink:href="#arrowRight" x="0" y="0" onmousedown="handlePan(1,0)"/>
  <use id="arrowdown" xlink:href="#arrowDown" x="0" y="0" onmousedown="handlePan(0,1)"/>
  <use id="arrowleft" xlink:href="#arrowLeft" x="0" y="0" onmousedown="handlePan(-1,0)"/>
</g>
<svg viewBox="0 0 15 15" width="100%" height="30px" preserveAspectRatio="xMaxYMin meet">
 <g id="arrow_out" transform="scale(0.3 0.3)">
  <a xlink:href="classArcane_1_1UnstructuredMeshUtilities__inherit__graph_org.svg" target="_base">
   <rect id="button" ry="5" rx="5" y="6" x="6" height="38" width="38"
        fill="#f2f5e9" fill-opacity="0.5" stroke="#606060" stroke-width="1.0"/>
   <path id="arrow"
     d="M 11.500037,31.436501 C 11.940474,20.09759 22.043105,11.32322 32.158766,21.979434 L 37.068811,17.246167 C 37.068811,17.246167 37.088388,32 37.088388,32 L 22.160133,31.978069 C 22.160133,31.978069 26.997745,27.140456 26.997745,27.140456 C 18.528582,18.264221 13.291696,25.230495 11.500037,31.436501 z"
     style="fill:#404040;"/>
  </a>
 </g>
</svg>

<style type='text/css'>
<![CDATA[
[data-mouse-over-selected='false'] { opacity: 0.7; }
[data-mouse-over-selected='true']  { opacity: 1.0; }
]]>
</style>
<script type="application/ecmascript"><![CDATA[
document.addEventListener('DOMContentLoaded', (event) => {
  highlightEdges();
  highlightAdjacentNodes();
});
]]></script>
</svg>
