<?xml version="1.0" encoding="UTF-8" standalone="no"?>
<!DOCTYPE svg PUBLIC "-//W3C//DTD SVG 1.1//EN"
 "http://www.w3.org/Graphics/SVG/1.1/DTD/svg11.dtd">
<!-- Generated by graphviz version 2.43.0 (0)
 -->
<!-- Title: Arcane::HyodaMatrix Pages: 1 -->
<!--zoomable 802 -->

<svg id="main" version="1.1" xmlns="http://www.w3.org/2000/svg" xmlns:xlink="http://www.w3.org/1999/xlink" xml:space="preserve" onload="init(evt)">

<style type="text/css"><![CDATA[
.node, .edge {opacity: 0.7;}
.node.selected, .edge.selected {opacity: 1;}
.edge:hover path { stroke: red; }
.edge:hover polygon { stroke: red; fill: red; }
]]></style>

<defs>
  <circle id="rim" cx="0" cy="0" r="7"/>
  <circle id="rim2" cx="0" cy="0" r="3.5"/>
  <g id="zoomPlus">
    <use xlink:href="#rim" fill="#404040"><set attributeName="fill" to="#808080" begin="zoomplus.mouseover" end="zoomplus.mouseout"/></use>
    <path d="M-4,0h8M0,-4v8" fill="none" stroke="white" stroke-width="1.5" pointer-events="none"/>
  </g>
  <g id="zoomMin">
    <use xlink:href="#rim" fill="#404040"><set attributeName="fill" to="#808080" begin="zoomminus.mouseover" end="zoomminus.mouseout"/></use>
    <path d="M-4,0h8" fill="none" stroke="white" stroke-width="1.5" pointer-events="none"/>
  </g>
  <g id="arrowUp" transform="translate(30 24)">
    <use xlink:href="#rim"/>
    <path pointer-events="none" fill="none" stroke="white" stroke-width="1.5" d="M0,-3.0v7 M-2.5,-0.5L0,-3.0L2.5,-0.5"/>
  </g>
  <g id="arrowRight" transform="rotate(90) translate(36 -43)">
    <use xlink:href="#rim"/>
    <path pointer-events="none" fill="none" stroke="white" stroke-width="1.5" d="M0,-3.0v7 M-2.5,-0.5L0,-3.0L2.5,-0.5"/>
  </g>
  <g id="arrowDown" transform="rotate(180) translate(-30 -48)">
    <use xlink:href="#rim"/>
    <path pointer-events="none" fill="none" stroke="white" stroke-width="1.5" d="M0,-3.0v7 M-2.5,-0.5L0,-3.0L2.5,-0.5"/>
  </g>
  <g id="arrowLeft" transform="rotate(270) translate(-36 17)">
    <use xlink:href="#rim"/>
    <path pointer-events="none" fill="none" stroke="white" stroke-width="1.5" d="M0,-3.0v7 M-2.5,-0.5L0,-3.0L2.5,-0.5"/>
  </g>
  <g id="resetDef">
    <use xlink:href="#rim2" fill="#404040"><set attributeName="fill" to="#808080" begin="reset.mouseover" end="reset.mouseout"/></use>
  </g>
</defs>
<script type="application/ecmascript">
var viewWidth = 153;
var viewHeight = 802;
var sectionId = 'dynsection-0';
</script>
<script type="application/ecmascript" xlink:href="../../svg.min.js"/>
<svg id="graph" class="graph">
<g id="viewport">
<title>Arcane::HyodaMatrix</title>
<!-- Node1 -->
<g id="Node000001" class="node">
<title>Node1</title>
<g id="a_Node000001"><a xlink:title=" ">
<polygon fill="#999999" stroke="transparent" points="145,-514 0,-514 0,0 145,0 145,-514"/>
<text text-anchor="start" x="21.5" y="-502" font-family="Helvetica,sans-Serif" font-size="10.00">Arcane::HyodaMatrix</text>
<text text-anchor="start" x="7" y="-487" font-family="Helvetica,sans-Serif" font-size="10.00">&#45;</text>
<text text-anchor="start" x="17.5" y="-487" font-family="Helvetica,sans-Serif" font-size="10.00">hyoda</text>
<text text-anchor="start" x="7" y="-472" font-family="Helvetica,sans-Serif" font-size="10.00">&#45;</text>
<text text-anchor="start" x="17.5" y="-472" font-family="Helvetica,sans-Serif" font-size="10.00">m_sub_domain</text>
<text text-anchor="start" x="7" y="-457" font-family="Helvetica,sans-Serif" font-size="10.00">&#45;</text>
<text text-anchor="start" x="17.5" y="-457" font-family="Helvetica,sans-Serif" font-size="10.00">icetContext</text>
<text text-anchor="start" x="7" y="-442" font-family="Helvetica,sans-Serif" font-size="10.00">&#45;</text>
<text text-anchor="start" x="17.5" y="-442" font-family="Helvetica,sans-Serif" font-size="10.00">icetCommunicator</text>
<text text-anchor="start" x="7" y="-427" font-family="Helvetica,sans-Serif" font-size="10.00">&#45;</text>
<text text-anchor="start" x="17.5" y="-427" font-family="Helvetica,sans-Serif" font-size="10.00">osMesaContext</text>
<text text-anchor="start" x="7" y="-412" font-family="Helvetica,sans-Serif" font-size="10.00">&#45;</text>
<text text-anchor="start" x="17.5" y="-412" font-family="Helvetica,sans-Serif" font-size="10.00">rank</text>
<text text-anchor="start" x="7" y="-397" font-family="Helvetica,sans-Serif" font-size="10.00">&#45;</text>
<text text-anchor="start" x="17.5" y="-397" font-family="Helvetica,sans-Serif" font-size="10.00">num_proc</text>
<text text-anchor="start" x="7" y="-382" font-family="Helvetica,sans-Serif" font-size="10.00">&#45;</text>
<text text-anchor="start" x="17.5" y="-382" font-family="Helvetica,sans-Serif" font-size="10.00">m_screen_width</text>
<text text-anchor="start" x="7" y="-367" font-family="Helvetica,sans-Serif" font-size="10.00">&#45;</text>
<text text-anchor="start" x="17.5" y="-367" font-family="Helvetica,sans-Serif" font-size="10.00">m_screen_height</text>
<text text-anchor="start" x="7" y="-352" font-family="Helvetica,sans-Serif" font-size="10.00">&#45;</text>
<text text-anchor="start" x="17.5" y="-352" font-family="Helvetica,sans-Serif" font-size="10.00">m_image_buffer</text>
<text text-anchor="start" x="17.5" y="-337" font-family="Helvetica,sans-Serif" font-size="10.00">et 12 de plus...</text>
<text text-anchor="start" x="4.5" y="-322" font-family="Helvetica,sans-Serif" font-size="10.00">+</text>
<text text-anchor="start" x="17.5" y="-322" font-family="Helvetica,sans-Serif" font-size="10.00">HyodaMatrix()</text>
<text text-anchor="start" x="4.5" y="-307" font-family="Helvetica,sans-Serif" font-size="10.00">+</text>
<text text-anchor="start" x="17.5" y="-307" font-family="Helvetica,sans-Serif" font-size="10.00">~HyodaMatrix()</text>
<text text-anchor="start" x="4.5" y="-292" font-family="Helvetica,sans-Serif" font-size="10.00">+</text>
<text text-anchor="start" x="17.5" y="-292" font-family="Helvetica,sans-Serif" font-size="10.00">renderSize()</text>
<text text-anchor="start" x="4.5" y="-277" font-family="Helvetica,sans-Serif" font-size="10.00">+</text>
<text text-anchor="start" x="17.5" y="-277" font-family="Helvetica,sans-Serif" font-size="10.00">render()</text>
<text text-anchor="start" x="4.5" y="-262" font-family="Helvetica,sans-Serif" font-size="10.00">+</text>
<text text-anchor="start" x="17.5" y="-262" font-family="Helvetica,sans-Serif" font-size="10.00">setLeftRightBottomTop()</text>
<text text-anchor="start" x="4.5" y="-247" font-family="Helvetica,sans-Serif" font-size="10.00">+</text>
<text text-anchor="start" x="17.5" y="-247" font-family="Helvetica,sans-Serif" font-size="10.00">drawGL()</text>
<text text-anchor="start" x="4.5" y="-232" font-family="Helvetica,sans-Serif" font-size="10.00">+</text>
<text text-anchor="start" x="17.5" y="-232" font-family="Helvetica,sans-Serif" font-size="10.00">sxyzip()</text>
<text text-anchor="start" x="4.5" y="-217" font-family="Helvetica,sans-Serif" font-size="10.00">+</text>
<text text-anchor="start" x="17.5" y="-217" font-family="Helvetica,sans-Serif" font-size="10.00">setColor()</text>
<text text-anchor="start" x="4.5" y="-202" font-family="Helvetica,sans-Serif" font-size="10.00">+</text>
<text text-anchor="start" x="17.5" y="-202" font-family="Helvetica,sans-Serif" font-size="10.00">iceRowMinMax()</text>
<text text-anchor="start" x="4.5" y="-187" font-family="Helvetica,sans-Serif" font-size="10.00">+</text>
<text text-anchor="start" x="17.5" y="-187" font-family="Helvetica,sans-Serif" font-size="10.00">iceColMinMax()</text>
<text text-anchor="start" x="4.5" y="-172" font-family="Helvetica,sans-Serif" font-size="10.00">+</text>
<text text-anchor="start" x="17.5" y="-172" font-family="Helvetica,sans-Serif" font-size="10.00">iceValMinMax()</text>
<text text-anchor="start" x="4.5" y="-157" font-family="Helvetica,sans-Serif" font-size="10.00">+</text>
<text text-anchor="start" x="17.5" y="-157" font-family="Helvetica,sans-Serif" font-size="10.00">checkOglError()</text>
<text text-anchor="start" x="4.5" y="-142" font-family="Helvetica,sans-Serif" font-size="10.00">+</text>
<text text-anchor="start" x="17.5" y="-142" font-family="Helvetica,sans-Serif" font-size="10.00">checkIceTError()</text>
<text text-anchor="start" x="4.5" y="-127" font-family="Helvetica,sans-Serif" font-size="10.00">+</text>
<text text-anchor="start" x="17.5" y="-127" font-family="Helvetica,sans-Serif" font-size="10.00">setIJVal()</text>
<text text-anchor="start" x="7" y="-112" font-family="Helvetica,sans-Serif" font-size="10.00">&#45;</text>
<text text-anchor="start" x="17.5" y="-112" font-family="Helvetica,sans-Serif" font-size="10.00">initGL()</text>
<text text-anchor="start" x="7" y="-97" font-family="Helvetica,sans-Serif" font-size="10.00">&#45;</text>
<text text-anchor="start" x="17.5" y="-97" font-family="Helvetica,sans-Serif" font-size="10.00">drawMatrix()</text>
<text text-anchor="start" x="7" y="-82" font-family="Helvetica,sans-Serif" font-size="10.00">&#45;</text>
<text text-anchor="start" x="17.5" y="-82" font-family="Helvetica,sans-Serif" font-size="10.00">LowerTriangleImage()</text>
<text text-anchor="start" x="7" y="-67" font-family="Helvetica,sans-Serif" font-size="10.00">&#45;</text>
<text text-anchor="start" x="17.5" y="-67" font-family="Helvetica,sans-Serif" font-size="10.00">UpperTriangleImage()</text>
<text text-anchor="start" x="7" y="-52" font-family="Helvetica,sans-Serif" font-size="10.00">&#45;</text>
<text text-anchor="start" x="17.5" y="-52" font-family="Helvetica,sans-Serif" font-size="10.00">gluSphere()</text>
<text text-anchor="start" x="7" y="-37" font-family="Helvetica,sans-Serif" font-size="10.00">&#45;</text>
<text text-anchor="start" x="17.5" y="-37" font-family="Helvetica,sans-Serif" font-size="10.00">renderSphereConeTorus()</text>
<text text-anchor="start" x="7" y="-22" font-family="Helvetica,sans-Serif" font-size="10.00">&#45;</text>
<text text-anchor="start" x="17.5" y="-22" font-family="Helvetica,sans-Serif" font-size="10.00">gluCone()</text>
<text text-anchor="start" x="7" y="-7" font-family="Helvetica,sans-Serif" font-size="10.00">&#45;</text>
<text text-anchor="start" x="17.5" y="-7" font-family="Helvetica,sans-Serif" font-size="10.00">gluTorus()</text>
<polygon fill="#666666" stroke="#666666" points="0.5,-497 0.5,-497 145.5,-497 145.5,-497 0.5,-497"/>
<polygon fill="#666666" stroke="#666666" points="0.5,-332 0.5,-332 15.5,-332 15.5,-332 0.5,-332"/>
<polygon fill="#666666" stroke="#666666" points="15.5,-332 15.5,-332 145.5,-332 145.5,-332 15.5,-332"/>
<polygon fill="none" stroke="#666666" points="0,0 0,-514 145,-514 145,0 0,0"/>
</a>
</g>
</g>
<!-- Node2 -->
<g id="Node000002" class="node">
<title>Node2</title>
<g id="a_Node000002"><a xlink:href="../../d1/d17/classArcane_1_1TraceAccessor.html" target="_top" xlink:title="Classe d&#39;accès aux traces.">
<polygon fill="white" stroke="transparent" points="142.5,-794 2.5,-794 2.5,-550 142.5,-550 142.5,-794"/>
<text text-anchor="start" x="18" y="-782" font-family="Helvetica,sans-Serif" font-size="10.00">Arcane::TraceAccessor</text>
<text text-anchor="start" x="9" y="-767" font-family="Helvetica,sans-Serif" font-size="10.00">&#45;</text>
<text text-anchor="start" x="19.5" y="-767" font-family="Helvetica,sans-Serif" font-size="10.00">m_trace</text>
<text text-anchor="start" x="9" y="-752" font-family="Helvetica,sans-Serif" font-size="10.00">&#45;</text>
<text text-anchor="start" x="19.5" y="-752" font-family="Helvetica,sans-Serif" font-size="10.00">m_local_verbose_level</text>
<text text-anchor="start" x="6.5" y="-737" font-family="Helvetica,sans-Serif" font-size="10.00">+</text>
<text text-anchor="start" x="19.5" y="-737" font-family="Helvetica,sans-Serif" font-size="10.00">TraceAccessor()</text>
<text text-anchor="start" x="6.5" y="-722" font-family="Helvetica,sans-Serif" font-size="10.00">+</text>
<text text-anchor="start" x="19.5" y="-722" font-family="Helvetica,sans-Serif" font-size="10.00">TraceAccessor()</text>
<text text-anchor="start" x="6.5" y="-707" font-family="Helvetica,sans-Serif" font-size="10.00">+</text>
<text text-anchor="start" x="19.5" y="-707" font-family="Helvetica,sans-Serif" font-size="10.00">operator=()</text>
<text text-anchor="start" x="6.5" y="-692" font-family="Helvetica,sans-Serif" font-size="10.00">+</text>
<text text-anchor="start" x="19.5" y="-692" font-family="Helvetica,sans-Serif" font-size="10.00">~TraceAccessor()</text>
<text text-anchor="start" x="6.5" y="-677" font-family="Helvetica,sans-Serif" font-size="10.00">+</text>
<text text-anchor="start" x="19.5" y="-677" font-family="Helvetica,sans-Serif" font-size="10.00">traceMng()</text>
<text text-anchor="start" x="6.5" y="-662" font-family="Helvetica,sans-Serif" font-size="10.00">+</text>
<text text-anchor="start" x="19.5" y="-662" font-family="Helvetica,sans-Serif" font-size="10.00">info()</text>
<text text-anchor="start" x="6.5" y="-647" font-family="Helvetica,sans-Serif" font-size="10.00">+</text>
<text text-anchor="start" x="19.5" y="-647" font-family="Helvetica,sans-Serif" font-size="10.00">pinfo()</text>
<text text-anchor="start" x="6.5" y="-632" font-family="Helvetica,sans-Serif" font-size="10.00">+</text>
<text text-anchor="start" x="19.5" y="-632" font-family="Helvetica,sans-Serif" font-size="10.00">info()</text>
<text text-anchor="start" x="6.5" y="-617" font-family="Helvetica,sans-Serif" font-size="10.00">+</text>
<text text-anchor="start" x="19.5" y="-617" font-family="Helvetica,sans-Serif" font-size="10.00">pinfo()</text>
<text text-anchor="start" x="6.5" y="-602" font-family="Helvetica,sans-Serif" font-size="10.00">+</text>
<text text-anchor="start" x="19.5" y="-602" font-family="Helvetica,sans-Serif" font-size="10.00">info()</text>
<text text-anchor="start" x="19.5" y="-587" font-family="Helvetica,sans-Serif" font-size="10.00">et 15 de plus...</text>
<text text-anchor="start" x="6.5" y="-572" font-family="Helvetica,sans-Serif" font-size="10.00">#</text>
<text text-anchor="start" x="19.5" y="-572" font-family="Helvetica,sans-Serif" font-size="10.00">_setLocalVerboseLevel()</text>
<text text-anchor="start" x="6.5" y="-557" font-family="Helvetica,sans-Serif" font-size="10.00">#</text>
<text text-anchor="start" x="19.5" y="-557" font-family="Helvetica,sans-Serif" font-size="10.00">_localVerboseLevel()</text>
<polygon fill="#666666" stroke="#666666" points="2.5,-777 2.5,-777 142.5,-777 142.5,-777 2.5,-777"/>
<polygon fill="#666666" stroke="#666666" points="2.5,-747 2.5,-747 17.5,-747 17.5,-747 2.5,-747"/>
<polygon fill="#666666" stroke="#666666" points="17.5,-747 17.5,-747 142.5,-747 142.5,-747 17.5,-747"/>
<polygon fill="none" stroke="#666666" points="2.5,-550 2.5,-794 142.5,-794 142.5,-550 2.5,-550"/>
</a>
</g>
</g>
<!-- Node2&#45;&gt;Node1 -->
<g id="edge1_Node000001_Node000002" class="edge">
<title>Node2&#45;&gt;Node1</title>
<g id="a_edge1_Node000001_Node000002"><a xlink:title=" ">
<path fill="none" stroke="#63b8ff" d="M72.5,-539.76C72.5,-531.39 72.5,-522.82 72.5,-514.13"/>
<polygon fill="none" stroke="#63b8ff" points="69,-539.88 72.5,-549.88 76,-539.88 69,-539.88"/>
</a>
</g>
</g>
</g>
</svg>

<g id="navigator" transform="translate(0 0)" fill="#404254">
  <rect fill="#f2f5e9" fill-opacity="0.5" stroke="#606060" stroke-width=".5" x="0" y="0" width="60" height="60"/>
  <use id="zoomplus" xlink:href="#zoomPlus" x="17" y="9" onmousedown="handleZoom(evt,'in')"/>
  <use id="zoomminus" xlink:href="#zoomMin" x="42" y="9" onmousedown="handleZoom(evt,'out')"/>
  <use id="reset" xlink:href="#resetDef" x="30" y="36" onmousedown="handleReset()"/>
   <use id="arrowup" xlink:href="#arrowUp" x="0" y="0" onmousedown="handlePan(0,-1)"/>
  <use id="arrowright" xlink:href="#arrowRight" x="0" y="0" onmousedown="handlePan(1,0)"/>
  <use id="arrowdown" xlink:href="#arrowDown" x="0" y="0" onmousedown="handlePan(0,1)"/>
  <use id="arrowleft" xlink:href="#arrowLeft" x="0" y="0" onmousedown="handlePan(-1,0)"/>
</g>
<svg viewBox="0 0 15 15" width="100%" height="30px" preserveAspectRatio="xMaxYMin meet">
 <g id="arrow_out" transform="scale(0.3 0.3)">
  <a xlink:href="classArcane_1_1HyodaMatrix__inherit__graph_org.svg" target="_base">
   <rect id="button" ry="5" rx="5" y="6" x="6" height="38" width="38"
        fill="#f2f5e9" fill-opacity="0.5" stroke="#606060" stroke-width="1.0"/>
   <path id="arrow"
     d="M 11.500037,31.436501 C 11.940474,20.09759 22.043105,11.32322 32.158766,21.979434 L 37.068811,17.246167 C 37.068811,17.246167 37.088388,32 37.088388,32 L 22.160133,31.978069 C 22.160133,31.978069 26.997745,27.140456 26.997745,27.140456 C 18.528582,18.264221 13.291696,25.230495 11.500037,31.436501 z"
     style="fill:#404040;"/>
  </a>
 </g>
</svg>

<style type='text/css'>
<![CDATA[
[data-mouse-over-selected='false'] { opacity: 0.7; }
[data-mouse-over-selected='true']  { opacity: 1.0; }
]]>
</style>
<script type="application/ecmascript"><![CDATA[
document.addEventListener('DOMContentLoaded', (event) => {
  highlightEdges();
  highlightAdjacentNodes();
});
]]></script>
</svg>
