<?xml version="1.0" encoding="UTF-8" standalone="no"?>
<!DOCTYPE svg PUBLIC "-//W3C//DTD SVG 1.1//EN"
 "http://www.w3.org/Graphics/SVG/1.1/DTD/svg11.dtd">
<!-- Generated by graphviz version 2.43.0 (0)
 -->
<!-- Title: Arcane::math::isNearlyEqualWithEpsilon Pages: 1 -->
<svg width="352pt" height="86pt"
 viewBox="0.00 0.00 352.00 86.00" xmlns="http://www.w3.org/2000/svg" xmlns:xlink="http://www.w3.org/1999/xlink">
<g id="graph0" class="graph" transform="scale(1 1) rotate(0) translate(4 82)">
<title>Arcane::math::isNearlyEqualWithEpsilon</title>
<!-- Node1 -->
<g id="Node000001" class="node">
<title>Node1</title>
<g id="a_Node000001"><a xlink:title="Teste si deux valeurs sont à un peu près égales. Pour les types entiers, cette fonction est équivalen...">
<polygon fill="#999999" stroke="#666666" points="344,-54 189,-54 189,-24 344,-24 344,-54"/>
<text text-anchor="start" x="197" y="-42" font-family="Helvetica,sans-Serif" font-size="10.00">Arcane::math::isNearlyEqual</text>
<text text-anchor="middle" x="266.5" y="-31" font-family="Helvetica,sans-Serif" font-size="10.00">WithEpsilon</text>
</a>
</g>
</g>
<!-- Node2 -->
<g id="Node000002" class="node">
<title>Node2</title>
<g id="a_Node000002"><a xlink:href="../../d3/dba/classArcane_1_1SimpleTableInternalComparator.html#a0b8816395ed6f56c3780bce0ed7feea8" target="_top" xlink:title="Méthode permettant de comparer les valeurs des deux STI.">
<polygon fill="white" stroke="#666666" points="153,-78 0,-78 0,-48 153,-48 153,-78"/>
<text text-anchor="start" x="8" y="-66" font-family="Helvetica,sans-Serif" font-size="10.00">Arcane::SimpleTableInternal</text>
<text text-anchor="middle" x="76.5" y="-55" font-family="Helvetica,sans-Serif" font-size="10.00">Comparator::compare</text>
</a>
</g>
</g>
<!-- Node1&#45;&gt;Node2 -->
<g id="edge1_Node000001_Node000002" class="edge">
<title>Node1&#45;&gt;Node2</title>
<g id="a_edge1_Node000001_Node000002"><a xlink:title=" ">
<path fill="none" stroke="#63b8ff" d="M178.75,-50.07C170.18,-51.17 161.53,-52.27 153.08,-53.35"/>
<polygon fill="#63b8ff" stroke="#63b8ff" points="179.29,-53.53 188.76,-48.8 178.4,-46.59 179.29,-53.53"/>
</a>
</g>
</g>
<!-- Node3 -->
<g id="Node000003" class="node">
<title>Node3</title>
<g id="a_Node000003"><a xlink:href="../../d3/dba/classArcane_1_1SimpleTableInternalComparator.html#a4f31717e60d0429428870507a01fc59f" target="_top" xlink:title="Méthode permettant de comparer une valeur avec une valeur du tableau de référence....">
<polygon fill="white" stroke="#666666" points="153,-30 0,-30 0,0 153,0 153,-30"/>
<text text-anchor="start" x="8" y="-18" font-family="Helvetica,sans-Serif" font-size="10.00">Arcane::SimpleTableInternal</text>
<text text-anchor="middle" x="76.5" y="-7" font-family="Helvetica,sans-Serif" font-size="10.00">Comparator::compareElem</text>
</a>
</g>
</g>
<!-- Node1&#45;&gt;Node3 -->
<g id="edge2_Node000001_Node000003" class="edge">
<title>Node1&#45;&gt;Node3</title>
<g id="a_edge2_Node000001_Node000003"><a xlink:title=" ">
<path fill="none" stroke="#63b8ff" d="M178.75,-27.93C170.18,-26.83 161.53,-25.73 153.08,-24.65"/>
<polygon fill="#63b8ff" stroke="#63b8ff" points="178.4,-31.41 188.76,-29.2 179.29,-24.47 178.4,-31.41"/>
</a>
</g>
</g>
</g>
</svg>
