<?xml version="1.0" encoding="UTF-8" standalone="no"?>
<!DOCTYPE svg PUBLIC "-//W3C//DTD SVG 1.1//EN"
 "http://www.w3.org/Graphics/SVG/1.1/DTD/svg11.dtd">
<!-- Generated by graphviz version 2.43.0 (0)
 -->
<!-- Title: Arcane::math::matrix3x3Prod Pages: 1 -->
<svg width="709pt" height="27pt"
 viewBox="0.00 0.00 709.00 27.00" xmlns="http://www.w3.org/2000/svg" xmlns:xlink="http://www.w3.org/1999/xlink">
<g id="graph0" class="graph" transform="scale(1 1) rotate(0) translate(4 23)">
<title>Arcane::math::matrix3x3Prod</title>
<!-- Node1 -->
<g id="Node000001" class="node">
<title>Node1</title>
<g id="a_Node000001"><a xlink:title="Multiplication de 2 matrices 3x3.">
<polygon fill="#999999" stroke="#666666" points="160,-19 0,-19 0,0 160,0 160,-19"/>
<text text-anchor="middle" x="80" y="-7" font-family="Helvetica,sans-Serif" font-size="10.00">Arcane::math::matrix3x3Prod</text>
</a>
</g>
</g>
<!-- Node2 -->
<g id="Node000002" class="node">
<title>Node2</title>
<g id="a_Node000002"><a xlink:href="../../d9/da0/classArcane_1_1Real3x3.html#a57b3223d0634ae16b00956ed19b5e15b" target="_top" xlink:title="Construit la matrice ((ax,bx,cx),(ay,by,cy),(az,bz,cz)).">
<polygon fill="white" stroke="#666666" points="364,-19 196,-19 196,0 364,0 364,-19"/>
<text text-anchor="middle" x="280" y="-7" font-family="Helvetica,sans-Serif" font-size="10.00">Arcane::Real3x3::fromColumns</text>
</a>
</g>
</g>
<!-- Node1&#45;&gt;Node2 -->
<g id="edge1_Node000001_Node000002" class="edge">
<title>Node1&#45;&gt;Node2</title>
<g id="a_edge1_Node000001_Node000002"><a xlink:title=" ">
<path fill="none" stroke="#63b8ff" d="M160.11,-9.5C168.55,-9.5 177.19,-9.5 185.77,-9.5"/>
<polygon fill="#63b8ff" stroke="#63b8ff" points="185.8,-13 195.8,-9.5 185.8,-6 185.8,-13"/>
</a>
</g>
</g>
<!-- Node3 -->
<g id="Node000003" class="node">
<title>Node3</title>
<g id="a_Node000003"><a xlink:href="../../d9/da0/classArcane_1_1Real3x3.html#a5f9d1b9b4f539f3741d07d33f96a77ff" target="_top" xlink:title="Construit la matrice avec tous les coefficiants nuls.">
<polygon fill="white" stroke="#666666" points="542,-19 400,-19 400,0 542,0 542,-19"/>
<text text-anchor="middle" x="471" y="-7" font-family="Helvetica,sans-Serif" font-size="10.00">Arcane::Real3x3::Real3x3</text>
</a>
</g>
</g>
<!-- Node2&#45;&gt;Node3 -->
<g id="edge2_Node000002_Node000003" class="edge">
<title>Node2&#45;&gt;Node3</title>
<g id="a_edge2_Node000002_Node000003"><a xlink:title=" ">
<path fill="none" stroke="#63b8ff" d="M364.17,-9.5C372.62,-9.5 381.19,-9.5 389.61,-9.5"/>
<polygon fill="#63b8ff" stroke="#63b8ff" points="389.79,-13 399.79,-9.5 389.79,-6 389.79,-13"/>
</a>
</g>
</g>
<!-- Node4 -->
<g id="Node000004" class="node">
<title>Node4</title>
<g id="a_Node000004"><a xlink:href="../../d9/da0/classArcane_1_1Real3x3.html#aa062a793acbdf17010de3376ae0a4704" target="_top" xlink:title="Construit la matrice nulle.">
<polygon fill="white" stroke="#666666" points="701,-19 578,-19 578,0 701,0 701,-19"/>
<text text-anchor="middle" x="639.5" y="-7" font-family="Helvetica,sans-Serif" font-size="10.00">Arcane::Real3x3::zero</text>
</a>
</g>
</g>
<!-- Node3&#45;&gt;Node4 -->
<g id="edge3_Node000003_Node000004" class="edge">
<title>Node3&#45;&gt;Node4</title>
<g id="a_edge3_Node000003_Node000004"><a xlink:title=" ">
<path fill="none" stroke="#63b8ff" d="M542.13,-2.83C550.6,-2.73 559.25,-2.73 567.72,-2.82"/>
<polygon fill="#63b8ff" stroke="#63b8ff" points="567.9,-6.32 577.95,-2.98 568.01,0.68 567.9,-6.32"/>
</a>
</g>
</g>
<!-- Node4&#45;&gt;Node3 -->
<g id="edge4_Node000004_Node000003" class="edge">
<title>Node4&#45;&gt;Node3</title>
<g id="a_edge4_Node000004_Node000003"><a xlink:title=" ">
<path fill="none" stroke="#63b8ff" d="M577.95,-16.02C569.59,-16.19 560.89,-16.27 552.24,-16.25"/>
<polygon fill="#63b8ff" stroke="#63b8ff" points="552.15,-12.75 542.13,-16.17 552.1,-19.75 552.15,-12.75"/>
</a>
</g>
</g>
</g>
</svg>
