<?xml version="1.0" encoding="UTF-8" standalone="no"?>
<!DOCTYPE svg PUBLIC "-//W3C//DTD SVG 1.1//EN"
 "http://www.w3.org/Graphics/SVG/1.1/DTD/svg11.dtd">
<!-- Generated by graphviz version 2.43.0 (0)
 -->
<!-- Title: Arcane::ICheckpointReader2 Pages: 1 -->
<svg width="185pt" height="284pt"
 viewBox="0.00 0.00 185.00 284.00" xmlns="http://www.w3.org/2000/svg" xmlns:xlink="http://www.w3.org/1999/xlink">
<g id="graph0" class="graph" transform="scale(1 1) rotate(0) translate(4 280)">
<title>Arcane::ICheckpointReader2</title>
<!-- Node1 -->
<g id="Node000001" class="node">
<title>Node1</title>
<g id="a_Node000001"><a xlink:title="Interface du service de lecture d&#39;une protection/reprise (V2)">
<polygon fill="#999999" stroke="transparent" points="163,-276 14,-276 14,-182 163,-182 163,-276"/>
<text text-anchor="start" x="19.5" y="-264" font-family="Helvetica,sans-Serif" font-size="10.00">Arcane::ICheckpointReader2</text>
<text text-anchor="start" x="87" y="-249" font-family="Helvetica,sans-Serif" font-size="10.00"> </text>
<text text-anchor="start" x="21.5" y="-234" font-family="Helvetica,sans-Serif" font-size="10.00">+</text>
<text text-anchor="start" x="37.5" y="-234" font-family="Helvetica,sans-Serif" font-size="10.00">~ICheckpointReader2()</text>
<text text-anchor="start" x="21.5" y="-219" font-family="Helvetica,sans-Serif" font-size="10.00">+</text>
<text text-anchor="start" x="37.5" y="-219" font-family="Helvetica,sans-Serif" font-size="10.00">dataReader()</text>
<text text-anchor="start" x="21.5" y="-204" font-family="Helvetica,sans-Serif" font-size="10.00">+</text>
<text text-anchor="start" x="37.5" y="-204" font-family="Helvetica,sans-Serif" font-size="10.00">notifyBeginRead()</text>
<text text-anchor="start" x="21.5" y="-189" font-family="Helvetica,sans-Serif" font-size="10.00">+</text>
<text text-anchor="start" x="37.5" y="-189" font-family="Helvetica,sans-Serif" font-size="10.00">notifyEndRead()</text>
<polygon fill="#666666" stroke="#666666" points="14.5,-259 14.5,-259 163.5,-259 163.5,-259 14.5,-259"/>
<polygon fill="#666666" stroke="#666666" points="14.5,-244 14.5,-244 163.5,-244 163.5,-244 14.5,-244"/>
<polygon fill="none" stroke="#666666" points="14,-182 14,-276 163,-276 163,-182 14,-182"/>
</a>
</g>
</g>
<!-- Node2 -->
<g id="Node000002" class="node">
<title>Node2</title>
<g id="a_Node000002"><a xlink:href="../../d1/daa/classArcane_1_1ArcaneBasic2CheckpointReaderService.html" target="_top" xlink:title="Relecture de protection (version 2).">
<polygon fill="white" stroke="transparent" points="177,-146 0,-146 0,0 177,0 177,-146"/>
<text text-anchor="start" x="8.5" y="-134" font-family="Helvetica,sans-Serif" font-size="10.00">Arcane::ArcaneBasic2Checkpoint</text>
<text text-anchor="start" x="53.5" y="-123" font-family="Helvetica,sans-Serif" font-size="10.00">ReaderService</text>
<text text-anchor="start" x="7" y="-108" font-family="Helvetica,sans-Serif" font-size="10.00">&#45;</text>
<text text-anchor="start" x="17.5" y="-108" font-family="Helvetica,sans-Serif" font-size="10.00">m_application</text>
<text text-anchor="start" x="7" y="-93" font-family="Helvetica,sans-Serif" font-size="10.00">&#45;</text>
<text text-anchor="start" x="17.5" y="-93" font-family="Helvetica,sans-Serif" font-size="10.00">m_reader</text>
<text text-anchor="start" x="4.5" y="-78" font-family="Helvetica,sans-Serif" font-size="10.00">+</text>
<text text-anchor="start" x="17.5" y="-78" font-family="Helvetica,sans-Serif" font-size="10.00">ArcaneBasic2CheckpointReader</text>
<text text-anchor="start" x="17.5" y="-67" font-family="Helvetica,sans-Serif" font-size="10.00">Service()</text>
<text text-anchor="start" x="4.5" y="-52" font-family="Helvetica,sans-Serif" font-size="10.00">+</text>
<text text-anchor="start" x="17.5" y="-52" font-family="Helvetica,sans-Serif" font-size="10.00">dataReader()</text>
<text text-anchor="start" x="4.5" y="-37" font-family="Helvetica,sans-Serif" font-size="10.00">+</text>
<text text-anchor="start" x="17.5" y="-37" font-family="Helvetica,sans-Serif" font-size="10.00">notifyBeginRead()</text>
<text text-anchor="start" x="4.5" y="-22" font-family="Helvetica,sans-Serif" font-size="10.00">+</text>
<text text-anchor="start" x="17.5" y="-22" font-family="Helvetica,sans-Serif" font-size="10.00">notifyEndRead()</text>
<text text-anchor="start" x="7" y="-7" font-family="Helvetica,sans-Serif" font-size="10.00">&#45;</text>
<text text-anchor="start" x="17.5" y="-7" font-family="Helvetica,sans-Serif" font-size="10.00">_defaultFileName()</text>
<polygon fill="#666666" stroke="#666666" points="0.5,-118 0.5,-118 177.5,-118 177.5,-118 0.5,-118"/>
<polygon fill="#666666" stroke="#666666" points="0.5,-88 0.5,-88 15.5,-88 15.5,-88 0.5,-88"/>
<polygon fill="#666666" stroke="#666666" points="15.5,-88 15.5,-88 177.5,-88 177.5,-88 15.5,-88"/>
<polygon fill="none" stroke="#666666" points="0,0 0,-146 177,-146 177,0 0,0"/>
</a>
</g>
</g>
<!-- Node1&#45;&gt;Node2 -->
<g id="edge1_Node000001_Node000002" class="edge">
<title>Node1&#45;&gt;Node2</title>
<g id="a_edge1_Node000001_Node000002"><a xlink:title=" ">
<path fill="none" stroke="#63b8ff" d="M88.5,-171.53C88.5,-163.25 88.5,-154.64 88.5,-146.1"/>
<polygon fill="none" stroke="#63b8ff" points="85,-171.79 88.5,-181.79 92,-171.79 85,-171.79"/>
</a>
</g>
</g>
</g>
</svg>
