<?xml version="1.0" encoding="UTF-8" standalone="no"?>
<!DOCTYPE svg PUBLIC "-//W3C//DTD SVG 1.1//EN"
 "http://www.w3.org/Graphics/SVG/1.1/DTD/svg11.dtd">
<!-- Generated by graphviz version 2.43.0 (0)
 -->
<!-- Title: Arcane::mesh::ParticleFamily::removeNeedRemoveMarkedItems Pages: 1 -->
<svg width="586pt" height="504pt"
 viewBox="0.00 0.00 586.00 503.50" xmlns="http://www.w3.org/2000/svg" xmlns:xlink="http://www.w3.org/1999/xlink">
<g id="graph0" class="graph" transform="scale(1 1) rotate(0) translate(4 499.5)">
<title>Arcane::mesh::ParticleFamily::removeNeedRemoveMarkedItems</title>
<!-- Node1 -->
<g id="Node000001" class="node">
<title>Node1</title>
<g id="a_Node000001"><a xlink:title="Supprime des entités et met a jour les connectivites.">
<polygon fill="#999999" stroke="#666666" points="190,-262 0,-262 0,-232 190,-232 190,-262"/>
<text text-anchor="start" x="8" y="-250" font-family="Helvetica,sans-Serif" font-size="10.00">Arcane::mesh::ParticleFamily</text>
<text text-anchor="middle" x="95" y="-239" font-family="Helvetica,sans-Serif" font-size="10.00">::removeNeedRemoveMarkedItems</text>
</a>
</g>
</g>
<!-- Node2 -->
<g id="Node000002" class="node">
<title>Node2</title>
<g id="a_Node000002"><a xlink:href="../../d1/dfb/classArcane_1_1Array.html#afb30a771d3fd8022c7220afe7b78e60b" target="_top" xlink:title="Ajoute l&#39;élément val à la fin du tableau.">
<polygon fill="white" stroke="#666666" points="365,-495.5 259,-495.5 259,-476.5 365,-476.5 365,-495.5"/>
<text text-anchor="middle" x="312" y="-483.5" font-family="Helvetica,sans-Serif" font-size="10.00">Arcane::Array::add</text>
</a>
</g>
</g>
<!-- Node1&#45;&gt;Node2 -->
<g id="edge1_Node000001_Node000002" class="edge">
<title>Node1&#45;&gt;Node2</title>
<g id="a_edge1_Node000001_Node000002"><a xlink:title=" ">
<path fill="none" stroke="#63b8ff" d="M100.3,-262.16C112.57,-302.49 151.71,-413.01 226,-467 232.86,-471.98 240.79,-475.7 248.99,-478.45"/>
<polygon fill="#63b8ff" stroke="#63b8ff" points="248.12,-481.85 258.7,-481.27 250.07,-475.12 248.12,-481.85"/>
</a>
</g>
</g>
<!-- Node3 -->
<g id="Node000003" class="node">
<title>Node3</title>
<g id="a_Node000003"><a xlink:href="../../df/dd4/classArcane_1_1mesh_1_1ItemInternalMap.html#a306882965dec2344c8b9afb7383d59d7" target="_top" xlink:title="Fonction template pour itérer sur les entités de l&#39;instance.">
<polygon fill="white" stroke="#666666" points="386.5,-458 237.5,-458 237.5,-428 386.5,-428 386.5,-458"/>
<text text-anchor="start" x="245.5" y="-446" font-family="Helvetica,sans-Serif" font-size="10.00">Arcane::mesh::ItemInternal</text>
<text text-anchor="middle" x="312" y="-435" font-family="Helvetica,sans-Serif" font-size="10.00">Map::eachItem</text>
</a>
</g>
</g>
<!-- Node1&#45;&gt;Node3 -->
<g id="edge2_Node000001_Node000003" class="edge">
<title>Node1&#45;&gt;Node3</title>
<g id="a_edge2_Node000001_Node000003"><a xlink:title=" ">
<path fill="none" stroke="#63b8ff" d="M103.07,-262.03C119.61,-295.54 164.19,-376.77 226,-419 228.37,-420.62 230.86,-422.14 233.42,-423.55"/>
<polygon fill="#63b8ff" stroke="#63b8ff" points="231.88,-426.69 242.39,-427.96 234.97,-420.41 231.88,-426.69"/>
</a>
</g>
</g>
<!-- Node4 -->
<g id="Node000004" class="node">
<title>Node4</title>
<g id="a_Node000004"><a xlink:href="../../d7/dac/classArcane_1_1ItemBase.html#a5030296e5244ff3c2cc6fc65dba7d128" target="_top" xlink:title="Flags de l&#39;entité">
<polygon fill="white" stroke="#666666" points="378,-409.5 246,-409.5 246,-390.5 378,-390.5 378,-409.5"/>
<text text-anchor="middle" x="312" y="-397.5" font-family="Helvetica,sans-Serif" font-size="10.00">Arcane::ItemBase::flags</text>
</a>
</g>
</g>
<!-- Node1&#45;&gt;Node4 -->
<g id="edge3_Node000001_Node000004" class="edge">
<title>Node1&#45;&gt;Node4</title>
<g id="a_edge3_Node000001_Node000004"><a xlink:title=" ">
<path fill="none" stroke="#63b8ff" d="M106.13,-262.24C125.72,-290.43 171.69,-350.61 226,-381 230.15,-383.32 234.57,-385.36 239.12,-387.15"/>
<polygon fill="#63b8ff" stroke="#63b8ff" points="238.02,-390.48 248.61,-390.49 240.34,-383.87 238.02,-390.48"/>
</a>
</g>
</g>
<!-- Node5 -->
<g id="Node000005" class="node">
<title>Node5</title>
<g id="a_Node000005"><a xlink:href="../../d1/d3f/classArcane_1_1mesh_1_1ParticleFamily.html#ab0eb85928478e232e0fe39fa4313651c" target="_top" xlink:title="récupère le flag pour gérer les particules ghost de la famille">
<polygon fill="white" stroke="#666666" points="391,-372 233,-372 233,-342 391,-342 391,-372"/>
<text text-anchor="start" x="241" y="-360" font-family="Helvetica,sans-Serif" font-size="10.00">Arcane::mesh::ParticleFamily</text>
<text text-anchor="middle" x="312" y="-349" font-family="Helvetica,sans-Serif" font-size="10.00">::getEnableGhostItems</text>
</a>
</g>
</g>
<!-- Node1&#45;&gt;Node5 -->
<g id="edge4_Node000001_Node000005" class="edge">
<title>Node1&#45;&gt;Node5</title>
<g id="a_edge4_Node000001_Node000005"><a xlink:title=" ">
<path fill="none" stroke="#63b8ff" d="M114.71,-262.11C139.04,-281.08 183.44,-313.49 226,-333 230.3,-334.97 234.81,-336.82 239.4,-338.54"/>
<polygon fill="#63b8ff" stroke="#63b8ff" points="238.31,-341.87 248.9,-341.9 240.64,-335.27 238.31,-341.87"/>
</a>
</g>
</g>
<!-- Node6 -->
<g id="Node000006" class="node">
<title>Node6</title>
<g id="a_Node000006"><a xlink:href="../../d1/d17/classArcane_1_1TraceAccessor.html#a7f15f017b10b72c85bba3fce76314619" target="_top" xlink:title="Flot pour un message d&#39;information.">
<polygon fill="white" stroke="#666666" points="374.5,-324 249.5,-324 249.5,-294 374.5,-294 374.5,-324"/>
<text text-anchor="start" x="257.5" y="-312" font-family="Helvetica,sans-Serif" font-size="10.00">Arcane::TraceAccessor</text>
<text text-anchor="middle" x="312" y="-301" font-family="Helvetica,sans-Serif" font-size="10.00">::info</text>
</a>
</g>
</g>
<!-- Node1&#45;&gt;Node6 -->
<g id="edge5_Node000001_Node000006" class="edge">
<title>Node1&#45;&gt;Node6</title>
<g id="a_edge5_Node000001_Node000006"><a xlink:title=" ">
<path fill="none" stroke="#63b8ff" d="M147.22,-262.09C171.14,-269.11 200.01,-277.53 226,-285 232.99,-287.01 240.31,-289.1 247.6,-291.17"/>
<polygon fill="#63b8ff" stroke="#63b8ff" points="246.9,-294.61 257.47,-293.97 248.81,-287.87 246.9,-294.61"/>
</a>
</g>
</g>
<!-- Node7 -->
<g id="Node000007" class="node">
<title>Node7</title>
<g id="a_Node000007"><a xlink:href="../../df/d5f/classArcane_1_1Item.html#ada9f6f3cc4b41f5c597996b87ae22160" target="_top" xlink:title="Partie interne de l&#39;entité.">
<polygon fill="white" stroke="#666666" points="377.5,-275.5 246.5,-275.5 246.5,-256.5 377.5,-256.5 377.5,-275.5"/>
<text text-anchor="middle" x="312" y="-263.5" font-family="Helvetica,sans-Serif" font-size="10.00">Arcane::Item::itemBase</text>
</a>
</g>
</g>
<!-- Node1&#45;&gt;Node7 -->
<g id="edge6_Node000001_Node000007" class="edge">
<title>Node1&#45;&gt;Node7</title>
<g id="a_edge6_Node000001_Node000007"><a xlink:title=" ">
<path fill="none" stroke="#63b8ff" d="M190.3,-255.33C205.7,-256.69 221.47,-258.09 236.32,-259.4"/>
<polygon fill="#63b8ff" stroke="#63b8ff" points="236.16,-262.9 246.43,-260.29 236.78,-255.93 236.16,-262.9"/>
</a>
</g>
</g>
<!-- Node8 -->
<g id="Node000008" class="node">
<title>Node8</title>
<g id="a_Node000008"><a xlink:href="../../df/d5f/classArcane_1_1Item.html#a337f519e8727634e55ea621f4734ec04" target="_top" xlink:title="Identifiant local de l&#39;entité dans le sous&#45;domaine du processeur.">
<polygon fill="white" stroke="#666666" points="370.5,-238.5 253.5,-238.5 253.5,-219.5 370.5,-219.5 370.5,-238.5"/>
<text text-anchor="middle" x="312" y="-226.5" font-family="Helvetica,sans-Serif" font-size="10.00">Arcane::Item::localId</text>
</a>
</g>
</g>
<!-- Node1&#45;&gt;Node8 -->
<g id="edge7_Node000001_Node000008" class="edge">
<title>Node1&#45;&gt;Node8</title>
<g id="a_edge7_Node000001_Node000008"><a xlink:title=" ">
<path fill="none" stroke="#63b8ff" d="M190.3,-239.1C208.05,-237.62 226.3,-236.09 243.05,-234.69"/>
<polygon fill="#63b8ff" stroke="#63b8ff" points="243.59,-238.16 253.27,-233.83 243.01,-231.18 243.59,-238.16"/>
</a>
</g>
</g>
<!-- Node9 -->
<g id="Node000009" class="node">
<title>Node9</title>
<g id="a_Node000009"><a xlink:href="../../df/d5f/classArcane_1_1Item.html#a17a9cd3e1ccb4eee43d03ad449c60b04" target="_top" xlink:title="Partie interne modifiable de l&#39;entité.">
<polygon fill="white" stroke="#666666" points="398,-201.5 226,-201.5 226,-182.5 398,-182.5 398,-201.5"/>
<text text-anchor="middle" x="312" y="-189.5" font-family="Helvetica,sans-Serif" font-size="10.00">Arcane::Item::mutableItemBase</text>
</a>
</g>
</g>
<!-- Node1&#45;&gt;Node9 -->
<g id="edge8_Node000001_Node000009" class="edge">
<title>Node1&#45;&gt;Node9</title>
<g id="a_edge8_Node000001_Node000009"><a xlink:title=" ">
<path fill="none" stroke="#63b8ff" d="M148.03,-231.95C171.74,-225.25 200.21,-217.45 226,-211 235.79,-208.55 246.26,-206.09 256.38,-203.78"/>
<polygon fill="#63b8ff" stroke="#63b8ff" points="257.36,-207.15 266.35,-201.54 255.82,-200.32 257.36,-207.15"/>
</a>
</g>
</g>
<!-- Node10 -->
<g id="Node000010" class="node">
<title>Node10</title>
<g id="a_Node000010"><a xlink:href="../../d1/d3f/classArcane_1_1mesh_1_1ParticleFamily.html#a4083d2685a3cc93f57bd45ccfe72ba6e" target="_top" xlink:title="Nom de la famille.">
<polygon fill="white" stroke="#666666" points="391,-164 233,-164 233,-134 391,-134 391,-164"/>
<text text-anchor="start" x="241" y="-152" font-family="Helvetica,sans-Serif" font-size="10.00">Arcane::mesh::ParticleFamily</text>
<text text-anchor="middle" x="312" y="-141" font-family="Helvetica,sans-Serif" font-size="10.00">::name</text>
</a>
</g>
</g>
<!-- Node1&#45;&gt;Node10 -->
<g id="edge9_Node000001_Node000010" class="edge">
<title>Node1&#45;&gt;Node10</title>
<g id="a_edge9_Node000001_Node000010"><a xlink:title=" ">
<path fill="none" stroke="#63b8ff" d="M119.14,-231.88C144.53,-215.81 186.88,-190.49 226,-174 231.67,-171.61 237.65,-169.35 243.7,-167.25"/>
<polygon fill="#63b8ff" stroke="#63b8ff" points="244.85,-170.56 253.23,-164.08 242.64,-163.92 244.85,-170.56"/>
</a>
</g>
</g>
<!-- Node12 -->
<g id="Node000012" class="node">
<title>Node12</title>
<g id="a_Node000012"><a xlink:href="../../d1/dfb/classArcane_1_1Array.html#a37ce70c905522ac539c9c48baffcaabf" target="_top" xlink:title="Réserve le mémoire pour new_capacity éléments.">
<polygon fill="white" stroke="#666666" points="374.5,-115.5 249.5,-115.5 249.5,-96.5 374.5,-96.5 374.5,-115.5"/>
<text text-anchor="middle" x="312" y="-103.5" font-family="Helvetica,sans-Serif" font-size="10.00">Arcane::Array::reserve</text>
</a>
</g>
</g>
<!-- Node1&#45;&gt;Node12 -->
<g id="edge11_Node000001_Node000012" class="edge">
<title>Node1&#45;&gt;Node12</title>
<g id="a_edge11_Node000001_Node000012"><a xlink:title=" ">
<path fill="none" stroke="#63b8ff" d="M107.43,-231.93C128.08,-205.82 174.3,-152.36 226,-125 230.48,-122.63 235.24,-120.55 240.14,-118.74"/>
<polygon fill="#63b8ff" stroke="#63b8ff" points="241.3,-122.04 249.68,-115.55 239.08,-115.4 241.3,-122.04"/>
</a>
</g>
</g>
<!-- Node13 -->
<g id="Node000013" class="node">
<title>Node13</title>
<g id="a_Node000013"><a xlink:href="../../d6/d29/classArcane_1_1MutableItemBase.html#a7b55c0cbcac5cbea364b599ec23e8510" target="_top" xlink:title="Positionne les flags de l&#39;entité">
<polygon fill="white" stroke="#666666" points="383.5,-78 240.5,-78 240.5,-48 383.5,-48 383.5,-78"/>
<text text-anchor="start" x="248.5" y="-66" font-family="Helvetica,sans-Serif" font-size="10.00">Arcane::MutableItemBase</text>
<text text-anchor="middle" x="312" y="-55" font-family="Helvetica,sans-Serif" font-size="10.00">::setFlags</text>
</a>
</g>
</g>
<!-- Node1&#45;&gt;Node13 -->
<g id="edge12_Node000001_Node000013" class="edge">
<title>Node1&#45;&gt;Node13</title>
<g id="a_edge12_Node000001_Node000013"><a xlink:title=" ">
<path fill="none" stroke="#63b8ff" d="M104.21,-231.74C122.04,-200.05 167.47,-126.83 226,-88 229.06,-85.97 232.3,-84.1 235.64,-82.37"/>
<polygon fill="#63b8ff" stroke="#63b8ff" points="237.12,-85.55 244.71,-78.16 234.17,-79.2 237.12,-85.55"/>
</a>
</g>
</g>
<!-- Node14 -->
<g id="Node000014" class="node">
<title>Node14</title>
<g id="a_Node000014"><a xlink:href="../../d5/d72/classArcane_1_1AbstractArray.html#a462e7632cf9664d773016bc972bed483" target="_top" xlink:title="Nombre d&#39;éléments du vecteur.">
<polygon fill="white" stroke="#666666" points="373.5,-30 250.5,-30 250.5,0 373.5,0 373.5,-30"/>
<text text-anchor="start" x="258.5" y="-18" font-family="Helvetica,sans-Serif" font-size="10.00">Arcane::AbstractArray</text>
<text text-anchor="middle" x="312" y="-7" font-family="Helvetica,sans-Serif" font-size="10.00">::size</text>
</a>
</g>
</g>
<!-- Node1&#45;&gt;Node14 -->
<g id="edge13_Node000001_Node000014" class="edge">
<title>Node1&#45;&gt;Node14</title>
<g id="a_edge13_Node000001_Node000014"><a xlink:title=" ">
<path fill="none" stroke="#63b8ff" d="M101.11,-231.76C114.82,-193.25 156.17,-91.39 226,-39 230.52,-35.61 235.51,-32.69 240.72,-30.19"/>
<polygon fill="#63b8ff" stroke="#63b8ff" points="242.48,-33.25 250.32,-26.12 239.75,-26.8 242.48,-33.25"/>
</a>
</g>
</g>
<!-- Node11 -->
<g id="Node000011" class="node">
<title>Node11</title>
<g id="a_Node000011"><a xlink:href="../../d8/d0f/classArcane_1_1mesh_1_1ItemFamily.html#af1ec602c741363ce0bd673ef8b1653e2" target="_top" xlink:title="Nom de la famille.">
<polygon fill="white" stroke="#666666" points="578,-164 434,-164 434,-134 578,-134 578,-164"/>
<text text-anchor="start" x="442" y="-152" font-family="Helvetica,sans-Serif" font-size="10.00">Arcane::mesh::ItemFamily</text>
<text text-anchor="middle" x="506" y="-141" font-family="Helvetica,sans-Serif" font-size="10.00">::name</text>
</a>
</g>
</g>
<!-- Node10&#45;&gt;Node11 -->
<g id="edge10_Node000010_Node000011" class="edge">
<title>Node10&#45;&gt;Node11</title>
<g id="a_edge10_Node000010_Node000011"><a xlink:title=" ">
<path fill="none" stroke="#63b8ff" d="M391.09,-149C401.79,-149 412.8,-149 423.56,-149"/>
<polygon fill="#63b8ff" stroke="#63b8ff" points="423.78,-152.5 433.78,-149 423.78,-145.5 423.78,-152.5"/>
</a>
</g>
</g>
</g>
</svg>
