<?xml version="1.0" encoding="UTF-8" standalone="no"?>
<!DOCTYPE svg PUBLIC "-//W3C//DTD SVG 1.1//EN"
 "http://www.w3.org/Graphics/SVG/1.1/DTD/svg11.dtd">
<!-- Generated by graphviz version 2.43.0 (0)
 -->
<!-- Title: Arcane::Materials::VariableIndexerCommonArgs Pages: 1 -->
<!--zoomable 306 -->

<svg id="main" version="1.1" xmlns="http://www.w3.org/2000/svg" xmlns:xlink="http://www.w3.org/1999/xlink" xml:space="preserve" onload="init(evt)">

<style type="text/css"><![CDATA[
.node, .edge {opacity: 0.7;}
.node.selected, .edge.selected {opacity: 1;}
.edge:hover path { stroke: red; }
.edge:hover polygon { stroke: red; fill: red; }
]]></style>

<defs>
  <circle id="rim" cx="0" cy="0" r="7"/>
  <circle id="rim2" cx="0" cy="0" r="3.5"/>
  <g id="zoomPlus">
    <use xlink:href="#rim" fill="#404040"><set attributeName="fill" to="#808080" begin="zoomplus.mouseover" end="zoomplus.mouseout"/></use>
    <path d="M-4,0h8M0,-4v8" fill="none" stroke="white" stroke-width="1.5" pointer-events="none"/>
  </g>
  <g id="zoomMin">
    <use xlink:href="#rim" fill="#404040"><set attributeName="fill" to="#808080" begin="zoomminus.mouseover" end="zoomminus.mouseout"/></use>
    <path d="M-4,0h8" fill="none" stroke="white" stroke-width="1.5" pointer-events="none"/>
  </g>
  <g id="arrowUp" transform="translate(30 24)">
    <use xlink:href="#rim"/>
    <path pointer-events="none" fill="none" stroke="white" stroke-width="1.5" d="M0,-3.0v7 M-2.5,-0.5L0,-3.0L2.5,-0.5"/>
  </g>
  <g id="arrowRight" transform="rotate(90) translate(36 -43)">
    <use xlink:href="#rim"/>
    <path pointer-events="none" fill="none" stroke="white" stroke-width="1.5" d="M0,-3.0v7 M-2.5,-0.5L0,-3.0L2.5,-0.5"/>
  </g>
  <g id="arrowDown" transform="rotate(180) translate(-30 -48)">
    <use xlink:href="#rim"/>
    <path pointer-events="none" fill="none" stroke="white" stroke-width="1.5" d="M0,-3.0v7 M-2.5,-0.5L0,-3.0L2.5,-0.5"/>
  </g>
  <g id="arrowLeft" transform="rotate(270) translate(-36 17)">
    <use xlink:href="#rim"/>
    <path pointer-events="none" fill="none" stroke="white" stroke-width="1.5" d="M0,-3.0v7 M-2.5,-0.5L0,-3.0L2.5,-0.5"/>
  </g>
  <g id="resetDef">
    <use xlink:href="#rim2" fill="#404040"><set attributeName="fill" to="#808080" begin="reset.mouseover" end="reset.mouseout"/></use>
  </g>
</defs>
<script type="application/ecmascript">
var viewWidth = 523;
var viewHeight = 306;
var sectionId = 'dynsection-0';
</script>
<script type="application/ecmascript" xlink:href="../../svg.min.js"/>
<svg id="graph" class="graph">
<g id="viewport">
<title>Arcane::Materials::VariableIndexerCommonArgs</title>
<!-- Node1 -->
<g id="Node000001" class="node">
<title>Node1</title>
<g id="a_Node000001"><a xlink:title="Arguments communs pour toutes les méthodes de MeshMaterialVariableIndexer.">
<polygon fill="#999999" stroke="transparent" points="354,-298 183,-298 183,-178 354,-178 354,-298"/>
<text text-anchor="start" x="198" y="-286" font-family="Helvetica,sans-Serif" font-size="10.00">Arcane::Materials::</text>
<text text-anchor="start" x="198" y="-275" font-family="Helvetica,sans-Serif" font-size="10.00">VariableIndexerCommonArgs</text>
<text text-anchor="start" x="187.5" y="-260" font-family="Helvetica,sans-Serif" font-size="10.00">+</text>
<text text-anchor="start" x="200.5" y="-260" font-family="Helvetica,sans-Serif" font-size="10.00">m_var_index</text>
<text text-anchor="start" x="187.5" y="-245" font-family="Helvetica,sans-Serif" font-size="10.00">+</text>
<text text-anchor="start" x="200.5" y="-245" font-family="Helvetica,sans-Serif" font-size="10.00">m_queue</text>
<text text-anchor="start" x="187.5" y="-230" font-family="Helvetica,sans-Serif" font-size="10.00">+</text>
<text text-anchor="start" x="200.5" y="-230" font-family="Helvetica,sans-Serif" font-size="10.00">m_copy_data</text>
<text text-anchor="start" x="187.5" y="-215" font-family="Helvetica,sans-Serif" font-size="10.00">+</text>
<text text-anchor="start" x="200.5" y="-215" font-family="Helvetica,sans-Serif" font-size="10.00">VariableIndexerCommonArgs()</text>
<text text-anchor="start" x="187.5" y="-200" font-family="Helvetica,sans-Serif" font-size="10.00">+</text>
<text text-anchor="start" x="200.5" y="-200" font-family="Helvetica,sans-Serif" font-size="10.00">addOneCopyData()</text>
<text text-anchor="start" x="187.5" y="-185" font-family="Helvetica,sans-Serif" font-size="10.00">+</text>
<text text-anchor="start" x="200.5" y="-185" font-family="Helvetica,sans-Serif" font-size="10.00">isUseOneCommand()</text>
<polygon fill="#666666" stroke="#666666" points="183.5,-270 183.5,-270 354.5,-270 354.5,-270 183.5,-270"/>
<polygon fill="#666666" stroke="#666666" points="183.5,-225 183.5,-225 198.5,-225 198.5,-225 183.5,-225"/>
<polygon fill="#666666" stroke="#666666" points="198.5,-225 198.5,-225 354.5,-225 354.5,-225 198.5,-225"/>
<polygon fill="none" stroke="#666666" points="183,-178 183,-298 354,-298 354,-178 183,-178"/>
</a>
</g>
</g>
<!-- Node2 -->
<g id="Node000002" class="node">
<title>Node2</title>
<g id="a_Node000002"><a xlink:href="../../db/db7/classArcane_1_1Materials_1_1CopyBetweenPartialAndGlobalArgs.html" target="_top" xlink:title="Arguments des méthodes de copie entre valeurs partielles et globales.">
<polygon fill="white" stroke="transparent" points="181,-142 0,-142 0,0 181,0 181,-142"/>
<text text-anchor="start" x="5.5" y="-130" font-family="Helvetica,sans-Serif" font-size="10.00">Arcane::Materials::</text>
<text text-anchor="start" x="5.5" y="-119" font-family="Helvetica,sans-Serif" font-size="10.00">CopyBetweenPartialAndGlobalArgs</text>
<text text-anchor="start" x="7" y="-104" font-family="Helvetica,sans-Serif" font-size="10.00">+</text>
<text text-anchor="start" x="22.5" y="-104" font-family="Helvetica,sans-Serif" font-size="10.00">m_local_ids</text>
<text text-anchor="start" x="7" y="-89" font-family="Helvetica,sans-Serif" font-size="10.00">+</text>
<text text-anchor="start" x="22.5" y="-89" font-family="Helvetica,sans-Serif" font-size="10.00">m_indexes_in_multiple</text>
<text text-anchor="start" x="7" y="-74" font-family="Helvetica,sans-Serif" font-size="10.00">+</text>
<text text-anchor="start" x="22.5" y="-74" font-family="Helvetica,sans-Serif" font-size="10.00">m_do_copy_between_partial</text>
<text text-anchor="start" x="22.5" y="-63" font-family="Helvetica,sans-Serif" font-size="10.00">_and_pure</text>
<text text-anchor="start" x="7" y="-48" font-family="Helvetica,sans-Serif" font-size="10.00">+</text>
<text text-anchor="start" x="22.5" y="-48" font-family="Helvetica,sans-Serif" font-size="10.00">m_is_global_to_partial</text>
<text text-anchor="start" x="7" y="-33" font-family="Helvetica,sans-Serif" font-size="10.00">+</text>
<text text-anchor="start" x="22.5" y="-33" font-family="Helvetica,sans-Serif" font-size="10.00">m_use_generic_copy</text>
<text text-anchor="start" x="7" y="-18" font-family="Helvetica,sans-Serif" font-size="10.00">+</text>
<text text-anchor="start" x="22.5" y="-18" font-family="Helvetica,sans-Serif" font-size="10.00">CopyBetweenPartialAndGlobal</text>
<text text-anchor="start" x="22.5" y="-7" font-family="Helvetica,sans-Serif" font-size="10.00">Args()</text>
<polygon fill="#666666" stroke="#666666" points="0.5,-114 0.5,-114 181.5,-114 181.5,-114 0.5,-114"/>
<polygon fill="#666666" stroke="#666666" points="0.5,-28 0.5,-28 20.5,-28 20.5,-28 0.5,-28"/>
<polygon fill="#666666" stroke="#666666" points="20.5,-28 20.5,-28 181.5,-28 181.5,-28 20.5,-28"/>
<polygon fill="none" stroke="#666666" points="0,0 0,-142 181,-142 181,0 0,0"/>
</a>
</g>
</g>
<!-- Node1&#45;&gt;Node2 -->
<g id="edge1_Node000001_Node000002" class="edge">
<title>Node1&#45;&gt;Node2</title>
<g id="a_edge1_Node000001_Node000002"><a xlink:title=" ">
<path fill="none" stroke="#63b8ff" d="M197.36,-171.06C187.13,-161.58 176.58,-151.79 166.27,-142.23"/>
<polygon fill="none" stroke="#63b8ff" points="195.03,-173.67 204.74,-177.9 199.79,-168.53 195.03,-173.67"/>
</a>
</g>
</g>
<!-- Node3 -->
<g id="Node000003" class="node">
<title>Node3</title>
<g id="a_Node000003"><a xlink:href="../../d2/d90/classArcane_1_1Materials_1_1InitializeWithZeroArgs.html" target="_top" xlink:title="Arguments des méthodes de copie entre valeurs partielles et globales.">
<polygon fill="white" stroke="transparent" points="337.5,-101 199.5,-101 199.5,-41 337.5,-41 337.5,-101"/>
<text text-anchor="start" x="214" y="-89" font-family="Helvetica,sans-Serif" font-size="10.00">Arcane::Materials::</text>
<text text-anchor="start" x="214" y="-78" font-family="Helvetica,sans-Serif" font-size="10.00">InitializeWithZeroArgs</text>
<text text-anchor="start" x="203.5" y="-63" font-family="Helvetica,sans-Serif" font-size="10.00">+</text>
<text text-anchor="start" x="216.5" y="-63" font-family="Helvetica,sans-Serif" font-size="10.00">m_indexes_in_multiple</text>
<text text-anchor="start" x="203.5" y="-48" font-family="Helvetica,sans-Serif" font-size="10.00">+</text>
<text text-anchor="start" x="216.5" y="-48" font-family="Helvetica,sans-Serif" font-size="10.00">InitializeWithZeroArgs()</text>
<polygon fill="#666666" stroke="#666666" points="199.5,-73 199.5,-73 337.5,-73 337.5,-73 199.5,-73"/>
<polygon fill="#666666" stroke="#666666" points="199.5,-58 199.5,-58 214.5,-58 214.5,-58 199.5,-58"/>
<polygon fill="#666666" stroke="#666666" points="214.5,-58 214.5,-58 337.5,-58 337.5,-58 214.5,-58"/>
<polygon fill="none" stroke="#666666" points="199.5,-41 199.5,-101 337.5,-101 337.5,-41 199.5,-41"/>
</a>
</g>
</g>
<!-- Node1&#45;&gt;Node3 -->
<g id="edge2_Node000001_Node000003" class="edge">
<title>Node1&#45;&gt;Node3</title>
<g id="a_edge2_Node000001_Node000003"><a xlink:title=" ">
<path fill="none" stroke="#63b8ff" d="M268.5,-167.67C268.5,-144.36 268.5,-119.61 268.5,-101.12"/>
<polygon fill="none" stroke="#63b8ff" points="265,-167.9 268.5,-177.9 272,-167.9 265,-167.9"/>
</a>
</g>
</g>
<!-- Node4 -->
<g id="Node000004" class="node">
<title>Node4</title>
<g id="a_Node000004"><a xlink:href="../../d4/d9a/classArcane_1_1Materials_1_1ResizeVariableIndexerArgs.html" target="_top" xlink:title="Arguments des méthodes de copie entre valeurs partielles et globales.">
<polygon fill="white" stroke="transparent" points="515,-101 356,-101 356,-41 515,-41 515,-101"/>
<text text-anchor="start" x="371" y="-89" font-family="Helvetica,sans-Serif" font-size="10.00">Arcane::Materials::</text>
<text text-anchor="start" x="371" y="-78" font-family="Helvetica,sans-Serif" font-size="10.00">ResizeVariableIndexerArgs</text>
<text text-anchor="start" x="434" y="-63" font-family="Helvetica,sans-Serif" font-size="10.00"> </text>
<text text-anchor="start" x="360.5" y="-48" font-family="Helvetica,sans-Serif" font-size="10.00">+</text>
<text text-anchor="start" x="373.5" y="-48" font-family="Helvetica,sans-Serif" font-size="10.00">ResizeVariableIndexerArgs()</text>
<polygon fill="#666666" stroke="#666666" points="356.5,-73 356.5,-73 515.5,-73 515.5,-73 356.5,-73"/>
<polygon fill="#666666" stroke="#666666" points="356.5,-58 356.5,-58 515.5,-58 515.5,-58 356.5,-58"/>
<polygon fill="none" stroke="#666666" points="356,-41 356,-101 515,-101 515,-41 356,-41"/>
</a>
</g>
</g>
<!-- Node1&#45;&gt;Node4 -->
<g id="edge3_Node000001_Node000004" class="edge">
<title>Node1&#45;&gt;Node4</title>
<g id="a_edge3_Node000001_Node000004"><a xlink:title=" ">
<path fill="none" stroke="#63b8ff" d="M335.51,-170.79C360.01,-146.59 386.48,-120.44 406.02,-101.12"/>
<polygon fill="none" stroke="#63b8ff" points="332.97,-168.38 328.32,-177.9 337.89,-173.36 332.97,-168.38"/>
</a>
</g>
</g>
</g>
</svg>

<g id="navigator" transform="translate(0 0)" fill="#404254">
  <rect fill="#f2f5e9" fill-opacity="0.5" stroke="#606060" stroke-width=".5" x="0" y="0" width="60" height="60"/>
  <use id="zoomplus" xlink:href="#zoomPlus" x="17" y="9" onmousedown="handleZoom(evt,'in')"/>
  <use id="zoomminus" xlink:href="#zoomMin" x="42" y="9" onmousedown="handleZoom(evt,'out')"/>
  <use id="reset" xlink:href="#resetDef" x="30" y="36" onmousedown="handleReset()"/>
   <use id="arrowup" xlink:href="#arrowUp" x="0" y="0" onmousedown="handlePan(0,-1)"/>
  <use id="arrowright" xlink:href="#arrowRight" x="0" y="0" onmousedown="handlePan(1,0)"/>
  <use id="arrowdown" xlink:href="#arrowDown" x="0" y="0" onmousedown="handlePan(0,1)"/>
  <use id="arrowleft" xlink:href="#arrowLeft" x="0" y="0" onmousedown="handlePan(-1,0)"/>
</g>
<svg viewBox="0 0 15 15" width="100%" height="30px" preserveAspectRatio="xMaxYMin meet">
 <g id="arrow_out" transform="scale(0.3 0.3)">
  <a xlink:href="classArcane_1_1Materials_1_1VariableIndexerCommonArgs__inherit__graph_org.svg" target="_base">
   <rect id="button" ry="5" rx="5" y="6" x="6" height="38" width="38"
        fill="#f2f5e9" fill-opacity="0.5" stroke="#606060" stroke-width="1.0"/>
   <path id="arrow"
     d="M 11.500037,31.436501 C 11.940474,20.09759 22.043105,11.32322 32.158766,21.979434 L 37.068811,17.246167 C 37.068811,17.246167 37.088388,32 37.088388,32 L 22.160133,31.978069 C 22.160133,31.978069 26.997745,27.140456 26.997745,27.140456 C 18.528582,18.264221 13.291696,25.230495 11.500037,31.436501 z"
     style="fill:#404040;"/>
  </a>
 </g>
</svg>

<style type='text/css'>
<![CDATA[
[data-mouse-over-selected='false'] { opacity: 0.7; }
[data-mouse-over-selected='true']  { opacity: 1.0; }
]]>
</style>
<script type="application/ecmascript"><![CDATA[
document.addEventListener('DOMContentLoaded', (event) => {
  highlightEdges();
  highlightAdjacentNodes();
});
]]></script>
</svg>
