<?xml version="1.0" encoding="UTF-8" standalone="no"?>
<!DOCTYPE svg PUBLIC "-//W3C//DTD SVG 1.1//EN"
 "http://www.w3.org/Graphics/SVG/1.1/DTD/svg11.dtd">
<!-- Generated by graphviz version 2.43.0 (0)
 -->
<!-- Title: Arcane::ItemTypeMng::_singleton Pages: 1 -->
<!--zoomable 286 -->

<svg id="main" version="1.1" xmlns="http://www.w3.org/2000/svg" xmlns:xlink="http://www.w3.org/1999/xlink" xml:space="preserve" onload="init(evt)">

<style type="text/css"><![CDATA[
.node, .edge {opacity: 0.7;}
.node.selected, .edge.selected {opacity: 1;}
.edge:hover path { stroke: red; }
.edge:hover polygon { stroke: red; fill: red; }
]]></style>

<defs>
  <circle id="rim" cx="0" cy="0" r="7"/>
  <circle id="rim2" cx="0" cy="0" r="3.5"/>
  <g id="zoomPlus">
    <use xlink:href="#rim" fill="#404040"><set attributeName="fill" to="#808080" begin="zoomplus.mouseover" end="zoomplus.mouseout"/></use>
    <path d="M-4,0h8M0,-4v8" fill="none" stroke="white" stroke-width="1.5" pointer-events="none"/>
  </g>
  <g id="zoomMin">
    <use xlink:href="#rim" fill="#404040"><set attributeName="fill" to="#808080" begin="zoomminus.mouseover" end="zoomminus.mouseout"/></use>
    <path d="M-4,0h8" fill="none" stroke="white" stroke-width="1.5" pointer-events="none"/>
  </g>
  <g id="arrowUp" transform="translate(30 24)">
    <use xlink:href="#rim"/>
    <path pointer-events="none" fill="none" stroke="white" stroke-width="1.5" d="M0,-3.0v7 M-2.5,-0.5L0,-3.0L2.5,-0.5"/>
  </g>
  <g id="arrowRight" transform="rotate(90) translate(36 -43)">
    <use xlink:href="#rim"/>
    <path pointer-events="none" fill="none" stroke="white" stroke-width="1.5" d="M0,-3.0v7 M-2.5,-0.5L0,-3.0L2.5,-0.5"/>
  </g>
  <g id="arrowDown" transform="rotate(180) translate(-30 -48)">
    <use xlink:href="#rim"/>
    <path pointer-events="none" fill="none" stroke="white" stroke-width="1.5" d="M0,-3.0v7 M-2.5,-0.5L0,-3.0L2.5,-0.5"/>
  </g>
  <g id="arrowLeft" transform="rotate(270) translate(-36 17)">
    <use xlink:href="#rim"/>
    <path pointer-events="none" fill="none" stroke="white" stroke-width="1.5" d="M0,-3.0v7 M-2.5,-0.5L0,-3.0L2.5,-0.5"/>
  </g>
  <g id="resetDef">
    <use xlink:href="#rim2" fill="#404040"><set attributeName="fill" to="#808080" begin="reset.mouseover" end="reset.mouseout"/></use>
  </g>
</defs>
<script type="application/ecmascript">
var viewWidth = 851;
var viewHeight = 286;
var sectionId = 'dynsection-8';
</script>
<script type="application/ecmascript" xlink:href="../../svg.min.js"/>
<svg id="graph" class="graph">
<g id="viewport">
<title>Arcane::ItemTypeMng::_singleton</title>
<!-- Node1 -->
<g id="Node000001" class="node">
<title>Node1</title>
<g id="a_Node000001"><a xlink:title="Instance singleton du type.">
<polygon fill="#999999" stroke="#666666" points="843,-183 721,-183 721,-153 843,-153 843,-183"/>
<text text-anchor="start" x="729" y="-171" font-family="Helvetica,sans-Serif" font-size="10.00">Arcane::ItemTypeMng</text>
<text text-anchor="middle" x="782" y="-160" font-family="Helvetica,sans-Serif" font-size="10.00">::_singleton</text>
</a>
</g>
</g>
<!-- Node2 -->
<g id="Node000002" class="node">
<title>Node2</title>
<g id="a_Node000002"><a xlink:href="../../da/dae/classArcane_1_1ArcaneMain.html#a1541bdfeef50d45b8a797c227d1c4545" target="_top" xlink:title="Initialise Arcane.">
<polygon fill="white" stroke="#666666" points="681,-269 567,-269 567,-239 681,-239 681,-269"/>
<text text-anchor="start" x="575" y="-257" font-family="Helvetica,sans-Serif" font-size="10.00">Arcane::ArcaneMain</text>
<text text-anchor="middle" x="624" y="-246" font-family="Helvetica,sans-Serif" font-size="10.00">::arcaneInitialize</text>
</a>
</g>
</g>
<!-- Node1&#45;&gt;Node2 -->
<g id="edge1_Node000001_Node000002" class="edge">
<title>Node1&#45;&gt;Node2</title>
<g id="a_edge1_Node000001_Node000002"><a xlink:title=" ">
<path fill="none" stroke="#63b8ff" d="M744.69,-188.02C716.46,-203.58 677.89,-224.84 652.26,-238.97"/>
<polygon fill="#63b8ff" stroke="#63b8ff" points="746.4,-191.07 753.47,-183.18 743.02,-184.94 746.4,-191.07"/>
</a>
</g>
</g>
<!-- Node5 -->
<g id="Node000005" class="node">
<title>Node5</title>
<g id="a_Node000005"><a xlink:href="../../d6/d2a/classArcane_1_1Application.html#a90209a52f4e60c416dd7f30ac01c8204" target="_top" xlink:title="Initialise l&#39;instance. L&#39;instance n&#39;est pas utilisable tant que cette méthode n&#39;a pas été appelée.">
<polygon fill="white" stroke="#666666" points="679.5,-207 568.5,-207 568.5,-177 679.5,-177 679.5,-207"/>
<text text-anchor="start" x="576.5" y="-195" font-family="Helvetica,sans-Serif" font-size="10.00">Arcane::Application</text>
<text text-anchor="middle" x="624" y="-184" font-family="Helvetica,sans-Serif" font-size="10.00">::initialize</text>
</a>
</g>
</g>
<!-- Node1&#45;&gt;Node5 -->
<g id="edge4_Node000001_Node000005" class="edge">
<title>Node1&#45;&gt;Node5</title>
<g id="a_edge4_Node000001_Node000005"><a xlink:title=" ">
<path fill="none" stroke="#63b8ff" d="M710.74,-178.81C700.27,-180.42 689.62,-182.06 679.55,-183.61"/>
<polygon fill="#63b8ff" stroke="#63b8ff" points="711.33,-182.26 720.69,-177.28 710.27,-175.34 711.33,-182.26"/>
</a>
</g>
</g>
<!-- Node6 -->
<g id="Node000006" class="node">
<title>Node6</title>
<g id="a_Node000006"><a xlink:href="../../d7/dbb/classArcane_1_1ItemTypeMng.html#a5b0bd4644be4da6e5612af4118ec5744" target="_top" xlink:title="nombre de types disponibles">
<polygon fill="white" stroke="#666666" points="685,-159 563,-159 563,-129 685,-129 685,-159"/>
<text text-anchor="start" x="571" y="-147" font-family="Helvetica,sans-Serif" font-size="10.00">Arcane::ItemTypeMng</text>
<text text-anchor="middle" x="624" y="-136" font-family="Helvetica,sans-Serif" font-size="10.00">::nbBasicItemType</text>
</a>
</g>
</g>
<!-- Node1&#45;&gt;Node6 -->
<g id="edge5_Node000001_Node000006" class="edge">
<title>Node1&#45;&gt;Node6</title>
<g id="a_edge5_Node000001_Node000006"><a xlink:title=" ">
<path fill="none" stroke="#63b8ff" d="M710.74,-157.19C702.2,-155.88 693.53,-154.54 685.15,-153.25"/>
<polygon fill="#63b8ff" stroke="#63b8ff" points="710.27,-160.66 720.69,-158.72 711.33,-153.74 710.27,-160.66"/>
</a>
</g>
</g>
<!-- Node14 -->
<g id="Node000014" class="node">
<title>Node14</title>
<g id="a_Node000014"><a xlink:href="../../d7/dbb/classArcane_1_1ItemTypeMng.html#a435e056ab6ea08ce1d89141ce53a441b" target="_top" xlink:title="Instance singleton du type.">
<polygon fill="white" stroke="#666666" points="685,-93 563,-93 563,-63 685,-63 685,-93"/>
<text text-anchor="start" x="571" y="-81" font-family="Helvetica,sans-Serif" font-size="10.00">Arcane::ItemTypeMng</text>
<text text-anchor="middle" x="624" y="-70" font-family="Helvetica,sans-Serif" font-size="10.00">::singleton</text>
</a>
</g>
</g>
<!-- Node1&#45;&gt;Node14 -->
<g id="edge16_Node000001_Node000014" class="edge">
<title>Node1&#45;&gt;Node14</title>
<g id="a_edge16_Node000001_Node000014"><a xlink:title=" ">
<path fill="none" stroke="#63b8ff" d="M745.99,-147.8C717.26,-131.23 677.21,-108.12 651.2,-93.11"/>
<polygon fill="#63b8ff" stroke="#63b8ff" points="744.48,-150.97 754.89,-152.94 747.98,-144.91 744.48,-150.97"/>
</a>
</g>
</g>
<!-- Node3 -->
<g id="Node000003" class="node">
<title>Node3</title>
<g id="a_Node000003"><a xlink:href="../../da/dae/classArcane_1_1ArcaneMain.html#a9a0ae8852c411641d9e0f9eab04c3c80" target="_top" xlink:title="Point d&#39;entrée de l&#39;exécutable dans Arcane.">
<polygon fill="white" stroke="#666666" points="512,-277.5 376,-277.5 376,-258.5 512,-258.5 512,-277.5"/>
<text text-anchor="middle" x="444" y="-265.5" font-family="Helvetica,sans-Serif" font-size="10.00">Arcane::ArcaneMain::run</text>
</a>
</g>
</g>
<!-- Node2&#45;&gt;Node3 -->
<g id="edge2_Node000002_Node000003" class="edge">
<title>Node2&#45;&gt;Node3</title>
<g id="a_edge2_Node000002_Node000003"><a xlink:title=" ">
<path fill="none" stroke="#63b8ff" d="M556.34,-259.24C541.9,-260.38 526.62,-261.58 512.17,-262.72"/>
<polygon fill="#63b8ff" stroke="#63b8ff" points="556.98,-262.7 566.68,-258.43 556.44,-255.72 556.98,-262.7"/>
</a>
</g>
</g>
<!-- Node4 -->
<g id="Node000004" class="node">
<title>Node4</title>
<g id="a_Node000004"><a xlink:href="../../d3/d46/classArcane_1_1ArcaneLauncher.html#a0947388b5dc8e3f6edb5cde9e5d516be" target="_top" xlink:title="Point d&#39;entrée de l&#39;exécutable dans Arcane.">
<polygon fill="white" stroke="#666666" points="323.5,-277.5 167.5,-277.5 167.5,-258.5 323.5,-258.5 323.5,-277.5"/>
<text text-anchor="middle" x="245.5" y="-265.5" font-family="Helvetica,sans-Serif" font-size="10.00">Arcane::ArcaneLauncher::run</text>
</a>
</g>
</g>
<!-- Node3&#45;&gt;Node4 -->
<g id="edge3_Node000003_Node000004" class="edge">
<title>Node3&#45;&gt;Node4</title>
<g id="a_edge3_Node000003_Node000004"><a xlink:title=" ">
<path fill="none" stroke="#63b8ff" d="M365.55,-268C351.8,-268 337.49,-268 323.76,-268"/>
<polygon fill="#63b8ff" stroke="#63b8ff" points="365.93,-271.5 375.93,-268 365.93,-264.5 365.93,-271.5"/>
</a>
</g>
</g>
<!-- Node7 -->
<g id="Node000007" class="node">
<title>Node7</title>
<g id="a_Node000007"><a xlink:href="../../da/df1/classArcane_1_1ItemGroupImpl.html#af3eaa01d92c23384de3e8ca37c1d35be" target="_top" xlink:title="Méthode de calcul des sous&#45;groupes par type.">
<polygon fill="white" stroke="#666666" points="517,-240 371,-240 371,-210 517,-210 517,-240"/>
<text text-anchor="start" x="379" y="-228" font-family="Helvetica,sans-Serif" font-size="10.00">Arcane::ItemGroupImpl</text>
<text text-anchor="middle" x="444" y="-217" font-family="Helvetica,sans-Serif" font-size="10.00">::_computeChildrenByType</text>
</a>
</g>
</g>
<!-- Node6&#45;&gt;Node7 -->
<g id="edge6_Node000006_Node000007" class="edge">
<title>Node6&#45;&gt;Node7</title>
<g id="a_edge6_Node000006_Node000007"><a xlink:title=" ">
<path fill="none" stroke="#63b8ff" d="M571.79,-163.33C568.78,-164.82 565.82,-166.38 563,-168 545.42,-178.09 544.78,-186.27 527,-196 517.2,-201.36 506.21,-206.05 495.54,-210"/>
<polygon fill="#63b8ff" stroke="#63b8ff" points="573.39,-166.45 580.97,-159.05 570.43,-160.1 573.39,-166.45"/>
</a>
</g>
</g>
<!-- Node8 -->
<g id="Node000008" class="node">
<title>Node8</title>
<g id="a_Node000008"><a xlink:href="../../da/df1/classArcane_1_1ItemGroupImpl.html#a698019f7341caecf9143925aa0e17149" target="_top" xlink:title="Initialisation des sous&#45;groupes par types.">
<polygon fill="white" stroke="#666666" points="310.5,-202 180.5,-202 180.5,-172 310.5,-172 310.5,-202"/>
<text text-anchor="start" x="188.5" y="-190" font-family="Helvetica,sans-Serif" font-size="10.00">Arcane::ItemGroupImpl</text>
<text text-anchor="middle" x="245.5" y="-179" font-family="Helvetica,sans-Serif" font-size="10.00">::_initChildrenByType</text>
</a>
</g>
</g>
<!-- Node6&#45;&gt;Node8 -->
<g id="edge12_Node000006_Node000008" class="edge">
<title>Node6&#45;&gt;Node8</title>
<g id="a_edge12_Node000006_Node000008"><a xlink:title=" ">
<path fill="none" stroke="#63b8ff" d="M552.72,-152.06C544.06,-153.05 535.33,-154.05 527,-155 452.74,-163.49 367.41,-173.22 310.56,-179.7"/>
<polygon fill="#63b8ff" stroke="#63b8ff" points="553.29,-155.51 562.83,-150.9 552.5,-148.56 553.29,-155.51"/>
</a>
</g>
</g>
<!-- Node10 -->
<g id="Node000010" class="node">
<title>Node10</title>
<g id="a_Node000010"><a xlink:href="../../da/df1/classArcane_1_1ItemGroupImpl.html#a5b554db4231ba23f56976476cc81f555" target="_top" xlink:title="Méthode de calcul des sous&#45;groupes par type.">
<polygon fill="white" stroke="#666666" points="325,-154 166,-154 166,-124 325,-124 325,-154"/>
<text text-anchor="start" x="174" y="-142" font-family="Helvetica,sans-Serif" font-size="10.00">Arcane::ItemGroupImpl</text>
<text text-anchor="middle" x="245.5" y="-131" font-family="Helvetica,sans-Serif" font-size="10.00">::_computeChildrenByTypeV2</text>
</a>
</g>
</g>
<!-- Node6&#45;&gt;Node10 -->
<g id="edge9_Node000006_Node000010" class="edge">
<title>Node6&#45;&gt;Node10</title>
<g id="a_edge9_Node000006_Node000010"><a xlink:title=" ">
<path fill="none" stroke="#63b8ff" d="M552.82,-143.07C488.12,-142.21 392.22,-140.94 325,-140.04"/>
<polygon fill="#63b8ff" stroke="#63b8ff" points="552.88,-146.57 562.93,-143.2 552.97,-139.57 552.88,-146.57"/>
</a>
</g>
</g>
<!-- Node11 -->
<g id="Node000011" class="node">
<title>Node11</title>
<g id="a_Node000011"><a xlink:href="../../d5/de2/classArcane_1_1DumpWEnsight7.html#ac00b01de8c1a4c5ebcec330f90ec5e6a" target="_top" xlink:title="Récupère un groupe d&#39;un type donné et ses informations.">
<polygon fill="white" stroke="#666666" points="512.5,-116 375.5,-116 375.5,-86 512.5,-86 512.5,-116"/>
<text text-anchor="start" x="383.5" y="-104" font-family="Helvetica,sans-Serif" font-size="10.00">Arcane::DumpWEnsight7</text>
<text text-anchor="middle" x="444" y="-93" font-family="Helvetica,sans-Serif" font-size="10.00">::_computeGroupParts</text>
</a>
</g>
</g>
<!-- Node6&#45;&gt;Node11 -->
<g id="edge11_Node000006_Node000011" class="edge">
<title>Node6&#45;&gt;Node11</title>
<g id="a_edge11_Node000006_Node000011"><a xlink:title=" ">
<path fill="none" stroke="#63b8ff" d="M552.97,-127.08C537.9,-123.44 522.07,-119.62 507.33,-116.06"/>
<polygon fill="#63b8ff" stroke="#63b8ff" points="552.2,-130.5 562.74,-129.44 553.84,-123.69 552.2,-130.5"/>
</a>
</g>
</g>
<!-- Node12 -->
<g id="Node000012" class="node">
<title>Node12</title>
<g id="a_Node000012"><a xlink:href="../../da/df1/classArcane_1_1ItemGroupImpl.html#ad10fc5a532168750712baf3793c469bb" target="_top" xlink:title="Initialisation des sous&#45;groupes par types.">
<polygon fill="white" stroke="#666666" points="311.5,-92 179.5,-92 179.5,-62 311.5,-62 311.5,-92"/>
<text text-anchor="start" x="187.5" y="-80" font-family="Helvetica,sans-Serif" font-size="10.00">Arcane::ItemGroupImpl</text>
<text text-anchor="middle" x="245.5" y="-69" font-family="Helvetica,sans-Serif" font-size="10.00">::_initChildrenByTypeV2</text>
</a>
</g>
</g>
<!-- Node6&#45;&gt;Node12 -->
<g id="edge13_Node000006_Node000012" class="edge">
<title>Node6&#45;&gt;Node12</title>
<g id="a_edge13_Node000006_Node000012"><a xlink:title=" ">
<path fill="none" stroke="#63b8ff" d="M568.88,-123.9C566.85,-122.66 564.88,-121.36 563,-120 542.82,-105.37 549.58,-87.55 527,-77 458.83,-45.17 370.78,-51.76 311.67,-61.99"/>
<polygon fill="#63b8ff" stroke="#63b8ff" points="567.65,-127.22 578.11,-128.94 571.01,-121.07 567.65,-127.22"/>
</a>
</g>
</g>
<!-- Node13 -->
<g id="Node000013" class="node">
<title>Node13</title>
<g id="a_Node000013"><a xlink:href="../../da/d0e/classArcane_1_1VoronoiMeshIOService.html#a8c14905d484bf203e2c83f9f779fa133" target="_top" xlink:title="Lecture des mailles et de leur connectivité.">
<polygon fill="white" stroke="#666666" points="527,-30 361,-30 361,0 527,0 527,-30"/>
<text text-anchor="start" x="369" y="-18" font-family="Helvetica,sans-Serif" font-size="10.00">Arcane::VoronoiMeshIOService</text>
<text text-anchor="middle" x="444" y="-7" font-family="Helvetica,sans-Serif" font-size="10.00">::_readCellsHybridGrid</text>
</a>
</g>
</g>
<!-- Node6&#45;&gt;Node13 -->
<g id="edge15_Node000006_Node000013" class="edge">
<title>Node6&#45;&gt;Node13</title>
<g id="a_edge15_Node000006_Node000013"><a xlink:title=" ">
<path fill="none" stroke="#63b8ff" d="M566.52,-123.04C565.3,-122.07 564.12,-121.06 563,-120 535.77,-94.4 554.75,-69.04 527,-44 520.72,-38.33 513.27,-33.76 505.45,-30.07"/>
<polygon fill="#63b8ff" stroke="#63b8ff" points="564.86,-126.14 575.11,-128.84 568.78,-120.34 564.86,-126.14"/>
</a>
</g>
</g>
<!-- Node7&#45;&gt;Node8 -->
<g id="edge7_Node000007_Node000008" class="edge">
<title>Node7&#45;&gt;Node8</title>
<g id="a_edge7_Node000007_Node000008"><a xlink:title=" ">
<path fill="none" stroke="#63b8ff" d="M360.66,-209.08C343.99,-205.85 326.69,-202.51 310.75,-199.42"/>
<polygon fill="#63b8ff" stroke="#63b8ff" points="360.46,-212.6 370.95,-211.07 361.79,-205.73 360.46,-212.6"/>
</a>
</g>
</g>
<!-- Node9 -->
<g id="Node000009" class="node">
<title>Node9</title>
<g id="a_Node000009"><a xlink:href="../../da/df1/classArcane_1_1ItemGroupImpl.html#ac44c5eb75cd14d5f1904860c84f61bc2" target="_top" xlink:title="Applique l&#39;opération operation sur les entités du groupe.">
<polygon fill="white" stroke="#666666" points="130,-154 0,-154 0,-124 130,-124 130,-154"/>
<text text-anchor="start" x="8" y="-142" font-family="Helvetica,sans-Serif" font-size="10.00">Arcane::ItemGroupImpl</text>
<text text-anchor="middle" x="65" y="-131" font-family="Helvetica,sans-Serif" font-size="10.00">::applyOperation</text>
</a>
</g>
</g>
<!-- Node8&#45;&gt;Node9 -->
<g id="edge8_Node000008_Node000009" class="edge">
<title>Node8&#45;&gt;Node9</title>
<g id="a_edge8_Node000008_Node000009"><a xlink:title=" ">
<path fill="none" stroke="#63b8ff" d="M178.61,-169.28C159.94,-164.26 139.8,-158.85 121.79,-154"/>
<polygon fill="#63b8ff" stroke="#63b8ff" points="177.95,-172.73 188.51,-171.94 179.76,-165.97 177.95,-172.73"/>
</a>
</g>
</g>
<!-- Node10&#45;&gt;Node9 -->
<g id="edge10_Node000010_Node000009" class="edge">
<title>Node10&#45;&gt;Node9</title>
<g id="a_edge10_Node000010_Node000009"><a xlink:title=" ">
<path fill="none" stroke="#63b8ff" d="M155.8,-139C147.14,-139 138.48,-139 130.13,-139"/>
<polygon fill="#63b8ff" stroke="#63b8ff" points="155.95,-142.5 165.95,-139 155.95,-135.5 155.95,-142.5"/>
</a>
</g>
</g>
<!-- Node12&#45;&gt;Node9 -->
<g id="edge14_Node000012_Node000009" class="edge">
<title>Node12&#45;&gt;Node9</title>
<g id="a_edge14_Node000012_Node000009"><a xlink:title=" ">
<path fill="none" stroke="#63b8ff" d="M191.53,-95.4C165.36,-104.49 134.17,-115.32 109.43,-123.91"/>
<polygon fill="#63b8ff" stroke="#63b8ff" points="192.99,-98.6 201.29,-92.01 190.7,-91.98 192.99,-98.6"/>
</a>
</g>
</g>
<!-- Node14&#45;&gt;Node14 -->
<g id="edge17_Node000014_Node000014" class="edge">
<title>Node14&#45;&gt;Node14</title>
<g id="a_edge17_Node000014_Node000014"><a xlink:title=" ">
<path fill="none" stroke="#63b8ff" d="M651.66,-103.6C647.88,-107.97 638.66,-111 624,-111 599.31,-111 590.05,-102.41 596.23,-93.28"/>
<polygon fill="#63b8ff" stroke="#63b8ff" points="655.16,-103.31 651.77,-93.28 648.16,-103.23 655.16,-103.31"/>
</a>
</g>
</g>
</g>
</svg>

<g id="navigator" transform="translate(0 0)" fill="#404254">
  <rect fill="#f2f5e9" fill-opacity="0.5" stroke="#606060" stroke-width=".5" x="0" y="0" width="60" height="60"/>
  <use id="zoomplus" xlink:href="#zoomPlus" x="17" y="9" onmousedown="handleZoom(evt,'in')"/>
  <use id="zoomminus" xlink:href="#zoomMin" x="42" y="9" onmousedown="handleZoom(evt,'out')"/>
  <use id="reset" xlink:href="#resetDef" x="30" y="36" onmousedown="handleReset()"/>
   <use id="arrowup" xlink:href="#arrowUp" x="0" y="0" onmousedown="handlePan(0,-1)"/>
  <use id="arrowright" xlink:href="#arrowRight" x="0" y="0" onmousedown="handlePan(1,0)"/>
  <use id="arrowdown" xlink:href="#arrowDown" x="0" y="0" onmousedown="handlePan(0,1)"/>
  <use id="arrowleft" xlink:href="#arrowLeft" x="0" y="0" onmousedown="handlePan(-1,0)"/>
</g>
<svg viewBox="0 0 15 15" width="100%" height="30px" preserveAspectRatio="xMaxYMin meet">
 <g id="arrow_out" transform="scale(0.3 0.3)">
  <a xlink:href="classArcane_1_1ItemTypeMng_abc67b0d9c3bbc61a1009863765b73e69_icgraph_org.svg" target="_base">
   <rect id="button" ry="5" rx="5" y="6" x="6" height="38" width="38"
        fill="#f2f5e9" fill-opacity="0.5" stroke="#606060" stroke-width="1.0"/>
   <path id="arrow"
     d="M 11.500037,31.436501 C 11.940474,20.09759 22.043105,11.32322 32.158766,21.979434 L 37.068811,17.246167 C 37.068811,17.246167 37.088388,32 37.088388,32 L 22.160133,31.978069 C 22.160133,31.978069 26.997745,27.140456 26.997745,27.140456 C 18.528582,18.264221 13.291696,25.230495 11.500037,31.436501 z"
     style="fill:#404040;"/>
  </a>
 </g>
</svg>

<style type='text/css'>
<![CDATA[
[data-mouse-over-selected='false'] { opacity: 0.7; }
[data-mouse-over-selected='true']  { opacity: 1.0; }
]]>
</style>
<script type="application/ecmascript"><![CDATA[
document.addEventListener('DOMContentLoaded', (event) => {
  highlightEdges();
  highlightAdjacentNodes();
});
]]></script>
</svg>
