<?xml version="1.0" encoding="UTF-8" standalone="no"?>
<!DOCTYPE svg PUBLIC "-//W3C//DTD SVG 1.1//EN"
 "http://www.w3.org/Graphics/SVG/1.1/DTD/svg11.dtd">
<!-- Generated by graphviz version 2.43.0 (0)
 -->
<!-- Title: Arcane::Materials::ComponentItemVectorView Pages: 1 -->
<!--zoomable 464 -->

<svg id="main" version="1.1" xmlns="http://www.w3.org/2000/svg" xmlns:xlink="http://www.w3.org/1999/xlink" xml:space="preserve" onload="init(evt)">

<style type="text/css"><![CDATA[
.node, .edge {opacity: 0.7;}
.node.selected, .edge.selected {opacity: 1;}
.edge:hover path { stroke: red; }
.edge:hover polygon { stroke: red; fill: red; }
]]></style>

<defs>
  <circle id="rim" cx="0" cy="0" r="7"/>
  <circle id="rim2" cx="0" cy="0" r="3.5"/>
  <g id="zoomPlus">
    <use xlink:href="#rim" fill="#404040"><set attributeName="fill" to="#808080" begin="zoomplus.mouseover" end="zoomplus.mouseout"/></use>
    <path d="M-4,0h8M0,-4v8" fill="none" stroke="white" stroke-width="1.5" pointer-events="none"/>
  </g>
  <g id="zoomMin">
    <use xlink:href="#rim" fill="#404040"><set attributeName="fill" to="#808080" begin="zoomminus.mouseover" end="zoomminus.mouseout"/></use>
    <path d="M-4,0h8" fill="none" stroke="white" stroke-width="1.5" pointer-events="none"/>
  </g>
  <g id="arrowUp" transform="translate(30 24)">
    <use xlink:href="#rim"/>
    <path pointer-events="none" fill="none" stroke="white" stroke-width="1.5" d="M0,-3.0v7 M-2.5,-0.5L0,-3.0L2.5,-0.5"/>
  </g>
  <g id="arrowRight" transform="rotate(90) translate(36 -43)">
    <use xlink:href="#rim"/>
    <path pointer-events="none" fill="none" stroke="white" stroke-width="1.5" d="M0,-3.0v7 M-2.5,-0.5L0,-3.0L2.5,-0.5"/>
  </g>
  <g id="arrowDown" transform="rotate(180) translate(-30 -48)">
    <use xlink:href="#rim"/>
    <path pointer-events="none" fill="none" stroke="white" stroke-width="1.5" d="M0,-3.0v7 M-2.5,-0.5L0,-3.0L2.5,-0.5"/>
  </g>
  <g id="arrowLeft" transform="rotate(270) translate(-36 17)">
    <use xlink:href="#rim"/>
    <path pointer-events="none" fill="none" stroke="white" stroke-width="1.5" d="M0,-3.0v7 M-2.5,-0.5L0,-3.0L2.5,-0.5"/>
  </g>
  <g id="resetDef">
    <use xlink:href="#rim2" fill="#404040"><set attributeName="fill" to="#808080" begin="reset.mouseover" end="reset.mouseout"/></use>
  </g>
</defs>
<script type="application/ecmascript">
var viewWidth = 276;
var viewHeight = 464;
var sectionId = 'dynsection-0';
</script>
<script type="application/ecmascript" xlink:href="../../svg.min.js"/>
<svg id="graph" class="graph">
<g id="viewport">
<title>Arcane::Materials::ComponentItemVectorView</title>
<!-- Node1 -->
<g id="Node000001" class="node">
<title>Node1</title>
<g id="a_Node000001"><a xlink:title="Vue sur un vecteur sur les entités d&#39;un composant.">
<polygon fill="#999999" stroke="transparent" points="214.5,-456 51.5,-456 51.5,-186 214.5,-186 214.5,-456"/>
<text text-anchor="start" x="66.5" y="-444" font-family="Helvetica,sans-Serif" font-size="10.00">Arcane::Materials::</text>
<text text-anchor="start" x="66.5" y="-433" font-family="Helvetica,sans-Serif" font-size="10.00">ComponentItemVectorView</text>
<text text-anchor="start" x="58.5" y="-418" font-family="Helvetica,sans-Serif" font-size="10.00">&#45;</text>
<text text-anchor="start" x="69" y="-418" font-family="Helvetica,sans-Serif" font-size="10.00">m_matvar_indexes_view</text>
<text text-anchor="start" x="58.5" y="-403" font-family="Helvetica,sans-Serif" font-size="10.00">&#45;</text>
<text text-anchor="start" x="69" y="-403" font-family="Helvetica,sans-Serif" font-size="10.00">m_constituent_list_view</text>
<text text-anchor="start" x="58.5" y="-388" font-family="Helvetica,sans-Serif" font-size="10.00">&#45;</text>
<text text-anchor="start" x="69" y="-388" font-family="Helvetica,sans-Serif" font-size="10.00">m_items_local_id_view</text>
<text text-anchor="start" x="58.5" y="-373" font-family="Helvetica,sans-Serif" font-size="10.00">&#45;</text>
<text text-anchor="start" x="69" y="-373" font-family="Helvetica,sans-Serif" font-size="10.00">m_component</text>
<text text-anchor="start" x="56" y="-358" font-family="Helvetica,sans-Serif" font-size="10.00">+</text>
<text text-anchor="start" x="69" y="-358" font-family="Helvetica,sans-Serif" font-size="10.00">ComponentItemVectorView()</text>
<text text-anchor="start" x="56" y="-343" font-family="Helvetica,sans-Serif" font-size="10.00">+</text>
<text text-anchor="start" x="69" y="-343" font-family="Helvetica,sans-Serif" font-size="10.00">nbItem()</text>
<text text-anchor="start" x="56" y="-328" font-family="Helvetica,sans-Serif" font-size="10.00">+</text>
<text text-anchor="start" x="69" y="-328" font-family="Helvetica,sans-Serif" font-size="10.00">component()</text>
<text text-anchor="start" x="56" y="-313" font-family="Helvetica,sans-Serif" font-size="10.00">+</text>
<text text-anchor="start" x="69" y="-313" font-family="Helvetica,sans-Serif" font-size="10.00">componentCell()</text>
<text text-anchor="start" x="56" y="-298" font-family="Helvetica,sans-Serif" font-size="10.00">#</text>
<text text-anchor="start" x="69" y="-298" font-family="Helvetica,sans-Serif" font-size="10.00">ComponentItemVectorView()</text>
<text text-anchor="start" x="56" y="-283" font-family="Helvetica,sans-Serif" font-size="10.00">#</text>
<text text-anchor="start" x="69" y="-283" font-family="Helvetica,sans-Serif" font-size="10.00">ComponentItemVectorView()</text>
<text text-anchor="start" x="56" y="-268" font-family="Helvetica,sans-Serif" font-size="10.00">#</text>
<text text-anchor="start" x="69" y="-268" font-family="Helvetica,sans-Serif" font-size="10.00">ComponentItemVectorView()</text>
<text text-anchor="start" x="58.5" y="-253" font-family="Helvetica,sans-Serif" font-size="10.00">&#45;</text>
<text text-anchor="start" x="69" y="-253" font-family="Helvetica,sans-Serif" font-size="10.00">_matvarIndexes()</text>
<text text-anchor="start" x="58.5" y="-238" font-family="Helvetica,sans-Serif" font-size="10.00">&#45;</text>
<text text-anchor="start" x="69" y="-238" font-family="Helvetica,sans-Serif" font-size="10.00">_internalLocalIds()</text>
<text text-anchor="start" x="58.5" y="-223" font-family="Helvetica,sans-Serif" font-size="10.00">&#45;</text>
<text text-anchor="start" x="69" y="-223" font-family="Helvetica,sans-Serif" font-size="10.00">_constituentItemListView()</text>
<text text-anchor="start" x="58.5" y="-208" font-family="Helvetica,sans-Serif" font-size="10.00">&#45;</text>
<text text-anchor="start" x="69" y="-208" font-family="Helvetica,sans-Serif" font-size="10.00">_subView()</text>
<text text-anchor="start" x="58.5" y="-193" font-family="Helvetica,sans-Serif" font-size="10.00">&#45;</text>
<text text-anchor="start" x="69" y="-193" font-family="Helvetica,sans-Serif" font-size="10.00">_isSamePointerData()</text>
<polygon fill="#666666" stroke="#666666" points="52,-428 52,-428 215,-428 215,-428 52,-428"/>
<polygon fill="#666666" stroke="#666666" points="52,-368 52,-368 67,-368 67,-368 52,-368"/>
<polygon fill="#666666" stroke="#666666" points="67,-368 67,-368 215,-368 215,-368 67,-368"/>
<polygon fill="none" stroke="#666666" points="51.5,-186 51.5,-456 214.5,-456 214.5,-186 51.5,-186"/>
</a>
</g>
</g>
<!-- Node2 -->
<g id="Node000002" class="node">
<title>Node2</title>
<g id="a_Node000002"><a xlink:href="../../d9/d41/classArcane_1_1Materials_1_1EnvItemVectorView.html" target="_top" xlink:title="Vue sur un vecteur sur les entités d&#39;un milieu.">
<polygon fill="white" stroke="transparent" points="124,-142.5 0,-142.5 0,-7.5 124,-7.5 124,-142.5"/>
<text text-anchor="start" x="14" y="-130" font-family="Helvetica,sans-Serif" font-size="10.00">Arcane::Materials::</text>
<text text-anchor="start" x="14" y="-119" font-family="Helvetica,sans-Serif" font-size="10.00">EnvItemVectorView</text>
<text text-anchor="start" x="60" y="-104" font-family="Helvetica,sans-Serif" font-size="10.00"> </text>
<text text-anchor="start" x="4" y="-89" font-family="Helvetica,sans-Serif" font-size="10.00">+</text>
<text text-anchor="start" x="17" y="-89" font-family="Helvetica,sans-Serif" font-size="10.00">EnvItemVectorView()</text>
<text text-anchor="start" x="4" y="-74" font-family="Helvetica,sans-Serif" font-size="10.00">+</text>
<text text-anchor="start" x="17" y="-74" font-family="Helvetica,sans-Serif" font-size="10.00">environment()</text>
<text text-anchor="start" x="4" y="-59" font-family="Helvetica,sans-Serif" font-size="10.00">+</text>
<text text-anchor="start" x="17" y="-59" font-family="Helvetica,sans-Serif" font-size="10.00">envCell()</text>
<text text-anchor="start" x="6.5" y="-44" font-family="Helvetica,sans-Serif" font-size="10.00">&#45;</text>
<text text-anchor="start" x="17" y="-44" font-family="Helvetica,sans-Serif" font-size="10.00">EnvItemVectorView()</text>
<text text-anchor="start" x="6.5" y="-29" font-family="Helvetica,sans-Serif" font-size="10.00">&#45;</text>
<text text-anchor="start" x="17" y="-29" font-family="Helvetica,sans-Serif" font-size="10.00">EnvItemVectorView()</text>
<text text-anchor="start" x="6.5" y="-14" font-family="Helvetica,sans-Serif" font-size="10.00">&#45;</text>
<text text-anchor="start" x="17" y="-14" font-family="Helvetica,sans-Serif" font-size="10.00">_subView()</text>
<polygon fill="#666666" stroke="#666666" points="0,-114 0,-114 124,-114 124,-114 0,-114"/>
<polygon fill="#666666" stroke="#666666" points="0,-99 0,-99 124,-99 124,-99 0,-99"/>
<polygon fill="none" stroke="#666666" points="0,-7.5 0,-142.5 124,-142.5 124,-7.5 0,-7.5"/>
</a>
</g>
</g>
<!-- Node1&#45;&gt;Node2 -->
<g id="edge1_Node000001_Node000002" class="edge">
<title>Node1&#45;&gt;Node2</title>
<g id="a_edge1_Node000001_Node000002"><a xlink:title=" ">
<path fill="none" stroke="#63b8ff" d="M91.13,-176.1C87.76,-164.54 84.48,-153.25 81.4,-142.66"/>
<polygon fill="none" stroke="#63b8ff" points="87.81,-177.24 93.97,-185.87 94.54,-175.29 87.81,-177.24"/>
</a>
</g>
</g>
<!-- Node3 -->
<g id="Node000003" class="node">
<title>Node3</title>
<g id="a_Node000003"><a xlink:href="../../dc/dcc/classArcane_1_1Materials_1_1MatItemVectorView.html" target="_top" xlink:title="Vue sur un vecteur sur les entités d&#39;un matériau.">
<polygon fill="white" stroke="transparent" points="267.5,-150 142.5,-150 142.5,0 267.5,0 267.5,-150"/>
<text text-anchor="start" x="157" y="-138" font-family="Helvetica,sans-Serif" font-size="10.00">Arcane::Materials::</text>
<text text-anchor="start" x="157" y="-127" font-family="Helvetica,sans-Serif" font-size="10.00">MatItemVectorView</text>
<text text-anchor="start" x="203.5" y="-112" font-family="Helvetica,sans-Serif" font-size="10.00"> </text>
<text text-anchor="start" x="147" y="-97" font-family="Helvetica,sans-Serif" font-size="10.00">+</text>
<text text-anchor="start" x="160" y="-97" font-family="Helvetica,sans-Serif" font-size="10.00">MatItemVectorView()</text>
<text text-anchor="start" x="147" y="-82" font-family="Helvetica,sans-Serif" font-size="10.00">+</text>
<text text-anchor="start" x="160" y="-82" font-family="Helvetica,sans-Serif" font-size="10.00">material()</text>
<text text-anchor="start" x="147" y="-67" font-family="Helvetica,sans-Serif" font-size="10.00">+</text>
<text text-anchor="start" x="160" y="-67" font-family="Helvetica,sans-Serif" font-size="10.00">matCell()</text>
<text text-anchor="start" x="147" y="-52" font-family="Helvetica,sans-Serif" font-size="10.00">+</text>
<text text-anchor="start" x="160" y="-52" font-family="Helvetica,sans-Serif" font-size="10.00">subView()</text>
<text text-anchor="start" x="149.5" y="-37" font-family="Helvetica,sans-Serif" font-size="10.00">&#45;</text>
<text text-anchor="start" x="160" y="-37" font-family="Helvetica,sans-Serif" font-size="10.00">MatItemVectorView()</text>
<text text-anchor="start" x="149.5" y="-22" font-family="Helvetica,sans-Serif" font-size="10.00">&#45;</text>
<text text-anchor="start" x="160" y="-22" font-family="Helvetica,sans-Serif" font-size="10.00">MatItemVectorView()</text>
<text text-anchor="start" x="149.5" y="-7" font-family="Helvetica,sans-Serif" font-size="10.00">&#45;</text>
<text text-anchor="start" x="160" y="-7" font-family="Helvetica,sans-Serif" font-size="10.00">_subView()</text>
<polygon fill="#666666" stroke="#666666" points="143,-122 143,-122 268,-122 268,-122 143,-122"/>
<polygon fill="#666666" stroke="#666666" points="143,-107 143,-107 268,-107 268,-107 143,-107"/>
<polygon fill="none" stroke="#666666" points="142.5,0 142.5,-150 267.5,-150 267.5,0 142.5,0"/>
</a>
</g>
</g>
<!-- Node1&#45;&gt;Node3 -->
<g id="edge2_Node000001_Node000003" class="edge">
<title>Node1&#45;&gt;Node3</title>
<g id="a_edge2_Node000001_Node000003"><a xlink:title=" ">
<path fill="none" stroke="#63b8ff" d="M175.43,-176.2C178.05,-167.35 180.61,-158.65 183.07,-150.3"/>
<polygon fill="none" stroke="#63b8ff" points="172.05,-175.28 172.58,-185.87 178.77,-177.26 172.05,-175.28"/>
</a>
</g>
</g>
</g>
</svg>

<g id="navigator" transform="translate(0 0)" fill="#404254">
  <rect fill="#f2f5e9" fill-opacity="0.5" stroke="#606060" stroke-width=".5" x="0" y="0" width="60" height="60"/>
  <use id="zoomplus" xlink:href="#zoomPlus" x="17" y="9" onmousedown="handleZoom(evt,'in')"/>
  <use id="zoomminus" xlink:href="#zoomMin" x="42" y="9" onmousedown="handleZoom(evt,'out')"/>
  <use id="reset" xlink:href="#resetDef" x="30" y="36" onmousedown="handleReset()"/>
   <use id="arrowup" xlink:href="#arrowUp" x="0" y="0" onmousedown="handlePan(0,-1)"/>
  <use id="arrowright" xlink:href="#arrowRight" x="0" y="0" onmousedown="handlePan(1,0)"/>
  <use id="arrowdown" xlink:href="#arrowDown" x="0" y="0" onmousedown="handlePan(0,1)"/>
  <use id="arrowleft" xlink:href="#arrowLeft" x="0" y="0" onmousedown="handlePan(-1,0)"/>
</g>
<svg viewBox="0 0 15 15" width="100%" height="30px" preserveAspectRatio="xMaxYMin meet">
 <g id="arrow_out" transform="scale(0.3 0.3)">
  <a xlink:href="classArcane_1_1Materials_1_1ComponentItemVectorView__inherit__graph_org.svg" target="_base">
   <rect id="button" ry="5" rx="5" y="6" x="6" height="38" width="38"
        fill="#f2f5e9" fill-opacity="0.5" stroke="#606060" stroke-width="1.0"/>
   <path id="arrow"
     d="M 11.500037,31.436501 C 11.940474,20.09759 22.043105,11.32322 32.158766,21.979434 L 37.068811,17.246167 C 37.068811,17.246167 37.088388,32 37.088388,32 L 22.160133,31.978069 C 22.160133,31.978069 26.997745,27.140456 26.997745,27.140456 C 18.528582,18.264221 13.291696,25.230495 11.500037,31.436501 z"
     style="fill:#404040;"/>
  </a>
 </g>
</svg>

<style type='text/css'>
<![CDATA[
[data-mouse-over-selected='false'] { opacity: 0.7; }
[data-mouse-over-selected='true']  { opacity: 1.0; }
]]>
</style>
<script type="application/ecmascript"><![CDATA[
document.addEventListener('DOMContentLoaded', (event) => {
  highlightEdges();
  highlightAdjacentNodes();
});
]]></script>
</svg>
