<?xml version="1.0" encoding="UTF-8" standalone="no"?>
<!DOCTYPE svg PUBLIC "-//W3C//DTD SVG 1.1//EN"
 "http://www.w3.org/Graphics/SVG/1.1/DTD/svg11.dtd">
<!-- Generated by graphviz version 2.43.0 (0)
 -->
<!-- Title: NumArrayViews.h Pages: 1 -->
<svg width="2097pt" height="401pt"
 viewBox="0.00 0.00 2097.00 401.00" xmlns="http://www.w3.org/2000/svg" xmlns:xlink="http://www.w3.org/1999/xlink">
<g id="graph0" class="graph" transform="scale(1 1) rotate(0) translate(4 397)">
<title>NumArrayViews.h</title>
<!-- Node1 -->
<g id="Node000001" class="node">
<title>Node1</title>
<g id="a_Node000001"><a xlink:title=" ">
<polygon fill="#999999" stroke="#666666" points="1438,-393 1334,-393 1334,-374 1438,-374 1438,-393"/>
<text text-anchor="middle" x="1386" y="-381" font-family="Helvetica,sans-Serif" font-size="10.00">NumArrayViews.h</text>
</a>
</g>
</g>
<!-- Node2 -->
<g id="Node000002" class="node">
<title>Node2</title>
<g id="a_Node000002"><a xlink:href="../../d4/d96/NumArrayViews_8cc_source.html" target="_top" xlink:title=" ">
<polygon fill="white" stroke="#666666" points="827.5,-332.5 718.5,-332.5 718.5,-313.5 827.5,-313.5 827.5,-332.5"/>
<text text-anchor="middle" x="773" y="-320.5" font-family="Helvetica,sans-Serif" font-size="10.00">NumArrayViews.cc</text>
</a>
</g>
</g>
<!-- Node1&#45;&gt;Node2 -->
<g id="edge1_Node000001_Node000002" class="edge">
<title>Node1&#45;&gt;Node2</title>
<g id="a_edge1_Node000001_Node000002"><a xlink:title=" ">
<path fill="none" stroke="#63b8ff" d="M1323.75,-380.18C1221.62,-375.77 1012.33,-364.16 837,-338 827.55,-336.59 817.41,-334.6 808.05,-332.56"/>
<polygon fill="#63b8ff" stroke="#63b8ff" points="1323.75,-383.68 1333.88,-380.61 1324.04,-376.69 1323.75,-383.68"/>
</a>
</g>
</g>
<!-- Node3 -->
<g id="Node000003" class="node">
<title>Node3</title>
<g id="a_Node000003"><a xlink:href="../../dd/d82/arcane_2src_2arcane_2accelerator_2NumArrayViews_8h_source.html" target="_top" xlink:title=" ">
<polygon fill="white" stroke="#666666" points="950,-332.5 846,-332.5 846,-313.5 950,-313.5 950,-332.5"/>
<text text-anchor="middle" x="898" y="-320.5" font-family="Helvetica,sans-Serif" font-size="10.00">NumArrayViews.h</text>
</a>
</g>
</g>
<!-- Node1&#45;&gt;Node3 -->
<g id="edge2_Node000001_Node000003" class="edge">
<title>Node1&#45;&gt;Node3</title>
<g id="a_edge2_Node000001_Node000003"><a xlink:title=" ">
<path fill="none" stroke="#63b8ff" d="M1323.88,-378.32C1240.66,-372.19 1088.55,-359.15 960,-338 950.96,-336.51 941.27,-334.52 932.29,-332.5"/>
<polygon fill="#63b8ff" stroke="#63b8ff" points="1323.7,-381.82 1333.93,-379.05 1324.21,-374.83 1323.7,-381.82"/>
</a>
</g>
</g>
<!-- Node24 -->
<g id="Node000024" class="node">
<title>Node24</title>
<g id="a_Node000024"><a xlink:href="../../d9/dec/TestCooperativeLaunch1_8cc_source.html" target="_top" xlink:title=" ">
<polygon fill="white" stroke="#666666" points="1117.5,-332.5 968.5,-332.5 968.5,-313.5 1117.5,-313.5 1117.5,-332.5"/>
<text text-anchor="middle" x="1043" y="-320.5" font-family="Helvetica,sans-Serif" font-size="10.00">TestCooperativeLaunch1.cc</text>
</a>
</g>
</g>
<!-- Node1&#45;&gt;Node24 -->
<g id="edge24_Node000001_Node000024" class="edge">
<title>Node1&#45;&gt;Node24</title>
<g id="a_edge24_Node000001_Node000024"><a xlink:title=" ">
<path fill="none" stroke="#63b8ff" d="M1326.27,-372.31C1260.16,-361.04 1154.82,-343.07 1092.94,-332.52"/>
<polygon fill="#63b8ff" stroke="#63b8ff" points="1325.68,-375.76 1336.12,-373.99 1326.86,-368.86 1325.68,-375.76"/>
</a>
</g>
</g>
<!-- Node25 -->
<g id="Node000025" class="node">
<title>Node25</title>
<g id="a_Node000025"><a xlink:href="../../d3/db6/TestCooperativeLaunch__Accelerator_8cc_source.html" target="_top" xlink:title=" ">
<polygon fill="white" stroke="#666666" points="1266,-338 1136,-338 1136,-308 1266,-308 1266,-338"/>
<text text-anchor="start" x="1144" y="-326" font-family="Helvetica,sans-Serif" font-size="10.00">TestCooperativeLaunch</text>
<text text-anchor="middle" x="1201" y="-315" font-family="Helvetica,sans-Serif" font-size="10.00">_Accelerator.cc</text>
</a>
</g>
</g>
<!-- Node1&#45;&gt;Node25 -->
<g id="edge25_Node000001_Node000025" class="edge">
<title>Node1&#45;&gt;Node25</title>
<g id="a_edge25_Node000001_Node000025"><a xlink:title=" ">
<path fill="none" stroke="#63b8ff" d="M1349.49,-370.95C1319.63,-361.51 1277.31,-348.13 1245.48,-338.06"/>
<polygon fill="#63b8ff" stroke="#63b8ff" points="1348.51,-374.32 1359.1,-373.99 1350.62,-367.64 1348.51,-374.32"/>
</a>
</g>
</g>
<!-- Node26 -->
<g id="Node000026" class="node">
<title>Node26</title>
<g id="a_Node000026"><a xlink:href="../../d3/df4/TestLoop1_8cc_source.html" target="_top" xlink:title=" ">
<polygon fill="white" stroke="#666666" points="1363.5,-332.5 1284.5,-332.5 1284.5,-313.5 1363.5,-313.5 1363.5,-332.5"/>
<text text-anchor="middle" x="1324" y="-320.5" font-family="Helvetica,sans-Serif" font-size="10.00">TestLoop1.cc</text>
</a>
</g>
</g>
<!-- Node1&#45;&gt;Node26 -->
<g id="edge26_Node000001_Node000026" class="edge">
<title>Node1&#45;&gt;Node26</title>
<g id="a_edge26_Node000001_Node000026"><a xlink:title=" ">
<path fill="none" stroke="#63b8ff" d="M1369.48,-366.91C1357.85,-355.94 1342.72,-341.67 1333.19,-332.67"/>
<polygon fill="#63b8ff" stroke="#63b8ff" points="1367.18,-369.55 1376.85,-373.87 1371.98,-364.46 1367.18,-369.55"/>
</a>
</g>
</g>
<!-- Node27 -->
<g id="Node000027" class="node">
<title>Node27</title>
<g id="a_Node000027"><a xlink:href="../../da/d93/TestLoop__Accelerator_8cc_source.html" target="_top" xlink:title=" ">
<polygon fill="white" stroke="#666666" points="1514.5,-332.5 1381.5,-332.5 1381.5,-313.5 1514.5,-313.5 1514.5,-332.5"/>
<text text-anchor="middle" x="1448" y="-320.5" font-family="Helvetica,sans-Serif" font-size="10.00">TestLoop_Accelerator.cc</text>
</a>
</g>
</g>
<!-- Node1&#45;&gt;Node27 -->
<g id="edge27_Node000001_Node000027" class="edge">
<title>Node1&#45;&gt;Node27</title>
<g id="a_edge27_Node000001_Node000027"><a xlink:title=" ">
<path fill="none" stroke="#63b8ff" d="M1402.52,-366.91C1414.15,-355.94 1429.28,-341.67 1438.81,-332.67"/>
<polygon fill="#63b8ff" stroke="#63b8ff" points="1400.02,-364.46 1395.15,-373.87 1404.82,-369.55 1400.02,-364.46"/>
</a>
</g>
</g>
<!-- Node28 -->
<g id="Node000028" class="node">
<title>Node28</title>
<g id="a_Node000028"><a xlink:href="../../df/da8/TestMemoryBandwidth_8cc_source.html" target="_top" xlink:title=" ">
<polygon fill="white" stroke="#666666" points="1675,-332.5 1533,-332.5 1533,-313.5 1675,-313.5 1675,-332.5"/>
<text text-anchor="middle" x="1604" y="-320.5" font-family="Helvetica,sans-Serif" font-size="10.00">TestMemoryBandwidth.cc</text>
</a>
</g>
</g>
<!-- Node1&#45;&gt;Node28 -->
<g id="edge28_Node000001_Node000028" class="edge">
<title>Node1&#45;&gt;Node28</title>
<g id="a_edge28_Node000001_Node000028"><a xlink:title=" ">
<path fill="none" stroke="#63b8ff" d="M1427.38,-371.4C1469.53,-360.08 1533.98,-342.79 1572.26,-332.52"/>
<polygon fill="#63b8ff" stroke="#63b8ff" points="1426.45,-368.02 1417.7,-373.99 1428.26,-374.78 1426.45,-368.02"/>
</a>
</g>
</g>
<!-- Node29 -->
<g id="Node000029" class="node">
<title>Node29</title>
<g id="a_Node000029"><a xlink:href="../../dc/d5d/TestReduce1_8cc_source.html" target="_top" xlink:title=" ">
<polygon fill="white" stroke="#666666" points="1785,-332.5 1693,-332.5 1693,-313.5 1785,-313.5 1785,-332.5"/>
<text text-anchor="middle" x="1739" y="-320.5" font-family="Helvetica,sans-Serif" font-size="10.00">TestReduce1.cc</text>
</a>
</g>
</g>
<!-- Node1&#45;&gt;Node29 -->
<g id="edge29_Node000001_Node000029" class="edge">
<title>Node1&#45;&gt;Node29</title>
<g id="a_edge29_Node000001_Node000029"><a xlink:title=" ">
<path fill="none" stroke="#63b8ff" d="M1448.38,-375.05C1508.89,-367.38 1603.17,-354.28 1684,-338 1691.73,-336.44 1700,-334.49 1707.71,-332.55"/>
<polygon fill="#63b8ff" stroke="#63b8ff" points="1447.71,-371.61 1438.23,-376.32 1448.58,-378.55 1447.71,-371.61"/>
</a>
</g>
</g>
<!-- Node30 -->
<g id="Node000030" class="node">
<title>Node30</title>
<g id="a_Node000030"><a xlink:href="../../d0/df5/TestReduceGridStride__Accelerator_8cc_source.html" target="_top" xlink:title=" ">
<polygon fill="white" stroke="#666666" points="1924.5,-338 1803.5,-338 1803.5,-308 1924.5,-308 1924.5,-338"/>
<text text-anchor="start" x="1811.5" y="-326" font-family="Helvetica,sans-Serif" font-size="10.00">TestReduceGridStride</text>
<text text-anchor="middle" x="1864" y="-315" font-family="Helvetica,sans-Serif" font-size="10.00">_Accelerator.cc</text>
</a>
</g>
</g>
<!-- Node1&#45;&gt;Node30 -->
<g id="edge30_Node000001_Node000030" class="edge">
<title>Node1&#45;&gt;Node30</title>
<g id="a_edge30_Node000001_Node000030"><a xlink:title=" ">
<path fill="none" stroke="#63b8ff" d="M1448.46,-377.42C1528.7,-370.5 1672.18,-356.79 1794,-338 1797.06,-337.53 1800.19,-337.01 1803.35,-336.47"/>
<polygon fill="#63b8ff" stroke="#63b8ff" points="1447.71,-373.97 1438.04,-378.31 1448.3,-380.95 1447.71,-373.97"/>
</a>
</g>
</g>
<!-- Node31 -->
<g id="Node000031" class="node">
<title>Node31</title>
<g id="a_Node000031"><a xlink:href="../../d5/d44/TestReduce__Accelerator_8cc_source.html" target="_top" xlink:title=" ">
<polygon fill="white" stroke="#666666" points="2089,-332.5 1943,-332.5 1943,-313.5 2089,-313.5 2089,-332.5"/>
<text text-anchor="middle" x="2016" y="-320.5" font-family="Helvetica,sans-Serif" font-size="10.00">TestReduce_Accelerator.cc</text>
</a>
</g>
</g>
<!-- Node1&#45;&gt;Node31 -->
<g id="edge31_Node000001_Node000031" class="edge">
<title>Node1&#45;&gt;Node31</title>
<g id="a_edge31_Node000001_Node000031"><a xlink:title=" ">
<path fill="none" stroke="#63b8ff" d="M1448.41,-379.23C1550.31,-373.48 1758.66,-360.04 1934,-338 1945.75,-336.52 1958.39,-334.56 1970.13,-332.56"/>
<polygon fill="#63b8ff" stroke="#63b8ff" points="1448.08,-375.74 1438.29,-379.79 1448.47,-382.73 1448.08,-375.74"/>
</a>
</g>
</g>
<!-- Node4 -->
<g id="Node000004" class="node">
<title>Node4</title>
<g id="a_Node000004"><a xlink:href="../../db/d5b/Accelerator_8h_source.html" target="_top" xlink:title=" ">
<polygon fill="white" stroke="#666666" points="618,-272 538,-272 538,-253 618,-253 618,-272"/>
<text text-anchor="middle" x="578" y="-260" font-family="Helvetica,sans-Serif" font-size="10.00">Accelerator.h</text>
</a>
</g>
</g>
<!-- Node3&#45;&gt;Node4 -->
<g id="edge3_Node000003_Node000004" class="edge">
<title>Node3&#45;&gt;Node4</title>
<g id="a_edge3_Node000003_Node000004"><a xlink:title=" ">
<path fill="none" stroke="#63b8ff" d="M852.4,-311.24C847.21,-310.11 842,-309 837,-308 826.35,-305.86 688.13,-282.27 618.1,-270.33"/>
<polygon fill="#63b8ff" stroke="#63b8ff" points="851.75,-314.68 862.27,-313.45 853.27,-307.85 851.75,-314.68"/>
</a>
</g>
</g>
<!-- Node20 -->
<g id="Node000020" class="node">
<title>Node20</title>
<g id="a_Node000020"><a xlink:href="../../d6/ddd/AllCellToAllEnvCellConverter_8cc_source.html" target="_top" xlink:title=" ">
<polygon fill="white" stroke="#666666" points="805.5,-272 636.5,-272 636.5,-253 805.5,-253 805.5,-272"/>
<text text-anchor="middle" x="721" y="-260" font-family="Helvetica,sans-Serif" font-size="10.00">AllCellToAllEnvCellConverter.cc</text>
</a>
</g>
</g>
<!-- Node3&#45;&gt;Node20 -->
<g id="edge20_Node000003_Node000020" class="edge">
<title>Node3&#45;&gt;Node20</title>
<g id="a_edge20_Node000003_Node000020"><a xlink:title=" ">
<path fill="none" stroke="#63b8ff" d="M862.65,-310.32C828.42,-299 777.33,-282.12 746.77,-272.02"/>
<polygon fill="#63b8ff" stroke="#63b8ff" points="861.67,-313.68 872.26,-313.49 863.87,-307.03 861.67,-313.68"/>
</a>
</g>
</g>
<!-- Node21 -->
<g id="Node000021" class="node">
<title>Node21</title>
<g id="a_Node000021"><a xlink:href="../../de/d8b/MaterialHeatTestModule_8cc_source.html" target="_top" xlink:title=" ">
<polygon fill="white" stroke="#666666" points="972.5,-272 823.5,-272 823.5,-253 972.5,-253 972.5,-272"/>
<text text-anchor="middle" x="898" y="-260" font-family="Helvetica,sans-Serif" font-size="10.00">MaterialHeatTestModule.cc</text>
</a>
</g>
</g>
<!-- Node3&#45;&gt;Node21 -->
<g id="edge21_Node000003_Node000021" class="edge">
<title>Node3&#45;&gt;Node21</title>
<g id="a_edge21_Node000003_Node000021"><a xlink:title=" ">
<path fill="none" stroke="#63b8ff" d="M898,-303.16C898,-292.74 898,-280.3 898,-272.17"/>
<polygon fill="#63b8ff" stroke="#63b8ff" points="894.5,-303.37 898,-313.37 901.5,-303.37 894.5,-303.37"/>
</a>
</g>
</g>
<!-- Node22 -->
<g id="Node000022" class="node">
<title>Node22</title>
<g id="a_Node000022"><a xlink:href="../../db/d8f/TestPartition_8cc_source.html" target="_top" xlink:title=" ">
<polygon fill="white" stroke="#666666" points="1081,-272 991,-272 991,-253 1081,-253 1081,-272"/>
<text text-anchor="middle" x="1036" y="-260" font-family="Helvetica,sans-Serif" font-size="10.00">TestPartition.cc</text>
</a>
</g>
</g>
<!-- Node3&#45;&gt;Node22 -->
<g id="edge22_Node000003_Node000022" class="edge">
<title>Node3&#45;&gt;Node22</title>
<g id="a_edge22_Node000003_Node000022"><a xlink:title=" ">
<path fill="none" stroke="#63b8ff" d="M927.29,-309.58C953.95,-298.28 992.6,-281.9 1015.91,-272.02"/>
<polygon fill="#63b8ff" stroke="#63b8ff" points="925.91,-306.37 918.07,-313.49 928.64,-312.81 925.91,-306.37"/>
</a>
</g>
</g>
<!-- Node23 -->
<g id="Node000023" class="node">
<title>Node23</title>
<g id="a_Node000023"><a xlink:href="../../de/d61/TestPartition__Kernel_8cc_source.html" target="_top" xlink:title=" ">
<polygon fill="white" stroke="#666666" points="1225,-272 1099,-272 1099,-253 1225,-253 1225,-272"/>
<text text-anchor="middle" x="1162" y="-260" font-family="Helvetica,sans-Serif" font-size="10.00">TestPartition_Kernel.cc</text>
</a>
</g>
</g>
<!-- Node3&#45;&gt;Node23 -->
<g id="edge23_Node000003_Node000023" class="edge">
<title>Node3&#45;&gt;Node23</title>
<g id="a_edge23_Node000003_Node000023"><a xlink:title=" ">
<path fill="none" stroke="#63b8ff" d="M945.61,-311.22C950.47,-310.13 955.33,-309.04 960,-308 1016.6,-295.37 1082.18,-280.97 1122.88,-272.05"/>
<polygon fill="#63b8ff" stroke="#63b8ff" points="944.68,-307.84 935.7,-313.45 946.22,-314.67 944.68,-307.84"/>
</a>
</g>
</g>
<!-- Node5 -->
<g id="Node000005" class="node">
<title>Node5</title>
<g id="a_Node000005"><a xlink:href="../../d9/d71/AcceleratorMeshMaterialSynchronizerImpl_8h_source.html" target="_top" xlink:title=" ">
<polygon fill="white" stroke="#666666" points="679,-217 477,-217 477,-187 679,-187 679,-217"/>
<text text-anchor="start" x="485" y="-205" font-family="Helvetica,sans-Serif" font-size="10.00">AcceleratorMeshMaterialSynchronizer</text>
<text text-anchor="middle" x="578" y="-194" font-family="Helvetica,sans-Serif" font-size="10.00">Impl.h</text>
</a>
</g>
</g>
<!-- Node4&#45;&gt;Node5 -->
<g id="edge4_Node000004_Node000005" class="edge">
<title>Node4&#45;&gt;Node5</title>
<g id="a_edge4_Node000004_Node000005"><a xlink:title=" ">
<path fill="none" stroke="#63b8ff" d="M578,-242.65C578,-234.36 578,-224.78 578,-217.11"/>
<polygon fill="#63b8ff" stroke="#63b8ff" points="574.5,-242.87 578,-252.87 581.5,-242.87 574.5,-242.87"/>
</a>
</g>
</g>
<!-- Node6 -->
<g id="Node000006" class="node">
<title>Node6</title>
<g id="a_Node000006"><a xlink:href="../../de/d57/AcceleratorMeshMaterialSynchronizerImpl_8cc_source.html" target="_top" xlink:title=" ">
<polygon fill="white" stroke="#666666" points="581,-151 379,-151 379,-121 581,-121 581,-151"/>
<text text-anchor="start" x="387" y="-139" font-family="Helvetica,sans-Serif" font-size="10.00">AcceleratorMeshMaterialSynchronizer</text>
<text text-anchor="middle" x="480" y="-128" font-family="Helvetica,sans-Serif" font-size="10.00">Impl.cc</text>
</a>
</g>
</g>
<!-- Node5&#45;&gt;Node6 -->
<g id="edge5_Node000005_Node000006" class="edge">
<title>Node5&#45;&gt;Node6</title>
<g id="a_edge5_Node000005_Node000006"><a xlink:title=" ">
<path fill="none" stroke="#63b8ff" d="M547.84,-181.3C532.92,-171.56 515.25,-160.02 501.69,-151.16"/>
<polygon fill="#63b8ff" stroke="#63b8ff" points="545.96,-184.26 556.25,-186.8 549.79,-178.4 545.96,-184.26"/>
</a>
</g>
</g>
<!-- Node7 -->
<g id="Node000007" class="node">
<title>Node7</title>
<g id="a_Node000007"><a xlink:href="../../d4/db4/MeshMaterialSynchronizer_8h_source.html" target="_top" xlink:title=" ">
<polygon fill="white" stroke="#666666" points="754.5,-145.5 599.5,-145.5 599.5,-126.5 754.5,-126.5 754.5,-145.5"/>
<text text-anchor="middle" x="677" y="-133.5" font-family="Helvetica,sans-Serif" font-size="10.00">MeshMaterialSynchronizer.h</text>
</a>
</g>
</g>
<!-- Node5&#45;&gt;Node7 -->
<g id="edge6_Node000005_Node000007" class="edge">
<title>Node5&#45;&gt;Node7</title>
<g id="a_edge6_Node000005_Node000007"><a xlink:title=" ">
<path fill="none" stroke="#63b8ff" d="M608.38,-181.36C626.85,-169.42 649.51,-154.77 663.61,-145.66"/>
<polygon fill="#63b8ff" stroke="#63b8ff" points="606.47,-178.43 599.97,-186.8 610.27,-184.31 606.47,-178.43"/>
</a>
</g>
</g>
<!-- Node8 -->
<g id="Node000008" class="node">
<title>Node8</title>
<g id="a_Node000008"><a xlink:href="../../d6/d2e/MeshMaterialMng_8cc_source.html" target="_top" xlink:title=" ">
<polygon fill="white" stroke="#666666" points="118,-24.5 0,-24.5 0,-5.5 118,-5.5 118,-24.5"/>
<text text-anchor="middle" x="59" y="-12.5" font-family="Helvetica,sans-Serif" font-size="10.00">MeshMaterialMng.cc</text>
</a>
</g>
</g>
<!-- Node7&#45;&gt;Node8 -->
<g id="edge7_Node000007_Node000008" class="edge">
<title>Node7&#45;&gt;Node8</title>
<g id="a_edge7_Node000007_Node000008"><a xlink:title=" ">
<path fill="none" stroke="#63b8ff" d="M621.13,-124.61C521.68,-106.05 307.45,-65.8 127,-30 118.25,-28.26 108.88,-26.36 99.97,-24.54"/>
<polygon fill="#63b8ff" stroke="#63b8ff" points="620.49,-128.05 630.96,-126.44 621.77,-121.17 620.49,-128.05"/>
</a>
</g>
</g>
<!-- Node9 -->
<g id="Node000009" class="node">
<title>Node9</title>
<g id="a_Node000009"><a xlink:href="../../da/d7b/MeshMaterialMng_8h_source.html" target="_top" xlink:title=" ">
<polygon fill="white" stroke="#666666" points="733.5,-85 620.5,-85 620.5,-66 733.5,-66 733.5,-85"/>
<text text-anchor="middle" x="677" y="-73" font-family="Helvetica,sans-Serif" font-size="10.00">MeshMaterialMng.h</text>
</a>
</g>
</g>
<!-- Node7&#45;&gt;Node9 -->
<g id="edge8_Node000007_Node000009" class="edge">
<title>Node7&#45;&gt;Node9</title>
<g id="a_edge8_Node000007_Node000009"><a xlink:title=" ">
<path fill="none" stroke="#63b8ff" d="M677,-116.16C677,-105.74 677,-93.3 677,-85.17"/>
<polygon fill="#63b8ff" stroke="#63b8ff" points="673.5,-116.37 677,-126.37 680.5,-116.37 673.5,-116.37"/>
</a>
</g>
</g>
<!-- Node19 -->
<g id="Node000019" class="node">
<title>Node19</title>
<g id="a_Node000019"><a xlink:href="../../d4/d6f/MeshMaterialSynchronizer_8cc_source.html" target="_top" xlink:title=" ">
<polygon fill="white" stroke="#666666" points="910.5,-85 751.5,-85 751.5,-66 910.5,-66 910.5,-85"/>
<text text-anchor="middle" x="831" y="-73" font-family="Helvetica,sans-Serif" font-size="10.00">MeshMaterialSynchronizer.cc</text>
</a>
</g>
</g>
<!-- Node7&#45;&gt;Node19 -->
<g id="edge19_Node000007_Node000019" class="edge">
<title>Node7&#45;&gt;Node19</title>
<g id="a_edge19_Node000007_Node000019"><a xlink:title=" ">
<path fill="none" stroke="#63b8ff" d="M708.91,-122.88C738.68,-111.57 782.34,-94.99 808.58,-85.02"/>
<polygon fill="#63b8ff" stroke="#63b8ff" points="707.5,-119.67 699.39,-126.49 709.98,-126.21 707.5,-119.67"/>
</a>
</g>
</g>
<!-- Node9&#45;&gt;Node8 -->
<g id="edge17_Node000009_Node000008" class="edge">
<title>Node9&#45;&gt;Node8</title>
<g id="a_edge17_Node000009_Node000008"><a xlink:title=" ">
<path fill="none" stroke="#63b8ff" d="M610.11,-71.73C506.28,-66.83 300.23,-54.75 127,-30 116.98,-28.57 106.21,-26.57 96.27,-24.53"/>
<polygon fill="#63b8ff" stroke="#63b8ff" points="609.98,-75.23 620.13,-72.19 610.31,-68.23 609.98,-75.23"/>
</a>
</g>
</g>
<!-- Node10 -->
<g id="Node000010" class="node">
<title>Node10</title>
<g id="a_Node000010"><a xlink:href="../../d6/de7/AllEnvData_8cc_source.html" target="_top" xlink:title=" ">
<polygon fill="white" stroke="#666666" points="220,-24.5 136,-24.5 136,-5.5 220,-5.5 220,-24.5"/>
<text text-anchor="middle" x="178" y="-12.5" font-family="Helvetica,sans-Serif" font-size="10.00">AllEnvData.cc</text>
</a>
</g>
</g>
<!-- Node9&#45;&gt;Node10 -->
<g id="edge9_Node000009_Node000010" class="edge">
<title>Node9&#45;&gt;Node10</title>
<g id="a_edge9_Node000009_Node000010"><a xlink:title=" ">
<path fill="none" stroke="#63b8ff" d="M610.24,-71.39C522.26,-66.5 362.98,-54.86 229,-30 221.42,-28.59 213.32,-26.6 205.86,-24.56"/>
<polygon fill="#63b8ff" stroke="#63b8ff" points="610.17,-74.9 620.34,-71.94 610.55,-67.91 610.17,-74.9"/>
</a>
</g>
</g>
<!-- Node11 -->
<g id="Node000011" class="node">
<title>Node11</title>
<g id="a_Node000011"><a xlink:href="../../db/dd9/ComponentItemInternalData_8cc_source.html" target="_top" xlink:title=" ">
<polygon fill="white" stroke="#666666" points="408,-24.5 238,-24.5 238,-5.5 408,-5.5 408,-24.5"/>
<text text-anchor="middle" x="323" y="-12.5" font-family="Helvetica,sans-Serif" font-size="10.00">ComponentItemInternalData.cc</text>
</a>
</g>
</g>
<!-- Node9&#45;&gt;Node11 -->
<g id="edge10_Node000009_Node000011" class="edge">
<title>Node9&#45;&gt;Node11</title>
<g id="a_edge10_Node000009_Node000011"><a xlink:title=" ">
<path fill="none" stroke="#63b8ff" d="M615.35,-64.31C547.13,-53.04 438.4,-35.07 374.54,-24.52"/>
<polygon fill="#63b8ff" stroke="#63b8ff" points="615.09,-67.82 625.53,-65.99 616.23,-60.91 615.09,-67.82"/>
</a>
</g>
</g>
<!-- Node12 -->
<g id="Node000012" class="node">
<title>Node12</title>
<g id="a_Node000012"><a xlink:href="../../d4/d7a/ConstituentConnectivityList_8cc_source.html" target="_top" xlink:title=" ">
<polygon fill="white" stroke="#666666" points="591.5,-24.5 426.5,-24.5 426.5,-5.5 591.5,-5.5 591.5,-24.5"/>
<text text-anchor="middle" x="509" y="-12.5" font-family="Helvetica,sans-Serif" font-size="10.00">ConstituentConnectivityList.cc</text>
</a>
</g>
</g>
<!-- Node9&#45;&gt;Node12 -->
<g id="edge11_Node000009_Node000012" class="edge">
<title>Node9&#45;&gt;Node12</title>
<g id="a_edge11_Node000009_Node000012"><a xlink:title=" ">
<path fill="none" stroke="#63b8ff" d="M643.03,-62.67C610.54,-51.36 562.34,-34.57 533.46,-24.52"/>
<polygon fill="#63b8ff" stroke="#63b8ff" points="641.98,-66.01 652.57,-65.99 644.28,-59.4 641.98,-66.01"/>
</a>
</g>
</g>
<!-- Node13 -->
<g id="Node000013" class="node">
<title>Node13</title>
<g id="a_Node000013"><a xlink:href="../../df/dc4/ConstituentListPrinter_8cc_source.html" target="_top" xlink:title=" ">
<polygon fill="white" stroke="#666666" points="744.5,-24.5 609.5,-24.5 609.5,-5.5 744.5,-5.5 744.5,-24.5"/>
<text text-anchor="middle" x="677" y="-12.5" font-family="Helvetica,sans-Serif" font-size="10.00">ConstituentListPrinter.cc</text>
</a>
</g>
</g>
<!-- Node9&#45;&gt;Node13 -->
<g id="edge12_Node000009_Node000013" class="edge">
<title>Node9&#45;&gt;Node13</title>
<g id="a_edge12_Node000009_Node000013"><a xlink:title=" ">
<path fill="none" stroke="#63b8ff" d="M677,-55.66C677,-45.24 677,-32.8 677,-24.67"/>
<polygon fill="#63b8ff" stroke="#63b8ff" points="673.5,-55.87 677,-65.87 680.5,-55.87 673.5,-55.87"/>
</a>
</g>
</g>
<!-- Node14 -->
<g id="Node000014" class="node">
<title>Node14</title>
<g id="a_Node000014"><a xlink:href="../../d5/df1/IncrementalComponentModifier_8cc_source.html" target="_top" xlink:title=" ">
<polygon fill="white" stroke="#666666" points="947,-24.5 763,-24.5 763,-5.5 947,-5.5 947,-24.5"/>
<text text-anchor="middle" x="855" y="-12.5" font-family="Helvetica,sans-Serif" font-size="10.00">IncrementalComponentModifier.cc</text>
</a>
</g>
</g>
<!-- Node9&#45;&gt;Node14 -->
<g id="edge13_Node000009_Node000014" class="edge">
<title>Node9&#45;&gt;Node14</title>
<g id="a_edge13_Node000009_Node000014"><a xlink:title=" ">
<path fill="none" stroke="#63b8ff" d="M712.55,-62.82C746.98,-51.5 798.36,-34.62 829.09,-24.52"/>
<polygon fill="#63b8ff" stroke="#63b8ff" points="711.29,-59.55 702.88,-65.99 713.48,-66.2 711.29,-59.55"/>
</a>
</g>
</g>
<!-- Node15 -->
<g id="Node000015" class="node">
<title>Node15</title>
<g id="a_Node000015"><a xlink:href="../../d7/d48/IncrementalComponentModifier__Accelerator_8cc_source.html" target="_top" xlink:title=" ">
<polygon fill="white" stroke="#666666" points="1136.5,-30 965.5,-30 965.5,0 1136.5,0 1136.5,-30"/>
<text text-anchor="start" x="973.5" y="-18" font-family="Helvetica,sans-Serif" font-size="10.00">IncrementalComponentModifier</text>
<text text-anchor="middle" x="1051" y="-7" font-family="Helvetica,sans-Serif" font-size="10.00">_Accelerator.cc</text>
</a>
</g>
</g>
<!-- Node9&#45;&gt;Node15 -->
<g id="edge14_Node000009_Node000015" class="edge">
<title>Node9&#45;&gt;Node15</title>
<g id="a_edge14_Node000009_Node000015"><a xlink:title=" ">
<path fill="none" stroke="#63b8ff" d="M741.41,-64.42C803.31,-54.74 897.23,-40.05 965.39,-29.39"/>
<polygon fill="#63b8ff" stroke="#63b8ff" points="740.72,-60.99 731.38,-65.99 741.8,-67.91 740.72,-60.99"/>
</a>
</g>
</g>
<!-- Node16 -->
<g id="Node000016" class="node">
<title>Node16</title>
<g id="a_Node000016"><a xlink:href="../../d5/d2c/MeshMaterialBackup_8cc_source.html" target="_top" xlink:title=" ">
<polygon fill="white" stroke="#666666" points="1287,-24.5 1155,-24.5 1155,-5.5 1287,-5.5 1287,-24.5"/>
<text text-anchor="middle" x="1221" y="-12.5" font-family="Helvetica,sans-Serif" font-size="10.00">MeshMaterialBackup.cc</text>
</a>
</g>
</g>
<!-- Node9&#45;&gt;Node16 -->
<g id="edge15_Node000009_Node000016" class="edge">
<title>Node9&#45;&gt;Node16</title>
<g id="a_edge15_Node000009_Node000016"><a xlink:title=" ">
<path fill="none" stroke="#63b8ff" d="M743.57,-65.99C923.47,-46.79 971.07,-54.08 1146,-30 1156.76,-28.52 1168.32,-26.55 1179.07,-24.56"/>
<polygon fill="#63b8ff" stroke="#63b8ff" points="743.07,-62.52 733.51,-67.08 743.83,-69.48 743.07,-62.52"/>
</a>
</g>
</g>
<!-- Node17 -->
<g id="Node000017" class="node">
<title>Node17</title>
<g id="a_Node000017"><a xlink:href="../../d6/d4b/MeshMaterialExchangeMng_8cc_source.html" target="_top" xlink:title=" ">
<polygon fill="white" stroke="#666666" points="1470.5,-24.5 1305.5,-24.5 1305.5,-5.5 1470.5,-5.5 1470.5,-24.5"/>
<text text-anchor="middle" x="1388" y="-12.5" font-family="Helvetica,sans-Serif" font-size="10.00">MeshMaterialExchangeMng.cc</text>
</a>
</g>
</g>
<!-- Node9&#45;&gt;Node17 -->
<g id="edge16_Node000009_Node000017" class="edge">
<title>Node9&#45;&gt;Node17</title>
<g id="a_edge16_Node000009_Node000017"><a xlink:title=" ">
<path fill="none" stroke="#63b8ff" d="M743.81,-65.99C989.84,-42.63 1054.37,-56.2 1296,-30 1309.33,-28.55 1323.69,-26.57 1337.01,-24.56"/>
<polygon fill="#63b8ff" stroke="#63b8ff" points="743.48,-62.51 733.86,-66.95 744.14,-69.47 743.48,-62.51"/>
</a>
</g>
</g>
<!-- Node18 -->
<g id="Node000018" class="node">
<title>Node18</title>
<g id="a_Node000018"><a xlink:href="../../da/d9e/MeshMaterialModifierImpl_8cc_source.html" target="_top" xlink:title=" ">
<polygon fill="white" stroke="#666666" points="1647,-24.5 1489,-24.5 1489,-5.5 1647,-5.5 1647,-24.5"/>
<text text-anchor="middle" x="1568" y="-12.5" font-family="Helvetica,sans-Serif" font-size="10.00">MeshMaterialModifierImpl.cc</text>
</a>
</g>
</g>
<!-- Node9&#45;&gt;Node18 -->
<g id="edge18_Node000009_Node000018" class="edge">
<title>Node9&#45;&gt;Node18</title>
<g id="a_edge18_Node000009_Node000018"><a xlink:title=" ">
<path fill="none" stroke="#63b8ff" d="M744.1,-65.99C1071.42,-37.58 1157.15,-63.47 1480,-30 1493.23,-28.63 1507.51,-26.6 1520.63,-24.51"/>
<polygon fill="#63b8ff" stroke="#63b8ff" points="743.51,-62.53 733.85,-66.89 744.12,-69.5 743.51,-62.53"/>
</a>
</g>
</g>
</g>
</svg>
