<?xml version="1.0" encoding="UTF-8" standalone="no"?>
<!DOCTYPE svg PUBLIC "-//W3C//DTD SVG 1.1//EN"
 "http://www.w3.org/Graphics/SVG/1.1/DTD/svg11.dtd">
<!-- Generated by graphviz version 2.43.0 (0)
 -->
<!-- Title: Arcane::MessagePassing::ISerializeMessage::tag Pages: 1 -->
<svg width="367pt" height="122pt"
 viewBox="0.00 0.00 367.00 122.00" xmlns="http://www.w3.org/2000/svg" xmlns:xlink="http://www.w3.org/1999/xlink">

<svg id="main" version="1.1" xmlns="http://www.w3.org/2000/svg" xmlns:xlink="http://www.w3.org/1999/xlink" xml:space="preserve">

<style type="text/css"><![CDATA[
.node, .edge {opacity: 0.7;}
.node.selected, .edge.selected {opacity: 1;}
.edge:hover path { stroke: red; }
.edge:hover polygon { stroke: red; fill: red; }
]]></style>
<script type="application/ecmascript" xlink:href="../../svg.min.js"/>
<svg id="graph" class="graph">
<g id="graph0" class="graph" transform="scale(1 1) rotate(0) translate(4 118)">
<title>Arcane::MessagePassing::ISerializeMessage::tag</title>
<!-- Node1 -->
<g id="Node000001" class="node">
<title>Node1</title>
<g id="a_Node000001"><a xlink:title="Tag interne du message.">
<polygon fill="#999999" stroke="#666666" points="359,-63 222,-63 222,-33 359,-33 359,-63"/>
<text text-anchor="start" x="230" y="-51" font-family="Helvetica,sans-Serif" font-size="10.00">Arcane::MessagePassing</text>
<text text-anchor="middle" x="290.5" y="-40" font-family="Helvetica,sans-Serif" font-size="10.00">::ISerializeMessage::tag</text>
</a>
</g>
</g>
<!-- Node1&#45;&gt;Node1 -->
<g id="edge5_Node000001_Node000001" class="edge">
<title>Node1&#45;&gt;Node1</title>
<g id="a_edge5_Node000001_Node000001"><a xlink:title=" ">
<path fill="none" stroke="#63b8ff" d="M324.81,-73.6C320.12,-77.97 308.68,-81 290.5,-81 259.88,-81 248.39,-72.41 256.05,-63.28"/>
<polygon fill="#63b8ff" stroke="#63b8ff" points="328.31,-73.32 324.95,-63.28 321.31,-73.22 328.31,-73.32"/>
</a>
</g>
</g>
<!-- Node2 -->
<g id="Node000002" class="node">
<title>Node2</title>
<g id="a_Node000002"><a xlink:href="../../d3/d0a/classArcane_1_1MessagePassing_1_1ISerializeMessage.html#abeb76d41225d6eae35f716369de6a608" target="_top" xlink:title="Positionne un tag interne pour le message.">
<polygon fill="white" stroke="#666666" points="186,-96 0,-96 0,-66 186,-66 186,-96"/>
<text text-anchor="start" x="8" y="-84" font-family="Helvetica,sans-Serif" font-size="10.00">Arcane::MessagePassing</text>
<text text-anchor="middle" x="93" y="-73" font-family="Helvetica,sans-Serif" font-size="10.00">::ISerializeMessage::setInternalTag</text>
</a>
</g>
</g>
<!-- Node1&#45;&gt;Node2 -->
<g id="edge1_Node000001_Node000002" class="edge">
<title>Node1&#45;&gt;Node2</title>
<g id="a_edge1_Node000001_Node000002"><a xlink:title=" ">
<path fill="none" stroke="#63b8ff" d="M212.08,-61.07C202.51,-62.68 192.66,-64.35 182.93,-65.99"/>
<polygon fill="#63b8ff" stroke="#63b8ff" points="212.67,-64.52 221.95,-59.4 211.5,-57.62 212.67,-64.52"/>
</a>
</g>
</g>
<!-- Node3 -->
<g id="Node000003" class="node">
<title>Node3</title>
<g id="a_Node000003"><a xlink:href="../../d3/d0a/classArcane_1_1MessagePassing_1_1ISerializeMessage.html#a0e5c6b7e2e8596b3b5edb9c3ceece042" target="_top" xlink:title=" ">
<polygon fill="white" stroke="#666666" points="167.5,-30 18.5,-30 18.5,0 167.5,0 167.5,-30"/>
<text text-anchor="start" x="26.5" y="-18" font-family="Helvetica,sans-Serif" font-size="10.00">Arcane::MessagePassing</text>
<text text-anchor="middle" x="93" y="-7" font-family="Helvetica,sans-Serif" font-size="10.00">::ISerializeMessage::setTag</text>
</a>
</g>
</g>
<!-- Node1&#45;&gt;Node3 -->
<g id="edge3_Node000001_Node000003" class="edge">
<title>Node1&#45;&gt;Node3</title>
<g id="a_edge3_Node000001_Node000003"><a xlink:title=" ">
<path fill="none" stroke="#63b8ff" d="M211.94,-34.91C197.32,-32.44 182.06,-29.87 167.57,-27.42"/>
<polygon fill="#63b8ff" stroke="#63b8ff" points="211.5,-38.38 221.95,-36.6 212.67,-31.48 211.5,-38.38"/>
</a>
</g>
</g>
<!-- Node2&#45;&gt;Node2 -->
<g id="edge2_Node000002_Node000002" class="edge">
<title>Node2&#45;&gt;Node2</title>
<g id="a_edge2_Node000002_Node000002"><a xlink:title=" ">
<path fill="none" stroke="#63b8ff" d="M127.31,-106.6C122.62,-110.97 111.18,-114 93,-114 62.37,-114 50.89,-105.41 58.55,-96.28"/>
<polygon fill="#63b8ff" stroke="#63b8ff" points="130.81,-106.32 127.45,-96.28 123.81,-106.22 130.81,-106.32"/>
</a>
</g>
</g>
<!-- Node3&#45;&gt;Node3 -->
<g id="edge4_Node000003_Node000003" class="edge">
<title>Node3&#45;&gt;Node3</title>
<g id="a_edge4_Node000003_Node000003"><a xlink:title=" ">
<path fill="none" stroke="#63b8ff" d="M127.31,-40.6C122.62,-44.97 111.18,-48 93,-48 62.37,-48 50.89,-39.41 58.55,-30.28"/>
<polygon fill="#63b8ff" stroke="#63b8ff" points="130.81,-40.32 127.45,-30.28 123.81,-40.22 130.81,-40.32"/>
</a>
</g>
</g>
</g>
</svg>
</svg>

<style type='text/css'>
<![CDATA[
[data-mouse-over-selected='false'] { opacity: 0.7; }
[data-mouse-over-selected='true']  { opacity: 1.0; }
]]>
</style>
<script type="application/ecmascript"><![CDATA[
document.addEventListener('DOMContentLoaded', (event) => {
  highlightEdges();
  highlightAdjacentNodes();
});
]]></script>
</svg>
