<?xml version="1.0" encoding="UTF-8" standalone="no"?>
<!DOCTYPE svg PUBLIC "-//W3C//DTD SVG 1.1//EN"
 "http://www.w3.org/Graphics/SVG/1.1/DTD/svg11.dtd">
<!-- Generated by graphviz version 2.43.0 (0)
 -->
<!-- Title: Arcane::DiTetra5RefinementPattern3DT_4Py_2T Pages: 1 -->
<svg width="187pt" height="381pt"
 viewBox="0.00 0.00 187.00 381.00" xmlns="http://www.w3.org/2000/svg" xmlns:xlink="http://www.w3.org/1999/xlink">
<g id="graph0" class="graph" transform="scale(1 1) rotate(0) translate(4 377)">
<title>Arcane::DiTetra5RefinementPattern3DT_4Py_2T</title>
<!-- Node1 -->
<g id="Node000001" class="node">
<title>Node1</title>
<g id="a_Node000001"><a xlink:title=" ">
<polygon fill="#999999" stroke="transparent" points="169,-176 10,-176 10,0 169,0 169,-176"/>
<text text-anchor="start" x="21.5" y="-164" font-family="Helvetica,sans-Serif" font-size="10.00">Arcane::DiTetra5Refinement</text>
<text text-anchor="start" x="42.5" y="-153" font-family="Helvetica,sans-Serif" font-size="10.00">Pattern3DT_4Py_2T</text>
<text text-anchor="start" x="17" y="-138" font-family="Helvetica,sans-Serif" font-size="10.00">&#45;</text>
<text text-anchor="start" x="27.5" y="-138" font-family="Helvetica,sans-Serif" font-size="10.00">m_nb_hChildren</text>
<text text-anchor="start" x="17" y="-123" font-family="Helvetica,sans-Serif" font-size="10.00">&#45;</text>
<text text-anchor="start" x="27.5" y="-123" font-family="Helvetica,sans-Serif" font-size="10.00">_refine_matrix_1</text>
<text text-anchor="start" x="17" y="-108" font-family="Helvetica,sans-Serif" font-size="10.00">&#45;</text>
<text text-anchor="start" x="27.5" y="-108" font-family="Helvetica,sans-Serif" font-size="10.00">_refine_matrix_2</text>
<text text-anchor="start" x="17" y="-93" font-family="Helvetica,sans-Serif" font-size="10.00">&#45;</text>
<text text-anchor="start" x="27.5" y="-93" font-family="Helvetica,sans-Serif" font-size="10.00">_refine_matrix_3</text>
<text text-anchor="start" x="14.5" y="-78" font-family="Helvetica,sans-Serif" font-size="10.00">+</text>
<text text-anchor="start" x="27.5" y="-78" font-family="Helvetica,sans-Serif" font-size="10.00">DiTetra5RefinementPattern3</text>
<text text-anchor="start" x="27.5" y="-67" font-family="Helvetica,sans-Serif" font-size="10.00">DT_4Py_2T()</text>
<text text-anchor="start" x="14.5" y="-52" font-family="Helvetica,sans-Serif" font-size="10.00">+</text>
<text text-anchor="start" x="27.5" y="-52" font-family="Helvetica,sans-Serif" font-size="10.00">refine_matrix()</text>
<text text-anchor="start" x="14.5" y="-37" font-family="Helvetica,sans-Serif" font-size="10.00">+</text>
<text text-anchor="start" x="27.5" y="-37" font-family="Helvetica,sans-Serif" font-size="10.00">face_mapping()</text>
<text text-anchor="start" x="14.5" y="-22" font-family="Helvetica,sans-Serif" font-size="10.00">+</text>
<text text-anchor="start" x="27.5" y="-22" font-family="Helvetica,sans-Serif" font-size="10.00">hChildrenTypeId()</text>
<text text-anchor="start" x="14.5" y="-7" font-family="Helvetica,sans-Serif" font-size="10.00">+</text>
<text text-anchor="start" x="27.5" y="-7" font-family="Helvetica,sans-Serif" font-size="10.00">getNbHChildren()</text>
<polygon fill="#666666" stroke="#666666" points="10.5,-148 10.5,-148 169.5,-148 169.5,-148 10.5,-148"/>
<polygon fill="#666666" stroke="#666666" points="10.5,-88 10.5,-88 25.5,-88 25.5,-88 10.5,-88"/>
<polygon fill="#666666" stroke="#666666" points="25.5,-88 25.5,-88 169.5,-88 169.5,-88 25.5,-88"/>
<polygon fill="none" stroke="#666666" points="10,0 10,-176 169,-176 169,0 10,0"/>
</a>
</g>
</g>
<!-- Node2 -->
<g id="Node000002" class="node">
<title>Node2</title>
<g id="a_Node000002"><a xlink:href="../../d7/df8/classArcane_1_1RefinementPatternT.html" target="_top" xlink:title=" ">
<polygon fill="white" stroke="transparent" points="179,-373 0,-373 0,-212 179,-212 179,-373"/>
<text text-anchor="start" x="5.5" y="-360.5" font-family="Helvetica,sans-Serif" font-size="10.00">Arcane::RefinementPattern</text>
<text text-anchor="start" x="5.5" y="-349.5" font-family="Helvetica,sans-Serif" font-size="10.00">T&lt; DiTetra5RefinementPattern3DT</text>
<text text-anchor="start" x="64" y="-338.5" font-family="Helvetica,sans-Serif" font-size="10.00">_4Py_2T &gt;</text>
<text text-anchor="start" x="88" y="-323.5" font-family="Helvetica,sans-Serif" font-size="10.00"> </text>
<text text-anchor="start" x="18" y="-308.5" font-family="Helvetica,sans-Serif" font-size="10.00">+</text>
<text text-anchor="start" x="44.5" y="-308.5" font-family="Helvetica,sans-Serif" font-size="10.00">refine_matrix()</text>
<text text-anchor="start" x="18" y="-293.5" font-family="Helvetica,sans-Serif" font-size="10.00">+</text>
<text text-anchor="start" x="44.5" y="-293.5" font-family="Helvetica,sans-Serif" font-size="10.00">face_mapping()</text>
<text text-anchor="start" x="18" y="-278.5" font-family="Helvetica,sans-Serif" font-size="10.00">+</text>
<text text-anchor="start" x="44.5" y="-278.5" font-family="Helvetica,sans-Serif" font-size="10.00">face_mapping_topo()</text>
<text text-anchor="start" x="18" y="-263.5" font-family="Helvetica,sans-Serif" font-size="10.00">+</text>
<text text-anchor="start" x="44.5" y="-263.5" font-family="Helvetica,sans-Serif" font-size="10.00">hChildrenTypeId()</text>
<text text-anchor="start" x="18" y="-248.5" font-family="Helvetica,sans-Serif" font-size="10.00">+</text>
<text text-anchor="start" x="44.5" y="-248.5" font-family="Helvetica,sans-Serif" font-size="10.00">getNbHChildren()</text>
<text text-anchor="start" x="18" y="-233.5" font-family="Helvetica,sans-Serif" font-size="10.00">#</text>
<text text-anchor="start" x="44.5" y="-233.5" font-family="Helvetica,sans-Serif" font-size="10.00">asImp()</text>
<text text-anchor="start" x="18" y="-218.5" font-family="Helvetica,sans-Serif" font-size="10.00">#</text>
<text text-anchor="start" x="44.5" y="-218.5" font-family="Helvetica,sans-Serif" font-size="10.00">asImp()</text>
<polygon fill="#bfbfbf" stroke="#bfbfbf" points="0.5,-333.5 0.5,-333.5 179.5,-333.5 179.5,-333.5 0.5,-333.5"/>
<polygon fill="#bfbfbf" stroke="#bfbfbf" points="0.5,-318.5 0.5,-318.5 179.5,-318.5 179.5,-318.5 0.5,-318.5"/>
<polygon fill="none" stroke="#bfbfbf" points="0,-212 0,-373 179,-373 179,-212 0,-212"/>
</a>
</g>
</g>
<!-- Node2&#45;&gt;Node1 -->
<g id="edge1_Node000001_Node000002" class="edge">
<title>Node2&#45;&gt;Node1</title>
<g id="a_edge1_Node000001_Node000002"><a xlink:title=" ">
<path fill="none" stroke="#63b8ff" d="M89.5,-201.5C89.5,-193.03 89.5,-184.46 89.5,-176.02"/>
<polygon fill="none" stroke="#63b8ff" points="86,-201.76 89.5,-211.76 93,-201.76 86,-201.76"/>
</a>
</g>
</g>
</g>
</svg>
