<?xml version="1.0" encoding="UTF-8" standalone="no"?>
<!DOCTYPE svg PUBLIC "-//W3C//DTD SVG 1.1//EN"
 "http://www.w3.org/Graphics/SVG/1.1/DTD/svg11.dtd">
<!-- Generated by graphviz version 2.43.0 (0)
 -->
<!-- Title: Arcane::ArcaneMain::run Pages: 1 -->
<!--zoomable 686 -->

<svg id="main" version="1.1" xmlns="http://www.w3.org/2000/svg" xmlns:xlink="http://www.w3.org/1999/xlink" xml:space="preserve" onload="init(evt)">

<style type="text/css"><![CDATA[
.node, .edge {opacity: 0.7;}
.node.selected, .edge.selected {opacity: 1;}
.edge:hover path { stroke: red; }
.edge:hover polygon { stroke: red; fill: red; }
]]></style>

<defs>
  <circle id="rim" cx="0" cy="0" r="7"/>
  <circle id="rim2" cx="0" cy="0" r="3.5"/>
  <g id="zoomPlus">
    <use xlink:href="#rim" fill="#404040"><set attributeName="fill" to="#808080" begin="zoomplus.mouseover" end="zoomplus.mouseout"/></use>
    <path d="M-4,0h8M0,-4v8" fill="none" stroke="white" stroke-width="1.5" pointer-events="none"/>
  </g>
  <g id="zoomMin">
    <use xlink:href="#rim" fill="#404040"><set attributeName="fill" to="#808080" begin="zoomminus.mouseover" end="zoomminus.mouseout"/></use>
    <path d="M-4,0h8" fill="none" stroke="white" stroke-width="1.5" pointer-events="none"/>
  </g>
  <g id="arrowUp" transform="translate(30 24)">
    <use xlink:href="#rim"/>
    <path pointer-events="none" fill="none" stroke="white" stroke-width="1.5" d="M0,-3.0v7 M-2.5,-0.5L0,-3.0L2.5,-0.5"/>
  </g>
  <g id="arrowRight" transform="rotate(90) translate(36 -43)">
    <use xlink:href="#rim"/>
    <path pointer-events="none" fill="none" stroke="white" stroke-width="1.5" d="M0,-3.0v7 M-2.5,-0.5L0,-3.0L2.5,-0.5"/>
  </g>
  <g id="arrowDown" transform="rotate(180) translate(-30 -48)">
    <use xlink:href="#rim"/>
    <path pointer-events="none" fill="none" stroke="white" stroke-width="1.5" d="M0,-3.0v7 M-2.5,-0.5L0,-3.0L2.5,-0.5"/>
  </g>
  <g id="arrowLeft" transform="rotate(270) translate(-36 17)">
    <use xlink:href="#rim"/>
    <path pointer-events="none" fill="none" stroke="white" stroke-width="1.5" d="M0,-3.0v7 M-2.5,-0.5L0,-3.0L2.5,-0.5"/>
  </g>
  <g id="resetDef">
    <use xlink:href="#rim2" fill="#404040"><set attributeName="fill" to="#808080" begin="reset.mouseover" end="reset.mouseout"/></use>
  </g>
</defs>
<script type="application/ecmascript">
var viewWidth = 774;
var viewHeight = 686;
var sectionId = 'dynsection-24';
</script>
<script type="application/ecmascript" xlink:href="../../svg.min.js"/>
<svg id="graph" class="graph">
<g id="viewport">
<title>Arcane::ArcaneMain::run</title>
<!-- Node1 -->
<g id="Node000001" class="node">
<title>Node1</title>
<g id="a_Node000001"><a xlink:title="Point d&#39;entrée de l&#39;exécutable dans Arcane.">
<polygon fill="#999999" stroke="#666666" points="136,-168.5 0,-168.5 0,-149.5 136,-149.5 136,-168.5"/>
<text text-anchor="middle" x="68" y="-156.5" font-family="Helvetica,sans-Serif" font-size="10.00">Arcane::ArcaneMain::run</text>
</a>
</g>
</g>
<!-- Node2 -->
<g id="Node000002" class="node">
<title>Node2</title>
<g id="a_Node000002"><a xlink:href="../../da/dae/classArcane_1_1ArcaneMain.html#a2c4607d595cfb9000e1f361fe08c3b90" target="_top" xlink:title="Termine l&#39;utilisation Arcane.">
<polygon fill="white" stroke="#666666" points="335,-510 221,-510 221,-480 335,-480 335,-510"/>
<text text-anchor="start" x="229" y="-498" font-family="Helvetica,sans-Serif" font-size="10.00">Arcane::ArcaneMain</text>
<text text-anchor="middle" x="278" y="-487" font-family="Helvetica,sans-Serif" font-size="10.00">::arcaneFinalize</text>
</a>
</g>
</g>
<!-- Node1&#45;&gt;Node2 -->
<g id="edge1_Node000001_Node000002" class="edge">
<title>Node1&#45;&gt;Node2</title>
<g id="a_edge1_Node000001_Node000002"><a xlink:title=" ">
<path fill="none" stroke="#63b8ff" d="M75,-168.69C102.93,-213.81 220.58,-403.86 262.27,-471.21"/>
<polygon fill="#63b8ff" stroke="#63b8ff" points="259.4,-473.21 267.64,-479.87 265.35,-469.53 259.4,-473.21"/>
</a>
</g>
</g>
<!-- Node13 -->
<g id="Node000013" class="node">
<title>Node13</title>
<g id="a_Node000013"><a xlink:href="../../da/dae/classArcane_1_1ArcaneMain.html#a1541bdfeef50d45b8a797c227d1c4545" target="_top" xlink:title="Initialise Arcane.">
<polygon fill="white" stroke="#666666" points="335,-270 221,-270 221,-240 335,-240 335,-270"/>
<text text-anchor="start" x="229" y="-258" font-family="Helvetica,sans-Serif" font-size="10.00">Arcane::ArcaneMain</text>
<text text-anchor="middle" x="278" y="-247" font-family="Helvetica,sans-Serif" font-size="10.00">::arcaneInitialize</text>
</a>
</g>
</g>
<!-- Node1&#45;&gt;Node13 -->
<g id="edge12_Node000001_Node000013" class="edge">
<title>Node1&#45;&gt;Node13</title>
<g id="a_edge12_Node000001_Node000013"><a xlink:title=" ">
<path fill="none" stroke="#63b8ff" d="M79.57,-168.52C97.34,-184 134.9,-214.55 172,-231 184.19,-236.41 197.74,-240.66 210.94,-243.99"/>
<polygon fill="#63b8ff" stroke="#63b8ff" points="210.41,-247.46 220.94,-246.36 212.02,-240.65 210.41,-247.46"/>
</a>
</g>
</g>
<!-- Node21 -->
<g id="Node000021" class="node">
<title>Node21</title>
<g id="a_Node000021"><a xlink:href="../../db/d38/classArcane_1_1IArcaneMain.html#a7b4ecf6893794d885998cc2134833986" target="_top" xlink:title=" ">
<polygon fill="white" stroke="#666666" points="336.5,-222 219.5,-222 219.5,-192 336.5,-192 336.5,-222"/>
<text text-anchor="start" x="227.5" y="-210" font-family="Helvetica,sans-Serif" font-size="10.00">Arcane::IArcaneMain</text>
<text text-anchor="middle" x="278" y="-199" font-family="Helvetica,sans-Serif" font-size="10.00">::arcaneMain</text>
</a>
</g>
</g>
<!-- Node1&#45;&gt;Node21 -->
<g id="edge21_Node000001_Node000021" class="edge">
<title>Node1&#45;&gt;Node21</title>
<g id="a_edge21_Node000001_Node000021"><a xlink:title=" ">
<path fill="none" stroke="#63b8ff" d="M109.59,-168.5C128.55,-172.93 151.43,-178.25 172,-183 184.15,-185.8 197.09,-188.78 209.59,-191.64"/>
<polygon fill="#63b8ff" stroke="#63b8ff" points="208.97,-195.08 219.5,-193.9 210.53,-188.26 208.97,-195.08"/>
</a>
</g>
</g>
<!-- Node22 -->
<g id="Node000022" class="node">
<title>Node22</title>
<g id="a_Node000022"><a xlink:href="../../da/dae/classArcane_1_1ArcaneMain.html#ab0ae77352cf594873af428ff3766d408" target="_top" xlink:title="Infos par défaut de l&#39;application.">
<polygon fill="white" stroke="#666666" points="343.5,-174 212.5,-174 212.5,-144 343.5,-144 343.5,-174"/>
<text text-anchor="start" x="220.5" y="-162" font-family="Helvetica,sans-Serif" font-size="10.00">Arcane::ArcaneMain</text>
<text text-anchor="middle" x="278" y="-151" font-family="Helvetica,sans-Serif" font-size="10.00">::defaultApplicationInfo</text>
</a>
</g>
</g>
<!-- Node1&#45;&gt;Node22 -->
<g id="edge22_Node000001_Node000022" class="edge">
<title>Node1&#45;&gt;Node22</title>
<g id="a_edge22_Node000001_Node000022"><a xlink:title=" ">
<path fill="none" stroke="#63b8ff" d="M136.24,-159C157.35,-159 180.78,-159 202.37,-159"/>
<polygon fill="#63b8ff" stroke="#63b8ff" points="202.47,-162.5 212.47,-159 202.47,-155.5 202.47,-162.5"/>
</a>
</g>
</g>
<!-- Node23 -->
<g id="Node000023" class="node">
<title>Node23</title>
<g id="a_Node000023"><a xlink:href="../../da/dae/classArcane_1_1ArcaneMain.html#a0e0525a236b088d0fec30127c7d93baa" target="_top" xlink:title="Informations pour l&#39;initialisation du runtime &#39;.Net&#39;.">
<polygon fill="white" stroke="#666666" points="384,-126 172,-126 172,-96 384,-96 384,-126"/>
<text text-anchor="start" x="180" y="-114" font-family="Helvetica,sans-Serif" font-size="10.00">Arcane::ArcaneMain</text>
<text text-anchor="middle" x="278" y="-103" font-family="Helvetica,sans-Serif" font-size="10.00">::defaultDotNetRuntimeInitialisationInfo</text>
</a>
</g>
</g>
<!-- Node1&#45;&gt;Node23 -->
<g id="edge23_Node000001_Node000023" class="edge">
<title>Node1&#45;&gt;Node23</title>
<g id="a_edge23_Node000001_Node000023"><a xlink:title=" ">
<path fill="none" stroke="#63b8ff" d="M109.59,-149.5C128.55,-145.07 151.43,-139.75 172,-135 181.5,-132.81 191.48,-130.51 201.36,-128.25"/>
<polygon fill="#63b8ff" stroke="#63b8ff" points="202.21,-131.64 211.18,-126 200.65,-124.82 202.21,-131.64"/>
</a>
</g>
</g>
<!-- Node24 -->
<g id="Node000024" class="node">
<title>Node24</title>
<g id="a_Node000024"><a xlink:href="../../dd/d27/namespaceArcane_1_1platform.html#aab2e9b4c52a5c8e36e087be2383ea6b6" target="_top" xlink:title="Variable d&#39;environnement du nom name.">
<polygon fill="white" stroke="#666666" points="369,-78 187,-78 187,-48 369,-48 369,-78"/>
<text text-anchor="start" x="195" y="-66" font-family="Helvetica,sans-Serif" font-size="10.00">Arcane::platform::getEnvironment</text>
<text text-anchor="middle" x="278" y="-55" font-family="Helvetica,sans-Serif" font-size="10.00">Variable</text>
</a>
</g>
</g>
<!-- Node1&#45;&gt;Node24 -->
<g id="edge24_Node000001_Node000024" class="edge">
<title>Node1&#45;&gt;Node24</title>
<g id="a_edge24_Node000001_Node000024"><a xlink:title=" ">
<path fill="none" stroke="#63b8ff" d="M79.57,-149.48C97.34,-134 134.9,-103.45 172,-87 176.69,-84.92 181.58,-83.01 186.57,-81.26"/>
<polygon fill="#63b8ff" stroke="#63b8ff" points="187.86,-84.52 196.27,-78.08 185.68,-77.87 187.86,-84.52"/>
</a>
</g>
</g>
<!-- Node25 -->
<g id="Node000025" class="node">
<title>Node25</title>
<g id="a_Node000025"><a xlink:href="../../dd/d27/namespaceArcane_1_1platform.html#ae29ba3f612a4bb029fbcae94aded9f0b" target="_top" xlink:title="Vrai si le code s&#39;exécute avec le runtime .NET.">
<polygon fill="white" stroke="#666666" points="347.5,-30 208.5,-30 208.5,0 347.5,0 347.5,-30"/>
<text text-anchor="start" x="216.5" y="-18" font-family="Helvetica,sans-Serif" font-size="10.00">Arcane::platform::hasDot</text>
<text text-anchor="middle" x="278" y="-7" font-family="Helvetica,sans-Serif" font-size="10.00">NETRuntime</text>
</a>
</g>
</g>
<!-- Node1&#45;&gt;Node25 -->
<g id="edge25_Node000001_Node000025" class="edge">
<title>Node1&#45;&gt;Node25</title>
<g id="a_edge25_Node000001_Node000025"><a xlink:title=" ">
<path fill="none" stroke="#63b8ff" d="M74.28,-149.4C87.48,-126.38 124.29,-67.8 172,-39 180.2,-34.05 189.32,-30.12 198.66,-27"/>
<polygon fill="#63b8ff" stroke="#63b8ff" points="199.9,-30.29 208.45,-24.04 197.87,-23.59 199.9,-30.29"/>
</a>
</g>
</g>
<!-- Node3 -->
<g id="Node000003" class="node">
<title>Node3</title>
<g id="a_Node000003"><a xlink:href="../../da/df1/classArcane_1_1ItemGroupImpl.html#ae9af806f8867c611f09648b8a613aecb" target="_top" xlink:title=" ">
<polygon fill="white" stroke="#666666" points="567,-678 437,-678 437,-648 567,-648 567,-678"/>
<text text-anchor="start" x="445" y="-666" font-family="Helvetica,sans-Serif" font-size="10.00">Arcane::ItemGroupImpl</text>
<text text-anchor="middle" x="502" y="-655" font-family="Helvetica,sans-Serif" font-size="10.00">::_destroySharedNull</text>
</a>
</g>
</g>
<!-- Node2&#45;&gt;Node3 -->
<g id="edge2_Node000002_Node000003" class="edge">
<title>Node2&#45;&gt;Node3</title>
<g id="a_edge2_Node000002_Node000003"><a xlink:title=" ">
<path fill="none" stroke="#63b8ff" d="M289.57,-510.09C310.86,-539.34 361.85,-603.99 420,-639 422.83,-640.7 425.78,-642.29 428.82,-643.77"/>
<polygon fill="#63b8ff" stroke="#63b8ff" points="427.59,-647.05 438.15,-647.9 430.42,-640.65 427.59,-647.05"/>
</a>
</g>
</g>
<!-- Node4 -->
<g id="Node000004" class="node">
<title>Node4</title>
<g id="a_Node000004"><a xlink:href="../../d7/dbb/classArcane_1_1ItemTypeMng.html#a0fb226ff5037827d531aafd79bf3d117" target="_top" xlink:title="Détruit le singleton.">
<polygon fill="white" stroke="#666666" points="563,-630 441,-630 441,-600 563,-600 563,-630"/>
<text text-anchor="start" x="449" y="-618" font-family="Helvetica,sans-Serif" font-size="10.00">Arcane::ItemTypeMng</text>
<text text-anchor="middle" x="502" y="-607" font-family="Helvetica,sans-Serif" font-size="10.00">::_destroySingleton</text>
</a>
</g>
</g>
<!-- Node2&#45;&gt;Node4 -->
<g id="edge3_Node000002_Node000004" class="edge">
<title>Node2&#45;&gt;Node4</title>
<g id="a_edge3_Node000002_Node000004"><a xlink:title=" ">
<path fill="none" stroke="#63b8ff" d="M297.03,-510.01C322.81,-530.82 372.37,-568.41 420,-591 424.06,-592.93 428.31,-594.73 432.64,-596.43"/>
<polygon fill="#63b8ff" stroke="#63b8ff" points="431.63,-599.78 442.23,-599.94 434.05,-593.21 431.63,-599.78"/>
</a>
</g>
</g>
<!-- Node5 -->
<g id="Node000005" class="node">
<title>Node5</title>
<g id="a_Node000005"><a xlink:href="../../dd/d27/namespaceArcane_1_1platform.html#a4879cdda1965ce3b23ac76d3c0cca665" target="_top" xlink:title="Service utilisé pour charger dynamiquement des bibliothèques.">
<polygon fill="white" stroke="#666666" points="584,-582 420,-582 420,-552 584,-552 584,-582"/>
<text text-anchor="start" x="428" y="-570" font-family="Helvetica,sans-Serif" font-size="10.00">Arcane::platform::getDynamic</text>
<text text-anchor="middle" x="502" y="-559" font-family="Helvetica,sans-Serif" font-size="10.00">LibraryLoader</text>
</a>
</g>
</g>
<!-- Node2&#45;&gt;Node5 -->
<g id="edge4_Node000002_Node000005" class="edge">
<title>Node2&#45;&gt;Node5</title>
<g id="a_edge4_Node000002_Node000005"><a xlink:title=" ">
<path fill="none" stroke="#63b8ff" d="M321.74,-510.05C349.62,-519.74 386.86,-532.45 420,-543 426.29,-545 432.87,-547.04 439.45,-549.04"/>
<polygon fill="#63b8ff" stroke="#63b8ff" points="438.47,-552.4 449.05,-551.94 440.49,-545.7 438.47,-552.4"/>
</a>
</g>
</g>
<!-- Node6 -->
<g id="Node000006" class="node">
<title>Node6</title>
<g id="a_Node000006"><a xlink:href="../../de/dc9/classArcane_1_1FlexLMMng.html#a3d8edc9331c12fffae56e0db8c33dc8f" target="_top" xlink:title="Accès au singleton.">
<polygon fill="white" stroke="#666666" points="561.5,-534 442.5,-534 442.5,-504 561.5,-504 561.5,-534"/>
<text text-anchor="start" x="450.5" y="-522" font-family="Helvetica,sans-Serif" font-size="10.00">Arcane::FlexLMMng::</text>
<text text-anchor="middle" x="502" y="-511" font-family="Helvetica,sans-Serif" font-size="10.00">instance</text>
</a>
</g>
</g>
<!-- Node2&#45;&gt;Node6 -->
<g id="edge5_Node000002_Node000006" class="edge">
<title>Node2&#45;&gt;Node6</title>
<g id="a_edge5_Node000002_Node000006"><a xlink:title=" ">
<path fill="none" stroke="#63b8ff" d="M335.02,-501.06C364.58,-504.25 401.09,-508.2 432.34,-511.58"/>
<polygon fill="#63b8ff" stroke="#63b8ff" points="431.96,-515.06 442.28,-512.65 432.72,-508.1 431.96,-515.06"/>
</a>
</g>
</g>
<!-- Node8 -->
<g id="Node000008" class="node">
<title>Node8</title>
<g id="a_Node000008"><a xlink:href="../../dd/d27/namespaceArcane_1_1platform.html#a8a4d41ef973fef729ac5dd18c8b34bc3" target="_top" xlink:title="Routines de fin de programme spécifiques à une platforme.">
<polygon fill="white" stroke="#666666" points="575,-486 429,-486 429,-456 575,-456 575,-486"/>
<text text-anchor="start" x="437" y="-474" font-family="Helvetica,sans-Serif" font-size="10.00">Arcane::platform::platform</text>
<text text-anchor="middle" x="502" y="-463" font-family="Helvetica,sans-Serif" font-size="10.00">Terminate</text>
</a>
</g>
</g>
<!-- Node2&#45;&gt;Node8 -->
<g id="edge7_Node000002_Node000008" class="edge">
<title>Node2&#45;&gt;Node8</title>
<g id="a_edge7_Node000002_Node000008"><a xlink:title=" ">
<path fill="none" stroke="#63b8ff" d="M335.02,-488.94C360.3,-486.21 390.68,-482.93 418.49,-479.92"/>
<polygon fill="#63b8ff" stroke="#63b8ff" points="419.04,-483.38 428.61,-478.83 418.29,-476.42 419.04,-483.38"/>
</a>
</g>
</g>
<!-- Node10 -->
<g id="Node000010" class="node">
<title>Node10</title>
<g id="a_Node000010"><a xlink:href="../../de/dc9/classArcane_1_1FlexLMMng.html#a9ed9b6b8a409234783c392302a3aec1f" target="_top" xlink:title="Relache toutes les licences allouées.">
<polygon fill="white" stroke="#666666" points="561.5,-438 442.5,-438 442.5,-408 561.5,-408 561.5,-438"/>
<text text-anchor="start" x="450.5" y="-426" font-family="Helvetica,sans-Serif" font-size="10.00">Arcane::FlexLMMng::</text>
<text text-anchor="middle" x="502" y="-415" font-family="Helvetica,sans-Serif" font-size="10.00">releaseAllLicenses</text>
</a>
</g>
</g>
<!-- Node2&#45;&gt;Node10 -->
<g id="edge9_Node000002_Node000010" class="edge">
<title>Node2&#45;&gt;Node10</title>
<g id="a_edge9_Node000002_Node000010"><a xlink:title=" ">
<path fill="none" stroke="#63b8ff" d="M321.74,-479.95C349.62,-470.26 386.86,-457.55 420,-447 426.29,-445 432.87,-442.96 439.45,-440.96"/>
<polygon fill="#63b8ff" stroke="#63b8ff" points="440.49,-444.3 449.05,-438.06 438.47,-437.6 440.49,-444.3"/>
</a>
</g>
</g>
<!-- Node12 -->
<g id="Node000012" class="node">
<title>Node12</title>
<g id="a_Node000012"><a xlink:href="../../dd/d27/namespaceArcane_1_1platform.html#ad011b651664d92734ffb17401d201594" target="_top" xlink:title="Positionne le service utilisé pour charger dynamiquement des bibliothèques.">
<polygon fill="white" stroke="#666666" points="583.5,-390 420.5,-390 420.5,-360 583.5,-360 583.5,-390"/>
<text text-anchor="start" x="428.5" y="-378" font-family="Helvetica,sans-Serif" font-size="10.00">Arcane::platform::setDynamic</text>
<text text-anchor="middle" x="502" y="-367" font-family="Helvetica,sans-Serif" font-size="10.00">LibraryLoader</text>
</a>
</g>
</g>
<!-- Node2&#45;&gt;Node12 -->
<g id="edge11_Node000002_Node000012" class="edge">
<title>Node2&#45;&gt;Node12</title>
<g id="a_edge11_Node000002_Node000012"><a xlink:title=" ">
<path fill="none" stroke="#63b8ff" d="M297.03,-479.99C322.81,-459.18 372.37,-421.59 420,-399 424.06,-397.07 428.31,-395.27 432.64,-393.57"/>
<polygon fill="#63b8ff" stroke="#63b8ff" points="434.05,-396.79 442.23,-390.06 431.63,-390.22 434.05,-396.79"/>
</a>
</g>
</g>
<!-- Node7 -->
<g id="Node000007" class="node">
<title>Node7</title>
<g id="a_Node000007"><a xlink:href="../../de/dc9/classArcane_1_1FlexLMMng.html#a44affbdd19775d69da8ab20fd45892f0" target="_top" xlink:title="Constructeur.">
<polygon fill="white" stroke="#666666" points="752.5,-534 633.5,-534 633.5,-504 752.5,-504 752.5,-534"/>
<text text-anchor="start" x="641.5" y="-522" font-family="Helvetica,sans-Serif" font-size="10.00">Arcane::FlexLMMng::</text>
<text text-anchor="middle" x="693" y="-511" font-family="Helvetica,sans-Serif" font-size="10.00">FlexLMMng</text>
</a>
</g>
</g>
<!-- Node6&#45;&gt;Node7 -->
<g id="edge6_Node000006_Node000007" class="edge">
<title>Node6&#45;&gt;Node7</title>
<g id="a_edge6_Node000006_Node000007"><a xlink:title=" ">
<path fill="none" stroke="#63b8ff" d="M561.51,-519C581.08,-519 603.07,-519 623.34,-519"/>
<polygon fill="#63b8ff" stroke="#63b8ff" points="623.44,-522.5 633.44,-519 623.44,-515.5 623.44,-522.5"/>
</a>
</g>
</g>
<!-- Node9 -->
<g id="Node000009" class="node">
<title>Node9</title>
<g id="a_Node000009"><a xlink:href="../../dc/d0f/namespaceArcane_1_1Platform.html#a3c77360b03a1a79867acc53c59d7986f" target="_top" xlink:title="Routines de fin de programme spécifiques à une platforme.">
<polygon fill="white" stroke="#666666" points="766,-486 620,-486 620,-456 766,-456 766,-486"/>
<text text-anchor="start" x="628" y="-474" font-family="Helvetica,sans-Serif" font-size="10.00">Arcane::Platform::platform</text>
<text text-anchor="middle" x="693" y="-463" font-family="Helvetica,sans-Serif" font-size="10.00">Terminate</text>
</a>
</g>
</g>
<!-- Node8&#45;&gt;Node9 -->
<g id="edge8_Node000008_Node000009" class="edge">
<title>Node8&#45;&gt;Node9</title>
<g id="a_edge8_Node000008_Node000009"><a xlink:title=" ">
<path fill="none" stroke="#63b8ff" d="M575.26,-471C586.55,-471 598.28,-471 609.76,-471"/>
<polygon fill="#63b8ff" stroke="#63b8ff" points="609.78,-474.5 619.78,-471 609.78,-467.5 609.78,-474.5"/>
</a>
</g>
</g>
<!-- Node11 -->
<g id="Node000011" class="node">
<title>Node11</title>
<g id="a_Node000011"><a xlink:href="../../db/dc4/classArcane_1_1String.html#a3e077c33daf6f96bc96747fccd1edde0" target="_top" xlink:title="Retourne la conversion de l&#39;instance dans l&#39;encodage UTF&#45;8.">
<polygon fill="white" stroke="#666666" points="756.5,-432.5 629.5,-432.5 629.5,-413.5 756.5,-413.5 756.5,-432.5"/>
<text text-anchor="middle" x="693" y="-420.5" font-family="Helvetica,sans-Serif" font-size="10.00">Arcane::String::localstr</text>
</a>
</g>
</g>
<!-- Node10&#45;&gt;Node11 -->
<g id="edge10_Node000010_Node000011" class="edge">
<title>Node10&#45;&gt;Node11</title>
<g id="a_edge10_Node000010_Node000011"><a xlink:title=" ">
<path fill="none" stroke="#63b8ff" d="M561.51,-423C579.7,-423 599.99,-423 619.05,-423"/>
<polygon fill="#63b8ff" stroke="#63b8ff" points="619.18,-426.5 629.18,-423 619.18,-419.5 619.18,-426.5"/>
</a>
</g>
</g>
<!-- Node14 -->
<g id="Node000014" class="node">
<title>Node14</title>
<g id="a_Node000014"><a xlink:href="../../da/df1/classArcane_1_1ItemGroupImpl.html#ab7ff6832cd325d62576a7d410cd01c96" target="_top" xlink:title=" ">
<polygon fill="white" stroke="#666666" points="567,-342 437,-342 437,-312 567,-312 567,-342"/>
<text text-anchor="start" x="445" y="-330" font-family="Helvetica,sans-Serif" font-size="10.00">Arcane::ItemGroupImpl</text>
<text text-anchor="middle" x="502" y="-319" font-family="Helvetica,sans-Serif" font-size="10.00">::_buildSharedNull</text>
</a>
</g>
</g>
<!-- Node13&#45;&gt;Node14 -->
<g id="edge13_Node000013_Node000014" class="edge">
<title>Node13&#45;&gt;Node14</title>
<g id="a_edge13_Node000013_Node000014"><a xlink:title=" ">
<path fill="none" stroke="#63b8ff" d="M321.74,-270.05C349.62,-279.74 386.86,-292.45 420,-303 426.29,-305 432.87,-307.04 439.45,-309.04"/>
<polygon fill="#63b8ff" stroke="#63b8ff" points="438.47,-312.4 449.05,-311.94 440.49,-305.7 438.47,-312.4"/>
</a>
</g>
</g>
<!-- Node15 -->
<g id="Node000015" class="node">
<title>Node15</title>
<g id="a_Node000015"><a xlink:href="../../d7/dbb/classArcane_1_1ItemTypeMng.html#abc67b0d9c3bbc61a1009863765b73e69" target="_top" xlink:title="Instance singleton du type.">
<polygon fill="white" stroke="#666666" points="563,-294 441,-294 441,-264 563,-264 563,-294"/>
<text text-anchor="start" x="449" y="-282" font-family="Helvetica,sans-Serif" font-size="10.00">Arcane::ItemTypeMng</text>
<text text-anchor="middle" x="502" y="-271" font-family="Helvetica,sans-Serif" font-size="10.00">::_singleton</text>
</a>
</g>
</g>
<!-- Node13&#45;&gt;Node15 -->
<g id="edge14_Node000013_Node000015" class="edge">
<title>Node13&#45;&gt;Node15</title>
<g id="a_edge14_Node000013_Node000015"><a xlink:title=" ">
<path fill="none" stroke="#63b8ff" d="M335.02,-261.06C363.99,-264.19 399.64,-268.04 430.46,-271.37"/>
<polygon fill="#63b8ff" stroke="#63b8ff" points="430.39,-274.89 440.71,-272.48 431.15,-267.93 430.39,-274.89"/>
</a>
</g>
</g>
<!-- Node17 -->
<g id="Node000017" class="node">
<title>Node17</title>
<g id="a_Node000017"><a xlink:href="../../dd/d27/namespaceArcane_1_1platform.html#a5003998621c0b1af93e0df0c72a0bb60" target="_top" xlink:title="Initialisations spécifiques à une platforme.">
<polygon fill="white" stroke="#666666" points="575,-246 429,-246 429,-216 575,-216 575,-246"/>
<text text-anchor="start" x="437" y="-234" font-family="Helvetica,sans-Serif" font-size="10.00">Arcane::platform::platform</text>
<text text-anchor="middle" x="502" y="-223" font-family="Helvetica,sans-Serif" font-size="10.00">Initialize</text>
</a>
</g>
</g>
<!-- Node13&#45;&gt;Node17 -->
<g id="edge16_Node000013_Node000017" class="edge">
<title>Node13&#45;&gt;Node17</title>
<g id="a_edge16_Node000013_Node000017"><a xlink:title=" ">
<path fill="none" stroke="#63b8ff" d="M335.02,-248.94C360.3,-246.21 390.68,-242.93 418.49,-239.92"/>
<polygon fill="#63b8ff" stroke="#63b8ff" points="419.04,-243.38 428.61,-238.83 418.29,-236.42 419.04,-243.38"/>
</a>
</g>
</g>
<!-- Node19 -->
<g id="Node000019" class="node">
<title>Node19</title>
<g id="a_Node000019"><a xlink:href="../../d9/dbf/classArcane_1_1Convert_1_1Impl_1_1ConvertPolicy.html#a6e600bd80a12cd26925206a1372d8ef7" target="_top" xlink:title="Indique si on utilise &#39;std::from_chars&#39; pour convertir les chaînes de caractères en un type numérique...">
<polygon fill="white" stroke="#666666" points="579,-197.5 425,-197.5 425,-156.5 579,-156.5 579,-197.5"/>
<text text-anchor="start" x="433" y="-185.5" font-family="Helvetica,sans-Serif" font-size="10.00">Arcane::Convert::Impl</text>
<text text-anchor="start" x="433" y="-174.5" font-family="Helvetica,sans-Serif" font-size="10.00">::ConvertPolicy::setUseFrom</text>
<text text-anchor="middle" x="502" y="-163.5" font-family="Helvetica,sans-Serif" font-size="10.00">Chars</text>
</a>
</g>
</g>
<!-- Node13&#45;&gt;Node19 -->
<g id="edge19_Node000013_Node000019" class="edge">
<title>Node13&#45;&gt;Node19</title>
<g id="a_edge19_Node000013_Node000019"><a xlink:title=" ">
<path fill="none" stroke="#63b8ff" d="M335.24,-246.08C351.36,-242.48 368.71,-237.58 384,-231 401.66,-223.4 402.87,-215.73 420,-207 423.68,-205.12 427.51,-203.3 431.41,-201.55"/>
<polygon fill="#63b8ff" stroke="#63b8ff" points="432.81,-204.76 440.61,-197.58 430.04,-198.33 432.81,-204.76"/>
</a>
</g>
</g>
<!-- Node20 -->
<g id="Node000020" class="node">
<title>Node20</title>
<g id="a_Node000020"><a xlink:href="../../dd/df6/classArcane_1_1Exception.html#a2d6ce28f14f0d9248147a0d4656c87d9" target="_top" xlink:title=" ">
<polygon fill="white" stroke="#666666" points="557,-138 447,-138 447,-108 557,-108 557,-138"/>
<text text-anchor="start" x="455" y="-126" font-family="Helvetica,sans-Serif" font-size="10.00">Arcane::Exception::</text>
<text text-anchor="middle" x="502" y="-115" font-family="Helvetica,sans-Serif" font-size="10.00">staticInit</text>
</a>
</g>
</g>
<!-- Node13&#45;&gt;Node20 -->
<g id="edge20_Node000013_Node000020" class="edge">
<title>Node13&#45;&gt;Node20</title>
<g id="a_edge20_Node000013_Node000020"><a xlink:title=" ">
<path fill="none" stroke="#63b8ff" d="M335.17,-251.97C352.38,-248.62 370.36,-242.38 384,-231 415.19,-204.98 389.65,-174 420,-147 425.08,-142.48 430.98,-138.81 437.23,-135.83"/>
<polygon fill="#63b8ff" stroke="#63b8ff" points="438.69,-139.01 446.59,-131.94 436.01,-132.55 438.69,-139.01"/>
</a>
</g>
</g>
<!-- Node16 -->
<g id="Node000016" class="node">
<title>Node16</title>
<g id="a_Node000016"><a xlink:href="../../d7/dbb/classArcane_1_1ItemTypeMng.html#a36ad3232f32de318caca5fb41b10e342" target="_top" xlink:title="Constructeur vide (non initialisé)">
<polygon fill="white" stroke="#666666" points="754,-303 632,-303 632,-273 754,-273 754,-303"/>
<text text-anchor="start" x="640" y="-291" font-family="Helvetica,sans-Serif" font-size="10.00">Arcane::ItemTypeMng</text>
<text text-anchor="middle" x="693" y="-280" font-family="Helvetica,sans-Serif" font-size="10.00">::ItemTypeMng</text>
</a>
</g>
</g>
<!-- Node15&#45;&gt;Node16 -->
<g id="edge15_Node000015_Node000016" class="edge">
<title>Node15&#45;&gt;Node16</title>
<g id="a_edge15_Node000015_Node000016"><a xlink:title=" ">
<path fill="none" stroke="#63b8ff" d="M563.06,-281.86C581.66,-282.75 602.32,-283.73 621.56,-284.65"/>
<polygon fill="#63b8ff" stroke="#63b8ff" points="621.62,-288.15 631.77,-285.13 621.95,-281.16 621.62,-288.15"/>
</a>
</g>
</g>
<!-- Node18 -->
<g id="Node000018" class="node">
<title>Node18</title>
<g id="a_Node000018"><a xlink:href="../../dc/d0f/namespaceArcane_1_1Platform.html#af055fdedb2606279eab093d8850fbed9" target="_top" xlink:title="Initialisations spécifiques à une platforme.">
<polygon fill="white" stroke="#666666" points="766,-237 620,-237 620,-207 766,-207 766,-237"/>
<text text-anchor="start" x="628" y="-225" font-family="Helvetica,sans-Serif" font-size="10.00">Arcane::Platform::platform</text>
<text text-anchor="middle" x="693" y="-214" font-family="Helvetica,sans-Serif" font-size="10.00">Initialize</text>
</a>
</g>
</g>
<!-- Node17&#45;&gt;Node18 -->
<g id="edge17_Node000017_Node000018" class="edge">
<title>Node17&#45;&gt;Node18</title>
<g id="a_edge17_Node000017_Node000018"><a xlink:title=" ">
<path fill="none" stroke="#63b8ff" d="M575.26,-227.56C586.55,-227.02 598.28,-226.46 609.76,-225.92"/>
<polygon fill="#63b8ff" stroke="#63b8ff" points="609.96,-229.41 619.78,-225.44 609.62,-222.42 609.96,-229.41"/>
</a>
</g>
</g>
<!-- Node18&#45;&gt;Node18 -->
<g id="edge18_Node000018_Node000018" class="edge">
<title>Node18&#45;&gt;Node18</title>
<g id="a_edge18_Node000018_Node000018"><a xlink:title=" ">
<path fill="none" stroke="#63b8ff" d="M659.6,-237.28C652.18,-246.41 663.31,-255 693,-255 710.63,-255 721.71,-251.97 726.26,-247.6"/>
<polygon fill="#63b8ff" stroke="#63b8ff" points="729.76,-247.32 726.4,-237.28 722.76,-247.23 729.76,-247.32"/>
</a>
</g>
</g>
</g>
</svg>

<g id="navigator" transform="translate(0 0)" fill="#404254">
  <rect fill="#f2f5e9" fill-opacity="0.5" stroke="#606060" stroke-width=".5" x="0" y="0" width="60" height="60"/>
  <use id="zoomplus" xlink:href="#zoomPlus" x="17" y="9" onmousedown="handleZoom(evt,'in')"/>
  <use id="zoomminus" xlink:href="#zoomMin" x="42" y="9" onmousedown="handleZoom(evt,'out')"/>
  <use id="reset" xlink:href="#resetDef" x="30" y="36" onmousedown="handleReset()"/>
   <use id="arrowup" xlink:href="#arrowUp" x="0" y="0" onmousedown="handlePan(0,-1)"/>
  <use id="arrowright" xlink:href="#arrowRight" x="0" y="0" onmousedown="handlePan(1,0)"/>
  <use id="arrowdown" xlink:href="#arrowDown" x="0" y="0" onmousedown="handlePan(0,1)"/>
  <use id="arrowleft" xlink:href="#arrowLeft" x="0" y="0" onmousedown="handlePan(-1,0)"/>
</g>
<svg viewBox="0 0 15 15" width="100%" height="30px" preserveAspectRatio="xMaxYMin meet">
 <g id="arrow_out" transform="scale(0.3 0.3)">
  <a xlink:href="classArcane_1_1ArcaneMain_a9a0ae8852c411641d9e0f9eab04c3c80_cgraph_org.svg" target="_base">
   <rect id="button" ry="5" rx="5" y="6" x="6" height="38" width="38"
        fill="#f2f5e9" fill-opacity="0.5" stroke="#606060" stroke-width="1.0"/>
   <path id="arrow"
     d="M 11.500037,31.436501 C 11.940474,20.09759 22.043105,11.32322 32.158766,21.979434 L 37.068811,17.246167 C 37.068811,17.246167 37.088388,32 37.088388,32 L 22.160133,31.978069 C 22.160133,31.978069 26.997745,27.140456 26.997745,27.140456 C 18.528582,18.264221 13.291696,25.230495 11.500037,31.436501 z"
     style="fill:#404040;"/>
  </a>
 </g>
</svg>

<style type='text/css'>
<![CDATA[
[data-mouse-over-selected='false'] { opacity: 0.7; }
[data-mouse-over-selected='true']  { opacity: 1.0; }
]]>
</style>
<script type="application/ecmascript"><![CDATA[
document.addEventListener('DOMContentLoaded', (event) => {
  highlightEdges();
  highlightAdjacentNodes();
});
]]></script>
</svg>
