<?xml version="1.0" encoding="UTF-8" standalone="no"?>
<!DOCTYPE svg PUBLIC "-//W3C//DTD SVG 1.1//EN"
 "http://www.w3.org/Graphics/SVG/1.1/DTD/svg11.dtd">
<!-- Generated by graphviz version 2.43.0 (0)
 -->
<!-- Title: ArcaneEuclidian3GeometryObject Pages: 1 -->
<svg width="527pt" height="1161pt"
 viewBox="0.00 0.00 527.00 1161.00" xmlns="http://www.w3.org/2000/svg" xmlns:xlink="http://www.w3.org/1999/xlink">
<g id="graph0" class="graph" transform="scale(1 1) rotate(0) translate(4 1157)">
<title>ArcaneEuclidian3GeometryObject</title>
<!-- Node1 -->
<g id="Node000001" class="node">
<title>Node1</title>
<g id="a_Node000001"><a xlink:title="Generation de la classe de base du Service.">
<polygon fill="#999999" stroke="transparent" points="364.5,-358 201.5,-358 201.5,-216 364.5,-216 364.5,-358"/>
<text text-anchor="start" x="217" y="-346" font-family="Helvetica,sans-Serif" font-size="10.00">ArcaneEuclidian3Geometry</text>
<text text-anchor="start" x="267.5" y="-335" font-family="Helvetica,sans-Serif" font-size="10.00">Object</text>
<text text-anchor="start" x="208.5" y="-320" font-family="Helvetica,sans-Serif" font-size="10.00">&#45;</text>
<text text-anchor="start" x="219" y="-320" font-family="Helvetica,sans-Serif" font-size="10.00">m_options</text>
<text text-anchor="start" x="206" y="-305" font-family="Helvetica,sans-Serif" font-size="10.00">+</text>
<text text-anchor="start" x="219" y="-305" font-family="Helvetica,sans-Serif" font-size="10.00">ArcaneEuclidian3Geometry</text>
<text text-anchor="start" x="219" y="-294" font-family="Helvetica,sans-Serif" font-size="10.00">Object()</text>
<text text-anchor="start" x="206" y="-279" font-family="Helvetica,sans-Serif" font-size="10.00">+</text>
<text text-anchor="start" x="219" y="-279" font-family="Helvetica,sans-Serif" font-size="10.00">~ArcaneEuclidian3Geometry</text>
<text text-anchor="start" x="219" y="-268" font-family="Helvetica,sans-Serif" font-size="10.00">Object()</text>
<text text-anchor="start" x="206" y="-253" font-family="Helvetica,sans-Serif" font-size="10.00">+</text>
<text text-anchor="start" x="219" y="-253" font-family="Helvetica,sans-Serif" font-size="10.00">options()</text>
<text text-anchor="start" x="206" y="-238" font-family="Helvetica,sans-Serif" font-size="10.00">+</text>
<text text-anchor="start" x="219" y="-238" font-family="Helvetica,sans-Serif" font-size="10.00">fillServiceInfo()</text>
<text text-anchor="start" x="208.5" y="-223" font-family="Helvetica,sans-Serif" font-size="10.00">&#45;</text>
<text text-anchor="start" x="219" y="-223" font-family="Helvetica,sans-Serif" font-size="10.00">getAxlContent()</text>
<polygon fill="#666666" stroke="#666666" points="202,-330 202,-330 365,-330 365,-330 202,-330"/>
<polygon fill="#666666" stroke="#666666" points="202,-315 202,-315 217,-315 217,-315 202,-315"/>
<polygon fill="#666666" stroke="#666666" points="217,-315 217,-315 365,-315 365,-315 217,-315"/>
<polygon fill="none" stroke="#666666" points="201.5,-216 201.5,-358 364.5,-358 364.5,-216 201.5,-216"/>
</a>
</g>
</g>
<!-- Node8 -->
<g id="Node000008" class="node">
<title>Node8</title>
<g id="a_Node000008"><a xlink:href="../../d1/db8/classArcane_1_1Euclidian3GeometryService.html" target="_top" xlink:title=" ">
<polygon fill="white" stroke="transparent" points="369,-180 197,-180 197,0 369,0 369,-180"/>
<text text-anchor="start" x="213.5" y="-168" font-family="Helvetica,sans-Serif" font-size="10.00">Arcane::Euclidian3Geometry</text>
<text text-anchor="start" x="264.5" y="-157" font-family="Helvetica,sans-Serif" font-size="10.00">Service</text>
<text text-anchor="start" x="203.5" y="-142" font-family="Helvetica,sans-Serif" font-size="10.00">&#45;</text>
<text text-anchor="start" x="214" y="-142" font-family="Helvetica,sans-Serif" font-size="10.00">m_geometry</text>
<text text-anchor="start" x="201" y="-127" font-family="Helvetica,sans-Serif" font-size="10.00">+</text>
<text text-anchor="start" x="214" y="-127" font-family="Helvetica,sans-Serif" font-size="10.00">Euclidian3GeometryService()</text>
<text text-anchor="start" x="201" y="-112" font-family="Helvetica,sans-Serif" font-size="10.00">+</text>
<text text-anchor="start" x="214" y="-112" font-family="Helvetica,sans-Serif" font-size="10.00">~Euclidian3GeometryService()</text>
<text text-anchor="start" x="201" y="-97" font-family="Helvetica,sans-Serif" font-size="10.00">+</text>
<text text-anchor="start" x="214" y="-97" font-family="Helvetica,sans-Serif" font-size="10.00">init()</text>
<text text-anchor="start" x="201" y="-82" font-family="Helvetica,sans-Serif" font-size="10.00">+</text>
<text text-anchor="start" x="214" y="-82" font-family="Helvetica,sans-Serif" font-size="10.00">update()</text>
<text text-anchor="start" x="201" y="-67" font-family="Helvetica,sans-Serif" font-size="10.00">+</text>
<text text-anchor="start" x="214" y="-67" font-family="Helvetica,sans-Serif" font-size="10.00">reset()</text>
<text text-anchor="start" x="201" y="-52" font-family="Helvetica,sans-Serif" font-size="10.00">+</text>
<text text-anchor="start" x="214" y="-52" font-family="Helvetica,sans-Serif" font-size="10.00">geometry()</text>
<text text-anchor="start" x="201" y="-37" font-family="Helvetica,sans-Serif" font-size="10.00">+</text>
<text text-anchor="start" x="214" y="-37" font-family="Helvetica,sans-Serif" font-size="10.00">traceMng()</text>
<text text-anchor="start" x="201" y="-22" font-family="Helvetica,sans-Serif" font-size="10.00">+</text>
<text text-anchor="start" x="214" y="-22" font-family="Helvetica,sans-Serif" font-size="10.00">mesh()</text>
<text text-anchor="start" x="201" y="-7" font-family="Helvetica,sans-Serif" font-size="10.00">+</text>
<text text-anchor="start" x="214" y="-7" font-family="Helvetica,sans-Serif" font-size="10.00">className()</text>
<polygon fill="#bfbfbf" stroke="#bfbfbf" points="197,-152 197,-152 369,-152 369,-152 197,-152"/>
<polygon fill="#bfbfbf" stroke="#bfbfbf" points="197,-137 197,-137 212,-137 212,-137 197,-137"/>
<polygon fill="#bfbfbf" stroke="#bfbfbf" points="212,-137 212,-137 369,-137 369,-137 212,-137"/>
<polygon fill="none" stroke="#bfbfbf" points="197,0 197,-180 369,-180 369,0 197,0"/>
</a>
</g>
</g>
<!-- Node1&#45;&gt;Node8 -->
<g id="edge7_Node000001_Node000008" class="edge">
<title>Node1&#45;&gt;Node8</title>
<g id="a_edge7_Node000001_Node000008"><a xlink:title=" ">
<path fill="none" stroke="#63b8ff" d="M283,-205.72C283,-197.3 283,-188.71 283,-180.2"/>
<polygon fill="none" stroke="#63b8ff" points="279.5,-205.88 283,-215.88 286.5,-205.88 279.5,-205.88"/>
</a>
</g>
</g>
<!-- Node2 -->
<g id="Node000002" class="node">
<title>Node2</title>
<g id="a_Node000002"><a xlink:href="../../d1/d5e/classArcane_1_1BasicService.html" target="_top" xlink:title="Classe de base de service lié à un sous&#45;domaine.">
<polygon fill="white" stroke="transparent" points="367.5,-473 198.5,-473 198.5,-394 367.5,-394 367.5,-473"/>
<text text-anchor="start" x="204" y="-460.5" font-family="Helvetica,sans-Serif" font-size="10.00">Arcane::BasicCaseOptionService</text>
<text text-anchor="start" x="222.5" y="-445.5" font-family="Helvetica,sans-Serif" font-size="10.00">&#45;</text>
<text text-anchor="start" x="250" y="-445.5" font-family="Helvetica,sans-Serif" font-size="10.00">m_sub_domain</text>
<text text-anchor="start" x="220" y="-430.5" font-family="Helvetica,sans-Serif" font-size="10.00">+</text>
<text text-anchor="start" x="250" y="-430.5" font-family="Helvetica,sans-Serif" font-size="10.00">~BasicService()</text>
<text text-anchor="start" x="220" y="-415.5" font-family="Helvetica,sans-Serif" font-size="10.00">+</text>
<text text-anchor="start" x="250" y="-415.5" font-family="Helvetica,sans-Serif" font-size="10.00">subDomain()</text>
<text text-anchor="start" x="220" y="-400.5" font-family="Helvetica,sans-Serif" font-size="10.00">#</text>
<text text-anchor="start" x="250" y="-400.5" font-family="Helvetica,sans-Serif" font-size="10.00">BasicService()</text>
<polygon fill="#666666" stroke="#666666" points="199,-455.5 199,-455.5 368,-455.5 368,-455.5 199,-455.5"/>
<polygon fill="#666666" stroke="#666666" points="199,-440.5 199,-440.5 248,-440.5 248,-440.5 199,-440.5"/>
<polygon fill="#666666" stroke="#666666" points="248,-440.5 248,-440.5 368,-440.5 368,-440.5 248,-440.5"/>
<polygon fill="none" stroke="#666666" points="198.5,-394 198.5,-473 367.5,-473 367.5,-394 198.5,-394"/>
</a>
</g>
</g>
<!-- Node2&#45;&gt;Node1 -->
<g id="edge1_Node000001_Node000002" class="edge">
<title>Node2&#45;&gt;Node1</title>
<g id="a_edge1_Node000001_Node000002"><a xlink:title=" ">
<path fill="none" stroke="#63b8ff" d="M283,-383.63C283,-375.4 283,-366.72 283,-358.07"/>
<polygon fill="none" stroke="#63b8ff" points="279.5,-383.78 283,-393.78 286.5,-383.78 279.5,-383.78"/>
</a>
</g>
</g>
<!-- Node3 -->
<g id="Node000003" class="node">
<title>Node3</title>
<g id="a_Node000003"><a xlink:href="../../da/d61/classArcane_1_1AbstractService.html" target="_top" xlink:title="Classe de base d&#39;un service.">
<polygon fill="white" stroke="transparent" points="204.5,-760.5 77.5,-760.5 77.5,-621.5 204.5,-621.5 204.5,-760.5"/>
<text text-anchor="start" x="83" y="-748" font-family="Helvetica,sans-Serif" font-size="10.00">Arcane::AbstractService</text>
<text text-anchor="start" x="87.5" y="-733" font-family="Helvetica,sans-Serif" font-size="10.00">&#45;</text>
<text text-anchor="start" x="101" y="-733" font-family="Helvetica,sans-Serif" font-size="10.00">m_service_info</text>
<text text-anchor="start" x="87.5" y="-718" font-family="Helvetica,sans-Serif" font-size="10.00">&#45;</text>
<text text-anchor="start" x="101" y="-718" font-family="Helvetica,sans-Serif" font-size="10.00">m_parent</text>
<text text-anchor="start" x="85" y="-703" font-family="Helvetica,sans-Serif" font-size="10.00">+</text>
<text text-anchor="start" x="101" y="-703" font-family="Helvetica,sans-Serif" font-size="10.00">~AbstractService()</text>
<text text-anchor="start" x="85" y="-688" font-family="Helvetica,sans-Serif" font-size="10.00">+</text>
<text text-anchor="start" x="101" y="-688" font-family="Helvetica,sans-Serif" font-size="10.00">build()</text>
<text text-anchor="start" x="85" y="-673" font-family="Helvetica,sans-Serif" font-size="10.00">+</text>
<text text-anchor="start" x="101" y="-673" font-family="Helvetica,sans-Serif" font-size="10.00">serviceInfo()</text>
<text text-anchor="start" x="85" y="-658" font-family="Helvetica,sans-Serif" font-size="10.00">+</text>
<text text-anchor="start" x="101" y="-658" font-family="Helvetica,sans-Serif" font-size="10.00">serviceParent()</text>
<text text-anchor="start" x="85" y="-643" font-family="Helvetica,sans-Serif" font-size="10.00">+</text>
<text text-anchor="start" x="101" y="-643" font-family="Helvetica,sans-Serif" font-size="10.00">serviceInterface()</text>
<text text-anchor="start" x="85" y="-628" font-family="Helvetica,sans-Serif" font-size="10.00">#</text>
<text text-anchor="start" x="101" y="-628" font-family="Helvetica,sans-Serif" font-size="10.00">AbstractService()</text>
<polygon fill="#666666" stroke="#666666" points="78,-743 78,-743 205,-743 205,-743 78,-743"/>
<polygon fill="#666666" stroke="#666666" points="78,-713 78,-713 99,-713 99,-713 78,-713"/>
<polygon fill="#666666" stroke="#666666" points="99,-713 99,-713 205,-713 205,-713 99,-713"/>
<polygon fill="none" stroke="#666666" points="77.5,-621.5 77.5,-760.5 204.5,-760.5 204.5,-621.5 77.5,-621.5"/>
</a>
</g>
</g>
<!-- Node3&#45;&gt;Node2 -->
<g id="edge2_Node000002_Node000003" class="edge">
<title>Node3&#45;&gt;Node2</title>
<g id="a_edge2_Node000002_Node000003"><a xlink:title=" ">
<path fill="none" stroke="#63b8ff" d="M165.48,-611.77C177.58,-578.72 193.93,-540.64 214,-509 221.93,-496.49 232.09,-484.17 242.15,-473.27"/>
<polygon fill="none" stroke="#63b8ff" points="162.11,-610.81 162.02,-621.4 168.69,-613.17 162.11,-610.81"/>
</a>
</g>
</g>
<!-- Node4 -->
<g id="Node000004" class="node">
<title>Node4</title>
<g id="a_Node000004"><a xlink:href="../../d1/d17/classArcane_1_1TraceAccessor.html" target="_top" xlink:title="Classe d&#39;accès aux traces.">
<polygon fill="white" stroke="transparent" points="140,-1153 0,-1153 0,-909 140,-909 140,-1153"/>
<text text-anchor="start" x="15.5" y="-1141" font-family="Helvetica,sans-Serif" font-size="10.00">Arcane::TraceAccessor</text>
<text text-anchor="start" x="6.5" y="-1126" font-family="Helvetica,sans-Serif" font-size="10.00">&#45;</text>
<text text-anchor="start" x="17" y="-1126" font-family="Helvetica,sans-Serif" font-size="10.00">m_trace</text>
<text text-anchor="start" x="6.5" y="-1111" font-family="Helvetica,sans-Serif" font-size="10.00">&#45;</text>
<text text-anchor="start" x="17" y="-1111" font-family="Helvetica,sans-Serif" font-size="10.00">m_local_verbose_level</text>
<text text-anchor="start" x="4" y="-1096" font-family="Helvetica,sans-Serif" font-size="10.00">+</text>
<text text-anchor="start" x="17" y="-1096" font-family="Helvetica,sans-Serif" font-size="10.00">TraceAccessor()</text>
<text text-anchor="start" x="4" y="-1081" font-family="Helvetica,sans-Serif" font-size="10.00">+</text>
<text text-anchor="start" x="17" y="-1081" font-family="Helvetica,sans-Serif" font-size="10.00">TraceAccessor()</text>
<text text-anchor="start" x="4" y="-1066" font-family="Helvetica,sans-Serif" font-size="10.00">+</text>
<text text-anchor="start" x="17" y="-1066" font-family="Helvetica,sans-Serif" font-size="10.00">operator=()</text>
<text text-anchor="start" x="4" y="-1051" font-family="Helvetica,sans-Serif" font-size="10.00">+</text>
<text text-anchor="start" x="17" y="-1051" font-family="Helvetica,sans-Serif" font-size="10.00">~TraceAccessor()</text>
<text text-anchor="start" x="4" y="-1036" font-family="Helvetica,sans-Serif" font-size="10.00">+</text>
<text text-anchor="start" x="17" y="-1036" font-family="Helvetica,sans-Serif" font-size="10.00">traceMng()</text>
<text text-anchor="start" x="4" y="-1021" font-family="Helvetica,sans-Serif" font-size="10.00">+</text>
<text text-anchor="start" x="17" y="-1021" font-family="Helvetica,sans-Serif" font-size="10.00">info()</text>
<text text-anchor="start" x="4" y="-1006" font-family="Helvetica,sans-Serif" font-size="10.00">+</text>
<text text-anchor="start" x="17" y="-1006" font-family="Helvetica,sans-Serif" font-size="10.00">pinfo()</text>
<text text-anchor="start" x="4" y="-991" font-family="Helvetica,sans-Serif" font-size="10.00">+</text>
<text text-anchor="start" x="17" y="-991" font-family="Helvetica,sans-Serif" font-size="10.00">info()</text>
<text text-anchor="start" x="4" y="-976" font-family="Helvetica,sans-Serif" font-size="10.00">+</text>
<text text-anchor="start" x="17" y="-976" font-family="Helvetica,sans-Serif" font-size="10.00">pinfo()</text>
<text text-anchor="start" x="4" y="-961" font-family="Helvetica,sans-Serif" font-size="10.00">+</text>
<text text-anchor="start" x="17" y="-961" font-family="Helvetica,sans-Serif" font-size="10.00">info()</text>
<text text-anchor="start" x="17" y="-946" font-family="Helvetica,sans-Serif" font-size="10.00">et 15 de plus...</text>
<text text-anchor="start" x="4" y="-931" font-family="Helvetica,sans-Serif" font-size="10.00">#</text>
<text text-anchor="start" x="17" y="-931" font-family="Helvetica,sans-Serif" font-size="10.00">_setLocalVerboseLevel()</text>
<text text-anchor="start" x="4" y="-916" font-family="Helvetica,sans-Serif" font-size="10.00">#</text>
<text text-anchor="start" x="17" y="-916" font-family="Helvetica,sans-Serif" font-size="10.00">_localVerboseLevel()</text>
<polygon fill="#666666" stroke="#666666" points="0,-1136 0,-1136 140,-1136 140,-1136 0,-1136"/>
<polygon fill="#666666" stroke="#666666" points="0,-1106 0,-1106 15,-1106 15,-1106 0,-1106"/>
<polygon fill="#666666" stroke="#666666" points="15,-1106 15,-1106 140,-1106 140,-1106 15,-1106"/>
<polygon fill="none" stroke="#666666" points="0,-909 0,-1153 140,-1153 140,-909 0,-909"/>
</a>
</g>
</g>
<!-- Node4&#45;&gt;Node3 -->
<g id="edge3_Node000003_Node000004" class="edge">
<title>Node4&#45;&gt;Node3</title>
<g id="a_edge3_Node000003_Node000004"><a xlink:title=" ">
<path fill="none" stroke="#63b8ff" d="M97.53,-898.93C107.44,-851.75 118.23,-800.41 126.58,-760.67"/>
<polygon fill="none" stroke="#63b8ff" points="94.06,-898.42 95.43,-908.93 100.91,-899.86 94.06,-898.42"/>
</a>
</g>
</g>
<!-- Node5 -->
<g id="Node000005" class="node">
<title>Node5</title>
<g id="a_Node000005"><a xlink:href="../../da/d7e/classArcane_1_1IService.html" target="_top" xlink:title="Interface d&#39;un service.">
<polygon fill="white" stroke="transparent" points="266,-1085.5 158,-1085.5 158,-976.5 266,-976.5 266,-1085.5"/>
<text text-anchor="start" x="172.5" y="-1073" font-family="Helvetica,sans-Serif" font-size="10.00">Arcane::IService</text>
<text text-anchor="start" x="210" y="-1058" font-family="Helvetica,sans-Serif" font-size="10.00"> </text>
<text text-anchor="start" x="162" y="-1043" font-family="Helvetica,sans-Serif" font-size="10.00">+</text>
<text text-anchor="start" x="175" y="-1043" font-family="Helvetica,sans-Serif" font-size="10.00">~IService()</text>
<text text-anchor="start" x="162" y="-1028" font-family="Helvetica,sans-Serif" font-size="10.00">+</text>
<text text-anchor="start" x="175" y="-1028" font-family="Helvetica,sans-Serif" font-size="10.00">serviceParent()</text>
<text text-anchor="start" x="162" y="-1013" font-family="Helvetica,sans-Serif" font-size="10.00">+</text>
<text text-anchor="start" x="175" y="-1013" font-family="Helvetica,sans-Serif" font-size="10.00">serviceInterface()</text>
<text text-anchor="start" x="162" y="-998" font-family="Helvetica,sans-Serif" font-size="10.00">+</text>
<text text-anchor="start" x="175" y="-998" font-family="Helvetica,sans-Serif" font-size="10.00">serviceInfo()</text>
<text text-anchor="start" x="162" y="-983" font-family="Helvetica,sans-Serif" font-size="10.00">#</text>
<text text-anchor="start" x="175" y="-983" font-family="Helvetica,sans-Serif" font-size="10.00">IService()</text>
<polygon fill="#666666" stroke="#666666" points="158,-1068 158,-1068 266,-1068 266,-1068 158,-1068"/>
<polygon fill="#666666" stroke="#666666" points="158,-1053 158,-1053 266,-1053 266,-1053 158,-1053"/>
<polygon fill="none" stroke="#666666" points="158,-976.5 158,-1085.5 266,-1085.5 266,-976.5 158,-976.5"/>
</a>
</g>
</g>
<!-- Node5&#45;&gt;Node3 -->
<g id="edge4_Node000003_Node000005" class="edge">
<title>Node5&#45;&gt;Node3</title>
<g id="a_edge4_Node000003_Node000005"><a xlink:title=" ">
<path fill="none" stroke="#63b8ff" d="M198.67,-966.56C186.36,-907.94 168.11,-821.06 155.45,-760.8"/>
<polygon fill="none" stroke="#63b8ff" points="195.27,-967.38 200.75,-976.44 202.12,-965.94 195.27,-967.38"/>
</a>
</g>
</g>
<!-- Node6 -->
<g id="Node000006" class="node">
<title>Node6</title>
<g id="a_Node000006"><a xlink:href="../../d6/d09/classArcane_1_1MeshAccessor.html" target="_top" xlink:title="Accès aux informations d&#39;un maillage.">
<polygon fill="white" stroke="transparent" points="343,-790.5 223,-790.5 223,-591.5 343,-591.5 343,-790.5"/>
<text text-anchor="start" x="228" y="-778" font-family="Helvetica,sans-Serif" font-size="10.00">Arcane::MeshAccessor</text>
<text text-anchor="start" x="230" y="-763" font-family="Helvetica,sans-Serif" font-size="10.00">&#45;</text>
<text text-anchor="start" x="241" y="-763" font-family="Helvetica,sans-Serif" font-size="10.00">m_mesh_handle</text>
<text text-anchor="start" x="227.5" y="-748" font-family="Helvetica,sans-Serif" font-size="10.00">+</text>
<text text-anchor="start" x="241" y="-748" font-family="Helvetica,sans-Serif" font-size="10.00">MeshAccessor()</text>
<text text-anchor="start" x="227.5" y="-733" font-family="Helvetica,sans-Serif" font-size="10.00">+</text>
<text text-anchor="start" x="241" y="-733" font-family="Helvetica,sans-Serif" font-size="10.00">MeshAccessor()</text>
<text text-anchor="start" x="227.5" y="-718" font-family="Helvetica,sans-Serif" font-size="10.00">+</text>
<text text-anchor="start" x="241" y="-718" font-family="Helvetica,sans-Serif" font-size="10.00">MeshAccessor()</text>
<text text-anchor="start" x="227.5" y="-703" font-family="Helvetica,sans-Serif" font-size="10.00">+</text>
<text text-anchor="start" x="241" y="-703" font-family="Helvetica,sans-Serif" font-size="10.00">nbCell()</text>
<text text-anchor="start" x="227.5" y="-688" font-family="Helvetica,sans-Serif" font-size="10.00">+</text>
<text text-anchor="start" x="241" y="-688" font-family="Helvetica,sans-Serif" font-size="10.00">nbFace()</text>
<text text-anchor="start" x="227.5" y="-673" font-family="Helvetica,sans-Serif" font-size="10.00">+</text>
<text text-anchor="start" x="241" y="-673" font-family="Helvetica,sans-Serif" font-size="10.00">nbEdge()</text>
<text text-anchor="start" x="227.5" y="-658" font-family="Helvetica,sans-Serif" font-size="10.00">+</text>
<text text-anchor="start" x="241" y="-658" font-family="Helvetica,sans-Serif" font-size="10.00">nbNode()</text>
<text text-anchor="start" x="227.5" y="-643" font-family="Helvetica,sans-Serif" font-size="10.00">+</text>
<text text-anchor="start" x="241" y="-643" font-family="Helvetica,sans-Serif" font-size="10.00">nodesCoordinates()</text>
<text text-anchor="start" x="227.5" y="-628" font-family="Helvetica,sans-Serif" font-size="10.00">+</text>
<text text-anchor="start" x="241" y="-628" font-family="Helvetica,sans-Serif" font-size="10.00">allNodes()</text>
<text text-anchor="start" x="227.5" y="-613" font-family="Helvetica,sans-Serif" font-size="10.00">+</text>
<text text-anchor="start" x="241" y="-613" font-family="Helvetica,sans-Serif" font-size="10.00">allEdges()</text>
<text text-anchor="start" x="241" y="-598" font-family="Helvetica,sans-Serif" font-size="10.00">et 9 de plus...</text>
<polygon fill="#666666" stroke="#666666" points="223,-773 223,-773 343,-773 343,-773 223,-773"/>
<polygon fill="#666666" stroke="#666666" points="223,-758 223,-758 239,-758 239,-758 223,-758"/>
<polygon fill="#666666" stroke="#666666" points="239,-758 239,-758 343,-758 343,-758 239,-758"/>
<polygon fill="none" stroke="#666666" points="223,-591.5 223,-790.5 343,-790.5 343,-591.5 223,-591.5"/>
</a>
</g>
</g>
<!-- Node6&#45;&gt;Node2 -->
<g id="edge5_Node000002_Node000006" class="edge">
<title>Node6&#45;&gt;Node2</title>
<g id="a_edge5_Node000002_Node000006"><a xlink:title=" ">
<path fill="none" stroke="#63b8ff" d="M283,-580.98C283,-542.56 283,-501.82 283,-473.09"/>
<polygon fill="none" stroke="#63b8ff" points="279.5,-581.22 283,-591.22 286.5,-581.22 279.5,-581.22"/>
</a>
</g>
</g>
<!-- Node7 -->
<g id="Node000007" class="node">
<title>Node7</title>
<g id="a_Node000007"><a xlink:href="../../d1/d74/classArcane_1_1CommonVariables.html" target="_top" xlink:title="Variables communes d&#39;un cas.">
<polygon fill="white" stroke="transparent" points="519,-873 361,-873 361,-509 519,-509 519,-873"/>
<text text-anchor="start" x="375" y="-861" font-family="Helvetica,sans-Serif" font-size="10.00">Arcane::CommonVariables</text>
<text text-anchor="start" x="365" y="-846" font-family="Helvetica,sans-Serif" font-size="10.00">+</text>
<text text-anchor="start" x="378" y="-846" font-family="Helvetica,sans-Serif" font-size="10.00">m_global_iteration</text>
<text text-anchor="start" x="365" y="-831" font-family="Helvetica,sans-Serif" font-size="10.00">+</text>
<text text-anchor="start" x="378" y="-831" font-family="Helvetica,sans-Serif" font-size="10.00">m_global_time</text>
<text text-anchor="start" x="365" y="-816" font-family="Helvetica,sans-Serif" font-size="10.00">+</text>
<text text-anchor="start" x="378" y="-816" font-family="Helvetica,sans-Serif" font-size="10.00">m_global_deltat</text>
<text text-anchor="start" x="365" y="-801" font-family="Helvetica,sans-Serif" font-size="10.00">+</text>
<text text-anchor="start" x="378" y="-801" font-family="Helvetica,sans-Serif" font-size="10.00">m_global_old_time</text>
<text text-anchor="start" x="365" y="-786" font-family="Helvetica,sans-Serif" font-size="10.00">+</text>
<text text-anchor="start" x="378" y="-786" font-family="Helvetica,sans-Serif" font-size="10.00">m_global_old_deltat</text>
<text text-anchor="start" x="365" y="-771" font-family="Helvetica,sans-Serif" font-size="10.00">+</text>
<text text-anchor="start" x="378" y="-771" font-family="Helvetica,sans-Serif" font-size="10.00">m_global_final_time</text>
<text text-anchor="start" x="365" y="-756" font-family="Helvetica,sans-Serif" font-size="10.00">+</text>
<text text-anchor="start" x="378" y="-756" font-family="Helvetica,sans-Serif" font-size="10.00">m_global_old_cpu_time</text>
<text text-anchor="start" x="365" y="-741" font-family="Helvetica,sans-Serif" font-size="10.00">+</text>
<text text-anchor="start" x="378" y="-741" font-family="Helvetica,sans-Serif" font-size="10.00">m_global_cpu_time</text>
<text text-anchor="start" x="365" y="-726" font-family="Helvetica,sans-Serif" font-size="10.00">+</text>
<text text-anchor="start" x="378" y="-726" font-family="Helvetica,sans-Serif" font-size="10.00">m_global_old_elapsed_time</text>
<text text-anchor="start" x="365" y="-711" font-family="Helvetica,sans-Serif" font-size="10.00">+</text>
<text text-anchor="start" x="378" y="-711" font-family="Helvetica,sans-Serif" font-size="10.00">m_global_elapsed_time</text>
<text text-anchor="start" x="365" y="-696" font-family="Helvetica,sans-Serif" font-size="10.00">+</text>
<text text-anchor="start" x="378" y="-696" font-family="Helvetica,sans-Serif" font-size="10.00">CommonVariables()</text>
<text text-anchor="start" x="365" y="-681" font-family="Helvetica,sans-Serif" font-size="10.00">+</text>
<text text-anchor="start" x="378" y="-681" font-family="Helvetica,sans-Serif" font-size="10.00">CommonVariables()</text>
<text text-anchor="start" x="365" y="-666" font-family="Helvetica,sans-Serif" font-size="10.00">+</text>
<text text-anchor="start" x="378" y="-666" font-family="Helvetica,sans-Serif" font-size="10.00">CommonVariables()</text>
<text text-anchor="start" x="365" y="-651" font-family="Helvetica,sans-Serif" font-size="10.00">+</text>
<text text-anchor="start" x="378" y="-651" font-family="Helvetica,sans-Serif" font-size="10.00">~CommonVariables()</text>
<text text-anchor="start" x="365" y="-636" font-family="Helvetica,sans-Serif" font-size="10.00">+</text>
<text text-anchor="start" x="378" y="-636" font-family="Helvetica,sans-Serif" font-size="10.00">globalIteration()</text>
<text text-anchor="start" x="365" y="-621" font-family="Helvetica,sans-Serif" font-size="10.00">+</text>
<text text-anchor="start" x="378" y="-621" font-family="Helvetica,sans-Serif" font-size="10.00">globalTime()</text>
<text text-anchor="start" x="365" y="-606" font-family="Helvetica,sans-Serif" font-size="10.00">+</text>
<text text-anchor="start" x="378" y="-606" font-family="Helvetica,sans-Serif" font-size="10.00">globalOldTime()</text>
<text text-anchor="start" x="365" y="-591" font-family="Helvetica,sans-Serif" font-size="10.00">+</text>
<text text-anchor="start" x="378" y="-591" font-family="Helvetica,sans-Serif" font-size="10.00">globalFinalTime()</text>
<text text-anchor="start" x="365" y="-576" font-family="Helvetica,sans-Serif" font-size="10.00">+</text>
<text text-anchor="start" x="378" y="-576" font-family="Helvetica,sans-Serif" font-size="10.00">globalDeltaT()</text>
<text text-anchor="start" x="365" y="-561" font-family="Helvetica,sans-Serif" font-size="10.00">+</text>
<text text-anchor="start" x="378" y="-561" font-family="Helvetica,sans-Serif" font-size="10.00">globalCPUTime()</text>
<text text-anchor="start" x="365" y="-546" font-family="Helvetica,sans-Serif" font-size="10.00">+</text>
<text text-anchor="start" x="378" y="-546" font-family="Helvetica,sans-Serif" font-size="10.00">globalOldCPUTime()</text>
<text text-anchor="start" x="365" y="-531" font-family="Helvetica,sans-Serif" font-size="10.00">+</text>
<text text-anchor="start" x="378" y="-531" font-family="Helvetica,sans-Serif" font-size="10.00">globalElapsedTime()</text>
<text text-anchor="start" x="365" y="-516" font-family="Helvetica,sans-Serif" font-size="10.00">+</text>
<text text-anchor="start" x="378" y="-516" font-family="Helvetica,sans-Serif" font-size="10.00">globalOldElapsedTime()</text>
<polygon fill="#666666" stroke="#666666" points="361,-856 361,-856 519,-856 519,-856 361,-856"/>
<polygon fill="#666666" stroke="#666666" points="361,-706 361,-706 376,-706 376,-706 361,-706"/>
<polygon fill="#666666" stroke="#666666" points="376,-706 376,-706 519,-706 519,-706 376,-706"/>
<polygon fill="none" stroke="#666666" points="361,-509 361,-873 519,-873 519,-509 361,-509"/>
</a>
</g>
</g>
<!-- Node7&#45;&gt;Node2 -->
<g id="edge6_Node000002_Node000007" class="edge">
<title>Node7&#45;&gt;Node2</title>
<g id="a_edge6_Node000002_Node000007"><a xlink:title=" ">
<path fill="none" stroke="#63b8ff" d="M355.03,-513.5C354.03,-511.99 353.02,-510.49 352,-509 343.54,-496.63 333.09,-484.26 322.91,-473.26"/>
<polygon fill="none" stroke="#63b8ff" points="352.36,-515.81 360.74,-522.29 358.23,-512 352.36,-515.81"/>
</a>
</g>
</g>
</g>
</svg>
