<?xml version="1.0" encoding="UTF-8" standalone="no"?>
<!DOCTYPE svg PUBLIC "-//W3C//DTD SVG 1.1//EN"
 "http://www.w3.org/Graphics/SVG/1.1/DTD/svg11.dtd">
<!-- Generated by graphviz version 2.43.0 (0)
 -->
<!-- Title: Arcane::VerifierService::_getVariables Pages: 1 -->
<svg width="291pt" height="410pt"
 viewBox="0.00 0.00 291.00 410.00" xmlns="http://www.w3.org/2000/svg" xmlns:xlink="http://www.w3.org/1999/xlink">

<svg id="main" version="1.1" xmlns="http://www.w3.org/2000/svg" xmlns:xlink="http://www.w3.org/1999/xlink" xml:space="preserve">

<style type="text/css"><![CDATA[
.node, .edge {opacity: 0.7;}
.node.selected, .edge.selected {opacity: 1;}
.edge:hover path { stroke: red; }
.edge:hover polygon { stroke: red; fill: red; }
]]></style>
<script type="application/ecmascript" xlink:href="../../svg.min.js"/>
<svg id="graph" class="graph">
<g id="graph0" class="graph" transform="scale(1 1) rotate(0) translate(4 406)">
<title>Arcane::VerifierService::_getVariables</title>
<!-- Node1 -->
<g id="Node000001" class="node">
<title>Node1</title>
<g id="a_Node000001"><a xlink:title="Remplit dans variables la liste des variables devant être relues.">
<polygon fill="#999999" stroke="#666666" points="127,-216 0,-216 0,-186 127,-186 127,-216"/>
<text text-anchor="start" x="8" y="-204" font-family="Helvetica,sans-Serif" font-size="10.00">Arcane::VerifierService</text>
<text text-anchor="middle" x="63.5" y="-193" font-family="Helvetica,sans-Serif" font-size="10.00">::_getVariables</text>
</a>
</g>
</g>
<!-- Node2 -->
<g id="Node000002" class="node">
<title>Node2</title>
<g id="a_Node000002"><a xlink:href="../../d7/d6f/classArcane_1_1MeshHandle.html#a3545d2c84f6f3eaa8bf927789c047aca" target="_top" xlink:title="Indique si le maillage associé a déjà été créé (i.e: mesh() est valide)">
<polygon fill="white" stroke="#666666" points="281.5,-402 164.5,-402 164.5,-372 281.5,-372 281.5,-402"/>
<text text-anchor="start" x="172.5" y="-390" font-family="Helvetica,sans-Serif" font-size="10.00">Arcane::MeshHandle</text>
<text text-anchor="middle" x="223" y="-379" font-family="Helvetica,sans-Serif" font-size="10.00">::hasMesh</text>
</a>
</g>
</g>
<!-- Node1&#45;&gt;Node2 -->
<g id="edge1_Node000001_Node000002" class="edge">
<title>Node1&#45;&gt;Node2</title>
<g id="a_edge1_Node000001_Node000002"><a xlink:title=" ">
<path fill="none" stroke="#63b8ff" d="M69.92,-216.15C81.91,-247.69 113.63,-320.96 163,-363 164.36,-364.16 165.78,-365.27 167.26,-366.32"/>
<polygon fill="#63b8ff" stroke="#63b8ff" points="165.81,-369.55 176.15,-371.87 169.51,-363.61 165.81,-369.55"/>
</a>
</g>
</g>
<!-- Node3 -->
<g id="Node000003" class="node">
<title>Node3</title>
<g id="a_Node000003"><a xlink:href="../../d5/d96/classArcane_1_1IVariable.html#a51c262a3e29031b986319ed8d06516e3" target="_top" xlink:title="Genre des entités du maillage sur lequel repose la variable.">
<polygon fill="white" stroke="#666666" points="275.5,-354 170.5,-354 170.5,-324 275.5,-324 275.5,-354"/>
<text text-anchor="start" x="178.5" y="-342" font-family="Helvetica,sans-Serif" font-size="10.00">Arcane::IVariable::</text>
<text text-anchor="middle" x="223" y="-331" font-family="Helvetica,sans-Serif" font-size="10.00">itemKind</text>
</a>
</g>
</g>
<!-- Node1&#45;&gt;Node3 -->
<g id="edge2_Node000001_Node000003" class="edge">
<title>Node1&#45;&gt;Node3</title>
<g id="a_edge2_Node000001_Node000003"><a xlink:title=" ">
<path fill="none" stroke="#63b8ff" d="M74.21,-216.32C90.12,-240.33 123.89,-286.95 163,-315 165.04,-316.47 167.19,-317.86 169.41,-319.19"/>
<polygon fill="#63b8ff" stroke="#63b8ff" points="167.75,-322.27 178.22,-323.95 171.09,-316.12 167.75,-322.27"/>
</a>
</g>
</g>
<!-- Node4 -->
<g id="Node000004" class="node">
<title>Node4</title>
<g id="a_Node000004"><a xlink:href="../../d7/d6f/classArcane_1_1MeshHandle.html#a7b31d224556f6c703eb114dabafaf5cd" target="_top" xlink:title="Maillage associé.">
<polygon fill="white" stroke="#666666" points="281.5,-306 164.5,-306 164.5,-276 281.5,-276 281.5,-306"/>
<text text-anchor="start" x="172.5" y="-294" font-family="Helvetica,sans-Serif" font-size="10.00">Arcane::MeshHandle</text>
<text text-anchor="middle" x="223" y="-283" font-family="Helvetica,sans-Serif" font-size="10.00">::mesh</text>
</a>
</g>
</g>
<!-- Node1&#45;&gt;Node4 -->
<g id="edge3_Node000001_Node000004" class="edge">
<title>Node1&#45;&gt;Node4</title>
<g id="a_edge3_Node000001_Node000004"><a xlink:title=" ">
<path fill="none" stroke="#63b8ff" d="M84.49,-216.17C103.88,-230.45 134.46,-251.84 163,-267 166.07,-268.63 169.28,-270.22 172.54,-271.76"/>
<polygon fill="#63b8ff" stroke="#63b8ff" points="171.27,-275.03 181.82,-275.95 174.14,-268.65 171.27,-275.03"/>
</a>
</g>
</g>
<!-- Node5 -->
<g id="Node000005" class="node">
<title>Node5</title>
<g id="a_Node000005"><a xlink:href="../../d5/d96/classArcane_1_1IVariable.html#adc95fd486c050bc47ad7fdf60ced8725" target="_top" xlink:title="Maillage auquel est associé la variable.">
<polygon fill="white" stroke="#666666" points="275.5,-240 170.5,-240 170.5,-210 275.5,-210 275.5,-240"/>
<text text-anchor="start" x="178.5" y="-228" font-family="Helvetica,sans-Serif" font-size="10.00">Arcane::IVariable::</text>
<text text-anchor="middle" x="223" y="-217" font-family="Helvetica,sans-Serif" font-size="10.00">meshHandle</text>
</a>
</g>
</g>
<!-- Node1&#45;&gt;Node5 -->
<g id="edge4_Node000001_Node000005" class="edge">
<title>Node1&#45;&gt;Node5</title>
<g id="a_edge4_Node000001_Node000005"><a xlink:title=" ">
<path fill="none" stroke="#63b8ff" d="M127.2,-210.55C137.99,-212.2 149.2,-213.91 159.98,-215.55"/>
<polygon fill="#63b8ff" stroke="#63b8ff" points="159.73,-219.05 170.14,-217.1 160.79,-212.13 159.73,-219.05"/>
</a>
</g>
</g>
<!-- Node6 -->
<g id="Node000006" class="node">
<title>Node6</title>
<g id="a_Node000006"><a xlink:href="../../d9/d1e/classArcane_1_1ISubDomain.html#a5fc9b8fe10a6517cd8143dcb07c1ffb7" target="_top" xlink:title="Retourne le gestionnaire de parallélisme.">
<polygon fill="white" stroke="#666666" points="281,-192 165,-192 165,-162 281,-162 281,-192"/>
<text text-anchor="start" x="173" y="-180" font-family="Helvetica,sans-Serif" font-size="10.00">Arcane::ISubDomain</text>
<text text-anchor="middle" x="223" y="-169" font-family="Helvetica,sans-Serif" font-size="10.00">::parallelMng</text>
</a>
</g>
</g>
<!-- Node1&#45;&gt;Node6 -->
<g id="edge6_Node000001_Node000006" class="edge">
<title>Node1&#45;&gt;Node6</title>
<g id="a_edge6_Node000001_Node000006"><a xlink:title=" ">
<path fill="none" stroke="#63b8ff" d="M127.2,-191.45C136.34,-190.05 145.77,-188.62 154.99,-187.21"/>
<polygon fill="#63b8ff" stroke="#63b8ff" points="155.52,-190.67 164.88,-185.7 154.46,-183.75 155.52,-190.67"/>
</a>
</g>
</g>
<!-- Node7 -->
<g id="Node000007" class="node">
<title>Node7</title>
<g id="a_Node000007"><a xlink:href="../../d5/d96/classArcane_1_1IVariable.html#a4feca4beaea7ff0d465463de39af81b2" target="_top" xlink:title="Retourne les propriétés de la variable.">
<polygon fill="white" stroke="#666666" points="275.5,-144 170.5,-144 170.5,-114 275.5,-114 275.5,-144"/>
<text text-anchor="start" x="178.5" y="-132" font-family="Helvetica,sans-Serif" font-size="10.00">Arcane::IVariable::</text>
<text text-anchor="middle" x="223" y="-121" font-family="Helvetica,sans-Serif" font-size="10.00">property</text>
</a>
</g>
</g>
<!-- Node1&#45;&gt;Node7 -->
<g id="edge7_Node000001_Node000007" class="edge">
<title>Node1&#45;&gt;Node7</title>
<g id="a_edge7_Node000001_Node000007"><a xlink:title=" ">
<path fill="none" stroke="#63b8ff" d="M94,-185.98C113.44,-176.25 139.55,-163.47 163,-153 166.64,-151.37 170.43,-149.73 174.26,-148.1"/>
<polygon fill="#63b8ff" stroke="#63b8ff" points="175.89,-151.21 183.76,-144.12 173.18,-144.76 175.89,-151.21"/>
</a>
</g>
</g>
<!-- Node8 -->
<g id="Node000008" class="node">
<title>Node8</title>
<g id="a_Node000008"><a xlink:href="../../d7/d7c/classArcane_1_1IVariableMng.html#a860a69ca029325f8b2d71290afdbe4e4" target="_top" xlink:title="Liste des variables utilisées.">
<polygon fill="white" stroke="#666666" points="283,-78 163,-78 163,-48 283,-48 283,-78"/>
<text text-anchor="start" x="171" y="-66" font-family="Helvetica,sans-Serif" font-size="10.00">Arcane::IVariableMng</text>
<text text-anchor="middle" x="223" y="-55" font-family="Helvetica,sans-Serif" font-size="10.00">::usedVariables</text>
</a>
</g>
</g>
<!-- Node1&#45;&gt;Node8 -->
<g id="edge8_Node000001_Node000008" class="edge">
<title>Node1&#45;&gt;Node8</title>
<g id="a_edge8_Node000001_Node000008"><a xlink:title=" ">
<path fill="none" stroke="#63b8ff" d="M78.53,-185.96C97.06,-166.41 131.1,-131.63 163,-105 171.63,-97.79 181.43,-90.5 190.53,-84.05"/>
<polygon fill="#63b8ff" stroke="#63b8ff" points="192.78,-86.76 198.98,-78.17 188.77,-81.01 192.78,-86.76"/>
</a>
</g>
</g>
<!-- Node9 -->
<g id="Node000009" class="node">
<title>Node9</title>
<g id="a_Node000009"><a xlink:href="../../d9/d1e/classArcane_1_1ISubDomain.html#aa88eea7ee203d85125b74564cfe60c32" target="_top" xlink:title="Retourne le gestionnaire de variables.">
<polygon fill="white" stroke="#666666" points="281,-30 165,-30 165,0 281,0 281,-30"/>
<text text-anchor="start" x="173" y="-18" font-family="Helvetica,sans-Serif" font-size="10.00">Arcane::ISubDomain</text>
<text text-anchor="middle" x="223" y="-7" font-family="Helvetica,sans-Serif" font-size="10.00">::variableMng</text>
</a>
</g>
</g>
<!-- Node1&#45;&gt;Node9 -->
<g id="edge10_Node000001_Node000009" class="edge">
<title>Node1&#45;&gt;Node9</title>
<g id="a_edge10_Node000001_Node000009"><a xlink:title=" ">
<path fill="none" stroke="#63b8ff" d="M69.92,-185.85C81.91,-154.31 113.63,-81.04 163,-39 164.36,-37.84 165.78,-36.73 167.26,-35.68"/>
<polygon fill="#63b8ff" stroke="#63b8ff" points="169.51,-38.39 176.15,-30.13 165.81,-32.45 169.51,-38.39"/>
</a>
</g>
</g>
<!-- Node5&#45;&gt;Node5 -->
<g id="edge5_Node000005_Node000005" class="edge">
<title>Node5&#45;&gt;Node5</title>
<g id="a_edge5_Node000005_Node000005"><a xlink:title=" ">
<path fill="none" stroke="#63b8ff" d="M195.23,-240.28C189.05,-249.41 198.31,-258 223,-258 237.66,-258 246.88,-254.97 250.66,-250.6"/>
<polygon fill="#63b8ff" stroke="#63b8ff" points="254.16,-250.31 250.77,-240.28 247.16,-250.23 254.16,-250.31"/>
</a>
</g>
</g>
<!-- Node8&#45;&gt;Node8 -->
<g id="edge9_Node000008_Node000008" class="edge">
<title>Node8&#45;&gt;Node8</title>
<g id="a_edge9_Node000008_Node000008"><a xlink:title=" ">
<path fill="none" stroke="#63b8ff" d="M195.23,-78.28C189.05,-87.41 198.31,-96 223,-96 237.66,-96 246.88,-92.97 250.66,-88.6"/>
<polygon fill="#63b8ff" stroke="#63b8ff" points="254.16,-88.31 250.77,-78.28 247.16,-88.23 254.16,-88.31"/>
</a>
</g>
</g>
</g>
</svg>
</svg>

<style type='text/css'>
<![CDATA[
[data-mouse-over-selected='false'] { opacity: 0.7; }
[data-mouse-over-selected='true']  { opacity: 1.0; }
]]>
</style>
<script type="application/ecmascript"><![CDATA[
document.addEventListener('DOMContentLoaded', (event) => {
  highlightEdges();
  highlightAdjacentNodes();
});
]]></script>
</svg>
