<?xml version="1.0" encoding="UTF-8" standalone="no"?>
<!DOCTYPE svg PUBLIC "-//W3C//DTD SVG 1.1//EN"
 "http://www.w3.org/Graphics/SVG/1.1/DTD/svg11.dtd">
<!-- Generated by graphviz version 2.43.0 (0)
 -->
<!-- Title: Arcane::mesh::DynamicMeshFactoryBase::createMesh Pages: 1 -->
<svg width="700pt" height="324pt"
 viewBox="0.00 0.00 700.00 323.50" xmlns="http://www.w3.org/2000/svg" xmlns:xlink="http://www.w3.org/1999/xlink">
<g id="graph0" class="graph" transform="scale(1 1) rotate(0) translate(4 319.5)">
<title>Arcane::mesh::DynamicMeshFactoryBase::createMesh</title>
<!-- Node1 -->
<g id="Node000001" class="node">
<title>Node1</title>
<g id="a_Node000001"><a xlink:title="Créé un maillage avec les informations de build_info.">
<polygon fill="#999999" stroke="#666666" points="159,-153.5 0,-153.5 0,-123.5 159,-123.5 159,-153.5"/>
<text text-anchor="start" x="8" y="-141.5" font-family="Helvetica,sans-Serif" font-size="10.00">Arcane::mesh::DynamicMesh</text>
<text text-anchor="middle" x="79.5" y="-130.5" font-family="Helvetica,sans-Serif" font-size="10.00">FactoryBase::createMesh</text>
</a>
</g>
</g>
<!-- Node2 -->
<g id="Node000002" class="node">
<title>Node2</title>
<g id="a_Node000002"><a xlink:href="../../d7/d7c/classArcane_1_1IVariableMng.html#aa60f066532e844c3bf16f45900ef2621" target="_top" xlink:title="API interne à Arcane.">
<polygon fill="white" stroke="#666666" points="341.5,-297.5 221.5,-297.5 221.5,-267.5 341.5,-267.5 341.5,-297.5"/>
<text text-anchor="start" x="229.5" y="-285.5" font-family="Helvetica,sans-Serif" font-size="10.00">Arcane::IVariableMng</text>
<text text-anchor="middle" x="281.5" y="-274.5" font-family="Helvetica,sans-Serif" font-size="10.00">::_internalApi</text>
</a>
</g>
</g>
<!-- Node1&#45;&gt;Node2 -->
<g id="edge1_Node000001_Node000002" class="edge">
<title>Node1&#45;&gt;Node2</title>
<g id="a_edge1_Node000001_Node000002"><a xlink:title=" ">
<path fill="none" stroke="#63b8ff" d="M90.91,-153.91C109.03,-179.51 148.85,-230.76 195,-258.5 200.29,-261.68 206.02,-264.45 211.91,-266.87"/>
<polygon fill="#63b8ff" stroke="#63b8ff" points="210.69,-270.15 221.28,-270.37 213.14,-263.59 210.69,-270.15"/>
</a>
</g>
</g>
<!-- Node3 -->
<g id="Node000003" class="node">
<title>Node3</title>
<g id="a_Node000003"><a xlink:href="../../d8/db4/classArcane_1_1MeshBuildInfo.html#ae83d146b150e9788a918aef891957bbf" target="_top" xlink:title="Positionne les caractéristiques du maillage.">
<polygon fill="white" stroke="#666666" points="344.5,-249.5 218.5,-249.5 218.5,-219.5 344.5,-219.5 344.5,-249.5"/>
<text text-anchor="start" x="226.5" y="-237.5" font-family="Helvetica,sans-Serif" font-size="10.00">Arcane::MeshBuildInfo</text>
<text text-anchor="middle" x="281.5" y="-226.5" font-family="Helvetica,sans-Serif" font-size="10.00">::addMeshKind</text>
</a>
</g>
</g>
<!-- Node1&#45;&gt;Node3 -->
<g id="edge3_Node000001_Node000003" class="edge">
<title>Node1&#45;&gt;Node3</title>
<g id="a_edge3_Node000001_Node000003"><a xlink:title=" ">
<path fill="none" stroke="#63b8ff" d="M100.6,-153.66C122.71,-169.73 159.8,-194.88 195,-210.5 199.43,-212.47 204.07,-214.31 208.79,-216.04"/>
<polygon fill="#63b8ff" stroke="#63b8ff" points="207.97,-219.46 218.57,-219.41 210.25,-212.84 207.97,-219.46"/>
</a>
</g>
</g>
<!-- Node6 -->
<g id="Node000006" class="node">
<title>Node6</title>
<g id="a_Node000006"><a xlink:href="../../de/d5b/classArcane_1_1IVariableMngInternal.html#afb84eee5a38ba688cfb968e37480692a" target="_top" xlink:title="Fonction interne temporaire pour récupérer le sous&#45;domaine.">
<polygon fill="white" stroke="#666666" points="360.5,-201.5 202.5,-201.5 202.5,-171.5 360.5,-171.5 360.5,-201.5"/>
<text text-anchor="start" x="210.5" y="-189.5" font-family="Helvetica,sans-Serif" font-size="10.00">Arcane::IVariableMngInternal</text>
<text text-anchor="middle" x="281.5" y="-178.5" font-family="Helvetica,sans-Serif" font-size="10.00">::internalSubDomain</text>
</a>
</g>
</g>
<!-- Node1&#45;&gt;Node6 -->
<g id="edge6_Node000001_Node000006" class="edge">
<title>Node1&#45;&gt;Node6</title>
<g id="a_edge6_Node000001_Node000006"><a xlink:title=" ">
<path fill="none" stroke="#63b8ff" d="M143.23,-153.56C163.8,-158.49 186.83,-164.02 208.06,-169.11"/>
<polygon fill="#63b8ff" stroke="#63b8ff" points="207.45,-172.57 217.99,-171.5 209.08,-165.76 207.45,-172.57"/>
</a>
</g>
</g>
<!-- Node7 -->
<g id="Node000007" class="node">
<title>Node7</title>
<g id="a_Node000007"><a xlink:href="../../d8/db4/classArcane_1_1MeshBuildInfo.html#a279591df539d6e0d3f7f92388c46007f" target="_top" xlink:title="Caractéristiques du maillage.">
<polygon fill="white" stroke="#666666" points="344.5,-153.5 218.5,-153.5 218.5,-123.5 344.5,-123.5 344.5,-153.5"/>
<text text-anchor="start" x="226.5" y="-141.5" font-family="Helvetica,sans-Serif" font-size="10.00">Arcane::MeshBuildInfo</text>
<text text-anchor="middle" x="281.5" y="-130.5" font-family="Helvetica,sans-Serif" font-size="10.00">::meshKind</text>
</a>
</g>
</g>
<!-- Node1&#45;&gt;Node7 -->
<g id="edge7_Node000001_Node000007" class="edge">
<title>Node1&#45;&gt;Node7</title>
<g id="a_edge7_Node000001_Node000007"><a xlink:title=" ">
<path fill="none" stroke="#63b8ff" d="M159.26,-138.5C175.4,-138.5 192.31,-138.5 208.21,-138.5"/>
<polygon fill="#63b8ff" stroke="#63b8ff" points="208.5,-142 218.5,-138.5 208.5,-135 208.5,-142"/>
</a>
</g>
</g>
<!-- Node8 -->
<g id="Node000008" class="node">
<title>Node8</title>
<g id="a_Node000008"><a xlink:href="../../d9/d27/classArcane_1_1ItemGroup.html#ac254583641d87f94267385604b3554b2" target="_top" xlink:title="true is le groupe est le groupe nul">
<polygon fill="white" stroke="#666666" points="347.5,-105 215.5,-105 215.5,-86 347.5,-86 347.5,-105"/>
<text text-anchor="middle" x="281.5" y="-93" font-family="Helvetica,sans-Serif" font-size="10.00">Arcane::ItemGroup::null</text>
</a>
</g>
</g>
<!-- Node1&#45;&gt;Node8 -->
<g id="edge8_Node000001_Node000008" class="edge">
<title>Node1&#45;&gt;Node8</title>
<g id="a_edge8_Node000001_Node000008"><a xlink:title=" ">
<path fill="none" stroke="#63b8ff" d="M150.45,-123.46C175.28,-118.12 202.83,-112.2 226.15,-107.18"/>
<polygon fill="#63b8ff" stroke="#63b8ff" points="227.17,-110.55 236.21,-105.02 225.7,-103.7 227.17,-110.55"/>
</a>
</g>
</g>
<!-- Node9 -->
<g id="Node000009" class="node">
<title>Node9</title>
<g id="a_Node000009"><a xlink:href="../../d8/db4/classArcane_1_1MeshBuildInfo.html#a1efd84a3a12fd91502252dc4dba2c21e" target="_top" xlink:title="Groupe parent dans le cas d&#39;un sous&#45;maillage, null sinon.">
<polygon fill="white" stroke="#666666" points="344.5,-67.5 218.5,-67.5 218.5,-37.5 344.5,-37.5 344.5,-67.5"/>
<text text-anchor="start" x="226.5" y="-55.5" font-family="Helvetica,sans-Serif" font-size="10.00">Arcane::MeshBuildInfo</text>
<text text-anchor="middle" x="281.5" y="-44.5" font-family="Helvetica,sans-Serif" font-size="10.00">::parentGroup</text>
</a>
</g>
</g>
<!-- Node1&#45;&gt;Node9 -->
<g id="edge9_Node000001_Node000009" class="edge">
<title>Node1&#45;&gt;Node9</title>
<g id="a_edge9_Node000001_Node000009"><a xlink:title=" ">
<path fill="none" stroke="#63b8ff" d="M105.25,-123.4C127.97,-110.01 162.88,-90.59 195,-77.5 200.83,-75.13 206.96,-72.87 213.16,-70.77"/>
<polygon fill="#63b8ff" stroke="#63b8ff" points="214.5,-74.01 222.91,-67.58 212.32,-67.36 214.5,-74.01"/>
</a>
</g>
</g>
<!-- Node10 -->
<g id="Node000010" class="node">
<title>Node10</title>
<g id="a_Node000010"><a xlink:href="../../d1/d4e/classArcane_1_1IMeshMng.html#a38b899ac49f7ecef54e05e941757a473" target="_top" xlink:title="Gestionnaire de variables associé à ce gestionnaire.">
<polygon fill="white" stroke="#666666" points="368,-19 195,-19 195,0 368,0 368,-19"/>
<text text-anchor="middle" x="281.5" y="-7" font-family="Helvetica,sans-Serif" font-size="10.00">Arcane::IMeshMng::variableMng</text>
</a>
</g>
</g>
<!-- Node1&#45;&gt;Node10 -->
<g id="edge10_Node000001_Node000010" class="edge">
<title>Node1&#45;&gt;Node10</title>
<g id="a_edge10_Node000001_Node000010"><a xlink:title=" ">
<path fill="none" stroke="#63b8ff" d="M91.66,-123.37C110.27,-99.31 150.05,-52.59 195,-28.5 199.3,-26.2 203.86,-24.17 208.55,-22.39"/>
<polygon fill="#63b8ff" stroke="#63b8ff" points="209.98,-25.6 218.33,-19.08 207.73,-18.98 209.98,-25.6"/>
</a>
</g>
</g>
<!-- Node2&#45;&gt;Node2 -->
<g id="edge2_Node000002_Node000002" class="edge">
<title>Node2&#45;&gt;Node2</title>
<g id="a_edge2_Node000002_Node000002"><a xlink:title=" ">
<path fill="none" stroke="#63b8ff" d="M249.16,-297.78C241.97,-306.91 252.75,-315.5 281.5,-315.5 298.57,-315.5 309.31,-312.47 313.71,-308.1"/>
<polygon fill="#63b8ff" stroke="#63b8ff" points="317.21,-307.82 313.84,-297.78 310.21,-307.73 317.21,-307.82"/>
</a>
</g>
</g>
<!-- Node4 -->
<g id="Node000004" class="node">
<title>Node4</title>
<g id="a_Node000004"><a xlink:href="../../d8/db4/classArcane_1_1MeshBuildInfo.html#a5e4ecddca38fe6afc93683b043e4eb50" target="_top" xlink:title="Construit un maillage par défaut avec pour nom name.">
<polygon fill="white" stroke="#666666" points="530,-249.5 404,-249.5 404,-219.5 530,-219.5 530,-249.5"/>
<text text-anchor="start" x="412" y="-237.5" font-family="Helvetica,sans-Serif" font-size="10.00">Arcane::MeshBuildInfo</text>
<text text-anchor="middle" x="467" y="-226.5" font-family="Helvetica,sans-Serif" font-size="10.00">::MeshBuildInfo</text>
</a>
</g>
</g>
<!-- Node3&#45;&gt;Node4 -->
<g id="edge4_Node000003_Node000004" class="edge">
<title>Node3&#45;&gt;Node4</title>
<g id="a_edge4_Node000003_Node000004"><a xlink:title=" ">
<path fill="none" stroke="#63b8ff" d="M344.62,-234.5C360.47,-234.5 377.63,-234.5 393.93,-234.5"/>
<polygon fill="#63b8ff" stroke="#63b8ff" points="393.94,-238 403.94,-234.5 393.94,-231 393.94,-238"/>
</a>
</g>
</g>
<!-- Node5 -->
<g id="Node000005" class="node">
<title>Node5</title>
<g id="a_Node000005"><a xlink:href="../../d8/db4/classArcane_1_1MeshBuildInfo.html#a073e710779fbb1872b40e6868f9e3c3d" target="_top" xlink:title="Nom du nouveau maillage.">
<polygon fill="white" stroke="#666666" points="692,-249.5 566,-249.5 566,-219.5 692,-219.5 692,-249.5"/>
<text text-anchor="start" x="574" y="-237.5" font-family="Helvetica,sans-Serif" font-size="10.00">Arcane::MeshBuildInfo</text>
<text text-anchor="middle" x="629" y="-226.5" font-family="Helvetica,sans-Serif" font-size="10.00">::name</text>
</a>
</g>
</g>
<!-- Node4&#45;&gt;Node5 -->
<g id="edge5_Node000004_Node000005" class="edge">
<title>Node4&#45;&gt;Node5</title>
<g id="a_edge5_Node000004_Node000005"><a xlink:title=" ">
<path fill="none" stroke="#63b8ff" d="M530.32,-234.5C538.62,-234.5 547.18,-234.5 555.63,-234.5"/>
<polygon fill="#63b8ff" stroke="#63b8ff" points="555.85,-238 565.85,-234.5 555.85,-231 555.85,-238"/>
</a>
</g>
</g>
</g>
</svg>
