<?xml version="1.0" encoding="UTF-8" standalone="no"?>
<!DOCTYPE svg PUBLIC "-//W3C//DTD SVG 1.1//EN"
 "http://www.w3.org/Graphics/SVG/1.1/DTD/svg11.dtd">
<!-- Generated by graphviz version 2.43.0 (0)
 -->
<!-- Title: Arcane::IArray2DataT&lt; DataType &gt; Pages: 1 -->
<!--zoomable 926 -->

<svg id="main" version="1.1" xmlns="http://www.w3.org/2000/svg" xmlns:xlink="http://www.w3.org/1999/xlink" xml:space="preserve" onload="init(evt)">

<style type="text/css"><![CDATA[
.node, .edge {opacity: 0.7;}
.node.selected, .edge.selected {opacity: 1;}
.edge:hover path { stroke: red; }
.edge:hover polygon { stroke: red; fill: red; }
]]></style>

<defs>
  <circle id="rim" cx="0" cy="0" r="7"/>
  <circle id="rim2" cx="0" cy="0" r="3.5"/>
  <g id="zoomPlus">
    <use xlink:href="#rim" fill="#404040"><set attributeName="fill" to="#808080" begin="zoomplus.mouseover" end="zoomplus.mouseout"/></use>
    <path d="M-4,0h8M0,-4v8" fill="none" stroke="white" stroke-width="1.5" pointer-events="none"/>
  </g>
  <g id="zoomMin">
    <use xlink:href="#rim" fill="#404040"><set attributeName="fill" to="#808080" begin="zoomminus.mouseover" end="zoomminus.mouseout"/></use>
    <path d="M-4,0h8" fill="none" stroke="white" stroke-width="1.5" pointer-events="none"/>
  </g>
  <g id="arrowUp" transform="translate(30 24)">
    <use xlink:href="#rim"/>
    <path pointer-events="none" fill="none" stroke="white" stroke-width="1.5" d="M0,-3.0v7 M-2.5,-0.5L0,-3.0L2.5,-0.5"/>
  </g>
  <g id="arrowRight" transform="rotate(90) translate(36 -43)">
    <use xlink:href="#rim"/>
    <path pointer-events="none" fill="none" stroke="white" stroke-width="1.5" d="M0,-3.0v7 M-2.5,-0.5L0,-3.0L2.5,-0.5"/>
  </g>
  <g id="arrowDown" transform="rotate(180) translate(-30 -48)">
    <use xlink:href="#rim"/>
    <path pointer-events="none" fill="none" stroke="white" stroke-width="1.5" d="M0,-3.0v7 M-2.5,-0.5L0,-3.0L2.5,-0.5"/>
  </g>
  <g id="arrowLeft" transform="rotate(270) translate(-36 17)">
    <use xlink:href="#rim"/>
    <path pointer-events="none" fill="none" stroke="white" stroke-width="1.5" d="M0,-3.0v7 M-2.5,-0.5L0,-3.0L2.5,-0.5"/>
  </g>
  <g id="resetDef">
    <use xlink:href="#rim2" fill="#404040"><set attributeName="fill" to="#808080" begin="reset.mouseover" end="reset.mouseout"/></use>
  </g>
</defs>
<script type="application/ecmascript">
var viewWidth = 396;
var viewHeight = 926;
var sectionId = 'dynsection-0';
</script>
<script type="application/ecmascript" xlink:href="../../svg.min.js"/>
<svg id="graph" class="graph">
<g id="viewport">
<title>Arcane::IArray2DataT&lt; DataType &gt;</title>
<!-- Node1 -->
<g id="Node000001" class="node">
<title>Node1</title>
<g id="a_Node000001"><a xlink:title="Interface d&#39;une donnée tableau bi&#45;dimensionnel d&#39;un type T.">
<polygon fill="#999999" stroke="transparent" points="255.5,-572 131.5,-572 131.5,-392 255.5,-392 255.5,-572"/>
<text text-anchor="start" x="141" y="-560" font-family="Helvetica,sans-Serif" font-size="10.00">Arcane::IArray2DataT</text>
<text text-anchor="start" x="159" y="-549" font-family="Helvetica,sans-Serif" font-size="10.00">&lt; DataType &gt;</text>
<text text-anchor="start" x="191.5" y="-534" font-family="Helvetica,sans-Serif" font-size="10.00"> </text>
<text text-anchor="start" x="135.5" y="-519" font-family="Helvetica,sans-Serif" font-size="10.00">+</text>
<text text-anchor="start" x="148.5" y="-519" font-family="Helvetica,sans-Serif" font-size="10.00">value()</text>
<text text-anchor="start" x="135.5" y="-504" font-family="Helvetica,sans-Serif" font-size="10.00">+</text>
<text text-anchor="start" x="148.5" y="-504" font-family="Helvetica,sans-Serif" font-size="10.00">value()</text>
<text text-anchor="start" x="135.5" y="-489" font-family="Helvetica,sans-Serif" font-size="10.00">+</text>
<text text-anchor="start" x="148.5" y="-489" font-family="Helvetica,sans-Serif" font-size="10.00">view()</text>
<text text-anchor="start" x="135.5" y="-474" font-family="Helvetica,sans-Serif" font-size="10.00">+</text>
<text text-anchor="start" x="148.5" y="-474" font-family="Helvetica,sans-Serif" font-size="10.00">view()</text>
<text text-anchor="start" x="135.5" y="-459" font-family="Helvetica,sans-Serif" font-size="10.00">+</text>
<text text-anchor="start" x="148.5" y="-459" font-family="Helvetica,sans-Serif" font-size="10.00">cloneTrue()</text>
<text text-anchor="start" x="135.5" y="-444" font-family="Helvetica,sans-Serif" font-size="10.00">+</text>
<text text-anchor="start" x="148.5" y="-444" font-family="Helvetica,sans-Serif" font-size="10.00">cloneTrueEmpty()</text>
<text text-anchor="start" x="135.5" y="-429" font-family="Helvetica,sans-Serif" font-size="10.00">+</text>
<text text-anchor="start" x="148.5" y="-429" font-family="Helvetica,sans-Serif" font-size="10.00">cloneTrueRef()</text>
<text text-anchor="start" x="135.5" y="-414" font-family="Helvetica,sans-Serif" font-size="10.00">+</text>
<text text-anchor="start" x="148.5" y="-414" font-family="Helvetica,sans-Serif" font-size="10.00">cloneTrueEmptyRef()</text>
<text text-anchor="start" x="135.5" y="-399" font-family="Helvetica,sans-Serif" font-size="10.00">+</text>
<text text-anchor="start" x="148.5" y="-399" font-family="Helvetica,sans-Serif" font-size="10.00">_internal()</text>
<polygon fill="#666666" stroke="#666666" points="131.5,-544 131.5,-544 255.5,-544 255.5,-544 131.5,-544"/>
<polygon fill="#666666" stroke="#666666" points="131.5,-529 131.5,-529 255.5,-529 255.5,-529 131.5,-529"/>
<polygon fill="none" stroke="#666666" points="131.5,-392 131.5,-572 255.5,-572 255.5,-392 131.5,-392"/>
</a>
</g>
</g>
<!-- Node4 -->
<g id="Node000004" class="node">
<title>Node4</title>
<g id="a_Node000004"><a xlink:href="../../de/dc2/classArcane_1_1Array2DataT_1_1Impl.html" target="_top" xlink:title=" ">
<polygon fill="white" stroke="transparent" points="185,-356 0,-356 0,0 185,0 185,-356"/>
<text text-anchor="start" x="42" y="-344" font-family="Helvetica,sans-Serif" font-size="10.00">Arcane::Array2DataT</text>
<text text-anchor="start" x="44.5" y="-333" font-family="Helvetica,sans-Serif" font-size="10.00">&lt; DataType &gt;::Impl</text>
<text text-anchor="start" x="7" y="-318" font-family="Helvetica,sans-Serif" font-size="10.00">&#45;</text>
<text text-anchor="start" x="17.5" y="-318" font-family="Helvetica,sans-Serif" font-size="10.00">m_p</text>
<text text-anchor="start" x="7" y="-303" font-family="Helvetica,sans-Serif" font-size="10.00">&#45;</text>
<text text-anchor="start" x="17.5" y="-303" font-family="Helvetica,sans-Serif" font-size="10.00">m_value</text>
<text text-anchor="start" x="7" y="-288" font-family="Helvetica,sans-Serif" font-size="10.00">&#45;</text>
<text text-anchor="start" x="17.5" y="-288" font-family="Helvetica,sans-Serif" font-size="10.00">m_trace</text>
<text text-anchor="start" x="7" y="-273" font-family="Helvetica,sans-Serif" font-size="10.00">&#45;</text>
<text text-anchor="start" x="17.5" y="-273" font-family="Helvetica,sans-Serif" font-size="10.00">m_internal</text>
<text text-anchor="start" x="7" y="-258" font-family="Helvetica,sans-Serif" font-size="10.00">&#45;</text>
<text text-anchor="start" x="17.5" y="-258" font-family="Helvetica,sans-Serif" font-size="10.00">m_shape</text>
<text text-anchor="start" x="7" y="-243" font-family="Helvetica,sans-Serif" font-size="10.00">&#45;</text>
<text text-anchor="start" x="17.5" y="-243" font-family="Helvetica,sans-Serif" font-size="10.00">m_allocation_info</text>
<text text-anchor="start" x="4.5" y="-228" font-family="Helvetica,sans-Serif" font-size="10.00">+</text>
<text text-anchor="start" x="17.5" y="-228" font-family="Helvetica,sans-Serif" font-size="10.00">Impl()</text>
<text text-anchor="start" x="4.5" y="-213" font-family="Helvetica,sans-Serif" font-size="10.00">+</text>
<text text-anchor="start" x="17.5" y="-213" font-family="Helvetica,sans-Serif" font-size="10.00">reserve()</text>
<text text-anchor="start" x="4.5" y="-198" font-family="Helvetica,sans-Serif" font-size="10.00">+</text>
<text text-anchor="start" x="17.5" y="-198" font-family="Helvetica,sans-Serif" font-size="10.00">resizeOnlyDim1()</text>
<text text-anchor="start" x="4.5" y="-183" font-family="Helvetica,sans-Serif" font-size="10.00">+</text>
<text text-anchor="start" x="17.5" y="-183" font-family="Helvetica,sans-Serif" font-size="10.00">resize()</text>
<text text-anchor="start" x="4.5" y="-168" font-family="Helvetica,sans-Serif" font-size="10.00">+</text>
<text text-anchor="start" x="17.5" y="-168" font-family="Helvetica,sans-Serif" font-size="10.00">_internalDeprecatedValue()</text>
<text text-anchor="start" x="4.5" y="-153" font-family="Helvetica,sans-Serif" font-size="10.00">+</text>
<text text-anchor="start" x="17.5" y="-153" font-family="Helvetica,sans-Serif" font-size="10.00">shrink()</text>
<text text-anchor="start" x="4.5" y="-138" font-family="Helvetica,sans-Serif" font-size="10.00">+</text>
<text text-anchor="start" x="17.5" y="-138" font-family="Helvetica,sans-Serif" font-size="10.00">compressAndClear()</text>
<text text-anchor="start" x="4.5" y="-123" font-family="Helvetica,sans-Serif" font-size="10.00">+</text>
<text text-anchor="start" x="17.5" y="-123" font-family="Helvetica,sans-Serif" font-size="10.00">decompressAndFill()</text>
<text text-anchor="start" x="4.5" y="-108" font-family="Helvetica,sans-Serif" font-size="10.00">+</text>
<text text-anchor="start" x="17.5" y="-108" font-family="Helvetica,sans-Serif" font-size="10.00">memoryView()</text>
<text text-anchor="start" x="4.5" y="-93" font-family="Helvetica,sans-Serif" font-size="10.00">+</text>
<text text-anchor="start" x="17.5" y="-93" font-family="Helvetica,sans-Serif" font-size="10.00">extent0()</text>
<text text-anchor="start" x="17.5" y="-78" font-family="Helvetica,sans-Serif" font-size="10.00">et 49 de plus...</text>
<text text-anchor="start" x="4.5" y="-63" font-family="Helvetica,sans-Serif" font-size="10.00">+</text>
<text text-anchor="start" x="17.5" y="-63" font-family="Helvetica,sans-Serif" font-size="10.00">staticStorageTypeInfo()</text>
<text text-anchor="start" x="7" y="-48" font-family="Helvetica,sans-Serif" font-size="10.00">&#45;</text>
<text text-anchor="start" x="17.5" y="-48" font-family="Helvetica,sans-Serif" font-size="10.00">ARCCORE_DEFINE_REFERENCE</text>
<text text-anchor="start" x="17.5" y="-37" font-family="Helvetica,sans-Serif" font-size="10.00">_COUNTED_INCLASS_METHODS()</text>
<text text-anchor="start" x="7" y="-22" font-family="Helvetica,sans-Serif" font-size="10.00">&#45;</text>
<text text-anchor="start" x="17.5" y="-22" font-family="Helvetica,sans-Serif" font-size="10.00">_cloneTrue()</text>
<text text-anchor="start" x="7" y="-7" font-family="Helvetica,sans-Serif" font-size="10.00">&#45;</text>
<text text-anchor="start" x="17.5" y="-7" font-family="Helvetica,sans-Serif" font-size="10.00">_cloneTrueEmpty()</text>
<polygon fill="#bfbfbf" stroke="#bfbfbf" points="0.5,-328 0.5,-328 185.5,-328 185.5,-328 0.5,-328"/>
<polygon fill="#bfbfbf" stroke="#bfbfbf" points="0.5,-238 0.5,-238 15.5,-238 15.5,-238 0.5,-238"/>
<polygon fill="#bfbfbf" stroke="#bfbfbf" points="15.5,-238 15.5,-238 185.5,-238 185.5,-238 15.5,-238"/>
<polygon fill="none" stroke="#bfbfbf" points="0,0 0,-356 185,-356 185,0 0,0"/>
</a>
</g>
</g>
<!-- Node1&#45;&gt;Node4 -->
<g id="edge3_Node000001_Node000004" class="edge">
<title>Node1&#45;&gt;Node4</title>
<g id="a_edge3_Node000001_Node000004"><a xlink:title=" ">
<path fill="none" stroke="#63b8ff" d="M160.35,-381.88C157.54,-373.48 154.65,-364.84 151.72,-356.07"/>
<polygon fill="none" stroke="#63b8ff" points="157.12,-383.24 163.61,-391.62 163.75,-381.02 157.12,-383.24"/>
</a>
</g>
</g>
<!-- Node5 -->
<g id="Node000005" class="node">
<title>Node5</title>
<g id="a_Node000005"><a xlink:href="../../de/dfa/classArcane_1_1Array2DataT.html" target="_top" xlink:title="Donnée tableau bi&#45;dimensionnel d&#39;un type DataType.">
<polygon fill="white" stroke="transparent" points="388,-348.5 203,-348.5 203,-7.5 388,-7.5 388,-348.5"/>
<text text-anchor="start" x="245" y="-336" font-family="Helvetica,sans-Serif" font-size="10.00">Arcane::Array2DataT</text>
<text text-anchor="start" x="261.5" y="-325" font-family="Helvetica,sans-Serif" font-size="10.00">&lt; DataType &gt;</text>
<text text-anchor="start" x="210" y="-310" font-family="Helvetica,sans-Serif" font-size="10.00">&#45;</text>
<text text-anchor="start" x="220.5" y="-310" font-family="Helvetica,sans-Serif" font-size="10.00">m_value</text>
<text text-anchor="start" x="210" y="-295" font-family="Helvetica,sans-Serif" font-size="10.00">&#45;</text>
<text text-anchor="start" x="220.5" y="-295" font-family="Helvetica,sans-Serif" font-size="10.00">m_trace</text>
<text text-anchor="start" x="210" y="-280" font-family="Helvetica,sans-Serif" font-size="10.00">&#45;</text>
<text text-anchor="start" x="220.5" y="-280" font-family="Helvetica,sans-Serif" font-size="10.00">m_internal</text>
<text text-anchor="start" x="210" y="-265" font-family="Helvetica,sans-Serif" font-size="10.00">&#45;</text>
<text text-anchor="start" x="220.5" y="-265" font-family="Helvetica,sans-Serif" font-size="10.00">m_shape</text>
<text text-anchor="start" x="210" y="-250" font-family="Helvetica,sans-Serif" font-size="10.00">&#45;</text>
<text text-anchor="start" x="220.5" y="-250" font-family="Helvetica,sans-Serif" font-size="10.00">m_allocation_info</text>
<text text-anchor="start" x="207.5" y="-235" font-family="Helvetica,sans-Serif" font-size="10.00">+</text>
<text text-anchor="start" x="220.5" y="-235" font-family="Helvetica,sans-Serif" font-size="10.00">Array2DataT()</text>
<text text-anchor="start" x="207.5" y="-220" font-family="Helvetica,sans-Serif" font-size="10.00">+</text>
<text text-anchor="start" x="220.5" y="-220" font-family="Helvetica,sans-Serif" font-size="10.00">Array2DataT()</text>
<text text-anchor="start" x="207.5" y="-205" font-family="Helvetica,sans-Serif" font-size="10.00">+</text>
<text text-anchor="start" x="220.5" y="-205" font-family="Helvetica,sans-Serif" font-size="10.00">Array2DataT()</text>
<text text-anchor="start" x="207.5" y="-190" font-family="Helvetica,sans-Serif" font-size="10.00">+</text>
<text text-anchor="start" x="220.5" y="-190" font-family="Helvetica,sans-Serif" font-size="10.00">~Array2DataT()</text>
<text text-anchor="start" x="207.5" y="-175" font-family="Helvetica,sans-Serif" font-size="10.00">+</text>
<text text-anchor="start" x="220.5" y="-175" font-family="Helvetica,sans-Serif" font-size="10.00">dimension()</text>
<text text-anchor="start" x="207.5" y="-160" font-family="Helvetica,sans-Serif" font-size="10.00">+</text>
<text text-anchor="start" x="220.5" y="-160" font-family="Helvetica,sans-Serif" font-size="10.00">multiTag()</text>
<text text-anchor="start" x="207.5" y="-145" font-family="Helvetica,sans-Serif" font-size="10.00">+</text>
<text text-anchor="start" x="220.5" y="-145" font-family="Helvetica,sans-Serif" font-size="10.00">dataType()</text>
<text text-anchor="start" x="207.5" y="-130" font-family="Helvetica,sans-Serif" font-size="10.00">+</text>
<text text-anchor="start" x="220.5" y="-130" font-family="Helvetica,sans-Serif" font-size="10.00">serialize()</text>
<text text-anchor="start" x="207.5" y="-115" font-family="Helvetica,sans-Serif" font-size="10.00">+</text>
<text text-anchor="start" x="220.5" y="-115" font-family="Helvetica,sans-Serif" font-size="10.00">serialize()</text>
<text text-anchor="start" x="207.5" y="-100" font-family="Helvetica,sans-Serif" font-size="10.00">+</text>
<text text-anchor="start" x="220.5" y="-100" font-family="Helvetica,sans-Serif" font-size="10.00">value()</text>
<text text-anchor="start" x="220.5" y="-85" font-family="Helvetica,sans-Serif" font-size="10.00">et 35 de plus...</text>
<text text-anchor="start" x="207.5" y="-70" font-family="Helvetica,sans-Serif" font-size="10.00">+</text>
<text text-anchor="start" x="220.5" y="-70" font-family="Helvetica,sans-Serif" font-size="10.00">staticStorageTypeInfo()</text>
<text text-anchor="start" x="210" y="-55" font-family="Helvetica,sans-Serif" font-size="10.00">&#45;</text>
<text text-anchor="start" x="220.5" y="-55" font-family="Helvetica,sans-Serif" font-size="10.00">ARCCORE_DEFINE_REFERENCE</text>
<text text-anchor="start" x="220.5" y="-44" font-family="Helvetica,sans-Serif" font-size="10.00">_COUNTED_INCLASS_METHODS()</text>
<text text-anchor="start" x="210" y="-29" font-family="Helvetica,sans-Serif" font-size="10.00">&#45;</text>
<text text-anchor="start" x="220.5" y="-29" font-family="Helvetica,sans-Serif" font-size="10.00">_cloneTrue()</text>
<text text-anchor="start" x="210" y="-14" font-family="Helvetica,sans-Serif" font-size="10.00">&#45;</text>
<text text-anchor="start" x="220.5" y="-14" font-family="Helvetica,sans-Serif" font-size="10.00">_cloneTrueEmpty()</text>
<polygon fill="#666666" stroke="#666666" points="203.5,-320 203.5,-320 388.5,-320 388.5,-320 203.5,-320"/>
<polygon fill="#666666" stroke="#666666" points="203.5,-245 203.5,-245 218.5,-245 218.5,-245 203.5,-245"/>
<polygon fill="#666666" stroke="#666666" points="218.5,-245 218.5,-245 388.5,-245 388.5,-245 218.5,-245"/>
<polygon fill="none" stroke="#666666" points="203,-7.5 203,-348.5 388,-348.5 388,-7.5 203,-7.5"/>
</a>
</g>
</g>
<!-- Node1&#45;&gt;Node5 -->
<g id="edge4_Node000001_Node000005" class="edge">
<title>Node1&#45;&gt;Node5</title>
<g id="a_edge4_Node000001_Node000005"><a xlink:title=" ">
<path fill="none" stroke="#63b8ff" d="M227,-381.83C230.64,-371.04 234.42,-359.84 238.25,-348.51"/>
<polygon fill="none" stroke="#63b8ff" points="223.57,-381.02 223.69,-391.62 230.21,-383.26 223.57,-381.02"/>
</a>
</g>
</g>
<!-- Node2 -->
<g id="Node000002" class="node">
<title>Node2</title>
<g id="a_Node000002"><a xlink:href="../../dd/dad/classArcane_1_1IArray2Data.html" target="_top" xlink:title="Interface d&#39;une donnée tableau 2D.">
<polygon fill="white" stroke="transparent" points="248,-657 139,-657 139,-608 248,-608 248,-657"/>
<text text-anchor="start" x="144.5" y="-644.5" font-family="Helvetica,sans-Serif" font-size="10.00">Arcane::IArray2Data</text>
<text text-anchor="start" x="192" y="-629.5" font-family="Helvetica,sans-Serif" font-size="10.00"> </text>
<text text-anchor="start" x="192" y="-614.5" font-family="Helvetica,sans-Serif" font-size="10.00"> </text>
<polygon fill="#666666" stroke="#666666" points="139.5,-639.5 139.5,-639.5 248.5,-639.5 248.5,-639.5 139.5,-639.5"/>
<polygon fill="#666666" stroke="#666666" points="139.5,-624.5 139.5,-624.5 248.5,-624.5 248.5,-624.5 139.5,-624.5"/>
<polygon fill="none" stroke="#666666" points="139,-608 139,-657 248,-657 248,-608 139,-608"/>
</a>
</g>
</g>
<!-- Node2&#45;&gt;Node1 -->
<g id="edge1_Node000001_Node000002" class="edge">
<title>Node2&#45;&gt;Node1</title>
<g id="a_edge1_Node000001_Node000002"><a xlink:title=" ">
<path fill="none" stroke="#63b8ff" d="M193.5,-597.81C193.5,-589.92 193.5,-581.14 193.5,-572.06"/>
<polygon fill="none" stroke="#63b8ff" points="190,-597.97 193.5,-607.97 197,-597.97 190,-597.97"/>
</a>
</g>
</g>
<!-- Node3 -->
<g id="Node000003" class="node">
<title>Node3</title>
<g id="a_Node000003"><a xlink:href="../../d1/d15/classArcane_1_1IData.html" target="_top" xlink:title="Interface d&#39;une donnée.">
<polygon fill="white" stroke="transparent" points="286,-918 101,-918 101,-693 286,-693 286,-918"/>
<text text-anchor="start" x="160.5" y="-905.5" font-family="Helvetica,sans-Serif" font-size="10.00">Arcane::IData</text>
<text text-anchor="start" x="192" y="-890.5" font-family="Helvetica,sans-Serif" font-size="10.00"> </text>
<text text-anchor="start" x="105.5" y="-875.5" font-family="Helvetica,sans-Serif" font-size="10.00">+</text>
<text text-anchor="start" x="118.5" y="-875.5" font-family="Helvetica,sans-Serif" font-size="10.00">~IData()</text>
<text text-anchor="start" x="105.5" y="-860.5" font-family="Helvetica,sans-Serif" font-size="10.00">+</text>
<text text-anchor="start" x="118.5" y="-860.5" font-family="Helvetica,sans-Serif" font-size="10.00">dataType()</text>
<text text-anchor="start" x="105.5" y="-845.5" font-family="Helvetica,sans-Serif" font-size="10.00">+</text>
<text text-anchor="start" x="118.5" y="-845.5" font-family="Helvetica,sans-Serif" font-size="10.00">dimension()</text>
<text text-anchor="start" x="105.5" y="-830.5" font-family="Helvetica,sans-Serif" font-size="10.00">+</text>
<text text-anchor="start" x="118.5" y="-830.5" font-family="Helvetica,sans-Serif" font-size="10.00">multiTag()</text>
<text text-anchor="start" x="105.5" y="-815.5" font-family="Helvetica,sans-Serif" font-size="10.00">+</text>
<text text-anchor="start" x="118.5" y="-815.5" font-family="Helvetica,sans-Serif" font-size="10.00">clone()</text>
<text text-anchor="start" x="105.5" y="-800.5" font-family="Helvetica,sans-Serif" font-size="10.00">+</text>
<text text-anchor="start" x="118.5" y="-800.5" font-family="Helvetica,sans-Serif" font-size="10.00">cloneEmpty()</text>
<text text-anchor="start" x="105.5" y="-785.5" font-family="Helvetica,sans-Serif" font-size="10.00">+</text>
<text text-anchor="start" x="118.5" y="-785.5" font-family="Helvetica,sans-Serif" font-size="10.00">cloneRef()</text>
<text text-anchor="start" x="105.5" y="-770.5" font-family="Helvetica,sans-Serif" font-size="10.00">+</text>
<text text-anchor="start" x="118.5" y="-770.5" font-family="Helvetica,sans-Serif" font-size="10.00">cloneEmptyRef()</text>
<text text-anchor="start" x="105.5" y="-755.5" font-family="Helvetica,sans-Serif" font-size="10.00">+</text>
<text text-anchor="start" x="118.5" y="-755.5" font-family="Helvetica,sans-Serif" font-size="10.00">storageTypeInfo()</text>
<text text-anchor="start" x="105.5" y="-740.5" font-family="Helvetica,sans-Serif" font-size="10.00">+</text>
<text text-anchor="start" x="118.5" y="-740.5" font-family="Helvetica,sans-Serif" font-size="10.00">serialize()</text>
<text text-anchor="start" x="118.5" y="-725.5" font-family="Helvetica,sans-Serif" font-size="10.00">et 20 de plus...</text>
<text text-anchor="start" x="108" y="-710.5" font-family="Helvetica,sans-Serif" font-size="10.00">&#45;</text>
<text text-anchor="start" x="118.5" y="-710.5" font-family="Helvetica,sans-Serif" font-size="10.00">ARCCORE_DECLARE_REFERENCE</text>
<text text-anchor="start" x="118.5" y="-699.5" font-family="Helvetica,sans-Serif" font-size="10.00">_COUNTED_INCLASS_METHODS()</text>
<polygon fill="#666666" stroke="#666666" points="101.5,-900.5 101.5,-900.5 286.5,-900.5 286.5,-900.5 101.5,-900.5"/>
<polygon fill="#666666" stroke="#666666" points="101.5,-885.5 101.5,-885.5 286.5,-885.5 286.5,-885.5 101.5,-885.5"/>
<polygon fill="none" stroke="#666666" points="101,-693 101,-918 286,-918 286,-693 101,-693"/>
</a>
</g>
</g>
<!-- Node3&#45;&gt;Node2 -->
<g id="edge2_Node000002_Node000003" class="edge">
<title>Node3&#45;&gt;Node2</title>
<g id="a_edge2_Node000002_Node000003"><a xlink:title=" ">
<path fill="none" stroke="#63b8ff" d="M193.5,-682.75C193.5,-673.3 193.5,-664.58 193.5,-657.18"/>
<polygon fill="none" stroke="#63b8ff" points="190,-682.83 193.5,-692.83 197,-682.83 190,-682.83"/>
</a>
</g>
</g>
</g>
</svg>

<g id="navigator" transform="translate(0 0)" fill="#404254">
  <rect fill="#f2f5e9" fill-opacity="0.5" stroke="#606060" stroke-width=".5" x="0" y="0" width="60" height="60"/>
  <use id="zoomplus" xlink:href="#zoomPlus" x="17" y="9" onmousedown="handleZoom(evt,'in')"/>
  <use id="zoomminus" xlink:href="#zoomMin" x="42" y="9" onmousedown="handleZoom(evt,'out')"/>
  <use id="reset" xlink:href="#resetDef" x="30" y="36" onmousedown="handleReset()"/>
   <use id="arrowup" xlink:href="#arrowUp" x="0" y="0" onmousedown="handlePan(0,-1)"/>
  <use id="arrowright" xlink:href="#arrowRight" x="0" y="0" onmousedown="handlePan(1,0)"/>
  <use id="arrowdown" xlink:href="#arrowDown" x="0" y="0" onmousedown="handlePan(0,1)"/>
  <use id="arrowleft" xlink:href="#arrowLeft" x="0" y="0" onmousedown="handlePan(-1,0)"/>
</g>
<svg viewBox="0 0 15 15" width="100%" height="30px" preserveAspectRatio="xMaxYMin meet">
 <g id="arrow_out" transform="scale(0.3 0.3)">
  <a xlink:href="classArcane_1_1IArray2DataT__inherit__graph_org.svg" target="_base">
   <rect id="button" ry="5" rx="5" y="6" x="6" height="38" width="38"
        fill="#f2f5e9" fill-opacity="0.5" stroke="#606060" stroke-width="1.0"/>
   <path id="arrow"
     d="M 11.500037,31.436501 C 11.940474,20.09759 22.043105,11.32322 32.158766,21.979434 L 37.068811,17.246167 C 37.068811,17.246167 37.088388,32 37.088388,32 L 22.160133,31.978069 C 22.160133,31.978069 26.997745,27.140456 26.997745,27.140456 C 18.528582,18.264221 13.291696,25.230495 11.500037,31.436501 z"
     style="fill:#404040;"/>
  </a>
 </g>
</svg>

<style type='text/css'>
<![CDATA[
[data-mouse-over-selected='false'] { opacity: 0.7; }
[data-mouse-over-selected='true']  { opacity: 1.0; }
]]>
</style>
<script type="application/ecmascript"><![CDATA[
document.addEventListener('DOMContentLoaded', (event) => {
  highlightEdges();
  highlightAdjacentNodes();
});
]]></script>
</svg>
