<?xml version="1.0" encoding="UTF-8" standalone="no"?>
<!DOCTYPE svg PUBLIC "-//W3C//DTD SVG 1.1//EN"
 "http://www.w3.org/Graphics/SVG/1.1/DTD/svg11.dtd">
<!-- Generated by graphviz version 2.43.0 (0)
 -->
<!-- Title: Arcane::RefImpl::get Pages: 1 -->
<!--zoomable 1019 -->

<svg id="main" version="1.1" xmlns="http://www.w3.org/2000/svg" xmlns:xlink="http://www.w3.org/1999/xlink" xml:space="preserve" onload="init(evt)">

<style type="text/css"><![CDATA[
.node, .edge {opacity: 0.7;}
.node.selected, .edge.selected {opacity: 1;}
.edge:hover path { stroke: red; }
.edge:hover polygon { stroke: red; fill: red; }
]]></style>

<defs>
  <circle id="rim" cx="0" cy="0" r="7"/>
  <circle id="rim2" cx="0" cy="0" r="3.5"/>
  <g id="zoomPlus">
    <use xlink:href="#rim" fill="#404040"><set attributeName="fill" to="#808080" begin="zoomplus.mouseover" end="zoomplus.mouseout"/></use>
    <path d="M-4,0h8M0,-4v8" fill="none" stroke="white" stroke-width="1.5" pointer-events="none"/>
  </g>
  <g id="zoomMin">
    <use xlink:href="#rim" fill="#404040"><set attributeName="fill" to="#808080" begin="zoomminus.mouseover" end="zoomminus.mouseout"/></use>
    <path d="M-4,0h8" fill="none" stroke="white" stroke-width="1.5" pointer-events="none"/>
  </g>
  <g id="arrowUp" transform="translate(30 24)">
    <use xlink:href="#rim"/>
    <path pointer-events="none" fill="none" stroke="white" stroke-width="1.5" d="M0,-3.0v7 M-2.5,-0.5L0,-3.0L2.5,-0.5"/>
  </g>
  <g id="arrowRight" transform="rotate(90) translate(36 -43)">
    <use xlink:href="#rim"/>
    <path pointer-events="none" fill="none" stroke="white" stroke-width="1.5" d="M0,-3.0v7 M-2.5,-0.5L0,-3.0L2.5,-0.5"/>
  </g>
  <g id="arrowDown" transform="rotate(180) translate(-30 -48)">
    <use xlink:href="#rim"/>
    <path pointer-events="none" fill="none" stroke="white" stroke-width="1.5" d="M0,-3.0v7 M-2.5,-0.5L0,-3.0L2.5,-0.5"/>
  </g>
  <g id="arrowLeft" transform="rotate(270) translate(-36 17)">
    <use xlink:href="#rim"/>
    <path pointer-events="none" fill="none" stroke="white" stroke-width="1.5" d="M0,-3.0v7 M-2.5,-0.5L0,-3.0L2.5,-0.5"/>
  </g>
  <g id="resetDef">
    <use xlink:href="#rim2" fill="#404040"><set attributeName="fill" to="#808080" begin="reset.mouseover" end="reset.mouseout"/></use>
  </g>
</defs>
<script type="application/ecmascript">
var viewWidth = 756;
var viewHeight = 1019;
var sectionId = 'dynsection-2';
</script>
<script type="application/ecmascript" xlink:href="../../svg.min.js"/>
<svg id="graph" class="graph">
<g id="viewport">
<title>Arcane::RefImpl::get</title>
<!-- Node1 -->
<g id="Node000001" class="node">
<title>Node1</title>
<g id="a_Node000001"><a xlink:title="Instance associée ou nullptr si aucune.">
<polygon fill="#999999" stroke="#666666" points="748,-491.5 632,-491.5 632,-472.5 748,-472.5 748,-491.5"/>
<text text-anchor="middle" x="690" y="-479.5" font-family="Helvetica,sans-Serif" font-size="10.00">Arcane::RefImpl::get</text>
</a>
</g>
</g>
<!-- Node2 -->
<g id="Node000002" class="node">
<title>Node2</title>
<g id="a_Node000002"><a xlink:href="../../da/d3b/classArcane_1_1MetisWrapper.html#a91536da94cf6949776a99794c91412fd" target="_top" xlink:title="Appelle Metis en regroupant le graph sur 2 processeurs.">
<polygon fill="white" stroke="#666666" points="580,-987 427,-987 427,-957 580,-957 580,-987"/>
<text text-anchor="start" x="435" y="-975" font-family="Helvetica,sans-Serif" font-size="10.00">Arcane::MetisWrapper</text>
<text text-anchor="middle" x="503.5" y="-964" font-family="Helvetica,sans-Serif" font-size="10.00">::_callMetisWith2Processors</text>
</a>
</g>
</g>
<!-- Node1&#45;&gt;Node2 -->
<g id="edge1_Node000001_Node000002" class="edge">
<title>Node1&#45;&gt;Node2</title>
<g id="a_edge1_Node000001_Node000002"><a xlink:title=" ">
<path fill="none" stroke="#63b8ff" d="M687.77,-501.89C682.43,-582.23 658.55,-881.61 596,-948 591.5,-952.78 586.16,-956.65 580.38,-959.79"/>
<polygon fill="#63b8ff" stroke="#63b8ff" points="691.28,-501.89 688.43,-491.68 684.3,-501.44 691.28,-501.89"/>
</a>
</g>
</g>
<!-- Node6 -->
<g id="Node000006" class="node">
<title>Node6</title>
<g id="a_Node000006"><a xlink:href="../../d5/d16/classArcane_1_1VariableIOReaderMng.html#a88c503526f6ba01d2bcab9402966e945" target="_top" xlink:title="Vérifie les valeurs des fonctions de hashage.">
<polygon fill="white" stroke="#666666" points="575,-939 432,-939 432,-909 575,-909 575,-939"/>
<text text-anchor="start" x="440" y="-927" font-family="Helvetica,sans-Serif" font-size="10.00">Arcane::VariableIOReader</text>
<text text-anchor="middle" x="503.5" y="-916" font-family="Helvetica,sans-Serif" font-size="10.00">Mng::_checkHashFunction</text>
</a>
</g>
</g>
<!-- Node1&#45;&gt;Node6 -->
<g id="edge6_Node000001_Node000006" class="edge">
<title>Node1&#45;&gt;Node6</title>
<g id="a_edge6_Node000001_Node000006"><a xlink:title=" ">
<path fill="none" stroke="#63b8ff" d="M687.3,-501.74C680.45,-576.56 652.53,-841.3 596,-900 590.19,-906.03 583.06,-910.61 575.38,-914.08"/>
<polygon fill="#63b8ff" stroke="#63b8ff" points="690.78,-502.05 688.18,-491.78 683.81,-501.43 690.78,-502.05"/>
</a>
</g>
</g>
<!-- Node7 -->
<g id="Node000007" class="node">
<title>Node7</title>
<g id="a_Node000007"><a xlink:href="../../d8/d38/classArcane_1_1Array2VariableT.html#a01abc5a3090cc1cb5137880c3e27c880" target="_top" xlink:title="Comparaison de valeurs entre variables.">
<polygon fill="white" stroke="#666666" points="570.5,-891 436.5,-891 436.5,-861 570.5,-861 570.5,-891"/>
<text text-anchor="start" x="444.5" y="-879" font-family="Helvetica,sans-Serif" font-size="10.00">Arcane::Array2VariableT</text>
<text text-anchor="middle" x="503.5" y="-868" font-family="Helvetica,sans-Serif" font-size="10.00">::_compareVariable</text>
</a>
</g>
</g>
<!-- Node1&#45;&gt;Node7 -->
<g id="edge7_Node000001_Node000007" class="edge">
<title>Node1&#45;&gt;Node7</title>
<g id="a_edge7_Node000001_Node000007"><a xlink:title=" ">
<path fill="none" stroke="#63b8ff" d="M686.69,-501.66C678.2,-570.75 646.54,-800.94 596,-852 588.95,-859.12 580.07,-864.21 570.62,-867.83"/>
<polygon fill="#63b8ff" stroke="#63b8ff" points="690.17,-502.03 687.9,-491.68 683.22,-501.19 690.17,-502.03"/>
</a>
</g>
</g>
<!-- Node8 -->
<g id="Node000008" class="node">
<title>Node8</title>
<g id="a_Node000008"><a xlink:href="../../d9/d83/classArcane_1_1VariableArrayT.html#aa9a69ad5dc3ad62424d19bf1f618c41e" target="_top" xlink:title="Comparaison de valeurs entre variables.">
<polygon fill="white" stroke="#666666" points="567.5,-843 439.5,-843 439.5,-813 567.5,-813 567.5,-843"/>
<text text-anchor="start" x="447.5" y="-831" font-family="Helvetica,sans-Serif" font-size="10.00">Arcane::VariableArrayT</text>
<text text-anchor="middle" x="503.5" y="-820" font-family="Helvetica,sans-Serif" font-size="10.00">::_compareVariable</text>
</a>
</g>
</g>
<!-- Node1&#45;&gt;Node8 -->
<g id="edge8_Node000001_Node000008" class="edge">
<title>Node1&#45;&gt;Node8</title>
<g id="a_edge8_Node000001_Node000008"><a xlink:title=" ">
<path fill="none" stroke="#63b8ff" d="M689.55,-501.89C689.96,-558 683.1,-719.02 596,-804 588.12,-811.68 578.1,-816.99 567.6,-820.64"/>
<polygon fill="#63b8ff" stroke="#63b8ff" points="693.04,-501.51 689.38,-491.57 686.04,-501.63 693.04,-501.51"/>
</a>
</g>
</g>
<!-- Node9 -->
<g id="Node000009" class="node">
<title>Node9</title>
<g id="a_Node000009"><a xlink:href="../../da/dbf/classArcane_1_1VariableScalarT.html#ac9a1ebf95df9a889461262967fe721df" target="_top" xlink:title="Comparaison de valeurs entre variables.">
<polygon fill="white" stroke="#666666" points="569.5,-795 437.5,-795 437.5,-765 569.5,-765 569.5,-795"/>
<text text-anchor="start" x="445.5" y="-783" font-family="Helvetica,sans-Serif" font-size="10.00">Arcane::VariableScalarT</text>
<text text-anchor="middle" x="503.5" y="-772" font-family="Helvetica,sans-Serif" font-size="10.00">::_compareVariable</text>
</a>
</g>
</g>
<!-- Node1&#45;&gt;Node9 -->
<g id="edge9_Node000001_Node000009" class="edge">
<title>Node1&#45;&gt;Node9</title>
<g id="a_edge9_Node000001_Node000009"><a xlink:title=" ">
<path fill="none" stroke="#63b8ff" d="M688.37,-501.91C685.66,-552.29 671.36,-685.79 596,-756 588.55,-762.94 579.34,-767.93 569.66,-771.5"/>
<polygon fill="#63b8ff" stroke="#63b8ff" points="691.88,-501.86 688.82,-491.72 684.88,-501.56 691.88,-501.86"/>
</a>
</g>
</g>
<!-- Node10 -->
<g id="Node000010" class="node">
<title>Node10</title>
<g id="a_Node000010"><a xlink:href="../../d9/d6b/classArcane_1_1TimeLoopMng.html#a638d66db51839007f992ac68c23d6853" target="_top" xlink:title="Crée un module à partir de son nom.">
<polygon fill="white" stroke="#666666" points="566,-747 441,-747 441,-717 566,-717 566,-747"/>
<text text-anchor="start" x="449" y="-735" font-family="Helvetica,sans-Serif" font-size="10.00">Arcane::TimeLoopMng</text>
<text text-anchor="middle" x="503.5" y="-724" font-family="Helvetica,sans-Serif" font-size="10.00">::_createModule</text>
</a>
</g>
</g>
<!-- Node1&#45;&gt;Node10 -->
<g id="edge10_Node000001_Node000010" class="edge">
<title>Node1&#45;&gt;Node10</title>
<g id="a_edge10_Node000001_Node000010"><a xlink:title=" ">
<path fill="none" stroke="#63b8ff" d="M686.73,-501.94C680.63,-546.03 659.76,-652.25 596,-708 587.59,-715.35 577.2,-720.49 566.46,-724.07"/>
<polygon fill="#63b8ff" stroke="#63b8ff" points="690.22,-502.28 688.01,-491.92 683.27,-501.4 690.22,-502.28"/>
</a>
</g>
</g>
<!-- Node12 -->
<g id="Node000012" class="node">
<title>Node12</title>
<g id="a_Node000012"><a xlink:href="../../d9/d06/classArcane_1_1ModuleMng.html#a2c90aba2ce1000db2d77b29bcafdc850" target="_top" xlink:title="Ajoute le module m au gestionnaire.">
<polygon fill="white" stroke="#666666" points="563,-699 444,-699 444,-669 563,-669 563,-699"/>
<text text-anchor="start" x="452" y="-687" font-family="Helvetica,sans-Serif" font-size="10.00">Arcane::ModuleMng::</text>
<text text-anchor="middle" x="503.5" y="-676" font-family="Helvetica,sans-Serif" font-size="10.00">addModule</text>
</a>
</g>
</g>
<!-- Node1&#45;&gt;Node12 -->
<g id="edge12_Node000001_Node000012" class="edge">
<title>Node1&#45;&gt;Node12</title>
<g id="a_edge12_Node000001_Node000012"><a xlink:title=" ">
<path fill="none" stroke="#63b8ff" d="M684.3,-501.92C674.52,-538.91 648.38,-618.25 596,-660 586.5,-667.57 574.84,-672.78 563.07,-676.34"/>
<polygon fill="#63b8ff" stroke="#63b8ff" points="687.78,-502.44 686.83,-491.88 680.99,-500.73 687.78,-502.44"/>
</a>
</g>
</g>
<!-- Node13 -->
<g id="Node000013" class="node">
<title>Node13</title>
<g id="a_Node000013"><a xlink:href="../../d6/dcb/classArcane_1_1MessagePassing_1_1HybridParallelSuperMng.html#a484009d447bba1f9e80923f047fb4c9d" target="_top" xlink:title="Construit les membres l&#39;instance.">
<polygon fill="white" stroke="#666666" points="573.5,-650.5 433.5,-650.5 433.5,-609.5 573.5,-609.5 573.5,-650.5"/>
<text text-anchor="start" x="441.5" y="-638.5" font-family="Helvetica,sans-Serif" font-size="10.00">Arcane::MessagePassing</text>
<text text-anchor="start" x="441.5" y="-627.5" font-family="Helvetica,sans-Serif" font-size="10.00">::HybridParallelSuperMng</text>
<text text-anchor="middle" x="503.5" y="-616.5" font-family="Helvetica,sans-Serif" font-size="10.00">::build</text>
</a>
</g>
</g>
<!-- Node1&#45;&gt;Node13 -->
<g id="edge13_Node000001_Node000013" class="edge">
<title>Node1&#45;&gt;Node13</title>
<g id="a_edge13_Node000001_Node000013"><a xlink:title=" ">
<path fill="none" stroke="#63b8ff" d="M679.24,-500.29C664.53,-526.16 634.29,-573.23 596,-600 589.15,-604.79 581.48,-608.85 573.58,-612.29"/>
<polygon fill="#63b8ff" stroke="#63b8ff" points="682.32,-501.95 684.1,-491.51 676.19,-498.56 682.32,-501.95"/>
</a>
</g>
</g>
<!-- Node14 -->
<g id="Node000014" class="node">
<title>Node14</title>
<g id="a_Node000014"><a xlink:href="../../dd/d32/classArcane_1_1MessagePassing_1_1SharedMemoryParallelSuperMng.html#a2160224d4c748d632f26999a105f88e5" target="_top" xlink:title="Construit les membres l&#39;instance.">
<polygon fill="white" stroke="#666666" points="594.5,-591.5 412.5,-591.5 412.5,-550.5 594.5,-550.5 594.5,-591.5"/>
<text text-anchor="start" x="420.5" y="-579.5" font-family="Helvetica,sans-Serif" font-size="10.00">Arcane::MessagePassing</text>
<text text-anchor="start" x="420.5" y="-568.5" font-family="Helvetica,sans-Serif" font-size="10.00">::SharedMemoryParallelSuperMng</text>
<text text-anchor="middle" x="503.5" y="-557.5" font-family="Helvetica,sans-Serif" font-size="10.00">::build</text>
</a>
</g>
</g>
<!-- Node1&#45;&gt;Node14 -->
<g id="edge14_Node000001_Node000014" class="edge">
<title>Node1&#45;&gt;Node14</title>
<g id="a_edge14_Node000001_Node000014"><a xlink:title=" ">
<path fill="none" stroke="#63b8ff" d="M667.85,-497.57C649.55,-510.51 622,-528.72 596,-541 588.89,-544.35 581.31,-547.49 573.67,-550.37"/>
<polygon fill="#63b8ff" stroke="#63b8ff" points="669.96,-500.36 676.05,-491.69 665.88,-494.68 669.96,-500.36"/>
</a>
</g>
</g>
<!-- Node16 -->
<g id="Node000016" class="node">
<title>Node16</title>
<g id="a_Node000016"><a xlink:href="../../dd/d91/classArcane_1_1MessagePassing_1_1HybridParallelMng.html#aa227c8dee3a4d5d88072b3bf4d15df0a" target="_top" xlink:title="Créé un nouveau gestionnaire de parallélisme pour un sous&#45;ensemble des rangs.">
<polygon fill="white" stroke="#666666" points="587,-532.5 420,-532.5 420,-491.5 587,-491.5 587,-532.5"/>
<text text-anchor="start" x="428" y="-520.5" font-family="Helvetica,sans-Serif" font-size="10.00">Arcane::MessagePassing</text>
<text text-anchor="start" x="428" y="-509.5" font-family="Helvetica,sans-Serif" font-size="10.00">::HybridParallelMng::createSub</text>
<text text-anchor="middle" x="503.5" y="-498.5" font-family="Helvetica,sans-Serif" font-size="10.00">ParallelMngRef</text>
</a>
</g>
</g>
<!-- Node1&#45;&gt;Node16 -->
<g id="edge16_Node000001_Node000016" class="edge">
<title>Node1&#45;&gt;Node16</title>
<g id="a_edge16_Node000001_Node000016"><a xlink:title=" ">
<path fill="none" stroke="#63b8ff" d="M621.72,-492.94C610.47,-494.77 598.67,-496.69 587.09,-498.57"/>
<polygon fill="#63b8ff" stroke="#63b8ff" points="622.58,-496.35 631.89,-491.29 621.45,-489.44 622.58,-496.35"/>
</a>
</g>
</g>
<!-- Node17 -->
<g id="Node000017" class="node">
<title>Node17</title>
<g id="a_Node000017"><a xlink:href="../../d7/dbc/classArcane_1_1MessagePassing_1_1SharedMemoryParallelMng.html#adc4a84449cfd765627d86fd96f47033c" target="_top" xlink:title="Créé un nouveau gestionnaire de parallélisme pour un sous&#45;ensemble des rangs.">
<polygon fill="white" stroke="#666666" points="580.5,-473.5 426.5,-473.5 426.5,-432.5 580.5,-432.5 580.5,-473.5"/>
<text text-anchor="start" x="434.5" y="-461.5" font-family="Helvetica,sans-Serif" font-size="10.00">Arcane::MessagePassing</text>
<text text-anchor="start" x="434.5" y="-450.5" font-family="Helvetica,sans-Serif" font-size="10.00">::SharedMemoryParallelMng</text>
<text text-anchor="middle" x="503.5" y="-439.5" font-family="Helvetica,sans-Serif" font-size="10.00">::createSubParallelMngRef</text>
</a>
</g>
</g>
<!-- Node1&#45;&gt;Node17 -->
<g id="edge17_Node000001_Node000017" class="edge">
<title>Node1&#45;&gt;Node17</title>
<g id="a_edge17_Node000001_Node000017"><a xlink:title=" ">
<path fill="none" stroke="#63b8ff" d="M621.83,-471.44C608.46,-469.34 594.33,-467.12 580.68,-464.97"/>
<polygon fill="#63b8ff" stroke="#63b8ff" points="621.46,-474.93 631.89,-473.02 622.55,-468.01 621.46,-474.93"/>
</a>
</g>
</g>
<!-- Node18 -->
<g id="Node000018" class="node">
<title>Node18</title>
<g id="a_Node000018"><a xlink:href="../../d9/d1b/classArcane_1_1ArcaneBasicVerifierService.html#a7d9107bfe551ef8c232f19c988f061f9" target="_top" xlink:title="Effectue la vérification à partir du fichier référence.">
<polygon fill="white" stroke="#666666" points="596,-414 411,-414 411,-384 596,-384 596,-414"/>
<text text-anchor="start" x="419" y="-402" font-family="Helvetica,sans-Serif" font-size="10.00">Arcane::ArcaneBasicVerifier</text>
<text text-anchor="middle" x="503.5" y="-391" font-family="Helvetica,sans-Serif" font-size="10.00">Service::doVerifFromReferenceFile</text>
</a>
</g>
</g>
<!-- Node1&#45;&gt;Node18 -->
<g id="edge18_Node000001_Node000018" class="edge">
<title>Node1&#45;&gt;Node18</title>
<g id="a_edge18_Node000001_Node000018"><a xlink:title=" ">
<path fill="none" stroke="#63b8ff" d="M668.66,-466.48C650.47,-453.26 622.66,-434.62 596,-423 588.32,-419.65 580.07,-416.69 571.78,-414.09"/>
<polygon fill="#63b8ff" stroke="#63b8ff" points="666.64,-469.34 676.76,-472.47 670.8,-463.71 666.64,-469.34"/>
</a>
</g>
</g>
<!-- Node19 -->
<g id="Node000019" class="node">
<title>Node19</title>
<g id="a_Node000019"><a xlink:href="../../d6/d2a/classArcane_1_1Application.html#adc8c8a861daa11334df44ae8fad1dcc9" target="_top" xlink:title="Retourne le chargeur de cas correspondant au fichier donné par file_name.">
<polygon fill="white" stroke="#666666" points="559,-366 448,-366 448,-336 559,-336 559,-366"/>
<text text-anchor="start" x="456" y="-354" font-family="Helvetica,sans-Serif" font-size="10.00">Arcane::Application</text>
<text text-anchor="middle" x="503.5" y="-343" font-family="Helvetica,sans-Serif" font-size="10.00">::getCodeService</text>
</a>
</g>
</g>
<!-- Node1&#45;&gt;Node19 -->
<g id="edge19_Node000001_Node000019" class="edge">
<title>Node1&#45;&gt;Node19</title>
<g id="a_edge19_Node000001_Node000019"><a xlink:title=" ">
<path fill="none" stroke="#63b8ff" d="M678.13,-463.75C662.84,-439.71 632.73,-397.82 596,-375 584.98,-368.15 572.05,-363.25 559.43,-359.74"/>
<polygon fill="#63b8ff" stroke="#63b8ff" points="675.17,-465.63 683.41,-472.29 681.13,-461.95 675.17,-465.63"/>
</a>
</g>
</g>
<!-- Node20 -->
<g id="Node000020" class="node">
<title>Node20</title>
<g id="a_Node000020"><a xlink:href="../../dc/dbd/classArcane_1_1Internal_1_1ServiceFinderBase2T.html#a6a823886fb1fd63b31d426d3c5701c4b" target="_top" xlink:title="Instance singleton du service ayant pour interface InterfaceType.">
<polygon fill="white" stroke="#666666" points="578,-318 429,-318 429,-288 578,-288 578,-318"/>
<text text-anchor="start" x="437" y="-306" font-family="Helvetica,sans-Serif" font-size="10.00">Arcane::Internal::Service</text>
<text text-anchor="middle" x="503.5" y="-295" font-family="Helvetica,sans-Serif" font-size="10.00">FinderBase2T::getSingleton</text>
</a>
</g>
</g>
<!-- Node1&#45;&gt;Node20 -->
<g id="edge20_Node000001_Node000020" class="edge">
<title>Node1&#45;&gt;Node20</title>
<g id="a_edge20_Node000001_Node000020"><a xlink:title=" ">
<path fill="none" stroke="#63b8ff" d="M682.75,-462.37C671.16,-429.24 643.14,-362.35 596,-327 590.61,-322.96 584.6,-319.6 578.31,-316.8"/>
<polygon fill="#63b8ff" stroke="#63b8ff" points="679.56,-463.86 686.05,-472.22 686.19,-461.63 679.56,-463.86"/>
</a>
</g>
</g>
<!-- Node21 -->
<g id="Node000021" class="node">
<title>Node21</title>
<g id="a_Node000021"><a xlink:href="../../d7/d59/classArcane_1_1ServiceLoader.html#aa6259c427f0744cef7e0b7df12496ab4" target="_top" xlink:title="Charge les modules disponibles.">
<polygon fill="white" stroke="#666666" points="566,-270 441,-270 441,-240 566,-240 566,-270"/>
<text text-anchor="start" x="449" y="-258" font-family="Helvetica,sans-Serif" font-size="10.00">Arcane::ServiceLoader</text>
<text text-anchor="middle" x="503.5" y="-247" font-family="Helvetica,sans-Serif" font-size="10.00">::loadModules</text>
</a>
</g>
</g>
<!-- Node1&#45;&gt;Node21 -->
<g id="edge21_Node000001_Node000021" class="edge">
<title>Node1&#45;&gt;Node21</title>
<g id="a_edge21_Node000001_Node000021"><a xlink:title=" ">
<path fill="none" stroke="#63b8ff" d="M685.72,-462.16C677.91,-421.41 654.32,-328.01 596,-279 587.45,-271.82 576.99,-266.75 566.23,-263.2"/>
<polygon fill="#63b8ff" stroke="#63b8ff" points="682.3,-462.95 687.52,-472.17 689.19,-461.71 682.3,-462.95"/>
</a>
</g>
</g>
<!-- Node22 -->
<g id="Node000022" class="node">
<title>Node22</title>
<g id="a_Node000022"><a xlink:href="../../d7/d59/classArcane_1_1ServiceLoader.html#a5fda70583ca0f6fe9fd43618c4dbda40" target="_top" xlink:title="Charge le service singleton de sous&#45;domaine de nom name.">
<polygon fill="white" stroke="#666666" points="566,-222 441,-222 441,-192 566,-192 566,-222"/>
<text text-anchor="start" x="449" y="-210" font-family="Helvetica,sans-Serif" font-size="10.00">Arcane::ServiceLoader</text>
<text text-anchor="middle" x="503.5" y="-199" font-family="Helvetica,sans-Serif" font-size="10.00">::loadSingletonService</text>
</a>
</g>
</g>
<!-- Node1&#45;&gt;Node22 -->
<g id="edge22_Node000001_Node000022" class="edge">
<title>Node1&#45;&gt;Node22</title>
<g id="a_edge22_Node000001_Node000022"><a xlink:title=" ">
<path fill="none" stroke="#63b8ff" d="M687.67,-462.17C683.38,-414.8 665.83,-294.28 596,-231 587.6,-223.39 577.09,-218.14 566.2,-214.53"/>
<polygon fill="#63b8ff" stroke="#63b8ff" points="684.19,-462.64 688.48,-472.32 691.17,-462.08 684.19,-462.64"/>
</a>
</g>
</g>
<!-- Node23 -->
<g id="Node000023" class="node">
<title>Node23</title>
<g id="a_Node000023"><a xlink:href="../../d8/d55/classArcane_1_1impl_1_1BasicReader.html#aa26c314b41b16e9c55715ca365026593" target="_top" xlink:title="Lit les données data de la variable var.">
<polygon fill="white" stroke="#666666" points="576,-174 431,-174 431,-144 576,-144 576,-174"/>
<text text-anchor="start" x="439" y="-162" font-family="Helvetica,sans-Serif" font-size="10.00">Arcane::impl::BasicReader</text>
<text text-anchor="middle" x="503.5" y="-151" font-family="Helvetica,sans-Serif" font-size="10.00">::read</text>
</a>
</g>
</g>
<!-- Node1&#45;&gt;Node23 -->
<g id="edge23_Node000001_Node000023" class="edge">
<title>Node1&#45;&gt;Node23</title>
<g id="a_edge23_Node000001_Node000023"><a xlink:title=" ">
<path fill="none" stroke="#63b8ff" d="M689.03,-462.1C687.97,-408.67 677.46,-260.87 596,-183 590.3,-177.55 583.52,-173.3 576.27,-170"/>
<polygon fill="#63b8ff" stroke="#63b8ff" points="685.53,-462.31 689.13,-472.27 692.53,-462.24 685.53,-462.31"/>
</a>
</g>
</g>
<!-- Node24 -->
<g id="Node000024" class="node">
<title>Node24</title>
<g id="a_Node000024"><a xlink:href="../../d4/d20/classArcane_1_1MemoryDataReaderWriter.html#a69b9c3b2e747811763b48d37ecc6db28" target="_top" xlink:title="Lit les données data de la variable var.">
<polygon fill="white" stroke="#666666" points="581,-126 426,-126 426,-96 581,-96 581,-126"/>
<text text-anchor="start" x="434" y="-114" font-family="Helvetica,sans-Serif" font-size="10.00">Arcane::MemoryDataReader</text>
<text text-anchor="middle" x="503.5" y="-103" font-family="Helvetica,sans-Serif" font-size="10.00">Writer::read</text>
</a>
</g>
</g>
<!-- Node1&#45;&gt;Node24 -->
<g id="edge24_Node000001_Node000024" class="edge">
<title>Node1&#45;&gt;Node24</title>
<g id="a_edge24_Node000001_Node000024"><a xlink:title=" ">
<path fill="none" stroke="#63b8ff" d="M686.34,-462.28C676.99,-395.95 643.65,-182.4 596,-135 591.69,-130.71 586.72,-127.17 581.36,-124.23"/>
<polygon fill="#63b8ff" stroke="#63b8ff" points="682.88,-462.83 687.71,-472.25 689.81,-461.87 682.88,-462.83"/>
</a>
</g>
</g>
<!-- Node25 -->
<g id="Node000025" class="node">
<title>Node25</title>
<g id="a_Node000025"><a xlink:href="../../d9/d06/classArcane_1_1ModuleMng.html#a9886c637147e469b9789099c91d3fb85" target="_top" xlink:title="Supprime le module m.">
<polygon fill="white" stroke="#666666" points="563,-78 444,-78 444,-48 563,-48 563,-78"/>
<text text-anchor="start" x="452" y="-66" font-family="Helvetica,sans-Serif" font-size="10.00">Arcane::ModuleMng::</text>
<text text-anchor="middle" x="503.5" y="-55" font-family="Helvetica,sans-Serif" font-size="10.00">removeModule</text>
</a>
</g>
</g>
<!-- Node1&#45;&gt;Node25 -->
<g id="edge25_Node000001_Node000025" class="edge">
<title>Node1&#45;&gt;Node25</title>
<g id="a_edge25_Node000001_Node000025"><a xlink:title=" ">
<path fill="none" stroke="#63b8ff" d="M687.04,-462.43C679.44,-390.49 649.69,-142.06 596,-87 587.17,-77.95 575.38,-72.17 563.2,-68.51"/>
<polygon fill="#63b8ff" stroke="#63b8ff" points="683.56,-462.81 688.07,-472.4 690.52,-462.09 683.56,-462.81"/>
</a>
</g>
</g>
<!-- Node26 -->
<g id="Node000026" class="node">
<title>Node26</title>
<g id="a_Node000026"><a xlink:href="../../d4/d20/classArcane_1_1MemoryDataReaderWriter.html#ae6c6be23bf4aaf55ffdea33ddc50a7e0" target="_top" xlink:title="Ecrit les données data de la variable var.">
<polygon fill="white" stroke="#666666" points="581,-30 426,-30 426,0 581,0 581,-30"/>
<text text-anchor="start" x="434" y="-18" font-family="Helvetica,sans-Serif" font-size="10.00">Arcane::MemoryDataReader</text>
<text text-anchor="middle" x="503.5" y="-7" font-family="Helvetica,sans-Serif" font-size="10.00">Writer::write</text>
</a>
</g>
</g>
<!-- Node1&#45;&gt;Node26 -->
<g id="edge26_Node000001_Node000026" class="edge">
<title>Node1&#45;&gt;Node26</title>
<g id="a_edge26_Node000001_Node000026"><a xlink:title=" ">
<path fill="none" stroke="#63b8ff" d="M687.55,-462.11C681.49,-384.28 655.64,-101.68 596,-39 591.7,-34.48 586.66,-30.77 581.19,-27.74"/>
<polygon fill="#63b8ff" stroke="#63b8ff" points="684.09,-462.71 688.33,-472.41 691.07,-462.18 684.09,-462.71"/>
</a>
</g>
</g>
<!-- Node3 -->
<g id="Node000003" class="node">
<title>Node3</title>
<g id="a_Node000003"><a xlink:href="../../da/d3b/classArcane_1_1MetisWrapper.html#a4e6d4a1490b56dc028c96678a6ec57c5" target="_top" xlink:title="Simple wrapper autour de la routine ParMetis &quot;ParMETIS_V3_AdaptiveRepart&quot;.">
<polygon fill="white" stroke="#666666" points="348,-1011 223,-1011 223,-981 348,-981 348,-1011"/>
<text text-anchor="start" x="231" y="-999" font-family="Helvetica,sans-Serif" font-size="10.00">Arcane::MetisWrapper</text>
<text text-anchor="middle" x="285.5" y="-988" font-family="Helvetica,sans-Serif" font-size="10.00">::callAdaptiveRepart</text>
</a>
</g>
</g>
<!-- Node2&#45;&gt;Node3 -->
<g id="edge2_Node000002_Node000003" class="edge">
<title>Node2&#45;&gt;Node3</title>
<g id="a_edge2_Node000002_Node000003"><a xlink:title=" ">
<path fill="none" stroke="#63b8ff" d="M416.86,-981.52C393.88,-984.07 369.48,-986.78 348.09,-989.16"/>
<polygon fill="#63b8ff" stroke="#63b8ff" points="417.4,-984.98 426.95,-980.39 416.63,-978.02 417.4,-984.98"/>
</a>
</g>
</g>
<!-- Node5 -->
<g id="Node000005" class="node">
<title>Node5</title>
<g id="a_Node000005"><a xlink:href="../../da/d3b/classArcane_1_1MetisWrapper.html#a4b515ebb011de9933a1633ed68bbe640" target="_top" xlink:title="Simple wrapper autour de la routine ParMetis &quot;ParMETIS_V3_PartKway&quot;.">
<polygon fill="white" stroke="#666666" points="348,-963 223,-963 223,-933 348,-933 348,-963"/>
<text text-anchor="start" x="231" y="-951" font-family="Helvetica,sans-Serif" font-size="10.00">Arcane::MetisWrapper</text>
<text text-anchor="middle" x="285.5" y="-940" font-family="Helvetica,sans-Serif" font-size="10.00">::callPartKway</text>
</a>
</g>
</g>
<!-- Node2&#45;&gt;Node5 -->
<g id="edge4_Node000002_Node000005" class="edge">
<title>Node2&#45;&gt;Node5</title>
<g id="a_edge4_Node000002_Node000005"><a xlink:title=" ">
<path fill="none" stroke="#63b8ff" d="M416.86,-962.48C393.88,-959.93 369.48,-957.22 348.09,-954.84"/>
<polygon fill="#63b8ff" stroke="#63b8ff" points="416.63,-965.98 426.95,-963.61 417.4,-959.02 416.63,-965.98"/>
</a>
</g>
</g>
<!-- Node4 -->
<g id="Node000004" class="node">
<title>Node4</title>
<g id="a_Node000004"><a xlink:href="../../d7/d2b/classArcane_1_1MetisMeshPartitioner.html#a767cafcf1a7031f78dfc57c795881da5" target="_top" xlink:title=" ">
<polygon fill="white" stroke="#666666" points="160,-987 0,-987 0,-957 160,-957 160,-987"/>
<text text-anchor="start" x="8" y="-975" font-family="Helvetica,sans-Serif" font-size="10.00">Arcane::MetisMeshPartitioner</text>
<text text-anchor="middle" x="80" y="-964" font-family="Helvetica,sans-Serif" font-size="10.00">::_partitionMesh</text>
</a>
</g>
</g>
<!-- Node3&#45;&gt;Node4 -->
<g id="edge3_Node000003_Node000004" class="edge">
<title>Node3&#45;&gt;Node4</title>
<g id="a_edge3_Node000003_Node000004"><a xlink:title=" ">
<path fill="none" stroke="#63b8ff" d="M212.5,-987.51C195.54,-985.51 177.36,-983.36 160.1,-981.33"/>
<polygon fill="#63b8ff" stroke="#63b8ff" points="212.55,-991.04 222.89,-988.73 213.37,-984.09 212.55,-991.04"/>
</a>
</g>
</g>
<!-- Node5&#45;&gt;Node4 -->
<g id="edge5_Node000005_Node000004" class="edge">
<title>Node5&#45;&gt;Node4</title>
<g id="a_edge5_Node000005_Node000004"><a xlink:title=" ">
<path fill="none" stroke="#63b8ff" d="M212.5,-956.49C195.54,-958.49 177.36,-960.64 160.1,-962.67"/>
<polygon fill="#63b8ff" stroke="#63b8ff" points="213.37,-959.91 222.89,-955.27 212.55,-952.96 213.37,-959.91"/>
</a>
</g>
</g>
<!-- Node11 -->
<g id="Node000011" class="node">
<title>Node11</title>
<g id="a_Node000011"><a xlink:href="../../d9/d6b/classArcane_1_1TimeLoopMng.html#ae5ce3fb07fb1aa70034e5d6b52df9427" target="_top" xlink:title="Positionne la boucle en temps à exécuter. Sélectionne la boucle en temps de nom name comme celle qui ...">
<polygon fill="white" stroke="#666666" points="348,-747 223,-747 223,-717 348,-717 348,-747"/>
<text text-anchor="start" x="231" y="-735" font-family="Helvetica,sans-Serif" font-size="10.00">Arcane::TimeLoopMng</text>
<text text-anchor="middle" x="285.5" y="-724" font-family="Helvetica,sans-Serif" font-size="10.00">::setUsedTimeLoop</text>
</a>
</g>
</g>
<!-- Node10&#45;&gt;Node11 -->
<g id="edge11_Node000010_Node000011" class="edge">
<title>Node10&#45;&gt;Node11</title>
<g id="a_edge11_Node000010_Node000011"><a xlink:title=" ">
<path fill="none" stroke="#63b8ff" d="M430.82,-732C404.07,-732 373.96,-732 348.19,-732"/>
<polygon fill="#63b8ff" stroke="#63b8ff" points="430.89,-735.5 440.89,-732 430.89,-728.5 430.89,-735.5"/>
</a>
</g>
</g>
<!-- Node15 -->
<g id="Node000015" class="node">
<title>Node15</title>
<g id="a_Node000015"><a xlink:href="../../d6/d94/classArcane_1_1MessagePassing_1_1MpiSharedMemoryParallelSuperMng.html#a12449ed960688aae8972589603566f06" target="_top" xlink:title="Construit les membres l&#39;instance.">
<polygon fill="white" stroke="#666666" points="375,-591.5 196,-591.5 196,-550.5 375,-550.5 375,-591.5"/>
<text text-anchor="start" x="204" y="-579.5" font-family="Helvetica,sans-Serif" font-size="10.00">Arcane::MessagePassing</text>
<text text-anchor="start" x="204" y="-568.5" font-family="Helvetica,sans-Serif" font-size="10.00">::MpiSharedMemoryParallelSuper</text>
<text text-anchor="middle" x="285.5" y="-557.5" font-family="Helvetica,sans-Serif" font-size="10.00">Mng::build</text>
</a>
</g>
</g>
<!-- Node14&#45;&gt;Node15 -->
<g id="edge15_Node000014_Node000015" class="edge">
<title>Node14&#45;&gt;Node15</title>
<g id="a_edge15_Node000014_Node000015"><a xlink:title=" ">
<path fill="none" stroke="#63b8ff" d="M402.24,-571C393.15,-571 383.99,-571 375.01,-571"/>
<polygon fill="#63b8ff" stroke="#63b8ff" points="402.46,-574.5 412.46,-571 402.46,-567.5 402.46,-574.5"/>
</a>
</g>
</g>
</g>
</svg>

<g id="navigator" transform="translate(0 0)" fill="#404254">
  <rect fill="#f2f5e9" fill-opacity="0.5" stroke="#606060" stroke-width=".5" x="0" y="0" width="60" height="60"/>
  <use id="zoomplus" xlink:href="#zoomPlus" x="17" y="9" onmousedown="handleZoom(evt,'in')"/>
  <use id="zoomminus" xlink:href="#zoomMin" x="42" y="9" onmousedown="handleZoom(evt,'out')"/>
  <use id="reset" xlink:href="#resetDef" x="30" y="36" onmousedown="handleReset()"/>
   <use id="arrowup" xlink:href="#arrowUp" x="0" y="0" onmousedown="handlePan(0,-1)"/>
  <use id="arrowright" xlink:href="#arrowRight" x="0" y="0" onmousedown="handlePan(1,0)"/>
  <use id="arrowdown" xlink:href="#arrowDown" x="0" y="0" onmousedown="handlePan(0,1)"/>
  <use id="arrowleft" xlink:href="#arrowLeft" x="0" y="0" onmousedown="handlePan(-1,0)"/>
</g>
<svg viewBox="0 0 15 15" width="100%" height="30px" preserveAspectRatio="xMaxYMin meet">
 <g id="arrow_out" transform="scale(0.3 0.3)">
  <a xlink:href="classArcane_1_1RefImpl_a86ca11f206233a7f3367305e368ea943_icgraph_org.svg" target="_base">
   <rect id="button" ry="5" rx="5" y="6" x="6" height="38" width="38"
        fill="#f2f5e9" fill-opacity="0.5" stroke="#606060" stroke-width="1.0"/>
   <path id="arrow"
     d="M 11.500037,31.436501 C 11.940474,20.09759 22.043105,11.32322 32.158766,21.979434 L 37.068811,17.246167 C 37.068811,17.246167 37.088388,32 37.088388,32 L 22.160133,31.978069 C 22.160133,31.978069 26.997745,27.140456 26.997745,27.140456 C 18.528582,18.264221 13.291696,25.230495 11.500037,31.436501 z"
     style="fill:#404040;"/>
  </a>
 </g>
</svg>

<style type='text/css'>
<![CDATA[
[data-mouse-over-selected='false'] { opacity: 0.7; }
[data-mouse-over-selected='true']  { opacity: 1.0; }
]]>
</style>
<script type="application/ecmascript"><![CDATA[
document.addEventListener('DOMContentLoaded', (event) => {
  highlightEdges();
  highlightAdjacentNodes();
});
]]></script>
</svg>
