<?xml version="1.0" encoding="UTF-8" standalone="no"?>
<!DOCTYPE svg PUBLIC "-//W3C//DTD SVG 1.1//EN"
 "http://www.w3.org/Graphics/SVG/1.1/DTD/svg11.dtd">
<!-- Generated by graphviz version 2.43.0 (0)
 -->
<!-- Title: Arcane::properties::JSONPropertyReader&lt; T &gt; Pages: 1 -->
<svg width="270pt" height="455pt"
 viewBox="0.00 0.00 269.50 455.00" xmlns="http://www.w3.org/2000/svg" xmlns:xlink="http://www.w3.org/1999/xlink">
<g id="graph0" class="graph" transform="scale(1 1) rotate(0) translate(4 451)">
<title>Arcane::properties::JSONPropertyReader&lt; T &gt;</title>
<!-- Node1 -->
<g id="Node000001" class="node">
<title>Node1</title>
<g id="a_Node000001"><a xlink:title=" ">
<polygon fill="#999999" stroke="transparent" points="147.5,-75 2.5,-75 2.5,0 147.5,0 147.5,-75"/>
<text text-anchor="start" x="8" y="-62.5" font-family="Helvetica,sans-Serif" font-size="10.00">Arcane::properties</text>
<text text-anchor="start" x="8" y="-51.5" font-family="Helvetica,sans-Serif" font-size="10.00">::JSONPropertyReader&lt; T &gt;</text>
<text text-anchor="start" x="13.5" y="-36.5" font-family="Helvetica,sans-Serif" font-size="10.00">&#45;</text>
<text text-anchor="start" x="28" y="-36.5" font-family="Helvetica,sans-Serif" font-size="10.00">m_instance</text>
<text text-anchor="start" x="11" y="-21.5" font-family="Helvetica,sans-Serif" font-size="10.00">+</text>
<text text-anchor="start" x="28" y="-21.5" font-family="Helvetica,sans-Serif" font-size="10.00">JSONPropertyReader()</text>
<text text-anchor="start" x="11" y="-6.5" font-family="Helvetica,sans-Serif" font-size="10.00">+</text>
<text text-anchor="start" x="28" y="-6.5" font-family="Helvetica,sans-Serif" font-size="10.00">visit()</text>
<polygon fill="#666666" stroke="#666666" points="3,-46.5 3,-46.5 148,-46.5 148,-46.5 3,-46.5"/>
<polygon fill="#666666" stroke="#666666" points="3,-31.5 3,-31.5 26,-31.5 26,-31.5 3,-31.5"/>
<polygon fill="#666666" stroke="#666666" points="26,-31.5 26,-31.5 148,-31.5 148,-31.5 26,-31.5"/>
<polygon fill="none" stroke="#666666" points="2.5,0 2.5,-75 147.5,-75 147.5,0 2.5,0"/>
</a>
</g>
</g>
<!-- Node2 -->
<g id="Node000002" class="node">
<title>Node2</title>
<g id="a_Node000002"><a xlink:href="../../df/d7d/classArcane_1_1properties_1_1PropertyVisitor.html" target="_top" xlink:title="Classe de base d&#39;un visiteur typé sur une propriété.">
<polygon fill="white" stroke="transparent" points="118,-274 0,-274 0,-199 118,-199 118,-274"/>
<text text-anchor="start" x="5" y="-261.5" font-family="Helvetica,sans-Serif" font-size="10.00">Arcane::properties</text>
<text text-anchor="start" x="5" y="-250.5" font-family="Helvetica,sans-Serif" font-size="10.00">::PropertyVisitor&lt; T &gt;</text>
<text text-anchor="start" x="57" y="-235.5" font-family="Helvetica,sans-Serif" font-size="10.00"> </text>
<text text-anchor="start" x="17.5" y="-220.5" font-family="Helvetica,sans-Serif" font-size="10.00">+</text>
<text text-anchor="start" x="44" y="-220.5" font-family="Helvetica,sans-Serif" font-size="10.00">visit()</text>
<text text-anchor="start" x="17.5" y="-205.5" font-family="Helvetica,sans-Serif" font-size="10.00">+</text>
<text text-anchor="start" x="44" y="-205.5" font-family="Helvetica,sans-Serif" font-size="10.00">builder()</text>
<polygon fill="#666666" stroke="#666666" points="0,-245.5 0,-245.5 118,-245.5 118,-245.5 0,-245.5"/>
<polygon fill="#666666" stroke="#666666" points="0,-230.5 0,-230.5 118,-230.5 118,-230.5 0,-230.5"/>
<polygon fill="none" stroke="#666666" points="0,-199 0,-274 118,-274 118,-199 0,-199"/>
</a>
</g>
</g>
<!-- Node2&#45;&gt;Node1 -->
<g id="edge1_Node000001_Node000002" class="edge">
<title>Node2&#45;&gt;Node1</title>
<g id="a_edge1_Node000001_Node000002"><a xlink:title=" ">
<path fill="none" stroke="#63b8ff" d="M62.81,-188.55C65.63,-153.84 69.42,-107.24 72.02,-75.23"/>
<polygon fill="none" stroke="#63b8ff" points="59.29,-188.66 61.97,-198.91 66.27,-189.22 59.29,-188.66"/>
</a>
</g>
</g>
<!-- Node3 -->
<g id="Node000003" class="node">
<title>Node3</title>
<g id="a_Node000003"><a xlink:href="../../de/da3/classArcane_1_1JSONValue.html" target="_top" xlink:title="Représente une valeur JSON.">
<polygon fill="white" stroke="transparent" points="257.5,-351 136.5,-351 136.5,-122 257.5,-122 257.5,-351"/>
<text text-anchor="start" x="152" y="-338.5" font-family="Helvetica,sans-Serif" font-size="10.00">Arcane::JSONValue</text>
<text text-anchor="start" x="143.5" y="-323.5" font-family="Helvetica,sans-Serif" font-size="10.00">&#45;</text>
<text text-anchor="start" x="154" y="-323.5" font-family="Helvetica,sans-Serif" font-size="10.00">JSONWrapperUtils</text>
<text text-anchor="start" x="143.5" y="-308.5" font-family="Helvetica,sans-Serif" font-size="10.00">&#45;</text>
<text text-anchor="start" x="154" y="-308.5" font-family="Helvetica,sans-Serif" font-size="10.00">JSONKeyValue</text>
<text text-anchor="start" x="141" y="-293.5" font-family="Helvetica,sans-Serif" font-size="10.00">+</text>
<text text-anchor="start" x="154" y="-293.5" font-family="Helvetica,sans-Serif" font-size="10.00">JSONValue()</text>
<text text-anchor="start" x="141" y="-278.5" font-family="Helvetica,sans-Serif" font-size="10.00">+</text>
<text text-anchor="start" x="154" y="-278.5" font-family="Helvetica,sans-Serif" font-size="10.00">null()</text>
<text text-anchor="start" x="141" y="-263.5" font-family="Helvetica,sans-Serif" font-size="10.00">+</text>
<text text-anchor="start" x="154" y="-263.5" font-family="Helvetica,sans-Serif" font-size="10.00">operator!()</text>
<text text-anchor="start" x="141" y="-248.5" font-family="Helvetica,sans-Serif" font-size="10.00">+</text>
<text text-anchor="start" x="154" y="-248.5" font-family="Helvetica,sans-Serif" font-size="10.00">valueAsString()</text>
<text text-anchor="start" x="141" y="-233.5" font-family="Helvetica,sans-Serif" font-size="10.00">+</text>
<text text-anchor="start" x="154" y="-233.5" font-family="Helvetica,sans-Serif" font-size="10.00">value()</text>
<text text-anchor="start" x="141" y="-218.5" font-family="Helvetica,sans-Serif" font-size="10.00">+</text>
<text text-anchor="start" x="154" y="-218.5" font-family="Helvetica,sans-Serif" font-size="10.00">valueAsStringView()</text>
<text text-anchor="start" x="141" y="-203.5" font-family="Helvetica,sans-Serif" font-size="10.00">+</text>
<text text-anchor="start" x="154" y="-203.5" font-family="Helvetica,sans-Serif" font-size="10.00">valueAsReal()</text>
<text text-anchor="start" x="141" y="-188.5" font-family="Helvetica,sans-Serif" font-size="10.00">+</text>
<text text-anchor="start" x="154" y="-188.5" font-family="Helvetica,sans-Serif" font-size="10.00">valueAsInt64()</text>
<text text-anchor="start" x="141" y="-173.5" font-family="Helvetica,sans-Serif" font-size="10.00">+</text>
<text text-anchor="start" x="154" y="-173.5" font-family="Helvetica,sans-Serif" font-size="10.00">valueAsInt32()</text>
<text text-anchor="start" x="141" y="-158.5" font-family="Helvetica,sans-Serif" font-size="10.00">+</text>
<text text-anchor="start" x="154" y="-158.5" font-family="Helvetica,sans-Serif" font-size="10.00">valueAsBool()</text>
<text text-anchor="start" x="154" y="-143.5" font-family="Helvetica,sans-Serif" font-size="10.00">et 8 de plus...</text>
<text text-anchor="start" x="143.5" y="-128.5" font-family="Helvetica,sans-Serif" font-size="10.00">&#45;</text>
<text text-anchor="start" x="154" y="-128.5" font-family="Helvetica,sans-Serif" font-size="10.00">JSONValue()</text>
<polygon fill="#666666" stroke="#666666" points="137,-333.5 137,-333.5 258,-333.5 258,-333.5 137,-333.5"/>
<polygon fill="#666666" stroke="#666666" points="137,-303.5 137,-303.5 152,-303.5 152,-303.5 137,-303.5"/>
<polygon fill="#666666" stroke="#666666" points="152,-303.5 152,-303.5 258,-303.5 258,-303.5 152,-303.5"/>
<polygon fill="none" stroke="#666666" points="136.5,-122 136.5,-351 257.5,-351 257.5,-122 136.5,-122"/>
</a>
</g>
</g>
<!-- Node3&#45;&gt;Node1 -->
<g id="edge2_Node000001_Node000003" class="edge">
<title>Node3&#45;&gt;Node1</title>
<g id="a_edge2_Node000001_Node000003"><a xlink:title=" ">
<path fill="none" stroke="#63b8ff" d="M136.32,-137.05C133.17,-131.96 130.05,-126.92 127,-122 119.62,-110.1 111.64,-97.26 104.19,-85.3"/>
<polygon fill="none" stroke="#63b8ff" points="104.16,-85.24 97.59,-82.27 97.82,-75.06 104.38,-78.04 104.16,-85.24"/>
</a>
</g>
<text text-anchor="middle" x="130.5" y="-96" font-family="Helvetica,sans-Serif" font-size="10.00" fill="grey"> &#45;m_jv</text>
</g>
<!-- Node4 -->
<g id="Node000004" class="node">
<title>Node4</title>
<g id="a_Node000004"><a xlink:href="../../d3/db6/classArcane_1_1JSONValue_1_1Impl.html" target="_top" xlink:title=" ">
<polygon fill="white" stroke="transparent" points="261.5,-447 132.5,-447 132.5,-398 261.5,-398 261.5,-447"/>
<text text-anchor="start" x="138" y="-434.5" font-family="Helvetica,sans-Serif" font-size="10.00">Arcane::JSONValue::Impl</text>
<text text-anchor="start" x="195.5" y="-419.5" font-family="Helvetica,sans-Serif" font-size="10.00"> </text>
<text text-anchor="start" x="152.5" y="-404.5" font-family="Helvetica,sans-Serif" font-size="10.00">+</text>
<text text-anchor="start" x="181" y="-404.5" font-family="Helvetica,sans-Serif" font-size="10.00">toValue()</text>
<polygon fill="#bfbfbf" stroke="#bfbfbf" points="133,-429.5 133,-429.5 262,-429.5 262,-429.5 133,-429.5"/>
<polygon fill="#bfbfbf" stroke="#bfbfbf" points="133,-414.5 133,-414.5 262,-414.5 262,-414.5 133,-414.5"/>
<polygon fill="none" stroke="#bfbfbf" points="132.5,-398 132.5,-447 261.5,-447 261.5,-398 132.5,-398"/>
</a>
</g>
</g>
<!-- Node4&#45;&gt;Node3 -->
<g id="edge3_Node000003_Node000004" class="edge">
<title>Node4&#45;&gt;Node3</title>
<g id="a_edge3_Node000003_Node000004"><a xlink:title=" ">
<path fill="none" stroke="#63b8ff" d="M197,-397.82C197,-388.24 197,-376.38 197,-363.49"/>
<polygon fill="none" stroke="#63b8ff" points="197,-363.4 193,-357.4 197,-351.4 201,-357.4 197,-363.4"/>
</a>
</g>
<text text-anchor="middle" x="211" y="-372" font-family="Helvetica,sans-Serif" font-size="10.00" fill="grey"> &#45;m_p</text>
</g>
</g>
</svg>
