<?xml version="1.0" encoding="UTF-8" standalone="no"?>
<!DOCTYPE svg PUBLIC "-//W3C//DTD SVG 1.1//EN"
 "http://www.w3.org/Graphics/SVG/1.1/DTD/svg11.dtd">
<!-- Generated by graphviz version 2.43.0 (0)
 -->
<!-- Title: Graphe hiérarchique des classes Pages: 1 -->
<svg width="304pt" height="86pt"
 viewBox="0.00 0.00 304.00 86.00" xmlns="http://www.w3.org/2000/svg" xmlns:xlink="http://www.w3.org/1999/xlink">
<g id="graph0" class="graph" transform="scale(1 1) rotate(0) translate(4 82)">
<title>Graphe hiérarchique des classes</title>
<!-- Node0 -->
<g id="Node000000" class="node">
<title>Node0</title>
<g id="a_Node000000"><a xlink:href="d8/db0/classArcane_1_1Materials_1_1ComponentCellEnumerator.html" target="_top" xlink:title="Enumérateur sur une partie des mailles d&#39;un composant (matériau ou milieu)">
<polygon fill="white" stroke="#666666" points="149,-54 0,-54 0,-24 149,-24 149,-54"/>
<text text-anchor="start" x="8" y="-42" font-family="Helvetica,sans-Serif" font-size="10.00">Arcane::Materials::</text>
<text text-anchor="middle" x="74.5" y="-31" font-family="Helvetica,sans-Serif" font-size="10.00">ComponentCellEnumerator</text>
</a>
</g>
</g>
<!-- Node1 -->
<g id="Node000001" class="node">
<title>Node1</title>
<g id="a_Node000001"><a xlink:href="dc/d4c/classArcane_1_1Materials_1_1EnvCellEnumerator.html" target="_top" xlink:title="Enumérateur sur les mailles d&#39;un milieu.">
<polygon fill="white" stroke="#666666" points="295.5,-78 185.5,-78 185.5,-48 295.5,-48 295.5,-78"/>
<text text-anchor="start" x="193.5" y="-66" font-family="Helvetica,sans-Serif" font-size="10.00">Arcane::Materials::</text>
<text text-anchor="middle" x="240.5" y="-55" font-family="Helvetica,sans-Serif" font-size="10.00">EnvCellEnumerator</text>
</a>
</g>
</g>
<!-- Node0&#45;&gt;Node1 -->
<g id="edge2490_Node000000_Node000001" class="edge">
<title>Node0&#45;&gt;Node1</title>
<g id="a_edge2490_Node000000_Node000001"><a xlink:title=" ">
<path fill="none" stroke="#63b8ff" d="M159.28,-51.26C168.09,-52.55 176.87,-53.83 185.22,-55.06"/>
<polygon fill="#63b8ff" stroke="#63b8ff" points="159.75,-47.79 149.34,-49.81 158.73,-54.72 159.75,-47.79"/>
</a>
</g>
</g>
<!-- Node2 -->
<g id="Node000002" class="node">
<title>Node2</title>
<g id="a_Node000002"><a xlink:href="d7/d69/classArcane_1_1Materials_1_1MatCellEnumerator.html" target="_top" xlink:title="Enumérateur sur une partie des mailles d&#39;un seul matériau.">
<polygon fill="white" stroke="#666666" points="296,-30 185,-30 185,0 296,0 296,-30"/>
<text text-anchor="start" x="193" y="-18" font-family="Helvetica,sans-Serif" font-size="10.00">Arcane::Materials::</text>
<text text-anchor="middle" x="240.5" y="-7" font-family="Helvetica,sans-Serif" font-size="10.00">MatCellEnumerator</text>
</a>
</g>
</g>
<!-- Node0&#45;&gt;Node2 -->
<g id="edge2491_Node000000_Node000002" class="edge">
<title>Node0&#45;&gt;Node2</title>
<g id="a_edge2491_Node000000_Node000002"><a xlink:title=" ">
<path fill="none" stroke="#63b8ff" d="M159.42,-26.72C168.01,-25.46 176.57,-24.21 184.73,-23.02"/>
<polygon fill="#63b8ff" stroke="#63b8ff" points="158.73,-23.28 149.34,-28.19 159.75,-30.21 158.73,-23.28"/>
</a>
</g>
</g>
</g>
</svg>
