<?xml version="1.0" encoding="UTF-8" standalone="no"?>
<!DOCTYPE svg PUBLIC "-//W3C//DTD SVG 1.1//EN"
 "http://www.w3.org/Graphics/SVG/1.1/DTD/svg11.dtd">
<!-- Generated by graphviz version 14.1.2 (0)
 -->
<!-- Title: Graphe hiérarchique des classes Pages: 1 -->
<svg width="337pt" height="68pt"
 viewBox="0.00 0.00 337.00 68.00" xmlns="http://www.w3.org/2000/svg" xmlns:xlink="http://www.w3.org/1999/xlink">
<g id="graph0" class="graph" transform="scale(1 1) rotate(0) translate(4 63.75)">
<title>Graphe hiérarchique des classes</title>
<!-- Node0 -->
<g id="Node000000" class="node">
<title>Node0</title>
<g id="a_Node000000"><a xlink:title=" ">
<polygon fill="#e0e0e0" stroke="#999999" points="95.5,-39.75 0,-39.75 0,-19 95.5,-19 95.5,-39.75"/>
<text xml:space="preserve" text-anchor="middle" x="47.75" y="-26.25" font-family="Helvetica,sans-Serif" font-size="10.00">QOpenGLWidget</text>
</a>
</g>
</g>
<!-- Node1 -->
<g id="Node000001" class="node">
<title>Node1</title>
<g id="a_Node000001"><a xlink:href="df/db0/classQHyodaGL.html" target="_top" xlink:title=" ">
<polygon fill="white" stroke="#666666" points="203,-59.75 135.25,-59.75 135.25,-39 203,-39 203,-59.75"/>
<text xml:space="preserve" text-anchor="middle" x="169.12" y="-46.25" font-family="Helvetica,sans-Serif" font-size="10.00">QHyodaGL</text>
</a>
</g>
</g>
<!-- Node0&#45;&gt;Node1 -->
<g id="edge4342_Node000000_Node000001" class="edge">
<title>Node0&#45;&gt;Node1</title>
<g id="a_edge4342_Node000000_Node000001"><a xlink:title=" ">
<path fill="none" stroke="#63b8ff" d="M107.07,-39.15C116.62,-40.75 126.22,-42.35 134.89,-43.81"/>
<polygon fill="#63b8ff" stroke="#63b8ff" points="107.86,-35.73 97.42,-37.53 106.71,-42.63 107.86,-35.73"/>
</a>
</g>
</g>
<!-- Node3 -->
<g id="Node000003" class="node">
<title>Node3</title>
<g id="a_Node000003"><a xlink:href="da/d1d/classQHyodaIceT.html" target="_top" xlink:title=" ">
<polygon fill="white" stroke="#666666" points="206.75,-20.75 131.5,-20.75 131.5,0 206.75,0 206.75,-20.75"/>
<text xml:space="preserve" text-anchor="middle" x="169.12" y="-7.25" font-family="Helvetica,sans-Serif" font-size="10.00">QHyodaIceT</text>
</a>
</g>
</g>
<!-- Node0&#45;&gt;Node3 -->
<g id="edge4344_Node000000_Node000003" class="edge">
<title>Node0&#45;&gt;Node3</title>
<g id="a_edge4344_Node000000_Node000003"><a xlink:title=" ">
<path fill="none" stroke="#63b8ff" d="M107.07,-20.09C115.29,-18.78 123.55,-17.47 131.22,-16.25"/>
<polygon fill="#63b8ff" stroke="#63b8ff" points="106.75,-16.6 97.42,-21.63 107.85,-23.51 106.75,-16.6"/>
</a>
</g>
</g>
<!-- Node2 -->
<g id="Node000002" class="node">
<title>Node2</title>
<g id="a_Node000002"><a xlink:href="dd/d01/classQHyodaGLCell.html" target="_top" xlink:title=" ">
<polygon fill="white" stroke="#666666" points="329.25,-59.75 242.75,-59.75 242.75,-39 329.25,-39 329.25,-59.75"/>
<text xml:space="preserve" text-anchor="middle" x="286" y="-46.25" font-family="Helvetica,sans-Serif" font-size="10.00">QHyodaGLCell</text>
</a>
</g>
</g>
<!-- Node1&#45;&gt;Node2 -->
<g id="edge4343_Node000001_Node000002" class="edge">
<title>Node1&#45;&gt;Node2</title>
<g id="a_edge4343_Node000001_Node000002"><a xlink:title=" ">
<path fill="none" stroke="#63b8ff" d="M214.61,-49.38C223.75,-49.38 233.35,-49.38 242.42,-49.38"/>
<polygon fill="#63b8ff" stroke="#63b8ff" points="214.87,-45.88 204.87,-49.38 214.87,-52.88 214.87,-45.88"/>
</a>
</g>
</g>
</g>
</svg>
