<?xml version="1.0" encoding="UTF-8" standalone="no"?>
<!DOCTYPE svg PUBLIC "-//W3C//DTD SVG 1.1//EN"
 "http://www.w3.org/Graphics/SVG/1.1/DTD/svg11.dtd">
<!-- Generated by graphviz version 2.43.0 (0)
 -->
<!-- Title: Graphe hiérarchique des classes Pages: 1 -->
<svg width="287pt" height="64pt"
 viewBox="0.00 0.00 287.00 64.00" xmlns="http://www.w3.org/2000/svg" xmlns:xlink="http://www.w3.org/1999/xlink">
<g id="graph0" class="graph" transform="scale(1 1) rotate(0) translate(4 60)">
<title>Graphe hiérarchique des classes</title>
<!-- Node0 -->
<g id="Node000000" class="node">
<title>Node0</title>
<g id="a_Node000000"><a xlink:href="d9/d0f/structUTF32.html" target="_top" xlink:title=" ">
<polygon fill="white" stroke="#666666" points="115,-37 0,-37 0,-18 115,-18 115,-37"/>
<text text-anchor="middle" x="57.5" y="-25" font-family="Helvetica,sans-Serif" font-size="10.00">UTF32&lt; unsigned &gt;</text>
</a>
</g>
</g>
<!-- Node1 -->
<g id="Node000001" class="node">
<title>Node1</title>
<g id="a_Node000001"><a xlink:href="d9/d19/structUTF32BE.html" target="_top" xlink:title="UTF&#45;32 big endian encoding.">
<polygon fill="white" stroke="#666666" points="279,-56 151,-56 151,-37 279,-37 279,-56"/>
<text text-anchor="middle" x="215" y="-44" font-family="Helvetica,sans-Serif" font-size="10.00">UTF32BE&lt; CharType &gt;</text>
</a>
</g>
</g>
<!-- Node0&#45;&gt;Node1 -->
<g id="edge4210_Node000000_Node000001" class="edge">
<title>Node0&#45;&gt;Node1</title>
<g id="a_edge4210_Node000000_Node000001"><a xlink:title=" ">
<path fill="none" stroke="#63b8ff" d="M125.03,-35.63C133.61,-36.68 142.37,-37.75 150.89,-38.79"/>
<polygon fill="#63b8ff" stroke="#63b8ff" points="125.43,-32.15 115.08,-34.41 124.58,-39.1 125.43,-32.15"/>
</a>
</g>
</g>
<!-- Node2 -->
<g id="Node000002" class="node">
<title>Node2</title>
<g id="a_Node000002"><a xlink:href="d6/d57/structUTF32LE.html" target="_top" xlink:title="UTF&#45;32 little endian enocoding.">
<polygon fill="white" stroke="#666666" points="278.5,-19 151.5,-19 151.5,0 278.5,0 278.5,-19"/>
<text text-anchor="middle" x="215" y="-7" font-family="Helvetica,sans-Serif" font-size="10.00">UTF32LE&lt; CharType &gt;</text>
</a>
</g>
</g>
<!-- Node0&#45;&gt;Node2 -->
<g id="edge4211_Node000000_Node000002" class="edge">
<title>Node0&#45;&gt;Node2</title>
<g id="a_edge4211_Node000000_Node000002"><a xlink:title=" ">
<path fill="none" stroke="#63b8ff" d="M125.18,-19.78C133.89,-18.77 142.78,-17.74 151.42,-16.74"/>
<polygon fill="#63b8ff" stroke="#63b8ff" points="124.61,-16.32 115.08,-20.95 125.42,-23.28 124.61,-16.32"/>
</a>
</g>
</g>
</g>
</svg>
