<?xml version="1.0" encoding="UTF-8" standalone="no"?>
<!DOCTYPE svg PUBLIC "-//W3C//DTD SVG 1.1//EN"
 "http://www.w3.org/Graphics/SVG/1.1/DTD/svg11.dtd">
<!-- Generated by graphviz version 2.43.0 (0)
 -->
<!-- Title: Graphe hiérarchique des classes Pages: 1 -->
<svg width="743pt" height="49pt"
 viewBox="0.00 0.00 743.00 49.00" xmlns="http://www.w3.org/2000/svg" xmlns:xlink="http://www.w3.org/1999/xlink">
<g id="graph0" class="graph" transform="scale(1 1) rotate(0) translate(4 45)">
<title>Graphe hiérarchique des classes</title>
<!-- Node0 -->
<g id="Node000000" class="node">
<title>Node0</title>
<g id="a_Node000000"><a xlink:title=" ">
<polygon fill="#e0e0e0" stroke="#999999" points="178,-30 0,-30 0,-11 178,-11 178,-30"/>
<text text-anchor="middle" x="89" y="-18" font-family="Helvetica,sans-Serif" font-size="10.00">ExtentsV::ArrayExtentsValueType</text>
</a>
</g>
</g>
<!-- Node1 -->
<g id="Node000001" class="node">
<title>Node1</title>
<g id="a_Node000001"><a xlink:href="db/de6/classArcane_1_1ArrayExtentsBase.html" target="_top" xlink:title=" ">
<polygon fill="white" stroke="#666666" points="357,-41 214,-41 214,0 357,0 357,-41"/>
<text text-anchor="start" x="222" y="-29" font-family="Helvetica,sans-Serif" font-size="10.00">Arcane::ArrayExtentsBase</text>
<text text-anchor="start" x="222" y="-18" font-family="Helvetica,sans-Serif" font-size="10.00">&lt; ExtentsV&lt; SizeType_,</text>
<text text-anchor="middle" x="285.5" y="-7" font-family="Helvetica,sans-Serif" font-size="10.00"> X0, X1, X2, X3 &gt; &gt;</text>
</a>
</g>
</g>
<!-- Node0&#45;&gt;Node1 -->
<g id="edge4050_Node000000_Node000001" class="edge">
<title>Node0&#45;&gt;Node1</title>
<g id="a_edge4050_Node000000_Node000001"><a xlink:title=" ">
<path fill="none" stroke="darkgreen" d="M188.26,-20.5C196.89,-20.5 205.51,-20.5 213.85,-20.5"/>
<polygon fill="darkgreen" stroke="darkgreen" points="188.14,-17 178.14,-20.5 188.14,-24 188.14,-17"/>
</a>
</g>
</g>
<!-- Node2 -->
<g id="Node000002" class="node">
<title>Node2</title>
<g id="a_Node000002"><a xlink:href="df/db1/classArcane_1_1ArrayExtents_3_01ExtentsV_3_01SizeType___00_01X0_00_01X1_00_01X2_00_01X3_01_4_01_4.html" target="_top" xlink:title="Extent pour les tableaux à 4 dimensions.">
<polygon fill="white" stroke="#666666" points="518,-41 393,-41 393,0 518,0 518,-41"/>
<text text-anchor="start" x="401" y="-29" font-family="Helvetica,sans-Serif" font-size="10.00">Arcane::ArrayExtents</text>
<text text-anchor="start" x="401" y="-18" font-family="Helvetica,sans-Serif" font-size="10.00">&lt; ExtentsV&lt; SizeType</text>
<text text-anchor="middle" x="455.5" y="-7" font-family="Helvetica,sans-Serif" font-size="10.00">_, X0, X1, X2, X3 &gt; &gt;</text>
</a>
</g>
</g>
<!-- Node1&#45;&gt;Node2 -->
<g id="edge4051_Node000001_Node000002" class="edge">
<title>Node1&#45;&gt;Node2</title>
<g id="a_edge4051_Node000001_Node000002"><a xlink:title=" ">
<path fill="none" stroke="#63b8ff" d="M367.31,-20.5C375.91,-20.5 384.55,-20.5 392.88,-20.5"/>
<polygon fill="#63b8ff" stroke="#63b8ff" points="367.26,-17 357.26,-20.5 367.26,-24 367.26,-17"/>
</a>
</g>
</g>
<!-- Node3 -->
<g id="Node000003" class="node">
<title>Node3</title>
<g id="a_Node000003"><a xlink:href="dc/da5/classArcane_1_1ArrayExtentsWithOffset_3_01ExtentsV_3_01SizeType___00_01X0_00_01X1_00_01X2_00_01X3_01_4_00_01LayoutType_01_4.html" target="_top" xlink:title="Extent et Offset pour les tableaux à 4 dimensions.">
<polygon fill="white" stroke="#666666" points="735,-41 554,-41 554,0 735,0 735,-41"/>
<text text-anchor="start" x="562" y="-29" font-family="Helvetica,sans-Serif" font-size="10.00">Arcane::ArrayExtentsWith</text>
<text text-anchor="start" x="562" y="-18" font-family="Helvetica,sans-Serif" font-size="10.00">Offset&lt; ExtentsV&lt; SizeType</text>
<text text-anchor="middle" x="644.5" y="-7" font-family="Helvetica,sans-Serif" font-size="10.00">_, X0, X1, X2, X3 &gt;, LayoutType &gt;</text>
</a>
</g>
</g>
<!-- Node2&#45;&gt;Node3 -->
<g id="edge4052_Node000002_Node000003" class="edge">
<title>Node2&#45;&gt;Node3</title>
<g id="a_edge4052_Node000002_Node000003"><a xlink:title=" ">
<path fill="none" stroke="#8b1a1a" d="M528.28,-20.5C536.62,-20.5 545.2,-20.5 553.74,-20.5"/>
<polygon fill="#8b1a1a" stroke="#8b1a1a" points="528.25,-17 518.25,-20.5 528.25,-24 528.25,-17"/>
</a>
</g>
</g>
</g>
</svg>
