<?xml version="1.0" encoding="UTF-8" standalone="no"?>
<!DOCTYPE svg PUBLIC "-//W3C//DTD SVG 1.1//EN"
 "http://www.w3.org/Graphics/SVG/1.1/DTD/svg11.dtd">
<!-- Generated by graphviz version 14.1.2 (0)
 -->
<!-- Title: Graphe hiérarchique des classes Pages: 1 -->
<svg width="579pt" height="582pt"
 viewBox="0.00 0.00 579.00 582.00" xmlns="http://www.w3.org/2000/svg" xmlns:xlink="http://www.w3.org/1999/xlink">
<g id="graph0" class="graph" transform="scale(1 1) rotate(0) translate(4 578.25)">
<title>Graphe hiérarchique des classes</title>
<!-- Node0 -->
<g id="Node000000" class="node">
<title>Node0</title>
<g id="a_Node000000"><a xlink:href="d6/dac/classArcane_1_1Accelerator_1_1HostDeviceReducerBase.html" target="_top" xlink:title="Opérateur de réduction.">
<polygon fill="white" stroke="#666666" points="162.25,-297.88 0,-297.88 0,-251.62 162.25,-251.62 162.25,-297.88"/>
<text xml:space="preserve" text-anchor="start" x="8" y="-284.38" font-family="Helvetica,sans-Serif" font-size="10.00">Arcane::Accelerator</text>
<text xml:space="preserve" text-anchor="start" x="8" y="-271.62" font-family="Helvetica,sans-Serif" font-size="10.00">::HostDeviceReducerBase</text>
<text xml:space="preserve" text-anchor="middle" x="81.12" y="-258.88" font-family="Helvetica,sans-Serif" font-size="10.00">&lt; DataType, ReduceFunctor &gt;</text>
</a>
</g>
</g>
<!-- Node1 -->
<g id="Node000001" class="node">
<title>Node1</title>
<g id="a_Node000001"><a xlink:href="d9/d2d/classArcane_1_1Accelerator_1_1HostDeviceReducer.html" target="_top" xlink:title=" ">
<polygon fill="white" stroke="#666666" points="377,-574.25 198.25,-574.25 198.25,-515.25 377,-515.25 377,-574.25"/>
<text xml:space="preserve" text-anchor="start" x="206.25" y="-560.75" font-family="Helvetica,sans-Serif" font-size="10.00">Arcane::Accelerator</text>
<text xml:space="preserve" text-anchor="start" x="206.25" y="-548" font-family="Helvetica,sans-Serif" font-size="10.00">::HostDeviceReducer</text>
<text xml:space="preserve" text-anchor="start" x="206.25" y="-535.25" font-family="Helvetica,sans-Serif" font-size="10.00">&lt; DataType, Impl::ReduceFunctor</text>
<text xml:space="preserve" text-anchor="middle" x="287.62" y="-522.5" font-family="Helvetica,sans-Serif" font-size="10.00">Sum&lt; DataType &gt; &gt;</text>
</a>
</g>
</g>
<!-- Node0&#45;&gt;Node1 -->
<g id="edge1122_Node000000_Node000001" class="edge">
<title>Node0&#45;&gt;Node1</title>
<g id="a_edge1122_Node000000_Node000001"><a xlink:title=" ">
<path fill="none" stroke="#63b8ff" d="M91.05,-308.87C105.66,-358.56 139.14,-450.97 198.25,-506.75 201.29,-509.62 204.57,-512.28 208.03,-514.77"/>
<polygon fill="#63b8ff" stroke="#63b8ff" points="94.5,-308.19 88.39,-299.53 87.77,-310.11 94.5,-308.19"/>
</a>
</g>
</g>
<!-- Node2 -->
<g id="Node000002" class="node">
<title>Node2</title>
<g id="a_Node000002"><a xlink:href="d9/d2d/classArcane_1_1Accelerator_1_1HostDeviceReducer.html" target="_top" xlink:title=" ">
<polygon fill="white" stroke="#666666" points="377,-497.25 198.25,-497.25 198.25,-438.25 377,-438.25 377,-497.25"/>
<text xml:space="preserve" text-anchor="start" x="206.25" y="-483.75" font-family="Helvetica,sans-Serif" font-size="10.00">Arcane::Accelerator</text>
<text xml:space="preserve" text-anchor="start" x="206.25" y="-471" font-family="Helvetica,sans-Serif" font-size="10.00">::HostDeviceReducer</text>
<text xml:space="preserve" text-anchor="start" x="206.25" y="-458.25" font-family="Helvetica,sans-Serif" font-size="10.00">&lt; DataType, Impl::ReduceFunctor</text>
<text xml:space="preserve" text-anchor="middle" x="287.62" y="-445.5" font-family="Helvetica,sans-Serif" font-size="10.00">Max&lt; DataType &gt; &gt;</text>
</a>
</g>
</g>
<!-- Node0&#45;&gt;Node2 -->
<g id="edge1123_Node000000_Node000002" class="edge">
<title>Node0&#45;&gt;Node2</title>
<g id="a_edge1123_Node000000_Node000002"><a xlink:title=" ">
<path fill="none" stroke="#63b8ff" d="M99.95,-307.88C119.92,-342.33 155.21,-395.86 198.25,-429.75 201.92,-432.64 205.85,-435.36 209.93,-437.9"/>
<polygon fill="#63b8ff" stroke="#63b8ff" points="103.22,-306.56 95.24,-299.59 97.13,-310.02 103.22,-306.56"/>
</a>
</g>
</g>
<!-- Node3 -->
<g id="Node000003" class="node">
<title>Node3</title>
<g id="a_Node000003"><a xlink:href="d9/d2d/classArcane_1_1Accelerator_1_1HostDeviceReducer.html" target="_top" xlink:title=" ">
<polygon fill="white" stroke="#666666" points="377,-420.25 198.25,-420.25 198.25,-361.25 377,-361.25 377,-420.25"/>
<text xml:space="preserve" text-anchor="start" x="206.25" y="-406.75" font-family="Helvetica,sans-Serif" font-size="10.00">Arcane::Accelerator</text>
<text xml:space="preserve" text-anchor="start" x="206.25" y="-394" font-family="Helvetica,sans-Serif" font-size="10.00">::HostDeviceReducer</text>
<text xml:space="preserve" text-anchor="start" x="206.25" y="-381.25" font-family="Helvetica,sans-Serif" font-size="10.00">&lt; DataType, Impl::ReduceFunctor</text>
<text xml:space="preserve" text-anchor="middle" x="287.62" y="-368.5" font-family="Helvetica,sans-Serif" font-size="10.00">Min&lt; DataType &gt; &gt;</text>
</a>
</g>
</g>
<!-- Node0&#45;&gt;Node3 -->
<g id="edge1124_Node000000_Node000003" class="edge">
<title>Node0&#45;&gt;Node3</title>
<g id="a_edge1124_Node000000_Node000003"><a xlink:title=" ">
<path fill="none" stroke="#63b8ff" d="M122.91,-304.86C144.66,-320.21 172.24,-338.58 198.25,-352.75 203.38,-355.55 208.76,-358.29 214.23,-360.94"/>
<polygon fill="#63b8ff" stroke="#63b8ff" points="125.06,-302.1 114.89,-299.14 121,-307.8 125.06,-302.1"/>
</a>
</g>
</g>
<!-- Node4 -->
<g id="Node000004" class="node">
<title>Node4</title>
<g id="a_Node000004"><a xlink:href="d1/db3/classArcane_1_1Accelerator_1_1HostDeviceReducer2.html" target="_top" xlink:title=" ">
<polygon fill="white" stroke="#666666" points="377,-343.25 198.25,-343.25 198.25,-284.25 377,-284.25 377,-343.25"/>
<text xml:space="preserve" text-anchor="start" x="206.25" y="-329.75" font-family="Helvetica,sans-Serif" font-size="10.00">Arcane::Accelerator</text>
<text xml:space="preserve" text-anchor="start" x="206.25" y="-317" font-family="Helvetica,sans-Serif" font-size="10.00">::HostDeviceReducer2</text>
<text xml:space="preserve" text-anchor="start" x="206.25" y="-304.25" font-family="Helvetica,sans-Serif" font-size="10.00">&lt; DataType, Impl::ReduceFunctor</text>
<text xml:space="preserve" text-anchor="middle" x="287.62" y="-291.5" font-family="Helvetica,sans-Serif" font-size="10.00">Sum&lt; DataType &gt; &gt;</text>
</a>
</g>
</g>
<!-- Node0&#45;&gt;Node4 -->
<g id="edge1125_Node000000_Node000004" class="edge">
<title>Node0&#45;&gt;Node4</title>
<g id="a_edge1125_Node000000_Node000004"><a xlink:title=" ">
<path fill="none" stroke="#63b8ff" d="M173.93,-292.26C181.95,-293.79 190.07,-295.34 198.07,-296.86"/>
<polygon fill="#63b8ff" stroke="#63b8ff" points="174.62,-288.83 164.14,-290.39 173.31,-295.7 174.62,-288.83"/>
</a>
</g>
</g>
<!-- Node6 -->
<g id="Node000006" class="node">
<title>Node6</title>
<g id="a_Node000006"><a xlink:href="d1/db3/classArcane_1_1Accelerator_1_1HostDeviceReducer2.html" target="_top" xlink:title=" ">
<polygon fill="white" stroke="#666666" points="377,-266.25 198.25,-266.25 198.25,-207.25 377,-207.25 377,-266.25"/>
<text xml:space="preserve" text-anchor="start" x="206.25" y="-252.75" font-family="Helvetica,sans-Serif" font-size="10.00">Arcane::Accelerator</text>
<text xml:space="preserve" text-anchor="start" x="206.25" y="-240" font-family="Helvetica,sans-Serif" font-size="10.00">::HostDeviceReducer2</text>
<text xml:space="preserve" text-anchor="start" x="206.25" y="-227.25" font-family="Helvetica,sans-Serif" font-size="10.00">&lt; DataType, Impl::ReduceFunctor</text>
<text xml:space="preserve" text-anchor="middle" x="287.62" y="-214.5" font-family="Helvetica,sans-Serif" font-size="10.00">Max&lt; DataType &gt; &gt;</text>
</a>
</g>
</g>
<!-- Node0&#45;&gt;Node6 -->
<g id="edge1127_Node000000_Node000006" class="edge">
<title>Node0&#45;&gt;Node6</title>
<g id="a_edge1127_Node000000_Node000006"><a xlink:title=" ">
<path fill="none" stroke="#63b8ff" d="M173.93,-257.69C181.95,-256.2 190.07,-254.69 198.07,-253.21"/>
<polygon fill="#63b8ff" stroke="#63b8ff" points="173.34,-254.24 164.14,-259.51 174.61,-261.12 173.34,-254.24"/>
</a>
</g>
</g>
<!-- Node8 -->
<g id="Node000008" class="node">
<title>Node8</title>
<g id="a_Node000008"><a xlink:href="d1/db3/classArcane_1_1Accelerator_1_1HostDeviceReducer2.html" target="_top" xlink:title=" ">
<polygon fill="white" stroke="#666666" points="377,-189.25 198.25,-189.25 198.25,-130.25 377,-130.25 377,-189.25"/>
<text xml:space="preserve" text-anchor="start" x="206.25" y="-175.75" font-family="Helvetica,sans-Serif" font-size="10.00">Arcane::Accelerator</text>
<text xml:space="preserve" text-anchor="start" x="206.25" y="-163" font-family="Helvetica,sans-Serif" font-size="10.00">::HostDeviceReducer2</text>
<text xml:space="preserve" text-anchor="start" x="206.25" y="-150.25" font-family="Helvetica,sans-Serif" font-size="10.00">&lt; DataType, Impl::ReduceFunctor</text>
<text xml:space="preserve" text-anchor="middle" x="287.62" y="-137.5" font-family="Helvetica,sans-Serif" font-size="10.00">Min&lt; DataType &gt; &gt;</text>
</a>
</g>
</g>
<!-- Node0&#45;&gt;Node8 -->
<g id="edge1129_Node000000_Node000008" class="edge">
<title>Node0&#45;&gt;Node8</title>
<g id="a_edge1129_Node000000_Node000008"><a xlink:title=" ">
<path fill="none" stroke="#63b8ff" d="M124,-244.95C145.64,-230.17 172.8,-212.57 198.25,-198.75 204,-195.63 210.04,-192.55 216.17,-189.58"/>
<polygon fill="#63b8ff" stroke="#63b8ff" points="122.27,-241.89 116.02,-250.45 126.24,-247.66 122.27,-241.89"/>
</a>
</g>
</g>
<!-- Node10 -->
<g id="Node000010" class="node">
<title>Node10</title>
<g id="a_Node000010"><a xlink:href="d9/d2d/classArcane_1_1Accelerator_1_1HostDeviceReducer.html" target="_top" xlink:title="Version 1 de la réduction.">
<polygon fill="white" stroke="#666666" points="368.75,-111.88 206.5,-111.88 206.5,-65.62 368.75,-65.62 368.75,-111.88"/>
<text xml:space="preserve" text-anchor="start" x="214.5" y="-98.38" font-family="Helvetica,sans-Serif" font-size="10.00">Arcane::Accelerator</text>
<text xml:space="preserve" text-anchor="start" x="214.5" y="-85.62" font-family="Helvetica,sans-Serif" font-size="10.00">::HostDeviceReducer</text>
<text xml:space="preserve" text-anchor="middle" x="287.62" y="-72.88" font-family="Helvetica,sans-Serif" font-size="10.00">&lt; DataType, ReduceFunctor &gt;</text>
</a>
</g>
</g>
<!-- Node0&#45;&gt;Node10 -->
<g id="edge1131_Node000000_Node000010" class="edge">
<title>Node0&#45;&gt;Node10</title>
<g id="a_edge1131_Node000000_Node000010"><a xlink:title=" ">
<path fill="none" stroke="#63b8ff" d="M99.73,-241.64C119.52,-207.29 154.66,-154.17 198.25,-121.75 202.98,-118.23 208.13,-115.05 213.48,-112.18"/>
<polygon fill="#63b8ff" stroke="#63b8ff" points="96.93,-239.47 95.07,-249.9 103.03,-242.91 96.93,-239.47"/>
</a>
</g>
</g>
<!-- Node14 -->
<g id="Node000014" class="node">
<title>Node14</title>
<g id="a_Node000014"><a xlink:href="d1/db3/classArcane_1_1Accelerator_1_1HostDeviceReducer2.html" target="_top" xlink:title="Version 2 de la réduction.">
<polygon fill="white" stroke="#666666" points="368.75,-47.88 206.5,-47.88 206.5,-1.62 368.75,-1.62 368.75,-47.88"/>
<text xml:space="preserve" text-anchor="start" x="214.5" y="-34.38" font-family="Helvetica,sans-Serif" font-size="10.00">Arcane::Accelerator</text>
<text xml:space="preserve" text-anchor="start" x="214.5" y="-21.62" font-family="Helvetica,sans-Serif" font-size="10.00">::HostDeviceReducer2</text>
<text xml:space="preserve" text-anchor="middle" x="287.62" y="-8.88" font-family="Helvetica,sans-Serif" font-size="10.00">&lt; DataType, ReduceFunctor &gt;</text>
</a>
</g>
</g>
<!-- Node0&#45;&gt;Node14 -->
<g id="edge1135_Node000000_Node000014" class="edge">
<title>Node0&#45;&gt;Node14</title>
<g id="a_edge1135_Node000000_Node000014"><a xlink:title=" ">
<path fill="none" stroke="#63b8ff" d="M91.88,-240.16C107.03,-192.46 140.64,-106.71 198.25,-56.75 201.83,-53.65 205.72,-50.84 209.83,-48.3"/>
<polygon fill="#63b8ff" stroke="#63b8ff" points="88.54,-239.11 88.95,-249.7 95.23,-241.17 88.54,-239.11"/>
</a>
</g>
</g>
<!-- Node5 -->
<g id="Node000005" class="node">
<title>Node5</title>
<g id="a_Node000005"><a xlink:href="db/de9/classArcane_1_1Accelerator_1_1ReducerSum2.html" target="_top" xlink:title="Classe pour effectuer une réduction &#39;somme&#39;.">
<polygon fill="white" stroke="#666666" points="570.75,-330.5 413,-330.5 413,-297 570.75,-297 570.75,-330.5"/>
<text xml:space="preserve" text-anchor="start" x="421" y="-317" font-family="Helvetica,sans-Serif" font-size="10.00">Arcane::Accelerator</text>
<text xml:space="preserve" text-anchor="middle" x="491.88" y="-304.25" font-family="Helvetica,sans-Serif" font-size="10.00">::ReducerSum2&lt; DataType &gt;</text>
</a>
</g>
</g>
<!-- Node4&#45;&gt;Node5 -->
<g id="edge1126_Node000004_Node000005" class="edge">
<title>Node4&#45;&gt;Node5</title>
<g id="a_edge1126_Node000004_Node000005"><a xlink:title=" ">
<path fill="none" stroke="#63b8ff" d="M388.7,-313.75C396.77,-313.75 404.84,-313.75 412.71,-313.75"/>
<polygon fill="#63b8ff" stroke="#63b8ff" points="388.85,-310.25 378.85,-313.75 388.85,-317.25 388.85,-310.25"/>
</a>
</g>
</g>
<!-- Node7 -->
<g id="Node000007" class="node">
<title>Node7</title>
<g id="a_Node000007"><a xlink:href="dd/d40/classArcane_1_1Accelerator_1_1ReducerMax2.html" target="_top" xlink:title="Classe pour effectuer une réduction &#39;max&#39;.">
<polygon fill="white" stroke="#666666" points="570.38,-253.5 413.38,-253.5 413.38,-220 570.38,-220 570.38,-253.5"/>
<text xml:space="preserve" text-anchor="start" x="421.38" y="-240" font-family="Helvetica,sans-Serif" font-size="10.00">Arcane::Accelerator</text>
<text xml:space="preserve" text-anchor="middle" x="491.88" y="-227.25" font-family="Helvetica,sans-Serif" font-size="10.00">::ReducerMax2&lt; DataType &gt;</text>
</a>
</g>
</g>
<!-- Node6&#45;&gt;Node7 -->
<g id="edge1128_Node000006_Node000007" class="edge">
<title>Node6&#45;&gt;Node7</title>
<g id="a_edge1128_Node000006_Node000007"><a xlink:title=" ">
<path fill="none" stroke="#63b8ff" d="M388.81,-236.75C396.94,-236.75 405.08,-236.75 413.02,-236.75"/>
<polygon fill="#63b8ff" stroke="#63b8ff" points="388.85,-233.25 378.85,-236.75 388.85,-240.25 388.85,-233.25"/>
</a>
</g>
</g>
<!-- Node9 -->
<g id="Node000009" class="node">
<title>Node9</title>
<g id="a_Node000009"><a xlink:href="dc/d95/classArcane_1_1Accelerator_1_1ReducerMin2.html" target="_top" xlink:title="Classe pour effectuer une réduction &#39;min&#39;.">
<polygon fill="white" stroke="#666666" points="568.88,-189.5 414.88,-189.5 414.88,-156 568.88,-156 568.88,-189.5"/>
<text xml:space="preserve" text-anchor="start" x="422.88" y="-176" font-family="Helvetica,sans-Serif" font-size="10.00">Arcane::Accelerator</text>
<text xml:space="preserve" text-anchor="middle" x="491.88" y="-163.25" font-family="Helvetica,sans-Serif" font-size="10.00">::ReducerMin2&lt; DataType &gt;</text>
</a>
</g>
</g>
<!-- Node8&#45;&gt;Node9 -->
<g id="edge1130_Node000008_Node000009" class="edge">
<title>Node8&#45;&gt;Node9</title>
<g id="a_edge1130_Node000008_Node000009"><a xlink:title=" ">
<path fill="none" stroke="#63b8ff" d="M388.73,-166.18C397.43,-166.74 406.13,-167.3 414.59,-167.85"/>
<polygon fill="#63b8ff" stroke="#63b8ff" points="389.05,-162.7 378.85,-165.55 388.6,-169.68 389.05,-162.7"/>
</a>
</g>
</g>
<!-- Node11 -->
<g id="Node000011" class="node">
<title>Node11</title>
<g id="a_Node000011"><a xlink:href="d8/df2/classArcane_1_1Accelerator_1_1ReducerMax.html" target="_top" xlink:title="Classe pour effectuer une réduction &#39;max&#39;.">
<polygon fill="white" stroke="#666666" points="567.38,-137.5 416.38,-137.5 416.38,-104 567.38,-104 567.38,-137.5"/>
<text xml:space="preserve" text-anchor="start" x="424.38" y="-124" font-family="Helvetica,sans-Serif" font-size="10.00">Arcane::Accelerator</text>
<text xml:space="preserve" text-anchor="middle" x="491.88" y="-111.25" font-family="Helvetica,sans-Serif" font-size="10.00">::ReducerMax&lt; DataType &gt;</text>
</a>
</g>
</g>
<!-- Node10&#45;&gt;Node11 -->
<g id="edge1132_Node000010_Node000011" class="edge">
<title>Node10&#45;&gt;Node11</title>
<g id="a_edge1132_Node000010_Node000011"><a xlink:title=" ">
<path fill="none" stroke="#63b8ff" d="M380.44,-103.28C392.31,-105.15 404.34,-107.06 415.89,-108.89"/>
<polygon fill="#63b8ff" stroke="#63b8ff" points="381.06,-99.83 370.64,-101.73 379.97,-106.75 381.06,-99.83"/>
</a>
</g>
</g>
<!-- Node12 -->
<g id="Node000012" class="node">
<title>Node12</title>
<g id="a_Node000012"><a xlink:href="de/d47/classArcane_1_1Accelerator_1_1ReducerMin.html" target="_top" xlink:title="Classe pour effectuer une réduction &#39;min&#39;.">
<polygon fill="white" stroke="#666666" points="565.88,-85.5 417.88,-85.5 417.88,-52 565.88,-52 565.88,-85.5"/>
<text xml:space="preserve" text-anchor="start" x="425.88" y="-72" font-family="Helvetica,sans-Serif" font-size="10.00">Arcane::Accelerator</text>
<text xml:space="preserve" text-anchor="middle" x="491.88" y="-59.25" font-family="Helvetica,sans-Serif" font-size="10.00">::ReducerMin&lt; DataType &gt;</text>
</a>
</g>
</g>
<!-- Node10&#45;&gt;Node12 -->
<g id="edge1133_Node000010_Node000012" class="edge">
<title>Node10&#45;&gt;Node12</title>
<g id="a_edge1133_Node000010_Node000012"><a xlink:title=" ">
<path fill="none" stroke="#63b8ff" d="M380.47,-79.67C392.88,-78.44 405.49,-77.19 417.52,-76"/>
<polygon fill="#63b8ff" stroke="#63b8ff" points="380.25,-76.17 370.65,-80.64 380.94,-83.14 380.25,-76.17"/>
</a>
</g>
</g>
<!-- Node13 -->
<g id="Node000013" class="node">
<title>Node13</title>
<g id="a_Node000013"><a xlink:href="de/dd3/classArcane_1_1Accelerator_1_1ReducerSum.html" target="_top" xlink:title="Classe pour effectuer une réduction &#39;somme&#39;.">
<polygon fill="white" stroke="#666666" points="567.75,-33.5 416,-33.5 416,0 567.75,0 567.75,-33.5"/>
<text xml:space="preserve" text-anchor="start" x="424" y="-20" font-family="Helvetica,sans-Serif" font-size="10.00">Arcane::Accelerator</text>
<text xml:space="preserve" text-anchor="middle" x="491.88" y="-7.25" font-family="Helvetica,sans-Serif" font-size="10.00">::ReducerSum&lt; DataType &gt;</text>
</a>
</g>
</g>
<!-- Node10&#45;&gt;Node13 -->
<g id="edge1134_Node000010_Node000013" class="edge">
<title>Node10&#45;&gt;Node13</title>
<g id="a_edge1134_Node000010_Node000013"><a xlink:title=" ">
<path fill="none" stroke="#63b8ff" d="M365.07,-61.2C369.11,-59.7 373.1,-58.21 377,-56.75 393.07,-50.72 396.85,-48.58 413,-42.75 421.18,-39.8 429.88,-36.77 438.39,-33.88"/>
<polygon fill="#63b8ff" stroke="#63b8ff" points="363.92,-57.89 355.74,-64.63 366.34,-64.46 363.92,-57.89"/>
</a>
</g>
</g>
</g>
</svg>
