<?xml version="1.0" encoding="UTF-8" standalone="no"?>
<!DOCTYPE svg PUBLIC "-//W3C//DTD SVG 1.1//EN"
 "http://www.w3.org/Graphics/SVG/1.1/DTD/svg11.dtd">
<!-- Generated by graphviz version 2.43.0 (0)
 -->
<!-- Title: Graphe hiérarchique des classes Pages: 1 -->
<svg width="457pt" height="60pt"
 viewBox="0.00 0.00 457.00 60.00" xmlns="http://www.w3.org/2000/svg" xmlns:xlink="http://www.w3.org/1999/xlink">
<g id="graph0" class="graph" transform="scale(1 1) rotate(0) translate(4 56)">
<title>Graphe hiérarchique des classes</title>
<!-- Node0 -->
<g id="Node000000" class="node">
<title>Node0</title>
<g id="a_Node000000"><a xlink:href="d3/d1e/classArccore_1_1ValueFiller_1_1impl_1_1FillTraitsBaseT.html" target="_top" xlink:title=" ">
<polygon fill="white" stroke="#666666" points="121,-46.5 0,-46.5 0,-5.5 121,-5.5 121,-46.5"/>
<text text-anchor="start" x="8" y="-34.5" font-family="Helvetica,sans-Serif" font-size="10.00">Arccore::ValueFiller</text>
<text text-anchor="start" x="8" y="-23.5" font-family="Helvetica,sans-Serif" font-size="10.00">::impl::FillTraitsBaseT</text>
<text text-anchor="middle" x="60.5" y="-12.5" font-family="Helvetica,sans-Serif" font-size="10.00">&lt; unsigned char &gt;</text>
</a>
</g>
</g>
<!-- Node1 -->
<g id="Node000001" class="node">
<title>Node1</title>
<g id="a_Node000001"><a xlink:href="d4/d09/classArccore_1_1ValueFiller_1_1impl_1_1IntegerFillTraitsT.html" target="_top" xlink:title=" ">
<polygon fill="white" stroke="#666666" points="303,-52 157,-52 157,0 303,0 303,-52"/>
<text text-anchor="start" x="165" y="-40" font-family="Helvetica,sans-Serif" font-size="10.00">Arccore::ValueFiller</text>
<text text-anchor="start" x="165" y="-29" font-family="Helvetica,sans-Serif" font-size="10.00">::impl::IntegerFillTraitsT</text>
<text text-anchor="start" x="165" y="-18" font-family="Helvetica,sans-Serif" font-size="10.00">&lt; unsigned char, unsigned</text>
<text text-anchor="middle" x="230" y="-7" font-family="Helvetica,sans-Serif" font-size="10.00"> short &gt;</text>
</a>
</g>
</g>
<!-- Node0&#45;&gt;Node1 -->
<g id="edge4007_Node000000_Node000001" class="edge">
<title>Node0&#45;&gt;Node1</title>
<g id="a_edge4007_Node000000_Node000001"><a xlink:title=" ">
<path fill="none" stroke="#63b8ff" d="M131.2,-26C139.64,-26 148.28,-26 156.76,-26"/>
<polygon fill="#63b8ff" stroke="#63b8ff" points="131.03,-22.5 121.03,-26 131.03,-29.5 131.03,-22.5"/>
</a>
</g>
</g>
<!-- Node2 -->
<g id="Node000002" class="node">
<title>Node2</title>
<g id="a_Node000002"><a xlink:href="d6/d4f/classArccore_1_1ValueFiller_1_1impl_1_1FillTraitsT_3_01unsigned_01char_01_4.html" target="_top" xlink:title=" ">
<polygon fill="white" stroke="#666666" points="449,-46.5 339,-46.5 339,-5.5 449,-5.5 449,-46.5"/>
<text text-anchor="start" x="347" y="-34.5" font-family="Helvetica,sans-Serif" font-size="10.00">Arccore::ValueFiller</text>
<text text-anchor="start" x="347" y="-23.5" font-family="Helvetica,sans-Serif" font-size="10.00">::impl::FillTraitsT&lt;</text>
<text text-anchor="middle" x="394" y="-12.5" font-family="Helvetica,sans-Serif" font-size="10.00"> unsigned char &gt;</text>
</a>
</g>
</g>
<!-- Node1&#45;&gt;Node2 -->
<g id="edge4008_Node000001_Node000002" class="edge">
<title>Node1&#45;&gt;Node2</title>
<g id="a_edge4008_Node000001_Node000002"><a xlink:title=" ">
<path fill="none" stroke="#63b8ff" d="M313.74,-26C322.16,-26 330.56,-26 338.57,-26"/>
<polygon fill="#63b8ff" stroke="#63b8ff" points="313.47,-22.5 303.47,-26 313.47,-29.5 313.47,-22.5"/>
</a>
</g>
</g>
</g>
</svg>
