<?xml version="1.0" encoding="UTF-8" standalone="no"?>
<!DOCTYPE svg PUBLIC "-//W3C//DTD SVG 1.1//EN"
 "http://www.w3.org/Graphics/SVG/1.1/DTD/svg11.dtd">
<!-- Generated by graphviz version 2.43.0 (0)
 -->
<!-- Title: Graphe hiérarchique des classes Pages: 1 -->
<svg width="459pt" height="323pt"
 viewBox="0.00 0.00 459.00 323.00" xmlns="http://www.w3.org/2000/svg" xmlns:xlink="http://www.w3.org/1999/xlink">
<g id="graph0" class="graph" transform="scale(1 1) rotate(0) translate(4 319)">
<title>Graphe hiérarchique des classes</title>
<!-- Node0 -->
<g id="Node000000" class="node">
<title>Node0</title>
<g id="a_Node000000"><a xlink:title=" ">
<polygon fill="#e0e0e0" stroke="#999999" points="100.5,-315 17.5,-315 17.5,-296 100.5,-296 100.5,-315"/>
<text text-anchor="middle" x="59" y="-303" font-family="Helvetica,sans-Serif" font-size="10.00">Ui::jobWidget</text>
</a>
</g>
</g>
<!-- Node1 -->
<g id="Node000001" class="node">
<title>Node1</title>
<g id="a_Node000001"><a xlink:href="d3/d9c/classQHyodaJob.html" target="_top" xlink:title=" ">
<polygon fill="white" stroke="#666666" points="250.5,-315 179.5,-315 179.5,-296 250.5,-296 250.5,-315"/>
<text text-anchor="middle" x="215" y="-303" font-family="Helvetica,sans-Serif" font-size="10.00">QHyodaJob</text>
</a>
</g>
</g>
<!-- Node0&#45;&gt;Node1 -->
<g id="edge4191_Node000000_Node000001" class="edge">
<title>Node0&#45;&gt;Node1</title>
<g id="a_edge4191_Node000000_Node000001"><a xlink:title=" ">
<path fill="none" stroke="#63b8ff" d="M110.93,-305.5C133.42,-305.5 159.28,-305.5 179.47,-305.5"/>
<polygon fill="#63b8ff" stroke="#63b8ff" points="110.86,-302 100.86,-305.5 110.86,-309 110.86,-302"/>
</a>
</g>
</g>
<!-- Node5 -->
<g id="Node000005" class="node">
<title>Node5</title>
<g id="a_Node000005"><a xlink:title=" ">
<polygon fill="#e0e0e0" stroke="#999999" points="110,-278 8,-278 8,-259 110,-259 110,-278"/>
<text text-anchor="middle" x="59" y="-266" font-family="Helvetica,sans-Serif" font-size="10.00">Ui::profilerWidget</text>
</a>
</g>
</g>
<!-- Node4 -->
<g id="Node000004" class="node">
<title>Node4</title>
<g id="a_Node000004"><a xlink:href="d9/dc3/classQHyodaPapi.html" target="_top" xlink:title=" ">
<polygon fill="white" stroke="#666666" points="253,-278 177,-278 177,-259 253,-259 253,-278"/>
<text text-anchor="middle" x="215" y="-266" font-family="Helvetica,sans-Serif" font-size="10.00">QHyodaPapi</text>
</a>
</g>
</g>
<!-- Node5&#45;&gt;Node4 -->
<g id="edge4192_Node000005_Node000004" class="edge">
<title>Node5&#45;&gt;Node4</title>
<g id="a_edge4192_Node000005_Node000004"><a xlink:title=" ">
<path fill="none" stroke="#63b8ff" d="M120.48,-268.5C139.43,-268.5 159.79,-268.5 176.65,-268.5"/>
<polygon fill="#63b8ff" stroke="#63b8ff" points="120.43,-265 110.43,-268.5 120.43,-272 120.43,-265"/>
</a>
</g>
</g>
<!-- Node2 -->
<g id="Node000002" class="node">
<title>Node2</title>
<g id="a_Node000002"><a xlink:title=" ">
<polygon fill="#e0e0e0" stroke="#999999" points="88.5,-167 29.5,-167 29.5,-148 88.5,-148 88.5,-167"/>
<text text-anchor="middle" x="59" y="-155" font-family="Helvetica,sans-Serif" font-size="10.00">QWidget</text>
</a>
</g>
</g>
<!-- Node2&#45;&gt;Node1 -->
<g id="edge4193_Node000002_Node000001" class="edge">
<title>Node2&#45;&gt;Node1</title>
<g id="a_edge4193_Node000002_Node000001"><a xlink:title=" ">
<path fill="none" stroke="#63b8ff" d="M71.41,-176.21C91.36,-208.39 132.5,-272.22 154,-287.5 161.45,-292.79 170.46,-296.55 179.22,-299.21"/>
<polygon fill="#63b8ff" stroke="#63b8ff" points="74.17,-174.01 65.94,-167.33 68.2,-177.68 74.17,-174.01"/>
</a>
</g>
</g>
<!-- Node2&#45;&gt;Node4 -->
<g id="edge4195_Node000002_Node000004" class="edge">
<title>Node2&#45;&gt;Node4</title>
<g id="a_edge4195_Node000002_Node000004"><a xlink:title=" ">
<path fill="none" stroke="#63b8ff" d="M73.41,-175.28C90.09,-196.2 120.49,-230.61 154,-250.5 161.01,-254.66 169.07,-257.93 176.95,-260.47"/>
<polygon fill="#63b8ff" stroke="#63b8ff" points="76.04,-172.96 67.13,-167.22 70.52,-177.26 76.04,-172.96"/>
</a>
</g>
</g>
<!-- Node3 -->
<g id="Node000003" class="node">
<title>Node3</title>
<g id="a_Node000003"><a xlink:href="da/d76/classQHyodaMachine.html" target="_top" xlink:title=" ">
<polygon fill="white" stroke="#666666" points="263.5,-130 166.5,-130 166.5,-111 263.5,-111 263.5,-130"/>
<text text-anchor="middle" x="215" y="-118" font-family="Helvetica,sans-Serif" font-size="10.00">QHyodaMachine</text>
</a>
</g>
</g>
<!-- Node2&#45;&gt;Node3 -->
<g id="edge4194_Node000002_Node000003" class="edge">
<title>Node2&#45;&gt;Node3</title>
<g id="a_edge4194_Node000002_Node000003"><a xlink:title=" ">
<path fill="none" stroke="#63b8ff" d="M98.41,-148.27C121.52,-142.72 150.88,-135.66 174.23,-130.06"/>
<polygon fill="#63b8ff" stroke="#63b8ff" points="97.51,-144.89 88.61,-150.63 99.15,-151.69 97.51,-144.89"/>
</a>
</g>
</g>
<!-- Node6 -->
<g id="Node000006" class="node">
<title>Node6</title>
<g id="a_Node000006"><a xlink:href="dd/d2b/classQHyodaToolCell.html" target="_top" xlink:title=" ">
<polygon fill="white" stroke="#666666" points="262,-93 168,-93 168,-74 262,-74 262,-93"/>
<text text-anchor="middle" x="215" y="-81" font-family="Helvetica,sans-Serif" font-size="10.00">QHyodaToolCell</text>
</a>
</g>
</g>
<!-- Node2&#45;&gt;Node6 -->
<g id="edge4196_Node000002_Node000006" class="edge">
<title>Node2&#45;&gt;Node6</title>
<g id="a_edge4196_Node000002_Node000006"><a xlink:title=" ">
<path fill="none" stroke="#63b8ff" d="M82.74,-142.25C101.32,-130.28 128.57,-113.79 154,-102.5 161.99,-98.95 170.84,-95.77 179.24,-93.06"/>
<polygon fill="#63b8ff" stroke="#63b8ff" points="80.58,-139.48 74.12,-147.89 84.41,-145.34 80.58,-139.48"/>
</a>
</g>
</g>
<!-- Node8 -->
<g id="Node000008" class="node">
<title>Node8</title>
<g id="a_Node000008"><a xlink:href="d2/df1/classQHyodaToolMatrix.html" target="_top" xlink:title=" ">
<polygon fill="white" stroke="#666666" points="268.5,-56 161.5,-56 161.5,-37 268.5,-37 268.5,-56"/>
<text text-anchor="middle" x="215" y="-44" font-family="Helvetica,sans-Serif" font-size="10.00">QHyodaToolMatrix</text>
</a>
</g>
</g>
<!-- Node2&#45;&gt;Node8 -->
<g id="edge4197_Node000002_Node000008" class="edge">
<title>Node2&#45;&gt;Node8</title>
<g id="a_edge4197_Node000002_Node000008"><a xlink:title=" ">
<path fill="none" stroke="#63b8ff" d="M77.72,-141.04C89.3,-130.21 104.68,-115.65 118,-102.5 134.33,-86.38 134.47,-77.55 154,-65.5 160.14,-61.71 167.1,-58.62 174.05,-56.1"/>
<polygon fill="#63b8ff" stroke="#63b8ff" points="75.31,-138.51 70.39,-147.89 80.09,-143.62 75.31,-138.51"/>
</a>
</g>
</g>
<!-- Node10 -->
<g id="Node000010" class="node">
<title>Node10</title>
<g id="a_Node000010"><a xlink:href="de/d52/classQHyodaToolMesh.html" target="_top" xlink:title=" ">
<polygon fill="white" stroke="#666666" points="265.5,-19 164.5,-19 164.5,0 265.5,0 265.5,-19"/>
<text text-anchor="middle" x="215" y="-7" font-family="Helvetica,sans-Serif" font-size="10.00">QHyodaToolMesh</text>
</a>
</g>
</g>
<!-- Node2&#45;&gt;Node10 -->
<g id="edge4198_Node000002_Node000010" class="edge">
<title>Node2&#45;&gt;Node10</title>
<g id="a_edge4198_Node000002_Node000010"><a xlink:title=" ">
<path fill="none" stroke="#63b8ff" d="M80.6,-141.24C92.59,-131.03 107.38,-117.08 118,-102.5 139.78,-72.62 125.9,-51.53 154,-27.5 157.97,-24.11 162.56,-21.35 167.4,-19.12"/>
<polygon fill="#63b8ff" stroke="#63b8ff" points="78.31,-138.59 72.84,-147.67 82.77,-143.99 78.31,-138.59"/>
</a>
</g>
</g>
<!-- Node12 -->
<g id="Node000012" class="node">
<title>Node12</title>
<g id="a_Node000012"><a xlink:href="df/d17/classQHyodaX11.html" target="_top" xlink:title=" ">
<polygon fill="white" stroke="#666666" points="252,-241 178,-241 178,-222 252,-222 252,-241"/>
<text text-anchor="middle" x="215" y="-229" font-family="Helvetica,sans-Serif" font-size="10.00">QHyodaX11</text>
</a>
</g>
</g>
<!-- Node2&#45;&gt;Node12 -->
<g id="edge4199_Node000002_Node000012" class="edge">
<title>Node2&#45;&gt;Node12</title>
<g id="a_edge4199_Node000002_Node000012"><a xlink:title=" ">
<path fill="none" stroke="#63b8ff" d="M82.08,-172.78C100.62,-185.08 128.15,-202.13 154,-213.5 161.57,-216.83 169.93,-219.77 177.95,-222.25"/>
<polygon fill="#63b8ff" stroke="#63b8ff" points="84,-169.85 73.75,-167.17 80.09,-175.66 84,-169.85"/>
</a>
</g>
</g>
<!-- Node16 -->
<g id="Node000016" class="node">
<title>Node16</title>
<g id="a_Node000016"><a xlink:href="d1/d4c/classQHyodaX11Embed.html" target="_top" xlink:title=" ">
<polygon fill="white" stroke="#666666" points="269,-204 161,-204 161,-185 269,-185 269,-204"/>
<text text-anchor="middle" x="215" y="-192" font-family="Helvetica,sans-Serif" font-size="10.00">QHyodaX11Embed</text>
</a>
</g>
</g>
<!-- Node2&#45;&gt;Node16 -->
<g id="edge4203_Node000002_Node000016" class="edge">
<title>Node2&#45;&gt;Node16</title>
<g id="a_edge4203_Node000002_Node000016"><a xlink:title=" ">
<path fill="none" stroke="#63b8ff" d="M98.41,-166.73C121.52,-172.28 150.88,-179.34 174.23,-184.94"/>
<polygon fill="#63b8ff" stroke="#63b8ff" points="99.15,-163.31 88.61,-164.37 97.51,-170.11 99.15,-163.31"/>
</a>
</g>
</g>
<!-- Node17 -->
<g id="Node000017" class="node">
<title>Node17</title>
<g id="a_Node000017"><a xlink:href="dc/d63/classQHyodaX11XtermLog.html" target="_top" xlink:title=" ">
<polygon fill="white" stroke="#666666" points="276,-167 154,-167 154,-148 276,-148 276,-167"/>
<text text-anchor="middle" x="215" y="-155" font-family="Helvetica,sans-Serif" font-size="10.00">QHyodaX11XtermLog</text>
</a>
</g>
</g>
<!-- Node2&#45;&gt;Node17 -->
<g id="edge4204_Node000002_Node000017" class="edge">
<title>Node2&#45;&gt;Node17</title>
<g id="a_edge4204_Node000002_Node000017"><a xlink:title=" ">
<path fill="none" stroke="#63b8ff" d="M99.05,-157.5C115.71,-157.5 135.52,-157.5 153.97,-157.5"/>
<polygon fill="#63b8ff" stroke="#63b8ff" points="98.61,-154 88.61,-157.5 98.61,-161 98.61,-154"/>
</a>
</g>
</g>
<!-- Node13 -->
<g id="Node000013" class="node">
<title>Node13</title>
<g id="a_Node000013"><a xlink:href="d4/d50/classQHyodaX11Emacs.html" target="_top" xlink:title=" ">
<polygon fill="white" stroke="#666666" points="435,-278 328,-278 328,-259 435,-259 435,-278"/>
<text text-anchor="middle" x="381.5" y="-266" font-family="Helvetica,sans-Serif" font-size="10.00">QHyodaX11Emacs</text>
</a>
</g>
</g>
<!-- Node12&#45;&gt;Node13 -->
<g id="edge4200_Node000012_Node000013" class="edge">
<title>Node12&#45;&gt;Node13</title>
<g id="a_edge4200_Node000012_Node000013"><a xlink:title=" ">
<path fill="none" stroke="#63b8ff" d="M261.98,-241.84C285.83,-247.21 314.77,-253.72 338.08,-258.96"/>
<polygon fill="#63b8ff" stroke="#63b8ff" points="262.62,-238.4 252.1,-239.62 261.09,-245.23 262.62,-238.4"/>
</a>
</g>
</g>
<!-- Node14 -->
<g id="Node000014" class="node">
<title>Node14</title>
<g id="a_Node000014"><a xlink:href="d3/d68/classQHyodaX11Mathematica.html" target="_top" xlink:title=" ">
<polygon fill="white" stroke="#666666" points="451,-241 312,-241 312,-222 451,-222 451,-241"/>
<text text-anchor="middle" x="381.5" y="-229" font-family="Helvetica,sans-Serif" font-size="10.00">QHyodaX11Mathematica</text>
</a>
</g>
</g>
<!-- Node12&#45;&gt;Node14 -->
<g id="edge4201_Node000012_Node000014" class="edge">
<title>Node12&#45;&gt;Node14</title>
<g id="a_edge4201_Node000012_Node000014"><a xlink:title=" ">
<path fill="none" stroke="#63b8ff" d="M262.34,-231.5C277.66,-231.5 295.05,-231.5 311.69,-231.5"/>
<polygon fill="#63b8ff" stroke="#63b8ff" points="262.1,-228 252.1,-231.5 262.1,-235 262.1,-228"/>
</a>
</g>
</g>
<!-- Node15 -->
<g id="Node000015" class="node">
<title>Node15</title>
<g id="a_Node000015"><a xlink:href="dc/d36/classQHyodaX11Xterm.html" target="_top" xlink:title=" ">
<polygon fill="white" stroke="#666666" points="433.5,-204 329.5,-204 329.5,-185 433.5,-185 433.5,-204"/>
<text text-anchor="middle" x="381.5" y="-192" font-family="Helvetica,sans-Serif" font-size="10.00">QHyodaX11Xterm</text>
</a>
</g>
</g>
<!-- Node12&#45;&gt;Node15 -->
<g id="edge4202_Node000012_Node000015" class="edge">
<title>Node12&#45;&gt;Node15</title>
<g id="a_edge4202_Node000012_Node000015"><a xlink:title=" ">
<path fill="none" stroke="#63b8ff" d="M261.98,-221.16C285.83,-215.79 314.77,-209.28 338.08,-204.04"/>
<polygon fill="#63b8ff" stroke="#63b8ff" points="261.09,-217.77 252.1,-223.38 262.62,-224.6 261.09,-217.77"/>
</a>
</g>
</g>
<!-- Node7 -->
<g id="Node000007" class="node">
<title>Node7</title>
<g id="a_Node000007"><a xlink:title=" ">
<polygon fill="#e0e0e0" stroke="#999999" points="111.5,-93 6.5,-93 6.5,-74 111.5,-74 111.5,-93"/>
<text text-anchor="middle" x="59" y="-81" font-family="Helvetica,sans-Serif" font-size="10.00">Ui::toolCellWidget</text>
</a>
</g>
</g>
<!-- Node7&#45;&gt;Node6 -->
<g id="edge4205_Node000007_Node000006" class="edge">
<title>Node7&#45;&gt;Node6</title>
<g id="a_edge4205_Node000007_Node000006"><a xlink:title=" ">
<path fill="none" stroke="#63b8ff" d="M122.12,-83.5C137.4,-83.5 153.49,-83.5 167.86,-83.5"/>
<polygon fill="#63b8ff" stroke="#63b8ff" points="121.71,-80 111.71,-83.5 121.71,-87 121.71,-80"/>
</a>
</g>
</g>
<!-- Node9 -->
<g id="Node000009" class="node">
<title>Node9</title>
<g id="a_Node000009"><a xlink:title=" ">
<polygon fill="#e0e0e0" stroke="#999999" points="118,-56 0,-56 0,-37 118,-37 118,-56"/>
<text text-anchor="middle" x="59" y="-44" font-family="Helvetica,sans-Serif" font-size="10.00">Ui::toolMatrixWidget</text>
</a>
</g>
</g>
<!-- Node9&#45;&gt;Node8 -->
<g id="edge4206_Node000009_Node000008" class="edge">
<title>Node9&#45;&gt;Node8</title>
<g id="a_edge4206_Node000009_Node000008"><a xlink:title=" ">
<path fill="none" stroke="#63b8ff" d="M128.28,-46.5C139.35,-46.5 150.65,-46.5 161.27,-46.5"/>
<polygon fill="#63b8ff" stroke="#63b8ff" points="128.22,-43 118.22,-46.5 128.22,-50 128.22,-43"/>
</a>
</g>
</g>
<!-- Node11 -->
<g id="Node000011" class="node">
<title>Node11</title>
<g id="a_Node000011"><a xlink:title=" ">
<polygon fill="#e0e0e0" stroke="#999999" points="115.5,-19 2.5,-19 2.5,0 115.5,0 115.5,-19"/>
<text text-anchor="middle" x="59" y="-7" font-family="Helvetica,sans-Serif" font-size="10.00">Ui::toolMeshWidget</text>
</a>
</g>
</g>
<!-- Node11&#45;&gt;Node10 -->
<g id="edge4207_Node000011_Node000010" class="edge">
<title>Node11&#45;&gt;Node10</title>
<g id="a_edge4207_Node000011_Node000010"><a xlink:title=" ">
<path fill="none" stroke="#63b8ff" d="M125.83,-9.5C138.74,-9.5 152.09,-9.5 164.36,-9.5"/>
<polygon fill="#63b8ff" stroke="#63b8ff" points="125.6,-6 115.6,-9.5 125.6,-13 125.6,-6"/>
</a>
</g>
</g>
</g>
</svg>
