<?xml version="1.0" encoding="UTF-8" standalone="no"?>
<!DOCTYPE svg PUBLIC "-//W3C//DTD SVG 1.1//EN"
 "http://www.w3.org/Graphics/SVG/1.1/DTD/svg11.dtd">
<!-- Generated by graphviz version 2.43.0 (0)
 -->
<!-- Title: Graphe hiérarchique des classes Pages: 1 -->
<svg width="588pt" height="81pt"
 viewBox="0.00 0.00 588.00 81.00" xmlns="http://www.w3.org/2000/svg" xmlns:xlink="http://www.w3.org/1999/xlink">
<g id="graph0" class="graph" transform="scale(1 1) rotate(0) translate(4 77)">
<title>Graphe hiérarchique des classes</title>
<!-- Node0 -->
<g id="Node000000" class="node">
<title>Node0</title>
<g id="a_Node000000"><a xlink:href="dc/d66/classArcane_1_1SimdEnumeratorBase.html" target="_top" xlink:title="Classe de base des énumérateurs vectoriels avec indirection.">
<polygon fill="white" stroke="#666666" points="162,-45.5 0,-45.5 0,-26.5 162,-26.5 162,-45.5"/>
<text text-anchor="middle" x="81" y="-33.5" font-family="Helvetica,sans-Serif" font-size="10.00">Arcane::SimdEnumeratorBase</text>
</a>
</g>
</g>
<!-- Node1 -->
<g id="Node000001" class="node">
<title>Node1</title>
<g id="a_Node000001"><a xlink:href="d5/d9d/classArcane_1_1ComponentPartSimdCellEnumerator.html" target="_top" xlink:title="Enumérateur SIMD sur une sous&#45;partie (pure ou partielle) d&#39;un sous&#45;ensemble des mailles d&#39;un composan...">
<polygon fill="white" stroke="#666666" points="368.5,-73 212.5,-73 212.5,-43 368.5,-43 368.5,-73"/>
<text text-anchor="start" x="220.5" y="-61" font-family="Helvetica,sans-Serif" font-size="10.00">Arcane::ComponentPartSimd</text>
<text text-anchor="middle" x="290.5" y="-50" font-family="Helvetica,sans-Serif" font-size="10.00">CellEnumerator</text>
</a>
</g>
</g>
<!-- Node0&#45;&gt;Node1 -->
<g id="edge2838_Node000000_Node000001" class="edge">
<title>Node0&#45;&gt;Node1</title>
<g id="a_edge2838_Node000000_Node000001"><a xlink:title=" ">
<path fill="none" stroke="#63b8ff" d="M172.32,-45.58C185.62,-46.99 199.21,-48.43 212.22,-49.81"/>
<polygon fill="#63b8ff" stroke="#63b8ff" points="172.54,-42.08 162.22,-44.51 171.8,-49.04 172.54,-42.08"/>
</a>
</g>
</g>
<!-- Node2 -->
<g id="Node000002" class="node">
<title>Node2</title>
<g id="a_Node000002"><a xlink:href="df/dc4/classArcane_1_1SimdItemEnumeratorBase.html" target="_top" xlink:title="Classe de base des énumérateurs sur les entités vectortielles (SimdItem).">
<polygon fill="white" stroke="#666666" points="383,-24.5 198,-24.5 198,-5.5 383,-5.5 383,-24.5"/>
<text text-anchor="middle" x="290.5" y="-12.5" font-family="Helvetica,sans-Serif" font-size="10.00">Arcane::SimdItemEnumeratorBase</text>
</a>
</g>
</g>
<!-- Node0&#45;&gt;Node2 -->
<g id="edge2839_Node000000_Node000002" class="edge">
<title>Node0&#45;&gt;Node2</title>
<g id="a_edge2839_Node000000_Node000002"><a xlink:title=" ">
<path fill="none" stroke="#63b8ff" d="M172.4,-26.85C180.81,-26 189.33,-25.14 197.74,-24.29"/>
<polygon fill="#63b8ff" stroke="#63b8ff" points="171.82,-23.39 162.22,-27.88 172.53,-30.36 171.82,-23.39"/>
</a>
</g>
</g>
<!-- Node3 -->
<g id="Node000003" class="node">
<title>Node3</title>
<g id="a_Node000003"><a xlink:href="dd/d73/classArcane_1_1SimdItemEnumeratorT.html" target="_top" xlink:title="Enumérateur sur une liste d&#39;entités.">
<polygon fill="white" stroke="#666666" points="580,-30 419,-30 419,0 580,0 580,-30"/>
<text text-anchor="start" x="427" y="-18" font-family="Helvetica,sans-Serif" font-size="10.00">Arcane::SimdItemEnumerator</text>
<text text-anchor="middle" x="499.5" y="-7" font-family="Helvetica,sans-Serif" font-size="10.00">T&lt; ItemType &gt;</text>
</a>
</g>
</g>
<!-- Node2&#45;&gt;Node3 -->
<g id="edge2840_Node000002_Node000003" class="edge">
<title>Node2&#45;&gt;Node3</title>
<g id="a_edge2840_Node000002_Node000003"><a xlink:title=" ">
<path fill="none" stroke="#63b8ff" d="M393.27,-15C401.87,-15 410.48,-15 418.88,-15"/>
<polygon fill="#63b8ff" stroke="#63b8ff" points="393.2,-11.5 383.2,-15 393.2,-18.5 393.2,-11.5"/>
</a>
</g>
</g>
</g>
</svg>
