<?xml version="1.0" encoding="UTF-8" standalone="no"?>
<!DOCTYPE svg PUBLIC "-//W3C//DTD SVG 1.1//EN"
 "http://www.w3.org/Graphics/SVG/1.1/DTD/svg11.dtd">
<!-- Generated by graphviz version 14.1.2 (0)
 -->
<!-- Title: Arcane::TraceAccessor::fatal Pages: 1 -->
<!--zoomable 768 -->

<svg id="main" version="1.1" xmlns="http://www.w3.org/2000/svg" xmlns:xlink="http://www.w3.org/1999/xlink" xml:space="preserve" onload="init(evt)">

<style type="text/css"><![CDATA[
.node, .edge {opacity: 0.7;}
.node.selected, .edge.selected {opacity: 1;}
.edge:hover path { stroke: red; }
.edge:hover polygon { stroke: red; fill: red; }
]]></style>

<defs>
  <circle id="rim" cx="0" cy="0" r="7"/>
  <circle id="rim2" cx="0" cy="0" r="3.5"/>
  <g id="zoomPlus">
    <use xlink:href="#rim" fill="#404040"><set attributeName="fill" to="#808080" begin="zoomplus.mouseover" end="zoomplus.mouseout"/></use>
    <path d="M-4,0h8M0,-4v8" fill="none" stroke="white" stroke-width="1.5" pointer-events="none"/>
  </g>
  <g id="zoomMin">
    <use xlink:href="#rim" fill="#404040"><set attributeName="fill" to="#808080" begin="zoomminus.mouseover" end="zoomminus.mouseout"/></use>
    <path d="M-4,0h8" fill="none" stroke="white" stroke-width="1.5" pointer-events="none"/>
  </g>
  <g id="arrowUp" transform="translate(30 24)">
    <use xlink:href="#rim"/>
    <path pointer-events="none" fill="none" stroke="white" stroke-width="1.5" d="M0,-3.0v7 M-2.5,-0.5L0,-3.0L2.5,-0.5"/>
  </g>
  <g id="arrowRight" transform="rotate(90) translate(36 -43)">
    <use xlink:href="#rim"/>
    <path pointer-events="none" fill="none" stroke="white" stroke-width="1.5" d="M0,-3.0v7 M-2.5,-0.5L0,-3.0L2.5,-0.5"/>
  </g>
  <g id="arrowDown" transform="rotate(180) translate(-30 -48)">
    <use xlink:href="#rim"/>
    <path pointer-events="none" fill="none" stroke="white" stroke-width="1.5" d="M0,-3.0v7 M-2.5,-0.5L0,-3.0L2.5,-0.5"/>
  </g>
  <g id="arrowLeft" transform="rotate(270) translate(-36 17)">
    <use xlink:href="#rim"/>
    <path pointer-events="none" fill="none" stroke="white" stroke-width="1.5" d="M0,-3.0v7 M-2.5,-0.5L0,-3.0L2.5,-0.5"/>
  </g>
  <g id="resetDef">
    <use xlink:href="#rim2" fill="#404040"><set attributeName="fill" to="#808080" begin="reset.mouseover" end="reset.mouseout"/></use>
  </g>
</defs>
<script type="application/ecmascript">
var viewWidth = 1004;
var viewHeight = 768;
var sectionId = 'dynsection-5';
</script>
<script type="application/ecmascript" xlink:href="../../svg.min.js"/>
<svg id="graph" class="graph">
<g id="viewport">
<title>Arcane::TraceAccessor::fatal</title>
<!-- Node1 -->
<g id="Node000001" class="node">
<title>Node1</title>
<g id="a_Node000001"><a xlink:title="Flow for a fatal error message.">
<polygon fill="#999999" stroke="#666666" points="995.75,-397.5 871,-397.5 871,-364 995.75,-364 995.75,-397.5"/>
<text xml:space="preserve" text-anchor="start" x="879" y="-384" font-family="Helvetica,sans-Serif" font-size="10.00">Arcane::TraceAccessor</text>
<text xml:space="preserve" text-anchor="middle" x="933.38" y="-371.25" font-family="Helvetica,sans-Serif" font-size="10.00">::fatal</text>
</a>
</g>
</g>
<!-- Node2 -->
<g id="Node000002" class="node">
<title>Node2</title>
<g id="a_Node000002"><a xlink:href="../../dd/d49/classArcane_1_1mesh_1_1FaceUniqueIdBuilder.html#abe1b38534432e2a01c1fb6fca4b4e227" target="_top" xlink:title="Calculates the unique numbers for each face in parallel.">
<polygon fill="white" stroke="#666666" points="830.12,-759.88 655.12,-759.88 655.12,-713.62 830.12,-713.62 830.12,-759.88"/>
<text xml:space="preserve" text-anchor="start" x="663.12" y="-746.38" font-family="Helvetica,sans-Serif" font-size="10.00">Arcane::mesh::FaceUnique</text>
<text xml:space="preserve" text-anchor="start" x="663.12" y="-733.62" font-family="Helvetica,sans-Serif" font-size="10.00">IdBuilder::_computeFacesUnique</text>
<text xml:space="preserve" text-anchor="middle" x="742.62" y="-720.88" font-family="Helvetica,sans-Serif" font-size="10.00">IdsParallelV1</text>
</a>
</g>
</g>
<!-- Node1&#45;&gt;Node2 -->
<g id="edge1_Node000001_Node000002" class="edge">
<title>Node1&#45;&gt;Node2</title>
<g id="a_edge1_Node000001_Node000002"><a xlink:title=" ">
<path fill="none" stroke="#63b8ff" d="M931.58,-409.12C928.38,-470.11 912.54,-615.03 835,-699.75 830.26,-704.93 824.7,-709.39 818.69,-713.25"/>
<polygon fill="#63b8ff" stroke="#63b8ff" points="935.07,-409.41 932.01,-399.27 928.08,-409.11 935.07,-409.41"/>
</a>
</g>
</g>
<!-- Node3 -->
<g id="Node000003" class="node">
<title>Node3</title>
<g id="a_Node000003"><a xlink:href="../../dc/d2d/classArcane_1_1mesh_1_1MeshRefinement.html#ab108e2946255d45b9127b95b82dfbbda" target="_top" xlink:title=" ">
<polygon fill="white" stroke="#666666" points="828.25,-657.5 657,-657.5 657,-624 828.25,-624 828.25,-657.5"/>
<text xml:space="preserve" text-anchor="start" x="665" y="-644" font-family="Helvetica,sans-Serif" font-size="10.00">Arcane::mesh::MeshRefinement</text>
<text xml:space="preserve" text-anchor="middle" x="742.62" y="-631.25" font-family="Helvetica,sans-Serif" font-size="10.00">::_makeRefinementCompatible</text>
</a>
</g>
</g>
<!-- Node1&#45;&gt;Node3 -->
<g id="edge2_Node000001_Node000003" class="edge">
<title>Node1&#45;&gt;Node3</title>
<g id="a_edge2_Node000001_Node000003"><a xlink:title=" ">
<path fill="none" stroke="#63b8ff" d="M928.63,-409.1C920.6,-458.3 897.14,-559.49 835,-614.75 831.18,-618.15 826.94,-621.1 822.45,-623.68"/>
<polygon fill="#63b8ff" stroke="#63b8ff" points="932.08,-409.68 930.12,-399.27 925.16,-408.63 932.08,-409.68"/>
</a>
</g>
</g>
<!-- Node4 -->
<g id="Node000004" class="node">
<title>Node4</title>
<g id="a_Node000004"><a xlink:href="../../dc/d2d/classArcane_1_1mesh_1_1MeshRefinement.html#a61127955b9db295cb59a82007768fd1a" target="_top" xlink:title=" ">
<polygon fill="white" stroke="#666666" points="607.5,-709.5 436.25,-709.5 436.25,-676 607.5,-676 607.5,-709.5"/>
<text xml:space="preserve" text-anchor="start" x="444.25" y="-696" font-family="Helvetica,sans-Serif" font-size="10.00">Arcane::mesh::MeshRefinement</text>
<text xml:space="preserve" text-anchor="middle" x="521.88" y="-683.25" font-family="Helvetica,sans-Serif" font-size="10.00">::refineAndCoarsenItems</text>
</a>
</g>
</g>
<!-- Node1&#45;&gt;Node4 -->
<g id="edge27_Node000001_Node000004" class="edge">
<title>Node1&#45;&gt;Node4</title>
<g id="a_edge27_Node000001_Node000004"><a xlink:title=" ">
<path fill="none" stroke="#63b8ff" d="M932.22,-409.2C930.2,-468.09 916.44,-603.17 835,-666.75 800.82,-693.44 688.07,-696.96 607.92,-695.83"/>
<polygon fill="#63b8ff" stroke="#63b8ff" points="935.72,-409.44 932.46,-399.35 928.72,-409.27 935.72,-409.44"/>
</a>
</g>
</g>
<!-- Node6 -->
<g id="Node000006" class="node">
<title>Node6</title>
<g id="a_Node000006"><a xlink:href="../../da/d0e/classArcane_1_1VoronoiMeshIOService.html#a8c14905d484bf203e2c83f9f779fa133" target="_top" xlink:title="Reading of cells and their connectivity.">
<polygon fill="white" stroke="#666666" points="825.25,-605.5 660,-605.5 660,-572 825.25,-572 825.25,-605.5"/>
<text xml:space="preserve" text-anchor="start" x="668" y="-592" font-family="Helvetica,sans-Serif" font-size="10.00">Arcane::VoronoiMeshIOService</text>
<text xml:space="preserve" text-anchor="middle" x="742.62" y="-579.25" font-family="Helvetica,sans-Serif" font-size="10.00">::_readCellsHybridGrid</text>
</a>
</g>
</g>
<!-- Node1&#45;&gt;Node6 -->
<g id="edge5_Node000001_Node000006" class="edge">
<title>Node1&#45;&gt;Node6</title>
<g id="a_edge5_Node000001_Node000006"><a xlink:title=" ">
<path fill="none" stroke="#63b8ff" d="M924.95,-408.81C912.89,-448.94 885.15,-522.33 835,-562.75 830.76,-566.17 826.1,-569.13 821.19,-571.71"/>
<polygon fill="#63b8ff" stroke="#63b8ff" points="928.26,-409.99 927.66,-399.42 921.53,-408.06 928.26,-409.99"/>
</a>
</g>
</g>
<!-- Node7 -->
<g id="Node000007" class="node">
<title>Node7</title>
<g id="a_Node000007"><a xlink:href="../../d6/d15/classArcane_1_1VtkMeshIOService.html#ab1989ea0e298dde0185e0146d63a51ed" target="_top" xlink:title="Allows reading supplementary data (POINT_DATA / CELL_DATA).">
<polygon fill="white" stroke="#666666" points="815.12,-553.5 670.12,-553.5 670.12,-520 815.12,-520 815.12,-553.5"/>
<text xml:space="preserve" text-anchor="start" x="678.12" y="-540" font-family="Helvetica,sans-Serif" font-size="10.00">Arcane::VtkMeshIOService</text>
<text xml:space="preserve" text-anchor="middle" x="742.62" y="-527.25" font-family="Helvetica,sans-Serif" font-size="10.00">::_readData</text>
</a>
</g>
</g>
<!-- Node1&#45;&gt;Node7 -->
<g id="edge6_Node000001_Node000007" class="edge">
<title>Node1&#45;&gt;Node7</title>
<g id="a_edge6_Node000001_Node000007"><a xlink:title=" ">
<path fill="none" stroke="#63b8ff" d="M918.93,-408C902.94,-437.63 873.49,-484.28 835,-510.75 829.02,-514.86 822.4,-518.33 815.53,-521.25"/>
<polygon fill="#63b8ff" stroke="#63b8ff" points="921.97,-409.75 923.51,-399.27 915.77,-406.5 921.97,-409.75"/>
</a>
</g>
</g>
<!-- Node14 -->
<g id="Node000014" class="node">
<title>Node14</title>
<g id="a_Node000014"><a xlink:href="../../d8/d0f/classArcane_1_1mesh_1_1ItemFamily.html#ad7e247f71ece2468e96ad22388136eea" target="_top" xlink:title="Checks that the unique_ids are truly unique for all subdomains.">
<polygon fill="white" stroke="#666666" points="814.38,-501.5 670.88,-501.5 670.88,-468 814.38,-468 814.38,-501.5"/>
<text xml:space="preserve" text-anchor="start" x="678.88" y="-488" font-family="Helvetica,sans-Serif" font-size="10.00">Arcane::mesh::ItemFamily</text>
<text xml:space="preserve" text-anchor="middle" x="742.62" y="-475.25" font-family="Helvetica,sans-Serif" font-size="10.00">::checkUniqueIds</text>
</a>
</g>
</g>
<!-- Node1&#45;&gt;Node14 -->
<g id="edge15_Node000001_Node000014" class="edge">
<title>Node1&#45;&gt;Node14</title>
<g id="a_edge15_Node000001_Node000014"><a xlink:title=" ">
<path fill="none" stroke="#63b8ff" d="M907.4,-405.46C888.82,-422.6 862.09,-444.78 835,-458.75 828.55,-462.08 821.62,-465.03 814.56,-467.64"/>
<polygon fill="#63b8ff" stroke="#63b8ff" points="909.6,-408.19 914.48,-398.78 904.8,-403.09 909.6,-408.19"/>
</a>
</g>
</g>
<!-- Node15 -->
<g id="Node000015" class="node">
<title>Node15</title>
<g id="a_Node000015"><a xlink:href="../../d3/dcc/classArcane_1_1BasicRayMeshIntersection.html#a8902e5281455e9759a4f91d30e0401a9" target="_top" xlink:title="Calculates the intersection.">
<polygon fill="white" stroke="#666666" points="835,-449.5 650.25,-449.5 650.25,-416 835,-416 835,-449.5"/>
<text xml:space="preserve" text-anchor="start" x="658.25" y="-436" font-family="Helvetica,sans-Serif" font-size="10.00">Arcane::BasicRayMeshIntersection</text>
<text xml:space="preserve" text-anchor="middle" x="742.62" y="-423.25" font-family="Helvetica,sans-Serif" font-size="10.00">::compute</text>
</a>
</g>
</g>
<!-- Node1&#45;&gt;Node15 -->
<g id="edge16_Node000001_Node000015" class="edge">
<title>Node1&#45;&gt;Node15</title>
<g id="a_edge16_Node000001_Node000015"><a xlink:title=" ">
<path fill="none" stroke="#63b8ff" d="M859.74,-400.76C842.09,-405.62 823.36,-410.78 806.21,-415.51"/>
<polygon fill="#63b8ff" stroke="#63b8ff" points="860.4,-404.21 869.11,-398.18 858.54,-397.46 860.4,-404.21"/>
</a>
</g>
</g>
<!-- Node17 -->
<g id="Node000017" class="node">
<title>Node17</title>
<g id="a_Node000017"><a xlink:href="../../d8/d0f/classArcane_1_1mesh_1_1ItemFamily.html#a20437f28c029e346d1eacee63e9b4c32" target="_top" xlink:title="Creates an entity group named name.">
<polygon fill="white" stroke="#666666" points="814.38,-397.5 670.88,-397.5 670.88,-364 814.38,-364 814.38,-397.5"/>
<text xml:space="preserve" text-anchor="start" x="678.88" y="-384" font-family="Helvetica,sans-Serif" font-size="10.00">Arcane::mesh::ItemFamily</text>
<text xml:space="preserve" text-anchor="middle" x="742.62" y="-371.25" font-family="Helvetica,sans-Serif" font-size="10.00">::createGroup</text>
</a>
</g>
</g>
<!-- Node1&#45;&gt;Node17 -->
<g id="edge18_Node000001_Node000017" class="edge">
<title>Node1&#45;&gt;Node17</title>
<g id="a_edge18_Node000001_Node000017"><a xlink:title=" ">
<path fill="none" stroke="#63b8ff" d="M859.07,-380.75C844.5,-380.75 829.23,-380.75 814.74,-380.75"/>
<polygon fill="#63b8ff" stroke="#63b8ff" points="859.06,-384.25 869.06,-380.75 859.06,-377.25 859.06,-384.25"/>
</a>
</g>
</g>
<!-- Node18 -->
<g id="Node000018" class="node">
<title>Node18</title>
<g id="a_Node000018"><a xlink:href="../../d8/d0f/classArcane_1_1mesh_1_1ItemFamily.html#a09f8ff1b9f6b03e36aab76a1566e5875" target="_top" xlink:title=" ">
<polygon fill="white" stroke="#666666" points="814.38,-345.5 670.88,-345.5 670.88,-312 814.38,-312 814.38,-345.5"/>
<text xml:space="preserve" text-anchor="start" x="678.88" y="-332" font-family="Helvetica,sans-Serif" font-size="10.00">Arcane::mesh::ItemFamily</text>
<text xml:space="preserve" text-anchor="middle" x="742.62" y="-319.25" font-family="Helvetica,sans-Serif" font-size="10.00">::createGroup</text>
</a>
</g>
</g>
<!-- Node1&#45;&gt;Node18 -->
<g id="edge19_Node000001_Node000018" class="edge">
<title>Node1&#45;&gt;Node18</title>
<g id="a_edge19_Node000001_Node000018"><a xlink:title=" ">
<path fill="none" stroke="#63b8ff" d="M859.74,-360.74C842.09,-355.88 823.36,-350.72 806.21,-345.99"/>
<polygon fill="#63b8ff" stroke="#63b8ff" points="858.54,-364.04 869.11,-363.32 860.4,-357.29 858.54,-364.04"/>
</a>
</g>
</g>
<!-- Node19 -->
<g id="Node000019" class="node">
<title>Node19</title>
<g id="a_Node000019"><a xlink:href="../../d5/db7/classArcane_1_1SodStandardGroupsBuilder.html#ab481b49bdf91a26d54371a3990462d5a" target="_top" xlink:title="Creates the groups for initializing a Sod shock tube.">
<polygon fill="white" stroke="#666666" points="818.5,-293.5 666.75,-293.5 666.75,-260 818.5,-260 818.5,-293.5"/>
<text xml:space="preserve" text-anchor="start" x="674.75" y="-280" font-family="Helvetica,sans-Serif" font-size="10.00">Arcane::SodStandardGroups</text>
<text xml:space="preserve" text-anchor="middle" x="742.62" y="-267.25" font-family="Helvetica,sans-Serif" font-size="10.00">Builder::generateGroups</text>
</a>
</g>
</g>
<!-- Node1&#45;&gt;Node19 -->
<g id="edge20_Node000001_Node000019" class="edge">
<title>Node1&#45;&gt;Node19</title>
<g id="a_edge20_Node000001_Node000019"><a xlink:title=" ">
<path fill="none" stroke="#63b8ff" d="M907.4,-356.04C888.82,-338.9 862.09,-316.72 835,-302.75 828.55,-299.42 821.62,-296.47 814.56,-293.86"/>
<polygon fill="#63b8ff" stroke="#63b8ff" points="904.8,-358.41 914.48,-362.72 909.6,-353.31 904.8,-358.41"/>
</a>
</g>
</g>
<!-- Node20 -->
<g id="Node000020" class="node">
<title>Node20</title>
<g id="a_Node000020"><a xlink:href="../../de/d13/classArcane_1_1PapiPerformanceService.html#a9b81abb0d5c2e7871c8e2c5245ab2ec6" target="_top" xlink:title="Initializes the profiling service.">
<polygon fill="white" stroke="#666666" points="829.75,-241.5 655.5,-241.5 655.5,-208 829.75,-208 829.75,-241.5"/>
<text xml:space="preserve" text-anchor="start" x="663.5" y="-228" font-family="Helvetica,sans-Serif" font-size="10.00">Arcane::PapiPerformanceService</text>
<text xml:space="preserve" text-anchor="middle" x="742.62" y="-215.25" font-family="Helvetica,sans-Serif" font-size="10.00">::initialize</text>
</a>
</g>
</g>
<!-- Node1&#45;&gt;Node20 -->
<g id="edge21_Node000001_Node000020" class="edge">
<title>Node1&#45;&gt;Node20</title>
<g id="a_edge21_Node000001_Node000020"><a xlink:title=" ">
<path fill="none" stroke="#63b8ff" d="M918.93,-353.5C902.94,-323.87 873.49,-277.22 835,-250.75 830.11,-247.38 824.79,-244.45 819.25,-241.9"/>
<polygon fill="#63b8ff" stroke="#63b8ff" points="915.77,-355 923.51,-362.23 921.97,-351.75 915.77,-355"/>
</a>
</g>
</g>
<!-- Node21 -->
<g id="Node000021" class="node">
<title>Node21</title>
<g id="a_Node000021"><a xlink:href="../../d2/dd4/classArcane_1_1SplitSDMeshPartitioner.html#ac89ac83b6779385cb07ab6885701bb83" target="_top" xlink:title="We use a front&#45;tracking method to go from an overloaded node to other nodes by memorizing the path to...">
<polygon fill="white" stroke="#666666" points="826.38,-189.5 658.88,-189.5 658.88,-156 826.38,-156 826.38,-189.5"/>
<text xml:space="preserve" text-anchor="start" x="666.88" y="-176" font-family="Helvetica,sans-Serif" font-size="10.00">Arcane::SplitSDMeshPartitioner</text>
<text xml:space="preserve" text-anchor="middle" x="742.62" y="-163.25" font-family="Helvetica,sans-Serif" font-size="10.00">::MAJDeltaGlobal</text>
</a>
</g>
</g>
<!-- Node1&#45;&gt;Node21 -->
<g id="edge22_Node000001_Node000021" class="edge">
<title>Node1&#45;&gt;Node21</title>
<g id="a_edge22_Node000001_Node000021"><a xlink:title=" ">
<path fill="none" stroke="#63b8ff" d="M924.95,-352.69C912.89,-312.56 885.15,-239.17 835,-198.75 830.76,-195.33 826.1,-192.37 821.19,-189.79"/>
<polygon fill="#63b8ff" stroke="#63b8ff" points="921.53,-353.44 927.66,-362.08 928.26,-351.51 921.53,-353.44"/>
</a>
</g>
</g>
<!-- Node24 -->
<g id="Node000024" class="node">
<title>Node24</title>
<g id="a_Node000024"><a xlink:href="../../df/de9/classArcane_1_1Hdf5VariableReaderHelper2.html#ab29ca6f96c28d7e33a0f4965478cb7c1" target="_top" xlink:title="Opens the file containing the reading information.">
<polygon fill="white" stroke="#666666" points="819.25,-137.5 666,-137.5 666,-104 819.25,-104 819.25,-137.5"/>
<text xml:space="preserve" text-anchor="start" x="674" y="-124" font-family="Helvetica,sans-Serif" font-size="10.00">Arcane::Hdf5VariableReader</text>
<text xml:space="preserve" text-anchor="middle" x="742.62" y="-111.25" font-family="Helvetica,sans-Serif" font-size="10.00">Helper2::open</text>
</a>
</g>
</g>
<!-- Node1&#45;&gt;Node24 -->
<g id="edge25_Node000001_Node000024" class="edge">
<title>Node1&#45;&gt;Node24</title>
<g id="a_edge25_Node000001_Node000024"><a xlink:title=" ">
<path fill="none" stroke="#63b8ff" d="M928.63,-352.4C920.6,-303.2 897.14,-202.01 835,-146.75 830.32,-142.59 825.01,-139.08 819.37,-136.14"/>
<polygon fill="#63b8ff" stroke="#63b8ff" points="925.16,-352.87 930.12,-362.23 932.08,-351.82 925.16,-352.87"/>
</a>
</g>
</g>
<!-- Node25 -->
<g id="Node000025" class="node">
<title>Node25</title>
<g id="a_Node000025"><a xlink:href="../../d2/d12/classArcane_1_1Hdf5VariableReaderHelper.html#abaa99aab751a19a69b3d2eb62e12ee4d" target="_top" xlink:title="Opens the file containing the reading information.">
<polygon fill="white" stroke="#666666" points="819.25,-85.5 666,-85.5 666,-52 819.25,-52 819.25,-85.5"/>
<text xml:space="preserve" text-anchor="start" x="674" y="-72" font-family="Helvetica,sans-Serif" font-size="10.00">Arcane::Hdf5VariableReader</text>
<text xml:space="preserve" text-anchor="middle" x="742.62" y="-59.25" font-family="Helvetica,sans-Serif" font-size="10.00">Helper::open</text>
</a>
</g>
</g>
<!-- Node1&#45;&gt;Node25 -->
<g id="edge26_Node000001_Node000025" class="edge">
<title>Node1&#45;&gt;Node25</title>
<g id="a_edge26_Node000001_Node000025"><a xlink:title=" ">
<path fill="none" stroke="#63b8ff" d="M931.09,-352.34C926.95,-295.12 909.39,-165.44 835,-94.75 830.46,-90.43 825.25,-86.82 819.67,-83.81"/>
<polygon fill="#63b8ff" stroke="#63b8ff" points="927.59,-352.44 931.71,-362.2 934.58,-352.01 927.59,-352.44"/>
</a>
</g>
</g>
<!-- Node26 -->
<g id="Node000026" class="node">
<title>Node26</title>
<g id="a_Node000026"><a xlink:href="../../d8/d0f/classArcane_1_1mesh_1_1ItemFamily.html#a8bbbe9d3c8a2701554f19cf0b015d260" target="_top" xlink:title="Removes entities.">
<polygon fill="white" stroke="#666666" points="814.38,-33.5 670.88,-33.5 670.88,0 814.38,0 814.38,-33.5"/>
<text xml:space="preserve" text-anchor="start" x="678.88" y="-20" font-family="Helvetica,sans-Serif" font-size="10.00">Arcane::mesh::ItemFamily</text>
<text xml:space="preserve" text-anchor="middle" x="742.62" y="-7.25" font-family="Helvetica,sans-Serif" font-size="10.00">::removeItems2</text>
</a>
</g>
</g>
<!-- Node1&#45;&gt;Node26 -->
<g id="edge28_Node000001_Node000026" class="edge">
<title>Node1&#45;&gt;Node26</title>
<g id="a_edge28_Node000001_Node000026"><a xlink:title=" ">
<path fill="none" stroke="#63b8ff" d="M932.86,-352.24C932.34,-287.68 921.75,-129.22 835,-42.75 829.16,-36.93 822.11,-32.39 814.56,-28.85"/>
<polygon fill="#63b8ff" stroke="#63b8ff" points="929.36,-351.99 932.85,-361.99 936.36,-352 929.36,-351.99"/>
</a>
</g>
</g>
<!-- Node3&#45;&gt;Node4 -->
<g id="edge3_Node000003_Node000004" class="edge">
<title>Node3&#45;&gt;Node4</title>
<g id="a_edge3_Node000003_Node000004"><a xlink:title=" ">
<path fill="none" stroke="#63b8ff" d="M658.07,-660.61C637.36,-665.54 615.34,-670.77 595.22,-675.55"/>
<polygon fill="#63b8ff" stroke="#63b8ff" points="658.7,-664.06 667.62,-658.34 657.08,-657.25 658.7,-664.06"/>
</a>
</g>
</g>
<!-- Node5 -->
<g id="Node000005" class="node">
<title>Node5</title>
<g id="a_Node000005"><a xlink:href="../../dc/d2d/classArcane_1_1mesh_1_1MeshRefinement.html#a612f38a439718308fc3c65f8a52d48d1" target="_top" xlink:title=" ">
<polygon fill="white" stroke="#666666" points="607.5,-657.5 436.25,-657.5 436.25,-624 607.5,-624 607.5,-657.5"/>
<text xml:space="preserve" text-anchor="start" x="444.25" y="-644" font-family="Helvetica,sans-Serif" font-size="10.00">Arcane::mesh::MeshRefinement</text>
<text xml:space="preserve" text-anchor="middle" x="521.88" y="-631.25" font-family="Helvetica,sans-Serif" font-size="10.00">::refineItems</text>
</a>
</g>
</g>
<!-- Node3&#45;&gt;Node5 -->
<g id="edge4_Node000003_Node000005" class="edge">
<title>Node3&#45;&gt;Node5</title>
<g id="a_edge4_Node000003_Node000005"><a xlink:title=" ">
<path fill="none" stroke="#63b8ff" d="M645.32,-640.75C632.79,-640.75 620.03,-640.75 607.71,-640.75"/>
<polygon fill="#63b8ff" stroke="#63b8ff" points="645.22,-644.25 655.22,-640.75 645.22,-637.25 645.22,-644.25"/>
</a>
</g>
</g>
<!-- Node8 -->
<g id="Node000008" class="node">
<title>Node8</title>
<g id="a_Node000008"><a xlink:href="../../d6/d15/classArcane_1_1VtkMeshIOService.html#aa01640e48757950ac0172b43e073e580" target="_top" xlink:title="Allows reading the truc.vtkfaces.vtk file (if it exists).">
<polygon fill="white" stroke="#666666" points="594.38,-605.5 449.38,-605.5 449.38,-572 594.38,-572 594.38,-605.5"/>
<text xml:space="preserve" text-anchor="start" x="457.38" y="-592" font-family="Helvetica,sans-Serif" font-size="10.00">Arcane::VtkMeshIOService</text>
<text xml:space="preserve" text-anchor="middle" x="521.88" y="-579.25" font-family="Helvetica,sans-Serif" font-size="10.00">::_readFacesMesh</text>
</a>
</g>
</g>
<!-- Node7&#45;&gt;Node8 -->
<g id="edge7_Node000007_Node000008" class="edge">
<title>Node7&#45;&gt;Node8</title>
<g id="a_edge7_Node000007_Node000008"><a xlink:title=" ">
<path fill="none" stroke="#63b8ff" d="M658.54,-556.5C637.57,-561.49 615.22,-566.8 594.85,-571.64"/>
<polygon fill="#63b8ff" stroke="#63b8ff" points="659.3,-559.92 668.22,-554.2 657.68,-553.11 659.3,-559.92"/>
</a>
</g>
</g>
<!-- Node12 -->
<g id="Node000012" class="node">
<title>Node12</title>
<g id="a_Node000012"><a xlink:href="../../d6/d15/classArcane_1_1VtkMeshIOService.html#a3da0bde8376e17b0a4557fd694a7e482" target="_top" xlink:title="Allows reading a vtk file containing a STRUCTURED_GRID.">
<polygon fill="white" stroke="#666666" points="594.38,-553.5 449.38,-553.5 449.38,-520 594.38,-520 594.38,-553.5"/>
<text xml:space="preserve" text-anchor="start" x="457.38" y="-540" font-family="Helvetica,sans-Serif" font-size="10.00">Arcane::VtkMeshIOService</text>
<text xml:space="preserve" text-anchor="middle" x="521.88" y="-527.25" font-family="Helvetica,sans-Serif" font-size="10.00">::_readStructuredGrid</text>
</a>
</g>
</g>
<!-- Node7&#45;&gt;Node12 -->
<g id="edge11_Node000007_Node000012" class="edge">
<title>Node7&#45;&gt;Node12</title>
<g id="a_edge11_Node000007_Node000012"><a xlink:title=" ">
<path fill="none" stroke="#63b8ff" d="M658.25,-536.75C637.36,-536.75 615.13,-536.75 594.85,-536.75"/>
<polygon fill="#63b8ff" stroke="#63b8ff" points="658.18,-540.25 668.18,-536.75 658.18,-533.25 658.18,-540.25"/>
</a>
</g>
</g>
<!-- Node13 -->
<g id="Node000013" class="node">
<title>Node13</title>
<g id="a_Node000013"><a xlink:href="../../d6/d15/classArcane_1_1VtkMeshIOService.html#af373c7d54b8f0d1551601556fccb6436" target="_top" xlink:title="Allows reading a vtk file containing an UNSTRUCTURED_GRID.">
<polygon fill="white" stroke="#666666" points="594.38,-501.5 449.38,-501.5 449.38,-468 594.38,-468 594.38,-501.5"/>
<text xml:space="preserve" text-anchor="start" x="457.38" y="-488" font-family="Helvetica,sans-Serif" font-size="10.00">Arcane::VtkMeshIOService</text>
<text xml:space="preserve" text-anchor="middle" x="521.88" y="-475.25" font-family="Helvetica,sans-Serif" font-size="10.00">::_readUnstructuredGrid</text>
</a>
</g>
</g>
<!-- Node7&#45;&gt;Node13 -->
<g id="edge13_Node000007_Node000013" class="edge">
<title>Node7&#45;&gt;Node13</title>
<g id="a_edge13_Node000007_Node000013"><a xlink:title=" ">
<path fill="none" stroke="#63b8ff" d="M658.54,-517C637.57,-512.01 615.22,-506.7 594.85,-501.86"/>
<polygon fill="#63b8ff" stroke="#63b8ff" points="657.68,-520.39 668.22,-519.3 659.3,-513.58 657.68,-520.39"/>
</a>
</g>
</g>
<!-- Node9 -->
<g id="Node000009" class="node">
<title>Node9</title>
<g id="a_Node000009"><a xlink:href="../../d6/d15/classArcane_1_1VtkMeshIOService.html#acc2e361baece2c5ce441ee530485d6cf" target="_top" xlink:title="Allows starting the reading of a vtk file.">
<polygon fill="white" stroke="#666666" points="382.25,-553.5 237.25,-553.5 237.25,-520 382.25,-520 382.25,-553.5"/>
<text xml:space="preserve" text-anchor="start" x="245.25" y="-540" font-family="Helvetica,sans-Serif" font-size="10.00">Arcane::VtkMeshIOService</text>
<text xml:space="preserve" text-anchor="middle" x="309.75" y="-527.25" font-family="Helvetica,sans-Serif" font-size="10.00">::readMesh</text>
</a>
</g>
</g>
<!-- Node8&#45;&gt;Node9 -->
<g id="edge8_Node000008_Node000009" class="edge">
<title>Node8&#45;&gt;Node9</title>
<g id="a_edge8_Node000008_Node000009"><a xlink:title=" ">
<path fill="none" stroke="#63b8ff" d="M440.06,-568.75C420.33,-563.87 399.39,-558.69 380.24,-553.95"/>
<polygon fill="#63b8ff" stroke="#63b8ff" points="439.18,-572.14 449.73,-571.14 440.86,-565.34 439.18,-572.14"/>
</a>
</g>
</g>
<!-- Node10 -->
<g id="Node000010" class="node">
<title>Node10</title>
<g id="a_Node000010"><a xlink:href="../../d3/d89/classArcane_1_1VtkLegacyCaseMeshReader_1_1Builder.html#a138b9e820142f0580c305262dfdfd282" target="_top" xlink:title="Allocates the mesh entities managed by this service.">
<polygon fill="white" stroke="#666666" points="190,-579.5 0,-579.5 0,-546 190,-546 190,-579.5"/>
<text xml:space="preserve" text-anchor="start" x="8" y="-566" font-family="Helvetica,sans-Serif" font-size="10.00">Arcane::VtkLegacyCaseMesh</text>
<text xml:space="preserve" text-anchor="middle" x="95" y="-553.25" font-family="Helvetica,sans-Serif" font-size="10.00">Reader::Builder::allocateMeshItems</text>
</a>
</g>
</g>
<!-- Node9&#45;&gt;Node10 -->
<g id="edge9_Node000009_Node000010" class="edge">
<title>Node9&#45;&gt;Node10</title>
<g id="a_edge9_Node000009_Node000010"><a xlink:title=" ">
<path fill="none" stroke="#63b8ff" d="M225.63,-546.91C214.09,-548.32 202.17,-549.78 190.44,-551.21"/>
<polygon fill="#63b8ff" stroke="#63b8ff" points="226.02,-550.39 235.52,-545.7 225.17,-543.44 226.02,-550.39"/>
</a>
</g>
</g>
<!-- Node11 -->
<g id="Node000011" class="node">
<title>Node11</title>
<g id="a_Node000011"><a xlink:href="../../d8/dac/classArcane_1_1VtkMeshReader.html#a3a0f308c69bdea6fe24ed38900cd9377" target="_top" xlink:title="Reads a mesh from a file.">
<polygon fill="white" stroke="#666666" points="161.5,-527.5 28.5,-527.5 28.5,-494 161.5,-494 161.5,-527.5"/>
<text xml:space="preserve" text-anchor="start" x="36.5" y="-514" font-family="Helvetica,sans-Serif" font-size="10.00">Arcane::VtkMeshReader</text>
<text xml:space="preserve" text-anchor="middle" x="95" y="-501.25" font-family="Helvetica,sans-Serif" font-size="10.00">::readMeshFromFile</text>
</a>
</g>
</g>
<!-- Node9&#45;&gt;Node11 -->
<g id="edge10_Node000009_Node000011" class="edge">
<title>Node9&#45;&gt;Node11</title>
<g id="a_edge10_Node000009_Node000011"><a xlink:title=" ">
<path fill="none" stroke="#63b8ff" d="M225.71,-526.6C204.47,-524.01 181.92,-521.25 161.69,-518.78"/>
<polygon fill="#63b8ff" stroke="#63b8ff" points="225.17,-530.06 235.52,-527.8 226.02,-523.11 225.17,-530.06"/>
</a>
</g>
</g>
<!-- Node12&#45;&gt;Node9 -->
<g id="edge12_Node000012_Node000009" class="edge">
<title>Node12&#45;&gt;Node9</title>
<g id="a_edge12_Node000012_Node000009"><a xlink:title=" ">
<path fill="none" stroke="#63b8ff" d="M437.89,-536.75C419.58,-536.75 400.33,-536.75 382.51,-536.75"/>
<polygon fill="#63b8ff" stroke="#63b8ff" points="437.64,-540.25 447.64,-536.75 437.64,-533.25 437.64,-540.25"/>
</a>
</g>
</g>
<!-- Node13&#45;&gt;Node9 -->
<g id="edge14_Node000013_Node000009" class="edge">
<title>Node13&#45;&gt;Node9</title>
<g id="a_edge14_Node000013_Node000009"><a xlink:title=" ">
<path fill="none" stroke="#63b8ff" d="M440.06,-504.75C420.33,-509.63 399.39,-514.81 380.24,-519.55"/>
<polygon fill="#63b8ff" stroke="#63b8ff" points="440.86,-508.16 449.73,-502.36 439.18,-501.36 440.86,-508.16"/>
</a>
</g>
</g>
<!-- Node16 -->
<g id="Node000016" class="node">
<title>Node16</title>
<g id="a_Node000016"><a xlink:href="../../d3/dcc/classArcane_1_1BasicRayMeshIntersection.html#ad732ab39d177f29c70523684bcb7287e" target="_top" xlink:title="Calculates the intersection of rays.">
<polygon fill="white" stroke="#666666" points="614.25,-449.5 429.5,-449.5 429.5,-416 614.25,-416 614.25,-449.5"/>
<text xml:space="preserve" text-anchor="start" x="437.5" y="-436" font-family="Helvetica,sans-Serif" font-size="10.00">Arcane::BasicRayMeshIntersection</text>
<text xml:space="preserve" text-anchor="middle" x="521.88" y="-423.25" font-family="Helvetica,sans-Serif" font-size="10.00">::compute</text>
</a>
</g>
</g>
<!-- Node15&#45;&gt;Node16 -->
<g id="edge17_Node000015_Node000016" class="edge">
<title>Node15&#45;&gt;Node16</title>
<g id="a_edge17_Node000015_Node000016"><a xlink:title=" ">
<path fill="none" stroke="#63b8ff" d="M638.5,-432.75C630.48,-432.75 622.4,-432.75 614.46,-432.75"/>
<polygon fill="#63b8ff" stroke="#63b8ff" points="638.29,-436.25 648.29,-432.75 638.29,-429.25 638.29,-436.25"/>
</a>
</g>
</g>
<!-- Node22 -->
<g id="Node000022" class="node">
<title>Node22</title>
<g id="a_Node000022"><a xlink:href="../../d2/dd4/classArcane_1_1SplitSDMeshPartitioner.html#add24e7933ac069d041ffea6a5b1f2530" target="_top" xlink:title="iterative phase to balance the load">
<polygon fill="white" stroke="#666666" points="605.62,-189.5 438.12,-189.5 438.12,-156 605.62,-156 605.62,-189.5"/>
<text xml:space="preserve" text-anchor="start" x="446.12" y="-176" font-family="Helvetica,sans-Serif" font-size="10.00">Arcane::SplitSDMeshPartitioner</text>
<text xml:space="preserve" text-anchor="middle" x="521.88" y="-163.25" font-family="Helvetica,sans-Serif" font-size="10.00">::Equilibrage</text>
</a>
</g>
</g>
<!-- Node21&#45;&gt;Node22 -->
<g id="edge23_Node000021_Node000022" class="edge">
<title>Node21&#45;&gt;Node22</title>
<g id="a_edge23_Node000021_Node000022"><a xlink:title=" ">
<path fill="none" stroke="#63b8ff" d="M647.16,-172.75C633.4,-172.75 619.33,-172.75 605.83,-172.75"/>
<polygon fill="#63b8ff" stroke="#63b8ff" points="647.1,-176.25 657.1,-172.75 647.1,-169.25 647.1,-176.25"/>
</a>
</g>
</g>
<!-- Node23 -->
<g id="Node000023" class="node">
<title>Node23</title>
<g id="a_Node000023"><a xlink:href="../../d2/dd4/classArcane_1_1SplitSDMeshPartitioner.html#a9e68a31b54f4b328bf7842c3184baa2e" target="_top" xlink:title=" ">
<polygon fill="white" stroke="#666666" points="393.5,-189.5 226,-189.5 226,-156 393.5,-156 393.5,-189.5"/>
<text xml:space="preserve" text-anchor="start" x="234" y="-176" font-family="Helvetica,sans-Serif" font-size="10.00">Arcane::SplitSDMeshPartitioner</text>
<text xml:space="preserve" text-anchor="middle" x="309.75" y="-163.25" font-family="Helvetica,sans-Serif" font-size="10.00">::partitionMesh</text>
</a>
</g>
</g>
<!-- Node22&#45;&gt;Node23 -->
<g id="edge24_Node000022_Node000023" class="edge">
<title>Node22&#45;&gt;Node23</title>
<g id="a_edge24_Node000022_Node000023"><a xlink:title=" ">
<path fill="none" stroke="#63b8ff" d="M426.55,-172.75C415.66,-172.75 404.61,-172.75 393.88,-172.75"/>
<polygon fill="#63b8ff" stroke="#63b8ff" points="426.31,-176.25 436.31,-172.75 426.31,-169.25 426.31,-176.25"/>
</a>
</g>
</g>
</g>
</svg>

<g id="navigator" transform="translate(0 0)" fill="#404254">
  <rect fill="#f2f5e9" fill-opacity="0.5" stroke="#606060" stroke-width=".5" x="0" y="0" width="60" height="60"/>
  <use id="zoomplus" xlink:href="#zoomPlus" x="17" y="9" onmousedown="handleZoom(evt,'in')"/>
  <use id="zoomminus" xlink:href="#zoomMin" x="42" y="9" onmousedown="handleZoom(evt,'out')"/>
  <use id="reset" xlink:href="#resetDef" x="30" y="36" onmousedown="handleReset()"/>
   <use id="arrowup" xlink:href="#arrowUp" x="0" y="0" onmousedown="handlePan(0,-1)"/>
  <use id="arrowright" xlink:href="#arrowRight" x="0" y="0" onmousedown="handlePan(1,0)"/>
  <use id="arrowdown" xlink:href="#arrowDown" x="0" y="0" onmousedown="handlePan(0,1)"/>
  <use id="arrowleft" xlink:href="#arrowLeft" x="0" y="0" onmousedown="handlePan(-1,0)"/>
</g>
<svg viewBox="0 0 15 15" width="100%" height="30px" preserveAspectRatio="xMaxYMin meet">
 <g id="arrow_out" transform="scale(0.3 0.3)">
  <a xlink:href="classArcane_1_1TraceAccessor_a57a4d1a39231385d154c96326b4a21c7_icgraph_org.svg" target="_base">
   <rect id="button" ry="5" rx="5" y="6" x="6" height="38" width="38"
        fill="#f2f5e9" fill-opacity="0.5" stroke="#606060" stroke-width="1.0"/>
   <path id="arrow"
     d="M 11.500037,31.436501 C 11.940474,20.09759 22.043105,11.32322 32.158766,21.979434 L 37.068811,17.246167 C 37.068811,17.246167 37.088388,32 37.088388,32 L 22.160133,31.978069 C 22.160133,31.978069 26.997745,27.140456 26.997745,27.140456 C 18.528582,18.264221 13.291696,25.230495 11.500037,31.436501 z"
     style="fill:#404040;"/>
  </a>
 </g>
</svg>

<style type='text/css'>
<![CDATA[
[data-mouse-over-selected='false'] { opacity: 0.7; }
[data-mouse-over-selected='true']  { opacity: 1.0; }
]]>
</style>
<script type="application/ecmascript"><![CDATA[
document.addEventListener('DOMContentLoaded', (event) => {
  highlightEdges();
  highlightAdjacentNodes();
});
]]></script>
</svg>
