<?xml version="1.0" encoding="UTF-8" standalone="no"?>
<!DOCTYPE svg PUBLIC "-//W3C//DTD SVG 1.1//EN"
 "http://www.w3.org/Graphics/SVG/1.1/DTD/svg11.dtd">
<!-- Generated by graphviz version 14.1.2 (0)
 -->
<!-- Title: Arcane::TraceAccessor::pwarning Pages: 1 -->
<!--zoomable 744 -->

<svg id="main" version="1.1" xmlns="http://www.w3.org/2000/svg" xmlns:xlink="http://www.w3.org/1999/xlink" xml:space="preserve" onload="init(evt)">

<style type="text/css"><![CDATA[
.node, .edge {opacity: 0.7;}
.node.selected, .edge.selected {opacity: 1;}
.edge:hover path { stroke: red; }
.edge:hover polygon { stroke: red; fill: red; }
]]></style>

<defs>
  <circle id="rim" cx="0" cy="0" r="7"/>
  <circle id="rim2" cx="0" cy="0" r="3.5"/>
  <g id="zoomPlus">
    <use xlink:href="#rim" fill="#404040"><set attributeName="fill" to="#808080" begin="zoomplus.mouseover" end="zoomplus.mouseout"/></use>
    <path d="M-4,0h8M0,-4v8" fill="none" stroke="white" stroke-width="1.5" pointer-events="none"/>
  </g>
  <g id="zoomMin">
    <use xlink:href="#rim" fill="#404040"><set attributeName="fill" to="#808080" begin="zoomminus.mouseover" end="zoomminus.mouseout"/></use>
    <path d="M-4,0h8" fill="none" stroke="white" stroke-width="1.5" pointer-events="none"/>
  </g>
  <g id="arrowUp" transform="translate(30 24)">
    <use xlink:href="#rim"/>
    <path pointer-events="none" fill="none" stroke="white" stroke-width="1.5" d="M0,-3.0v7 M-2.5,-0.5L0,-3.0L2.5,-0.5"/>
  </g>
  <g id="arrowRight" transform="rotate(90) translate(36 -43)">
    <use xlink:href="#rim"/>
    <path pointer-events="none" fill="none" stroke="white" stroke-width="1.5" d="M0,-3.0v7 M-2.5,-0.5L0,-3.0L2.5,-0.5"/>
  </g>
  <g id="arrowDown" transform="rotate(180) translate(-30 -48)">
    <use xlink:href="#rim"/>
    <path pointer-events="none" fill="none" stroke="white" stroke-width="1.5" d="M0,-3.0v7 M-2.5,-0.5L0,-3.0L2.5,-0.5"/>
  </g>
  <g id="arrowLeft" transform="rotate(270) translate(-36 17)">
    <use xlink:href="#rim"/>
    <path pointer-events="none" fill="none" stroke="white" stroke-width="1.5" d="M0,-3.0v7 M-2.5,-0.5L0,-3.0L2.5,-0.5"/>
  </g>
  <g id="resetDef">
    <use xlink:href="#rim2" fill="#404040"><set attributeName="fill" to="#808080" begin="reset.mouseover" end="reset.mouseout"/></use>
  </g>
</defs>
<script type="application/ecmascript">
var viewWidth = 1057;
var viewHeight = 744;
var sectionId = 'dynsection-15';
</script>
<script type="application/ecmascript" xlink:href="../../svg.min.js"/>
<svg id="graph" class="graph">
<g id="viewport">
<title>Arcane::TraceAccessor::pwarning</title>
<!-- Node1 -->
<g id="Node000001" class="node">
<title>Node1</title>
<g id="a_Node000001"><a xlink:title=" ">
<polygon fill="#999999" stroke="#666666" points="1049.25,-397.5 924.5,-397.5 924.5,-364 1049.25,-364 1049.25,-397.5"/>
<text xml:space="preserve" text-anchor="start" x="932.5" y="-384" font-family="Helvetica,sans-Serif" font-size="10.00">Arcane::TraceAccessor</text>
<text xml:space="preserve" text-anchor="middle" x="986.88" y="-371.25" font-family="Helvetica,sans-Serif" font-size="10.00">::pwarning</text>
</a>
</g>
</g>
<!-- Node2 -->
<g id="Node000002" class="node">
<title>Node2</title>
<g id="a_Node000002"><a xlink:href="../../dd/d49/classArcane_1_1mesh_1_1FaceUniqueIdBuilder.html#aa0f516a905761e90f149558b24600d78" target="_top" xlink:title="Checks that there are no duplicate uniqueIds.">
<polygon fill="white" stroke="#666666" points="881,-735.5 721.75,-735.5 721.75,-702 881,-702 881,-735.5"/>
<text xml:space="preserve" text-anchor="start" x="729.75" y="-722" font-family="Helvetica,sans-Serif" font-size="10.00">Arcane::mesh::FaceUnique</text>
<text xml:space="preserve" text-anchor="middle" x="801.38" y="-709.25" font-family="Helvetica,sans-Serif" font-size="10.00">IdBuilder::_checkNoDuplicate</text>
</a>
</g>
</g>
<!-- Node1&#45;&gt;Node2 -->
<g id="edge1_Node000001_Node000002" class="edge">
<title>Node1&#45;&gt;Node2</title>
<g id="a_edge1_Node000001_Node000002"><a xlink:title=" ">
<path fill="none" stroke="#63b8ff" d="M985.45,-409.05C982.97,-469.79 968.45,-613.54 888.5,-692.75 885.06,-696.16 881.19,-699.12 877.05,-701.7"/>
<polygon fill="#63b8ff" stroke="#63b8ff" points="988.94,-409.35 985.76,-399.24 981.94,-409.13 988.94,-409.35"/>
</a>
</g>
</g>
<!-- Node3 -->
<g id="Node000003" class="node">
<title>Node3</title>
<g id="a_Node000003"><a xlink:href="../../d9/d6b/classArcane_1_1TimeLoopMng.html#aeef1196d438b652e905a769eea1a596e" target="_top" xlink:title=" ">
<polygon fill="white" stroke="#666666" points="863.75,-683.5 739,-683.5 739,-650 863.75,-650 863.75,-683.5"/>
<text xml:space="preserve" text-anchor="start" x="747" y="-670" font-family="Helvetica,sans-Serif" font-size="10.00">Arcane::TimeLoopMng</text>
<text xml:space="preserve" text-anchor="middle" x="801.38" y="-657.25" font-family="Helvetica,sans-Serif" font-size="10.00">::_fillModuleStateMap</text>
</a>
</g>
</g>
<!-- Node1&#45;&gt;Node3 -->
<g id="edge2_Node000001_Node000003" class="edge">
<title>Node1&#45;&gt;Node3</title>
<g id="a_edge2_Node000001_Node000003"><a xlink:title=" ">
<path fill="none" stroke="#63b8ff" d="M983.37,-409.09C977.15,-462.26 956.21,-577.31 888.5,-640.75 881.55,-647.26 873.02,-652.15 864.06,-655.81"/>
<polygon fill="#63b8ff" stroke="#63b8ff" points="986.83,-409.67 984.41,-399.35 979.87,-408.92 986.83,-409.67"/>
</a>
</g>
</g>
<!-- Node5 -->
<g id="Node000005" class="node">
<title>Node5</title>
<g id="a_Node000005"><a xlink:href="../../d4/d6e/classArcane_1_1LimaMalippReaderT.html#abefcc7e1b8c4ad357452ffbd111c7c81" target="_top" xlink:title="Mesh reading. Only the master process has a non&#45;null instance of reader. Others must not use it.">
<polygon fill="white" stroke="#666666" points="875,-631.5 727.75,-631.5 727.75,-598 875,-598 875,-631.5"/>
<text xml:space="preserve" text-anchor="start" x="735.75" y="-618" font-family="Helvetica,sans-Serif" font-size="10.00">Arcane::LimaMalippReader</text>
<text xml:space="preserve" text-anchor="middle" x="801.38" y="-605.25" font-family="Helvetica,sans-Serif" font-size="10.00">T::_readMeshPart</text>
</a>
</g>
</g>
<!-- Node1&#45;&gt;Node5 -->
<g id="edge4_Node000001_Node000005" class="edge">
<title>Node1&#45;&gt;Node5</title>
<g id="a_edge4_Node000001_Node000005"><a xlink:title=" ">
<path fill="none" stroke="#63b8ff" d="M980.36,-409.04C970.18,-453.76 944.16,-540.61 888.5,-588.75 884.48,-592.22 880.01,-595.23 875.28,-597.84"/>
<polygon fill="#63b8ff" stroke="#63b8ff" points="983.77,-409.86 982.46,-399.35 976.93,-408.39 983.77,-409.86"/>
</a>
</g>
</g>
<!-- Node6 -->
<g id="Node000006" class="node">
<title>Node6</title>
<g id="a_Node000006"><a xlink:href="../../d7/d2b/classArcane_1_1MetisMeshPartitioner.html#a3c6bf8012ac29f2b214575c691474905" target="_top" xlink:title="Fills empty partitions (version 2).">
<polygon fill="white" stroke="#666666" points="881,-579.5 721.75,-579.5 721.75,-546 881,-546 881,-579.5"/>
<text xml:space="preserve" text-anchor="start" x="729.75" y="-566" font-family="Helvetica,sans-Serif" font-size="10.00">Arcane::MetisMeshPartitioner</text>
<text xml:space="preserve" text-anchor="middle" x="801.38" y="-553.25" font-family="Helvetica,sans-Serif" font-size="10.00">::_removeEmptyPartsV2</text>
</a>
</g>
</g>
<!-- Node1&#45;&gt;Node6 -->
<g id="edge5_Node000001_Node000006" class="edge">
<title>Node1&#45;&gt;Node6</title>
<g id="a_edge5_Node000001_Node000006"><a xlink:title=" ">
<path fill="none" stroke="#63b8ff" d="M975.92,-408.03C961.8,-442.96 932.66,-502.97 888.5,-536.75 884.16,-540.07 879.39,-542.97 874.4,-545.5"/>
<polygon fill="#63b8ff" stroke="#63b8ff" points="979.05,-409.64 979.43,-399.05 972.53,-407.09 979.05,-409.64"/>
</a>
</g>
</g>
<!-- Node8 -->
<g id="Node000008" class="node">
<title>Node8</title>
<g id="a_Node000008"><a xlink:href="../../d3/d0d/classArcane_1_1CaseMng.html#ae06f160823129f4249762d87a403e4f4" target="_top" xlink:title="Searches for invalid data set options.">
<polygon fill="white" stroke="#666666" points="873.5,-527.5 729.25,-527.5 729.25,-494 873.5,-494 873.5,-527.5"/>
<text xml:space="preserve" text-anchor="start" x="737.25" y="-514" font-family="Helvetica,sans-Serif" font-size="10.00">Arcane::CaseMng::_search</text>
<text xml:space="preserve" text-anchor="middle" x="801.38" y="-501.25" font-family="Helvetica,sans-Serif" font-size="10.00">InvalidOptions</text>
</a>
</g>
</g>
<!-- Node1&#45;&gt;Node8 -->
<g id="edge7_Node000001_Node000008" class="edge">
<title>Node1&#45;&gt;Node8</title>
<g id="a_edge7_Node000001_Node000008"><a xlink:title=" ">
<path fill="none" stroke="#63b8ff" d="M967.77,-406.84C950.11,-430.42 921.19,-464.45 888.5,-484.75 883.06,-488.13 877.15,-491.09 871.07,-493.69"/>
<polygon fill="#63b8ff" stroke="#63b8ff" points="970.44,-409.11 973.51,-398.97 964.79,-404.98 970.44,-409.11"/>
</a>
</g>
</g>
<!-- Node9 -->
<g id="Node000009" class="node">
<title>Node9</title>
<g id="a_Node000009"><a xlink:href="../../dc/dfb/classArcane_1_1ConfigurationReader.html#a67c8957b1684991168d9230e06e76b36" target="_top" xlink:title="Adds values to the configuration.">
<polygon fill="white" stroke="#666666" points="879.12,-371.5 723.62,-371.5 723.62,-338 879.12,-338 879.12,-371.5"/>
<text xml:space="preserve" text-anchor="start" x="731.62" y="-358" font-family="Helvetica,sans-Serif" font-size="10.00">Arcane::ConfigurationReader</text>
<text xml:space="preserve" text-anchor="middle" x="801.38" y="-345.25" font-family="Helvetica,sans-Serif" font-size="10.00">::addValuesFromXmlNode</text>
</a>
</g>
</g>
<!-- Node1&#45;&gt;Node9 -->
<g id="edge8_Node000001_Node000009" class="edge">
<title>Node1&#45;&gt;Node9</title>
<g id="a_edge8_Node000001_Node000009"><a xlink:title=" ">
<path fill="none" stroke="#63b8ff" d="M912.79,-370.4C901.88,-368.85 890.6,-367.25 879.6,-365.69"/>
<polygon fill="#63b8ff" stroke="#63b8ff" points="912.12,-373.83 922.51,-371.77 913.1,-366.9 912.12,-373.83"/>
</a>
</g>
</g>
<!-- Node18 -->
<g id="Node000018" class="node">
<title>Node18</title>
<g id="a_Node000018"><a xlink:href="../../da/d3b/classArcane_1_1MetisWrapper.html#a4e6d4a1490b56dc028c96678a6ec57c5" target="_top" xlink:title="Simple wrapper around the ParMetis routine &quot;ParMETIS_V3_AdaptiveRepart&quot;.">
<polygon fill="white" stroke="#666666" points="863.38,-475.5 739.38,-475.5 739.38,-442 863.38,-442 863.38,-475.5"/>
<text xml:space="preserve" text-anchor="start" x="747.38" y="-462" font-family="Helvetica,sans-Serif" font-size="10.00">Arcane::MetisWrapper</text>
<text xml:space="preserve" text-anchor="middle" x="801.38" y="-449.25" font-family="Helvetica,sans-Serif" font-size="10.00">::callAdaptiveRepart</text>
</a>
</g>
</g>
<!-- Node1&#45;&gt;Node18 -->
<g id="edge18_Node000001_Node000018" class="edge">
<title>Node1&#45;&gt;Node18</title>
<g id="a_edge18_Node000001_Node000018"><a xlink:title=" ">
<path fill="none" stroke="#63b8ff" d="M947.33,-403.6C929.78,-413.41 908.49,-424.49 888.5,-432.75 880.56,-436.03 872.06,-439.1 863.6,-441.9"/>
<polygon fill="#63b8ff" stroke="#63b8ff" points="948.92,-406.72 955.89,-398.74 945.46,-400.63 948.92,-406.72"/>
</a>
</g>
</g>
<!-- Node19 -->
<g id="Node000019" class="node">
<title>Node19</title>
<g id="a_Node000019"><a xlink:href="../../da/d3b/classArcane_1_1MetisWrapper.html#a4b515ebb011de9933a1633ed68bbe640" target="_top" xlink:title="Simple wrapper around the ParMetis routine &quot;ParMETIS_V3_PartKway&quot;.">
<polygon fill="white" stroke="#666666" points="863.38,-423.5 739.38,-423.5 739.38,-390 863.38,-390 863.38,-423.5"/>
<text xml:space="preserve" text-anchor="start" x="747.38" y="-410" font-family="Helvetica,sans-Serif" font-size="10.00">Arcane::MetisWrapper</text>
<text xml:space="preserve" text-anchor="middle" x="801.38" y="-397.25" font-family="Helvetica,sans-Serif" font-size="10.00">::callPartKway</text>
</a>
</g>
</g>
<!-- Node1&#45;&gt;Node19 -->
<g id="edge20_Node000001_Node000019" class="edge">
<title>Node1&#45;&gt;Node19</title>
<g id="a_edge20_Node000001_Node000019"><a xlink:title=" ">
<path fill="none" stroke="#63b8ff" d="M912.88,-391.09C896.57,-393.4 879.44,-395.83 863.66,-398.07"/>
<polygon fill="#63b8ff" stroke="#63b8ff" points="913.1,-394.6 922.51,-389.73 912.12,-387.67 913.1,-394.6"/>
</a>
</g>
</g>
<!-- Node20 -->
<g id="Node000020" class="node">
<title>Node20</title>
<g id="a_Node000020"><a xlink:href="../../df/d94/classArcane_1_1mesh_1_1DynamicMeshChecker.html#a4dd3bc08531c16f880e8ee5a2ccc3510" target="_top" xlink:title="Checks that the ghost cell layer is correct.">
<polygon fill="white" stroke="#666666" points="880.62,-319.5 722.12,-319.5 722.12,-286 880.62,-286 880.62,-319.5"/>
<text xml:space="preserve" text-anchor="start" x="730.12" y="-306" font-family="Helvetica,sans-Serif" font-size="10.00">Arcane::mesh::DynamicMesh</text>
<text xml:space="preserve" text-anchor="middle" x="801.38" y="-293.25" font-family="Helvetica,sans-Serif" font-size="10.00">Checker::checkGhostCells</text>
</a>
</g>
</g>
<!-- Node1&#45;&gt;Node20 -->
<g id="edge22_Node000001_Node000020" class="edge">
<title>Node1&#45;&gt;Node20</title>
<g id="a_edge22_Node000001_Node000020"><a xlink:title=" ">
<path fill="none" stroke="#63b8ff" d="M947.33,-357.9C929.78,-348.09 908.49,-337.01 888.5,-328.75 880.85,-325.59 872.68,-322.62 864.52,-319.9"/>
<polygon fill="#63b8ff" stroke="#63b8ff" points="945.46,-360.87 955.89,-362.76 948.92,-354.78 945.46,-360.87"/>
</a>
</g>
</g>
<!-- Node21 -->
<g id="Node000021" class="node">
<title>Node21</title>
<g id="a_Node000021"><a xlink:href="../../dd/d72/classArcane_1_1mesh_1_1MeshExchanger.html#aa535eb7e6a2f838a25a30e2c7657ff45" target="_top" xlink:title="Calculates the information to send/receive from other subdomains.">
<polygon fill="white" stroke="#666666" points="884.38,-267.5 718.38,-267.5 718.38,-234 884.38,-234 884.38,-267.5"/>
<text xml:space="preserve" text-anchor="start" x="726.38" y="-254" font-family="Helvetica,sans-Serif" font-size="10.00">Arcane::mesh::MeshExchanger</text>
<text xml:space="preserve" text-anchor="middle" x="801.38" y="-241.25" font-family="Helvetica,sans-Serif" font-size="10.00">::computeExchangeInfos</text>
</a>
</g>
</g>
<!-- Node1&#45;&gt;Node21 -->
<g id="edge23_Node000001_Node000021" class="edge">
<title>Node1&#45;&gt;Node21</title>
<g id="a_edge23_Node000001_Node000021"><a xlink:title=" ">
<path fill="none" stroke="#63b8ff" d="M967.77,-354.66C950.11,-331.08 921.19,-297.05 888.5,-276.75 883.06,-273.37 877.15,-270.41 871.07,-267.81"/>
<polygon fill="#63b8ff" stroke="#63b8ff" points="964.79,-356.52 973.51,-362.53 970.44,-352.39 964.79,-356.52"/>
</a>
</g>
</g>
<!-- Node22 -->
<g id="Node000022" class="node">
<title>Node22</title>
<g id="a_Node000022"><a xlink:href="../../d9/d5b/classArcane_1_1ManualHdf5VariableReader.html#ab73f571313a8578e7291399b46b25829" target="_top" xlink:title="Initializes the reader.">
<polygon fill="white" stroke="#666666" points="878.75,-215.5 724,-215.5 724,-182 878.75,-182 878.75,-215.5"/>
<text xml:space="preserve" text-anchor="start" x="732" y="-202" font-family="Helvetica,sans-Serif" font-size="10.00">Arcane::ManualHdf5Variable</text>
<text xml:space="preserve" text-anchor="middle" x="801.38" y="-189.25" font-family="Helvetica,sans-Serif" font-size="10.00">Reader::initialize</text>
</a>
</g>
</g>
<!-- Node1&#45;&gt;Node22 -->
<g id="edge24_Node000001_Node000022" class="edge">
<title>Node1&#45;&gt;Node22</title>
<g id="a_edge24_Node000001_Node000022"><a xlink:title=" ">
<path fill="none" stroke="#63b8ff" d="M975.92,-353.47C961.8,-318.54 932.66,-258.53 888.5,-224.75 884.16,-221.43 879.39,-218.53 874.4,-216"/>
<polygon fill="#63b8ff" stroke="#63b8ff" points="972.53,-354.41 979.43,-362.45 979.05,-351.86 972.53,-354.41"/>
</a>
</g>
</g>
<!-- Node23 -->
<g id="Node000023" class="node">
<title>Node23</title>
<g id="a_Node000023"><a xlink:href="../../de/d13/classArcane_1_1PapiPerformanceService.html#a9b81abb0d5c2e7871c8e2c5245ab2ec6" target="_top" xlink:title="Initializes the profiling service.">
<polygon fill="white" stroke="#666666" points="888.5,-163.5 714.25,-163.5 714.25,-130 888.5,-130 888.5,-163.5"/>
<text xml:space="preserve" text-anchor="start" x="722.25" y="-150" font-family="Helvetica,sans-Serif" font-size="10.00">Arcane::PapiPerformanceService</text>
<text xml:space="preserve" text-anchor="middle" x="801.38" y="-137.25" font-family="Helvetica,sans-Serif" font-size="10.00">::initialize</text>
</a>
</g>
</g>
<!-- Node1&#45;&gt;Node23 -->
<g id="edge25_Node000001_Node000023" class="edge">
<title>Node1&#45;&gt;Node23</title>
<g id="a_edge25_Node000001_Node000023"><a xlink:title=" ">
<path fill="none" stroke="#63b8ff" d="M980.36,-352.46C970.18,-307.74 944.16,-220.89 888.5,-172.75 884.6,-169.38 880.28,-166.44 875.7,-163.89"/>
<polygon fill="#63b8ff" stroke="#63b8ff" points="976.93,-353.11 982.46,-362.15 983.77,-351.64 976.93,-353.11"/>
</a>
</g>
</g>
<!-- Node24 -->
<g id="Node000024" class="node">
<title>Node24</title>
<g id="a_Node000024"><a xlink:href="../../df/d6b/classArcane_1_1VariableMng.html#aadf4a8ca14639aa9b8cbf5c07eacc85c" target="_top" xlink:title="Removes and destroys the variables managed by this manager.">
<polygon fill="white" stroke="#666666" points="860,-111.5 742.75,-111.5 742.75,-78 860,-78 860,-111.5"/>
<text xml:space="preserve" text-anchor="start" x="750.75" y="-98" font-family="Helvetica,sans-Serif" font-size="10.00">Arcane::VariableMng</text>
<text xml:space="preserve" text-anchor="middle" x="801.38" y="-85.25" font-family="Helvetica,sans-Serif" font-size="10.00">::removeAllVariables</text>
</a>
</g>
</g>
<!-- Node1&#45;&gt;Node24 -->
<g id="edge26_Node000001_Node000024" class="edge">
<title>Node1&#45;&gt;Node24</title>
<g id="a_edge26_Node000001_Node000024"><a xlink:title=" ">
<path fill="none" stroke="#63b8ff" d="M983.37,-352.41C977.15,-299.24 956.21,-184.19 888.5,-120.75 880.52,-113.28 870.47,-107.94 860.07,-104.14"/>
<polygon fill="#63b8ff" stroke="#63b8ff" points="979.87,-352.58 984.41,-362.15 986.83,-351.83 979.87,-352.58"/>
</a>
</g>
</g>
<!-- Node25 -->
<g id="Node000025" class="node">
<title>Node25</title>
<g id="a_Node000025"><a xlink:href="../../dd/d56/classArcane_1_1PropertyMng.html#a6387cdd0f198d917057824f07196fc72" target="_top" xlink:title="Performs serialization.">
<polygon fill="white" stroke="#666666" points="860.38,-59.5 742.38,-59.5 742.38,-26 860.38,-26 860.38,-59.5"/>
<text xml:space="preserve" text-anchor="start" x="750.38" y="-46" font-family="Helvetica,sans-Serif" font-size="10.00">Arcane::PropertyMng</text>
<text xml:space="preserve" text-anchor="middle" x="801.38" y="-33.25" font-family="Helvetica,sans-Serif" font-size="10.00">::serialize</text>
</a>
</g>
</g>
<!-- Node1&#45;&gt;Node25 -->
<g id="edge27_Node000001_Node000025" class="edge">
<title>Node1&#45;&gt;Node25</title>
<g id="a_edge27_Node000001_Node000025"><a xlink:title=" ">
<path fill="none" stroke="#63b8ff" d="M985.45,-352.45C982.97,-291.71 968.45,-147.96 888.5,-68.75 880.84,-61.17 871.06,-55.78 860.85,-51.96"/>
<polygon fill="#63b8ff" stroke="#63b8ff" points="981.94,-352.37 985.76,-362.26 988.94,-352.15 981.94,-352.37"/>
</a>
</g>
</g>
<!-- Node4 -->
<g id="Node000004" class="node">
<title>Node4</title>
<g id="a_Node000004"><a xlink:href="../../d9/d6b/classArcane_1_1TimeLoopMng.html#ae5ce3fb07fb1aa70034e5d6b52df9427" target="_top" xlink:title="Positions the time loop to be executed. Selects the time loop named name as the one to be executed....">
<polygon fill="white" stroke="#666666" points="661,-683.5 536.25,-683.5 536.25,-650 661,-650 661,-683.5"/>
<text xml:space="preserve" text-anchor="start" x="544.25" y="-670" font-family="Helvetica,sans-Serif" font-size="10.00">Arcane::TimeLoopMng</text>
<text xml:space="preserve" text-anchor="middle" x="598.62" y="-657.25" font-family="Helvetica,sans-Serif" font-size="10.00">::setUsedTimeLoop</text>
</a>
</g>
</g>
<!-- Node3&#45;&gt;Node4 -->
<g id="edge3_Node000003_Node000004" class="edge">
<title>Node3&#45;&gt;Node4</title>
<g id="a_edge3_Node000003_Node000004"><a xlink:title=" ">
<path fill="none" stroke="#63b8ff" d="M727.06,-666.75C705.47,-666.75 682.07,-666.75 661.29,-666.75"/>
<polygon fill="#63b8ff" stroke="#63b8ff" points="726.99,-670.25 736.99,-666.75 726.99,-663.25 726.99,-670.25"/>
</a>
</g>
</g>
<!-- Node7 -->
<g id="Node000007" class="node">
<title>Node7</title>
<g id="a_Node000007"><a xlink:href="../../d7/d2b/classArcane_1_1MetisMeshPartitioner.html#a767cafcf1a7031f78dfc57c795881da5" target="_top" xlink:title=" ">
<polygon fill="white" stroke="#666666" points="678.25,-475.5 519,-475.5 519,-442 678.25,-442 678.25,-475.5"/>
<text xml:space="preserve" text-anchor="start" x="527" y="-462" font-family="Helvetica,sans-Serif" font-size="10.00">Arcane::MetisMeshPartitioner</text>
<text xml:space="preserve" text-anchor="middle" x="598.62" y="-449.25" font-family="Helvetica,sans-Serif" font-size="10.00">::_partitionMesh</text>
</a>
</g>
</g>
<!-- Node6&#45;&gt;Node7 -->
<g id="edge6_Node000006_Node000007" class="edge">
<title>Node6&#45;&gt;Node7</title>
<g id="a_edge6_Node000006_Node000007"><a xlink:title=" ">
<path fill="none" stroke="#63b8ff" d="M725.05,-541.51C721.36,-540 717.74,-538.42 714.25,-536.75 679.06,-519.95 642.5,-493.18 620.41,-475.78"/>
<polygon fill="#63b8ff" stroke="#63b8ff" points="723.59,-544.7 734.18,-545 726.1,-538.16 723.59,-544.7"/>
</a>
</g>
</g>
<!-- Node10 -->
<g id="Node000010" class="node">
<title>Node10</title>
<g id="a_Node000010"><a xlink:href="../../d6/d2a/classArcane_1_1Application.html#a90209a52f4e60c416dd7f30ac01c8204" target="_top" xlink:title="Initializes the instance. The instance is not usable until this method has been called.">
<polygon fill="white" stroke="#666666" points="653.88,-423.5 543.38,-423.5 543.38,-390 653.88,-390 653.88,-423.5"/>
<text xml:space="preserve" text-anchor="start" x="551.38" y="-410" font-family="Helvetica,sans-Serif" font-size="10.00">Arcane::Application</text>
<text xml:space="preserve" text-anchor="middle" x="598.62" y="-397.25" font-family="Helvetica,sans-Serif" font-size="10.00">::initialize</text>
</a>
</g>
</g>
<!-- Node9&#45;&gt;Node10 -->
<g id="edge9_Node000009_Node000010" class="edge">
<title>Node9&#45;&gt;Node10</title>
<g id="a_edge9_Node000009_Node000010"><a xlink:title=" ">
<path fill="none" stroke="#63b8ff" d="M722.75,-374.86C699.9,-380.78 675.4,-387.12 654.31,-392.59"/>
<polygon fill="#63b8ff" stroke="#63b8ff" points="723.54,-378.27 732.34,-372.37 721.78,-371.49 723.54,-378.27"/>
</a>
</g>
</g>
<!-- Node11 -->
<g id="Node000011" class="node">
<title>Node11</title>
<g id="a_Node000011"><a xlink:href="../../d5/d05/classArcane_1_1SubDomain.html#ab076dce1f22d598eb135385b8795e95d" target="_top" xlink:title="Initializes the instance. The instance is not usable until this method has been called.">
<polygon fill="white" stroke="#666666" points="657.62,-371.5 539.62,-371.5 539.62,-338 657.62,-338 657.62,-371.5"/>
<text xml:space="preserve" text-anchor="start" x="547.62" y="-358" font-family="Helvetica,sans-Serif" font-size="10.00">Arcane::SubDomain::</text>
<text xml:space="preserve" text-anchor="middle" x="598.62" y="-345.25" font-family="Helvetica,sans-Serif" font-size="10.00">initialize</text>
</a>
</g>
</g>
<!-- Node9&#45;&gt;Node11 -->
<g id="edge10_Node000009_Node000011" class="edge">
<title>Node9&#45;&gt;Node11</title>
<g id="a_edge10_Node000009_Node000011"><a xlink:title=" ">
<path fill="none" stroke="#63b8ff" d="M712.05,-354.75C693.77,-354.75 674.95,-354.75 658.06,-354.75"/>
<polygon fill="#63b8ff" stroke="#63b8ff" points="711.82,-358.25 721.82,-354.75 711.82,-351.25 711.82,-358.25"/>
</a>
</g>
</g>
<!-- Node12 -->
<g id="Node000012" class="node">
<title>Node12</title>
<g id="a_Node000012"><a xlink:href="../../d4/d6b/classArcane_1_1TimeLoopReader.html#a888913377cca90a034a00740c03c1e2b" target="_top" xlink:title="Performs the reading of available time loops.">
<polygon fill="white" stroke="#666666" points="667.75,-319.5 529.5,-319.5 529.5,-286 667.75,-286 667.75,-319.5"/>
<text xml:space="preserve" text-anchor="start" x="537.5" y="-306" font-family="Helvetica,sans-Serif" font-size="10.00">Arcane::TimeLoopReader</text>
<text xml:space="preserve" text-anchor="middle" x="598.62" y="-293.25" font-family="Helvetica,sans-Serif" font-size="10.00">::readTimeLoops</text>
</a>
</g>
</g>
<!-- Node9&#45;&gt;Node12 -->
<g id="edge11_Node000009_Node000012" class="edge">
<title>Node9&#45;&gt;Node12</title>
<g id="a_edge11_Node000009_Node000012"><a xlink:title=" ">
<path fill="none" stroke="#63b8ff" d="M722.9,-334.68C704.13,-329.82 684.22,-324.66 666.01,-319.95"/>
<polygon fill="#63b8ff" stroke="#63b8ff" points="721.78,-338.01 732.34,-337.13 723.54,-331.23 721.78,-338.01"/>
</a>
</g>
</g>
<!-- Node13 -->
<g id="Node000013" class="node">
<title>Node13</title>
<g id="a_Node000013"><a xlink:href="../../dc/d7e/classArcane_1_1InternalInfosDumper.html#a9a9362d81624ca5fce9146ac26c4f7f9" target="_top" xlink:title="Saves the internal information of Arcane in a json file.">
<polygon fill="white" stroke="#666666" points="483,-371.5 326.75,-371.5 326.75,-338 483,-338 483,-371.5"/>
<text xml:space="preserve" text-anchor="start" x="334.75" y="-358" font-family="Helvetica,sans-Serif" font-size="10.00">Arcane::InternalInfosDumper</text>
<text xml:space="preserve" text-anchor="middle" x="404.88" y="-345.25" font-family="Helvetica,sans-Serif" font-size="10.00">::dumpArcaneDatabase</text>
</a>
</g>
</g>
<!-- Node12&#45;&gt;Node13 -->
<g id="edge12_Node000012_Node000013" class="edge">
<title>Node12&#45;&gt;Node13</title>
<g id="a_edge12_Node000012_Node000013"><a xlink:title=" ">
<path fill="none" stroke="#63b8ff" d="M523.12,-322.95C505.34,-327.78 486.52,-332.88 469.29,-337.55"/>
<polygon fill="#63b8ff" stroke="#63b8ff" points="523.85,-326.38 532.58,-320.39 522.01,-319.63 523.85,-326.38"/>
</a>
</g>
</g>
<!-- Node16 -->
<g id="Node000016" class="node">
<title>Node16</title>
<g id="a_Node000016"><a xlink:href="../../dc/d7e/classArcane_1_1InternalInfosDumper.html#a7584d86058dd2f77bb8acfa739aef086" target="_top" xlink:title=" ">
<polygon fill="white" stroke="#666666" points="483,-319.5 326.75,-319.5 326.75,-286 483,-286 483,-319.5"/>
<text xml:space="preserve" text-anchor="start" x="334.75" y="-306" font-family="Helvetica,sans-Serif" font-size="10.00">Arcane::InternalInfosDumper</text>
<text xml:space="preserve" text-anchor="middle" x="404.88" y="-293.25" font-family="Helvetica,sans-Serif" font-size="10.00">::dumpInternalAllInfos</text>
</a>
</g>
</g>
<!-- Node12&#45;&gt;Node16 -->
<g id="edge15_Node000012_Node000016" class="edge">
<title>Node12&#45;&gt;Node16</title>
<g id="a_edge15_Node000012_Node000016"><a xlink:title=" ">
<path fill="none" stroke="#63b8ff" d="M517.92,-302.75C506.51,-302.75 494.78,-302.75 483.4,-302.75"/>
<polygon fill="#63b8ff" stroke="#63b8ff" points="517.7,-306.25 527.7,-302.75 517.7,-299.25 517.7,-306.25"/>
</a>
</g>
</g>
<!-- Node17 -->
<g id="Node000017" class="node">
<title>Node17</title>
<g id="a_Node000017"><a xlink:href="../../d2/dce/classArcane_1_1ArcaneCodeService.html#aeaa0a6a6a7fe566139330caeaa6797b0" target="_top" xlink:title="Initializes the session session.">
<polygon fill="white" stroke="#666666" points="480,-267.5 329.75,-267.5 329.75,-234 480,-234 480,-267.5"/>
<text xml:space="preserve" text-anchor="start" x="337.75" y="-254" font-family="Helvetica,sans-Serif" font-size="10.00">Arcane::ArcaneCodeService</text>
<text xml:space="preserve" text-anchor="middle" x="404.88" y="-241.25" font-family="Helvetica,sans-Serif" font-size="10.00">::initCase</text>
</a>
</g>
</g>
<!-- Node12&#45;&gt;Node17 -->
<g id="edge17_Node000012_Node000017" class="edge">
<title>Node12&#45;&gt;Node17</title>
<g id="a_edge17_Node000012_Node000017"><a xlink:title=" ">
<path fill="none" stroke="#63b8ff" d="M523.12,-282.55C505.34,-277.72 486.52,-272.62 469.29,-267.95"/>
<polygon fill="#63b8ff" stroke="#63b8ff" points="522.01,-285.87 532.58,-285.11 523.85,-279.12 522.01,-285.87"/>
</a>
</g>
</g>
<!-- Node14 -->
<g id="Node000014" class="node">
<title>Node14</title>
<g id="a_Node000014"><a xlink:href="../../da/dae/classArcane_1_1ArcaneMain.html#af4236151306bc07bfa48586f06a06596" target="_top" xlink:title="Parses arguments.">
<polygon fill="white" stroke="#666666" points="290.75,-345.5 177.25,-345.5 177.25,-312 290.75,-312 290.75,-345.5"/>
<text xml:space="preserve" text-anchor="start" x="185.25" y="-332" font-family="Helvetica,sans-Serif" font-size="10.00">Arcane::ArcaneMain</text>
<text xml:space="preserve" text-anchor="middle" x="234" y="-319.25" font-family="Helvetica,sans-Serif" font-size="10.00">::parseArgs</text>
</a>
</g>
</g>
<!-- Node13&#45;&gt;Node14 -->
<g id="edge13_Node000013_Node000014" class="edge">
<title>Node13&#45;&gt;Node14</title>
<g id="a_edge13_Node000013_Node000014"><a xlink:title=" ">
<path fill="none" stroke="#63b8ff" d="M315.11,-341.08C306.87,-339.82 298.69,-338.56 290.87,-337.35"/>
<polygon fill="#63b8ff" stroke="#63b8ff" points="314.45,-344.52 324.86,-342.59 315.51,-337.6 314.45,-344.52"/>
</a>
</g>
</g>
<!-- Node15 -->
<g id="Node000015" class="node">
<title>Node15</title>
<g id="a_Node000015"><a xlink:href="../../d2/d11/classArcane_1_1ArcaneMainBatch.html#ad0b13e97c61a535fac2bf743726600c6" target="_top" xlink:title="Parses arguments.">
<polygon fill="white" stroke="#666666" points="141.25,-345.5 0,-345.5 0,-312 141.25,-312 141.25,-345.5"/>
<text xml:space="preserve" text-anchor="start" x="8" y="-332" font-family="Helvetica,sans-Serif" font-size="10.00">Arcane::ArcaneMainBatch</text>
<text xml:space="preserve" text-anchor="middle" x="70.62" y="-319.25" font-family="Helvetica,sans-Serif" font-size="10.00">::parseArgs</text>
</a>
</g>
</g>
<!-- Node14&#45;&gt;Node15 -->
<g id="edge14_Node000014_Node000015" class="edge">
<title>Node14&#45;&gt;Node15</title>
<g id="a_edge14_Node000014_Node000015"><a xlink:title=" ">
<path fill="none" stroke="#63b8ff" d="M165.61,-328.75C157.72,-328.75 149.66,-328.75 141.73,-328.75"/>
<polygon fill="#63b8ff" stroke="#63b8ff" points="165.5,-332.25 175.5,-328.75 165.5,-325.25 165.5,-332.25"/>
</a>
</g>
</g>
<!-- Node16&#45;&gt;Node14 -->
<g id="edge16_Node000016_Node000014" class="edge">
<title>Node16&#45;&gt;Node14</title>
<g id="a_edge16_Node000016_Node000014"><a xlink:title=" ">
<path fill="none" stroke="#63b8ff" d="M315.11,-316.42C306.87,-317.68 298.69,-318.94 290.87,-320.15"/>
<polygon fill="#63b8ff" stroke="#63b8ff" points="315.51,-319.9 324.86,-314.91 314.45,-312.98 315.51,-319.9"/>
</a>
</g>
</g>
<!-- Node18&#45;&gt;Node7 -->
<g id="edge19_Node000018_Node000007" class="edge">
<title>Node18&#45;&gt;Node7</title>
<g id="a_edge19_Node000018_Node000007"><a xlink:title=" ">
<path fill="none" stroke="#63b8ff" d="M727.68,-458.75C711.77,-458.75 694.87,-458.75 678.73,-458.75"/>
<polygon fill="#63b8ff" stroke="#63b8ff" points="727.54,-462.25 737.54,-458.75 727.54,-455.25 727.54,-462.25"/>
</a>
</g>
</g>
<!-- Node19&#45;&gt;Node7 -->
<g id="edge21_Node000019_Node000007" class="edge">
<title>Node19&#45;&gt;Node7</title>
<g id="a_edge21_Node000019_Node000007"><a xlink:title=" ">
<path fill="none" stroke="#63b8ff" d="M728.03,-425.49C707.83,-430.72 686,-436.38 666.16,-441.52"/>
<polygon fill="#63b8ff" stroke="#63b8ff" points="728.78,-428.91 737.59,-423.01 727.03,-422.13 728.78,-428.91"/>
</a>
</g>
</g>
<!-- Node26 -->
<g id="Node000026" class="node">
<title>Node26</title>
<g id="a_Node000026"><a xlink:href="../../dd/d56/classArcane_1_1PropertyMng.html#ae81e4f49ae380e7625be22464caaecbe" target="_top" xlink:title="Reads the serialized information contained in bytes.">
<polygon fill="white" stroke="#666666" points="657.62,-85.5 539.62,-85.5 539.62,-52 657.62,-52 657.62,-85.5"/>
<text xml:space="preserve" text-anchor="start" x="547.62" y="-72" font-family="Helvetica,sans-Serif" font-size="10.00">Arcane::PropertyMng</text>
<text xml:space="preserve" text-anchor="middle" x="598.62" y="-59.25" font-family="Helvetica,sans-Serif" font-size="10.00">::readFrom</text>
</a>
</g>
</g>
<!-- Node25&#45;&gt;Node26 -->
<g id="edge28_Node000025_Node000026" class="edge">
<title>Node25&#45;&gt;Node26</title>
<g id="a_edge28_Node000025_Node000026"><a xlink:title=" ">
<path fill="none" stroke="#63b8ff" d="M730.65,-51.78C706.98,-54.85 680.8,-58.24 658.11,-61.18"/>
<polygon fill="#63b8ff" stroke="#63b8ff" points="731.07,-55.26 740.54,-50.5 730.17,-48.31 731.07,-55.26"/>
</a>
</g>
</g>
<!-- Node27 -->
<g id="Node000027" class="node">
<title>Node27</title>
<g id="a_Node000027"><a xlink:href="../../dd/d56/classArcane_1_1PropertyMng.html#abfaa5ee3c13cef35952d1f9d516af642" target="_top" xlink:title="Serializes property information into bytes.">
<polygon fill="white" stroke="#666666" points="657.62,-33.5 539.62,-33.5 539.62,0 657.62,0 657.62,-33.5"/>
<text xml:space="preserve" text-anchor="start" x="547.62" y="-20" font-family="Helvetica,sans-Serif" font-size="10.00">Arcane::PropertyMng</text>
<text xml:space="preserve" text-anchor="middle" x="598.62" y="-7.25" font-family="Helvetica,sans-Serif" font-size="10.00">::writeTo</text>
</a>
</g>
</g>
<!-- Node25&#45;&gt;Node27 -->
<g id="edge29_Node000025_Node000027" class="edge">
<title>Node25&#45;&gt;Node27</title>
<g id="a_edge29_Node000025_Node000027"><a xlink:title=" ">
<path fill="none" stroke="#63b8ff" d="M730.65,-33.72C706.98,-30.65 680.8,-27.26 658.11,-24.32"/>
<polygon fill="#63b8ff" stroke="#63b8ff" points="730.17,-37.19 740.54,-35 731.07,-30.24 730.17,-37.19"/>
</a>
</g>
</g>
</g>
</svg>

<g id="navigator" transform="translate(0 0)" fill="#404254">
  <rect fill="#f2f5e9" fill-opacity="0.5" stroke="#606060" stroke-width=".5" x="0" y="0" width="60" height="60"/>
  <use id="zoomplus" xlink:href="#zoomPlus" x="17" y="9" onmousedown="handleZoom(evt,'in')"/>
  <use id="zoomminus" xlink:href="#zoomMin" x="42" y="9" onmousedown="handleZoom(evt,'out')"/>
  <use id="reset" xlink:href="#resetDef" x="30" y="36" onmousedown="handleReset()"/>
   <use id="arrowup" xlink:href="#arrowUp" x="0" y="0" onmousedown="handlePan(0,-1)"/>
  <use id="arrowright" xlink:href="#arrowRight" x="0" y="0" onmousedown="handlePan(1,0)"/>
  <use id="arrowdown" xlink:href="#arrowDown" x="0" y="0" onmousedown="handlePan(0,1)"/>
  <use id="arrowleft" xlink:href="#arrowLeft" x="0" y="0" onmousedown="handlePan(-1,0)"/>
</g>
<svg viewBox="0 0 15 15" width="100%" height="30px" preserveAspectRatio="xMaxYMin meet">
 <g id="arrow_out" transform="scale(0.3 0.3)">
  <a xlink:href="classArcane_1_1TraceAccessor_af17945145519caade04575cd3f0a4d38_icgraph_org.svg" target="_base">
   <rect id="button" ry="5" rx="5" y="6" x="6" height="38" width="38"
        fill="#f2f5e9" fill-opacity="0.5" stroke="#606060" stroke-width="1.0"/>
   <path id="arrow"
     d="M 11.500037,31.436501 C 11.940474,20.09759 22.043105,11.32322 32.158766,21.979434 L 37.068811,17.246167 C 37.068811,17.246167 37.088388,32 37.088388,32 L 22.160133,31.978069 C 22.160133,31.978069 26.997745,27.140456 26.997745,27.140456 C 18.528582,18.264221 13.291696,25.230495 11.500037,31.436501 z"
     style="fill:#404040;"/>
  </a>
 </g>
</svg>

<style type='text/css'>
<![CDATA[
[data-mouse-over-selected='false'] { opacity: 0.7; }
[data-mouse-over-selected='true']  { opacity: 1.0; }
]]>
</style>
<script type="application/ecmascript"><![CDATA[
document.addEventListener('DOMContentLoaded', (event) => {
  highlightEdges();
  highlightAdjacentNodes();
});
]]></script>
</svg>
