<?xml version="1.0" encoding="UTF-8" standalone="no"?>
<!DOCTYPE svg PUBLIC "-//W3C//DTD SVG 1.1//EN"
 "http://www.w3.org/Graphics/SVG/1.1/DTD/svg11.dtd">
<!-- Generated by graphviz version 2.43.0 (0)
 -->
<!-- Title: Arcane::NullConnectivity Pages: 1 -->
<!--zoomable 794 -->

<svg id="main" version="1.1" xmlns="http://www.w3.org/2000/svg" xmlns:xlink="http://www.w3.org/1999/xlink" xml:space="preserve" onload="init(evt)">

<style type="text/css"><![CDATA[
.node, .edge {opacity: 0.7;}
.node.selected, .edge.selected {opacity: 1;}
.edge:hover path { stroke: red; }
.edge:hover polygon { stroke: red; fill: red; }
]]></style>

<defs>
  <circle id="rim" cx="0" cy="0" r="7"/>
  <circle id="rim2" cx="0" cy="0" r="3.5"/>
  <g id="zoomPlus">
    <use xlink:href="#rim" fill="#404040"><set attributeName="fill" to="#808080" begin="zoomplus.mouseover" end="zoomplus.mouseout"/></use>
    <path d="M-4,0h8M0,-4v8" fill="none" stroke="white" stroke-width="1.5" pointer-events="none"/>
  </g>
  <g id="zoomMin">
    <use xlink:href="#rim" fill="#404040"><set attributeName="fill" to="#808080" begin="zoomminus.mouseover" end="zoomminus.mouseout"/></use>
    <path d="M-4,0h8" fill="none" stroke="white" stroke-width="1.5" pointer-events="none"/>
  </g>
  <g id="arrowUp" transform="translate(30 24)">
    <use xlink:href="#rim"/>
    <path pointer-events="none" fill="none" stroke="white" stroke-width="1.5" d="M0,-3.0v7 M-2.5,-0.5L0,-3.0L2.5,-0.5"/>
  </g>
  <g id="arrowRight" transform="rotate(90) translate(36 -43)">
    <use xlink:href="#rim"/>
    <path pointer-events="none" fill="none" stroke="white" stroke-width="1.5" d="M0,-3.0v7 M-2.5,-0.5L0,-3.0L2.5,-0.5"/>
  </g>
  <g id="arrowDown" transform="rotate(180) translate(-30 -48)">
    <use xlink:href="#rim"/>
    <path pointer-events="none" fill="none" stroke="white" stroke-width="1.5" d="M0,-3.0v7 M-2.5,-0.5L0,-3.0L2.5,-0.5"/>
  </g>
  <g id="arrowLeft" transform="rotate(270) translate(-36 17)">
    <use xlink:href="#rim"/>
    <path pointer-events="none" fill="none" stroke="white" stroke-width="1.5" d="M0,-3.0v7 M-2.5,-0.5L0,-3.0L2.5,-0.5"/>
  </g>
  <g id="resetDef">
    <use xlink:href="#rim2" fill="#404040"><set attributeName="fill" to="#808080" begin="reset.mouseover" end="reset.mouseout"/></use>
  </g>
</defs>
<script type="application/ecmascript">
var viewWidth = 690;
var viewHeight = 794;
var sectionId = 'dynsection-1';
</script>
<script type="application/ecmascript" xlink:href="../../svg.min.js"/>
<svg id="graph" class="graph">
<g id="viewport">
<title>Arcane::NullConnectivity</title>
<!-- Node1 -->
<g id="Node000001" class="node">
<title>Node1</title>
<g id="a_Node000001"><a xlink:title="Informations de connectivité pour les éléments géométriques de type IT_NullType.">
<polygon fill="#999999" stroke="transparent" points="407.5,-109 276.5,-109 276.5,0 407.5,0 407.5,-109"/>
<text text-anchor="start" x="282" y="-96.5" font-family="Helvetica,sans-Serif" font-size="10.00">Arcane::NullConnectivity</text>
<text text-anchor="start" x="340.5" y="-81.5" font-family="Helvetica,sans-Serif" font-size="10.00"> </text>
<text text-anchor="start" x="286" y="-66.5" font-family="Helvetica,sans-Serif" font-size="10.00">+</text>
<text text-anchor="start" x="304" y="-66.5" font-family="Helvetica,sans-Serif" font-size="10.00">NullConnectivity()</text>
<text text-anchor="start" x="286" y="-51.5" font-family="Helvetica,sans-Serif" font-size="10.00">+</text>
<text text-anchor="start" x="304" y="-51.5" font-family="Helvetica,sans-Serif" font-size="10.00">nbNode()</text>
<text text-anchor="start" x="286" y="-36.5" font-family="Helvetica,sans-Serif" font-size="10.00">+</text>
<text text-anchor="start" x="304" y="-36.5" font-family="Helvetica,sans-Serif" font-size="10.00">nbEdge()</text>
<text text-anchor="start" x="286" y="-21.5" font-family="Helvetica,sans-Serif" font-size="10.00">+</text>
<text text-anchor="start" x="304" y="-21.5" font-family="Helvetica,sans-Serif" font-size="10.00">nbFace()</text>
<text text-anchor="start" x="288.5" y="-6.5" font-family="Helvetica,sans-Serif" font-size="10.00">&#45;</text>
<text text-anchor="start" x="304" y="-6.5" font-family="Helvetica,sans-Serif" font-size="10.00">_init()</text>
<polygon fill="#666666" stroke="#666666" points="277,-91.5 277,-91.5 408,-91.5 408,-91.5 277,-91.5"/>
<polygon fill="#666666" stroke="#666666" points="277,-76.5 277,-76.5 408,-76.5 408,-76.5 277,-76.5"/>
<polygon fill="none" stroke="#666666" points="276.5,0 276.5,-109 407.5,-109 407.5,0 276.5,0"/>
</a>
</g>
</g>
<!-- Node2 -->
<g id="Node000002" class="node">
<title>Node2</title>
<g id="a_Node000002"><a xlink:href="../../d2/d47/classArcane_1_1CellConnectivity.html" target="_top" xlink:title="Informations sur la connectivité d&#39;une maille.">
<polygon fill="white" stroke="transparent" points="419.5,-525 264.5,-525 264.5,-146 419.5,-146 419.5,-525"/>
<text text-anchor="start" x="282" y="-512.5" font-family="Helvetica,sans-Serif" font-size="10.00">Arcane::CellConnectivity</text>
<text text-anchor="start" x="269" y="-497.5" font-family="Helvetica,sans-Serif" font-size="10.00">+</text>
<text text-anchor="start" x="282" y="-497.5" font-family="Helvetica,sans-Serif" font-size="10.00">m_edge_node_sub_zone_id</text>
<text text-anchor="start" x="269" y="-482.5" font-family="Helvetica,sans-Serif" font-size="10.00">+</text>
<text text-anchor="start" x="282" y="-482.5" font-family="Helvetica,sans-Serif" font-size="10.00">m_face_node_sub_zone_id</text>
<text text-anchor="start" x="269" y="-467.5" font-family="Helvetica,sans-Serif" font-size="10.00">+</text>
<text text-anchor="start" x="282" y="-467.5" font-family="Helvetica,sans-Serif" font-size="10.00">m_edge_direct_connectic</text>
<text text-anchor="start" x="269" y="-452.5" font-family="Helvetica,sans-Serif" font-size="10.00">#</text>
<text text-anchor="start" x="282" y="-452.5" font-family="Helvetica,sans-Serif" font-size="10.00">m_nb_sub_zone</text>
<text text-anchor="start" x="269" y="-437.5" font-family="Helvetica,sans-Serif" font-size="10.00">#</text>
<text text-anchor="start" x="282" y="-437.5" font-family="Helvetica,sans-Serif" font-size="10.00">m_nb_svc_face</text>
<text text-anchor="start" x="269" y="-422.5" font-family="Helvetica,sans-Serif" font-size="10.00">#</text>
<text text-anchor="start" x="282" y="-422.5" font-family="Helvetica,sans-Serif" font-size="10.00">m_node_association</text>
<text text-anchor="start" x="269" y="-407.5" font-family="Helvetica,sans-Serif" font-size="10.00">#</text>
<text text-anchor="start" x="282" y="-407.5" font-family="Helvetica,sans-Serif" font-size="10.00">m_nb_node</text>
<text text-anchor="start" x="269" y="-392.5" font-family="Helvetica,sans-Serif" font-size="10.00">#</text>
<text text-anchor="start" x="282" y="-392.5" font-family="Helvetica,sans-Serif" font-size="10.00">m_nb_edge</text>
<text text-anchor="start" x="269" y="-377.5" font-family="Helvetica,sans-Serif" font-size="10.00">#</text>
<text text-anchor="start" x="282" y="-377.5" font-family="Helvetica,sans-Serif" font-size="10.00">m_nb_face</text>
<text text-anchor="start" x="269" y="-362.5" font-family="Helvetica,sans-Serif" font-size="10.00">#</text>
<text text-anchor="start" x="282" y="-362.5" font-family="Helvetica,sans-Serif" font-size="10.00">m_edge_first_node</text>
<text text-anchor="start" x="269" y="-347.5" font-family="Helvetica,sans-Serif" font-size="10.00">#</text>
<text text-anchor="start" x="282" y="-347.5" font-family="Helvetica,sans-Serif" font-size="10.00">m_edge_second_node</text>
<text text-anchor="start" x="269" y="-332.5" font-family="Helvetica,sans-Serif" font-size="10.00">+</text>
<text text-anchor="start" x="282" y="-332.5" font-family="Helvetica,sans-Serif" font-size="10.00">CellConnectivity()</text>
<text text-anchor="start" x="269" y="-317.5" font-family="Helvetica,sans-Serif" font-size="10.00">+</text>
<text text-anchor="start" x="282" y="-317.5" font-family="Helvetica,sans-Serif" font-size="10.00">nbNode()</text>
<text text-anchor="start" x="269" y="-302.5" font-family="Helvetica,sans-Serif" font-size="10.00">+</text>
<text text-anchor="start" x="282" y="-302.5" font-family="Helvetica,sans-Serif" font-size="10.00">nbEdge()</text>
<text text-anchor="start" x="269" y="-287.5" font-family="Helvetica,sans-Serif" font-size="10.00">+</text>
<text text-anchor="start" x="282" y="-287.5" font-family="Helvetica,sans-Serif" font-size="10.00">nbFace()</text>
<text text-anchor="start" x="269" y="-272.5" font-family="Helvetica,sans-Serif" font-size="10.00">+</text>
<text text-anchor="start" x="282" y="-272.5" font-family="Helvetica,sans-Serif" font-size="10.00">nbSubZone()</text>
<text text-anchor="start" x="269" y="-257.5" font-family="Helvetica,sans-Serif" font-size="10.00">+</text>
<text text-anchor="start" x="282" y="-257.5" font-family="Helvetica,sans-Serif" font-size="10.00">nbSubZoneFace()</text>
<text text-anchor="start" x="269" y="-242.5" font-family="Helvetica,sans-Serif" font-size="10.00">+</text>
<text text-anchor="start" x="282" y="-242.5" font-family="Helvetica,sans-Serif" font-size="10.00">nodeAssociation()</text>
<text text-anchor="start" x="269" y="-227.5" font-family="Helvetica,sans-Serif" font-size="10.00">+</text>
<text text-anchor="start" x="282" y="-227.5" font-family="Helvetica,sans-Serif" font-size="10.00">nodeConnectic()</text>
<text text-anchor="start" x="269" y="-212.5" font-family="Helvetica,sans-Serif" font-size="10.00">+</text>
<text text-anchor="start" x="282" y="-212.5" font-family="Helvetica,sans-Serif" font-size="10.00">edgeConnectic()</text>
<text text-anchor="start" x="269" y="-197.5" font-family="Helvetica,sans-Serif" font-size="10.00">+</text>
<text text-anchor="start" x="282" y="-197.5" font-family="Helvetica,sans-Serif" font-size="10.00">faceConnectic()</text>
<text text-anchor="start" x="269" y="-182.5" font-family="Helvetica,sans-Serif" font-size="10.00">+</text>
<text text-anchor="start" x="282" y="-182.5" font-family="Helvetica,sans-Serif" font-size="10.00">SCVFaceConnectic()</text>
<text text-anchor="start" x="269" y="-167.5" font-family="Helvetica,sans-Serif" font-size="10.00">+</text>
<text text-anchor="start" x="282" y="-167.5" font-family="Helvetica,sans-Serif" font-size="10.00">cellType()</text>
<text text-anchor="start" x="269" y="-152.5" font-family="Helvetica,sans-Serif" font-size="10.00">#</text>
<text text-anchor="start" x="282" y="-152.5" font-family="Helvetica,sans-Serif" font-size="10.00">_setEdgeDirectConnectic()</text>
<polygon fill="#666666" stroke="#666666" points="265,-507.5 265,-507.5 420,-507.5 420,-507.5 265,-507.5"/>
<polygon fill="#666666" stroke="#666666" points="265,-342.5 265,-342.5 280,-342.5 280,-342.5 265,-342.5"/>
<polygon fill="#666666" stroke="#666666" points="280,-342.5 280,-342.5 420,-342.5 420,-342.5 280,-342.5"/>
<polygon fill="none" stroke="#666666" points="264.5,-146 264.5,-525 419.5,-525 419.5,-146 264.5,-146"/>
</a>
</g>
</g>
<!-- Node2&#45;&gt;Node1 -->
<g id="edge1_Node000001_Node000002" class="edge">
<title>Node2&#45;&gt;Node1</title>
<g id="a_edge1_Node000001_Node000002"><a xlink:title=" ">
<path fill="none" stroke="#63b8ff" d="M342,-135.43C342,-126.12 342,-117.25 342,-109.03"/>
<polygon fill="none" stroke="#63b8ff" points="338.5,-135.7 342,-145.7 345.5,-135.7 338.5,-135.7"/>
</a>
</g>
</g>
<!-- Node3 -->
<g id="Node000003" class="node">
<title>Node3</title>
<g id="a_Node000003"><a xlink:href="../../d5/dc4/structArcane_1_1NodeConnectic.html" target="_top" xlink:title="Structures de connectique locale des mailles.">
<polygon fill="white" stroke="transparent" points="124,-756 0,-756 0,-602 124,-602 124,-756"/>
<text text-anchor="start" x="5" y="-744" font-family="Helvetica,sans-Serif" font-size="10.00">Arcane::NodeConnectic</text>
<text text-anchor="start" x="11.5" y="-729" font-family="Helvetica,sans-Serif" font-size="10.00">&#45;</text>
<text text-anchor="start" x="27" y="-729" font-family="Helvetica,sans-Serif" font-size="10.00">m_edge</text>
<text text-anchor="start" x="11.5" y="-714" font-family="Helvetica,sans-Serif" font-size="10.00">&#45;</text>
<text text-anchor="start" x="27" y="-714" font-family="Helvetica,sans-Serif" font-size="10.00">m_face</text>
<text text-anchor="start" x="11.5" y="-699" font-family="Helvetica,sans-Serif" font-size="10.00">&#45;</text>
<text text-anchor="start" x="27" y="-699" font-family="Helvetica,sans-Serif" font-size="10.00">m_node</text>
<text text-anchor="start" x="9" y="-684" font-family="Helvetica,sans-Serif" font-size="10.00">+</text>
<text text-anchor="start" x="27" y="-684" font-family="Helvetica,sans-Serif" font-size="10.00">NodeConnectic()</text>
<text text-anchor="start" x="9" y="-669" font-family="Helvetica,sans-Serif" font-size="10.00">+</text>
<text text-anchor="start" x="27" y="-669" font-family="Helvetica,sans-Serif" font-size="10.00">NodeConnectic()</text>
<text text-anchor="start" x="9" y="-654" font-family="Helvetica,sans-Serif" font-size="10.00">+</text>
<text text-anchor="start" x="27" y="-654" font-family="Helvetica,sans-Serif" font-size="10.00">NodeConnectic()</text>
<text text-anchor="start" x="9" y="-639" font-family="Helvetica,sans-Serif" font-size="10.00">+</text>
<text text-anchor="start" x="27" y="-639" font-family="Helvetica,sans-Serif" font-size="10.00">edge()</text>
<text text-anchor="start" x="9" y="-624" font-family="Helvetica,sans-Serif" font-size="10.00">+</text>
<text text-anchor="start" x="27" y="-624" font-family="Helvetica,sans-Serif" font-size="10.00">face()</text>
<text text-anchor="start" x="9" y="-609" font-family="Helvetica,sans-Serif" font-size="10.00">+</text>
<text text-anchor="start" x="27" y="-609" font-family="Helvetica,sans-Serif" font-size="10.00">node()</text>
<polygon fill="#666666" stroke="#666666" points="0,-739 0,-739 124,-739 124,-739 0,-739"/>
<polygon fill="#666666" stroke="#666666" points="0,-694 0,-694 25,-694 25,-694 0,-694"/>
<polygon fill="#666666" stroke="#666666" points="25,-694 25,-694 124,-694 124,-694 25,-694"/>
<polygon fill="none" stroke="#666666" points="0,-602 0,-756 124,-756 124,-602 0,-602"/>
</a>
</g>
</g>
<!-- Node3&#45;&gt;Node2 -->
<g id="edge2_Node000002_Node000003" class="edge">
<title>Node3&#45;&gt;Node2</title>
<g id="a_edge2_Node000002_Node000003"><a xlink:title=" ">
<path fill="none" stroke="#63b8ff" d="M90.79,-601.97C99.98,-581.94 111.16,-560.93 124,-543 160.91,-491.46 211.94,-442.29 255.35,-404.87"/>
<polygon fill="none" stroke="#63b8ff" points="255.37,-404.86 257.33,-397.92 264.49,-397.07 262.53,-404.01 255.37,-404.86"/>
</a>
</g>
<text text-anchor="middle" x="175.5" y="-546" font-family="Helvetica,sans-Serif" font-size="10.00" fill="grey"> #m_node_connectic</text>
</g>
<!-- Node4 -->
<g id="Node000004" class="node">
<title>Node4</title>
<g id="a_Node000004"><a xlink:href="../../db/d35/structArcane_1_1EdgeConnectic.html" target="_top" xlink:title="Structures de connectique locale des mailles.">
<polygon fill="white" stroke="transparent" points="264,-741 142,-741 142,-617 264,-617 264,-741"/>
<text text-anchor="start" x="147" y="-729" font-family="Helvetica,sans-Serif" font-size="10.00">Arcane::EdgeConnectic</text>
<text text-anchor="start" x="153.5" y="-714" font-family="Helvetica,sans-Serif" font-size="10.00">&#45;</text>
<text text-anchor="start" x="169" y="-714" font-family="Helvetica,sans-Serif" font-size="10.00">m_node</text>
<text text-anchor="start" x="153.5" y="-699" font-family="Helvetica,sans-Serif" font-size="10.00">&#45;</text>
<text text-anchor="start" x="169" y="-699" font-family="Helvetica,sans-Serif" font-size="10.00">m_face</text>
<text text-anchor="start" x="151" y="-684" font-family="Helvetica,sans-Serif" font-size="10.00">+</text>
<text text-anchor="start" x="169" y="-684" font-family="Helvetica,sans-Serif" font-size="10.00">nbNode()</text>
<text text-anchor="start" x="151" y="-669" font-family="Helvetica,sans-Serif" font-size="10.00">+</text>
<text text-anchor="start" x="169" y="-669" font-family="Helvetica,sans-Serif" font-size="10.00">EdgeConnectic()</text>
<text text-anchor="start" x="151" y="-654" font-family="Helvetica,sans-Serif" font-size="10.00">+</text>
<text text-anchor="start" x="169" y="-654" font-family="Helvetica,sans-Serif" font-size="10.00">EdgeConnectic()</text>
<text text-anchor="start" x="151" y="-639" font-family="Helvetica,sans-Serif" font-size="10.00">+</text>
<text text-anchor="start" x="169" y="-639" font-family="Helvetica,sans-Serif" font-size="10.00">node()</text>
<text text-anchor="start" x="151" y="-624" font-family="Helvetica,sans-Serif" font-size="10.00">+</text>
<text text-anchor="start" x="169" y="-624" font-family="Helvetica,sans-Serif" font-size="10.00">face()</text>
<polygon fill="#666666" stroke="#666666" points="142,-724 142,-724 264,-724 264,-724 142,-724"/>
<polygon fill="#666666" stroke="#666666" points="142,-694 142,-694 167,-694 167,-694 142,-694"/>
<polygon fill="#666666" stroke="#666666" points="167,-694 167,-694 264,-694 264,-694 167,-694"/>
<polygon fill="none" stroke="#666666" points="142,-617 142,-741 264,-741 264,-617 142,-617"/>
</a>
</g>
</g>
<!-- Node4&#45;&gt;Node2 -->
<g id="edge3_Node000002_Node000004" class="edge">
<title>Node4&#45;&gt;Node2</title>
<g id="a_edge3_Node000002_Node000004"><a xlink:title=" ">
<path fill="none" stroke="#63b8ff" d="M214.15,-616.91C219.3,-593.43 226.24,-566.6 235,-543 241.99,-524.17 250.3,-504.86 259.16,-485.98"/>
<polygon fill="none" stroke="#63b8ff" points="259.27,-485.74 258.24,-478.61 264.43,-474.91 265.46,-482.05 259.27,-485.74"/>
</a>
</g>
<text text-anchor="middle" x="286.5" y="-546" font-family="Helvetica,sans-Serif" font-size="10.00" fill="grey"> #m_edge_connectic</text>
</g>
<!-- Node5 -->
<g id="Node000005" class="node">
<title>Node5</title>
<g id="a_Node000005"><a xlink:href="../../d4/daf/structArcane_1_1FaceConnectic.html" target="_top" xlink:title="Structure de connectique locale.">
<polygon fill="white" stroke="transparent" points="402,-763.5 282,-763.5 282,-594.5 402,-594.5 402,-763.5"/>
<text text-anchor="start" x="287" y="-751" font-family="Helvetica,sans-Serif" font-size="10.00">Arcane::FaceConnectic</text>
<text text-anchor="start" x="293.5" y="-736" font-family="Helvetica,sans-Serif" font-size="10.00">&#45;</text>
<text text-anchor="start" x="309" y="-736" font-family="Helvetica,sans-Serif" font-size="10.00">m_node</text>
<text text-anchor="start" x="293.5" y="-721" font-family="Helvetica,sans-Serif" font-size="10.00">&#45;</text>
<text text-anchor="start" x="309" y="-721" font-family="Helvetica,sans-Serif" font-size="10.00">m_nb_node</text>
<text text-anchor="start" x="291" y="-706" font-family="Helvetica,sans-Serif" font-size="10.00">+</text>
<text text-anchor="start" x="309" y="-706" font-family="Helvetica,sans-Serif" font-size="10.00">nbNode()</text>
<text text-anchor="start" x="291" y="-691" font-family="Helvetica,sans-Serif" font-size="10.00">+</text>
<text text-anchor="start" x="309" y="-691" font-family="Helvetica,sans-Serif" font-size="10.00">node()</text>
<text text-anchor="start" x="291" y="-676" font-family="Helvetica,sans-Serif" font-size="10.00">+</text>
<text text-anchor="start" x="309" y="-676" font-family="Helvetica,sans-Serif" font-size="10.00">FaceConnectic()</text>
<text text-anchor="start" x="291" y="-661" font-family="Helvetica,sans-Serif" font-size="10.00">+</text>
<text text-anchor="start" x="309" y="-661" font-family="Helvetica,sans-Serif" font-size="10.00">FaceConnectic()</text>
<text text-anchor="start" x="291" y="-646" font-family="Helvetica,sans-Serif" font-size="10.00">+</text>
<text text-anchor="start" x="309" y="-646" font-family="Helvetica,sans-Serif" font-size="10.00">FaceConnectic()</text>
<text text-anchor="start" x="291" y="-631" font-family="Helvetica,sans-Serif" font-size="10.00">+</text>
<text text-anchor="start" x="309" y="-631" font-family="Helvetica,sans-Serif" font-size="10.00">FaceConnectic()</text>
<text text-anchor="start" x="291" y="-616" font-family="Helvetica,sans-Serif" font-size="10.00">+</text>
<text text-anchor="start" x="309" y="-616" font-family="Helvetica,sans-Serif" font-size="10.00">FaceConnectic()</text>
<text text-anchor="start" x="291" y="-601" font-family="Helvetica,sans-Serif" font-size="10.00">+</text>
<text text-anchor="start" x="309" y="-601" font-family="Helvetica,sans-Serif" font-size="10.00">FaceConnectic()</text>
<polygon fill="#666666" stroke="#666666" points="282,-746 282,-746 402,-746 402,-746 282,-746"/>
<polygon fill="#666666" stroke="#666666" points="282,-716 282,-716 307,-716 307,-716 282,-716"/>
<polygon fill="#666666" stroke="#666666" points="307,-716 307,-716 402,-716 402,-716 307,-716"/>
<polygon fill="none" stroke="#666666" points="282,-594.5 282,-763.5 402,-763.5 402,-594.5 282,-594.5"/>
</a>
</g>
</g>
<!-- Node5&#45;&gt;Node2 -->
<g id="edge4_Node000002_Node000005" class="edge">
<title>Node5&#45;&gt;Node2</title>
<g id="a_edge4_Node000002_Node000005"><a xlink:title=" ">
<path fill="none" stroke="#63b8ff" d="M342,-594.46C342,-576.72 342,-557.25 342,-537.23"/>
<polygon fill="none" stroke="#63b8ff" points="342,-537.03 338,-531.03 342,-525.03 346,-531.03 342,-537.03"/>
</a>
</g>
<text text-anchor="middle" x="392" y="-546" font-family="Helvetica,sans-Serif" font-size="10.00" fill="grey"> #m_face_connectic</text>
</g>
<!-- Node6 -->
<g id="Node000006" class="node">
<title>Node6</title>
<g id="a_Node000006"><a xlink:href="../../d1/d24/structArcane_1_1SVCFaceConnectic.html" target="_top" xlink:title="Structures de connectique locale des mailles et svc.">
<polygon fill="white" stroke="transparent" points="560,-786 420,-786 420,-572 560,-572 560,-786"/>
<text text-anchor="start" x="425" y="-774" font-family="Helvetica,sans-Serif" font-size="10.00">Arcane::SVCFaceConnectic</text>
<text text-anchor="start" x="432" y="-759" font-family="Helvetica,sans-Serif" font-size="10.00">&#45;</text>
<text text-anchor="start" x="448" y="-759" font-family="Helvetica,sans-Serif" font-size="10.00">m_edge</text>
<text text-anchor="start" x="432" y="-744" font-family="Helvetica,sans-Serif" font-size="10.00">&#45;</text>
<text text-anchor="start" x="448" y="-744" font-family="Helvetica,sans-Serif" font-size="10.00">m_face1</text>
<text text-anchor="start" x="432" y="-729" font-family="Helvetica,sans-Serif" font-size="10.00">&#45;</text>
<text text-anchor="start" x="448" y="-729" font-family="Helvetica,sans-Serif" font-size="10.00">m_face2</text>
<text text-anchor="start" x="432" y="-714" font-family="Helvetica,sans-Serif" font-size="10.00">&#45;</text>
<text text-anchor="start" x="448" y="-714" font-family="Helvetica,sans-Serif" font-size="10.00">m_node_pos</text>
<text text-anchor="start" x="432" y="-699" font-family="Helvetica,sans-Serif" font-size="10.00">&#45;</text>
<text text-anchor="start" x="448" y="-699" font-family="Helvetica,sans-Serif" font-size="10.00">m_node_neg</text>
<text text-anchor="start" x="429.5" y="-684" font-family="Helvetica,sans-Serif" font-size="10.00">+</text>
<text text-anchor="start" x="448" y="-684" font-family="Helvetica,sans-Serif" font-size="10.00">SVCFaceConnectic()</text>
<text text-anchor="start" x="429.5" y="-669" font-family="Helvetica,sans-Serif" font-size="10.00">+</text>
<text text-anchor="start" x="448" y="-669" font-family="Helvetica,sans-Serif" font-size="10.00">SVCFaceConnectic()</text>
<text text-anchor="start" x="429.5" y="-654" font-family="Helvetica,sans-Serif" font-size="10.00">+</text>
<text text-anchor="start" x="448" y="-654" font-family="Helvetica,sans-Serif" font-size="10.00">SVCFaceConnectic()</text>
<text text-anchor="start" x="429.5" y="-639" font-family="Helvetica,sans-Serif" font-size="10.00">+</text>
<text text-anchor="start" x="448" y="-639" font-family="Helvetica,sans-Serif" font-size="10.00">edge()</text>
<text text-anchor="start" x="429.5" y="-624" font-family="Helvetica,sans-Serif" font-size="10.00">+</text>
<text text-anchor="start" x="448" y="-624" font-family="Helvetica,sans-Serif" font-size="10.00">firstFace()</text>
<text text-anchor="start" x="429.5" y="-609" font-family="Helvetica,sans-Serif" font-size="10.00">+</text>
<text text-anchor="start" x="448" y="-609" font-family="Helvetica,sans-Serif" font-size="10.00">secondFace()</text>
<text text-anchor="start" x="429.5" y="-594" font-family="Helvetica,sans-Serif" font-size="10.00">+</text>
<text text-anchor="start" x="448" y="-594" font-family="Helvetica,sans-Serif" font-size="10.00">positiveNode()</text>
<text text-anchor="start" x="429.5" y="-579" font-family="Helvetica,sans-Serif" font-size="10.00">+</text>
<text text-anchor="start" x="448" y="-579" font-family="Helvetica,sans-Serif" font-size="10.00">negativeNode()</text>
<polygon fill="#666666" stroke="#666666" points="420,-769 420,-769 560,-769 560,-769 420,-769"/>
<polygon fill="#666666" stroke="#666666" points="420,-694 420,-694 446,-694 446,-694 420,-694"/>
<polygon fill="#666666" stroke="#666666" points="446,-694 446,-694 560,-694 560,-694 446,-694"/>
<polygon fill="none" stroke="#666666" points="420,-572 420,-786 560,-786 560,-572 420,-572"/>
</a>
</g>
</g>
<!-- Node6&#45;&gt;Node2 -->
<g id="edge5_Node000002_Node000006" class="edge">
<title>Node6&#45;&gt;Node2</title>
<g id="a_edge5_Node000002_Node000006"><a xlink:title=" ">
<path fill="none" stroke="#63b8ff" d="M457.04,-571.69C453.5,-561.92 449.8,-552.23 446,-543 439.51,-527.24 432.31,-511.03 424.82,-494.96"/>
<polygon fill="none" stroke="#63b8ff" points="424.7,-494.71 418.53,-490.99 419.59,-483.85 425.76,-487.58 424.7,-494.71"/>
</a>
</g>
<text text-anchor="middle" x="510.5" y="-546" font-family="Helvetica,sans-Serif" font-size="10.00" fill="grey"> #m_svc_face_connectic</text>
</g>
<!-- Node7 -->
<g id="Node000007" class="node">
<title>Node7</title>
<g id="a_Node000007"><a xlink:href="../../d5/d10/classArcane_1_1GeomType.html" target="_top" xlink:title="Enumération spécifiant le type de polygone ou polyèdre associé à un élément ou une forme géométrique.">
<polygon fill="white" stroke="transparent" points="682,-703.5 580,-703.5 580,-654.5 682,-654.5 682,-703.5"/>
<text text-anchor="start" x="585" y="-691" font-family="Helvetica,sans-Serif" font-size="10.00">Arcane::GeomType</text>
<text text-anchor="start" x="629" y="-676" font-family="Helvetica,sans-Serif" font-size="10.00"> </text>
<text text-anchor="start" x="629" y="-661" font-family="Helvetica,sans-Serif" font-size="10.00"> </text>
<polygon fill="#666666" stroke="#666666" points="580,-686 580,-686 682,-686 682,-686 580,-686"/>
<polygon fill="#666666" stroke="#666666" points="580,-671 580,-671 682,-671 682,-671 580,-671"/>
<polygon fill="none" stroke="#666666" points="580,-654.5 580,-703.5 682,-703.5 682,-654.5 580,-654.5"/>
</a>
</g>
</g>
<!-- Node7&#45;&gt;Node2 -->
<g id="edge6_Node000002_Node000007" class="edge">
<title>Node7&#45;&gt;Node2</title>
<g id="a_edge6_Node000002_Node000007"><a xlink:title=" ">
<path fill="none" stroke="#63b8ff" d="M624.77,-654.42C616.52,-626.13 600.04,-578.12 575,-543 535.15,-487.11 477.49,-435.85 429.51,-398.38"/>
<polygon fill="none" stroke="#63b8ff" points="429.23,-398.17 422.04,-397.67 419.74,-390.84 426.93,-391.34 429.23,-398.17"/>
</a>
</g>
<text text-anchor="middle" x="616.5" y="-546" font-family="Helvetica,sans-Serif" font-size="10.00" fill="grey"> #m_cell_type</text>
</g>
</g>
</svg>

<g id="navigator" transform="translate(0 0)" fill="#404254">
  <rect fill="#f2f5e9" fill-opacity="0.5" stroke="#606060" stroke-width=".5" x="0" y="0" width="60" height="60"/>
  <use id="zoomplus" xlink:href="#zoomPlus" x="17" y="9" onmousedown="handleZoom(evt,'in')"/>
  <use id="zoomminus" xlink:href="#zoomMin" x="42" y="9" onmousedown="handleZoom(evt,'out')"/>
  <use id="reset" xlink:href="#resetDef" x="30" y="36" onmousedown="handleReset()"/>
   <use id="arrowup" xlink:href="#arrowUp" x="0" y="0" onmousedown="handlePan(0,-1)"/>
  <use id="arrowright" xlink:href="#arrowRight" x="0" y="0" onmousedown="handlePan(1,0)"/>
  <use id="arrowdown" xlink:href="#arrowDown" x="0" y="0" onmousedown="handlePan(0,1)"/>
  <use id="arrowleft" xlink:href="#arrowLeft" x="0" y="0" onmousedown="handlePan(-1,0)"/>
</g>
<svg viewBox="0 0 15 15" width="100%" height="30px" preserveAspectRatio="xMaxYMin meet">
 <g id="arrow_out" transform="scale(0.3 0.3)">
  <a xlink:href="classArcane_1_1NullConnectivity__coll__graph_org.svg" target="_base">
   <rect id="button" ry="5" rx="5" y="6" x="6" height="38" width="38"
        fill="#f2f5e9" fill-opacity="0.5" stroke="#606060" stroke-width="1.0"/>
   <path id="arrow"
     d="M 11.500037,31.436501 C 11.940474,20.09759 22.043105,11.32322 32.158766,21.979434 L 37.068811,17.246167 C 37.068811,17.246167 37.088388,32 37.088388,32 L 22.160133,31.978069 C 22.160133,31.978069 26.997745,27.140456 26.997745,27.140456 C 18.528582,18.264221 13.291696,25.230495 11.500037,31.436501 z"
     style="fill:#404040;"/>
  </a>
 </g>
</svg>

<style type='text/css'>
<![CDATA[
[data-mouse-over-selected='false'] { opacity: 0.7; }
[data-mouse-over-selected='true']  { opacity: 1.0; }
]]>
</style>
<script type="application/ecmascript"><![CDATA[
document.addEventListener('DOMContentLoaded', (event) => {
  highlightEdges();
  highlightAdjacentNodes();
});
]]></script>
</svg>
