<?xml version="1.0" encoding="UTF-8" standalone="no"?>
<!DOCTYPE svg PUBLIC "-//W3C//DTD SVG 1.1//EN"
 "http://www.w3.org/Graphics/SVG/1.1/DTD/svg11.dtd">
<!-- Generated by graphviz version 2.43.0 (0)
 -->
<!-- Title: Arcane::OwnItemGroupComputeFunctor Pages: 1 -->
<svg width="176pt" height="279pt"
 viewBox="0.00 0.00 176.00 279.00" xmlns="http://www.w3.org/2000/svg" xmlns:xlink="http://www.w3.org/1999/xlink">

<svg id="main" version="1.1" xmlns="http://www.w3.org/2000/svg" xmlns:xlink="http://www.w3.org/1999/xlink" xml:space="preserve">

<style type="text/css"><![CDATA[
.node, .edge {opacity: 0.7;}
.node.selected, .edge.selected {opacity: 1;}
.edge:hover path { stroke: red; }
.edge:hover polygon { stroke: red; fill: red; }
]]></style>
<script type="application/ecmascript" xlink:href="../../svg.min.js"/>
<svg id="graph" class="graph">
<g id="graph0" class="graph" transform="scale(1 1) rotate(0) translate(4 275)">
<title>Arcane::OwnItemGroupComputeFunctor</title>
<!-- Node1 -->
<g id="Node000001" class="node">
<title>Node1</title>
<g id="a_Node000001"><a xlink:title=" ">
<polygon fill="#999999" stroke="transparent" points="168,-60 0,-60 0,0 168,0 168,-60"/>
<text text-anchor="start" x="5" y="-48" font-family="Helvetica,sans-Serif" font-size="10.00">Arcane::OwnItemGroupCompute</text>
<text text-anchor="start" x="65.5" y="-37" font-family="Helvetica,sans-Serif" font-size="10.00">Functor</text>
<text text-anchor="start" x="82" y="-22" font-family="Helvetica,sans-Serif" font-size="10.00"> </text>
<text text-anchor="start" x="20" y="-7" font-family="Helvetica,sans-Serif" font-size="10.00">+</text>
<text text-anchor="start" x="49" y="-7" font-family="Helvetica,sans-Serif" font-size="10.00">executeFunctor()</text>
<polygon fill="#666666" stroke="#666666" points="0,-32 0,-32 168,-32 168,-32 0,-32"/>
<polygon fill="#666666" stroke="#666666" points="0,-17 0,-17 168,-17 168,-17 0,-17"/>
<polygon fill="none" stroke="#666666" points="0,0 0,-60 168,-60 168,0 0,0"/>
</a>
</g>
</g>
<!-- Node2 -->
<g id="Node000002" class="node">
<title>Node2</title>
<g id="a_Node000002"><a xlink:href="../../d5/d78/classArcane_1_1ItemGroupComputeFunctor.html" target="_top" xlink:title="Fonctor pour le calcul des éléments d&#39;un groupe.">
<polygon fill="white" stroke="transparent" points="164.5,-171 3.5,-171 3.5,-96 164.5,-96 164.5,-171"/>
<text text-anchor="start" x="16.5" y="-158.5" font-family="Helvetica,sans-Serif" font-size="10.00">Arcane::ItemGroupCompute</text>
<text text-anchor="start" x="66" y="-147.5" font-family="Helvetica,sans-Serif" font-size="10.00">Functor</text>
<text text-anchor="start" x="8" y="-132.5" font-family="Helvetica,sans-Serif" font-size="10.00">#</text>
<text text-anchor="start" x="21" y="-132.5" font-family="Helvetica,sans-Serif" font-size="10.00">m_group</text>
<text text-anchor="start" x="8" y="-117.5" font-family="Helvetica,sans-Serif" font-size="10.00">+</text>
<text text-anchor="start" x="21" y="-117.5" font-family="Helvetica,sans-Serif" font-size="10.00">ItemGroupComputeFunctor()</text>
<text text-anchor="start" x="8" y="-102.5" font-family="Helvetica,sans-Serif" font-size="10.00">+</text>
<text text-anchor="start" x="21" y="-102.5" font-family="Helvetica,sans-Serif" font-size="10.00">setGroup()</text>
<polygon fill="#666666" stroke="#666666" points="4,-142.5 4,-142.5 165,-142.5 165,-142.5 4,-142.5"/>
<polygon fill="#666666" stroke="#666666" points="4,-127.5 4,-127.5 19,-127.5 19,-127.5 4,-127.5"/>
<polygon fill="#666666" stroke="#666666" points="19,-127.5 19,-127.5 165,-127.5 165,-127.5 19,-127.5"/>
<polygon fill="none" stroke="#666666" points="3.5,-96 3.5,-171 164.5,-171 164.5,-96 3.5,-96"/>
</a>
</g>
</g>
<!-- Node2&#45;&gt;Node1 -->
<g id="edge1_Node000001_Node000002" class="edge">
<title>Node2&#45;&gt;Node1</title>
<g id="a_edge1_Node000001_Node000002"><a xlink:title=" ">
<path fill="none" stroke="#63b8ff" d="M84,-85.79C84,-77.1 84,-68.25 84,-60.27"/>
<polygon fill="none" stroke="#63b8ff" points="80.5,-85.86 84,-95.86 87.5,-85.86 80.5,-85.86"/>
</a>
</g>
</g>
<!-- Node3 -->
<g id="Node000003" class="node">
<title>Node3</title>
<g id="a_Node000003"><a xlink:href="../../d1/d94/classArcane_1_1IFunctor.html" target="_top" xlink:title="Interface d&#39;un fonctor.">
<polygon fill="white" stroke="transparent" points="135.5,-271 32.5,-271 32.5,-207 135.5,-207 135.5,-271"/>
<text text-anchor="start" x="45" y="-259" font-family="Helvetica,sans-Serif" font-size="10.00">Arcane::IFunctor</text>
<text text-anchor="start" x="82.5" y="-244" font-family="Helvetica,sans-Serif" font-size="10.00"> </text>
<text text-anchor="start" x="37" y="-229" font-family="Helvetica,sans-Serif" font-size="10.00">+</text>
<text text-anchor="start" x="50" y="-229" font-family="Helvetica,sans-Serif" font-size="10.00">~IFunctor()</text>
<text text-anchor="start" x="37" y="-214" font-family="Helvetica,sans-Serif" font-size="10.00">+</text>
<text text-anchor="start" x="50" y="-214" font-family="Helvetica,sans-Serif" font-size="10.00">executeFunctor()</text>
<polygon fill="#666666" stroke="#666666" points="33,-254 33,-254 136,-254 136,-254 33,-254"/>
<polygon fill="#666666" stroke="#666666" points="33,-239 33,-239 136,-239 136,-239 33,-239"/>
<polygon fill="none" stroke="#666666" points="32.5,-207 32.5,-271 135.5,-271 135.5,-207 32.5,-207"/>
</a>
</g>
</g>
<!-- Node3&#45;&gt;Node2 -->
<g id="edge2_Node000002_Node000003" class="edge">
<title>Node3&#45;&gt;Node2</title>
<g id="a_edge2_Node000002_Node000003"><a xlink:title=" ">
<path fill="none" stroke="#63b8ff" d="M84,-196.92C84,-188.48 84,-179.65 84,-171.37"/>
<polygon fill="none" stroke="#63b8ff" points="80.5,-196.95 84,-206.95 87.5,-196.95 80.5,-196.95"/>
</a>
</g>
</g>
</g>
</svg>
</svg>

<style type='text/css'>
<![CDATA[
[data-mouse-over-selected='false'] { opacity: 0.7; }
[data-mouse-over-selected='true']  { opacity: 1.0; }
]]>
</style>
<script type="application/ecmascript"><![CDATA[
document.addEventListener('DOMContentLoaded', (event) => {
  highlightEdges();
  highlightAdjacentNodes();
});
]]></script>
</svg>
