<?xml version="1.0" encoding="UTF-8" standalone="no"?>
<!DOCTYPE svg PUBLIC "-//W3C//DTD SVG 1.1//EN"
 "http://www.w3.org/Graphics/SVG/1.1/DTD/svg11.dtd">
<!-- Generated by graphviz version 2.43.0 (0)
 -->
<!-- Title: Arcane::DataSynchronizeInfo::changeLocalIds Pages: 1 -->
<svg width="513pt" height="38pt"
 viewBox="0.00 0.00 513.00 38.00" xmlns="http://www.w3.org/2000/svg" xmlns:xlink="http://www.w3.org/1999/xlink">
<g id="graph0" class="graph" transform="scale(1 1) rotate(0) translate(4 34)">
<title>Arcane::DataSynchronizeInfo::changeLocalIds</title>
<!-- Node1 -->
<g id="Node000001" class="node">
<title>Node1</title>
<g id="a_Node000001"><a xlink:title="Notifie l&#39;instance que les indices locaux ont changé">
<polygon fill="#999999" stroke="#666666" points="158,-30 0,-30 0,0 158,0 158,-30"/>
<text text-anchor="start" x="8" y="-18" font-family="Helvetica,sans-Serif" font-size="10.00">Arcane::DataSynchronizeInfo</text>
<text text-anchor="middle" x="79" y="-7" font-family="Helvetica,sans-Serif" font-size="10.00">::changeLocalIds</text>
</a>
</g>
</g>
<!-- Node2 -->
<g id="Node000002" class="node">
<title>Node2</title>
<g id="a_Node000002"><a xlink:href="../../dc/d17/classArcane_1_1DataSynchronizeInfo.html#a4097c8b32dbbc9b1e77f6ab25ba7e6f7" target="_top" xlink:title="Notifie l&#39;instance que les valeurs ont changé">
<polygon fill="white" stroke="#666666" points="352,-30 194,-30 194,0 352,0 352,-30"/>
<text text-anchor="start" x="202" y="-18" font-family="Helvetica,sans-Serif" font-size="10.00">Arcane::DataSynchronizeInfo</text>
<text text-anchor="middle" x="273" y="-7" font-family="Helvetica,sans-Serif" font-size="10.00">::recompute</text>
</a>
</g>
</g>
<!-- Node1&#45;&gt;Node2 -->
<g id="edge1_Node000001_Node000002" class="edge">
<title>Node1&#45;&gt;Node2</title>
<g id="a_edge1_Node000001_Node000002"><a xlink:title=" ">
<path fill="none" stroke="#63b8ff" d="M158.09,-15C166.6,-15 175.3,-15 183.92,-15"/>
<polygon fill="#63b8ff" stroke="#63b8ff" points="183.98,-18.5 193.98,-15 183.98,-11.5 183.98,-18.5"/>
</a>
</g>
</g>
<!-- Node3 -->
<g id="Node000003" class="node">
<title>Node3</title>
<g id="a_Node000003"><a xlink:href="../../d1/dfb/classArcane_1_1Array.html#a31fc5b4bd79b4f6e4a011735d33b1818" target="_top" xlink:title="Change le nombre d&#39;éléments du tableau à s.">
<polygon fill="white" stroke="#666666" points="505,-24.5 388,-24.5 388,-5.5 505,-5.5 505,-24.5"/>
<text text-anchor="middle" x="446.5" y="-12.5" font-family="Helvetica,sans-Serif" font-size="10.00">Arcane::Array::resize</text>
</a>
</g>
</g>
<!-- Node2&#45;&gt;Node3 -->
<g id="edge2_Node000002_Node000003" class="edge">
<title>Node2&#45;&gt;Node3</title>
<g id="a_edge2_Node000002_Node000003"><a xlink:title=" ">
<path fill="none" stroke="#63b8ff" d="M352.22,-15C360.76,-15 369.41,-15 377.81,-15"/>
<polygon fill="#63b8ff" stroke="#63b8ff" points="377.91,-18.5 387.91,-15 377.91,-11.5 377.91,-18.5"/>
</a>
</g>
</g>
</g>
</svg>
