<?xml version="1.0" encoding="UTF-8" standalone="no"?>
<!DOCTYPE svg PUBLIC "-//W3C//DTD SVG 1.1//EN"
 "http://www.w3.org/Graphics/SVG/1.1/DTD/svg11.dtd">
<!-- Generated by graphviz version 14.1.2 (0)
 -->
<!-- Title: SpanViews.h Pages: 1 -->
<svg width="321pt" height="142pt"
 viewBox="0.00 0.00 321.00 142.00" xmlns="http://www.w3.org/2000/svg" xmlns:xlink="http://www.w3.org/1999/xlink">

<svg id="main" version="1.1" xmlns="http://www.w3.org/2000/svg" xmlns:xlink="http://www.w3.org/1999/xlink" xml:space="preserve">

<style type="text/css"><![CDATA[
.node, .edge {opacity: 0.7;}
.node.selected, .edge.selected {opacity: 1;}
.edge:hover path { stroke: red; }
.edge:hover polygon { stroke: red; fill: red; }
]]></style>
<script type="application/ecmascript" xlink:href="../../svg.min.js"/>
<svg id="graph" class="graph">
<g id="graph0" class="graph" transform="scale(1 1) rotate(0) translate(4 138.25)">
<title>SpanViews.h</title>
<!-- Node1 -->
<g id="Node000001" class="node">
<title>Node1</title>
<g id="a_Node000001"><a xlink:title=" ">
<polygon fill="#999999" stroke="#666666" points="154.38,-134.25 76.12,-134.25 76.12,-113.5 154.38,-113.5 154.38,-134.25"/>
<text xml:space="preserve" text-anchor="middle" x="115.25" y="-120.75" font-family="Helvetica,sans-Serif" font-size="10.00">SpanViews.h</text>
</a>
</g>
</g>
<!-- Node2 -->
<g id="Node000002" class="node">
<title>Node2</title>
<g id="a_Node000002"><a xlink:href="../../de/dd0/AcceleratorGlobal_8cc_source.html" target="_top" xlink:title=" ">
<polygon fill="white" stroke="#666666" points="116.5,-77.5 0,-77.5 0,-56.75 116.5,-56.75 116.5,-77.5"/>
<text xml:space="preserve" text-anchor="middle" x="58.25" y="-64" font-family="Helvetica,sans-Serif" font-size="10.00">AcceleratorGlobal.cc</text>
</a>
</g>
</g>
<!-- Node1&#45;&gt;Node2 -->
<g id="edge1_Node000001_Node000002" class="edge">
<title>Node1&#45;&gt;Node2</title>
<g id="a_edge1_Node000001_Node000002"><a xlink:title=" ">
<path fill="none" stroke="#63b8ff" d="M96.98,-105.33C87.5,-96.22 76.27,-85.43 68.35,-77.83"/>
<polygon fill="#63b8ff" stroke="#63b8ff" points="94.33,-107.64 103.97,-112.04 99.18,-102.59 94.33,-107.64"/>
</a>
</g>
</g>
<!-- Node3 -->
<g id="Node000003" class="node">
<title>Node3</title>
<g id="a_Node000003"><a xlink:href="../../d6/d82/arcane_2src_2arcane_2accelerator_2SpanViews_8h_source.html" target="_top" xlink:title=" ">
<polygon fill="white" stroke="#666666" points="212.38,-77.5 134.12,-77.5 134.12,-56.75 212.38,-56.75 212.38,-77.5"/>
<text xml:space="preserve" text-anchor="middle" x="173.25" y="-64" font-family="Helvetica,sans-Serif" font-size="10.00">SpanViews.h</text>
</a>
</g>
</g>
<!-- Node1&#45;&gt;Node3 -->
<g id="edge2_Node000001_Node000003" class="edge">
<title>Node1&#45;&gt;Node3</title>
<g id="a_edge2_Node000001_Node000003"><a xlink:title=" ">
<path fill="none" stroke="#63b8ff" d="M133.84,-105.33C143.49,-96.22 154.91,-85.43 162.97,-77.83"/>
<polygon fill="#63b8ff" stroke="#63b8ff" points="131.59,-102.64 126.72,-112.05 136.39,-107.73 131.59,-102.64"/>
</a>
</g>
</g>
<!-- Node4 -->
<g id="Node000004" class="node">
<title>Node4</title>
<g id="a_Node000004"><a xlink:href="../../db/dd9/ComponentItemInternalData_8cc_source.html" target="_top" xlink:title=" ">
<polygon fill="white" stroke="#666666" points="176.75,-20.75 7.75,-20.75 7.75,0 176.75,0 176.75,-20.75"/>
<text xml:space="preserve" text-anchor="middle" x="92.25" y="-7.25" font-family="Helvetica,sans-Serif" font-size="10.00">ComponentItemInternalData.cc</text>
</a>
</g>
</g>
<!-- Node3&#45;&gt;Node4 -->
<g id="edge3_Node000003_Node000004" class="edge">
<title>Node3&#45;&gt;Node4</title>
<g id="a_edge3_Node000003_Node000004"><a xlink:title=" ">
<path fill="none" stroke="#63b8ff" d="M149.34,-49.96C135.46,-40.58 118.43,-29.07 106.61,-21.08"/>
<polygon fill="#63b8ff" stroke="#63b8ff" points="147.27,-52.79 157.51,-55.49 151.19,-46.99 147.27,-52.79"/>
</a>
</g>
</g>
<!-- Node5 -->
<g id="Node000005" class="node">
<title>Node5</title>
<g id="a_Node000005"><a xlink:href="../../df/db9/MeshEnvironment_8cc_source.html" target="_top" xlink:title=" ">
<polygon fill="white" stroke="#666666" points="313.25,-20.75 195.25,-20.75 195.25,0 313.25,0 313.25,-20.75"/>
<text xml:space="preserve" text-anchor="middle" x="254.25" y="-7.25" font-family="Helvetica,sans-Serif" font-size="10.00">MeshEnvironment.cc</text>
</a>
</g>
</g>
<!-- Node3&#45;&gt;Node5 -->
<g id="edge4_Node000003_Node000005" class="edge">
<title>Node3&#45;&gt;Node5</title>
<g id="a_edge4_Node000003_Node000005"><a xlink:title=" ">
<path fill="none" stroke="#63b8ff" d="M197.16,-49.96C211.04,-40.58 228.07,-29.07 239.89,-21.08"/>
<polygon fill="#63b8ff" stroke="#63b8ff" points="195.31,-46.99 188.99,-55.49 199.23,-52.79 195.31,-46.99"/>
</a>
</g>
</g>
</g>
</svg>
</svg>

<style type='text/css'>
<![CDATA[
[data-mouse-over-selected='false'] { opacity: 0.7; }
[data-mouse-over-selected='true']  { opacity: 1.0; }
]]>
</style>
<script type="application/ecmascript"><![CDATA[
document.addEventListener('DOMContentLoaded', (event) => {
  highlightEdges();
  highlightAdjacentNodes();
});
]]></script>
</svg>
