<?xml version="1.0" encoding="UTF-8" standalone="no"?>
<!DOCTYPE svg PUBLIC "-//W3C//DTD SVG 1.1//EN"
 "http://www.w3.org/Graphics/SVG/1.1/DTD/svg11.dtd">
<!-- Generated by graphviz version 2.43.0 (0)
 -->
<!-- Title: Arcane::Materials::IMeshMaterialVariableFactory Pages: 1 -->
<svg width="190pt" height="239pt"
 viewBox="0.00 0.00 190.00 239.00" xmlns="http://www.w3.org/2000/svg" xmlns:xlink="http://www.w3.org/1999/xlink">
<g id="graph0" class="graph" transform="scale(1 1) rotate(0) translate(4 235)">
<title>Arcane::Materials::IMeshMaterialVariableFactory</title>
<!-- Node1 -->
<g id="Node000001" class="node">
<title>Node1</title>
<g id="a_Node000001"><a xlink:title="Interface d&#39;une fabrique de variables matériaux.">
<polygon fill="#999999" stroke="transparent" points="182,-231 0,-231 0,-141 182,-141 182,-231"/>
<text text-anchor="start" x="18.5" y="-219" font-family="Helvetica,sans-Serif" font-size="10.00">Arcane::Materials::</text>
<text text-anchor="start" x="18.5" y="-208" font-family="Helvetica,sans-Serif" font-size="10.00">IMeshMaterialVariableFactory</text>
<text text-anchor="start" x="89" y="-193" font-family="Helvetica,sans-Serif" font-size="10.00"> </text>
<text text-anchor="start" x="4" y="-178" font-family="Helvetica,sans-Serif" font-size="10.00">+</text>
<text text-anchor="start" x="17" y="-178" font-family="Helvetica,sans-Serif" font-size="10.00">~IMeshMaterialVariableFactory()</text>
<text text-anchor="start" x="4" y="-163" font-family="Helvetica,sans-Serif" font-size="10.00">+</text>
<text text-anchor="start" x="17" y="-163" font-family="Helvetica,sans-Serif" font-size="10.00">createVariable()</text>
<text text-anchor="start" x="4" y="-148" font-family="Helvetica,sans-Serif" font-size="10.00">+</text>
<text text-anchor="start" x="17" y="-148" font-family="Helvetica,sans-Serif" font-size="10.00">materialVariableTypeInfo()</text>
<polygon fill="#666666" stroke="#666666" points="0,-203 0,-203 182,-203 182,-203 0,-203"/>
<polygon fill="#666666" stroke="#666666" points="0,-188 0,-188 182,-188 182,-188 0,-188"/>
<polygon fill="none" stroke="#666666" points="0,-141 0,-231 182,-231 182,-141 0,-141"/>
</a>
</g>
</g>
<!-- Node2 -->
<g id="Node000002" class="node">
<title>Node2</title>
<g id="a_Node000002"><a xlink:href="../../d6/d68/classArcane_1_1Materials_1_1MeshMaterialVariableFactory.html" target="_top" xlink:title=" ">
<polygon fill="white" stroke="transparent" points="176.5,-105 5.5,-105 5.5,0 176.5,0 176.5,-105"/>
<text text-anchor="start" x="20.5" y="-92.5" font-family="Helvetica,sans-Serif" font-size="10.00">Arcane::Materials::</text>
<text text-anchor="start" x="20.5" y="-81.5" font-family="Helvetica,sans-Serif" font-size="10.00">MeshMaterialVariableFactory</text>
<text text-anchor="start" x="12.5" y="-66.5" font-family="Helvetica,sans-Serif" font-size="10.00">&#45;</text>
<text text-anchor="start" x="23" y="-66.5" font-family="Helvetica,sans-Serif" font-size="10.00">m_variable_type_info</text>
<text text-anchor="start" x="12.5" y="-51.5" font-family="Helvetica,sans-Serif" font-size="10.00">&#45;</text>
<text text-anchor="start" x="23" y="-51.5" font-family="Helvetica,sans-Serif" font-size="10.00">m_function</text>
<text text-anchor="start" x="10" y="-36.5" font-family="Helvetica,sans-Serif" font-size="10.00">+</text>
<text text-anchor="start" x="23" y="-36.5" font-family="Helvetica,sans-Serif" font-size="10.00">MeshMaterialVariableFactory()</text>
<text text-anchor="start" x="10" y="-21.5" font-family="Helvetica,sans-Serif" font-size="10.00">+</text>
<text text-anchor="start" x="23" y="-21.5" font-family="Helvetica,sans-Serif" font-size="10.00">createVariable()</text>
<text text-anchor="start" x="10" y="-6.5" font-family="Helvetica,sans-Serif" font-size="10.00">+</text>
<text text-anchor="start" x="23" y="-6.5" font-family="Helvetica,sans-Serif" font-size="10.00">materialVariableTypeInfo()</text>
<polygon fill="#bfbfbf" stroke="#bfbfbf" points="6,-76.5 6,-76.5 177,-76.5 177,-76.5 6,-76.5"/>
<polygon fill="#bfbfbf" stroke="#bfbfbf" points="6,-46.5 6,-46.5 21,-46.5 21,-46.5 6,-46.5"/>
<polygon fill="#bfbfbf" stroke="#bfbfbf" points="21,-46.5 21,-46.5 177,-46.5 177,-46.5 21,-46.5"/>
<polygon fill="none" stroke="#bfbfbf" points="5.5,0 5.5,-105 176.5,-105 176.5,0 5.5,0"/>
</a>
</g>
</g>
<!-- Node1&#45;&gt;Node2 -->
<g id="edge1_Node000001_Node000002" class="edge">
<title>Node1&#45;&gt;Node2</title>
<g id="a_edge1_Node000001_Node000002"><a xlink:title=" ">
<path fill="none" stroke="#63b8ff" d="M91,-130.67C91,-122.19 91,-113.45 91,-105.04"/>
<polygon fill="none" stroke="#63b8ff" points="87.5,-130.85 91,-140.85 94.5,-130.85 87.5,-130.85"/>
</a>
</g>
</g>
</g>
</svg>
