<?xml version="1.0" encoding="UTF-8" standalone="no"?>
<!DOCTYPE svg PUBLIC "-//W3C//DTD SVG 1.1//EN"
 "http://www.w3.org/Graphics/SVG/1.1/DTD/svg11.dtd">
<!-- Generated by graphviz version 2.43.0 (0)
 -->
<!-- Title: Arcane::PostProcessorWriterCommonBase::groups Pages: 1 -->
<svg width="370pt" height="278pt"
 viewBox="0.00 0.00 370.00 278.00" xmlns="http://www.w3.org/2000/svg" xmlns:xlink="http://www.w3.org/1999/xlink">
<g id="graph0" class="graph" transform="scale(1 1) rotate(0) translate(4 274)">
<title>Arcane::PostProcessorWriterCommonBase::groups</title>
<!-- Node1 -->
<g id="Node000001" class="node">
<title>Node1</title>
<g id="a_Node000001"><a xlink:title="Liste des groupes à sauver.">
<polygon fill="#999999" stroke="#666666" points="362,-150 207,-150 207,-120 362,-120 362,-150"/>
<text text-anchor="start" x="215" y="-138" font-family="Helvetica,sans-Serif" font-size="10.00">Arcane::PostProcessorWriter</text>
<text text-anchor="middle" x="284.5" y="-127" font-family="Helvetica,sans-Serif" font-size="10.00">CommonBase::groups</text>
</a>
</g>
</g>
<!-- Node2 -->
<g id="Node000002" class="node">
<title>Node2</title>
<g id="a_Node000002"><a xlink:href="../../d8/d9f/classArcane_1_1Ensight7PostProcessorService.html#ac2d15c8d0fc34f40336c659f3d0ee325" target="_top" xlink:title="Notifie qu&#39;une sortie va être effectuée avec les paramètres courants.">
<polygon fill="white" stroke="#666666" points="169,-270 2,-270 2,-240 169,-240 169,-270"/>
<text text-anchor="start" x="10" y="-258" font-family="Helvetica,sans-Serif" font-size="10.00">Arcane::Ensight7PostProcessor</text>
<text text-anchor="middle" x="85.5" y="-247" font-family="Helvetica,sans-Serif" font-size="10.00">Service::notifyBeginWrite</text>
</a>
</g>
</g>
<!-- Node1&#45;&gt;Node2 -->
<g id="edge1_Node000001_Node000002" class="edge">
<title>Node1&#45;&gt;Node2</title>
<g id="a_edge1_Node000001_Node000002"><a xlink:title=" ">
<path fill="none" stroke="#63b8ff" d="M262.6,-157.8C241.47,-179.55 206.88,-211.79 171,-231 164.68,-234.38 157.83,-237.33 150.87,-239.89"/>
<polygon fill="#63b8ff" stroke="#63b8ff" points="265.38,-159.95 269.75,-150.3 260.32,-155.12 265.38,-159.95"/>
</a>
</g>
</g>
<!-- Node3 -->
<g id="Node000003" class="node">
<title>Node3</title>
<g id="a_Node000003"><a xlink:href="../../d4/d8a/classArcane_1_1Ensight7PostProcessorServiceV2.html#a391bde7b8605c0b4b6f70633e1de3602" target="_top" xlink:title="Notifie qu&#39;une sortie va être effectuée avec les paramètres courants.">
<polygon fill="white" stroke="#666666" points="169,-222 2,-222 2,-192 169,-192 169,-222"/>
<text text-anchor="start" x="10" y="-210" font-family="Helvetica,sans-Serif" font-size="10.00">Arcane::Ensight7PostProcessor</text>
<text text-anchor="middle" x="85.5" y="-199" font-family="Helvetica,sans-Serif" font-size="10.00">ServiceV2::notifyBeginWrite</text>
</a>
</g>
</g>
<!-- Node1&#45;&gt;Node3 -->
<g id="edge2_Node000001_Node000003" class="edge">
<title>Node1&#45;&gt;Node3</title>
<g id="a_edge2_Node000001_Node000003"><a xlink:title=" ">
<path fill="none" stroke="#63b8ff" d="M241.69,-154.33C220.72,-163.64 194.78,-174.59 171,-183 162.09,-186.15 152.53,-189.19 143.17,-191.97"/>
<polygon fill="#63b8ff" stroke="#63b8ff" points="243.26,-157.47 250.95,-150.18 240.39,-151.08 243.26,-157.47"/>
</a>
</g>
</g>
<!-- Node4 -->
<g id="Node000004" class="node">
<title>Node4</title>
<g id="a_Node000004"><a xlink:href="../../d1/d23/classArcane_1_1KdiPostProcessor.html#a11cebf7db4920e41c7f110c07a1d327c" target="_top" xlink:title="Notifie qu&#39;une sortie va être effectuée avec les paramètres courants.">
<polygon fill="white" stroke="#666666" points="155.5,-174 15.5,-174 15.5,-144 155.5,-144 155.5,-174"/>
<text text-anchor="start" x="23.5" y="-162" font-family="Helvetica,sans-Serif" font-size="10.00">Arcane::KdiPostProcessor</text>
<text text-anchor="middle" x="85.5" y="-151" font-family="Helvetica,sans-Serif" font-size="10.00">::notifyBeginWrite</text>
</a>
</g>
</g>
<!-- Node1&#45;&gt;Node4 -->
<g id="edge3_Node000001_Node000004" class="edge">
<title>Node1&#45;&gt;Node4</title>
<g id="a_edge3_Node000001_Node000004"><a xlink:title=" ">
<path fill="none" stroke="#63b8ff" d="M196.81,-145.56C183.03,-147.24 168.94,-148.96 155.63,-150.58"/>
<polygon fill="#63b8ff" stroke="#63b8ff" points="197.27,-149.03 206.77,-144.35 196.42,-142.08 197.27,-149.03"/>
</a>
</g>
</g>
<!-- Node5 -->
<g id="Node000005" class="node">
<title>Node5</title>
<g id="a_Node000005"><a xlink:href="../../dc/d16/classArcane_1_1VtkHdfPostProcessor.html#ade34b6fdc3420abc34839086d654ee85" target="_top" xlink:title="Notifie qu&#39;une sortie va être effectuée avec les paramètres courants.">
<polygon fill="white" stroke="#666666" points="164.5,-126 6.5,-126 6.5,-96 164.5,-96 164.5,-126"/>
<text text-anchor="start" x="14.5" y="-114" font-family="Helvetica,sans-Serif" font-size="10.00">Arcane::VtkHdfPostProcessor</text>
<text text-anchor="middle" x="85.5" y="-103" font-family="Helvetica,sans-Serif" font-size="10.00">::notifyBeginWrite</text>
</a>
</g>
</g>
<!-- Node1&#45;&gt;Node5 -->
<g id="edge4_Node000001_Node000005" class="edge">
<title>Node1&#45;&gt;Node5</title>
<g id="a_edge4_Node000001_Node000005"><a xlink:title=" ">
<path fill="none" stroke="#63b8ff" d="M196.63,-124.42C185.98,-123.12 175.15,-121.8 164.64,-120.52"/>
<polygon fill="#63b8ff" stroke="#63b8ff" points="196.42,-127.92 206.77,-125.65 197.27,-120.97 196.42,-127.92"/>
</a>
</g>
</g>
<!-- Node6 -->
<g id="Node000006" class="node">
<title>Node6</title>
<g id="a_Node000006"><a xlink:href="../../df/de3/classArcane_1_1VtkHdfV2PostProcessor.html#ab6289de0afa38e05b973b9a7f79bf0d4" target="_top" xlink:title="Notifie qu&#39;une sortie va être effectuée avec les paramètres courants.">
<polygon fill="white" stroke="#666666" points="171,-78 0,-78 0,-48 171,-48 171,-78"/>
<text text-anchor="start" x="8" y="-66" font-family="Helvetica,sans-Serif" font-size="10.00">Arcane::VtkHdfV2PostProcessor</text>
<text text-anchor="middle" x="85.5" y="-55" font-family="Helvetica,sans-Serif" font-size="10.00">::notifyBeginWrite</text>
</a>
</g>
</g>
<!-- Node1&#45;&gt;Node6 -->
<g id="edge5_Node000001_Node000006" class="edge">
<title>Node1&#45;&gt;Node6</title>
<g id="a_edge5_Node000001_Node000006"><a xlink:title=" ">
<path fill="none" stroke="#63b8ff" d="M241.69,-115.67C220.72,-106.36 194.78,-95.41 171,-87 162.09,-83.85 152.53,-80.81 143.17,-78.03"/>
<polygon fill="#63b8ff" stroke="#63b8ff" points="240.39,-118.92 250.95,-119.82 243.26,-112.53 240.39,-118.92"/>
</a>
</g>
</g>
<!-- Node7 -->
<g id="Node000007" class="node">
<title>Node7</title>
<g id="a_Node000007"><a xlink:href="../../d2/df5/classArcane_1_1PostProcessorWriterCommonBase.html#a9aab832ae4caf5d3018a4abd4b789ddc" target="_top" xlink:title="Positionne la liste des groupes à sortir.">
<polygon fill="white" stroke="#666666" points="163,-30 8,-30 8,0 163,0 163,-30"/>
<text text-anchor="start" x="16" y="-18" font-family="Helvetica,sans-Serif" font-size="10.00">Arcane::PostProcessorWriter</text>
<text text-anchor="middle" x="85.5" y="-7" font-family="Helvetica,sans-Serif" font-size="10.00">CommonBase::setGroups</text>
</a>
</g>
</g>
<!-- Node1&#45;&gt;Node7 -->
<g id="edge6_Node000001_Node000007" class="edge">
<title>Node1&#45;&gt;Node7</title>
<g id="a_edge6_Node000001_Node000007"><a xlink:title=" ">
<path fill="none" stroke="#63b8ff" d="M262.6,-112.2C241.47,-90.45 206.88,-58.21 171,-39 164.68,-35.62 157.83,-32.67 150.87,-30.11"/>
<polygon fill="#63b8ff" stroke="#63b8ff" points="260.32,-114.88 269.75,-119.7 265.38,-110.05 260.32,-114.88"/>
</a>
</g>
</g>
</g>
</svg>
