<?xml version="1.0" encoding="UTF-8" standalone="no"?>
<!DOCTYPE svg PUBLIC "-//W3C//DTD SVG 1.1//EN"
 "http://www.w3.org/Graphics/SVG/1.1/DTD/svg11.dtd">
<!-- Generated by graphviz version 2.43.0 (0)
 -->
<!-- Title: Arcane::CellGroupReader&lt; LimaMaliReader &gt; Pages: 1 -->
<svg width="146pt" height="269pt"
 viewBox="0.00 0.00 146.00 269.00" xmlns="http://www.w3.org/2000/svg" xmlns:xlink="http://www.w3.org/1999/xlink">

<svg id="main" version="1.1" xmlns="http://www.w3.org/2000/svg" xmlns:xlink="http://www.w3.org/1999/xlink" xml:space="preserve">

<style type="text/css"><![CDATA[
.node, .edge {opacity: 0.7;}
.node.selected, .edge.selected {opacity: 1;}
.edge:hover path { stroke: red; }
.edge:hover polygon { stroke: red; fill: red; }
]]></style>
<script type="application/ecmascript" xlink:href="../../svg.min.js"/>
<svg id="graph" class="graph">
<g id="graph0" class="graph" transform="scale(1 1) rotate(0) translate(4 265)">
<title>Arcane::CellGroupReader&lt; LimaMaliReader &gt;</title>
<!-- Node1 -->
<g id="Node000001" class="node">
<title>Node1</title>
<g id="a_Node000001"><a xlink:title=" ">
<polygon fill="#999999" stroke="transparent" points="135.5,-90 2.5,-90 2.5,0 135.5,0 135.5,-90"/>
<text text-anchor="start" x="8" y="-78" font-family="Helvetica,sans-Serif" font-size="10.00">Arcane::CellGroupReader</text>
<text text-anchor="start" x="18" y="-67" font-family="Helvetica,sans-Serif" font-size="10.00">&lt; LimaMaliReader &gt;</text>
<text text-anchor="start" x="67.5" y="-52" font-family="Helvetica,sans-Serif" font-size="10.00"> </text>
<text text-anchor="start" x="11.5" y="-37" font-family="Helvetica,sans-Serif" font-size="10.00">+</text>
<text text-anchor="start" x="29" y="-37" font-family="Helvetica,sans-Serif" font-size="10.00">CellGroupReader()</text>
<text text-anchor="start" x="11.5" y="-22" font-family="Helvetica,sans-Serif" font-size="10.00">+</text>
<text text-anchor="start" x="29" y="-22" font-family="Helvetica,sans-Serif" font-size="10.00">read()</text>
<text text-anchor="start" x="11.5" y="-7" font-family="Helvetica,sans-Serif" font-size="10.00">+</text>
<text text-anchor="start" x="29" y="-7" font-family="Helvetica,sans-Serif" font-size="10.00">_getGroupsName()</text>
<polygon fill="#666666" stroke="#666666" points="3,-62 3,-62 136,-62 136,-62 3,-62"/>
<polygon fill="#666666" stroke="#666666" points="3,-47 3,-47 136,-47 136,-47 3,-47"/>
<polygon fill="none" stroke="#666666" points="2.5,0 2.5,-90 135.5,-90 135.5,0 2.5,0"/>
</a>
</g>
</g>
<!-- Node2 -->
<g id="Node000002" class="node">
<title>Node2</title>
<g id="a_Node000002"><a xlink:href="../../d3/d93/classArcane_1_1LimaGroupReader.html" target="_top" xlink:title=" ">
<polygon fill="white" stroke="transparent" points="138,-261 0,-261 0,-126 138,-126 138,-261"/>
<text text-anchor="start" x="5" y="-248.5" font-family="Helvetica,sans-Serif" font-size="10.00">Arcane::LimaGroupReader</text>
<text text-anchor="start" x="17.5" y="-237.5" font-family="Helvetica,sans-Serif" font-size="10.00">&lt; LimaMaliReader &gt;</text>
<text text-anchor="start" x="7" y="-222.5" font-family="Helvetica,sans-Serif" font-size="10.00">#</text>
<text text-anchor="start" x="23" y="-222.5" font-family="Helvetica,sans-Serif" font-size="10.00">m_wrapper</text>
<text text-anchor="start" x="9.5" y="-207.5" font-family="Helvetica,sans-Serif" font-size="10.00">&#45;</text>
<text text-anchor="start" x="23" y="-207.5" font-family="Helvetica,sans-Serif" font-size="10.00">m_groups_name</text>
<text text-anchor="start" x="7" y="-192.5" font-family="Helvetica,sans-Serif" font-size="10.00">+</text>
<text text-anchor="start" x="23" y="-192.5" font-family="Helvetica,sans-Serif" font-size="10.00">LimaGroupReader()</text>
<text text-anchor="start" x="7" y="-177.5" font-family="Helvetica,sans-Serif" font-size="10.00">+</text>
<text text-anchor="start" x="23" y="-177.5" font-family="Helvetica,sans-Serif" font-size="10.00">~LimaGroupReader()</text>
<text text-anchor="start" x="7" y="-162.5" font-family="Helvetica,sans-Serif" font-size="10.00">+</text>
<text text-anchor="start" x="23" y="-162.5" font-family="Helvetica,sans-Serif" font-size="10.00">read()</text>
<text text-anchor="start" x="7" y="-147.5" font-family="Helvetica,sans-Serif" font-size="10.00">+</text>
<text text-anchor="start" x="23" y="-147.5" font-family="Helvetica,sans-Serif" font-size="10.00">groupsName()</text>
<text text-anchor="start" x="7" y="-132.5" font-family="Helvetica,sans-Serif" font-size="10.00">#</text>
<text text-anchor="start" x="23" y="-132.5" font-family="Helvetica,sans-Serif" font-size="10.00">_getGroupsName()</text>
<polygon fill="#bfbfbf" stroke="#bfbfbf" points="0,-232.5 0,-232.5 138,-232.5 138,-232.5 0,-232.5"/>
<polygon fill="#bfbfbf" stroke="#bfbfbf" points="0,-202.5 0,-202.5 21,-202.5 21,-202.5 0,-202.5"/>
<polygon fill="#bfbfbf" stroke="#bfbfbf" points="21,-202.5 21,-202.5 138,-202.5 138,-202.5 21,-202.5"/>
<polygon fill="none" stroke="#bfbfbf" points="0,-126 0,-261 138,-261 138,-126 0,-126"/>
</a>
</g>
</g>
<!-- Node2&#45;&gt;Node1 -->
<g id="edge1_Node000001_Node000002" class="edge">
<title>Node2&#45;&gt;Node1</title>
<g id="a_edge1_Node000001_Node000002"><a xlink:title=" ">
<path fill="none" stroke="#63b8ff" d="M69,-115.47C69,-106.77 69,-98.14 69,-90.08"/>
<polygon fill="none" stroke="#63b8ff" points="65.5,-115.68 69,-125.68 72.5,-115.68 65.5,-115.68"/>
</a>
</g>
</g>
</g>
</svg>
</svg>

<style type='text/css'>
<![CDATA[
[data-mouse-over-selected='false'] { opacity: 0.7; }
[data-mouse-over-selected='true']  { opacity: 1.0; }
]]>
</style>
<script type="application/ecmascript"><![CDATA[
document.addEventListener('DOMContentLoaded', (event) => {
  highlightEdges();
  highlightAdjacentNodes();
});
]]></script>
</svg>
