<?xml version="1.0" encoding="UTF-8" standalone="no"?>
<!DOCTYPE svg PUBLIC "-//W3C//DTD SVG 1.1//EN"
 "http://www.w3.org/Graphics/SVG/1.1/DTD/svg11.dtd">
<!-- Generated by graphviz version 2.43.0 (0)
 -->
<!-- Title: Arcane::DbgHelpSymbolizerService Pages: 1 -->
<!--zoomable 568 -->

<svg id="main" version="1.1" xmlns="http://www.w3.org/2000/svg" xmlns:xlink="http://www.w3.org/1999/xlink" xml:space="preserve" onload="init(evt)">

<style type="text/css"><![CDATA[
.node, .edge {opacity: 0.7;}
.node.selected, .edge.selected {opacity: 1;}
.edge:hover path { stroke: red; }
.edge:hover polygon { stroke: red; fill: red; }
]]></style>

<defs>
  <circle id="rim" cx="0" cy="0" r="7"/>
  <circle id="rim2" cx="0" cy="0" r="3.5"/>
  <g id="zoomPlus">
    <use xlink:href="#rim" fill="#404040"><set attributeName="fill" to="#808080" begin="zoomplus.mouseover" end="zoomplus.mouseout"/></use>
    <path d="M-4,0h8M0,-4v8" fill="none" stroke="white" stroke-width="1.5" pointer-events="none"/>
  </g>
  <g id="zoomMin">
    <use xlink:href="#rim" fill="#404040"><set attributeName="fill" to="#808080" begin="zoomminus.mouseover" end="zoomminus.mouseout"/></use>
    <path d="M-4,0h8" fill="none" stroke="white" stroke-width="1.5" pointer-events="none"/>
  </g>
  <g id="arrowUp" transform="translate(30 24)">
    <use xlink:href="#rim"/>
    <path pointer-events="none" fill="none" stroke="white" stroke-width="1.5" d="M0,-3.0v7 M-2.5,-0.5L0,-3.0L2.5,-0.5"/>
  </g>
  <g id="arrowRight" transform="rotate(90) translate(36 -43)">
    <use xlink:href="#rim"/>
    <path pointer-events="none" fill="none" stroke="white" stroke-width="1.5" d="M0,-3.0v7 M-2.5,-0.5L0,-3.0L2.5,-0.5"/>
  </g>
  <g id="arrowDown" transform="rotate(180) translate(-30 -48)">
    <use xlink:href="#rim"/>
    <path pointer-events="none" fill="none" stroke="white" stroke-width="1.5" d="M0,-3.0v7 M-2.5,-0.5L0,-3.0L2.5,-0.5"/>
  </g>
  <g id="arrowLeft" transform="rotate(270) translate(-36 17)">
    <use xlink:href="#rim"/>
    <path pointer-events="none" fill="none" stroke="white" stroke-width="1.5" d="M0,-3.0v7 M-2.5,-0.5L0,-3.0L2.5,-0.5"/>
  </g>
  <g id="resetDef">
    <use xlink:href="#rim2" fill="#404040"><set attributeName="fill" to="#808080" begin="reset.mouseover" end="reset.mouseout"/></use>
  </g>
</defs>
<script type="application/ecmascript">
var viewWidth = 375;
var viewHeight = 568;
var sectionId = 'dynsection-0';
</script>
<script type="application/ecmascript" xlink:href="../../svg.min.js"/>
<svg id="graph" class="graph">
<g id="viewport">
<title>Arcane::DbgHelpSymbolizerService</title>
<!-- Node1 -->
<g id="Node000001" class="node">
<title>Node1</title>
<g id="a_Node000001"><a xlink:title="Service de trace des appels de fonctions utilisant la libunwind.">
<polygon fill="#999999" stroke="transparent" points="299,-105 137,-105 137,0 299,0 299,-105"/>
<text text-anchor="start" x="149.5" y="-92.5" font-family="Helvetica,sans-Serif" font-size="10.00">Arcane::DbgHelpSymbolizer</text>
<text text-anchor="start" x="199.5" y="-81.5" font-family="Helvetica,sans-Serif" font-size="10.00">Service</text>
<text text-anchor="start" x="143.5" y="-66.5" font-family="Helvetica,sans-Serif" font-size="10.00">&#45;</text>
<text text-anchor="start" x="154" y="-66.5" font-family="Helvetica,sans-Serif" font-size="10.00">m_sym_container</text>
<text text-anchor="start" x="141" y="-51.5" font-family="Helvetica,sans-Serif" font-size="10.00">+</text>
<text text-anchor="start" x="154" y="-51.5" font-family="Helvetica,sans-Serif" font-size="10.00">DbgHelpSymbolizerService()</text>
<text text-anchor="start" x="141" y="-36.5" font-family="Helvetica,sans-Serif" font-size="10.00">+</text>
<text text-anchor="start" x="154" y="-36.5" font-family="Helvetica,sans-Serif" font-size="10.00">build()</text>
<text text-anchor="start" x="141" y="-21.5" font-family="Helvetica,sans-Serif" font-size="10.00">+</text>
<text text-anchor="start" x="154" y="-21.5" font-family="Helvetica,sans-Serif" font-size="10.00">stackTrace()</text>
<text text-anchor="start" x="143.5" y="-6.5" font-family="Helvetica,sans-Serif" font-size="10.00">&#45;</text>
<text text-anchor="start" x="154" y="-6.5" font-family="Helvetica,sans-Serif" font-size="10.00">_getContainer()</text>
<polygon fill="#666666" stroke="#666666" points="137,-76.5 137,-76.5 299,-76.5 299,-76.5 137,-76.5"/>
<polygon fill="#666666" stroke="#666666" points="137,-61.5 137,-61.5 152,-61.5 152,-61.5 137,-61.5"/>
<polygon fill="#666666" stroke="#666666" points="152,-61.5 152,-61.5 299,-61.5 299,-61.5 152,-61.5"/>
<polygon fill="none" stroke="#666666" points="137,0 137,-105 299,-105 299,0 137,0"/>
</a>
</g>
</g>
<!-- Node2 -->
<g id="Node000002" class="node">
<title>Node2</title>
<g id="a_Node000002"><a xlink:href="../../da/d61/classArcane_1_1AbstractService.html" target="_top" xlink:title="Classe de base d&#39;un service.">
<polygon fill="white" stroke="transparent" points="204.5,-280 77.5,-280 77.5,-141 204.5,-141 204.5,-280"/>
<text text-anchor="start" x="83" y="-267.5" font-family="Helvetica,sans-Serif" font-size="10.00">Arcane::AbstractService</text>
<text text-anchor="start" x="87.5" y="-252.5" font-family="Helvetica,sans-Serif" font-size="10.00">&#45;</text>
<text text-anchor="start" x="101" y="-252.5" font-family="Helvetica,sans-Serif" font-size="10.00">m_service_info</text>
<text text-anchor="start" x="87.5" y="-237.5" font-family="Helvetica,sans-Serif" font-size="10.00">&#45;</text>
<text text-anchor="start" x="101" y="-237.5" font-family="Helvetica,sans-Serif" font-size="10.00">m_parent</text>
<text text-anchor="start" x="85" y="-222.5" font-family="Helvetica,sans-Serif" font-size="10.00">+</text>
<text text-anchor="start" x="101" y="-222.5" font-family="Helvetica,sans-Serif" font-size="10.00">~AbstractService()</text>
<text text-anchor="start" x="85" y="-207.5" font-family="Helvetica,sans-Serif" font-size="10.00">+</text>
<text text-anchor="start" x="101" y="-207.5" font-family="Helvetica,sans-Serif" font-size="10.00">build()</text>
<text text-anchor="start" x="85" y="-192.5" font-family="Helvetica,sans-Serif" font-size="10.00">+</text>
<text text-anchor="start" x="101" y="-192.5" font-family="Helvetica,sans-Serif" font-size="10.00">serviceInfo()</text>
<text text-anchor="start" x="85" y="-177.5" font-family="Helvetica,sans-Serif" font-size="10.00">+</text>
<text text-anchor="start" x="101" y="-177.5" font-family="Helvetica,sans-Serif" font-size="10.00">serviceParent()</text>
<text text-anchor="start" x="85" y="-162.5" font-family="Helvetica,sans-Serif" font-size="10.00">+</text>
<text text-anchor="start" x="101" y="-162.5" font-family="Helvetica,sans-Serif" font-size="10.00">serviceInterface()</text>
<text text-anchor="start" x="85" y="-147.5" font-family="Helvetica,sans-Serif" font-size="10.00">#</text>
<text text-anchor="start" x="101" y="-147.5" font-family="Helvetica,sans-Serif" font-size="10.00">AbstractService()</text>
<polygon fill="#666666" stroke="#666666" points="78,-262.5 78,-262.5 205,-262.5 205,-262.5 78,-262.5"/>
<polygon fill="#666666" stroke="#666666" points="78,-232.5 78,-232.5 99,-232.5 99,-232.5 78,-232.5"/>
<polygon fill="#666666" stroke="#666666" points="99,-232.5 99,-232.5 205,-232.5 205,-232.5 99,-232.5"/>
<polygon fill="none" stroke="#666666" points="77.5,-141 77.5,-280 204.5,-280 204.5,-141 77.5,-141"/>
</a>
</g>
</g>
<!-- Node2&#45;&gt;Node1 -->
<g id="edge1_Node000001_Node000002" class="edge">
<title>Node2&#45;&gt;Node1</title>
<g id="a_edge1_Node000001_Node000002"><a xlink:title=" ">
<path fill="none" stroke="#63b8ff" d="M179.43,-131.65C183.87,-122.66 188.31,-113.66 192.51,-105.14"/>
<polygon fill="none" stroke="#63b8ff" points="176.29,-130.11 175,-140.62 182.56,-133.2 176.29,-130.11"/>
</a>
</g>
</g>
<!-- Node3 -->
<g id="Node000003" class="node">
<title>Node3</title>
<g id="a_Node000003"><a xlink:href="../../d1/d17/classArcane_1_1TraceAccessor.html" target="_top" xlink:title="Classe d&#39;accès aux traces.">
<polygon fill="white" stroke="transparent" points="140,-560 0,-560 0,-316 140,-316 140,-560"/>
<text text-anchor="start" x="15.5" y="-548" font-family="Helvetica,sans-Serif" font-size="10.00">Arcane::TraceAccessor</text>
<text text-anchor="start" x="6.5" y="-533" font-family="Helvetica,sans-Serif" font-size="10.00">&#45;</text>
<text text-anchor="start" x="17" y="-533" font-family="Helvetica,sans-Serif" font-size="10.00">m_trace</text>
<text text-anchor="start" x="6.5" y="-518" font-family="Helvetica,sans-Serif" font-size="10.00">&#45;</text>
<text text-anchor="start" x="17" y="-518" font-family="Helvetica,sans-Serif" font-size="10.00">m_local_verbose_level</text>
<text text-anchor="start" x="4" y="-503" font-family="Helvetica,sans-Serif" font-size="10.00">+</text>
<text text-anchor="start" x="17" y="-503" font-family="Helvetica,sans-Serif" font-size="10.00">TraceAccessor()</text>
<text text-anchor="start" x="4" y="-488" font-family="Helvetica,sans-Serif" font-size="10.00">+</text>
<text text-anchor="start" x="17" y="-488" font-family="Helvetica,sans-Serif" font-size="10.00">TraceAccessor()</text>
<text text-anchor="start" x="4" y="-473" font-family="Helvetica,sans-Serif" font-size="10.00">+</text>
<text text-anchor="start" x="17" y="-473" font-family="Helvetica,sans-Serif" font-size="10.00">operator=()</text>
<text text-anchor="start" x="4" y="-458" font-family="Helvetica,sans-Serif" font-size="10.00">+</text>
<text text-anchor="start" x="17" y="-458" font-family="Helvetica,sans-Serif" font-size="10.00">~TraceAccessor()</text>
<text text-anchor="start" x="4" y="-443" font-family="Helvetica,sans-Serif" font-size="10.00">+</text>
<text text-anchor="start" x="17" y="-443" font-family="Helvetica,sans-Serif" font-size="10.00">traceMng()</text>
<text text-anchor="start" x="4" y="-428" font-family="Helvetica,sans-Serif" font-size="10.00">+</text>
<text text-anchor="start" x="17" y="-428" font-family="Helvetica,sans-Serif" font-size="10.00">info()</text>
<text text-anchor="start" x="4" y="-413" font-family="Helvetica,sans-Serif" font-size="10.00">+</text>
<text text-anchor="start" x="17" y="-413" font-family="Helvetica,sans-Serif" font-size="10.00">pinfo()</text>
<text text-anchor="start" x="4" y="-398" font-family="Helvetica,sans-Serif" font-size="10.00">+</text>
<text text-anchor="start" x="17" y="-398" font-family="Helvetica,sans-Serif" font-size="10.00">info()</text>
<text text-anchor="start" x="4" y="-383" font-family="Helvetica,sans-Serif" font-size="10.00">+</text>
<text text-anchor="start" x="17" y="-383" font-family="Helvetica,sans-Serif" font-size="10.00">pinfo()</text>
<text text-anchor="start" x="4" y="-368" font-family="Helvetica,sans-Serif" font-size="10.00">+</text>
<text text-anchor="start" x="17" y="-368" font-family="Helvetica,sans-Serif" font-size="10.00">info()</text>
<text text-anchor="start" x="17" y="-353" font-family="Helvetica,sans-Serif" font-size="10.00">et 15 de plus...</text>
<text text-anchor="start" x="4" y="-338" font-family="Helvetica,sans-Serif" font-size="10.00">#</text>
<text text-anchor="start" x="17" y="-338" font-family="Helvetica,sans-Serif" font-size="10.00">_setLocalVerboseLevel()</text>
<text text-anchor="start" x="4" y="-323" font-family="Helvetica,sans-Serif" font-size="10.00">#</text>
<text text-anchor="start" x="17" y="-323" font-family="Helvetica,sans-Serif" font-size="10.00">_localVerboseLevel()</text>
<polygon fill="#666666" stroke="#666666" points="0,-543 0,-543 140,-543 140,-543 0,-543"/>
<polygon fill="#666666" stroke="#666666" points="0,-513 0,-513 15,-513 15,-513 0,-513"/>
<polygon fill="#666666" stroke="#666666" points="15,-513 15,-513 140,-513 140,-513 15,-513"/>
<polygon fill="none" stroke="#666666" points="0,-316 0,-560 140,-560 140,-316 0,-316"/>
</a>
</g>
</g>
<!-- Node3&#45;&gt;Node2 -->
<g id="edge2_Node000002_Node000003" class="edge">
<title>Node3&#45;&gt;Node2</title>
<g id="a_edge2_Node000002_Node000003"><a xlink:title=" ">
<path fill="none" stroke="#63b8ff" d="M111.18,-306.21C114,-297.24 116.78,-288.43 119.43,-280"/>
<polygon fill="none" stroke="#63b8ff" points="107.76,-305.41 108.1,-316 114.44,-307.51 107.76,-305.41"/>
</a>
</g>
</g>
<!-- Node4 -->
<g id="Node000004" class="node">
<title>Node4</title>
<g id="a_Node000004"><a xlink:href="../../da/d7e/classArcane_1_1IService.html" target="_top" xlink:title="Interface d&#39;un service.">
<polygon fill="white" stroke="transparent" points="266,-492.5 158,-492.5 158,-383.5 266,-383.5 266,-492.5"/>
<text text-anchor="start" x="172.5" y="-480" font-family="Helvetica,sans-Serif" font-size="10.00">Arcane::IService</text>
<text text-anchor="start" x="210" y="-465" font-family="Helvetica,sans-Serif" font-size="10.00"> </text>
<text text-anchor="start" x="162" y="-450" font-family="Helvetica,sans-Serif" font-size="10.00">+</text>
<text text-anchor="start" x="175" y="-450" font-family="Helvetica,sans-Serif" font-size="10.00">~IService()</text>
<text text-anchor="start" x="162" y="-435" font-family="Helvetica,sans-Serif" font-size="10.00">+</text>
<text text-anchor="start" x="175" y="-435" font-family="Helvetica,sans-Serif" font-size="10.00">serviceParent()</text>
<text text-anchor="start" x="162" y="-420" font-family="Helvetica,sans-Serif" font-size="10.00">+</text>
<text text-anchor="start" x="175" y="-420" font-family="Helvetica,sans-Serif" font-size="10.00">serviceInterface()</text>
<text text-anchor="start" x="162" y="-405" font-family="Helvetica,sans-Serif" font-size="10.00">+</text>
<text text-anchor="start" x="175" y="-405" font-family="Helvetica,sans-Serif" font-size="10.00">serviceInfo()</text>
<text text-anchor="start" x="162" y="-390" font-family="Helvetica,sans-Serif" font-size="10.00">#</text>
<text text-anchor="start" x="175" y="-390" font-family="Helvetica,sans-Serif" font-size="10.00">IService()</text>
<polygon fill="#666666" stroke="#666666" points="158,-475 158,-475 266,-475 266,-475 158,-475"/>
<polygon fill="#666666" stroke="#666666" points="158,-460 158,-460 266,-460 266,-460 158,-460"/>
<polygon fill="none" stroke="#666666" points="158,-383.5 158,-492.5 266,-492.5 266,-383.5 158,-383.5"/>
</a>
</g>
</g>
<!-- Node4&#45;&gt;Node2 -->
<g id="edge3_Node000002_Node000004" class="edge">
<title>Node4&#45;&gt;Node2</title>
<g id="a_edge3_Node000002_Node000004"><a xlink:title=" ">
<path fill="none" stroke="#63b8ff" d="M192.05,-373.63C182.88,-344.52 171.99,-309.94 162.63,-280.21"/>
<polygon fill="none" stroke="#63b8ff" points="188.74,-374.79 195.08,-383.27 195.42,-372.68 188.74,-374.79"/>
</a>
</g>
</g>
<!-- Node5 -->
<g id="Node000005" class="node">
<title>Node5</title>
<g id="a_Node000005"><a xlink:href="../../d2/d04/classArcane_1_1ISymbolizerService.html" target="_top" xlink:title="Interface d&#39;un service de récupération des symboles du code source.">
<polygon fill="white" stroke="transparent" points="367,-242.5 223,-242.5 223,-178.5 367,-178.5 367,-242.5"/>
<text text-anchor="start" x="228" y="-230.5" font-family="Helvetica,sans-Serif" font-size="10.00">Arcane::ISymbolizerService</text>
<text text-anchor="start" x="293" y="-215.5" font-family="Helvetica,sans-Serif" font-size="10.00"> </text>
<text text-anchor="start" x="230" y="-200.5" font-family="Helvetica,sans-Serif" font-size="10.00">+</text>
<text text-anchor="start" x="246" y="-200.5" font-family="Helvetica,sans-Serif" font-size="10.00">~ISymbolizerService()</text>
<text text-anchor="start" x="230" y="-185.5" font-family="Helvetica,sans-Serif" font-size="10.00">+</text>
<text text-anchor="start" x="246" y="-185.5" font-family="Helvetica,sans-Serif" font-size="10.00">stackTrace()</text>
<polygon fill="#666666" stroke="#666666" points="223,-225.5 223,-225.5 367,-225.5 367,-225.5 223,-225.5"/>
<polygon fill="#666666" stroke="#666666" points="223,-210.5 223,-210.5 367,-210.5 367,-210.5 223,-210.5"/>
<polygon fill="none" stroke="#666666" points="223,-178.5 223,-242.5 367,-242.5 367,-178.5 223,-178.5"/>
</a>
</g>
</g>
<!-- Node5&#45;&gt;Node1 -->
<g id="edge4_Node000001_Node000005" class="edge">
<title>Node5&#45;&gt;Node1</title>
<g id="a_edge4_Node000001_Node000005"><a xlink:title=" ">
<path fill="none" stroke="#63b8ff" d="M275.06,-169.1C265.44,-149.61 253.79,-126 243.53,-105.22"/>
<polygon fill="none" stroke="#63b8ff" points="272.04,-170.89 279.6,-178.31 278.32,-167.79 272.04,-170.89"/>
</a>
</g>
</g>
</g>
</svg>

<g id="navigator" transform="translate(0 0)" fill="#404254">
  <rect fill="#f2f5e9" fill-opacity="0.5" stroke="#606060" stroke-width=".5" x="0" y="0" width="60" height="60"/>
  <use id="zoomplus" xlink:href="#zoomPlus" x="17" y="9" onmousedown="handleZoom(evt,'in')"/>
  <use id="zoomminus" xlink:href="#zoomMin" x="42" y="9" onmousedown="handleZoom(evt,'out')"/>
  <use id="reset" xlink:href="#resetDef" x="30" y="36" onmousedown="handleReset()"/>
   <use id="arrowup" xlink:href="#arrowUp" x="0" y="0" onmousedown="handlePan(0,-1)"/>
  <use id="arrowright" xlink:href="#arrowRight" x="0" y="0" onmousedown="handlePan(1,0)"/>
  <use id="arrowdown" xlink:href="#arrowDown" x="0" y="0" onmousedown="handlePan(0,1)"/>
  <use id="arrowleft" xlink:href="#arrowLeft" x="0" y="0" onmousedown="handlePan(-1,0)"/>
</g>
<svg viewBox="0 0 15 15" width="100%" height="30px" preserveAspectRatio="xMaxYMin meet">
 <g id="arrow_out" transform="scale(0.3 0.3)">
  <a xlink:href="classArcane_1_1DbgHelpSymbolizerService__inherit__graph_org.svg" target="_base">
   <rect id="button" ry="5" rx="5" y="6" x="6" height="38" width="38"
        fill="#f2f5e9" fill-opacity="0.5" stroke="#606060" stroke-width="1.0"/>
   <path id="arrow"
     d="M 11.500037,31.436501 C 11.940474,20.09759 22.043105,11.32322 32.158766,21.979434 L 37.068811,17.246167 C 37.068811,17.246167 37.088388,32 37.088388,32 L 22.160133,31.978069 C 22.160133,31.978069 26.997745,27.140456 26.997745,27.140456 C 18.528582,18.264221 13.291696,25.230495 11.500037,31.436501 z"
     style="fill:#404040;"/>
  </a>
 </g>
</svg>

<style type='text/css'>
<![CDATA[
[data-mouse-over-selected='false'] { opacity: 0.7; }
[data-mouse-over-selected='true']  { opacity: 1.0; }
]]>
</style>
<script type="application/ecmascript"><![CDATA[
document.addEventListener('DOMContentLoaded', (event) => {
  highlightEdges();
  highlightAdjacentNodes();
});
]]></script>
</svg>
