<?xml version="1.0" encoding="UTF-8" standalone="no"?>
<!DOCTYPE svg PUBLIC "-//W3C//DTD SVG 1.1//EN"
 "http://www.w3.org/Graphics/SVG/1.1/DTD/svg11.dtd">
<!-- Generated by graphviz version 2.43.0 (0)
 -->
<!-- Title: Arcane::Accelerator::Cuda::ConcreteAllocator Pages: 1 -->
<svg width="550pt" height="276pt"
 viewBox="0.00 0.00 549.50 276.00" xmlns="http://www.w3.org/2000/svg" xmlns:xlink="http://www.w3.org/1999/xlink">
<g id="graph0" class="graph" transform="scale(1 1) rotate(0) translate(4 272)">
<title>Arcane::Accelerator::Cuda::ConcreteAllocator</title>
<!-- Node1 -->
<g id="Node000001" class="node">
<title>Node1</title>
<g id="a_Node000001"><a xlink:title=" ">
<polygon fill="#999999" stroke="transparent" points="326,-268 192,-268 192,-178 326,-178 326,-268"/>
<text text-anchor="start" x="197" y="-256" font-family="Helvetica,sans-Serif" font-size="10.00">Arcane::Accelerator</text>
<text text-anchor="start" x="197" y="-245" font-family="Helvetica,sans-Serif" font-size="10.00">::Cuda::ConcreteAllocator</text>
<text text-anchor="start" x="257" y="-230" font-family="Helvetica,sans-Serif" font-size="10.00"> </text>
<text text-anchor="start" x="198.5" y="-215" font-family="Helvetica,sans-Serif" font-size="10.00">+</text>
<text text-anchor="start" x="214" y="-215" font-family="Helvetica,sans-Serif" font-size="10.00">~ConcreteAllocator()</text>
<text text-anchor="start" x="198.5" y="-200" font-family="Helvetica,sans-Serif" font-size="10.00">+</text>
<text text-anchor="start" x="214" y="-200" font-family="Helvetica,sans-Serif" font-size="10.00">_allocate()</text>
<text text-anchor="start" x="198.5" y="-185" font-family="Helvetica,sans-Serif" font-size="10.00">+</text>
<text text-anchor="start" x="214" y="-185" font-family="Helvetica,sans-Serif" font-size="10.00">_deallocate()</text>
<polygon fill="#666666" stroke="#666666" points="192,-240 192,-240 326,-240 326,-240 192,-240"/>
<polygon fill="#666666" stroke="#666666" points="192,-225 192,-225 326,-225 326,-225 192,-225"/>
<polygon fill="none" stroke="#666666" points="192,-178 192,-268 326,-268 326,-178 192,-178"/>
</a>
</g>
</g>
<!-- Node2 -->
<g id="Node000002" class="node">
<title>Node2</title>
<g id="a_Node000002"><a xlink:href="../../dc/d11/classArcane_1_1Accelerator_1_1Cuda_1_1DeviceConcreteAllocator.html" target="_top" xlink:title=" ">
<polygon fill="white" stroke="transparent" points="168,-123.5 0,-123.5 0,-18.5 168,-18.5 168,-123.5"/>
<text text-anchor="start" x="5" y="-111" font-family="Helvetica,sans-Serif" font-size="10.00">Arcane::Accelerator</text>
<text text-anchor="start" x="5" y="-100" font-family="Helvetica,sans-Serif" font-size="10.00">::Cuda::DeviceConcreteAllocator</text>
<text text-anchor="start" x="11" y="-85" font-family="Helvetica,sans-Serif" font-size="10.00">&#45;</text>
<text text-anchor="start" x="26" y="-85" font-family="Helvetica,sans-Serif" font-size="10.00">m_use_ats</text>
<text text-anchor="start" x="8.5" y="-70" font-family="Helvetica,sans-Serif" font-size="10.00">+</text>
<text text-anchor="start" x="26" y="-70" font-family="Helvetica,sans-Serif" font-size="10.00">DeviceConcreteAllocator()</text>
<text text-anchor="start" x="8.5" y="-55" font-family="Helvetica,sans-Serif" font-size="10.00">+</text>
<text text-anchor="start" x="26" y="-55" font-family="Helvetica,sans-Serif" font-size="10.00">_allocate()</text>
<text text-anchor="start" x="8.5" y="-40" font-family="Helvetica,sans-Serif" font-size="10.00">+</text>
<text text-anchor="start" x="26" y="-40" font-family="Helvetica,sans-Serif" font-size="10.00">_deallocate()</text>
<text text-anchor="start" x="8.5" y="-25" font-family="Helvetica,sans-Serif" font-size="10.00">+</text>
<text text-anchor="start" x="26" y="-25" font-family="Helvetica,sans-Serif" font-size="10.00">memoryResource()</text>
<polygon fill="#bfbfbf" stroke="#bfbfbf" points="0,-95 0,-95 168,-95 168,-95 0,-95"/>
<polygon fill="#bfbfbf" stroke="#bfbfbf" points="0,-80 0,-80 24,-80 24,-80 0,-80"/>
<polygon fill="#bfbfbf" stroke="#bfbfbf" points="24,-80 24,-80 168,-80 168,-80 24,-80"/>
<polygon fill="none" stroke="#bfbfbf" points="0,-18.5 0,-123.5 168,-123.5 168,-18.5 0,-18.5"/>
</a>
</g>
</g>
<!-- Node1&#45;&gt;Node2 -->
<g id="edge1_Node000001_Node000002" class="edge">
<title>Node1&#45;&gt;Node2</title>
<g id="a_edge1_Node000001_Node000002"><a xlink:title=" ">
<path fill="none" stroke="#63b8ff" d="M199.38,-170.9C181.55,-155.61 161.99,-138.85 144.13,-123.54"/>
<polygon fill="none" stroke="#63b8ff" points="197.57,-173.96 207.44,-177.81 202.13,-168.64 197.57,-173.96"/>
</a>
</g>
</g>
<!-- Node3 -->
<g id="Node000003" class="node">
<title>Node3</title>
<g id="a_Node000003"><a xlink:href="../../d1/d5e/classArcane_1_1Accelerator_1_1Cuda_1_1HostPinnedConcreteAllocator.html" target="_top" xlink:title=" ">
<polygon fill="white" stroke="transparent" points="332,-121.5 186,-121.5 186,-20.5 332,-20.5 332,-121.5"/>
<text text-anchor="start" x="191" y="-109" font-family="Helvetica,sans-Serif" font-size="10.00">Arcane::Accelerator</text>
<text text-anchor="start" x="191" y="-98" font-family="Helvetica,sans-Serif" font-size="10.00">::Cuda::HostPinnedConcrete</text>
<text text-anchor="start" x="237" y="-87" font-family="Helvetica,sans-Serif" font-size="10.00">Allocator</text>
<text text-anchor="start" x="257" y="-72" font-family="Helvetica,sans-Serif" font-size="10.00"> </text>
<text text-anchor="start" x="197.5" y="-57" font-family="Helvetica,sans-Serif" font-size="10.00">+</text>
<text text-anchor="start" x="218" y="-57" font-family="Helvetica,sans-Serif" font-size="10.00">_allocate()</text>
<text text-anchor="start" x="197.5" y="-42" font-family="Helvetica,sans-Serif" font-size="10.00">+</text>
<text text-anchor="start" x="218" y="-42" font-family="Helvetica,sans-Serif" font-size="10.00">_deallocate()</text>
<text text-anchor="start" x="197.5" y="-27" font-family="Helvetica,sans-Serif" font-size="10.00">+</text>
<text text-anchor="start" x="218" y="-27" font-family="Helvetica,sans-Serif" font-size="10.00">memoryResource()</text>
<polygon fill="#bfbfbf" stroke="#bfbfbf" points="186,-82 186,-82 332,-82 332,-82 186,-82"/>
<polygon fill="#bfbfbf" stroke="#bfbfbf" points="186,-67 186,-67 332,-67 332,-67 186,-67"/>
<polygon fill="none" stroke="#bfbfbf" points="186,-20.5 186,-121.5 332,-121.5 332,-20.5 186,-20.5"/>
</a>
</g>
</g>
<!-- Node1&#45;&gt;Node3 -->
<g id="edge2_Node000001_Node000003" class="edge">
<title>Node1&#45;&gt;Node3</title>
<g id="a_edge2_Node000001_Node000003"><a xlink:title=" ">
<path fill="none" stroke="#63b8ff" d="M259,-167.63C259,-152.61 259,-136.4 259,-121.66"/>
<polygon fill="none" stroke="#63b8ff" points="255.5,-167.81 259,-177.81 262.5,-167.81 255.5,-167.81"/>
</a>
</g>
</g>
<!-- Node4 -->
<g id="Node000004" class="node">
<title>Node4</title>
<g id="a_Node000004"><a xlink:href="../../d0/d16/classArcane_1_1Accelerator_1_1Cuda_1_1UnifiedMemoryConcreteAllocator.html" target="_top" xlink:title=" ">
<polygon fill="white" stroke="transparent" points="541.5,-142 350.5,-142 350.5,0 541.5,0 541.5,-142"/>
<text text-anchor="start" x="368.5" y="-130" font-family="Helvetica,sans-Serif" font-size="10.00">Arcane::Accelerator</text>
<text text-anchor="start" x="368.5" y="-119" font-family="Helvetica,sans-Serif" font-size="10.00">::Cuda::UnifiedMemoryConcrete</text>
<text text-anchor="start" x="424.5" y="-108" font-family="Helvetica,sans-Serif" font-size="10.00">Allocator</text>
<text text-anchor="start" x="355" y="-93" font-family="Helvetica,sans-Serif" font-size="10.00">+</text>
<text text-anchor="start" x="368" y="-93" font-family="Helvetica,sans-Serif" font-size="10.00">m_use_ats</text>
<text text-anchor="start" x="355" y="-78" font-family="Helvetica,sans-Serif" font-size="10.00">+</text>
<text text-anchor="start" x="368" y="-78" font-family="Helvetica,sans-Serif" font-size="10.00">m_use_hint_as_mainly</text>
<text text-anchor="start" x="368" y="-67" font-family="Helvetica,sans-Serif" font-size="10.00">_device</text>
<text text-anchor="start" x="355" y="-52" font-family="Helvetica,sans-Serif" font-size="10.00">+</text>
<text text-anchor="start" x="368" y="-52" font-family="Helvetica,sans-Serif" font-size="10.00">UnifiedMemoryConcreteAllocator()</text>
<text text-anchor="start" x="355" y="-37" font-family="Helvetica,sans-Serif" font-size="10.00">+</text>
<text text-anchor="start" x="368" y="-37" font-family="Helvetica,sans-Serif" font-size="10.00">_deallocate()</text>
<text text-anchor="start" x="355" y="-22" font-family="Helvetica,sans-Serif" font-size="10.00">+</text>
<text text-anchor="start" x="368" y="-22" font-family="Helvetica,sans-Serif" font-size="10.00">_allocate()</text>
<text text-anchor="start" x="355" y="-7" font-family="Helvetica,sans-Serif" font-size="10.00">+</text>
<text text-anchor="start" x="368" y="-7" font-family="Helvetica,sans-Serif" font-size="10.00">memoryResource()</text>
<polygon fill="#bfbfbf" stroke="#bfbfbf" points="351,-103 351,-103 542,-103 542,-103 351,-103"/>
<polygon fill="#bfbfbf" stroke="#bfbfbf" points="351,-62 351,-62 366,-62 366,-62 351,-62"/>
<polygon fill="#bfbfbf" stroke="#bfbfbf" points="366,-62 366,-62 542,-62 542,-62 366,-62"/>
<polygon fill="none" stroke="#bfbfbf" points="350.5,0 350.5,-142 541.5,-142 541.5,0 350.5,0"/>
</a>
</g>
</g>
<!-- Node1&#45;&gt;Node4 -->
<g id="edge3_Node000001_Node000004" class="edge">
<title>Node1&#45;&gt;Node4</title>
<g id="a_edge3_Node000001_Node000004"><a xlink:title=" ">
<path fill="none" stroke="#63b8ff" d="M322.11,-171.38C333.87,-161.95 346.34,-151.94 358.68,-142.05"/>
<polygon fill="none" stroke="#63b8ff" points="319.71,-168.82 314.09,-177.81 324.09,-174.28 319.71,-168.82"/>
</a>
</g>
</g>
</g>
</svg>
