<?xml version="1.0" encoding="UTF-8" standalone="no"?>
<!DOCTYPE svg PUBLIC "-//W3C//DTD SVG 1.1//EN"
 "http://www.w3.org/Graphics/SVG/1.1/DTD/svg11.dtd">
<!-- Generated by graphviz version 14.1.2 (0)
 -->
<!-- Title: Arcane::ServiceLoader::loadSubDomainServices Pages: 1 -->
<!--zoomable 358 -->

<svg id="main" version="1.1" xmlns="http://www.w3.org/2000/svg" xmlns:xlink="http://www.w3.org/1999/xlink" xml:space="preserve" onload="init(evt)">

<style type="text/css"><![CDATA[
.node, .edge {opacity: 0.7;}
.node.selected, .edge.selected {opacity: 1;}
.edge:hover path { stroke: red; }
.edge:hover polygon { stroke: red; fill: red; }
]]></style>

<defs>
  <circle id="rim" cx="0" cy="0" r="7"/>
  <circle id="rim2" cx="0" cy="0" r="3.5"/>
  <g id="zoomPlus">
    <use xlink:href="#rim" fill="#404040"><set attributeName="fill" to="#808080" begin="zoomplus.mouseover" end="zoomplus.mouseout"/></use>
    <path d="M-4,0h8M0,-4v8" fill="none" stroke="white" stroke-width="1.5" pointer-events="none"/>
  </g>
  <g id="zoomMin">
    <use xlink:href="#rim" fill="#404040"><set attributeName="fill" to="#808080" begin="zoomminus.mouseover" end="zoomminus.mouseout"/></use>
    <path d="M-4,0h8" fill="none" stroke="white" stroke-width="1.5" pointer-events="none"/>
  </g>
  <g id="arrowUp" transform="translate(30 24)">
    <use xlink:href="#rim"/>
    <path pointer-events="none" fill="none" stroke="white" stroke-width="1.5" d="M0,-3.0v7 M-2.5,-0.5L0,-3.0L2.5,-0.5"/>
  </g>
  <g id="arrowRight" transform="rotate(90) translate(36 -43)">
    <use xlink:href="#rim"/>
    <path pointer-events="none" fill="none" stroke="white" stroke-width="1.5" d="M0,-3.0v7 M-2.5,-0.5L0,-3.0L2.5,-0.5"/>
  </g>
  <g id="arrowDown" transform="rotate(180) translate(-30 -48)">
    <use xlink:href="#rim"/>
    <path pointer-events="none" fill="none" stroke="white" stroke-width="1.5" d="M0,-3.0v7 M-2.5,-0.5L0,-3.0L2.5,-0.5"/>
  </g>
  <g id="arrowLeft" transform="rotate(270) translate(-36 17)">
    <use xlink:href="#rim"/>
    <path pointer-events="none" fill="none" stroke="white" stroke-width="1.5" d="M0,-3.0v7 M-2.5,-0.5L0,-3.0L2.5,-0.5"/>
  </g>
  <g id="resetDef">
    <use xlink:href="#rim2" fill="#404040"><set attributeName="fill" to="#808080" begin="reset.mouseover" end="reset.mouseout"/></use>
  </g>
</defs>
<script type="application/ecmascript">
var viewWidth = 504;
var viewHeight = 358;
var sectionId = 'dynsection-9';
</script>
<script type="application/ecmascript" xlink:href="../../svg.min.js"/>
<svg id="graph" class="graph">
<g id="viewport">
<title>Arcane::ServiceLoader::loadSubDomainServices</title>
<!-- Node1 -->
<g id="Node000001" class="node">
<title>Node1</title>
<g id="a_Node000001"><a xlink:title="Loads available subdomain services in the subdomain sd.">
<polygon fill="#999999" stroke="#666666" points="140.5,-100.5 0,-100.5 0,-67 140.5,-67 140.5,-100.5"/>
<text xml:space="preserve" text-anchor="start" x="8" y="-87" font-family="Helvetica,sans-Serif" font-size="10.00">Arcane::ServiceLoader</text>
<text xml:space="preserve" text-anchor="middle" x="70.25" y="-74.25" font-family="Helvetica,sans-Serif" font-size="10.00">::loadSubDomainServices</text>
</a>
</g>
</g>
<!-- Node2 -->
<g id="Node000002" class="node">
<title>Node2</title>
<g id="a_Node000002"><a xlink:href="../../d7/d59/classArcane_1_1ServiceLoader.html#a53b2c35102aa98377ab1bc5ad5f9c616" target="_top" xlink:title="Loads services in the base manager.">
<polygon fill="white" stroke="#666666" points="306.12,-175.5 181.38,-175.5 181.38,-142 306.12,-142 306.12,-175.5"/>
<text xml:space="preserve" text-anchor="start" x="189.38" y="-162" font-family="Helvetica,sans-Serif" font-size="10.00">Arcane::ServiceLoader</text>
<text xml:space="preserve" text-anchor="middle" x="243.75" y="-149.25" font-family="Helvetica,sans-Serif" font-size="10.00">::_loadServices</text>
</a>
</g>
</g>
<!-- Node1&#45;&gt;Node2 -->
<g id="edge1_Node000001_Node000002" class="edge">
<title>Node1&#45;&gt;Node2</title>
<g id="a_edge1_Node000001_Node000002"><a xlink:title=" ">
<path fill="none" stroke="#63b8ff" d="M106.57,-100.86C126.88,-110.53 152.97,-122.67 176.5,-132.75 180.01,-134.26 183.65,-135.78 187.32,-137.29"/>
<polygon fill="#63b8ff" stroke="#63b8ff" points="185.71,-140.41 196.29,-140.93 188.34,-133.93 185.71,-140.41"/>
</a>
</g>
</g>
<!-- Node10 -->
<g id="Node000010" class="node">
<title>Node10</title>
<g id="a_Node000010"><a xlink:href="../../d9/d1e/classArcane_1_1ISubDomain.html#a54fa3d4d8d6dd35468ee9d161ae6f30a" target="_top" xlink:title="Application.">
<polygon fill="white" stroke="#666666" points="301.25,-123.5 186.25,-123.5 186.25,-90 301.25,-90 301.25,-123.5"/>
<text xml:space="preserve" text-anchor="start" x="194.25" y="-110" font-family="Helvetica,sans-Serif" font-size="10.00">Arcane::ISubDomain</text>
<text xml:space="preserve" text-anchor="middle" x="243.75" y="-97.25" font-family="Helvetica,sans-Serif" font-size="10.00">::application</text>
</a>
</g>
</g>
<!-- Node1&#45;&gt;Node10 -->
<g id="edge10_Node000001_Node000010" class="edge">
<title>Node1&#45;&gt;Node10</title>
<g id="a_edge10_Node000001_Node000010"><a xlink:title=" ">
<path fill="none" stroke="#63b8ff" d="M140.51,-93.04C151.81,-94.55 163.5,-96.12 174.76,-97.63"/>
<polygon fill="#63b8ff" stroke="#63b8ff" points="173.98,-101.06 184.35,-98.92 174.91,-94.12 173.98,-101.06"/>
</a>
</g>
</g>
<!-- Node11 -->
<g id="Node000011" class="node">
<title>Node11</title>
<g id="a_Node000011"><a xlink:href="../../d3/d00/classArcane_1_1ITraceMng.html#a0e8ed1d7f73945634e65ee02e4f768fb" target="_top" xlink:title="Stream for a log message.">
<polygon fill="white" stroke="#666666" points="306.88,-72.12 180.62,-72.12 180.62,-51.38 306.88,-51.38 306.88,-72.12"/>
<text xml:space="preserve" text-anchor="middle" x="243.75" y="-58.62" font-family="Helvetica,sans-Serif" font-size="10.00">Arcane::ITraceMng::log</text>
</a>
</g>
</g>
<!-- Node1&#45;&gt;Node11 -->
<g id="edge11_Node000001_Node000011" class="edge">
<title>Node1&#45;&gt;Node11</title>
<g id="a_edge11_Node000001_Node000011"><a xlink:title=" ">
<path fill="none" stroke="#63b8ff" d="M140.51,-74.87C149.83,-73.67 159.42,-72.44 168.82,-71.23"/>
<polygon fill="#63b8ff" stroke="#63b8ff" points="169.17,-74.72 178.65,-69.97 168.28,-67.77 169.17,-74.72"/>
</a>
</g>
</g>
<!-- Node12 -->
<g id="Node000012" class="node">
<title>Node12</title>
<g id="a_Node000012"><a xlink:href="../../d3/d96/classArcane_1_1IBase.html#a50a4ac148fac4dd1e3f05ed9178e1e70" target="_top" xlink:title="Trace manager.">
<polygon fill="white" stroke="#666666" points="311,-33.12 176.5,-33.12 176.5,-12.38 311,-12.38 311,-33.12"/>
<text xml:space="preserve" text-anchor="middle" x="243.75" y="-19.62" font-family="Helvetica,sans-Serif" font-size="10.00">Arcane::IBase::traceMng</text>
</a>
</g>
</g>
<!-- Node1&#45;&gt;Node12 -->
<g id="edge12_Node000001_Node000012" class="edge">
<title>Node1&#45;&gt;Node12</title>
<g id="a_edge12_Node000001_Node000012"><a xlink:title=" ">
<path fill="none" stroke="#63b8ff" d="M113.22,-66.53C132.39,-58.89 155.46,-50.01 176.5,-42.75 182.25,-40.77 188.32,-38.78 194.35,-36.88"/>
<polygon fill="#63b8ff" stroke="#63b8ff" points="195.13,-40.3 203.65,-34.01 193.06,-33.62 195.13,-40.3"/>
</a>
</g>
</g>
<!-- Node3 -->
<g id="Node000003" class="node">
<title>Node3</title>
<g id="a_Node000003"><a xlink:href="../../de/df8/classArcane_1_1IServiceInfo.html#a36b987d8feac670332c0a6c989576730" target="_top" xlink:title="Information on factories available for this service.">
<polygon fill="white" stroke="#666666" points="478.12,-349.5 364.62,-349.5 364.62,-316 478.12,-316 478.12,-349.5"/>
<text xml:space="preserve" text-anchor="start" x="372.62" y="-336" font-family="Helvetica,sans-Serif" font-size="10.00">Arcane::IServiceInfo</text>
<text xml:space="preserve" text-anchor="middle" x="421.38" y="-323.25" font-family="Helvetica,sans-Serif" font-size="10.00">::factoryInfo</text>
</a>
</g>
</g>
<!-- Node2&#45;&gt;Node3 -->
<g id="edge2_Node000002_Node000003" class="edge">
<title>Node2&#45;&gt;Node3</title>
<g id="a_edge2_Node000002_Node000003"><a xlink:title=" ">
<path fill="none" stroke="#63b8ff" d="M252.24,-176C266.38,-206.63 299.88,-270.68 347,-306.75 349.3,-308.51 351.73,-310.16 354.25,-311.7"/>
<polygon fill="#63b8ff" stroke="#63b8ff" points="352.55,-314.76 363.02,-316.42 355.87,-308.6 352.55,-314.76"/>
</a>
</g>
</g>
<!-- Node4 -->
<g id="Node000004" class="node">
<title>Node4</title>
<g id="a_Node000004"><a xlink:href="../../d3/dd4/classArcane_1_1IServiceFactoryInfo.html#a8d9e6e38eb78f8864ce9f44b588d3095" target="_top" xlink:title="true if the service is a module and must be loaded automatically">
<polygon fill="white" stroke="#666666" points="495.75,-297.5 347,-297.5 347,-264 495.75,-264 495.75,-297.5"/>
<text xml:space="preserve" text-anchor="start" x="355" y="-284" font-family="Helvetica,sans-Serif" font-size="10.00">Arcane::IServiceFactoryInfo</text>
<text xml:space="preserve" text-anchor="middle" x="421.38" y="-271.25" font-family="Helvetica,sans-Serif" font-size="10.00">::isAutoload</text>
</a>
</g>
</g>
<!-- Node2&#45;&gt;Node4 -->
<g id="edge3_Node000002_Node000004" class="edge">
<title>Node2&#45;&gt;Node4</title>
<g id="a_edge3_Node000002_Node000004"><a xlink:title=" ">
<path fill="none" stroke="#63b8ff" d="M259,-175.94C277.37,-197.11 311.23,-232.96 347,-254.75 349.29,-256.14 351.66,-257.48 354.1,-258.75"/>
<polygon fill="#63b8ff" stroke="#63b8ff" points="352.46,-261.85 362.99,-263.01 355.48,-255.54 352.46,-261.85"/>
</a>
</g>
</g>
<!-- Node5 -->
<g id="Node000005" class="node">
<title>Node5</title>
<g id="a_Node000005"><a xlink:href="../../d3/dd4/classArcane_1_1IServiceFactoryInfo.html#acf8badedb966b07d691ff7553e4f3eb0" target="_top" xlink:title="true if the service is a singleton service (a single instance)">
<polygon fill="white" stroke="#666666" points="495.75,-245.5 347,-245.5 347,-212 495.75,-212 495.75,-245.5"/>
<text xml:space="preserve" text-anchor="start" x="355" y="-232" font-family="Helvetica,sans-Serif" font-size="10.00">Arcane::IServiceFactoryInfo</text>
<text xml:space="preserve" text-anchor="middle" x="421.38" y="-219.25" font-family="Helvetica,sans-Serif" font-size="10.00">::isSingleton</text>
</a>
</g>
</g>
<!-- Node2&#45;&gt;Node5 -->
<g id="edge4_Node000002_Node000005" class="edge">
<title>Node2&#45;&gt;Node5</title>
<g id="a_edge4_Node000002_Node000005"><a xlink:title=" ">
<path fill="none" stroke="#63b8ff" d="M282.86,-175.86C301.99,-184.26 325.59,-194.36 347,-202.75 351.13,-204.37 355.4,-206 359.72,-207.61"/>
<polygon fill="#63b8ff" stroke="#63b8ff" points="358.47,-210.88 369.06,-211.05 360.88,-204.31 358.47,-210.88"/>
</a>
</g>
</g>
<!-- Node6 -->
<g id="Node000006" class="node">
<title>Node6</title>
<g id="a_Node000006"><a xlink:href="../../d9/d7f/classArcane_1_1IApplication.html#aa2c9710ff39844d7d4889a15b57d94c0" target="_top" xlink:title="List of service factories.">
<polygon fill="white" stroke="#666666" points="478.12,-175.5 364.62,-175.5 364.62,-142 478.12,-142 478.12,-175.5"/>
<text xml:space="preserve" text-anchor="start" x="372.62" y="-162" font-family="Helvetica,sans-Serif" font-size="10.00">Arcane::IApplication</text>
<text xml:space="preserve" text-anchor="middle" x="421.38" y="-149.25" font-family="Helvetica,sans-Serif" font-size="10.00">::serviceFactories2</text>
</a>
</g>
</g>
<!-- Node2&#45;&gt;Node6 -->
<g id="edge5_Node000002_Node000006" class="edge">
<title>Node2&#45;&gt;Node6</title>
<g id="a_edge5_Node000002_Node000006"><a xlink:title=" ">
<path fill="none" stroke="#63b8ff" d="M306.18,-158.75C321.38,-158.75 337.74,-158.75 353.21,-158.75"/>
<polygon fill="#63b8ff" stroke="#63b8ff" points="352.76,-162.25 362.76,-158.75 352.76,-155.25 352.76,-162.25"/>
</a>
</g>
</g>
<!-- Node7 -->
<g id="Node000007" class="node">
<title>Node7</title>
<g id="a_Node000007"><a xlink:href="../../d1/dea/classArcane_1_1Internal_1_1IServiceFactory2.html#abd3818c9c2da732367c183618b5b8aae" target="_top" xlink:title="Returns the IServiceInfo associated with this factory.">
<polygon fill="white" stroke="#666666" points="490.5,-123.5 352.25,-123.5 352.25,-90 490.5,-90 490.5,-123.5"/>
<text xml:space="preserve" text-anchor="start" x="360.25" y="-110" font-family="Helvetica,sans-Serif" font-size="10.00">Arcane::Internal::IService</text>
<text xml:space="preserve" text-anchor="middle" x="421.38" y="-97.25" font-family="Helvetica,sans-Serif" font-size="10.00">Factory2::serviceInfo</text>
</a>
</g>
</g>
<!-- Node2&#45;&gt;Node7 -->
<g id="edge7_Node000002_Node000007" class="edge">
<title>Node2&#45;&gt;Node7</title>
<g id="a_edge7_Node000002_Node000007"><a xlink:title=" ">
<path fill="none" stroke="#63b8ff" d="M302.74,-141.58C318.25,-136.99 335.16,-131.98 351.2,-127.23"/>
<polygon fill="#63b8ff" stroke="#63b8ff" points="352.1,-130.62 360.69,-124.42 350.11,-123.9 352.1,-130.62"/>
</a>
</g>
</g>
<!-- Node8 -->
<g id="Node000008" class="node">
<title>Node8</title>
<g id="a_Node000008"><a xlink:href="../../d3/d96/classArcane_1_1IBase.html#ae1ab9bbfe619ce68e28114bc698e1b35" target="_top" xlink:title="Service manager.">
<polygon fill="white" stroke="#666666" points="493.88,-72.12 348.88,-72.12 348.88,-51.38 493.88,-51.38 493.88,-72.12"/>
<text xml:space="preserve" text-anchor="middle" x="421.38" y="-58.62" font-family="Helvetica,sans-Serif" font-size="10.00">Arcane::IBase::serviceMng</text>
</a>
</g>
</g>
<!-- Node2&#45;&gt;Node8 -->
<g id="edge8_Node000002_Node000008" class="edge">
<title>Node2&#45;&gt;Node8</title>
<g id="a_edge8_Node000002_Node000008"><a xlink:title=" ">
<path fill="none" stroke="#63b8ff" d="M297.37,-141.55C302.2,-138.97 306.83,-136.05 311,-132.75 333.04,-115.3 323.95,-96.84 347,-80.75 348.6,-79.64 350.25,-78.59 351.95,-77.6"/>
<polygon fill="#63b8ff" stroke="#63b8ff" points="353.36,-80.81 360.79,-73.26 350.27,-74.53 353.36,-80.81"/>
</a>
</g>
</g>
<!-- Node9 -->
<g id="Node000009" class="node">
<title>Node9</title>
<g id="a_Node000009"><a xlink:href="../../d1/dd8/classArcane_1_1ServiceBuildInfoBase.html#a25b5702fbab32fe821fd4e31756be5c0" target="_top" xlink:title="Access to the parent instance that created this instance.">
<polygon fill="white" stroke="#666666" points="489,-33.5 353.75,-33.5 353.75,0 489,0 489,-33.5"/>
<text xml:space="preserve" text-anchor="start" x="361.75" y="-20" font-family="Helvetica,sans-Serif" font-size="10.00">Arcane::ServiceBuildInfo</text>
<text xml:space="preserve" text-anchor="middle" x="421.38" y="-7.25" font-family="Helvetica,sans-Serif" font-size="10.00">Base::serviceParent</text>
</a>
</g>
</g>
<!-- Node2&#45;&gt;Node9 -->
<g id="edge9_Node000002_Node000009" class="edge">
<title>Node2&#45;&gt;Node9</title>
<g id="a_edge9_Node000002_Node000009"><a xlink:title=" ">
<path fill="none" stroke="#63b8ff" d="M299.49,-141.7C303.67,-139.11 307.58,-136.15 311,-132.75 341.56,-102.39 315.93,-72.6 347,-42.75 347.77,-42.01 348.56,-41.3 349.37,-40.6"/>
<polygon fill="#63b8ff" stroke="#63b8ff" points="351.41,-43.44 357.49,-34.77 347.32,-37.76 351.41,-43.44"/>
</a>
</g>
</g>
<!-- Node6&#45;&gt;Node6 -->
<g id="edge6_Node000006_Node000006" class="edge">
<title>Node6&#45;&gt;Node6</title>
<g id="a_edge6_Node000006_Node000006"><a xlink:title=" ">
<path fill="none" stroke="#63b8ff" d="M389.44,-175.91C384.02,-185.12 394.66,-193.5 421.38,-193.5 436.4,-193.5 446.34,-190.85 451.2,-186.89"/>
<polygon fill="#63b8ff" stroke="#63b8ff" points="454.57,-187.88 453.02,-177.4 447.7,-186.56 454.57,-187.88"/>
</a>
</g>
</g>
</g>
</svg>

<g id="navigator" transform="translate(0 0)" fill="#404254">
  <rect fill="#f2f5e9" fill-opacity="0.5" stroke="#606060" stroke-width=".5" x="0" y="0" width="60" height="60"/>
  <use id="zoomplus" xlink:href="#zoomPlus" x="17" y="9" onmousedown="handleZoom(evt,'in')"/>
  <use id="zoomminus" xlink:href="#zoomMin" x="42" y="9" onmousedown="handleZoom(evt,'out')"/>
  <use id="reset" xlink:href="#resetDef" x="30" y="36" onmousedown="handleReset()"/>
   <use id="arrowup" xlink:href="#arrowUp" x="0" y="0" onmousedown="handlePan(0,-1)"/>
  <use id="arrowright" xlink:href="#arrowRight" x="0" y="0" onmousedown="handlePan(1,0)"/>
  <use id="arrowdown" xlink:href="#arrowDown" x="0" y="0" onmousedown="handlePan(0,1)"/>
  <use id="arrowleft" xlink:href="#arrowLeft" x="0" y="0" onmousedown="handlePan(-1,0)"/>
</g>
<svg viewBox="0 0 15 15" width="100%" height="30px" preserveAspectRatio="xMaxYMin meet">
 <g id="arrow_out" transform="scale(0.3 0.3)">
  <a xlink:href="classArcane_1_1ServiceLoader_a578fc12fc942b04841ffcdc54e1d228b_cgraph_org.svg" target="_base">
   <rect id="button" ry="5" rx="5" y="6" x="6" height="38" width="38"
        fill="#f2f5e9" fill-opacity="0.5" stroke="#606060" stroke-width="1.0"/>
   <path id="arrow"
     d="M 11.500037,31.436501 C 11.940474,20.09759 22.043105,11.32322 32.158766,21.979434 L 37.068811,17.246167 C 37.068811,17.246167 37.088388,32 37.088388,32 L 22.160133,31.978069 C 22.160133,31.978069 26.997745,27.140456 26.997745,27.140456 C 18.528582,18.264221 13.291696,25.230495 11.500037,31.436501 z"
     style="fill:#404040;"/>
  </a>
 </g>
</svg>

<style type='text/css'>
<![CDATA[
[data-mouse-over-selected='false'] { opacity: 0.7; }
[data-mouse-over-selected='true']  { opacity: 1.0; }
]]>
</style>
<script type="application/ecmascript"><![CDATA[
document.addEventListener('DOMContentLoaded', (event) => {
  highlightEdges();
  highlightAdjacentNodes();
});
]]></script>
</svg>
