<?xml version="1.0" encoding="UTF-8" standalone="no"?>
<!DOCTYPE svg PUBLIC "-//W3C//DTD SVG 1.1//EN"
 "http://www.w3.org/Graphics/SVG/1.1/DTD/svg11.dtd">
<!-- Generated by graphviz version 2.43.0 (0)
 -->
<!-- Title: Arcane::VariableSynchronizer::compute Pages: 1 -->
<!--zoomable 1160 -->

<svg id="main" version="1.1" xmlns="http://www.w3.org/2000/svg" xmlns:xlink="http://www.w3.org/1999/xlink" xml:space="preserve" onload="init(evt)">

<style type="text/css"><![CDATA[
.node, .edge {opacity: 0.7;}
.node.selected, .edge.selected {opacity: 1;}
.edge:hover path { stroke: red; }
.edge:hover polygon { stroke: red; fill: red; }
]]></style>

<defs>
  <circle id="rim" cx="0" cy="0" r="7"/>
  <circle id="rim2" cx="0" cy="0" r="3.5"/>
  <g id="zoomPlus">
    <use xlink:href="#rim" fill="#404040"><set attributeName="fill" to="#808080" begin="zoomplus.mouseover" end="zoomplus.mouseout"/></use>
    <path d="M-4,0h8M0,-4v8" fill="none" stroke="white" stroke-width="1.5" pointer-events="none"/>
  </g>
  <g id="zoomMin">
    <use xlink:href="#rim" fill="#404040"><set attributeName="fill" to="#808080" begin="zoomminus.mouseover" end="zoomminus.mouseout"/></use>
    <path d="M-4,0h8" fill="none" stroke="white" stroke-width="1.5" pointer-events="none"/>
  </g>
  <g id="arrowUp" transform="translate(30 24)">
    <use xlink:href="#rim"/>
    <path pointer-events="none" fill="none" stroke="white" stroke-width="1.5" d="M0,-3.0v7 M-2.5,-0.5L0,-3.0L2.5,-0.5"/>
  </g>
  <g id="arrowRight" transform="rotate(90) translate(36 -43)">
    <use xlink:href="#rim"/>
    <path pointer-events="none" fill="none" stroke="white" stroke-width="1.5" d="M0,-3.0v7 M-2.5,-0.5L0,-3.0L2.5,-0.5"/>
  </g>
  <g id="arrowDown" transform="rotate(180) translate(-30 -48)">
    <use xlink:href="#rim"/>
    <path pointer-events="none" fill="none" stroke="white" stroke-width="1.5" d="M0,-3.0v7 M-2.5,-0.5L0,-3.0L2.5,-0.5"/>
  </g>
  <g id="arrowLeft" transform="rotate(270) translate(-36 17)">
    <use xlink:href="#rim"/>
    <path pointer-events="none" fill="none" stroke="white" stroke-width="1.5" d="M0,-3.0v7 M-2.5,-0.5L0,-3.0L2.5,-0.5"/>
  </g>
  <g id="resetDef">
    <use xlink:href="#rim2" fill="#404040"><set attributeName="fill" to="#808080" begin="reset.mouseover" end="reset.mouseout"/></use>
  </g>
</defs>
<script type="application/ecmascript">
var viewWidth = 935;
var viewHeight = 1160;
var sectionId = 'dynsection-7';
</script>
<script type="application/ecmascript" xlink:href="../../svg.min.js"/>
<svg id="graph" class="graph">
<g id="viewport">
<title>Arcane::VariableSynchronizer::compute</title>
<!-- Node1 -->
<g id="Node000001" class="node">
<title>Node1</title>
<g id="a_Node000001"><a xlink:title="Création de la liste des éléments de synchronisation.">
<polygon fill="#999999" stroke="#666666" points="159,-607 0,-607 0,-577 159,-577 159,-607"/>
<text text-anchor="start" x="8" y="-595" font-family="Helvetica,sans-Serif" font-size="10.00">Arcane::VariableSynchronizer</text>
<text text-anchor="middle" x="79.5" y="-584" font-family="Helvetica,sans-Serif" font-size="10.00">::compute</text>
</a>
</g>
</g>
<!-- Node2 -->
<g id="Node000002" class="node">
<title>Node2</title>
<g id="a_Node000002"><a xlink:href="../../dd/d33/classArcane_1_1VariableSynchronizer.html#a6c47217091234a0d1916fc940b92568d" target="_top" xlink:title="Positionne le device associé à notre RunQueue comme le device courant.">
<polygon fill="white" stroke="#666666" points="354,-753 195,-753 195,-723 354,-723 354,-753"/>
<text text-anchor="start" x="203" y="-741" font-family="Helvetica,sans-Serif" font-size="10.00">Arcane::VariableSynchronizer</text>
<text text-anchor="middle" x="274.5" y="-730" font-family="Helvetica,sans-Serif" font-size="10.00">::_setCurrentDevice</text>
</a>
</g>
</g>
<!-- Node1&#45;&gt;Node2 -->
<g id="edge1_Node000001_Node000002" class="edge">
<title>Node1&#45;&gt;Node2</title>
<g id="a_edge1_Node000001_Node000002"><a xlink:title=" ">
<path fill="none" stroke="#63b8ff" d="M91.55,-607.01C110.3,-631.51 150.64,-680.25 195,-709 200.65,-712.66 206.83,-715.95 213.16,-718.88"/>
<polygon fill="#63b8ff" stroke="#63b8ff" points="211.93,-722.16 222.5,-722.91 214.71,-715.73 211.93,-722.16"/>
</a>
</g>
</g>
<!-- Node3 -->
<g id="Node000003" class="node">
<title>Node3</title>
<g id="a_Node000003"><a xlink:href="../../d6/d0c/classArcane_1_1VariableSynchronizerComputeList.html#afc203e492cf27d4705d883bfccc061fa" target="_top" xlink:title="Création de la liste des éléments de synchronisation.">
<polygon fill="white" stroke="#666666" points="354,-505 195,-505 195,-475 354,-475 354,-505"/>
<text text-anchor="start" x="203" y="-493" font-family="Helvetica,sans-Serif" font-size="10.00">Arcane::VariableSynchronizer</text>
<text text-anchor="middle" x="274.5" y="-482" font-family="Helvetica,sans-Serif" font-size="10.00">ComputeList::compute</text>
</a>
</g>
</g>
<!-- Node1&#45;&gt;Node3 -->
<g id="edge2_Node000001_Node000003" class="edge">
<title>Node1&#45;&gt;Node3</title>
<g id="a_edge2_Node000001_Node000003"><a xlink:title=" ">
<path fill="none" stroke="#63b8ff" d="M108.98,-576.95C142.62,-559.17 198.69,-529.53 235.88,-509.88"/>
<polygon fill="#63b8ff" stroke="#63b8ff" points="237.7,-512.88 244.91,-505.11 234.43,-506.69 237.7,-512.88"/>
</a>
</g>
</g>
<!-- Node12 -->
<g id="Node000012" class="node">
<title>Node12</title>
<g id="a_Node000012"><a xlink:href="../../dd/d27/namespaceArcane_1_1platform.html#a4c95b5c6deaf1fc2d7964ddb6ca34e60" target="_top" xlink:title="Date et l&#39;heure courante sous la forme ISO 8601.">
<polygon fill="white" stroke="#666666" points="747,-1152 591,-1152 591,-1122 747,-1122 747,-1152"/>
<text text-anchor="start" x="599" y="-1140" font-family="Helvetica,sans-Serif" font-size="10.00">Arcane::platform::getCurrent</text>
<text text-anchor="middle" x="669" y="-1129" font-family="Helvetica,sans-Serif" font-size="10.00">DateTime</text>
</a>
</g>
</g>
<!-- Node1&#45;&gt;Node12 -->
<g id="edge45_Node000001_Node000012" class="edge">
<title>Node1&#45;&gt;Node12</title>
<g id="a_edge45_Node000001_Node000012"><a xlink:title=" ">
<path fill="none" stroke="#63b8ff" d="M140.67,-607.04C200.5,-624.5 292.07,-658.26 354,-714 506.31,-851.07 423.59,-986.76 585,-1113 586.78,-1114.39 588.63,-1115.7 590.55,-1116.93"/>
<polygon fill="#63b8ff" stroke="#63b8ff" points="588.87,-1120 599.3,-1121.87 592.31,-1113.91 588.87,-1120"/>
</a>
</g>
</g>
<!-- Node14 -->
<g id="Node000014" class="node">
<title>Node14</title>
<g id="a_Node000014"><a xlink:href="../../d1/d17/classArcane_1_1TraceAccessor.html#a7f15f017b10b72c85bba3fce76314619" target="_top" xlink:title="Flot pour un message d&#39;information.">
<polygon fill="white" stroke="#666666" points="731.5,-30 606.5,-30 606.5,0 731.5,0 731.5,-30"/>
<text text-anchor="start" x="614.5" y="-18" font-family="Helvetica,sans-Serif" font-size="10.00">Arcane::TraceAccessor</text>
<text text-anchor="middle" x="669" y="-7" font-family="Helvetica,sans-Serif" font-size="10.00">::info</text>
</a>
</g>
</g>
<!-- Node1&#45;&gt;Node14 -->
<g id="edge46_Node000001_Node000014" class="edge">
<title>Node1&#45;&gt;Node14</title>
<g id="a_edge46_Node000001_Node000014"><a xlink:title=" ">
<path fill="none" stroke="#63b8ff" d="M94.24,-576.86C115.71,-553.19 158.57,-505.99 195,-466 368.09,-276 366.7,-174.67 585,-39 588.65,-36.73 592.53,-34.66 596.54,-32.79"/>
<polygon fill="#63b8ff" stroke="#63b8ff" points="598.23,-35.88 606.07,-28.75 595.5,-29.43 598.23,-35.88"/>
</a>
</g>
</g>
<!-- Node4 -->
<g id="Node000004" class="node">
<title>Node4</title>
<g id="a_Node000004"><a xlink:href="../../d6/d0c/classArcane_1_1VariableSynchronizerComputeList.html#aef306ec3bf5dac80ec23a9c1a21f5338" target="_top" xlink:title=" ">
<polygon fill="white" stroke="#666666" points="549,-553 390,-553 390,-523 549,-523 549,-553"/>
<text text-anchor="start" x="398" y="-541" font-family="Helvetica,sans-Serif" font-size="10.00">Arcane::VariableSynchronizer</text>
<text text-anchor="middle" x="469.5" y="-530" font-family="Helvetica,sans-Serif" font-size="10.00">ComputeList::_createList</text>
</a>
</g>
</g>
<!-- Node3&#45;&gt;Node4 -->
<g id="edge3_Node000003_Node000004" class="edge">
<title>Node3&#45;&gt;Node4</title>
<g id="a_edge3_Node000003_Node000004"><a xlink:title=" ">
<path fill="none" stroke="#63b8ff" d="M336.04,-505.06C355.8,-509.97 377.91,-515.47 398.31,-520.54"/>
<polygon fill="#63b8ff" stroke="#63b8ff" points="397.63,-523.98 408.18,-523 399.32,-517.19 397.63,-523.98"/>
</a>
</g>
</g>
<!-- Node5 -->
<g id="Node000005" class="node">
<title>Node5</title>
<g id="a_Node000005"><a xlink:href="../../d1/dfb/classArcane_1_1Array.html#afb30a771d3fd8022c7220afe7b78e60b" target="_top" xlink:title="Ajoute l&#39;élément val à la fin du tableau.">
<polygon fill="white" stroke="#666666" points="722,-67.5 616,-67.5 616,-48.5 722,-48.5 722,-67.5"/>
<text text-anchor="middle" x="669" y="-55.5" font-family="Helvetica,sans-Serif" font-size="10.00">Arcane::Array::add</text>
</a>
</g>
</g>
<!-- Node3&#45;&gt;Node5 -->
<g id="edge36_Node000003_Node000005" class="edge">
<title>Node3&#45;&gt;Node5</title>
<g id="a_edge36_Node000003_Node000005"><a xlink:title=" ">
<path fill="none" stroke="#63b8ff" d="M300.2,-474.79C322.89,-461.32 357.78,-441.86 390,-429 458.1,-401.82 501.29,-440.68 549,-385 638.96,-280 492.12,-178.42 585,-76 590.77,-69.64 598.2,-65.24 606.25,-62.24"/>
<polygon fill="#63b8ff" stroke="#63b8ff" points="607.35,-65.57 615.92,-59.33 605.33,-58.87 607.35,-65.57"/>
</a>
</g>
</g>
<!-- Node3&#45;&gt;Node12 -->
<g id="edge38_Node000003_Node000012" class="edge">
<title>Node3&#45;&gt;Node12</title>
<g id="a_edge38_Node000003_Node000012"><a xlink:title=" ">
<path fill="none" stroke="#63b8ff" d="M286.73,-505.02C305.42,-528.92 345.32,-575.42 390,-600 453.75,-635.07 501.96,-583.49 549,-639 617.3,-719.59 518.37,-1031.03 585,-1113 585.6,-1113.74 586.22,-1114.45 586.86,-1115.15"/>
<polygon fill="#63b8ff" stroke="#63b8ff" points="584.61,-1117.83 594.43,-1121.82 589.24,-1112.58 584.61,-1117.83"/>
</a>
</g>
</g>
<!-- Node3&#45;&gt;Node14 -->
<g id="edge39_Node000003_Node000014" class="edge">
<title>Node3&#45;&gt;Node14</title>
<g id="a_edge39_Node000003_Node000014"><a xlink:title=" ">
<path fill="none" stroke="#63b8ff" d="M287.41,-474.74C306.44,-451.49 346.07,-407.5 390,-385 454.24,-352.1 500.32,-405.28 549,-352 643.45,-248.63 494.59,-145.93 585,-39 588.48,-34.88 592.62,-31.45 597.17,-28.58"/>
<polygon fill="#63b8ff" stroke="#63b8ff" points="599.13,-31.51 606.35,-23.76 595.87,-25.32 599.13,-31.51"/>
</a>
</g>
</g>
<!-- Node31 -->
<g id="Node000031" class="node">
<title>Node31</title>
<g id="a_Node000031"><a xlink:href="../../dd/d0a/classArcane_1_1IItemFamily.html#aae7845b24c15e409df3652ac0e15e3df" target="_top" xlink:title="Nom complet de la famille (avec celui du maillage)">
<polygon fill="white" stroke="#666666" points="526.5,-343 412.5,-343 412.5,-313 526.5,-313 526.5,-343"/>
<text text-anchor="start" x="420.5" y="-331" font-family="Helvetica,sans-Serif" font-size="10.00">Arcane::IItemFamily</text>
<text text-anchor="middle" x="469.5" y="-320" font-family="Helvetica,sans-Serif" font-size="10.00">::fullName</text>
</a>
</g>
</g>
<!-- Node3&#45;&gt;Node31 -->
<g id="edge37_Node000003_Node000031" class="edge">
<title>Node3&#45;&gt;Node31</title>
<g id="a_edge37_Node000003_Node000031"><a xlink:title=" ">
<path fill="none" stroke="#63b8ff" d="M284.93,-474.62C302.41,-447.29 342.45,-390.02 390,-357 395.25,-353.36 401.01,-350.11 406.95,-347.23"/>
<polygon fill="#63b8ff" stroke="#63b8ff" points="408.69,-350.28 416.39,-343 405.83,-343.89 408.69,-350.28"/>
</a>
</g>
</g>
<!-- Node32 -->
<g id="Node000032" class="node">
<title>Node32</title>
<g id="a_Node000032"><a xlink:href="../../df/d5f/classArcane_1_1Item.html#ada9f6f3cc4b41f5c597996b87ae22160" target="_top" xlink:title="Partie interne de l&#39;entité.">
<polygon fill="white" stroke="#666666" points="535,-294.5 404,-294.5 404,-275.5 535,-275.5 535,-294.5"/>
<text text-anchor="middle" x="469.5" y="-282.5" font-family="Helvetica,sans-Serif" font-size="10.00">Arcane::Item::itemBase</text>
</a>
</g>
</g>
<!-- Node3&#45;&gt;Node32 -->
<g id="edge40_Node000003_Node000032" class="edge">
<title>Node3&#45;&gt;Node32</title>
<g id="a_edge40_Node000003_Node000032"><a xlink:title=" ">
<path fill="none" stroke="#63b8ff" d="M280.27,-474.94C292.39,-439.24 327.87,-349.13 390,-304 392.67,-302.06 395.5,-300.32 398.46,-298.76"/>
<polygon fill="#63b8ff" stroke="#63b8ff" points="399.99,-301.91 407.63,-294.57 397.08,-295.54 399.99,-301.91"/>
</a>
</g>
</g>
<!-- Node33 -->
<g id="Node000033" class="node">
<title>Node33</title>
<g id="a_Node000033"><a xlink:href="../../d7/dac/classArcane_1_1ItemBase.html#af872fabfb4a2112efb5d5cd8856841f8" target="_top" xlink:title="Numéro local (au sous&#45;domaine) de l&#39;entité">
<polygon fill="white" stroke="#666666" points="540,-666.5 399,-666.5 399,-647.5 540,-647.5 540,-666.5"/>
<text text-anchor="middle" x="469.5" y="-654.5" font-family="Helvetica,sans-Serif" font-size="10.00">Arcane::ItemBase::localId</text>
</a>
</g>
</g>
<!-- Node3&#45;&gt;Node33 -->
<g id="edge41_Node000003_Node000033" class="edge">
<title>Node3&#45;&gt;Node33</title>
<g id="a_edge41_Node000003_Node000033"><a xlink:title=" ">
<path fill="none" stroke="#63b8ff" d="M283.41,-505C299.51,-534.1 338.94,-598.36 390,-633 396.47,-637.39 403.77,-641 411.24,-643.96"/>
<polygon fill="#63b8ff" stroke="#63b8ff" points="410.17,-647.29 420.76,-647.38 412.53,-640.71 410.17,-647.29"/>
</a>
</g>
</g>
<!-- Node34 -->
<g id="Node000034" class="node">
<title>Node34</title>
<g id="a_Node000034"><a xlink:href="../../d7/dac/classArcane_1_1ItemBase.html#a4ecbf8f24852890cfe6d09202c2ef17f" target="_top" xlink:title="Numéro du sous&#45;domaine propriétaire de l&#39;entité">
<polygon fill="white" stroke="#666666" points="539,-590.5 400,-590.5 400,-571.5 539,-571.5 539,-590.5"/>
<text text-anchor="middle" x="469.5" y="-578.5" font-family="Helvetica,sans-Serif" font-size="10.00">Arcane::ItemBase::owner</text>
</a>
</g>
</g>
<!-- Node3&#45;&gt;Node34 -->
<g id="edge42_Node000003_Node000034" class="edge">
<title>Node3&#45;&gt;Node34</title>
<g id="a_edge42_Node000003_Node000034"><a xlink:title=" ">
<path fill="none" stroke="#63b8ff" d="M295.09,-505.11C317.06,-521.38 354.3,-546.93 390,-562 395.85,-564.47 402.09,-566.66 408.39,-568.59"/>
<polygon fill="#63b8ff" stroke="#63b8ff" points="407.73,-572.04 418.3,-571.42 409.65,-565.31 407.73,-572.04"/>
</a>
</g>
</g>
<!-- Node35 -->
<g id="Node000035" class="node">
<title>Node35</title>
<g id="a_Node000035"><a xlink:href="../../d1/d17/classArcane_1_1TraceAccessor.html#ab0263636a823e11152e94c4cd094b706" target="_top" xlink:title="Gestionnaire de trace.">
<polygon fill="white" stroke="#666666" points="532,-505 407,-505 407,-475 532,-475 532,-505"/>
<text text-anchor="start" x="415" y="-493" font-family="Helvetica,sans-Serif" font-size="10.00">Arcane::TraceAccessor</text>
<text text-anchor="middle" x="469.5" y="-482" font-family="Helvetica,sans-Serif" font-size="10.00">::traceMng</text>
</a>
</g>
</g>
<!-- Node3&#45;&gt;Node35 -->
<g id="edge43_Node000003_Node000035" class="edge">
<title>Node3&#45;&gt;Node35</title>
<g id="a_edge43_Node000003_Node000035"><a xlink:title=" ">
<path fill="none" stroke="#63b8ff" d="M354,-490C368.19,-490 382.92,-490 396.91,-490"/>
<polygon fill="#63b8ff" stroke="#63b8ff" points="396.94,-493.5 406.94,-490 396.94,-486.5 396.94,-493.5"/>
</a>
</g>
</g>
<!-- Node36 -->
<g id="Node000036" class="node">
<title>Node36</title>
<g id="a_Node000036"><a xlink:href="../../d7/dac/classArcane_1_1ItemBase.html#a1caf9fd5a9b2c25ce5a3739b7f832848" target="_top" xlink:title="Numéro unique de l&#39;entité">
<polygon fill="white" stroke="#666666" points="545,-456.5 394,-456.5 394,-437.5 545,-437.5 545,-456.5"/>
<text text-anchor="middle" x="469.5" y="-444.5" font-family="Helvetica,sans-Serif" font-size="10.00">Arcane::ItemBase::uniqueId</text>
</a>
</g>
</g>
<!-- Node3&#45;&gt;Node36 -->
<g id="edge44_Node000003_Node000036" class="edge">
<title>Node3&#45;&gt;Node36</title>
<g id="a_edge44_Node000003_Node000036"><a xlink:title=" ">
<path fill="none" stroke="#63b8ff" d="M343,-474.96C366.85,-469.65 393.31,-463.75 415.75,-458.75"/>
<polygon fill="#63b8ff" stroke="#63b8ff" points="416.76,-462.11 425.76,-456.52 415.24,-455.28 416.76,-462.11"/>
</a>
</g>
</g>
<!-- Node4&#45;&gt;Node5 -->
<g id="edge4_Node000004_Node000005" class="edge">
<title>Node4&#45;&gt;Node5</title>
<g id="a_edge4_Node000004_Node000005"><a xlink:title=" ">
<path fill="none" stroke="#63b8ff" d="M539.4,-522.94C542.98,-520.4 546.23,-517.44 549,-514 610.26,-437.94 520.63,-149.45 585,-76 590.66,-69.54 598.03,-65.09 606.06,-62.07"/>
<polygon fill="#63b8ff" stroke="#63b8ff" points="607.15,-65.4 615.71,-59.14 605.12,-58.7 607.15,-65.4"/>
</a>
</g>
</g>
<!-- Node6 -->
<g id="Node000006" class="node">
<title>Node6</title>
<g id="a_Node000006"><a xlink:href="../../dc/d5a/classArcane_1_1IParallelMng.html#a865add98ac0a6167b13231267aed8e2d" target="_top" xlink:title="Effectue un regroupement sur tous les processeurs. Il s&#39;agit d&#39;une opération collective....">
<polygon fill="white" stroke="#666666" points="727,-886 611,-886 611,-856 727,-856 727,-886"/>
<text text-anchor="start" x="619" y="-874" font-family="Helvetica,sans-Serif" font-size="10.00">Arcane::IParallelMng</text>
<text text-anchor="middle" x="669" y="-863" font-family="Helvetica,sans-Serif" font-size="10.00">::allGather</text>
</a>
</g>
</g>
<!-- Node4&#45;&gt;Node6 -->
<g id="edge5_Node000004_Node000006" class="edge">
<title>Node4&#45;&gt;Node6</title>
<g id="a_edge5_Node000004_Node000006"><a xlink:title=" ">
<path fill="none" stroke="#63b8ff" d="M537.84,-553.12C542,-555.89 545.8,-559.15 549,-563 630.41,-660.78 502.29,-750.32 585,-847 589.52,-852.28 595.13,-856.44 601.27,-859.71"/>
<polygon fill="#63b8ff" stroke="#63b8ff" points="600.05,-862.99 610.61,-863.88 602.91,-856.6 600.05,-862.99"/>
</a>
</g>
</g>
<!-- Node7 -->
<g id="Node000007" class="node">
<title>Node7</title>
<g id="a_Node000007"><a xlink:href="../../dc/d5a/classArcane_1_1IParallelMng.html#a26fc7494a02a7370d3be787fcc742b04" target="_top" xlink:title="Rang de cette instance dans le communicateur.">
<polygon fill="white" stroke="#666666" points="727,-838 611,-838 611,-808 727,-808 727,-838"/>
<text text-anchor="start" x="619" y="-826" font-family="Helvetica,sans-Serif" font-size="10.00">Arcane::IParallelMng</text>
<text text-anchor="middle" x="669" y="-815" font-family="Helvetica,sans-Serif" font-size="10.00">::commRank</text>
</a>
</g>
</g>
<!-- Node4&#45;&gt;Node7 -->
<g id="edge7_Node000004_Node000007" class="edge">
<title>Node4&#45;&gt;Node7</title>
<g id="a_edge7_Node000004_Node000007"><a xlink:title=" ">
<path fill="none" stroke="#63b8ff" d="M537.73,-553.22C541.92,-555.96 545.75,-559.19 549,-563 617.91,-643.68 515.01,-719.26 585,-799 589.59,-804.23 595.23,-808.35 601.41,-811.59"/>
<polygon fill="#63b8ff" stroke="#63b8ff" points="600.21,-814.89 610.77,-815.74 603.05,-808.49 600.21,-814.89"/>
</a>
</g>
</g>
<!-- Node8 -->
<g id="Node000008" class="node">
<title>Node8</title>
<g id="a_Node000008"><a xlink:href="../../dc/d5a/classArcane_1_1IParallelMng.html#a7c5831fb289f8aa3fac3b05cdbb3d194" target="_top" xlink:title="Nombre d&#39;instance dans le communicateur.">
<polygon fill="white" stroke="#666666" points="727,-790 611,-790 611,-760 727,-760 727,-790"/>
<text text-anchor="start" x="619" y="-778" font-family="Helvetica,sans-Serif" font-size="10.00">Arcane::IParallelMng</text>
<text text-anchor="middle" x="669" y="-767" font-family="Helvetica,sans-Serif" font-size="10.00">::commSize</text>
</a>
</g>
</g>
<!-- Node4&#45;&gt;Node8 -->
<g id="edge8_Node000004_Node000008" class="edge">
<title>Node4&#45;&gt;Node8</title>
<g id="a_edge8_Node000004_Node000008"><a xlink:title=" ">
<path fill="none" stroke="#63b8ff" d="M537.21,-553.12C541.57,-555.89 545.58,-559.15 549,-563 605.47,-626.63 527.68,-688.13 585,-751 589.62,-756.06 595.23,-760.09 601.34,-763.27"/>
<polygon fill="#63b8ff" stroke="#63b8ff" points="600.02,-766.52 610.58,-767.38 602.86,-760.12 600.02,-766.52"/>
</a>
</g>
</g>
<!-- Node9 -->
<g id="Node000009" class="node">
<title>Node9</title>
<g id="a_Node000009"><a xlink:href="../../d1/d17/classArcane_1_1TraceAccessor.html#a24ff2b7ec9158ea6c25512a00b7db890" target="_top" xlink:title="Flot pour un message de debug.">
<polygon fill="white" stroke="#666666" points="731.5,-742 606.5,-742 606.5,-712 731.5,-712 731.5,-742"/>
<text text-anchor="start" x="614.5" y="-730" font-family="Helvetica,sans-Serif" font-size="10.00">Arcane::TraceAccessor</text>
<text text-anchor="middle" x="669" y="-719" font-family="Helvetica,sans-Serif" font-size="10.00">::debug</text>
</a>
</g>
</g>
<!-- Node4&#45;&gt;Node9 -->
<g id="edge9_Node000004_Node000009" class="edge">
<title>Node4&#45;&gt;Node9</title>
<g id="a_edge9_Node000004_Node000009"><a xlink:title=" ">
<path fill="none" stroke="#63b8ff" d="M536.57,-553.14C541.14,-555.9 545.37,-559.15 549,-563 593.12,-609.7 540.25,-656.9 585,-703 588.63,-706.74 592.8,-709.9 597.3,-712.58"/>
<polygon fill="#63b8ff" stroke="#63b8ff" points="595.81,-715.75 606.31,-717.16 598.98,-709.51 595.81,-715.75"/>
</a>
</g>
</g>
<!-- Node10 -->
<g id="Node000010" class="node">
<title>Node10</title>
<g id="a_Node000010"><a xlink:href="../../d2/d30/classArcane_1_1ArrayView.html#af49b4e813b668761b7d5c6778a4a60cc" target="_top" xlink:title="Retourne true si le tableau est vide (dimension nulle)">
<polygon fill="white" stroke="#666666" points="725,-694 613,-694 613,-664 725,-664 725,-694"/>
<text text-anchor="start" x="621" y="-682" font-family="Helvetica,sans-Serif" font-size="10.00">Arcane::ArrayView::</text>
<text text-anchor="middle" x="669" y="-671" font-family="Helvetica,sans-Serif" font-size="10.00">empty</text>
</a>
</g>
</g>
<!-- Node4&#45;&gt;Node10 -->
<g id="edge10_Node000004_Node000010" class="edge">
<title>Node4&#45;&gt;Node10</title>
<g id="a_edge10_Node000004_Node000010"><a xlink:title=" ">
<path fill="none" stroke="#63b8ff" d="M534.93,-553C540.04,-555.79 544.83,-559.09 549,-563 581.04,-593.03 552.56,-625.4 585,-655 590.41,-659.94 596.77,-663.86 603.53,-666.98"/>
<polygon fill="#63b8ff" stroke="#63b8ff" points="602.35,-670.28 612.94,-670.76 604.96,-663.79 602.35,-670.28"/>
</a>
</g>
</g>
<!-- Node11 -->
<g id="Node000011" class="node">
<title>Node11</title>
<g id="a_Node000011"><a xlink:href="../../d1/dfb/classArcane_1_1Array.html#a0d76a9d28e8c370b17f40851863d6ee3" target="_top" xlink:title="Remplissage du tableau.">
<polygon fill="white" stroke="#666666" points="719,-645.5 619,-645.5 619,-626.5 719,-626.5 719,-645.5"/>
<text text-anchor="middle" x="669" y="-633.5" font-family="Helvetica,sans-Serif" font-size="10.00">Arcane::Array::fill</text>
</a>
</g>
</g>
<!-- Node4&#45;&gt;Node11 -->
<g id="edge11_Node000004_Node000011" class="edge">
<title>Node4&#45;&gt;Node11</title>
<g id="a_edge11_Node000004_Node000011"><a xlink:title=" ">
<path fill="none" stroke="#63b8ff" d="M532.13,-553.02C538.13,-555.81 543.88,-559.11 549,-563 572.26,-580.68 560.93,-601.45 585,-618 592.24,-622.98 600.6,-626.61 609.18,-629.26"/>
<polygon fill="#63b8ff" stroke="#63b8ff" points="608.34,-632.66 618.9,-631.85 610.14,-625.9 608.34,-632.66"/>
</a>
</g>
</g>
<!-- Node4&#45;&gt;Node12 -->
<g id="edge12_Node000004_Node000012" class="edge">
<title>Node4&#45;&gt;Node12</title>
<g id="a_edge12_Node000004_Node000012"><a xlink:title=" ">
<path fill="none" stroke="#63b8ff" d="M538.45,-553.15C542.42,-555.92 546,-559.17 549,-563 624.48,-659.47 508.24,-1017.56 585,-1113 585.6,-1113.74 586.21,-1114.46 586.85,-1115.16"/>
<polygon fill="#63b8ff" stroke="#63b8ff" points="584.58,-1117.83 594.38,-1121.85 589.23,-1112.59 584.58,-1117.83"/>
</a>
</g>
</g>
<!-- Node13 -->
<g id="Node000013" class="node">
<title>Node13</title>
<g id="a_Node000013"><a xlink:href="../../dd/d27/namespaceArcane_1_1platform.html#a7ac008e636f637463eef63d1e303e28a" target="_top" xlink:title="Temps Real utilisé en secondes.">
<polygon fill="white" stroke="#666666" points="752.5,-608.5 585.5,-608.5 585.5,-589.5 752.5,-589.5 752.5,-608.5"/>
<text text-anchor="middle" x="669" y="-596.5" font-family="Helvetica,sans-Serif" font-size="10.00">Arcane::platform::getRealTime</text>
</a>
</g>
</g>
<!-- Node4&#45;&gt;Node13 -->
<g id="edge13_Node000004_Node000013" class="edge">
<title>Node4&#45;&gt;Node13</title>
<g id="a_edge13_Node000004_Node000013"><a xlink:title=" ">
<path fill="none" stroke="#63b8ff" d="M521.1,-553.02C530.46,-556.11 540.08,-559.49 549,-563 565.47,-569.48 568.28,-574.21 585,-580 592.55,-582.61 600.61,-584.97 608.63,-587.06"/>
<polygon fill="#63b8ff" stroke="#63b8ff" points="607.8,-590.46 618.35,-589.48 609.49,-583.67 607.8,-590.46"/>
</a>
</g>
</g>
<!-- Node4&#45;&gt;Node14 -->
<g id="edge14_Node000004_Node000014" class="edge">
<title>Node4&#45;&gt;Node14</title>
<g id="a_edge14_Node000004_Node000014"><a xlink:title=" ">
<path fill="none" stroke="#63b8ff" d="M539.43,-522.96C543,-520.42 546.24,-517.45 549,-514 615.14,-431.35 518.23,-121.15 585,-39 588.4,-34.81 592.48,-31.33 596.99,-28.44"/>
<polygon fill="#63b8ff" stroke="#63b8ff" points="598.94,-31.36 606.11,-23.56 595.64,-25.19 598.94,-31.36"/>
</a>
</g>
</g>
<!-- Node15 -->
<g id="Node000015" class="node">
<title>Node15</title>
<g id="a_Node000015"><a xlink:href="../../dd/d0a/classArcane_1_1IItemFamily.html#ac84615ed0ea22a2104fdae7d9c8c5179" target="_top" xlink:title="Converti un tableau de numéros uniques en numéros locaux.">
<polygon fill="white" stroke="#666666" points="738.5,-553 599.5,-553 599.5,-523 738.5,-523 738.5,-553"/>
<text text-anchor="start" x="607.5" y="-541" font-family="Helvetica,sans-Serif" font-size="10.00">Arcane::IItemFamily</text>
<text text-anchor="middle" x="669" y="-530" font-family="Helvetica,sans-Serif" font-size="10.00">::itemsUniqueIdToLocalId</text>
</a>
</g>
</g>
<!-- Node4&#45;&gt;Node15 -->
<g id="edge15_Node000004_Node000015" class="edge">
<title>Node4&#45;&gt;Node15</title>
<g id="a_edge15_Node000004_Node000015"><a xlink:title=" ">
<path fill="none" stroke="#63b8ff" d="M549.12,-538C562.2,-538 575.76,-538 588.84,-538"/>
<polygon fill="#63b8ff" stroke="#63b8ff" points="589.22,-541.5 599.22,-538 589.22,-534.5 589.22,-541.5"/>
</a>
</g>
</g>
<!-- Node16 -->
<g id="Node000016" class="node">
<title>Node16</title>
<g id="a_Node000016"><a xlink:href="../../df/d5f/classArcane_1_1Item.html#a337f519e8727634e55ea621f4734ec04" target="_top" xlink:title="Identifiant local de l&#39;entité dans le sous&#45;domaine du processeur.">
<polygon fill="white" stroke="#666666" points="727.5,-504.5 610.5,-504.5 610.5,-485.5 727.5,-485.5 727.5,-504.5"/>
<text text-anchor="middle" x="669" y="-492.5" font-family="Helvetica,sans-Serif" font-size="10.00">Arcane::Item::localId</text>
</a>
</g>
</g>
<!-- Node4&#45;&gt;Node16 -->
<g id="edge17_Node000004_Node000016" class="edge">
<title>Node4&#45;&gt;Node16</title>
<g id="a_edge17_Node000004_Node000016"><a xlink:title=" ">
<path fill="none" stroke="#63b8ff" d="M539.58,-522.96C564.09,-517.62 591.3,-511.7 614.33,-506.68"/>
<polygon fill="#63b8ff" stroke="#63b8ff" points="615.24,-510.07 624.26,-504.52 613.75,-503.23 615.24,-510.07"/>
</a>
</g>
</g>
<!-- Node17 -->
<g id="Node000017" class="node">
<title>Node17</title>
<g id="a_Node000017"><a xlink:href="../../d9/dfe/classArcane_1_1DataSynchronizeBufferInfoList.html#af06c126636df155c7e890f026f10dac5" target="_top" xlink:title="Nombre d&#39;entités pour le rang index.">
<polygon fill="white" stroke="#666666" points="753,-467 585,-467 585,-437 753,-437 753,-467"/>
<text text-anchor="start" x="593" y="-455" font-family="Helvetica,sans-Serif" font-size="10.00">Arcane::DataSynchronizeBuffer</text>
<text text-anchor="middle" x="669" y="-444" font-family="Helvetica,sans-Serif" font-size="10.00">InfoList::nbItem</text>
</a>
</g>
</g>
<!-- Node4&#45;&gt;Node17 -->
<g id="edge18_Node000004_Node000017" class="edge">
<title>Node4&#45;&gt;Node17</title>
<g id="a_edge18_Node000004_Node000017"><a xlink:title=" ">
<path fill="none" stroke="#63b8ff" d="M531.01,-522.94C537.28,-520.38 543.4,-517.41 549,-514 568.59,-502.05 565.39,-488.91 585,-477 588.45,-474.91 592.08,-472.98 595.83,-471.2"/>
<polygon fill="#63b8ff" stroke="#63b8ff" points="597.53,-474.28 605.32,-467.09 594.75,-467.85 597.53,-474.28"/>
</a>
</g>
</g>
<!-- Node20 -->
<g id="Node000020" class="node">
<title>Node20</title>
<g id="a_Node000020"><a xlink:href="../../dc/d17/classArcane_1_1DataSynchronizeInfo.html#a6185326a7acd8e84c127dd5f478314f8" target="_top" xlink:title="Informations de réception (fantômes)">
<polygon fill="white" stroke="#666666" points="748,-419 590,-419 590,-389 748,-389 748,-419"/>
<text text-anchor="start" x="598" y="-407" font-family="Helvetica,sans-Serif" font-size="10.00">Arcane::DataSynchronizeInfo</text>
<text text-anchor="middle" x="669" y="-396" font-family="Helvetica,sans-Serif" font-size="10.00">::receiveInfo</text>
</a>
</g>
</g>
<!-- Node4&#45;&gt;Node20 -->
<g id="edge21_Node000004_Node000020" class="edge">
<title>Node4&#45;&gt;Node20</title>
<g id="a_edge21_Node000004_Node000020"><a xlink:title=" ">
<path fill="none" stroke="#63b8ff" d="M536.35,-522.92C540.91,-520.39 545.2,-517.44 549,-514 579.72,-486.2 554.07,-455.57 585,-428 586.31,-426.83 587.67,-425.72 589.08,-424.67"/>
<polygon fill="#63b8ff" stroke="#63b8ff" points="591.08,-427.54 597.59,-419.19 587.29,-421.66 591.08,-427.54"/>
</a>
</g>
</g>
<!-- Node21 -->
<g id="Node000021" class="node">
<title>Node21</title>
<g id="a_Node000021"><a xlink:href="../../dc/d17/classArcane_1_1DataSynchronizeInfo.html#a4097c8b32dbbc9b1e77f6ab25ba7e6f7" target="_top" xlink:title="Notifie l&#39;instance que les valeurs ont changé">
<polygon fill="white" stroke="#666666" points="748,-371 590,-371 590,-341 748,-341 748,-371"/>
<text text-anchor="start" x="598" y="-359" font-family="Helvetica,sans-Serif" font-size="10.00">Arcane::DataSynchronizeInfo</text>
<text text-anchor="middle" x="669" y="-348" font-family="Helvetica,sans-Serif" font-size="10.00">::recompute</text>
</a>
</g>
</g>
<!-- Node4&#45;&gt;Node21 -->
<g id="edge22_Node000004_Node000021" class="edge">
<title>Node4&#45;&gt;Node21</title>
<g id="a_edge22_Node000004_Node000021"><a xlink:title=" ">
<path fill="none" stroke="#63b8ff" d="M537.98,-522.79C542,-520.29 545.73,-517.38 549,-514 591.85,-469.65 541.81,-424.02 585,-380 585.95,-379.04 586.93,-378.11 587.94,-377.22"/>
<polygon fill="#63b8ff" stroke="#63b8ff" points="590.29,-379.84 596.29,-371.1 586.15,-374.19 590.29,-379.84"/>
</a>
</g>
</g>
<!-- Node22 -->
<g id="Node000022" class="node">
<title>Node22</title>
<g id="a_Node000022"><a xlink:href="../../d1/dfb/classArcane_1_1Array.html#a31fc5b4bd79b4f6e4a011735d33b1818" target="_top" xlink:title="Change le nombre d&#39;éléments du tableau à s.">
<polygon fill="white" stroke="#666666" points="916.5,-344.5 799.5,-344.5 799.5,-325.5 916.5,-325.5 916.5,-344.5"/>
<text text-anchor="middle" x="858" y="-332.5" font-family="Helvetica,sans-Serif" font-size="10.00">Arcane::Array::resize</text>
</a>
</g>
</g>
<!-- Node4&#45;&gt;Node22 -->
<g id="edge28_Node000004_Node000022" class="edge">
<title>Node4&#45;&gt;Node22</title>
<g id="a_edge28_Node000004_Node000022"><a xlink:title=" ">
<path fill="none" stroke="#63b8ff" d="M538.61,-522.8C542.42,-520.3 545.94,-517.38 549,-514 604.27,-452.81 521.29,-384.34 585,-332 653.16,-276 766.66,-303.32 823.05,-322.18"/>
<polygon fill="#63b8ff" stroke="#63b8ff" points="821.97,-325.51 832.57,-325.47 824.26,-318.89 821.97,-325.51"/>
</a>
</g>
</g>
<!-- Node23 -->
<g id="Node000023" class="node">
<title>Node23</title>
<g id="a_Node000023"><a xlink:href="../../dc/d5a/classArcane_1_1IParallelMng.html#a6ffa41efd37b159a719ee3caeee2d5ff" target="_top" xlink:title=" ">
<polygon fill="white" stroke="#666666" points="727,-267 611,-267 611,-237 727,-237 727,-267"/>
<text text-anchor="start" x="619" y="-255" font-family="Helvetica,sans-Serif" font-size="10.00">Arcane::IParallelMng</text>
<text text-anchor="middle" x="669" y="-244" font-family="Helvetica,sans-Serif" font-size="10.00">::recv</text>
</a>
</g>
</g>
<!-- Node4&#45;&gt;Node23 -->
<g id="edge24_Node000004_Node000023" class="edge">
<title>Node4&#45;&gt;Node23</title>
<g id="a_edge24_Node000004_Node000023"><a xlink:title=" ">
<path fill="none" stroke="#63b8ff" d="M538.72,-522.91C542.51,-520.37 545.99,-517.43 549,-514 612.88,-441.16 529.44,-378.37 585,-299 592.87,-287.76 604.34,-278.87 616.26,-271.99"/>
<polygon fill="#63b8ff" stroke="#63b8ff" points="618.23,-274.9 625.41,-267.11 614.94,-268.73 618.23,-274.9"/>
</a>
</g>
</g>
<!-- Node24 -->
<g id="Node000024" class="node">
<title>Node24</title>
<g id="a_Node000024"><a xlink:href="../../dc/d5a/classArcane_1_1IParallelMng.html#af078b601696a7983571867ec83198b1c" target="_top" xlink:title="Effectue la réduction de type rt sur le réel v et retourne la valeur.">
<polygon fill="white" stroke="#666666" points="727,-201 611,-201 611,-171 727,-171 727,-201"/>
<text text-anchor="start" x="619" y="-189" font-family="Helvetica,sans-Serif" font-size="10.00">Arcane::IParallelMng</text>
<text text-anchor="middle" x="669" y="-178" font-family="Helvetica,sans-Serif" font-size="10.00">::reduce</text>
</a>
</g>
</g>
<!-- Node4&#45;&gt;Node24 -->
<g id="edge26_Node000004_Node000024" class="edge">
<title>Node4&#45;&gt;Node24</title>
<g id="a_edge26_Node000004_Node000024"><a xlink:title=" ">
<path fill="none" stroke="#63b8ff" d="M539.23,-522.8C542.85,-520.29 546.16,-517.38 549,-514 631.5,-415.98 511.21,-332.73 585,-228 591.41,-218.9 600.38,-211.66 610.07,-205.93"/>
<polygon fill="#63b8ff" stroke="#63b8ff" points="611.96,-208.89 619.12,-201.09 608.65,-202.72 611.96,-208.89"/>
</a>
</g>
</g>
<!-- Node25 -->
<g id="Node000025" class="node">
<title>Node25</title>
<g id="a_Node000025"><a xlink:href="../../d5/d72/classArcane_1_1AbstractArray.html#a462e7632cf9664d773016bc972bed483" target="_top" xlink:title="Nombre d&#39;éléments du vecteur.">
<polygon fill="white" stroke="#666666" points="730.5,-153 607.5,-153 607.5,-123 730.5,-123 730.5,-153"/>
<text text-anchor="start" x="615.5" y="-141" font-family="Helvetica,sans-Serif" font-size="10.00">Arcane::AbstractArray</text>
<text text-anchor="middle" x="669" y="-130" font-family="Helvetica,sans-Serif" font-size="10.00">::size</text>
</a>
</g>
</g>
<!-- Node4&#45;&gt;Node25 -->
<g id="edge29_Node000004_Node000025" class="edge">
<title>Node4&#45;&gt;Node25</title>
<g id="a_edge29_Node000004_Node000025"><a xlink:title=" ">
<path fill="none" stroke="#63b8ff" d="M539.32,-522.88C542.92,-520.35 546.19,-517.41 549,-514 648.86,-392.51 484.22,-282.72 585,-162 588.66,-157.61 593.08,-154 597.94,-151.02"/>
<polygon fill="#63b8ff" stroke="#63b8ff" points="599.79,-154.01 607.1,-146.33 596.6,-147.77 599.79,-154.01"/>
</a>
</g>
</g>
<!-- Node26 -->
<g id="Node000026" class="node">
<title>Node26</title>
<g id="a_Node000026"><a xlink:href="../../d2/d30/classArcane_1_1ArrayView.html#abdc30b186a464d086d452be8eb6c6397" target="_top" xlink:title="Retourne la taille du tableau.">
<polygon fill="white" stroke="#666666" points="734.5,-104.5 603.5,-104.5 603.5,-85.5 734.5,-85.5 734.5,-104.5"/>
<text text-anchor="middle" x="669" y="-92.5" font-family="Helvetica,sans-Serif" font-size="10.00">Arcane::ArrayView::size</text>
</a>
</g>
</g>
<!-- Node4&#45;&gt;Node26 -->
<g id="edge30_Node000004_Node000026" class="edge">
<title>Node4&#45;&gt;Node26</title>
<g id="a_edge30_Node000004_Node000026"><a xlink:title=" ">
<path fill="none" stroke="#63b8ff" d="M539.37,-522.92C542.95,-520.38 546.22,-517.43 549,-514 605.25,-444.71 526.3,-181.23 585,-114 587.71,-110.89 590.82,-108.24 594.2,-105.97"/>
<polygon fill="#63b8ff" stroke="#63b8ff" points="596.01,-108.98 603.11,-101.11 592.65,-102.83 596.01,-108.98"/>
</a>
</g>
</g>
<!-- Node27 -->
<g id="Node000027" class="node">
<title>Node27</title>
<g id="a_Node000027"><a xlink:href="../../d9/d2e/classArcane_1_1ConstArrayView.html#ac6a4f407a7ec0a0e0985113552fe2f54" target="_top" xlink:title="Nombre d&#39;éléments du tableau.">
<polygon fill="white" stroke="#666666" points="736,-1104 602,-1104 602,-1074 736,-1074 736,-1104"/>
<text text-anchor="start" x="610" y="-1092" font-family="Helvetica,sans-Serif" font-size="10.00">Arcane::ConstArrayView</text>
<text text-anchor="middle" x="669" y="-1081" font-family="Helvetica,sans-Serif" font-size="10.00">::size</text>
</a>
</g>
</g>
<!-- Node4&#45;&gt;Node27 -->
<g id="edge31_Node000004_Node000027" class="edge">
<title>Node4&#45;&gt;Node27</title>
<g id="a_edge31_Node000004_Node000027"><a xlink:title=" ">
<path fill="none" stroke="#63b8ff" d="M538.43,-553.17C542.4,-555.93 545.99,-559.18 549,-563 618.19,-650.87 514.64,-978.07 585,-1065 587.41,-1067.97 590.16,-1070.59 593.16,-1072.9"/>
<polygon fill="#63b8ff" stroke="#63b8ff" points="591.32,-1075.87 601.63,-1078.3 595.08,-1069.97 591.32,-1075.87"/>
</a>
</g>
</g>
<!-- Node28 -->
<g id="Node000028" class="node">
<title>Node28</title>
<g id="a_Node000028"><a xlink:href="../../dc/d17/classArcane_1_1DataSynchronizeInfo.html#a29ee732b8de2ba6ccdff928590e4c09f" target="_top" xlink:title="Rang de la index&#45;ème cible.">
<polygon fill="white" stroke="#666666" points="748,-1056 590,-1056 590,-1026 748,-1026 748,-1056"/>
<text text-anchor="start" x="598" y="-1044" font-family="Helvetica,sans-Serif" font-size="10.00">Arcane::DataSynchronizeInfo</text>
<text text-anchor="middle" x="669" y="-1033" font-family="Helvetica,sans-Serif" font-size="10.00">::targetRank</text>
</a>
</g>
</g>
<!-- Node4&#45;&gt;Node28 -->
<g id="edge32_Node000004_Node000028" class="edge">
<title>Node4&#45;&gt;Node28</title>
<g id="a_edge32_Node000004_Node000028"><a xlink:title=" ">
<path fill="none" stroke="#63b8ff" d="M538.39,-553.2C542.37,-555.95 545.98,-559.19 549,-563 611.91,-642.28 521.03,-938.57 585,-1017 585.6,-1017.74 586.22,-1018.45 586.87,-1019.15"/>
<polygon fill="#63b8ff" stroke="#63b8ff" points="584.62,-1021.83 594.44,-1025.81 589.24,-1016.57 584.62,-1021.83"/>
</a>
</g>
</g>
<!-- Node29 -->
<g id="Node000029" class="node">
<title>Node29</title>
<g id="a_Node000029"><a xlink:href="../../df/d5f/classArcane_1_1Item.html#a8e5cf3572ae8a043fae3e32fe400551b" target="_top" xlink:title="Identifiant unique sur tous les domaines.">
<polygon fill="white" stroke="#666666" points="732.5,-1007.5 605.5,-1007.5 605.5,-988.5 732.5,-988.5 732.5,-1007.5"/>
<text text-anchor="middle" x="669" y="-995.5" font-family="Helvetica,sans-Serif" font-size="10.00">Arcane::Item::uniqueId</text>
</a>
</g>
</g>
<!-- Node4&#45;&gt;Node29 -->
<g id="edge33_Node000004_Node000029" class="edge">
<title>Node4&#45;&gt;Node29</title>
<g id="a_edge33_Node000004_Node000029"><a xlink:title=" ">
<path fill="none" stroke="#63b8ff" d="M538.36,-553.22C542.35,-555.97 545.96,-559.2 549,-563 606.94,-635.48 524.09,-909 585,-979 588.23,-982.71 592.01,-985.77 596.16,-988.3"/>
<polygon fill="#63b8ff" stroke="#63b8ff" points="594.62,-991.44 605.13,-992.76 597.74,-985.17 594.62,-991.44"/>
</a>
</g>
</g>
<!-- Node30 -->
<g id="Node000030" class="node">
<title>Node30</title>
<g id="a_Node000030"><a xlink:href="../../dc/d5a/classArcane_1_1IParallelMng.html#a8ceccdc7d3b6c0c6b1c29bbddeeb076e" target="_top" xlink:title="Bloque en attendant que les requêtes rvalues soient terminées.">
<polygon fill="white" stroke="#666666" points="727,-952 611,-952 611,-922 727,-922 727,-952"/>
<text text-anchor="start" x="619" y="-940" font-family="Helvetica,sans-Serif" font-size="10.00">Arcane::IParallelMng</text>
<text text-anchor="middle" x="669" y="-929" font-family="Helvetica,sans-Serif" font-size="10.00">::waitAllRequests</text>
</a>
</g>
</g>
<!-- Node4&#45;&gt;Node30 -->
<g id="edge34_Node000004_Node000030" class="edge">
<title>Node4&#45;&gt;Node30</title>
<g id="a_edge34_Node000004_Node000030"><a xlink:title=" ">
<path fill="none" stroke="#63b8ff" d="M537.94,-553.04C542.08,-555.83 545.84,-559.12 549,-563 647.63,-684.35 484.75,-792.99 585,-913 589.52,-918.41 595.18,-922.65 601.42,-925.96"/>
<polygon fill="#63b8ff" stroke="#63b8ff" points="600.32,-929.3 610.88,-930.16 603.17,-922.9 600.32,-929.3"/>
</a>
</g>
</g>
<!-- Node6&#45;&gt;Node6 -->
<g id="edge6_Node000006_Node000006" class="edge">
<title>Node6&#45;&gt;Node6</title>
<g id="a_edge6_Node000006_Node000006"><a xlink:title=" ">
<path fill="none" stroke="#63b8ff" d="M635.95,-886.28C628.61,-895.41 639.62,-904 669,-904 686.44,-904 697.41,-900.97 701.91,-896.6"/>
<polygon fill="#63b8ff" stroke="#63b8ff" points="705.41,-896.32 702.05,-886.28 698.41,-896.23 705.41,-896.32"/>
</a>
</g>
</g>
<!-- Node15&#45;&gt;Node15 -->
<g id="edge16_Node000015_Node000015" class="edge">
<title>Node15&#45;&gt;Node15</title>
<g id="a_edge16_Node000015_Node000015"><a xlink:title=" ">
<path fill="none" stroke="#63b8ff" d="M635.95,-553.28C628.61,-562.41 639.62,-571 669,-571 686.44,-571 697.41,-567.97 701.91,-563.6"/>
<polygon fill="#63b8ff" stroke="#63b8ff" points="705.41,-563.32 702.05,-553.28 698.41,-563.23 705.41,-563.32"/>
</a>
</g>
</g>
<!-- Node18 -->
<g id="Node000018" class="node">
<title>Node18</title>
<g id="a_Node000018"><a xlink:href="../../d0/d88/classArcane_1_1VariableSyncInfo.html#ab65f9c07a15fabac6b40d045bb5b806d" target="_top" xlink:title="Nombre d&#39;entités fantômes.">
<polygon fill="white" stroke="#666666" points="927,-443 789,-443 789,-413 927,-413 927,-443"/>
<text text-anchor="start" x="797" y="-431" font-family="Helvetica,sans-Serif" font-size="10.00">Arcane::VariableSyncInfo</text>
<text text-anchor="middle" x="858" y="-420" font-family="Helvetica,sans-Serif" font-size="10.00">::nbGhost</text>
</a>
</g>
</g>
<!-- Node17&#45;&gt;Node18 -->
<g id="edge19_Node000017_Node000018" class="edge">
<title>Node17&#45;&gt;Node18</title>
<g id="a_edge19_Node000017_Node000018"><a xlink:title=" ">
<path fill="none" stroke="#63b8ff" d="M753.11,-441.33C761.73,-440.23 770.48,-439.1 779.04,-438.01"/>
<polygon fill="#63b8ff" stroke="#63b8ff" points="779.52,-441.47 788.99,-436.73 778.63,-434.53 779.52,-441.47"/>
</a>
</g>
</g>
<!-- Node19 -->
<g id="Node000019" class="node">
<title>Node19</title>
<g id="a_Node000019"><a xlink:href="../../d0/d88/classArcane_1_1VariableSyncInfo.html#af2e14d83d062306623bc97220735afc1" target="_top" xlink:title="Nombre d&#39;entités partagées.">
<polygon fill="white" stroke="#666666" points="927,-491 789,-491 789,-461 927,-461 927,-491"/>
<text text-anchor="start" x="797" y="-479" font-family="Helvetica,sans-Serif" font-size="10.00">Arcane::VariableSyncInfo</text>
<text text-anchor="middle" x="858" y="-468" font-family="Helvetica,sans-Serif" font-size="10.00">::nbShare</text>
</a>
</g>
</g>
<!-- Node17&#45;&gt;Node19 -->
<g id="edge20_Node000017_Node000019" class="edge">
<title>Node17&#45;&gt;Node19</title>
<g id="a_edge20_Node000017_Node000019"><a xlink:title=" ">
<path fill="none" stroke="#63b8ff" d="M753.11,-462.67C761.73,-463.77 770.48,-464.9 779.04,-465.99"/>
<polygon fill="#63b8ff" stroke="#63b8ff" points="778.63,-469.47 788.99,-467.27 779.52,-462.53 778.63,-469.47"/>
</a>
</g>
</g>
<!-- Node21&#45;&gt;Node22 -->
<g id="edge23_Node000021_Node000022" class="edge">
<title>Node21&#45;&gt;Node22</title>
<g id="a_edge23_Node000021_Node000022"><a xlink:title=" ">
<path fill="none" stroke="#63b8ff" d="M748.22,-347.22C761.86,-345.68 775.94,-344.1 789.27,-342.61"/>
<polygon fill="#63b8ff" stroke="#63b8ff" points="789.75,-346.07 799.29,-341.48 788.96,-339.12 789.75,-346.07"/>
</a>
</g>
</g>
<!-- Node23&#45;&gt;Node23 -->
<g id="edge25_Node000023_Node000023" class="edge">
<title>Node23&#45;&gt;Node23</title>
<g id="a_edge25_Node000023_Node000023"><a xlink:title=" ">
<path fill="none" stroke="#63b8ff" d="M635.95,-267.28C628.61,-276.41 639.62,-285 669,-285 686.44,-285 697.41,-281.97 701.91,-277.6"/>
<polygon fill="#63b8ff" stroke="#63b8ff" points="705.41,-277.32 702.05,-267.28 698.41,-277.23 705.41,-277.32"/>
</a>
</g>
</g>
<!-- Node24&#45;&gt;Node24 -->
<g id="edge27_Node000024_Node000024" class="edge">
<title>Node24&#45;&gt;Node24</title>
<g id="a_edge27_Node000024_Node000024"><a xlink:title=" ">
<path fill="none" stroke="#63b8ff" d="M635.95,-201.28C628.61,-210.41 639.62,-219 669,-219 686.44,-219 697.41,-215.97 701.91,-211.6"/>
<polygon fill="#63b8ff" stroke="#63b8ff" points="705.41,-211.32 702.05,-201.28 698.41,-211.23 705.41,-211.32"/>
</a>
</g>
</g>
<!-- Node30&#45;&gt;Node30 -->
<g id="edge35_Node000030_Node000030" class="edge">
<title>Node30&#45;&gt;Node30</title>
<g id="a_edge35_Node000030_Node000030"><a xlink:title=" ">
<path fill="none" stroke="#63b8ff" d="M635.95,-952.28C628.61,-961.41 639.62,-970 669,-970 686.44,-970 697.41,-966.97 701.91,-962.6"/>
<polygon fill="#63b8ff" stroke="#63b8ff" points="705.41,-962.32 702.05,-952.28 698.41,-962.23 705.41,-962.32"/>
</a>
</g>
</g>
</g>
</svg>

<g id="navigator" transform="translate(0 0)" fill="#404254">
  <rect fill="#f2f5e9" fill-opacity="0.5" stroke="#606060" stroke-width=".5" x="0" y="0" width="60" height="60"/>
  <use id="zoomplus" xlink:href="#zoomPlus" x="17" y="9" onmousedown="handleZoom(evt,'in')"/>
  <use id="zoomminus" xlink:href="#zoomMin" x="42" y="9" onmousedown="handleZoom(evt,'out')"/>
  <use id="reset" xlink:href="#resetDef" x="30" y="36" onmousedown="handleReset()"/>
   <use id="arrowup" xlink:href="#arrowUp" x="0" y="0" onmousedown="handlePan(0,-1)"/>
  <use id="arrowright" xlink:href="#arrowRight" x="0" y="0" onmousedown="handlePan(1,0)"/>
  <use id="arrowdown" xlink:href="#arrowDown" x="0" y="0" onmousedown="handlePan(0,1)"/>
  <use id="arrowleft" xlink:href="#arrowLeft" x="0" y="0" onmousedown="handlePan(-1,0)"/>
</g>
<svg viewBox="0 0 15 15" width="100%" height="30px" preserveAspectRatio="xMaxYMin meet">
 <g id="arrow_out" transform="scale(0.3 0.3)">
  <a xlink:href="classArcane_1_1VariableSynchronizer_a159d836d6ce47e54ec178b4c7e295799_cgraph_org.svg" target="_base">
   <rect id="button" ry="5" rx="5" y="6" x="6" height="38" width="38"
        fill="#f2f5e9" fill-opacity="0.5" stroke="#606060" stroke-width="1.0"/>
   <path id="arrow"
     d="M 11.500037,31.436501 C 11.940474,20.09759 22.043105,11.32322 32.158766,21.979434 L 37.068811,17.246167 C 37.068811,17.246167 37.088388,32 37.088388,32 L 22.160133,31.978069 C 22.160133,31.978069 26.997745,27.140456 26.997745,27.140456 C 18.528582,18.264221 13.291696,25.230495 11.500037,31.436501 z"
     style="fill:#404040;"/>
  </a>
 </g>
</svg>

<style type='text/css'>
<![CDATA[
[data-mouse-over-selected='false'] { opacity: 0.7; }
[data-mouse-over-selected='true']  { opacity: 1.0; }
]]>
</style>
<script type="application/ecmascript"><![CDATA[
document.addEventListener('DOMContentLoaded', (event) => {
  highlightEdges();
  highlightAdjacentNodes();
});
]]></script>
</svg>
