<?xml version="1.0" encoding="UTF-8" standalone="no"?>
<!DOCTYPE svg PUBLIC "-//W3C//DTD SVG 1.1//EN"
 "http://www.w3.org/Graphics/SVG/1.1/DTD/svg11.dtd">
<!-- Generated by graphviz version 2.43.0 (0)
 -->
<!-- Title: Arcane::Accelerator::Hip::HipMemoryAllocatorBase Pages: 1 -->
<svg width="401pt" height="917pt"
 viewBox="0.00 0.00 400.50 917.00" xmlns="http://www.w3.org/2000/svg" xmlns:xlink="http://www.w3.org/1999/xlink">
<g id="graph0" class="graph" transform="scale(1 1) rotate(0) translate(4 913)">
<title>Arcane::Accelerator::Hip::HipMemoryAllocatorBase</title>
<!-- Node1 -->
<g id="Node000001" class="node">
<title>Node1</title>
<g id="a_Node000001"><a xlink:title="Classe de base d&#39;un allocateur spécifique pour &#39;Hip&#39;.">
<polygon fill="#999999" stroke="transparent" points="172,-150 8,-150 8,0 172,0 172,-150"/>
<text text-anchor="start" x="13" y="-138" font-family="Helvetica,sans-Serif" font-size="10.00">Arcane::Accelerator</text>
<text text-anchor="start" x="13" y="-127" font-family="Helvetica,sans-Serif" font-size="10.00">::Hip::HipMemoryAllocatorBase</text>
<text text-anchor="start" x="88" y="-112" font-family="Helvetica,sans-Serif" font-size="10.00"> </text>
<text text-anchor="start" x="14.5" y="-97" font-family="Helvetica,sans-Serif" font-size="10.00">+</text>
<text text-anchor="start" x="30" y="-97" font-family="Helvetica,sans-Serif" font-size="10.00">HipMemoryAllocatorBase()</text>
<text text-anchor="start" x="14.5" y="-82" font-family="Helvetica,sans-Serif" font-size="10.00">+</text>
<text text-anchor="start" x="30" y="-82" font-family="Helvetica,sans-Serif" font-size="10.00">hasRealloc()</text>
<text text-anchor="start" x="14.5" y="-67" font-family="Helvetica,sans-Serif" font-size="10.00">+</text>
<text text-anchor="start" x="30" y="-67" font-family="Helvetica,sans-Serif" font-size="10.00">allocate()</text>
<text text-anchor="start" x="14.5" y="-52" font-family="Helvetica,sans-Serif" font-size="10.00">+</text>
<text text-anchor="start" x="30" y="-52" font-family="Helvetica,sans-Serif" font-size="10.00">reallocate()</text>
<text text-anchor="start" x="14.5" y="-37" font-family="Helvetica,sans-Serif" font-size="10.00">+</text>
<text text-anchor="start" x="30" y="-37" font-family="Helvetica,sans-Serif" font-size="10.00">deallocate()</text>
<text text-anchor="start" x="14.5" y="-22" font-family="Helvetica,sans-Serif" font-size="10.00">#</text>
<text text-anchor="start" x="30" y="-22" font-family="Helvetica,sans-Serif" font-size="10.00">_allocate()</text>
<text text-anchor="start" x="14.5" y="-7" font-family="Helvetica,sans-Serif" font-size="10.00">#</text>
<text text-anchor="start" x="30" y="-7" font-family="Helvetica,sans-Serif" font-size="10.00">_deallocate()</text>
<polygon fill="#666666" stroke="#666666" points="8,-122 8,-122 172,-122 172,-122 8,-122"/>
<polygon fill="#666666" stroke="#666666" points="8,-107 8,-107 172,-107 172,-107 8,-107"/>
<polygon fill="none" stroke="#666666" points="8,0 8,-150 172,-150 172,0 8,0"/>
</a>
</g>
</g>
<!-- Node2 -->
<g id="Node000002" class="node">
<title>Node2</title>
<g id="a_Node000002"><a xlink:href="../../d9/db0/classArcane_1_1AlignedMemoryAllocator.html" target="_top" xlink:title="Allocateur mémoire avec alignement mémoire spécifique.">
<polygon fill="white" stroke="transparent" points="180,-401 0,-401 0,-187 180,-187 180,-401"/>
<text text-anchor="start" x="5" y="-389" font-family="Helvetica,sans-Serif" font-size="10.00">Arccore::AlignedMemoryAllocator3</text>
<text text-anchor="start" x="14" y="-374" font-family="Helvetica,sans-Serif" font-size="10.00">&#45;</text>
<text text-anchor="start" x="32" y="-374" font-family="Helvetica,sans-Serif" font-size="10.00">m_alignment</text>
<text text-anchor="start" x="11.5" y="-359" font-family="Helvetica,sans-Serif" font-size="10.00">+</text>
<text text-anchor="start" x="32" y="-359" font-family="Helvetica,sans-Serif" font-size="10.00">hasRealloc()</text>
<text text-anchor="start" x="11.5" y="-344" font-family="Helvetica,sans-Serif" font-size="10.00">+</text>
<text text-anchor="start" x="32" y="-344" font-family="Helvetica,sans-Serif" font-size="10.00">allocate()</text>
<text text-anchor="start" x="11.5" y="-329" font-family="Helvetica,sans-Serif" font-size="10.00">+</text>
<text text-anchor="start" x="32" y="-329" font-family="Helvetica,sans-Serif" font-size="10.00">reallocate()</text>
<text text-anchor="start" x="11.5" y="-314" font-family="Helvetica,sans-Serif" font-size="10.00">+</text>
<text text-anchor="start" x="32" y="-314" font-family="Helvetica,sans-Serif" font-size="10.00">deallocate()</text>
<text text-anchor="start" x="11.5" y="-299" font-family="Helvetica,sans-Serif" font-size="10.00">+</text>
<text text-anchor="start" x="32" y="-299" font-family="Helvetica,sans-Serif" font-size="10.00">adjustedCapacity()</text>
<text text-anchor="start" x="11.5" y="-284" font-family="Helvetica,sans-Serif" font-size="10.00">+</text>
<text text-anchor="start" x="32" y="-284" font-family="Helvetica,sans-Serif" font-size="10.00">guaranteedAlignment()</text>
<text text-anchor="start" x="11.5" y="-269" font-family="Helvetica,sans-Serif" font-size="10.00">+</text>
<text text-anchor="start" x="32" y="-269" font-family="Helvetica,sans-Serif" font-size="10.00">memoryResource()</text>
<text text-anchor="start" x="11.5" y="-254" font-family="Helvetica,sans-Serif" font-size="10.00">+</text>
<text text-anchor="start" x="32" y="-254" font-family="Helvetica,sans-Serif" font-size="10.00">simdAlignment()</text>
<text text-anchor="start" x="11.5" y="-239" font-family="Helvetica,sans-Serif" font-size="10.00">+</text>
<text text-anchor="start" x="32" y="-239" font-family="Helvetica,sans-Serif" font-size="10.00">cacheLineAlignment()</text>
<text text-anchor="start" x="11.5" y="-224" font-family="Helvetica,sans-Serif" font-size="10.00">+</text>
<text text-anchor="start" x="32" y="-224" font-family="Helvetica,sans-Serif" font-size="10.00">Simd()</text>
<text text-anchor="start" x="11.5" y="-209" font-family="Helvetica,sans-Serif" font-size="10.00">+</text>
<text text-anchor="start" x="32" y="-209" font-family="Helvetica,sans-Serif" font-size="10.00">CacheLine()</text>
<text text-anchor="start" x="11.5" y="-194" font-family="Helvetica,sans-Serif" font-size="10.00">#</text>
<text text-anchor="start" x="32" y="-194" font-family="Helvetica,sans-Serif" font-size="10.00">AlignedMemoryAllocator()</text>
<polygon fill="#666666" stroke="#666666" points="0,-384 0,-384 180,-384 180,-384 0,-384"/>
<polygon fill="#666666" stroke="#666666" points="0,-369 0,-369 30,-369 30,-369 0,-369"/>
<polygon fill="#666666" stroke="#666666" points="30,-369 30,-369 180,-369 180,-369 30,-369"/>
<polygon fill="none" stroke="#666666" points="0,-187 0,-401 180,-401 180,-187 0,-187"/>
</a>
</g>
</g>
<!-- Node2&#45;&gt;Node1 -->
<g id="edge1_Node000001_Node000002" class="edge">
<title>Node2&#45;&gt;Node1</title>
<g id="a_edge1_Node000001_Node000002"><a xlink:title=" ">
<path fill="none" stroke="#63b8ff" d="M90,-176.6C90,-167.65 90,-158.77 90,-150.2"/>
<polygon fill="none" stroke="#63b8ff" points="86.5,-176.72 90,-186.72 93.5,-176.72 86.5,-176.72"/>
</a>
</g>
</g>
<!-- Node3 -->
<g id="Node000003" class="node">
<title>Node3</title>
<g id="a_Node000003"><a xlink:href="../../dc/d3c/classArcane_1_1IMemoryAllocator.html" target="_top" xlink:title="Interface d&#39;un allocateur pour la mémoire.">
<polygon fill="white" stroke="transparent" points="167,-909 5,-909 5,-710 167,-710 167,-909"/>
<text text-anchor="start" x="22.5" y="-896.5" font-family="Helvetica,sans-Serif" font-size="10.00">Arcane::IMemoryAllocator</text>
<text text-anchor="start" x="84" y="-881.5" font-family="Helvetica,sans-Serif" font-size="10.00"> </text>
<text text-anchor="start" x="9" y="-866.5" font-family="Helvetica,sans-Serif" font-size="10.00">+</text>
<text text-anchor="start" x="22" y="-866.5" font-family="Helvetica,sans-Serif" font-size="10.00">~IMemoryAllocator()</text>
<text text-anchor="start" x="9" y="-851.5" font-family="Helvetica,sans-Serif" font-size="10.00">+</text>
<text text-anchor="start" x="22" y="-851.5" font-family="Helvetica,sans-Serif" font-size="10.00">hasRealloc()</text>
<text text-anchor="start" x="9" y="-836.5" font-family="Helvetica,sans-Serif" font-size="10.00">+</text>
<text text-anchor="start" x="22" y="-836.5" font-family="Helvetica,sans-Serif" font-size="10.00">allocate()</text>
<text text-anchor="start" x="9" y="-821.5" font-family="Helvetica,sans-Serif" font-size="10.00">+</text>
<text text-anchor="start" x="22" y="-821.5" font-family="Helvetica,sans-Serif" font-size="10.00">reallocate()</text>
<text text-anchor="start" x="9" y="-806.5" font-family="Helvetica,sans-Serif" font-size="10.00">+</text>
<text text-anchor="start" x="22" y="-806.5" font-family="Helvetica,sans-Serif" font-size="10.00">deallocate()</text>
<text text-anchor="start" x="9" y="-791.5" font-family="Helvetica,sans-Serif" font-size="10.00">+</text>
<text text-anchor="start" x="22" y="-791.5" font-family="Helvetica,sans-Serif" font-size="10.00">adjustedCapacity()</text>
<text text-anchor="start" x="9" y="-776.5" font-family="Helvetica,sans-Serif" font-size="10.00">+</text>
<text text-anchor="start" x="22" y="-776.5" font-family="Helvetica,sans-Serif" font-size="10.00">guaranteedAlignment()</text>
<text text-anchor="start" x="9" y="-761.5" font-family="Helvetica,sans-Serif" font-size="10.00">+</text>
<text text-anchor="start" x="22" y="-761.5" font-family="Helvetica,sans-Serif" font-size="10.00">guarantedAlignment()</text>
<text text-anchor="start" x="9" y="-746.5" font-family="Helvetica,sans-Serif" font-size="10.00">+</text>
<text text-anchor="start" x="22" y="-746.5" font-family="Helvetica,sans-Serif" font-size="10.00">notifyMemoryArgsChanged()</text>
<text text-anchor="start" x="9" y="-731.5" font-family="Helvetica,sans-Serif" font-size="10.00">+</text>
<text text-anchor="start" x="22" y="-731.5" font-family="Helvetica,sans-Serif" font-size="10.00">copyMemory()</text>
<text text-anchor="start" x="9" y="-716.5" font-family="Helvetica,sans-Serif" font-size="10.00">+</text>
<text text-anchor="start" x="22" y="-716.5" font-family="Helvetica,sans-Serif" font-size="10.00">memoryResource()</text>
<polygon fill="#666666" stroke="#666666" points="5,-891.5 5,-891.5 167,-891.5 167,-891.5 5,-891.5"/>
<polygon fill="#666666" stroke="#666666" points="5,-876.5 5,-876.5 167,-876.5 167,-876.5 5,-876.5"/>
<polygon fill="none" stroke="#666666" points="5,-710 5,-909 167,-909 167,-710 5,-710"/>
</a>
</g>
</g>
<!-- Node3&#45;&gt;Node2 -->
<g id="edge2_Node000002_Node000003" class="edge">
<title>Node3&#45;&gt;Node2</title>
<g id="a_edge2_Node000002_Node000003"><a xlink:title=" ">
<path fill="none" stroke="#63b8ff" d="M86.85,-699.79C87.53,-611.83 88.49,-488.67 89.17,-401.35"/>
<polygon fill="none" stroke="#63b8ff" points="83.35,-699.77 86.77,-709.8 90.35,-699.82 83.35,-699.77"/>
</a>
</g>
</g>
<!-- Node4 -->
<g id="Node000004" class="node">
<title>Node4</title>
<g id="a_Node000004"><a xlink:href="../../d9/db0/classArcane_1_1AlignedMemoryAllocator.html" target="_top" xlink:title="Allocateur mémoire avec alignement mémoire spécifique.">
<polygon fill="white" stroke="transparent" points="273.5,-673 102.5,-673 102.5,-459 273.5,-459 273.5,-673"/>
<text text-anchor="start" x="108" y="-661" font-family="Helvetica,sans-Serif" font-size="10.00">Arcane::AlignedMemoryAllocator</text>
<text text-anchor="start" x="114.5" y="-646" font-family="Helvetica,sans-Serif" font-size="10.00">&#45;</text>
<text text-anchor="start" x="130" y="-646" font-family="Helvetica,sans-Serif" font-size="10.00">m_alignment</text>
<text text-anchor="start" x="112" y="-631" font-family="Helvetica,sans-Serif" font-size="10.00">+</text>
<text text-anchor="start" x="130" y="-631" font-family="Helvetica,sans-Serif" font-size="10.00">hasRealloc()</text>
<text text-anchor="start" x="112" y="-616" font-family="Helvetica,sans-Serif" font-size="10.00">+</text>
<text text-anchor="start" x="130" y="-616" font-family="Helvetica,sans-Serif" font-size="10.00">allocate()</text>
<text text-anchor="start" x="112" y="-601" font-family="Helvetica,sans-Serif" font-size="10.00">+</text>
<text text-anchor="start" x="130" y="-601" font-family="Helvetica,sans-Serif" font-size="10.00">reallocate()</text>
<text text-anchor="start" x="112" y="-586" font-family="Helvetica,sans-Serif" font-size="10.00">+</text>
<text text-anchor="start" x="130" y="-586" font-family="Helvetica,sans-Serif" font-size="10.00">deallocate()</text>
<text text-anchor="start" x="112" y="-571" font-family="Helvetica,sans-Serif" font-size="10.00">+</text>
<text text-anchor="start" x="130" y="-571" font-family="Helvetica,sans-Serif" font-size="10.00">adjustedCapacity()</text>
<text text-anchor="start" x="112" y="-556" font-family="Helvetica,sans-Serif" font-size="10.00">+</text>
<text text-anchor="start" x="130" y="-556" font-family="Helvetica,sans-Serif" font-size="10.00">guaranteedAlignment()</text>
<text text-anchor="start" x="112" y="-541" font-family="Helvetica,sans-Serif" font-size="10.00">+</text>
<text text-anchor="start" x="130" y="-541" font-family="Helvetica,sans-Serif" font-size="10.00">memoryResource()</text>
<text text-anchor="start" x="112" y="-526" font-family="Helvetica,sans-Serif" font-size="10.00">+</text>
<text text-anchor="start" x="130" y="-526" font-family="Helvetica,sans-Serif" font-size="10.00">simdAlignment()</text>
<text text-anchor="start" x="112" y="-511" font-family="Helvetica,sans-Serif" font-size="10.00">+</text>
<text text-anchor="start" x="130" y="-511" font-family="Helvetica,sans-Serif" font-size="10.00">cacheLineAlignment()</text>
<text text-anchor="start" x="112" y="-496" font-family="Helvetica,sans-Serif" font-size="10.00">+</text>
<text text-anchor="start" x="130" y="-496" font-family="Helvetica,sans-Serif" font-size="10.00">Simd()</text>
<text text-anchor="start" x="112" y="-481" font-family="Helvetica,sans-Serif" font-size="10.00">+</text>
<text text-anchor="start" x="130" y="-481" font-family="Helvetica,sans-Serif" font-size="10.00">CacheLine()</text>
<text text-anchor="start" x="112" y="-466" font-family="Helvetica,sans-Serif" font-size="10.00">#</text>
<text text-anchor="start" x="130" y="-466" font-family="Helvetica,sans-Serif" font-size="10.00">AlignedMemoryAllocator()</text>
<polygon fill="#666666" stroke="#666666" points="103,-656 103,-656 274,-656 274,-656 103,-656"/>
<polygon fill="#666666" stroke="#666666" points="103,-641 103,-641 128,-641 128,-641 103,-641"/>
<polygon fill="#666666" stroke="#666666" points="128,-641 128,-641 274,-641 274,-641 128,-641"/>
<polygon fill="none" stroke="#666666" points="102.5,-459 102.5,-673 273.5,-673 273.5,-459 102.5,-459"/>
</a>
</g>
</g>
<!-- Node3&#45;&gt;Node4 -->
<g id="edge4_Node000004_Node000003" class="edge">
<title>Node3&#45;&gt;Node4</title>
<g id="a_edge4_Node000004_Node000003"><a xlink:title=" ">
<path fill="none" stroke="#63b8ff" d="M131.62,-700.49C135.46,-691.39 139.34,-682.2 143.18,-673.12"/>
<polygon fill="none" stroke="#63b8ff" points="128.3,-699.35 127.63,-709.92 134.75,-702.07 128.3,-699.35"/>
</a>
</g>
</g>
<!-- Node4&#45;&gt;Node2 -->
<g id="edge3_Node000002_Node000004" class="edge">
<title>Node4&#45;&gt;Node2</title>
<g id="a_edge3_Node000002_Node000004"><a xlink:title=" ">
<path fill="none" stroke="#63b8ff" d="M149.41,-458.68C143.95,-443.62 138.3,-428.07 132.76,-412.82"/>
<polygon fill="none" stroke="#63b8ff" points="132.65,-412.51 126.84,-408.23 128.56,-401.23 134.36,-405.5 132.65,-412.51"/>
</a>
</g>
<text text-anchor="middle" x="191.5" y="-433" font-family="Helvetica,sans-Serif" font-size="10.00" fill="grey"> &#45;CacheLineAllocator</text>
<text text-anchor="middle" x="191.5" y="-422" font-family="Helvetica,sans-Serif" font-size="10.00" fill="grey">&#45;SimdAllocator</text>
</g>
<!-- Node4&#45;&gt;Node4 -->
<g id="edge5_Node000004_Node000004" class="edge">
<title>Node4&#45;&gt;Node4</title>
<g id="a_edge5_Node000004_Node000004"><a xlink:title=" ">
<path fill="none" stroke="#63b8ff" d="M273.66,-586.25C284.42,-582.68 291.5,-575.93 291.5,-566 291.5,-559.95 288.87,-555.08 284.38,-551.39"/>
<polygon fill="none" stroke="#63b8ff" points="284.28,-551.34 277.11,-552.09 273.66,-545.75 280.84,-545.01 284.28,-551.34"/>
</a>
</g>
<text text-anchor="middle" x="342" y="-569" font-family="Helvetica,sans-Serif" font-size="10.00" fill="grey"> &#45;CacheLineAllocator</text>
<text text-anchor="middle" x="342" y="-558" font-family="Helvetica,sans-Serif" font-size="10.00" fill="grey">&#45;SimdAllocator</text>
</g>
</g>
</svg>
