<?xml version="1.0" encoding="UTF-8" standalone="no"?>
<!DOCTYPE svg PUBLIC "-//W3C//DTD SVG 1.1//EN"
 "http://www.w3.org/Graphics/SVG/1.1/DTD/svg11.dtd">
<!-- Generated by graphviz version 2.43.0 (0)
 -->
<!-- Title: Arcane::IMainFactory::createLoadBalanceMng Pages: 1 -->
<svg width="300pt" height="56pt"
 viewBox="0.00 0.00 300.00 56.00" xmlns="http://www.w3.org/2000/svg" xmlns:xlink="http://www.w3.org/1999/xlink">
<g id="graph0" class="graph" transform="scale(1 1) rotate(0) translate(4 52)">
<title>Arcane::IMainFactory::createLoadBalanceMng</title>
<!-- Node1 -->
<g id="Node000001" class="node">
<title>Node1</title>
<g id="a_Node000001"><a xlink:title="Cree un gestionnaire de description pour l&#39;equilibrage.">
<polygon fill="#999999" stroke="#666666" points="292,-30 155,-30 155,0 292,0 292,-30"/>
<text text-anchor="start" x="163" y="-18" font-family="Helvetica,sans-Serif" font-size="10.00">Arcane::IMainFactory</text>
<text text-anchor="middle" x="223.5" y="-7" font-family="Helvetica,sans-Serif" font-size="10.00">::createLoadBalanceMng</text>
</a>
</g>
</g>
<!-- Node1&#45;&gt;Node1 -->
<g id="edge1_Node000001_Node000001" class="edge">
<title>Node1&#45;&gt;Node1</title>
<g id="a_edge1_Node000001_Node000001"><a xlink:title=" ">
<path fill="none" stroke="#63b8ff" d="M252.21,-40.6C248.28,-44.97 238.71,-48 223.5,-48 197.88,-48 188.27,-39.41 194.67,-30.28"/>
<polygon fill="#63b8ff" stroke="#63b8ff" points="255.71,-40.32 252.33,-30.28 248.71,-40.23 255.71,-40.32"/>
</a>
</g>
</g>
<!-- Node2 -->
<g id="Node000002" class="node">
<title>Node2</title>
<g id="a_Node000002"><a xlink:href="../../d5/d05/classArcane_1_1SubDomain.html#ab076dce1f22d598eb135385b8795e95d" target="_top" xlink:title="Initialise l&#39;instance. L&#39;instance n&#39;est pas utilisable tant que cette méthode n&#39;a pas été appelée.">
<polygon fill="white" stroke="#666666" points="119,-30 0,-30 0,0 119,0 119,-30"/>
<text text-anchor="start" x="8" y="-18" font-family="Helvetica,sans-Serif" font-size="10.00">Arcane::SubDomain::</text>
<text text-anchor="middle" x="59.5" y="-7" font-family="Helvetica,sans-Serif" font-size="10.00">initialize</text>
</a>
</g>
</g>
<!-- Node1&#45;&gt;Node2 -->
<g id="edge2_Node000001_Node000002" class="edge">
<title>Node1&#45;&gt;Node2</title>
<g id="a_edge2_Node000001_Node000002"><a xlink:title=" ">
<path fill="none" stroke="#63b8ff" d="M144.72,-15C136.15,-15 127.53,-15 119.24,-15"/>
<polygon fill="#63b8ff" stroke="#63b8ff" points="144.74,-18.5 154.74,-15 144.74,-11.5 144.74,-18.5"/>
</a>
</g>
</g>
</g>
</svg>
