<?xml version="1.0" encoding="UTF-8" standalone="no"?>
<!DOCTYPE svg PUBLIC "-//W3C//DTD SVG 1.1//EN"
 "http://www.w3.org/Graphics/SVG/1.1/DTD/svg11.dtd">
<!-- Generated by graphviz version 2.43.0 (0)
 -->
<!-- Title: Arcane::Array2DataT&lt; DataType &gt; Pages: 1 -->
<svg width="343pt" height="911pt"
 viewBox="0.00 0.00 342.50 911.00" xmlns="http://www.w3.org/2000/svg" xmlns:xlink="http://www.w3.org/1999/xlink">
<g id="graph0" class="graph" transform="scale(1 1) rotate(0) translate(4 907)">
<title>Arcane::Array2DataT&lt; DataType &gt;</title>
<!-- Node1 -->
<g id="Node000001" class="node">
<title>Node1</title>
<g id="a_Node000001"><a xlink:title="Donnée tableau bi&#45;dimensionnel d&#39;un type DataType.">
<polygon fill="#999999" stroke="transparent" points="253.5,-341 68.5,-341 68.5,0 253.5,0 253.5,-341"/>
<text text-anchor="start" x="110.5" y="-328.5" font-family="Helvetica,sans-Serif" font-size="10.00">Arcane::Array2DataT</text>
<text text-anchor="start" x="127" y="-317.5" font-family="Helvetica,sans-Serif" font-size="10.00">&lt; DataType &gt;</text>
<text text-anchor="start" x="75.5" y="-302.5" font-family="Helvetica,sans-Serif" font-size="10.00">&#45;</text>
<text text-anchor="start" x="86" y="-302.5" font-family="Helvetica,sans-Serif" font-size="10.00">m_value</text>
<text text-anchor="start" x="75.5" y="-287.5" font-family="Helvetica,sans-Serif" font-size="10.00">&#45;</text>
<text text-anchor="start" x="86" y="-287.5" font-family="Helvetica,sans-Serif" font-size="10.00">m_trace</text>
<text text-anchor="start" x="75.5" y="-272.5" font-family="Helvetica,sans-Serif" font-size="10.00">&#45;</text>
<text text-anchor="start" x="86" y="-272.5" font-family="Helvetica,sans-Serif" font-size="10.00">m_internal</text>
<text text-anchor="start" x="75.5" y="-257.5" font-family="Helvetica,sans-Serif" font-size="10.00">&#45;</text>
<text text-anchor="start" x="86" y="-257.5" font-family="Helvetica,sans-Serif" font-size="10.00">m_shape</text>
<text text-anchor="start" x="75.5" y="-242.5" font-family="Helvetica,sans-Serif" font-size="10.00">&#45;</text>
<text text-anchor="start" x="86" y="-242.5" font-family="Helvetica,sans-Serif" font-size="10.00">m_allocation_info</text>
<text text-anchor="start" x="73" y="-227.5" font-family="Helvetica,sans-Serif" font-size="10.00">+</text>
<text text-anchor="start" x="86" y="-227.5" font-family="Helvetica,sans-Serif" font-size="10.00">Array2DataT()</text>
<text text-anchor="start" x="73" y="-212.5" font-family="Helvetica,sans-Serif" font-size="10.00">+</text>
<text text-anchor="start" x="86" y="-212.5" font-family="Helvetica,sans-Serif" font-size="10.00">Array2DataT()</text>
<text text-anchor="start" x="73" y="-197.5" font-family="Helvetica,sans-Serif" font-size="10.00">+</text>
<text text-anchor="start" x="86" y="-197.5" font-family="Helvetica,sans-Serif" font-size="10.00">Array2DataT()</text>
<text text-anchor="start" x="73" y="-182.5" font-family="Helvetica,sans-Serif" font-size="10.00">+</text>
<text text-anchor="start" x="86" y="-182.5" font-family="Helvetica,sans-Serif" font-size="10.00">~Array2DataT()</text>
<text text-anchor="start" x="73" y="-167.5" font-family="Helvetica,sans-Serif" font-size="10.00">+</text>
<text text-anchor="start" x="86" y="-167.5" font-family="Helvetica,sans-Serif" font-size="10.00">dimension()</text>
<text text-anchor="start" x="73" y="-152.5" font-family="Helvetica,sans-Serif" font-size="10.00">+</text>
<text text-anchor="start" x="86" y="-152.5" font-family="Helvetica,sans-Serif" font-size="10.00">multiTag()</text>
<text text-anchor="start" x="73" y="-137.5" font-family="Helvetica,sans-Serif" font-size="10.00">+</text>
<text text-anchor="start" x="86" y="-137.5" font-family="Helvetica,sans-Serif" font-size="10.00">dataType()</text>
<text text-anchor="start" x="73" y="-122.5" font-family="Helvetica,sans-Serif" font-size="10.00">+</text>
<text text-anchor="start" x="86" y="-122.5" font-family="Helvetica,sans-Serif" font-size="10.00">serialize()</text>
<text text-anchor="start" x="73" y="-107.5" font-family="Helvetica,sans-Serif" font-size="10.00">+</text>
<text text-anchor="start" x="86" y="-107.5" font-family="Helvetica,sans-Serif" font-size="10.00">serialize()</text>
<text text-anchor="start" x="73" y="-92.5" font-family="Helvetica,sans-Serif" font-size="10.00">+</text>
<text text-anchor="start" x="86" y="-92.5" font-family="Helvetica,sans-Serif" font-size="10.00">value()</text>
<text text-anchor="start" x="86" y="-77.5" font-family="Helvetica,sans-Serif" font-size="10.00">et 35 de plus...</text>
<text text-anchor="start" x="73" y="-62.5" font-family="Helvetica,sans-Serif" font-size="10.00">+</text>
<text text-anchor="start" x="86" y="-62.5" font-family="Helvetica,sans-Serif" font-size="10.00">staticStorageTypeInfo()</text>
<text text-anchor="start" x="75.5" y="-47.5" font-family="Helvetica,sans-Serif" font-size="10.00">&#45;</text>
<text text-anchor="start" x="86" y="-47.5" font-family="Helvetica,sans-Serif" font-size="10.00">ARCCORE_DEFINE_REFERENCE</text>
<text text-anchor="start" x="86" y="-36.5" font-family="Helvetica,sans-Serif" font-size="10.00">_COUNTED_INCLASS_METHODS()</text>
<text text-anchor="start" x="75.5" y="-21.5" font-family="Helvetica,sans-Serif" font-size="10.00">&#45;</text>
<text text-anchor="start" x="86" y="-21.5" font-family="Helvetica,sans-Serif" font-size="10.00">_cloneTrue()</text>
<text text-anchor="start" x="75.5" y="-6.5" font-family="Helvetica,sans-Serif" font-size="10.00">&#45;</text>
<text text-anchor="start" x="86" y="-6.5" font-family="Helvetica,sans-Serif" font-size="10.00">_cloneTrueEmpty()</text>
<polygon fill="#666666" stroke="#666666" points="69,-312.5 69,-312.5 254,-312.5 254,-312.5 69,-312.5"/>
<polygon fill="#666666" stroke="#666666" points="69,-237.5 69,-237.5 84,-237.5 84,-237.5 69,-237.5"/>
<polygon fill="#666666" stroke="#666666" points="84,-237.5 84,-237.5 254,-237.5 254,-237.5 84,-237.5"/>
<polygon fill="none" stroke="#666666" points="68.5,0 68.5,-341 253.5,-341 253.5,0 68.5,0"/>
</a>
</g>
</g>
<!-- Node2 -->
<g id="Node000002" class="node">
<title>Node2</title>
<g id="a_Node000002"><a xlink:href="../../d8/dba/classArcane_1_1ReferenceCounterImpl.html" target="_top" xlink:title="Implémentation thread&#45;safe d&#39;un compteur de référence.">
<polygon fill="white" stroke="transparent" points="162,-551.5 0,-551.5 0,-382.5 162,-382.5 162,-551.5"/>
<text text-anchor="start" x="6" y="-539" font-family="Helvetica,sans-Serif" font-size="10.00">Arcane::ReferenceCounterImpl</text>
<text text-anchor="start" x="6.5" y="-524" font-family="Helvetica,sans-Serif" font-size="10.00">&#45;</text>
<text text-anchor="start" x="17" y="-524" font-family="Helvetica,sans-Serif" font-size="10.00">m_nb_ref</text>
<text text-anchor="start" x="6.5" y="-509" font-family="Helvetica,sans-Serif" font-size="10.00">&#45;</text>
<text text-anchor="start" x="17" y="-509" font-family="Helvetica,sans-Serif" font-size="10.00">m_external_deleter</text>
<text text-anchor="start" x="4" y="-494" font-family="Helvetica,sans-Serif" font-size="10.00">+</text>
<text text-anchor="start" x="17" y="-494" font-family="Helvetica,sans-Serif" font-size="10.00">~ReferenceCounterImpl()</text>
<text text-anchor="start" x="4" y="-479" font-family="Helvetica,sans-Serif" font-size="10.00">+</text>
<text text-anchor="start" x="17" y="-479" font-family="Helvetica,sans-Serif" font-size="10.00">addReference()</text>
<text text-anchor="start" x="4" y="-464" font-family="Helvetica,sans-Serif" font-size="10.00">+</text>
<text text-anchor="start" x="17" y="-464" font-family="Helvetica,sans-Serif" font-size="10.00">removeReference()</text>
<text text-anchor="start" x="4" y="-449" font-family="Helvetica,sans-Serif" font-size="10.00">+</text>
<text text-anchor="start" x="17" y="-449" font-family="Helvetica,sans-Serif" font-size="10.00">_internalAddReference()</text>
<text text-anchor="start" x="4" y="-434" font-family="Helvetica,sans-Serif" font-size="10.00">+</text>
<text text-anchor="start" x="17" y="-434" font-family="Helvetica,sans-Serif" font-size="10.00">_internalRemoveReference()</text>
<text text-anchor="start" x="6.5" y="-419" font-family="Helvetica,sans-Serif" font-size="10.00">&#45;</text>
<text text-anchor="start" x="17" y="-419" font-family="Helvetica,sans-Serif" font-size="10.00">_setExternalDeleter()</text>
<text text-anchor="start" x="6.5" y="-404" font-family="Helvetica,sans-Serif" font-size="10.00">&#45;</text>
<text text-anchor="start" x="17" y="-404" font-family="Helvetica,sans-Serif" font-size="10.00">_externalDeleter()</text>
<text text-anchor="start" x="6.5" y="-389" font-family="Helvetica,sans-Serif" font-size="10.00">&#45;</text>
<text text-anchor="start" x="17" y="-389" font-family="Helvetica,sans-Serif" font-size="10.00">_destroyThisReference()</text>
<polygon fill="#666666" stroke="#666666" points="0,-534 0,-534 162,-534 162,-534 0,-534"/>
<polygon fill="#666666" stroke="#666666" points="0,-504 0,-504 15,-504 15,-504 0,-504"/>
<polygon fill="#666666" stroke="#666666" points="15,-504 15,-504 162,-504 162,-504 15,-504"/>
<polygon fill="none" stroke="#666666" points="0,-382.5 0,-551.5 162,-551.5 162,-382.5 0,-382.5"/>
</a>
</g>
</g>
<!-- Node2&#45;&gt;Node1 -->
<g id="edge1_Node000001_Node000002" class="edge">
<title>Node2&#45;&gt;Node1</title>
<g id="a_edge1_Node000001_Node000002"><a xlink:title=" ">
<path fill="none" stroke="#63b8ff" d="M106.33,-372.74C109.1,-362.54 111.99,-351.93 114.91,-341.17"/>
<polygon fill="none" stroke="#63b8ff" points="102.95,-371.83 103.71,-382.4 109.71,-373.66 102.95,-371.83"/>
</a>
</g>
</g>
<!-- Node3 -->
<g id="Node000003" class="node">
<title>Node3</title>
<g id="a_Node000003"><a xlink:href="../../dc/d51/classArcane_1_1IArray2DataT.html" target="_top" xlink:title="Interface d&#39;une donnée tableau bi&#45;dimensionnel d&#39;un type T.">
<polygon fill="white" stroke="transparent" points="304,-557 180,-557 180,-377 304,-377 304,-557"/>
<text text-anchor="start" x="189.5" y="-545" font-family="Helvetica,sans-Serif" font-size="10.00">Arcane::IArray2DataT</text>
<text text-anchor="start" x="207.5" y="-534" font-family="Helvetica,sans-Serif" font-size="10.00">&lt; DataType &gt;</text>
<text text-anchor="start" x="240" y="-519" font-family="Helvetica,sans-Serif" font-size="10.00"> </text>
<text text-anchor="start" x="184" y="-504" font-family="Helvetica,sans-Serif" font-size="10.00">+</text>
<text text-anchor="start" x="197" y="-504" font-family="Helvetica,sans-Serif" font-size="10.00">value()</text>
<text text-anchor="start" x="184" y="-489" font-family="Helvetica,sans-Serif" font-size="10.00">+</text>
<text text-anchor="start" x="197" y="-489" font-family="Helvetica,sans-Serif" font-size="10.00">value()</text>
<text text-anchor="start" x="184" y="-474" font-family="Helvetica,sans-Serif" font-size="10.00">+</text>
<text text-anchor="start" x="197" y="-474" font-family="Helvetica,sans-Serif" font-size="10.00">view()</text>
<text text-anchor="start" x="184" y="-459" font-family="Helvetica,sans-Serif" font-size="10.00">+</text>
<text text-anchor="start" x="197" y="-459" font-family="Helvetica,sans-Serif" font-size="10.00">view()</text>
<text text-anchor="start" x="184" y="-444" font-family="Helvetica,sans-Serif" font-size="10.00">+</text>
<text text-anchor="start" x="197" y="-444" font-family="Helvetica,sans-Serif" font-size="10.00">cloneTrue()</text>
<text text-anchor="start" x="184" y="-429" font-family="Helvetica,sans-Serif" font-size="10.00">+</text>
<text text-anchor="start" x="197" y="-429" font-family="Helvetica,sans-Serif" font-size="10.00">cloneTrueEmpty()</text>
<text text-anchor="start" x="184" y="-414" font-family="Helvetica,sans-Serif" font-size="10.00">+</text>
<text text-anchor="start" x="197" y="-414" font-family="Helvetica,sans-Serif" font-size="10.00">cloneTrueRef()</text>
<text text-anchor="start" x="184" y="-399" font-family="Helvetica,sans-Serif" font-size="10.00">+</text>
<text text-anchor="start" x="197" y="-399" font-family="Helvetica,sans-Serif" font-size="10.00">cloneTrueEmptyRef()</text>
<text text-anchor="start" x="184" y="-384" font-family="Helvetica,sans-Serif" font-size="10.00">+</text>
<text text-anchor="start" x="197" y="-384" font-family="Helvetica,sans-Serif" font-size="10.00">_internal()</text>
<polygon fill="#666666" stroke="#666666" points="180,-529 180,-529 304,-529 304,-529 180,-529"/>
<polygon fill="#666666" stroke="#666666" points="180,-514 180,-514 304,-514 304,-514 180,-514"/>
<polygon fill="none" stroke="#666666" points="180,-377 180,-557 304,-557 304,-377 180,-377"/>
</a>
</g>
</g>
<!-- Node3&#45;&gt;Node1 -->
<g id="edge2_Node000001_Node000003" class="edge">
<title>Node3&#45;&gt;Node1</title>
<g id="a_edge2_Node000001_Node000003"><a xlink:title=" ">
<path fill="none" stroke="#63b8ff" d="M214.79,-367.07C212.48,-358.66 210.1,-350 207.68,-341.24"/>
<polygon fill="none" stroke="#63b8ff" points="211.45,-368.13 217.48,-376.84 218.2,-366.27 211.45,-368.13"/>
</a>
</g>
</g>
<!-- Node4 -->
<g id="Node000004" class="node">
<title>Node4</title>
<g id="a_Node000004"><a xlink:href="../../dd/dad/classArcane_1_1IArray2Data.html" target="_top" xlink:title="Interface d&#39;une donnée tableau 2D.">
<polygon fill="white" stroke="transparent" points="296.5,-642 187.5,-642 187.5,-593 296.5,-593 296.5,-642"/>
<text text-anchor="start" x="193" y="-629.5" font-family="Helvetica,sans-Serif" font-size="10.00">Arcane::IArray2Data</text>
<text text-anchor="start" x="240.5" y="-614.5" font-family="Helvetica,sans-Serif" font-size="10.00"> </text>
<text text-anchor="start" x="240.5" y="-599.5" font-family="Helvetica,sans-Serif" font-size="10.00"> </text>
<polygon fill="#666666" stroke="#666666" points="188,-624.5 188,-624.5 297,-624.5 297,-624.5 188,-624.5"/>
<polygon fill="#666666" stroke="#666666" points="188,-609.5 188,-609.5 297,-609.5 297,-609.5 188,-609.5"/>
<polygon fill="none" stroke="#666666" points="187.5,-593 187.5,-642 296.5,-642 296.5,-593 187.5,-593"/>
</a>
</g>
</g>
<!-- Node4&#45;&gt;Node3 -->
<g id="edge3_Node000003_Node000004" class="edge">
<title>Node4&#45;&gt;Node3</title>
<g id="a_edge3_Node000003_Node000004"><a xlink:title=" ">
<path fill="none" stroke="#63b8ff" d="M242,-582.81C242,-574.92 242,-566.14 242,-557.06"/>
<polygon fill="none" stroke="#63b8ff" points="238.5,-582.97 242,-592.97 245.5,-582.97 238.5,-582.97"/>
</a>
</g>
</g>
<!-- Node5 -->
<g id="Node000005" class="node">
<title>Node5</title>
<g id="a_Node000005"><a xlink:href="../../d1/d15/classArcane_1_1IData.html" target="_top" xlink:title="Interface d&#39;une donnée.">
<polygon fill="white" stroke="transparent" points="334.5,-903 149.5,-903 149.5,-678 334.5,-678 334.5,-903"/>
<text text-anchor="start" x="209" y="-890.5" font-family="Helvetica,sans-Serif" font-size="10.00">Arcane::IData</text>
<text text-anchor="start" x="240.5" y="-875.5" font-family="Helvetica,sans-Serif" font-size="10.00"> </text>
<text text-anchor="start" x="154" y="-860.5" font-family="Helvetica,sans-Serif" font-size="10.00">+</text>
<text text-anchor="start" x="167" y="-860.5" font-family="Helvetica,sans-Serif" font-size="10.00">~IData()</text>
<text text-anchor="start" x="154" y="-845.5" font-family="Helvetica,sans-Serif" font-size="10.00">+</text>
<text text-anchor="start" x="167" y="-845.5" font-family="Helvetica,sans-Serif" font-size="10.00">dataType()</text>
<text text-anchor="start" x="154" y="-830.5" font-family="Helvetica,sans-Serif" font-size="10.00">+</text>
<text text-anchor="start" x="167" y="-830.5" font-family="Helvetica,sans-Serif" font-size="10.00">dimension()</text>
<text text-anchor="start" x="154" y="-815.5" font-family="Helvetica,sans-Serif" font-size="10.00">+</text>
<text text-anchor="start" x="167" y="-815.5" font-family="Helvetica,sans-Serif" font-size="10.00">multiTag()</text>
<text text-anchor="start" x="154" y="-800.5" font-family="Helvetica,sans-Serif" font-size="10.00">+</text>
<text text-anchor="start" x="167" y="-800.5" font-family="Helvetica,sans-Serif" font-size="10.00">clone()</text>
<text text-anchor="start" x="154" y="-785.5" font-family="Helvetica,sans-Serif" font-size="10.00">+</text>
<text text-anchor="start" x="167" y="-785.5" font-family="Helvetica,sans-Serif" font-size="10.00">cloneEmpty()</text>
<text text-anchor="start" x="154" y="-770.5" font-family="Helvetica,sans-Serif" font-size="10.00">+</text>
<text text-anchor="start" x="167" y="-770.5" font-family="Helvetica,sans-Serif" font-size="10.00">cloneRef()</text>
<text text-anchor="start" x="154" y="-755.5" font-family="Helvetica,sans-Serif" font-size="10.00">+</text>
<text text-anchor="start" x="167" y="-755.5" font-family="Helvetica,sans-Serif" font-size="10.00">cloneEmptyRef()</text>
<text text-anchor="start" x="154" y="-740.5" font-family="Helvetica,sans-Serif" font-size="10.00">+</text>
<text text-anchor="start" x="167" y="-740.5" font-family="Helvetica,sans-Serif" font-size="10.00">storageTypeInfo()</text>
<text text-anchor="start" x="154" y="-725.5" font-family="Helvetica,sans-Serif" font-size="10.00">+</text>
<text text-anchor="start" x="167" y="-725.5" font-family="Helvetica,sans-Serif" font-size="10.00">serialize()</text>
<text text-anchor="start" x="167" y="-710.5" font-family="Helvetica,sans-Serif" font-size="10.00">et 20 de plus...</text>
<text text-anchor="start" x="156.5" y="-695.5" font-family="Helvetica,sans-Serif" font-size="10.00">&#45;</text>
<text text-anchor="start" x="167" y="-695.5" font-family="Helvetica,sans-Serif" font-size="10.00">ARCCORE_DECLARE_REFERENCE</text>
<text text-anchor="start" x="167" y="-684.5" font-family="Helvetica,sans-Serif" font-size="10.00">_COUNTED_INCLASS_METHODS()</text>
<polygon fill="#666666" stroke="#666666" points="150,-885.5 150,-885.5 335,-885.5 335,-885.5 150,-885.5"/>
<polygon fill="#666666" stroke="#666666" points="150,-870.5 150,-870.5 335,-870.5 335,-870.5 150,-870.5"/>
<polygon fill="none" stroke="#666666" points="149.5,-678 149.5,-903 334.5,-903 334.5,-678 149.5,-678"/>
</a>
</g>
</g>
<!-- Node5&#45;&gt;Node4 -->
<g id="edge4_Node000004_Node000005" class="edge">
<title>Node5&#45;&gt;Node4</title>
<g id="a_edge4_Node000004_Node000005"><a xlink:title=" ">
<path fill="none" stroke="#63b8ff" d="M242,-667.75C242,-658.3 242,-649.58 242,-642.18"/>
<polygon fill="none" stroke="#63b8ff" points="238.5,-667.83 242,-677.83 245.5,-667.83 238.5,-667.83"/>
</a>
</g>
</g>
</g>
</svg>
