<?xml version="1.0" encoding="UTF-8" standalone="no"?>
<!DOCTYPE svg PUBLIC "-//W3C//DTD SVG 1.1//EN"
 "http://www.w3.org/Graphics/SVG/1.1/DTD/svg11.dtd">
<!-- Generated by graphviz version 2.43.0 (0)
 -->
<!-- Title: internal::Schema&lt; SchemaDocumentType &gt;::Property Pages: 1 -->
<svg width="940pt" height="1642pt"
 viewBox="0.00 0.00 940.00 1642.00" xmlns="http://www.w3.org/2000/svg" xmlns:xlink="http://www.w3.org/1999/xlink">
<g id="graph0" class="graph" transform="scale(1 1) rotate(0) translate(4 1638)">
<title>internal::Schema&lt; SchemaDocumentType &gt;::Property</title>
<!-- Node1 -->
<g id="Node000001" class="node">
<title>Node1</title>
<g id="a_Node000001"><a xlink:title=" ">
<polygon fill="#999999" stroke="transparent" points="542,-105 382,-105 382,0 542,0 542,-105"/>
<text text-anchor="start" x="395.5" y="-92.5" font-family="Helvetica,sans-Serif" font-size="10.00">internal::Schema&lt; Schema</text>
<text text-anchor="start" x="396" y="-81.5" font-family="Helvetica,sans-Serif" font-size="10.00">DocumentType &gt;::Property</text>
<text text-anchor="start" x="386" y="-66.5" font-family="Helvetica,sans-Serif" font-size="10.00">+</text>
<text text-anchor="start" x="399" y="-66.5" font-family="Helvetica,sans-Serif" font-size="10.00">dependenciesValidatorIndex</text>
<text text-anchor="start" x="386" y="-51.5" font-family="Helvetica,sans-Serif" font-size="10.00">+</text>
<text text-anchor="start" x="399" y="-51.5" font-family="Helvetica,sans-Serif" font-size="10.00">dependencies</text>
<text text-anchor="start" x="386" y="-36.5" font-family="Helvetica,sans-Serif" font-size="10.00">+</text>
<text text-anchor="start" x="399" y="-36.5" font-family="Helvetica,sans-Serif" font-size="10.00">required</text>
<text text-anchor="start" x="386" y="-21.5" font-family="Helvetica,sans-Serif" font-size="10.00">+</text>
<text text-anchor="start" x="399" y="-21.5" font-family="Helvetica,sans-Serif" font-size="10.00">Property()</text>
<text text-anchor="start" x="386" y="-6.5" font-family="Helvetica,sans-Serif" font-size="10.00">+</text>
<text text-anchor="start" x="399" y="-6.5" font-family="Helvetica,sans-Serif" font-size="10.00">~Property()</text>
<polygon fill="#666666" stroke="#666666" points="382,-76.5 382,-76.5 542,-76.5 542,-76.5 382,-76.5"/>
<polygon fill="#666666" stroke="#666666" points="382,-31.5 382,-31.5 397,-31.5 397,-31.5 382,-31.5"/>
<polygon fill="#666666" stroke="#666666" points="397,-31.5 397,-31.5 542,-31.5 542,-31.5 397,-31.5"/>
<polygon fill="none" stroke="#666666" points="382,0 382,-105 542,-105 542,0 382,0"/>
</a>
</g>
</g>
<!-- Node2 -->
<g id="Node000002" class="node">
<title>Node2</title>
<g id="a_Node000002"><a xlink:href="../../d4/dc1/classGenericValue.html" target="_top" xlink:title=" ">
<polygon fill="white" stroke="transparent" points="932,-1536.5 616,-1536.5 616,-1161.5 932,-1161.5 932,-1536.5"/>
<text text-anchor="start" x="701" y="-1524" font-family="Helvetica,sans-Serif" font-size="10.00">GenericValue&lt; EncodingType,</text>
<text text-anchor="start" x="733.5" y="-1513" font-family="Helvetica,sans-Serif" font-size="10.00"> AllocatorType &gt;</text>
<text text-anchor="start" x="772" y="-1498" font-family="Helvetica,sans-Serif" font-size="10.00"> </text>
<text text-anchor="start" x="620" y="-1483" font-family="Helvetica,sans-Serif" font-size="10.00">*</text>
<text text-anchor="start" x="630" y="-1483" font-family="Helvetica,sans-Serif" font-size="10.00">GenericDocument</text>
<text text-anchor="start" x="620" y="-1468" font-family="Helvetica,sans-Serif" font-size="10.00">*</text>
<text text-anchor="start" x="630" y="-1468" font-family="Helvetica,sans-Serif" font-size="10.00">GenericDocument</text>
<text text-anchor="start" x="620" y="-1453" font-family="Helvetica,sans-Serif" font-size="10.00">*</text>
<text text-anchor="start" x="630" y="-1453" font-family="Helvetica,sans-Serif" font-size="10.00">kDefaultArrayCapacity</text>
<text text-anchor="start" x="620" y="-1438" font-family="Helvetica,sans-Serif" font-size="10.00">*</text>
<text text-anchor="start" x="630" y="-1438" font-family="Helvetica,sans-Serif" font-size="10.00">kDefaultObjectCapacity</text>
<text text-anchor="start" x="620" y="-1423" font-family="Helvetica,sans-Serif" font-size="10.00">*</text>
<text text-anchor="start" x="630" y="-1423" font-family="Helvetica,sans-Serif" font-size="10.00">kDefaultArrayCapacity</text>
<text text-anchor="start" x="620" y="-1408" font-family="Helvetica,sans-Serif" font-size="10.00">*</text>
<text text-anchor="start" x="630" y="-1408" font-family="Helvetica,sans-Serif" font-size="10.00">kDefaultObjectCapacity</text>
<text text-anchor="start" x="620" y="-1393" font-family="Helvetica,sans-Serif" font-size="10.00">*</text>
<text text-anchor="start" x="630" y="-1393" font-family="Helvetica,sans-Serif" font-size="10.00">data_</text>
<text text-anchor="start" x="620" y="-1378" font-family="Helvetica,sans-Serif" font-size="10.00">*</text>
<text text-anchor="start" x="630" y="-1378" font-family="Helvetica,sans-Serif" font-size="10.00">data_</text>
<text text-anchor="start" x="620" y="-1363" font-family="Helvetica,sans-Serif" font-size="10.00">*</text>
<text text-anchor="start" x="630" y="-1363" font-family="Helvetica,sans-Serif" font-size="10.00">@007135264076206231173350361344053374076042214227</text>
<text text-anchor="start" x="620" y="-1348" font-family="Helvetica,sans-Serif" font-size="10.00">*</text>
<text text-anchor="start" x="630" y="-1348" font-family="Helvetica,sans-Serif" font-size="10.00">operator=()</text>
<text text-anchor="start" x="630" y="-1333" font-family="Helvetica,sans-Serif" font-size="10.00">et 51 de plus...</text>
<text text-anchor="start" x="620" y="-1318" font-family="Helvetica,sans-Serif" font-size="10.00">*</text>
<text text-anchor="start" x="630" y="-1318" font-family="Helvetica,sans-Serif" font-size="10.00">GenericValue()</text>
<text text-anchor="start" x="620" y="-1303" font-family="Helvetica,sans-Serif" font-size="10.00">*</text>
<text text-anchor="start" x="630" y="-1303" font-family="Helvetica,sans-Serif" font-size="10.00">GenericValue()</text>
<text text-anchor="start" x="620" y="-1288" font-family="Helvetica,sans-Serif" font-size="10.00">*</text>
<text text-anchor="start" x="630" y="-1288" font-family="Helvetica,sans-Serif" font-size="10.00">GenericValue()</text>
<text text-anchor="start" x="620" y="-1273" font-family="Helvetica,sans-Serif" font-size="10.00">*</text>
<text text-anchor="start" x="630" y="-1273" font-family="Helvetica,sans-Serif" font-size="10.00">GenericValue()</text>
<text text-anchor="start" x="620" y="-1258" font-family="Helvetica,sans-Serif" font-size="10.00">*</text>
<text text-anchor="start" x="630" y="-1258" font-family="Helvetica,sans-Serif" font-size="10.00">GenericValue()</text>
<text text-anchor="start" x="620" y="-1243" font-family="Helvetica,sans-Serif" font-size="10.00">*</text>
<text text-anchor="start" x="630" y="-1243" font-family="Helvetica,sans-Serif" font-size="10.00">GenericValue()</text>
<text text-anchor="start" x="620" y="-1228" font-family="Helvetica,sans-Serif" font-size="10.00">*</text>
<text text-anchor="start" x="630" y="-1228" font-family="Helvetica,sans-Serif" font-size="10.00">GenericValue()</text>
<text text-anchor="start" x="620" y="-1213" font-family="Helvetica,sans-Serif" font-size="10.00">*</text>
<text text-anchor="start" x="630" y="-1213" font-family="Helvetica,sans-Serif" font-size="10.00">GenericValue()</text>
<text text-anchor="start" x="620" y="-1198" font-family="Helvetica,sans-Serif" font-size="10.00">*</text>
<text text-anchor="start" x="630" y="-1198" font-family="Helvetica,sans-Serif" font-size="10.00">GenericValue()</text>
<text text-anchor="start" x="620" y="-1183" font-family="Helvetica,sans-Serif" font-size="10.00">*</text>
<text text-anchor="start" x="630" y="-1183" font-family="Helvetica,sans-Serif" font-size="10.00">GenericValue()</text>
<text text-anchor="start" x="630" y="-1168" font-family="Helvetica,sans-Serif" font-size="10.00">et 26 de plus...</text>
<polygon fill="#666666" stroke="#666666" points="616,-1508 616,-1508 932,-1508 932,-1508 616,-1508"/>
<polygon fill="#666666" stroke="#666666" points="616,-1493 616,-1493 932,-1493 932,-1493 616,-1493"/>
<polygon fill="none" stroke="#666666" points="616,-1161.5 616,-1536.5 932,-1536.5 932,-1161.5 616,-1161.5"/>
</a>
</g>
</g>
<!-- Node2&#45;&gt;Node1 -->
<g id="edge1_Node000001_Node000002" class="edge">
<title>Node2&#45;&gt;Node1</title>
<g id="a_edge1_Node000001_Node000002"><a xlink:title=" ">
<path fill="none" stroke="#63b8ff" d="M773.67,-1161.42C772.65,-823.17 768.42,-141.71 751,-123 722.81,-92.72 611.18,-114.81 553.88,-104.4"/>
<polygon fill="none" stroke="#63b8ff" points="553.86,-104.39 547.08,-106.86 542.2,-101.55 548.97,-99.09 553.86,-104.39"/>
</a>
</g>
<text text-anchor="middle" x="792" y="-576.5" font-family="Helvetica,sans-Serif" font-size="10.00" fill="grey"> +name</text>
</g>
<!-- Node3 -->
<g id="Node000003" class="node">
<title>Node3</title>
<g id="a_Node000003"><a xlink:href="../../d2/ddb/classinternal_1_1Schema.html" target="_top" xlink:title=" ">
<polygon fill="white" stroke="transparent" points="453.5,-984 302.5,-984 302.5,-174 453.5,-174 453.5,-984"/>
<text text-anchor="start" x="312" y="-972" font-family="Helvetica,sans-Serif" font-size="10.00">internal::Schema&lt; Schema</text>
<text text-anchor="start" x="336" y="-961" font-family="Helvetica,sans-Serif" font-size="10.00">DocumentType &gt;</text>
<text text-anchor="start" x="307" y="-946" font-family="Helvetica,sans-Serif" font-size="10.00">+</text>
<text text-anchor="start" x="320" y="-946" font-family="Helvetica,sans-Serif" font-size="10.00">b</text>
<text text-anchor="start" x="307" y="-931" font-family="Helvetica,sans-Serif" font-size="10.00">+</text>
<text text-anchor="start" x="320" y="-931" font-family="Helvetica,sans-Serif" font-size="10.00">o</text>
<text text-anchor="start" x="307" y="-916" font-family="Helvetica,sans-Serif" font-size="10.00">+</text>
<text text-anchor="start" x="320" y="-916" font-family="Helvetica,sans-Serif" font-size="10.00">l</text>
<text text-anchor="start" x="307" y="-901" font-family="Helvetica,sans-Serif" font-size="10.00">+</text>
<text text-anchor="start" x="320" y="-901" font-family="Helvetica,sans-Serif" font-size="10.00">e</text>
<text text-anchor="start" x="307" y="-886" font-family="Helvetica,sans-Serif" font-size="10.00">+</text>
<text text-anchor="start" x="320" y="-886" font-family="Helvetica,sans-Serif" font-size="10.00">a</text>
<text text-anchor="start" x="307" y="-871" font-family="Helvetica,sans-Serif" font-size="10.00">+</text>
<text text-anchor="start" x="320" y="-871" font-family="Helvetica,sans-Serif" font-size="10.00">a</text>
<text text-anchor="start" x="307" y="-856" font-family="Helvetica,sans-Serif" font-size="10.00">+</text>
<text text-anchor="start" x="320" y="-856" font-family="Helvetica,sans-Serif" font-size="10.00">r</text>
<text text-anchor="start" x="307" y="-841" font-family="Helvetica,sans-Serif" font-size="10.00">+</text>
<text text-anchor="start" x="320" y="-841" font-family="Helvetica,sans-Serif" font-size="10.00">n</text>
<text text-anchor="start" x="307" y="-826" font-family="Helvetica,sans-Serif" font-size="10.00">+</text>
<text text-anchor="start" x="320" y="-826" font-family="Helvetica,sans-Serif" font-size="10.00">u</text>
<text text-anchor="start" x="307" y="-811" font-family="Helvetica,sans-Serif" font-size="10.00">+</text>
<text text-anchor="start" x="320" y="-811" font-family="Helvetica,sans-Serif" font-size="10.00">m</text>
<text text-anchor="start" x="320" y="-796" font-family="Helvetica,sans-Serif" font-size="10.00">et 115 de plus...</text>
<text text-anchor="start" x="309.5" y="-781" font-family="Helvetica,sans-Serif" font-size="10.00">&#45;</text>
<text text-anchor="start" x="320" y="-781" font-family="Helvetica,sans-Serif" font-size="10.00">allocator_</text>
<text text-anchor="start" x="309.5" y="-766" font-family="Helvetica,sans-Serif" font-size="10.00">&#45;</text>
<text text-anchor="start" x="320" y="-766" font-family="Helvetica,sans-Serif" font-size="10.00">pointer_</text>
<text text-anchor="start" x="309.5" y="-751" font-family="Helvetica,sans-Serif" font-size="10.00">&#45;</text>
<text text-anchor="start" x="320" y="-751" font-family="Helvetica,sans-Serif" font-size="10.00">enum_</text>
<text text-anchor="start" x="309.5" y="-736" font-family="Helvetica,sans-Serif" font-size="10.00">&#45;</text>
<text text-anchor="start" x="320" y="-736" font-family="Helvetica,sans-Serif" font-size="10.00">enumCount_</text>
<text text-anchor="start" x="309.5" y="-721" font-family="Helvetica,sans-Serif" font-size="10.00">&#45;</text>
<text text-anchor="start" x="320" y="-721" font-family="Helvetica,sans-Serif" font-size="10.00">type_</text>
<text text-anchor="start" x="309.5" y="-706" font-family="Helvetica,sans-Serif" font-size="10.00">&#45;</text>
<text text-anchor="start" x="320" y="-706" font-family="Helvetica,sans-Serif" font-size="10.00">validatorCount_</text>
<text text-anchor="start" x="309.5" y="-691" font-family="Helvetica,sans-Serif" font-size="10.00">&#45;</text>
<text text-anchor="start" x="320" y="-691" font-family="Helvetica,sans-Serif" font-size="10.00">notValidatorIndex_</text>
<text text-anchor="start" x="309.5" y="-676" font-family="Helvetica,sans-Serif" font-size="10.00">&#45;</text>
<text text-anchor="start" x="320" y="-676" font-family="Helvetica,sans-Serif" font-size="10.00">patternPropertyCount_</text>
<text text-anchor="start" x="309.5" y="-661" font-family="Helvetica,sans-Serif" font-size="10.00">&#45;</text>
<text text-anchor="start" x="320" y="-661" font-family="Helvetica,sans-Serif" font-size="10.00">propertyCount_</text>
<text text-anchor="start" x="309.5" y="-646" font-family="Helvetica,sans-Serif" font-size="10.00">&#45;</text>
<text text-anchor="start" x="320" y="-646" font-family="Helvetica,sans-Serif" font-size="10.00">minProperties_</text>
<text text-anchor="start" x="320" y="-631" font-family="Helvetica,sans-Serif" font-size="10.00">et 19 de plus...</text>
<text text-anchor="start" x="307" y="-616" font-family="Helvetica,sans-Serif" font-size="10.00">+</text>
<text text-anchor="start" x="320" y="-616" font-family="Helvetica,sans-Serif" font-size="10.00">Schema()</text>
<text text-anchor="start" x="307" y="-601" font-family="Helvetica,sans-Serif" font-size="10.00">+</text>
<text text-anchor="start" x="320" y="-601" font-family="Helvetica,sans-Serif" font-size="10.00">~Schema()</text>
<text text-anchor="start" x="307" y="-586" font-family="Helvetica,sans-Serif" font-size="10.00">+</text>
<text text-anchor="start" x="320" y="-586" font-family="Helvetica,sans-Serif" font-size="10.00">GetURI()</text>
<text text-anchor="start" x="307" y="-571" font-family="Helvetica,sans-Serif" font-size="10.00">+</text>
<text text-anchor="start" x="320" y="-571" font-family="Helvetica,sans-Serif" font-size="10.00">GetId()</text>
<text text-anchor="start" x="307" y="-556" font-family="Helvetica,sans-Serif" font-size="10.00">+</text>
<text text-anchor="start" x="320" y="-556" font-family="Helvetica,sans-Serif" font-size="10.00">GetSpecification()</text>
<text text-anchor="start" x="307" y="-541" font-family="Helvetica,sans-Serif" font-size="10.00">+</text>
<text text-anchor="start" x="320" y="-541" font-family="Helvetica,sans-Serif" font-size="10.00">GetPointer()</text>
<text text-anchor="start" x="307" y="-526" font-family="Helvetica,sans-Serif" font-size="10.00">+</text>
<text text-anchor="start" x="320" y="-526" font-family="Helvetica,sans-Serif" font-size="10.00">BeginValue()</text>
<text text-anchor="start" x="307" y="-511" font-family="Helvetica,sans-Serif" font-size="10.00">+</text>
<text text-anchor="start" x="320" y="-511" font-family="Helvetica,sans-Serif" font-size="10.00">EndValue()</text>
<text text-anchor="start" x="307" y="-496" font-family="Helvetica,sans-Serif" font-size="10.00">+</text>
<text text-anchor="start" x="320" y="-496" font-family="Helvetica,sans-Serif" font-size="10.00">Null()</text>
<text text-anchor="start" x="307" y="-481" font-family="Helvetica,sans-Serif" font-size="10.00">+</text>
<text text-anchor="start" x="320" y="-481" font-family="Helvetica,sans-Serif" font-size="10.00">Bool()</text>
<text text-anchor="start" x="320" y="-466" font-family="Helvetica,sans-Serif" font-size="10.00">et 32 de plus...</text>
<text text-anchor="start" x="307" y="-451" font-family="Helvetica,sans-Serif" font-size="10.00">+</text>
<text text-anchor="start" x="320" y="-451" font-family="Helvetica,sans-Serif" font-size="10.00">GetValidateErrorKeyword()</text>
<text text-anchor="start" x="309.5" y="-436" font-family="Helvetica,sans-Serif" font-size="10.00">&#45;</text>
<text text-anchor="start" x="320" y="-436" font-family="Helvetica,sans-Serif" font-size="10.00">AddUniqueElement()</text>
<text text-anchor="start" x="309.5" y="-421" font-family="Helvetica,sans-Serif" font-size="10.00">&#45;</text>
<text text-anchor="start" x="320" y="-421" font-family="Helvetica,sans-Serif" font-size="10.00">AssignIfExist()</text>
<text text-anchor="start" x="309.5" y="-406" font-family="Helvetica,sans-Serif" font-size="10.00">&#45;</text>
<text text-anchor="start" x="320" y="-406" font-family="Helvetica,sans-Serif" font-size="10.00">CreatePattern()</text>
<text text-anchor="start" x="309.5" y="-391" font-family="Helvetica,sans-Serif" font-size="10.00">&#45;</text>
<text text-anchor="start" x="320" y="-391" font-family="Helvetica,sans-Serif" font-size="10.00">AddType()</text>
<text text-anchor="start" x="309.5" y="-376" font-family="Helvetica,sans-Serif" font-size="10.00">&#45;</text>
<text text-anchor="start" x="320" y="-376" font-family="Helvetica,sans-Serif" font-size="10.00">CreateParallelValidator()</text>
<text text-anchor="start" x="309.5" y="-361" font-family="Helvetica,sans-Serif" font-size="10.00">&#45;</text>
<text text-anchor="start" x="320" y="-361" font-family="Helvetica,sans-Serif" font-size="10.00">CreateSchemaValidators()</text>
<text text-anchor="start" x="309.5" y="-346" font-family="Helvetica,sans-Serif" font-size="10.00">&#45;</text>
<text text-anchor="start" x="320" y="-346" font-family="Helvetica,sans-Serif" font-size="10.00">FindPropertyIndex()</text>
<text text-anchor="start" x="309.5" y="-331" font-family="Helvetica,sans-Serif" font-size="10.00">&#45;</text>
<text text-anchor="start" x="320" y="-331" font-family="Helvetica,sans-Serif" font-size="10.00">CheckBool()</text>
<text text-anchor="start" x="309.5" y="-316" font-family="Helvetica,sans-Serif" font-size="10.00">&#45;</text>
<text text-anchor="start" x="320" y="-316" font-family="Helvetica,sans-Serif" font-size="10.00">CheckInt()</text>
<text text-anchor="start" x="309.5" y="-301" font-family="Helvetica,sans-Serif" font-size="10.00">&#45;</text>
<text text-anchor="start" x="320" y="-301" font-family="Helvetica,sans-Serif" font-size="10.00">CheckUint()</text>
<text text-anchor="start" x="309.5" y="-286" font-family="Helvetica,sans-Serif" font-size="10.00">&#45;</text>
<text text-anchor="start" x="320" y="-286" font-family="Helvetica,sans-Serif" font-size="10.00">CheckDoubleMinimum()</text>
<text text-anchor="start" x="309.5" y="-271" font-family="Helvetica,sans-Serif" font-size="10.00">&#45;</text>
<text text-anchor="start" x="320" y="-271" font-family="Helvetica,sans-Serif" font-size="10.00">CheckDoubleMaximum()</text>
<text text-anchor="start" x="309.5" y="-256" font-family="Helvetica,sans-Serif" font-size="10.00">&#45;</text>
<text text-anchor="start" x="320" y="-256" font-family="Helvetica,sans-Serif" font-size="10.00">CheckDoubleMultipleOf()</text>
<text text-anchor="start" x="309.5" y="-241" font-family="Helvetica,sans-Serif" font-size="10.00">&#45;</text>
<text text-anchor="start" x="320" y="-241" font-family="Helvetica,sans-Serif" font-size="10.00">DisallowedType()</text>
<text text-anchor="start" x="309.5" y="-226" font-family="Helvetica,sans-Serif" font-size="10.00">&#45;</text>
<text text-anchor="start" x="320" y="-226" font-family="Helvetica,sans-Serif" font-size="10.00">GetMember()</text>
<text text-anchor="start" x="309.5" y="-211" font-family="Helvetica,sans-Serif" font-size="10.00">&#45;</text>
<text text-anchor="start" x="320" y="-211" font-family="Helvetica,sans-Serif" font-size="10.00">AssignIfExist()</text>
<text text-anchor="start" x="309.5" y="-196" font-family="Helvetica,sans-Serif" font-size="10.00">&#45;</text>
<text text-anchor="start" x="320" y="-196" font-family="Helvetica,sans-Serif" font-size="10.00">AssignIfExist()</text>
<text text-anchor="start" x="309.5" y="-181" font-family="Helvetica,sans-Serif" font-size="10.00">&#45;</text>
<text text-anchor="start" x="320" y="-181" font-family="Helvetica,sans-Serif" font-size="10.00">IsPatternMatch()</text>
<polygon fill="#bfbfbf" stroke="#bfbfbf" points="303,-956 303,-956 454,-956 454,-956 303,-956"/>
<polygon fill="#bfbfbf" stroke="#bfbfbf" points="303,-626 303,-626 318,-626 318,-626 303,-626"/>
<polygon fill="#bfbfbf" stroke="#bfbfbf" points="318,-626 318,-626 454,-626 454,-626 318,-626"/>
<polygon fill="none" stroke="#bfbfbf" points="302.5,-174 302.5,-984 453.5,-984 453.5,-174 302.5,-174"/>
</a>
</g>
</g>
<!-- Node2&#45;&gt;Node3 -->
<g id="edge3_Node000003_Node000002" class="edge">
<title>Node2&#45;&gt;Node3</title>
<g id="a_edge3_Node000003_Node000002"><a xlink:title=" ">
<path fill="none" stroke="#63b8ff" d="M677.63,-1161.11C610.74,-1031.38 522.62,-860.47 459.28,-737.63"/>
<polygon fill="none" stroke="#63b8ff" points="459.11,-737.31 452.81,-733.81 453.61,-726.64 459.92,-730.14 459.11,-737.31"/>
</a>
</g>
<text text-anchor="middle" x="642.5" y="-1038" font-family="Helvetica,sans-Serif" font-size="10.00" fill="grey"> &#45;maximum_</text>
<text text-anchor="middle" x="642.5" y="-1027" font-family="Helvetica,sans-Serif" font-size="10.00" fill="grey">&#45;minimum_</text>
<text text-anchor="middle" x="642.5" y="-1016" font-family="Helvetica,sans-Serif" font-size="10.00" fill="grey">&#45;multipleOf_</text>
<text text-anchor="middle" x="642.5" y="-1005" font-family="Helvetica,sans-Serif" font-size="10.00" fill="grey">&#45;uri_</text>
</g>
<!-- Node7 -->
<g id="Node000007" class="node">
<title>Node7</title>
<g id="a_Node000007"><a xlink:href="../../db/d33/structinternal_1_1Schema_1_1Property.html" target="_top" xlink:title=" ">
<polygon fill="white" stroke="transparent" points="721,-105 561,-105 561,0 721,0 721,-105"/>
<text text-anchor="start" x="574.5" y="-92.5" font-family="Helvetica,sans-Serif" font-size="10.00">internal::Schema&lt; Schema</text>
<text text-anchor="start" x="575" y="-81.5" font-family="Helvetica,sans-Serif" font-size="10.00">DocumentType &gt;::Property</text>
<text text-anchor="start" x="565" y="-66.5" font-family="Helvetica,sans-Serif" font-size="10.00">+</text>
<text text-anchor="start" x="578" y="-66.5" font-family="Helvetica,sans-Serif" font-size="10.00">dependenciesValidatorIndex</text>
<text text-anchor="start" x="565" y="-51.5" font-family="Helvetica,sans-Serif" font-size="10.00">+</text>
<text text-anchor="start" x="578" y="-51.5" font-family="Helvetica,sans-Serif" font-size="10.00">dependencies</text>
<text text-anchor="start" x="565" y="-36.5" font-family="Helvetica,sans-Serif" font-size="10.00">+</text>
<text text-anchor="start" x="578" y="-36.5" font-family="Helvetica,sans-Serif" font-size="10.00">required</text>
<text text-anchor="start" x="565" y="-21.5" font-family="Helvetica,sans-Serif" font-size="10.00">+</text>
<text text-anchor="start" x="578" y="-21.5" font-family="Helvetica,sans-Serif" font-size="10.00">Property()</text>
<text text-anchor="start" x="565" y="-6.5" font-family="Helvetica,sans-Serif" font-size="10.00">+</text>
<text text-anchor="start" x="578" y="-6.5" font-family="Helvetica,sans-Serif" font-size="10.00">~Property()</text>
<polygon fill="#bfbfbf" stroke="#bfbfbf" points="561,-76.5 561,-76.5 721,-76.5 721,-76.5 561,-76.5"/>
<polygon fill="#bfbfbf" stroke="#bfbfbf" points="561,-31.5 561,-31.5 576,-31.5 576,-31.5 561,-31.5"/>
<polygon fill="#bfbfbf" stroke="#bfbfbf" points="576,-31.5 576,-31.5 721,-31.5 721,-31.5 576,-31.5"/>
<polygon fill="none" stroke="#bfbfbf" points="561,0 561,-105 721,-105 721,0 561,0"/>
</a>
</g>
</g>
<!-- Node2&#45;&gt;Node7 -->
<g id="edge10_Node000007_Node000002" class="edge">
<title>Node2&#45;&gt;Node7</title>
<g id="a_edge10_Node000007_Node000002"><a xlink:title=" ">
<path fill="none" stroke="#63b8ff" d="M814.83,-1161.34C858.59,-926.4 910.21,-512.61 818,-174 811.09,-148.63 807.41,-140.74 788,-123 771.82,-108.22 751.94,-96.01 732.09,-86.18"/>
<polygon fill="none" stroke="#63b8ff" points="731.93,-86.1 724.79,-87.14 721.08,-80.95 728.22,-79.91 731.93,-86.1"/>
</a>
</g>
<text text-anchor="middle" x="889" y="-576.5" font-family="Helvetica,sans-Serif" font-size="10.00" fill="grey"> +name</text>
</g>
<!-- Node3&#45;&gt;Node1 -->
<g id="edge2_Node000001_Node000003" class="edge">
<title>Node3&#45;&gt;Node1</title>
<g id="a_edge2_Node000001_Node000003"><a xlink:title=" ">
<path fill="none" stroke="#63b8ff" d="M400.88,-173.8C405.27,-156.48 410.28,-139.48 416,-123 416.78,-120.74 417.66,-118.49 418.6,-116.25"/>
<polygon fill="none" stroke="#63b8ff" points="418.72,-116 417.71,-108.86 423.9,-105.17 424.92,-112.31 418.72,-116"/>
</a>
</g>
<text text-anchor="middle" x="475" y="-142.5" font-family="Helvetica,sans-Serif" font-size="10.00" fill="grey"> +dependenciesSchema</text>
<text text-anchor="middle" x="475" y="-131.5" font-family="Helvetica,sans-Serif" font-size="10.00" fill="grey">+schema</text>
</g>
<!-- Node3&#45;&gt;Node3 -->
<g id="edge6_Node000003_Node000003" class="edge">
<title>Node3&#45;&gt;Node3</title>
<g id="a_edge6_Node000003_Node000003"><a xlink:title=" ">
<path fill="none" stroke="#63b8ff" d="M453.57,-652.7C464.3,-640.78 471.5,-616.21 471.5,-579 471.5,-550.22 467.19,-529 460.28,-515.35"/>
<polygon fill="none" stroke="#63b8ff" points="460.23,-515.28 453.58,-512.51 453.57,-505.3 460.23,-508.07 460.23,-515.28"/>
</a>
</g>
<text text-anchor="start" x="471.5" y="-615" font-family="Helvetica,sans-Serif" font-size="10.00" fill="grey"> &#45;additionalItemsSchema</text>
<text text-anchor="middle" x="533" y="-604" font-family="Helvetica,sans-Serif" font-size="10.00" fill="grey">_</text>
<text text-anchor="start" x="471.5" y="-593" font-family="Helvetica,sans-Serif" font-size="10.00" fill="grey">&#45;additionalProperties</text>
<text text-anchor="middle" x="533" y="-582" font-family="Helvetica,sans-Serif" font-size="10.00" fill="grey">Schema_</text>
<text text-anchor="middle" x="533" y="-571" font-family="Helvetica,sans-Serif" font-size="10.00" fill="grey">&#45;itemsList_</text>
<text text-anchor="middle" x="533" y="-560" font-family="Helvetica,sans-Serif" font-size="10.00" fill="grey">&#45;itemsTuple_</text>
<text text-anchor="middle" x="533" y="-549" font-family="Helvetica,sans-Serif" font-size="10.00" fill="grey">&#45;not_</text>
<text text-anchor="middle" x="533" y="-538" font-family="Helvetica,sans-Serif" font-size="10.00" fill="grey">&#45;typeless_</text>
</g>
<!-- Node6 -->
<g id="Node000006" class="node">
<title>Node6</title>
<g id="a_Node000006"><a xlink:href="../../d5/d4a/structinternal_1_1Schema_1_1SchemaArray.html" target="_top" xlink:title=" ">
<polygon fill="white" stroke="transparent" points="166,-97.5 0,-97.5 0,-7.5 166,-7.5 166,-97.5"/>
<text text-anchor="start" x="5" y="-85.5" font-family="Helvetica,sans-Serif" font-size="10.00">internal::Schema&lt; Schema</text>
<text text-anchor="start" x="5" y="-74.5" font-family="Helvetica,sans-Serif" font-size="10.00">DocumentType &gt;::SchemaArray</text>
<text text-anchor="start" x="19.5" y="-59.5" font-family="Helvetica,sans-Serif" font-size="10.00">+</text>
<text text-anchor="start" x="48" y="-59.5" font-family="Helvetica,sans-Serif" font-size="10.00">begin</text>
<text text-anchor="start" x="19.5" y="-44.5" font-family="Helvetica,sans-Serif" font-size="10.00">+</text>
<text text-anchor="start" x="48" y="-44.5" font-family="Helvetica,sans-Serif" font-size="10.00">count</text>
<text text-anchor="start" x="19.5" y="-29.5" font-family="Helvetica,sans-Serif" font-size="10.00">+</text>
<text text-anchor="start" x="48" y="-29.5" font-family="Helvetica,sans-Serif" font-size="10.00">SchemaArray()</text>
<text text-anchor="start" x="19.5" y="-14.5" font-family="Helvetica,sans-Serif" font-size="10.00">+</text>
<text text-anchor="start" x="48" y="-14.5" font-family="Helvetica,sans-Serif" font-size="10.00">~SchemaArray()</text>
<polygon fill="#bfbfbf" stroke="#bfbfbf" points="0,-69.5 0,-69.5 166,-69.5 166,-69.5 0,-69.5"/>
<polygon fill="#bfbfbf" stroke="#bfbfbf" points="0,-39.5 0,-39.5 46,-39.5 46,-39.5 0,-39.5"/>
<polygon fill="#bfbfbf" stroke="#bfbfbf" points="46,-39.5 46,-39.5 166,-39.5 166,-39.5 46,-39.5"/>
<polygon fill="none" stroke="#bfbfbf" points="0,-7.5 0,-97.5 166,-97.5 166,-7.5 0,-7.5"/>
</a>
</g>
</g>
<!-- Node3&#45;&gt;Node6 -->
<g id="edge8_Node000006_Node000003" class="edge">
<title>Node3&#45;&gt;Node6</title>
<g id="a_edge8_Node000006_Node000003"><a xlink:title=" ">
<path fill="none" stroke="#63b8ff" d="M302.47,-502.97C229.15,-424.33 122.72,-293.32 79,-156 74.33,-141.34 73.27,-124.9 73.91,-109.55"/>
<polygon fill="none" stroke="#63b8ff" points="73.92,-109.5 70.35,-103.23 74.76,-97.53 78.33,-103.79 73.92,-109.5"/>
</a>
</g>
<text text-anchor="middle" x="106.5" y="-137" font-family="Helvetica,sans-Serif" font-size="10.00" fill="grey"> +schemas</text>
</g>
<!-- Node3&#45;&gt;Node7 -->
<g id="edge11_Node000007_Node000003" class="edge">
<title>Node3&#45;&gt;Node7</title>
<g id="a_edge11_Node000007_Node000003"><a xlink:title=" ">
<path fill="none" stroke="#63b8ff" d="M453.64,-467.62C506.99,-385.09 576.29,-267.71 619,-156 623.7,-143.7 627.5,-130.17 630.54,-117.08"/>
<polygon fill="none" stroke="#63b8ff" points="630.56,-116.96 627.93,-110.24 633.11,-105.23 635.75,-111.94 630.56,-116.96"/>
</a>
</g>
<text text-anchor="middle" x="688" y="-142.5" font-family="Helvetica,sans-Serif" font-size="10.00" fill="grey"> +dependenciesSchema</text>
<text text-anchor="middle" x="688" y="-131.5" font-family="Helvetica,sans-Serif" font-size="10.00" fill="grey">+schema</text>
</g>
<!-- Node8 -->
<g id="Node000008" class="node">
<title>Node8</title>
<g id="a_Node000008"><a xlink:href="../../d4/d9a/structinternal_1_1Schema_1_1PatternProperty.html" target="_top" xlink:title=" ">
<polygon fill="white" stroke="transparent" points="363,-90 187,-90 187,-15 363,-15 363,-90"/>
<text text-anchor="start" x="192" y="-77.5" font-family="Helvetica,sans-Serif" font-size="10.00">internal::Schema&lt; Schema</text>
<text text-anchor="start" x="192" y="-66.5" font-family="Helvetica,sans-Serif" font-size="10.00">DocumentType &gt;::PatternProperty</text>
<text text-anchor="start" x="206.5" y="-51.5" font-family="Helvetica,sans-Serif" font-size="10.00">+</text>
<text text-anchor="start" x="235" y="-51.5" font-family="Helvetica,sans-Serif" font-size="10.00">pattern</text>
<text text-anchor="start" x="206.5" y="-36.5" font-family="Helvetica,sans-Serif" font-size="10.00">+</text>
<text text-anchor="start" x="235" y="-36.5" font-family="Helvetica,sans-Serif" font-size="10.00">PatternProperty()</text>
<text text-anchor="start" x="206.5" y="-21.5" font-family="Helvetica,sans-Serif" font-size="10.00">+</text>
<text text-anchor="start" x="235" y="-21.5" font-family="Helvetica,sans-Serif" font-size="10.00">~PatternProperty()</text>
<polygon fill="#bfbfbf" stroke="#bfbfbf" points="187,-61.5 187,-61.5 363,-61.5 363,-61.5 187,-61.5"/>
<polygon fill="#bfbfbf" stroke="#bfbfbf" points="187,-46.5 187,-46.5 233,-46.5 233,-46.5 187,-46.5"/>
<polygon fill="#bfbfbf" stroke="#bfbfbf" points="233,-46.5 233,-46.5 363,-46.5 363,-46.5 233,-46.5"/>
<polygon fill="none" stroke="#bfbfbf" points="187,-15 187,-90 363,-90 363,-15 187,-15"/>
</a>
</g>
</g>
<!-- Node3&#45;&gt;Node8 -->
<g id="edge13_Node000008_Node000003" class="edge">
<title>Node3&#45;&gt;Node8</title>
<g id="a_edge13_Node000008_Node000003"><a xlink:title=" ">
<path fill="none" stroke="#63b8ff" d="M336.3,-173.74C331.43,-156.44 326.02,-139.45 320,-123 317.21,-115.38 313.47,-107.74 309.32,-100.47"/>
<polygon fill="none" stroke="#63b8ff" points="309.26,-100.36 302.72,-97.31 303.03,-90.11 309.56,-93.16 309.26,-100.36"/>
</a>
</g>
<text text-anchor="middle" x="354" y="-137" font-family="Helvetica,sans-Serif" font-size="10.00" fill="grey"> +schema</text>
</g>
<!-- Node4 -->
<g id="Node000004" class="node">
<title>Node4</title>
<g id="a_Node000004"><a xlink:href="../../d3/d8c/classGenericUri.html" target="_top" xlink:title=" ">
<polygon fill="white" stroke="transparent" points="514,-1634 378,-1634 378,-1064 514,-1064 514,-1634"/>
<text text-anchor="start" x="388" y="-1622" font-family="Helvetica,sans-Serif" font-size="10.00">GenericUri&lt; ValueType,</text>
<text text-anchor="start" x="405.5" y="-1611" font-family="Helvetica,sans-Serif" font-size="10.00"> AllocatorType &gt;</text>
<text text-anchor="start" x="384.5" y="-1596" font-family="Helvetica,sans-Serif" font-size="10.00">&#45;</text>
<text text-anchor="start" x="395" y="-1596" font-family="Helvetica,sans-Serif" font-size="10.00">uri_</text>
<text text-anchor="start" x="384.5" y="-1581" font-family="Helvetica,sans-Serif" font-size="10.00">&#45;</text>
<text text-anchor="start" x="395" y="-1581" font-family="Helvetica,sans-Serif" font-size="10.00">base_</text>
<text text-anchor="start" x="384.5" y="-1566" font-family="Helvetica,sans-Serif" font-size="10.00">&#45;</text>
<text text-anchor="start" x="395" y="-1566" font-family="Helvetica,sans-Serif" font-size="10.00">scheme_</text>
<text text-anchor="start" x="384.5" y="-1551" font-family="Helvetica,sans-Serif" font-size="10.00">&#45;</text>
<text text-anchor="start" x="395" y="-1551" font-family="Helvetica,sans-Serif" font-size="10.00">auth_</text>
<text text-anchor="start" x="384.5" y="-1536" font-family="Helvetica,sans-Serif" font-size="10.00">&#45;</text>
<text text-anchor="start" x="395" y="-1536" font-family="Helvetica,sans-Serif" font-size="10.00">path_</text>
<text text-anchor="start" x="384.5" y="-1521" font-family="Helvetica,sans-Serif" font-size="10.00">&#45;</text>
<text text-anchor="start" x="395" y="-1521" font-family="Helvetica,sans-Serif" font-size="10.00">query_</text>
<text text-anchor="start" x="384.5" y="-1506" font-family="Helvetica,sans-Serif" font-size="10.00">&#45;</text>
<text text-anchor="start" x="395" y="-1506" font-family="Helvetica,sans-Serif" font-size="10.00">frag_</text>
<text text-anchor="start" x="384.5" y="-1491" font-family="Helvetica,sans-Serif" font-size="10.00">&#45;</text>
<text text-anchor="start" x="395" y="-1491" font-family="Helvetica,sans-Serif" font-size="10.00">allocator_</text>
<text text-anchor="start" x="384.5" y="-1476" font-family="Helvetica,sans-Serif" font-size="10.00">&#45;</text>
<text text-anchor="start" x="395" y="-1476" font-family="Helvetica,sans-Serif" font-size="10.00">ownAllocator_</text>
<text text-anchor="start" x="384.5" y="-1461" font-family="Helvetica,sans-Serif" font-size="10.00">&#45;</text>
<text text-anchor="start" x="395" y="-1461" font-family="Helvetica,sans-Serif" font-size="10.00">uri_</text>
<text text-anchor="start" x="395" y="-1446" font-family="Helvetica,sans-Serif" font-size="10.00">et 8 de plus...</text>
<text text-anchor="start" x="382" y="-1431" font-family="Helvetica,sans-Serif" font-size="10.00">+</text>
<text text-anchor="start" x="395" y="-1431" font-family="Helvetica,sans-Serif" font-size="10.00">GenericUri()</text>
<text text-anchor="start" x="382" y="-1416" font-family="Helvetica,sans-Serif" font-size="10.00">+</text>
<text text-anchor="start" x="395" y="-1416" font-family="Helvetica,sans-Serif" font-size="10.00">GenericUri()</text>
<text text-anchor="start" x="382" y="-1401" font-family="Helvetica,sans-Serif" font-size="10.00">+</text>
<text text-anchor="start" x="395" y="-1401" font-family="Helvetica,sans-Serif" font-size="10.00">GenericUri()</text>
<text text-anchor="start" x="382" y="-1386" font-family="Helvetica,sans-Serif" font-size="10.00">+</text>
<text text-anchor="start" x="395" y="-1386" font-family="Helvetica,sans-Serif" font-size="10.00">GenericUri()</text>
<text text-anchor="start" x="382" y="-1371" font-family="Helvetica,sans-Serif" font-size="10.00">+</text>
<text text-anchor="start" x="395" y="-1371" font-family="Helvetica,sans-Serif" font-size="10.00">GenericUri()</text>
<text text-anchor="start" x="382" y="-1356" font-family="Helvetica,sans-Serif" font-size="10.00">+</text>
<text text-anchor="start" x="395" y="-1356" font-family="Helvetica,sans-Serif" font-size="10.00">GenericUri()</text>
<text text-anchor="start" x="382" y="-1341" font-family="Helvetica,sans-Serif" font-size="10.00">+</text>
<text text-anchor="start" x="395" y="-1341" font-family="Helvetica,sans-Serif" font-size="10.00">~GenericUri()</text>
<text text-anchor="start" x="382" y="-1326" font-family="Helvetica,sans-Serif" font-size="10.00">+</text>
<text text-anchor="start" x="395" y="-1326" font-family="Helvetica,sans-Serif" font-size="10.00">operator=()</text>
<text text-anchor="start" x="382" y="-1311" font-family="Helvetica,sans-Serif" font-size="10.00">+</text>
<text text-anchor="start" x="395" y="-1311" font-family="Helvetica,sans-Serif" font-size="10.00">Get()</text>
<text text-anchor="start" x="382" y="-1296" font-family="Helvetica,sans-Serif" font-size="10.00">+</text>
<text text-anchor="start" x="395" y="-1296" font-family="Helvetica,sans-Serif" font-size="10.00">GetString()</text>
<text text-anchor="start" x="395" y="-1281" font-family="Helvetica,sans-Serif" font-size="10.00">et 46 de plus...</text>
<text text-anchor="start" x="384.5" y="-1266" font-family="Helvetica,sans-Serif" font-size="10.00">&#45;</text>
<text text-anchor="start" x="395" y="-1266" font-family="Helvetica,sans-Serif" font-size="10.00">Allocate()</text>
<text text-anchor="start" x="384.5" y="-1251" font-family="Helvetica,sans-Serif" font-size="10.00">&#45;</text>
<text text-anchor="start" x="395" y="-1251" font-family="Helvetica,sans-Serif" font-size="10.00">Free()</text>
<text text-anchor="start" x="384.5" y="-1236" font-family="Helvetica,sans-Serif" font-size="10.00">&#45;</text>
<text text-anchor="start" x="395" y="-1236" font-family="Helvetica,sans-Serif" font-size="10.00">Parse()</text>
<text text-anchor="start" x="384.5" y="-1221" font-family="Helvetica,sans-Serif" font-size="10.00">&#45;</text>
<text text-anchor="start" x="395" y="-1221" font-family="Helvetica,sans-Serif" font-size="10.00">SetBase()</text>
<text text-anchor="start" x="384.5" y="-1206" font-family="Helvetica,sans-Serif" font-size="10.00">&#45;</text>
<text text-anchor="start" x="395" y="-1206" font-family="Helvetica,sans-Serif" font-size="10.00">SetUri()</text>
<text text-anchor="start" x="384.5" y="-1191" font-family="Helvetica,sans-Serif" font-size="10.00">&#45;</text>
<text text-anchor="start" x="395" y="-1191" font-family="Helvetica,sans-Serif" font-size="10.00">CopyPart()</text>
<text text-anchor="start" x="384.5" y="-1176" font-family="Helvetica,sans-Serif" font-size="10.00">&#45;</text>
<text text-anchor="start" x="395" y="-1176" font-family="Helvetica,sans-Serif" font-size="10.00">RemoveDotSegments()</text>
<text text-anchor="start" x="384.5" y="-1161" font-family="Helvetica,sans-Serif" font-size="10.00">&#45;</text>
<text text-anchor="start" x="395" y="-1161" font-family="Helvetica,sans-Serif" font-size="10.00">Allocate()</text>
<text text-anchor="start" x="384.5" y="-1146" font-family="Helvetica,sans-Serif" font-size="10.00">&#45;</text>
<text text-anchor="start" x="395" y="-1146" font-family="Helvetica,sans-Serif" font-size="10.00">Free()</text>
<text text-anchor="start" x="384.5" y="-1131" font-family="Helvetica,sans-Serif" font-size="10.00">&#45;</text>
<text text-anchor="start" x="395" y="-1131" font-family="Helvetica,sans-Serif" font-size="10.00">Parse()</text>
<text text-anchor="start" x="384.5" y="-1116" font-family="Helvetica,sans-Serif" font-size="10.00">&#45;</text>
<text text-anchor="start" x="395" y="-1116" font-family="Helvetica,sans-Serif" font-size="10.00">SetBase()</text>
<text text-anchor="start" x="384.5" y="-1101" font-family="Helvetica,sans-Serif" font-size="10.00">&#45;</text>
<text text-anchor="start" x="395" y="-1101" font-family="Helvetica,sans-Serif" font-size="10.00">SetUri()</text>
<text text-anchor="start" x="384.5" y="-1086" font-family="Helvetica,sans-Serif" font-size="10.00">&#45;</text>
<text text-anchor="start" x="395" y="-1086" font-family="Helvetica,sans-Serif" font-size="10.00">CopyPart()</text>
<text text-anchor="start" x="384.5" y="-1071" font-family="Helvetica,sans-Serif" font-size="10.00">&#45;</text>
<text text-anchor="start" x="395" y="-1071" font-family="Helvetica,sans-Serif" font-size="10.00">RemoveDotSegments()</text>
<polygon fill="#bfbfbf" stroke="#bfbfbf" points="378,-1606 378,-1606 514,-1606 514,-1606 378,-1606"/>
<polygon fill="#bfbfbf" stroke="#bfbfbf" points="378,-1441 378,-1441 393,-1441 393,-1441 378,-1441"/>
<polygon fill="#bfbfbf" stroke="#bfbfbf" points="393,-1441 393,-1441 514,-1441 514,-1441 393,-1441"/>
<polygon fill="none" stroke="#bfbfbf" points="378,-1064 378,-1634 514,-1634 514,-1064 378,-1064"/>
</a>
</g>
</g>
<!-- Node4&#45;&gt;Node3 -->
<g id="edge4_Node000003_Node000004" class="edge">
<title>Node4&#45;&gt;Node3</title>
<g id="a_edge4_Node000003_Node000004"><a xlink:title=" ">
<path fill="none" stroke="#63b8ff" d="M420.85,-1063.93C418.89,-1041.85 416.89,-1019.28 414.88,-996.57"/>
<polygon fill="none" stroke="#63b8ff" points="414.86,-996.26 410.34,-990.64 413.8,-984.31 418.31,-989.93 414.86,-996.26"/>
</a>
</g>
<text text-anchor="middle" x="429" y="-1021.5" font-family="Helvetica,sans-Serif" font-size="10.00" fill="grey"> &#45;id_</text>
</g>
<!-- Node5 -->
<g id="Node000005" class="node">
<title>Node5</title>
<g id="a_Node000005"><a xlink:href="../../d1/de3/structSpecification.html" target="_top" xlink:title=" ">
<polygon fill="white" stroke="transparent" points="360,-1403.5 260,-1403.5 260,-1294.5 360,-1294.5 360,-1403.5"/>
<text text-anchor="start" x="278.5" y="-1391" font-family="Helvetica,sans-Serif" font-size="10.00">Specification</text>
<text text-anchor="start" x="264" y="-1376" font-family="Helvetica,sans-Serif" font-size="10.00">+</text>
<text text-anchor="start" x="277" y="-1376" font-family="Helvetica,sans-Serif" font-size="10.00">draft</text>
<text text-anchor="start" x="264" y="-1361" font-family="Helvetica,sans-Serif" font-size="10.00">+</text>
<text text-anchor="start" x="277" y="-1361" font-family="Helvetica,sans-Serif" font-size="10.00">oapi</text>
<text text-anchor="start" x="264" y="-1346" font-family="Helvetica,sans-Serif" font-size="10.00">+</text>
<text text-anchor="start" x="277" y="-1346" font-family="Helvetica,sans-Serif" font-size="10.00">Specification()</text>
<text text-anchor="start" x="264" y="-1331" font-family="Helvetica,sans-Serif" font-size="10.00">+</text>
<text text-anchor="start" x="277" y="-1331" font-family="Helvetica,sans-Serif" font-size="10.00">Specification()</text>
<text text-anchor="start" x="264" y="-1316" font-family="Helvetica,sans-Serif" font-size="10.00">+</text>
<text text-anchor="start" x="277" y="-1316" font-family="Helvetica,sans-Serif" font-size="10.00">~Specification()</text>
<text text-anchor="start" x="264" y="-1301" font-family="Helvetica,sans-Serif" font-size="10.00">+</text>
<text text-anchor="start" x="277" y="-1301" font-family="Helvetica,sans-Serif" font-size="10.00">IsSupported()</text>
<polygon fill="#bfbfbf" stroke="#bfbfbf" points="260,-1386 260,-1386 360,-1386 360,-1386 260,-1386"/>
<polygon fill="#bfbfbf" stroke="#bfbfbf" points="260,-1356 260,-1356 275,-1356 275,-1356 260,-1356"/>
<polygon fill="#bfbfbf" stroke="#bfbfbf" points="275,-1356 275,-1356 360,-1356 360,-1356 275,-1356"/>
<polygon fill="none" stroke="#bfbfbf" points="260,-1294.5 260,-1403.5 360,-1403.5 360,-1294.5 260,-1294.5"/>
</a>
</g>
</g>
<!-- Node5&#45;&gt;Node3 -->
<g id="edge5_Node000003_Node000005" class="edge">
<title>Node5&#45;&gt;Node3</title>
<g id="a_edge5_Node000003_Node000005"><a xlink:title=" ">
<path fill="none" stroke="#63b8ff" d="M314.75,-1294.3C320.47,-1229.72 330.62,-1115.1 341.14,-996.33"/>
<polygon fill="none" stroke="#63b8ff" points="341.16,-996.03 337.71,-989.7 342.22,-984.08 345.68,-990.41 341.16,-996.03"/>
</a>
</g>
<text text-anchor="middle" x="357.5" y="-1021.5" font-family="Helvetica,sans-Serif" font-size="10.00" fill="grey"> &#45;spec_</text>
</g>
<!-- Node6&#45;&gt;Node3 -->
<g id="edge7_Node000003_Node000006" class="edge">
<title>Node6&#45;&gt;Node3</title>
<g id="a_edge7_Node000003_Node000006"><a xlink:title=" ">
<path fill="none" stroke="#63b8ff" d="M120.05,-97.84C126.31,-106.01 132.54,-114.62 138,-123 196.85,-213.33 253.56,-319.64 297.07,-406.78"/>
<polygon fill="none" stroke="#63b8ff" points="297.1,-406.83 303.35,-410.42 302.44,-417.58 296.19,-413.99 297.1,-406.83"/>
</a>
</g>
<text text-anchor="middle" x="172.5" y="-148" font-family="Helvetica,sans-Serif" font-size="10.00" fill="grey"> &#45;allOf_</text>
<text text-anchor="middle" x="172.5" y="-137" font-family="Helvetica,sans-Serif" font-size="10.00" fill="grey">&#45;anyOf_</text>
<text text-anchor="middle" x="172.5" y="-126" font-family="Helvetica,sans-Serif" font-size="10.00" fill="grey">&#45;oneOf_</text>
</g>
<!-- Node7&#45;&gt;Node3 -->
<g id="edge9_Node000003_Node000007" class="edge">
<title>Node7&#45;&gt;Node3</title>
<g id="a_edge9_Node000003_Node000007"><a xlink:title=" ">
<path fill="none" stroke="#63b8ff" d="M572,-105.35C566.55,-110.96 561.44,-116.87 557,-123 516.7,-178.6 484,-244.49 458.11,-308.62"/>
<polygon fill="none" stroke="#63b8ff" points="457.96,-309 459.46,-316.05 453.52,-320.15 452.03,-313.1 457.96,-309"/>
</a>
</g>
<text text-anchor="middle" x="588" y="-137" font-family="Helvetica,sans-Serif" font-size="10.00" fill="grey"> &#45;properties_</text>
</g>
<!-- Node8&#45;&gt;Node3 -->
<g id="edge12_Node000003_Node000008" class="edge">
<title>Node8&#45;&gt;Node3</title>
<g id="a_edge12_Node000003_Node000008"><a xlink:title=" ">
<path fill="none" stroke="#63b8ff" d="M240.73,-90.29C233.47,-100.21 226.85,-111.42 223,-123 218.37,-136.92 220.43,-141.56 223,-156 237.85,-239.51 268.02,-328.16 297.84,-402.54"/>
<polygon fill="none" stroke="#63b8ff" points="297.92,-402.76 303.88,-406.82 302.42,-413.88 296.46,-409.82 297.92,-402.76"/>
</a>
</g>
<text text-anchor="middle" x="271.5" y="-137" font-family="Helvetica,sans-Serif" font-size="10.00" fill="grey"> &#45;patternProperties_</text>
</g>
</g>
</svg>
