<?xml version="1.0" encoding="UTF-8" standalone="no"?>
<!DOCTYPE svg PUBLIC "-//W3C//DTD SVG 1.1//EN"
 "http://www.w3.org/Graphics/SVG/1.1/DTD/svg11.dtd">
<!-- Generated by graphviz version 2.43.0 (0)
 -->
<!-- Title: Arcane::ItemConnectivityMng::registerConnectivity Pages: 1 -->
<svg width="330pt" height="182pt"
 viewBox="0.00 0.00 330.00 182.00" xmlns="http://www.w3.org/2000/svg" xmlns:xlink="http://www.w3.org/1999/xlink">
<g id="graph0" class="graph" transform="scale(1 1) rotate(0) translate(4 178)">
<title>Arcane::ItemConnectivityMng::registerConnectivity</title>
<!-- Node1 -->
<g id="Node000001" class="node">
<title>Node1</title>
<g id="a_Node000001"><a xlink:title="Enregistrement d&#39;une connectivité">
<polygon fill="#999999" stroke="#666666" points="143,-102 0,-102 0,-72 143,-72 143,-102"/>
<text text-anchor="start" x="8" y="-90" font-family="Helvetica,sans-Serif" font-size="10.00">Arcane::ItemConnectivity</text>
<text text-anchor="middle" x="71.5" y="-79" font-family="Helvetica,sans-Serif" font-size="10.00">Mng::registerConnectivity</text>
</a>
</g>
</g>
<!-- Node2 -->
<g id="Node000002" class="node">
<title>Node2</title>
<g id="a_Node000002"><a xlink:href="../../dd/d0a/classArcane_1_1IItemFamily.html#aae7845b24c15e409df3652ac0e15e3df" target="_top" xlink:title="Nom complet de la famille (avec celui du maillage)">
<polygon fill="white" stroke="#666666" points="307.5,-174 193.5,-174 193.5,-144 307.5,-144 307.5,-174"/>
<text text-anchor="start" x="201.5" y="-162" font-family="Helvetica,sans-Serif" font-size="10.00">Arcane::IItemFamily</text>
<text text-anchor="middle" x="250.5" y="-151" font-family="Helvetica,sans-Serif" font-size="10.00">::fullName</text>
</a>
</g>
</g>
<!-- Node1&#45;&gt;Node2 -->
<g id="edge1_Node000001_Node000002" class="edge">
<title>Node1&#45;&gt;Node2</title>
<g id="a_edge1_Node000001_Node000002"><a xlink:title=" ">
<path fill="none" stroke="#63b8ff" d="M103.85,-102.08C124.89,-111.96 153.34,-124.88 179,-135 183.69,-136.85 188.59,-138.69 193.52,-140.49"/>
<polygon fill="#63b8ff" stroke="#63b8ff" points="192.41,-143.81 203,-143.87 194.76,-137.22 192.41,-143.81"/>
</a>
</g>
</g>
<!-- Node3 -->
<g id="Node000003" class="node">
<title>Node3</title>
<g id="a_Node000003"><a xlink:href="../../d0/dc0/classArcane_1_1IItemConnectivity.html#af5f9ad1c2248d99658cb7a9d7f1b2482" target="_top" xlink:title="Nom de la connectivité">
<polygon fill="white" stroke="#666666" points="322,-126 179,-126 179,-96 322,-96 322,-126"/>
<text text-anchor="start" x="187" y="-114" font-family="Helvetica,sans-Serif" font-size="10.00">Arcane::IItemConnectivity</text>
<text text-anchor="middle" x="250.5" y="-103" font-family="Helvetica,sans-Serif" font-size="10.00">::name</text>
</a>
</g>
</g>
<!-- Node1&#45;&gt;Node3 -->
<g id="edge2_Node000001_Node000003" class="edge">
<title>Node1&#45;&gt;Node3</title>
<g id="a_edge2_Node000001_Node000003"><a xlink:title=" ">
<path fill="none" stroke="#63b8ff" d="M143.22,-96.59C151.66,-97.73 160.33,-98.91 168.9,-100.07"/>
<polygon fill="#63b8ff" stroke="#63b8ff" points="168.51,-103.55 178.89,-101.43 169.46,-96.61 168.51,-103.55"/>
</a>
</g>
</g>
<!-- Node4 -->
<g id="Node000004" class="node">
<title>Node4</title>
<g id="a_Node000004"><a xlink:href="../../d0/dc0/classArcane_1_1IItemConnectivity.html#af190e1b8022d46ba7a55a5229ce2eb43" target="_top" xlink:title="Famille source.">
<polygon fill="white" stroke="#666666" points="322,-78 179,-78 179,-48 322,-48 322,-78"/>
<text text-anchor="start" x="187" y="-66" font-family="Helvetica,sans-Serif" font-size="10.00">Arcane::IItemConnectivity</text>
<text text-anchor="middle" x="250.5" y="-55" font-family="Helvetica,sans-Serif" font-size="10.00">::sourceFamily</text>
</a>
</g>
</g>
<!-- Node1&#45;&gt;Node4 -->
<g id="edge3_Node000001_Node000004" class="edge">
<title>Node1&#45;&gt;Node4</title>
<g id="a_edge3_Node000001_Node000004"><a xlink:title=" ">
<path fill="none" stroke="#63b8ff" d="M143.22,-77.41C151.66,-76.27 160.33,-75.09 168.9,-73.93"/>
<polygon fill="#63b8ff" stroke="#63b8ff" points="169.46,-77.39 178.89,-72.57 168.51,-70.45 169.46,-77.39"/>
</a>
</g>
</g>
<!-- Node5 -->
<g id="Node000005" class="node">
<title>Node5</title>
<g id="a_Node000005"><a xlink:href="../../d0/dc0/classArcane_1_1IItemConnectivity.html#a7c133c6a5415276bc86b6e1ae228fb9e" target="_top" xlink:title="Famille cible.">
<polygon fill="white" stroke="#666666" points="322,-30 179,-30 179,0 322,0 322,-30"/>
<text text-anchor="start" x="187" y="-18" font-family="Helvetica,sans-Serif" font-size="10.00">Arcane::IItemConnectivity</text>
<text text-anchor="middle" x="250.5" y="-7" font-family="Helvetica,sans-Serif" font-size="10.00">::targetFamily</text>
</a>
</g>
</g>
<!-- Node1&#45;&gt;Node5 -->
<g id="edge4_Node000001_Node000005" class="edge">
<title>Node1&#45;&gt;Node5</title>
<g id="a_edge4_Node000001_Node000005"><a xlink:title=" ">
<path fill="none" stroke="#63b8ff" d="M103.85,-71.92C124.89,-62.04 153.34,-49.12 179,-39 183.69,-37.15 188.59,-35.31 193.52,-33.51"/>
<polygon fill="#63b8ff" stroke="#63b8ff" points="194.76,-36.78 203,-30.13 192.41,-30.19 194.76,-36.78"/>
</a>
</g>
</g>
</g>
</svg>
