<?xml version="1.0" encoding="UTF-8" standalone="no"?>
<!DOCTYPE svg PUBLIC "-//W3C//DTD SVG 1.1//EN"
 "http://www.w3.org/Graphics/SVG/1.1/DTD/svg11.dtd">
<!-- Generated by graphviz version 2.43.0 (0)
 -->
<!-- Title: Arcane::dom::NodeList Pages: 1 -->
<svg width="129pt" height="147pt"
 viewBox="0.00 0.00 129.00 147.00" xmlns="http://www.w3.org/2000/svg" xmlns:xlink="http://www.w3.org/1999/xlink">
<g id="graph0" class="graph" transform="scale(1 1) rotate(0) translate(4 143)">
<title>Arcane::dom::NodeList</title>
<!-- Node1 -->
<g id="Node000001" class="node">
<title>Node1</title>
<g id="a_Node000001"><a xlink:title=" ">
<polygon fill="#999999" stroke="transparent" points="121,-139 0,-139 0,0 121,0 121,-139"/>
<text text-anchor="start" x="5.5" y="-126.5" font-family="Helvetica,sans-Serif" font-size="10.00">Arcane::dom::NodeList</text>
<text text-anchor="start" x="59" y="-111.5" font-family="Helvetica,sans-Serif" font-size="10.00"> </text>
<text text-anchor="start" x="13.5" y="-96.5" font-family="Helvetica,sans-Serif" font-size="10.00">*</text>
<text text-anchor="start" x="32.5" y="-96.5" font-family="Helvetica,sans-Serif" font-size="10.00">m_p</text>
<text text-anchor="start" x="13.5" y="-81.5" font-family="Helvetica,sans-Serif" font-size="10.00">*</text>
<text text-anchor="start" x="32.5" y="-81.5" font-family="Helvetica,sans-Serif" font-size="10.00">item()</text>
<text text-anchor="start" x="13.5" y="-66.5" font-family="Helvetica,sans-Serif" font-size="10.00">*</text>
<text text-anchor="start" x="32.5" y="-66.5" font-family="Helvetica,sans-Serif" font-size="10.00">length()</text>
<text text-anchor="start" x="13.5" y="-51.5" font-family="Helvetica,sans-Serif" font-size="10.00">*</text>
<text text-anchor="start" x="32.5" y="-51.5" font-family="Helvetica,sans-Serif" font-size="10.00">NodeList()</text>
<text text-anchor="start" x="13.5" y="-36.5" font-family="Helvetica,sans-Serif" font-size="10.00">*</text>
<text text-anchor="start" x="32.5" y="-36.5" font-family="Helvetica,sans-Serif" font-size="10.00">NodeList()</text>
<text text-anchor="start" x="13.5" y="-21.5" font-family="Helvetica,sans-Serif" font-size="10.00">*</text>
<text text-anchor="start" x="32.5" y="-21.5" font-family="Helvetica,sans-Serif" font-size="10.00">_impl()</text>
<text text-anchor="start" x="13.5" y="-6.5" font-family="Helvetica,sans-Serif" font-size="10.00">*</text>
<text text-anchor="start" x="32.5" y="-6.5" font-family="Helvetica,sans-Serif" font-size="10.00">_checkValid()</text>
<polygon fill="#666666" stroke="#666666" points="0.5,-121.5 0.5,-121.5 121.5,-121.5 121.5,-121.5 0.5,-121.5"/>
<polygon fill="#666666" stroke="#666666" points="0.5,-106.5 0.5,-106.5 121.5,-106.5 121.5,-106.5 0.5,-106.5"/>
<polygon fill="none" stroke="#666666" points="0,0 0,-139 121,-139 121,0 0,0"/>
</a>
</g>
</g>
</g>
</svg>
