<?xml version="1.0" encoding="UTF-8" standalone="no"?>
<!DOCTYPE svg PUBLIC "-//W3C//DTD SVG 1.1//EN"
 "http://www.w3.org/Graphics/SVG/1.1/DTD/svg11.dtd">
<!-- Generated by graphviz version 2.43.0 (0)
 -->
<!-- Title: Arcane::arcaneParallelFor Pages: 1 -->
<!--zoomable 105 -->

<svg id="main" version="1.1" xmlns="http://www.w3.org/2000/svg" xmlns:xlink="http://www.w3.org/1999/xlink" xml:space="preserve" onload="init(evt)">

<style type="text/css"><![CDATA[
.node, .edge {opacity: 0.7;}
.node.selected, .edge.selected {opacity: 1;}
.edge:hover path { stroke: red; }
.edge:hover polygon { stroke: red; fill: red; }
]]></style>

<defs>
  <circle id="rim" cx="0" cy="0" r="7"/>
  <circle id="rim2" cx="0" cy="0" r="3.5"/>
  <g id="zoomPlus">
    <use xlink:href="#rim" fill="#404040"><set attributeName="fill" to="#808080" begin="zoomplus.mouseover" end="zoomplus.mouseout"/></use>
    <path d="M-4,0h8M0,-4v8" fill="none" stroke="white" stroke-width="1.5" pointer-events="none"/>
  </g>
  <g id="zoomMin">
    <use xlink:href="#rim" fill="#404040"><set attributeName="fill" to="#808080" begin="zoomminus.mouseover" end="zoomminus.mouseout"/></use>
    <path d="M-4,0h8" fill="none" stroke="white" stroke-width="1.5" pointer-events="none"/>
  </g>
  <g id="arrowUp" transform="translate(30 24)">
    <use xlink:href="#rim"/>
    <path pointer-events="none" fill="none" stroke="white" stroke-width="1.5" d="M0,-3.0v7 M-2.5,-0.5L0,-3.0L2.5,-0.5"/>
  </g>
  <g id="arrowRight" transform="rotate(90) translate(36 -43)">
    <use xlink:href="#rim"/>
    <path pointer-events="none" fill="none" stroke="white" stroke-width="1.5" d="M0,-3.0v7 M-2.5,-0.5L0,-3.0L2.5,-0.5"/>
  </g>
  <g id="arrowDown" transform="rotate(180) translate(-30 -48)">
    <use xlink:href="#rim"/>
    <path pointer-events="none" fill="none" stroke="white" stroke-width="1.5" d="M0,-3.0v7 M-2.5,-0.5L0,-3.0L2.5,-0.5"/>
  </g>
  <g id="arrowLeft" transform="rotate(270) translate(-36 17)">
    <use xlink:href="#rim"/>
    <path pointer-events="none" fill="none" stroke="white" stroke-width="1.5" d="M0,-3.0v7 M-2.5,-0.5L0,-3.0L2.5,-0.5"/>
  </g>
  <g id="resetDef">
    <use xlink:href="#rim2" fill="#404040"><set attributeName="fill" to="#808080" begin="reset.mouseover" end="reset.mouseout"/></use>
  </g>
</defs>
<script type="application/ecmascript">
var viewWidth = 752;
var viewHeight = 105;
var sectionId = 'dynsection-35';
</script>
<script type="application/ecmascript" xlink:href="../../svg.min.js"/>
<svg id="graph" class="graph">
<g id="viewport">
<title>Arcane::arcaneParallelFor</title>
<!-- Node1 -->
<g id="Node000001" class="node">
<title>Node1</title>
<g id="a_Node000001"><a xlink:title="Applique en concurrence la fonction lambda lambda_function sur l&#39;intervalle d&#39;itération donné par loo...">
<polygon fill="#999999" stroke="#666666" points="140,-45.5 0,-45.5 0,-26.5 140,-26.5 140,-45.5"/>
<text text-anchor="middle" x="70" y="-33.5" font-family="Helvetica,sans-Serif" font-size="10.00">Arcane::arcaneParallelFor</text>
</a>
</g>
</g>
<!-- Node2 -->
<g id="Node000002" class="node">
<title>Node2</title>
<g id="a_Node000002"><a xlink:href="../../d0/d32/namespaceArcane.html#ad3b61ecf1d76b58657b84ebb62e16213" target="_top" xlink:title="Applique en concurrence la fonction lambda lambda_function sur l&#39;intervalle d&#39;itération donné par loo...">
<polygon fill="white" stroke="#666666" points="319,-45.5 176,-45.5 176,-26.5 319,-26.5 319,-45.5"/>
<text text-anchor="middle" x="247.5" y="-33.5" font-family="Helvetica,sans-Serif" font-size="10.00">Arcane::arccoreParallelFor</text>
</a>
</g>
</g>
<!-- Node1&#45;&gt;Node2 -->
<g id="edge1_Node000001_Node000002" class="edge">
<title>Node1&#45;&gt;Node2</title>
<g id="a_edge1_Node000001_Node000002"><a xlink:title=" ">
<path fill="none" stroke="#63b8ff" d="M140.11,-36C148.43,-36 156.98,-36 165.45,-36"/>
<polygon fill="#63b8ff" stroke="#63b8ff" points="165.72,-39.5 175.72,-36 165.72,-32.5 165.72,-39.5"/>
</a>
</g>
</g>
<!-- Node3 -->
<g id="Node000003" class="node">
<title>Node3</title>
<g id="a_Node000003"><a xlink:href="../../d0/d32/namespaceArcane.html#aa00edc33c487a4641fbb1f3791d18498" target="_top" xlink:title="Applique le functor func sur une boucle 1D.">
<polygon fill="white" stroke="#666666" points="514,-67.5 355,-67.5 355,-48.5 514,-48.5 514,-67.5"/>
<text text-anchor="middle" x="434.5" y="-55.5" font-family="Helvetica,sans-Serif" font-size="10.00">Arcane::arccoreSequentialFor</text>
</a>
</g>
</g>
<!-- Node2&#45;&gt;Node3 -->
<g id="edge2_Node000002_Node000003" class="edge">
<title>Node2&#45;&gt;Node3</title>
<g id="a_edge2_Node000002_Node000003"><a xlink:title=" ">
<path fill="none" stroke="#63b8ff" d="M319.23,-44.41C327.59,-45.41 336.2,-46.43 344.77,-47.45"/>
<polygon fill="#63b8ff" stroke="#63b8ff" points="344.44,-50.93 354.78,-48.64 345.27,-43.98 344.44,-50.93"/>
</a>
</g>
</g>
<!-- Node6 -->
<g id="Node000006" class="node">
<title>Node6</title>
<g id="a_Node000006"><a xlink:href="../../d6/d0d/classArcane_1_1TaskFactory.html#a73949ddfeb992edab891aff30258205b" target="_top" xlink:title="Exécute le fonctor f en concurrence.">
<polygon fill="white" stroke="#666666" points="491,-30 378,-30 378,0 491,0 491,-30"/>
<text text-anchor="start" x="386" y="-18" font-family="Helvetica,sans-Serif" font-size="10.00">Arcane::TaskFactory</text>
<text text-anchor="middle" x="434.5" y="-7" font-family="Helvetica,sans-Serif" font-size="10.00">::executeParallelFor</text>
</a>
</g>
</g>
<!-- Node2&#45;&gt;Node6 -->
<g id="edge5_Node000002_Node000006" class="edge">
<title>Node2&#45;&gt;Node6</title>
<g id="a_edge5_Node000002_Node000006"><a xlink:title=" ">
<path fill="none" stroke="#63b8ff" d="M319.23,-27.97C335.13,-26.17 351.94,-24.26 367.63,-22.48"/>
<polygon fill="#63b8ff" stroke="#63b8ff" points="368.22,-25.93 377.76,-21.33 367.43,-18.98 368.22,-25.93"/>
</a>
</g>
</g>
<!-- Node4 -->
<g id="Node000004" class="node">
<title>Node4</title>
<g id="a_Node000004"><a xlink:href="../../d0/df4/classArcane_1_1Impl_1_1HostKernelRemainingArgsHelper.html#aa6907e039ab088950134b4526045fce7" target="_top" xlink:title="Applique les functors des arguments additionnels au début de l&#39;itération.">
<polygon fill="white" stroke="#666666" points="744,-97 550,-97 550,-67 744,-67 744,-97"/>
<text text-anchor="start" x="558" y="-85" font-family="Helvetica,sans-Serif" font-size="10.00">Arcane::Impl::HostKernel</text>
<text text-anchor="middle" x="647" y="-74" font-family="Helvetica,sans-Serif" font-size="10.00">RemainingArgsHelper::applyAtBegin</text>
</a>
</g>
</g>
<!-- Node3&#45;&gt;Node4 -->
<g id="edge3_Node000003_Node000004" class="edge">
<title>Node3&#45;&gt;Node4</title>
<g id="a_edge3_Node000003_Node000004"><a xlink:title=" ">
<path fill="none" stroke="#63b8ff" d="M514.18,-66.97C522.58,-67.93 531.21,-68.91 539.85,-69.9"/>
<polygon fill="#63b8ff" stroke="#63b8ff" points="539.66,-73.4 549.99,-71.05 540.45,-66.44 539.66,-73.4"/>
</a>
</g>
</g>
<!-- Node5 -->
<g id="Node000005" class="node">
<title>Node5</title>
<g id="a_Node000005"><a xlink:href="../../d0/df4/classArcane_1_1Impl_1_1HostKernelRemainingArgsHelper.html#a4decc43fd315baf190f731ec0a883a17" target="_top" xlink:title="Applique les functors des arguments additionnels à la fin de l&#39;itération.">
<polygon fill="white" stroke="#666666" points="739.5,-49 554.5,-49 554.5,-19 739.5,-19 739.5,-49"/>
<text text-anchor="start" x="562.5" y="-37" font-family="Helvetica,sans-Serif" font-size="10.00">Arcane::Impl::HostKernel</text>
<text text-anchor="middle" x="647" y="-26" font-family="Helvetica,sans-Serif" font-size="10.00">RemainingArgsHelper::applyAtEnd</text>
</a>
</g>
</g>
<!-- Node3&#45;&gt;Node5 -->
<g id="edge4_Node000003_Node000005" class="edge">
<title>Node3&#45;&gt;Node5</title>
<g id="a_edge4_Node000003_Node000005"><a xlink:title=" ">
<path fill="none" stroke="#63b8ff" d="M514.18,-49.03C523.99,-47.91 534.13,-46.75 544.23,-45.6"/>
<polygon fill="#63b8ff" stroke="#63b8ff" points="544.75,-49.07 554.29,-44.46 543.96,-42.11 544.75,-49.07"/>
</a>
</g>
</g>
</g>
</svg>

<g id="navigator" transform="translate(0 0)" fill="#404254">
  <rect fill="#f2f5e9" fill-opacity="0.5" stroke="#606060" stroke-width=".5" x="0" y="0" width="60" height="60"/>
  <use id="zoomplus" xlink:href="#zoomPlus" x="17" y="9" onmousedown="handleZoom(evt,'in')"/>
  <use id="zoomminus" xlink:href="#zoomMin" x="42" y="9" onmousedown="handleZoom(evt,'out')"/>
  <use id="reset" xlink:href="#resetDef" x="30" y="36" onmousedown="handleReset()"/>
   <use id="arrowup" xlink:href="#arrowUp" x="0" y="0" onmousedown="handlePan(0,-1)"/>
  <use id="arrowright" xlink:href="#arrowRight" x="0" y="0" onmousedown="handlePan(1,0)"/>
  <use id="arrowdown" xlink:href="#arrowDown" x="0" y="0" onmousedown="handlePan(0,1)"/>
  <use id="arrowleft" xlink:href="#arrowLeft" x="0" y="0" onmousedown="handlePan(-1,0)"/>
</g>
<svg viewBox="0 0 15 15" width="100%" height="30px" preserveAspectRatio="xMaxYMin meet">
 <g id="arrow_out" transform="scale(0.3 0.3)">
  <a xlink:href="namespaceArcane_a1c9609623df220bcb1d3ba1cba9e6d5c_cgraph_org.svg" target="_base">
   <rect id="button" ry="5" rx="5" y="6" x="6" height="38" width="38"
        fill="#f2f5e9" fill-opacity="0.5" stroke="#606060" stroke-width="1.0"/>
   <path id="arrow"
     d="M 11.500037,31.436501 C 11.940474,20.09759 22.043105,11.32322 32.158766,21.979434 L 37.068811,17.246167 C 37.068811,17.246167 37.088388,32 37.088388,32 L 22.160133,31.978069 C 22.160133,31.978069 26.997745,27.140456 26.997745,27.140456 C 18.528582,18.264221 13.291696,25.230495 11.500037,31.436501 z"
     style="fill:#404040;"/>
  </a>
 </g>
</svg>

<style type='text/css'>
<![CDATA[
[data-mouse-over-selected='false'] { opacity: 0.7; }
[data-mouse-over-selected='true']  { opacity: 1.0; }
]]>
</style>
<script type="application/ecmascript"><![CDATA[
document.addEventListener('DOMContentLoaded', (event) => {
  highlightEdges();
  highlightAdjacentNodes();
});
]]></script>
</svg>
