<?xml version="1.0" encoding="UTF-8" standalone="no"?>
<!DOCTYPE svg PUBLIC "-//W3C//DTD SVG 1.1//EN"
 "http://www.w3.org/Graphics/SVG/1.1/DTD/svg11.dtd">
<!-- Generated by graphviz version 2.43.0 (0)
 -->
<!-- Title: Arcane::arcaneCreateSerializedDataRef Pages: 1 -->
<!--zoomable 374 -->

<svg id="main" version="1.1" xmlns="http://www.w3.org/2000/svg" xmlns:xlink="http://www.w3.org/1999/xlink" xml:space="preserve" onload="init(evt)">

<style type="text/css"><![CDATA[
.node, .edge {opacity: 0.7;}
.node.selected, .edge.selected {opacity: 1;}
.edge:hover path { stroke: red; }
.edge:hover polygon { stroke: red; fill: red; }
]]></style>

<defs>
  <circle id="rim" cx="0" cy="0" r="7"/>
  <circle id="rim2" cx="0" cy="0" r="3.5"/>
  <g id="zoomPlus">
    <use xlink:href="#rim" fill="#404040"><set attributeName="fill" to="#808080" begin="zoomplus.mouseover" end="zoomplus.mouseout"/></use>
    <path d="M-4,0h8M0,-4v8" fill="none" stroke="white" stroke-width="1.5" pointer-events="none"/>
  </g>
  <g id="zoomMin">
    <use xlink:href="#rim" fill="#404040"><set attributeName="fill" to="#808080" begin="zoomminus.mouseover" end="zoomminus.mouseout"/></use>
    <path d="M-4,0h8" fill="none" stroke="white" stroke-width="1.5" pointer-events="none"/>
  </g>
  <g id="arrowUp" transform="translate(30 24)">
    <use xlink:href="#rim"/>
    <path pointer-events="none" fill="none" stroke="white" stroke-width="1.5" d="M0,-3.0v7 M-2.5,-0.5L0,-3.0L2.5,-0.5"/>
  </g>
  <g id="arrowRight" transform="rotate(90) translate(36 -43)">
    <use xlink:href="#rim"/>
    <path pointer-events="none" fill="none" stroke="white" stroke-width="1.5" d="M0,-3.0v7 M-2.5,-0.5L0,-3.0L2.5,-0.5"/>
  </g>
  <g id="arrowDown" transform="rotate(180) translate(-30 -48)">
    <use xlink:href="#rim"/>
    <path pointer-events="none" fill="none" stroke="white" stroke-width="1.5" d="M0,-3.0v7 M-2.5,-0.5L0,-3.0L2.5,-0.5"/>
  </g>
  <g id="arrowLeft" transform="rotate(270) translate(-36 17)">
    <use xlink:href="#rim"/>
    <path pointer-events="none" fill="none" stroke="white" stroke-width="1.5" d="M0,-3.0v7 M-2.5,-0.5L0,-3.0L2.5,-0.5"/>
  </g>
  <g id="resetDef">
    <use xlink:href="#rim2" fill="#404040"><set attributeName="fill" to="#808080" begin="reset.mouseover" end="reset.mouseout"/></use>
  </g>
</defs>
<script type="application/ecmascript">
var viewWidth = 525;
var viewHeight = 374;
var sectionId = 'dynsection-13';
</script>
<script type="application/ecmascript" xlink:href="../../svg.min.js"/>
<svg id="graph" class="graph">
<g id="viewport">
<title>Arcane::arcaneCreateSerializedDataRef</title>
<!-- Node1 -->
<g id="Node000001" class="node">
<title>Node1</title>
<g id="a_Node000001"><a xlink:title="Créé des données sérialisées.">
<polygon fill="#999999" stroke="#666666" points="517,-198 347,-198 347,-168 517,-168 517,-198"/>
<text text-anchor="start" x="355" y="-186" font-family="Helvetica,sans-Serif" font-size="10.00">Arcane::arcaneCreateSerialized</text>
<text text-anchor="middle" x="432" y="-175" font-family="Helvetica,sans-Serif" font-size="10.00">DataRef</text>
</a>
</g>
</g>
<!-- Node1&#45;&gt;Node1 -->
<g id="edge1_Node000001_Node000001" class="edge">
<title>Node1&#45;&gt;Node1</title>
<g id="a_edge1_Node000001_Node000001"><a xlink:title=" ">
<path fill="none" stroke="#63b8ff" d="M465.26,-208.6C460.71,-212.97 449.63,-216 432,-216 402.31,-216 391.18,-207.41 398.6,-198.28"/>
<polygon fill="#63b8ff" stroke="#63b8ff" points="468.76,-208.32 465.4,-198.28 461.76,-208.23 468.76,-208.32"/>
</a>
</g>
</g>
<!-- Node2 -->
<g id="Node000002" class="node">
<title>Node2</title>
<g id="a_Node000002"><a xlink:href="../../d9/d08/classArcane_1_1ISerializedData.html#ace79d022ebcd28bcc2bad5842037cb78" target="_top" xlink:title="Valeurs sérialisées.">
<polygon fill="white" stroke="#666666" points="306,-366 175,-366 175,-336 306,-336 306,-366"/>
<text text-anchor="start" x="183" y="-354" font-family="Helvetica,sans-Serif" font-size="10.00">Arcane::ISerializedData</text>
<text text-anchor="middle" x="240.5" y="-343" font-family="Helvetica,sans-Serif" font-size="10.00">::bytes</text>
</a>
</g>
</g>
<!-- Node1&#45;&gt;Node2 -->
<g id="edge2_Node000001_Node000002" class="edge">
<title>Node1&#45;&gt;Node2</title>
<g id="a_edge2_Node000001_Node000002"><a xlink:title=" ">
<path fill="none" stroke="#63b8ff" d="M416.86,-207.05C397.03,-238.81 358.04,-294.52 311,-327 306.06,-330.41 300.6,-333.37 294.96,-335.95"/>
<polygon fill="#63b8ff" stroke="#63b8ff" points="419.93,-208.74 422.17,-198.39 413.96,-205.09 419.93,-208.74"/>
</a>
</g>
</g>
<!-- Node3 -->
<g id="Node000003" class="node">
<title>Node3</title>
<g id="a_Node000003"><a xlink:href="../../de/dfa/classArcane_1_1Array2DataT.html#a550565b766231bf7312db3904cadbd90" target="_top" xlink:title="Sérialise la donnée.">
<polygon fill="white" stroke="#666666" points="311,-318 170,-318 170,-288 311,-288 311,-318"/>
<text text-anchor="start" x="178" y="-306" font-family="Helvetica,sans-Serif" font-size="10.00">Arcane::Array2DataT</text>
<text text-anchor="middle" x="240.5" y="-295" font-family="Helvetica,sans-Serif" font-size="10.00">::createSerializedDataRef</text>
</a>
</g>
</g>
<!-- Node1&#45;&gt;Node3 -->
<g id="edge3_Node000001_Node000003" class="edge">
<title>Node1&#45;&gt;Node3</title>
<g id="a_edge3_Node000001_Node000003"><a xlink:title=" ">
<path fill="none" stroke="#63b8ff" d="M408.08,-205.36C385.13,-226.72 348,-258.61 311,-279 304.96,-282.33 298.38,-285.32 291.75,-287.97"/>
<polygon fill="#63b8ff" stroke="#63b8ff" points="410.72,-207.68 415.59,-198.27 405.91,-202.59 410.72,-207.68"/>
</a>
</g>
</g>
<!-- Node4 -->
<g id="Node000004" class="node">
<title>Node4</title>
<g id="a_Node000004"><a xlink:href="../../d6/dbe/classArcane_1_1ArrayDataT.html#a146d32a89fdbfdc22a187f81d5dcc751" target="_top" xlink:title="Sérialise la donnée.">
<polygon fill="white" stroke="#666666" points="311,-270 170,-270 170,-240 311,-240 311,-270"/>
<text text-anchor="start" x="178" y="-258" font-family="Helvetica,sans-Serif" font-size="10.00">Arcane::ArrayDataT</text>
<text text-anchor="middle" x="240.5" y="-247" font-family="Helvetica,sans-Serif" font-size="10.00">::createSerializedDataRef</text>
</a>
</g>
</g>
<!-- Node1&#45;&gt;Node4 -->
<g id="edge4_Node000001_Node000004" class="edge">
<title>Node1&#45;&gt;Node4</title>
<g id="a_edge4_Node000001_Node000004"><a xlink:title=" ">
<path fill="none" stroke="#63b8ff" d="M385.14,-201.95C362.86,-210.99 335.64,-221.83 311,-231 302.99,-233.98 294.41,-237.05 286.1,-239.95"/>
<polygon fill="#63b8ff" stroke="#63b8ff" points="386.74,-205.07 394.68,-198.06 384.1,-198.59 386.74,-205.07"/>
</a>
</g>
</g>
<!-- Node5 -->
<g id="Node000005" class="node">
<title>Node5</title>
<g id="a_Node000005"><a xlink:href="../../db/d7d/classArcane_1_1DataFactoryMng.html#a8d3dc1200261de343d460db22e3d4ea0" target="_top" xlink:title="Créé des données sérialisées.">
<polygon fill="white" stroke="#666666" points="311,-222 170,-222 170,-192 311,-192 311,-222"/>
<text text-anchor="start" x="178" y="-210" font-family="Helvetica,sans-Serif" font-size="10.00">Arcane::DataFactoryMng</text>
<text text-anchor="middle" x="240.5" y="-199" font-family="Helvetica,sans-Serif" font-size="10.00">::createSerializedDataRef</text>
</a>
</g>
</g>
<!-- Node1&#45;&gt;Node5 -->
<g id="edge5_Node000001_Node000005" class="edge">
<title>Node1&#45;&gt;Node5</title>
<g id="a_edge5_Node000001_Node000005"><a xlink:title=" ">
<path fill="none" stroke="#63b8ff" d="M336.73,-194.94C328.16,-196.02 319.58,-197.11 311.28,-198.16"/>
<polygon fill="#63b8ff" stroke="#63b8ff" points="337.3,-198.4 346.78,-193.67 336.42,-191.45 337.3,-198.4"/>
</a>
</g>
</g>
<!-- Node6 -->
<g id="Node000006" class="node">
<title>Node6</title>
<g id="a_Node000006"><a xlink:href="../../d2/ddf/classArcane_1_1NumArrayDataT.html#a1134f72f0389964bab911e597d5652ac" target="_top" xlink:title="Sérialise la donnée.">
<polygon fill="white" stroke="#666666" points="311,-174 170,-174 170,-144 311,-144 311,-174"/>
<text text-anchor="start" x="178" y="-162" font-family="Helvetica,sans-Serif" font-size="10.00">Arcane::NumArrayDataT</text>
<text text-anchor="middle" x="240.5" y="-151" font-family="Helvetica,sans-Serif" font-size="10.00">::createSerializedDataRef</text>
</a>
</g>
</g>
<!-- Node1&#45;&gt;Node6 -->
<g id="edge6_Node000001_Node000006" class="edge">
<title>Node1&#45;&gt;Node6</title>
<g id="a_edge6_Node000001_Node000006"><a xlink:title=" ">
<path fill="none" stroke="#63b8ff" d="M336.73,-171.06C328.16,-169.98 319.58,-168.89 311.28,-167.84"/>
<polygon fill="#63b8ff" stroke="#63b8ff" points="336.42,-174.55 346.78,-172.33 337.3,-167.6 336.42,-174.55"/>
</a>
</g>
</g>
<!-- Node7 -->
<g id="Node000007" class="node">
<title>Node7</title>
<g id="a_Node000007"><a xlink:href="../../df/dbb/classArcane_1_1ScalarDataT.html#aebe226d23d28da5ba90f2fab7a50c195" target="_top" xlink:title="Sérialise la donnée.">
<polygon fill="white" stroke="#666666" points="311,-126 170,-126 170,-96 311,-96 311,-126"/>
<text text-anchor="start" x="178" y="-114" font-family="Helvetica,sans-Serif" font-size="10.00">Arcane::ScalarDataT</text>
<text text-anchor="middle" x="240.5" y="-103" font-family="Helvetica,sans-Serif" font-size="10.00">::createSerializedDataRef</text>
</a>
</g>
</g>
<!-- Node1&#45;&gt;Node7 -->
<g id="edge7_Node000001_Node000007" class="edge">
<title>Node1&#45;&gt;Node7</title>
<g id="a_edge7_Node000001_Node000007"><a xlink:title=" ">
<path fill="none" stroke="#63b8ff" d="M385.14,-164.05C362.86,-155.01 335.64,-144.17 311,-135 302.99,-132.02 294.41,-128.95 286.1,-126.05"/>
<polygon fill="#63b8ff" stroke="#63b8ff" points="384.1,-167.41 394.68,-167.94 386.74,-160.93 384.1,-167.41"/>
</a>
</g>
</g>
<!-- Node8 -->
<g id="Node000008" class="node">
<title>Node8</title>
<g id="a_Node000008"><a xlink:href="../../dd/d85/classArcane_1_1StringArrayData.html#a265a16339565200f9f45f4add036b811" target="_top" xlink:title="Sérialise la donnée.">
<polygon fill="white" stroke="#666666" points="311,-78 170,-78 170,-48 311,-48 311,-78"/>
<text text-anchor="start" x="178" y="-66" font-family="Helvetica,sans-Serif" font-size="10.00">Arcane::StringArrayData</text>
<text text-anchor="middle" x="240.5" y="-55" font-family="Helvetica,sans-Serif" font-size="10.00">::createSerializedDataRef</text>
</a>
</g>
</g>
<!-- Node1&#45;&gt;Node8 -->
<g id="edge8_Node000001_Node000008" class="edge">
<title>Node1&#45;&gt;Node8</title>
<g id="a_edge8_Node000001_Node000008"><a xlink:title=" ">
<path fill="none" stroke="#63b8ff" d="M408.08,-160.64C385.13,-139.28 348,-107.39 311,-87 304.96,-83.67 298.38,-80.68 291.75,-78.03"/>
<polygon fill="#63b8ff" stroke="#63b8ff" points="405.91,-163.41 415.59,-167.73 410.72,-158.32 405.91,-163.41"/>
</a>
</g>
</g>
<!-- Node10 -->
<g id="Node000010" class="node">
<title>Node10</title>
<g id="a_Node000010"><a xlink:href="../../d4/de8/classArcane_1_1StringScalarData.html#a80c60091bbb37f68251b8e6e4a9ffac4" target="_top" xlink:title="Sérialise la donnée.">
<polygon fill="white" stroke="#666666" points="311,-30 170,-30 170,0 311,0 311,-30"/>
<text text-anchor="start" x="178" y="-18" font-family="Helvetica,sans-Serif" font-size="10.00">Arcane::StringScalarData</text>
<text text-anchor="middle" x="240.5" y="-7" font-family="Helvetica,sans-Serif" font-size="10.00">::createSerializedDataRef</text>
</a>
</g>
</g>
<!-- Node1&#45;&gt;Node10 -->
<g id="edge10_Node000001_Node000010" class="edge">
<title>Node1&#45;&gt;Node10</title>
<g id="a_edge10_Node000001_Node000010"><a xlink:title=" ">
<path fill="none" stroke="#63b8ff" d="M416.86,-158.95C397.03,-127.19 358.04,-71.48 311,-39 306.06,-35.59 300.6,-32.63 294.96,-30.05"/>
<polygon fill="#63b8ff" stroke="#63b8ff" points="413.96,-160.91 422.17,-167.61 419.93,-157.26 413.96,-160.91"/>
</a>
</g>
</g>
<!-- Node9 -->
<g id="Node000009" class="node">
<title>Node9</title>
<g id="a_Node000009"><a xlink:href="../../dd/d85/classArcane_1_1StringArrayData.html#a638ce3241bd48ccc2b41f64f4c460ed8" target="_top" xlink:title="Calcul une clé de hashage sur cette donnée.">
<polygon fill="white" stroke="#666666" points="134,-78 0,-78 0,-48 134,-48 134,-78"/>
<text text-anchor="start" x="8" y="-66" font-family="Helvetica,sans-Serif" font-size="10.00">Arcane::StringArrayData</text>
<text text-anchor="middle" x="67" y="-55" font-family="Helvetica,sans-Serif" font-size="10.00">::computeHash</text>
</a>
</g>
</g>
<!-- Node8&#45;&gt;Node9 -->
<g id="edge9_Node000008_Node000009" class="edge">
<title>Node8&#45;&gt;Node9</title>
<g id="a_edge9_Node000008_Node000009"><a xlink:title=" ">
<path fill="none" stroke="#63b8ff" d="M159.73,-63C151.15,-63 142.49,-63 134.09,-63"/>
<polygon fill="#63b8ff" stroke="#63b8ff" points="159.74,-66.5 169.74,-63 159.74,-59.5 159.74,-66.5"/>
</a>
</g>
</g>
</g>
</svg>

<g id="navigator" transform="translate(0 0)" fill="#404254">
  <rect fill="#f2f5e9" fill-opacity="0.5" stroke="#606060" stroke-width=".5" x="0" y="0" width="60" height="60"/>
  <use id="zoomplus" xlink:href="#zoomPlus" x="17" y="9" onmousedown="handleZoom(evt,'in')"/>
  <use id="zoomminus" xlink:href="#zoomMin" x="42" y="9" onmousedown="handleZoom(evt,'out')"/>
  <use id="reset" xlink:href="#resetDef" x="30" y="36" onmousedown="handleReset()"/>
   <use id="arrowup" xlink:href="#arrowUp" x="0" y="0" onmousedown="handlePan(0,-1)"/>
  <use id="arrowright" xlink:href="#arrowRight" x="0" y="0" onmousedown="handlePan(1,0)"/>
  <use id="arrowdown" xlink:href="#arrowDown" x="0" y="0" onmousedown="handlePan(0,1)"/>
  <use id="arrowleft" xlink:href="#arrowLeft" x="0" y="0" onmousedown="handlePan(-1,0)"/>
</g>
<svg viewBox="0 0 15 15" width="100%" height="30px" preserveAspectRatio="xMaxYMin meet">
 <g id="arrow_out" transform="scale(0.3 0.3)">
  <a xlink:href="namespaceArcane_a17928344889d1dd13d16fcd6593929ad_icgraph_org.svg" target="_base">
   <rect id="button" ry="5" rx="5" y="6" x="6" height="38" width="38"
        fill="#f2f5e9" fill-opacity="0.5" stroke="#606060" stroke-width="1.0"/>
   <path id="arrow"
     d="M 11.500037,31.436501 C 11.940474,20.09759 22.043105,11.32322 32.158766,21.979434 L 37.068811,17.246167 C 37.068811,17.246167 37.088388,32 37.088388,32 L 22.160133,31.978069 C 22.160133,31.978069 26.997745,27.140456 26.997745,27.140456 C 18.528582,18.264221 13.291696,25.230495 11.500037,31.436501 z"
     style="fill:#404040;"/>
  </a>
 </g>
</svg>

<style type='text/css'>
<![CDATA[
[data-mouse-over-selected='false'] { opacity: 0.7; }
[data-mouse-over-selected='true']  { opacity: 1.0; }
]]>
</style>
<script type="application/ecmascript"><![CDATA[
document.addEventListener('DOMContentLoaded', (event) => {
  highlightEdges();
  highlightAdjacentNodes();
});
]]></script>
</svg>
