<?xml version="1.0" encoding="UTF-8" standalone="no"?>
<!DOCTYPE svg PUBLIC "-//W3C//DTD SVG 1.1//EN"
 "http://www.w3.org/Graphics/SVG/1.1/DTD/svg11.dtd">
<!-- Generated by graphviz version 2.43.0 (0)
 -->
<!-- Title: Arcane::arcaneIsDebug Pages: 1 -->
<!--zoomable 278 -->

<svg id="main" version="1.1" xmlns="http://www.w3.org/2000/svg" xmlns:xlink="http://www.w3.org/1999/xlink" xml:space="preserve" onload="init(evt)">

<style type="text/css"><![CDATA[
.node, .edge {opacity: 0.7;}
.node.selected, .edge.selected {opacity: 1;}
.edge:hover path { stroke: red; }
.edge:hover polygon { stroke: red; fill: red; }
]]></style>

<defs>
  <circle id="rim" cx="0" cy="0" r="7"/>
  <circle id="rim2" cx="0" cy="0" r="3.5"/>
  <g id="zoomPlus">
    <use xlink:href="#rim" fill="#404040"><set attributeName="fill" to="#808080" begin="zoomplus.mouseover" end="zoomplus.mouseout"/></use>
    <path d="M-4,0h8M0,-4v8" fill="none" stroke="white" stroke-width="1.5" pointer-events="none"/>
  </g>
  <g id="zoomMin">
    <use xlink:href="#rim" fill="#404040"><set attributeName="fill" to="#808080" begin="zoomminus.mouseover" end="zoomminus.mouseout"/></use>
    <path d="M-4,0h8" fill="none" stroke="white" stroke-width="1.5" pointer-events="none"/>
  </g>
  <g id="arrowUp" transform="translate(30 24)">
    <use xlink:href="#rim"/>
    <path pointer-events="none" fill="none" stroke="white" stroke-width="1.5" d="M0,-3.0v7 M-2.5,-0.5L0,-3.0L2.5,-0.5"/>
  </g>
  <g id="arrowRight" transform="rotate(90) translate(36 -43)">
    <use xlink:href="#rim"/>
    <path pointer-events="none" fill="none" stroke="white" stroke-width="1.5" d="M0,-3.0v7 M-2.5,-0.5L0,-3.0L2.5,-0.5"/>
  </g>
  <g id="arrowDown" transform="rotate(180) translate(-30 -48)">
    <use xlink:href="#rim"/>
    <path pointer-events="none" fill="none" stroke="white" stroke-width="1.5" d="M0,-3.0v7 M-2.5,-0.5L0,-3.0L2.5,-0.5"/>
  </g>
  <g id="arrowLeft" transform="rotate(270) translate(-36 17)">
    <use xlink:href="#rim"/>
    <path pointer-events="none" fill="none" stroke="white" stroke-width="1.5" d="M0,-3.0v7 M-2.5,-0.5L0,-3.0L2.5,-0.5"/>
  </g>
  <g id="resetDef">
    <use xlink:href="#rim2" fill="#404040"><set attributeName="fill" to="#808080" begin="reset.mouseover" end="reset.mouseout"/></use>
  </g>
</defs>
<script type="application/ecmascript">
var viewWidth = 760;
var viewHeight = 278;
var sectionId = 'dynsection-27';
</script>
<script type="application/ecmascript" xlink:href="../../svg.min.js"/>
<svg id="graph" class="graph">
<g id="viewport">
<title>Arcane::arcaneIsDebug</title>
<!-- Node1 -->
<g id="Node000001" class="node">
<title>Node1</title>
<g id="a_Node000001"><a xlink:title="Vrai si la macro ARCANE_DEBUG est définie.">
<polygon fill="#999999" stroke="#666666" points="752,-120.5 623,-120.5 623,-101.5 752,-101.5 752,-120.5"/>
<text text-anchor="middle" x="687.5" y="-108.5" font-family="Helvetica,sans-Serif" font-size="10.00">Arcane::arcaneIsDebug</text>
</a>
</g>
</g>
<!-- Node2 -->
<g id="Node000002" class="node">
<title>Node2</title>
<g id="a_Node000002"><a xlink:href="../../dc/d2d/classArcane_1_1mesh_1_1MeshRefinement.html#afa9416f024829475604b1673984e0f17" target="_top" xlink:title=" ">
<polygon fill="white" stroke="#666666" points="585.5,-222 413.5,-222 413.5,-192 585.5,-192 585.5,-222"/>
<text text-anchor="start" x="421.5" y="-210" font-family="Helvetica,sans-Serif" font-size="10.00">Arcane::mesh::MeshRefinement</text>
<text text-anchor="middle" x="499.5" y="-199" font-family="Helvetica,sans-Serif" font-size="10.00">::_contract</text>
</a>
</g>
</g>
<!-- Node1&#45;&gt;Node2 -->
<g id="edge1_Node000001_Node000002" class="edge">
<title>Node1&#45;&gt;Node2</title>
<g id="a_edge1_Node000001_Node000002"><a xlink:title=" ">
<path fill="none" stroke="#63b8ff" d="M668.4,-127.19C649.37,-143.43 617.96,-168.1 587,-183 579.98,-186.38 572.4,-189.35 564.75,-191.95"/>
<polygon fill="#63b8ff" stroke="#63b8ff" points="670.73,-129.8 675.99,-120.6 666.14,-124.51 670.73,-129.8"/>
</a>
</g>
</g>
<!-- Node5 -->
<g id="Node000005" class="node">
<title>Node5</title>
<g id="a_Node000005"><a xlink:href="../../d2/dd4/classArcane_1_1SplitSDMeshPartitioner.html#a3145ee52a158ad46d41091aaaf90bade" target="_top" xlink:title="calcul un deltaMin en fonction des transferts locaux">
<polygon fill="white" stroke="#666666" points="583.5,-174 415.5,-174 415.5,-144 583.5,-144 583.5,-174"/>
<text text-anchor="start" x="423.5" y="-162" font-family="Helvetica,sans-Serif" font-size="10.00">Arcane::SplitSDMeshPartitioner</text>
<text text-anchor="middle" x="499.5" y="-151" font-family="Helvetica,sans-Serif" font-size="10.00">::CalculDeltaMin</text>
</a>
</g>
</g>
<!-- Node1&#45;&gt;Node5 -->
<g id="edge4_Node000001_Node000005" class="edge">
<title>Node1&#45;&gt;Node5</title>
<g id="a_edge4_Node000001_Node000005"><a xlink:title=" ">
<path fill="none" stroke="#63b8ff" d="M639.53,-123.12C615.04,-129.44 584.85,-137.23 558.87,-143.94"/>
<polygon fill="#63b8ff" stroke="#63b8ff" points="640.5,-126.49 649.31,-120.6 638.75,-119.71 640.5,-126.49"/>
</a>
</g>
</g>
<!-- Node8 -->
<g id="Node000008" class="node">
<title>Node8</title>
<g id="a_Node000008"><a xlink:href="../../d8/d7a/classArcane_1_1ItemGroupDynamicMeshObserver.html#af4d179c5da70e09cd7ca7c4a590f5a0f" target="_top" xlink:title="Éxecute l&#39;action associée au compactage.">
<polygon fill="white" stroke="#666666" points="587,-126 412,-126 412,-96 587,-96 587,-126"/>
<text text-anchor="start" x="420" y="-114" font-family="Helvetica,sans-Serif" font-size="10.00">Arcane::ItemGroupDynamic</text>
<text text-anchor="middle" x="499.5" y="-103" font-family="Helvetica,sans-Serif" font-size="10.00">MeshObserver::executeCompact</text>
</a>
</g>
</g>
<!-- Node1&#45;&gt;Node8 -->
<g id="edge7_Node000001_Node000008" class="edge">
<title>Node1&#45;&gt;Node8</title>
<g id="a_edge7_Node000001_Node000008"><a xlink:title=" ">
<path fill="none" stroke="#63b8ff" d="M612.66,-111C604.29,-111 595.7,-111 587.18,-111"/>
<polygon fill="#63b8ff" stroke="#63b8ff" points="612.75,-114.5 622.75,-111 612.75,-107.5 612.75,-114.5"/>
</a>
</g>
</g>
<!-- Node9 -->
<g id="Node000009" class="node">
<title>Node9</title>
<g id="a_Node000009"><a xlink:href="../../d6/dbe/classArcane_1_1ArrayDataT.html#a2552cfe7723025cce5d54838bdd6ef38" target="_top" xlink:title="Sérialise la donnée en appliquant l&#39;opération operation.">
<polygon fill="white" stroke="#666666" points="555.5,-78 443.5,-78 443.5,-48 555.5,-48 555.5,-78"/>
<text text-anchor="start" x="451.5" y="-66" font-family="Helvetica,sans-Serif" font-size="10.00">Arcane::ArrayDataT</text>
<text text-anchor="middle" x="499.5" y="-55" font-family="Helvetica,sans-Serif" font-size="10.00">::serialize</text>
</a>
</g>
</g>
<!-- Node1&#45;&gt;Node9 -->
<g id="edge8_Node000001_Node000009" class="edge">
<title>Node1&#45;&gt;Node9</title>
<g id="a_edge8_Node000001_Node000009"><a xlink:title=" ">
<path fill="none" stroke="#63b8ff" d="M639.5,-98.87C613.98,-92.29 582.3,-84.11 555.62,-77.22"/>
<polygon fill="#63b8ff" stroke="#63b8ff" points="638.75,-102.29 649.31,-101.4 640.5,-95.51 638.75,-102.29"/>
</a>
</g>
</g>
<!-- Node10 -->
<g id="Node000010" class="node">
<title>Node10</title>
<g id="a_Node000010"><a xlink:href="../../d2/dd7/classArcane_1_1ItemFamilyVariableSerializer.html#a084411e4fb3ad9231c160d5d85ad5fe7" target="_top" xlink:title=" ">
<polygon fill="white" stroke="#666666" points="575,-30 424,-30 424,0 575,0 575,-30"/>
<text text-anchor="start" x="432" y="-18" font-family="Helvetica,sans-Serif" font-size="10.00">Arcane::ItemFamilyVariable</text>
<text text-anchor="middle" x="499.5" y="-7" font-family="Helvetica,sans-Serif" font-size="10.00">Serializer::serialize</text>
</a>
</g>
</g>
<!-- Node1&#45;&gt;Node10 -->
<g id="edge9_Node000001_Node000010" class="edge">
<title>Node1&#45;&gt;Node10</title>
<g id="a_edge9_Node000001_Node000010"><a xlink:title=" ">
<path fill="none" stroke="#63b8ff" d="M668.4,-94.81C649.37,-78.57 617.96,-53.9 587,-39 579.98,-35.62 572.4,-32.65 564.75,-30.05"/>
<polygon fill="#63b8ff" stroke="#63b8ff" points="666.14,-97.49 675.99,-101.4 670.73,-92.2 666.14,-97.49"/>
</a>
</g>
</g>
<!-- Node3 -->
<g id="Node000003" class="node">
<title>Node3</title>
<g id="a_Node000003"><a xlink:href="../../dc/d2d/classArcane_1_1mesh_1_1MeshRefinement.html#ae34593805186006d77df2ac90997be5d" target="_top" xlink:title=" ">
<polygon fill="white" stroke="#666666" points="376,-270 204,-270 204,-240 376,-240 376,-270"/>
<text text-anchor="start" x="212" y="-258" font-family="Helvetica,sans-Serif" font-size="10.00">Arcane::mesh::MeshRefinement</text>
<text text-anchor="middle" x="290" y="-247" font-family="Helvetica,sans-Serif" font-size="10.00">::coarsenItems</text>
</a>
</g>
</g>
<!-- Node2&#45;&gt;Node3 -->
<g id="edge2_Node000002_Node000003" class="edge">
<title>Node2&#45;&gt;Node3</title>
<g id="a_edge2_Node000002_Node000003"><a xlink:title=" ">
<path fill="none" stroke="#63b8ff" d="M423.4,-224.37C401.28,-229.49 377.27,-235.04 355.85,-240"/>
<polygon fill="#63b8ff" stroke="#63b8ff" points="424.46,-227.72 433.42,-222.06 422.88,-220.9 424.46,-227.72"/>
</a>
</g>
</g>
<!-- Node4 -->
<g id="Node000004" class="node">
<title>Node4</title>
<g id="a_Node000004"><a xlink:href="../../dc/d2d/classArcane_1_1mesh_1_1MeshRefinement.html#a61127955b9db295cb59a82007768fd1a" target="_top" xlink:title=" ">
<polygon fill="white" stroke="#666666" points="376,-222 204,-222 204,-192 376,-192 376,-222"/>
<text text-anchor="start" x="212" y="-210" font-family="Helvetica,sans-Serif" font-size="10.00">Arcane::mesh::MeshRefinement</text>
<text text-anchor="middle" x="290" y="-199" font-family="Helvetica,sans-Serif" font-size="10.00">::refineAndCoarsenItems</text>
</a>
</g>
</g>
<!-- Node2&#45;&gt;Node4 -->
<g id="edge3_Node000002_Node000004" class="edge">
<title>Node2&#45;&gt;Node4</title>
<g id="a_edge3_Node000002_Node000004"><a xlink:title=" ">
<path fill="none" stroke="#63b8ff" d="M403.14,-207C394.19,-207 385.15,-207 376.3,-207"/>
<polygon fill="#63b8ff" stroke="#63b8ff" points="403.2,-210.5 413.2,-207 403.2,-203.5 403.2,-210.5"/>
</a>
</g>
</g>
<!-- Node6 -->
<g id="Node000006" class="node">
<title>Node6</title>
<g id="a_Node000006"><a xlink:href="../../d2/dd4/classArcane_1_1SplitSDMeshPartitioner.html#add24e7933ac069d041ffea6a5b1f2530" target="_top" xlink:title="phase itérative pour équilibrer la charge">
<polygon fill="white" stroke="#666666" points="374,-174 206,-174 206,-144 374,-144 374,-174"/>
<text text-anchor="start" x="214" y="-162" font-family="Helvetica,sans-Serif" font-size="10.00">Arcane::SplitSDMeshPartitioner</text>
<text text-anchor="middle" x="290" y="-151" font-family="Helvetica,sans-Serif" font-size="10.00">::Equilibrage</text>
</a>
</g>
</g>
<!-- Node5&#45;&gt;Node6 -->
<g id="edge5_Node000005_Node000006" class="edge">
<title>Node5&#45;&gt;Node6</title>
<g id="a_edge5_Node000005_Node000006"><a xlink:title=" ">
<path fill="none" stroke="#63b8ff" d="M405.07,-159C394.79,-159 384.37,-159 374.22,-159"/>
<polygon fill="#63b8ff" stroke="#63b8ff" points="405.3,-162.5 415.3,-159 405.3,-155.5 405.3,-162.5"/>
</a>
</g>
</g>
<!-- Node7 -->
<g id="Node000007" class="node">
<title>Node7</title>
<g id="a_Node000007"><a xlink:href="../../d2/dd4/classArcane_1_1SplitSDMeshPartitioner.html#a9e68a31b54f4b328bf7842c3184baa2e" target="_top" xlink:title=" ">
<polygon fill="white" stroke="#666666" points="168,-174 0,-174 0,-144 168,-144 168,-174"/>
<text text-anchor="start" x="8" y="-162" font-family="Helvetica,sans-Serif" font-size="10.00">Arcane::SplitSDMeshPartitioner</text>
<text text-anchor="middle" x="84" y="-151" font-family="Helvetica,sans-Serif" font-size="10.00">::partitionMesh</text>
</a>
</g>
</g>
<!-- Node6&#45;&gt;Node7 -->
<g id="edge6_Node000006_Node000007" class="edge">
<title>Node6&#45;&gt;Node7</title>
<g id="a_edge6_Node000006_Node000007"><a xlink:title=" ">
<path fill="none" stroke="#63b8ff" d="M195.45,-159C186.29,-159 177.04,-159 168,-159"/>
<polygon fill="#63b8ff" stroke="#63b8ff" points="195.73,-162.5 205.73,-159 195.73,-155.5 195.73,-162.5"/>
</a>
</g>
</g>
</g>
</svg>

<g id="navigator" transform="translate(0 0)" fill="#404254">
  <rect fill="#f2f5e9" fill-opacity="0.5" stroke="#606060" stroke-width=".5" x="0" y="0" width="60" height="60"/>
  <use id="zoomplus" xlink:href="#zoomPlus" x="17" y="9" onmousedown="handleZoom(evt,'in')"/>
  <use id="zoomminus" xlink:href="#zoomMin" x="42" y="9" onmousedown="handleZoom(evt,'out')"/>
  <use id="reset" xlink:href="#resetDef" x="30" y="36" onmousedown="handleReset()"/>
   <use id="arrowup" xlink:href="#arrowUp" x="0" y="0" onmousedown="handlePan(0,-1)"/>
  <use id="arrowright" xlink:href="#arrowRight" x="0" y="0" onmousedown="handlePan(1,0)"/>
  <use id="arrowdown" xlink:href="#arrowDown" x="0" y="0" onmousedown="handlePan(0,1)"/>
  <use id="arrowleft" xlink:href="#arrowLeft" x="0" y="0" onmousedown="handlePan(-1,0)"/>
</g>
<svg viewBox="0 0 15 15" width="100%" height="30px" preserveAspectRatio="xMaxYMin meet">
 <g id="arrow_out" transform="scale(0.3 0.3)">
  <a xlink:href="namespaceArcane_a898d66f14bb92f7c3b5d1a0858260b36_icgraph_org.svg" target="_base">
   <rect id="button" ry="5" rx="5" y="6" x="6" height="38" width="38"
        fill="#f2f5e9" fill-opacity="0.5" stroke="#606060" stroke-width="1.0"/>
   <path id="arrow"
     d="M 11.500037,31.436501 C 11.940474,20.09759 22.043105,11.32322 32.158766,21.979434 L 37.068811,17.246167 C 37.068811,17.246167 37.088388,32 37.088388,32 L 22.160133,31.978069 C 22.160133,31.978069 26.997745,27.140456 26.997745,27.140456 C 18.528582,18.264221 13.291696,25.230495 11.500037,31.436501 z"
     style="fill:#404040;"/>
  </a>
 </g>
</svg>

<style type='text/css'>
<![CDATA[
[data-mouse-over-selected='false'] { opacity: 0.7; }
[data-mouse-over-selected='true']  { opacity: 1.0; }
]]>
</style>
<script type="application/ecmascript"><![CDATA[
document.addEventListener('DOMContentLoaded', (event) => {
  highlightEdges();
  highlightAdjacentNodes();
});
]]></script>
</svg>
