<?xml version="1.0" encoding="UTF-8" standalone="no"?>
<!DOCTYPE svg PUBLIC "-//W3C//DTD SVG 1.1//EN"
 "http://www.w3.org/Graphics/SVG/1.1/DTD/svg11.dtd">
<!-- Generated by graphviz version 2.43.0 (0)
 -->
<!-- Title: Arcane::arcaneHasThread Pages: 1 -->
<svg width="583pt" height="194pt"
 viewBox="0.00 0.00 583.00 194.00" xmlns="http://www.w3.org/2000/svg" xmlns:xlink="http://www.w3.org/1999/xlink">
<g id="graph0" class="graph" transform="scale(1 1) rotate(0) translate(4 190)">
<title>Arcane::arcaneHasThread</title>
<!-- Node1 -->
<g id="Node000001" class="node">
<title>Node1</title>
<g id="a_Node000001"><a xlink:title="Vrai si arcane est compilé avec le support des threads ET qu&#39;ils sont actifs.">
<polygon fill="#999999" stroke="#666666" points="575,-116 433,-116 433,-97 575,-97 575,-116"/>
<text text-anchor="middle" x="504" y="-104" font-family="Helvetica,sans-Serif" font-size="10.00">Arcane::arcaneHasThread</text>
</a>
</g>
</g>
<!-- Node2 -->
<g id="Node000002" class="node">
<title>Node2</title>
<g id="a_Node000002"><a xlink:href="../../d0/d32/namespaceArcane.html#a0236ceb6f8d58d49e3dcc199ce98f694" target="_top" xlink:title="Retourne l&#39;identifiant du thread courant.">
<polygon fill="white" stroke="#666666" points="385.5,-186 226.5,-186 226.5,-167 385.5,-167 385.5,-186"/>
<text text-anchor="middle" x="306" y="-174" font-family="Helvetica,sans-Serif" font-size="10.00">Arcane::arcaneCurrentThread</text>
</a>
</g>
</g>
<!-- Node1&#45;&gt;Node2 -->
<g id="edge1_Node000001_Node000002" class="edge">
<title>Node1&#45;&gt;Node2</title>
<g id="a_edge1_Node000001_Node000002"><a xlink:title=" ">
<path fill="none" stroke="#63b8ff" d="M477.35,-121C456.33,-132.35 425.5,-147.79 397,-157.5 386.12,-161.21 374.24,-164.33 362.78,-166.91"/>
<polygon fill="#63b8ff" stroke="#63b8ff" points="479.19,-123.99 486.28,-116.11 475.82,-117.85 479.19,-123.99"/>
</a>
</g>
</g>
<!-- Node3 -->
<g id="Node000003" class="node">
<title>Node3</title>
<g id="a_Node000003"><a xlink:href="../../d6/d2a/classArcane_1_1Application.html#ab17d142af8fb63224514211257349928" target="_top" xlink:title="Construit les membres de l&#39;instance. L&#39;instance n&#39;est pas utilisable tant que cette méthode n&#39;a pas é...">
<polygon fill="white" stroke="#666666" points="361.5,-148.5 250.5,-148.5 250.5,-118.5 361.5,-118.5 361.5,-148.5"/>
<text text-anchor="start" x="258.5" y="-136.5" font-family="Helvetica,sans-Serif" font-size="10.00">Arcane::Application</text>
<text text-anchor="middle" x="306" y="-125.5" font-family="Helvetica,sans-Serif" font-size="10.00">::build</text>
</a>
</g>
</g>
<!-- Node1&#45;&gt;Node3 -->
<g id="edge2_Node000001_Node000003" class="edge">
<title>Node1&#45;&gt;Node3</title>
<g id="a_edge2_Node000001_Node000003"><a xlink:title=" ">
<path fill="none" stroke="#63b8ff" d="M423.77,-117.41C402.92,-120.29 380.88,-123.32 361.64,-125.97"/>
<polygon fill="#63b8ff" stroke="#63b8ff" points="424.47,-120.85 433.9,-116.02 423.51,-113.92 424.47,-120.85"/>
</a>
</g>
</g>
<!-- Node4 -->
<g id="Node000004" class="node">
<title>Node4</title>
<g id="a_Node000004"><a xlink:href="../../d6/dcb/classArcane_1_1MessagePassing_1_1HybridParallelSuperMng.html#a484009d447bba1f9e80923f047fb4c9d" target="_top" xlink:title="Construit les membres l&#39;instance.">
<polygon fill="white" stroke="#666666" points="376,-100 236,-100 236,-59 376,-59 376,-100"/>
<text text-anchor="start" x="244" y="-88" font-family="Helvetica,sans-Serif" font-size="10.00">Arcane::MessagePassing</text>
<text text-anchor="start" x="244" y="-77" font-family="Helvetica,sans-Serif" font-size="10.00">::HybridParallelSuperMng</text>
<text text-anchor="middle" x="306" y="-66" font-family="Helvetica,sans-Serif" font-size="10.00">::build</text>
</a>
</g>
</g>
<!-- Node1&#45;&gt;Node4 -->
<g id="edge3_Node000001_Node000004" class="edge">
<title>Node1&#45;&gt;Node4</title>
<g id="a_edge3_Node000001_Node000004"><a xlink:title=" ">
<path fill="none" stroke="#63b8ff" d="M423.67,-95.57C407.92,-93.4 391.51,-91.14 376.14,-89.02"/>
<polygon fill="#63b8ff" stroke="#63b8ff" points="423.51,-99.08 433.9,-96.98 424.47,-92.15 423.51,-99.08"/>
</a>
</g>
</g>
<!-- Node5 -->
<g id="Node000005" class="node">
<title>Node5</title>
<g id="a_Node000005"><a xlink:href="../../dd/d32/classArcane_1_1MessagePassing_1_1SharedMemoryParallelSuperMng.html#a2160224d4c748d632f26999a105f88e5" target="_top" xlink:title="Construit les membres l&#39;instance.">
<polygon fill="white" stroke="#666666" points="397,-41 215,-41 215,0 397,0 397,-41"/>
<text text-anchor="start" x="223" y="-29" font-family="Helvetica,sans-Serif" font-size="10.00">Arcane::MessagePassing</text>
<text text-anchor="start" x="223" y="-18" font-family="Helvetica,sans-Serif" font-size="10.00">::SharedMemoryParallelSuperMng</text>
<text text-anchor="middle" x="306" y="-7" font-family="Helvetica,sans-Serif" font-size="10.00">::build</text>
</a>
</g>
</g>
<!-- Node1&#45;&gt;Node5 -->
<g id="edge4_Node000001_Node000005" class="edge">
<title>Node1&#45;&gt;Node5</title>
<g id="a_edge4_Node000001_Node000005"><a xlink:title=" ">
<path fill="none" stroke="#63b8ff" d="M477.94,-91.75C456.81,-79.69 425.55,-62.7 397,-50.5 389.28,-47.2 381.06,-44.02 372.85,-41.05"/>
<polygon fill="#63b8ff" stroke="#63b8ff" points="476.47,-94.95 486.88,-96.91 479.97,-88.89 476.47,-94.95"/>
</a>
</g>
</g>
<!-- Node6 -->
<g id="Node000006" class="node">
<title>Node6</title>
<g id="a_Node000006"><a xlink:href="../../d6/d94/classArcane_1_1MessagePassing_1_1MpiSharedMemoryParallelSuperMng.html#a12449ed960688aae8972589603566f06" target="_top" xlink:title="Construit les membres l&#39;instance.">
<polygon fill="white" stroke="#666666" points="179,-41 0,-41 0,0 179,0 179,-41"/>
<text text-anchor="start" x="8" y="-29" font-family="Helvetica,sans-Serif" font-size="10.00">Arcane::MessagePassing</text>
<text text-anchor="start" x="8" y="-18" font-family="Helvetica,sans-Serif" font-size="10.00">::MpiSharedMemoryParallelSuper</text>
<text text-anchor="middle" x="89.5" y="-7" font-family="Helvetica,sans-Serif" font-size="10.00">Mng::build</text>
</a>
</g>
</g>
<!-- Node5&#45;&gt;Node6 -->
<g id="edge5_Node000005_Node000006" class="edge">
<title>Node5&#45;&gt;Node6</title>
<g id="a_edge5_Node000005_Node000006"><a xlink:title=" ">
<path fill="none" stroke="#63b8ff" d="M204.95,-20.5C196.38,-20.5 187.75,-20.5 179.27,-20.5"/>
<polygon fill="#63b8ff" stroke="#63b8ff" points="204.97,-24 214.97,-20.5 204.96,-17 204.97,-24"/>
</a>
</g>
</g>
</g>
</svg>
