<?xml version="1.0" encoding="UTF-8" standalone="no"?>
<!DOCTYPE svg PUBLIC "-//W3C//DTD SVG 1.1//EN"
 "http://www.w3.org/Graphics/SVG/1.1/DTD/svg11.dtd">
<!-- Generated by graphviz version 2.43.0 (0)
 -->
<!-- Title: Arcane::ICartesianMeshPatchInternal Pages: 1 -->
<svg width="185pt" height="224pt"
 viewBox="0.00 0.00 185.00 224.00" xmlns="http://www.w3.org/2000/svg" xmlns:xlink="http://www.w3.org/1999/xlink">
<g id="graph0" class="graph" transform="scale(1 1) rotate(0) translate(4 220)">
<title>Arcane::ICartesianMeshPatchInternal</title>
<!-- Node1 -->
<g id="Node000001" class="node">
<title>Node1</title>
<g id="a_Node000001"><a xlink:title=" ">
<polygon fill="#999999" stroke="transparent" points="177,-216 0,-216 0,-126 177,-126 177,-216"/>
<text text-anchor="start" x="18" y="-204" font-family="Helvetica,sans-Serif" font-size="10.00">Arcane::ICartesianMeshPatch</text>
<text text-anchor="start" x="70" y="-193" font-family="Helvetica,sans-Serif" font-size="10.00">Internal</text>
<text text-anchor="start" x="87" y="-178" font-family="Helvetica,sans-Serif" font-size="10.00"> </text>
<text text-anchor="start" x="4.5" y="-163" font-family="Helvetica,sans-Serif" font-size="10.00">+</text>
<text text-anchor="start" x="17.5" y="-163" font-family="Helvetica,sans-Serif" font-size="10.00">~ICartesianMeshPatchInternal()</text>
<text text-anchor="start" x="4.5" y="-148" font-family="Helvetica,sans-Serif" font-size="10.00">+</text>
<text text-anchor="start" x="17.5" y="-148" font-family="Helvetica,sans-Serif" font-size="10.00">positionRef()</text>
<text text-anchor="start" x="4.5" y="-133" font-family="Helvetica,sans-Serif" font-size="10.00">+</text>
<text text-anchor="start" x="17.5" y="-133" font-family="Helvetica,sans-Serif" font-size="10.00">setPosition()</text>
<polygon fill="#666666" stroke="#666666" points="0.5,-188 0.5,-188 177.5,-188 177.5,-188 0.5,-188"/>
<polygon fill="#666666" stroke="#666666" points="0.5,-173 0.5,-173 177.5,-173 177.5,-173 0.5,-173"/>
<polygon fill="none" stroke="#666666" points="0,-126 0,-216 177,-216 177,-126 0,-126"/>
</a>
</g>
</g>
<!-- Node2 -->
<g id="Node000002" class="node">
<title>Node2</title>
<g id="a_Node000002"><a xlink:href="../../db/d3d/classArcane_1_1CartesianMeshPatch_1_1Impl.html" target="_top" xlink:title=" ">
<polygon fill="white" stroke="transparent" points="163,-90 14,-90 14,0 163,0 163,-90"/>
<text text-anchor="start" x="19.5" y="-78" font-family="Helvetica,sans-Serif" font-size="10.00">Arcane::CartesianMeshPatch</text>
<text text-anchor="start" x="75" y="-67" font-family="Helvetica,sans-Serif" font-size="10.00">::Impl</text>
<text text-anchor="start" x="37" y="-52" font-family="Helvetica,sans-Serif" font-size="10.00">&#45;</text>
<text text-anchor="start" x="63.5" y="-52" font-family="Helvetica,sans-Serif" font-size="10.00">m_patch</text>
<text text-anchor="start" x="34.5" y="-37" font-family="Helvetica,sans-Serif" font-size="10.00">+</text>
<text text-anchor="start" x="63.5" y="-37" font-family="Helvetica,sans-Serif" font-size="10.00">Impl()</text>
<text text-anchor="start" x="34.5" y="-22" font-family="Helvetica,sans-Serif" font-size="10.00">+</text>
<text text-anchor="start" x="63.5" y="-22" font-family="Helvetica,sans-Serif" font-size="10.00">positionRef()</text>
<text text-anchor="start" x="34.5" y="-7" font-family="Helvetica,sans-Serif" font-size="10.00">+</text>
<text text-anchor="start" x="63.5" y="-7" font-family="Helvetica,sans-Serif" font-size="10.00">setPosition()</text>
<polygon fill="#bfbfbf" stroke="#bfbfbf" points="14.5,-62 14.5,-62 163.5,-62 163.5,-62 14.5,-62"/>
<polygon fill="#bfbfbf" stroke="#bfbfbf" points="14.5,-47 14.5,-47 61.5,-47 61.5,-47 14.5,-47"/>
<polygon fill="#bfbfbf" stroke="#bfbfbf" points="61.5,-47 61.5,-47 163.5,-47 163.5,-47 61.5,-47"/>
<polygon fill="none" stroke="#bfbfbf" points="14,0 14,-90 163,-90 163,0 14,0"/>
</a>
</g>
</g>
<!-- Node1&#45;&gt;Node2 -->
<g id="edge1_Node000001_Node000002" class="edge">
<title>Node1&#45;&gt;Node2</title>
<g id="a_edge1_Node000001_Node000002"><a xlink:title=" ">
<path fill="none" stroke="#63b8ff" d="M88.5,-115.73C88.5,-107.25 88.5,-98.57 88.5,-90.34"/>
<polygon fill="none" stroke="#63b8ff" points="85,-115.93 88.5,-125.93 92,-115.93 85,-115.93"/>
</a>
</g>
</g>
</g>
</svg>
