<?xml version="1.0" encoding="UTF-8" standalone="no"?>
<!DOCTYPE svg PUBLIC "-//W3C//DTD SVG 1.1//EN"
 "http://www.w3.org/Graphics/SVG/1.1/DTD/svg11.dtd">
<!-- Generated by graphviz version 2.43.0 (0)
 -->
<!-- Title: Arcane::impl::HashTableMap2Base Pages: 1 -->
<svg width="344pt" height="483pt"
 viewBox="0.00 0.00 343.50 483.00" xmlns="http://www.w3.org/2000/svg" xmlns:xlink="http://www.w3.org/1999/xlink">
<g id="graph0" class="graph" transform="scale(1 1) rotate(0) translate(4 479)">
<title>Arcane::impl::HashTableMap2Base</title>
<!-- Node1 -->
<g id="Node000001" class="node">
<title>Node1</title>
<g id="a_Node000001"><a xlink:title="Base class for HashTableMap2.">
<polygon fill="#999999" stroke="transparent" points="255,-214 76,-214 76,0 255,0 255,-214"/>
<text text-anchor="start" x="81.5" y="-202" font-family="Helvetica,sans-Serif" font-size="10.00">Arcane::impl::HashTableMap2Base</text>
<text text-anchor="start" x="90.5" y="-187" font-family="Helvetica,sans-Serif" font-size="10.00">#</text>
<text text-anchor="start" x="113.5" y="-187" font-family="Helvetica,sans-Serif" font-size="10.00">m_mlf</text>
<text text-anchor="start" x="90.5" y="-172" font-family="Helvetica,sans-Serif" font-size="10.00">#</text>
<text text-anchor="start" x="113.5" y="-172" font-family="Helvetica,sans-Serif" font-size="10.00">m_mask</text>
<text text-anchor="start" x="90.5" y="-157" font-family="Helvetica,sans-Serif" font-size="10.00">#</text>
<text text-anchor="start" x="113.5" y="-157" font-family="Helvetica,sans-Serif" font-size="10.00">m_num_buckets</text>
<text text-anchor="start" x="90.5" y="-142" font-family="Helvetica,sans-Serif" font-size="10.00">#</text>
<text text-anchor="start" x="113.5" y="-142" font-family="Helvetica,sans-Serif" font-size="10.00">m_num_filled</text>
<text text-anchor="start" x="90.5" y="-127" font-family="Helvetica,sans-Serif" font-size="10.00">#</text>
<text text-anchor="start" x="113.5" y="-127" font-family="Helvetica,sans-Serif" font-size="10.00">m_last</text>
<text text-anchor="start" x="90.5" y="-112" font-family="Helvetica,sans-Serif" font-size="10.00">#</text>
<text text-anchor="start" x="113.5" y="-112" font-family="Helvetica,sans-Serif" font-size="10.00">m_etail</text>
<text text-anchor="start" x="90.5" y="-97" font-family="Helvetica,sans-Serif" font-size="10.00">#</text>
<text text-anchor="start" x="113.5" y="-97" font-family="Helvetica,sans-Serif" font-size="10.00">EAD</text>
<text text-anchor="start" x="93" y="-82" font-family="Helvetica,sans-Serif" font-size="10.00">&#45;</text>
<text text-anchor="start" x="113.5" y="-82" font-family="Helvetica,sans-Serif" font-size="10.00">m_index_allocated_size</text>
<text text-anchor="start" x="90.5" y="-67" font-family="Helvetica,sans-Serif" font-size="10.00">#</text>
<text text-anchor="start" x="113.5" y="-67" font-family="Helvetica,sans-Serif" font-size="10.00">_allocIndex()</text>
<text text-anchor="start" x="90.5" y="-52" font-family="Helvetica,sans-Serif" font-size="10.00">#</text>
<text text-anchor="start" x="113.5" y="-52" font-family="Helvetica,sans-Serif" font-size="10.00">_freeIndex()</text>
<text text-anchor="start" x="90.5" y="-37" font-family="Helvetica,sans-Serif" font-size="10.00">#</text>
<text text-anchor="start" x="113.5" y="-37" font-family="Helvetica,sans-Serif" font-size="10.00">_doSwap()</text>
<text text-anchor="start" x="90.5" y="-22" font-family="Helvetica,sans-Serif" font-size="10.00">#</text>
<text text-anchor="start" x="113.5" y="-22" font-family="Helvetica,sans-Serif" font-size="10.00">_doClone()</text>
<text text-anchor="start" x="93" y="-7" font-family="Helvetica,sans-Serif" font-size="10.00">&#45;</text>
<text text-anchor="start" x="113.5" y="-7" font-family="Helvetica,sans-Serif" font-size="10.00">_defaultAllocator()</text>
<polygon fill="#666666" stroke="#666666" points="76.5,-197 76.5,-197 255.5,-197 255.5,-197 76.5,-197"/>
<polygon fill="#666666" stroke="#666666" points="76.5,-77 76.5,-77 111.5,-77 111.5,-77 76.5,-77"/>
<polygon fill="#666666" stroke="#666666" points="111.5,-77 111.5,-77 255.5,-77 255.5,-77 111.5,-77"/>
<polygon fill="none" stroke="#666666" points="76,0 76,-214 255,-214 255,0 76,0"/>
</a>
</g>
</g>
<!-- Node2 -->
<g id="Node000002" class="node">
<title>Node2</title>
<g id="a_Node000002"><a xlink:href="../../da/d4f/structArcane_1_1impl_1_1HashTableMap2Base_1_1Index.html" target="_top" xlink:title=" ">
<polygon fill="white" stroke="transparent" points="155,-405.5 0,-405.5 0,-330.5 155,-330.5 155,-405.5"/>
<text text-anchor="start" x="5.5" y="-393" font-family="Helvetica,sans-Serif" font-size="10.00">Arcane::impl::HashTableMap2</text>
<text text-anchor="start" x="49" y="-382" font-family="Helvetica,sans-Serif" font-size="10.00">Base::Index</text>
<text text-anchor="start" x="32.5" y="-367" font-family="Helvetica,sans-Serif" font-size="10.00">+</text>
<text text-anchor="start" x="73.5" y="-367" font-family="Helvetica,sans-Serif" font-size="10.00">next</text>
<text text-anchor="start" x="32.5" y="-352" font-family="Helvetica,sans-Serif" font-size="10.00">+</text>
<text text-anchor="start" x="73.5" y="-352" font-family="Helvetica,sans-Serif" font-size="10.00">slot</text>
<text text-anchor="start" x="76" y="-337" font-family="Helvetica,sans-Serif" font-size="10.00"> </text>
<polygon fill="#bfbfbf" stroke="#bfbfbf" points="0.5,-377 0.5,-377 155.5,-377 155.5,-377 0.5,-377"/>
<polygon fill="#bfbfbf" stroke="#bfbfbf" points="0.5,-347 0.5,-347 71.5,-347 71.5,-347 0.5,-347"/>
<polygon fill="#bfbfbf" stroke="#bfbfbf" points="71.5,-347 71.5,-347 155.5,-347 155.5,-347 71.5,-347"/>
<polygon fill="none" stroke="#bfbfbf" points="0,-330.5 0,-405.5 155,-405.5 155,-330.5 0,-330.5"/>
</a>
</g>
</g>
<!-- Node2&#45;&gt;Node1 -->
<g id="edge1_Node000001_Node000002" class="edge">
<title>Node2&#45;&gt;Node1</title>
<g id="a_edge1_Node000001_Node000002"><a xlink:title=" ">
<path fill="none" stroke="#63b8ff" d="M89.92,-330.44C99.26,-302.96 112.61,-263.67 125.5,-225.73"/>
<polygon fill="none" stroke="#63b8ff" points="125.62,-225.38 123.76,-218.41 129.48,-214.02 131.34,-220.99 125.62,-225.38"/>
</a>
</g>
<text text-anchor="middle" x="148.5" y="-235" font-family="Helvetica,sans-Serif" font-size="10.00" fill="grey"> #m_index</text>
</g>
<!-- Node3 -->
<g id="Node000003" class="node">
<title>Node3</title>
<g id="a_Node000003"><a xlink:href="../../dc/d3c/classArcane_1_1IMemoryAllocator.html" target="_top" xlink:title="Interface d&#39;un allocateur pour la mémoire.">
<polygon fill="white" stroke="transparent" points="335.5,-475 173.5,-475 173.5,-261 335.5,-261 335.5,-475"/>
<text text-anchor="start" x="191" y="-463" font-family="Helvetica,sans-Serif" font-size="10.00">Arcane::IMemoryAllocator</text>
<text text-anchor="start" x="252.5" y="-448" font-family="Helvetica,sans-Serif" font-size="10.00"> </text>
<text text-anchor="start" x="177.5" y="-433" font-family="Helvetica,sans-Serif" font-size="10.00">+</text>
<text text-anchor="start" x="190.5" y="-433" font-family="Helvetica,sans-Serif" font-size="10.00">~IMemoryAllocator()</text>
<text text-anchor="start" x="177.5" y="-418" font-family="Helvetica,sans-Serif" font-size="10.00">+</text>
<text text-anchor="start" x="190.5" y="-418" font-family="Helvetica,sans-Serif" font-size="10.00">hasRealloc()</text>
<text text-anchor="start" x="177.5" y="-403" font-family="Helvetica,sans-Serif" font-size="10.00">+</text>
<text text-anchor="start" x="190.5" y="-403" font-family="Helvetica,sans-Serif" font-size="10.00">allocate()</text>
<text text-anchor="start" x="177.5" y="-388" font-family="Helvetica,sans-Serif" font-size="10.00">+</text>
<text text-anchor="start" x="190.5" y="-388" font-family="Helvetica,sans-Serif" font-size="10.00">reallocate()</text>
<text text-anchor="start" x="177.5" y="-373" font-family="Helvetica,sans-Serif" font-size="10.00">+</text>
<text text-anchor="start" x="190.5" y="-373" font-family="Helvetica,sans-Serif" font-size="10.00">deallocate()</text>
<text text-anchor="start" x="177.5" y="-358" font-family="Helvetica,sans-Serif" font-size="10.00">+</text>
<text text-anchor="start" x="190.5" y="-358" font-family="Helvetica,sans-Serif" font-size="10.00">adjustedCapacity()</text>
<text text-anchor="start" x="177.5" y="-343" font-family="Helvetica,sans-Serif" font-size="10.00">+</text>
<text text-anchor="start" x="190.5" y="-343" font-family="Helvetica,sans-Serif" font-size="10.00">guaranteedAlignment()</text>
<text text-anchor="start" x="177.5" y="-328" font-family="Helvetica,sans-Serif" font-size="10.00">+</text>
<text text-anchor="start" x="190.5" y="-328" font-family="Helvetica,sans-Serif" font-size="10.00">guarantedAlignment()</text>
<text text-anchor="start" x="177.5" y="-313" font-family="Helvetica,sans-Serif" font-size="10.00">+</text>
<text text-anchor="start" x="190.5" y="-313" font-family="Helvetica,sans-Serif" font-size="10.00">notifyMemoryArgsChanged()</text>
<text text-anchor="start" x="177.5" y="-298" font-family="Helvetica,sans-Serif" font-size="10.00">+</text>
<text text-anchor="start" x="190.5" y="-298" font-family="Helvetica,sans-Serif" font-size="10.00">copyMemory()</text>
<text text-anchor="start" x="177.5" y="-283" font-family="Helvetica,sans-Serif" font-size="10.00">+</text>
<text text-anchor="start" x="190.5" y="-283" font-family="Helvetica,sans-Serif" font-size="10.00">memoryResource()</text>
<text text-anchor="start" x="177.5" y="-268" font-family="Helvetica,sans-Serif" font-size="10.00">+</text>
<text text-anchor="start" x="190.5" y="-268" font-family="Helvetica,sans-Serif" font-size="10.00">isCollective()</text>
<polygon fill="#666666" stroke="#666666" points="173.5,-458 173.5,-458 335.5,-458 335.5,-458 173.5,-458"/>
<polygon fill="#666666" stroke="#666666" points="173.5,-443 173.5,-443 335.5,-443 335.5,-443 173.5,-443"/>
<polygon fill="none" stroke="#666666" points="173.5,-261 173.5,-475 335.5,-475 335.5,-261 173.5,-261"/>
</a>
</g>
</g>
<!-- Node3&#45;&gt;Node1 -->
<g id="edge2_Node000001_Node000003" class="edge">
<title>Node3&#45;&gt;Node1</title>
<g id="a_edge2_Node000001_Node000003"><a xlink:title=" ">
<path fill="none" stroke="#63b8ff" d="M218.04,-260.91C214.08,-249.38 210.03,-237.6 206.03,-225.95"/>
<polygon fill="none" stroke="#63b8ff" points="205.94,-225.7 200.21,-221.32 202.04,-214.35 207.78,-218.72 205.94,-225.7"/>
</a>
</g>
<text text-anchor="middle" x="267.5" y="-235" font-family="Helvetica,sans-Serif" font-size="10.00" fill="grey"> #m_memory_allocator</text>
</g>
</g>
</svg>
