<?xml version="1.0" encoding="UTF-8" standalone="no"?>
<!DOCTYPE svg PUBLIC "-//W3C//DTD SVG 1.1//EN"
 "http://www.w3.org/Graphics/SVG/1.1/DTD/svg11.dtd">
<!-- Generated by graphviz version 2.43.0 (0)
 -->
<!-- Title: Arcane::ServiceAndModuleFactoryMng::createAllServiceRegistererFactories Pages: 1 -->
<!--zoomable 479 -->

<svg id="main" version="1.1" xmlns="http://www.w3.org/2000/svg" xmlns:xlink="http://www.w3.org/1999/xlink" xml:space="preserve" onload="init(evt)">

<style type="text/css"><![CDATA[
.node, .edge {opacity: 0.7;}
.node.selected, .edge.selected {opacity: 1;}
.edge:hover path { stroke: red; }
.edge:hover polygon { stroke: red; fill: red; }
]]></style>

<defs>
  <circle id="rim" cx="0" cy="0" r="7"/>
  <circle id="rim2" cx="0" cy="0" r="3.5"/>
  <g id="zoomPlus">
    <use xlink:href="#rim" fill="#404040"><set attributeName="fill" to="#808080" begin="zoomplus.mouseover" end="zoomplus.mouseout"/></use>
    <path d="M-4,0h8M0,-4v8" fill="none" stroke="white" stroke-width="1.5" pointer-events="none"/>
  </g>
  <g id="zoomMin">
    <use xlink:href="#rim" fill="#404040"><set attributeName="fill" to="#808080" begin="zoomminus.mouseover" end="zoomminus.mouseout"/></use>
    <path d="M-4,0h8" fill="none" stroke="white" stroke-width="1.5" pointer-events="none"/>
  </g>
  <g id="arrowUp" transform="translate(30 24)">
    <use xlink:href="#rim"/>
    <path pointer-events="none" fill="none" stroke="white" stroke-width="1.5" d="M0,-3.0v7 M-2.5,-0.5L0,-3.0L2.5,-0.5"/>
  </g>
  <g id="arrowRight" transform="rotate(90) translate(36 -43)">
    <use xlink:href="#rim"/>
    <path pointer-events="none" fill="none" stroke="white" stroke-width="1.5" d="M0,-3.0v7 M-2.5,-0.5L0,-3.0L2.5,-0.5"/>
  </g>
  <g id="arrowDown" transform="rotate(180) translate(-30 -48)">
    <use xlink:href="#rim"/>
    <path pointer-events="none" fill="none" stroke="white" stroke-width="1.5" d="M0,-3.0v7 M-2.5,-0.5L0,-3.0L2.5,-0.5"/>
  </g>
  <g id="arrowLeft" transform="rotate(270) translate(-36 17)">
    <use xlink:href="#rim"/>
    <path pointer-events="none" fill="none" stroke="white" stroke-width="1.5" d="M0,-3.0v7 M-2.5,-0.5L0,-3.0L2.5,-0.5"/>
  </g>
  <g id="resetDef">
    <use xlink:href="#rim2" fill="#404040"><set attributeName="fill" to="#808080" begin="reset.mouseover" end="reset.mouseout"/></use>
  </g>
</defs>
<script type="application/ecmascript">
var viewWidth = 636;
var viewHeight = 479;
var sectionId = 'dynsection-6';
</script>
<script type="application/ecmascript" xlink:href="../../svg.min.js"/>
<svg id="graph" class="graph">
<g id="viewport">
<title>Arcane::ServiceAndModuleFactoryMng::createAllServiceRegistererFactories</title>
<!-- Node1 -->
<g id="Node000001" class="node">
<title>Node1</title>
<g id="a_Node000001"><a xlink:title="Créé toutes les fabriques associées à des ServiceRegisterer.">
<polygon fill="#999999" stroke="#666666" points="158,-147.5 0,-147.5 0,-106.5 158,-106.5 158,-147.5"/>
<text text-anchor="start" x="8" y="-135.5" font-family="Helvetica,sans-Serif" font-size="10.00">Arcane::ServiceAndModule</text>
<text text-anchor="start" x="8" y="-124.5" font-family="Helvetica,sans-Serif" font-size="10.00">FactoryMng::createAllService</text>
<text text-anchor="middle" x="79" y="-113.5" font-family="Helvetica,sans-Serif" font-size="10.00">RegistererFactories</text>
</a>
</g>
</g>
<!-- Node2 -->
<g id="Node000002" class="node">
<title>Node2</title>
<g id="a_Node000002"><a xlink:href="../../d6/d4d/classArcane_1_1ServiceAndModuleFactoryMng.html#a3dbdcf818e888c2d307a70e5eb3e27d6" target="_top" xlink:title="Ajoute la fabrique spécifiée par sr.">
<polygon fill="white" stroke="#666666" points="392,-308.5 194,-308.5 194,-267.5 392,-267.5 392,-308.5"/>
<text text-anchor="start" x="202" y="-296.5" font-family="Helvetica,sans-Serif" font-size="10.00">Arcane::ServiceAndModule</text>
<text text-anchor="start" x="202" y="-285.5" font-family="Helvetica,sans-Serif" font-size="10.00">FactoryMng::_addFactoryFromService</text>
<text text-anchor="middle" x="293" y="-274.5" font-family="Helvetica,sans-Serif" font-size="10.00">Registerer</text>
</a>
</g>
</g>
<!-- Node1&#45;&gt;Node2 -->
<g id="edge1_Node000001_Node000002" class="edge">
<title>Node1&#45;&gt;Node2</title>
<g id="a_edge1_Node000001_Node000002"><a xlink:title=" ">
<path fill="none" stroke="#63b8ff" d="M107.28,-147.72C145.44,-176.7 214.79,-229.37 256.8,-261.27"/>
<polygon fill="#63b8ff" stroke="#63b8ff" points="254.74,-264.1 264.82,-267.36 258.98,-258.53 254.74,-264.1"/>
</a>
</g>
</g>
<!-- Node8 -->
<g id="Node000008" class="node">
<title>Node8</title>
<g id="a_Node000008"><a xlink:href="../../d2/dc3/classArcane_1_1ServiceRegisterer.html#aad589b076e543e72178f0c49cc278f85" target="_top" xlink:title="Nom du service.">
<polygon fill="white" stroke="#666666" points="599.5,-183 456.5,-183 456.5,-153 599.5,-153 599.5,-183"/>
<text text-anchor="start" x="464.5" y="-171" font-family="Helvetica,sans-Serif" font-size="10.00">Arcane::ServiceRegisterer</text>
<text text-anchor="middle" x="528" y="-160" font-family="Helvetica,sans-Serif" font-size="10.00">::name</text>
</a>
</g>
</g>
<!-- Node1&#45;&gt;Node8 -->
<g id="edge12_Node000001_Node000008" class="edge">
<title>Node1&#45;&gt;Node8</title>
<g id="a_edge12_Node000001_Node000008"><a xlink:title=" ">
<path fill="none" stroke="#63b8ff" d="M120,-147.54C141.35,-157.36 168.44,-168.04 194,-173 278.9,-189.48 378.26,-185 446.21,-178.42"/>
<polygon fill="#63b8ff" stroke="#63b8ff" points="446.82,-181.88 456.42,-177.39 446.12,-174.91 446.82,-181.88"/>
</a>
</g>
</g>
<!-- Node10 -->
<g id="Node000010" class="node">
<title>Node10</title>
<g id="a_Node000010"><a xlink:href="../../d2/dc3/classArcane_1_1ServiceRegisterer.html#a4923ae3b1dda63e0335af11baf5a5bb1" target="_top" xlink:title="Accès au premier élément de la chaine d&#39;enregistreur de service.">
<polygon fill="white" stroke="#666666" points="364.5,-164 221.5,-164 221.5,-134 364.5,-134 364.5,-164"/>
<text text-anchor="start" x="229.5" y="-152" font-family="Helvetica,sans-Serif" font-size="10.00">Arcane::ServiceRegisterer</text>
<text text-anchor="middle" x="293" y="-141" font-family="Helvetica,sans-Serif" font-size="10.00">::firstService</text>
</a>
</g>
</g>
<!-- Node1&#45;&gt;Node10 -->
<g id="edge9_Node000001_Node000010" class="edge">
<title>Node1&#45;&gt;Node10</title>
<g id="a_edge9_Node000001_Node000010"><a xlink:title=" ">
<path fill="none" stroke="#63b8ff" d="M158.04,-135.1C175.41,-136.9 193.86,-138.82 211.33,-140.63"/>
<polygon fill="#63b8ff" stroke="#63b8ff" points="211.18,-144.13 221.49,-141.68 211.9,-137.17 211.18,-144.13"/>
</a>
</g>
</g>
<!-- Node12 -->
<g id="Node000012" class="node">
<title>Node12</title>
<g id="a_Node000012"><a xlink:href="../../d1/d17/classArcane_1_1TraceAccessor.html#a77c555eb912fb1b15c28e694f67edbc7" target="_top" xlink:title="Flot pour un message de log.">
<polygon fill="white" stroke="#666666" points="366,-115.5 220,-115.5 220,-96.5 366,-96.5 366,-115.5"/>
<text text-anchor="middle" x="293" y="-103.5" font-family="Helvetica,sans-Serif" font-size="10.00">Arcane::TraceAccessor::log</text>
</a>
</g>
</g>
<!-- Node1&#45;&gt;Node12 -->
<g id="edge11_Node000001_Node000012" class="edge">
<title>Node1&#45;&gt;Node12</title>
<g id="a_edge11_Node000001_Node000012"><a xlink:title=" ">
<path fill="none" stroke="#63b8ff" d="M158.04,-119.27C174.76,-117.61 192.47,-115.86 209.36,-114.19"/>
<polygon fill="#63b8ff" stroke="#63b8ff" points="210.14,-117.63 219.75,-113.16 209.45,-110.66 210.14,-117.63"/>
</a>
</g>
</g>
<!-- Node13 -->
<g id="Node000013" class="node">
<title>Node13</title>
<g id="a_Node000013"><a xlink:href="../../d2/dc3/classArcane_1_1ServiceRegisterer.html#ad52f8f6fca020c2611a6c9dc103d15c2" target="_top" xlink:title="Nombre d&#39;enregistreurs de service dans la chaine.">
<polygon fill="white" stroke="#666666" points="364.5,-78 221.5,-78 221.5,-48 364.5,-48 364.5,-78"/>
<text text-anchor="start" x="229.5" y="-66" font-family="Helvetica,sans-Serif" font-size="10.00">Arcane::ServiceRegisterer</text>
<text text-anchor="middle" x="293" y="-55" font-family="Helvetica,sans-Serif" font-size="10.00">::nbService</text>
</a>
</g>
</g>
<!-- Node1&#45;&gt;Node13 -->
<g id="edge13_Node000001_Node000013" class="edge">
<title>Node1&#45;&gt;Node13</title>
<g id="a_edge13_Node000001_Node000013"><a xlink:title=" ">
<path fill="none" stroke="#63b8ff" d="M137.12,-106.46C155.21,-100.22 175.36,-93.56 194,-88 202.37,-85.5 211.2,-83.03 219.98,-80.67"/>
<polygon fill="#63b8ff" stroke="#63b8ff" points="221.07,-84 229.84,-78.06 219.28,-77.24 221.07,-84"/>
</a>
</g>
</g>
<!-- Node14 -->
<g id="Node000014" class="node">
<title>Node14</title>
<g id="a_Node000014"><a xlink:href="../../d2/dc3/classArcane_1_1ServiceRegisterer.html#a7ba0e6af2b6b857cd7828f8a5c8abcab" target="_top" xlink:title="Service suivant (0 si le dernier)">
<polygon fill="white" stroke="#666666" points="364.5,-30 221.5,-30 221.5,0 364.5,0 364.5,-30"/>
<text text-anchor="start" x="229.5" y="-18" font-family="Helvetica,sans-Serif" font-size="10.00">Arcane::ServiceRegisterer</text>
<text text-anchor="middle" x="293" y="-7" font-family="Helvetica,sans-Serif" font-size="10.00">::nextService</text>
</a>
</g>
</g>
<!-- Node1&#45;&gt;Node14 -->
<g id="edge14_Node000001_Node000014" class="edge">
<title>Node1&#45;&gt;Node14</title>
<g id="a_edge14_Node000001_Node000014"><a xlink:title=" ">
<path fill="none" stroke="#63b8ff" d="M100.86,-106.48C122.44,-86.39 157.96,-56.36 194,-39 199.64,-36.28 205.62,-33.85 211.74,-31.69"/>
<polygon fill="#63b8ff" stroke="#63b8ff" points="213.02,-34.95 221.42,-28.5 210.83,-28.31 213.02,-34.95"/>
</a>
</g>
</g>
<!-- Node3 -->
<g id="Node000003" class="node">
<title>Node3</title>
<g id="a_Node000003"><a xlink:href="../../de/df8/classArcane_1_1IServiceInfo.html#a36b987d8feac670332c0a6c989576730" target="_top" xlink:title="Infos sur les fabriques disponibles pour ce service.">
<polygon fill="white" stroke="#666666" points="585,-471 471,-471 471,-441 585,-441 585,-471"/>
<text text-anchor="start" x="479" y="-459" font-family="Helvetica,sans-Serif" font-size="10.00">Arcane::IServiceInfo</text>
<text text-anchor="middle" x="528" y="-448" font-family="Helvetica,sans-Serif" font-size="10.00">::factoryInfo</text>
</a>
</g>
</g>
<!-- Node2&#45;&gt;Node3 -->
<g id="edge2_Node000002_Node000003" class="edge">
<title>Node2&#45;&gt;Node3</title>
<g id="a_edge2_Node000002_Node000003"><a xlink:title=" ">
<path fill="none" stroke="#63b8ff" d="M307.32,-308.75C328.77,-340.41 374.07,-400.43 428,-432 438.03,-437.87 449.44,-442.31 460.86,-445.67"/>
<polygon fill="#63b8ff" stroke="#63b8ff" points="460.3,-449.14 470.86,-448.35 462.11,-442.38 460.3,-449.14"/>
</a>
</g>
</g>
<!-- Node4 -->
<g id="Node000004" class="node">
<title>Node4</title>
<g id="a_Node000004"><a xlink:href="../../d1/d17/classArcane_1_1TraceAccessor.html#a7f15f017b10b72c85bba3fce76314619" target="_top" xlink:title="Flot pour un message d&#39;information.">
<polygon fill="white" stroke="#666666" points="590.5,-423 465.5,-423 465.5,-393 590.5,-393 590.5,-423"/>
<text text-anchor="start" x="473.5" y="-411" font-family="Helvetica,sans-Serif" font-size="10.00">Arcane::TraceAccessor</text>
<text text-anchor="middle" x="528" y="-400" font-family="Helvetica,sans-Serif" font-size="10.00">::info</text>
</a>
</g>
</g>
<!-- Node2&#45;&gt;Node4 -->
<g id="edge3_Node000002_Node000004" class="edge">
<title>Node2&#45;&gt;Node4</title>
<g id="a_edge3_Node000002_Node000004"><a xlink:title=" ">
<path fill="none" stroke="#63b8ff" d="M316.95,-308.71C342.34,-330.55 385.33,-364.45 428,-384 436.65,-387.96 446.04,-391.32 455.47,-394.16"/>
<polygon fill="#63b8ff" stroke="#63b8ff" points="454.72,-397.58 465.29,-396.92 456.61,-390.84 454.72,-397.58"/>
</a>
</g>
</g>
<!-- Node5 -->
<g id="Node000005" class="node">
<title>Node5</title>
<g id="a_Node000005"><a xlink:href="../../d2/dc3/classArcane_1_1ServiceRegisterer.html#ac38d1b88f44d3c3390f95bb643e0f686" target="_top" xlink:title="Fonction de création de l&#39;instance &#39;ServiceInfo&#39; si on est un service.">
<polygon fill="white" stroke="#666666" points="619,-375 437,-375 437,-345 619,-345 619,-375"/>
<text text-anchor="start" x="445" y="-363" font-family="Helvetica,sans-Serif" font-size="10.00">Arcane::ServiceRegisterer</text>
<text text-anchor="middle" x="528" y="-352" font-family="Helvetica,sans-Serif" font-size="10.00">::infoCreatorWithPropertyFunction</text>
</a>
</g>
</g>
<!-- Node2&#45;&gt;Node5 -->
<g id="edge4_Node000002_Node000005" class="edge">
<title>Node2&#45;&gt;Node5</title>
<g id="a_edge4_Node000002_Node000005"><a xlink:title=" ">
<path fill="none" stroke="#63b8ff" d="M347.36,-308.58C371.75,-317.61 401.13,-327.96 428,-336 435.39,-338.21 443.13,-340.37 450.89,-342.42"/>
<polygon fill="#63b8ff" stroke="#63b8ff" points="450.15,-345.84 460.7,-344.96 451.9,-339.06 450.15,-345.84"/>
</a>
</g>
</g>
<!-- Node6 -->
<g id="Node000006" class="node">
<title>Node6</title>
<g id="a_Node000006"><a xlink:href="../../d2/dc3/classArcane_1_1ServiceRegisterer.html#ac297c2da569e30861cd25ab370444901" target="_top" xlink:title="Fonction de création de la factory si on est un module.">
<polygon fill="white" stroke="#666666" points="628,-327 428,-327 428,-297 628,-297 628,-327"/>
<text text-anchor="start" x="436" y="-315" font-family="Helvetica,sans-Serif" font-size="10.00">Arcane::ServiceRegisterer</text>
<text text-anchor="middle" x="528" y="-304" font-family="Helvetica,sans-Serif" font-size="10.00">::moduleFactoryWithPropertyFunction</text>
</a>
</g>
</g>
<!-- Node2&#45;&gt;Node6 -->
<g id="edge5_Node000002_Node000006" class="edge">
<title>Node2&#45;&gt;Node6</title>
<g id="a_edge5_Node000002_Node000006"><a xlink:title=" ">
<path fill="none" stroke="#63b8ff" d="M392.14,-298.11C400.63,-298.98 409.26,-299.87 417.83,-300.75"/>
<polygon fill="#63b8ff" stroke="#63b8ff" points="417.55,-304.24 427.86,-301.79 418.27,-297.28 417.55,-304.24"/>
</a>
</g>
</g>
<!-- Node7 -->
<g id="Node000007" class="node">
<title>Node7</title>
<g id="a_Node000007"><a xlink:href="../../d2/dc3/classArcane_1_1ServiceRegisterer.html#ae399544afdc651294d8e2d6883f31b39" target="_top" xlink:title="Propriétés dans le cas d&#39;un module.">
<polygon fill="white" stroke="#666666" points="599.5,-279 456.5,-279 456.5,-249 599.5,-249 599.5,-279"/>
<text text-anchor="start" x="464.5" y="-267" font-family="Helvetica,sans-Serif" font-size="10.00">Arcane::ServiceRegisterer</text>
<text text-anchor="middle" x="528" y="-256" font-family="Helvetica,sans-Serif" font-size="10.00">::moduleProperty</text>
</a>
</g>
</g>
<!-- Node2&#45;&gt;Node7 -->
<g id="edge6_Node000002_Node000007" class="edge">
<title>Node2&#45;&gt;Node7</title>
<g id="a_edge6_Node000002_Node000007"><a xlink:title=" ">
<path fill="none" stroke="#63b8ff" d="M392.14,-277.89C410.12,-276.04 428.71,-274.12 446.12,-272.33"/>
<polygon fill="#63b8ff" stroke="#63b8ff" points="446.63,-275.8 456.22,-271.29 445.92,-268.83 446.63,-275.8"/>
</a>
</g>
</g>
<!-- Node2&#45;&gt;Node8 -->
<g id="edge7_Node000002_Node000008" class="edge">
<title>Node2&#45;&gt;Node8</title>
<g id="a_edge7_Node000002_Node000008"><a xlink:title=" ">
<path fill="none" stroke="#63b8ff" d="M316.95,-267.29C342.34,-245.45 385.33,-211.55 428,-192 434,-189.25 440.34,-186.8 446.82,-184.6"/>
<polygon fill="#63b8ff" stroke="#63b8ff" points="447.89,-187.94 456.36,-181.58 445.77,-181.26 447.89,-187.94"/>
</a>
</g>
</g>
<!-- Node9 -->
<g id="Node000009" class="node">
<title>Node9</title>
<g id="a_Node000009"><a xlink:href="../../d2/dc3/classArcane_1_1ServiceRegisterer.html#aabfe56ccd156ca3c58c956ba111c9f01" target="_top" xlink:title="Propriétés dans le cas d&#39;un service.">
<polygon fill="white" stroke="#666666" points="599.5,-231 456.5,-231 456.5,-201 599.5,-201 599.5,-231"/>
<text text-anchor="start" x="464.5" y="-219" font-family="Helvetica,sans-Serif" font-size="10.00">Arcane::ServiceRegisterer</text>
<text text-anchor="middle" x="528" y="-208" font-family="Helvetica,sans-Serif" font-size="10.00">::serviceProperty</text>
</a>
</g>
</g>
<!-- Node2&#45;&gt;Node9 -->
<g id="edge8_Node000002_Node000009" class="edge">
<title>Node2&#45;&gt;Node9</title>
<g id="a_edge8_Node000002_Node000009"><a xlink:title=" ">
<path fill="none" stroke="#63b8ff" d="M347.36,-267.42C371.75,-258.39 401.13,-248.04 428,-240 435.39,-237.79 443.13,-235.63 450.89,-233.58"/>
<polygon fill="#63b8ff" stroke="#63b8ff" points="451.9,-236.94 460.7,-231.04 450.15,-230.16 451.9,-236.94"/>
</a>
</g>
</g>
<!-- Node11 -->
<g id="Node000011" class="node">
<title>Node11</title>
<g id="a_Node000011"><a xlink:href="../../d2/dc3/classArcane_1_1ServiceRegisterer.html#afa2ad42ab30c5444eb3ec9b702c7f6d3" target="_top" xlink:title="Crée en enregistreur pour le service name et la fonction func.">
<polygon fill="white" stroke="#666666" points="599.5,-95 456.5,-95 456.5,-65 599.5,-65 599.5,-95"/>
<text text-anchor="start" x="464.5" y="-83" font-family="Helvetica,sans-Serif" font-size="10.00">Arcane::ServiceRegisterer</text>
<text text-anchor="middle" x="528" y="-72" font-family="Helvetica,sans-Serif" font-size="10.00">::ServiceRegisterer</text>
</a>
</g>
</g>
<!-- Node10&#45;&gt;Node11 -->
<g id="edge10_Node000010_Node000011" class="edge">
<title>Node10&#45;&gt;Node11</title>
<g id="a_edge10_Node000010_Node000011"><a xlink:title=" ">
<path fill="none" stroke="#63b8ff" d="M358.51,-134C369.72,-131.16 381.23,-128.11 392,-125 419.66,-117.02 450.11,-106.98 475.08,-98.41"/>
<polygon fill="#63b8ff" stroke="#63b8ff" points="476.41,-101.65 484.72,-95.08 474.12,-95.04 476.41,-101.65"/>
</a>
</g>
</g>
<!-- Node14&#45;&gt;Node11 -->
<g id="edge15_Node000014_Node000011" class="edge">
<title>Node14&#45;&gt;Node11</title>
<g id="a_edge15_Node000014_Node000011"><a xlink:title=" ">
<path fill="none" stroke="#63b8ff" d="M357.65,-30.05C369.12,-32.92 380.93,-35.97 392,-39 417.75,-46.06 446.04,-54.54 470.04,-61.95"/>
<polygon fill="#63b8ff" stroke="#63b8ff" points="469.11,-65.32 479.7,-64.94 471.19,-58.64 469.11,-65.32"/>
</a>
</g>
</g>
</g>
</svg>

<g id="navigator" transform="translate(0 0)" fill="#404254">
  <rect fill="#f2f5e9" fill-opacity="0.5" stroke="#606060" stroke-width=".5" x="0" y="0" width="60" height="60"/>
  <use id="zoomplus" xlink:href="#zoomPlus" x="17" y="9" onmousedown="handleZoom(evt,'in')"/>
  <use id="zoomminus" xlink:href="#zoomMin" x="42" y="9" onmousedown="handleZoom(evt,'out')"/>
  <use id="reset" xlink:href="#resetDef" x="30" y="36" onmousedown="handleReset()"/>
   <use id="arrowup" xlink:href="#arrowUp" x="0" y="0" onmousedown="handlePan(0,-1)"/>
  <use id="arrowright" xlink:href="#arrowRight" x="0" y="0" onmousedown="handlePan(1,0)"/>
  <use id="arrowdown" xlink:href="#arrowDown" x="0" y="0" onmousedown="handlePan(0,1)"/>
  <use id="arrowleft" xlink:href="#arrowLeft" x="0" y="0" onmousedown="handlePan(-1,0)"/>
</g>
<svg viewBox="0 0 15 15" width="100%" height="30px" preserveAspectRatio="xMaxYMin meet">
 <g id="arrow_out" transform="scale(0.3 0.3)">
  <a xlink:href="classArcane_1_1ServiceAndModuleFactoryMng_acd64797aaa41ec4784c46cad53cdc29e_cgraph_org.svg" target="_base">
   <rect id="button" ry="5" rx="5" y="6" x="6" height="38" width="38"
        fill="#f2f5e9" fill-opacity="0.5" stroke="#606060" stroke-width="1.0"/>
   <path id="arrow"
     d="M 11.500037,31.436501 C 11.940474,20.09759 22.043105,11.32322 32.158766,21.979434 L 37.068811,17.246167 C 37.068811,17.246167 37.088388,32 37.088388,32 L 22.160133,31.978069 C 22.160133,31.978069 26.997745,27.140456 26.997745,27.140456 C 18.528582,18.264221 13.291696,25.230495 11.500037,31.436501 z"
     style="fill:#404040;"/>
  </a>
 </g>
</svg>

<style type='text/css'>
<![CDATA[
[data-mouse-over-selected='false'] { opacity: 0.7; }
[data-mouse-over-selected='true']  { opacity: 1.0; }
]]>
</style>
<script type="application/ecmascript"><![CDATA[
document.addEventListener('DOMContentLoaded', (event) => {
  highlightEdges();
  highlightAdjacentNodes();
});
]]></script>
</svg>
