<?xml version="1.0" encoding="UTF-8" standalone="no"?>
<!DOCTYPE svg PUBLIC "-//W3C//DTD SVG 1.1//EN"
 "http://www.w3.org/Graphics/SVG/1.1/DTD/svg11.dtd">
<!-- Generated by graphviz version 14.1.2 (0)
 -->
<!-- Title: Arcane::VariableScalarT::VariableScalarT Pages: 1 -->
<!--zoomable 299 -->

<svg id="main" version="1.1" xmlns="http://www.w3.org/2000/svg" xmlns:xlink="http://www.w3.org/1999/xlink" xml:space="preserve" onload="init(evt)">

<style type="text/css"><![CDATA[
.node, .edge {opacity: 0.7;}
.node.selected, .edge.selected {opacity: 1;}
.edge:hover path { stroke: red; }
.edge:hover polygon { stroke: red; fill: red; }
]]></style>

<defs>
  <circle id="rim" cx="0" cy="0" r="7"/>
  <circle id="rim2" cx="0" cy="0" r="3.5"/>
  <g id="zoomPlus">
    <use xlink:href="#rim" fill="#404040"><set attributeName="fill" to="#808080" begin="zoomplus.mouseover" end="zoomplus.mouseout"/></use>
    <path d="M-4,0h8M0,-4v8" fill="none" stroke="white" stroke-width="1.5" pointer-events="none"/>
  </g>
  <g id="zoomMin">
    <use xlink:href="#rim" fill="#404040"><set attributeName="fill" to="#808080" begin="zoomminus.mouseover" end="zoomminus.mouseout"/></use>
    <path d="M-4,0h8" fill="none" stroke="white" stroke-width="1.5" pointer-events="none"/>
  </g>
  <g id="arrowUp" transform="translate(30 24)">
    <use xlink:href="#rim"/>
    <path pointer-events="none" fill="none" stroke="white" stroke-width="1.5" d="M0,-3.0v7 M-2.5,-0.5L0,-3.0L2.5,-0.5"/>
  </g>
  <g id="arrowRight" transform="rotate(90) translate(36 -43)">
    <use xlink:href="#rim"/>
    <path pointer-events="none" fill="none" stroke="white" stroke-width="1.5" d="M0,-3.0v7 M-2.5,-0.5L0,-3.0L2.5,-0.5"/>
  </g>
  <g id="arrowDown" transform="rotate(180) translate(-30 -48)">
    <use xlink:href="#rim"/>
    <path pointer-events="none" fill="none" stroke="white" stroke-width="1.5" d="M0,-3.0v7 M-2.5,-0.5L0,-3.0L2.5,-0.5"/>
  </g>
  <g id="arrowLeft" transform="rotate(270) translate(-36 17)">
    <use xlink:href="#rim"/>
    <path pointer-events="none" fill="none" stroke="white" stroke-width="1.5" d="M0,-3.0v7 M-2.5,-0.5L0,-3.0L2.5,-0.5"/>
  </g>
  <g id="resetDef">
    <use xlink:href="#rim2" fill="#404040"><set attributeName="fill" to="#808080" begin="reset.mouseover" end="reset.mouseout"/></use>
  </g>
</defs>
<script type="application/ecmascript">
var viewWidth = 759;
var viewHeight = 299;
var sectionId = 'dynsection-2';
</script>
<script type="application/ecmascript" xlink:href="../../svg.min.js"/>
<svg id="graph" class="graph">
<g id="viewport">
<title>Arcane::VariableScalarT::VariableScalarT</title>
<!-- Node1 -->
<g id="Node000001" class="node">
<title>Node1</title>
<g id="a_Node000001"><a xlink:title="Constructs a variable based on the reference v.">
<polygon fill="#999999" stroke="#666666" points="131.5,-175.5 0,-175.5 0,-142 131.5,-142 131.5,-175.5"/>
<text xml:space="preserve" text-anchor="start" x="8" y="-162" font-family="Helvetica,sans-Serif" font-size="10.00">Arcane::VariableScalarT</text>
<text xml:space="preserve" text-anchor="middle" x="65.75" y="-149.25" font-family="Helvetica,sans-Serif" font-size="10.00">::VariableScalarT</text>
</a>
</g>
</g>
<!-- Node2 -->
<g id="Node000002" class="node">
<title>Node2</title>
<g id="a_Node000002"><a xlink:href="../../d6/df5/classArcane_1_1Variable.html#a2bbc490505b084405a2121cc61018246" target="_top" xlink:title="Positions the data.">
<polygon fill="white" stroke="#666666" points="288.88,-279.5 187.38,-279.5 187.38,-246 288.88,-246 288.88,-279.5"/>
<text xml:space="preserve" text-anchor="start" x="195.38" y="-266" font-family="Helvetica,sans-Serif" font-size="10.00">Arcane::Variable::</text>
<text xml:space="preserve" text-anchor="middle" x="238.12" y="-253.25" font-family="Helvetica,sans-Serif" font-size="10.00">_setData</text>
</a>
</g>
</g>
<!-- Node1&#45;&gt;Node2 -->
<g id="edge1_Node000001_Node000002" class="edge">
<title>Node1&#45;&gt;Node2</title>
<g id="a_edge1_Node000001_Node000002"><a xlink:title=" ">
<path fill="none" stroke="#63b8ff" d="M85.22,-175.84C104.56,-193.04 136.38,-219.42 167.5,-236.75 170.5,-238.42 173.64,-240.03 176.84,-241.56"/>
<polygon fill="#63b8ff" stroke="#63b8ff" points="175.29,-244.7 185.85,-245.6 178.15,-238.32 175.29,-244.7"/>
</a>
</g>
</g>
<!-- Node4 -->
<g id="Node000004" class="node">
<title>Node4</title>
<g id="a_Node000004"><a xlink:href="../../da/dbf/classArcane_1_1VariableScalarT.html#a07c9f2d75410ca9b904c762524cc6896" target="_top" xlink:title="Data associated with the variable.">
<polygon fill="white" stroke="#666666" points="303.88,-227.5 172.38,-227.5 172.38,-194 303.88,-194 303.88,-227.5"/>
<text xml:space="preserve" text-anchor="start" x="180.38" y="-214" font-family="Helvetica,sans-Serif" font-size="10.00">Arcane::VariableScalarT</text>
<text xml:space="preserve" text-anchor="middle" x="238.12" y="-201.25" font-family="Helvetica,sans-Serif" font-size="10.00">::data</text>
</a>
</g>
</g>
<!-- Node1&#45;&gt;Node4 -->
<g id="edge4_Node000001_Node000004" class="edge">
<title>Node1&#45;&gt;Node4</title>
<g id="a_edge4_Node000001_Node000004"><a xlink:title=" ">
<path fill="none" stroke="#63b8ff" d="M123.01,-175.92C138.05,-180.51 154.46,-185.52 170.02,-190.27"/>
<polygon fill="#63b8ff" stroke="#63b8ff" points="168.6,-193.49 179.19,-193.07 170.64,-186.8 168.6,-193.49"/>
</a>
</g>
</g>
<!-- Node5 -->
<g id="Node000005" class="node">
<title>Node5</title>
<g id="a_Node000005"><a xlink:href="../../d1/d17/classArcane_1_1TraceAccessor.html#a7f15f017b10b72c85bba3fce76314619" target="_top" xlink:title="Flow for an information message.">
<polygon fill="white" stroke="#666666" points="300.5,-175.5 175.75,-175.5 175.75,-142 300.5,-142 300.5,-175.5"/>
<text xml:space="preserve" text-anchor="start" x="183.75" y="-162" font-family="Helvetica,sans-Serif" font-size="10.00">Arcane::TraceAccessor</text>
<text xml:space="preserve" text-anchor="middle" x="238.12" y="-149.25" font-family="Helvetica,sans-Serif" font-size="10.00">::info</text>
</a>
</g>
</g>
<!-- Node1&#45;&gt;Node5 -->
<g id="edge5_Node000001_Node000005" class="edge">
<title>Node1&#45;&gt;Node5</title>
<g id="a_edge5_Node000001_Node000005"><a xlink:title=" ">
<path fill="none" stroke="#63b8ff" d="M131.65,-158.75C142.33,-158.75 153.46,-158.75 164.31,-158.75"/>
<polygon fill="#63b8ff" stroke="#63b8ff" points="163.98,-162.25 173.98,-158.75 163.98,-155.25 163.98,-162.25"/>
</a>
</g>
</g>
<!-- Node6 -->
<g id="Node000006" class="node">
<title>Node6</title>
<g id="a_Node000006"><a xlink:href="../../d0/d32/namespaceArcane.html#ab92dc7635f8e1ceb84728b8c45dba2b1" target="_top" xlink:title="Creates a reference on a pointer.">
<polygon fill="white" stroke="#666666" points="606.25,-101.12 507,-101.12 507,-80.38 606.25,-80.38 606.25,-101.12"/>
<text xml:space="preserve" text-anchor="middle" x="556.62" y="-87.62" font-family="Helvetica,sans-Serif" font-size="10.00">Arcane::makeRef</text>
</a>
</g>
</g>
<!-- Node1&#45;&gt;Node6 -->
<g id="edge6_Node000001_Node000006" class="edge">
<title>Node1&#45;&gt;Node6</title>
<g id="a_edge6_Node000001_Node000006"><a xlink:title=" ">
<path fill="none" stroke="#63b8ff" d="M127.71,-141.51C140.76,-138.24 154.53,-135.11 167.5,-132.75 282.45,-111.81 418.6,-100.03 495.26,-94.56"/>
<polygon fill="#63b8ff" stroke="#63b8ff" points="495.35,-98.07 505.08,-93.88 494.86,-91.08 495.35,-98.07"/>
</a>
</g>
</g>
<!-- Node8 -->
<g id="Node000008" class="node">
<title>Node8</title>
<g id="a_Node000008"><a xlink:href="../../d6/df5/classArcane_1_1Variable.html#a1ddb88605acd5d1ebd3a0f9933440eaf" target="_top" xlink:title="Creates a variable linked to the reference v.">
<polygon fill="white" stroke="#666666" points="308.75,-79.12 167.5,-79.12 167.5,-58.38 308.75,-58.38 308.75,-79.12"/>
<text xml:space="preserve" text-anchor="middle" x="238.12" y="-65.62" font-family="Helvetica,sans-Serif" font-size="10.00">Arcane::Variable::Variable</text>
</a>
</g>
</g>
<!-- Node1&#45;&gt;Node8 -->
<g id="edge8_Node000001_Node000008" class="edge">
<title>Node1&#45;&gt;Node8</title>
<g id="a_edge8_Node000001_Node000008"><a xlink:title=" ">
<path fill="none" stroke="#63b8ff" d="M94.08,-141.63C114.09,-129.38 142.07,-112.8 167.5,-99.75 178.09,-94.31 189.84,-88.86 200.63,-84.09"/>
<polygon fill="#63b8ff" stroke="#63b8ff" points="201.86,-87.37 209.63,-80.17 199.06,-80.95 201.86,-87.37"/>
</a>
</g>
</g>
<!-- Node3 -->
<g id="Node000003" class="node">
<title>Node3</title>
<g id="a_Node000003"><a xlink:href="../../d5/d96/classArcane_1_1IVariable.html#a7bed84eec0c4089556231bf40233e6ab" target="_top" xlink:title="Data associated with the variable.">
<polygon fill="white" stroke="#666666" points="471,-273.12 344.75,-273.12 344.75,-252.38 471,-252.38 471,-273.12"/>
<text xml:space="preserve" text-anchor="middle" x="407.88" y="-259.62" font-family="Helvetica,sans-Serif" font-size="10.00">Arcane::IVariable::data</text>
</a>
</g>
</g>
<!-- Node2&#45;&gt;Node3 -->
<g id="edge2_Node000002_Node000003" class="edge">
<title>Node2&#45;&gt;Node3</title>
<g id="a_edge2_Node000002_Node000003"><a xlink:title=" ">
<path fill="none" stroke="#63b8ff" d="M289,-262.75C302.85,-262.75 318.2,-262.75 333.11,-262.75"/>
<polygon fill="#63b8ff" stroke="#63b8ff" points="332.88,-266.25 342.88,-262.75 332.88,-259.25 332.88,-266.25"/>
</a>
</g>
</g>
<!-- Node3&#45;&gt;Node3 -->
<g id="edge3_Node000003_Node000003" class="edge">
<title>Node3&#45;&gt;Node3</title>
<g id="a_edge3_Node000003_Node000003"><a xlink:title=" ">
<path fill="none" stroke="#63b8ff" d="M383.91,-273.52C374.32,-282.18 382.31,-291.12 407.88,-291.12 421.86,-291.12 430.58,-288.45 434.05,-284.61"/>
<polygon fill="#63b8ff" stroke="#63b8ff" points="437.52,-284.13 432.14,-275.01 430.66,-285.5 437.52,-284.13"/>
</a>
</g>
</g>
<!-- Node7 -->
<g id="Node000007" class="node">
<title>Node7</title>
<g id="a_Node000007"><a xlink:href="../../d6/da9/classArcane_1_1Ref.html#a25df083cc0e7dd4967932fc434d83a49" target="_top" xlink:title="Creates a reference from the instance t.">
<polygon fill="white" stroke="#666666" points="750.5,-101.12 642.25,-101.12 642.25,-80.38 750.5,-80.38 750.5,-101.12"/>
<text xml:space="preserve" text-anchor="middle" x="696.38" y="-87.62" font-family="Helvetica,sans-Serif" font-size="10.00">Arcane::Ref::create</text>
</a>
</g>
</g>
<!-- Node6&#45;&gt;Node7 -->
<g id="edge7_Node000006_Node000007" class="edge">
<title>Node6&#45;&gt;Node7</title>
<g id="a_edge7_Node000006_Node000007"><a xlink:title=" ">
<path fill="none" stroke="#63b8ff" d="M606.58,-90.75C614.36,-90.75 622.51,-90.75 630.58,-90.75"/>
<polygon fill="#63b8ff" stroke="#63b8ff" points="630.39,-94.25 640.39,-90.75 630.39,-87.25 630.39,-94.25"/>
</a>
</g>
</g>
<!-- Node9 -->
<g id="Node000009" class="node">
<title>Node9</title>
<g id="a_Node000009"><a xlink:href="../../d1/d17/classArcane_1_1TraceAccessor.html#a0dc4fb7fbd81b8c791b0f7ebb606282d" target="_top" xlink:title="Constructs an accessor via the trace manager m.">
<polygon fill="white" stroke="#666666" points="470.25,-85.5 345.5,-85.5 345.5,-52 470.25,-52 470.25,-85.5"/>
<text xml:space="preserve" text-anchor="start" x="353.5" y="-72" font-family="Helvetica,sans-Serif" font-size="10.00">Arcane::TraceAccessor</text>
<text xml:space="preserve" text-anchor="middle" x="407.88" y="-59.25" font-family="Helvetica,sans-Serif" font-size="10.00">::TraceAccessor</text>
</a>
</g>
</g>
<!-- Node8&#45;&gt;Node9 -->
<g id="edge9_Node000008_Node000009" class="edge">
<title>Node8&#45;&gt;Node9</title>
<g id="a_edge9_Node000008_Node000009"><a xlink:title=" ">
<path fill="none" stroke="#63b8ff" d="M308.81,-68.75C317.1,-68.75 325.59,-68.75 333.92,-68.75"/>
<polygon fill="#63b8ff" stroke="#63b8ff" points="333.65,-72.25 343.65,-68.75 333.65,-65.25 333.65,-72.25"/>
</a>
</g>
</g>
<!-- Node10 -->
<g id="Node000010" class="node">
<title>Node10</title>
<g id="a_Node000010"><a xlink:href="../../d1/d17/classArcane_1_1TraceAccessor.html#ab0263636a823e11152e94c4cd094b706" target="_top" xlink:title="Trace manager.">
<polygon fill="white" stroke="#666666" points="470.25,-33.5 345.5,-33.5 345.5,0 470.25,0 470.25,-33.5"/>
<text xml:space="preserve" text-anchor="start" x="353.5" y="-20" font-family="Helvetica,sans-Serif" font-size="10.00">Arcane::TraceAccessor</text>
<text xml:space="preserve" text-anchor="middle" x="407.88" y="-7.25" font-family="Helvetica,sans-Serif" font-size="10.00">::traceMng</text>
</a>
</g>
</g>
<!-- Node8&#45;&gt;Node10 -->
<g id="edge11_Node000008_Node000010" class="edge">
<title>Node8&#45;&gt;Node10</title>
<g id="a_edge11_Node000008_Node000010"><a xlink:title=" ">
<path fill="none" stroke="#63b8ff" d="M273.88,-57.98C293.1,-52.02 317.63,-44.42 340.37,-37.37"/>
<polygon fill="#63b8ff" stroke="#63b8ff" points="341.4,-40.71 349.91,-34.41 339.33,-34.02 341.4,-40.71"/>
</a>
</g>
</g>
<!-- Node9&#45;&gt;Node6 -->
<g id="edge10_Node000009_Node000006" class="edge">
<title>Node9&#45;&gt;Node6</title>
<g id="a_edge10_Node000009_Node000006"><a xlink:title=" ">
<path fill="none" stroke="#63b8ff" d="M470.68,-78.02C478.88,-79.25 487.28,-80.5 495.45,-81.73"/>
<polygon fill="#63b8ff" stroke="#63b8ff" points="494.9,-85.19 505.31,-83.21 495.94,-78.26 494.9,-85.19"/>
</a>
</g>
</g>
</g>
</svg>

<g id="navigator" transform="translate(0 0)" fill="#404254">
  <rect fill="#f2f5e9" fill-opacity="0.5" stroke="#606060" stroke-width=".5" x="0" y="0" width="60" height="60"/>
  <use id="zoomplus" xlink:href="#zoomPlus" x="17" y="9" onmousedown="handleZoom(evt,'in')"/>
  <use id="zoomminus" xlink:href="#zoomMin" x="42" y="9" onmousedown="handleZoom(evt,'out')"/>
  <use id="reset" xlink:href="#resetDef" x="30" y="36" onmousedown="handleReset()"/>
   <use id="arrowup" xlink:href="#arrowUp" x="0" y="0" onmousedown="handlePan(0,-1)"/>
  <use id="arrowright" xlink:href="#arrowRight" x="0" y="0" onmousedown="handlePan(1,0)"/>
  <use id="arrowdown" xlink:href="#arrowDown" x="0" y="0" onmousedown="handlePan(0,1)"/>
  <use id="arrowleft" xlink:href="#arrowLeft" x="0" y="0" onmousedown="handlePan(-1,0)"/>
</g>
<svg viewBox="0 0 15 15" width="100%" height="30px" preserveAspectRatio="xMaxYMin meet">
 <g id="arrow_out" transform="scale(0.3 0.3)">
  <a xlink:href="classArcane_1_1VariableScalarT_a3aaa96437f04b8d9b83b42492f7df268_cgraph_org.svg" target="_base">
   <rect id="button" ry="5" rx="5" y="6" x="6" height="38" width="38"
        fill="#f2f5e9" fill-opacity="0.5" stroke="#606060" stroke-width="1.0"/>
   <path id="arrow"
     d="M 11.500037,31.436501 C 11.940474,20.09759 22.043105,11.32322 32.158766,21.979434 L 37.068811,17.246167 C 37.068811,17.246167 37.088388,32 37.088388,32 L 22.160133,31.978069 C 22.160133,31.978069 26.997745,27.140456 26.997745,27.140456 C 18.528582,18.264221 13.291696,25.230495 11.500037,31.436501 z"
     style="fill:#404040;"/>
  </a>
 </g>
</svg>

<style type='text/css'>
<![CDATA[
[data-mouse-over-selected='false'] { opacity: 0.7; }
[data-mouse-over-selected='true']  { opacity: 1.0; }
]]>
</style>
<script type="application/ecmascript"><![CDATA[
document.addEventListener('DOMContentLoaded', (event) => {
  highlightEdges();
  highlightAdjacentNodes();
});
]]></script>
</svg>
