<?xml version="1.0" encoding="UTF-8" standalone="no"?>
<!DOCTYPE svg PUBLIC "-//W3C//DTD SVG 1.1//EN"
 "http://www.w3.org/Graphics/SVG/1.1/DTD/svg11.dtd">
<!-- Generated by graphviz version 2.43.0 (0)
 -->
<!-- Title: Arcane::MshMeshWriter::_convertToMshType Pages: 1 -->
<svg width="479pt" height="38pt"
 viewBox="0.00 0.00 479.00 38.00" xmlns="http://www.w3.org/2000/svg" xmlns:xlink="http://www.w3.org/1999/xlink">
<g id="graph0" class="graph" transform="scale(1 1) rotate(0) translate(4 34)">
<title>Arcane::MshMeshWriter::_convertToMshType</title>
<!-- Node1 -->
<g id="Node000001" class="node">
<title>Node1</title>
<g id="a_Node000001"><a xlink:title="Converti le type Arcane en le type GMSH.">
<polygon fill="#999999" stroke="#666666" points="471,-30 338,-30 338,0 471,0 471,-30"/>
<text text-anchor="start" x="346" y="-18" font-family="Helvetica,sans-Serif" font-size="10.00">Arcane::MshMeshWriter</text>
<text text-anchor="middle" x="404.5" y="-7" font-family="Helvetica,sans-Serif" font-size="10.00">::_convertToMshType</text>
</a>
</g>
</g>
<!-- Node2 -->
<g id="Node000002" class="node">
<title>Node2</title>
<g id="a_Node000002"><a xlink:href="../../d1/dc8/classArcane_1_1MshMeshWriter.html#a8bdb272b6e1a3d24d1fc12d5e9f765ee" target="_top" xlink:title="Ecrit au format MSH V4.">
<polygon fill="white" stroke="#666666" points="302,-30 169,-30 169,0 302,0 302,-30"/>
<text text-anchor="start" x="177" y="-18" font-family="Helvetica,sans-Serif" font-size="10.00">Arcane::MshMeshWriter</text>
<text text-anchor="middle" x="235.5" y="-7" font-family="Helvetica,sans-Serif" font-size="10.00">::_writeMeshToFileV4</text>
</a>
</g>
</g>
<!-- Node1&#45;&gt;Node2 -->
<g id="edge1_Node000001_Node000002" class="edge">
<title>Node1&#45;&gt;Node2</title>
<g id="a_edge1_Node000001_Node000002"><a xlink:title=" ">
<path fill="none" stroke="#63b8ff" d="M327.93,-15C319.32,-15 310.58,-15 302.11,-15"/>
<polygon fill="#63b8ff" stroke="#63b8ff" points="327.98,-18.5 337.98,-15 327.98,-11.5 327.98,-18.5"/>
</a>
</g>
</g>
<!-- Node3 -->
<g id="Node000003" class="node">
<title>Node3</title>
<g id="a_Node000003"><a xlink:href="../../d1/dc8/classArcane_1_1MshMeshWriter.html#ac3cc92a2194e9e32ea92b42711d7b961" target="_top" xlink:title="Ecrit un maillage sur un fichier.">
<polygon fill="white" stroke="#666666" points="133,-30 0,-30 0,0 133,0 133,-30"/>
<text text-anchor="start" x="8" y="-18" font-family="Helvetica,sans-Serif" font-size="10.00">Arcane::MshMeshWriter</text>
<text text-anchor="middle" x="66.5" y="-7" font-family="Helvetica,sans-Serif" font-size="10.00">::writeMeshToFile</text>
</a>
</g>
</g>
<!-- Node2&#45;&gt;Node3 -->
<g id="edge2_Node000002_Node000003" class="edge">
<title>Node2&#45;&gt;Node3</title>
<g id="a_edge2_Node000002_Node000003"><a xlink:title=" ">
<path fill="none" stroke="#63b8ff" d="M158.93,-15C150.32,-15 141.58,-15 133.11,-15"/>
<polygon fill="#63b8ff" stroke="#63b8ff" points="158.98,-18.5 168.98,-15 158.98,-11.5 158.98,-18.5"/>
</a>
</g>
</g>
</g>
</svg>
