<?xml version="1.0" encoding="UTF-8" standalone="no"?>
<!DOCTYPE svg PUBLIC "-//W3C//DTD SVG 1.1//EN"
 "http://www.w3.org/Graphics/SVG/1.1/DTD/svg11.dtd">
<!-- Generated by graphviz version 2.43.0 (0)
 -->
<!-- Title: Arcane::MpiSerializeDispatcher::ReceiveSerializerSubRequest Pages: 1 -->
<svg width="180pt" height="239pt"
 viewBox="0.00 0.00 180.00 239.00" xmlns="http://www.w3.org/2000/svg" xmlns:xlink="http://www.w3.org/1999/xlink">

<svg id="main" version="1.1" xmlns="http://www.w3.org/2000/svg" xmlns:xlink="http://www.w3.org/1999/xlink" xml:space="preserve">

<style type="text/css"><![CDATA[
.node, .edge {opacity: 0.7;}
.node.selected, .edge.selected {opacity: 1;}
.edge:hover path { stroke: red; }
.edge:hover polygon { stroke: red; fill: red; }
]]></style>
<script type="application/ecmascript" xlink:href="../../svg.min.js"/>
<svg id="graph" class="graph">
<g id="graph0" class="graph" transform="scale(1 1) rotate(0) translate(4 235)">
<title>Arcane::MpiSerializeDispatcher::ReceiveSerializerSubRequest</title>
<!-- Node1 -->
<g id="Node000001" class="node">
<title>Node1</title>
<g id="a_Node000001"><a xlink:title=" ">
<polygon fill="#999999" stroke="transparent" points="172,-120 0,-120 0,0 172,0 172,-120"/>
<text text-anchor="start" x="9.5" y="-108" font-family="Helvetica,sans-Serif" font-size="10.00">Arcane::MpiSerializeDispatcher</text>
<text text-anchor="start" x="11.5" y="-97" font-family="Helvetica,sans-Serif" font-size="10.00">::ReceiveSerializerSubRequest</text>
<text text-anchor="start" x="6.5" y="-82" font-family="Helvetica,sans-Serif" font-size="10.00">&#45;</text>
<text text-anchor="start" x="17" y="-82" font-family="Helvetica,sans-Serif" font-size="10.00">m_dispatcher</text>
<text text-anchor="start" x="6.5" y="-67" font-family="Helvetica,sans-Serif" font-size="10.00">&#45;</text>
<text text-anchor="start" x="17" y="-67" font-family="Helvetica,sans-Serif" font-size="10.00">m_serialize_buffer</text>
<text text-anchor="start" x="6.5" y="-52" font-family="Helvetica,sans-Serif" font-size="10.00">&#45;</text>
<text text-anchor="start" x="17" y="-52" font-family="Helvetica,sans-Serif" font-size="10.00">m_mpi_tag</text>
<text text-anchor="start" x="6.5" y="-37" font-family="Helvetica,sans-Serif" font-size="10.00">&#45;</text>
<text text-anchor="start" x="17" y="-37" font-family="Helvetica,sans-Serif" font-size="10.00">m_action</text>
<text text-anchor="start" x="4" y="-22" font-family="Helvetica,sans-Serif" font-size="10.00">+</text>
<text text-anchor="start" x="17" y="-22" font-family="Helvetica,sans-Serif" font-size="10.00">ReceiveSerializerSubRequest()</text>
<text text-anchor="start" x="4" y="-7" font-family="Helvetica,sans-Serif" font-size="10.00">+</text>
<text text-anchor="start" x="17" y="-7" font-family="Helvetica,sans-Serif" font-size="10.00">executeOnCompletion()</text>
<polygon fill="#666666" stroke="#666666" points="0,-92 0,-92 172,-92 172,-92 0,-92"/>
<polygon fill="#666666" stroke="#666666" points="0,-32 0,-32 15,-32 15,-32 0,-32"/>
<polygon fill="#666666" stroke="#666666" points="15,-32 15,-32 172,-32 172,-32 15,-32"/>
<polygon fill="none" stroke="#666666" points="0,0 0,-120 172,-120 172,0 0,0"/>
</a>
</g>
</g>
<!-- Node2 -->
<g id="Node000002" class="node">
<title>Node2</title>
<g id="a_Node000002"><a xlink:href="../../db/d12/classArcane_1_1MessagePassing_1_1ISubRequest.html" target="_top" xlink:title="Sous&#45;requête d&#39;une requête.">
<polygon fill="white" stroke="transparent" points="154.5,-231 17.5,-231 17.5,-156 154.5,-156 154.5,-231"/>
<text text-anchor="start" x="26" y="-218.5" font-family="Helvetica,sans-Serif" font-size="10.00">Arcane::MessagePassing</text>
<text text-anchor="start" x="53" y="-207.5" font-family="Helvetica,sans-Serif" font-size="10.00">::ISubRequest</text>
<text text-anchor="start" x="84.5" y="-192.5" font-family="Helvetica,sans-Serif" font-size="10.00"> </text>
<text text-anchor="start" x="22" y="-177.5" font-family="Helvetica,sans-Serif" font-size="10.00">+</text>
<text text-anchor="start" x="35" y="-177.5" font-family="Helvetica,sans-Serif" font-size="10.00">~ISubRequest()</text>
<text text-anchor="start" x="22" y="-162.5" font-family="Helvetica,sans-Serif" font-size="10.00">+</text>
<text text-anchor="start" x="35" y="-162.5" font-family="Helvetica,sans-Serif" font-size="10.00">executeOnCompletion()</text>
<polygon fill="#666666" stroke="#666666" points="18,-202.5 18,-202.5 155,-202.5 155,-202.5 18,-202.5"/>
<polygon fill="#666666" stroke="#666666" points="18,-187.5 18,-187.5 155,-187.5 155,-187.5 18,-187.5"/>
<polygon fill="none" stroke="#666666" points="17.5,-156 17.5,-231 154.5,-231 154.5,-156 17.5,-156"/>
</a>
</g>
</g>
<!-- Node2&#45;&gt;Node1 -->
<g id="edge1_Node000001_Node000002" class="edge">
<title>Node2&#45;&gt;Node1</title>
<g id="a_edge1_Node000001_Node000002"><a xlink:title=" ">
<path fill="none" stroke="#63b8ff" d="M86,-145.67C86,-137.39 86,-128.68 86,-120.12"/>
<polygon fill="none" stroke="#63b8ff" points="82.5,-145.87 86,-155.87 89.5,-145.87 82.5,-145.87"/>
</a>
</g>
</g>
</g>
</svg>
</svg>

<style type='text/css'>
<![CDATA[
[data-mouse-over-selected='false'] { opacity: 0.7; }
[data-mouse-over-selected='true']  { opacity: 1.0; }
]]>
</style>
<script type="application/ecmascript"><![CDATA[
document.addEventListener('DOMContentLoaded', (event) => {
  highlightEdges();
  highlightAdjacentNodes();
});
]]></script>
</svg>
