<?xml version="1.0" encoding="UTF-8" standalone="no"?>
<!DOCTYPE svg PUBLIC "-//W3C//DTD SVG 1.1//EN"
 "http://www.w3.org/Graphics/SVG/1.1/DTD/svg11.dtd">
<!-- Generated by graphviz version 2.43.0 (0)
 -->
<!-- Title: Arcane::Alina::SimpleMatrixPartitioner&lt; Backend &gt; Pages: 1 -->
<svg width="175pt" height="265pt"
 viewBox="0.00 0.00 175.00 265.00" xmlns="http://www.w3.org/2000/svg" xmlns:xlink="http://www.w3.org/1999/xlink">
<g id="graph0" class="graph" transform="scale(1 1) rotate(0) translate(4 261)">
<title>Arcane::Alina::SimpleMatrixPartitioner&lt; Backend &gt;</title>
<!-- Node1 -->
<g id="Node000001" class="node">
<title>Node1</title>
<g id="a_Node000001"><a xlink:title="Simple matrix partitioner merging consecutive domains together.">
<polygon fill="#999999" stroke="transparent" points="156.5,-90 10.5,-90 10.5,0 156.5,0 156.5,-90"/>
<text text-anchor="start" x="15.5" y="-78" font-family="Helvetica,sans-Serif" font-size="10.00">Arcane::Alina::SimpleMatrix</text>
<text text-anchor="start" x="26" y="-67" font-family="Helvetica,sans-Serif" font-size="10.00">Partitioner&lt; Backend &gt;</text>
<text text-anchor="start" x="81.5" y="-52" font-family="Helvetica,sans-Serif" font-size="10.00"> </text>
<text text-anchor="start" x="14.5" y="-37" font-family="Helvetica,sans-Serif" font-size="10.00">+</text>
<text text-anchor="start" x="27.5" y="-37" font-family="Helvetica,sans-Serif" font-size="10.00">SimpleMatrixPartitioner()</text>
<text text-anchor="start" x="14.5" y="-22" font-family="Helvetica,sans-Serif" font-size="10.00">+</text>
<text text-anchor="start" x="27.5" y="-22" font-family="Helvetica,sans-Serif" font-size="10.00">is_needed()</text>
<text text-anchor="start" x="14.5" y="-7" font-family="Helvetica,sans-Serif" font-size="10.00">+</text>
<text text-anchor="start" x="27.5" y="-7" font-family="Helvetica,sans-Serif" font-size="10.00">operator()()</text>
<polygon fill="#666666" stroke="#666666" points="10.5,-62 10.5,-62 156.5,-62 156.5,-62 10.5,-62"/>
<polygon fill="#666666" stroke="#666666" points="10.5,-47 10.5,-47 156.5,-47 156.5,-47 10.5,-47"/>
<polygon fill="none" stroke="#666666" points="10.5,0 10.5,-90 156.5,-90 156.5,0 10.5,0"/>
</a>
</g>
</g>
<!-- Node2 -->
<g id="Node000002" class="node">
<title>Node2</title>
<g id="a_Node000002"><a xlink:href="../../dd/db6/structArcane_1_1Alina_1_1SimpleMatrixPartitioner_1_1params.html" target="_top" xlink:title=" ">
<polygon fill="white" stroke="transparent" points="167,-257 0,-257 0,-137 167,-137 167,-257"/>
<text text-anchor="start" x="5.5" y="-245" font-family="Helvetica,sans-Serif" font-size="10.00">Arcane::Alina::SimpleMatrix</text>
<text text-anchor="start" x="5.5" y="-234" font-family="Helvetica,sans-Serif" font-size="10.00">Partitioner&lt; Backend &gt;::params</text>
<text text-anchor="start" x="24" y="-219" font-family="Helvetica,sans-Serif" font-size="10.00">+</text>
<text text-anchor="start" x="56.5" y="-219" font-family="Helvetica,sans-Serif" font-size="10.00">enable</text>
<text text-anchor="start" x="24" y="-204" font-family="Helvetica,sans-Serif" font-size="10.00">+</text>
<text text-anchor="start" x="56.5" y="-204" font-family="Helvetica,sans-Serif" font-size="10.00">min_per_proc</text>
<text text-anchor="start" x="24" y="-189" font-family="Helvetica,sans-Serif" font-size="10.00">+</text>
<text text-anchor="start" x="56.5" y="-189" font-family="Helvetica,sans-Serif" font-size="10.00">shrink_ratio</text>
<text text-anchor="start" x="24" y="-174" font-family="Helvetica,sans-Serif" font-size="10.00">+</text>
<text text-anchor="start" x="56.5" y="-174" font-family="Helvetica,sans-Serif" font-size="10.00">params()</text>
<text text-anchor="start" x="24" y="-159" font-family="Helvetica,sans-Serif" font-size="10.00">+</text>
<text text-anchor="start" x="56.5" y="-159" font-family="Helvetica,sans-Serif" font-size="10.00">params()</text>
<text text-anchor="start" x="24" y="-144" font-family="Helvetica,sans-Serif" font-size="10.00">+</text>
<text text-anchor="start" x="56.5" y="-144" font-family="Helvetica,sans-Serif" font-size="10.00">get()</text>
<polygon fill="#bfbfbf" stroke="#bfbfbf" points="0.5,-229 0.5,-229 167.5,-229 167.5,-229 0.5,-229"/>
<polygon fill="#bfbfbf" stroke="#bfbfbf" points="0.5,-184 0.5,-184 54.5,-184 54.5,-184 0.5,-184"/>
<polygon fill="#bfbfbf" stroke="#bfbfbf" points="54.5,-184 54.5,-184 167.5,-184 167.5,-184 54.5,-184"/>
<polygon fill="none" stroke="#bfbfbf" points="0,-137 0,-257 167,-257 167,-137 0,-137"/>
</a>
</g>
</g>
<!-- Node2&#45;&gt;Node1 -->
<g id="edge1_Node000001_Node000002" class="edge">
<title>Node2&#45;&gt;Node1</title>
<g id="a_edge1_Node000001_Node000002"><a xlink:title=" ">
<path fill="none" stroke="#63b8ff" d="M83.5,-136.72C83.5,-125.41 83.5,-113.61 83.5,-102.4"/>
<polygon fill="none" stroke="#63b8ff" points="83.5,-102.05 79.5,-96.05 83.5,-90.05 87.5,-96.05 83.5,-102.05"/>
</a>
</g>
<text text-anchor="middle" x="99" y="-111" font-family="Helvetica,sans-Serif" font-size="10.00" fill="grey"> +prm</text>
</g>
</g>
</svg>
