<?xml version="1.0" encoding="UTF-8" standalone="no"?>
<!DOCTYPE svg PUBLIC "-//W3C//DTD SVG 1.1//EN"
 "http://www.w3.org/Graphics/SVG/1.1/DTD/svg11.dtd">
<!-- Generated by graphviz version 2.43.0 (0)
 -->
<!-- Title: Arcane::CartesianMeshImpl::_addPatch Pages: 1 -->
<!--zoomable 205 -->

<svg id="main" version="1.1" xmlns="http://www.w3.org/2000/svg" xmlns:xlink="http://www.w3.org/1999/xlink" xml:space="preserve" onload="init(evt)">

<style type="text/css"><![CDATA[
.node, .edge {opacity: 0.7;}
.node.selected, .edge.selected {opacity: 1;}
.edge:hover path { stroke: red; }
.edge:hover polygon { stroke: red; fill: red; }
]]></style>

<defs>
  <circle id="rim" cx="0" cy="0" r="7"/>
  <circle id="rim2" cx="0" cy="0" r="3.5"/>
  <g id="zoomPlus">
    <use xlink:href="#rim" fill="#404040"><set attributeName="fill" to="#808080" begin="zoomplus.mouseover" end="zoomplus.mouseout"/></use>
    <path d="M-4,0h8M0,-4v8" fill="none" stroke="white" stroke-width="1.5" pointer-events="none"/>
  </g>
  <g id="zoomMin">
    <use xlink:href="#rim" fill="#404040"><set attributeName="fill" to="#808080" begin="zoomminus.mouseover" end="zoomminus.mouseout"/></use>
    <path d="M-4,0h8" fill="none" stroke="white" stroke-width="1.5" pointer-events="none"/>
  </g>
  <g id="arrowUp" transform="translate(30 24)">
    <use xlink:href="#rim"/>
    <path pointer-events="none" fill="none" stroke="white" stroke-width="1.5" d="M0,-3.0v7 M-2.5,-0.5L0,-3.0L2.5,-0.5"/>
  </g>
  <g id="arrowRight" transform="rotate(90) translate(36 -43)">
    <use xlink:href="#rim"/>
    <path pointer-events="none" fill="none" stroke="white" stroke-width="1.5" d="M0,-3.0v7 M-2.5,-0.5L0,-3.0L2.5,-0.5"/>
  </g>
  <g id="arrowDown" transform="rotate(180) translate(-30 -48)">
    <use xlink:href="#rim"/>
    <path pointer-events="none" fill="none" stroke="white" stroke-width="1.5" d="M0,-3.0v7 M-2.5,-0.5L0,-3.0L2.5,-0.5"/>
  </g>
  <g id="arrowLeft" transform="rotate(270) translate(-36 17)">
    <use xlink:href="#rim"/>
    <path pointer-events="none" fill="none" stroke="white" stroke-width="1.5" d="M0,-3.0v7 M-2.5,-0.5L0,-3.0L2.5,-0.5"/>
  </g>
  <g id="resetDef">
    <use xlink:href="#rim2" fill="#404040"><set attributeName="fill" to="#808080" begin="reset.mouseover" end="reset.mouseout"/></use>
  </g>
</defs>
<script type="application/ecmascript">
var viewWidth = 833;
var viewHeight = 205;
var sectionId = 'dynsection-2';
</script>
<script type="application/ecmascript" xlink:href="../../svg.min.js"/>
<svg id="graph" class="graph">
<g id="viewport">
<title>Arcane::CartesianMeshImpl::_addPatch</title>
<!-- Node1 -->
<g id="Node000001" class="node">
<title>Node1</title>
<g id="a_Node000001"><a xlink:title="Créé un patch avec tous les enfants du groupe parent_cells.">
<polygon fill="#999999" stroke="#666666" points="151,-98.5 0,-98.5 0,-68.5 151,-68.5 151,-98.5"/>
<text text-anchor="start" x="8" y="-86.5" font-family="Helvetica,sans-Serif" font-size="10.00">Arcane::CartesianMeshImpl</text>
<text text-anchor="middle" x="75.5" y="-75.5" font-family="Helvetica,sans-Serif" font-size="10.00">::_addPatch</text>
</a>
</g>
</g>
<!-- Node2 -->
<g id="Node000002" class="node">
<title>Node2</title>
<g id="a_Node000002"><a xlink:href="../../d1/dfb/classArcane_1_1Array.html#afb30a771d3fd8022c7220afe7b78e60b" target="_top" xlink:title="Ajoute l&#39;élément val à la fin du tableau.">
<polygon fill="white" stroke="#666666" points="310.5,-197 204.5,-197 204.5,-178 310.5,-178 310.5,-197"/>
<text text-anchor="middle" x="257.5" y="-185" font-family="Helvetica,sans-Serif" font-size="10.00">Arcane::Array::add</text>
</a>
</g>
</g>
<!-- Node1&#45;&gt;Node2 -->
<g id="edge1_Node000001_Node000002" class="edge">
<title>Node1&#45;&gt;Node2</title>
<g id="a_edge1_Node000001_Node000002"><a xlink:title=" ">
<path fill="none" stroke="#63b8ff" d="M91.99,-98.63C112.22,-117.6 149.5,-149.86 187,-168.5 191.64,-170.81 196.6,-172.87 201.65,-174.69"/>
<polygon fill="#63b8ff" stroke="#63b8ff" points="200.84,-178.11 211.43,-177.93 203.04,-171.47 200.84,-178.11"/>
</a>
</g>
</g>
<!-- Node3 -->
<g id="Node000003" class="node">
<title>Node3</title>
<g id="a_Node000003"><a xlink:href="../../dd/d0a/classArcane_1_1IItemFamily.html#a5f15d92ac335c03cf5b095ab21edb3b4" target="_top" xlink:title="Créé un groupe d&#39;entités de nom name contenant les entités local_ids.">
<polygon fill="white" stroke="#666666" points="314.5,-141.5 200.5,-141.5 200.5,-111.5 314.5,-111.5 314.5,-141.5"/>
<text text-anchor="start" x="208.5" y="-129.5" font-family="Helvetica,sans-Serif" font-size="10.00">Arcane::IItemFamily</text>
<text text-anchor="middle" x="257.5" y="-118.5" font-family="Helvetica,sans-Serif" font-size="10.00">::createGroup</text>
</a>
</g>
</g>
<!-- Node1&#45;&gt;Node3 -->
<g id="edge2_Node000001_Node000003" class="edge">
<title>Node1&#45;&gt;Node3</title>
<g id="a_edge2_Node000001_Node000003"><a xlink:title=" ">
<path fill="none" stroke="#63b8ff" d="M139.46,-98.54C155.91,-102.47 173.7,-106.72 190.31,-110.69"/>
<polygon fill="#63b8ff" stroke="#63b8ff" points="189.95,-114.2 200.49,-113.12 191.57,-107.39 189.95,-114.2"/>
</a>
</g>
</g>
<!-- Node5 -->
<g id="Node000005" class="node">
<title>Node5</title>
<g id="a_Node000005"><a xlink:href="../../d9/db2/classArcane_1_1Cell.html#a89b2ff990afedbdca14c86b521e42290" target="_top" xlink:title="i&#45;ème enfant AMR">
<polygon fill="white" stroke="#666666" points="313.5,-93 201.5,-93 201.5,-74 313.5,-74 313.5,-93"/>
<text text-anchor="middle" x="257.5" y="-81" font-family="Helvetica,sans-Serif" font-size="10.00">Arcane::Cell::hChild</text>
</a>
</g>
</g>
<!-- Node1&#45;&gt;Node5 -->
<g id="edge5_Node000001_Node000005" class="edge">
<title>Node1&#45;&gt;Node5</title>
<g id="a_edge5_Node000001_Node000005"><a xlink:title=" ">
<path fill="none" stroke="#63b8ff" d="M151.01,-83.5C164.29,-83.5 178.03,-83.5 191.04,-83.5"/>
<polygon fill="#63b8ff" stroke="#63b8ff" points="191.28,-87 201.28,-83.5 191.28,-80 191.28,-87"/>
</a>
</g>
</g>
<!-- Node9 -->
<g id="Node000009" class="node">
<title>Node9</title>
<g id="a_Node000009"><a xlink:href="../../df/d5f/classArcane_1_1Item.html#a337f519e8727634e55ea621f4734ec04" target="_top" xlink:title="Identifiant local de l&#39;entité dans le sous&#45;domaine du processeur.">
<polygon fill="white" stroke="#666666" points="316,-56 199,-56 199,-37 316,-37 316,-56"/>
<text text-anchor="middle" x="257.5" y="-44" font-family="Helvetica,sans-Serif" font-size="10.00">Arcane::Item::localId</text>
</a>
</g>
</g>
<!-- Node1&#45;&gt;Node9 -->
<g id="edge10_Node000001_Node000009" class="edge">
<title>Node1&#45;&gt;Node9</title>
<g id="a_edge10_Node000001_Node000009"><a xlink:title=" ">
<path fill="none" stroke="#63b8ff" d="M149.71,-68.45C166.48,-65 184.05,-61.39 199.99,-58.12"/>
<polygon fill="#63b8ff" stroke="#63b8ff" points="201.11,-61.46 210.2,-56.02 199.7,-54.6 201.11,-61.46"/>
</a>
</g>
</g>
<!-- Node10 -->
<g id="Node000010" class="node">
<title>Node10</title>
<g id="a_Node000010"><a xlink:href="../../d9/db2/classArcane_1_1Cell.html#a18d5fa661ac488b69b3e2d9ffd459b32" target="_top" xlink:title="Nombre d&#39;enfants pour l&#39;AMR.">
<polygon fill="white" stroke="#666666" points="328,-19 187,-19 187,0 328,0 328,-19"/>
<text text-anchor="middle" x="257.5" y="-7" font-family="Helvetica,sans-Serif" font-size="10.00">Arcane::Cell::nbHChildren</text>
</a>
</g>
</g>
<!-- Node1&#45;&gt;Node10 -->
<g id="edge11_Node000001_Node000010" class="edge">
<title>Node1&#45;&gt;Node10</title>
<g id="a_edge11_Node000001_Node000010"><a xlink:title=" ">
<path fill="none" stroke="#63b8ff" d="M102.56,-68.26C124.51,-55.94 157.02,-38.83 187,-27.5 192.45,-25.44 198.23,-23.53 204.04,-21.79"/>
<polygon fill="#63b8ff" stroke="#63b8ff" points="205.12,-25.12 213.78,-19.01 203.2,-18.39 205.12,-25.12"/>
</a>
</g>
</g>
<!-- Node3&#45;&gt;Node3 -->
<g id="edge3_Node000003_Node000003" class="edge">
<title>Node3&#45;&gt;Node3</title>
<g id="a_edge3_Node000003_Node000003"><a xlink:title=" ">
<path fill="none" stroke="#63b8ff" d="M225.86,-141.78C218.83,-150.91 229.38,-159.5 257.5,-159.5 274.2,-159.5 284.7,-156.47 289.01,-152.1"/>
<polygon fill="#63b8ff" stroke="#63b8ff" points="292.51,-151.82 289.14,-141.78 285.51,-151.73 292.51,-151.82"/>
</a>
</g>
</g>
<!-- Node4 -->
<g id="Node000004" class="node">
<title>Node4</title>
<g id="a_Node000004"><a xlink:href="../../dd/d0a/classArcane_1_1IItemFamily.html#a82f9e29c31456f198918986ac9a8b237" target="_top" xlink:title="Nom de la famille.">
<polygon fill="white" stroke="#666666" points="496,-141.5 382,-141.5 382,-111.5 496,-111.5 496,-141.5"/>
<text text-anchor="start" x="390" y="-129.5" font-family="Helvetica,sans-Serif" font-size="10.00">Arcane::IItemFamily</text>
<text text-anchor="middle" x="439" y="-118.5" font-family="Helvetica,sans-Serif" font-size="10.00">::name</text>
</a>
</g>
</g>
<!-- Node3&#45;&gt;Node4 -->
<g id="edge4_Node000003_Node000004" class="edge">
<title>Node3&#45;&gt;Node4</title>
<g id="a_edge4_Node000003_Node000004"><a xlink:title=" ">
<path fill="none" stroke="#63b8ff" d="M314.8,-126.5C332.85,-126.5 353,-126.5 371.69,-126.5"/>
<polygon fill="#63b8ff" stroke="#63b8ff" points="371.9,-130 381.9,-126.5 371.9,-123 371.9,-130"/>
</a>
</g>
</g>
<!-- Node6 -->
<g id="Node000006" class="node">
<title>Node6</title>
<g id="a_Node000006"><a xlink:href="../../d9/db2/classArcane_1_1Cell.html#a2a589eabeb13ff727a0b34e3644fc5ca" target="_top" xlink:title="Constructeur réservé pour les énumérateurs.">
<polygon fill="white" stroke="#666666" points="489,-93 389,-93 389,-74 489,-74 489,-93"/>
<text text-anchor="middle" x="439" y="-81" font-family="Helvetica,sans-Serif" font-size="10.00">Arcane::Cell::Cell</text>
</a>
</g>
</g>
<!-- Node5&#45;&gt;Node6 -->
<g id="edge6_Node000005_Node000006" class="edge">
<title>Node5&#45;&gt;Node6</title>
<g id="a_edge6_Node000005_Node000006"><a xlink:title=" ">
<path fill="none" stroke="#63b8ff" d="M313.82,-83.5C334.45,-83.5 357.93,-83.5 378.89,-83.5"/>
<polygon fill="#63b8ff" stroke="#63b8ff" points="378.95,-87 388.95,-83.5 378.95,-80 378.95,-87"/>
</a>
</g>
</g>
<!-- Node7 -->
<g id="Node000007" class="node">
<title>Node7</title>
<g id="a_Node000007"><a xlink:href="../../d4/d55/classArcane_1_1ItemWithNodes.html#a5c84c08450a30f7ff084a1a9467d3ee7" target="_top" xlink:title="Constructeur réservé pour les énumérateurs.">
<polygon fill="white" stroke="#666666" points="682,-98.5 550,-98.5 550,-68.5 682,-68.5 682,-98.5"/>
<text text-anchor="start" x="558" y="-86.5" font-family="Helvetica,sans-Serif" font-size="10.00">Arcane::ItemWithNodes</text>
<text text-anchor="middle" x="616" y="-75.5" font-family="Helvetica,sans-Serif" font-size="10.00">::ItemWithNodes</text>
</a>
</g>
</g>
<!-- Node6&#45;&gt;Node7 -->
<g id="edge7_Node000006_Node000007" class="edge">
<title>Node6&#45;&gt;Node7</title>
<g id="a_edge7_Node000006_Node000007"><a xlink:title=" ">
<path fill="none" stroke="#63b8ff" d="M489.21,-83.5C504.78,-83.5 522.37,-83.5 539.35,-83.5"/>
<polygon fill="#63b8ff" stroke="#63b8ff" points="539.82,-87 549.82,-83.5 539.82,-80 539.82,-87"/>
</a>
</g>
</g>
<!-- Node8 -->
<g id="Node000008" class="node">
<title>Node8</title>
<g id="a_Node000008"><a xlink:href="../../df/d5f/classArcane_1_1Item.html#a8ef29cd4847fd57d6fd41072f8739e12" target="_top" xlink:title="Constructeur réservé pour les énumérateurs.">
<polygon fill="white" stroke="#666666" points="825,-93 718,-93 718,-74 825,-74 825,-93"/>
<text text-anchor="middle" x="771.5" y="-81" font-family="Helvetica,sans-Serif" font-size="10.00">Arcane::Item::Item</text>
</a>
</g>
</g>
<!-- Node7&#45;&gt;Node8 -->
<g id="edge8_Node000007_Node000008" class="edge">
<title>Node7&#45;&gt;Node8</title>
<g id="a_edge8_Node000007_Node000008"><a xlink:title=" ">
<path fill="none" stroke="#63b8ff" d="M682.1,-83.5C690.58,-83.5 699.26,-83.5 707.7,-83.5"/>
<polygon fill="#63b8ff" stroke="#63b8ff" points="707.85,-87 717.85,-83.5 707.85,-80 707.85,-87"/>
</a>
</g>
</g>
<!-- Node8&#45;&gt;Node8 -->
<g id="edge9_Node000008_Node000008" class="edge">
<title>Node8&#45;&gt;Node8</title>
<g id="a_edge9_Node000008_Node000008"><a xlink:title=" ">
<path fill="none" stroke="#63b8ff" d="M747.76,-93.08C736.22,-101.73 744.13,-111 771.5,-111 789.46,-111 799.04,-107.01 800.25,-101.82"/>
<polygon fill="#63b8ff" stroke="#63b8ff" points="803.25,-100.02 795.24,-93.08 797.17,-103.5 803.25,-100.02"/>
</a>
</g>
</g>
<!-- Node11 -->
<g id="Node000011" class="node">
<title>Node11</title>
<g id="a_Node000011"><a xlink:href="../../df/d5f/classArcane_1_1Item.html#af0dc3d1185cbc48a823363e5ae81f822" target="_top" xlink:title="Nombre d&#39; enfants pour l&#39;AMR.">
<polygon fill="white" stroke="#666666" points="514,-19 364,-19 364,0 514,0 514,-19"/>
<text text-anchor="middle" x="439" y="-7" font-family="Helvetica,sans-Serif" font-size="10.00">Arcane::Item::_nbHChildren</text>
</a>
</g>
</g>
<!-- Node10&#45;&gt;Node11 -->
<g id="edge12_Node000010_Node000011" class="edge">
<title>Node10&#45;&gt;Node11</title>
<g id="a_edge12_Node000010_Node000011"><a xlink:title=" ">
<path fill="none" stroke="#63b8ff" d="M328.16,-9.5C336.59,-9.5 345.26,-9.5 353.87,-9.5"/>
<polygon fill="#63b8ff" stroke="#63b8ff" points="353.93,-13 363.93,-9.5 353.93,-6 353.93,-13"/>
</a>
</g>
</g>
</g>
</svg>

<g id="navigator" transform="translate(0 0)" fill="#404254">
  <rect fill="#f2f5e9" fill-opacity="0.5" stroke="#606060" stroke-width=".5" x="0" y="0" width="60" height="60"/>
  <use id="zoomplus" xlink:href="#zoomPlus" x="17" y="9" onmousedown="handleZoom(evt,'in')"/>
  <use id="zoomminus" xlink:href="#zoomMin" x="42" y="9" onmousedown="handleZoom(evt,'out')"/>
  <use id="reset" xlink:href="#resetDef" x="30" y="36" onmousedown="handleReset()"/>
   <use id="arrowup" xlink:href="#arrowUp" x="0" y="0" onmousedown="handlePan(0,-1)"/>
  <use id="arrowright" xlink:href="#arrowRight" x="0" y="0" onmousedown="handlePan(1,0)"/>
  <use id="arrowdown" xlink:href="#arrowDown" x="0" y="0" onmousedown="handlePan(0,1)"/>
  <use id="arrowleft" xlink:href="#arrowLeft" x="0" y="0" onmousedown="handlePan(-1,0)"/>
</g>
<svg viewBox="0 0 15 15" width="100%" height="30px" preserveAspectRatio="xMaxYMin meet">
 <g id="arrow_out" transform="scale(0.3 0.3)">
  <a xlink:href="classArcane_1_1CartesianMeshImpl_a5aebafe95d576cfa82500c9d40f3504b_cgraph_org.svg" target="_base">
   <rect id="button" ry="5" rx="5" y="6" x="6" height="38" width="38"
        fill="#f2f5e9" fill-opacity="0.5" stroke="#606060" stroke-width="1.0"/>
   <path id="arrow"
     d="M 11.500037,31.436501 C 11.940474,20.09759 22.043105,11.32322 32.158766,21.979434 L 37.068811,17.246167 C 37.068811,17.246167 37.088388,32 37.088388,32 L 22.160133,31.978069 C 22.160133,31.978069 26.997745,27.140456 26.997745,27.140456 C 18.528582,18.264221 13.291696,25.230495 11.500037,31.436501 z"
     style="fill:#404040;"/>
  </a>
 </g>
</svg>

<style type='text/css'>
<![CDATA[
[data-mouse-over-selected='false'] { opacity: 0.7; }
[data-mouse-over-selected='true']  { opacity: 1.0; }
]]>
</style>
<script type="application/ecmascript"><![CDATA[
document.addEventListener('DOMContentLoaded', (event) => {
  highlightEdges();
  highlightAdjacentNodes();
});
]]></script>
</svg>
