<?xml version="1.0" encoding="UTF-8" standalone="no"?>
<!DOCTYPE svg PUBLIC "-//W3C//DTD SVG 1.1//EN"
 "http://www.w3.org/Graphics/SVG/1.1/DTD/svg11.dtd">
<!-- Generated by graphviz version 2.43.0 (0)
 -->
<!-- Title: Arcane::CartesianMeshImpl::checkValid Pages: 1 -->
<svg width="353pt" height="182pt"
 viewBox="0.00 0.00 353.00 182.00" xmlns="http://www.w3.org/2000/svg" xmlns:xlink="http://www.w3.org/1999/xlink">
<g id="graph0" class="graph" transform="scale(1 1) rotate(0) translate(4 178)">
<title>Arcane::CartesianMeshImpl::checkValid</title>
<!-- Node1 -->
<g id="Node000001" class="node">
<title>Node1</title>
<g id="a_Node000001"><a xlink:title="Effectue des vérifications sur la validité de l&#39;instance.">
<polygon fill="#999999" stroke="#666666" points="151,-102 0,-102 0,-72 151,-72 151,-102"/>
<text text-anchor="start" x="8" y="-90" font-family="Helvetica,sans-Serif" font-size="10.00">Arcane::CartesianMeshImpl</text>
<text text-anchor="middle" x="75.5" y="-79" font-family="Helvetica,sans-Serif" font-size="10.00">::checkValid</text>
</a>
</g>
</g>
<!-- Node2 -->
<g id="Node000002" class="node">
<title>Node2</title>
<g id="a_Node000002"><a xlink:href="../../d9/d49/classArcane_1_1ICartesianMeshPatch.html#ad32cd9dd4ec9f64f4e5535ab97fbfd02" target="_top" xlink:title="Effectue des vérifications sur la validité de l&#39;instance.">
<polygon fill="white" stroke="#666666" points="345,-174 187,-174 187,-144 345,-144 345,-174"/>
<text text-anchor="start" x="195" y="-162" font-family="Helvetica,sans-Serif" font-size="10.00">Arcane::ICartesianMeshPatch</text>
<text text-anchor="middle" x="266" y="-151" font-family="Helvetica,sans-Serif" font-size="10.00">::checkValid</text>
</a>
</g>
</g>
<!-- Node1&#45;&gt;Node2 -->
<g id="edge1_Node000001_Node000002" class="edge">
<title>Node1&#45;&gt;Node2</title>
<g id="a_edge1_Node000001_Node000002"><a xlink:title=" ">
<path fill="none" stroke="#63b8ff" d="M108.51,-102.03C130.37,-112.01 160.12,-125.06 187,-135 192.23,-136.93 197.7,-138.84 203.21,-140.68"/>
<polygon fill="#63b8ff" stroke="#63b8ff" points="202.53,-144.14 213.12,-143.92 204.7,-137.49 202.53,-144.14"/>
</a>
</g>
</g>
<!-- Node3 -->
<g id="Node000003" class="node">
<title>Node3</title>
<g id="a_Node000003"><a xlink:href="../../d1/d17/classArcane_1_1TraceAccessor.html#a7f15f017b10b72c85bba3fce76314619" target="_top" xlink:title="Flot pour un message d&#39;information.">
<polygon fill="white" stroke="#666666" points="328.5,-126 203.5,-126 203.5,-96 328.5,-96 328.5,-126"/>
<text text-anchor="start" x="211.5" y="-114" font-family="Helvetica,sans-Serif" font-size="10.00">Arcane::TraceAccessor</text>
<text text-anchor="middle" x="266" y="-103" font-family="Helvetica,sans-Serif" font-size="10.00">::info</text>
</a>
</g>
</g>
<!-- Node1&#45;&gt;Node3 -->
<g id="edge2_Node000001_Node000003" class="edge">
<title>Node1&#45;&gt;Node3</title>
<g id="a_edge2_Node000001_Node000003"><a xlink:title=" ">
<path fill="none" stroke="#63b8ff" d="M151,-96.49C164.99,-98.27 179.6,-100.13 193.5,-101.9"/>
<polygon fill="#63b8ff" stroke="#63b8ff" points="193.12,-105.38 203.48,-103.17 194,-98.43 193.12,-105.38"/>
</a>
</g>
</g>
<!-- Node4 -->
<g id="Node000004" class="node">
<title>Node4</title>
<g id="a_Node000004"><a xlink:href="../../db/d6f/classArcane_1_1CartesianMeshImpl.html#a20c59c605005078c0a5f824e0573219e" target="_top" xlink:title="Nombre de patchs du maillage.">
<polygon fill="white" stroke="#666666" points="341.5,-78 190.5,-78 190.5,-48 341.5,-48 341.5,-78"/>
<text text-anchor="start" x="198.5" y="-66" font-family="Helvetica,sans-Serif" font-size="10.00">Arcane::CartesianMeshImpl</text>
<text text-anchor="middle" x="266" y="-55" font-family="Helvetica,sans-Serif" font-size="10.00">::nbPatch</text>
</a>
</g>
</g>
<!-- Node1&#45;&gt;Node4 -->
<g id="edge3_Node000001_Node000004" class="edge">
<title>Node1&#45;&gt;Node4</title>
<g id="a_edge3_Node000001_Node000004"><a xlink:title=" ">
<path fill="none" stroke="#63b8ff" d="M151,-77.51C160.62,-76.29 170.53,-75.03 180.31,-73.78"/>
<polygon fill="#63b8ff" stroke="#63b8ff" points="180.95,-77.23 190.42,-72.5 180.06,-70.29 180.95,-77.23"/>
</a>
</g>
</g>
<!-- Node5 -->
<g id="Node000005" class="node">
<title>Node5</title>
<g id="a_Node000005"><a xlink:href="../../db/d6f/classArcane_1_1CartesianMeshImpl.html#a9523b79789acfe192f2a23577bedcd97" target="_top" xlink:title="Retourne le index&#45;ième patch du maillage.">
<polygon fill="white" stroke="#666666" points="341.5,-30 190.5,-30 190.5,0 341.5,0 341.5,-30"/>
<text text-anchor="start" x="198.5" y="-18" font-family="Helvetica,sans-Serif" font-size="10.00">Arcane::CartesianMeshImpl</text>
<text text-anchor="middle" x="266" y="-7" font-family="Helvetica,sans-Serif" font-size="10.00">::patch</text>
</a>
</g>
</g>
<!-- Node1&#45;&gt;Node5 -->
<g id="edge4_Node000001_Node000005" class="edge">
<title>Node1&#45;&gt;Node5</title>
<g id="a_edge4_Node000001_Node000005"><a xlink:title=" ">
<path fill="none" stroke="#63b8ff" d="M108.51,-71.97C130.37,-61.99 160.12,-48.94 187,-39 192.23,-37.07 197.7,-35.16 203.21,-33.32"/>
<polygon fill="#63b8ff" stroke="#63b8ff" points="204.7,-36.51 213.12,-30.08 202.53,-29.86 204.7,-36.51"/>
</a>
</g>
</g>
</g>
</svg>
