<?xml version="1.0" encoding="UTF-8" standalone="no"?>
<!DOCTYPE svg PUBLIC "-//W3C//DTD SVG 1.1//EN"
 "http://www.w3.org/Graphics/SVG/1.1/DTD/svg11.dtd">
<!-- Generated by graphviz version 2.43.0 (0)
 -->
<!-- Title: Array3View.h Pages: 1 -->
<svg width="496pt" height="137pt"
 viewBox="0.00 0.00 496.00 137.00" xmlns="http://www.w3.org/2000/svg" xmlns:xlink="http://www.w3.org/1999/xlink">
<g id="graph0" class="graph" transform="scale(1 1) rotate(0) translate(4 133)">
<title>Array3View.h</title>
<!-- Node1 -->
<g id="Node000001" class="node">
<title>Node1</title>
<g id="a_Node000001"><a xlink:title="Types et fonctions associés aux classes Array3View et ConstArray3View.">
<polygon fill="#999999" stroke="#666666" points="313,-129 232,-129 232,-110 313,-110 313,-129"/>
<text text-anchor="middle" x="272.5" y="-117" font-family="Helvetica,sans-Serif" font-size="10.00">Array3View.h</text>
</a>
</g>
</g>
<!-- Node2 -->
<g id="Node000002" class="node">
<title>Node2</title>
<g id="a_Node000002"><a xlink:href="../../d4/d30/arcane_2src_2arcane_2utils_2Array3View_8h_source.html" target="_top" xlink:title=" ">
<polygon fill="white" stroke="#666666" points="172,-74 91,-74 91,-55 172,-55 172,-74"/>
<text text-anchor="middle" x="131.5" y="-62" font-family="Helvetica,sans-Serif" font-size="10.00">Array3View.h</text>
</a>
</g>
</g>
<!-- Node1&#45;&gt;Node2 -->
<g id="edge1_Node000001_Node000002" class="edge">
<title>Node1&#45;&gt;Node2</title>
<g id="a_edge1_Node000001_Node000002"><a xlink:title=" ">
<path fill="none" stroke="#63b8ff" d="M240.36,-106.42C214.21,-96.59 177.91,-82.95 154.57,-74.17"/>
<polygon fill="#63b8ff" stroke="#63b8ff" points="239.25,-109.74 249.85,-109.98 241.72,-103.19 239.25,-109.74"/>
</a>
</g>
</g>
<!-- Node4 -->
<g id="Node000004" class="node">
<title>Node4</title>
<g id="a_Node000004"><a xlink:href="../../db/d66/arccore_2src_2base_2arccore_2base_2Array4View_8h.html" target="_top" xlink:title="Types et fonctions associés aux classes Array4View et ConstArray4View.">
<polygon fill="white" stroke="#666666" points="363,-74 282,-74 282,-55 363,-55 363,-74"/>
<text text-anchor="middle" x="322.5" y="-62" font-family="Helvetica,sans-Serif" font-size="10.00">Array4View.h</text>
</a>
</g>
</g>
<!-- Node1&#45;&gt;Node4 -->
<g id="edge3_Node000001_Node000004" class="edge">
<title>Node1&#45;&gt;Node4</title>
<g id="a_edge3_Node000001_Node000004"><a xlink:title=" ">
<path fill="none" stroke="#63b8ff" d="M287.84,-102.24C296.6,-92.95 307.24,-81.68 314.4,-74.09"/>
<polygon fill="#63b8ff" stroke="#63b8ff" points="285.07,-100.07 280.76,-109.75 290.16,-104.88 285.07,-100.07"/>
</a>
</g>
</g>
<!-- Node6 -->
<g id="Node000006" class="node">
<title>Node6</title>
<g id="a_Node000006"><a xlink:href="../../d3/d21/ArrayView_8cc_source.html" target="_top" xlink:title=" ">
<polygon fill="white" stroke="#666666" points="271.5,-19 191.5,-19 191.5,0 271.5,0 271.5,-19"/>
<text text-anchor="middle" x="231.5" y="-7" font-family="Helvetica,sans-Serif" font-size="10.00">ArrayView.cc</text>
</a>
</g>
</g>
<!-- Node1&#45;&gt;Node6 -->
<g id="edge7_Node000001_Node000006" class="edge">
<title>Node1&#45;&gt;Node6</title>
<g id="a_edge7_Node000001_Node000006"><a xlink:title=" ">
<path fill="none" stroke="#63b8ff" d="M265.52,-100.12C256.58,-76.56 241.43,-36.66 234.79,-19.16"/>
<polygon fill="#63b8ff" stroke="#63b8ff" points="262.32,-101.56 269.14,-109.66 268.87,-99.07 262.32,-101.56"/>
</a>
</g>
</g>
<!-- Node7 -->
<g id="Node000007" class="node">
<title>Node7</title>
<g id="a_Node000007"><a xlink:href="../../d4/dab/TestArrayView_8cc_source.html" target="_top" xlink:title=" ">
<polygon fill="white" stroke="#666666" points="488,-19 389,-19 389,0 488,0 488,-19"/>
<text text-anchor="middle" x="438.5" y="-7" font-family="Helvetica,sans-Serif" font-size="10.00">TestArrayView.cc</text>
</a>
</g>
</g>
<!-- Node1&#45;&gt;Node7 -->
<g id="edge8_Node000001_Node000007" class="edge">
<title>Node1&#45;&gt;Node7</title>
<g id="a_edge8_Node000001_Node000007"><a xlink:title=" ">
<path fill="none" stroke="#63b8ff" d="M307.62,-106.34C327.53,-98.61 352.41,-87.52 372.5,-74 396.51,-57.84 419.74,-32.56 431.16,-19.3"/>
<polygon fill="#63b8ff" stroke="#63b8ff" points="306.12,-103.16 298,-109.96 308.59,-109.71 306.12,-103.16"/>
</a>
</g>
</g>
<!-- Node3 -->
<g id="Node000003" class="node">
<title>Node3</title>
<g id="a_Node000003"><a xlink:href="../../d9/df3/CartesianMeshAMRPatchMng_8cc_source.html" target="_top" xlink:title=" ">
<polygon fill="white" stroke="#666666" points="173,-19 0,-19 0,0 173,0 173,-19"/>
<text text-anchor="middle" x="86.5" y="-7" font-family="Helvetica,sans-Serif" font-size="10.00">CartesianMeshAMRPatchMng.cc</text>
</a>
</g>
</g>
<!-- Node2&#45;&gt;Node3 -->
<g id="edge2_Node000002_Node000003" class="edge">
<title>Node2&#45;&gt;Node3</title>
<g id="a_edge2_Node000002_Node000003"><a xlink:title=" ">
<path fill="none" stroke="#63b8ff" d="M117.45,-46.96C109.61,-37.72 100.17,-26.6 93.79,-19.09"/>
<polygon fill="#63b8ff" stroke="#63b8ff" points="114.93,-49.39 124.07,-54.75 120.26,-44.86 114.93,-49.39"/>
</a>
</g>
</g>
<!-- Node5 -->
<g id="Node000005" class="node">
<title>Node5</title>
<g id="a_Node000005"><a xlink:href="../../d9/df7/arcane_2src_2arcane_2utils_2Array4View_8h_source.html" target="_top" xlink:title=" ">
<polygon fill="white" stroke="#666666" points="371,-19 290,-19 290,0 371,0 371,-19"/>
<text text-anchor="middle" x="330.5" y="-7" font-family="Helvetica,sans-Serif" font-size="10.00">Array4View.h</text>
</a>
</g>
</g>
<!-- Node4&#45;&gt;Node5 -->
<g id="edge4_Node000004_Node000005" class="edge">
<title>Node4&#45;&gt;Node5</title>
<g id="a_edge4_Node000004_Node000005"><a xlink:title=" ">
<path fill="none" stroke="#63b8ff" d="M325.34,-44.66C326.66,-35.93 328.16,-25.99 329.2,-19.09"/>
<polygon fill="#63b8ff" stroke="#63b8ff" points="321.85,-44.34 323.82,-54.75 328.77,-45.38 321.85,-44.34"/>
</a>
</g>
</g>
<!-- Node4&#45;&gt;Node6 -->
<g id="edge5_Node000004_Node000006" class="edge">
<title>Node4&#45;&gt;Node6</title>
<g id="a_edge5_Node000004_Node000006"><a xlink:title=" ">
<path fill="none" stroke="#63b8ff" d="M298.8,-49.7C282.22,-40.04 260.59,-27.44 246.39,-19.17"/>
<polygon fill="#63b8ff" stroke="#63b8ff" points="297.48,-52.98 307.88,-54.98 301,-46.93 297.48,-52.98"/>
</a>
</g>
</g>
<!-- Node4&#45;&gt;Node7 -->
<g id="edge6_Node000004_Node000007" class="edge">
<title>Node4&#45;&gt;Node7</title>
<g id="a_edge6_Node000004_Node000007"><a xlink:title=" ">
<path fill="none" stroke="#63b8ff" d="M350.37,-50.77C371.77,-40.99 400.74,-27.75 419.52,-19.17"/>
<polygon fill="#63b8ff" stroke="#63b8ff" points="348.78,-47.65 341.14,-54.98 351.69,-54.01 348.78,-47.65"/>
</a>
</g>
</g>
</g>
</svg>
