<?xml version="1.0" encoding="UTF-8" standalone="no"?>
<!DOCTYPE svg PUBLIC "-//W3C//DTD SVG 1.1//EN"
 "http://www.w3.org/Graphics/SVG/1.1/DTD/svg11.dtd">
<!-- Generated by graphviz version 14.1.2 (0)
 -->
<!-- Title: Arcane::mesh::ItemFamily::removeItems2 Pages: 1 -->
<svg width="518pt" height="456pt"
 viewBox="0.00 0.00 518.00 456.00" xmlns="http://www.w3.org/2000/svg" xmlns:xlink="http://www.w3.org/1999/xlink">
<g id="graph0" class="graph" transform="scale(1 1) rotate(0) translate(4 451.75)">
<title>Arcane::mesh::ItemFamily::removeItems2</title>
<!-- Node1 -->
<g id="Node000001" class="node">
<title>Node1</title>
<g id="a_Node000001"><a xlink:title="Removes entities.">
<polygon fill="#999999" stroke="#666666" points="143.5,-243.12 0,-243.12 0,-209.62 143.5,-209.62 143.5,-243.12"/>
<text xml:space="preserve" text-anchor="start" x="8" y="-229.62" font-family="Helvetica,sans-Serif" font-size="10.00">Arcane::mesh::ItemFamily</text>
<text xml:space="preserve" text-anchor="middle" x="71.75" y="-216.88" font-family="Helvetica,sans-Serif" font-size="10.00">::removeItems2</text>
</a>
</g>
</g>
<!-- Node2 -->
<g id="Node000002" class="node">
<title>Node2</title>
<g id="a_Node000002"><a xlink:href="../../d1/dfb/classArcane_1_1Array.html#aa57126075894e5b3579b22462ca49a96" target="_top" xlink:title="Adds element val to the end of the array.">
<polygon fill="white" stroke="#666666" points="313.62,-447.75 208.38,-447.75 208.38,-427 313.62,-427 313.62,-447.75"/>
<text xml:space="preserve" text-anchor="middle" x="261" y="-434.25" font-family="Helvetica,sans-Serif" font-size="10.00">Arcane::Array::add</text>
</a>
</g>
</g>
<!-- Node1&#45;&gt;Node2 -->
<g id="edge1_Node000001_Node000002" class="edge">
<title>Node1&#45;&gt;Node2</title>
<g id="a_edge1_Node000001_Node000002"><a xlink:title=" ">
<path fill="none" stroke="#63b8ff" d="M77.25,-243.46C88.09,-281.07 119.28,-371.37 179.5,-417.38 184.98,-421.56 191.23,-424.88 197.77,-427.52"/>
<polygon fill="#63b8ff" stroke="#63b8ff" points="196.18,-430.67 206.78,-430.62 198.46,-424.05 196.18,-430.67"/>
</a>
</g>
</g>
<!-- Node3 -->
<g id="Node000003" class="node">
<title>Node3</title>
<g id="a_Node000003"><a xlink:href="../../d1/dfb/classArcane_1_1Array.html#abd51a27589c079c0d7c261088dc29592" target="_top" xlink:title="Last element of the array.">
<polygon fill="white" stroke="#666666" points="316.25,-408.75 205.75,-408.75 205.75,-388 316.25,-388 316.25,-408.75"/>
<text xml:space="preserve" text-anchor="middle" x="261" y="-395.25" font-family="Helvetica,sans-Serif" font-size="10.00">Arcane::Array::back</text>
</a>
</g>
</g>
<!-- Node1&#45;&gt;Node3 -->
<g id="edge2_Node000001_Node000003" class="edge">
<title>Node1&#45;&gt;Node3</title>
<g id="a_edge2_Node000001_Node000003"><a xlink:title=" ">
<path fill="none" stroke="#63b8ff" d="M79.57,-243.23C93.38,-275.13 127.79,-344.25 179.5,-379.38 184.2,-382.57 189.38,-385.23 194.77,-387.45"/>
<polygon fill="#63b8ff" stroke="#63b8ff" points="193.31,-390.64 203.9,-390.68 195.64,-384.05 193.31,-390.64"/>
</a>
</g>
</g>
<!-- Node4 -->
<g id="Node000004" class="node">
<title>Node4</title>
<g id="a_Node000004"><a xlink:href="../../dc/d3a/classArcane_1_1ConnectivityItemVector.html#a9608c15376c44e60c334c645b602a797" target="_top" xlink:title="Returns the entities connected to item.">
<polygon fill="white" stroke="#666666" points="330.88,-370.12 191.12,-370.12 191.12,-336.62 330.88,-336.62 330.88,-370.12"/>
<text xml:space="preserve" text-anchor="start" x="199.12" y="-356.62" font-family="Helvetica,sans-Serif" font-size="10.00">Arcane::ConnectivityItem</text>
<text xml:space="preserve" text-anchor="middle" x="261" y="-343.88" font-family="Helvetica,sans-Serif" font-size="10.00">Vector::connectedItems</text>
</a>
</g>
</g>
<!-- Node1&#45;&gt;Node4 -->
<g id="edge3_Node000001_Node000004" class="edge">
<title>Node1&#45;&gt;Node4</title>
<g id="a_edge3_Node000001_Node000004"><a xlink:title=" ">
<path fill="none" stroke="#63b8ff" d="M86.51,-243.47C105.31,-265.77 141.09,-304.61 179.5,-327.38 181.93,-328.82 184.45,-330.19 187.04,-331.49"/>
<polygon fill="#63b8ff" stroke="#63b8ff" points="185.33,-334.56 195.88,-335.56 188.26,-328.2 185.33,-334.56"/>
</a>
</g>
</g>
<!-- Node5 -->
<g id="Node000005" class="node">
<title>Node5</title>
<g id="a_Node000005"><a xlink:href="../../d8/d0f/classArcane_1_1mesh_1_1ItemFamily.html#a3d6d96a263dae8c4bfcf3dfbbe6be894" target="_top" xlink:title="Notifies the end of modification of the entity list.">
<polygon fill="white" stroke="#666666" points="332.75,-318.12 189.25,-318.12 189.25,-284.62 332.75,-284.62 332.75,-318.12"/>
<text xml:space="preserve" text-anchor="start" x="197.25" y="-304.62" font-family="Helvetica,sans-Serif" font-size="10.00">Arcane::mesh::ItemFamily</text>
<text xml:space="preserve" text-anchor="middle" x="261" y="-291.88" font-family="Helvetica,sans-Serif" font-size="10.00">::endUpdate</text>
</a>
</g>
</g>
<!-- Node1&#45;&gt;Node5 -->
<g id="edge4_Node000001_Node000005" class="edge">
<title>Node1&#45;&gt;Node5</title>
<g id="a_edge4_Node000001_Node000005"><a xlink:title=" ">
<path fill="none" stroke="#63b8ff" d="M107.4,-243.54C128.07,-253.46 154.99,-265.83 179.5,-275.38 183.89,-277.08 188.44,-278.77 193.04,-280.42"/>
<polygon fill="#63b8ff" stroke="#63b8ff" points="191.81,-283.7 202.41,-283.68 194.11,-277.08 191.81,-283.7"/>
</a>
</g>
</g>
<!-- Node6 -->
<g id="Node000006" class="node">
<title>Node6</title>
<g id="a_Node000006"><a xlink:href="../../d1/d17/classArcane_1_1TraceAccessor.html#a57a4d1a39231385d154c96326b4a21c7" target="_top" xlink:title="Flow for a fatal error message.">
<polygon fill="white" stroke="#666666" points="323.38,-266.12 198.62,-266.12 198.62,-232.62 323.38,-232.62 323.38,-266.12"/>
<text xml:space="preserve" text-anchor="start" x="206.62" y="-252.62" font-family="Helvetica,sans-Serif" font-size="10.00">Arcane::TraceAccessor</text>
<text xml:space="preserve" text-anchor="middle" x="261" y="-239.88" font-family="Helvetica,sans-Serif" font-size="10.00">::fatal</text>
</a>
</g>
</g>
<!-- Node1&#45;&gt;Node6 -->
<g id="edge5_Node000001_Node000006" class="edge">
<title>Node1&#45;&gt;Node6</title>
<g id="a_edge5_Node000001_Node000006"><a xlink:title=" ">
<path fill="none" stroke="#63b8ff" d="M143.81,-235.1C157.93,-236.84 172.78,-238.66 186.97,-240.4"/>
<polygon fill="#63b8ff" stroke="#63b8ff" points="186.33,-243.85 196.68,-241.6 187.18,-236.9 186.33,-243.85"/>
</a>
</g>
</g>
<!-- Node7 -->
<g id="Node000007" class="node">
<title>Node7</title>
<g id="a_Node000007"><a xlink:href="../../d7/dac/classArcane_1_1ItemBase.html#a5d07d54523f06c3a188ccbcce8454594" target="_top" xlink:title="True if the entity is detached.">
<polygon fill="white" stroke="#666666" points="342.5,-214.75 179.5,-214.75 179.5,-194 342.5,-194 342.5,-214.75"/>
<text xml:space="preserve" text-anchor="middle" x="261" y="-201.25" font-family="Helvetica,sans-Serif" font-size="10.00">Arcane::ItemBase::isDetached</text>
</a>
</g>
</g>
<!-- Node1&#45;&gt;Node7 -->
<g id="edge6_Node000001_Node000007" class="edge">
<title>Node1&#45;&gt;Node7</title>
<g id="a_edge6_Node000001_Node000007"><a xlink:title=" ">
<path fill="none" stroke="#63b8ff" d="M143.81,-218.03C151.68,-217.1 159.79,-216.15 167.87,-215.2"/>
<polygon fill="#63b8ff" stroke="#63b8ff" points="168.25,-218.68 177.77,-214.04 167.43,-211.73 168.25,-218.68"/>
</a>
</g>
</g>
<!-- Node9 -->
<g id="Node000009" class="node">
<title>Node9</title>
<g id="a_Node000009"><a xlink:href="../../d8/d0f/classArcane_1_1mesh_1_1ItemFamily.html#a505d5a7190c1c1bab560eea6fe592b85" target="_top" xlink:title="Entity kind.">
<polygon fill="white" stroke="#666666" points="332.75,-176.12 189.25,-176.12 189.25,-142.62 332.75,-142.62 332.75,-176.12"/>
<text xml:space="preserve" text-anchor="start" x="197.25" y="-162.62" font-family="Helvetica,sans-Serif" font-size="10.00">Arcane::mesh::ItemFamily</text>
<text xml:space="preserve" text-anchor="middle" x="261" y="-149.88" font-family="Helvetica,sans-Serif" font-size="10.00">::itemKind</text>
</a>
</g>
</g>
<!-- Node1&#45;&gt;Node9 -->
<g id="edge8_Node000001_Node000009" class="edge">
<title>Node1&#45;&gt;Node9</title>
<g id="a_edge8_Node000001_Node000009"><a xlink:title=" ">
<path fill="none" stroke="#63b8ff" d="M115.92,-209.18C135.28,-201.63 158.44,-192.81 179.5,-185.38 184.43,-183.63 189.55,-181.87 194.71,-180.13"/>
<polygon fill="#63b8ff" stroke="#63b8ff" points="195.49,-183.56 203.87,-177.08 193.28,-176.92 195.49,-183.56"/>
</a>
</g>
</g>
<!-- Node10 -->
<g id="Node000010" class="node">
<title>Node10</title>
<g id="a_Node000010"><a xlink:href="../../d8/d0f/classArcane_1_1mesh_1_1ItemFamily.html#a9db4cae29261273497fa70f8f248c649" target="_top" xlink:title="Internal array of entities.">
<polygon fill="white" stroke="#666666" points="332.75,-124.12 189.25,-124.12 189.25,-90.62 332.75,-90.62 332.75,-124.12"/>
<text xml:space="preserve" text-anchor="start" x="197.25" y="-110.62" font-family="Helvetica,sans-Serif" font-size="10.00">Arcane::mesh::ItemFamily</text>
<text xml:space="preserve" text-anchor="middle" x="261" y="-97.88" font-family="Helvetica,sans-Serif" font-size="10.00">::itemsInternal</text>
</a>
</g>
</g>
<!-- Node1&#45;&gt;Node10 -->
<g id="edge9_Node000001_Node000010" class="edge">
<title>Node1&#45;&gt;Node10</title>
<g id="a_edge9_Node000001_Node000010"><a xlink:title=" ">
<path fill="none" stroke="#63b8ff" d="M88.14,-209.27C107.57,-188.61 142.91,-154.06 179.5,-133.38 182.11,-131.9 184.81,-130.5 187.58,-129.16"/>
<polygon fill="#63b8ff" stroke="#63b8ff" points="188.71,-132.49 196.43,-125.23 185.87,-126.09 188.71,-132.49"/>
</a>
</g>
</g>
<!-- Node11 -->
<g id="Node000011" class="node">
<title>Node11</title>
<g id="a_Node000011"><a xlink:href="../../d8/d0f/classArcane_1_1mesh_1_1ItemFamily.html#af1ec602c741363ce0bd673ef8b1653e2" target="_top" xlink:title="Family name.">
<polygon fill="white" stroke="#666666" points="332.75,-72.12 189.25,-72.12 189.25,-38.62 332.75,-38.62 332.75,-72.12"/>
<text xml:space="preserve" text-anchor="start" x="197.25" y="-58.62" font-family="Helvetica,sans-Serif" font-size="10.00">Arcane::mesh::ItemFamily</text>
<text xml:space="preserve" text-anchor="middle" x="261" y="-45.88" font-family="Helvetica,sans-Serif" font-size="10.00">::name</text>
</a>
</g>
</g>
<!-- Node1&#45;&gt;Node11 -->
<g id="edge10_Node000001_Node000011" class="edge">
<title>Node1&#45;&gt;Node11</title>
<g id="a_edge10_Node000001_Node000011"><a xlink:title=" ">
<path fill="none" stroke="#63b8ff" d="M80.77,-209.35C95.85,-179.15 131.31,-116.09 179.5,-81.38 181.24,-80.12 183.05,-78.92 184.91,-77.78"/>
<polygon fill="#63b8ff" stroke="#63b8ff" points="186.11,-81.11 193.22,-73.26 182.77,-74.96 186.11,-81.11"/>
</a>
</g>
</g>
<!-- Node12 -->
<g id="Node000012" class="node">
<title>Node12</title>
<g id="a_Node000012"><a xlink:href="../../d1/dfb/classArcane_1_1Array.html#afee0018fc1eef19fac8c40de6d971fb9" target="_top" xlink:title="Mutable view of this array.">
<polygon fill="white" stroke="#666666" points="316.25,-20.75 205.75,-20.75 205.75,0 316.25,0 316.25,-20.75"/>
<text xml:space="preserve" text-anchor="middle" x="261" y="-7.25" font-family="Helvetica,sans-Serif" font-size="10.00">Arcane::Array::view</text>
</a>
</g>
</g>
<!-- Node1&#45;&gt;Node12 -->
<g id="edge11_Node000001_Node000012" class="edge">
<title>Node1&#45;&gt;Node12</title>
<g id="a_edge11_Node000001_Node000012"><a xlink:title=" ">
<path fill="none" stroke="#63b8ff" d="M76.89,-209.29C87.16,-170.76 117.55,-76.76 179.5,-29.38 184.16,-25.81 189.38,-22.9 194.86,-20.53"/>
<polygon fill="#63b8ff" stroke="#63b8ff" points="196.03,-23.83 204.23,-17.11 193.64,-17.25 196.03,-23.83"/>
</a>
</g>
</g>
<!-- Node8 -->
<g id="Node000008" class="node">
<title>Node8</title>
<g id="a_Node000008"><a xlink:href="../../d7/dac/classArcane_1_1ItemBase.html#a5030296e5244ff3c2cc6fc65dba7d128" target="_top" xlink:title="Flags of the entity.">
<polygon fill="white" stroke="#666666" points="510,-214.75 378.5,-214.75 378.5,-194 510,-194 510,-214.75"/>
<text xml:space="preserve" text-anchor="middle" x="444.25" y="-201.25" font-family="Helvetica,sans-Serif" font-size="10.00">Arcane::ItemBase::flags</text>
</a>
</g>
</g>
<!-- Node7&#45;&gt;Node8 -->
<g id="edge7_Node000007_Node000008" class="edge">
<title>Node7&#45;&gt;Node8</title>
<g id="a_edge7_Node000007_Node000008"><a xlink:title=" ">
<path fill="none" stroke="#63b8ff" d="M342.82,-204.38C350.75,-204.38 358.78,-204.38 366.66,-204.38"/>
<polygon fill="#63b8ff" stroke="#63b8ff" points="366.57,-207.88 376.57,-204.38 366.57,-200.88 366.57,-207.88"/>
</a>
</g>
</g>
</g>
</svg>
