<?xml version="1.0" encoding="UTF-8" standalone="no"?>
<!DOCTYPE svg PUBLIC "-//W3C//DTD SVG 1.1//EN"
 "http://www.w3.org/Graphics/SVG/1.1/DTD/svg11.dtd">
<!-- Generated by graphviz version 14.1.2 (0)
 -->
<!-- Title: Arcane::geometric::GeomShapeView::fillSubZoneHexaedron8 Pages: 1 -->
<svg width="364pt" height="250pt"
 viewBox="0.00 0.00 364.00 250.00" xmlns="http://www.w3.org/2000/svg" xmlns:xlink="http://www.w3.org/1999/xlink">
<g id="graph0" class="graph" transform="scale(1 1) rotate(0) translate(4 245.5)">
<title>Arcane::geometric::GeomShapeView::fillSubZoneHexaedron8</title>
<!-- Node1 -->
<g id="Node000001" class="node">
<title>Node1</title>
<g id="a_Node000001"><a xlink:title="Remplit svc avec les informations du i&#45;ème sous&#45;volume de contrôle.">
<polygon fill="#999999" stroke="#666666" points="159.25,-143.88 0,-143.88 0,-97.62 159.25,-97.62 159.25,-143.88"/>
<text xml:space="preserve" text-anchor="start" x="8" y="-130.38" font-family="Helvetica,sans-Serif" font-size="10.00">Arcane::geometric::</text>
<text xml:space="preserve" text-anchor="start" x="8" y="-117.62" font-family="Helvetica,sans-Serif" font-size="10.00">GeomShapeView::fillSubZone</text>
<text xml:space="preserve" text-anchor="middle" x="79.62" y="-104.88" font-family="Helvetica,sans-Serif" font-size="10.00">Hexaedron8</text>
</a>
</g>
</g>
<!-- Node2 -->
<g id="Node000002" class="node">
<title>Node2</title>
<g id="a_Node000002"><a xlink:href="../../d1/d5f/classArcane_1_1geometric_1_1GeomShapeView.html#aac9986121159a3d3a779be7c42767a7c" target="_top" xlink:title="Position du centre de la forme.">
<polygon fill="white" stroke="#666666" points="343.25,-241.5 208,-241.5 208,-208 343.25,-208 343.25,-241.5"/>
<text xml:space="preserve" text-anchor="start" x="216" y="-228" font-family="Helvetica,sans-Serif" font-size="10.00">Arcane::geometric::</text>
<text xml:space="preserve" text-anchor="middle" x="275.62" y="-215.25" font-family="Helvetica,sans-Serif" font-size="10.00">GeomShapeView::center</text>
</a>
</g>
</g>
<!-- Node1&#45;&gt;Node2 -->
<g id="edge1_Node000001_Node000002" class="edge">
<title>Node1&#45;&gt;Node2</title>
<g id="a_edge1_Node000001_Node000002"><a xlink:title=" ">
<path fill="none" stroke="#63b8ff" d="M109.85,-144.05C132.22,-161 164.36,-183.56 195.25,-198.75 198.5,-200.35 201.88,-201.88 205.32,-203.35"/>
<polygon fill="#63b8ff" stroke="#63b8ff" points="203.8,-206.51 214.39,-206.99 206.41,-200.02 203.8,-206.51"/>
</a>
</g>
</g>
<!-- Node3 -->
<g id="Node000003" class="node">
<title>Node3</title>
<g id="a_Node000003"><a xlink:href="../../d1/d5f/classArcane_1_1geometric_1_1GeomShapeView.html#a794cb15e383696a9db3dcb99f839c052" target="_top" xlink:title="Position du centre de la i&#45;ème arête de la forme.">
<polygon fill="white" stroke="#666666" points="339.88,-189.5 211.38,-189.5 211.38,-156 339.88,-156 339.88,-189.5"/>
<text xml:space="preserve" text-anchor="start" x="219.38" y="-176" font-family="Helvetica,sans-Serif" font-size="10.00">Arcane::geometric::</text>
<text xml:space="preserve" text-anchor="middle" x="275.62" y="-163.25" font-family="Helvetica,sans-Serif" font-size="10.00">GeomShapeView::edge</text>
</a>
</g>
</g>
<!-- Node1&#45;&gt;Node3 -->
<g id="edge2_Node000001_Node000003" class="edge">
<title>Node1&#45;&gt;Node3</title>
<g id="a_edge2_Node000001_Node000003"><a xlink:title=" ">
<path fill="none" stroke="#63b8ff" d="M159.53,-141.9C172.89,-145.48 186.72,-149.19 199.97,-152.74"/>
<polygon fill="#63b8ff" stroke="#63b8ff" points="198.91,-156.08 209.47,-155.29 200.72,-149.32 198.91,-156.08"/>
</a>
</g>
</g>
<!-- Node4 -->
<g id="Node000004" class="node">
<title>Node4</title>
<g id="a_Node000004"><a xlink:href="../../d1/d5f/classArcane_1_1geometric_1_1GeomShapeView.html#aa95a208e89221588e794cdae8bf44def" target="_top" xlink:title="Face associée (null si aucune).">
<polygon fill="white" stroke="#666666" points="338.38,-137.5 212.88,-137.5 212.88,-104 338.38,-104 338.38,-137.5"/>
<text xml:space="preserve" text-anchor="start" x="220.88" y="-124" font-family="Helvetica,sans-Serif" font-size="10.00">Arcane::geometric::</text>
<text xml:space="preserve" text-anchor="middle" x="275.62" y="-111.25" font-family="Helvetica,sans-Serif" font-size="10.00">GeomShapeView::face</text>
</a>
</g>
</g>
<!-- Node1&#45;&gt;Node4 -->
<g id="edge3_Node000001_Node000004" class="edge">
<title>Node1&#45;&gt;Node4</title>
<g id="a_edge3_Node000001_Node000004"><a xlink:title=" ">
<path fill="none" stroke="#63b8ff" d="M159.53,-120.75C173.3,-120.75 187.57,-120.75 201.19,-120.75"/>
<polygon fill="#63b8ff" stroke="#63b8ff" points="200.93,-124.25 210.93,-120.75 200.93,-117.25 200.93,-124.25"/>
</a>
</g>
</g>
<!-- Node5 -->
<g id="Node000005" class="node">
<title>Node5</title>
<g id="a_Node000005"><a xlink:href="../../db/dc5/classArcane_1_1geometric_1_1Hexaedron8ElementView.html#ae309e9f6c84a91ca2d85d4e04ce8d554" target="_top" xlink:title="Initialise la vue avec les coordonnées passées en argument.">
<polygon fill="white" stroke="#666666" points="356,-85.5 195.25,-85.5 195.25,-52 356,-52 356,-85.5"/>
<text xml:space="preserve" text-anchor="start" x="203.25" y="-72" font-family="Helvetica,sans-Serif" font-size="10.00">Arcane::geometric::</text>
<text xml:space="preserve" text-anchor="middle" x="275.62" y="-59.25" font-family="Helvetica,sans-Serif" font-size="10.00">Hexaedron8ElementView::init</text>
</a>
</g>
</g>
<!-- Node1&#45;&gt;Node5 -->
<g id="edge4_Node000001_Node000005" class="edge">
<title>Node1&#45;&gt;Node5</title>
<g id="a_edge4_Node000001_Node000005"><a xlink:title=" ">
<path fill="none" stroke="#63b8ff" d="M159.53,-99.6C172.73,-96.06 186.38,-92.4 199.48,-88.89"/>
<polygon fill="#63b8ff" stroke="#63b8ff" points="200.11,-92.35 208.87,-86.38 198.3,-85.58 200.11,-92.35"/>
</a>
</g>
</g>
<!-- Node6 -->
<g id="Node000006" class="node">
<title>Node6</title>
<g id="a_Node000006"><a xlink:href="../../d1/d5f/classArcane_1_1geometric_1_1GeomShapeView.html#a04cf4ca66bfb225f93a815bfee92b54c" target="_top" xlink:title="Position du ième noeud de la forme.">
<polygon fill="white" stroke="#666666" points="339.88,-33.5 211.38,-33.5 211.38,0 339.88,0 339.88,-33.5"/>
<text xml:space="preserve" text-anchor="start" x="219.38" y="-20" font-family="Helvetica,sans-Serif" font-size="10.00">Arcane::geometric::</text>
<text xml:space="preserve" text-anchor="middle" x="275.62" y="-7.25" font-family="Helvetica,sans-Serif" font-size="10.00">GeomShapeView::node</text>
</a>
</g>
</g>
<!-- Node1&#45;&gt;Node6 -->
<g id="edge5_Node000001_Node000006" class="edge">
<title>Node1&#45;&gt;Node6</title>
<g id="a_edge5_Node000001_Node000006"><a xlink:title=" ">
<path fill="none" stroke="#63b8ff" d="M109.85,-97.45C132.22,-80.5 164.36,-57.94 195.25,-42.75 198.5,-41.15 201.88,-39.62 205.32,-38.15"/>
<polygon fill="#63b8ff" stroke="#63b8ff" points="206.41,-41.48 214.39,-34.51 203.8,-34.99 206.41,-41.48"/>
</a>
</g>
</g>
</g>
</svg>
