<?xml version="1.0" encoding="UTF-8" standalone="no"?>
<!DOCTYPE svg PUBLIC "-//W3C//DTD SVG 1.1//EN"
 "http://www.w3.org/Graphics/SVG/1.1/DTD/svg11.dtd">
<!-- Generated by graphviz version 2.43.0 (0)
 -->
<!-- Title: Arcane::ArcaneSimpleExecutorMainFactory Pages: 1 -->
<svg width="168pt" height="538pt"
 viewBox="0.00 0.00 168.00 538.00" xmlns="http://www.w3.org/2000/svg" xmlns:xlink="http://www.w3.org/1999/xlink">
<g id="graph0" class="graph" transform="scale(1 1) rotate(0) translate(4 534)">
<title>Arcane::ArcaneSimpleExecutorMainFactory</title>
<!-- Node1 -->
<g id="Node000001" class="node">
<title>Node1</title>
<g id="a_Node000001"><a xlink:title=" ">
<polygon fill="#999999" stroke="transparent" points="160,-60 0,-60 0,0 160,0 160,-60"/>
<text text-anchor="start" x="5" y="-48" font-family="Helvetica,sans-Serif" font-size="10.00">Arcane::ArcaneSimpleExecutor</text>
<text text-anchor="start" x="50" y="-37" font-family="Helvetica,sans-Serif" font-size="10.00">MainFactory</text>
<text text-anchor="start" x="78" y="-22" font-family="Helvetica,sans-Serif" font-size="10.00"> </text>
<text text-anchor="start" x="14.5" y="-7" font-family="Helvetica,sans-Serif" font-size="10.00">+</text>
<text text-anchor="start" x="38" y="-7" font-family="Helvetica,sans-Serif" font-size="10.00">createArcaneMain()</text>
<polygon fill="#666666" stroke="#666666" points="0,-32 0,-32 160,-32 160,-32 0,-32"/>
<polygon fill="#666666" stroke="#666666" points="0,-17 0,-17 160,-17 160,-17 0,-17"/>
<polygon fill="none" stroke="#666666" points="0,0 0,-60 160,-60 160,0 0,0"/>
</a>
</g>
</g>
<!-- Node2 -->
<g id="Node000002" class="node">
<title>Node2</title>
<g id="a_Node000002"><a xlink:href="../../d3/d15/classArcane_1_1MainFactory.html" target="_top" xlink:title="Manufacture des classes d&#39;Arcane.">
<polygon fill="white" stroke="transparent" points="150.5,-295 9.5,-295 9.5,-96 150.5,-96 150.5,-295"/>
<text text-anchor="start" x="30.5" y="-282.5" font-family="Helvetica,sans-Serif" font-size="10.00">Arcane::MainFactory</text>
<text text-anchor="start" x="78.5" y="-267.5" font-family="Helvetica,sans-Serif" font-size="10.00"> </text>
<text text-anchor="start" x="14" y="-252.5" font-family="Helvetica,sans-Serif" font-size="10.00">+</text>
<text text-anchor="start" x="27" y="-252.5" font-family="Helvetica,sans-Serif" font-size="10.00">MainFactory()</text>
<text text-anchor="start" x="14" y="-237.5" font-family="Helvetica,sans-Serif" font-size="10.00">+</text>
<text text-anchor="start" x="27" y="-237.5" font-family="Helvetica,sans-Serif" font-size="10.00">~MainFactory()</text>
<text text-anchor="start" x="14" y="-222.5" font-family="Helvetica,sans-Serif" font-size="10.00">+</text>
<text text-anchor="start" x="27" y="-222.5" font-family="Helvetica,sans-Serif" font-size="10.00">createArcaneMain()</text>
<text text-anchor="start" x="14" y="-207.5" font-family="Helvetica,sans-Serif" font-size="10.00">+</text>
<text text-anchor="start" x="27" y="-207.5" font-family="Helvetica,sans-Serif" font-size="10.00">createApplication()</text>
<text text-anchor="start" x="14" y="-192.5" font-family="Helvetica,sans-Serif" font-size="10.00">+</text>
<text text-anchor="start" x="27" y="-192.5" font-family="Helvetica,sans-Serif" font-size="10.00">createVariableMng()</text>
<text text-anchor="start" x="14" y="-177.5" font-family="Helvetica,sans-Serif" font-size="10.00">+</text>
<text text-anchor="start" x="27" y="-177.5" font-family="Helvetica,sans-Serif" font-size="10.00">createModuleMng()</text>
<text text-anchor="start" x="14" y="-162.5" font-family="Helvetica,sans-Serif" font-size="10.00">+</text>
<text text-anchor="start" x="27" y="-162.5" font-family="Helvetica,sans-Serif" font-size="10.00">createEntryPointMng()</text>
<text text-anchor="start" x="14" y="-147.5" font-family="Helvetica,sans-Serif" font-size="10.00">+</text>
<text text-anchor="start" x="27" y="-147.5" font-family="Helvetica,sans-Serif" font-size="10.00">createTimeHistoryMng()</text>
<text text-anchor="start" x="14" y="-132.5" font-family="Helvetica,sans-Serif" font-size="10.00">+</text>
<text text-anchor="start" x="27" y="-132.5" font-family="Helvetica,sans-Serif" font-size="10.00">createCaseMng()</text>
<text text-anchor="start" x="14" y="-117.5" font-family="Helvetica,sans-Serif" font-size="10.00">+</text>
<text text-anchor="start" x="27" y="-117.5" font-family="Helvetica,sans-Serif" font-size="10.00">createCaseDocument()</text>
<text text-anchor="start" x="27" y="-102.5" font-family="Helvetica,sans-Serif" font-size="10.00">et 27 de plus...</text>
<polygon fill="#666666" stroke="#666666" points="10,-277.5 10,-277.5 151,-277.5 151,-277.5 10,-277.5"/>
<polygon fill="#666666" stroke="#666666" points="10,-262.5 10,-262.5 151,-262.5 151,-262.5 10,-262.5"/>
<polygon fill="none" stroke="#666666" points="9.5,-96 9.5,-295 150.5,-295 150.5,-96 9.5,-96"/>
</a>
</g>
</g>
<!-- Node2&#45;&gt;Node1 -->
<g id="edge1_Node000001_Node000002" class="edge">
<title>Node2&#45;&gt;Node1</title>
<g id="a_edge1_Node000001_Node000002"><a xlink:title=" ">
<path fill="none" stroke="#63b8ff" d="M80,-85.48C80,-76.3 80,-67.64 80,-60.04"/>
<polygon fill="none" stroke="#63b8ff" points="76.5,-85.62 80,-95.62 83.5,-85.62 76.5,-85.62"/>
</a>
</g>
</g>
<!-- Node3 -->
<g id="Node000003" class="node">
<title>Node3</title>
<g id="a_Node000003"><a xlink:href="../../d2/dae/classArcane_1_1IMainFactory.html" target="_top" xlink:title="Manufacture des classes d&#39;Arcane.">
<polygon fill="white" stroke="transparent" points="150.5,-530 9.5,-530 9.5,-331 150.5,-331 150.5,-530"/>
<text text-anchor="start" x="29" y="-517.5" font-family="Helvetica,sans-Serif" font-size="10.00">Arcane::IMainFactory</text>
<text text-anchor="start" x="78.5" y="-502.5" font-family="Helvetica,sans-Serif" font-size="10.00"> </text>
<text text-anchor="start" x="14" y="-487.5" font-family="Helvetica,sans-Serif" font-size="10.00">+</text>
<text text-anchor="start" x="27" y="-487.5" font-family="Helvetica,sans-Serif" font-size="10.00">~IMainFactory()</text>
<text text-anchor="start" x="14" y="-472.5" font-family="Helvetica,sans-Serif" font-size="10.00">+</text>
<text text-anchor="start" x="27" y="-472.5" font-family="Helvetica,sans-Serif" font-size="10.00">createArcaneMain()</text>
<text text-anchor="start" x="14" y="-457.5" font-family="Helvetica,sans-Serif" font-size="10.00">+</text>
<text text-anchor="start" x="27" y="-457.5" font-family="Helvetica,sans-Serif" font-size="10.00">createApplication()</text>
<text text-anchor="start" x="14" y="-442.5" font-family="Helvetica,sans-Serif" font-size="10.00">+</text>
<text text-anchor="start" x="27" y="-442.5" font-family="Helvetica,sans-Serif" font-size="10.00">createVariableMng()</text>
<text text-anchor="start" x="14" y="-427.5" font-family="Helvetica,sans-Serif" font-size="10.00">+</text>
<text text-anchor="start" x="27" y="-427.5" font-family="Helvetica,sans-Serif" font-size="10.00">createModuleMng()</text>
<text text-anchor="start" x="14" y="-412.5" font-family="Helvetica,sans-Serif" font-size="10.00">+</text>
<text text-anchor="start" x="27" y="-412.5" font-family="Helvetica,sans-Serif" font-size="10.00">createEntryPointMng()</text>
<text text-anchor="start" x="14" y="-397.5" font-family="Helvetica,sans-Serif" font-size="10.00">+</text>
<text text-anchor="start" x="27" y="-397.5" font-family="Helvetica,sans-Serif" font-size="10.00">createTimeHistoryMng()</text>
<text text-anchor="start" x="14" y="-382.5" font-family="Helvetica,sans-Serif" font-size="10.00">+</text>
<text text-anchor="start" x="27" y="-382.5" font-family="Helvetica,sans-Serif" font-size="10.00">createCaseMng()</text>
<text text-anchor="start" x="14" y="-367.5" font-family="Helvetica,sans-Serif" font-size="10.00">+</text>
<text text-anchor="start" x="27" y="-367.5" font-family="Helvetica,sans-Serif" font-size="10.00">createCaseDocument()</text>
<text text-anchor="start" x="14" y="-352.5" font-family="Helvetica,sans-Serif" font-size="10.00">+</text>
<text text-anchor="start" x="27" y="-352.5" font-family="Helvetica,sans-Serif" font-size="10.00">createCaseDocument()</text>
<text text-anchor="start" x="27" y="-337.5" font-family="Helvetica,sans-Serif" font-size="10.00">et 26 de plus...</text>
<polygon fill="#666666" stroke="#666666" points="10,-512.5 10,-512.5 151,-512.5 151,-512.5 10,-512.5"/>
<polygon fill="#666666" stroke="#666666" points="10,-497.5 10,-497.5 151,-497.5 151,-497.5 10,-497.5"/>
<polygon fill="none" stroke="#666666" points="9.5,-331 9.5,-530 150.5,-530 150.5,-331 9.5,-331"/>
</a>
</g>
</g>
<!-- Node3&#45;&gt;Node2 -->
<g id="edge2_Node000002_Node000003" class="edge">
<title>Node3&#45;&gt;Node2</title>
<g id="a_edge2_Node000002_Node000003"><a xlink:title=" ">
<path fill="none" stroke="#63b8ff" d="M80,-320.42C80,-311.97 80,-303.47 80,-295.09"/>
<polygon fill="none" stroke="#63b8ff" points="76.5,-320.69 80,-330.69 83.5,-320.69 76.5,-320.69"/>
</a>
</g>
</g>
</g>
</svg>
