<?xml version="1.0" encoding="UTF-8" standalone="no"?>
<!DOCTYPE svg PUBLIC "-//W3C//DTD SVG 1.1//EN"
 "http://www.w3.org/Graphics/SVG/1.1/DTD/svg11.dtd">
<!-- Generated by graphviz version 2.43.0 (0)
 -->
<!-- Title: Arcane::Accelerator::MatItemVariableScalarInViewT&lt; ItemType, DataType &gt; Pages: 1 -->
<!--zoomable 816 -->

<svg id="main" version="1.1" xmlns="http://www.w3.org/2000/svg" xmlns:xlink="http://www.w3.org/1999/xlink" xml:space="preserve" onload="init(evt)">

<style type="text/css"><![CDATA[
.node, .edge {opacity: 0.7;}
.node.selected, .edge.selected {opacity: 1;}
.edge:hover path { stroke: red; }
.edge:hover polygon { stroke: red; fill: red; }
]]></style>

<defs>
  <circle id="rim" cx="0" cy="0" r="7"/>
  <circle id="rim2" cx="0" cy="0" r="3.5"/>
  <g id="zoomPlus">
    <use xlink:href="#rim" fill="#404040"><set attributeName="fill" to="#808080" begin="zoomplus.mouseover" end="zoomplus.mouseout"/></use>
    <path d="M-4,0h8M0,-4v8" fill="none" stroke="white" stroke-width="1.5" pointer-events="none"/>
  </g>
  <g id="zoomMin">
    <use xlink:href="#rim" fill="#404040"><set attributeName="fill" to="#808080" begin="zoomminus.mouseover" end="zoomminus.mouseout"/></use>
    <path d="M-4,0h8" fill="none" stroke="white" stroke-width="1.5" pointer-events="none"/>
  </g>
  <g id="arrowUp" transform="translate(30 24)">
    <use xlink:href="#rim"/>
    <path pointer-events="none" fill="none" stroke="white" stroke-width="1.5" d="M0,-3.0v7 M-2.5,-0.5L0,-3.0L2.5,-0.5"/>
  </g>
  <g id="arrowRight" transform="rotate(90) translate(36 -43)">
    <use xlink:href="#rim"/>
    <path pointer-events="none" fill="none" stroke="white" stroke-width="1.5" d="M0,-3.0v7 M-2.5,-0.5L0,-3.0L2.5,-0.5"/>
  </g>
  <g id="arrowDown" transform="rotate(180) translate(-30 -48)">
    <use xlink:href="#rim"/>
    <path pointer-events="none" fill="none" stroke="white" stroke-width="1.5" d="M0,-3.0v7 M-2.5,-0.5L0,-3.0L2.5,-0.5"/>
  </g>
  <g id="arrowLeft" transform="rotate(270) translate(-36 17)">
    <use xlink:href="#rim"/>
    <path pointer-events="none" fill="none" stroke="white" stroke-width="1.5" d="M0,-3.0v7 M-2.5,-0.5L0,-3.0L2.5,-0.5"/>
  </g>
  <g id="resetDef">
    <use xlink:href="#rim2" fill="#404040"><set attributeName="fill" to="#808080" begin="reset.mouseover" end="reset.mouseout"/></use>
  </g>
</defs>
<script type="application/ecmascript">
var viewWidth = 272;
var viewHeight = 816;
var sectionId = 'dynsection-1';
</script>
<script type="application/ecmascript" xlink:href="../../svg.min.js"/>
<svg id="graph" class="graph">
<g id="viewport">
<title>Arcane::Accelerator::MatItemVariableScalarInViewT&lt; ItemType, DataType &gt;</title>
<!-- Node1 -->
<g id="Node000001" class="node">
<title>Node1</title>
<g id="a_Node000001"><a xlink:title="Vue en lecture sur une variable scalaire du maillage.">
<polygon fill="#999999" stroke="transparent" points="227.5,-161 48.5,-161 48.5,0 227.5,0 227.5,-161"/>
<text text-anchor="start" x="63" y="-148.5" font-family="Helvetica,sans-Serif" font-size="10.00">Arcane::Accelerator</text>
<text text-anchor="start" x="63" y="-137.5" font-family="Helvetica,sans-Serif" font-size="10.00">::MatItemVariableScalarInView</text>
<text text-anchor="start" x="75.5" y="-126.5" font-family="Helvetica,sans-Serif" font-size="10.00">T&lt; ItemType, DataType &gt;</text>
<text text-anchor="start" x="136.5" y="-111.5" font-family="Helvetica,sans-Serif" font-size="10.00"> </text>
<text text-anchor="start" x="53" y="-96.5" font-family="Helvetica,sans-Serif" font-size="10.00">+</text>
<text text-anchor="start" x="66" y="-96.5" font-family="Helvetica,sans-Serif" font-size="10.00">MatItemVariableScalarInViewT()</text>
<text text-anchor="start" x="53" y="-81.5" font-family="Helvetica,sans-Serif" font-size="10.00">+</text>
<text text-anchor="start" x="66" y="-81.5" font-family="Helvetica,sans-Serif" font-size="10.00">MatItemVariableScalarInViewT()</text>
<text text-anchor="start" x="53" y="-66.5" font-family="Helvetica,sans-Serif" font-size="10.00">+</text>
<text text-anchor="start" x="66" y="-66.5" font-family="Helvetica,sans-Serif" font-size="10.00">operator[]()</text>
<text text-anchor="start" x="53" y="-51.5" font-family="Helvetica,sans-Serif" font-size="10.00">+</text>
<text text-anchor="start" x="66" y="-51.5" font-family="Helvetica,sans-Serif" font-size="10.00">operator[]()</text>
<text text-anchor="start" x="53" y="-36.5" font-family="Helvetica,sans-Serif" font-size="10.00">+</text>
<text text-anchor="start" x="66" y="-36.5" font-family="Helvetica,sans-Serif" font-size="10.00">operator[]()</text>
<text text-anchor="start" x="53" y="-21.5" font-family="Helvetica,sans-Serif" font-size="10.00">+</text>
<text text-anchor="start" x="66" y="-21.5" font-family="Helvetica,sans-Serif" font-size="10.00">value()</text>
<text text-anchor="start" x="53" y="-6.5" font-family="Helvetica,sans-Serif" font-size="10.00">+</text>
<text text-anchor="start" x="66" y="-6.5" font-family="Helvetica,sans-Serif" font-size="10.00">value0()</text>
<polygon fill="#666666" stroke="#666666" points="49,-121.5 49,-121.5 228,-121.5 228,-121.5 49,-121.5"/>
<polygon fill="#666666" stroke="#666666" points="49,-106.5 49,-106.5 228,-106.5 228,-106.5 49,-106.5"/>
<polygon fill="none" stroke="#666666" points="48.5,0 48.5,-161 227.5,-161 227.5,0 48.5,0"/>
</a>
</g>
</g>
<!-- Node2 -->
<g id="Node000002" class="node">
<title>Node2</title>
<g id="a_Node000002"><a xlink:href="../../d5/da8/classArcane_1_1Accelerator_1_1MatVariableViewBase.html" target="_top" xlink:title="Classe de base des vues sur les variables matériaux.">
<polygon fill="white" stroke="transparent" points="136,-545.5 0,-545.5 0,-470.5 136,-470.5 136,-545.5"/>
<text text-anchor="start" x="11.5" y="-533" font-family="Helvetica,sans-Serif" font-size="10.00">Arcane::Accelerator</text>
<text text-anchor="start" x="11.5" y="-522" font-family="Helvetica,sans-Serif" font-size="10.00">::MatVariableViewBase</text>
<text text-anchor="start" x="66" y="-507" font-family="Helvetica,sans-Serif" font-size="10.00"> </text>
<text text-anchor="start" x="4" y="-492" font-family="Helvetica,sans-Serif" font-size="10.00">+</text>
<text text-anchor="start" x="17" y="-492" font-family="Helvetica,sans-Serif" font-size="10.00">MatVariableViewBase()</text>
<text text-anchor="start" x="4" y="-477" font-family="Helvetica,sans-Serif" font-size="10.00">+</text>
<text text-anchor="start" x="17" y="-477" font-family="Helvetica,sans-Serif" font-size="10.00">MatVariableViewBase()</text>
<polygon fill="#666666" stroke="#666666" points="0,-517 0,-517 136,-517 136,-517 0,-517"/>
<polygon fill="#666666" stroke="#666666" points="0,-502 0,-502 136,-502 136,-502 0,-502"/>
<polygon fill="none" stroke="#666666" points="0,-470.5 0,-545.5 136,-545.5 136,-470.5 0,-470.5"/>
</a>
</g>
</g>
<!-- Node2&#45;&gt;Node1 -->
<g id="edge1_Node000001_Node000002" class="edge">
<title>Node2&#45;&gt;Node1</title>
<g id="a_edge1_Node000001_Node000002"><a xlink:title=" ">
<path fill="none" stroke="#63b8ff" d="M75.69,-460.23C87.54,-388.24 110.38,-249.37 124.88,-161.28"/>
<polygon fill="none" stroke="#63b8ff" points="72.2,-459.92 74.03,-470.35 79.11,-461.05 72.2,-459.92"/>
</a>
</g>
</g>
<!-- Node3 -->
<g id="Node000003" class="node">
<title>Node3</title>
<g id="a_Node000003"><a xlink:href="../../d2/d30/classArcane_1_1ArrayView.html" target="_top" xlink:title=" ">
<polygon fill="white" stroke="transparent" points="263.5,-808 154.5,-808 154.5,-208 263.5,-208 263.5,-808"/>
<text text-anchor="start" x="160" y="-796" font-family="Helvetica,sans-Serif" font-size="10.00">Arcane::ArrayView&lt;</text>
<text text-anchor="start" x="179" y="-785" font-family="Helvetica,sans-Serif" font-size="10.00"> DataType &gt;</text>
<text text-anchor="start" x="163.5" y="-770" font-family="Helvetica,sans-Serif" font-size="10.00">&#45;</text>
<text text-anchor="start" x="176" y="-770" font-family="Helvetica,sans-Serif" font-size="10.00">m_size</text>
<text text-anchor="start" x="163.5" y="-755" font-family="Helvetica,sans-Serif" font-size="10.00">&#45;</text>
<text text-anchor="start" x="176" y="-755" font-family="Helvetica,sans-Serif" font-size="10.00">m_ptr</text>
<text text-anchor="start" x="163.5" y="-740" font-family="Helvetica,sans-Serif" font-size="10.00">&#45;</text>
<text text-anchor="start" x="176" y="-740" font-family="Helvetica,sans-Serif" font-size="10.00">m_size</text>
<text text-anchor="start" x="163.5" y="-725" font-family="Helvetica,sans-Serif" font-size="10.00">&#45;</text>
<text text-anchor="start" x="176" y="-725" font-family="Helvetica,sans-Serif" font-size="10.00">m_ptr</text>
<text text-anchor="start" x="163.5" y="-710" font-family="Helvetica,sans-Serif" font-size="10.00">&#45;</text>
<text text-anchor="start" x="176" y="-710" font-family="Helvetica,sans-Serif" font-size="10.00">m_size</text>
<text text-anchor="start" x="163.5" y="-695" font-family="Helvetica,sans-Serif" font-size="10.00">&#45;</text>
<text text-anchor="start" x="176" y="-695" font-family="Helvetica,sans-Serif" font-size="10.00">m_ptr</text>
<text text-anchor="start" x="163.5" y="-680" font-family="Helvetica,sans-Serif" font-size="10.00">&#45;</text>
<text text-anchor="start" x="176" y="-680" font-family="Helvetica,sans-Serif" font-size="10.00">m_size</text>
<text text-anchor="start" x="163.5" y="-665" font-family="Helvetica,sans-Serif" font-size="10.00">&#45;</text>
<text text-anchor="start" x="176" y="-665" font-family="Helvetica,sans-Serif" font-size="10.00">m_ptr</text>
<text text-anchor="start" x="161" y="-650" font-family="Helvetica,sans-Serif" font-size="10.00">+</text>
<text text-anchor="start" x="176" y="-650" font-family="Helvetica,sans-Serif" font-size="10.00">ArrayView()</text>
<text text-anchor="start" x="161" y="-635" font-family="Helvetica,sans-Serif" font-size="10.00">+</text>
<text text-anchor="start" x="176" y="-635" font-family="Helvetica,sans-Serif" font-size="10.00">ArrayView()</text>
<text text-anchor="start" x="161" y="-620" font-family="Helvetica,sans-Serif" font-size="10.00">+</text>
<text text-anchor="start" x="176" y="-620" font-family="Helvetica,sans-Serif" font-size="10.00">ArrayView()</text>
<text text-anchor="start" x="161" y="-605" font-family="Helvetica,sans-Serif" font-size="10.00">+</text>
<text text-anchor="start" x="176" y="-605" font-family="Helvetica,sans-Serif" font-size="10.00">ArrayView()</text>
<text text-anchor="start" x="161" y="-590" font-family="Helvetica,sans-Serif" font-size="10.00">+</text>
<text text-anchor="start" x="176" y="-590" font-family="Helvetica,sans-Serif" font-size="10.00">operator=()</text>
<text text-anchor="start" x="161" y="-575" font-family="Helvetica,sans-Serif" font-size="10.00">+</text>
<text text-anchor="start" x="176" y="-575" font-family="Helvetica,sans-Serif" font-size="10.00">operator=()</text>
<text text-anchor="start" x="161" y="-560" font-family="Helvetica,sans-Serif" font-size="10.00">+</text>
<text text-anchor="start" x="176" y="-560" font-family="Helvetica,sans-Serif" font-size="10.00">operator[]()</text>
<text text-anchor="start" x="161" y="-545" font-family="Helvetica,sans-Serif" font-size="10.00">+</text>
<text text-anchor="start" x="176" y="-545" font-family="Helvetica,sans-Serif" font-size="10.00">operator[]()</text>
<text text-anchor="start" x="161" y="-530" font-family="Helvetica,sans-Serif" font-size="10.00">+</text>
<text text-anchor="start" x="176" y="-530" font-family="Helvetica,sans-Serif" font-size="10.00">operator()()</text>
<text text-anchor="start" x="161" y="-515" font-family="Helvetica,sans-Serif" font-size="10.00">+</text>
<text text-anchor="start" x="176" y="-515" font-family="Helvetica,sans-Serif" font-size="10.00">operator()()</text>
<text text-anchor="start" x="176" y="-500" font-family="Helvetica,sans-Serif" font-size="10.00">et 162 de plus...</text>
<text text-anchor="start" x="161" y="-485" font-family="Helvetica,sans-Serif" font-size="10.00">+</text>
<text text-anchor="start" x="176" y="-485" font-family="Helvetica,sans-Serif" font-size="10.00">create()</text>
<text text-anchor="start" x="161" y="-470" font-family="Helvetica,sans-Serif" font-size="10.00">+</text>
<text text-anchor="start" x="176" y="-470" font-family="Helvetica,sans-Serif" font-size="10.00">create()</text>
<text text-anchor="start" x="161" y="-455" font-family="Helvetica,sans-Serif" font-size="10.00">+</text>
<text text-anchor="start" x="176" y="-455" font-family="Helvetica,sans-Serif" font-size="10.00">create()</text>
<text text-anchor="start" x="161" y="-440" font-family="Helvetica,sans-Serif" font-size="10.00">+</text>
<text text-anchor="start" x="176" y="-440" font-family="Helvetica,sans-Serif" font-size="10.00">create()</text>
<text text-anchor="start" x="161" y="-425" font-family="Helvetica,sans-Serif" font-size="10.00">#</text>
<text text-anchor="start" x="176" y="-425" font-family="Helvetica,sans-Serif" font-size="10.00">_ptr()</text>
<text text-anchor="start" x="161" y="-410" font-family="Helvetica,sans-Serif" font-size="10.00">#</text>
<text text-anchor="start" x="176" y="-410" font-family="Helvetica,sans-Serif" font-size="10.00">_ptr()</text>
<text text-anchor="start" x="161" y="-395" font-family="Helvetica,sans-Serif" font-size="10.00">#</text>
<text text-anchor="start" x="176" y="-395" font-family="Helvetica,sans-Serif" font-size="10.00">_setArray()</text>
<text text-anchor="start" x="161" y="-380" font-family="Helvetica,sans-Serif" font-size="10.00">#</text>
<text text-anchor="start" x="176" y="-380" font-family="Helvetica,sans-Serif" font-size="10.00">_setPtr()</text>
<text text-anchor="start" x="161" y="-365" font-family="Helvetica,sans-Serif" font-size="10.00">#</text>
<text text-anchor="start" x="176" y="-365" font-family="Helvetica,sans-Serif" font-size="10.00">_setSize()</text>
<text text-anchor="start" x="161" y="-350" font-family="Helvetica,sans-Serif" font-size="10.00">#</text>
<text text-anchor="start" x="176" y="-350" font-family="Helvetica,sans-Serif" font-size="10.00">_ptr()</text>
<text text-anchor="start" x="161" y="-335" font-family="Helvetica,sans-Serif" font-size="10.00">#</text>
<text text-anchor="start" x="176" y="-335" font-family="Helvetica,sans-Serif" font-size="10.00">_ptr()</text>
<text text-anchor="start" x="161" y="-320" font-family="Helvetica,sans-Serif" font-size="10.00">#</text>
<text text-anchor="start" x="176" y="-320" font-family="Helvetica,sans-Serif" font-size="10.00">_setArray()</text>
<text text-anchor="start" x="161" y="-305" font-family="Helvetica,sans-Serif" font-size="10.00">#</text>
<text text-anchor="start" x="176" y="-305" font-family="Helvetica,sans-Serif" font-size="10.00">_setPtr()</text>
<text text-anchor="start" x="161" y="-290" font-family="Helvetica,sans-Serif" font-size="10.00">#</text>
<text text-anchor="start" x="176" y="-290" font-family="Helvetica,sans-Serif" font-size="10.00">_setSize()</text>
<text text-anchor="start" x="176" y="-275" font-family="Helvetica,sans-Serif" font-size="10.00">et 10 de plus...</text>
<text text-anchor="start" x="163.5" y="-260" font-family="Helvetica,sans-Serif" font-size="10.00">&#45;</text>
<text text-anchor="start" x="176" y="-260" font-family="Helvetica,sans-Serif" font-size="10.00">_min()</text>
<text text-anchor="start" x="163.5" y="-245" font-family="Helvetica,sans-Serif" font-size="10.00">&#45;</text>
<text text-anchor="start" x="176" y="-245" font-family="Helvetica,sans-Serif" font-size="10.00">_min()</text>
<text text-anchor="start" x="163.5" y="-230" font-family="Helvetica,sans-Serif" font-size="10.00">&#45;</text>
<text text-anchor="start" x="176" y="-230" font-family="Helvetica,sans-Serif" font-size="10.00">_min()</text>
<text text-anchor="start" x="163.5" y="-215" font-family="Helvetica,sans-Serif" font-size="10.00">&#45;</text>
<text text-anchor="start" x="176" y="-215" font-family="Helvetica,sans-Serif" font-size="10.00">_min()</text>
<polygon fill="#666666" stroke="#666666" points="155,-780 155,-780 264,-780 264,-780 155,-780"/>
<polygon fill="#666666" stroke="#666666" points="155,-660 155,-660 174,-660 174,-660 155,-660"/>
<polygon fill="#666666" stroke="#666666" points="174,-660 174,-660 264,-660 264,-660 174,-660"/>
<polygon fill="none" stroke="#666666" points="154.5,-208 154.5,-808 263.5,-808 263.5,-208 154.5,-208"/>
</a>
</g>
</g>
<!-- Node3&#45;&gt;Node1 -->
<g id="edge2_Node000001_Node000003" class="edge">
<title>Node3&#45;&gt;Node1</title>
<g id="a_edge2_Node000001_Node000003"><a xlink:title=" ">
<path fill="none" stroke="#63b8ff" d="M159.06,-207.72C157.07,-195.76 155.14,-184.24 153.33,-173.36"/>
<polygon fill="none" stroke="#63b8ff" points="153.3,-173.18 148.37,-167.92 151.32,-161.34 156.26,-166.6 153.3,-173.18"/>
</a>
</g>
<text text-anchor="middle" x="180.5" y="-182" font-family="Helvetica,sans-Serif" font-size="10.00" fill="grey"> &#45;m_value</text>
</g>
</g>
</svg>

<g id="navigator" transform="translate(0 0)" fill="#404254">
  <rect fill="#f2f5e9" fill-opacity="0.5" stroke="#606060" stroke-width=".5" x="0" y="0" width="60" height="60"/>
  <use id="zoomplus" xlink:href="#zoomPlus" x="17" y="9" onmousedown="handleZoom(evt,'in')"/>
  <use id="zoomminus" xlink:href="#zoomMin" x="42" y="9" onmousedown="handleZoom(evt,'out')"/>
  <use id="reset" xlink:href="#resetDef" x="30" y="36" onmousedown="handleReset()"/>
   <use id="arrowup" xlink:href="#arrowUp" x="0" y="0" onmousedown="handlePan(0,-1)"/>
  <use id="arrowright" xlink:href="#arrowRight" x="0" y="0" onmousedown="handlePan(1,0)"/>
  <use id="arrowdown" xlink:href="#arrowDown" x="0" y="0" onmousedown="handlePan(0,1)"/>
  <use id="arrowleft" xlink:href="#arrowLeft" x="0" y="0" onmousedown="handlePan(-1,0)"/>
</g>
<svg viewBox="0 0 15 15" width="100%" height="30px" preserveAspectRatio="xMaxYMin meet">
 <g id="arrow_out" transform="scale(0.3 0.3)">
  <a xlink:href="classArcane_1_1Accelerator_1_1MatItemVariableScalarInViewT__coll__graph_org.svg" target="_base">
   <rect id="button" ry="5" rx="5" y="6" x="6" height="38" width="38"
        fill="#f2f5e9" fill-opacity="0.5" stroke="#606060" stroke-width="1.0"/>
   <path id="arrow"
     d="M 11.500037,31.436501 C 11.940474,20.09759 22.043105,11.32322 32.158766,21.979434 L 37.068811,17.246167 C 37.068811,17.246167 37.088388,32 37.088388,32 L 22.160133,31.978069 C 22.160133,31.978069 26.997745,27.140456 26.997745,27.140456 C 18.528582,18.264221 13.291696,25.230495 11.500037,31.436501 z"
     style="fill:#404040;"/>
  </a>
 </g>
</svg>

<style type='text/css'>
<![CDATA[
[data-mouse-over-selected='false'] { opacity: 0.7; }
[data-mouse-over-selected='true']  { opacity: 1.0; }
]]>
</style>
<script type="application/ecmascript"><![CDATA[
document.addEventListener('DOMContentLoaded', (event) => {
  highlightEdges();
  highlightAdjacentNodes();
});
]]></script>
</svg>
