<?xml version="1.0" encoding="UTF-8" standalone="no"?>
<!DOCTYPE svg PUBLIC "-//W3C//DTD SVG 1.1//EN"
 "http://www.w3.org/Graphics/SVG/1.1/DTD/svg11.dtd">
<!-- Generated by graphviz version 2.43.0 (0)
 -->
<!-- Title: Arcane::DataFactory Pages: 1 -->
<svg width="336pt" height="606pt"
 viewBox="0.00 0.00 335.50 606.00" xmlns="http://www.w3.org/2000/svg" xmlns:xlink="http://www.w3.org/1999/xlink">
<g id="graph0" class="graph" transform="scale(1 1) rotate(0) translate(4 602)">
<title>Arcane::DataFactory</title>
<!-- Node1 -->
<g id="Node000001" class="node">
<title>Node1</title>
<g id="a_Node000001"><a xlink:title="Interface d&#39;une fabrique d&#39;une donnée.">
<polygon fill="#999999" stroke="transparent" points="147,-109 16,-109 16,0 147,0 147,-109"/>
<text text-anchor="start" x="32.5" y="-96.5" font-family="Helvetica,sans-Serif" font-size="10.00">Arcane::DataFactory</text>
<text text-anchor="start" x="80" y="-81.5" font-family="Helvetica,sans-Serif" font-size="10.00"> </text>
<text text-anchor="start" x="20.5" y="-66.5" font-family="Helvetica,sans-Serif" font-size="10.00">+</text>
<text text-anchor="start" x="33.5" y="-66.5" font-family="Helvetica,sans-Serif" font-size="10.00">DataFactory()</text>
<text text-anchor="start" x="20.5" y="-51.5" font-family="Helvetica,sans-Serif" font-size="10.00">+</text>
<text text-anchor="start" x="33.5" y="-51.5" font-family="Helvetica,sans-Serif" font-size="10.00">~DataFactory()</text>
<text text-anchor="start" x="20.5" y="-36.5" font-family="Helvetica,sans-Serif" font-size="10.00">+</text>
<text text-anchor="start" x="33.5" y="-36.5" font-family="Helvetica,sans-Serif" font-size="10.00">build()</text>
<text text-anchor="start" x="20.5" y="-21.5" font-family="Helvetica,sans-Serif" font-size="10.00">+</text>
<text text-anchor="start" x="33.5" y="-21.5" font-family="Helvetica,sans-Serif" font-size="10.00">application()</text>
<text text-anchor="start" x="20.5" y="-6.5" font-family="Helvetica,sans-Serif" font-size="10.00">+</text>
<text text-anchor="start" x="33.5" y="-6.5" font-family="Helvetica,sans-Serif" font-size="10.00">createDataOperation()</text>
<polygon fill="#666666" stroke="#666666" points="16.5,-91.5 16.5,-91.5 147.5,-91.5 147.5,-91.5 16.5,-91.5"/>
<polygon fill="#666666" stroke="#666666" points="16.5,-76.5 16.5,-76.5 147.5,-76.5 147.5,-76.5 16.5,-76.5"/>
<polygon fill="none" stroke="#666666" points="16,0 16,-109 147,-109 147,0 16,0"/>
</a>
</g>
</g>
<!-- Node2 -->
<g id="Node000002" class="node">
<title>Node2</title>
<g id="a_Node000002"><a xlink:href="../../dd/d5c/classArcane_1_1IDataFactory.html" target="_top" xlink:title="Interface d&#39;une fabrique d&#39;une donnée.">
<polygon fill="white" stroke="transparent" points="131,-313.5 0,-313.5 0,-219.5 131,-219.5 131,-313.5"/>
<text text-anchor="start" x="15" y="-301.5" font-family="Helvetica,sans-Serif" font-size="10.00">Arcane::IDataFactory</text>
<text text-anchor="start" x="64" y="-286.5" font-family="Helvetica,sans-Serif" font-size="10.00"> </text>
<text text-anchor="start" x="4.5" y="-271.5" font-family="Helvetica,sans-Serif" font-size="10.00">+</text>
<text text-anchor="start" x="17.5" y="-271.5" font-family="Helvetica,sans-Serif" font-size="10.00">~IDataFactory()</text>
<text text-anchor="start" x="4.5" y="-256.5" font-family="Helvetica,sans-Serif" font-size="10.00">+</text>
<text text-anchor="start" x="17.5" y="-256.5" font-family="Helvetica,sans-Serif" font-size="10.00">build()</text>
<text text-anchor="start" x="4.5" y="-241.5" font-family="Helvetica,sans-Serif" font-size="10.00">+</text>
<text text-anchor="start" x="17.5" y="-241.5" font-family="Helvetica,sans-Serif" font-size="10.00">application()</text>
<text text-anchor="start" x="4.5" y="-226.5" font-family="Helvetica,sans-Serif" font-size="10.00">+</text>
<text text-anchor="start" x="17.5" y="-226.5" font-family="Helvetica,sans-Serif" font-size="10.00">createDataOperation()</text>
<polygon fill="#666666" stroke="#666666" points="0.5,-296.5 0.5,-296.5 131.5,-296.5 131.5,-296.5 0.5,-296.5"/>
<polygon fill="#666666" stroke="#666666" points="0.5,-281.5 0.5,-281.5 131.5,-281.5 131.5,-281.5 0.5,-281.5"/>
<polygon fill="none" stroke="#666666" points="0,-219.5 0,-313.5 131,-313.5 131,-219.5 0,-219.5"/>
</a>
</g>
</g>
<!-- Node2&#45;&gt;Node1 -->
<g id="edge1_Node000001_Node000002" class="edge">
<title>Node2&#45;&gt;Node1</title>
<g id="a_edge1_Node000001_Node000002"><a xlink:title=" ">
<path fill="none" stroke="#63b8ff" d="M69.79,-209.2C72.15,-178.18 75.07,-139.88 77.4,-109.27"/>
<polygon fill="none" stroke="#63b8ff" points="66.28,-209.18 69.01,-219.41 73.26,-209.71 66.28,-209.18"/>
</a>
</g>
</g>
<!-- Node3 -->
<g id="Node000003" class="node">
<title>Node3</title>
<g id="a_Node000003"><a xlink:href="../../d9/d7f/classArcane_1_1IApplication.html" target="_top" xlink:title="Interface de l&#39;application.">
<polygon fill="white" stroke="transparent" points="327.5,-377 149.5,-377 149.5,-156 327.5,-156 327.5,-377"/>
<text text-anchor="start" x="189.5" y="-364.5" font-family="Helvetica,sans-Serif" font-size="10.00">Arcane::IApplication</text>
<text text-anchor="start" x="236.5" y="-349.5" font-family="Helvetica,sans-Serif" font-size="10.00"> </text>
<text text-anchor="start" x="153.5" y="-334.5" font-family="Helvetica,sans-Serif" font-size="10.00">+</text>
<text text-anchor="start" x="166.5" y="-334.5" font-family="Helvetica,sans-Serif" font-size="10.00">parallelSuperMng()</text>
<text text-anchor="start" x="153.5" y="-319.5" font-family="Helvetica,sans-Serif" font-size="10.00">+</text>
<text text-anchor="start" x="166.5" y="-319.5" font-family="Helvetica,sans-Serif" font-size="10.00">sequentialParallelSuperMng()</text>
<text text-anchor="start" x="153.5" y="-304.5" font-family="Helvetica,sans-Serif" font-size="10.00">+</text>
<text text-anchor="start" x="166.5" y="-304.5" font-family="Helvetica,sans-Serif" font-size="10.00">ioMng()</text>
<text text-anchor="start" x="153.5" y="-289.5" font-family="Helvetica,sans-Serif" font-size="10.00">+</text>
<text text-anchor="start" x="166.5" y="-289.5" font-family="Helvetica,sans-Serif" font-size="10.00">configurationMng()</text>
<text text-anchor="start" x="153.5" y="-274.5" font-family="Helvetica,sans-Serif" font-size="10.00">+</text>
<text text-anchor="start" x="166.5" y="-274.5" font-family="Helvetica,sans-Serif" font-size="10.00">dataFactory()</text>
<text text-anchor="start" x="153.5" y="-259.5" font-family="Helvetica,sans-Serif" font-size="10.00">+</text>
<text text-anchor="start" x="166.5" y="-259.5" font-family="Helvetica,sans-Serif" font-size="10.00">dataFactoryMng()</text>
<text text-anchor="start" x="153.5" y="-244.5" font-family="Helvetica,sans-Serif" font-size="10.00">+</text>
<text text-anchor="start" x="166.5" y="-244.5" font-family="Helvetica,sans-Serif" font-size="10.00">applicationInfo()</text>
<text text-anchor="start" x="153.5" y="-229.5" font-family="Helvetica,sans-Serif" font-size="10.00">+</text>
<text text-anchor="start" x="166.5" y="-229.5" font-family="Helvetica,sans-Serif" font-size="10.00">applicationBuildInfo()</text>
<text text-anchor="start" x="153.5" y="-214.5" font-family="Helvetica,sans-Serif" font-size="10.00">+</text>
<text text-anchor="start" x="166.5" y="-214.5" font-family="Helvetica,sans-Serif" font-size="10.00">dotnetRuntimeInitialisation</text>
<text text-anchor="start" x="166.5" y="-203.5" font-family="Helvetica,sans-Serif" font-size="10.00">Info()</text>
<text text-anchor="start" x="153.5" y="-188.5" font-family="Helvetica,sans-Serif" font-size="10.00">+</text>
<text text-anchor="start" x="166.5" y="-188.5" font-family="Helvetica,sans-Serif" font-size="10.00">acceleratorRuntimeInitialisation</text>
<text text-anchor="start" x="166.5" y="-177.5" font-family="Helvetica,sans-Serif" font-size="10.00">Info()</text>
<text text-anchor="start" x="166.5" y="-162.5" font-family="Helvetica,sans-Serif" font-size="10.00">et 21 de plus...</text>
<polygon fill="#666666" stroke="#666666" points="149.5,-359.5 149.5,-359.5 327.5,-359.5 327.5,-359.5 149.5,-359.5"/>
<polygon fill="#666666" stroke="#666666" points="149.5,-344.5 149.5,-344.5 327.5,-344.5 327.5,-344.5 149.5,-344.5"/>
<polygon fill="none" stroke="#666666" points="149.5,-156 149.5,-377 327.5,-377 327.5,-156 149.5,-156"/>
</a>
</g>
</g>
<!-- Node3&#45;&gt;Node1 -->
<g id="edge2_Node000001_Node000003" class="edge">
<title>Node3&#45;&gt;Node1</title>
<g id="a_edge2_Node000001_Node000003"><a xlink:title=" ">
<path fill="none" stroke="#63b8ff" d="M156.55,-155.89C147.08,-143.22 137.68,-130.65 128.9,-118.9"/>
<polygon fill="none" stroke="#63b8ff" points="128.87,-118.86 122.07,-116.45 121.68,-109.25 128.48,-111.66 128.87,-118.86"/>
</a>
</g>
<text text-anchor="middle" x="178.5" y="-130" font-family="Helvetica,sans-Serif" font-size="10.00" fill="grey"> &#45;m_application</text>
</g>
<!-- Node4 -->
<g id="Node000004" class="node">
<title>Node4</title>
<g id="a_Node000004"><a xlink:href="../../d3/d96/classArcane_1_1IBase.html" target="_top" xlink:title="Interface de la classe de base des objets principaux arcane.">
<polygon fill="white" stroke="transparent" points="305.5,-598 171.5,-598 171.5,-414 305.5,-414 305.5,-598"/>
<text text-anchor="start" x="205" y="-586" font-family="Helvetica,sans-Serif" font-size="10.00">Arcane::IBase</text>
<text text-anchor="start" x="236.5" y="-571" font-family="Helvetica,sans-Serif" font-size="10.00"> </text>
<text text-anchor="start" x="175.5" y="-556" font-family="Helvetica,sans-Serif" font-size="10.00">+</text>
<text text-anchor="start" x="188.5" y="-556" font-family="Helvetica,sans-Serif" font-size="10.00">~IBase()</text>
<text text-anchor="start" x="175.5" y="-541" font-family="Helvetica,sans-Serif" font-size="10.00">+</text>
<text text-anchor="start" x="188.5" y="-541" font-family="Helvetica,sans-Serif" font-size="10.00">build()</text>
<text text-anchor="start" x="175.5" y="-526" font-family="Helvetica,sans-Serif" font-size="10.00">+</text>
<text text-anchor="start" x="188.5" y="-526" font-family="Helvetica,sans-Serif" font-size="10.00">initialize()</text>
<text text-anchor="start" x="175.5" y="-511" font-family="Helvetica,sans-Serif" font-size="10.00">+</text>
<text text-anchor="start" x="188.5" y="-511" font-family="Helvetica,sans-Serif" font-size="10.00">objectParent()</text>
<text text-anchor="start" x="175.5" y="-496" font-family="Helvetica,sans-Serif" font-size="10.00">+</text>
<text text-anchor="start" x="188.5" y="-496" font-family="Helvetica,sans-Serif" font-size="10.00">objectNamespaceURI()</text>
<text text-anchor="start" x="175.5" y="-481" font-family="Helvetica,sans-Serif" font-size="10.00">+</text>
<text text-anchor="start" x="188.5" y="-481" font-family="Helvetica,sans-Serif" font-size="10.00">objectLocalName()</text>
<text text-anchor="start" x="175.5" y="-466" font-family="Helvetica,sans-Serif" font-size="10.00">+</text>
<text text-anchor="start" x="188.5" y="-466" font-family="Helvetica,sans-Serif" font-size="10.00">objectVersion()</text>
<text text-anchor="start" x="175.5" y="-451" font-family="Helvetica,sans-Serif" font-size="10.00">+</text>
<text text-anchor="start" x="188.5" y="-451" font-family="Helvetica,sans-Serif" font-size="10.00">traceMng()</text>
<text text-anchor="start" x="175.5" y="-436" font-family="Helvetica,sans-Serif" font-size="10.00">+</text>
<text text-anchor="start" x="188.5" y="-436" font-family="Helvetica,sans-Serif" font-size="10.00">ressourceMng()</text>
<text text-anchor="start" x="175.5" y="-421" font-family="Helvetica,sans-Serif" font-size="10.00">+</text>
<text text-anchor="start" x="188.5" y="-421" font-family="Helvetica,sans-Serif" font-size="10.00">serviceMng()</text>
<polygon fill="#666666" stroke="#666666" points="171.5,-581 171.5,-581 305.5,-581 305.5,-581 171.5,-581"/>
<polygon fill="#666666" stroke="#666666" points="171.5,-566 171.5,-566 305.5,-566 305.5,-566 171.5,-566"/>
<polygon fill="none" stroke="#666666" points="171.5,-414 171.5,-598 305.5,-598 305.5,-414 171.5,-414"/>
</a>
</g>
</g>
<!-- Node4&#45;&gt;Node3 -->
<g id="edge3_Node000003_Node000004" class="edge">
<title>Node4&#45;&gt;Node3</title>
<g id="a_edge3_Node000003_Node000004"><a xlink:title=" ">
<path fill="none" stroke="#63b8ff" d="M238.5,-403.62C238.5,-394.84 238.5,-385.93 238.5,-377.08"/>
<polygon fill="none" stroke="#63b8ff" points="235,-403.86 238.5,-413.86 242,-403.86 235,-403.86"/>
</a>
</g>
</g>
</g>
</svg>
