<?xml version="1.0" encoding="UTF-8" standalone="no"?>
<!DOCTYPE svg PUBLIC "-//W3C//DTD SVG 1.1//EN"
 "http://www.w3.org/Graphics/SVG/1.1/DTD/svg11.dtd">
<!-- Generated by graphviz version 2.43.0 (0)
 -->
<!-- Title: Arcane::ItemGroupImpl::activeCellGroup Pages: 1 -->
<!--zoomable 511 -->

<svg id="main" version="1.1" xmlns="http://www.w3.org/2000/svg" xmlns:xlink="http://www.w3.org/1999/xlink" xml:space="preserve" onload="init(evt)">

<style type="text/css"><![CDATA[
.node, .edge {opacity: 0.7;}
.node.selected, .edge.selected {opacity: 1;}
.edge:hover path { stroke: red; }
.edge:hover polygon { stroke: red; fill: red; }
]]></style>

<defs>
  <circle id="rim" cx="0" cy="0" r="7"/>
  <circle id="rim2" cx="0" cy="0" r="3.5"/>
  <g id="zoomPlus">
    <use xlink:href="#rim" fill="#404040"><set attributeName="fill" to="#808080" begin="zoomplus.mouseover" end="zoomplus.mouseout"/></use>
    <path d="M-4,0h8M0,-4v8" fill="none" stroke="white" stroke-width="1.5" pointer-events="none"/>
  </g>
  <g id="zoomMin">
    <use xlink:href="#rim" fill="#404040"><set attributeName="fill" to="#808080" begin="zoomminus.mouseover" end="zoomminus.mouseout"/></use>
    <path d="M-4,0h8" fill="none" stroke="white" stroke-width="1.5" pointer-events="none"/>
  </g>
  <g id="arrowUp" transform="translate(30 24)">
    <use xlink:href="#rim"/>
    <path pointer-events="none" fill="none" stroke="white" stroke-width="1.5" d="M0,-3.0v7 M-2.5,-0.5L0,-3.0L2.5,-0.5"/>
  </g>
  <g id="arrowRight" transform="rotate(90) translate(36 -43)">
    <use xlink:href="#rim"/>
    <path pointer-events="none" fill="none" stroke="white" stroke-width="1.5" d="M0,-3.0v7 M-2.5,-0.5L0,-3.0L2.5,-0.5"/>
  </g>
  <g id="arrowDown" transform="rotate(180) translate(-30 -48)">
    <use xlink:href="#rim"/>
    <path pointer-events="none" fill="none" stroke="white" stroke-width="1.5" d="M0,-3.0v7 M-2.5,-0.5L0,-3.0L2.5,-0.5"/>
  </g>
  <g id="arrowLeft" transform="rotate(270) translate(-36 17)">
    <use xlink:href="#rim"/>
    <path pointer-events="none" fill="none" stroke="white" stroke-width="1.5" d="M0,-3.0v7 M-2.5,-0.5L0,-3.0L2.5,-0.5"/>
  </g>
  <g id="resetDef">
    <use xlink:href="#rim2" fill="#404040"><set attributeName="fill" to="#808080" begin="reset.mouseover" end="reset.mouseout"/></use>
  </g>
</defs>
<script type="application/ecmascript">
var viewWidth = 1042;
var viewHeight = 511;
var sectionId = 'dynsection-14';
</script>
<script type="application/ecmascript" xlink:href="../../svg.min.js"/>
<svg id="graph" class="graph">
<g id="viewport">
<title>Arcane::ItemGroupImpl::activeCellGroup</title>
<!-- Node1 -->
<g id="Node000001" class="node">
<title>Node1</title>
<g id="a_Node000001"><a xlink:title="AMR.">
<polygon fill="#999999" stroke="#666666" points="130,-254.67 0,-254.67 0,-224.67 130,-224.67 130,-254.67"/>
<text text-anchor="start" x="8" y="-242.67" font-family="Helvetica,sans-Serif" font-size="10.00">Arcane::ItemGroupImpl</text>
<text text-anchor="middle" x="65" y="-231.67" font-family="Helvetica,sans-Serif" font-size="10.00">::activeCellGroup</text>
</a>
</g>
</g>
<!-- Node2 -->
<g id="Node000002" class="node">
<title>Node2</title>
<g id="a_Node000002"><a xlink:href="../../da/df1/classArcane_1_1ItemGroupImpl.html#a38a58001db7b843b4453e332a1e180b7" target="_top" xlink:title="Crée un sous&#45;groupe calculé">
<polygon fill="white" stroke="#666666" points="296,-254.67 166,-254.67 166,-224.67 296,-224.67 296,-254.67"/>
<text text-anchor="start" x="174" y="-242.67" font-family="Helvetica,sans-Serif" font-size="10.00">Arcane::ItemGroupImpl</text>
<text text-anchor="middle" x="231" y="-231.67" font-family="Helvetica,sans-Serif" font-size="10.00">::createSubGroup</text>
</a>
</g>
</g>
<!-- Node1&#45;&gt;Node2 -->
<g id="edge1_Node000001_Node000002" class="edge">
<title>Node1&#45;&gt;Node2</title>
<g id="a_edge1_Node000001_Node000002"><a xlink:title=" ">
<path fill="none" stroke="#63b8ff" d="M130.35,-239.67C138.64,-239.67 147.19,-239.67 155.62,-239.67"/>
<polygon fill="#63b8ff" stroke="#63b8ff" points="155.84,-243.17 165.84,-239.67 155.84,-236.17 155.84,-243.17"/>
</a>
</g>
</g>
<!-- Node9 -->
<g id="Node000009" class="node">
<title>Node9</title>
<g id="a_Node000009"><a xlink:href="../../da/df1/classArcane_1_1ItemGroupImpl.html#adbfaa0362477433183f9fb7b747949cc" target="_top" xlink:title="Construit un groupe nul.">
<polygon fill="white" stroke="#666666" points="1034,-270.67 904,-270.67 904,-240.67 1034,-240.67 1034,-270.67"/>
<text text-anchor="start" x="912" y="-258.67" font-family="Helvetica,sans-Serif" font-size="10.00">Arcane::ItemGroupImpl</text>
<text text-anchor="middle" x="969" y="-247.67" font-family="Helvetica,sans-Serif" font-size="10.00">::ItemGroupImpl</text>
</a>
</g>
</g>
<!-- Node1&#45;&gt;Node9 -->
<g id="edge26_Node000001_Node000009" class="edge">
<title>Node1&#45;&gt;Node9</title>
<g id="a_edge26_Node000001_Node000009"><a xlink:title=" ">
<path fill="none" stroke="#63b8ff" d="M75.88,-254.93C111.78,-308.35 241.38,-483.67 396,-483.67 396,-483.67 396,-483.67 576.5,-483.67 706.33,-483.67 760.47,-537.42 868,-464.67 931.69,-421.58 956.02,-326.29 964.26,-280.8"/>
<polygon fill="#63b8ff" stroke="#63b8ff" points="967.73,-281.31 965.95,-270.87 960.82,-280.14 967.73,-281.31"/>
</a>
</g>
</g>
<!-- Node21 -->
<g id="Node000021" class="node">
<title>Node21</title>
<g id="a_Node000021"><a xlink:href="../../da/df1/classArcane_1_1ItemGroupImpl.html#a33a5f944d7391f995804bbe4e526bd8a" target="_top" xlink:title="Genre du groupe. Il s&#39;agit du genre de ses éléments.">
<polygon fill="white" stroke="#666666" points="296,-206.67 166,-206.67 166,-176.67 296,-176.67 296,-206.67"/>
<text text-anchor="start" x="174" y="-194.67" font-family="Helvetica,sans-Serif" font-size="10.00">Arcane::ItemGroupImpl</text>
<text text-anchor="middle" x="231" y="-183.67" font-family="Helvetica,sans-Serif" font-size="10.00">::itemKind</text>
</a>
</g>
</g>
<!-- Node1&#45;&gt;Node21 -->
<g id="edge27_Node000001_Node000021" class="edge">
<title>Node1&#45;&gt;Node21</title>
<g id="a_edge27_Node000001_Node000021"><a xlink:title=" ">
<path fill="none" stroke="#63b8ff" d="M117.44,-224.61C133.77,-219.83 151.99,-214.5 168.94,-209.54"/>
<polygon fill="#63b8ff" stroke="#63b8ff" points="170.13,-212.84 178.74,-206.67 168.16,-206.12 170.13,-212.84"/>
</a>
</g>
</g>
<!-- Node3 -->
<g id="Node000003" class="node">
<title>Node3</title>
<g id="a_Node000003"><a xlink:href="../../da/df1/classArcane_1_1ItemGroupImpl.html#a8ed938558beb3f77d5f6fcc981807efb" target="_top" xlink:title="Invalidation des sous&#45;groupes.">
<polygon fill="white" stroke="#666666" points="843.5,-455.67 713.5,-455.67 713.5,-425.67 843.5,-425.67 843.5,-455.67"/>
<text text-anchor="start" x="721.5" y="-443.67" font-family="Helvetica,sans-Serif" font-size="10.00">Arcane::ItemGroupImpl</text>
<text text-anchor="middle" x="778.5" y="-432.67" font-family="Helvetica,sans-Serif" font-size="10.00">::_executeInvalidate</text>
</a>
</g>
</g>
<!-- Node2&#45;&gt;Node3 -->
<g id="edge2_Node000002_Node000003" class="edge">
<title>Node2&#45;&gt;Node3</title>
<g id="a_edge2_Node000002_Node000003"><a xlink:title=" ">
<path fill="none" stroke="#63b8ff" d="M243.1,-254.82C259.87,-276.56 293.79,-316.36 332,-337.67 451.12,-404.1 611.01,-427.75 703.29,-436.13"/>
<polygon fill="#63b8ff" stroke="#63b8ff" points="703.11,-439.63 713.38,-437.01 703.72,-432.65 703.11,-439.63"/>
</a>
</g>
</g>
<!-- Node4 -->
<g id="Node000004" class="node">
<title>Node4</title>
<g id="a_Node000004"><a xlink:href="../../da/df1/classArcane_1_1ItemGroupImpl.html#a8238ebed57d78c9bd20394b7d36f0807" target="_top" xlink:title="Attache un observer.">
<polygon fill="white" stroke="#666666" points="462,-328.67 332,-328.67 332,-298.67 462,-298.67 462,-328.67"/>
<text text-anchor="start" x="340" y="-316.67" font-family="Helvetica,sans-Serif" font-size="10.00">Arcane::ItemGroupImpl</text>
<text text-anchor="middle" x="397" y="-305.67" font-family="Helvetica,sans-Serif" font-size="10.00">::attachObserver</text>
</a>
</g>
</g>
<!-- Node2&#45;&gt;Node4 -->
<g id="edge3_Node000002_Node000004" class="edge">
<title>Node2&#45;&gt;Node4</title>
<g id="a_edge3_Node000002_Node000004"><a xlink:title=" ">
<path fill="none" stroke="#63b8ff" d="M265.58,-254.82C290.98,-266.28 326.04,-282.1 353.41,-294.45"/>
<polygon fill="#63b8ff" stroke="#63b8ff" points="352.19,-297.74 362.74,-298.66 355.07,-291.36 352.19,-297.74"/>
</a>
</g>
</g>
<!-- Node2&#45;&gt;Node9 -->
<g id="edge22_Node000002_Node000009" class="edge">
<title>Node2&#45;&gt;Node9</title>
<g id="a_edge22_Node000002_Node000009"><a xlink:title=" ">
<path fill="none" stroke="#63b8ff" d="M285.77,-224.52C289.57,-222.01 293.05,-219.08 296,-215.67 345.37,-158.55 273.66,-97.58 332,-49.67 442.25,40.89 513.87,-15.06 653,-46.67 756.32,-70.14 782.43,-87.19 868,-149.67 900.94,-173.72 932.05,-209.51 950.57,-232.72"/>
<polygon fill="#63b8ff" stroke="#63b8ff" points="947.87,-234.95 956.8,-240.66 953.38,-230.63 947.87,-234.95"/>
</a>
</g>
</g>
<!-- Node10 -->
<g id="Node000010" class="node">
<title>Node10</title>
<g id="a_Node000010"><a xlink:href="../../d0/d32/namespaceArcane.html#ab99a19deeb95685f959153356391a900" target="_top" xlink:title="Utilitaire pour création simplifié de ItemGroupObserverT.">
<polygon fill="white" stroke="#666666" points="868,-177.17 689,-177.17 689,-158.17 868,-158.17 868,-177.17"/>
<text text-anchor="middle" x="778.5" y="-165.17" font-family="Helvetica,sans-Serif" font-size="10.00">Arcane::newItemGroupObserverT</text>
</a>
</g>
</g>
<!-- Node2&#45;&gt;Node10 -->
<g id="edge24_Node000002_Node000010" class="edge">
<title>Node2&#45;&gt;Node10</title>
<g id="a_edge24_Node000002_Node000010"><a xlink:title=" ">
<path fill="none" stroke="#63b8ff" d="M283.38,-254.72C367.02,-276.08 535.11,-305.64 653,-238.67 677.44,-224.78 665.62,-202.27 689,-186.67 691.97,-184.69 695.1,-182.91 698.35,-181.31"/>
<polygon fill="#63b8ff" stroke="#63b8ff" points="699.96,-184.43 707.78,-177.28 697.21,-178 699.96,-184.43"/>
</a>
</g>
</g>
<!-- Node13 -->
<g id="Node000013" class="node">
<title>Node13</title>
<g id="a_Node000013"><a xlink:href="../../dd/d0a/classArcane_1_1IItemFamily.html#a5f15d92ac335c03cf5b095ab21edb3b4" target="_top" xlink:title="Créé un groupe d&#39;entités de nom name contenant les entités local_ids.">
<polygon fill="white" stroke="#666666" points="454,-224.67 340,-224.67 340,-194.67 454,-194.67 454,-224.67"/>
<text text-anchor="start" x="348" y="-212.67" font-family="Helvetica,sans-Serif" font-size="10.00">Arcane::IItemFamily</text>
<text text-anchor="middle" x="397" y="-201.67" font-family="Helvetica,sans-Serif" font-size="10.00">::createGroup</text>
</a>
</g>
</g>
<!-- Node2&#45;&gt;Node13 -->
<g id="edge14_Node000002_Node000013" class="edge">
<title>Node2&#45;&gt;Node13</title>
<g id="a_edge14_Node000002_Node000013"><a xlink:title=" ">
<path fill="none" stroke="#63b8ff" d="M296.35,-227.9C307.34,-225.89 318.78,-223.79 329.82,-221.77"/>
<polygon fill="#63b8ff" stroke="#63b8ff" points="330.61,-225.19 339.82,-219.94 329.35,-218.3 330.61,-225.19"/>
</a>
</g>
</g>
<!-- Node15 -->
<g id="Node000015" class="node">
<title>Node15</title>
<g id="a_Node000015"><a xlink:href="../../d9/d27/classArcane_1_1ItemGroup.html#a1eeecaeb70c6116ae8579eb81fb7a3ce" target="_top" xlink:title="Retourne l&#39;implémentation du groupe.">
<polygon fill="white" stroke="#666666" points="454,-176.67 340,-176.67 340,-146.67 454,-146.67 454,-176.67"/>
<text text-anchor="start" x="348" y="-164.67" font-family="Helvetica,sans-Serif" font-size="10.00">Arcane::ItemGroup::</text>
<text text-anchor="middle" x="397" y="-153.67" font-family="Helvetica,sans-Serif" font-size="10.00">internal</text>
</a>
</g>
</g>
<!-- Node2&#45;&gt;Node15 -->
<g id="edge17_Node000002_Node000015" class="edge">
<title>Node2&#45;&gt;Node15</title>
<g id="a_edge17_Node000002_Node000015"><a xlink:title=" ">
<path fill="none" stroke="#63b8ff" d="M277.97,-224.58C284.19,-221.93 290.36,-218.95 296,-215.67 314,-205.2 314,-196.14 332,-185.67 334.82,-184.03 337.77,-182.46 340.8,-180.97"/>
<polygon fill="#63b8ff" stroke="#63b8ff" points="342.39,-184.1 350.03,-176.75 339.48,-177.73 342.39,-184.1"/>
</a>
</g>
</g>
<!-- Node16 -->
<g id="Node000016" class="node">
<title>Node16</title>
<g id="a_Node000016"><a xlink:href="../../da/df1/classArcane_1_1ItemGroupImpl.html#a2508c8f159c865a226e481f0e51cc7e0" target="_top" xlink:title="Invalide le groupe.">
<polygon fill="white" stroke="#666666" points="462,-128.67 332,-128.67 332,-98.67 462,-98.67 462,-128.67"/>
<text text-anchor="start" x="340" y="-116.67" font-family="Helvetica,sans-Serif" font-size="10.00">Arcane::ItemGroupImpl</text>
<text text-anchor="middle" x="397" y="-105.67" font-family="Helvetica,sans-Serif" font-size="10.00">::invalidate</text>
</a>
</g>
</g>
<!-- Node2&#45;&gt;Node16 -->
<g id="edge18_Node000002_Node000016" class="edge">
<title>Node2&#45;&gt;Node16</title>
<g id="a_edge18_Node000002_Node000016"><a xlink:title=" ">
<path fill="none" stroke="#63b8ff" d="M283.74,-224.5C288.17,-221.98 292.35,-219.06 296,-215.67 323.97,-189.68 304.03,-163.65 332,-137.67 333.14,-136.61 334.33,-135.59 335.57,-134.62"/>
<polygon fill="#63b8ff" stroke="#63b8ff" points="337.88,-137.29 344.26,-128.83 334,-131.46 337.88,-137.29"/>
</a>
</g>
</g>
<!-- Node19 -->
<g id="Node000019" class="node">
<title>Node19</title>
<g id="a_Node000019"><a xlink:href="../../da/df1/classArcane_1_1ItemGroupImpl.html#af12d03e1a7d74dbcf10195016d102ccb" target="_top" xlink:title="Nom du groupe.">
<polygon fill="white" stroke="#666666" points="640.5,-85.67 510.5,-85.67 510.5,-55.67 640.5,-55.67 640.5,-85.67"/>
<text text-anchor="start" x="518.5" y="-73.67" font-family="Helvetica,sans-Serif" font-size="10.00">Arcane::ItemGroupImpl</text>
<text text-anchor="middle" x="575.5" y="-62.67" font-family="Helvetica,sans-Serif" font-size="10.00">::name</text>
</a>
</g>
</g>
<!-- Node2&#45;&gt;Node19 -->
<g id="edge23_Node000002_Node000019" class="edge">
<title>Node2&#45;&gt;Node19</title>
<g id="a_edge23_Node000002_Node000019"><a xlink:title=" ">
<path fill="none" stroke="#63b8ff" d="M285.23,-224.5C289.19,-221.99 292.86,-219.07 296,-215.67 335.49,-172.86 286.91,-126.53 332,-89.67 378.38,-51.75 447.82,-50.02 500.52,-56.02"/>
<polygon fill="#63b8ff" stroke="#63b8ff" points="500.14,-59.5 510.49,-57.26 501.01,-52.55 500.14,-59.5"/>
</a>
</g>
</g>
<!-- Node20 -->
<g id="Node000020" class="node">
<title>Node20</title>
<g id="a_Node000020"><a xlink:href="../../da/df1/classArcane_1_1ItemGroupImpl.html#ad45ac2a6c462b93ebcf214f4f29acda8" target="_top" xlink:title="Définit une fonction de calcul de groupe.">
<polygon fill="white" stroke="#666666" points="462,-455.67 332,-455.67 332,-425.67 462,-425.67 462,-455.67"/>
<text text-anchor="start" x="340" y="-443.67" font-family="Helvetica,sans-Serif" font-size="10.00">Arcane::ItemGroupImpl</text>
<text text-anchor="middle" x="397" y="-432.67" font-family="Helvetica,sans-Serif" font-size="10.00">::setComputeFunctor</text>
</a>
</g>
</g>
<!-- Node2&#45;&gt;Node20 -->
<g id="edge25_Node000002_Node000020" class="edge">
<title>Node2&#45;&gt;Node20</title>
<g id="a_edge25_Node000002_Node000020"><a xlink:title=" ">
<path fill="none" stroke="#63b8ff" d="M237.26,-255.09C249.19,-288 281.26,-365.81 332,-411.67 335.6,-414.92 339.63,-417.86 343.86,-420.51"/>
<polygon fill="#63b8ff" stroke="#63b8ff" points="342.34,-423.68 352.77,-425.55 345.79,-417.58 342.34,-423.68"/>
</a>
</g>
</g>
<!-- Node5 -->
<g id="Node000005" class="node">
<title>Node5</title>
<g id="a_Node000005"><a xlink:href="../../da/df1/classArcane_1_1ItemGroupImpl.html#a5cdf6f366746dff8e5d64968ff5fceeb" target="_top" xlink:title="Mise à jour forcée du flag d&#39;information de restructuration.">
<polygon fill="white" stroke="#666666" points="640.5,-321.67 510.5,-321.67 510.5,-291.67 640.5,-291.67 640.5,-321.67"/>
<text text-anchor="start" x="518.5" y="-309.67" font-family="Helvetica,sans-Serif" font-size="10.00">Arcane::ItemGroupImpl</text>
<text text-anchor="middle" x="575.5" y="-298.67" font-family="Helvetica,sans-Serif" font-size="10.00">::_updateNeedInfoFlag</text>
</a>
</g>
</g>
<!-- Node4&#45;&gt;Node5 -->
<g id="edge4_Node000004_Node000005" class="edge">
<title>Node4&#45;&gt;Node5</title>
<g id="a_edge4_Node000004_Node000005"><a xlink:title=" ">
<path fill="none" stroke="#63b8ff" d="M462.22,-311.12C474.59,-310.63 487.63,-310.11 500.29,-309.61"/>
<polygon fill="#63b8ff" stroke="#63b8ff" points="500.47,-313.11 510.33,-309.21 500.2,-306.11 500.47,-313.11"/>
</a>
</g>
</g>
<!-- Node12 -->
<g id="Node000012" class="node">
<title>Node12</title>
<g id="a_Node000012"><a xlink:href="../../d1/d2a/classArcane_1_1IItemGroupObserver.html#a6755f59445e98fa462be225ab9e31aa3" target="_top" xlink:title="Indique si l&#39;observer aura besoin d&#39;information de transition.">
<polygon fill="white" stroke="#666666" points="653,-369.67 498,-369.67 498,-339.67 653,-339.67 653,-369.67"/>
<text text-anchor="start" x="506" y="-357.67" font-family="Helvetica,sans-Serif" font-size="10.00">Arcane::IItemGroupObserver</text>
<text text-anchor="middle" x="575.5" y="-346.67" font-family="Helvetica,sans-Serif" font-size="10.00">::needInfo</text>
</a>
</g>
</g>
<!-- Node4&#45;&gt;Node12 -->
<g id="edge13_Node000004_Node000012" class="edge">
<title>Node4&#45;&gt;Node12</title>
<g id="a_edge13_Node000004_Node000012"><a xlink:title=" ">
<path fill="none" stroke="#63b8ff" d="M462.22,-328.58C474.43,-331.42 487.31,-334.41 499.81,-337.32"/>
<polygon fill="#63b8ff" stroke="#63b8ff" points="499.2,-340.77 509.74,-339.62 500.79,-333.95 499.2,-340.77"/>
</a>
</g>
</g>
<!-- Node5&#45;&gt;Node3 -->
<g id="edge7_Node000005_Node000003" class="edge">
<title>Node5&#45;&gt;Node3</title>
<g id="a_edge7_Node000005_Node000003"><a xlink:title=" ">
<path fill="none" stroke="#63b8ff" d="M640.31,-321.69C644.89,-324.23 649.19,-327.2 653,-330.67 683.62,-358.58 657.84,-389.36 689,-416.67 693.53,-420.63 698.64,-423.95 704.08,-426.73"/>
<polygon fill="#63b8ff" stroke="#63b8ff" points="702.92,-430.04 713.48,-430.9 705.77,-423.64 702.92,-430.04"/>
</a>
</g>
</g>
<!-- Node6 -->
<g id="Node000006" class="node">
<title>Node6</title>
<g id="a_Node000006"><a xlink:href="../../da/df1/classArcane_1_1ItemGroupImpl.html#a94124f41ca432bc840fff0828179dba7" target="_top" xlink:title="Invalidation des sous&#45;groupes.">
<polygon fill="white" stroke="#666666" points="843.5,-273.67 713.5,-273.67 713.5,-243.67 843.5,-243.67 843.5,-273.67"/>
<text text-anchor="start" x="721.5" y="-261.67" font-family="Helvetica,sans-Serif" font-size="10.00">Arcane::ItemGroupImpl</text>
<text text-anchor="middle" x="778.5" y="-250.67" font-family="Helvetica,sans-Serif" font-size="10.00">::_executeCompact</text>
</a>
</g>
</g>
<!-- Node5&#45;&gt;Node6 -->
<g id="edge5_Node000005_Node000006" class="edge">
<title>Node5&#45;&gt;Node6</title>
<g id="a_edge5_Node000005_Node000006"><a xlink:title=" ">
<path fill="none" stroke="#63b8ff" d="M639.55,-291.61C660.22,-286.67 683.36,-281.15 704.69,-276.05"/>
<polygon fill="#63b8ff" stroke="#63b8ff" points="705.76,-279.4 714.68,-273.67 704.14,-272.59 705.76,-279.4"/>
</a>
</g>
</g>
<!-- Node7 -->
<g id="Node000007" class="node">
<title>Node7</title>
<g id="a_Node000007"><a xlink:href="../../da/df1/classArcane_1_1ItemGroupImpl.html#a2e9cd88146b7db45bde65e9c05e8e6e4" target="_top" xlink:title="Invalidation des sous&#45;groupes.">
<polygon fill="white" stroke="#666666" points="843.5,-407.67 713.5,-407.67 713.5,-377.67 843.5,-377.67 843.5,-407.67"/>
<text text-anchor="start" x="721.5" y="-395.67" font-family="Helvetica,sans-Serif" font-size="10.00">Arcane::ItemGroupImpl</text>
<text text-anchor="middle" x="778.5" y="-384.67" font-family="Helvetica,sans-Serif" font-size="10.00">::_executeExtend</text>
</a>
</g>
</g>
<!-- Node5&#45;&gt;Node7 -->
<g id="edge6_Node000005_Node000007" class="edge">
<title>Node5&#45;&gt;Node7</title>
<g id="a_edge6_Node000005_Node000007"><a xlink:title=" ">
<path fill="none" stroke="#63b8ff" d="M635.51,-321.77C641.62,-324.33 647.57,-327.28 653,-330.67 672.73,-342.99 669.03,-356.73 689,-368.67 693.7,-371.47 698.73,-373.96 703.92,-376.16"/>
<polygon fill="#63b8ff" stroke="#63b8ff" points="702.81,-379.48 713.4,-379.82 705.33,-372.95 702.81,-379.48"/>
</a>
</g>
</g>
<!-- Node8 -->
<g id="Node000008" class="node">
<title>Node8</title>
<g id="a_Node000008"><a xlink:href="../../da/df1/classArcane_1_1ItemGroupImpl.html#a51fc74deab3691476a22e7ac0077df0b" target="_top" xlink:title="Invalidation des sous&#45;groupes.">
<polygon fill="white" stroke="#666666" points="843.5,-359.67 713.5,-359.67 713.5,-329.67 843.5,-329.67 843.5,-359.67"/>
<text text-anchor="start" x="721.5" y="-347.67" font-family="Helvetica,sans-Serif" font-size="10.00">Arcane::ItemGroupImpl</text>
<text text-anchor="middle" x="778.5" y="-336.67" font-family="Helvetica,sans-Serif" font-size="10.00">::_executeReduce</text>
</a>
</g>
</g>
<!-- Node5&#45;&gt;Node8 -->
<g id="edge8_Node000005_Node000008" class="edge">
<title>Node5&#45;&gt;Node8</title>
<g id="a_edge8_Node000005_Node000008"><a xlink:title=" ">
<path fill="none" stroke="#63b8ff" d="M640.65,-318.79C660.59,-322.57 682.75,-326.75 703.32,-330.64"/>
<polygon fill="#63b8ff" stroke="#63b8ff" points="702.79,-334.11 713.27,-332.52 704.09,-327.23 702.79,-334.11"/>
</a>
</g>
</g>
<!-- Node5&#45;&gt;Node9 -->
<g id="edge9_Node000005_Node000009" class="edge">
<title>Node5&#45;&gt;Node9</title>
<g id="a_edge9_Node000005_Node000009"><a xlink:title=" ">
<path fill="none" stroke="#63b8ff" d="M640.61,-304.73C699.96,-302.15 790.47,-296.21 868,-282.67 881.61,-280.29 896.06,-276.91 909.62,-273.33"/>
<polygon fill="#63b8ff" stroke="#63b8ff" points="910.58,-276.7 919.32,-270.71 908.75,-269.95 910.58,-276.7"/>
</a>
</g>
</g>
<!-- Node5&#45;&gt;Node10 -->
<g id="edge10_Node000005_Node000010" class="edge">
<title>Node5&#45;&gt;Node10</title>
<g id="a_edge10_Node000005_Node000010"><a xlink:title=" ">
<path fill="none" stroke="#63b8ff" d="M632.86,-291.64C640.24,-287.94 647.23,-283.35 653,-277.67 683.98,-247.13 655.81,-214.78 689,-186.67 690.8,-185.14 692.7,-183.73 694.67,-182.42"/>
<polygon fill="#63b8ff" stroke="#63b8ff" points="696.73,-185.28 703.75,-177.34 693.32,-179.17 696.73,-185.28"/>
</a>
</g>
</g>
<!-- Node11 -->
<g id="Node000011" class="node">
<title>Node11</title>
<g id="a_Node000011"><a xlink:href="../../da/df1/classArcane_1_1ItemGroupImpl.html#a301ade2bd51e61b6b6df187465984a98" target="_top" xlink:title="Groupe parent (0 si aucun)">
<polygon fill="white" stroke="#666666" points="843.5,-225.67 713.5,-225.67 713.5,-195.67 843.5,-195.67 843.5,-225.67"/>
<text text-anchor="start" x="721.5" y="-213.67" font-family="Helvetica,sans-Serif" font-size="10.00">Arcane::ItemGroupImpl</text>
<text text-anchor="middle" x="778.5" y="-202.67" font-family="Helvetica,sans-Serif" font-size="10.00">::parent</text>
</a>
</g>
</g>
<!-- Node5&#45;&gt;Node11 -->
<g id="edge11_Node000005_Node000011" class="edge">
<title>Node5&#45;&gt;Node11</title>
<g id="a_edge11_Node000005_Node000011"><a xlink:title=" ">
<path fill="none" stroke="#63b8ff" d="M627.34,-291.6C636.31,-287.8 645.24,-283.18 653,-277.67 673.31,-263.22 668.01,-248.1 689,-234.67 693.61,-231.72 698.58,-229.13 703.72,-226.85"/>
<polygon fill="#63b8ff" stroke="#63b8ff" points="705.15,-230.05 713.14,-223.09 702.55,-223.55 705.15,-230.05"/>
</a>
</g>
</g>
<!-- Node11&#45;&gt;Node9 -->
<g id="edge12_Node000011_Node000009" class="edge">
<title>Node11&#45;&gt;Node9</title>
<g id="a_edge12_Node000011_Node000009"><a xlink:title=" ">
<path fill="none" stroke="#63b8ff" d="M842.53,-225.71C859.35,-229.73 877.67,-234.1 894.97,-238.23"/>
<polygon fill="#63b8ff" stroke="#63b8ff" points="894.49,-241.72 905.03,-240.63 896.12,-234.91 894.49,-241.72"/>
</a>
</g>
</g>
<!-- Node13&#45;&gt;Node13 -->
<g id="edge15_Node000013_Node000013" class="edge">
<title>Node13&#45;&gt;Node13</title>
<g id="a_edge15_Node000013_Node000013"><a xlink:title=" ">
<path fill="none" stroke="#63b8ff" d="M367.82,-224.94C361.34,-234.07 371.06,-242.67 397,-242.67 412.4,-242.67 422.09,-239.64 426.06,-235.26"/>
<polygon fill="#63b8ff" stroke="#63b8ff" points="429.56,-234.98 426.18,-224.94 422.56,-234.9 429.56,-234.98"/>
</a>
</g>
</g>
<!-- Node14 -->
<g id="Node000014" class="node">
<title>Node14</title>
<g id="a_Node000014"><a xlink:href="../../dd/d0a/classArcane_1_1IItemFamily.html#a82f9e29c31456f198918986ac9a8b237" target="_top" xlink:title="Nom de la famille.">
<polygon fill="white" stroke="#666666" points="632.5,-229.67 518.5,-229.67 518.5,-199.67 632.5,-199.67 632.5,-229.67"/>
<text text-anchor="start" x="526.5" y="-217.67" font-family="Helvetica,sans-Serif" font-size="10.00">Arcane::IItemFamily</text>
<text text-anchor="middle" x="575.5" y="-206.67" font-family="Helvetica,sans-Serif" font-size="10.00">::name</text>
</a>
</g>
</g>
<!-- Node13&#45;&gt;Node14 -->
<g id="edge16_Node000013_Node000014" class="edge">
<title>Node13&#45;&gt;Node14</title>
<g id="a_edge16_Node000013_Node000014"><a xlink:title=" ">
<path fill="none" stroke="#63b8ff" d="M454.33,-211.26C471.45,-211.75 490.42,-212.28 508.14,-212.79"/>
<polygon fill="#63b8ff" stroke="#63b8ff" points="508.31,-216.29 518.4,-213.08 508.5,-209.3 508.31,-216.29"/>
</a>
</g>
</g>
<!-- Node17 -->
<g id="Node000017" class="node">
<title>Node17</title>
<g id="a_Node000017"><a xlink:href="../../da/df1/classArcane_1_1ItemGroupImpl.html#a01a1a3b36d0ce97f00953d621ca396d1" target="_top" xlink:title="Réactualise le groupe si nécessaire.">
<polygon fill="white" stroke="#666666" points="640.5,-181.67 510.5,-181.67 510.5,-151.67 640.5,-151.67 640.5,-181.67"/>
<text text-anchor="start" x="518.5" y="-169.67" font-family="Helvetica,sans-Serif" font-size="10.00">Arcane::ItemGroupImpl</text>
<text text-anchor="middle" x="575.5" y="-158.67" font-family="Helvetica,sans-Serif" font-size="10.00">::checkNeedUpdate</text>
</a>
</g>
</g>
<!-- Node16&#45;&gt;Node17 -->
<g id="edge19_Node000016_Node000017" class="edge">
<title>Node16&#45;&gt;Node17</title>
<g id="a_edge19_Node000016_Node000017"><a xlink:title=" ">
<path fill="none" stroke="#63b8ff" d="M448.11,-128.71C468.79,-134.92 492.93,-142.17 514.54,-148.66"/>
<polygon fill="#63b8ff" stroke="#63b8ff" points="513.68,-152.06 524.27,-151.58 515.7,-145.35 513.68,-152.06"/>
</a>
</g>
</g>
<!-- Node18 -->
<g id="Node000018" class="node">
<title>Node18</title>
<g id="a_Node000018"><a xlink:href="../../d3/d00/classArcane_1_1ITraceMng.html#aedf2055d636e0b6261dc5862cea1b786" target="_top" xlink:title="Flot pour un message de debug.">
<polygon fill="white" stroke="#666666" points="631.5,-133.67 519.5,-133.67 519.5,-103.67 631.5,-103.67 631.5,-133.67"/>
<text text-anchor="start" x="527.5" y="-121.67" font-family="Helvetica,sans-Serif" font-size="10.00">Arcane::ITraceMng::</text>
<text text-anchor="middle" x="575.5" y="-110.67" font-family="Helvetica,sans-Serif" font-size="10.00">debug</text>
</a>
</g>
</g>
<!-- Node16&#45;&gt;Node18 -->
<g id="edge20_Node000016_Node000018" class="edge">
<title>Node16&#45;&gt;Node18</title>
<g id="a_edge20_Node000016_Node000018"><a xlink:title=" ">
<path fill="none" stroke="#63b8ff" d="M462.22,-115.49C477.44,-115.92 493.68,-116.38 508.96,-116.81"/>
<polygon fill="#63b8ff" stroke="#63b8ff" points="509.26,-120.32 519.35,-117.1 509.46,-113.32 509.26,-120.32"/>
</a>
</g>
</g>
<!-- Node16&#45;&gt;Node19 -->
<g id="edge21_Node000016_Node000019" class="edge">
<title>Node16&#45;&gt;Node19</title>
<g id="a_edge21_Node000016_Node000019"><a xlink:title=" ">
<path fill="none" stroke="#63b8ff" d="M459.73,-98.63C473.7,-95.22 488.66,-91.58 502.99,-88.09"/>
<polygon fill="#63b8ff" stroke="#63b8ff" points="503.92,-91.47 512.8,-85.7 502.26,-84.66 503.92,-91.47"/>
</a>
</g>
</g>
</g>
</svg>

<g id="navigator" transform="translate(0 0)" fill="#404254">
  <rect fill="#f2f5e9" fill-opacity="0.5" stroke="#606060" stroke-width=".5" x="0" y="0" width="60" height="60"/>
  <use id="zoomplus" xlink:href="#zoomPlus" x="17" y="9" onmousedown="handleZoom(evt,'in')"/>
  <use id="zoomminus" xlink:href="#zoomMin" x="42" y="9" onmousedown="handleZoom(evt,'out')"/>
  <use id="reset" xlink:href="#resetDef" x="30" y="36" onmousedown="handleReset()"/>
   <use id="arrowup" xlink:href="#arrowUp" x="0" y="0" onmousedown="handlePan(0,-1)"/>
  <use id="arrowright" xlink:href="#arrowRight" x="0" y="0" onmousedown="handlePan(1,0)"/>
  <use id="arrowdown" xlink:href="#arrowDown" x="0" y="0" onmousedown="handlePan(0,1)"/>
  <use id="arrowleft" xlink:href="#arrowLeft" x="0" y="0" onmousedown="handlePan(-1,0)"/>
</g>
<svg viewBox="0 0 15 15" width="100%" height="30px" preserveAspectRatio="xMaxYMin meet">
 <g id="arrow_out" transform="scale(0.3 0.3)">
  <a xlink:href="classArcane_1_1ItemGroupImpl_a0247d78ac226a89d04af9ef48786848f_cgraph_org.svg" target="_base">
   <rect id="button" ry="5" rx="5" y="6" x="6" height="38" width="38"
        fill="#f2f5e9" fill-opacity="0.5" stroke="#606060" stroke-width="1.0"/>
   <path id="arrow"
     d="M 11.500037,31.436501 C 11.940474,20.09759 22.043105,11.32322 32.158766,21.979434 L 37.068811,17.246167 C 37.068811,17.246167 37.088388,32 37.088388,32 L 22.160133,31.978069 C 22.160133,31.978069 26.997745,27.140456 26.997745,27.140456 C 18.528582,18.264221 13.291696,25.230495 11.500037,31.436501 z"
     style="fill:#404040;"/>
  </a>
 </g>
</svg>

<style type='text/css'>
<![CDATA[
[data-mouse-over-selected='false'] { opacity: 0.7; }
[data-mouse-over-selected='true']  { opacity: 1.0; }
]]>
</style>
<script type="application/ecmascript"><![CDATA[
document.addEventListener('DOMContentLoaded', (event) => {
  highlightEdges();
  highlightAdjacentNodes();
});
]]></script>
</svg>
