<?xml version="1.0" encoding="UTF-8" standalone="no"?>
<!DOCTYPE svg PUBLIC "-//W3C//DTD SVG 1.1//EN"
 "http://www.w3.org/Graphics/SVG/1.1/DTD/svg11.dtd">
<!-- Generated by graphviz version 14.1.2 (0)
 -->
<!-- Title: ExceptionUtils.h Pages: 1 -->
<svg width="325pt" height="86pt"
 viewBox="0.00 0.00 325.00 86.00" xmlns="http://www.w3.org/2000/svg" xmlns:xlink="http://www.w3.org/1999/xlink">
<g id="graph0" class="graph" transform="scale(1 1) rotate(0) translate(4 81.5)">
<title>ExceptionUtils.h</title>
<!-- Node1 -->
<g id="Node000001" class="node">
<title>Node1</title>
<g id="a_Node000001"><a xlink:title="Utility functions for exception handling.">
<polygon fill="#999999" stroke="#666666" points="193.5,-77.5 98,-77.5 98,-56.75 193.5,-56.75 193.5,-77.5"/>
<text xml:space="preserve" text-anchor="middle" x="145.75" y="-64" font-family="Helvetica,sans-Serif" font-size="10.00">ExceptionUtils.h</text>
</a>
</g>
</g>
<!-- Node2 -->
<g id="Node000002" class="node">
<title>Node2</title>
<g id="a_Node000002"><a xlink:href="../../dc/d7a/arcane_2src_2arcane_2utils_2Exception_8cc_source.html" target="_top" xlink:title=" ">
<polygon fill="white" stroke="#666666" points="77.5,-20.75 0,-20.75 0,0 77.5,0 77.5,-20.75"/>
<text xml:space="preserve" text-anchor="middle" x="38.75" y="-7.25" font-family="Helvetica,sans-Serif" font-size="10.00">Exception.cc</text>
</a>
</g>
</g>
<!-- Node1&#45;&gt;Node2 -->
<g id="edge1_Node000001_Node000002" class="edge">
<title>Node1&#45;&gt;Node2</title>
<g id="a_edge1_Node000001_Node000002"><a xlink:title=" ">
<path fill="none" stroke="#63b8ff" d="M116.54,-51.18C97.8,-41.59 74.02,-29.42 57.71,-21.08"/>
<polygon fill="#63b8ff" stroke="#63b8ff" points="114.78,-54.21 125.27,-55.65 117.97,-47.98 114.78,-54.21"/>
</a>
</g>
</g>
<!-- Node3 -->
<g id="Node000003" class="node">
<title>Node3</title>
<g id="a_Node000003"><a xlink:href="../../da/dc3/ExceptionUtils_8cc_source.html" target="_top" xlink:title=" ">
<polygon fill="white" stroke="#666666" points="195.75,-20.75 95.75,-20.75 95.75,0 195.75,0 195.75,-20.75"/>
<text xml:space="preserve" text-anchor="middle" x="145.75" y="-7.25" font-family="Helvetica,sans-Serif" font-size="10.00">ExceptionUtils.cc</text>
</a>
</g>
</g>
<!-- Node1&#45;&gt;Node3 -->
<g id="edge2_Node000001_Node000003" class="edge">
<title>Node1&#45;&gt;Node3</title>
<g id="a_edge2_Node000001_Node000003"><a xlink:title=" ">
<path fill="none" stroke="#63b8ff" d="M145.75,-44.88C145.75,-36.66 145.75,-27.68 145.75,-21.08"/>
<polygon fill="#63b8ff" stroke="#63b8ff" points="142.25,-44.82 145.75,-54.82 149.25,-44.82 142.25,-44.82"/>
</a>
</g>
</g>
<!-- Node4 -->
<g id="Node000004" class="node">
<title>Node4</title>
<g id="a_Node000004"><a xlink:href="../../dc/d68/RuntimeLoader_8cc_source.html" target="_top" xlink:title=" ">
<polygon fill="white" stroke="#666666" points="317.25,-20.75 214.25,-20.75 214.25,0 317.25,0 317.25,-20.75"/>
<text xml:space="preserve" text-anchor="middle" x="265.75" y="-7.25" font-family="Helvetica,sans-Serif" font-size="10.00">RuntimeLoader.cc</text>
</a>
</g>
</g>
<!-- Node1&#45;&gt;Node4 -->
<g id="edge3_Node000001_Node000004" class="edge">
<title>Node1&#45;&gt;Node4</title>
<g id="a_edge3_Node000001_Node000004"><a xlink:title=" ">
<path fill="none" stroke="#63b8ff" d="M177.63,-51.58C198.78,-41.93 225.94,-29.54 244.48,-21.08"/>
<polygon fill="#63b8ff" stroke="#63b8ff" points="176.23,-48.37 168.58,-55.71 179.13,-54.74 176.23,-48.37"/>
</a>
</g>
</g>
</g>
</svg>
