<?xml version="1.0" encoding="UTF-8" standalone="no"?>
<!DOCTYPE svg PUBLIC "-//W3C//DTD SVG 1.1//EN"
 "http://www.w3.org/Graphics/SVG/1.1/DTD/svg11.dtd">
<!-- Generated by graphviz version 2.43.0 (0)
 -->
<!-- Title: Arcane::Real2Proxy::operator== Pages: 1 -->
<svg width="597pt" height="38pt"
 viewBox="0.00 0.00 597.00 38.00" xmlns="http://www.w3.org/2000/svg" xmlns:xlink="http://www.w3.org/1999/xlink">
<g id="graph0" class="graph" transform="scale(1 1) rotate(0) translate(4 34)">
<title>Arcane::Real2Proxy::operator==</title>
<!-- Node1 -->
<g id="Node000001" class="node">
<title>Node1</title>
<g id="a_Node000001"><a xlink:title="Compare le couple à b.">
<polygon fill="#999999" stroke="#666666" points="112,-30 0,-30 0,0 112,0 112,-30"/>
<text text-anchor="start" x="8" y="-18" font-family="Helvetica,sans-Serif" font-size="10.00">Arcane::Real2Proxy</text>
<text text-anchor="middle" x="56" y="-7" font-family="Helvetica,sans-Serif" font-size="10.00">::operator==</text>
</a>
</g>
</g>
<!-- Node2 -->
<g id="Node000002" class="node">
<title>Node2</title>
<g id="a_Node000002"><a xlink:href="../../de/df9/classArcane_1_1Real2Proxy.html#ae4d8fe9c3b128c95198347ae843fd361" target="_top" xlink:title="Compare les valeurs de a et b avec le comparateur TypeEqualT.">
<polygon fill="white" stroke="#666666" points="282,-24.5 148,-24.5 148,-5.5 282,-5.5 282,-24.5"/>
<text text-anchor="middle" x="215" y="-12.5" font-family="Helvetica,sans-Serif" font-size="10.00">Arcane::Real2Proxy::_eq</text>
</a>
</g>
</g>
<!-- Node1&#45;&gt;Node2 -->
<g id="edge1_Node000001_Node000002" class="edge">
<title>Node1&#45;&gt;Node2</title>
<g id="a_edge1_Node000001_Node000002"><a xlink:title=" ">
<path fill="none" stroke="#63b8ff" d="M112.35,-15C120.6,-15 129.22,-15 137.81,-15"/>
<polygon fill="#63b8ff" stroke="#63b8ff" points="137.85,-18.5 147.85,-15 137.85,-11.5 137.85,-18.5"/>
</a>
</g>
</g>
<!-- Node3 -->
<g id="Node000003" class="node">
<title>Node3</title>
<g id="a_Node000003"><a xlink:href="../../d8/d68/namespaceArcane_1_1math.html#ae2c63a73c91796ed047b0071eadbdbbc" target="_top" xlink:title="Teste l&#39;égalité bit à bit entre deux valeurs.">
<polygon fill="white" stroke="#666666" points="441,-24.5 318,-24.5 318,-5.5 441,-5.5 441,-24.5"/>
<text text-anchor="middle" x="379.5" y="-12.5" font-family="Helvetica,sans-Serif" font-size="10.00">Arcane::math::isEqual</text>
</a>
</g>
</g>
<!-- Node2&#45;&gt;Node3 -->
<g id="edge2_Node000002_Node000003" class="edge">
<title>Node2&#45;&gt;Node3</title>
<g id="a_edge2_Node000002_Node000003"><a xlink:title=" ">
<path fill="none" stroke="#63b8ff" d="M282.09,-15C290.53,-15 299.19,-15 307.69,-15"/>
<polygon fill="#63b8ff" stroke="#63b8ff" points="307.96,-18.5 317.96,-15 307.96,-11.5 307.96,-18.5"/>
</a>
</g>
</g>
<!-- Node4 -->
<g id="Node000004" class="node">
<title>Node4</title>
<g id="a_Node000004"><a xlink:href="../../da/d09/classArcane_1_1TypeEqualT.html#a903cb29e459b3da9710ce484a5b31545" target="_top" xlink:title="Compare a à b.">
<polygon fill="white" stroke="#666666" points="589,-30 477,-30 477,0 589,0 589,-30"/>
<text text-anchor="start" x="485" y="-18" font-family="Helvetica,sans-Serif" font-size="10.00">Arcane::TypeEqualT</text>
<text text-anchor="middle" x="533" y="-7" font-family="Helvetica,sans-Serif" font-size="10.00">::isEqual</text>
</a>
</g>
</g>
<!-- Node3&#45;&gt;Node4 -->
<g id="edge3_Node000003_Node000004" class="edge">
<title>Node3&#45;&gt;Node4</title>
<g id="a_edge3_Node000003_Node000004"><a xlink:title=" ">
<path fill="none" stroke="#63b8ff" d="M441.25,-15C449.56,-15 458.12,-15 466.51,-15"/>
<polygon fill="#63b8ff" stroke="#63b8ff" points="466.63,-18.5 476.63,-15 466.63,-11.5 466.63,-18.5"/>
</a>
</g>
</g>
</g>
</svg>
