<?xml version="1.0" encoding="UTF-8" standalone="no"?>
<!DOCTYPE svg PUBLIC "-//W3C//DTD SVG 1.1//EN"
 "http://www.w3.org/Graphics/SVG/1.1/DTD/svg11.dtd">
<!-- Generated by graphviz version 2.43.0 (0)
 -->
<!-- Title: Arcane::Accelerator::MemoryCopyArgs Pages: 1 -->
<svg width="342pt" height="1345pt"
 viewBox="0.00 0.00 342.00 1345.00" xmlns="http://www.w3.org/2000/svg" xmlns:xlink="http://www.w3.org/1999/xlink">
<g id="graph0" class="graph" transform="scale(1 1) rotate(0) translate(4 1341)">
<title>Arcane::Accelerator::MemoryCopyArgs</title>
<!-- Node1 -->
<g id="Node000001" class="node">
<title>Node1</title>
<g id="a_Node000001"><a xlink:title="Arguments pour la copie mémoire.">
<polygon fill="#999999" stroke="transparent" points="222,-195 106,-195 106,0 222,0 222,-195"/>
<text text-anchor="start" x="116" y="-182.5" font-family="Helvetica,sans-Serif" font-size="10.00">Arcane::Accelerator</text>
<text text-anchor="start" x="117" y="-171.5" font-family="Helvetica,sans-Serif" font-size="10.00">::MemoryCopyArgs</text>
<text text-anchor="start" x="112.5" y="-156.5" font-family="Helvetica,sans-Serif" font-size="10.00">&#45;</text>
<text text-anchor="start" x="123" y="-156.5" font-family="Helvetica,sans-Serif" font-size="10.00">m_is_async</text>
<text text-anchor="start" x="110" y="-141.5" font-family="Helvetica,sans-Serif" font-size="10.00">+</text>
<text text-anchor="start" x="123" y="-141.5" font-family="Helvetica,sans-Serif" font-size="10.00">MemoryCopyArgs()</text>
<text text-anchor="start" x="110" y="-126.5" font-family="Helvetica,sans-Serif" font-size="10.00">+</text>
<text text-anchor="start" x="123" y="-126.5" font-family="Helvetica,sans-Serif" font-size="10.00">MemoryCopyArgs()</text>
<text text-anchor="start" x="110" y="-111.5" font-family="Helvetica,sans-Serif" font-size="10.00">+</text>
<text text-anchor="start" x="123" y="-111.5" font-family="Helvetica,sans-Serif" font-size="10.00">MemoryCopyArgs()</text>
<text text-anchor="start" x="110" y="-96.5" font-family="Helvetica,sans-Serif" font-size="10.00">+</text>
<text text-anchor="start" x="123" y="-96.5" font-family="Helvetica,sans-Serif" font-size="10.00">addAsync()</text>
<text text-anchor="start" x="110" y="-81.5" font-family="Helvetica,sans-Serif" font-size="10.00">+</text>
<text text-anchor="start" x="123" y="-81.5" font-family="Helvetica,sans-Serif" font-size="10.00">addAsync()</text>
<text text-anchor="start" x="110" y="-66.5" font-family="Helvetica,sans-Serif" font-size="10.00">+</text>
<text text-anchor="start" x="123" y="-66.5" font-family="Helvetica,sans-Serif" font-size="10.00">source()</text>
<text text-anchor="start" x="110" y="-51.5" font-family="Helvetica,sans-Serif" font-size="10.00">+</text>
<text text-anchor="start" x="123" y="-51.5" font-family="Helvetica,sans-Serif" font-size="10.00">destination()</text>
<text text-anchor="start" x="110" y="-36.5" font-family="Helvetica,sans-Serif" font-size="10.00">+</text>
<text text-anchor="start" x="123" y="-36.5" font-family="Helvetica,sans-Serif" font-size="10.00">isAsync()</text>
<text text-anchor="start" x="112.5" y="-21.5" font-family="Helvetica,sans-Serif" font-size="10.00">&#45;</text>
<text text-anchor="start" x="123" y="-21.5" font-family="Helvetica,sans-Serif" font-size="10.00">_toSpan()</text>
<text text-anchor="start" x="112.5" y="-6.5" font-family="Helvetica,sans-Serif" font-size="10.00">&#45;</text>
<text text-anchor="start" x="123" y="-6.5" font-family="Helvetica,sans-Serif" font-size="10.00">_toSpan()</text>
<polygon fill="#666666" stroke="#666666" points="106,-166.5 106,-166.5 222,-166.5 222,-166.5 106,-166.5"/>
<polygon fill="#666666" stroke="#666666" points="106,-151.5 106,-151.5 121,-151.5 121,-151.5 106,-151.5"/>
<polygon fill="#666666" stroke="#666666" points="121,-151.5 121,-151.5 222,-151.5 222,-151.5 121,-151.5"/>
<polygon fill="none" stroke="#666666" points="106,0 106,-195 222,-195 222,0 106,0"/>
</a>
</g>
</g>
<!-- Node2 -->
<g id="Node000002" class="node">
<title>Node2</title>
<g id="a_Node000002"><a xlink:href="../../d3/d23/classArcane_1_1ConstMemoryView.html" target="_top" xlink:title="Vue constante sur une zone mémoire contigue contenant des éléments de taille fixe.">
<polygon fill="white" stroke="transparent" points="149.5,-508.5 6.5,-508.5 6.5,-264.5 149.5,-264.5 149.5,-508.5"/>
<text text-anchor="start" x="12" y="-496.5" font-family="Helvetica,sans-Serif" font-size="10.00">Arcane::ConstMemoryView</text>
<text text-anchor="start" x="15" y="-481.5" font-family="Helvetica,sans-Serif" font-size="10.00">+</text>
<text text-anchor="start" x="32" y="-481.5" font-family="Helvetica,sans-Serif" font-size="10.00">MutableMemoryView</text>
<text text-anchor="start" x="17.5" y="-466.5" font-family="Helvetica,sans-Serif" font-size="10.00">&#45;</text>
<text text-anchor="start" x="32" y="-466.5" font-family="Helvetica,sans-Serif" font-size="10.00">m_nb_element</text>
<text text-anchor="start" x="17.5" y="-451.5" font-family="Helvetica,sans-Serif" font-size="10.00">&#45;</text>
<text text-anchor="start" x="32" y="-451.5" font-family="Helvetica,sans-Serif" font-size="10.00">m_datatype_size</text>
<text text-anchor="start" x="15" y="-436.5" font-family="Helvetica,sans-Serif" font-size="10.00">+</text>
<text text-anchor="start" x="32" y="-436.5" font-family="Helvetica,sans-Serif" font-size="10.00">ConstMemoryView()</text>
<text text-anchor="start" x="15" y="-421.5" font-family="Helvetica,sans-Serif" font-size="10.00">+</text>
<text text-anchor="start" x="32" y="-421.5" font-family="Helvetica,sans-Serif" font-size="10.00">ConstMemoryView()</text>
<text text-anchor="start" x="15" y="-406.5" font-family="Helvetica,sans-Serif" font-size="10.00">+</text>
<text text-anchor="start" x="32" y="-406.5" font-family="Helvetica,sans-Serif" font-size="10.00">ConstMemoryView()</text>
<text text-anchor="start" x="15" y="-391.5" font-family="Helvetica,sans-Serif" font-size="10.00">+</text>
<text text-anchor="start" x="32" y="-391.5" font-family="Helvetica,sans-Serif" font-size="10.00">ConstMemoryView()</text>
<text text-anchor="start" x="15" y="-376.5" font-family="Helvetica,sans-Serif" font-size="10.00">+</text>
<text text-anchor="start" x="32" y="-376.5" font-family="Helvetica,sans-Serif" font-size="10.00">ConstMemoryView()</text>
<text text-anchor="start" x="15" y="-361.5" font-family="Helvetica,sans-Serif" font-size="10.00">+</text>
<text text-anchor="start" x="32" y="-361.5" font-family="Helvetica,sans-Serif" font-size="10.00">ConstMemoryView()</text>
<text text-anchor="start" x="15" y="-346.5" font-family="Helvetica,sans-Serif" font-size="10.00">+</text>
<text text-anchor="start" x="32" y="-346.5" font-family="Helvetica,sans-Serif" font-size="10.00">ConstMemoryView()</text>
<text text-anchor="start" x="15" y="-331.5" font-family="Helvetica,sans-Serif" font-size="10.00">+</text>
<text text-anchor="start" x="32" y="-331.5" font-family="Helvetica,sans-Serif" font-size="10.00">ConstMemoryView()</text>
<text text-anchor="start" x="15" y="-316.5" font-family="Helvetica,sans-Serif" font-size="10.00">+</text>
<text text-anchor="start" x="32" y="-316.5" font-family="Helvetica,sans-Serif" font-size="10.00">ConstMemoryView()</text>
<text text-anchor="start" x="15" y="-301.5" font-family="Helvetica,sans-Serif" font-size="10.00">+</text>
<text text-anchor="start" x="32" y="-301.5" font-family="Helvetica,sans-Serif" font-size="10.00">ConstMemoryView()</text>
<text text-anchor="start" x="32" y="-286.5" font-family="Helvetica,sans-Serif" font-size="10.00">et 8 de plus...</text>
<text text-anchor="start" x="17.5" y="-271.5" font-family="Helvetica,sans-Serif" font-size="10.00">&#45;</text>
<text text-anchor="start" x="32" y="-271.5" font-family="Helvetica,sans-Serif" font-size="10.00">ConstMemoryView()</text>
<polygon fill="#666666" stroke="#666666" points="7,-491.5 7,-491.5 150,-491.5 150,-491.5 7,-491.5"/>
<polygon fill="#666666" stroke="#666666" points="7,-446.5 7,-446.5 30,-446.5 30,-446.5 7,-446.5"/>
<polygon fill="#666666" stroke="#666666" points="30,-446.5 30,-446.5 150,-446.5 150,-446.5 30,-446.5"/>
<polygon fill="none" stroke="#666666" points="6.5,-264.5 6.5,-508.5 149.5,-508.5 149.5,-264.5 6.5,-264.5"/>
</a>
</g>
</g>
<!-- Node2&#45;&gt;Node1 -->
<g id="edge1_Node000001_Node000002" class="edge">
<title>Node2&#45;&gt;Node1</title>
<g id="a_edge1_Node000001_Node000002"><a xlink:title=" ">
<path fill="none" stroke="#63b8ff" d="M114.35,-264.2C120.08,-245.07 125.97,-225.4 131.61,-206.6"/>
<polygon fill="none" stroke="#63b8ff" points="131.64,-206.51 129.53,-199.61 135.08,-195.01 137.19,-201.91 131.64,-206.51"/>
</a>
</g>
<text text-anchor="middle" x="156.5" y="-216" font-family="Helvetica,sans-Serif" font-size="10.00" fill="grey"> &#45;m_source</text>
</g>
<!-- Node3 -->
<g id="Node000003" class="node">
<title>Node3</title>
<g id="a_Node000003"><a xlink:href="../../d2/d5e/classArcane_1_1Span.html" target="_top" xlink:title=" ">
<polygon fill="white" stroke="transparent" points="134,-848 22,-848 22,-578 134,-578 134,-848"/>
<text text-anchor="start" x="27" y="-836" font-family="Helvetica,sans-Serif" font-size="10.00">Arcane::Span&lt; const</text>
<text text-anchor="start" x="49" y="-825" font-family="Helvetica,sans-Serif" font-size="10.00"> std::byte &gt;</text>
<text text-anchor="start" x="76" y="-810" font-family="Helvetica,sans-Serif" font-size="10.00"> </text>
<text text-anchor="start" x="30.5" y="-795" font-family="Helvetica,sans-Serif" font-size="10.00">+</text>
<text text-anchor="start" x="48" y="-795" font-family="Helvetica,sans-Serif" font-size="10.00">Span()</text>
<text text-anchor="start" x="30.5" y="-780" font-family="Helvetica,sans-Serif" font-size="10.00">+</text>
<text text-anchor="start" x="48" y="-780" font-family="Helvetica,sans-Serif" font-size="10.00">Span()</text>
<text text-anchor="start" x="30.5" y="-765" font-family="Helvetica,sans-Serif" font-size="10.00">+</text>
<text text-anchor="start" x="48" y="-765" font-family="Helvetica,sans-Serif" font-size="10.00">Span()</text>
<text text-anchor="start" x="30.5" y="-750" font-family="Helvetica,sans-Serif" font-size="10.00">+</text>
<text text-anchor="start" x="48" y="-750" font-family="Helvetica,sans-Serif" font-size="10.00">Span()</text>
<text text-anchor="start" x="30.5" y="-735" font-family="Helvetica,sans-Serif" font-size="10.00">+</text>
<text text-anchor="start" x="48" y="-735" font-family="Helvetica,sans-Serif" font-size="10.00">Span()</text>
<text text-anchor="start" x="30.5" y="-720" font-family="Helvetica,sans-Serif" font-size="10.00">+</text>
<text text-anchor="start" x="48" y="-720" font-family="Helvetica,sans-Serif" font-size="10.00">Span()</text>
<text text-anchor="start" x="30.5" y="-705" font-family="Helvetica,sans-Serif" font-size="10.00">+</text>
<text text-anchor="start" x="48" y="-705" font-family="Helvetica,sans-Serif" font-size="10.00">Span()</text>
<text text-anchor="start" x="30.5" y="-690" font-family="Helvetica,sans-Serif" font-size="10.00">+</text>
<text text-anchor="start" x="48" y="-690" font-family="Helvetica,sans-Serif" font-size="10.00">Span()</text>
<text text-anchor="start" x="30.5" y="-675" font-family="Helvetica,sans-Serif" font-size="10.00">+</text>
<text text-anchor="start" x="48" y="-675" font-family="Helvetica,sans-Serif" font-size="10.00">Span()</text>
<text text-anchor="start" x="30.5" y="-660" font-family="Helvetica,sans-Serif" font-size="10.00">+</text>
<text text-anchor="start" x="48" y="-660" font-family="Helvetica,sans-Serif" font-size="10.00">operator=()</text>
<text text-anchor="start" x="48" y="-645" font-family="Helvetica,sans-Serif" font-size="10.00">et 58 de plus...</text>
<text text-anchor="start" x="30.5" y="-630" font-family="Helvetica,sans-Serif" font-size="10.00">+</text>
<text text-anchor="start" x="48" y="-630" font-family="Helvetica,sans-Serif" font-size="10.00">create()</text>
<text text-anchor="start" x="30.5" y="-615" font-family="Helvetica,sans-Serif" font-size="10.00">+</text>
<text text-anchor="start" x="48" y="-615" font-family="Helvetica,sans-Serif" font-size="10.00">create()</text>
<text text-anchor="start" x="30.5" y="-600" font-family="Helvetica,sans-Serif" font-size="10.00">+</text>
<text text-anchor="start" x="48" y="-600" font-family="Helvetica,sans-Serif" font-size="10.00">create()</text>
<text text-anchor="start" x="30.5" y="-585" font-family="Helvetica,sans-Serif" font-size="10.00">+</text>
<text text-anchor="start" x="48" y="-585" font-family="Helvetica,sans-Serif" font-size="10.00">create()</text>
<polygon fill="#666666" stroke="#666666" points="22,-820 22,-820 134,-820 134,-820 22,-820"/>
<polygon fill="#666666" stroke="#666666" points="22,-805 22,-805 134,-805 134,-805 22,-805"/>
<polygon fill="none" stroke="#666666" points="22,-578 22,-848 134,-848 134,-578 22,-578"/>
</a>
</g>
</g>
<!-- Node3&#45;&gt;Node2 -->
<g id="edge2_Node000002_Node000003" class="edge">
<title>Node3&#45;&gt;Node2</title>
<g id="a_edge2_Node000002_Node000003"><a xlink:title=" ">
<path fill="none" stroke="#63b8ff" d="M78,-577.67C78,-558.93 78,-539.69 78,-520.96"/>
<polygon fill="none" stroke="#63b8ff" points="78,-520.75 74,-514.75 78,-508.75 82,-514.75 78,-520.75"/>
</a>
</g>
<text text-anchor="middle" x="102.5" y="-552" font-family="Helvetica,sans-Serif" font-size="10.00" fill="grey"> &#45;m_bytes</text>
</g>
<!-- Node4 -->
<g id="Node000004" class="node">
<title>Node4</title>
<g id="a_Node000004"><a xlink:href="../../df/d52/classArcane_1_1SpanImpl.html" target="_top" xlink:title="Vue d&#39;un tableau d&#39;éléments de type T.">
<polygon fill="white" stroke="transparent" points="156,-1170 0,-1170 0,-885 156,-885 156,-1170"/>
<text text-anchor="start" x="5" y="-1157.5" font-family="Helvetica,sans-Serif" font-size="10.00">Arcane::SpanImpl&lt; T,</text>
<text text-anchor="start" x="5" y="-1146.5" font-family="Helvetica,sans-Serif" font-size="10.00"> SizeType, Extent, MinValue &gt;</text>
<text text-anchor="start" x="22" y="-1131.5" font-family="Helvetica,sans-Serif" font-size="10.00">&#45;</text>
<text text-anchor="start" x="48" y="-1131.5" font-family="Helvetica,sans-Serif" font-size="10.00">m_ptr</text>
<text text-anchor="start" x="19.5" y="-1116.5" font-family="Helvetica,sans-Serif" font-size="10.00">+</text>
<text text-anchor="start" x="48" y="-1116.5" font-family="Helvetica,sans-Serif" font-size="10.00">SpanImpl()</text>
<text text-anchor="start" x="19.5" y="-1101.5" font-family="Helvetica,sans-Serif" font-size="10.00">+</text>
<text text-anchor="start" x="48" y="-1101.5" font-family="Helvetica,sans-Serif" font-size="10.00">SpanImpl()</text>
<text text-anchor="start" x="19.5" y="-1086.5" font-family="Helvetica,sans-Serif" font-size="10.00">+</text>
<text text-anchor="start" x="48" y="-1086.5" font-family="Helvetica,sans-Serif" font-size="10.00">SpanImpl()</text>
<text text-anchor="start" x="19.5" y="-1071.5" font-family="Helvetica,sans-Serif" font-size="10.00">+</text>
<text text-anchor="start" x="48" y="-1071.5" font-family="Helvetica,sans-Serif" font-size="10.00">SpanImpl()</text>
<text text-anchor="start" x="19.5" y="-1056.5" font-family="Helvetica,sans-Serif" font-size="10.00">+</text>
<text text-anchor="start" x="48" y="-1056.5" font-family="Helvetica,sans-Serif" font-size="10.00">SpanImpl()</text>
<text text-anchor="start" x="19.5" y="-1041.5" font-family="Helvetica,sans-Serif" font-size="10.00">+</text>
<text text-anchor="start" x="48" y="-1041.5" font-family="Helvetica,sans-Serif" font-size="10.00">operator=()</text>
<text text-anchor="start" x="19.5" y="-1026.5" font-family="Helvetica,sans-Serif" font-size="10.00">+</text>
<text text-anchor="start" x="48" y="-1026.5" font-family="Helvetica,sans-Serif" font-size="10.00">operator[]()</text>
<text text-anchor="start" x="19.5" y="-1011.5" font-family="Helvetica,sans-Serif" font-size="10.00">+</text>
<text text-anchor="start" x="48" y="-1011.5" font-family="Helvetica,sans-Serif" font-size="10.00">operator()()</text>
<text text-anchor="start" x="19.5" y="-996.5" font-family="Helvetica,sans-Serif" font-size="10.00">+</text>
<text text-anchor="start" x="48" y="-996.5" font-family="Helvetica,sans-Serif" font-size="10.00">item()</text>
<text text-anchor="start" x="19.5" y="-981.5" font-family="Helvetica,sans-Serif" font-size="10.00">+</text>
<text text-anchor="start" x="48" y="-981.5" font-family="Helvetica,sans-Serif" font-size="10.00">setItem()</text>
<text text-anchor="start" x="48" y="-966.5" font-family="Helvetica,sans-Serif" font-size="10.00">et 28 de plus...</text>
<text text-anchor="start" x="19.5" y="-951.5" font-family="Helvetica,sans-Serif" font-size="10.00">+</text>
<text text-anchor="start" x="48" y="-951.5" font-family="Helvetica,sans-Serif" font-size="10.00">create()</text>
<text text-anchor="start" x="19.5" y="-936.5" font-family="Helvetica,sans-Serif" font-size="10.00">#</text>
<text text-anchor="start" x="48" y="-936.5" font-family="Helvetica,sans-Serif" font-size="10.00">_setArray()</text>
<text text-anchor="start" x="19.5" y="-921.5" font-family="Helvetica,sans-Serif" font-size="10.00">#</text>
<text text-anchor="start" x="48" y="-921.5" font-family="Helvetica,sans-Serif" font-size="10.00">_setPtr()</text>
<text text-anchor="start" x="19.5" y="-906.5" font-family="Helvetica,sans-Serif" font-size="10.00">#</text>
<text text-anchor="start" x="48" y="-906.5" font-family="Helvetica,sans-Serif" font-size="10.00">_setSize()</text>
<text text-anchor="start" x="22" y="-891.5" font-family="Helvetica,sans-Serif" font-size="10.00">&#45;</text>
<text text-anchor="start" x="48" y="-891.5" font-family="Helvetica,sans-Serif" font-size="10.00">_min()</text>
<polygon fill="#666666" stroke="#666666" points="0,-1141.5 0,-1141.5 156,-1141.5 156,-1141.5 0,-1141.5"/>
<polygon fill="#666666" stroke="#666666" points="0,-1126.5 0,-1126.5 46,-1126.5 46,-1126.5 0,-1126.5"/>
<polygon fill="#666666" stroke="#666666" points="46,-1126.5 46,-1126.5 156,-1126.5 156,-1126.5 46,-1126.5"/>
<polygon fill="none" stroke="#666666" points="0,-885 0,-1170 156,-1170 156,-885 0,-885"/>
</a>
</g>
</g>
<!-- Node4&#45;&gt;Node3 -->
<g id="edge3_Node000003_Node000004" class="edge">
<title>Node4&#45;&gt;Node3</title>
<g id="a_edge3_Node000003_Node000004"><a xlink:title=" ">
<path fill="none" stroke="#63b8ff" d="M78,-874.79C78,-865.84 78,-856.87 78,-848"/>
<polygon fill="none" stroke="#63b8ff" points="74.5,-874.88 78,-884.88 81.5,-874.88 74.5,-874.88"/>
</a>
</g>
</g>
<!-- Node5 -->
<g id="Node000005" class="node">
<title>Node5</title>
<g id="a_Node000005"><a xlink:href="../../de/d3d/classArcane_1_1Impl_1_1ExtentStorage.html" target="_top" xlink:title=" ">
<polygon fill="white" stroke="transparent" points="237.5,-1337 90.5,-1337 90.5,-1217 237.5,-1217 237.5,-1337"/>
<text text-anchor="start" x="96" y="-1325" font-family="Helvetica,sans-Serif" font-size="10.00">Arcane::Impl::ExtentStorage</text>
<text text-anchor="start" x="113" y="-1314" font-family="Helvetica,sans-Serif" font-size="10.00">&lt; SizeType, Extent &gt;</text>
<text text-anchor="start" x="109.5" y="-1299" font-family="Helvetica,sans-Serif" font-size="10.00">&#45;</text>
<text text-anchor="start" x="132" y="-1299" font-family="Helvetica,sans-Serif" font-size="10.00">m_size</text>
<text text-anchor="start" x="109.5" y="-1284" font-family="Helvetica,sans-Serif" font-size="10.00">&#45;</text>
<text text-anchor="start" x="132" y="-1284" font-family="Helvetica,sans-Serif" font-size="10.00">m_size</text>
<text text-anchor="start" x="107" y="-1269" font-family="Helvetica,sans-Serif" font-size="10.00">+</text>
<text text-anchor="start" x="132" y="-1269" font-family="Helvetica,sans-Serif" font-size="10.00">ExtentStorage()</text>
<text text-anchor="start" x="107" y="-1254" font-family="Helvetica,sans-Serif" font-size="10.00">+</text>
<text text-anchor="start" x="132" y="-1254" font-family="Helvetica,sans-Serif" font-size="10.00">size()</text>
<text text-anchor="start" x="107" y="-1239" font-family="Helvetica,sans-Serif" font-size="10.00">+</text>
<text text-anchor="start" x="132" y="-1239" font-family="Helvetica,sans-Serif" font-size="10.00">ExtentStorage()</text>
<text text-anchor="start" x="107" y="-1224" font-family="Helvetica,sans-Serif" font-size="10.00">+</text>
<text text-anchor="start" x="132" y="-1224" font-family="Helvetica,sans-Serif" font-size="10.00">size()</text>
<polygon fill="#666666" stroke="#666666" points="91,-1309 91,-1309 238,-1309 238,-1309 91,-1309"/>
<polygon fill="#666666" stroke="#666666" points="91,-1279 91,-1279 130,-1279 130,-1279 91,-1279"/>
<polygon fill="#666666" stroke="#666666" points="130,-1279 130,-1279 238,-1279 238,-1279 130,-1279"/>
<polygon fill="none" stroke="#666666" points="90.5,-1217 90.5,-1337 237.5,-1337 237.5,-1217 90.5,-1217"/>
</a>
</g>
</g>
<!-- Node5&#45;&gt;Node4 -->
<g id="edge4_Node000004_Node000005" class="edge">
<title>Node5&#45;&gt;Node4</title>
<g id="a_edge4_Node000004_Node000005"><a xlink:title=" ">
<path fill="none" stroke="#63b8ff" d="M143.4,-1216.72C139.6,-1205.77 135.47,-1193.89 131.2,-1181.59"/>
<polygon fill="none" stroke="#63b8ff" points="131.18,-1181.54 125.43,-1177.18 127.24,-1170.2 132.99,-1174.56 131.18,-1181.54"/>
</a>
</g>
<text text-anchor="middle" x="158" y="-1191" font-family="Helvetica,sans-Serif" font-size="10.00" fill="grey"> &#45;m_size</text>
</g>
<!-- Node8 -->
<g id="Node000008" class="node">
<title>Node8</title>
<g id="a_Node000008"><a xlink:href="../../df/d52/classArcane_1_1SpanImpl.html" target="_top" xlink:title="Vue d&#39;un tableau d&#39;éléments de type T.">
<polygon fill="white" stroke="transparent" points="330,-1170 174,-1170 174,-885 330,-885 330,-1170"/>
<text text-anchor="start" x="179" y="-1157.5" font-family="Helvetica,sans-Serif" font-size="10.00">Arcane::SpanImpl&lt; T,</text>
<text text-anchor="start" x="179" y="-1146.5" font-family="Helvetica,sans-Serif" font-size="10.00"> SizeType, Extent, MinValue &gt;</text>
<text text-anchor="start" x="196" y="-1131.5" font-family="Helvetica,sans-Serif" font-size="10.00">&#45;</text>
<text text-anchor="start" x="222" y="-1131.5" font-family="Helvetica,sans-Serif" font-size="10.00">m_ptr</text>
<text text-anchor="start" x="193.5" y="-1116.5" font-family="Helvetica,sans-Serif" font-size="10.00">+</text>
<text text-anchor="start" x="222" y="-1116.5" font-family="Helvetica,sans-Serif" font-size="10.00">SpanImpl()</text>
<text text-anchor="start" x="193.5" y="-1101.5" font-family="Helvetica,sans-Serif" font-size="10.00">+</text>
<text text-anchor="start" x="222" y="-1101.5" font-family="Helvetica,sans-Serif" font-size="10.00">SpanImpl()</text>
<text text-anchor="start" x="193.5" y="-1086.5" font-family="Helvetica,sans-Serif" font-size="10.00">+</text>
<text text-anchor="start" x="222" y="-1086.5" font-family="Helvetica,sans-Serif" font-size="10.00">SpanImpl()</text>
<text text-anchor="start" x="193.5" y="-1071.5" font-family="Helvetica,sans-Serif" font-size="10.00">+</text>
<text text-anchor="start" x="222" y="-1071.5" font-family="Helvetica,sans-Serif" font-size="10.00">SpanImpl()</text>
<text text-anchor="start" x="193.5" y="-1056.5" font-family="Helvetica,sans-Serif" font-size="10.00">+</text>
<text text-anchor="start" x="222" y="-1056.5" font-family="Helvetica,sans-Serif" font-size="10.00">SpanImpl()</text>
<text text-anchor="start" x="193.5" y="-1041.5" font-family="Helvetica,sans-Serif" font-size="10.00">+</text>
<text text-anchor="start" x="222" y="-1041.5" font-family="Helvetica,sans-Serif" font-size="10.00">operator=()</text>
<text text-anchor="start" x="193.5" y="-1026.5" font-family="Helvetica,sans-Serif" font-size="10.00">+</text>
<text text-anchor="start" x="222" y="-1026.5" font-family="Helvetica,sans-Serif" font-size="10.00">operator[]()</text>
<text text-anchor="start" x="193.5" y="-1011.5" font-family="Helvetica,sans-Serif" font-size="10.00">+</text>
<text text-anchor="start" x="222" y="-1011.5" font-family="Helvetica,sans-Serif" font-size="10.00">operator()()</text>
<text text-anchor="start" x="193.5" y="-996.5" font-family="Helvetica,sans-Serif" font-size="10.00">+</text>
<text text-anchor="start" x="222" y="-996.5" font-family="Helvetica,sans-Serif" font-size="10.00">item()</text>
<text text-anchor="start" x="193.5" y="-981.5" font-family="Helvetica,sans-Serif" font-size="10.00">+</text>
<text text-anchor="start" x="222" y="-981.5" font-family="Helvetica,sans-Serif" font-size="10.00">setItem()</text>
<text text-anchor="start" x="222" y="-966.5" font-family="Helvetica,sans-Serif" font-size="10.00">et 28 de plus...</text>
<text text-anchor="start" x="193.5" y="-951.5" font-family="Helvetica,sans-Serif" font-size="10.00">+</text>
<text text-anchor="start" x="222" y="-951.5" font-family="Helvetica,sans-Serif" font-size="10.00">create()</text>
<text text-anchor="start" x="193.5" y="-936.5" font-family="Helvetica,sans-Serif" font-size="10.00">#</text>
<text text-anchor="start" x="222" y="-936.5" font-family="Helvetica,sans-Serif" font-size="10.00">_setArray()</text>
<text text-anchor="start" x="193.5" y="-921.5" font-family="Helvetica,sans-Serif" font-size="10.00">#</text>
<text text-anchor="start" x="222" y="-921.5" font-family="Helvetica,sans-Serif" font-size="10.00">_setPtr()</text>
<text text-anchor="start" x="193.5" y="-906.5" font-family="Helvetica,sans-Serif" font-size="10.00">#</text>
<text text-anchor="start" x="222" y="-906.5" font-family="Helvetica,sans-Serif" font-size="10.00">_setSize()</text>
<text text-anchor="start" x="196" y="-891.5" font-family="Helvetica,sans-Serif" font-size="10.00">&#45;</text>
<text text-anchor="start" x="222" y="-891.5" font-family="Helvetica,sans-Serif" font-size="10.00">_min()</text>
<polygon fill="#666666" stroke="#666666" points="174,-1141.5 174,-1141.5 330,-1141.5 330,-1141.5 174,-1141.5"/>
<polygon fill="#666666" stroke="#666666" points="174,-1126.5 174,-1126.5 220,-1126.5 220,-1126.5 174,-1126.5"/>
<polygon fill="#666666" stroke="#666666" points="220,-1126.5 220,-1126.5 330,-1126.5 330,-1126.5 220,-1126.5"/>
<polygon fill="none" stroke="#666666" points="174,-885 174,-1170 330,-1170 330,-885 174,-885"/>
</a>
</g>
</g>
<!-- Node5&#45;&gt;Node8 -->
<g id="edge8_Node000008_Node000005" class="edge">
<title>Node5&#45;&gt;Node8</title>
<g id="a_edge8_Node000008_Node000005"><a xlink:title=" ">
<path fill="none" stroke="#63b8ff" d="M185.08,-1216.72C188.97,-1205.77 193.2,-1193.89 197.57,-1181.59"/>
<polygon fill="none" stroke="#63b8ff" points="197.6,-1181.51 195.84,-1174.52 201.62,-1170.2 203.38,-1177.2 197.6,-1181.51"/>
</a>
</g>
<text text-anchor="middle" x="216" y="-1191" font-family="Helvetica,sans-Serif" font-size="10.00" fill="grey"> &#45;m_size</text>
</g>
<!-- Node6 -->
<g id="Node000006" class="node">
<title>Node6</title>
<g id="a_Node000006"><a xlink:href="../../d4/d71/classArcane_1_1MutableMemoryView.html" target="_top" xlink:title="Vue modifiable sur une zone mémoire contigue contenant des éléments de taille fixe.">
<polygon fill="white" stroke="transparent" points="334,-531 168,-531 168,-242 334,-242 334,-531"/>
<text text-anchor="start" x="178.5" y="-518.5" font-family="Helvetica,sans-Serif" font-size="10.00">Arcane::MutableMemoryView</text>
<text text-anchor="start" x="174.5" y="-503.5" font-family="Helvetica,sans-Serif" font-size="10.00">&#45;</text>
<text text-anchor="start" x="185" y="-503.5" font-family="Helvetica,sans-Serif" font-size="10.00">m_nb_element</text>
<text text-anchor="start" x="174.5" y="-488.5" font-family="Helvetica,sans-Serif" font-size="10.00">&#45;</text>
<text text-anchor="start" x="185" y="-488.5" font-family="Helvetica,sans-Serif" font-size="10.00">m_datatype_size</text>
<text text-anchor="start" x="172" y="-473.5" font-family="Helvetica,sans-Serif" font-size="10.00">+</text>
<text text-anchor="start" x="185" y="-473.5" font-family="Helvetica,sans-Serif" font-size="10.00">MutableMemoryView()</text>
<text text-anchor="start" x="172" y="-458.5" font-family="Helvetica,sans-Serif" font-size="10.00">+</text>
<text text-anchor="start" x="185" y="-458.5" font-family="Helvetica,sans-Serif" font-size="10.00">MutableMemoryView()</text>
<text text-anchor="start" x="172" y="-443.5" font-family="Helvetica,sans-Serif" font-size="10.00">+</text>
<text text-anchor="start" x="185" y="-443.5" font-family="Helvetica,sans-Serif" font-size="10.00">MutableMemoryView()</text>
<text text-anchor="start" x="172" y="-428.5" font-family="Helvetica,sans-Serif" font-size="10.00">+</text>
<text text-anchor="start" x="185" y="-428.5" font-family="Helvetica,sans-Serif" font-size="10.00">MutableMemoryView()</text>
<text text-anchor="start" x="172" y="-413.5" font-family="Helvetica,sans-Serif" font-size="10.00">+</text>
<text text-anchor="start" x="185" y="-413.5" font-family="Helvetica,sans-Serif" font-size="10.00">MutableMemoryView()</text>
<text text-anchor="start" x="172" y="-398.5" font-family="Helvetica,sans-Serif" font-size="10.00">+</text>
<text text-anchor="start" x="185" y="-398.5" font-family="Helvetica,sans-Serif" font-size="10.00">MutableMemoryView()</text>
<text text-anchor="start" x="172" y="-383.5" font-family="Helvetica,sans-Serif" font-size="10.00">+</text>
<text text-anchor="start" x="185" y="-383.5" font-family="Helvetica,sans-Serif" font-size="10.00">operator=()</text>
<text text-anchor="start" x="172" y="-368.5" font-family="Helvetica,sans-Serif" font-size="10.00">+</text>
<text text-anchor="start" x="185" y="-368.5" font-family="Helvetica,sans-Serif" font-size="10.00">operator ConstMemoryView()</text>
<text text-anchor="start" x="172" y="-353.5" font-family="Helvetica,sans-Serif" font-size="10.00">+</text>
<text text-anchor="start" x="185" y="-353.5" font-family="Helvetica,sans-Serif" font-size="10.00">bytes()</text>
<text text-anchor="start" x="172" y="-338.5" font-family="Helvetica,sans-Serif" font-size="10.00">+</text>
<text text-anchor="start" x="185" y="-338.5" font-family="Helvetica,sans-Serif" font-size="10.00">data()</text>
<text text-anchor="start" x="172" y="-323.5" font-family="Helvetica,sans-Serif" font-size="10.00">+</text>
<text text-anchor="start" x="185" y="-323.5" font-family="Helvetica,sans-Serif" font-size="10.00">nbElement()</text>
<text text-anchor="start" x="172" y="-308.5" font-family="Helvetica,sans-Serif" font-size="10.00">+</text>
<text text-anchor="start" x="185" y="-308.5" font-family="Helvetica,sans-Serif" font-size="10.00">datatypeSize()</text>
<text text-anchor="start" x="172" y="-293.5" font-family="Helvetica,sans-Serif" font-size="10.00">+</text>
<text text-anchor="start" x="185" y="-293.5" font-family="Helvetica,sans-Serif" font-size="10.00">subView()</text>
<text text-anchor="start" x="172" y="-278.5" font-family="Helvetica,sans-Serif" font-size="10.00">+</text>
<text text-anchor="start" x="185" y="-278.5" font-family="Helvetica,sans-Serif" font-size="10.00">span()</text>
<text text-anchor="start" x="172" y="-263.5" font-family="Helvetica,sans-Serif" font-size="10.00">+</text>
<text text-anchor="start" x="185" y="-263.5" font-family="Helvetica,sans-Serif" font-size="10.00">size()</text>
<text text-anchor="start" x="174.5" y="-248.5" font-family="Helvetica,sans-Serif" font-size="10.00">&#45;</text>
<text text-anchor="start" x="185" y="-248.5" font-family="Helvetica,sans-Serif" font-size="10.00">MutableMemoryView()</text>
<polygon fill="#666666" stroke="#666666" points="168,-513.5 168,-513.5 334,-513.5 334,-513.5 168,-513.5"/>
<polygon fill="#666666" stroke="#666666" points="168,-483.5 168,-483.5 183,-483.5 183,-483.5 168,-483.5"/>
<polygon fill="#666666" stroke="#666666" points="183,-483.5 183,-483.5 334,-483.5 334,-483.5 183,-483.5"/>
<polygon fill="none" stroke="#666666" points="168,-242 168,-531 334,-531 334,-242 168,-242"/>
</a>
</g>
</g>
<!-- Node6&#45;&gt;Node1 -->
<g id="edge5_Node000001_Node000006" class="edge">
<title>Node6&#45;&gt;Node1</title>
<g id="a_edge5_Node000001_Node000006"><a xlink:title=" ">
<path fill="none" stroke="#63b8ff" d="M207.37,-241.58C203.85,-229.95 200.33,-218.33 196.9,-207.02"/>
<polygon fill="none" stroke="#63b8ff" points="196.84,-206.84 191.27,-202.25 193.36,-195.35 198.93,-199.93 196.84,-206.84"/>
</a>
</g>
<text text-anchor="middle" x="238.5" y="-216" font-family="Helvetica,sans-Serif" font-size="10.00" fill="grey"> &#45;m_destination</text>
</g>
<!-- Node7 -->
<g id="Node000007" class="node">
<title>Node7</title>
<g id="a_Node000007"><a xlink:href="../../d2/d5e/classArcane_1_1Span.html" target="_top" xlink:title=" ">
<polygon fill="white" stroke="transparent" points="304.5,-848 197.5,-848 197.5,-578 304.5,-578 304.5,-848"/>
<text text-anchor="start" x="203" y="-836" font-family="Helvetica,sans-Serif" font-size="10.00">Arcane::Span&lt; std::</text>
<text text-anchor="start" x="234.5" y="-825" font-family="Helvetica,sans-Serif" font-size="10.00">byte &gt;</text>
<text text-anchor="start" x="249.5" y="-810" font-family="Helvetica,sans-Serif" font-size="10.00"> </text>
<text text-anchor="start" x="205" y="-795" font-family="Helvetica,sans-Serif" font-size="10.00">+</text>
<text text-anchor="start" x="221" y="-795" font-family="Helvetica,sans-Serif" font-size="10.00">Span()</text>
<text text-anchor="start" x="205" y="-780" font-family="Helvetica,sans-Serif" font-size="10.00">+</text>
<text text-anchor="start" x="221" y="-780" font-family="Helvetica,sans-Serif" font-size="10.00">Span()</text>
<text text-anchor="start" x="205" y="-765" font-family="Helvetica,sans-Serif" font-size="10.00">+</text>
<text text-anchor="start" x="221" y="-765" font-family="Helvetica,sans-Serif" font-size="10.00">Span()</text>
<text text-anchor="start" x="205" y="-750" font-family="Helvetica,sans-Serif" font-size="10.00">+</text>
<text text-anchor="start" x="221" y="-750" font-family="Helvetica,sans-Serif" font-size="10.00">Span()</text>
<text text-anchor="start" x="205" y="-735" font-family="Helvetica,sans-Serif" font-size="10.00">+</text>
<text text-anchor="start" x="221" y="-735" font-family="Helvetica,sans-Serif" font-size="10.00">Span()</text>
<text text-anchor="start" x="205" y="-720" font-family="Helvetica,sans-Serif" font-size="10.00">+</text>
<text text-anchor="start" x="221" y="-720" font-family="Helvetica,sans-Serif" font-size="10.00">Span()</text>
<text text-anchor="start" x="205" y="-705" font-family="Helvetica,sans-Serif" font-size="10.00">+</text>
<text text-anchor="start" x="221" y="-705" font-family="Helvetica,sans-Serif" font-size="10.00">Span()</text>
<text text-anchor="start" x="205" y="-690" font-family="Helvetica,sans-Serif" font-size="10.00">+</text>
<text text-anchor="start" x="221" y="-690" font-family="Helvetica,sans-Serif" font-size="10.00">Span()</text>
<text text-anchor="start" x="205" y="-675" font-family="Helvetica,sans-Serif" font-size="10.00">+</text>
<text text-anchor="start" x="221" y="-675" font-family="Helvetica,sans-Serif" font-size="10.00">Span()</text>
<text text-anchor="start" x="205" y="-660" font-family="Helvetica,sans-Serif" font-size="10.00">+</text>
<text text-anchor="start" x="221" y="-660" font-family="Helvetica,sans-Serif" font-size="10.00">operator=()</text>
<text text-anchor="start" x="221" y="-645" font-family="Helvetica,sans-Serif" font-size="10.00">et 58 de plus...</text>
<text text-anchor="start" x="205" y="-630" font-family="Helvetica,sans-Serif" font-size="10.00">+</text>
<text text-anchor="start" x="221" y="-630" font-family="Helvetica,sans-Serif" font-size="10.00">create()</text>
<text text-anchor="start" x="205" y="-615" font-family="Helvetica,sans-Serif" font-size="10.00">+</text>
<text text-anchor="start" x="221" y="-615" font-family="Helvetica,sans-Serif" font-size="10.00">create()</text>
<text text-anchor="start" x="205" y="-600" font-family="Helvetica,sans-Serif" font-size="10.00">+</text>
<text text-anchor="start" x="221" y="-600" font-family="Helvetica,sans-Serif" font-size="10.00">create()</text>
<text text-anchor="start" x="205" y="-585" font-family="Helvetica,sans-Serif" font-size="10.00">+</text>
<text text-anchor="start" x="221" y="-585" font-family="Helvetica,sans-Serif" font-size="10.00">create()</text>
<polygon fill="#666666" stroke="#666666" points="198,-820 198,-820 305,-820 305,-820 198,-820"/>
<polygon fill="#666666" stroke="#666666" points="198,-805 198,-805 305,-805 305,-805 198,-805"/>
<polygon fill="none" stroke="#666666" points="197.5,-578 197.5,-848 304.5,-848 304.5,-578 197.5,-578"/>
</a>
</g>
</g>
<!-- Node7&#45;&gt;Node6 -->
<g id="edge6_Node000006_Node000007" class="edge">
<title>Node7&#45;&gt;Node6</title>
<g id="a_edge6_Node000006_Node000007"><a xlink:title=" ">
<path fill="none" stroke="#63b8ff" d="M251,-577.67C251,-566.4 251,-554.95 251,-543.54"/>
<polygon fill="none" stroke="#63b8ff" points="251,-543.18 247,-537.18 251,-531.18 255,-537.18 251,-543.18"/>
</a>
</g>
<text text-anchor="middle" x="275.5" y="-552" font-family="Helvetica,sans-Serif" font-size="10.00" fill="grey"> &#45;m_bytes</text>
</g>
<!-- Node8&#45;&gt;Node7 -->
<g id="edge7_Node000007_Node000008" class="edge">
<title>Node8&#45;&gt;Node7</title>
<g id="a_edge7_Node000007_Node000008"><a xlink:title=" ">
<path fill="none" stroke="#63b8ff" d="M251.51,-874.79C251.49,-865.84 251.46,-856.87 251.43,-848"/>
<polygon fill="none" stroke="#63b8ff" points="248.01,-874.89 251.55,-884.88 255.01,-874.87 248.01,-874.89"/>
</a>
</g>
</g>
</g>
</svg>
