<?xml version="1.0" encoding="UTF-8" standalone="no"?>
<!DOCTYPE svg PUBLIC "-//W3C//DTD SVG 1.1//EN"
 "http://www.w3.org/Graphics/SVG/1.1/DTD/svg11.dtd">
<!-- Generated by graphviz version 2.43.0 (0)
 -->
<!-- Title: Arcane::PTScotchMeshPartitioner Pages: 1 -->
<!--zoomable 1720 -->

<svg id="main" version="1.1" xmlns="http://www.w3.org/2000/svg" xmlns:xlink="http://www.w3.org/1999/xlink" xml:space="preserve" onload="init(evt)">

<style type="text/css"><![CDATA[
.node, .edge {opacity: 0.7;}
.node.selected, .edge.selected {opacity: 1;}
.edge:hover path { stroke: red; }
.edge:hover polygon { stroke: red; fill: red; }
]]></style>

<defs>
  <circle id="rim" cx="0" cy="0" r="7"/>
  <circle id="rim2" cx="0" cy="0" r="3.5"/>
  <g id="zoomPlus">
    <use xlink:href="#rim" fill="#404040"><set attributeName="fill" to="#808080" begin="zoomplus.mouseover" end="zoomplus.mouseout"/></use>
    <path d="M-4,0h8M0,-4v8" fill="none" stroke="white" stroke-width="1.5" pointer-events="none"/>
  </g>
  <g id="zoomMin">
    <use xlink:href="#rim" fill="#404040"><set attributeName="fill" to="#808080" begin="zoomminus.mouseover" end="zoomminus.mouseout"/></use>
    <path d="M-4,0h8" fill="none" stroke="white" stroke-width="1.5" pointer-events="none"/>
  </g>
  <g id="arrowUp" transform="translate(30 24)">
    <use xlink:href="#rim"/>
    <path pointer-events="none" fill="none" stroke="white" stroke-width="1.5" d="M0,-3.0v7 M-2.5,-0.5L0,-3.0L2.5,-0.5"/>
  </g>
  <g id="arrowRight" transform="rotate(90) translate(36 -43)">
    <use xlink:href="#rim"/>
    <path pointer-events="none" fill="none" stroke="white" stroke-width="1.5" d="M0,-3.0v7 M-2.5,-0.5L0,-3.0L2.5,-0.5"/>
  </g>
  <g id="arrowDown" transform="rotate(180) translate(-30 -48)">
    <use xlink:href="#rim"/>
    <path pointer-events="none" fill="none" stroke="white" stroke-width="1.5" d="M0,-3.0v7 M-2.5,-0.5L0,-3.0L2.5,-0.5"/>
  </g>
  <g id="arrowLeft" transform="rotate(270) translate(-36 17)">
    <use xlink:href="#rim"/>
    <path pointer-events="none" fill="none" stroke="white" stroke-width="1.5" d="M0,-3.0v7 M-2.5,-0.5L0,-3.0L2.5,-0.5"/>
  </g>
  <g id="resetDef">
    <use xlink:href="#rim2" fill="#404040"><set attributeName="fill" to="#808080" begin="reset.mouseover" end="reset.mouseout"/></use>
  </g>
</defs>
<script type="application/ecmascript">
var viewWidth = 471;
var viewHeight = 1720;
var sectionId = 'dynsection-0';
</script>
<script type="application/ecmascript" xlink:href="../../svg.min.js"/>
<svg id="graph" class="graph">
<g id="viewport">
<title>Arcane::PTScotchMeshPartitioner</title>
<!-- Node1 -->
<g id="Node000001" class="node">
<title>Node1</title>
<g id="a_Node000001"><a xlink:title="Partitionneur de maillage utilisant la bibliothèque PtScotch.">
<polygon fill="#999999" stroke="transparent" points="371.5,-94 200.5,-94 200.5,0 371.5,0 371.5,-94"/>
<text text-anchor="start" x="206" y="-82" font-family="Helvetica,sans-Serif" font-size="10.00">Arcane::PTScotchMeshPartitioner</text>
<text text-anchor="start" x="284.5" y="-67" font-family="Helvetica,sans-Serif" font-size="10.00"> </text>
<text text-anchor="start" x="210" y="-52" font-family="Helvetica,sans-Serif" font-size="10.00">+</text>
<text text-anchor="start" x="228" y="-52" font-family="Helvetica,sans-Serif" font-size="10.00">PTScotchMeshPartitioner()</text>
<text text-anchor="start" x="210" y="-37" font-family="Helvetica,sans-Serif" font-size="10.00">+</text>
<text text-anchor="start" x="228" y="-37" font-family="Helvetica,sans-Serif" font-size="10.00">build()</text>
<text text-anchor="start" x="210" y="-22" font-family="Helvetica,sans-Serif" font-size="10.00">+</text>
<text text-anchor="start" x="228" y="-22" font-family="Helvetica,sans-Serif" font-size="10.00">partitionMesh()</text>
<text text-anchor="start" x="210" y="-7" font-family="Helvetica,sans-Serif" font-size="10.00">+</text>
<text text-anchor="start" x="228" y="-7" font-family="Helvetica,sans-Serif" font-size="10.00">partitionMesh()</text>
<polygon fill="#666666" stroke="#666666" points="201,-77 201,-77 372,-77 372,-77 201,-77"/>
<polygon fill="#666666" stroke="#666666" points="201,-62 201,-62 372,-62 372,-62 201,-62"/>
<polygon fill="none" stroke="#666666" points="200.5,0 200.5,-94 371.5,-94 371.5,0 200.5,0"/>
</a>
</g>
</g>
<!-- Node2 -->
<g id="Node000002" class="node">
<title>Node2</title>
<g id="a_Node000002"><a xlink:href="../../dc/ddc/classArcane_1_1ArcanePTScotchMeshPartitionerObject.html" target="_top" xlink:title="Generation de la classe de base du Service.">
<polygon fill="white" stroke="transparent" points="378,-272 194,-272 194,-130 378,-130 378,-272"/>
<text text-anchor="start" x="213.5" y="-260" font-family="Helvetica,sans-Serif" font-size="10.00">Arcane::ArcanePTScotchMesh</text>
<text text-anchor="start" x="245" y="-249" font-family="Helvetica,sans-Serif" font-size="10.00">PartitionerObject</text>
<text text-anchor="start" x="200.5" y="-234" font-family="Helvetica,sans-Serif" font-size="10.00">&#45;</text>
<text text-anchor="start" x="211" y="-234" font-family="Helvetica,sans-Serif" font-size="10.00">m_options</text>
<text text-anchor="start" x="198" y="-219" font-family="Helvetica,sans-Serif" font-size="10.00">+</text>
<text text-anchor="start" x="211" y="-219" font-family="Helvetica,sans-Serif" font-size="10.00">ArcanePTScotchMeshPartitioner</text>
<text text-anchor="start" x="211" y="-208" font-family="Helvetica,sans-Serif" font-size="10.00">Object()</text>
<text text-anchor="start" x="198" y="-193" font-family="Helvetica,sans-Serif" font-size="10.00">+</text>
<text text-anchor="start" x="211" y="-193" font-family="Helvetica,sans-Serif" font-size="10.00">~ArcanePTScotchMeshPartitioner</text>
<text text-anchor="start" x="211" y="-182" font-family="Helvetica,sans-Serif" font-size="10.00">Object()</text>
<text text-anchor="start" x="198" y="-167" font-family="Helvetica,sans-Serif" font-size="10.00">+</text>
<text text-anchor="start" x="211" y="-167" font-family="Helvetica,sans-Serif" font-size="10.00">options()</text>
<text text-anchor="start" x="198" y="-152" font-family="Helvetica,sans-Serif" font-size="10.00">+</text>
<text text-anchor="start" x="211" y="-152" font-family="Helvetica,sans-Serif" font-size="10.00">fillServiceInfo()</text>
<text text-anchor="start" x="200.5" y="-137" font-family="Helvetica,sans-Serif" font-size="10.00">&#45;</text>
<text text-anchor="start" x="211" y="-137" font-family="Helvetica,sans-Serif" font-size="10.00">getAxlContent()</text>
<polygon fill="#666666" stroke="#666666" points="194,-244 194,-244 378,-244 378,-244 194,-244"/>
<polygon fill="#666666" stroke="#666666" points="194,-229 194,-229 209,-229 209,-229 194,-229"/>
<polygon fill="#666666" stroke="#666666" points="209,-229 209,-229 378,-229 378,-229 209,-229"/>
<polygon fill="none" stroke="#666666" points="194,-130 194,-272 378,-272 378,-130 194,-130"/>
</a>
</g>
</g>
<!-- Node2&#45;&gt;Node1 -->
<g id="edge1_Node000001_Node000002" class="edge">
<title>Node2&#45;&gt;Node1</title>
<g id="a_edge1_Node000001_Node000002"><a xlink:title=" ">
<path fill="none" stroke="#63b8ff" d="M286,-119.53C286,-110.8 286,-102.14 286,-94.03"/>
<polygon fill="none" stroke="#63b8ff" points="282.5,-119.78 286,-129.78 289.5,-119.78 282.5,-119.78"/>
</a>
</g>
</g>
<!-- Node3 -->
<g id="Node000003" class="node">
<title>Node3</title>
<g id="a_Node000003"><a xlink:href="../../dd/d1f/classArcane_1_1MeshPartitionerBase.html" target="_top" xlink:title="Classe de base d&#39;un service d&#39;équilibrage de charge.">
<polygon fill="white" stroke="transparent" points="376.5,-912 195.5,-912 195.5,-308 376.5,-308 376.5,-912"/>
<text text-anchor="start" x="216" y="-900" font-family="Helvetica,sans-Serif" font-size="10.00">Arcane::MeshPartitionerBase</text>
<text text-anchor="start" x="200" y="-885" font-family="Helvetica,sans-Serif" font-size="10.00">#</text>
<text text-anchor="start" x="213" y="-885" font-family="Helvetica,sans-Serif" font-size="10.00">m_cell_family</text>
<text text-anchor="start" x="202.5" y="-870" font-family="Helvetica,sans-Serif" font-size="10.00">&#45;</text>
<text text-anchor="start" x="213" y="-870" font-family="Helvetica,sans-Serif" font-size="10.00">m_sub_domain</text>
<text text-anchor="start" x="202.5" y="-855" font-family="Helvetica,sans-Serif" font-size="10.00">&#45;</text>
<text text-anchor="start" x="213" y="-855" font-family="Helvetica,sans-Serif" font-size="10.00">m_mesh</text>
<text text-anchor="start" x="202.5" y="-840" font-family="Helvetica,sans-Serif" font-size="10.00">&#45;</text>
<text text-anchor="start" x="213" y="-840" font-family="Helvetica,sans-Serif" font-size="10.00">m_pm_sub</text>
<text text-anchor="start" x="202.5" y="-825" font-family="Helvetica,sans-Serif" font-size="10.00">&#45;</text>
<text text-anchor="start" x="213" y="-825" font-family="Helvetica,sans-Serif" font-size="10.00">m_lbMng</text>
<text text-anchor="start" x="202.5" y="-810" font-family="Helvetica,sans-Serif" font-size="10.00">&#45;</text>
<text text-anchor="start" x="213" y="-810" font-family="Helvetica,sans-Serif" font-size="10.00">m_lb_mng_internal</text>
<text text-anchor="start" x="202.5" y="-795" font-family="Helvetica,sans-Serif" font-size="10.00">&#45;</text>
<text text-anchor="start" x="213" y="-795" font-family="Helvetica,sans-Serif" font-size="10.00">m_maximum_computation_time</text>
<text text-anchor="start" x="202.5" y="-780" font-family="Helvetica,sans-Serif" font-size="10.00">&#45;</text>
<text text-anchor="start" x="213" y="-780" font-family="Helvetica,sans-Serif" font-size="10.00">m_imbalance</text>
<text text-anchor="start" x="202.5" y="-765" font-family="Helvetica,sans-Serif" font-size="10.00">&#45;</text>
<text text-anchor="start" x="213" y="-765" font-family="Helvetica,sans-Serif" font-size="10.00">m_max_imbalance</text>
<text text-anchor="start" x="202.5" y="-750" font-family="Helvetica,sans-Serif" font-size="10.00">&#45;</text>
<text text-anchor="start" x="213" y="-750" font-family="Helvetica,sans-Serif" font-size="10.00">m_computation_times</text>
<text text-anchor="start" x="202.5" y="-735" font-family="Helvetica,sans-Serif" font-size="10.00">&#45;</text>
<text text-anchor="start" x="213" y="-735" font-family="Helvetica,sans-Serif" font-size="10.00">m_cells_with_constraints</text>
<text text-anchor="start" x="213" y="-720" font-family="Helvetica,sans-Serif" font-size="10.00">et 6 de plus...</text>
<text text-anchor="start" x="200" y="-705" font-family="Helvetica,sans-Serif" font-size="10.00">+</text>
<text text-anchor="start" x="213" y="-705" font-family="Helvetica,sans-Serif" font-size="10.00">MeshPartitionerBase()</text>
<text text-anchor="start" x="200" y="-690" font-family="Helvetica,sans-Serif" font-size="10.00">+</text>
<text text-anchor="start" x="213" y="-690" font-family="Helvetica,sans-Serif" font-size="10.00">~MeshPartitionerBase()</text>
<text text-anchor="start" x="200" y="-675" font-family="Helvetica,sans-Serif" font-size="10.00">+</text>
<text text-anchor="start" x="213" y="-675" font-family="Helvetica,sans-Serif" font-size="10.00">subDomain()</text>
<text text-anchor="start" x="200" y="-660" font-family="Helvetica,sans-Serif" font-size="10.00">+</text>
<text text-anchor="start" x="213" y="-660" font-family="Helvetica,sans-Serif" font-size="10.00">mesh()</text>
<text text-anchor="start" x="200" y="-645" font-family="Helvetica,sans-Serif" font-size="10.00">+</text>
<text text-anchor="start" x="213" y="-645" font-family="Helvetica,sans-Serif" font-size="10.00">setMaximumComputationTime()</text>
<text text-anchor="start" x="200" y="-630" font-family="Helvetica,sans-Serif" font-size="10.00">+</text>
<text text-anchor="start" x="213" y="-630" font-family="Helvetica,sans-Serif" font-size="10.00">maximumComputationTime()</text>
<text text-anchor="start" x="200" y="-615" font-family="Helvetica,sans-Serif" font-size="10.00">+</text>
<text text-anchor="start" x="213" y="-615" font-family="Helvetica,sans-Serif" font-size="10.00">setImbalance()</text>
<text text-anchor="start" x="200" y="-600" font-family="Helvetica,sans-Serif" font-size="10.00">+</text>
<text text-anchor="start" x="213" y="-600" font-family="Helvetica,sans-Serif" font-size="10.00">imbalance()</text>
<text text-anchor="start" x="200" y="-585" font-family="Helvetica,sans-Serif" font-size="10.00">+</text>
<text text-anchor="start" x="213" y="-585" font-family="Helvetica,sans-Serif" font-size="10.00">setMaxImbalance()</text>
<text text-anchor="start" x="200" y="-570" font-family="Helvetica,sans-Serif" font-size="10.00">+</text>
<text text-anchor="start" x="213" y="-570" font-family="Helvetica,sans-Serif" font-size="10.00">maxImbalance()</text>
<text text-anchor="start" x="213" y="-555" font-family="Helvetica,sans-Serif" font-size="10.00">et 25 de plus...</text>
<text text-anchor="start" x="200" y="-540" font-family="Helvetica,sans-Serif" font-size="10.00">#</text>
<text text-anchor="start" x="213" y="-540" font-family="Helvetica,sans-Serif" font-size="10.00">dumpObject()</text>
<text text-anchor="start" x="200" y="-525" font-family="Helvetica,sans-Serif" font-size="10.00">#</text>
<text text-anchor="start" x="213" y="-525" font-family="Helvetica,sans-Serif" font-size="10.00">getCommunicator()</text>
<text text-anchor="start" x="200" y="-510" font-family="Helvetica,sans-Serif" font-size="10.00">#</text>
<text text-anchor="start" x="213" y="-510" font-family="Helvetica,sans-Serif" font-size="10.00">communicator()</text>
<text text-anchor="start" x="200" y="-495" font-family="Helvetica,sans-Serif" font-size="10.00">#</text>
<text text-anchor="start" x="213" y="-495" font-family="Helvetica,sans-Serif" font-size="10.00">cellComm()</text>
<text text-anchor="start" x="200" y="-480" font-family="Helvetica,sans-Serif" font-size="10.00">#</text>
<text text-anchor="start" x="213" y="-480" font-family="Helvetica,sans-Serif" font-size="10.00">_initArrayCellsWithConstraints()</text>
<text text-anchor="start" x="200" y="-465" font-family="Helvetica,sans-Serif" font-size="10.00">#</text>
<text text-anchor="start" x="213" y="-465" font-family="Helvetica,sans-Serif" font-size="10.00">_initFilterLidCells()</text>
<text text-anchor="start" x="200" y="-450" font-family="Helvetica,sans-Serif" font-size="10.00">#</text>
<text text-anchor="start" x="213" y="-450" font-family="Helvetica,sans-Serif" font-size="10.00">_initUidRef()</text>
<text text-anchor="start" x="200" y="-435" font-family="Helvetica,sans-Serif" font-size="10.00">#</text>
<text text-anchor="start" x="213" y="-435" font-family="Helvetica,sans-Serif" font-size="10.00">_initUidRef()</text>
<text text-anchor="start" x="200" y="-420" font-family="Helvetica,sans-Serif" font-size="10.00">#</text>
<text text-anchor="start" x="213" y="-420" font-family="Helvetica,sans-Serif" font-size="10.00">_initLid2LidCompacted()</text>
<text text-anchor="start" x="200" y="-405" font-family="Helvetica,sans-Serif" font-size="10.00">#</text>
<text text-anchor="start" x="213" y="-405" font-family="Helvetica,sans-Serif" font-size="10.00">_initNbCellsWithConstraints()</text>
<text text-anchor="start" x="200" y="-390" font-family="Helvetica,sans-Serif" font-size="10.00">#</text>
<text text-anchor="start" x="213" y="-390" font-family="Helvetica,sans-Serif" font-size="10.00">_clearCellWgt()</text>
<text text-anchor="start" x="202.5" y="-375" font-family="Helvetica,sans-Serif" font-size="10.00">&#45;</text>
<text text-anchor="start" x="213" y="-375" font-family="Helvetica,sans-Serif" font-size="10.00">_addNgb()</text>
<text text-anchor="start" x="202.5" y="-360" font-family="Helvetica,sans-Serif" font-size="10.00">&#45;</text>
<text text-anchor="start" x="213" y="-360" font-family="Helvetica,sans-Serif" font-size="10.00">_createConstraintsLists()</text>
<text text-anchor="start" x="202.5" y="-345" font-family="Helvetica,sans-Serif" font-size="10.00">&#45;</text>
<text text-anchor="start" x="213" y="-345" font-family="Helvetica,sans-Serif" font-size="10.00">_cellsProjectWeights()</text>
<text text-anchor="start" x="202.5" y="-330" font-family="Helvetica,sans-Serif" font-size="10.00">&#45;</text>
<text text-anchor="start" x="213" y="-330" font-family="Helvetica,sans-Serif" font-size="10.00">_cellsProjectWeights()</text>
<text text-anchor="start" x="202.5" y="-315" font-family="Helvetica,sans-Serif" font-size="10.00">&#45;</text>
<text text-anchor="start" x="213" y="-315" font-family="Helvetica,sans-Serif" font-size="10.00">_checkCreateVar()</text>
<polygon fill="#666666" stroke="#666666" points="196,-895 196,-895 377,-895 377,-895 196,-895"/>
<polygon fill="#666666" stroke="#666666" points="196,-715 196,-715 211,-715 211,-715 196,-715"/>
<polygon fill="#666666" stroke="#666666" points="211,-715 211,-715 377,-715 377,-715 211,-715"/>
<polygon fill="none" stroke="#666666" points="195.5,-308 195.5,-912 376.5,-912 376.5,-308 195.5,-308"/>
</a>
</g>
</g>
<!-- Node3&#45;&gt;Node2 -->
<g id="edge2_Node000002_Node000003" class="edge">
<title>Node3&#45;&gt;Node2</title>
<g id="a_edge2_Node000002_Node000003"><a xlink:title=" ">
<path fill="none" stroke="#63b8ff" d="M286,-297.66C286,-288.75 286,-280.23 286,-272.21"/>
<polygon fill="none" stroke="#63b8ff" points="282.5,-297.87 286,-307.87 289.5,-297.87 282.5,-297.87"/>
</a>
</g>
</g>
<!-- Node4 -->
<g id="Node000004" class="node">
<title>Node4</title>
<g id="a_Node000004"><a xlink:href="../../da/d61/classArcane_1_1AbstractService.html" target="_top" xlink:title="Classe de base d&#39;un service.">
<polygon fill="white" stroke="transparent" points="263.5,-1259.5 136.5,-1259.5 136.5,-1120.5 263.5,-1120.5 263.5,-1259.5"/>
<text text-anchor="start" x="142" y="-1247" font-family="Helvetica,sans-Serif" font-size="10.00">Arcane::AbstractService</text>
<text text-anchor="start" x="146.5" y="-1232" font-family="Helvetica,sans-Serif" font-size="10.00">&#45;</text>
<text text-anchor="start" x="160" y="-1232" font-family="Helvetica,sans-Serif" font-size="10.00">m_service_info</text>
<text text-anchor="start" x="146.5" y="-1217" font-family="Helvetica,sans-Serif" font-size="10.00">&#45;</text>
<text text-anchor="start" x="160" y="-1217" font-family="Helvetica,sans-Serif" font-size="10.00">m_parent</text>
<text text-anchor="start" x="144" y="-1202" font-family="Helvetica,sans-Serif" font-size="10.00">+</text>
<text text-anchor="start" x="160" y="-1202" font-family="Helvetica,sans-Serif" font-size="10.00">~AbstractService()</text>
<text text-anchor="start" x="144" y="-1187" font-family="Helvetica,sans-Serif" font-size="10.00">+</text>
<text text-anchor="start" x="160" y="-1187" font-family="Helvetica,sans-Serif" font-size="10.00">build()</text>
<text text-anchor="start" x="144" y="-1172" font-family="Helvetica,sans-Serif" font-size="10.00">+</text>
<text text-anchor="start" x="160" y="-1172" font-family="Helvetica,sans-Serif" font-size="10.00">serviceInfo()</text>
<text text-anchor="start" x="144" y="-1157" font-family="Helvetica,sans-Serif" font-size="10.00">+</text>
<text text-anchor="start" x="160" y="-1157" font-family="Helvetica,sans-Serif" font-size="10.00">serviceParent()</text>
<text text-anchor="start" x="144" y="-1142" font-family="Helvetica,sans-Serif" font-size="10.00">+</text>
<text text-anchor="start" x="160" y="-1142" font-family="Helvetica,sans-Serif" font-size="10.00">serviceInterface()</text>
<text text-anchor="start" x="144" y="-1127" font-family="Helvetica,sans-Serif" font-size="10.00">#</text>
<text text-anchor="start" x="160" y="-1127" font-family="Helvetica,sans-Serif" font-size="10.00">AbstractService()</text>
<polygon fill="#666666" stroke="#666666" points="137,-1242 137,-1242 264,-1242 264,-1242 137,-1242"/>
<polygon fill="#666666" stroke="#666666" points="137,-1212 137,-1212 158,-1212 158,-1212 137,-1212"/>
<polygon fill="#666666" stroke="#666666" points="158,-1212 158,-1212 264,-1212 264,-1212 158,-1212"/>
<polygon fill="none" stroke="#666666" points="136.5,-1120.5 136.5,-1259.5 263.5,-1259.5 263.5,-1120.5 136.5,-1120.5"/>
</a>
</g>
</g>
<!-- Node4&#45;&gt;Node3 -->
<g id="edge3_Node000003_Node000004" class="edge">
<title>Node4&#45;&gt;Node3</title>
<g id="a_edge3_Node000003_Node000004"><a xlink:title=" ">
<path fill="none" stroke="#63b8ff" d="M211.72,-1110.24C219.5,-1057.93 230.26,-985.61 241.18,-912.23"/>
<polygon fill="none" stroke="#63b8ff" points="208.21,-1110.02 210.2,-1120.43 215.14,-1111.05 208.21,-1110.02"/>
</a>
</g>
</g>
<!-- Node5 -->
<g id="Node000005" class="node">
<title>Node5</title>
<g id="a_Node000005"><a xlink:href="../../d1/d17/classArcane_1_1TraceAccessor.html" target="_top" xlink:title="Classe d&#39;accès aux traces.">
<polygon fill="white" stroke="transparent" points="140,-1712 0,-1712 0,-1468 140,-1468 140,-1712"/>
<text text-anchor="start" x="15.5" y="-1700" font-family="Helvetica,sans-Serif" font-size="10.00">Arcane::TraceAccessor</text>
<text text-anchor="start" x="6.5" y="-1685" font-family="Helvetica,sans-Serif" font-size="10.00">&#45;</text>
<text text-anchor="start" x="17" y="-1685" font-family="Helvetica,sans-Serif" font-size="10.00">m_trace</text>
<text text-anchor="start" x="6.5" y="-1670" font-family="Helvetica,sans-Serif" font-size="10.00">&#45;</text>
<text text-anchor="start" x="17" y="-1670" font-family="Helvetica,sans-Serif" font-size="10.00">m_local_verbose_level</text>
<text text-anchor="start" x="4" y="-1655" font-family="Helvetica,sans-Serif" font-size="10.00">+</text>
<text text-anchor="start" x="17" y="-1655" font-family="Helvetica,sans-Serif" font-size="10.00">TraceAccessor()</text>
<text text-anchor="start" x="4" y="-1640" font-family="Helvetica,sans-Serif" font-size="10.00">+</text>
<text text-anchor="start" x="17" y="-1640" font-family="Helvetica,sans-Serif" font-size="10.00">TraceAccessor()</text>
<text text-anchor="start" x="4" y="-1625" font-family="Helvetica,sans-Serif" font-size="10.00">+</text>
<text text-anchor="start" x="17" y="-1625" font-family="Helvetica,sans-Serif" font-size="10.00">operator=()</text>
<text text-anchor="start" x="4" y="-1610" font-family="Helvetica,sans-Serif" font-size="10.00">+</text>
<text text-anchor="start" x="17" y="-1610" font-family="Helvetica,sans-Serif" font-size="10.00">~TraceAccessor()</text>
<text text-anchor="start" x="4" y="-1595" font-family="Helvetica,sans-Serif" font-size="10.00">+</text>
<text text-anchor="start" x="17" y="-1595" font-family="Helvetica,sans-Serif" font-size="10.00">traceMng()</text>
<text text-anchor="start" x="4" y="-1580" font-family="Helvetica,sans-Serif" font-size="10.00">+</text>
<text text-anchor="start" x="17" y="-1580" font-family="Helvetica,sans-Serif" font-size="10.00">info()</text>
<text text-anchor="start" x="4" y="-1565" font-family="Helvetica,sans-Serif" font-size="10.00">+</text>
<text text-anchor="start" x="17" y="-1565" font-family="Helvetica,sans-Serif" font-size="10.00">pinfo()</text>
<text text-anchor="start" x="4" y="-1550" font-family="Helvetica,sans-Serif" font-size="10.00">+</text>
<text text-anchor="start" x="17" y="-1550" font-family="Helvetica,sans-Serif" font-size="10.00">info()</text>
<text text-anchor="start" x="4" y="-1535" font-family="Helvetica,sans-Serif" font-size="10.00">+</text>
<text text-anchor="start" x="17" y="-1535" font-family="Helvetica,sans-Serif" font-size="10.00">pinfo()</text>
<text text-anchor="start" x="4" y="-1520" font-family="Helvetica,sans-Serif" font-size="10.00">+</text>
<text text-anchor="start" x="17" y="-1520" font-family="Helvetica,sans-Serif" font-size="10.00">info()</text>
<text text-anchor="start" x="17" y="-1505" font-family="Helvetica,sans-Serif" font-size="10.00">et 15 de plus...</text>
<text text-anchor="start" x="4" y="-1490" font-family="Helvetica,sans-Serif" font-size="10.00">#</text>
<text text-anchor="start" x="17" y="-1490" font-family="Helvetica,sans-Serif" font-size="10.00">_setLocalVerboseLevel()</text>
<text text-anchor="start" x="4" y="-1475" font-family="Helvetica,sans-Serif" font-size="10.00">#</text>
<text text-anchor="start" x="17" y="-1475" font-family="Helvetica,sans-Serif" font-size="10.00">_localVerboseLevel()</text>
<polygon fill="#666666" stroke="#666666" points="0,-1695 0,-1695 140,-1695 140,-1695 0,-1695"/>
<polygon fill="#666666" stroke="#666666" points="0,-1665 0,-1665 15,-1665 15,-1665 0,-1665"/>
<polygon fill="#666666" stroke="#666666" points="15,-1665 15,-1665 140,-1665 140,-1665 15,-1665"/>
<polygon fill="none" stroke="#666666" points="0,-1468 0,-1712 140,-1712 140,-1468 0,-1468"/>
</a>
</g>
</g>
<!-- Node5&#45;&gt;Node4 -->
<g id="edge4_Node000004_Node000005" class="edge">
<title>Node5&#45;&gt;Node4</title>
<g id="a_edge4_Node000004_Node000005"><a xlink:title=" ">
<path fill="none" stroke="#63b8ff" d="M112.7,-1458.27C134.35,-1391.99 159.75,-1314.21 177.56,-1259.7"/>
<polygon fill="none" stroke="#63b8ff" points="109.31,-1457.37 109.53,-1467.97 115.97,-1459.55 109.31,-1457.37"/>
</a>
</g>
</g>
<!-- Node6 -->
<g id="Node000006" class="node">
<title>Node6</title>
<g id="a_Node000006"><a xlink:href="../../da/d7e/classArcane_1_1IService.html" target="_top" xlink:title="Interface d&#39;un service.">
<polygon fill="white" stroke="transparent" points="266,-1644.5 158,-1644.5 158,-1535.5 266,-1535.5 266,-1644.5"/>
<text text-anchor="start" x="172.5" y="-1632" font-family="Helvetica,sans-Serif" font-size="10.00">Arcane::IService</text>
<text text-anchor="start" x="210" y="-1617" font-family="Helvetica,sans-Serif" font-size="10.00"> </text>
<text text-anchor="start" x="162" y="-1602" font-family="Helvetica,sans-Serif" font-size="10.00">+</text>
<text text-anchor="start" x="175" y="-1602" font-family="Helvetica,sans-Serif" font-size="10.00">~IService()</text>
<text text-anchor="start" x="162" y="-1587" font-family="Helvetica,sans-Serif" font-size="10.00">+</text>
<text text-anchor="start" x="175" y="-1587" font-family="Helvetica,sans-Serif" font-size="10.00">serviceParent()</text>
<text text-anchor="start" x="162" y="-1572" font-family="Helvetica,sans-Serif" font-size="10.00">+</text>
<text text-anchor="start" x="175" y="-1572" font-family="Helvetica,sans-Serif" font-size="10.00">serviceInterface()</text>
<text text-anchor="start" x="162" y="-1557" font-family="Helvetica,sans-Serif" font-size="10.00">+</text>
<text text-anchor="start" x="175" y="-1557" font-family="Helvetica,sans-Serif" font-size="10.00">serviceInfo()</text>
<text text-anchor="start" x="162" y="-1542" font-family="Helvetica,sans-Serif" font-size="10.00">#</text>
<text text-anchor="start" x="175" y="-1542" font-family="Helvetica,sans-Serif" font-size="10.00">IService()</text>
<polygon fill="#666666" stroke="#666666" points="158,-1627 158,-1627 266,-1627 266,-1627 158,-1627"/>
<polygon fill="#666666" stroke="#666666" points="158,-1612 158,-1612 266,-1612 266,-1612 158,-1612"/>
<polygon fill="none" stroke="#666666" points="158,-1535.5 158,-1644.5 266,-1644.5 266,-1535.5 158,-1535.5"/>
</a>
</g>
</g>
<!-- Node6&#45;&gt;Node4 -->
<g id="edge5_Node000004_Node000006" class="edge">
<title>Node6&#45;&gt;Node4</title>
<g id="a_edge5_Node000004_Node000006"><a xlink:title=" ">
<path fill="none" stroke="#63b8ff" d="M210.07,-1524.95C207.88,-1452.32 204.32,-1334.36 202.07,-1259.82"/>
<polygon fill="none" stroke="#63b8ff" points="206.58,-1525.43 210.38,-1535.32 213.58,-1525.22 206.58,-1525.43"/>
</a>
</g>
</g>
<!-- Node7 -->
<g id="Node000007" class="node">
<title>Node7</title>
<g id="a_Node000007"><a xlink:href="../../dc/dd8/classArcane_1_1IMeshPartitioner.html" target="_top" xlink:title="Interface d&#39;un partitionneur de maillage.">
<polygon fill="white" stroke="transparent" points="462.5,-1432 281.5,-1432 281.5,-948 462.5,-948 462.5,-1432"/>
<text text-anchor="start" x="312.5" y="-1420" font-family="Helvetica,sans-Serif" font-size="10.00">Arcane::IMeshPartitioner</text>
<text text-anchor="start" x="370.5" y="-1405" font-family="Helvetica,sans-Serif" font-size="10.00"> </text>
<text text-anchor="start" x="286" y="-1390" font-family="Helvetica,sans-Serif" font-size="10.00">+</text>
<text text-anchor="start" x="299" y="-1390" font-family="Helvetica,sans-Serif" font-size="10.00">~IMeshPartitioner()</text>
<text text-anchor="start" x="286" y="-1375" font-family="Helvetica,sans-Serif" font-size="10.00">+</text>
<text text-anchor="start" x="299" y="-1375" font-family="Helvetica,sans-Serif" font-size="10.00">build()</text>
<text text-anchor="start" x="286" y="-1360" font-family="Helvetica,sans-Serif" font-size="10.00">+</text>
<text text-anchor="start" x="299" y="-1360" font-family="Helvetica,sans-Serif" font-size="10.00">partitionMesh()</text>
<text text-anchor="start" x="286" y="-1345" font-family="Helvetica,sans-Serif" font-size="10.00">+</text>
<text text-anchor="start" x="299" y="-1345" font-family="Helvetica,sans-Serif" font-size="10.00">mesh()</text>
<text text-anchor="start" x="286" y="-1330" font-family="Helvetica,sans-Serif" font-size="10.00">+</text>
<text text-anchor="start" x="299" y="-1330" font-family="Helvetica,sans-Serif" font-size="10.00">primaryMesh()</text>
<text text-anchor="start" x="286" y="-1315" font-family="Helvetica,sans-Serif" font-size="10.00">+</text>
<text text-anchor="start" x="299" y="-1315" font-family="Helvetica,sans-Serif" font-size="10.00">partitionMesh()</text>
<text text-anchor="start" x="286" y="-1300" font-family="Helvetica,sans-Serif" font-size="10.00">+</text>
<text text-anchor="start" x="299" y="-1300" font-family="Helvetica,sans-Serif" font-size="10.00">setMaximumComputationTime()</text>
<text text-anchor="start" x="286" y="-1285" font-family="Helvetica,sans-Serif" font-size="10.00">+</text>
<text text-anchor="start" x="299" y="-1285" font-family="Helvetica,sans-Serif" font-size="10.00">maximumComputationTime()</text>
<text text-anchor="start" x="286" y="-1270" font-family="Helvetica,sans-Serif" font-size="10.00">+</text>
<text text-anchor="start" x="299" y="-1270" font-family="Helvetica,sans-Serif" font-size="10.00">setComputationTimes()</text>
<text text-anchor="start" x="286" y="-1255" font-family="Helvetica,sans-Serif" font-size="10.00">+</text>
<text text-anchor="start" x="299" y="-1255" font-family="Helvetica,sans-Serif" font-size="10.00">computationTimes()</text>
<text text-anchor="start" x="286" y="-1240" font-family="Helvetica,sans-Serif" font-size="10.00">+</text>
<text text-anchor="start" x="299" y="-1240" font-family="Helvetica,sans-Serif" font-size="10.00">setImbalance()</text>
<text text-anchor="start" x="286" y="-1225" font-family="Helvetica,sans-Serif" font-size="10.00">+</text>
<text text-anchor="start" x="299" y="-1225" font-family="Helvetica,sans-Serif" font-size="10.00">imbalance()</text>
<text text-anchor="start" x="286" y="-1210" font-family="Helvetica,sans-Serif" font-size="10.00">+</text>
<text text-anchor="start" x="299" y="-1210" font-family="Helvetica,sans-Serif" font-size="10.00">setMaxImbalance()</text>
<text text-anchor="start" x="286" y="-1195" font-family="Helvetica,sans-Serif" font-size="10.00">+</text>
<text text-anchor="start" x="299" y="-1195" font-family="Helvetica,sans-Serif" font-size="10.00">maxImbalance()</text>
<text text-anchor="start" x="286" y="-1180" font-family="Helvetica,sans-Serif" font-size="10.00">+</text>
<text text-anchor="start" x="299" y="-1180" font-family="Helvetica,sans-Serif" font-size="10.00">setCellsWeight()</text>
<text text-anchor="start" x="286" y="-1165" font-family="Helvetica,sans-Serif" font-size="10.00">+</text>
<text text-anchor="start" x="299" y="-1165" font-family="Helvetica,sans-Serif" font-size="10.00">cellsWeight()</text>
<text text-anchor="start" x="286" y="-1150" font-family="Helvetica,sans-Serif" font-size="10.00">+</text>
<text text-anchor="start" x="299" y="-1150" font-family="Helvetica,sans-Serif" font-size="10.00">setILoadBalanceMng()</text>
<text text-anchor="start" x="286" y="-1135" font-family="Helvetica,sans-Serif" font-size="10.00">+</text>
<text text-anchor="start" x="299" y="-1135" font-family="Helvetica,sans-Serif" font-size="10.00">loadBalanceMng()</text>
<text text-anchor="start" x="287.5" y="-1120" font-family="Helvetica,sans-Serif" font-size="10.00">*</text>
<text text-anchor="start" x="299" y="-1120" font-family="Helvetica,sans-Serif" font-size="10.00">setMaximumComputationTime()</text>
<text text-anchor="start" x="287.5" y="-1105" font-family="Helvetica,sans-Serif" font-size="10.00">*</text>
<text text-anchor="start" x="299" y="-1105" font-family="Helvetica,sans-Serif" font-size="10.00">maximumComputationTime()</text>
<text text-anchor="start" x="287.5" y="-1090" font-family="Helvetica,sans-Serif" font-size="10.00">*</text>
<text text-anchor="start" x="299" y="-1090" font-family="Helvetica,sans-Serif" font-size="10.00">setComputationTimes()</text>
<text text-anchor="start" x="287.5" y="-1075" font-family="Helvetica,sans-Serif" font-size="10.00">*</text>
<text text-anchor="start" x="299" y="-1075" font-family="Helvetica,sans-Serif" font-size="10.00">computationTimes()</text>
<text text-anchor="start" x="287.5" y="-1060" font-family="Helvetica,sans-Serif" font-size="10.00">*</text>
<text text-anchor="start" x="299" y="-1060" font-family="Helvetica,sans-Serif" font-size="10.00">setImbalance()</text>
<text text-anchor="start" x="287.5" y="-1045" font-family="Helvetica,sans-Serif" font-size="10.00">*</text>
<text text-anchor="start" x="299" y="-1045" font-family="Helvetica,sans-Serif" font-size="10.00">imbalance()</text>
<text text-anchor="start" x="287.5" y="-1030" font-family="Helvetica,sans-Serif" font-size="10.00">*</text>
<text text-anchor="start" x="299" y="-1030" font-family="Helvetica,sans-Serif" font-size="10.00">setMaxImbalance()</text>
<text text-anchor="start" x="287.5" y="-1015" font-family="Helvetica,sans-Serif" font-size="10.00">*</text>
<text text-anchor="start" x="299" y="-1015" font-family="Helvetica,sans-Serif" font-size="10.00">maxImbalance()</text>
<text text-anchor="start" x="287.5" y="-1000" font-family="Helvetica,sans-Serif" font-size="10.00">*</text>
<text text-anchor="start" x="299" y="-1000" font-family="Helvetica,sans-Serif" font-size="10.00">setCellsWeight()</text>
<text text-anchor="start" x="287.5" y="-985" font-family="Helvetica,sans-Serif" font-size="10.00">*</text>
<text text-anchor="start" x="299" y="-985" font-family="Helvetica,sans-Serif" font-size="10.00">cellsWeight()</text>
<text text-anchor="start" x="287.5" y="-970" font-family="Helvetica,sans-Serif" font-size="10.00">*</text>
<text text-anchor="start" x="299" y="-970" font-family="Helvetica,sans-Serif" font-size="10.00">setILoadBalanceMng()</text>
<text text-anchor="start" x="287.5" y="-955" font-family="Helvetica,sans-Serif" font-size="10.00">*</text>
<text text-anchor="start" x="299" y="-955" font-family="Helvetica,sans-Serif" font-size="10.00">loadBalanceMng()</text>
<polygon fill="#666666" stroke="#666666" points="282,-1415 282,-1415 463,-1415 463,-1415 282,-1415"/>
<polygon fill="#666666" stroke="#666666" points="282,-1400 282,-1400 463,-1400 463,-1400 282,-1400"/>
<polygon fill="none" stroke="#666666" points="281.5,-948 281.5,-1432 462.5,-1432 462.5,-948 281.5,-948"/>
</a>
</g>
</g>
<!-- Node7&#45;&gt;Node3 -->
<g id="edge6_Node000003_Node000007" class="edge">
<title>Node7&#45;&gt;Node3</title>
<g id="a_edge6_Node000003_Node000007"><a xlink:title=" ">
<path fill="none" stroke="#63b8ff" d="M334.61,-937.69C333.34,-929.2 332.07,-920.66 330.8,-912.11"/>
<polygon fill="none" stroke="#63b8ff" points="331.16,-938.27 336.09,-947.64 338.08,-937.24 331.16,-938.27"/>
</a>
</g>
</g>
<!-- Node8 -->
<g id="Node000008" class="node">
<title>Node8</title>
<g id="a_Node000008"><a xlink:href="../../d8/d7d/classArcane_1_1IMeshPartitionerBase.html" target="_top" xlink:title="Interface d&#39;un partitionneur de maillage.">
<polygon fill="white" stroke="transparent" points="449,-1637 295,-1637 295,-1543 449,-1543 449,-1637"/>
<text text-anchor="start" x="300" y="-1625" font-family="Helvetica,sans-Serif" font-size="10.00">Arcane::IMeshPartitionerBase</text>
<text text-anchor="start" x="370" y="-1610" font-family="Helvetica,sans-Serif" font-size="10.00"> </text>
<text text-anchor="start" x="302" y="-1595" font-family="Helvetica,sans-Serif" font-size="10.00">+</text>
<text text-anchor="start" x="318" y="-1595" font-family="Helvetica,sans-Serif" font-size="10.00">~IMeshPartitionerBase()</text>
<text text-anchor="start" x="302" y="-1580" font-family="Helvetica,sans-Serif" font-size="10.00">+</text>
<text text-anchor="start" x="318" y="-1580" font-family="Helvetica,sans-Serif" font-size="10.00">partitionMesh()</text>
<text text-anchor="start" x="302" y="-1565" font-family="Helvetica,sans-Serif" font-size="10.00">+</text>
<text text-anchor="start" x="318" y="-1565" font-family="Helvetica,sans-Serif" font-size="10.00">primaryMesh()</text>
<text text-anchor="start" x="302" y="-1550" font-family="Helvetica,sans-Serif" font-size="10.00">+</text>
<text text-anchor="start" x="318" y="-1550" font-family="Helvetica,sans-Serif" font-size="10.00">notifyEndPartition()</text>
<polygon fill="#666666" stroke="#666666" points="295,-1620 295,-1620 449,-1620 449,-1620 295,-1620"/>
<polygon fill="#666666" stroke="#666666" points="295,-1605 295,-1605 449,-1605 449,-1605 295,-1605"/>
<polygon fill="none" stroke="#666666" points="295,-1543 295,-1637 449,-1637 449,-1543 295,-1543"/>
</a>
</g>
</g>
<!-- Node8&#45;&gt;Node7 -->
<g id="edge7_Node000007_Node000008" class="edge">
<title>Node8&#45;&gt;Node7</title>
<g id="a_edge7_Node000007_Node000008"><a xlink:title=" ">
<path fill="none" stroke="#63b8ff" d="M372,-1532.75C372,-1505.09 372,-1469.66 372,-1432.13"/>
<polygon fill="none" stroke="#63b8ff" points="368.5,-1532.96 372,-1542.96 375.5,-1532.96 368.5,-1532.96"/>
</a>
</g>
</g>
</g>
</svg>

<g id="navigator" transform="translate(0 0)" fill="#404254">
  <rect fill="#f2f5e9" fill-opacity="0.5" stroke="#606060" stroke-width=".5" x="0" y="0" width="60" height="60"/>
  <use id="zoomplus" xlink:href="#zoomPlus" x="17" y="9" onmousedown="handleZoom(evt,'in')"/>
  <use id="zoomminus" xlink:href="#zoomMin" x="42" y="9" onmousedown="handleZoom(evt,'out')"/>
  <use id="reset" xlink:href="#resetDef" x="30" y="36" onmousedown="handleReset()"/>
   <use id="arrowup" xlink:href="#arrowUp" x="0" y="0" onmousedown="handlePan(0,-1)"/>
  <use id="arrowright" xlink:href="#arrowRight" x="0" y="0" onmousedown="handlePan(1,0)"/>
  <use id="arrowdown" xlink:href="#arrowDown" x="0" y="0" onmousedown="handlePan(0,1)"/>
  <use id="arrowleft" xlink:href="#arrowLeft" x="0" y="0" onmousedown="handlePan(-1,0)"/>
</g>
<svg viewBox="0 0 15 15" width="100%" height="30px" preserveAspectRatio="xMaxYMin meet">
 <g id="arrow_out" transform="scale(0.3 0.3)">
  <a xlink:href="classArcane_1_1PTScotchMeshPartitioner__inherit__graph_org.svg" target="_base">
   <rect id="button" ry="5" rx="5" y="6" x="6" height="38" width="38"
        fill="#f2f5e9" fill-opacity="0.5" stroke="#606060" stroke-width="1.0"/>
   <path id="arrow"
     d="M 11.500037,31.436501 C 11.940474,20.09759 22.043105,11.32322 32.158766,21.979434 L 37.068811,17.246167 C 37.068811,17.246167 37.088388,32 37.088388,32 L 22.160133,31.978069 C 22.160133,31.978069 26.997745,27.140456 26.997745,27.140456 C 18.528582,18.264221 13.291696,25.230495 11.500037,31.436501 z"
     style="fill:#404040;"/>
  </a>
 </g>
</svg>

<style type='text/css'>
<![CDATA[
[data-mouse-over-selected='false'] { opacity: 0.7; }
[data-mouse-over-selected='true']  { opacity: 1.0; }
]]>
</style>
<script type="application/ecmascript"><![CDATA[
document.addEventListener('DOMContentLoaded', (event) => {
  highlightEdges();
  highlightAdjacentNodes();
});
]]></script>
</svg>
