<?xml version="1.0" encoding="UTF-8" standalone="no"?>
<!DOCTYPE svg PUBLIC "-//W3C//DTD SVG 1.1//EN"
 "http://www.w3.org/Graphics/SVG/1.1/DTD/svg11.dtd">
<!-- Generated by graphviz version 2.43.0 (0)
 -->
<!-- Title: Arcane::MeshUtils::checkMeshProperties Pages: 1 -->
<svg width="292pt" height="150pt"
 viewBox="0.00 0.00 292.00 149.50" xmlns="http://www.w3.org/2000/svg" xmlns:xlink="http://www.w3.org/1999/xlink">

<svg id="main" version="1.1" xmlns="http://www.w3.org/2000/svg" xmlns:xlink="http://www.w3.org/1999/xlink" xml:space="preserve">

<style type="text/css"><![CDATA[
.node, .edge {opacity: 0.7;}
.node.selected, .edge.selected {opacity: 1;}
.edge:hover path { stroke: red; }
.edge:hover polygon { stroke: red; fill: red; }
]]></style>
<script type="application/ecmascript" xlink:href="../../svg.min.js"/>
<svg id="graph" class="graph">
<g id="graph0" class="graph" transform="scale(1 1) rotate(0) translate(4 145.5)">
<title>Arcane::MeshUtils::checkMeshProperties</title>
<!-- Node1 -->
<g id="Node000001" class="node">
<title>Node1</title>
<g id="a_Node000001"><a xlink:title="Vérifie que le maillage possède certaines propriétés.">
<polygon fill="#999999" stroke="#666666" points="121,-79.5 0,-79.5 0,-49.5 121,-49.5 121,-79.5"/>
<text text-anchor="start" x="8" y="-67.5" font-family="Helvetica,sans-Serif" font-size="10.00">Arcane::MeshUtils::</text>
<text text-anchor="middle" x="60.5" y="-56.5" font-family="Helvetica,sans-Serif" font-size="10.00">checkMeshProperties</text>
</a>
</g>
</g>
<!-- Node2 -->
<g id="Node000002" class="node">
<title>Node2</title>
<g id="a_Node000002"><a xlink:href="../../d3/d00/classArcane_1_1ITraceMng.html#ab530d78dc4c28de4aaa9271ccda4947f" target="_top" xlink:title="Flot pour un message d&#39;erreur.">
<polygon fill="white" stroke="#666666" points="276.5,-141.5 164.5,-141.5 164.5,-111.5 276.5,-111.5 276.5,-141.5"/>
<text text-anchor="start" x="172.5" y="-129.5" font-family="Helvetica,sans-Serif" font-size="10.00">Arcane::ITraceMng::</text>
<text text-anchor="middle" x="220.5" y="-118.5" font-family="Helvetica,sans-Serif" font-size="10.00">error</text>
</a>
</g>
</g>
<!-- Node1&#45;&gt;Node2 -->
<g id="edge1_Node000001_Node000002" class="edge">
<title>Node1&#45;&gt;Node2</title>
<g id="a_edge1_Node000001_Node000002"><a xlink:title=" ">
<path fill="none" stroke="#63b8ff" d="M99.11,-79.58C116.68,-86.6 137.89,-95.03 157,-102.5 161.44,-104.23 166.05,-106.03 170.68,-107.82"/>
<polygon fill="#63b8ff" stroke="#63b8ff" points="169.54,-111.13 180.13,-111.47 172.06,-104.6 169.54,-111.13"/>
</a>
</g>
</g>
<!-- Node3 -->
<g id="Node000003" class="node">
<title>Node3</title>
<g id="a_Node000003"><a xlink:href="../../df/d5f/classArcane_1_1Item.html#a337f519e8727634e55ea621f4734ec04" target="_top" xlink:title="Identifiant local de l&#39;entité dans le sous&#45;domaine du processeur.">
<polygon fill="white" stroke="#666666" points="279,-93 162,-93 162,-74 279,-74 279,-93"/>
<text text-anchor="middle" x="220.5" y="-81" font-family="Helvetica,sans-Serif" font-size="10.00">Arcane::Item::localId</text>
</a>
</g>
</g>
<!-- Node1&#45;&gt;Node3 -->
<g id="edge2_Node000001_Node000003" class="edge">
<title>Node1&#45;&gt;Node3</title>
<g id="a_edge2_Node000001_Node000003"><a xlink:title=" ">
<path fill="none" stroke="#63b8ff" d="M121.23,-71.68C131.2,-72.88 141.59,-74.13 151.74,-75.35"/>
<polygon fill="#63b8ff" stroke="#63b8ff" points="151.43,-78.84 161.77,-76.56 152.26,-71.89 151.43,-78.84"/>
</a>
</g>
</g>
<!-- Node4 -->
<g id="Node000004" class="node">
<title>Node4</title>
<g id="a_Node000004"><a xlink:href="../../df/d5f/classArcane_1_1Item.html#a8f8568870c3a43ef28b09eaf37a6852c" target="_top" xlink:title="true si l&#39;entité est nul (i.e. non connecté au maillage)">
<polygon fill="white" stroke="#666666" points="272,-56 169,-56 169,-37 272,-37 272,-56"/>
<text text-anchor="middle" x="220.5" y="-44" font-family="Helvetica,sans-Serif" font-size="10.00">Arcane::Item::null</text>
</a>
</g>
</g>
<!-- Node1&#45;&gt;Node4 -->
<g id="edge3_Node000001_Node000004" class="edge">
<title>Node1&#45;&gt;Node4</title>
<g id="a_edge3_Node000001_Node000004"><a xlink:title=" ">
<path fill="none" stroke="#63b8ff" d="M121.23,-57.69C133.52,-56.29 146.47,-54.82 158.8,-53.42"/>
<polygon fill="#63b8ff" stroke="#63b8ff" points="159.43,-56.87 168.97,-52.26 158.64,-49.91 159.43,-56.87"/>
</a>
</g>
</g>
<!-- Node5 -->
<g id="Node000005" class="node">
<title>Node5</title>
<g id="a_Node000005"><a xlink:href="../../df/d5f/classArcane_1_1Item.html#a8e5cf3572ae8a043fae3e32fe400551b" target="_top" xlink:title="Identifiant unique sur tous les domaines.">
<polygon fill="white" stroke="#666666" points="284,-19 157,-19 157,0 284,0 284,-19"/>
<text text-anchor="middle" x="220.5" y="-7" font-family="Helvetica,sans-Serif" font-size="10.00">Arcane::Item::uniqueId</text>
</a>
</g>
</g>
<!-- Node1&#45;&gt;Node5 -->
<g id="edge4_Node000001_Node000005" class="edge">
<title>Node1&#45;&gt;Node5</title>
<g id="a_edge4_Node000001_Node000005"><a xlink:title=" ">
<path fill="none" stroke="#63b8ff" d="M99.86,-49.38C117.22,-42.72 138.04,-34.95 157,-28.5 163.42,-26.32 170.25,-24.12 176.95,-22.03"/>
<polygon fill="#63b8ff" stroke="#63b8ff" points="178.08,-25.34 186.61,-19.06 176.02,-18.65 178.08,-25.34"/>
</a>
</g>
</g>
</g>
</svg>
</svg>

<style type='text/css'>
<![CDATA[
[data-mouse-over-selected='false'] { opacity: 0.7; }
[data-mouse-over-selected='true']  { opacity: 1.0; }
]]>
</style>
<script type="application/ecmascript"><![CDATA[
document.addEventListener('DOMContentLoaded', (event) => {
  highlightEdges();
  highlightAdjacentNodes();
});
]]></script>
</svg>
