<?xml version="1.0" encoding="UTF-8" standalone="no"?>
<!DOCTYPE svg PUBLIC "-//W3C//DTD SVG 1.1//EN"
 "http://www.w3.org/Graphics/SVG/1.1/DTD/svg11.dtd">
<!-- Generated by graphviz version 2.43.0 (0)
 -->
<!-- Title: Arcane::geometric::GeomShapeView::geomType Pages: 1 -->
<!--zoomable 549 -->

<svg id="main" version="1.1" xmlns="http://www.w3.org/2000/svg" xmlns:xlink="http://www.w3.org/1999/xlink" xml:space="preserve" onload="init(evt)">

<style type="text/css"><![CDATA[
.node, .edge {opacity: 0.7;}
.node.selected, .edge.selected {opacity: 1;}
.edge:hover path { stroke: red; }
.edge:hover polygon { stroke: red; fill: red; }
]]></style>

<defs>
  <circle id="rim" cx="0" cy="0" r="7"/>
  <circle id="rim2" cx="0" cy="0" r="3.5"/>
  <g id="zoomPlus">
    <use xlink:href="#rim" fill="#404040"><set attributeName="fill" to="#808080" begin="zoomplus.mouseover" end="zoomplus.mouseout"/></use>
    <path d="M-4,0h8M0,-4v8" fill="none" stroke="white" stroke-width="1.5" pointer-events="none"/>
  </g>
  <g id="zoomMin">
    <use xlink:href="#rim" fill="#404040"><set attributeName="fill" to="#808080" begin="zoomminus.mouseover" end="zoomminus.mouseout"/></use>
    <path d="M-4,0h8" fill="none" stroke="white" stroke-width="1.5" pointer-events="none"/>
  </g>
  <g id="arrowUp" transform="translate(30 24)">
    <use xlink:href="#rim"/>
    <path pointer-events="none" fill="none" stroke="white" stroke-width="1.5" d="M0,-3.0v7 M-2.5,-0.5L0,-3.0L2.5,-0.5"/>
  </g>
  <g id="arrowRight" transform="rotate(90) translate(36 -43)">
    <use xlink:href="#rim"/>
    <path pointer-events="none" fill="none" stroke="white" stroke-width="1.5" d="M0,-3.0v7 M-2.5,-0.5L0,-3.0L2.5,-0.5"/>
  </g>
  <g id="arrowDown" transform="rotate(180) translate(-30 -48)">
    <use xlink:href="#rim"/>
    <path pointer-events="none" fill="none" stroke="white" stroke-width="1.5" d="M0,-3.0v7 M-2.5,-0.5L0,-3.0L2.5,-0.5"/>
  </g>
  <g id="arrowLeft" transform="rotate(270) translate(-36 17)">
    <use xlink:href="#rim"/>
    <path pointer-events="none" fill="none" stroke="white" stroke-width="1.5" d="M0,-3.0v7 M-2.5,-0.5L0,-3.0L2.5,-0.5"/>
  </g>
  <g id="resetDef">
    <use xlink:href="#rim2" fill="#404040"><set attributeName="fill" to="#808080" begin="reset.mouseover" end="reset.mouseout"/></use>
  </g>
</defs>
<script type="application/ecmascript">
var viewWidth = 404;
var viewHeight = 549;
var sectionId = 'dynsection-15';
</script>
<script type="application/ecmascript" xlink:href="../../svg.min.js"/>
<svg id="graph" class="graph">
<g id="viewport">
<title>Arcane::geometric::GeomShapeView::geomType</title>
<!-- Node1 -->
<g id="Node000001" class="node">
<title>Node1</title>
<g id="a_Node000001"><a xlink:title="Type géométrique de la forme.">
<polygon fill="#999999" stroke="#666666" points="396,-279.5 241,-279.5 241,-249.5 396,-249.5 396,-279.5"/>
<text text-anchor="start" x="249" y="-267.5" font-family="Helvetica,sans-Serif" font-size="10.00">Arcane::geometric::</text>
<text text-anchor="middle" x="318.5" y="-256.5" font-family="Helvetica,sans-Serif" font-size="10.00">GeomShapeView::geomType</text>
</a>
</g>
</g>
<!-- Node2 -->
<g id="Node000002" class="node">
<title>Node2</title>
<g id="a_Node000002"><a xlink:href="../../d1/d5f/classArcane_1_1geometric_1_1GeomShapeView.html#aec15e4e1919b26fe5fce5fe14132bb07" target="_top" xlink:title="Retourne une vue spécifique vers un élément géométrique de type GeomType::Heptaedron10.">
<polygon fill="white" stroke="#666666" points="194.5,-541 10.5,-541 10.5,-500 194.5,-500 194.5,-541"/>
<text text-anchor="start" x="18.5" y="-529" font-family="Helvetica,sans-Serif" font-size="10.00">Arcane::geometric::</text>
<text text-anchor="start" x="18.5" y="-518" font-family="Helvetica,sans-Serif" font-size="10.00">GeomShapeView::toHeptaedron10</text>
<text text-anchor="middle" x="102.5" y="-507" font-family="Helvetica,sans-Serif" font-size="10.00">Element</text>
</a>
</g>
</g>
<!-- Node1&#45;&gt;Node2 -->
<g id="edge1_Node000001_Node000002" class="edge">
<title>Node1&#45;&gt;Node2</title>
<g id="a_edge1_Node000001_Node000002"><a xlink:title=" ">
<path fill="none" stroke="#63b8ff" d="M312.18,-289.47C300.89,-336.26 270.06,-437.31 205,-491.5 201.34,-494.55 197.37,-497.28 193.21,-499.72"/>
<polygon fill="#63b8ff" stroke="#63b8ff" points="315.62,-290.1 314.47,-279.57 308.8,-288.52 315.62,-290.1"/>
</a>
</g>
</g>
<!-- Node3 -->
<g id="Node000003" class="node">
<title>Node3</title>
<g id="a_Node000003"><a xlink:href="../../d1/d5f/classArcane_1_1geometric_1_1GeomShapeView.html#a72757a215ff93885e990ffbb43658360" target="_top" xlink:title="Retourne une vue spécifique vers un élément géométrique de type GeomType::Hexaedron8.">
<polygon fill="white" stroke="#666666" points="189.5,-482 15.5,-482 15.5,-441 189.5,-441 189.5,-482"/>
<text text-anchor="start" x="23.5" y="-470" font-family="Helvetica,sans-Serif" font-size="10.00">Arcane::geometric::</text>
<text text-anchor="start" x="23.5" y="-459" font-family="Helvetica,sans-Serif" font-size="10.00">GeomShapeView::toHexaedron8</text>
<text text-anchor="middle" x="102.5" y="-448" font-family="Helvetica,sans-Serif" font-size="10.00">Element</text>
</a>
</g>
</g>
<!-- Node1&#45;&gt;Node3 -->
<g id="edge2_Node000001_Node000003" class="edge">
<title>Node1&#45;&gt;Node3</title>
<g id="a_edge2_Node000001_Node000003"><a xlink:title=" ">
<path fill="none" stroke="#63b8ff" d="M307.57,-288.93C291.48,-325.42 256.28,-393.9 205,-431.5 200.18,-435.03 194.95,-438.15 189.5,-440.9"/>
<polygon fill="#63b8ff" stroke="#63b8ff" points="310.87,-290.1 311.6,-279.53 304.44,-287.34 310.87,-290.1"/>
</a>
</g>
</g>
<!-- Node4 -->
<g id="Node000004" class="node">
<title>Node4</title>
<g id="a_Node000004"><a xlink:href="../../d1/d5f/classArcane_1_1geometric_1_1GeomShapeView.html#a9ec8510e12b42c127c88bcf60eee9ec4" target="_top" xlink:title="Retourne une vue spécifique vers un élément géométrique de type GeomType::Hexagon6.">
<polygon fill="white" stroke="#666666" points="205,-422.5 0,-422.5 0,-392.5 205,-392.5 205,-422.5"/>
<text text-anchor="start" x="8" y="-410.5" font-family="Helvetica,sans-Serif" font-size="10.00">Arcane::geometric::</text>
<text text-anchor="middle" x="102.5" y="-399.5" font-family="Helvetica,sans-Serif" font-size="10.00">GeomShapeView::toHexagon6Element</text>
</a>
</g>
</g>
<!-- Node1&#45;&gt;Node4 -->
<g id="edge3_Node000001_Node000004" class="edge">
<title>Node1&#45;&gt;Node4</title>
<g id="a_edge3_Node000001_Node000004"><a xlink:title=" ">
<path fill="none" stroke="#63b8ff" d="M301.74,-288.12C282.28,-315.38 246.61,-359.52 205,-383.5 199.04,-386.94 192.61,-389.88 185.99,-392.4"/>
<polygon fill="#63b8ff" stroke="#63b8ff" points="304.85,-289.78 307.71,-279.58 299.11,-285.78 304.85,-289.78"/>
</a>
</g>
</g>
<!-- Node5 -->
<g id="Node000005" class="node">
<title>Node5</title>
<g id="a_Node000005"><a xlink:href="../../d1/d5f/classArcane_1_1geometric_1_1GeomShapeView.html#a2e48f57bb8963b292bd3de2fb5587809" target="_top" xlink:title="Retourne une vue spécifique vers un élément géométrique de type GeomType::Octaedron12.">
<polygon fill="white" stroke="#666666" points="191,-374 14,-374 14,-333 191,-333 191,-374"/>
<text text-anchor="start" x="22" y="-362" font-family="Helvetica,sans-Serif" font-size="10.00">Arcane::geometric::</text>
<text text-anchor="start" x="22" y="-351" font-family="Helvetica,sans-Serif" font-size="10.00">GeomShapeView::toOctaedron12</text>
<text text-anchor="middle" x="102.5" y="-340" font-family="Helvetica,sans-Serif" font-size="10.00">Element</text>
</a>
</g>
</g>
<!-- Node1&#45;&gt;Node5 -->
<g id="edge4_Node000001_Node000005" class="edge">
<title>Node1&#45;&gt;Node5</title>
<g id="a_edge4_Node000001_Node000005"><a xlink:title=" ">
<path fill="none" stroke="#63b8ff" d="M283.88,-284.85C261.98,-297.5 232.47,-313.39 205,-324.5 197.52,-327.52 189.62,-330.36 181.65,-332.99"/>
<polygon fill="#63b8ff" stroke="#63b8ff" points="285.9,-287.73 292.77,-279.66 282.37,-281.68 285.9,-287.73"/>
</a>
</g>
</g>
<!-- Node6 -->
<g id="Node000006" class="node">
<title>Node6</title>
<g id="a_Node000006"><a xlink:href="../../d1/d5f/classArcane_1_1geometric_1_1GeomShapeView.html#a3556186404654b225f86ad2f1b1a80a6" target="_top" xlink:title="Retourne une vue spécifique vers un élément géométrique de type GeomType::Pentaedron6.">
<polygon fill="white" stroke="#666666" points="190.5,-315 14.5,-315 14.5,-274 190.5,-274 190.5,-315"/>
<text text-anchor="start" x="22.5" y="-303" font-family="Helvetica,sans-Serif" font-size="10.00">Arcane::geometric::</text>
<text text-anchor="start" x="22.5" y="-292" font-family="Helvetica,sans-Serif" font-size="10.00">GeomShapeView::toPentaedron6</text>
<text text-anchor="middle" x="102.5" y="-281" font-family="Helvetica,sans-Serif" font-size="10.00">Element</text>
</a>
</g>
</g>
<!-- Node1&#45;&gt;Node6 -->
<g id="edge5_Node000001_Node000006" class="edge">
<title>Node1&#45;&gt;Node6</title>
<g id="a_edge5_Node000001_Node000006"><a xlink:title=" ">
<path fill="none" stroke="#63b8ff" d="M230.79,-276.66C217.52,-278.52 203.81,-280.44 190.53,-282.3"/>
<polygon fill="#63b8ff" stroke="#63b8ff" points="231.43,-280.1 240.85,-275.25 230.46,-273.17 231.43,-280.1"/>
</a>
</g>
</g>
<!-- Node7 -->
<g id="Node000007" class="node">
<title>Node7</title>
<g id="a_Node000007"><a xlink:href="../../d1/d5f/classArcane_1_1geometric_1_1GeomShapeView.html#a7e81de7daf13a9535ede26e16711d757" target="_top" xlink:title="Retourne une vue spécifique vers un élément géométrique de type GeomType::Pentagon5.">
<polygon fill="white" stroke="#666666" points="186,-256 19,-256 19,-215 186,-215 186,-256"/>
<text text-anchor="start" x="27" y="-244" font-family="Helvetica,sans-Serif" font-size="10.00">Arcane::geometric::</text>
<text text-anchor="start" x="27" y="-233" font-family="Helvetica,sans-Serif" font-size="10.00">GeomShapeView::toPentagon5</text>
<text text-anchor="middle" x="102.5" y="-222" font-family="Helvetica,sans-Serif" font-size="10.00">Element</text>
</a>
</g>
</g>
<!-- Node1&#45;&gt;Node7 -->
<g id="edge6_Node000001_Node000007" class="edge">
<title>Node1&#45;&gt;Node7</title>
<g id="a_edge6_Node000001_Node000007"><a xlink:title=" ">
<path fill="none" stroke="#63b8ff" d="M230.75,-252.74C216.02,-250.75 200.76,-248.68 186.14,-246.7"/>
<polygon fill="#63b8ff" stroke="#63b8ff" points="230.47,-256.24 240.85,-254.11 231.41,-249.3 230.47,-256.24"/>
</a>
</g>
</g>
<!-- Node8 -->
<g id="Node000008" class="node">
<title>Node8</title>
<g id="a_Node000008"><a xlink:href="../../d1/d5f/classArcane_1_1geometric_1_1GeomShapeView.html#a66910378271fb6010eb89073dd632587" target="_top" xlink:title="Retourne une vue spécifique vers un élément géométrique de type GeomType::Pyramid5.">
<polygon fill="white" stroke="#666666" points="203.5,-196.5 1.5,-196.5 1.5,-166.5 203.5,-166.5 203.5,-196.5"/>
<text text-anchor="start" x="9.5" y="-184.5" font-family="Helvetica,sans-Serif" font-size="10.00">Arcane::geometric::</text>
<text text-anchor="middle" x="102.5" y="-173.5" font-family="Helvetica,sans-Serif" font-size="10.00">GeomShapeView::toPyramid5Element</text>
</a>
</g>
</g>
<!-- Node1&#45;&gt;Node8 -->
<g id="edge7_Node000001_Node000008" class="edge">
<title>Node1&#45;&gt;Node8</title>
<g id="a_edge7_Node000001_Node000008"><a xlink:title=" ">
<path fill="none" stroke="#63b8ff" d="M283.5,-244.3C261.66,-232.02 232.36,-216.76 205,-206.5 195.06,-202.77 184.36,-199.44 173.77,-196.52"/>
<polygon fill="#63b8ff" stroke="#63b8ff" points="281.95,-247.45 292.37,-249.37 285.42,-241.37 281.95,-247.45"/>
</a>
</g>
</g>
<!-- Node9 -->
<g id="Node000009" class="node">
<title>Node9</title>
<g id="a_Node000009"><a xlink:href="../../d1/d5f/classArcane_1_1geometric_1_1GeomShapeView.html#ab930f8360d7b50cfd0fe8f9482ef8807" target="_top" xlink:title="Retourne une vue spécifique vers un élément géométrique de type GeomType::Quad4.">
<polygon fill="white" stroke="#666666" points="196,-148.5 9,-148.5 9,-118.5 196,-118.5 196,-148.5"/>
<text text-anchor="start" x="17" y="-136.5" font-family="Helvetica,sans-Serif" font-size="10.00">Arcane::geometric::</text>
<text text-anchor="middle" x="102.5" y="-125.5" font-family="Helvetica,sans-Serif" font-size="10.00">GeomShapeView::toQuad4Element</text>
</a>
</g>
</g>
<!-- Node1&#45;&gt;Node9 -->
<g id="edge8_Node000001_Node000009" class="edge">
<title>Node1&#45;&gt;Node9</title>
<g id="a_edge8_Node000001_Node000009"><a xlink:title=" ">
<path fill="none" stroke="#63b8ff" d="M299.64,-241.4C279.37,-216.82 244.01,-178.62 205,-157.5 198.63,-154.05 191.77,-151.09 184.74,-148.56"/>
<polygon fill="#63b8ff" stroke="#63b8ff" points="297.15,-243.89 306.16,-249.47 302.6,-239.49 297.15,-243.89"/>
</a>
</g>
</g>
<!-- Node10 -->
<g id="Node000010" class="node">
<title>Node10</title>
<g id="a_Node000010"><a xlink:href="../../d1/d5f/classArcane_1_1geometric_1_1GeomShapeView.html#abadcf81f9cea7a545ab44d0bd9140281" target="_top" xlink:title="Retourne une vue spécifique vers un élément géométrique de type GeomType::Tetraedron4.">
<polygon fill="white" stroke="#666666" points="189,-100 16,-100 16,-59 189,-59 189,-100"/>
<text text-anchor="start" x="24" y="-88" font-family="Helvetica,sans-Serif" font-size="10.00">Arcane::geometric::</text>
<text text-anchor="start" x="24" y="-77" font-family="Helvetica,sans-Serif" font-size="10.00">GeomShapeView::toTetraedron4</text>
<text text-anchor="middle" x="102.5" y="-66" font-family="Helvetica,sans-Serif" font-size="10.00">Element</text>
</a>
</g>
</g>
<!-- Node1&#45;&gt;Node10 -->
<g id="edge9_Node000001_Node000010" class="edge">
<title>Node1&#45;&gt;Node10</title>
<g id="a_edge9_Node000001_Node000010"><a xlink:title=" ">
<path fill="none" stroke="#63b8ff" d="M306.11,-239.84C289,-205.52 253.44,-143.73 205,-109.5 199.97,-105.95 194.52,-102.81 188.85,-100.04"/>
<polygon fill="#63b8ff" stroke="#63b8ff" points="303.11,-241.68 310.63,-249.15 309.41,-238.62 303.11,-241.68"/>
</a>
</g>
</g>
<!-- Node11 -->
<g id="Node000011" class="node">
<title>Node11</title>
<g id="a_Node000011"><a xlink:href="../../d1/d5f/classArcane_1_1geometric_1_1GeomShapeView.html#a52149df7b1e52478295de733bb2de764" target="_top" xlink:title="Retourne une vue spécifique vers un élément géométrique de type GeomType::Triangle3.">
<polygon fill="white" stroke="#666666" points="182,-41 23,-41 23,0 182,0 182,-41"/>
<text text-anchor="start" x="31" y="-29" font-family="Helvetica,sans-Serif" font-size="10.00">Arcane::geometric::</text>
<text text-anchor="start" x="31" y="-18" font-family="Helvetica,sans-Serif" font-size="10.00">GeomShapeView::toTriangle3</text>
<text text-anchor="middle" x="102.5" y="-7" font-family="Helvetica,sans-Serif" font-size="10.00">Element</text>
</a>
</g>
</g>
<!-- Node1&#45;&gt;Node11 -->
<g id="edge10_Node000001_Node000011" class="edge">
<title>Node1&#45;&gt;Node11</title>
<g id="a_edge10_Node000001_Node000011"><a xlink:title=" ">
<path fill="none" stroke="#63b8ff" d="M311.36,-239.75C299,-195.16 266.89,-101.27 205,-50.5 198.18,-44.91 190.35,-40.35 182.13,-36.65"/>
<polygon fill="#63b8ff" stroke="#63b8ff" points="307.99,-240.72 313.95,-249.47 314.75,-238.91 307.99,-240.72"/>
</a>
</g>
</g>
</g>
</svg>

<g id="navigator" transform="translate(0 0)" fill="#404254">
  <rect fill="#f2f5e9" fill-opacity="0.5" stroke="#606060" stroke-width=".5" x="0" y="0" width="60" height="60"/>
  <use id="zoomplus" xlink:href="#zoomPlus" x="17" y="9" onmousedown="handleZoom(evt,'in')"/>
  <use id="zoomminus" xlink:href="#zoomMin" x="42" y="9" onmousedown="handleZoom(evt,'out')"/>
  <use id="reset" xlink:href="#resetDef" x="30" y="36" onmousedown="handleReset()"/>
   <use id="arrowup" xlink:href="#arrowUp" x="0" y="0" onmousedown="handlePan(0,-1)"/>
  <use id="arrowright" xlink:href="#arrowRight" x="0" y="0" onmousedown="handlePan(1,0)"/>
  <use id="arrowdown" xlink:href="#arrowDown" x="0" y="0" onmousedown="handlePan(0,1)"/>
  <use id="arrowleft" xlink:href="#arrowLeft" x="0" y="0" onmousedown="handlePan(-1,0)"/>
</g>
<svg viewBox="0 0 15 15" width="100%" height="30px" preserveAspectRatio="xMaxYMin meet">
 <g id="arrow_out" transform="scale(0.3 0.3)">
  <a xlink:href="classArcane_1_1geometric_1_1GeomShapeView_a3c70813d94fe3cd9cce3d26562cd76d4_icgraph_org.svg" target="_base">
   <rect id="button" ry="5" rx="5" y="6" x="6" height="38" width="38"
        fill="#f2f5e9" fill-opacity="0.5" stroke="#606060" stroke-width="1.0"/>
   <path id="arrow"
     d="M 11.500037,31.436501 C 11.940474,20.09759 22.043105,11.32322 32.158766,21.979434 L 37.068811,17.246167 C 37.068811,17.246167 37.088388,32 37.088388,32 L 22.160133,31.978069 C 22.160133,31.978069 26.997745,27.140456 26.997745,27.140456 C 18.528582,18.264221 13.291696,25.230495 11.500037,31.436501 z"
     style="fill:#404040;"/>
  </a>
 </g>
</svg>

<style type='text/css'>
<![CDATA[
[data-mouse-over-selected='false'] { opacity: 0.7; }
[data-mouse-over-selected='true']  { opacity: 1.0; }
]]>
</style>
<script type="application/ecmascript"><![CDATA[
document.addEventListener('DOMContentLoaded', (event) => {
  highlightEdges();
  highlightAdjacentNodes();
});
]]></script>
</svg>
