<?xml version="1.0" encoding="UTF-8" standalone="no"?>
<!DOCTYPE svg PUBLIC "-//W3C//DTD SVG 1.1//EN"
 "http://www.w3.org/Graphics/SVG/1.1/DTD/svg11.dtd">
<!-- Generated by graphviz version 2.43.0 (0)
 -->
<!-- Title: Arcane::Accelerator::impl::ConstituentRunCommandBase&lt; ConstituentItemLocalIdType_, ContainerCreateViewType_ &gt;::Container Pages: 1 -->
<svg width="190pt" height="294pt"
 viewBox="0.00 0.00 190.00 294.00" xmlns="http://www.w3.org/2000/svg" xmlns:xlink="http://www.w3.org/1999/xlink">

<svg id="main" version="1.1" xmlns="http://www.w3.org/2000/svg" xmlns:xlink="http://www.w3.org/1999/xlink" xml:space="preserve">

<style type="text/css"><![CDATA[
.node, .edge {opacity: 0.7;}
.node.selected, .edge.selected {opacity: 1;}
.edge:hover path { stroke: red; }
.edge:hover polygon { stroke: red; fill: red; }
]]></style>
<script type="application/ecmascript" xlink:href="../../svg.min.js"/>
<svg id="graph" class="graph">
<g id="graph0" class="graph" transform="scale(1 1) rotate(0) translate(4 290)">
<title>Arcane::Accelerator::impl::ConstituentRunCommandBase&lt; ConstituentItemLocalIdType_, ContainerCreateViewType_ &gt;::Container</title>
<!-- Node1 -->
<g id="Node000001" class="node">
<title>Node1</title>
<g id="a_Node000001"><a xlink:title="Conteneur contenant les informations nécessaires pour la commande.">
<polygon fill="#999999" stroke="transparent" points="182,-108 0,-108 0,0 182,0 182,-108"/>
<text text-anchor="start" x="5" y="-96" font-family="Helvetica,sans-Serif" font-size="10.00">Arcane::Accelerator</text>
<text text-anchor="start" x="5" y="-85" font-family="Helvetica,sans-Serif" font-size="10.00">::impl::ConstituentRunCommand</text>
<text text-anchor="start" x="5" y="-74" font-family="Helvetica,sans-Serif" font-size="10.00">Base&lt; ConstituentItemLocalIdType</text>
<text text-anchor="start" x="5" y="-63" font-family="Helvetica,sans-Serif" font-size="10.00">_, ContainerCreateViewType_ &gt;</text>
<text text-anchor="start" x="64" y="-52" font-family="Helvetica,sans-Serif" font-size="10.00">::Container</text>
<text text-anchor="start" x="89" y="-37" font-family="Helvetica,sans-Serif" font-size="10.00"> </text>
<text text-anchor="start" x="30" y="-22" font-family="Helvetica,sans-Serif" font-size="10.00">+</text>
<text text-anchor="start" x="69" y="-22" font-family="Helvetica,sans-Serif" font-size="10.00">Container()</text>
<text text-anchor="start" x="30" y="-7" font-family="Helvetica,sans-Serif" font-size="10.00">+</text>
<text text-anchor="start" x="69" y="-7" font-family="Helvetica,sans-Serif" font-size="10.00">operator[]()</text>
<polygon fill="#666666" stroke="#666666" points="0,-47 0,-47 182,-47 182,-47 0,-47"/>
<polygon fill="#666666" stroke="#666666" points="0,-32 0,-32 182,-32 182,-32 0,-32"/>
<polygon fill="none" stroke="#666666" points="0,0 0,-108 182,-108 182,0 0,0"/>
</a>
</g>
</g>
<!-- Node2 -->
<g id="Node000002" class="node">
<title>Node2</title>
<g id="a_Node000002"><a xlink:href="../../d9/d9d/classArcane_1_1Accelerator_1_1impl_1_1ConstituentCommandContainerBase.html" target="_top" xlink:title=" ">
<polygon fill="white" stroke="transparent" points="178.5,-286 3.5,-286 3.5,-144 178.5,-144 178.5,-286"/>
<text text-anchor="start" x="21" y="-274" font-family="Helvetica,sans-Serif" font-size="10.00">Arcane::Accelerator</text>
<text text-anchor="start" x="21" y="-263" font-family="Helvetica,sans-Serif" font-size="10.00">::impl::ConstituentCommand</text>
<text text-anchor="start" x="55.5" y="-252" font-family="Helvetica,sans-Serif" font-size="10.00">ContainerBase</text>
<text text-anchor="start" x="8" y="-237" font-family="Helvetica,sans-Serif" font-size="10.00">#</text>
<text text-anchor="start" x="21" y="-237" font-family="Helvetica,sans-Serif" font-size="10.00">m_items</text>
<text text-anchor="start" x="8" y="-222" font-family="Helvetica,sans-Serif" font-size="10.00">#</text>
<text text-anchor="start" x="21" y="-222" font-family="Helvetica,sans-Serif" font-size="10.00">m_matvar_indexes</text>
<text text-anchor="start" x="8" y="-207" font-family="Helvetica,sans-Serif" font-size="10.00">#</text>
<text text-anchor="start" x="21" y="-207" font-family="Helvetica,sans-Serif" font-size="10.00">m_global_cells_local_id</text>
<text text-anchor="start" x="8" y="-192" font-family="Helvetica,sans-Serif" font-size="10.00">#</text>
<text text-anchor="start" x="21" y="-192" font-family="Helvetica,sans-Serif" font-size="10.00">m_nb_item</text>
<text text-anchor="start" x="8" y="-177" font-family="Helvetica,sans-Serif" font-size="10.00">+</text>
<text text-anchor="start" x="21" y="-177" font-family="Helvetica,sans-Serif" font-size="10.00">size()</text>
<text text-anchor="start" x="8" y="-162" font-family="Helvetica,sans-Serif" font-size="10.00">#</text>
<text text-anchor="start" x="21" y="-162" font-family="Helvetica,sans-Serif" font-size="10.00">ConstituentCommandContainer</text>
<text text-anchor="start" x="21" y="-151" font-family="Helvetica,sans-Serif" font-size="10.00">Base()</text>
<polygon fill="#bfbfbf" stroke="#bfbfbf" points="4,-247 4,-247 179,-247 179,-247 4,-247"/>
<polygon fill="#bfbfbf" stroke="#bfbfbf" points="4,-187 4,-187 19,-187 19,-187 4,-187"/>
<polygon fill="#bfbfbf" stroke="#bfbfbf" points="19,-187 19,-187 179,-187 179,-187 19,-187"/>
<polygon fill="none" stroke="#bfbfbf" points="3.5,-144 3.5,-286 178.5,-286 178.5,-144 3.5,-144"/>
</a>
</g>
</g>
<!-- Node2&#45;&gt;Node1 -->
<g id="edge1_Node000001_Node000002" class="edge">
<title>Node2&#45;&gt;Node1</title>
<g id="a_edge1_Node000001_Node000002"><a xlink:title=" ">
<path fill="none" stroke="#63b8ff" d="M91,-133.65C91,-124.98 91,-116.33 91,-108.11"/>
<polygon fill="none" stroke="#63b8ff" points="87.5,-133.8 91,-143.8 94.5,-133.8 87.5,-133.8"/>
</a>
</g>
</g>
</g>
</svg>
</svg>

<style type='text/css'>
<![CDATA[
[data-mouse-over-selected='false'] { opacity: 0.7; }
[data-mouse-over-selected='true']  { opacity: 1.0; }
]]>
</style>
<script type="application/ecmascript"><![CDATA[
document.addEventListener('DOMContentLoaded', (event) => {
  highlightEdges();
  highlightAdjacentNodes();
});
]]></script>
</svg>
