<?xml version="1.0" encoding="UTF-8" standalone="no"?>
<!DOCTYPE svg PUBLIC "-//W3C//DTD SVG 1.1//EN"
 "http://www.w3.org/Graphics/SVG/1.1/DTD/svg11.dtd">
<!-- Generated by graphviz version 2.43.0 (0)
 -->
<!-- Title: Arcane::mesh::FaceFamily::replaceBackCellToFace Pages: 1 -->
<!--zoomable 180 -->

<svg id="main" version="1.1" xmlns="http://www.w3.org/2000/svg" xmlns:xlink="http://www.w3.org/1999/xlink" xml:space="preserve" onload="init(evt)">

<style type="text/css"><![CDATA[
.node, .edge {opacity: 0.7;}
.node.selected, .edge.selected {opacity: 1;}
.edge:hover path { stroke: red; }
.edge:hover polygon { stroke: red; fill: red; }
]]></style>

<defs>
  <circle id="rim" cx="0" cy="0" r="7"/>
  <circle id="rim2" cx="0" cy="0" r="3.5"/>
  <g id="zoomPlus">
    <use xlink:href="#rim" fill="#404040"><set attributeName="fill" to="#808080" begin="zoomplus.mouseover" end="zoomplus.mouseout"/></use>
    <path d="M-4,0h8M0,-4v8" fill="none" stroke="white" stroke-width="1.5" pointer-events="none"/>
  </g>
  <g id="zoomMin">
    <use xlink:href="#rim" fill="#404040"><set attributeName="fill" to="#808080" begin="zoomminus.mouseover" end="zoomminus.mouseout"/></use>
    <path d="M-4,0h8" fill="none" stroke="white" stroke-width="1.5" pointer-events="none"/>
  </g>
  <g id="arrowUp" transform="translate(30 24)">
    <use xlink:href="#rim"/>
    <path pointer-events="none" fill="none" stroke="white" stroke-width="1.5" d="M0,-3.0v7 M-2.5,-0.5L0,-3.0L2.5,-0.5"/>
  </g>
  <g id="arrowRight" transform="rotate(90) translate(36 -43)">
    <use xlink:href="#rim"/>
    <path pointer-events="none" fill="none" stroke="white" stroke-width="1.5" d="M0,-3.0v7 M-2.5,-0.5L0,-3.0L2.5,-0.5"/>
  </g>
  <g id="arrowDown" transform="rotate(180) translate(-30 -48)">
    <use xlink:href="#rim"/>
    <path pointer-events="none" fill="none" stroke="white" stroke-width="1.5" d="M0,-3.0v7 M-2.5,-0.5L0,-3.0L2.5,-0.5"/>
  </g>
  <g id="arrowLeft" transform="rotate(270) translate(-36 17)">
    <use xlink:href="#rim"/>
    <path pointer-events="none" fill="none" stroke="white" stroke-width="1.5" d="M0,-3.0v7 M-2.5,-0.5L0,-3.0L2.5,-0.5"/>
  </g>
  <g id="resetDef">
    <use xlink:href="#rim2" fill="#404040"><set attributeName="fill" to="#808080" begin="reset.mouseover" end="reset.mouseout"/></use>
  </g>
</defs>
<script type="application/ecmascript">
var viewWidth = 550;
var viewHeight = 180;
var sectionId = 'dynsection-13';
</script>
<script type="application/ecmascript" xlink:href="../../svg.min.js"/>
<svg id="graph" class="graph">
<g id="viewport">
<title>Arcane::mesh::FaceFamily::replaceBackCellToFace</title>
<!-- Node1 -->
<g id="Node000001" class="node">
<title>Node1</title>
<g id="a_Node000001"><a xlink:title="AMR.">
<polygon fill="#999999" stroke="#666666" points="143,-88.5 0,-88.5 0,-58.5 143,-58.5 143,-88.5"/>
<text text-anchor="start" x="8" y="-76.5" font-family="Helvetica,sans-Serif" font-size="10.00">Arcane::mesh::FaceFamily</text>
<text text-anchor="middle" x="71.5" y="-65.5" font-family="Helvetica,sans-Serif" font-size="10.00">::replaceBackCellToFace</text>
</a>
</g>
</g>
<!-- Node2 -->
<g id="Node000002" class="node">
<title>Node2</title>
<g id="a_Node000002"><a xlink:href="../../d8/d0f/classArcane_1_1mesh_1_1ItemFamily.html#a593e6a98407e9af80a043eb65bd8f5f0" target="_top" xlink:title="Interface du modificateur de topologie.">
<polygon fill="white" stroke="#666666" points="330,-171.5 186,-171.5 186,-141.5 330,-141.5 330,-171.5"/>
<text text-anchor="start" x="194" y="-159.5" font-family="Helvetica,sans-Serif" font-size="10.00">Arcane::mesh::ItemFamily</text>
<text text-anchor="middle" x="258" y="-148.5" font-family="Helvetica,sans-Serif" font-size="10.00">::_topologyModifier</text>
</a>
</g>
</g>
<!-- Node1&#45;&gt;Node2 -->
<g id="edge1_Node000001_Node000002" class="edge">
<title>Node1&#45;&gt;Node2</title>
<g id="a_edge1_Node000001_Node000002"><a xlink:title=" ">
<path fill="none" stroke="#63b8ff" d="M96.31,-88.57C117.43,-101.48 149.44,-119.92 179,-132.5 183.61,-134.46 188.43,-136.34 193.32,-138.11"/>
<polygon fill="#63b8ff" stroke="#63b8ff" points="192.17,-141.42 202.77,-141.41 194.48,-134.81 192.17,-141.42"/>
</a>
</g>
</g>
<!-- Node3 -->
<g id="Node000003" class="node">
<title>Node3</title>
<g id="a_Node000003"><a xlink:href="../../d1/db1/classArcane_1_1Face.html#af5eb0ad8fc1568b4c59ff0bd5ece57bf" target="_top" xlink:title="Maille derrière la face (maille nulle si aucune)">
<polygon fill="white" stroke="#666666" points="321,-105 195,-105 195,-86 321,-86 321,-105"/>
<text text-anchor="middle" x="258" y="-93" font-family="Helvetica,sans-Serif" font-size="10.00">Arcane::Face::backCell</text>
</a>
</g>
</g>
<!-- Node1&#45;&gt;Node3 -->
<g id="edge2_Node000001_Node000003" class="edge">
<title>Node1&#45;&gt;Node3</title>
<g id="a_edge2_Node000001_Node000003"><a xlink:title=" ">
<path fill="none" stroke="#63b8ff" d="M143.04,-81.91C156.66,-83.54 170.95,-85.24 184.62,-86.87"/>
<polygon fill="#63b8ff" stroke="#63b8ff" points="184.6,-90.39 194.94,-88.1 185.43,-83.44 184.6,-90.39"/>
</a>
</g>
</g>
<!-- Node4 -->
<g id="Node000004" class="node">
<title>Node4</title>
<g id="a_Node000004"><a xlink:href="../../d6/df1/classArcane_1_1IItemFamilyTopologyModifier.html#a46afeaa5571a9083ccd0cec240aac9fa" target="_top" xlink:title="Remplace une maille d&#39;une entité.">
<polygon fill="white" stroke="#666666" points="337,-67.5 179,-67.5 179,-37.5 337,-37.5 337,-67.5"/>
<text text-anchor="start" x="187" y="-55.5" font-family="Helvetica,sans-Serif" font-size="10.00">Arcane::IItemFamilyTopology</text>
<text text-anchor="middle" x="258" y="-44.5" font-family="Helvetica,sans-Serif" font-size="10.00">Modifier::findAndReplaceCell</text>
</a>
</g>
</g>
<!-- Node1&#45;&gt;Node4 -->
<g id="edge4_Node000001_Node000004" class="edge">
<title>Node1&#45;&gt;Node4</title>
<g id="a_edge4_Node000001_Node000004"><a xlink:title=" ">
<path fill="none" stroke="#63b8ff" d="M143.04,-65.47C151.45,-64.51 160.11,-63.53 168.73,-62.55"/>
<polygon fill="#63b8ff" stroke="#63b8ff" points="169.27,-66.01 178.81,-61.4 168.48,-59.05 169.27,-66.01"/>
</a>
</g>
</g>
<!-- Node6 -->
<g id="Node000006" class="node">
<title>Node6</title>
<g id="a_Node000006"><a xlink:href="../../d1/db1/classArcane_1_1Face.html#a500ee00b6481628cf99ec7f5cf94a6bb" target="_top" xlink:title="Nombre de mailles de la face (1 ou 2)">
<polygon fill="white" stroke="#666666" points="315.5,-19 200.5,-19 200.5,0 315.5,0 315.5,-19"/>
<text text-anchor="middle" x="258" y="-7" font-family="Helvetica,sans-Serif" font-size="10.00">Arcane::Face::nbCell</text>
</a>
</g>
</g>
<!-- Node1&#45;&gt;Node6 -->
<g id="edge6_Node000001_Node000006" class="edge">
<title>Node1&#45;&gt;Node6</title>
<g id="a_edge6_Node000001_Node000006"><a xlink:title=" ">
<path fill="none" stroke="#63b8ff" d="M104.61,-58.33C125.48,-48.88 153.46,-36.94 179,-28.5 186.62,-25.98 194.76,-23.63 202.8,-21.51"/>
<polygon fill="#63b8ff" stroke="#63b8ff" points="203.69,-24.89 212.51,-19.03 201.96,-18.11 203.69,-24.89"/>
</a>
</g>
</g>
<!-- Node3&#45;&gt;Node3 -->
<g id="edge3_Node000003_Node000003" class="edge">
<title>Node3&#45;&gt;Node3</title>
<g id="a_edge3_Node000003_Node000003"><a xlink:title=" ">
<path fill="none" stroke="#63b8ff" d="M229.33,-105.08C215.39,-113.73 224.94,-123 258,-123 280.73,-123 292.35,-118.62 292.86,-113.07"/>
<polygon fill="#63b8ff" stroke="#63b8ff" points="295.56,-110.84 286.67,-105.08 290.03,-115.13 295.56,-110.84"/>
</a>
</g>
</g>
<!-- Node5 -->
<g id="Node000005" class="node">
<title>Node5</title>
<g id="a_Node000005"><a xlink:href="../../d6/df1/classArcane_1_1IItemFamilyTopologyModifier.html#a96002dd1d611b501cf00ed80f6e9993f" target="_top" xlink:title="Positionne la maille devant et derrière une face.">
<polygon fill="white" stroke="#666666" points="542,-67.5 373,-67.5 373,-37.5 542,-37.5 542,-67.5"/>
<text text-anchor="start" x="381" y="-55.5" font-family="Helvetica,sans-Serif" font-size="10.00">Arcane::IItemFamilyTopology</text>
<text text-anchor="middle" x="457.5" y="-44.5" font-family="Helvetica,sans-Serif" font-size="10.00">Modifier::setBackAndFrontCells</text>
</a>
</g>
</g>
<!-- Node4&#45;&gt;Node5 -->
<g id="edge5_Node000004_Node000005" class="edge">
<title>Node4&#45;&gt;Node5</title>
<g id="a_edge5_Node000004_Node000005"><a xlink:title=" ">
<path fill="none" stroke="#63b8ff" d="M337.06,-52.5C345.5,-52.5 354.16,-52.5 362.77,-52.5"/>
<polygon fill="#63b8ff" stroke="#63b8ff" points="362.84,-56 372.84,-52.5 362.84,-49 362.84,-56"/>
</a>
</g>
</g>
<!-- Node7 -->
<g id="Node000007" class="node">
<title>Node7</title>
<g id="a_Node000007"><a xlink:href="../../df/d5f/classArcane_1_1Item.html#a3efa1d4fb36b986f62c1d383f71dae82" target="_top" xlink:title="Nombre de mailles connectées à l&#39;entité (pour les noeuds, arêtes et faces)">
<polygon fill="white" stroke="#666666" points="518,-19 397,-19 397,0 518,0 518,-19"/>
<text text-anchor="middle" x="457.5" y="-7" font-family="Helvetica,sans-Serif" font-size="10.00">Arcane::Item::_nbCell</text>
</a>
</g>
</g>
<!-- Node6&#45;&gt;Node7 -->
<g id="edge7_Node000006_Node000007" class="edge">
<title>Node6&#45;&gt;Node7</title>
<g id="a_edge7_Node000006_Node000007"><a xlink:title=" ">
<path fill="none" stroke="#63b8ff" d="M315.6,-9.5C337.74,-9.5 363.36,-9.5 386.64,-9.5"/>
<polygon fill="#63b8ff" stroke="#63b8ff" points="386.8,-13 396.8,-9.5 386.8,-6 386.8,-13"/>
</a>
</g>
</g>
</g>
</svg>

<g id="navigator" transform="translate(0 0)" fill="#404254">
  <rect fill="#f2f5e9" fill-opacity="0.5" stroke="#606060" stroke-width=".5" x="0" y="0" width="60" height="60"/>
  <use id="zoomplus" xlink:href="#zoomPlus" x="17" y="9" onmousedown="handleZoom(evt,'in')"/>
  <use id="zoomminus" xlink:href="#zoomMin" x="42" y="9" onmousedown="handleZoom(evt,'out')"/>
  <use id="reset" xlink:href="#resetDef" x="30" y="36" onmousedown="handleReset()"/>
   <use id="arrowup" xlink:href="#arrowUp" x="0" y="0" onmousedown="handlePan(0,-1)"/>
  <use id="arrowright" xlink:href="#arrowRight" x="0" y="0" onmousedown="handlePan(1,0)"/>
  <use id="arrowdown" xlink:href="#arrowDown" x="0" y="0" onmousedown="handlePan(0,1)"/>
  <use id="arrowleft" xlink:href="#arrowLeft" x="0" y="0" onmousedown="handlePan(-1,0)"/>
</g>
<svg viewBox="0 0 15 15" width="100%" height="30px" preserveAspectRatio="xMaxYMin meet">
 <g id="arrow_out" transform="scale(0.3 0.3)">
  <a xlink:href="classArcane_1_1mesh_1_1FaceFamily_add9669bd5a199e23f9e275be755a8869_cgraph_org.svg" target="_base">
   <rect id="button" ry="5" rx="5" y="6" x="6" height="38" width="38"
        fill="#f2f5e9" fill-opacity="0.5" stroke="#606060" stroke-width="1.0"/>
   <path id="arrow"
     d="M 11.500037,31.436501 C 11.940474,20.09759 22.043105,11.32322 32.158766,21.979434 L 37.068811,17.246167 C 37.068811,17.246167 37.088388,32 37.088388,32 L 22.160133,31.978069 C 22.160133,31.978069 26.997745,27.140456 26.997745,27.140456 C 18.528582,18.264221 13.291696,25.230495 11.500037,31.436501 z"
     style="fill:#404040;"/>
  </a>
 </g>
</svg>

<style type='text/css'>
<![CDATA[
[data-mouse-over-selected='false'] { opacity: 0.7; }
[data-mouse-over-selected='true']  { opacity: 1.0; }
]]>
</style>
<script type="application/ecmascript"><![CDATA[
document.addEventListener('DOMContentLoaded', (event) => {
  highlightEdges();
  highlightAdjacentNodes();
});
]]></script>
</svg>
