<?xml version="1.0" encoding="UTF-8" standalone="no"?>
<!DOCTYPE svg PUBLIC "-//W3C//DTD SVG 1.1//EN"
 "http://www.w3.org/Graphics/SVG/1.1/DTD/svg11.dtd">
<!-- Generated by graphviz version 14.1.2 (0)
 -->
<!-- Title: Arcane::Numerics::Euclidian3Geometry::computeArea Pages: 1 -->
<svg width="649pt" height="68pt"
 viewBox="0.00 0.00 649.00 68.00" xmlns="http://www.w3.org/2000/svg" xmlns:xlink="http://www.w3.org/1999/xlink">
<g id="graph0" class="graph" transform="scale(1 1) rotate(0) translate(4 63.75)">
<title>Arcane::Numerics::Euclidian3Geometry::computeArea</title>
<!-- Node1 -->
<g id="Node000001" class="node">
<title>Node1</title>
<g id="a_Node000001"><a xlink:title="Calcul de l&#39;aire.">
<polygon fill="#999999" stroke="#666666" points="158.5,-46.12 0,-46.12 0,-12.62 158.5,-12.62 158.5,-46.12"/>
<text xml:space="preserve" text-anchor="start" x="8" y="-32.62" font-family="Helvetica,sans-Serif" font-size="10.00">Arcane::Numerics::Euclidian3</text>
<text xml:space="preserve" text-anchor="middle" x="79.25" y="-19.88" font-family="Helvetica,sans-Serif" font-size="10.00">Geometry::computeArea</text>
</a>
</g>
</g>
<!-- Node2 -->
<g id="Node000002" class="node">
<title>Node2</title>
<g id="a_Node000002"><a xlink:href="../../d8/d68/namespaceArcane_1_1math.html#a54965c03391ffb5486fc855458379375" target="_top" xlink:title="Norme d&#39;un vecteur.">
<polygon fill="white" stroke="#666666" points="326,-59.75 194.5,-59.75 194.5,-39 326,-39 326,-59.75"/>
<text xml:space="preserve" text-anchor="middle" x="260.25" y="-46.25" font-family="Helvetica,sans-Serif" font-size="10.00">Arcane::math::normeR3</text>
</a>
</g>
</g>
<!-- Node1&#45;&gt;Node2 -->
<g id="edge1_Node000001_Node000002" class="edge">
<title>Node1&#45;&gt;Node2</title>
<g id="a_edge1_Node000001_Node000002"><a xlink:title=" ">
<path fill="none" stroke="#63b8ff" d="M158.76,-38.15C166.81,-39.05 174.97,-39.96 182.99,-40.85"/>
<polygon fill="#63b8ff" stroke="#63b8ff" points="182.37,-44.31 192.7,-41.94 183.15,-37.35 182.37,-44.31"/>
</a>
</g>
</g>
<!-- Node5 -->
<g id="Node000005" class="node">
<title>Node5</title>
<g id="a_Node000005"><a xlink:href="../../df/d5f/classArcane_1_1Item.html#af723140c2f3c43807123ec46f9c39399" target="_top" xlink:title="Type de l&#39;entité">
<polygon fill="white" stroke="#666666" points="313.25,-20.75 207.25,-20.75 207.25,0 313.25,0 313.25,-20.75"/>
<text xml:space="preserve" text-anchor="middle" x="260.25" y="-7.25" font-family="Helvetica,sans-Serif" font-size="10.00">Arcane::Item::type</text>
</a>
</g>
</g>
<!-- Node1&#45;&gt;Node5 -->
<g id="edge4_Node000001_Node000005" class="edge">
<title>Node1&#45;&gt;Node5</title>
<g id="a_edge4_Node000001_Node000005"><a xlink:title=" ">
<path fill="none" stroke="#63b8ff" d="M158.76,-21.04C171.08,-19.73 183.67,-18.4 195.6,-17.13"/>
<polygon fill="#63b8ff" stroke="#63b8ff" points="195.72,-20.64 205.29,-16.1 194.98,-13.68 195.72,-20.64"/>
</a>
</g>
</g>
<!-- Node3 -->
<g id="Node000003" class="node">
<title>Node3</title>
<g id="a_Node000003"><a xlink:href="../../d8/d68/namespaceArcane_1_1math.html#a4f7e7462cb507fd3c6b2f1fe1b14b007" target="_top" xlink:title="Racine carrée de v.">
<polygon fill="white" stroke="#666666" points="468,-59.75 362,-59.75 362,-39 468,-39 468,-59.75"/>
<text xml:space="preserve" text-anchor="middle" x="415" y="-46.25" font-family="Helvetica,sans-Serif" font-size="10.00">Arcane::math::sqrt</text>
</a>
</g>
</g>
<!-- Node2&#45;&gt;Node3 -->
<g id="edge2_Node000002_Node000003" class="edge">
<title>Node2&#45;&gt;Node3</title>
<g id="a_edge2_Node000002_Node000003"><a xlink:title=" ">
<path fill="none" stroke="#63b8ff" d="M326.47,-49.38C334.43,-49.38 342.55,-49.38 350.48,-49.38"/>
<polygon fill="#63b8ff" stroke="#63b8ff" points="350.4,-52.88 360.4,-49.38 350.4,-45.88 350.4,-52.88"/>
</a>
</g>
</g>
<!-- Node4 -->
<g id="Node000004" class="node">
<title>Node4</title>
<g id="a_Node000004"><a xlink:href="../../d0/d32/namespaceArcane.html#aca9f9ecfcafa49aa493d0e07ef7fec34" target="_top" xlink:title="Signale un argument invalide d&#39;une fonction mathématique.">
<polygon fill="white" stroke="#666666" points="640.75,-59.75 504,-59.75 504,-39 640.75,-39 640.75,-59.75"/>
<text xml:space="preserve" text-anchor="middle" x="572.38" y="-46.25" font-family="Helvetica,sans-Serif" font-size="10.00">Arcane::arcaneMathError</text>
</a>
</g>
</g>
<!-- Node3&#45;&gt;Node4 -->
<g id="edge3_Node000003_Node000004" class="edge">
<title>Node3&#45;&gt;Node4</title>
<g id="a_edge3_Node000003_Node000004"><a xlink:title=" ">
<path fill="none" stroke="#63b8ff" d="M468.17,-49.38C475.9,-49.38 484.01,-49.38 492.14,-49.38"/>
<polygon fill="#63b8ff" stroke="#63b8ff" points="492.1,-52.88 502.1,-49.38 492.1,-45.88 492.1,-52.88"/>
</a>
</g>
</g>
</g>
</svg>
