<?xml version="1.0" encoding="UTF-8" standalone="no"?>
<!DOCTYPE svg PUBLIC "-//W3C//DTD SVG 1.1//EN"
 "http://www.w3.org/Graphics/SVG/1.1/DTD/svg11.dtd">
<!-- Generated by graphviz version 14.1.2 (0)
 -->
<!-- Title: Arcane::Materials::EnvCellVector::environment Pages: 1 -->
<svg width="546pt" height="225pt"
 viewBox="0.00 0.00 546.00 225.00" xmlns="http://www.w3.org/2000/svg" xmlns:xlink="http://www.w3.org/1999/xlink">
<g id="graph0" class="graph" transform="scale(1 1) rotate(0) translate(4 220.5)">
<title>Arcane::Materials::EnvCellVector::environment</title>
<!-- Node1 -->
<g id="Node000001" class="node">
<title>Node1</title>
<g id="a_Node000001"><a xlink:title="Milieu associé">
<polygon fill="#999999" stroke="#666666" points="537.75,-100.5 386,-100.5 386,-67 537.75,-67 537.75,-100.5"/>
<text xml:space="preserve" text-anchor="start" x="394" y="-87" font-family="Helvetica,sans-Serif" font-size="10.00">Arcane::Materials::</text>
<text xml:space="preserve" text-anchor="middle" x="461.88" y="-74.25" font-family="Helvetica,sans-Serif" font-size="10.00">EnvCellVector::environment</text>
</a>
</g>
</g>
<!-- Node2 -->
<g id="Node000002" class="node">
<title>Node2</title>
<g id="a_Node000002"><a xlink:href="../../d7/d28/classArcane_1_1Materials_1_1EnvCellVector.html#afdd16ed258eb7bcf547230a35ac6595c" target="_top" xlink:title="Construit un vecteur contenant les entités de view pour le milieu environment.">
<polygon fill="white" stroke="#666666" points="157,-216.5 0,-216.5 0,-183 157,-183 157,-216.5"/>
<text xml:space="preserve" text-anchor="start" x="8" y="-203" font-family="Helvetica,sans-Serif" font-size="10.00">Arcane::Materials::</text>
<text xml:space="preserve" text-anchor="middle" x="78.5" y="-190.25" font-family="Helvetica,sans-Serif" font-size="10.00">EnvCellVector::EnvCellVector</text>
</a>
</g>
</g>
<!-- Node1&#45;&gt;Node2 -->
<g id="edge1_Node000001_Node000002" class="edge">
<title>Node1&#45;&gt;Node2</title>
<g id="a_edge1_Node000001_Node000002"><a xlink:title=" ">
<path fill="none" stroke="#63b8ff" d="M429.15,-107.22C407.8,-121.89 378.46,-139.99 350,-150.75 287.5,-174.37 212.46,-186.81 157.29,-193.24"/>
<polygon fill="#63b8ff" stroke="#63b8ff" points="430.95,-110.23 437.12,-101.62 426.93,-104.5 430.95,-110.23"/>
</a>
</g>
</g>
<!-- Node3 -->
<g id="Node000003" class="node">
<title>Node3</title>
<g id="a_Node000003"><a xlink:href="../../d7/d28/classArcane_1_1Materials_1_1EnvCellVector.html#a1406c80476b0937eaaed84ef5d5cf8f5" target="_top" xlink:title="Construit un vecteur contenant les entités de group pour le milieu environment.">
<polygon fill="white" stroke="#666666" points="350,-123.5 193,-123.5 193,-90 350,-90 350,-123.5"/>
<text xml:space="preserve" text-anchor="start" x="201" y="-110" font-family="Helvetica,sans-Serif" font-size="10.00">Arcane::Materials::</text>
<text xml:space="preserve" text-anchor="middle" x="271.5" y="-97.25" font-family="Helvetica,sans-Serif" font-size="10.00">EnvCellVector::EnvCellVector</text>
</a>
</g>
</g>
<!-- Node1&#45;&gt;Node3 -->
<g id="edge2_Node000001_Node000003" class="edge">
<title>Node1&#45;&gt;Node3</title>
<g id="a_edge2_Node000001_Node000003"><a xlink:title=" ">
<path fill="none" stroke="#63b8ff" d="M374.39,-94.31C366.39,-95.29 358.33,-96.27 350.42,-97.24"/>
<polygon fill="#63b8ff" stroke="#63b8ff" points="374.61,-97.81 384.11,-93.12 373.76,-90.86 374.61,-97.81"/>
</a>
</g>
</g>
<!-- Node6 -->
<g id="Node000006" class="node">
<title>Node6</title>
<g id="a_Node000006"><a xlink:href="../../d7/d28/classArcane_1_1Materials_1_1EnvCellVector.html#a809b4155899f307dad24a791a4a5e8bc" target="_top" xlink:title="Construit un vecteur contenant les entités local_ids pour le milieu environment.">
<polygon fill="white" stroke="#666666" points="157,-60.5 0,-60.5 0,-27 157,-27 157,-60.5"/>
<text xml:space="preserve" text-anchor="start" x="8" y="-47" font-family="Helvetica,sans-Serif" font-size="10.00">Arcane::Materials::</text>
<text xml:space="preserve" text-anchor="middle" x="78.5" y="-34.25" font-family="Helvetica,sans-Serif" font-size="10.00">EnvCellVector::EnvCellVector</text>
</a>
</g>
</g>
<!-- Node1&#45;&gt;Node6 -->
<g id="edge9_Node000001_Node000006" class="edge">
<title>Node1&#45;&gt;Node6</title>
<g id="a_edge9_Node000001_Node000006"><a xlink:title=" ">
<path fill="none" stroke="#63b8ff" d="M374.45,-74.68C309.17,-67.84 220.37,-58.53 157.31,-51.91"/>
<polygon fill="#63b8ff" stroke="#63b8ff" points="373.71,-78.13 384.02,-75.69 374.44,-71.17 373.71,-78.13"/>
</a>
</g>
</g>
<!-- Node7 -->
<g id="Node000007" class="node">
<title>Node7</title>
<g id="a_Node000007"><a xlink:href="../../d7/d28/classArcane_1_1Materials_1_1EnvCellVector.html#a251d668cf33f8438494669ece66943bd" target="_top" xlink:title="Construit un vecteur sur les entités du milieu environment.">
<polygon fill="white" stroke="#666666" points="350,-33.5 193,-33.5 193,0 350,0 350,-33.5"/>
<text xml:space="preserve" text-anchor="start" x="201" y="-20" font-family="Helvetica,sans-Serif" font-size="10.00">Arcane::Materials::</text>
<text xml:space="preserve" text-anchor="middle" x="271.5" y="-7.25" font-family="Helvetica,sans-Serif" font-size="10.00">EnvCellVector::EnvCellVector</text>
</a>
</g>
</g>
<!-- Node1&#45;&gt;Node7 -->
<g id="edge8_Node000001_Node000007" class="edge">
<title>Node1&#45;&gt;Node7</title>
<g id="a_edge8_Node000001_Node000007"><a xlink:title=" ">
<path fill="none" stroke="#63b8ff" d="M402.3,-62.92C376.11,-53.6 345.61,-42.75 320.76,-33.92"/>
<polygon fill="#63b8ff" stroke="#63b8ff" points="400.83,-66.11 411.43,-66.16 403.18,-59.51 400.83,-66.11"/>
</a>
</g>
</g>
<!-- Node3&#45;&gt;Node2 -->
<g id="edge4_Node000003_Node000002" class="edge">
<title>Node3&#45;&gt;Node2</title>
<g id="a_edge4_Node000003_Node000002"><a xlink:title=" ">
<path fill="none" stroke="#63b8ff" d="M235.65,-129.91C213.71,-143.83 184.43,-161.22 157,-173.75 150.16,-176.88 142.83,-179.82 135.5,-182.53"/>
<polygon fill="#63b8ff" stroke="#63b8ff" points="237.39,-132.95 243.91,-124.6 233.61,-127.06 237.39,-132.95"/>
</a>
</g>
</g>
<!-- Node3&#45;&gt;Node3 -->
<g id="edge5_Node000003_Node000003" class="edge">
<title>Node3&#45;&gt;Node3</title>
<g id="a_edge5_Node000003_Node000003"><a xlink:title=" ">
<path fill="none" stroke="#63b8ff" d="M303.47,-134.89C298.26,-138.85 287.6,-141.5 271.5,-141.5 242.87,-141.5 231.46,-133.12 237.28,-123.91"/>
<polygon fill="#63b8ff" stroke="#63b8ff" points="306.83,-135.9 305.42,-125.4 299.97,-134.49 306.83,-135.9"/>
</a>
</g>
</g>
<!-- Node4 -->
<g id="Node000004" class="node">
<title>Node4</title>
<g id="a_Node000004"><a xlink:href="../../d7/d28/classArcane_1_1Materials_1_1EnvCellVector.html#a3efc051a154de29f91f47ef2671b6f77" target="_top" xlink:title="Clone ce vecteur.">
<polygon fill="white" stroke="#666666" points="136.38,-164.5 20.62,-164.5 20.62,-131 136.38,-131 136.38,-164.5"/>
<text xml:space="preserve" text-anchor="start" x="28.62" y="-151" font-family="Helvetica,sans-Serif" font-size="10.00">Arcane::Materials::</text>
<text xml:space="preserve" text-anchor="middle" x="78.5" y="-138.25" font-family="Helvetica,sans-Serif" font-size="10.00">EnvCellVector::clone</text>
</a>
</g>
</g>
<!-- Node3&#45;&gt;Node4 -->
<g id="edge3_Node000003_Node000004" class="edge">
<title>Node3&#45;&gt;Node4</title>
<g id="a_edge3_Node000003_Node000004"><a xlink:title=" ">
<path fill="none" stroke="#63b8ff" d="M181.51,-125.85C166.29,-129.12 150.85,-132.43 136.74,-135.46"/>
<polygon fill="#63b8ff" stroke="#63b8ff" points="182.01,-129.32 191.06,-123.8 180.55,-122.48 182.01,-129.32"/>
</a>
</g>
</g>
<!-- Node5 -->
<g id="Node000005" class="node">
<title>Node5</title>
<g id="a_Node000005"><a xlink:href="../../d7/d28/classArcane_1_1Materials_1_1EnvCellVector.html#afa318ac92e06f6230b6e7e7ab8611e53" target="_top" xlink:title="Constructeur par recopie. L&#39;instance fera référence à rhs.">
<polygon fill="white" stroke="#666666" points="157,-112.5 0,-112.5 0,-79 157,-79 157,-112.5"/>
<text xml:space="preserve" text-anchor="start" x="8" y="-99" font-family="Helvetica,sans-Serif" font-size="10.00">Arcane::Materials::</text>
<text xml:space="preserve" text-anchor="middle" x="78.5" y="-86.25" font-family="Helvetica,sans-Serif" font-size="10.00">EnvCellVector::EnvCellVector</text>
</a>
</g>
</g>
<!-- Node3&#45;&gt;Node5 -->
<g id="edge6_Node000003_Node000005" class="edge">
<title>Node3&#45;&gt;Node5</title>
<g id="a_edge6_Node000003_Node000005"><a xlink:title=" ">
<path fill="none" stroke="#63b8ff" d="M181.25,-101.61C173.22,-101.15 165.13,-100.68 157.21,-100.23"/>
<polygon fill="#63b8ff" stroke="#63b8ff" points="180.84,-105.09 191.03,-102.17 181.24,-98.1 180.84,-105.09"/>
</a>
</g>
</g>
<!-- Node3&#45;&gt;Node6 -->
<g id="edge7_Node000003_Node000006" class="edge">
<title>Node3&#45;&gt;Node6</title>
<g id="a_edge7_Node000003_Node000006"><a xlink:title=" ">
<path fill="none" stroke="#63b8ff" d="M207.62,-86.01C183,-77.89 155.1,-68.69 131.63,-60.94"/>
<polygon fill="#63b8ff" stroke="#63b8ff" points="206.28,-89.25 216.87,-89.06 208.47,-82.6 206.28,-89.25"/>
</a>
</g>
</g>
</g>
</svg>
