<?xml version="1.0" encoding="UTF-8" standalone="no"?>
<!DOCTYPE svg PUBLIC "-//W3C//DTD SVG 1.1//EN"
 "http://www.w3.org/Graphics/SVG/1.1/DTD/svg11.dtd">
<!-- Generated by graphviz version 2.43.0 (0)
 -->
<!-- Title: Arcane::Accelerator::viewIn Pages: 1 -->
<!--zoomable 183 -->

<svg id="main" version="1.1" xmlns="http://www.w3.org/2000/svg" xmlns:xlink="http://www.w3.org/1999/xlink" xml:space="preserve" onload="init(evt)">

<style type="text/css"><![CDATA[
.node, .edge {opacity: 0.7;}
.node.selected, .edge.selected {opacity: 1;}
.edge:hover path { stroke: red; }
.edge:hover polygon { stroke: red; fill: red; }
]]></style>

<defs>
  <circle id="rim" cx="0" cy="0" r="7"/>
  <circle id="rim2" cx="0" cy="0" r="3.5"/>
  <g id="zoomPlus">
    <use xlink:href="#rim" fill="#404040"><set attributeName="fill" to="#808080" begin="zoomplus.mouseover" end="zoomplus.mouseout"/></use>
    <path d="M-4,0h8M0,-4v8" fill="none" stroke="white" stroke-width="1.5" pointer-events="none"/>
  </g>
  <g id="zoomMin">
    <use xlink:href="#rim" fill="#404040"><set attributeName="fill" to="#808080" begin="zoomminus.mouseover" end="zoomminus.mouseout"/></use>
    <path d="M-4,0h8" fill="none" stroke="white" stroke-width="1.5" pointer-events="none"/>
  </g>
  <g id="arrowUp" transform="translate(30 24)">
    <use xlink:href="#rim"/>
    <path pointer-events="none" fill="none" stroke="white" stroke-width="1.5" d="M0,-3.0v7 M-2.5,-0.5L0,-3.0L2.5,-0.5"/>
  </g>
  <g id="arrowRight" transform="rotate(90) translate(36 -43)">
    <use xlink:href="#rim"/>
    <path pointer-events="none" fill="none" stroke="white" stroke-width="1.5" d="M0,-3.0v7 M-2.5,-0.5L0,-3.0L2.5,-0.5"/>
  </g>
  <g id="arrowDown" transform="rotate(180) translate(-30 -48)">
    <use xlink:href="#rim"/>
    <path pointer-events="none" fill="none" stroke="white" stroke-width="1.5" d="M0,-3.0v7 M-2.5,-0.5L0,-3.0L2.5,-0.5"/>
  </g>
  <g id="arrowLeft" transform="rotate(270) translate(-36 17)">
    <use xlink:href="#rim"/>
    <path pointer-events="none" fill="none" stroke="white" stroke-width="1.5" d="M0,-3.0v7 M-2.5,-0.5L0,-3.0L2.5,-0.5"/>
  </g>
  <g id="resetDef">
    <use xlink:href="#rim2" fill="#404040"><set attributeName="fill" to="#808080" begin="reset.mouseover" end="reset.mouseout"/></use>
  </g>
</defs>
<script type="application/ecmascript">
var viewWidth = 586;
var viewHeight = 183;
var sectionId = 'dynsection-18';
</script>
<script type="application/ecmascript" xlink:href="../../svg.min.js"/>
<svg id="graph" class="graph">
<g id="viewport">
<title>Arcane::Accelerator::viewIn</title>
<!-- Node1 -->
<g id="Node000001" class="node">
<title>Node1</title>
<g id="a_Node000001"><a xlink:title="Vue en lecture pour les variables materiaux scalaire.">
<polygon fill="#999999" stroke="#666666" points="578,-91.5 466,-91.5 466,-61.5 578,-61.5 578,-91.5"/>
<text text-anchor="start" x="474" y="-79.5" font-family="Helvetica,sans-Serif" font-size="10.00">Arcane::Accelerator</text>
<text text-anchor="middle" x="522" y="-68.5" font-family="Helvetica,sans-Serif" font-size="10.00">::viewIn</text>
</a>
</g>
</g>
<!-- Node2 -->
<g id="Node000002" class="node">
<title>Node2</title>
<g id="a_Node000002"><a xlink:href="../../d1/d07/classArcane_1_1Materials_1_1MeshEnvironment.html#a1aba2e0e053c1aa2a0288db1c1b9408a" target="_top" xlink:title="Calcul les infos sur les matériaux en mono&#45;matériaux.">
<polygon fill="white" stroke="#666666" points="430,-175 230,-175 230,-134 430,-134 430,-175"/>
<text text-anchor="start" x="238" y="-163" font-family="Helvetica,sans-Serif" font-size="10.00">Arcane::Materials::</text>
<text text-anchor="start" x="238" y="-152" font-family="Helvetica,sans-Serif" font-size="10.00">MeshEnvironment::_computeMaterial</text>
<text text-anchor="middle" x="330" y="-141" font-family="Helvetica,sans-Serif" font-size="10.00">IndexesMonoMat</text>
</a>
</g>
</g>
<!-- Node1&#45;&gt;Node2 -->
<g id="edge1_Node000001_Node000002" class="edge">
<title>Node1&#45;&gt;Node2</title>
<g id="a_edge1_Node000001_Node000002"><a xlink:title=" ">
<path fill="none" stroke="#63b8ff" d="M486.87,-96.5C470.1,-105.8 449.38,-116.54 430,-124.5 421.86,-127.84 413.21,-131.01 404.54,-133.94"/>
<polygon fill="#63b8ff" stroke="#63b8ff" points="488.74,-99.46 495.74,-91.5 485.31,-93.36 488.74,-99.46"/>
</a>
</g>
</g>
<!-- Node4 -->
<g id="Node000004" class="node">
<title>Node4</title>
<g id="a_Node000004"><a xlink:href="../../de/dae/namespaceArcane_1_1Accelerator.html#abe42ad3fadd0271d6ce3ffa09e02c56c" target="_top" xlink:title="Vue en lecture.">
<polygon fill="white" stroke="#666666" points="386,-115.5 274,-115.5 274,-85.5 386,-85.5 386,-115.5"/>
<text text-anchor="start" x="282" y="-103.5" font-family="Helvetica,sans-Serif" font-size="10.00">Arcane::Accelerator</text>
<text text-anchor="middle" x="330" y="-92.5" font-family="Helvetica,sans-Serif" font-size="10.00">::viewIn</text>
</a>
</g>
</g>
<!-- Node1&#45;&gt;Node4 -->
<g id="edge3_Node000001_Node000004" class="edge">
<title>Node1&#45;&gt;Node4</title>
<g id="a_edge3_Node000001_Node000004"><a xlink:title=" ">
<path fill="none" stroke="#63b8ff" d="M455.57,-84.76C432.91,-87.63 407.76,-90.8 386.02,-93.55"/>
<polygon fill="#63b8ff" stroke="#63b8ff" points="456.31,-88.2 465.79,-83.47 455.43,-81.25 456.31,-88.2"/>
</a>
</g>
</g>
<!-- Node5 -->
<g id="Node000005" class="node">
<title>Node5</title>
<g id="a_Node000005"><a xlink:href="../../de/dae/namespaceArcane_1_1Accelerator.html#a537b73e3574bb06cdacd5975ac2dda76" target="_top" xlink:title="Vue en lecture.">
<polygon fill="white" stroke="#666666" points="386,-67.5 274,-67.5 274,-37.5 386,-37.5 386,-67.5"/>
<text text-anchor="start" x="282" y="-55.5" font-family="Helvetica,sans-Serif" font-size="10.00">Arcane::Accelerator</text>
<text text-anchor="middle" x="330" y="-44.5" font-family="Helvetica,sans-Serif" font-size="10.00">::viewIn</text>
</a>
</g>
</g>
<!-- Node1&#45;&gt;Node5 -->
<g id="edge4_Node000001_Node000005" class="edge">
<title>Node1&#45;&gt;Node5</title>
<g id="a_edge4_Node000001_Node000005"><a xlink:title=" ">
<path fill="none" stroke="#63b8ff" d="M455.57,-68.24C432.91,-65.37 407.76,-62.2 386.02,-59.45"/>
<polygon fill="#63b8ff" stroke="#63b8ff" points="455.43,-71.75 465.79,-69.53 456.31,-64.8 455.43,-71.75"/>
</a>
</g>
</g>
<!-- Node6 -->
<g id="Node000006" class="node">
<title>Node6</title>
<g id="a_Node000006"><a xlink:href="../../d0/d32/namespaceArcane.html#aecdf9011fbf16b6ce6f6772e4013f77b" target="_top" xlink:title="Vue en lecture.">
<polygon fill="white" stroke="#666666" points="374.5,-19 285.5,-19 285.5,0 374.5,0 374.5,-19"/>
<text text-anchor="middle" x="330" y="-7" font-family="Helvetica,sans-Serif" font-size="10.00">Arcane::viewIn</text>
</a>
</g>
</g>
<!-- Node1&#45;&gt;Node6 -->
<g id="edge5_Node000001_Node000006" class="edge">
<title>Node1&#45;&gt;Node6</title>
<g id="a_edge5_Node000001_Node000006"><a xlink:title=" ">
<path fill="none" stroke="#63b8ff" d="M488.28,-56.22C471.42,-46.55 450.19,-35.59 430,-28.5 412.33,-22.3 392.14,-17.96 374.61,-15.02"/>
<polygon fill="#63b8ff" stroke="#63b8ff" points="486.77,-59.39 497.17,-61.42 490.31,-53.35 486.77,-59.39"/>
</a>
</g>
</g>
<!-- Node3 -->
<g id="Node000003" class="node">
<title>Node3</title>
<g id="a_Node000003"><a xlink:href="../../d1/d07/classArcane_1_1Materials_1_1MeshEnvironment.html#a7b82be1afe01d69118b1e6456af00a98" target="_top" xlink:title="Calcul les infos sur les matériaux.">
<polygon fill="white" stroke="#666666" points="194,-175 0,-175 0,-134 194,-134 194,-175"/>
<text text-anchor="start" x="8" y="-163" font-family="Helvetica,sans-Serif" font-size="10.00">Arcane::Materials::</text>
<text text-anchor="start" x="8" y="-152" font-family="Helvetica,sans-Serif" font-size="10.00">MeshEnvironment::computeMaterial</text>
<text text-anchor="middle" x="97" y="-141" font-family="Helvetica,sans-Serif" font-size="10.00">Indexes</text>
</a>
</g>
</g>
<!-- Node2&#45;&gt;Node3 -->
<g id="edge2_Node000002_Node000003" class="edge">
<title>Node2&#45;&gt;Node3</title>
<g id="a_edge2_Node000002_Node000003"><a xlink:title=" ">
<path fill="none" stroke="#63b8ff" d="M219.47,-154.5C211.06,-154.5 202.61,-154.5 194.29,-154.5"/>
<polygon fill="#63b8ff" stroke="#63b8ff" points="219.69,-158 229.69,-154.5 219.69,-151 219.69,-158"/>
</a>
</g>
</g>
</g>
</svg>

<g id="navigator" transform="translate(0 0)" fill="#404254">
  <rect fill="#f2f5e9" fill-opacity="0.5" stroke="#606060" stroke-width=".5" x="0" y="0" width="60" height="60"/>
  <use id="zoomplus" xlink:href="#zoomPlus" x="17" y="9" onmousedown="handleZoom(evt,'in')"/>
  <use id="zoomminus" xlink:href="#zoomMin" x="42" y="9" onmousedown="handleZoom(evt,'out')"/>
  <use id="reset" xlink:href="#resetDef" x="30" y="36" onmousedown="handleReset()"/>
   <use id="arrowup" xlink:href="#arrowUp" x="0" y="0" onmousedown="handlePan(0,-1)"/>
  <use id="arrowright" xlink:href="#arrowRight" x="0" y="0" onmousedown="handlePan(1,0)"/>
  <use id="arrowdown" xlink:href="#arrowDown" x="0" y="0" onmousedown="handlePan(0,1)"/>
  <use id="arrowleft" xlink:href="#arrowLeft" x="0" y="0" onmousedown="handlePan(-1,0)"/>
</g>
<svg viewBox="0 0 15 15" width="100%" height="30px" preserveAspectRatio="xMaxYMin meet">
 <g id="arrow_out" transform="scale(0.3 0.3)">
  <a xlink:href="namespaceArcane_1_1Accelerator_ab5d1da28e4e2275bb0acc8fb21fc0bbd_icgraph_org.svg" target="_base">
   <rect id="button" ry="5" rx="5" y="6" x="6" height="38" width="38"
        fill="#f2f5e9" fill-opacity="0.5" stroke="#606060" stroke-width="1.0"/>
   <path id="arrow"
     d="M 11.500037,31.436501 C 11.940474,20.09759 22.043105,11.32322 32.158766,21.979434 L 37.068811,17.246167 C 37.068811,17.246167 37.088388,32 37.088388,32 L 22.160133,31.978069 C 22.160133,31.978069 26.997745,27.140456 26.997745,27.140456 C 18.528582,18.264221 13.291696,25.230495 11.500037,31.436501 z"
     style="fill:#404040;"/>
  </a>
 </g>
</svg>

<style type='text/css'>
<![CDATA[
[data-mouse-over-selected='false'] { opacity: 0.7; }
[data-mouse-over-selected='true']  { opacity: 1.0; }
]]>
</style>
<script type="application/ecmascript"><![CDATA[
document.addEventListener('DOMContentLoaded', (event) => {
  highlightEdges();
  highlightAdjacentNodes();
});
]]></script>
</svg>
