<?xml version="1.0" encoding="UTF-8" standalone="no"?>
<!DOCTYPE svg PUBLIC "-//W3C//DTD SVG 1.1//EN"
 "http://www.w3.org/Graphics/SVG/1.1/DTD/svg11.dtd">
<!-- Generated by graphviz version 2.43.0 (0)
 -->
<!-- Title: Arcane::ListConstEnumeratorT&lt; T &gt; Pages: 1 -->
<svg width="184pt" height="363pt"
 viewBox="0.00 0.00 184.00 363.00" xmlns="http://www.w3.org/2000/svg" xmlns:xlink="http://www.w3.org/1999/xlink">

<svg id="main" version="1.1" xmlns="http://www.w3.org/2000/svg" xmlns:xlink="http://www.w3.org/1999/xlink" xml:space="preserve">

<style type="text/css"><![CDATA[
.node, .edge {opacity: 0.7;}
.node.selected, .edge.selected {opacity: 1;}
.edge:hover path { stroke: red; }
.edge:hover polygon { stroke: red; fill: red; }
]]></style>
<script type="application/ecmascript" xlink:href="../../svg.min.js"/>
<svg id="graph" class="graph">
<g id="graph0" class="graph" transform="scale(1 1) rotate(0) translate(4 359)">
<title>Arcane::ListConstEnumeratorT&lt; T &gt;</title>
<!-- Node1 -->
<g id="Node000001" class="node">
<title>Node1</title>
<g id="a_Node000001"><a xlink:title=" ">
<polygon fill="#999999" stroke="transparent" points="164,-150 12,-150 12,0 164,0 164,-150"/>
<text text-anchor="start" x="17" y="-138" font-family="Helvetica,sans-Serif" font-size="10.00">Arcane::ListConstEnumerator</text>
<text text-anchor="start" x="70.5" y="-127" font-family="Helvetica,sans-Serif" font-size="10.00">T&lt; T &gt;</text>
<text text-anchor="start" x="86" y="-112" font-family="Helvetica,sans-Serif" font-size="10.00"> </text>
<text text-anchor="start" x="19.5" y="-97" font-family="Helvetica,sans-Serif" font-size="10.00">+</text>
<text text-anchor="start" x="36" y="-97" font-family="Helvetica,sans-Serif" font-size="10.00">ListConstEnumeratorT()</text>
<text text-anchor="start" x="19.5" y="-82" font-family="Helvetica,sans-Serif" font-size="10.00">+</text>
<text text-anchor="start" x="36" y="-82" font-family="Helvetica,sans-Serif" font-size="10.00">ListConstEnumeratorT()</text>
<text text-anchor="start" x="19.5" y="-67" font-family="Helvetica,sans-Serif" font-size="10.00">+</text>
<text text-anchor="start" x="36" y="-67" font-family="Helvetica,sans-Serif" font-size="10.00">moveNext()</text>
<text text-anchor="start" x="19.5" y="-52" font-family="Helvetica,sans-Serif" font-size="10.00">+</text>
<text text-anchor="start" x="36" y="-52" font-family="Helvetica,sans-Serif" font-size="10.00">current()</text>
<text text-anchor="start" x="19.5" y="-37" font-family="Helvetica,sans-Serif" font-size="10.00">+</text>
<text text-anchor="start" x="36" y="-37" font-family="Helvetica,sans-Serif" font-size="10.00">operator++()</text>
<text text-anchor="start" x="19.5" y="-22" font-family="Helvetica,sans-Serif" font-size="10.00">+</text>
<text text-anchor="start" x="36" y="-22" font-family="Helvetica,sans-Serif" font-size="10.00">operator*()</text>
<text text-anchor="start" x="19.5" y="-7" font-family="Helvetica,sans-Serif" font-size="10.00">+</text>
<text text-anchor="start" x="36" y="-7" font-family="Helvetica,sans-Serif" font-size="10.00">operator&#45;&gt;()</text>
<polygon fill="#666666" stroke="#666666" points="12,-122 12,-122 164,-122 164,-122 12,-122"/>
<polygon fill="#666666" stroke="#666666" points="12,-107 12,-107 164,-107 164,-107 12,-107"/>
<polygon fill="none" stroke="#666666" points="12,0 12,-150 164,-150 164,0 12,0"/>
</a>
</g>
</g>
<!-- Node2 -->
<g id="Node000002" class="node">
<title>Node2</title>
<g id="a_Node000002"><a xlink:href="../../d2/d1e/classArcane_1_1ListConstEnumeratorBase.html" target="_top" xlink:title="Enumérateur générique constant pour un tableau.">
<polygon fill="white" stroke="transparent" points="176,-355 0,-355 0,-186 176,-186 176,-355"/>
<text text-anchor="start" x="5" y="-342.5" font-family="Helvetica,sans-Serif" font-size="10.00">Arcane::ListConstEnumeratorBase</text>
<text text-anchor="start" x="9" y="-327.5" font-family="Helvetica,sans-Serif" font-size="10.00">#</text>
<text text-anchor="start" x="27" y="-327.5" font-family="Helvetica,sans-Serif" font-size="10.00">m_begin</text>
<text text-anchor="start" x="9" y="-312.5" font-family="Helvetica,sans-Serif" font-size="10.00">#</text>
<text text-anchor="start" x="27" y="-312.5" font-family="Helvetica,sans-Serif" font-size="10.00">m_end</text>
<text text-anchor="start" x="9" y="-297.5" font-family="Helvetica,sans-Serif" font-size="10.00">#</text>
<text text-anchor="start" x="27" y="-297.5" font-family="Helvetica,sans-Serif" font-size="10.00">m_current</text>
<text text-anchor="start" x="9" y="-282.5" font-family="Helvetica,sans-Serif" font-size="10.00">#</text>
<text text-anchor="start" x="27" y="-282.5" font-family="Helvetica,sans-Serif" font-size="10.00">m_elem_size</text>
<text text-anchor="start" x="9" y="-267.5" font-family="Helvetica,sans-Serif" font-size="10.00">+</text>
<text text-anchor="start" x="27" y="-267.5" font-family="Helvetica,sans-Serif" font-size="10.00">ListConstEnumeratorBase()</text>
<text text-anchor="start" x="9" y="-252.5" font-family="Helvetica,sans-Serif" font-size="10.00">+</text>
<text text-anchor="start" x="27" y="-252.5" font-family="Helvetica,sans-Serif" font-size="10.00">reset()</text>
<text text-anchor="start" x="9" y="-237.5" font-family="Helvetica,sans-Serif" font-size="10.00">+</text>
<text text-anchor="start" x="27" y="-237.5" font-family="Helvetica,sans-Serif" font-size="10.00">moveNext()</text>
<text text-anchor="start" x="9" y="-222.5" font-family="Helvetica,sans-Serif" font-size="10.00">+</text>
<text text-anchor="start" x="27" y="-222.5" font-family="Helvetica,sans-Serif" font-size="10.00">current()</text>
<text text-anchor="start" x="9" y="-207.5" font-family="Helvetica,sans-Serif" font-size="10.00">+</text>
<text text-anchor="start" x="27" y="-207.5" font-family="Helvetica,sans-Serif" font-size="10.00">operator++()</text>
<text text-anchor="start" x="9" y="-192.5" font-family="Helvetica,sans-Serif" font-size="10.00">+</text>
<text text-anchor="start" x="27" y="-192.5" font-family="Helvetica,sans-Serif" font-size="10.00">operator*()</text>
<polygon fill="#666666" stroke="#666666" points="0,-337.5 0,-337.5 176,-337.5 176,-337.5 0,-337.5"/>
<polygon fill="#666666" stroke="#666666" points="0,-277.5 0,-277.5 25,-277.5 25,-277.5 0,-277.5"/>
<polygon fill="#666666" stroke="#666666" points="25,-277.5 25,-277.5 176,-277.5 176,-277.5 25,-277.5"/>
<polygon fill="none" stroke="#666666" points="0,-186 0,-355 176,-355 176,-186 0,-186"/>
</a>
</g>
</g>
<!-- Node2&#45;&gt;Node1 -->
<g id="edge1_Node000001_Node000002" class="edge">
<title>Node2&#45;&gt;Node1</title>
<g id="a_edge1_Node000001_Node000002"><a xlink:title=" ">
<path fill="none" stroke="#63b8ff" d="M88,-175.71C88,-167.13 88,-158.52 88,-150.14"/>
<polygon fill="none" stroke="#63b8ff" points="84.5,-175.75 88,-185.75 91.5,-175.75 84.5,-175.75"/>
</a>
</g>
</g>
</g>
</svg>
</svg>

<style type='text/css'>
<![CDATA[
[data-mouse-over-selected='false'] { opacity: 0.7; }
[data-mouse-over-selected='true']  { opacity: 1.0; }
]]>
</style>
<script type="application/ecmascript"><![CDATA[
document.addEventListener('DOMContentLoaded', (event) => {
  highlightEdges();
  highlightAdjacentNodes();
});
]]></script>
</svg>
