<?xml version="1.0" encoding="UTF-8" standalone="no"?>
<!DOCTYPE svg PUBLIC "-//W3C//DTD SVG 1.1//EN"
 "http://www.w3.org/Graphics/SVG/1.1/DTD/svg11.dtd">
<!-- Generated by graphviz version 2.43.0 (0)
 -->
<!-- Title: Arcane::MpiParallelMng::Impl::createMachineShMemWinBase Pages: 1 -->
<svg width="491pt" height="38pt"
 viewBox="0.00 0.00 491.00 38.00" xmlns="http://www.w3.org/2000/svg" xmlns:xlink="http://www.w3.org/1999/xlink">
<g id="graph0" class="graph" transform="scale(1 1) rotate(0) translate(4 34)">
<title>Arcane::MpiParallelMng::Impl::createMachineShMemWinBase</title>
<!-- Node1 -->
<g id="Node000001" class="node">
<title>Node1</title>
<g id="a_Node000001"><a xlink:title="Méthode permettant de créer une fenêtre mémoire dynamique sur le noeud.">
<polygon fill="#999999" stroke="#666666" points="202,-30 0,-30 0,0 202,0 202,-30"/>
<text text-anchor="start" x="8" y="-18" font-family="Helvetica,sans-Serif" font-size="10.00">Arcane::MpiParallelMng</text>
<text text-anchor="middle" x="101" y="-7" font-family="Helvetica,sans-Serif" font-size="10.00">::Impl::createMachineShMemWinBase</text>
</a>
</g>
</g>
<!-- Node2 -->
<g id="Node000002" class="node">
<title>Node2</title>
<g id="a_Node000002"><a xlink:href="../../d0/d32/namespaceArcane.html#ab92dc7635f8e1ceb84728b8c45dba2b1" target="_top" xlink:title="Créé une référence sur un pointeur.">
<polygon fill="white" stroke="#666666" points="338,-24.5 238,-24.5 238,-5.5 338,-5.5 338,-24.5"/>
<text text-anchor="middle" x="288" y="-12.5" font-family="Helvetica,sans-Serif" font-size="10.00">Arcane::makeRef</text>
</a>
</g>
</g>
<!-- Node1&#45;&gt;Node2 -->
<g id="edge1_Node000001_Node000002" class="edge">
<title>Node1&#45;&gt;Node2</title>
<g id="a_edge1_Node000001_Node000002"><a xlink:title=" ">
<path fill="none" stroke="#63b8ff" d="M202.08,-15C210.82,-15 219.47,-15 227.71,-15"/>
<polygon fill="#63b8ff" stroke="#63b8ff" points="227.91,-18.5 237.91,-15 227.91,-11.5 227.91,-18.5"/>
</a>
</g>
</g>
<!-- Node3 -->
<g id="Node000003" class="node">
<title>Node3</title>
<g id="a_Node000003"><a xlink:href="../../d6/da9/classArcane_1_1Ref.html#ab0cd388abdc8d216d1534c5b0ef9cf83" target="_top" xlink:title="Créé une référence à partir de l&#39;instance t.">
<polygon fill="white" stroke="#666666" points="483,-24.5 374,-24.5 374,-5.5 483,-5.5 483,-24.5"/>
<text text-anchor="middle" x="428.5" y="-12.5" font-family="Helvetica,sans-Serif" font-size="10.00">Arcane::Ref::create</text>
</a>
</g>
</g>
<!-- Node2&#45;&gt;Node3 -->
<g id="edge2_Node000002_Node000003" class="edge">
<title>Node2&#45;&gt;Node3</title>
<g id="a_edge2_Node000002_Node000003"><a xlink:title=" ">
<path fill="none" stroke="#63b8ff" d="M338.22,-15C346.4,-15 354.99,-15 363.47,-15"/>
<polygon fill="#63b8ff" stroke="#63b8ff" points="363.74,-18.5 373.74,-15 363.74,-11.5 363.74,-18.5"/>
</a>
</g>
</g>
</g>
</svg>
