<?xml version="1.0" encoding="UTF-8" standalone="no"?>
<!DOCTYPE svg PUBLIC "-//W3C//DTD SVG 1.1//EN"
 "http://www.w3.org/Graphics/SVG/1.1/DTD/svg11.dtd">
<!-- Generated by graphviz version 2.43.0 (0)
 -->
<!-- Title: Arcane::Accelerator::RunQueue::copyMemory Pages: 1 -->
<svg width="366pt" height="252pt"
 viewBox="0.00 0.00 366.00 252.00" xmlns="http://www.w3.org/2000/svg" xmlns:xlink="http://www.w3.org/1999/xlink">

<svg id="main" version="1.1" xmlns="http://www.w3.org/2000/svg" xmlns:xlink="http://www.w3.org/1999/xlink" xml:space="preserve">

<style type="text/css"><![CDATA[
.node, .edge {opacity: 0.7;}
.node.selected, .edge.selected {opacity: 1;}
.edge:hover path { stroke: red; }
.edge:hover polygon { stroke: red; fill: red; }
]]></style>
<script type="application/ecmascript" xlink:href="../../svg.min.js"/>
<svg id="graph" class="graph">
<g id="graph0" class="graph" transform="scale(1 1) rotate(0) translate(4 248)">
<title>Arcane::Accelerator::RunQueue::copyMemory</title>
<!-- Node1 -->
<g id="Node000001" class="node">
<title>Node1</title>
<g id="a_Node000001"><a xlink:title="Copie des informations entre deux zones mémoires.">
<polygon fill="#999999" stroke="#666666" points="358,-148 215,-148 215,-118 358,-118 358,-148"/>
<text text-anchor="start" x="223" y="-136" font-family="Helvetica,sans-Serif" font-size="10.00">Arcane::Accelerator</text>
<text text-anchor="middle" x="286.5" y="-125" font-family="Helvetica,sans-Serif" font-size="10.00">::RunQueue::copyMemory</text>
</a>
</g>
</g>
<!-- Node2 -->
<g id="Node000002" class="node">
<title>Node2</title>
<g id="a_Node000002"><a xlink:href="../../d7/dab/classArcane_1_1Accelerator_1_1Cuda_1_1CudaMemoryCopier.html#af6b3c1ef9bc51c14e25ed2b45e2ce30f" target="_top" xlink:title="Copie les données de from vers to avec la queue queue.">
<polygon fill="white" stroke="#666666" points="179,-244 0,-244 0,-214 179,-214 179,-244"/>
<text text-anchor="start" x="8" y="-232" font-family="Helvetica,sans-Serif" font-size="10.00">Arcane::Accelerator</text>
<text text-anchor="middle" x="89.5" y="-221" font-family="Helvetica,sans-Serif" font-size="10.00">::Cuda::CudaMemoryCopier::copy</text>
</a>
</g>
</g>
<!-- Node1&#45;&gt;Node2 -->
<g id="edge1_Node000001_Node000002" class="edge">
<title>Node1&#45;&gt;Node2</title>
<g id="a_edge1_Node000001_Node000002"><a xlink:title=" ">
<path fill="none" stroke="#63b8ff" d="M259.4,-154.26C238.69,-170.21 208.42,-191.52 179,-205 171.62,-208.38 163.67,-211.37 155.66,-213.98"/>
<polygon fill="#63b8ff" stroke="#63b8ff" points="261.67,-156.93 267.39,-148.01 257.35,-151.42 261.67,-156.93"/>
</a>
</g>
</g>
<!-- Node3 -->
<g id="Node000003" class="node">
<title>Node3</title>
<g id="a_Node000003"><a xlink:href="../../d7/dc1/classArcane_1_1Accelerator_1_1Hip_1_1HipMemoryCopier.html#a48c46afb4289f5c01db04b5cf59f5e21" target="_top" xlink:title="Copie les données de from vers to avec la queue queue.">
<polygon fill="white" stroke="#666666" points="171,-196 8,-196 8,-166 171,-166 171,-196"/>
<text text-anchor="start" x="16" y="-184" font-family="Helvetica,sans-Serif" font-size="10.00">Arcane::Accelerator</text>
<text text-anchor="middle" x="89.5" y="-173" font-family="Helvetica,sans-Serif" font-size="10.00">::Hip::HipMemoryCopier::copy</text>
</a>
</g>
</g>
<!-- Node1&#45;&gt;Node3 -->
<g id="edge2_Node000001_Node000003" class="edge">
<title>Node1&#45;&gt;Node3</title>
<g id="a_edge2_Node000001_Node000003"><a xlink:title=" ">
<path fill="none" stroke="#63b8ff" d="M214.36,-150.51C193.73,-155.59 171.4,-161.09 151.45,-166"/>
<polygon fill="#63b8ff" stroke="#63b8ff" points="215.46,-153.84 224.34,-148.06 213.79,-147.05 215.46,-153.84"/>
</a>
</g>
</g>
<!-- Node4 -->
<g id="Node000004" class="node">
<title>Node4</title>
<g id="a_Node000004"><a xlink:href="../../de/dba/classArcane_1_1Accelerator_1_1Sycl_1_1SyclMemoryCopier.html#a6a967c1f1f34c4967dd6414b74b528a5" target="_top" xlink:title="Copie les données de from vers to avec la queue queue.">
<polygon fill="white" stroke="#666666" points="174.5,-148 4.5,-148 4.5,-118 174.5,-118 174.5,-148"/>
<text text-anchor="start" x="12.5" y="-136" font-family="Helvetica,sans-Serif" font-size="10.00">Arcane::Accelerator</text>
<text text-anchor="middle" x="89.5" y="-125" font-family="Helvetica,sans-Serif" font-size="10.00">::Sycl::SyclMemoryCopier::copy</text>
</a>
</g>
</g>
<!-- Node1&#45;&gt;Node4 -->
<g id="edge3_Node000001_Node000004" class="edge">
<title>Node1&#45;&gt;Node4</title>
<g id="a_edge3_Node000001_Node000004"><a xlink:title=" ">
<path fill="none" stroke="#63b8ff" d="M204.59,-133C194.66,-133 184.51,-133 174.54,-133"/>
<polygon fill="#63b8ff" stroke="#63b8ff" points="204.82,-136.5 214.82,-133 204.82,-129.5 204.82,-136.5"/>
</a>
</g>
</g>
<!-- Node5 -->
<g id="Node000005" class="node">
<title>Node5</title>
<g id="a_Node000005"><a xlink:href="../../d3/ddd/classArcane_1_1Materials_1_1MeshMaterialVariableCommonStaticImpl.html#a5ca7bee596c18bd6498bd05688006899" target="_top" xlink:title=" ">
<polygon fill="white" stroke="#666666" points="173,-100 6,-100 6,-48 173,-48 173,-100"/>
<text text-anchor="start" x="14" y="-88" font-family="Helvetica,sans-Serif" font-size="10.00">Arcane::Materials::</text>
<text text-anchor="start" x="14" y="-77" font-family="Helvetica,sans-Serif" font-size="10.00">MeshMaterialVariableCommon</text>
<text text-anchor="start" x="14" y="-66" font-family="Helvetica,sans-Serif" font-size="10.00">StaticImpl&lt; ThatClass &gt;</text>
<text text-anchor="middle" x="89.5" y="-55" font-family="Helvetica,sans-Serif" font-size="10.00">::getReference</text>
</a>
</g>
</g>
<!-- Node1&#45;&gt;Node5 -->
<g id="edge4_Node000001_Node000005" class="edge">
<title>Node1&#45;&gt;Node5</title>
<g id="a_edge4_Node000001_Node000005"><a xlink:title=" ">
<path fill="none" stroke="#63b8ff" d="M226.16,-115.05C209.42,-109.98 190.91,-104.38 173.07,-98.98"/>
<polygon fill="#63b8ff" stroke="#63b8ff" points="225.2,-118.41 235.79,-117.96 227.23,-111.71 225.2,-118.41"/>
</a>
</g>
</g>
<!-- Node6 -->
<g id="Node000006" class="node">
<title>Node6</title>
<g id="a_Node000006"><a xlink:href="../../d7/dbd/classArcane_1_1Accelerator_1_1IndexSelecter.html#ad172c6f7f5718d898db46c831357b6ea" target="_top" xlink:title="Selectionne les indices selon le prédicat pred et synchronise rqueue_async.">
<polygon fill="white" stroke="#666666" points="167,-30 12,-30 12,0 167,0 167,-30"/>
<text text-anchor="start" x="20" y="-18" font-family="Helvetica,sans-Serif" font-size="10.00">Arcane::Accelerator</text>
<text text-anchor="middle" x="89.5" y="-7" font-family="Helvetica,sans-Serif" font-size="10.00">::IndexSelecter::syncSelectIf</text>
</a>
</g>
</g>
<!-- Node1&#45;&gt;Node6 -->
<g id="edge5_Node000001_Node000006" class="edge">
<title>Node1&#45;&gt;Node6</title>
<g id="a_edge5_Node000001_Node000006"><a xlink:title=" ">
<path fill="none" stroke="#63b8ff" d="M265.65,-110.28C245.77,-88.89 213.27,-57.46 179,-39 172.69,-35.6 165.87,-32.66 158.9,-30.11"/>
<polygon fill="#63b8ff" stroke="#63b8ff" points="263.31,-112.9 272.63,-117.93 268.48,-108.19 263.31,-112.9"/>
</a>
</g>
</g>
</g>
</svg>
</svg>

<style type='text/css'>
<![CDATA[
[data-mouse-over-selected='false'] { opacity: 0.7; }
[data-mouse-over-selected='true']  { opacity: 1.0; }
]]>
</style>
<script type="application/ecmascript"><![CDATA[
document.addEventListener('DOMContentLoaded', (event) => {
  highlightEdges();
  highlightAdjacentNodes();
});
]]></script>
</svg>
