<?xml version="1.0" encoding="UTF-8" standalone="no"?>
<!DOCTYPE svg PUBLIC "-//W3C//DTD SVG 1.1//EN"
 "http://www.w3.org/Graphics/SVG/1.1/DTD/svg11.dtd">
<!-- Generated by graphviz version 14.1.2 (0)
 -->
<!-- Title: Arcane::Accelerator::RunQueue::barrier Pages: 1 -->
<!--zoomable 202 -->

<svg id="main" version="1.1" xmlns="http://www.w3.org/2000/svg" xmlns:xlink="http://www.w3.org/1999/xlink" xml:space="preserve" onload="init(evt)">

<style type="text/css"><![CDATA[
.node, .edge {opacity: 0.7;}
.node.selected, .edge.selected {opacity: 1;}
.edge:hover path { stroke: red; }
.edge:hover polygon { stroke: red; fill: red; }
]]></style>

<defs>
  <circle id="rim" cx="0" cy="0" r="7"/>
  <circle id="rim2" cx="0" cy="0" r="3.5"/>
  <g id="zoomPlus">
    <use xlink:href="#rim" fill="#404040"><set attributeName="fill" to="#808080" begin="zoomplus.mouseover" end="zoomplus.mouseout"/></use>
    <path d="M-4,0h8M0,-4v8" fill="none" stroke="white" stroke-width="1.5" pointer-events="none"/>
  </g>
  <g id="zoomMin">
    <use xlink:href="#rim" fill="#404040"><set attributeName="fill" to="#808080" begin="zoomminus.mouseover" end="zoomminus.mouseout"/></use>
    <path d="M-4,0h8" fill="none" stroke="white" stroke-width="1.5" pointer-events="none"/>
  </g>
  <g id="arrowUp" transform="translate(30 24)">
    <use xlink:href="#rim"/>
    <path pointer-events="none" fill="none" stroke="white" stroke-width="1.5" d="M0,-3.0v7 M-2.5,-0.5L0,-3.0L2.5,-0.5"/>
  </g>
  <g id="arrowRight" transform="rotate(90) translate(36 -43)">
    <use xlink:href="#rim"/>
    <path pointer-events="none" fill="none" stroke="white" stroke-width="1.5" d="M0,-3.0v7 M-2.5,-0.5L0,-3.0L2.5,-0.5"/>
  </g>
  <g id="arrowDown" transform="rotate(180) translate(-30 -48)">
    <use xlink:href="#rim"/>
    <path pointer-events="none" fill="none" stroke="white" stroke-width="1.5" d="M0,-3.0v7 M-2.5,-0.5L0,-3.0L2.5,-0.5"/>
  </g>
  <g id="arrowLeft" transform="rotate(270) translate(-36 17)">
    <use xlink:href="#rim"/>
    <path pointer-events="none" fill="none" stroke="white" stroke-width="1.5" d="M0,-3.0v7 M-2.5,-0.5L0,-3.0L2.5,-0.5"/>
  </g>
  <g id="resetDef">
    <use xlink:href="#rim2" fill="#404040"><set attributeName="fill" to="#808080" begin="reset.mouseover" end="reset.mouseout"/></use>
  </g>
</defs>
<script type="application/ecmascript">
var viewWidth = 504;
var viewHeight = 202;
var sectionId = 'dynsection-4';
</script>
<script type="application/ecmascript" xlink:href="../../svg.min.js"/>
<svg id="graph" class="graph">
<g id="viewport">
<title>Arcane::Accelerator::RunQueue::barrier</title>
<!-- Node1 -->
<g id="Node000001" class="node">
<title>Node1</title>
<g id="a_Node000001"><a xlink:title="Bloque tant que toutes les commandes associées à la file ne sont pas terminées.">
<polygon fill="#999999" stroke="#666666" points="495.75,-91.5 384.5,-91.5 384.5,-58 495.75,-58 495.75,-91.5"/>
<text xml:space="preserve" text-anchor="start" x="392.5" y="-78" font-family="Helvetica,sans-Serif" font-size="10.00">Arcane::Accelerator</text>
<text xml:space="preserve" text-anchor="middle" x="440.12" y="-65.25" font-family="Helvetica,sans-Serif" font-size="10.00">::RunQueue::barrier</text>
</a>
</g>
</g>
<!-- Node2 -->
<g id="Node000002" class="node">
<title>Node2</title>
<g id="a_Node000002"><a xlink:href="../../d8/d40/classArcane_1_1Accelerator_1_1Impl_1_1GenericPartitionerIf.html#a7b357a3ded20bc889327a5f84c4c874f" target="_top" xlink:title="Effectue le partitionnement d&#39;une liste en deux parties.">
<polygon fill="white" stroke="#666666" points="316.62,-161.88 179.12,-161.88 179.12,-115.62 316.62,-115.62 316.62,-161.88"/>
<text xml:space="preserve" text-anchor="start" x="187.12" y="-148.38" font-family="Helvetica,sans-Serif" font-size="10.00">Arcane::Accelerator</text>
<text xml:space="preserve" text-anchor="start" x="187.12" y="-135.62" font-family="Helvetica,sans-Serif" font-size="10.00">::Impl::GenericPartitioner</text>
<text xml:space="preserve" text-anchor="middle" x="247.88" y="-122.88" font-family="Helvetica,sans-Serif" font-size="10.00">If::apply</text>
</a>
</g>
</g>
<!-- Node1&#45;&gt;Node2 -->
<g id="edge1_Node000001_Node000002" class="edge">
<title>Node1&#45;&gt;Node2</title>
<g id="a_edge1_Node000001_Node000002"><a xlink:title=" ">
<path fill="none" stroke="#63b8ff" d="M380.71,-95.65C370.01,-99.4 358.94,-103.23 348.5,-106.75 338.34,-110.17 327.58,-113.72 317.02,-117.15"/>
<polygon fill="#63b8ff" stroke="#63b8ff" points="381.54,-99.07 389.81,-92.45 379.22,-92.47 381.54,-99.07"/>
</a>
</g>
</g>
<!-- Node5 -->
<g id="Node000005" class="node">
<title>Node5</title>
<g id="a_Node000005"><a xlink:href="../../de/d22/classArcane_1_1Materials_1_1AcceleratorMeshMaterialSynchronizerImpl.html#ae247b85d9eea8bfacc5c819abbcd1d21" target="_top" xlink:title="Synchronisation de la liste des matériaux/milieux des entités.">
<polygon fill="white" stroke="#666666" points="348.5,-97.88 147.25,-97.88 147.25,-51.62 348.5,-51.62 348.5,-97.88"/>
<text xml:space="preserve" text-anchor="start" x="155.25" y="-84.38" font-family="Helvetica,sans-Serif" font-size="10.00">Arcane::Materials::</text>
<text xml:space="preserve" text-anchor="start" x="155.25" y="-71.62" font-family="Helvetica,sans-Serif" font-size="10.00">AcceleratorMeshMaterialSynchronizer</text>
<text xml:space="preserve" text-anchor="middle" x="247.88" y="-58.88" font-family="Helvetica,sans-Serif" font-size="10.00">Impl::synchronizeMaterialsInCells</text>
</a>
</g>
</g>
<!-- Node1&#45;&gt;Node5 -->
<g id="edge4_Node000001_Node000005" class="edge">
<title>Node1&#45;&gt;Node5</title>
<g id="a_edge4_Node000001_Node000005"><a xlink:title=" ">
<path fill="none" stroke="#63b8ff" d="M372.65,-74.75C364.96,-74.75 356.98,-74.75 348.96,-74.75"/>
<polygon fill="#63b8ff" stroke="#63b8ff" points="372.58,-78.25 382.58,-74.75 372.58,-71.25 372.58,-78.25"/>
</a>
</g>
</g>
<!-- Node6 -->
<g id="Node000006" class="node">
<title>Node6</title>
<g id="a_Node000006"><a xlink:href="../../d7/dbd/classArcane_1_1Accelerator_1_1IndexSelecter.html#ad172c6f7f5718d898db46c831357b6ea" target="_top" xlink:title="Selectionne les indices selon le prédicat pred et synchronise rqueue_async.">
<polygon fill="white" stroke="#666666" points="324.88,-33.5 170.88,-33.5 170.88,0 324.88,0 324.88,-33.5"/>
<text xml:space="preserve" text-anchor="start" x="178.88" y="-20" font-family="Helvetica,sans-Serif" font-size="10.00">Arcane::Accelerator</text>
<text xml:space="preserve" text-anchor="middle" x="247.88" y="-7.25" font-family="Helvetica,sans-Serif" font-size="10.00">::IndexSelecter::syncSelectIf</text>
</a>
</g>
</g>
<!-- Node1&#45;&gt;Node6 -->
<g id="edge5_Node000001_Node000006" class="edge">
<title>Node1&#45;&gt;Node6</title>
<g id="a_edge5_Node000001_Node000006"><a xlink:title=" ">
<path fill="none" stroke="#63b8ff" d="M381.96,-53.74C370.91,-49.92 359.39,-46.09 348.5,-42.75 338.67,-39.74 328.23,-36.77 317.95,-33.97"/>
<polygon fill="#63b8ff" stroke="#63b8ff" points="380.78,-57.04 391.38,-57.05 383.1,-50.44 380.78,-57.04"/>
</a>
</g>
</g>
<!-- Node3 -->
<g id="Node000003" class="node">
<title>Node3</title>
<g id="a_Node000003"><a xlink:href="../../d9/d69/classArcane_1_1Accelerator_1_1GenericPartitioner.html#a8f0023c15c64ea55b52a4263d82dde30" target="_top" xlink:title="Effectue un partitionnement d&#39;une liste en deux parties.">
<polygon fill="white" stroke="#666666" points="111.25,-193.88 0,-193.88 0,-147.62 111.25,-147.62 111.25,-193.88"/>
<text xml:space="preserve" text-anchor="start" x="8" y="-180.38" font-family="Helvetica,sans-Serif" font-size="10.00">Arcane::Accelerator</text>
<text xml:space="preserve" text-anchor="start" x="8" y="-167.62" font-family="Helvetica,sans-Serif" font-size="10.00">::GenericPartitioner</text>
<text xml:space="preserve" text-anchor="middle" x="55.62" y="-154.88" font-family="Helvetica,sans-Serif" font-size="10.00">::applyIf</text>
</a>
</g>
</g>
<!-- Node2&#45;&gt;Node3 -->
<g id="edge2_Node000002_Node000003" class="edge">
<title>Node2&#45;&gt;Node3</title>
<g id="a_edge2_Node000002_Node000003"><a xlink:title=" ">
<path fill="none" stroke="#63b8ff" d="M167.45,-152.11C148.62,-155.28 128.95,-158.58 111.49,-161.52"/>
<polygon fill="#63b8ff" stroke="#63b8ff" points="167.95,-155.57 177.24,-150.46 166.79,-148.67 167.95,-155.57"/>
</a>
</g>
</g>
<!-- Node4 -->
<g id="Node000004" class="node">
<title>Node4</title>
<g id="a_Node000004"><a xlink:href="../../d9/d69/classArcane_1_1Accelerator_1_1GenericPartitioner.html#a93ec1319a99b99b9db1d2d77b7c78a1f" target="_top" xlink:title="Effectue un partitionnement d&#39;une liste en deux parties.">
<polygon fill="white" stroke="#666666" points="111.25,-129.88 0,-129.88 0,-83.62 111.25,-83.62 111.25,-129.88"/>
<text xml:space="preserve" text-anchor="start" x="8" y="-116.38" font-family="Helvetica,sans-Serif" font-size="10.00">Arcane::Accelerator</text>
<text xml:space="preserve" text-anchor="start" x="8" y="-103.62" font-family="Helvetica,sans-Serif" font-size="10.00">::GenericPartitioner</text>
<text xml:space="preserve" text-anchor="middle" x="55.62" y="-90.88" font-family="Helvetica,sans-Serif" font-size="10.00">::applyWithIndex</text>
</a>
</g>
</g>
<!-- Node2&#45;&gt;Node4 -->
<g id="edge3_Node000002_Node000004" class="edge">
<title>Node2&#45;&gt;Node4</title>
<g id="a_edge3_Node000002_Node000004"><a xlink:title=" ">
<path fill="none" stroke="#63b8ff" d="M167.45,-125.39C148.62,-122.22 128.95,-118.92 111.49,-115.98"/>
<polygon fill="#63b8ff" stroke="#63b8ff" points="166.79,-128.83 177.24,-127.04 167.95,-121.93 166.79,-128.83"/>
</a>
</g>
</g>
</g>
</svg>

<g id="navigator" transform="translate(0 0)" fill="#404254">
  <rect fill="#f2f5e9" fill-opacity="0.5" stroke="#606060" stroke-width=".5" x="0" y="0" width="60" height="60"/>
  <use id="zoomplus" xlink:href="#zoomPlus" x="17" y="9" onmousedown="handleZoom(evt,'in')"/>
  <use id="zoomminus" xlink:href="#zoomMin" x="42" y="9" onmousedown="handleZoom(evt,'out')"/>
  <use id="reset" xlink:href="#resetDef" x="30" y="36" onmousedown="handleReset()"/>
   <use id="arrowup" xlink:href="#arrowUp" x="0" y="0" onmousedown="handlePan(0,-1)"/>
  <use id="arrowright" xlink:href="#arrowRight" x="0" y="0" onmousedown="handlePan(1,0)"/>
  <use id="arrowdown" xlink:href="#arrowDown" x="0" y="0" onmousedown="handlePan(0,1)"/>
  <use id="arrowleft" xlink:href="#arrowLeft" x="0" y="0" onmousedown="handlePan(-1,0)"/>
</g>
<svg viewBox="0 0 15 15" width="100%" height="30px" preserveAspectRatio="xMaxYMin meet">
 <g id="arrow_out" transform="scale(0.3 0.3)">
  <a xlink:href="classArcane_1_1Accelerator_1_1RunQueue_a9e1a187350b51cedf9ff024383301736_icgraph_org.svg" target="_base">
   <rect id="button" ry="5" rx="5" y="6" x="6" height="38" width="38"
        fill="#f2f5e9" fill-opacity="0.5" stroke="#606060" stroke-width="1.0"/>
   <path id="arrow"
     d="M 11.500037,31.436501 C 11.940474,20.09759 22.043105,11.32322 32.158766,21.979434 L 37.068811,17.246167 C 37.068811,17.246167 37.088388,32 37.088388,32 L 22.160133,31.978069 C 22.160133,31.978069 26.997745,27.140456 26.997745,27.140456 C 18.528582,18.264221 13.291696,25.230495 11.500037,31.436501 z"
     style="fill:#404040;"/>
  </a>
 </g>
</svg>

<style type='text/css'>
<![CDATA[
[data-mouse-over-selected='false'] { opacity: 0.7; }
[data-mouse-over-selected='true']  { opacity: 1.0; }
]]>
</style>
<script type="application/ecmascript"><![CDATA[
document.addEventListener('DOMContentLoaded', (event) => {
  highlightEdges();
  highlightAdjacentNodes();
});
]]></script>
</svg>
