<?xml version="1.0" encoding="UTF-8" standalone="no"?>
<!DOCTYPE svg PUBLIC "-//W3C//DTD SVG 1.1//EN"
 "http://www.w3.org/Graphics/SVG/1.1/DTD/svg11.dtd">
<!-- Generated by graphviz version 2.43.0 (0)
 -->
<!-- Title: Arcane::BadOperandException Pages: 1 -->
<svg width="166pt" height="587pt"
 viewBox="0.00 0.00 166.00 587.00" xmlns="http://www.w3.org/2000/svg" xmlns:xlink="http://www.w3.org/1999/xlink">
<g id="graph0" class="graph" transform="scale(1 1) rotate(0) translate(4 583)">
<title>Arcane::BadOperandException</title>
<!-- Node1 -->
<g id="Node000001" class="node">
<title>Node1</title>
<g id="a_Node000001"><a xlink:title="Exception sur les opérandes des opérations des expressions.">
<polygon fill="#999999" stroke="transparent" points="158,-64 0,-64 0,0 158,0 158,-64"/>
<text text-anchor="start" x="5" y="-52" font-family="Helvetica,sans-Serif" font-size="10.00">Arcane::BadOperandException</text>
<text text-anchor="start" x="77" y="-37" font-family="Helvetica,sans-Serif" font-size="10.00"> </text>
<text text-anchor="start" x="9" y="-22" font-family="Helvetica,sans-Serif" font-size="10.00">+</text>
<text text-anchor="start" x="27" y="-22" font-family="Helvetica,sans-Serif" font-size="10.00">BadOperandException()</text>
<text text-anchor="start" x="9" y="-7" font-family="Helvetica,sans-Serif" font-size="10.00">+</text>
<text text-anchor="start" x="27" y="-7" font-family="Helvetica,sans-Serif" font-size="10.00">explain()</text>
<polygon fill="#666666" stroke="#666666" points="0,-47 0,-47 158,-47 158,-47 0,-47"/>
<polygon fill="#666666" stroke="#666666" points="0,-32 0,-32 158,-32 158,-32 0,-32"/>
<polygon fill="none" stroke="#666666" points="0,0 0,-64 158,-64 158,0 0,0"/>
</a>
</g>
</g>
<!-- Node2 -->
<g id="Node000002" class="node">
<title>Node2</title>
<g id="a_Node000002"><a xlink:href="../../dd/df6/classArcane_1_1Exception.html" target="_top" xlink:title="Classe de base d&#39;une exception.">
<polygon fill="white" stroke="transparent" points="152,-494 6,-494 6,-100 152,-100 152,-494"/>
<text text-anchor="start" x="35" y="-482" font-family="Helvetica,sans-Serif" font-size="10.00">Arcane::Exception</text>
<text text-anchor="start" x="12.5" y="-467" font-family="Helvetica,sans-Serif" font-size="10.00">&#45;</text>
<text text-anchor="start" x="23" y="-467" font-family="Helvetica,sans-Serif" font-size="10.00">m_name</text>
<text text-anchor="start" x="12.5" y="-452" font-family="Helvetica,sans-Serif" font-size="10.00">&#45;</text>
<text text-anchor="start" x="23" y="-452" font-family="Helvetica,sans-Serif" font-size="10.00">m_where</text>
<text text-anchor="start" x="12.5" y="-437" font-family="Helvetica,sans-Serif" font-size="10.00">&#45;</text>
<text text-anchor="start" x="23" y="-437" font-family="Helvetica,sans-Serif" font-size="10.00">m_stack_trace</text>
<text text-anchor="start" x="12.5" y="-422" font-family="Helvetica,sans-Serif" font-size="10.00">&#45;</text>
<text text-anchor="start" x="23" y="-422" font-family="Helvetica,sans-Serif" font-size="10.00">m_message</text>
<text text-anchor="start" x="12.5" y="-407" font-family="Helvetica,sans-Serif" font-size="10.00">&#45;</text>
<text text-anchor="start" x="23" y="-407" font-family="Helvetica,sans-Serif" font-size="10.00">m_additional_info</text>
<text text-anchor="start" x="12.5" y="-392" font-family="Helvetica,sans-Serif" font-size="10.00">&#45;</text>
<text text-anchor="start" x="23" y="-392" font-family="Helvetica,sans-Serif" font-size="10.00">m_is_collective</text>
<text text-anchor="start" x="12.5" y="-377" font-family="Helvetica,sans-Serif" font-size="10.00">&#45;</text>
<text text-anchor="start" x="23" y="-377" font-family="Helvetica,sans-Serif" font-size="10.00">m_nb_pending_exception</text>
<text text-anchor="start" x="10" y="-362" font-family="Helvetica,sans-Serif" font-size="10.00">+</text>
<text text-anchor="start" x="23" y="-362" font-family="Helvetica,sans-Serif" font-size="10.00">operator=()</text>
<text text-anchor="start" x="10" y="-347" font-family="Helvetica,sans-Serif" font-size="10.00">+</text>
<text text-anchor="start" x="23" y="-347" font-family="Helvetica,sans-Serif" font-size="10.00">Exception()</text>
<text text-anchor="start" x="10" y="-332" font-family="Helvetica,sans-Serif" font-size="10.00">+</text>
<text text-anchor="start" x="23" y="-332" font-family="Helvetica,sans-Serif" font-size="10.00">Exception()</text>
<text text-anchor="start" x="10" y="-317" font-family="Helvetica,sans-Serif" font-size="10.00">+</text>
<text text-anchor="start" x="23" y="-317" font-family="Helvetica,sans-Serif" font-size="10.00">Exception()</text>
<text text-anchor="start" x="10" y="-302" font-family="Helvetica,sans-Serif" font-size="10.00">+</text>
<text text-anchor="start" x="23" y="-302" font-family="Helvetica,sans-Serif" font-size="10.00">Exception()</text>
<text text-anchor="start" x="10" y="-287" font-family="Helvetica,sans-Serif" font-size="10.00">+</text>
<text text-anchor="start" x="23" y="-287" font-family="Helvetica,sans-Serif" font-size="10.00">Exception()</text>
<text text-anchor="start" x="10" y="-272" font-family="Helvetica,sans-Serif" font-size="10.00">+</text>
<text text-anchor="start" x="23" y="-272" font-family="Helvetica,sans-Serif" font-size="10.00">Exception()</text>
<text text-anchor="start" x="10" y="-257" font-family="Helvetica,sans-Serif" font-size="10.00">+</text>
<text text-anchor="start" x="23" y="-257" font-family="Helvetica,sans-Serif" font-size="10.00">Exception()</text>
<text text-anchor="start" x="10" y="-242" font-family="Helvetica,sans-Serif" font-size="10.00">+</text>
<text text-anchor="start" x="23" y="-242" font-family="Helvetica,sans-Serif" font-size="10.00">Exception()</text>
<text text-anchor="start" x="10" y="-227" font-family="Helvetica,sans-Serif" font-size="10.00">+</text>
<text text-anchor="start" x="23" y="-227" font-family="Helvetica,sans-Serif" font-size="10.00">Exception()</text>
<text text-anchor="start" x="23" y="-212" font-family="Helvetica,sans-Serif" font-size="10.00">et 11 de plus...</text>
<text text-anchor="start" x="10" y="-197" font-family="Helvetica,sans-Serif" font-size="10.00">+</text>
<text text-anchor="start" x="23" y="-197" font-family="Helvetica,sans-Serif" font-size="10.00">hasPendingException()</text>
<text text-anchor="start" x="10" y="-182" font-family="Helvetica,sans-Serif" font-size="10.00">+</text>
<text text-anchor="start" x="23" y="-182" font-family="Helvetica,sans-Serif" font-size="10.00">staticInit()</text>
<text text-anchor="start" x="10" y="-167" font-family="Helvetica,sans-Serif" font-size="10.00">#</text>
<text text-anchor="start" x="23" y="-167" font-family="Helvetica,sans-Serif" font-size="10.00">explain()</text>
<text text-anchor="start" x="10" y="-152" font-family="Helvetica,sans-Serif" font-size="10.00">#</text>
<text text-anchor="start" x="23" y="-152" font-family="Helvetica,sans-Serif" font-size="10.00">setMessage()</text>
<text text-anchor="start" x="12.5" y="-137" font-family="Helvetica,sans-Serif" font-size="10.00">&#45;</text>
<text text-anchor="start" x="23" y="-137" font-family="Helvetica,sans-Serif" font-size="10.00">_setStackTrace()</text>
<text text-anchor="start" x="12.5" y="-122" font-family="Helvetica,sans-Serif" font-size="10.00">&#45;</text>
<text text-anchor="start" x="23" y="-122" font-family="Helvetica,sans-Serif" font-size="10.00">_setWhere()</text>
<text text-anchor="start" x="12.5" y="-107" font-family="Helvetica,sans-Serif" font-size="10.00">&#45;</text>
<text text-anchor="start" x="23" y="-107" font-family="Helvetica,sans-Serif" font-size="10.00">_checkExplainAndPause()</text>
<polygon fill="#666666" stroke="#666666" points="6,-477 6,-477 152,-477 152,-477 6,-477"/>
<polygon fill="#666666" stroke="#666666" points="6,-372 6,-372 21,-372 21,-372 6,-372"/>
<polygon fill="#666666" stroke="#666666" points="21,-372 21,-372 152,-372 152,-372 21,-372"/>
<polygon fill="none" stroke="#666666" points="6,-100 6,-494 152,-494 152,-100 6,-100"/>
</a>
</g>
</g>
<!-- Node2&#45;&gt;Node1 -->
<g id="edge1_Node000001_Node000002" class="edge">
<title>Node2&#45;&gt;Node1</title>
<g id="a_edge1_Node000001_Node000002"><a xlink:title=" ">
<path fill="none" stroke="#63b8ff" d="M79,-89.68C79,-80.3 79,-71.69 79,-64.16"/>
<polygon fill="none" stroke="#63b8ff" points="75.5,-89.71 79,-99.71 82.5,-89.71 75.5,-89.71"/>
</a>
</g>
</g>
<!-- Node3 -->
<g id="Node000003" class="node">
<title>Node3</title>
<g id="a_Node000003"><a xlink:title=" ">
<polygon fill="white" stroke="transparent" points="119,-579 39,-579 39,-530 119,-530 119,-579"/>
<text text-anchor="start" x="44" y="-566.5" font-family="Helvetica,sans-Serif" font-size="10.00">std::exception</text>
<text text-anchor="start" x="77" y="-551.5" font-family="Helvetica,sans-Serif" font-size="10.00"> </text>
<text text-anchor="start" x="77" y="-536.5" font-family="Helvetica,sans-Serif" font-size="10.00"> </text>
<polygon fill="#bfbfbf" stroke="#bfbfbf" points="39,-561.5 39,-561.5 119,-561.5 119,-561.5 39,-561.5"/>
<polygon fill="#bfbfbf" stroke="#bfbfbf" points="39,-546.5 39,-546.5 119,-546.5 119,-546.5 39,-546.5"/>
<polygon fill="none" stroke="#bfbfbf" points="39,-530 39,-579 119,-579 119,-530 39,-530"/>
</a>
</g>
</g>
<!-- Node3&#45;&gt;Node2 -->
<g id="edge2_Node000002_Node000003" class="edge">
<title>Node3&#45;&gt;Node2</title>
<g id="a_edge2_Node000002_Node000003"><a xlink:title=" ">
<path fill="none" stroke="#63b8ff" d="M79,-519.8C79,-512.15 79,-503.48 79,-494.12"/>
<polygon fill="none" stroke="#63b8ff" points="75.5,-519.92 79,-529.92 82.5,-519.92 75.5,-519.92"/>
</a>
</g>
</g>
</g>
</svg>
