<?xml version="1.0" encoding="UTF-8" standalone="no"?>
<!DOCTYPE svg PUBLIC "-//W3C//DTD SVG 1.1//EN"
 "http://www.w3.org/Graphics/SVG/1.1/DTD/svg11.dtd">
<!-- Generated by graphviz version 2.43.0 (0)
 -->
<!-- Title: Arcane::EventObservable&lt; Args &gt; Pages: 1 -->
<svg width="166pt" height="333pt"
 viewBox="0.00 0.00 166.00 333.00" xmlns="http://www.w3.org/2000/svg" xmlns:xlink="http://www.w3.org/1999/xlink">

<svg id="main" version="1.1" xmlns="http://www.w3.org/2000/svg" xmlns:xlink="http://www.w3.org/1999/xlink" xml:space="preserve">

<style type="text/css"><![CDATA[
.node, .edge {opacity: 0.7;}
.node.selected, .edge.selected {opacity: 1;}
.edge:hover path { stroke: red; }
.edge:hover polygon { stroke: red; fill: red; }
]]></style>
<script type="application/ecmascript" xlink:href="../../svg.min.js"/>
<svg id="graph" class="graph">
<g id="graph0" class="graph" transform="scale(1 1) rotate(0) translate(4 329)">
<title>Arcane::EventObservable&lt; Args &gt;</title>
<!-- Node1 -->
<g id="Node000001" class="node">
<title>Node1</title>
<g id="a_Node000001"><a xlink:title="Classe de base d&#39;un handler d&#39;évènement.">
<polygon fill="#999999" stroke="transparent" points="146,-150 12,-150 12,0 146,0 146,-150"/>
<text text-anchor="start" x="17" y="-138" font-family="Helvetica,sans-Serif" font-size="10.00">Arcane::EventObservable</text>
<text text-anchor="start" x="56.5" y="-127" font-family="Helvetica,sans-Serif" font-size="10.00">&lt; Args &gt;</text>
<text text-anchor="start" x="77" y="-112" font-family="Helvetica,sans-Serif" font-size="10.00"> </text>
<text text-anchor="start" x="21.5" y="-97" font-family="Helvetica,sans-Serif" font-size="10.00">+</text>
<text text-anchor="start" x="40" y="-97" font-family="Helvetica,sans-Serif" font-size="10.00">EventObservable()</text>
<text text-anchor="start" x="21.5" y="-82" font-family="Helvetica,sans-Serif" font-size="10.00">+</text>
<text text-anchor="start" x="40" y="-82" font-family="Helvetica,sans-Serif" font-size="10.00">EventObservable()</text>
<text text-anchor="start" x="21.5" y="-67" font-family="Helvetica,sans-Serif" font-size="10.00">+</text>
<text text-anchor="start" x="40" y="-67" font-family="Helvetica,sans-Serif" font-size="10.00">operator=()</text>
<text text-anchor="start" x="21.5" y="-52" font-family="Helvetica,sans-Serif" font-size="10.00">+</text>
<text text-anchor="start" x="40" y="-52" font-family="Helvetica,sans-Serif" font-size="10.00">attach()</text>
<text text-anchor="start" x="21.5" y="-37" font-family="Helvetica,sans-Serif" font-size="10.00">+</text>
<text text-anchor="start" x="40" y="-37" font-family="Helvetica,sans-Serif" font-size="10.00">detach()</text>
<text text-anchor="start" x="21.5" y="-22" font-family="Helvetica,sans-Serif" font-size="10.00">+</text>
<text text-anchor="start" x="40" y="-22" font-family="Helvetica,sans-Serif" font-size="10.00">attach()</text>
<text text-anchor="start" x="21.5" y="-7" font-family="Helvetica,sans-Serif" font-size="10.00">+</text>
<text text-anchor="start" x="40" y="-7" font-family="Helvetica,sans-Serif" font-size="10.00">notify()</text>
<polygon fill="#666666" stroke="#666666" points="12,-122 12,-122 146,-122 146,-122 12,-122"/>
<polygon fill="#666666" stroke="#666666" points="12,-107 12,-107 146,-107 146,-107 12,-107"/>
<polygon fill="none" stroke="#666666" points="12,0 12,-150 146,-150 146,0 12,0"/>
</a>
</g>
</g>
<!-- Node2 -->
<g id="Node000002" class="node">
<title>Node2</title>
<g id="a_Node000002"><a xlink:href="../../d2/d36/classArcane_1_1EventObservableBase.html" target="_top" xlink:title="Classe de base d&#39;un handler d&#39;évènement.">
<polygon fill="white" stroke="transparent" points="158,-325 0,-325 0,-186 158,-186 158,-325"/>
<text text-anchor="start" x="5" y="-312.5" font-family="Helvetica,sans-Serif" font-size="10.00">Arcane::EventObservableBase</text>
<text text-anchor="start" x="9.5" y="-297.5" font-family="Helvetica,sans-Serif" font-size="10.00">&#45;</text>
<text text-anchor="start" x="23" y="-297.5" font-family="Helvetica,sans-Serif" font-size="10.00">m_p</text>
<text text-anchor="start" x="7" y="-282.5" font-family="Helvetica,sans-Serif" font-size="10.00">+</text>
<text text-anchor="start" x="23" y="-282.5" font-family="Helvetica,sans-Serif" font-size="10.00">EventObservableBase()</text>
<text text-anchor="start" x="7" y="-267.5" font-family="Helvetica,sans-Serif" font-size="10.00">+</text>
<text text-anchor="start" x="23" y="-267.5" font-family="Helvetica,sans-Serif" font-size="10.00">~EventObservableBase()</text>
<text text-anchor="start" x="7" y="-252.5" font-family="Helvetica,sans-Serif" font-size="10.00">+</text>
<text text-anchor="start" x="23" y="-252.5" font-family="Helvetica,sans-Serif" font-size="10.00">hasObservers()</text>
<text text-anchor="start" x="7" y="-237.5" font-family="Helvetica,sans-Serif" font-size="10.00">+</text>
<text text-anchor="start" x="23" y="-237.5" font-family="Helvetica,sans-Serif" font-size="10.00">detachAllObservers()</text>
<text text-anchor="start" x="7" y="-222.5" font-family="Helvetica,sans-Serif" font-size="10.00">#</text>
<text text-anchor="start" x="23" y="-222.5" font-family="Helvetica,sans-Serif" font-size="10.00">_attachObserver()</text>
<text text-anchor="start" x="7" y="-207.5" font-family="Helvetica,sans-Serif" font-size="10.00">#</text>
<text text-anchor="start" x="23" y="-207.5" font-family="Helvetica,sans-Serif" font-size="10.00">_detachObserver()</text>
<text text-anchor="start" x="7" y="-192.5" font-family="Helvetica,sans-Serif" font-size="10.00">#</text>
<text text-anchor="start" x="23" y="-192.5" font-family="Helvetica,sans-Serif" font-size="10.00">_observers()</text>
<polygon fill="#666666" stroke="#666666" points="0,-307.5 0,-307.5 158,-307.5 158,-307.5 0,-307.5"/>
<polygon fill="#666666" stroke="#666666" points="0,-292.5 0,-292.5 21,-292.5 21,-292.5 0,-292.5"/>
<polygon fill="#666666" stroke="#666666" points="21,-292.5 21,-292.5 158,-292.5 158,-292.5 21,-292.5"/>
<polygon fill="none" stroke="#666666" points="0,-186 0,-325 158,-325 158,-186 0,-186"/>
</a>
</g>
</g>
<!-- Node2&#45;&gt;Node1 -->
<g id="edge1_Node000001_Node000002" class="edge">
<title>Node2&#45;&gt;Node1</title>
<g id="a_edge1_Node000001_Node000002"><a xlink:title=" ">
<path fill="none" stroke="#63b8ff" d="M79,-175.75C79,-167.27 79,-158.67 79,-150.25"/>
<polygon fill="none" stroke="#63b8ff" points="75.5,-176 79,-186 82.5,-176 75.5,-176"/>
</a>
</g>
</g>
</g>
</svg>
</svg>

<style type='text/css'>
<![CDATA[
[data-mouse-over-selected='false'] { opacity: 0.7; }
[data-mouse-over-selected='true']  { opacity: 1.0; }
]]>
</style>
<script type="application/ecmascript"><![CDATA[
document.addEventListener('DOMContentLoaded', (event) => {
  highlightEdges();
  highlightAdjacentNodes();
});
]]></script>
</svg>
