<?xml version="1.0" encoding="UTF-8" standalone="no"?>
<!DOCTYPE svg PUBLIC "-//W3C//DTD SVG 1.1//EN"
 "http://www.w3.org/Graphics/SVG/1.1/DTD/svg11.dtd">
<!-- Generated by graphviz version 2.43.0 (0)
 -->
<!-- Title: Arcane::IItemOperationByBasicType Pages: 1 -->
<svg width="558pt" height="811pt"
 viewBox="0.00 0.00 558.00 811.00" xmlns="http://www.w3.org/2000/svg" xmlns:xlink="http://www.w3.org/1999/xlink">
<g id="graph0" class="graph" transform="scale(1 1) rotate(0) translate(4 807)">
<title>Arcane::IItemOperationByBasicType</title>
<!-- Node1 -->
<g id="Node000001" class="node">
<title>Node1</title>
<g id="a_Node000001"><a xlink:title="Interface d&#39;un opérateur sur des entités rangées par type.">
<polygon fill="#999999" stroke="transparent" points="455,-803 283,-803 283,-593 455,-593 455,-803"/>
<text text-anchor="start" x="305.5" y="-791" font-family="Helvetica,sans-Serif" font-size="10.00">Arcane::IItemOperationBy</text>
<text text-anchor="start" x="344.5" y="-780" font-family="Helvetica,sans-Serif" font-size="10.00">BasicType</text>
<text text-anchor="start" x="367" y="-765" font-family="Helvetica,sans-Serif" font-size="10.00"> </text>
<text text-anchor="start" x="287" y="-750" font-family="Helvetica,sans-Serif" font-size="10.00">+</text>
<text text-anchor="start" x="300" y="-750" font-family="Helvetica,sans-Serif" font-size="10.00">~IItemOperationByBasicType()</text>
<text text-anchor="start" x="287" y="-735" font-family="Helvetica,sans-Serif" font-size="10.00">+</text>
<text text-anchor="start" x="300" y="-735" font-family="Helvetica,sans-Serif" font-size="10.00">applyVertex()</text>
<text text-anchor="start" x="287" y="-720" font-family="Helvetica,sans-Serif" font-size="10.00">+</text>
<text text-anchor="start" x="300" y="-720" font-family="Helvetica,sans-Serif" font-size="10.00">applyLine2()</text>
<text text-anchor="start" x="287" y="-705" font-family="Helvetica,sans-Serif" font-size="10.00">+</text>
<text text-anchor="start" x="300" y="-705" font-family="Helvetica,sans-Serif" font-size="10.00">applyTriangle3()</text>
<text text-anchor="start" x="287" y="-690" font-family="Helvetica,sans-Serif" font-size="10.00">+</text>
<text text-anchor="start" x="300" y="-690" font-family="Helvetica,sans-Serif" font-size="10.00">applyQuad4()</text>
<text text-anchor="start" x="287" y="-675" font-family="Helvetica,sans-Serif" font-size="10.00">+</text>
<text text-anchor="start" x="300" y="-675" font-family="Helvetica,sans-Serif" font-size="10.00">applyPentagon5()</text>
<text text-anchor="start" x="287" y="-660" font-family="Helvetica,sans-Serif" font-size="10.00">+</text>
<text text-anchor="start" x="300" y="-660" font-family="Helvetica,sans-Serif" font-size="10.00">applyHexagon6()</text>
<text text-anchor="start" x="287" y="-645" font-family="Helvetica,sans-Serif" font-size="10.00">+</text>
<text text-anchor="start" x="300" y="-645" font-family="Helvetica,sans-Serif" font-size="10.00">applyTetraedron4()</text>
<text text-anchor="start" x="287" y="-630" font-family="Helvetica,sans-Serif" font-size="10.00">+</text>
<text text-anchor="start" x="300" y="-630" font-family="Helvetica,sans-Serif" font-size="10.00">applyPyramid5()</text>
<text text-anchor="start" x="287" y="-615" font-family="Helvetica,sans-Serif" font-size="10.00">+</text>
<text text-anchor="start" x="300" y="-615" font-family="Helvetica,sans-Serif" font-size="10.00">applyPentaedron6()</text>
<text text-anchor="start" x="300" y="-600" font-family="Helvetica,sans-Serif" font-size="10.00">et 14 de plus...</text>
<polygon fill="#666666" stroke="#666666" points="283,-775 283,-775 455,-775 455,-775 283,-775"/>
<polygon fill="#666666" stroke="#666666" points="283,-760 283,-760 455,-760 455,-760 283,-760"/>
<polygon fill="none" stroke="#666666" points="283,-593 283,-803 455,-803 455,-593 283,-593"/>
</a>
</g>
</g>
<!-- Node2 -->
<g id="Node000002" class="node">
<title>Node2</title>
<g id="a_Node000002"><a xlink:href="../../d4/d01/classArcane_1_1AbstractItemOperationByBasicType.html" target="_top" xlink:title="Opérateur abstrait sur des entités rangées par type.">
<polygon fill="white" stroke="transparent" points="361.5,-542 200.5,-542 200.5,-332 361.5,-332 361.5,-542"/>
<text text-anchor="start" x="206" y="-530" font-family="Helvetica,sans-Serif" font-size="10.00">Arcane::AbstractItemOperation</text>
<text text-anchor="start" x="250.5" y="-519" font-family="Helvetica,sans-Serif" font-size="10.00">ByBasicType</text>
<text text-anchor="start" x="279.5" y="-504" font-family="Helvetica,sans-Serif" font-size="10.00"> </text>
<text text-anchor="start" x="215.5" y="-489" font-family="Helvetica,sans-Serif" font-size="10.00">+</text>
<text text-anchor="start" x="239" y="-489" font-family="Helvetica,sans-Serif" font-size="10.00">applyVertex()</text>
<text text-anchor="start" x="215.5" y="-474" font-family="Helvetica,sans-Serif" font-size="10.00">+</text>
<text text-anchor="start" x="239" y="-474" font-family="Helvetica,sans-Serif" font-size="10.00">applyLine2()</text>
<text text-anchor="start" x="215.5" y="-459" font-family="Helvetica,sans-Serif" font-size="10.00">+</text>
<text text-anchor="start" x="239" y="-459" font-family="Helvetica,sans-Serif" font-size="10.00">applyTriangle3()</text>
<text text-anchor="start" x="215.5" y="-444" font-family="Helvetica,sans-Serif" font-size="10.00">+</text>
<text text-anchor="start" x="239" y="-444" font-family="Helvetica,sans-Serif" font-size="10.00">applyQuad4()</text>
<text text-anchor="start" x="215.5" y="-429" font-family="Helvetica,sans-Serif" font-size="10.00">+</text>
<text text-anchor="start" x="239" y="-429" font-family="Helvetica,sans-Serif" font-size="10.00">applyPentagon5()</text>
<text text-anchor="start" x="215.5" y="-414" font-family="Helvetica,sans-Serif" font-size="10.00">+</text>
<text text-anchor="start" x="239" y="-414" font-family="Helvetica,sans-Serif" font-size="10.00">applyHexagon6()</text>
<text text-anchor="start" x="215.5" y="-399" font-family="Helvetica,sans-Serif" font-size="10.00">+</text>
<text text-anchor="start" x="239" y="-399" font-family="Helvetica,sans-Serif" font-size="10.00">applyTetraedron4()</text>
<text text-anchor="start" x="215.5" y="-384" font-family="Helvetica,sans-Serif" font-size="10.00">+</text>
<text text-anchor="start" x="239" y="-384" font-family="Helvetica,sans-Serif" font-size="10.00">applyPyramid5()</text>
<text text-anchor="start" x="215.5" y="-369" font-family="Helvetica,sans-Serif" font-size="10.00">+</text>
<text text-anchor="start" x="239" y="-369" font-family="Helvetica,sans-Serif" font-size="10.00">applyPentaedron6()</text>
<text text-anchor="start" x="215.5" y="-354" font-family="Helvetica,sans-Serif" font-size="10.00">+</text>
<text text-anchor="start" x="239" y="-354" font-family="Helvetica,sans-Serif" font-size="10.00">applyHexaedron8()</text>
<text text-anchor="start" x="239" y="-339" font-family="Helvetica,sans-Serif" font-size="10.00">et 13 de plus...</text>
<polygon fill="#666666" stroke="#666666" points="201,-514 201,-514 362,-514 362,-514 201,-514"/>
<polygon fill="#666666" stroke="#666666" points="201,-499 201,-499 362,-499 362,-499 201,-499"/>
<polygon fill="none" stroke="#666666" points="200.5,-332 200.5,-542 361.5,-542 361.5,-332 200.5,-332"/>
</a>
</g>
</g>
<!-- Node1&#45;&gt;Node2 -->
<g id="edge1_Node000001_Node000002" class="edge">
<title>Node1&#45;&gt;Node2</title>
<g id="a_edge1_Node000001_Node000002"><a xlink:title=" ">
<path fill="none" stroke="#63b8ff" d="M330.24,-582.91C325.61,-569.31 320.91,-555.47 316.34,-542.01"/>
<polygon fill="none" stroke="#63b8ff" points="327.06,-584.43 333.59,-592.77 333.68,-582.18 327.06,-584.43"/>
</a>
</g>
</g>
<!-- Node6 -->
<g id="Node000006" class="node">
<title>Node6</title>
<g id="a_Node000006"><a xlink:href="../../db/d0c/classArcane_1_1GenericGSInternalUpdater.html" target="_top" xlink:title=" ">
<polygon fill="white" stroke="transparent" points="536.5,-557 379.5,-557 379.5,-317 536.5,-317 536.5,-557"/>
<text text-anchor="start" x="394" y="-545" font-family="Helvetica,sans-Serif" font-size="10.00">Arcane::GenericGSInternal</text>
<text text-anchor="start" x="400" y="-534" font-family="Helvetica,sans-Serif" font-size="10.00">Updater&lt; GeometryT &gt;</text>
<text text-anchor="start" x="386.5" y="-519" font-family="Helvetica,sans-Serif" font-size="10.00">&#45;</text>
<text text-anchor="start" x="397" y="-519" font-family="Helvetica,sans-Serif" font-size="10.00">m_geom</text>
<text text-anchor="start" x="386.5" y="-504" font-family="Helvetica,sans-Serif" font-size="10.00">&#45;</text>
<text text-anchor="start" x="397" y="-504" font-family="Helvetica,sans-Serif" font-size="10.00">m_group_property</text>
<text text-anchor="start" x="386.5" y="-489" font-family="Helvetica,sans-Serif" font-size="10.00">&#45;</text>
<text text-anchor="start" x="397" y="-489" font-family="Helvetica,sans-Serif" font-size="10.00">m_trace_mng</text>
<text text-anchor="start" x="384" y="-474" font-family="Helvetica,sans-Serif" font-size="10.00">+</text>
<text text-anchor="start" x="397" y="-474" font-family="Helvetica,sans-Serif" font-size="10.00">GenericGSInternalUpdater()</text>
<text text-anchor="start" x="384" y="-459" font-family="Helvetica,sans-Serif" font-size="10.00">+</text>
<text text-anchor="start" x="397" y="-459" font-family="Helvetica,sans-Serif" font-size="10.00">setGroupProperty()</text>
<text text-anchor="start" x="384" y="-444" font-family="Helvetica,sans-Serif" font-size="10.00">+</text>
<text text-anchor="start" x="397" y="-444" font-family="Helvetica,sans-Serif" font-size="10.00">applyLineTemplate()</text>
<text text-anchor="start" x="384" y="-429" font-family="Helvetica,sans-Serif" font-size="10.00">+</text>
<text text-anchor="start" x="397" y="-429" font-family="Helvetica,sans-Serif" font-size="10.00">applySurfaceTemplate()</text>
<text text-anchor="start" x="384" y="-414" font-family="Helvetica,sans-Serif" font-size="10.00">+</text>
<text text-anchor="start" x="397" y="-414" font-family="Helvetica,sans-Serif" font-size="10.00">applyVolumeTemplate()</text>
<text text-anchor="start" x="384" y="-399" font-family="Helvetica,sans-Serif" font-size="10.00">+</text>
<text text-anchor="start" x="397" y="-399" font-family="Helvetica,sans-Serif" font-size="10.00">applyVertex()</text>
<text text-anchor="start" x="384" y="-384" font-family="Helvetica,sans-Serif" font-size="10.00">+</text>
<text text-anchor="start" x="397" y="-384" font-family="Helvetica,sans-Serif" font-size="10.00">applyLine2()</text>
<text text-anchor="start" x="384" y="-369" font-family="Helvetica,sans-Serif" font-size="10.00">+</text>
<text text-anchor="start" x="397" y="-369" font-family="Helvetica,sans-Serif" font-size="10.00">applyTriangle3()</text>
<text text-anchor="start" x="384" y="-354" font-family="Helvetica,sans-Serif" font-size="10.00">+</text>
<text text-anchor="start" x="397" y="-354" font-family="Helvetica,sans-Serif" font-size="10.00">applyQuad4()</text>
<text text-anchor="start" x="384" y="-339" font-family="Helvetica,sans-Serif" font-size="10.00">+</text>
<text text-anchor="start" x="397" y="-339" font-family="Helvetica,sans-Serif" font-size="10.00">applyPentagon5()</text>
<text text-anchor="start" x="397" y="-324" font-family="Helvetica,sans-Serif" font-size="10.00">et 22 de plus...</text>
<polygon fill="#bfbfbf" stroke="#bfbfbf" points="380,-529 380,-529 537,-529 537,-529 380,-529"/>
<polygon fill="#bfbfbf" stroke="#bfbfbf" points="380,-484 380,-484 395,-484 395,-484 380,-484"/>
<polygon fill="#bfbfbf" stroke="#bfbfbf" points="395,-484 395,-484 537,-484 537,-484 395,-484"/>
<polygon fill="none" stroke="#bfbfbf" points="379.5,-317 379.5,-557 536.5,-557 536.5,-317 379.5,-317"/>
</a>
</g>
</g>
<!-- Node1&#45;&gt;Node6 -->
<g id="edge5_Node000001_Node000006" class="edge">
<title>Node1&#45;&gt;Node6</title>
<g id="a_edge5_Node000001_Node000006"><a xlink:title=" ">
<path fill="none" stroke="#63b8ff" d="M408.12,-583.15C411.07,-574.58 414.04,-565.92 417,-557.32"/>
<polygon fill="none" stroke="#63b8ff" points="404.75,-582.18 404.81,-592.77 411.37,-584.45 404.75,-582.18"/>
</a>
</g>
</g>
<!-- Node3 -->
<g id="Node000003" class="node">
<title>Node3</title>
<g id="a_Node000003"><a xlink:href="../../d6/d3a/classArcane_1_1BarycentricGeomShapeComputerByType.html" target="_top" xlink:title=" ">
<polygon fill="white" stroke="transparent" points="184,-281 0,-281 0,0 184,0 184,-281"/>
<text text-anchor="start" x="14.5" y="-268.5" font-family="Helvetica,sans-Serif" font-size="10.00">Arcane::BarycentricGeomShape</text>
<text text-anchor="start" x="50" y="-257.5" font-family="Helvetica,sans-Serif" font-size="10.00">ComputerByType</text>
<text text-anchor="start" x="6.5" y="-242.5" font-family="Helvetica,sans-Serif" font-size="10.00">&#45;</text>
<text text-anchor="start" x="17" y="-242.5" font-family="Helvetica,sans-Serif" font-size="10.00">m_shape_mng</text>
<text text-anchor="start" x="6.5" y="-227.5" font-family="Helvetica,sans-Serif" font-size="10.00">&#45;</text>
<text text-anchor="start" x="17" y="-227.5" font-family="Helvetica,sans-Serif" font-size="10.00">m_node_coords</text>
<text text-anchor="start" x="4" y="-212.5" font-family="Helvetica,sans-Serif" font-size="10.00">+</text>
<text text-anchor="start" x="17" y="-212.5" font-family="Helvetica,sans-Serif" font-size="10.00">BarycentricGeomShapeComputer</text>
<text text-anchor="start" x="17" y="-201.5" font-family="Helvetica,sans-Serif" font-size="10.00">ByType()</text>
<text text-anchor="start" x="4" y="-186.5" font-family="Helvetica,sans-Serif" font-size="10.00">+</text>
<text text-anchor="start" x="17" y="-186.5" font-family="Helvetica,sans-Serif" font-size="10.00">_applyGeneric()</text>
<text text-anchor="start" x="4" y="-171.5" font-family="Helvetica,sans-Serif" font-size="10.00">+</text>
<text text-anchor="start" x="17" y="-171.5" font-family="Helvetica,sans-Serif" font-size="10.00">applyVertex()</text>
<text text-anchor="start" x="4" y="-156.5" font-family="Helvetica,sans-Serif" font-size="10.00">+</text>
<text text-anchor="start" x="17" y="-156.5" font-family="Helvetica,sans-Serif" font-size="10.00">applyLine2()</text>
<text text-anchor="start" x="4" y="-141.5" font-family="Helvetica,sans-Serif" font-size="10.00">+</text>
<text text-anchor="start" x="17" y="-141.5" font-family="Helvetica,sans-Serif" font-size="10.00">applyPentagon5()</text>
<text text-anchor="start" x="4" y="-126.5" font-family="Helvetica,sans-Serif" font-size="10.00">+</text>
<text text-anchor="start" x="17" y="-126.5" font-family="Helvetica,sans-Serif" font-size="10.00">applyHexagon6()</text>
<text text-anchor="start" x="4" y="-111.5" font-family="Helvetica,sans-Serif" font-size="10.00">+</text>
<text text-anchor="start" x="17" y="-111.5" font-family="Helvetica,sans-Serif" font-size="10.00">applyQuad4()</text>
<text text-anchor="start" x="4" y="-96.5" font-family="Helvetica,sans-Serif" font-size="10.00">+</text>
<text text-anchor="start" x="17" y="-96.5" font-family="Helvetica,sans-Serif" font-size="10.00">applyTriangle3()</text>
<text text-anchor="start" x="4" y="-81.5" font-family="Helvetica,sans-Serif" font-size="10.00">+</text>
<text text-anchor="start" x="17" y="-81.5" font-family="Helvetica,sans-Serif" font-size="10.00">applyHexaedron8()</text>
<text text-anchor="start" x="4" y="-66.5" font-family="Helvetica,sans-Serif" font-size="10.00">+</text>
<text text-anchor="start" x="17" y="-66.5" font-family="Helvetica,sans-Serif" font-size="10.00">applyPyramid5()</text>
<text text-anchor="start" x="4" y="-51.5" font-family="Helvetica,sans-Serif" font-size="10.00">+</text>
<text text-anchor="start" x="17" y="-51.5" font-family="Helvetica,sans-Serif" font-size="10.00">applyPentaedron6()</text>
<text text-anchor="start" x="4" y="-36.5" font-family="Helvetica,sans-Serif" font-size="10.00">+</text>
<text text-anchor="start" x="17" y="-36.5" font-family="Helvetica,sans-Serif" font-size="10.00">applyTetraedron4()</text>
<text text-anchor="start" x="4" y="-21.5" font-family="Helvetica,sans-Serif" font-size="10.00">+</text>
<text text-anchor="start" x="17" y="-21.5" font-family="Helvetica,sans-Serif" font-size="10.00">applyHeptaedron10()</text>
<text text-anchor="start" x="4" y="-6.5" font-family="Helvetica,sans-Serif" font-size="10.00">+</text>
<text text-anchor="start" x="17" y="-6.5" font-family="Helvetica,sans-Serif" font-size="10.00">applyOctaedron12()</text>
<polygon fill="#bfbfbf" stroke="#bfbfbf" points="0,-252.5 0,-252.5 184,-252.5 184,-252.5 0,-252.5"/>
<polygon fill="#bfbfbf" stroke="#bfbfbf" points="0,-222.5 0,-222.5 15,-222.5 15,-222.5 0,-222.5"/>
<polygon fill="#bfbfbf" stroke="#bfbfbf" points="15,-222.5 15,-222.5 184,-222.5 184,-222.5 15,-222.5"/>
<polygon fill="none" stroke="#bfbfbf" points="0,0 0,-281 184,-281 184,0 0,0"/>
</a>
</g>
</g>
<!-- Node2&#45;&gt;Node3 -->
<g id="edge2_Node000002_Node000003" class="edge">
<title>Node2&#45;&gt;Node3</title>
<g id="a_edge2_Node000002_Node000003"><a xlink:title=" ">
<path fill="none" stroke="#63b8ff" d="M208.64,-323.25C199.8,-309.48 190.7,-295.29 181.65,-281.19"/>
<polygon fill="none" stroke="#63b8ff" points="205.75,-325.23 214.1,-331.76 211.64,-321.45 205.75,-325.23"/>
</a>
</g>
</g>
<!-- Node4 -->
<g id="Node000004" class="node">
<title>Node4</title>
<g id="a_Node000004"><a xlink:href="../../dd/d9b/classArcane_1_1GeomShapeOperation.html" target="_top" xlink:title="Classe template pour appliquer spécifique à une vue sur une forme géométrique.">
<polygon fill="white" stroke="transparent" points="360,-275.5 202,-275.5 202,-5.5 360,-5.5 360,-275.5"/>
<text text-anchor="start" x="207" y="-263.5" font-family="Helvetica,sans-Serif" font-size="10.00">Arcane::GeomShapeOperation</text>
<text text-anchor="start" x="225" y="-252.5" font-family="Helvetica,sans-Serif" font-size="10.00">&lt; OperationFunction &gt;</text>
<text text-anchor="start" x="214" y="-237.5" font-family="Helvetica,sans-Serif" font-size="10.00">&#45;</text>
<text text-anchor="start" x="230" y="-237.5" font-family="Helvetica,sans-Serif" font-size="10.00">m_shape_mng</text>
<text text-anchor="start" x="214" y="-222.5" font-family="Helvetica,sans-Serif" font-size="10.00">&#45;</text>
<text text-anchor="start" x="230" y="-222.5" font-family="Helvetica,sans-Serif" font-size="10.00">m_operation_function</text>
<text text-anchor="start" x="211.5" y="-207.5" font-family="Helvetica,sans-Serif" font-size="10.00">+</text>
<text text-anchor="start" x="230" y="-207.5" font-family="Helvetica,sans-Serif" font-size="10.00">GeomShapeOperation()</text>
<text text-anchor="start" x="211.5" y="-192.5" font-family="Helvetica,sans-Serif" font-size="10.00">+</text>
<text text-anchor="start" x="230" y="-192.5" font-family="Helvetica,sans-Serif" font-size="10.00">apply()</text>
<text text-anchor="start" x="211.5" y="-177.5" font-family="Helvetica,sans-Serif" font-size="10.00">+</text>
<text text-anchor="start" x="230" y="-177.5" font-family="Helvetica,sans-Serif" font-size="10.00">applyTriangle3()</text>
<text text-anchor="start" x="211.5" y="-162.5" font-family="Helvetica,sans-Serif" font-size="10.00">+</text>
<text text-anchor="start" x="230" y="-162.5" font-family="Helvetica,sans-Serif" font-size="10.00">applyQuad4()</text>
<text text-anchor="start" x="211.5" y="-147.5" font-family="Helvetica,sans-Serif" font-size="10.00">+</text>
<text text-anchor="start" x="230" y="-147.5" font-family="Helvetica,sans-Serif" font-size="10.00">applyPentagon5()</text>
<text text-anchor="start" x="211.5" y="-132.5" font-family="Helvetica,sans-Serif" font-size="10.00">+</text>
<text text-anchor="start" x="230" y="-132.5" font-family="Helvetica,sans-Serif" font-size="10.00">applyHexagon6()</text>
<text text-anchor="start" x="211.5" y="-117.5" font-family="Helvetica,sans-Serif" font-size="10.00">+</text>
<text text-anchor="start" x="230" y="-117.5" font-family="Helvetica,sans-Serif" font-size="10.00">applyTetraedron4()</text>
<text text-anchor="start" x="211.5" y="-102.5" font-family="Helvetica,sans-Serif" font-size="10.00">+</text>
<text text-anchor="start" x="230" y="-102.5" font-family="Helvetica,sans-Serif" font-size="10.00">applyPyramid5()</text>
<text text-anchor="start" x="211.5" y="-87.5" font-family="Helvetica,sans-Serif" font-size="10.00">+</text>
<text text-anchor="start" x="230" y="-87.5" font-family="Helvetica,sans-Serif" font-size="10.00">applyPentaedron6()</text>
<text text-anchor="start" x="211.5" y="-72.5" font-family="Helvetica,sans-Serif" font-size="10.00">+</text>
<text text-anchor="start" x="230" y="-72.5" font-family="Helvetica,sans-Serif" font-size="10.00">applyHexaedron8()</text>
<text text-anchor="start" x="211.5" y="-57.5" font-family="Helvetica,sans-Serif" font-size="10.00">+</text>
<text text-anchor="start" x="230" y="-57.5" font-family="Helvetica,sans-Serif" font-size="10.00">applyHeptaedron10()</text>
<text text-anchor="start" x="211.5" y="-42.5" font-family="Helvetica,sans-Serif" font-size="10.00">+</text>
<text text-anchor="start" x="230" y="-42.5" font-family="Helvetica,sans-Serif" font-size="10.00">applyOctaedron12()</text>
<text text-anchor="start" x="211.5" y="-27.5" font-family="Helvetica,sans-Serif" font-size="10.00">+</text>
<text text-anchor="start" x="230" y="-27.5" font-family="Helvetica,sans-Serif" font-size="10.00">operation()</text>
<text text-anchor="start" x="211.5" y="-12.5" font-family="Helvetica,sans-Serif" font-size="10.00">+</text>
<text text-anchor="start" x="230" y="-12.5" font-family="Helvetica,sans-Serif" font-size="10.00">cellShapeMng()</text>
<polygon fill="#666666" stroke="#666666" points="202,-247.5 202,-247.5 360,-247.5 360,-247.5 202,-247.5"/>
<polygon fill="#666666" stroke="#666666" points="202,-217.5 202,-217.5 228,-217.5 228,-217.5 202,-217.5"/>
<polygon fill="#666666" stroke="#666666" points="228,-217.5 228,-217.5 360,-217.5 360,-217.5 228,-217.5"/>
<polygon fill="none" stroke="#666666" points="202,-5.5 202,-275.5 360,-275.5 360,-5.5 202,-5.5"/>
</a>
</g>
</g>
<!-- Node2&#45;&gt;Node4 -->
<g id="edge3_Node000002_Node000004" class="edge">
<title>Node2&#45;&gt;Node4</title>
<g id="a_edge3_Node000002_Node000004"><a xlink:title=" ">
<path fill="none" stroke="#63b8ff" d="M281,-321.42C281,-306.38 281,-290.85 281,-275.52"/>
<polygon fill="none" stroke="#63b8ff" points="277.5,-321.76 281,-331.76 284.5,-321.76 277.5,-321.76"/>
</a>
</g>
</g>
<!-- Node5 -->
<g id="Node000005" class="node">
<title>Node5</title>
<g id="a_Node000005"><a xlink:href="../../d3/d35/classArcaneTest_1_1CartesianMeshTesterModule_1_1CountByBasicType.html" target="_top" xlink:title=" ">
<polygon fill="white" stroke="transparent" points="550,-185.5 378,-185.5 378,-95.5 550,-95.5 550,-185.5"/>
<text text-anchor="start" x="383" y="-173.5" font-family="Helvetica,sans-Serif" font-size="10.00">ArcaneTest::CartesianMesh</text>
<text text-anchor="start" x="383" y="-162.5" font-family="Helvetica,sans-Serif" font-size="10.00">TesterModule::CountByBasicType</text>
<text text-anchor="start" x="396" y="-147.5" font-family="Helvetica,sans-Serif" font-size="10.00">+</text>
<text text-anchor="start" x="423" y="-147.5" font-family="Helvetica,sans-Serif" font-size="10.00">m_nb_quad4</text>
<text text-anchor="start" x="396" y="-132.5" font-family="Helvetica,sans-Serif" font-size="10.00">+</text>
<text text-anchor="start" x="423" y="-132.5" font-family="Helvetica,sans-Serif" font-size="10.00">m_nb_hexa8</text>
<text text-anchor="start" x="396" y="-117.5" font-family="Helvetica,sans-Serif" font-size="10.00">+</text>
<text text-anchor="start" x="423" y="-117.5" font-family="Helvetica,sans-Serif" font-size="10.00">applyQuad4()</text>
<text text-anchor="start" x="396" y="-102.5" font-family="Helvetica,sans-Serif" font-size="10.00">+</text>
<text text-anchor="start" x="423" y="-102.5" font-family="Helvetica,sans-Serif" font-size="10.00">applyHexaedron8()</text>
<polygon fill="#bfbfbf" stroke="#bfbfbf" points="378,-157.5 378,-157.5 550,-157.5 550,-157.5 378,-157.5"/>
<polygon fill="#bfbfbf" stroke="#bfbfbf" points="378,-127.5 378,-127.5 421,-127.5 421,-127.5 378,-127.5"/>
<polygon fill="#bfbfbf" stroke="#bfbfbf" points="421,-127.5 421,-127.5 550,-127.5 550,-127.5 421,-127.5"/>
<polygon fill="none" stroke="#bfbfbf" points="378,-95.5 378,-185.5 550,-185.5 550,-95.5 378,-95.5"/>
</a>
</g>
</g>
<!-- Node2&#45;&gt;Node5 -->
<g id="edge4_Node000002_Node000005" class="edge">
<title>Node2&#45;&gt;Node5</title>
<g id="a_edge4_Node000002_Node000005"><a xlink:title=" ">
<path fill="none" stroke="#63b8ff" d="M351.11,-323.17C380.94,-275.17 413.97,-222.01 436.56,-185.66"/>
<polygon fill="none" stroke="#63b8ff" points="348.08,-321.41 345.78,-331.76 354.03,-325.11 348.08,-321.41"/>
</a>
</g>
</g>
</g>
</svg>
