<?xml version="1.0" encoding="UTF-8" standalone="no"?>
<!DOCTYPE svg PUBLIC "-//W3C//DTD SVG 1.1//EN"
 "http://www.w3.org/Graphics/SVG/1.1/DTD/svg11.dtd">
<!-- Generated by graphviz version 2.43.0 (0)
 -->
<!-- Title: Arcane::mesh::ParallelAMRConsistency::_gatherFaces Pages: 1 -->
<svg width="899pt" height="842pt"
 viewBox="0.00 0.00 899.00 841.50" xmlns="http://www.w3.org/2000/svg" xmlns:xlink="http://www.w3.org/1999/xlink">
<g id="graph0" class="graph" transform="scale(1 1) rotate(0) translate(4 837.5)">
<title>Arcane::mesh::ParallelAMRConsistency::_gatherFaces</title>
<!-- Node1 -->
<g id="Node000001" class="node">
<title>Node1</title>
<g id="a_Node000001"><a xlink:title=" ">
<polygon fill="#999999" stroke="#666666" points="207,-418 0,-418 0,-388 207,-388 207,-418"/>
<text text-anchor="start" x="8" y="-406" font-family="Helvetica,sans-Serif" font-size="10.00">Arcane::mesh::ParallelAMRConsistency</text>
<text text-anchor="middle" x="103.5" y="-395" font-family="Helvetica,sans-Serif" font-size="10.00">::_gatherFaces</text>
</a>
</g>
</g>
<!-- Node2 -->
<g id="Node000002" class="node">
<title>Node2</title>
<g id="a_Node000002"><a xlink:href="../../d1/dfb/classArcane_1_1Array.html#afb30a771d3fd8022c7220afe7b78e60b" target="_top" xlink:title="Ajoute l&#39;élément val à la fin du tableau.">
<polygon fill="white" stroke="#666666" points="363,-833.5 257,-833.5 257,-814.5 363,-814.5 363,-833.5"/>
<text text-anchor="middle" x="310" y="-821.5" font-family="Helvetica,sans-Serif" font-size="10.00">Arcane::Array::add</text>
</a>
</g>
</g>
<!-- Node1&#45;&gt;Node2 -->
<g id="edge1_Node000001_Node000002" class="edge">
<title>Node1&#45;&gt;Node2</title>
<g id="a_edge1_Node000001_Node000002"><a xlink:title=" ">
<path fill="none" stroke="#63b8ff" d="M104.98,-418.38C107.68,-477.64 125.52,-693.42 243,-805 244.65,-806.57 246.42,-808.01 248.29,-809.33"/>
<polygon fill="#63b8ff" stroke="#63b8ff" points="246.58,-812.39 256.98,-814.4 250.11,-806.34 246.58,-812.39"/>
</a>
</g>
</g>
<!-- Node3 -->
<g id="Node000003" class="node">
<title>Node3</title>
<g id="a_Node000003"><a xlink:href="../../dc/d5a/classArcane_1_1IParallelMng.html#a865add98ac0a6167b13231267aed8e2d" target="_top" xlink:title="Effectue un regroupement sur tous les processeurs. Il s&#39;agit d&#39;une opération collective....">
<polygon fill="white" stroke="#666666" points="368,-778 252,-778 252,-748 368,-748 368,-778"/>
<text text-anchor="start" x="260" y="-766" font-family="Helvetica,sans-Serif" font-size="10.00">Arcane::IParallelMng</text>
<text text-anchor="middle" x="310" y="-755" font-family="Helvetica,sans-Serif" font-size="10.00">::allGather</text>
</a>
</g>
</g>
<!-- Node1&#45;&gt;Node3 -->
<g id="edge2_Node000001_Node000003" class="edge">
<title>Node1&#45;&gt;Node3</title>
<g id="a_edge2_Node000001_Node000003"><a xlink:title=" ">
<path fill="none" stroke="#63b8ff" d="M106.38,-418.14C113.66,-470.32 144.62,-644.69 243,-739 244.13,-740.08 245.31,-741.11 246.53,-742.1"/>
<polygon fill="#63b8ff" stroke="#63b8ff" points="244.93,-745.25 255.17,-747.97 248.87,-739.46 244.93,-745.25"/>
</a>
</g>
</g>
<!-- Node4 -->
<g id="Node000004" class="node">
<title>Node4</title>
<g id="a_Node000004"><a xlink:href="../../d0/dde/classArcane_1_1BasicSerializer.html#a78e5e437a8925c25a04de50fb9d7373b" target="_top" xlink:title="Alloue la mémoire du sérialiseur.">
<polygon fill="white" stroke="#666666" points="374,-730 246,-730 246,-700 374,-700 374,-730"/>
<text text-anchor="start" x="254" y="-718" font-family="Helvetica,sans-Serif" font-size="10.00">Arcane::BasicSerializer</text>
<text text-anchor="middle" x="310" y="-707" font-family="Helvetica,sans-Serif" font-size="10.00">::allocateBuffer</text>
</a>
</g>
</g>
<!-- Node1&#45;&gt;Node4 -->
<g id="edge4_Node000001_Node000004" class="edge">
<title>Node1&#45;&gt;Node4</title>
<g id="a_edge4_Node000001_Node000004"><a xlink:title=" ">
<path fill="none" stroke="#63b8ff" d="M107.57,-418.27C117.86,-465.67 155.59,-611.88 243,-691 244.31,-692.18 245.67,-693.31 247.09,-694.38"/>
<polygon fill="#63b8ff" stroke="#63b8ff" points="245.4,-697.45 255.71,-699.93 249.2,-691.57 245.4,-697.45"/>
</a>
</g>
</g>
<!-- Node5 -->
<g id="Node000005" class="node">
<title>Node5</title>
<g id="a_Node000005"><a xlink:href="../../dc/d5a/classArcane_1_1IParallelMng.html#a26fc7494a02a7370d3be787fcc742b04" target="_top" xlink:title="Rang de cette instance dans le communicateur.">
<polygon fill="white" stroke="#666666" points="368,-682 252,-682 252,-652 368,-652 368,-682"/>
<text text-anchor="start" x="260" y="-670" font-family="Helvetica,sans-Serif" font-size="10.00">Arcane::IParallelMng</text>
<text text-anchor="middle" x="310" y="-659" font-family="Helvetica,sans-Serif" font-size="10.00">::commRank</text>
</a>
</g>
</g>
<!-- Node1&#45;&gt;Node5 -->
<g id="edge5_Node000001_Node000005" class="edge">
<title>Node1&#45;&gt;Node5</title>
<g id="a_edge5_Node000001_Node000005"><a xlink:title=" ">
<path fill="none" stroke="#63b8ff" d="M109.1,-418.06C122.61,-459.88 166.16,-578.53 243,-643 244.54,-644.29 246.16,-645.52 247.83,-646.68"/>
<polygon fill="#63b8ff" stroke="#63b8ff" points="246.26,-649.82 256.63,-651.98 249.87,-643.82 246.26,-649.82"/>
</a>
</g>
</g>
<!-- Node6 -->
<g id="Node000006" class="node">
<title>Node6</title>
<g id="a_Node000006"><a xlink:href="../../dc/d5a/classArcane_1_1IParallelMng.html#a7c5831fb289f8aa3fac3b05cdbb3d194" target="_top" xlink:title="Nombre d&#39;instance dans le communicateur.">
<polygon fill="white" stroke="#666666" points="368,-634 252,-634 252,-604 368,-604 368,-634"/>
<text text-anchor="start" x="260" y="-622" font-family="Helvetica,sans-Serif" font-size="10.00">Arcane::IParallelMng</text>
<text text-anchor="middle" x="310" y="-611" font-family="Helvetica,sans-Serif" font-size="10.00">::commSize</text>
</a>
</g>
</g>
<!-- Node1&#45;&gt;Node6 -->
<g id="edge6_Node000001_Node000006" class="edge">
<title>Node1&#45;&gt;Node6</title>
<g id="a_edge6_Node000001_Node000006"><a xlink:title=" ">
<path fill="none" stroke="#63b8ff" d="M111.42,-418.08C128.59,-453.89 176.61,-544.81 243,-595 244.82,-596.37 246.72,-597.68 248.69,-598.91"/>
<polygon fill="#63b8ff" stroke="#63b8ff" points="247.21,-602.09 257.66,-603.87 250.61,-595.97 247.21,-602.09"/>
</a>
</g>
</g>
<!-- Node7 -->
<g id="Node000007" class="node">
<title>Node7</title>
<g id="a_Node000007"><a xlink:href="../../d1/d17/classArcane_1_1TraceAccessor.html#a24ff2b7ec9158ea6c25512a00b7db890" target="_top" xlink:title="Flot pour un message de debug.">
<polygon fill="white" stroke="#666666" points="372.5,-586 247.5,-586 247.5,-556 372.5,-556 372.5,-586"/>
<text text-anchor="start" x="255.5" y="-574" font-family="Helvetica,sans-Serif" font-size="10.00">Arcane::TraceAccessor</text>
<text text-anchor="middle" x="310" y="-563" font-family="Helvetica,sans-Serif" font-size="10.00">::debug</text>
</a>
</g>
</g>
<!-- Node1&#45;&gt;Node7 -->
<g id="edge7_Node000001_Node000007" class="edge">
<title>Node1&#45;&gt;Node7</title>
<g id="a_edge7_Node000001_Node000007"><a xlink:title=" ">
<path fill="none" stroke="#63b8ff" d="M115.34,-418.24C136.66,-447.18 186.89,-510.49 243,-547 245.4,-548.56 247.91,-550.03 250.49,-551.43"/>
<polygon fill="#63b8ff" stroke="#63b8ff" points="248.98,-554.58 259.5,-555.85 252.06,-548.3 248.98,-554.58"/>
</a>
</g>
</g>
<!-- Node8 -->
<g id="Node000008" class="node">
<title>Node8</title>
<g id="a_Node000008"><a xlink:href="../../d1/d17/classArcane_1_1TraceAccessor.html#a8d387594447fa4c03443c8e085d62472" target="_top" xlink:title="Flot pour un message d&#39;erreur.">
<polygon fill="white" stroke="#666666" points="372.5,-538 247.5,-538 247.5,-508 372.5,-508 372.5,-538"/>
<text text-anchor="start" x="255.5" y="-526" font-family="Helvetica,sans-Serif" font-size="10.00">Arcane::TraceAccessor</text>
<text text-anchor="middle" x="310" y="-515" font-family="Helvetica,sans-Serif" font-size="10.00">::error</text>
</a>
</g>
</g>
<!-- Node1&#45;&gt;Node8 -->
<g id="edge8_Node000001_Node000008" class="edge">
<title>Node1&#45;&gt;Node8</title>
<g id="a_edge8_Node000001_Node000008"><a xlink:title=" ">
<path fill="none" stroke="#63b8ff" d="M123.22,-418.33C148.95,-438.84 197.27,-475.34 243,-499 246.34,-500.73 249.83,-502.38 253.38,-503.97"/>
<polygon fill="#63b8ff" stroke="#63b8ff" points="252.33,-507.32 262.9,-507.97 255.04,-500.87 252.33,-507.32"/>
</a>
</g>
</g>
<!-- Node9 -->
<g id="Node000009" class="node">
<title>Node9</title>
<g id="a_Node000009"><a xlink:href="../../d0/dde/classArcane_1_1BasicSerializer.html#a055d8a0c907fcc43b6e391ca99eec47a" target="_top" xlink:title="Redimensionne et remplit values.">
<polygon fill="white" stroke="#666666" points="374,-490 246,-490 246,-460 374,-460 374,-490"/>
<text text-anchor="start" x="254" y="-478" font-family="Helvetica,sans-Serif" font-size="10.00">Arcane::BasicSerializer</text>
<text text-anchor="middle" x="310" y="-467" font-family="Helvetica,sans-Serif" font-size="10.00">::getArray</text>
</a>
</g>
</g>
<!-- Node1&#45;&gt;Node9 -->
<g id="edge9_Node000001_Node000009" class="edge">
<title>Node1&#45;&gt;Node9</title>
<g id="a_edge9_Node000001_Node000009"><a xlink:title=" ">
<path fill="none" stroke="#63b8ff" d="M147.37,-418.09C179.14,-429.28 222.6,-444.58 256.46,-456.5"/>
<polygon fill="#63b8ff" stroke="#63b8ff" points="255.59,-459.91 266.19,-459.93 257.92,-453.3 255.59,-459.91"/>
</a>
</g>
</g>
<!-- Node14 -->
<g id="Node000014" class="node">
<title>Node14</title>
<g id="a_Node000014"><a xlink:href="../../d0/dde/classArcane_1_1BasicSerializer.html#ab82b1537ec9934e71969dbe594a711a8" target="_top" xlink:title="Récupère une taille.">
<polygon fill="white" stroke="#666666" points="374,-442 246,-442 246,-412 374,-412 374,-442"/>
<text text-anchor="start" x="254" y="-430" font-family="Helvetica,sans-Serif" font-size="10.00">Arcane::BasicSerializer</text>
<text text-anchor="middle" x="310" y="-419" font-family="Helvetica,sans-Serif" font-size="10.00">::getInteger</text>
</a>
</g>
</g>
<!-- Node1&#45;&gt;Node14 -->
<g id="edge15_Node000001_Node000014" class="edge">
<title>Node1&#45;&gt;Node14</title>
<g id="a_edge15_Node000001_Node000014"><a xlink:title=" ">
<path fill="none" stroke="#63b8ff" d="M207.05,-415.04C216.78,-416.18 226.51,-417.32 235.89,-418.42"/>
<polygon fill="#63b8ff" stroke="#63b8ff" points="235.56,-421.91 245.9,-419.59 236.38,-414.95 235.56,-421.91"/>
</a>
</g>
</g>
<!-- Node16 -->
<g id="Node000016" class="node">
<title>Node16</title>
<g id="a_Node000016"><a xlink:href="../../d3/db3/classArcane_1_1HashTableMapT.html#af226e865430091edae9befc03efe9f32" target="_top" xlink:title="true si une valeur avec la clé id est présente">
<polygon fill="white" stroke="#666666" points="377,-394 243,-394 243,-364 377,-364 377,-394"/>
<text text-anchor="start" x="251" y="-382" font-family="Helvetica,sans-Serif" font-size="10.00">Arcane::HashTableMapT</text>
<text text-anchor="middle" x="310" y="-371" font-family="Helvetica,sans-Serif" font-size="10.00">::hasKey</text>
</a>
</g>
</g>
<!-- Node1&#45;&gt;Node16 -->
<g id="edge19_Node000001_Node000016" class="edge">
<title>Node1&#45;&gt;Node16</title>
<g id="a_edge19_Node000001_Node000016"><a xlink:title=" ">
<path fill="none" stroke="#63b8ff" d="M207.05,-390.96C215.69,-389.95 224.33,-388.94 232.73,-387.95"/>
<polygon fill="#63b8ff" stroke="#63b8ff" points="233.3,-391.41 242.82,-386.77 232.48,-384.46 233.3,-391.41"/>
</a>
</g>
</g>
<!-- Node17 -->
<g id="Node000017" class="node">
<title>Node17</title>
<g id="a_Node000017"><a xlink:href="../../d1/d17/classArcane_1_1TraceAccessor.html#a7f15f017b10b72c85bba3fce76314619" target="_top" xlink:title="Flot pour un message d&#39;information.">
<polygon fill="white" stroke="#666666" points="372.5,-346 247.5,-346 247.5,-316 372.5,-316 372.5,-346"/>
<text text-anchor="start" x="255.5" y="-334" font-family="Helvetica,sans-Serif" font-size="10.00">Arcane::TraceAccessor</text>
<text text-anchor="middle" x="310" y="-323" font-family="Helvetica,sans-Serif" font-size="10.00">::info</text>
</a>
</g>
</g>
<!-- Node1&#45;&gt;Node17 -->
<g id="edge20_Node000001_Node000017" class="edge">
<title>Node1&#45;&gt;Node17</title>
<g id="a_edge20_Node000001_Node000017"><a xlink:title=" ">
<path fill="none" stroke="#63b8ff" d="M147.37,-387.91C179.14,-376.72 222.6,-361.42 256.46,-349.5"/>
<polygon fill="#63b8ff" stroke="#63b8ff" points="257.92,-352.7 266.19,-346.07 255.59,-346.09 257.92,-352.7"/>
</a>
</g>
</g>
<!-- Node18 -->
<g id="Node000018" class="node">
<title>Node18</title>
<g id="a_Node000018"><a xlink:href="../../d0/dde/classArcane_1_1BasicSerializer.html#ab6ae7efeb6ff4822a8457038b5679c85" target="_top" xlink:title="Sauve le nombre d&#39;éléments et les values éléments.">
<polygon fill="white" stroke="#666666" points="374,-298 246,-298 246,-268 374,-268 374,-298"/>
<text text-anchor="start" x="254" y="-286" font-family="Helvetica,sans-Serif" font-size="10.00">Arcane::BasicSerializer</text>
<text text-anchor="middle" x="310" y="-275" font-family="Helvetica,sans-Serif" font-size="10.00">::putArray</text>
</a>
</g>
</g>
<!-- Node1&#45;&gt;Node18 -->
<g id="edge21_Node000001_Node000018" class="edge">
<title>Node1&#45;&gt;Node18</title>
<g id="a_edge21_Node000001_Node000018"><a xlink:title=" ">
<path fill="none" stroke="#63b8ff" d="M123.22,-387.67C148.95,-367.16 197.27,-330.66 243,-307 246.34,-305.27 249.83,-303.62 253.38,-302.03"/>
<polygon fill="#63b8ff" stroke="#63b8ff" points="255.04,-305.13 262.9,-298.03 252.33,-298.68 255.04,-305.13"/>
</a>
</g>
</g>
<!-- Node23 -->
<g id="Node000023" class="node">
<title>Node23</title>
<g id="a_Node000023"><a xlink:href="../../d0/dde/classArcane_1_1BasicSerializer.html#ace601eddb5b3777cde4fae0590277563" target="_top" xlink:title="Ajoute l&#39;entier value.">
<polygon fill="white" stroke="#666666" points="541,-222 413,-222 413,-192 541,-192 541,-222"/>
<text text-anchor="start" x="421" y="-210" font-family="Helvetica,sans-Serif" font-size="10.00">Arcane::BasicSerializer</text>
<text text-anchor="middle" x="477" y="-199" font-family="Helvetica,sans-Serif" font-size="10.00">::putInteger</text>
</a>
</g>
</g>
<!-- Node1&#45;&gt;Node23 -->
<g id="edge26_Node000001_Node000023" class="edge">
<title>Node1&#45;&gt;Node23</title>
<g id="a_edge26_Node000001_Node000023"><a xlink:title=" ">
<path fill="none" stroke="#63b8ff" d="M114.61,-387.56C135.05,-357.67 184.34,-291.98 243,-259 270.01,-243.81 344.95,-228.63 402.62,-218.62"/>
<polygon fill="#63b8ff" stroke="#63b8ff" points="403.55,-222.02 412.81,-216.88 402.36,-215.12 403.55,-222.02"/>
</a>
</g>
</g>
<!-- Node24 -->
<g id="Node000024" class="node">
<title>Node24</title>
<g id="a_Node000024"><a xlink:href="../../d1/dfb/classArcane_1_1Array.html#a37ce70c905522ac539c9c48baffcaabf" target="_top" xlink:title="Réserve le mémoire pour new_capacity éléments.">
<polygon fill="white" stroke="#666666" points="372.5,-211.5 247.5,-211.5 247.5,-192.5 372.5,-192.5 372.5,-211.5"/>
<text text-anchor="middle" x="310" y="-199.5" font-family="Helvetica,sans-Serif" font-size="10.00">Arcane::Array::reserve</text>
</a>
</g>
</g>
<!-- Node1&#45;&gt;Node24 -->
<g id="edge28_Node000001_Node000024" class="edge">
<title>Node1&#45;&gt;Node24</title>
<g id="a_edge28_Node000001_Node000024"><a xlink:title=" ">
<path fill="none" stroke="#63b8ff" d="M112.42,-387.88C130.84,-354.09 179.84,-271.84 243,-226 248.7,-221.86 255.19,-218.37 261.82,-215.44"/>
<polygon fill="#63b8ff" stroke="#63b8ff" points="263.58,-218.51 271.57,-211.55 260.98,-212.01 263.58,-218.51"/>
</a>
</g>
</g>
<!-- Node25 -->
<g id="Node000025" class="node">
<title>Node25</title>
<g id="a_Node000025"><a xlink:href="../../d0/dde/classArcane_1_1BasicSerializer.html#a8e96be40334ff2396afb00137ae877bb" target="_top" xlink:title="Réserve pour sauver le nombre d&#39;éléments et les values éléments.">
<polygon fill="white" stroke="#666666" points="374,-174 246,-174 246,-144 374,-144 374,-174"/>
<text text-anchor="start" x="254" y="-162" font-family="Helvetica,sans-Serif" font-size="10.00">Arcane::BasicSerializer</text>
<text text-anchor="middle" x="310" y="-151" font-family="Helvetica,sans-Serif" font-size="10.00">::reserveArray</text>
</a>
</g>
</g>
<!-- Node1&#45;&gt;Node25 -->
<g id="edge29_Node000001_Node000025" class="edge">
<title>Node1&#45;&gt;Node25</title>
<g id="a_edge29_Node000001_Node000025"><a xlink:title=" ">
<path fill="none" stroke="#63b8ff" d="M110.07,-387.91C125.27,-348.7 171.2,-242.59 243,-184 245.04,-182.34 247.19,-180.78 249.44,-179.32"/>
<polygon fill="#63b8ff" stroke="#63b8ff" points="251.51,-182.16 258.45,-174.16 248.04,-176.09 251.51,-182.16"/>
</a>
</g>
</g>
<!-- Node29 -->
<g id="Node000029" class="node">
<title>Node29</title>
<g id="a_Node000029"><a xlink:href="../../d0/dde/classArcane_1_1BasicSerializer.html#ac8bd62fd0fa5c4d07e65f7f977fb219e" target="_top" xlink:title="Positionne le fonctionnement actuel.">
<polygon fill="white" stroke="#666666" points="374,-126 246,-126 246,-96 374,-96 374,-126"/>
<text text-anchor="start" x="254" y="-114" font-family="Helvetica,sans-Serif" font-size="10.00">Arcane::BasicSerializer</text>
<text text-anchor="middle" x="310" y="-103" font-family="Helvetica,sans-Serif" font-size="10.00">::setMode</text>
</a>
</g>
</g>
<!-- Node1&#45;&gt;Node29 -->
<g id="edge33_Node000001_Node000029" class="edge">
<title>Node1&#45;&gt;Node29</title>
<g id="a_edge33_Node000001_Node000029"><a xlink:title=" ">
<path fill="none" stroke="#63b8ff" d="M108.14,-387.83C119.74,-342.72 160.01,-207.97 243,-135 244.48,-133.7 246.03,-132.47 247.64,-131.31"/>
<polygon fill="#63b8ff" stroke="#63b8ff" points="249.51,-134.27 256.14,-126.01 245.8,-128.33 249.51,-134.27"/>
</a>
</g>
</g>
<!-- Node30 -->
<g id="Node000030" class="node">
<title>Node30</title>
<g id="a_Node000030"><a xlink:href="../../d5/d72/classArcane_1_1AbstractArray.html#a462e7632cf9664d773016bc972bed483" target="_top" xlink:title="Nombre d&#39;éléments du vecteur.">
<polygon fill="white" stroke="#666666" points="371.5,-78 248.5,-78 248.5,-48 371.5,-48 371.5,-78"/>
<text text-anchor="start" x="256.5" y="-66" font-family="Helvetica,sans-Serif" font-size="10.00">Arcane::AbstractArray</text>
<text text-anchor="middle" x="310" y="-55" font-family="Helvetica,sans-Serif" font-size="10.00">::size</text>
</a>
</g>
</g>
<!-- Node1&#45;&gt;Node30 -->
<g id="edge34_Node000001_Node000030" class="edge">
<title>Node1&#45;&gt;Node30</title>
<g id="a_edge34_Node000001_Node000030"><a xlink:title=" ">
<path fill="none" stroke="#63b8ff" d="M106.85,-387.71C115.38,-337.34 149.27,-174.88 243,-87 244.14,-85.93 245.33,-84.91 246.56,-83.93"/>
<polygon fill="#63b8ff" stroke="#63b8ff" points="248.89,-86.59 255.25,-78.12 245,-80.77 248.89,-86.59"/>
</a>
</g>
</g>
<!-- Node31 -->
<g id="Node000031" class="node">
<title>Node31</title>
<g id="a_Node000031"><a xlink:href="../../d9/d2e/classArcane_1_1ConstArrayView.html#ac6a4f407a7ec0a0e0985113552fe2f54" target="_top" xlink:title="Nombre d&#39;éléments du tableau.">
<polygon fill="white" stroke="#666666" points="377,-30 243,-30 243,0 377,0 377,-30"/>
<text text-anchor="start" x="251" y="-18" font-family="Helvetica,sans-Serif" font-size="10.00">Arcane::ConstArrayView</text>
<text text-anchor="middle" x="310" y="-7" font-family="Helvetica,sans-Serif" font-size="10.00">::size</text>
</a>
</g>
</g>
<!-- Node1&#45;&gt;Node31 -->
<g id="edge35_Node000001_Node000031" class="edge">
<title>Node1&#45;&gt;Node31</title>
<g id="a_edge35_Node000001_Node000031"><a xlink:title=" ">
<path fill="none" stroke="#63b8ff" d="M105.85,-387.78C111.52,-332.79 138.24,-142.22 243,-39 244.09,-37.93 245.22,-36.91 246.4,-35.93"/>
<polygon fill="#63b8ff" stroke="#63b8ff" points="248.55,-38.7 254.75,-30.11 244.54,-32.96 248.55,-38.7"/>
</a>
</g>
</g>
<!-- Node3&#45;&gt;Node3 -->
<g id="edge3_Node000003_Node000003" class="edge">
<title>Node3&#45;&gt;Node3</title>
<g id="a_edge3_Node000003_Node000003"><a xlink:title=" ">
<path fill="none" stroke="#63b8ff" d="M280.82,-778.28C274.34,-787.41 284.06,-796 310,-796 325.4,-796 335.09,-792.97 339.06,-788.6"/>
<polygon fill="#63b8ff" stroke="#63b8ff" points="342.56,-788.32 339.18,-778.28 335.56,-788.23 342.56,-788.32"/>
</a>
</g>
</g>
<!-- Node10 -->
<g id="Node000010" class="node">
<title>Node10</title>
<g id="a_Node000010"><a xlink:href="../../d0/dde/classArcane_1_1BasicSerializer.html#a9cbe0cd71ca0aac89da2d44bd19fcb55" target="_top" xlink:title="Récupère une taille.">
<polygon fill="white" stroke="#666666" points="541,-452 413,-452 413,-422 541,-422 541,-452"/>
<text text-anchor="start" x="421" y="-440" font-family="Helvetica,sans-Serif" font-size="10.00">Arcane::BasicSerializer</text>
<text text-anchor="middle" x="477" y="-429" font-family="Helvetica,sans-Serif" font-size="10.00">::getInt64</text>
</a>
</g>
</g>
<!-- Node9&#45;&gt;Node10 -->
<g id="edge10_Node000009_Node000010" class="edge">
<title>Node9&#45;&gt;Node10</title>
<g id="a_edge10_Node000009_Node000010"><a xlink:title=" ">
<path fill="none" stroke="#63b8ff" d="M374.32,-460.42C383.7,-458.26 393.42,-456.02 402.98,-453.82"/>
<polygon fill="#63b8ff" stroke="#63b8ff" points="403.89,-457.2 412.85,-451.54 402.32,-450.38 403.89,-457.2"/>
</a>
</g>
</g>
<!-- Node12 -->
<g id="Node000012" class="node">
<title>Node12</title>
<g id="a_Node000012"><a xlink:href="../../d0/dde/classArcane_1_1BasicSerializer.html#a45fc40b19c738a15c9a9f40e005704ff" target="_top" xlink:title="Récupère le tableau values.">
<polygon fill="white" stroke="#666666" points="891,-492 763,-492 763,-462 891,-462 891,-492"/>
<text text-anchor="start" x="771" y="-480" font-family="Helvetica,sans-Serif" font-size="10.00">Arcane::BasicSerializer</text>
<text text-anchor="middle" x="827" y="-469" font-family="Helvetica,sans-Serif" font-size="10.00">::getSpan</text>
</a>
</g>
</g>
<!-- Node9&#45;&gt;Node12 -->
<g id="edge13_Node000009_Node000012" class="edge">
<title>Node9&#45;&gt;Node12</title>
<g id="a_edge13_Node000009_Node000012"><a xlink:title=" ">
<path fill="none" stroke="#63b8ff" d="M364.58,-490.06C380.08,-493.74 397.1,-497.15 413,-499 531.45,-512.75 670.03,-499.4 752.77,-488.33"/>
<polygon fill="#63b8ff" stroke="#63b8ff" points="753.39,-491.77 762.82,-486.95 752.44,-484.84 753.39,-491.77"/>
</a>
</g>
</g>
<!-- Node13 -->
<g id="Node000013" class="node">
<title>Node13</title>
<g id="a_Node000013"><a xlink:href="../../d1/dfb/classArcane_1_1Array.html#a31fc5b4bd79b4f6e4a011735d33b1818" target="_top" xlink:title="Change le nombre d&#39;éléments du tableau à s.">
<polygon fill="white" stroke="#666666" points="535.5,-489.5 418.5,-489.5 418.5,-470.5 535.5,-470.5 535.5,-489.5"/>
<text text-anchor="middle" x="477" y="-477.5" font-family="Helvetica,sans-Serif" font-size="10.00">Arcane::Array::resize</text>
</a>
</g>
</g>
<!-- Node9&#45;&gt;Node13 -->
<g id="edge14_Node000009_Node000013" class="edge">
<title>Node9&#45;&gt;Node13</title>
<g id="a_edge14_Node000009_Node000013"><a xlink:title=" ">
<path fill="none" stroke="#63b8ff" d="M374.32,-476.92C385.38,-477.25 396.94,-477.6 408.12,-477.94"/>
<polygon fill="#63b8ff" stroke="#63b8ff" points="408.15,-481.45 418.25,-478.25 408.37,-474.45 408.15,-481.45"/>
</a>
</g>
</g>
<!-- Node11 -->
<g id="Node000011" class="node">
<title>Node11</title>
<g id="a_Node000011"><a xlink:href="../../d0/dde/classArcane_1_1BasicSerializer.html#ac4aeb9fb6d49f269ffae88ac64c7e4cb" target="_top" xlink:title="Récupère le tableau values.">
<polygon fill="white" stroke="#666666" points="727,-446.5 577,-446.5 577,-427.5 727,-427.5 727,-446.5"/>
<text text-anchor="middle" x="652" y="-434.5" font-family="Helvetica,sans-Serif" font-size="10.00">Arcane::BasicSerializer::get</text>
</a>
</g>
</g>
<!-- Node10&#45;&gt;Node11 -->
<g id="edge11_Node000010_Node000011" class="edge">
<title>Node10&#45;&gt;Node11</title>
<g id="a_edge11_Node000010_Node000011"><a xlink:title=" ">
<path fill="none" stroke="#63b8ff" d="M541.44,-437C549.59,-437 558.05,-437 566.48,-437"/>
<polygon fill="#63b8ff" stroke="#63b8ff" points="566.72,-440.5 576.72,-437 566.72,-433.5 566.72,-440.5"/>
</a>
</g>
</g>
<!-- Node11&#45;&gt;Node12 -->
<g id="edge12_Node000011_Node000012" class="edge">
<title>Node11&#45;&gt;Node12</title>
<g id="a_edge12_Node000011_Node000012"><a xlink:title=" ">
<path fill="none" stroke="#63b8ff" d="M694.44,-446.58C712.05,-450.65 733.12,-455.52 753.18,-460.16"/>
<polygon fill="#63b8ff" stroke="#63b8ff" points="752.39,-463.57 762.92,-462.42 753.97,-456.75 752.39,-463.57"/>
</a>
</g>
</g>
<!-- Node14&#45;&gt;Node10 -->
<g id="edge18_Node000014_Node000010" class="edge">
<title>Node14&#45;&gt;Node10</title>
<g id="a_edge18_Node000014_Node000010"><a xlink:title=" ">
<path fill="none" stroke="#63b8ff" d="M374.32,-430.84C383.6,-431.4 393.22,-431.98 402.67,-432.56"/>
<polygon fill="#63b8ff" stroke="#63b8ff" points="402.65,-436.06 412.85,-433.17 403.08,-429.07 402.65,-436.06"/>
</a>
</g>
</g>
<!-- Node15 -->
<g id="Node000015" class="node">
<title>Node15</title>
<g id="a_Node000015"><a xlink:href="../../d0/dde/classArcane_1_1BasicSerializer.html#ac7d614dc530d64395cf5fc8c46fd1b29" target="_top" xlink:title="Récupère un entier naturel.">
<polygon fill="white" stroke="#666666" points="541,-404 413,-404 413,-374 541,-374 541,-404"/>
<text text-anchor="start" x="421" y="-392" font-family="Helvetica,sans-Serif" font-size="10.00">Arcane::BasicSerializer</text>
<text text-anchor="middle" x="477" y="-381" font-family="Helvetica,sans-Serif" font-size="10.00">::getInt32</text>
</a>
</g>
</g>
<!-- Node14&#45;&gt;Node15 -->
<g id="edge16_Node000014_Node000015" class="edge">
<title>Node14&#45;&gt;Node15</title>
<g id="a_edge16_Node000014_Node000015"><a xlink:title=" ">
<path fill="none" stroke="#63b8ff" d="M374.32,-412.42C383.7,-410.26 393.42,-408.02 402.98,-405.82"/>
<polygon fill="#63b8ff" stroke="#63b8ff" points="403.89,-409.2 412.85,-403.54 402.32,-402.38 403.89,-409.2"/>
</a>
</g>
</g>
<!-- Node15&#45;&gt;Node11 -->
<g id="edge17_Node000015_Node000011" class="edge">
<title>Node15&#45;&gt;Node11</title>
<g id="a_edge17_Node000015_Node000011"><a xlink:title=" ">
<path fill="none" stroke="#63b8ff" d="M532.26,-404.06C556.26,-410.71 584.12,-418.44 606.82,-424.74"/>
<polygon fill="#63b8ff" stroke="#63b8ff" points="605.96,-428.13 616.53,-427.44 607.83,-421.39 605.96,-428.13"/>
</a>
</g>
</g>
<!-- Node19 -->
<g id="Node000019" class="node">
<title>Node19</title>
<g id="a_Node000019"><a xlink:href="../../d0/dde/classArcane_1_1BasicSerializer.html#a3d58e3f4e78a91b9675eaffd71bb613a" target="_top" xlink:title="Ajoute l&#39;entier value.">
<polygon fill="white" stroke="#666666" points="541,-318 413,-318 413,-288 541,-288 541,-318"/>
<text text-anchor="start" x="421" y="-306" font-family="Helvetica,sans-Serif" font-size="10.00">Arcane::BasicSerializer</text>
<text text-anchor="middle" x="477" y="-295" font-family="Helvetica,sans-Serif" font-size="10.00">::putInt64</text>
</a>
</g>
</g>
<!-- Node18&#45;&gt;Node19 -->
<g id="edge22_Node000018_Node000019" class="edge">
<title>Node18&#45;&gt;Node19</title>
<g id="a_edge22_Node000018_Node000019"><a xlink:title=" ">
<path fill="none" stroke="#63b8ff" d="M374.32,-290.68C383.6,-291.8 393.22,-292.97 402.67,-294.11"/>
<polygon fill="#63b8ff" stroke="#63b8ff" points="402.5,-297.62 412.85,-295.35 403.34,-290.67 402.5,-297.62"/>
</a>
</g>
</g>
<!-- Node21 -->
<g id="Node000021" class="node">
<title>Node21</title>
<g id="a_Node000021"><a xlink:href="../../d0/dde/classArcane_1_1BasicSerializer.html#a18fcf9ae110324dddc9679948d7d24ac" target="_top" xlink:title="Ajoute le tableau values.">
<polygon fill="white" stroke="#666666" points="541,-270 413,-270 413,-240 541,-240 541,-270"/>
<text text-anchor="start" x="421" y="-258" font-family="Helvetica,sans-Serif" font-size="10.00">Arcane::BasicSerializer</text>
<text text-anchor="middle" x="477" y="-247" font-family="Helvetica,sans-Serif" font-size="10.00">::putSpan</text>
</a>
</g>
</g>
<!-- Node18&#45;&gt;Node21 -->
<g id="edge24_Node000018_Node000021" class="edge">
<title>Node18&#45;&gt;Node21</title>
<g id="a_edge24_Node000018_Node000021"><a xlink:title=" ">
<path fill="none" stroke="#63b8ff" d="M374.32,-272.25C383.7,-270.66 393.42,-269.01 402.98,-267.39"/>
<polygon fill="#63b8ff" stroke="#63b8ff" points="403.57,-270.84 412.85,-265.72 402.4,-263.94 403.57,-270.84"/>
</a>
</g>
</g>
<!-- Node22 -->
<g id="Node000022" class="node">
<title>Node22</title>
<g id="a_Node000022"><a xlink:href="../../df/d52/classArcane_1_1SpanImpl.html#ad324bebcf918e08f8f21d85a3e57a8e6" target="_top" xlink:title="Retourne la taille du tableau.">
<polygon fill="white" stroke="#666666" points="541,-355.5 413,-355.5 413,-336.5 541,-336.5 541,-355.5"/>
<text text-anchor="middle" x="477" y="-343.5" font-family="Helvetica,sans-Serif" font-size="10.00">Arcane::SpanImpl::size</text>
</a>
</g>
</g>
<!-- Node18&#45;&gt;Node22 -->
<g id="edge25_Node000018_Node000022" class="edge">
<title>Node18&#45;&gt;Node22</title>
<g id="a_edge25_Node000018_Node000022"><a xlink:title=" ">
<path fill="none" stroke="#63b8ff" d="M355.41,-298.05C362.7,-300.84 370.12,-303.86 377,-307 393.65,-314.6 396.14,-319.87 413,-327 418.39,-329.28 424.15,-331.41 429.91,-333.36"/>
<polygon fill="#63b8ff" stroke="#63b8ff" points="428.96,-336.72 439.55,-336.45 431.1,-330.06 428.96,-336.72"/>
</a>
</g>
</g>
<!-- Node20 -->
<g id="Node000020" class="node">
<title>Node20</title>
<g id="a_Node000020"><a xlink:href="../../d0/dde/classArcane_1_1BasicSerializer.html#a64efa02a9865ae622e32880e2e08a532" target="_top" xlink:title="Ajoute le tableau values.">
<polygon fill="white" stroke="#666666" points="727,-264.5 577,-264.5 577,-245.5 727,-245.5 727,-264.5"/>
<text text-anchor="middle" x="652" y="-252.5" font-family="Helvetica,sans-Serif" font-size="10.00">Arcane::BasicSerializer::put</text>
</a>
</g>
</g>
<!-- Node19&#45;&gt;Node20 -->
<g id="edge23_Node000019_Node000020" class="edge">
<title>Node19&#45;&gt;Node20</title>
<g id="a_edge23_Node000019_Node000020"><a xlink:title=" ">
<path fill="none" stroke="#63b8ff" d="M532.26,-287.94C556.26,-281.29 584.12,-273.56 606.82,-267.26"/>
<polygon fill="#63b8ff" stroke="#63b8ff" points="607.83,-270.61 616.53,-264.56 605.96,-263.87 607.83,-270.61"/>
</a>
</g>
</g>
<!-- Node23&#45;&gt;Node20 -->
<g id="edge27_Node000023_Node000020" class="edge">
<title>Node23&#45;&gt;Node20</title>
<g id="a_edge27_Node000023_Node000020"><a xlink:title=" ">
<path fill="none" stroke="#63b8ff" d="M532.26,-222.06C556.26,-228.71 584.12,-236.44 606.82,-242.74"/>
<polygon fill="#63b8ff" stroke="#63b8ff" points="605.96,-246.13 616.53,-245.44 607.83,-239.39 605.96,-246.13"/>
</a>
</g>
</g>
<!-- Node26 -->
<g id="Node000026" class="node">
<title>Node26</title>
<g id="a_Node000026"><a xlink:href="../../d3/d52/classArcane_1_1ISerializer.html#a0ea34b49a6203622f49c468cdb89e392" target="_top" xlink:title="Réserve pour n Int64.">
<polygon fill="white" stroke="#666666" points="529.5,-174 424.5,-174 424.5,-144 529.5,-144 529.5,-174"/>
<text text-anchor="start" x="432.5" y="-162" font-family="Helvetica,sans-Serif" font-size="10.00">Arcane::ISerializer</text>
<text text-anchor="middle" x="477" y="-151" font-family="Helvetica,sans-Serif" font-size="10.00">::reserveInt64</text>
</a>
</g>
</g>
<!-- Node25&#45;&gt;Node26 -->
<g id="edge30_Node000025_Node000026" class="edge">
<title>Node25&#45;&gt;Node26</title>
<g id="a_edge30_Node000025_Node000026"><a xlink:title=" ">
<path fill="none" stroke="#63b8ff" d="M374.32,-159C387.37,-159 401.1,-159 414.1,-159"/>
<polygon fill="#63b8ff" stroke="#63b8ff" points="414.34,-162.5 424.34,-159 414.34,-155.5 414.34,-162.5"/>
</a>
</g>
</g>
<!-- Node28 -->
<g id="Node000028" class="node">
<title>Node28</title>
<g id="a_Node000028"><a xlink:href="../../d0/dde/classArcane_1_1BasicSerializer.html#a86d35f0c6452e893be9c62dddb477407" target="_top" xlink:title="Réserve de la mémoire pour n valeurs de dt.">
<polygon fill="white" stroke="#666666" points="541,-126 413,-126 413,-96 541,-96 541,-126"/>
<text text-anchor="start" x="421" y="-114" font-family="Helvetica,sans-Serif" font-size="10.00">Arcane::BasicSerializer</text>
<text text-anchor="middle" x="477" y="-103" font-family="Helvetica,sans-Serif" font-size="10.00">::reserveSpan</text>
</a>
</g>
</g>
<!-- Node25&#45;&gt;Node28 -->
<g id="edge32_Node000025_Node000028" class="edge">
<title>Node25&#45;&gt;Node28</title>
<g id="a_edge32_Node000025_Node000028"><a xlink:title=" ">
<path fill="none" stroke="#63b8ff" d="M362.75,-143.94C379.19,-139.16 397.52,-133.83 414.57,-128.87"/>
<polygon fill="#63b8ff" stroke="#63b8ff" points="415.81,-132.16 424.43,-126 413.85,-125.44 415.81,-132.16"/>
</a>
</g>
</g>
<!-- Node27 -->
<g id="Node000027" class="node">
<title>Node27</title>
<g id="a_Node000027"><a xlink:href="../../d3/d52/classArcane_1_1ISerializer.html#a198f9f8f2f37c303232208cc3391d899" target="_top" xlink:title="Réserve de la mémoire pour n objets de type dt.">
<polygon fill="white" stroke="#666666" points="704.5,-174 599.5,-174 599.5,-144 704.5,-144 704.5,-174"/>
<text text-anchor="start" x="607.5" y="-162" font-family="Helvetica,sans-Serif" font-size="10.00">Arcane::ISerializer</text>
<text text-anchor="middle" x="652" y="-151" font-family="Helvetica,sans-Serif" font-size="10.00">::reserve</text>
</a>
</g>
</g>
<!-- Node26&#45;&gt;Node27 -->
<g id="edge31_Node000026_Node000027" class="edge">
<title>Node26&#45;&gt;Node27</title>
<g id="a_edge31_Node000026_Node000027"><a xlink:title=" ">
<path fill="none" stroke="#63b8ff" d="M529.91,-159C548.55,-159 569.76,-159 589.17,-159"/>
<polygon fill="#63b8ff" stroke="#63b8ff" points="589.43,-162.5 599.43,-159 589.43,-155.5 589.43,-162.5"/>
</a>
</g>
</g>
</g>
</svg>
