<?xml version="1.0" encoding="UTF-8" standalone="no"?>
<!DOCTYPE svg PUBLIC "-//W3C//DTD SVG 1.1//EN"
 "http://www.w3.org/Graphics/SVG/1.1/DTD/svg11.dtd">
<!-- Generated by graphviz version 14.1.2 (0)
 -->
<!-- Title: Arcane::JSONValue::value Pages: 1 -->
<svg width="446pt" height="94pt"
 viewBox="0.00 0.00 446.00 94.00" xmlns="http://www.w3.org/2000/svg" xmlns:xlink="http://www.w3.org/1999/xlink">
<g id="graph0" class="graph" transform="scale(1 1) rotate(0) translate(4 89.5)">
<title>Arcane::JSONValue::value</title>
<!-- Node1 -->
<g id="Node000001" class="node">
<title>Node1</title>
<g id="a_Node000001"><a xlink:title="Valeur sous forme de String. La chaîne retournée est nulle si &#39;null()&#39; est vrai.">
<polygon fill="#999999" stroke="#666666" points="438,-62.5 325.25,-62.5 325.25,-29 438,-29 438,-62.5"/>
<text xml:space="preserve" text-anchor="start" x="333.25" y="-49" font-family="Helvetica,sans-Serif" font-size="10.00">Arcane::JSONValue::</text>
<text xml:space="preserve" text-anchor="middle" x="381.62" y="-36.25" font-family="Helvetica,sans-Serif" font-size="10.00">value</text>
</a>
</g>
</g>
<!-- Node2 -->
<g id="Node000002" class="node">
<title>Node2</title>
<g id="a_Node000002"><a xlink:href="../../d5/d16/classArcane_1_1VariableIOReaderMng.html#a1a053ea3ea4af4d53afdd0a79b684251" target="_top" xlink:title="Lecture des méta&#45;données.">
<polygon fill="white" stroke="#666666" points="140.5,-85.5 0,-85.5 0,-52 140.5,-52 140.5,-85.5"/>
<text xml:space="preserve" text-anchor="start" x="8" y="-72" font-family="Helvetica,sans-Serif" font-size="10.00">Arcane::VariableIOReader</text>
<text xml:space="preserve" text-anchor="middle" x="70.25" y="-59.25" font-family="Helvetica,sans-Serif" font-size="10.00">Mng::_readMetaData</text>
</a>
</g>
</g>
<!-- Node1&#45;&gt;Node2 -->
<g id="edge1_Node000001_Node000002" class="edge">
<title>Node1&#45;&gt;Node2</title>
<g id="a_edge1_Node000001_Node000002"><a xlink:title=" ">
<path fill="none" stroke="#63b8ff" d="M313.72,-50.72C262.66,-54.52 192.54,-59.73 140.84,-63.58"/>
<polygon fill="#63b8ff" stroke="#63b8ff" points="313.74,-54.23 323.45,-50 313.22,-47.25 313.74,-54.23"/>
</a>
</g>
</g>
<!-- Node3 -->
<g id="Node000003" class="node">
<title>Node3</title>
<g id="a_Node000003"><a xlink:href="../../de/da3/classArcane_1_1JSONValue.html#af6da0aa5b9c78c5192159d04c80f55fa" target="_top" xlink:title="Valeur fille de nom name. Retourne une valeur nulle si non trouvé.">
<polygon fill="white" stroke="#666666" points="289.25,-40.5 176.5,-40.5 176.5,-7 289.25,-7 289.25,-40.5"/>
<text xml:space="preserve" text-anchor="start" x="184.5" y="-27" font-family="Helvetica,sans-Serif" font-size="10.00">Arcane::JSONValue::</text>
<text xml:space="preserve" text-anchor="middle" x="232.88" y="-14.25" font-family="Helvetica,sans-Serif" font-size="10.00">child</text>
</a>
</g>
</g>
<!-- Node1&#45;&gt;Node3 -->
<g id="edge2_Node000001_Node000003" class="edge">
<title>Node1&#45;&gt;Node3</title>
<g id="a_edge2_Node000001_Node000003"><a xlink:title=" ">
<path fill="none" stroke="#63b8ff" d="M314.04,-35.77C305.81,-34.53 297.47,-33.28 289.43,-32.08"/>
<polygon fill="#63b8ff" stroke="#63b8ff" points="313.24,-39.19 323.65,-37.21 314.28,-32.26 313.24,-39.19"/>
</a>
</g>
</g>
<!-- Node3&#45;&gt;Node2 -->
<g id="edge3_Node000003_Node000002" class="edge">
<title>Node3&#45;&gt;Node2</title>
<g id="a_edge3_Node000003_Node000002"><a xlink:title=" ">
<path fill="none" stroke="#63b8ff" d="M165.1,-42.46C154.34,-45.47 143.26,-48.58 132.64,-51.55"/>
<polygon fill="#63b8ff" stroke="#63b8ff" points="166,-45.84 174.69,-39.77 164.12,-39.1 166,-45.84"/>
</a>
</g>
</g>
<!-- Node4 -->
<g id="Node000004" class="node">
<title>Node4</title>
<g id="a_Node000004"><a xlink:href="../../d6/d2a/classArcane_1_1Application.html#a90209a52f4e60c416dd7f30ac01c8204" target="_top" xlink:title="Initialise l&#39;instance. L&#39;instance n&#39;est pas utilisable tant que cette méthode n&#39;a pas été appelée.">
<polygon fill="white" stroke="#666666" points="125.5,-33.5 15,-33.5 15,0 125.5,0 125.5,-33.5"/>
<text xml:space="preserve" text-anchor="start" x="23" y="-20" font-family="Helvetica,sans-Serif" font-size="10.00">Arcane::Application</text>
<text xml:space="preserve" text-anchor="middle" x="70.25" y="-7.25" font-family="Helvetica,sans-Serif" font-size="10.00">::initialize</text>
</a>
</g>
</g>
<!-- Node3&#45;&gt;Node4 -->
<g id="edge4_Node000003_Node000004" class="edge">
<title>Node3&#45;&gt;Node4</title>
<g id="a_edge4_Node000003_Node000004"><a xlink:title=" ">
<path fill="none" stroke="#63b8ff" d="M164.87,-20.83C151.85,-20.26 138.35,-19.67 125.79,-19.13"/>
<polygon fill="#63b8ff" stroke="#63b8ff" points="164.49,-24.32 174.63,-21.26 164.8,-17.32 164.49,-24.32"/>
</a>
</g>
</g>
</g>
</svg>
