<?xml version="1.0" encoding="UTF-8" standalone="no"?>
<!DOCTYPE svg PUBLIC "-//W3C//DTD SVG 1.1//EN"
 "http://www.w3.org/Graphics/SVG/1.1/DTD/svg11.dtd">
<!-- Generated by graphviz version 2.43.0 (0)
 -->
<!-- Title: Arcane::Hdf5Utils::HAttribute Pages: 1 -->
<svg width="127pt" height="438pt"
 viewBox="0.00 0.00 127.00 438.00" xmlns="http://www.w3.org/2000/svg" xmlns:xlink="http://www.w3.org/1999/xlink">
<g id="graph0" class="graph" transform="scale(1 1) rotate(0) translate(4 434)">
<title>Arcane::Hdf5Utils::HAttribute</title>
<!-- Node1 -->
<g id="Node000001" class="node">
<title>Node1</title>
<g id="a_Node000001"><a xlink:title="Encapsule un hid_t pour un attribute.">
<polygon fill="#999999" stroke="transparent" points="110.5,-225 8.5,-225 8.5,0 110.5,0 110.5,-225"/>
<text text-anchor="start" x="13.5" y="-212.5" font-family="Helvetica,sans-Serif" font-size="10.00">Arcane::Hdf5Utils::</text>
<text text-anchor="start" x="34" y="-201.5" font-family="Helvetica,sans-Serif" font-size="10.00">HAttribute</text>
<text text-anchor="start" x="57.5" y="-186.5" font-family="Helvetica,sans-Serif" font-size="10.00"> </text>
<text text-anchor="start" x="16" y="-171.5" font-family="Helvetica,sans-Serif" font-size="10.00">+</text>
<text text-anchor="start" x="32.5" y="-171.5" font-family="Helvetica,sans-Serif" font-size="10.00">HAttribute()</text>
<text text-anchor="start" x="16" y="-156.5" font-family="Helvetica,sans-Serif" font-size="10.00">+</text>
<text text-anchor="start" x="32.5" y="-156.5" font-family="Helvetica,sans-Serif" font-size="10.00">~HAttribute()</text>
<text text-anchor="start" x="16" y="-141.5" font-family="Helvetica,sans-Serif" font-size="10.00">+</text>
<text text-anchor="start" x="32.5" y="-141.5" font-family="Helvetica,sans-Serif" font-size="10.00">HAttribute()</text>
<text text-anchor="start" x="16" y="-126.5" font-family="Helvetica,sans-Serif" font-size="10.00">+</text>
<text text-anchor="start" x="32.5" y="-126.5" font-family="Helvetica,sans-Serif" font-size="10.00">operator=()</text>
<text text-anchor="start" x="16" y="-111.5" font-family="Helvetica,sans-Serif" font-size="10.00">+</text>
<text text-anchor="start" x="32.5" y="-111.5" font-family="Helvetica,sans-Serif" font-size="10.00">operator=()</text>
<text text-anchor="start" x="16" y="-96.5" font-family="Helvetica,sans-Serif" font-size="10.00">+</text>
<text text-anchor="start" x="32.5" y="-96.5" font-family="Helvetica,sans-Serif" font-size="10.00">HAttribute()</text>
<text text-anchor="start" x="16" y="-81.5" font-family="Helvetica,sans-Serif" font-size="10.00">+</text>
<text text-anchor="start" x="32.5" y="-81.5" font-family="Helvetica,sans-Serif" font-size="10.00">remove()</text>
<text text-anchor="start" x="16" y="-66.5" font-family="Helvetica,sans-Serif" font-size="10.00">+</text>
<text text-anchor="start" x="32.5" y="-66.5" font-family="Helvetica,sans-Serif" font-size="10.00">create()</text>
<text text-anchor="start" x="16" y="-51.5" font-family="Helvetica,sans-Serif" font-size="10.00">+</text>
<text text-anchor="start" x="32.5" y="-51.5" font-family="Helvetica,sans-Serif" font-size="10.00">open()</text>
<text text-anchor="start" x="16" y="-36.5" font-family="Helvetica,sans-Serif" font-size="10.00">+</text>
<text text-anchor="start" x="32.5" y="-36.5" font-family="Helvetica,sans-Serif" font-size="10.00">write()</text>
<text text-anchor="start" x="16" y="-21.5" font-family="Helvetica,sans-Serif" font-size="10.00">+</text>
<text text-anchor="start" x="32.5" y="-21.5" font-family="Helvetica,sans-Serif" font-size="10.00">read()</text>
<text text-anchor="start" x="16" y="-6.5" font-family="Helvetica,sans-Serif" font-size="10.00">+</text>
<text text-anchor="start" x="32.5" y="-6.5" font-family="Helvetica,sans-Serif" font-size="10.00">getSpace()</text>
<polygon fill="#666666" stroke="#666666" points="8.5,-196.5 8.5,-196.5 110.5,-196.5 110.5,-196.5 8.5,-196.5"/>
<polygon fill="#666666" stroke="#666666" points="8.5,-181.5 8.5,-181.5 110.5,-181.5 110.5,-181.5 8.5,-181.5"/>
<polygon fill="none" stroke="#666666" points="8.5,0 8.5,-225 110.5,-225 110.5,0 8.5,0"/>
</a>
</g>
</g>
<!-- Node2 -->
<g id="Node000002" class="node">
<title>Node2</title>
<g id="a_Node000002"><a xlink:href="../../dd/d43/classArcane_1_1Hdf5Utils_1_1Hid.html" target="_top" xlink:title="Encapsule un hid_t.">
<polygon fill="white" stroke="transparent" points="119,-430 0,-430 0,-261 119,-261 119,-430"/>
<text text-anchor="start" x="5.5" y="-417.5" font-family="Helvetica,sans-Serif" font-size="10.00">Arcane::Hdf5Utils::Hid</text>
<text text-anchor="start" x="17" y="-402.5" font-family="Helvetica,sans-Serif" font-size="10.00">&#45;</text>
<text text-anchor="start" x="37.5" y="-402.5" font-family="Helvetica,sans-Serif" font-size="10.00">m_id</text>
<text text-anchor="start" x="14.5" y="-387.5" font-family="Helvetica,sans-Serif" font-size="10.00">+</text>
<text text-anchor="start" x="37.5" y="-387.5" font-family="Helvetica,sans-Serif" font-size="10.00">Hid()</text>
<text text-anchor="start" x="14.5" y="-372.5" font-family="Helvetica,sans-Serif" font-size="10.00">+</text>
<text text-anchor="start" x="37.5" y="-372.5" font-family="Helvetica,sans-Serif" font-size="10.00">Hid()</text>
<text text-anchor="start" x="14.5" y="-357.5" font-family="Helvetica,sans-Serif" font-size="10.00">+</text>
<text text-anchor="start" x="37.5" y="-357.5" font-family="Helvetica,sans-Serif" font-size="10.00">~Hid()</text>
<text text-anchor="start" x="14.5" y="-342.5" font-family="Helvetica,sans-Serif" font-size="10.00">+</text>
<text text-anchor="start" x="37.5" y="-342.5" font-family="Helvetica,sans-Serif" font-size="10.00">id()</text>
<text text-anchor="start" x="14.5" y="-327.5" font-family="Helvetica,sans-Serif" font-size="10.00">+</text>
<text text-anchor="start" x="37.5" y="-327.5" font-family="Helvetica,sans-Serif" font-size="10.00">isBad()</text>
<text text-anchor="start" x="14.5" y="-312.5" font-family="Helvetica,sans-Serif" font-size="10.00">#</text>
<text text-anchor="start" x="37.5" y="-312.5" font-family="Helvetica,sans-Serif" font-size="10.00">Hid()</text>
<text text-anchor="start" x="14.5" y="-297.5" font-family="Helvetica,sans-Serif" font-size="10.00">#</text>
<text text-anchor="start" x="37.5" y="-297.5" font-family="Helvetica,sans-Serif" font-size="10.00">_setId()</text>
<text text-anchor="start" x="14.5" y="-282.5" font-family="Helvetica,sans-Serif" font-size="10.00">#</text>
<text text-anchor="start" x="37.5" y="-282.5" font-family="Helvetica,sans-Serif" font-size="10.00">_setNullId()</text>
<text text-anchor="start" x="17" y="-267.5" font-family="Helvetica,sans-Serif" font-size="10.00">&#45;</text>
<text text-anchor="start" x="37.5" y="-267.5" font-family="Helvetica,sans-Serif" font-size="10.00">operator=()</text>
<polygon fill="#666666" stroke="#666666" points="0.5,-412.5 0.5,-412.5 119.5,-412.5 119.5,-412.5 0.5,-412.5"/>
<polygon fill="#666666" stroke="#666666" points="0.5,-397.5 0.5,-397.5 35.5,-397.5 35.5,-397.5 0.5,-397.5"/>
<polygon fill="#666666" stroke="#666666" points="35.5,-397.5 35.5,-397.5 119.5,-397.5 119.5,-397.5 35.5,-397.5"/>
<polygon fill="none" stroke="#666666" points="0,-261 0,-430 119,-430 119,-261 0,-261"/>
</a>
</g>
</g>
<!-- Node2&#45;&gt;Node1 -->
<g id="edge1_Node000001_Node000002" class="edge">
<title>Node2&#45;&gt;Node1</title>
<g id="a_edge1_Node000001_Node000002"><a xlink:title=" ">
<path fill="none" stroke="#63b8ff" d="M59.5,-250.6C59.5,-242.17 59.5,-233.59 59.5,-225.04"/>
<polygon fill="none" stroke="#63b8ff" points="56,-250.78 59.5,-260.78 63,-250.78 56,-250.78"/>
</a>
</g>
</g>
</g>
</svg>
