<?xml version="1.0" encoding="UTF-8" standalone="no"?>
<!DOCTYPE svg PUBLIC "-//W3C//DTD SVG 1.1//EN"
 "http://www.w3.org/Graphics/SVG/1.1/DTD/svg11.dtd">
<!-- Generated by graphviz version 2.43.0 (0)
 -->
<!-- Title: MeshUtils.h Pages: 1 -->
<svg width="3934pt" height="148pt"
 viewBox="0.00 0.00 3934.00 148.00" xmlns="http://www.w3.org/2000/svg" xmlns:xlink="http://www.w3.org/1999/xlink">
<g id="graph0" class="graph" transform="scale(1 1) rotate(0) translate(4 144)">
<title>MeshUtils.h</title>
<!-- Node1 -->
<g id="Node000001" class="node">
<title>Node1</title>
<g id="a_Node000001"><a xlink:title="Fonctions utilitaires sur le maillage.">
<polygon fill="#999999" stroke="#666666" points="2012.5,-140 1938.5,-140 1938.5,-121 2012.5,-121 2012.5,-140"/>
<text text-anchor="middle" x="1975.5" y="-128" font-family="Helvetica,sans-Serif" font-size="10.00">MeshUtils.h</text>
</a>
</g>
</g>
<!-- Node2 -->
<g id="Node000002" class="node">
<title>Node2</title>
<g id="a_Node000002"><a xlink:href="../../dc/db8/ArcaneBasicMeshSubdividerService_8cc_source.html" target="_top" xlink:title=" ">
<polygon fill="white" stroke="#666666" points="155,-85 0,-85 0,-55 155,-55 155,-85"/>
<text text-anchor="start" x="8" y="-73" font-family="Helvetica,sans-Serif" font-size="10.00">ArcaneBasicMeshSubdivider</text>
<text text-anchor="middle" x="77.5" y="-62" font-family="Helvetica,sans-Serif" font-size="10.00">Service.cc</text>
</a>
</g>
</g>
<!-- Node1&#45;&gt;Node2 -->
<g id="edge1_Node000001_Node000002" class="edge">
<title>Node1&#45;&gt;Node2</title>
<g id="a_edge1_Node000001_Node000002"><a xlink:title=" ">
<path fill="none" stroke="#63b8ff" d="M1927.98,-129.2C1678.86,-127.51 521.48,-117.96 164.5,-85 161.45,-84.72 158.35,-84.4 155.22,-84.04"/>
<polygon fill="#63b8ff" stroke="#63b8ff" points="1928.12,-132.7 1938.14,-129.27 1928.17,-125.7 1928.12,-132.7"/>
</a>
</g>
</g>
<!-- Node3 -->
<g id="Node000003" class="node">
<title>Node3</title>
<g id="a_Node000003"><a xlink:href="../../d9/d44/BasicReaderWriter_8cc_source.html" target="_top" xlink:title=" ">
<polygon fill="white" stroke="#666666" points="293.5,-79.5 173.5,-79.5 173.5,-60.5 293.5,-60.5 293.5,-79.5"/>
<text text-anchor="middle" x="233.5" y="-67.5" font-family="Helvetica,sans-Serif" font-size="10.00">BasicReaderWriter.cc</text>
</a>
</g>
</g>
<!-- Node1&#45;&gt;Node3 -->
<g id="edge2_Node000001_Node000003" class="edge">
<title>Node1&#45;&gt;Node3</title>
<g id="a_edge2_Node000001_Node000003"><a xlink:title=" ">
<path fill="none" stroke="#63b8ff" d="M1928.19,-129.35C1691.02,-128.44 629.98,-122.29 302.5,-85 291.69,-83.77 280.06,-81.7 269.48,-79.53"/>
<polygon fill="#63b8ff" stroke="#63b8ff" points="1928.2,-132.85 1938.21,-129.39 1928.23,-125.85 1928.2,-132.85"/>
</a>
</g>
</g>
<!-- Node4 -->
<g id="Node000004" class="node">
<title>Node4</title>
<g id="a_Node000004"><a xlink:href="../../d2/d8e/CartesianMeshGenerator_8cc_source.html" target="_top" xlink:title=" ">
<polygon fill="white" stroke="#666666" points="463,-79.5 312,-79.5 312,-60.5 463,-60.5 463,-79.5"/>
<text text-anchor="middle" x="387.5" y="-67.5" font-family="Helvetica,sans-Serif" font-size="10.00">CartesianMeshGenerator.cc</text>
</a>
</g>
</g>
<!-- Node1&#45;&gt;Node4 -->
<g id="edge3_Node000001_Node000004" class="edge">
<title>Node1&#45;&gt;Node4</title>
<g id="a_edge3_Node000001_Node000004"><a xlink:title=" ">
<path fill="none" stroke="#63b8ff" d="M1928.46,-128.95C1706.82,-126.26 765.21,-113.31 472.5,-85 459.4,-83.73 445.26,-81.68 432.35,-79.54"/>
<polygon fill="#63b8ff" stroke="#63b8ff" points="1928.43,-132.45 1938.47,-129.08 1928.51,-125.46 1928.43,-132.45"/>
</a>
</g>
</g>
<!-- Node5 -->
<g id="Node000005" class="node">
<title>Node5</title>
<g id="a_Node000005"><a xlink:href="../../d0/d3e/CartesianMeshUniqueIdRenumbering_8cc_source.html" target="_top" xlink:title=" ">
<polygon fill="white" stroke="#666666" points="693.5,-79.5 481.5,-79.5 481.5,-60.5 693.5,-60.5 693.5,-79.5"/>
<text text-anchor="middle" x="587.5" y="-67.5" font-family="Helvetica,sans-Serif" font-size="10.00">CartesianMeshUniqueIdRenumbering.cc</text>
</a>
</g>
</g>
<!-- Node1&#45;&gt;Node5 -->
<g id="edge4_Node000001_Node000005" class="edge">
<title>Node1&#45;&gt;Node5</title>
<g id="a_edge4_Node000001_Node000005"><a xlink:title=" ">
<path fill="none" stroke="#63b8ff" d="M1928.27,-129.32C1760.82,-128.35 1180.05,-122.34 702.5,-85 685.16,-83.64 666.4,-81.61 649.17,-79.5"/>
<polygon fill="#63b8ff" stroke="#63b8ff" points="1928.44,-132.82 1938.46,-129.37 1928.48,-125.82 1928.44,-132.82"/>
</a>
</g>
</g>
<!-- Node6 -->
<g id="Node000006" class="node">
<title>Node6</title>
<g id="a_Node000006"><a xlink:href="../../d4/d7a/ConstituentConnectivityList_8cc_source.html" target="_top" xlink:title=" ">
<polygon fill="white" stroke="#666666" points="877,-79.5 712,-79.5 712,-60.5 877,-60.5 877,-79.5"/>
<text text-anchor="middle" x="794.5" y="-67.5" font-family="Helvetica,sans-Serif" font-size="10.00">ConstituentConnectivityList.cc</text>
</a>
</g>
</g>
<!-- Node1&#45;&gt;Node6 -->
<g id="edge5_Node000001_Node000006" class="edge">
<title>Node1&#45;&gt;Node6</title>
<g id="a_edge5_Node000001_Node000006"><a xlink:title=" ">
<path fill="none" stroke="#63b8ff" d="M1928.12,-129.28C1776.74,-128.22 1291.24,-121.95 891.5,-85 876.84,-83.65 861.02,-81.61 846.49,-79.5"/>
<polygon fill="#63b8ff" stroke="#63b8ff" points="1928.42,-132.79 1938.44,-129.35 1928.46,-125.79 1928.42,-132.79"/>
</a>
</g>
</g>
<!-- Node7 -->
<g id="Node000007" class="node">
<title>Node7</title>
<g id="a_Node000007"><a xlink:href="../../d2/d1d/DynamicMesh_8cc_source.html" target="_top" xlink:title=" ">
<polygon fill="white" stroke="#666666" points="920.5,-19 820.5,-19 820.5,0 920.5,0 920.5,-19"/>
<text text-anchor="middle" x="870.5" y="-7" font-family="Helvetica,sans-Serif" font-size="10.00">DynamicMesh.cc</text>
</a>
</g>
</g>
<!-- Node1&#45;&gt;Node7 -->
<g id="edge6_Node000001_Node000007" class="edge">
<title>Node1&#45;&gt;Node7</title>
<g id="a_edge6_Node000001_Node000007"><a xlink:title=" ">
<path fill="none" stroke="#63b8ff" d="M1928.27,-129.35C1739.14,-128.47 1042.28,-122.69 951.5,-85 917.62,-70.93 889,-36.06 876.8,-19.5"/>
<polygon fill="#63b8ff" stroke="#63b8ff" points="1928.43,-132.85 1938.44,-129.39 1928.46,-125.85 1928.43,-132.85"/>
</a>
</g>
</g>
<!-- Node8 -->
<g id="Node000008" class="node">
<title>Node8</title>
<g id="a_Node000008"><a xlink:href="../../dc/d81/DynamicMeshChecker_8cc_source.html" target="_top" xlink:title=" ">
<polygon fill="white" stroke="#666666" points="1211.5,-79.5 1073.5,-79.5 1073.5,-60.5 1211.5,-60.5 1211.5,-79.5"/>
<text text-anchor="middle" x="1142.5" y="-67.5" font-family="Helvetica,sans-Serif" font-size="10.00">DynamicMeshChecker.cc</text>
</a>
</g>
</g>
<!-- Node1&#45;&gt;Node8 -->
<g id="edge7_Node000001_Node000008" class="edge">
<title>Node1&#45;&gt;Node8</title>
<g id="a_edge7_Node000001_Node000008"><a xlink:title=" ">
<path fill="none" stroke="#63b8ff" d="M1928.21,-128.66C1809.04,-126.12 1486.92,-116.65 1220.5,-85 1208.89,-83.62 1196.39,-81.61 1184.87,-79.55"/>
<polygon fill="#63b8ff" stroke="#63b8ff" points="1928.37,-132.17 1938.44,-128.87 1928.51,-125.17 1928.37,-132.17"/>
</a>
</g>
</g>
<!-- Node9 -->
<g id="Node000009" class="node">
<title>Node9</title>
<g id="a_Node000009"><a xlink:href="../../db/d7d/DynamicMeshIncrementalBuilder_8cc_source.html" target="_top" xlink:title=" ">
<polygon fill="white" stroke="#666666" points="1421.5,-79.5 1229.5,-79.5 1229.5,-60.5 1421.5,-60.5 1421.5,-79.5"/>
<text text-anchor="middle" x="1325.5" y="-67.5" font-family="Helvetica,sans-Serif" font-size="10.00">DynamicMeshIncrementalBuilder.cc</text>
</a>
</g>
</g>
<!-- Node1&#45;&gt;Node9 -->
<g id="edge8_Node000001_Node000009" class="edge">
<title>Node1&#45;&gt;Node9</title>
<g id="a_edge8_Node000001_Node000009"><a xlink:title=" ">
<path fill="none" stroke="#63b8ff" d="M1928.07,-126.42C1833.48,-120.09 1614.73,-104.58 1431.5,-85 1416.73,-83.42 1400.85,-81.46 1385.98,-79.52"/>
<polygon fill="#63b8ff" stroke="#63b8ff" points="1927.96,-129.92 1938.18,-127.09 1928.43,-122.93 1927.96,-129.92"/>
</a>
</g>
</g>
<!-- Node10 -->
<g id="Node000010" class="node">
<title>Node10</title>
<g id="a_Node000010"><a xlink:href="../../d2/d96/EdgeFamily_8cc_source.html" target="_top" xlink:title=" ">
<polygon fill="white" stroke="#666666" points="1525,-79.5 1440,-79.5 1440,-60.5 1525,-60.5 1525,-79.5"/>
<text text-anchor="middle" x="1482.5" y="-67.5" font-family="Helvetica,sans-Serif" font-size="10.00">EdgeFamily.cc</text>
</a>
</g>
</g>
<!-- Node1&#45;&gt;Node10 -->
<g id="edge9_Node000001_Node000010" class="edge">
<title>Node1&#45;&gt;Node10</title>
<g id="a_edge9_Node000001_Node000010"><a xlink:title=" ">
<path fill="none" stroke="#63b8ff" d="M1927.94,-127.24C1846.72,-122.81 1676.28,-111.06 1534.5,-85 1526.78,-83.58 1518.52,-81.58 1510.92,-79.54"/>
<polygon fill="#63b8ff" stroke="#63b8ff" points="1928.16,-130.75 1938.33,-127.79 1928.53,-123.76 1928.16,-130.75"/>
</a>
</g>
</g>
<!-- Node11 -->
<g id="Node000011" class="node">
<title>Node11</title>
<g id="a_Node000011"><a xlink:href="../../d0/da9/FaceReorienter_8cc_source.html" target="_top" xlink:title=" ">
<polygon fill="white" stroke="#666666" points="1645.5,-79.5 1543.5,-79.5 1543.5,-60.5 1645.5,-60.5 1645.5,-79.5"/>
<text text-anchor="middle" x="1594.5" y="-67.5" font-family="Helvetica,sans-Serif" font-size="10.00">FaceReorienter.cc</text>
</a>
</g>
</g>
<!-- Node1&#45;&gt;Node11 -->
<g id="edge10_Node000001_Node000011" class="edge">
<title>Node1&#45;&gt;Node11</title>
<g id="a_edge10_Node000001_Node000011"><a xlink:title=" ">
<path fill="none" stroke="#63b8ff" d="M1928.41,-124.26C1865.83,-116.99 1751.91,-102.73 1655.5,-85 1646.95,-83.43 1637.79,-81.47 1629.23,-79.52"/>
<polygon fill="#63b8ff" stroke="#63b8ff" points="1928.04,-127.74 1938.38,-125.41 1928.84,-120.78 1928.04,-127.74"/>
</a>
</g>
</g>
<!-- Node12 -->
<g id="Node000012" class="node">
<title>Node12</title>
<g id="a_Node000012"><a xlink:href="../../d5/db2/GhostLayerBuilder_8cc_source.html" target="_top" xlink:title=" ">
<polygon fill="white" stroke="#666666" points="1783,-79.5 1664,-79.5 1664,-60.5 1783,-60.5 1783,-79.5"/>
<text text-anchor="middle" x="1723.5" y="-67.5" font-family="Helvetica,sans-Serif" font-size="10.00">GhostLayerBuilder.cc</text>
</a>
</g>
</g>
<!-- Node1&#45;&gt;Node12 -->
<g id="edge11_Node000001_Node000012" class="edge">
<title>Node1&#45;&gt;Node12</title>
<g id="a_edge11_Node000001_Node000012"><a xlink:title=" ">
<path fill="none" stroke="#63b8ff" d="M1928.89,-118.68C1880.2,-107.38 1804.81,-89.88 1760.19,-79.52"/>
<polygon fill="#63b8ff" stroke="#63b8ff" points="1928.32,-122.14 1938.86,-120.99 1929.91,-115.32 1928.32,-122.14"/>
</a>
</g>
</g>
<!-- Node13 -->
<g id="Node000013" class="node">
<title>Node13</title>
<g id="a_Node000013"><a xlink:href="../../db/d3f/IncrementalItemConnectivity_8cc_source.html" target="_top" xlink:title=" ">
<polygon fill="white" stroke="#666666" points="1972,-79.5 1801,-79.5 1801,-60.5 1972,-60.5 1972,-79.5"/>
<text text-anchor="middle" x="1886.5" y="-67.5" font-family="Helvetica,sans-Serif" font-size="10.00">IncrementalItemConnectivity.cc</text>
</a>
</g>
</g>
<!-- Node1&#45;&gt;Node13 -->
<g id="edge12_Node000001_Node000013" class="edge">
<title>Node1&#45;&gt;Node13</title>
<g id="a_edge12_Node000001_Node000013"><a xlink:title=" ">
<path fill="none" stroke="#63b8ff" d="M1953.68,-115.16C1936.77,-104.05 1913.91,-89.01 1899.69,-79.67"/>
<polygon fill="#63b8ff" stroke="#63b8ff" points="1952.09,-118.3 1962.37,-120.87 1955.93,-112.45 1952.09,-118.3"/>
</a>
</g>
</g>
<!-- Node14 -->
<g id="Node000014" class="node">
<title>Node14</title>
<g id="a_Node000014"><a xlink:href="../../de/d8b/MaterialHeatTestModule_8cc_source.html" target="_top" xlink:title=" ">
<polygon fill="white" stroke="#666666" points="2139,-79.5 1990,-79.5 1990,-60.5 2139,-60.5 2139,-79.5"/>
<text text-anchor="middle" x="2064.5" y="-67.5" font-family="Helvetica,sans-Serif" font-size="10.00">MaterialHeatTestModule.cc</text>
</a>
</g>
</g>
<!-- Node1&#45;&gt;Node14 -->
<g id="edge13_Node000001_Node000014" class="edge">
<title>Node1&#45;&gt;Node14</title>
<g id="a_edge13_Node000001_Node000014"><a xlink:title=" ">
<path fill="none" stroke="#63b8ff" d="M1997.32,-115.16C2014.23,-104.05 2037.09,-89.01 2051.31,-79.67"/>
<polygon fill="#63b8ff" stroke="#63b8ff" points="1995.07,-112.45 1988.63,-120.87 1998.91,-118.3 1995.07,-112.45"/>
</a>
</g>
</g>
<!-- Node15 -->
<g id="Node000015" class="node">
<title>Node15</title>
<g id="a_Node000015"><a xlink:href="../../d9/d31/Mesh_8h_source.html" target="_top" xlink:title=" ">
<polygon fill="white" stroke="#666666" points="2208.5,-79.5 2156.5,-79.5 2156.5,-60.5 2208.5,-60.5 2208.5,-79.5"/>
<text text-anchor="middle" x="2182.5" y="-67.5" font-family="Helvetica,sans-Serif" font-size="10.00">Mesh.h</text>
</a>
</g>
</g>
<!-- Node1&#45;&gt;Node15 -->
<g id="edge14_Node000001_Node000015" class="edge">
<title>Node1&#45;&gt;Node15</title>
<g id="a_edge14_Node000001_Node000015"><a xlink:title=" ">
<path fill="none" stroke="#63b8ff" d="M2022.68,-119.23C2057.76,-111.15 2106.59,-98.95 2148.5,-85 2153.22,-83.43 2158.23,-81.51 2162.9,-79.61"/>
<polygon fill="#63b8ff" stroke="#63b8ff" points="2021.69,-115.87 2012.72,-121.5 2023.24,-122.69 2021.69,-115.87"/>
</a>
</g>
</g>
<!-- Node16 -->
<g id="Node000016" class="node">
<title>Node16</title>
<g id="a_Node000016"><a xlink:href="../../de/d91/MeshNodeMerger_8cc_source.html" target="_top" xlink:title=" ">
<polygon fill="white" stroke="#666666" points="2342.5,-79.5 2226.5,-79.5 2226.5,-60.5 2342.5,-60.5 2342.5,-79.5"/>
<text text-anchor="middle" x="2284.5" y="-67.5" font-family="Helvetica,sans-Serif" font-size="10.00">MeshNodeMerger.cc</text>
</a>
</g>
</g>
<!-- Node1&#45;&gt;Node16 -->
<g id="edge15_Node000001_Node000016" class="edge">
<title>Node1&#45;&gt;Node16</title>
<g id="a_edge15_Node000001_Node000016"><a xlink:title=" ">
<path fill="none" stroke="#63b8ff" d="M2022.82,-121.15C2071.65,-112.45 2149.99,-98.26 2217.5,-85 2226.25,-83.28 2235.62,-81.37 2244.5,-79.52"/>
<polygon fill="#63b8ff" stroke="#63b8ff" points="2022.1,-117.72 2012.86,-122.92 2023.32,-124.61 2022.1,-117.72"/>
</a>
</g>
</g>
<!-- Node17 -->
<g id="Node000017" class="node">
<title>Node17</title>
<g id="a_Node000017"><a xlink:href="../../d3/d63/MeshUtils_8cc_source.html" target="_top" xlink:title=" ">
<polygon fill="white" stroke="#666666" points="1018,-19 939,-19 939,0 1018,0 1018,-19"/>
<text text-anchor="middle" x="978.5" y="-7" font-family="Helvetica,sans-Serif" font-size="10.00">MeshUtils.cc</text>
</a>
</g>
</g>
<!-- Node1&#45;&gt;Node17 -->
<g id="edge16_Node000001_Node000017" class="edge">
<title>Node1&#45;&gt;Node17</title>
<g id="a_edge16_Node000001_Node000017"><a xlink:title=" ">
<path fill="none" stroke="#63b8ff" d="M1928.21,-129.22C1732.71,-127.83 996.26,-120.28 962.5,-85 945.12,-66.84 962.35,-34.6 972.39,-19.18"/>
<polygon fill="#63b8ff" stroke="#63b8ff" points="1928.42,-132.72 1938.44,-129.29 1928.47,-125.72 1928.42,-132.72"/>
</a>
</g>
</g>
<!-- Node18 -->
<g id="Node000018" class="node">
<title>Node18</title>
<g id="a_Node000018"><a xlink:href="../../d4/d6e/MeshUtils2_8cc_source.html" target="_top" xlink:title=" ">
<polygon fill="white" stroke="#666666" points="2446,-79.5 2361,-79.5 2361,-60.5 2446,-60.5 2446,-79.5"/>
<text text-anchor="middle" x="2403.5" y="-67.5" font-family="Helvetica,sans-Serif" font-size="10.00">MeshUtils2.cc</text>
</a>
</g>
</g>
<!-- Node1&#45;&gt;Node18 -->
<g id="edge17_Node000001_Node000018" class="edge">
<title>Node1&#45;&gt;Node18</title>
<g id="a_edge17_Node000001_Node000018"><a xlink:title=" ">
<path fill="none" stroke="#63b8ff" d="M2022.65,-126.13C2094.21,-120.52 2234.3,-107.59 2351.5,-85 2359.12,-83.53 2367.26,-81.54 2374.79,-79.53"/>
<polygon fill="#63b8ff" stroke="#63b8ff" points="2022.3,-122.65 2012.6,-126.91 2022.84,-129.63 2022.3,-122.65"/>
</a>
</g>
</g>
<!-- Node19 -->
<g id="Node000019" class="node">
<title>Node19</title>
<g id="a_Node000019"><a xlink:href="../../d8/d06/MeshVisitor_8h_source.html" target="_top" xlink:title=" ">
<polygon fill="white" stroke="#666666" points="1055,-79.5 972,-79.5 972,-60.5 1055,-60.5 1055,-79.5"/>
<text text-anchor="middle" x="1013.5" y="-67.5" font-family="Helvetica,sans-Serif" font-size="10.00">MeshVisitor.h</text>
</a>
</g>
</g>
<!-- Node1&#45;&gt;Node19 -->
<g id="edge18_Node000001_Node000019" class="edge">
<title>Node1&#45;&gt;Node19</title>
<g id="a_edge18_Node000001_Node000019"><a xlink:title=" ">
<path fill="none" stroke="#63b8ff" d="M1928.11,-128.56C1765.86,-125.11 1233.38,-111.97 1064.5,-85 1056.52,-83.73 1048,-81.67 1040.26,-79.53"/>
<polygon fill="#63b8ff" stroke="#63b8ff" points="1928.18,-132.06 1938.26,-128.77 1928.33,-125.06 1928.18,-132.06"/>
</a>
</g>
</g>
<!-- Node22 -->
<g id="Node000022" class="node">
<title>Node22</title>
<g id="a_Node000022"><a xlink:href="../../d2/d68/MshMeshReader_8cc_source.html" target="_top" xlink:title=" ">
<polygon fill="white" stroke="#666666" points="2574.5,-79.5 2464.5,-79.5 2464.5,-60.5 2574.5,-60.5 2574.5,-79.5"/>
<text text-anchor="middle" x="2519.5" y="-67.5" font-family="Helvetica,sans-Serif" font-size="10.00">MshMeshReader.cc</text>
</a>
</g>
</g>
<!-- Node1&#45;&gt;Node22 -->
<g id="edge23_Node000001_Node000022" class="edge">
<title>Node1&#45;&gt;Node22</title>
<g id="a_edge23_Node000001_Node000022"><a xlink:title=" ">
<path fill="none" stroke="#63b8ff" d="M2022.74,-127.05C2109.07,-122.15 2297.95,-109.44 2455.5,-85 2464.83,-83.55 2474.84,-81.57 2484.1,-79.56"/>
<polygon fill="#63b8ff" stroke="#63b8ff" points="2022.52,-123.56 2012.73,-127.61 2022.91,-130.55 2022.52,-123.56"/>
</a>
</g>
</g>
<!-- Node23 -->
<g id="Node000023" class="node">
<title>Node23</title>
<g id="a_Node000023"><a xlink:href="../../d2/d8b/MshParallelMeshReader_8cc_source.html" target="_top" xlink:title=" ">
<polygon fill="white" stroke="#666666" points="2738.5,-79.5 2592.5,-79.5 2592.5,-60.5 2738.5,-60.5 2738.5,-79.5"/>
<text text-anchor="middle" x="2665.5" y="-67.5" font-family="Helvetica,sans-Serif" font-size="10.00">MshParallelMeshReader.cc</text>
</a>
</g>
</g>
<!-- Node1&#45;&gt;Node23 -->
<g id="edge24_Node000001_Node000023" class="edge">
<title>Node1&#45;&gt;Node23</title>
<g id="a_edge24_Node000001_Node000023"><a xlink:title=" ">
<path fill="none" stroke="#63b8ff" d="M2022.65,-127.59C2125.04,-123.11 2375.27,-110.34 2583.5,-85 2595.4,-83.55 2608.2,-81.57 2620.07,-79.56"/>
<polygon fill="#63b8ff" stroke="#63b8ff" points="2022.47,-124.1 2012.63,-128.03 2022.77,-131.09 2022.47,-124.1"/>
</a>
</g>
</g>
<!-- Node24 -->
<g id="Node000024" class="node">
<title>Node24</title>
<g id="a_Node000024"><a xlink:href="../../db/d64/NodeFamily_8cc_source.html" target="_top" xlink:title=" ">
<polygon fill="white" stroke="#666666" points="2842.5,-79.5 2756.5,-79.5 2756.5,-60.5 2842.5,-60.5 2842.5,-79.5"/>
<text text-anchor="middle" x="2799.5" y="-67.5" font-family="Helvetica,sans-Serif" font-size="10.00">NodeFamily.cc</text>
</a>
</g>
</g>
<!-- Node1&#45;&gt;Node24 -->
<g id="edge25_Node000001_Node000024" class="edge">
<title>Node1&#45;&gt;Node24</title>
<g id="a_edge25_Node000001_Node000024"><a xlink:title=" ">
<path fill="none" stroke="#63b8ff" d="M2022.82,-130.13C2144.13,-131.04 2475.78,-128.93 2747.5,-85 2755.53,-83.7 2764.11,-81.67 2771.93,-79.55"/>
<polygon fill="#63b8ff" stroke="#63b8ff" points="2022.78,-126.63 2012.75,-130.05 2022.72,-133.63 2022.78,-126.63"/>
</a>
</g>
</g>
<!-- Node25 -->
<g id="Node000025" class="node">
<title>Node25</title>
<g id="a_Node000025"><a xlink:href="../../d2/d4a/NodesOfItemReorderer_8cc_source.html" target="_top" xlink:title=" ">
<polygon fill="white" stroke="#666666" points="3002.5,-79.5 2860.5,-79.5 2860.5,-60.5 3002.5,-60.5 3002.5,-79.5"/>
<text text-anchor="middle" x="2931.5" y="-67.5" font-family="Helvetica,sans-Serif" font-size="10.00">NodesOfItemReorderer.cc</text>
</a>
</g>
</g>
<!-- Node1&#45;&gt;Node25 -->
<g id="edge26_Node000001_Node000025" class="edge">
<title>Node1&#45;&gt;Node25</title>
<g id="a_edge26_Node000001_Node000025"><a xlink:title=" ">
<path fill="none" stroke="#63b8ff" d="M2022.93,-129.13C2154.75,-127.66 2536.57,-120.42 2851.5,-85 2863.55,-83.64 2876.53,-81.62 2888.46,-79.53"/>
<polygon fill="#63b8ff" stroke="#63b8ff" points="2022.74,-125.63 2012.77,-129.24 2022.81,-132.63 2022.74,-125.63"/>
</a>
</g>
</g>
<!-- Node26 -->
<g id="Node000026" class="node">
<title>Node26</title>
<g id="a_Node000026"><a xlink:href="../../df/d59/OneMeshItemAdder_8cc_source.html" target="_top" xlink:title=" ">
<polygon fill="white" stroke="#666666" points="3146.5,-79.5 3020.5,-79.5 3020.5,-60.5 3146.5,-60.5 3146.5,-79.5"/>
<text text-anchor="middle" x="3083.5" y="-67.5" font-family="Helvetica,sans-Serif" font-size="10.00">OneMeshItemAdder.cc</text>
</a>
</g>
</g>
<!-- Node1&#45;&gt;Node26 -->
<g id="edge27_Node000001_Node000026" class="edge">
<title>Node1&#45;&gt;Node26</title>
<g id="a_edge27_Node000001_Node000026"><a xlink:title=" ">
<path fill="none" stroke="#63b8ff" d="M2022.87,-129.97C2170.04,-130.9 2632.19,-129.77 3011.5,-85 3022.5,-83.7 3034.34,-81.67 3045.18,-79.55"/>
<polygon fill="#63b8ff" stroke="#63b8ff" points="2022.85,-126.47 2012.83,-129.9 2022.8,-133.47 2022.85,-126.47"/>
</a>
</g>
</g>
<!-- Node27 -->
<g id="Node000027" class="node">
<title>Node27</title>
<g id="a_Node000027"><a xlink:href="../../d8/d29/ParallelDataWriter_8cc_source.html" target="_top" xlink:title=" ">
<polygon fill="white" stroke="#666666" points="3284,-79.5 3165,-79.5 3165,-60.5 3284,-60.5 3284,-79.5"/>
<text text-anchor="middle" x="3224.5" y="-67.5" font-family="Helvetica,sans-Serif" font-size="10.00">ParallelDataWriter.cc</text>
</a>
</g>
</g>
<!-- Node1&#45;&gt;Node27 -->
<g id="edge28_Node000001_Node000027" class="edge">
<title>Node1&#45;&gt;Node27</title>
<g id="a_edge28_Node000001_Node000027"><a xlink:title=" ">
<path fill="none" stroke="#63b8ff" d="M2022.84,-128.74C2214.14,-125.52 2930.5,-111.89 3155.5,-85 3166.18,-83.72 3177.67,-81.67 3188.15,-79.53"/>
<polygon fill="#63b8ff" stroke="#63b8ff" points="2022.5,-125.25 2012.56,-128.91 2022.62,-132.25 2022.5,-125.25"/>
</a>
</g>
</g>
<!-- Node28 -->
<g id="Node000028" class="node">
<title>Node28</title>
<g id="a_Node000028"><a xlink:href="../../de/d4f/SodMeshGenerator_8cc_source.html" target="_top" xlink:title=" ">
<polygon fill="white" stroke="#666666" points="3424.5,-79.5 3302.5,-79.5 3302.5,-60.5 3424.5,-60.5 3424.5,-79.5"/>
<text text-anchor="middle" x="3363.5" y="-67.5" font-family="Helvetica,sans-Serif" font-size="10.00">SodMeshGenerator.cc</text>
</a>
</g>
</g>
<!-- Node1&#45;&gt;Node28 -->
<g id="edge29_Node000001_Node000028" class="edge">
<title>Node1&#45;&gt;Node28</title>
<g id="a_edge29_Node000001_Node000028"><a xlink:title=" ">
<path fill="none" stroke="#63b8ff" d="M2022.92,-128.94C2228.04,-126.36 3039.93,-114.44 3293.5,-85 3304.33,-83.74 3315.99,-81.7 3326.62,-79.55"/>
<polygon fill="#63b8ff" stroke="#63b8ff" points="2022.73,-125.44 2012.78,-129.07 2022.82,-132.44 2022.73,-125.44"/>
</a>
</g>
</g>
<!-- Node29 -->
<g id="Node000029" class="node">
<title>Node29</title>
<g id="a_Node000029"><a xlink:href="../../da/d6f/TestHashUniqueId_8cc_source.html" target="_top" xlink:title=" ">
<polygon fill="white" stroke="#666666" points="3560.5,-79.5 3442.5,-79.5 3442.5,-60.5 3560.5,-60.5 3560.5,-79.5"/>
<text text-anchor="middle" x="3501.5" y="-67.5" font-family="Helvetica,sans-Serif" font-size="10.00">TestHashUniqueId.cc</text>
</a>
</g>
</g>
<!-- Node1&#45;&gt;Node29 -->
<g id="edge30_Node000001_Node000029" class="edge">
<title>Node1&#45;&gt;Node29</title>
<g id="a_edge30_Node000001_Node000029"><a xlink:title=" ">
<path fill="none" stroke="#63b8ff" d="M2022.9,-129.15C2241.17,-127.39 3150.93,-118.15 3433.5,-85 3444.15,-83.75 3455.62,-81.68 3466.04,-79.5"/>
<polygon fill="#63b8ff" stroke="#63b8ff" points="2022.71,-125.65 2012.74,-129.23 2022.76,-132.65 2022.71,-125.65"/>
</a>
</g>
</g>
<!-- Node30 -->
<g id="Node000030" class="node">
<title>Node30</title>
<g id="a_Node000030"><a xlink:href="../../d9/d5d/UnstructuredMeshUtilities_8cc_source.html" target="_top" xlink:title=" ">
<polygon fill="white" stroke="#666666" points="3736.5,-79.5 3578.5,-79.5 3578.5,-60.5 3736.5,-60.5 3736.5,-79.5"/>
<text text-anchor="middle" x="3657.5" y="-67.5" font-family="Helvetica,sans-Serif" font-size="10.00">UnstructuredMeshUtilities.cc</text>
</a>
</g>
</g>
<!-- Node1&#45;&gt;Node30 -->
<g id="edge31_Node000001_Node000030" class="edge">
<title>Node1&#45;&gt;Node30</title>
<g id="a_edge31_Node000001_Node000030"><a xlink:title=" ">
<path fill="none" stroke="#63b8ff" d="M2022.75,-129.01C2252.87,-126.5 3257.81,-114.02 3569.5,-85 3583.05,-83.74 3597.69,-81.69 3611.06,-79.54"/>
<polygon fill="#63b8ff" stroke="#63b8ff" points="2022.66,-125.51 2012.69,-129.12 2022.73,-132.51 2022.66,-125.51"/>
</a>
</g>
</g>
<!-- Node31 -->
<g id="Node000031" class="node">
<title>Node31</title>
<g id="a_Node000031"><a xlink:href="../../d7/dff/VtkPolyhedralMeshIOService_8cc_source.html" target="_top" xlink:title=" ">
<polygon fill="white" stroke="#666666" points="3926,-79.5 3755,-79.5 3755,-60.5 3926,-60.5 3926,-79.5"/>
<text text-anchor="middle" x="3840.5" y="-67.5" font-family="Helvetica,sans-Serif" font-size="10.00">VtkPolyhedralMeshIOService.cc</text>
</a>
</g>
</g>
<!-- Node1&#45;&gt;Node31 -->
<g id="edge32_Node000001_Node000031" class="edge">
<title>Node1&#45;&gt;Node31</title>
<g id="a_edge32_Node000001_Node000031"><a xlink:title=" ">
<path fill="none" stroke="#63b8ff" d="M2022.73,-129.09C2267.83,-126.83 3396.78,-114.97 3745.5,-85 3760.12,-83.74 3775.91,-81.7 3790.34,-79.55"/>
<polygon fill="#63b8ff" stroke="#63b8ff" points="2022.69,-125.59 2012.72,-129.18 2022.75,-132.59 2022.69,-125.59"/>
</a>
</g>
</g>
<!-- Node19&#45;&gt;Node7 -->
<g id="edge20_Node000019_Node000007" class="edge">
<title>Node19&#45;&gt;Node7</title>
<g id="a_edge20_Node000019_Node000007"><a xlink:title=" ">
<path fill="none" stroke="#63b8ff" d="M983.14,-56.58C955.52,-45.28 915.48,-28.9 891.32,-19.02"/>
<polygon fill="#63b8ff" stroke="#63b8ff" points="982.13,-59.95 992.71,-60.49 984.78,-53.47 982.13,-59.95"/>
</a>
</g>
</g>
<!-- Node19&#45;&gt;Node17 -->
<g id="edge21_Node000019_Node000017" class="edge">
<title>Node19&#45;&gt;Node17</title>
<g id="a_edge21_Node000019_Node000017"><a xlink:title=" ">
<path fill="none" stroke="#63b8ff" d="M1003.02,-51.48C996.63,-40.81 988.76,-27.65 983.69,-19.17"/>
<polygon fill="#63b8ff" stroke="#63b8ff" points="1000.2,-53.58 1008.34,-60.37 1006.2,-49.99 1000.2,-53.58"/>
</a>
</g>
</g>
<!-- Node20 -->
<g id="Node000020" class="node">
<title>Node20</title>
<g id="a_Node000020"><a xlink:href="../../d5/df7/ArcaneCeaVerifierModule_8cc_source.html" target="_top" xlink:title=" ">
<polygon fill="white" stroke="#666666" points="1189,-19 1036,-19 1036,0 1189,0 1189,-19"/>
<text text-anchor="middle" x="1112.5" y="-7" font-family="Helvetica,sans-Serif" font-size="10.00">ArcaneCeaVerifierModule.cc</text>
</a>
</g>
</g>
<!-- Node19&#45;&gt;Node20 -->
<g id="edge19_Node000019_Node000020" class="edge">
<title>Node19&#45;&gt;Node20</title>
<g id="a_edge19_Node000019_Node000020"><a xlink:title=" ">
<path fill="none" stroke="#63b8ff" d="M1036.73,-55.27C1055.63,-44.1 1081.72,-28.69 1097.83,-19.17"/>
<polygon fill="#63b8ff" stroke="#63b8ff" points="1034.94,-52.27 1028.11,-60.37 1038.5,-58.29 1034.94,-52.27"/>
</a>
</g>
</g>
<!-- Node21 -->
<g id="Node000021" class="node">
<title>Node21</title>
<g id="a_Node000021"><a xlink:href="../../d2/d7c/PolyhedralMesh_8cc_source.html" target="_top" xlink:title=" ">
<polygon fill="white" stroke="#666666" points="1315.5,-19 1207.5,-19 1207.5,0 1315.5,0 1315.5,-19"/>
<text text-anchor="middle" x="1261.5" y="-7" font-family="Helvetica,sans-Serif" font-size="10.00">PolyhedralMesh.cc</text>
</a>
</g>
</g>
<!-- Node19&#45;&gt;Node21 -->
<g id="edge22_Node000019_Node000021" class="edge">
<title>Node19&#45;&gt;Node21</title>
<g id="a_edge22_Node000019_Node000021"><a xlink:title=" ">
<path fill="none" stroke="#63b8ff" d="M1053.44,-57.85C1057.17,-56.86 1060.9,-55.9 1064.5,-55 1118.41,-41.52 1181.09,-27.67 1221,-19.08"/>
<polygon fill="#63b8ff" stroke="#63b8ff" points="1052.39,-54.51 1043.64,-60.48 1054.21,-61.27 1052.39,-54.51"/>
</a>
</g>
</g>
</g>
</svg>
