<?xml version="1.0" encoding="UTF-8" standalone="no"?>
<!DOCTYPE svg PUBLIC "-//W3C//DTD SVG 1.1//EN"
 "http://www.w3.org/Graphics/SVG/1.1/DTD/svg11.dtd">
<!-- Generated by graphviz version 2.43.0 (0)
 -->
<!-- Title: Arcane::Node::Node Pages: 1 -->
<svg width="418pt" height="82pt"
 viewBox="0.00 0.00 418.00 82.00" xmlns="http://www.w3.org/2000/svg" xmlns:xlink="http://www.w3.org/1999/xlink">

<svg id="main" version="1.1" xmlns="http://www.w3.org/2000/svg" xmlns:xlink="http://www.w3.org/1999/xlink" xml:space="preserve">

<style type="text/css"><![CDATA[
.node, .edge {opacity: 0.7;}
.node.selected, .edge.selected {opacity: 1;}
.edge:hover path { stroke: red; }
.edge:hover polygon { stroke: red; fill: red; }
]]></style>
<script type="application/ecmascript" xlink:href="../../svg.min.js"/>
<svg id="graph" class="graph">
<g id="graph0" class="graph" transform="scale(1 1) rotate(0) translate(4 78)">
<title>Arcane::Node::Node</title>
<!-- Node1 -->
<g id="Node000001" class="node">
<title>Node1</title>
<g id="a_Node000001"><a xlink:title="Construit une référence à l&#39;entité abase.">
<polygon fill="#999999" stroke="#666666" points="113,-46 0,-46 0,-27 113,-27 113,-46"/>
<text text-anchor="middle" x="56.5" y="-34" font-family="Helvetica,sans-Serif" font-size="10.00">Arcane::Node::Node</text>
</a>
</g>
</g>
<!-- Node2 -->
<g id="Node000002" class="node">
<title>Node2</title>
<g id="a_Node000002"><a xlink:href="../../df/d5f/classArcane_1_1Item.html#a87fbea0e8499d370b169fb829418f1f0" target="_top" xlink:title="true si l&#39;entité est du genre Node.">
<polygon fill="white" stroke="#666666" points="268,-74 149,-74 149,-55 268,-55 268,-74"/>
<text text-anchor="middle" x="208.5" y="-62" font-family="Helvetica,sans-Serif" font-size="10.00">Arcane::Item::isNode</text>
</a>
</g>
</g>
<!-- Node1&#45;&gt;Node2 -->
<g id="edge1_Node000001_Node000002" class="edge">
<title>Node1&#45;&gt;Node2</title>
<g id="a_edge1_Node000001_Node000002"><a xlink:title=" ">
<path fill="none" stroke="#63b8ff" d="M108.7,-46.06C120.89,-48.33 134.01,-50.78 146.59,-53.13"/>
<polygon fill="#63b8ff" stroke="#63b8ff" points="146.06,-56.59 156.53,-54.99 147.34,-49.71 146.06,-56.59"/>
</a>
</g>
</g>
<!-- Node4 -->
<g id="Node000004" class="node">
<title>Node4</title>
<g id="a_Node000004"><a xlink:href="../../df/d5f/classArcane_1_1Item.html#a8ef29cd4847fd57d6fd41072f8739e12" target="_top" xlink:title="Constructeur réservé pour les énumérateurs.">
<polygon fill="white" stroke="#666666" points="262,-19 155,-19 155,0 262,0 262,-19"/>
<text text-anchor="middle" x="208.5" y="-7" font-family="Helvetica,sans-Serif" font-size="10.00">Arcane::Item::Item</text>
</a>
</g>
</g>
<!-- Node1&#45;&gt;Node4 -->
<g id="edge3_Node000001_Node000004" class="edge">
<title>Node1&#45;&gt;Node4</title>
<g id="a_edge3_Node000001_Node000004"><a xlink:title=" ">
<path fill="none" stroke="#63b8ff" d="M110.38,-26.98C121.54,-24.97 133.41,-22.84 144.89,-20.77"/>
<polygon fill="#63b8ff" stroke="#63b8ff" points="145.62,-24.19 154.84,-18.98 144.38,-17.31 145.62,-24.19"/>
</a>
</g>
</g>
<!-- Node3 -->
<g id="Node000003" class="node">
<title>Node3</title>
<g id="a_Node000003"><a xlink:href="../../df/d5f/classArcane_1_1Item.html#aee0bfc9b1283482b9dee1865b3483645" target="_top" xlink:title="Genre de l&#39;entité">
<polygon fill="white" stroke="#666666" points="410,-74 304,-74 304,-55 410,-55 410,-74"/>
<text text-anchor="middle" x="357" y="-62" font-family="Helvetica,sans-Serif" font-size="10.00">Arcane::Item::kind</text>
</a>
</g>
</g>
<!-- Node2&#45;&gt;Node3 -->
<g id="edge2_Node000002_Node000003" class="edge">
<title>Node2&#45;&gt;Node3</title>
<g id="a_edge2_Node000002_Node000003"><a xlink:title=" ">
<path fill="none" stroke="#63b8ff" d="M268.24,-64.5C276.62,-64.5 285.26,-64.5 293.7,-64.5"/>
<polygon fill="#63b8ff" stroke="#63b8ff" points="293.87,-68 303.87,-64.5 293.87,-61 293.87,-68"/>
</a>
</g>
</g>
<!-- Node4&#45;&gt;Node4 -->
<g id="edge4_Node000004_Node000004" class="edge">
<title>Node4&#45;&gt;Node4</title>
<g id="a_edge4_Node000004_Node000004"><a xlink:title=" ">
<path fill="none" stroke="#63b8ff" d="M185.69,-19.08C174.59,-27.73 182.2,-37 208.5,-37 225.35,-37 234.53,-33.2 236.03,-28.19"/>
<polygon fill="#63b8ff" stroke="#63b8ff" points="239.02,-26.35 231.31,-19.08 232.8,-29.57 239.02,-26.35"/>
</a>
</g>
</g>
</g>
</svg>
</svg>

<style type='text/css'>
<![CDATA[
[data-mouse-over-selected='false'] { opacity: 0.7; }
[data-mouse-over-selected='true']  { opacity: 1.0; }
]]>
</style>
<script type="application/ecmascript"><![CDATA[
document.addEventListener('DOMContentLoaded', (event) => {
  highlightEdges();
  highlightAdjacentNodes();
});
]]></script>
</svg>
