<?xml version="1.0" encoding="UTF-8" standalone="no"?>
<!DOCTYPE svg PUBLIC "-//W3C//DTD SVG 1.1//EN"
 "http://www.w3.org/Graphics/SVG/1.1/DTD/svg11.dtd">
<!-- Generated by graphviz version 2.43.0 (0)
 -->
<!-- Title: Arcane::mesh::FaceUniqueIdBuilder2::_computeAndSortBoundaryFaces Pages: 1 -->
<!--zoomable 967 -->

<svg id="main" version="1.1" xmlns="http://www.w3.org/2000/svg" xmlns:xlink="http://www.w3.org/1999/xlink" xml:space="preserve" onload="init(evt)">

<style type="text/css"><![CDATA[
.node, .edge {opacity: 0.7;}
.node.selected, .edge.selected {opacity: 1;}
.edge:hover path { stroke: red; }
.edge:hover polygon { stroke: red; fill: red; }
]]></style>

<defs>
  <circle id="rim" cx="0" cy="0" r="7"/>
  <circle id="rim2" cx="0" cy="0" r="3.5"/>
  <g id="zoomPlus">
    <use xlink:href="#rim" fill="#404040"><set attributeName="fill" to="#808080" begin="zoomplus.mouseover" end="zoomplus.mouseout"/></use>
    <path d="M-4,0h8M0,-4v8" fill="none" stroke="white" stroke-width="1.5" pointer-events="none"/>
  </g>
  <g id="zoomMin">
    <use xlink:href="#rim" fill="#404040"><set attributeName="fill" to="#808080" begin="zoomminus.mouseover" end="zoomminus.mouseout"/></use>
    <path d="M-4,0h8" fill="none" stroke="white" stroke-width="1.5" pointer-events="none"/>
  </g>
  <g id="arrowUp" transform="translate(30 24)">
    <use xlink:href="#rim"/>
    <path pointer-events="none" fill="none" stroke="white" stroke-width="1.5" d="M0,-3.0v7 M-2.5,-0.5L0,-3.0L2.5,-0.5"/>
  </g>
  <g id="arrowRight" transform="rotate(90) translate(36 -43)">
    <use xlink:href="#rim"/>
    <path pointer-events="none" fill="none" stroke="white" stroke-width="1.5" d="M0,-3.0v7 M-2.5,-0.5L0,-3.0L2.5,-0.5"/>
  </g>
  <g id="arrowDown" transform="rotate(180) translate(-30 -48)">
    <use xlink:href="#rim"/>
    <path pointer-events="none" fill="none" stroke="white" stroke-width="1.5" d="M0,-3.0v7 M-2.5,-0.5L0,-3.0L2.5,-0.5"/>
  </g>
  <g id="arrowLeft" transform="rotate(270) translate(-36 17)">
    <use xlink:href="#rim"/>
    <path pointer-events="none" fill="none" stroke="white" stroke-width="1.5" d="M0,-3.0v7 M-2.5,-0.5L0,-3.0L2.5,-0.5"/>
  </g>
  <g id="resetDef">
    <use xlink:href="#rim2" fill="#404040"><set attributeName="fill" to="#808080" begin="reset.mouseover" end="reset.mouseout"/></use>
  </g>
</defs>
<script type="application/ecmascript">
var viewWidth = 1121;
var viewHeight = 967;
var sectionId = 'dynsection-4';
</script>
<script type="application/ecmascript" xlink:href="../../svg.min.js"/>
<svg id="graph" class="graph">
<g id="viewport">
<title>Arcane::mesh::FaceUniqueIdBuilder2::_computeAndSortBoundaryFaces</title>
<!-- Node1 -->
<g id="Node000001" class="node">
<title>Node1</title>
<g id="a_Node000001"><a xlink:title="Détermine la liste des faces frontières de chaque sous&#45;domaine et les trie sur tous les procs.">
<polygon fill="#999999" stroke="#666666" points="232,-530 0,-530 0,-500 232,-500 232,-530"/>
<text text-anchor="start" x="8" y="-518" font-family="Helvetica,sans-Serif" font-size="10.00">Arcane::mesh::FaceUnique</text>
<text text-anchor="middle" x="116" y="-507" font-family="Helvetica,sans-Serif" font-size="10.00">IdBuilder2::_computeAndSortBoundaryFaces</text>
</a>
</g>
</g>
<!-- Node2 -->
<g id="Node000002" class="node">
<title>Node2</title>
<g id="a_Node000002"><a xlink:href="../../d1/dfb/classArcane_1_1Array.html#afb30a771d3fd8022c7220afe7b78e60b" target="_top" xlink:title="Ajoute l&#39;élément val à la fin du tableau.">
<polygon fill="white" stroke="#666666" points="1103.5,-747.5 997.5,-747.5 997.5,-728.5 1103.5,-728.5 1103.5,-747.5"/>
<text text-anchor="middle" x="1050.5" y="-735.5" font-family="Helvetica,sans-Serif" font-size="10.00">Arcane::Array::add</text>
</a>
</g>
</g>
<!-- Node1&#45;&gt;Node2 -->
<g id="edge1_Node000001_Node000002" class="edge">
<title>Node1&#45;&gt;Node2</title>
<g id="a_edge1_Node000001_Node000002"><a xlink:title=" ">
<path fill="none" stroke="#63b8ff" d="M117.24,-530.08C119.14,-591.04 135.13,-820.76 268,-920 365.98,-993.18 420.21,-939 542.5,-939 542.5,-939 542.5,-939 719,-939 859.64,-939 991.36,-804.48 1034.63,-755.54"/>
<polygon fill="#63b8ff" stroke="#63b8ff" points="1037.53,-757.54 1041.45,-747.69 1032.25,-752.94 1037.53,-757.54"/>
</a>
</g>
</g>
<!-- Node3 -->
<g id="Node000003" class="node">
<title>Node3</title>
<g id="a_Node000003"><a xlink:href="../../d1/dfb/classArcane_1_1Array.html#a63153ea01d8a3b8a2a61c0647798d0d3" target="_top" xlink:title="Ajoute n élément de valeur val à la fin du tableau.">
<polygon fill="white" stroke="#666666" points="420,-910.5 283,-910.5 283,-891.5 420,-891.5 420,-910.5"/>
<text text-anchor="middle" x="351.5" y="-898.5" font-family="Helvetica,sans-Serif" font-size="10.00">Arcane::Array::addRange</text>
</a>
</g>
</g>
<!-- Node1&#45;&gt;Node3 -->
<g id="edge2_Node000001_Node000003" class="edge">
<title>Node1&#45;&gt;Node3</title>
<g id="a_edge2_Node000001_Node000003"><a xlink:title=" ">
<path fill="none" stroke="#63b8ff" d="M118.33,-530.13C124.13,-586.5 152.41,-786.01 268,-883 269.78,-884.49 271.65,-885.87 273.61,-887.14"/>
<polygon fill="#63b8ff" stroke="#63b8ff" points="272.15,-890.33 282.6,-892.05 275.5,-884.19 272.15,-890.33"/>
</a>
</g>
</g>
<!-- Node4 -->
<g id="Node000004" class="node">
<title>Node4</title>
<g id="a_Node000004"><a xlink:href="../../d1/db1/classArcane_1_1Face.html#a4c88bda2fb777bd9a51199cbb394b2ea" target="_top" xlink:title="i&#45;ème maille de la face">
<polygon fill="white" stroke="#666666" points="402,-873.5 301,-873.5 301,-854.5 402,-854.5 402,-873.5"/>
<text text-anchor="middle" x="351.5" y="-861.5" font-family="Helvetica,sans-Serif" font-size="10.00">Arcane::Face::cell</text>
</a>
</g>
</g>
<!-- Node1&#45;&gt;Node4 -->
<g id="edge3_Node000001_Node000004" class="edge">
<title>Node1&#45;&gt;Node4</title>
<g id="a_edge3_Node000001_Node000004"><a xlink:title=" ">
<path fill="none" stroke="#63b8ff" d="M119.07,-530.08C127.16,-582.77 161.57,-760.14 268,-846 274.72,-851.42 282.73,-855.31 291.06,-858.07"/>
<polygon fill="#63b8ff" stroke="#63b8ff" points="290.37,-861.51 300.94,-860.82 292.24,-854.76 290.37,-861.51"/>
</a>
</g>
</g>
<!-- Node5 -->
<g id="Node000005" class="node">
<title>Node5</title>
<g id="a_Node000005"><a xlink:href="../../d1/dfb/classArcane_1_1Array.html#a13320a574c15951f1ce125c2800293df" target="_top" xlink:title="Supprime les éléments du tableau.">
<polygon fill="white" stroke="#666666" points="407.5,-836.5 295.5,-836.5 295.5,-817.5 407.5,-817.5 407.5,-836.5"/>
<text text-anchor="middle" x="351.5" y="-824.5" font-family="Helvetica,sans-Serif" font-size="10.00">Arcane::Array::clear</text>
</a>
</g>
</g>
<!-- Node1&#45;&gt;Node5 -->
<g id="edge4_Node000001_Node000005" class="edge">
<title>Node1&#45;&gt;Node5</title>
<g id="a_edge4_Node000001_Node000005"><a xlink:title=" ">
<path fill="none" stroke="#63b8ff" d="M120.05,-530C130.75,-578.6 171.3,-732.85 268,-808 273.3,-812.12 279.34,-815.38 285.68,-817.94"/>
<polygon fill="#63b8ff" stroke="#63b8ff" points="284.54,-821.25 295.14,-821.23 286.84,-814.64 284.54,-821.25"/>
</a>
</g>
</g>
<!-- Node6 -->
<g id="Node000006" class="node">
<title>Node6</title>
<g id="a_Node000006"><a xlink:href="../../dc/d5a/classArcane_1_1IParallelMng.html#a26fc7494a02a7370d3be787fcc742b04" target="_top" xlink:title="Rang de cette instance dans le communicateur.">
<polygon fill="white" stroke="#666666" points="409.5,-799 293.5,-799 293.5,-769 409.5,-769 409.5,-799"/>
<text text-anchor="start" x="301.5" y="-787" font-family="Helvetica,sans-Serif" font-size="10.00">Arcane::IParallelMng</text>
<text text-anchor="middle" x="351.5" y="-776" font-family="Helvetica,sans-Serif" font-size="10.00">::commRank</text>
</a>
</g>
</g>
<!-- Node1&#45;&gt;Node6 -->
<g id="edge5_Node000001_Node000006" class="edge">
<title>Node1&#45;&gt;Node6</title>
<g id="a_edge5_Node000001_Node000006"><a xlink:title=" ">
<path fill="none" stroke="#63b8ff" d="M121.89,-530.04C136.62,-572.88 184.72,-696.59 268,-760 272.79,-763.65 278.12,-766.74 283.7,-769.36"/>
<polygon fill="#63b8ff" stroke="#63b8ff" points="282.7,-772.74 293.28,-773.35 285.39,-766.28 282.7,-772.74"/>
</a>
</g>
</g>
<!-- Node7 -->
<g id="Node000007" class="node">
<title>Node7</title>
<g id="a_Node000007"><a xlink:href="../../dc/d5a/classArcane_1_1IParallelMng.html#a7c5831fb289f8aa3fac3b05cdbb3d194" target="_top" xlink:title="Nombre d&#39;instance dans le communicateur.">
<polygon fill="white" stroke="#666666" points="409.5,-751 293.5,-751 293.5,-721 409.5,-721 409.5,-751"/>
<text text-anchor="start" x="301.5" y="-739" font-family="Helvetica,sans-Serif" font-size="10.00">Arcane::IParallelMng</text>
<text text-anchor="middle" x="351.5" y="-728" font-family="Helvetica,sans-Serif" font-size="10.00">::commSize</text>
</a>
</g>
</g>
<!-- Node1&#45;&gt;Node7 -->
<g id="edge6_Node000001_Node000007" class="edge">
<title>Node1&#45;&gt;Node7</title>
<g id="a_edge6_Node000001_Node000007"><a xlink:title=" ">
<path fill="none" stroke="#63b8ff" d="M124.31,-530.21C142.9,-567.21 195.62,-662.49 268,-712 272.89,-715.35 278.25,-718.23 283.81,-720.72"/>
<polygon fill="#63b8ff" stroke="#63b8ff" points="282.74,-724.06 293.32,-724.54 285.35,-717.56 282.74,-724.06"/>
</a>
</g>
</g>
<!-- Node8 -->
<g id="Node000008" class="node">
<title>Node8</title>
<g id="a_Node000008"><a xlink:href="../../df/dd4/classArcane_1_1mesh_1_1ItemInternalMap.html#a306882965dec2344c8b9afb7383d59d7" target="_top" xlink:title="Fonction template pour itérer sur les entités de l&#39;instance.">
<polygon fill="white" stroke="#666666" points="426,-703 277,-703 277,-673 426,-673 426,-703"/>
<text text-anchor="start" x="285" y="-691" font-family="Helvetica,sans-Serif" font-size="10.00">Arcane::mesh::ItemInternal</text>
<text text-anchor="middle" x="351.5" y="-680" font-family="Helvetica,sans-Serif" font-size="10.00">Map::eachItem</text>
</a>
</g>
</g>
<!-- Node1&#45;&gt;Node8 -->
<g id="edge7_Node000001_Node000008" class="edge">
<title>Node1&#45;&gt;Node8</title>
<g id="a_edge7_Node000001_Node000008"><a xlink:title=" ">
<path fill="none" stroke="#63b8ff" d="M128.09,-530.15C150.87,-560.22 206.07,-627.64 268,-664 270.98,-665.75 274.11,-667.38 277.31,-668.9"/>
<polygon fill="#63b8ff" stroke="#63b8ff" points="275.98,-672.14 286.55,-672.89 278.76,-665.71 275.98,-672.14"/>
</a>
</g>
</g>
<!-- Node9 -->
<g id="Node000009" class="node">
<title>Node9</title>
<g id="a_Node000009"><a xlink:href="../../d9/db2/classArcane_1_1Cell.html#a349a8064107f07c443f9a34947b1baa2" target="_top" xlink:title="i&#45;ème face de la maille">
<polygon fill="white" stroke="#666666" points="402.5,-654.5 300.5,-654.5 300.5,-635.5 402.5,-635.5 402.5,-654.5"/>
<text text-anchor="middle" x="351.5" y="-642.5" font-family="Helvetica,sans-Serif" font-size="10.00">Arcane::Cell::face</text>
</a>
</g>
</g>
<!-- Node1&#45;&gt;Node9 -->
<g id="edge8_Node000001_Node000009" class="edge">
<title>Node1&#45;&gt;Node9</title>
<g id="a_edge8_Node000001_Node000009"><a xlink:title=" ">
<path fill="none" stroke="#63b8ff" d="M132.72,-530.3C158.65,-554.65 213.03,-602.02 268,-627 275.04,-630.2 282.68,-632.84 290.37,-635.03"/>
<polygon fill="#63b8ff" stroke="#63b8ff" points="289.55,-638.43 300.11,-637.55 291.31,-631.65 289.55,-638.43"/>
</a>
</g>
</g>
<!-- Node10 -->
<g id="Node000010" class="node">
<title>Node10</title>
<g id="a_Node000010"><a xlink:href="../../dd/d27/namespaceArcane_1_1platform.html#a7ac008e636f637463eef63d1e303e28a" target="_top" xlink:title="Temps Real utilisé en secondes.">
<polygon fill="white" stroke="#666666" points="435,-617.5 268,-617.5 268,-598.5 435,-598.5 435,-617.5"/>
<text text-anchor="middle" x="351.5" y="-605.5" font-family="Helvetica,sans-Serif" font-size="10.00">Arcane::platform::getRealTime</text>
</a>
</g>
</g>
<!-- Node1&#45;&gt;Node10 -->
<g id="edge9_Node000001_Node000010" class="edge">
<title>Node1&#45;&gt;Node10</title>
<g id="a_edge9_Node000001_Node000010"><a xlink:title=" ">
<path fill="none" stroke="#63b8ff" d="M142.34,-530.02C171.68,-546.82 221.88,-573.79 268,-590 274.32,-592.22 281.01,-594.22 287.74,-596.01"/>
<polygon fill="#63b8ff" stroke="#63b8ff" points="287.04,-599.44 297.59,-598.48 288.74,-592.65 287.04,-599.44"/>
</a>
</g>
</g>
<!-- Node11 -->
<g id="Node000011" class="node">
<title>Node11</title>
<g id="a_Node000011"><a xlink:href="../../d1/d17/classArcane_1_1TraceAccessor.html#a7f15f017b10b72c85bba3fce76314619" target="_top" xlink:title="Flot pour un message d&#39;information.">
<polygon fill="white" stroke="#666666" points="1113,-323 988,-323 988,-293 1113,-293 1113,-323"/>
<text text-anchor="start" x="996" y="-311" font-family="Helvetica,sans-Serif" font-size="10.00">Arcane::TraceAccessor</text>
<text text-anchor="middle" x="1050.5" y="-300" font-family="Helvetica,sans-Serif" font-size="10.00">::info</text>
</a>
</g>
</g>
<!-- Node1&#45;&gt;Node11 -->
<g id="edge10_Node000001_Node000011" class="edge">
<title>Node1&#45;&gt;Node11</title>
<g id="a_edge10_Node000001_Node000011"><a xlink:title=" ">
<path fill="none" stroke="#63b8ff" d="M119.73,-499.73C129.44,-450.36 167.3,-294.55 268,-229 370.49,-162.28 420.21,-210 542.5,-210 542.5,-210 542.5,-210 719,-210 828.36,-210 949.98,-259.93 1010.65,-288.51"/>
<polygon fill="#63b8ff" stroke="#63b8ff" points="1009.32,-291.75 1019.85,-292.9 1012.33,-285.44 1009.32,-291.75"/>
</a>
</g>
</g>
<!-- Node12 -->
<g id="Node000012" class="node">
<title>Node12</title>
<g id="a_Node000012"><a xlink:href="../../d5/d0d/classArcane_1_1Parallel_1_1BitonicSort.html#a665d5a774355262e67fdb50897170dec" target="_top" xlink:title="Après un tri, retourne la liste des éléments de ce rang.">
<polygon fill="white" stroke="#666666" points="609.5,-464 477.5,-464 477.5,-434 609.5,-434 609.5,-464"/>
<text text-anchor="start" x="485.5" y="-452" font-family="Helvetica,sans-Serif" font-size="10.00">Arcane::Parallel::Bitonic</text>
<text text-anchor="middle" x="543.5" y="-441" font-family="Helvetica,sans-Serif" font-size="10.00">Sort::keys</text>
</a>
</g>
</g>
<!-- Node1&#45;&gt;Node12 -->
<g id="edge11_Node000001_Node000012" class="edge">
<title>Node1&#45;&gt;Node12</title>
<g id="a_edge11_Node000001_Node000012"><a xlink:title=" ">
<path fill="none" stroke="#63b8ff" d="M179.55,-499.93C206.63,-493.76 238.76,-486.94 268,-482 335.06,-470.67 411.97,-461.77 467.29,-456.09"/>
<polygon fill="#63b8ff" stroke="#63b8ff" points="467.76,-459.56 477.36,-455.06 467.05,-452.59 467.76,-459.56"/>
</a>
</g>
</g>
<!-- Node13 -->
<g id="Node000013" class="node">
<title>Node13</title>
<g id="a_Node000013"><a xlink:href="../../d1/db1/classArcane_1_1Face.html#a500ee00b6481628cf99ec7f5cf94a6bb" target="_top" xlink:title="Nombre de mailles de la face (1 ou 2)">
<polygon fill="white" stroke="#666666" points="409,-580.5 294,-580.5 294,-561.5 409,-561.5 409,-580.5"/>
<text text-anchor="middle" x="351.5" y="-568.5" font-family="Helvetica,sans-Serif" font-size="10.00">Arcane::Face::nbCell</text>
</a>
</g>
</g>
<!-- Node1&#45;&gt;Node13 -->
<g id="edge12_Node000001_Node000013" class="edge">
<title>Node1&#45;&gt;Node13</title>
<g id="a_edge12_Node000001_Node000013"><a xlink:title=" ">
<path fill="none" stroke="#63b8ff" d="M174.98,-530.05C203.02,-537.21 237.21,-545.77 268,-553 276.91,-555.09 286.38,-557.23 295.6,-559.28"/>
<polygon fill="#63b8ff" stroke="#63b8ff" points="294.97,-562.72 305.48,-561.45 296.47,-555.88 294.97,-562.72"/>
</a>
</g>
</g>
<!-- Node15 -->
<g id="Node000015" class="node">
<title>Node15</title>
<g id="a_Node000015"><a xlink:href="../../d9/db2/classArcane_1_1Cell.html#a494fd27b44cee013544cb8a8a0078fe4" target="_top" xlink:title="Nombre de faces de la maille.">
<polygon fill="white" stroke="#666666" points="409,-543.5 294,-543.5 294,-524.5 409,-524.5 409,-543.5"/>
<text text-anchor="middle" x="351.5" y="-531.5" font-family="Helvetica,sans-Serif" font-size="10.00">Arcane::Cell::nbFace</text>
</a>
</g>
</g>
<!-- Node1&#45;&gt;Node15 -->
<g id="edge14_Node000001_Node000015" class="edge">
<title>Node1&#45;&gt;Node15</title>
<g id="a_edge14_Node000001_Node000015"><a xlink:title=" ">
<path fill="none" stroke="#63b8ff" d="M232.04,-524.36C249.7,-525.8 267.41,-527.24 283.56,-528.55"/>
<polygon fill="#63b8ff" stroke="#63b8ff" points="283.67,-532.07 293.92,-529.4 284.24,-525.1 283.67,-532.07"/>
</a>
</g>
</g>
<!-- Node17 -->
<g id="Node000017" class="node">
<title>Node17</title>
<g id="a_Node000017"><a xlink:href="../../dc/d5a/classArcane_1_1IParallelMng.html#a6ffa41efd37b159a719ee3caeee2d5ff" target="_top" xlink:title=" ">
<polygon fill="white" stroke="#666666" points="409.5,-412 293.5,-412 293.5,-382 409.5,-382 409.5,-412"/>
<text text-anchor="start" x="301.5" y="-400" font-family="Helvetica,sans-Serif" font-size="10.00">Arcane::IParallelMng</text>
<text text-anchor="middle" x="351.5" y="-389" font-family="Helvetica,sans-Serif" font-size="10.00">::recv</text>
</a>
</g>
</g>
<!-- Node1&#45;&gt;Node17 -->
<g id="edge16_Node000001_Node000017" class="edge">
<title>Node1&#45;&gt;Node17</title>
<g id="a_edge16_Node000001_Node000017"><a xlink:title=" ">
<path fill="none" stroke="#63b8ff" d="M147.05,-499.82C188.99,-478.62 265.14,-440.13 311.44,-416.74"/>
<polygon fill="#63b8ff" stroke="#63b8ff" points="313.22,-419.76 320.57,-412.13 310.06,-413.51 313.22,-419.76"/>
</a>
</g>
</g>
<!-- Node18 -->
<g id="Node000018" class="node">
<title>Node18</title>
<g id="a_Node000018"><a xlink:href="../../d1/dfb/classArcane_1_1Array.html#a31fc5b4bd79b4f6e4a011735d33b1818" target="_top" xlink:title="Change le nombre d&#39;éléments du tableau à s.">
<polygon fill="white" stroke="#666666" points="1109,-455.5 992,-455.5 992,-436.5 1109,-436.5 1109,-455.5"/>
<text text-anchor="middle" x="1050.5" y="-443.5" font-family="Helvetica,sans-Serif" font-size="10.00">Arcane::Array::resize</text>
</a>
</g>
</g>
<!-- Node1&#45;&gt;Node18 -->
<g id="edge18_Node000001_Node000018" class="edge">
<title>Node1&#45;&gt;Node18</title>
<g id="a_edge18_Node000001_Node000018"><a xlink:title=" ">
<path fill="none" stroke="#63b8ff" d="M232.07,-507.08C317.64,-501.87 437.31,-496 542.5,-496 542.5,-496 542.5,-496 719,-496 820.63,-496 937.88,-472.6 1001.82,-457.82"/>
<polygon fill="#63b8ff" stroke="#63b8ff" points="1002.68,-461.21 1011.61,-455.52 1001.08,-454.4 1002.68,-461.21"/>
</a>
</g>
</g>
<!-- Node19 -->
<g id="Node000019" class="node">
<title>Node19</title>
<g id="a_Node000019"><a xlink:href="../../d5/d72/classArcane_1_1AbstractArray.html#a462e7632cf9664d773016bc972bed483" target="_top" xlink:title="Nombre d&#39;éléments du vecteur.">
<polygon fill="white" stroke="#666666" points="413,-316 290,-316 290,-286 413,-286 413,-316"/>
<text text-anchor="start" x="298" y="-304" font-family="Helvetica,sans-Serif" font-size="10.00">Arcane::AbstractArray</text>
<text text-anchor="middle" x="351.5" y="-293" font-family="Helvetica,sans-Serif" font-size="10.00">::size</text>
</a>
</g>
</g>
<!-- Node1&#45;&gt;Node19 -->
<g id="edge19_Node000001_Node000019" class="edge">
<title>Node1&#45;&gt;Node19</title>
<g id="a_edge19_Node000001_Node000019"><a xlink:title=" ">
<path fill="none" stroke="#63b8ff" d="M124.75,-499.8C143.91,-463.76 197.16,-372.55 268,-325 271.97,-322.33 276.24,-319.96 280.67,-317.85"/>
<polygon fill="#63b8ff" stroke="#63b8ff" points="282.15,-321.02 289.96,-313.86 279.39,-314.59 282.15,-321.02"/>
</a>
</g>
</g>
<!-- Node20 -->
<g id="Node000020" class="node">
<title>Node20</title>
<g id="a_Node000020"><a xlink:href="../../d9/d2e/classArcane_1_1ConstArrayView.html#ac6a4f407a7ec0a0e0985113552fe2f54" target="_top" xlink:title="Nombre d&#39;éléments du tableau.">
<polygon fill="white" stroke="#666666" points="418.5,-268 284.5,-268 284.5,-238 418.5,-238 418.5,-268"/>
<text text-anchor="start" x="292.5" y="-256" font-family="Helvetica,sans-Serif" font-size="10.00">Arcane::ConstArrayView</text>
<text text-anchor="middle" x="351.5" y="-245" font-family="Helvetica,sans-Serif" font-size="10.00">::size</text>
</a>
</g>
</g>
<!-- Node1&#45;&gt;Node20 -->
<g id="edge20_Node000001_Node000020" class="edge">
<title>Node1&#45;&gt;Node20</title>
<g id="a_edge20_Node000001_Node000020"><a xlink:title=" ">
<path fill="none" stroke="#63b8ff" d="M122.24,-499.79C137.56,-457.61 186.42,-338.28 268,-277 270.35,-275.24 272.82,-273.6 275.39,-272.09"/>
<polygon fill="#63b8ff" stroke="#63b8ff" points="277.18,-275.1 284.43,-267.39 273.95,-268.89 277.18,-275.1"/>
</a>
</g>
</g>
<!-- Node21 -->
<g id="Node000021" class="node">
<title>Node21</title>
<g id="a_Node000021"><a xlink:href="../../d5/d0d/classArcane_1_1Parallel_1_1BitonicSort.html#a720589237ab0747883dbe8d0c5f8a056" target="_top" xlink:title="Trie en parallèle les éléments de keys sur tous les rangs.">
<polygon fill="white" stroke="#666666" points="417.5,-364 285.5,-364 285.5,-334 417.5,-334 417.5,-364"/>
<text text-anchor="start" x="293.5" y="-352" font-family="Helvetica,sans-Serif" font-size="10.00">Arcane::Parallel::Bitonic</text>
<text text-anchor="middle" x="351.5" y="-341" font-family="Helvetica,sans-Serif" font-size="10.00">Sort::sort</text>
</a>
</g>
</g>
<!-- Node1&#45;&gt;Node21 -->
<g id="edge21_Node000001_Node000021" class="edge">
<title>Node1&#45;&gt;Node21</title>
<g id="a_edge21_Node000001_Node000021"><a xlink:title=" ">
<path fill="none" stroke="#63b8ff" d="M128.98,-499.69C152.49,-470.66 207.69,-407.44 268,-373 271.07,-371.25 274.28,-369.61 277.58,-368.09"/>
<polygon fill="#63b8ff" stroke="#63b8ff" points="279.21,-371.2 287.06,-364.08 276.49,-364.75 279.21,-371.2"/>
</a>
</g>
</g>
<!-- Node26 -->
<g id="Node000026" class="node">
<title>Node26</title>
<g id="a_Node000026"><a xlink:href="../../d9/d2e/classArcane_1_1ConstArrayView.html#affc55c70d86bb49a9a19ef1acedab6f3" target="_top" xlink:title="Sous&#45;vue (constante) à partir de l&#39;élément abegin et contenant asize éléments.">
<polygon fill="white" stroke="#666666" points="418.5,-182 284.5,-182 284.5,-152 418.5,-152 418.5,-182"/>
<text text-anchor="start" x="292.5" y="-170" font-family="Helvetica,sans-Serif" font-size="10.00">Arcane::ConstArrayView</text>
<text text-anchor="middle" x="351.5" y="-159" font-family="Helvetica,sans-Serif" font-size="10.00">::subConstView</text>
</a>
</g>
</g>
<!-- Node1&#45;&gt;Node26 -->
<g id="edge32_Node000001_Node000026" class="edge">
<title>Node1&#45;&gt;Node26</title>
<g id="a_edge32_Node000001_Node000026"><a xlink:title=" ">
<path fill="none" stroke="#63b8ff" d="M119.85,-499.86C130.14,-449.25 170.13,-284.18 268,-196 271.85,-192.53 276.14,-189.47 280.68,-186.78"/>
<polygon fill="#63b8ff" stroke="#63b8ff" points="282.47,-189.79 289.68,-182.02 279.2,-183.6 282.47,-189.79"/>
</a>
</g>
</g>
<!-- Node27 -->
<g id="Node000027" class="node">
<title>Node27</title>
<g id="a_Node000027"><a xlink:href="../../d6/d50/namespaceArcane_1_1CheckedConvert.html#a0b4c4b43b7054b52a5c9b15083b2ae00" target="_top" xlink:title="Converti un Int64 en un Integer.">
<polygon fill="white" stroke="#666666" points="419.5,-134 283.5,-134 283.5,-104 419.5,-104 419.5,-134"/>
<text text-anchor="start" x="291.5" y="-122" font-family="Helvetica,sans-Serif" font-size="10.00">Arcane::CheckedConvert</text>
<text text-anchor="middle" x="351.5" y="-111" font-family="Helvetica,sans-Serif" font-size="10.00">::toInteger</text>
</a>
</g>
</g>
<!-- Node1&#45;&gt;Node27 -->
<g id="edge33_Node000001_Node000027" class="edge">
<title>Node1&#45;&gt;Node27</title>
<g id="a_edge33_Node000001_Node000027"><a xlink:title=" ">
<path fill="none" stroke="#63b8ff" d="M118.49,-499.96C124.87,-443.89 154.93,-245.03 268,-143 269.99,-141.21 272.1,-139.55 274.31,-138.01"/>
<polygon fill="#63b8ff" stroke="#63b8ff" points="276.47,-140.8 283.28,-132.68 272.89,-134.78 276.47,-140.8"/>
</a>
</g>
</g>
<!-- Node29 -->
<g id="Node000029" class="node">
<title>Node29</title>
<g id="a_Node000029"><a xlink:href="../../df/d5f/classArcane_1_1Item.html#a8e5cf3572ae8a043fae3e32fe400551b" target="_top" xlink:title="Identifiant unique sur tous les domaines.">
<polygon fill="white" stroke="#666666" points="415,-85.5 288,-85.5 288,-66.5 415,-66.5 415,-85.5"/>
<text text-anchor="middle" x="351.5" y="-73.5" font-family="Helvetica,sans-Serif" font-size="10.00">Arcane::Item::uniqueId</text>
</a>
</g>
</g>
<!-- Node1&#45;&gt;Node29 -->
<g id="edge35_Node000001_Node000029" class="edge">
<title>Node1&#45;&gt;Node29</title>
<g id="a_edge35_Node000001_Node000029"><a xlink:title=" ">
<path fill="none" stroke="#63b8ff" d="M117.51,-499.97C120.45,-439.09 139.94,-208.69 268,-95 271.22,-92.15 274.77,-89.7 278.55,-87.59"/>
<polygon fill="#63b8ff" stroke="#63b8ff" points="280.15,-90.71 287.72,-83.3 277.18,-84.37 280.15,-90.71"/>
</a>
</g>
</g>
<!-- Node30 -->
<g id="Node000030" class="node">
<title>Node30</title>
<g id="a_Node000030"><a xlink:href="../../dc/d5a/classArcane_1_1IParallelMng.html#a8ceccdc7d3b6c0c6b1c29bbddeeb076e" target="_top" xlink:title="Bloque en attendant que les requêtes rvalues soient terminées.">
<polygon fill="white" stroke="#666666" points="409.5,-30 293.5,-30 293.5,0 409.5,0 409.5,-30"/>
<text text-anchor="start" x="301.5" y="-18" font-family="Helvetica,sans-Serif" font-size="10.00">Arcane::IParallelMng</text>
<text text-anchor="middle" x="351.5" y="-7" font-family="Helvetica,sans-Serif" font-size="10.00">::waitAllRequests</text>
</a>
</g>
</g>
<!-- Node1&#45;&gt;Node30 -->
<g id="edge36_Node000001_Node000030" class="edge">
<title>Node1&#45;&gt;Node30</title>
<g id="a_edge36_Node000001_Node000030"><a xlink:title=" ">
<path fill="none" stroke="#63b8ff" d="M117.91,-499.96C122.41,-437.81 147.23,-197.74 268,-57 275.77,-47.95 285.97,-40.61 296.53,-34.76"/>
<polygon fill="#63b8ff" stroke="#63b8ff" points="298.15,-37.87 305.45,-30.19 294.95,-31.64 298.15,-37.87"/>
</a>
</g>
</g>
<!-- Node14 -->
<g id="Node000014" class="node">
<title>Node14</title>
<g id="a_Node000014"><a xlink:href="../../df/d5f/classArcane_1_1Item.html#ac73b19d64bc08d1798945e6700f53d06" target="_top" xlink:title="Nombre de mailles connectées à l&#39;entité (pour les noeuds, arêtes et faces)">
<polygon fill="white" stroke="#666666" points="604,-580.5 483,-580.5 483,-561.5 604,-561.5 604,-580.5"/>
<text text-anchor="middle" x="543.5" y="-568.5" font-family="Helvetica,sans-Serif" font-size="10.00">Arcane::Item::_nbCell</text>
</a>
</g>
</g>
<!-- Node13&#45;&gt;Node14 -->
<g id="edge13_Node000013_Node000014" class="edge">
<title>Node13&#45;&gt;Node14</title>
<g id="a_edge13_Node000013_Node000014"><a xlink:title=" ">
<path fill="none" stroke="#63b8ff" d="M409.25,-571C429.17,-571 451.79,-571 472.66,-571"/>
<polygon fill="#63b8ff" stroke="#63b8ff" points="472.74,-574.5 482.74,-571 472.74,-567.5 472.74,-574.5"/>
</a>
</g>
</g>
<!-- Node16 -->
<g id="Node000016" class="node">
<title>Node16</title>
<g id="a_Node000016"><a xlink:href="../../df/d5f/classArcane_1_1Item.html#a5e3bfae771771ca4f9eb26571e85c957" target="_top" xlink:title="Nombre de faces de l&#39;entité ou nombre de faces connectés à l&#39;entités (pour les noeuds et arêtes)">
<polygon fill="white" stroke="#666666" points="605.5,-543.5 481.5,-543.5 481.5,-524.5 605.5,-524.5 605.5,-543.5"/>
<text text-anchor="middle" x="543.5" y="-531.5" font-family="Helvetica,sans-Serif" font-size="10.00">Arcane::Item::_nbFace</text>
</a>
</g>
</g>
<!-- Node15&#45;&gt;Node16 -->
<g id="edge15_Node000015_Node000016" class="edge">
<title>Node15&#45;&gt;Node16</title>
<g id="a_edge15_Node000015_Node000016"><a xlink:title=" ">
<path fill="none" stroke="#63b8ff" d="M409.25,-534C428.71,-534 450.73,-534 471.19,-534"/>
<polygon fill="#63b8ff" stroke="#63b8ff" points="471.41,-537.5 481.41,-534 471.41,-530.5 471.41,-537.5"/>
</a>
</g>
</g>
<!-- Node17&#45;&gt;Node17 -->
<g id="edge17_Node000017_Node000017" class="edge">
<title>Node17&#45;&gt;Node17</title>
<g id="a_edge17_Node000017_Node000017"><a xlink:title=" ">
<path fill="none" stroke="#63b8ff" d="M317.75,-412.28C310.25,-421.41 321.5,-430 351.5,-430 369.31,-430 380.51,-426.97 385.11,-422.6"/>
<polygon fill="#63b8ff" stroke="#63b8ff" points="388.61,-422.32 385.25,-412.28 381.61,-422.23 388.61,-422.32"/>
</a>
</g>
</g>
<!-- Node21&#45;&gt;Node11 -->
<g id="edge30_Node000021_Node000011" class="edge">
<title>Node21&#45;&gt;Node11</title>
<g id="a_edge30_Node000021_Node000011"><a xlink:title=" ">
<path fill="none" stroke="#63b8ff" d="M417.74,-335.06C434.98,-331.88 453.63,-328.89 471,-327 652.46,-307.29 867.65,-305.98 977.36,-306.89"/>
<polygon fill="#63b8ff" stroke="#63b8ff" points="977.61,-310.39 987.64,-306.98 977.67,-303.39 977.61,-310.39"/>
</a>
</g>
</g>
<!-- Node21&#45;&gt;Node12 -->
<g id="edge31_Node000021_Node000012" class="edge">
<title>Node21&#45;&gt;Node12</title>
<g id="a_edge31_Node000021_Node000012"><a xlink:title=" ">
<path fill="none" stroke="#63b8ff" d="M417.92,-363.51C423.95,-366.17 429.76,-369.3 435,-373 457.37,-388.8 449.16,-406.48 471,-423 473.97,-425.24 477.14,-427.31 480.45,-429.21"/>
<polygon fill="#63b8ff" stroke="#63b8ff" points="478.96,-432.38 489.46,-433.85 482.17,-426.16 478.96,-432.38"/>
</a>
</g>
</g>
<!-- Node22 -->
<g id="Node000022" class="node">
<title>Node22</title>
<g id="a_Node000022"><a xlink:href="../../d5/d0d/classArcane_1_1Parallel_1_1BitonicSort.html#aca1e701303ff90cfe7179bbd4e14837d" target="_top" xlink:title="Tri par tas en local de la variable m_key.">
<polygon fill="white" stroke="#666666" points="609.5,-414 477.5,-414 477.5,-384 609.5,-384 609.5,-414"/>
<text text-anchor="start" x="485.5" y="-402" font-family="Helvetica,sans-Serif" font-size="10.00">Arcane::Parallel::Bitonic</text>
<text text-anchor="middle" x="543.5" y="-391" font-family="Helvetica,sans-Serif" font-size="10.00">Sort::_localHeapSort</text>
</a>
</g>
</g>
<!-- Node21&#45;&gt;Node22 -->
<g id="edge22_Node000021_Node000022" class="edge">
<title>Node21&#45;&gt;Node22</title>
<g id="a_edge22_Node000021_Node000022"><a xlink:title=" ">
<path fill="none" stroke="#63b8ff" d="M409.51,-364C430.27,-369.46 453.92,-375.69 475.47,-381.36"/>
<polygon fill="#63b8ff" stroke="#63b8ff" points="474.64,-384.76 485.21,-383.92 476.43,-377.99 474.64,-384.76"/>
</a>
</g>
</g>
<!-- Node23 -->
<g id="Node000023" class="node">
<title>Node23</title>
<g id="a_Node000023"><a xlink:href="../../d5/d0d/classArcane_1_1Parallel_1_1BitonicSort.html#ae6e1c80215566110673c1dcd8d838dc0" target="_top" xlink:title="Tri bi&#45;tonique de la variable key.">
<polygon fill="white" stroke="#666666" points="609.5,-366 477.5,-366 477.5,-336 609.5,-336 609.5,-366"/>
<text text-anchor="start" x="485.5" y="-354" font-family="Helvetica,sans-Serif" font-size="10.00">Arcane::Parallel::Bitonic</text>
<text text-anchor="middle" x="543.5" y="-343" font-family="Helvetica,sans-Serif" font-size="10.00">Sort::_mergeLevels</text>
</a>
</g>
</g>
<!-- Node21&#45;&gt;Node23 -->
<g id="edge23_Node000021_Node000023" class="edge">
<title>Node21&#45;&gt;Node23</title>
<g id="a_edge23_Node000021_Node000023"><a xlink:title=" ">
<path fill="none" stroke="#63b8ff" d="M417.62,-349.69C433.63,-349.85 450.91,-350.04 467.35,-350.21"/>
<polygon fill="#63b8ff" stroke="#63b8ff" points="467.43,-353.71 477.46,-350.32 467.5,-346.71 467.43,-353.71"/>
</a>
</g>
</g>
<!-- Node24 -->
<g id="Node000024" class="node">
<title>Node24</title>
<g id="a_Node000024"><a xlink:href="../../d5/d0d/classArcane_1_1Parallel_1_1BitonicSort.html#a3689a267c12ba0d36b789d7aff9ead8f" target="_top" xlink:title="Fusion des listes de deux processeurs.">
<polygon fill="white" stroke="#666666" points="952,-409 820,-409 820,-379 952,-379 952,-409"/>
<text text-anchor="start" x="828" y="-397" font-family="Helvetica,sans-Serif" font-size="10.00">Arcane::Parallel::Bitonic</text>
<text text-anchor="middle" x="886" y="-386" font-family="Helvetica,sans-Serif" font-size="10.00">Sort::_mergeProcessors</text>
</a>
</g>
</g>
<!-- Node23&#45;&gt;Node24 -->
<g id="edge24_Node000023_Node000024" class="edge">
<title>Node23&#45;&gt;Node24</title>
<g id="a_edge24_Node000023_Node000024"><a xlink:title=" ">
<path fill="none" stroke="#63b8ff" d="M605.05,-366.06C620.3,-369.42 636.69,-372.68 652,-375 704.41,-382.95 764,-387.73 809.8,-390.51"/>
<polygon fill="#63b8ff" stroke="#63b8ff" points="809.75,-394.02 819.94,-391.11 810.16,-387.03 809.75,-394.02"/>
</a>
</g>
</g>
<!-- Node25 -->
<g id="Node000025" class="node">
<title>Node25</title>
<g id="a_Node000025"><a xlink:href="../../d5/d0d/classArcane_1_1Parallel_1_1BitonicSort.html#a6914236291c237d3113a7bab7c7c699f" target="_top" xlink:title="Etage séparateur de l&#39;algorithme de tri bi&#45;tonique.">
<polygon fill="white" stroke="#666666" points="784,-366 652,-366 652,-336 784,-336 784,-366"/>
<text text-anchor="start" x="660" y="-354" font-family="Helvetica,sans-Serif" font-size="10.00">Arcane::Parallel::Bitonic</text>
<text text-anchor="middle" x="718" y="-343" font-family="Helvetica,sans-Serif" font-size="10.00">Sort::_separator</text>
</a>
</g>
</g>
<!-- Node23&#45;&gt;Node25 -->
<g id="edge28_Node000023_Node000025" class="edge">
<title>Node23&#45;&gt;Node25</title>
<g id="a_edge28_Node000023_Node000025"><a xlink:title=" ">
<path fill="none" stroke="#63b8ff" d="M609.71,-351C620.2,-351 631.12,-351 641.82,-351"/>
<polygon fill="#63b8ff" stroke="#63b8ff" points="641.98,-354.5 651.98,-351 641.98,-347.5 641.98,-354.5"/>
</a>
</g>
</g>
<!-- Node24&#45;&gt;Node2 -->
<g id="edge25_Node000024_Node000002" class="edge">
<title>Node24&#45;&gt;Node2</title>
<g id="a_edge25_Node000024_Node000002"><a xlink:title=" ">
<path fill="none" stroke="#63b8ff" d="M894.19,-409.23C920.5,-464.91 1011.44,-657.43 1040.5,-718.95"/>
<polygon fill="#63b8ff" stroke="#63b8ff" points="1037.46,-720.71 1044.9,-728.26 1043.79,-717.72 1037.46,-720.71"/>
</a>
</g>
</g>
<!-- Node24&#45;&gt;Node11 -->
<g id="edge26_Node000024_Node000011" class="edge">
<title>Node24&#45;&gt;Node11</title>
<g id="a_edge26_Node000024_Node000011"><a xlink:title=" ">
<path fill="none" stroke="#63b8ff" d="M915.68,-378.82C942.48,-364.64 982.66,-343.37 1012,-327.85"/>
<polygon fill="#63b8ff" stroke="#63b8ff" points="1013.91,-330.8 1021.11,-323.03 1010.63,-324.61 1013.91,-330.8"/>
</a>
</g>
</g>
<!-- Node24&#45;&gt;Node18 -->
<g id="edge27_Node000024_Node000018" class="edge">
<title>Node24&#45;&gt;Node18</title>
<g id="a_edge27_Node000024_Node000018"><a xlink:title=" ">
<path fill="none" stroke="#63b8ff" d="M934,-409.04C958.01,-416.72 986.9,-425.97 1009.78,-433.29"/>
<polygon fill="#63b8ff" stroke="#63b8ff" points="1008.91,-436.69 1019.5,-436.4 1011.05,-430.02 1008.91,-436.69"/>
</a>
</g>
</g>
<!-- Node25&#45;&gt;Node24 -->
<g id="edge29_Node000025_Node000024" class="edge">
<title>Node25&#45;&gt;Node24</title>
<g id="a_edge29_Node000025_Node000024"><a xlink:title=" ">
<path fill="none" stroke="#63b8ff" d="M777.06,-366.04C789.95,-369.38 803.72,-372.95 816.97,-376.38"/>
<polygon fill="#63b8ff" stroke="#63b8ff" points="816.42,-379.85 826.97,-378.97 818.17,-373.07 816.42,-379.85"/>
</a>
</g>
</g>
<!-- Node28 -->
<g id="Node000028" class="node">
<title>Node28</title>
<g id="a_Node000028"><a xlink:href="../../d5/dee/namespaceArcane_1_1Convert.html#a9991535d65307251e061bc477bb87bc5" target="_top" xlink:title="Converti un Real en double.">
<polygon fill="white" stroke="#666666" points="616,-128.5 471,-128.5 471,-109.5 616,-109.5 616,-128.5"/>
<text text-anchor="middle" x="543.5" y="-116.5" font-family="Helvetica,sans-Serif" font-size="10.00">Arcane::Convert::toDouble</text>
</a>
</g>
</g>
<!-- Node27&#45;&gt;Node28 -->
<g id="edge34_Node000027_Node000028" class="edge">
<title>Node27&#45;&gt;Node28</title>
<g id="a_edge34_Node000027_Node000028"><a xlink:title=" ">
<path fill="none" stroke="#63b8ff" d="M419.75,-119C432.94,-119 446.91,-119 460.51,-119"/>
<polygon fill="#63b8ff" stroke="#63b8ff" points="460.83,-122.5 470.83,-119 460.83,-115.5 460.83,-122.5"/>
</a>
</g>
</g>
<!-- Node30&#45;&gt;Node30 -->
<g id="edge37_Node000030_Node000030" class="edge">
<title>Node30&#45;&gt;Node30</title>
<g id="a_edge37_Node000030_Node000030"><a xlink:title=" ">
<path fill="none" stroke="#63b8ff" d="M317.75,-30.28C310.25,-39.41 321.5,-48 351.5,-48 369.31,-48 380.51,-44.97 385.11,-40.6"/>
<polygon fill="#63b8ff" stroke="#63b8ff" points="388.61,-40.32 385.25,-30.28 381.61,-40.23 388.61,-40.32"/>
</a>
</g>
</g>
</g>
</svg>

<g id="navigator" transform="translate(0 0)" fill="#404254">
  <rect fill="#f2f5e9" fill-opacity="0.5" stroke="#606060" stroke-width=".5" x="0" y="0" width="60" height="60"/>
  <use id="zoomplus" xlink:href="#zoomPlus" x="17" y="9" onmousedown="handleZoom(evt,'in')"/>
  <use id="zoomminus" xlink:href="#zoomMin" x="42" y="9" onmousedown="handleZoom(evt,'out')"/>
  <use id="reset" xlink:href="#resetDef" x="30" y="36" onmousedown="handleReset()"/>
   <use id="arrowup" xlink:href="#arrowUp" x="0" y="0" onmousedown="handlePan(0,-1)"/>
  <use id="arrowright" xlink:href="#arrowRight" x="0" y="0" onmousedown="handlePan(1,0)"/>
  <use id="arrowdown" xlink:href="#arrowDown" x="0" y="0" onmousedown="handlePan(0,1)"/>
  <use id="arrowleft" xlink:href="#arrowLeft" x="0" y="0" onmousedown="handlePan(-1,0)"/>
</g>
<svg viewBox="0 0 15 15" width="100%" height="30px" preserveAspectRatio="xMaxYMin meet">
 <g id="arrow_out" transform="scale(0.3 0.3)">
  <a xlink:href="classArcane_1_1mesh_1_1FaceUniqueIdBuilder2_a44c11bd7dddabdef63a37438939393db_cgraph_org.svg" target="_base">
   <rect id="button" ry="5" rx="5" y="6" x="6" height="38" width="38"
        fill="#f2f5e9" fill-opacity="0.5" stroke="#606060" stroke-width="1.0"/>
   <path id="arrow"
     d="M 11.500037,31.436501 C 11.940474,20.09759 22.043105,11.32322 32.158766,21.979434 L 37.068811,17.246167 C 37.068811,17.246167 37.088388,32 37.088388,32 L 22.160133,31.978069 C 22.160133,31.978069 26.997745,27.140456 26.997745,27.140456 C 18.528582,18.264221 13.291696,25.230495 11.500037,31.436501 z"
     style="fill:#404040;"/>
  </a>
 </g>
</svg>

<style type='text/css'>
<![CDATA[
[data-mouse-over-selected='false'] { opacity: 0.7; }
[data-mouse-over-selected='true']  { opacity: 1.0; }
]]>
</style>
<script type="application/ecmascript"><![CDATA[
document.addEventListener('DOMContentLoaded', (event) => {
  highlightEdges();
  highlightAdjacentNodes();
});
]]></script>
</svg>
