<?xml version="1.0" encoding="UTF-8" standalone="no"?>
<!DOCTYPE svg PUBLIC "-//W3C//DTD SVG 1.1//EN"
 "http://www.w3.org/Graphics/SVG/1.1/DTD/svg11.dtd">
<!-- Generated by graphviz version 2.43.0 (0)
 -->
<!-- Title: Arcane::TBBTaskImplementation::currentTaskThreadIndex Pages: 1 -->
<svg width="556pt" height="38pt"
 viewBox="0.00 0.00 556.00 38.00" xmlns="http://www.w3.org/2000/svg" xmlns:xlink="http://www.w3.org/1999/xlink">
<g id="graph0" class="graph" transform="scale(1 1) rotate(0) translate(4 34)">
<title>Arcane::TBBTaskImplementation::currentTaskThreadIndex</title>
<!-- Node1 -->
<g id="Node000001" class="node">
<title>Node1</title>
<g id="a_Node000001"><a xlink:title="Implémentation de TaskFactory::currentTaskThreadIndex()">
<polygon fill="#999999" stroke="#666666" points="176,-30 0,-30 0,0 176,0 176,-30"/>
<text text-anchor="start" x="8" y="-18" font-family="Helvetica,sans-Serif" font-size="10.00">Arcane::TBBTaskImplementation</text>
<text text-anchor="middle" x="88" y="-7" font-family="Helvetica,sans-Serif" font-size="10.00">::currentTaskThreadIndex</text>
</a>
</g>
</g>
<!-- Node2 -->
<g id="Node000002" class="node">
<title>Node2</title>
<g id="a_Node000002"><a xlink:href="../../dd/df9/classArcane_1_1ITaskImplementation.html#a1389bd406fe6ab122dec9bf5131d7c47" target="_top" xlink:title="Nombre de threads utilisés au maximum pour gérer les tâches.">
<polygon fill="white" stroke="#666666" points="371,-30 212,-30 212,0 371,0 371,-30"/>
<text text-anchor="start" x="220" y="-18" font-family="Helvetica,sans-Serif" font-size="10.00">Arcane::ITaskImplementation</text>
<text text-anchor="middle" x="291.5" y="-7" font-family="Helvetica,sans-Serif" font-size="10.00">::nbAllowedThread</text>
</a>
</g>
</g>
<!-- Node1&#45;&gt;Node2 -->
<g id="edge1_Node000001_Node000002" class="edge">
<title>Node1&#45;&gt;Node2</title>
<g id="a_edge1_Node000001_Node000002"><a xlink:title=" ">
<path fill="none" stroke="#63b8ff" d="M176.21,-15C184.6,-15 193.12,-15 201.53,-15"/>
<polygon fill="#63b8ff" stroke="#63b8ff" points="201.72,-18.5 211.72,-15 201.72,-11.5 201.72,-18.5"/>
</a>
</g>
</g>
<!-- Node3 -->
<g id="Node000003" class="node">
<title>Node3</title>
<g id="a_Node000003"><a xlink:href="../../d2/d94/classArcane_1_1ConcurrencyBase.html#a97edb013bee4ce83c3272e67b3d23f17" target="_top" xlink:title="Nombre maximum de threads autorisés pour le multi&#45;threading.">
<polygon fill="white" stroke="#666666" points="548,-30 407,-30 407,0 548,0 548,-30"/>
<text text-anchor="start" x="415" y="-18" font-family="Helvetica,sans-Serif" font-size="10.00">Arcane::ConcurrencyBase</text>
<text text-anchor="middle" x="477.5" y="-7" font-family="Helvetica,sans-Serif" font-size="10.00">::maxAllowedThread</text>
</a>
</g>
</g>
<!-- Node2&#45;&gt;Node3 -->
<g id="edge2_Node000002_Node000003" class="edge">
<title>Node2&#45;&gt;Node3</title>
<g id="a_edge2_Node000002_Node000003"><a xlink:title=" ">
<path fill="none" stroke="#63b8ff" d="M371.07,-15C379.54,-15 388.17,-15 396.65,-15"/>
<polygon fill="#63b8ff" stroke="#63b8ff" points="396.91,-18.5 406.91,-15 396.91,-11.5 396.91,-18.5"/>
</a>
</g>
</g>
</g>
</svg>
