<?xml version="1.0" encoding="UTF-8" standalone="no"?>
<!DOCTYPE svg PUBLIC "-//W3C//DTD SVG 1.1//EN"
 "http://www.w3.org/Graphics/SVG/1.1/DTD/svg11.dtd">
<!-- Generated by graphviz version 14.1.2 (0)
 -->
<!-- Title: Arcane::CaseOptionException::CaseOptionException Pages: 1 -->
<svg width="323pt" height="198pt"
 viewBox="0.00 0.00 323.00 198.00" xmlns="http://www.w3.org/2000/svg" xmlns:xlink="http://www.w3.org/1999/xlink">
<g id="graph0" class="graph" transform="scale(1 1) rotate(0) translate(4 193.5)">
<title>Arcane::CaseOptionException::CaseOptionException</title>
<!-- Node1 -->
<g id="Node000001" class="node">
<title>Node1</title>
<g id="a_Node000001"><a xlink:title="Exception lorsqu&#39;une option d&#39;une jeu de données n&#39;est pas valide.">
<polygon fill="#999999" stroke="#666666" points="160,-111.5 0,-111.5 0,-78 160,-78 160,-111.5"/>
<text xml:space="preserve" text-anchor="start" x="8" y="-98" font-family="Helvetica,sans-Serif" font-size="10.00">Arcane::CaseOptionException</text>
<text xml:space="preserve" text-anchor="middle" x="80" y="-85.25" font-family="Helvetica,sans-Serif" font-size="10.00">::CaseOptionException</text>
</a>
</g>
</g>
<!-- Node2 -->
<g id="Node000002" class="node">
<title>Node2</title>
<g id="a_Node000002"><a xlink:href="../../dd/df6/classArcane_1_1Exception.html#ab6f3df5e493feeec965bd650d5304457" target="_top" xlink:title=" ">
<polygon fill="white" stroke="#666666" points="310.25,-189.5 200.5,-189.5 200.5,-156 310.25,-156 310.25,-189.5"/>
<text xml:space="preserve" text-anchor="start" x="208.5" y="-176" font-family="Helvetica,sans-Serif" font-size="10.00">Arcane::Exception::</text>
<text xml:space="preserve" text-anchor="middle" x="255.38" y="-163.25" font-family="Helvetica,sans-Serif" font-size="10.00">Exception</text>
</a>
</g>
</g>
<!-- Node1&#45;&gt;Node2 -->
<g id="edge1_Node000001_Node000002" class="edge">
<title>Node1&#45;&gt;Node2</title>
<g id="a_edge1_Node000001_Node000002"><a xlink:title=" ">
<path fill="none" stroke="#63b8ff" d="M118.79,-111.9C141.21,-122.06 170.21,-135.18 196,-146.75 199.09,-148.14 202.27,-149.56 205.48,-151"/>
<polygon fill="#63b8ff" stroke="#63b8ff" points="203.8,-154.08 214.36,-154.96 206.65,-147.69 203.8,-154.08"/>
</a>
</g>
</g>
<!-- Node3 -->
<g id="Node000003" class="node">
<title>Node3</title>
<g id="a_Node000003"><a xlink:href="../../dd/df6/classArcane_1_1Exception.html#ace75a473b7329177c11be21faa6c4261" target="_top" xlink:title="Positionne l&#39;état collectif de l&#39;expression.">
<polygon fill="white" stroke="#666666" points="310.25,-137.5 200.5,-137.5 200.5,-104 310.25,-104 310.25,-137.5"/>
<text xml:space="preserve" text-anchor="start" x="208.5" y="-124" font-family="Helvetica,sans-Serif" font-size="10.00">Arcane::Exception::</text>
<text xml:space="preserve" text-anchor="middle" x="255.38" y="-111.25" font-family="Helvetica,sans-Serif" font-size="10.00">setCollective</text>
</a>
</g>
</g>
<!-- Node1&#45;&gt;Node3 -->
<g id="edge2_Node000001_Node000003" class="edge">
<title>Node1&#45;&gt;Node3</title>
<g id="a_edge2_Node000001_Node000003"><a xlink:title=" ">
<path fill="none" stroke="#63b8ff" d="M160.33,-106.65C169.9,-108.08 179.59,-109.54 188.94,-110.94"/>
<polygon fill="#63b8ff" stroke="#63b8ff" points="188.22,-114.37 198.63,-112.39 189.26,-107.45 188.22,-114.37"/>
</a>
</g>
</g>
<!-- Node4 -->
<g id="Node000004" class="node">
<title>Node4</title>
<g id="a_Node000004"><a xlink:href="../../d4/d97/classArcane_1_1StringBuilder.html#adb494f09653425a9b129031cd91e15cb" target="_top" xlink:title="Retourne la chaîne de caractères construite.">
<polygon fill="white" stroke="#666666" points="314.75,-85.5 196,-85.5 196,-52 314.75,-52 314.75,-85.5"/>
<text xml:space="preserve" text-anchor="start" x="204" y="-72" font-family="Helvetica,sans-Serif" font-size="10.00">Arcane::StringBuilder</text>
<text xml:space="preserve" text-anchor="middle" x="255.38" y="-59.25" font-family="Helvetica,sans-Serif" font-size="10.00">::toString</text>
</a>
</g>
</g>
<!-- Node1&#45;&gt;Node4 -->
<g id="edge3_Node000001_Node000004" class="edge">
<title>Node1&#45;&gt;Node4</title>
<g id="a_edge3_Node000001_Node000004"><a xlink:title=" ">
<path fill="none" stroke="#63b8ff" d="M160.33,-82.85C168.3,-81.66 176.35,-80.45 184.21,-79.27"/>
<polygon fill="#63b8ff" stroke="#63b8ff" points="184.7,-82.74 194.07,-77.79 183.66,-75.82 184.7,-82.74"/>
</a>
</g>
</g>
<!-- Node5 -->
<g id="Node000005" class="node">
<title>Node5</title>
<g id="a_Node000005"><a xlink:href="../../dd/df6/classArcane_1_1Exception.html#a3de6d2f9c22aeae98c8260877984a149" target="_top" xlink:title="Localisation de l&#39;exception.">
<polygon fill="white" stroke="#666666" points="310.25,-33.5 200.5,-33.5 200.5,0 310.25,0 310.25,-33.5"/>
<text xml:space="preserve" text-anchor="start" x="208.5" y="-20" font-family="Helvetica,sans-Serif" font-size="10.00">Arcane::Exception::</text>
<text xml:space="preserve" text-anchor="middle" x="255.38" y="-7.25" font-family="Helvetica,sans-Serif" font-size="10.00">where</text>
</a>
</g>
</g>
<!-- Node1&#45;&gt;Node5 -->
<g id="edge4_Node000001_Node000005" class="edge">
<title>Node1&#45;&gt;Node5</title>
<g id="a_edge4_Node000001_Node000005"><a xlink:title=" ">
<path fill="none" stroke="#63b8ff" d="M118.79,-77.6C141.21,-67.44 170.21,-54.32 196,-42.75 199.09,-41.36 202.27,-39.94 205.48,-38.5"/>
<polygon fill="#63b8ff" stroke="#63b8ff" points="206.65,-41.81 214.36,-34.54 203.8,-35.42 206.65,-41.81"/>
</a>
</g>
</g>
</g>
</svg>
