<?xml version="1.0" encoding="UTF-8" standalone="no"?>
<!DOCTYPE svg PUBLIC "-//W3C//DTD SVG 1.1//EN"
 "http://www.w3.org/Graphics/SVG/1.1/DTD/svg11.dtd">
<!-- Generated by graphviz version 2.43.0 (0)
 -->
<!-- Title: Arcane::Materials::MeshMaterialMng::InternalApi Pages: 1 -->
<svg width="192pt" height="576pt"
 viewBox="0.00 0.00 192.00 576.00" xmlns="http://www.w3.org/2000/svg" xmlns:xlink="http://www.w3.org/1999/xlink">
<g id="graph0" class="graph" transform="scale(1 1) rotate(0) translate(4 572)">
<title>Arcane::Materials::MeshMaterialMng::InternalApi</title>
<!-- Node1 -->
<g id="Node000001" class="node">
<title>Node1</title>
<g id="a_Node000001"><a xlink:title=" ">
<polygon fill="#999999" stroke="transparent" points="184,-266 0,-266 0,0 184,0 184,-266"/>
<text text-anchor="start" x="18" y="-254" font-family="Helvetica,sans-Serif" font-size="10.00">Arcane::Materials::</text>
<text text-anchor="start" x="18" y="-243" font-family="Helvetica,sans-Serif" font-size="10.00">MeshMaterialMng::InternalApi</text>
<text text-anchor="start" x="6.5" y="-228" font-family="Helvetica,sans-Serif" font-size="10.00">&#45;</text>
<text text-anchor="start" x="17" y="-228" font-family="Helvetica,sans-Serif" font-size="10.00">m_material_mng</text>
<text text-anchor="start" x="4" y="-213" font-family="Helvetica,sans-Serif" font-size="10.00">+</text>
<text text-anchor="start" x="17" y="-213" font-family="Helvetica,sans-Serif" font-size="10.00">InternalApi()</text>
<text text-anchor="start" x="4" y="-198" font-family="Helvetica,sans-Serif" font-size="10.00">+</text>
<text text-anchor="start" x="17" y="-198" font-family="Helvetica,sans-Serif" font-size="10.00">getAllCellToAllEnvCellContainer()</text>
<text text-anchor="start" x="4" y="-183" font-family="Helvetica,sans-Serif" font-size="10.00">+</text>
<text text-anchor="start" x="17" y="-183" font-family="Helvetica,sans-Serif" font-size="10.00">createAllCellToAllEnvCell()</text>
<text text-anchor="start" x="4" y="-168" font-family="Helvetica,sans-Serif" font-size="10.00">+</text>
<text text-anchor="start" x="17" y="-168" font-family="Helvetica,sans-Serif" font-size="10.00">variablesIndexer()</text>
<text text-anchor="start" x="4" y="-153" font-family="Helvetica,sans-Serif" font-size="10.00">+</text>
<text text-anchor="start" x="17" y="-153" font-family="Helvetica,sans-Serif" font-size="10.00">addVariable()</text>
<text text-anchor="start" x="4" y="-138" font-family="Helvetica,sans-Serif" font-size="10.00">+</text>
<text text-anchor="start" x="17" y="-138" font-family="Helvetica,sans-Serif" font-size="10.00">removeVariable()</text>
<text text-anchor="start" x="4" y="-123" font-family="Helvetica,sans-Serif" font-size="10.00">+</text>
<text text-anchor="start" x="17" y="-123" font-family="Helvetica,sans-Serif" font-size="10.00">modifier()</text>
<text text-anchor="start" x="4" y="-108" font-family="Helvetica,sans-Serif" font-size="10.00">+</text>
<text text-anchor="start" x="17" y="-108" font-family="Helvetica,sans-Serif" font-size="10.00">allCellsMatEnvSynchronizer()</text>
<text text-anchor="start" x="4" y="-93" font-family="Helvetica,sans-Serif" font-size="10.00">+</text>
<text text-anchor="start" x="17" y="-93" font-family="Helvetica,sans-Serif" font-size="10.00">allCellsEnvOnlySynchronizer()</text>
<text text-anchor="start" x="4" y="-78" font-family="Helvetica,sans-Serif" font-size="10.00">+</text>
<text text-anchor="start" x="17" y="-78" font-family="Helvetica,sans-Serif" font-size="10.00">componentItemSharedInfo()</text>
<text text-anchor="start" x="4" y="-63" font-family="Helvetica,sans-Serif" font-size="10.00">+</text>
<text text-anchor="start" x="17" y="-63" font-family="Helvetica,sans-Serif" font-size="10.00">runQueue()</text>
<text text-anchor="start" x="4" y="-48" font-family="Helvetica,sans-Serif" font-size="10.00">+</text>
<text text-anchor="start" x="17" y="-48" font-family="Helvetica,sans-Serif" font-size="10.00">asyncRunQueuePool()</text>
<text text-anchor="start" x="4" y="-33" font-family="Helvetica,sans-Serif" font-size="10.00">+</text>
<text text-anchor="start" x="17" y="-33" font-family="Helvetica,sans-Serif" font-size="10.00">additionalCapacityRatio()</text>
<text text-anchor="start" x="4" y="-18" font-family="Helvetica,sans-Serif" font-size="10.00">+</text>
<text text-anchor="start" x="17" y="-18" font-family="Helvetica,sans-Serif" font-size="10.00">isUseAcceleratorForConstituent</text>
<text text-anchor="start" x="17" y="-7" font-family="Helvetica,sans-Serif" font-size="10.00">ItemVector()</text>
<polygon fill="#666666" stroke="#666666" points="0,-238 0,-238 184,-238 184,-238 0,-238"/>
<polygon fill="#666666" stroke="#666666" points="0,-223 0,-223 15,-223 15,-223 0,-223"/>
<polygon fill="#666666" stroke="#666666" points="15,-223 15,-223 184,-223 184,-223 15,-223"/>
<polygon fill="none" stroke="#666666" points="0,0 0,-266 184,-266 184,0 0,0"/>
</a>
</g>
</g>
<!-- Node2 -->
<g id="Node000002" class="node">
<title>Node2</title>
<g id="a_Node000002"><a xlink:href="../../db/d97/classArcane_1_1Materials_1_1IMeshMaterialMngInternal.html" target="_top" xlink:title="API interne Arcane de &#39;IMeshMaterialMng&#39;.">
<polygon fill="white" stroke="transparent" points="184,-568 0,-568 0,-302 184,-302 184,-568"/>
<text text-anchor="start" x="27.5" y="-556" font-family="Helvetica,sans-Serif" font-size="10.00">Arcane::Materials::</text>
<text text-anchor="start" x="27.5" y="-545" font-family="Helvetica,sans-Serif" font-size="10.00">IMeshMaterialMngInternal</text>
<text text-anchor="start" x="90" y="-530" font-family="Helvetica,sans-Serif" font-size="10.00"> </text>
<text text-anchor="start" x="4" y="-515" font-family="Helvetica,sans-Serif" font-size="10.00">+</text>
<text text-anchor="start" x="17" y="-515" font-family="Helvetica,sans-Serif" font-size="10.00">~IMeshMaterialMngInternal()</text>
<text text-anchor="start" x="4" y="-500" font-family="Helvetica,sans-Serif" font-size="10.00">+</text>
<text text-anchor="start" x="17" y="-500" font-family="Helvetica,sans-Serif" font-size="10.00">addVariable()</text>
<text text-anchor="start" x="4" y="-485" font-family="Helvetica,sans-Serif" font-size="10.00">+</text>
<text text-anchor="start" x="17" y="-485" font-family="Helvetica,sans-Serif" font-size="10.00">removeVariable()</text>
<text text-anchor="start" x="4" y="-470" font-family="Helvetica,sans-Serif" font-size="10.00">+</text>
<text text-anchor="start" x="17" y="-470" font-family="Helvetica,sans-Serif" font-size="10.00">modifier()</text>
<text text-anchor="start" x="4" y="-455" font-family="Helvetica,sans-Serif" font-size="10.00">+</text>
<text text-anchor="start" x="17" y="-455" font-family="Helvetica,sans-Serif" font-size="10.00">variablesIndexer()</text>
<text text-anchor="start" x="4" y="-440" font-family="Helvetica,sans-Serif" font-size="10.00">+</text>
<text text-anchor="start" x="17" y="-440" font-family="Helvetica,sans-Serif" font-size="10.00">allCellsMatEnvSynchronizer()</text>
<text text-anchor="start" x="4" y="-425" font-family="Helvetica,sans-Serif" font-size="10.00">+</text>
<text text-anchor="start" x="17" y="-425" font-family="Helvetica,sans-Serif" font-size="10.00">allCellsEnvOnlySynchronizer()</text>
<text text-anchor="start" x="4" y="-410" font-family="Helvetica,sans-Serif" font-size="10.00">+</text>
<text text-anchor="start" x="17" y="-410" font-family="Helvetica,sans-Serif" font-size="10.00">getAllCellToAllEnvCellContainer()</text>
<text text-anchor="start" x="4" y="-395" font-family="Helvetica,sans-Serif" font-size="10.00">+</text>
<text text-anchor="start" x="17" y="-395" font-family="Helvetica,sans-Serif" font-size="10.00">createAllCellToAllEnvCell()</text>
<text text-anchor="start" x="4" y="-380" font-family="Helvetica,sans-Serif" font-size="10.00">+</text>
<text text-anchor="start" x="17" y="-380" font-family="Helvetica,sans-Serif" font-size="10.00">componentItemSharedInfo()</text>
<text text-anchor="start" x="4" y="-365" font-family="Helvetica,sans-Serif" font-size="10.00">+</text>
<text text-anchor="start" x="17" y="-365" font-family="Helvetica,sans-Serif" font-size="10.00">runQueue()</text>
<text text-anchor="start" x="4" y="-350" font-family="Helvetica,sans-Serif" font-size="10.00">+</text>
<text text-anchor="start" x="17" y="-350" font-family="Helvetica,sans-Serif" font-size="10.00">asyncRunQueuePool()</text>
<text text-anchor="start" x="4" y="-335" font-family="Helvetica,sans-Serif" font-size="10.00">+</text>
<text text-anchor="start" x="17" y="-335" font-family="Helvetica,sans-Serif" font-size="10.00">additionalCapacityRatio()</text>
<text text-anchor="start" x="4" y="-320" font-family="Helvetica,sans-Serif" font-size="10.00">+</text>
<text text-anchor="start" x="17" y="-320" font-family="Helvetica,sans-Serif" font-size="10.00">isUseAcceleratorForConstituent</text>
<text text-anchor="start" x="17" y="-309" font-family="Helvetica,sans-Serif" font-size="10.00">ItemVector()</text>
<polygon fill="#666666" stroke="#666666" points="0,-540 0,-540 184,-540 184,-540 0,-540"/>
<polygon fill="#666666" stroke="#666666" points="0,-525 0,-525 184,-525 184,-525 0,-525"/>
<polygon fill="none" stroke="#666666" points="0,-302 0,-568 184,-568 184,-302 0,-302"/>
</a>
</g>
</g>
<!-- Node2&#45;&gt;Node1 -->
<g id="edge1_Node000001_Node000002" class="edge">
<title>Node2&#45;&gt;Node1</title>
<g id="a_edge1_Node000001_Node000002"><a xlink:title=" ">
<path fill="none" stroke="#63b8ff" d="M92,-291.72C92,-283.3 92,-274.84 92,-266.46"/>
<polygon fill="none" stroke="#63b8ff" points="88.5,-291.98 92,-301.98 95.5,-291.98 88.5,-291.98"/>
</a>
</g>
</g>
</g>
</svg>
