<?xml version="1.0" encoding="UTF-8" standalone="no"?>
<!DOCTYPE svg PUBLIC "-//W3C//DTD SVG 1.1//EN"
 "http://www.w3.org/Graphics/SVG/1.1/DTD/svg11.dtd">
<!-- Generated by graphviz version 2.43.0 (0)
 -->
<!-- Title: Arcane::ItemGroup::_internalApi Pages: 1 -->
<!--zoomable 157 -->

<svg id="main" version="1.1" xmlns="http://www.w3.org/2000/svg" xmlns:xlink="http://www.w3.org/1999/xlink" xml:space="preserve" onload="init(evt)">

<style type="text/css"><![CDATA[
.node, .edge {opacity: 0.7;}
.node.selected, .edge.selected {opacity: 1;}
.edge:hover path { stroke: red; }
.edge:hover polygon { stroke: red; fill: red; }
]]></style>

<defs>
  <circle id="rim" cx="0" cy="0" r="7"/>
  <circle id="rim2" cx="0" cy="0" r="3.5"/>
  <g id="zoomPlus">
    <use xlink:href="#rim" fill="#404040"><set attributeName="fill" to="#808080" begin="zoomplus.mouseover" end="zoomplus.mouseout"/></use>
    <path d="M-4,0h8M0,-4v8" fill="none" stroke="white" stroke-width="1.5" pointer-events="none"/>
  </g>
  <g id="zoomMin">
    <use xlink:href="#rim" fill="#404040"><set attributeName="fill" to="#808080" begin="zoomminus.mouseover" end="zoomminus.mouseout"/></use>
    <path d="M-4,0h8" fill="none" stroke="white" stroke-width="1.5" pointer-events="none"/>
  </g>
  <g id="arrowUp" transform="translate(30 24)">
    <use xlink:href="#rim"/>
    <path pointer-events="none" fill="none" stroke="white" stroke-width="1.5" d="M0,-3.0v7 M-2.5,-0.5L0,-3.0L2.5,-0.5"/>
  </g>
  <g id="arrowRight" transform="rotate(90) translate(36 -43)">
    <use xlink:href="#rim"/>
    <path pointer-events="none" fill="none" stroke="white" stroke-width="1.5" d="M0,-3.0v7 M-2.5,-0.5L0,-3.0L2.5,-0.5"/>
  </g>
  <g id="arrowDown" transform="rotate(180) translate(-30 -48)">
    <use xlink:href="#rim"/>
    <path pointer-events="none" fill="none" stroke="white" stroke-width="1.5" d="M0,-3.0v7 M-2.5,-0.5L0,-3.0L2.5,-0.5"/>
  </g>
  <g id="arrowLeft" transform="rotate(270) translate(-36 17)">
    <use xlink:href="#rim"/>
    <path pointer-events="none" fill="none" stroke="white" stroke-width="1.5" d="M0,-3.0v7 M-2.5,-0.5L0,-3.0L2.5,-0.5"/>
  </g>
  <g id="resetDef">
    <use xlink:href="#rim2" fill="#404040"><set attributeName="fill" to="#808080" begin="reset.mouseover" end="reset.mouseout"/></use>
  </g>
</defs>
<script type="application/ecmascript">
var viewWidth = 1068;
var viewHeight = 157;
var sectionId = 'dynsection-5';
</script>
<script type="application/ecmascript" xlink:href="../../svg.min.js"/>
<svg id="graph" class="graph">
<g id="viewport">
<title>Arcane::ItemGroup::_internalApi</title>
<!-- Node1 -->
<g id="Node000001" class="node">
<title>Node1</title>
<g id="a_Node000001"><a xlink:title="API interne à Arcane.">
<polygon fill="#999999" stroke="#666666" points="1060,-84 946,-84 946,-54 1060,-54 1060,-84"/>
<text text-anchor="start" x="954" y="-72" font-family="Helvetica,sans-Serif" font-size="10.00">Arcane::ItemGroup::</text>
<text text-anchor="middle" x="1003" y="-61" font-family="Helvetica,sans-Serif" font-size="10.00">_internalApi</text>
</a>
</g>
</g>
<!-- Node2 -->
<g id="Node000002" class="node">
<title>Node2</title>
<g id="a_Node000002"><a xlink:href="../../de/d07/classArcane_1_1Materials_1_1AllEnvData.html#aa813aa4c9118b4f5d5580504a1e3efe2" target="_top" xlink:title="Positionne les infos pour les EnvCell.">
<polygon fill="white" stroke="#666666" points="892,-148.5 728,-148.5 728,-107.5 892,-107.5 892,-148.5"/>
<text text-anchor="start" x="736" y="-136.5" font-family="Helvetica,sans-Serif" font-size="10.00">Arcane::Materials::</text>
<text text-anchor="start" x="736" y="-125.5" font-family="Helvetica,sans-Serif" font-size="10.00">AllEnvData::_computeInfosFor</text>
<text text-anchor="middle" x="810" y="-114.5" font-family="Helvetica,sans-Serif" font-size="10.00">EnvCells</text>
</a>
</g>
</g>
<!-- Node1&#45;&gt;Node2 -->
<g id="edge1_Node000001_Node000002" class="edge">
<title>Node1&#45;&gt;Node2</title>
<g id="a_edge1_Node000001_Node000002"><a xlink:title=" ">
<path fill="none" stroke="#63b8ff" d="M947.09,-87.2C934.9,-91.16 922.03,-95.28 910,-99 901.02,-101.78 891.56,-104.64 882.19,-107.43"/>
<polygon fill="#63b8ff" stroke="#63b8ff" points="948.27,-90.5 956.7,-84.07 946.1,-83.85 948.27,-90.5"/>
</a>
</g>
</g>
<!-- Node4 -->
<g id="Node000004" class="node">
<title>Node4</title>
<g id="a_Node000004"><a xlink:href="../../d1/d07/classArcane_1_1Materials_1_1MeshEnvironment.html#a1aba2e0e053c1aa2a0288db1c1b9408a" target="_top" xlink:title="Calcul les infos sur les matériaux en mono&#45;matériaux.">
<polygon fill="white" stroke="#666666" points="910,-89.5 710,-89.5 710,-48.5 910,-48.5 910,-89.5"/>
<text text-anchor="start" x="718" y="-77.5" font-family="Helvetica,sans-Serif" font-size="10.00">Arcane::Materials::</text>
<text text-anchor="start" x="718" y="-66.5" font-family="Helvetica,sans-Serif" font-size="10.00">MeshEnvironment::_computeMaterial</text>
<text text-anchor="middle" x="810" y="-55.5" font-family="Helvetica,sans-Serif" font-size="10.00">IndexesMonoMat</text>
</a>
</g>
</g>
<!-- Node1&#45;&gt;Node4 -->
<g id="edge3_Node000001_Node000004" class="edge">
<title>Node1&#45;&gt;Node4</title>
<g id="a_edge3_Node000001_Node000004"><a xlink:title=" ">
<path fill="none" stroke="#63b8ff" d="M935.95,-69C927.56,-69 918.85,-69 910.09,-69"/>
<polygon fill="#63b8ff" stroke="#63b8ff" points="935.98,-72.5 945.98,-69 935.98,-65.5 935.98,-72.5"/>
</a>
</g>
</g>
<!-- Node6 -->
<g id="Node000006" class="node">
<title>Node6</title>
<g id="a_Node000006"><a xlink:href="../../d7/d0f/classArcane_1_1Materials_1_1MeshMaterial.html#a0004321df7c158633400a85a8c0d4cdf" target="_top" xlink:title="Fonctions publiques mais réservées au IMeshMaterialMng.">
<polygon fill="white" stroke="#666666" points="866.5,-30 753.5,-30 753.5,0 866.5,0 866.5,-30"/>
<text text-anchor="start" x="761.5" y="-18" font-family="Helvetica,sans-Serif" font-size="10.00">Arcane::Materials::</text>
<text text-anchor="middle" x="810" y="-7" font-family="Helvetica,sans-Serif" font-size="10.00">MeshMaterial::build</text>
</a>
</g>
</g>
<!-- Node1&#45;&gt;Node6 -->
<g id="edge5_Node000001_Node000006" class="edge">
<title>Node1&#45;&gt;Node6</title>
<g id="a_edge5_Node000001_Node000006"><a xlink:title=" ">
<path fill="none" stroke="#63b8ff" d="M948.37,-50.74C935.84,-46.69 922.5,-42.55 910,-39 896.05,-35.04 880.88,-31.16 866.7,-27.7"/>
<polygon fill="#63b8ff" stroke="#63b8ff" points="947.63,-54.18 958.22,-53.96 949.81,-47.53 947.63,-54.18"/>
</a>
</g>
</g>
<!-- Node3 -->
<g id="Node000003" class="node">
<title>Node3</title>
<g id="a_Node000003"><a xlink:href="../../de/d07/classArcane_1_1Materials_1_1AllEnvData.html#aa5f7f2b05a86ebbbb4c012d302ce95d0" target="_top" xlink:title="Remise à jour des structures suite à une modification des mailles de matériaux ou de milieux.">
<polygon fill="white" stroke="#666666" points="655.5,-143 498.5,-143 498.5,-113 655.5,-113 655.5,-143"/>
<text text-anchor="start" x="506.5" y="-131" font-family="Helvetica,sans-Serif" font-size="10.00">Arcane::Materials::</text>
<text text-anchor="middle" x="577" y="-120" font-family="Helvetica,sans-Serif" font-size="10.00">AllEnvData::forceRecompute</text>
</a>
</g>
</g>
<!-- Node2&#45;&gt;Node3 -->
<g id="edge2_Node000002_Node000003" class="edge">
<title>Node2&#45;&gt;Node3</title>
<g id="a_edge2_Node000002_Node000003"><a xlink:title=" ">
<path fill="none" stroke="#63b8ff" d="M717.62,-128C697.17,-128 675.66,-128 655.82,-128"/>
<polygon fill="#63b8ff" stroke="#63b8ff" points="717.88,-131.5 727.88,-128 717.88,-124.5 717.88,-131.5"/>
</a>
</g>
</g>
<!-- Node5 -->
<g id="Node000005" class="node">
<title>Node5</title>
<g id="a_Node000005"><a xlink:href="../../d1/d07/classArcane_1_1Materials_1_1MeshEnvironment.html#a7b82be1afe01d69118b1e6456af00a98" target="_top" xlink:title="Calcul les infos sur les matériaux.">
<polygon fill="white" stroke="#666666" points="674,-89.5 480,-89.5 480,-48.5 674,-48.5 674,-89.5"/>
<text text-anchor="start" x="488" y="-77.5" font-family="Helvetica,sans-Serif" font-size="10.00">Arcane::Materials::</text>
<text text-anchor="start" x="488" y="-66.5" font-family="Helvetica,sans-Serif" font-size="10.00">MeshEnvironment::computeMaterial</text>
<text text-anchor="middle" x="577" y="-55.5" font-family="Helvetica,sans-Serif" font-size="10.00">Indexes</text>
</a>
</g>
</g>
<!-- Node4&#45;&gt;Node5 -->
<g id="edge4_Node000004_Node000005" class="edge">
<title>Node4&#45;&gt;Node5</title>
<g id="a_edge4_Node000004_Node000005"><a xlink:title=" ">
<path fill="none" stroke="#63b8ff" d="M699.47,-69C691.06,-69 682.61,-69 674.29,-69"/>
<polygon fill="#63b8ff" stroke="#63b8ff" points="699.69,-72.5 709.69,-69 699.69,-65.5 699.69,-72.5"/>
</a>
</g>
</g>
<!-- Node7 -->
<g id="Node000007" class="node">
<title>Node7</title>
<g id="a_Node000007"><a xlink:href="../../d7/d43/classArcane_1_1Materials_1_1MeshMaterialMng.html#add8106691c670d758a21a02f822c6310" target="_top" xlink:title="Création d&#39;un matériau.">
<polygon fill="white" stroke="#666666" points="670.5,-30 483.5,-30 483.5,0 670.5,0 670.5,-30"/>
<text text-anchor="start" x="491.5" y="-18" font-family="Helvetica,sans-Serif" font-size="10.00">Arcane::Materials::</text>
<text text-anchor="middle" x="577" y="-7" font-family="Helvetica,sans-Serif" font-size="10.00">MeshMaterialMng::_createMaterial</text>
</a>
</g>
</g>
<!-- Node6&#45;&gt;Node7 -->
<g id="edge6_Node000006_Node000007" class="edge">
<title>Node6&#45;&gt;Node7</title>
<g id="a_edge6_Node000006_Node000007"><a xlink:title=" ">
<path fill="none" stroke="#63b8ff" d="M743.23,-15C720.63,-15 694.88,-15 670.56,-15"/>
<polygon fill="#63b8ff" stroke="#63b8ff" points="743.38,-18.5 753.38,-15 743.38,-11.5 743.38,-18.5"/>
</a>
</g>
</g>
<!-- Node8 -->
<g id="Node000008" class="node">
<title>Node8</title>
<g id="a_Node000008"><a xlink:href="../../d7/d43/classArcane_1_1Materials_1_1MeshMaterialMng.html#a6de4982537cda9cd7b483f55b1cbcb6f" target="_top" xlink:title="Création d&#39;un milieu.">
<polygon fill="white" stroke="#666666" points="444,-30 241,-30 241,0 444,0 444,-30"/>
<text text-anchor="start" x="249" y="-18" font-family="Helvetica,sans-Serif" font-size="10.00">Arcane::Materials::</text>
<text text-anchor="middle" x="342.5" y="-7" font-family="Helvetica,sans-Serif" font-size="10.00">MeshMaterialMng::createEnvironment</text>
</a>
</g>
</g>
<!-- Node7&#45;&gt;Node8 -->
<g id="edge7_Node000007_Node000008" class="edge">
<title>Node7&#45;&gt;Node8</title>
<g id="a_edge7_Node000007_Node000008"><a xlink:title=" ">
<path fill="none" stroke="#63b8ff" d="M473.38,-15C463.67,-15 453.83,-15 444.14,-15"/>
<polygon fill="#63b8ff" stroke="#63b8ff" points="473.44,-18.5 483.44,-15 473.44,-11.5 473.44,-18.5"/>
</a>
</g>
</g>
<!-- Node9 -->
<g id="Node000009" class="node">
<title>Node9</title>
<g id="a_Node000009"><a xlink:href="../../d7/d43/classArcane_1_1Materials_1_1MeshMaterialMng.html#a75dbd3ebca6408093d7b34012a284dd0" target="_top" xlink:title="Recréé les infos des matériaux et milieux à partir des infos de la protection.">
<polygon fill="white" stroke="#666666" points="205,-30 0,-30 0,0 205,0 205,-30"/>
<text text-anchor="start" x="8" y="-18" font-family="Helvetica,sans-Serif" font-size="10.00">Arcane::Materials::</text>
<text text-anchor="middle" x="102.5" y="-7" font-family="Helvetica,sans-Serif" font-size="10.00">MeshMaterialMng::recreateFromDump</text>
</a>
</g>
</g>
<!-- Node8&#45;&gt;Node9 -->
<g id="edge8_Node000008_Node000009" class="edge">
<title>Node8&#45;&gt;Node9</title>
<g id="a_edge8_Node000008_Node000009"><a xlink:title=" ">
<path fill="none" stroke="#63b8ff" d="M230.91,-15C222.36,-15 213.74,-15 205.25,-15"/>
<polygon fill="#63b8ff" stroke="#63b8ff" points="230.91,-18.5 240.91,-15 230.91,-11.5 230.91,-18.5"/>
</a>
</g>
</g>
</g>
</svg>

<g id="navigator" transform="translate(0 0)" fill="#404254">
  <rect fill="#f2f5e9" fill-opacity="0.5" stroke="#606060" stroke-width=".5" x="0" y="0" width="60" height="60"/>
  <use id="zoomplus" xlink:href="#zoomPlus" x="17" y="9" onmousedown="handleZoom(evt,'in')"/>
  <use id="zoomminus" xlink:href="#zoomMin" x="42" y="9" onmousedown="handleZoom(evt,'out')"/>
  <use id="reset" xlink:href="#resetDef" x="30" y="36" onmousedown="handleReset()"/>
   <use id="arrowup" xlink:href="#arrowUp" x="0" y="0" onmousedown="handlePan(0,-1)"/>
  <use id="arrowright" xlink:href="#arrowRight" x="0" y="0" onmousedown="handlePan(1,0)"/>
  <use id="arrowdown" xlink:href="#arrowDown" x="0" y="0" onmousedown="handlePan(0,1)"/>
  <use id="arrowleft" xlink:href="#arrowLeft" x="0" y="0" onmousedown="handlePan(-1,0)"/>
</g>
<svg viewBox="0 0 15 15" width="100%" height="30px" preserveAspectRatio="xMaxYMin meet">
 <g id="arrow_out" transform="scale(0.3 0.3)">
  <a xlink:href="classArcane_1_1ItemGroup_a9c2095715fdde3ace95754bbee4d392c_icgraph_org.svg" target="_base">
   <rect id="button" ry="5" rx="5" y="6" x="6" height="38" width="38"
        fill="#f2f5e9" fill-opacity="0.5" stroke="#606060" stroke-width="1.0"/>
   <path id="arrow"
     d="M 11.500037,31.436501 C 11.940474,20.09759 22.043105,11.32322 32.158766,21.979434 L 37.068811,17.246167 C 37.068811,17.246167 37.088388,32 37.088388,32 L 22.160133,31.978069 C 22.160133,31.978069 26.997745,27.140456 26.997745,27.140456 C 18.528582,18.264221 13.291696,25.230495 11.500037,31.436501 z"
     style="fill:#404040;"/>
  </a>
 </g>
</svg>

<style type='text/css'>
<![CDATA[
[data-mouse-over-selected='false'] { opacity: 0.7; }
[data-mouse-over-selected='true']  { opacity: 1.0; }
]]>
</style>
<script type="application/ecmascript"><![CDATA[
document.addEventListener('DOMContentLoaded', (event) => {
  highlightEdges();
  highlightAdjacentNodes();
});
]]></script>
</svg>
