<?xml version="1.0" encoding="UTF-8" standalone="no"?>
<!DOCTYPE svg PUBLIC "-//W3C//DTD SVG 1.1//EN"
 "http://www.w3.org/Graphics/SVG/1.1/DTD/svg11.dtd">
<!-- Generated by graphviz version 2.43.0 (0)
 -->
<!-- Title: Arcane::ItemGroup::setItems Pages: 1 -->
<svg width="885pt" height="238pt"
 viewBox="0.00 0.00 885.00 238.00" xmlns="http://www.w3.org/2000/svg" xmlns:xlink="http://www.w3.org/1999/xlink">
<g id="graph0" class="graph" transform="scale(1 1) rotate(0) translate(4 234)">
<title>Arcane::ItemGroup::setItems</title>
<!-- Node1 -->
<g id="Node000001" class="node">
<title>Node1</title>
<g id="a_Node000001"><a xlink:title="Positionne les entités du groupe.">
<polygon fill="#999999" stroke="#666666" points="877,-139 763,-139 763,-109 877,-109 877,-139"/>
<text text-anchor="start" x="771" y="-127" font-family="Helvetica,sans-Serif" font-size="10.00">Arcane::ItemGroup::</text>
<text text-anchor="middle" x="820" y="-116" font-family="Helvetica,sans-Serif" font-size="10.00">setItems</text>
</a>
</g>
</g>
<!-- Node2 -->
<g id="Node000002" class="node">
<title>Node2</title>
<g id="a_Node000002"><a xlink:href="../../db/dbe/classArcane_1_1FaceDirectionMng.html#ac90c8b2cf79dc84f6974decb1338e298" target="_top" xlink:title=" ">
<polygon fill="white" stroke="#666666" points="712,-230 569,-230 569,-200 712,-200 712,-230"/>
<text text-anchor="start" x="577" y="-218" font-family="Helvetica,sans-Serif" font-size="10.00">Arcane::FaceDirectionMng</text>
<text text-anchor="middle" x="640.5" y="-207" font-family="Helvetica,sans-Serif" font-size="10.00">::_internalComputeInfos</text>
</a>
</g>
</g>
<!-- Node1&#45;&gt;Node2 -->
<g id="edge1_Node000001_Node000002" class="edge">
<title>Node1&#45;&gt;Node2</title>
<g id="a_edge1_Node000001_Node000002"><a xlink:title=" ">
<path fill="none" stroke="#63b8ff" d="M794.16,-145.88C776.48,-160.47 751.6,-179.07 727,-191 720.06,-194.36 712.58,-197.33 705.02,-199.92"/>
<polygon fill="#63b8ff" stroke="#63b8ff" points="796.82,-148.21 802.22,-139.1 792.32,-142.86 796.82,-148.21"/>
</a>
</g>
</g>
<!-- Node3 -->
<g id="Node000003" class="node">
<title>Node3</title>
<g id="a_Node000003"><a xlink:href="../../db/dbe/classArcane_1_1FaceDirectionMng.html#a399dbb32541ad0f73512c20a87844496" target="_top" xlink:title="Calcule les informations sur les faces associées aux mailles de la direction cell_dm....">
<polygon fill="white" stroke="#666666" points="712,-182 569,-182 569,-152 712,-152 712,-182"/>
<text text-anchor="start" x="577" y="-170" font-family="Helvetica,sans-Serif" font-size="10.00">Arcane::FaceDirectionMng</text>
<text text-anchor="middle" x="640.5" y="-159" font-family="Helvetica,sans-Serif" font-size="10.00">::_internalComputeInfos</text>
</a>
</g>
</g>
<!-- Node1&#45;&gt;Node3 -->
<g id="edge2_Node000001_Node000003" class="edge">
<title>Node1&#45;&gt;Node3</title>
<g id="a_edge2_Node000001_Node000003"><a xlink:title=" ">
<path fill="none" stroke="#63b8ff" d="M752.92,-140.01C736.72,-143.93 719.45,-148.12 703.46,-151.99"/>
<polygon fill="#63b8ff" stroke="#63b8ff" points="753.94,-143.36 762.84,-137.61 752.29,-136.56 753.94,-143.36"/>
</a>
</g>
</g>
<!-- Node4 -->
<g id="Node000004" class="node">
<title>Node4</title>
<g id="a_Node000004"><a xlink:href="../../d5/da5/classItemGroupBuilder.html#a6f97d0dd393eff5734d30cfd33547866" target="_top" xlink:title="Constructeur du nouveau group.">
<polygon fill="white" stroke="#666666" points="721.5,-133.5 559.5,-133.5 559.5,-114.5 721.5,-114.5 721.5,-133.5"/>
<text text-anchor="middle" x="640.5" y="-121.5" font-family="Helvetica,sans-Serif" font-size="10.00">ItemGroupBuilder::buildGroup</text>
</a>
</g>
</g>
<!-- Node1&#45;&gt;Node4 -->
<g id="edge3_Node000001_Node000004" class="edge">
<title>Node1&#45;&gt;Node4</title>
<g id="a_edge3_Node000001_Node000004"><a xlink:title=" ">
<path fill="none" stroke="#63b8ff" d="M752.83,-124C742.65,-124 732.05,-124 721.62,-124"/>
<polygon fill="#63b8ff" stroke="#63b8ff" points="752.84,-127.5 762.84,-124 752.84,-120.5 752.84,-127.5"/>
</a>
</g>
</g>
<!-- Node5 -->
<g id="Node000005" class="node">
<title>Node5</title>
<g id="a_Node000005"><a xlink:href="../../d8/d0f/classArcane_1_1mesh_1_1ItemFamily.html#a4aa5e9875ca3da540881930dce8da851" target="_top" xlink:title="Créé un groupe d&#39;entités de nom name contenant les entités local_ids.">
<polygon fill="white" stroke="#666666" points="712.5,-78 568.5,-78 568.5,-48 712.5,-48 712.5,-78"/>
<text text-anchor="start" x="576.5" y="-66" font-family="Helvetica,sans-Serif" font-size="10.00">Arcane::mesh::ItemFamily</text>
<text text-anchor="middle" x="640.5" y="-55" font-family="Helvetica,sans-Serif" font-size="10.00">::createGroup</text>
</a>
</g>
</g>
<!-- Node1&#45;&gt;Node5 -->
<g id="edge4_Node000001_Node000005" class="edge">
<title>Node1&#45;&gt;Node5</title>
<g id="a_edge4_Node000001_Node000005"><a xlink:title=" ">
<path fill="none" stroke="#63b8ff" d="M765.53,-105.63C739.85,-96.8 709.45,-86.35 685.18,-78.01"/>
<polygon fill="#63b8ff" stroke="#63b8ff" points="764.53,-108.98 775.12,-108.92 766.8,-102.36 764.53,-108.98"/>
</a>
</g>
</g>
<!-- Node10 -->
<g id="Node000010" class="node">
<title>Node10</title>
<g id="a_Node000010"><a xlink:href="../../df/d08/classArcane_1_1ItemGroupsSynchronize.html#ab3de7a0c57010cbf0963e5cdfc12623c" target="_top" xlink:title="Synchronise les groupes.">
<polygon fill="white" stroke="#666666" points="727,-30 554,-30 554,0 727,0 727,-30"/>
<text text-anchor="start" x="562" y="-18" font-family="Helvetica,sans-Serif" font-size="10.00">Arcane::ItemGroupsSynchronize</text>
<text text-anchor="middle" x="640.5" y="-7" font-family="Helvetica,sans-Serif" font-size="10.00">::synchronize</text>
</a>
</g>
</g>
<!-- Node1&#45;&gt;Node10 -->
<g id="edge10_Node000001_Node000010" class="edge">
<title>Node1&#45;&gt;Node10</title>
<g id="a_edge10_Node000001_Node000010"><a xlink:title=" ">
<path fill="none" stroke="#63b8ff" d="M799.86,-101.06C782.65,-81.85 755.73,-55.06 727,-39 720.94,-35.61 714.38,-32.68 707.66,-30.14"/>
<polygon fill="#63b8ff" stroke="#63b8ff" points="797.39,-103.56 806.61,-108.78 802.66,-98.95 797.39,-103.56"/>
</a>
</g>
</g>
<!-- Node5&#45;&gt;Node5 -->
<g id="edge8_Node000005_Node000005" class="edge">
<title>Node5&#45;&gt;Node5</title>
<g id="a_edge8_Node000005_Node000005"><a xlink:title=" ">
<path fill="none" stroke="#63b8ff" d="M671.66,-88.6C667.4,-92.97 657.01,-96 640.5,-96 612.69,-96 602.26,-87.41 609.21,-78.28"/>
<polygon fill="#63b8ff" stroke="#63b8ff" points="675.16,-88.32 671.79,-78.28 668.16,-88.23 675.16,-88.32"/>
</a>
</g>
</g>
<!-- Node6 -->
<g id="Node000006" class="node">
<title>Node6</title>
<g id="a_Node000006"><a xlink:href="../../d8/d0f/classArcane_1_1mesh_1_1ItemFamily.html#aa912496e0830e999ed1c5e61c9f0c84c" target="_top" xlink:title="Relit les groupes depuis une protection et les recréer si besoin.">
<polygon fill="white" stroke="#666666" points="518,-102 374,-102 374,-72 518,-72 518,-102"/>
<text text-anchor="start" x="382" y="-90" font-family="Helvetica,sans-Serif" font-size="10.00">Arcane::mesh::ItemFamily</text>
<text text-anchor="middle" x="446" y="-79" font-family="Helvetica,sans-Serif" font-size="10.00">::_readGroups</text>
</a>
</g>
</g>
<!-- Node5&#45;&gt;Node6 -->
<g id="edge5_Node000005_Node000006" class="edge">
<title>Node5&#45;&gt;Node6</title>
<g id="a_edge5_Node000005_Node000006"><a xlink:title=" ">
<path fill="none" stroke="#63b8ff" d="M558.27,-73.13C544.94,-74.79 531.22,-76.5 518.16,-78.13"/>
<polygon fill="#63b8ff" stroke="#63b8ff" points="558.88,-76.58 568.37,-71.87 558.01,-69.63 558.88,-76.58"/>
</a>
</g>
</g>
<!-- Node9 -->
<g id="Node000009" class="node">
<title>Node9</title>
<g id="a_Node000009"><a xlink:href="../../d8/d0f/classArcane_1_1mesh_1_1ItemFamily.html#a34079b2d5d098a21bd24e81cdcce29f0" target="_top" xlink:title="Recherche un groupe.">
<polygon fill="white" stroke="#666666" points="518,-54 374,-54 374,-24 518,-24 518,-54"/>
<text text-anchor="start" x="382" y="-42" font-family="Helvetica,sans-Serif" font-size="10.00">Arcane::mesh::ItemFamily</text>
<text text-anchor="middle" x="446" y="-31" font-family="Helvetica,sans-Serif" font-size="10.00">::findGroup</text>
</a>
</g>
</g>
<!-- Node5&#45;&gt;Node9 -->
<g id="edge9_Node000005_Node000009" class="edge">
<title>Node5&#45;&gt;Node9</title>
<g id="a_edge9_Node000005_Node000009"><a xlink:title=" ">
<path fill="none" stroke="#63b8ff" d="M558.27,-52.87C544.94,-51.21 531.22,-49.5 518.16,-47.87"/>
<polygon fill="#63b8ff" stroke="#63b8ff" points="558.01,-56.37 568.37,-54.13 558.88,-49.42 558.01,-56.37"/>
</a>
</g>
</g>
<!-- Node7 -->
<g id="Node000007" class="node">
<title>Node7</title>
<g id="a_Node000007"><a xlink:href="../../d8/d0f/classArcane_1_1mesh_1_1ItemFamily.html#ae942bb169f6b3d4cfcd4c640177ef9b6" target="_top" xlink:title="Relit les données à partir d&#39;une protection.">
<polygon fill="white" stroke="#666666" points="338,-102 194,-102 194,-72 338,-72 338,-102"/>
<text text-anchor="start" x="202" y="-90" font-family="Helvetica,sans-Serif" font-size="10.00">Arcane::mesh::ItemFamily</text>
<text text-anchor="middle" x="266" y="-79" font-family="Helvetica,sans-Serif" font-size="10.00">::readFromDump</text>
</a>
</g>
</g>
<!-- Node6&#45;&gt;Node7 -->
<g id="edge6_Node000006_Node000007" class="edge">
<title>Node6&#45;&gt;Node7</title>
<g id="a_edge6_Node000006_Node000007"><a xlink:title=" ">
<path fill="none" stroke="#63b8ff" d="M363.83,-87C355.21,-87 346.49,-87 338,-87"/>
<polygon fill="#63b8ff" stroke="#63b8ff" points="363.88,-90.5 373.88,-87 363.88,-83.5 363.88,-90.5"/>
</a>
</g>
</g>
<!-- Node8 -->
<g id="Node000008" class="node">
<title>Node8</title>
<g id="a_Node000008"><a xlink:href="../../d1/d3f/classArcane_1_1mesh_1_1ParticleFamily.html#ac2be2a6035666e51bba3956bad62eac4" target="_top" xlink:title="Relit les données à partir d&#39;une protection.">
<polygon fill="white" stroke="#666666" points="158,-102 0,-102 0,-72 158,-72 158,-102"/>
<text text-anchor="start" x="8" y="-90" font-family="Helvetica,sans-Serif" font-size="10.00">Arcane::mesh::ParticleFamily</text>
<text text-anchor="middle" x="79" y="-79" font-family="Helvetica,sans-Serif" font-size="10.00">::readFromDump</text>
</a>
</g>
</g>
<!-- Node7&#45;&gt;Node8 -->
<g id="edge7_Node000007_Node000008" class="edge">
<title>Node7&#45;&gt;Node8</title>
<g id="a_edge7_Node000007_Node000008"><a xlink:title=" ">
<path fill="none" stroke="#63b8ff" d="M183.58,-87C175.18,-87 166.66,-87 158.3,-87"/>
<polygon fill="#63b8ff" stroke="#63b8ff" points="183.74,-90.5 193.74,-87 183.74,-83.5 183.74,-90.5"/>
</a>
</g>
</g>
</g>
</svg>
