<?xml version="1.0" encoding="UTF-8" standalone="no"?>
<!DOCTYPE svg PUBLIC "-//W3C//DTD SVG 1.1//EN"
 "http://www.w3.org/Graphics/SVG/1.1/DTD/svg11.dtd">
<!-- Generated by graphviz version 2.43.0 (0)
 -->
<!-- Title: Arcane::ItemGroup::ItemGroup Pages: 1 -->
<svg width="714pt" height="892pt"
 viewBox="0.00 0.00 714.00 892.00" xmlns="http://www.w3.org/2000/svg" xmlns:xlink="http://www.w3.org/1999/xlink">
<g id="graph0" class="graph" transform="scale(1 1) rotate(0) translate(4 888)">
<title>Arcane::ItemGroup::ItemGroup</title>
<!-- Node1 -->
<g id="Node000001" class="node">
<title>Node1</title>
<g id="a_Node000001"><a xlink:title="Construit un groupe nul.">
<polygon fill="#999999" stroke="#666666" points="706,-452 592,-452 592,-422 706,-422 706,-452"/>
<text text-anchor="start" x="600" y="-440" font-family="Helvetica,sans-Serif" font-size="10.00">Arcane::ItemGroup::</text>
<text text-anchor="middle" x="649" y="-429" font-family="Helvetica,sans-Serif" font-size="10.00">ItemGroup</text>
</a>
</g>
</g>
<!-- Node2 -->
<g id="Node000002" class="node">
<title>Node2</title>
<g id="a_Node000002"><a xlink:href="../../d9/d27/classArcane_1_1ItemGroup.html#af455d349bc069e91407ef6f027dfdcbe" target="_top" xlink:title="AMR.">
<polygon fill="white" stroke="#666666" points="546,-884 432,-884 432,-854 546,-854 546,-884"/>
<text text-anchor="start" x="440" y="-872" font-family="Helvetica,sans-Serif" font-size="10.00">Arcane::ItemGroup::</text>
<text text-anchor="middle" x="489" y="-861" font-family="Helvetica,sans-Serif" font-size="10.00">activeCellGroup</text>
</a>
</g>
</g>
<!-- Node1&#45;&gt;Node2 -->
<g id="edge1_Node000001_Node000002" class="edge">
<title>Node1&#45;&gt;Node2</title>
<g id="a_edge1_Node000001_Node000002"><a xlink:title=" ">
<path fill="none" stroke="#63b8ff" d="M645.47,-462.24C636.98,-542 607.21,-786.83 556,-845 552.94,-848.48 549.33,-851.45 545.41,-853.99"/>
<polygon fill="#63b8ff" stroke="#63b8ff" points="648.96,-462.42 646.52,-452.11 642,-461.7 648.96,-462.42"/>
</a>
</g>
</g>
<!-- Node3 -->
<g id="Node000003" class="node">
<title>Node3</title>
<g id="a_Node000003"><a xlink:href="../../d9/d27/classArcane_1_1ItemGroup.html#a494b7627fa4d154e15ef02264b3ec509" target="_top" xlink:title="Groupe des faces actives.">
<polygon fill="white" stroke="#666666" points="546,-836 432,-836 432,-806 546,-806 546,-836"/>
<text text-anchor="start" x="440" y="-824" font-family="Helvetica,sans-Serif" font-size="10.00">Arcane::ItemGroup::</text>
<text text-anchor="middle" x="489" y="-813" font-family="Helvetica,sans-Serif" font-size="10.00">activeFaceGroup</text>
</a>
</g>
</g>
<!-- Node1&#45;&gt;Node3 -->
<g id="edge2_Node000001_Node000003" class="edge">
<title>Node1&#45;&gt;Node3</title>
<g id="a_edge2_Node000001_Node000003"><a xlink:title=" ">
<path fill="none" stroke="#63b8ff" d="M644.59,-462.61C634.32,-536.29 601.52,-746.75 556,-797 552.89,-800.43 549.25,-803.38 545.3,-805.9"/>
<polygon fill="#63b8ff" stroke="#63b8ff" points="648.1,-462.77 646,-452.39 641.17,-461.82 648.1,-462.77"/>
</a>
</g>
</g>
<!-- Node4 -->
<g id="Node000004" class="node">
<title>Node4</title>
<g id="a_Node000004"><a xlink:href="../../d9/d27/classArcane_1_1ItemGroup.html#a7216d0490f761408dc1f2b4a46ba89e2" target="_top" xlink:title="Groupe des mailles des éléments de ce groupe.">
<polygon fill="white" stroke="#666666" points="546,-788 432,-788 432,-758 546,-758 546,-788"/>
<text text-anchor="start" x="440" y="-776" font-family="Helvetica,sans-Serif" font-size="10.00">Arcane::ItemGroup::</text>
<text text-anchor="middle" x="489" y="-765" font-family="Helvetica,sans-Serif" font-size="10.00">cellGroup</text>
</a>
</g>
</g>
<!-- Node1&#45;&gt;Node4 -->
<g id="edge3_Node000001_Node000004" class="edge">
<title>Node1&#45;&gt;Node4</title>
<g id="a_edge3_Node000001_Node000004"><a xlink:title=" ">
<path fill="none" stroke="#63b8ff" d="M647.85,-462.52C646.12,-521.06 633.75,-666.27 556,-749 552.74,-752.46 548.95,-755.43 544.85,-757.97"/>
<polygon fill="#63b8ff" stroke="#63b8ff" points="651.35,-462.4 648.07,-452.33 644.36,-462.25 651.35,-462.4"/>
</a>
</g>
</g>
<!-- Node5 -->
<g id="Node000005" class="node">
<title>Node5</title>
<g id="a_Node000005"><a xlink:href="../../d9/d27/classArcane_1_1ItemGroup.html#a151de34d625028b586bafaca7bc5fdbc" target="_top" xlink:title="Crée un sous&#45;groupe calculé">
<polygon fill="white" stroke="#666666" points="546,-740 432,-740 432,-710 546,-710 546,-740"/>
<text text-anchor="start" x="440" y="-728" font-family="Helvetica,sans-Serif" font-size="10.00">Arcane::ItemGroup::</text>
<text text-anchor="middle" x="489" y="-717" font-family="Helvetica,sans-Serif" font-size="10.00">createSubGroup</text>
</a>
</g>
</g>
<!-- Node1&#45;&gt;Node5 -->
<g id="edge4_Node000001_Node000005" class="edge">
<title>Node1&#45;&gt;Node5</title>
<g id="a_edge4_Node000001_Node000005"><a xlink:title=" ">
<path fill="none" stroke="#63b8ff" d="M646.26,-462.14C641.35,-513.87 622.99,-633.1 556,-701 552.57,-704.47 548.61,-707.44 544.35,-709.99"/>
<polygon fill="#63b8ff" stroke="#63b8ff" points="649.75,-462.42 647.11,-452.16 642.77,-461.83 649.75,-462.42"/>
</a>
</g>
</g>
<!-- Node6 -->
<g id="Node000006" class="node">
<title>Node6</title>
<g id="a_Node000006"><a xlink:href="../../d9/d27/classArcane_1_1ItemGroup.html#aaa9247d439fb49cf0c1d9daf6878c8af" target="_top" xlink:title="Groupe des arêtes des éléments de ce groupe.">
<polygon fill="white" stroke="#666666" points="546,-692 432,-692 432,-662 546,-662 546,-692"/>
<text text-anchor="start" x="440" y="-680" font-family="Helvetica,sans-Serif" font-size="10.00">Arcane::ItemGroup::</text>
<text text-anchor="middle" x="489" y="-669" font-family="Helvetica,sans-Serif" font-size="10.00">edgeGroup</text>
</a>
</g>
</g>
<!-- Node1&#45;&gt;Node6 -->
<g id="edge5_Node000001_Node000006" class="edge">
<title>Node1&#45;&gt;Node6</title>
<g id="a_edge5_Node000001_Node000006"><a xlink:title=" ">
<path fill="none" stroke="#63b8ff" d="M644,-462.15C635.63,-506.7 612.17,-599.78 556,-653 552.37,-656.44 548.21,-659.39 543.79,-661.92"/>
<polygon fill="#63b8ff" stroke="#63b8ff" points="647.47,-462.63 645.77,-452.17 640.58,-461.41 647.47,-462.63"/>
</a>
</g>
</g>
<!-- Node7 -->
<g id="Node000007" class="node">
<title>Node7</title>
<g id="a_Node000007"><a xlink:href="../../d9/d27/classArcane_1_1ItemGroup.html#a362b6a51385bdbb48f6a11d2ff15e742" target="_top" xlink:title="Groupe des faces des éléments de ce groupe.">
<polygon fill="white" stroke="#666666" points="546,-644 432,-644 432,-614 546,-614 546,-644"/>
<text text-anchor="start" x="440" y="-632" font-family="Helvetica,sans-Serif" font-size="10.00">Arcane::ItemGroup::</text>
<text text-anchor="middle" x="489" y="-621" font-family="Helvetica,sans-Serif" font-size="10.00">faceGroup</text>
</a>
</g>
</g>
<!-- Node1&#45;&gt;Node7 -->
<g id="edge6_Node000001_Node000007" class="edge">
<title>Node1&#45;&gt;Node7</title>
<g id="a_edge6_Node000001_Node000007"><a xlink:title=" ">
<path fill="none" stroke="#63b8ff" d="M640.54,-462.19C628.52,-498.64 601.47,-565.97 556,-605 552.02,-608.41 547.52,-611.36 542.78,-613.9"/>
<polygon fill="#63b8ff" stroke="#63b8ff" points="643.97,-462.95 643.67,-452.36 637.3,-460.83 643.97,-462.95"/>
</a>
</g>
</g>
<!-- Node8 -->
<g id="Node000008" class="node">
<title>Node8</title>
<g id="a_Node000008"><a xlink:href="../../d9/d27/classArcane_1_1ItemGroup.html#a14cceb1ddd024ca9a519013409bab763" target="_top" xlink:title="Accès à un sous&#45;groupe.">
<polygon fill="white" stroke="#666666" points="546,-596 432,-596 432,-566 546,-566 546,-596"/>
<text text-anchor="start" x="440" y="-584" font-family="Helvetica,sans-Serif" font-size="10.00">Arcane::ItemGroup::</text>
<text text-anchor="middle" x="489" y="-573" font-family="Helvetica,sans-Serif" font-size="10.00">findSubGroup</text>
</a>
</g>
</g>
<!-- Node1&#45;&gt;Node8 -->
<g id="edge7_Node000001_Node000008" class="edge">
<title>Node1&#45;&gt;Node8</title>
<g id="a_edge7_Node000001_Node000008"><a xlink:title=" ">
<path fill="none" stroke="#63b8ff" d="M635.27,-460.89C619.83,-487.76 591.41,-531.03 556,-557 551.38,-560.39 546.23,-563.34 540.9,-565.91"/>
<polygon fill="#63b8ff" stroke="#63b8ff" points="638.35,-462.56 640.18,-452.13 632.24,-459.14 638.35,-462.56"/>
</a>
</g>
</g>
<!-- Node9 -->
<g id="Node000009" class="node">
<title>Node9</title>
<g id="a_Node000009"><a xlink:href="../../d9/d27/classArcane_1_1ItemGroup.html#a4b061d4b6c7f09731d71fa7582e1e069" target="_top" xlink:title="Groupe des faces internes des éléments de ce groupe.">
<polygon fill="white" stroke="#666666" points="550.5,-548 427.5,-548 427.5,-518 550.5,-518 550.5,-548"/>
<text text-anchor="start" x="435.5" y="-536" font-family="Helvetica,sans-Serif" font-size="10.00">Arcane::ItemGroup::</text>
<text text-anchor="middle" x="489" y="-525" font-family="Helvetica,sans-Serif" font-size="10.00">innerActiveFaceGroup</text>
</a>
</g>
</g>
<!-- Node1&#45;&gt;Node9 -->
<g id="edge8_Node000001_Node000009" class="edge">
<title>Node1&#45;&gt;Node9</title>
<g id="a_edge8_Node000001_Node000009"><a xlink:title=" ">
<path fill="none" stroke="#63b8ff" d="M624.26,-459.02C606.5,-474.59 581.07,-495.09 556,-509 550.14,-512.25 543.74,-515.22 537.32,-517.86"/>
<polygon fill="#63b8ff" stroke="#63b8ff" points="626.71,-461.52 631.84,-452.25 622.05,-456.3 626.71,-461.52"/>
</a>
</g>
</g>
<!-- Node10 -->
<g id="Node000010" class="node">
<title>Node10</title>
<g id="a_Node000010"><a xlink:href="../../d9/d27/classArcane_1_1ItemGroup.html#a906fe3c2f80fb046b216836baf251018" target="_top" xlink:title="Groupe des faces internes des éléments de ce groupe.">
<polygon fill="white" stroke="#666666" points="546,-500 432,-500 432,-470 546,-470 546,-500"/>
<text text-anchor="start" x="440" y="-488" font-family="Helvetica,sans-Serif" font-size="10.00">Arcane::ItemGroup::</text>
<text text-anchor="middle" x="489" y="-477" font-family="Helvetica,sans-Serif" font-size="10.00">innerFaceGroup</text>
</a>
</g>
</g>
<!-- Node1&#45;&gt;Node10 -->
<g id="edge9_Node000001_Node000010" class="edge">
<title>Node1&#45;&gt;Node10</title>
<g id="a_edge9_Node000001_Node000010"><a xlink:title=" ">
<path fill="none" stroke="#63b8ff" d="M588.53,-455.07C572.33,-459.99 554.96,-465.27 539.38,-470"/>
<polygon fill="#63b8ff" stroke="#63b8ff" points="589.89,-458.31 598.44,-452.06 587.86,-451.61 589.89,-458.31"/>
</a>
</g>
</g>
<!-- Node11 -->
<g id="Node000011" class="node">
<title>Node11</title>
<g id="a_Node000011"><a xlink:href="../../d9/d27/classArcane_1_1ItemGroup.html#a75a9c8e5ed94578941e024fb923c76ff" target="_top" xlink:title="Construit une référence au groupe from.">
<polygon fill="white" stroke="#666666" points="546,-452 432,-452 432,-422 546,-422 546,-452"/>
<text text-anchor="start" x="440" y="-440" font-family="Helvetica,sans-Serif" font-size="10.00">Arcane::ItemGroup::</text>
<text text-anchor="middle" x="489" y="-429" font-family="Helvetica,sans-Serif" font-size="10.00">ItemGroup</text>
</a>
</g>
</g>
<!-- Node1&#45;&gt;Node11 -->
<g id="edge10_Node000001_Node000011" class="edge">
<title>Node1&#45;&gt;Node11</title>
<g id="a_edge10_Node000001_Node000011"><a xlink:title=" ">
<path fill="none" stroke="#63b8ff" d="M581.63,-437C569.85,-437 557.7,-437 546.23,-437"/>
<polygon fill="#63b8ff" stroke="#63b8ff" points="581.85,-440.5 591.85,-437 581.85,-433.5 581.85,-440.5"/>
</a>
</g>
</g>
<!-- Node12 -->
<g id="Node000012" class="node">
<title>Node12</title>
<g id="a_Node000012"><a xlink:href="../../d9/d27/classArcane_1_1ItemGroup.html#a7c2d7ec5eb4791c246002bdb074cad2f" target="_top" xlink:title="Groupe des mailles de niveau l des éléments de ce groupe.">
<polygon fill="white" stroke="#666666" points="546,-404 432,-404 432,-374 546,-374 546,-404"/>
<text text-anchor="start" x="440" y="-392" font-family="Helvetica,sans-Serif" font-size="10.00">Arcane::ItemGroup::</text>
<text text-anchor="middle" x="489" y="-381" font-family="Helvetica,sans-Serif" font-size="10.00">levelCellGroup</text>
</a>
</g>
</g>
<!-- Node1&#45;&gt;Node12 -->
<g id="edge11_Node000001_Node000012" class="edge">
<title>Node1&#45;&gt;Node12</title>
<g id="a_edge11_Node000001_Node000012"><a xlink:title=" ">
<path fill="none" stroke="#63b8ff" d="M588.53,-418.93C572.33,-414.01 554.96,-408.73 539.38,-404"/>
<polygon fill="#63b8ff" stroke="#63b8ff" points="587.86,-422.39 598.44,-421.94 589.89,-415.69 587.86,-422.39"/>
</a>
</g>
</g>
<!-- Node13 -->
<g id="Node000013" class="node">
<title>Node13</title>
<g id="a_Node000013"><a xlink:href="../../d9/d27/classArcane_1_1ItemGroup.html#a309a24c0dbcec0e0cba484db2c8a06f9" target="_top" xlink:title="Groupe des noeuds des éléments de ce groupe.">
<polygon fill="white" stroke="#666666" points="546,-356 432,-356 432,-326 546,-326 546,-356"/>
<text text-anchor="start" x="440" y="-344" font-family="Helvetica,sans-Serif" font-size="10.00">Arcane::ItemGroup::</text>
<text text-anchor="middle" x="489" y="-333" font-family="Helvetica,sans-Serif" font-size="10.00">nodeGroup</text>
</a>
</g>
</g>
<!-- Node1&#45;&gt;Node13 -->
<g id="edge12_Node000001_Node000013" class="edge">
<title>Node1&#45;&gt;Node13</title>
<g id="a_edge12_Node000001_Node000013"><a xlink:title=" ">
<path fill="none" stroke="#63b8ff" d="M624.26,-414.98C606.5,-399.41 581.07,-378.91 556,-365 550.14,-361.75 543.74,-358.78 537.32,-356.14"/>
<polygon fill="#63b8ff" stroke="#63b8ff" points="622.05,-417.7 631.84,-421.75 626.71,-412.48 622.05,-417.7"/>
</a>
</g>
</g>
<!-- Node14 -->
<g id="Node000014" class="node">
<title>Node14</title>
<g id="a_Node000014"><a xlink:href="../../d9/d27/classArcane_1_1ItemGroup.html#a4e8541874b8699f38569f37ac48f3c23" target="_top" xlink:title="Affecte à cette instance une référence au groupe from.">
<polygon fill="white" stroke="#666666" points="546,-308 432,-308 432,-278 546,-278 546,-308"/>
<text text-anchor="start" x="440" y="-296" font-family="Helvetica,sans-Serif" font-size="10.00">Arcane::ItemGroup::</text>
<text text-anchor="middle" x="489" y="-285" font-family="Helvetica,sans-Serif" font-size="10.00">operator=</text>
</a>
</g>
</g>
<!-- Node1&#45;&gt;Node14 -->
<g id="edge13_Node000001_Node000014" class="edge">
<title>Node1&#45;&gt;Node14</title>
<g id="a_edge13_Node000001_Node000014"><a xlink:title=" ">
<path fill="none" stroke="#63b8ff" d="M635.27,-413.11C619.83,-386.24 591.41,-342.97 556,-317 551.38,-313.61 546.23,-310.66 540.9,-308.09"/>
<polygon fill="#63b8ff" stroke="#63b8ff" points="632.24,-414.86 640.18,-421.87 638.35,-411.44 632.24,-414.86"/>
</a>
</g>
</g>
<!-- Node15 -->
<g id="Node000015" class="node">
<title>Node15</title>
<g id="a_Node000015"><a xlink:href="../../d9/d27/classArcane_1_1ItemGroup.html#ae3f6f260ce2014b03b8408a0afdb4d3f" target="_top" xlink:title="Groupe des faces externes actives des éléments de ce groupe.">
<polygon fill="white" stroke="#666666" points="551,-260 427,-260 427,-230 551,-230 551,-260"/>
<text text-anchor="start" x="435" y="-248" font-family="Helvetica,sans-Serif" font-size="10.00">Arcane::ItemGroup::</text>
<text text-anchor="middle" x="489" y="-237" font-family="Helvetica,sans-Serif" font-size="10.00">outerActiveFaceGroup</text>
</a>
</g>
</g>
<!-- Node1&#45;&gt;Node15 -->
<g id="edge14_Node000001_Node000015" class="edge">
<title>Node1&#45;&gt;Node15</title>
<g id="a_edge14_Node000001_Node000015"><a xlink:title=" ">
<path fill="none" stroke="#63b8ff" d="M640.54,-411.81C628.52,-375.36 601.47,-308.03 556,-269 552.02,-265.59 547.52,-262.64 542.78,-260.1"/>
<polygon fill="#63b8ff" stroke="#63b8ff" points="637.3,-413.17 643.67,-421.64 643.97,-411.05 637.3,-413.17"/>
</a>
</g>
</g>
<!-- Node16 -->
<g id="Node000016" class="node">
<title>Node16</title>
<g id="a_Node000016"><a xlink:href="../../d9/d27/classArcane_1_1ItemGroup.html#af5f7b9412413474f775ab2ab2fccaf9c" target="_top" xlink:title="Groupe des faces externes des éléments de ce groupe.">
<polygon fill="white" stroke="#666666" points="546,-212 432,-212 432,-182 546,-182 546,-212"/>
<text text-anchor="start" x="440" y="-200" font-family="Helvetica,sans-Serif" font-size="10.00">Arcane::ItemGroup::</text>
<text text-anchor="middle" x="489" y="-189" font-family="Helvetica,sans-Serif" font-size="10.00">outerFaceGroup</text>
</a>
</g>
</g>
<!-- Node1&#45;&gt;Node16 -->
<g id="edge15_Node000001_Node000016" class="edge">
<title>Node1&#45;&gt;Node16</title>
<g id="a_edge15_Node000001_Node000016"><a xlink:title=" ">
<path fill="none" stroke="#63b8ff" d="M644,-411.85C635.63,-367.3 612.17,-274.22 556,-221 552.37,-217.56 548.21,-214.61 543.79,-212.08"/>
<polygon fill="#63b8ff" stroke="#63b8ff" points="640.58,-412.59 645.77,-421.83 647.47,-411.37 640.58,-412.59"/>
</a>
</g>
</g>
<!-- Node17 -->
<g id="Node000017" class="node">
<title>Node17</title>
<g id="a_Node000017"><a xlink:href="../../d9/d27/classArcane_1_1ItemGroup.html#aed729c7e255d2f11fdb5e597662c25d9" target="_top" xlink:title="Groupe équivalent à celui&#45;ci mais contenant uniquement les éléments propres au sous&#45;domaine.">
<polygon fill="white" stroke="#666666" points="556,-163.5 422,-163.5 422,-144.5 556,-144.5 556,-163.5"/>
<text text-anchor="middle" x="489" y="-151.5" font-family="Helvetica,sans-Serif" font-size="10.00">Arcane::ItemGroup::own</text>
</a>
</g>
</g>
<!-- Node1&#45;&gt;Node17 -->
<g id="edge16_Node000001_Node000017" class="edge">
<title>Node1&#45;&gt;Node17</title>
<g id="a_edge16_Node000001_Node000017"><a xlink:title=" ">
<path fill="none" stroke="#63b8ff" d="M646.66,-411.86C642.49,-359.62 625.44,-238.72 556,-173 551.93,-169.15 547.13,-166.07 542,-163.61"/>
<polygon fill="#63b8ff" stroke="#63b8ff" points="643.17,-412.19 647.37,-421.92 650.16,-411.7 643.17,-412.19"/>
</a>
</g>
</g>
<!-- Node24 -->
<g id="Node000024" class="node">
<title>Node24</title>
<g id="a_Node000024"><a xlink:href="../../d9/d27/classArcane_1_1ItemGroup.html#ab45ed667f553d3262af4df2e5cff82a2" target="_top" xlink:title="Groupe des mailles propres actives des éléments de ce groupe.">
<polygon fill="white" stroke="#666666" points="547,-126 431,-126 431,-96 547,-96 547,-126"/>
<text text-anchor="start" x="439" y="-114" font-family="Helvetica,sans-Serif" font-size="10.00">Arcane::ItemGroup::</text>
<text text-anchor="middle" x="489" y="-103" font-family="Helvetica,sans-Serif" font-size="10.00">ownActiveCellGroup</text>
</a>
</g>
</g>
<!-- Node1&#45;&gt;Node24 -->
<g id="edge23_Node000001_Node000024" class="edge">
<title>Node1&#45;&gt;Node24</title>
<g id="a_edge23_Node000001_Node000024"><a xlink:title=" ">
<path fill="none" stroke="#63b8ff" d="M647.45,-411.68C644.86,-354.83 630.77,-215.83 556,-136 552.4,-132.15 548.14,-128.9 543.56,-126.13"/>
<polygon fill="#63b8ff" stroke="#63b8ff" points="643.96,-412.04 647.83,-421.91 650.96,-411.78 643.96,-412.04"/>
</a>
</g>
</g>
<!-- Node25 -->
<g id="Node000025" class="node">
<title>Node25</title>
<g id="a_Node000025"><a xlink:href="../../d9/d27/classArcane_1_1ItemGroup.html#a6c793d347e1b211ef8e866f9b13941ab" target="_top" xlink:title="Groupe des faces actives propres au domaine des éléments de ce groupe.">
<polygon fill="white" stroke="#666666" points="548.5,-78 429.5,-78 429.5,-48 548.5,-48 548.5,-78"/>
<text text-anchor="start" x="437.5" y="-66" font-family="Helvetica,sans-Serif" font-size="10.00">Arcane::ItemGroup::</text>
<text text-anchor="middle" x="489" y="-55" font-family="Helvetica,sans-Serif" font-size="10.00">ownActiveFaceGroup</text>
</a>
</g>
</g>
<!-- Node1&#45;&gt;Node25 -->
<g id="edge24_Node000001_Node000025" class="edge">
<title>Node1&#45;&gt;Node25</title>
<g id="a_edge24_Node000001_Node000025"><a xlink:title=" ">
<path fill="none" stroke="#63b8ff" d="M648.84,-411.49C649.53,-348.11 642.48,-181.8 556,-87 552.88,-83.58 549.23,-80.64 545.28,-78.12"/>
<polygon fill="#63b8ff" stroke="#63b8ff" points="645.34,-411.69 648.65,-421.75 652.34,-411.82 645.34,-411.69"/>
</a>
</g>
</g>
<!-- Node26 -->
<g id="Node000026" class="node">
<title>Node26</title>
<g id="a_Node000026"><a xlink:href="../../d9/d27/classArcane_1_1ItemGroup.html#ac49f6f0cee69531a7a74844128a827f5" target="_top" xlink:title="Groupe des mailles propres de niveau l des éléments de ce groupe.">
<polygon fill="white" stroke="#666666" points="546,-30 432,-30 432,0 546,0 546,-30"/>
<text text-anchor="start" x="440" y="-18" font-family="Helvetica,sans-Serif" font-size="10.00">Arcane::ItemGroup::</text>
<text text-anchor="middle" x="489" y="-7" font-family="Helvetica,sans-Serif" font-size="10.00">ownLevelCellGroup</text>
</a>
</g>
</g>
<!-- Node1&#45;&gt;Node26 -->
<g id="edge25_Node000001_Node000026" class="edge">
<title>Node1&#45;&gt;Node26</title>
<g id="a_edge25_Node000001_Node000026"><a xlink:title=" ">
<path fill="none" stroke="#63b8ff" d="M645.32,-411.85C636.5,-333.49 606.06,-95.55 556,-39 552.93,-35.53 549.32,-32.56 545.39,-30.02"/>
<polygon fill="#63b8ff" stroke="#63b8ff" points="641.84,-412.26 646.42,-421.82 648.8,-411.49 641.84,-412.26"/>
</a>
</g>
</g>
<!-- Node18 -->
<g id="Node000018" class="node">
<title>Node18</title>
<g id="a_Node000018"><a xlink:href="../../d5/de2/classArcane_1_1DumpWEnsight7.html#ac00b01de8c1a4c5ebcec330f90ec5e6a" target="_top" xlink:title="Récupère un groupe d&#39;un type donné et ses informations.">
<polygon fill="white" stroke="#666666" points="363.5,-265 226.5,-265 226.5,-235 363.5,-235 363.5,-265"/>
<text text-anchor="start" x="234.5" y="-253" font-family="Helvetica,sans-Serif" font-size="10.00">Arcane::DumpWEnsight7</text>
<text text-anchor="middle" x="295" y="-242" font-family="Helvetica,sans-Serif" font-size="10.00">::_computeGroupParts</text>
</a>
</g>
</g>
<!-- Node17&#45;&gt;Node18 -->
<g id="edge17_Node000017_Node000018" class="edge">
<title>Node17&#45;&gt;Node18</title>
<g id="a_edge17_Node000017_Node000018"><a xlink:title=" ">
<path fill="none" stroke="#63b8ff" d="M430.47,-167.79C427.5,-169.35 424.65,-171.08 422,-173 398.94,-189.71 409.22,-209.52 386,-226 379.28,-230.77 371.66,-234.6 363.77,-237.66"/>
<polygon fill="#63b8ff" stroke="#63b8ff" points="431.99,-170.94 439.65,-163.63 429.1,-164.57 431.99,-170.94"/>
</a>
</g>
</g>
<!-- Node19 -->
<g id="Node000019" class="node">
<title>Node19</title>
<g id="a_Node000019"><a xlink:href="../../da/dd4/classArcane_1_1UnstructuredMeshUtilities.html#adaf0c3e32a5c108cb93e7b433caaab89" target="_top" xlink:title="Positionne les nouveaux propriétaires des noeuds, arêtes et faces à partir des mailles.">
<polygon fill="white" stroke="#666666" points="386,-217 204,-217 204,-187 386,-187 386,-217"/>
<text text-anchor="start" x="212" y="-205" font-family="Helvetica,sans-Serif" font-size="10.00">Arcane::UnstructuredMesh</text>
<text text-anchor="middle" x="295" y="-194" font-family="Helvetica,sans-Serif" font-size="10.00">Utilities::changeOwnersFromCells</text>
</a>
</g>
</g>
<!-- Node17&#45;&gt;Node19 -->
<g id="edge18_Node000017_Node000019" class="edge">
<title>Node17&#45;&gt;Node19</title>
<g id="a_edge18_Node000017_Node000019"><a xlink:title=" ">
<path fill="none" stroke="#63b8ff" d="M439.86,-166.04C414.51,-172.37 383.19,-180.2 356.25,-186.94"/>
<polygon fill="#63b8ff" stroke="#63b8ff" points="440.75,-169.42 449.61,-163.6 439.06,-162.63 440.75,-169.42"/>
</a>
</g>
</g>
<!-- Node21 -->
<g id="Node000021" class="node">
<title>Node21</title>
<g id="a_Node000021"><a xlink:href="../../dc/de8/MeshUtils_8h.html#a94149358cfe8d428f0579626a3aaa153" target="_top" xlink:title="Vérifie le hash des uniqueId() des entités d&#39;une famille.">
<polygon fill="white" stroke="#666666" points="378.5,-169 211.5,-169 211.5,-139 378.5,-139 378.5,-169"/>
<text text-anchor="start" x="219.5" y="-157" font-family="Helvetica,sans-Serif" font-size="10.00">Arcane::MeshUtils::</text>
<text text-anchor="middle" x="295" y="-146" font-family="Helvetica,sans-Serif" font-size="10.00">checkUniqueIdsHashCollective</text>
</a>
</g>
</g>
<!-- Node17&#45;&gt;Node21 -->
<g id="edge20_Node000017_Node000021" class="edge">
<title>Node17&#45;&gt;Node21</title>
<g id="a_edge20_Node000017_Node000021"><a xlink:title=" ">
<path fill="none" stroke="#63b8ff" d="M411.69,-154C400.89,-154 389.74,-154 378.82,-154"/>
<polygon fill="#63b8ff" stroke="#63b8ff" points="411.92,-157.5 421.92,-154 411.92,-150.5 411.92,-157.5"/>
</a>
</g>
</g>
<!-- Node22 -->
<g id="Node000022" class="node">
<title>Node22</title>
<g id="a_Node000022"><a xlink:href="../../d2/d22/classArcane_1_1Hdf5VariableInfoBase.html#a664070ea725b40650172a870c8580cbf" target="_top" xlink:title=" ">
<polygon fill="white" stroke="#666666" points="364,-121 226,-121 226,-91 364,-91 364,-121"/>
<text text-anchor="start" x="234" y="-109" font-family="Helvetica,sans-Serif" font-size="10.00">Arcane::Hdf5VariableInfo</text>
<text text-anchor="middle" x="295" y="-98" font-family="Helvetica,sans-Serif" font-size="10.00">Base::writeGroup</text>
</a>
</g>
</g>
<!-- Node17&#45;&gt;Node22 -->
<g id="edge21_Node000017_Node000022" class="edge">
<title>Node17&#45;&gt;Node22</title>
<g id="a_edge21_Node000017_Node000022"><a xlink:title=" ">
<path fill="none" stroke="#63b8ff" d="M439.86,-141.96C414.51,-135.63 383.19,-127.8 356.25,-121.06"/>
<polygon fill="#63b8ff" stroke="#63b8ff" points="439.06,-145.37 449.61,-144.4 440.75,-138.58 439.06,-145.37"/>
</a>
</g>
</g>
<!-- Node23 -->
<g id="Node000023" class="node">
<title>Node23</title>
<g id="a_Node000023"><a xlink:href="../../d5/daf/classArcane_1_1Hdf5ItemVariableInfo.html#af572584bb8e73ab4c9f2f5d55449ba25" target="_top" xlink:title=" ">
<polygon fill="white" stroke="#666666" points="366,-73 224,-73 224,-43 366,-43 366,-73"/>
<text text-anchor="start" x="232" y="-61" font-family="Helvetica,sans-Serif" font-size="10.00">Arcane::Hdf5ItemVariable</text>
<text text-anchor="middle" x="295" y="-50" font-family="Helvetica,sans-Serif" font-size="10.00">Info::writeVariable</text>
</a>
</g>
</g>
<!-- Node17&#45;&gt;Node23 -->
<g id="edge22_Node000017_Node000023" class="edge">
<title>Node17&#45;&gt;Node23</title>
<g id="a_edge22_Node000017_Node000023"><a xlink:title=" ">
<path fill="none" stroke="#63b8ff" d="M430.47,-140.21C427.5,-138.65 424.65,-136.92 422,-135 398.94,-118.29 409.22,-98.48 386,-82 379.93,-77.69 373.14,-74.16 366.08,-71.26"/>
<polygon fill="#63b8ff" stroke="#63b8ff" points="429.1,-143.43 439.65,-144.37 431.99,-137.06 429.1,-143.43"/>
</a>
</g>
</g>
<!-- Node20 -->
<g id="Node000020" class="node">
<title>Node20</title>
<g id="a_Node000020"><a xlink:href="../../da/dd4/classArcane_1_1UnstructuredMeshUtilities.html#a3bcba2e202c82482feccaf008aff74fa" target="_top" xlink:title="Repartitionne et échange le maillage en gérant la réplication.">
<polygon fill="white" stroke="#666666" points="168,-222.5 0,-222.5 0,-181.5 168,-181.5 168,-222.5"/>
<text text-anchor="start" x="8" y="-210.5" font-family="Helvetica,sans-Serif" font-size="10.00">Arcane::UnstructuredMesh</text>
<text text-anchor="start" x="8" y="-199.5" font-family="Helvetica,sans-Serif" font-size="10.00">Utilities::partitionAndExchange</text>
<text text-anchor="middle" x="84" y="-188.5" font-family="Helvetica,sans-Serif" font-size="10.00">MeshWithReplication</text>
</a>
</g>
</g>
<!-- Node19&#45;&gt;Node20 -->
<g id="edge19_Node000019_Node000020" class="edge">
<title>Node19&#45;&gt;Node20</title>
<g id="a_edge19_Node000019_Node000020"><a xlink:title=" ">
<path fill="none" stroke="#63b8ff" d="M193.83,-202C185.27,-202 176.67,-202 168.26,-202"/>
<polygon fill="#63b8ff" stroke="#63b8ff" points="193.85,-205.5 203.85,-202 193.85,-198.5 193.85,-205.5"/>
</a>
</g>
</g>
</g>
</svg>
