<?xml version="1.0" encoding="UTF-8" standalone="no"?>
<!DOCTYPE svg PUBLIC "-//W3C//DTD SVG 1.1//EN"
 "http://www.w3.org/Graphics/SVG/1.1/DTD/svg11.dtd">
<!-- Generated by graphviz version 2.43.0 (0)
 -->
<!-- Title: Arcane::VtkFile::checkString Pages: 1 -->
<!--zoomable 173 -->

<svg id="main" version="1.1" xmlns="http://www.w3.org/2000/svg" xmlns:xlink="http://www.w3.org/1999/xlink" xml:space="preserve" onload="init(evt)">

<style type="text/css"><![CDATA[
.node, .edge {opacity: 0.7;}
.node.selected, .edge.selected {opacity: 1;}
.edge:hover path { stroke: red; }
.edge:hover polygon { stroke: red; fill: red; }
]]></style>

<defs>
  <circle id="rim" cx="0" cy="0" r="7"/>
  <circle id="rim2" cx="0" cy="0" r="3.5"/>
  <g id="zoomPlus">
    <use xlink:href="#rim" fill="#404040"><set attributeName="fill" to="#808080" begin="zoomplus.mouseover" end="zoomplus.mouseout"/></use>
    <path d="M-4,0h8M0,-4v8" fill="none" stroke="white" stroke-width="1.5" pointer-events="none"/>
  </g>
  <g id="zoomMin">
    <use xlink:href="#rim" fill="#404040"><set attributeName="fill" to="#808080" begin="zoomminus.mouseover" end="zoomminus.mouseout"/></use>
    <path d="M-4,0h8" fill="none" stroke="white" stroke-width="1.5" pointer-events="none"/>
  </g>
  <g id="arrowUp" transform="translate(30 24)">
    <use xlink:href="#rim"/>
    <path pointer-events="none" fill="none" stroke="white" stroke-width="1.5" d="M0,-3.0v7 M-2.5,-0.5L0,-3.0L2.5,-0.5"/>
  </g>
  <g id="arrowRight" transform="rotate(90) translate(36 -43)">
    <use xlink:href="#rim"/>
    <path pointer-events="none" fill="none" stroke="white" stroke-width="1.5" d="M0,-3.0v7 M-2.5,-0.5L0,-3.0L2.5,-0.5"/>
  </g>
  <g id="arrowDown" transform="rotate(180) translate(-30 -48)">
    <use xlink:href="#rim"/>
    <path pointer-events="none" fill="none" stroke="white" stroke-width="1.5" d="M0,-3.0v7 M-2.5,-0.5L0,-3.0L2.5,-0.5"/>
  </g>
  <g id="arrowLeft" transform="rotate(270) translate(-36 17)">
    <use xlink:href="#rim"/>
    <path pointer-events="none" fill="none" stroke="white" stroke-width="1.5" d="M0,-3.0v7 M-2.5,-0.5L0,-3.0L2.5,-0.5"/>
  </g>
  <g id="resetDef">
    <use xlink:href="#rim2" fill="#404040"><set attributeName="fill" to="#808080" begin="reset.mouseover" end="reset.mouseout"/></use>
  </g>
</defs>
<script type="application/ecmascript">
var viewWidth = 952;
var viewHeight = 173;
var sectionId = 'dynsection-2';
</script>
<script type="application/ecmascript" xlink:href="../../svg.min.js"/>
<svg id="graph" class="graph">
<g id="viewport">
<title>Arcane::VtkFile::checkString</title>
<!-- Node1 -->
<g id="Node000001" class="node">
<title>Node1</title>
<g id="a_Node000001"><a xlink:title="Permet de vérifier si expected_value == current_value.">
<polygon fill="#999999" stroke="#666666" points="944,-115.5 791,-115.5 791,-96.5 944,-96.5 944,-115.5"/>
<text text-anchor="middle" x="867.5" y="-103.5" font-family="Helvetica,sans-Serif" font-size="10.00">Arcane::VtkFile::checkString</text>
</a>
</g>
</g>
<!-- Node2 -->
<g id="Node000002" class="node">
<title>Node2</title>
<g id="a_Node000002"><a xlink:href="../../d6/d15/classArcane_1_1VtkMeshIOService.html#a723255308e85336047ada99498baaa08" target="_top" xlink:title="Lecture des mailles et de leur connectivité.">
<polygon fill="white" stroke="#666666" points="751.5,-73 594.5,-73 594.5,-43 751.5,-43 751.5,-73"/>
<text text-anchor="start" x="602.5" y="-61" font-family="Helvetica,sans-Serif" font-size="10.00">Arcane::VtkMeshIOService</text>
<text text-anchor="middle" x="673" y="-50" font-family="Helvetica,sans-Serif" font-size="10.00">::_readCellsUnstructuredGrid</text>
</a>
</g>
</g>
<!-- Node1&#45;&gt;Node2 -->
<g id="edge1_Node000001_Node000002" class="edge">
<title>Node1&#45;&gt;Node2</title>
<g id="a_edge1_Node000001_Node000002"><a xlink:title=" ">
<path fill="none" stroke="#63b8ff" d="M818.23,-93.96C792.82,-87.63 761.42,-79.8 734.41,-73.06"/>
<polygon fill="#63b8ff" stroke="#63b8ff" points="817.46,-97.38 828.01,-96.4 819.15,-90.59 817.46,-97.38"/>
</a>
</g>
</g>
<!-- Node3 -->
<g id="Node000003" class="node">
<title>Node3</title>
<g id="a_Node000003"><a xlink:href="../../d6/d15/classArcane_1_1VtkMeshIOService.html#aa01640e48757950ac0172b43e073e580" target="_top" xlink:title="Permet de lire le fichier truc.vtkfaces.vtk (s&#39;il existe).">
<polygon fill="white" stroke="#666666" points="555,-126 409,-126 409,-96 555,-96 555,-126"/>
<text text-anchor="start" x="417" y="-114" font-family="Helvetica,sans-Serif" font-size="10.00">Arcane::VtkMeshIOService</text>
<text text-anchor="middle" x="482" y="-103" font-family="Helvetica,sans-Serif" font-size="10.00">::_readFacesMesh</text>
</a>
</g>
</g>
<!-- Node1&#45;&gt;Node3 -->
<g id="edge8_Node000001_Node000003" class="edge">
<title>Node1&#45;&gt;Node3</title>
<g id="a_edge8_Node000001_Node000003"><a xlink:title=" ">
<path fill="none" stroke="#63b8ff" d="M821.32,-118C801.18,-122.76 777.07,-127.65 755,-130 682.52,-137.71 663.61,-136.34 591,-130 579.34,-128.98 567.04,-127.36 555.1,-125.47"/>
<polygon fill="#63b8ff" stroke="#63b8ff" points="822.27,-121.37 831.16,-115.62 820.62,-114.57 822.27,-121.37"/>
</a>
</g>
</g>
<!-- Node4 -->
<g id="Node000004" class="node">
<title>Node4</title>
<g id="a_Node000004"><a xlink:href="../../d6/d15/classArcane_1_1VtkMeshIOService.html#acc2e361baece2c5ce441ee530485d6cf" target="_top" xlink:title="Permet de débuter la lecture d&#39;un fichier vtk.">
<polygon fill="white" stroke="#666666" points="373,-102 227,-102 227,-72 373,-72 373,-102"/>
<text text-anchor="start" x="235" y="-90" font-family="Helvetica,sans-Serif" font-size="10.00">Arcane::VtkMeshIOService</text>
<text text-anchor="middle" x="300" y="-79" font-family="Helvetica,sans-Serif" font-size="10.00">::readMesh</text>
</a>
</g>
</g>
<!-- Node1&#45;&gt;Node4 -->
<g id="edge14_Node000001_Node000004" class="edge">
<title>Node1&#45;&gt;Node4</title>
<g id="a_edge14_Node000001_Node000004"><a xlink:title=" ">
<path fill="none" stroke="#63b8ff" d="M837.08,-119.71C815.03,-129.2 783.82,-140.99 755,-146 603.42,-172.37 558.47,-171.47 409,-135 379.9,-127.9 348.86,-113.29 327.56,-102.04"/>
<polygon fill="#63b8ff" stroke="#63b8ff" points="838.79,-122.78 846.52,-115.55 835.96,-116.38 838.79,-122.78"/>
</a>
</g>
</g>
<!-- Node8 -->
<g id="Node000008" class="node">
<title>Node8</title>
<g id="a_Node000008"><a xlink:href="../../d6/d15/classArcane_1_1VtkMeshIOService.html#a5fda6c907c769d99542a3c7d71cd6ffc" target="_top" xlink:title="Lecture des noeuds et de leur coordonnées.">
<polygon fill="white" stroke="#666666" points="755,-121 591,-121 591,-91 755,-91 755,-121"/>
<text text-anchor="start" x="599" y="-109" font-family="Helvetica,sans-Serif" font-size="10.00">Arcane::VtkMeshIOService</text>
<text text-anchor="middle" x="673" y="-98" font-family="Helvetica,sans-Serif" font-size="10.00">::_readNodesUnstructuredGrid</text>
</a>
</g>
</g>
<!-- Node1&#45;&gt;Node8 -->
<g id="edge9_Node000001_Node000008" class="edge">
<title>Node1&#45;&gt;Node8</title>
<g id="a_edge9_Node000001_Node000008"><a xlink:title=" ">
<path fill="none" stroke="#63b8ff" d="M780.93,-106C772.32,-106 763.59,-106 755.03,-106"/>
<polygon fill="#63b8ff" stroke="#63b8ff" points="780.97,-109.5 790.97,-106 780.97,-102.5 780.97,-109.5"/>
</a>
</g>
</g>
<!-- Node9 -->
<g id="Node000009" class="node">
<title>Node9</title>
<g id="a_Node000009"><a xlink:href="../../d6/d15/classArcane_1_1VtkMeshIOService.html#a3da0bde8376e17b0a4557fd694a7e482" target="_top" xlink:title="Permet de lire un fichier vtk contenant une STRUCTURED_GRID.">
<polygon fill="white" stroke="#666666" points="555,-30 409,-30 409,0 555,0 555,-30"/>
<text text-anchor="start" x="417" y="-18" font-family="Helvetica,sans-Serif" font-size="10.00">Arcane::VtkMeshIOService</text>
<text text-anchor="middle" x="482" y="-7" font-family="Helvetica,sans-Serif" font-size="10.00">::_readStructuredGrid</text>
</a>
</g>
</g>
<!-- Node1&#45;&gt;Node9 -->
<g id="edge12_Node000001_Node000009" class="edge">
<title>Node1&#45;&gt;Node9</title>
<g id="a_edge12_Node000001_Node000009"><a xlink:title=" ">
<path fill="none" stroke="#63b8ff" d="M848.01,-89.8C827.07,-72.53 791.12,-46.03 755,-34 689.77,-12.27 610.99,-9.08 555.05,-10.39"/>
<polygon fill="#63b8ff" stroke="#63b8ff" points="845.88,-92.58 855.78,-96.36 850.39,-87.23 845.88,-92.58"/>
</a>
</g>
</g>
<!-- Node2&#45;&gt;Node3 -->
<g id="edge2_Node000002_Node000003" class="edge">
<title>Node2&#45;&gt;Node3</title>
<g id="a_edge2_Node000002_Node000003"><a xlink:title=" ">
<path fill="none" stroke="#63b8ff" d="M608.56,-75.79C585.27,-82.32 559.15,-89.65 536.79,-95.92"/>
<polygon fill="#63b8ff" stroke="#63b8ff" points="609.66,-79.12 618.35,-73.05 607.77,-72.38 609.66,-79.12"/>
</a>
</g>
</g>
<!-- Node7 -->
<g id="Node000007" class="node">
<title>Node7</title>
<g id="a_Node000007"><a xlink:href="../../d6/d15/classArcane_1_1VtkMeshIOService.html#af373c7d54b8f0d1551601556fccb6436" target="_top" xlink:title="Permet de lire un fichier vtk contenant une UNSTRUCTURED_GRID.">
<polygon fill="white" stroke="#666666" points="555,-78 409,-78 409,-48 555,-48 555,-78"/>
<text text-anchor="start" x="417" y="-66" font-family="Helvetica,sans-Serif" font-size="10.00">Arcane::VtkMeshIOService</text>
<text text-anchor="middle" x="482" y="-55" font-family="Helvetica,sans-Serif" font-size="10.00">::_readUnstructuredGrid</text>
</a>
</g>
</g>
<!-- Node2&#45;&gt;Node7 -->
<g id="edge6_Node000002_Node000007" class="edge">
<title>Node2&#45;&gt;Node7</title>
<g id="a_edge6_Node000002_Node000007"><a xlink:title=" ">
<path fill="none" stroke="#63b8ff" d="M584.24,-60.32C574.53,-60.58 564.72,-60.84 555.23,-61.09"/>
<polygon fill="#63b8ff" stroke="#63b8ff" points="584.4,-63.82 594.31,-60.06 584.22,-56.82 584.4,-63.82"/>
</a>
</g>
</g>
<!-- Node3&#45;&gt;Node4 -->
<g id="edge3_Node000003_Node000004" class="edge">
<title>Node3&#45;&gt;Node4</title>
<g id="a_edge3_Node000003_Node000004"><a xlink:title=" ">
<path fill="none" stroke="#63b8ff" d="M398.84,-100.05C390.28,-98.9 381.63,-97.75 373.19,-96.63"/>
<polygon fill="#63b8ff" stroke="#63b8ff" points="398.45,-103.52 408.82,-101.38 399.37,-96.59 398.45,-103.52"/>
</a>
</g>
</g>
<!-- Node5 -->
<g id="Node000005" class="node">
<title>Node5</title>
<g id="a_Node000005"><a xlink:href="../../d3/d89/classArcane_1_1VtkLegacyCaseMeshReader_1_1Builder.html#a138b9e820142f0580c305262dfdfd282" target="_top" xlink:title="Alloue les entités du maillage géré par ce service.">
<polygon fill="white" stroke="#666666" points="191,-126 0,-126 0,-96 191,-96 191,-126"/>
<text text-anchor="start" x="8" y="-114" font-family="Helvetica,sans-Serif" font-size="10.00">Arcane::VtkLegacyCaseMesh</text>
<text text-anchor="middle" x="95.5" y="-103" font-family="Helvetica,sans-Serif" font-size="10.00">Reader::Builder::allocateMeshItems</text>
</a>
</g>
</g>
<!-- Node4&#45;&gt;Node5 -->
<g id="edge4_Node000004_Node000005" class="edge">
<title>Node4&#45;&gt;Node5</title>
<g id="a_edge4_Node000004_Node000005"><a xlink:title=" ">
<path fill="none" stroke="#63b8ff" d="M216.58,-96.77C208.16,-97.77 199.55,-98.79 191.01,-99.8"/>
<polygon fill="#63b8ff" stroke="#63b8ff" points="217.23,-100.22 226.75,-95.56 216.41,-93.26 217.23,-100.22"/>
</a>
</g>
</g>
<!-- Node6 -->
<g id="Node000006" class="node">
<title>Node6</title>
<g id="a_Node000006"><a xlink:href="../../d8/dac/classArcane_1_1VtkMeshReader.html#a3a0f308c69bdea6fe24ed38900cd9377" target="_top" xlink:title="Lit un maillage à partir d&#39;un fichier.">
<polygon fill="white" stroke="#666666" points="162.5,-78 28.5,-78 28.5,-48 162.5,-48 162.5,-78"/>
<text text-anchor="start" x="36.5" y="-66" font-family="Helvetica,sans-Serif" font-size="10.00">Arcane::VtkMeshReader</text>
<text text-anchor="middle" x="95.5" y="-55" font-family="Helvetica,sans-Serif" font-size="10.00">::readMeshFromFile</text>
</a>
</g>
</g>
<!-- Node4&#45;&gt;Node6 -->
<g id="edge5_Node000004_Node000006" class="edge">
<title>Node4&#45;&gt;Node6</title>
<g id="a_edge5_Node000004_Node000006"><a xlink:title=" ">
<path fill="none" stroke="#63b8ff" d="M216.59,-77.23C198.64,-75.11 179.87,-72.88 162.64,-70.84"/>
<polygon fill="#63b8ff" stroke="#63b8ff" points="216.41,-80.74 226.75,-78.44 217.23,-73.78 216.41,-80.74"/>
</a>
</g>
</g>
<!-- Node7&#45;&gt;Node4 -->
<g id="edge7_Node000007_Node000004" class="edge">
<title>Node7&#45;&gt;Node4</title>
<g id="a_edge7_Node000007_Node000004"><a xlink:title=" ">
<path fill="none" stroke="#63b8ff" d="M398.84,-73.95C390.28,-75.1 381.63,-76.25 373.19,-77.37"/>
<polygon fill="#63b8ff" stroke="#63b8ff" points="399.37,-77.41 408.82,-72.62 398.45,-70.48 399.37,-77.41"/>
</a>
</g>
</g>
<!-- Node8&#45;&gt;Node3 -->
<g id="edge10_Node000008_Node000003" class="edge">
<title>Node8&#45;&gt;Node3</title>
<g id="a_edge10_Node000008_Node000003"><a xlink:title=" ">
<path fill="none" stroke="#63b8ff" d="M580.74,-108.41C572.18,-108.64 563.59,-108.87 555.24,-109.09"/>
<polygon fill="#63b8ff" stroke="#63b8ff" points="580.85,-111.91 590.75,-108.15 580.66,-104.92 580.85,-111.91"/>
</a>
</g>
</g>
<!-- Node8&#45;&gt;Node7 -->
<g id="edge11_Node000008_Node000007" class="edge">
<title>Node8&#45;&gt;Node7</title>
<g id="a_edge11_Node000008_Node000007"><a xlink:title=" ">
<path fill="none" stroke="#63b8ff" d="M595.83,-88.67C580.34,-85.15 564.17,-81.47 549.07,-78.03"/>
<polygon fill="#63b8ff" stroke="#63b8ff" points="595.37,-92.15 605.9,-90.96 596.92,-85.33 595.37,-92.15"/>
</a>
</g>
</g>
<!-- Node9&#45;&gt;Node4 -->
<g id="edge13_Node000009_Node000004" class="edge">
<title>Node9&#45;&gt;Node4</title>
<g id="a_edge13_Node000009_Node000004"><a xlink:title=" ">
<path fill="none" stroke="#63b8ff" d="M423.83,-33.49C418.79,-35.29 413.79,-37.14 409,-39 382.98,-49.09 354.13,-62.01 332.79,-71.9"/>
<polygon fill="#63b8ff" stroke="#63b8ff" points="425.23,-36.71 433.52,-30.1 422.92,-30.1 425.23,-36.71"/>
</a>
</g>
</g>
</g>
</svg>

<g id="navigator" transform="translate(0 0)" fill="#404254">
  <rect fill="#f2f5e9" fill-opacity="0.5" stroke="#606060" stroke-width=".5" x="0" y="0" width="60" height="60"/>
  <use id="zoomplus" xlink:href="#zoomPlus" x="17" y="9" onmousedown="handleZoom(evt,'in')"/>
  <use id="zoomminus" xlink:href="#zoomMin" x="42" y="9" onmousedown="handleZoom(evt,'out')"/>
  <use id="reset" xlink:href="#resetDef" x="30" y="36" onmousedown="handleReset()"/>
   <use id="arrowup" xlink:href="#arrowUp" x="0" y="0" onmousedown="handlePan(0,-1)"/>
  <use id="arrowright" xlink:href="#arrowRight" x="0" y="0" onmousedown="handlePan(1,0)"/>
  <use id="arrowdown" xlink:href="#arrowDown" x="0" y="0" onmousedown="handlePan(0,1)"/>
  <use id="arrowleft" xlink:href="#arrowLeft" x="0" y="0" onmousedown="handlePan(-1,0)"/>
</g>
<svg viewBox="0 0 15 15" width="100%" height="30px" preserveAspectRatio="xMaxYMin meet">
 <g id="arrow_out" transform="scale(0.3 0.3)">
  <a xlink:href="classArcane_1_1VtkFile_aa15bc1935dbccc6f8ca7c427b36e0bb0_icgraph_org.svg" target="_base">
   <rect id="button" ry="5" rx="5" y="6" x="6" height="38" width="38"
        fill="#f2f5e9" fill-opacity="0.5" stroke="#606060" stroke-width="1.0"/>
   <path id="arrow"
     d="M 11.500037,31.436501 C 11.940474,20.09759 22.043105,11.32322 32.158766,21.979434 L 37.068811,17.246167 C 37.068811,17.246167 37.088388,32 37.088388,32 L 22.160133,31.978069 C 22.160133,31.978069 26.997745,27.140456 26.997745,27.140456 C 18.528582,18.264221 13.291696,25.230495 11.500037,31.436501 z"
     style="fill:#404040;"/>
  </a>
 </g>
</svg>

<style type='text/css'>
<![CDATA[
[data-mouse-over-selected='false'] { opacity: 0.7; }
[data-mouse-over-selected='true']  { opacity: 1.0; }
]]>
</style>
<script type="application/ecmascript"><![CDATA[
document.addEventListener('DOMContentLoaded', (event) => {
  highlightEdges();
  highlightAdjacentNodes();
});
]]></script>
</svg>
