<?xml version="1.0" encoding="UTF-8" standalone="no"?>
<!DOCTYPE svg PUBLIC "-//W3C//DTD SVG 1.1//EN"
 "http://www.w3.org/Graphics/SVG/1.1/DTD/svg11.dtd">
<!-- Generated by graphviz version 14.1.2 (0)
 -->
<!-- Title: Arcane::mesh::ItemFamily::_readGroups Pages: 1 -->
<svg width="690pt" height="388pt"
 viewBox="0.00 0.00 690.00 388.00" xmlns="http://www.w3.org/2000/svg" xmlns:xlink="http://www.w3.org/1999/xlink">
<g id="graph0" class="graph" transform="scale(1 1) rotate(0) translate(4 384.12)">
<title>Arcane::mesh::ItemFamily::_readGroups</title>
<!-- Node1 -->
<g id="Node000001" class="node">
<title>Node1</title>
<g id="a_Node000001"><a xlink:title="Relit les groupes depuis une protection et les recréer si besoin.">
<polygon fill="#999999" stroke="#666666" points="143.5,-251.12 0,-251.12 0,-217.62 143.5,-217.62 143.5,-251.12"/>
<text xml:space="preserve" text-anchor="start" x="8" y="-237.62" font-family="Helvetica,sans-Serif" font-size="10.00">Arcane::mesh::ItemFamily</text>
<text xml:space="preserve" text-anchor="middle" x="71.75" y="-224.88" font-family="Helvetica,sans-Serif" font-size="10.00">::_readGroups</text>
</a>
</g>
</g>
<!-- Node2 -->
<g id="Node000002" class="node">
<title>Node2</title>
<g id="a_Node000002"><a xlink:href="../../d8/d0f/classArcane_1_1mesh_1_1ItemFamily.html#a4aa5e9875ca3da540881930dce8da851" target="_top" xlink:title="Créé un groupe d&#39;entités de nom name contenant les entités local_ids.">
<polygon fill="white" stroke="#666666" points="323,-220.12 179.5,-220.12 179.5,-186.62 323,-186.62 323,-220.12"/>
<text xml:space="preserve" text-anchor="start" x="187.5" y="-206.62" font-family="Helvetica,sans-Serif" font-size="10.00">Arcane::mesh::ItemFamily</text>
<text xml:space="preserve" text-anchor="middle" x="251.25" y="-193.88" font-family="Helvetica,sans-Serif" font-size="10.00">::createGroup</text>
</a>
</g>
</g>
<!-- Node1&#45;&gt;Node2 -->
<g id="edge1_Node000001_Node000002" class="edge">
<title>Node1&#45;&gt;Node2</title>
<g id="a_edge1_Node000001_Node000002"><a xlink:title=" ">
<path fill="none" stroke="#63b8ff" d="M143.92,-221.94C151.79,-220.57 159.85,-219.16 167.84,-217.77"/>
<polygon fill="#63b8ff" stroke="#63b8ff" points="168.32,-221.24 177.57,-216.07 167.12,-214.34 168.32,-221.24"/>
</a>
</g>
</g>
<!-- Node3 -->
<g id="Node000003" class="node">
<title>Node3</title>
<g id="a_Node000003"><a xlink:href="../../d1/d17/classArcane_1_1TraceAccessor.html#a24ff2b7ec9158ea6c25512a00b7db890" target="_top" xlink:title="Flot pour un message de debug.">
<polygon fill="white" stroke="#666666" points="493.12,-380.12 368.38,-380.12 368.38,-346.62 493.12,-346.62 493.12,-380.12"/>
<text xml:space="preserve" text-anchor="start" x="376.38" y="-366.62" font-family="Helvetica,sans-Serif" font-size="10.00">Arcane::TraceAccessor</text>
<text xml:space="preserve" text-anchor="middle" x="430.75" y="-353.88" font-family="Helvetica,sans-Serif" font-size="10.00">::debug</text>
</a>
</g>
</g>
<!-- Node1&#45;&gt;Node3 -->
<g id="edge12_Node000001_Node000003" class="edge">
<title>Node1&#45;&gt;Node3</title>
<g id="a_edge12_Node000001_Node000003"><a xlink:title=" ">
<path fill="none" stroke="#63b8ff" d="M93.07,-251.47C113.6,-267.9 146.88,-292.25 179.5,-306.38 236.52,-331.07 305.68,-345.77 356.83,-354.04"/>
<polygon fill="#63b8ff" stroke="#63b8ff" points="356.2,-357.49 366.62,-355.58 357.28,-350.57 356.2,-357.49"/>
</a>
</g>
</g>
<!-- Node4 -->
<g id="Node000004" class="node">
<title>Node4</title>
<g id="a_Node000004"><a xlink:href="../../d8/d0f/classArcane_1_1mesh_1_1ItemFamily.html#adf4471ed5f1c44138be82e60b890f96c" target="_top" xlink:title="Recherche un groupe.">
<polygon fill="white" stroke="#666666" points="502.5,-328.12 359,-328.12 359,-294.62 502.5,-294.62 502.5,-328.12"/>
<text xml:space="preserve" text-anchor="start" x="367" y="-314.62" font-family="Helvetica,sans-Serif" font-size="10.00">Arcane::mesh::ItemFamily</text>
<text xml:space="preserve" text-anchor="middle" x="430.75" y="-301.88" font-family="Helvetica,sans-Serif" font-size="10.00">::findGroup</text>
</a>
</g>
</g>
<!-- Node1&#45;&gt;Node4 -->
<g id="edge13_Node000001_Node000004" class="edge">
<title>Node1&#45;&gt;Node4</title>
<g id="a_edge13_Node000001_Node000004"><a xlink:title=" ">
<path fill="none" stroke="#63b8ff" d="M106,-251.61C126.63,-261.57 153.99,-273.45 179.5,-280.38 234.37,-295.27 297.98,-303.03 347.34,-307.06"/>
<polygon fill="#63b8ff" stroke="#63b8ff" points="346.85,-310.53 357.09,-307.82 347.4,-303.56 346.85,-310.53"/>
</a>
</g>
</g>
<!-- Node6 -->
<g id="Node000006" class="node">
<title>Node6</title>
<g id="a_Node000006"><a xlink:href="../../d8/d0f/classArcane_1_1mesh_1_1ItemFamily.html#af1ec602c741363ce0bd673ef8b1653e2" target="_top" xlink:title="Nom de la famille.">
<polygon fill="white" stroke="#666666" points="682,-283.12 538.5,-283.12 538.5,-249.62 682,-249.62 682,-283.12"/>
<text xml:space="preserve" text-anchor="start" x="546.5" y="-269.62" font-family="Helvetica,sans-Serif" font-size="10.00">Arcane::mesh::ItemFamily</text>
<text xml:space="preserve" text-anchor="middle" x="610.25" y="-256.88" font-family="Helvetica,sans-Serif" font-size="10.00">::name</text>
</a>
</g>
</g>
<!-- Node1&#45;&gt;Node6 -->
<g id="edge14_Node000001_Node000006" class="edge">
<title>Node1&#45;&gt;Node6</title>
<g id="a_edge14_Node000001_Node000006"><a xlink:title=" ">
<path fill="none" stroke="#63b8ff" d="M143.87,-243.81C155.75,-245.16 167.96,-246.42 179.5,-247.38 300.06,-257.37 440.1,-262.32 526.71,-264.61"/>
<polygon fill="#63b8ff" stroke="#63b8ff" points="526.44,-268.11 536.53,-264.87 526.63,-261.11 526.44,-268.11"/>
</a>
</g>
</g>
<!-- Node7 -->
<g id="Node000007" class="node">
<title>Node7</title>
<g id="a_Node000007"><a xlink:href="../../d9/d27/classArcane_1_1ItemGroup.html#ac254583641d87f94267385604b3554b2" target="_top" xlink:title="true is le groupe est le groupe nul">
<polygon fill="white" stroke="#666666" points="676,-103.75 544.5,-103.75 544.5,-83 676,-83 676,-103.75"/>
<text xml:space="preserve" text-anchor="middle" x="610.25" y="-90.25" font-family="Helvetica,sans-Serif" font-size="10.00">Arcane::ItemGroup::null</text>
</a>
</g>
</g>
<!-- Node1&#45;&gt;Node7 -->
<g id="edge15_Node000001_Node000007" class="edge">
<title>Node1&#45;&gt;Node7</title>
<g id="a_edge15_Node000001_Node000007"><a xlink:title=" ">
<path fill="none" stroke="#63b8ff" d="M92.9,-217.4C137.37,-181.17 248.75,-97.18 359,-67.38 429.76,-48.24 515.28,-65.37 565.81,-79.43"/>
<polygon fill="#63b8ff" stroke="#63b8ff" points="564.62,-82.73 575.19,-82.14 566.55,-76.01 564.62,-82.73"/>
</a>
</g>
</g>
<!-- Node10 -->
<g id="Node000010" class="node">
<title>Node10</title>
<g id="a_Node000010"><a xlink:href="../../d2/d30/classArcane_1_1ArrayView.html#abdc30b186a464d086d452be8eb6c6397" target="_top" xlink:title="Retourne la taille du tableau.">
<polygon fill="white" stroke="#666666" points="316.62,-20.75 185.88,-20.75 185.88,0 316.62,0 316.62,-20.75"/>
<text xml:space="preserve" text-anchor="middle" x="251.25" y="-7.25" font-family="Helvetica,sans-Serif" font-size="10.00">Arcane::ArrayView::size</text>
</a>
</g>
</g>
<!-- Node1&#45;&gt;Node10 -->
<g id="edge16_Node000001_Node000010" class="edge">
<title>Node1&#45;&gt;Node10</title>
<g id="a_edge16_Node000001_Node000010"><a xlink:title=" ">
<path fill="none" stroke="#63b8ff" d="M77.22,-217.16C88.09,-178.73 119.49,-85.31 179.5,-34.38 183.33,-31.12 187.62,-28.31 192.15,-25.87"/>
<polygon fill="#63b8ff" stroke="#63b8ff" points="193.39,-29.15 200.96,-21.75 190.42,-22.81 193.39,-29.15"/>
</a>
</g>
</g>
<!-- Node2&#45;&gt;Node2 -->
<g id="edge2_Node000002_Node000002" class="edge">
<title>Node2&#45;&gt;Node2</title>
<g id="a_edge2_Node000002_Node000002"><a xlink:title=" ">
<path fill="none" stroke="#63b8ff" d="M218.98,-220.54C213.5,-229.74 224.25,-238.12 251.25,-238.12 266.43,-238.12 276.48,-235.47 281.39,-231.51"/>
<polygon fill="#63b8ff" stroke="#63b8ff" points="284.76,-232.51 283.23,-222.03 277.89,-231.18 284.76,-232.51"/>
</a>
</g>
</g>
<!-- Node2&#45;&gt;Node3 -->
<g id="edge3_Node000002_Node000003" class="edge">
<title>Node2&#45;&gt;Node3</title>
<g id="a_edge3_Node000002_Node000003"><a xlink:title=" ">
<path fill="none" stroke="#63b8ff" d="M261.51,-220.24C277.73,-248.33 313.9,-304.83 359,-337.38 360.57,-338.51 362.19,-339.59 363.86,-340.64"/>
<polygon fill="#63b8ff" stroke="#63b8ff" points="362.03,-343.63 372.47,-345.43 365.43,-337.51 362.03,-343.63"/>
</a>
</g>
</g>
<!-- Node2&#45;&gt;Node4 -->
<g id="edge4_Node000002_Node000004" class="edge">
<title>Node2&#45;&gt;Node4</title>
<g id="a_edge4_Node000002_Node000004"><a xlink:title=" ">
<path fill="none" stroke="#63b8ff" d="M280.38,-220.49C310.54,-238.84 358.59,-268.08 392.02,-288.42"/>
<polygon fill="#63b8ff" stroke="#63b8ff" points="389.81,-291.17 400.17,-293.38 393.45,-285.19 389.81,-291.17"/>
</a>
</g>
</g>
<!-- Node2&#45;&gt;Node6 -->
<g id="edge7_Node000002_Node000006" class="edge">
<title>Node2&#45;&gt;Node6</title>
<g id="a_edge7_Node000002_Node000006"><a xlink:title=" ">
<path fill="none" stroke="#63b8ff" d="M323.21,-215.9C381.88,-226.25 465.27,-240.97 526.88,-251.84"/>
<polygon fill="#63b8ff" stroke="#63b8ff" points="526.17,-255.27 536.63,-253.56 527.39,-248.38 526.17,-255.27"/>
</a>
</g>
</g>
<!-- Node2&#45;&gt;Node7 -->
<g id="edge8_Node000002_Node000007" class="edge">
<title>Node2&#45;&gt;Node7</title>
<g id="a_edge8_Node000002_Node000007"><a xlink:title=" ">
<path fill="none" stroke="#63b8ff" d="M288.26,-186.18C308.7,-176.85 334.93,-165.58 359,-157.38 377.47,-151.08 486.51,-123.76 554.42,-106.91"/>
<polygon fill="#63b8ff" stroke="#63b8ff" points="555.03,-110.37 563.89,-104.57 553.34,-103.57 555.03,-110.37"/>
</a>
</g>
</g>
<!-- Node8 -->
<g id="Node000008" class="node">
<title>Node8</title>
<g id="a_Node000008"><a xlink:href="../../d9/d27/classArcane_1_1ItemGroup.html#a698f3db2fb6bbd10111476078403ff45" target="_top" xlink:title="Positionne les entités du groupe.">
<polygon fill="white" stroke="#666666" points="487.5,-110.12 374,-110.12 374,-76.62 487.5,-76.62 487.5,-110.12"/>
<text xml:space="preserve" text-anchor="start" x="382" y="-96.62" font-family="Helvetica,sans-Serif" font-size="10.00">Arcane::ItemGroup::</text>
<text xml:space="preserve" text-anchor="middle" x="430.75" y="-83.88" font-family="Helvetica,sans-Serif" font-size="10.00">setItems</text>
</a>
</g>
</g>
<!-- Node2&#45;&gt;Node8 -->
<g id="edge9_Node000002_Node000008" class="edge">
<title>Node2&#45;&gt;Node8</title>
<g id="a_edge9_Node000002_Node000008"><a xlink:title=" ">
<path fill="none" stroke="#63b8ff" d="M272.56,-186.18C293.36,-169.1 327.08,-142.87 359,-124.38 364.5,-121.19 370.39,-118.12 376.34,-115.23"/>
<polygon fill="#63b8ff" stroke="#63b8ff" points="377.39,-118.6 384.97,-111.2 374.43,-112.26 377.39,-118.6"/>
</a>
</g>
</g>
<!-- Node9 -->
<g id="Node000009" class="node">
<title>Node9</title>
<g id="a_Node000009"><a xlink:href="../../d9/d2e/classArcane_1_1ConstArrayView.html#ac6a4f407a7ec0a0e0985113552fe2f54" target="_top" xlink:title="Nombre d&#39;éléments du tableau.">
<polygon fill="white" stroke="#666666" points="497.62,-200.12 363.88,-200.12 363.88,-166.62 497.62,-166.62 497.62,-200.12"/>
<text xml:space="preserve" text-anchor="start" x="371.88" y="-186.62" font-family="Helvetica,sans-Serif" font-size="10.00">Arcane::ConstArrayView</text>
<text xml:space="preserve" text-anchor="middle" x="430.75" y="-173.88" font-family="Helvetica,sans-Serif" font-size="10.00">::size</text>
</a>
</g>
</g>
<!-- Node2&#45;&gt;Node9 -->
<g id="edge11_Node000002_Node000009" class="edge">
<title>Node2&#45;&gt;Node9</title>
<g id="a_edge11_Node000002_Node000009"><a xlink:title=" ">
<path fill="none" stroke="#63b8ff" d="M323.42,-195.36C332.92,-194.29 342.7,-193.18 352.3,-192.1"/>
<polygon fill="#63b8ff" stroke="#63b8ff" points="352.4,-195.61 361.95,-191.01 351.62,-188.66 352.4,-195.61"/>
</a>
</g>
</g>
<!-- Node5 -->
<g id="Node000005" class="node">
<title>Node5</title>
<g id="a_Node000005"><a xlink:href="../../d9/d27/classArcane_1_1ItemGroup.html#a315ae5dbc0dbbd2a4f31edc961c4441f" target="_top" xlink:title="Nom du groupe.">
<polygon fill="white" stroke="#666666" points="680.88,-321.75 539.62,-321.75 539.62,-301 680.88,-301 680.88,-321.75"/>
<text xml:space="preserve" text-anchor="middle" x="610.25" y="-308.25" font-family="Helvetica,sans-Serif" font-size="10.00">Arcane::ItemGroup::name</text>
</a>
</g>
</g>
<!-- Node4&#45;&gt;Node5 -->
<g id="edge5_Node000004_Node000005" class="edge">
<title>Node4&#45;&gt;Node5</title>
<g id="a_edge5_Node000004_Node000005"><a xlink:title=" ">
<path fill="none" stroke="#63b8ff" d="M502.92,-311.38C511.15,-311.38 519.58,-311.38 527.92,-311.38"/>
<polygon fill="#63b8ff" stroke="#63b8ff" points="527.7,-314.88 537.7,-311.38 527.7,-307.88 527.7,-314.88"/>
</a>
</g>
</g>
<!-- Node4&#45;&gt;Node6 -->
<g id="edge6_Node000004_Node000006" class="edge">
<title>Node4&#45;&gt;Node6</title>
<g id="a_edge6_Node000004_Node000006"><a xlink:title=" ">
<path fill="none" stroke="#63b8ff" d="M499.61,-294.17C509.68,-291.62 520.12,-288.97 530.38,-286.37"/>
<polygon fill="#63b8ff" stroke="#63b8ff" points="531.12,-289.79 539.96,-283.94 529.4,-283.01 531.12,-289.79"/>
</a>
</g>
</g>
<!-- Node8&#45;&gt;Node7 -->
<g id="edge10_Node000008_Node000007" class="edge">
<title>Node8&#45;&gt;Node7</title>
<g id="a_edge10_Node000008_Node000007"><a xlink:title=" ">
<path fill="none" stroke="#63b8ff" d="M487.91,-93.38C502.16,-93.38 517.7,-93.38 532.77,-93.38"/>
<polygon fill="#63b8ff" stroke="#63b8ff" points="532.65,-96.88 542.65,-93.38 532.65,-89.88 532.65,-96.88"/>
</a>
</g>
</g>
</g>
</svg>
