<?xml version="1.0" encoding="UTF-8" standalone="no"?>
<!DOCTYPE svg PUBLIC "-//W3C//DTD SVG 1.1//EN"
 "http://www.w3.org/Graphics/SVG/1.1/DTD/svg11.dtd">
<!-- Generated by graphviz version 14.1.2 (0)
 -->
<!-- Title: Arcane::OwnItemGroupComputeFunctor::executeFunctor Pages: 1 -->
<svg width="508pt" height="197pt"
 viewBox="0.00 0.00 508.00 197.00" xmlns="http://www.w3.org/2000/svg" xmlns:xlink="http://www.w3.org/1999/xlink">
<g id="graph0" class="graph" transform="scale(1 1) rotate(0) translate(4 192.75)">
<title>Arcane::OwnItemGroupComputeFunctor::executeFunctor</title>
<!-- Node1 -->
<g id="Node000001" class="node">
<title>Node1</title>
<g id="a_Node000001"><a xlink:title="Calcul des entités propres du groupe.">
<polygon fill="#999999" stroke="#666666" points="173.5,-105.12 0,-105.12 0,-71.62 173.5,-71.62 173.5,-105.12"/>
<text xml:space="preserve" text-anchor="start" x="8" y="-91.62" font-family="Helvetica,sans-Serif" font-size="10.00">Arcane::OwnItemGroupCompute</text>
<text xml:space="preserve" text-anchor="middle" x="86.75" y="-78.88" font-family="Helvetica,sans-Serif" font-size="10.00">Functor::executeFunctor</text>
</a>
</g>
</g>
<!-- Node2 -->
<g id="Node000002" class="node">
<title>Node2</title>
<g id="a_Node000002"><a xlink:href="../../d1/dfb/classArcane_1_1Array.html#afb30a771d3fd8022c7220afe7b78e60b" target="_top" xlink:title="Ajoute l&#39;élément val à la fin du tableau.">
<polygon fill="white" stroke="#666666" points="332.75,-188.75 227.5,-188.75 227.5,-168 332.75,-168 332.75,-188.75"/>
<text xml:space="preserve" text-anchor="middle" x="280.12" y="-175.25" font-family="Helvetica,sans-Serif" font-size="10.00">Arcane::Array::add</text>
</a>
</g>
</g>
<!-- Node1&#45;&gt;Node2 -->
<g id="edge1_Node000001_Node000002" class="edge">
<title>Node1&#45;&gt;Node2</title>
<g id="a_edge1_Node000001_Node000002"><a xlink:title=" ">
<path fill="none" stroke="#63b8ff" d="M112.4,-105.35C136.31,-121.18 174.07,-144.52 209.5,-159.38 213.54,-161.07 217.78,-162.66 222.09,-164.14"/>
<polygon fill="#63b8ff" stroke="#63b8ff" points="220.83,-167.41 231.42,-167.12 222.96,-160.74 220.83,-167.41"/>
</a>
</g>
</g>
<!-- Node3 -->
<g id="Node000003" class="node">
<title>Node3</title>
<g id="a_Node000003"><a xlink:href="../../d3/d00/classArcane_1_1ITraceMng.html#aedf2055d636e0b6261dc5862cea1b786" target="_top" xlink:title="Flot pour un message de debug.">
<polygon fill="white" stroke="#666666" points="335.75,-150.12 224.5,-150.12 224.5,-116.62 335.75,-116.62 335.75,-150.12"/>
<text xml:space="preserve" text-anchor="start" x="232.5" y="-136.62" font-family="Helvetica,sans-Serif" font-size="10.00">Arcane::ITraceMng::</text>
<text xml:space="preserve" text-anchor="middle" x="280.12" y="-123.88" font-family="Helvetica,sans-Serif" font-size="10.00">debug</text>
</a>
</g>
</g>
<!-- Node1&#45;&gt;Node3 -->
<g id="edge2_Node000001_Node000003" class="edge">
<title>Node1&#45;&gt;Node3</title>
<g id="a_edge2_Node000001_Node000003"><a xlink:title=" ">
<path fill="none" stroke="#63b8ff" d="M160.92,-105.58C178.15,-109.63 196.4,-113.92 213.28,-117.89"/>
<polygon fill="#63b8ff" stroke="#63b8ff" points="212.14,-121.22 222.68,-120.1 213.75,-114.41 212.14,-121.22"/>
</a>
</g>
</g>
<!-- Node4 -->
<g id="Node000004" class="node">
<title>Node4</title>
<g id="a_Node000004"><a xlink:href="../../df/d5f/classArcane_1_1Item.html#abcc38f4eb268c09c2e733b1ed12f7719" target="_top" xlink:title="true si l&#39;entité est appartient au sous&#45;domaine">
<polygon fill="white" stroke="#666666" points="337.25,-98.75 223,-98.75 223,-78 337.25,-78 337.25,-98.75"/>
<text xml:space="preserve" text-anchor="middle" x="280.12" y="-85.25" font-family="Helvetica,sans-Serif" font-size="10.00">Arcane::Item::isOwn</text>
</a>
</g>
</g>
<!-- Node1&#45;&gt;Node4 -->
<g id="edge3_Node000001_Node000004" class="edge">
<title>Node1&#45;&gt;Node4</title>
<g id="a_edge3_Node000001_Node000004"><a xlink:title=" ">
<path fill="none" stroke="#63b8ff" d="M173.92,-88.38C186.48,-88.38 199.25,-88.38 211.37,-88.38"/>
<polygon fill="#63b8ff" stroke="#63b8ff" points="211.25,-91.88 221.25,-88.38 211.25,-84.88 211.25,-91.88"/>
</a>
</g>
</g>
<!-- Node6 -->
<g id="Node000006" class="node">
<title>Node6</title>
<g id="a_Node000006"><a xlink:href="../../d9/d27/classArcane_1_1ItemGroup.html#a315ae5dbc0dbbd2a4f31edc961c4441f" target="_top" xlink:title="Nom du groupe.">
<polygon fill="white" stroke="#666666" points="350.75,-59.75 209.5,-59.75 209.5,-39 350.75,-39 350.75,-59.75"/>
<text xml:space="preserve" text-anchor="middle" x="280.12" y="-46.25" font-family="Helvetica,sans-Serif" font-size="10.00">Arcane::ItemGroup::name</text>
</a>
</g>
</g>
<!-- Node1&#45;&gt;Node6 -->
<g id="edge5_Node000001_Node000006" class="edge">
<title>Node1&#45;&gt;Node6</title>
<g id="a_edge5_Node000001_Node000006"><a xlink:title=" ">
<path fill="none" stroke="#63b8ff" d="M172.25,-71.16C186.48,-68.25 201.06,-65.28 214.68,-62.51"/>
<polygon fill="#63b8ff" stroke="#63b8ff" points="215.29,-65.96 224.39,-60.53 213.89,-59.1 215.29,-65.96"/>
</a>
</g>
</g>
<!-- Node7 -->
<g id="Node000007" class="node">
<title>Node7</title>
<g id="a_Node000007"><a xlink:href="../../d9/d27/classArcane_1_1ItemGroup.html#a5e13f5b3aed43db2383db28d8036c193" target="_top" xlink:title="Nombre d&#39;éléments du groupe.">
<polygon fill="white" stroke="#666666" points="346.62,-20.75 213.62,-20.75 213.62,0 346.62,0 346.62,-20.75"/>
<text xml:space="preserve" text-anchor="middle" x="280.12" y="-7.25" font-family="Helvetica,sans-Serif" font-size="10.00">Arcane::ItemGroup::size</text>
</a>
</g>
</g>
<!-- Node1&#45;&gt;Node7 -->
<g id="edge6_Node000001_Node000007" class="edge">
<title>Node1&#45;&gt;Node7</title>
<g id="a_edge6_Node000001_Node000007"><a xlink:title=" ">
<path fill="none" stroke="#63b8ff" d="M119.93,-71.25C144.11,-58.83 178.3,-42.2 209.5,-30.38 214.88,-28.34 220.55,-26.39 226.25,-24.57"/>
<polygon fill="#63b8ff" stroke="#63b8ff" points="227.17,-27.94 235.71,-21.66 225.12,-21.25 227.17,-27.94"/>
</a>
</g>
</g>
<!-- Node5 -->
<g id="Node000005" class="node">
<title>Node5</title>
<g id="a_Node000005"><a xlink:href="../../df/d5f/classArcane_1_1Item.html#af43f0841125abc9edc3724fe1dc5de91" target="_top" xlink:title="Flags de l&#39;entité">
<polygon fill="white" stroke="#666666" points="499.5,-98.75 386.75,-98.75 386.75,-78 499.5,-78 499.5,-98.75"/>
<text xml:space="preserve" text-anchor="middle" x="443.12" y="-85.25" font-family="Helvetica,sans-Serif" font-size="10.00">Arcane::Item::_flags</text>
</a>
</g>
</g>
<!-- Node4&#45;&gt;Node5 -->
<g id="edge4_Node000004_Node000005" class="edge">
<title>Node4&#45;&gt;Node5</title>
<g id="a_edge4_Node000004_Node000005"><a xlink:title=" ">
<path fill="none" stroke="#63b8ff" d="M337.43,-88.38C349.58,-88.38 362.54,-88.38 375.06,-88.38"/>
<polygon fill="#63b8ff" stroke="#63b8ff" points="374.88,-91.88 384.88,-88.38 374.88,-84.88 374.88,-91.88"/>
</a>
</g>
</g>
</g>
</svg>
