<?xml version="1.0" encoding="UTF-8" standalone="no"?>
<!DOCTYPE svg PUBLIC "-//W3C//DTD SVG 1.1//EN"
 "http://www.w3.org/Graphics/SVG/1.1/DTD/svg11.dtd">
<!-- Generated by graphviz version 2.43.0 (0)
 -->
<!-- Title: Arcane::IIncrementalItemConnectivity::removeConnectedItems Pages: 1 -->
<svg width="670pt" height="86pt"
 viewBox="0.00 0.00 670.00 86.00" xmlns="http://www.w3.org/2000/svg" xmlns:xlink="http://www.w3.org/1999/xlink">
<g id="graph0" class="graph" transform="scale(1 1) rotate(0) translate(4 82)">
<title>Arcane::IIncrementalItemConnectivity::removeConnectedItems</title>
<!-- Node1 -->
<g id="Node000001" class="node">
<title>Node1</title>
<g id="a_Node000001"><a xlink:title="Supprime toute les entités connectées à source_item.">
<polygon fill="#999999" stroke="#666666" points="662,-78 462,-78 462,-48 662,-48 662,-78"/>
<text text-anchor="start" x="470" y="-66" font-family="Helvetica,sans-Serif" font-size="10.00">Arcane::IIncrementalItem</text>
<text text-anchor="middle" x="562" y="-55" font-family="Helvetica,sans-Serif" font-size="10.00">Connectivity::removeConnectedItems</text>
</a>
</g>
</g>
<!-- Node2 -->
<g id="Node000002" class="node">
<title>Node2</title>
<g id="a_Node000002"><a xlink:href="../../df/d35/classArcane_1_1IIncrementalItemConnectivity.html#aed43fc8d6785247cc0d51f625cdccdbc" target="_top" xlink:title="Alloue et positionne les entités connectées à source_item.">
<polygon fill="white" stroke="#666666" points="426,-78 248,-78 248,-48 426,-48 426,-78"/>
<text text-anchor="start" x="256" y="-66" font-family="Helvetica,sans-Serif" font-size="10.00">Arcane::IIncrementalItem</text>
<text text-anchor="middle" x="337" y="-55" font-family="Helvetica,sans-Serif" font-size="10.00">Connectivity::setConnectedItems</text>
</a>
</g>
</g>
<!-- Node1&#45;&gt;Node2 -->
<g id="edge1_Node000001_Node000002" class="edge">
<title>Node1&#45;&gt;Node2</title>
<g id="a_edge1_Node000001_Node000002"><a xlink:title=" ">
<path fill="none" stroke="#63b8ff" d="M451.85,-63C443.27,-63 434.68,-63 426.27,-63"/>
<polygon fill="#63b8ff" stroke="#63b8ff" points="451.89,-66.5 461.89,-63 451.89,-59.5 451.89,-66.5"/>
</a>
</g>
</g>
<!-- Node3 -->
<g id="Node000003" class="node">
<title>Node3</title>
<g id="a_Node000003"><a xlink:href="../../df/d35/classArcane_1_1IIncrementalItemConnectivity.html#abcef882d503ff6921b0581d3f308c39f" target="_top" xlink:title="Ajoute l&#39;entité de localId() target_local_id à la connectivité de source_item.">
<polygon fill="white" stroke="#666666" points="194,-78 18,-78 18,-48 194,-48 194,-78"/>
<text text-anchor="start" x="26" y="-66" font-family="Helvetica,sans-Serif" font-size="10.00">Arcane::IIncrementalItem</text>
<text text-anchor="middle" x="106" y="-55" font-family="Helvetica,sans-Serif" font-size="10.00">Connectivity::addConnectedItem</text>
</a>
</g>
</g>
<!-- Node2&#45;&gt;Node3 -->
<g id="edge2_Node000002_Node000003" class="edge">
<title>Node2&#45;&gt;Node3</title>
<g id="a_edge2_Node000002_Node000003"><a xlink:title=" ">
<path fill="none" stroke="#63b8ff" d="M237.79,-56.31C223.24,-56.2 208.33,-56.24 194.03,-56.43"/>
<polygon fill="#63b8ff" stroke="#63b8ff" points="237.76,-59.81 247.79,-56.41 237.83,-52.81 237.76,-59.81"/>
</a>
</g>
</g>
<!-- Node4 -->
<g id="Node000004" class="node">
<title>Node4</title>
<g id="a_Node000004"><a xlink:href="../../dc/de8/MeshUtils_8h.html#a7dd8264f48fe90a842bf25015fcc7249" target="_top" xlink:title="Créé ou recréé une connectivité noeuds&#45;noeuds via les arêtes.">
<polygon fill="white" stroke="#666666" points="212,-30 0,-30 0,0 212,0 212,-30"/>
<text text-anchor="start" x="8" y="-18" font-family="Helvetica,sans-Serif" font-size="10.00">Arcane::MeshUtils::</text>
<text text-anchor="middle" x="106" y="-7" font-family="Helvetica,sans-Serif" font-size="10.00">computeNodeNodeViaEdgeConnectivity</text>
</a>
</g>
</g>
<!-- Node2&#45;&gt;Node4 -->
<g id="edge4_Node000002_Node000004" class="edge">
<title>Node2&#45;&gt;Node4</title>
<g id="a_edge4_Node000002_Node000004"><a xlink:title=" ">
<path fill="none" stroke="#63b8ff" d="M254.11,-45.83C229.42,-40.66 202.53,-35.02 178.57,-30"/>
<polygon fill="#63b8ff" stroke="#63b8ff" points="253.67,-49.32 264.17,-47.94 255.1,-42.47 253.67,-49.32"/>
</a>
</g>
</g>
<!-- Node3&#45;&gt;Node2 -->
<g id="edge3_Node000003_Node000002" class="edge">
<title>Node3&#45;&gt;Node2</title>
<g id="a_edge3_Node000003_Node000002"><a xlink:title=" ">
<path fill="none" stroke="#63b8ff" d="M204.44,-69.68C218.83,-69.8 233.6,-69.77 247.79,-69.59"/>
<polygon fill="#63b8ff" stroke="#63b8ff" points="204.07,-66.18 194.03,-69.57 203.99,-73.18 204.07,-66.18"/>
</a>
</g>
</g>
</g>
</svg>
