<?xml version="1.0" encoding="UTF-8" standalone="no"?>
<!DOCTYPE svg PUBLIC "-//W3C//DTD SVG 1.1//EN"
 "http://www.w3.org/Graphics/SVG/1.1/DTD/svg11.dtd">
<!-- Generated by graphviz version 2.43.0 (0)
 -->
<!-- Title: Arcane::Alina::math::static_rows&lt; T, Enable &gt; Pages: 1 -->
<svg width="148pt" height="164pt"
 viewBox="0.00 0.00 148.00 164.00" xmlns="http://www.w3.org/2000/svg" xmlns:xlink="http://www.w3.org/1999/xlink">
<g id="graph0" class="graph" transform="scale(1 1) rotate(0) translate(4 160)">
<title>Arcane::Alina::math::static_rows&lt; T, Enable &gt;</title>
<!-- Node1 -->
<g id="Node000001" class="node">
<title>Node1</title>
<g id="a_Node000001"><a xlink:title="Number of rows for statically sized matrix types.">
<polygon fill="#999999" stroke="transparent" points="140,-60 0,-60 0,0 140,0 140,-60"/>
<text text-anchor="start" x="5" y="-48" font-family="Helvetica,sans-Serif" font-size="10.00">Arcane::Alina::math</text>
<text text-anchor="start" x="5" y="-37" font-family="Helvetica,sans-Serif" font-size="10.00">::static_rows&lt; T, Enable &gt;</text>
<text text-anchor="start" x="68" y="-22" font-family="Helvetica,sans-Serif" font-size="10.00"> </text>
<text text-anchor="start" x="68" y="-7" font-family="Helvetica,sans-Serif" font-size="10.00"> </text>
<polygon fill="#666666" stroke="#666666" points="0,-32 0,-32 140,-32 140,-32 0,-32"/>
<polygon fill="#666666" stroke="#666666" points="0,-17 0,-17 140,-17 140,-17 0,-17"/>
<polygon fill="none" stroke="#666666" points="0,0 0,-60 140,-60 140,0 0,0"/>
</a>
</g>
</g>
<!-- Node2 -->
<g id="Node000002" class="node">
<title>Node2</title>
<g id="a_Node000002"><a xlink:title=" ">
<polygon fill="white" stroke="transparent" points="128,-156 12,-156 12,-96 128,-96 128,-156"/>
<text text-anchor="start" x="17" y="-144" font-family="Helvetica,sans-Serif" font-size="10.00">std::integral_constant</text>
<text text-anchor="start" x="46" y="-133" font-family="Helvetica,sans-Serif" font-size="10.00">&lt; int, 1 &gt;</text>
<text text-anchor="start" x="68" y="-118" font-family="Helvetica,sans-Serif" font-size="10.00"> </text>
<text text-anchor="start" x="68" y="-103" font-family="Helvetica,sans-Serif" font-size="10.00"> </text>
<polygon fill="#bfbfbf" stroke="#bfbfbf" points="12,-128 12,-128 128,-128 128,-128 12,-128"/>
<polygon fill="#bfbfbf" stroke="#bfbfbf" points="12,-113 12,-113 128,-113 128,-113 12,-113"/>
<polygon fill="none" stroke="#bfbfbf" points="12,-96 12,-156 128,-156 128,-96 12,-96"/>
</a>
</g>
</g>
<!-- Node2&#45;&gt;Node1 -->
<g id="edge1_Node000001_Node000002" class="edge">
<title>Node2&#45;&gt;Node1</title>
<g id="a_edge1_Node000001_Node000002"><a xlink:title=" ">
<path fill="none" stroke="#63b8ff" d="M70,-85.63C70,-77.11 70,-68.25 70,-60.21"/>
<polygon fill="none" stroke="#63b8ff" points="66.5,-85.77 70,-95.77 73.5,-85.77 66.5,-85.77"/>
</a>
</g>
</g>
</g>
</svg>
