<?xml version="1.0" encoding="UTF-8" standalone="no"?>
<!DOCTYPE svg PUBLIC "-//W3C//DTD SVG 1.1//EN"
 "http://www.w3.org/Graphics/SVG/1.1/DTD/svg11.dtd">
<!-- Generated by graphviz version 2.43.0 (0)
 -->
<!-- Title: Arcane::VtkMeshIOService Pages: 1 -->
<!--zoomable 1452 -->

<svg id="main" version="1.1" xmlns="http://www.w3.org/2000/svg" xmlns:xlink="http://www.w3.org/1999/xlink" xml:space="preserve" onload="init(evt)">

<style type="text/css"><![CDATA[
.node, .edge {opacity: 0.7;}
.node.selected, .edge.selected {opacity: 1;}
.edge:hover path { stroke: red; }
.edge:hover polygon { stroke: red; fill: red; }
]]></style>

<defs>
  <circle id="rim" cx="0" cy="0" r="7"/>
  <circle id="rim2" cx="0" cy="0" r="3.5"/>
  <g id="zoomPlus">
    <use xlink:href="#rim" fill="#404040"><set attributeName="fill" to="#808080" begin="zoomplus.mouseover" end="zoomplus.mouseout"/></use>
    <path d="M-4,0h8M0,-4v8" fill="none" stroke="white" stroke-width="1.5" pointer-events="none"/>
  </g>
  <g id="zoomMin">
    <use xlink:href="#rim" fill="#404040"><set attributeName="fill" to="#808080" begin="zoomminus.mouseover" end="zoomminus.mouseout"/></use>
    <path d="M-4,0h8" fill="none" stroke="white" stroke-width="1.5" pointer-events="none"/>
  </g>
  <g id="arrowUp" transform="translate(30 24)">
    <use xlink:href="#rim"/>
    <path pointer-events="none" fill="none" stroke="white" stroke-width="1.5" d="M0,-3.0v7 M-2.5,-0.5L0,-3.0L2.5,-0.5"/>
  </g>
  <g id="arrowRight" transform="rotate(90) translate(36 -43)">
    <use xlink:href="#rim"/>
    <path pointer-events="none" fill="none" stroke="white" stroke-width="1.5" d="M0,-3.0v7 M-2.5,-0.5L0,-3.0L2.5,-0.5"/>
  </g>
  <g id="arrowDown" transform="rotate(180) translate(-30 -48)">
    <use xlink:href="#rim"/>
    <path pointer-events="none" fill="none" stroke="white" stroke-width="1.5" d="M0,-3.0v7 M-2.5,-0.5L0,-3.0L2.5,-0.5"/>
  </g>
  <g id="arrowLeft" transform="rotate(270) translate(-36 17)">
    <use xlink:href="#rim"/>
    <path pointer-events="none" fill="none" stroke="white" stroke-width="1.5" d="M0,-3.0v7 M-2.5,-0.5L0,-3.0L2.5,-0.5"/>
  </g>
  <g id="resetDef">
    <use xlink:href="#rim2" fill="#404040"><set attributeName="fill" to="#808080" begin="reset.mouseover" end="reset.mouseout"/></use>
  </g>
</defs>
<script type="application/ecmascript">
var viewWidth = 294;
var viewHeight = 1452;
var sectionId = 'dynsection-1';
</script>
<script type="application/ecmascript" xlink:href="../../svg.min.js"/>
<svg id="graph" class="graph">
<g id="viewport">
<title>Arcane::VtkMeshIOService</title>
<!-- Node1 -->
<g id="Node000001" class="node">
<title>Node1</title>
<g id="a_Node000001"><a xlink:title="Lecteur des fichiers de maillage au format Vtk historique (legacy).">
<polygon fill="#999999" stroke="transparent" points="206.5,-244 36.5,-244 36.5,0 206.5,0 206.5,-244"/>
<text text-anchor="start" x="56.5" y="-232" font-family="Helvetica,sans-Serif" font-size="10.00">Arcane::VtkMeshIOService</text>
<text text-anchor="start" x="119.5" y="-217" font-family="Helvetica,sans-Serif" font-size="10.00"> </text>
<text text-anchor="start" x="40.5" y="-202" font-family="Helvetica,sans-Serif" font-size="10.00">+</text>
<text text-anchor="start" x="53.5" y="-202" font-family="Helvetica,sans-Serif" font-size="10.00">VtkMeshIOService()</text>
<text text-anchor="start" x="40.5" y="-187" font-family="Helvetica,sans-Serif" font-size="10.00">+</text>
<text text-anchor="start" x="53.5" y="-187" font-family="Helvetica,sans-Serif" font-size="10.00">build()</text>
<text text-anchor="start" x="40.5" y="-172" font-family="Helvetica,sans-Serif" font-size="10.00">+</text>
<text text-anchor="start" x="53.5" y="-172" font-family="Helvetica,sans-Serif" font-size="10.00">readMesh()</text>
<text text-anchor="start" x="43" y="-157" font-family="Helvetica,sans-Serif" font-size="10.00">&#45;</text>
<text text-anchor="start" x="53.5" y="-157" font-family="Helvetica,sans-Serif" font-size="10.00">_readStructuredGrid()</text>
<text text-anchor="start" x="43" y="-142" font-family="Helvetica,sans-Serif" font-size="10.00">&#45;</text>
<text text-anchor="start" x="53.5" y="-142" font-family="Helvetica,sans-Serif" font-size="10.00">_readUnstructuredGrid()</text>
<text text-anchor="start" x="43" y="-127" font-family="Helvetica,sans-Serif" font-size="10.00">&#45;</text>
<text text-anchor="start" x="53.5" y="-127" font-family="Helvetica,sans-Serif" font-size="10.00">_readCellVariable()</text>
<text text-anchor="start" x="43" y="-112" font-family="Helvetica,sans-Serif" font-size="10.00">&#45;</text>
<text text-anchor="start" x="53.5" y="-112" font-family="Helvetica,sans-Serif" font-size="10.00">_readItemGroup()</text>
<text text-anchor="start" x="43" y="-97" font-family="Helvetica,sans-Serif" font-size="10.00">&#45;</text>
<text text-anchor="start" x="53.5" y="-97" font-family="Helvetica,sans-Serif" font-size="10.00">_readNodeGroup()</text>
<text text-anchor="start" x="43" y="-82" font-family="Helvetica,sans-Serif" font-size="10.00">&#45;</text>
<text text-anchor="start" x="53.5" y="-82" font-family="Helvetica,sans-Serif" font-size="10.00">_createFaceGroup()</text>
<text text-anchor="start" x="43" y="-67" font-family="Helvetica,sans-Serif" font-size="10.00">&#45;</text>
<text text-anchor="start" x="53.5" y="-67" font-family="Helvetica,sans-Serif" font-size="10.00">_readData()</text>
<text text-anchor="start" x="43" y="-52" font-family="Helvetica,sans-Serif" font-size="10.00">&#45;</text>
<text text-anchor="start" x="53.5" y="-52" font-family="Helvetica,sans-Serif" font-size="10.00">_readNodesUnstructuredGrid()</text>
<text text-anchor="start" x="43" y="-37" font-family="Helvetica,sans-Serif" font-size="10.00">&#45;</text>
<text text-anchor="start" x="53.5" y="-37" font-family="Helvetica,sans-Serif" font-size="10.00">_readCellsUnstructuredGrid()</text>
<text text-anchor="start" x="43" y="-22" font-family="Helvetica,sans-Serif" font-size="10.00">&#45;</text>
<text text-anchor="start" x="53.5" y="-22" font-family="Helvetica,sans-Serif" font-size="10.00">_readFacesMesh()</text>
<text text-anchor="start" x="43" y="-7" font-family="Helvetica,sans-Serif" font-size="10.00">&#45;</text>
<text text-anchor="start" x="53.5" y="-7" font-family="Helvetica,sans-Serif" font-size="10.00">_readMetadata()</text>
<polygon fill="#666666" stroke="#666666" points="36.5,-227 36.5,-227 206.5,-227 206.5,-227 36.5,-227"/>
<polygon fill="#666666" stroke="#666666" points="36.5,-212 36.5,-212 206.5,-212 206.5,-212 36.5,-212"/>
<polygon fill="none" stroke="#666666" points="36.5,0 36.5,-244 206.5,-244 206.5,0 36.5,0"/>
</a>
</g>
</g>
<!-- Node2 -->
<g id="Node000002" class="node">
<title>Node2</title>
<g id="a_Node000002"><a xlink:href="../../d1/d17/classArcane_1_1TraceAccessor.html" target="_top" xlink:title="Classe d&#39;accès aux traces.">
<polygon fill="white" stroke="transparent" points="191.5,-510 51.5,-510 51.5,-281 191.5,-281 191.5,-510"/>
<text text-anchor="start" x="67" y="-497.5" font-family="Helvetica,sans-Serif" font-size="10.00">Arcane::TraceAccessor</text>
<text text-anchor="start" x="58" y="-482.5" font-family="Helvetica,sans-Serif" font-size="10.00">&#45;</text>
<text text-anchor="start" x="68.5" y="-482.5" font-family="Helvetica,sans-Serif" font-size="10.00">m_local_verbose_level</text>
<text text-anchor="start" x="55.5" y="-467.5" font-family="Helvetica,sans-Serif" font-size="10.00">+</text>
<text text-anchor="start" x="68.5" y="-467.5" font-family="Helvetica,sans-Serif" font-size="10.00">TraceAccessor()</text>
<text text-anchor="start" x="55.5" y="-452.5" font-family="Helvetica,sans-Serif" font-size="10.00">+</text>
<text text-anchor="start" x="68.5" y="-452.5" font-family="Helvetica,sans-Serif" font-size="10.00">TraceAccessor()</text>
<text text-anchor="start" x="55.5" y="-437.5" font-family="Helvetica,sans-Serif" font-size="10.00">+</text>
<text text-anchor="start" x="68.5" y="-437.5" font-family="Helvetica,sans-Serif" font-size="10.00">operator=()</text>
<text text-anchor="start" x="55.5" y="-422.5" font-family="Helvetica,sans-Serif" font-size="10.00">+</text>
<text text-anchor="start" x="68.5" y="-422.5" font-family="Helvetica,sans-Serif" font-size="10.00">~TraceAccessor()</text>
<text text-anchor="start" x="55.5" y="-407.5" font-family="Helvetica,sans-Serif" font-size="10.00">+</text>
<text text-anchor="start" x="68.5" y="-407.5" font-family="Helvetica,sans-Serif" font-size="10.00">traceMng()</text>
<text text-anchor="start" x="55.5" y="-392.5" font-family="Helvetica,sans-Serif" font-size="10.00">+</text>
<text text-anchor="start" x="68.5" y="-392.5" font-family="Helvetica,sans-Serif" font-size="10.00">info()</text>
<text text-anchor="start" x="55.5" y="-377.5" font-family="Helvetica,sans-Serif" font-size="10.00">+</text>
<text text-anchor="start" x="68.5" y="-377.5" font-family="Helvetica,sans-Serif" font-size="10.00">pinfo()</text>
<text text-anchor="start" x="55.5" y="-362.5" font-family="Helvetica,sans-Serif" font-size="10.00">+</text>
<text text-anchor="start" x="68.5" y="-362.5" font-family="Helvetica,sans-Serif" font-size="10.00">info()</text>
<text text-anchor="start" x="55.5" y="-347.5" font-family="Helvetica,sans-Serif" font-size="10.00">+</text>
<text text-anchor="start" x="68.5" y="-347.5" font-family="Helvetica,sans-Serif" font-size="10.00">pinfo()</text>
<text text-anchor="start" x="55.5" y="-332.5" font-family="Helvetica,sans-Serif" font-size="10.00">+</text>
<text text-anchor="start" x="68.5" y="-332.5" font-family="Helvetica,sans-Serif" font-size="10.00">info()</text>
<text text-anchor="start" x="68.5" y="-317.5" font-family="Helvetica,sans-Serif" font-size="10.00">et 15 de plus...</text>
<text text-anchor="start" x="55.5" y="-302.5" font-family="Helvetica,sans-Serif" font-size="10.00">#</text>
<text text-anchor="start" x="68.5" y="-302.5" font-family="Helvetica,sans-Serif" font-size="10.00">_setLocalVerboseLevel()</text>
<text text-anchor="start" x="55.5" y="-287.5" font-family="Helvetica,sans-Serif" font-size="10.00">#</text>
<text text-anchor="start" x="68.5" y="-287.5" font-family="Helvetica,sans-Serif" font-size="10.00">_localVerboseLevel()</text>
<polygon fill="#666666" stroke="#666666" points="51.5,-492.5 51.5,-492.5 191.5,-492.5 191.5,-492.5 51.5,-492.5"/>
<polygon fill="#666666" stroke="#666666" points="51.5,-477.5 51.5,-477.5 66.5,-477.5 66.5,-477.5 51.5,-477.5"/>
<polygon fill="#666666" stroke="#666666" points="66.5,-477.5 66.5,-477.5 191.5,-477.5 191.5,-477.5 66.5,-477.5"/>
<polygon fill="none" stroke="#666666" points="51.5,-281 51.5,-510 191.5,-510 191.5,-281 51.5,-281"/>
</a>
</g>
</g>
<!-- Node2&#45;&gt;Node1 -->
<g id="edge1_Node000001_Node000002" class="edge">
<title>Node2&#45;&gt;Node1</title>
<g id="a_edge1_Node000001_Node000002"><a xlink:title=" ">
<path fill="none" stroke="#63b8ff" d="M121.5,-270.71C121.5,-261.97 121.5,-253.16 121.5,-244.43"/>
<polygon fill="none" stroke="#63b8ff" points="118,-270.93 121.5,-280.93 125,-270.93 118,-270.93"/>
</a>
</g>
</g>
<!-- Node3 -->
<g id="Node000003" class="node">
<title>Node3</title>
<g id="a_Node000003"><a xlink:href="../../d6/da9/classArcane_1_1Ref.html" target="_top" xlink:title=" ">
<polygon fill="white" stroke="transparent" points="185,-1337 58,-1337 58,-557 185,-557 185,-1337"/>
<text text-anchor="start" x="71" y="-1325" font-family="Helvetica,sans-Serif" font-size="10.00">Arcane::Ref&lt; Arcane</text>
<text text-anchor="start" x="88.5" y="-1314" font-family="Helvetica,sans-Serif" font-size="10.00">::ITraceMng &gt;</text>
<text text-anchor="start" x="62.5" y="-1299" font-family="Helvetica,sans-Serif" font-size="10.00">+</text>
<text text-anchor="start" x="75.5" y="-1299" font-family="Helvetica,sans-Serif" font-size="10.00">RefType</text>
<text text-anchor="start" x="62.5" y="-1284" font-family="Helvetica,sans-Serif" font-size="10.00">+</text>
<text text-anchor="start" x="75.5" y="-1284" font-family="Helvetica,sans-Serif" font-size="10.00">RefType</text>
<text text-anchor="start" x="62.5" y="-1269" font-family="Helvetica,sans-Serif" font-size="10.00">+</text>
<text text-anchor="start" x="75.5" y="-1269" font-family="Helvetica,sans-Serif" font-size="10.00">RefType</text>
<text text-anchor="start" x="62.5" y="-1254" font-family="Helvetica,sans-Serif" font-size="10.00">+</text>
<text text-anchor="start" x="75.5" y="-1254" font-family="Helvetica,sans-Serif" font-size="10.00">Ref()</text>
<text text-anchor="start" x="62.5" y="-1239" font-family="Helvetica,sans-Serif" font-size="10.00">+</text>
<text text-anchor="start" x="75.5" y="-1239" font-family="Helvetica,sans-Serif" font-size="10.00">Ref()</text>
<text text-anchor="start" x="62.5" y="-1224" font-family="Helvetica,sans-Serif" font-size="10.00">+</text>
<text text-anchor="start" x="75.5" y="-1224" font-family="Helvetica,sans-Serif" font-size="10.00">Ref()</text>
<text text-anchor="start" x="62.5" y="-1209" font-family="Helvetica,sans-Serif" font-size="10.00">+</text>
<text text-anchor="start" x="75.5" y="-1209" font-family="Helvetica,sans-Serif" font-size="10.00">operator=()</text>
<text text-anchor="start" x="62.5" y="-1194" font-family="Helvetica,sans-Serif" font-size="10.00">+</text>
<text text-anchor="start" x="75.5" y="-1194" font-family="Helvetica,sans-Serif" font-size="10.00">~Ref()</text>
<text text-anchor="start" x="62.5" y="-1179" font-family="Helvetica,sans-Serif" font-size="10.00">+</text>
<text text-anchor="start" x="75.5" y="-1179" font-family="Helvetica,sans-Serif" font-size="10.00">operator bool()</text>
<text text-anchor="start" x="62.5" y="-1164" font-family="Helvetica,sans-Serif" font-size="10.00">+</text>
<text text-anchor="start" x="75.5" y="-1164" font-family="Helvetica,sans-Serif" font-size="10.00">get()</text>
<text text-anchor="start" x="62.5" y="-1149" font-family="Helvetica,sans-Serif" font-size="10.00">+</text>
<text text-anchor="start" x="75.5" y="-1149" font-family="Helvetica,sans-Serif" font-size="10.00">isNull()</text>
<text text-anchor="start" x="62.5" y="-1134" font-family="Helvetica,sans-Serif" font-size="10.00">+</text>
<text text-anchor="start" x="75.5" y="-1134" font-family="Helvetica,sans-Serif" font-size="10.00">operator&#45;&gt;()</text>
<text text-anchor="start" x="62.5" y="-1119" font-family="Helvetica,sans-Serif" font-size="10.00">+</text>
<text text-anchor="start" x="75.5" y="-1119" font-family="Helvetica,sans-Serif" font-size="10.00">reset()</text>
<text text-anchor="start" x="75.5" y="-1104" font-family="Helvetica,sans-Serif" font-size="10.00">et 26 de plus...</text>
<text text-anchor="start" x="62.5" y="-1089" font-family="Helvetica,sans-Serif" font-size="10.00">+</text>
<text text-anchor="start" x="75.5" y="-1089" font-family="Helvetica,sans-Serif" font-size="10.00">create()</text>
<text text-anchor="start" x="62.5" y="-1074" font-family="Helvetica,sans-Serif" font-size="10.00">+</text>
<text text-anchor="start" x="75.5" y="-1074" font-family="Helvetica,sans-Serif" font-size="10.00">createRef()</text>
<text text-anchor="start" x="62.5" y="-1059" font-family="Helvetica,sans-Serif" font-size="10.00">+</text>
<text text-anchor="start" x="75.5" y="-1059" font-family="Helvetica,sans-Serif" font-size="10.00">createWithHandle()</text>
<text text-anchor="start" x="62.5" y="-1044" font-family="Helvetica,sans-Serif" font-size="10.00">+</text>
<text text-anchor="start" x="75.5" y="-1044" font-family="Helvetica,sans-Serif" font-size="10.00">_createNoDestroy()</text>
<text text-anchor="start" x="62.5" y="-1029" font-family="Helvetica,sans-Serif" font-size="10.00">+</text>
<text text-anchor="start" x="75.5" y="-1029" font-family="Helvetica,sans-Serif" font-size="10.00">create()</text>
<text text-anchor="start" x="62.5" y="-1014" font-family="Helvetica,sans-Serif" font-size="10.00">+</text>
<text text-anchor="start" x="75.5" y="-1014" font-family="Helvetica,sans-Serif" font-size="10.00">createRef()</text>
<text text-anchor="start" x="62.5" y="-999" font-family="Helvetica,sans-Serif" font-size="10.00">+</text>
<text text-anchor="start" x="75.5" y="-999" font-family="Helvetica,sans-Serif" font-size="10.00">createWithHandle()</text>
<text text-anchor="start" x="62.5" y="-984" font-family="Helvetica,sans-Serif" font-size="10.00">+</text>
<text text-anchor="start" x="75.5" y="-984" font-family="Helvetica,sans-Serif" font-size="10.00">_createNoDestroy()</text>
<text text-anchor="start" x="62.5" y="-969" font-family="Helvetica,sans-Serif" font-size="10.00">+</text>
<text text-anchor="start" x="75.5" y="-969" font-family="Helvetica,sans-Serif" font-size="10.00">create()</text>
<text text-anchor="start" x="62.5" y="-954" font-family="Helvetica,sans-Serif" font-size="10.00">+</text>
<text text-anchor="start" x="75.5" y="-954" font-family="Helvetica,sans-Serif" font-size="10.00">createRef()</text>
<text text-anchor="start" x="62.5" y="-939" font-family="Helvetica,sans-Serif" font-size="10.00">+</text>
<text text-anchor="start" x="75.5" y="-939" font-family="Helvetica,sans-Serif" font-size="10.00">createWithHandle()</text>
<text text-anchor="start" x="62.5" y="-924" font-family="Helvetica,sans-Serif" font-size="10.00">+</text>
<text text-anchor="start" x="75.5" y="-924" font-family="Helvetica,sans-Serif" font-size="10.00">_createNoDestroy()</text>
<text text-anchor="start" x="65" y="-909" font-family="Helvetica,sans-Serif" font-size="10.00">&#45;</text>
<text text-anchor="start" x="75.5" y="-909" font-family="Helvetica,sans-Serif" font-size="10.00">Ref()</text>
<text text-anchor="start" x="65" y="-894" font-family="Helvetica,sans-Serif" font-size="10.00">&#45;</text>
<text text-anchor="start" x="75.5" y="-894" font-family="Helvetica,sans-Serif" font-size="10.00">Ref()</text>
<text text-anchor="start" x="65" y="-879" font-family="Helvetica,sans-Serif" font-size="10.00">&#45;</text>
<text text-anchor="start" x="75.5" y="-879" font-family="Helvetica,sans-Serif" font-size="10.00">Ref()</text>
<text text-anchor="start" x="65" y="-864" font-family="Helvetica,sans-Serif" font-size="10.00">&#45;</text>
<text text-anchor="start" x="75.5" y="-864" font-family="Helvetica,sans-Serif" font-size="10.00">Ref()</text>
<text text-anchor="start" x="65" y="-849" font-family="Helvetica,sans-Serif" font-size="10.00">&#45;</text>
<text text-anchor="start" x="75.5" y="-849" font-family="Helvetica,sans-Serif" font-size="10.00">Ref()</text>
<text text-anchor="start" x="65" y="-834" font-family="Helvetica,sans-Serif" font-size="10.00">&#45;</text>
<text text-anchor="start" x="75.5" y="-834" font-family="Helvetica,sans-Serif" font-size="10.00">Ref()</text>
<text text-anchor="start" x="65" y="-819" font-family="Helvetica,sans-Serif" font-size="10.00">&#45;</text>
<text text-anchor="start" x="75.5" y="-819" font-family="Helvetica,sans-Serif" font-size="10.00">Ref()</text>
<text text-anchor="start" x="65" y="-804" font-family="Helvetica,sans-Serif" font-size="10.00">&#45;</text>
<text text-anchor="start" x="75.5" y="-804" font-family="Helvetica,sans-Serif" font-size="10.00">Ref()</text>
<text text-anchor="start" x="65" y="-789" font-family="Helvetica,sans-Serif" font-size="10.00">&#45;</text>
<text text-anchor="start" x="75.5" y="-789" font-family="Helvetica,sans-Serif" font-size="10.00">Ref()</text>
<text text-anchor="start" x="65" y="-774" font-family="Helvetica,sans-Serif" font-size="10.00">&#45;</text>
<text text-anchor="start" x="75.5" y="-774" font-family="Helvetica,sans-Serif" font-size="10.00">Ref()</text>
<text text-anchor="start" x="65" y="-759" font-family="Helvetica,sans-Serif" font-size="10.00">&#45;</text>
<text text-anchor="start" x="75.5" y="-759" font-family="Helvetica,sans-Serif" font-size="10.00">Ref()</text>
<text text-anchor="start" x="65" y="-744" font-family="Helvetica,sans-Serif" font-size="10.00">&#45;</text>
<text text-anchor="start" x="75.5" y="-744" font-family="Helvetica,sans-Serif" font-size="10.00">Ref()</text>
<text text-anchor="start" x="65" y="-729" font-family="Helvetica,sans-Serif" font-size="10.00">&#45;</text>
<text text-anchor="start" x="75.5" y="-729" font-family="Helvetica,sans-Serif" font-size="10.00">_createBasicDeleter()</text>
<text text-anchor="start" x="65" y="-714" font-family="Helvetica,sans-Serif" font-size="10.00">&#45;</text>
<text text-anchor="start" x="75.5" y="-714" font-family="Helvetica,sans-Serif" font-size="10.00">_createBasicDeleter()</text>
<text text-anchor="start" x="65" y="-699" font-family="Helvetica,sans-Serif" font-size="10.00">&#45;</text>
<text text-anchor="start" x="75.5" y="-699" font-family="Helvetica,sans-Serif" font-size="10.00">_getDeleter()</text>
<text text-anchor="start" x="65" y="-684" font-family="Helvetica,sans-Serif" font-size="10.00">&#45;</text>
<text text-anchor="start" x="75.5" y="-684" font-family="Helvetica,sans-Serif" font-size="10.00">_getDeleter()</text>
<text text-anchor="start" x="65" y="-669" font-family="Helvetica,sans-Serif" font-size="10.00">&#45;</text>
<text text-anchor="start" x="75.5" y="-669" font-family="Helvetica,sans-Serif" font-size="10.00">_createBasicDeleter()</text>
<text text-anchor="start" x="65" y="-654" font-family="Helvetica,sans-Serif" font-size="10.00">&#45;</text>
<text text-anchor="start" x="75.5" y="-654" font-family="Helvetica,sans-Serif" font-size="10.00">_createBasicDeleter()</text>
<text text-anchor="start" x="65" y="-639" font-family="Helvetica,sans-Serif" font-size="10.00">&#45;</text>
<text text-anchor="start" x="75.5" y="-639" font-family="Helvetica,sans-Serif" font-size="10.00">_getDeleter()</text>
<text text-anchor="start" x="65" y="-624" font-family="Helvetica,sans-Serif" font-size="10.00">&#45;</text>
<text text-anchor="start" x="75.5" y="-624" font-family="Helvetica,sans-Serif" font-size="10.00">_getDeleter()</text>
<text text-anchor="start" x="65" y="-609" font-family="Helvetica,sans-Serif" font-size="10.00">&#45;</text>
<text text-anchor="start" x="75.5" y="-609" font-family="Helvetica,sans-Serif" font-size="10.00">_createBasicDeleter()</text>
<text text-anchor="start" x="65" y="-594" font-family="Helvetica,sans-Serif" font-size="10.00">&#45;</text>
<text text-anchor="start" x="75.5" y="-594" font-family="Helvetica,sans-Serif" font-size="10.00">_createBasicDeleter()</text>
<text text-anchor="start" x="65" y="-579" font-family="Helvetica,sans-Serif" font-size="10.00">&#45;</text>
<text text-anchor="start" x="75.5" y="-579" font-family="Helvetica,sans-Serif" font-size="10.00">_getDeleter()</text>
<text text-anchor="start" x="65" y="-564" font-family="Helvetica,sans-Serif" font-size="10.00">&#45;</text>
<text text-anchor="start" x="75.5" y="-564" font-family="Helvetica,sans-Serif" font-size="10.00">_getDeleter()</text>
<polygon fill="#666666" stroke="#666666" points="58.5,-1309 58.5,-1309 185.5,-1309 185.5,-1309 58.5,-1309"/>
<polygon fill="#666666" stroke="#666666" points="58.5,-1264 58.5,-1264 73.5,-1264 73.5,-1264 58.5,-1264"/>
<polygon fill="#666666" stroke="#666666" points="73.5,-1264 73.5,-1264 185.5,-1264 185.5,-1264 73.5,-1264"/>
<polygon fill="none" stroke="#666666" points="58,-557 58,-1337 185,-1337 185,-557 58,-557"/>
</a>
</g>
</g>
<!-- Node3&#45;&gt;Node2 -->
<g id="edge2_Node000002_Node000003" class="edge">
<title>Node3&#45;&gt;Node2</title>
<g id="a_edge2_Node000002_Node000003"><a xlink:title=" ">
<path fill="none" stroke="#63b8ff" d="M121.5,-556.92C121.5,-545.01 121.5,-533.45 121.5,-522.36"/>
<polygon fill="none" stroke="#63b8ff" points="121.5,-522.04 117.5,-516.04 121.5,-510.04 125.5,-516.04 121.5,-522.04"/>
</a>
</g>
<text text-anchor="middle" x="145" y="-531" font-family="Helvetica,sans-Serif" font-size="10.00" fill="grey"> &#45;m_trace</text>
</g>
<!-- Node4 -->
<g id="Node000004" class="node">
<title>Node4</title>
<g id="a_Node000004"><a xlink:href="../../d2/db9/classArcane_1_1RefBase.html" target="_top" xlink:title="Classe de base de gestion d&#39;une référence.">
<polygon fill="white" stroke="transparent" points="91,-1438.5 0,-1438.5 0,-1389.5 91,-1389.5 91,-1438.5"/>
<text text-anchor="start" x="5.5" y="-1426" font-family="Helvetica,sans-Serif" font-size="10.00">Arcane::RefBase</text>
<text text-anchor="start" x="44" y="-1411" font-family="Helvetica,sans-Serif" font-size="10.00"> </text>
<text text-anchor="start" x="44" y="-1396" font-family="Helvetica,sans-Serif" font-size="10.00"> </text>
<polygon fill="#666666" stroke="#666666" points="0.5,-1421 0.5,-1421 91.5,-1421 91.5,-1421 0.5,-1421"/>
<polygon fill="#666666" stroke="#666666" points="0.5,-1406 0.5,-1406 91.5,-1406 91.5,-1406 0.5,-1406"/>
<polygon fill="none" stroke="#666666" points="0,-1389.5 0,-1438.5 91,-1438.5 91,-1389.5 0,-1389.5"/>
</a>
</g>
</g>
<!-- Node4&#45;&gt;Node3 -->
<g id="edge3_Node000003_Node000004" class="edge">
<title>Node4&#45;&gt;Node3</title>
<g id="a_edge3_Node000003_Node000004"><a xlink:title=" ">
<path fill="none" stroke="#63b8ff" d="M51.01,-1379.28C52.93,-1367.55 55.27,-1353.2 57.93,-1336.95"/>
<polygon fill="none" stroke="#63b8ff" points="47.53,-1378.87 49.37,-1389.3 54.44,-1380 47.53,-1378.87"/>
</a>
</g>
</g>
<!-- Node5 -->
<g id="Node000005" class="node">
<title>Node5</title>
<g id="a_Node000005"><a xlink:href="../../d4/de6/structArcane_1_1RefTraitsTagId.html" target="_top" xlink:title=" ">
<polygon fill="white" stroke="transparent" points="285.5,-1444 109.5,-1444 109.5,-1384 285.5,-1384 285.5,-1444"/>
<text text-anchor="start" x="114.5" y="-1432" font-family="Helvetica,sans-Serif" font-size="10.00">Arcane::RefTraitsTagId</text>
<text text-anchor="start" x="114.5" y="-1421" font-family="Helvetica,sans-Serif" font-size="10.00">&lt; Arcane::ITraceMng, ImplTagId &gt;</text>
<text text-anchor="start" x="195.5" y="-1406" font-family="Helvetica,sans-Serif" font-size="10.00"> </text>
<text text-anchor="start" x="195.5" y="-1391" font-family="Helvetica,sans-Serif" font-size="10.00"> </text>
<polygon fill="#bfbfbf" stroke="#bfbfbf" points="109.5,-1416 109.5,-1416 285.5,-1416 285.5,-1416 109.5,-1416"/>
<polygon fill="#bfbfbf" stroke="#bfbfbf" points="109.5,-1401 109.5,-1401 285.5,-1401 285.5,-1401 109.5,-1401"/>
<polygon fill="none" stroke="#bfbfbf" points="109.5,-1384 109.5,-1444 285.5,-1444 285.5,-1384 109.5,-1384"/>
</a>
</g>
</g>
<!-- Node5&#45;&gt;Node3 -->
<g id="edge4_Node000003_Node000005" class="edge">
<title>Node5&#45;&gt;Node3</title>
<g id="a_edge4_Node000003_Node000005"><a xlink:title=" ">
<path fill="none" stroke="#63b8ff" d="M192.75,-1383.91C191.16,-1374.22 189.24,-1362.43 187.04,-1349.02"/>
<polygon fill="none" stroke="#63b8ff" points="186.99,-1348.68 182.07,-1343.4 185.05,-1336.84 189.97,-1342.11 186.99,-1348.68"/>
</a>
</g>
<text text-anchor="middle" x="221.5" y="-1358" font-family="Helvetica,sans-Serif" font-size="10.00" fill="grey"> &#45;m_instance</text>
</g>
</g>
</svg>

<g id="navigator" transform="translate(0 0)" fill="#404254">
  <rect fill="#f2f5e9" fill-opacity="0.5" stroke="#606060" stroke-width=".5" x="0" y="0" width="60" height="60"/>
  <use id="zoomplus" xlink:href="#zoomPlus" x="17" y="9" onmousedown="handleZoom(evt,'in')"/>
  <use id="zoomminus" xlink:href="#zoomMin" x="42" y="9" onmousedown="handleZoom(evt,'out')"/>
  <use id="reset" xlink:href="#resetDef" x="30" y="36" onmousedown="handleReset()"/>
   <use id="arrowup" xlink:href="#arrowUp" x="0" y="0" onmousedown="handlePan(0,-1)"/>
  <use id="arrowright" xlink:href="#arrowRight" x="0" y="0" onmousedown="handlePan(1,0)"/>
  <use id="arrowdown" xlink:href="#arrowDown" x="0" y="0" onmousedown="handlePan(0,1)"/>
  <use id="arrowleft" xlink:href="#arrowLeft" x="0" y="0" onmousedown="handlePan(-1,0)"/>
</g>
<svg viewBox="0 0 15 15" width="100%" height="30px" preserveAspectRatio="xMaxYMin meet">
 <g id="arrow_out" transform="scale(0.3 0.3)">
  <a xlink:href="classArcane_1_1VtkMeshIOService__coll__graph_org.svg" target="_base">
   <rect id="button" ry="5" rx="5" y="6" x="6" height="38" width="38"
        fill="#f2f5e9" fill-opacity="0.5" stroke="#606060" stroke-width="1.0"/>
   <path id="arrow"
     d="M 11.500037,31.436501 C 11.940474,20.09759 22.043105,11.32322 32.158766,21.979434 L 37.068811,17.246167 C 37.068811,17.246167 37.088388,32 37.088388,32 L 22.160133,31.978069 C 22.160133,31.978069 26.997745,27.140456 26.997745,27.140456 C 18.528582,18.264221 13.291696,25.230495 11.500037,31.436501 z"
     style="fill:#404040;"/>
  </a>
 </g>
</svg>

<style type='text/css'>
<![CDATA[
[data-mouse-over-selected='false'] { opacity: 0.7; }
[data-mouse-over-selected='true']  { opacity: 1.0; }
]]>
</style>
<script type="application/ecmascript"><![CDATA[
document.addEventListener('DOMContentLoaded', (event) => {
  highlightEdges();
  highlightAdjacentNodes();
});
]]></script>
</svg>
