<?xml version="1.0" encoding="UTF-8" standalone="no"?>
<!DOCTYPE svg PUBLIC "-//W3C//DTD SVG 1.1//EN"
 "http://www.w3.org/Graphics/SVG/1.1/DTD/svg11.dtd">
<!-- Generated by graphviz version 2.43.0 (0)
 -->
<!-- Title: Arcane::geometric::Hexagon6ElementConstView Pages: 1 -->
<svg width="183pt" height="194pt"
 viewBox="0.00 0.00 183.00 194.00" xmlns="http://www.w3.org/2000/svg" xmlns:xlink="http://www.w3.org/1999/xlink">

<svg id="main" version="1.1" xmlns="http://www.w3.org/2000/svg" xmlns:xlink="http://www.w3.org/1999/xlink" xml:space="preserve">

<style type="text/css"><![CDATA[
.node, .edge {opacity: 0.7;}
.node.selected, .edge.selected {opacity: 1;}
.edge:hover path { stroke: red; }
.edge:hover polygon { stroke: red; fill: red; }
]]></style>
<script type="application/ecmascript" xlink:href="../../svg.min.js"/>
<svg id="graph" class="graph">
<g id="graph0" class="graph" transform="scale(1 1) rotate(0) translate(4 190)">
<title>Arcane::geometric::Hexagon6ElementConstView</title>
<!-- Node1 -->
<g id="Node000001" class="node">
<title>Node1</title>
<g id="a_Node000001"><a xlink:title="Vue constante sur les éléments géométriques de type GeomType::Hexagon6.">
<polygon fill="#999999" stroke="transparent" points="173,-60 2,-60 2,0 173,0 173,-60"/>
<text text-anchor="start" x="17" y="-48" font-family="Helvetica,sans-Serif" font-size="10.00">Arcane::geometric::</text>
<text text-anchor="start" x="17" y="-37" font-family="Helvetica,sans-Serif" font-size="10.00">Hexagon6ElementConstView</text>
<text text-anchor="start" x="86" y="-22" font-family="Helvetica,sans-Serif" font-size="10.00"> </text>
<text text-anchor="start" x="6.5" y="-7" font-family="Helvetica,sans-Serif" font-size="10.00">+</text>
<text text-anchor="start" x="19.5" y="-7" font-family="Helvetica,sans-Serif" font-size="10.00">Hexagon6ElementConstView()</text>
<polygon fill="#666666" stroke="#666666" points="2.5,-32 2.5,-32 173.5,-32 173.5,-32 2.5,-32"/>
<polygon fill="#666666" stroke="#666666" points="2.5,-17 2.5,-17 173.5,-17 173.5,-17 2.5,-17"/>
<polygon fill="none" stroke="#666666" points="2,0 2,-60 173,-60 173,0 2,0"/>
</a>
</g>
</g>
<!-- Node2 -->
<g id="Node000002" class="node">
<title>Node2</title>
<g id="a_Node000002"><a xlink:href="../../d4/d05/classArcane_1_1geometric_1_1GeomElementConstViewBase.html" target="_top" xlink:title="Classe de base des vues constantes sur des éléments géométriques.">
<polygon fill="white" stroke="transparent" points="175,-186 0,-186 0,-96 175,-96 175,-186"/>
<text text-anchor="start" x="15" y="-174" font-family="Helvetica,sans-Serif" font-size="10.00">Arcane::geometric::</text>
<text text-anchor="start" x="15" y="-163" font-family="Helvetica,sans-Serif" font-size="10.00">GeomElementConstViewBase</text>
<text text-anchor="start" x="4.5" y="-148" font-family="Helvetica,sans-Serif" font-size="10.00">#</text>
<text text-anchor="start" x="17.5" y="-148" font-family="Helvetica,sans-Serif" font-size="10.00">m_s</text>
<text text-anchor="start" x="4.5" y="-133" font-family="Helvetica,sans-Serif" font-size="10.00">+</text>
<text text-anchor="start" x="17.5" y="-133" font-family="Helvetica,sans-Serif" font-size="10.00">GeomElementConstViewBase()</text>
<text text-anchor="start" x="4.5" y="-118" font-family="Helvetica,sans-Serif" font-size="10.00">+</text>
<text text-anchor="start" x="17.5" y="-118" font-family="Helvetica,sans-Serif" font-size="10.00">operator[]()</text>
<text text-anchor="start" x="4.5" y="-103" font-family="Helvetica,sans-Serif" font-size="10.00">+</text>
<text text-anchor="start" x="17.5" y="-103" font-family="Helvetica,sans-Serif" font-size="10.00">s()</text>
<polygon fill="#666666" stroke="#666666" points="0.5,-158 0.5,-158 175.5,-158 175.5,-158 0.5,-158"/>
<polygon fill="#666666" stroke="#666666" points="0.5,-143 0.5,-143 15.5,-143 15.5,-143 0.5,-143"/>
<polygon fill="#666666" stroke="#666666" points="15.5,-143 15.5,-143 175.5,-143 175.5,-143 15.5,-143"/>
<polygon fill="none" stroke="#666666" points="0,-96 0,-186 175,-186 175,-96 0,-96"/>
</a>
</g>
</g>
<!-- Node2&#45;&gt;Node1 -->
<g id="edge1_Node000001_Node000002" class="edge">
<title>Node2&#45;&gt;Node1</title>
<g id="a_edge1_Node000001_Node000002"><a xlink:title=" ">
<path fill="none" stroke="#63b8ff" d="M87.5,-85.7C87.5,-76.89 87.5,-68.07 87.5,-60.17"/>
<polygon fill="none" stroke="#63b8ff" points="84,-85.98 87.5,-95.98 91,-85.98 84,-85.98"/>
</a>
</g>
</g>
</g>
</svg>
</svg>

<style type='text/css'>
<![CDATA[
[data-mouse-over-selected='false'] { opacity: 0.7; }
[data-mouse-over-selected='true']  { opacity: 1.0; }
]]>
</style>
<script type="application/ecmascript"><![CDATA[
document.addEventListener('DOMContentLoaded', (event) => {
  highlightEdges();
  highlightAdjacentNodes();
});
]]></script>
</svg>
