<?xml version="1.0" encoding="UTF-8" standalone="no"?>
<!DOCTYPE svg PUBLIC "-//W3C//DTD SVG 1.1//EN"
 "http://www.w3.org/Graphics/SVG/1.1/DTD/svg11.dtd">
<!-- Generated by graphviz version 2.43.0 (0)
 -->
<!-- Title: Arcane::Alina::RelaxationRuntime&lt; Backend &gt; Pages: 1 -->
<svg width="166pt" height="329pt"
 viewBox="0.00 0.00 166.00 329.00" xmlns="http://www.w3.org/2000/svg" xmlns:xlink="http://www.w3.org/1999/xlink">

<svg id="main" version="1.1" xmlns="http://www.w3.org/2000/svg" xmlns:xlink="http://www.w3.org/1999/xlink" xml:space="preserve">

<style type="text/css"><![CDATA[
.node, .edge {opacity: 0.7;}
.node.selected, .edge.selected {opacity: 1;}
.edge:hover path { stroke: red; }
.edge:hover polygon { stroke: red; fill: red; }
]]></style>
<script type="application/ecmascript" xlink:href="../../svg.min.js"/>
<svg id="graph" class="graph">
<g id="graph0" class="graph" transform="scale(1 1) rotate(0) translate(4 325)">
<title>Arcane::Alina::RelaxationRuntime&lt; Backend &gt;</title>
<!-- Node1 -->
<g id="Node000001" class="node">
<title>Node1</title>
<g id="a_Node000001"><a xlink:title="Runtime configurable relaxation.">
<polygon fill="#999999" stroke="transparent" points="146,-210 12,-210 12,0 146,0 146,-210"/>
<text text-anchor="start" x="17" y="-198" font-family="Helvetica,sans-Serif" font-size="10.00">Arcane::Alina::Relaxation</text>
<text text-anchor="start" x="26" y="-187" font-family="Helvetica,sans-Serif" font-size="10.00">Runtime&lt; Backend &gt;</text>
<text text-anchor="start" x="19" y="-172" font-family="Helvetica,sans-Serif" font-size="10.00">&#45;</text>
<text text-anchor="start" x="30" y="-172" font-family="Helvetica,sans-Serif" font-size="10.00">m_relaxation_type</text>
<text text-anchor="start" x="16.5" y="-157" font-family="Helvetica,sans-Serif" font-size="10.00">+</text>
<text text-anchor="start" x="30" y="-157" font-family="Helvetica,sans-Serif" font-size="10.00">RelaxationRuntime()</text>
<text text-anchor="start" x="16.5" y="-142" font-family="Helvetica,sans-Serif" font-size="10.00">+</text>
<text text-anchor="start" x="30" y="-142" font-family="Helvetica,sans-Serif" font-size="10.00">~RelaxationRuntime()</text>
<text text-anchor="start" x="16.5" y="-127" font-family="Helvetica,sans-Serif" font-size="10.00">+</text>
<text text-anchor="start" x="30" y="-127" font-family="Helvetica,sans-Serif" font-size="10.00">apply_pre()</text>
<text text-anchor="start" x="16.5" y="-112" font-family="Helvetica,sans-Serif" font-size="10.00">+</text>
<text text-anchor="start" x="30" y="-112" font-family="Helvetica,sans-Serif" font-size="10.00">apply_post()</text>
<text text-anchor="start" x="16.5" y="-97" font-family="Helvetica,sans-Serif" font-size="10.00">+</text>
<text text-anchor="start" x="30" y="-97" font-family="Helvetica,sans-Serif" font-size="10.00">apply()</text>
<text text-anchor="start" x="16.5" y="-82" font-family="Helvetica,sans-Serif" font-size="10.00">+</text>
<text text-anchor="start" x="30" y="-82" font-family="Helvetica,sans-Serif" font-size="10.00">bytes()</text>
<text text-anchor="start" x="16.5" y="-67" font-family="Helvetica,sans-Serif" font-size="10.00">+</text>
<text text-anchor="start" x="30" y="-67" font-family="Helvetica,sans-Serif" font-size="10.00">call_constructor()</text>
<text text-anchor="start" x="16.5" y="-52" font-family="Helvetica,sans-Serif" font-size="10.00">+</text>
<text text-anchor="start" x="30" y="-52" font-family="Helvetica,sans-Serif" font-size="10.00">call_constructor()</text>
<text text-anchor="start" x="16.5" y="-37" font-family="Helvetica,sans-Serif" font-size="10.00">+</text>
<text text-anchor="start" x="30" y="-37" font-family="Helvetica,sans-Serif" font-size="10.00">call_apply_pre()</text>
<text text-anchor="start" x="16.5" y="-22" font-family="Helvetica,sans-Serif" font-size="10.00">+</text>
<text text-anchor="start" x="30" y="-22" font-family="Helvetica,sans-Serif" font-size="10.00">call_apply_pre()</text>
<text text-anchor="start" x="30" y="-7" font-family="Helvetica,sans-Serif" font-size="10.00">et 6 de plus...</text>
<polygon fill="#666666" stroke="#666666" points="12,-182 12,-182 146,-182 146,-182 12,-182"/>
<polygon fill="#666666" stroke="#666666" points="12,-167 12,-167 28,-167 28,-167 12,-167"/>
<polygon fill="#666666" stroke="#666666" points="28,-167 28,-167 146,-167 146,-167 28,-167"/>
<polygon fill="none" stroke="#666666" points="12,0 12,-210 146,-210 146,0 12,0"/>
</a>
</g>
</g>
<!-- Node2 -->
<g id="Node000002" class="node">
<title>Node2</title>
<g id="a_Node000002"><a xlink:href="../../db/dbd/classArcane_1_1Alina_1_1RelaxationBase.html" target="_top" xlink:title="Base class for solvers.">
<polygon fill="white" stroke="transparent" points="158,-321 0,-321 0,-257 158,-257 158,-321"/>
<text text-anchor="start" x="5" y="-309" font-family="Helvetica,sans-Serif" font-size="10.00">Arcane::Alina::RelaxationBase</text>
<text text-anchor="start" x="77" y="-294" font-family="Helvetica,sans-Serif" font-size="10.00"> </text>
<text text-anchor="start" x="15" y="-279" font-family="Helvetica,sans-Serif" font-size="10.00">+</text>
<text text-anchor="start" x="39" y="-279" font-family="Helvetica,sans-Serif" font-size="10.00">~RelaxationBase()</text>
<text text-anchor="start" x="15" y="-264" font-family="Helvetica,sans-Serif" font-size="10.00">+</text>
<text text-anchor="start" x="39" y="-264" font-family="Helvetica,sans-Serif" font-size="10.00">bytes()</text>
<polygon fill="#666666" stroke="#666666" points="0,-304 0,-304 158,-304 158,-304 0,-304"/>
<polygon fill="#666666" stroke="#666666" points="0,-289 0,-289 158,-289 158,-289 0,-289"/>
<polygon fill="none" stroke="#666666" points="0,-257 0,-321 158,-321 158,-257 0,-257"/>
</a>
</g>
</g>
<!-- Node2&#45;&gt;Node1 -->
<g id="edge1_Node000001_Node000002" class="edge">
<title>Node2&#45;&gt;Node1</title>
<g id="a_edge1_Node000001_Node000002"><a xlink:title=" ">
<path fill="none" stroke="#63b8ff" d="M79,-256.71C79,-246.62 79,-234.78 79,-222.24"/>
<polygon fill="none" stroke="#63b8ff" points="79,-222.05 75,-216.05 79,-210.05 83,-216.05 79,-222.05"/>
</a>
</g>
<text text-anchor="middle" x="115" y="-231" font-family="Helvetica,sans-Serif" font-size="10.00" fill="grey"> &#45;m_relaxation</text>
</g>
</g>
</svg>
</svg>

<style type='text/css'>
<![CDATA[
[data-mouse-over-selected='false'] { opacity: 0.7; }
[data-mouse-over-selected='true']  { opacity: 1.0; }
]]>
</style>
<script type="application/ecmascript"><![CDATA[
document.addEventListener('DOMContentLoaded', (event) => {
  highlightEdges();
  highlightAdjacentNodes();
});
]]></script>
</svg>
