<?xml version="1.0" encoding="UTF-8" standalone="no"?>
<!DOCTYPE svg PUBLIC "-//W3C//DTD SVG 1.1//EN"
 "http://www.w3.org/Graphics/SVG/1.1/DTD/svg11.dtd">
<!-- Generated by graphviz version 14.1.2 (0)
 -->
<!-- Title: Arcane::Hdf5VariableInfoBase::writeGroup Pages: 1 -->
<!--zoomable 846 -->

<svg id="main" version="1.1" xmlns="http://www.w3.org/2000/svg" xmlns:xlink="http://www.w3.org/1999/xlink" xml:space="preserve" onload="init(evt)">

<style type="text/css"><![CDATA[
.node, .edge {opacity: 0.7;}
.node.selected, .edge.selected {opacity: 1;}
.edge:hover path { stroke: red; }
.edge:hover polygon { stroke: red; fill: red; }
]]></style>

<defs>
  <circle id="rim" cx="0" cy="0" r="7"/>
  <circle id="rim2" cx="0" cy="0" r="3.5"/>
  <g id="zoomPlus">
    <use xlink:href="#rim" fill="#404040"><set attributeName="fill" to="#808080" begin="zoomplus.mouseover" end="zoomplus.mouseout"/></use>
    <path d="M-4,0h8M0,-4v8" fill="none" stroke="white" stroke-width="1.5" pointer-events="none"/>
  </g>
  <g id="zoomMin">
    <use xlink:href="#rim" fill="#404040"><set attributeName="fill" to="#808080" begin="zoomminus.mouseover" end="zoomminus.mouseout"/></use>
    <path d="M-4,0h8" fill="none" stroke="white" stroke-width="1.5" pointer-events="none"/>
  </g>
  <g id="arrowUp" transform="translate(30 24)">
    <use xlink:href="#rim"/>
    <path pointer-events="none" fill="none" stroke="white" stroke-width="1.5" d="M0,-3.0v7 M-2.5,-0.5L0,-3.0L2.5,-0.5"/>
  </g>
  <g id="arrowRight" transform="rotate(90) translate(36 -43)">
    <use xlink:href="#rim"/>
    <path pointer-events="none" fill="none" stroke="white" stroke-width="1.5" d="M0,-3.0v7 M-2.5,-0.5L0,-3.0L2.5,-0.5"/>
  </g>
  <g id="arrowDown" transform="rotate(180) translate(-30 -48)">
    <use xlink:href="#rim"/>
    <path pointer-events="none" fill="none" stroke="white" stroke-width="1.5" d="M0,-3.0v7 M-2.5,-0.5L0,-3.0L2.5,-0.5"/>
  </g>
  <g id="arrowLeft" transform="rotate(270) translate(-36 17)">
    <use xlink:href="#rim"/>
    <path pointer-events="none" fill="none" stroke="white" stroke-width="1.5" d="M0,-3.0v7 M-2.5,-0.5L0,-3.0L2.5,-0.5"/>
  </g>
  <g id="resetDef">
    <use xlink:href="#rim2" fill="#404040"><set attributeName="fill" to="#808080" begin="reset.mouseover" end="reset.mouseout"/></use>
  </g>
</defs>
<script type="application/ecmascript">
var viewWidth = 671;
var viewHeight = 846;
var sectionId = 'dynsection-6';
</script>
<script type="application/ecmascript" xlink:href="../../svg.min.js"/>
<svg id="graph" class="graph">
<g id="viewport">
<title>Arcane::Hdf5VariableInfoBase::writeGroup</title>
<!-- Node1 -->
<g id="Node000001" class="node">
<title>Node1</title>
<g id="a_Node000001"><a xlink:title=" ">
<polygon fill="#999999" stroke="#666666" points="137.5,-438.12 0,-438.12 0,-404.62 137.5,-404.62 137.5,-438.12"/>
<text xml:space="preserve" text-anchor="start" x="8" y="-424.62" font-family="Helvetica,sans-Serif" font-size="10.00">Arcane::Hdf5VariableInfo</text>
<text xml:space="preserve" text-anchor="middle" x="68.75" y="-411.88" font-family="Helvetica,sans-Serif" font-size="10.00">Base::writeGroup</text>
</a>
</g>
</g>
<!-- Node2 -->
<g id="Node000002" class="node">
<title>Node2</title>
<g id="a_Node000002"><a xlink:href="../../d1/dfb/classArcane_1_1Array.html#aa57126075894e5b3579b22462ca49a96" target="_top" xlink:title="Adds element val to the end of the array.">
<polygon fill="white" stroke="#666666" points="300.5,-837.75 195.25,-837.75 195.25,-817 300.5,-817 300.5,-837.75"/>
<text xml:space="preserve" text-anchor="middle" x="247.88" y="-824.25" font-family="Helvetica,sans-Serif" font-size="10.00">Arcane::Array::add</text>
</a>
</g>
</g>
<!-- Node1&#45;&gt;Node2 -->
<g id="edge1_Node000001_Node000002" class="edge">
<title>Node1&#45;&gt;Node2</title>
<g id="a_edge1_Node000001_Node000002"><a xlink:title=" ">
<path fill="none" stroke="#63b8ff" d="M72.04,-438.52C81.43,-506.29 119.04,-754.38 173.5,-808.38 176.86,-811.71 180.73,-814.48 184.9,-816.79"/>
<polygon fill="#63b8ff" stroke="#63b8ff" points="183.12,-819.82 193.68,-820.73 185.99,-813.44 183.12,-819.82"/>
</a>
</g>
</g>
<!-- Node3 -->
<g id="Node000003" class="node">
<title>Node3</title>
<g id="a_Node000003"><a xlink:href="../../d9/d27/classArcane_1_1ItemGroup.html#a6874775cbd41635a356bfc0c757bb041" target="_top" xlink:title="Entity family to which this group belongs (0 for the null group).">
<polygon fill="white" stroke="#666666" points="304.62,-799.12 191.12,-799.12 191.12,-765.62 304.62,-765.62 304.62,-799.12"/>
<text xml:space="preserve" text-anchor="start" x="199.12" y="-785.62" font-family="Helvetica,sans-Serif" font-size="10.00">Arcane::ItemGroup::</text>
<text xml:space="preserve" text-anchor="middle" x="247.88" y="-772.88" font-family="Helvetica,sans-Serif" font-size="10.00">itemFamily</text>
</a>
</g>
</g>
<!-- Node1&#45;&gt;Node3 -->
<g id="edge2_Node000001_Node000003" class="edge">
<title>Node1&#45;&gt;Node3</title>
<g id="a_edge2_Node000001_Node000003"><a xlink:title=" ">
<path fill="none" stroke="#63b8ff" d="M69.93,-438.26C71.44,-492.25 83.45,-662.63 173.5,-756.38 175.78,-758.75 178.29,-760.91 180.97,-762.87"/>
<polygon fill="#63b8ff" stroke="#63b8ff" points="178.99,-765.76 189.34,-768.02 182.66,-759.8 178.99,-765.76"/>
</a>
</g>
</g>
<!-- Node4 -->
<g id="Node000004" class="node">
<title>Node4</title>
<g id="a_Node000004"><a xlink:href="../../d5/d96/classArcane_1_1IVariable.html#a8944595723fede228c06820a63c3bda2" target="_top" xlink:title="Associated mesh group.">
<polygon fill="white" stroke="#666666" points="300.12,-729.12 195.62,-729.12 195.62,-695.62 300.12,-695.62 300.12,-729.12"/>
<text xml:space="preserve" text-anchor="start" x="203.62" y="-715.62" font-family="Helvetica,sans-Serif" font-size="10.00">Arcane::IVariable::</text>
<text xml:space="preserve" text-anchor="middle" x="247.88" y="-702.88" font-family="Helvetica,sans-Serif" font-size="10.00">itemGroup</text>
</a>
</g>
</g>
<!-- Node1&#45;&gt;Node4 -->
<g id="edge3_Node000001_Node000004" class="edge">
<title>Node1&#45;&gt;Node4</title>
<g id="a_edge3_Node000001_Node000004"><a xlink:title=" ">
<path fill="none" stroke="#63b8ff" d="M71.54,-438.29C77.32,-484.63 99.66,-614.9 173.5,-686.38 177.09,-689.85 181.18,-692.87 185.54,-695.48"/>
<polygon fill="#63b8ff" stroke="#63b8ff" points="183.61,-698.43 194.11,-699.9 186.82,-692.2 183.61,-698.43"/>
</a>
</g>
</g>
<!-- Node5 -->
<g id="Node000005" class="node">
<title>Node5</title>
<g id="a_Node000005"><a xlink:href="../../d9/d27/classArcane_1_1ItemGroup.html#a8e73e37718cd394e623d4804fa90e6d4" target="_top" xlink:title="Group kind. This is the kind of its elements.">
<polygon fill="white" stroke="#666666" points="304.62,-677.12 191.12,-677.12 191.12,-643.62 304.62,-643.62 304.62,-677.12"/>
<text xml:space="preserve" text-anchor="start" x="199.12" y="-663.62" font-family="Helvetica,sans-Serif" font-size="10.00">Arcane::ItemGroup::</text>
<text xml:space="preserve" text-anchor="middle" x="247.88" y="-650.88" font-family="Helvetica,sans-Serif" font-size="10.00">itemKind</text>
</a>
</g>
</g>
<!-- Node1&#45;&gt;Node5 -->
<g id="edge5_Node000001_Node000005" class="edge">
<title>Node1&#45;&gt;Node5</title>
<g id="a_edge5_Node000001_Node000005"><a xlink:title=" ">
<path fill="none" stroke="#63b8ff" d="M73.38,-438.42C82.76,-478.41 111.53,-579.03 173.5,-634.38 175.91,-636.53 178.51,-638.5 181.24,-640.32"/>
<polygon fill="#63b8ff" stroke="#63b8ff" points="179.24,-643.2 189.65,-645.14 182.72,-637.13 179.24,-643.2"/>
</a>
</g>
</g>
<!-- Node6 -->
<g id="Node000006" class="node">
<title>Node6</title>
<g id="a_Node000006"><a xlink:href="../../d9/d27/classArcane_1_1ItemGroup.html#aeca0d4a1b7d718d3d80f3bde01d68ff5" target="_top" xlink:title="Mesh to which this group belongs (0 for the null group).">
<polygon fill="white" stroke="#666666" points="318.12,-625.75 177.62,-625.75 177.62,-605 318.12,-605 318.12,-625.75"/>
<text xml:space="preserve" text-anchor="middle" x="247.88" y="-612.25" font-family="Helvetica,sans-Serif" font-size="10.00">Arcane::ItemGroup::mesh</text>
</a>
</g>
</g>
<!-- Node1&#45;&gt;Node6 -->
<g id="edge6_Node000001_Node000006" class="edge">
<title>Node1&#45;&gt;Node6</title>
<g id="a_edge6_Node000001_Node000006"><a xlink:title=" ">
<path fill="none" stroke="#63b8ff" d="M74.97,-438.58C86.58,-473.89 118.02,-554.68 173.5,-596.38 174.85,-597.39 176.24,-598.35 177.68,-599.26"/>
<polygon fill="#63b8ff" stroke="#63b8ff" points="175.86,-602.25 186.33,-603.83 179.13,-596.06 175.86,-602.25"/>
</a>
</g>
</g>
<!-- Node7 -->
<g id="Node000007" class="node">
<title>Node7</title>
<g id="a_Node000007"><a xlink:href="../../dd/d0a/classArcane_1_1IItemFamily.html#a82f9e29c31456f198918986ac9a8b237" target="_top" xlink:title="Family name.">
<polygon fill="white" stroke="#666666" points="304.62,-587.12 191.12,-587.12 191.12,-553.62 304.62,-553.62 304.62,-587.12"/>
<text xml:space="preserve" text-anchor="start" x="199.12" y="-573.62" font-family="Helvetica,sans-Serif" font-size="10.00">Arcane::IItemFamily</text>
<text xml:space="preserve" text-anchor="middle" x="247.88" y="-560.88" font-family="Helvetica,sans-Serif" font-size="10.00">::name</text>
</a>
</g>
</g>
<!-- Node1&#45;&gt;Node7 -->
<g id="edge7_Node000001_Node000007" class="edge">
<title>Node1&#45;&gt;Node7</title>
<g id="a_edge7_Node000001_Node000007"><a xlink:title=" ">
<path fill="none" stroke="#63b8ff" d="M79.99,-438.58C96.51,-464.93 131.46,-515.28 173.5,-544.38 175.83,-545.99 178.28,-547.51 180.8,-548.95"/>
<polygon fill="#63b8ff" stroke="#63b8ff" points="178.99,-551.96 189.49,-553.4 182.18,-545.73 178.99,-551.96"/>
</a>
</g>
</g>
<!-- Node8 -->
<g id="Node000008" class="node">
<title>Node8</title>
<g id="a_Node000008"><a xlink:href="../../d4/d55/classArcane_1_1ItemWithNodes.html#ae1c7e80b8f5f0bf7374bee7371e659c5" target="_top" xlink:title="Number of nodes of the entity.">
<polygon fill="white" stroke="#666666" points="313.62,-535.12 182.12,-535.12 182.12,-501.62 313.62,-501.62 313.62,-535.12"/>
<text xml:space="preserve" text-anchor="start" x="190.12" y="-521.62" font-family="Helvetica,sans-Serif" font-size="10.00">Arcane::ItemWithNodes</text>
<text xml:space="preserve" text-anchor="middle" x="247.88" y="-508.88" font-family="Helvetica,sans-Serif" font-size="10.00">::nbNode</text>
</a>
</g>
</g>
<!-- Node1&#45;&gt;Node8 -->
<g id="edge8_Node000001_Node000008" class="edge">
<title>Node1&#45;&gt;Node8</title>
<g id="a_edge8_Node000001_Node000008"><a xlink:title=" ">
<path fill="none" stroke="#63b8ff" d="M90.98,-438.35C111.26,-453.95 143.15,-476.94 173.5,-492.38 176.53,-493.92 179.68,-495.41 182.89,-496.84"/>
<polygon fill="#63b8ff" stroke="#63b8ff" points="181.32,-499.98 191.89,-500.64 184.04,-493.53 181.32,-499.98"/>
</a>
</g>
</g>
<!-- Node10 -->
<g id="Node000010" class="node">
<title>Node10</title>
<g id="a_Node000010"><a xlink:href="../../d4/d55/classArcane_1_1ItemWithNodes.html#aeba73b13cb32056ecacbb971fb3d560b" target="_top" xlink:title="List of nodes of the entity.">
<polygon fill="white" stroke="#666666" points="313.62,-483.12 182.12,-483.12 182.12,-449.62 313.62,-449.62 313.62,-483.12"/>
<text xml:space="preserve" text-anchor="start" x="190.12" y="-469.62" font-family="Helvetica,sans-Serif" font-size="10.00">Arcane::ItemWithNodes</text>
<text xml:space="preserve" text-anchor="middle" x="247.88" y="-456.88" font-family="Helvetica,sans-Serif" font-size="10.00">::nodeIds</text>
</a>
</g>
</g>
<!-- Node1&#45;&gt;Node10 -->
<g id="edge10_Node000001_Node000010" class="edge">
<title>Node1&#45;&gt;Node10</title>
<g id="a_edge10_Node000001_Node000010"><a xlink:title=" ">
<path fill="none" stroke="#63b8ff" d="M137.47,-438.58C148.39,-441.35 159.75,-444.24 170.84,-447.06"/>
<polygon fill="#63b8ff" stroke="#63b8ff" points="169.8,-450.4 180.35,-449.47 171.52,-443.62 169.8,-450.4"/>
</a>
</g>
</g>
<!-- Node11 -->
<g id="Node000011" class="node">
<title>Node11</title>
<g id="a_Node000011"><a xlink:href="../../d9/d27/classArcane_1_1ItemGroup.html#aed729c7e255d2f11fdb5e597662c25d9" target="_top" xlink:title="Group equivalent to this one but containing only the local elements of the subdomain.">
<polygon fill="white" stroke="#666666" points="314.75,-431.75 181,-431.75 181,-411 314.75,-411 314.75,-431.75"/>
<text xml:space="preserve" text-anchor="middle" x="247.88" y="-418.25" font-family="Helvetica,sans-Serif" font-size="10.00">Arcane::ItemGroup::own</text>
</a>
</g>
</g>
<!-- Node1&#45;&gt;Node11 -->
<g id="edge11_Node000001_Node000011" class="edge">
<title>Node1&#45;&gt;Node11</title>
<g id="a_edge11_Node000001_Node000011"><a xlink:title=" ">
<path fill="none" stroke="#63b8ff" d="M137.98,-421.38C148.28,-421.38 158.98,-421.38 169.46,-421.38"/>
<polygon fill="#63b8ff" stroke="#63b8ff" points="169.21,-424.88 179.21,-421.38 169.21,-417.88 169.21,-424.88"/>
</a>
</g>
</g>
<!-- Node15 -->
<g id="Node000015" class="node">
<title>Node15</title>
<g id="a_Node000015"><a xlink:href="../../d0/d9f/classArcane_1_1IMesh.html#a0f11be8ad649d81fdbcdb71a8446c5a2" target="_top" xlink:title="Parallelism manager.">
<polygon fill="white" stroke="#666666" points="322.25,-374.75 173.5,-374.75 173.5,-354 322.25,-354 322.25,-374.75"/>
<text xml:space="preserve" text-anchor="middle" x="247.88" y="-361.25" font-family="Helvetica,sans-Serif" font-size="10.00">Arcane::IMesh::parallelMng</text>
</a>
</g>
</g>
<!-- Node1&#45;&gt;Node15 -->
<g id="edge16_Node000001_Node000015" class="edge">
<title>Node1&#45;&gt;Node15</title>
<g id="a_edge16_Node000001_Node000015"><a xlink:title=" ">
<path fill="none" stroke="#63b8ff" d="M122.89,-404.27C148.34,-396.08 178.46,-386.39 202.65,-378.61"/>
<polygon fill="#63b8ff" stroke="#63b8ff" points="203.41,-382.04 211.86,-375.64 201.27,-375.38 203.41,-382.04"/>
</a>
</g>
</g>
<!-- Node16 -->
<g id="Node000016" class="node">
<title>Node16</title>
<g id="a_Node000016"><a xlink:href="../../d3/d00/classArcane_1_1ITraceMng.html#a1516ebbcd6cb8a9d37e5d3348a84c058" target="_top" xlink:title="Stream for a parallel warning message.">
<polygon fill="white" stroke="#666666" points="303.5,-336.12 192.25,-336.12 192.25,-302.62 303.5,-302.62 303.5,-336.12"/>
<text xml:space="preserve" text-anchor="start" x="200.25" y="-322.62" font-family="Helvetica,sans-Serif" font-size="10.00">Arcane::ITraceMng::</text>
<text xml:space="preserve" text-anchor="middle" x="247.88" y="-309.88" font-family="Helvetica,sans-Serif" font-size="10.00">pwarning</text>
</a>
</g>
</g>
<!-- Node1&#45;&gt;Node16 -->
<g id="edge18_Node000001_Node000016" class="edge">
<title>Node1&#45;&gt;Node16</title>
<g id="a_edge18_Node000001_Node000016"><a xlink:title=" ">
<path fill="none" stroke="#63b8ff" d="M89.25,-404.37C109.29,-387.59 141.92,-362.07 173.5,-345.38 176.36,-343.86 179.32,-342.41 182.34,-341.01"/>
<polygon fill="#63b8ff" stroke="#63b8ff" points="183.62,-344.27 191.41,-337.09 180.84,-337.85 183.62,-344.27"/>
</a>
</g>
</g>
<!-- Node17 -->
<g id="Node000017" class="node">
<title>Node17</title>
<g id="a_Node000017"><a xlink:href="../../dc/d5a/classArcane_1_1IParallelMng.html#af078b601696a7983571867ec83198b1c" target="_top" xlink:title="Performs a reduction of type rt on the real v and returns the value.">
<polygon fill="white" stroke="#666666" points="305.75,-266.12 190,-266.12 190,-232.62 305.75,-232.62 305.75,-266.12"/>
<text xml:space="preserve" text-anchor="start" x="198" y="-252.62" font-family="Helvetica,sans-Serif" font-size="10.00">Arcane::IParallelMng</text>
<text xml:space="preserve" text-anchor="middle" x="247.88" y="-239.88" font-family="Helvetica,sans-Serif" font-size="10.00">::reduce</text>
</a>
</g>
</g>
<!-- Node1&#45;&gt;Node17 -->
<g id="edge19_Node000001_Node000017" class="edge">
<title>Node1&#45;&gt;Node17</title>
<g id="a_edge19_Node000001_Node000017"><a xlink:title=" ">
<path fill="none" stroke="#63b8ff" d="M80.6,-404.46C97.94,-378.35 133.97,-327.69 173.5,-293.38 182.43,-285.63 192.89,-278.44 203.08,-272.22"/>
<polygon fill="#63b8ff" stroke="#63b8ff" points="204.55,-275.42 211.39,-267.34 201,-269.39 204.55,-275.42"/>
</a>
</g>
</g>
<!-- Node18 -->
<g id="Node000018" class="node">
<title>Node18</title>
<g id="a_Node000018"><a xlink:href="../../d9/d27/classArcane_1_1ItemGroup.html#a5e13f5b3aed43db2383db28d8036c193" target="_top" xlink:title="Number of elements in the group.">
<polygon fill="white" stroke="#666666" points="314.38,-214.75 181.38,-214.75 181.38,-194 314.38,-194 314.38,-214.75"/>
<text xml:space="preserve" text-anchor="middle" x="247.88" y="-201.25" font-family="Helvetica,sans-Serif" font-size="10.00">Arcane::ItemGroup::size</text>
</a>
</g>
</g>
<!-- Node1&#45;&gt;Node18 -->
<g id="edge21_Node000001_Node000018" class="edge">
<title>Node1&#45;&gt;Node18</title>
<g id="a_edge21_Node000001_Node000018"><a xlink:title=" ">
<path fill="none" stroke="#63b8ff" d="M73.67,-404.31C83.43,-365.8 112.55,-271.74 173.5,-223.38 174.66,-222.45 175.86,-221.58 177.09,-220.74"/>
<polygon fill="#63b8ff" stroke="#63b8ff" points="178.78,-223.81 185.8,-215.88 175.36,-217.7 178.78,-223.81"/>
</a>
</g>
</g>
<!-- Node19 -->
<g id="Node000019" class="node">
<title>Node19</title>
<g id="a_Node000019"><a xlink:href="../../df/d5f/classArcane_1_1Item.html#a61655e4a83d38ed64d6a23fe7c8c6013" target="_top" xlink:title="Converts the entity to the ItemWithNodes kind.">
<polygon fill="white" stroke="#666666" points="317.38,-176.12 178.38,-176.12 178.38,-142.62 317.38,-142.62 317.38,-176.12"/>
<text xml:space="preserve" text-anchor="start" x="186.38" y="-162.62" font-family="Helvetica,sans-Serif" font-size="10.00">Arcane::Item::toItemWith</text>
<text xml:space="preserve" text-anchor="middle" x="247.88" y="-149.88" font-family="Helvetica,sans-Serif" font-size="10.00">Nodes</text>
</a>
</g>
</g>
<!-- Node1&#45;&gt;Node19 -->
<g id="edge22_Node000001_Node000019" class="edge">
<title>Node1&#45;&gt;Node19</title>
<g id="a_edge22_Node000001_Node000019"><a xlink:title=" ">
<path fill="none" stroke="#63b8ff" d="M72.52,-404.13C80.31,-361.04 106.44,-247.67 173.5,-185.38 174.42,-184.52 175.36,-183.7 176.33,-182.9"/>
<polygon fill="#63b8ff" stroke="#63b8ff" points="178.22,-185.86 184.45,-177.29 174.24,-180.1 178.22,-185.86"/>
</a>
</g>
</g>
<!-- Node22 -->
<g id="Node000022" class="node">
<title>Node22</title>
<g id="a_Node000022"><a xlink:href="../../dc/d5a/classArcane_1_1IParallelMng.html#a181bf8a353e3b9514c6371af98bdee6e" target="_top" xlink:title="Trace manager.">
<polygon fill="white" stroke="#666666" points="305.75,-124.12 190,-124.12 190,-90.62 305.75,-90.62 305.75,-124.12"/>
<text xml:space="preserve" text-anchor="start" x="198" y="-110.62" font-family="Helvetica,sans-Serif" font-size="10.00">Arcane::IParallelMng</text>
<text xml:space="preserve" text-anchor="middle" x="247.88" y="-97.88" font-family="Helvetica,sans-Serif" font-size="10.00">::traceMng</text>
</a>
</g>
</g>
<!-- Node1&#45;&gt;Node22 -->
<g id="edge25_Node000001_Node000022" class="edge">
<title>Node1&#45;&gt;Node22</title>
<g id="a_edge25_Node000001_Node000022"><a xlink:title=" ">
<path fill="none" stroke="#63b8ff" d="M70.93,-404.44C75.25,-355.46 94.38,-212.09 173.5,-133.38 175.55,-131.33 177.78,-129.45 180.13,-127.71"/>
<polygon fill="#63b8ff" stroke="#63b8ff" points="181.82,-130.78 188.46,-122.52 178.12,-124.84 181.82,-130.78"/>
</a>
</g>
</g>
<!-- Node23 -->
<g id="Node000023" class="node">
<title>Node23</title>
<g id="a_Node000023"><a xlink:href="../../dc/d74/classArcane_1_1ItemTypeInfo.html#af31a98902ea37f75721cb1478f44725d" target="_top" xlink:title="Type number.">
<polygon fill="white" stroke="#666666" points="307.62,-72.12 188.12,-72.12 188.12,-38.62 307.62,-38.62 307.62,-72.12"/>
<text xml:space="preserve" text-anchor="start" x="196.12" y="-58.62" font-family="Helvetica,sans-Serif" font-size="10.00">Arcane::ItemTypeInfo</text>
<text xml:space="preserve" text-anchor="middle" x="247.88" y="-45.88" font-family="Helvetica,sans-Serif" font-size="10.00">::typeId</text>
</a>
</g>
</g>
<!-- Node1&#45;&gt;Node23 -->
<g id="edge26_Node000001_Node000023" class="edge">
<title>Node1&#45;&gt;Node23</title>
<g id="a_edge26_Node000001_Node000023"><a xlink:title=" ">
<path fill="none" stroke="#63b8ff" d="M69.85,-404.25C71.1,-349.47 82.42,-176.59 173.5,-81.38 175.04,-79.76 176.69,-78.25 178.42,-76.83"/>
<polygon fill="#63b8ff" stroke="#63b8ff" points="180.18,-79.87 186.46,-71.35 176.23,-74.09 180.18,-79.87"/>
</a>
</g>
</g>
<!-- Node24 -->
<g id="Node000024" class="node">
<title>Node24</title>
<g id="a_Node000024"><a xlink:href="../../df/d5f/classArcane_1_1Item.html#a1014367675cf6c37cfb74ad87046c44c" target="_top" xlink:title="Information about the entity type.">
<polygon fill="white" stroke="#666666" points="310.25,-20.75 185.5,-20.75 185.5,0 310.25,0 310.25,-20.75"/>
<text xml:space="preserve" text-anchor="middle" x="247.88" y="-7.25" font-family="Helvetica,sans-Serif" font-size="10.00">Arcane::Item::typeInfo</text>
</a>
</g>
</g>
<!-- Node1&#45;&gt;Node24 -->
<g id="edge27_Node000001_Node000024" class="edge">
<title>Node1&#45;&gt;Node24</title>
<g id="a_edge27_Node000001_Node000024"><a xlink:title=" ">
<path fill="none" stroke="#63b8ff" d="M71.94,-404.47C81.1,-336.52 118.35,-84.23 173.5,-29.38 174.26,-28.62 175.04,-27.9 175.84,-27.21"/>
<polygon fill="#63b8ff" stroke="#63b8ff" points="177.72,-30.16 183.99,-21.62 173.76,-24.39 177.72,-30.16"/>
</a>
</g>
</g>
<!-- Node4&#45;&gt;Node4 -->
<g id="edge4_Node000004_Node000004" class="edge">
<title>Node4&#45;&gt;Node4</title>
<g id="a_edge4_Node000004_Node000004"><a xlink:title=" ">
<path fill="none" stroke="#63b8ff" d="M215.67,-729.54C210.2,-738.74 220.94,-747.12 247.88,-747.12 263.03,-747.12 273.05,-744.47 277.95,-740.51"/>
<polygon fill="#63b8ff" stroke="#63b8ff" points="281.32,-741.51 279.79,-731.03 274.45,-740.18 281.32,-741.51"/>
</a>
</g>
</g>
<!-- Node9 -->
<g id="Node000009" class="node">
<title>Node9</title>
<g id="a_Node000009"><a xlink:href="../../df/d5f/classArcane_1_1Item.html#aa0e31afc10a3550e4808250e09ebae01" target="_top" xlink:title="Number of nodes of the entity.">
<polygon fill="white" stroke="#666666" points="490.5,-528.75 363.5,-528.75 363.5,-508 490.5,-508 490.5,-528.75"/>
<text xml:space="preserve" text-anchor="middle" x="427" y="-515.25" font-family="Helvetica,sans-Serif" font-size="10.00">Arcane::Item::_nbNode</text>
</a>
</g>
</g>
<!-- Node8&#45;&gt;Node9 -->
<g id="edge9_Node000008_Node000009" class="edge">
<title>Node8&#45;&gt;Node9</title>
<g id="a_edge9_Node000008_Node000009"><a xlink:title=" ">
<path fill="none" stroke="#63b8ff" d="M314.08,-518.38C326.31,-518.38 339.18,-518.38 351.67,-518.38"/>
<polygon fill="#63b8ff" stroke="#63b8ff" points="351.49,-521.88 361.49,-518.38 351.49,-514.88 351.49,-521.88"/>
</a>
</g>
</g>
<!-- Node12 -->
<g id="Node000012" class="node">
<title>Node12</title>
<g id="a_Node000012"><a xlink:href="../../d9/d27/classArcane_1_1ItemGroup.html#a422922ad3e3102740ccf3d983aed5d3b" target="_top" xlink:title="Returns whether the group contains only elements belonging to the subdomain.">
<polygon fill="white" stroke="#666666" points="483.75,-483.12 370.25,-483.12 370.25,-449.62 483.75,-449.62 483.75,-483.12"/>
<text xml:space="preserve" text-anchor="start" x="378.25" y="-469.62" font-family="Helvetica,sans-Serif" font-size="10.00">Arcane::ItemGroup::</text>
<text xml:space="preserve" text-anchor="middle" x="427" y="-456.88" font-family="Helvetica,sans-Serif" font-size="10.00">isOwn</text>
</a>
</g>
</g>
<!-- Node11&#45;&gt;Node12 -->
<g id="edge12_Node000011_Node000012" class="edge">
<title>Node11&#45;&gt;Node12</title>
<g id="a_edge12_Node000011_Node000012"><a xlink:title=" ">
<path fill="none" stroke="#63b8ff" d="M291.3,-432.15C311.53,-437.29 336.21,-443.56 358.9,-449.33"/>
<polygon fill="#63b8ff" stroke="#63b8ff" points="357.83,-452.67 368.38,-451.74 359.55,-445.88 357.83,-452.67"/>
</a>
</g>
</g>
<!-- Node13 -->
<g id="Node000013" class="node">
<title>Node13</title>
<g id="a_Node000013"><a xlink:href="../../d9/d27/classArcane_1_1ItemGroup.html#ac254583641d87f94267385604b3554b2" target="_top" xlink:title="true means the group is the null group">
<polygon fill="white" stroke="#666666" points="663.25,-453.75 531.75,-453.75 531.75,-433 663.25,-433 663.25,-453.75"/>
<text xml:space="preserve" text-anchor="middle" x="597.5" y="-440.25" font-family="Helvetica,sans-Serif" font-size="10.00">Arcane::ItemGroup::null</text>
</a>
</g>
</g>
<!-- Node11&#45;&gt;Node13 -->
<g id="edge15_Node000011_Node000013" class="edge">
<title>Node11&#45;&gt;Node13</title>
<g id="a_edge15_Node000011_Node000013"><a xlink:title=" ">
<path fill="none" stroke="#63b8ff" d="M315.08,-425.56C373.59,-429.27 458.92,-434.67 520.26,-438.55"/>
<polygon fill="#63b8ff" stroke="#63b8ff" points="519.71,-442.02 529.92,-439.16 520.16,-435.04 519.71,-442.02"/>
</a>
</g>
</g>
<!-- Node14 -->
<g id="Node000014" class="node">
<title>Node14</title>
<g id="a_Node000014"><a xlink:href="../../d9/d27/classArcane_1_1ItemGroup.html#ae2c614db5fe47ff06b36f33a4a2965cc" target="_top" xlink:title="Constructs a null group.">
<polygon fill="white" stroke="#666666" points="483.75,-393.12 370.25,-393.12 370.25,-359.62 483.75,-359.62 483.75,-393.12"/>
<text xml:space="preserve" text-anchor="start" x="378.25" y="-379.62" font-family="Helvetica,sans-Serif" font-size="10.00">Arcane::ItemGroup::</text>
<text xml:space="preserve" text-anchor="middle" x="427" y="-366.88" font-family="Helvetica,sans-Serif" font-size="10.00">ItemGroup</text>
</a>
</g>
</g>
<!-- Node11&#45;&gt;Node14 -->
<g id="edge14_Node000011_Node000014" class="edge">
<title>Node11&#45;&gt;Node14</title>
<g id="a_edge14_Node000011_Node000014"><a xlink:title=" ">
<path fill="none" stroke="#63b8ff" d="M291.3,-410.6C311.53,-405.46 336.21,-399.19 358.9,-393.42"/>
<polygon fill="#63b8ff" stroke="#63b8ff" points="359.55,-396.87 368.38,-391.01 357.83,-390.08 359.55,-396.87"/>
</a>
</g>
</g>
<!-- Node12&#45;&gt;Node13 -->
<g id="edge13_Node000012_Node000013" class="edge">
<title>Node12&#45;&gt;Node13</title>
<g id="a_edge13_Node000012_Node000013"><a xlink:title=" ">
<path fill="none" stroke="#63b8ff" d="M484.11,-458.72C495.69,-457.14 508.07,-455.45 520.23,-453.79"/>
<polygon fill="#63b8ff" stroke="#63b8ff" points="520.37,-457.3 529.8,-452.48 519.42,-450.36 520.37,-457.3"/>
</a>
</g>
</g>
<!-- Node15&#45;&gt;Node15 -->
<g id="edge17_Node000015_Node000015" class="edge">
<title>Node15&#45;&gt;Node15</title>
<g id="a_edge17_Node000015_Node000015"><a xlink:title=" ">
<path fill="none" stroke="#63b8ff" d="M219.01,-375.15C207.47,-383.81 217.09,-392.75 247.88,-392.75 264.71,-392.75 275.22,-390.08 279.39,-386.24"/>
<polygon fill="#63b8ff" stroke="#63b8ff" points="282.82,-385.53 277.09,-376.62 276.02,-387.16 282.82,-385.53"/>
</a>
</g>
</g>
<!-- Node17&#45;&gt;Node17 -->
<g id="edge20_Node000017_Node000017" class="edge">
<title>Node17&#45;&gt;Node17</title>
<g id="a_edge20_Node000017_Node000017"><a xlink:title=" ">
<path fill="none" stroke="#63b8ff" d="M215.67,-266.54C210.2,-275.74 220.94,-284.12 247.88,-284.12 263.03,-284.12 273.05,-281.47 277.95,-277.51"/>
<polygon fill="#63b8ff" stroke="#63b8ff" points="281.32,-278.51 279.79,-268.03 274.45,-277.18 281.32,-278.51"/>
</a>
</g>
</g>
<!-- Node20 -->
<g id="Node000020" class="node">
<title>Node20</title>
<g id="a_Node000020"><a xlink:href="../../df/d5f/classArcane_1_1Item.html#a92e163166f9595107d02274981f4022b" target="_top" xlink:title="true if the entity is of the ItemWithNodes kind.">
<polygon fill="white" stroke="#666666" points="495.75,-176.12 358.25,-176.12 358.25,-142.62 495.75,-142.62 495.75,-176.12"/>
<text xml:space="preserve" text-anchor="start" x="366.25" y="-162.62" font-family="Helvetica,sans-Serif" font-size="10.00">Arcane::Item::isItemWith</text>
<text xml:space="preserve" text-anchor="middle" x="427" y="-149.88" font-family="Helvetica,sans-Serif" font-size="10.00">Nodes</text>
</a>
</g>
</g>
<!-- Node19&#45;&gt;Node20 -->
<g id="edge23_Node000019_Node000020" class="edge">
<title>Node19&#45;&gt;Node20</title>
<g id="a_edge23_Node000019_Node000020"><a xlink:title=" ">
<path fill="none" stroke="#63b8ff" d="M317.86,-159.38C327.19,-159.38 336.81,-159.38 346.3,-159.38"/>
<polygon fill="#63b8ff" stroke="#63b8ff" points="346.27,-162.88 356.27,-159.38 346.27,-155.88 346.27,-162.88"/>
</a>
</g>
</g>
<!-- Node21 -->
<g id="Node000021" class="node">
<title>Node21</title>
<g id="a_Node000021"><a xlink:href="../../df/d5f/classArcane_1_1Item.html#aee0bfc9b1283482b9dee1865b3483645" target="_top" xlink:title="Entity kind.">
<polygon fill="white" stroke="#666666" points="650.12,-169.75 544.88,-169.75 544.88,-149 650.12,-149 650.12,-169.75"/>
<text xml:space="preserve" text-anchor="middle" x="597.5" y="-156.25" font-family="Helvetica,sans-Serif" font-size="10.00">Arcane::Item::kind</text>
</a>
</g>
</g>
<!-- Node20&#45;&gt;Node21 -->
<g id="edge24_Node000020_Node000021" class="edge">
<title>Node20&#45;&gt;Node21</title>
<g id="a_edge24_Node000020_Node000021"><a xlink:title=" ">
<path fill="none" stroke="#63b8ff" d="M496.05,-159.38C508.3,-159.38 521.03,-159.38 533.14,-159.38"/>
<polygon fill="#63b8ff" stroke="#63b8ff" points="533.01,-162.88 543.01,-159.38 533.01,-155.88 533.01,-162.88"/>
</a>
</g>
</g>
<!-- Node25 -->
<g id="Node000025" class="node">
<title>Node25</title>
<g id="a_Node000025"><a xlink:href="../../df/d5f/classArcane_1_1Item.html#af723140c2f3c43807123ec46f9c39399" target="_top" xlink:title="Entity type.">
<polygon fill="white" stroke="#666666" points="480,-20.75 374,-20.75 374,0 480,0 480,-20.75"/>
<text xml:space="preserve" text-anchor="middle" x="427" y="-7.25" font-family="Helvetica,sans-Serif" font-size="10.00">Arcane::Item::type</text>
</a>
</g>
</g>
<!-- Node24&#45;&gt;Node25 -->
<g id="edge28_Node000024_Node000025" class="edge">
<title>Node24&#45;&gt;Node25</title>
<g id="a_edge28_Node000024_Node000025"><a xlink:title=" ">
<path fill="none" stroke="#63b8ff" d="M310.33,-10.38C327.13,-10.38 345.38,-10.38 362.31,-10.38"/>
<polygon fill="#63b8ff" stroke="#63b8ff" points="362.27,-13.88 372.27,-10.38 362.27,-6.88 362.27,-13.88"/>
</a>
</g>
</g>
</g>
</svg>

<g id="navigator" transform="translate(0 0)" fill="#404254">
  <rect fill="#f2f5e9" fill-opacity="0.5" stroke="#606060" stroke-width=".5" x="0" y="0" width="60" height="60"/>
  <use id="zoomplus" xlink:href="#zoomPlus" x="17" y="9" onmousedown="handleZoom(evt,'in')"/>
  <use id="zoomminus" xlink:href="#zoomMin" x="42" y="9" onmousedown="handleZoom(evt,'out')"/>
  <use id="reset" xlink:href="#resetDef" x="30" y="36" onmousedown="handleReset()"/>
   <use id="arrowup" xlink:href="#arrowUp" x="0" y="0" onmousedown="handlePan(0,-1)"/>
  <use id="arrowright" xlink:href="#arrowRight" x="0" y="0" onmousedown="handlePan(1,0)"/>
  <use id="arrowdown" xlink:href="#arrowDown" x="0" y="0" onmousedown="handlePan(0,1)"/>
  <use id="arrowleft" xlink:href="#arrowLeft" x="0" y="0" onmousedown="handlePan(-1,0)"/>
</g>
<svg viewBox="0 0 15 15" width="100%" height="30px" preserveAspectRatio="xMaxYMin meet">
 <g id="arrow_out" transform="scale(0.3 0.3)">
  <a xlink:href="classArcane_1_1Hdf5VariableInfoBase_a664070ea725b40650172a870c8580cbf_cgraph_org.svg" target="_base">
   <rect id="button" ry="5" rx="5" y="6" x="6" height="38" width="38"
        fill="#f2f5e9" fill-opacity="0.5" stroke="#606060" stroke-width="1.0"/>
   <path id="arrow"
     d="M 11.500037,31.436501 C 11.940474,20.09759 22.043105,11.32322 32.158766,21.979434 L 37.068811,17.246167 C 37.068811,17.246167 37.088388,32 37.088388,32 L 22.160133,31.978069 C 22.160133,31.978069 26.997745,27.140456 26.997745,27.140456 C 18.528582,18.264221 13.291696,25.230495 11.500037,31.436501 z"
     style="fill:#404040;"/>
  </a>
 </g>
</svg>

<style type='text/css'>
<![CDATA[
[data-mouse-over-selected='false'] { opacity: 0.7; }
[data-mouse-over-selected='true']  { opacity: 1.0; }
]]>
</style>
<script type="application/ecmascript"><![CDATA[
document.addEventListener('DOMContentLoaded', (event) => {
  highlightEdges();
  highlightAdjacentNodes();
});
]]></script>
</svg>
