<?xml version="1.0" encoding="UTF-8" standalone="no"?>
<!DOCTYPE svg PUBLIC "-//W3C//DTD SVG 1.1//EN"
 "http://www.w3.org/Graphics/SVG/1.1/DTD/svg11.dtd">
<!-- Generated by graphviz version 2.43.0 (0)
 -->
<!-- Title: Arcane::mesh::ItemsOwnerBuilderImpl Pages: 1 -->
<svg width="153pt" height="438pt"
 viewBox="0.00 0.00 153.00 438.00" xmlns="http://www.w3.org/2000/svg" xmlns:xlink="http://www.w3.org/1999/xlink">
<g id="graph0" class="graph" transform="scale(1 1) rotate(0) translate(4 434)">
<title>Arcane::mesh::ItemsOwnerBuilderImpl</title>
<!-- Node1 -->
<g id="Node000001" class="node">
<title>Node1</title>
<g id="a_Node000001"><a xlink:title="Implémentation de l&#39;algorithme de calcul des propriétaires.">
<polygon fill="#999999" stroke="transparent" points="145,-150 0,-150 0,0 145,0 145,-150"/>
<text text-anchor="start" x="6.5" y="-138" font-family="Helvetica,sans-Serif" font-size="10.00">Arcane::mesh::ItemsOwner</text>
<text text-anchor="start" x="44.5" y="-127" font-family="Helvetica,sans-Serif" font-size="10.00">BuilderImpl</text>
<text text-anchor="start" x="7" y="-112" font-family="Helvetica,sans-Serif" font-size="10.00">&#45;</text>
<text text-anchor="start" x="17.5" y="-112" font-family="Helvetica,sans-Serif" font-size="10.00">m_mesh</text>
<text text-anchor="start" x="7" y="-97" font-family="Helvetica,sans-Serif" font-size="10.00">&#45;</text>
<text text-anchor="start" x="17.5" y="-97" font-family="Helvetica,sans-Serif" font-size="10.00">m_verbose_level</text>
<text text-anchor="start" x="7" y="-82" font-family="Helvetica,sans-Serif" font-size="10.00">&#45;</text>
<text text-anchor="start" x="17.5" y="-82" font-family="Helvetica,sans-Serif" font-size="10.00">m_items_owner_info</text>
<text text-anchor="start" x="4.5" y="-67" font-family="Helvetica,sans-Serif" font-size="10.00">+</text>
<text text-anchor="start" x="17.5" y="-67" font-family="Helvetica,sans-Serif" font-size="10.00">ItemsOwnerBuilderImpl()</text>
<text text-anchor="start" x="4.5" y="-52" font-family="Helvetica,sans-Serif" font-size="10.00">+</text>
<text text-anchor="start" x="17.5" y="-52" font-family="Helvetica,sans-Serif" font-size="10.00">computeFacesOwner()</text>
<text text-anchor="start" x="4.5" y="-37" font-family="Helvetica,sans-Serif" font-size="10.00">+</text>
<text text-anchor="start" x="17.5" y="-37" font-family="Helvetica,sans-Serif" font-size="10.00">computeNodesOwner()</text>
<text text-anchor="start" x="7" y="-22" font-family="Helvetica,sans-Serif" font-size="10.00">&#45;</text>
<text text-anchor="start" x="17.5" y="-22" font-family="Helvetica,sans-Serif" font-size="10.00">_sortInfos()</text>
<text text-anchor="start" x="7" y="-7" font-family="Helvetica,sans-Serif" font-size="10.00">&#45;</text>
<text text-anchor="start" x="17.5" y="-7" font-family="Helvetica,sans-Serif" font-size="10.00">_processSortedInfos()</text>
<polygon fill="#666666" stroke="#666666" points="0.5,-122 0.5,-122 145.5,-122 145.5,-122 0.5,-122"/>
<polygon fill="#666666" stroke="#666666" points="0.5,-77 0.5,-77 15.5,-77 15.5,-77 0.5,-77"/>
<polygon fill="#666666" stroke="#666666" points="15.5,-77 15.5,-77 145.5,-77 145.5,-77 15.5,-77"/>
<polygon fill="none" stroke="#666666" points="0,0 0,-150 145,-150 145,0 0,0"/>
</a>
</g>
</g>
<!-- Node2 -->
<g id="Node000002" class="node">
<title>Node2</title>
<g id="a_Node000002"><a xlink:href="../../d1/d17/classArcane_1_1TraceAccessor.html" target="_top" xlink:title="Classe d&#39;accès aux traces.">
<polygon fill="white" stroke="transparent" points="142.5,-430 2.5,-430 2.5,-186 142.5,-186 142.5,-430"/>
<text text-anchor="start" x="18" y="-418" font-family="Helvetica,sans-Serif" font-size="10.00">Arcane::TraceAccessor</text>
<text text-anchor="start" x="9" y="-403" font-family="Helvetica,sans-Serif" font-size="10.00">&#45;</text>
<text text-anchor="start" x="19.5" y="-403" font-family="Helvetica,sans-Serif" font-size="10.00">m_trace</text>
<text text-anchor="start" x="9" y="-388" font-family="Helvetica,sans-Serif" font-size="10.00">&#45;</text>
<text text-anchor="start" x="19.5" y="-388" font-family="Helvetica,sans-Serif" font-size="10.00">m_local_verbose_level</text>
<text text-anchor="start" x="6.5" y="-373" font-family="Helvetica,sans-Serif" font-size="10.00">+</text>
<text text-anchor="start" x="19.5" y="-373" font-family="Helvetica,sans-Serif" font-size="10.00">TraceAccessor()</text>
<text text-anchor="start" x="6.5" y="-358" font-family="Helvetica,sans-Serif" font-size="10.00">+</text>
<text text-anchor="start" x="19.5" y="-358" font-family="Helvetica,sans-Serif" font-size="10.00">TraceAccessor()</text>
<text text-anchor="start" x="6.5" y="-343" font-family="Helvetica,sans-Serif" font-size="10.00">+</text>
<text text-anchor="start" x="19.5" y="-343" font-family="Helvetica,sans-Serif" font-size="10.00">operator=()</text>
<text text-anchor="start" x="6.5" y="-328" font-family="Helvetica,sans-Serif" font-size="10.00">+</text>
<text text-anchor="start" x="19.5" y="-328" font-family="Helvetica,sans-Serif" font-size="10.00">~TraceAccessor()</text>
<text text-anchor="start" x="6.5" y="-313" font-family="Helvetica,sans-Serif" font-size="10.00">+</text>
<text text-anchor="start" x="19.5" y="-313" font-family="Helvetica,sans-Serif" font-size="10.00">traceMng()</text>
<text text-anchor="start" x="6.5" y="-298" font-family="Helvetica,sans-Serif" font-size="10.00">+</text>
<text text-anchor="start" x="19.5" y="-298" font-family="Helvetica,sans-Serif" font-size="10.00">info()</text>
<text text-anchor="start" x="6.5" y="-283" font-family="Helvetica,sans-Serif" font-size="10.00">+</text>
<text text-anchor="start" x="19.5" y="-283" font-family="Helvetica,sans-Serif" font-size="10.00">pinfo()</text>
<text text-anchor="start" x="6.5" y="-268" font-family="Helvetica,sans-Serif" font-size="10.00">+</text>
<text text-anchor="start" x="19.5" y="-268" font-family="Helvetica,sans-Serif" font-size="10.00">info()</text>
<text text-anchor="start" x="6.5" y="-253" font-family="Helvetica,sans-Serif" font-size="10.00">+</text>
<text text-anchor="start" x="19.5" y="-253" font-family="Helvetica,sans-Serif" font-size="10.00">pinfo()</text>
<text text-anchor="start" x="6.5" y="-238" font-family="Helvetica,sans-Serif" font-size="10.00">+</text>
<text text-anchor="start" x="19.5" y="-238" font-family="Helvetica,sans-Serif" font-size="10.00">info()</text>
<text text-anchor="start" x="19.5" y="-223" font-family="Helvetica,sans-Serif" font-size="10.00">et 15 de plus...</text>
<text text-anchor="start" x="6.5" y="-208" font-family="Helvetica,sans-Serif" font-size="10.00">#</text>
<text text-anchor="start" x="19.5" y="-208" font-family="Helvetica,sans-Serif" font-size="10.00">_setLocalVerboseLevel()</text>
<text text-anchor="start" x="6.5" y="-193" font-family="Helvetica,sans-Serif" font-size="10.00">#</text>
<text text-anchor="start" x="19.5" y="-193" font-family="Helvetica,sans-Serif" font-size="10.00">_localVerboseLevel()</text>
<polygon fill="#666666" stroke="#666666" points="2.5,-413 2.5,-413 142.5,-413 142.5,-413 2.5,-413"/>
<polygon fill="#666666" stroke="#666666" points="2.5,-383 2.5,-383 17.5,-383 17.5,-383 2.5,-383"/>
<polygon fill="#666666" stroke="#666666" points="17.5,-383 17.5,-383 142.5,-383 142.5,-383 17.5,-383"/>
<polygon fill="none" stroke="#666666" points="2.5,-186 2.5,-430 142.5,-430 142.5,-186 2.5,-186"/>
</a>
</g>
</g>
<!-- Node2&#45;&gt;Node1 -->
<g id="edge1_Node000001_Node000002" class="edge">
<title>Node2&#45;&gt;Node1</title>
<g id="a_edge1_Node000001_Node000002"><a xlink:title=" ">
<path fill="none" stroke="#63b8ff" d="M72.5,-175.58C72.5,-166.95 72.5,-158.45 72.5,-150.26"/>
<polygon fill="none" stroke="#63b8ff" points="69,-175.75 72.5,-185.75 76,-175.75 69,-175.75"/>
</a>
</g>
</g>
</g>
</svg>
