<?xml version="1.0" encoding="UTF-8" standalone="no"?>
<!DOCTYPE svg PUBLIC "-//W3C//DTD SVG 1.1//EN"
 "http://www.w3.org/Graphics/SVG/1.1/DTD/svg11.dtd">
<!-- Generated by graphviz version 14.1.2 (0)
 -->
<!-- Title: Arcane::ItemGroupDynamicMeshObserver::executeReduce Pages: 1 -->
<svg width="363pt" height="344pt"
 viewBox="0.00 0.00 363.00 344.00" xmlns="http://www.w3.org/2000/svg" xmlns:xlink="http://www.w3.org/1999/xlink">

<svg id="main" version="1.1" xmlns="http://www.w3.org/2000/svg" xmlns:xlink="http://www.w3.org/1999/xlink" xml:space="preserve">

<style type="text/css"><![CDATA[
.node, .edge {opacity: 0.7;}
.node.selected, .edge.selected {opacity: 1;}
.edge:hover path { stroke: red; }
.edge:hover polygon { stroke: red; fill: red; }
]]></style>
<script type="application/ecmascript" xlink:href="../../svg.min.js"/>
<svg id="graph" class="graph">
<g id="graph0" class="graph" transform="scale(1 1) rotate(0) translate(4 340.12)">
<title>Arcane::ItemGroupDynamicMeshObserver::executeReduce</title>
<!-- Node1 -->
<g id="Node000001" class="node">
<title>Node1</title>
<g id="a_Node000001"><a xlink:title="Execute l&#39;action associée à l&#39;extension.">
<polygon fill="#999999" stroke="#666666" points="166.75,-182.5 0,-182.5 0,-149 166.75,-149 166.75,-182.5"/>
<text xml:space="preserve" text-anchor="start" x="8" y="-169" font-family="Helvetica,sans-Serif" font-size="10.00">Arcane::ItemGroupDynamic</text>
<text xml:space="preserve" text-anchor="middle" x="83.38" y="-156.25" font-family="Helvetica,sans-Serif" font-size="10.00">MeshObserver::executeReduce</text>
</a>
</g>
</g>
<!-- Node2 -->
<g id="Node000002" class="node">
<title>Node2</title>
<g id="a_Node000002"><a xlink:href="../../d1/dfb/classArcane_1_1Array.html#afb30a771d3fd8022c7220afe7b78e60b" target="_top" xlink:title="Ajoute l&#39;élément val à la fin du tableau.">
<polygon fill="white" stroke="#666666" points="331.25,-336.12 226,-336.12 226,-315.38 331.25,-315.38 331.25,-336.12"/>
<text xml:space="preserve" text-anchor="middle" x="278.62" y="-322.62" font-family="Helvetica,sans-Serif" font-size="10.00">Arcane::Array::add</text>
</a>
</g>
</g>
<!-- Node1&#45;&gt;Node2 -->
<g id="edge1_Node000001_Node000002" class="edge">
<title>Node1&#45;&gt;Node2</title>
<g id="a_edge1_Node000001_Node000002"><a xlink:title=" ">
<path fill="none" stroke="#63b8ff" d="M93.67,-182.6C111.02,-212.44 151.31,-274.47 202.75,-306.75 206.54,-309.13 210.61,-311.21 214.83,-313.03"/>
<polygon fill="#63b8ff" stroke="#63b8ff" points="213.53,-316.28 224.12,-316.51 215.99,-309.72 213.53,-316.28"/>
</a>
</g>
</g>
<!-- Node3 -->
<g id="Node000003" class="node">
<title>Node3</title>
<g id="a_Node000003"><a xlink:href="../../d3/d00/classArcane_1_1ITraceMng.html#aedf2055d636e0b6261dc5862cea1b786" target="_top" xlink:title="Flot pour un message de debug.">
<polygon fill="white" stroke="#666666" points="334.25,-297.5 223,-297.5 223,-264 334.25,-264 334.25,-297.5"/>
<text xml:space="preserve" text-anchor="start" x="231" y="-284" font-family="Helvetica,sans-Serif" font-size="10.00">Arcane::ITraceMng::</text>
<text xml:space="preserve" text-anchor="middle" x="278.62" y="-271.25" font-family="Helvetica,sans-Serif" font-size="10.00">debug</text>
</a>
</g>
</g>
<!-- Node1&#45;&gt;Node3 -->
<g id="edge2_Node000001_Node000003" class="edge">
<title>Node1&#45;&gt;Node3</title>
<g id="a_edge2_Node000001_Node000003"><a xlink:title=" ">
<path fill="none" stroke="#63b8ff" d="M103.21,-182.87C125.56,-202.46 164.63,-234.44 202.75,-254.75 205.81,-256.38 208.99,-257.94 212.24,-259.43"/>
<polygon fill="#63b8ff" stroke="#63b8ff" points="210.83,-262.63 221.4,-263.35 213.58,-256.2 210.83,-262.63"/>
</a>
</g>
</g>
<!-- Node4 -->
<g id="Node000004" class="node">
<title>Node4</title>
<g id="a_Node000004"><a xlink:href="../../dd/d0a/classArcane_1_1IItemFamily.html#ac84615ed0ea22a2104fdae7d9c8c5179" target="_top" xlink:title="Converti un tableau de numéros uniques en numéros locaux.">
<polygon fill="white" stroke="#666666" points="347.75,-227.5 209.5,-227.5 209.5,-194 347.75,-194 347.75,-227.5"/>
<text xml:space="preserve" text-anchor="start" x="217.5" y="-214" font-family="Helvetica,sans-Serif" font-size="10.00">Arcane::IItemFamily</text>
<text xml:space="preserve" text-anchor="middle" x="278.62" y="-201.25" font-family="Helvetica,sans-Serif" font-size="10.00">::itemsUniqueIdToLocalId</text>
</a>
</g>
</g>
<!-- Node1&#45;&gt;Node4 -->
<g id="edge3_Node000001_Node000004" class="edge">
<title>Node1&#45;&gt;Node4</title>
<g id="a_edge3_Node000001_Node000004"><a xlink:title=" ">
<path fill="none" stroke="#63b8ff" d="M158.26,-182.96C171.33,-186 184.99,-189.18 198.2,-192.26"/>
<polygon fill="#63b8ff" stroke="#63b8ff" points="197.17,-195.61 207.7,-194.47 198.76,-188.79 197.17,-195.61"/>
</a>
</g>
</g>
<!-- Node5 -->
<g id="Node000005" class="node">
<title>Node5</title>
<g id="a_Node000005"><a xlink:href="../../d1/dfb/classArcane_1_1Array.html#a37ce70c905522ac539c9c48baffcaabf" target="_top" xlink:title="Réserve le mémoire pour new_capacity éléments.">
<polygon fill="white" stroke="#666666" points="340.62,-176.12 216.62,-176.12 216.62,-155.38 340.62,-155.38 340.62,-176.12"/>
<text xml:space="preserve" text-anchor="middle" x="278.62" y="-162.62" font-family="Helvetica,sans-Serif" font-size="10.00">Arcane::Array::reserve</text>
</a>
</g>
</g>
<!-- Node1&#45;&gt;Node5 -->
<g id="edge5_Node000001_Node000005" class="edge">
<title>Node1&#45;&gt;Node5</title>
<g id="a_edge5_Node000001_Node000005"><a xlink:title=" ">
<path fill="none" stroke="#63b8ff" d="M167.17,-165.75C179.8,-165.75 192.75,-165.75 205.13,-165.75"/>
<polygon fill="#63b8ff" stroke="#63b8ff" points="204.81,-169.25 214.81,-165.75 204.81,-162.25 204.81,-169.25"/>
</a>
</g>
</g>
<!-- Node6 -->
<g id="Node000006" class="node">
<title>Node6</title>
<g id="a_Node000006"><a xlink:href="../../d5/d72/classArcane_1_1AbstractArray.html#a462e7632cf9664d773016bc972bed483" target="_top" xlink:title="Nombre d&#39;éléments du vecteur.">
<polygon fill="white" stroke="#666666" points="339.88,-137.5 217.38,-137.5 217.38,-104 339.88,-104 339.88,-137.5"/>
<text xml:space="preserve" text-anchor="start" x="225.38" y="-124" font-family="Helvetica,sans-Serif" font-size="10.00">Arcane::AbstractArray</text>
<text xml:space="preserve" text-anchor="middle" x="278.62" y="-111.25" font-family="Helvetica,sans-Serif" font-size="10.00">::size</text>
</a>
</g>
</g>
<!-- Node1&#45;&gt;Node6 -->
<g id="edge6_Node000001_Node000006" class="edge">
<title>Node1&#45;&gt;Node6</title>
<g id="a_edge6_Node000001_Node000006"><a xlink:title=" ">
<path fill="none" stroke="#63b8ff" d="M158.26,-148.54C173.87,-144.91 190.31,-141.08 205.84,-137.47"/>
<polygon fill="#63b8ff" stroke="#63b8ff" points="206.54,-140.9 215.48,-135.22 204.95,-134.08 206.54,-140.9"/>
</a>
</g>
</g>
<!-- Node7 -->
<g id="Node000007" class="node">
<title>Node7</title>
<g id="a_Node000007"><a xlink:href="../../d9/d2e/classArcane_1_1ConstArrayView.html#ac6a4f407a7ec0a0e0985113552fe2f54" target="_top" xlink:title="Nombre d&#39;éléments du tableau.">
<polygon fill="white" stroke="#666666" points="345.5,-85.5 211.75,-85.5 211.75,-52 345.5,-52 345.5,-85.5"/>
<text xml:space="preserve" text-anchor="start" x="219.75" y="-72" font-family="Helvetica,sans-Serif" font-size="10.00">Arcane::ConstArrayView</text>
<text xml:space="preserve" text-anchor="middle" x="278.62" y="-59.25" font-family="Helvetica,sans-Serif" font-size="10.00">::size</text>
</a>
</g>
</g>
<!-- Node1&#45;&gt;Node7 -->
<g id="edge7_Node000001_Node000007" class="edge">
<title>Node1&#45;&gt;Node7</title>
<g id="a_edge7_Node000001_Node000007"><a xlink:title=" ">
<path fill="none" stroke="#63b8ff" d="M109.4,-148.66C132.8,-133.19 169.1,-110.48 202.75,-94.75 206.22,-93.13 209.82,-91.55 213.49,-90.03"/>
<polygon fill="#63b8ff" stroke="#63b8ff" points="214.5,-93.39 222.51,-86.45 211.92,-86.88 214.5,-93.39"/>
</a>
</g>
</g>
<!-- Node8 -->
<g id="Node000008" class="node">
<title>Node8</title>
<g id="a_Node000008"><a xlink:href="../../de/df0/classArcane_1_1ItemGenericInfoListView.html#afec28da924a8b2c42e46467144ba6636" target="_top" xlink:title="uniqueId() de l&#39;entité de numéro local local_id">
<polygon fill="white" stroke="#666666" points="354.5,-33.5 202.75,-33.5 202.75,0 354.5,0 354.5,-33.5"/>
<text xml:space="preserve" text-anchor="start" x="210.75" y="-20" font-family="Helvetica,sans-Serif" font-size="10.00">Arcane::ItemGenericInfoList</text>
<text xml:space="preserve" text-anchor="middle" x="278.62" y="-7.25" font-family="Helvetica,sans-Serif" font-size="10.00">View::uniqueId</text>
</a>
</g>
</g>
<!-- Node1&#45;&gt;Node8 -->
<g id="edge8_Node000001_Node000008" class="edge">
<title>Node1&#45;&gt;Node8</title>
<g id="a_edge8_Node000001_Node000008"><a xlink:title=" ">
<path fill="none" stroke="#63b8ff" d="M96.62,-148.58C116.21,-122.28 157.07,-71.99 202.75,-42.75 204.74,-41.47 206.8,-40.25 208.92,-39.09"/>
<polygon fill="#63b8ff" stroke="#63b8ff" points="210.38,-42.27 217.76,-34.67 207.25,-36 210.38,-42.27"/>
</a>
</g>
</g>
<!-- Node4&#45;&gt;Node4 -->
<g id="edge4_Node000004_Node000004" class="edge">
<title>Node4&#45;&gt;Node4</title>
<g id="a_edge4_Node000004_Node000004"><a xlink:title=" ">
<path fill="none" stroke="#63b8ff" d="M243.53,-227.91C237.56,-237.12 249.26,-245.5 278.62,-245.5 295.14,-245.5 306.07,-242.85 311.41,-238.89"/>
<polygon fill="#63b8ff" stroke="#63b8ff" points="314.77,-239.9 313.41,-229.4 307.92,-238.46 314.77,-239.9"/>
</a>
</g>
</g>
</g>
</svg>
</svg>

<style type='text/css'>
<![CDATA[
[data-mouse-over-selected='false'] { opacity: 0.7; }
[data-mouse-over-selected='true']  { opacity: 1.0; }
]]>
</style>
<script type="application/ecmascript"><![CDATA[
document.addEventListener('DOMContentLoaded', (event) => {
  highlightEdges();
  highlightAdjacentNodes();
});
]]></script>
</svg>
