<?xml version="1.0" encoding="UTF-8" standalone="no"?>
<!DOCTYPE svg PUBLIC "-//W3C//DTD SVG 1.1//EN"
 "http://www.w3.org/Graphics/SVG/1.1/DTD/svg11.dtd">
<!-- Generated by graphviz version 2.43.0 (0)
 -->
<!-- Title: Arcane::Materials::MaterialVariableTypeInfo::dimension Pages: 1 -->
<svg width="688pt" height="49pt"
 viewBox="0.00 0.00 688.00 49.00" xmlns="http://www.w3.org/2000/svg" xmlns:xlink="http://www.w3.org/1999/xlink">
<g id="graph0" class="graph" transform="scale(1 1) rotate(0) translate(4 45)">
<title>Arcane::Materials::MaterialVariableTypeInfo::dimension</title>
<!-- Node1 -->
<g id="Node000001" class="node">
<title>Node1</title>
<g id="a_Node000001"><a xlink:title="Dimension.">
<polygon fill="#999999" stroke="#666666" points="680,-41 542,-41 542,0 680,0 680,-41"/>
<text text-anchor="start" x="550" y="-29" font-family="Helvetica,sans-Serif" font-size="10.00">Arcane::Materials::</text>
<text text-anchor="start" x="550" y="-18" font-family="Helvetica,sans-Serif" font-size="10.00">MaterialVariableTypeInfo</text>
<text text-anchor="middle" x="611" y="-7" font-family="Helvetica,sans-Serif" font-size="10.00">::dimension</text>
</a>
</g>
</g>
<!-- Node2 -->
<g id="Node000002" class="node">
<title>Node2</title>
<g id="a_Node000002"><a xlink:href="../../d3/d5e/classArcane_1_1Materials_1_1MaterialVariableTypeInfo.html#a2e82c39ad7e6f164f08565c1540fb485" target="_top" xlink:title=" ">
<polygon fill="white" stroke="#666666" points="506,-41 368,-41 368,0 506,0 506,-41"/>
<text text-anchor="start" x="376" y="-29" font-family="Helvetica,sans-Serif" font-size="10.00">Arcane::Materials::</text>
<text text-anchor="start" x="376" y="-18" font-family="Helvetica,sans-Serif" font-size="10.00">MaterialVariableTypeInfo</text>
<text text-anchor="middle" x="437" y="-7" font-family="Helvetica,sans-Serif" font-size="10.00">::_buildFullTypeName</text>
</a>
</g>
</g>
<!-- Node1&#45;&gt;Node2 -->
<g id="edge1_Node000001_Node000002" class="edge">
<title>Node1&#45;&gt;Node2</title>
<g id="a_edge1_Node000001_Node000002"><a xlink:title=" ">
<path fill="none" stroke="#63b8ff" d="M531.36,-20.5C522.97,-20.5 514.49,-20.5 506.24,-20.5"/>
<polygon fill="#63b8ff" stroke="#63b8ff" points="531.53,-24 541.53,-20.5 531.53,-17 531.53,-24"/>
</a>
</g>
</g>
<!-- Node3 -->
<g id="Node000003" class="node">
<title>Node3</title>
<g id="a_Node000003"><a xlink:href="../../d3/d5e/classArcane_1_1Materials_1_1MaterialVariableTypeInfo.html#a1e68304ddd4d5b3431bc1348039f91e6" target="_top" xlink:title="Nom complet du type de la variable.">
<polygon fill="white" stroke="#666666" points="332,-41 194,-41 194,0 332,0 332,-41"/>
<text text-anchor="start" x="202" y="-29" font-family="Helvetica,sans-Serif" font-size="10.00">Arcane::Materials::</text>
<text text-anchor="start" x="202" y="-18" font-family="Helvetica,sans-Serif" font-size="10.00">MaterialVariableTypeInfo</text>
<text text-anchor="middle" x="263" y="-7" font-family="Helvetica,sans-Serif" font-size="10.00">::fullName</text>
</a>
</g>
</g>
<!-- Node2&#45;&gt;Node3 -->
<g id="edge2_Node000002_Node000003" class="edge">
<title>Node2&#45;&gt;Node3</title>
<g id="a_edge2_Node000002_Node000003"><a xlink:title=" ">
<path fill="none" stroke="#63b8ff" d="M357.36,-20.5C348.97,-20.5 340.49,-20.5 332.24,-20.5"/>
<polygon fill="#63b8ff" stroke="#63b8ff" points="357.53,-24 367.53,-20.5 357.53,-17 357.53,-24"/>
</a>
</g>
</g>
<!-- Node4 -->
<g id="Node000004" class="node">
<title>Node4</title>
<g id="a_Node000004"><a xlink:href="../../da/dd8/classArcane_1_1Materials_1_1MeshMaterialVariableFactoryMng.html#afe97b5198fe87cbf1e02fd7021399416" target="_top" xlink:title="Enregistre la fabrique factory.">
<polygon fill="white" stroke="#666666" points="158,-41 0,-41 0,0 158,0 158,-41"/>
<text text-anchor="start" x="8" y="-29" font-family="Helvetica,sans-Serif" font-size="10.00">Arcane::Materials::</text>
<text text-anchor="start" x="8" y="-18" font-family="Helvetica,sans-Serif" font-size="10.00">MeshMaterialVariableFactory</text>
<text text-anchor="middle" x="79" y="-7" font-family="Helvetica,sans-Serif" font-size="10.00">Mng::registerFactory</text>
</a>
</g>
</g>
<!-- Node3&#45;&gt;Node4 -->
<g id="edge3_Node000003_Node000004" class="edge">
<title>Node3&#45;&gt;Node4</title>
<g id="a_edge3_Node000003_Node000004"><a xlink:title=" ">
<path fill="none" stroke="#63b8ff" d="M183.7,-20.5C175.2,-20.5 166.55,-20.5 158.05,-20.5"/>
<polygon fill="#63b8ff" stroke="#63b8ff" points="183.97,-24 193.97,-20.5 183.97,-17 183.97,-24"/>
</a>
</g>
</g>
</g>
</svg>
