<?xml version="1.0" encoding="UTF-8" standalone="no"?>
<!DOCTYPE svg PUBLIC "-//W3C//DTD SVG 1.1//EN"
 "http://www.w3.org/Graphics/SVG/1.1/DTD/svg11.dtd">
<!-- Generated by graphviz version 2.43.0 (0)
 -->
<!-- Title: Arcane::Accelerator::Hip::UnifiedMemoryHipMemoryAllocator Pages: 1 -->
<!--zoomable 1055 -->

<svg id="main" version="1.1" xmlns="http://www.w3.org/2000/svg" xmlns:xlink="http://www.w3.org/1999/xlink" xml:space="preserve" onload="init(evt)">

<style type="text/css"><![CDATA[
.node, .edge {opacity: 0.7;}
.node.selected, .edge.selected {opacity: 1;}
.edge:hover path { stroke: red; }
.edge:hover polygon { stroke: red; fill: red; }
]]></style>

<defs>
  <circle id="rim" cx="0" cy="0" r="7"/>
  <circle id="rim2" cx="0" cy="0" r="3.5"/>
  <g id="zoomPlus">
    <use xlink:href="#rim" fill="#404040"><set attributeName="fill" to="#808080" begin="zoomplus.mouseover" end="zoomplus.mouseout"/></use>
    <path d="M-4,0h8M0,-4v8" fill="none" stroke="white" stroke-width="1.5" pointer-events="none"/>
  </g>
  <g id="zoomMin">
    <use xlink:href="#rim" fill="#404040"><set attributeName="fill" to="#808080" begin="zoomminus.mouseover" end="zoomminus.mouseout"/></use>
    <path d="M-4,0h8" fill="none" stroke="white" stroke-width="1.5" pointer-events="none"/>
  </g>
  <g id="arrowUp" transform="translate(30 24)">
    <use xlink:href="#rim"/>
    <path pointer-events="none" fill="none" stroke="white" stroke-width="1.5" d="M0,-3.0v7 M-2.5,-0.5L0,-3.0L2.5,-0.5"/>
  </g>
  <g id="arrowRight" transform="rotate(90) translate(36 -43)">
    <use xlink:href="#rim"/>
    <path pointer-events="none" fill="none" stroke="white" stroke-width="1.5" d="M0,-3.0v7 M-2.5,-0.5L0,-3.0L2.5,-0.5"/>
  </g>
  <g id="arrowDown" transform="rotate(180) translate(-30 -48)">
    <use xlink:href="#rim"/>
    <path pointer-events="none" fill="none" stroke="white" stroke-width="1.5" d="M0,-3.0v7 M-2.5,-0.5L0,-3.0L2.5,-0.5"/>
  </g>
  <g id="arrowLeft" transform="rotate(270) translate(-36 17)">
    <use xlink:href="#rim"/>
    <path pointer-events="none" fill="none" stroke="white" stroke-width="1.5" d="M0,-3.0v7 M-2.5,-0.5L0,-3.0L2.5,-0.5"/>
  </g>
  <g id="resetDef">
    <use xlink:href="#rim2" fill="#404040"><set attributeName="fill" to="#808080" begin="reset.mouseover" end="reset.mouseout"/></use>
  </g>
</defs>
<script type="application/ecmascript">
var viewWidth = 401;
var viewHeight = 1055;
var sectionId = 'dynsection-1';
</script>
<script type="application/ecmascript" xlink:href="../../svg.min.js"/>
<svg id="graph" class="graph">
<g id="viewport">
<title>Arcane::Accelerator::Hip::UnifiedMemoryHipMemoryAllocator</title>
<!-- Node1 -->
<g id="Node000001" class="node">
<title>Node1</title>
<g id="a_Node000001"><a xlink:title=" ">
<polygon fill="#999999" stroke="transparent" points="175.5,-101 4.5,-101 4.5,0 175.5,0 175.5,-101"/>
<text text-anchor="start" x="10" y="-88.5" font-family="Helvetica,sans-Serif" font-size="10.00">Arcane::Accelerator</text>
<text text-anchor="start" x="10" y="-77.5" font-family="Helvetica,sans-Serif" font-size="10.00">::Hip::UnifiedMemoryHipMemory</text>
<text text-anchor="start" x="68.5" y="-66.5" font-family="Helvetica,sans-Serif" font-size="10.00">Allocator</text>
<text text-anchor="start" x="88.5" y="-51.5" font-family="Helvetica,sans-Serif" font-size="10.00"> </text>
<text text-anchor="start" x="23" y="-36.5" font-family="Helvetica,sans-Serif" font-size="10.00">#</text>
<text text-anchor="start" x="50" y="-36.5" font-family="Helvetica,sans-Serif" font-size="10.00">_allocate()</text>
<text text-anchor="start" x="23" y="-21.5" font-family="Helvetica,sans-Serif" font-size="10.00">#</text>
<text text-anchor="start" x="50" y="-21.5" font-family="Helvetica,sans-Serif" font-size="10.00">_deallocate()</text>
<text text-anchor="start" x="23" y="-6.5" font-family="Helvetica,sans-Serif" font-size="10.00">#</text>
<text text-anchor="start" x="50" y="-6.5" font-family="Helvetica,sans-Serif" font-size="10.00">memoryResource()</text>
<polygon fill="#666666" stroke="#666666" points="5,-61.5 5,-61.5 176,-61.5 176,-61.5 5,-61.5"/>
<polygon fill="#666666" stroke="#666666" points="5,-46.5 5,-46.5 176,-46.5 176,-46.5 5,-46.5"/>
<polygon fill="none" stroke="#666666" points="4.5,0 4.5,-101 175.5,-101 175.5,0 4.5,0"/>
</a>
</g>
</g>
<!-- Node2 -->
<g id="Node000002" class="node">
<title>Node2</title>
<g id="a_Node000002"><a xlink:href="../../d8/dc2/classArcane_1_1Accelerator_1_1Hip_1_1HipMemoryAllocatorBase.html" target="_top" xlink:title="Classe de base d&#39;un allocateur spécifique pour &#39;Hip&#39;.">
<polygon fill="white" stroke="transparent" points="172,-288 8,-288 8,-138 172,-138 172,-288"/>
<text text-anchor="start" x="13" y="-276" font-family="Helvetica,sans-Serif" font-size="10.00">Arcane::Accelerator</text>
<text text-anchor="start" x="13" y="-265" font-family="Helvetica,sans-Serif" font-size="10.00">::Hip::HipMemoryAllocatorBase</text>
<text text-anchor="start" x="88" y="-250" font-family="Helvetica,sans-Serif" font-size="10.00"> </text>
<text text-anchor="start" x="14.5" y="-235" font-family="Helvetica,sans-Serif" font-size="10.00">+</text>
<text text-anchor="start" x="30" y="-235" font-family="Helvetica,sans-Serif" font-size="10.00">HipMemoryAllocatorBase()</text>
<text text-anchor="start" x="14.5" y="-220" font-family="Helvetica,sans-Serif" font-size="10.00">+</text>
<text text-anchor="start" x="30" y="-220" font-family="Helvetica,sans-Serif" font-size="10.00">hasRealloc()</text>
<text text-anchor="start" x="14.5" y="-205" font-family="Helvetica,sans-Serif" font-size="10.00">+</text>
<text text-anchor="start" x="30" y="-205" font-family="Helvetica,sans-Serif" font-size="10.00">allocate()</text>
<text text-anchor="start" x="14.5" y="-190" font-family="Helvetica,sans-Serif" font-size="10.00">+</text>
<text text-anchor="start" x="30" y="-190" font-family="Helvetica,sans-Serif" font-size="10.00">reallocate()</text>
<text text-anchor="start" x="14.5" y="-175" font-family="Helvetica,sans-Serif" font-size="10.00">+</text>
<text text-anchor="start" x="30" y="-175" font-family="Helvetica,sans-Serif" font-size="10.00">deallocate()</text>
<text text-anchor="start" x="14.5" y="-160" font-family="Helvetica,sans-Serif" font-size="10.00">#</text>
<text text-anchor="start" x="30" y="-160" font-family="Helvetica,sans-Serif" font-size="10.00">_allocate()</text>
<text text-anchor="start" x="14.5" y="-145" font-family="Helvetica,sans-Serif" font-size="10.00">#</text>
<text text-anchor="start" x="30" y="-145" font-family="Helvetica,sans-Serif" font-size="10.00">_deallocate()</text>
<polygon fill="#666666" stroke="#666666" points="8,-260 8,-260 172,-260 172,-260 8,-260"/>
<polygon fill="#666666" stroke="#666666" points="8,-245 8,-245 172,-245 172,-245 8,-245"/>
<polygon fill="none" stroke="#666666" points="8,-138 8,-288 172,-288 172,-138 8,-138"/>
</a>
</g>
</g>
<!-- Node2&#45;&gt;Node1 -->
<g id="edge1_Node000001_Node000002" class="edge">
<title>Node2&#45;&gt;Node1</title>
<g id="a_edge1_Node000001_Node000002"><a xlink:title=" ">
<path fill="none" stroke="#63b8ff" d="M90,-127.6C90,-118.51 90,-109.5 90,-101.03"/>
<polygon fill="none" stroke="#63b8ff" points="86.5,-127.86 90,-137.86 93.5,-127.86 86.5,-127.86"/>
</a>
</g>
</g>
<!-- Node3 -->
<g id="Node000003" class="node">
<title>Node3</title>
<g id="a_Node000003"><a xlink:href="../../d9/db0/classArcane_1_1AlignedMemoryAllocator.html" target="_top" xlink:title="Allocateur mémoire avec alignement mémoire spécifique.">
<polygon fill="white" stroke="transparent" points="180,-539 0,-539 0,-325 180,-325 180,-539"/>
<text text-anchor="start" x="5" y="-527" font-family="Helvetica,sans-Serif" font-size="10.00">Arccore::AlignedMemoryAllocator3</text>
<text text-anchor="start" x="14" y="-512" font-family="Helvetica,sans-Serif" font-size="10.00">&#45;</text>
<text text-anchor="start" x="32" y="-512" font-family="Helvetica,sans-Serif" font-size="10.00">m_alignment</text>
<text text-anchor="start" x="11.5" y="-497" font-family="Helvetica,sans-Serif" font-size="10.00">+</text>
<text text-anchor="start" x="32" y="-497" font-family="Helvetica,sans-Serif" font-size="10.00">hasRealloc()</text>
<text text-anchor="start" x="11.5" y="-482" font-family="Helvetica,sans-Serif" font-size="10.00">+</text>
<text text-anchor="start" x="32" y="-482" font-family="Helvetica,sans-Serif" font-size="10.00">allocate()</text>
<text text-anchor="start" x="11.5" y="-467" font-family="Helvetica,sans-Serif" font-size="10.00">+</text>
<text text-anchor="start" x="32" y="-467" font-family="Helvetica,sans-Serif" font-size="10.00">reallocate()</text>
<text text-anchor="start" x="11.5" y="-452" font-family="Helvetica,sans-Serif" font-size="10.00">+</text>
<text text-anchor="start" x="32" y="-452" font-family="Helvetica,sans-Serif" font-size="10.00">deallocate()</text>
<text text-anchor="start" x="11.5" y="-437" font-family="Helvetica,sans-Serif" font-size="10.00">+</text>
<text text-anchor="start" x="32" y="-437" font-family="Helvetica,sans-Serif" font-size="10.00">adjustedCapacity()</text>
<text text-anchor="start" x="11.5" y="-422" font-family="Helvetica,sans-Serif" font-size="10.00">+</text>
<text text-anchor="start" x="32" y="-422" font-family="Helvetica,sans-Serif" font-size="10.00">guaranteedAlignment()</text>
<text text-anchor="start" x="11.5" y="-407" font-family="Helvetica,sans-Serif" font-size="10.00">+</text>
<text text-anchor="start" x="32" y="-407" font-family="Helvetica,sans-Serif" font-size="10.00">memoryResource()</text>
<text text-anchor="start" x="11.5" y="-392" font-family="Helvetica,sans-Serif" font-size="10.00">+</text>
<text text-anchor="start" x="32" y="-392" font-family="Helvetica,sans-Serif" font-size="10.00">simdAlignment()</text>
<text text-anchor="start" x="11.5" y="-377" font-family="Helvetica,sans-Serif" font-size="10.00">+</text>
<text text-anchor="start" x="32" y="-377" font-family="Helvetica,sans-Serif" font-size="10.00">cacheLineAlignment()</text>
<text text-anchor="start" x="11.5" y="-362" font-family="Helvetica,sans-Serif" font-size="10.00">+</text>
<text text-anchor="start" x="32" y="-362" font-family="Helvetica,sans-Serif" font-size="10.00">Simd()</text>
<text text-anchor="start" x="11.5" y="-347" font-family="Helvetica,sans-Serif" font-size="10.00">+</text>
<text text-anchor="start" x="32" y="-347" font-family="Helvetica,sans-Serif" font-size="10.00">CacheLine()</text>
<text text-anchor="start" x="11.5" y="-332" font-family="Helvetica,sans-Serif" font-size="10.00">#</text>
<text text-anchor="start" x="32" y="-332" font-family="Helvetica,sans-Serif" font-size="10.00">AlignedMemoryAllocator()</text>
<polygon fill="#666666" stroke="#666666" points="0,-522 0,-522 180,-522 180,-522 0,-522"/>
<polygon fill="#666666" stroke="#666666" points="0,-507 0,-507 30,-507 30,-507 0,-507"/>
<polygon fill="#666666" stroke="#666666" points="30,-507 30,-507 180,-507 180,-507 30,-507"/>
<polygon fill="none" stroke="#666666" points="0,-325 0,-539 180,-539 180,-325 0,-325"/>
</a>
</g>
</g>
<!-- Node3&#45;&gt;Node2 -->
<g id="edge2_Node000002_Node000003" class="edge">
<title>Node3&#45;&gt;Node2</title>
<g id="a_edge2_Node000002_Node000003"><a xlink:title=" ">
<path fill="none" stroke="#63b8ff" d="M90,-314.6C90,-305.65 90,-296.77 90,-288.2"/>
<polygon fill="none" stroke="#63b8ff" points="86.5,-314.72 90,-324.72 93.5,-314.72 86.5,-314.72"/>
</a>
</g>
</g>
<!-- Node4 -->
<g id="Node000004" class="node">
<title>Node4</title>
<g id="a_Node000004"><a xlink:href="../../dc/d3c/classArcane_1_1IMemoryAllocator.html" target="_top" xlink:title="Interface d&#39;un allocateur pour la mémoire.">
<polygon fill="white" stroke="transparent" points="167,-1047 5,-1047 5,-848 167,-848 167,-1047"/>
<text text-anchor="start" x="22.5" y="-1034.5" font-family="Helvetica,sans-Serif" font-size="10.00">Arcane::IMemoryAllocator</text>
<text text-anchor="start" x="84" y="-1019.5" font-family="Helvetica,sans-Serif" font-size="10.00"> </text>
<text text-anchor="start" x="9" y="-1004.5" font-family="Helvetica,sans-Serif" font-size="10.00">+</text>
<text text-anchor="start" x="22" y="-1004.5" font-family="Helvetica,sans-Serif" font-size="10.00">~IMemoryAllocator()</text>
<text text-anchor="start" x="9" y="-989.5" font-family="Helvetica,sans-Serif" font-size="10.00">+</text>
<text text-anchor="start" x="22" y="-989.5" font-family="Helvetica,sans-Serif" font-size="10.00">hasRealloc()</text>
<text text-anchor="start" x="9" y="-974.5" font-family="Helvetica,sans-Serif" font-size="10.00">+</text>
<text text-anchor="start" x="22" y="-974.5" font-family="Helvetica,sans-Serif" font-size="10.00">allocate()</text>
<text text-anchor="start" x="9" y="-959.5" font-family="Helvetica,sans-Serif" font-size="10.00">+</text>
<text text-anchor="start" x="22" y="-959.5" font-family="Helvetica,sans-Serif" font-size="10.00">reallocate()</text>
<text text-anchor="start" x="9" y="-944.5" font-family="Helvetica,sans-Serif" font-size="10.00">+</text>
<text text-anchor="start" x="22" y="-944.5" font-family="Helvetica,sans-Serif" font-size="10.00">deallocate()</text>
<text text-anchor="start" x="9" y="-929.5" font-family="Helvetica,sans-Serif" font-size="10.00">+</text>
<text text-anchor="start" x="22" y="-929.5" font-family="Helvetica,sans-Serif" font-size="10.00">adjustedCapacity()</text>
<text text-anchor="start" x="9" y="-914.5" font-family="Helvetica,sans-Serif" font-size="10.00">+</text>
<text text-anchor="start" x="22" y="-914.5" font-family="Helvetica,sans-Serif" font-size="10.00">guaranteedAlignment()</text>
<text text-anchor="start" x="9" y="-899.5" font-family="Helvetica,sans-Serif" font-size="10.00">+</text>
<text text-anchor="start" x="22" y="-899.5" font-family="Helvetica,sans-Serif" font-size="10.00">guarantedAlignment()</text>
<text text-anchor="start" x="9" y="-884.5" font-family="Helvetica,sans-Serif" font-size="10.00">+</text>
<text text-anchor="start" x="22" y="-884.5" font-family="Helvetica,sans-Serif" font-size="10.00">notifyMemoryArgsChanged()</text>
<text text-anchor="start" x="9" y="-869.5" font-family="Helvetica,sans-Serif" font-size="10.00">+</text>
<text text-anchor="start" x="22" y="-869.5" font-family="Helvetica,sans-Serif" font-size="10.00">copyMemory()</text>
<text text-anchor="start" x="9" y="-854.5" font-family="Helvetica,sans-Serif" font-size="10.00">+</text>
<text text-anchor="start" x="22" y="-854.5" font-family="Helvetica,sans-Serif" font-size="10.00">memoryResource()</text>
<polygon fill="#666666" stroke="#666666" points="5,-1029.5 5,-1029.5 167,-1029.5 167,-1029.5 5,-1029.5"/>
<polygon fill="#666666" stroke="#666666" points="5,-1014.5 5,-1014.5 167,-1014.5 167,-1014.5 5,-1014.5"/>
<polygon fill="none" stroke="#666666" points="5,-848 5,-1047 167,-1047 167,-848 5,-848"/>
</a>
</g>
</g>
<!-- Node4&#45;&gt;Node3 -->
<g id="edge3_Node000003_Node000004" class="edge">
<title>Node4&#45;&gt;Node3</title>
<g id="a_edge3_Node000003_Node000004"><a xlink:title=" ">
<path fill="none" stroke="#63b8ff" d="M86.85,-837.79C87.53,-749.83 88.49,-626.67 89.17,-539.35"/>
<polygon fill="none" stroke="#63b8ff" points="83.35,-837.77 86.77,-847.8 90.35,-837.82 83.35,-837.77"/>
</a>
</g>
</g>
<!-- Node5 -->
<g id="Node000005" class="node">
<title>Node5</title>
<g id="a_Node000005"><a xlink:href="../../d9/db0/classArcane_1_1AlignedMemoryAllocator.html" target="_top" xlink:title="Allocateur mémoire avec alignement mémoire spécifique.">
<polygon fill="white" stroke="transparent" points="273.5,-811 102.5,-811 102.5,-597 273.5,-597 273.5,-811"/>
<text text-anchor="start" x="108" y="-799" font-family="Helvetica,sans-Serif" font-size="10.00">Arcane::AlignedMemoryAllocator</text>
<text text-anchor="start" x="114.5" y="-784" font-family="Helvetica,sans-Serif" font-size="10.00">&#45;</text>
<text text-anchor="start" x="130" y="-784" font-family="Helvetica,sans-Serif" font-size="10.00">m_alignment</text>
<text text-anchor="start" x="112" y="-769" font-family="Helvetica,sans-Serif" font-size="10.00">+</text>
<text text-anchor="start" x="130" y="-769" font-family="Helvetica,sans-Serif" font-size="10.00">hasRealloc()</text>
<text text-anchor="start" x="112" y="-754" font-family="Helvetica,sans-Serif" font-size="10.00">+</text>
<text text-anchor="start" x="130" y="-754" font-family="Helvetica,sans-Serif" font-size="10.00">allocate()</text>
<text text-anchor="start" x="112" y="-739" font-family="Helvetica,sans-Serif" font-size="10.00">+</text>
<text text-anchor="start" x="130" y="-739" font-family="Helvetica,sans-Serif" font-size="10.00">reallocate()</text>
<text text-anchor="start" x="112" y="-724" font-family="Helvetica,sans-Serif" font-size="10.00">+</text>
<text text-anchor="start" x="130" y="-724" font-family="Helvetica,sans-Serif" font-size="10.00">deallocate()</text>
<text text-anchor="start" x="112" y="-709" font-family="Helvetica,sans-Serif" font-size="10.00">+</text>
<text text-anchor="start" x="130" y="-709" font-family="Helvetica,sans-Serif" font-size="10.00">adjustedCapacity()</text>
<text text-anchor="start" x="112" y="-694" font-family="Helvetica,sans-Serif" font-size="10.00">+</text>
<text text-anchor="start" x="130" y="-694" font-family="Helvetica,sans-Serif" font-size="10.00">guaranteedAlignment()</text>
<text text-anchor="start" x="112" y="-679" font-family="Helvetica,sans-Serif" font-size="10.00">+</text>
<text text-anchor="start" x="130" y="-679" font-family="Helvetica,sans-Serif" font-size="10.00">memoryResource()</text>
<text text-anchor="start" x="112" y="-664" font-family="Helvetica,sans-Serif" font-size="10.00">+</text>
<text text-anchor="start" x="130" y="-664" font-family="Helvetica,sans-Serif" font-size="10.00">simdAlignment()</text>
<text text-anchor="start" x="112" y="-649" font-family="Helvetica,sans-Serif" font-size="10.00">+</text>
<text text-anchor="start" x="130" y="-649" font-family="Helvetica,sans-Serif" font-size="10.00">cacheLineAlignment()</text>
<text text-anchor="start" x="112" y="-634" font-family="Helvetica,sans-Serif" font-size="10.00">+</text>
<text text-anchor="start" x="130" y="-634" font-family="Helvetica,sans-Serif" font-size="10.00">Simd()</text>
<text text-anchor="start" x="112" y="-619" font-family="Helvetica,sans-Serif" font-size="10.00">+</text>
<text text-anchor="start" x="130" y="-619" font-family="Helvetica,sans-Serif" font-size="10.00">CacheLine()</text>
<text text-anchor="start" x="112" y="-604" font-family="Helvetica,sans-Serif" font-size="10.00">#</text>
<text text-anchor="start" x="130" y="-604" font-family="Helvetica,sans-Serif" font-size="10.00">AlignedMemoryAllocator()</text>
<polygon fill="#666666" stroke="#666666" points="103,-794 103,-794 274,-794 274,-794 103,-794"/>
<polygon fill="#666666" stroke="#666666" points="103,-779 103,-779 128,-779 128,-779 103,-779"/>
<polygon fill="#666666" stroke="#666666" points="128,-779 128,-779 274,-779 274,-779 128,-779"/>
<polygon fill="none" stroke="#666666" points="102.5,-597 102.5,-811 273.5,-811 273.5,-597 102.5,-597"/>
</a>
</g>
</g>
<!-- Node4&#45;&gt;Node5 -->
<g id="edge5_Node000005_Node000004" class="edge">
<title>Node4&#45;&gt;Node5</title>
<g id="a_edge5_Node000005_Node000004"><a xlink:title=" ">
<path fill="none" stroke="#63b8ff" d="M131.62,-838.49C135.46,-829.39 139.34,-820.2 143.18,-811.12"/>
<polygon fill="none" stroke="#63b8ff" points="128.3,-837.35 127.63,-847.92 134.75,-840.07 128.3,-837.35"/>
</a>
</g>
</g>
<!-- Node5&#45;&gt;Node3 -->
<g id="edge4_Node000003_Node000005" class="edge">
<title>Node5&#45;&gt;Node3</title>
<g id="a_edge4_Node000003_Node000005"><a xlink:title=" ">
<path fill="none" stroke="#63b8ff" d="M149.41,-596.68C143.95,-581.62 138.3,-566.07 132.76,-550.82"/>
<polygon fill="none" stroke="#63b8ff" points="132.65,-550.51 126.84,-546.23 128.56,-539.23 134.36,-543.5 132.65,-550.51"/>
</a>
</g>
<text text-anchor="middle" x="191.5" y="-571" font-family="Helvetica,sans-Serif" font-size="10.00" fill="grey"> &#45;CacheLineAllocator</text>
<text text-anchor="middle" x="191.5" y="-560" font-family="Helvetica,sans-Serif" font-size="10.00" fill="grey">&#45;SimdAllocator</text>
</g>
<!-- Node5&#45;&gt;Node5 -->
<g id="edge6_Node000005_Node000005" class="edge">
<title>Node5&#45;&gt;Node5</title>
<g id="a_edge6_Node000005_Node000005"><a xlink:title=" ">
<path fill="none" stroke="#63b8ff" d="M273.66,-724.25C284.42,-720.68 291.5,-713.93 291.5,-704 291.5,-697.95 288.87,-693.08 284.38,-689.39"/>
<polygon fill="none" stroke="#63b8ff" points="284.28,-689.34 277.11,-690.09 273.66,-683.75 280.84,-683.01 284.28,-689.34"/>
</a>
</g>
<text text-anchor="middle" x="342" y="-707" font-family="Helvetica,sans-Serif" font-size="10.00" fill="grey"> &#45;CacheLineAllocator</text>
<text text-anchor="middle" x="342" y="-696" font-family="Helvetica,sans-Serif" font-size="10.00" fill="grey">&#45;SimdAllocator</text>
</g>
</g>
</svg>

<g id="navigator" transform="translate(0 0)" fill="#404254">
  <rect fill="#f2f5e9" fill-opacity="0.5" stroke="#606060" stroke-width=".5" x="0" y="0" width="60" height="60"/>
  <use id="zoomplus" xlink:href="#zoomPlus" x="17" y="9" onmousedown="handleZoom(evt,'in')"/>
  <use id="zoomminus" xlink:href="#zoomMin" x="42" y="9" onmousedown="handleZoom(evt,'out')"/>
  <use id="reset" xlink:href="#resetDef" x="30" y="36" onmousedown="handleReset()"/>
   <use id="arrowup" xlink:href="#arrowUp" x="0" y="0" onmousedown="handlePan(0,-1)"/>
  <use id="arrowright" xlink:href="#arrowRight" x="0" y="0" onmousedown="handlePan(1,0)"/>
  <use id="arrowdown" xlink:href="#arrowDown" x="0" y="0" onmousedown="handlePan(0,1)"/>
  <use id="arrowleft" xlink:href="#arrowLeft" x="0" y="0" onmousedown="handlePan(-1,0)"/>
</g>
<svg viewBox="0 0 15 15" width="100%" height="30px" preserveAspectRatio="xMaxYMin meet">
 <g id="arrow_out" transform="scale(0.3 0.3)">
  <a xlink:href="classArcane_1_1Accelerator_1_1Hip_1_1UnifiedMemoryHipMemoryAllocator__coll__graph_org.svg" target="_base">
   <rect id="button" ry="5" rx="5" y="6" x="6" height="38" width="38"
        fill="#f2f5e9" fill-opacity="0.5" stroke="#606060" stroke-width="1.0"/>
   <path id="arrow"
     d="M 11.500037,31.436501 C 11.940474,20.09759 22.043105,11.32322 32.158766,21.979434 L 37.068811,17.246167 C 37.068811,17.246167 37.088388,32 37.088388,32 L 22.160133,31.978069 C 22.160133,31.978069 26.997745,27.140456 26.997745,27.140456 C 18.528582,18.264221 13.291696,25.230495 11.500037,31.436501 z"
     style="fill:#404040;"/>
  </a>
 </g>
</svg>

<style type='text/css'>
<![CDATA[
[data-mouse-over-selected='false'] { opacity: 0.7; }
[data-mouse-over-selected='true']  { opacity: 1.0; }
]]>
</style>
<script type="application/ecmascript"><![CDATA[
document.addEventListener('DOMContentLoaded', (event) => {
  highlightEdges();
  highlightAdjacentNodes();
});
]]></script>
</svg>
