<?xml version="1.0" encoding="UTF-8" standalone="no"?>
<!DOCTYPE svg PUBLIC "-//W3C//DTD SVG 1.1//EN"
 "http://www.w3.org/Graphics/SVG/1.1/DTD/svg11.dtd">
<!-- Generated by graphviz version 2.43.0 (0)
 -->
<!-- Title: Arcane::ItemBase::nbHParent Pages: 1 -->
<svg width="595pt" height="183pt"
 viewBox="0.00 0.00 595.00 183.00" xmlns="http://www.w3.org/2000/svg" xmlns:xlink="http://www.w3.org/1999/xlink">
<g id="graph0" class="graph" transform="scale(1 1) rotate(0) translate(4 179)">
<title>Arcane::ItemBase::nbHParent</title>
<!-- Node1 -->
<g id="Node000001" class="node">
<title>Node1</title>
<g id="a_Node000001"><a xlink:title="Nombre de parents pour l&#39;AMR.">
<polygon fill="#999999" stroke="#666666" points="587,-62.5 428,-62.5 428,-43.5 587,-43.5 587,-62.5"/>
<text text-anchor="middle" x="507.5" y="-50.5" font-family="Helvetica,sans-Serif" font-size="10.00">Arcane::ItemBase::nbHParent</text>
</a>
</g>
</g>
<!-- Node2 -->
<g id="Node000002" class="node">
<title>Node2</title>
<g id="a_Node000002"><a xlink:href="../../dc/d2d/classArcane_1_1mesh_1_1MeshRefinement.html#afa9416f024829475604b1673984e0f17" target="_top" xlink:title=" ">
<polygon fill="white" stroke="#666666" points="392,-129 220,-129 220,-99 392,-99 392,-129"/>
<text text-anchor="start" x="228" y="-117" font-family="Helvetica,sans-Serif" font-size="10.00">Arcane::mesh::MeshRefinement</text>
<text text-anchor="middle" x="306" y="-106" font-family="Helvetica,sans-Serif" font-size="10.00">::_contract</text>
</a>
</g>
</g>
<!-- Node1&#45;&gt;Node2 -->
<g id="edge1_Node000001_Node000002" class="edge">
<title>Node1&#45;&gt;Node2</title>
<g id="a_edge1_Node000001_Node000002"><a xlink:title=" ">
<path fill="none" stroke="#63b8ff" d="M468.17,-65.78C445.98,-73.08 417.49,-82.29 392,-90 382.17,-92.98 371.66,-96.04 361.5,-98.94"/>
<polygon fill="#63b8ff" stroke="#63b8ff" points="469.49,-69.03 477.89,-62.57 467.3,-62.38 469.49,-69.03"/>
</a>
</g>
</g>
<!-- Node5 -->
<g id="Node000005" class="node">
<title>Node5</title>
<g id="a_Node000005"><a xlink:href="../../d7/dac/classArcane_1_1ItemBase.html#a4efac6c851dd9f51d874a6e91cbfe8d3" target="_top" xlink:title=" ">
<polygon fill="white" stroke="#666666" points="372.5,-62.5 239.5,-62.5 239.5,-43.5 372.5,-43.5 372.5,-62.5"/>
<text text-anchor="middle" x="306" y="-50.5" font-family="Helvetica,sans-Serif" font-size="10.00">Arcane::ItemBase::level</text>
</a>
</g>
</g>
<!-- Node1&#45;&gt;Node5 -->
<g id="edge4_Node000001_Node000005" class="edge">
<title>Node1&#45;&gt;Node5</title>
<g id="a_edge4_Node000001_Node000005"><a xlink:title=" ">
<path fill="none" stroke="#63b8ff" d="M417.55,-53C402.43,-53 386.99,-53 372.61,-53"/>
<polygon fill="#63b8ff" stroke="#63b8ff" points="417.94,-56.5 427.94,-53 417.94,-49.5 417.94,-56.5"/>
</a>
</g>
</g>
<!-- Node7 -->
<g id="Node000007" class="node">
<title>Node7</title>
<g id="a_Node000007"><a xlink:href="../../dd/df1/classArcane_1_1ItemInternal.html#ae4bb648c816a405b6e8836ffb934cd14" target="_top" xlink:title="AMR.">
<polygon fill="white" stroke="#666666" points="150,-30 34,-30 34,0 150,0 150,-30"/>
<text text-anchor="start" x="42" y="-18" font-family="Helvetica,sans-Serif" font-size="10.00">Arcane::ItemInternal</text>
<text text-anchor="middle" x="92" y="-7" font-family="Helvetica,sans-Serif" font-size="10.00">::topHParent</text>
</a>
</g>
</g>
<!-- Node1&#45;&gt;Node7 -->
<g id="edge8_Node000001_Node000007" class="edge">
<title>Node1&#45;&gt;Node7</title>
<g id="a_edge8_Node000001_Node000007"><a xlink:title=" ">
<path fill="none" stroke="#63b8ff" d="M445.91,-41.77C428.55,-38.88 409.57,-36.01 392,-34 308.15,-24.4 210.48,-19.34 150.19,-16.92"/>
<polygon fill="#63b8ff" stroke="#63b8ff" points="445.48,-45.25 455.93,-43.48 446.65,-38.35 445.48,-45.25"/>
</a>
</g>
</g>
<!-- Node3 -->
<g id="Node000003" class="node">
<title>Node3</title>
<g id="a_Node000003"><a xlink:href="../../dc/d2d/classArcane_1_1mesh_1_1MeshRefinement.html#ae34593805186006d77df2ac90997be5d" target="_top" xlink:title=" ">
<polygon fill="white" stroke="#666666" points="178,-175 6,-175 6,-145 178,-145 178,-175"/>
<text text-anchor="start" x="14" y="-163" font-family="Helvetica,sans-Serif" font-size="10.00">Arcane::mesh::MeshRefinement</text>
<text text-anchor="middle" x="92" y="-152" font-family="Helvetica,sans-Serif" font-size="10.00">::coarsenItems</text>
</a>
</g>
</g>
<!-- Node2&#45;&gt;Node3 -->
<g id="edge2_Node000002_Node000003" class="edge">
<title>Node2&#45;&gt;Node3</title>
<g id="a_edge2_Node000002_Node000003"><a xlink:title=" ">
<path fill="none" stroke="#63b8ff" d="M225.79,-131.19C204.9,-135.72 182.52,-140.57 162.21,-144.98"/>
<polygon fill="#63b8ff" stroke="#63b8ff" points="226.55,-134.6 235.58,-129.06 225.07,-127.76 226.55,-134.6"/>
</a>
</g>
</g>
<!-- Node4 -->
<g id="Node000004" class="node">
<title>Node4</title>
<g id="a_Node000004"><a xlink:href="../../dc/d2d/classArcane_1_1mesh_1_1MeshRefinement.html#a61127955b9db295cb59a82007768fd1a" target="_top" xlink:title=" ">
<polygon fill="white" stroke="#666666" points="178,-127 6,-127 6,-97 178,-97 178,-127"/>
<text text-anchor="start" x="14" y="-115" font-family="Helvetica,sans-Serif" font-size="10.00">Arcane::mesh::MeshRefinement</text>
<text text-anchor="middle" x="92" y="-104" font-family="Helvetica,sans-Serif" font-size="10.00">::refineAndCoarsenItems</text>
</a>
</g>
</g>
<!-- Node2&#45;&gt;Node4 -->
<g id="edge3_Node000002_Node000004" class="edge">
<title>Node2&#45;&gt;Node4</title>
<g id="a_edge3_Node000002_Node000004"><a xlink:title=" ">
<path fill="none" stroke="#63b8ff" d="M209.88,-113.1C199.26,-113 188.5,-112.9 178.03,-112.8"/>
<polygon fill="#63b8ff" stroke="#63b8ff" points="209.96,-116.6 219.99,-113.2 210.03,-109.6 209.96,-116.6"/>
</a>
</g>
</g>
<!-- Node5&#45;&gt;Node5 -->
<g id="edge6_Node000005_Node000005" class="edge">
<title>Node5&#45;&gt;Node5</title>
<g id="a_edge6_Node000005_Node000005"><a xlink:title=" ">
<path fill="none" stroke="#63b8ff" d="M343.5,-70.19C343.49,-75.92 330.99,-80.5 306,-80.5 270.45,-80.5 260.18,-71.23 275.17,-62.58"/>
<polygon fill="#63b8ff" stroke="#63b8ff" points="346.05,-67.79 336.83,-62.58 340.79,-72.41 346.05,-67.79"/>
</a>
</g>
</g>
<!-- Node6 -->
<g id="Node000006" class="node">
<title>Node6</title>
<g id="a_Node000006"><a xlink:href="../../da/d1c/classArcane_1_1mesh_1_1GhostLayerBuilder.html#a87ae4a5d3c6a3b17b49fea35cb02aa85" target="_top" xlink:title="AMR.">
<polygon fill="white" stroke="#666666" points="184,-78 0,-78 0,-48 184,-48 184,-78"/>
<text text-anchor="start" x="8" y="-66" font-family="Helvetica,sans-Serif" font-size="10.00">Arcane::mesh::GhostLayer</text>
<text text-anchor="middle" x="92" y="-55" font-family="Helvetica,sans-Serif" font-size="10.00">Builder::addGhostChildFromParent</text>
</a>
</g>
</g>
<!-- Node5&#45;&gt;Node6 -->
<g id="edge5_Node000005_Node000006" class="edge">
<title>Node5&#45;&gt;Node6</title>
<g id="a_edge5_Node000005_Node000006"><a xlink:title=" ">
<path fill="none" stroke="#63b8ff" d="M229.36,-56.57C214.67,-57.26 199.13,-57.99 184.01,-58.71"/>
<polygon fill="#63b8ff" stroke="#63b8ff" points="229.55,-60.06 239.37,-56.1 229.22,-53.07 229.55,-60.06"/>
</a>
</g>
</g>
<!-- Node5&#45;&gt;Node7 -->
<g id="edge7_Node000005_Node000007" class="edge">
<title>Node5&#45;&gt;Node7</title>
<g id="a_edge7_Node000005_Node000007"><a xlink:title=" ">
<path fill="none" stroke="#63b8ff" d="M241.75,-41.66C212.74,-36.46 178.59,-30.34 150.34,-25.28"/>
<polygon fill="#63b8ff" stroke="#63b8ff" points="241.32,-45.14 251.78,-43.46 242.55,-38.25 241.32,-45.14"/>
</a>
</g>
</g>
</g>
</svg>
