<?xml version="1.0" encoding="UTF-8" standalone="no"?>
<!DOCTYPE svg PUBLIC "-//W3C//DTD SVG 1.1//EN"
 "http://www.w3.org/Graphics/SVG/1.1/DTD/svg11.dtd">
<!-- Generated by graphviz version 2.43.0 (0)
 -->
<!-- Title: Arcane::ItemBase::localId Pages: 1 -->
<svg width="813pt" height="1242pt"
 viewBox="0.00 0.00 813.00 1241.50" xmlns="http://www.w3.org/2000/svg" xmlns:xlink="http://www.w3.org/1999/xlink">
<g id="graph0" class="graph" transform="scale(1 1) rotate(0) translate(4 1237.5)">
<title>Arcane::ItemBase::localId</title>
<!-- Node1 -->
<g id="Node000001" class="node">
<title>Node1</title>
<g id="a_Node000001"><a xlink:title="Numéro local (au sous&#45;domaine) de l&#39;entité">
<polygon fill="#999999" stroke="#666666" points="805,-580 664,-580 664,-561 805,-561 805,-580"/>
<text text-anchor="middle" x="734.5" y="-568" font-family="Helvetica,sans-Serif" font-size="10.00">Arcane::ItemBase::localId</text>
</a>
</g>
</g>
<!-- Node2 -->
<g id="Node000002" class="node">
<title>Node2</title>
<g id="a_Node000002"><a xlink:href="../../db/dfc/classArcane_1_1mesh_1_1DoFFamily.html#a8e82acec644edc5387c607ca2d86fb28" target="_top" xlink:title="Construction de l&#39;item Family. C&#39;est le DoFManager qui en a la responsabilite.">
<polygon fill="white" stroke="#666666" points="595.5,-1209.5 454.5,-1209.5 454.5,-1179.5 595.5,-1179.5 595.5,-1209.5"/>
<text text-anchor="start" x="462.5" y="-1197.5" font-family="Helvetica,sans-Serif" font-size="10.00">Arcane::mesh::DoFFamily</text>
<text text-anchor="middle" x="525" y="-1186.5" font-family="Helvetica,sans-Serif" font-size="10.00">::_addItems</text>
</a>
</g>
</g>
<!-- Node1&#45;&gt;Node2 -->
<g id="edge1_Node000001_Node000002" class="edge">
<title>Node1&#45;&gt;Node2</title>
<g id="a_edge1_Node000001_Node000002"><a xlink:title=" ">
<path fill="none" stroke="#63b8ff" d="M732.28,-590.22C726.3,-680.77 697.66,-1056.01 628,-1146.5 616.36,-1161.62 598.79,-1172.19 581.5,-1179.47"/>
<polygon fill="#63b8ff" stroke="#63b8ff" points="735.78,-590.21 732.93,-580.01 728.8,-589.76 735.78,-590.21"/>
</a>
</g>
</g>
<!-- Node4 -->
<g id="Node000004" class="node">
<title>Node4</title>
<g id="a_Node000004"><a xlink:href="../../d6/da2/classArcane_1_1mesh_1_1DynamicMeshKindInfos.html#a6ee45d5713a7be2aad09eda5dcbca48e" target="_top" xlink:title="Ajoute une entité.">
<polygon fill="white" stroke="#666666" points="604.5,-1137.5 445.5,-1137.5 445.5,-1107.5 604.5,-1107.5 604.5,-1137.5"/>
<text text-anchor="start" x="453.5" y="-1125.5" font-family="Helvetica,sans-Serif" font-size="10.00">Arcane::mesh::DynamicMesh</text>
<text text-anchor="middle" x="525" y="-1114.5" font-family="Helvetica,sans-Serif" font-size="10.00">KindInfos::_allocOne</text>
</a>
</g>
</g>
<!-- Node1&#45;&gt;Node4 -->
<g id="edge3_Node000001_Node000004" class="edge">
<title>Node1&#45;&gt;Node4</title>
<g id="a_edge3_Node000001_Node000004"><a xlink:title=" ">
<path fill="none" stroke="#63b8ff" d="M731.7,-590.37C723.76,-673.98 689.59,-996.54 628,-1074.5 616.11,-1089.55 598.38,-1100.11 581.01,-1107.42"/>
<polygon fill="#63b8ff" stroke="#63b8ff" points="735.18,-590.68 732.62,-580.4 728.21,-590.03 735.18,-590.68"/>
</a>
</g>
</g>
<!-- Node8 -->
<g id="Node000008" class="node">
<title>Node8</title>
<g id="a_Node000008"><a xlink:href="../../df/dd4/classArcane_1_1mesh_1_1ItemInternalMap.html#ad422ac6cf6a54d2577e1ad47ccc3298e" target="_top" xlink:title="Change la valeurs des localId()">
<polygon fill="white" stroke="#666666" points="599.5,-1065.5 450.5,-1065.5 450.5,-1035.5 599.5,-1035.5 599.5,-1065.5"/>
<text text-anchor="start" x="458.5" y="-1053.5" font-family="Helvetica,sans-Serif" font-size="10.00">Arcane::mesh::ItemInternal</text>
<text text-anchor="middle" x="525" y="-1042.5" font-family="Helvetica,sans-Serif" font-size="10.00">Map::_changeLocalIds</text>
</a>
</g>
</g>
<!-- Node1&#45;&gt;Node8 -->
<g id="edge7_Node000001_Node000008" class="edge">
<title>Node1&#45;&gt;Node8</title>
<g id="a_edge7_Node000001_Node000008"><a xlink:title=" ">
<path fill="none" stroke="#63b8ff" d="M731.69,-590.04C723.99,-668.94 691.41,-962.85 628,-1026.5 620.17,-1034.36 610.28,-1039.84 599.75,-1043.62"/>
<polygon fill="#63b8ff" stroke="#63b8ff" points="735.18,-590.3 732.65,-580.01 728.21,-589.63 735.18,-590.3"/>
</a>
</g>
</g>
<!-- Node9 -->
<g id="Node000009" class="node">
<title>Node9</title>
<g id="a_Node000009"><a xlink:href="../../dc/d2d/classArcane_1_1mesh_1_1MeshRefinement.html#afa9416f024829475604b1673984e0f17" target="_top" xlink:title=" ">
<polygon fill="white" stroke="#666666" points="611,-1017.5 439,-1017.5 439,-987.5 611,-987.5 611,-1017.5"/>
<text text-anchor="start" x="447" y="-1005.5" font-family="Helvetica,sans-Serif" font-size="10.00">Arcane::mesh::MeshRefinement</text>
<text text-anchor="middle" x="525" y="-994.5" font-family="Helvetica,sans-Serif" font-size="10.00">::_contract</text>
</a>
</g>
</g>
<!-- Node1&#45;&gt;Node9 -->
<g id="edge8_Node000001_Node000009" class="edge">
<title>Node1&#45;&gt;Node9</title>
<g id="a_edge8_Node000001_Node000009"><a xlink:title=" ">
<path fill="none" stroke="#63b8ff" d="M731.09,-590.3C721.69,-664.2 685.21,-922.53 628,-978.5 623.06,-983.33 617.34,-987.26 611.17,-990.45"/>
<polygon fill="#63b8ff" stroke="#63b8ff" points="734.6,-590.44 732.36,-580.08 727.65,-589.57 734.6,-590.44"/>
</a>
</g>
</g>
<!-- Node12 -->
<g id="Node000012" class="node">
<title>Node12</title>
<g id="a_Node000012"><a xlink:href="../../d6/d9a/structArcane_1_1ItemPrinter_1_1Internal.html#a7eb61687cbddea4fe38a3a29e971412e" target="_top" xlink:title="Ecrit les informations basiques de l&#39;item.">
<polygon fill="white" stroke="#666666" points="587.5,-921.5 462.5,-921.5 462.5,-891.5 587.5,-891.5 587.5,-921.5"/>
<text text-anchor="start" x="470.5" y="-909.5" font-family="Helvetica,sans-Serif" font-size="10.00">Arcane::ItemPrinter</text>
<text text-anchor="middle" x="525" y="-898.5" font-family="Helvetica,sans-Serif" font-size="10.00">::Internal::_printBasics</text>
</a>
</g>
</g>
<!-- Node1&#45;&gt;Node12 -->
<g id="edge11_Node000001_Node000012" class="edge">
<title>Node1&#45;&gt;Node12</title>
<g id="a_edge11_Node000001_Node000012"><a xlink:title=" ">
<path fill="none" stroke="#63b8ff" d="M733.07,-590.33C730.74,-645.54 716.27,-802.24 628,-882.5 616.9,-892.6 602.36,-898.68 587.75,-902.28"/>
<polygon fill="#63b8ff" stroke="#63b8ff" points="736.57,-590.26 733.4,-580.15 729.57,-590.03 736.57,-590.26"/>
</a>
</g>
</g>
<!-- Node15 -->
<g id="Node000015" class="node">
<title>Node15</title>
<g id="a_Node000015"><a xlink:href="../../d6/d9a/structArcane_1_1ItemPrinter_1_1Internal.html#a52162080fa35ab469f075e526fabc11e" target="_top" xlink:title="Ecrit les infos sur les parents.">
<polygon fill="white" stroke="#666666" points="590,-969.5 460,-969.5 460,-939.5 590,-939.5 590,-969.5"/>
<text text-anchor="start" x="468" y="-957.5" font-family="Helvetica,sans-Serif" font-size="10.00">Arcane::ItemPrinter</text>
<text text-anchor="middle" x="525" y="-946.5" font-family="Helvetica,sans-Serif" font-size="10.00">::Internal::_printParents</text>
</a>
</g>
</g>
<!-- Node1&#45;&gt;Node15 -->
<g id="edge14_Node000001_Node000015" class="edge">
<title>Node1&#45;&gt;Node15</title>
<g id="a_edge14_Node000001_Node000015"><a xlink:title=" ">
<path fill="none" stroke="#63b8ff" d="M734.1,-590.06C734.82,-650.42 728.38,-835.4 628,-930.5 617.63,-940.32 604.03,-946.38 590.16,-950.05"/>
<polygon fill="#63b8ff" stroke="#63b8ff" points="737.6,-589.93 733.9,-580 730.6,-590.07 737.6,-589.93"/>
</a>
</g>
</g>
<!-- Node16 -->
<g id="Node000016" class="node">
<title>Node16</title>
<g id="a_Node000016"><a xlink:href="../../d1/d3c/classArcane_1_1mesh_1_1DynamicMeshIncrementalBuilder.html#a2049252a1940fdf048fe9218204557bb" target="_top" xlink:title="Ajoute des mailles au maillage actuel.">
<polygon fill="white" stroke="#666666" points="604.5,-873.5 445.5,-873.5 445.5,-843.5 604.5,-843.5 604.5,-873.5"/>
<text text-anchor="start" x="453.5" y="-861.5" font-family="Helvetica,sans-Serif" font-size="10.00">Arcane::mesh::DynamicMesh</text>
<text text-anchor="middle" x="525" y="-850.5" font-family="Helvetica,sans-Serif" font-size="10.00">IncrementalBuilder::addCells</text>
</a>
</g>
</g>
<!-- Node1&#45;&gt;Node16 -->
<g id="edge17_Node000001_Node000016" class="edge">
<title>Node1&#45;&gt;Node16</title>
<g id="a_edge17_Node000001_Node000016"><a xlink:title=" ">
<path fill="none" stroke="#63b8ff" d="M731.7,-590.21C726.11,-639.45 704.51,-768.62 628,-834.5 621.18,-840.38 613.18,-844.88 604.71,-848.31"/>
<polygon fill="#63b8ff" stroke="#63b8ff" points="735.19,-590.53 732.73,-580.23 728.22,-589.81 735.19,-590.53"/>
</a>
</g>
</g>
<!-- Node17 -->
<g id="Node000017" class="node">
<title>Node17</title>
<g id="a_Node000017"><a xlink:href="../../d1/d3c/classArcane_1_1mesh_1_1DynamicMeshIncrementalBuilder.html#a904f1b382bd93902436a888ff355a6c3" target="_top" xlink:title="Ajoute des arêtes au maillage actuel.">
<polygon fill="white" stroke="#666666" points="606.5,-825.5 443.5,-825.5 443.5,-795.5 606.5,-795.5 606.5,-825.5"/>
<text text-anchor="start" x="451.5" y="-813.5" font-family="Helvetica,sans-Serif" font-size="10.00">Arcane::mesh::DynamicMesh</text>
<text text-anchor="middle" x="525" y="-802.5" font-family="Helvetica,sans-Serif" font-size="10.00">IncrementalBuilder::addEdges</text>
</a>
</g>
</g>
<!-- Node1&#45;&gt;Node17 -->
<g id="edge18_Node000001_Node000017" class="edge">
<title>Node1&#45;&gt;Node17</title>
<g id="a_edge18_Node000001_Node000017"><a xlink:title=" ">
<path fill="none" stroke="#63b8ff" d="M729.82,-590.02C720.71,-632.7 692.97,-734.63 628,-786.5 621.6,-791.61 614.3,-795.66 606.61,-798.87"/>
<polygon fill="#63b8ff" stroke="#63b8ff" points="733.28,-590.57 731.83,-580.08 726.42,-589.19 733.28,-590.57"/>
</a>
</g>
</g>
<!-- Node18 -->
<g id="Node000018" class="node">
<title>Node18</title>
<g id="a_Node000018"><a xlink:href="../../d1/d3c/classArcane_1_1mesh_1_1DynamicMeshIncrementalBuilder.html#a8e0f271f56fad99cee079e0582170379" target="_top" xlink:title="Ajoute des faces au maillage actuel.">
<polygon fill="white" stroke="#666666" points="605.5,-777.5 444.5,-777.5 444.5,-747.5 605.5,-747.5 605.5,-777.5"/>
<text text-anchor="start" x="452.5" y="-765.5" font-family="Helvetica,sans-Serif" font-size="10.00">Arcane::mesh::DynamicMesh</text>
<text text-anchor="middle" x="525" y="-754.5" font-family="Helvetica,sans-Serif" font-size="10.00">IncrementalBuilder::addFaces</text>
</a>
</g>
</g>
<!-- Node1&#45;&gt;Node18 -->
<g id="edge19_Node000001_Node000018" class="edge">
<title>Node1&#45;&gt;Node18</title>
<g id="a_edge19_Node000001_Node000018"><a xlink:title=" ">
<path fill="none" stroke="#63b8ff" d="M726.94,-589.97C713.98,-625.39 681.58,-700.2 628,-738.5 621.19,-743.37 613.54,-747.26 605.56,-750.37"/>
<polygon fill="#63b8ff" stroke="#63b8ff" points="730.32,-590.93 730.35,-580.33 723.72,-588.6 730.32,-590.93"/>
</a>
</g>
</g>
<!-- Node19 -->
<g id="Node000019" class="node">
<title>Node19</title>
<g id="a_Node000019"><a xlink:href="../../d1/d3c/classArcane_1_1mesh_1_1DynamicMeshIncrementalBuilder.html#ae47b40d04a265a821e5b5643af631e48" target="_top" xlink:title="Ajout générique d&#39;items d&#39;une famille, décrite par son ItemInfo.">
<polygon fill="white" stroke="#666666" points="622,-729.5 428,-729.5 428,-699.5 622,-699.5 622,-729.5"/>
<text text-anchor="start" x="436" y="-717.5" font-family="Helvetica,sans-Serif" font-size="10.00">Arcane::mesh::DynamicMesh</text>
<text text-anchor="middle" x="525" y="-706.5" font-family="Helvetica,sans-Serif" font-size="10.00">IncrementalBuilder::addFamilyItems</text>
</a>
</g>
</g>
<!-- Node1&#45;&gt;Node19 -->
<g id="edge20_Node000001_Node000019" class="edge">
<title>Node1&#45;&gt;Node19</title>
<g id="a_edge20_Node000001_Node000019"><a xlink:title=" ">
<path fill="none" stroke="#63b8ff" d="M722.67,-588.8C705.89,-615.49 671.01,-664.7 628,-690.5 622.23,-693.96 615.99,-696.93 609.55,-699.46"/>
<polygon fill="#63b8ff" stroke="#63b8ff" points="725.78,-590.43 728.02,-580.08 719.81,-586.78 725.78,-590.43"/>
</a>
</g>
</g>
<!-- Node20 -->
<g id="Node000020" class="node">
<title>Node20</title>
<g id="a_Node000020"><a xlink:href="../../da/d1c/classArcane_1_1mesh_1_1GhostLayerBuilder.html#a87ae4a5d3c6a3b17b49fea35cb02aa85" target="_top" xlink:title="AMR.">
<polygon fill="white" stroke="#666666" points="617,-681.5 433,-681.5 433,-651.5 617,-651.5 617,-681.5"/>
<text text-anchor="start" x="441" y="-669.5" font-family="Helvetica,sans-Serif" font-size="10.00">Arcane::mesh::GhostLayer</text>
<text text-anchor="middle" x="525" y="-658.5" font-family="Helvetica,sans-Serif" font-size="10.00">Builder::addGhostChildFromParent</text>
</a>
</g>
</g>
<!-- Node1&#45;&gt;Node20 -->
<g id="edge21_Node000001_Node000020" class="edge">
<title>Node1&#45;&gt;Node20</title>
<g id="a_edge21_Node000001_Node000020"><a xlink:title=" ">
<path fill="none" stroke="#63b8ff" d="M714.52,-586.67C694.34,-603.07 660.85,-628.03 628,-642.5 620.26,-645.91 611.96,-648.87 603.57,-651.44"/>
<polygon fill="#63b8ff" stroke="#63b8ff" points="716.84,-589.3 722.32,-580.23 712.38,-583.9 716.84,-589.3"/>
</a>
</g>
</g>
<!-- Node21 -->
<g id="Node000021" class="node">
<title>Node21</title>
<g id="a_Node000021"><a xlink:href="../../db/dfc/classArcane_1_1mesh_1_1DoFFamily.html#a4c1018a11ebc91ae47f58c7346c417de" target="_top" xlink:title="Alloue des entités fantômes.">
<polygon fill="white" stroke="#666666" points="595.5,-633.5 454.5,-633.5 454.5,-603.5 595.5,-603.5 595.5,-633.5"/>
<text text-anchor="start" x="462.5" y="-621.5" font-family="Helvetica,sans-Serif" font-size="10.00">Arcane::mesh::DoFFamily</text>
<text text-anchor="middle" x="525" y="-610.5" font-family="Helvetica,sans-Serif" font-size="10.00">::addGhostItems</text>
</a>
</g>
</g>
<!-- Node1&#45;&gt;Node21 -->
<g id="edge22_Node000001_Node000021" class="edge">
<title>Node1&#45;&gt;Node21</title>
<g id="a_edge22_Node000001_Node000021"><a xlink:title=" ">
<path fill="none" stroke="#63b8ff" d="M682.19,-582.37C654.68,-588.73 620.49,-596.64 591.12,-603.44"/>
<polygon fill="#63b8ff" stroke="#63b8ff" points="683.05,-585.76 692.01,-580.1 681.48,-578.94 683.05,-585.76"/>
</a>
</g>
</g>
<!-- Node23 -->
<g id="Node000023" class="node">
<title>Node23</title>
<g id="a_Node000023"><a xlink:href="../../d1/d3c/classArcane_1_1mesh_1_1DynamicMeshIncrementalBuilder.html#aabe807d902b1530bc238f3e7353fbc56" target="_top" xlink:title="Ajoute des mailles au maillage actuel.">
<polygon fill="white" stroke="#666666" points="628,-585.5 422,-585.5 422,-555.5 628,-555.5 628,-585.5"/>
<text text-anchor="start" x="430" y="-573.5" font-family="Helvetica,sans-Serif" font-size="10.00">Arcane::mesh::DynamicMesh</text>
<text text-anchor="middle" x="525" y="-562.5" font-family="Helvetica,sans-Serif" font-size="10.00">IncrementalBuilder::addHChildrenCells</text>
</a>
</g>
</g>
<!-- Node1&#45;&gt;Node23 -->
<g id="edge24_Node000001_Node000023" class="edge">
<title>Node1&#45;&gt;Node23</title>
<g id="a_edge24_Node000001_Node000023"><a xlink:title=" ">
<path fill="none" stroke="#63b8ff" d="M653.78,-570.5C645.45,-570.5 636.89,-570.5 628.35,-570.5"/>
<polygon fill="#63b8ff" stroke="#63b8ff" points="653.83,-574 663.83,-570.5 653.83,-567 653.83,-574"/>
</a>
</g>
</g>
<!-- Node24 -->
<g id="Node000024" class="node">
<title>Node24</title>
<g id="a_Node000024"><a xlink:href="../../d1/d3c/classArcane_1_1mesh_1_1DynamicMeshIncrementalBuilder.html#a8b300e9019cc3f4428f0e79d0746271f" target="_top" xlink:title="Ajoute des noeuds au maillage actuel.">
<polygon fill="white" stroke="#666666" points="607,-537.5 443,-537.5 443,-507.5 607,-507.5 607,-537.5"/>
<text text-anchor="start" x="451" y="-525.5" font-family="Helvetica,sans-Serif" font-size="10.00">Arcane::mesh::DynamicMesh</text>
<text text-anchor="middle" x="525" y="-514.5" font-family="Helvetica,sans-Serif" font-size="10.00">IncrementalBuilder::addNodes</text>
</a>
</g>
</g>
<!-- Node1&#45;&gt;Node24 -->
<g id="edge25_Node000001_Node000024" class="edge">
<title>Node1&#45;&gt;Node24</title>
<g id="a_edge25_Node000001_Node000024"><a xlink:title=" ">
<path fill="none" stroke="#63b8ff" d="M682.19,-558.63C654.68,-552.27 620.49,-544.36 591.12,-537.56"/>
<polygon fill="#63b8ff" stroke="#63b8ff" points="681.48,-562.06 692.01,-560.9 683.05,-555.24 681.48,-562.06"/>
</a>
</g>
</g>
<!-- Node25 -->
<g id="Node000025" class="node">
<title>Node25</title>
<g id="a_Node000025"><a xlink:href="../../d9/d24/classArcane_1_1mesh_1_1OneMeshItemAdder.html#af40c53c8d1fe87fd701100cfb9475e47" target="_top" xlink:title="Ajoute d&#39;un item parent.">
<polygon fill="white" stroke="#666666" points="604,-489.5 446,-489.5 446,-459.5 604,-459.5 604,-489.5"/>
<text text-anchor="start" x="454" y="-477.5" font-family="Helvetica,sans-Serif" font-size="10.00">Arcane::mesh::OneMeshItem</text>
<text text-anchor="middle" x="525" y="-466.5" font-family="Helvetica,sans-Serif" font-size="10.00">Adder::addOneParentItem</text>
</a>
</g>
</g>
<!-- Node1&#45;&gt;Node25 -->
<g id="edge26_Node000001_Node000025" class="edge">
<title>Node1&#45;&gt;Node25</title>
<g id="a_edge26_Node000001_Node000025"><a xlink:title=" ">
<path fill="none" stroke="#63b8ff" d="M714.52,-554.33C694.34,-537.93 660.85,-512.97 628,-498.5 620.26,-495.09 611.96,-492.13 603.57,-489.56"/>
<polygon fill="#63b8ff" stroke="#63b8ff" points="712.38,-557.1 722.32,-560.77 716.84,-551.7 712.38,-557.1"/>
</a>
</g>
</g>
<!-- Node26 -->
<g id="Node000026" class="node">
<title>Node26</title>
<g id="a_Node000026"><a xlink:href="../../d6/da2/classArcane_1_1mesh_1_1DynamicMeshKindInfos.html#aa449e8e0aa973c0c105cbea9c963861c" target="_top" xlink:title="Vérifie si les structures internes de l&#39;instance sont valides.">
<polygon fill="white" stroke="#666666" points="604.5,-441.5 445.5,-441.5 445.5,-411.5 604.5,-411.5 604.5,-441.5"/>
<text text-anchor="start" x="453.5" y="-429.5" font-family="Helvetica,sans-Serif" font-size="10.00">Arcane::mesh::DynamicMesh</text>
<text text-anchor="middle" x="525" y="-418.5" font-family="Helvetica,sans-Serif" font-size="10.00">KindInfos::checkValid</text>
</a>
</g>
</g>
<!-- Node1&#45;&gt;Node26 -->
<g id="edge27_Node000001_Node000026" class="edge">
<title>Node1&#45;&gt;Node26</title>
<g id="a_edge27_Node000001_Node000026"><a xlink:title=" ">
<path fill="none" stroke="#63b8ff" d="M722.67,-552.2C705.89,-525.51 671.01,-476.3 628,-450.5 620.75,-446.15 612.76,-442.59 604.55,-439.67"/>
<polygon fill="#63b8ff" stroke="#63b8ff" points="719.81,-554.22 728.02,-560.92 725.78,-550.57 719.81,-554.22"/>
</a>
</g>
</g>
<!-- Node28 -->
<g id="Node000028" class="node">
<title>Node28</title>
<g id="a_Node000028"><a xlink:href="../../d6/da2/classArcane_1_1mesh_1_1DynamicMeshKindInfos.html#a299304a0539e6cbed61c064108b31f22" target="_top" xlink:title="Réalloue et recalcule les structures après modification du maillage.">
<polygon fill="white" stroke="#666666" points="386,-403.5 213,-403.5 213,-373.5 386,-373.5 386,-403.5"/>
<text text-anchor="start" x="221" y="-391.5" font-family="Helvetica,sans-Serif" font-size="10.00">Arcane::mesh::DynamicMesh</text>
<text text-anchor="middle" x="299.5" y="-380.5" font-family="Helvetica,sans-Serif" font-size="10.00">KindInfos::finalizeMeshChanged</text>
</a>
</g>
</g>
<!-- Node1&#45;&gt;Node28 -->
<g id="edge35_Node000001_Node000028" class="edge">
<title>Node1&#45;&gt;Node28</title>
<g id="a_edge35_Node000001_Node000028"><a xlink:title=" ">
<path fill="none" stroke="#63b8ff" d="M727.92,-551.07C716.26,-514.45 685.48,-435.9 628,-402.5 549.64,-356.97 442.04,-362.67 371.9,-373.48"/>
<polygon fill="#63b8ff" stroke="#63b8ff" points="724.68,-552.44 730.94,-560.99 731.38,-550.41 724.68,-552.44"/>
</a>
</g>
</g>
<!-- Node29 -->
<g id="Node000029" class="node">
<title>Node29</title>
<g id="a_Node000029"><a xlink:href="../../d6/d0c/classArcane_1_1VariableSynchronizerComputeList.html#afc203e492cf27d4705d883bfccc061fa" target="_top" xlink:title="Création de la liste des éléments de synchronisation.">
<polygon fill="white" stroke="#666666" points="604.5,-355.5 445.5,-355.5 445.5,-325.5 604.5,-325.5 604.5,-355.5"/>
<text text-anchor="start" x="453.5" y="-343.5" font-family="Helvetica,sans-Serif" font-size="10.00">Arcane::VariableSynchronizer</text>
<text text-anchor="middle" x="525" y="-332.5" font-family="Helvetica,sans-Serif" font-size="10.00">ComputeList::compute</text>
</a>
</g>
</g>
<!-- Node1&#45;&gt;Node29 -->
<g id="edge30_Node000001_Node000029" class="edge">
<title>Node1&#45;&gt;Node29</title>
<g id="a_edge30_Node000001_Node000029"><a xlink:title=" ">
<path fill="none" stroke="#63b8ff" d="M728.8,-550.9C718.11,-510.64 688.12,-418.33 628,-369.5 621,-363.81 612.94,-359.24 604.49,-355.56"/>
<polygon fill="#63b8ff" stroke="#63b8ff" points="725.46,-551.96 731.31,-560.8 732.24,-550.24 725.46,-551.96"/>
</a>
</g>
</g>
<!-- Node32 -->
<g id="Node000032" class="node">
<title>Node32</title>
<g id="a_Node000032"><a xlink:href="../../de/dfa/classArcane_1_1mesh_1_1CellFamilySerializer.html#a71b510a36594a16b25a33f9458e10b19" target="_top" xlink:title="Désérialise depuis buf les entités de la famille family().">
<polygon fill="white" stroke="#666666" points="599.5,-307.5 450.5,-307.5 450.5,-277.5 599.5,-277.5 599.5,-307.5"/>
<text text-anchor="start" x="458.5" y="-295.5" font-family="Helvetica,sans-Serif" font-size="10.00">Arcane::mesh::CellFamily</text>
<text text-anchor="middle" x="525" y="-284.5" font-family="Helvetica,sans-Serif" font-size="10.00">Serializer::deserializeItems</text>
</a>
</g>
</g>
<!-- Node1&#45;&gt;Node32 -->
<g id="edge33_Node000001_Node000032" class="edge">
<title>Node1&#45;&gt;Node32</title>
<g id="a_edge33_Node000001_Node000032"><a xlink:title=" ">
<path fill="none" stroke="#63b8ff" d="M731.37,-550.89C725.08,-503.01 702.13,-379.46 628,-316.5 619.82,-309.55 609.99,-304.53 599.71,-300.92"/>
<polygon fill="#63b8ff" stroke="#63b8ff" points="727.9,-551.37 732.58,-560.88 734.85,-550.53 727.9,-551.37"/>
</a>
</g>
</g>
<!-- Node34 -->
<g id="Node000034" class="node">
<title>Node34</title>
<g id="a_Node000034"><a xlink:href="../../d8/d0f/classArcane_1_1mesh_1_1ItemFamily.html#a2f517cc7f7f578087c20fc0be31de1fa" target="_top" xlink:title="Prépare les données pour une protection.">
<polygon fill="white" stroke="#666666" points="597,-259.5 453,-259.5 453,-229.5 597,-229.5 597,-259.5"/>
<text text-anchor="start" x="461" y="-247.5" font-family="Helvetica,sans-Serif" font-size="10.00">Arcane::mesh::ItemFamily</text>
<text text-anchor="middle" x="525" y="-236.5" font-family="Helvetica,sans-Serif" font-size="10.00">::prepareForDump</text>
</a>
</g>
</g>
<!-- Node1&#45;&gt;Node34 -->
<g id="edge36_Node000001_Node000034" class="edge">
<title>Node1&#45;&gt;Node34</title>
<g id="a_edge36_Node000001_Node000034"><a xlink:title=" ">
<path fill="none" stroke="#63b8ff" d="M732.81,-550.59C729.81,-496.49 713.76,-345.69 628,-268.5 619.28,-260.65 608.48,-255.23 597.2,-251.52"/>
<polygon fill="#63b8ff" stroke="#63b8ff" points="729.33,-551.04 733.28,-560.87 736.32,-550.72 729.33,-551.04"/>
</a>
</g>
</g>
<!-- Node36 -->
<g id="Node000036" class="node">
<title>Node36</title>
<g id="a_Node000036"><a xlink:href="../../da/df1/classArcane_1_1ItemGroupImpl.html#a042e673f9a97beff74f61ce884f28e33" target="_top" xlink:title="Supprime et ajoute les entités removed_local_id et added_local_id du groupe.">
<polygon fill="white" stroke="#666666" points="590,-211.5 460,-211.5 460,-181.5 590,-181.5 590,-211.5"/>
<text text-anchor="start" x="468" y="-199.5" font-family="Helvetica,sans-Serif" font-size="10.00">Arcane::ItemGroupImpl</text>
<text text-anchor="middle" x="525" y="-188.5" font-family="Helvetica,sans-Serif" font-size="10.00">::removeAddItems</text>
</a>
</g>
</g>
<!-- Node1&#45;&gt;Node36 -->
<g id="edge38_Node000001_Node000036" class="edge">
<title>Node1&#45;&gt;Node36</title>
<g id="a_edge38_Node000001_Node000036"><a xlink:title=" ">
<path fill="none" stroke="#63b8ff" d="M733.91,-550.7C734,-491.2 725.75,-312.4 628,-220.5 617.6,-210.72 603.98,-204.68 590.1,-201.01"/>
<polygon fill="#63b8ff" stroke="#63b8ff" points="730.41,-550.92 733.8,-560.95 737.41,-550.99 730.41,-550.92"/>
</a>
</g>
</g>
<!-- Node37 -->
<g id="Node000037" class="node">
<title>Node37</title>
<g id="a_Node000037"><a xlink:href="../../d6/da2/classArcane_1_1mesh_1_1DynamicMeshKindInfos.html#a98f526d0a132ecf81a66ba65c03c8a84" target="_top" xlink:title="Supprime l&#39;entité détachée item.">
<polygon fill="white" stroke="#666666" points="611,-163.5 439,-163.5 439,-133.5 611,-133.5 611,-163.5"/>
<text text-anchor="start" x="447" y="-151.5" font-family="Helvetica,sans-Serif" font-size="10.00">Arcane::mesh::DynamicMesh</text>
<text text-anchor="middle" x="525" y="-140.5" font-family="Helvetica,sans-Serif" font-size="10.00">KindInfos::removeDetachedOne</text>
</a>
</g>
</g>
<!-- Node1&#45;&gt;Node37 -->
<g id="edge39_Node000001_Node000037" class="edge">
<title>Node1&#45;&gt;Node37</title>
<g id="a_edge39_Node000001_Node000037"><a xlink:title=" ">
<path fill="none" stroke="#63b8ff" d="M730.95,-550.71C721.2,-477.98 683.94,-226.9 628,-172.5 623.04,-167.68 617.31,-163.76 611.14,-160.59"/>
<polygon fill="#63b8ff" stroke="#63b8ff" points="727.5,-551.33 732.28,-560.79 734.44,-550.42 727.5,-551.33"/>
</a>
</g>
</g>
<!-- Node38 -->
<g id="Node000038" class="node">
<title>Node38</title>
<g id="a_Node000038"><a xlink:href="../../d8/d0f/classArcane_1_1mesh_1_1ItemFamily.html#ad1d82fc488db0da8c3002a76c8eb5ad2" target="_top" xlink:title="Supprime des entités et met a jour les connectivites.">
<polygon fill="white" stroke="#666666" points="620,-115.5 430,-115.5 430,-85.5 620,-85.5 620,-115.5"/>
<text text-anchor="start" x="438" y="-103.5" font-family="Helvetica,sans-Serif" font-size="10.00">Arcane::mesh::ItemFamily</text>
<text text-anchor="middle" x="525" y="-92.5" font-family="Helvetica,sans-Serif" font-size="10.00">::removeNeedRemoveMarkedItems</text>
</a>
</g>
</g>
<!-- Node1&#45;&gt;Node38 -->
<g id="edge40_Node000001_Node000038" class="edge">
<title>Node1&#45;&gt;Node38</title>
<g id="a_edge40_Node000001_Node000038"><a xlink:title=" ">
<path fill="none" stroke="#63b8ff" d="M731.52,-550.4C723.39,-471.79 689.98,-186.41 628,-124.5 624.65,-121.16 620.93,-118.25 616.95,-115.71"/>
<polygon fill="#63b8ff" stroke="#63b8ff" points="728.09,-551.22 732.58,-560.82 735.05,-550.51 728.09,-551.22"/>
</a>
</g>
</g>
<!-- Node39 -->
<g id="Node000039" class="node">
<title>Node39</title>
<g id="a_Node000039"><a xlink:href="../../d6/da2/classArcane_1_1mesh_1_1DynamicMeshKindInfos.html#a3fd5aac92afec47e1c424e15e4f3c8d4" target="_top" xlink:title="Supprime l&#39;entité item.">
<polygon fill="white" stroke="#666666" points="604.5,-67.5 445.5,-67.5 445.5,-37.5 604.5,-37.5 604.5,-67.5"/>
<text text-anchor="start" x="453.5" y="-55.5" font-family="Helvetica,sans-Serif" font-size="10.00">Arcane::mesh::DynamicMesh</text>
<text text-anchor="middle" x="525" y="-44.5" font-family="Helvetica,sans-Serif" font-size="10.00">KindInfos::removeOne</text>
</a>
</g>
</g>
<!-- Node1&#45;&gt;Node39 -->
<g id="edge41_Node000001_Node000039" class="edge">
<title>Node1&#45;&gt;Node39</title>
<g id="a_edge41_Node000001_Node000039"><a xlink:title=" ">
<path fill="none" stroke="#63b8ff" d="M732.02,-550.42C725.45,-466.63 696.13,-146.06 628,-76.5 621.44,-69.81 613.4,-64.84 604.73,-61.16"/>
<polygon fill="#63b8ff" stroke="#63b8ff" points="728.55,-550.91 732.8,-560.62 735.53,-550.38 728.55,-550.91"/>
</a>
</g>
</g>
<!-- Node40 -->
<g id="Node000040" class="node">
<title>Node40</title>
<g id="a_Node000040"><a xlink:href="../../d9/db2/classArcane_1_1Cell.html#a85c94823506c15a84ce31006a7b57659" target="_top" xlink:title=" ">
<polygon fill="white" stroke="#666666" points="602,-19 448,-19 448,0 602,0 602,-19"/>
<text text-anchor="middle" x="525" y="-7" font-family="Helvetica,sans-Serif" font-size="10.00">Arcane::Cell::whichChildAmI</text>
</a>
</g>
</g>
<!-- Node1&#45;&gt;Node40 -->
<g id="edge42_Node000001_Node000040" class="edge">
<title>Node1&#45;&gt;Node40</title>
<g id="a_edge42_Node000001_Node000040"><a xlink:title=" ">
<path fill="none" stroke="#63b8ff" d="M732.54,-550.69C727.82,-462.2 704.21,-104.09 628,-28.5 620.77,-21.33 611.77,-16.4 602.12,-13.07"/>
<polygon fill="#63b8ff" stroke="#63b8ff" points="729.05,-551.12 733.06,-560.93 736.04,-550.76 729.05,-551.12"/>
</a>
</g>
</g>
<!-- Node3 -->
<g id="Node000003" class="node">
<title>Node3</title>
<g id="a_Node000003"><a xlink:href="../../db/dfc/classArcane_1_1mesh_1_1DoFFamily.html#a434d0ac46a2c9c540e0f78be0a1ebe97" target="_top" xlink:title="En entree les uids des dofs et on recupere leurs lids.">
<polygon fill="white" stroke="#666666" points="370,-1233.5 229,-1233.5 229,-1203.5 370,-1203.5 370,-1233.5"/>
<text text-anchor="start" x="237" y="-1221.5" font-family="Helvetica,sans-Serif" font-size="10.00">Arcane::mesh::DoFFamily</text>
<text text-anchor="middle" x="299.5" y="-1210.5" font-family="Helvetica,sans-Serif" font-size="10.00">::addDoFs</text>
</a>
</g>
</g>
<!-- Node2&#45;&gt;Node3 -->
<g id="edge2_Node000002_Node000003" class="edge">
<title>Node2&#45;&gt;Node3</title>
<g id="a_edge2_Node000002_Node000003"><a xlink:title=" ">
<path fill="none" stroke="#63b8ff" d="M444,-1203.09C419.86,-1205.68 393.56,-1208.51 370.15,-1211.02"/>
<polygon fill="#63b8ff" stroke="#63b8ff" points="444.63,-1206.54 454.2,-1202 443.89,-1199.58 444.63,-1206.54"/>
</a>
</g>
</g>
<!-- Node5 -->
<g id="Node000005" class="node">
<title>Node5</title>
<g id="a_Node000005"><a xlink:href="../../d6/da2/classArcane_1_1mesh_1_1DynamicMeshKindInfos.html#a94165d2d31cf3e5d15e0952781d61b27" target="_top" xlink:title="Ajoute une entité de numéro unique unique_id.">
<polygon fill="white" stroke="#666666" points="379,-1185.5 220,-1185.5 220,-1155.5 379,-1155.5 379,-1185.5"/>
<text text-anchor="start" x="228" y="-1173.5" font-family="Helvetica,sans-Serif" font-size="10.00">Arcane::mesh::DynamicMesh</text>
<text text-anchor="middle" x="299.5" y="-1162.5" font-family="Helvetica,sans-Serif" font-size="10.00">KindInfos::allocOne</text>
</a>
</g>
</g>
<!-- Node4&#45;&gt;Node5 -->
<g id="edge4_Node000004_Node000005" class="edge">
<title>Node4&#45;&gt;Node5</title>
<g id="a_edge4_Node000004_Node000005"><a xlink:title=" ">
<path fill="none" stroke="#63b8ff" d="M444.07,-1139.67C419.98,-1144.84 393.74,-1150.48 370.35,-1155.5"/>
<polygon fill="#63b8ff" stroke="#63b8ff" points="444.85,-1143.08 453.9,-1137.56 443.38,-1136.23 444.85,-1143.08"/>
</a>
</g>
</g>
<!-- Node6 -->
<g id="Node000006" class="node">
<title>Node6</title>
<g id="a_Node000006"><a xlink:href="../../d6/da2/classArcane_1_1mesh_1_1DynamicMeshKindInfos.html#a4587c4a2ab2c8bc50af69b4fb0f5a47e" target="_top" xlink:title="Ajoute une entité de numéro unique unique_id.">
<polygon fill="white" stroke="#666666" points="379,-1137.5 220,-1137.5 220,-1107.5 379,-1107.5 379,-1137.5"/>
<text text-anchor="start" x="228" y="-1125.5" font-family="Helvetica,sans-Serif" font-size="10.00">Arcane::mesh::DynamicMesh</text>
<text text-anchor="middle" x="299.5" y="-1114.5" font-family="Helvetica,sans-Serif" font-size="10.00">KindInfos::allocOne</text>
</a>
</g>
</g>
<!-- Node4&#45;&gt;Node6 -->
<g id="edge5_Node000004_Node000006" class="edge">
<title>Node4&#45;&gt;Node6</title>
<g id="a_edge5_Node000004_Node000006"><a xlink:title=" ">
<path fill="none" stroke="#63b8ff" d="M435.07,-1122.5C416.65,-1122.5 397.37,-1122.5 379.34,-1122.5"/>
<polygon fill="#63b8ff" stroke="#63b8ff" points="435.2,-1126 445.2,-1122.5 435.2,-1119 435.2,-1126"/>
</a>
</g>
</g>
<!-- Node7 -->
<g id="Node000007" class="node">
<title>Node7</title>
<g id="a_Node000007"><a xlink:href="../../d6/da2/classArcane_1_1mesh_1_1DynamicMeshKindInfos.html#a6753fafb593e2f719d347ba49ff885bf" target="_top" xlink:title="Recherche l&#39;entité de numéro unique unique_id et la créé si elle n&#39;existe pas.">
<polygon fill="white" stroke="#666666" points="379,-1089.5 220,-1089.5 220,-1059.5 379,-1059.5 379,-1089.5"/>
<text text-anchor="start" x="228" y="-1077.5" font-family="Helvetica,sans-Serif" font-size="10.00">Arcane::mesh::DynamicMesh</text>
<text text-anchor="middle" x="299.5" y="-1066.5" font-family="Helvetica,sans-Serif" font-size="10.00">KindInfos::findOrAllocOne</text>
</a>
</g>
</g>
<!-- Node4&#45;&gt;Node7 -->
<g id="edge6_Node000004_Node000007" class="edge">
<title>Node4&#45;&gt;Node7</title>
<g id="a_edge6_Node000004_Node000007"><a xlink:title=" ">
<path fill="none" stroke="#63b8ff" d="M444.07,-1105.33C419.98,-1100.16 393.74,-1094.52 370.35,-1089.5"/>
<polygon fill="#63b8ff" stroke="#63b8ff" points="443.38,-1108.77 453.9,-1107.44 444.85,-1101.92 443.38,-1108.77"/>
</a>
</g>
</g>
<!-- Node10 -->
<g id="Node000010" class="node">
<title>Node10</title>
<g id="a_Node000010"><a xlink:href="../../dc/d2d/classArcane_1_1mesh_1_1MeshRefinement.html#ae34593805186006d77df2ac90997be5d" target="_top" xlink:title=" ">
<polygon fill="white" stroke="#666666" points="385.5,-1041.5 213.5,-1041.5 213.5,-1011.5 385.5,-1011.5 385.5,-1041.5"/>
<text text-anchor="start" x="221.5" y="-1029.5" font-family="Helvetica,sans-Serif" font-size="10.00">Arcane::mesh::MeshRefinement</text>
<text text-anchor="middle" x="299.5" y="-1018.5" font-family="Helvetica,sans-Serif" font-size="10.00">::coarsenItems</text>
</a>
</g>
</g>
<!-- Node9&#45;&gt;Node10 -->
<g id="edge9_Node000009_Node000010" class="edge">
<title>Node9&#45;&gt;Node10</title>
<g id="a_edge9_Node000009_Node000010"><a xlink:title=" ">
<path fill="none" stroke="#63b8ff" d="M428.58,-1012.75C414.36,-1014.27 399.77,-1015.84 385.77,-1017.34"/>
<polygon fill="#63b8ff" stroke="#63b8ff" points="429.3,-1016.19 438.87,-1011.64 428.55,-1009.23 429.3,-1016.19"/>
</a>
</g>
</g>
<!-- Node11 -->
<g id="Node000011" class="node">
<title>Node11</title>
<g id="a_Node000011"><a xlink:href="../../dc/d2d/classArcane_1_1mesh_1_1MeshRefinement.html#a61127955b9db295cb59a82007768fd1a" target="_top" xlink:title=" ">
<polygon fill="white" stroke="#666666" points="385.5,-993.5 213.5,-993.5 213.5,-963.5 385.5,-963.5 385.5,-993.5"/>
<text text-anchor="start" x="221.5" y="-981.5" font-family="Helvetica,sans-Serif" font-size="10.00">Arcane::mesh::MeshRefinement</text>
<text text-anchor="middle" x="299.5" y="-970.5" font-family="Helvetica,sans-Serif" font-size="10.00">::refineAndCoarsenItems</text>
</a>
</g>
</g>
<!-- Node9&#45;&gt;Node11 -->
<g id="edge10_Node000009_Node000011" class="edge">
<title>Node9&#45;&gt;Node11</title>
<g id="a_edge10_Node000009_Node000011"><a xlink:title=" ">
<path fill="none" stroke="#63b8ff" d="M428.58,-992.25C414.36,-990.73 399.77,-989.16 385.77,-987.66"/>
<polygon fill="#63b8ff" stroke="#63b8ff" points="428.55,-995.77 438.87,-993.36 429.3,-988.81 428.55,-995.77"/>
</a>
</g>
</g>
<!-- Node13 -->
<g id="Node000013" class="node">
<title>Node13</title>
<g id="a_Node000013"><a xlink:href="../../da/d57/classArcane_1_1FullItemPrinter.html#af75cf4627e562836fd55981bd649219d" target="_top" xlink:title="Ecriture sur flux de l&#39;Item courant et de ses sous&#45;items.">
<polygon fill="white" stroke="#666666" points="363.5,-945.5 235.5,-945.5 235.5,-915.5 363.5,-915.5 363.5,-945.5"/>
<text text-anchor="start" x="243.5" y="-933.5" font-family="Helvetica,sans-Serif" font-size="10.00">Arcane::FullItemPrinter</text>
<text text-anchor="middle" x="299.5" y="-922.5" font-family="Helvetica,sans-Serif" font-size="10.00">::print</text>
</a>
</g>
</g>
<!-- Node12&#45;&gt;Node13 -->
<g id="edge12_Node000012_Node000013" class="edge">
<title>Node12&#45;&gt;Node13</title>
<g id="a_edge12_Node000012_Node000013"><a xlink:title=" ">
<path fill="none" stroke="#63b8ff" d="M452.03,-914.23C423.54,-917.29 391.07,-920.77 363.52,-923.73"/>
<polygon fill="#63b8ff" stroke="#63b8ff" points="452.77,-917.67 462.34,-913.12 452.02,-910.71 452.77,-917.67"/>
</a>
</g>
</g>
<!-- Node14 -->
<g id="Node000014" class="node">
<title>Node14</title>
<g id="a_Node000014"><a xlink:href="../../d7/dcb/classArcane_1_1ItemPrinter.html#ab4742e4a3e3ff85e7bf91c061b62decb" target="_top" xlink:title="Ecriture sur flux de l&#39;Item courant.">
<polygon fill="white" stroke="#666666" points="355,-897.5 244,-897.5 244,-867.5 355,-867.5 355,-897.5"/>
<text text-anchor="start" x="252" y="-885.5" font-family="Helvetica,sans-Serif" font-size="10.00">Arcane::ItemPrinter</text>
<text text-anchor="middle" x="299.5" y="-874.5" font-family="Helvetica,sans-Serif" font-size="10.00">::print</text>
</a>
</g>
</g>
<!-- Node12&#45;&gt;Node14 -->
<g id="edge13_Node000012_Node000014" class="edge">
<title>Node12&#45;&gt;Node14</title>
<g id="a_edge13_Node000012_Node000014"><a xlink:title=" ">
<path fill="none" stroke="#63b8ff" d="M452.29,-898.8C420.78,-895.42 384.37,-891.51 355.11,-888.36"/>
<polygon fill="#63b8ff" stroke="#63b8ff" points="452.02,-902.29 462.34,-899.88 452.77,-895.33 452.02,-902.29"/>
</a>
</g>
</g>
<!-- Node15&#45;&gt;Node13 -->
<g id="edge15_Node000015_Node000013" class="edge">
<title>Node15&#45;&gt;Node13</title>
<g id="a_edge15_Node000015_Node000013"><a xlink:title=" ">
<path fill="none" stroke="#63b8ff" d="M449.86,-946.54C421.99,-943.55 390.58,-940.17 363.78,-937.3"/>
<polygon fill="#63b8ff" stroke="#63b8ff" points="449.64,-950.03 459.95,-947.62 450.38,-943.07 449.64,-950.03"/>
</a>
</g>
</g>
<!-- Node15&#45;&gt;Node14 -->
<g id="edge16_Node000015_Node000014" class="edge">
<title>Node15&#45;&gt;Node14</title>
<g id="a_edge16_Node000015_Node000014"><a xlink:title=" ">
<path fill="none" stroke="#63b8ff" d="M449.82,-940.35C440.29,-937.58 430.79,-934.32 422,-930.5 404.36,-922.84 403.47,-914.53 386,-906.5 376.33,-902.06 365.67,-898.27 355.24,-895.1"/>
<polygon fill="#63b8ff" stroke="#63b8ff" points="449.18,-943.81 459.75,-943.07 451.03,-937.06 449.18,-943.81"/>
</a>
</g>
</g>
<!-- Node22 -->
<g id="Node000022" class="node">
<title>Node22</title>
<g id="a_Node000022"><a xlink:href="../../db/dfc/classArcane_1_1mesh_1_1DoFFamily.html#a09fefec1343641fb4ec8ab06c1674531" target="_top" xlink:title="L&#39;ajout de fantomes doit etre suivi d&#39;un appel de computeSynchronizeInfos.">
<polygon fill="white" stroke="#666666" points="370,-633.5 229,-633.5 229,-603.5 370,-603.5 370,-633.5"/>
<text text-anchor="start" x="237" y="-621.5" font-family="Helvetica,sans-Serif" font-size="10.00">Arcane::mesh::DoFFamily</text>
<text text-anchor="middle" x="299.5" y="-610.5" font-family="Helvetica,sans-Serif" font-size="10.00">::addGhostDoFs</text>
</a>
</g>
</g>
<!-- Node21&#45;&gt;Node22 -->
<g id="edge23_Node000021_Node000022" class="edge">
<title>Node21&#45;&gt;Node22</title>
<g id="a_edge23_Node000021_Node000022"><a xlink:title=" ">
<path fill="none" stroke="#63b8ff" d="M444,-618.5C419.86,-618.5 393.56,-618.5 370.15,-618.5"/>
<polygon fill="#63b8ff" stroke="#63b8ff" points="444.2,-622 454.2,-618.5 444.2,-615 444.2,-622"/>
</a>
</g>
</g>
<!-- Node27 -->
<g id="Node000027" class="node">
<title>Node27</title>
<g id="a_Node000027"><a xlink:href="../../d6/da2/classArcane_1_1mesh_1_1DynamicMeshKindInfos.html#a3dc2ea0d2d3b3ef4da68c67d7ea92cf6" target="_top" xlink:title="Calcule les nouveaux id locaux des entités pour qu&#39;ils soient consécutifs.">
<polygon fill="white" stroke="#666666" points="383,-451.5 216,-451.5 216,-421.5 383,-421.5 383,-451.5"/>
<text text-anchor="start" x="224" y="-439.5" font-family="Helvetica,sans-Serif" font-size="10.00">Arcane::mesh::DynamicMesh</text>
<text text-anchor="middle" x="299.5" y="-428.5" font-family="Helvetica,sans-Serif" font-size="10.00">KindInfos::beginCompactItems</text>
</a>
</g>
</g>
<!-- Node26&#45;&gt;Node27 -->
<g id="edge28_Node000026_Node000027" class="edge">
<title>Node26&#45;&gt;Node27</title>
<g id="a_edge28_Node000026_Node000027"><a xlink:title=" ">
<path fill="none" stroke="#63b8ff" d="M435.19,-430.47C418.02,-431.24 400.09,-432.04 383.13,-432.8"/>
<polygon fill="#63b8ff" stroke="#63b8ff" points="435.37,-433.97 445.2,-430.03 435.06,-426.98 435.37,-433.97"/>
</a>
</g>
</g>
<!-- Node26&#45;&gt;Node28 -->
<g id="edge29_Node000026_Node000028" class="edge">
<title>Node26&#45;&gt;Node28</title>
<g id="a_edge29_Node000026_Node000028"><a xlink:title=" ">
<path fill="none" stroke="#63b8ff" d="M435.24,-411.41C419.08,-408.66 402.25,-405.8 386.18,-403.07"/>
<polygon fill="#63b8ff" stroke="#63b8ff" points="434.76,-414.88 445.2,-413.1 435.93,-407.98 434.76,-414.88"/>
</a>
</g>
</g>
<!-- Node30 -->
<g id="Node000030" class="node">
<title>Node30</title>
<g id="a_Node000030"><a xlink:href="../../dd/d33/classArcane_1_1VariableSynchronizer.html#a159d836d6ce47e54ec178b4c7e295799" target="_top" xlink:title="Création de la liste des éléments de synchronisation.">
<polygon fill="white" stroke="#666666" points="379,-355.5 220,-355.5 220,-325.5 379,-325.5 379,-355.5"/>
<text text-anchor="start" x="228" y="-343.5" font-family="Helvetica,sans-Serif" font-size="10.00">Arcane::VariableSynchronizer</text>
<text text-anchor="middle" x="299.5" y="-332.5" font-family="Helvetica,sans-Serif" font-size="10.00">::compute</text>
</a>
</g>
</g>
<!-- Node29&#45;&gt;Node30 -->
<g id="edge31_Node000029_Node000030" class="edge">
<title>Node29&#45;&gt;Node30</title>
<g id="a_edge31_Node000029_Node000030"><a xlink:title=" ">
<path fill="none" stroke="#63b8ff" d="M435.07,-340.5C416.65,-340.5 397.37,-340.5 379.34,-340.5"/>
<polygon fill="#63b8ff" stroke="#63b8ff" points="435.2,-344 445.2,-340.5 435.2,-337 435.2,-344"/>
</a>
</g>
</g>
<!-- Node31 -->
<g id="Node000031" class="node">
<title>Node31</title>
<g id="a_Node000031"><a xlink:href="../../d5/d21/classArcane_1_1MpiVariableSynchronizer.html#a5ca0c618c925419e51effcdc590cddfa" target="_top" xlink:title="Recalcule les infos de synchronisation.">
<polygon fill="white" stroke="#666666" points="177,-355.5 0,-355.5 0,-325.5 177,-325.5 177,-355.5"/>
<text text-anchor="start" x="8" y="-343.5" font-family="Helvetica,sans-Serif" font-size="10.00">Arcane::MpiVariableSynchronizer</text>
<text text-anchor="middle" x="88.5" y="-332.5" font-family="Helvetica,sans-Serif" font-size="10.00">::compute</text>
</a>
</g>
</g>
<!-- Node30&#45;&gt;Node31 -->
<g id="edge32_Node000030_Node000031" class="edge">
<title>Node30&#45;&gt;Node31</title>
<g id="a_edge32_Node000030_Node000031"><a xlink:title=" ">
<path fill="none" stroke="#63b8ff" d="M209.6,-340.5C198.88,-340.5 187.95,-340.5 177.25,-340.5"/>
<polygon fill="#63b8ff" stroke="#63b8ff" points="209.78,-344 219.78,-340.5 209.78,-337 209.78,-344"/>
</a>
</g>
</g>
<!-- Node33 -->
<g id="Node000033" class="node">
<title>Node33</title>
<g id="a_Node000033"><a xlink:href="../../de/dfa/classArcane_1_1mesh_1_1CellFamilySerializer.html#aa50c3ef391952581de1e784c7c5a25c4" target="_top" xlink:title="Sérialise dans buf les entités de la famille family().">
<polygon fill="white" stroke="#666666" points="369.5,-307.5 229.5,-307.5 229.5,-277.5 369.5,-277.5 369.5,-307.5"/>
<text text-anchor="start" x="237.5" y="-295.5" font-family="Helvetica,sans-Serif" font-size="10.00">Arcane::mesh::CellFamily</text>
<text text-anchor="middle" x="299.5" y="-284.5" font-family="Helvetica,sans-Serif" font-size="10.00">Serializer::serializeItems</text>
</a>
</g>
</g>
<!-- Node32&#45;&gt;Node33 -->
<g id="edge34_Node000032_Node000033" class="edge">
<title>Node32&#45;&gt;Node33</title>
<g id="a_edge34_Node000032_Node000033"><a xlink:title=" ">
<path fill="none" stroke="#63b8ff" d="M440.03,-292.5C416.83,-292.5 391.93,-292.5 369.68,-292.5"/>
<polygon fill="#63b8ff" stroke="#63b8ff" points="440.2,-296 450.2,-292.5 440.2,-289 440.2,-296"/>
</a>
</g>
</g>
<!-- Node35 -->
<g id="Node000035" class="node">
<title>Node35</title>
<g id="a_Node000035"><a xlink:href="../../d1/d3f/classArcane_1_1mesh_1_1ParticleFamily.html#a93f35ac263cfb9065f366b053bc2396c" target="_top" xlink:title="Prépare les données pour une protection.">
<polygon fill="white" stroke="#666666" points="378.5,-259.5 220.5,-259.5 220.5,-229.5 378.5,-229.5 378.5,-259.5"/>
<text text-anchor="start" x="228.5" y="-247.5" font-family="Helvetica,sans-Serif" font-size="10.00">Arcane::mesh::ParticleFamily</text>
<text text-anchor="middle" x="299.5" y="-236.5" font-family="Helvetica,sans-Serif" font-size="10.00">::prepareForDump</text>
</a>
</g>
</g>
<!-- Node34&#45;&gt;Node35 -->
<g id="edge37_Node000034_Node000035" class="edge">
<title>Node34&#45;&gt;Node35</title>
<g id="a_edge37_Node000034_Node000035"><a xlink:title=" ">
<path fill="none" stroke="#63b8ff" d="M442.85,-244.5C421.93,-244.5 399.47,-244.5 378.7,-244.5"/>
<polygon fill="#63b8ff" stroke="#63b8ff" points="442.98,-248 452.98,-244.5 442.98,-241 442.98,-248"/>
</a>
</g>
</g>
</g>
</svg>
