<?xml version="1.0" encoding="UTF-8" standalone="no"?>
<!DOCTYPE svg PUBLIC "-//W3C//DTD SVG 1.1//EN"
 "http://www.w3.org/Graphics/SVG/1.1/DTD/svg11.dtd">
<!-- Generated by graphviz version 2.43.0 (0)
 -->
<!-- Title: GenericSchemaDocument::SchemaErrorValue Pages: 1 -->
<svg width="545pt" height="108pt"
 viewBox="0.00 0.00 545.00 108.00" xmlns="http://www.w3.org/2000/svg" xmlns:xlink="http://www.w3.org/1999/xlink">
<g id="graph0" class="graph" transform="scale(1 1) rotate(0) translate(4 104)">
<title>GenericSchemaDocument::SchemaErrorValue</title>
<!-- Node1 -->
<g id="Node000001" class="node">
<title>Node1</title>
<g id="a_Node000001"><a xlink:title="Method for error with single string value insert.">
<polygon fill="#999999" stroke="#666666" points="537,-64.5 394,-64.5 394,-34.5 537,-34.5 537,-64.5"/>
<text text-anchor="start" x="402" y="-52.5" font-family="Helvetica,sans-Serif" font-size="10.00">GenericSchemaDocument</text>
<text text-anchor="middle" x="465.5" y="-41.5" font-family="Helvetica,sans-Serif" font-size="10.00">::SchemaErrorValue</text>
</a>
</g>
</g>
<!-- Node2 -->
<g id="Node000002" class="node">
<title>Node2</title>
<g id="a_Node000002"><a xlink:href="../../dc/df6/classGenericSchemaDocument.html#a00e74506bb3da4e1c82b62c955f717f6" target="_top" xlink:title=" ">
<polygon fill="white" stroke="#666666" points="358,-70 197,-70 197,-29 358,-29 358,-70"/>
<text text-anchor="start" x="205" y="-58" font-family="Helvetica,sans-Serif" font-size="10.00">GenericSchemaDocument</text>
<text text-anchor="start" x="205" y="-47" font-family="Helvetica,sans-Serif" font-size="10.00">&lt; Value, CrtAllocator</text>
<text text-anchor="middle" x="277.5" y="-36" font-family="Helvetica,sans-Serif" font-size="10.00"> &gt;::GenericSchemaDocument</text>
</a>
</g>
</g>
<!-- Node1&#45;&gt;Node2 -->
<g id="edge1_Node000001_Node000002" class="edge">
<title>Node1&#45;&gt;Node2</title>
<g id="a_edge1_Node000001_Node000002"><a xlink:title=" ">
<path fill="none" stroke="#63b8ff" d="M383.65,-49.5C375.16,-49.5 366.53,-49.5 358.06,-49.5"/>
<polygon fill="#63b8ff" stroke="#63b8ff" points="383.92,-53 393.92,-49.5 383.92,-46 383.92,-53"/>
</a>
</g>
</g>
<!-- Node3 -->
<g id="Node000003" class="node">
<title>Node3</title>
<g id="a_Node000003"><a xlink:href="../../dc/df6/classGenericSchemaDocument.html#ae5e4d5f87964ea7bfda2df824416d6da" target="_top" xlink:title=" ">
<polygon fill="white" stroke="#666666" points="161,-100 0,-100 0,-59 161,-59 161,-100"/>
<text text-anchor="start" x="8" y="-88" font-family="Helvetica,sans-Serif" font-size="10.00">GenericSchemaDocument</text>
<text text-anchor="start" x="8" y="-77" font-family="Helvetica,sans-Serif" font-size="10.00">&lt; Value, CrtAllocator</text>
<text text-anchor="middle" x="80.5" y="-66" font-family="Helvetica,sans-Serif" font-size="10.00"> &gt;::GenericSchemaDocument</text>
</a>
</g>
</g>
<!-- Node2&#45;&gt;Node3 -->
<g id="edge2_Node000002_Node000003" class="edge">
<title>Node2&#45;&gt;Node3</title>
<g id="a_edge2_Node000002_Node000003"><a xlink:title=" ">
<path fill="none" stroke="#63b8ff" d="M186.88,-63.29C178.3,-64.61 169.64,-65.94 161.16,-67.25"/>
<polygon fill="#63b8ff" stroke="#63b8ff" points="187.55,-66.73 196.9,-61.75 186.49,-59.81 187.55,-66.73"/>
</a>
</g>
</g>
<!-- Node4 -->
<g id="Node000004" class="node">
<title>Node4</title>
<g id="a_Node000004"><a xlink:href="../../dc/df6/classGenericSchemaDocument.html#a9be58d02422911b109680135ee41e6e9" target="_top" xlink:title=" ">
<polygon fill="white" stroke="#666666" points="152,-41 9,-41 9,0 152,0 152,-41"/>
<text text-anchor="start" x="17" y="-29" font-family="Helvetica,sans-Serif" font-size="10.00">GenericSchemaDocument</text>
<text text-anchor="start" x="17" y="-18" font-family="Helvetica,sans-Serif" font-size="10.00">&lt; Value, CrtAllocator</text>
<text text-anchor="middle" x="80.5" y="-7" font-family="Helvetica,sans-Serif" font-size="10.00"> &gt;::operator=</text>
</a>
</g>
</g>
<!-- Node2&#45;&gt;Node4 -->
<g id="edge3_Node000002_Node000004" class="edge">
<title>Node2&#45;&gt;Node4</title>
<g id="a_edge3_Node000002_Node000004"><a xlink:title=" ">
<path fill="none" stroke="#63b8ff" d="M186.74,-36.15C175.11,-34.42 163.34,-32.67 152.08,-31"/>
<polygon fill="#63b8ff" stroke="#63b8ff" points="186.5,-39.65 196.9,-37.66 187.53,-32.73 186.5,-39.65"/>
</a>
</g>
</g>
</g>
</svg>
