<?xml version="1.0" encoding="UTF-8" standalone="no"?>
<!DOCTYPE svg PUBLIC "-//W3C//DTD SVG 1.1//EN"
 "http://www.w3.org/Graphics/SVG/1.1/DTD/svg11.dtd">
<!-- Generated by graphviz version 2.43.0 (0)
 -->
<!-- Title: Arcane::Accelerator::HostDeviceReducer2&lt; DataType, ReduceFunctor &gt; Pages: 1 -->
<svg width="204pt" height="474pt"
 viewBox="0.00 0.00 204.00 474.00" xmlns="http://www.w3.org/2000/svg" xmlns:xlink="http://www.w3.org/1999/xlink">
<g id="graph0" class="graph" transform="scale(1 1) rotate(0) translate(4 470)">
<title>Arcane::Accelerator::HostDeviceReducer2&lt; DataType, ReduceFunctor &gt;</title>
<!-- Node1 -->
<g id="Node000001" class="node">
<title>Node1</title>
<g id="a_Node000001"><a xlink:title="Version 2 de la réduction.">
<polygon fill="#999999" stroke="transparent" points="181.5,-127 14.5,-127 14.5,0 181.5,0 181.5,-127"/>
<text text-anchor="start" x="25" y="-114.5" font-family="Helvetica,sans-Serif" font-size="10.00">Arcane::Accelerator</text>
<text text-anchor="start" x="25" y="-103.5" font-family="Helvetica,sans-Serif" font-size="10.00">::HostDeviceReducer2</text>
<text text-anchor="start" x="25" y="-92.5" font-family="Helvetica,sans-Serif" font-size="10.00">&lt; DataType, ReduceFunctor &gt;</text>
<text text-anchor="start" x="19" y="-77.5" font-family="Helvetica,sans-Serif" font-size="10.00">+</text>
<text text-anchor="start" x="32" y="-77.5" font-family="Helvetica,sans-Serif" font-size="10.00">m_grid_memory_info</text>
<text text-anchor="start" x="19" y="-62.5" font-family="Helvetica,sans-Serif" font-size="10.00">+</text>
<text text-anchor="start" x="32" y="-62.5" font-family="Helvetica,sans-Serif" font-size="10.00">m_host_memory_for_reduced</text>
<text text-anchor="start" x="32" y="-51.5" font-family="Helvetica,sans-Serif" font-size="10.00">_value</text>
<text text-anchor="start" x="19" y="-36.5" font-family="Helvetica,sans-Serif" font-size="10.00">+</text>
<text text-anchor="start" x="32" y="-36.5" font-family="Helvetica,sans-Serif" font-size="10.00">m_local_value</text>
<text text-anchor="start" x="19" y="-21.5" font-family="Helvetica,sans-Serif" font-size="10.00">+</text>
<text text-anchor="start" x="32" y="-21.5" font-family="Helvetica,sans-Serif" font-size="10.00">HostDeviceReducer2()</text>
<text text-anchor="start" x="19" y="-6.5" font-family="Helvetica,sans-Serif" font-size="10.00">+</text>
<text text-anchor="start" x="32" y="-6.5" font-family="Helvetica,sans-Serif" font-size="10.00">reducedValue()</text>
<polygon fill="#666666" stroke="#666666" points="15,-87.5 15,-87.5 182,-87.5 182,-87.5 15,-87.5"/>
<polygon fill="#666666" stroke="#666666" points="15,-31.5 15,-31.5 30,-31.5 30,-31.5 15,-31.5"/>
<polygon fill="#666666" stroke="#666666" points="30,-31.5 30,-31.5 182,-31.5 182,-31.5 30,-31.5"/>
<polygon fill="none" stroke="#666666" points="14.5,0 14.5,-127 181.5,-127 181.5,0 14.5,0"/>
</a>
</g>
</g>
<!-- Node2 -->
<g id="Node000002" class="node">
<title>Node2</title>
<g id="a_Node000002"><a xlink:href="../../d6/dac/classArcane_1_1Accelerator_1_1HostDeviceReducerBase.html" target="_top" xlink:title="Opérateur de réduction.">
<polygon fill="white" stroke="transparent" points="196,-466 0,-466 0,-163 196,-163 196,-466"/>
<text text-anchor="start" x="24.5" y="-453.5" font-family="Helvetica,sans-Serif" font-size="10.00">Arcane::Accelerator</text>
<text text-anchor="start" x="24.5" y="-442.5" font-family="Helvetica,sans-Serif" font-size="10.00">::HostDeviceReducerBase</text>
<text text-anchor="start" x="24.5" y="-431.5" font-family="Helvetica,sans-Serif" font-size="10.00">&lt; DataType, ReduceFunctor &gt;</text>
<text text-anchor="start" x="4" y="-416.5" font-family="Helvetica,sans-Serif" font-size="10.00">#</text>
<text text-anchor="start" x="17" y="-416.5" font-family="Helvetica,sans-Serif" font-size="10.00">m_memory_impl</text>
<text text-anchor="start" x="4" y="-401.5" font-family="Helvetica,sans-Serif" font-size="10.00">#</text>
<text text-anchor="start" x="17" y="-401.5" font-family="Helvetica,sans-Serif" font-size="10.00">m_host_memory_for_reduced</text>
<text text-anchor="start" x="17" y="-390.5" font-family="Helvetica,sans-Serif" font-size="10.00">_value</text>
<text text-anchor="start" x="4" y="-375.5" font-family="Helvetica,sans-Serif" font-size="10.00">#</text>
<text text-anchor="start" x="17" y="-375.5" font-family="Helvetica,sans-Serif" font-size="10.00">m_grid_memory_info</text>
<text text-anchor="start" x="4" y="-360.5" font-family="Helvetica,sans-Serif" font-size="10.00">#</text>
<text text-anchor="start" x="17" y="-360.5" font-family="Helvetica,sans-Serif" font-size="10.00">m_local_value</text>
<text text-anchor="start" x="4" y="-345.5" font-family="Helvetica,sans-Serif" font-size="10.00">#</text>
<text text-anchor="start" x="17" y="-345.5" font-family="Helvetica,sans-Serif" font-size="10.00">m_atomic_parent_value</text>
<text text-anchor="start" x="4" y="-330.5" font-family="Helvetica,sans-Serif" font-size="10.00">#</text>
<text text-anchor="start" x="17" y="-330.5" font-family="Helvetica,sans-Serif" font-size="10.00">m_atomic_value</text>
<text text-anchor="start" x="6.5" y="-315.5" font-family="Helvetica,sans-Serif" font-size="10.00">&#45;</text>
<text text-anchor="start" x="17" y="-315.5" font-family="Helvetica,sans-Serif" font-size="10.00">m_is_master_instance</text>
<text text-anchor="start" x="4" y="-300.5" font-family="Helvetica,sans-Serif" font-size="10.00">+</text>
<text text-anchor="start" x="17" y="-300.5" font-family="Helvetica,sans-Serif" font-size="10.00">HostDeviceReducerBase()</text>
<text text-anchor="start" x="4" y="-285.5" font-family="Helvetica,sans-Serif" font-size="10.00">+</text>
<text text-anchor="start" x="17" y="-285.5" font-family="Helvetica,sans-Serif" font-size="10.00">HostDeviceReducerBase()</text>
<text text-anchor="start" x="4" y="-270.5" font-family="Helvetica,sans-Serif" font-size="10.00">+</text>
<text text-anchor="start" x="17" y="-270.5" font-family="Helvetica,sans-Serif" font-size="10.00">HostDeviceReducerBase()</text>
<text text-anchor="start" x="4" y="-255.5" font-family="Helvetica,sans-Serif" font-size="10.00">+</text>
<text text-anchor="start" x="17" y="-255.5" font-family="Helvetica,sans-Serif" font-size="10.00">operator=()</text>
<text text-anchor="start" x="4" y="-240.5" font-family="Helvetica,sans-Serif" font-size="10.00">+</text>
<text text-anchor="start" x="17" y="-240.5" font-family="Helvetica,sans-Serif" font-size="10.00">setValue()</text>
<text text-anchor="start" x="4" y="-225.5" font-family="Helvetica,sans-Serif" font-size="10.00">+</text>
<text text-anchor="start" x="17" y="-225.5" font-family="Helvetica,sans-Serif" font-size="10.00">localValue()</text>
<text text-anchor="start" x="4" y="-210.5" font-family="Helvetica,sans-Serif" font-size="10.00">#</text>
<text text-anchor="start" x="17" y="-210.5" font-family="Helvetica,sans-Serif" font-size="10.00">_reduce()</text>
<text text-anchor="start" x="4" y="-195.5" font-family="Helvetica,sans-Serif" font-size="10.00">#</text>
<text text-anchor="start" x="17" y="-195.5" font-family="Helvetica,sans-Serif" font-size="10.00">_finalize()</text>
<text text-anchor="start" x="6.5" y="-180.5" font-family="Helvetica,sans-Serif" font-size="10.00">&#45;</text>
<text text-anchor="start" x="17" y="-180.5" font-family="Helvetica,sans-Serif" font-size="10.00">_getHostPinnedMemoryForReduced</text>
<text text-anchor="start" x="17" y="-169.5" font-family="Helvetica,sans-Serif" font-size="10.00">Value()</text>
<polygon fill="#666666" stroke="#666666" points="0,-426.5 0,-426.5 196,-426.5 196,-426.5 0,-426.5"/>
<polygon fill="#666666" stroke="#666666" points="0,-310.5 0,-310.5 15,-310.5 15,-310.5 0,-310.5"/>
<polygon fill="#666666" stroke="#666666" points="15,-310.5 15,-310.5 196,-310.5 196,-310.5 15,-310.5"/>
<polygon fill="none" stroke="#666666" points="0,-163 0,-466 196,-466 196,-163 0,-163"/>
</a>
</g>
</g>
<!-- Node2&#45;&gt;Node1 -->
<g id="edge1_Node000001_Node000002" class="edge">
<title>Node2&#45;&gt;Node1</title>
<g id="a_edge1_Node000001_Node000002"><a xlink:title=" ">
<path fill="none" stroke="#63b8ff" d="M98,-152.75C98,-143.85 98,-135.22 98,-127.06"/>
<polygon fill="none" stroke="#63b8ff" points="94.5,-152.91 98,-162.91 101.5,-152.91 94.5,-152.91"/>
</a>
</g>
</g>
</g>
</svg>
