<?xml version="1.0" encoding="UTF-8" standalone="no"?>
<!DOCTYPE svg PUBLIC "-//W3C//DTD SVG 1.1//EN"
 "http://www.w3.org/Graphics/SVG/1.1/DTD/svg11.dtd">
<!-- Generated by graphviz version 2.43.0 (0)
 -->
<!-- Title: Arcane::VariableRefArray2T::internalContainer Pages: 1 -->
<svg width="483pt" height="86pt"
 viewBox="0.00 0.00 483.00 86.00" xmlns="http://www.w3.org/2000/svg" xmlns:xlink="http://www.w3.org/1999/xlink">
<g id="graph0" class="graph" transform="scale(1 1) rotate(0) translate(4 82)">
<title>Arcane::VariableRefArray2T::internalContainer</title>
<!-- Node1 -->
<g id="Node000001" class="node">
<title>Node1</title>
<g id="a_Node000001"><a xlink:title="Retourne le conteneur des valeurs de cette variable.">
<polygon fill="#999999" stroke="#666666" points="145,-54 0,-54 0,-24 145,-24 145,-54"/>
<text text-anchor="start" x="8" y="-42" font-family="Helvetica,sans-Serif" font-size="10.00">Arcane::VariableRefArray2</text>
<text text-anchor="middle" x="72.5" y="-31" font-family="Helvetica,sans-Serif" font-size="10.00">T::internalContainer</text>
</a>
</g>
</g>
<!-- Node2 -->
<g id="Node000002" class="node">
<title>Node2</title>
<g id="a_Node000002"><a xlink:href="../../df/da3/classArcane_1_1VariableRefArray2T.html#a24110f5bf949943e047148e603704709" target="_top" xlink:title=" ">
<polygon fill="white" stroke="#666666" points="326,-54 181,-54 181,-24 326,-24 326,-54"/>
<text text-anchor="start" x="189" y="-42" font-family="Helvetica,sans-Serif" font-size="10.00">Arcane::VariableRefArray2</text>
<text text-anchor="middle" x="253.5" y="-31" font-family="Helvetica,sans-Serif" font-size="10.00">T::_internalTrueData</text>
</a>
</g>
</g>
<!-- Node1&#45;&gt;Node2 -->
<g id="edge1_Node000001_Node000002" class="edge">
<title>Node1&#45;&gt;Node2</title>
<g id="a_edge1_Node000001_Node000002"><a xlink:title=" ">
<path fill="none" stroke="#63b8ff" d="M145.02,-39C153.49,-39 162.18,-39 170.78,-39"/>
<polygon fill="#63b8ff" stroke="#63b8ff" points="170.8,-42.5 180.8,-39 170.8,-35.5 170.8,-42.5"/>
</a>
</g>
</g>
<!-- Node3 -->
<g id="Node000003" class="node">
<title>Node3</title>
<g id="a_Node000003"><a xlink:href="../../d6/d00/classArcane_1_1VariableRef.html#ab369fbf03215d719ec8d6e2585026837" target="_top" xlink:title="Nom de la variable.">
<polygon fill="white" stroke="#666666" points="475,-78 362,-78 362,-48 475,-48 475,-78"/>
<text text-anchor="start" x="370" y="-66" font-family="Helvetica,sans-Serif" font-size="10.00">Arcane::VariableRef</text>
<text text-anchor="middle" x="418.5" y="-55" font-family="Helvetica,sans-Serif" font-size="10.00">::name</text>
</a>
</g>
</g>
<!-- Node2&#45;&gt;Node3 -->
<g id="edge2_Node000002_Node000003" class="edge">
<title>Node2&#45;&gt;Node3</title>
<g id="a_edge2_Node000002_Node000003"><a xlink:title=" ">
<path fill="none" stroke="#63b8ff" d="M326.47,-49.6C334.84,-50.83 343.34,-52.08 351.62,-53.3"/>
<polygon fill="#63b8ff" stroke="#63b8ff" points="351.18,-56.77 361.58,-54.77 352.2,-49.85 351.18,-56.77"/>
</a>
</g>
</g>
<!-- Node4 -->
<g id="Node000004" class="node">
<title>Node4</title>
<g id="a_Node000004"><a xlink:href="../../d6/d00/classArcane_1_1VariableRef.html#a3f47755100683194ef1a04ba56752693" target="_top" xlink:title="Propriétés de la variable.">
<polygon fill="white" stroke="#666666" points="475,-30 362,-30 362,0 475,0 475,-30"/>
<text text-anchor="start" x="370" y="-18" font-family="Helvetica,sans-Serif" font-size="10.00">Arcane::VariableRef</text>
<text text-anchor="middle" x="418.5" y="-7" font-family="Helvetica,sans-Serif" font-size="10.00">::property</text>
</a>
</g>
</g>
<!-- Node2&#45;&gt;Node4 -->
<g id="edge3_Node000002_Node000004" class="edge">
<title>Node2&#45;&gt;Node4</title>
<g id="a_edge3_Node000002_Node000004"><a xlink:title=" ">
<path fill="none" stroke="#63b8ff" d="M326.47,-28.4C334.84,-27.17 343.34,-25.92 351.62,-24.7"/>
<polygon fill="#63b8ff" stroke="#63b8ff" points="352.2,-28.15 361.58,-23.23 351.18,-21.23 352.2,-28.15"/>
</a>
</g>
</g>
</g>
</svg>
