<?xml version="1.0" encoding="UTF-8" standalone="no"?>
<!DOCTYPE svg PUBLIC "-//W3C//DTD SVG 1.1//EN"
 "http://www.w3.org/Graphics/SVG/1.1/DTD/svg11.dtd">
<!-- Generated by graphviz version 2.43.0 (0)
 -->
<!-- Title: Arcane::Parallel::Stat::printCollective Pages: 1 -->
<svg width="466pt" height="124pt"
 viewBox="0.00 0.00 466.00 124.00" xmlns="http://www.w3.org/2000/svg" xmlns:xlink="http://www.w3.org/1999/xlink">
<g id="graph0" class="graph" transform="scale(1 1) rotate(0) translate(4 120)">
<title>Arcane::Parallel::Stat::printCollective</title>
<!-- Node1 -->
<g id="Node000001" class="node">
<title>Node1</title>
<g id="a_Node000001"><a xlink:title="Affiche les statistiques de manière collective.">
<polygon fill="#999999" stroke="#666666" points="118,-73 0,-73 0,-43 118,-43 118,-73"/>
<text text-anchor="start" x="8" y="-61" font-family="Helvetica,sans-Serif" font-size="10.00">Arcane::Parallel::Stat</text>
<text text-anchor="middle" x="59" y="-50" font-family="Helvetica,sans-Serif" font-size="10.00">::printCollective</text>
</a>
</g>
</g>
<!-- Node2 -->
<g id="Node000002" class="node">
<title>Node2</title>
<g id="a_Node000002"><a xlink:href="../../d1/d57/classArcane_1_1Parallel_1_1Stat.html#a4b520502871db0c83b4a622d436dff35" target="_top" xlink:title="Fusionne les valeurs de l&#39;instance avec celles contenues dans l&#39;instance.">
<polygon fill="white" stroke="#666666" points="278.5,-116 160.5,-116 160.5,-86 278.5,-86 278.5,-116"/>
<text text-anchor="start" x="168.5" y="-104" font-family="Helvetica,sans-Serif" font-size="10.00">Arcane::Parallel::Stat</text>
<text text-anchor="middle" x="219.5" y="-93" font-family="Helvetica,sans-Serif" font-size="10.00">::_mergeStats</text>
</a>
</g>
</g>
<!-- Node1&#45;&gt;Node2 -->
<g id="edge1_Node000001_Node000002" class="edge">
<title>Node1&#45;&gt;Node2</title>
<g id="a_edge1_Node000001_Node000002"><a xlink:title=" ">
<path fill="none" stroke="#63b8ff" d="M115.44,-73.04C127.62,-76.35 140.64,-79.88 153.17,-83.28"/>
<polygon fill="#63b8ff" stroke="#63b8ff" points="152.53,-86.73 163.1,-85.97 154.36,-79.97 152.53,-86.73"/>
</a>
</g>
</g>
<!-- Node4 -->
<g id="Node000004" class="node">
<title>Node4</title>
<g id="a_Node000004"><a xlink:href="../../d3/d00/classArcane_1_1ITraceMng.html#ae543f61206161e5cdb3a81c9f6ebaa66" target="_top" xlink:title="Flot pour un message d&#39;information.">
<polygon fill="white" stroke="#666666" points="285,-67.5 154,-67.5 154,-48.5 285,-48.5 285,-67.5"/>
<text text-anchor="middle" x="219.5" y="-55.5" font-family="Helvetica,sans-Serif" font-size="10.00">Arcane::ITraceMng::info</text>
</a>
</g>
</g>
<!-- Node1&#45;&gt;Node4 -->
<g id="edge3_Node000001_Node000004" class="edge">
<title>Node1&#45;&gt;Node4</title>
<g id="a_edge3_Node000001_Node000004"><a xlink:title=" ">
<path fill="none" stroke="#63b8ff" d="M118.12,-58C126.5,-58 135.22,-58 143.87,-58"/>
<polygon fill="#63b8ff" stroke="#63b8ff" points="143.97,-61.5 153.97,-58 143.97,-54.5 143.97,-61.5"/>
</a>
</g>
</g>
<!-- Node5 -->
<g id="Node000005" class="node">
<title>Node5</title>
<g id="a_Node000005"><a xlink:href="../../dc/d5a/classArcane_1_1IParallelMng.html#a181bf8a353e3b9514c6371af98bdee6e" target="_top" xlink:title="Gestionnaire de traces.">
<polygon fill="white" stroke="#666666" points="277.5,-30 161.5,-30 161.5,0 277.5,0 277.5,-30"/>
<text text-anchor="start" x="169.5" y="-18" font-family="Helvetica,sans-Serif" font-size="10.00">Arcane::IParallelMng</text>
<text text-anchor="middle" x="219.5" y="-7" font-family="Helvetica,sans-Serif" font-size="10.00">::traceMng</text>
</a>
</g>
</g>
<!-- Node1&#45;&gt;Node5 -->
<g id="edge4_Node000001_Node000005" class="edge">
<title>Node1&#45;&gt;Node5</title>
<g id="a_edge4_Node000001_Node000005"><a xlink:title=" ">
<path fill="none" stroke="#63b8ff" d="M115.44,-42.96C127.62,-39.65 140.64,-36.12 153.17,-32.72"/>
<polygon fill="#63b8ff" stroke="#63b8ff" points="154.36,-36.03 163.1,-30.03 152.53,-29.27 154.36,-36.03"/>
</a>
</g>
</g>
<!-- Node3 -->
<g id="Node000003" class="node">
<title>Node3</title>
<g id="a_Node000003"><a xlink:href="../../de/d06/classArcane_1_1MessagePassing_1_1Stat.html#ac486387d7313bdefe6650fc58cebdf53" target="_top" xlink:title="Récuperation des statistiques.">
<polygon fill="white" stroke="#666666" points="458,-116 321,-116 321,-86 458,-86 458,-116"/>
<text text-anchor="start" x="329" y="-104" font-family="Helvetica,sans-Serif" font-size="10.00">Arcane::MessagePassing</text>
<text text-anchor="middle" x="389.5" y="-93" font-family="Helvetica,sans-Serif" font-size="10.00">::Stat::statList</text>
</a>
</g>
</g>
<!-- Node2&#45;&gt;Node3 -->
<g id="edge2_Node000002_Node000003" class="edge">
<title>Node2&#45;&gt;Node3</title>
<g id="a_edge2_Node000002_Node000003"><a xlink:title=" ">
<path fill="none" stroke="#63b8ff" d="M278.79,-101C289.06,-101 299.89,-101 310.6,-101"/>
<polygon fill="#63b8ff" stroke="#63b8ff" points="310.8,-104.5 320.8,-101 310.8,-97.5 310.8,-104.5"/>
</a>
</g>
</g>
</g>
</svg>
