<?xml version="1.0" encoding="UTF-8" standalone="no"?>
<!DOCTYPE svg PUBLIC "-//W3C//DTD SVG 1.1//EN"
 "http://www.w3.org/Graphics/SVG/1.1/DTD/svg11.dtd">
<!-- Generated by graphviz version 2.43.0 (0)
 -->
<!-- Title: Arcane::Parallel::Stat::_mergeStats Pages: 1 -->
<svg width="280pt" height="134pt"
 viewBox="0.00 0.00 280.00 134.00" xmlns="http://www.w3.org/2000/svg" xmlns:xlink="http://www.w3.org/1999/xlink">
<g id="graph0" class="graph" transform="scale(1 1) rotate(0) translate(4 130)">
<title>Arcane::Parallel::Stat::_mergeStats</title>
<!-- Node1 -->
<g id="Node000001" class="node">
<title>Node1</title>
<g id="a_Node000001"><a xlink:title="Fusionne les valeurs de l&#39;instance avec celles contenues dans l&#39;instance.">
<polygon fill="#999999" stroke="#666666" points="272,-78 154,-78 154,-48 272,-48 272,-78"/>
<text text-anchor="start" x="162" y="-66" font-family="Helvetica,sans-Serif" font-size="10.00">Arcane::Parallel::Stat</text>
<text text-anchor="middle" x="213" y="-55" font-family="Helvetica,sans-Serif" font-size="10.00">::_mergeStats</text>
</a>
</g>
</g>
<!-- Node2 -->
<g id="Node000002" class="node">
<title>Node2</title>
<g id="a_Node000002"><a xlink:href="../../d1/d57/classArcane_1_1Parallel_1_1Stat.html#a4a1f2033f988137450bf89a392bf2247" target="_top" xlink:title="Fusionne les valeurs actuelles avec celles sauvées dans p.">
<polygon fill="white" stroke="#666666" points="118,-126 0,-126 0,-96 118,-96 118,-126"/>
<text text-anchor="start" x="8" y="-114" font-family="Helvetica,sans-Serif" font-size="10.00">Arcane::Parallel::Stat</text>
<text text-anchor="middle" x="59" y="-103" font-family="Helvetica,sans-Serif" font-size="10.00">::mergeValues</text>
</a>
</g>
</g>
<!-- Node1&#45;&gt;Node2 -->
<g id="edge1_Node000001_Node000002" class="edge">
<title>Node1&#45;&gt;Node2</title>
<g id="a_edge1_Node000001_Node000002"><a xlink:title=" ">
<path fill="none" stroke="#63b8ff" d="M154.35,-81.21C138.89,-86.09 122.35,-91.31 107.51,-96"/>
<polygon fill="#63b8ff" stroke="#63b8ff" points="155.84,-84.4 164.32,-78.06 153.73,-77.73 155.84,-84.4"/>
</a>
</g>
</g>
<!-- Node3 -->
<g id="Node000003" class="node">
<title>Node3</title>
<g id="a_Node000003"><a xlink:href="../../d1/d57/classArcane_1_1Parallel_1_1Stat.html#a2fed8b9104ed395172c6574348ae851d" target="_top" xlink:title="Affiche les statistiques de manière collective.">
<polygon fill="white" stroke="#666666" points="118,-78 0,-78 0,-48 118,-48 118,-78"/>
<text text-anchor="start" x="8" y="-66" font-family="Helvetica,sans-Serif" font-size="10.00">Arcane::Parallel::Stat</text>
<text text-anchor="middle" x="59" y="-55" font-family="Helvetica,sans-Serif" font-size="10.00">::printCollective</text>
</a>
</g>
</g>
<!-- Node1&#45;&gt;Node3 -->
<g id="edge2_Node000001_Node000003" class="edge">
<title>Node1&#45;&gt;Node3</title>
<g id="a_edge2_Node000001_Node000003"><a xlink:title=" ">
<path fill="none" stroke="#63b8ff" d="M143.46,-63C135.01,-63 126.45,-63 118.18,-63"/>
<polygon fill="#63b8ff" stroke="#63b8ff" points="143.67,-66.5 153.67,-63 143.67,-59.5 143.67,-66.5"/>
</a>
</g>
</g>
<!-- Node4 -->
<g id="Node000004" class="node">
<title>Node4</title>
<g id="a_Node000004"><a xlink:href="../../d1/d57/classArcane_1_1Parallel_1_1Stat.html#a2bdc6a39f9e19f9ce681515aede2737a" target="_top" xlink:title="Sauve les valeurs actuelles dans p.">
<polygon fill="white" stroke="#666666" points="118,-30 0,-30 0,0 118,0 118,-30"/>
<text text-anchor="start" x="8" y="-18" font-family="Helvetica,sans-Serif" font-size="10.00">Arcane::Parallel::Stat</text>
<text text-anchor="middle" x="59" y="-7" font-family="Helvetica,sans-Serif" font-size="10.00">::saveValues</text>
</a>
</g>
</g>
<!-- Node1&#45;&gt;Node4 -->
<g id="edge3_Node000001_Node000004" class="edge">
<title>Node1&#45;&gt;Node4</title>
<g id="a_edge3_Node000001_Node000004"><a xlink:title=" ">
<path fill="none" stroke="#63b8ff" d="M154.35,-44.79C138.89,-39.91 122.35,-34.69 107.51,-30"/>
<polygon fill="#63b8ff" stroke="#63b8ff" points="153.73,-48.27 164.32,-47.94 155.84,-41.6 153.73,-48.27"/>
</a>
</g>
</g>
</g>
</svg>
