<?xml version="1.0" encoding="UTF-8" standalone="no"?>
<!DOCTYPE svg PUBLIC "-//W3C//DTD SVG 1.1//EN"
 "http://www.w3.org/Graphics/SVG/1.1/DTD/svg11.dtd">
<!-- Generated by graphviz version 2.43.0 (0)
 -->
<!-- Title: Arcane::ArrayExtentsWithOffset&lt; ExtentsV&lt; SizeType_, X0, X1, X2 &gt;, LayoutType &gt; Pages: 1 -->
<!--zoomable 625 -->

<svg id="main" version="1.1" xmlns="http://www.w3.org/2000/svg" xmlns:xlink="http://www.w3.org/1999/xlink" xml:space="preserve" onload="init(evt)">

<style type="text/css"><![CDATA[
.node, .edge {opacity: 0.7;}
.node.selected, .edge.selected {opacity: 1;}
.edge:hover path { stroke: red; }
.edge:hover polygon { stroke: red; fill: red; }
]]></style>

<defs>
  <circle id="rim" cx="0" cy="0" r="7"/>
  <circle id="rim2" cx="0" cy="0" r="3.5"/>
  <g id="zoomPlus">
    <use xlink:href="#rim" fill="#404040"><set attributeName="fill" to="#808080" begin="zoomplus.mouseover" end="zoomplus.mouseout"/></use>
    <path d="M-4,0h8M0,-4v8" fill="none" stroke="white" stroke-width="1.5" pointer-events="none"/>
  </g>
  <g id="zoomMin">
    <use xlink:href="#rim" fill="#404040"><set attributeName="fill" to="#808080" begin="zoomminus.mouseover" end="zoomminus.mouseout"/></use>
    <path d="M-4,0h8" fill="none" stroke="white" stroke-width="1.5" pointer-events="none"/>
  </g>
  <g id="arrowUp" transform="translate(30 24)">
    <use xlink:href="#rim"/>
    <path pointer-events="none" fill="none" stroke="white" stroke-width="1.5" d="M0,-3.0v7 M-2.5,-0.5L0,-3.0L2.5,-0.5"/>
  </g>
  <g id="arrowRight" transform="rotate(90) translate(36 -43)">
    <use xlink:href="#rim"/>
    <path pointer-events="none" fill="none" stroke="white" stroke-width="1.5" d="M0,-3.0v7 M-2.5,-0.5L0,-3.0L2.5,-0.5"/>
  </g>
  <g id="arrowDown" transform="rotate(180) translate(-30 -48)">
    <use xlink:href="#rim"/>
    <path pointer-events="none" fill="none" stroke="white" stroke-width="1.5" d="M0,-3.0v7 M-2.5,-0.5L0,-3.0L2.5,-0.5"/>
  </g>
  <g id="arrowLeft" transform="rotate(270) translate(-36 17)">
    <use xlink:href="#rim"/>
    <path pointer-events="none" fill="none" stroke="white" stroke-width="1.5" d="M0,-3.0v7 M-2.5,-0.5L0,-3.0L2.5,-0.5"/>
  </g>
  <g id="resetDef">
    <use xlink:href="#rim2" fill="#404040"><set attributeName="fill" to="#808080" begin="reset.mouseover" end="reset.mouseout"/></use>
  </g>
</defs>
<script type="application/ecmascript">
var viewWidth = 164;
var viewHeight = 625;
var sectionId = 'dynsection-0';
</script>
<script type="application/ecmascript" xlink:href="../../svg.min.js"/>
<svg id="graph" class="graph">
<g id="viewport">
<title>Arcane::ArrayExtentsWithOffset&lt; ExtentsV&lt; SizeType_, X0, X1, X2 &gt;, LayoutType &gt;</title>
<!-- Node1 -->
<g id="Node000001" class="node">
<title>Node1</title>
<g id="a_Node000001"><a xlink:title="Extent et Offset pour les tableaux à 3 dimensions.">
<polygon fill="#999999" stroke="transparent" points="156,-161 0,-161 0,0 156,0 156,-161"/>
<text text-anchor="start" x="5" y="-148.5" font-family="Helvetica,sans-Serif" font-size="10.00">Arcane::ArrayExtentsWith</text>
<text text-anchor="start" x="5" y="-137.5" font-family="Helvetica,sans-Serif" font-size="10.00">Offset&lt; ExtentsV&lt; SizeType</text>
<text text-anchor="start" x="5" y="-126.5" font-family="Helvetica,sans-Serif" font-size="10.00">_, X0, X1, X2 &gt;, LayoutType &gt;</text>
<text text-anchor="start" x="9.5" y="-111.5" font-family="Helvetica,sans-Serif" font-size="10.00">&#45;</text>
<text text-anchor="start" x="23" y="-111.5" font-family="Helvetica,sans-Serif" font-size="10.00">m_dim23_size</text>
<text text-anchor="start" x="7" y="-96.5" font-family="Helvetica,sans-Serif" font-size="10.00">+</text>
<text text-anchor="start" x="23" y="-96.5" font-family="Helvetica,sans-Serif" font-size="10.00">ArrayExtentsWithOffset()</text>
<text text-anchor="start" x="7" y="-81.5" font-family="Helvetica,sans-Serif" font-size="10.00">+</text>
<text text-anchor="start" x="23" y="-81.5" font-family="Helvetica,sans-Serif" font-size="10.00">ArrayExtentsWithOffset()</text>
<text text-anchor="start" x="7" y="-66.5" font-family="Helvetica,sans-Serif" font-size="10.00">+</text>
<text text-anchor="start" x="23" y="-66.5" font-family="Helvetica,sans-Serif" font-size="10.00">ArrayExtentsWithOffset()</text>
<text text-anchor="start" x="7" y="-51.5" font-family="Helvetica,sans-Serif" font-size="10.00">+</text>
<text text-anchor="start" x="23" y="-51.5" font-family="Helvetica,sans-Serif" font-size="10.00">offset()</text>
<text text-anchor="start" x="7" y="-36.5" font-family="Helvetica,sans-Serif" font-size="10.00">+</text>
<text text-anchor="start" x="23" y="-36.5" font-family="Helvetica,sans-Serif" font-size="10.00">offset()</text>
<text text-anchor="start" x="7" y="-21.5" font-family="Helvetica,sans-Serif" font-size="10.00">+</text>
<text text-anchor="start" x="23" y="-21.5" font-family="Helvetica,sans-Serif" font-size="10.00">extents()</text>
<text text-anchor="start" x="7" y="-6.5" font-family="Helvetica,sans-Serif" font-size="10.00">#</text>
<text text-anchor="start" x="23" y="-6.5" font-family="Helvetica,sans-Serif" font-size="10.00">_computeOffsets()</text>
<polygon fill="#666666" stroke="#666666" points="0,-121.5 0,-121.5 156,-121.5 156,-121.5 0,-121.5"/>
<polygon fill="#666666" stroke="#666666" points="0,-106.5 0,-106.5 21,-106.5 21,-106.5 0,-106.5"/>
<polygon fill="#666666" stroke="#666666" points="21,-106.5 21,-106.5 156,-106.5 156,-106.5 21,-106.5"/>
<polygon fill="none" stroke="#666666" points="0,0 0,-161 156,-161 156,0 0,0"/>
</a>
</g>
</g>
<!-- Node2 -->
<g id="Node000002" class="node">
<title>Node2</title>
<g id="a_Node000002"><a xlink:href="../../d4/de1/classArcane_1_1ArrayExtents_3_01ExtentsV_3_01SizeType___00_01X0_00_01X1_00_01X2_01_4_01_4.html" target="_top" xlink:title="Extent pour les tableaux à 3 dimensions.">
<polygon fill="white" stroke="transparent" points="137.5,-313 18.5,-313 18.5,-197 137.5,-197 137.5,-313"/>
<text text-anchor="start" x="24" y="-301" font-family="Helvetica,sans-Serif" font-size="10.00">Arcane::ArrayExtents</text>
<text text-anchor="start" x="24" y="-290" font-family="Helvetica,sans-Serif" font-size="10.00">&lt; ExtentsV&lt; SizeType</text>
<text text-anchor="start" x="36" y="-279" font-family="Helvetica,sans-Serif" font-size="10.00">_, X0, X1, X2 &gt; &gt;</text>
<text text-anchor="start" x="76.5" y="-264" font-family="Helvetica,sans-Serif" font-size="10.00"> </text>
<text text-anchor="start" x="29.5" y="-249" font-family="Helvetica,sans-Serif" font-size="10.00">+</text>
<text text-anchor="start" x="49" y="-249" font-family="Helvetica,sans-Serif" font-size="10.00">ArrayExtents()</text>
<text text-anchor="start" x="29.5" y="-234" font-family="Helvetica,sans-Serif" font-size="10.00">+</text>
<text text-anchor="start" x="49" y="-234" font-family="Helvetica,sans-Serif" font-size="10.00">ArrayExtents()</text>
<text text-anchor="start" x="29.5" y="-219" font-family="Helvetica,sans-Serif" font-size="10.00">+</text>
<text text-anchor="start" x="49" y="-219" font-family="Helvetica,sans-Serif" font-size="10.00">ArrayExtents()</text>
<text text-anchor="start" x="29.5" y="-204" font-family="Helvetica,sans-Serif" font-size="10.00">+</text>
<text text-anchor="start" x="49" y="-204" font-family="Helvetica,sans-Serif" font-size="10.00">ArrayExtents()</text>
<polygon fill="#666666" stroke="#666666" points="19,-274 19,-274 138,-274 138,-274 19,-274"/>
<polygon fill="#666666" stroke="#666666" points="19,-259 19,-259 138,-259 138,-259 19,-259"/>
<polygon fill="none" stroke="#666666" points="18.5,-197 18.5,-313 137.5,-313 137.5,-197 18.5,-197"/>
</a>
</g>
</g>
<!-- Node2&#45;&gt;Node1 -->
<g id="edge1_Node000001_Node000002" class="edge">
<title>Node2&#45;&gt;Node1</title>
<g id="a_edge1_Node000001_Node000002"><a xlink:title=" ">
<path fill="none" stroke="#8b1a1a" d="M78,-186.53C78,-178.2 78,-169.61 78,-161.11"/>
<polygon fill="none" stroke="#8b1a1a" points="74.5,-186.56 78,-196.56 81.5,-186.56 74.5,-186.56"/>
</a>
</g>
</g>
<!-- Node3 -->
<g id="Node000003" class="node">
<title>Node3</title>
<g id="a_Node000003"><a xlink:href="../../db/de6/classArcane_1_1ArrayExtentsBase.html" target="_top" xlink:title=" ">
<polygon fill="white" stroke="transparent" points="146.5,-510 9.5,-510 9.5,-349 146.5,-349 146.5,-510"/>
<text text-anchor="start" x="15" y="-497.5" font-family="Helvetica,sans-Serif" font-size="10.00">Arcane::ArrayExtentsBase</text>
<text text-anchor="start" x="15" y="-486.5" font-family="Helvetica,sans-Serif" font-size="10.00">&lt; ExtentsV&lt; SizeType_,</text>
<text text-anchor="start" x="40.5" y="-475.5" font-family="Helvetica,sans-Serif" font-size="10.00"> X0, X1, X2 &gt; &gt;</text>
<text text-anchor="start" x="76.5" y="-460.5" font-family="Helvetica,sans-Serif" font-size="10.00"> </text>
<text text-anchor="start" x="18.5" y="-445.5" font-family="Helvetica,sans-Serif" font-size="10.00">+</text>
<text text-anchor="start" x="36" y="-445.5" font-family="Helvetica,sans-Serif" font-size="10.00">ArrayExtentsBase()</text>
<text text-anchor="start" x="18.5" y="-430.5" font-family="Helvetica,sans-Serif" font-size="10.00">+</text>
<text text-anchor="start" x="36" y="-430.5" font-family="Helvetica,sans-Serif" font-size="10.00">setExtent0()</text>
<text text-anchor="start" x="18.5" y="-415.5" font-family="Helvetica,sans-Serif" font-size="10.00">+</text>
<text text-anchor="start" x="36" y="-415.5" font-family="Helvetica,sans-Serif" font-size="10.00">removeFirstExtent()</text>
<text text-anchor="start" x="18.5" y="-400.5" font-family="Helvetica,sans-Serif" font-size="10.00">+</text>
<text text-anchor="start" x="36" y="-400.5" font-family="Helvetica,sans-Serif" font-size="10.00">constLargeExtent()</text>
<text text-anchor="start" x="18.5" y="-385.5" font-family="Helvetica,sans-Serif" font-size="10.00">+</text>
<text text-anchor="start" x="36" y="-385.5" font-family="Helvetica,sans-Serif" font-size="10.00">fromSpan()</text>
<text text-anchor="start" x="18.5" y="-370.5" font-family="Helvetica,sans-Serif" font-size="10.00">#</text>
<text text-anchor="start" x="36" y="-370.5" font-family="Helvetica,sans-Serif" font-size="10.00">ArrayExtentsBase()</text>
<text text-anchor="start" x="18.5" y="-355.5" font-family="Helvetica,sans-Serif" font-size="10.00">#</text>
<text text-anchor="start" x="36" y="-355.5" font-family="Helvetica,sans-Serif" font-size="10.00">ArrayExtentsBase()</text>
<polygon fill="#666666" stroke="#666666" points="10,-470.5 10,-470.5 147,-470.5 147,-470.5 10,-470.5"/>
<polygon fill="#666666" stroke="#666666" points="10,-455.5 10,-455.5 147,-455.5 147,-455.5 10,-455.5"/>
<polygon fill="none" stroke="#666666" points="9.5,-349 9.5,-510 146.5,-510 146.5,-349 9.5,-349"/>
</a>
</g>
</g>
<!-- Node3&#45;&gt;Node2 -->
<g id="edge2_Node000002_Node000003" class="edge">
<title>Node3&#45;&gt;Node2</title>
<g id="a_edge2_Node000002_Node000003"><a xlink:title=" ">
<path fill="none" stroke="#63b8ff" d="M78,-338.66C78,-330.02 78,-321.42 78,-313.22"/>
<polygon fill="none" stroke="#63b8ff" points="74.5,-338.81 78,-348.81 81.5,-338.81 74.5,-338.81"/>
</a>
</g>
</g>
<!-- Node4 -->
<g id="Node000004" class="node">
<title>Node4</title>
<g id="a_Node000004"><a xlink:title=" ">
<polygon fill="white" stroke="transparent" points="154,-617 2,-617 2,-546 154,-546 154,-617"/>
<text text-anchor="start" x="7" y="-604.5" font-family="Helvetica,sans-Serif" font-size="10.00">ExtentsV&lt; SizeType</text>
<text text-anchor="start" x="7" y="-593.5" font-family="Helvetica,sans-Serif" font-size="10.00">_, X0, X1, X2 &gt;::ArrayExtents</text>
<text text-anchor="start" x="53" y="-582.5" font-family="Helvetica,sans-Serif" font-size="10.00">ValueType</text>
<text text-anchor="start" x="76" y="-567.5" font-family="Helvetica,sans-Serif" font-size="10.00"> </text>
<text text-anchor="start" x="76" y="-552.5" font-family="Helvetica,sans-Serif" font-size="10.00"> </text>
<polygon fill="#bfbfbf" stroke="#bfbfbf" points="2,-577.5 2,-577.5 154,-577.5 154,-577.5 2,-577.5"/>
<polygon fill="#bfbfbf" stroke="#bfbfbf" points="2,-562.5 2,-562.5 154,-562.5 154,-562.5 2,-562.5"/>
<polygon fill="none" stroke="#bfbfbf" points="2,-546 2,-617 154,-617 154,-546 2,-546"/>
</a>
</g>
</g>
<!-- Node4&#45;&gt;Node3 -->
<g id="edge3_Node000003_Node000004" class="edge">
<title>Node4&#45;&gt;Node3</title>
<g id="a_edge3_Node000003_Node000004"><a xlink:title=" ">
<path fill="none" stroke="darkgreen" d="M78,-535.51C78,-527.47 78,-518.89 78,-510.22"/>
<polygon fill="none" stroke="darkgreen" points="74.5,-535.71 78,-545.71 81.5,-535.71 74.5,-535.71"/>
</a>
</g>
</g>
</g>
</svg>

<g id="navigator" transform="translate(0 0)" fill="#404254">
  <rect fill="#f2f5e9" fill-opacity="0.5" stroke="#606060" stroke-width=".5" x="0" y="0" width="60" height="60"/>
  <use id="zoomplus" xlink:href="#zoomPlus" x="17" y="9" onmousedown="handleZoom(evt,'in')"/>
  <use id="zoomminus" xlink:href="#zoomMin" x="42" y="9" onmousedown="handleZoom(evt,'out')"/>
  <use id="reset" xlink:href="#resetDef" x="30" y="36" onmousedown="handleReset()"/>
   <use id="arrowup" xlink:href="#arrowUp" x="0" y="0" onmousedown="handlePan(0,-1)"/>
  <use id="arrowright" xlink:href="#arrowRight" x="0" y="0" onmousedown="handlePan(1,0)"/>
  <use id="arrowdown" xlink:href="#arrowDown" x="0" y="0" onmousedown="handlePan(0,1)"/>
  <use id="arrowleft" xlink:href="#arrowLeft" x="0" y="0" onmousedown="handlePan(-1,0)"/>
</g>
<svg viewBox="0 0 15 15" width="100%" height="30px" preserveAspectRatio="xMaxYMin meet">
 <g id="arrow_out" transform="scale(0.3 0.3)">
  <a xlink:href="classArcane_1_1ArrayExtentsWithOffset_3_01ExtentsV_3_01SizeType___00_01X0_00_01X1_00_01X2_01_4_041bef9dd011b4e157907e88cb219ea20_org.svg" target="_base">
   <rect id="button" ry="5" rx="5" y="6" x="6" height="38" width="38"
        fill="#f2f5e9" fill-opacity="0.5" stroke="#606060" stroke-width="1.0"/>
   <path id="arrow"
     d="M 11.500037,31.436501 C 11.940474,20.09759 22.043105,11.32322 32.158766,21.979434 L 37.068811,17.246167 C 37.068811,17.246167 37.088388,32 37.088388,32 L 22.160133,31.978069 C 22.160133,31.978069 26.997745,27.140456 26.997745,27.140456 C 18.528582,18.264221 13.291696,25.230495 11.500037,31.436501 z"
     style="fill:#404040;"/>
  </a>
 </g>
</svg>

<style type='text/css'>
<![CDATA[
[data-mouse-over-selected='false'] { opacity: 0.7; }
[data-mouse-over-selected='true']  { opacity: 1.0; }
]]>
</style>
<script type="application/ecmascript"><![CDATA[
document.addEventListener('DOMContentLoaded', (event) => {
  highlightEdges();
  highlightAdjacentNodes();
});
]]></script>
</svg>
