<?xml version="1.0" encoding="UTF-8" standalone="no"?>
<!DOCTYPE svg PUBLIC "-//W3C//DTD SVG 1.1//EN"
 "http://www.w3.org/Graphics/SVG/1.1/DTD/svg11.dtd">
<!-- Generated by graphviz version 2.43.0 (0)
 -->
<!-- Title: Arcane::ParameterOptionAddr::getIndexInAddr Pages: 1 -->
<!--zoomable 285 -->

<svg id="main" version="1.1" xmlns="http://www.w3.org/2000/svg" xmlns:xlink="http://www.w3.org/1999/xlink" xml:space="preserve" onload="init(evt)">

<style type="text/css"><![CDATA[
.node, .edge {opacity: 0.7;}
.node.selected, .edge.selected {opacity: 1;}
.edge:hover path { stroke: red; }
.edge:hover polygon { stroke: red; fill: red; }
]]></style>

<defs>
  <circle id="rim" cx="0" cy="0" r="7"/>
  <circle id="rim2" cx="0" cy="0" r="3.5"/>
  <g id="zoomPlus">
    <use xlink:href="#rim" fill="#404040"><set attributeName="fill" to="#808080" begin="zoomplus.mouseover" end="zoomplus.mouseout"/></use>
    <path d="M-4,0h8M0,-4v8" fill="none" stroke="white" stroke-width="1.5" pointer-events="none"/>
  </g>
  <g id="zoomMin">
    <use xlink:href="#rim" fill="#404040"><set attributeName="fill" to="#808080" begin="zoomminus.mouseover" end="zoomminus.mouseout"/></use>
    <path d="M-4,0h8" fill="none" stroke="white" stroke-width="1.5" pointer-events="none"/>
  </g>
  <g id="arrowUp" transform="translate(30 24)">
    <use xlink:href="#rim"/>
    <path pointer-events="none" fill="none" stroke="white" stroke-width="1.5" d="M0,-3.0v7 M-2.5,-0.5L0,-3.0L2.5,-0.5"/>
  </g>
  <g id="arrowRight" transform="rotate(90) translate(36 -43)">
    <use xlink:href="#rim"/>
    <path pointer-events="none" fill="none" stroke="white" stroke-width="1.5" d="M0,-3.0v7 M-2.5,-0.5L0,-3.0L2.5,-0.5"/>
  </g>
  <g id="arrowDown" transform="rotate(180) translate(-30 -48)">
    <use xlink:href="#rim"/>
    <path pointer-events="none" fill="none" stroke="white" stroke-width="1.5" d="M0,-3.0v7 M-2.5,-0.5L0,-3.0L2.5,-0.5"/>
  </g>
  <g id="arrowLeft" transform="rotate(270) translate(-36 17)">
    <use xlink:href="#rim"/>
    <path pointer-events="none" fill="none" stroke="white" stroke-width="1.5" d="M0,-3.0v7 M-2.5,-0.5L0,-3.0L2.5,-0.5"/>
  </g>
  <g id="resetDef">
    <use xlink:href="#rim2" fill="#404040"><set attributeName="fill" to="#808080" begin="reset.mouseover" end="reset.mouseout"/></use>
  </g>
</defs>
<script type="application/ecmascript">
var viewWidth = 675;
var viewHeight = 285;
var sectionId = 'dynsection-5';
</script>
<script type="application/ecmascript" xlink:href="../../svg.min.js"/>
<svg id="graph" class="graph">
<g id="viewport">
<title>Arcane::ParameterOptionAddr::getIndexInAddr</title>
<!-- Node1 -->
<g id="Node000001" class="node">
<title>Node1</title>
<g id="a_Node000001"><a xlink:title="Méthode permettant de récupérer un ou plusieurs indices dans l&#39;adresse.">
<polygon fill="#999999" stroke="#666666" points="161,-181 0,-181 0,-151 161,-151 161,-181"/>
<text text-anchor="start" x="8" y="-169" font-family="Helvetica,sans-Serif" font-size="10.00">Arcane::ParameterOptionAddr</text>
<text text-anchor="middle" x="80.5" y="-158" font-family="Helvetica,sans-Serif" font-size="10.00">::getIndexInAddr</text>
</a>
</g>
</g>
<!-- Node2 -->
<g id="Node000002" class="node">
<title>Node2</title>
<g id="a_Node000002"><a xlink:href="../../d3/d48/classArcane_1_1ParameterOptionAddr.html#a95306ce8e6eb2a3d434bf7faee64e4d3" target="_top" xlink:title="Méthode permettant de récupérer une partie de l&#39;adresse. Si l&#39;adresse termine par un ANY_TAG[ANY_INDE...">
<polygon fill="white" stroke="#666666" points="358,-277 197,-277 197,-247 358,-247 358,-277"/>
<text text-anchor="start" x="205" y="-265" font-family="Helvetica,sans-Serif" font-size="10.00">Arcane::ParameterOptionAddr</text>
<text text-anchor="middle" x="277.5" y="-254" font-family="Helvetica,sans-Serif" font-size="10.00">::addrPart</text>
</a>
</g>
</g>
<!-- Node1&#45;&gt;Node2 -->
<g id="edge1_Node000001_Node000002" class="edge">
<title>Node1&#45;&gt;Node2</title>
<g id="a_edge1_Node000001_Node000002"><a xlink:title=" ">
<path fill="none" stroke="#63b8ff" d="M101.85,-181.02C124.23,-196.96 161.7,-222.01 197,-238 201.29,-239.94 205.78,-241.78 210.34,-243.51"/>
<polygon fill="#63b8ff" stroke="#63b8ff" points="209.2,-246.81 219.79,-246.9 211.56,-240.23 209.2,-246.81"/>
</a>
</g>
</g>
<!-- Node3 -->
<g id="Node000003" class="node">
<title>Node3</title>
<g id="a_Node000003"><a xlink:href="../../d3/d48/classArcane_1_1ParameterOptionAddr.html#aafbdeba2feebc828520b65b256261408" target="_top" xlink:title="Méthode permettant de récupérer le nombre de partie de l&#39;adresse. Les parties égales à &quot;ANY_TAG[ANY_I...">
<polygon fill="white" stroke="#666666" points="358,-229 197,-229 197,-199 358,-199 358,-229"/>
<text text-anchor="start" x="205" y="-217" font-family="Helvetica,sans-Serif" font-size="10.00">Arcane::ParameterOptionAddr</text>
<text text-anchor="middle" x="277.5" y="-206" font-family="Helvetica,sans-Serif" font-size="10.00">::nbAddrPart</text>
</a>
</g>
</g>
<!-- Node1&#45;&gt;Node3 -->
<g id="edge2_Node000001_Node000003" class="edge">
<title>Node1&#45;&gt;Node3</title>
<g id="a_edge2_Node000001_Node000003"><a xlink:title=" ">
<path fill="none" stroke="#63b8ff" d="M142.66,-181.06C162.63,-185.97 184.97,-191.47 205.59,-196.54"/>
<polygon fill="#63b8ff" stroke="#63b8ff" points="205.01,-200.01 215.55,-199 206.68,-193.21 205.01,-200.01"/>
</a>
</g>
</g>
<!-- Node4 -->
<g id="Node000004" class="node">
<title>Node4</title>
<g id="a_Node000004"><a xlink:href="../../d3/d48/classArcane_1_1ParameterOptionAddr.html#ab84260f70650fa580ff58f86a8a67b71" target="_top" xlink:title="Méthode permettant de savoir combien il y a de &quot;GET_INDEX&quot; dans l&#39;adresse.">
<polygon fill="white" stroke="#666666" points="358,-181 197,-181 197,-151 358,-151 358,-181"/>
<text text-anchor="start" x="205" y="-169" font-family="Helvetica,sans-Serif" font-size="10.00">Arcane::ParameterOptionAddr</text>
<text text-anchor="middle" x="277.5" y="-158" font-family="Helvetica,sans-Serif" font-size="10.00">::nbIndexToGetInAddr</text>
</a>
</g>
</g>
<!-- Node1&#45;&gt;Node4 -->
<g id="edge3_Node000001_Node000004" class="edge">
<title>Node1&#45;&gt;Node4</title>
<g id="a_edge3_Node000001_Node000004"><a xlink:title=" ">
<path fill="none" stroke="#63b8ff" d="M161.1,-166C169.57,-166 178.24,-166 186.82,-166"/>
<polygon fill="#63b8ff" stroke="#63b8ff" points="186.84,-169.5 196.84,-166 186.84,-162.5 186.84,-169.5"/>
</a>
</g>
</g>
<!-- Node5 -->
<g id="Node000005" class="node">
<title>Node5</title>
<g id="a_Node000005"><a xlink:href="../../d3/d48/classArcane_1_1ParameterOptionAddr.html#aa87b362955e42079c524732661be1c99" target="_top" xlink:title="Constructeur.">
<polygon fill="white" stroke="#666666" points="358,-133 197,-133 197,-103 358,-103 358,-133"/>
<text text-anchor="start" x="205" y="-121" font-family="Helvetica,sans-Serif" font-size="10.00">Arcane::ParameterOptionAddr</text>
<text text-anchor="middle" x="277.5" y="-110" font-family="Helvetica,sans-Serif" font-size="10.00">::ParameterOptionAddr</text>
</a>
</g>
</g>
<!-- Node1&#45;&gt;Node5 -->
<g id="edge4_Node000001_Node000005" class="edge">
<title>Node1&#45;&gt;Node5</title>
<g id="a_edge4_Node000001_Node000005"><a xlink:title=" ">
<path fill="none" stroke="#63b8ff" d="M142.66,-150.94C162.63,-146.03 184.97,-140.53 205.59,-135.46"/>
<polygon fill="#63b8ff" stroke="#63b8ff" points="206.68,-138.79 215.55,-133 205.01,-131.99 206.68,-138.79"/>
</a>
</g>
</g>
<!-- Node13 -->
<g id="Node000013" class="node">
<title>Node13</title>
<g id="a_Node000013"><a xlink:href="../../d2/d30/classArcane_1_1ArrayView.html#abdc30b186a464d086d452be8eb6c6397" target="_top" xlink:title="Retourne la taille du tableau.">
<polygon fill="white" stroke="#666666" points="343,-84.5 212,-84.5 212,-65.5 343,-65.5 343,-84.5"/>
<text text-anchor="middle" x="277.5" y="-72.5" font-family="Helvetica,sans-Serif" font-size="10.00">Arcane::ArrayView::size</text>
</a>
</g>
</g>
<!-- Node1&#45;&gt;Node13 -->
<g id="edge13_Node000001_Node000013" class="edge">
<title>Node1&#45;&gt;Node13</title>
<g id="a_edge13_Node000001_Node000013"><a xlink:title=" ">
<path fill="none" stroke="#63b8ff" d="M101.27,-150.88C123.45,-134.6 161.03,-109.04 197,-94 202.93,-91.52 209.25,-89.33 215.63,-87.39"/>
<polygon fill="#63b8ff" stroke="#63b8ff" points="217,-90.64 225.67,-84.56 215.1,-83.9 217,-90.64"/>
</a>
</g>
</g>
<!-- Node6 -->
<g id="Node000006" class="node">
<title>Node6</title>
<g id="a_Node000006"><a xlink:href="../../d9/d71/classArcane_1_1StringView.html#a239c1b34e12e306fb43a0acb7bff77ab" target="_top" xlink:title="Retourne la conversion de l&#39;instance dans l&#39;encodage UTF&#45;8.">
<polygon fill="white" stroke="#666666" points="512.5,-195 403.5,-195 403.5,-165 512.5,-165 512.5,-195"/>
<text text-anchor="start" x="411.5" y="-183" font-family="Helvetica,sans-Serif" font-size="10.00">Arcane::StringView</text>
<text text-anchor="middle" x="458" y="-172" font-family="Helvetica,sans-Serif" font-size="10.00">::bytes</text>
</a>
</g>
</g>
<!-- Node5&#45;&gt;Node6 -->
<g id="edge5_Node000005_Node000006" class="edge">
<title>Node5&#45;&gt;Node6</title>
<g id="a_edge5_Node000005_Node000006"><a xlink:title=" ">
<path fill="none" stroke="#63b8ff" d="M330.43,-133.04C339.65,-135.89 349.14,-138.95 358,-142 374.23,-147.6 377.98,-149.83 394,-156 398.48,-157.72 403.13,-159.51 407.8,-161.29"/>
<polygon fill="#63b8ff" stroke="#63b8ff" points="406.74,-164.64 417.33,-164.93 409.24,-158.1 406.74,-164.64"/>
</a>
</g>
</g>
<!-- Node7 -->
<g id="Node000007" class="node">
<title>Node7</title>
<g id="a_Node000007"><a xlink:href="../../d0/d32/namespaceArcane.html#ab92dc7635f8e1ceb84728b8c45dba2b1" target="_top" xlink:title="Créé une référence sur un pointeur.">
<polygon fill="white" stroke="#666666" points="508,-146.5 408,-146.5 408,-127.5 508,-127.5 508,-146.5"/>
<text text-anchor="middle" x="458" y="-134.5" font-family="Helvetica,sans-Serif" font-size="10.00">Arcane::makeRef</text>
</a>
</g>
</g>
<!-- Node5&#45;&gt;Node7 -->
<g id="edge6_Node000005_Node000007" class="edge">
<title>Node5&#45;&gt;Node7</title>
<g id="a_edge6_Node000005_Node000007"><a xlink:title=" ">
<path fill="none" stroke="#63b8ff" d="M358.09,-126.47C371.44,-127.89 385.09,-129.35 397.81,-130.7"/>
<polygon fill="#63b8ff" stroke="#63b8ff" points="397.47,-134.18 407.79,-131.76 398.21,-127.22 397.47,-134.18"/>
</a>
</g>
</g>
<!-- Node9 -->
<g id="Node000009" class="node">
<title>Node9</title>
<g id="a_Node000009"><a xlink:href="../../df/d52/classArcane_1_1SpanImpl.html#ad324bebcf918e08f8f21d85a3e57a8e6" target="_top" xlink:title="Retourne la taille du tableau.">
<polygon fill="white" stroke="#666666" points="522,-109.5 394,-109.5 394,-90.5 522,-90.5 522,-109.5"/>
<text text-anchor="middle" x="458" y="-97.5" font-family="Helvetica,sans-Serif" font-size="10.00">Arcane::SpanImpl::size</text>
</a>
</g>
</g>
<!-- Node5&#45;&gt;Node9 -->
<g id="edge8_Node000005_Node000009" class="edge">
<title>Node5&#45;&gt;Node9</title>
<g id="a_edge8_Node000005_Node000009"><a xlink:title=" ">
<path fill="none" stroke="#63b8ff" d="M358.09,-109.97C366.62,-109.11 375.26,-108.24 383.71,-107.39"/>
<polygon fill="#63b8ff" stroke="#63b8ff" points="384.3,-110.85 393.9,-106.36 383.6,-103.88 384.3,-110.85"/>
</a>
</g>
</g>
<!-- Node10 -->
<g id="Node000010" class="node">
<title>Node10</title>
<g id="a_Node000010"><a xlink:href="../../d9/d71/classArcane_1_1StringView.html#a6b7376ae4867b0f985457cb67a72ca36" target="_top" xlink:title="Sous&#45;chaîne commençant à la position pos.">
<polygon fill="white" stroke="#666666" points="512.5,-54 403.5,-54 403.5,-24 512.5,-24 512.5,-54"/>
<text text-anchor="start" x="411.5" y="-42" font-family="Helvetica,sans-Serif" font-size="10.00">Arcane::StringView</text>
<text text-anchor="middle" x="458" y="-31" font-family="Helvetica,sans-Serif" font-size="10.00">::subView</text>
</a>
</g>
</g>
<!-- Node5&#45;&gt;Node10 -->
<g id="edge9_Node000005_Node000010" class="edge">
<title>Node5&#45;&gt;Node10</title>
<g id="a_edge9_Node000005_Node000010"><a xlink:title=" ">
<path fill="none" stroke="#63b8ff" d="M331.62,-102.88C340.54,-99.89 349.61,-96.57 358,-93 380.61,-83.39 404.83,-70.23 423.66,-59.3"/>
<polygon fill="#63b8ff" stroke="#63b8ff" points="425.59,-62.23 432.44,-54.15 422.05,-56.19 425.59,-62.23"/>
</a>
</g>
</g>
<!-- Node8 -->
<g id="Node000008" class="node">
<title>Node8</title>
<g id="a_Node000008"><a xlink:href="../../d6/da9/classArcane_1_1Ref.html#ab0cd388abdc8d216d1534c5b0ef9cf83" target="_top" xlink:title="Créé une référence à partir de l&#39;instance t.">
<polygon fill="white" stroke="#666666" points="667,-146.5 558,-146.5 558,-127.5 667,-127.5 667,-146.5"/>
<text text-anchor="middle" x="612.5" y="-134.5" font-family="Helvetica,sans-Serif" font-size="10.00">Arcane::Ref::create</text>
</a>
</g>
</g>
<!-- Node7&#45;&gt;Node8 -->
<g id="edge7_Node000007_Node000008" class="edge">
<title>Node7&#45;&gt;Node8</title>
<g id="a_edge7_Node000007_Node000008"><a xlink:title=" ">
<path fill="none" stroke="#63b8ff" d="M508.09,-137C520.72,-137 534.49,-137 547.74,-137"/>
<polygon fill="#63b8ff" stroke="#63b8ff" points="547.75,-140.5 557.75,-137 547.75,-133.5 547.75,-140.5"/>
</a>
</g>
</g>
<!-- Node10&#45;&gt;Node10 -->
<g id="edge12_Node000010_Node000010" class="edge">
<title>Node10&#45;&gt;Node10</title>
<g id="a_edge12_Node000010_Node000010"><a xlink:title=" ">
<path fill="none" stroke="#63b8ff" d="M430.93,-54.28C424.91,-63.41 433.94,-72 458,-72 472.29,-72 481.27,-68.97 484.96,-64.6"/>
<polygon fill="#63b8ff" stroke="#63b8ff" points="488.46,-64.31 485.07,-54.28 481.46,-64.24 488.46,-64.31"/>
</a>
</g>
</g>
<!-- Node11 -->
<g id="Node000011" class="node">
<title>Node11</title>
<g id="a_Node000011"><a xlink:href="../../d9/d71/classArcane_1_1StringView.html#a61f31052696e7291592e36cc72578efc" target="_top" xlink:title="Longueur en octet de la chaîne de caractères.">
<polygon fill="white" stroke="#666666" points="667,-78 558,-78 558,-48 667,-48 667,-78"/>
<text text-anchor="start" x="566" y="-66" font-family="Helvetica,sans-Serif" font-size="10.00">Arcane::StringView</text>
<text text-anchor="middle" x="612.5" y="-55" font-family="Helvetica,sans-Serif" font-size="10.00">::length</text>
</a>
</g>
</g>
<!-- Node10&#45;&gt;Node11 -->
<g id="edge10_Node000010_Node000011" class="edge">
<title>Node10&#45;&gt;Node11</title>
<g id="a_edge10_Node000010_Node000011"><a xlink:title=" ">
<path fill="none" stroke="#63b8ff" d="M512.77,-47.46C524.11,-49.25 536.18,-51.15 547.84,-52.98"/>
<polygon fill="#63b8ff" stroke="#63b8ff" points="547.54,-56.48 557.96,-54.57 548.63,-49.56 547.54,-56.48"/>
</a>
</g>
</g>
<!-- Node12 -->
<g id="Node000012" class="node">
<title>Node12</title>
<g id="a_Node000012"><a xlink:href="../../d9/d71/classArcane_1_1StringView.html#af116bd02d21224aaad8798159e62f88e" target="_top" xlink:title="Crée une vue sur une chaîne vide.">
<polygon fill="white" stroke="#666666" points="667,-30 558,-30 558,0 667,0 667,-30"/>
<text text-anchor="start" x="566" y="-18" font-family="Helvetica,sans-Serif" font-size="10.00">Arcane::StringView</text>
<text text-anchor="middle" x="612.5" y="-7" font-family="Helvetica,sans-Serif" font-size="10.00">::StringView</text>
</a>
</g>
</g>
<!-- Node10&#45;&gt;Node12 -->
<g id="edge11_Node000010_Node000012" class="edge">
<title>Node10&#45;&gt;Node12</title>
<g id="a_edge11_Node000010_Node000012"><a xlink:title=" ">
<path fill="none" stroke="#63b8ff" d="M512.77,-30.54C524.11,-28.75 536.18,-26.85 547.84,-25.02"/>
<polygon fill="#63b8ff" stroke="#63b8ff" points="548.63,-28.44 557.96,-23.43 547.54,-21.52 548.63,-28.44"/>
</a>
</g>
</g>
</g>
</svg>

<g id="navigator" transform="translate(0 0)" fill="#404254">
  <rect fill="#f2f5e9" fill-opacity="0.5" stroke="#606060" stroke-width=".5" x="0" y="0" width="60" height="60"/>
  <use id="zoomplus" xlink:href="#zoomPlus" x="17" y="9" onmousedown="handleZoom(evt,'in')"/>
  <use id="zoomminus" xlink:href="#zoomMin" x="42" y="9" onmousedown="handleZoom(evt,'out')"/>
  <use id="reset" xlink:href="#resetDef" x="30" y="36" onmousedown="handleReset()"/>
   <use id="arrowup" xlink:href="#arrowUp" x="0" y="0" onmousedown="handlePan(0,-1)"/>
  <use id="arrowright" xlink:href="#arrowRight" x="0" y="0" onmousedown="handlePan(1,0)"/>
  <use id="arrowdown" xlink:href="#arrowDown" x="0" y="0" onmousedown="handlePan(0,1)"/>
  <use id="arrowleft" xlink:href="#arrowLeft" x="0" y="0" onmousedown="handlePan(-1,0)"/>
</g>
<svg viewBox="0 0 15 15" width="100%" height="30px" preserveAspectRatio="xMaxYMin meet">
 <g id="arrow_out" transform="scale(0.3 0.3)">
  <a xlink:href="classArcane_1_1ParameterOptionAddr_ad94f6047387a5f37b6994cead6c2488f_cgraph_org.svg" target="_base">
   <rect id="button" ry="5" rx="5" y="6" x="6" height="38" width="38"
        fill="#f2f5e9" fill-opacity="0.5" stroke="#606060" stroke-width="1.0"/>
   <path id="arrow"
     d="M 11.500037,31.436501 C 11.940474,20.09759 22.043105,11.32322 32.158766,21.979434 L 37.068811,17.246167 C 37.068811,17.246167 37.088388,32 37.088388,32 L 22.160133,31.978069 C 22.160133,31.978069 26.997745,27.140456 26.997745,27.140456 C 18.528582,18.264221 13.291696,25.230495 11.500037,31.436501 z"
     style="fill:#404040;"/>
  </a>
 </g>
</svg>

<style type='text/css'>
<![CDATA[
[data-mouse-over-selected='false'] { opacity: 0.7; }
[data-mouse-over-selected='true']  { opacity: 1.0; }
]]>
</style>
<script type="application/ecmascript"><![CDATA[
document.addEventListener('DOMContentLoaded', (event) => {
  highlightEdges();
  highlightAdjacentNodes();
});
]]></script>
</svg>
