<?xml version="1.0" encoding="UTF-8" standalone="no"?>
<!DOCTYPE svg PUBLIC "-//W3C//DTD SVG 1.1//EN"
 "http://www.w3.org/Graphics/SVG/1.1/DTD/svg11.dtd">
<!-- Generated by graphviz version 14.1.2 (0)
 -->
<!-- Title: Tetraedron4ElementView Pages: 1 -->
<svg width="171pt" height="216pt"
 viewBox="0.00 0.00 171.00 216.00" xmlns="http://www.w3.org/2000/svg" xmlns:xlink="http://www.w3.org/1999/xlink">
<g id="graph0" class="graph" transform="scale(1 1) rotate(0) translate(4 211.5)">
<title>Tetraedron4ElementView</title>
<!-- Node1 -->
<g id="Node000001" class="node">
<title>Node1</title>
<g id="a_Node000001"><a xlink:title="Vue modifiable sur les éléments géométriques de type GeomType::Tetraedron4.">
<polygon fill="#999999" stroke="none" points="162.75,-117.25 0,-117.25 0,0 162.75,0 162.75,-117.25"/>
<text xml:space="preserve" text-anchor="start" x="20.25" y="-103.75" font-family="Helvetica,sans-Serif" font-size="10.00">Tetraedron4ElementView</text>
<text xml:space="preserve" text-anchor="start" x="79.88" y="-87" font-family="Helvetica,sans-Serif" font-size="10.00"> </text>
<text xml:space="preserve" text-anchor="start" x="4" y="-70.25" font-family="Helvetica,sans-Serif" font-size="10.00">+</text>
<text xml:space="preserve" text-anchor="start" x="16.25" y="-70.25" font-family="Helvetica,sans-Serif" font-size="10.00">Tetraedron4ElementView()</text>
<text xml:space="preserve" text-anchor="start" x="4" y="-53.5" font-family="Helvetica,sans-Serif" font-size="10.00">+</text>
<text xml:space="preserve" text-anchor="start" x="16.25" y="-53.5" font-family="Helvetica,sans-Serif" font-size="10.00">init()</text>
<text xml:space="preserve" text-anchor="start" x="4" y="-36.75" font-family="Helvetica,sans-Serif" font-size="10.00">+</text>
<text xml:space="preserve" text-anchor="start" x="16.25" y="-36.75" font-family="Helvetica,sans-Serif" font-size="10.00">operator Tetraedron4Element</text>
<text xml:space="preserve" text-anchor="start" x="16.25" y="-24" font-family="Helvetica,sans-Serif" font-size="10.00">ConstView()</text>
<text xml:space="preserve" text-anchor="start" x="4" y="-7.25" font-family="Helvetica,sans-Serif" font-size="10.00">+</text>
<text xml:space="preserve" text-anchor="start" x="16.25" y="-7.25" font-family="Helvetica,sans-Serif" font-size="10.00">constView()</text>
<polygon fill="#666666" stroke="#666666" points="0,-98.5 0,-98.5 162.75,-98.5 162.75,-98.5 0,-98.5"/>
<polygon fill="#666666" stroke="#666666" points="0,-81.75 0,-81.75 162.75,-81.75 162.75,-81.75 0,-81.75"/>
<polygon fill="none" stroke="#666666" points="0,0 0,-117.25 162.75,-117.25 162.75,0 0,0"/>
</a>
</g>
</g>
<!-- Node2 -->
<g id="Node000002" class="node">
<title>Node2</title>
<g id="a_Node000002"><a xlink:title=" ">
<polygon fill="white" stroke="none" points="144.25,-207.5 18.5,-207.5 18.5,-153.25 144.25,-153.25 144.25,-207.5"/>
<text xml:space="preserve" text-anchor="start" x="22.5" y="-194" font-family="Helvetica,sans-Serif" font-size="10.00">GeomElementViewBase</text>
<text xml:space="preserve" text-anchor="start" x="79.88" y="-177.25" font-family="Helvetica,sans-Serif" font-size="10.00"> </text>
<text xml:space="preserve" text-anchor="start" x="79.88" y="-160.5" font-family="Helvetica,sans-Serif" font-size="10.00"> </text>
<polygon fill="#bfbfbf" stroke="#bfbfbf" points="18.5,-188.75 18.5,-188.75 144.25,-188.75 144.25,-188.75 18.5,-188.75"/>
<polygon fill="#bfbfbf" stroke="#bfbfbf" points="18.5,-172 18.5,-172 144.25,-172 144.25,-172 18.5,-172"/>
<polygon fill="none" stroke="#bfbfbf" points="18.5,-153.25 18.5,-207.5 144.25,-207.5 144.25,-153.25 18.5,-153.25"/>
</a>
</g>
</g>
<!-- Node2&#45;&gt;Node1 -->
<g id="edge1_Node000001_Node000002" class="edge">
<title>Node2&#45;&gt;Node1</title>
<g id="a_edge1_Node000001_Node000002"><a xlink:title=" ">
<path fill="none" stroke="#63b8ff" d="M81.38,-141.93C81.38,-134.01 81.38,-125.48 81.38,-117.02"/>
<polygon fill="none" stroke="#63b8ff" points="77.88,-141.88 81.38,-151.88 84.88,-141.88 77.88,-141.88"/>
</a>
</g>
</g>
</g>
</svg>
