<?xml version="1.0" encoding="UTF-8" standalone="no"?>
<!DOCTYPE svg PUBLIC "-//W3C//DTD SVG 1.1//EN"
 "http://www.w3.org/Graphics/SVG/1.1/DTD/svg11.dtd">
<!-- Generated by graphviz version 14.1.2 (0)
 -->
<!-- Title: Arcane::TimerMng::beginTimer Pages: 1 -->
<svg width="571pt" height="80pt"
 viewBox="0.00 0.00 571.00 80.00" xmlns="http://www.w3.org/2000/svg" xmlns:xlink="http://www.w3.org/1999/xlink">
<g id="graph0" class="graph" transform="scale(1 1) rotate(0) translate(4 76.12)">
<title>Arcane::TimerMng::beginTimer</title>
<!-- Node1 -->
<g id="Node000001" class="node">
<title>Node1</title>
<g id="a_Node000001"><a xlink:title="Attache le timer timer à ce gestionnaire.">
<polygon fill="#999999" stroke="#666666" points="166.75,-42.75 0,-42.75 0,-22 166.75,-22 166.75,-42.75"/>
<text xml:space="preserve" text-anchor="middle" x="83.38" y="-29.25" font-family="Helvetica,sans-Serif" font-size="10.00">Arcane::TimerMng::beginTimer</text>
</a>
</g>
</g>
<!-- Node2 -->
<g id="Node000002" class="node">
<title>Node2</title>
<g id="a_Node000002"><a xlink:href="../../de/d00/classArcane_1_1TimerMng.html#a7f5b0bdc5aae13600d3002337bb1bc28" target="_top" xlink:title="Retourne le temps réel.">
<polygon fill="white" stroke="#666666" points="337.62,-72.12 226.38,-72.12 226.38,-38.62 337.62,-38.62 337.62,-72.12"/>
<text xml:space="preserve" text-anchor="start" x="234.38" y="-58.62" font-family="Helvetica,sans-Serif" font-size="10.00">Arcane::TimerMng::</text>
<text xml:space="preserve" text-anchor="middle" x="282" y="-45.88" font-family="Helvetica,sans-Serif" font-size="10.00">_getRealTime</text>
</a>
</g>
</g>
<!-- Node1&#45;&gt;Node2 -->
<g id="edge1_Node000001_Node000002" class="edge">
<title>Node1&#45;&gt;Node2</title>
<g id="a_edge1_Node000001_Node000002"><a xlink:title=" ">
<path fill="none" stroke="#63b8ff" d="M167.19,-42.06C183,-43.91 199.35,-45.82 214.57,-47.6"/>
<polygon fill="#63b8ff" stroke="#63b8ff" points="214.11,-51.07 224.45,-48.76 214.92,-44.12 214.11,-51.07"/>
</a>
</g>
</g>
<!-- Node4 -->
<g id="Node000004" class="node">
<title>Node4</title>
<g id="a_Node000004"><a xlink:href="../../d3/d97/classArcane_1_1Timer.html#a04582e0cef50914b638f0bfe70ef358a" target="_top" xlink:title=" ">
<polygon fill="white" stroke="#666666" points="361.25,-20.75 202.75,-20.75 202.75,0 361.25,0 361.25,-20.75"/>
<text xml:space="preserve" text-anchor="middle" x="282" y="-7.25" font-family="Helvetica,sans-Serif" font-size="10.00">Arcane::Timer::_setStartTime</text>
</a>
</g>
</g>
<!-- Node1&#45;&gt;Node4 -->
<g id="edge3_Node000001_Node000004" class="edge">
<title>Node1&#45;&gt;Node4</title>
<g id="a_edge3_Node000001_Node000004"><a xlink:title=" ">
<path fill="none" stroke="#63b8ff" d="M167.19,-23.11C175.11,-22.22 183.17,-21.32 191.15,-20.43"/>
<polygon fill="#63b8ff" stroke="#63b8ff" points="191.31,-23.93 200.85,-19.34 190.53,-16.98 191.31,-23.93"/>
</a>
</g>
</g>
<!-- Node3 -->
<g id="Node000003" class="node">
<title>Node3</title>
<g id="a_Node000003"><a xlink:href="../../dd/d27/namespaceArcane_1_1platform.html#a6d74aa9b467bb684c1a3f17b62be4cae" target="_top" xlink:title="Temps Real utilisé en secondes.">
<polygon fill="white" stroke="#666666" points="563.25,-65.75 397.25,-65.75 397.25,-45 563.25,-45 563.25,-65.75"/>
<text xml:space="preserve" text-anchor="middle" x="480.25" y="-52.25" font-family="Helvetica,sans-Serif" font-size="10.00">Arcane::platform::getRealTime</text>
</a>
</g>
</g>
<!-- Node2&#45;&gt;Node3 -->
<g id="edge2_Node000002_Node000003" class="edge">
<title>Node2&#45;&gt;Node3</title>
<g id="a_edge2_Node000002_Node000003"><a xlink:title=" ">
<path fill="none" stroke="#63b8ff" d="M337.93,-55.38C352.76,-55.38 369.24,-55.38 385.55,-55.38"/>
<polygon fill="#63b8ff" stroke="#63b8ff" points="385.29,-58.88 395.29,-55.38 385.29,-51.88 385.29,-58.88"/>
</a>
</g>
</g>
</g>
</svg>
