<?xml version="1.0" encoding="UTF-8" standalone="no"?>
<!DOCTYPE svg PUBLIC "-//W3C//DTD SVG 1.1//EN"
 "http://www.w3.org/Graphics/SVG/1.1/DTD/svg11.dtd">
<!-- Generated by graphviz version 2.43.0 (0)
 -->
<!-- Title: Arcane::Alina::PreconditionedSolver&lt; Precond, IterativeSolver &gt; Pages: 1 -->
<svg width="306pt" height="456pt"
 viewBox="0.00 0.00 305.50 456.00" xmlns="http://www.w3.org/2000/svg" xmlns:xlink="http://www.w3.org/1999/xlink">
<g id="graph0" class="graph" transform="scale(1 1) rotate(0) translate(4 452)">
<title>Arcane::Alina::PreconditionedSolver&lt; Precond, IterativeSolver &gt;</title>
<!-- Node1 -->
<g id="Node000001" class="node">
<title>Node1</title>
<g id="a_Node000001"><a xlink:title="Convenience class that bundles together a preconditioner and an iterative solver.">
<polygon fill="#999999" stroke="transparent" points="224,-285 43,-285 43,0 224,0 224,-285"/>
<text text-anchor="start" x="48.5" y="-272.5" font-family="Helvetica,sans-Serif" font-size="10.00">Arcane::Alina::Preconditioned</text>
<text text-anchor="start" x="48.5" y="-261.5" font-family="Helvetica,sans-Serif" font-size="10.00">Solver&lt; Precond, IterativeSolver &gt;</text>
<text text-anchor="start" x="62" y="-246.5" font-family="Helvetica,sans-Serif" font-size="10.00">&#45;</text>
<text text-anchor="start" x="84.5" y="-246.5" font-family="Helvetica,sans-Serif" font-size="10.00">n</text>
<text text-anchor="start" x="62" y="-231.5" font-family="Helvetica,sans-Serif" font-size="10.00">&#45;</text>
<text text-anchor="start" x="84.5" y="-231.5" font-family="Helvetica,sans-Serif" font-size="10.00">P</text>
<text text-anchor="start" x="62" y="-216.5" font-family="Helvetica,sans-Serif" font-size="10.00">&#45;</text>
<text text-anchor="start" x="84.5" y="-216.5" font-family="Helvetica,sans-Serif" font-size="10.00">S</text>
<text text-anchor="start" x="59.5" y="-201.5" font-family="Helvetica,sans-Serif" font-size="10.00">+</text>
<text text-anchor="start" x="84.5" y="-201.5" font-family="Helvetica,sans-Serif" font-size="10.00">PreconditionedSolver()</text>
<text text-anchor="start" x="59.5" y="-186.5" font-family="Helvetica,sans-Serif" font-size="10.00">+</text>
<text text-anchor="start" x="84.5" y="-186.5" font-family="Helvetica,sans-Serif" font-size="10.00">PreconditionedSolver()</text>
<text text-anchor="start" x="59.5" y="-171.5" font-family="Helvetica,sans-Serif" font-size="10.00">+</text>
<text text-anchor="start" x="84.5" y="-171.5" font-family="Helvetica,sans-Serif" font-size="10.00">operator()()</text>
<text text-anchor="start" x="59.5" y="-156.5" font-family="Helvetica,sans-Serif" font-size="10.00">+</text>
<text text-anchor="start" x="84.5" y="-156.5" font-family="Helvetica,sans-Serif" font-size="10.00">operator()()</text>
<text text-anchor="start" x="59.5" y="-141.5" font-family="Helvetica,sans-Serif" font-size="10.00">+</text>
<text text-anchor="start" x="84.5" y="-141.5" font-family="Helvetica,sans-Serif" font-size="10.00">apply()</text>
<text text-anchor="start" x="59.5" y="-126.5" font-family="Helvetica,sans-Serif" font-size="10.00">+</text>
<text text-anchor="start" x="84.5" y="-126.5" font-family="Helvetica,sans-Serif" font-size="10.00">precond()</text>
<text text-anchor="start" x="59.5" y="-111.5" font-family="Helvetica,sans-Serif" font-size="10.00">+</text>
<text text-anchor="start" x="84.5" y="-111.5" font-family="Helvetica,sans-Serif" font-size="10.00">precond()</text>
<text text-anchor="start" x="59.5" y="-96.5" font-family="Helvetica,sans-Serif" font-size="10.00">+</text>
<text text-anchor="start" x="84.5" y="-96.5" font-family="Helvetica,sans-Serif" font-size="10.00">solver()</text>
<text text-anchor="start" x="59.5" y="-81.5" font-family="Helvetica,sans-Serif" font-size="10.00">+</text>
<text text-anchor="start" x="84.5" y="-81.5" font-family="Helvetica,sans-Serif" font-size="10.00">solver()</text>
<text text-anchor="start" x="59.5" y="-66.5" font-family="Helvetica,sans-Serif" font-size="10.00">+</text>
<text text-anchor="start" x="84.5" y="-66.5" font-family="Helvetica,sans-Serif" font-size="10.00">system_matrix_ptr()</text>
<text text-anchor="start" x="59.5" y="-51.5" font-family="Helvetica,sans-Serif" font-size="10.00">+</text>
<text text-anchor="start" x="84.5" y="-51.5" font-family="Helvetica,sans-Serif" font-size="10.00">system_matrix()</text>
<text text-anchor="start" x="59.5" y="-36.5" font-family="Helvetica,sans-Serif" font-size="10.00">+</text>
<text text-anchor="start" x="84.5" y="-36.5" font-family="Helvetica,sans-Serif" font-size="10.00">get_params()</text>
<text text-anchor="start" x="59.5" y="-21.5" font-family="Helvetica,sans-Serif" font-size="10.00">+</text>
<text text-anchor="start" x="84.5" y="-21.5" font-family="Helvetica,sans-Serif" font-size="10.00">size()</text>
<text text-anchor="start" x="59.5" y="-6.5" font-family="Helvetica,sans-Serif" font-size="10.00">+</text>
<text text-anchor="start" x="84.5" y="-6.5" font-family="Helvetica,sans-Serif" font-size="10.00">bytes()</text>
<polygon fill="#666666" stroke="#666666" points="43.5,-256.5 43.5,-256.5 224.5,-256.5 224.5,-256.5 43.5,-256.5"/>
<polygon fill="#666666" stroke="#666666" points="43.5,-211.5 43.5,-211.5 82.5,-211.5 82.5,-211.5 43.5,-211.5"/>
<polygon fill="#666666" stroke="#666666" points="82.5,-211.5 82.5,-211.5 224.5,-211.5 224.5,-211.5 82.5,-211.5"/>
<polygon fill="none" stroke="#666666" points="43,0 43,-285 224,-285 224,0 43,0"/>
</a>
</g>
</g>
<!-- Node2 -->
<g id="Node000002" class="node">
<title>Node2</title>
<g id="a_Node000002"><a xlink:href="../../d6/d28/classArcane_1_1Alina_1_1detail_1_1non__copyable.html" target="_top" xlink:title=" ">
<polygon fill="white" stroke="transparent" points="109,-442.5 0,-442.5 0,-337.5 109,-337.5 109,-442.5"/>
<text text-anchor="start" x="5.5" y="-430" font-family="Helvetica,sans-Serif" font-size="10.00">Arcane::Alina::detail</text>
<text text-anchor="start" x="18" y="-419" font-family="Helvetica,sans-Serif" font-size="10.00">::non_copyable</text>
<text text-anchor="start" x="53" y="-404" font-family="Helvetica,sans-Serif" font-size="10.00"> </text>
<text text-anchor="start" x="5.5" y="-389" font-family="Helvetica,sans-Serif" font-size="10.00">#</text>
<text text-anchor="start" x="19.5" y="-389" font-family="Helvetica,sans-Serif" font-size="10.00">non_copyable()</text>
<text text-anchor="start" x="5.5" y="-374" font-family="Helvetica,sans-Serif" font-size="10.00">#</text>
<text text-anchor="start" x="19.5" y="-374" font-family="Helvetica,sans-Serif" font-size="10.00">~non_copyable()</text>
<text text-anchor="start" x="5.5" y="-359" font-family="Helvetica,sans-Serif" font-size="10.00">#</text>
<text text-anchor="start" x="19.5" y="-359" font-family="Helvetica,sans-Serif" font-size="10.00">non_copyable()</text>
<text text-anchor="start" x="5.5" y="-344" font-family="Helvetica,sans-Serif" font-size="10.00">#</text>
<text text-anchor="start" x="19.5" y="-344" font-family="Helvetica,sans-Serif" font-size="10.00">operator=()</text>
<polygon fill="#bfbfbf" stroke="#bfbfbf" points="0.5,-414 0.5,-414 109.5,-414 109.5,-414 0.5,-414"/>
<polygon fill="#bfbfbf" stroke="#bfbfbf" points="0.5,-399 0.5,-399 109.5,-399 109.5,-399 0.5,-399"/>
<polygon fill="none" stroke="#bfbfbf" points="0,-337.5 0,-442.5 109,-442.5 109,-337.5 0,-337.5"/>
</a>
</g>
</g>
<!-- Node2&#45;&gt;Node1 -->
<g id="edge1_Node000001_Node000002" class="edge">
<title>Node2&#45;&gt;Node1</title>
<g id="a_edge1_Node000001_Node000002"><a xlink:title=" ">
<path fill="none" stroke="#63b8ff" d="M74.31,-327.45C78.54,-314.3 83.17,-299.9 87.92,-285.13"/>
<polygon fill="none" stroke="#63b8ff" points="70.89,-326.64 71.16,-337.24 77.55,-328.79 70.89,-326.64"/>
</a>
</g>
</g>
<!-- Node3 -->
<g id="Node000003" class="node">
<title>Node3</title>
<g id="a_Node000003"><a xlink:href="../../d8/d2e/structArcane_1_1Alina_1_1PreconditionedSolver_1_1params.html" target="_top" xlink:title="Combined parameters of the bundled preconditioner and the iterative solver.">
<polygon fill="white" stroke="transparent" points="297.5,-448 127.5,-448 127.5,-332 297.5,-332 297.5,-448"/>
<text text-anchor="start" x="132.5" y="-436" font-family="Helvetica,sans-Serif" font-size="10.00">Arcane::Alina::Preconditioned</text>
<text text-anchor="start" x="132.5" y="-425" font-family="Helvetica,sans-Serif" font-size="10.00">Solver&lt; Precond, IterativeSolver</text>
<text text-anchor="start" x="185" y="-414" font-family="Helvetica,sans-Serif" font-size="10.00"> &gt;::params</text>
<text text-anchor="start" x="157.5" y="-399" font-family="Helvetica,sans-Serif" font-size="10.00">+</text>
<text text-anchor="start" x="196.5" y="-399" font-family="Helvetica,sans-Serif" font-size="10.00">precond</text>
<text text-anchor="start" x="157.5" y="-384" font-family="Helvetica,sans-Serif" font-size="10.00">+</text>
<text text-anchor="start" x="196.5" y="-384" font-family="Helvetica,sans-Serif" font-size="10.00">solver</text>
<text text-anchor="start" x="157.5" y="-369" font-family="Helvetica,sans-Serif" font-size="10.00">+</text>
<text text-anchor="start" x="196.5" y="-369" font-family="Helvetica,sans-Serif" font-size="10.00">params()</text>
<text text-anchor="start" x="157.5" y="-354" font-family="Helvetica,sans-Serif" font-size="10.00">+</text>
<text text-anchor="start" x="196.5" y="-354" font-family="Helvetica,sans-Serif" font-size="10.00">params()</text>
<text text-anchor="start" x="157.5" y="-339" font-family="Helvetica,sans-Serif" font-size="10.00">+</text>
<text text-anchor="start" x="196.5" y="-339" font-family="Helvetica,sans-Serif" font-size="10.00">get()</text>
<polygon fill="#666666" stroke="#666666" points="127.5,-409 127.5,-409 297.5,-409 297.5,-409 127.5,-409"/>
<polygon fill="#666666" stroke="#666666" points="127.5,-379 127.5,-379 194.5,-379 194.5,-379 127.5,-379"/>
<polygon fill="#666666" stroke="#666666" points="194.5,-379 194.5,-379 297.5,-379 297.5,-379 194.5,-379"/>
<polygon fill="none" stroke="#666666" points="127.5,-332 127.5,-448 297.5,-448 297.5,-332 127.5,-332"/>
</a>
</g>
</g>
<!-- Node3&#45;&gt;Node1 -->
<g id="edge2_Node000001_Node000003" class="edge">
<title>Node3&#45;&gt;Node1</title>
<g id="a_edge2_Node000001_Node000003"><a xlink:title=" ">
<path fill="none" stroke="#63b8ff" d="M194.08,-331.75C190.55,-320.79 186.71,-308.85 182.73,-296.48"/>
<polygon fill="none" stroke="#63b8ff" points="182.71,-296.42 177.06,-291.94 179.03,-285 184.68,-289.49 182.71,-296.42"/>
</a>
</g>
<text text-anchor="middle" x="202" y="-306" font-family="Helvetica,sans-Serif" font-size="10.00" fill="grey"> +prm</text>
</g>
</g>
</svg>
