<?xml version="1.0" encoding="UTF-8" standalone="no"?>
<!DOCTYPE svg PUBLIC "-//W3C//DTD SVG 1.1//EN"
 "http://www.w3.org/Graphics/SVG/1.1/DTD/svg11.dtd">
<!-- Generated by graphviz version 2.43.0 (0)
 -->
<!-- Title: Arcane::ArcaneBasicVerifierServiceV3 Pages: 1 -->
<svg width="386pt" height="1199pt"
 viewBox="0.00 0.00 385.50 1199.00" xmlns="http://www.w3.org/2000/svg" xmlns:xlink="http://www.w3.org/1999/xlink">
<g id="graph0" class="graph" transform="scale(1 1) rotate(0) translate(4 1195)">
<title>Arcane::ArcaneBasicVerifierServiceV3</title>
<!-- Node1 -->
<g id="Node000001" class="node">
<title>Node1</title>
<g id="a_Node000001"><a xlink:title=" ">
<polygon fill="#999999" stroke="transparent" points="306,-60 134,-60 134,0 306,0 306,-60"/>
<text text-anchor="start" x="152.5" y="-48" font-family="Helvetica,sans-Serif" font-size="10.00">Arcane::ArcaneBasicVerifier</text>
<text text-anchor="start" x="195.5" y="-37" font-family="Helvetica,sans-Serif" font-size="10.00">ServiceV3</text>
<text text-anchor="start" x="218" y="-22" font-family="Helvetica,sans-Serif" font-size="10.00"> </text>
<text text-anchor="start" x="138" y="-7" font-family="Helvetica,sans-Serif" font-size="10.00">+</text>
<text text-anchor="start" x="151" y="-7" font-family="Helvetica,sans-Serif" font-size="10.00">ArcaneBasicVerifierServiceV3()</text>
<polygon fill="#666666" stroke="#666666" points="134,-32 134,-32 306,-32 306,-32 134,-32"/>
<polygon fill="#666666" stroke="#666666" points="134,-17 134,-17 306,-17 306,-17 134,-17"/>
<polygon fill="none" stroke="#666666" points="134,0 134,-60 306,-60 306,0 134,0"/>
</a>
</g>
</g>
<!-- Node2 -->
<g id="Node000002" class="node">
<title>Node2</title>
<g id="a_Node000002"><a xlink:href="../../d9/d1b/classArcane_1_1ArcaneBasicVerifierService.html" target="_top" xlink:title=" ">
<polygon fill="white" stroke="transparent" points="300,-276 140,-276 140,-96 300,-96 300,-276"/>
<text text-anchor="start" x="152.5" y="-264" font-family="Helvetica,sans-Serif" font-size="10.00">Arcane::ArcaneBasicVerifier</text>
<text text-anchor="start" x="201.5" y="-253" font-family="Helvetica,sans-Serif" font-size="10.00">Service</text>
<text text-anchor="start" x="146.5" y="-238" font-family="Helvetica,sans-Serif" font-size="10.00">&#45;</text>
<text text-anchor="start" x="157" y="-238" font-family="Helvetica,sans-Serif" font-size="10.00">m_full_file_name</text>
<text text-anchor="start" x="146.5" y="-223" font-family="Helvetica,sans-Serif" font-size="10.00">&#45;</text>
<text text-anchor="start" x="157" y="-223" font-family="Helvetica,sans-Serif" font-size="10.00">m_wanted_format_version</text>
<text text-anchor="start" x="144" y="-208" font-family="Helvetica,sans-Serif" font-size="10.00">+</text>
<text text-anchor="start" x="157" y="-208" font-family="Helvetica,sans-Serif" font-size="10.00">ArcaneBasicVerifierService()</text>
<text text-anchor="start" x="144" y="-193" font-family="Helvetica,sans-Serif" font-size="10.00">+</text>
<text text-anchor="start" x="157" y="-193" font-family="Helvetica,sans-Serif" font-size="10.00">build()</text>
<text text-anchor="start" x="144" y="-178" font-family="Helvetica,sans-Serif" font-size="10.00">+</text>
<text text-anchor="start" x="157" y="-178" font-family="Helvetica,sans-Serif" font-size="10.00">writeReferenceFile()</text>
<text text-anchor="start" x="144" y="-163" font-family="Helvetica,sans-Serif" font-size="10.00">+</text>
<text text-anchor="start" x="157" y="-163" font-family="Helvetica,sans-Serif" font-size="10.00">doVerifFromReferenceFile()</text>
<text text-anchor="start" x="144" y="-148" font-family="Helvetica,sans-Serif" font-size="10.00">#</text>
<text text-anchor="start" x="157" y="-148" font-family="Helvetica,sans-Serif" font-size="10.00">_setFormatVersion()</text>
<text text-anchor="start" x="146.5" y="-133" font-family="Helvetica,sans-Serif" font-size="10.00">&#45;</text>
<text text-anchor="start" x="157" y="-133" font-family="Helvetica,sans-Serif" font-size="10.00">_computeFullFileName()</text>
<text text-anchor="start" x="146.5" y="-118" font-family="Helvetica,sans-Serif" font-size="10.00">&#45;</text>
<text text-anchor="start" x="157" y="-118" font-family="Helvetica,sans-Serif" font-size="10.00">_doVerifHash()</text>
<text text-anchor="start" x="146.5" y="-103" font-family="Helvetica,sans-Serif" font-size="10.00">&#45;</text>
<text text-anchor="start" x="157" y="-103" font-family="Helvetica,sans-Serif" font-size="10.00">_writeReferenceFile()</text>
<polygon fill="#bfbfbf" stroke="#bfbfbf" points="140,-248 140,-248 300,-248 300,-248 140,-248"/>
<polygon fill="#bfbfbf" stroke="#bfbfbf" points="140,-218 140,-218 155,-218 155,-218 140,-218"/>
<polygon fill="#bfbfbf" stroke="#bfbfbf" points="155,-218 155,-218 300,-218 300,-218 155,-218"/>
<polygon fill="none" stroke="#bfbfbf" points="140,-96 140,-276 300,-276 300,-96 140,-96"/>
</a>
</g>
</g>
<!-- Node2&#45;&gt;Node1 -->
<g id="edge1_Node000001_Node000002" class="edge">
<title>Node2&#45;&gt;Node1</title>
<g id="a_edge1_Node000001_Node000002"><a xlink:title=" ">
<path fill="none" stroke="#63b8ff" d="M220,-85.71C220,-76.49 220,-67.74 220,-60.05"/>
<polygon fill="none" stroke="#63b8ff" points="216.5,-85.86 220,-95.86 223.5,-85.86 216.5,-85.86"/>
</a>
</g>
</g>
<!-- Node3 -->
<g id="Node000003" class="node">
<title>Node3</title>
<g id="a_Node000003"><a xlink:href="../../d9/d64/classArcane_1_1VerifierService.html" target="_top" xlink:title="Classe de base du service de vérification des données entre deux exécutions.">
<polygon fill="white" stroke="transparent" points="280.5,-676 159.5,-676 159.5,-312 280.5,-312 280.5,-676"/>
<text text-anchor="start" x="165" y="-664" font-family="Helvetica,sans-Serif" font-size="10.00">Arcane::VerifierService</text>
<text text-anchor="start" x="166.5" y="-649" font-family="Helvetica,sans-Serif" font-size="10.00">&#45;</text>
<text text-anchor="start" x="177" y="-649" font-family="Helvetica,sans-Serif" font-size="10.00">m_sub_domain</text>
<text text-anchor="start" x="166.5" y="-634" font-family="Helvetica,sans-Serif" font-size="10.00">&#45;</text>
<text text-anchor="start" x="177" y="-634" font-family="Helvetica,sans-Serif" font-size="10.00">m_service_info</text>
<text text-anchor="start" x="166.5" y="-619" font-family="Helvetica,sans-Serif" font-size="10.00">&#45;</text>
<text text-anchor="start" x="177" y="-619" font-family="Helvetica,sans-Serif" font-size="10.00">m_file_name</text>
<text text-anchor="start" x="166.5" y="-604" font-family="Helvetica,sans-Serif" font-size="10.00">&#45;</text>
<text text-anchor="start" x="177" y="-604" font-family="Helvetica,sans-Serif" font-size="10.00">m_result_file_name</text>
<text text-anchor="start" x="166.5" y="-589" font-family="Helvetica,sans-Serif" font-size="10.00">&#45;</text>
<text text-anchor="start" x="177" y="-589" font-family="Helvetica,sans-Serif" font-size="10.00">m_sub_dir</text>
<text text-anchor="start" x="166.5" y="-574" font-family="Helvetica,sans-Serif" font-size="10.00">&#45;</text>
<text text-anchor="start" x="177" y="-574" font-family="Helvetica,sans-Serif" font-size="10.00">m_compare_mode</text>
<text text-anchor="start" x="164" y="-559" font-family="Helvetica,sans-Serif" font-size="10.00">+</text>
<text text-anchor="start" x="177" y="-559" font-family="Helvetica,sans-Serif" font-size="10.00">VerifierService()</text>
<text text-anchor="start" x="164" y="-544" font-family="Helvetica,sans-Serif" font-size="10.00">+</text>
<text text-anchor="start" x="177" y="-544" font-family="Helvetica,sans-Serif" font-size="10.00">~VerifierService()</text>
<text text-anchor="start" x="164" y="-529" font-family="Helvetica,sans-Serif" font-size="10.00">+</text>
<text text-anchor="start" x="177" y="-529" font-family="Helvetica,sans-Serif" font-size="10.00">serviceParent()</text>
<text text-anchor="start" x="164" y="-514" font-family="Helvetica,sans-Serif" font-size="10.00">+</text>
<text text-anchor="start" x="177" y="-514" font-family="Helvetica,sans-Serif" font-size="10.00">serviceInfo()</text>
<text text-anchor="start" x="164" y="-499" font-family="Helvetica,sans-Serif" font-size="10.00">+</text>
<text text-anchor="start" x="177" y="-499" font-family="Helvetica,sans-Serif" font-size="10.00">serviceInterface()</text>
<text text-anchor="start" x="164" y="-484" font-family="Helvetica,sans-Serif" font-size="10.00">+</text>
<text text-anchor="start" x="177" y="-484" font-family="Helvetica,sans-Serif" font-size="10.00">setFileName()</text>
<text text-anchor="start" x="164" y="-469" font-family="Helvetica,sans-Serif" font-size="10.00">+</text>
<text text-anchor="start" x="177" y="-469" font-family="Helvetica,sans-Serif" font-size="10.00">fileName()</text>
<text text-anchor="start" x="164" y="-454" font-family="Helvetica,sans-Serif" font-size="10.00">+</text>
<text text-anchor="start" x="177" y="-454" font-family="Helvetica,sans-Serif" font-size="10.00">setResultFileName()</text>
<text text-anchor="start" x="164" y="-439" font-family="Helvetica,sans-Serif" font-size="10.00">+</text>
<text text-anchor="start" x="177" y="-439" font-family="Helvetica,sans-Serif" font-size="10.00">resultfileName()</text>
<text text-anchor="start" x="164" y="-424" font-family="Helvetica,sans-Serif" font-size="10.00">+</text>
<text text-anchor="start" x="177" y="-424" font-family="Helvetica,sans-Serif" font-size="10.00">setCompareMode()</text>
<text text-anchor="start" x="164" y="-409" font-family="Helvetica,sans-Serif" font-size="10.00">+</text>
<text text-anchor="start" x="177" y="-409" font-family="Helvetica,sans-Serif" font-size="10.00">compareMode()</text>
<text text-anchor="start" x="164" y="-394" font-family="Helvetica,sans-Serif" font-size="10.00">+</text>
<text text-anchor="start" x="177" y="-394" font-family="Helvetica,sans-Serif" font-size="10.00">setSubDir()</text>
<text text-anchor="start" x="164" y="-379" font-family="Helvetica,sans-Serif" font-size="10.00">+</text>
<text text-anchor="start" x="177" y="-379" font-family="Helvetica,sans-Serif" font-size="10.00">subDir()</text>
<text text-anchor="start" x="164" y="-364" font-family="Helvetica,sans-Serif" font-size="10.00">+</text>
<text text-anchor="start" x="177" y="-364" font-family="Helvetica,sans-Serif" font-size="10.00">subDomain()</text>
<text text-anchor="start" x="164" y="-349" font-family="Helvetica,sans-Serif" font-size="10.00">#</text>
<text text-anchor="start" x="177" y="-349" font-family="Helvetica,sans-Serif" font-size="10.00">_doVerif()</text>
<text text-anchor="start" x="164" y="-334" font-family="Helvetica,sans-Serif" font-size="10.00">#</text>
<text text-anchor="start" x="177" y="-334" font-family="Helvetica,sans-Serif" font-size="10.00">_getVariables()</text>
<text text-anchor="start" x="166.5" y="-319" font-family="Helvetica,sans-Serif" font-size="10.00">&#45;</text>
<text text-anchor="start" x="177" y="-319" font-family="Helvetica,sans-Serif" font-size="10.00">_doVerif2()</text>
<polygon fill="#666666" stroke="#666666" points="160,-659 160,-659 281,-659 281,-659 160,-659"/>
<polygon fill="#666666" stroke="#666666" points="160,-569 160,-569 175,-569 175,-569 160,-569"/>
<polygon fill="#666666" stroke="#666666" points="175,-569 175,-569 281,-569 281,-569 175,-569"/>
<polygon fill="none" stroke="#666666" points="159.5,-312 159.5,-676 280.5,-676 280.5,-312 159.5,-312"/>
</a>
</g>
</g>
<!-- Node3&#45;&gt;Node2 -->
<g id="edge2_Node000002_Node000003" class="edge">
<title>Node3&#45;&gt;Node2</title>
<g id="a_edge2_Node000002_Node000003"><a xlink:title=" ">
<path fill="none" stroke="#63b8ff" d="M220,-301.63C220,-292.93 220,-284.42 220,-276.2"/>
<polygon fill="none" stroke="#63b8ff" points="216.5,-301.9 220,-311.9 223.5,-301.9 216.5,-301.9"/>
</a>
</g>
</g>
<!-- Node4 -->
<g id="Node000004" class="node">
<title>Node4</title>
<g id="a_Node000004"><a xlink:href="../../da/d61/classArcane_1_1AbstractService.html" target="_top" xlink:title="Classe de base d&#39;un service.">
<polygon fill="white" stroke="transparent" points="204.5,-881 77.5,-881 77.5,-742 204.5,-742 204.5,-881"/>
<text text-anchor="start" x="83" y="-868.5" font-family="Helvetica,sans-Serif" font-size="10.00">Arcane::AbstractService</text>
<text text-anchor="start" x="87.5" y="-853.5" font-family="Helvetica,sans-Serif" font-size="10.00">&#45;</text>
<text text-anchor="start" x="101" y="-853.5" font-family="Helvetica,sans-Serif" font-size="10.00">m_service_info</text>
<text text-anchor="start" x="87.5" y="-838.5" font-family="Helvetica,sans-Serif" font-size="10.00">&#45;</text>
<text text-anchor="start" x="101" y="-838.5" font-family="Helvetica,sans-Serif" font-size="10.00">m_parent</text>
<text text-anchor="start" x="85" y="-823.5" font-family="Helvetica,sans-Serif" font-size="10.00">+</text>
<text text-anchor="start" x="101" y="-823.5" font-family="Helvetica,sans-Serif" font-size="10.00">~AbstractService()</text>
<text text-anchor="start" x="85" y="-808.5" font-family="Helvetica,sans-Serif" font-size="10.00">+</text>
<text text-anchor="start" x="101" y="-808.5" font-family="Helvetica,sans-Serif" font-size="10.00">build()</text>
<text text-anchor="start" x="85" y="-793.5" font-family="Helvetica,sans-Serif" font-size="10.00">+</text>
<text text-anchor="start" x="101" y="-793.5" font-family="Helvetica,sans-Serif" font-size="10.00">serviceInfo()</text>
<text text-anchor="start" x="85" y="-778.5" font-family="Helvetica,sans-Serif" font-size="10.00">+</text>
<text text-anchor="start" x="101" y="-778.5" font-family="Helvetica,sans-Serif" font-size="10.00">serviceParent()</text>
<text text-anchor="start" x="85" y="-763.5" font-family="Helvetica,sans-Serif" font-size="10.00">+</text>
<text text-anchor="start" x="101" y="-763.5" font-family="Helvetica,sans-Serif" font-size="10.00">serviceInterface()</text>
<text text-anchor="start" x="85" y="-748.5" font-family="Helvetica,sans-Serif" font-size="10.00">#</text>
<text text-anchor="start" x="101" y="-748.5" font-family="Helvetica,sans-Serif" font-size="10.00">AbstractService()</text>
<polygon fill="#666666" stroke="#666666" points="78,-863.5 78,-863.5 205,-863.5 205,-863.5 78,-863.5"/>
<polygon fill="#666666" stroke="#666666" points="78,-833.5 78,-833.5 99,-833.5 99,-833.5 78,-833.5"/>
<polygon fill="#666666" stroke="#666666" points="99,-833.5 99,-833.5 205,-833.5 205,-833.5 99,-833.5"/>
<polygon fill="none" stroke="#666666" points="77.5,-742 77.5,-881 204.5,-881 204.5,-742 77.5,-742"/>
</a>
</g>
</g>
<!-- Node4&#45;&gt;Node3 -->
<g id="edge3_Node000003_Node000004" class="edge">
<title>Node4&#45;&gt;Node3</title>
<g id="a_edge3_Node000003_Node000004"><a xlink:title=" ">
<path fill="none" stroke="#63b8ff" d="M160.73,-731.71C165.04,-714.48 169.78,-695.55 174.64,-676.14"/>
<polygon fill="none" stroke="#63b8ff" points="157.27,-731.1 158.24,-741.65 164.06,-732.8 157.27,-731.1"/>
</a>
</g>
</g>
<!-- Node5 -->
<g id="Node000005" class="node">
<title>Node5</title>
<g id="a_Node000005"><a xlink:href="../../d1/d17/classArcane_1_1TraceAccessor.html" target="_top" xlink:title="Classe d&#39;accès aux traces.">
<polygon fill="white" stroke="transparent" points="140,-1191 0,-1191 0,-947 140,-947 140,-1191"/>
<text text-anchor="start" x="15.5" y="-1179" font-family="Helvetica,sans-Serif" font-size="10.00">Arcane::TraceAccessor</text>
<text text-anchor="start" x="6.5" y="-1164" font-family="Helvetica,sans-Serif" font-size="10.00">&#45;</text>
<text text-anchor="start" x="17" y="-1164" font-family="Helvetica,sans-Serif" font-size="10.00">m_trace</text>
<text text-anchor="start" x="6.5" y="-1149" font-family="Helvetica,sans-Serif" font-size="10.00">&#45;</text>
<text text-anchor="start" x="17" y="-1149" font-family="Helvetica,sans-Serif" font-size="10.00">m_local_verbose_level</text>
<text text-anchor="start" x="4" y="-1134" font-family="Helvetica,sans-Serif" font-size="10.00">+</text>
<text text-anchor="start" x="17" y="-1134" font-family="Helvetica,sans-Serif" font-size="10.00">TraceAccessor()</text>
<text text-anchor="start" x="4" y="-1119" font-family="Helvetica,sans-Serif" font-size="10.00">+</text>
<text text-anchor="start" x="17" y="-1119" font-family="Helvetica,sans-Serif" font-size="10.00">TraceAccessor()</text>
<text text-anchor="start" x="4" y="-1104" font-family="Helvetica,sans-Serif" font-size="10.00">+</text>
<text text-anchor="start" x="17" y="-1104" font-family="Helvetica,sans-Serif" font-size="10.00">operator=()</text>
<text text-anchor="start" x="4" y="-1089" font-family="Helvetica,sans-Serif" font-size="10.00">+</text>
<text text-anchor="start" x="17" y="-1089" font-family="Helvetica,sans-Serif" font-size="10.00">~TraceAccessor()</text>
<text text-anchor="start" x="4" y="-1074" font-family="Helvetica,sans-Serif" font-size="10.00">+</text>
<text text-anchor="start" x="17" y="-1074" font-family="Helvetica,sans-Serif" font-size="10.00">traceMng()</text>
<text text-anchor="start" x="4" y="-1059" font-family="Helvetica,sans-Serif" font-size="10.00">+</text>
<text text-anchor="start" x="17" y="-1059" font-family="Helvetica,sans-Serif" font-size="10.00">info()</text>
<text text-anchor="start" x="4" y="-1044" font-family="Helvetica,sans-Serif" font-size="10.00">+</text>
<text text-anchor="start" x="17" y="-1044" font-family="Helvetica,sans-Serif" font-size="10.00">pinfo()</text>
<text text-anchor="start" x="4" y="-1029" font-family="Helvetica,sans-Serif" font-size="10.00">+</text>
<text text-anchor="start" x="17" y="-1029" font-family="Helvetica,sans-Serif" font-size="10.00">info()</text>
<text text-anchor="start" x="4" y="-1014" font-family="Helvetica,sans-Serif" font-size="10.00">+</text>
<text text-anchor="start" x="17" y="-1014" font-family="Helvetica,sans-Serif" font-size="10.00">pinfo()</text>
<text text-anchor="start" x="4" y="-999" font-family="Helvetica,sans-Serif" font-size="10.00">+</text>
<text text-anchor="start" x="17" y="-999" font-family="Helvetica,sans-Serif" font-size="10.00">info()</text>
<text text-anchor="start" x="17" y="-984" font-family="Helvetica,sans-Serif" font-size="10.00">et 15 de plus...</text>
<text text-anchor="start" x="4" y="-969" font-family="Helvetica,sans-Serif" font-size="10.00">#</text>
<text text-anchor="start" x="17" y="-969" font-family="Helvetica,sans-Serif" font-size="10.00">_setLocalVerboseLevel()</text>
<text text-anchor="start" x="4" y="-954" font-family="Helvetica,sans-Serif" font-size="10.00">#</text>
<text text-anchor="start" x="17" y="-954" font-family="Helvetica,sans-Serif" font-size="10.00">_localVerboseLevel()</text>
<polygon fill="#666666" stroke="#666666" points="0,-1174 0,-1174 140,-1174 140,-1174 0,-1174"/>
<polygon fill="#666666" stroke="#666666" points="0,-1144 0,-1144 15,-1144 15,-1144 0,-1144"/>
<polygon fill="#666666" stroke="#666666" points="15,-1144 15,-1144 140,-1144 140,-1144 15,-1144"/>
<polygon fill="none" stroke="#666666" points="0,-947 0,-1191 140,-1191 140,-947 0,-947"/>
</a>
</g>
</g>
<!-- Node5&#45;&gt;Node4 -->
<g id="edge4_Node000004_Node000005" class="edge">
<title>Node5&#45;&gt;Node4</title>
<g id="a_edge4_Node000004_Node000005"><a xlink:title=" ">
<path fill="none" stroke="#63b8ff" d="M106.35,-937.19C111.72,-917.86 117.07,-898.62 121.89,-881.25"/>
<polygon fill="none" stroke="#63b8ff" points="102.93,-936.41 103.63,-946.98 109.68,-938.29 102.93,-936.41"/>
</a>
</g>
</g>
<!-- Node6 -->
<g id="Node000006" class="node">
<title>Node6</title>
<g id="a_Node000006"><a xlink:href="../../da/d7e/classArcane_1_1IService.html" target="_top" xlink:title="Interface d&#39;un service.">
<polygon fill="white" stroke="transparent" points="266,-1123.5 158,-1123.5 158,-1014.5 266,-1014.5 266,-1123.5"/>
<text text-anchor="start" x="172.5" y="-1111" font-family="Helvetica,sans-Serif" font-size="10.00">Arcane::IService</text>
<text text-anchor="start" x="210" y="-1096" font-family="Helvetica,sans-Serif" font-size="10.00"> </text>
<text text-anchor="start" x="162" y="-1081" font-family="Helvetica,sans-Serif" font-size="10.00">+</text>
<text text-anchor="start" x="175" y="-1081" font-family="Helvetica,sans-Serif" font-size="10.00">~IService()</text>
<text text-anchor="start" x="162" y="-1066" font-family="Helvetica,sans-Serif" font-size="10.00">+</text>
<text text-anchor="start" x="175" y="-1066" font-family="Helvetica,sans-Serif" font-size="10.00">serviceParent()</text>
<text text-anchor="start" x="162" y="-1051" font-family="Helvetica,sans-Serif" font-size="10.00">+</text>
<text text-anchor="start" x="175" y="-1051" font-family="Helvetica,sans-Serif" font-size="10.00">serviceInterface()</text>
<text text-anchor="start" x="162" y="-1036" font-family="Helvetica,sans-Serif" font-size="10.00">+</text>
<text text-anchor="start" x="175" y="-1036" font-family="Helvetica,sans-Serif" font-size="10.00">serviceInfo()</text>
<text text-anchor="start" x="162" y="-1021" font-family="Helvetica,sans-Serif" font-size="10.00">#</text>
<text text-anchor="start" x="175" y="-1021" font-family="Helvetica,sans-Serif" font-size="10.00">IService()</text>
<polygon fill="#666666" stroke="#666666" points="158,-1106 158,-1106 266,-1106 266,-1106 158,-1106"/>
<polygon fill="#666666" stroke="#666666" points="158,-1091 158,-1091 266,-1091 266,-1091 158,-1091"/>
<polygon fill="none" stroke="#666666" points="158,-1014.5 158,-1123.5 266,-1123.5 266,-1014.5 158,-1014.5"/>
</a>
</g>
</g>
<!-- Node6&#45;&gt;Node4 -->
<g id="edge5_Node000004_Node000006" class="edge">
<title>Node6&#45;&gt;Node4</title>
<g id="a_edge5_Node000004_Node000006"><a xlink:title=" ">
<path fill="none" stroke="#63b8ff" d="M194.39,-1004.63C183.96,-967.08 170.73,-919.49 160.06,-881.07"/>
<polygon fill="none" stroke="#63b8ff" points="191.07,-1005.74 197.12,-1014.44 197.81,-1003.87 191.07,-1005.74"/>
</a>
</g>
</g>
<!-- Node7 -->
<g id="Node000007" class="node">
<title>Node7</title>
<g id="a_Node000007"><a xlink:href="../../d3/d3e/classArcane_1_1IVerifierService.html" target="_top" xlink:title="Interface du service de vérification des données entre deux exécutions.">
<polygon fill="white" stroke="transparent" points="377.5,-911 222.5,-911 222.5,-712 377.5,-712 377.5,-911"/>
<text text-anchor="start" x="243.5" y="-898.5" font-family="Helvetica,sans-Serif" font-size="10.00">Arcane::IVerifierService</text>
<text text-anchor="start" x="298.5" y="-883.5" font-family="Helvetica,sans-Serif" font-size="10.00"> </text>
<text text-anchor="start" x="227" y="-868.5" font-family="Helvetica,sans-Serif" font-size="10.00">+</text>
<text text-anchor="start" x="240" y="-868.5" font-family="Helvetica,sans-Serif" font-size="10.00">~IVerifierService()</text>
<text text-anchor="start" x="227" y="-853.5" font-family="Helvetica,sans-Serif" font-size="10.00">+</text>
<text text-anchor="start" x="240" y="-853.5" font-family="Helvetica,sans-Serif" font-size="10.00">writeReferenceFile()</text>
<text text-anchor="start" x="227" y="-838.5" font-family="Helvetica,sans-Serif" font-size="10.00">+</text>
<text text-anchor="start" x="240" y="-838.5" font-family="Helvetica,sans-Serif" font-size="10.00">doVerifFromReferenceFile()</text>
<text text-anchor="start" x="227" y="-823.5" font-family="Helvetica,sans-Serif" font-size="10.00">+</text>
<text text-anchor="start" x="240" y="-823.5" font-family="Helvetica,sans-Serif" font-size="10.00">setFileName()</text>
<text text-anchor="start" x="227" y="-808.5" font-family="Helvetica,sans-Serif" font-size="10.00">+</text>
<text text-anchor="start" x="240" y="-808.5" font-family="Helvetica,sans-Serif" font-size="10.00">fileName()</text>
<text text-anchor="start" x="227" y="-793.5" font-family="Helvetica,sans-Serif" font-size="10.00">+</text>
<text text-anchor="start" x="240" y="-793.5" font-family="Helvetica,sans-Serif" font-size="10.00">setResultFileName()</text>
<text text-anchor="start" x="227" y="-778.5" font-family="Helvetica,sans-Serif" font-size="10.00">+</text>
<text text-anchor="start" x="240" y="-778.5" font-family="Helvetica,sans-Serif" font-size="10.00">resultfileName()</text>
<text text-anchor="start" x="227" y="-763.5" font-family="Helvetica,sans-Serif" font-size="10.00">+</text>
<text text-anchor="start" x="240" y="-763.5" font-family="Helvetica,sans-Serif" font-size="10.00">setCompareMode()</text>
<text text-anchor="start" x="227" y="-748.5" font-family="Helvetica,sans-Serif" font-size="10.00">+</text>
<text text-anchor="start" x="240" y="-748.5" font-family="Helvetica,sans-Serif" font-size="10.00">compareMode()</text>
<text text-anchor="start" x="227" y="-733.5" font-family="Helvetica,sans-Serif" font-size="10.00">+</text>
<text text-anchor="start" x="240" y="-733.5" font-family="Helvetica,sans-Serif" font-size="10.00">setSubDir()</text>
<text text-anchor="start" x="227" y="-718.5" font-family="Helvetica,sans-Serif" font-size="10.00">+</text>
<text text-anchor="start" x="240" y="-718.5" font-family="Helvetica,sans-Serif" font-size="10.00">subDir()</text>
<polygon fill="#666666" stroke="#666666" points="223,-893.5 223,-893.5 378,-893.5 378,-893.5 223,-893.5"/>
<polygon fill="#666666" stroke="#666666" points="223,-878.5 223,-878.5 378,-878.5 378,-878.5 223,-878.5"/>
<polygon fill="none" stroke="#666666" points="222.5,-712 222.5,-911 377.5,-911 377.5,-712 222.5,-712"/>
</a>
</g>
</g>
<!-- Node7&#45;&gt;Node3 -->
<g id="edge6_Node000003_Node000007" class="edge">
<title>Node7&#45;&gt;Node3</title>
<g id="a_edge6_Node000003_Node000007"><a xlink:title=" ">
<path fill="none" stroke="#63b8ff" d="M272.51,-702.1C270.36,-693.6 268.15,-684.88 265.91,-676.07"/>
<polygon fill="none" stroke="#63b8ff" points="269.17,-703.14 275.02,-711.97 275.95,-701.42 269.17,-703.14"/>
</a>
</g>
</g>
</g>
</svg>
