<?xml version="1.0" encoding="UTF-8" standalone="no"?>
<!DOCTYPE svg PUBLIC "-//W3C//DTD SVG 1.1//EN"
 "http://www.w3.org/Graphics/SVG/1.1/DTD/svg11.dtd">
<!-- Generated by graphviz version 2.43.0 (0)
 -->
<!-- Title: Arcane::VariableSynchronizerComputeList Pages: 1 -->
<!--zoomable 479 -->

<svg id="main" version="1.1" xmlns="http://www.w3.org/2000/svg" xmlns:xlink="http://www.w3.org/1999/xlink" xml:space="preserve" onload="init(evt)">

<style type="text/css"><![CDATA[
.node, .edge {opacity: 0.7;}
.node.selected, .edge.selected {opacity: 1;}
.edge:hover path { stroke: red; }
.edge:hover polygon { stroke: red; fill: red; }
]]></style>

<defs>
  <circle id="rim" cx="0" cy="0" r="7"/>
  <circle id="rim2" cx="0" cy="0" r="3.5"/>
  <g id="zoomPlus">
    <use xlink:href="#rim" fill="#404040"><set attributeName="fill" to="#808080" begin="zoomplus.mouseover" end="zoomplus.mouseout"/></use>
    <path d="M-4,0h8M0,-4v8" fill="none" stroke="white" stroke-width="1.5" pointer-events="none"/>
  </g>
  <g id="zoomMin">
    <use xlink:href="#rim" fill="#404040"><set attributeName="fill" to="#808080" begin="zoomminus.mouseover" end="zoomminus.mouseout"/></use>
    <path d="M-4,0h8" fill="none" stroke="white" stroke-width="1.5" pointer-events="none"/>
  </g>
  <g id="arrowUp" transform="translate(30 24)">
    <use xlink:href="#rim"/>
    <path pointer-events="none" fill="none" stroke="white" stroke-width="1.5" d="M0,-3.0v7 M-2.5,-0.5L0,-3.0L2.5,-0.5"/>
  </g>
  <g id="arrowRight" transform="rotate(90) translate(36 -43)">
    <use xlink:href="#rim"/>
    <path pointer-events="none" fill="none" stroke="white" stroke-width="1.5" d="M0,-3.0v7 M-2.5,-0.5L0,-3.0L2.5,-0.5"/>
  </g>
  <g id="arrowDown" transform="rotate(180) translate(-30 -48)">
    <use xlink:href="#rim"/>
    <path pointer-events="none" fill="none" stroke="white" stroke-width="1.5" d="M0,-3.0v7 M-2.5,-0.5L0,-3.0L2.5,-0.5"/>
  </g>
  <g id="arrowLeft" transform="rotate(270) translate(-36 17)">
    <use xlink:href="#rim"/>
    <path pointer-events="none" fill="none" stroke="white" stroke-width="1.5" d="M0,-3.0v7 M-2.5,-0.5L0,-3.0L2.5,-0.5"/>
  </g>
  <g id="resetDef">
    <use xlink:href="#rim2" fill="#404040"><set attributeName="fill" to="#808080" begin="reset.mouseover" end="reset.mouseout"/></use>
  </g>
</defs>
<script type="application/ecmascript">
var viewWidth = 177;
var viewHeight = 479;
var sectionId = 'dynsection-0';
</script>
<script type="application/ecmascript" xlink:href="../../svg.min.js"/>
<svg id="graph" class="graph">
<g id="viewport">
<title>Arcane::VariableSynchronizerComputeList</title>
<!-- Node1 -->
<g id="Node000001" class="node">
<title>Node1</title>
<g id="a_Node000001"><a xlink:title="Calcule de la liste des entités à synchroniser.">
<polygon fill="#999999" stroke="transparent" points="169,-191 0,-191 0,0 169,0 169,-191"/>
<text text-anchor="start" x="13.5" y="-178.5" font-family="Helvetica,sans-Serif" font-size="10.00">Arcane::VariableSynchronizer</text>
<text text-anchor="start" x="54" y="-167.5" font-family="Helvetica,sans-Serif" font-size="10.00">ComputeList</text>
<text text-anchor="start" x="7" y="-152.5" font-family="Helvetica,sans-Serif" font-size="10.00">&#45;</text>
<text text-anchor="start" x="17.5" y="-152.5" font-family="Helvetica,sans-Serif" font-size="10.00">m_synchronizer</text>
<text text-anchor="start" x="7" y="-137.5" font-family="Helvetica,sans-Serif" font-size="10.00">&#45;</text>
<text text-anchor="start" x="17.5" y="-137.5" font-family="Helvetica,sans-Serif" font-size="10.00">m_parallel_mng</text>
<text text-anchor="start" x="7" y="-122.5" font-family="Helvetica,sans-Serif" font-size="10.00">&#45;</text>
<text text-anchor="start" x="17.5" y="-122.5" font-family="Helvetica,sans-Serif" font-size="10.00">m_item_group</text>
<text text-anchor="start" x="7" y="-107.5" font-family="Helvetica,sans-Serif" font-size="10.00">&#45;</text>
<text text-anchor="start" x="17.5" y="-107.5" font-family="Helvetica,sans-Serif" font-size="10.00">m_is_verbose</text>
<text text-anchor="start" x="7" y="-92.5" font-family="Helvetica,sans-Serif" font-size="10.00">&#45;</text>
<text text-anchor="start" x="17.5" y="-92.5" font-family="Helvetica,sans-Serif" font-size="10.00">m_is_debug</text>
<text text-anchor="start" x="4.5" y="-77.5" font-family="Helvetica,sans-Serif" font-size="10.00">+</text>
<text text-anchor="start" x="17.5" y="-77.5" font-family="Helvetica,sans-Serif" font-size="10.00">VariableSynchronizerCompute</text>
<text text-anchor="start" x="17.5" y="-66.5" font-family="Helvetica,sans-Serif" font-size="10.00">List()</text>
<text text-anchor="start" x="4.5" y="-51.5" font-family="Helvetica,sans-Serif" font-size="10.00">+</text>
<text text-anchor="start" x="17.5" y="-51.5" font-family="Helvetica,sans-Serif" font-size="10.00">compute()</text>
<text text-anchor="start" x="7" y="-36.5" font-family="Helvetica,sans-Serif" font-size="10.00">&#45;</text>
<text text-anchor="start" x="17.5" y="-36.5" font-family="Helvetica,sans-Serif" font-size="10.00">_createList()</text>
<text text-anchor="start" x="7" y="-21.5" font-family="Helvetica,sans-Serif" font-size="10.00">&#45;</text>
<text text-anchor="start" x="17.5" y="-21.5" font-family="Helvetica,sans-Serif" font-size="10.00">_checkValid()</text>
<text text-anchor="start" x="7" y="-6.5" font-family="Helvetica,sans-Serif" font-size="10.00">&#45;</text>
<text text-anchor="start" x="17.5" y="-6.5" font-family="Helvetica,sans-Serif" font-size="10.00">_printSyncList()</text>
<polygon fill="#666666" stroke="#666666" points="0.5,-162.5 0.5,-162.5 169.5,-162.5 169.5,-162.5 0.5,-162.5"/>
<polygon fill="#666666" stroke="#666666" points="0.5,-87.5 0.5,-87.5 15.5,-87.5 15.5,-87.5 0.5,-87.5"/>
<polygon fill="#666666" stroke="#666666" points="15.5,-87.5 15.5,-87.5 169.5,-87.5 169.5,-87.5 15.5,-87.5"/>
<polygon fill="none" stroke="#666666" points="0,0 0,-191 169,-191 169,0 0,0"/>
</a>
</g>
</g>
<!-- Node2 -->
<g id="Node000002" class="node">
<title>Node2</title>
<g id="a_Node000002"><a xlink:href="../../d1/d17/classArcane_1_1TraceAccessor.html" target="_top" xlink:title="Classe d&#39;accès aux traces.">
<polygon fill="white" stroke="transparent" points="154.5,-471 14.5,-471 14.5,-227 154.5,-227 154.5,-471"/>
<text text-anchor="start" x="30" y="-459" font-family="Helvetica,sans-Serif" font-size="10.00">Arcane::TraceAccessor</text>
<text text-anchor="start" x="21" y="-444" font-family="Helvetica,sans-Serif" font-size="10.00">&#45;</text>
<text text-anchor="start" x="31.5" y="-444" font-family="Helvetica,sans-Serif" font-size="10.00">m_trace</text>
<text text-anchor="start" x="21" y="-429" font-family="Helvetica,sans-Serif" font-size="10.00">&#45;</text>
<text text-anchor="start" x="31.5" y="-429" font-family="Helvetica,sans-Serif" font-size="10.00">m_local_verbose_level</text>
<text text-anchor="start" x="18.5" y="-414" font-family="Helvetica,sans-Serif" font-size="10.00">+</text>
<text text-anchor="start" x="31.5" y="-414" font-family="Helvetica,sans-Serif" font-size="10.00">TraceAccessor()</text>
<text text-anchor="start" x="18.5" y="-399" font-family="Helvetica,sans-Serif" font-size="10.00">+</text>
<text text-anchor="start" x="31.5" y="-399" font-family="Helvetica,sans-Serif" font-size="10.00">TraceAccessor()</text>
<text text-anchor="start" x="18.5" y="-384" font-family="Helvetica,sans-Serif" font-size="10.00">+</text>
<text text-anchor="start" x="31.5" y="-384" font-family="Helvetica,sans-Serif" font-size="10.00">operator=()</text>
<text text-anchor="start" x="18.5" y="-369" font-family="Helvetica,sans-Serif" font-size="10.00">+</text>
<text text-anchor="start" x="31.5" y="-369" font-family="Helvetica,sans-Serif" font-size="10.00">~TraceAccessor()</text>
<text text-anchor="start" x="18.5" y="-354" font-family="Helvetica,sans-Serif" font-size="10.00">+</text>
<text text-anchor="start" x="31.5" y="-354" font-family="Helvetica,sans-Serif" font-size="10.00">traceMng()</text>
<text text-anchor="start" x="18.5" y="-339" font-family="Helvetica,sans-Serif" font-size="10.00">+</text>
<text text-anchor="start" x="31.5" y="-339" font-family="Helvetica,sans-Serif" font-size="10.00">info()</text>
<text text-anchor="start" x="18.5" y="-324" font-family="Helvetica,sans-Serif" font-size="10.00">+</text>
<text text-anchor="start" x="31.5" y="-324" font-family="Helvetica,sans-Serif" font-size="10.00">pinfo()</text>
<text text-anchor="start" x="18.5" y="-309" font-family="Helvetica,sans-Serif" font-size="10.00">+</text>
<text text-anchor="start" x="31.5" y="-309" font-family="Helvetica,sans-Serif" font-size="10.00">info()</text>
<text text-anchor="start" x="18.5" y="-294" font-family="Helvetica,sans-Serif" font-size="10.00">+</text>
<text text-anchor="start" x="31.5" y="-294" font-family="Helvetica,sans-Serif" font-size="10.00">pinfo()</text>
<text text-anchor="start" x="18.5" y="-279" font-family="Helvetica,sans-Serif" font-size="10.00">+</text>
<text text-anchor="start" x="31.5" y="-279" font-family="Helvetica,sans-Serif" font-size="10.00">info()</text>
<text text-anchor="start" x="31.5" y="-264" font-family="Helvetica,sans-Serif" font-size="10.00">et 15 de plus...</text>
<text text-anchor="start" x="18.5" y="-249" font-family="Helvetica,sans-Serif" font-size="10.00">#</text>
<text text-anchor="start" x="31.5" y="-249" font-family="Helvetica,sans-Serif" font-size="10.00">_setLocalVerboseLevel()</text>
<text text-anchor="start" x="18.5" y="-234" font-family="Helvetica,sans-Serif" font-size="10.00">#</text>
<text text-anchor="start" x="31.5" y="-234" font-family="Helvetica,sans-Serif" font-size="10.00">_localVerboseLevel()</text>
<polygon fill="#666666" stroke="#666666" points="14.5,-454 14.5,-454 154.5,-454 154.5,-454 14.5,-454"/>
<polygon fill="#666666" stroke="#666666" points="14.5,-424 14.5,-424 29.5,-424 29.5,-424 14.5,-424"/>
<polygon fill="#666666" stroke="#666666" points="29.5,-424 29.5,-424 154.5,-424 154.5,-424 29.5,-424"/>
<polygon fill="none" stroke="#666666" points="14.5,-227 14.5,-471 154.5,-471 154.5,-227 14.5,-227"/>
</a>
</g>
</g>
<!-- Node2&#45;&gt;Node1 -->
<g id="edge1_Node000001_Node000002" class="edge">
<title>Node2&#45;&gt;Node1</title>
<g id="a_edge1_Node000001_Node000002"><a xlink:title=" ">
<path fill="none" stroke="#63b8ff" d="M84.5,-216.6C84.5,-208.02 84.5,-199.49 84.5,-191.14"/>
<polygon fill="none" stroke="#63b8ff" points="81,-216.67 84.5,-226.67 88,-216.67 81,-216.67"/>
</a>
</g>
</g>
</g>
</svg>

<g id="navigator" transform="translate(0 0)" fill="#404254">
  <rect fill="#f2f5e9" fill-opacity="0.5" stroke="#606060" stroke-width=".5" x="0" y="0" width="60" height="60"/>
  <use id="zoomplus" xlink:href="#zoomPlus" x="17" y="9" onmousedown="handleZoom(evt,'in')"/>
  <use id="zoomminus" xlink:href="#zoomMin" x="42" y="9" onmousedown="handleZoom(evt,'out')"/>
  <use id="reset" xlink:href="#resetDef" x="30" y="36" onmousedown="handleReset()"/>
   <use id="arrowup" xlink:href="#arrowUp" x="0" y="0" onmousedown="handlePan(0,-1)"/>
  <use id="arrowright" xlink:href="#arrowRight" x="0" y="0" onmousedown="handlePan(1,0)"/>
  <use id="arrowdown" xlink:href="#arrowDown" x="0" y="0" onmousedown="handlePan(0,1)"/>
  <use id="arrowleft" xlink:href="#arrowLeft" x="0" y="0" onmousedown="handlePan(-1,0)"/>
</g>
<svg viewBox="0 0 15 15" width="100%" height="30px" preserveAspectRatio="xMaxYMin meet">
 <g id="arrow_out" transform="scale(0.3 0.3)">
  <a xlink:href="classArcane_1_1VariableSynchronizerComputeList__inherit__graph_org.svg" target="_base">
   <rect id="button" ry="5" rx="5" y="6" x="6" height="38" width="38"
        fill="#f2f5e9" fill-opacity="0.5" stroke="#606060" stroke-width="1.0"/>
   <path id="arrow"
     d="M 11.500037,31.436501 C 11.940474,20.09759 22.043105,11.32322 32.158766,21.979434 L 37.068811,17.246167 C 37.068811,17.246167 37.088388,32 37.088388,32 L 22.160133,31.978069 C 22.160133,31.978069 26.997745,27.140456 26.997745,27.140456 C 18.528582,18.264221 13.291696,25.230495 11.500037,31.436501 z"
     style="fill:#404040;"/>
  </a>
 </g>
</svg>

<style type='text/css'>
<![CDATA[
[data-mouse-over-selected='false'] { opacity: 0.7; }
[data-mouse-over-selected='true']  { opacity: 1.0; }
]]>
</style>
<script type="application/ecmascript"><![CDATA[
document.addEventListener('DOMContentLoaded', (event) => {
  highlightEdges();
  highlightAdjacentNodes();
});
]]></script>
</svg>
