<?xml version="1.0" encoding="UTF-8" standalone="no"?>
<!DOCTYPE svg PUBLIC "-//W3C//DTD SVG 1.1//EN"
 "http://www.w3.org/Graphics/SVG/1.1/DTD/svg11.dtd">
<!-- Generated by graphviz version 2.43.0 (0)
 -->
<!-- Title: ArcaneTest::CartesianMeshTesterModule::_testGridPartitioning Pages: 1 -->
<!--zoomable 742 -->

<svg id="main" version="1.1" xmlns="http://www.w3.org/2000/svg" xmlns:xlink="http://www.w3.org/1999/xlink" xml:space="preserve" onload="init(evt)">

<style type="text/css"><![CDATA[
.node, .edge {opacity: 0.7;}
.node.selected, .edge.selected {opacity: 1;}
.edge:hover path { stroke: red; }
.edge:hover polygon { stroke: red; fill: red; }
]]></style>

<defs>
  <circle id="rim" cx="0" cy="0" r="7"/>
  <circle id="rim2" cx="0" cy="0" r="3.5"/>
  <g id="zoomPlus">
    <use xlink:href="#rim" fill="#404040"><set attributeName="fill" to="#808080" begin="zoomplus.mouseover" end="zoomplus.mouseout"/></use>
    <path d="M-4,0h8M0,-4v8" fill="none" stroke="white" stroke-width="1.5" pointer-events="none"/>
  </g>
  <g id="zoomMin">
    <use xlink:href="#rim" fill="#404040"><set attributeName="fill" to="#808080" begin="zoomminus.mouseover" end="zoomminus.mouseout"/></use>
    <path d="M-4,0h8" fill="none" stroke="white" stroke-width="1.5" pointer-events="none"/>
  </g>
  <g id="arrowUp" transform="translate(30 24)">
    <use xlink:href="#rim"/>
    <path pointer-events="none" fill="none" stroke="white" stroke-width="1.5" d="M0,-3.0v7 M-2.5,-0.5L0,-3.0L2.5,-0.5"/>
  </g>
  <g id="arrowRight" transform="rotate(90) translate(36 -43)">
    <use xlink:href="#rim"/>
    <path pointer-events="none" fill="none" stroke="white" stroke-width="1.5" d="M0,-3.0v7 M-2.5,-0.5L0,-3.0L2.5,-0.5"/>
  </g>
  <g id="arrowDown" transform="rotate(180) translate(-30 -48)">
    <use xlink:href="#rim"/>
    <path pointer-events="none" fill="none" stroke="white" stroke-width="1.5" d="M0,-3.0v7 M-2.5,-0.5L0,-3.0L2.5,-0.5"/>
  </g>
  <g id="arrowLeft" transform="rotate(270) translate(-36 17)">
    <use xlink:href="#rim"/>
    <path pointer-events="none" fill="none" stroke="white" stroke-width="1.5" d="M0,-3.0v7 M-2.5,-0.5L0,-3.0L2.5,-0.5"/>
  </g>
  <g id="resetDef">
    <use xlink:href="#rim2" fill="#404040"><set attributeName="fill" to="#808080" begin="reset.mouseover" end="reset.mouseout"/></use>
  </g>
</defs>
<script type="application/ecmascript">
var viewWidth = 578;
var viewHeight = 742;
var sectionId = 'dynsection-3';
</script>
<script type="application/ecmascript" xlink:href="../../svg.min.js"/>
<svg id="graph" class="graph">
<g id="viewport">
<title>ArcaneTest::CartesianMeshTesterModule::_testGridPartitioning</title>
<!-- Node1 -->
<g id="Node000001" class="node">
<title>Node1</title>
<g id="a_Node000001"><a xlink:title=" ">
<polygon fill="#999999" stroke="#666666" points="188,-400 0,-400 0,-370 188,-370 188,-400"/>
<text text-anchor="start" x="8" y="-388" font-family="Helvetica,sans-Serif" font-size="10.00">ArcaneTest::CartesianMesh</text>
<text text-anchor="middle" x="94" y="-377" font-family="Helvetica,sans-Serif" font-size="10.00">TesterModule::_testGridPartitioning</text>
</a>
</g>
</g>
<!-- Node2 -->
<g id="Node000002" class="node">
<title>Node2</title>
<g id="a_Node000002"><a xlink:href="../../d8/d13/classArcane_1_1IGridMeshPartitioner.html#ab3153014439698a55b364d7e22244a35" target="_top" xlink:title="Applique le repartitionnement sur le maillage mesh.">
<polygon fill="white" stroke="#666666" points="391.5,-734 235.5,-734 235.5,-704 391.5,-704 391.5,-734"/>
<text text-anchor="start" x="243.5" y="-722" font-family="Helvetica,sans-Serif" font-size="10.00">Arcane::IGridMeshPartitioner</text>
<text text-anchor="middle" x="313.5" y="-711" font-family="Helvetica,sans-Serif" font-size="10.00">::applyMeshPartitioning</text>
</a>
</g>
</g>
<!-- Node1&#45;&gt;Node2 -->
<g id="edge1_Node000001_Node000002" class="edge">
<title>Node1&#45;&gt;Node2</title>
<g id="a_edge1_Node000001_Node000002"><a xlink:title=" ">
<path fill="none" stroke="#63b8ff" d="M96.66,-400.29C102.97,-450.61 130.05,-612.49 224,-695 225.36,-696.19 226.77,-697.32 228.22,-698.4"/>
<polygon fill="#63b8ff" stroke="#63b8ff" points="226.7,-701.58 237.02,-703.98 230.45,-695.67 226.7,-701.58"/>
</a>
</g>
</g>
<!-- Node3 -->
<g id="Node000003" class="node">
<title>Node3</title>
<g id="a_Node000003"><a xlink:href="../../d1/d62/classArcane_1_1ICartesianMesh.html#a21dfa9eb71d14501403b7b8e3ebd6d06" target="_top" xlink:title="Liste des mailles dans la direction dir.">
<polygon fill="white" stroke="#666666" points="379.5,-686 247.5,-686 247.5,-656 379.5,-656 379.5,-686"/>
<text text-anchor="start" x="255.5" y="-674" font-family="Helvetica,sans-Serif" font-size="10.00">Arcane::ICartesianMesh</text>
<text text-anchor="middle" x="313.5" y="-663" font-family="Helvetica,sans-Serif" font-size="10.00">::cellDirection</text>
</a>
</g>
</g>
<!-- Node1&#45;&gt;Node3 -->
<g id="edge2_Node000001_Node000003" class="edge">
<title>Node1&#45;&gt;Node3</title>
<g id="a_edge2_Node000001_Node000003"><a xlink:title=" ">
<path fill="none" stroke="#63b8ff" d="M97.9,-400.14C107.34,-445.1 141.43,-578.98 224,-647 228.3,-650.54 233.08,-653.57 238.13,-656.14"/>
<polygon fill="#63b8ff" stroke="#63b8ff" points="236.89,-659.43 247.45,-660.32 239.76,-653.04 236.89,-659.43"/>
</a>
</g>
</g>
<!-- Node4 -->
<g id="Node000004" class="node">
<title>Node4</title>
<g id="a_Node000004"><a xlink:href="../../dc/d5a/classArcane_1_1IParallelMng.html#a26fc7494a02a7370d3be787fcc742b04" target="_top" xlink:title="Rang de cette instance dans le communicateur.">
<polygon fill="white" stroke="#666666" points="371.5,-638 255.5,-638 255.5,-608 371.5,-608 371.5,-638"/>
<text text-anchor="start" x="263.5" y="-626" font-family="Helvetica,sans-Serif" font-size="10.00">Arcane::IParallelMng</text>
<text text-anchor="middle" x="313.5" y="-615" font-family="Helvetica,sans-Serif" font-size="10.00">::commRank</text>
</a>
</g>
</g>
<!-- Node1&#45;&gt;Node4 -->
<g id="edge3_Node000001_Node000004" class="edge">
<title>Node1&#45;&gt;Node4</title>
<g id="a_edge3_Node000001_Node000004"><a xlink:title=" ">
<path fill="none" stroke="#63b8ff" d="M99.68,-400.14C112.61,-439.4 152.67,-545.16 224,-599 230.5,-603.91 237.95,-607.81 245.69,-610.92"/>
<polygon fill="#63b8ff" stroke="#63b8ff" points="244.65,-614.27 255.24,-614.33 247,-607.67 244.65,-614.27"/>
</a>
</g>
</g>
<!-- Node5 -->
<g id="Node000005" class="node">
<title>Node5</title>
<g id="a_Node000005"><a xlink:href="../../d6/d63/classArcane_1_1ServiceBuilder.html#a4e1d21864d9f6890f8dc6435bb7005b3" target="_top" xlink:title="Créé une instance implémentant l&#39;interface InterfaceType.">
<polygon fill="white" stroke="#666666" points="377,-590 250,-590 250,-560 377,-560 377,-590"/>
<text text-anchor="start" x="258" y="-578" font-family="Helvetica,sans-Serif" font-size="10.00">Arcane::ServiceBuilder</text>
<text text-anchor="middle" x="313.5" y="-567" font-family="Helvetica,sans-Serif" font-size="10.00">::createReference</text>
</a>
</g>
</g>
<!-- Node1&#45;&gt;Node5 -->
<g id="edge4_Node000001_Node000005" class="edge">
<title>Node1&#45;&gt;Node5</title>
<g id="a_edge4_Node000001_Node000005"><a xlink:title=" ">
<path fill="none" stroke="#63b8ff" d="M102.35,-400.04C119.13,-432.76 163.55,-510.74 224,-551 229.01,-554.34 234.47,-557.21 240.13,-559.68"/>
<polygon fill="#63b8ff" stroke="#63b8ff" points="239.24,-563.09 249.82,-563.49 241.79,-556.58 239.24,-563.09"/>
</a>
</g>
</g>
<!-- Node6 -->
<g id="Node000006" class="node">
<title>Node6</title>
<g id="a_Node000006"><a xlink:href="../../d9/dcd/group__GroupMathUtils.html#ga1fdb520cf182e9f868193f653daf3e2f" target="_top" xlink:title="Retourne le maximum de trois éléments.">
<polygon fill="white" stroke="#666666" points="368.5,-541.5 258.5,-541.5 258.5,-522.5 368.5,-522.5 368.5,-541.5"/>
<text text-anchor="middle" x="313.5" y="-529.5" font-family="Helvetica,sans-Serif" font-size="10.00">Arcane::math::max</text>
</a>
</g>
</g>
<!-- Node1&#45;&gt;Node6 -->
<g id="edge5_Node000001_Node000006" class="edge">
<title>Node1&#45;&gt;Node6</title>
<g id="a_edge5_Node000001_Node000006"><a xlink:title=" ">
<path fill="none" stroke="#63b8ff" d="M105.48,-400.01C125.29,-427.17 171.02,-484.3 224,-513 231.63,-517.13 240.09,-520.37 248.66,-522.9"/>
<polygon fill="#63b8ff" stroke="#63b8ff" points="247.78,-526.29 258.34,-525.47 249.57,-519.52 247.78,-526.29"/>
</a>
</g>
</g>
<!-- Node7 -->
<g id="Node000007" class="node">
<title>Node7</title>
<g id="a_Node000007"><a xlink:href="../../d1/d62/classArcane_1_1ICartesianMesh.html#a4888d91c64d191fd53363bb29bc1e71d" target="_top" xlink:title="Maillage associé à ce maillage cartésien.">
<polygon fill="white" stroke="#666666" points="379.5,-504 247.5,-504 247.5,-474 379.5,-474 379.5,-504"/>
<text text-anchor="start" x="255.5" y="-492" font-family="Helvetica,sans-Serif" font-size="10.00">Arcane::ICartesianMesh</text>
<text text-anchor="middle" x="313.5" y="-481" font-family="Helvetica,sans-Serif" font-size="10.00">::mesh</text>
</a>
</g>
</g>
<!-- Node1&#45;&gt;Node7 -->
<g id="edge6_Node000001_Node000007" class="edge">
<title>Node1&#45;&gt;Node7</title>
<g id="a_edge6_Node000001_Node000007"><a xlink:title=" ">
<path fill="none" stroke="#63b8ff" d="M115.42,-400.29C140.02,-418.07 183.15,-447.25 224,-465 228.63,-467.01 233.46,-468.89 238.39,-470.64"/>
<polygon fill="#63b8ff" stroke="#63b8ff" points="237.34,-473.98 247.93,-473.85 239.57,-467.35 237.34,-473.98"/>
</a>
</g>
</g>
<!-- Node8 -->
<g id="Node000008" class="node">
<title>Node8</title>
<g id="a_Node000008"><a xlink:href="../../d9/dcd/group__GroupMathUtils.html#ga1a837fe3ed2b3189ec13fa1d8e851fed" target="_top" xlink:title="Retourne le minimum de deux Real2.">
<polygon fill="white" stroke="#666666" points="367,-437.5 260,-437.5 260,-418.5 367,-418.5 367,-437.5"/>
<text text-anchor="middle" x="313.5" y="-425.5" font-family="Helvetica,sans-Serif" font-size="10.00">Arcane::math::min</text>
</a>
</g>
</g>
<!-- Node1&#45;&gt;Node8 -->
<g id="edge7_Node000001_Node000008" class="edge">
<title>Node1&#45;&gt;Node8</title>
<g id="a_edge7_Node000001_Node000008"><a xlink:title=" ">
<path fill="none" stroke="#63b8ff" d="M171.07,-400.04C198.43,-405.45 228.84,-411.46 254.42,-416.52"/>
<polygon fill="#63b8ff" stroke="#63b8ff" points="253.85,-419.97 264.34,-418.48 255.2,-413.1 253.85,-419.97"/>
</a>
</g>
</g>
<!-- Node9 -->
<g id="Node000009" class="node">
<title>Node9</title>
<g id="a_Node000009"><a xlink:href="../../d4/d55/classArcane_1_1ItemWithNodes.html#ac6be927b92f077cf8b023d3b8cc8c2e8" target="_top" xlink:title="Liste des noeuds de l&#39;entité">
<polygon fill="white" stroke="#666666" points="379.5,-400 247.5,-400 247.5,-370 379.5,-370 379.5,-400"/>
<text text-anchor="start" x="255.5" y="-388" font-family="Helvetica,sans-Serif" font-size="10.00">Arcane::ItemWithNodes</text>
<text text-anchor="middle" x="313.5" y="-377" font-family="Helvetica,sans-Serif" font-size="10.00">::nodes</text>
</a>
</g>
</g>
<!-- Node1&#45;&gt;Node9 -->
<g id="edge9_Node000001_Node000009" class="edge">
<title>Node1&#45;&gt;Node9</title>
<g id="a_edge9_Node000001_Node000009"><a xlink:title=" ">
<path fill="none" stroke="#63b8ff" d="M188.19,-385C204.55,-385 221.39,-385 237.19,-385"/>
<polygon fill="#63b8ff" stroke="#63b8ff" points="237.41,-388.5 247.41,-385 237.41,-381.5 237.41,-388.5"/>
</a>
</g>
</g>
<!-- Node10 -->
<g id="Node000010" class="node">
<title>Node10</title>
<g id="a_Node000010"><a xlink:href="../../d0/d9f/classArcane_1_1IMesh.html#a09c0ba5f9c8e90618cc48d7f79e1c640" target="_top" xlink:title="Coordonnées des noeuds.">
<polygon fill="white" stroke="#666666" points="403,-333.5 224,-333.5 224,-314.5 403,-314.5 403,-333.5"/>
<text text-anchor="middle" x="313.5" y="-321.5" font-family="Helvetica,sans-Serif" font-size="10.00">Arcane::IMesh::nodesCoordinates</text>
</a>
</g>
</g>
<!-- Node1&#45;&gt;Node10 -->
<g id="edge10_Node000001_Node000010" class="edge">
<title>Node1&#45;&gt;Node10</title>
<g id="a_edge10_Node000001_Node000010"><a xlink:title=" ">
<path fill="none" stroke="#63b8ff" d="M148.49,-370C185.46,-359.63 234.05,-346 268.72,-336.28"/>
<polygon fill="#63b8ff" stroke="#63b8ff" points="269.88,-339.59 278.56,-333.52 267.99,-332.85 269.88,-339.59"/>
</a>
</g>
</g>
<!-- Node11 -->
<g id="Node000011" class="node">
<title>Node11</title>
<g id="a_Node000011"><a xlink:href="../../de/d4a/classArcane_1_1IMeshBase.html#a503a735ee9e9fdbf3864d2f08bea519b" target="_top" xlink:title="Groupe de toutes les mailles propres au domaine.">
<polygon fill="white" stroke="#666666" points="371.5,-296 255.5,-296 255.5,-266 371.5,-266 371.5,-296"/>
<text text-anchor="start" x="263.5" y="-284" font-family="Helvetica,sans-Serif" font-size="10.00">Arcane::IMeshBase::</text>
<text text-anchor="middle" x="313.5" y="-273" font-family="Helvetica,sans-Serif" font-size="10.00">ownCells</text>
</a>
</g>
</g>
<!-- Node1&#45;&gt;Node11 -->
<g id="edge12_Node000001_Node000011" class="edge">
<title>Node1&#45;&gt;Node11</title>
<g id="a_edge12_Node000001_Node000011"><a xlink:title=" ">
<path fill="none" stroke="#63b8ff" d="M115.48,-369.99C140.14,-352.52 183.34,-323.79 224,-306 230.74,-303.05 237.92,-300.36 245.16,-297.92"/>
<polygon fill="#63b8ff" stroke="#63b8ff" points="246.58,-301.13 255.04,-294.75 244.45,-294.47 246.58,-301.13"/>
</a>
</g>
</g>
<!-- Node12 -->
<g id="Node000012" class="node">
<title>Node12</title>
<g id="a_Node000012"><a xlink:href="../../d0/d9f/classArcane_1_1IMesh.html#a0f11be8ad649d81fdbcdb71a8446c5a2" target="_top" xlink:title="Gestionnaire de parallèlisme.">
<polygon fill="white" stroke="#666666" points="388,-229.5 239,-229.5 239,-210.5 388,-210.5 388,-229.5"/>
<text text-anchor="middle" x="313.5" y="-217.5" font-family="Helvetica,sans-Serif" font-size="10.00">Arcane::IMesh::parallelMng</text>
</a>
</g>
</g>
<!-- Node1&#45;&gt;Node12 -->
<g id="edge13_Node000001_Node000012" class="edge">
<title>Node1&#45;&gt;Node12</title>
<g id="a_edge13_Node000001_Node000012"><a xlink:title=" ">
<path fill="none" stroke="#63b8ff" d="M107.03,-369.68C128.22,-343.53 174.67,-289.94 224,-257 238.68,-247.2 256.38,-239.17 272.07,-233.13"/>
<polygon fill="#63b8ff" stroke="#63b8ff" points="273.38,-236.37 281.55,-229.62 270.95,-229.81 273.38,-236.37"/>
</a>
</g>
</g>
<!-- Node13 -->
<g id="Node000013" class="node">
<title>Node13</title>
<g id="a_Node000013"><a xlink:href="../../d5/de9/classArcane_1_1MeshReaderMng.html#a16f4a3e9ff3c366857e59a2ec68e026a" target="_top" xlink:title="Lit le maillage dont le nom de fichier est file_name.">
<polygon fill="white" stroke="#666666" points="382.5,-174 244.5,-174 244.5,-144 382.5,-144 382.5,-174"/>
<text text-anchor="start" x="252.5" y="-162" font-family="Helvetica,sans-Serif" font-size="10.00">Arcane::MeshReaderMng</text>
<text text-anchor="middle" x="313.5" y="-151" font-family="Helvetica,sans-Serif" font-size="10.00">::readMesh</text>
</a>
</g>
</g>
<!-- Node1&#45;&gt;Node13 -->
<g id="edge15_Node000001_Node000013" class="edge">
<title>Node1&#45;&gt;Node13</title>
<g id="a_edge15_Node000001_Node000013"><a xlink:title=" ">
<path fill="none" stroke="#63b8ff" d="M102.31,-369.79C119.35,-335.72 164.77,-252.35 224,-202 235,-192.65 248.38,-184.79 261.36,-178.45"/>
<polygon fill="#63b8ff" stroke="#63b8ff" points="263.12,-181.5 270.72,-174.11 260.17,-175.15 263.12,-181.5"/>
</a>
</g>
</g>
<!-- Node16 -->
<g id="Node000016" class="node">
<title>Node16</title>
<g id="a_Node000016"><a xlink:href="../../d8/d13/classArcane_1_1IGridMeshPartitioner.html#a36578c618b276045a8bf09da092eae2f" target="_top" xlink:title="Positionne la bounding box de notre sous&#45;domaine.">
<polygon fill="white" stroke="#666666" points="391.5,-126 235.5,-126 235.5,-96 391.5,-96 391.5,-126"/>
<text text-anchor="start" x="243.5" y="-114" font-family="Helvetica,sans-Serif" font-size="10.00">Arcane::IGridMeshPartitioner</text>
<text text-anchor="middle" x="313.5" y="-103" font-family="Helvetica,sans-Serif" font-size="10.00">::setBoundingBox</text>
</a>
</g>
</g>
<!-- Node1&#45;&gt;Node16 -->
<g id="edge20_Node000001_Node000016" class="edge">
<title>Node1&#45;&gt;Node16</title>
<g id="a_edge20_Node000001_Node000016"><a xlink:title=" ">
<path fill="none" stroke="#63b8ff" d="M98.27,-369.93C108.52,-326.39 144.22,-199.46 224,-135 225.58,-133.72 227.22,-132.52 228.91,-131.37"/>
<polygon fill="#63b8ff" stroke="#63b8ff" points="230.92,-134.25 237.77,-126.17 227.37,-128.22 230.92,-134.25"/>
</a>
</g>
</g>
<!-- Node17 -->
<g id="Node000017" class="node">
<title>Node17</title>
<g id="a_Node000017"><a xlink:href="../../d8/d13/classArcane_1_1IGridMeshPartitioner.html#ac7ef50c5cbb3d6e2deded917a879f778" target="_top" xlink:title="Indice (i,j,k) de la partie.">
<polygon fill="white" stroke="#666666" points="391.5,-78 235.5,-78 235.5,-48 391.5,-48 391.5,-78"/>
<text text-anchor="start" x="243.5" y="-66" font-family="Helvetica,sans-Serif" font-size="10.00">Arcane::IGridMeshPartitioner</text>
<text text-anchor="middle" x="313.5" y="-55" font-family="Helvetica,sans-Serif" font-size="10.00">::setPartIndex</text>
</a>
</g>
</g>
<!-- Node1&#45;&gt;Node17 -->
<g id="edge21_Node000001_Node000017" class="edge">
<title>Node1&#45;&gt;Node17</title>
<g id="a_edge21_Node000001_Node000017"><a xlink:title=" ">
<path fill="none" stroke="#63b8ff" d="M96.91,-369.94C103.93,-321.15 132.79,-165.96 224,-87 225.37,-85.82 226.78,-84.69 228.25,-83.62"/>
<polygon fill="#63b8ff" stroke="#63b8ff" points="230.47,-86.36 237.07,-78.08 226.74,-80.43 230.47,-86.36"/>
</a>
</g>
</g>
<!-- Node18 -->
<g id="Node000018" class="node">
<title>Node18</title>
<g id="a_Node000018"><a xlink:href="../../da/d4d/classArcane_1_1CellDirectionMng.html#ac4e1d662b6eee2f2138ede84d8230c45" target="_top" xlink:title="Offset dans cette direction du sous&#45;domaine.">
<polygon fill="white" stroke="#666666" points="383.5,-30 243.5,-30 243.5,0 383.5,0 383.5,-30"/>
<text text-anchor="start" x="251.5" y="-18" font-family="Helvetica,sans-Serif" font-size="10.00">Arcane::CellDirectionMng</text>
<text text-anchor="middle" x="313.5" y="-7" font-family="Helvetica,sans-Serif" font-size="10.00">::subDomainOffset</text>
</a>
</g>
</g>
<!-- Node1&#45;&gt;Node18 -->
<g id="edge22_Node000001_Node000018" class="edge">
<title>Node1&#45;&gt;Node18</title>
<g id="a_edge22_Node000001_Node000018"><a xlink:title=" ">
<path fill="none" stroke="#63b8ff" d="M95.91,-369.88C99.99,-316.17 121.21,-132.74 224,-39 227.18,-36.1 230.67,-33.55 234.37,-31.3"/>
<polygon fill="#63b8ff" stroke="#63b8ff" points="236.12,-34.34 243.35,-26.59 232.87,-28.14 236.12,-34.34"/>
</a>
</g>
</g>
<!-- Node8&#45;&gt;Node8 -->
<g id="edge8_Node000008_Node000008" class="edge">
<title>Node8&#45;&gt;Node8</title>
<g id="a_edge8_Node000008_Node000008"><a xlink:title=" ">
<path fill="none" stroke="#63b8ff" d="M284.22,-437.58C269.97,-446.23 279.73,-455.5 313.5,-455.5 336.72,-455.5 348.59,-451.12 349.11,-445.57"/>
<polygon fill="#63b8ff" stroke="#63b8ff" points="351.73,-443.25 342.78,-437.58 346.25,-447.6 351.73,-443.25"/>
</a>
</g>
</g>
<!-- Node10&#45;&gt;Node10 -->
<g id="edge11_Node000010_Node000010" class="edge">
<title>Node10&#45;&gt;Node10</title>
<g id="a_edge11_Node000010_Node000010"><a xlink:title=" ">
<path fill="none" stroke="#63b8ff" d="M284.22,-333.58C269.97,-342.23 279.73,-351.5 313.5,-351.5 336.72,-351.5 348.59,-347.12 349.11,-341.57"/>
<polygon fill="#63b8ff" stroke="#63b8ff" points="351.73,-339.25 342.78,-333.58 346.25,-343.6 351.73,-339.25"/>
</a>
</g>
</g>
<!-- Node12&#45;&gt;Node12 -->
<g id="edge14_Node000012_Node000012" class="edge">
<title>Node12&#45;&gt;Node12</title>
<g id="a_edge14_Node000012_Node000012"><a xlink:title=" ">
<path fill="none" stroke="#63b8ff" d="M284.22,-229.58C269.97,-238.23 279.73,-247.5 313.5,-247.5 336.72,-247.5 348.59,-243.12 349.11,-237.57"/>
<polygon fill="#63b8ff" stroke="#63b8ff" points="351.73,-235.25 342.78,-229.58 346.25,-239.6 351.73,-235.25"/>
</a>
</g>
</g>
<!-- Node13&#45;&gt;Node13 -->
<g id="edge17_Node000013_Node000013" class="edge">
<title>Node13&#45;&gt;Node13</title>
<g id="a_edge17_Node000013_Node000013"><a xlink:title=" ">
<path fill="none" stroke="#63b8ff" d="M280.1,-174.28C272.68,-183.41 283.81,-192 313.5,-192 331.13,-192 342.21,-188.97 346.76,-184.6"/>
<polygon fill="#63b8ff" stroke="#63b8ff" points="350.26,-184.32 346.9,-174.28 343.26,-184.23 350.26,-184.32"/>
</a>
</g>
</g>
<!-- Node14 -->
<g id="Node000014" class="node">
<title>Node14</title>
<g id="a_Node000014"><a xlink:href="../../d9/d1e/classArcane_1_1ISubDomain.html#a5fc9b8fe10a6517cd8143dcb07c1ffb7" target="_top" xlink:title="Retourne le gestionnaire de parallélisme.">
<polygon fill="white" stroke="#666666" points="562.5,-207 446.5,-207 446.5,-177 562.5,-177 562.5,-207"/>
<text text-anchor="start" x="454.5" y="-195" font-family="Helvetica,sans-Serif" font-size="10.00">Arcane::ISubDomain</text>
<text text-anchor="middle" x="504.5" y="-184" font-family="Helvetica,sans-Serif" font-size="10.00">::parallelMng</text>
</a>
</g>
</g>
<!-- Node13&#45;&gt;Node14 -->
<g id="edge16_Node000013_Node000014" class="edge">
<title>Node13&#45;&gt;Node14</title>
<g id="a_edge16_Node000013_Node000014"><a xlink:title=" ">
<path fill="none" stroke="#63b8ff" d="M382.73,-170.91C400.15,-173.95 418.85,-177.22 436.22,-180.25"/>
<polygon fill="#63b8ff" stroke="#63b8ff" points="435.81,-183.73 446.26,-182.01 437.02,-176.84 435.81,-183.73"/>
</a>
</g>
</g>
<!-- Node15 -->
<g id="Node000015" class="node">
<title>Node15</title>
<g id="a_Node000015"><a xlink:href="../../dc/d5a/classArcane_1_1IParallelMng.html#a30adcf4131f48bda16c944f591b7c8c8" target="_top" xlink:title="Retourne un gestionnaire de parallélisme séquentiel.">
<polygon fill="white" stroke="#666666" points="570,-141 439,-141 439,-111 570,-111 570,-141"/>
<text text-anchor="start" x="447" y="-129" font-family="Helvetica,sans-Serif" font-size="10.00">Arcane::IParallelMng</text>
<text text-anchor="middle" x="504.5" y="-118" font-family="Helvetica,sans-Serif" font-size="10.00">::sequentialParallelMng</text>
</a>
</g>
</g>
<!-- Node13&#45;&gt;Node15 -->
<g id="edge18_Node000013_Node000015" class="edge">
<title>Node13&#45;&gt;Node15</title>
<g id="a_edge18_Node000013_Node000015"><a xlink:title=" ">
<path fill="none" stroke="#63b8ff" d="M382.73,-147.09C397.74,-144.47 413.7,-141.68 428.94,-139.02"/>
<polygon fill="#63b8ff" stroke="#63b8ff" points="429.59,-142.46 438.84,-137.29 428.38,-135.56 429.59,-142.46"/>
</a>
</g>
</g>
<!-- Node15&#45;&gt;Node15 -->
<g id="edge19_Node000015_Node000015" class="edge">
<title>Node15&#45;&gt;Node15</title>
<g id="a_edge19_Node000015_Node000015"><a xlink:title=" ">
<path fill="none" stroke="#63b8ff" d="M471.1,-141.28C463.68,-150.41 474.81,-159 504.5,-159 522.13,-159 533.21,-155.97 537.76,-151.6"/>
<polygon fill="#63b8ff" stroke="#63b8ff" points="541.26,-151.32 537.9,-141.28 534.26,-151.23 541.26,-151.32"/>
</a>
</g>
</g>
</g>
</svg>

<g id="navigator" transform="translate(0 0)" fill="#404254">
  <rect fill="#f2f5e9" fill-opacity="0.5" stroke="#606060" stroke-width=".5" x="0" y="0" width="60" height="60"/>
  <use id="zoomplus" xlink:href="#zoomPlus" x="17" y="9" onmousedown="handleZoom(evt,'in')"/>
  <use id="zoomminus" xlink:href="#zoomMin" x="42" y="9" onmousedown="handleZoom(evt,'out')"/>
  <use id="reset" xlink:href="#resetDef" x="30" y="36" onmousedown="handleReset()"/>
   <use id="arrowup" xlink:href="#arrowUp" x="0" y="0" onmousedown="handlePan(0,-1)"/>
  <use id="arrowright" xlink:href="#arrowRight" x="0" y="0" onmousedown="handlePan(1,0)"/>
  <use id="arrowdown" xlink:href="#arrowDown" x="0" y="0" onmousedown="handlePan(0,1)"/>
  <use id="arrowleft" xlink:href="#arrowLeft" x="0" y="0" onmousedown="handlePan(-1,0)"/>
</g>
<svg viewBox="0 0 15 15" width="100%" height="30px" preserveAspectRatio="xMaxYMin meet">
 <g id="arrow_out" transform="scale(0.3 0.3)">
  <a xlink:href="classArcaneTest_1_1CartesianMeshTesterModule_a255a457f9f9dd99b18bba6103f8c9668_cgraph_org.svg" target="_base">
   <rect id="button" ry="5" rx="5" y="6" x="6" height="38" width="38"
        fill="#f2f5e9" fill-opacity="0.5" stroke="#606060" stroke-width="1.0"/>
   <path id="arrow"
     d="M 11.500037,31.436501 C 11.940474,20.09759 22.043105,11.32322 32.158766,21.979434 L 37.068811,17.246167 C 37.068811,17.246167 37.088388,32 37.088388,32 L 22.160133,31.978069 C 22.160133,31.978069 26.997745,27.140456 26.997745,27.140456 C 18.528582,18.264221 13.291696,25.230495 11.500037,31.436501 z"
     style="fill:#404040;"/>
  </a>
 </g>
</svg>

<style type='text/css'>
<![CDATA[
[data-mouse-over-selected='false'] { opacity: 0.7; }
[data-mouse-over-selected='true']  { opacity: 1.0; }
]]>
</style>
<script type="application/ecmascript"><![CDATA[
document.addEventListener('DOMContentLoaded', (event) => {
  highlightEdges();
  highlightAdjacentNodes();
});
]]></script>
</svg>
