<?xml version="1.0" encoding="UTF-8" standalone="no"?>
<!DOCTYPE svg PUBLIC "-//W3C//DTD SVG 1.1//EN"
 "http://www.w3.org/Graphics/SVG/1.1/DTD/svg11.dtd">
<!-- Generated by graphviz version 2.43.0 (0)
 -->
<!-- Title: Arcane::MeshVariableArrayRefT&lt; ItemTypeT, DataTypeT &gt; Pages: 1 -->
<!--zoomable 1637 -->

<svg id="main" version="1.1" xmlns="http://www.w3.org/2000/svg" xmlns:xlink="http://www.w3.org/1999/xlink" xml:space="preserve" onload="init(evt)">

<style type="text/css"><![CDATA[
.node, .edge {opacity: 0.7;}
.node.selected, .edge.selected {opacity: 1;}
.edge:hover path { stroke: red; }
.edge:hover polygon { stroke: red; fill: red; }
]]></style>

<defs>
  <circle id="rim" cx="0" cy="0" r="7"/>
  <circle id="rim2" cx="0" cy="0" r="3.5"/>
  <g id="zoomPlus">
    <use xlink:href="#rim" fill="#404040"><set attributeName="fill" to="#808080" begin="zoomplus.mouseover" end="zoomplus.mouseout"/></use>
    <path d="M-4,0h8M0,-4v8" fill="none" stroke="white" stroke-width="1.5" pointer-events="none"/>
  </g>
  <g id="zoomMin">
    <use xlink:href="#rim" fill="#404040"><set attributeName="fill" to="#808080" begin="zoomminus.mouseover" end="zoomminus.mouseout"/></use>
    <path d="M-4,0h8" fill="none" stroke="white" stroke-width="1.5" pointer-events="none"/>
  </g>
  <g id="arrowUp" transform="translate(30 24)">
    <use xlink:href="#rim"/>
    <path pointer-events="none" fill="none" stroke="white" stroke-width="1.5" d="M0,-3.0v7 M-2.5,-0.5L0,-3.0L2.5,-0.5"/>
  </g>
  <g id="arrowRight" transform="rotate(90) translate(36 -43)">
    <use xlink:href="#rim"/>
    <path pointer-events="none" fill="none" stroke="white" stroke-width="1.5" d="M0,-3.0v7 M-2.5,-0.5L0,-3.0L2.5,-0.5"/>
  </g>
  <g id="arrowDown" transform="rotate(180) translate(-30 -48)">
    <use xlink:href="#rim"/>
    <path pointer-events="none" fill="none" stroke="white" stroke-width="1.5" d="M0,-3.0v7 M-2.5,-0.5L0,-3.0L2.5,-0.5"/>
  </g>
  <g id="arrowLeft" transform="rotate(270) translate(-36 17)">
    <use xlink:href="#rim"/>
    <path pointer-events="none" fill="none" stroke="white" stroke-width="1.5" d="M0,-3.0v7 M-2.5,-0.5L0,-3.0L2.5,-0.5"/>
  </g>
  <g id="resetDef">
    <use xlink:href="#rim2" fill="#404040"><set attributeName="fill" to="#808080" begin="reset.mouseover" end="reset.mouseout"/></use>
  </g>
</defs>
<script type="application/ecmascript">
var viewWidth = 172;
var viewHeight = 1637;
var sectionId = 'dynsection-0';
</script>
<script type="application/ecmascript" xlink:href="../../svg.min.js"/>
<svg id="graph" class="graph">
<g id="viewport">
<title>Arcane::MeshVariableArrayRefT&lt; ItemTypeT, DataTypeT &gt;</title>
<!-- Node1 -->
<g id="Node000001" class="node">
<title>Node1</title>
<g id="a_Node000001"><a xlink:title="Variable tableau sur un type d&#39;entité du maillage.">
<polygon fill="#999999" stroke="transparent" points="164,-255 0,-255 0,0 164,0 164,-255"/>
<text text-anchor="start" x="5" y="-242.5" font-family="Helvetica,sans-Serif" font-size="10.00">Arcane::MeshVariableArray</text>
<text text-anchor="start" x="5" y="-231.5" font-family="Helvetica,sans-Serif" font-size="10.00">RefT&lt; ItemTypeT, DataTypeT &gt;</text>
<text text-anchor="start" x="9" y="-216.5" font-family="Helvetica,sans-Serif" font-size="10.00">&#45;</text>
<text text-anchor="start" x="22" y="-216.5" font-family="Helvetica,sans-Serif" font-size="10.00">m_auto_registerer</text>
<text text-anchor="start" x="6.5" y="-201.5" font-family="Helvetica,sans-Serif" font-size="10.00">+</text>
<text text-anchor="start" x="22" y="-201.5" font-family="Helvetica,sans-Serif" font-size="10.00">MeshVariableArrayRefT()</text>
<text text-anchor="start" x="6.5" y="-186.5" font-family="Helvetica,sans-Serif" font-size="10.00">+</text>
<text text-anchor="start" x="22" y="-186.5" font-family="Helvetica,sans-Serif" font-size="10.00">MeshVariableArrayRefT()</text>
<text text-anchor="start" x="6.5" y="-171.5" font-family="Helvetica,sans-Serif" font-size="10.00">+</text>
<text text-anchor="start" x="22" y="-171.5" font-family="Helvetica,sans-Serif" font-size="10.00">MeshVariableArrayRefT()</text>
<text text-anchor="start" x="6.5" y="-156.5" font-family="Helvetica,sans-Serif" font-size="10.00">+</text>
<text text-anchor="start" x="22" y="-156.5" font-family="Helvetica,sans-Serif" font-size="10.00">refersTo()</text>
<text text-anchor="start" x="6.5" y="-141.5" font-family="Helvetica,sans-Serif" font-size="10.00">+</text>
<text text-anchor="start" x="22" y="-141.5" font-family="Helvetica,sans-Serif" font-size="10.00">operator=()</text>
<text text-anchor="start" x="6.5" y="-126.5" font-family="Helvetica,sans-Serif" font-size="10.00">+</text>
<text text-anchor="start" x="22" y="-126.5" font-family="Helvetica,sans-Serif" font-size="10.00">operator[]()</text>
<text text-anchor="start" x="6.5" y="-111.5" font-family="Helvetica,sans-Serif" font-size="10.00">+</text>
<text text-anchor="start" x="22" y="-111.5" font-family="Helvetica,sans-Serif" font-size="10.00">operator[]()</text>
<text text-anchor="start" x="6.5" y="-96.5" font-family="Helvetica,sans-Serif" font-size="10.00">+</text>
<text text-anchor="start" x="22" y="-96.5" font-family="Helvetica,sans-Serif" font-size="10.00">operator()()</text>
<text text-anchor="start" x="6.5" y="-81.5" font-family="Helvetica,sans-Serif" font-size="10.00">+</text>
<text text-anchor="start" x="22" y="-81.5" font-family="Helvetica,sans-Serif" font-size="10.00">operator()()</text>
<text text-anchor="start" x="6.5" y="-66.5" font-family="Helvetica,sans-Serif" font-size="10.00">+</text>
<text text-anchor="start" x="22" y="-66.5" font-family="Helvetica,sans-Serif" font-size="10.00">itemGroup()</text>
<text text-anchor="start" x="6.5" y="-51.5" font-family="Helvetica,sans-Serif" font-size="10.00">+</text>
<text text-anchor="start" x="22" y="-51.5" font-family="Helvetica,sans-Serif" font-size="10.00">swapValues()</text>
<text text-anchor="start" x="6.5" y="-36.5" font-family="Helvetica,sans-Serif" font-size="10.00">+</text>
<text text-anchor="start" x="22" y="-36.5" font-family="Helvetica,sans-Serif" font-size="10.00">_internalVariableTypeInfo()</text>
<text text-anchor="start" x="6.5" y="-21.5" font-family="Helvetica,sans-Serif" font-size="10.00">+</text>
<text text-anchor="start" x="22" y="-21.5" font-family="Helvetica,sans-Serif" font-size="10.00">_internalVariableInfo()</text>
<text text-anchor="start" x="9" y="-6.5" font-family="Helvetica,sans-Serif" font-size="10.00">&#45;</text>
<text text-anchor="start" x="22" y="-6.5" font-family="Helvetica,sans-Serif" font-size="10.00">_autoCreate()</text>
<polygon fill="#666666" stroke="#666666" points="0,-226.5 0,-226.5 164,-226.5 164,-226.5 0,-226.5"/>
<polygon fill="#666666" stroke="#666666" points="0,-211.5 0,-211.5 20,-211.5 20,-211.5 0,-211.5"/>
<polygon fill="#666666" stroke="#666666" points="20,-211.5 20,-211.5 164,-211.5 164,-211.5 20,-211.5"/>
<polygon fill="none" stroke="#666666" points="0,0 0,-255 164,-255 164,0 0,0"/>
</a>
</g>
</g>
<!-- Node2 -->
<g id="Node000002" class="node">
<title>Node2</title>
<g id="a_Node000002"><a xlink:href="../../d2/dbb/classArcane_1_1ItemVariableArrayRefT.html" target="_top" xlink:title="Variable tableau sur un type d&#39;entité du maillage.">
<polygon fill="white" stroke="transparent" points="158.5,-576 5.5,-576 5.5,-291 158.5,-291 158.5,-576"/>
<text text-anchor="start" x="18" y="-563.5" font-family="Helvetica,sans-Serif" font-size="10.00">Arcane::ItemVariableArray</text>
<text text-anchor="start" x="34" y="-552.5" font-family="Helvetica,sans-Serif" font-size="10.00">RefT&lt; DataTypeT &gt;</text>
<text text-anchor="start" x="80.5" y="-537.5" font-family="Helvetica,sans-Serif" font-size="10.00"> </text>
<text text-anchor="start" x="10" y="-522.5" font-family="Helvetica,sans-Serif" font-size="10.00">+</text>
<text text-anchor="start" x="23" y="-522.5" font-family="Helvetica,sans-Serif" font-size="10.00">ItemVariableArrayRefT()</text>
<text text-anchor="start" x="10" y="-507.5" font-family="Helvetica,sans-Serif" font-size="10.00">+</text>
<text text-anchor="start" x="23" y="-507.5" font-family="Helvetica,sans-Serif" font-size="10.00">ItemVariableArrayRefT()</text>
<text text-anchor="start" x="10" y="-492.5" font-family="Helvetica,sans-Serif" font-size="10.00">+</text>
<text text-anchor="start" x="23" y="-492.5" font-family="Helvetica,sans-Serif" font-size="10.00">ItemVariableArrayRefT()</text>
<text text-anchor="start" x="10" y="-477.5" font-family="Helvetica,sans-Serif" font-size="10.00">+</text>
<text text-anchor="start" x="23" y="-477.5" font-family="Helvetica,sans-Serif" font-size="10.00">operator[]()</text>
<text text-anchor="start" x="10" y="-462.5" font-family="Helvetica,sans-Serif" font-size="10.00">+</text>
<text text-anchor="start" x="23" y="-462.5" font-family="Helvetica,sans-Serif" font-size="10.00">operator[]()</text>
<text text-anchor="start" x="10" y="-447.5" font-family="Helvetica,sans-Serif" font-size="10.00">+</text>
<text text-anchor="start" x="23" y="-447.5" font-family="Helvetica,sans-Serif" font-size="10.00">operator()()</text>
<text text-anchor="start" x="10" y="-432.5" font-family="Helvetica,sans-Serif" font-size="10.00">+</text>
<text text-anchor="start" x="23" y="-432.5" font-family="Helvetica,sans-Serif" font-size="10.00">operator()()</text>
<text text-anchor="start" x="10" y="-417.5" font-family="Helvetica,sans-Serif" font-size="10.00">+</text>
<text text-anchor="start" x="23" y="-417.5" font-family="Helvetica,sans-Serif" font-size="10.00">copy()</text>
<text text-anchor="start" x="10" y="-402.5" font-family="Helvetica,sans-Serif" font-size="10.00">+</text>
<text text-anchor="start" x="23" y="-402.5" font-family="Helvetica,sans-Serif" font-size="10.00">copy()</text>
<text text-anchor="start" x="10" y="-387.5" font-family="Helvetica,sans-Serif" font-size="10.00">+</text>
<text text-anchor="start" x="23" y="-387.5" font-family="Helvetica,sans-Serif" font-size="10.00">copy()</text>
<text text-anchor="start" x="10" y="-372.5" font-family="Helvetica,sans-Serif" font-size="10.00">+</text>
<text text-anchor="start" x="23" y="-372.5" font-family="Helvetica,sans-Serif" font-size="10.00">fill()</text>
<text text-anchor="start" x="10" y="-357.5" font-family="Helvetica,sans-Serif" font-size="10.00">+</text>
<text text-anchor="start" x="23" y="-357.5" font-family="Helvetica,sans-Serif" font-size="10.00">fill()</text>
<text text-anchor="start" x="10" y="-342.5" font-family="Helvetica,sans-Serif" font-size="10.00">+</text>
<text text-anchor="start" x="23" y="-342.5" font-family="Helvetica,sans-Serif" font-size="10.00">fill()</text>
<text text-anchor="start" x="10" y="-327.5" font-family="Helvetica,sans-Serif" font-size="10.00">+</text>
<text text-anchor="start" x="23" y="-327.5" font-family="Helvetica,sans-Serif" font-size="10.00">_internalVariableInfo()</text>
<text text-anchor="start" x="10" y="-312.5" font-family="Helvetica,sans-Serif" font-size="10.00">+</text>
<text text-anchor="start" x="23" y="-312.5" font-family="Helvetica,sans-Serif" font-size="10.00">_internalVariableTypeInfo()</text>
<text text-anchor="start" x="10" y="-297.5" font-family="Helvetica,sans-Serif" font-size="10.00">#</text>
<text text-anchor="start" x="23" y="-297.5" font-family="Helvetica,sans-Serif" font-size="10.00">operator=()</text>
<polygon fill="#666666" stroke="#666666" points="6,-547.5 6,-547.5 159,-547.5 159,-547.5 6,-547.5"/>
<polygon fill="#666666" stroke="#666666" points="6,-532.5 6,-532.5 159,-532.5 159,-532.5 6,-532.5"/>
<polygon fill="none" stroke="#666666" points="5.5,-291 5.5,-576 158.5,-576 158.5,-291 5.5,-291"/>
</a>
</g>
</g>
<!-- Node2&#45;&gt;Node1 -->
<g id="edge1_Node000001_Node000002" class="edge">
<title>Node2&#45;&gt;Node1</title>
<g id="a_edge1_Node000001_Node000002"><a xlink:title=" ">
<path fill="none" stroke="#63b8ff" d="M82,-280.67C82,-272.08 82,-263.5 82,-255.02"/>
<polygon fill="none" stroke="#63b8ff" points="78.5,-280.74 82,-290.74 85.5,-280.74 78.5,-280.74"/>
</a>
</g>
</g>
<!-- Node3 -->
<g id="Node000003" class="node">
<title>Node3</title>
<g id="a_Node000003"><a xlink:href="../../d4/ddf/classArcane_1_1PrivateVariableArrayT.html" target="_top" xlink:title=" ">
<polygon fill="white" stroke="transparent" points="157.5,-927 6.5,-927 6.5,-612 157.5,-612 157.5,-927"/>
<text text-anchor="start" x="12" y="-914.5" font-family="Helvetica,sans-Serif" font-size="10.00">Arcane::PrivateVariableArray</text>
<text text-anchor="start" x="42" y="-903.5" font-family="Helvetica,sans-Serif" font-size="10.00">T&lt; DataTypeT &gt;</text>
<text text-anchor="start" x="14.5" y="-888.5" font-family="Helvetica,sans-Serif" font-size="10.00">#</text>
<text text-anchor="start" x="31" y="-888.5" font-family="Helvetica,sans-Serif" font-size="10.00">m_private_part</text>
<text text-anchor="start" x="14.5" y="-873.5" font-family="Helvetica,sans-Serif" font-size="10.00">#</text>
<text text-anchor="start" x="31" y="-873.5" font-family="Helvetica,sans-Serif" font-size="10.00">m_view</text>
<text text-anchor="start" x="14.5" y="-858.5" font-family="Helvetica,sans-Serif" font-size="10.00">+</text>
<text text-anchor="start" x="31" y="-858.5" font-family="Helvetica,sans-Serif" font-size="10.00">asArray()</text>
<text text-anchor="start" x="14.5" y="-843.5" font-family="Helvetica,sans-Serif" font-size="10.00">+</text>
<text text-anchor="start" x="31" y="-843.5" font-family="Helvetica,sans-Serif" font-size="10.00">asArray()</text>
<text text-anchor="start" x="14.5" y="-828.5" font-family="Helvetica,sans-Serif" font-size="10.00">+</text>
<text text-anchor="start" x="31" y="-828.5" font-family="Helvetica,sans-Serif" font-size="10.00">totalNbElement()</text>
<text text-anchor="start" x="14.5" y="-813.5" font-family="Helvetica,sans-Serif" font-size="10.00">+</text>
<text text-anchor="start" x="31" y="-813.5" font-family="Helvetica,sans-Serif" font-size="10.00">arraySize()</text>
<text text-anchor="start" x="14.5" y="-798.5" font-family="Helvetica,sans-Serif" font-size="10.00">+</text>
<text text-anchor="start" x="31" y="-798.5" font-family="Helvetica,sans-Serif" font-size="10.00">isArrayVariable()</text>
<text text-anchor="start" x="14.5" y="-783.5" font-family="Helvetica,sans-Serif" font-size="10.00">+</text>
<text text-anchor="start" x="31" y="-783.5" font-family="Helvetica,sans-Serif" font-size="10.00">updateFromInternal()</text>
<text text-anchor="start" x="14.5" y="-768.5" font-family="Helvetica,sans-Serif" font-size="10.00">+</text>
<text text-anchor="start" x="31" y="-768.5" font-family="Helvetica,sans-Serif" font-size="10.00">itemGroup()</text>
<text text-anchor="start" x="14.5" y="-753.5" font-family="Helvetica,sans-Serif" font-size="10.00">+</text>
<text text-anchor="start" x="31" y="-753.5" font-family="Helvetica,sans-Serif" font-size="10.00">resize()</text>
<text text-anchor="start" x="14.5" y="-738.5" font-family="Helvetica,sans-Serif" font-size="10.00">+</text>
<text text-anchor="start" x="31" y="-738.5" font-family="Helvetica,sans-Serif" font-size="10.00">resizeAndReshape()</text>
<text text-anchor="start" x="14.5" y="-723.5" font-family="Helvetica,sans-Serif" font-size="10.00">+</text>
<text text-anchor="start" x="31" y="-723.5" font-family="Helvetica,sans-Serif" font-size="10.00">_internalSpan()</text>
<text text-anchor="start" x="14.5" y="-708.5" font-family="Helvetica,sans-Serif" font-size="10.00">+</text>
<text text-anchor="start" x="31" y="-708.5" font-family="Helvetica,sans-Serif" font-size="10.00">_internalSpan()</text>
<text text-anchor="start" x="14.5" y="-693.5" font-family="Helvetica,sans-Serif" font-size="10.00">+</text>
<text text-anchor="start" x="31" y="-693.5" font-family="Helvetica,sans-Serif" font-size="10.00">_internalConstSpan()</text>
<text text-anchor="start" x="14.5" y="-678.5" font-family="Helvetica,sans-Serif" font-size="10.00">#</text>
<text text-anchor="start" x="31" y="-678.5" font-family="Helvetica,sans-Serif" font-size="10.00">PrivateVariableArrayT()</text>
<text text-anchor="start" x="14.5" y="-663.5" font-family="Helvetica,sans-Serif" font-size="10.00">#</text>
<text text-anchor="start" x="31" y="-663.5" font-family="Helvetica,sans-Serif" font-size="10.00">PrivateVariableArrayT()</text>
<text text-anchor="start" x="14.5" y="-648.5" font-family="Helvetica,sans-Serif" font-size="10.00">#</text>
<text text-anchor="start" x="31" y="-648.5" font-family="Helvetica,sans-Serif" font-size="10.00">PrivateVariableArrayT()</text>
<text text-anchor="start" x="14.5" y="-633.5" font-family="Helvetica,sans-Serif" font-size="10.00">#</text>
<text text-anchor="start" x="31" y="-633.5" font-family="Helvetica,sans-Serif" font-size="10.00">operator=()</text>
<text text-anchor="start" x="14.5" y="-618.5" font-family="Helvetica,sans-Serif" font-size="10.00">#</text>
<text text-anchor="start" x="31" y="-618.5" font-family="Helvetica,sans-Serif" font-size="10.00">_internalInit()</text>
<polygon fill="#666666" stroke="#666666" points="7,-898.5 7,-898.5 158,-898.5 158,-898.5 7,-898.5"/>
<polygon fill="#666666" stroke="#666666" points="7,-868.5 7,-868.5 29,-868.5 29,-868.5 7,-868.5"/>
<polygon fill="#666666" stroke="#666666" points="29,-868.5 29,-868.5 158,-868.5 158,-868.5 29,-868.5"/>
<polygon fill="none" stroke="#666666" points="6.5,-612 6.5,-927 157.5,-927 157.5,-612 6.5,-612"/>
</a>
</g>
</g>
<!-- Node3&#45;&gt;Node2 -->
<g id="edge2_Node000002_Node000003" class="edge">
<title>Node3&#45;&gt;Node2</title>
<g id="a_edge2_Node000002_Node000003"><a xlink:title=" ">
<path fill="none" stroke="#63b8ff" d="M82,-601.75C82,-593.21 82,-584.66 82,-576.21"/>
<polygon fill="none" stroke="#63b8ff" points="78.5,-601.77 82,-611.77 85.5,-601.77 78.5,-601.77"/>
</a>
</g>
</g>
<!-- Node4 -->
<g id="Node000004" class="node">
<title>Node4</title>
<g id="a_Node000004"><a xlink:href="../../de/d79/classArcane_1_1MeshVariableRef.html" target="_top" xlink:title="Classe de base d&#39;une variable sur des entités du maillage.">
<polygon fill="white" stroke="transparent" points="148.5,-1132 15.5,-1132 15.5,-963 148.5,-963 148.5,-1132"/>
<text text-anchor="start" x="21" y="-1119.5" font-family="Helvetica,sans-Serif" font-size="10.00">Arcane::MeshVariableRef</text>
<text text-anchor="start" x="80.5" y="-1104.5" font-family="Helvetica,sans-Serif" font-size="10.00"> </text>
<text text-anchor="start" x="23" y="-1089.5" font-family="Helvetica,sans-Serif" font-size="10.00">+</text>
<text text-anchor="start" x="39" y="-1089.5" font-family="Helvetica,sans-Serif" font-size="10.00">MeshVariableRef()</text>
<text text-anchor="start" x="23" y="-1074.5" font-family="Helvetica,sans-Serif" font-size="10.00">+</text>
<text text-anchor="start" x="39" y="-1074.5" font-family="Helvetica,sans-Serif" font-size="10.00">~MeshVariableRef()</text>
<text text-anchor="start" x="23" y="-1059.5" font-family="Helvetica,sans-Serif" font-size="10.00">+</text>
<text text-anchor="start" x="39" y="-1059.5" font-family="Helvetica,sans-Serif" font-size="10.00">synchronize()</text>
<text text-anchor="start" x="23" y="-1044.5" font-family="Helvetica,sans-Serif" font-size="10.00">+</text>
<text text-anchor="start" x="39" y="-1044.5" font-family="Helvetica,sans-Serif" font-size="10.00">synchronize()</text>
<text text-anchor="start" x="23" y="-1029.5" font-family="Helvetica,sans-Serif" font-size="10.00">#</text>
<text text-anchor="start" x="39" y="-1029.5" font-family="Helvetica,sans-Serif" font-size="10.00">MeshVariableRef()</text>
<text text-anchor="start" x="23" y="-1014.5" font-family="Helvetica,sans-Serif" font-size="10.00">#</text>
<text text-anchor="start" x="39" y="-1014.5" font-family="Helvetica,sans-Serif" font-size="10.00">MeshVariableRef()</text>
<text text-anchor="start" x="23" y="-999.5" font-family="Helvetica,sans-Serif" font-size="10.00">#</text>
<text text-anchor="start" x="39" y="-999.5" font-family="Helvetica,sans-Serif" font-size="10.00">MeshVariableRef()</text>
<text text-anchor="start" x="23" y="-984.5" font-family="Helvetica,sans-Serif" font-size="10.00">#</text>
<text text-anchor="start" x="39" y="-984.5" font-family="Helvetica,sans-Serif" font-size="10.00">operator=()</text>
<text text-anchor="start" x="23" y="-969.5" font-family="Helvetica,sans-Serif" font-size="10.00">#</text>
<text text-anchor="start" x="39" y="-969.5" font-family="Helvetica,sans-Serif" font-size="10.00">_internalInit()</text>
<polygon fill="#666666" stroke="#666666" points="16,-1114.5 16,-1114.5 149,-1114.5 149,-1114.5 16,-1114.5"/>
<polygon fill="#666666" stroke="#666666" points="16,-1099.5 16,-1099.5 149,-1099.5 149,-1099.5 16,-1099.5"/>
<polygon fill="none" stroke="#666666" points="15.5,-963 15.5,-1132 148.5,-1132 148.5,-963 15.5,-963"/>
</a>
</g>
</g>
<!-- Node4&#45;&gt;Node3 -->
<g id="edge3_Node000003_Node000004" class="edge">
<title>Node4&#45;&gt;Node3</title>
<g id="a_edge3_Node000003_Node000004"><a xlink:title=" ">
<path fill="none" stroke="#63b8ff" d="M82,-952.83C82,-944.42 82,-935.78 82,-927.03"/>
<polygon fill="none" stroke="#63b8ff" points="78.5,-952.94 82,-962.94 85.5,-952.94 78.5,-952.94"/>
</a>
</g>
</g>
<!-- Node5 -->
<g id="Node000005" class="node">
<title>Node5</title>
<g id="a_Node000005"><a xlink:href="../../d6/d00/classArcane_1_1VariableRef.html" target="_top" xlink:title="Référence à une variable.">
<polygon fill="white" stroke="transparent" points="147,-1629 17,-1629 17,-1168 147,-1168 147,-1629"/>
<text text-anchor="start" x="33.5" y="-1616.5" font-family="Helvetica,sans-Serif" font-size="10.00">Arcane::VariableRef</text>
<text text-anchor="start" x="80" y="-1601.5" font-family="Helvetica,sans-Serif" font-size="10.00"> </text>
<text text-anchor="start" x="21" y="-1586.5" font-family="Helvetica,sans-Serif" font-size="10.00">+</text>
<text text-anchor="start" x="34" y="-1586.5" font-family="Helvetica,sans-Serif" font-size="10.00">~VariableRef()</text>
<text text-anchor="start" x="21" y="-1571.5" font-family="Helvetica,sans-Serif" font-size="10.00">+</text>
<text text-anchor="start" x="34" y="-1571.5" font-family="Helvetica,sans-Serif" font-size="10.00">subDomain()</text>
<text text-anchor="start" x="21" y="-1556.5" font-family="Helvetica,sans-Serif" font-size="10.00">+</text>
<text text-anchor="start" x="34" y="-1556.5" font-family="Helvetica,sans-Serif" font-size="10.00">variableMng()</text>
<text text-anchor="start" x="21" y="-1541.5" font-family="Helvetica,sans-Serif" font-size="10.00">+</text>
<text text-anchor="start" x="34" y="-1541.5" font-family="Helvetica,sans-Serif" font-size="10.00">name()</text>
<text text-anchor="start" x="21" y="-1526.5" font-family="Helvetica,sans-Serif" font-size="10.00">+</text>
<text text-anchor="start" x="34" y="-1526.5" font-family="Helvetica,sans-Serif" font-size="10.00">dataType()</text>
<text text-anchor="start" x="21" y="-1511.5" font-family="Helvetica,sans-Serif" font-size="10.00">+</text>
<text text-anchor="start" x="34" y="-1511.5" font-family="Helvetica,sans-Serif" font-size="10.00">print()</text>
<text text-anchor="start" x="21" y="-1496.5" font-family="Helvetica,sans-Serif" font-size="10.00">+</text>
<text text-anchor="start" x="34" y="-1496.5" font-family="Helvetica,sans-Serif" font-size="10.00">module()</text>
<text text-anchor="start" x="21" y="-1481.5" font-family="Helvetica,sans-Serif" font-size="10.00">+</text>
<text text-anchor="start" x="34" y="-1481.5" font-family="Helvetica,sans-Serif" font-size="10.00">property()</text>
<text text-anchor="start" x="21" y="-1466.5" font-family="Helvetica,sans-Serif" font-size="10.00">+</text>
<text text-anchor="start" x="34" y="-1466.5" font-family="Helvetica,sans-Serif" font-size="10.00">referenceProperty()</text>
<text text-anchor="start" x="21" y="-1451.5" font-family="Helvetica,sans-Serif" font-size="10.00">+</text>
<text text-anchor="start" x="34" y="-1451.5" font-family="Helvetica,sans-Serif" font-size="10.00">setProperty()</text>
<text text-anchor="start" x="34" y="-1436.5" font-family="Helvetica,sans-Serif" font-size="10.00">et 16 de plus...</text>
<text text-anchor="start" x="21" y="-1421.5" font-family="Helvetica,sans-Serif" font-size="10.00">#</text>
<text text-anchor="start" x="34" y="-1421.5" font-family="Helvetica,sans-Serif" font-size="10.00">VariableRef()</text>
<text text-anchor="start" x="21" y="-1406.5" font-family="Helvetica,sans-Serif" font-size="10.00">#</text>
<text text-anchor="start" x="34" y="-1406.5" font-family="Helvetica,sans-Serif" font-size="10.00">VariableRef()</text>
<text text-anchor="start" x="21" y="-1391.5" font-family="Helvetica,sans-Serif" font-size="10.00">#</text>
<text text-anchor="start" x="34" y="-1391.5" font-family="Helvetica,sans-Serif" font-size="10.00">VariableRef()</text>
<text text-anchor="start" x="21" y="-1376.5" font-family="Helvetica,sans-Serif" font-size="10.00">#</text>
<text text-anchor="start" x="34" y="-1376.5" font-family="Helvetica,sans-Serif" font-size="10.00">operator=()</text>
<text text-anchor="start" x="21" y="-1361.5" font-family="Helvetica,sans-Serif" font-size="10.00">#</text>
<text text-anchor="start" x="34" y="-1361.5" font-family="Helvetica,sans-Serif" font-size="10.00">VariableRef()</text>
<text text-anchor="start" x="22.5" y="-1346.5" font-family="Helvetica,sans-Serif" font-size="10.00">*</text>
<text text-anchor="start" x="34" y="-1346.5" font-family="Helvetica,sans-Serif" font-size="10.00">m_variable</text>
<text text-anchor="start" x="22.5" y="-1331.5" font-family="Helvetica,sans-Serif" font-size="10.00">*</text>
<text text-anchor="start" x="34" y="-1331.5" font-family="Helvetica,sans-Serif" font-size="10.00">m_module</text>
<text text-anchor="start" x="22.5" y="-1316.5" font-family="Helvetica,sans-Serif" font-size="10.00">*</text>
<text text-anchor="start" x="34" y="-1316.5" font-family="Helvetica,sans-Serif" font-size="10.00">m_is_registered</text>
<text text-anchor="start" x="22.5" y="-1301.5" font-family="Helvetica,sans-Serif" font-size="10.00">*</text>
<text text-anchor="start" x="34" y="-1301.5" font-family="Helvetica,sans-Serif" font-size="10.00">m_reference_property</text>
<text text-anchor="start" x="22.5" y="-1286.5" font-family="Helvetica,sans-Serif" font-size="10.00">*</text>
<text text-anchor="start" x="34" y="-1286.5" font-family="Helvetica,sans-Serif" font-size="10.00">m_previous_reference</text>
<text text-anchor="start" x="22.5" y="-1271.5" font-family="Helvetica,sans-Serif" font-size="10.00">*</text>
<text text-anchor="start" x="34" y="-1271.5" font-family="Helvetica,sans-Serif" font-size="10.00">m_next_reference</text>
<text text-anchor="start" x="22.5" y="-1256.5" font-family="Helvetica,sans-Serif" font-size="10.00">*</text>
<text text-anchor="start" x="34" y="-1256.5" font-family="Helvetica,sans-Serif" font-size="10.00">m_assignment_stack</text>
<text text-anchor="start" x="34" y="-1245.5" font-family="Helvetica,sans-Serif" font-size="10.00">_trace</text>
<text text-anchor="start" x="22.5" y="-1230.5" font-family="Helvetica,sans-Serif" font-size="10.00">*</text>
<text text-anchor="start" x="34" y="-1230.5" font-family="Helvetica,sans-Serif" font-size="10.00">m_notify_functor_list</text>
<text text-anchor="start" x="22.5" y="-1215.5" font-family="Helvetica,sans-Serif" font-size="10.00">*</text>
<text text-anchor="start" x="34" y="-1215.5" font-family="Helvetica,sans-Serif" font-size="10.00">m_has_trace</text>
<text text-anchor="start" x="22.5" y="-1200.5" font-family="Helvetica,sans-Serif" font-size="10.00">*</text>
<text text-anchor="start" x="34" y="-1200.5" font-family="Helvetica,sans-Serif" font-size="10.00">m_static_has_trace</text>
<text text-anchor="start" x="34" y="-1189.5" font-family="Helvetica,sans-Serif" font-size="10.00">_creation</text>
<text text-anchor="start" x="34" y="-1174.5" font-family="Helvetica,sans-Serif" font-size="10.00">et 25 de plus...</text>
<polygon fill="#666666" stroke="#666666" points="17,-1611.5 17,-1611.5 147,-1611.5 147,-1611.5 17,-1611.5"/>
<polygon fill="#666666" stroke="#666666" points="17,-1596.5 17,-1596.5 147,-1596.5 147,-1596.5 17,-1596.5"/>
<polygon fill="none" stroke="#666666" points="17,-1168 17,-1629 147,-1629 147,-1168 17,-1168"/>
</a>
</g>
</g>
<!-- Node5&#45;&gt;Node4 -->
<g id="edge4_Node000004_Node000005" class="edge">
<title>Node5&#45;&gt;Node4</title>
<g id="a_edge4_Node000004_Node000005"><a xlink:title=" ">
<path fill="none" stroke="#63b8ff" d="M82,-1157.57C82,-1148.76 82,-1140.21 82,-1132.02"/>
<polygon fill="none" stroke="#63b8ff" points="78.5,-1157.63 82,-1167.63 85.5,-1157.63 78.5,-1157.63"/>
</a>
</g>
</g>
</g>
</svg>

<g id="navigator" transform="translate(0 0)" fill="#404254">
  <rect fill="#f2f5e9" fill-opacity="0.5" stroke="#606060" stroke-width=".5" x="0" y="0" width="60" height="60"/>
  <use id="zoomplus" xlink:href="#zoomPlus" x="17" y="9" onmousedown="handleZoom(evt,'in')"/>
  <use id="zoomminus" xlink:href="#zoomMin" x="42" y="9" onmousedown="handleZoom(evt,'out')"/>
  <use id="reset" xlink:href="#resetDef" x="30" y="36" onmousedown="handleReset()"/>
   <use id="arrowup" xlink:href="#arrowUp" x="0" y="0" onmousedown="handlePan(0,-1)"/>
  <use id="arrowright" xlink:href="#arrowRight" x="0" y="0" onmousedown="handlePan(1,0)"/>
  <use id="arrowdown" xlink:href="#arrowDown" x="0" y="0" onmousedown="handlePan(0,1)"/>
  <use id="arrowleft" xlink:href="#arrowLeft" x="0" y="0" onmousedown="handlePan(-1,0)"/>
</g>
<svg viewBox="0 0 15 15" width="100%" height="30px" preserveAspectRatio="xMaxYMin meet">
 <g id="arrow_out" transform="scale(0.3 0.3)">
  <a xlink:href="classArcane_1_1MeshVariableArrayRefT__inherit__graph_org.svg" target="_base">
   <rect id="button" ry="5" rx="5" y="6" x="6" height="38" width="38"
        fill="#f2f5e9" fill-opacity="0.5" stroke="#606060" stroke-width="1.0"/>
   <path id="arrow"
     d="M 11.500037,31.436501 C 11.940474,20.09759 22.043105,11.32322 32.158766,21.979434 L 37.068811,17.246167 C 37.068811,17.246167 37.088388,32 37.088388,32 L 22.160133,31.978069 C 22.160133,31.978069 26.997745,27.140456 26.997745,27.140456 C 18.528582,18.264221 13.291696,25.230495 11.500037,31.436501 z"
     style="fill:#404040;"/>
  </a>
 </g>
</svg>

<style type='text/css'>
<![CDATA[
[data-mouse-over-selected='false'] { opacity: 0.7; }
[data-mouse-over-selected='true']  { opacity: 1.0; }
]]>
</style>
<script type="application/ecmascript"><![CDATA[
document.addEventListener('DOMContentLoaded', (event) => {
  highlightEdges();
  highlightAdjacentNodes();
});
]]></script>
</svg>
