<?xml version="1.0" encoding="UTF-8" standalone="no"?>
<!DOCTYPE svg PUBLIC "-//W3C//DTD SVG 1.1//EN"
 "http://www.w3.org/Graphics/SVG/1.1/DTD/svg11.dtd">
<!-- Generated by graphviz version 14.1.2 (0)
 -->
<!-- Title: Graphical Class Hierarchy Pages: 1 -->
<svg width="352pt" height="132pt"
 viewBox="0.00 0.00 352.00 132.00" xmlns="http://www.w3.org/2000/svg" xmlns:xlink="http://www.w3.org/1999/xlink">
<g id="graph0" class="graph" transform="scale(1 1) rotate(0) translate(4 128.12)">
<title>Graphical Class Hierarchy</title>
<!-- Node0 -->
<g id="Node000000" class="node">
<title>Node0</title>
<g id="a_Node000000"><a xlink:href="d1/dae/classArcane_1_1IteratorBase.html" target="_top" xlink:title=" ">
<polygon fill="white" stroke="#666666" points="155.5,-78.5 0,-78.5 0,-32.25 155.5,-32.25 155.5,-78.5"/>
<text xml:space="preserve" text-anchor="start" x="8" y="-65" font-family="Helvetica,sans-Serif" font-size="10.00">Arcane::IteratorBase</text>
<text xml:space="preserve" text-anchor="start" x="8" y="-52.25" font-family="Helvetica,sans-Serif" font-size="10.00">&lt; T::iterator, T::reference,</text>
<text xml:space="preserve" text-anchor="middle" x="77.75" y="-39.5" font-family="Helvetica,sans-Serif" font-size="10.00"> T::pointer, T::value_type * &gt;</text>
</a>
</g>
</g>
<!-- Node1 -->
<g id="Node000001" class="node">
<title>Node1</title>
<g id="a_Node000001"><a xlink:href="d7/d57/classArcane_1_1IterT.html" target="_top" xlink:title=" ">
<polygon fill="white" stroke="#666666" points="337.62,-124.12 197.88,-124.12 197.88,-90.62 337.62,-90.62 337.62,-124.12"/>
<text xml:space="preserve" text-anchor="start" x="205.88" y="-110.62" font-family="Helvetica,sans-Serif" font-size="10.00">Arcane::IterT&lt; ArrayView</text>
<text xml:space="preserve" text-anchor="middle" x="267.75" y="-97.88" font-family="Helvetica,sans-Serif" font-size="10.00">&lt; T &gt; &gt;</text>
</a>
</g>
</g>
<!-- Node0&#45;&gt;Node1 -->
<g id="edge1577_Node000000_Node000001" class="edge">
<title>Node0&#45;&gt;Node1</title>
<g id="a_edge1577_Node000000_Node000001"><a xlink:title=" ">
<path fill="none" stroke="#63b8ff" d="M166.49,-79.64C179.32,-83.19 192.32,-86.79 204.51,-90.16"/>
<polygon fill="#63b8ff" stroke="#63b8ff" points="167.79,-76.37 157.22,-77.08 165.92,-83.12 167.79,-76.37"/>
</a>
</g>
</g>
<!-- Node2 -->
<g id="Node000002" class="node">
<title>Node2</title>
<g id="a_Node000002"><a xlink:href="d7/d57/classArcane_1_1IterT.html" target="_top" xlink:title=" ">
<polygon fill="white" stroke="#666666" points="344,-72.12 191.5,-72.12 191.5,-38.62 344,-38.62 344,-72.12"/>
<text xml:space="preserve" text-anchor="start" x="199.5" y="-58.62" font-family="Helvetica,sans-Serif" font-size="10.00">Arcane::IterT&lt; ListImplBase</text>
<text xml:space="preserve" text-anchor="middle" x="267.75" y="-45.88" font-family="Helvetica,sans-Serif" font-size="10.00">&lt; T &gt; &gt;</text>
</a>
</g>
</g>
<!-- Node0&#45;&gt;Node2 -->
<g id="edge1578_Node000000_Node000002" class="edge">
<title>Node0&#45;&gt;Node2</title>
<g id="a_edge1578_Node000000_Node000002"><a xlink:title=" ">
<path fill="none" stroke="#63b8ff" d="M167.05,-55.38C175.08,-55.38 183.17,-55.38 191.08,-55.38"/>
<polygon fill="#63b8ff" stroke="#63b8ff" points="167.27,-51.88 157.27,-55.38 167.27,-58.88 167.27,-51.88"/>
</a>
</g>
</g>
<!-- Node3 -->
<g id="Node000003" class="node">
<title>Node3</title>
<g id="a_Node000003"><a xlink:href="d7/d57/classArcane_1_1IterT.html" target="_top" xlink:title=" ">
<polygon fill="white" stroke="#666666" points="321.12,-20.75 214.38,-20.75 214.38,0 321.12,0 321.12,-20.75"/>
<text xml:space="preserve" text-anchor="middle" x="267.75" y="-7.25" font-family="Helvetica,sans-Serif" font-size="10.00">Arcane::IterT&lt; T &gt;</text>
</a>
</g>
</g>
<!-- Node0&#45;&gt;Node3 -->
<g id="edge1579_Node000000_Node000003" class="edge">
<title>Node0&#45;&gt;Node3</title>
<g id="a_edge1579_Node000000_Node000003"><a xlink:title=" ">
<path fill="none" stroke="#63b8ff" d="M166.82,-34.29C185.72,-29.77 204.93,-25.17 221.39,-21.23"/>
<polygon fill="#63b8ff" stroke="#63b8ff" points="166.14,-30.86 157.23,-36.59 167.77,-37.67 166.14,-30.86"/>
</a>
</g>
</g>
</g>
</svg>
