<?xml version="1.0" encoding="UTF-8" standalone="no"?>
<!DOCTYPE svg PUBLIC "-//W3C//DTD SVG 1.1//EN"
 "http://www.w3.org/Graphics/SVG/1.1/DTD/svg11.dtd">
<!-- Generated by graphviz version 2.43.0 (0)
 -->
<!-- Title: Arcane::AdiProjectionModule Pages: 1 -->
<svg width="213pt" height="464pt"
 viewBox="0.00 0.00 213.00 464.00" xmlns="http://www.w3.org/2000/svg" xmlns:xlink="http://www.w3.org/1999/xlink">
<g id="graph0" class="graph" transform="scale(1 1) rotate(0) translate(4 460)">
<title>Arcane::AdiProjectionModule</title>
<!-- Node1 -->
<g id="Node000001" class="node">
<title>Node1</title>
<g id="a_Node000001"><a xlink:title=" ">
<polygon fill="#999999" stroke="transparent" points="205,-371 0,-371 0,0 205,0 205,-371"/>
<text text-anchor="start" x="32.5" y="-358.5" font-family="Helvetica,sans-Serif" font-size="10.00">Arcane::AdiProjectionModule</text>
<text text-anchor="start" x="7" y="-343.5" font-family="Helvetica,sans-Serif" font-size="10.00">&#45;</text>
<text text-anchor="start" x="17.5" y="-343.5" font-family="Helvetica,sans-Serif" font-size="10.00">m_cartesian_mesh</text>
<text text-anchor="start" x="4.5" y="-328.5" font-family="Helvetica,sans-Serif" font-size="10.00">+</text>
<text text-anchor="start" x="17.5" y="-328.5" font-family="Helvetica,sans-Serif" font-size="10.00">AdiProjectionModule()</text>
<text text-anchor="start" x="4.5" y="-313.5" font-family="Helvetica,sans-Serif" font-size="10.00">+</text>
<text text-anchor="start" x="17.5" y="-313.5" font-family="Helvetica,sans-Serif" font-size="10.00">~AdiProjectionModule()</text>
<text text-anchor="start" x="4.5" y="-298.5" font-family="Helvetica,sans-Serif" font-size="10.00">+</text>
<text text-anchor="start" x="17.5" y="-298.5" font-family="Helvetica,sans-Serif" font-size="10.00">versionInfo()</text>
<text text-anchor="start" x="4.5" y="-283.5" font-family="Helvetica,sans-Serif" font-size="10.00">+</text>
<text text-anchor="start" x="17.5" y="-283.5" font-family="Helvetica,sans-Serif" font-size="10.00">copyEulerianCoordinates()</text>
<text text-anchor="start" x="4.5" y="-268.5" font-family="Helvetica,sans-Serif" font-size="10.00">+</text>
<text text-anchor="start" x="17.5" y="-268.5" font-family="Helvetica,sans-Serif" font-size="10.00">cartesianHydroMain()</text>
<text text-anchor="start" x="4.5" y="-253.5" font-family="Helvetica,sans-Serif" font-size="10.00">+</text>
<text text-anchor="start" x="17.5" y="-253.5" font-family="Helvetica,sans-Serif" font-size="10.00">cartesianHydroStartInit()</text>
<text text-anchor="start" x="4.5" y="-238.5" font-family="Helvetica,sans-Serif" font-size="10.00">+</text>
<text text-anchor="start" x="17.5" y="-238.5" font-family="Helvetica,sans-Serif" font-size="10.00">computePrimalMassFluxBoundary()</text>
<text text-anchor="start" x="4.5" y="-223.5" font-family="Helvetica,sans-Serif" font-size="10.00">+</text>
<text text-anchor="start" x="17.5" y="-223.5" font-family="Helvetica,sans-Serif" font-size="10.00">computeDualMassFluxBoundary()</text>
<text text-anchor="start" x="4.5" y="-208.5" font-family="Helvetica,sans-Serif" font-size="10.00">+</text>
<text text-anchor="start" x="17.5" y="-208.5" font-family="Helvetica,sans-Serif" font-size="10.00">staticInitialize()</text>
<text text-anchor="start" x="7" y="-193.5" font-family="Helvetica,sans-Serif" font-size="10.00">&#45;</text>
<text text-anchor="start" x="17.5" y="-193.5" font-family="Helvetica,sans-Serif" font-size="10.00">evolvePrimalUpwindedVariables()</text>
<text text-anchor="start" x="7" y="-178.5" font-family="Helvetica,sans-Serif" font-size="10.00">&#45;</text>
<text text-anchor="start" x="17.5" y="-178.5" font-family="Helvetica,sans-Serif" font-size="10.00">evolveDualUpwindedVariables()</text>
<text text-anchor="start" x="7" y="-163.5" font-family="Helvetica,sans-Serif" font-size="10.00">&#45;</text>
<text text-anchor="start" x="17.5" y="-163.5" font-family="Helvetica,sans-Serif" font-size="10.00">computePressure()</text>
<text text-anchor="start" x="7" y="-148.5" font-family="Helvetica,sans-Serif" font-size="10.00">&#45;</text>
<text text-anchor="start" x="17.5" y="-148.5" font-family="Helvetica,sans-Serif" font-size="10.00">computePressureGradient()</text>
<text text-anchor="start" x="7" y="-133.5" font-family="Helvetica,sans-Serif" font-size="10.00">&#45;</text>
<text text-anchor="start" x="17.5" y="-133.5" font-family="Helvetica,sans-Serif" font-size="10.00">checkNodalMassConservation()</text>
<text text-anchor="start" x="7" y="-118.5" font-family="Helvetica,sans-Serif" font-size="10.00">&#45;</text>
<text text-anchor="start" x="17.5" y="-118.5" font-family="Helvetica,sans-Serif" font-size="10.00">copyCurrentVariablesToOld</text>
<text text-anchor="start" x="17.5" y="-107.5" font-family="Helvetica,sans-Serif" font-size="10.00">Variables()</text>
<text text-anchor="start" x="7" y="-92.5" font-family="Helvetica,sans-Serif" font-size="10.00">&#45;</text>
<text text-anchor="start" x="17.5" y="-92.5" font-family="Helvetica,sans-Serif" font-size="10.00">computePrimalMassFluxInner()</text>
<text text-anchor="start" x="7" y="-77.5" font-family="Helvetica,sans-Serif" font-size="10.00">&#45;</text>
<text text-anchor="start" x="17.5" y="-77.5" font-family="Helvetica,sans-Serif" font-size="10.00">computeDualMassFluxInner()</text>
<text text-anchor="start" x="7" y="-62.5" font-family="Helvetica,sans-Serif" font-size="10.00">&#45;</text>
<text text-anchor="start" x="17.5" y="-62.5" font-family="Helvetica,sans-Serif" font-size="10.00">prepareLagrangianVariables()</text>
<text text-anchor="start" x="7" y="-47.5" font-family="Helvetica,sans-Serif" font-size="10.00">&#45;</text>
<text text-anchor="start" x="17.5" y="-47.5" font-family="Helvetica,sans-Serif" font-size="10.00">checkLagrangianVariables</text>
<text text-anchor="start" x="17.5" y="-36.5" font-family="Helvetica,sans-Serif" font-size="10.00">Consistency()</text>
<text text-anchor="start" x="7" y="-21.5" font-family="Helvetica,sans-Serif" font-size="10.00">&#45;</text>
<text text-anchor="start" x="17.5" y="-21.5" font-family="Helvetica,sans-Serif" font-size="10.00">_evolveDualUpwindedVariables1()</text>
<text text-anchor="start" x="7" y="-6.5" font-family="Helvetica,sans-Serif" font-size="10.00">&#45;</text>
<text text-anchor="start" x="17.5" y="-6.5" font-family="Helvetica,sans-Serif" font-size="10.00">_evolvePrimalUpwindedVariablesV2()</text>
<polygon fill="#666666" stroke="#666666" points="0.5,-353.5 0.5,-353.5 205.5,-353.5 205.5,-353.5 0.5,-353.5"/>
<polygon fill="#666666" stroke="#666666" points="0.5,-338.5 0.5,-338.5 15.5,-338.5 15.5,-338.5 0.5,-338.5"/>
<polygon fill="#666666" stroke="#666666" points="15.5,-338.5 15.5,-338.5 205.5,-338.5 205.5,-338.5 15.5,-338.5"/>
<polygon fill="none" stroke="#666666" points="0,0 0,-371 205,-371 205,0 0,0"/>
</a>
</g>
</g>
<!-- Node2 -->
<g id="Node000002" class="node">
<title>Node2</title>
<g id="a_Node000002"><a xlink:title=" ">
<polygon fill="white" stroke="transparent" points="172.5,-456 32.5,-456 32.5,-407 172.5,-407 172.5,-456"/>
<text text-anchor="start" x="37.5" y="-443.5" font-family="Helvetica,sans-Serif" font-size="10.00">ArcaneAdiProjectionObject</text>
<text text-anchor="start" x="100.5" y="-428.5" font-family="Helvetica,sans-Serif" font-size="10.00"> </text>
<text text-anchor="start" x="100.5" y="-413.5" font-family="Helvetica,sans-Serif" font-size="10.00"> </text>
<polygon fill="#bfbfbf" stroke="#bfbfbf" points="32.5,-438.5 32.5,-438.5 172.5,-438.5 172.5,-438.5 32.5,-438.5"/>
<polygon fill="#bfbfbf" stroke="#bfbfbf" points="32.5,-423.5 32.5,-423.5 172.5,-423.5 172.5,-423.5 32.5,-423.5"/>
<polygon fill="none" stroke="#bfbfbf" points="32.5,-407 32.5,-456 172.5,-456 172.5,-407 32.5,-407"/>
</a>
</g>
</g>
<!-- Node2&#45;&gt;Node1 -->
<g id="edge1_Node000001_Node000002" class="edge">
<title>Node2&#45;&gt;Node1</title>
<g id="a_edge1_Node000001_Node000002"><a xlink:title=" ">
<path fill="none" stroke="#63b8ff" d="M102.5,-396.61C102.5,-389.02 102.5,-380.45 102.5,-371.22"/>
<polygon fill="none" stroke="#63b8ff" points="99,-396.66 102.5,-406.66 106,-396.66 99,-396.66"/>
</a>
</g>
</g>
</g>
</svg>
