<?xml version="1.0" encoding="UTF-8" standalone="no"?>
<!DOCTYPE svg PUBLIC "-//W3C//DTD SVG 1.1//EN"
 "http://www.w3.org/Graphics/SVG/1.1/DTD/svg11.dtd">
<!-- Generated by graphviz version 14.1.2 (0)
 -->
<!-- Title: IBlockBuilder.h Pages: 1 -->
<svg width="2562pt" height="225pt"
 viewBox="0.00 0.00 2562.00 225.00" xmlns="http://www.w3.org/2000/svg" xmlns:xlink="http://www.w3.org/1999/xlink">
<g id="graph0" class="graph" transform="scale(1 1) rotate(0) translate(4 220.5)">
<title>IBlockBuilder.h</title>
<!-- Node1 -->
<g id="Node000001" class="node">
<title>Node1</title>
<g id="a_Node000001"><a xlink:title="IBlockBuilder.h.">
<polygon fill="#999999" stroke="#666666" points="1341.12,-216.5 1252.38,-216.5 1252.38,-195.75 1341.12,-195.75 1341.12,-216.5"/>
<text xml:space="preserve" text-anchor="middle" x="1296.75" y="-203" font-family="Helvetica,sans-Serif" font-size="10.00">IBlockBuilder.h</text>
</a>
</g>
</g>
<!-- Node2 -->
<g id="Node000002" class="node">
<title>Node2</title>
<g id="a_Node000002"><a xlink:href="../../d6/da9/BlockSizeVector_8h.html" target="_top" xlink:title="BlockSizeVector.h.">
<polygon fill="white" stroke="#666666" points="1368.5,-159.75 1225,-159.75 1225,-126.25 1368.5,-126.25 1368.5,-159.75"/>
<text xml:space="preserve" text-anchor="start" x="1233" y="-146.25" font-family="Helvetica,sans-Serif" font-size="10.00">alien/core/block/BlockSize</text>
<text xml:space="preserve" text-anchor="middle" x="1296.75" y="-133.5" font-family="Helvetica,sans-Serif" font-size="10.00">Vector.h</text>
</a>
</g>
</g>
<!-- Node1&#45;&gt;Node2 -->
<g id="edge1_Node000001_Node000002" class="edge">
<title>Node1&#45;&gt;Node2</title>
<g id="a_edge1_Node000001_Node000002"><a xlink:title=" ">
<path fill="none" stroke="#63b8ff" d="M1296.75,-195.3C1296.75,-188.88 1296.75,-180.15 1296.75,-171.7"/>
<polygon fill="#63b8ff" stroke="#63b8ff" points="1300.25,-171.75 1296.75,-161.75 1293.25,-171.75 1300.25,-171.75"/>
</a>
</g>
</g>
<!-- Node3 -->
<g id="Node000003" class="node">
<title>Node3</title>
<g id="a_Node000003"><a xlink:href="../../d2/d99/Precomp_8h_source.html" target="_top" xlink:title=" ">
<polygon fill="white" stroke="#666666" points="1356.12,-90.25 1237.38,-90.25 1237.38,-69.5 1356.12,-69.5 1356.12,-90.25"/>
<text xml:space="preserve" text-anchor="middle" x="1296.75" y="-76.75" font-family="Helvetica,sans-Serif" font-size="10.00">alien/utils/Precomp.h</text>
</a>
</g>
</g>
<!-- Node2&#45;&gt;Node3 -->
<g id="edge2_Node000002_Node000003" class="edge">
<title>Node2&#45;&gt;Node3</title>
<g id="a_edge2_Node000002_Node000003"><a xlink:title=" ">
<path fill="none" stroke="#63b8ff" d="M1296.75,-125.94C1296.75,-118.6 1296.75,-109.82 1296.75,-101.96"/>
<polygon fill="#63b8ff" stroke="#63b8ff" points="1300.25,-102.23 1296.75,-92.23 1293.25,-102.23 1300.25,-102.23"/>
</a>
</g>
</g>
<!-- Node4 -->
<g id="Node000004" class="node">
<title>Node4</title>
<g id="a_Node000004"><a xlink:title=" ">
<polygon fill="#e0e0e0" stroke="#999999" points="107.5,-27.12 0,-27.12 0,-6.38 107.5,-6.38 107.5,-27.12"/>
<text xml:space="preserve" text-anchor="middle" x="53.75" y="-13.62" font-family="Helvetica,sans-Serif" font-size="10.00">alien/AlienConfig.h</text>
</a>
</g>
</g>
<!-- Node3&#45;&gt;Node4 -->
<g id="edge3_Node000003_Node000004" class="edge">
<title>Node3&#45;&gt;Node4</title>
<g id="a_edge3_Node000003_Node000004"><a xlink:title=" ">
<path fill="none" stroke="#63b8ff" d="M1237.19,-78.21C1029.3,-75.64 336.58,-64.86 116.75,-33.5 110.75,-32.64 104.49,-31.45 98.35,-30.11"/>
<polygon fill="#63b8ff" stroke="#63b8ff" points="99.51,-26.78 88.97,-27.9 97.9,-33.6 99.51,-26.78"/>
</a>
</g>
</g>
<!-- Node5 -->
<g id="Node000005" class="node">
<title>Node5</title>
<g id="a_Node000005"><a xlink:title=" ">
<polygon fill="#e0e0e0" stroke="#999999" points="233.88,-27.12 125.62,-27.12 125.62,-6.38 233.88,-6.38 233.88,-27.12"/>
<text xml:space="preserve" text-anchor="middle" x="179.75" y="-13.62" font-family="Helvetica,sans-Serif" font-size="10.00">alien/AlienExport.h</text>
</a>
</g>
</g>
<!-- Node3&#45;&gt;Node5 -->
<g id="edge4_Node000003_Node000005" class="edge">
<title>Node3&#45;&gt;Node5</title>
<g id="a_edge4_Node000003_Node000005"><a xlink:title=" ">
<path fill="none" stroke="#63b8ff" d="M1236.95,-77.89C1043.62,-74.45 436.81,-61.64 242.75,-33.5 236.97,-32.66 230.95,-31.52 225.02,-30.23"/>
<polygon fill="#63b8ff" stroke="#63b8ff" points="225.84,-26.82 215.31,-27.95 224.24,-33.64 225.84,-26.82"/>
</a>
</g>
</g>
<!-- Node6 -->
<g id="Node000006" class="node">
<title>Node6</title>
<g id="a_Node000006"><a xlink:title=" ">
<polygon fill="#e0e0e0" stroke="#999999" points="307.25,-27.12 252.25,-27.12 252.25,-6.38 307.25,-6.38 307.25,-27.12"/>
<text xml:space="preserve" text-anchor="middle" x="279.75" y="-13.62" font-family="Helvetica,sans-Serif" font-size="10.00">assert.h</text>
</a>
</g>
</g>
<!-- Node3&#45;&gt;Node6 -->
<g id="edge5_Node000003_Node000006" class="edge">
<title>Node3&#45;&gt;Node6</title>
<g id="a_edge5_Node000003_Node000006"><a xlink:title=" ">
<path fill="none" stroke="#63b8ff" d="M1237.09,-78.88C1052.62,-78.45 493.28,-73.78 316.75,-33.5 314.46,-32.98 312.14,-32.32 309.83,-31.58"/>
<polygon fill="#63b8ff" stroke="#63b8ff" points="311.29,-28.39 300.7,-28.13 308.82,-34.94 311.29,-28.39"/>
</a>
</g>
</g>
<!-- Node7 -->
<g id="Node000007" class="node">
<title>Node7</title>
<g id="a_Node000007"><a xlink:title=" ">
<polygon fill="#e0e0e0" stroke="#999999" points="511.88,-27.12 325.62,-27.12 325.62,-6.38 511.88,-6.38 511.88,-27.12"/>
<text xml:space="preserve" text-anchor="middle" x="418.75" y="-13.62" font-family="Helvetica,sans-Serif" font-size="10.00">arccore/base/ArgumentException.h</text>
</a>
</g>
</g>
<!-- Node3&#45;&gt;Node7 -->
<g id="edge6_Node000003_Node000007" class="edge">
<title>Node3&#45;&gt;Node7</title>
<g id="a_edge6_Node000003_Node000007"><a xlink:title=" ">
<path fill="none" stroke="#63b8ff" d="M1237.21,-77.32C1106.97,-73.49 787.13,-61.79 520.75,-33.5 510.04,-32.36 498.73,-30.89 487.7,-29.3"/>
<polygon fill="#63b8ff" stroke="#63b8ff" points="488.25,-25.85 477.84,-27.84 487.22,-32.77 488.25,-25.85"/>
</a>
</g>
</g>
<!-- Node8 -->
<g id="Node000008" class="node">
<title>Node8</title>
<g id="a_Node000008"><a xlink:title=" ">
<polygon fill="#e0e0e0" stroke="#999999" points="671.75,-27.12 529.75,-27.12 529.75,-6.38 671.75,-6.38 671.75,-27.12"/>
<text xml:space="preserve" text-anchor="middle" x="600.75" y="-13.62" font-family="Helvetica,sans-Serif" font-size="10.00">arccore/base/BaseTypes.h</text>
</a>
</g>
</g>
<!-- Node3&#45;&gt;Node8 -->
<g id="edge7_Node000003_Node000008" class="edge">
<title>Node3&#45;&gt;Node8</title>
<g id="a_edge7_Node000003_Node000008"><a xlink:title=" ">
<path fill="none" stroke="#63b8ff" d="M1237.04,-76.88C1126.73,-72.65 883.73,-60.86 680.75,-33.5 673.03,-32.46 664.93,-31.14 656.97,-29.7"/>
<polygon fill="#63b8ff" stroke="#63b8ff" points="657.82,-26.3 647.35,-27.9 656.53,-33.18 657.82,-26.3"/>
</a>
</g>
</g>
<!-- Node9 -->
<g id="Node000009" class="node">
<title>Node9</title>
<g id="a_Node000009"><a xlink:title=" ">
<polygon fill="#e0e0e0" stroke="#999999" points="874.12,-27.12 689.38,-27.12 689.38,-6.38 874.12,-6.38 874.12,-27.12"/>
<text xml:space="preserve" text-anchor="middle" x="781.75" y="-13.62" font-family="Helvetica,sans-Serif" font-size="10.00">arccore/base/FatalErrorException.h</text>
</a>
</g>
</g>
<!-- Node3&#45;&gt;Node9 -->
<g id="edge8_Node000003_Node000009" class="edge">
<title>Node3&#45;&gt;Node9</title>
<g id="a_edge8_Node000003_Node000009"><a xlink:title=" ">
<path fill="none" stroke="#63b8ff" d="M1237,-73.19C1156.43,-65.32 1008.54,-50.19 882.75,-33.5 873.16,-32.23 863.08,-30.78 853.15,-29.3"/>
<polygon fill="#63b8ff" stroke="#63b8ff" points="853.94,-25.88 843.53,-27.84 852.89,-32.8 853.94,-25.88"/>
</a>
</g>
</g>
<!-- Node10 -->
<g id="Node000010" class="node">
<title>Node10</title>
<g id="a_Node000010"><a xlink:title=" ">
<polygon fill="#e0e0e0" stroke="#999999" points="1055.62,-33.5 891.88,-33.5 891.88,0 1055.62,0 1055.62,-33.5"/>
<text xml:space="preserve" text-anchor="start" x="899.88" y="-20" font-family="Helvetica,sans-Serif" font-size="10.00">arccore/base/NotImplemented</text>
<text xml:space="preserve" text-anchor="middle" x="973.75" y="-7.25" font-family="Helvetica,sans-Serif" font-size="10.00">Exception.h</text>
</a>
</g>
</g>
<!-- Node3&#45;&gt;Node10 -->
<g id="edge9_Node000003_Node000010" class="edge">
<title>Node3&#45;&gt;Node10</title>
<g id="a_edge9_Node000003_Node000010"><a xlink:title=" ">
<path fill="none" stroke="#63b8ff" d="M1244.85,-69.05C1197.02,-60 1124.91,-46.36 1067.08,-35.41"/>
<polygon fill="#63b8ff" stroke="#63b8ff" points="1068.05,-32.03 1057.57,-33.61 1066.75,-38.91 1068.05,-32.03"/>
</a>
</g>
</g>
<!-- Node11 -->
<g id="Node000011" class="node">
<title>Node11</title>
<g id="a_Node000011"><a xlink:title=" ">
<polygon fill="#e0e0e0" stroke="#999999" points="1208,-27.12 1073.5,-27.12 1073.5,-6.38 1208,-6.38 1208,-27.12"/>
<text xml:space="preserve" text-anchor="middle" x="1140.75" y="-13.62" font-family="Helvetica,sans-Serif" font-size="10.00">arccore/base/TraceInfo.h</text>
</a>
</g>
</g>
<!-- Node3&#45;&gt;Node11 -->
<g id="edge10_Node000003_Node000011" class="edge">
<title>Node3&#45;&gt;Node11</title>
<g id="a_edge10_Node000003_Node000011"><a xlink:title=" ">
<path fill="none" stroke="#63b8ff" d="M1271.69,-69.05C1245.87,-58.94 1205.41,-43.09 1176.3,-31.68"/>
<polygon fill="#63b8ff" stroke="#63b8ff" points="1177.75,-28.49 1167.16,-28.1 1175.2,-35.01 1177.75,-28.49"/>
</a>
</g>
</g>
<!-- Node12 -->
<g id="Node000012" class="node">
<title>Node12</title>
<g id="a_Node000012"><a xlink:title=" ">
<polygon fill="#e0e0e0" stroke="#999999" points="1367.38,-27.12 1226.12,-27.12 1226.12,-6.38 1367.38,-6.38 1367.38,-27.12"/>
<text xml:space="preserve" text-anchor="middle" x="1296.75" y="-13.62" font-family="Helvetica,sans-Serif" font-size="10.00">arccore/trace/ITraceMng.h</text>
</a>
</g>
</g>
<!-- Node3&#45;&gt;Node12 -->
<g id="edge11_Node000003_Node000012" class="edge">
<title>Node3&#45;&gt;Node12</title>
<g id="a_edge11_Node000003_Node000012"><a xlink:title=" ">
<path fill="none" stroke="#63b8ff" d="M1296.75,-69.05C1296.75,-60.9 1296.75,-49.01 1296.75,-38.73"/>
<polygon fill="#63b8ff" stroke="#63b8ff" points="1300.25,-38.86 1296.75,-28.86 1293.25,-38.86 1300.25,-38.86"/>
</a>
</g>
</g>
<!-- Node13 -->
<g id="Node000013" class="node">
<title>Node13</title>
<g id="a_Node000013"><a xlink:title=" ">
<polygon fill="#e0e0e0" stroke="#999999" points="1492.5,-33.5 1385,-33.5 1385,0 1492.5,0 1492.5,-33.5"/>
<text xml:space="preserve" text-anchor="start" x="1393" y="-20" font-family="Helvetica,sans-Serif" font-size="10.00">arccore/collections</text>
<text xml:space="preserve" text-anchor="middle" x="1438.75" y="-7.25" font-family="Helvetica,sans-Serif" font-size="10.00">/Array.h</text>
</a>
</g>
</g>
<!-- Node3&#45;&gt;Node13 -->
<g id="edge12_Node000003_Node000013" class="edge">
<title>Node3&#45;&gt;Node13</title>
<g id="a_edge12_Node000003_Node000013"><a xlink:title=" ">
<path fill="none" stroke="#63b8ff" d="M1319.56,-69.05C1338.69,-60.82 1366.64,-48.79 1390.67,-38.45"/>
<polygon fill="#63b8ff" stroke="#63b8ff" points="1391.84,-41.75 1399.64,-34.58 1389.08,-35.32 1391.84,-41.75"/>
</a>
</g>
</g>
<!-- Node14 -->
<g id="Node000014" class="node">
<title>Node14</title>
<g id="a_Node000014"><a xlink:title=" ">
<polygon fill="#e0e0e0" stroke="#999999" points="1618.5,-33.5 1511,-33.5 1511,0 1618.5,0 1618.5,-33.5"/>
<text xml:space="preserve" text-anchor="start" x="1519" y="-20" font-family="Helvetica,sans-Serif" font-size="10.00">arccore/collections</text>
<text xml:space="preserve" text-anchor="middle" x="1564.75" y="-7.25" font-family="Helvetica,sans-Serif" font-size="10.00">/Array2.h</text>
</a>
</g>
</g>
<!-- Node3&#45;&gt;Node14 -->
<g id="edge13_Node000003_Node000014" class="edge">
<title>Node3&#45;&gt;Node14</title>
<g id="a_edge13_Node000003_Node000014"><a xlink:title=" ">
<path fill="none" stroke="#63b8ff" d="M1342.83,-69.05C1382,-60.61 1440,-47.93 1499.66,-33.96"/>
<polygon fill="#63b8ff" stroke="#63b8ff" points="1500.41,-37.38 1509.34,-31.68 1498.81,-30.56 1500.41,-37.38"/>
</a>
</g>
</g>
<!-- Node15 -->
<g id="Node000015" class="node">
<title>Node15</title>
<g id="a_Node000015"><a xlink:title=" ">
<polygon fill="#e0e0e0" stroke="#999999" points="1778.75,-33.5 1636.75,-33.5 1636.75,0 1778.75,0 1778.75,-33.5"/>
<text xml:space="preserve" text-anchor="start" x="1644.75" y="-20" font-family="Helvetica,sans-Serif" font-size="10.00">arccore/message_passing</text>
<text xml:space="preserve" text-anchor="middle" x="1707.75" y="-7.25" font-family="Helvetica,sans-Serif" font-size="10.00">/Messages.h</text>
</a>
</g>
</g>
<!-- Node3&#45;&gt;Node15 -->
<g id="edge14_Node000003_Node000015" class="edge">
<title>Node3&#45;&gt;Node15</title>
<g id="a_edge14_Node000003_Node000015"><a xlink:title=" ">
<path fill="none" stroke="#63b8ff" d="M1356.4,-71.76C1420.4,-63.88 1525.29,-50.3 1625.06,-33.9"/>
<polygon fill="#63b8ff" stroke="#63b8ff" points="1625.47,-37.38 1634.77,-32.29 1624.33,-30.47 1625.47,-37.38"/>
</a>
</g>
</g>
<!-- Node16 -->
<g id="Node000016" class="node">
<title>Node16</title>
<g id="a_Node000016"><a xlink:title=" ">
<polygon fill="#e0e0e0" stroke="#999999" points="1938.75,-33.5 1796.75,-33.5 1796.75,0 1938.75,0 1938.75,-33.5"/>
<text xml:space="preserve" text-anchor="start" x="1804.75" y="-20" font-family="Helvetica,sans-Serif" font-size="10.00">arccore/message_passing</text>
<text xml:space="preserve" text-anchor="middle" x="1867.75" y="-7.25" font-family="Helvetica,sans-Serif" font-size="10.00">/Request.h</text>
</a>
</g>
</g>
<!-- Node3&#45;&gt;Node16 -->
<g id="edge15_Node000003_Node000016" class="edge">
<title>Node3&#45;&gt;Node16</title>
<g id="a_edge15_Node000003_Node000016"><a xlink:title=" ">
<path fill="none" stroke="#63b8ff" d="M1356.31,-75.34C1446.84,-69.54 1624.69,-56.44 1785.24,-33.77"/>
<polygon fill="#63b8ff" stroke="#63b8ff" points="1785.38,-37.29 1794.78,-32.41 1784.39,-30.36 1785.38,-37.29"/>
</a>
</g>
</g>
<!-- Node17 -->
<g id="Node000017" class="node">
<title>Node17</title>
<g id="a_Node000017"><a xlink:title=" ">
<polygon fill="#e0e0e0" stroke="#999999" points="2098.75,-33.5 1956.75,-33.5 1956.75,0 2098.75,0 2098.75,-33.5"/>
<text xml:space="preserve" text-anchor="start" x="1964.75" y="-20" font-family="Helvetica,sans-Serif" font-size="10.00">arccore/message_passing</text>
<text xml:space="preserve" text-anchor="middle" x="2027.75" y="-7.25" font-family="Helvetica,sans-Serif" font-size="10.00">/ISerializeMessage.h</text>
</a>
</g>
</g>
<!-- Node3&#45;&gt;Node17 -->
<g id="edge16_Node000003_Node000017" class="edge">
<title>Node3&#45;&gt;Node17</title>
<g id="a_edge16_Node000003_Node000017"><a xlink:title=" ">
<path fill="none" stroke="#63b8ff" d="M1356.24,-77.21C1469.15,-73.52 1722.4,-62.65 1945.04,-33.76"/>
<polygon fill="#63b8ff" stroke="#63b8ff" points="1945.33,-37.25 1954.79,-32.47 1944.42,-30.31 1945.33,-37.25"/>
</a>
</g>
</g>
<!-- Node18 -->
<g id="Node000018" class="node">
<title>Node18</title>
<g id="a_Node000018"><a xlink:title=" ">
<polygon fill="#e0e0e0" stroke="#999999" points="2258.75,-33.5 2116.75,-33.5 2116.75,0 2258.75,0 2258.75,-33.5"/>
<text xml:space="preserve" text-anchor="start" x="2124.75" y="-20" font-family="Helvetica,sans-Serif" font-size="10.00">arccore/message_passing</text>
<text xml:space="preserve" text-anchor="middle" x="2187.75" y="-7.25" font-family="Helvetica,sans-Serif" font-size="10.00">/ISerializeMessageList.h</text>
</a>
</g>
</g>
<!-- Node3&#45;&gt;Node18 -->
<g id="edge17_Node000003_Node000018" class="edge">
<title>Node3&#45;&gt;Node18</title>
<g id="a_edge17_Node000003_Node000018"><a xlink:title=" ">
<path fill="none" stroke="#63b8ff" d="M1356.53,-78.36C1489.4,-76.6 1819.41,-68.87 2104.88,-33.75"/>
<polygon fill="#63b8ff" stroke="#63b8ff" points="2105.31,-37.22 2114.8,-32.51 2104.44,-30.28 2105.31,-37.22"/>
</a>
</g>
</g>
<!-- Node19 -->
<g id="Node000019" class="node">
<title>Node19</title>
<g id="a_Node000019"><a xlink:title=" ">
<polygon fill="#e0e0e0" stroke="#999999" points="2432.88,-27.12 2276.62,-27.12 2276.62,-6.38 2432.88,-6.38 2432.88,-27.12"/>
<text xml:space="preserve" text-anchor="middle" x="2354.75" y="-13.62" font-family="Helvetica,sans-Serif" font-size="10.00">arccore/serialize/ISerializer.h</text>
</a>
</g>
</g>
<!-- Node3&#45;&gt;Node19 -->
<g id="edge18_Node000003_Node000019" class="edge">
<title>Node3&#45;&gt;Node19</title>
<g id="a_edge18_Node000003_Node000019"><a xlink:title=" ">
<path fill="none" stroke="#63b8ff" d="M1356.36,-78.83C1508.64,-78.12 1924.2,-72.45 2267.75,-33.5 2276.86,-32.47 2286.45,-31.06 2295.81,-29.51"/>
<polygon fill="#63b8ff" stroke="#63b8ff" points="2296.31,-32.97 2305.56,-27.82 2295.11,-26.08 2296.31,-32.97"/>
</a>
</g>
</g>
<!-- Node20 -->
<g id="Node000020" class="node">
<title>Node20</title>
<g id="a_Node000020"><a xlink:href="../../d9/db4/AlienTypes_8h_source.html" target="_top" xlink:title=" ">
<polygon fill="white" stroke="#666666" points="2554.25,-33.5 2451.25,-33.5 2451.25,0 2554.25,0 2554.25,-33.5"/>
<text xml:space="preserve" text-anchor="start" x="2459.25" y="-20" font-family="Helvetica,sans-Serif" font-size="10.00">alien/utils/arccore</text>
<text xml:space="preserve" text-anchor="middle" x="2502.75" y="-7.25" font-family="Helvetica,sans-Serif" font-size="10.00">/AlienTypes.h</text>
</a>
</g>
</g>
<!-- Node3&#45;&gt;Node20 -->
<g id="edge19_Node000003_Node000020" class="edge">
<title>Node3&#45;&gt;Node20</title>
<g id="a_edge19_Node000003_Node000020"><a xlink:title=" ">
<path fill="none" stroke="#63b8ff" d="M1356.31,-78.19C1556.9,-75.62 2207.75,-65.13 2439.92,-33.49"/>
<polygon fill="#63b8ff" stroke="#63b8ff" points="2440.08,-37 2449.49,-32.13 2439.1,-30.07 2440.08,-37"/>
</a>
</g>
</g>
</g>
</svg>
