<?xml version="1.0" encoding="UTF-8" standalone="no"?>
<!DOCTYPE svg PUBLIC "-//W3C//DTD SVG 1.1//EN"
 "http://www.w3.org/Graphics/SVG/1.1/DTD/svg11.dtd">
<!-- Generated by graphviz version 2.43.0 (0)
 -->
<!-- Title: Arccore::ValueFiller::impl::FillTraitsT&lt; unsigned char &gt; Pages: 1 -->
<svg width="148pt" height="349pt"
 viewBox="0.00 0.00 148.00 349.00" xmlns="http://www.w3.org/2000/svg" xmlns:xlink="http://www.w3.org/1999/xlink">
<g id="graph0" class="graph" transform="scale(1 1) rotate(0) translate(4 345)">
<title>Arccore::ValueFiller::impl::FillTraitsT&lt; unsigned char &gt;</title>
<!-- Node1 -->
<g id="Node000001" class="node">
<title>Node1</title>
<g id="a_Node000001"><a xlink:title=" ">
<polygon fill="#999999" stroke="transparent" points="122,-71 18,-71 18,0 122,0 122,-71"/>
<text text-anchor="start" x="23" y="-58.5" font-family="Helvetica,sans-Serif" font-size="10.00">Arccore::ValueFiller</text>
<text text-anchor="start" x="23" y="-47.5" font-family="Helvetica,sans-Serif" font-size="10.00">::impl::FillTraitsT&lt;</text>
<text text-anchor="start" x="28.5" y="-36.5" font-family="Helvetica,sans-Serif" font-size="10.00"> unsigned char &gt;</text>
<text text-anchor="start" x="68" y="-21.5" font-family="Helvetica,sans-Serif" font-size="10.00"> </text>
<text text-anchor="start" x="68" y="-6.5" font-family="Helvetica,sans-Serif" font-size="10.00"> </text>
<polygon fill="#666666" stroke="#666666" points="18,-31.5 18,-31.5 122,-31.5 122,-31.5 18,-31.5"/>
<polygon fill="#666666" stroke="#666666" points="18,-16.5 18,-16.5 122,-16.5 122,-16.5 18,-16.5"/>
<polygon fill="none" stroke="#666666" points="18,0 18,-71 122,-71 122,0 18,0"/>
</a>
</g>
</g>
<!-- Node2 -->
<g id="Node000002" class="node">
<title>Node2</title>
<g id="a_Node000002"><a xlink:href="../../d4/d09/classArccore_1_1ValueFiller_1_1impl_1_1IntegerFillTraitsT.html" target="_top" xlink:title=" ">
<polygon fill="white" stroke="transparent" points="140,-189 0,-189 0,-107 140,-107 140,-189"/>
<text text-anchor="start" x="5" y="-177" font-family="Helvetica,sans-Serif" font-size="10.00">Arccore::ValueFiller</text>
<text text-anchor="start" x="5" y="-166" font-family="Helvetica,sans-Serif" font-size="10.00">::impl::IntegerFillTraitsT</text>
<text text-anchor="start" x="5" y="-155" font-family="Helvetica,sans-Serif" font-size="10.00">&lt; unsigned char, unsigned</text>
<text text-anchor="start" x="50" y="-144" font-family="Helvetica,sans-Serif" font-size="10.00"> short &gt;</text>
<text text-anchor="start" x="68" y="-129" font-family="Helvetica,sans-Serif" font-size="10.00"> </text>
<text text-anchor="start" x="11.5" y="-114" font-family="Helvetica,sans-Serif" font-size="10.00">+</text>
<text text-anchor="start" x="32" y="-114" font-family="Helvetica,sans-Serif" font-size="10.00">IntegerFillTraitsT()</text>
<polygon fill="#bfbfbf" stroke="#bfbfbf" points="0,-139 0,-139 140,-139 140,-139 0,-139"/>
<polygon fill="#bfbfbf" stroke="#bfbfbf" points="0,-124 0,-124 140,-124 140,-124 0,-124"/>
<polygon fill="none" stroke="#bfbfbf" points="0,-107 0,-189 140,-189 140,-107 0,-107"/>
</a>
</g>
</g>
<!-- Node2&#45;&gt;Node1 -->
<g id="edge1_Node000001_Node000002" class="edge">
<title>Node2&#45;&gt;Node1</title>
<g id="a_edge1_Node000001_Node000002"><a xlink:title=" ">
<path fill="none" stroke="#63b8ff" d="M70,-96.72C70,-88.03 70,-79.18 70,-71.03"/>
<polygon fill="none" stroke="#63b8ff" points="66.5,-96.79 70,-106.79 73.5,-96.79 66.5,-96.79"/>
</a>
</g>
</g>
<!-- Node3 -->
<g id="Node000003" class="node">
<title>Node3</title>
<g id="a_Node000003"><a xlink:href="../../d3/d1e/classArccore_1_1ValueFiller_1_1impl_1_1FillTraitsBaseT.html" target="_top" xlink:title=" ">
<polygon fill="white" stroke="transparent" points="127.5,-341 12.5,-341 12.5,-225 127.5,-225 127.5,-341"/>
<text text-anchor="start" x="18" y="-329" font-family="Helvetica,sans-Serif" font-size="10.00">Arccore::ValueFiller</text>
<text text-anchor="start" x="18" y="-318" font-family="Helvetica,sans-Serif" font-size="10.00">::impl::FillTraitsBaseT</text>
<text text-anchor="start" x="25" y="-307" font-family="Helvetica,sans-Serif" font-size="10.00">&lt; unsigned char &gt;</text>
<text text-anchor="start" x="23" y="-292" font-family="Helvetica,sans-Serif" font-size="10.00">&#45;</text>
<text text-anchor="start" x="37" y="-292" font-family="Helvetica,sans-Serif" font-size="10.00">m_min_clamp</text>
<text text-anchor="start" x="23" y="-277" font-family="Helvetica,sans-Serif" font-size="10.00">&#45;</text>
<text text-anchor="start" x="37" y="-277" font-family="Helvetica,sans-Serif" font-size="10.00">m_max_clamp</text>
<text text-anchor="start" x="20.5" y="-262" font-family="Helvetica,sans-Serif" font-size="10.00">+</text>
<text text-anchor="start" x="37" y="-262" font-family="Helvetica,sans-Serif" font-size="10.00">FillTraitsBaseT()</text>
<text text-anchor="start" x="20.5" y="-247" font-family="Helvetica,sans-Serif" font-size="10.00">+</text>
<text text-anchor="start" x="37" y="-247" font-family="Helvetica,sans-Serif" font-size="10.00">minClamp()</text>
<text text-anchor="start" x="20.5" y="-232" font-family="Helvetica,sans-Serif" font-size="10.00">+</text>
<text text-anchor="start" x="37" y="-232" font-family="Helvetica,sans-Serif" font-size="10.00">maxClamp()</text>
<polygon fill="#bfbfbf" stroke="#bfbfbf" points="13,-302 13,-302 128,-302 128,-302 13,-302"/>
<polygon fill="#bfbfbf" stroke="#bfbfbf" points="13,-272 13,-272 35,-272 35,-272 13,-272"/>
<polygon fill="#bfbfbf" stroke="#bfbfbf" points="35,-272 35,-272 128,-272 128,-272 35,-272"/>
<polygon fill="none" stroke="#bfbfbf" points="12.5,-225 12.5,-341 127.5,-341 127.5,-225 12.5,-225"/>
</a>
</g>
</g>
<!-- Node3&#45;&gt;Node2 -->
<g id="edge2_Node000002_Node000003" class="edge">
<title>Node3&#45;&gt;Node2</title>
<g id="a_edge2_Node000002_Node000003"><a xlink:title=" ">
<path fill="none" stroke="#63b8ff" d="M70,-214.66C70,-205.98 70,-197.33 70,-189.28"/>
<polygon fill="none" stroke="#63b8ff" points="66.5,-214.82 70,-224.82 73.5,-214.82 66.5,-214.82"/>
</a>
</g>
</g>
</g>
</svg>
