<?xml version="1.0" encoding="UTF-8" standalone="no"?>
<!DOCTYPE svg PUBLIC "-//W3C//DTD SVG 1.1//EN"
 "http://www.w3.org/Graphics/SVG/1.1/DTD/svg11.dtd">
<!-- Generated by graphviz version 2.43.0 (0)
 -->
<!-- Title: Arcane::mesh::FaceUniqueIdBuilder::FaceUniqueIdBuilder Pages: 1 -->
<svg width="616pt" height="86pt"
 viewBox="0.00 0.00 616.00 86.00" xmlns="http://www.w3.org/2000/svg" xmlns:xlink="http://www.w3.org/1999/xlink">
<g id="graph0" class="graph" transform="scale(1 1) rotate(0) translate(4 82)">
<title>Arcane::mesh::FaceUniqueIdBuilder::FaceUniqueIdBuilder</title>
<!-- Node1 -->
<g id="Node000001" class="node">
<title>Node1</title>
<g id="a_Node000001"><a xlink:title="Construit une instance pour le maillage mesh.">
<polygon fill="#999999" stroke="#666666" points="166,-54 0,-54 0,-24 166,-24 166,-54"/>
<text text-anchor="start" x="8" y="-42" font-family="Helvetica,sans-Serif" font-size="10.00">Arcane::mesh::FaceUnique</text>
<text text-anchor="middle" x="83" y="-31" font-family="Helvetica,sans-Serif" font-size="10.00">IdBuilder::FaceUniqueIdBuilder</text>
</a>
</g>
</g>
<!-- Node2 -->
<g id="Node000002" class="node">
<title>Node2</title>
<g id="a_Node000002"><a xlink:href="../../d1/d17/classArcane_1_1TraceAccessor.html#a0dc4fb7fbd81b8c791b0f7ebb606282d" target="_top" xlink:title="Construit un accesseur via le gestionnaire de trace m.">
<polygon fill="white" stroke="#666666" points="327,-78 202,-78 202,-48 327,-48 327,-78"/>
<text text-anchor="start" x="210" y="-66" font-family="Helvetica,sans-Serif" font-size="10.00">Arcane::TraceAccessor</text>
<text text-anchor="middle" x="264.5" y="-55" font-family="Helvetica,sans-Serif" font-size="10.00">::TraceAccessor</text>
</a>
</g>
</g>
<!-- Node1&#45;&gt;Node2 -->
<g id="edge1_Node000001_Node000002" class="edge">
<title>Node1&#45;&gt;Node2</title>
<g id="a_edge1_Node000001_Node000002"><a xlink:title=" ">
<path fill="none" stroke="#63b8ff" d="M166.13,-49.98C174.66,-51.12 183.29,-52.28 191.69,-53.4"/>
<polygon fill="#63b8ff" stroke="#63b8ff" points="191.44,-56.9 201.82,-54.75 192.37,-49.96 191.44,-56.9"/>
</a>
</g>
</g>
<!-- Node5 -->
<g id="Node000005" class="node">
<title>Node5</title>
<g id="a_Node000005"><a xlink:href="../../d1/d17/classArcane_1_1TraceAccessor.html#ab0263636a823e11152e94c4cd094b706" target="_top" xlink:title="Gestionnaire de trace.">
<polygon fill="white" stroke="#666666" points="327,-30 202,-30 202,0 327,0 327,-30"/>
<text text-anchor="start" x="210" y="-18" font-family="Helvetica,sans-Serif" font-size="10.00">Arcane::TraceAccessor</text>
<text text-anchor="middle" x="264.5" y="-7" font-family="Helvetica,sans-Serif" font-size="10.00">::traceMng</text>
</a>
</g>
</g>
<!-- Node1&#45;&gt;Node5 -->
<g id="edge4_Node000001_Node000005" class="edge">
<title>Node1&#45;&gt;Node5</title>
<g id="a_edge4_Node000001_Node000005"><a xlink:title=" ">
<path fill="none" stroke="#63b8ff" d="M166.13,-28.02C174.66,-26.88 183.29,-25.72 191.69,-24.6"/>
<polygon fill="#63b8ff" stroke="#63b8ff" points="192.37,-28.04 201.82,-23.25 191.44,-21.1 192.37,-28.04"/>
</a>
</g>
</g>
<!-- Node3 -->
<g id="Node000003" class="node">
<title>Node3</title>
<g id="a_Node000003"><a xlink:href="../../d0/d32/namespaceArcane.html#ab92dc7635f8e1ceb84728b8c45dba2b1" target="_top" xlink:title="Créé une référence sur un pointeur.">
<polygon fill="white" stroke="#666666" points="463,-72.5 363,-72.5 363,-53.5 463,-53.5 463,-72.5"/>
<text text-anchor="middle" x="413" y="-60.5" font-family="Helvetica,sans-Serif" font-size="10.00">Arcane::makeRef</text>
</a>
</g>
</g>
<!-- Node2&#45;&gt;Node3 -->
<g id="edge2_Node000002_Node000003" class="edge">
<title>Node2&#45;&gt;Node3</title>
<g id="a_edge2_Node000002_Node000003"><a xlink:title=" ">
<path fill="none" stroke="#63b8ff" d="M327.2,-63C335.65,-63 344.32,-63 352.72,-63"/>
<polygon fill="#63b8ff" stroke="#63b8ff" points="352.82,-66.5 362.82,-63 352.82,-59.5 352.82,-66.5"/>
</a>
</g>
</g>
<!-- Node4 -->
<g id="Node000004" class="node">
<title>Node4</title>
<g id="a_Node000004"><a xlink:href="../../d6/da9/classArcane_1_1Ref.html#ab0cd388abdc8d216d1534c5b0ef9cf83" target="_top" xlink:title="Créé une référence à partir de l&#39;instance t.">
<polygon fill="white" stroke="#666666" points="608,-72.5 499,-72.5 499,-53.5 608,-53.5 608,-72.5"/>
<text text-anchor="middle" x="553.5" y="-60.5" font-family="Helvetica,sans-Serif" font-size="10.00">Arcane::Ref::create</text>
</a>
</g>
</g>
<!-- Node3&#45;&gt;Node4 -->
<g id="edge3_Node000003_Node000004" class="edge">
<title>Node3&#45;&gt;Node4</title>
<g id="a_edge3_Node000003_Node000004"><a xlink:title=" ">
<path fill="none" stroke="#63b8ff" d="M463.22,-63C471.4,-63 479.99,-63 488.47,-63"/>
<polygon fill="#63b8ff" stroke="#63b8ff" points="488.74,-66.5 498.74,-63 488.74,-59.5 488.74,-66.5"/>
</a>
</g>
</g>
</g>
</svg>
