<?xml version="1.0" encoding="UTF-8" standalone="no"?>
<!DOCTYPE svg PUBLIC "-//W3C//DTD SVG 1.1//EN"
 "http://www.w3.org/Graphics/SVG/1.1/DTD/svg11.dtd">
<!-- Generated by graphviz version 2.43.0 (0)
 -->
<!-- Title: Arcane::VariableUtilsInternal::setFromMemoryBuffer Pages: 1 -->
<svg width="374pt" height="149pt"
 viewBox="0.00 0.00 374.00 148.50" xmlns="http://www.w3.org/2000/svg" xmlns:xlink="http://www.w3.org/1999/xlink">

<svg id="main" version="1.1" xmlns="http://www.w3.org/2000/svg" xmlns:xlink="http://www.w3.org/1999/xlink" xml:space="preserve">

<style type="text/css"><![CDATA[
.node, .edge {opacity: 0.7;}
.node.selected, .edge.selected {opacity: 1;}
.edge:hover path { stroke: red; }
.edge:hover polygon { stroke: red; fill: red; }
]]></style>
<script type="application/ecmascript" xlink:href="../../svg.min.js"/>
<svg id="graph" class="graph">
<g id="graph0" class="graph" transform="scale(1 1) rotate(0) translate(4 144.5)">
<title>Arcane::VariableUtilsInternal::setFromMemoryBuffer</title>
<!-- Node1 -->
<g id="Node000001" class="node">
<title>Node1</title>
<g id="a_Node000001"><a xlink:title="Recopie dans la variable v les valeurs values.">
<polygon fill="#999999" stroke="#666666" points="156,-73 0,-73 0,-43 156,-43 156,-73"/>
<text text-anchor="start" x="8" y="-61" font-family="Helvetica,sans-Serif" font-size="10.00">Arcane::VariableUtilsInternal</text>
<text text-anchor="middle" x="78" y="-50" font-family="Helvetica,sans-Serif" font-size="10.00">::setFromMemoryBuffer</text>
</a>
</g>
</g>
<!-- Node2 -->
<g id="Node000002" class="node">
<title>Node2</title>
<g id="a_Node000002"><a xlink:href="../../d1/d15/classArcane_1_1IData.html#a7c19e921aafd61f462cd3a36a30e6036" target="_top" xlink:title=" ">
<polygon fill="white" stroke="#666666" points="366,-122.5 192,-122.5 192,-103.5 366,-103.5 366,-122.5"/>
<text text-anchor="middle" x="279" y="-110.5" font-family="Helvetica,sans-Serif" font-size="10.00">Arcane::IData::_commonInternal</text>
</a>
</g>
</g>
<!-- Node1&#45;&gt;Node2 -->
<g id="edge1_Node000001_Node000002" class="edge">
<title>Node1&#45;&gt;Node2</title>
<g id="a_edge1_Node000001_Node000002"><a xlink:title=" ">
<path fill="none" stroke="#63b8ff" d="M121.33,-73.09C142.4,-80.28 168.37,-88.68 192,-95 200.35,-97.23 209.22,-99.36 217.97,-101.32"/>
<polygon fill="#63b8ff" stroke="#63b8ff" points="217.24,-104.74 227.76,-103.45 218.73,-97.9 217.24,-104.74"/>
</a>
</g>
</g>
<!-- Node3 -->
<g id="Node000003" class="node">
<title>Node3</title>
<g id="a_Node000003"><a xlink:href="../../d5/d96/classArcane_1_1IVariable.html#a7bed84eec0c4089556231bf40233e6ab" target="_top" xlink:title="Données associées à la variable.">
<polygon fill="white" stroke="#666666" points="342.5,-67.5 215.5,-67.5 215.5,-48.5 342.5,-48.5 342.5,-67.5"/>
<text text-anchor="middle" x="279" y="-55.5" font-family="Helvetica,sans-Serif" font-size="10.00">Arcane::IVariable::data</text>
</a>
</g>
</g>
<!-- Node1&#45;&gt;Node3 -->
<g id="edge3_Node000001_Node000003" class="edge">
<title>Node1&#45;&gt;Node3</title>
<g id="a_edge3_Node000001_Node000003"><a xlink:title=" ">
<path fill="none" stroke="#63b8ff" d="M156.22,-58C172.27,-58 189.12,-58 205.01,-58"/>
<polygon fill="#63b8ff" stroke="#63b8ff" points="205.29,-61.5 215.29,-58 205.29,-54.5 205.29,-61.5"/>
</a>
</g>
</g>
<!-- Node4 -->
<g id="Node000004" class="node">
<title>Node4</title>
<g id="a_Node000004"><a xlink:href="../../d6/d9a/classArcane_1_1IDataInternal.html#ae8a6ffa9a21c41532f55652fab730386" target="_top" xlink:title="Interface générique pour les données numériques (nullptr si la donnée n&#39;est pas numérique)">
<polygon fill="white" stroke="#666666" points="339,-30 219,-30 219,0 339,0 339,-30"/>
<text text-anchor="start" x="227" y="-18" font-family="Helvetica,sans-Serif" font-size="10.00">Arcane::IDataInternal</text>
<text text-anchor="middle" x="279" y="-7" font-family="Helvetica,sans-Serif" font-size="10.00">::numericData</text>
</a>
</g>
</g>
<!-- Node1&#45;&gt;Node4 -->
<g id="edge5_Node000001_Node000004" class="edge">
<title>Node1&#45;&gt;Node4</title>
<g id="a_edge5_Node000001_Node000004"><a xlink:title=" ">
<path fill="none" stroke="#63b8ff" d="M148.6,-42.96C168.07,-38.75 189.23,-34.18 208.68,-29.98"/>
<polygon fill="#63b8ff" stroke="#63b8ff" points="209.65,-33.35 218.68,-27.82 208.17,-26.51 209.65,-33.35"/>
</a>
</g>
</g>
<!-- Node2&#45;&gt;Node2 -->
<g id="edge2_Node000002_Node000002" class="edge">
<title>Node2&#45;&gt;Node2</title>
<g id="a_edge2_Node000002_Node000002"><a xlink:title=" ">
<path fill="none" stroke="#63b8ff" d="M248.17,-122.58C233.18,-131.23 243.45,-140.5 279,-140.5 303.99,-140.5 316.49,-135.92 316.5,-130.19"/>
<polygon fill="#63b8ff" stroke="#63b8ff" points="319.05,-127.79 309.83,-122.58 313.79,-132.41 319.05,-127.79"/>
</a>
</g>
</g>
<!-- Node3&#45;&gt;Node3 -->
<g id="edge4_Node000003_Node000003" class="edge">
<title>Node3&#45;&gt;Node3</title>
<g id="a_edge4_Node000003_Node000003"><a xlink:title=" ">
<path fill="none" stroke="#63b8ff" d="M248.17,-67.58C233.18,-76.23 243.45,-85.5 279,-85.5 303.99,-85.5 316.49,-80.92 316.5,-75.19"/>
<polygon fill="#63b8ff" stroke="#63b8ff" points="319.05,-72.79 309.83,-67.58 313.79,-77.41 319.05,-72.79"/>
</a>
</g>
</g>
</g>
</svg>
</svg>

<style type='text/css'>
<![CDATA[
[data-mouse-over-selected='false'] { opacity: 0.7; }
[data-mouse-over-selected='true']  { opacity: 1.0; }
]]>
</style>
<script type="application/ecmascript"><![CDATA[
document.addEventListener('DOMContentLoaded', (event) => {
  highlightEdges();
  highlightAdjacentNodes();
});
]]></script>
</svg>
