<?xml version="1.0" encoding="UTF-8" standalone="no"?>
<!DOCTYPE svg PUBLIC "-//W3C//DTD SVG 1.1//EN"
 "http://www.w3.org/Graphics/SVG/1.1/DTD/svg11.dtd">
<!-- Generated by graphviz version 2.43.0 (0)
 -->
<!-- Title: Arcane::MatItemVariableScalarOutViewT&lt; ItemType, DataType &gt; Pages: 1 -->
<svg width="185pt" height="325pt"
 viewBox="0.00 0.00 185.00 325.00" xmlns="http://www.w3.org/2000/svg" xmlns:xlink="http://www.w3.org/1999/xlink">
<g id="graph0" class="graph" transform="scale(1 1) rotate(0) translate(4 321)">
<title>Arcane::MatItemVariableScalarOutViewT&lt; ItemType, DataType &gt;</title>
<!-- Node1 -->
<g id="Node000001" class="node">
<title>Node1</title>
<g id="a_Node000001"><a xlink:title="Vue en lecture sur une variable scalaire du maillage.">
<polygon fill="#999999" stroke="transparent" points="177,-206 0,-206 0,0 177,0 177,-206"/>
<text text-anchor="start" x="5.5" y="-194" font-family="Helvetica,sans-Serif" font-size="10.00">Arcane::MatItemVariableScalar</text>
<text text-anchor="start" x="5.5" y="-183" font-family="Helvetica,sans-Serif" font-size="10.00">OutViewT&lt; ItemType, DataType &gt;</text>
<text text-anchor="start" x="13.5" y="-168" font-family="Helvetica,sans-Serif" font-size="10.00">&#45;</text>
<text text-anchor="start" x="30.5" y="-168" font-family="Helvetica,sans-Serif" font-size="10.00">m_value</text>
<text text-anchor="start" x="13.5" y="-153" font-family="Helvetica,sans-Serif" font-size="10.00">&#45;</text>
<text text-anchor="start" x="30.5" y="-153" font-family="Helvetica,sans-Serif" font-size="10.00">m_value0</text>
<text text-anchor="start" x="11" y="-138" font-family="Helvetica,sans-Serif" font-size="10.00">+</text>
<text text-anchor="start" x="30.5" y="-138" font-family="Helvetica,sans-Serif" font-size="10.00">MatItemVariableScalarOut</text>
<text text-anchor="start" x="30.5" y="-127" font-family="Helvetica,sans-Serif" font-size="10.00">ViewT()</text>
<text text-anchor="start" x="11" y="-112" font-family="Helvetica,sans-Serif" font-size="10.00">+</text>
<text text-anchor="start" x="30.5" y="-112" font-family="Helvetica,sans-Serif" font-size="10.00">operator[]()</text>
<text text-anchor="start" x="11" y="-97" font-family="Helvetica,sans-Serif" font-size="10.00">+</text>
<text text-anchor="start" x="30.5" y="-97" font-family="Helvetica,sans-Serif" font-size="10.00">operator[]()</text>
<text text-anchor="start" x="11" y="-82" font-family="Helvetica,sans-Serif" font-size="10.00">+</text>
<text text-anchor="start" x="30.5" y="-82" font-family="Helvetica,sans-Serif" font-size="10.00">operator[]()</text>
<text text-anchor="start" x="11" y="-67" font-family="Helvetica,sans-Serif" font-size="10.00">+</text>
<text text-anchor="start" x="30.5" y="-67" font-family="Helvetica,sans-Serif" font-size="10.00">operator[]()</text>
<text text-anchor="start" x="11" y="-52" font-family="Helvetica,sans-Serif" font-size="10.00">+</text>
<text text-anchor="start" x="30.5" y="-52" font-family="Helvetica,sans-Serif" font-size="10.00">value()</text>
<text text-anchor="start" x="11" y="-37" font-family="Helvetica,sans-Serif" font-size="10.00">+</text>
<text text-anchor="start" x="30.5" y="-37" font-family="Helvetica,sans-Serif" font-size="10.00">value0()</text>
<text text-anchor="start" x="11" y="-22" font-family="Helvetica,sans-Serif" font-size="10.00">+</text>
<text text-anchor="start" x="30.5" y="-22" font-family="Helvetica,sans-Serif" font-size="10.00">operator[]()</text>
<text text-anchor="start" x="11" y="-7" font-family="Helvetica,sans-Serif" font-size="10.00">+</text>
<text text-anchor="start" x="30.5" y="-7" font-family="Helvetica,sans-Serif" font-size="10.00">operator[]()</text>
<polygon fill="#666666" stroke="#666666" points="0.5,-178 0.5,-178 177.5,-178 177.5,-178 0.5,-178"/>
<polygon fill="#666666" stroke="#666666" points="0.5,-148 0.5,-148 28.5,-148 28.5,-148 0.5,-148"/>
<polygon fill="#666666" stroke="#666666" points="28.5,-148 28.5,-148 177.5,-148 177.5,-148 28.5,-148"/>
<polygon fill="none" stroke="#666666" points="0,0 0,-206 177,-206 177,0 0,0"/>
</a>
</g>
</g>
<!-- Node2 -->
<g id="Node000002" class="node">
<title>Node2</title>
<g id="a_Node000002"><a xlink:href="../../d5/da8/classArcane_1_1Accelerator_1_1MatVariableViewBase.html" target="_top" xlink:title="Classe de base des vues sur les variables matériaux.">
<polygon fill="white" stroke="transparent" points="156.5,-317 20.5,-317 20.5,-242 156.5,-242 156.5,-317"/>
<text text-anchor="start" x="32" y="-304.5" font-family="Helvetica,sans-Serif" font-size="10.00">Arcane::Accelerator</text>
<text text-anchor="start" x="32" y="-293.5" font-family="Helvetica,sans-Serif" font-size="10.00">::MatVariableViewBase</text>
<text text-anchor="start" x="86.5" y="-278.5" font-family="Helvetica,sans-Serif" font-size="10.00"> </text>
<text text-anchor="start" x="24.5" y="-263.5" font-family="Helvetica,sans-Serif" font-size="10.00">+</text>
<text text-anchor="start" x="37.5" y="-263.5" font-family="Helvetica,sans-Serif" font-size="10.00">MatVariableViewBase()</text>
<text text-anchor="start" x="24.5" y="-248.5" font-family="Helvetica,sans-Serif" font-size="10.00">+</text>
<text text-anchor="start" x="37.5" y="-248.5" font-family="Helvetica,sans-Serif" font-size="10.00">MatVariableViewBase()</text>
<polygon fill="#666666" stroke="#666666" points="20.5,-288.5 20.5,-288.5 156.5,-288.5 156.5,-288.5 20.5,-288.5"/>
<polygon fill="#666666" stroke="#666666" points="20.5,-273.5 20.5,-273.5 156.5,-273.5 156.5,-273.5 20.5,-273.5"/>
<polygon fill="none" stroke="#666666" points="20.5,-242 20.5,-317 156.5,-317 156.5,-242 20.5,-242"/>
</a>
</g>
</g>
<!-- Node2&#45;&gt;Node1 -->
<g id="edge1_Node000001_Node000002" class="edge">
<title>Node2&#45;&gt;Node1</title>
<g id="a_edge1_Node000001_Node000002"><a xlink:title=" ">
<path fill="none" stroke="#63b8ff" d="M88.5,-231.74C88.5,-223.72 88.5,-215.11 88.5,-206.29"/>
<polygon fill="none" stroke="#63b8ff" points="85,-231.92 88.5,-241.92 92,-231.92 85,-231.92"/>
</a>
</g>
</g>
</g>
</svg>
