<?xml version="1.0" encoding="UTF-8" standalone="no"?>
<!DOCTYPE svg PUBLIC "-//W3C//DTD SVG 1.1//EN"
 "http://www.w3.org/Graphics/SVG/1.1/DTD/svg11.dtd">
<!-- Generated by graphviz version 2.43.0 (0)
 -->
<!-- Title: Arcane::Materials::MeshEnvironment::computeMaterialIndexes Pages: 1 -->
<!--zoomable 723 -->

<svg id="main" version="1.1" xmlns="http://www.w3.org/2000/svg" xmlns:xlink="http://www.w3.org/1999/xlink" xml:space="preserve" onload="init(evt)">

<style type="text/css"><![CDATA[
.node, .edge {opacity: 0.7;}
.node.selected, .edge.selected {opacity: 1;}
.edge:hover path { stroke: red; }
.edge:hover polygon { stroke: red; fill: red; }
]]></style>

<defs>
  <circle id="rim" cx="0" cy="0" r="7"/>
  <circle id="rim2" cx="0" cy="0" r="3.5"/>
  <g id="zoomPlus">
    <use xlink:href="#rim" fill="#404040"><set attributeName="fill" to="#808080" begin="zoomplus.mouseover" end="zoomplus.mouseout"/></use>
    <path d="M-4,0h8M0,-4v8" fill="none" stroke="white" stroke-width="1.5" pointer-events="none"/>
  </g>
  <g id="zoomMin">
    <use xlink:href="#rim" fill="#404040"><set attributeName="fill" to="#808080" begin="zoomminus.mouseover" end="zoomminus.mouseout"/></use>
    <path d="M-4,0h8" fill="none" stroke="white" stroke-width="1.5" pointer-events="none"/>
  </g>
  <g id="arrowUp" transform="translate(30 24)">
    <use xlink:href="#rim"/>
    <path pointer-events="none" fill="none" stroke="white" stroke-width="1.5" d="M0,-3.0v7 M-2.5,-0.5L0,-3.0L2.5,-0.5"/>
  </g>
  <g id="arrowRight" transform="rotate(90) translate(36 -43)">
    <use xlink:href="#rim"/>
    <path pointer-events="none" fill="none" stroke="white" stroke-width="1.5" d="M0,-3.0v7 M-2.5,-0.5L0,-3.0L2.5,-0.5"/>
  </g>
  <g id="arrowDown" transform="rotate(180) translate(-30 -48)">
    <use xlink:href="#rim"/>
    <path pointer-events="none" fill="none" stroke="white" stroke-width="1.5" d="M0,-3.0v7 M-2.5,-0.5L0,-3.0L2.5,-0.5"/>
  </g>
  <g id="arrowLeft" transform="rotate(270) translate(-36 17)">
    <use xlink:href="#rim"/>
    <path pointer-events="none" fill="none" stroke="white" stroke-width="1.5" d="M0,-3.0v7 M-2.5,-0.5L0,-3.0L2.5,-0.5"/>
  </g>
  <g id="resetDef">
    <use xlink:href="#rim2" fill="#404040"><set attributeName="fill" to="#808080" begin="reset.mouseover" end="reset.mouseout"/></use>
  </g>
</defs>
<script type="application/ecmascript">
var viewWidth = 835;
var viewHeight = 723;
var sectionId = 'dynsection-9';
</script>
<script type="application/ecmascript" xlink:href="../../svg.min.js"/>
<svg id="graph" class="graph">
<g id="viewport">
<title>Arcane::Materials::MeshEnvironment::computeMaterialIndexes</title>
<!-- Node1 -->
<g id="Node000001" class="node">
<title>Node1</title>
<g id="a_Node000001"><a xlink:title="Calcul les infos sur les matériaux.">
<polygon fill="#999999" stroke="#666666" points="194,-291.5 0,-291.5 0,-250.5 194,-250.5 194,-291.5"/>
<text text-anchor="start" x="8" y="-279.5" font-family="Helvetica,sans-Serif" font-size="10.00">Arcane::Materials::</text>
<text text-anchor="start" x="8" y="-268.5" font-family="Helvetica,sans-Serif" font-size="10.00">MeshEnvironment::computeMaterial</text>
<text text-anchor="middle" x="97" y="-257.5" font-family="Helvetica,sans-Serif" font-size="10.00">Indexes</text>
</a>
</g>
</g>
<!-- Node2 -->
<g id="Node000002" class="node">
<title>Node2</title>
<g id="a_Node000002"><a xlink:href="../../d1/d07/classArcane_1_1Materials_1_1MeshEnvironment.html#a1aba2e0e053c1aa2a0288db1c1b9408a" target="_top" xlink:title="Calcul les infos sur les matériaux en mono&#45;matériaux.">
<polygon fill="white" stroke="#666666" points="430,-409.5 230,-409.5 230,-368.5 430,-368.5 430,-409.5"/>
<text text-anchor="start" x="238" y="-397.5" font-family="Helvetica,sans-Serif" font-size="10.00">Arcane::Materials::</text>
<text text-anchor="start" x="238" y="-386.5" font-family="Helvetica,sans-Serif" font-size="10.00">MeshEnvironment::_computeMaterial</text>
<text text-anchor="middle" x="330" y="-375.5" font-family="Helvetica,sans-Serif" font-size="10.00">IndexesMonoMat</text>
</a>
</g>
</g>
<!-- Node1&#45;&gt;Node2 -->
<g id="edge1_Node000001_Node000002" class="edge">
<title>Node1&#45;&gt;Node2</title>
<g id="a_edge1_Node000001_Node000002"><a xlink:title=" ">
<path fill="none" stroke="#63b8ff" d="M138.24,-291.55C177.62,-311.67 237.67,-342.35 279.86,-363.9"/>
<polygon fill="#63b8ff" stroke="#63b8ff" points="278.34,-367.05 288.84,-368.48 281.52,-360.82 278.34,-367.05"/>
</a>
</g>
</g>
<!-- Node7 -->
<g id="Node000007" class="node">
<title>Node7</title>
<g id="a_Node000007"><a xlink:href="../../d1/d17/classArcane_1_1TraceAccessor.html#a7f15f017b10b72c85bba3fce76314619" target="_top" xlink:title="Flot pour un message d&#39;information.">
<polygon fill="white" stroke="#666666" points="621,-715 496,-715 496,-685 621,-685 621,-715"/>
<text text-anchor="start" x="504" y="-703" font-family="Helvetica,sans-Serif" font-size="10.00">Arcane::TraceAccessor</text>
<text text-anchor="middle" x="558.5" y="-692" font-family="Helvetica,sans-Serif" font-size="10.00">::info</text>
</a>
</g>
</g>
<!-- Node1&#45;&gt;Node7 -->
<g id="edge15_Node000001_Node000007" class="edge">
<title>Node1&#45;&gt;Node7</title>
<g id="a_edge15_Node000001_Node000007"><a xlink:title=" ">
<path fill="none" stroke="#63b8ff" d="M110.4,-291.65C151.7,-358.56 291.86,-571.08 466,-676 472.29,-679.79 479.17,-682.98 486.24,-685.68"/>
<polygon fill="#63b8ff" stroke="#63b8ff" points="485.38,-689.08 495.97,-689.06 487.67,-682.47 485.38,-689.08"/>
</a>
</g>
</g>
<!-- Node16 -->
<g id="Node000016" class="node">
<title>Node16</title>
<g id="a_Node000016"><a xlink:href="../../d1/d07/classArcane_1_1Materials_1_1MeshEnvironment.html#afa88721c8353065636d207f5f03a733a" target="_top" xlink:title="Indique si le milieu est mono&#45;matériau.">
<polygon fill="white" stroke="#666666" points="423.5,-147 236.5,-147 236.5,-117 423.5,-117 423.5,-147"/>
<text text-anchor="start" x="244.5" y="-135" font-family="Helvetica,sans-Serif" font-size="10.00">Arcane::Materials::</text>
<text text-anchor="middle" x="330" y="-124" font-family="Helvetica,sans-Serif" font-size="10.00">MeshEnvironment::isMonoMaterial</text>
</a>
</g>
</g>
<!-- Node1&#45;&gt;Node16 -->
<g id="edge16_Node000001_Node000016" class="edge">
<title>Node1&#45;&gt;Node16</title>
<g id="a_edge16_Node000001_Node000016"><a xlink:title=" ">
<path fill="none" stroke="#63b8ff" d="M132.08,-250.49C175.91,-224.12 251.54,-178.61 295.21,-152.33"/>
<polygon fill="#63b8ff" stroke="#63b8ff" points="297.26,-155.18 304.03,-147.03 293.65,-149.19 297.26,-155.18"/>
</a>
</g>
</g>
<!-- Node20 -->
<g id="Node000020" class="node">
<title>Node20</title>
<g id="a_Node000020"><a xlink:href="../../d1/d07/classArcane_1_1Materials_1_1MeshEnvironment.html#aff863e485346f88b3178dd6cf8204a4d" target="_top" xlink:title="Nom du composant.">
<polygon fill="white" stroke="#666666" points="399.5,-99 260.5,-99 260.5,-69 399.5,-69 399.5,-99"/>
<text text-anchor="start" x="268.5" y="-87" font-family="Helvetica,sans-Serif" font-size="10.00">Arcane::Materials::</text>
<text text-anchor="middle" x="330" y="-76" font-family="Helvetica,sans-Serif" font-size="10.00">MeshEnvironment::name</text>
</a>
</g>
</g>
<!-- Node1&#45;&gt;Node20 -->
<g id="edge21_Node000001_Node000020" class="edge">
<title>Node1&#45;&gt;Node20</title>
<g id="a_edge21_Node000001_Node000020"><a xlink:title=" ">
<path fill="none" stroke="#63b8ff" d="M108.75,-250.35C128.07,-215.35 172.14,-144.59 230,-108 236.32,-104 243.25,-100.67 250.42,-97.89"/>
<polygon fill="#63b8ff" stroke="#63b8ff" points="252.03,-101.04 260.31,-94.44 249.72,-94.43 252.03,-101.04"/>
</a>
</g>
</g>
<!-- Node3 -->
<g id="Node000003" class="node">
<title>Node3</title>
<g id="a_Node000003"><a xlink:href="../../d9/d27/classArcane_1_1ItemGroup.html#a9c2095715fdde3ace95754bbee4d392c" target="_top" xlink:title="API interne à Arcane.">
<polygon fill="white" stroke="#666666" points="615.5,-667 501.5,-667 501.5,-637 615.5,-637 615.5,-667"/>
<text text-anchor="start" x="509.5" y="-655" font-family="Helvetica,sans-Serif" font-size="10.00">Arcane::ItemGroup::</text>
<text text-anchor="middle" x="558.5" y="-644" font-family="Helvetica,sans-Serif" font-size="10.00">_internalApi</text>
</a>
</g>
</g>
<!-- Node2&#45;&gt;Node3 -->
<g id="edge2_Node000002_Node000003" class="edge">
<title>Node2&#45;&gt;Node3</title>
<g id="a_edge2_Node000002_Node000003"><a xlink:title=" ">
<path fill="none" stroke="#63b8ff" d="M344.04,-409.66C363.51,-440.75 400.99,-501.64 430,-555 447.28,-586.78 437.98,-605.12 466,-628 473.46,-634.09 482.3,-638.65 491.5,-642.06"/>
<polygon fill="#63b8ff" stroke="#63b8ff" points="490.58,-645.44 501.18,-645.21 492.75,-638.78 490.58,-645.44"/>
</a>
</g>
</g>
<!-- Node4 -->
<g id="Node000004" class="node">
<title>Node4</title>
<g id="a_Node000004"><a xlink:href="../../d5/d78/classArcane_1_1Materials_1_1matimpl_1_1ConstituentItemBase.html#aabca28714789e3af6be19eb8b071035f" target="_top" xlink:title="Positionne le premier sous&#45;composant.">
<polygon fill="white" stroke="#666666" points="642,-618.5 475,-618.5 475,-577.5 642,-577.5 642,-618.5"/>
<text text-anchor="start" x="483" y="-606.5" font-family="Helvetica,sans-Serif" font-size="10.00">Arcane::Materials::</text>
<text text-anchor="start" x="483" y="-595.5" font-family="Helvetica,sans-Serif" font-size="10.00">matimpl::ConstituentItemBase</text>
<text text-anchor="middle" x="558.5" y="-584.5" font-family="Helvetica,sans-Serif" font-size="10.00">::_setFirstSubItem</text>
</a>
</g>
</g>
<!-- Node2&#45;&gt;Node4 -->
<g id="edge3_Node000002_Node000004" class="edge">
<title>Node2&#45;&gt;Node4</title>
<g id="a_edge3_Node000002_Node000004"><a xlink:title=" ">
<path fill="none" stroke="#63b8ff" d="M340.92,-409.57C359.95,-446.88 405.15,-525.83 466,-569 467.63,-570.16 469.31,-571.27 471.03,-572.34"/>
<polygon fill="#63b8ff" stroke="#63b8ff" points="469.49,-575.49 479.92,-577.33 472.92,-569.38 469.49,-575.49"/>
</a>
</g>
</g>
<!-- Node5 -->
<g id="Node000005" class="node">
<title>Node5</title>
<g id="a_Node000005"><a xlink:href="../../d5/d78/classArcane_1_1Materials_1_1matimpl_1_1ConstituentItemBase.html#a45bc2903fd4da4b90a7dc43017473108" target="_top" xlink:title="Positionne l&#39;indexeur dans les variables matériaux.">
<polygon fill="white" stroke="#666666" points="642,-559.5 475,-559.5 475,-518.5 642,-518.5 642,-559.5"/>
<text text-anchor="start" x="483" y="-547.5" font-family="Helvetica,sans-Serif" font-size="10.00">Arcane::Materials::</text>
<text text-anchor="start" x="483" y="-536.5" font-family="Helvetica,sans-Serif" font-size="10.00">matimpl::ConstituentItemBase</text>
<text text-anchor="middle" x="558.5" y="-525.5" font-family="Helvetica,sans-Serif" font-size="10.00">::_setVariableIndex</text>
</a>
</g>
</g>
<!-- Node2&#45;&gt;Node5 -->
<g id="edge4_Node000002_Node000005" class="edge">
<title>Node2&#45;&gt;Node5</title>
<g id="a_edge4_Node000002_Node000005"><a xlink:title=" ">
<path fill="none" stroke="#63b8ff" d="M349.12,-409.68C373.33,-436.14 418.7,-481.81 466,-509 469.23,-510.86 472.6,-512.62 476.05,-514.29"/>
<polygon fill="#63b8ff" stroke="#63b8ff" points="474.79,-517.56 485.34,-518.49 477.67,-511.18 474.79,-517.56"/>
</a>
</g>
</g>
<!-- Node6 -->
<g id="Node000006" class="node">
<title>Node6</title>
<g id="a_Node000006"><a xlink:href="../../d7/d0f/classArcane_1_1Materials_1_1MeshMaterial.html#aef1c248c6c5eb833732625d01752dd6b" target="_top" xlink:title="Groupe des mailles de ce matériau.">
<polygon fill="white" stroke="#666666" points="614.5,-500 502.5,-500 502.5,-470 614.5,-470 614.5,-500"/>
<text text-anchor="start" x="510.5" y="-488" font-family="Helvetica,sans-Serif" font-size="10.00">Arcane::Materials::</text>
<text text-anchor="middle" x="558.5" y="-477" font-family="Helvetica,sans-Serif" font-size="10.00">MeshMaterial::cells</text>
</a>
</g>
</g>
<!-- Node2&#45;&gt;Node6 -->
<g id="edge5_Node000002_Node000006" class="edge">
<title>Node2&#45;&gt;Node6</title>
<g id="a_edge5_Node000002_Node000006"><a xlink:title=" ">
<path fill="none" stroke="#63b8ff" d="M364.35,-409.62C391.06,-425.43 429.89,-446.86 466,-461 474.42,-464.3 483.46,-467.29 492.45,-469.95"/>
<polygon fill="#63b8ff" stroke="#63b8ff" points="491.58,-473.34 502.16,-472.71 493.5,-466.61 491.58,-473.34"/>
</a>
</g>
</g>
<!-- Node2&#45;&gt;Node7 -->
<g id="edge6_Node000002_Node000007" class="edge">
<title>Node2&#45;&gt;Node7</title>
<g id="a_edge6_Node000002_Node000007"><a xlink:title=" ">
<path fill="none" stroke="#63b8ff" d="M345.58,-409.58C366.65,-440.09 405.73,-499.69 430,-555 452.54,-606.38 425.68,-636.98 466,-676 471.81,-681.62 478.77,-685.97 486.21,-689.32"/>
<polygon fill="#63b8ff" stroke="#63b8ff" points="485.28,-692.71 495.86,-693.06 487.81,-686.19 485.28,-692.71"/>
</a>
</g>
</g>
<!-- Node8 -->
<g id="Node000008" class="node">
<title>Node8</title>
<g id="a_Node000008"><a xlink:href="../../d8/d03/classArcane_1_1ItemGroupImplInternal.html#a79b8be9c5cb6540bf127c19b85ea7868" target="_top" xlink:title="Liste des localId() des entités du groupe.">
<polygon fill="white" stroke="#666666" points="642,-452 475,-452 475,-422 642,-422 642,-452"/>
<text text-anchor="start" x="483" y="-440" font-family="Helvetica,sans-Serif" font-size="10.00">Arcane::ItemGroupImplInternal</text>
<text text-anchor="middle" x="558.5" y="-429" font-family="Helvetica,sans-Serif" font-size="10.00">::itemsLocalId</text>
</a>
</g>
</g>
<!-- Node2&#45;&gt;Node8 -->
<g id="edge7_Node000002_Node000008" class="edge">
<title>Node2&#45;&gt;Node8</title>
<g id="a_edge7_Node000002_Node000008"><a xlink:title=" ">
<path fill="none" stroke="#63b8ff" d="M428.04,-409.57C444.2,-412.99 460.8,-416.51 476.5,-419.83"/>
<polygon fill="#63b8ff" stroke="#63b8ff" points="476.16,-423.34 486.67,-421.99 477.61,-416.49 476.16,-423.34"/>
</a>
</g>
</g>
<!-- Node9 -->
<g id="Node000009" class="node">
<title>Node9</title>
<g id="a_Node000009"><a xlink:href="../../de/dae/namespaceArcane_1_1Accelerator.html#a7a180bb34b6c0f003f0f2c80a7f0ba42" target="_top" xlink:title="Créé une commande associée à la file run_queue.">
<polygon fill="white" stroke="#666666" points="614.5,-404 502.5,-404 502.5,-374 614.5,-374 614.5,-404"/>
<text text-anchor="start" x="510.5" y="-392" font-family="Helvetica,sans-Serif" font-size="10.00">Arcane::Accelerator</text>
<text text-anchor="middle" x="558.5" y="-381" font-family="Helvetica,sans-Serif" font-size="10.00">::makeCommand</text>
</a>
</g>
</g>
<!-- Node2&#45;&gt;Node9 -->
<g id="edge8_Node000002_Node000009" class="edge">
<title>Node2&#45;&gt;Node9</title>
<g id="a_edge8_Node000002_Node000009"><a xlink:title=" ">
<path fill="none" stroke="#63b8ff" d="M430.02,-389C451,-389 472.66,-389 492.02,-389"/>
<polygon fill="#63b8ff" stroke="#63b8ff" points="492.23,-392.5 502.23,-389 492.23,-385.5 492.23,-392.5"/>
</a>
</g>
</g>
<!-- Node10 -->
<g id="Node000010" class="node">
<title>Node10</title>
<g id="a_Node000010"><a xlink:href="../../d7/d0f/classArcane_1_1Materials_1_1MeshMaterial.html#aa3ad024e579cbad569c160c22b259e0b" target="_top" xlink:title="Nom du composant.">
<polygon fill="white" stroke="#666666" points="617,-356 500,-356 500,-326 617,-326 617,-356"/>
<text text-anchor="start" x="508" y="-344" font-family="Helvetica,sans-Serif" font-size="10.00">Arcane::Materials::</text>
<text text-anchor="middle" x="558.5" y="-333" font-family="Helvetica,sans-Serif" font-size="10.00">MeshMaterial::name</text>
</a>
</g>
</g>
<!-- Node2&#45;&gt;Node10 -->
<g id="edge9_Node000002_Node000010" class="edge">
<title>Node2&#45;&gt;Node10</title>
<g id="a_edge9_Node000002_Node000010"><a xlink:title=" ">
<path fill="none" stroke="#63b8ff" d="M428.04,-368.43C448.9,-364.01 470.51,-359.44 489.95,-355.31"/>
<polygon fill="#63b8ff" stroke="#63b8ff" points="490.85,-358.7 499.91,-353.2 489.4,-351.85 490.85,-358.7"/>
</a>
</g>
</g>
<!-- Node11 -->
<g id="Node000011" class="node">
<title>Node11</title>
<g id="a_Node000011"><a xlink:href="../../d8/d03/classArcane_1_1ItemGroupImplInternal.html#a25eaa6d6c26aef2ef7be390a4e875428" target="_top" xlink:title="Indique que le padding SIMD des entités à été effectué">
<polygon fill="white" stroke="#666666" points="642,-308 475,-308 475,-278 642,-278 642,-308"/>
<text text-anchor="start" x="483" y="-296" font-family="Helvetica,sans-Serif" font-size="10.00">Arcane::ItemGroupImplInternal</text>
<text text-anchor="middle" x="558.5" y="-285" font-family="Helvetica,sans-Serif" font-size="10.00">::notifySimdPaddingDone</text>
</a>
</g>
</g>
<!-- Node2&#45;&gt;Node11 -->
<g id="edge10_Node000002_Node000011" class="edge">
<title>Node2&#45;&gt;Node11</title>
<g id="a_edge10_Node000002_Node000011"><a xlink:title=" ">
<path fill="none" stroke="#63b8ff" d="M364.35,-368.38C391.06,-352.57 429.89,-331.14 466,-317 471.39,-314.89 477.03,-312.91 482.74,-311.05"/>
<polygon fill="#63b8ff" stroke="#63b8ff" points="483.89,-314.36 492.41,-308.06 481.82,-307.68 483.89,-314.36"/>
</a>
</g>
</g>
<!-- Node12 -->
<g id="Node000012" class="node">
<title>Node12</title>
<g id="a_Node000012"><a xlink:href="../../d9/d2e/classArcane_1_1ConstArrayView.html#ac6a4f407a7ec0a0e0985113552fe2f54" target="_top" xlink:title="Nombre d&#39;éléments du tableau.">
<polygon fill="white" stroke="#666666" points="625.5,-260 491.5,-260 491.5,-230 625.5,-230 625.5,-260"/>
<text text-anchor="start" x="499.5" y="-248" font-family="Helvetica,sans-Serif" font-size="10.00">Arcane::ConstArrayView</text>
<text text-anchor="middle" x="558.5" y="-237" font-family="Helvetica,sans-Serif" font-size="10.00">::size</text>
</a>
</g>
</g>
<!-- Node2&#45;&gt;Node12 -->
<g id="edge11_Node000002_Node000012" class="edge">
<title>Node2&#45;&gt;Node12</title>
<g id="a_edge11_Node000002_Node000012"><a xlink:title=" ">
<path fill="none" stroke="#63b8ff" d="M348.46,-368.34C372.3,-341.47 417.62,-294.9 466,-269 470.89,-266.38 476.07,-264.04 481.4,-261.94"/>
<polygon fill="#63b8ff" stroke="#63b8ff" points="482.89,-265.13 491.1,-258.43 480.51,-258.54 482.89,-265.13"/>
</a>
</g>
</g>
<!-- Node13 -->
<g id="Node000013" class="node">
<title>Node13</title>
<g id="a_Node000013"><a xlink:href="../../d9/d27/classArcane_1_1ItemGroup.html#a5e13f5b3aed43db2383db28d8036c193" target="_top" xlink:title="Nombre d&#39;éléments du groupe.">
<polygon fill="white" stroke="#666666" points="625.5,-163.5 491.5,-163.5 491.5,-144.5 625.5,-144.5 625.5,-163.5"/>
<text text-anchor="middle" x="558.5" y="-151.5" font-family="Helvetica,sans-Serif" font-size="10.00">Arcane::ItemGroup::size</text>
</a>
</g>
</g>
<!-- Node2&#45;&gt;Node13 -->
<g id="edge12_Node000002_Node000013" class="edge">
<title>Node2&#45;&gt;Node13</title>
<g id="a_edge12_Node000002_Node000013"><a xlink:title=" ">
<path fill="none" stroke="#63b8ff" d="M337.59,-368.47C352.69,-324.89 394.16,-223.05 466,-173 470.86,-169.61 476.2,-166.81 481.77,-164.48"/>
<polygon fill="#63b8ff" stroke="#63b8ff" points="483.14,-167.71 491.34,-161.01 480.75,-161.13 483.14,-167.71"/>
</a>
</g>
</g>
<!-- Node14 -->
<g id="Node000014" class="node">
<title>Node14</title>
<g id="a_Node000014"><a xlink:href="../../de/dae/namespaceArcane_1_1Accelerator.html#ab5d1da28e4e2275bb0acc8fb21fc0bbd" target="_top" xlink:title="Vue en lecture pour les variables materiaux scalaire.">
<polygon fill="white" stroke="#666666" points="614.5,-212 502.5,-212 502.5,-182 614.5,-182 614.5,-212"/>
<text text-anchor="start" x="510.5" y="-200" font-family="Helvetica,sans-Serif" font-size="10.00">Arcane::Accelerator</text>
<text text-anchor="middle" x="558.5" y="-189" font-family="Helvetica,sans-Serif" font-size="10.00">::viewIn</text>
</a>
</g>
</g>
<!-- Node2&#45;&gt;Node14 -->
<g id="edge13_Node000002_Node000014" class="edge">
<title>Node2&#45;&gt;Node14</title>
<g id="a_edge13_Node000002_Node000014"><a xlink:title=" ">
<path fill="none" stroke="#63b8ff" d="M341.71,-368.41C361.36,-332.71 406.66,-259.47 466,-221 474.08,-215.76 483.26,-211.66 492.61,-208.46"/>
<polygon fill="#63b8ff" stroke="#63b8ff" points="493.86,-211.74 502.38,-205.43 491.79,-205.05 493.86,-211.74"/>
</a>
</g>
</g>
<!-- Node15 -->
<g id="Node000015" class="node">
<title>Node15</title>
<g id="a_Node000015"><a xlink:href="../../d9/dee/classArcane_1_1Materials_1_1MeshMaterialVariableRef.html#a0a4061f4142a7a2dfa63a937c1a04d67" target="_top" xlink:title="Variable matériau associée.">
<polygon fill="white" stroke="#666666" points="827,-217.5 687,-217.5 687,-176.5 827,-176.5 827,-217.5"/>
<text text-anchor="start" x="695" y="-205.5" font-family="Helvetica,sans-Serif" font-size="10.00">Arcane::Materials::</text>
<text text-anchor="start" x="695" y="-194.5" font-family="Helvetica,sans-Serif" font-size="10.00">MeshMaterialVariableRef</text>
<text text-anchor="middle" x="757" y="-183.5" font-family="Helvetica,sans-Serif" font-size="10.00">::materialVariable</text>
</a>
</g>
</g>
<!-- Node14&#45;&gt;Node15 -->
<g id="edge14_Node000014_Node000015" class="edge">
<title>Node14&#45;&gt;Node15</title>
<g id="a_edge14_Node000014_Node000015"><a xlink:title=" ">
<path fill="none" stroke="#63b8ff" d="M614.76,-197C633.98,-197 655.93,-197 676.7,-197"/>
<polygon fill="#63b8ff" stroke="#63b8ff" points="676.79,-200.5 686.79,-197 676.79,-193.5 676.79,-200.5"/>
</a>
</g>
</g>
<!-- Node16&#45;&gt;Node13 -->
<g id="edge19_Node000016_Node000013" class="edge">
<title>Node16&#45;&gt;Node13</title>
<g id="a_edge19_Node000016_Node000013"><a xlink:title=" ">
<path fill="none" stroke="#63b8ff" d="M423.78,-141.01C442.85,-142.86 462.72,-144.79 481.13,-146.58"/>
<polygon fill="#63b8ff" stroke="#63b8ff" points="480.9,-150.08 491.2,-147.56 481.58,-143.11 480.9,-150.08"/>
</a>
</g>
</g>
<!-- Node17 -->
<g id="Node000017" class="node">
<title>Node17</title>
<g id="a_Node000017"><a xlink:href="../../d1/d07/classArcane_1_1Materials_1_1MeshEnvironment.html#aba363b57593218a892b0ff050a9401e3" target="_top" xlink:title="Groupe des mailles de ce matériau.">
<polygon fill="white" stroke="#666666" points="625.5,-126 491.5,-126 491.5,-96 625.5,-96 625.5,-126"/>
<text text-anchor="start" x="499.5" y="-114" font-family="Helvetica,sans-Serif" font-size="10.00">Arcane::Materials::</text>
<text text-anchor="middle" x="558.5" y="-103" font-family="Helvetica,sans-Serif" font-size="10.00">MeshEnvironment::cells</text>
</a>
</g>
</g>
<!-- Node16&#45;&gt;Node17 -->
<g id="edge17_Node000016_Node000017" class="edge">
<title>Node16&#45;&gt;Node17</title>
<g id="a_edge17_Node000016_Node000017"><a xlink:title=" ">
<path fill="none" stroke="#63b8ff" d="M423.78,-123.4C442.85,-121.63 462.72,-119.79 481.13,-118.08"/>
<polygon fill="#63b8ff" stroke="#63b8ff" points="481.56,-121.56 491.2,-117.15 480.92,-114.59 481.56,-121.56"/>
</a>
</g>
</g>
<!-- Node18 -->
<g id="Node000018" class="node">
<title>Node18</title>
<g id="a_Node000018"><a xlink:href="../../d1/d07/classArcane_1_1Materials_1_1MeshEnvironment.html#ae5a35ffea021cbac0e87dabe5deaf93c" target="_top" xlink:title="Nombre de matériaux dans le milieu.">
<polygon fill="white" stroke="#666666" points="640.5,-78 476.5,-78 476.5,-48 640.5,-48 640.5,-78"/>
<text text-anchor="start" x="484.5" y="-66" font-family="Helvetica,sans-Serif" font-size="10.00">Arcane::Materials::</text>
<text text-anchor="middle" x="558.5" y="-55" font-family="Helvetica,sans-Serif" font-size="10.00">MeshEnvironment::nbMaterial</text>
</a>
</g>
</g>
<!-- Node16&#45;&gt;Node18 -->
<g id="edge18_Node000016_Node000018" class="edge">
<title>Node16&#45;&gt;Node18</title>
<g id="a_edge18_Node000016_Node000018"><a xlink:title=" ">
<path fill="none" stroke="#63b8ff" d="M403.68,-116.96C412.67,-114.35 421.63,-111.37 430,-108 447.18,-101.08 448.88,-94.08 466,-87 471.03,-84.92 476.28,-82.98 481.63,-81.17"/>
<polygon fill="#63b8ff" stroke="#63b8ff" points="482.86,-84.45 491.31,-78.06 480.72,-77.78 482.86,-84.45"/>
</a>
</g>
</g>
<!-- Node19 -->
<g id="Node000019" class="node">
<title>Node19</title>
<g id="a_Node000019"><a xlink:href="../../d1/d07/classArcane_1_1Materials_1_1MeshEnvironment.html#a9e9be2898ae9118b6e42888dab04f900" target="_top" xlink:title="Nombre total de mailles pour tous les matériaux.">
<polygon fill="white" stroke="#666666" points="651,-30 466,-30 466,0 651,0 651,-30"/>
<text text-anchor="start" x="474" y="-18" font-family="Helvetica,sans-Serif" font-size="10.00">Arcane::Materials::</text>
<text text-anchor="middle" x="558.5" y="-7" font-family="Helvetica,sans-Serif" font-size="10.00">MeshEnvironment::totalNbCellMat</text>
</a>
</g>
</g>
<!-- Node16&#45;&gt;Node19 -->
<g id="edge20_Node000016_Node000019" class="edge">
<title>Node16&#45;&gt;Node19</title>
<g id="a_edge20_Node000016_Node000019"><a xlink:title=" ">
<path fill="none" stroke="#63b8ff" d="M415.99,-116.8C420.96,-114.29 425.68,-111.38 430,-108 457.24,-86.69 438.96,-60.57 466,-39 467.59,-37.73 469.24,-36.53 470.94,-35.39"/>
<polygon fill="#63b8ff" stroke="#63b8ff" points="472.94,-38.28 479.81,-30.21 469.41,-32.23 472.94,-38.28"/>
</a>
</g>
</g>
</g>
</svg>

<g id="navigator" transform="translate(0 0)" fill="#404254">
  <rect fill="#f2f5e9" fill-opacity="0.5" stroke="#606060" stroke-width=".5" x="0" y="0" width="60" height="60"/>
  <use id="zoomplus" xlink:href="#zoomPlus" x="17" y="9" onmousedown="handleZoom(evt,'in')"/>
  <use id="zoomminus" xlink:href="#zoomMin" x="42" y="9" onmousedown="handleZoom(evt,'out')"/>
  <use id="reset" xlink:href="#resetDef" x="30" y="36" onmousedown="handleReset()"/>
   <use id="arrowup" xlink:href="#arrowUp" x="0" y="0" onmousedown="handlePan(0,-1)"/>
  <use id="arrowright" xlink:href="#arrowRight" x="0" y="0" onmousedown="handlePan(1,0)"/>
  <use id="arrowdown" xlink:href="#arrowDown" x="0" y="0" onmousedown="handlePan(0,1)"/>
  <use id="arrowleft" xlink:href="#arrowLeft" x="0" y="0" onmousedown="handlePan(-1,0)"/>
</g>
<svg viewBox="0 0 15 15" width="100%" height="30px" preserveAspectRatio="xMaxYMin meet">
 <g id="arrow_out" transform="scale(0.3 0.3)">
  <a xlink:href="classArcane_1_1Materials_1_1MeshEnvironment_a7b82be1afe01d69118b1e6456af00a98_cgraph_org.svg" target="_base">
   <rect id="button" ry="5" rx="5" y="6" x="6" height="38" width="38"
        fill="#f2f5e9" fill-opacity="0.5" stroke="#606060" stroke-width="1.0"/>
   <path id="arrow"
     d="M 11.500037,31.436501 C 11.940474,20.09759 22.043105,11.32322 32.158766,21.979434 L 37.068811,17.246167 C 37.068811,17.246167 37.088388,32 37.088388,32 L 22.160133,31.978069 C 22.160133,31.978069 26.997745,27.140456 26.997745,27.140456 C 18.528582,18.264221 13.291696,25.230495 11.500037,31.436501 z"
     style="fill:#404040;"/>
  </a>
 </g>
</svg>

<style type='text/css'>
<![CDATA[
[data-mouse-over-selected='false'] { opacity: 0.7; }
[data-mouse-over-selected='true']  { opacity: 1.0; }
]]>
</style>
<script type="application/ecmascript"><![CDATA[
document.addEventListener('DOMContentLoaded', (event) => {
  highlightEdges();
  highlightAdjacentNodes();
});
]]></script>
</svg>
