<?xml version="1.0" encoding="UTF-8" standalone="no"?>
<!DOCTYPE svg PUBLIC "-//W3C//DTD SVG 1.1//EN"
 "http://www.w3.org/Graphics/SVG/1.1/DTD/svg11.dtd">
<!-- Generated by graphviz version 2.43.0 (0)
 -->
<!-- Title: Arcane::Accelerator::impl::MultiThreadAlgo::doScan Pages: 1 -->
<svg width="477pt" height="81pt"
 viewBox="0.00 0.00 477.00 81.00" xmlns="http://www.w3.org/2000/svg" xmlns:xlink="http://www.w3.org/1999/xlink">
<g id="graph0" class="graph" transform="scale(1 1) rotate(0) translate(4 77)">
<title>Arcane::Accelerator::impl::MultiThreadAlgo::doScan</title>
<!-- Node1 -->
<g id="Node000001" class="node">
<title>Node1</title>
<g id="a_Node000001"><a xlink:title="Algorithme de scan multi&#45;thread.">
<polygon fill="#999999" stroke="#666666" points="131,-56.5 0,-56.5 0,-15.5 131,-15.5 131,-56.5"/>
<text text-anchor="start" x="8" y="-44.5" font-family="Helvetica,sans-Serif" font-size="10.00">Arcane::Accelerator</text>
<text text-anchor="start" x="8" y="-33.5" font-family="Helvetica,sans-Serif" font-size="10.00">::impl::MultiThreadAlgo</text>
<text text-anchor="middle" x="65.5" y="-22.5" font-family="Helvetica,sans-Serif" font-size="10.00">::doScan</text>
</a>
</g>
</g>
<!-- Node2 -->
<g id="Node000002" class="node">
<title>Node2</title>
<g id="a_Node000002"><a xlink:href="../../d4/dad/group__Concurrency.html#ga3ccb4306b9c1745f2f5b2f72e727e9cd" target="_top" xlink:title="Applique en concurrence la fonction lambda lambda_function sur l&#39;intervalle d&#39;itération [i0,...">
<polygon fill="white" stroke="#666666" points="313.5,-67.5 173.5,-67.5 173.5,-48.5 313.5,-48.5 313.5,-67.5"/>
<text text-anchor="middle" x="243.5" y="-55.5" font-family="Helvetica,sans-Serif" font-size="10.00">Arcane::arcaneParallelFor</text>
</a>
</g>
</g>
<!-- Node1&#45;&gt;Node2 -->
<g id="edge1_Node000001_Node000002" class="edge">
<title>Node1&#45;&gt;Node2</title>
<g id="a_edge1_Node000001_Node000002"><a xlink:title=" ">
<path fill="none" stroke="#63b8ff" d="M131.04,-44.07C141.44,-45.37 152.33,-46.73 163.04,-48.07"/>
<polygon fill="#63b8ff" stroke="#63b8ff" points="162.88,-51.57 173.23,-49.34 163.74,-44.63 162.88,-51.57"/>
</a>
</g>
</g>
<!-- Node4 -->
<g id="Node000004" class="node">
<title>Node4</title>
<g id="a_Node000004"><a xlink:href="../../d9/d62/classArcane_1_1ParallelLoopOptions.html#abb6d3a03def71e968fb0a8f200319c66" target="_top" xlink:title="Positionne la taille (approximative) d&#39;un intervalle d&#39;itération.">
<polygon fill="white" stroke="#666666" points="320,-30 167,-30 167,0 320,0 320,-30"/>
<text text-anchor="start" x="175" y="-18" font-family="Helvetica,sans-Serif" font-size="10.00">Arcane::ParallelLoopOptions</text>
<text text-anchor="middle" x="243.5" y="-7" font-family="Helvetica,sans-Serif" font-size="10.00">::setGrainSize</text>
</a>
</g>
</g>
<!-- Node1&#45;&gt;Node4 -->
<g id="edge3_Node000001_Node000004" class="edge">
<title>Node1&#45;&gt;Node4</title>
<g id="a_edge3_Node000001_Node000004"><a xlink:title=" ">
<path fill="none" stroke="#63b8ff" d="M131.04,-28.3C139.43,-27.3 148.13,-26.26 156.79,-25.23"/>
<polygon fill="#63b8ff" stroke="#63b8ff" points="157.42,-28.68 166.94,-24.02 156.59,-21.73 157.42,-28.68"/>
</a>
</g>
</g>
<!-- Node3 -->
<g id="Node000003" class="node">
<title>Node3</title>
<g id="a_Node000003"><a xlink:href="../../d6/d0d/classArcane_1_1TaskFactory.html#a73949ddfeb992edab891aff30258205b" target="_top" xlink:title="Exécute le fonctor f en concurrence.">
<polygon fill="white" stroke="#666666" points="469,-73 356,-73 356,-43 469,-43 469,-73"/>
<text text-anchor="start" x="364" y="-61" font-family="Helvetica,sans-Serif" font-size="10.00">Arcane::TaskFactory</text>
<text text-anchor="middle" x="412.5" y="-50" font-family="Helvetica,sans-Serif" font-size="10.00">::executeParallelFor</text>
</a>
</g>
</g>
<!-- Node2&#45;&gt;Node3 -->
<g id="edge2_Node000002_Node000003" class="edge">
<title>Node2&#45;&gt;Node3</title>
<g id="a_edge2_Node000002_Node000003"><a xlink:title=" ">
<path fill="none" stroke="#63b8ff" d="M313.87,-58C324.36,-58 335.15,-58 345.56,-58"/>
<polygon fill="#63b8ff" stroke="#63b8ff" points="345.82,-61.5 355.82,-58 345.82,-54.5 345.82,-61.5"/>
</a>
</g>
</g>
</g>
</svg>
