<?xml version="1.0" encoding="UTF-8" standalone="no"?>
<!DOCTYPE svg PUBLIC "-//W3C//DTD SVG 1.1//EN"
 "http://www.w3.org/Graphics/SVG/1.1/DTD/svg11.dtd">
<!-- Generated by graphviz version 2.43.0 (0)
 -->
<!-- Title: Arcane::CaseOptionBase::updateFromFunction Pages: 1 -->
<svg width="503pt" height="124pt"
 viewBox="0.00 0.00 503.00 124.00" xmlns="http://www.w3.org/2000/svg" xmlns:xlink="http://www.w3.org/1999/xlink">
<g id="graph0" class="graph" transform="scale(1 1) rotate(0) translate(4 120)">
<title>Arcane::CaseOptionBase::updateFromFunction</title>
<!-- Node1 -->
<g id="Node000001" class="node">
<title>Node1</title>
<g id="a_Node000001"><a xlink:title="Met à jour la valeur de l&#39;option à partir d&#39;une fonction.">
<polygon fill="#999999" stroke="#666666" points="137,-73 0,-73 0,-43 137,-43 137,-73"/>
<text text-anchor="start" x="8" y="-61" font-family="Helvetica,sans-Serif" font-size="10.00">Arcane::CaseOptionBase</text>
<text text-anchor="middle" x="68.5" y="-50" font-family="Helvetica,sans-Serif" font-size="10.00">::updateFromFunction</text>
</a>
</g>
</g>
<!-- Node1&#45;&gt;Node1 -->
<g id="edge5_Node000001_Node000001" class="edge">
<title>Node1&#45;&gt;Node1</title>
<g id="a_edge5_Node000001_Node000001"><a xlink:title=" ">
<path fill="none" stroke="#63b8ff" d="M37.21,-73.28C30.26,-82.41 40.69,-91 68.5,-91 85.01,-91 95.4,-87.97 99.66,-83.6"/>
<polygon fill="#63b8ff" stroke="#63b8ff" points="103.16,-83.32 99.79,-73.28 96.16,-83.23 103.16,-83.32"/>
</a>
</g>
</g>
<!-- Node2 -->
<g id="Node000002" class="node">
<title>Node2</title>
<g id="a_Node000002"><a xlink:href="../../df/d69/classArcane_1_1CaseOptionBase.html#a71866952b302177c04df0396b0a028d1" target="_top" xlink:title="Ajoute une traduction pour le nom de l&#39;option.">
<polygon fill="white" stroke="#666666" points="322,-116 173,-116 173,-86 322,-86 322,-116"/>
<text text-anchor="start" x="181" y="-104" font-family="Helvetica,sans-Serif" font-size="10.00">Arcane::CaseOptionBase</text>
<text text-anchor="middle" x="247.5" y="-93" font-family="Helvetica,sans-Serif" font-size="10.00">::addAlternativeNodeName</text>
</a>
</g>
</g>
<!-- Node1&#45;&gt;Node2 -->
<g id="edge1_Node000001_Node000002" class="edge">
<title>Node1&#45;&gt;Node2</title>
<g id="a_edge1_Node000001_Node000002"><a xlink:title=" ">
<path fill="none" stroke="#63b8ff" d="M131.41,-73.04C145.42,-76.44 160.41,-80.09 174.79,-83.58"/>
<polygon fill="#63b8ff" stroke="#63b8ff" points="174.09,-87.01 184.63,-85.97 175.74,-80.21 174.09,-87.01"/>
</a>
</g>
</g>
<!-- Node3 -->
<g id="Node000003" class="node">
<title>Node3</title>
<g id="a_Node000003"><a xlink:href="../../df/d69/classArcane_1_1CaseOptionBase.html#a0211e172af8d89576a9ff1696762d623" target="_top" xlink:title="Retourne le nom de l&#39;option correspondant au langage du jeu de données.">
<polygon fill="white" stroke="#666666" points="495,-94 358,-94 358,-64 495,-64 495,-94"/>
<text text-anchor="start" x="366" y="-82" font-family="Helvetica,sans-Serif" font-size="10.00">Arcane::CaseOptionBase</text>
<text text-anchor="middle" x="426.5" y="-71" font-family="Helvetica,sans-Serif" font-size="10.00">::name</text>
</a>
</g>
</g>
<!-- Node1&#45;&gt;Node3 -->
<g id="edge4_Node000001_Node000003" class="edge">
<title>Node1&#45;&gt;Node3</title>
<g id="a_edge4_Node000001_Node000003"><a xlink:title=" ">
<path fill="none" stroke="#63b8ff" d="M137.3,-62C197.3,-65.54 284.86,-70.7 347.7,-74.41"/>
<polygon fill="#63b8ff" stroke="#63b8ff" points="347.76,-77.92 357.95,-75.02 348.18,-70.93 347.76,-77.92"/>
</a>
</g>
</g>
<!-- Node4 -->
<g id="Node000004" class="node">
<title>Node4</title>
<g id="a_Node000004"><a xlink:href="../../df/d69/classArcane_1_1CaseOptionBase.html#a0dc88dc8a2e456c41a11567d7c176e73" target="_top" xlink:title="Ajoute la valeur par défaut value à la catégorie category.">
<polygon fill="white" stroke="#666666" points="316,-30 179,-30 179,0 316,0 316,-30"/>
<text text-anchor="start" x="187" y="-18" font-family="Helvetica,sans-Serif" font-size="10.00">Arcane::CaseOptionBase</text>
<text text-anchor="middle" x="247.5" y="-7" font-family="Helvetica,sans-Serif" font-size="10.00">::addDefaultValue</text>
</a>
</g>
</g>
<!-- Node1&#45;&gt;Node4 -->
<g id="edge3_Node000001_Node000004" class="edge">
<title>Node1&#45;&gt;Node4</title>
<g id="a_edge3_Node000001_Node000004"><a xlink:title=" ">
<path fill="none" stroke="#63b8ff" d="M131.41,-42.96C145.42,-39.56 160.41,-35.91 174.79,-32.42"/>
<polygon fill="#63b8ff" stroke="#63b8ff" points="175.74,-35.79 184.63,-30.03 174.09,-28.99 175.74,-35.79"/>
</a>
</g>
</g>
<!-- Node2&#45;&gt;Node3 -->
<g id="edge2_Node000002_Node000003" class="edge">
<title>Node2&#45;&gt;Node3</title>
<g id="a_edge2_Node000002_Node000003"><a xlink:title=" ">
<path fill="none" stroke="#63b8ff" d="M322.03,-91.86C330.56,-90.8 339.28,-89.72 347.87,-88.65"/>
<polygon fill="#63b8ff" stroke="#63b8ff" points="348.37,-92.11 357.87,-87.41 347.51,-85.17 348.37,-92.11"/>
</a>
</g>
</g>
</g>
</svg>
