<?xml version="1.0" encoding="UTF-8" standalone="no"?>
<!DOCTYPE svg PUBLIC "-//W3C//DTD SVG 1.1//EN"
 "http://www.w3.org/Graphics/SVG/1.1/DTD/svg11.dtd">
<!-- Generated by graphviz version 2.43.0 (0)
 -->
<!-- Title: Arcane::MessagePassing::HybridMachineMemoryWindowBaseInternal Pages: 1 -->
<svg width="857pt" height="1495pt"
 viewBox="0.00 0.00 857.00 1495.00" xmlns="http://www.w3.org/2000/svg" xmlns:xlink="http://www.w3.org/1999/xlink">
<g id="graph0" class="graph" transform="scale(1 1) rotate(0) translate(4 1491)">
<title>Arcane::MessagePassing::HybridMachineMemoryWindowBaseInternal</title>
<!-- Node1 -->
<g id="Node000001" class="node">
<title>Node1</title>
<g id="a_Node000001"><a xlink:title=" ">
<polygon fill="#999999" stroke="transparent" points="535,-258 341,-258 341,0 535,0 535,-258"/>
<text text-anchor="start" x="346" y="-246" font-family="Helvetica,sans-Serif" font-size="10.00">Arcane::MessagePassing</text>
<text text-anchor="start" x="346" y="-235" font-family="Helvetica,sans-Serif" font-size="10.00">::HybridMachineMemoryWindowBase</text>
<text text-anchor="start" x="419" y="-224" font-family="Helvetica,sans-Serif" font-size="10.00">Internal</text>
<text text-anchor="start" x="350" y="-209" font-family="Helvetica,sans-Serif" font-size="10.00">&#45;</text>
<text text-anchor="start" x="363" y="-209" font-family="Helvetica,sans-Serif" font-size="10.00">m_my_rank_local_proc</text>
<text text-anchor="start" x="350" y="-194" font-family="Helvetica,sans-Serif" font-size="10.00">&#45;</text>
<text text-anchor="start" x="363" y="-194" font-family="Helvetica,sans-Serif" font-size="10.00">m_nb_rank_local_proc</text>
<text text-anchor="start" x="350" y="-179" font-family="Helvetica,sans-Serif" font-size="10.00">&#45;</text>
<text text-anchor="start" x="363" y="-179" font-family="Helvetica,sans-Serif" font-size="10.00">m_my_rank_mpi</text>
<text text-anchor="start" x="350" y="-164" font-family="Helvetica,sans-Serif" font-size="10.00">&#45;</text>
<text text-anchor="start" x="363" y="-164" font-family="Helvetica,sans-Serif" font-size="10.00">m_sizeof_type</text>
<text text-anchor="start" x="347.5" y="-149" font-family="Helvetica,sans-Serif" font-size="10.00">+</text>
<text text-anchor="start" x="363" y="-149" font-family="Helvetica,sans-Serif" font-size="10.00">HybridMachineMemoryWindow</text>
<text text-anchor="start" x="363" y="-138" font-family="Helvetica,sans-Serif" font-size="10.00">BaseInternal()</text>
<text text-anchor="start" x="347.5" y="-123" font-family="Helvetica,sans-Serif" font-size="10.00">+</text>
<text text-anchor="start" x="363" y="-123" font-family="Helvetica,sans-Serif" font-size="10.00">~HybridMachineMemoryWindow</text>
<text text-anchor="start" x="363" y="-112" font-family="Helvetica,sans-Serif" font-size="10.00">BaseInternal()</text>
<text text-anchor="start" x="347.5" y="-97" font-family="Helvetica,sans-Serif" font-size="10.00">+</text>
<text text-anchor="start" x="363" y="-97" font-family="Helvetica,sans-Serif" font-size="10.00">sizeofOneElem()</text>
<text text-anchor="start" x="347.5" y="-82" font-family="Helvetica,sans-Serif" font-size="10.00">+</text>
<text text-anchor="start" x="363" y="-82" font-family="Helvetica,sans-Serif" font-size="10.00">segment()</text>
<text text-anchor="start" x="347.5" y="-67" font-family="Helvetica,sans-Serif" font-size="10.00">+</text>
<text text-anchor="start" x="363" y="-67" font-family="Helvetica,sans-Serif" font-size="10.00">segment()</text>
<text text-anchor="start" x="347.5" y="-52" font-family="Helvetica,sans-Serif" font-size="10.00">+</text>
<text text-anchor="start" x="363" y="-52" font-family="Helvetica,sans-Serif" font-size="10.00">window()</text>
<text text-anchor="start" x="347.5" y="-37" font-family="Helvetica,sans-Serif" font-size="10.00">+</text>
<text text-anchor="start" x="363" y="-37" font-family="Helvetica,sans-Serif" font-size="10.00">resizeSegment()</text>
<text text-anchor="start" x="347.5" y="-22" font-family="Helvetica,sans-Serif" font-size="10.00">+</text>
<text text-anchor="start" x="363" y="-22" font-family="Helvetica,sans-Serif" font-size="10.00">machineRanks()</text>
<text text-anchor="start" x="347.5" y="-7" font-family="Helvetica,sans-Serif" font-size="10.00">+</text>
<text text-anchor="start" x="363" y="-7" font-family="Helvetica,sans-Serif" font-size="10.00">barrier()</text>
<polygon fill="#666666" stroke="#666666" points="341,-219 341,-219 535,-219 535,-219 341,-219"/>
<polygon fill="#666666" stroke="#666666" points="341,-159 341,-159 361,-159 361,-159 341,-159"/>
<polygon fill="#666666" stroke="#666666" points="361,-159 361,-159 535,-159 535,-159 361,-159"/>
<polygon fill="none" stroke="#666666" points="341,0 341,-258 535,-258 535,0 341,0"/>
</a>
</g>
</g>
<!-- Node2 -->
<g id="Node000002" class="node">
<title>Node2</title>
<g id="a_Node000002"><a xlink:href="../../df/df6/classArcane_1_1MessagePassing_1_1IMachineMemoryWindowBaseInternal.html" target="_top" xlink:title="Classe permettant de créer une fenêtre mémoire pour un noeud de calcul.">
<polygon fill="white" stroke="transparent" points="202,-832.5 0,-832.5 0,-656.5 202,-656.5 202,-832.5"/>
<text text-anchor="start" x="5" y="-820.5" font-family="Helvetica,sans-Serif" font-size="10.00">Arcane::MessagePassing</text>
<text text-anchor="start" x="5" y="-809.5" font-family="Helvetica,sans-Serif" font-size="10.00">::IMachineMemoryWindowBaseInternal</text>
<text text-anchor="start" x="99" y="-794.5" font-family="Helvetica,sans-Serif" font-size="10.00"> </text>
<text text-anchor="start" x="10" y="-779.5" font-family="Helvetica,sans-Serif" font-size="10.00">+</text>
<text text-anchor="start" x="29" y="-779.5" font-family="Helvetica,sans-Serif" font-size="10.00">~IMachineMemoryWindowBase</text>
<text text-anchor="start" x="29" y="-768.5" font-family="Helvetica,sans-Serif" font-size="10.00">Internal()</text>
<text text-anchor="start" x="10" y="-753.5" font-family="Helvetica,sans-Serif" font-size="10.00">+</text>
<text text-anchor="start" x="29" y="-753.5" font-family="Helvetica,sans-Serif" font-size="10.00">sizeofOneElem()</text>
<text text-anchor="start" x="10" y="-738.5" font-family="Helvetica,sans-Serif" font-size="10.00">+</text>
<text text-anchor="start" x="29" y="-738.5" font-family="Helvetica,sans-Serif" font-size="10.00">segment()</text>
<text text-anchor="start" x="10" y="-723.5" font-family="Helvetica,sans-Serif" font-size="10.00">+</text>
<text text-anchor="start" x="29" y="-723.5" font-family="Helvetica,sans-Serif" font-size="10.00">segment()</text>
<text text-anchor="start" x="10" y="-708.5" font-family="Helvetica,sans-Serif" font-size="10.00">+</text>
<text text-anchor="start" x="29" y="-708.5" font-family="Helvetica,sans-Serif" font-size="10.00">window()</text>
<text text-anchor="start" x="10" y="-693.5" font-family="Helvetica,sans-Serif" font-size="10.00">+</text>
<text text-anchor="start" x="29" y="-693.5" font-family="Helvetica,sans-Serif" font-size="10.00">resizeSegment()</text>
<text text-anchor="start" x="10" y="-678.5" font-family="Helvetica,sans-Serif" font-size="10.00">+</text>
<text text-anchor="start" x="29" y="-678.5" font-family="Helvetica,sans-Serif" font-size="10.00">machineRanks()</text>
<text text-anchor="start" x="10" y="-663.5" font-family="Helvetica,sans-Serif" font-size="10.00">+</text>
<text text-anchor="start" x="29" y="-663.5" font-family="Helvetica,sans-Serif" font-size="10.00">barrier()</text>
<polygon fill="#666666" stroke="#666666" points="0,-804.5 0,-804.5 202,-804.5 202,-804.5 0,-804.5"/>
<polygon fill="#666666" stroke="#666666" points="0,-789.5 0,-789.5 202,-789.5 202,-789.5 0,-789.5"/>
<polygon fill="none" stroke="#666666" points="0,-656.5 0,-832.5 202,-832.5 202,-656.5 0,-656.5"/>
</a>
</g>
</g>
<!-- Node2&#45;&gt;Node1 -->
<g id="edge1_Node000001_Node000002" class="edge">
<title>Node2&#45;&gt;Node1</title>
<g id="a_edge1_Node000001_Node000002"><a xlink:title=" ">
<path fill="none" stroke="#63b8ff" d="M113.42,-646.36C127.41,-562.84 155.8,-441.58 211,-349 244.3,-293.15 295.55,-241.99 340.93,-203.19"/>
<polygon fill="none" stroke="#63b8ff" points="109.95,-645.92 111.79,-656.35 116.86,-647.05 109.95,-645.92"/>
</a>
</g>
</g>
<!-- Node3 -->
<g id="Node000003" class="node">
<title>Node3</title>
<g id="a_Node000003"><a xlink:href="../../d9/d2e/classArcane_1_1ConstArrayView.html" target="_top" xlink:title=" ">
<polygon fill="white" stroke="transparent" points="348,-962 220,-962 220,-527 348,-527 348,-962"/>
<text text-anchor="start" x="225" y="-949.5" font-family="Helvetica,sans-Serif" font-size="10.00">Arcane::ConstArrayView</text>
<text text-anchor="start" x="260" y="-938.5" font-family="Helvetica,sans-Serif" font-size="10.00">&lt; Int32 &gt;</text>
<text text-anchor="start" x="231.5" y="-923.5" font-family="Helvetica,sans-Serif" font-size="10.00">&#45;</text>
<text text-anchor="start" x="247" y="-923.5" font-family="Helvetica,sans-Serif" font-size="10.00">m_size</text>
<text text-anchor="start" x="231.5" y="-908.5" font-family="Helvetica,sans-Serif" font-size="10.00">&#45;</text>
<text text-anchor="start" x="247" y="-908.5" font-family="Helvetica,sans-Serif" font-size="10.00">m_ptr</text>
<text text-anchor="start" x="231.5" y="-893.5" font-family="Helvetica,sans-Serif" font-size="10.00">&#45;</text>
<text text-anchor="start" x="247" y="-893.5" font-family="Helvetica,sans-Serif" font-size="10.00">m_size</text>
<text text-anchor="start" x="231.5" y="-878.5" font-family="Helvetica,sans-Serif" font-size="10.00">&#45;</text>
<text text-anchor="start" x="247" y="-878.5" font-family="Helvetica,sans-Serif" font-size="10.00">m_ptr</text>
<text text-anchor="start" x="231.5" y="-863.5" font-family="Helvetica,sans-Serif" font-size="10.00">&#45;</text>
<text text-anchor="start" x="247" y="-863.5" font-family="Helvetica,sans-Serif" font-size="10.00">m_size</text>
<text text-anchor="start" x="231.5" y="-848.5" font-family="Helvetica,sans-Serif" font-size="10.00">&#45;</text>
<text text-anchor="start" x="247" y="-848.5" font-family="Helvetica,sans-Serif" font-size="10.00">m_ptr</text>
<text text-anchor="start" x="231.5" y="-833.5" font-family="Helvetica,sans-Serif" font-size="10.00">&#45;</text>
<text text-anchor="start" x="247" y="-833.5" font-family="Helvetica,sans-Serif" font-size="10.00">m_size</text>
<text text-anchor="start" x="231.5" y="-818.5" font-family="Helvetica,sans-Serif" font-size="10.00">&#45;</text>
<text text-anchor="start" x="247" y="-818.5" font-family="Helvetica,sans-Serif" font-size="10.00">m_ptr</text>
<text text-anchor="start" x="229" y="-803.5" font-family="Helvetica,sans-Serif" font-size="10.00">+</text>
<text text-anchor="start" x="247" y="-803.5" font-family="Helvetica,sans-Serif" font-size="10.00">ConstArrayView()</text>
<text text-anchor="start" x="229" y="-788.5" font-family="Helvetica,sans-Serif" font-size="10.00">+</text>
<text text-anchor="start" x="247" y="-788.5" font-family="Helvetica,sans-Serif" font-size="10.00">ConstArrayView()</text>
<text text-anchor="start" x="229" y="-773.5" font-family="Helvetica,sans-Serif" font-size="10.00">+</text>
<text text-anchor="start" x="247" y="-773.5" font-family="Helvetica,sans-Serif" font-size="10.00">ConstArrayView()</text>
<text text-anchor="start" x="229" y="-758.5" font-family="Helvetica,sans-Serif" font-size="10.00">+</text>
<text text-anchor="start" x="247" y="-758.5" font-family="Helvetica,sans-Serif" font-size="10.00">ConstArrayView()</text>
<text text-anchor="start" x="229" y="-743.5" font-family="Helvetica,sans-Serif" font-size="10.00">+</text>
<text text-anchor="start" x="247" y="-743.5" font-family="Helvetica,sans-Serif" font-size="10.00">ConstArrayView()</text>
<text text-anchor="start" x="229" y="-728.5" font-family="Helvetica,sans-Serif" font-size="10.00">+</text>
<text text-anchor="start" x="247" y="-728.5" font-family="Helvetica,sans-Serif" font-size="10.00">operator=()</text>
<text text-anchor="start" x="229" y="-713.5" font-family="Helvetica,sans-Serif" font-size="10.00">+</text>
<text text-anchor="start" x="247" y="-713.5" font-family="Helvetica,sans-Serif" font-size="10.00">operator=()</text>
<text text-anchor="start" x="229" y="-698.5" font-family="Helvetica,sans-Serif" font-size="10.00">+</text>
<text text-anchor="start" x="247" y="-698.5" font-family="Helvetica,sans-Serif" font-size="10.00">operator=()</text>
<text text-anchor="start" x="229" y="-683.5" font-family="Helvetica,sans-Serif" font-size="10.00">+</text>
<text text-anchor="start" x="247" y="-683.5" font-family="Helvetica,sans-Serif" font-size="10.00">subView()</text>
<text text-anchor="start" x="229" y="-668.5" font-family="Helvetica,sans-Serif" font-size="10.00">+</text>
<text text-anchor="start" x="247" y="-668.5" font-family="Helvetica,sans-Serif" font-size="10.00">subPart()</text>
<text text-anchor="start" x="247" y="-653.5" font-family="Helvetica,sans-Serif" font-size="10.00">et 106 de plus...</text>
<text text-anchor="start" x="229" y="-638.5" font-family="Helvetica,sans-Serif" font-size="10.00">+</text>
<text text-anchor="start" x="247" y="-638.5" font-family="Helvetica,sans-Serif" font-size="10.00">create()</text>
<text text-anchor="start" x="229" y="-623.5" font-family="Helvetica,sans-Serif" font-size="10.00">+</text>
<text text-anchor="start" x="247" y="-623.5" font-family="Helvetica,sans-Serif" font-size="10.00">create()</text>
<text text-anchor="start" x="229" y="-608.5" font-family="Helvetica,sans-Serif" font-size="10.00">+</text>
<text text-anchor="start" x="247" y="-608.5" font-family="Helvetica,sans-Serif" font-size="10.00">create()</text>
<text text-anchor="start" x="229" y="-593.5" font-family="Helvetica,sans-Serif" font-size="10.00">+</text>
<text text-anchor="start" x="247" y="-593.5" font-family="Helvetica,sans-Serif" font-size="10.00">create()</text>
<text text-anchor="start" x="231.5" y="-578.5" font-family="Helvetica,sans-Serif" font-size="10.00">&#45;</text>
<text text-anchor="start" x="247" y="-578.5" font-family="Helvetica,sans-Serif" font-size="10.00">_min()</text>
<text text-anchor="start" x="231.5" y="-563.5" font-family="Helvetica,sans-Serif" font-size="10.00">&#45;</text>
<text text-anchor="start" x="247" y="-563.5" font-family="Helvetica,sans-Serif" font-size="10.00">_min()</text>
<text text-anchor="start" x="231.5" y="-548.5" font-family="Helvetica,sans-Serif" font-size="10.00">&#45;</text>
<text text-anchor="start" x="247" y="-548.5" font-family="Helvetica,sans-Serif" font-size="10.00">_min()</text>
<text text-anchor="start" x="231.5" y="-533.5" font-family="Helvetica,sans-Serif" font-size="10.00">&#45;</text>
<text text-anchor="start" x="247" y="-533.5" font-family="Helvetica,sans-Serif" font-size="10.00">_min()</text>
<polygon fill="#666666" stroke="#666666" points="220,-933.5 220,-933.5 348,-933.5 348,-933.5 220,-933.5"/>
<polygon fill="#666666" stroke="#666666" points="220,-813.5 220,-813.5 245,-813.5 245,-813.5 220,-813.5"/>
<polygon fill="#666666" stroke="#666666" points="245,-813.5 245,-813.5 348,-813.5 348,-813.5 245,-813.5"/>
<polygon fill="none" stroke="#666666" points="220,-527 220,-962 348,-962 348,-527 220,-527"/>
</a>
</g>
</g>
<!-- Node3&#45;&gt;Node1 -->
<g id="edge2_Node000001_Node000003" class="edge">
<title>Node3&#45;&gt;Node1</title>
<g id="a_edge2_Node000001_Node000003"><a xlink:title=" ">
<path fill="none" stroke="#63b8ff" d="M286.46,-526.84C293.05,-446.05 307.4,-354.86 337,-276 337.83,-273.78 338.71,-271.56 339.62,-269.35"/>
<polygon fill="none" stroke="#63b8ff" points="339.64,-269.31 338.4,-262.2 344.48,-258.32 345.72,-265.43 339.64,-269.31"/>
</a>
</g>
<text text-anchor="middle" x="385.5" y="-301" font-family="Helvetica,sans-Serif" font-size="10.00" fill="grey"> &#45;m_machine_ranks</text>
</g>
<!-- Node4 -->
<g id="Node000004" class="node">
<title>Node4</title>
<g id="a_Node000004"><a xlink:href="../../d6/da9/classArcane_1_1Ref.html" target="_top" xlink:title=" ">
<polygon fill="white" stroke="transparent" points="529.5,-1140 366.5,-1140 366.5,-349 529.5,-349 529.5,-1140"/>
<text text-anchor="start" x="372" y="-1127.5" font-family="Helvetica,sans-Serif" font-size="10.00">Arcane::Ref&lt; Arcane</text>
<text text-anchor="start" x="372" y="-1116.5" font-family="Helvetica,sans-Serif" font-size="10.00">::MessagePassing::IMachine</text>
<text text-anchor="start" x="372" y="-1105.5" font-family="Helvetica,sans-Serif" font-size="10.00">MemoryWindowBaseInternal &gt;</text>
<text text-anchor="start" x="380" y="-1090.5" font-family="Helvetica,sans-Serif" font-size="10.00">+</text>
<text text-anchor="start" x="402" y="-1090.5" font-family="Helvetica,sans-Serif" font-size="10.00">RefType</text>
<text text-anchor="start" x="380" y="-1075.5" font-family="Helvetica,sans-Serif" font-size="10.00">+</text>
<text text-anchor="start" x="402" y="-1075.5" font-family="Helvetica,sans-Serif" font-size="10.00">RefType</text>
<text text-anchor="start" x="380" y="-1060.5" font-family="Helvetica,sans-Serif" font-size="10.00">+</text>
<text text-anchor="start" x="402" y="-1060.5" font-family="Helvetica,sans-Serif" font-size="10.00">RefType</text>
<text text-anchor="start" x="380" y="-1045.5" font-family="Helvetica,sans-Serif" font-size="10.00">+</text>
<text text-anchor="start" x="402" y="-1045.5" font-family="Helvetica,sans-Serif" font-size="10.00">Ref()</text>
<text text-anchor="start" x="380" y="-1030.5" font-family="Helvetica,sans-Serif" font-size="10.00">+</text>
<text text-anchor="start" x="402" y="-1030.5" font-family="Helvetica,sans-Serif" font-size="10.00">Ref()</text>
<text text-anchor="start" x="380" y="-1015.5" font-family="Helvetica,sans-Serif" font-size="10.00">+</text>
<text text-anchor="start" x="402" y="-1015.5" font-family="Helvetica,sans-Serif" font-size="10.00">Ref()</text>
<text text-anchor="start" x="380" y="-1000.5" font-family="Helvetica,sans-Serif" font-size="10.00">+</text>
<text text-anchor="start" x="402" y="-1000.5" font-family="Helvetica,sans-Serif" font-size="10.00">operator=()</text>
<text text-anchor="start" x="380" y="-985.5" font-family="Helvetica,sans-Serif" font-size="10.00">+</text>
<text text-anchor="start" x="402" y="-985.5" font-family="Helvetica,sans-Serif" font-size="10.00">~Ref()</text>
<text text-anchor="start" x="380" y="-970.5" font-family="Helvetica,sans-Serif" font-size="10.00">+</text>
<text text-anchor="start" x="402" y="-970.5" font-family="Helvetica,sans-Serif" font-size="10.00">operator bool()</text>
<text text-anchor="start" x="380" y="-955.5" font-family="Helvetica,sans-Serif" font-size="10.00">+</text>
<text text-anchor="start" x="402" y="-955.5" font-family="Helvetica,sans-Serif" font-size="10.00">get()</text>
<text text-anchor="start" x="380" y="-940.5" font-family="Helvetica,sans-Serif" font-size="10.00">+</text>
<text text-anchor="start" x="402" y="-940.5" font-family="Helvetica,sans-Serif" font-size="10.00">isNull()</text>
<text text-anchor="start" x="380" y="-925.5" font-family="Helvetica,sans-Serif" font-size="10.00">+</text>
<text text-anchor="start" x="402" y="-925.5" font-family="Helvetica,sans-Serif" font-size="10.00">operator&#45;&gt;()</text>
<text text-anchor="start" x="380" y="-910.5" font-family="Helvetica,sans-Serif" font-size="10.00">+</text>
<text text-anchor="start" x="402" y="-910.5" font-family="Helvetica,sans-Serif" font-size="10.00">reset()</text>
<text text-anchor="start" x="402" y="-895.5" font-family="Helvetica,sans-Serif" font-size="10.00">et 26 de plus...</text>
<text text-anchor="start" x="380" y="-880.5" font-family="Helvetica,sans-Serif" font-size="10.00">+</text>
<text text-anchor="start" x="402" y="-880.5" font-family="Helvetica,sans-Serif" font-size="10.00">create()</text>
<text text-anchor="start" x="380" y="-865.5" font-family="Helvetica,sans-Serif" font-size="10.00">+</text>
<text text-anchor="start" x="402" y="-865.5" font-family="Helvetica,sans-Serif" font-size="10.00">createRef()</text>
<text text-anchor="start" x="380" y="-850.5" font-family="Helvetica,sans-Serif" font-size="10.00">+</text>
<text text-anchor="start" x="402" y="-850.5" font-family="Helvetica,sans-Serif" font-size="10.00">createWithHandle()</text>
<text text-anchor="start" x="380" y="-835.5" font-family="Helvetica,sans-Serif" font-size="10.00">+</text>
<text text-anchor="start" x="402" y="-835.5" font-family="Helvetica,sans-Serif" font-size="10.00">_createNoDestroy()</text>
<text text-anchor="start" x="380" y="-820.5" font-family="Helvetica,sans-Serif" font-size="10.00">+</text>
<text text-anchor="start" x="402" y="-820.5" font-family="Helvetica,sans-Serif" font-size="10.00">create()</text>
<text text-anchor="start" x="380" y="-805.5" font-family="Helvetica,sans-Serif" font-size="10.00">+</text>
<text text-anchor="start" x="402" y="-805.5" font-family="Helvetica,sans-Serif" font-size="10.00">createRef()</text>
<text text-anchor="start" x="380" y="-790.5" font-family="Helvetica,sans-Serif" font-size="10.00">+</text>
<text text-anchor="start" x="402" y="-790.5" font-family="Helvetica,sans-Serif" font-size="10.00">createWithHandle()</text>
<text text-anchor="start" x="380" y="-775.5" font-family="Helvetica,sans-Serif" font-size="10.00">+</text>
<text text-anchor="start" x="402" y="-775.5" font-family="Helvetica,sans-Serif" font-size="10.00">_createNoDestroy()</text>
<text text-anchor="start" x="380" y="-760.5" font-family="Helvetica,sans-Serif" font-size="10.00">+</text>
<text text-anchor="start" x="402" y="-760.5" font-family="Helvetica,sans-Serif" font-size="10.00">create()</text>
<text text-anchor="start" x="380" y="-745.5" font-family="Helvetica,sans-Serif" font-size="10.00">+</text>
<text text-anchor="start" x="402" y="-745.5" font-family="Helvetica,sans-Serif" font-size="10.00">createRef()</text>
<text text-anchor="start" x="380" y="-730.5" font-family="Helvetica,sans-Serif" font-size="10.00">+</text>
<text text-anchor="start" x="402" y="-730.5" font-family="Helvetica,sans-Serif" font-size="10.00">createWithHandle()</text>
<text text-anchor="start" x="380" y="-715.5" font-family="Helvetica,sans-Serif" font-size="10.00">+</text>
<text text-anchor="start" x="402" y="-715.5" font-family="Helvetica,sans-Serif" font-size="10.00">_createNoDestroy()</text>
<text text-anchor="start" x="382.5" y="-700.5" font-family="Helvetica,sans-Serif" font-size="10.00">&#45;</text>
<text text-anchor="start" x="402" y="-700.5" font-family="Helvetica,sans-Serif" font-size="10.00">Ref()</text>
<text text-anchor="start" x="382.5" y="-685.5" font-family="Helvetica,sans-Serif" font-size="10.00">&#45;</text>
<text text-anchor="start" x="402" y="-685.5" font-family="Helvetica,sans-Serif" font-size="10.00">Ref()</text>
<text text-anchor="start" x="382.5" y="-670.5" font-family="Helvetica,sans-Serif" font-size="10.00">&#45;</text>
<text text-anchor="start" x="402" y="-670.5" font-family="Helvetica,sans-Serif" font-size="10.00">Ref()</text>
<text text-anchor="start" x="382.5" y="-655.5" font-family="Helvetica,sans-Serif" font-size="10.00">&#45;</text>
<text text-anchor="start" x="402" y="-655.5" font-family="Helvetica,sans-Serif" font-size="10.00">Ref()</text>
<text text-anchor="start" x="382.5" y="-640.5" font-family="Helvetica,sans-Serif" font-size="10.00">&#45;</text>
<text text-anchor="start" x="402" y="-640.5" font-family="Helvetica,sans-Serif" font-size="10.00">Ref()</text>
<text text-anchor="start" x="382.5" y="-625.5" font-family="Helvetica,sans-Serif" font-size="10.00">&#45;</text>
<text text-anchor="start" x="402" y="-625.5" font-family="Helvetica,sans-Serif" font-size="10.00">Ref()</text>
<text text-anchor="start" x="382.5" y="-610.5" font-family="Helvetica,sans-Serif" font-size="10.00">&#45;</text>
<text text-anchor="start" x="402" y="-610.5" font-family="Helvetica,sans-Serif" font-size="10.00">Ref()</text>
<text text-anchor="start" x="382.5" y="-595.5" font-family="Helvetica,sans-Serif" font-size="10.00">&#45;</text>
<text text-anchor="start" x="402" y="-595.5" font-family="Helvetica,sans-Serif" font-size="10.00">Ref()</text>
<text text-anchor="start" x="382.5" y="-580.5" font-family="Helvetica,sans-Serif" font-size="10.00">&#45;</text>
<text text-anchor="start" x="402" y="-580.5" font-family="Helvetica,sans-Serif" font-size="10.00">Ref()</text>
<text text-anchor="start" x="382.5" y="-565.5" font-family="Helvetica,sans-Serif" font-size="10.00">&#45;</text>
<text text-anchor="start" x="402" y="-565.5" font-family="Helvetica,sans-Serif" font-size="10.00">Ref()</text>
<text text-anchor="start" x="382.5" y="-550.5" font-family="Helvetica,sans-Serif" font-size="10.00">&#45;</text>
<text text-anchor="start" x="402" y="-550.5" font-family="Helvetica,sans-Serif" font-size="10.00">Ref()</text>
<text text-anchor="start" x="382.5" y="-535.5" font-family="Helvetica,sans-Serif" font-size="10.00">&#45;</text>
<text text-anchor="start" x="402" y="-535.5" font-family="Helvetica,sans-Serif" font-size="10.00">Ref()</text>
<text text-anchor="start" x="382.5" y="-520.5" font-family="Helvetica,sans-Serif" font-size="10.00">&#45;</text>
<text text-anchor="start" x="402" y="-520.5" font-family="Helvetica,sans-Serif" font-size="10.00">_createBasicDeleter()</text>
<text text-anchor="start" x="382.5" y="-505.5" font-family="Helvetica,sans-Serif" font-size="10.00">&#45;</text>
<text text-anchor="start" x="402" y="-505.5" font-family="Helvetica,sans-Serif" font-size="10.00">_createBasicDeleter()</text>
<text text-anchor="start" x="382.5" y="-490.5" font-family="Helvetica,sans-Serif" font-size="10.00">&#45;</text>
<text text-anchor="start" x="402" y="-490.5" font-family="Helvetica,sans-Serif" font-size="10.00">_getDeleter()</text>
<text text-anchor="start" x="382.5" y="-475.5" font-family="Helvetica,sans-Serif" font-size="10.00">&#45;</text>
<text text-anchor="start" x="402" y="-475.5" font-family="Helvetica,sans-Serif" font-size="10.00">_getDeleter()</text>
<text text-anchor="start" x="382.5" y="-460.5" font-family="Helvetica,sans-Serif" font-size="10.00">&#45;</text>
<text text-anchor="start" x="402" y="-460.5" font-family="Helvetica,sans-Serif" font-size="10.00">_createBasicDeleter()</text>
<text text-anchor="start" x="382.5" y="-445.5" font-family="Helvetica,sans-Serif" font-size="10.00">&#45;</text>
<text text-anchor="start" x="402" y="-445.5" font-family="Helvetica,sans-Serif" font-size="10.00">_createBasicDeleter()</text>
<text text-anchor="start" x="382.5" y="-430.5" font-family="Helvetica,sans-Serif" font-size="10.00">&#45;</text>
<text text-anchor="start" x="402" y="-430.5" font-family="Helvetica,sans-Serif" font-size="10.00">_getDeleter()</text>
<text text-anchor="start" x="382.5" y="-415.5" font-family="Helvetica,sans-Serif" font-size="10.00">&#45;</text>
<text text-anchor="start" x="402" y="-415.5" font-family="Helvetica,sans-Serif" font-size="10.00">_getDeleter()</text>
<text text-anchor="start" x="382.5" y="-400.5" font-family="Helvetica,sans-Serif" font-size="10.00">&#45;</text>
<text text-anchor="start" x="402" y="-400.5" font-family="Helvetica,sans-Serif" font-size="10.00">_createBasicDeleter()</text>
<text text-anchor="start" x="382.5" y="-385.5" font-family="Helvetica,sans-Serif" font-size="10.00">&#45;</text>
<text text-anchor="start" x="402" y="-385.5" font-family="Helvetica,sans-Serif" font-size="10.00">_createBasicDeleter()</text>
<text text-anchor="start" x="382.5" y="-370.5" font-family="Helvetica,sans-Serif" font-size="10.00">&#45;</text>
<text text-anchor="start" x="402" y="-370.5" font-family="Helvetica,sans-Serif" font-size="10.00">_getDeleter()</text>
<text text-anchor="start" x="382.5" y="-355.5" font-family="Helvetica,sans-Serif" font-size="10.00">&#45;</text>
<text text-anchor="start" x="402" y="-355.5" font-family="Helvetica,sans-Serif" font-size="10.00">_getDeleter()</text>
<polygon fill="#666666" stroke="#666666" points="367,-1100.5 367,-1100.5 530,-1100.5 530,-1100.5 367,-1100.5"/>
<polygon fill="#666666" stroke="#666666" points="367,-1055.5 367,-1055.5 400,-1055.5 400,-1055.5 367,-1055.5"/>
<polygon fill="#666666" stroke="#666666" points="400,-1055.5 400,-1055.5 530,-1055.5 530,-1055.5 400,-1055.5"/>
<polygon fill="none" stroke="#666666" points="366.5,-349 366.5,-1140 529.5,-1140 529.5,-349 366.5,-349"/>
</a>
</g>
</g>
<!-- Node4&#45;&gt;Node1 -->
<g id="edge3_Node000001_Node000004" class="edge">
<title>Node4&#45;&gt;Node1</title>
<g id="a_edge3_Node000001_Node000004"><a xlink:title=" ">
<path fill="none" stroke="#63b8ff" d="M439.25,-348.86C439.16,-342.87 439.08,-336.91 439,-331 438.74,-311.4 438.54,-290.73 438.4,-270.4"/>
<polygon fill="none" stroke="#63b8ff" points="438.4,-270.14 434.36,-264.16 438.31,-258.14 442.35,-264.11 438.4,-270.14"/>
</a>
</g>
<text text-anchor="middle" x="501" y="-323" font-family="Helvetica,sans-Serif" font-size="10.00" fill="grey"> &#45;m_mpi_window</text>
<text text-anchor="start" x="439" y="-312" font-family="Helvetica,sans-Serif" font-size="10.00" fill="grey">&#45;m_sizeof_sub_segments</text>
<text text-anchor="middle" x="501" y="-301" font-family="Helvetica,sans-Serif" font-size="10.00" fill="grey">_global</text>
<text text-anchor="start" x="439" y="-290" font-family="Helvetica,sans-Serif" font-size="10.00" fill="grey">&#45;m_sum_sizeof_sub</text>
<text text-anchor="middle" x="501" y="-279" font-family="Helvetica,sans-Serif" font-size="10.00" fill="grey">_segments_global</text>
</g>
<!-- Node5 -->
<g id="Node000005" class="node">
<title>Node5</title>
<g id="a_Node000005"><a xlink:href="../../d2/db9/classArcane_1_1RefBase.html" target="_top" xlink:title="Classe de base de gestion d&#39;une référence.">
<polygon fill="white" stroke="transparent" points="327.5,-1361.5 236.5,-1361.5 236.5,-1312.5 327.5,-1312.5 327.5,-1361.5"/>
<text text-anchor="start" x="242" y="-1349" font-family="Helvetica,sans-Serif" font-size="10.00">Arcane::RefBase</text>
<text text-anchor="start" x="280.5" y="-1334" font-family="Helvetica,sans-Serif" font-size="10.00"> </text>
<text text-anchor="start" x="280.5" y="-1319" font-family="Helvetica,sans-Serif" font-size="10.00"> </text>
<polygon fill="#666666" stroke="#666666" points="237,-1344 237,-1344 328,-1344 328,-1344 237,-1344"/>
<polygon fill="#666666" stroke="#666666" points="237,-1329 237,-1329 328,-1329 328,-1329 237,-1329"/>
<polygon fill="none" stroke="#666666" points="236.5,-1312.5 236.5,-1361.5 327.5,-1361.5 327.5,-1312.5 236.5,-1312.5"/>
</a>
</g>
</g>
<!-- Node5&#45;&gt;Node4 -->
<g id="edge4_Node000004_Node000005" class="edge">
<title>Node5&#45;&gt;Node4</title>
<g id="a_edge4_Node000004_Node000005"><a xlink:title=" ">
<path fill="none" stroke="#63b8ff" d="M293.76,-1302.73C304.59,-1272.42 321.32,-1226.49 337,-1187 345.38,-1165.9 349.98,-1161.59 357,-1140 360.23,-1130.06 363.4,-1119.94 366.49,-1109.7"/>
<polygon fill="none" stroke="#63b8ff" points="290.38,-1301.79 290.32,-1312.38 296.97,-1304.14 290.38,-1301.79"/>
</a>
</g>
</g>
<!-- Node6 -->
<g id="Node000006" class="node">
<title>Node6</title>
<g id="a_Node000006"><a xlink:href="../../d4/de6/structArcane_1_1RefTraitsTagId.html" target="_top" xlink:title=" ">
<polygon fill="white" stroke="transparent" points="550.5,-1378 345.5,-1378 345.5,-1296 550.5,-1296 550.5,-1378"/>
<text text-anchor="start" x="351" y="-1366" font-family="Helvetica,sans-Serif" font-size="10.00">Arcane::RefTraitsTagId</text>
<text text-anchor="start" x="351" y="-1355" font-family="Helvetica,sans-Serif" font-size="10.00">&lt; Arcane::MessagePassing</text>
<text text-anchor="start" x="351" y="-1344" font-family="Helvetica,sans-Serif" font-size="10.00">::IMachineMemoryWindowBaseInternal,</text>
<text text-anchor="start" x="417.5" y="-1333" font-family="Helvetica,sans-Serif" font-size="10.00"> ImplTagId &gt;</text>
<text text-anchor="start" x="446.5" y="-1318" font-family="Helvetica,sans-Serif" font-size="10.00"> </text>
<text text-anchor="start" x="446.5" y="-1303" font-family="Helvetica,sans-Serif" font-size="10.00"> </text>
<polygon fill="#bfbfbf" stroke="#bfbfbf" points="346,-1328 346,-1328 551,-1328 551,-1328 346,-1328"/>
<polygon fill="#bfbfbf" stroke="#bfbfbf" points="346,-1313 346,-1313 551,-1313 551,-1313 346,-1313"/>
<polygon fill="none" stroke="#bfbfbf" points="345.5,-1296 345.5,-1378 550.5,-1378 550.5,-1296 345.5,-1296"/>
</a>
</g>
</g>
<!-- Node6&#45;&gt;Node4 -->
<g id="edge5_Node000004_Node000006" class="edge">
<title>Node6&#45;&gt;Node4</title>
<g id="a_edge5_Node000004_Node000006"><a xlink:title=" ">
<path fill="none" stroke="#63b8ff" d="M448,-1295.88C448,-1262.36 448,-1210.76 448,-1152.31"/>
<polygon fill="none" stroke="#63b8ff" points="448,-1152.14 444,-1146.14 448,-1140.14 452,-1146.14 448,-1152.14"/>
</a>
</g>
<text text-anchor="middle" x="480" y="-1161" font-family="Helvetica,sans-Serif" font-size="10.00" fill="grey"> &#45;m_instance</text>
</g>
<!-- Node7 -->
<g id="Node000007" class="node">
<title>Node7</title>
<g id="a_Node000007"><a xlink:href="../../d2/d5e/classArcane_1_1Span.html" target="_top" xlink:title=" ">
<polygon fill="white" stroke="transparent" points="676,-874 554,-874 554,-615 676,-615 676,-874"/>
<text text-anchor="start" x="559" y="-861.5" font-family="Helvetica,sans-Serif" font-size="10.00">Arcane::Span&lt; Int64 &gt;</text>
<text text-anchor="start" x="613" y="-846.5" font-family="Helvetica,sans-Serif" font-size="10.00"> </text>
<text text-anchor="start" x="565" y="-831.5" font-family="Helvetica,sans-Serif" font-size="10.00">+</text>
<text text-anchor="start" x="585" y="-831.5" font-family="Helvetica,sans-Serif" font-size="10.00">Span()</text>
<text text-anchor="start" x="565" y="-816.5" font-family="Helvetica,sans-Serif" font-size="10.00">+</text>
<text text-anchor="start" x="585" y="-816.5" font-family="Helvetica,sans-Serif" font-size="10.00">Span()</text>
<text text-anchor="start" x="565" y="-801.5" font-family="Helvetica,sans-Serif" font-size="10.00">+</text>
<text text-anchor="start" x="585" y="-801.5" font-family="Helvetica,sans-Serif" font-size="10.00">Span()</text>
<text text-anchor="start" x="565" y="-786.5" font-family="Helvetica,sans-Serif" font-size="10.00">+</text>
<text text-anchor="start" x="585" y="-786.5" font-family="Helvetica,sans-Serif" font-size="10.00">Span()</text>
<text text-anchor="start" x="565" y="-771.5" font-family="Helvetica,sans-Serif" font-size="10.00">+</text>
<text text-anchor="start" x="585" y="-771.5" font-family="Helvetica,sans-Serif" font-size="10.00">Span()</text>
<text text-anchor="start" x="565" y="-756.5" font-family="Helvetica,sans-Serif" font-size="10.00">+</text>
<text text-anchor="start" x="585" y="-756.5" font-family="Helvetica,sans-Serif" font-size="10.00">Span()</text>
<text text-anchor="start" x="565" y="-741.5" font-family="Helvetica,sans-Serif" font-size="10.00">+</text>
<text text-anchor="start" x="585" y="-741.5" font-family="Helvetica,sans-Serif" font-size="10.00">Span()</text>
<text text-anchor="start" x="565" y="-726.5" font-family="Helvetica,sans-Serif" font-size="10.00">+</text>
<text text-anchor="start" x="585" y="-726.5" font-family="Helvetica,sans-Serif" font-size="10.00">Span()</text>
<text text-anchor="start" x="565" y="-711.5" font-family="Helvetica,sans-Serif" font-size="10.00">+</text>
<text text-anchor="start" x="585" y="-711.5" font-family="Helvetica,sans-Serif" font-size="10.00">Span()</text>
<text text-anchor="start" x="565" y="-696.5" font-family="Helvetica,sans-Serif" font-size="10.00">+</text>
<text text-anchor="start" x="585" y="-696.5" font-family="Helvetica,sans-Serif" font-size="10.00">operator=()</text>
<text text-anchor="start" x="585" y="-681.5" font-family="Helvetica,sans-Serif" font-size="10.00">et 58 de plus...</text>
<text text-anchor="start" x="565" y="-666.5" font-family="Helvetica,sans-Serif" font-size="10.00">+</text>
<text text-anchor="start" x="585" y="-666.5" font-family="Helvetica,sans-Serif" font-size="10.00">create()</text>
<text text-anchor="start" x="565" y="-651.5" font-family="Helvetica,sans-Serif" font-size="10.00">+</text>
<text text-anchor="start" x="585" y="-651.5" font-family="Helvetica,sans-Serif" font-size="10.00">create()</text>
<text text-anchor="start" x="565" y="-636.5" font-family="Helvetica,sans-Serif" font-size="10.00">+</text>
<text text-anchor="start" x="585" y="-636.5" font-family="Helvetica,sans-Serif" font-size="10.00">create()</text>
<text text-anchor="start" x="565" y="-621.5" font-family="Helvetica,sans-Serif" font-size="10.00">+</text>
<text text-anchor="start" x="585" y="-621.5" font-family="Helvetica,sans-Serif" font-size="10.00">create()</text>
<polygon fill="#666666" stroke="#666666" points="554,-856.5 554,-856.5 676,-856.5 676,-856.5 554,-856.5"/>
<polygon fill="#666666" stroke="#666666" points="554,-841.5 554,-841.5 676,-841.5 676,-841.5 554,-841.5"/>
<polygon fill="none" stroke="#666666" points="554,-615 554,-874 676,-874 676,-615 554,-615"/>
</a>
</g>
</g>
<!-- Node7&#45;&gt;Node1 -->
<g id="edge6_Node000001_Node000007" class="edge">
<title>Node7&#45;&gt;Node1</title>
<g id="a_edge6_Node000001_Node000007"><a xlink:title=" ">
<path fill="none" stroke="#63b8ff" d="M620.73,-614.79C620.38,-517.85 609.73,-383.69 563,-276 557.4,-263.09 550.24,-250.46 542.21,-238.39"/>
<polygon fill="none" stroke="#63b8ff" points="542.1,-238.24 535.4,-235.59 535.26,-228.38 541.97,-231.03 542.1,-238.24"/>
</a>
</g>
<text text-anchor="start" x="580" y="-317.5" font-family="Helvetica,sans-Serif" font-size="10.00" fill="grey"> &#45;m_sizeof_sub_segments</text>
<text text-anchor="middle" x="655.5" y="-306.5" font-family="Helvetica,sans-Serif" font-size="10.00" fill="grey">_local_proc</text>
<text text-anchor="start" x="580" y="-295.5" font-family="Helvetica,sans-Serif" font-size="10.00" fill="grey">&#45;m_sum_sizeof_sub_segments</text>
<text text-anchor="middle" x="655.5" y="-284.5" font-family="Helvetica,sans-Serif" font-size="10.00" fill="grey">_local_proc</text>
</g>
<!-- Node8 -->
<g id="Node000008" class="node">
<title>Node8</title>
<g id="a_Node000008"><a xlink:href="../../df/d52/classArcane_1_1SpanImpl.html" target="_top" xlink:title="Vue d&#39;un tableau d&#39;éléments de type T.">
<polygon fill="white" stroke="transparent" points="725,-1487 569,-1487 569,-1187 725,-1187 725,-1487"/>
<text text-anchor="start" x="574" y="-1475" font-family="Helvetica,sans-Serif" font-size="10.00">Arcane::SpanImpl&lt; T,</text>
<text text-anchor="start" x="574" y="-1464" font-family="Helvetica,sans-Serif" font-size="10.00"> SizeType, Extent, MinValue &gt;</text>
<text text-anchor="start" x="591" y="-1449" font-family="Helvetica,sans-Serif" font-size="10.00">&#45;</text>
<text text-anchor="start" x="617" y="-1449" font-family="Helvetica,sans-Serif" font-size="10.00">m_ptr</text>
<text text-anchor="start" x="591" y="-1434" font-family="Helvetica,sans-Serif" font-size="10.00">&#45;</text>
<text text-anchor="start" x="617" y="-1434" font-family="Helvetica,sans-Serif" font-size="10.00">m_size</text>
<text text-anchor="start" x="588.5" y="-1419" font-family="Helvetica,sans-Serif" font-size="10.00">+</text>
<text text-anchor="start" x="617" y="-1419" font-family="Helvetica,sans-Serif" font-size="10.00">SpanImpl()</text>
<text text-anchor="start" x="588.5" y="-1404" font-family="Helvetica,sans-Serif" font-size="10.00">+</text>
<text text-anchor="start" x="617" y="-1404" font-family="Helvetica,sans-Serif" font-size="10.00">SpanImpl()</text>
<text text-anchor="start" x="588.5" y="-1389" font-family="Helvetica,sans-Serif" font-size="10.00">+</text>
<text text-anchor="start" x="617" y="-1389" font-family="Helvetica,sans-Serif" font-size="10.00">SpanImpl()</text>
<text text-anchor="start" x="588.5" y="-1374" font-family="Helvetica,sans-Serif" font-size="10.00">+</text>
<text text-anchor="start" x="617" y="-1374" font-family="Helvetica,sans-Serif" font-size="10.00">SpanImpl()</text>
<text text-anchor="start" x="588.5" y="-1359" font-family="Helvetica,sans-Serif" font-size="10.00">+</text>
<text text-anchor="start" x="617" y="-1359" font-family="Helvetica,sans-Serif" font-size="10.00">SpanImpl()</text>
<text text-anchor="start" x="588.5" y="-1344" font-family="Helvetica,sans-Serif" font-size="10.00">+</text>
<text text-anchor="start" x="617" y="-1344" font-family="Helvetica,sans-Serif" font-size="10.00">operator=()</text>
<text text-anchor="start" x="588.5" y="-1329" font-family="Helvetica,sans-Serif" font-size="10.00">+</text>
<text text-anchor="start" x="617" y="-1329" font-family="Helvetica,sans-Serif" font-size="10.00">operator[]()</text>
<text text-anchor="start" x="588.5" y="-1314" font-family="Helvetica,sans-Serif" font-size="10.00">+</text>
<text text-anchor="start" x="617" y="-1314" font-family="Helvetica,sans-Serif" font-size="10.00">operator()()</text>
<text text-anchor="start" x="588.5" y="-1299" font-family="Helvetica,sans-Serif" font-size="10.00">+</text>
<text text-anchor="start" x="617" y="-1299" font-family="Helvetica,sans-Serif" font-size="10.00">item()</text>
<text text-anchor="start" x="588.5" y="-1284" font-family="Helvetica,sans-Serif" font-size="10.00">+</text>
<text text-anchor="start" x="617" y="-1284" font-family="Helvetica,sans-Serif" font-size="10.00">setItem()</text>
<text text-anchor="start" x="617" y="-1269" font-family="Helvetica,sans-Serif" font-size="10.00">et 28 de plus...</text>
<text text-anchor="start" x="588.5" y="-1254" font-family="Helvetica,sans-Serif" font-size="10.00">+</text>
<text text-anchor="start" x="617" y="-1254" font-family="Helvetica,sans-Serif" font-size="10.00">create()</text>
<text text-anchor="start" x="588.5" y="-1239" font-family="Helvetica,sans-Serif" font-size="10.00">#</text>
<text text-anchor="start" x="617" y="-1239" font-family="Helvetica,sans-Serif" font-size="10.00">_setArray()</text>
<text text-anchor="start" x="588.5" y="-1224" font-family="Helvetica,sans-Serif" font-size="10.00">#</text>
<text text-anchor="start" x="617" y="-1224" font-family="Helvetica,sans-Serif" font-size="10.00">_setPtr()</text>
<text text-anchor="start" x="588.5" y="-1209" font-family="Helvetica,sans-Serif" font-size="10.00">#</text>
<text text-anchor="start" x="617" y="-1209" font-family="Helvetica,sans-Serif" font-size="10.00">_setSize()</text>
<text text-anchor="start" x="591" y="-1194" font-family="Helvetica,sans-Serif" font-size="10.00">&#45;</text>
<text text-anchor="start" x="617" y="-1194" font-family="Helvetica,sans-Serif" font-size="10.00">_min()</text>
<polygon fill="#666666" stroke="#666666" points="569,-1459 569,-1459 725,-1459 725,-1459 569,-1459"/>
<polygon fill="#666666" stroke="#666666" points="569,-1429 569,-1429 615,-1429 615,-1429 569,-1429"/>
<polygon fill="#666666" stroke="#666666" points="615,-1429 615,-1429 725,-1429 725,-1429 615,-1429"/>
<polygon fill="none" stroke="#666666" points="569,-1187 569,-1487 725,-1487 725,-1187 569,-1187"/>
</a>
</g>
</g>
<!-- Node8&#45;&gt;Node7 -->
<g id="edge7_Node000007_Node000008" class="edge">
<title>Node8&#45;&gt;Node7</title>
<g id="a_edge7_Node000007_Node000008"><a xlink:title=" ">
<path fill="none" stroke="#63b8ff" d="M638.37,-1176.73C633.23,-1081.95 626.8,-963.26 621.99,-874.4"/>
<polygon fill="none" stroke="#63b8ff" points="634.89,-1177.2 638.93,-1186.99 641.88,-1176.82 634.89,-1177.2"/>
</a>
</g>
</g>
<!-- Node9 -->
<g id="Node000009" class="node">
<title>Node9</title>
<g id="a_Node000009"><a xlink:href="../../d5/d57/classArcane_1_1IThreadBarrier.html" target="_top" xlink:title="Interface d&#39;une barrière entre threads.">
<polygon fill="white" stroke="transparent" points="819,-791.5 699,-791.5 699,-697.5 819,-697.5 819,-791.5"/>
<text text-anchor="start" x="704" y="-779.5" font-family="Helvetica,sans-Serif" font-size="10.00">Arcane::IThreadBarrier</text>
<text text-anchor="start" x="757" y="-764.5" font-family="Helvetica,sans-Serif" font-size="10.00"> </text>
<text text-anchor="start" x="706" y="-749.5" font-family="Helvetica,sans-Serif" font-size="10.00">+</text>
<text text-anchor="start" x="722" y="-749.5" font-family="Helvetica,sans-Serif" font-size="10.00">init()</text>
<text text-anchor="start" x="706" y="-734.5" font-family="Helvetica,sans-Serif" font-size="10.00">+</text>
<text text-anchor="start" x="722" y="-734.5" font-family="Helvetica,sans-Serif" font-size="10.00">destroy()</text>
<text text-anchor="start" x="706" y="-719.5" font-family="Helvetica,sans-Serif" font-size="10.00">+</text>
<text text-anchor="start" x="722" y="-719.5" font-family="Helvetica,sans-Serif" font-size="10.00">wait()</text>
<text text-anchor="start" x="706" y="-704.5" font-family="Helvetica,sans-Serif" font-size="10.00">#</text>
<text text-anchor="start" x="722" y="-704.5" font-family="Helvetica,sans-Serif" font-size="10.00">~IThreadBarrier()</text>
<polygon fill="#666666" stroke="#666666" points="699,-774.5 699,-774.5 819,-774.5 819,-774.5 699,-774.5"/>
<polygon fill="#666666" stroke="#666666" points="699,-759.5 699,-759.5 819,-759.5 819,-759.5 699,-759.5"/>
<polygon fill="none" stroke="#666666" points="699,-697.5 699,-791.5 819,-791.5 819,-697.5 699,-697.5"/>
</a>
</g>
</g>
<!-- Node9&#45;&gt;Node1 -->
<g id="edge8_Node000001_Node000009" class="edge">
<title>Node9&#45;&gt;Node1</title>
<g id="a_edge8_Node000001_Node000009"><a xlink:title=" ">
<path fill="none" stroke="#63b8ff" d="M770.8,-697.34C790.88,-607.73 821.63,-407.49 735,-276 692.58,-211.62 613.02,-174.62 546.92,-153.98"/>
<polygon fill="none" stroke="#63b8ff" points="546.66,-153.9 539.76,-156 535.17,-150.44 542.07,-148.34 546.66,-153.9"/>
</a>
</g>
<text text-anchor="middle" x="803.5" y="-301" font-family="Helvetica,sans-Serif" font-size="10.00" fill="grey"> &#45;m_thread_barrier</text>
</g>
</g>
</svg>
