<?xml version="1.0" encoding="UTF-8" standalone="no"?>
<!DOCTYPE svg PUBLIC "-//W3C//DTD SVG 1.1//EN"
 "http://www.w3.org/Graphics/SVG/1.1/DTD/svg11.dtd">
<!-- Generated by graphviz version 2.43.0 (0)
 -->
<!-- Title: Arcane::IMeshWriter Pages: 1 -->
<svg width="817pt" height="367pt"
 viewBox="0.00 0.00 816.50 367.00" xmlns="http://www.w3.org/2000/svg" xmlns:xlink="http://www.w3.org/1999/xlink">
<g id="graph0" class="graph" transform="scale(1 1) rotate(0) translate(4 363)">
<title>Arcane::IMeshWriter</title>
<!-- Node1 -->
<g id="Node000001" class="node">
<title>Node1</title>
<g id="a_Node000001"><a xlink:title="Interface d&#39;un service d&#39;écriture d&#39;un maillage.">
<polygon fill="#999999" stroke="transparent" points="428.5,-359 318.5,-359 318.5,-280 428.5,-280 428.5,-359"/>
<text text-anchor="start" x="323.5" y="-346.5" font-family="Helvetica,sans-Serif" font-size="10.00">Arcane::IMeshWriter</text>
<text text-anchor="start" x="371.5" y="-331.5" font-family="Helvetica,sans-Serif" font-size="10.00"> </text>
<text text-anchor="start" x="323" y="-316.5" font-family="Helvetica,sans-Serif" font-size="10.00">+</text>
<text text-anchor="start" x="336.5" y="-316.5" font-family="Helvetica,sans-Serif" font-size="10.00">~IMeshWriter()</text>
<text text-anchor="start" x="323" y="-301.5" font-family="Helvetica,sans-Serif" font-size="10.00">+</text>
<text text-anchor="start" x="336.5" y="-301.5" font-family="Helvetica,sans-Serif" font-size="10.00">build()</text>
<text text-anchor="start" x="323" y="-286.5" font-family="Helvetica,sans-Serif" font-size="10.00">+</text>
<text text-anchor="start" x="336.5" y="-286.5" font-family="Helvetica,sans-Serif" font-size="10.00">writeMeshToFile()</text>
<polygon fill="#666666" stroke="#666666" points="318.5,-341.5 318.5,-341.5 428.5,-341.5 428.5,-341.5 318.5,-341.5"/>
<polygon fill="#666666" stroke="#666666" points="318.5,-326.5 318.5,-326.5 428.5,-326.5 428.5,-326.5 318.5,-326.5"/>
<polygon fill="none" stroke="#666666" points="318.5,-280 318.5,-359 428.5,-359 428.5,-280 318.5,-280"/>
</a>
</g>
</g>
<!-- Node2 -->
<g id="Node000002" class="node">
<title>Node2</title>
<g id="a_Node000002"><a xlink:href="../../da/d6c/classArcane_1_1LimaMeshWriter.html" target="_top" xlink:title=" ">
<polygon fill="white" stroke="transparent" points="131,-169 0,-169 0,-75 131,-75 131,-169"/>
<text text-anchor="start" x="5.5" y="-157" font-family="Helvetica,sans-Serif" font-size="10.00">Arcane::LimaMeshWriter</text>
<text text-anchor="start" x="12.5" y="-142" font-family="Helvetica,sans-Serif" font-size="10.00">&#45;</text>
<text text-anchor="start" x="28.5" y="-142" font-family="Helvetica,sans-Serif" font-size="10.00">m_sub_domain</text>
<text text-anchor="start" x="10" y="-127" font-family="Helvetica,sans-Serif" font-size="10.00">+</text>
<text text-anchor="start" x="28.5" y="-127" font-family="Helvetica,sans-Serif" font-size="10.00">LimaMeshWriter()</text>
<text text-anchor="start" x="10" y="-112" font-family="Helvetica,sans-Serif" font-size="10.00">+</text>
<text text-anchor="start" x="28.5" y="-112" font-family="Helvetica,sans-Serif" font-size="10.00">build()</text>
<text text-anchor="start" x="10" y="-97" font-family="Helvetica,sans-Serif" font-size="10.00">+</text>
<text text-anchor="start" x="28.5" y="-97" font-family="Helvetica,sans-Serif" font-size="10.00">writeMeshToFile()</text>
<text text-anchor="start" x="12.5" y="-82" font-family="Helvetica,sans-Serif" font-size="10.00">&#45;</text>
<text text-anchor="start" x="28.5" y="-82" font-family="Helvetica,sans-Serif" font-size="10.00">_writeItem()</text>
<polygon fill="#bfbfbf" stroke="#bfbfbf" points="0.5,-152 0.5,-152 131.5,-152 131.5,-152 0.5,-152"/>
<polygon fill="#bfbfbf" stroke="#bfbfbf" points="0.5,-137 0.5,-137 26.5,-137 26.5,-137 0.5,-137"/>
<polygon fill="#bfbfbf" stroke="#bfbfbf" points="26.5,-137 26.5,-137 131.5,-137 131.5,-137 26.5,-137"/>
<polygon fill="none" stroke="#bfbfbf" points="0,-75 0,-169 131,-169 131,-75 0,-75"/>
</a>
</g>
</g>
<!-- Node1&#45;&gt;Node2 -->
<g id="edge1_Node000001_Node000002" class="edge">
<title>Node1&#45;&gt;Node2</title>
<g id="a_edge1_Node000001_Node000002"><a xlink:title=" ">
<path fill="none" stroke="#63b8ff" d="M308.09,-310.32C257.65,-301.23 188.46,-282.4 139.5,-244 114.8,-224.63 96.34,-194.54 84.04,-169.21"/>
<polygon fill="none" stroke="#63b8ff" points="307.79,-313.82 318.24,-312.07 308.97,-306.92 307.79,-313.82"/>
</a>
</g>
</g>
<!-- Node3 -->
<g id="Node000003" class="node">
<title>Node3</title>
<g id="a_Node000003"><a xlink:href="../../d1/dc8/classArcane_1_1MshMeshWriter.html" target="_top" xlink:title="Ecriture des fichiers de maillage aux format msh.">
<polygon fill="white" stroke="transparent" points="276,-169 149,-169 149,-75 276,-75 276,-169"/>
<text text-anchor="start" x="154.5" y="-157" font-family="Helvetica,sans-Serif" font-size="10.00">Arcane::MshMeshWriter</text>
<text text-anchor="start" x="211" y="-142" font-family="Helvetica,sans-Serif" font-size="10.00"> </text>
<text text-anchor="start" x="158" y="-127" font-family="Helvetica,sans-Serif" font-size="10.00">+</text>
<text text-anchor="start" x="175.5" y="-127" font-family="Helvetica,sans-Serif" font-size="10.00">MshMeshWriter()</text>
<text text-anchor="start" x="158" y="-112" font-family="Helvetica,sans-Serif" font-size="10.00">+</text>
<text text-anchor="start" x="175.5" y="-112" font-family="Helvetica,sans-Serif" font-size="10.00">build()</text>
<text text-anchor="start" x="158" y="-97" font-family="Helvetica,sans-Serif" font-size="10.00">+</text>
<text text-anchor="start" x="175.5" y="-97" font-family="Helvetica,sans-Serif" font-size="10.00">writeMeshToFile()</text>
<text text-anchor="start" x="160.5" y="-82" font-family="Helvetica,sans-Serif" font-size="10.00">&#45;</text>
<text text-anchor="start" x="175.5" y="-82" font-family="Helvetica,sans-Serif" font-size="10.00">_switchMshType()</text>
<polygon fill="#666666" stroke="#666666" points="149.5,-152 149.5,-152 276.5,-152 276.5,-152 149.5,-152"/>
<polygon fill="#666666" stroke="#666666" points="149.5,-137 149.5,-137 276.5,-137 276.5,-137 149.5,-137"/>
<polygon fill="none" stroke="#666666" points="149,-75 149,-169 276,-169 276,-75 149,-75"/>
</a>
</g>
</g>
<!-- Node1&#45;&gt;Node3 -->
<g id="edge2_Node000001_Node000003" class="edge">
<title>Node1&#45;&gt;Node3</title>
<g id="a_edge2_Node000001_Node000003"><a xlink:title=" ">
<path fill="none" stroke="#63b8ff" d="M314.25,-272.98C304.11,-263.92 294.09,-254.08 285.5,-244 266.09,-221.21 248.6,-192.67 235.61,-169.02"/>
<polygon fill="none" stroke="#63b8ff" points="312.18,-275.81 322.01,-279.74 316.77,-270.53 312.18,-275.81"/>
</a>
</g>
</g>
<!-- Node4 -->
<g id="Node000004" class="node">
<title>Node4</title>
<g id="a_Node000004"><a xlink:href="../../dc/d93/classArcane_1_1VtkLegacyMeshWriter.html" target="_top" xlink:title=" ">
<polygon fill="white" stroke="transparent" points="452.5,-176.5 294.5,-176.5 294.5,-67.5 452.5,-67.5 452.5,-176.5"/>
<text text-anchor="start" x="299.5" y="-164" font-family="Helvetica,sans-Serif" font-size="10.00">Arcane::VtkLegacyMeshWriter</text>
<text text-anchor="start" x="371.5" y="-149" font-family="Helvetica,sans-Serif" font-size="10.00"> </text>
<text text-anchor="start" x="304" y="-134" font-family="Helvetica,sans-Serif" font-size="10.00">+</text>
<text text-anchor="start" x="322.5" y="-134" font-family="Helvetica,sans-Serif" font-size="10.00">VtkLegacyMeshWriter()</text>
<text text-anchor="start" x="304" y="-119" font-family="Helvetica,sans-Serif" font-size="10.00">+</text>
<text text-anchor="start" x="322.5" y="-119" font-family="Helvetica,sans-Serif" font-size="10.00">build()</text>
<text text-anchor="start" x="304" y="-104" font-family="Helvetica,sans-Serif" font-size="10.00">+</text>
<text text-anchor="start" x="322.5" y="-104" font-family="Helvetica,sans-Serif" font-size="10.00">writeMeshToFile()</text>
<text text-anchor="start" x="306.5" y="-89" font-family="Helvetica,sans-Serif" font-size="10.00">&#45;</text>
<text text-anchor="start" x="322.5" y="-89" font-family="Helvetica,sans-Serif" font-size="10.00">_writeMeshToFile()</text>
<text text-anchor="start" x="306.5" y="-74" font-family="Helvetica,sans-Serif" font-size="10.00">&#45;</text>
<text text-anchor="start" x="322.5" y="-74" font-family="Helvetica,sans-Serif" font-size="10.00">_saveGroups()</text>
<polygon fill="#bfbfbf" stroke="#bfbfbf" points="294.5,-159 294.5,-159 452.5,-159 452.5,-159 294.5,-159"/>
<polygon fill="#bfbfbf" stroke="#bfbfbf" points="294.5,-144 294.5,-144 452.5,-144 452.5,-144 294.5,-144"/>
<polygon fill="none" stroke="#bfbfbf" points="294.5,-67.5 294.5,-176.5 452.5,-176.5 452.5,-67.5 294.5,-67.5"/>
</a>
</g>
</g>
<!-- Node1&#45;&gt;Node4 -->
<g id="edge3_Node000001_Node000004" class="edge">
<title>Node1&#45;&gt;Node4</title>
<g id="a_edge3_Node000001_Node000004"><a xlink:title=" ">
<path fill="none" stroke="#63b8ff" d="M373.5,-269.81C373.5,-241.52 373.5,-205.82 373.5,-176.71"/>
<polygon fill="none" stroke="#63b8ff" points="370,-269.88 373.5,-279.88 377,-269.88 370,-269.88"/>
</a>
</g>
</g>
<!-- Node5 -->
<g id="Node000005" class="node">
<title>Node5</title>
<g id="a_Node000005"><a xlink:href="../../da/d95/classArcane_1_1VtuMeshWriter.html" target="_top" xlink:title="Ecriture des fichiers de maillage au format VTU (de VTK).">
<polygon fill="white" stroke="transparent" points="636,-169 471,-169 471,-75 636,-75 636,-169"/>
<text text-anchor="start" x="497.5" y="-157" font-family="Helvetica,sans-Serif" font-size="10.00">Arcane::VtuMeshWriter</text>
<text text-anchor="start" x="552" y="-142" font-family="Helvetica,sans-Serif" font-size="10.00"> </text>
<text text-anchor="start" x="475.5" y="-127" font-family="Helvetica,sans-Serif" font-size="10.00">+</text>
<text text-anchor="start" x="488.5" y="-127" font-family="Helvetica,sans-Serif" font-size="10.00">VtuMeshWriter()</text>
<text text-anchor="start" x="475.5" y="-112" font-family="Helvetica,sans-Serif" font-size="10.00">+</text>
<text text-anchor="start" x="488.5" y="-112" font-family="Helvetica,sans-Serif" font-size="10.00">build()</text>
<text text-anchor="start" x="475.5" y="-97" font-family="Helvetica,sans-Serif" font-size="10.00">+</text>
<text text-anchor="start" x="488.5" y="-97" font-family="Helvetica,sans-Serif" font-size="10.00">writeMeshToFile()</text>
<text text-anchor="start" x="475.5" y="-82" font-family="Helvetica,sans-Serif" font-size="10.00">#</text>
<text text-anchor="start" x="488.5" y="-82" font-family="Helvetica,sans-Serif" font-size="10.00">_writeFieldGroupsFromData()</text>
<polygon fill="#666666" stroke="#666666" points="471.5,-152 471.5,-152 636.5,-152 636.5,-152 471.5,-152"/>
<polygon fill="#666666" stroke="#666666" points="471.5,-137 471.5,-137 636.5,-137 636.5,-137 471.5,-137"/>
<polygon fill="none" stroke="#666666" points="471,-75 471,-169 636,-169 636,-75 471,-75"/>
</a>
</g>
</g>
<!-- Node1&#45;&gt;Node5 -->
<g id="edge4_Node000001_Node000005" class="edge">
<title>Node1&#45;&gt;Node5</title>
<g id="a_edge4_Node000001_Node000005"><a xlink:title=" ">
<path fill="none" stroke="#63b8ff" d="M430.83,-273.11C441.41,-263.87 452.08,-253.93 461.5,-244 483.48,-220.84 505.23,-192.54 522.07,-169.13"/>
<polygon fill="none" stroke="#63b8ff" points="428.46,-270.53 423.16,-279.71 433.03,-275.84 428.46,-270.53"/>
</a>
</g>
</g>
<!-- Node6 -->
<g id="Node000006" class="node">
<title>Node6</title>
<g id="a_Node000006"><a xlink:href="../../d3/d8d/classArcane_1_1XmfMeshWriter.html" target="_top" xlink:title="Ecriture des fichiers de maillage aux format xmf.">
<polygon fill="white" stroke="transparent" points="808.5,-244 654.5,-244 654.5,0 808.5,0 808.5,-244"/>
<text text-anchor="start" x="673" y="-232" font-family="Helvetica,sans-Serif" font-size="10.00">Arcane::XmfMeshWriter</text>
<text text-anchor="start" x="661" y="-217" font-family="Helvetica,sans-Serif" font-size="10.00">&#45;</text>
<text text-anchor="start" x="671.5" y="-217" font-family="Helvetica,sans-Serif" font-size="10.00">ost</text>
<text text-anchor="start" x="661" y="-202" font-family="Helvetica,sans-Serif" font-size="10.00">&#45;</text>
<text text-anchor="start" x="671.5" y="-202" font-family="Helvetica,sans-Serif" font-size="10.00">CurrIndent</text>
<text text-anchor="start" x="661" y="-187" font-family="Helvetica,sans-Serif" font-size="10.00">&#45;</text>
<text text-anchor="start" x="671.5" y="-187" font-family="Helvetica,sans-Serif" font-size="10.00">HeavyDataSetNameString</text>
<text text-anchor="start" x="658.5" y="-172" font-family="Helvetica,sans-Serif" font-size="10.00">+</text>
<text text-anchor="start" x="671.5" y="-172" font-family="Helvetica,sans-Serif" font-size="10.00">XmfMeshWriter()</text>
<text text-anchor="start" x="658.5" y="-157" font-family="Helvetica,sans-Serif" font-size="10.00">+</text>
<text text-anchor="start" x="671.5" y="-157" font-family="Helvetica,sans-Serif" font-size="10.00">build()</text>
<text text-anchor="start" x="658.5" y="-142" font-family="Helvetica,sans-Serif" font-size="10.00">+</text>
<text text-anchor="start" x="671.5" y="-142" font-family="Helvetica,sans-Serif" font-size="10.00">writeMeshToFile()</text>
<text text-anchor="start" x="658.5" y="-127" font-family="Helvetica,sans-Serif" font-size="10.00">+</text>
<text text-anchor="start" x="671.5" y="-127" font-family="Helvetica,sans-Serif" font-size="10.00">xmfWriteHead()</text>
<text text-anchor="start" x="658.5" y="-112" font-family="Helvetica,sans-Serif" font-size="10.00">+</text>
<text text-anchor="start" x="671.5" y="-112" font-family="Helvetica,sans-Serif" font-size="10.00">xmfWriteTail()</text>
<text text-anchor="start" x="658.5" y="-97" font-family="Helvetica,sans-Serif" font-size="10.00">+</text>
<text text-anchor="start" x="671.5" y="-97" font-family="Helvetica,sans-Serif" font-size="10.00">xmfWriteDomainHeader()</text>
<text text-anchor="start" x="658.5" y="-82" font-family="Helvetica,sans-Serif" font-size="10.00">+</text>
<text text-anchor="start" x="671.5" y="-82" font-family="Helvetica,sans-Serif" font-size="10.00">xmfWriteDomainFooter()</text>
<text text-anchor="start" x="658.5" y="-67" font-family="Helvetica,sans-Serif" font-size="10.00">+</text>
<text text-anchor="start" x="671.5" y="-67" font-family="Helvetica,sans-Serif" font-size="10.00">xmfWriteGridHeader()</text>
<text text-anchor="start" x="658.5" y="-52" font-family="Helvetica,sans-Serif" font-size="10.00">+</text>
<text text-anchor="start" x="671.5" y="-52" font-family="Helvetica,sans-Serif" font-size="10.00">xmfWriteGridFooter()</text>
<text text-anchor="start" x="658.5" y="-37" font-family="Helvetica,sans-Serif" font-size="10.00">+</text>
<text text-anchor="start" x="671.5" y="-37" font-family="Helvetica,sans-Serif" font-size="10.00">xmfWriteTopologyHeader()</text>
<text text-anchor="start" x="671.5" y="-22" font-family="Helvetica,sans-Serif" font-size="10.00">et 8 de plus...</text>
<text text-anchor="start" x="661" y="-7" font-family="Helvetica,sans-Serif" font-size="10.00">&#45;</text>
<text text-anchor="start" x="671.5" y="-7" font-family="Helvetica,sans-Serif" font-size="10.00">_switchXmfType()</text>
<polygon fill="#666666" stroke="#666666" points="654.5,-227 654.5,-227 808.5,-227 808.5,-227 654.5,-227"/>
<polygon fill="#666666" stroke="#666666" points="654.5,-182 654.5,-182 669.5,-182 669.5,-182 654.5,-182"/>
<polygon fill="#666666" stroke="#666666" points="669.5,-182 669.5,-182 808.5,-182 808.5,-182 669.5,-182"/>
<polygon fill="none" stroke="#666666" points="654.5,0 654.5,-244 808.5,-244 808.5,0 654.5,0"/>
</a>
</g>
</g>
<!-- Node1&#45;&gt;Node6 -->
<g id="edge5_Node000001_Node000006" class="edge">
<title>Node1&#45;&gt;Node6</title>
<g id="a_edge5_Node000001_Node000006"><a xlink:title=" ">
<path fill="none" stroke="#63b8ff" d="M438.93,-313.05C497.56,-305.44 583.61,-287.27 645.5,-244 648.56,-241.86 651.55,-239.57 654.47,-237.16"/>
<polygon fill="none" stroke="#63b8ff" points="438.17,-309.62 428.68,-314.31 439.03,-316.57 438.17,-309.62"/>
</a>
</g>
</g>
</g>
</svg>
