<?xml version="1.0" encoding="UTF-8" standalone="no"?>
<!DOCTYPE svg PUBLIC "-//W3C//DTD SVG 1.1//EN"
 "http://www.w3.org/Graphics/SVG/1.1/DTD/svg11.dtd">
<!-- Generated by graphviz version 14.1.2 (0)
 -->
<!-- Title: Arcane::impl::StringViewInputStream Pages: 1 -->
<!--zoomable 1202 -->

<svg id="main" version="1.1" xmlns="http://www.w3.org/2000/svg" xmlns:xlink="http://www.w3.org/1999/xlink" xml:space="preserve" onload="init(evt)">

<style type="text/css"><![CDATA[
.node, .edge {opacity: 0.7;}
.node.selected, .edge.selected {opacity: 1;}
.edge:hover path { stroke: red; }
.edge:hover polygon { stroke: red; fill: red; }
]]></style>

<defs>
  <circle id="rim" cx="0" cy="0" r="7"/>
  <circle id="rim2" cx="0" cy="0" r="3.5"/>
  <g id="zoomPlus">
    <use xlink:href="#rim" fill="#404040"><set attributeName="fill" to="#808080" begin="zoomplus.mouseover" end="zoomplus.mouseout"/></use>
    <path d="M-4,0h8M0,-4v8" fill="none" stroke="white" stroke-width="1.5" pointer-events="none"/>
  </g>
  <g id="zoomMin">
    <use xlink:href="#rim" fill="#404040"><set attributeName="fill" to="#808080" begin="zoomminus.mouseover" end="zoomminus.mouseout"/></use>
    <path d="M-4,0h8" fill="none" stroke="white" stroke-width="1.5" pointer-events="none"/>
  </g>
  <g id="arrowUp" transform="translate(30 24)">
    <use xlink:href="#rim"/>
    <path pointer-events="none" fill="none" stroke="white" stroke-width="1.5" d="M0,-3.0v7 M-2.5,-0.5L0,-3.0L2.5,-0.5"/>
  </g>
  <g id="arrowRight" transform="rotate(90) translate(36 -43)">
    <use xlink:href="#rim"/>
    <path pointer-events="none" fill="none" stroke="white" stroke-width="1.5" d="M0,-3.0v7 M-2.5,-0.5L0,-3.0L2.5,-0.5"/>
  </g>
  <g id="arrowDown" transform="rotate(180) translate(-30 -48)">
    <use xlink:href="#rim"/>
    <path pointer-events="none" fill="none" stroke="white" stroke-width="1.5" d="M0,-3.0v7 M-2.5,-0.5L0,-3.0L2.5,-0.5"/>
  </g>
  <g id="arrowLeft" transform="rotate(270) translate(-36 17)">
    <use xlink:href="#rim"/>
    <path pointer-events="none" fill="none" stroke="white" stroke-width="1.5" d="M0,-3.0v7 M-2.5,-0.5L0,-3.0L2.5,-0.5"/>
  </g>
  <g id="resetDef">
    <use xlink:href="#rim2" fill="#404040"><set attributeName="fill" to="#808080" begin="reset.mouseover" end="reset.mouseout"/></use>
  </g>
</defs>
<script type="application/ecmascript">
var viewWidth = 242;
var viewHeight = 1202;
var sectionId = 'dynsection-1';
</script>
<script type="application/ecmascript" xlink:href="../../svg.min.js"/>
<svg id="graph" class="graph">
<g id="viewport">
<title>Arcane::impl::StringViewInputStream</title>
<!-- Node1 -->
<g id="Node000001" class="node">
<title>Node1</title>
<g id="a_Node000001"><a xlink:title="Encapsule un std::istream pour un StringView.">
<polygon fill="#999999" stroke="none" points="140.25,-83.75 0,-83.75 0,0 140.25,0 140.25,-83.75"/>
<text xml:space="preserve" text-anchor="start" x="10.12" y="-70.25" font-family="Helvetica,sans-Serif" font-size="10.00">Arcane::impl::StringView</text>
<text xml:space="preserve" text-anchor="start" x="40.12" y="-57.5" font-family="Helvetica,sans-Serif" font-size="10.00">InputStream</text>
<text xml:space="preserve" text-anchor="start" x="6.25" y="-40.75" font-family="Helvetica,sans-Serif" font-size="10.00">&#45;</text>
<text xml:space="preserve" text-anchor="start" x="16.25" y="-40.75" font-family="Helvetica,sans-Serif" font-size="10.00">m_stream</text>
<text xml:space="preserve" text-anchor="start" x="4" y="-24" font-family="Helvetica,sans-Serif" font-size="10.00">+</text>
<text xml:space="preserve" text-anchor="start" x="16.25" y="-24" font-family="Helvetica,sans-Serif" font-size="10.00">StringViewInputStream()</text>
<text xml:space="preserve" text-anchor="start" x="4" y="-7.25" font-family="Helvetica,sans-Serif" font-size="10.00">+</text>
<text xml:space="preserve" text-anchor="start" x="16.25" y="-7.25" font-family="Helvetica,sans-Serif" font-size="10.00">stream()</text>
<polygon fill="#666666" stroke="#666666" points="0,-52.25 0,-52.25 140.25,-52.25 140.25,-52.25 0,-52.25"/>
<polygon fill="#666666" stroke="#666666" points="0,-35.5 0,-35.5 14.25,-35.5 14.25,-35.5 0,-35.5"/>
<polygon fill="#666666" stroke="#666666" points="14.25,-35.5 14.25,-35.5 140.25,-35.5 140.25,-35.5 14.25,-35.5"/>
<polygon fill="none" stroke="#666666" points="0,0 0,-83.75 140.25,-83.75 140.25,0 0,0"/>
</a>
</g>
</g>
<!-- Node2 -->
<g id="Node000002" class="node">
<title>Node2</title>
<g id="a_Node000002"><a xlink:title=" ">
<polygon fill="white" stroke="none" points="93.75,-276.5 14.5,-276.5 14.5,-222.25 93.75,-222.25 93.75,-276.5"/>
<text xml:space="preserve" text-anchor="start" x="18.5" y="-263" font-family="Helvetica,sans-Serif" font-size="10.00">std::streambuf</text>
<text xml:space="preserve" text-anchor="start" x="52.62" y="-246.25" font-family="Helvetica,sans-Serif" font-size="10.00"> </text>
<text xml:space="preserve" text-anchor="start" x="52.62" y="-229.5" font-family="Helvetica,sans-Serif" font-size="10.00"> </text>
<polygon fill="#bfbfbf" stroke="#bfbfbf" points="14.5,-257.75 14.5,-257.75 93.75,-257.75 93.75,-257.75 14.5,-257.75"/>
<polygon fill="#bfbfbf" stroke="#bfbfbf" points="14.5,-241 14.5,-241 93.75,-241 93.75,-241 14.5,-241"/>
<polygon fill="none" stroke="#bfbfbf" points="14.5,-222.25 14.5,-276.5 93.75,-276.5 93.75,-222.25 14.5,-222.25"/>
</a>
</g>
</g>
<!-- Node2&#45;&gt;Node1 -->
<g id="edge1_Node000001_Node000002" class="edge">
<title>Node2&#45;&gt;Node1</title>
<g id="a_edge1_Node000001_Node000002"><a xlink:title=" ">
<path fill="none" stroke="#8b1a1a" d="M57.04,-210.88C59.85,-174.87 64.07,-120.59 66.96,-83.54"/>
<polygon fill="none" stroke="#8b1a1a" points="53.56,-210.6 56.27,-220.84 60.53,-211.14 53.56,-210.6"/>
</a>
</g>
</g>
<!-- Node3 -->
<g id="Node000003" class="node">
<title>Node3</title>
<g id="a_Node000003"><a xlink:href="../../d9/d71/classArcane_1_1StringView.html" target="_top" xlink:title="Vue sur une chaîne de caractères UTF&#45;8.">
<polygon fill="white" stroke="none" points="212.25,-360.25 112,-360.25 112,-138.5 212.25,-138.5 212.25,-360.25"/>
<text xml:space="preserve" text-anchor="start" x="116" y="-346.75" font-family="Helvetica,sans-Serif" font-size="10.00">Arcane::StringView</text>
<text xml:space="preserve" text-anchor="start" x="160.62" y="-330" font-family="Helvetica,sans-Serif" font-size="10.00"> </text>
<text xml:space="preserve" text-anchor="start" x="118.94" y="-313.25" font-family="Helvetica,sans-Serif" font-size="10.00">+</text>
<text xml:space="preserve" text-anchor="start" x="134.12" y="-313.25" font-family="Helvetica,sans-Serif" font-size="10.00">StringView()</text>
<text xml:space="preserve" text-anchor="start" x="118.94" y="-296.5" font-family="Helvetica,sans-Serif" font-size="10.00">+</text>
<text xml:space="preserve" text-anchor="start" x="134.12" y="-296.5" font-family="Helvetica,sans-Serif" font-size="10.00">StringView()</text>
<text xml:space="preserve" text-anchor="start" x="118.94" y="-279.75" font-family="Helvetica,sans-Serif" font-size="10.00">+</text>
<text xml:space="preserve" text-anchor="start" x="134.12" y="-279.75" font-family="Helvetica,sans-Serif" font-size="10.00">StringView()</text>
<text xml:space="preserve" text-anchor="start" x="118.94" y="-263" font-family="Helvetica,sans-Serif" font-size="10.00">+</text>
<text xml:space="preserve" text-anchor="start" x="134.12" y="-263" font-family="Helvetica,sans-Serif" font-size="10.00">StringView()</text>
<text xml:space="preserve" text-anchor="start" x="118.94" y="-246.25" font-family="Helvetica,sans-Serif" font-size="10.00">+</text>
<text xml:space="preserve" text-anchor="start" x="134.12" y="-246.25" font-family="Helvetica,sans-Serif" font-size="10.00">StringView()</text>
<text xml:space="preserve" text-anchor="start" x="118.94" y="-229.5" font-family="Helvetica,sans-Serif" font-size="10.00">+</text>
<text xml:space="preserve" text-anchor="start" x="134.12" y="-229.5" font-family="Helvetica,sans-Serif" font-size="10.00">operator=()</text>
<text xml:space="preserve" text-anchor="start" x="118.94" y="-212.75" font-family="Helvetica,sans-Serif" font-size="10.00">+</text>
<text xml:space="preserve" text-anchor="start" x="134.12" y="-212.75" font-family="Helvetica,sans-Serif" font-size="10.00">operator=()</text>
<text xml:space="preserve" text-anchor="start" x="118.94" y="-196" font-family="Helvetica,sans-Serif" font-size="10.00">+</text>
<text xml:space="preserve" text-anchor="start" x="134.12" y="-196" font-family="Helvetica,sans-Serif" font-size="10.00">operator=()</text>
<text xml:space="preserve" text-anchor="start" x="118.94" y="-179.25" font-family="Helvetica,sans-Serif" font-size="10.00">+</text>
<text xml:space="preserve" text-anchor="start" x="134.12" y="-179.25" font-family="Helvetica,sans-Serif" font-size="10.00">operator=()</text>
<text xml:space="preserve" text-anchor="start" x="118.94" y="-162.5" font-family="Helvetica,sans-Serif" font-size="10.00">+</text>
<text xml:space="preserve" text-anchor="start" x="134.12" y="-162.5" font-family="Helvetica,sans-Serif" font-size="10.00">~StringView()</text>
<text xml:space="preserve" text-anchor="start" x="134.12" y="-145.75" font-family="Helvetica,sans-Serif" font-size="10.00">et 8 de plus...</text>
<polygon fill="#666666" stroke="#666666" points="112,-341.5 112,-341.5 212.25,-341.5 212.25,-341.5 112,-341.5"/>
<polygon fill="#666666" stroke="#666666" points="112,-324.75 112,-324.75 212.25,-324.75 212.25,-324.75 112,-324.75"/>
<polygon fill="none" stroke="#666666" points="112,-138.5 112,-360.25 212.25,-360.25 212.25,-138.5 112,-138.5"/>
</a>
</g>
</g>
<!-- Node3&#45;&gt;Node1 -->
<g id="edge2_Node000001_Node000003" class="edge">
<title>Node3&#45;&gt;Node1</title>
<g id="a_edge2_Node000001_Node000003"><a xlink:title=" ">
<path fill="none" stroke="#63b8ff" d="M113.03,-138.71C106.27,-123.62 99.61,-108.74 93.62,-95.36"/>
<polygon fill="none" stroke="#63b8ff" points="93.6,-95.31 87.5,-91.47 88.7,-84.36 94.8,-88.2 93.6,-95.31"/>
</a>
</g>
<text xml:space="preserve" text-anchor="start" x="105.51" y="-108" font-family="Helvetica,sans-Serif" font-size="10.00" fill="grey">&#45;m_view</text>
</g>
<!-- Node4 -->
<g id="Node000004" class="node">
<title>Node4</title>
<g id="a_Node000004"><a xlink:href="../../d2/d5e/classArcane_1_1Span.html" target="_top" xlink:title=" ">
<polygon fill="white" stroke="none" points="216.75,-666.25 107.5,-666.25 107.5,-415 216.75,-415 216.75,-666.25"/>
<text xml:space="preserve" text-anchor="start" x="111.5" y="-652.75" font-family="Helvetica,sans-Serif" font-size="10.00">Arcane::Span&lt; const</text>
<text xml:space="preserve" text-anchor="start" x="143.75" y="-640" font-family="Helvetica,sans-Serif" font-size="10.00"> Byte &gt;</text>
<text xml:space="preserve" text-anchor="start" x="117.25" y="-623.25" font-family="Helvetica,sans-Serif" font-size="10.00">+</text>
<text xml:space="preserve" text-anchor="start" x="135.25" y="-623.25" font-family="Helvetica,sans-Serif" font-size="10.00">IsDynamic</text>
<text xml:space="preserve" text-anchor="start" x="117.25" y="-606.5" font-family="Helvetica,sans-Serif" font-size="10.00">+</text>
<text xml:space="preserve" text-anchor="start" x="135.25" y="-606.5" font-family="Helvetica,sans-Serif" font-size="10.00">Span()</text>
<text xml:space="preserve" text-anchor="start" x="117.25" y="-589.75" font-family="Helvetica,sans-Serif" font-size="10.00">+</text>
<text xml:space="preserve" text-anchor="start" x="135.25" y="-589.75" font-family="Helvetica,sans-Serif" font-size="10.00">Span()</text>
<text xml:space="preserve" text-anchor="start" x="117.25" y="-573" font-family="Helvetica,sans-Serif" font-size="10.00">+</text>
<text xml:space="preserve" text-anchor="start" x="135.25" y="-573" font-family="Helvetica,sans-Serif" font-size="10.00">Span()</text>
<text xml:space="preserve" text-anchor="start" x="117.25" y="-556.25" font-family="Helvetica,sans-Serif" font-size="10.00">+</text>
<text xml:space="preserve" text-anchor="start" x="135.25" y="-556.25" font-family="Helvetica,sans-Serif" font-size="10.00">Span()</text>
<text xml:space="preserve" text-anchor="start" x="117.25" y="-539.5" font-family="Helvetica,sans-Serif" font-size="10.00">+</text>
<text xml:space="preserve" text-anchor="start" x="135.25" y="-539.5" font-family="Helvetica,sans-Serif" font-size="10.00">Span()</text>
<text xml:space="preserve" text-anchor="start" x="117.25" y="-522.75" font-family="Helvetica,sans-Serif" font-size="10.00">+</text>
<text xml:space="preserve" text-anchor="start" x="135.25" y="-522.75" font-family="Helvetica,sans-Serif" font-size="10.00">Span()</text>
<text xml:space="preserve" text-anchor="start" x="117.25" y="-506" font-family="Helvetica,sans-Serif" font-size="10.00">+</text>
<text xml:space="preserve" text-anchor="start" x="135.25" y="-506" font-family="Helvetica,sans-Serif" font-size="10.00">Span()</text>
<text xml:space="preserve" text-anchor="start" x="117.25" y="-489.25" font-family="Helvetica,sans-Serif" font-size="10.00">+</text>
<text xml:space="preserve" text-anchor="start" x="135.25" y="-489.25" font-family="Helvetica,sans-Serif" font-size="10.00">Span()</text>
<text xml:space="preserve" text-anchor="start" x="117.25" y="-472.5" font-family="Helvetica,sans-Serif" font-size="10.00">+</text>
<text xml:space="preserve" text-anchor="start" x="135.25" y="-472.5" font-family="Helvetica,sans-Serif" font-size="10.00">Span()</text>
<text xml:space="preserve" text-anchor="start" x="117.25" y="-455.75" font-family="Helvetica,sans-Serif" font-size="10.00">+</text>
<text xml:space="preserve" text-anchor="start" x="135.25" y="-455.75" font-family="Helvetica,sans-Serif" font-size="10.00">Span()</text>
<text xml:space="preserve" text-anchor="start" x="135.25" y="-439" font-family="Helvetica,sans-Serif" font-size="10.00">et 8 de plus...</text>
<text xml:space="preserve" text-anchor="start" x="117.25" y="-422.25" font-family="Helvetica,sans-Serif" font-size="10.00">+</text>
<text xml:space="preserve" text-anchor="start" x="135.25" y="-422.25" font-family="Helvetica,sans-Serif" font-size="10.00">create()</text>
<polygon fill="#666666" stroke="#666666" points="107.5,-634.75 107.5,-634.75 216.75,-634.75 216.75,-634.75 107.5,-634.75"/>
<polygon fill="#666666" stroke="#666666" points="107.5,-618 107.5,-618 133.25,-618 133.25,-618 107.5,-618"/>
<polygon fill="#666666" stroke="#666666" points="133.25,-618 133.25,-618 216.75,-618 216.75,-618 133.25,-618"/>
<polygon fill="none" stroke="#666666" points="107.5,-415 107.5,-666.25 216.75,-666.25 216.75,-415 107.5,-415"/>
</a>
</g>
</g>
<!-- Node4&#45;&gt;Node3 -->
<g id="edge3_Node000003_Node000004" class="edge">
<title>Node4&#45;&gt;Node3</title>
<g id="a_edge3_Node000003_Node000004"><a xlink:title=" ">
<path fill="none" stroke="#63b8ff" d="M162.12,-415.28C162.12,-401.21 162.12,-386.88 162.12,-372.84"/>
<polygon fill="none" stroke="#63b8ff" points="162.13,-372.94 158.13,-366.94 162.13,-360.94 166.13,-366.94 162.13,-372.94"/>
</a>
</g>
<text xml:space="preserve" text-anchor="start" x="165.12" y="-384.5" font-family="Helvetica,sans-Serif" font-size="10.00" fill="grey">&#45;m_v</text>
</g>
<!-- Node5 -->
<g id="Node000005" class="node">
<title>Node5</title>
<g id="a_Node000005"><a xlink:href="../../df/d52/classArcane_1_1SpanImpl.html" target="_top" xlink:title=" ">
<polygon fill="white" stroke="none" points="227.62,-1038.25 96.62,-1038.25 96.62,-703.25 227.62,-703.25 227.62,-1038.25"/>
<text xml:space="preserve" text-anchor="start" x="100.62" y="-1024.75" font-family="Helvetica,sans-Serif" font-size="10.00">Arcane::SpanImpl&lt; const</text>
<text xml:space="preserve" text-anchor="start" x="109.62" y="-1012" font-family="Helvetica,sans-Serif" font-size="10.00"> Byte, Int64, Extent &gt;</text>
<text xml:space="preserve" text-anchor="start" x="110.31" y="-995.25" font-family="Helvetica,sans-Serif" font-size="10.00">+</text>
<text xml:space="preserve" text-anchor="start" x="132.25" y="-995.25" font-family="Helvetica,sans-Serif" font-size="10.00">IsDynamic</text>
<text xml:space="preserve" text-anchor="start" x="112.56" y="-978.5" font-family="Helvetica,sans-Serif" font-size="10.00">&#45;</text>
<text xml:space="preserve" text-anchor="start" x="132.25" y="-978.5" font-family="Helvetica,sans-Serif" font-size="10.00">m_ptr</text>
<text xml:space="preserve" text-anchor="start" x="110.31" y="-961.75" font-family="Helvetica,sans-Serif" font-size="10.00">+</text>
<text xml:space="preserve" text-anchor="start" x="132.25" y="-961.75" font-family="Helvetica,sans-Serif" font-size="10.00">SpanImpl()</text>
<text xml:space="preserve" text-anchor="start" x="110.31" y="-945" font-family="Helvetica,sans-Serif" font-size="10.00">+</text>
<text xml:space="preserve" text-anchor="start" x="132.25" y="-945" font-family="Helvetica,sans-Serif" font-size="10.00">SpanImpl()</text>
<text xml:space="preserve" text-anchor="start" x="110.31" y="-928.25" font-family="Helvetica,sans-Serif" font-size="10.00">+</text>
<text xml:space="preserve" text-anchor="start" x="132.25" y="-928.25" font-family="Helvetica,sans-Serif" font-size="10.00">SpanImpl()</text>
<text xml:space="preserve" text-anchor="start" x="110.31" y="-911.5" font-family="Helvetica,sans-Serif" font-size="10.00">+</text>
<text xml:space="preserve" text-anchor="start" x="132.25" y="-911.5" font-family="Helvetica,sans-Serif" font-size="10.00">SpanImpl()</text>
<text xml:space="preserve" text-anchor="start" x="110.31" y="-894.75" font-family="Helvetica,sans-Serif" font-size="10.00">+</text>
<text xml:space="preserve" text-anchor="start" x="132.25" y="-894.75" font-family="Helvetica,sans-Serif" font-size="10.00">SpanImpl()</text>
<text xml:space="preserve" text-anchor="start" x="110.31" y="-878" font-family="Helvetica,sans-Serif" font-size="10.00">+</text>
<text xml:space="preserve" text-anchor="start" x="132.25" y="-878" font-family="Helvetica,sans-Serif" font-size="10.00">SpanImpl()</text>
<text xml:space="preserve" text-anchor="start" x="110.31" y="-861.25" font-family="Helvetica,sans-Serif" font-size="10.00">+</text>
<text xml:space="preserve" text-anchor="start" x="132.25" y="-861.25" font-family="Helvetica,sans-Serif" font-size="10.00">operator=()</text>
<text xml:space="preserve" text-anchor="start" x="110.31" y="-844.5" font-family="Helvetica,sans-Serif" font-size="10.00">+</text>
<text xml:space="preserve" text-anchor="start" x="132.25" y="-844.5" font-family="Helvetica,sans-Serif" font-size="10.00">operator[]()</text>
<text xml:space="preserve" text-anchor="start" x="110.31" y="-827.75" font-family="Helvetica,sans-Serif" font-size="10.00">+</text>
<text xml:space="preserve" text-anchor="start" x="132.25" y="-827.75" font-family="Helvetica,sans-Serif" font-size="10.00">operator()()</text>
<text xml:space="preserve" text-anchor="start" x="110.31" y="-811" font-family="Helvetica,sans-Serif" font-size="10.00">+</text>
<text xml:space="preserve" text-anchor="start" x="132.25" y="-811" font-family="Helvetica,sans-Serif" font-size="10.00">item()</text>
<text xml:space="preserve" text-anchor="start" x="132.25" y="-794.25" font-family="Helvetica,sans-Serif" font-size="10.00">et 29 de plus...</text>
<text xml:space="preserve" text-anchor="start" x="110.31" y="-777.5" font-family="Helvetica,sans-Serif" font-size="10.00">+</text>
<text xml:space="preserve" text-anchor="start" x="132.25" y="-777.5" font-family="Helvetica,sans-Serif" font-size="10.00">create()</text>
<text xml:space="preserve" text-anchor="start" x="110.31" y="-760.75" font-family="Helvetica,sans-Serif" font-size="10.00">#</text>
<text xml:space="preserve" text-anchor="start" x="132.25" y="-760.75" font-family="Helvetica,sans-Serif" font-size="10.00">_setArray()</text>
<text xml:space="preserve" text-anchor="start" x="110.31" y="-744" font-family="Helvetica,sans-Serif" font-size="10.00">#</text>
<text xml:space="preserve" text-anchor="start" x="132.25" y="-744" font-family="Helvetica,sans-Serif" font-size="10.00">_setPtr()</text>
<text xml:space="preserve" text-anchor="start" x="110.31" y="-727.25" font-family="Helvetica,sans-Serif" font-size="10.00">#</text>
<text xml:space="preserve" text-anchor="start" x="132.25" y="-727.25" font-family="Helvetica,sans-Serif" font-size="10.00">_setSize()</text>
<text xml:space="preserve" text-anchor="start" x="112.56" y="-710.5" font-family="Helvetica,sans-Serif" font-size="10.00">&#45;</text>
<text xml:space="preserve" text-anchor="start" x="132.25" y="-710.5" font-family="Helvetica,sans-Serif" font-size="10.00">_min()</text>
<polygon fill="#666666" stroke="#666666" points="96.62,-1006.75 96.62,-1006.75 227.62,-1006.75 227.62,-1006.75 96.62,-1006.75"/>
<polygon fill="#666666" stroke="#666666" points="96.62,-973.25 96.62,-973.25 130.25,-973.25 130.25,-973.25 96.62,-973.25"/>
<polygon fill="#666666" stroke="#666666" points="130.25,-973.25 130.25,-973.25 227.62,-973.25 227.62,-973.25 130.25,-973.25"/>
<polygon fill="none" stroke="#666666" points="96.62,-703.25 96.62,-1038.25 227.62,-1038.25 227.62,-703.25 96.62,-703.25"/>
</a>
</g>
</g>
<!-- Node5&#45;&gt;Node4 -->
<g id="edge4_Node000004_Node000005" class="edge">
<title>Node5&#45;&gt;Node4</title>
<g id="a_edge4_Node000004_Node000005"><a xlink:title=" ">
<path fill="none" stroke="#63b8ff" d="M162.12,-691.84C162.12,-683.16 162.12,-674.52 162.12,-666.04"/>
<polygon fill="none" stroke="#63b8ff" points="158.63,-691.77 162.13,-701.77 165.63,-691.77 158.63,-691.77"/>
</a>
</g>
</g>
<!-- Node6 -->
<g id="Node000006" class="node">
<title>Node6</title>
<g id="a_Node000006"><a xlink:href="../../de/d3d/classArcane_1_1Impl_1_1ExtentStorage.html" target="_top" xlink:title=" ">
<polygon fill="white" stroke="none" points="234.38,-1193.5 89.88,-1193.5 89.88,-1093 234.38,-1093 234.38,-1193.5"/>
<text xml:space="preserve" text-anchor="start" x="93.88" y="-1180" font-family="Helvetica,sans-Serif" font-size="10.00">Arcane::Impl::ExtentStorage</text>
<text xml:space="preserve" text-anchor="start" x="110.75" y="-1167.25" font-family="Helvetica,sans-Serif" font-size="10.00">&lt; SizeType, Extent &gt;</text>
<text xml:space="preserve" text-anchor="start" x="108.06" y="-1150.5" font-family="Helvetica,sans-Serif" font-size="10.00">&#45;</text>
<text xml:space="preserve" text-anchor="start" x="130" y="-1150.5" font-family="Helvetica,sans-Serif" font-size="10.00">m_size</text>
<text xml:space="preserve" text-anchor="start" x="105.81" y="-1133.75" font-family="Helvetica,sans-Serif" font-size="10.00">+</text>
<text xml:space="preserve" text-anchor="start" x="130" y="-1133.75" font-family="Helvetica,sans-Serif" font-size="10.00">ExtentStorage()</text>
<text xml:space="preserve" text-anchor="start" x="105.81" y="-1117" font-family="Helvetica,sans-Serif" font-size="10.00">+</text>
<text xml:space="preserve" text-anchor="start" x="130" y="-1117" font-family="Helvetica,sans-Serif" font-size="10.00">ExtentStorage()</text>
<text xml:space="preserve" text-anchor="start" x="105.81" y="-1100.25" font-family="Helvetica,sans-Serif" font-size="10.00">+</text>
<text xml:space="preserve" text-anchor="start" x="130" y="-1100.25" font-family="Helvetica,sans-Serif" font-size="10.00">size()</text>
<polygon fill="#666666" stroke="#666666" points="89.88,-1162 89.88,-1162 234.38,-1162 234.38,-1162 89.88,-1162"/>
<polygon fill="#666666" stroke="#666666" points="89.88,-1145.25 89.88,-1145.25 128,-1145.25 128,-1145.25 89.88,-1145.25"/>
<polygon fill="#666666" stroke="#666666" points="128,-1145.25 128,-1145.25 234.38,-1145.25 234.38,-1145.25 128,-1145.25"/>
<polygon fill="none" stroke="#666666" points="89.88,-1093 89.88,-1193.5 234.38,-1193.5 234.38,-1093 89.88,-1093"/>
</a>
</g>
</g>
<!-- Node6&#45;&gt;Node5 -->
<g id="edge5_Node000005_Node000006" class="edge">
<title>Node6&#45;&gt;Node5</title>
<g id="a_edge5_Node000005_Node000006"><a xlink:title=" ">
<path fill="none" stroke="#63b8ff" d="M162.12,-1093.26C162.12,-1080.6 162.12,-1066.2 162.12,-1050.96"/>
<polygon fill="none" stroke="#63b8ff" points="162.13,-1050.89 158.13,-1044.89 162.13,-1038.89 166.13,-1044.89 162.13,-1050.89"/>
</a>
</g>
<text xml:space="preserve" text-anchor="start" x="165.12" y="-1062.5" font-family="Helvetica,sans-Serif" font-size="10.00" fill="grey">&#45;m_size</text>
</g>
</g>
</svg>

<g id="navigator" transform="translate(0 0)" fill="#404254">
  <rect fill="#f2f5e9" fill-opacity="0.5" stroke="#606060" stroke-width=".5" x="0" y="0" width="60" height="60"/>
  <use id="zoomplus" xlink:href="#zoomPlus" x="17" y="9" onmousedown="handleZoom(evt,'in')"/>
  <use id="zoomminus" xlink:href="#zoomMin" x="42" y="9" onmousedown="handleZoom(evt,'out')"/>
  <use id="reset" xlink:href="#resetDef" x="30" y="36" onmousedown="handleReset()"/>
   <use id="arrowup" xlink:href="#arrowUp" x="0" y="0" onmousedown="handlePan(0,-1)"/>
  <use id="arrowright" xlink:href="#arrowRight" x="0" y="0" onmousedown="handlePan(1,0)"/>
  <use id="arrowdown" xlink:href="#arrowDown" x="0" y="0" onmousedown="handlePan(0,1)"/>
  <use id="arrowleft" xlink:href="#arrowLeft" x="0" y="0" onmousedown="handlePan(-1,0)"/>
</g>
<svg viewBox="0 0 15 15" width="100%" height="30px" preserveAspectRatio="xMaxYMin meet">
 <g id="arrow_out" transform="scale(0.3 0.3)">
  <a xlink:href="classArcane_1_1impl_1_1StringViewInputStream__coll__graph_org.svg" target="_base">
   <rect id="button" ry="5" rx="5" y="6" x="6" height="38" width="38"
        fill="#f2f5e9" fill-opacity="0.5" stroke="#606060" stroke-width="1.0"/>
   <path id="arrow"
     d="M 11.500037,31.436501 C 11.940474,20.09759 22.043105,11.32322 32.158766,21.979434 L 37.068811,17.246167 C 37.068811,17.246167 37.088388,32 37.088388,32 L 22.160133,31.978069 C 22.160133,31.978069 26.997745,27.140456 26.997745,27.140456 C 18.528582,18.264221 13.291696,25.230495 11.500037,31.436501 z"
     style="fill:#404040;"/>
  </a>
 </g>
</svg>

<style type='text/css'>
<![CDATA[
[data-mouse-over-selected='false'] { opacity: 0.7; }
[data-mouse-over-selected='true']  { opacity: 1.0; }
]]>
</style>
<script type="application/ecmascript"><![CDATA[
document.addEventListener('DOMContentLoaded', (event) => {
  highlightEdges();
  highlightAdjacentNodes();
});
]]></script>
</svg>
