<?xml version="1.0" encoding="UTF-8" standalone="no"?>
<!DOCTYPE svg PUBLIC "-//W3C//DTD SVG 1.1//EN"
 "http://www.w3.org/Graphics/SVG/1.1/DTD/svg11.dtd">
<!-- Generated by graphviz version 2.43.0 (0)
 -->
<!-- Title: Arcane::VariableComparerArgs::setMaxPrint Pages: 1 -->
<svg width="353pt" height="113pt"
 viewBox="0.00 0.00 353.00 113.00" xmlns="http://www.w3.org/2000/svg" xmlns:xlink="http://www.w3.org/1999/xlink">
<g id="graph0" class="graph" transform="scale(1 1) rotate(0) translate(4 109)">
<title>Arcane::VariableComparerArgs::setMaxPrint</title>
<!-- Node1 -->
<g id="Node000001" class="node">
<title>Node1</title>
<g id="a_Node000001"><a xlink:title="Positionne le nombre d&#39;erreurs à afficher dans le listing.">
<polygon fill="#999999" stroke="#666666" points="345,-67.5 201,-67.5 201,-37.5 345,-37.5 345,-67.5"/>
<text text-anchor="start" x="209" y="-55.5" font-family="Helvetica,sans-Serif" font-size="10.00">Arcane::VariableComparer</text>
<text text-anchor="middle" x="273" y="-44.5" font-family="Helvetica,sans-Serif" font-size="10.00">Args::setMaxPrint</text>
</a>
</g>
</g>
<!-- Node2 -->
<g id="Node000002" class="node">
<title>Node2</title>
<g id="a_Node000002"><a xlink:href="../../d6/df5/classArcane_1_1Variable.html#aaa2117fa2960ad88fa86908e6f514ac6" target="_top" xlink:title="Vérifie que la variable est identique à une valeur de référence.">
<polygon fill="white" stroke="#666666" points="165,-105 0,-105 0,-86 165,-86 165,-105"/>
<text text-anchor="middle" x="82.5" y="-93" font-family="Helvetica,sans-Serif" font-size="10.00">Arcane::Variable::checkIfSame</text>
</a>
</g>
</g>
<!-- Node1&#45;&gt;Node2 -->
<g id="edge1_Node000001_Node000002" class="edge">
<title>Node1&#45;&gt;Node2</title>
<g id="a_edge1_Node000001_Node000002"><a xlink:title=" ">
<path fill="none" stroke="#63b8ff" d="M196.18,-69.8C171.98,-75.32 146.09,-81.22 125.24,-85.98"/>
<polygon fill="#63b8ff" stroke="#63b8ff" points="197.1,-73.18 206.07,-67.54 195.54,-66.35 197.1,-73.18"/>
</a>
</g>
</g>
<!-- Node3 -->
<g id="Node000003" class="node">
<title>Node3</title>
<g id="a_Node000003"><a xlink:href="../../d6/df5/classArcane_1_1Variable.html#af62e80c2e5cd9e8e334eb3ce08a76242" target="_top" xlink:title="Vérifie si la variable a les mêmes valeurs sur tous les réplicas.">
<polygon fill="white" stroke="#666666" points="151,-67.5 14,-67.5 14,-37.5 151,-37.5 151,-67.5"/>
<text text-anchor="start" x="22" y="-55.5" font-family="Helvetica,sans-Serif" font-size="10.00">Arcane::Variable::checkIf</text>
<text text-anchor="middle" x="82.5" y="-44.5" font-family="Helvetica,sans-Serif" font-size="10.00">SameOnAllReplica</text>
</a>
</g>
</g>
<!-- Node1&#45;&gt;Node3 -->
<g id="edge2_Node000001_Node000003" class="edge">
<title>Node1&#45;&gt;Node3</title>
<g id="a_edge2_Node000001_Node000003"><a xlink:title=" ">
<path fill="none" stroke="#63b8ff" d="M190.72,-52.5C177.52,-52.5 163.96,-52.5 151.13,-52.5"/>
<polygon fill="#63b8ff" stroke="#63b8ff" points="190.74,-56 200.74,-52.5 190.74,-49 190.74,-56"/>
</a>
</g>
</g>
<!-- Node4 -->
<g id="Node000004" class="node">
<title>Node4</title>
<g id="a_Node000004"><a xlink:href="../../d6/df5/classArcane_1_1Variable.html#aebe8e23c11120c7201c9776163130318" target="_top" xlink:title="Vérifie si la variable est bien synchronisée.">
<polygon fill="white" stroke="#666666" points="163,-19 2,-19 2,0 163,0 163,-19"/>
<text text-anchor="middle" x="82.5" y="-7" font-family="Helvetica,sans-Serif" font-size="10.00">Arcane::Variable::checkIfSync</text>
</a>
</g>
</g>
<!-- Node1&#45;&gt;Node4 -->
<g id="edge3_Node000001_Node000004" class="edge">
<title>Node1&#45;&gt;Node4</title>
<g id="a_edge3_Node000001_Node000004"><a xlink:title=" ">
<path fill="none" stroke="#63b8ff" d="M196.18,-35.2C171.98,-29.68 146.09,-23.78 125.24,-19.02"/>
<polygon fill="#63b8ff" stroke="#63b8ff" points="195.54,-38.65 206.07,-37.46 197.1,-31.82 195.54,-38.65"/>
</a>
</g>
</g>
</g>
</svg>
