<?xml version="1.0" encoding="UTF-8" standalone="no"?>
<!DOCTYPE svg PUBLIC "-//W3C//DTD SVG 1.1//EN"
 "http://www.w3.org/Graphics/SVG/1.1/DTD/svg11.dtd">
<!-- Generated by graphviz version 2.43.0 (0)
 -->
<!-- Title: Arcane::AxlOptionsBuilder::Complex Pages: 1 -->
<svg width="146pt" height="314pt"
 viewBox="0.00 0.00 146.00 314.00" xmlns="http://www.w3.org/2000/svg" xmlns:xlink="http://www.w3.org/1999/xlink">
<g id="graph0" class="graph" transform="scale(1 1) rotate(0) translate(4 310)">
<title>Arcane::AxlOptionsBuilder::Complex</title>
<!-- Node1 -->
<g id="Node000001" class="node">
<title>Node1</title>
<g id="a_Node000001"><a xlink:title="Option &#39;Complex&#39; du jeu de données.">
<polygon fill="#999999" stroke="transparent" points="138,-75 0,-75 0,0 138,0 138,-75"/>
<text text-anchor="start" x="5" y="-62.5" font-family="Helvetica,sans-Serif" font-size="10.00">Arcane::AxlOptionsBuilder</text>
<text text-anchor="start" x="44" y="-51.5" font-family="Helvetica,sans-Serif" font-size="10.00">::Complex</text>
<text text-anchor="start" x="67" y="-36.5" font-family="Helvetica,sans-Serif" font-size="10.00"> </text>
<text text-anchor="start" x="20" y="-21.5" font-family="Helvetica,sans-Serif" font-size="10.00">+</text>
<text text-anchor="start" x="49" y="-21.5" font-family="Helvetica,sans-Serif" font-size="10.00">Complex()</text>
<text text-anchor="start" x="20" y="-6.5" font-family="Helvetica,sans-Serif" font-size="10.00">+</text>
<text text-anchor="start" x="49" y="-6.5" font-family="Helvetica,sans-Serif" font-size="10.00">Complex()</text>
<polygon fill="#666666" stroke="#666666" points="0,-46.5 0,-46.5 138,-46.5 138,-46.5 0,-46.5"/>
<polygon fill="#666666" stroke="#666666" points="0,-31.5 0,-31.5 138,-31.5 138,-31.5 0,-31.5"/>
<polygon fill="none" stroke="#666666" points="0,0 0,-75 138,-75 138,0 0,0"/>
</a>
</g>
</g>
<!-- Node2 -->
<g id="Node000002" class="node">
<title>Node2</title>
<g id="a_Node000002"><a xlink:href="../../d1/d57/classArcane_1_1AxlOptionsBuilder_1_1OneOption.html" target="_top" xlink:title="Classe de base d&#39;une option dynamique.">
<polygon fill="white" stroke="transparent" points="138,-306 0,-306 0,-111 138,-111 138,-306"/>
<text text-anchor="start" x="5" y="-293.5" font-family="Helvetica,sans-Serif" font-size="10.00">Arcane::AxlOptionsBuilder</text>
<text text-anchor="start" x="40" y="-282.5" font-family="Helvetica,sans-Serif" font-size="10.00">::OneOption</text>
<text text-anchor="start" x="7" y="-267.5" font-family="Helvetica,sans-Serif" font-size="10.00">#</text>
<text text-anchor="start" x="23" y="-267.5" font-family="Helvetica,sans-Serif" font-size="10.00">m_type</text>
<text text-anchor="start" x="7" y="-252.5" font-family="Helvetica,sans-Serif" font-size="10.00">#</text>
<text text-anchor="start" x="23" y="-252.5" font-family="Helvetica,sans-Serif" font-size="10.00">m_name</text>
<text text-anchor="start" x="7" y="-237.5" font-family="Helvetica,sans-Serif" font-size="10.00">#</text>
<text text-anchor="start" x="23" y="-237.5" font-family="Helvetica,sans-Serif" font-size="10.00">m_value</text>
<text text-anchor="start" x="7" y="-222.5" font-family="Helvetica,sans-Serif" font-size="10.00">#</text>
<text text-anchor="start" x="23" y="-222.5" font-family="Helvetica,sans-Serif" font-size="10.00">m_service_name</text>
<text text-anchor="start" x="7" y="-207.5" font-family="Helvetica,sans-Serif" font-size="10.00">#</text>
<text text-anchor="start" x="23" y="-207.5" font-family="Helvetica,sans-Serif" font-size="10.00">m_function_name</text>
<text text-anchor="start" x="7" y="-192.5" font-family="Helvetica,sans-Serif" font-size="10.00">#</text>
<text text-anchor="start" x="23" y="-192.5" font-family="Helvetica,sans-Serif" font-size="10.00">m_sub_option</text>
<text text-anchor="start" x="9.5" y="-177.5" font-family="Helvetica,sans-Serif" font-size="10.00">&#45;</text>
<text text-anchor="start" x="23" y="-177.5" font-family="Helvetica,sans-Serif" font-size="10.00">DocumentXmlWriter</text>
<text text-anchor="start" x="9.5" y="-162.5" font-family="Helvetica,sans-Serif" font-size="10.00">&#45;</text>
<text text-anchor="start" x="23" y="-162.5" font-family="Helvetica,sans-Serif" font-size="10.00">DocumentJSONWriter</text>
<text text-anchor="start" x="7" y="-147.5" font-family="Helvetica,sans-Serif" font-size="10.00">+</text>
<text text-anchor="start" x="23" y="-147.5" font-family="Helvetica,sans-Serif" font-size="10.00">OneOption()</text>
<text text-anchor="start" x="7" y="-132.5" font-family="Helvetica,sans-Serif" font-size="10.00">#</text>
<text text-anchor="start" x="23" y="-132.5" font-family="Helvetica,sans-Serif" font-size="10.00">OneOption()</text>
<text text-anchor="start" x="7" y="-117.5" font-family="Helvetica,sans-Serif" font-size="10.00">#</text>
<text text-anchor="start" x="23" y="-117.5" font-family="Helvetica,sans-Serif" font-size="10.00">OneOption()</text>
<polygon fill="#666666" stroke="#666666" points="0,-277.5 0,-277.5 138,-277.5 138,-277.5 0,-277.5"/>
<polygon fill="#666666" stroke="#666666" points="0,-157.5 0,-157.5 21,-157.5 21,-157.5 0,-157.5"/>
<polygon fill="#666666" stroke="#666666" points="21,-157.5 21,-157.5 138,-157.5 138,-157.5 21,-157.5"/>
<polygon fill="none" stroke="#666666" points="0,-111 0,-306 138,-306 138,-111 0,-111"/>
</a>
</g>
</g>
<!-- Node2&#45;&gt;Node1 -->
<g id="edge1_Node000001_Node000002" class="edge">
<title>Node2&#45;&gt;Node1</title>
<g id="a_edge1_Node000001_Node000002"><a xlink:title=" ">
<path fill="none" stroke="#63b8ff" d="M69,-100.48C69,-91.58 69,-83.04 69,-75.3"/>
<polygon fill="none" stroke="#63b8ff" points="65.5,-100.66 69,-110.66 72.5,-100.66 65.5,-100.66"/>
</a>
</g>
</g>
</g>
</svg>
