<?xml version="1.0" encoding="UTF-8" standalone="no"?>
<!DOCTYPE svg PUBLIC "-//W3C//DTD SVG 1.1//EN"
 "http://www.w3.org/Graphics/SVG/1.1/DTD/svg11.dtd">
<!-- Generated by graphviz version 2.43.0 (0)
 -->
<!-- Title: Arcane::ISubDomain::caseMng Pages: 1 -->
<svg width="545pt" height="328pt"
 viewBox="0.00 0.00 545.00 327.50" xmlns="http://www.w3.org/2000/svg" xmlns:xlink="http://www.w3.org/1999/xlink">
<g id="graph0" class="graph" transform="scale(1 1) rotate(0) translate(4 323.5)">
<title>Arcane::ISubDomain::caseMng</title>
<!-- Node1 -->
<g id="Node000001" class="node">
<title>Node1</title>
<g id="a_Node000001"><a xlink:title="Retourne le gestionnaire du jeu de données.">
<polygon fill="#999999" stroke="#666666" points="537,-164 421,-164 421,-134 537,-134 537,-164"/>
<text text-anchor="start" x="429" y="-152" font-family="Helvetica,sans-Serif" font-size="10.00">Arcane::ISubDomain</text>
<text text-anchor="middle" x="479" y="-141" font-family="Helvetica,sans-Serif" font-size="10.00">::caseMng</text>
</a>
</g>
</g>
<!-- Node2 -->
<g id="Node000002" class="node">
<title>Node2</title>
<g id="a_Node000002"><a xlink:href="../../d8/db8/classArcane_1_1ArcaneArcaneDirectExecutionObject.html#abe4623b05987d670b120b65f57f1418d" target="_top" xlink:title="Constructeur.">
<polygon fill="white" stroke="#666666" points="385,-319.5 187,-319.5 187,-278.5 385,-278.5 385,-319.5"/>
<text text-anchor="start" x="195" y="-307.5" font-family="Helvetica,sans-Serif" font-size="10.00">Arcane::ArcaneArcaneDirect</text>
<text text-anchor="start" x="195" y="-296.5" font-family="Helvetica,sans-Serif" font-size="10.00">ExecutionObject::ArcaneArcaneDirect</text>
<text text-anchor="middle" x="286" y="-285.5" font-family="Helvetica,sans-Serif" font-size="10.00">ExecutionObject</text>
</a>
</g>
</g>
<!-- Node1&#45;&gt;Node2 -->
<g id="edge1_Node000001_Node000002" class="edge">
<title>Node1&#45;&gt;Node2</title>
<g id="a_edge1_Node000001_Node000002"><a xlink:title=" ">
<path fill="none" stroke="#63b8ff" d="M465.31,-173.22C449.86,-200.4 421.28,-243.95 385,-269 379.88,-272.54 374.32,-275.67 368.55,-278.44"/>
<polygon fill="#63b8ff" stroke="#63b8ff" points="468.44,-174.8 470.21,-164.35 462.31,-171.41 468.44,-174.8"/>
</a>
</g>
</g>
<!-- Node3 -->
<g id="Node000003" class="node">
<title>Node3</title>
<g id="a_Node000003"><a xlink:href="../../d9/d6b/classArcane_1_1TimeLoopMng.html#a875da9467f6c9ae3f64d704f8cb584a1" target="_top" xlink:title="Lance l&#39;exécution d&#39;une itération de la boucle de calcul.">
<polygon fill="white" stroke="#666666" points="348.5,-260 223.5,-260 223.5,-230 348.5,-230 348.5,-260"/>
<text text-anchor="start" x="231.5" y="-248" font-family="Helvetica,sans-Serif" font-size="10.00">Arcane::TimeLoopMng</text>
<text text-anchor="middle" x="286" y="-237" font-family="Helvetica,sans-Serif" font-size="10.00">::doOneIteration</text>
</a>
</g>
</g>
<!-- Node1&#45;&gt;Node3 -->
<g id="edge2_Node000001_Node000003" class="edge">
<title>Node1&#45;&gt;Node3</title>
<g id="a_edge2_Node000001_Node000003"><a xlink:title=" ">
<path fill="none" stroke="#63b8ff" d="M455.04,-171.26C437.27,-187.31 411.31,-208.31 385,-221 373.64,-226.48 360.92,-230.78 348.5,-234.12"/>
<polygon fill="#63b8ff" stroke="#63b8ff" points="457.63,-173.63 462.6,-164.28 452.88,-168.49 457.63,-173.63"/>
</a>
</g>
</g>
<!-- Node5 -->
<g id="Node000005" class="node">
<title>Node5</title>
<g id="a_Node000005"><a xlink:href="../../d9/d5c/classArcane_1_1CodeService.html#a89a49d26198a69abeae1f78daeddb2c8" target="_top" xlink:title="Initialise la session session.">
<polygon fill="white" stroke="#666666" points="344.5,-212 227.5,-212 227.5,-182 344.5,-182 344.5,-212"/>
<text text-anchor="start" x="235.5" y="-200" font-family="Helvetica,sans-Serif" font-size="10.00">Arcane::CodeService</text>
<text text-anchor="middle" x="286" y="-189" font-family="Helvetica,sans-Serif" font-size="10.00">::initCase</text>
</a>
</g>
</g>
<!-- Node1&#45;&gt;Node5 -->
<g id="edge4_Node000001_Node000005" class="edge">
<title>Node1&#45;&gt;Node5</title>
<g id="a_edge4_Node000001_Node000005"><a xlink:title=" ">
<path fill="none" stroke="#63b8ff" d="M411.13,-166.36C402.35,-168.61 393.46,-170.87 385,-173 371.92,-176.29 357.84,-179.77 344.55,-183.03"/>
<polygon fill="#63b8ff" stroke="#63b8ff" points="412.16,-169.71 420.98,-163.83 410.42,-162.93 412.16,-169.71"/>
</a>
</g>
</g>
<!-- Node7 -->
<g id="Node000007" class="node">
<title>Node7</title>
<g id="a_Node000007"><a xlink:href="../../db/d63/classArcane_1_1ModuleMaster.html#ae7758c3bdd1580f897d6b7367100f580" target="_top" xlink:title="Point d&#39;entrée auto&#45;chargé en début de reprise d&#39;un nouveau cas.">
<polygon fill="white" stroke="#666666" points="349,-164 223,-164 223,-134 349,-134 349,-164"/>
<text text-anchor="start" x="231" y="-152" font-family="Helvetica,sans-Serif" font-size="10.00">Arcane::ModuleMaster</text>
<text text-anchor="middle" x="286" y="-141" font-family="Helvetica,sans-Serif" font-size="10.00">::masterContinueInit</text>
</a>
</g>
</g>
<!-- Node1&#45;&gt;Node7 -->
<g id="edge6_Node000001_Node000007" class="edge">
<title>Node1&#45;&gt;Node7</title>
<g id="a_edge6_Node000001_Node000007"><a xlink:title=" ">
<path fill="none" stroke="#63b8ff" d="M410.94,-149C390.82,-149 368.86,-149 349.08,-149"/>
<polygon fill="#63b8ff" stroke="#63b8ff" points="410.95,-152.5 420.95,-149 410.95,-145.5 410.95,-152.5"/>
</a>
</g>
</g>
<!-- Node8 -->
<g id="Node000008" class="node">
<title>Node8</title>
<g id="a_Node000008"><a xlink:href="../../db/d63/classArcane_1_1ModuleMaster.html#a52f3a2ae1d8ead256923e34ada3ae55f" target="_top" xlink:title="Constructeur.">
<polygon fill="white" stroke="#666666" points="138.5,-100 12.5,-100 12.5,-70 138.5,-70 138.5,-100"/>
<text text-anchor="start" x="20.5" y="-88" font-family="Helvetica,sans-Serif" font-size="10.00">Arcane::ModuleMaster</text>
<text text-anchor="middle" x="75.5" y="-77" font-family="Helvetica,sans-Serif" font-size="10.00">::ModuleMaster</text>
</a>
</g>
</g>
<!-- Node1&#45;&gt;Node8 -->
<g id="edge10_Node000001_Node000008" class="edge">
<title>Node1&#45;&gt;Node8</title>
<g id="a_edge10_Node000001_Node000008"><a xlink:title=" ">
<path fill="none" stroke="#63b8ff" d="M414.45,-131.49C404.63,-129.11 394.58,-126.85 385,-125 300.29,-108.64 201.17,-97.12 138.61,-90.77"/>
<polygon fill="#63b8ff" stroke="#63b8ff" points="413.61,-134.89 424.16,-133.9 415.3,-128.09 413.61,-134.89"/>
</a>
</g>
</g>
<!-- Node9 -->
<g id="Node000009" class="node">
<title>Node9</title>
<g id="a_Node000009"><a xlink:href="../../db/d63/classArcane_1_1ModuleMaster.html#a4047bae438516f1b45b522bf5d793743" target="_top" xlink:title="Point d&#39;entrée auto&#45;chargé en début d&#39;initialisation d&#39;un nouveau cas.">
<polygon fill="white" stroke="#666666" points="349,-78 223,-78 223,-48 349,-48 349,-78"/>
<text text-anchor="start" x="231" y="-66" font-family="Helvetica,sans-Serif" font-size="10.00">Arcane::ModuleMaster</text>
<text text-anchor="middle" x="286" y="-55" font-family="Helvetica,sans-Serif" font-size="10.00">::masterStartInit</text>
</a>
</g>
</g>
<!-- Node1&#45;&gt;Node9 -->
<g id="edge8_Node000001_Node000009" class="edge">
<title>Node1&#45;&gt;Node9</title>
<g id="a_edge8_Node000001_Node000009"><a xlink:title=" ">
<path fill="none" stroke="#63b8ff" d="M448.35,-128.05C430.61,-116.24 407.25,-101.9 385,-92 373,-86.66 359.76,-81.99 346.98,-78.04"/>
<polygon fill="#63b8ff" stroke="#63b8ff" points="446.84,-131.26 457.08,-133.97 450.77,-125.46 446.84,-131.26"/>
</a>
</g>
</g>
<!-- Node10 -->
<g id="Node000010" class="node">
<title>Node10</title>
<g id="a_Node000010"><a xlink:href="../../db/d63/classArcane_1_1ModuleMaster.html#aaed72a3c4924567377d0a05af5add558" target="_top" xlink:title="Point d&#39;entrée auto&#45;chargé en début d&#39;itération de la boucle de calcul.">
<polygon fill="white" stroke="#666666" points="349,-30 223,-30 223,0 349,0 349,-30"/>
<text text-anchor="start" x="231" y="-18" font-family="Helvetica,sans-Serif" font-size="10.00">Arcane::ModuleMaster</text>
<text text-anchor="middle" x="286" y="-7" font-family="Helvetica,sans-Serif" font-size="10.00">::timeLoopBegin</text>
</a>
</g>
</g>
<!-- Node1&#45;&gt;Node10 -->
<g id="edge11_Node000001_Node000010" class="edge">
<title>Node1&#45;&gt;Node10</title>
<g id="a_edge11_Node000001_Node000010"><a xlink:title=" ">
<path fill="none" stroke="#63b8ff" d="M464.33,-125.31C448.49,-100.03 420.03,-60.7 385,-39 374.2,-32.31 361.66,-27.49 349.23,-24.01"/>
<polygon fill="#63b8ff" stroke="#63b8ff" points="461.39,-127.21 469.58,-133.93 467.37,-123.57 461.39,-127.21"/>
</a>
</g>
</g>
<!-- Node4 -->
<g id="Node000004" class="node">
<title>Node4</title>
<g id="a_Node000004"><a xlink:href="../../d9/d6b/classArcane_1_1TimeLoopMng.html#ab019ca64146dfd7ce6c94e3cb9ea35c4" target="_top" xlink:title="Exécute la boucle de calcul.">
<polygon fill="white" stroke="#666666" points="138,-260 13,-260 13,-230 138,-230 138,-260"/>
<text text-anchor="start" x="21" y="-248" font-family="Helvetica,sans-Serif" font-size="10.00">Arcane::TimeLoopMng</text>
<text text-anchor="middle" x="75.5" y="-237" font-family="Helvetica,sans-Serif" font-size="10.00">::doComputeLoop</text>
</a>
</g>
</g>
<!-- Node3&#45;&gt;Node4 -->
<g id="edge3_Node000003_Node000004" class="edge">
<title>Node3&#45;&gt;Node4</title>
<g id="a_edge3_Node000003_Node000004"><a xlink:title=" ">
<path fill="none" stroke="#63b8ff" d="M213.01,-245C188.6,-245 161.57,-245 138.05,-245"/>
<polygon fill="#63b8ff" stroke="#63b8ff" points="213.29,-248.5 223.29,-245 213.29,-241.5 213.29,-248.5"/>
</a>
</g>
</g>
<!-- Node6 -->
<g id="Node000006" class="node">
<title>Node6</title>
<g id="a_Node000006"><a xlink:href="../../d2/dce/classArcane_1_1ArcaneCodeService.html#aeaa0a6a6a7fe566139330caeaa6797b0" target="_top" xlink:title="Initialise la session session.">
<polygon fill="white" stroke="#666666" points="151,-212 0,-212 0,-182 151,-182 151,-212"/>
<text text-anchor="start" x="8" y="-200" font-family="Helvetica,sans-Serif" font-size="10.00">Arcane::ArcaneCodeService</text>
<text text-anchor="middle" x="75.5" y="-189" font-family="Helvetica,sans-Serif" font-size="10.00">::initCase</text>
</a>
</g>
</g>
<!-- Node5&#45;&gt;Node6 -->
<g id="edge5_Node000005_Node000006" class="edge">
<title>Node5&#45;&gt;Node6</title>
<g id="a_edge5_Node000005_Node000006"><a xlink:title=" ">
<path fill="none" stroke="#63b8ff" d="M217.29,-197C196.12,-197 172.65,-197 151.04,-197"/>
<polygon fill="#63b8ff" stroke="#63b8ff" points="217.47,-200.5 227.47,-197 217.47,-193.5 217.47,-200.5"/>
</a>
</g>
</g>
<!-- Node7&#45;&gt;Node8 -->
<g id="edge7_Node000007_Node000008" class="edge">
<title>Node7&#45;&gt;Node8</title>
<g id="a_edge7_Node000007_Node000008"><a xlink:title=" ">
<path fill="none" stroke="#63b8ff" d="M223.9,-131.11C211.67,-127.48 198.91,-123.65 187,-120 166.03,-113.58 142.88,-106.28 123.22,-100.01"/>
<polygon fill="#63b8ff" stroke="#63b8ff" points="222.99,-134.5 233.57,-133.98 224.98,-127.78 222.99,-134.5"/>
</a>
</g>
</g>
<!-- Node9&#45;&gt;Node8 -->
<g id="edge9_Node000009_Node000008" class="edge">
<title>Node9&#45;&gt;Node8</title>
<g id="a_edge9_Node000009_Node000008"><a xlink:title=" ">
<path fill="none" stroke="#63b8ff" d="M212.59,-70.64C188.56,-73.18 162.02,-75.98 138.81,-78.42"/>
<polygon fill="#63b8ff" stroke="#63b8ff" points="213.15,-74.1 222.73,-69.57 212.41,-67.14 213.15,-74.1"/>
</a>
</g>
</g>
<!-- Node10&#45;&gt;Node8 -->
<g id="edge12_Node000010_Node000008" class="edge">
<title>Node10&#45;&gt;Node8</title>
<g id="a_edge12_Node000010_Node000008"><a xlink:title=" ">
<path fill="none" stroke="#63b8ff" d="M212.99,-31.28C204.18,-33.67 195.34,-36.26 187,-39 160.15,-47.82 130.64,-60.25 108.88,-69.97"/>
<polygon fill="#63b8ff" stroke="#63b8ff" points="214.12,-34.6 222.9,-28.67 212.34,-27.84 214.12,-34.6"/>
</a>
</g>
</g>
</g>
</svg>
