<?xml version="1.0" encoding="UTF-8" standalone="no"?>
<!DOCTYPE svg PUBLIC "-//W3C//DTD SVG 1.1//EN"
 "http://www.w3.org/Graphics/SVG/1.1/DTD/svg11.dtd">
<!-- Generated by graphviz version 2.43.0 (0)
 -->
<!-- Title: Arccore::MessagePassing::Mpi::StdMpiReduceOperator&lt; RealType &gt; Pages: 1 -->
<svg width="161pt" height="310pt"
 viewBox="0.00 0.00 161.00 310.00" xmlns="http://www.w3.org/2000/svg" xmlns:xlink="http://www.w3.org/1999/xlink">
<g id="graph0" class="graph" transform="scale(1 1) rotate(0) translate(4 306)">
<title>Arccore::MessagePassing::Mpi::StdMpiReduceOperator&lt; RealType &gt;</title>
<!-- Node1 -->
<g id="Node000001" class="node">
<title>Node1</title>
<g id="a_Node000001"><a xlink:title="Opérateurs de réduction pour les types classiques.">
<polygon fill="#999999" stroke="transparent" points="153,-191 0,-191 0,0 153,0 153,-191"/>
<text text-anchor="start" x="5.5" y="-178.5" font-family="Helvetica,sans-Serif" font-size="10.00">Arccore::MessagePassing</text>
<text text-anchor="start" x="5.5" y="-167.5" font-family="Helvetica,sans-Serif" font-size="10.00">::Mpi::StdMpiReduceOperator</text>
<text text-anchor="start" x="43.5" y="-156.5" font-family="Helvetica,sans-Serif" font-size="10.00">&lt; RealType &gt;</text>
<text text-anchor="start" x="9.5" y="-141.5" font-family="Helvetica,sans-Serif" font-size="10.00">&#45;</text>
<text text-anchor="start" x="22.5" y="-141.5" font-family="Helvetica,sans-Serif" font-size="10.00">m_min_operator</text>
<text text-anchor="start" x="9.5" y="-126.5" font-family="Helvetica,sans-Serif" font-size="10.00">&#45;</text>
<text text-anchor="start" x="22.5" y="-126.5" font-family="Helvetica,sans-Serif" font-size="10.00">m_max_operator</text>
<text text-anchor="start" x="9.5" y="-111.5" font-family="Helvetica,sans-Serif" font-size="10.00">&#45;</text>
<text text-anchor="start" x="22.5" y="-111.5" font-family="Helvetica,sans-Serif" font-size="10.00">m_sum_operator</text>
<text text-anchor="start" x="7" y="-96.5" font-family="Helvetica,sans-Serif" font-size="10.00">+</text>
<text text-anchor="start" x="22.5" y="-96.5" font-family="Helvetica,sans-Serif" font-size="10.00">StdMpiReduceOperator()</text>
<text text-anchor="start" x="7" y="-81.5" font-family="Helvetica,sans-Serif" font-size="10.00">+</text>
<text text-anchor="start" x="22.5" y="-81.5" font-family="Helvetica,sans-Serif" font-size="10.00">destroy()</text>
<text text-anchor="start" x="7" y="-66.5" font-family="Helvetica,sans-Serif" font-size="10.00">+</text>
<text text-anchor="start" x="22.5" y="-66.5" font-family="Helvetica,sans-Serif" font-size="10.00">reduceOperator()</text>
<text text-anchor="start" x="9.5" y="-51.5" font-family="Helvetica,sans-Serif" font-size="10.00">&#45;</text>
<text text-anchor="start" x="22.5" y="-51.5" font-family="Helvetica,sans-Serif" font-size="10.00">_create()</text>
<text text-anchor="start" x="9.5" y="-36.5" font-family="Helvetica,sans-Serif" font-size="10.00">&#45;</text>
<text text-anchor="start" x="22.5" y="-36.5" font-family="Helvetica,sans-Serif" font-size="10.00">_MinOperator()</text>
<text text-anchor="start" x="9.5" y="-21.5" font-family="Helvetica,sans-Serif" font-size="10.00">&#45;</text>
<text text-anchor="start" x="22.5" y="-21.5" font-family="Helvetica,sans-Serif" font-size="10.00">_MaxOperator()</text>
<text text-anchor="start" x="9.5" y="-6.5" font-family="Helvetica,sans-Serif" font-size="10.00">&#45;</text>
<text text-anchor="start" x="22.5" y="-6.5" font-family="Helvetica,sans-Serif" font-size="10.00">_SumOperator()</text>
<polygon fill="#666666" stroke="#666666" points="0.5,-151.5 0.5,-151.5 153.5,-151.5 153.5,-151.5 0.5,-151.5"/>
<polygon fill="#666666" stroke="#666666" points="0.5,-106.5 0.5,-106.5 20.5,-106.5 20.5,-106.5 0.5,-106.5"/>
<polygon fill="#666666" stroke="#666666" points="20.5,-106.5 20.5,-106.5 153.5,-106.5 153.5,-106.5 20.5,-106.5"/>
<polygon fill="none" stroke="#666666" points="0,0 0,-191 153,-191 153,0 0,0"/>
</a>
</g>
</g>
<!-- Node2 -->
<g id="Node000002" class="node">
<title>Node2</title>
<g id="a_Node000002"><a xlink:href="../../d8/d7f/classArcane_1_1MessagePassing_1_1Mpi_1_1IMpiReduceOperator.html" target="_top" xlink:title="Opérateurs de réduction pour les types complexes (Real2, Real3, Real2x2 et Real3x3)">
<polygon fill="white" stroke="transparent" points="146.5,-302 6.5,-302 6.5,-227 146.5,-227 146.5,-302"/>
<text text-anchor="start" x="11.5" y="-289.5" font-family="Helvetica,sans-Serif" font-size="10.00">Arcane::MessagePassing</text>
<text text-anchor="start" x="11.5" y="-278.5" font-family="Helvetica,sans-Serif" font-size="10.00">::Mpi::IMpiReduceOperator</text>
<text text-anchor="start" x="74.5" y="-263.5" font-family="Helvetica,sans-Serif" font-size="10.00"> </text>
<text text-anchor="start" x="11" y="-248.5" font-family="Helvetica,sans-Serif" font-size="10.00">+</text>
<text text-anchor="start" x="24.5" y="-248.5" font-family="Helvetica,sans-Serif" font-size="10.00">~IMpiReduceOperator()</text>
<text text-anchor="start" x="11" y="-233.5" font-family="Helvetica,sans-Serif" font-size="10.00">+</text>
<text text-anchor="start" x="24.5" y="-233.5" font-family="Helvetica,sans-Serif" font-size="10.00">reduceOperator()</text>
<polygon fill="#666666" stroke="#666666" points="6.5,-273.5 6.5,-273.5 146.5,-273.5 146.5,-273.5 6.5,-273.5"/>
<polygon fill="#666666" stroke="#666666" points="6.5,-258.5 6.5,-258.5 146.5,-258.5 146.5,-258.5 6.5,-258.5"/>
<polygon fill="none" stroke="#666666" points="6.5,-227 6.5,-302 146.5,-302 146.5,-227 6.5,-227"/>
</a>
</g>
</g>
<!-- Node2&#45;&gt;Node1 -->
<g id="edge1_Node000001_Node000002" class="edge">
<title>Node2&#45;&gt;Node1</title>
<g id="a_edge1_Node000001_Node000002"><a xlink:title=" ">
<path fill="none" stroke="#63b8ff" d="M76.5,-216.63C76.5,-208.58 76.5,-199.96 76.5,-191.18"/>
<polygon fill="none" stroke="#63b8ff" points="73,-216.85 76.5,-226.85 80,-216.85 73,-216.85"/>
</a>
</g>
</g>
</g>
</svg>
