<?xml version="1.0" encoding="UTF-8" standalone="no"?>
<!DOCTYPE svg PUBLIC "-//W3C//DTD SVG 1.1//EN"
 "http://www.w3.org/Graphics/SVG/1.1/DTD/svg11.dtd">
<!-- Generated by graphviz version 2.43.0 (0)
 -->
<!-- Title: Arcane::LibUnwindStackTraceService Pages: 1 -->
<!--zoomable 558 -->

<svg id="main" version="1.1" xmlns="http://www.w3.org/2000/svg" xmlns:xlink="http://www.w3.org/1999/xlink" xml:space="preserve" onload="init(evt)">

<style type="text/css"><![CDATA[
.node, .edge {opacity: 0.7;}
.node.selected, .edge.selected {opacity: 1;}
.edge:hover path { stroke: red; }
.edge:hover polygon { stroke: red; fill: red; }
]]></style>

<defs>
  <circle id="rim" cx="0" cy="0" r="7"/>
  <circle id="rim2" cx="0" cy="0" r="3.5"/>
  <g id="zoomPlus">
    <use xlink:href="#rim" fill="#404040"><set attributeName="fill" to="#808080" begin="zoomplus.mouseover" end="zoomplus.mouseout"/></use>
    <path d="M-4,0h8M0,-4v8" fill="none" stroke="white" stroke-width="1.5" pointer-events="none"/>
  </g>
  <g id="zoomMin">
    <use xlink:href="#rim" fill="#404040"><set attributeName="fill" to="#808080" begin="zoomminus.mouseover" end="zoomminus.mouseout"/></use>
    <path d="M-4,0h8" fill="none" stroke="white" stroke-width="1.5" pointer-events="none"/>
  </g>
  <g id="arrowUp" transform="translate(30 24)">
    <use xlink:href="#rim"/>
    <path pointer-events="none" fill="none" stroke="white" stroke-width="1.5" d="M0,-3.0v7 M-2.5,-0.5L0,-3.0L2.5,-0.5"/>
  </g>
  <g id="arrowRight" transform="rotate(90) translate(36 -43)">
    <use xlink:href="#rim"/>
    <path pointer-events="none" fill="none" stroke="white" stroke-width="1.5" d="M0,-3.0v7 M-2.5,-0.5L0,-3.0L2.5,-0.5"/>
  </g>
  <g id="arrowDown" transform="rotate(180) translate(-30 -48)">
    <use xlink:href="#rim"/>
    <path pointer-events="none" fill="none" stroke="white" stroke-width="1.5" d="M0,-3.0v7 M-2.5,-0.5L0,-3.0L2.5,-0.5"/>
  </g>
  <g id="arrowLeft" transform="rotate(270) translate(-36 17)">
    <use xlink:href="#rim"/>
    <path pointer-events="none" fill="none" stroke="white" stroke-width="1.5" d="M0,-3.0v7 M-2.5,-0.5L0,-3.0L2.5,-0.5"/>
  </g>
  <g id="resetDef">
    <use xlink:href="#rim2" fill="#404040"><set attributeName="fill" to="#808080" begin="reset.mouseover" end="reset.mouseout"/></use>
  </g>
</defs>
<script type="application/ecmascript">
var viewWidth = 308;
var viewHeight = 558;
var sectionId = 'dynsection-0';
</script>
<script type="application/ecmascript" xlink:href="../../svg.min.js"/>
<svg id="graph" class="graph">
<g id="viewport">
<title>Arcane::LibUnwindStackTraceService</title>
<!-- Node1 -->
<g id="Node000001" class="node">
<title>Node1</title>
<g id="a_Node000001"><a xlink:title="Service de trace des appels de fonctions utilisant la libunwind.">
<polygon fill="#999999" stroke="transparent" points="233.5,-270 64.5,-270 64.5,0 233.5,0 233.5,-270"/>
<text text-anchor="start" x="77.5" y="-258" font-family="Helvetica,sans-Serif" font-size="10.00">Arcane::LibUnwindStackTrace</text>
<text text-anchor="start" x="131" y="-247" font-family="Helvetica,sans-Serif" font-size="10.00">Service</text>
<text text-anchor="start" x="71.5" y="-232" font-family="Helvetica,sans-Serif" font-size="10.00">&#45;</text>
<text text-anchor="start" x="82" y="-232" font-family="Helvetica,sans-Serif" font-size="10.00">m_proc_name_map</text>
<text text-anchor="start" x="71.5" y="-217" font-family="Helvetica,sans-Serif" font-size="10.00">&#45;</text>
<text text-anchor="start" x="82" y="-217" font-family="Helvetica,sans-Serif" font-size="10.00">m_proc_name_map_mutex</text>
<text text-anchor="start" x="71.5" y="-202" font-family="Helvetica,sans-Serif" font-size="10.00">&#45;</text>
<text text-anchor="start" x="82" y="-202" font-family="Helvetica,sans-Serif" font-size="10.00">m_want_gdb_info</text>
<text text-anchor="start" x="71.5" y="-187" font-family="Helvetica,sans-Serif" font-size="10.00">&#45;</text>
<text text-anchor="start" x="82" y="-187" font-family="Helvetica,sans-Serif" font-size="10.00">m_use_backtrace</text>
<text text-anchor="start" x="71.5" y="-172" font-family="Helvetica,sans-Serif" font-size="10.00">&#45;</text>
<text text-anchor="start" x="82" y="-172" font-family="Helvetica,sans-Serif" font-size="10.00">m_dw_handler</text>
<text text-anchor="start" x="69" y="-157" font-family="Helvetica,sans-Serif" font-size="10.00">+</text>
<text text-anchor="start" x="82" y="-157" font-family="Helvetica,sans-Serif" font-size="10.00">LibUnwindStackTraceService()</text>
<text text-anchor="start" x="69" y="-142" font-family="Helvetica,sans-Serif" font-size="10.00">+</text>
<text text-anchor="start" x="82" y="-142" font-family="Helvetica,sans-Serif" font-size="10.00">LibUnwindStackTraceService()</text>
<text text-anchor="start" x="69" y="-127" font-family="Helvetica,sans-Serif" font-size="10.00">+</text>
<text text-anchor="start" x="82" y="-127" font-family="Helvetica,sans-Serif" font-size="10.00">build()</text>
<text text-anchor="start" x="69" y="-112" font-family="Helvetica,sans-Serif" font-size="10.00">+</text>
<text text-anchor="start" x="82" y="-112" font-family="Helvetica,sans-Serif" font-size="10.00">stackTrace()</text>
<text text-anchor="start" x="69" y="-97" font-family="Helvetica,sans-Serif" font-size="10.00">+</text>
<text text-anchor="start" x="82" y="-97" font-family="Helvetica,sans-Serif" font-size="10.00">stackTraceFunction()</text>
<text text-anchor="start" x="71.5" y="-82" font-family="Helvetica,sans-Serif" font-size="10.00">&#45;</text>
<text text-anchor="start" x="82" y="-82" font-family="Helvetica,sans-Serif" font-size="10.00">_getFuncInfo()</text>
<text text-anchor="start" x="71.5" y="-67" font-family="Helvetica,sans-Serif" font-size="10.00">&#45;</text>
<text text-anchor="start" x="82" y="-67" font-family="Helvetica,sans-Serif" font-size="10.00">_getFuncInfo()</text>
<text text-anchor="start" x="71.5" y="-52" font-family="Helvetica,sans-Serif" font-size="10.00">&#45;</text>
<text text-anchor="start" x="82" y="-52" font-family="Helvetica,sans-Serif" font-size="10.00">_getGDBStack()</text>
<text text-anchor="start" x="71.5" y="-37" font-family="Helvetica,sans-Serif" font-size="10.00">&#45;</text>
<text text-anchor="start" x="82" y="-37" font-family="Helvetica,sans-Serif" font-size="10.00">_backtraceStackTrace()</text>
<text text-anchor="start" x="71.5" y="-22" font-family="Helvetica,sans-Serif" font-size="10.00">&#45;</text>
<text text-anchor="start" x="82" y="-22" font-family="Helvetica,sans-Serif" font-size="10.00">_generateFileAndOffset()</text>
<text text-anchor="start" x="71.5" y="-7" font-family="Helvetica,sans-Serif" font-size="10.00">&#45;</text>
<text text-anchor="start" x="82" y="-7" font-family="Helvetica,sans-Serif" font-size="10.00">_backtraceStackFrame()</text>
<polygon fill="#666666" stroke="#666666" points="65,-242 65,-242 234,-242 234,-242 65,-242"/>
<polygon fill="#666666" stroke="#666666" points="65,-167 65,-167 80,-167 80,-167 65,-167"/>
<polygon fill="#666666" stroke="#666666" points="80,-167 80,-167 234,-167 234,-167 80,-167"/>
<polygon fill="none" stroke="#666666" points="64.5,0 64.5,-270 233.5,-270 233.5,0 64.5,0"/>
</a>
</g>
</g>
<!-- Node2 -->
<g id="Node000002" class="node">
<title>Node2</title>
<g id="a_Node000002"><a xlink:href="../../d1/d17/classArcane_1_1TraceAccessor.html" target="_top" xlink:title="Classe d&#39;accès aux traces.">
<polygon fill="white" stroke="transparent" points="140,-550 0,-550 0,-306 140,-306 140,-550"/>
<text text-anchor="start" x="15.5" y="-538" font-family="Helvetica,sans-Serif" font-size="10.00">Arcane::TraceAccessor</text>
<text text-anchor="start" x="6.5" y="-523" font-family="Helvetica,sans-Serif" font-size="10.00">&#45;</text>
<text text-anchor="start" x="17" y="-523" font-family="Helvetica,sans-Serif" font-size="10.00">m_trace</text>
<text text-anchor="start" x="6.5" y="-508" font-family="Helvetica,sans-Serif" font-size="10.00">&#45;</text>
<text text-anchor="start" x="17" y="-508" font-family="Helvetica,sans-Serif" font-size="10.00">m_local_verbose_level</text>
<text text-anchor="start" x="4" y="-493" font-family="Helvetica,sans-Serif" font-size="10.00">+</text>
<text text-anchor="start" x="17" y="-493" font-family="Helvetica,sans-Serif" font-size="10.00">TraceAccessor()</text>
<text text-anchor="start" x="4" y="-478" font-family="Helvetica,sans-Serif" font-size="10.00">+</text>
<text text-anchor="start" x="17" y="-478" font-family="Helvetica,sans-Serif" font-size="10.00">TraceAccessor()</text>
<text text-anchor="start" x="4" y="-463" font-family="Helvetica,sans-Serif" font-size="10.00">+</text>
<text text-anchor="start" x="17" y="-463" font-family="Helvetica,sans-Serif" font-size="10.00">operator=()</text>
<text text-anchor="start" x="4" y="-448" font-family="Helvetica,sans-Serif" font-size="10.00">+</text>
<text text-anchor="start" x="17" y="-448" font-family="Helvetica,sans-Serif" font-size="10.00">~TraceAccessor()</text>
<text text-anchor="start" x="4" y="-433" font-family="Helvetica,sans-Serif" font-size="10.00">+</text>
<text text-anchor="start" x="17" y="-433" font-family="Helvetica,sans-Serif" font-size="10.00">traceMng()</text>
<text text-anchor="start" x="4" y="-418" font-family="Helvetica,sans-Serif" font-size="10.00">+</text>
<text text-anchor="start" x="17" y="-418" font-family="Helvetica,sans-Serif" font-size="10.00">info()</text>
<text text-anchor="start" x="4" y="-403" font-family="Helvetica,sans-Serif" font-size="10.00">+</text>
<text text-anchor="start" x="17" y="-403" font-family="Helvetica,sans-Serif" font-size="10.00">pinfo()</text>
<text text-anchor="start" x="4" y="-388" font-family="Helvetica,sans-Serif" font-size="10.00">+</text>
<text text-anchor="start" x="17" y="-388" font-family="Helvetica,sans-Serif" font-size="10.00">info()</text>
<text text-anchor="start" x="4" y="-373" font-family="Helvetica,sans-Serif" font-size="10.00">+</text>
<text text-anchor="start" x="17" y="-373" font-family="Helvetica,sans-Serif" font-size="10.00">pinfo()</text>
<text text-anchor="start" x="4" y="-358" font-family="Helvetica,sans-Serif" font-size="10.00">+</text>
<text text-anchor="start" x="17" y="-358" font-family="Helvetica,sans-Serif" font-size="10.00">info()</text>
<text text-anchor="start" x="17" y="-343" font-family="Helvetica,sans-Serif" font-size="10.00">et 15 de plus...</text>
<text text-anchor="start" x="4" y="-328" font-family="Helvetica,sans-Serif" font-size="10.00">#</text>
<text text-anchor="start" x="17" y="-328" font-family="Helvetica,sans-Serif" font-size="10.00">_setLocalVerboseLevel()</text>
<text text-anchor="start" x="4" y="-313" font-family="Helvetica,sans-Serif" font-size="10.00">#</text>
<text text-anchor="start" x="17" y="-313" font-family="Helvetica,sans-Serif" font-size="10.00">_localVerboseLevel()</text>
<polygon fill="#666666" stroke="#666666" points="0,-533 0,-533 140,-533 140,-533 0,-533"/>
<polygon fill="#666666" stroke="#666666" points="0,-503 0,-503 15,-503 15,-503 0,-503"/>
<polygon fill="#666666" stroke="#666666" points="15,-503 15,-503 140,-503 140,-503 15,-503"/>
<polygon fill="none" stroke="#666666" points="0,-306 0,-550 140,-550 140,-306 0,-306"/>
</a>
</g>
</g>
<!-- Node2&#45;&gt;Node1 -->
<g id="edge1_Node000001_Node000002" class="edge">
<title>Node2&#45;&gt;Node1</title>
<g id="a_edge1_Node000001_Node000002"><a xlink:title=" ">
<path fill="none" stroke="#63b8ff" d="M105.62,-295.78C107.92,-287.31 110.24,-278.77 112.55,-270.28"/>
<polygon fill="none" stroke="#63b8ff" points="102.17,-295.13 102.93,-305.7 108.93,-296.96 102.17,-295.13"/>
</a>
</g>
</g>
<!-- Node3 -->
<g id="Node000003" class="node">
<title>Node3</title>
<g id="a_Node000003"><a xlink:href="../../d0/da3/classArcane_1_1IStackTraceService.html" target="_top" xlink:title="Interface d&#39;un service de trace des appels de fonctions.">
<polygon fill="white" stroke="transparent" points="300,-475 158,-475 158,-381 300,-381 300,-475"/>
<text text-anchor="start" x="163" y="-463" font-family="Helvetica,sans-Serif" font-size="10.00">Arcane::IStackTraceService</text>
<text text-anchor="start" x="227" y="-448" font-family="Helvetica,sans-Serif" font-size="10.00"> </text>
<text text-anchor="start" x="165" y="-433" font-family="Helvetica,sans-Serif" font-size="10.00">+</text>
<text text-anchor="start" x="181" y="-433" font-family="Helvetica,sans-Serif" font-size="10.00">~IStackTraceService()</text>
<text text-anchor="start" x="165" y="-418" font-family="Helvetica,sans-Serif" font-size="10.00">+</text>
<text text-anchor="start" x="181" y="-418" font-family="Helvetica,sans-Serif" font-size="10.00">build()</text>
<text text-anchor="start" x="165" y="-403" font-family="Helvetica,sans-Serif" font-size="10.00">+</text>
<text text-anchor="start" x="181" y="-403" font-family="Helvetica,sans-Serif" font-size="10.00">stackTrace()</text>
<text text-anchor="start" x="165" y="-388" font-family="Helvetica,sans-Serif" font-size="10.00">+</text>
<text text-anchor="start" x="181" y="-388" font-family="Helvetica,sans-Serif" font-size="10.00">stackTraceFunction()</text>
<polygon fill="#666666" stroke="#666666" points="158,-458 158,-458 300,-458 300,-458 158,-458"/>
<polygon fill="#666666" stroke="#666666" points="158,-443 158,-443 300,-443 300,-443 158,-443"/>
<polygon fill="none" stroke="#666666" points="158,-381 158,-475 300,-475 300,-381 158,-381"/>
</a>
</g>
</g>
<!-- Node3&#45;&gt;Node1 -->
<g id="edge2_Node000001_Node000003" class="edge">
<title>Node3&#45;&gt;Node1</title>
<g id="a_edge2_Node000001_Node000003"><a xlink:title=" ">
<path fill="none" stroke="#63b8ff" d="M213.61,-371.03C205.7,-342.23 195.67,-305.77 185.9,-270.21"/>
<polygon fill="none" stroke="#63b8ff" points="210.3,-372.18 216.32,-380.89 217.05,-370.32 210.3,-372.18"/>
</a>
</g>
</g>
</g>
</svg>

<g id="navigator" transform="translate(0 0)" fill="#404254">
  <rect fill="#f2f5e9" fill-opacity="0.5" stroke="#606060" stroke-width=".5" x="0" y="0" width="60" height="60"/>
  <use id="zoomplus" xlink:href="#zoomPlus" x="17" y="9" onmousedown="handleZoom(evt,'in')"/>
  <use id="zoomminus" xlink:href="#zoomMin" x="42" y="9" onmousedown="handleZoom(evt,'out')"/>
  <use id="reset" xlink:href="#resetDef" x="30" y="36" onmousedown="handleReset()"/>
   <use id="arrowup" xlink:href="#arrowUp" x="0" y="0" onmousedown="handlePan(0,-1)"/>
  <use id="arrowright" xlink:href="#arrowRight" x="0" y="0" onmousedown="handlePan(1,0)"/>
  <use id="arrowdown" xlink:href="#arrowDown" x="0" y="0" onmousedown="handlePan(0,1)"/>
  <use id="arrowleft" xlink:href="#arrowLeft" x="0" y="0" onmousedown="handlePan(-1,0)"/>
</g>
<svg viewBox="0 0 15 15" width="100%" height="30px" preserveAspectRatio="xMaxYMin meet">
 <g id="arrow_out" transform="scale(0.3 0.3)">
  <a xlink:href="classArcane_1_1LibUnwindStackTraceService__inherit__graph_org.svg" target="_base">
   <rect id="button" ry="5" rx="5" y="6" x="6" height="38" width="38"
        fill="#f2f5e9" fill-opacity="0.5" stroke="#606060" stroke-width="1.0"/>
   <path id="arrow"
     d="M 11.500037,31.436501 C 11.940474,20.09759 22.043105,11.32322 32.158766,21.979434 L 37.068811,17.246167 C 37.068811,17.246167 37.088388,32 37.088388,32 L 22.160133,31.978069 C 22.160133,31.978069 26.997745,27.140456 26.997745,27.140456 C 18.528582,18.264221 13.291696,25.230495 11.500037,31.436501 z"
     style="fill:#404040;"/>
  </a>
 </g>
</svg>

<style type='text/css'>
<![CDATA[
[data-mouse-over-selected='false'] { opacity: 0.7; }
[data-mouse-over-selected='true']  { opacity: 1.0; }
]]>
</style>
<script type="application/ecmascript"><![CDATA[
document.addEventListener('DOMContentLoaded', (event) => {
  highlightEdges();
  highlightAdjacentNodes();
});
]]></script>
</svg>
