<?xml version="1.0" encoding="UTF-8" standalone="no"?>
<!DOCTYPE svg PUBLIC "-//W3C//DTD SVG 1.1//EN"
 "http://www.w3.org/Graphics/SVG/1.1/DTD/svg11.dtd">
<!-- Generated by graphviz version 2.43.0 (0)
 -->
<!-- Title: Arcane::CartesianGridDimension::getFaceComputer2D Pages: 1 -->
<svg width="651pt" height="146pt"
 viewBox="0.00 0.00 651.00 146.00" xmlns="http://www.w3.org/2000/svg" xmlns:xlink="http://www.w3.org/1999/xlink">
<g id="graph0" class="graph" transform="scale(1 1) rotate(0) translate(4 142)">
<title>Arcane::CartesianGridDimension::getFaceComputer2D</title>
<!-- Node1 -->
<g id="Node000001" class="node">
<title>Node1</title>
<g id="a_Node000001"><a xlink:title="Instance pour calculer les uniqueId() des faces pour cette grille.">
<polygon fill="#999999" stroke="#666666" points="643,-84 467,-84 467,-54 643,-54 643,-84"/>
<text text-anchor="start" x="475" y="-72" font-family="Helvetica,sans-Serif" font-size="10.00">Arcane::CartesianGridDimension</text>
<text text-anchor="middle" x="555" y="-61" font-family="Helvetica,sans-Serif" font-size="10.00">::getFaceComputer2D</text>
</a>
</g>
</g>
<!-- Node2 -->
<g id="Node000002" class="node">
<title>Node2</title>
<g id="a_Node000002"><a xlink:href="../../d2/db4/classArcane_1_1CartesianMeshCoarsening2.html#af0f910b120a306065da8bd46f793aede" target="_top" xlink:title=" ">
<polygon fill="white" stroke="#666666" points="423.5,-138 233.5,-138 233.5,-108 423.5,-108 423.5,-138"/>
<text text-anchor="start" x="241.5" y="-126" font-family="Helvetica,sans-Serif" font-size="10.00">Arcane::CartesianMeshCoarsening2</text>
<text text-anchor="middle" x="328.5" y="-115" font-family="Helvetica,sans-Serif" font-size="10.00">::_createCoarseCells2D</text>
</a>
</g>
</g>
<!-- Node1&#45;&gt;Node2 -->
<g id="edge1_Node000001_Node000002" class="edge">
<title>Node1&#45;&gt;Node2</title>
<g id="a_edge1_Node000001_Node000002"><a xlink:title=" ">
<path fill="none" stroke="#63b8ff" d="M482.85,-86.44C465.87,-90.58 447.79,-94.97 431,-99 418.85,-101.92 405.88,-105.01 393.41,-107.96"/>
<polygon fill="#63b8ff" stroke="#63b8ff" points="483.82,-89.81 492.71,-84.04 482.16,-83.01 483.82,-89.81"/>
</a>
</g>
</g>
<!-- Node4 -->
<g id="Node000004" class="node">
<title>Node4</title>
<g id="a_Node000004"><a xlink:href="../../df/dab/classArcane_1_1mesh_1_1CartesianFaceUniqueIdBuilder.html#ac57045253d49c50fa556371bd271c70a" target="_top" xlink:title="Calcule les uniqueId() et les propriétaires.">
<polygon fill="white" stroke="#666666" points="431,-89.5 226,-89.5 226,-48.5 431,-48.5 431,-89.5"/>
<text text-anchor="start" x="234" y="-77.5" font-family="Helvetica,sans-Serif" font-size="10.00">Arcane::mesh::CartesianFace</text>
<text text-anchor="start" x="234" y="-66.5" font-family="Helvetica,sans-Serif" font-size="10.00">UniqueIdBuilder::computeFacesUnique</text>
<text text-anchor="middle" x="328.5" y="-55.5" font-family="Helvetica,sans-Serif" font-size="10.00">IdAndOwner</text>
</a>
</g>
</g>
<!-- Node1&#45;&gt;Node4 -->
<g id="edge3_Node000001_Node000004" class="edge">
<title>Node1&#45;&gt;Node4</title>
<g id="a_edge3_Node000001_Node000004"><a xlink:title=" ">
<path fill="none" stroke="#63b8ff" d="M456.64,-69C448.19,-69 439.63,-69 431.15,-69"/>
<polygon fill="#63b8ff" stroke="#63b8ff" points="456.88,-72.5 466.88,-69 456.88,-65.5 456.88,-72.5"/>
</a>
</g>
</g>
<!-- Node5 -->
<g id="Node000005" class="node">
<title>Node5</title>
<g id="a_Node000005"><a xlink:href="../../d7/dc8/classArcane_1_1CartesianMeshCoarsening.html#a2639163227403bf7075fbb24a0ce5f1a" target="_top" xlink:title="Déraffine le maillage initial par 2.">
<polygon fill="white" stroke="#666666" points="420.5,-30 236.5,-30 236.5,0 420.5,0 420.5,-30"/>
<text text-anchor="start" x="244.5" y="-18" font-family="Helvetica,sans-Serif" font-size="10.00">Arcane::CartesianMeshCoarsening</text>
<text text-anchor="middle" x="328.5" y="-7" font-family="Helvetica,sans-Serif" font-size="10.00">::createCoarseCells</text>
</a>
</g>
</g>
<!-- Node1&#45;&gt;Node5 -->
<g id="edge4_Node000001_Node000005" class="edge">
<title>Node1&#45;&gt;Node5</title>
<g id="a_edge4_Node000001_Node000005"><a xlink:title=" ">
<path fill="none" stroke="#63b8ff" d="M481.46,-51.55C452.65,-44.62 419.83,-36.73 392.09,-30.05"/>
<polygon fill="#63b8ff" stroke="#63b8ff" points="480.92,-55.02 491.46,-53.96 482.56,-48.22 480.92,-55.02"/>
</a>
</g>
</g>
<!-- Node3 -->
<g id="Node000003" class="node">
<title>Node3</title>
<g id="a_Node000003"><a xlink:href="../../d2/db4/classArcane_1_1CartesianMeshCoarsening2.html#a25dea01f8982749c190ec6f8e75951b9" target="_top" xlink:title="Déraffine le maillage initial par 2.">
<polygon fill="white" stroke="#666666" points="190,-138 0,-138 0,-108 190,-108 190,-138"/>
<text text-anchor="start" x="8" y="-126" font-family="Helvetica,sans-Serif" font-size="10.00">Arcane::CartesianMeshCoarsening2</text>
<text text-anchor="middle" x="95" y="-115" font-family="Helvetica,sans-Serif" font-size="10.00">::createCoarseCells</text>
</a>
</g>
</g>
<!-- Node2&#45;&gt;Node3 -->
<g id="edge2_Node000002_Node000003" class="edge">
<title>Node2&#45;&gt;Node3</title>
<g id="a_edge2_Node000002_Node000003"><a xlink:title=" ">
<path fill="none" stroke="#63b8ff" d="M223.24,-123C212.19,-123 201,-123 190.08,-123"/>
<polygon fill="#63b8ff" stroke="#63b8ff" points="223.34,-126.5 233.34,-123 223.34,-119.5 223.34,-126.5"/>
</a>
</g>
</g>
</g>
</svg>
