<?xml version="1.0" encoding="UTF-8" standalone="no"?>
<!DOCTYPE svg PUBLIC "-//W3C//DTD SVG 1.1//EN"
 "http://www.w3.org/Graphics/SVG/1.1/DTD/svg11.dtd">
<!-- Generated by graphviz version 2.43.0 (0)
 -->
<!-- Title: Arcane::impl::BasicReader::metaData Pages: 1 -->
<svg width="717pt" height="187pt"
 viewBox="0.00 0.00 717.00 186.50" xmlns="http://www.w3.org/2000/svg" xmlns:xlink="http://www.w3.org/1999/xlink">
<g id="graph0" class="graph" transform="scale(1 1) rotate(0) translate(4 182.5)">
<title>Arcane::impl::BasicReader::metaData</title>
<!-- Node1 -->
<g id="Node000001" class="node">
<title>Node1</title>
<g id="a_Node000001"><a xlink:title="Méta&#45;données.">
<polygon fill="#999999" stroke="#666666" points="145,-137.5 0,-137.5 0,-107.5 145,-107.5 145,-137.5"/>
<text text-anchor="start" x="8" y="-125.5" font-family="Helvetica,sans-Serif" font-size="10.00">Arcane::impl::BasicReader</text>
<text text-anchor="middle" x="72.5" y="-114.5" font-family="Helvetica,sans-Serif" font-size="10.00">::metaData</text>
</a>
</g>
</g>
<!-- Node2 -->
<g id="Node000002" class="node">
<title>Node2</title>
<g id="a_Node000002"><a xlink:href="../../d8/d55/classArcane_1_1impl_1_1BasicReader.html#ae2bc4bbdfc74d643bd2b2c2767239dcd" target="_top" xlink:title="Remplit bytes avec le contenu des méta&#45;données.">
<polygon fill="white" stroke="#666666" points="326,-116.5 181,-116.5 181,-86.5 326,-86.5 326,-116.5"/>
<text text-anchor="start" x="189" y="-104.5" font-family="Helvetica,sans-Serif" font-size="10.00">Arcane::impl::BasicReader</text>
<text text-anchor="middle" x="253.5" y="-93.5" font-family="Helvetica,sans-Serif" font-size="10.00">::fillMetaData</text>
</a>
</g>
</g>
<!-- Node1&#45;&gt;Node2 -->
<g id="edge1_Node000001_Node000002" class="edge">
<title>Node1&#45;&gt;Node2</title>
<g id="a_edge1_Node000001_Node000002"><a xlink:title=" ">
<path fill="none" stroke="#63b8ff" d="M145.02,-114.11C153.49,-113.12 162.18,-112.1 170.78,-111.09"/>
<polygon fill="#63b8ff" stroke="#63b8ff" points="171.28,-114.55 180.8,-109.91 170.46,-107.6 171.28,-114.55"/>
</a>
</g>
</g>
<!-- Node6 -->
<g id="Node000006" class="node">
<title>Node6</title>
<g id="a_Node000006"><a xlink:href="../../d1/d17/classArcane_1_1TraceAccessor.html#a7f15f017b10b72c85bba3fce76314619" target="_top" xlink:title="Flot pour un message d&#39;information.">
<polygon fill="white" stroke="#666666" points="502.5,-178.5 377.5,-178.5 377.5,-148.5 502.5,-148.5 502.5,-178.5"/>
<text text-anchor="start" x="385.5" y="-166.5" font-family="Helvetica,sans-Serif" font-size="10.00">Arcane::TraceAccessor</text>
<text text-anchor="middle" x="440" y="-155.5" font-family="Helvetica,sans-Serif" font-size="10.00">::info</text>
</a>
</g>
</g>
<!-- Node1&#45;&gt;Node6 -->
<g id="edge9_Node000001_Node000006" class="edge">
<title>Node1&#45;&gt;Node6</title>
<g id="a_edge9_Node000001_Node000006"><a xlink:title=" ">
<path fill="none" stroke="#63b8ff" d="M145.27,-130.55C209.51,-137.76 303.18,-148.26 367.37,-155.47"/>
<polygon fill="#63b8ff" stroke="#63b8ff" points="367.08,-158.95 377.41,-156.59 367.86,-152 367.08,-158.95"/>
</a>
</g>
</g>
<!-- Node3 -->
<g id="Node000003" class="node">
<title>Node3</title>
<g id="a_Node000003"><a xlink:href="../../d0/d32/namespaceArcane.html#ac2bfc9a83958f3f8e203fce7f01c6634" target="_top" xlink:title="Converti la vue en un tableau d&#39;octets modifiables.">
<polygon fill="white" stroke="#666666" points="508.5,-130 371.5,-130 371.5,-111 508.5,-111 508.5,-130"/>
<text text-anchor="middle" x="440" y="-118" font-family="Helvetica,sans-Serif" font-size="10.00">Arcane::asWritableBytes</text>
</a>
</g>
</g>
<!-- Node2&#45;&gt;Node3 -->
<g id="edge2_Node000002_Node000003" class="edge">
<title>Node2&#45;&gt;Node3</title>
<g id="a_edge2_Node000002_Node000003"><a xlink:title=" ">
<path fill="none" stroke="#63b8ff" d="M326.1,-108.87C337.61,-110.06 349.58,-111.29 361.24,-112.49"/>
<polygon fill="#63b8ff" stroke="#63b8ff" points="361.07,-115.99 371.37,-113.54 361.79,-109.03 361.07,-115.99"/>
</a>
</g>
</g>
<!-- Node2&#45;&gt;Node6 -->
<g id="edge5_Node000002_Node000006" class="edge">
<title>Node2&#45;&gt;Node6</title>
<g id="a_edge5_Node000002_Node000006"><a xlink:title=" ">
<path fill="none" stroke="#63b8ff" d="M297.6,-116.53C317.22,-123.32 340.75,-131.4 362,-138.5 368.54,-140.69 375.4,-142.95 382.21,-145.19"/>
<polygon fill="#63b8ff" stroke="#63b8ff" points="381.54,-148.65 392.13,-148.43 383.71,-141.99 381.54,-148.65"/>
</a>
</g>
</g>
<!-- Node7 -->
<g id="Node000007" class="node">
<title>Node7</title>
<g id="a_Node000007"><a xlink:href="../../dd/d27/namespaceArcane_1_1platform.html#abbe334d7bde9016936df0309901f7902" target="_top" xlink:title="Lit le contenu d&#39;un fichier et le conserve dans out_bytes.">
<polygon fill="white" stroke="#666666" points="518,-93 362,-93 362,-74 518,-74 518,-93"/>
<text text-anchor="middle" x="440" y="-81" font-family="Helvetica,sans-Serif" font-size="10.00">Arcane::platform::readAllFile</text>
</a>
</g>
</g>
<!-- Node2&#45;&gt;Node7 -->
<g id="edge6_Node000002_Node000007" class="edge">
<title>Node2&#45;&gt;Node7</title>
<g id="a_edge6_Node000002_Node000007"><a xlink:title=" ">
<path fill="none" stroke="#63b8ff" d="M326.1,-94.51C334.54,-93.69 343.23,-92.84 351.86,-92"/>
<polygon fill="#63b8ff" stroke="#63b8ff" points="352.33,-95.47 361.94,-91.02 351.65,-88.51 352.33,-95.47"/>
</a>
</g>
</g>
<!-- Node8 -->
<g id="Node000008" class="node">
<title>Node8</title>
<g id="a_Node000008"><a xlink:href="../../d1/dfb/classArcane_1_1Array.html#a31fc5b4bd79b4f6e4a011735d33b1818" target="_top" xlink:title="Change le nombre d&#39;éléments du tableau à s.">
<polygon fill="white" stroke="#666666" points="498.5,-56 381.5,-56 381.5,-37 498.5,-37 498.5,-56"/>
<text text-anchor="middle" x="440" y="-44" font-family="Helvetica,sans-Serif" font-size="10.00">Arcane::Array::resize</text>
</a>
</g>
</g>
<!-- Node2&#45;&gt;Node8 -->
<g id="edge7_Node000002_Node000008" class="edge">
<title>Node2&#45;&gt;Node8</title>
<g id="a_edge7_Node000002_Node000008"><a xlink:title=" ">
<path fill="none" stroke="#63b8ff" d="M295.03,-86.46C315.03,-79.31 339.62,-70.95 362,-64.5 369.42,-62.36 377.3,-60.29 385.07,-58.37"/>
<polygon fill="#63b8ff" stroke="#63b8ff" points="385.93,-61.76 394.82,-56.01 384.28,-54.96 385.93,-61.76"/>
</a>
</g>
</g>
<!-- Node9 -->
<g id="Node000009" class="node">
<title>Node9</title>
<g id="a_Node000009"><a xlink:href="../../d1/dfb/classArcane_1_1Array.html#aaa0b7d08701ac99a206a32b98657bd60" target="_top" xlink:title="Vue immutable sur ce tableau.">
<polygon fill="white" stroke="#666666" points="495.5,-19 384.5,-19 384.5,0 495.5,0 495.5,-19"/>
<text text-anchor="middle" x="440" y="-7" font-family="Helvetica,sans-Serif" font-size="10.00">Arcane::Array::span</text>
</a>
</g>
</g>
<!-- Node2&#45;&gt;Node9 -->
<g id="edge8_Node000002_Node000009" class="edge">
<title>Node2&#45;&gt;Node9</title>
<g id="a_edge8_Node000002_Node000009"><a xlink:title=" ">
<path fill="none" stroke="#63b8ff" d="M271.9,-86.43C292.19,-69.63 327.39,-42.8 362,-27.5 366.67,-25.44 371.6,-23.59 376.63,-21.95"/>
<polygon fill="#63b8ff" stroke="#63b8ff" points="377.79,-25.25 386.36,-19.03 375.78,-18.55 377.79,-25.25"/>
</a>
</g>
</g>
<!-- Node4 -->
<g id="Node000004" class="node">
<title>Node4</title>
<g id="a_Node000004"><a xlink:href="../../df/d52/classArcane_1_1SpanImpl.html#a3e1c051a53a97aa6625e6018350f5447" target="_top" xlink:title="Pointeur sur le début de la vue.">
<polygon fill="white" stroke="#666666" points="696.5,-148 566.5,-148 566.5,-129 696.5,-129 696.5,-148"/>
<text text-anchor="middle" x="631.5" y="-136" font-family="Helvetica,sans-Serif" font-size="10.00">Arcane::SpanImpl::data</text>
</a>
</g>
</g>
<!-- Node3&#45;&gt;Node4 -->
<g id="edge3_Node000003_Node000004" class="edge">
<title>Node3&#45;&gt;Node4</title>
<g id="a_edge3_Node000003_Node000004"><a xlink:title=" ">
<path fill="none" stroke="#63b8ff" d="M508.61,-126.92C524.04,-128.39 540.53,-129.95 556.22,-131.44"/>
<polygon fill="#63b8ff" stroke="#63b8ff" points="556.12,-134.95 566.4,-132.41 556.78,-127.98 556.12,-134.95"/>
</a>
</g>
</g>
<!-- Node5 -->
<g id="Node000005" class="node">
<title>Node5</title>
<g id="a_Node000005"><a xlink:href="../../df/d52/classArcane_1_1SpanImpl.html#ad8054556fcf18258191c94ba7ef9df4e" target="_top" xlink:title="Retourne la taille du tableau en octets.">
<polygon fill="white" stroke="#666666" points="709,-111 554,-111 554,-92 709,-92 709,-111"/>
<text text-anchor="middle" x="631.5" y="-99" font-family="Helvetica,sans-Serif" font-size="10.00">Arcane::SpanImpl::sizeBytes</text>
</a>
</g>
</g>
<!-- Node3&#45;&gt;Node5 -->
<g id="edge4_Node000003_Node000005" class="edge">
<title>Node3&#45;&gt;Node5</title>
<g id="a_edge4_Node000003_Node000005"><a xlink:title=" ">
<path fill="none" stroke="#63b8ff" d="M508.61,-113.72C519.96,-112.58 531.87,-111.39 543.62,-110.21"/>
<polygon fill="#63b8ff" stroke="#63b8ff" points="544.28,-113.66 553.88,-109.18 543.58,-106.7 544.28,-113.66"/>
</a>
</g>
</g>
</g>
</svg>
