<?xml version="1.0" encoding="UTF-8" standalone="no"?>
<!DOCTYPE svg PUBLIC "-//W3C//DTD SVG 1.1//EN"
 "http://www.w3.org/Graphics/SVG/1.1/DTD/svg11.dtd">
<!-- Generated by graphviz version 2.43.0 (0)
 -->
<!-- Title: Arcane::IParallelReplication::nbReplication Pages: 1 -->
<svg width="505pt" height="86pt"
 viewBox="0.00 0.00 505.00 86.00" xmlns="http://www.w3.org/2000/svg" xmlns:xlink="http://www.w3.org/1999/xlink">
<g id="graph0" class="graph" transform="scale(1 1) rotate(0) translate(4 82)">
<title>Arcane::IParallelReplication::nbReplication</title>
<!-- Node1 -->
<g id="Node000001" class="node">
<title>Node1</title>
<g id="a_Node000001"><a xlink:title="Nombre de réplication.">
<polygon fill="#999999" stroke="#666666" points="497,-54 347,-54 347,-24 497,-24 497,-54"/>
<text text-anchor="start" x="355" y="-42" font-family="Helvetica,sans-Serif" font-size="10.00">Arcane::IParallelReplication</text>
<text text-anchor="middle" x="422" y="-31" font-family="Helvetica,sans-Serif" font-size="10.00">::nbReplication</text>
</a>
</g>
</g>
<!-- Node2 -->
<g id="Node000002" class="node">
<title>Node2</title>
<g id="a_Node000002"><a xlink:href="../../da/dde/classArcane_1_1CheckpointMng.html#a60a72af7a74da8d1705bdd99c0c8141f" target="_top" xlink:title=" ">
<polygon fill="white" stroke="#666666" points="311,-78 168,-78 168,-48 311,-48 311,-78"/>
<text text-anchor="start" x="176" y="-66" font-family="Helvetica,sans-Serif" font-size="10.00">Arcane::CheckpointMng</text>
<text text-anchor="middle" x="239.5" y="-55" font-family="Helvetica,sans-Serif" font-size="10.00">::_writeCheckpointInfoFile</text>
</a>
</g>
</g>
<!-- Node1&#45;&gt;Node2 -->
<g id="edge1_Node000001_Node000002" class="edge">
<title>Node1&#45;&gt;Node2</title>
<g id="a_edge1_Node000001_Node000002"><a xlink:title=" ">
<path fill="none" stroke="#63b8ff" d="M336.8,-50.19C328.24,-51.33 319.61,-52.48 311.21,-53.6"/>
<polygon fill="#63b8ff" stroke="#63b8ff" points="337.35,-53.65 346.8,-48.87 336.43,-46.71 337.35,-53.65"/>
</a>
</g>
</g>
<!-- Node4 -->
<g id="Node000004" class="node">
<title>Node4</title>
<g id="a_Node000004"><a xlink:href="../../da/d4b/classArcane_1_1ArcaneSession.html#a92c4b49fceebcacf7ca0119c337b6aa9" target="_top" xlink:title="Positionne les noms des fichiers pour les logs et les erreurs.">
<polygon fill="white" stroke="#666666" points="303.5,-30 175.5,-30 175.5,0 303.5,0 303.5,-30"/>
<text text-anchor="start" x="183.5" y="-18" font-family="Helvetica,sans-Serif" font-size="10.00">Arcane::ArcaneSession</text>
<text text-anchor="middle" x="239.5" y="-7" font-family="Helvetica,sans-Serif" font-size="10.00">::setLogAndErrorFiles</text>
</a>
</g>
</g>
<!-- Node1&#45;&gt;Node4 -->
<g id="edge3_Node000001_Node000004" class="edge">
<title>Node1&#45;&gt;Node4</title>
<g id="a_edge3_Node000001_Node000004"><a xlink:title=" ">
<path fill="none" stroke="#63b8ff" d="M336.68,-27.79C325.6,-26.32 314.4,-24.83 303.75,-23.41"/>
<polygon fill="#63b8ff" stroke="#63b8ff" points="336.43,-31.29 346.8,-29.13 337.35,-24.35 336.43,-31.29"/>
</a>
</g>
</g>
<!-- Node3 -->
<g id="Node000003" class="node">
<title>Node3</title>
<g id="a_Node000003"><a xlink:href="../../da/dde/classArcane_1_1CheckpointMng.html#a2e0e99d914d2b1f3db680330c60092a5" target="_top" xlink:title="Écrit une protection avec l&#39;écrivain writer.">
<polygon fill="white" stroke="#666666" points="132,-78 0,-78 0,-48 132,-48 132,-78"/>
<text text-anchor="start" x="8" y="-66" font-family="Helvetica,sans-Serif" font-size="10.00">Arcane::CheckpointMng</text>
<text text-anchor="middle" x="66" y="-55" font-family="Helvetica,sans-Serif" font-size="10.00">::writeCheckpoint</text>
</a>
</g>
</g>
<!-- Node2&#45;&gt;Node3 -->
<g id="edge2_Node000002_Node000003" class="edge">
<title>Node2&#45;&gt;Node3</title>
<g id="a_edge2_Node000002_Node000003"><a xlink:title=" ">
<path fill="none" stroke="#63b8ff" d="M157.72,-63C149.12,-63 140.46,-63 132.08,-63"/>
<polygon fill="#63b8ff" stroke="#63b8ff" points="157.75,-66.5 167.75,-63 157.75,-59.5 157.75,-66.5"/>
</a>
</g>
</g>
</g>
</svg>
