<?xml version="1.0" encoding="UTF-8" standalone="no"?>
<!DOCTYPE svg PUBLIC "-//W3C//DTD SVG 1.1//EN"
 "http://www.w3.org/Graphics/SVG/1.1/DTD/svg11.dtd">
<!-- Generated by graphviz version 14.1.2 (0)
 -->
<!-- Title: Arcane::IParallelReplication::hasReplication Pages: 1 -->
<svg width="362pt" height="210pt"
 viewBox="0.00 0.00 362.00 210.00" xmlns="http://www.w3.org/2000/svg" xmlns:xlink="http://www.w3.org/1999/xlink">
<g id="graph0" class="graph" transform="scale(1 1) rotate(0) translate(4 205.5)">
<title>Arcane::IParallelReplication::hasReplication</title>
<!-- Node1 -->
<g id="Node000001" class="node">
<title>Node1</title>
<g id="a_Node000001"><a xlink:title="Indique si la réplication est active.">
<polygon fill="#999999" stroke="#666666" points="353.75,-114.5 204.25,-114.5 204.25,-81 353.75,-81 353.75,-114.5"/>
<text xml:space="preserve" text-anchor="start" x="212.25" y="-101" font-family="Helvetica,sans-Serif" font-size="10.00">Arcane::IParallelReplication</text>
<text xml:space="preserve" text-anchor="middle" x="279" y="-88.25" font-family="Helvetica,sans-Serif" font-size="10.00">::hasReplication</text>
</a>
</g>
</g>
<!-- Node2 -->
<g id="Node000002" class="node">
<title>Node2</title>
<g id="a_Node000002"><a xlink:href="../../df/d94/classArcane_1_1mesh_1_1DynamicMeshChecker.html#ae9489b435be95379741940dca1e98409" target="_top" xlink:title="Vérifie que les sous&#45;domaines sont correctement répliqués.">
<polygon fill="white" stroke="#666666" points="168.25,-201.5 0,-201.5 0,-168 168.25,-168 168.25,-201.5"/>
<text xml:space="preserve" text-anchor="start" x="8" y="-188" font-family="Helvetica,sans-Serif" font-size="10.00">Arcane::mesh::DynamicMesh</text>
<text xml:space="preserve" text-anchor="middle" x="84.12" y="-175.25" font-family="Helvetica,sans-Serif" font-size="10.00">Checker::checkValidReplication</text>
</a>
</g>
</g>
<!-- Node1&#45;&gt;Node2 -->
<g id="edge1_Node000001_Node000002" class="edge">
<title>Node1&#45;&gt;Node2</title>
<g id="a_edge1_Node000001_Node000002"><a xlink:title=" ">
<path fill="none" stroke="#63b8ff" d="M241.1,-120.74C220.25,-133.1 193.39,-147.97 168.25,-158.75 160.88,-161.91 153.01,-164.87 145.14,-167.59"/>
<polygon fill="#63b8ff" stroke="#63b8ff" points="242.75,-123.84 249.53,-115.69 239.15,-117.83 242.75,-123.84"/>
</a>
</g>
</g>
<!-- Node3 -->
<g id="Node000003" class="node">
<title>Node3</title>
<g id="a_Node000003"><a xlink:href="../../da/dd4/classArcane_1_1UnstructuredMeshUtilities.html#a3bcba2e202c82482feccaf008aff74fa" target="_top" xlink:title="Repartitionne et échange le maillage en gérant la réplication.">
<polygon fill="white" stroke="#666666" points="167.88,-149.88 0.38,-149.88 0.38,-103.62 167.88,-103.62 167.88,-149.88"/>
<text xml:space="preserve" text-anchor="start" x="8.38" y="-136.38" font-family="Helvetica,sans-Serif" font-size="10.00">Arcane::UnstructuredMesh</text>
<text xml:space="preserve" text-anchor="start" x="8.38" y="-123.62" font-family="Helvetica,sans-Serif" font-size="10.00">Utilities::partitionAndExchange</text>
<text xml:space="preserve" text-anchor="middle" x="84.12" y="-110.88" font-family="Helvetica,sans-Serif" font-size="10.00">MeshWithReplication</text>
</a>
</g>
</g>
<!-- Node1&#45;&gt;Node3 -->
<g id="edge2_Node000001_Node000003" class="edge">
<title>Node1&#45;&gt;Node3</title>
<g id="a_edge2_Node000001_Node000003"><a xlink:title=" ">
<path fill="none" stroke="#63b8ff" d="M192.63,-110.59C184.54,-111.8 176.34,-113.04 168.27,-114.25"/>
<polygon fill="#63b8ff" stroke="#63b8ff" points="193.12,-114.05 202.48,-109.1 192.08,-107.13 193.12,-114.05"/>
</a>
</g>
</g>
<!-- Node4 -->
<g id="Node000004" class="node">
<title>Node4</title>
<g id="a_Node000004"><a xlink:href="../../dd/d92/classArcane_1_1VariablePrivate.html#a2a272b8831f6df1f681ebbf648897f45" target="_top" xlink:title="Retourne le IParallelMng du replica du maillage associé à la variable.">
<polygon fill="white" stroke="#666666" points="149.12,-85.5 19.12,-85.5 19.12,-52 149.12,-52 149.12,-85.5"/>
<text xml:space="preserve" text-anchor="start" x="27.12" y="-72" font-family="Helvetica,sans-Serif" font-size="10.00">Arcane::VariablePrivate</text>
<text xml:space="preserve" text-anchor="middle" x="84.12" y="-59.25" font-family="Helvetica,sans-Serif" font-size="10.00">::replicaParallelMng</text>
</a>
</g>
</g>
<!-- Node1&#45;&gt;Node4 -->
<g id="edge3_Node000001_Node000004" class="edge">
<title>Node1&#45;&gt;Node4</title>
<g id="a_edge3_Node000001_Node000004"><a xlink:title=" ">
<path fill="none" stroke="#63b8ff" d="M192.93,-84.96C178.35,-82.77 163.43,-80.52 149.51,-78.43"/>
<polygon fill="#63b8ff" stroke="#63b8ff" points="192.08,-88.37 202.48,-86.4 193.12,-81.45 192.08,-88.37"/>
</a>
</g>
</g>
<!-- Node5 -->
<g id="Node000005" class="node">
<title>Node5</title>
<g id="a_Node000005"><a xlink:href="../../da/d4b/classArcane_1_1ArcaneSession.html#a92c4b49fceebcacf7ca0119c337b6aa9" target="_top" xlink:title="Positionne les noms des fichiers pour les logs et les erreurs.">
<polygon fill="white" stroke="#666666" points="147.62,-33.5 20.62,-33.5 20.62,0 147.62,0 147.62,-33.5"/>
<text xml:space="preserve" text-anchor="start" x="28.62" y="-20" font-family="Helvetica,sans-Serif" font-size="10.00">Arcane::ArcaneSession</text>
<text xml:space="preserve" text-anchor="middle" x="84.12" y="-7.25" font-family="Helvetica,sans-Serif" font-size="10.00">::setLogAndErrorFiles</text>
</a>
</g>
</g>
<!-- Node1&#45;&gt;Node5 -->
<g id="edge4_Node000001_Node000005" class="edge">
<title>Node1&#45;&gt;Node5</title>
<g id="a_edge4_Node000001_Node000005"><a xlink:title=" ">
<path fill="none" stroke="#63b8ff" d="M237.23,-75.34C216.86,-64.67 191.64,-52.2 168.25,-42.75 160.54,-39.64 152.3,-36.66 144.13,-33.91"/>
<polygon fill="#63b8ff" stroke="#63b8ff" points="235.58,-78.43 246.06,-80.03 238.86,-72.25 235.58,-78.43"/>
</a>
</g>
</g>
</g>
</svg>
