<?xml version="1.0" encoding="UTF-8" standalone="no"?>
<!DOCTYPE svg PUBLIC "-//W3C//DTD SVG 1.1//EN"
 "http://www.w3.org/Graphics/SVG/1.1/DTD/svg11.dtd">
<!-- Generated by graphviz version 2.43.0 (0)
 -->
<!-- Title: Arcane::ItemInfoListViewT&lt; ItemType &gt; Pages: 1 -->
<!--zoomable 688 -->

<svg id="main" version="1.1" xmlns="http://www.w3.org/2000/svg" xmlns:xlink="http://www.w3.org/1999/xlink" xml:space="preserve" onload="init(evt)">

<style type="text/css"><![CDATA[
.node, .edge {opacity: 0.7;}
.node.selected, .edge.selected {opacity: 1;}
.edge:hover path { stroke: red; }
.edge:hover polygon { stroke: red; fill: red; }
]]></style>

<defs>
  <circle id="rim" cx="0" cy="0" r="7"/>
  <circle id="rim2" cx="0" cy="0" r="3.5"/>
  <g id="zoomPlus">
    <use xlink:href="#rim" fill="#404040"><set attributeName="fill" to="#808080" begin="zoomplus.mouseover" end="zoomplus.mouseout"/></use>
    <path d="M-4,0h8M0,-4v8" fill="none" stroke="white" stroke-width="1.5" pointer-events="none"/>
  </g>
  <g id="zoomMin">
    <use xlink:href="#rim" fill="#404040"><set attributeName="fill" to="#808080" begin="zoomminus.mouseover" end="zoomminus.mouseout"/></use>
    <path d="M-4,0h8" fill="none" stroke="white" stroke-width="1.5" pointer-events="none"/>
  </g>
  <g id="arrowUp" transform="translate(30 24)">
    <use xlink:href="#rim"/>
    <path pointer-events="none" fill="none" stroke="white" stroke-width="1.5" d="M0,-3.0v7 M-2.5,-0.5L0,-3.0L2.5,-0.5"/>
  </g>
  <g id="arrowRight" transform="rotate(90) translate(36 -43)">
    <use xlink:href="#rim"/>
    <path pointer-events="none" fill="none" stroke="white" stroke-width="1.5" d="M0,-3.0v7 M-2.5,-0.5L0,-3.0L2.5,-0.5"/>
  </g>
  <g id="arrowDown" transform="rotate(180) translate(-30 -48)">
    <use xlink:href="#rim"/>
    <path pointer-events="none" fill="none" stroke="white" stroke-width="1.5" d="M0,-3.0v7 M-2.5,-0.5L0,-3.0L2.5,-0.5"/>
  </g>
  <g id="arrowLeft" transform="rotate(270) translate(-36 17)">
    <use xlink:href="#rim"/>
    <path pointer-events="none" fill="none" stroke="white" stroke-width="1.5" d="M0,-3.0v7 M-2.5,-0.5L0,-3.0L2.5,-0.5"/>
  </g>
  <g id="resetDef">
    <use xlink:href="#rim2" fill="#404040"><set attributeName="fill" to="#808080" begin="reset.mouseover" end="reset.mouseout"/></use>
  </g>
</defs>
<script type="application/ecmascript">
var viewWidth = 178;
var viewHeight = 688;
var sectionId = 'dynsection-0';
</script>
<script type="application/ecmascript" xlink:href="../../svg.min.js"/>
<svg id="graph" class="graph">
<g id="viewport">
<title>Arcane::ItemInfoListViewT&lt; ItemType &gt;</title>
<!-- Node1 -->
<g id="Node000001" class="node">
<title>Node1</title>
<g id="a_Node000001"><a xlink:title="Classe de base des vues spécialisées des informations sur les entités.">
<polygon fill="#999999" stroke="transparent" points="151.5,-105 18.5,-105 18.5,0 151.5,0 151.5,-105"/>
<text text-anchor="start" x="24" y="-92.5" font-family="Helvetica,sans-Serif" font-size="10.00">Arcane::ItemInfoListView</text>
<text text-anchor="start" x="48.5" y="-81.5" font-family="Helvetica,sans-Serif" font-size="10.00">T&lt; ItemType &gt;</text>
<text text-anchor="start" x="83.5" y="-66.5" font-family="Helvetica,sans-Serif" font-size="10.00"> </text>
<text text-anchor="start" x="26.5" y="-51.5" font-family="Helvetica,sans-Serif" font-size="10.00">+</text>
<text text-anchor="start" x="43" y="-51.5" font-family="Helvetica,sans-Serif" font-size="10.00">ItemInfoListViewT()</text>
<text text-anchor="start" x="26.5" y="-36.5" font-family="Helvetica,sans-Serif" font-size="10.00">+</text>
<text text-anchor="start" x="43" y="-36.5" font-family="Helvetica,sans-Serif" font-size="10.00">ItemInfoListViewT()</text>
<text text-anchor="start" x="26.5" y="-21.5" font-family="Helvetica,sans-Serif" font-size="10.00">+</text>
<text text-anchor="start" x="43" y="-21.5" font-family="Helvetica,sans-Serif" font-size="10.00">operator[]()</text>
<text text-anchor="start" x="26.5" y="-6.5" font-family="Helvetica,sans-Serif" font-size="10.00">+</text>
<text text-anchor="start" x="43" y="-6.5" font-family="Helvetica,sans-Serif" font-size="10.00">operator[]()</text>
<polygon fill="#666666" stroke="#666666" points="19,-76.5 19,-76.5 152,-76.5 152,-76.5 19,-76.5"/>
<polygon fill="#666666" stroke="#666666" points="19,-61.5 19,-61.5 152,-61.5 152,-61.5 19,-61.5"/>
<polygon fill="none" stroke="#666666" points="18.5,0 18.5,-105 151.5,-105 151.5,0 18.5,0"/>
</a>
</g>
</g>
<!-- Node2 -->
<g id="Node000002" class="node">
<title>Node2</title>
<g id="a_Node000002"><a xlink:href="../../d9/d68/classArcane_1_1ItemInfoListView.html" target="_top" xlink:title="Vue sur une liste pour obtenir des informations sur les entités.">
<polygon fill="white" stroke="transparent" points="156,-325 14,-325 14,-141 156,-141 156,-325"/>
<text text-anchor="start" x="23.5" y="-313" font-family="Helvetica,sans-Serif" font-size="10.00">Arcane::ItemInfoListView</text>
<text text-anchor="start" x="20.5" y="-298" font-family="Helvetica,sans-Serif" font-size="10.00">&#45;</text>
<text text-anchor="start" x="31" y="-298" font-family="Helvetica,sans-Serif" font-size="10.00">ItemVector</text>
<text text-anchor="start" x="20.5" y="-283" font-family="Helvetica,sans-Serif" font-size="10.00">&#45;</text>
<text text-anchor="start" x="31" y="-283" font-family="Helvetica,sans-Serif" font-size="10.00">ItemPairEnumerator</text>
<text text-anchor="start" x="20.5" y="-268" font-family="Helvetica,sans-Serif" font-size="10.00">&#45;</text>
<text text-anchor="start" x="31" y="-268" font-family="Helvetica,sans-Serif" font-size="10.00">ItemGenericInfoListView</text>
<text text-anchor="start" x="20.5" y="-253" font-family="Helvetica,sans-Serif" font-size="10.00">&#45;</text>
<text text-anchor="start" x="31" y="-253" font-family="Helvetica,sans-Serif" font-size="10.00">ItemVectorView</text>
<text text-anchor="start" x="18" y="-238" font-family="Helvetica,sans-Serif" font-size="10.00">+</text>
<text text-anchor="start" x="31" y="-238" font-family="Helvetica,sans-Serif" font-size="10.00">ItemInfoListView()</text>
<text text-anchor="start" x="18" y="-223" font-family="Helvetica,sans-Serif" font-size="10.00">+</text>
<text text-anchor="start" x="31" y="-223" font-family="Helvetica,sans-Serif" font-size="10.00">ItemInfoListView()</text>
<text text-anchor="start" x="18" y="-208" font-family="Helvetica,sans-Serif" font-size="10.00">+</text>
<text text-anchor="start" x="31" y="-208" font-family="Helvetica,sans-Serif" font-size="10.00">itemFamily()</text>
<text text-anchor="start" x="18" y="-193" font-family="Helvetica,sans-Serif" font-size="10.00">+</text>
<text text-anchor="start" x="31" y="-193" font-family="Helvetica,sans-Serif" font-size="10.00">operator[]()</text>
<text text-anchor="start" x="18" y="-178" font-family="Helvetica,sans-Serif" font-size="10.00">+</text>
<text text-anchor="start" x="31" y="-178" font-family="Helvetica,sans-Serif" font-size="10.00">operator[]()</text>
<text text-anchor="start" x="18" y="-163" font-family="Helvetica,sans-Serif" font-size="10.00">#</text>
<text text-anchor="start" x="31" y="-163" font-family="Helvetica,sans-Serif" font-size="10.00">_checkValid()</text>
<text text-anchor="start" x="20.5" y="-148" font-family="Helvetica,sans-Serif" font-size="10.00">&#45;</text>
<text text-anchor="start" x="31" y="-148" font-family="Helvetica,sans-Serif" font-size="10.00">ItemInfoListView()</text>
<polygon fill="#666666" stroke="#666666" points="14,-308 14,-308 156,-308 156,-308 14,-308"/>
<polygon fill="#666666" stroke="#666666" points="14,-248 14,-248 29,-248 29,-248 14,-248"/>
<polygon fill="#666666" stroke="#666666" points="29,-248 29,-248 156,-248 156,-248 29,-248"/>
<polygon fill="none" stroke="#666666" points="14,-141 14,-325 156,-325 156,-141 14,-141"/>
</a>
</g>
</g>
<!-- Node2&#45;&gt;Node1 -->
<g id="edge1_Node000001_Node000002" class="edge">
<title>Node2&#45;&gt;Node1</title>
<g id="a_edge1_Node000001_Node000002"><a xlink:title=" ">
<path fill="none" stroke="#63b8ff" d="M85,-130.65C85,-121.95 85,-113.41 85,-105.36"/>
<polygon fill="none" stroke="#63b8ff" points="81.5,-130.92 85,-140.92 88.5,-130.92 81.5,-130.92"/>
</a>
</g>
</g>
<!-- Node3 -->
<g id="Node000003" class="node">
<title>Node3</title>
<g id="a_Node000003"><a xlink:href="../../de/df0/classArcane_1_1ItemGenericInfoListView.html" target="_top" xlink:title="Vue sur les informations génériques d&#39;une famille d&#39;entités.">
<polygon fill="white" stroke="transparent" points="170,-680 0,-680 0,-361 170,-361 170,-680"/>
<text text-anchor="start" x="5" y="-667.5" font-family="Helvetica,sans-Serif" font-size="10.00">Arcane::ItemGenericInfoListView</text>
<text text-anchor="start" x="11.5" y="-652.5" font-family="Helvetica,sans-Serif" font-size="10.00">&#45;</text>
<text text-anchor="start" x="27" y="-652.5" font-family="Helvetica,sans-Serif" font-size="10.00">m_unique_ids</text>
<text text-anchor="start" x="11.5" y="-637.5" font-family="Helvetica,sans-Serif" font-size="10.00">&#45;</text>
<text text-anchor="start" x="27" y="-637.5" font-family="Helvetica,sans-Serif" font-size="10.00">m_owners</text>
<text text-anchor="start" x="11.5" y="-622.5" font-family="Helvetica,sans-Serif" font-size="10.00">&#45;</text>
<text text-anchor="start" x="27" y="-622.5" font-family="Helvetica,sans-Serif" font-size="10.00">m_flags</text>
<text text-anchor="start" x="11.5" y="-607.5" font-family="Helvetica,sans-Serif" font-size="10.00">&#45;</text>
<text text-anchor="start" x="27" y="-607.5" font-family="Helvetica,sans-Serif" font-size="10.00">m_type_ids</text>
<text text-anchor="start" x="11.5" y="-592.5" font-family="Helvetica,sans-Serif" font-size="10.00">&#45;</text>
<text text-anchor="start" x="27" y="-592.5" font-family="Helvetica,sans-Serif" font-size="10.00">m_item_shared_info</text>
<text text-anchor="start" x="9" y="-577.5" font-family="Helvetica,sans-Serif" font-size="10.00">+</text>
<text text-anchor="start" x="27" y="-577.5" font-family="Helvetica,sans-Serif" font-size="10.00">ItemGenericInfoListView()</text>
<text text-anchor="start" x="9" y="-562.5" font-family="Helvetica,sans-Serif" font-size="10.00">+</text>
<text text-anchor="start" x="27" y="-562.5" font-family="Helvetica,sans-Serif" font-size="10.00">ItemGenericInfoListView()</text>
<text text-anchor="start" x="9" y="-547.5" font-family="Helvetica,sans-Serif" font-size="10.00">+</text>
<text text-anchor="start" x="27" y="-547.5" font-family="Helvetica,sans-Serif" font-size="10.00">ItemGenericInfoListView()</text>
<text text-anchor="start" x="9" y="-532.5" font-family="Helvetica,sans-Serif" font-size="10.00">+</text>
<text text-anchor="start" x="27" y="-532.5" font-family="Helvetica,sans-Serif" font-size="10.00">itemFamily()</text>
<text text-anchor="start" x="9" y="-517.5" font-family="Helvetica,sans-Serif" font-size="10.00">+</text>
<text text-anchor="start" x="27" y="-517.5" font-family="Helvetica,sans-Serif" font-size="10.00">owner()</text>
<text text-anchor="start" x="9" y="-502.5" font-family="Helvetica,sans-Serif" font-size="10.00">+</text>
<text text-anchor="start" x="27" y="-502.5" font-family="Helvetica,sans-Serif" font-size="10.00">owner()</text>
<text text-anchor="start" x="9" y="-487.5" font-family="Helvetica,sans-Serif" font-size="10.00">+</text>
<text text-anchor="start" x="27" y="-487.5" font-family="Helvetica,sans-Serif" font-size="10.00">typeId()</text>
<text text-anchor="start" x="9" y="-472.5" font-family="Helvetica,sans-Serif" font-size="10.00">+</text>
<text text-anchor="start" x="27" y="-472.5" font-family="Helvetica,sans-Serif" font-size="10.00">typeId()</text>
<text text-anchor="start" x="9" y="-457.5" font-family="Helvetica,sans-Serif" font-size="10.00">+</text>
<text text-anchor="start" x="27" y="-457.5" font-family="Helvetica,sans-Serif" font-size="10.00">uniqueId()</text>
<text text-anchor="start" x="9" y="-442.5" font-family="Helvetica,sans-Serif" font-size="10.00">+</text>
<text text-anchor="start" x="27" y="-442.5" font-family="Helvetica,sans-Serif" font-size="10.00">uniqueId()</text>
<text text-anchor="start" x="9" y="-427.5" font-family="Helvetica,sans-Serif" font-size="10.00">+</text>
<text text-anchor="start" x="27" y="-427.5" font-family="Helvetica,sans-Serif" font-size="10.00">isOwn()</text>
<text text-anchor="start" x="9" y="-412.5" font-family="Helvetica,sans-Serif" font-size="10.00">+</text>
<text text-anchor="start" x="27" y="-412.5" font-family="Helvetica,sans-Serif" font-size="10.00">isOwn()</text>
<text text-anchor="start" x="9" y="-397.5" font-family="Helvetica,sans-Serif" font-size="10.00">+</text>
<text text-anchor="start" x="27" y="-397.5" font-family="Helvetica,sans-Serif" font-size="10.00">isShared()</text>
<text text-anchor="start" x="9" y="-382.5" font-family="Helvetica,sans-Serif" font-size="10.00">+</text>
<text text-anchor="start" x="27" y="-382.5" font-family="Helvetica,sans-Serif" font-size="10.00">isShared()</text>
<text text-anchor="start" x="11.5" y="-367.5" font-family="Helvetica,sans-Serif" font-size="10.00">&#45;</text>
<text text-anchor="start" x="27" y="-367.5" font-family="Helvetica,sans-Serif" font-size="10.00">ItemGenericInfoListView()</text>
<polygon fill="#666666" stroke="#666666" points="0,-662.5 0,-662.5 170,-662.5 170,-662.5 0,-662.5"/>
<polygon fill="#666666" stroke="#666666" points="0,-587.5 0,-587.5 25,-587.5 25,-587.5 0,-587.5"/>
<polygon fill="#666666" stroke="#666666" points="25,-587.5 25,-587.5 170,-587.5 170,-587.5 25,-587.5"/>
<polygon fill="none" stroke="#666666" points="0,-361 0,-680 170,-680 170,-361 0,-361"/>
</a>
</g>
</g>
<!-- Node3&#45;&gt;Node2 -->
<g id="edge2_Node000002_Node000003" class="edge">
<title>Node3&#45;&gt;Node2</title>
<g id="a_edge2_Node000002_Node000003"><a xlink:title=" ">
<path fill="none" stroke="#63b8ff" d="M85,-350.64C85,-341.96 85,-333.42 85,-325.14"/>
<polygon fill="none" stroke="#63b8ff" points="81.5,-350.89 85,-360.89 88.5,-350.89 81.5,-350.89"/>
</a>
</g>
</g>
</g>
</svg>

<g id="navigator" transform="translate(0 0)" fill="#404254">
  <rect fill="#f2f5e9" fill-opacity="0.5" stroke="#606060" stroke-width=".5" x="0" y="0" width="60" height="60"/>
  <use id="zoomplus" xlink:href="#zoomPlus" x="17" y="9" onmousedown="handleZoom(evt,'in')"/>
  <use id="zoomminus" xlink:href="#zoomMin" x="42" y="9" onmousedown="handleZoom(evt,'out')"/>
  <use id="reset" xlink:href="#resetDef" x="30" y="36" onmousedown="handleReset()"/>
   <use id="arrowup" xlink:href="#arrowUp" x="0" y="0" onmousedown="handlePan(0,-1)"/>
  <use id="arrowright" xlink:href="#arrowRight" x="0" y="0" onmousedown="handlePan(1,0)"/>
  <use id="arrowdown" xlink:href="#arrowDown" x="0" y="0" onmousedown="handlePan(0,1)"/>
  <use id="arrowleft" xlink:href="#arrowLeft" x="0" y="0" onmousedown="handlePan(-1,0)"/>
</g>
<svg viewBox="0 0 15 15" width="100%" height="30px" preserveAspectRatio="xMaxYMin meet">
 <g id="arrow_out" transform="scale(0.3 0.3)">
  <a xlink:href="classArcane_1_1ItemInfoListViewT__inherit__graph_org.svg" target="_base">
   <rect id="button" ry="5" rx="5" y="6" x="6" height="38" width="38"
        fill="#f2f5e9" fill-opacity="0.5" stroke="#606060" stroke-width="1.0"/>
   <path id="arrow"
     d="M 11.500037,31.436501 C 11.940474,20.09759 22.043105,11.32322 32.158766,21.979434 L 37.068811,17.246167 C 37.068811,17.246167 37.088388,32 37.088388,32 L 22.160133,31.978069 C 22.160133,31.978069 26.997745,27.140456 26.997745,27.140456 C 18.528582,18.264221 13.291696,25.230495 11.500037,31.436501 z"
     style="fill:#404040;"/>
  </a>
 </g>
</svg>

<style type='text/css'>
<![CDATA[
[data-mouse-over-selected='false'] { opacity: 0.7; }
[data-mouse-over-selected='true']  { opacity: 1.0; }
]]>
</style>
<script type="application/ecmascript"><![CDATA[
document.addEventListener('DOMContentLoaded', (event) => {
  highlightEdges();
  highlightAdjacentNodes();
});
]]></script>
</svg>
