<?xml version="1.0" encoding="UTF-8" standalone="no"?>
<!DOCTYPE svg PUBLIC "-//W3C//DTD SVG 1.1//EN"
 "http://www.w3.org/Graphics/SVG/1.1/DTD/svg11.dtd">
<!-- Generated by graphviz version 2.43.0 (0)
 -->
<!-- Title: Arcane::IDeflateService Pages: 1 -->
<svg width="316pt" height="262pt"
 viewBox="0.00 0.00 315.50 262.00" xmlns="http://www.w3.org/2000/svg" xmlns:xlink="http://www.w3.org/1999/xlink">
<g id="graph0" class="graph" transform="scale(1 1) rotate(0) translate(4 258)">
<title>Arcane::IDeflateService</title>
<!-- Node1 -->
<g id="Node000001" class="node">
<title>Node1</title>
<g id="a_Node000001"><a xlink:title="Interface d&#39;un service permettant de compresser/décompresser des données.">
<polygon fill="#999999" stroke="transparent" points="218,-254 93,-254 93,-130 218,-130 218,-254"/>
<text text-anchor="start" x="98.5" y="-242" font-family="Helvetica,sans-Serif" font-size="10.00">Arcane::IDeflateService</text>
<text text-anchor="start" x="154" y="-227" font-family="Helvetica,sans-Serif" font-size="10.00"> </text>
<text text-anchor="start" x="100.5" y="-212" font-family="Helvetica,sans-Serif" font-size="10.00">+</text>
<text text-anchor="start" x="116.5" y="-212" font-family="Helvetica,sans-Serif" font-size="10.00">~IDeflateService()</text>
<text text-anchor="start" x="100.5" y="-197" font-family="Helvetica,sans-Serif" font-size="10.00">+</text>
<text text-anchor="start" x="116.5" y="-197" font-family="Helvetica,sans-Serif" font-size="10.00">build()</text>
<text text-anchor="start" x="100.5" y="-182" font-family="Helvetica,sans-Serif" font-size="10.00">+</text>
<text text-anchor="start" x="116.5" y="-182" font-family="Helvetica,sans-Serif" font-size="10.00">compress()</text>
<text text-anchor="start" x="100.5" y="-167" font-family="Helvetica,sans-Serif" font-size="10.00">+</text>
<text text-anchor="start" x="116.5" y="-167" font-family="Helvetica,sans-Serif" font-size="10.00">compress()</text>
<text text-anchor="start" x="100.5" y="-152" font-family="Helvetica,sans-Serif" font-size="10.00">+</text>
<text text-anchor="start" x="116.5" y="-152" font-family="Helvetica,sans-Serif" font-size="10.00">decompress()</text>
<text text-anchor="start" x="100.5" y="-137" font-family="Helvetica,sans-Serif" font-size="10.00">+</text>
<text text-anchor="start" x="116.5" y="-137" font-family="Helvetica,sans-Serif" font-size="10.00">decompress()</text>
<polygon fill="#666666" stroke="#666666" points="93.5,-237 93.5,-237 218.5,-237 218.5,-237 93.5,-237"/>
<polygon fill="#666666" stroke="#666666" points="93.5,-222 93.5,-222 218.5,-222 218.5,-222 93.5,-222"/>
<polygon fill="none" stroke="#666666" points="93,-130 93,-254 218,-254 218,-130 93,-130"/>
</a>
</g>
</g>
<!-- Node2 -->
<g id="Node000002" class="node">
<title>Node2</title>
<g id="a_Node000002"><a xlink:href="../../d9/deb/classArcane_1_1Bzip2DeflateService.html" target="_top" xlink:title="Service de compression utilisant la bibliothèque &#39;Bzip2&#39;.">
<polygon fill="white" stroke="transparent" points="149,-94 0,-94 0,0 149,0 149,-94"/>
<text text-anchor="start" x="5.5" y="-82" font-family="Helvetica,sans-Serif" font-size="10.00">Arcane::Bzip2DeflateService</text>
<text text-anchor="start" x="73" y="-67" font-family="Helvetica,sans-Serif" font-size="10.00"> </text>
<text text-anchor="start" x="10" y="-52" font-family="Helvetica,sans-Serif" font-size="10.00">+</text>
<text text-anchor="start" x="28.5" y="-52" font-family="Helvetica,sans-Serif" font-size="10.00">Bzip2DeflateService()</text>
<text text-anchor="start" x="10" y="-37" font-family="Helvetica,sans-Serif" font-size="10.00">+</text>
<text text-anchor="start" x="28.5" y="-37" font-family="Helvetica,sans-Serif" font-size="10.00">build()</text>
<text text-anchor="start" x="10" y="-22" font-family="Helvetica,sans-Serif" font-size="10.00">+</text>
<text text-anchor="start" x="28.5" y="-22" font-family="Helvetica,sans-Serif" font-size="10.00">compress()</text>
<text text-anchor="start" x="10" y="-7" font-family="Helvetica,sans-Serif" font-size="10.00">+</text>
<text text-anchor="start" x="28.5" y="-7" font-family="Helvetica,sans-Serif" font-size="10.00">decompress()</text>
<polygon fill="#666666" stroke="#666666" points="0.5,-77 0.5,-77 149.5,-77 149.5,-77 0.5,-77"/>
<polygon fill="#666666" stroke="#666666" points="0.5,-62 0.5,-62 149.5,-62 149.5,-62 0.5,-62"/>
<polygon fill="none" stroke="#666666" points="0,0 0,-94 149,-94 149,0 0,0"/>
</a>
</g>
</g>
<!-- Node1&#45;&gt;Node2 -->
<g id="edge1_Node000001_Node000002" class="edge">
<title>Node1&#45;&gt;Node2</title>
<g id="a_edge1_Node000001_Node000002"><a xlink:title=" ">
<path fill="none" stroke="#63b8ff" d="M115.95,-121.18C110.75,-112 105.53,-102.79 100.64,-94.15"/>
<polygon fill="none" stroke="#63b8ff" points="112.94,-122.96 120.91,-129.94 119.03,-119.51 112.94,-122.96"/>
</a>
</g>
</g>
<!-- Node3 -->
<g id="Node000003" class="node">
<title>Node3</title>
<g id="a_Node000003"><a xlink:href="../../d0/dd9/classArcane_1_1LZ4DeflateService.html" target="_top" xlink:title="Service de compression utilisant la bibliothèque &#39;LZ4&#39;.">
<polygon fill="white" stroke="transparent" points="307.5,-94 167.5,-94 167.5,0 307.5,0 307.5,-94"/>
<text text-anchor="start" x="172.5" y="-82" font-family="Helvetica,sans-Serif" font-size="10.00">Arcane::LZ4DeflateService</text>
<text text-anchor="start" x="235.5" y="-67" font-family="Helvetica,sans-Serif" font-size="10.00"> </text>
<text text-anchor="start" x="177" y="-52" font-family="Helvetica,sans-Serif" font-size="10.00">+</text>
<text text-anchor="start" x="195.5" y="-52" font-family="Helvetica,sans-Serif" font-size="10.00">LZ4DeflateService()</text>
<text text-anchor="start" x="177" y="-37" font-family="Helvetica,sans-Serif" font-size="10.00">+</text>
<text text-anchor="start" x="195.5" y="-37" font-family="Helvetica,sans-Serif" font-size="10.00">build()</text>
<text text-anchor="start" x="177" y="-22" font-family="Helvetica,sans-Serif" font-size="10.00">+</text>
<text text-anchor="start" x="195.5" y="-22" font-family="Helvetica,sans-Serif" font-size="10.00">compress()</text>
<text text-anchor="start" x="177" y="-7" font-family="Helvetica,sans-Serif" font-size="10.00">+</text>
<text text-anchor="start" x="195.5" y="-7" font-family="Helvetica,sans-Serif" font-size="10.00">decompress()</text>
<polygon fill="#666666" stroke="#666666" points="167.5,-77 167.5,-77 307.5,-77 307.5,-77 167.5,-77"/>
<polygon fill="#666666" stroke="#666666" points="167.5,-62 167.5,-62 307.5,-62 307.5,-62 167.5,-62"/>
<polygon fill="none" stroke="#666666" points="167.5,0 167.5,-94 307.5,-94 307.5,0 167.5,0"/>
</a>
</g>
</g>
<!-- Node1&#45;&gt;Node3 -->
<g id="edge2_Node000001_Node000003" class="edge">
<title>Node1&#45;&gt;Node3</title>
<g id="a_edge2_Node000001_Node000003"><a xlink:title=" ">
<path fill="none" stroke="#63b8ff" d="M195.54,-121.18C200.8,-112 206.08,-102.79 211.04,-94.15"/>
<polygon fill="none" stroke="#63b8ff" points="192.45,-119.52 190.51,-129.94 198.52,-123.01 192.45,-119.52"/>
</a>
</g>
</g>
</g>
</svg>
