<?xml version="1.0" encoding="UTF-8" standalone="no"?>
<!DOCTYPE svg PUBLIC "-//W3C//DTD SVG 1.1//EN"
 "http://www.w3.org/Graphics/SVG/1.1/DTD/svg11.dtd">
<!-- Generated by graphviz version 2.43.0 (0)
 -->
<!-- Title: Arcane::IRangeFunctor::executeFunctor Pages: 1 -->
<svg width="346pt" height="182pt"
 viewBox="0.00 0.00 346.00 182.00" xmlns="http://www.w3.org/2000/svg" xmlns:xlink="http://www.w3.org/1999/xlink">

<svg id="main" version="1.1" xmlns="http://www.w3.org/2000/svg" xmlns:xlink="http://www.w3.org/1999/xlink" xml:space="preserve">

<style type="text/css"><![CDATA[
.node, .edge {opacity: 0.7;}
.node.selected, .edge.selected {opacity: 1;}
.edge:hover path { stroke: red; }
.edge:hover polygon { stroke: red; fill: red; }
]]></style>
<script type="application/ecmascript" xlink:href="../../svg.min.js"/>
<svg id="graph" class="graph">
<g id="graph0" class="graph" transform="scale(1 1) rotate(0) translate(4 178)">
<title>Arcane::IRangeFunctor::executeFunctor</title>
<!-- Node1 -->
<g id="Node000001" class="node">
<title>Node1</title>
<g id="a_Node000001"><a xlink:title="Exécute la méthode associée.">
<polygon fill="#999999" stroke="#666666" points="338,-102 212,-102 212,-72 338,-72 338,-102"/>
<text text-anchor="start" x="220" y="-90" font-family="Helvetica,sans-Serif" font-size="10.00">Arcane::IRangeFunctor</text>
<text text-anchor="middle" x="275" y="-79" font-family="Helvetica,sans-Serif" font-size="10.00">::executeFunctor</text>
</a>
</g>
</g>
<!-- Node2 -->
<g id="Node000002" class="node">
<title>Node2</title>
<g id="a_Node000002"><a xlink:href="../../de/dd9/classArcane_1_1NullTaskImplementation.html#a97697165a991f2db32e58b24dcb06b56" target="_top" xlink:title="Exécute la boucle loop_info en concurrence.">
<polygon fill="white" stroke="#666666" points="176,-174 0,-174 0,-144 176,-144 176,-174"/>
<text text-anchor="start" x="8" y="-162" font-family="Helvetica,sans-Serif" font-size="10.00">Arcane::NullTaskImplementation</text>
<text text-anchor="middle" x="88" y="-151" font-family="Helvetica,sans-Serif" font-size="10.00">::executeParallelFor</text>
</a>
</g>
</g>
<!-- Node1&#45;&gt;Node2 -->
<g id="edge1_Node000001_Node000002" class="edge">
<title>Node1&#45;&gt;Node2</title>
<g id="a_edge1_Node000001_Node000002"><a xlink:title=" ">
<path fill="none" stroke="#63b8ff" d="M237.66,-106.81C219.5,-116.19 196.97,-127.05 176,-135 167.5,-138.22 158.39,-141.21 149.38,-143.92"/>
<polygon fill="#63b8ff" stroke="#63b8ff" points="239.49,-109.8 246.73,-102.07 236.25,-103.6 239.49,-109.8"/>
</a>
</g>
</g>
<!-- Node3 -->
<g id="Node000003" class="node">
<title>Node3</title>
<g id="a_Node000003"><a xlink:href="../../de/dd9/classArcane_1_1NullTaskImplementation.html#aeff82fda00f240bfec12f93a1af01e0b" target="_top" xlink:title="Exécute le fonctor f en concurrence.">
<polygon fill="white" stroke="#666666" points="176,-126 0,-126 0,-96 176,-96 176,-126"/>
<text text-anchor="start" x="8" y="-114" font-family="Helvetica,sans-Serif" font-size="10.00">Arcane::NullTaskImplementation</text>
<text text-anchor="middle" x="88" y="-103" font-family="Helvetica,sans-Serif" font-size="10.00">::executeParallelFor</text>
</a>
</g>
</g>
<!-- Node1&#45;&gt;Node3 -->
<g id="edge2_Node000001_Node000003" class="edge">
<title>Node1&#45;&gt;Node3</title>
<g id="a_edge2_Node000001_Node000003"><a xlink:title=" ">
<path fill="none" stroke="#63b8ff" d="M201.81,-96.37C193.43,-97.45 184.83,-98.57 176.28,-99.68"/>
<polygon fill="#63b8ff" stroke="#63b8ff" points="202.42,-99.82 211.88,-95.06 201.52,-92.87 202.42,-99.82"/>
</a>
</g>
</g>
<!-- Node4 -->
<g id="Node000004" class="node">
<title>Node4</title>
<g id="a_Node000004"><a xlink:href="../../de/dd9/classArcane_1_1NullTaskImplementation.html#ab324a7188b6ddd10ce699c4862ca8cae" target="_top" xlink:title="Exécute le fonctor f en concurrence.">
<polygon fill="white" stroke="#666666" points="176,-78 0,-78 0,-48 176,-48 176,-78"/>
<text text-anchor="start" x="8" y="-66" font-family="Helvetica,sans-Serif" font-size="10.00">Arcane::NullTaskImplementation</text>
<text text-anchor="middle" x="88" y="-55" font-family="Helvetica,sans-Serif" font-size="10.00">::executeParallelFor</text>
</a>
</g>
</g>
<!-- Node1&#45;&gt;Node4 -->
<g id="edge3_Node000001_Node000004" class="edge">
<title>Node1&#45;&gt;Node4</title>
<g id="a_edge3_Node000001_Node000004"><a xlink:title=" ">
<path fill="none" stroke="#63b8ff" d="M201.81,-77.63C193.43,-76.55 184.83,-75.43 176.28,-74.32"/>
<polygon fill="#63b8ff" stroke="#63b8ff" points="201.52,-81.13 211.88,-78.94 202.42,-74.18 201.52,-81.13"/>
</a>
</g>
</g>
<!-- Node5 -->
<g id="Node000005" class="node">
<title>Node5</title>
<g id="a_Node000005"><a xlink:href="../../de/dd9/classArcane_1_1NullTaskImplementation.html#a53693ea48ef32addc98aac5c4141887d" target="_top" xlink:title="Exécute le fonctor f en concurrence.">
<polygon fill="white" stroke="#666666" points="176,-30 0,-30 0,0 176,0 176,-30"/>
<text text-anchor="start" x="8" y="-18" font-family="Helvetica,sans-Serif" font-size="10.00">Arcane::NullTaskImplementation</text>
<text text-anchor="middle" x="88" y="-7" font-family="Helvetica,sans-Serif" font-size="10.00">::executeParallelFor</text>
</a>
</g>
</g>
<!-- Node1&#45;&gt;Node5 -->
<g id="edge4_Node000001_Node000005" class="edge">
<title>Node1&#45;&gt;Node5</title>
<g id="a_edge4_Node000001_Node000005"><a xlink:title=" ">
<path fill="none" stroke="#63b8ff" d="M237.66,-67.19C219.5,-57.81 196.97,-46.95 176,-39 167.5,-35.78 158.39,-32.79 149.38,-30.08"/>
<polygon fill="#63b8ff" stroke="#63b8ff" points="236.25,-70.4 246.73,-71.93 239.49,-64.2 236.25,-70.4"/>
</a>
</g>
</g>
</g>
</svg>
</svg>

<style type='text/css'>
<![CDATA[
[data-mouse-over-selected='false'] { opacity: 0.7; }
[data-mouse-over-selected='true']  { opacity: 1.0; }
]]>
</style>
<script type="application/ecmascript"><![CDATA[
document.addEventListener('DOMContentLoaded', (event) => {
  highlightEdges();
  highlightAdjacentNodes();
});
]]></script>
</svg>
