<?xml version="1.0" encoding="UTF-8" standalone="no"?>
<!DOCTYPE svg PUBLIC "-//W3C//DTD SVG 1.1//EN"
 "http://www.w3.org/Graphics/SVG/1.1/DTD/svg11.dtd">
<!-- Generated by graphviz version 2.43.0 (0)
 -->
<!-- Title: Arcane::MeshArea::allEdges Pages: 1 -->
<svg width="347pt" height="45pt"
 viewBox="0.00 0.00 347.00 45.00" xmlns="http://www.w3.org/2000/svg" xmlns:xlink="http://www.w3.org/1999/xlink">
<g id="graph0" class="graph" transform="scale(1 1) rotate(0) translate(4 41)">
<title>Arcane::MeshArea::allEdges</title>
<!-- Node1 -->
<g id="Node000001" class="node">
<title>Node1</title>
<g id="a_Node000001"><a xlink:title="Groupe de tous les arêtes.">
<polygon fill="#999999" stroke="#666666" points="339,-19 187,-19 187,0 339,0 339,-19"/>
<text text-anchor="middle" x="263" y="-7" font-family="Helvetica,sans-Serif" font-size="10.00">Arcane::MeshArea::allEdges</text>
</a>
</g>
</g>
<!-- Node1&#45;&gt;Node1 -->
<g id="edge1_Node000001_Node000001" class="edge">
<title>Node1&#45;&gt;Node1</title>
<g id="a_edge1_Node000001_Node000001"><a xlink:title=" ">
<path fill="none" stroke="#63b8ff" d="M297.86,-27.07C297.35,-32.62 285.73,-37 263,-37 229.94,-37 220.39,-27.73 234.33,-19.08"/>
<polygon fill="#63b8ff" stroke="#63b8ff" points="300.56,-24.84 291.67,-19.08 295.03,-29.13 300.56,-24.84"/>
</a>
</g>
</g>
<!-- Node2 -->
<g id="Node000002" class="node">
<title>Node2</title>
<g id="a_Node000002"><a xlink:href="../../d4/db3/classArcane_1_1MeshArea.html#a03cb0b868704cfb51f05ce1143fd9d7f" target="_top" xlink:title="Groupe de toutes les entités du genre item_kind.">
<polygon fill="white" stroke="#666666" points="151,-19 0,-19 0,0 151,0 151,-19"/>
<text text-anchor="middle" x="75.5" y="-7" font-family="Helvetica,sans-Serif" font-size="10.00">Arcane::MeshArea::allItems</text>
</a>
</g>
</g>
<!-- Node1&#45;&gt;Node2 -->
<g id="edge2_Node000001_Node000002" class="edge">
<title>Node1&#45;&gt;Node2</title>
<g id="a_edge2_Node000001_Node000002"><a xlink:title=" ">
<path fill="none" stroke="#63b8ff" d="M176.55,-9.5C168.08,-9.5 159.53,-9.5 151.19,-9.5"/>
<polygon fill="#63b8ff" stroke="#63b8ff" points="176.82,-13 186.82,-9.5 176.82,-6 176.82,-13"/>
</a>
</g>
</g>
<!-- Node2&#45;&gt;Node2 -->
<g id="edge3_Node000002_Node000002" class="edge">
<title>Node2&#45;&gt;Node2</title>
<g id="a_edge3_Node000002_Node000002"><a xlink:title=" ">
<path fill="none" stroke="#63b8ff" d="M110.36,-27.07C109.85,-32.62 98.23,-37 75.5,-37 42.44,-37 32.89,-27.73 46.83,-19.08"/>
<polygon fill="#63b8ff" stroke="#63b8ff" points="113.06,-24.84 104.17,-19.08 107.53,-29.13 113.06,-24.84"/>
</a>
</g>
</g>
</g>
</svg>
