<?xml version="1.0" encoding="UTF-8" standalone="no"?>
<!DOCTYPE svg PUBLIC "-//W3C//DTD SVG 1.1//EN"
 "http://www.w3.org/Graphics/SVG/1.1/DTD/svg11.dtd">
<!-- Generated by graphviz version 2.43.0 (0)
 -->
<!-- Title: Arcane::BasicSerializer::allocateBuffer Pages: 1 -->
<!--zoomable 518 -->

<svg id="main" version="1.1" xmlns="http://www.w3.org/2000/svg" xmlns:xlink="http://www.w3.org/1999/xlink" xml:space="preserve" onload="init(evt)">

<style type="text/css"><![CDATA[
.node, .edge {opacity: 0.7;}
.node.selected, .edge.selected {opacity: 1;}
.edge:hover path { stroke: red; }
.edge:hover polygon { stroke: red; fill: red; }
]]></style>

<defs>
  <circle id="rim" cx="0" cy="0" r="7"/>
  <circle id="rim2" cx="0" cy="0" r="3.5"/>
  <g id="zoomPlus">
    <use xlink:href="#rim" fill="#404040"><set attributeName="fill" to="#808080" begin="zoomplus.mouseover" end="zoomplus.mouseout"/></use>
    <path d="M-4,0h8M0,-4v8" fill="none" stroke="white" stroke-width="1.5" pointer-events="none"/>
  </g>
  <g id="zoomMin">
    <use xlink:href="#rim" fill="#404040"><set attributeName="fill" to="#808080" begin="zoomminus.mouseover" end="zoomminus.mouseout"/></use>
    <path d="M-4,0h8" fill="none" stroke="white" stroke-width="1.5" pointer-events="none"/>
  </g>
  <g id="arrowUp" transform="translate(30 24)">
    <use xlink:href="#rim"/>
    <path pointer-events="none" fill="none" stroke="white" stroke-width="1.5" d="M0,-3.0v7 M-2.5,-0.5L0,-3.0L2.5,-0.5"/>
  </g>
  <g id="arrowRight" transform="rotate(90) translate(36 -43)">
    <use xlink:href="#rim"/>
    <path pointer-events="none" fill="none" stroke="white" stroke-width="1.5" d="M0,-3.0v7 M-2.5,-0.5L0,-3.0L2.5,-0.5"/>
  </g>
  <g id="arrowDown" transform="rotate(180) translate(-30 -48)">
    <use xlink:href="#rim"/>
    <path pointer-events="none" fill="none" stroke="white" stroke-width="1.5" d="M0,-3.0v7 M-2.5,-0.5L0,-3.0L2.5,-0.5"/>
  </g>
  <g id="arrowLeft" transform="rotate(270) translate(-36 17)">
    <use xlink:href="#rim"/>
    <path pointer-events="none" fill="none" stroke="white" stroke-width="1.5" d="M0,-3.0v7 M-2.5,-0.5L0,-3.0L2.5,-0.5"/>
  </g>
  <g id="resetDef">
    <use xlink:href="#rim2" fill="#404040"><set attributeName="fill" to="#808080" begin="reset.mouseover" end="reset.mouseout"/></use>
  </g>
</defs>
<script type="application/ecmascript">
var viewWidth = 845;
var viewHeight = 518;
var sectionId = 'dynsection-2';
</script>
<script type="application/ecmascript" xlink:href="../../svg.min.js"/>
<svg id="graph" class="graph">
<g id="viewport">
<title>Arcane::BasicSerializer::allocateBuffer</title>
<!-- Node1 -->
<g id="Node000001" class="node">
<title>Node1</title>
<g id="a_Node000001"><a xlink:title="Alloue la mémoire du sérialiseur.">
<polygon fill="#999999" stroke="#666666" points="837,-270 709,-270 709,-240 837,-240 837,-270"/>
<text text-anchor="start" x="717" y="-258" font-family="Helvetica,sans-Serif" font-size="10.00">Arcane::BasicSerializer</text>
<text text-anchor="middle" x="773" y="-247" font-family="Helvetica,sans-Serif" font-size="10.00">::allocateBuffer</text>
</a>
</g>
</g>
<!-- Node2 -->
<g id="Node000002" class="node">
<title>Node2</title>
<g id="a_Node000002"><a xlink:href="../../dc/dbe/classArcane_1_1mesh_1_1TiedInterfaceBuilder.html#a839c6164e0272b0d3af9d14d1cca647c" target="_top" xlink:title="envoie et récupère les informations sur les noeuds de l&#39;interface.">
<polygon fill="white" stroke="#666666" points="647.5,-510 491.5,-510 491.5,-480 647.5,-480 647.5,-510"/>
<text text-anchor="start" x="499.5" y="-498" font-family="Helvetica,sans-Serif" font-size="10.00">Arcane::mesh::TiedInterface</text>
<text text-anchor="middle" x="569.5" y="-487" font-family="Helvetica,sans-Serif" font-size="10.00">Builder::_gatherAllNodesInfo</text>
</a>
</g>
</g>
<!-- Node1&#45;&gt;Node2 -->
<g id="edge1_Node000001_Node000002" class="edge">
<title>Node1&#45;&gt;Node2</title>
<g id="a_edge1_Node000001_Node000002"><a xlink:title=" ">
<path fill="none" stroke="#63b8ff" d="M767.91,-279.93C759.13,-325.26 734.05,-421.07 673,-471 665.57,-477.07 656.88,-481.67 647.76,-485.13"/>
<polygon fill="#63b8ff" stroke="#63b8ff" points="771.36,-280.52 769.72,-270.06 764.48,-279.26 771.36,-280.52"/>
</a>
</g>
</g>
<!-- Node5 -->
<g id="Node000005" class="node">
<title>Node5</title>
<g id="a_Node000005"><a xlink:href="../../da/df9/classArcane_1_1mesh_1_1ParallelAMRConsistency.html#a8defaf8dad488c66673762533f223b89" target="_top" xlink:title=" ">
<polygon fill="white" stroke="#666666" points="673,-414 466,-414 466,-384 673,-384 673,-414"/>
<text text-anchor="start" x="474" y="-402" font-family="Helvetica,sans-Serif" font-size="10.00">Arcane::mesh::ParallelAMRConsistency</text>
<text text-anchor="middle" x="569.5" y="-391" font-family="Helvetica,sans-Serif" font-size="10.00">::_gatherFaces</text>
</a>
</g>
</g>
<!-- Node1&#45;&gt;Node5 -->
<g id="edge4_Node000001_Node000005" class="edge">
<title>Node1&#45;&gt;Node5</title>
<g id="a_edge4_Node000001_Node000005"><a xlink:title=" ">
<path fill="none" stroke="#63b8ff" d="M758.66,-279.22C742.2,-306.78 711.59,-351.05 673,-375 667.41,-378.47 661.36,-381.44 655.1,-383.98"/>
<polygon fill="#63b8ff" stroke="#63b8ff" points="761.89,-280.64 763.89,-270.23 755.84,-277.12 761.89,-280.64"/>
</a>
</g>
</g>
<!-- Node7 -->
<g id="Node000007" class="node">
<title>Node7</title>
<g id="a_Node000007"><a xlink:href="../../dc/dbe/classArcane_1_1mesh_1_1TiedInterfaceBuilder.html#a82548c726c0216b9e85f955b66efacaf" target="_top" xlink:title=" ">
<polygon fill="white" stroke="#666666" points="646.5,-462 492.5,-462 492.5,-432 646.5,-432 646.5,-462"/>
<text text-anchor="start" x="500.5" y="-450" font-family="Helvetica,sans-Serif" font-size="10.00">Arcane::mesh::TiedInterface</text>
<text text-anchor="middle" x="569.5" y="-439" font-family="Helvetica,sans-Serif" font-size="10.00">Builder::_gatherFaces</text>
</a>
</g>
</g>
<!-- Node1&#45;&gt;Node7 -->
<g id="edge6_Node000001_Node000007" class="edge">
<title>Node1&#45;&gt;Node7</title>
<g id="a_edge6_Node000001_Node000007"><a xlink:title=" ">
<path fill="none" stroke="#63b8ff" d="M764.48,-279.63C751.85,-316.71 722.73,-386.42 673,-423 665.12,-428.79 656.06,-433.21 646.66,-436.58"/>
<polygon fill="#63b8ff" stroke="#63b8ff" points="767.82,-280.68 767.61,-270.09 761.17,-278.5 767.82,-280.68"/>
</a>
</g>
</g>
<!-- Node8 -->
<g id="Node000008" class="node">
<title>Node8</title>
<g id="a_Node000008"><a xlink:href="../../da/df9/classArcane_1_1mesh_1_1ParallelAMRConsistency.html#a90a490fd7bc26fee6936c290a10fef4b" target="_top" xlink:title=" ">
<polygon fill="white" stroke="#666666" points="673,-366 466,-366 466,-336 673,-336 673,-366"/>
<text text-anchor="start" x="474" y="-354" font-family="Helvetica,sans-Serif" font-size="10.00">Arcane::mesh::ParallelAMRConsistency</text>
<text text-anchor="middle" x="569.5" y="-343" font-family="Helvetica,sans-Serif" font-size="10.00">::_gatherItems</text>
</a>
</g>
</g>
<!-- Node1&#45;&gt;Node8 -->
<g id="edge8_Node000001_Node000008" class="edge">
<title>Node1&#45;&gt;Node8</title>
<g id="a_edge8_Node000001_Node000008"><a xlink:title=" ">
<path fill="none" stroke="#63b8ff" d="M747.86,-276.84C728.82,-292.96 700.9,-314.23 673,-327 665.52,-330.42 657.51,-333.39 649.37,-335.94"/>
<polygon fill="#63b8ff" stroke="#63b8ff" points="750.17,-279.47 755.45,-270.29 745.59,-274.18 750.17,-279.47"/>
</a>
</g>
</g>
<!-- Node10 -->
<g id="Node000010" class="node">
<title>Node10</title>
<g id="a_Node000010"><a xlink:href="../../d1/d18/classArcane_1_1Hdf5ReaderWriter.html#a2be1d134152d8fff4c15c65df000e62d" target="_top" xlink:title="Ecriture en parallèle.">
<polygon fill="white" stroke="#666666" points="641.5,-318 497.5,-318 497.5,-288 641.5,-288 641.5,-318"/>
<text text-anchor="start" x="505.5" y="-306" font-family="Helvetica,sans-Serif" font-size="10.00">Arcane::Hdf5ReaderWriter</text>
<text text-anchor="middle" x="569.5" y="-295" font-family="Helvetica,sans-Serif" font-size="10.00">::_writeValParallel</text>
</a>
</g>
</g>
<!-- Node1&#45;&gt;Node10 -->
<g id="edge10_Node000001_Node000010" class="edge">
<title>Node1&#45;&gt;Node10</title>
<g id="a_edge10_Node000001_Node000010"><a xlink:title=" ">
<path fill="none" stroke="#63b8ff" d="M700.32,-272.45C691.13,-274.66 681.84,-276.89 673,-279 660.73,-281.92 647.63,-285.01 635.04,-287.97"/>
<polygon fill="#63b8ff" stroke="#63b8ff" points="701.33,-275.8 710.23,-270.05 699.69,-269 701.33,-275.8"/>
</a>
</g>
</g>
<!-- Node11 -->
<g id="Node000011" class="node">
<title>Node11</title>
<g id="a_Node000011"><a xlink:href="../../d6/dae/classArcane_1_1mesh_1_1CommonItemGroupFilterer.html#af2e3573a2279ac5d8b22b25fb0c00014" target="_top" xlink:title="Filtre les groupes communs.">
<polygon fill="white" stroke="#666666" points="647.5,-270 491.5,-270 491.5,-240 647.5,-240 647.5,-270"/>
<text text-anchor="start" x="499.5" y="-258" font-family="Helvetica,sans-Serif" font-size="10.00">Arcane::mesh::CommonItem</text>
<text text-anchor="middle" x="569.5" y="-247" font-family="Helvetica,sans-Serif" font-size="10.00">GroupFilterer::applyFiltering</text>
</a>
</g>
</g>
<!-- Node1&#45;&gt;Node11 -->
<g id="edge11_Node000001_Node000011" class="edge">
<title>Node1&#45;&gt;Node11</title>
<g id="a_edge11_Node000001_Node000011"><a xlink:title=" ">
<path fill="none" stroke="#63b8ff" d="M698.62,-255C682.04,-255 664.38,-255 647.64,-255"/>
<polygon fill="#63b8ff" stroke="#63b8ff" points="698.8,-258.5 708.8,-255 698.8,-251.5 698.8,-258.5"/>
</a>
</g>
</g>
<!-- Node12 -->
<g id="Node000012" class="node">
<title>Node12</title>
<g id="a_Node000012"><a xlink:href="../../d6/df6/namespaceArcane_1_1MessagePassing.html#aaca03cbc44c65adbaff8e7c330c63003" target="_top" xlink:title="Filtre les chaînes de caractères communes à tous les rangs de pm.">
<polygon fill="white" stroke="#666666" points="638,-222 501,-222 501,-192 638,-192 638,-222"/>
<text text-anchor="start" x="509" y="-210" font-family="Helvetica,sans-Serif" font-size="10.00">Arcane::MessagePassing</text>
<text text-anchor="middle" x="569.5" y="-199" font-family="Helvetica,sans-Serif" font-size="10.00">::filterCommonStrings</text>
</a>
</g>
</g>
<!-- Node1&#45;&gt;Node12 -->
<g id="edge12_Node000001_Node000012" class="edge">
<title>Node1&#45;&gt;Node12</title>
<g id="a_edge12_Node000001_Node000012"><a xlink:title=" ">
<path fill="none" stroke="#63b8ff" d="M700.32,-237.55C691.13,-235.34 681.84,-233.11 673,-231 660.73,-228.08 647.63,-224.99 635.04,-222.03"/>
<polygon fill="#63b8ff" stroke="#63b8ff" points="699.69,-241 710.23,-239.95 701.33,-234.2 699.69,-241"/>
</a>
</g>
</g>
<!-- Node13 -->
<g id="Node000013" class="node">
<title>Node13</title>
<g id="a_Node000013"><a xlink:href="../../dc/db8/classArcane_1_1VariableUtilities.html#acaafb829b8dc677b262e50510bb6bb42" target="_top" xlink:title=" ">
<polygon fill="white" stroke="#666666" points="636.5,-174 502.5,-174 502.5,-144 636.5,-144 636.5,-174"/>
<text text-anchor="start" x="510.5" y="-162" font-family="Helvetica,sans-Serif" font-size="10.00">Arcane::VariableUtilities</text>
<text text-anchor="middle" x="569.5" y="-151" font-family="Helvetica,sans-Serif" font-size="10.00">::filterCommonVariables</text>
</a>
</g>
</g>
<!-- Node1&#45;&gt;Node13 -->
<g id="edge13_Node000001_Node000013" class="edge">
<title>Node1&#45;&gt;Node13</title>
<g id="a_edge13_Node000001_Node000013"><a xlink:title=" ">
<path fill="none" stroke="#63b8ff" d="M747.86,-233.16C728.82,-217.04 700.9,-195.77 673,-183 661.62,-177.79 648.99,-173.65 636.59,-170.38"/>
<polygon fill="#63b8ff" stroke="#63b8ff" points="745.59,-235.82 755.45,-239.71 750.17,-230.53 745.59,-235.82"/>
</a>
</g>
</g>
<!-- Node14 -->
<g id="Node000014" class="node">
<title>Node14</title>
<g id="a_Node000014"><a xlink:href="../../d1/d18/classArcane_1_1Hdf5ReaderWriter.html#aeea1086f7a53adfa3d802e5cf96723c8" target="_top" xlink:title="Positionne les infos des méta&#45;données.">
<polygon fill="white" stroke="#666666" points="641.5,-126 497.5,-126 497.5,-96 641.5,-96 641.5,-126"/>
<text text-anchor="start" x="505.5" y="-114" font-family="Helvetica,sans-Serif" font-size="10.00">Arcane::Hdf5ReaderWriter</text>
<text text-anchor="middle" x="569.5" y="-103" font-family="Helvetica,sans-Serif" font-size="10.00">::setMetaData</text>
</a>
</g>
</g>
<!-- Node1&#45;&gt;Node14 -->
<g id="edge14_Node000001_Node000014" class="edge">
<title>Node1&#45;&gt;Node14</title>
<g id="a_edge14_Node000001_Node000014"><a xlink:title=" ">
<path fill="none" stroke="#63b8ff" d="M758.66,-230.78C742.2,-203.22 711.59,-158.95 673,-135 663.45,-129.07 652.57,-124.61 641.56,-121.25"/>
<polygon fill="#63b8ff" stroke="#63b8ff" points="755.84,-232.88 763.89,-239.77 761.89,-229.36 755.84,-232.88"/>
</a>
</g>
</g>
<!-- Node15 -->
<g id="Node000015" class="node">
<title>Node15</title>
<g id="a_Node000015"><a xlink:href="../../d9/df0/classArcane_1_1ParallelCorefinementService.html#a3d5bffa495a5c4c37da326214f275cae" target="_top" xlink:title="Update.">
<polygon fill="white" stroke="#666666" points="648.5,-78 490.5,-78 490.5,-48 648.5,-48 648.5,-78"/>
<text text-anchor="start" x="498.5" y="-66" font-family="Helvetica,sans-Serif" font-size="10.00">Arcane::ParallelCorefinement</text>
<text text-anchor="middle" x="569.5" y="-55" font-family="Helvetica,sans-Serif" font-size="10.00">Service::update</text>
</a>
</g>
</g>
<!-- Node1&#45;&gt;Node15 -->
<g id="edge15_Node000001_Node000015" class="edge">
<title>Node1&#45;&gt;Node15</title>
<g id="a_edge15_Node000001_Node000015"><a xlink:title=" ">
<path fill="none" stroke="#63b8ff" d="M764.48,-230.37C751.85,-193.29 722.73,-123.58 673,-87 665.71,-81.64 657.41,-77.46 648.76,-74.19"/>
<polygon fill="#63b8ff" stroke="#63b8ff" points="761.17,-231.5 767.61,-239.91 767.82,-229.32 761.17,-231.5"/>
</a>
</g>
</g>
<!-- Node16 -->
<g id="Node000016" class="node">
<title>Node16</title>
<g id="a_Node000016"><a xlink:href="../../dd/d56/classArcane_1_1PropertyMng.html#abfaa5ee3c13cef35952d1f9d516af642" target="_top" xlink:title="Sérialise les informations de propriété dans bytes.">
<polygon fill="white" stroke="#666666" points="629,-30 510,-30 510,0 629,0 629,-30"/>
<text text-anchor="start" x="518" y="-18" font-family="Helvetica,sans-Serif" font-size="10.00">Arcane::PropertyMng</text>
<text text-anchor="middle" x="569.5" y="-7" font-family="Helvetica,sans-Serif" font-size="10.00">::writeTo</text>
</a>
</g>
</g>
<!-- Node1&#45;&gt;Node16 -->
<g id="edge16_Node000001_Node000016" class="edge">
<title>Node1&#45;&gt;Node16</title>
<g id="a_edge16_Node000001_Node000016"><a xlink:title=" ">
<path fill="none" stroke="#63b8ff" d="M767.91,-230.07C759.13,-184.74 734.05,-88.93 673,-39 660.62,-28.88 644.73,-22.87 629.17,-19.35"/>
<polygon fill="#63b8ff" stroke="#63b8ff" points="764.48,-230.74 769.72,-239.94 771.36,-229.48 764.48,-230.74"/>
</a>
</g>
</g>
<!-- Node3 -->
<g id="Node000003" class="node">
<title>Node3</title>
<g id="a_Node000003"><a xlink:href="../../dc/dbe/classArcane_1_1mesh_1_1TiedInterfaceBuilder.html#a144d89f50d7d873fda809187ff3c9423" target="_top" xlink:title="Construit les infos sur une interface liée.">
<polygon fill="white" stroke="#666666" points="428,-486 225,-486 225,-456 428,-456 428,-486"/>
<text text-anchor="start" x="233" y="-474" font-family="Helvetica,sans-Serif" font-size="10.00">Arcane::mesh::TiedInterface</text>
<text text-anchor="middle" x="326.5" y="-463" font-family="Helvetica,sans-Serif" font-size="10.00">Builder::computeInterfaceConnections</text>
</a>
</g>
</g>
<!-- Node2&#45;&gt;Node3 -->
<g id="edge2_Node000002_Node000003" class="edge">
<title>Node2&#45;&gt;Node3</title>
<g id="a_edge2_Node000002_Node000003"><a xlink:title=" ">
<path fill="none" stroke="#63b8ff" d="M481.22,-486.31C463.97,-484.59 445.73,-482.77 428.08,-481.02"/>
<polygon fill="#63b8ff" stroke="#63b8ff" points="480.95,-489.8 491.25,-487.31 481.65,-482.83 480.95,-489.8"/>
</a>
</g>
</g>
<!-- Node4 -->
<g id="Node000004" class="node">
<title>Node4</title>
<g id="a_Node000004"><a xlink:href="../../d0/d50/classArcane_1_1mesh_1_1TiedInterfacePartitionConstraint.html#a9c6b30169340d6fc70e844b1d3387c38" target="_top" xlink:title="Ajoute un ensemble de contraintes sur les mailles.">
<polygon fill="white" stroke="#666666" points="187,-486 0,-486 0,-456 187,-456 187,-486"/>
<text text-anchor="start" x="8" y="-474" font-family="Helvetica,sans-Serif" font-size="10.00">Arcane::mesh::TiedInterface</text>
<text text-anchor="middle" x="93.5" y="-463" font-family="Helvetica,sans-Serif" font-size="10.00">PartitionConstraint::addLinkedCells</text>
</a>
</g>
</g>
<!-- Node3&#45;&gt;Node4 -->
<g id="edge3_Node000003_Node000004" class="edge">
<title>Node3&#45;&gt;Node4</title>
<g id="a_edge3_Node000003_Node000004"><a xlink:title=" ">
<path fill="none" stroke="#63b8ff" d="M214.83,-471C205.58,-471 196.28,-471 187.17,-471"/>
<polygon fill="#63b8ff" stroke="#63b8ff" points="214.85,-474.5 224.85,-471 214.85,-467.5 214.85,-474.5"/>
</a>
</g>
</g>
<!-- Node6 -->
<g id="Node000006" class="node">
<title>Node6</title>
<g id="a_Node000006"><a xlink:href="../../da/df9/classArcane_1_1mesh_1_1ParallelAMRConsistency.html#a7c177dc71b298980f268836d98fdf473" target="_top" xlink:title="Détermine les faces à envoyer aux voisins.">
<polygon fill="white" stroke="#666666" points="430,-414 223,-414 223,-384 430,-384 430,-414"/>
<text text-anchor="start" x="231" y="-402" font-family="Helvetica,sans-Serif" font-size="10.00">Arcane::mesh::ParallelAMRConsistency</text>
<text text-anchor="middle" x="326.5" y="-391" font-family="Helvetica,sans-Serif" font-size="10.00">::makeNewItemsConsistent</text>
</a>
</g>
</g>
<!-- Node5&#45;&gt;Node6 -->
<g id="edge5_Node000005_Node000006" class="edge">
<title>Node5&#45;&gt;Node6</title>
<g id="a_edge5_Node000005_Node000006"><a xlink:title=" ">
<path fill="none" stroke="#63b8ff" d="M455.68,-399C447.23,-399 438.73,-399 430.35,-399"/>
<polygon fill="#63b8ff" stroke="#63b8ff" points="455.94,-402.5 465.94,-399 455.94,-395.5 455.94,-402.5"/>
</a>
</g>
</g>
<!-- Node7&#45;&gt;Node3 -->
<g id="edge7_Node000007_Node000003" class="edge">
<title>Node7&#45;&gt;Node3</title>
<g id="a_edge7_Node000007_Node000003"><a xlink:title=" ">
<path fill="none" stroke="#63b8ff" d="M482.12,-455.6C464.71,-457.34 446.26,-459.17 428.4,-460.95"/>
<polygon fill="#63b8ff" stroke="#63b8ff" points="482.64,-459.07 492.25,-454.59 481.95,-452.1 482.64,-459.07"/>
</a>
</g>
</g>
<!-- Node9 -->
<g id="Node000009" class="node">
<title>Node9</title>
<g id="a_Node000009"><a xlink:href="../../da/df9/classArcane_1_1mesh_1_1ParallelAMRConsistency.html#a2843b82cf9a18bad2f6e15c33c0a16dd" target="_top" xlink:title="Détermine les faces à envoyer aux voisins.">
<polygon fill="white" stroke="#666666" points="430,-366 223,-366 223,-336 430,-336 430,-366"/>
<text text-anchor="start" x="231" y="-354" font-family="Helvetica,sans-Serif" font-size="10.00">Arcane::mesh::ParallelAMRConsistency</text>
<text text-anchor="middle" x="326.5" y="-343" font-family="Helvetica,sans-Serif" font-size="10.00">::makeNewItemsConsistent2</text>
</a>
</g>
</g>
<!-- Node8&#45;&gt;Node9 -->
<g id="edge9_Node000008_Node000009" class="edge">
<title>Node8&#45;&gt;Node9</title>
<g id="a_edge9_Node000008_Node000009"><a xlink:title=" ">
<path fill="none" stroke="#63b8ff" d="M455.68,-351C447.23,-351 438.73,-351 430.35,-351"/>
<polygon fill="#63b8ff" stroke="#63b8ff" points="455.94,-354.5 465.94,-351 455.94,-347.5 455.94,-354.5"/>
</a>
</g>
</g>
</g>
</svg>

<g id="navigator" transform="translate(0 0)" fill="#404254">
  <rect fill="#f2f5e9" fill-opacity="0.5" stroke="#606060" stroke-width=".5" x="0" y="0" width="60" height="60"/>
  <use id="zoomplus" xlink:href="#zoomPlus" x="17" y="9" onmousedown="handleZoom(evt,'in')"/>
  <use id="zoomminus" xlink:href="#zoomMin" x="42" y="9" onmousedown="handleZoom(evt,'out')"/>
  <use id="reset" xlink:href="#resetDef" x="30" y="36" onmousedown="handleReset()"/>
   <use id="arrowup" xlink:href="#arrowUp" x="0" y="0" onmousedown="handlePan(0,-1)"/>
  <use id="arrowright" xlink:href="#arrowRight" x="0" y="0" onmousedown="handlePan(1,0)"/>
  <use id="arrowdown" xlink:href="#arrowDown" x="0" y="0" onmousedown="handlePan(0,1)"/>
  <use id="arrowleft" xlink:href="#arrowLeft" x="0" y="0" onmousedown="handlePan(-1,0)"/>
</g>
<svg viewBox="0 0 15 15" width="100%" height="30px" preserveAspectRatio="xMaxYMin meet">
 <g id="arrow_out" transform="scale(0.3 0.3)">
  <a xlink:href="classArcane_1_1BasicSerializer_a78e5e437a8925c25a04de50fb9d7373b_icgraph_org.svg" target="_base">
   <rect id="button" ry="5" rx="5" y="6" x="6" height="38" width="38"
        fill="#f2f5e9" fill-opacity="0.5" stroke="#606060" stroke-width="1.0"/>
   <path id="arrow"
     d="M 11.500037,31.436501 C 11.940474,20.09759 22.043105,11.32322 32.158766,21.979434 L 37.068811,17.246167 C 37.068811,17.246167 37.088388,32 37.088388,32 L 22.160133,31.978069 C 22.160133,31.978069 26.997745,27.140456 26.997745,27.140456 C 18.528582,18.264221 13.291696,25.230495 11.500037,31.436501 z"
     style="fill:#404040;"/>
  </a>
 </g>
</svg>

<style type='text/css'>
<![CDATA[
[data-mouse-over-selected='false'] { opacity: 0.7; }
[data-mouse-over-selected='true']  { opacity: 1.0; }
]]>
</style>
<script type="application/ecmascript"><![CDATA[
document.addEventListener('DOMContentLoaded', (event) => {
  highlightEdges();
  highlightAdjacentNodes();
});
]]></script>
</svg>
