<?xml version="1.0" encoding="UTF-8" standalone="no"?>
<!DOCTYPE svg PUBLIC "-//W3C//DTD SVG 1.1//EN"
 "http://www.w3.org/Graphics/SVG/1.1/DTD/svg11.dtd">
<!-- Generated by graphviz version 14.1.2 (0)
 -->
<!-- Title: Arcane::BasicSerializer::putInteger Pages: 1 -->
<!--zoomable 354 -->

<svg id="main" version="1.1" xmlns="http://www.w3.org/2000/svg" xmlns:xlink="http://www.w3.org/1999/xlink" xml:space="preserve" onload="init(evt)">

<style type="text/css"><![CDATA[
.node, .edge {opacity: 0.7;}
.node.selected, .edge.selected {opacity: 1;}
.edge:hover path { stroke: red; }
.edge:hover polygon { stroke: red; fill: red; }
]]></style>

<defs>
  <circle id="rim" cx="0" cy="0" r="7"/>
  <circle id="rim2" cx="0" cy="0" r="3.5"/>
  <g id="zoomPlus">
    <use xlink:href="#rim" fill="#404040"><set attributeName="fill" to="#808080" begin="zoomplus.mouseover" end="zoomplus.mouseout"/></use>
    <path d="M-4,0h8M0,-4v8" fill="none" stroke="white" stroke-width="1.5" pointer-events="none"/>
  </g>
  <g id="zoomMin">
    <use xlink:href="#rim" fill="#404040"><set attributeName="fill" to="#808080" begin="zoomminus.mouseover" end="zoomminus.mouseout"/></use>
    <path d="M-4,0h8" fill="none" stroke="white" stroke-width="1.5" pointer-events="none"/>
  </g>
  <g id="arrowUp" transform="translate(30 24)">
    <use xlink:href="#rim"/>
    <path pointer-events="none" fill="none" stroke="white" stroke-width="1.5" d="M0,-3.0v7 M-2.5,-0.5L0,-3.0L2.5,-0.5"/>
  </g>
  <g id="arrowRight" transform="rotate(90) translate(36 -43)">
    <use xlink:href="#rim"/>
    <path pointer-events="none" fill="none" stroke="white" stroke-width="1.5" d="M0,-3.0v7 M-2.5,-0.5L0,-3.0L2.5,-0.5"/>
  </g>
  <g id="arrowDown" transform="rotate(180) translate(-30 -48)">
    <use xlink:href="#rim"/>
    <path pointer-events="none" fill="none" stroke="white" stroke-width="1.5" d="M0,-3.0v7 M-2.5,-0.5L0,-3.0L2.5,-0.5"/>
  </g>
  <g id="arrowLeft" transform="rotate(270) translate(-36 17)">
    <use xlink:href="#rim"/>
    <path pointer-events="none" fill="none" stroke="white" stroke-width="1.5" d="M0,-3.0v7 M-2.5,-0.5L0,-3.0L2.5,-0.5"/>
  </g>
  <g id="resetDef">
    <use xlink:href="#rim2" fill="#404040"><set attributeName="fill" to="#808080" begin="reset.mouseover" end="reset.mouseout"/></use>
  </g>
</defs>
<script type="application/ecmascript">
var viewWidth = 843;
var viewHeight = 354;
var sectionId = 'dynsection-89';
</script>
<script type="application/ecmascript" xlink:href="../../svg.min.js"/>
<svg id="graph" class="graph">
<g id="viewport">
<title>Arcane::BasicSerializer::putInteger</title>
<!-- Node1 -->
<g id="Node000001" class="node">
<title>Node1</title>
<g id="a_Node000001"><a xlink:title="Ajoute l&#39;entier value.">
<polygon fill="#999999" stroke="#666666" points="835,-189.5 707.25,-189.5 707.25,-156 835,-156 835,-189.5"/>
<text xml:space="preserve" text-anchor="start" x="715.25" y="-176" font-family="Helvetica,sans-Serif" font-size="10.00">Arcane::BasicSerializer</text>
<text xml:space="preserve" text-anchor="middle" x="771.12" y="-163.25" font-family="Helvetica,sans-Serif" font-size="10.00">::putInteger</text>
</a>
</g>
</g>
<!-- Node2 -->
<g id="Node000002" class="node">
<title>Node2</title>
<g id="a_Node000002"><a xlink:href="../../dc/dbe/classArcane_1_1mesh_1_1TiedInterfaceBuilder.html#a839c6164e0272b0d3af9d14d1cca647c" target="_top" xlink:title="envoie et récupère les informations sur les noeuds de l&#39;interface.">
<polygon fill="white" stroke="#666666" points="645.75,-345.5 490.25,-345.5 490.25,-312 645.75,-312 645.75,-345.5"/>
<text xml:space="preserve" text-anchor="start" x="498.25" y="-332" font-family="Helvetica,sans-Serif" font-size="10.00">Arcane::mesh::TiedInterface</text>
<text xml:space="preserve" text-anchor="middle" x="568" y="-319.25" font-family="Helvetica,sans-Serif" font-size="10.00">Builder::_gatherAllNodesInfo</text>
</a>
</g>
</g>
<!-- Node1&#45;&gt;Node2 -->
<g id="edge1_Node000001_Node000002" class="edge">
<title>Node1&#45;&gt;Node2</title>
<g id="a_edge1_Node000001_Node000002"><a xlink:title=" ">
<path fill="none" stroke="#63b8ff" d="M756.77,-199.73C740.62,-229.51 710.63,-276.68 671.25,-302.75 663.61,-307.81 655.06,-311.88 646.24,-315.16"/>
<polygon fill="#63b8ff" stroke="#63b8ff" points="759.83,-201.43 761.38,-190.95 753.63,-198.18 759.83,-201.43"/>
</a>
</g>
</g>
<!-- Node5 -->
<g id="Node000005" class="node">
<title>Node5</title>
<g id="a_Node000005"><a xlink:href="../../da/df9/classArcane_1_1mesh_1_1ParallelAMRConsistency.html#a8defaf8dad488c66673762533f223b89" target="_top" xlink:title=" ">
<polygon fill="white" stroke="#666666" points="671.25,-241.5 464.75,-241.5 464.75,-208 671.25,-208 671.25,-241.5"/>
<text xml:space="preserve" text-anchor="start" x="472.75" y="-228" font-family="Helvetica,sans-Serif" font-size="10.00">Arcane::mesh::ParallelAMRConsistency</text>
<text xml:space="preserve" text-anchor="middle" x="568" y="-215.25" font-family="Helvetica,sans-Serif" font-size="10.00">::_gatherFaces</text>
</a>
</g>
</g>
<!-- Node1&#45;&gt;Node5 -->
<g id="edge4_Node000001_Node000005" class="edge">
<title>Node1&#45;&gt;Node5</title>
<g id="a_edge4_Node000001_Node000005"><a xlink:title=" ">
<path fill="none" stroke="#63b8ff" d="M695.95,-192.32C687.62,-194.5 679.26,-196.68 671.25,-198.75 660.17,-201.62 648.4,-204.63 636.95,-207.56"/>
<polygon fill="#63b8ff" stroke="#63b8ff" points="696.6,-195.77 705.38,-189.85 694.82,-189 696.6,-195.77"/>
</a>
</g>
</g>
<!-- Node7 -->
<g id="Node000007" class="node">
<title>Node7</title>
<g id="a_Node000007"><a xlink:href="../../dc/dbe/classArcane_1_1mesh_1_1TiedInterfaceBuilder.html#a82548c726c0216b9e85f955b66efacaf" target="_top" xlink:title=" ">
<polygon fill="white" stroke="#666666" points="644.62,-293.5 491.38,-293.5 491.38,-260 644.62,-260 644.62,-293.5"/>
<text xml:space="preserve" text-anchor="start" x="499.38" y="-280" font-family="Helvetica,sans-Serif" font-size="10.00">Arcane::mesh::TiedInterface</text>
<text xml:space="preserve" text-anchor="middle" x="568" y="-267.25" font-family="Helvetica,sans-Serif" font-size="10.00">Builder::_gatherFaces</text>
</a>
</g>
</g>
<!-- Node1&#45;&gt;Node7 -->
<g id="edge6_Node000001_Node000007" class="edge">
<title>Node1&#45;&gt;Node7</title>
<g id="a_edge6_Node000001_Node000007"><a xlink:title=" ">
<path fill="none" stroke="#63b8ff" d="M744.81,-197.67C725.97,-214.92 698.84,-237.13 671.25,-250.75 663.04,-254.8 654.13,-258.26 645.12,-261.21"/>
<polygon fill="#63b8ff" stroke="#63b8ff" points="747.1,-200.33 752.01,-190.94 742.31,-195.22 747.1,-200.33"/>
</a>
</g>
</g>
<!-- Node8 -->
<g id="Node000008" class="node">
<title>Node8</title>
<g id="a_Node000008"><a xlink:href="../../da/df9/classArcane_1_1mesh_1_1ParallelAMRConsistency.html#a90a490fd7bc26fee6936c290a10fef4b" target="_top" xlink:title=" ">
<polygon fill="white" stroke="#666666" points="671.25,-189.5 464.75,-189.5 464.75,-156 671.25,-156 671.25,-189.5"/>
<text xml:space="preserve" text-anchor="start" x="472.75" y="-176" font-family="Helvetica,sans-Serif" font-size="10.00">Arcane::mesh::ParallelAMRConsistency</text>
<text xml:space="preserve" text-anchor="middle" x="568" y="-163.25" font-family="Helvetica,sans-Serif" font-size="10.00">::_gatherItems</text>
</a>
</g>
</g>
<!-- Node1&#45;&gt;Node8 -->
<g id="edge8_Node000001_Node000008" class="edge">
<title>Node1&#45;&gt;Node8</title>
<g id="a_edge8_Node000001_Node000008"><a xlink:title=" ">
<path fill="none" stroke="#63b8ff" d="M695.45,-172.75C687.59,-172.75 679.52,-172.75 671.42,-172.75"/>
<polygon fill="#63b8ff" stroke="#63b8ff" points="695.25,-176.25 705.25,-172.75 695.25,-169.25 695.25,-176.25"/>
</a>
</g>
</g>
<!-- Node10 -->
<g id="Node000010" class="node">
<title>Node10</title>
<g id="a_Node000010"><a xlink:href="../../d6/dae/classArcane_1_1mesh_1_1CommonItemGroupFilterer.html#af2e3573a2279ac5d8b22b25fb0c00014" target="_top" xlink:title="Filtre les groupes communs.">
<polygon fill="white" stroke="#666666" points="645.75,-137.5 490.25,-137.5 490.25,-104 645.75,-104 645.75,-137.5"/>
<text xml:space="preserve" text-anchor="start" x="498.25" y="-124" font-family="Helvetica,sans-Serif" font-size="10.00">Arcane::mesh::CommonItem</text>
<text xml:space="preserve" text-anchor="middle" x="568" y="-111.25" font-family="Helvetica,sans-Serif" font-size="10.00">GroupFilterer::applyFiltering</text>
</a>
</g>
</g>
<!-- Node1&#45;&gt;Node10 -->
<g id="edge10_Node000001_Node000010" class="edge">
<title>Node1&#45;&gt;Node10</title>
<g id="a_edge10_Node000001_Node000010"><a xlink:title=" ">
<path fill="none" stroke="#63b8ff" d="M695.95,-153.18C687.62,-151 679.26,-148.82 671.25,-146.75 660.17,-143.88 648.4,-140.87 636.95,-137.94"/>
<polygon fill="#63b8ff" stroke="#63b8ff" points="694.82,-156.5 705.38,-155.65 696.6,-149.73 694.82,-156.5"/>
</a>
</g>
</g>
<!-- Node11 -->
<g id="Node000011" class="node">
<title>Node11</title>
<g id="a_Node000011"><a xlink:href="../../dc/db8/classArcane_1_1VariableUtilities.html#acaafb829b8dc677b262e50510bb6bb42" target="_top" xlink:title=" ">
<polygon fill="white" stroke="#666666" points="634.88,-85.5 501.12,-85.5 501.12,-52 634.88,-52 634.88,-85.5"/>
<text xml:space="preserve" text-anchor="start" x="509.12" y="-72" font-family="Helvetica,sans-Serif" font-size="10.00">Arcane::VariableUtilities</text>
<text xml:space="preserve" text-anchor="middle" x="568" y="-59.25" font-family="Helvetica,sans-Serif" font-size="10.00">::filterCommonVariables</text>
</a>
</g>
</g>
<!-- Node1&#45;&gt;Node11 -->
<g id="edge11_Node000001_Node000011" class="edge">
<title>Node1&#45;&gt;Node11</title>
<g id="a_edge11_Node000001_Node000011"><a xlink:title=" ">
<path fill="none" stroke="#63b8ff" d="M744.81,-147.83C725.97,-130.58 698.84,-108.37 671.25,-94.75 660.08,-89.24 647.63,-84.82 635.37,-81.3"/>
<polygon fill="#63b8ff" stroke="#63b8ff" points="742.31,-150.28 752.01,-154.56 747.1,-145.17 742.31,-150.28"/>
</a>
</g>
</g>
<!-- Node12 -->
<g id="Node000012" class="node">
<title>Node12</title>
<g id="a_Node000012"><a xlink:href="../../d9/df0/classArcane_1_1ParallelCorefinementService.html#a3d5bffa495a5c4c37da326214f275cae" target="_top" xlink:title="Update.">
<polygon fill="white" stroke="#666666" points="646.88,-33.5 489.12,-33.5 489.12,0 646.88,0 646.88,-33.5"/>
<text xml:space="preserve" text-anchor="start" x="497.12" y="-20" font-family="Helvetica,sans-Serif" font-size="10.00">Arcane::ParallelCorefinement</text>
<text xml:space="preserve" text-anchor="middle" x="568" y="-7.25" font-family="Helvetica,sans-Serif" font-size="10.00">Service::update</text>
</a>
</g>
</g>
<!-- Node1&#45;&gt;Node12 -->
<g id="edge12_Node000001_Node000012" class="edge">
<title>Node1&#45;&gt;Node12</title>
<g id="a_edge12_Node000001_Node000012"><a xlink:title=" ">
<path fill="none" stroke="#63b8ff" d="M756.77,-145.77C740.62,-115.99 710.63,-68.82 671.25,-42.75 663.92,-37.9 655.74,-33.95 647.29,-30.74"/>
<polygon fill="#63b8ff" stroke="#63b8ff" points="753.63,-147.32 761.38,-154.55 759.83,-144.07 753.63,-147.32"/>
</a>
</g>
</g>
<!-- Node3 -->
<g id="Node000003" class="node">
<title>Node3</title>
<g id="a_Node000003"><a xlink:href="../../dc/dbe/classArcane_1_1mesh_1_1TiedInterfaceBuilder.html#a144d89f50d7d873fda809187ff3c9423" target="_top" xlink:title="Construit les infos sur une interface liée.">
<polygon fill="white" stroke="#666666" points="426.88,-319.5 224.12,-319.5 224.12,-286 426.88,-286 426.88,-319.5"/>
<text xml:space="preserve" text-anchor="start" x="232.12" y="-306" font-family="Helvetica,sans-Serif" font-size="10.00">Arcane::mesh::TiedInterface</text>
<text xml:space="preserve" text-anchor="middle" x="325.5" y="-293.25" font-family="Helvetica,sans-Serif" font-size="10.00">Builder::computeInterfaceConnections</text>
</a>
</g>
</g>
<!-- Node2&#45;&gt;Node3 -->
<g id="edge2_Node000002_Node000003" class="edge">
<title>Node2&#45;&gt;Node3</title>
<g id="a_edge2_Node000002_Node000003"><a xlink:title=" ">
<path fill="none" stroke="#63b8ff" d="M478.53,-319.19C461.86,-317.38 444.32,-315.49 427.31,-313.65"/>
<polygon fill="#63b8ff" stroke="#63b8ff" points="478.09,-322.66 488.41,-320.25 478.84,-315.7 478.09,-322.66"/>
</a>
</g>
</g>
<!-- Node4 -->
<g id="Node000004" class="node">
<title>Node4</title>
<g id="a_Node000004"><a xlink:href="../../d0/d50/classArcane_1_1mesh_1_1TiedInterfacePartitionConstraint.html#a9c6b30169340d6fc70e844b1d3387c38" target="_top" xlink:title="Ajoute un ensemble de contraintes sur les mailles.">
<polygon fill="white" stroke="#666666" points="186.25,-319.5 0,-319.5 0,-286 186.25,-286 186.25,-319.5"/>
<text xml:space="preserve" text-anchor="start" x="8" y="-306" font-family="Helvetica,sans-Serif" font-size="10.00">Arcane::mesh::TiedInterface</text>
<text xml:space="preserve" text-anchor="middle" x="93.12" y="-293.25" font-family="Helvetica,sans-Serif" font-size="10.00">PartitionConstraint::addLinkedCells</text>
</a>
</g>
</g>
<!-- Node3&#45;&gt;Node4 -->
<g id="edge3_Node000003_Node000004" class="edge">
<title>Node3&#45;&gt;Node4</title>
<g id="a_edge3_Node000003_Node000004"><a xlink:title=" ">
<path fill="none" stroke="#63b8ff" d="M212.45,-302.75C203.81,-302.75 195.14,-302.75 186.64,-302.75"/>
<polygon fill="#63b8ff" stroke="#63b8ff" points="212.28,-306.25 222.28,-302.75 212.28,-299.25 212.28,-306.25"/>
</a>
</g>
</g>
<!-- Node6 -->
<g id="Node000006" class="node">
<title>Node6</title>
<g id="a_Node000006"><a xlink:href="../../da/df9/classArcane_1_1mesh_1_1ParallelAMRConsistency.html#a7c177dc71b298980f268836d98fdf473" target="_top" xlink:title="Détermine les faces à envoyer aux voisins.">
<polygon fill="white" stroke="#666666" points="428.75,-241.5 222.25,-241.5 222.25,-208 428.75,-208 428.75,-241.5"/>
<text xml:space="preserve" text-anchor="start" x="230.25" y="-228" font-family="Helvetica,sans-Serif" font-size="10.00">Arcane::mesh::ParallelAMRConsistency</text>
<text xml:space="preserve" text-anchor="middle" x="325.5" y="-215.25" font-family="Helvetica,sans-Serif" font-size="10.00">::makeNewItemsConsistent</text>
</a>
</g>
</g>
<!-- Node5&#45;&gt;Node6 -->
<g id="edge5_Node000005_Node000006" class="edge">
<title>Node5&#45;&gt;Node6</title>
<g id="a_edge5_Node000005_Node000006"><a xlink:title=" ">
<path fill="none" stroke="#63b8ff" d="M452.82,-224.75C444.94,-224.75 437.04,-224.75 429.23,-224.75"/>
<polygon fill="#63b8ff" stroke="#63b8ff" points="452.8,-228.25 462.8,-224.75 452.8,-221.25 452.8,-228.25"/>
</a>
</g>
</g>
<!-- Node7&#45;&gt;Node3 -->
<g id="edge7_Node000007_Node000003" class="edge">
<title>Node7&#45;&gt;Node3</title>
<g id="a_edge7_Node000007_Node000003"><a xlink:title=" ">
<path fill="none" stroke="#63b8ff" d="M479.83,-286.17C462.74,-288.02 444.68,-289.97 427.19,-291.86"/>
<polygon fill="#63b8ff" stroke="#63b8ff" points="479.83,-289.69 489.4,-285.14 479.08,-282.73 479.83,-289.69"/>
</a>
</g>
</g>
<!-- Node9 -->
<g id="Node000009" class="node">
<title>Node9</title>
<g id="a_Node000009"><a xlink:href="../../da/df9/classArcane_1_1mesh_1_1ParallelAMRConsistency.html#a2843b82cf9a18bad2f6e15c33c0a16dd" target="_top" xlink:title="Détermine les faces à envoyer aux voisins.">
<polygon fill="white" stroke="#666666" points="428.75,-189.5 222.25,-189.5 222.25,-156 428.75,-156 428.75,-189.5"/>
<text xml:space="preserve" text-anchor="start" x="230.25" y="-176" font-family="Helvetica,sans-Serif" font-size="10.00">Arcane::mesh::ParallelAMRConsistency</text>
<text xml:space="preserve" text-anchor="middle" x="325.5" y="-163.25" font-family="Helvetica,sans-Serif" font-size="10.00">::makeNewItemsConsistent2</text>
</a>
</g>
</g>
<!-- Node8&#45;&gt;Node9 -->
<g id="edge9_Node000008_Node000009" class="edge">
<title>Node8&#45;&gt;Node9</title>
<g id="a_edge9_Node000008_Node000009"><a xlink:title=" ">
<path fill="none" stroke="#63b8ff" d="M452.82,-172.75C444.94,-172.75 437.04,-172.75 429.23,-172.75"/>
<polygon fill="#63b8ff" stroke="#63b8ff" points="452.8,-176.25 462.8,-172.75 452.8,-169.25 452.8,-176.25"/>
</a>
</g>
</g>
</g>
</svg>

<g id="navigator" transform="translate(0 0)" fill="#404254">
  <rect fill="#f2f5e9" fill-opacity="0.5" stroke="#606060" stroke-width=".5" x="0" y="0" width="60" height="60"/>
  <use id="zoomplus" xlink:href="#zoomPlus" x="17" y="9" onmousedown="handleZoom(evt,'in')"/>
  <use id="zoomminus" xlink:href="#zoomMin" x="42" y="9" onmousedown="handleZoom(evt,'out')"/>
  <use id="reset" xlink:href="#resetDef" x="30" y="36" onmousedown="handleReset()"/>
   <use id="arrowup" xlink:href="#arrowUp" x="0" y="0" onmousedown="handlePan(0,-1)"/>
  <use id="arrowright" xlink:href="#arrowRight" x="0" y="0" onmousedown="handlePan(1,0)"/>
  <use id="arrowdown" xlink:href="#arrowDown" x="0" y="0" onmousedown="handlePan(0,1)"/>
  <use id="arrowleft" xlink:href="#arrowLeft" x="0" y="0" onmousedown="handlePan(-1,0)"/>
</g>
<svg viewBox="0 0 15 15" width="100%" height="30px" preserveAspectRatio="xMaxYMin meet">
 <g id="arrow_out" transform="scale(0.3 0.3)">
  <a xlink:href="classArcane_1_1BasicSerializer_ace601eddb5b3777cde4fae0590277563_icgraph_org.svg" target="_base">
   <rect id="button" ry="5" rx="5" y="6" x="6" height="38" width="38"
        fill="#f2f5e9" fill-opacity="0.5" stroke="#606060" stroke-width="1.0"/>
   <path id="arrow"
     d="M 11.500037,31.436501 C 11.940474,20.09759 22.043105,11.32322 32.158766,21.979434 L 37.068811,17.246167 C 37.068811,17.246167 37.088388,32 37.088388,32 L 22.160133,31.978069 C 22.160133,31.978069 26.997745,27.140456 26.997745,27.140456 C 18.528582,18.264221 13.291696,25.230495 11.500037,31.436501 z"
     style="fill:#404040;"/>
  </a>
 </g>
</svg>

<style type='text/css'>
<![CDATA[
[data-mouse-over-selected='false'] { opacity: 0.7; }
[data-mouse-over-selected='true']  { opacity: 1.0; }
]]>
</style>
<script type="application/ecmascript"><![CDATA[
document.addEventListener('DOMContentLoaded', (event) => {
  highlightEdges();
  highlightAdjacentNodes();
});
]]></script>
</svg>
