<?xml version="1.0" encoding="UTF-8" standalone="no"?>
<!DOCTYPE svg PUBLIC "-//W3C//DTD SVG 1.1//EN"
 "http://www.w3.org/Graphics/SVG/1.1/DTD/svg11.dtd">
<!-- Generated by graphviz version 14.1.2 (0)
 -->
<!-- Title: Arcane::ArcaneBasicMeshSubdividerService::_computeNodeUid Pages: 1 -->
<svg width="360pt" height="197pt"
 viewBox="0.00 0.00 360.00 197.00" xmlns="http://www.w3.org/2000/svg" xmlns:xlink="http://www.w3.org/1999/xlink">

<svg id="main" version="1.1" xmlns="http://www.w3.org/2000/svg" xmlns:xlink="http://www.w3.org/1999/xlink" xml:space="preserve">

<style type="text/css"><![CDATA[
.node, .edge {opacity: 0.7;}
.node.selected, .edge.selected {opacity: 1;}
.edge:hover path { stroke: red; }
.edge:hover polygon { stroke: red; fill: red; }
]]></style>
<script type="application/ecmascript" xlink:href="../../svg.min.js"/>
<svg id="graph" class="graph">
<g id="graph0" class="graph" transform="scale(1 1) rotate(0) translate(4 193.12)">
<title>Arcane::ArcaneBasicMeshSubdividerService::_computeNodeUid</title>
<!-- Node1 -->
<g id="Node000001" class="node">
<title>Node1</title>
<g id="a_Node000001"><a xlink:title="Calcule le unique id en fonction des noeuds de node_uid.">
<polygon fill="#999999" stroke="#666666" points="193.75,-117.5 0,-117.5 0,-84 193.75,-84 193.75,-117.5"/>
<text xml:space="preserve" text-anchor="start" x="8" y="-104" font-family="Helvetica,sans-Serif" font-size="10.00">Arcane::ArcaneBasicMeshSubdivider</text>
<text xml:space="preserve" text-anchor="middle" x="96.88" y="-91.25" font-family="Helvetica,sans-Serif" font-size="10.00">Service::_computeNodeUid</text>
</a>
</g>
</g>
<!-- Node2 -->
<g id="Node000002" class="node">
<title>Node2</title>
<g id="a_Node000002"><a xlink:href="../../d1/dfb/classArcane_1_1Array.html#afb30a771d3fd8022c7220afe7b78e60b" target="_top" xlink:title="Ajoute l&#39;élément val à la fin du tableau.">
<polygon fill="white" stroke="#666666" points="343.62,-189.12 238.38,-189.12 238.38,-168.38 343.62,-168.38 343.62,-189.12"/>
<text xml:space="preserve" text-anchor="middle" x="291" y="-175.62" font-family="Helvetica,sans-Serif" font-size="10.00">Arcane::Array::add</text>
</a>
</g>
</g>
<!-- Node1&#45;&gt;Node2 -->
<g id="edge1_Node000001_Node000002" class="edge">
<title>Node1&#45;&gt;Node2</title>
<g id="a_edge1_Node000001_Node000002"><a xlink:title=" ">
<path fill="none" stroke="#63b8ff" d="M134.44,-117.94C160.69,-130 197.07,-146.17 229.75,-158.75 234.51,-160.58 239.51,-162.4 244.52,-164.16"/>
<polygon fill="#63b8ff" stroke="#63b8ff" points="243.37,-167.46 253.96,-167.39 245.63,-160.84 243.37,-167.46"/>
</a>
</g>
</g>
<!-- Node3 -->
<g id="Node000003" class="node">
<title>Node3</title>
<g id="a_Node000003"><a xlink:href="../../d1/dfb/classArcane_1_1Array.html#ac2a32c4b35c8e4b788f7afbfc2e4de88" target="_top" xlink:title="Itérateur sur le premier élément du tableau.">
<polygon fill="white" stroke="#666666" points="348.12,-150.12 233.88,-150.12 233.88,-129.38 348.12,-129.38 348.12,-150.12"/>
<text xml:space="preserve" text-anchor="middle" x="291" y="-136.62" font-family="Helvetica,sans-Serif" font-size="10.00">Arcane::Array::begin</text>
</a>
</g>
</g>
<!-- Node1&#45;&gt;Node3 -->
<g id="edge2_Node000001_Node000003" class="edge">
<title>Node1&#45;&gt;Node3</title>
<g id="a_edge2_Node000001_Node000003"><a xlink:title=" ">
<path fill="none" stroke="#63b8ff" d="M182.7,-117.97C197,-120.87 211.63,-123.84 225.3,-126.62"/>
<polygon fill="#63b8ff" stroke="#63b8ff" points="224.56,-130.04 235.06,-128.6 225.95,-123.18 224.56,-130.04"/>
</a>
</g>
</g>
<!-- Node4 -->
<g id="Node000004" class="node">
<title>Node4</title>
<g id="a_Node000004"><a xlink:href="../../d1/dfb/classArcane_1_1Array.html#a1617b731800281b33e608a6327ff37ec" target="_top" xlink:title="Itérateur sur le premier élément après la fin du tableau.">
<polygon fill="white" stroke="#666666" points="343.62,-111.12 238.38,-111.12 238.38,-90.38 343.62,-90.38 343.62,-111.12"/>
<text xml:space="preserve" text-anchor="middle" x="291" y="-97.62" font-family="Helvetica,sans-Serif" font-size="10.00">Arcane::Array::end</text>
</a>
</g>
</g>
<!-- Node1&#45;&gt;Node4 -->
<g id="edge3_Node000001_Node000004" class="edge">
<title>Node1&#45;&gt;Node4</title>
<g id="a_edge3_Node000001_Node000004"><a xlink:title=" ">
<path fill="none" stroke="#63b8ff" d="M194.22,-100.75C205.17,-100.75 216.12,-100.75 226.49,-100.75"/>
<polygon fill="#63b8ff" stroke="#63b8ff" points="226.42,-104.25 236.42,-100.75 226.41,-97.25 226.42,-104.25"/>
</a>
</g>
</g>
<!-- Node5 -->
<g id="Node000005" class="node">
<title>Node5</title>
<g id="a_Node000005"><a xlink:href="../../d1/dfb/classArcane_1_1Array.html#a31fc5b4bd79b4f6e4a011735d33b1818" target="_top" xlink:title="Change le nombre d&#39;éléments du tableau à s.">
<polygon fill="white" stroke="#666666" points="349.25,-72.12 232.75,-72.12 232.75,-51.38 349.25,-51.38 349.25,-72.12"/>
<text xml:space="preserve" text-anchor="middle" x="291" y="-58.62" font-family="Helvetica,sans-Serif" font-size="10.00">Arcane::Array::resize</text>
</a>
</g>
</g>
<!-- Node1&#45;&gt;Node5 -->
<g id="edge4_Node000001_Node000005" class="edge">
<title>Node1&#45;&gt;Node5</title>
<g id="a_edge4_Node000001_Node000005"><a xlink:title=" ">
<path fill="none" stroke="#63b8ff" d="M182.7,-83.53C197,-80.63 211.63,-77.66 225.3,-74.88"/>
<polygon fill="#63b8ff" stroke="#63b8ff" points="225.95,-78.32 235.06,-72.9 224.56,-71.46 225.95,-78.32"/>
</a>
</g>
</g>
<!-- Node6 -->
<g id="Node000006" class="node">
<title>Node6</title>
<g id="a_Node000006"><a xlink:href="../../d5/d72/classArcane_1_1AbstractArray.html#a462e7632cf9664d773016bc972bed483" target="_top" xlink:title="Nombre d&#39;éléments du vecteur.">
<polygon fill="white" stroke="#666666" points="352.25,-33.5 229.75,-33.5 229.75,0 352.25,0 352.25,-33.5"/>
<text xml:space="preserve" text-anchor="start" x="237.75" y="-20" font-family="Helvetica,sans-Serif" font-size="10.00">Arcane::AbstractArray</text>
<text xml:space="preserve" text-anchor="middle" x="291" y="-7.25" font-family="Helvetica,sans-Serif" font-size="10.00">::size</text>
</a>
</g>
</g>
<!-- Node1&#45;&gt;Node6 -->
<g id="edge5_Node000001_Node000006" class="edge">
<title>Node1&#45;&gt;Node6</title>
<g id="a_edge5_Node000001_Node000006"><a xlink:title=" ">
<path fill="none" stroke="#63b8ff" d="M136.79,-83.55C163.04,-71.97 198.45,-56.39 229.75,-42.75 233.04,-41.32 236.43,-39.84 239.85,-38.36"/>
<polygon fill="#63b8ff" stroke="#63b8ff" points="240.95,-41.7 248.73,-34.51 238.16,-35.28 240.95,-41.7"/>
</a>
</g>
</g>
</g>
</svg>
</svg>

<style type='text/css'>
<![CDATA[
[data-mouse-over-selected='false'] { opacity: 0.7; }
[data-mouse-over-selected='true']  { opacity: 1.0; }
]]>
</style>
<script type="application/ecmascript"><![CDATA[
document.addEventListener('DOMContentLoaded', (event) => {
  highlightEdges();
  highlightAdjacentNodes();
});
]]></script>
</svg>
