<?xml version="1.0" encoding="UTF-8" standalone="no"?>
<!DOCTYPE svg PUBLIC "-//W3C//DTD SVG 1.1//EN"
 "http://www.w3.org/Graphics/SVG/1.1/DTD/svg11.dtd">
<!-- Generated by graphviz version 2.43.0 (0)
 -->
<!-- Title: internal::Hasher&lt; Encoding, Allocator &gt;::Number Pages: 1 -->
<svg width="155pt" height="190pt"
 viewBox="0.00 0.00 155.00 190.00" xmlns="http://www.w3.org/2000/svg" xmlns:xlink="http://www.w3.org/1999/xlink">

<svg id="main" version="1.1" xmlns="http://www.w3.org/2000/svg" xmlns:xlink="http://www.w3.org/1999/xlink" xml:space="preserve">

<style type="text/css"><![CDATA[
.node, .edge {opacity: 0.7;}
.node.selected, .edge.selected {opacity: 1;}
.edge:hover path { stroke: red; }
.edge:hover polygon { stroke: red; fill: red; }
]]></style>
<script type="application/ecmascript" xlink:href="../../svg.min.js"/>
<svg id="graph" class="graph">
<g id="graph0" class="graph" transform="scale(1 1) rotate(0) translate(4 186)">
<title>internal::Hasher&lt; Encoding, Allocator &gt;::Number</title>
<!-- Node1 -->
<g id="Node000001" class="node">
<title>Node1</title>
<g id="a_Node000001"><a xlink:title=" ">
<polygon fill="#999999" stroke="transparent" points="147,-60 0,-60 0,0 147,0 147,-60"/>
<text text-anchor="start" x="5.5" y="-48" font-family="Helvetica,sans-Serif" font-size="10.00">internal::Hasher&lt; Encoding,</text>
<text text-anchor="start" x="22.5" y="-37" font-family="Helvetica,sans-Serif" font-size="10.00"> Allocator &gt;::Number</text>
<text text-anchor="start" x="34" y="-22" font-family="Helvetica,sans-Serif" font-size="10.00">+</text>
<text text-anchor="start" x="76.5" y="-22" font-family="Helvetica,sans-Serif" font-size="10.00">d</text>
<text text-anchor="start" x="72" y="-7" font-family="Helvetica,sans-Serif" font-size="10.00"> </text>
<polygon fill="#666666" stroke="#666666" points="0.5,-32 0.5,-32 147.5,-32 147.5,-32 0.5,-32"/>
<polygon fill="#666666" stroke="#666666" points="0.5,-17 0.5,-17 74.5,-17 74.5,-17 0.5,-17"/>
<polygon fill="#666666" stroke="#666666" points="74.5,-17 74.5,-17 147.5,-17 147.5,-17 74.5,-17"/>
<polygon fill="none" stroke="#666666" points="0,0 0,-60 147,-60 147,0 0,0"/>
</a>
</g>
</g>
<!-- Node2 -->
<g id="Node000002" class="node">
<title>Node2</title>
<g id="a_Node000002"><a xlink:href="../../d6/dd0/unioninternal_1_1Hasher_1_1Number_1_1U.html" target="_top" xlink:title=" ">
<polygon fill="white" stroke="transparent" points="147,-182 0,-182 0,-107 147,-107 147,-182"/>
<text text-anchor="start" x="5.5" y="-169.5" font-family="Helvetica,sans-Serif" font-size="10.00">internal::Hasher&lt; Encoding,</text>
<text text-anchor="start" x="15.5" y="-158.5" font-family="Helvetica,sans-Serif" font-size="10.00"> Allocator &gt;::Number::U</text>
<text text-anchor="start" x="34" y="-143.5" font-family="Helvetica,sans-Serif" font-size="10.00">+</text>
<text text-anchor="start" x="76.5" y="-143.5" font-family="Helvetica,sans-Serif" font-size="10.00">u</text>
<text text-anchor="start" x="34" y="-128.5" font-family="Helvetica,sans-Serif" font-size="10.00">+</text>
<text text-anchor="start" x="76.5" y="-128.5" font-family="Helvetica,sans-Serif" font-size="10.00">i</text>
<text text-anchor="start" x="72" y="-113.5" font-family="Helvetica,sans-Serif" font-size="10.00"> </text>
<polygon fill="#bfbfbf" stroke="#bfbfbf" points="0.5,-153.5 0.5,-153.5 147.5,-153.5 147.5,-153.5 0.5,-153.5"/>
<polygon fill="#bfbfbf" stroke="#bfbfbf" points="0.5,-123.5 0.5,-123.5 74.5,-123.5 74.5,-123.5 0.5,-123.5"/>
<polygon fill="#bfbfbf" stroke="#bfbfbf" points="74.5,-123.5 74.5,-123.5 147.5,-123.5 147.5,-123.5 74.5,-123.5"/>
<polygon fill="none" stroke="#bfbfbf" points="0,-107 0,-182 147,-182 147,-107 0,-107"/>
</a>
</g>
</g>
<!-- Node2&#45;&gt;Node1 -->
<g id="edge1_Node000001_Node000002" class="edge">
<title>Node2&#45;&gt;Node1</title>
<g id="a_edge1_Node000001_Node000002"><a xlink:title=" ">
<path fill="none" stroke="#63b8ff" d="M73.5,-106.97C73.5,-95.97 73.5,-83.82 73.5,-72.52"/>
<polygon fill="none" stroke="#63b8ff" points="73.5,-72.23 69.5,-66.23 73.5,-60.23 77.5,-66.23 73.5,-72.23"/>
</a>
</g>
<text text-anchor="middle" x="82.5" y="-81" font-family="Helvetica,sans-Serif" font-size="10.00" fill="grey"> +u</text>
</g>
</g>
</svg>
</svg>

<style type='text/css'>
<![CDATA[
[data-mouse-over-selected='false'] { opacity: 0.7; }
[data-mouse-over-selected='true']  { opacity: 1.0; }
]]>
</style>
<script type="application/ecmascript"><![CDATA[
document.addEventListener('DOMContentLoaded', (event) => {
  highlightEdges();
  highlightAdjacentNodes();
});
]]></script>
</svg>
