<?xml version="1.0" encoding="UTF-8" standalone="no"?>
<!DOCTYPE svg PUBLIC "-//W3C//DTD SVG 1.1//EN"
 "http://www.w3.org/Graphics/SVG/1.1/DTD/svg11.dtd">
<!-- Generated by graphviz version 2.43.0 (0)
 -->
<!-- Title: Arcane::IDataSynchronizeBuffer::copyReceiveAsync Pages: 1 -->
<svg width="329pt" height="38pt"
 viewBox="0.00 0.00 329.00 38.00" xmlns="http://www.w3.org/2000/svg" xmlns:xlink="http://www.w3.org/1999/xlink">
<g id="graph0" class="graph" transform="scale(1 1) rotate(0) translate(4 34)">
<title>Arcane::IDataSynchronizeBuffer::copyReceiveAsync</title>
<!-- Node1 -->
<g id="Node000001" class="node">
<title>Node1</title>
<g id="a_Node000001"><a xlink:title="Recopie dans les données depuis le buffer de réception du index&#45;ème rang.">
<polygon fill="#999999" stroke="#666666" points="321,-30 178,-30 178,0 321,0 321,-30"/>
<text text-anchor="start" x="186" y="-18" font-family="Helvetica,sans-Serif" font-size="10.00">Arcane::IDataSynchronize</text>
<text text-anchor="middle" x="249.5" y="-7" font-family="Helvetica,sans-Serif" font-size="10.00">Buffer::copyReceiveAsync</text>
</a>
</g>
</g>
<!-- Node2 -->
<g id="Node000002" class="node">
<title>Node2</title>
<g id="a_Node000002"><a xlink:href="../../d8/d86/classArcane_1_1IDataSynchronizeBuffer.html#a61da95f308cd4cd569df90447d3835f2" target="_top" xlink:title="Recopie toutes les données depuis le buffer de réception.">
<polygon fill="white" stroke="#666666" points="142,-30 0,-30 0,0 142,0 142,-30"/>
<text text-anchor="start" x="8" y="-18" font-family="Helvetica,sans-Serif" font-size="10.00">Arcane::IDataSynchronize</text>
<text text-anchor="middle" x="71" y="-7" font-family="Helvetica,sans-Serif" font-size="10.00">Buffer::copyAllReceive</text>
</a>
</g>
</g>
<!-- Node1&#45;&gt;Node2 -->
<g id="edge1_Node000001_Node000002" class="edge">
<title>Node1&#45;&gt;Node2</title>
<g id="a_edge1_Node000001_Node000002"><a xlink:title=" ">
<path fill="none" stroke="#63b8ff" d="M167.93,-8.27C159.31,-8.22 150.6,-8.26 142.12,-8.38"/>
<polygon fill="#63b8ff" stroke="#63b8ff" points="167.95,-11.77 177.98,-8.37 168.02,-4.77 167.95,-11.77"/>
</a>
</g>
</g>
<!-- Node2&#45;&gt;Node1 -->
<g id="edge2_Node000002_Node000001" class="edge">
<title>Node2&#45;&gt;Node1</title>
<g id="a_edge2_Node000002_Node000001"><a xlink:title=" ">
<path fill="none" stroke="#63b8ff" d="M152.16,-21.72C160.78,-21.78 169.49,-21.75 177.98,-21.63"/>
<polygon fill="#63b8ff" stroke="#63b8ff" points="152.15,-18.22 142.12,-21.62 152.08,-25.22 152.15,-18.22"/>
</a>
</g>
</g>
</g>
</svg>
