<?xml version="1.0" encoding="UTF-8" standalone="no"?>
<!DOCTYPE svg PUBLIC "-//W3C//DTD SVG 1.1//EN"
 "http://www.w3.org/Graphics/SVG/1.1/DTD/svg11.dtd">
<!-- Generated by graphviz version 14.1.2 (0)
 -->
<!-- Title: Arcane::Alina::ConjugateGradientSolver&lt; Backend_, InnerProduct &gt; Pages: 1 -->
<svg width="158pt" height="362pt"
 viewBox="0.00 0.00 158.00 362.00" xmlns="http://www.w3.org/2000/svg" xmlns:xlink="http://www.w3.org/1999/xlink">
<g id="graph0" class="graph" transform="scale(1 1) rotate(0) translate(4 358.25)">
<title>Arcane::Alina::ConjugateGradientSolver&lt; Backend_, InnerProduct &gt;</title>
<!-- Node1 -->
<g id="Node000001" class="node">
<title>Node1</title>
<g id="a_Node000001"><a xlink:title="Conjugate Gradients solver.">
<polygon fill="#999999" stroke="none" points="150,-247.25 0,-247.25 0,0 150,0 150,-247.25"/>
<text xml:space="preserve" text-anchor="start" x="12.38" y="-233.75" font-family="Helvetica,sans-Serif" font-size="10.00">Arcane::Alina::Conjugate</text>
<text xml:space="preserve" text-anchor="start" x="12.38" y="-221" font-family="Helvetica,sans-Serif" font-size="10.00">GradientSolver&lt; Backend</text>
<text xml:space="preserve" text-anchor="start" x="33" y="-208.25" font-family="Helvetica,sans-Serif" font-size="10.00">_, InnerProduct &gt;</text>
<text xml:space="preserve" text-anchor="start" x="4" y="-191.5" font-family="Helvetica,sans-Serif" font-size="10.00">+</text>
<text xml:space="preserve" text-anchor="start" x="16.25" y="-191.5" font-family="Helvetica,sans-Serif" font-size="10.00">prm</text>
<text xml:space="preserve" text-anchor="start" x="6.25" y="-174.75" font-family="Helvetica,sans-Serif" font-size="10.00">&#45;</text>
<text xml:space="preserve" text-anchor="start" x="16.25" y="-174.75" font-family="Helvetica,sans-Serif" font-size="10.00">n</text>
<text xml:space="preserve" text-anchor="start" x="6.25" y="-158" font-family="Helvetica,sans-Serif" font-size="10.00">&#45;</text>
<text xml:space="preserve" text-anchor="start" x="16.25" y="-158" font-family="Helvetica,sans-Serif" font-size="10.00">r</text>
<text xml:space="preserve" text-anchor="start" x="6.25" y="-141.25" font-family="Helvetica,sans-Serif" font-size="10.00">&#45;</text>
<text xml:space="preserve" text-anchor="start" x="16.25" y="-141.25" font-family="Helvetica,sans-Serif" font-size="10.00">s</text>
<text xml:space="preserve" text-anchor="start" x="6.25" y="-124.5" font-family="Helvetica,sans-Serif" font-size="10.00">&#45;</text>
<text xml:space="preserve" text-anchor="start" x="16.25" y="-124.5" font-family="Helvetica,sans-Serif" font-size="10.00">p</text>
<text xml:space="preserve" text-anchor="start" x="6.25" y="-107.75" font-family="Helvetica,sans-Serif" font-size="10.00">&#45;</text>
<text xml:space="preserve" text-anchor="start" x="16.25" y="-107.75" font-family="Helvetica,sans-Serif" font-size="10.00">q</text>
<text xml:space="preserve" text-anchor="start" x="6.25" y="-91" font-family="Helvetica,sans-Serif" font-size="10.00">&#45;</text>
<text xml:space="preserve" text-anchor="start" x="16.25" y="-91" font-family="Helvetica,sans-Serif" font-size="10.00">inner_product</text>
<text xml:space="preserve" text-anchor="start" x="4" y="-74.25" font-family="Helvetica,sans-Serif" font-size="10.00">+</text>
<text xml:space="preserve" text-anchor="start" x="16.25" y="-74.25" font-family="Helvetica,sans-Serif" font-size="10.00">ConjugateGradientSolver()</text>
<text xml:space="preserve" text-anchor="start" x="4" y="-57.5" font-family="Helvetica,sans-Serif" font-size="10.00">+</text>
<text xml:space="preserve" text-anchor="start" x="16.25" y="-57.5" font-family="Helvetica,sans-Serif" font-size="10.00">operator()()</text>
<text xml:space="preserve" text-anchor="start" x="4" y="-40.75" font-family="Helvetica,sans-Serif" font-size="10.00">+</text>
<text xml:space="preserve" text-anchor="start" x="16.25" y="-40.75" font-family="Helvetica,sans-Serif" font-size="10.00">operator()()</text>
<text xml:space="preserve" text-anchor="start" x="4" y="-24" font-family="Helvetica,sans-Serif" font-size="10.00">+</text>
<text xml:space="preserve" text-anchor="start" x="16.25" y="-24" font-family="Helvetica,sans-Serif" font-size="10.00">bytes()</text>
<text xml:space="preserve" text-anchor="start" x="6.25" y="-7.25" font-family="Helvetica,sans-Serif" font-size="10.00">&#45;</text>
<text xml:space="preserve" text-anchor="start" x="16.25" y="-7.25" font-family="Helvetica,sans-Serif" font-size="10.00">norm()</text>
<polygon fill="#666666" stroke="#666666" points="0,-203 0,-203 150,-203 150,-203 0,-203"/>
<polygon fill="#666666" stroke="#666666" points="0,-85.75 0,-85.75 14.25,-85.75 14.25,-85.75 0,-85.75"/>
<polygon fill="#666666" stroke="#666666" points="14.25,-85.75 14.25,-85.75 150,-85.75 150,-85.75 14.25,-85.75"/>
<polygon fill="none" stroke="#666666" points="0,0 0,-247.25 150,-247.25 150,0 0,0"/>
</a>
</g>
</g>
<!-- Node2 -->
<g id="Node000002" class="node">
<title>Node2</title>
<g id="a_Node000002"><a xlink:href="../../d0/def/classArcane_1_1Alina_1_1SolverBase.html" target="_top" xlink:title="Base class for solvers.">
<polygon fill="white" stroke="none" points="141.62,-354.25 8.38,-354.25 8.38,-283.25 141.62,-283.25 141.62,-354.25"/>
<text xml:space="preserve" text-anchor="start" x="12.38" y="-340.75" font-family="Helvetica,sans-Serif" font-size="10.00">Arcane::Alina::SolverBase</text>
<text xml:space="preserve" text-anchor="start" x="73.5" y="-324" font-family="Helvetica,sans-Serif" font-size="10.00"> </text>
<text xml:space="preserve" text-anchor="start" x="23" y="-307.25" font-family="Helvetica,sans-Serif" font-size="10.00">+</text>
<text xml:space="preserve" text-anchor="start" x="45.88" y="-307.25" font-family="Helvetica,sans-Serif" font-size="10.00">~SolverBase()</text>
<text xml:space="preserve" text-anchor="start" x="23" y="-290.5" font-family="Helvetica,sans-Serif" font-size="10.00">+</text>
<text xml:space="preserve" text-anchor="start" x="45.88" y="-290.5" font-family="Helvetica,sans-Serif" font-size="10.00">bytes()</text>
<polygon fill="#666666" stroke="#666666" points="8.38,-335.5 8.38,-335.5 141.62,-335.5 141.62,-335.5 8.38,-335.5"/>
<polygon fill="#666666" stroke="#666666" points="8.38,-318.75 8.38,-318.75 141.62,-318.75 141.62,-318.75 8.38,-318.75"/>
<polygon fill="none" stroke="#666666" points="8.38,-283.25 8.38,-354.25 141.62,-354.25 141.62,-283.25 8.38,-283.25"/>
</a>
</g>
</g>
<!-- Node2&#45;&gt;Node1 -->
<g id="edge1_Node000001_Node000002" class="edge">
<title>Node2&#45;&gt;Node1</title>
<g id="a_edge1_Node000001_Node000002"><a xlink:title=" ">
<path fill="none" stroke="#63b8ff" d="M75,-272.3C75,-264.46 75,-255.98 75,-247.2"/>
<polygon fill="none" stroke="#63b8ff" points="71.5,-272.15 75,-282.15 78.5,-272.15 71.5,-272.15"/>
</a>
</g>
</g>
</g>
</svg>
