<?xml version="1.0" encoding="UTF-8" standalone="no"?>
<!DOCTYPE svg PUBLIC "-//W3C//DTD SVG 1.1//EN"
 "http://www.w3.org/Graphics/SVG/1.1/DTD/svg11.dtd">
<!-- Generated by graphviz version 2.43.0 (0)
 -->
<!-- Title: Arcane::Accelerator::HostWorkItem&lt; IndexType_ &gt; Pages: 1 -->
<svg width="172pt" height="128pt"
 viewBox="0.00 0.00 172.00 128.00" xmlns="http://www.w3.org/2000/svg" xmlns:xlink="http://www.w3.org/1999/xlink">
<g id="graph0" class="graph" transform="scale(1 1) rotate(0) translate(4 124)">
<title>Arcane::Accelerator::HostWorkItem&lt; IndexType_ &gt;</title>
<!-- Node1 -->
<g id="Node000001" class="node">
<title>Node1</title>
<g id="a_Node000001"><a xlink:title="Gère pour l&#39;hôte un WorkItem dans un WorkGroupLoopRange ou CooperativeWorkGroupLoopRange.">
<polygon fill="#999999" stroke="transparent" points="164,-120 0,-120 0,0 164,0 164,-120"/>
<text text-anchor="start" x="5" y="-108" font-family="Helvetica,sans-Serif" font-size="10.00">Arcane::Accelerator</text>
<text text-anchor="start" x="5" y="-97" font-family="Helvetica,sans-Serif" font-size="10.00">::HostWorkItem&lt; IndexType_ &gt;</text>
<text text-anchor="start" x="19.5" y="-82" font-family="Helvetica,sans-Serif" font-size="10.00">&#45;</text>
<text text-anchor="start" x="43" y="-82" font-family="Helvetica,sans-Serif" font-size="10.00">m_loop_index</text>
<text text-anchor="start" x="19.5" y="-67" font-family="Helvetica,sans-Serif" font-size="10.00">&#45;</text>
<text text-anchor="start" x="43" y="-67" font-family="Helvetica,sans-Serif" font-size="10.00">m_nb_active_item</text>
<text text-anchor="start" x="17" y="-52" font-family="Helvetica,sans-Serif" font-size="10.00">+</text>
<text text-anchor="start" x="43" y="-52" font-family="Helvetica,sans-Serif" font-size="10.00">rankInBlock()</text>
<text text-anchor="start" x="17" y="-37" font-family="Helvetica,sans-Serif" font-size="10.00">+</text>
<text text-anchor="start" x="43" y="-37" font-family="Helvetica,sans-Serif" font-size="10.00">linearIndexes()</text>
<text text-anchor="start" x="17" y="-22" font-family="Helvetica,sans-Serif" font-size="10.00">+</text>
<text text-anchor="start" x="43" y="-22" font-family="Helvetica,sans-Serif" font-size="10.00">isDevice()</text>
<text text-anchor="start" x="19.5" y="-7" font-family="Helvetica,sans-Serif" font-size="10.00">&#45;</text>
<text text-anchor="start" x="43" y="-7" font-family="Helvetica,sans-Serif" font-size="10.00">HostWorkItem()</text>
<polygon fill="#666666" stroke="#666666" points="0,-92 0,-92 164,-92 164,-92 0,-92"/>
<polygon fill="#666666" stroke="#666666" points="0,-62 0,-62 41,-62 41,-62 0,-62"/>
<polygon fill="#666666" stroke="#666666" points="41,-62 41,-62 164,-62 164,-62 41,-62"/>
<polygon fill="none" stroke="#666666" points="0,0 0,-120 164,-120 164,0 0,0"/>
</a>
</g>
</g>
</g>
</svg>
