<?xml version="1.0" encoding="UTF-8" standalone="no"?>
<!DOCTYPE svg PUBLIC "-//W3C//DTD SVG 1.1//EN"
 "http://www.w3.org/Graphics/SVG/1.1/DTD/svg11.dtd">
<!-- Generated by graphviz version 2.43.0 (0)
 -->
<!-- Title: AlinaSequentialSolver Pages: 1 -->
<svg width="199pt" height="587pt"
 viewBox="0.00 0.00 199.00 587.00" xmlns="http://www.w3.org/2000/svg" xmlns:xlink="http://www.w3.org/1999/xlink">
<g id="graph0" class="graph" transform="scale(1 1) rotate(0) translate(4 583)">
<title>AlinaSequentialSolver</title>
<!-- Node1 -->
<g id="Node000001" class="node">
<title>Node1</title>
<g id="a_Node000001"><a xlink:title=" ">
<polygon fill="#999999" stroke="transparent" points="168,-64 23,-64 23,0 168,0 168,-64"/>
<text text-anchor="start" x="42" y="-52" font-family="Helvetica,sans-Serif" font-size="10.00">AlinaSequentialSolver</text>
<text text-anchor="start" x="94" y="-37" font-family="Helvetica,sans-Serif" font-size="10.00"> </text>
<text text-anchor="start" x="27.5" y="-22" font-family="Helvetica,sans-Serif" font-size="10.00">+</text>
<text text-anchor="start" x="40.5" y="-22" font-family="Helvetica,sans-Serif" font-size="10.00">AlinaSequentialSolver()</text>
<text text-anchor="start" x="27.5" y="-7" font-family="Helvetica,sans-Serif" font-size="10.00">+</text>
<text text-anchor="start" x="40.5" y="-7" font-family="Helvetica,sans-Serif" font-size="10.00">~AlinaSequentialSolver()</text>
<polygon fill="#666666" stroke="#666666" points="23.5,-47 23.5,-47 168.5,-47 168.5,-47 23.5,-47"/>
<polygon fill="#666666" stroke="#666666" points="23.5,-32 23.5,-32 168.5,-32 168.5,-32 23.5,-32"/>
<polygon fill="none" stroke="#666666" points="23,0 23,-64 168,-64 168,0 23,0"/>
</a>
</g>
</g>
<!-- Node2 -->
<g id="Node000002" class="node">
<title>Node2</title>
<g id="a_Node000002"><a xlink:href="../../d1/da2/classArcane_1_1Alina_1_1PreconditionedSolver.html" target="_top" xlink:title=" ">
<polygon fill="white" stroke="transparent" points="191,-437 0,-437 0,-111 191,-111 191,-437"/>
<text text-anchor="start" x="5.5" y="-425" font-family="Helvetica,sans-Serif" font-size="10.00">Arcane::Alina::Preconditioned</text>
<text text-anchor="start" x="5.5" y="-414" font-family="Helvetica,sans-Serif" font-size="10.00">Solver&lt; PreconditionerType,</text>
<text text-anchor="start" x="5.5" y="-403" font-family="Helvetica,sans-Serif" font-size="10.00"> Alina::SolverRuntime&lt; Backend &gt; &gt;</text>
<text text-anchor="start" x="19" y="-388" font-family="Helvetica,sans-Serif" font-size="10.00">+</text>
<text text-anchor="start" x="46.5" y="-388" font-family="Helvetica,sans-Serif" font-size="10.00">prm</text>
<text text-anchor="start" x="19" y="-373" font-family="Helvetica,sans-Serif" font-size="10.00">+</text>
<text text-anchor="start" x="46.5" y="-373" font-family="Helvetica,sans-Serif" font-size="10.00">prm</text>
<text text-anchor="start" x="21.5" y="-358" font-family="Helvetica,sans-Serif" font-size="10.00">&#45;</text>
<text text-anchor="start" x="46.5" y="-358" font-family="Helvetica,sans-Serif" font-size="10.00">n</text>
<text text-anchor="start" x="21.5" y="-343" font-family="Helvetica,sans-Serif" font-size="10.00">&#45;</text>
<text text-anchor="start" x="46.5" y="-343" font-family="Helvetica,sans-Serif" font-size="10.00">P</text>
<text text-anchor="start" x="21.5" y="-328" font-family="Helvetica,sans-Serif" font-size="10.00">&#45;</text>
<text text-anchor="start" x="46.5" y="-328" font-family="Helvetica,sans-Serif" font-size="10.00">S</text>
<text text-anchor="start" x="21.5" y="-313" font-family="Helvetica,sans-Serif" font-size="10.00">&#45;</text>
<text text-anchor="start" x="46.5" y="-313" font-family="Helvetica,sans-Serif" font-size="10.00">n</text>
<text text-anchor="start" x="21.5" y="-298" font-family="Helvetica,sans-Serif" font-size="10.00">&#45;</text>
<text text-anchor="start" x="46.5" y="-298" font-family="Helvetica,sans-Serif" font-size="10.00">P</text>
<text text-anchor="start" x="21.5" y="-283" font-family="Helvetica,sans-Serif" font-size="10.00">&#45;</text>
<text text-anchor="start" x="46.5" y="-283" font-family="Helvetica,sans-Serif" font-size="10.00">S</text>
<text text-anchor="start" x="19" y="-268" font-family="Helvetica,sans-Serif" font-size="10.00">+</text>
<text text-anchor="start" x="46.5" y="-268" font-family="Helvetica,sans-Serif" font-size="10.00">PreconditionedSolver()</text>
<text text-anchor="start" x="19" y="-253" font-family="Helvetica,sans-Serif" font-size="10.00">+</text>
<text text-anchor="start" x="46.5" y="-253" font-family="Helvetica,sans-Serif" font-size="10.00">PreconditionedSolver()</text>
<text text-anchor="start" x="19" y="-238" font-family="Helvetica,sans-Serif" font-size="10.00">+</text>
<text text-anchor="start" x="46.5" y="-238" font-family="Helvetica,sans-Serif" font-size="10.00">operator()()</text>
<text text-anchor="start" x="19" y="-223" font-family="Helvetica,sans-Serif" font-size="10.00">+</text>
<text text-anchor="start" x="46.5" y="-223" font-family="Helvetica,sans-Serif" font-size="10.00">operator()()</text>
<text text-anchor="start" x="19" y="-208" font-family="Helvetica,sans-Serif" font-size="10.00">+</text>
<text text-anchor="start" x="46.5" y="-208" font-family="Helvetica,sans-Serif" font-size="10.00">apply()</text>
<text text-anchor="start" x="19" y="-193" font-family="Helvetica,sans-Serif" font-size="10.00">+</text>
<text text-anchor="start" x="46.5" y="-193" font-family="Helvetica,sans-Serif" font-size="10.00">precond()</text>
<text text-anchor="start" x="19" y="-178" font-family="Helvetica,sans-Serif" font-size="10.00">+</text>
<text text-anchor="start" x="46.5" y="-178" font-family="Helvetica,sans-Serif" font-size="10.00">precond()</text>
<text text-anchor="start" x="19" y="-163" font-family="Helvetica,sans-Serif" font-size="10.00">+</text>
<text text-anchor="start" x="46.5" y="-163" font-family="Helvetica,sans-Serif" font-size="10.00">solver()</text>
<text text-anchor="start" x="19" y="-148" font-family="Helvetica,sans-Serif" font-size="10.00">+</text>
<text text-anchor="start" x="46.5" y="-148" font-family="Helvetica,sans-Serif" font-size="10.00">solver()</text>
<text text-anchor="start" x="19" y="-133" font-family="Helvetica,sans-Serif" font-size="10.00">+</text>
<text text-anchor="start" x="46.5" y="-133" font-family="Helvetica,sans-Serif" font-size="10.00">system_matrix_ptr()</text>
<text text-anchor="start" x="46.5" y="-118" font-family="Helvetica,sans-Serif" font-size="10.00">et 18 de plus...</text>
<polygon fill="#666666" stroke="#666666" points="0.5,-398 0.5,-398 191.5,-398 191.5,-398 0.5,-398"/>
<polygon fill="#666666" stroke="#666666" points="0.5,-278 0.5,-278 44.5,-278 44.5,-278 0.5,-278"/>
<polygon fill="#666666" stroke="#666666" points="44.5,-278 44.5,-278 191.5,-278 191.5,-278 44.5,-278"/>
<polygon fill="none" stroke="#666666" points="0,-111 0,-437 191,-437 191,-111 0,-111"/>
</a>
</g>
</g>
<!-- Node2&#45;&gt;Node1 -->
<g id="edge1_Node000001_Node000002" class="edge">
<title>Node2&#45;&gt;Node1</title>
<g id="a_edge1_Node000001_Node000002"><a xlink:title=" ">
<path fill="none" stroke="#63b8ff" d="M95.5,-110.92C95.5,-98.47 95.5,-86.71 95.5,-76.28"/>
<polygon fill="none" stroke="#63b8ff" points="95.5,-76.27 91.5,-70.27 95.5,-64.27 99.5,-70.27 95.5,-76.27"/>
</a>
</g>
<text text-anchor="middle" x="124" y="-85" font-family="Helvetica,sans-Serif" font-size="10.00" fill="grey"> +m_solver</text>
</g>
<!-- Node3 -->
<g id="Node000003" class="node">
<title>Node3</title>
<g id="a_Node000003"><a xlink:href="../../d6/d28/classArcane_1_1Alina_1_1detail_1_1non__copyable.html" target="_top" xlink:title=" ">
<polygon fill="white" stroke="transparent" points="150,-579 41,-579 41,-474 150,-474 150,-579"/>
<text text-anchor="start" x="46.5" y="-566.5" font-family="Helvetica,sans-Serif" font-size="10.00">Arcane::Alina::detail</text>
<text text-anchor="start" x="59" y="-555.5" font-family="Helvetica,sans-Serif" font-size="10.00">::non_copyable</text>
<text text-anchor="start" x="94" y="-540.5" font-family="Helvetica,sans-Serif" font-size="10.00"> </text>
<text text-anchor="start" x="46.5" y="-525.5" font-family="Helvetica,sans-Serif" font-size="10.00">#</text>
<text text-anchor="start" x="60.5" y="-525.5" font-family="Helvetica,sans-Serif" font-size="10.00">non_copyable()</text>
<text text-anchor="start" x="46.5" y="-510.5" font-family="Helvetica,sans-Serif" font-size="10.00">#</text>
<text text-anchor="start" x="60.5" y="-510.5" font-family="Helvetica,sans-Serif" font-size="10.00">~non_copyable()</text>
<text text-anchor="start" x="46.5" y="-495.5" font-family="Helvetica,sans-Serif" font-size="10.00">#</text>
<text text-anchor="start" x="60.5" y="-495.5" font-family="Helvetica,sans-Serif" font-size="10.00">non_copyable()</text>
<text text-anchor="start" x="46.5" y="-480.5" font-family="Helvetica,sans-Serif" font-size="10.00">#</text>
<text text-anchor="start" x="60.5" y="-480.5" font-family="Helvetica,sans-Serif" font-size="10.00">operator=()</text>
<polygon fill="#bfbfbf" stroke="#bfbfbf" points="41.5,-550.5 41.5,-550.5 150.5,-550.5 150.5,-550.5 41.5,-550.5"/>
<polygon fill="#bfbfbf" stroke="#bfbfbf" points="41.5,-535.5 41.5,-535.5 150.5,-535.5 150.5,-535.5 41.5,-535.5"/>
<polygon fill="none" stroke="#bfbfbf" points="41,-474 41,-579 150,-579 150,-474 41,-474"/>
</a>
</g>
</g>
<!-- Node3&#45;&gt;Node2 -->
<g id="edge2_Node000002_Node000003" class="edge">
<title>Node3&#45;&gt;Node2</title>
<g id="a_edge2_Node000002_Node000003"><a xlink:title=" ">
<path fill="none" stroke="#63b8ff" d="M95.5,-463.65C95.5,-455.32 95.5,-446.49 95.5,-437.38"/>
<polygon fill="none" stroke="#63b8ff" points="92,-463.9 95.5,-473.9 99,-463.9 92,-463.9"/>
</a>
</g>
</g>
</g>
</svg>
