<?xml version="1.0" encoding="UTF-8" standalone="no"?>
<!DOCTYPE svg PUBLIC "-//W3C//DTD SVG 1.1//EN"
 "http://www.w3.org/Graphics/SVG/1.1/DTD/svg11.dtd">
<!-- Generated by graphviz version 2.43.0 (0)
 -->
<!-- Title: Arcane::SubDomain::dumpInternalInfos Pages: 1 -->
<!--zoomable 1001 -->

<svg id="main" version="1.1" xmlns="http://www.w3.org/2000/svg" xmlns:xlink="http://www.w3.org/1999/xlink" xml:space="preserve" onload="init(evt)">

<style type="text/css"><![CDATA[
.node, .edge {opacity: 0.7;}
.node.selected, .edge.selected {opacity: 1;}
.edge:hover path { stroke: red; }
.edge:hover polygon { stroke: red; fill: red; }
]]></style>

<defs>
  <circle id="rim" cx="0" cy="0" r="7"/>
  <circle id="rim2" cx="0" cy="0" r="3.5"/>
  <g id="zoomPlus">
    <use xlink:href="#rim" fill="#404040"><set attributeName="fill" to="#808080" begin="zoomplus.mouseover" end="zoomplus.mouseout"/></use>
    <path d="M-4,0h8M0,-4v8" fill="none" stroke="white" stroke-width="1.5" pointer-events="none"/>
  </g>
  <g id="zoomMin">
    <use xlink:href="#rim" fill="#404040"><set attributeName="fill" to="#808080" begin="zoomminus.mouseover" end="zoomminus.mouseout"/></use>
    <path d="M-4,0h8" fill="none" stroke="white" stroke-width="1.5" pointer-events="none"/>
  </g>
  <g id="arrowUp" transform="translate(30 24)">
    <use xlink:href="#rim"/>
    <path pointer-events="none" fill="none" stroke="white" stroke-width="1.5" d="M0,-3.0v7 M-2.5,-0.5L0,-3.0L2.5,-0.5"/>
  </g>
  <g id="arrowRight" transform="rotate(90) translate(36 -43)">
    <use xlink:href="#rim"/>
    <path pointer-events="none" fill="none" stroke="white" stroke-width="1.5" d="M0,-3.0v7 M-2.5,-0.5L0,-3.0L2.5,-0.5"/>
  </g>
  <g id="arrowDown" transform="rotate(180) translate(-30 -48)">
    <use xlink:href="#rim"/>
    <path pointer-events="none" fill="none" stroke="white" stroke-width="1.5" d="M0,-3.0v7 M-2.5,-0.5L0,-3.0L2.5,-0.5"/>
  </g>
  <g id="arrowLeft" transform="rotate(270) translate(-36 17)">
    <use xlink:href="#rim"/>
    <path pointer-events="none" fill="none" stroke="white" stroke-width="1.5" d="M0,-3.0v7 M-2.5,-0.5L0,-3.0L2.5,-0.5"/>
  </g>
  <g id="resetDef">
    <use xlink:href="#rim2" fill="#404040"><set attributeName="fill" to="#808080" begin="reset.mouseover" end="reset.mouseout"/></use>
  </g>
</defs>
<script type="application/ecmascript">
var viewWidth = 637;
var viewHeight = 1001;
var sectionId = 'dynsection-12';
</script>
<script type="application/ecmascript" xlink:href="../../svg.min.js"/>
<svg id="graph" class="graph">
<g id="viewport">
<title>Arcane::SubDomain::dumpInternalInfos</title>
<!-- Node1 -->
<g id="Node000001" class="node">
<title>Node1</title>
<g id="a_Node000001"><a xlink:title="Sort les informations internes de l&#39;architecture. Les informations sont stockées dans un arbre XML ay...">
<polygon fill="#999999" stroke="#666666" points="119,-507 0,-507 0,-477 119,-477 119,-507"/>
<text text-anchor="start" x="8" y="-495" font-family="Helvetica,sans-Serif" font-size="10.00">Arcane::SubDomain::</text>
<text text-anchor="middle" x="59.5" y="-484" font-family="Helvetica,sans-Serif" font-size="10.00">dumpInternalInfos</text>
</a>
</g>
</g>
<!-- Node2 -->
<g id="Node000002" class="node">
<title>Node2</title>
<g id="a_Node000002"><a xlink:href="../../d3/dcf/classArcane_1_1ICaseMng.html#aaf7ada0ad5dd57d4037779a939283d92" target="_top" xlink:title="Collection des blocs d&#39;options.">
<polygon fill="white" stroke="#666666" points="297,-992.5 155,-992.5 155,-973.5 297,-973.5 297,-992.5"/>
<text text-anchor="middle" x="226" y="-980.5" font-family="Helvetica,sans-Serif" font-size="10.00">Arcane::ICaseMng::blocks</text>
</a>
</g>
</g>
<!-- Node1&#45;&gt;Node2 -->
<g id="edge1_Node000001_Node000002" class="edge">
<title>Node1&#45;&gt;Node2</title>
<g id="a_edge1_Node000001_Node000002"><a xlink:title=" ">
<path fill="none" stroke="#63b8ff" d="M61.43,-507.08C66.24,-579.97 90.51,-895.01 155,-964 156.24,-965.33 157.57,-966.57 158.96,-967.72"/>
<polygon fill="#63b8ff" stroke="#63b8ff" points="157.34,-970.85 167.61,-973.47 161.21,-965.02 157.34,-970.85"/>
</a>
</g>
</g>
<!-- Node3 -->
<g id="Node000003" class="node">
<title>Node3</title>
<g id="a_Node000003"><a xlink:href="../../d5/d05/classArcane_1_1SubDomain.html#a8094bfd3bc11751ce1b902b24fca8e10" target="_top" xlink:title="Retourne le gestionnaire du jeu de données.">
<polygon fill="white" stroke="#666666" points="285.5,-955 166.5,-955 166.5,-925 285.5,-925 285.5,-955"/>
<text text-anchor="start" x="174.5" y="-943" font-family="Helvetica,sans-Serif" font-size="10.00">Arcane::SubDomain::</text>
<text text-anchor="middle" x="226" y="-932" font-family="Helvetica,sans-Serif" font-size="10.00">caseMng</text>
</a>
</g>
</g>
<!-- Node1&#45;&gt;Node3 -->
<g id="edge2_Node000001_Node000003" class="edge">
<title>Node1&#45;&gt;Node3</title>
<g id="a_edge2_Node000001_Node000003"><a xlink:title=" ">
<path fill="none" stroke="#63b8ff" d="M61.92,-507.27C68.57,-575.64 98.68,-853.05 155,-916 156.02,-917.14 157.09,-918.22 158.21,-919.25"/>
<polygon fill="#63b8ff" stroke="#63b8ff" points="156.17,-922.09 166.25,-925.34 160.4,-916.51 156.17,-922.09"/>
</a>
</g>
</g>
<!-- Node4 -->
<g id="Node000004" class="node">
<title>Node4</title>
<g id="a_Node000004"><a xlink:href="../../dd/d74/classArcane_1_1ICaseOptions.html#ac68b334368af74628aba7974d220c18e" target="_top" xlink:title="Retourne le module associé ou nullptr s&#39;il n&#39;y en a pas.">
<polygon fill="white" stroke="#666666" points="286.5,-889 165.5,-889 165.5,-859 286.5,-859 286.5,-889"/>
<text text-anchor="start" x="173.5" y="-877" font-family="Helvetica,sans-Serif" font-size="10.00">Arcane::ICaseOptions</text>
<text text-anchor="middle" x="226" y="-866" font-family="Helvetica,sans-Serif" font-size="10.00">::caseModule</text>
</a>
</g>
</g>
<!-- Node1&#45;&gt;Node4 -->
<g id="edge3_Node000001_Node000004" class="edge">
<title>Node1&#45;&gt;Node4</title>
<g id="a_edge3_Node000001_Node000004"><a xlink:title=" ">
<path fill="none" stroke="#63b8ff" d="M62.6,-507.33C71.34,-568.98 106.62,-797.99 155,-850 155.89,-850.95 156.81,-851.87 157.77,-852.75"/>
<polygon fill="#63b8ff" stroke="#63b8ff" points="155.66,-855.54 165.74,-858.79 159.89,-849.96 155.66,-855.54"/>
</a>
</g>
</g>
<!-- Node5 -->
<g id="Node000005" class="node">
<title>Node5</title>
<g id="a_Node000005"><a xlink:href="../../d0/dd3/classArcane_1_1CollectionBase.html#a0a30716fd20803e289137e20c8832a18" target="_top" xlink:title="Supprime tous les éléments de la collection.">
<polygon fill="white" stroke="#666666" points="290.5,-841 161.5,-841 161.5,-811 290.5,-811 290.5,-841"/>
<text text-anchor="start" x="169.5" y="-829" font-family="Helvetica,sans-Serif" font-size="10.00">Arcane::CollectionBase</text>
<text text-anchor="middle" x="226" y="-818" font-family="Helvetica,sans-Serif" font-size="10.00">::clear</text>
</a>
</g>
</g>
<!-- Node1&#45;&gt;Node5 -->
<g id="edge5_Node000001_Node000005" class="edge">
<title>Node1&#45;&gt;Node5</title>
<g id="a_edge5_Node000001_Node000005"><a xlink:title=" ">
<path fill="none" stroke="#63b8ff" d="M60.54,-507.3C61.51,-556.96 71.34,-715.41 155,-802 155.93,-802.96 156.9,-803.88 157.9,-804.77"/>
<polygon fill="#63b8ff" stroke="#63b8ff" points="156.08,-807.77 166.22,-810.86 160.22,-802.13 156.08,-807.77"/>
</a>
</g>
</g>
<!-- Node6 -->
<g id="Node000006" class="node">
<title>Node6</title>
<g id="a_Node000006"><a xlink:href="../../d5/d96/classArcane_1_1IVariable.html#a07a8e81ceff6c70df34866b04fdb81b5" target="_top" xlink:title="Type de la donnée gérée par la variable (Real, Integer, ...)">
<polygon fill="white" stroke="#666666" points="278.5,-793 173.5,-793 173.5,-763 278.5,-763 278.5,-793"/>
<text text-anchor="start" x="181.5" y="-781" font-family="Helvetica,sans-Serif" font-size="10.00">Arcane::IVariable::</text>
<text text-anchor="middle" x="226" y="-770" font-family="Helvetica,sans-Serif" font-size="10.00">dataType</text>
</a>
</g>
</g>
<!-- Node1&#45;&gt;Node6 -->
<g id="edge6_Node000001_Node000006" class="edge">
<title>Node1&#45;&gt;Node6</title>
<g id="a_edge6_Node000001_Node000006"><a xlink:title=" ">
<path fill="none" stroke="#63b8ff" d="M61.52,-507.12C65.32,-551.48 82.46,-682.6 155,-754 157.85,-756.81 161.05,-759.29 164.47,-761.48"/>
<polygon fill="#63b8ff" stroke="#63b8ff" points="162.88,-764.6 173.33,-766.35 166.25,-758.47 162.88,-764.6"/>
</a>
</g>
</g>
<!-- Node7 -->
<g id="Node000007" class="node">
<title>Node7</title>
<g id="a_Node000007"><a xlink:href="../../d0/d32/namespaceArcane.html#af31ae832a368488129b538d8d27f3ff7" target="_top" xlink:title="Nom du type de donnée.">
<polygon fill="white" stroke="#666666" points="291,-744.5 161,-744.5 161,-725.5 291,-725.5 291,-744.5"/>
<text text-anchor="middle" x="226" y="-732.5" font-family="Helvetica,sans-Serif" font-size="10.00">Arcane::dataTypeName</text>
</a>
</g>
</g>
<!-- Node1&#45;&gt;Node7 -->
<g id="edge7_Node000001_Node000007" class="edge">
<title>Node1&#45;&gt;Node7</title>
<g id="a_edge7_Node000001_Node000007"><a xlink:title=" ">
<path fill="none" stroke="#63b8ff" d="M62.33,-507.16C68.03,-547.53 89.22,-658.5 155,-716 156.95,-717.7 159.04,-719.26 161.23,-720.67"/>
<polygon fill="#63b8ff" stroke="#63b8ff" points="159.66,-723.8 170.12,-725.47 162.99,-717.64 159.66,-723.8"/>
</a>
</g>
</g>
<!-- Node8 -->
<g id="Node000008" class="node">
<title>Node8</title>
<g id="a_Node000008"><a xlink:href="../../dd/dc9/classArcane_1_1ITimeLoop.html#a9a7e0f5067ff622963b82a8829cedd75" target="_top" xlink:title="Description de la boucle en temps.">
<polygon fill="white" stroke="#666666" points="282.5,-707 169.5,-707 169.5,-677 282.5,-677 282.5,-707"/>
<text text-anchor="start" x="177.5" y="-695" font-family="Helvetica,sans-Serif" font-size="10.00">Arcane::ITimeLoop::</text>
<text text-anchor="middle" x="226" y="-684" font-family="Helvetica,sans-Serif" font-size="10.00">description</text>
</a>
</g>
</g>
<!-- Node1&#45;&gt;Node8 -->
<g id="edge8_Node000001_Node000008" class="edge">
<title>Node1&#45;&gt;Node8</title>
<g id="a_edge8_Node000001_Node000008"><a xlink:title=" ">
<path fill="none" stroke="#63b8ff" d="M64.5,-507.13C74.19,-540.93 102.14,-623.09 155,-668 156.75,-669.49 158.6,-670.88 160.52,-672.19"/>
<polygon fill="#63b8ff" stroke="#63b8ff" points="158.97,-675.34 169.36,-677.41 162.53,-669.31 158.97,-675.34"/>
</a>
</g>
</g>
<!-- Node9 -->
<g id="Node000009" class="node">
<title>Node9</title>
<g id="a_Node000009"><a xlink:href="../../d5/d96/classArcane_1_1IVariable.html#a655cd26bb86147f406eaf503beed64cb" target="_top" xlink:title="Dimension de la variable.">
<polygon fill="white" stroke="#666666" points="278.5,-659 173.5,-659 173.5,-629 278.5,-629 278.5,-659"/>
<text text-anchor="start" x="181.5" y="-647" font-family="Helvetica,sans-Serif" font-size="10.00">Arcane::IVariable::</text>
<text text-anchor="middle" x="226" y="-636" font-family="Helvetica,sans-Serif" font-size="10.00">dimension</text>
</a>
</g>
</g>
<!-- Node1&#45;&gt;Node9 -->
<g id="edge9_Node000001_Node000009" class="edge">
<title>Node1&#45;&gt;Node9</title>
<g id="a_edge9_Node000001_Node000009"><a xlink:title=" ">
<path fill="none" stroke="#63b8ff" d="M67.88,-507.37C81.45,-534.08 112.9,-589.13 155,-620 157.97,-622.18 161.16,-624.17 164.47,-625.99"/>
<polygon fill="#63b8ff" stroke="#63b8ff" points="162.96,-629.15 173.48,-630.41 166.05,-622.87 162.96,-629.15"/>
</a>
</g>
</g>
<!-- Node10 -->
<g id="Node000010" class="node">
<title>Node10</title>
<g id="a_Node000010"><a xlink:href="../../d5/d96/classArcane_1_1IVariable.html#a51c262a3e29031b986319ed8d06516e3" target="_top" xlink:title="Genre des entités du maillage sur lequel repose la variable.">
<polygon fill="white" stroke="#666666" points="278.5,-611 173.5,-611 173.5,-581 278.5,-581 278.5,-611"/>
<text text-anchor="start" x="181.5" y="-599" font-family="Helvetica,sans-Serif" font-size="10.00">Arcane::IVariable::</text>
<text text-anchor="middle" x="226" y="-588" font-family="Helvetica,sans-Serif" font-size="10.00">itemKind</text>
</a>
</g>
</g>
<!-- Node1&#45;&gt;Node10 -->
<g id="edge10_Node000001_Node000010" class="edge">
<title>Node1&#45;&gt;Node10</title>
<g id="a_edge10_Node000001_Node000010"><a xlink:title=" ">
<path fill="none" stroke="#63b8ff" d="M74.88,-507.22C92.34,-524.94 123.41,-554.06 155,-572 158,-573.7 161.13,-575.31 164.35,-576.82"/>
<polygon fill="#63b8ff" stroke="#63b8ff" points="162.99,-580.05 173.56,-580.85 165.8,-573.64 162.99,-580.05"/>
</a>
</g>
</g>
<!-- Node11 -->
<g id="Node000011" class="node">
<title>Node11</title>
<g id="a_Node000011"><a xlink:href="../../d0/d32/namespaceArcane.html#aae2e860eadb932c0e614ed16f6368917" target="_top" xlink:title="Nom du genre d&#39;entité.">
<polygon fill="white" stroke="#666666" points="291,-544.5 161,-544.5 161,-525.5 291,-525.5 291,-544.5"/>
<text text-anchor="middle" x="226" y="-532.5" font-family="Helvetica,sans-Serif" font-size="10.00">Arcane::itemKindName</text>
</a>
</g>
</g>
<!-- Node1&#45;&gt;Node11 -->
<g id="edge11_Node000001_Node000011" class="edge">
<title>Node1&#45;&gt;Node11</title>
<g id="a_edge11_Node000001_Node000011"><a xlink:title=" ">
<path fill="none" stroke="#63b8ff" d="M118.03,-507.04C137.83,-512.21 159.72,-517.94 178.52,-522.85"/>
<polygon fill="#63b8ff" stroke="#63b8ff" points="177.77,-526.27 188.33,-525.41 179.54,-519.5 177.77,-526.27"/>
</a>
</g>
</g>
<!-- Node12 -->
<g id="Node000012" class="node">
<title>Node12</title>
<g id="a_Node000012"><a xlink:href="../../d5/d05/classArcane_1_1SubDomain.html#a106c098dcfa49f4255e9f6316fc210aa" target="_top" xlink:title="Retourne le gestionnaire de modules.">
<polygon fill="white" stroke="#666666" points="285.5,-507 166.5,-507 166.5,-477 285.5,-477 285.5,-507"/>
<text text-anchor="start" x="174.5" y="-495" font-family="Helvetica,sans-Serif" font-size="10.00">Arcane::SubDomain::</text>
<text text-anchor="middle" x="226" y="-484" font-family="Helvetica,sans-Serif" font-size="10.00">moduleMng</text>
</a>
</g>
</g>
<!-- Node1&#45;&gt;Node12 -->
<g id="edge13_Node000001_Node000012" class="edge">
<title>Node1&#45;&gt;Node12</title>
<g id="a_edge13_Node000001_Node000012"><a xlink:title=" ">
<path fill="none" stroke="#63b8ff" d="M119.42,-492C131.38,-492 144.05,-492 156.31,-492"/>
<polygon fill="#63b8ff" stroke="#63b8ff" points="156.49,-495.5 166.49,-492 156.49,-488.5 156.49,-495.5"/>
</a>
</g>
</g>
<!-- Node13 -->
<g id="Node000013" class="node">
<title>Node13</title>
<g id="a_Node000013"><a xlink:href="../../d2/da2/classArcane_1_1IModule.html#a7820d53614387788e46a66236cabcb85" target="_top" xlink:title="Nom du module.">
<polygon fill="white" stroke="#666666" points="290.5,-458.5 161.5,-458.5 161.5,-439.5 290.5,-439.5 290.5,-458.5"/>
<text text-anchor="middle" x="226" y="-446.5" font-family="Helvetica,sans-Serif" font-size="10.00">Arcane::IModule::name</text>
</a>
</g>
</g>
<!-- Node1&#45;&gt;Node13 -->
<g id="edge14_Node000001_Node000013" class="edge">
<title>Node1&#45;&gt;Node13</title>
<g id="a_edge14_Node000001_Node000013"><a xlink:title=" ">
<path fill="none" stroke="#63b8ff" d="M118.03,-476.96C137.83,-471.79 159.72,-466.06 178.52,-461.15"/>
<polygon fill="#63b8ff" stroke="#63b8ff" points="179.54,-464.5 188.33,-458.59 177.77,-457.73 179.54,-464.5"/>
</a>
</g>
</g>
<!-- Node14 -->
<g id="Node000014" class="node">
<title>Node14</title>
<g id="a_Node000014"><a xlink:href="../../d5/d96/classArcane_1_1IVariable.html#ae76ecb98bef9b2ac05b993124d5fb6b6" target="_top" xlink:title="Nom de la variable.">
<polygon fill="white" stroke="#666666" points="292.5,-421.5 159.5,-421.5 159.5,-402.5 292.5,-402.5 292.5,-421.5"/>
<text text-anchor="middle" x="226" y="-409.5" font-family="Helvetica,sans-Serif" font-size="10.00">Arcane::IVariable::name</text>
</a>
</g>
</g>
<!-- Node1&#45;&gt;Node14 -->
<g id="edge15_Node000001_Node000014" class="edge">
<title>Node1&#45;&gt;Node14</title>
<g id="a_edge15_Node000001_Node000014"><a xlink:title=" ">
<path fill="none" stroke="#63b8ff" d="M80.11,-476.76C98.54,-463.08 127.35,-443.32 155,-431 160.38,-428.6 166.13,-426.45 171.93,-424.53"/>
<polygon fill="#63b8ff" stroke="#63b8ff" points="173.18,-427.81 181.7,-421.51 171.11,-421.12 173.18,-427.81"/>
</a>
</g>
</g>
<!-- Node15 -->
<g id="Node000015" class="node">
<title>Node15</title>
<g id="a_Node000015"><a xlink:href="../../dd/d74/classArcane_1_1ICaseOptions.html#ad7c6102cee5ae159a54aca883dd81e4f" target="_top" xlink:title="Nom de l&#39;élément dans le langage du jeu de données.">
<polygon fill="white" stroke="#666666" points="286.5,-384 165.5,-384 165.5,-354 286.5,-354 286.5,-384"/>
<text text-anchor="start" x="173.5" y="-372" font-family="Helvetica,sans-Serif" font-size="10.00">Arcane::ICaseOptions</text>
<text text-anchor="middle" x="226" y="-361" font-family="Helvetica,sans-Serif" font-size="10.00">::rootTagName</text>
</a>
</g>
</g>
<!-- Node1&#45;&gt;Node15 -->
<g id="edge16_Node000001_Node000015" class="edge">
<title>Node1&#45;&gt;Node15</title>
<g id="a_edge16_Node000001_Node000015"><a xlink:title=" ">
<path fill="none" stroke="#63b8ff" d="M71.36,-476.96C87.42,-455.72 119.46,-416.95 155,-394 158.11,-391.99 161.4,-390.12 164.8,-388.38"/>
<polygon fill="#63b8ff" stroke="#63b8ff" points="166.4,-391.49 173.96,-384.07 163.43,-385.16 166.4,-391.49"/>
</a>
</g>
</g>
<!-- Node16 -->
<g id="Node000016" class="node">
<title>Node16</title>
<g id="a_Node000016"><a xlink:href="../../d9/dcc/classArcane_1_1XmlNode.html#ac7919602cb8e3ad4df135cf3b5f69254" target="_top" xlink:title="Positionne l&#39;attribut name à la valeur value.">
<polygon fill="white" stroke="#666666" points="296,-336 156,-336 156,-306 296,-306 296,-336"/>
<text text-anchor="start" x="164" y="-324" font-family="Helvetica,sans-Serif" font-size="10.00">Arcane::XmlNode::setAttr</text>
<text text-anchor="middle" x="226" y="-313" font-family="Helvetica,sans-Serif" font-size="10.00">Value</text>
</a>
</g>
</g>
<!-- Node1&#45;&gt;Node16 -->
<g id="edge17_Node000001_Node000016" class="edge">
<title>Node1&#45;&gt;Node16</title>
<g id="a_edge17_Node000001_Node000016"><a xlink:title=" ">
<path fill="none" stroke="#63b8ff" d="M66.29,-476.7C78.29,-447.01 108.68,-381.31 155,-345 156.77,-343.62 158.62,-342.31 160.53,-341.07"/>
<polygon fill="#63b8ff" stroke="#63b8ff" points="162.31,-344.09 169.29,-336.12 158.86,-338 162.31,-344.09"/>
</a>
</g>
</g>
<!-- Node20 -->
<g id="Node000020" class="node">
<title>Node20</title>
<g id="a_Node000020"><a xlink:href="../../d5/d05/classArcane_1_1SubDomain.html#ac962a1a337f27983ba0b33f3ca23ff53" target="_top" xlink:title="Retourne le gestionnaire de la boucle en temps.">
<polygon fill="white" stroke="#666666" points="285.5,-288 166.5,-288 166.5,-258 285.5,-258 285.5,-288"/>
<text text-anchor="start" x="174.5" y="-276" font-family="Helvetica,sans-Serif" font-size="10.00">Arcane::SubDomain::</text>
<text text-anchor="middle" x="226" y="-265" font-family="Helvetica,sans-Serif" font-size="10.00">timeLoopMng</text>
</a>
</g>
</g>
<!-- Node1&#45;&gt;Node20 -->
<g id="edge21_Node000001_Node000020" class="edge">
<title>Node1&#45;&gt;Node20</title>
<g id="a_edge21_Node000001_Node000020"><a xlink:title=" ">
<path fill="none" stroke="#63b8ff" d="M63.62,-476.9C71.91,-440.58 97.83,-347.64 155,-297 156.32,-295.83 157.7,-294.71 159.14,-293.65"/>
<polygon fill="#63b8ff" stroke="#63b8ff" points="161.24,-296.46 167.81,-288.15 157.49,-290.55 161.24,-296.46"/>
</a>
</g>
</g>
<!-- Node21 -->
<g id="Node000021" class="node">
<title>Node21</title>
<g id="a_Node000021"><a xlink:href="../../dd/dc9/classArcane_1_1ITimeLoop.html#a0f4a3910669df3370fee8bf40a1591ef" target="_top" xlink:title="Titre de la boucle en temps.">
<polygon fill="white" stroke="#666666" points="282.5,-240 169.5,-240 169.5,-210 282.5,-210 282.5,-240"/>
<text text-anchor="start" x="177.5" y="-228" font-family="Helvetica,sans-Serif" font-size="10.00">Arcane::ITimeLoop::</text>
<text text-anchor="middle" x="226" y="-217" font-family="Helvetica,sans-Serif" font-size="10.00">title</text>
</a>
</g>
</g>
<!-- Node1&#45;&gt;Node21 -->
<g id="edge22_Node000001_Node000021" class="edge">
<title>Node1&#45;&gt;Node21</title>
<g id="a_edge22_Node000001_Node000021"><a xlink:title=" ">
<path fill="none" stroke="#63b8ff" d="M62.02,-476.76C67.05,-434.45 86.92,-314.37 155,-249 156.69,-247.37 158.5,-245.86 160.4,-244.44"/>
<polygon fill="#63b8ff" stroke="#63b8ff" points="162.64,-247.17 169.23,-238.88 158.9,-241.25 162.64,-247.17"/>
</a>
</g>
</g>
<!-- Node22 -->
<g id="Node000022" class="node">
<title>Node22</title>
<g id="a_Node000022"><a xlink:href="../../d5/d9e/classArcane_1_1ITimeLoopMng.html#a7fd81c6b86a95f6b77e637237f2486fb" target="_top" xlink:title="Retourne la boucle en temps utilisée.">
<polygon fill="white" stroke="#666666" points="290,-192 162,-192 162,-162 290,-162 290,-192"/>
<text text-anchor="start" x="170" y="-180" font-family="Helvetica,sans-Serif" font-size="10.00">Arcane::ITimeLoopMng</text>
<text text-anchor="middle" x="226" y="-169" font-family="Helvetica,sans-Serif" font-size="10.00">::usedTimeLoop</text>
</a>
</g>
</g>
<!-- Node1&#45;&gt;Node22 -->
<g id="edge23_Node000001_Node000022" class="edge">
<title>Node1&#45;&gt;Node22</title>
<g id="a_edge23_Node000001_Node000022"><a xlink:title=" ">
<path fill="none" stroke="#63b8ff" d="M60.89,-476.95C62.92,-429.55 75.65,-281.65 155,-201 155.94,-200.05 156.91,-199.13 157.93,-198.25"/>
<polygon fill="#63b8ff" stroke="#63b8ff" points="160.24,-200.9 166.28,-192.2 156.13,-195.23 160.24,-200.9"/>
</a>
</g>
</g>
<!-- Node23 -->
<g id="Node000023" class="node">
<title>Node23</title>
<g id="a_Node000023"><a xlink:href="../../dd/dc9/classArcane_1_1ITimeLoop.html#afc88345d2970ce8b0b03e3019c69bd9a" target="_top" xlink:title="Liste des classes utilisateurs associées à la boucle en temps.">
<polygon fill="white" stroke="#666666" points="282.5,-144 169.5,-144 169.5,-114 282.5,-114 282.5,-144"/>
<text text-anchor="start" x="177.5" y="-132" font-family="Helvetica,sans-Serif" font-size="10.00">Arcane::ITimeLoop::</text>
<text text-anchor="middle" x="226" y="-121" font-family="Helvetica,sans-Serif" font-size="10.00">userClasses</text>
</a>
</g>
</g>
<!-- Node1&#45;&gt;Node23 -->
<g id="edge24_Node000001_Node000023" class="edge">
<title>Node1&#45;&gt;Node23</title>
<g id="a_edge24_Node000001_Node000023"><a xlink:title=" ">
<path fill="none" stroke="#63b8ff" d="M60.07,-476.79C59.43,-424.34 64.45,-249 155,-153 156.81,-151.08 158.79,-149.31 160.88,-147.68"/>
<polygon fill="#63b8ff" stroke="#63b8ff" points="163.02,-150.47 169.5,-142.09 159.2,-144.6 163.02,-150.47"/>
</a>
</g>
</g>
<!-- Node24 -->
<g id="Node000024" class="node">
<title>Node24</title>
<g id="a_Node000024"><a xlink:href="../../d5/d05/classArcane_1_1SubDomain.html#a697f18baac5ee4fe9dae69b9b6b65fd6" target="_top" xlink:title="Retourne le gestionnaire de variables.">
<polygon fill="white" stroke="#666666" points="285.5,-96 166.5,-96 166.5,-66 285.5,-66 285.5,-96"/>
<text text-anchor="start" x="174.5" y="-84" font-family="Helvetica,sans-Serif" font-size="10.00">Arcane::SubDomain::</text>
<text text-anchor="middle" x="226" y="-73" font-family="Helvetica,sans-Serif" font-size="10.00">variableMng</text>
</a>
</g>
</g>
<!-- Node1&#45;&gt;Node24 -->
<g id="edge25_Node000001_Node000024" class="edge">
<title>Node1&#45;&gt;Node24</title>
<g id="a_edge25_Node000001_Node000024"><a xlink:title=" ">
<path fill="none" stroke="#63b8ff" d="M62.27,-476.77C70.04,-412.21 103.12,-161.82 155,-105 156.03,-103.87 157.11,-102.8 158.24,-101.78"/>
<polygon fill="#63b8ff" stroke="#63b8ff" points="160.42,-104.52 166.33,-95.73 156.23,-98.91 160.42,-104.52"/>
</a>
</g>
</g>
<!-- Node25 -->
<g id="Node000025" class="node">
<title>Node25</title>
<g id="a_Node000025"><a xlink:href="../../d7/d7c/classArcane_1_1IVariableMng.html#a589218e8a444547851659200583e3353" target="_top" xlink:title="Donne l&#39;ensemble des variables du module i.">
<polygon fill="white" stroke="#666666" points="286,-30 166,-30 166,0 286,0 286,-30"/>
<text text-anchor="start" x="174" y="-18" font-family="Helvetica,sans-Serif" font-size="10.00">Arcane::IVariableMng</text>
<text text-anchor="middle" x="226" y="-7" font-family="Helvetica,sans-Serif" font-size="10.00">::variables</text>
</a>
</g>
</g>
<!-- Node1&#45;&gt;Node25 -->
<g id="edge26_Node000001_Node000025" class="edge">
<title>Node1&#45;&gt;Node25</title>
<g id="a_edge26_Node000001_Node000025"><a xlink:title=" ">
<path fill="none" stroke="#63b8ff" d="M62.2,-476.61C70.04,-407.63 104.56,-127.34 155,-57 161.2,-48.36 169.77,-41.18 178.8,-35.34"/>
<polygon fill="#63b8ff" stroke="#63b8ff" points="180.73,-38.27 187.54,-30.15 177.15,-32.25 180.73,-38.27"/>
</a>
</g>
</g>
<!-- Node4&#45;&gt;Node4 -->
<g id="edge4_Node000004_Node000004" class="edge">
<title>Node4&#45;&gt;Node4</title>
<g id="a_edge4_Node000004_Node000004"><a xlink:title=" ">
<path fill="none" stroke="#63b8ff" d="M196.82,-889.28C190.34,-898.41 200.06,-907 226,-907 241.4,-907 251.09,-903.97 255.06,-899.6"/>
<polygon fill="#63b8ff" stroke="#63b8ff" points="258.56,-899.32 255.18,-889.28 251.56,-899.23 258.56,-899.32"/>
</a>
</g>
</g>
<!-- Node11&#45;&gt;Node11 -->
<g id="edge12_Node000011_Node000011" class="edge">
<title>Node11&#45;&gt;Node11</title>
<g id="a_edge12_Node000011_Node000011"><a xlink:title=" ">
<path fill="none" stroke="#63b8ff" d="M200.41,-544.58C187.97,-553.23 196.5,-562.5 226,-562.5 245.36,-562.5 255.69,-558.51 256.99,-553.32"/>
<polygon fill="#63b8ff" stroke="#63b8ff" points="259.82,-551.25 251.59,-544.58 253.87,-554.93 259.82,-551.25"/>
</a>
</g>
</g>
<!-- Node17 -->
<g id="Node000017" class="node">
<title>Node17</title>
<g id="a_Node000017"><a xlink:href="../../d9/dcc/classArcane_1_1XmlNode.html#acf62d5042e539833c53b5739fa5e061e" target="_top" xlink:title="Nom du noeud.">
<polygon fill="white" stroke="#666666" points="468,-348.5 333,-348.5 333,-329.5 468,-329.5 468,-348.5"/>
<text text-anchor="middle" x="400.5" y="-336.5" font-family="Helvetica,sans-Serif" font-size="10.00">Arcane::XmlNode::name</text>
</a>
</g>
</g>
<!-- Node16&#45;&gt;Node17 -->
<g id="edge18_Node000016_Node000017" class="edge">
<title>Node16&#45;&gt;Node17</title>
<g id="a_edge18_Node000016_Node000017"><a xlink:title=" ">
<path fill="none" stroke="#63b8ff" d="M296.17,-328.22C304.95,-329.13 313.99,-330.08 322.88,-331"/>
<polygon fill="#63b8ff" stroke="#63b8ff" points="322.53,-334.49 332.84,-332.04 323.26,-327.53 322.53,-334.49"/>
</a>
</g>
</g>
<!-- Node18 -->
<g id="Node000018" class="node">
<title>Node18</title>
<g id="a_Node000018"><a xlink:href="../../d9/dcc/classArcane_1_1XmlNode.html#a8caccaab130a8ddb49c02096094be089" target="_top" xlink:title="Valeur du noeud.">
<polygon fill="white" stroke="#666666" points="467.5,-311.5 333.5,-311.5 333.5,-292.5 467.5,-292.5 467.5,-311.5"/>
<text text-anchor="middle" x="400.5" y="-299.5" font-family="Helvetica,sans-Serif" font-size="10.00">Arcane::XmlNode::value</text>
</a>
</g>
</g>
<!-- Node16&#45;&gt;Node18 -->
<g id="edge19_Node000016_Node000018" class="edge">
<title>Node16&#45;&gt;Node18</title>
<g id="a_edge19_Node000016_Node000018"><a xlink:title=" ">
<path fill="none" stroke="#63b8ff" d="M296.17,-313.38C305.09,-312.4 314.27,-311.39 323.29,-310.39"/>
<polygon fill="#63b8ff" stroke="#63b8ff" points="323.84,-313.85 333.4,-309.28 323.08,-306.9 323.84,-313.85"/>
</a>
</g>
</g>
<!-- Node19 -->
<g id="Node000019" class="node">
<title>Node19</title>
<g id="a_Node000019"><a xlink:href="../../d9/dcc/classArcane_1_1XmlNode.html#aa55e4b639e759107e44fbe17c21d311e" target="_top" xlink:title="Vrai si le noeud est nul.">
<polygon fill="white" stroke="#666666" points="629,-311.5 504,-311.5 504,-292.5 629,-292.5 629,-311.5"/>
<text text-anchor="middle" x="566.5" y="-299.5" font-family="Helvetica,sans-Serif" font-size="10.00">Arcane::XmlNode::null</text>
</a>
</g>
</g>
<!-- Node18&#45;&gt;Node19 -->
<g id="edge20_Node000018_Node000019" class="edge">
<title>Node18&#45;&gt;Node19</title>
<g id="a_edge20_Node000018_Node000019"><a xlink:title=" ">
<path fill="none" stroke="#63b8ff" d="M467.73,-302C476.29,-302 485.09,-302 493.74,-302"/>
<polygon fill="#63b8ff" stroke="#63b8ff" points="493.8,-305.5 503.8,-302 493.8,-298.5 493.8,-305.5"/>
</a>
</g>
</g>
<!-- Node25&#45;&gt;Node25 -->
<g id="edge27_Node000025_Node000025" class="edge">
<title>Node25&#45;&gt;Node25</title>
<g id="a_edge27_Node000025_Node000025"><a xlink:title=" ">
<path fill="none" stroke="#63b8ff" d="M196.82,-30.28C190.34,-39.41 200.06,-48 226,-48 241.4,-48 251.09,-44.97 255.06,-40.6"/>
<polygon fill="#63b8ff" stroke="#63b8ff" points="258.56,-40.32 255.18,-30.28 251.56,-40.23 258.56,-40.32"/>
</a>
</g>
</g>
</g>
</svg>

<g id="navigator" transform="translate(0 0)" fill="#404254">
  <rect fill="#f2f5e9" fill-opacity="0.5" stroke="#606060" stroke-width=".5" x="0" y="0" width="60" height="60"/>
  <use id="zoomplus" xlink:href="#zoomPlus" x="17" y="9" onmousedown="handleZoom(evt,'in')"/>
  <use id="zoomminus" xlink:href="#zoomMin" x="42" y="9" onmousedown="handleZoom(evt,'out')"/>
  <use id="reset" xlink:href="#resetDef" x="30" y="36" onmousedown="handleReset()"/>
   <use id="arrowup" xlink:href="#arrowUp" x="0" y="0" onmousedown="handlePan(0,-1)"/>
  <use id="arrowright" xlink:href="#arrowRight" x="0" y="0" onmousedown="handlePan(1,0)"/>
  <use id="arrowdown" xlink:href="#arrowDown" x="0" y="0" onmousedown="handlePan(0,1)"/>
  <use id="arrowleft" xlink:href="#arrowLeft" x="0" y="0" onmousedown="handlePan(-1,0)"/>
</g>
<svg viewBox="0 0 15 15" width="100%" height="30px" preserveAspectRatio="xMaxYMin meet">
 <g id="arrow_out" transform="scale(0.3 0.3)">
  <a xlink:href="classArcane_1_1SubDomain_a770d2bca4f95bf185ddee0ad87c2a4cb_cgraph_org.svg" target="_base">
   <rect id="button" ry="5" rx="5" y="6" x="6" height="38" width="38"
        fill="#f2f5e9" fill-opacity="0.5" stroke="#606060" stroke-width="1.0"/>
   <path id="arrow"
     d="M 11.500037,31.436501 C 11.940474,20.09759 22.043105,11.32322 32.158766,21.979434 L 37.068811,17.246167 C 37.068811,17.246167 37.088388,32 37.088388,32 L 22.160133,31.978069 C 22.160133,31.978069 26.997745,27.140456 26.997745,27.140456 C 18.528582,18.264221 13.291696,25.230495 11.500037,31.436501 z"
     style="fill:#404040;"/>
  </a>
 </g>
</svg>

<style type='text/css'>
<![CDATA[
[data-mouse-over-selected='false'] { opacity: 0.7; }
[data-mouse-over-selected='true']  { opacity: 1.0; }
]]>
</style>
<script type="application/ecmascript"><![CDATA[
document.addEventListener('DOMContentLoaded', (event) => {
  highlightEdges();
  highlightAdjacentNodes();
});
]]></script>
</svg>
