<?xml version="1.0" encoding="UTF-8" standalone="no"?>
<!DOCTYPE svg PUBLIC "-//W3C//DTD SVG 1.1//EN"
 "http://www.w3.org/Graphics/SVG/1.1/DTD/svg11.dtd">
<!-- Generated by graphviz version 2.43.0 (0)
 -->
<!-- Title: Arcane::SubDomain::parallelMng Pages: 1 -->
<svg width="439pt" height="278pt"
 viewBox="0.00 0.00 439.00 278.00" xmlns="http://www.w3.org/2000/svg" xmlns:xlink="http://www.w3.org/1999/xlink">

<svg id="main" version="1.1" xmlns="http://www.w3.org/2000/svg" xmlns:xlink="http://www.w3.org/1999/xlink" xml:space="preserve">

<style type="text/css"><![CDATA[
.node, .edge {opacity: 0.7;}
.node.selected, .edge.selected {opacity: 1;}
.edge:hover path { stroke: red; }
.edge:hover polygon { stroke: red; fill: red; }
]]></style>
<script type="application/ecmascript" xlink:href="../../svg.min.js"/>
<svg id="graph" class="graph">
<g id="graph0" class="graph" transform="scale(1 1) rotate(0) translate(4 274)">
<title>Arcane::SubDomain::parallelMng</title>
<!-- Node1 -->
<g id="Node000001" class="node">
<title>Node1</title>
<g id="a_Node000001"><a xlink:title="Retourne le gestionnaire de parallélisme.">
<polygon fill="#999999" stroke="#666666" points="431,-150 312,-150 312,-120 431,-120 431,-150"/>
<text text-anchor="start" x="320" y="-138" font-family="Helvetica,sans-Serif" font-size="10.00">Arcane::SubDomain::</text>
<text text-anchor="middle" x="371.5" y="-127" font-family="Helvetica,sans-Serif" font-size="10.00">parallelMng</text>
</a>
</g>
</g>
<!-- Node2 -->
<g id="Node000002" class="node">
<title>Node2</title>
<g id="a_Node000002"><a xlink:href="../../d5/d05/classArcane_1_1SubDomain.html#a73f2bc6f7978358d6df2077041941a38" target="_top" xlink:title="Affiche l&#39;affinité CPU de tous les rangs.">
<polygon fill="white" stroke="#666666" points="275,-270 156,-270 156,-240 275,-240 275,-270"/>
<text text-anchor="start" x="164" y="-258" font-family="Helvetica,sans-Serif" font-size="10.00">Arcane::SubDomain::</text>
<text text-anchor="middle" x="215.5" y="-247" font-family="Helvetica,sans-Serif" font-size="10.00">_printCPUAffinity</text>
</a>
</g>
</g>
<!-- Node1&#45;&gt;Node2 -->
<g id="edge1_Node000001_Node000002" class="edge">
<title>Node1&#45;&gt;Node2</title>
<g id="a_edge1_Node000001_Node000002"><a xlink:title=" ">
<path fill="none" stroke="#63b8ff" d="M352.49,-158.13C334.9,-179.43 306.4,-210.72 276,-231 271,-234.34 265.46,-237.34 259.83,-239.99"/>
<polygon fill="#63b8ff" stroke="#63b8ff" points="355.32,-160.19 358.89,-150.22 349.88,-155.79 355.32,-160.19"/>
</a>
</g>
</g>
<!-- Node4 -->
<g id="Node000004" class="node">
<title>Node4</title>
<g id="a_Node000004"><a xlink:href="../../d5/d05/classArcane_1_1SubDomain.html#a789825a9781a0f8f4b8e445e5e6e768a" target="_top" xlink:title="Allocation des maillages.">
<polygon fill="white" stroke="#666666" points="275,-222 156,-222 156,-192 275,-192 275,-222"/>
<text text-anchor="start" x="164" y="-210" font-family="Helvetica,sans-Serif" font-size="10.00">Arcane::SubDomain::</text>
<text text-anchor="middle" x="215.5" y="-199" font-family="Helvetica,sans-Serif" font-size="10.00">allocateMeshes</text>
</a>
</g>
</g>
<!-- Node1&#45;&gt;Node4 -->
<g id="edge3_Node000001_Node000004" class="edge">
<title>Node1&#45;&gt;Node4</title>
<g id="a_edge3_Node000001_Node000004"><a xlink:title=" ">
<path fill="none" stroke="#63b8ff" d="M333.11,-154.93C315.89,-163.87 295.08,-174.33 276,-183 269.31,-186.04 262.11,-189.11 255.12,-191.99"/>
<polygon fill="#63b8ff" stroke="#63b8ff" points="335.04,-157.88 342.28,-150.14 331.79,-151.67 335.04,-157.88"/>
</a>
</g>
</g>
<!-- Node5 -->
<g id="Node000005" class="node">
<title>Node5</title>
<g id="a_Node000005"><a xlink:href="../../d5/d05/classArcane_1_1SubDomain.html#a52367ec9798ad4ea545a57de91ed5a0b" target="_top" xlink:title="Construit les membres de l&#39;instance. L&#39;instance n&#39;est pas utilisable tant que cette méthode n&#39;a pas é...">
<polygon fill="white" stroke="#666666" points="275,-174 156,-174 156,-144 275,-144 275,-174"/>
<text text-anchor="start" x="164" y="-162" font-family="Helvetica,sans-Serif" font-size="10.00">Arcane::SubDomain::</text>
<text text-anchor="middle" x="215.5" y="-151" font-family="Helvetica,sans-Serif" font-size="10.00">build</text>
</a>
</g>
</g>
<!-- Node1&#45;&gt;Node5 -->
<g id="edge4_Node000001_Node000005" class="edge">
<title>Node1&#45;&gt;Node5</title>
<g id="a_edge4_Node000001_Node000005"><a xlink:title=" ">
<path fill="none" stroke="#63b8ff" d="M301.89,-145.69C293,-147.08 283.96,-148.49 275.25,-149.84"/>
<polygon fill="#63b8ff" stroke="#63b8ff" points="302.5,-149.14 311.84,-144.14 301.42,-142.22 302.5,-149.14"/>
</a>
</g>
</g>
<!-- Node6 -->
<g id="Node000006" class="node">
<title>Node6</title>
<g id="a_Node000006"><a xlink:href="../../d5/d05/classArcane_1_1SubDomain.html#a7c0c1301bc6c42be4bc1de8a59322018" target="_top" xlink:title="Applique le partitionnement de maillage de l&#39;initialisation.">
<polygon fill="white" stroke="#666666" points="275,-126 156,-126 156,-96 275,-96 275,-126"/>
<text text-anchor="start" x="164" y="-114" font-family="Helvetica,sans-Serif" font-size="10.00">Arcane::SubDomain::</text>
<text text-anchor="middle" x="215.5" y="-103" font-family="Helvetica,sans-Serif" font-size="10.00">doInitMeshPartition</text>
</a>
</g>
</g>
<!-- Node1&#45;&gt;Node6 -->
<g id="edge5_Node000001_Node000006" class="edge">
<title>Node1&#45;&gt;Node6</title>
<g id="a_edge5_Node000001_Node000006"><a xlink:title=" ">
<path fill="none" stroke="#63b8ff" d="M301.89,-124.31C293,-122.92 283.96,-121.51 275.25,-120.16"/>
<polygon fill="#63b8ff" stroke="#63b8ff" points="301.42,-127.78 311.84,-125.86 302.5,-120.86 301.42,-127.78"/>
</a>
</g>
</g>
<!-- Node7 -->
<g id="Node000007" class="node">
<title>Node7</title>
<g id="a_Node000007"><a xlink:href="../../d5/d05/classArcane_1_1SubDomain.html#a00081b379bd622931c9e2643f46fb25a" target="_top" xlink:title="Lit ou relit les maillages.">
<polygon fill="white" stroke="#666666" points="276,-78 155,-78 155,-48 276,-48 276,-78"/>
<text text-anchor="start" x="163" y="-66" font-family="Helvetica,sans-Serif" font-size="10.00">Arcane::SubDomain::</text>
<text text-anchor="middle" x="215.5" y="-55" font-family="Helvetica,sans-Serif" font-size="10.00">readOrReloadMeshes</text>
</a>
</g>
</g>
<!-- Node1&#45;&gt;Node7 -->
<g id="edge6_Node000001_Node000007" class="edge">
<title>Node1&#45;&gt;Node7</title>
<g id="a_edge6_Node000001_Node000007"><a xlink:title=" ">
<path fill="none" stroke="#63b8ff" d="M333.11,-115.07C315.89,-106.13 295.08,-95.67 276,-87 269.31,-83.96 262.11,-80.89 255.12,-78.01"/>
<polygon fill="#63b8ff" stroke="#63b8ff" points="331.79,-118.33 342.28,-119.86 335.04,-112.12 331.79,-118.33"/>
</a>
</g>
</g>
<!-- Node8 -->
<g id="Node000008" class="node">
<title>Node8</title>
<g id="a_Node000008"><a xlink:href="../../d5/d05/classArcane_1_1SubDomain.html#a8de3430b483dd30477f80905e37337cd" target="_top" xlink:title="Indique que le sous&#45;domaine est initialié.">
<polygon fill="white" stroke="#666666" points="275,-30 156,-30 156,0 275,0 275,-30"/>
<text text-anchor="start" x="164" y="-18" font-family="Helvetica,sans-Serif" font-size="10.00">Arcane::SubDomain::</text>
<text text-anchor="middle" x="215.5" y="-7" font-family="Helvetica,sans-Serif" font-size="10.00">setIsInitialized</text>
</a>
</g>
</g>
<!-- Node1&#45;&gt;Node8 -->
<g id="edge7_Node000001_Node000008" class="edge">
<title>Node1&#45;&gt;Node8</title>
<g id="a_edge7_Node000001_Node000008"><a xlink:title=" ">
<path fill="none" stroke="#63b8ff" d="M352.49,-111.87C334.9,-90.57 306.4,-59.28 276,-39 271,-35.66 265.46,-32.66 259.83,-30.01"/>
<polygon fill="#63b8ff" stroke="#63b8ff" points="349.88,-114.21 358.89,-119.78 355.32,-109.81 349.88,-114.21"/>
</a>
</g>
</g>
<!-- Node3 -->
<g id="Node000003" class="node">
<title>Node3</title>
<g id="a_Node000003"><a xlink:href="../../d5/d05/classArcane_1_1SubDomain.html#ab076dce1f22d598eb135385b8795e95d" target="_top" xlink:title="Initialise l&#39;instance. L&#39;instance n&#39;est pas utilisable tant que cette méthode n&#39;a pas été appelée.">
<polygon fill="white" stroke="#666666" points="119,-270 0,-270 0,-240 119,-240 119,-270"/>
<text text-anchor="start" x="8" y="-258" font-family="Helvetica,sans-Serif" font-size="10.00">Arcane::SubDomain::</text>
<text text-anchor="middle" x="59.5" y="-247" font-family="Helvetica,sans-Serif" font-size="10.00">initialize</text>
</a>
</g>
</g>
<!-- Node2&#45;&gt;Node3 -->
<g id="edge2_Node000002_Node000003" class="edge">
<title>Node2&#45;&gt;Node3</title>
<g id="a_edge2_Node000002_Node000003"><a xlink:title=" ">
<path fill="none" stroke="#63b8ff" d="M145.61,-255C136.81,-255 127.87,-255 119.25,-255"/>
<polygon fill="#63b8ff" stroke="#63b8ff" points="145.84,-258.5 155.84,-255 145.84,-251.5 145.84,-258.5"/>
</a>
</g>
</g>
</g>
</svg>
</svg>

<style type='text/css'>
<![CDATA[
[data-mouse-over-selected='false'] { opacity: 0.7; }
[data-mouse-over-selected='true']  { opacity: 1.0; }
]]>
</style>
<script type="application/ecmascript"><![CDATA[
document.addEventListener('DOMContentLoaded', (event) => {
  highlightEdges();
  highlightAdjacentNodes();
});
]]></script>
</svg>
