<?xml version="1.0" encoding="UTF-8" standalone="no"?>
<!DOCTYPE svg PUBLIC "-//W3C//DTD SVG 1.1//EN"
 "http://www.w3.org/Graphics/SVG/1.1/DTD/svg11.dtd">
<!-- Generated by graphviz version 2.43.0 (0)
 -->
<!-- Title: Arcane::utils::do_compare&lt; false, false &gt; Pages: 1 -->
<svg width="145pt" height="179pt"
 viewBox="0.00 0.00 145.00 179.00" xmlns="http://www.w3.org/2000/svg" xmlns:xlink="http://www.w3.org/1999/xlink">
<g id="graph0" class="graph" transform="scale(1 1) rotate(0) translate(4 175)">
<title>Arcane::utils::do_compare&lt; false, false &gt;</title>
<!-- Node1 -->
<g id="Node000001" class="node">
<title>Node1</title>
<g id="a_Node000001"><a xlink:title=" ">
<polygon fill="#999999" stroke="transparent" points="137,-171 0,-171 0,-96 137,-96 137,-171"/>
<text text-anchor="start" x="5.5" y="-158.5" font-family="Helvetica,sans-Serif" font-size="10.00">Arcane::utils::do_compare</text>
<text text-anchor="start" x="30.5" y="-147.5" font-family="Helvetica,sans-Serif" font-size="10.00">&lt; false, false &gt;</text>
<text text-anchor="start" x="67" y="-132.5" font-family="Helvetica,sans-Serif" font-size="10.00"> </text>
<text text-anchor="start" x="21" y="-117.5" font-family="Helvetica,sans-Serif" font-size="10.00">+</text>
<text text-anchor="start" x="50.5" y="-117.5" font-family="Helvetica,sans-Serif" font-size="10.00">equal()</text>
<text text-anchor="start" x="21" y="-102.5" font-family="Helvetica,sans-Serif" font-size="10.00">+</text>
<text text-anchor="start" x="50.5" y="-102.5" font-family="Helvetica,sans-Serif" font-size="10.00">lessthan()</text>
<polygon fill="#666666" stroke="#666666" points="0.5,-142.5 0.5,-142.5 137.5,-142.5 137.5,-142.5 0.5,-142.5"/>
<polygon fill="#666666" stroke="#666666" points="0.5,-127.5 0.5,-127.5 137.5,-127.5 137.5,-127.5 0.5,-127.5"/>
<polygon fill="none" stroke="#666666" points="0,-96 0,-171 137,-171 137,-96 0,-96"/>
</a>
</g>
</g>
<!-- Node2 -->
<g id="Node000002" class="node">
<title>Node2</title>
<g id="a_Node000002"><a xlink:href="../../d3/d3c/structArcane_1_1utils_1_1do__compare_3_01true_00_01true_01_4.html" target="_top" xlink:title=" ">
<polygon fill="white" stroke="transparent" points="137,-60 0,-60 0,0 137,0 137,-60"/>
<text text-anchor="start" x="5.5" y="-48" font-family="Helvetica,sans-Serif" font-size="10.00">Arcane::utils::do_compare</text>
<text text-anchor="start" x="35" y="-37" font-family="Helvetica,sans-Serif" font-size="10.00">&lt; true, true &gt;</text>
<text text-anchor="start" x="67" y="-22" font-family="Helvetica,sans-Serif" font-size="10.00"> </text>
<text text-anchor="start" x="67" y="-7" font-family="Helvetica,sans-Serif" font-size="10.00"> </text>
<polygon fill="#bfbfbf" stroke="#bfbfbf" points="0.5,-32 0.5,-32 137.5,-32 137.5,-32 0.5,-32"/>
<polygon fill="#bfbfbf" stroke="#bfbfbf" points="0.5,-17 0.5,-17 137.5,-17 137.5,-17 0.5,-17"/>
<polygon fill="none" stroke="#bfbfbf" points="0,0 0,-60 137,-60 137,0 0,0"/>
</a>
</g>
</g>
<!-- Node1&#45;&gt;Node2 -->
<g id="edge1_Node000001_Node000002" class="edge">
<title>Node1&#45;&gt;Node2</title>
<g id="a_edge1_Node000001_Node000002"><a xlink:title=" ">
<path fill="none" stroke="#63b8ff" d="M68.5,-85.79C68.5,-77.1 68.5,-68.25 68.5,-60.27"/>
<polygon fill="none" stroke="#63b8ff" points="65,-85.86 68.5,-95.86 72,-85.86 65,-85.86"/>
</a>
</g>
</g>
</g>
</svg>
