<?xml version="1.0" encoding="UTF-8" standalone="no"?>
<!DOCTYPE svg PUBLIC "-//W3C//DTD SVG 1.1//EN"
 "http://www.w3.org/Graphics/SVG/1.1/DTD/svg11.dtd">
<!-- Generated by graphviz version 2.43.0 (0)
 -->
<!-- Title: Arcane::AbstractService::AbstractService Pages: 1 -->
<svg width="591pt" height="182pt"
 viewBox="0.00 0.00 591.00 182.00" xmlns="http://www.w3.org/2000/svg" xmlns:xlink="http://www.w3.org/1999/xlink">
<g id="graph0" class="graph" transform="scale(1 1) rotate(0) translate(4 178)">
<title>Arcane::AbstractService::AbstractService</title>
<!-- Node1 -->
<g id="Node000001" class="node">
<title>Node1</title>
<g id="a_Node000001"><a xlink:title="Constructeur à partir d&#39;un ServiceBuildInfo.">
<polygon fill="#999999" stroke="#666666" points="133,-102 0,-102 0,-72 133,-72 133,-102"/>
<text text-anchor="start" x="8" y="-90" font-family="Helvetica,sans-Serif" font-size="10.00">Arcane::AbstractService</text>
<text text-anchor="middle" x="66.5" y="-79" font-family="Helvetica,sans-Serif" font-size="10.00">::AbstractService</text>
</a>
</g>
</g>
<!-- Node2 -->
<g id="Node000002" class="node">
<title>Node2</title>
<g id="a_Node000002"><a xlink:href="../../da/d61/classArcane_1_1AbstractService.html#a349222ef25b1852d1b7627aee5226b30" target="_top" xlink:title="Accès aux informations du service. Voir IServiceInfo pour les détails.">
<polygon fill="white" stroke="#666666" points="302,-174 169,-174 169,-144 302,-144 302,-174"/>
<text text-anchor="start" x="177" y="-162" font-family="Helvetica,sans-Serif" font-size="10.00">Arcane::AbstractService</text>
<text text-anchor="middle" x="235.5" y="-151" font-family="Helvetica,sans-Serif" font-size="10.00">::serviceInfo</text>
</a>
</g>
</g>
<!-- Node1&#45;&gt;Node2 -->
<g id="edge1_Node000001_Node000002" class="edge">
<title>Node1&#45;&gt;Node2</title>
<g id="a_edge1_Node000001_Node000002"><a xlink:title=" ">
<path fill="none" stroke="#63b8ff" d="M97.38,-102C117.43,-111.86 144.55,-124.76 169,-135 173.2,-136.76 177.57,-138.52 181.99,-140.24"/>
<polygon fill="#63b8ff" stroke="#63b8ff" points="181.06,-143.63 191.65,-143.93 183.56,-137.09 181.06,-143.63"/>
</a>
</g>
</g>
<!-- Node3 -->
<g id="Node000003" class="node">
<title>Node3</title>
<g id="a_Node000003"><a xlink:href="../../da/d61/classArcane_1_1AbstractService.html#aaa6062b7c2506fce1c638daefcaf2459" target="_top" xlink:title="Accès à l&#39;interface de base des principaux objets Arcane.">
<polygon fill="white" stroke="#666666" points="302,-126 169,-126 169,-96 302,-96 302,-126"/>
<text text-anchor="start" x="177" y="-114" font-family="Helvetica,sans-Serif" font-size="10.00">Arcane::AbstractService</text>
<text text-anchor="middle" x="235.5" y="-103" font-family="Helvetica,sans-Serif" font-size="10.00">::serviceParent</text>
</a>
</g>
</g>
<!-- Node1&#45;&gt;Node3 -->
<g id="edge2_Node000001_Node000003" class="edge">
<title>Node1&#45;&gt;Node3</title>
<g id="a_edge2_Node000001_Node000003"><a xlink:title=" ">
<path fill="none" stroke="#63b8ff" d="M133.02,-96.42C141.5,-97.63 150.23,-98.89 158.85,-100.13"/>
<polygon fill="#63b8ff" stroke="#63b8ff" points="158.5,-103.61 168.89,-101.57 159.49,-96.68 158.5,-103.61"/>
</a>
</g>
</g>
<!-- Node4 -->
<g id="Node000004" class="node">
<title>Node4</title>
<g id="a_Node000004"><a xlink:href="../../d1/d17/classArcane_1_1TraceAccessor.html#a0dc4fb7fbd81b8c791b0f7ebb606282d" target="_top" xlink:title="Construit un accesseur via le gestionnaire de trace m.">
<polygon fill="white" stroke="#666666" points="298,-78 173,-78 173,-48 298,-48 298,-78"/>
<text text-anchor="start" x="181" y="-66" font-family="Helvetica,sans-Serif" font-size="10.00">Arcane::TraceAccessor</text>
<text text-anchor="middle" x="235.5" y="-55" font-family="Helvetica,sans-Serif" font-size="10.00">::TraceAccessor</text>
</a>
</g>
</g>
<!-- Node1&#45;&gt;Node4 -->
<g id="edge3_Node000001_Node000004" class="edge">
<title>Node1&#45;&gt;Node4</title>
<g id="a_edge3_Node000001_Node000004"><a xlink:title=" ">
<path fill="none" stroke="#63b8ff" d="M133.02,-77.58C142.79,-76.18 152.9,-74.73 162.79,-73.31"/>
<polygon fill="#63b8ff" stroke="#63b8ff" points="163.58,-76.73 172.98,-71.84 162.59,-69.8 163.58,-76.73"/>
</a>
</g>
</g>
<!-- Node7 -->
<g id="Node000007" class="node">
<title>Node7</title>
<g id="a_Node000007"><a xlink:href="../../d1/d17/classArcane_1_1TraceAccessor.html#ab0263636a823e11152e94c4cd094b706" target="_top" xlink:title="Gestionnaire de trace.">
<polygon fill="white" stroke="#666666" points="298,-30 173,-30 173,0 298,0 298,-30"/>
<text text-anchor="start" x="181" y="-18" font-family="Helvetica,sans-Serif" font-size="10.00">Arcane::TraceAccessor</text>
<text text-anchor="middle" x="235.5" y="-7" font-family="Helvetica,sans-Serif" font-size="10.00">::traceMng</text>
</a>
</g>
</g>
<!-- Node1&#45;&gt;Node7 -->
<g id="edge6_Node000001_Node000007" class="edge">
<title>Node1&#45;&gt;Node7</title>
<g id="a_edge6_Node000001_Node000007"><a xlink:title=" ">
<path fill="none" stroke="#63b8ff" d="M97.38,-72C117.43,-62.14 144.55,-49.24 169,-39 173.2,-37.24 177.57,-35.48 181.99,-33.76"/>
<polygon fill="#63b8ff" stroke="#63b8ff" points="183.56,-36.91 191.65,-30.07 181.06,-30.37 183.56,-36.91"/>
</a>
</g>
</g>
<!-- Node5 -->
<g id="Node000005" class="node">
<title>Node5</title>
<g id="a_Node000005"><a xlink:href="../../d0/d32/namespaceArcane.html#ab92dc7635f8e1ceb84728b8c45dba2b1" target="_top" xlink:title="Créé une référence sur un pointeur.">
<polygon fill="white" stroke="#666666" points="438,-72.5 338,-72.5 338,-53.5 438,-53.5 438,-72.5"/>
<text text-anchor="middle" x="388" y="-60.5" font-family="Helvetica,sans-Serif" font-size="10.00">Arcane::makeRef</text>
</a>
</g>
</g>
<!-- Node4&#45;&gt;Node5 -->
<g id="edge4_Node000004_Node000005" class="edge">
<title>Node4&#45;&gt;Node5</title>
<g id="a_edge4_Node000004_Node000005"><a xlink:title=" ">
<path fill="none" stroke="#63b8ff" d="M298.15,-63C307.81,-63 317.77,-63 327.38,-63"/>
<polygon fill="#63b8ff" stroke="#63b8ff" points="327.64,-66.5 337.64,-63 327.64,-59.5 327.64,-66.5"/>
</a>
</g>
</g>
<!-- Node6 -->
<g id="Node000006" class="node">
<title>Node6</title>
<g id="a_Node000006"><a xlink:href="../../d6/da9/classArcane_1_1Ref.html#ab0cd388abdc8d216d1534c5b0ef9cf83" target="_top" xlink:title="Créé une référence à partir de l&#39;instance t.">
<polygon fill="white" stroke="#666666" points="583,-72.5 474,-72.5 474,-53.5 583,-53.5 583,-72.5"/>
<text text-anchor="middle" x="528.5" y="-60.5" font-family="Helvetica,sans-Serif" font-size="10.00">Arcane::Ref::create</text>
</a>
</g>
</g>
<!-- Node5&#45;&gt;Node6 -->
<g id="edge5_Node000005_Node000006" class="edge">
<title>Node5&#45;&gt;Node6</title>
<g id="a_edge5_Node000005_Node000006"><a xlink:title=" ">
<path fill="none" stroke="#63b8ff" d="M438.22,-63C446.4,-63 454.99,-63 463.47,-63"/>
<polygon fill="#63b8ff" stroke="#63b8ff" points="463.74,-66.5 473.74,-63 463.74,-59.5 463.74,-66.5"/>
</a>
</g>
</g>
</g>
</svg>
