<?xml version="1.0" encoding="UTF-8" standalone="no"?>
<!DOCTYPE svg PUBLIC "-//W3C//DTD SVG 1.1//EN"
 "http://www.w3.org/Graphics/SVG/1.1/DTD/svg11.dtd">
<!-- Generated by graphviz version 2.43.0 (0)
 -->
<!-- Title: Arcane::Cell::hChild Pages: 1 -->
<!--zoomable 548 -->

<svg id="main" version="1.1" xmlns="http://www.w3.org/2000/svg" xmlns:xlink="http://www.w3.org/1999/xlink" xml:space="preserve" onload="init(evt)">

<style type="text/css"><![CDATA[
.node, .edge {opacity: 0.7;}
.node.selected, .edge.selected {opacity: 1;}
.edge:hover path { stroke: red; }
.edge:hover polygon { stroke: red; fill: red; }
]]></style>

<defs>
  <circle id="rim" cx="0" cy="0" r="7"/>
  <circle id="rim2" cx="0" cy="0" r="3.5"/>
  <g id="zoomPlus">
    <use xlink:href="#rim" fill="#404040"><set attributeName="fill" to="#808080" begin="zoomplus.mouseover" end="zoomplus.mouseout"/></use>
    <path d="M-4,0h8M0,-4v8" fill="none" stroke="white" stroke-width="1.5" pointer-events="none"/>
  </g>
  <g id="zoomMin">
    <use xlink:href="#rim" fill="#404040"><set attributeName="fill" to="#808080" begin="zoomminus.mouseover" end="zoomminus.mouseout"/></use>
    <path d="M-4,0h8" fill="none" stroke="white" stroke-width="1.5" pointer-events="none"/>
  </g>
  <g id="arrowUp" transform="translate(30 24)">
    <use xlink:href="#rim"/>
    <path pointer-events="none" fill="none" stroke="white" stroke-width="1.5" d="M0,-3.0v7 M-2.5,-0.5L0,-3.0L2.5,-0.5"/>
  </g>
  <g id="arrowRight" transform="rotate(90) translate(36 -43)">
    <use xlink:href="#rim"/>
    <path pointer-events="none" fill="none" stroke="white" stroke-width="1.5" d="M0,-3.0v7 M-2.5,-0.5L0,-3.0L2.5,-0.5"/>
  </g>
  <g id="arrowDown" transform="rotate(180) translate(-30 -48)">
    <use xlink:href="#rim"/>
    <path pointer-events="none" fill="none" stroke="white" stroke-width="1.5" d="M0,-3.0v7 M-2.5,-0.5L0,-3.0L2.5,-0.5"/>
  </g>
  <g id="arrowLeft" transform="rotate(270) translate(-36 17)">
    <use xlink:href="#rim"/>
    <path pointer-events="none" fill="none" stroke="white" stroke-width="1.5" d="M0,-3.0v7 M-2.5,-0.5L0,-3.0L2.5,-0.5"/>
  </g>
  <g id="resetDef">
    <use xlink:href="#rim2" fill="#404040"><set attributeName="fill" to="#808080" begin="reset.mouseover" end="reset.mouseout"/></use>
  </g>
</defs>
<script type="application/ecmascript">
var viewWidth = 601;
var viewHeight = 548;
var sectionId = 'dynsection-14';
</script>
<script type="application/ecmascript" xlink:href="../../svg.min.js"/>
<svg id="graph" class="graph">
<g id="viewport">
<title>Arcane::Cell::hChild</title>
<!-- Node1 -->
<g id="Node000001" class="node">
<title>Node1</title>
<g id="a_Node000001"><a xlink:title="i&#45;ème enfant AMR">
<polygon fill="#999999" stroke="#666666" points="593,-264.5 481,-264.5 481,-245.5 593,-245.5 593,-264.5"/>
<text text-anchor="middle" x="537" y="-252.5" font-family="Helvetica,sans-Serif" font-size="10.00">Arcane::Cell::hChild</text>
</a>
</g>
</g>
<!-- Node2 -->
<g id="Node000002" class="node">
<title>Node2</title>
<g id="a_Node000002"><a xlink:href="../../db/d6f/classArcane_1_1CartesianMeshImpl.html#aa80f37d27880a4d42a8e2cc3730471e9" target="_top" xlink:title="Créé un patch avec tous les enfants du groupe parent_cells.">
<polygon fill="white" stroke="#666666" points="407.5,-540 256.5,-540 256.5,-510 407.5,-510 407.5,-540"/>
<text text-anchor="start" x="264.5" y="-528" font-family="Helvetica,sans-Serif" font-size="10.00">Arcane::CartesianMeshImpl</text>
<text text-anchor="middle" x="332" y="-517" font-family="Helvetica,sans-Serif" font-size="10.00">::_addPatch</text>
</a>
</g>
</g>
<!-- Node1&#45;&gt;Node2 -->
<g id="edge1_Node000001_Node000002" class="edge">
<title>Node1&#45;&gt;Node2</title>
<g id="a_edge1_Node000001_Node000002"><a xlink:title=" ">
<path fill="none" stroke="#63b8ff" d="M534.89,-274.64C531.12,-321.51 514.8,-440.54 445,-501 434.4,-510.18 421.15,-516.12 407.5,-519.92"/>
<polygon fill="#63b8ff" stroke="#63b8ff" points="538.38,-274.8 535.59,-264.59 531.4,-274.32 538.38,-274.8"/>
</a>
</g>
</g>
<!-- Node3 -->
<g id="Node000003" class="node">
<title>Node3</title>
<g id="a_Node000003"><a xlink:href="../../db/d8e/classArcaneTest_1_1AMRCartesianMeshTesterModule.html#a67937782160648309411fef1a0e2fd19" target="_top" xlink:title="Calcule la densité d&#39;une maille AMR.">
<polygon fill="white" stroke="#666666" points="422,-473.5 242,-473.5 242,-432.5 422,-432.5 422,-473.5"/>
<text text-anchor="start" x="250" y="-461.5" font-family="Helvetica,sans-Serif" font-size="10.00">ArcaneTest::AMRCartesian</text>
<text text-anchor="start" x="250" y="-450.5" font-family="Helvetica,sans-Serif" font-size="10.00">MeshTesterModule::_computeSub</text>
<text text-anchor="middle" x="332" y="-439.5" font-family="Helvetica,sans-Serif" font-size="10.00">CellDensity</text>
</a>
</g>
</g>
<!-- Node1&#45;&gt;Node3 -->
<g id="edge2_Node000001_Node000003" class="edge">
<title>Node1&#45;&gt;Node3</title>
<g id="a_edge2_Node000001_Node000003"><a xlink:title=" ">
<path fill="none" stroke="#63b8ff" d="M530.9,-274.74C520.75,-310.02 494.58,-383.88 445,-423 438.13,-428.42 430.35,-432.87 422.19,-436.52"/>
<polygon fill="#63b8ff" stroke="#63b8ff" points="534.38,-275.3 533.65,-264.73 527.63,-273.45 534.38,-275.3"/>
</a>
</g>
</g>
<!-- Node4 -->
<g id="Node000004" class="node">
<title>Node4</title>
<g id="a_Node000004"><a xlink:href="../../dc/d2d/classArcane_1_1mesh_1_1MeshRefinement.html#a9ff6789cffa454c0653f75a6d70d9131" target="_top" xlink:title=" ">
<polygon fill="white" stroke="#666666" points="418,-414 246,-414 246,-384 418,-384 418,-414"/>
<text text-anchor="start" x="254" y="-402" font-family="Helvetica,sans-Serif" font-size="10.00">Arcane::mesh::MeshRefinement</text>
<text text-anchor="middle" x="332" y="-391" font-family="Helvetica,sans-Serif" font-size="10.00">::_makeCoarseningCompatible</text>
</a>
</g>
</g>
<!-- Node1&#45;&gt;Node4 -->
<g id="edge4_Node000001_Node000004" class="edge">
<title>Node1&#45;&gt;Node4</title>
<g id="a_edge4_Node000001_Node000004"><a xlink:title=" ">
<path fill="none" stroke="#63b8ff" d="M527.2,-273.77C513.57,-300.67 484.71,-349.74 445,-375 436.78,-380.23 427.6,-384.34 418.13,-387.56"/>
<polygon fill="#63b8ff" stroke="#63b8ff" points="530.42,-275.16 531.67,-264.64 524.13,-272.08 530.42,-275.16"/>
</a>
</g>
</g>
<!-- Node7 -->
<g id="Node000007" class="node">
<title>Node7</title>
<g id="a_Node000007"><a xlink:href="../../dc/d2d/classArcane_1_1mesh_1_1MeshRefinement.html#ae4c49694d78f433ba1f22385d21049b7" target="_top" xlink:title=" ">
<polygon fill="white" stroke="#666666" points="445,-366 219,-366 219,-336 445,-336 445,-366"/>
<text text-anchor="start" x="227" y="-354" font-family="Helvetica,sans-Serif" font-size="10.00">Arcane::mesh::MeshRefinement</text>
<text text-anchor="middle" x="332" y="-343" font-family="Helvetica,sans-Serif" font-size="10.00">::_populateBackFrontCellsFromParentFaces</text>
</a>
</g>
</g>
<!-- Node1&#45;&gt;Node7 -->
<g id="edge7_Node000001_Node000007" class="edge">
<title>Node1&#45;&gt;Node7</title>
<g id="a_edge7_Node000001_Node000007"><a xlink:title=" ">
<path fill="none" stroke="#63b8ff" d="M519.46,-272.04C502.36,-288.62 474.13,-313.28 445,-327 437.71,-330.43 429.93,-333.38 421.99,-335.91"/>
<polygon fill="#63b8ff" stroke="#63b8ff" points="522.29,-274.16 526.91,-264.62 517.35,-269.19 522.29,-274.16"/>
</a>
</g>
</g>
<!-- Node8 -->
<g id="Node000008" class="node">
<title>Node8</title>
<g id="a_Node000008"><a xlink:href="../../dc/d8a/classArcane_1_1CartesianMeshNumberingMng.html#ad2fbd36cc059c82a32f18798ab8ace6b" target="_top" xlink:title="Méthode permettant de récupérer une maille enfant d&#39;une maille parent à partir de la position de la m...">
<polygon fill="white" stroke="#666666" points="423.5,-318 240.5,-318 240.5,-288 423.5,-288 423.5,-318"/>
<text text-anchor="start" x="248.5" y="-306" font-family="Helvetica,sans-Serif" font-size="10.00">Arcane::CartesianMeshNumbering</text>
<text text-anchor="middle" x="332" y="-295" font-family="Helvetica,sans-Serif" font-size="10.00">Mng::childCellOfCell</text>
</a>
</g>
</g>
<!-- Node1&#45;&gt;Node8 -->
<g id="edge8_Node000001_Node000008" class="edge">
<title>Node1&#45;&gt;Node8</title>
<g id="a_edge8_Node000001_Node000008"><a xlink:title=" ">
<path fill="none" stroke="#63b8ff" d="M491.24,-267.25C476.54,-271.15 460.11,-275.39 445,-279 432.33,-282.03 418.81,-285.08 405.71,-287.94"/>
<polygon fill="#63b8ff" stroke="#63b8ff" points="492.34,-270.58 501.09,-264.61 490.53,-263.82 492.34,-270.58"/>
</a>
</g>
</g>
<!-- Node9 -->
<g id="Node000009" class="node">
<title>Node9</title>
<g id="a_Node000009"><a xlink:href="../../dc/d8a/classArcane_1_1CartesianMeshNumberingMng.html#aaba52eb4f58d87d0fd40c8bbdb93d842" target="_top" xlink:title="Méthode permettant de récupérer une maille enfant d&#39;une maille parent à partir de la position de la m...">
<polygon fill="white" stroke="#666666" points="423.5,-270 240.5,-270 240.5,-240 423.5,-240 423.5,-270"/>
<text text-anchor="start" x="248.5" y="-258" font-family="Helvetica,sans-Serif" font-size="10.00">Arcane::CartesianMeshNumbering</text>
<text text-anchor="middle" x="332" y="-247" font-family="Helvetica,sans-Serif" font-size="10.00">Mng::childCellOfCell</text>
</a>
</g>
</g>
<!-- Node1&#45;&gt;Node9 -->
<g id="edge9_Node000001_Node000009" class="edge">
<title>Node1&#45;&gt;Node9</title>
<g id="a_edge9_Node000001_Node000009"><a xlink:title=" ">
<path fill="none" stroke="#63b8ff" d="M470.66,-255C455.71,-255 439.56,-255 423.76,-255"/>
<polygon fill="#63b8ff" stroke="#63b8ff" points="470.8,-258.5 480.8,-255 470.8,-251.5 470.8,-258.5"/>
</a>
</g>
</g>
<!-- Node12 -->
<g id="Node000012" class="node">
<title>Node12</title>
<g id="a_Node000012"><a xlink:href="../../d7/d03/classArcane_1_1CartesianMeshAMRPatchMng.html#ab71423fcbf45daca1ccca75a88e5b368" target="_top" xlink:title="Méthode permettant de retirer les mailles marquées avec le flag &quot;II_Coarsen&quot;.">
<polygon fill="white" stroke="#666666" points="421,-222 243,-222 243,-192 421,-192 421,-222"/>
<text text-anchor="start" x="251" y="-210" font-family="Helvetica,sans-Serif" font-size="10.00">Arcane::CartesianMeshAMRPatch</text>
<text text-anchor="middle" x="332" y="-199" font-family="Helvetica,sans-Serif" font-size="10.00">Mng::coarsen</text>
</a>
</g>
</g>
<!-- Node1&#45;&gt;Node12 -->
<g id="edge12_Node000001_Node000012" class="edge">
<title>Node1&#45;&gt;Node12</title>
<g id="a_edge12_Node000001_Node000012"><a xlink:title=" ">
<path fill="none" stroke="#63b8ff" d="M491.24,-242.75C476.54,-238.85 460.11,-234.61 445,-231 432.33,-227.97 418.81,-224.92 405.71,-222.06"/>
<polygon fill="#63b8ff" stroke="#63b8ff" points="490.53,-246.18 501.09,-245.39 492.34,-239.42 490.53,-246.18"/>
</a>
</g>
</g>
<!-- Node13 -->
<g id="Node000013" class="node">
<title>Node13</title>
<g id="a_Node000013"><a xlink:href="../../dc/d2d/classArcane_1_1mesh_1_1MeshRefinement.html#a4034d7ff9163e2160651387dd8331ee1" target="_top" xlink:title="Méthode permettant de retirer les mailles marquées avec le flag &quot;II_Coarsen&quot;.">
<polygon fill="white" stroke="#666666" points="418,-174 246,-174 246,-144 418,-144 418,-174"/>
<text text-anchor="start" x="254" y="-162" font-family="Helvetica,sans-Serif" font-size="10.00">Arcane::mesh::MeshRefinement</text>
<text text-anchor="middle" x="332" y="-151" font-family="Helvetica,sans-Serif" font-size="10.00">::coarsenItemsV2</text>
</a>
</g>
</g>
<!-- Node1&#45;&gt;Node13 -->
<g id="edge13_Node000001_Node000013" class="edge">
<title>Node1&#45;&gt;Node13</title>
<g id="a_edge13_Node000001_Node000013"><a xlink:title=" ">
<path fill="none" stroke="#63b8ff" d="M519.46,-237.96C502.36,-221.38 474.13,-196.72 445,-183 436.54,-179.02 427.42,-175.69 418.15,-172.91"/>
<polygon fill="#63b8ff" stroke="#63b8ff" points="517.35,-240.81 526.91,-245.38 522.29,-235.84 517.35,-240.81"/>
</a>
</g>
</g>
<!-- Node14 -->
<g id="Node000014" class="node">
<title>Node14</title>
<g id="a_Node000014"><a xlink:href="../../db/de2/classArcane_1_1mesh_1_1ItemRefinement.html#adffd21824dde851f39b133a7cc0422cd" target="_top" xlink:title=" ">
<polygon fill="white" stroke="#666666" points="416,-126 248,-126 248,-96 416,-96 416,-126"/>
<text text-anchor="start" x="256" y="-114" font-family="Helvetica,sans-Serif" font-size="10.00">Arcane::mesh::ItemRefinement</text>
<text text-anchor="middle" x="332" y="-103" font-family="Helvetica,sans-Serif" font-size="10.00">::coarsenOneCell</text>
</a>
</g>
</g>
<!-- Node1&#45;&gt;Node14 -->
<g id="edge14_Node000001_Node000014" class="edge">
<title>Node1&#45;&gt;Node14</title>
<g id="a_edge14_Node000001_Node000014"><a xlink:title=" ">
<path fill="none" stroke="#63b8ff" d="M527.2,-236.23C513.57,-209.33 484.71,-160.26 445,-135 436.19,-129.4 426.28,-125.08 416.1,-121.76"/>
<polygon fill="#63b8ff" stroke="#63b8ff" points="524.13,-237.92 531.67,-245.36 530.42,-234.84 524.13,-237.92"/>
</a>
</g>
</g>
<!-- Node15 -->
<g id="Node000015" class="node">
<title>Node15</title>
<g id="a_Node000015"><a xlink:href="../../d7/d03/classArcane_1_1CartesianMeshAMRPatchMng.html#a457acbacd8393db706c7014265a5ec70" target="_top" xlink:title="Méthode permettant de raffiner les mailles avec le flag &quot;II_Refine&quot;.">
<polygon fill="white" stroke="#666666" points="421,-78 243,-78 243,-48 421,-48 421,-78"/>
<text text-anchor="start" x="251" y="-66" font-family="Helvetica,sans-Serif" font-size="10.00">Arcane::CartesianMeshAMRPatch</text>
<text text-anchor="middle" x="332" y="-55" font-family="Helvetica,sans-Serif" font-size="10.00">Mng::refine</text>
</a>
</g>
</g>
<!-- Node1&#45;&gt;Node15 -->
<g id="edge15_Node000001_Node000015" class="edge">
<title>Node1&#45;&gt;Node15</title>
<g id="a_edge15_Node000001_Node000015"><a xlink:title=" ">
<path fill="none" stroke="#63b8ff" d="M531.09,-235.01C521.25,-199.33 495.55,-124.85 445,-87 437.84,-81.64 429.73,-77.42 421.24,-74.1"/>
<polygon fill="#63b8ff" stroke="#63b8ff" points="527.83,-236.35 533.75,-245.14 534.6,-234.58 527.83,-236.35"/>
</a>
</g>
</g>
<!-- Node16 -->
<g id="Node000016" class="node">
<title>Node16</title>
<g id="a_Node000016"><a xlink:href="../../db/de2/classArcane_1_1mesh_1_1ItemRefinement.html#aaedc5350571dfbab9401c108af0e3db3" target="_top" xlink:title=" ">
<polygon fill="white" stroke="#666666" points="416,-30 248,-30 248,0 416,0 416,-30"/>
<text text-anchor="start" x="256" y="-18" font-family="Helvetica,sans-Serif" font-size="10.00">Arcane::mesh::ItemRefinement</text>
<text text-anchor="middle" x="332" y="-7" font-family="Helvetica,sans-Serif" font-size="10.00">::refineOneCell</text>
</a>
</g>
</g>
<!-- Node1&#45;&gt;Node16 -->
<g id="edge16_Node000001_Node000016" class="edge">
<title>Node1&#45;&gt;Node16</title>
<g id="a_edge16_Node000001_Node000016"><a xlink:title=" ">
<path fill="none" stroke="#63b8ff" d="M533.77,-235.45C527.8,-192.72 507.43,-90.7 445,-39 436.58,-32.02 426.6,-26.94 416.13,-23.25"/>
<polygon fill="#63b8ff" stroke="#63b8ff" points="530.3,-235.93 535.04,-245.41 537.25,-235.05 530.3,-235.93"/>
</a>
</g>
</g>
<!-- Node3&#45;&gt;Node3 -->
<g id="edge3_Node000003_Node000003" class="edge">
<title>Node3&#45;&gt;Node3</title>
<g id="a_edge3_Node000003_Node000003"><a xlink:title=" ">
<path fill="none" stroke="#63b8ff" d="M367.1,-483.46C361.88,-488.24 350.18,-491.5 332,-491.5 302.91,-491.5 290.42,-483.15 294.51,-473.6"/>
<polygon fill="#63b8ff" stroke="#63b8ff" points="370.53,-484.14 369.49,-473.6 363.73,-482.49 370.53,-484.14"/>
</a>
</g>
</g>
<!-- Node5 -->
<g id="Node000005" class="node">
<title>Node5</title>
<g id="a_Node000005"><a xlink:href="../../dc/d2d/classArcane_1_1mesh_1_1MeshRefinement.html#ae34593805186006d77df2ac90997be5d" target="_top" xlink:title=" ">
<polygon fill="white" stroke="#666666" points="177.5,-438 5.5,-438 5.5,-408 177.5,-408 177.5,-438"/>
<text text-anchor="start" x="13.5" y="-426" font-family="Helvetica,sans-Serif" font-size="10.00">Arcane::mesh::MeshRefinement</text>
<text text-anchor="middle" x="91.5" y="-415" font-family="Helvetica,sans-Serif" font-size="10.00">::coarsenItems</text>
</a>
</g>
</g>
<!-- Node4&#45;&gt;Node5 -->
<g id="edge5_Node000004_Node000005" class="edge">
<title>Node4&#45;&gt;Node5</title>
<g id="a_edge5_Node000004_Node000005"><a xlink:title=" ">
<path fill="none" stroke="#63b8ff" d="M235.91,-408.57C216.63,-410.51 196.47,-412.54 177.56,-414.44"/>
<polygon fill="#63b8ff" stroke="#63b8ff" points="236.31,-412.05 245.91,-407.56 235.61,-405.08 236.31,-412.05"/>
</a>
</g>
</g>
<!-- Node6 -->
<g id="Node000006" class="node">
<title>Node6</title>
<g id="a_Node000006"><a xlink:href="../../dc/d2d/classArcane_1_1mesh_1_1MeshRefinement.html#a61127955b9db295cb59a82007768fd1a" target="_top" xlink:title=" ">
<polygon fill="white" stroke="#666666" points="177.5,-390 5.5,-390 5.5,-360 177.5,-360 177.5,-390"/>
<text text-anchor="start" x="13.5" y="-378" font-family="Helvetica,sans-Serif" font-size="10.00">Arcane::mesh::MeshRefinement</text>
<text text-anchor="middle" x="91.5" y="-367" font-family="Helvetica,sans-Serif" font-size="10.00">::refineAndCoarsenItems</text>
</a>
</g>
</g>
<!-- Node4&#45;&gt;Node6 -->
<g id="edge6_Node000004_Node000006" class="edge">
<title>Node4&#45;&gt;Node6</title>
<g id="a_edge6_Node000004_Node000006"><a xlink:title=" ">
<path fill="none" stroke="#63b8ff" d="M235.91,-389.43C216.63,-387.49 196.47,-385.46 177.56,-383.56"/>
<polygon fill="#63b8ff" stroke="#63b8ff" points="235.61,-392.92 245.91,-390.44 236.31,-385.95 235.61,-392.92"/>
</a>
</g>
</g>
<!-- Node10 -->
<g id="Node000010" class="node">
<title>Node10</title>
<g id="a_Node000010"><a xlink:href="../../dc/d8a/classArcane_1_1CartesianMeshNumberingMng.html#ab1d61c0fdbe702f4c4345dac8b9eea2e" target="_top" xlink:title="Méthode permettant de définir les coordonnées spatiales des noeuds des mailles enfants d&#39;une maille p...">
<polygon fill="white" stroke="#666666" points="183,-294 0,-294 0,-264 183,-264 183,-294"/>
<text text-anchor="start" x="8" y="-282" font-family="Helvetica,sans-Serif" font-size="10.00">Arcane::CartesianMeshNumbering</text>
<text text-anchor="middle" x="91.5" y="-271" font-family="Helvetica,sans-Serif" font-size="10.00">Mng::setChildNodeCoordinates</text>
</a>
</g>
</g>
<!-- Node9&#45;&gt;Node10 -->
<g id="edge10_Node000009_Node000010" class="edge">
<title>Node9&#45;&gt;Node10</title>
<g id="a_edge10_Node000009_Node000010"><a xlink:title=" ">
<path fill="none" stroke="#63b8ff" d="M230.32,-265.13C214.73,-266.7 198.7,-268.31 183.34,-269.86"/>
<polygon fill="#63b8ff" stroke="#63b8ff" points="230.89,-268.59 240.49,-264.11 230.19,-261.63 230.89,-268.59"/>
</a>
</g>
</g>
<!-- Node11 -->
<g id="Node000011" class="node">
<title>Node11</title>
<g id="a_Node000011"><a xlink:href="../../dc/d8a/classArcane_1_1CartesianMeshNumberingMng.html#aeac0e553f686e273904608907ac4fd49" target="_top" xlink:title="Méthode permettant de définir les coordonnées spatiales des noeuds d&#39;une maille parent....">
<polygon fill="white" stroke="#666666" points="183,-246 0,-246 0,-216 183,-216 183,-246"/>
<text text-anchor="start" x="8" y="-234" font-family="Helvetica,sans-Serif" font-size="10.00">Arcane::CartesianMeshNumbering</text>
<text text-anchor="middle" x="91.5" y="-223" font-family="Helvetica,sans-Serif" font-size="10.00">Mng::setParentNodeCoordinates</text>
</a>
</g>
</g>
<!-- Node9&#45;&gt;Node11 -->
<g id="edge11_Node000009_Node000011" class="edge">
<title>Node9&#45;&gt;Node11</title>
<g id="a_edge11_Node000009_Node000011"><a xlink:title=" ">
<path fill="none" stroke="#63b8ff" d="M230.32,-244.87C214.73,-243.3 198.7,-241.69 183.34,-240.14"/>
<polygon fill="#63b8ff" stroke="#63b8ff" points="230.19,-248.37 240.49,-245.89 230.89,-241.41 230.19,-248.37"/>
</a>
</g>
</g>
</g>
</svg>

<g id="navigator" transform="translate(0 0)" fill="#404254">
  <rect fill="#f2f5e9" fill-opacity="0.5" stroke="#606060" stroke-width=".5" x="0" y="0" width="60" height="60"/>
  <use id="zoomplus" xlink:href="#zoomPlus" x="17" y="9" onmousedown="handleZoom(evt,'in')"/>
  <use id="zoomminus" xlink:href="#zoomMin" x="42" y="9" onmousedown="handleZoom(evt,'out')"/>
  <use id="reset" xlink:href="#resetDef" x="30" y="36" onmousedown="handleReset()"/>
   <use id="arrowup" xlink:href="#arrowUp" x="0" y="0" onmousedown="handlePan(0,-1)"/>
  <use id="arrowright" xlink:href="#arrowRight" x="0" y="0" onmousedown="handlePan(1,0)"/>
  <use id="arrowdown" xlink:href="#arrowDown" x="0" y="0" onmousedown="handlePan(0,1)"/>
  <use id="arrowleft" xlink:href="#arrowLeft" x="0" y="0" onmousedown="handlePan(-1,0)"/>
</g>
<svg viewBox="0 0 15 15" width="100%" height="30px" preserveAspectRatio="xMaxYMin meet">
 <g id="arrow_out" transform="scale(0.3 0.3)">
  <a xlink:href="classArcane_1_1Cell_a89b2ff990afedbdca14c86b521e42290_icgraph_org.svg" target="_base">
   <rect id="button" ry="5" rx="5" y="6" x="6" height="38" width="38"
        fill="#f2f5e9" fill-opacity="0.5" stroke="#606060" stroke-width="1.0"/>
   <path id="arrow"
     d="M 11.500037,31.436501 C 11.940474,20.09759 22.043105,11.32322 32.158766,21.979434 L 37.068811,17.246167 C 37.068811,17.246167 37.088388,32 37.088388,32 L 22.160133,31.978069 C 22.160133,31.978069 26.997745,27.140456 26.997745,27.140456 C 18.528582,18.264221 13.291696,25.230495 11.500037,31.436501 z"
     style="fill:#404040;"/>
  </a>
 </g>
</svg>

<style type='text/css'>
<![CDATA[
[data-mouse-over-selected='false'] { opacity: 0.7; }
[data-mouse-over-selected='true']  { opacity: 1.0; }
]]>
</style>
<script type="application/ecmascript"><![CDATA[
document.addEventListener('DOMContentLoaded', (event) => {
  highlightEdges();
  highlightAdjacentNodes();
});
]]></script>
</svg>
