<?xml version="1.0" encoding="UTF-8" standalone="no"?>
<!DOCTYPE svg PUBLIC "-//W3C//DTD SVG 1.1//EN"
 "http://www.w3.org/Graphics/SVG/1.1/DTD/svg11.dtd">
<!-- Generated by graphviz version 2.43.0 (0)
 -->
<!-- Title: Arcane::AcceleratorRuntimeInitialisationInfo Pages: 1 -->
<svg width="195pt" height="369pt"
 viewBox="0.00 0.00 195.00 369.00" xmlns="http://www.w3.org/2000/svg" xmlns:xlink="http://www.w3.org/1999/xlink">
<g id="graph0" class="graph" transform="scale(1 1) rotate(0) translate(4 365)">
<title>Arcane::AcceleratorRuntimeInitialisationInfo</title>
<!-- Node1 -->
<g id="Node000001" class="node">
<title>Node1</title>
<g id="a_Node000001"><a xlink:title="Informations pour l&#39;initialisation des accélérateurs.">
<polygon fill="#999999" stroke="transparent" points="187,-361 0,-361 0,-118 187,-118 187,-361"/>
<text text-anchor="start" x="25.5" y="-348.5" font-family="Helvetica,sans-Serif" font-size="10.00">Arcane::AcceleratorRuntime</text>
<text text-anchor="start" x="54" y="-337.5" font-family="Helvetica,sans-Serif" font-size="10.00">InitialisationInfo</text>
<text text-anchor="start" x="7" y="-322.5" font-family="Helvetica,sans-Serif" font-size="10.00">&#45;</text>
<text text-anchor="start" x="17.5" y="-322.5" font-family="Helvetica,sans-Serif" font-size="10.00">m_p</text>
<text text-anchor="start" x="4.5" y="-307.5" font-family="Helvetica,sans-Serif" font-size="10.00">+</text>
<text text-anchor="start" x="17.5" y="-307.5" font-family="Helvetica,sans-Serif" font-size="10.00">AcceleratorRuntimeInitialisation</text>
<text text-anchor="start" x="17.5" y="-296.5" font-family="Helvetica,sans-Serif" font-size="10.00">Info()</text>
<text text-anchor="start" x="4.5" y="-281.5" font-family="Helvetica,sans-Serif" font-size="10.00">+</text>
<text text-anchor="start" x="17.5" y="-281.5" font-family="Helvetica,sans-Serif" font-size="10.00">AcceleratorRuntimeInitialisation</text>
<text text-anchor="start" x="17.5" y="-270.5" font-family="Helvetica,sans-Serif" font-size="10.00">Info()</text>
<text text-anchor="start" x="4.5" y="-255.5" font-family="Helvetica,sans-Serif" font-size="10.00">+</text>
<text text-anchor="start" x="17.5" y="-255.5" font-family="Helvetica,sans-Serif" font-size="10.00">~AcceleratorRuntimeInitialisation</text>
<text text-anchor="start" x="17.5" y="-244.5" font-family="Helvetica,sans-Serif" font-size="10.00">Info()</text>
<text text-anchor="start" x="4.5" y="-229.5" font-family="Helvetica,sans-Serif" font-size="10.00">+</text>
<text text-anchor="start" x="17.5" y="-229.5" font-family="Helvetica,sans-Serif" font-size="10.00">operator=()</text>
<text text-anchor="start" x="4.5" y="-214.5" font-family="Helvetica,sans-Serif" font-size="10.00">+</text>
<text text-anchor="start" x="17.5" y="-214.5" font-family="Helvetica,sans-Serif" font-size="10.00">setIsUsingAcceleratorRuntime()</text>
<text text-anchor="start" x="4.5" y="-199.5" font-family="Helvetica,sans-Serif" font-size="10.00">+</text>
<text text-anchor="start" x="17.5" y="-199.5" font-family="Helvetica,sans-Serif" font-size="10.00">isUsingAcceleratorRuntime()</text>
<text text-anchor="start" x="4.5" y="-184.5" font-family="Helvetica,sans-Serif" font-size="10.00">+</text>
<text text-anchor="start" x="17.5" y="-184.5" font-family="Helvetica,sans-Serif" font-size="10.00">setAcceleratorRuntime()</text>
<text text-anchor="start" x="4.5" y="-169.5" font-family="Helvetica,sans-Serif" font-size="10.00">+</text>
<text text-anchor="start" x="17.5" y="-169.5" font-family="Helvetica,sans-Serif" font-size="10.00">acceleratorRuntime()</text>
<text text-anchor="start" x="4.5" y="-154.5" font-family="Helvetica,sans-Serif" font-size="10.00">+</text>
<text text-anchor="start" x="17.5" y="-154.5" font-family="Helvetica,sans-Serif" font-size="10.00">setDeviceId()</text>
<text text-anchor="start" x="4.5" y="-139.5" font-family="Helvetica,sans-Serif" font-size="10.00">+</text>
<text text-anchor="start" x="17.5" y="-139.5" font-family="Helvetica,sans-Serif" font-size="10.00">deviceId()</text>
<text text-anchor="start" x="4.5" y="-124.5" font-family="Helvetica,sans-Serif" font-size="10.00">+</text>
<text text-anchor="start" x="17.5" y="-124.5" font-family="Helvetica,sans-Serif" font-size="10.00">executionPolicy()</text>
<polygon fill="#666666" stroke="#666666" points="0.5,-332.5 0.5,-332.5 187.5,-332.5 187.5,-332.5 0.5,-332.5"/>
<polygon fill="#666666" stroke="#666666" points="0.5,-317.5 0.5,-317.5 15.5,-317.5 15.5,-317.5 0.5,-317.5"/>
<polygon fill="#666666" stroke="#666666" points="15.5,-317.5 15.5,-317.5 187.5,-317.5 187.5,-317.5 15.5,-317.5"/>
<polygon fill="none" stroke="#666666" points="0,-118 0,-361 187,-361 187,-118 0,-118"/>
</a>
</g>
</g>
<!-- Node2 -->
<g id="Node000002" class="node">
<title>Node2</title>
<g id="a_Node000002"><a xlink:href="../../da/d1c/classArcane_1_1Accelerator_1_1AcceleratorRuntimeInitialisationInfoProperties.html" target="_top" xlink:title=" ">
<polygon fill="white" stroke="transparent" points="180.5,-82 6.5,-82 6.5,0 180.5,0 180.5,-82"/>
<text text-anchor="start" x="11.5" y="-70" font-family="Helvetica,sans-Serif" font-size="10.00">Arcane::Accelerator</text>
<text text-anchor="start" x="11.5" y="-59" font-family="Helvetica,sans-Serif" font-size="10.00">::AcceleratorRuntimeInitialisation</text>
<text text-anchor="start" x="59" y="-48" font-family="Helvetica,sans-Serif" font-size="10.00">InfoProperties</text>
<text text-anchor="start" x="91.5" y="-33" font-family="Helvetica,sans-Serif" font-size="10.00"> </text>
<text text-anchor="start" x="13" y="-18" font-family="Helvetica,sans-Serif" font-size="10.00">&#45;</text>
<text text-anchor="start" x="23.5" y="-18" font-family="Helvetica,sans-Serif" font-size="10.00">ARCANE_DECLARE_PROPERTY</text>
<text text-anchor="start" x="23.5" y="-7" font-family="Helvetica,sans-Serif" font-size="10.00">_CLASS()</text>
<polygon fill="#bfbfbf" stroke="#bfbfbf" points="6.5,-43 6.5,-43 180.5,-43 180.5,-43 6.5,-43"/>
<polygon fill="#bfbfbf" stroke="#bfbfbf" points="6.5,-28 6.5,-28 180.5,-28 180.5,-28 6.5,-28"/>
<polygon fill="none" stroke="#bfbfbf" points="6.5,0 6.5,-82 180.5,-82 180.5,0 6.5,0"/>
</a>
</g>
</g>
<!-- Node1&#45;&gt;Node2 -->
<g id="edge1_Node000001_Node000002" class="edge">
<title>Node1&#45;&gt;Node2</title>
<g id="a_edge1_Node000001_Node000002"><a xlink:title=" ">
<path fill="none" stroke="#63b8ff" d="M93.5,-107.97C93.5,-98.89 93.5,-90.22 93.5,-82.33"/>
<polygon fill="none" stroke="#63b8ff" points="90,-107.97 93.5,-117.97 97,-107.97 90,-107.97"/>
</a>
</g>
</g>
</g>
</svg>
