<?xml version="1.0" encoding="UTF-8" standalone="no"?>
<!DOCTYPE svg PUBLIC "-//W3C//DTD SVG 1.1//EN"
 "http://www.w3.org/Graphics/SVG/1.1/DTD/svg11.dtd">
<!-- Generated by graphviz version 2.43.0 (0)
 -->
<!-- Title: Arcane::MessagePassing::HybridMachineShMemWinBaseInternal Pages: 1 -->
<!--zoomable 1580 -->

<svg id="main" version="1.1" xmlns="http://www.w3.org/2000/svg" xmlns:xlink="http://www.w3.org/1999/xlink" xml:space="preserve" onload="init(evt)">

<style type="text/css"><![CDATA[
.node, .edge {opacity: 0.7;}
.node.selected, .edge.selected {opacity: 1;}
.edge:hover path { stroke: red; }
.edge:hover polygon { stroke: red; fill: red; }
]]></style>

<defs>
  <circle id="rim" cx="0" cy="0" r="7"/>
  <circle id="rim2" cx="0" cy="0" r="3.5"/>
  <g id="zoomPlus">
    <use xlink:href="#rim" fill="#404040"><set attributeName="fill" to="#808080" begin="zoomplus.mouseover" end="zoomplus.mouseout"/></use>
    <path d="M-4,0h8M0,-4v8" fill="none" stroke="white" stroke-width="1.5" pointer-events="none"/>
  </g>
  <g id="zoomMin">
    <use xlink:href="#rim" fill="#404040"><set attributeName="fill" to="#808080" begin="zoomminus.mouseover" end="zoomminus.mouseout"/></use>
    <path d="M-4,0h8" fill="none" stroke="white" stroke-width="1.5" pointer-events="none"/>
  </g>
  <g id="arrowUp" transform="translate(30 24)">
    <use xlink:href="#rim"/>
    <path pointer-events="none" fill="none" stroke="white" stroke-width="1.5" d="M0,-3.0v7 M-2.5,-0.5L0,-3.0L2.5,-0.5"/>
  </g>
  <g id="arrowRight" transform="rotate(90) translate(36 -43)">
    <use xlink:href="#rim"/>
    <path pointer-events="none" fill="none" stroke="white" stroke-width="1.5" d="M0,-3.0v7 M-2.5,-0.5L0,-3.0L2.5,-0.5"/>
  </g>
  <g id="arrowDown" transform="rotate(180) translate(-30 -48)">
    <use xlink:href="#rim"/>
    <path pointer-events="none" fill="none" stroke="white" stroke-width="1.5" d="M0,-3.0v7 M-2.5,-0.5L0,-3.0L2.5,-0.5"/>
  </g>
  <g id="arrowLeft" transform="rotate(270) translate(-36 17)">
    <use xlink:href="#rim"/>
    <path pointer-events="none" fill="none" stroke="white" stroke-width="1.5" d="M0,-3.0v7 M-2.5,-0.5L0,-3.0L2.5,-0.5"/>
  </g>
  <g id="resetDef">
    <use xlink:href="#rim2" fill="#404040"><set attributeName="fill" to="#808080" begin="reset.mouseover" end="reset.mouseout"/></use>
  </g>
</defs>
<script type="application/ecmascript">
var viewWidth = 690;
var viewHeight = 1580;
var sectionId = 'dynsection-1';
</script>
<script type="application/ecmascript" xlink:href="../../svg.min.js"/>
<svg id="graph" class="graph">
<g id="viewport">
<title>Arcane::MessagePassing::HybridMachineShMemWinBaseInternal</title>
<!-- Node1 -->
<g id="Node000001" class="node">
<title>Node1</title>
<g id="a_Node000001"><a xlink:title=" ">
<polygon fill="#999999" stroke="transparent" points="458,-277 251,-277 251,0 458,0 458,-277"/>
<text text-anchor="start" x="256.5" y="-264.5" font-family="Helvetica,sans-Serif" font-size="10.00">Arcane::MessagePassing</text>
<text text-anchor="start" x="256.5" y="-253.5" font-family="Helvetica,sans-Serif" font-size="10.00">::HybridMachineShMemWinBaseInternal</text>
<text text-anchor="start" x="264" y="-238.5" font-family="Helvetica,sans-Serif" font-size="10.00">&#45;</text>
<text text-anchor="start" x="280.5" y="-238.5" font-family="Helvetica,sans-Serif" font-size="10.00">m_my_rank_local_proc</text>
<text text-anchor="start" x="264" y="-223.5" font-family="Helvetica,sans-Serif" font-size="10.00">&#45;</text>
<text text-anchor="start" x="280.5" y="-223.5" font-family="Helvetica,sans-Serif" font-size="10.00">m_nb_rank_local_proc</text>
<text text-anchor="start" x="264" y="-208.5" font-family="Helvetica,sans-Serif" font-size="10.00">&#45;</text>
<text text-anchor="start" x="280.5" y="-208.5" font-family="Helvetica,sans-Serif" font-size="10.00">m_my_rank_mpi</text>
<text text-anchor="start" x="264" y="-193.5" font-family="Helvetica,sans-Serif" font-size="10.00">&#45;</text>
<text text-anchor="start" x="280.5" y="-193.5" font-family="Helvetica,sans-Serif" font-size="10.00">m_sizeof_type</text>
<text text-anchor="start" x="261.5" y="-178.5" font-family="Helvetica,sans-Serif" font-size="10.00">+</text>
<text text-anchor="start" x="280.5" y="-178.5" font-family="Helvetica,sans-Serif" font-size="10.00">HybridMachineShMemWinBase</text>
<text text-anchor="start" x="280.5" y="-167.5" font-family="Helvetica,sans-Serif" font-size="10.00">Internal()</text>
<text text-anchor="start" x="261.5" y="-152.5" font-family="Helvetica,sans-Serif" font-size="10.00">+</text>
<text text-anchor="start" x="280.5" y="-152.5" font-family="Helvetica,sans-Serif" font-size="10.00">~HybridMachineShMemWinBase</text>
<text text-anchor="start" x="280.5" y="-141.5" font-family="Helvetica,sans-Serif" font-size="10.00">Internal()</text>
<text text-anchor="start" x="261.5" y="-126.5" font-family="Helvetica,sans-Serif" font-size="10.00">+</text>
<text text-anchor="start" x="280.5" y="-126.5" font-family="Helvetica,sans-Serif" font-size="10.00">sizeofOneElem()</text>
<text text-anchor="start" x="261.5" y="-111.5" font-family="Helvetica,sans-Serif" font-size="10.00">+</text>
<text text-anchor="start" x="280.5" y="-111.5" font-family="Helvetica,sans-Serif" font-size="10.00">machineRanks()</text>
<text text-anchor="start" x="261.5" y="-96.5" font-family="Helvetica,sans-Serif" font-size="10.00">+</text>
<text text-anchor="start" x="280.5" y="-96.5" font-family="Helvetica,sans-Serif" font-size="10.00">barrier()</text>
<text text-anchor="start" x="261.5" y="-81.5" font-family="Helvetica,sans-Serif" font-size="10.00">+</text>
<text text-anchor="start" x="280.5" y="-81.5" font-family="Helvetica,sans-Serif" font-size="10.00">segmentView()</text>
<text text-anchor="start" x="261.5" y="-66.5" font-family="Helvetica,sans-Serif" font-size="10.00">+</text>
<text text-anchor="start" x="280.5" y="-66.5" font-family="Helvetica,sans-Serif" font-size="10.00">segmentView()</text>
<text text-anchor="start" x="261.5" y="-51.5" font-family="Helvetica,sans-Serif" font-size="10.00">+</text>
<text text-anchor="start" x="280.5" y="-51.5" font-family="Helvetica,sans-Serif" font-size="10.00">segmentConstView()</text>
<text text-anchor="start" x="261.5" y="-36.5" font-family="Helvetica,sans-Serif" font-size="10.00">+</text>
<text text-anchor="start" x="280.5" y="-36.5" font-family="Helvetica,sans-Serif" font-size="10.00">segmentConstView()</text>
<text text-anchor="start" x="261.5" y="-21.5" font-family="Helvetica,sans-Serif" font-size="10.00">+</text>
<text text-anchor="start" x="280.5" y="-21.5" font-family="Helvetica,sans-Serif" font-size="10.00">add()</text>
<text text-anchor="start" x="280.5" y="-6.5" font-family="Helvetica,sans-Serif" font-size="10.00">et 8 de plus...</text>
<polygon fill="#666666" stroke="#666666" points="251.5,-248.5 251.5,-248.5 458.5,-248.5 458.5,-248.5 251.5,-248.5"/>
<polygon fill="#666666" stroke="#666666" points="251.5,-188.5 251.5,-188.5 278.5,-188.5 278.5,-188.5 251.5,-188.5"/>
<polygon fill="#666666" stroke="#666666" points="278.5,-188.5 278.5,-188.5 458.5,-188.5 458.5,-188.5 278.5,-188.5"/>
<polygon fill="none" stroke="#666666" points="251,0 251,-277 458,-277 458,0 251,0"/>
</a>
</g>
</g>
<!-- Node2 -->
<g id="Node000002" class="node">
<title>Node2</title>
<g id="a_Node000002"><a xlink:href="../../d7/db5/classArcane_1_1MessagePassing_1_1IMachineShMemWinBaseInternal.html" target="_top" xlink:title="Classe permettant de créer des fenêtres mémoires pour un noeud de calcul.">
<polygon fill="white" stroke="transparent" points="199,-770 0,-770 0,-560 199,-560 199,-770"/>
<text text-anchor="start" x="16" y="-758" font-family="Helvetica,sans-Serif" font-size="10.00">Arcane::MessagePassing</text>
<text text-anchor="start" x="16" y="-747" font-family="Helvetica,sans-Serif" font-size="10.00">::IMachineShMemWinBaseInternal</text>
<text text-anchor="start" x="98" y="-732" font-family="Helvetica,sans-Serif" font-size="10.00"> </text>
<text text-anchor="start" x="4.5" y="-717" font-family="Helvetica,sans-Serif" font-size="10.00">+</text>
<text text-anchor="start" x="17.5" y="-717" font-family="Helvetica,sans-Serif" font-size="10.00">~IMachineShMemWinBaseInternal()</text>
<text text-anchor="start" x="4.5" y="-702" font-family="Helvetica,sans-Serif" font-size="10.00">+</text>
<text text-anchor="start" x="17.5" y="-702" font-family="Helvetica,sans-Serif" font-size="10.00">sizeofOneElem()</text>
<text text-anchor="start" x="4.5" y="-687" font-family="Helvetica,sans-Serif" font-size="10.00">+</text>
<text text-anchor="start" x="17.5" y="-687" font-family="Helvetica,sans-Serif" font-size="10.00">machineRanks()</text>
<text text-anchor="start" x="4.5" y="-672" font-family="Helvetica,sans-Serif" font-size="10.00">+</text>
<text text-anchor="start" x="17.5" y="-672" font-family="Helvetica,sans-Serif" font-size="10.00">barrier()</text>
<text text-anchor="start" x="4.5" y="-657" font-family="Helvetica,sans-Serif" font-size="10.00">+</text>
<text text-anchor="start" x="17.5" y="-657" font-family="Helvetica,sans-Serif" font-size="10.00">segmentView()</text>
<text text-anchor="start" x="4.5" y="-642" font-family="Helvetica,sans-Serif" font-size="10.00">+</text>
<text text-anchor="start" x="17.5" y="-642" font-family="Helvetica,sans-Serif" font-size="10.00">segmentView()</text>
<text text-anchor="start" x="4.5" y="-627" font-family="Helvetica,sans-Serif" font-size="10.00">+</text>
<text text-anchor="start" x="17.5" y="-627" font-family="Helvetica,sans-Serif" font-size="10.00">segmentConstView()</text>
<text text-anchor="start" x="4.5" y="-612" font-family="Helvetica,sans-Serif" font-size="10.00">+</text>
<text text-anchor="start" x="17.5" y="-612" font-family="Helvetica,sans-Serif" font-size="10.00">segmentConstView()</text>
<text text-anchor="start" x="4.5" y="-597" font-family="Helvetica,sans-Serif" font-size="10.00">+</text>
<text text-anchor="start" x="17.5" y="-597" font-family="Helvetica,sans-Serif" font-size="10.00">add()</text>
<text text-anchor="start" x="4.5" y="-582" font-family="Helvetica,sans-Serif" font-size="10.00">+</text>
<text text-anchor="start" x="17.5" y="-582" font-family="Helvetica,sans-Serif" font-size="10.00">add()</text>
<text text-anchor="start" x="17.5" y="-567" font-family="Helvetica,sans-Serif" font-size="10.00">et 7 de plus...</text>
<polygon fill="#666666" stroke="#666666" points="0.5,-742 0.5,-742 199.5,-742 199.5,-742 0.5,-742"/>
<polygon fill="#666666" stroke="#666666" points="0.5,-727 0.5,-727 199.5,-727 199.5,-727 0.5,-727"/>
<polygon fill="none" stroke="#666666" points="0,-560 0,-770 199,-770 199,-560 0,-560"/>
</a>
</g>
</g>
<!-- Node2&#45;&gt;Node1 -->
<g id="edge1_Node000001_Node000002" class="edge">
<title>Node2&#45;&gt;Node1</title>
<g id="a_edge1_Node000001_Node000002"><a xlink:title=" ">
<path fill="none" stroke="#63b8ff" d="M125.13,-549.82C143.03,-481.81 170.56,-395.16 208.5,-324 220.51,-301.47 235.36,-278.95 250.94,-257.77"/>
<polygon fill="none" stroke="#63b8ff" points="121.68,-549.16 122.56,-559.72 128.46,-550.92 121.68,-549.16"/>
</a>
</g>
</g>
<!-- Node3 -->
<g id="Node000003" class="node">
<title>Node3</title>
<g id="a_Node000003"><a xlink:href="../../d9/d2e/classArcane_1_1ConstArrayView.html" target="_top" xlink:title=" ">
<polygon fill="white" stroke="transparent" points="345.5,-882.5 217.5,-882.5 217.5,-447.5 345.5,-447.5 345.5,-882.5"/>
<text text-anchor="start" x="222.5" y="-870" font-family="Helvetica,sans-Serif" font-size="10.00">Arcane::ConstArrayView</text>
<text text-anchor="start" x="257.5" y="-859" font-family="Helvetica,sans-Serif" font-size="10.00">&lt; Int32 &gt;</text>
<text text-anchor="start" x="229" y="-844" font-family="Helvetica,sans-Serif" font-size="10.00">&#45;</text>
<text text-anchor="start" x="244.5" y="-844" font-family="Helvetica,sans-Serif" font-size="10.00">m_size</text>
<text text-anchor="start" x="229" y="-829" font-family="Helvetica,sans-Serif" font-size="10.00">&#45;</text>
<text text-anchor="start" x="244.5" y="-829" font-family="Helvetica,sans-Serif" font-size="10.00">m_ptr</text>
<text text-anchor="start" x="229" y="-814" font-family="Helvetica,sans-Serif" font-size="10.00">&#45;</text>
<text text-anchor="start" x="244.5" y="-814" font-family="Helvetica,sans-Serif" font-size="10.00">m_size</text>
<text text-anchor="start" x="229" y="-799" font-family="Helvetica,sans-Serif" font-size="10.00">&#45;</text>
<text text-anchor="start" x="244.5" y="-799" font-family="Helvetica,sans-Serif" font-size="10.00">m_ptr</text>
<text text-anchor="start" x="229" y="-784" font-family="Helvetica,sans-Serif" font-size="10.00">&#45;</text>
<text text-anchor="start" x="244.5" y="-784" font-family="Helvetica,sans-Serif" font-size="10.00">m_size</text>
<text text-anchor="start" x="229" y="-769" font-family="Helvetica,sans-Serif" font-size="10.00">&#45;</text>
<text text-anchor="start" x="244.5" y="-769" font-family="Helvetica,sans-Serif" font-size="10.00">m_ptr</text>
<text text-anchor="start" x="229" y="-754" font-family="Helvetica,sans-Serif" font-size="10.00">&#45;</text>
<text text-anchor="start" x="244.5" y="-754" font-family="Helvetica,sans-Serif" font-size="10.00">m_size</text>
<text text-anchor="start" x="229" y="-739" font-family="Helvetica,sans-Serif" font-size="10.00">&#45;</text>
<text text-anchor="start" x="244.5" y="-739" font-family="Helvetica,sans-Serif" font-size="10.00">m_ptr</text>
<text text-anchor="start" x="226.5" y="-724" font-family="Helvetica,sans-Serif" font-size="10.00">+</text>
<text text-anchor="start" x="244.5" y="-724" font-family="Helvetica,sans-Serif" font-size="10.00">ConstArrayView()</text>
<text text-anchor="start" x="226.5" y="-709" font-family="Helvetica,sans-Serif" font-size="10.00">+</text>
<text text-anchor="start" x="244.5" y="-709" font-family="Helvetica,sans-Serif" font-size="10.00">ConstArrayView()</text>
<text text-anchor="start" x="226.5" y="-694" font-family="Helvetica,sans-Serif" font-size="10.00">+</text>
<text text-anchor="start" x="244.5" y="-694" font-family="Helvetica,sans-Serif" font-size="10.00">ConstArrayView()</text>
<text text-anchor="start" x="226.5" y="-679" font-family="Helvetica,sans-Serif" font-size="10.00">+</text>
<text text-anchor="start" x="244.5" y="-679" font-family="Helvetica,sans-Serif" font-size="10.00">ConstArrayView()</text>
<text text-anchor="start" x="226.5" y="-664" font-family="Helvetica,sans-Serif" font-size="10.00">+</text>
<text text-anchor="start" x="244.5" y="-664" font-family="Helvetica,sans-Serif" font-size="10.00">ConstArrayView()</text>
<text text-anchor="start" x="226.5" y="-649" font-family="Helvetica,sans-Serif" font-size="10.00">+</text>
<text text-anchor="start" x="244.5" y="-649" font-family="Helvetica,sans-Serif" font-size="10.00">operator=()</text>
<text text-anchor="start" x="226.5" y="-634" font-family="Helvetica,sans-Serif" font-size="10.00">+</text>
<text text-anchor="start" x="244.5" y="-634" font-family="Helvetica,sans-Serif" font-size="10.00">operator=()</text>
<text text-anchor="start" x="226.5" y="-619" font-family="Helvetica,sans-Serif" font-size="10.00">+</text>
<text text-anchor="start" x="244.5" y="-619" font-family="Helvetica,sans-Serif" font-size="10.00">operator=()</text>
<text text-anchor="start" x="226.5" y="-604" font-family="Helvetica,sans-Serif" font-size="10.00">+</text>
<text text-anchor="start" x="244.5" y="-604" font-family="Helvetica,sans-Serif" font-size="10.00">subView()</text>
<text text-anchor="start" x="226.5" y="-589" font-family="Helvetica,sans-Serif" font-size="10.00">+</text>
<text text-anchor="start" x="244.5" y="-589" font-family="Helvetica,sans-Serif" font-size="10.00">subPart()</text>
<text text-anchor="start" x="244.5" y="-574" font-family="Helvetica,sans-Serif" font-size="10.00">et 106 de plus...</text>
<text text-anchor="start" x="226.5" y="-559" font-family="Helvetica,sans-Serif" font-size="10.00">+</text>
<text text-anchor="start" x="244.5" y="-559" font-family="Helvetica,sans-Serif" font-size="10.00">create()</text>
<text text-anchor="start" x="226.5" y="-544" font-family="Helvetica,sans-Serif" font-size="10.00">+</text>
<text text-anchor="start" x="244.5" y="-544" font-family="Helvetica,sans-Serif" font-size="10.00">create()</text>
<text text-anchor="start" x="226.5" y="-529" font-family="Helvetica,sans-Serif" font-size="10.00">+</text>
<text text-anchor="start" x="244.5" y="-529" font-family="Helvetica,sans-Serif" font-size="10.00">create()</text>
<text text-anchor="start" x="226.5" y="-514" font-family="Helvetica,sans-Serif" font-size="10.00">+</text>
<text text-anchor="start" x="244.5" y="-514" font-family="Helvetica,sans-Serif" font-size="10.00">create()</text>
<text text-anchor="start" x="229" y="-499" font-family="Helvetica,sans-Serif" font-size="10.00">&#45;</text>
<text text-anchor="start" x="244.5" y="-499" font-family="Helvetica,sans-Serif" font-size="10.00">_min()</text>
<text text-anchor="start" x="229" y="-484" font-family="Helvetica,sans-Serif" font-size="10.00">&#45;</text>
<text text-anchor="start" x="244.5" y="-484" font-family="Helvetica,sans-Serif" font-size="10.00">_min()</text>
<text text-anchor="start" x="229" y="-469" font-family="Helvetica,sans-Serif" font-size="10.00">&#45;</text>
<text text-anchor="start" x="244.5" y="-469" font-family="Helvetica,sans-Serif" font-size="10.00">_min()</text>
<text text-anchor="start" x="229" y="-454" font-family="Helvetica,sans-Serif" font-size="10.00">&#45;</text>
<text text-anchor="start" x="244.5" y="-454" font-family="Helvetica,sans-Serif" font-size="10.00">_min()</text>
<polygon fill="#666666" stroke="#666666" points="217.5,-854 217.5,-854 345.5,-854 345.5,-854 217.5,-854"/>
<polygon fill="#666666" stroke="#666666" points="217.5,-734 217.5,-734 242.5,-734 242.5,-734 217.5,-734"/>
<polygon fill="#666666" stroke="#666666" points="242.5,-734 242.5,-734 345.5,-734 345.5,-734 242.5,-734"/>
<polygon fill="none" stroke="#666666" points="217.5,-447.5 217.5,-882.5 345.5,-882.5 345.5,-447.5 217.5,-447.5"/>
</a>
</g>
</g>
<!-- Node3&#45;&gt;Node1 -->
<g id="edge2_Node000001_Node000003" class="edge">
<title>Node3&#45;&gt;Node1</title>
<g id="a_edge2_Node000001_Node000003"><a xlink:title=" ">
<path fill="none" stroke="#63b8ff" d="M289.55,-447.41C293.57,-397.11 299.57,-343.97 308.5,-295 308.85,-293.09 309.21,-291.17 309.59,-289.25"/>
<polygon fill="none" stroke="#63b8ff" points="309.62,-289.08 306.92,-282.39 312.06,-277.33 314.76,-284.02 309.62,-289.08"/>
</a>
</g>
<text text-anchor="middle" x="357" y="-298" font-family="Helvetica,sans-Serif" font-size="10.00" fill="grey"> &#45;m_machine_ranks</text>
</g>
<!-- Node4 -->
<g id="Node000004" class="node">
<title>Node4</title>
<g id="a_Node000004"><a xlink:href="../../d6/da9/classArcane_1_1Ref.html" target="_top" xlink:title=" ">
<polygon fill="white" stroke="transparent" points="543.5,-1006 363.5,-1006 363.5,-324 543.5,-324 543.5,-1006"/>
<text text-anchor="start" x="368.5" y="-994" font-family="Helvetica,sans-Serif" font-size="10.00">Arcane::Ref&lt; Arcane</text>
<text text-anchor="start" x="368.5" y="-983" font-family="Helvetica,sans-Serif" font-size="10.00">::MessagePassing::Mpi</text>
<text text-anchor="start" x="368.5" y="-972" font-family="Helvetica,sans-Serif" font-size="10.00">::MpiMultiMachineShMemWinBase</text>
<text text-anchor="start" x="429" y="-961" font-family="Helvetica,sans-Serif" font-size="10.00">Internal &gt;</text>
<text text-anchor="start" x="385.5" y="-946" font-family="Helvetica,sans-Serif" font-size="10.00">&#45;</text>
<text text-anchor="start" x="411.5" y="-946" font-family="Helvetica,sans-Serif" font-size="10.00">Base</text>
<text text-anchor="start" x="385.5" y="-931" font-family="Helvetica,sans-Serif" font-size="10.00">&#45;</text>
<text text-anchor="start" x="411.5" y="-931" font-family="Helvetica,sans-Serif" font-size="10.00">Base</text>
<text text-anchor="start" x="385.5" y="-916" font-family="Helvetica,sans-Serif" font-size="10.00">&#45;</text>
<text text-anchor="start" x="411.5" y="-916" font-family="Helvetica,sans-Serif" font-size="10.00">Base</text>
<text text-anchor="start" x="383" y="-901" font-family="Helvetica,sans-Serif" font-size="10.00">+</text>
<text text-anchor="start" x="411.5" y="-901" font-family="Helvetica,sans-Serif" font-size="10.00">Ref()</text>
<text text-anchor="start" x="383" y="-886" font-family="Helvetica,sans-Serif" font-size="10.00">+</text>
<text text-anchor="start" x="411.5" y="-886" font-family="Helvetica,sans-Serif" font-size="10.00">Ref()</text>
<text text-anchor="start" x="383" y="-871" font-family="Helvetica,sans-Serif" font-size="10.00">+</text>
<text text-anchor="start" x="411.5" y="-871" font-family="Helvetica,sans-Serif" font-size="10.00">Ref()</text>
<text text-anchor="start" x="383" y="-856" font-family="Helvetica,sans-Serif" font-size="10.00">+</text>
<text text-anchor="start" x="411.5" y="-856" font-family="Helvetica,sans-Serif" font-size="10.00">operator=()</text>
<text text-anchor="start" x="383" y="-841" font-family="Helvetica,sans-Serif" font-size="10.00">+</text>
<text text-anchor="start" x="411.5" y="-841" font-family="Helvetica,sans-Serif" font-size="10.00">~Ref()</text>
<text text-anchor="start" x="383" y="-826" font-family="Helvetica,sans-Serif" font-size="10.00">+</text>
<text text-anchor="start" x="411.5" y="-826" font-family="Helvetica,sans-Serif" font-size="10.00">Ref()</text>
<text text-anchor="start" x="383" y="-811" font-family="Helvetica,sans-Serif" font-size="10.00">+</text>
<text text-anchor="start" x="411.5" y="-811" font-family="Helvetica,sans-Serif" font-size="10.00">Ref()</text>
<text text-anchor="start" x="383" y="-796" font-family="Helvetica,sans-Serif" font-size="10.00">+</text>
<text text-anchor="start" x="411.5" y="-796" font-family="Helvetica,sans-Serif" font-size="10.00">Ref()</text>
<text text-anchor="start" x="383" y="-781" font-family="Helvetica,sans-Serif" font-size="10.00">+</text>
<text text-anchor="start" x="411.5" y="-781" font-family="Helvetica,sans-Serif" font-size="10.00">operator=()</text>
<text text-anchor="start" x="383" y="-766" font-family="Helvetica,sans-Serif" font-size="10.00">+</text>
<text text-anchor="start" x="411.5" y="-766" font-family="Helvetica,sans-Serif" font-size="10.00">~Ref()</text>
<text text-anchor="start" x="383" y="-751" font-family="Helvetica,sans-Serif" font-size="10.00">+</text>
<text text-anchor="start" x="411.5" y="-751" font-family="Helvetica,sans-Serif" font-size="10.00">Ref()</text>
<text text-anchor="start" x="383" y="-736" font-family="Helvetica,sans-Serif" font-size="10.00">+</text>
<text text-anchor="start" x="411.5" y="-736" font-family="Helvetica,sans-Serif" font-size="10.00">Ref()</text>
<text text-anchor="start" x="383" y="-721" font-family="Helvetica,sans-Serif" font-size="10.00">+</text>
<text text-anchor="start" x="411.5" y="-721" font-family="Helvetica,sans-Serif" font-size="10.00">Ref()</text>
<text text-anchor="start" x="383" y="-706" font-family="Helvetica,sans-Serif" font-size="10.00">+</text>
<text text-anchor="start" x="411.5" y="-706" font-family="Helvetica,sans-Serif" font-size="10.00">operator=()</text>
<text text-anchor="start" x="383" y="-691" font-family="Helvetica,sans-Serif" font-size="10.00">+</text>
<text text-anchor="start" x="411.5" y="-691" font-family="Helvetica,sans-Serif" font-size="10.00">~Ref()</text>
<text text-anchor="start" x="383" y="-676" font-family="Helvetica,sans-Serif" font-size="10.00">+</text>
<text text-anchor="start" x="411.5" y="-676" font-family="Helvetica,sans-Serif" font-size="10.00">create()</text>
<text text-anchor="start" x="383" y="-661" font-family="Helvetica,sans-Serif" font-size="10.00">+</text>
<text text-anchor="start" x="411.5" y="-661" font-family="Helvetica,sans-Serif" font-size="10.00">createRef()</text>
<text text-anchor="start" x="383" y="-646" font-family="Helvetica,sans-Serif" font-size="10.00">+</text>
<text text-anchor="start" x="411.5" y="-646" font-family="Helvetica,sans-Serif" font-size="10.00">createWithHandle()</text>
<text text-anchor="start" x="383" y="-631" font-family="Helvetica,sans-Serif" font-size="10.00">+</text>
<text text-anchor="start" x="411.5" y="-631" font-family="Helvetica,sans-Serif" font-size="10.00">_createNoDestroy()</text>
<text text-anchor="start" x="383" y="-616" font-family="Helvetica,sans-Serif" font-size="10.00">+</text>
<text text-anchor="start" x="411.5" y="-616" font-family="Helvetica,sans-Serif" font-size="10.00">create()</text>
<text text-anchor="start" x="383" y="-601" font-family="Helvetica,sans-Serif" font-size="10.00">+</text>
<text text-anchor="start" x="411.5" y="-601" font-family="Helvetica,sans-Serif" font-size="10.00">createRef()</text>
<text text-anchor="start" x="383" y="-586" font-family="Helvetica,sans-Serif" font-size="10.00">+</text>
<text text-anchor="start" x="411.5" y="-586" font-family="Helvetica,sans-Serif" font-size="10.00">createWithHandle()</text>
<text text-anchor="start" x="383" y="-571" font-family="Helvetica,sans-Serif" font-size="10.00">+</text>
<text text-anchor="start" x="411.5" y="-571" font-family="Helvetica,sans-Serif" font-size="10.00">_createNoDestroy()</text>
<text text-anchor="start" x="383" y="-556" font-family="Helvetica,sans-Serif" font-size="10.00">+</text>
<text text-anchor="start" x="411.5" y="-556" font-family="Helvetica,sans-Serif" font-size="10.00">create()</text>
<text text-anchor="start" x="383" y="-541" font-family="Helvetica,sans-Serif" font-size="10.00">+</text>
<text text-anchor="start" x="411.5" y="-541" font-family="Helvetica,sans-Serif" font-size="10.00">createRef()</text>
<text text-anchor="start" x="383" y="-526" font-family="Helvetica,sans-Serif" font-size="10.00">+</text>
<text text-anchor="start" x="411.5" y="-526" font-family="Helvetica,sans-Serif" font-size="10.00">createWithHandle()</text>
<text text-anchor="start" x="383" y="-511" font-family="Helvetica,sans-Serif" font-size="10.00">+</text>
<text text-anchor="start" x="411.5" y="-511" font-family="Helvetica,sans-Serif" font-size="10.00">_createNoDestroy()</text>
<text text-anchor="start" x="385.5" y="-496" font-family="Helvetica,sans-Serif" font-size="10.00">&#45;</text>
<text text-anchor="start" x="411.5" y="-496" font-family="Helvetica,sans-Serif" font-size="10.00">Ref()</text>
<text text-anchor="start" x="385.5" y="-481" font-family="Helvetica,sans-Serif" font-size="10.00">&#45;</text>
<text text-anchor="start" x="411.5" y="-481" font-family="Helvetica,sans-Serif" font-size="10.00">Ref()</text>
<text text-anchor="start" x="385.5" y="-466" font-family="Helvetica,sans-Serif" font-size="10.00">&#45;</text>
<text text-anchor="start" x="411.5" y="-466" font-family="Helvetica,sans-Serif" font-size="10.00">Ref()</text>
<text text-anchor="start" x="385.5" y="-451" font-family="Helvetica,sans-Serif" font-size="10.00">&#45;</text>
<text text-anchor="start" x="411.5" y="-451" font-family="Helvetica,sans-Serif" font-size="10.00">Ref()</text>
<text text-anchor="start" x="385.5" y="-436" font-family="Helvetica,sans-Serif" font-size="10.00">&#45;</text>
<text text-anchor="start" x="411.5" y="-436" font-family="Helvetica,sans-Serif" font-size="10.00">Ref()</text>
<text text-anchor="start" x="385.5" y="-421" font-family="Helvetica,sans-Serif" font-size="10.00">&#45;</text>
<text text-anchor="start" x="411.5" y="-421" font-family="Helvetica,sans-Serif" font-size="10.00">Ref()</text>
<text text-anchor="start" x="385.5" y="-406" font-family="Helvetica,sans-Serif" font-size="10.00">&#45;</text>
<text text-anchor="start" x="411.5" y="-406" font-family="Helvetica,sans-Serif" font-size="10.00">Ref()</text>
<text text-anchor="start" x="385.5" y="-391" font-family="Helvetica,sans-Serif" font-size="10.00">&#45;</text>
<text text-anchor="start" x="411.5" y="-391" font-family="Helvetica,sans-Serif" font-size="10.00">Ref()</text>
<text text-anchor="start" x="385.5" y="-376" font-family="Helvetica,sans-Serif" font-size="10.00">&#45;</text>
<text text-anchor="start" x="411.5" y="-376" font-family="Helvetica,sans-Serif" font-size="10.00">Ref()</text>
<text text-anchor="start" x="385.5" y="-361" font-family="Helvetica,sans-Serif" font-size="10.00">&#45;</text>
<text text-anchor="start" x="411.5" y="-361" font-family="Helvetica,sans-Serif" font-size="10.00">_destroyInstance()</text>
<text text-anchor="start" x="385.5" y="-346" font-family="Helvetica,sans-Serif" font-size="10.00">&#45;</text>
<text text-anchor="start" x="411.5" y="-346" font-family="Helvetica,sans-Serif" font-size="10.00">_destroyInstance()</text>
<text text-anchor="start" x="385.5" y="-331" font-family="Helvetica,sans-Serif" font-size="10.00">&#45;</text>
<text text-anchor="start" x="411.5" y="-331" font-family="Helvetica,sans-Serif" font-size="10.00">_destroyInstance()</text>
<polygon fill="#666666" stroke="#666666" points="363.5,-956 363.5,-956 543.5,-956 543.5,-956 363.5,-956"/>
<polygon fill="#666666" stroke="#666666" points="363.5,-911 363.5,-911 409.5,-911 409.5,-911 363.5,-911"/>
<polygon fill="#666666" stroke="#666666" points="409.5,-911 409.5,-911 543.5,-911 543.5,-911 409.5,-911"/>
<polygon fill="none" stroke="#666666" points="363.5,-324 363.5,-1006 543.5,-1006 543.5,-324 363.5,-324"/>
</a>
</g>
</g>
<!-- Node4&#45;&gt;Node1 -->
<g id="edge3_Node000001_Node000004" class="edge">
<title>Node4&#45;&gt;Node1</title>
<g id="a_edge3_Node000001_Node000004"><a xlink:title=" ">
<path fill="none" stroke="#63b8ff" d="M411.68,-323.78C409.7,-314.06 407.64,-304.45 405.5,-295 405.05,-293 404.58,-290.99 404.09,-288.97"/>
<polygon fill="none" stroke="#63b8ff" points="404.09,-288.97 398.76,-284.11 401.19,-277.32 406.52,-282.18 404.09,-288.97"/>
</a>
</g>
<text text-anchor="middle" x="453" y="-298" font-family="Helvetica,sans-Serif" font-size="10.00" fill="grey"> &#45;m_mpi_windows</text>
</g>
<!-- Node5 -->
<g id="Node000005" class="node">
<title>Node5</title>
<g id="a_Node000005"><a xlink:href="../../d3/df1/classArcane_1_1RefImpl.html" target="_top" xlink:title=" ">
<polygon fill="white" stroke="transparent" points="601.5,-1443 305.5,-1443 305.5,-1043 601.5,-1043 601.5,-1443"/>
<text text-anchor="start" x="310.5" y="-1431" font-family="Helvetica,sans-Serif" font-size="10.00">Arcane::RefImpl&lt; Arcane</text>
<text text-anchor="start" x="310.5" y="-1420" font-family="Helvetica,sans-Serif" font-size="10.00">::MessagePassing::Mpi</text>
<text text-anchor="start" x="310.5" y="-1409" font-family="Helvetica,sans-Serif" font-size="10.00">::MpiMultiMachineShMemWinBaseInternal,</text>
<text text-anchor="start" x="310.5" y="-1398" font-family="Helvetica,sans-Serif" font-size="10.00"> Ref&lt; Arcane::MessagePassing::Mpi</text>
<text text-anchor="start" x="310.5" y="-1387" font-family="Helvetica,sans-Serif" font-size="10.00">::MpiMultiMachineShMemWinBaseInternal</text>
<text text-anchor="start" x="310.5" y="-1376" font-family="Helvetica,sans-Serif" font-size="10.00"> &gt;, RefTraits&lt; Arcane::MessagePassing</text>
<text text-anchor="start" x="310.5" y="-1365" font-family="Helvetica,sans-Serif" font-size="10.00">::Mpi::MpiMultiMachineShMemWinBaseInternal &gt;::TagId &gt;</text>
<text text-anchor="start" x="351.5" y="-1350" font-family="Helvetica,sans-Serif" font-size="10.00">+</text>
<text text-anchor="start" x="406.5" y="-1350" font-family="Helvetica,sans-Serif" font-size="10.00">RefType</text>
<text text-anchor="start" x="351.5" y="-1335" font-family="Helvetica,sans-Serif" font-size="10.00">+</text>
<text text-anchor="start" x="406.5" y="-1335" font-family="Helvetica,sans-Serif" font-size="10.00">RefImpl()</text>
<text text-anchor="start" x="351.5" y="-1320" font-family="Helvetica,sans-Serif" font-size="10.00">+</text>
<text text-anchor="start" x="406.5" y="-1320" font-family="Helvetica,sans-Serif" font-size="10.00">RefImpl()</text>
<text text-anchor="start" x="351.5" y="-1305" font-family="Helvetica,sans-Serif" font-size="10.00">+</text>
<text text-anchor="start" x="406.5" y="-1305" font-family="Helvetica,sans-Serif" font-size="10.00">RefImpl()</text>
<text text-anchor="start" x="351.5" y="-1290" font-family="Helvetica,sans-Serif" font-size="10.00">+</text>
<text text-anchor="start" x="406.5" y="-1290" font-family="Helvetica,sans-Serif" font-size="10.00">operator=()</text>
<text text-anchor="start" x="351.5" y="-1275" font-family="Helvetica,sans-Serif" font-size="10.00">+</text>
<text text-anchor="start" x="406.5" y="-1275" font-family="Helvetica,sans-Serif" font-size="10.00">~RefImpl()</text>
<text text-anchor="start" x="351.5" y="-1260" font-family="Helvetica,sans-Serif" font-size="10.00">+</text>
<text text-anchor="start" x="406.5" y="-1260" font-family="Helvetica,sans-Serif" font-size="10.00">operator bool()</text>
<text text-anchor="start" x="351.5" y="-1245" font-family="Helvetica,sans-Serif" font-size="10.00">+</text>
<text text-anchor="start" x="406.5" y="-1245" font-family="Helvetica,sans-Serif" font-size="10.00">get()</text>
<text text-anchor="start" x="351.5" y="-1230" font-family="Helvetica,sans-Serif" font-size="10.00">+</text>
<text text-anchor="start" x="406.5" y="-1230" font-family="Helvetica,sans-Serif" font-size="10.00">isNull()</text>
<text text-anchor="start" x="351.5" y="-1215" font-family="Helvetica,sans-Serif" font-size="10.00">+</text>
<text text-anchor="start" x="406.5" y="-1215" font-family="Helvetica,sans-Serif" font-size="10.00">operator&#45;&gt;()</text>
<text text-anchor="start" x="351.5" y="-1200" font-family="Helvetica,sans-Serif" font-size="10.00">+</text>
<text text-anchor="start" x="406.5" y="-1200" font-family="Helvetica,sans-Serif" font-size="10.00">reset()</text>
<text text-anchor="start" x="351.5" y="-1185" font-family="Helvetica,sans-Serif" font-size="10.00">+</text>
<text text-anchor="start" x="406.5" y="-1185" font-family="Helvetica,sans-Serif" font-size="10.00">_release()</text>
<text text-anchor="start" x="351.5" y="-1170" font-family="Helvetica,sans-Serif" font-size="10.00">+</text>
<text text-anchor="start" x="406.5" y="-1170" font-family="Helvetica,sans-Serif" font-size="10.00">_internalInstance()</text>
<text text-anchor="start" x="354" y="-1155" font-family="Helvetica,sans-Serif" font-size="10.00">&#45;</text>
<text text-anchor="start" x="406.5" y="-1155" font-family="Helvetica,sans-Serif" font-size="10.00">RefImpl()</text>
<text text-anchor="start" x="354" y="-1140" font-family="Helvetica,sans-Serif" font-size="10.00">&#45;</text>
<text text-anchor="start" x="406.5" y="-1140" font-family="Helvetica,sans-Serif" font-size="10.00">RefImpl()</text>
<text text-anchor="start" x="354" y="-1125" font-family="Helvetica,sans-Serif" font-size="10.00">&#45;</text>
<text text-anchor="start" x="406.5" y="-1125" font-family="Helvetica,sans-Serif" font-size="10.00">RefImpl()</text>
<text text-anchor="start" x="354" y="-1110" font-family="Helvetica,sans-Serif" font-size="10.00">&#45;</text>
<text text-anchor="start" x="406.5" y="-1110" font-family="Helvetica,sans-Serif" font-size="10.00">RefImpl()</text>
<text text-anchor="start" x="354" y="-1095" font-family="Helvetica,sans-Serif" font-size="10.00">&#45;</text>
<text text-anchor="start" x="406.5" y="-1095" font-family="Helvetica,sans-Serif" font-size="10.00">_createBasicDeleter()</text>
<text text-anchor="start" x="354" y="-1080" font-family="Helvetica,sans-Serif" font-size="10.00">&#45;</text>
<text text-anchor="start" x="406.5" y="-1080" font-family="Helvetica,sans-Serif" font-size="10.00">_createBasicDeleter()</text>
<text text-anchor="start" x="354" y="-1065" font-family="Helvetica,sans-Serif" font-size="10.00">&#45;</text>
<text text-anchor="start" x="406.5" y="-1065" font-family="Helvetica,sans-Serif" font-size="10.00">_getDeleter()</text>
<text text-anchor="start" x="354" y="-1050" font-family="Helvetica,sans-Serif" font-size="10.00">&#45;</text>
<text text-anchor="start" x="406.5" y="-1050" font-family="Helvetica,sans-Serif" font-size="10.00">_getDeleter()</text>
<polygon fill="#666666" stroke="#666666" points="305.5,-1360 305.5,-1360 601.5,-1360 601.5,-1360 305.5,-1360"/>
<polygon fill="#666666" stroke="#666666" points="305.5,-1345 305.5,-1345 404.5,-1345 404.5,-1345 305.5,-1345"/>
<polygon fill="#666666" stroke="#666666" points="404.5,-1345 404.5,-1345 601.5,-1345 601.5,-1345 404.5,-1345"/>
<polygon fill="none" stroke="#666666" points="305.5,-1043 305.5,-1443 601.5,-1443 601.5,-1043 305.5,-1043"/>
</a>
</g>
</g>
<!-- Node5&#45;&gt;Node4 -->
<g id="edge4_Node000004_Node000005" class="edge">
<title>Node5&#45;&gt;Node4</title>
<g id="a_edge4_Node000004_Node000005"><a xlink:title=" ">
<path fill="none" stroke="#63b8ff" d="M453.5,-1032.69C453.5,-1023.9 453.5,-1015 453.5,-1006.03"/>
<polygon fill="none" stroke="#63b8ff" points="450,-1032.97 453.5,-1042.97 457,-1032.97 450,-1032.97"/>
</a>
</g>
</g>
<!-- Node6 -->
<g id="Node000006" class="node">
<title>Node6</title>
<g id="a_Node000006"><a xlink:href="../../d2/db9/classArcane_1_1RefBase.html" target="_top" xlink:title="Classe de base de gestion d&#39;une référence.">
<polygon fill="white" stroke="transparent" points="416,-1555.5 325,-1555.5 325,-1506.5 416,-1506.5 416,-1555.5"/>
<text text-anchor="start" x="330.5" y="-1543" font-family="Helvetica,sans-Serif" font-size="10.00">Arcane::RefBase</text>
<text text-anchor="start" x="369" y="-1528" font-family="Helvetica,sans-Serif" font-size="10.00"> </text>
<text text-anchor="start" x="369" y="-1513" font-family="Helvetica,sans-Serif" font-size="10.00"> </text>
<polygon fill="#666666" stroke="#666666" points="325.5,-1538 325.5,-1538 416.5,-1538 416.5,-1538 325.5,-1538"/>
<polygon fill="#666666" stroke="#666666" points="325.5,-1523 325.5,-1523 416.5,-1523 416.5,-1523 325.5,-1523"/>
<polygon fill="none" stroke="#666666" points="325,-1506.5 325,-1555.5 416,-1555.5 416,-1506.5 325,-1506.5"/>
</a>
</g>
</g>
<!-- Node6&#45;&gt;Node5 -->
<g id="edge5_Node000005_Node000006" class="edge">
<title>Node6&#45;&gt;Node5</title>
<g id="a_edge5_Node000005_Node000006"><a xlink:title=" ">
<path fill="none" stroke="#63b8ff" d="M380.31,-1496.19C384.54,-1481.62 389.85,-1463.32 395.67,-1443.26"/>
<polygon fill="none" stroke="#63b8ff" points="376.86,-1495.53 377.43,-1506.11 383.58,-1497.48 376.86,-1495.53"/>
</a>
</g>
</g>
<!-- Node7 -->
<g id="Node000007" class="node">
<title>Node7</title>
<g id="a_Node000007"><a xlink:href="../../d4/de6/structArcane_1_1RefTraitsTagId.html" target="_top" xlink:title=" ">
<polygon fill="white" stroke="transparent" points="638.5,-1572 434.5,-1572 434.5,-1490 638.5,-1490 638.5,-1572"/>
<text text-anchor="start" x="439.5" y="-1560" font-family="Helvetica,sans-Serif" font-size="10.00">Arcane::RefTraitsTagId</text>
<text text-anchor="start" x="439.5" y="-1549" font-family="Helvetica,sans-Serif" font-size="10.00">&lt; Arcane::MessagePassing</text>
<text text-anchor="start" x="439.5" y="-1538" font-family="Helvetica,sans-Serif" font-size="10.00">::Mpi::MpiMultiMachineShMemWinBase</text>
<text text-anchor="start" x="485" y="-1527" font-family="Helvetica,sans-Serif" font-size="10.00">Internal, ImplTagId &gt;</text>
<text text-anchor="start" x="534.5" y="-1512" font-family="Helvetica,sans-Serif" font-size="10.00"> </text>
<text text-anchor="start" x="534.5" y="-1497" font-family="Helvetica,sans-Serif" font-size="10.00"> </text>
<polygon fill="#bfbfbf" stroke="#bfbfbf" points="434.5,-1522 434.5,-1522 638.5,-1522 638.5,-1522 434.5,-1522"/>
<polygon fill="#bfbfbf" stroke="#bfbfbf" points="434.5,-1507 434.5,-1507 638.5,-1507 638.5,-1507 434.5,-1507"/>
<polygon fill="none" stroke="#bfbfbf" points="434.5,-1490 434.5,-1572 638.5,-1572 638.5,-1490 434.5,-1490"/>
</a>
</g>
</g>
<!-- Node7&#45;&gt;Node5 -->
<g id="edge6_Node000005_Node000007" class="edge">
<title>Node7&#45;&gt;Node5</title>
<g id="a_edge6_Node000005_Node000007"><a xlink:title=" ">
<path fill="none" stroke="#63b8ff" d="M524.87,-1489.93C521.85,-1479.53 518.38,-1467.58 514.64,-1454.67"/>
<polygon fill="none" stroke="#63b8ff" points="514.62,-1454.62 509.11,-1449.98 511.28,-1443.1 516.79,-1447.75 514.62,-1454.62"/>
</a>
</g>
<text text-anchor="middle" x="550.5" y="-1464" font-family="Helvetica,sans-Serif" font-size="10.00" fill="grey"> &#45;m_instance</text>
</g>
<!-- Node8 -->
<g id="Node000008" class="node">
<title>Node8</title>
<g id="a_Node000008"><a xlink:href="../../d5/d57/classArcane_1_1IThreadBarrier.html" target="_top" xlink:title="Interface d&#39;une barrière entre threads.">
<polygon fill="white" stroke="transparent" points="681.5,-712 561.5,-712 561.5,-618 681.5,-618 681.5,-712"/>
<text text-anchor="start" x="566.5" y="-700" font-family="Helvetica,sans-Serif" font-size="10.00">Arcane::IThreadBarrier</text>
<text text-anchor="start" x="619.5" y="-685" font-family="Helvetica,sans-Serif" font-size="10.00"> </text>
<text text-anchor="start" x="568.5" y="-670" font-family="Helvetica,sans-Serif" font-size="10.00">+</text>
<text text-anchor="start" x="584.5" y="-670" font-family="Helvetica,sans-Serif" font-size="10.00">init()</text>
<text text-anchor="start" x="568.5" y="-655" font-family="Helvetica,sans-Serif" font-size="10.00">+</text>
<text text-anchor="start" x="584.5" y="-655" font-family="Helvetica,sans-Serif" font-size="10.00">destroy()</text>
<text text-anchor="start" x="568.5" y="-640" font-family="Helvetica,sans-Serif" font-size="10.00">+</text>
<text text-anchor="start" x="584.5" y="-640" font-family="Helvetica,sans-Serif" font-size="10.00">wait()</text>
<text text-anchor="start" x="568.5" y="-625" font-family="Helvetica,sans-Serif" font-size="10.00">#</text>
<text text-anchor="start" x="584.5" y="-625" font-family="Helvetica,sans-Serif" font-size="10.00">~IThreadBarrier()</text>
<polygon fill="#666666" stroke="#666666" points="561.5,-695 561.5,-695 681.5,-695 681.5,-695 561.5,-695"/>
<polygon fill="#666666" stroke="#666666" points="561.5,-680 561.5,-680 681.5,-680 681.5,-680 561.5,-680"/>
<polygon fill="none" stroke="#666666" points="561.5,-618 561.5,-712 681.5,-712 681.5,-618 561.5,-618"/>
</a>
</g>
</g>
<!-- Node8&#45;&gt;Node1 -->
<g id="edge7_Node000001_Node000008" class="edge">
<title>Node8&#45;&gt;Node1</title>
<g id="a_edge7_Node000001_Node000008"><a xlink:title=" ">
<path fill="none" stroke="#63b8ff" d="M620.91,-617.76C618.17,-549.34 605.69,-418.99 552.5,-324 531.15,-285.87 499.18,-251.1 467.12,-222.27"/>
<polygon fill="none" stroke="#63b8ff" points="467.09,-222.24 459.94,-221.27 458.09,-214.3 465.23,-215.27 467.09,-222.24"/>
</a>
</g>
<text text-anchor="middle" x="586" y="-298" font-family="Helvetica,sans-Serif" font-size="10.00" fill="grey"> &#45;m_thread_barrier</text>
</g>
</g>
</svg>

<g id="navigator" transform="translate(0 0)" fill="#404254">
  <rect fill="#f2f5e9" fill-opacity="0.5" stroke="#606060" stroke-width=".5" x="0" y="0" width="60" height="60"/>
  <use id="zoomplus" xlink:href="#zoomPlus" x="17" y="9" onmousedown="handleZoom(evt,'in')"/>
  <use id="zoomminus" xlink:href="#zoomMin" x="42" y="9" onmousedown="handleZoom(evt,'out')"/>
  <use id="reset" xlink:href="#resetDef" x="30" y="36" onmousedown="handleReset()"/>
   <use id="arrowup" xlink:href="#arrowUp" x="0" y="0" onmousedown="handlePan(0,-1)"/>
  <use id="arrowright" xlink:href="#arrowRight" x="0" y="0" onmousedown="handlePan(1,0)"/>
  <use id="arrowdown" xlink:href="#arrowDown" x="0" y="0" onmousedown="handlePan(0,1)"/>
  <use id="arrowleft" xlink:href="#arrowLeft" x="0" y="0" onmousedown="handlePan(-1,0)"/>
</g>
<svg viewBox="0 0 15 15" width="100%" height="30px" preserveAspectRatio="xMaxYMin meet">
 <g id="arrow_out" transform="scale(0.3 0.3)">
  <a xlink:href="classArcane_1_1MessagePassing_1_1HybridMachineShMemWinBaseInternal__coll__graph_org.svg" target="_base">
   <rect id="button" ry="5" rx="5" y="6" x="6" height="38" width="38"
        fill="#f2f5e9" fill-opacity="0.5" stroke="#606060" stroke-width="1.0"/>
   <path id="arrow"
     d="M 11.500037,31.436501 C 11.940474,20.09759 22.043105,11.32322 32.158766,21.979434 L 37.068811,17.246167 C 37.068811,17.246167 37.088388,32 37.088388,32 L 22.160133,31.978069 C 22.160133,31.978069 26.997745,27.140456 26.997745,27.140456 C 18.528582,18.264221 13.291696,25.230495 11.500037,31.436501 z"
     style="fill:#404040;"/>
  </a>
 </g>
</svg>

<style type='text/css'>
<![CDATA[
[data-mouse-over-selected='false'] { opacity: 0.7; }
[data-mouse-over-selected='true']  { opacity: 1.0; }
]]>
</style>
<script type="application/ecmascript"><![CDATA[
document.addEventListener('DOMContentLoaded', (event) => {
  highlightEdges();
  highlightAdjacentNodes();
});
]]></script>
</svg>
