<?xml version="1.0" encoding="UTF-8" standalone="no"?>
<!DOCTYPE svg PUBLIC "-//W3C//DTD SVG 1.1//EN"
 "http://www.w3.org/Graphics/SVG/1.1/DTD/svg11.dtd">
<!-- Generated by graphviz version 2.43.0 (0)
 -->
<!-- Title: Arcane::Internal::ExternalRef::Handle Pages: 1 -->
<svg width="142pt" height="143pt"
 viewBox="0.00 0.00 142.00 143.00" xmlns="http://www.w3.org/2000/svg" xmlns:xlink="http://www.w3.org/1999/xlink">
<g id="graph0" class="graph" transform="scale(1 1) rotate(0) translate(4 139)">
<title>Arcane::Internal::ExternalRef::Handle</title>
<!-- Node1 -->
<g id="Node000001" class="node">
<title>Node1</title>
<g id="a_Node000001"><a xlink:title=" ">
<polygon fill="#999999" stroke="transparent" points="134,-135 0,-135 0,0 134,0 134,-135"/>
<text text-anchor="start" x="5" y="-122.5" font-family="Helvetica,sans-Serif" font-size="10.00">Arcane::Internal::External</text>
<text text-anchor="start" x="38.5" y="-111.5" font-family="Helvetica,sans-Serif" font-size="10.00">Ref::Handle</text>
<text text-anchor="start" x="8.5" y="-96.5" font-family="Helvetica,sans-Serif" font-size="10.00">+</text>
<text text-anchor="start" x="26" y="-96.5" font-family="Helvetica,sans-Serif" font-size="10.00">handle</text>
<text text-anchor="start" x="8.5" y="-81.5" font-family="Helvetica,sans-Serif" font-size="10.00">+</text>
<text text-anchor="start" x="26" y="-81.5" font-family="Helvetica,sans-Serif" font-size="10.00">m_nb_ref</text>
<text text-anchor="start" x="8.5" y="-66.5" font-family="Helvetica,sans-Serif" font-size="10.00">+</text>
<text text-anchor="start" x="26" y="-66.5" font-family="Helvetica,sans-Serif" font-size="10.00">Handle()</text>
<text text-anchor="start" x="8.5" y="-51.5" font-family="Helvetica,sans-Serif" font-size="10.00">+</text>
<text text-anchor="start" x="26" y="-51.5" font-family="Helvetica,sans-Serif" font-size="10.00">Handle()</text>
<text text-anchor="start" x="8.5" y="-36.5" font-family="Helvetica,sans-Serif" font-size="10.00">+</text>
<text text-anchor="start" x="26" y="-36.5" font-family="Helvetica,sans-Serif" font-size="10.00">~Handle()</text>
<text text-anchor="start" x="8.5" y="-21.5" font-family="Helvetica,sans-Serif" font-size="10.00">+</text>
<text text-anchor="start" x="26" y="-21.5" font-family="Helvetica,sans-Serif" font-size="10.00">addReference()</text>
<text text-anchor="start" x="8.5" y="-6.5" font-family="Helvetica,sans-Serif" font-size="10.00">+</text>
<text text-anchor="start" x="26" y="-6.5" font-family="Helvetica,sans-Serif" font-size="10.00">removeReference()</text>
<polygon fill="#666666" stroke="#666666" points="0,-106.5 0,-106.5 134,-106.5 134,-106.5 0,-106.5"/>
<polygon fill="#666666" stroke="#666666" points="0,-76.5 0,-76.5 24,-76.5 24,-76.5 0,-76.5"/>
<polygon fill="#666666" stroke="#666666" points="24,-76.5 24,-76.5 134,-76.5 134,-76.5 24,-76.5"/>
<polygon fill="none" stroke="#666666" points="0,0 0,-135 134,-135 134,0 0,0"/>
</a>
</g>
</g>
</g>
</svg>
