<?xml version="1.0" encoding="UTF-8" standalone="no"?>
<!DOCTYPE svg PUBLIC "-//W3C//DTD SVG 1.1//EN"
 "http://www.w3.org/Graphics/SVG/1.1/DTD/svg11.dtd">
<!-- Generated by graphviz version 2.43.0 (0)
 -->
<!-- Title: Arcane::ArrayBoundsBase&lt; Extents &gt; Pages: 1 -->
<svg width="145pt" height="209pt"
 viewBox="0.00 0.00 145.00 209.00" xmlns="http://www.w3.org/2000/svg" xmlns:xlink="http://www.w3.org/1999/xlink">
<g id="graph0" class="graph" transform="scale(1 1) rotate(0) translate(4 205)">
<title>Arcane::ArrayBoundsBase&lt; Extents &gt;</title>
<!-- Node1 -->
<g id="Node000001" class="node">
<title>Node1</title>
<g id="a_Node000001"><a xlink:title=" ">
<polygon fill="#999999" stroke="transparent" points="137,-105 0,-105 0,0 137,0 137,-105"/>
<text text-anchor="start" x="5.5" y="-92.5" font-family="Helvetica,sans-Serif" font-size="10.00">Arcane::ArrayBoundsBase</text>
<text text-anchor="start" x="39" y="-81.5" font-family="Helvetica,sans-Serif" font-size="10.00">&lt; Extents &gt;</text>
<text text-anchor="start" x="67" y="-66.5" font-family="Helvetica,sans-Serif" font-size="10.00"> </text>
<text text-anchor="start" x="10" y="-51.5" font-family="Helvetica,sans-Serif" font-size="10.00">+</text>
<text text-anchor="start" x="28.5" y="-51.5" font-family="Helvetica,sans-Serif" font-size="10.00">ArrayBoundsBase()</text>
<text text-anchor="start" x="10" y="-36.5" font-family="Helvetica,sans-Serif" font-size="10.00">+</text>
<text text-anchor="start" x="28.5" y="-36.5" font-family="Helvetica,sans-Serif" font-size="10.00">ArrayBoundsBase()</text>
<text text-anchor="start" x="10" y="-21.5" font-family="Helvetica,sans-Serif" font-size="10.00">+</text>
<text text-anchor="start" x="28.5" y="-21.5" font-family="Helvetica,sans-Serif" font-size="10.00">ArrayBoundsBase()</text>
<text text-anchor="start" x="10" y="-6.5" font-family="Helvetica,sans-Serif" font-size="10.00">+</text>
<text text-anchor="start" x="28.5" y="-6.5" font-family="Helvetica,sans-Serif" font-size="10.00">nbElement()</text>
<polygon fill="#666666" stroke="#666666" points="0.5,-76.5 0.5,-76.5 137.5,-76.5 137.5,-76.5 0.5,-76.5"/>
<polygon fill="#666666" stroke="#666666" points="0.5,-61.5 0.5,-61.5 137.5,-61.5 137.5,-61.5 0.5,-61.5"/>
<polygon fill="none" stroke="#666666" points="0,0 0,-105 137,-105 137,0 0,0"/>
</a>
</g>
</g>
<!-- Node2 -->
<g id="Node000002" class="node">
<title>Node2</title>
<g id="a_Node000002"><a xlink:href="../../da/d2e/classArcane_1_1ArrayExtents.html" target="_top" xlink:title=" ">
<polygon fill="white" stroke="transparent" points="125,-201 12,-201 12,-141 125,-141 125,-201"/>
<text text-anchor="start" x="17.5" y="-189" font-family="Helvetica,sans-Serif" font-size="10.00">Arcane::ArrayExtents</text>
<text text-anchor="start" x="39" y="-178" font-family="Helvetica,sans-Serif" font-size="10.00">&lt; Extents &gt;</text>
<text text-anchor="start" x="67" y="-163" font-family="Helvetica,sans-Serif" font-size="10.00"> </text>
<text text-anchor="start" x="67" y="-148" font-family="Helvetica,sans-Serif" font-size="10.00"> </text>
<polygon fill="#bfbfbf" stroke="#bfbfbf" points="12.5,-173 12.5,-173 125.5,-173 125.5,-173 12.5,-173"/>
<polygon fill="#bfbfbf" stroke="#bfbfbf" points="12.5,-158 12.5,-158 125.5,-158 125.5,-158 12.5,-158"/>
<polygon fill="none" stroke="#bfbfbf" points="12,-141 12,-201 125,-201 125,-141 12,-141"/>
</a>
</g>
</g>
<!-- Node2&#45;&gt;Node1 -->
<g id="edge1_Node000001_Node000002" class="edge">
<title>Node2&#45;&gt;Node1</title>
<g id="a_edge1_Node000001_Node000002"><a xlink:title=" ">
<path fill="none" stroke="#8b1a1a" d="M68.5,-130.88C68.5,-122.68 68.5,-113.92 68.5,-105.34"/>
<polygon fill="none" stroke="#8b1a1a" points="65,-130.9 68.5,-140.9 72,-130.9 65,-130.9"/>
</a>
</g>
</g>
</g>
</svg>
