<?xml version="1.0" encoding="UTF-8" standalone="no"?>
<!DOCTYPE svg PUBLIC "-//W3C//DTD SVG 1.1//EN"
 "http://www.w3.org/Graphics/SVG/1.1/DTD/svg11.dtd">
<!-- Generated by graphviz version 2.43.0 (0)
 -->
<!-- Title: Arcane::GeometryServiceBase::update Pages: 1 -->
<!--zoomable 344 -->

<svg id="main" version="1.1" xmlns="http://www.w3.org/2000/svg" xmlns:xlink="http://www.w3.org/1999/xlink" xml:space="preserve" onload="init(evt)">

<style type="text/css"><![CDATA[
.node, .edge {opacity: 0.7;}
.node.selected, .edge.selected {opacity: 1;}
.edge:hover path { stroke: red; }
.edge:hover polygon { stroke: red; fill: red; }
]]></style>

<defs>
  <circle id="rim" cx="0" cy="0" r="7"/>
  <circle id="rim2" cx="0" cy="0" r="3.5"/>
  <g id="zoomPlus">
    <use xlink:href="#rim" fill="#404040"><set attributeName="fill" to="#808080" begin="zoomplus.mouseover" end="zoomplus.mouseout"/></use>
    <path d="M-4,0h8M0,-4v8" fill="none" stroke="white" stroke-width="1.5" pointer-events="none"/>
  </g>
  <g id="zoomMin">
    <use xlink:href="#rim" fill="#404040"><set attributeName="fill" to="#808080" begin="zoomminus.mouseover" end="zoomminus.mouseout"/></use>
    <path d="M-4,0h8" fill="none" stroke="white" stroke-width="1.5" pointer-events="none"/>
  </g>
  <g id="arrowUp" transform="translate(30 24)">
    <use xlink:href="#rim"/>
    <path pointer-events="none" fill="none" stroke="white" stroke-width="1.5" d="M0,-3.0v7 M-2.5,-0.5L0,-3.0L2.5,-0.5"/>
  </g>
  <g id="arrowRight" transform="rotate(90) translate(36 -43)">
    <use xlink:href="#rim"/>
    <path pointer-events="none" fill="none" stroke="white" stroke-width="1.5" d="M0,-3.0v7 M-2.5,-0.5L0,-3.0L2.5,-0.5"/>
  </g>
  <g id="arrowDown" transform="rotate(180) translate(-30 -48)">
    <use xlink:href="#rim"/>
    <path pointer-events="none" fill="none" stroke="white" stroke-width="1.5" d="M0,-3.0v7 M-2.5,-0.5L0,-3.0L2.5,-0.5"/>
  </g>
  <g id="arrowLeft" transform="rotate(270) translate(-36 17)">
    <use xlink:href="#rim"/>
    <path pointer-events="none" fill="none" stroke="white" stroke-width="1.5" d="M0,-3.0v7 M-2.5,-0.5L0,-3.0L2.5,-0.5"/>
  </g>
  <g id="resetDef">
    <use xlink:href="#rim2" fill="#404040"><set attributeName="fill" to="#808080" begin="reset.mouseover" end="reset.mouseout"/></use>
  </g>
</defs>
<script type="application/ecmascript">
var viewWidth = 772;
var viewHeight = 344;
var sectionId = 'dynsection-24';
</script>
<script type="application/ecmascript" xlink:href="../../svg.min.js"/>
<svg id="graph" class="graph">
<g id="viewport">
<title>Arcane::GeometryServiceBase::update</title>
<!-- Node1 -->
<g id="Node000001" class="node">
<title>Node1</title>
<g id="a_Node000001"><a xlink:title="Update property values for an ItemGroup.">
<polygon fill="#999999" stroke="#666666" points="165,-174 0,-174 0,-144 165,-144 165,-174"/>
<text text-anchor="start" x="8" y="-162" font-family="Helvetica,sans-Serif" font-size="10.00">Arcane::GeometryServiceBase</text>
<text text-anchor="middle" x="82.5" y="-151" font-family="Helvetica,sans-Serif" font-size="10.00">::update</text>
</a>
</g>
</g>
<!-- Node2 -->
<g id="Node000002" class="node">
<title>Node2</title>
<g id="a_Node000002"><a xlink:href="../../db/d2f/classArcane_1_1GeometryServiceBase.html#a0174416db6aeaef5cb22e6ef396eae2e" target="_top" xlink:title="Update property values for all ItemGroups.">
<polygon fill="white" stroke="#666666" points="366,-174 201,-174 201,-144 366,-144 366,-174"/>
<text text-anchor="start" x="209" y="-162" font-family="Helvetica,sans-Serif" font-size="10.00">Arcane::GeometryServiceBase</text>
<text text-anchor="middle" x="283.5" y="-151" font-family="Helvetica,sans-Serif" font-size="10.00">::update</text>
</a>
</g>
</g>
<!-- Node1&#45;&gt;Node2 -->
<g id="edge1_Node000001_Node000002" class="edge">
<title>Node1&#45;&gt;Node2</title>
<g id="a_edge1_Node000001_Node000002"><a xlink:title=" ">
<path fill="none" stroke="#63b8ff" d="M165.02,-159C173.5,-159 182.17,-159 190.76,-159"/>
<polygon fill="#63b8ff" stroke="#63b8ff" points="190.79,-162.5 200.79,-159 190.79,-155.5 190.79,-162.5"/>
</a>
</g>
</g>
<!-- Node2&#45;&gt;Node2 -->
<g id="edge10_Node000002_Node000002" class="edge">
<title>Node2&#45;&gt;Node2</title>
<g id="a_edge10_Node000002_Node000002"><a xlink:title=" ">
<path fill="none" stroke="#63b8ff" d="M248.34,-174.28C240.53,-183.41 252.25,-192 283.5,-192 302.05,-192 313.72,-188.97 318.51,-184.6"/>
<polygon fill="#63b8ff" stroke="#63b8ff" points="322.01,-184.32 318.66,-174.28 315.01,-184.22 322.01,-184.32"/>
</a>
</g>
</g>
<!-- Node3 -->
<g id="Node000003" class="node">
<title>Node3</title>
<g id="a_Node000003"><a xlink:href="../../dd/d0a/classArcane_1_1IItemFamily.html#a3d3659197cb052e60fb2fc573046830b" target="_top" xlink:title="Groupe de toutes les entités.">
<polygon fill="white" stroke="#666666" points="541.5,-318 427.5,-318 427.5,-288 541.5,-288 541.5,-318"/>
<text text-anchor="start" x="435.5" y="-306" font-family="Helvetica,sans-Serif" font-size="10.00">Arcane::IItemFamily</text>
<text text-anchor="middle" x="484.5" y="-295" font-family="Helvetica,sans-Serif" font-size="10.00">::allItems</text>
</a>
</g>
</g>
<!-- Node2&#45;&gt;Node3 -->
<g id="edge2_Node000002_Node000003" class="edge">
<title>Node2&#45;&gt;Node3</title>
<g id="a_edge2_Node000002_Node000003"><a xlink:title=" ">
<path fill="none" stroke="#63b8ff" d="M295.32,-174.33C314.11,-199.83 355.27,-250.91 402,-279 406.94,-281.97 412.27,-284.59 417.76,-286.9"/>
<polygon fill="#63b8ff" stroke="#63b8ff" points="416.51,-290.17 427.1,-290.51 419.03,-283.64 416.51,-290.17"/>
</a>
</g>
</g>
<!-- Node4 -->
<g id="Node000004" class="node">
<title>Node4</title>
<g id="a_Node000004"><a xlink:href="../../db/d2f/classArcane_1_1GeometryServiceBase.html#a7ddd28492d7f91760df0152e95823e42" target="_top" xlink:title="Name of instancied class.">
<polygon fill="white" stroke="#666666" points="567,-270 402,-270 402,-240 567,-240 567,-270"/>
<text text-anchor="start" x="410" y="-258" font-family="Helvetica,sans-Serif" font-size="10.00">Arcane::GeometryServiceBase</text>
<text text-anchor="middle" x="484.5" y="-247" font-family="Helvetica,sans-Serif" font-size="10.00">::className</text>
</a>
</g>
</g>
<!-- Node2&#45;&gt;Node4 -->
<g id="edge4_Node000002_Node000004" class="edge">
<title>Node2&#45;&gt;Node4</title>
<g id="a_edge4_Node000002_Node000004"><a xlink:title=" ">
<path fill="none" stroke="#63b8ff" d="M305.23,-174.04C328.01,-190 366.14,-215.07 402,-231 406.4,-232.96 411.01,-234.8 415.69,-236.54"/>
<polygon fill="#63b8ff" stroke="#63b8ff" points="414.79,-239.93 425.38,-239.94 417.1,-233.32 414.79,-239.93"/>
</a>
</g>
</g>
<!-- Node5 -->
<g id="Node000005" class="node">
<title>Node5</title>
<g id="a_Node000005"><a xlink:href="../../d9/d27/classArcane_1_1ItemGroup.html#a1eeecaeb70c6116ae8579eb81fb7a3ce" target="_top" xlink:title="Retourne l&#39;implémentation du groupe.">
<polygon fill="white" stroke="#666666" points="541.5,-222 427.5,-222 427.5,-192 541.5,-192 541.5,-222"/>
<text text-anchor="start" x="435.5" y="-210" font-family="Helvetica,sans-Serif" font-size="10.00">Arcane::ItemGroup::</text>
<text text-anchor="middle" x="484.5" y="-199" font-family="Helvetica,sans-Serif" font-size="10.00">internal</text>
</a>
</g>
</g>
<!-- Node2&#45;&gt;Node5 -->
<g id="edge5_Node000002_Node000005" class="edge">
<title>Node2&#45;&gt;Node5</title>
<g id="a_edge5_Node000002_Node000005"><a xlink:title=" ">
<path fill="none" stroke="#63b8ff" d="M346.92,-174.06C369.36,-179.47 394.73,-185.59 417.47,-191.07"/>
<polygon fill="#63b8ff" stroke="#63b8ff" points="416.83,-194.52 427.37,-193.46 418.47,-187.71 416.83,-194.52"/>
</a>
</g>
</g>
<!-- Node6 -->
<g id="Node000006" class="node">
<title>Node6</title>
<g id="a_Node000006"><a xlink:href="../../d9/d27/classArcane_1_1ItemGroup.html#a8e73e37718cd394e623d4804fa90e6d4" target="_top" xlink:title="Genre du groupe. Il s&#39;agit du genre de ses éléments.">
<polygon fill="white" stroke="#666666" points="541.5,-174 427.5,-174 427.5,-144 541.5,-144 541.5,-174"/>
<text text-anchor="start" x="435.5" y="-162" font-family="Helvetica,sans-Serif" font-size="10.00">Arcane::ItemGroup::</text>
<text text-anchor="middle" x="484.5" y="-151" font-family="Helvetica,sans-Serif" font-size="10.00">itemKind</text>
</a>
</g>
</g>
<!-- Node2&#45;&gt;Node6 -->
<g id="edge6_Node000002_Node000006" class="edge">
<title>Node2&#45;&gt;Node6</title>
<g id="a_edge6_Node000002_Node000006"><a xlink:title=" ">
<path fill="none" stroke="#63b8ff" d="M366.02,-159C383.08,-159 400.88,-159 417.31,-159"/>
<polygon fill="#63b8ff" stroke="#63b8ff" points="417.34,-162.5 427.34,-159 417.34,-155.5 417.34,-162.5"/>
</a>
</g>
</g>
<!-- Node7 -->
<g id="Node000007" class="node">
<title>Node7</title>
<g id="a_Node000007"><a xlink:href="../../db/d2f/classArcane_1_1GeometryServiceBase.html#a0fa29002a9101b9b64fa4430d5fe7d53" target="_top" xlink:title="Access to mesh.">
<polygon fill="white" stroke="#666666" points="567,-126 402,-126 402,-96 567,-96 567,-126"/>
<text text-anchor="start" x="410" y="-114" font-family="Helvetica,sans-Serif" font-size="10.00">Arcane::GeometryServiceBase</text>
<text text-anchor="middle" x="484.5" y="-103" font-family="Helvetica,sans-Serif" font-size="10.00">::mesh</text>
</a>
</g>
</g>
<!-- Node2&#45;&gt;Node7 -->
<g id="edge7_Node000002_Node000007" class="edge">
<title>Node2&#45;&gt;Node7</title>
<g id="a_edge7_Node000002_Node000007"><a xlink:title=" ">
<path fill="none" stroke="#63b8ff" d="M346.92,-143.94C367.39,-139.01 390.3,-133.48 411.42,-128.39"/>
<polygon fill="#63b8ff" stroke="#63b8ff" points="412.4,-131.75 421.3,-126 410.76,-124.94 412.4,-131.75"/>
</a>
</g>
</g>
<!-- Node9 -->
<g id="Node000009" class="node">
<title>Node9</title>
<g id="a_Node000009"><a xlink:href="../../db/d2f/classArcane_1_1GeometryServiceBase.html#a92650453f2db915dbd0df1dcf1512ce5" target="_top" xlink:title="Access to traceMng.">
<polygon fill="white" stroke="#666666" points="567,-78 402,-78 402,-48 567,-48 567,-78"/>
<text text-anchor="start" x="410" y="-66" font-family="Helvetica,sans-Serif" font-size="10.00">Arcane::GeometryServiceBase</text>
<text text-anchor="middle" x="484.5" y="-55" font-family="Helvetica,sans-Serif" font-size="10.00">::traceMng</text>
</a>
</g>
</g>
<!-- Node2&#45;&gt;Node9 -->
<g id="edge9_Node000002_Node000009" class="edge">
<title>Node2&#45;&gt;Node9</title>
<g id="a_edge9_Node000002_Node000009"><a xlink:title=" ">
<path fill="none" stroke="#63b8ff" d="M305.23,-143.96C328.01,-128 366.14,-102.93 402,-87 406.4,-85.04 411.01,-83.2 415.69,-81.46"/>
<polygon fill="#63b8ff" stroke="#63b8ff" points="417.1,-84.68 425.38,-78.06 414.79,-78.07 417.1,-84.68"/>
</a>
</g>
</g>
<!-- Node10 -->
<g id="Node000010" class="node">
<title>Node10</title>
<g id="a_Node000010"><a xlink:href="../../d6/d00/classArcane_1_1VariableRef.html#a974c8e6a859ec432af7824b22977f953" target="_top" xlink:title="Variable associée.">
<polygon fill="white" stroke="#666666" points="541,-30 428,-30 428,0 541,0 541,-30"/>
<text text-anchor="start" x="436" y="-18" font-family="Helvetica,sans-Serif" font-size="10.00">Arcane::VariableRef</text>
<text text-anchor="middle" x="484.5" y="-7" font-family="Helvetica,sans-Serif" font-size="10.00">::variable</text>
</a>
</g>
</g>
<!-- Node2&#45;&gt;Node10 -->
<g id="edge11_Node000002_Node000010" class="edge">
<title>Node2&#45;&gt;Node10</title>
<g id="a_edge11_Node000002_Node000010"><a xlink:title=" ">
<path fill="none" stroke="#63b8ff" d="M295.32,-143.67C314.11,-118.17 355.27,-67.09 402,-39 407.1,-35.93 412.62,-33.24 418.3,-30.87"/>
<polygon fill="#63b8ff" stroke="#63b8ff" points="419.86,-34.02 427.96,-27.19 417.37,-27.48 419.86,-34.02"/>
</a>
</g>
</g>
<!-- Node3&#45;&gt;Node3 -->
<g id="edge3_Node000003_Node000003" class="edge">
<title>Node3&#45;&gt;Node3</title>
<g id="a_edge3_Node000003_Node000003"><a xlink:title=" ">
<path fill="none" stroke="#63b8ff" d="M449.7,-318.28C441.96,-327.41 453.56,-336 484.5,-336 502.87,-336 514.42,-332.97 519.16,-328.6"/>
<polygon fill="#63b8ff" stroke="#63b8ff" points="522.66,-328.32 519.3,-318.28 515.66,-328.22 522.66,-328.32"/>
</a>
</g>
</g>
<!-- Node8 -->
<g id="Node000008" class="node">
<title>Node8</title>
<g id="a_Node000008"><a xlink:href="../../df/d38/classArcane_1_1Numerics_1_1IGeometryMng.html#ada8043329fd53c8c14d1c25a9b7c948a" target="_top" xlink:title="Get underlying geometry.">
<polygon fill="white" stroke="#666666" points="764,-126 603,-126 603,-96 764,-96 764,-126"/>
<text text-anchor="start" x="611" y="-114" font-family="Helvetica,sans-Serif" font-size="10.00">Arcane::Numerics::IGeometry</text>
<text text-anchor="middle" x="683.5" y="-103" font-family="Helvetica,sans-Serif" font-size="10.00">Mng::geometry</text>
</a>
</g>
</g>
<!-- Node7&#45;&gt;Node8 -->
<g id="edge8_Node000007_Node000008" class="edge">
<title>Node7&#45;&gt;Node8</title>
<g id="a_edge8_Node000007_Node000008"><a xlink:title=" ">
<path fill="none" stroke="#63b8ff" d="M567.05,-111C575.57,-111 584.27,-111 592.87,-111"/>
<polygon fill="#63b8ff" stroke="#63b8ff" points="592.91,-114.5 602.91,-111 592.91,-107.5 592.91,-114.5"/>
</a>
</g>
</g>
</g>
</svg>

<g id="navigator" transform="translate(0 0)" fill="#404254">
  <rect fill="#f2f5e9" fill-opacity="0.5" stroke="#606060" stroke-width=".5" x="0" y="0" width="60" height="60"/>
  <use id="zoomplus" xlink:href="#zoomPlus" x="17" y="9" onmousedown="handleZoom(evt,'in')"/>
  <use id="zoomminus" xlink:href="#zoomMin" x="42" y="9" onmousedown="handleZoom(evt,'out')"/>
  <use id="reset" xlink:href="#resetDef" x="30" y="36" onmousedown="handleReset()"/>
   <use id="arrowup" xlink:href="#arrowUp" x="0" y="0" onmousedown="handlePan(0,-1)"/>
  <use id="arrowright" xlink:href="#arrowRight" x="0" y="0" onmousedown="handlePan(1,0)"/>
  <use id="arrowdown" xlink:href="#arrowDown" x="0" y="0" onmousedown="handlePan(0,1)"/>
  <use id="arrowleft" xlink:href="#arrowLeft" x="0" y="0" onmousedown="handlePan(-1,0)"/>
</g>
<svg viewBox="0 0 15 15" width="100%" height="30px" preserveAspectRatio="xMaxYMin meet">
 <g id="arrow_out" transform="scale(0.3 0.3)">
  <a xlink:href="classArcane_1_1GeometryServiceBase_afc2e6de71eaf57c89b1617cf56e7e07a_cgraph_org.svg" target="_base">
   <rect id="button" ry="5" rx="5" y="6" x="6" height="38" width="38"
        fill="#f2f5e9" fill-opacity="0.5" stroke="#606060" stroke-width="1.0"/>
   <path id="arrow"
     d="M 11.500037,31.436501 C 11.940474,20.09759 22.043105,11.32322 32.158766,21.979434 L 37.068811,17.246167 C 37.068811,17.246167 37.088388,32 37.088388,32 L 22.160133,31.978069 C 22.160133,31.978069 26.997745,27.140456 26.997745,27.140456 C 18.528582,18.264221 13.291696,25.230495 11.500037,31.436501 z"
     style="fill:#404040;"/>
  </a>
 </g>
</svg>

<style type='text/css'>
<![CDATA[
[data-mouse-over-selected='false'] { opacity: 0.7; }
[data-mouse-over-selected='true']  { opacity: 1.0; }
]]>
</style>
<script type="application/ecmascript"><![CDATA[
document.addEventListener('DOMContentLoaded', (event) => {
  highlightEdges();
  highlightAdjacentNodes();
});
]]></script>
</svg>
