<?xml version="1.0" encoding="UTF-8" standalone="no"?>
<!DOCTYPE svg PUBLIC "-//W3C//DTD SVG 1.1//EN"
 "http://www.w3.org/Graphics/SVG/1.1/DTD/svg11.dtd">
<!-- Generated by graphviz version 2.43.0 (0)
 -->
<!-- Title: Arcane::Accelerator::ReducerMin2&lt; DataType &gt; Pages: 1 -->
<!--zoomable 2042 -->

<svg id="main" version="1.1" xmlns="http://www.w3.org/2000/svg" xmlns:xlink="http://www.w3.org/1999/xlink" xml:space="preserve" onload="init(evt)">

<style type="text/css"><![CDATA[
.node, .edge {opacity: 0.7;}
.node.selected, .edge.selected {opacity: 1;}
.edge:hover path { stroke: red; }
.edge:hover polygon { stroke: red; fill: red; }
]]></style>

<defs>
  <circle id="rim" cx="0" cy="0" r="7"/>
  <circle id="rim2" cx="0" cy="0" r="3.5"/>
  <g id="zoomPlus">
    <use xlink:href="#rim" fill="#404040"><set attributeName="fill" to="#808080" begin="zoomplus.mouseover" end="zoomplus.mouseout"/></use>
    <path d="M-4,0h8M0,-4v8" fill="none" stroke="white" stroke-width="1.5" pointer-events="none"/>
  </g>
  <g id="zoomMin">
    <use xlink:href="#rim" fill="#404040"><set attributeName="fill" to="#808080" begin="zoomminus.mouseover" end="zoomminus.mouseout"/></use>
    <path d="M-4,0h8" fill="none" stroke="white" stroke-width="1.5" pointer-events="none"/>
  </g>
  <g id="arrowUp" transform="translate(30 24)">
    <use xlink:href="#rim"/>
    <path pointer-events="none" fill="none" stroke="white" stroke-width="1.5" d="M0,-3.0v7 M-2.5,-0.5L0,-3.0L2.5,-0.5"/>
  </g>
  <g id="arrowRight" transform="rotate(90) translate(36 -43)">
    <use xlink:href="#rim"/>
    <path pointer-events="none" fill="none" stroke="white" stroke-width="1.5" d="M0,-3.0v7 M-2.5,-0.5L0,-3.0L2.5,-0.5"/>
  </g>
  <g id="arrowDown" transform="rotate(180) translate(-30 -48)">
    <use xlink:href="#rim"/>
    <path pointer-events="none" fill="none" stroke="white" stroke-width="1.5" d="M0,-3.0v7 M-2.5,-0.5L0,-3.0L2.5,-0.5"/>
  </g>
  <g id="arrowLeft" transform="rotate(270) translate(-36 17)">
    <use xlink:href="#rim"/>
    <path pointer-events="none" fill="none" stroke="white" stroke-width="1.5" d="M0,-3.0v7 M-2.5,-0.5L0,-3.0L2.5,-0.5"/>
  </g>
  <g id="resetDef">
    <use xlink:href="#rim2" fill="#404040"><set attributeName="fill" to="#808080" begin="reset.mouseover" end="reset.mouseout"/></use>
  </g>
</defs>
<script type="application/ecmascript">
var viewWidth = 407;
var viewHeight = 2042;
var sectionId = 'dynsection-1';
</script>
<script type="application/ecmascript" xlink:href="../../svg.min.js"/>
<svg id="graph" class="graph">
<g id="viewport">
<title>Arcane::Accelerator::ReducerMin2&lt; DataType &gt;</title>
<!-- Node1 -->
<g id="Node000001" class="node">
<title>Node1</title>
<g id="a_Node000001"><a xlink:title="Classe pour effectuer une réduction &#39;min&#39;.">
<polygon fill="#999999" stroke="transparent" points="233.5,-75 84.5,-75 84.5,0 233.5,0 233.5,-75"/>
<text text-anchor="start" x="90" y="-62.5" font-family="Helvetica,sans-Serif" font-size="10.00">Arcane::Accelerator</text>
<text text-anchor="start" x="90" y="-51.5" font-family="Helvetica,sans-Serif" font-size="10.00">::ReducerMin2&lt; DataType &gt;</text>
<text text-anchor="start" x="157.5" y="-36.5" font-family="Helvetica,sans-Serif" font-size="10.00"> </text>
<text text-anchor="start" x="103" y="-21.5" font-family="Helvetica,sans-Serif" font-size="10.00">+</text>
<text text-anchor="start" x="130" y="-21.5" font-family="Helvetica,sans-Serif" font-size="10.00">ReducerMin2()</text>
<text text-anchor="start" x="103" y="-6.5" font-family="Helvetica,sans-Serif" font-size="10.00">+</text>
<text text-anchor="start" x="130" y="-6.5" font-family="Helvetica,sans-Serif" font-size="10.00">combine()</text>
<polygon fill="#666666" stroke="#666666" points="85,-46.5 85,-46.5 234,-46.5 234,-46.5 85,-46.5"/>
<polygon fill="#666666" stroke="#666666" points="85,-31.5 85,-31.5 234,-31.5 234,-31.5 85,-31.5"/>
<polygon fill="none" stroke="#666666" points="84.5,0 84.5,-75 233.5,-75 233.5,0 84.5,0"/>
</a>
</g>
</g>
<!-- Node2 -->
<g id="Node000002" class="node">
<title>Node2</title>
<g id="a_Node000002"><a xlink:href="../../d1/db3/classArcane_1_1Accelerator_1_1HostDeviceReducer2.html" target="_top" xlink:title=" ">
<polygon fill="white" stroke="transparent" points="245.5,-336 72.5,-336 72.5,-112 245.5,-112 245.5,-336"/>
<text text-anchor="start" x="78" y="-324" font-family="Helvetica,sans-Serif" font-size="10.00">Arcane::Accelerator</text>
<text text-anchor="start" x="78" y="-313" font-family="Helvetica,sans-Serif" font-size="10.00">::HostDeviceReducer2</text>
<text text-anchor="start" x="78" y="-302" font-family="Helvetica,sans-Serif" font-size="10.00">&lt; DataType, Impl::ReduceFunctor</text>
<text text-anchor="start" x="110.5" y="-291" font-family="Helvetica,sans-Serif" font-size="10.00">Min&lt; DataType &gt; &gt;</text>
<text text-anchor="start" x="78.5" y="-276" font-family="Helvetica,sans-Serif" font-size="10.00">+</text>
<text text-anchor="start" x="93" y="-276" font-family="Helvetica,sans-Serif" font-size="10.00">m_grid_memory_info</text>
<text text-anchor="start" x="78.5" y="-261" font-family="Helvetica,sans-Serif" font-size="10.00">+</text>
<text text-anchor="start" x="93" y="-261" font-family="Helvetica,sans-Serif" font-size="10.00">m_host_memory_for_reduced</text>
<text text-anchor="start" x="93" y="-250" font-family="Helvetica,sans-Serif" font-size="10.00">_value</text>
<text text-anchor="start" x="78.5" y="-235" font-family="Helvetica,sans-Serif" font-size="10.00">+</text>
<text text-anchor="start" x="93" y="-235" font-family="Helvetica,sans-Serif" font-size="10.00">m_local_value</text>
<text text-anchor="start" x="78.5" y="-220" font-family="Helvetica,sans-Serif" font-size="10.00">+</text>
<text text-anchor="start" x="93" y="-220" font-family="Helvetica,sans-Serif" font-size="10.00">m_grid_memory_info</text>
<text text-anchor="start" x="78.5" y="-205" font-family="Helvetica,sans-Serif" font-size="10.00">+</text>
<text text-anchor="start" x="93" y="-205" font-family="Helvetica,sans-Serif" font-size="10.00">m_host_memory_for_reduced</text>
<text text-anchor="start" x="93" y="-194" font-family="Helvetica,sans-Serif" font-size="10.00">_value</text>
<text text-anchor="start" x="78.5" y="-179" font-family="Helvetica,sans-Serif" font-size="10.00">+</text>
<text text-anchor="start" x="93" y="-179" font-family="Helvetica,sans-Serif" font-size="10.00">m_local_value</text>
<text text-anchor="start" x="78.5" y="-164" font-family="Helvetica,sans-Serif" font-size="10.00">+</text>
<text text-anchor="start" x="93" y="-164" font-family="Helvetica,sans-Serif" font-size="10.00">HostDeviceReducer2()</text>
<text text-anchor="start" x="78.5" y="-149" font-family="Helvetica,sans-Serif" font-size="10.00">+</text>
<text text-anchor="start" x="93" y="-149" font-family="Helvetica,sans-Serif" font-size="10.00">reducedValue()</text>
<text text-anchor="start" x="78.5" y="-134" font-family="Helvetica,sans-Serif" font-size="10.00">+</text>
<text text-anchor="start" x="93" y="-134" font-family="Helvetica,sans-Serif" font-size="10.00">HostDeviceReducer2()</text>
<text text-anchor="start" x="78.5" y="-119" font-family="Helvetica,sans-Serif" font-size="10.00">+</text>
<text text-anchor="start" x="93" y="-119" font-family="Helvetica,sans-Serif" font-size="10.00">reducedValue()</text>
<polygon fill="#666666" stroke="#666666" points="73,-286 73,-286 246,-286 246,-286 73,-286"/>
<polygon fill="#666666" stroke="#666666" points="73,-174 73,-174 91,-174 91,-174 73,-174"/>
<polygon fill="#666666" stroke="#666666" points="91,-174 91,-174 246,-174 246,-174 91,-174"/>
<polygon fill="none" stroke="#666666" points="72.5,-112 72.5,-336 245.5,-336 245.5,-112 72.5,-112"/>
</a>
</g>
</g>
<!-- Node2&#45;&gt;Node1 -->
<g id="edge1_Node000001_Node000002" class="edge">
<title>Node2&#45;&gt;Node1</title>
<g id="a_edge1_Node000001_Node000002"><a xlink:title=" ">
<path fill="none" stroke="#63b8ff" d="M159,-101.92C159,-92.44 159,-83.41 159,-75.29"/>
<polygon fill="none" stroke="#63b8ff" points="155.5,-101.95 159,-111.95 162.5,-101.95 155.5,-101.95"/>
</a>
</g>
</g>
<!-- Node3 -->
<g id="Node000003" class="node">
<title>Node3</title>
<g id="a_Node000003"><a xlink:href="../../d6/dac/classArcane_1_1Accelerator_1_1HostDeviceReducerBase.html" target="_top" xlink:title="Opérateur de réduction.">
<polygon fill="white" stroke="transparent" points="242.5,-620 75.5,-620 75.5,-373 242.5,-373 242.5,-620"/>
<text text-anchor="start" x="86" y="-607.5" font-family="Helvetica,sans-Serif" font-size="10.00">Arcane::Accelerator</text>
<text text-anchor="start" x="86" y="-596.5" font-family="Helvetica,sans-Serif" font-size="10.00">::HostDeviceReducerBase</text>
<text text-anchor="start" x="86" y="-585.5" font-family="Helvetica,sans-Serif" font-size="10.00">&lt; DataType, ReduceFunctor &gt;</text>
<text text-anchor="start" x="80" y="-570.5" font-family="Helvetica,sans-Serif" font-size="10.00">#</text>
<text text-anchor="start" x="93" y="-570.5" font-family="Helvetica,sans-Serif" font-size="10.00">m_host_memory_for_reduced</text>
<text text-anchor="start" x="93" y="-559.5" font-family="Helvetica,sans-Serif" font-size="10.00">_value</text>
<text text-anchor="start" x="80" y="-544.5" font-family="Helvetica,sans-Serif" font-size="10.00">#</text>
<text text-anchor="start" x="93" y="-544.5" font-family="Helvetica,sans-Serif" font-size="10.00">m_local_value</text>
<text text-anchor="start" x="80" y="-529.5" font-family="Helvetica,sans-Serif" font-size="10.00">#</text>
<text text-anchor="start" x="93" y="-529.5" font-family="Helvetica,sans-Serif" font-size="10.00">m_atomic_parent_value</text>
<text text-anchor="start" x="80" y="-514.5" font-family="Helvetica,sans-Serif" font-size="10.00">#</text>
<text text-anchor="start" x="93" y="-514.5" font-family="Helvetica,sans-Serif" font-size="10.00">m_atomic_value</text>
<text text-anchor="start" x="82.5" y="-499.5" font-family="Helvetica,sans-Serif" font-size="10.00">&#45;</text>
<text text-anchor="start" x="93" y="-499.5" font-family="Helvetica,sans-Serif" font-size="10.00">m_is_master_instance</text>
<text text-anchor="start" x="80" y="-484.5" font-family="Helvetica,sans-Serif" font-size="10.00">+</text>
<text text-anchor="start" x="93" y="-484.5" font-family="Helvetica,sans-Serif" font-size="10.00">HostDeviceReducerBase()</text>
<text text-anchor="start" x="80" y="-469.5" font-family="Helvetica,sans-Serif" font-size="10.00">+</text>
<text text-anchor="start" x="93" y="-469.5" font-family="Helvetica,sans-Serif" font-size="10.00">HostDeviceReducerBase()</text>
<text text-anchor="start" x="80" y="-454.5" font-family="Helvetica,sans-Serif" font-size="10.00">+</text>
<text text-anchor="start" x="93" y="-454.5" font-family="Helvetica,sans-Serif" font-size="10.00">HostDeviceReducerBase()</text>
<text text-anchor="start" x="80" y="-439.5" font-family="Helvetica,sans-Serif" font-size="10.00">+</text>
<text text-anchor="start" x="93" y="-439.5" font-family="Helvetica,sans-Serif" font-size="10.00">operator=()</text>
<text text-anchor="start" x="80" y="-424.5" font-family="Helvetica,sans-Serif" font-size="10.00">+</text>
<text text-anchor="start" x="93" y="-424.5" font-family="Helvetica,sans-Serif" font-size="10.00">setValue()</text>
<text text-anchor="start" x="80" y="-409.5" font-family="Helvetica,sans-Serif" font-size="10.00">+</text>
<text text-anchor="start" x="93" y="-409.5" font-family="Helvetica,sans-Serif" font-size="10.00">localValue()</text>
<text text-anchor="start" x="80" y="-394.5" font-family="Helvetica,sans-Serif" font-size="10.00">#</text>
<text text-anchor="start" x="93" y="-394.5" font-family="Helvetica,sans-Serif" font-size="10.00">_reduce()</text>
<text text-anchor="start" x="80" y="-379.5" font-family="Helvetica,sans-Serif" font-size="10.00">#</text>
<text text-anchor="start" x="93" y="-379.5" font-family="Helvetica,sans-Serif" font-size="10.00">_finalize()</text>
<polygon fill="#666666" stroke="#666666" points="76,-580.5 76,-580.5 243,-580.5 243,-580.5 76,-580.5"/>
<polygon fill="#666666" stroke="#666666" points="76,-494.5 76,-494.5 91,-494.5 91,-494.5 76,-494.5"/>
<polygon fill="#666666" stroke="#666666" points="91,-494.5 91,-494.5 243,-494.5 243,-494.5 91,-494.5"/>
<polygon fill="none" stroke="#666666" points="75.5,-373 75.5,-620 242.5,-620 242.5,-373 75.5,-373"/>
</a>
</g>
</g>
<!-- Node3&#45;&gt;Node2 -->
<g id="edge2_Node000002_Node000003" class="edge">
<title>Node3&#45;&gt;Node2</title>
<g id="a_edge2_Node000002_Node000003"><a xlink:title=" ">
<path fill="none" stroke="#63b8ff" d="M159,-362.63C159,-353.85 159,-345.07 159,-336.41"/>
<polygon fill="none" stroke="#63b8ff" points="155.5,-362.91 159,-372.91 162.5,-362.91 155.5,-362.91"/>
</a>
</g>
</g>
<!-- Node4 -->
<g id="Node000004" class="node">
<title>Node4</title>
<g id="a_Node000004"><a xlink:href="../../df/d9f/classArcane_1_1Accelerator_1_1Impl_1_1IReduceMemoryImpl.html" target="_top" xlink:title="Interface de la gestion mémoire pour les réductions.">
<polygon fill="white" stroke="transparent" points="168,-802 0,-802 0,-667 168,-667 168,-802"/>
<text text-anchor="start" x="16" y="-789.5" font-family="Helvetica,sans-Serif" font-size="10.00">Arcane::Accelerator</text>
<text text-anchor="start" x="16" y="-778.5" font-family="Helvetica,sans-Serif" font-size="10.00">::Impl::IReduceMemoryImpl</text>
<text text-anchor="start" x="82" y="-763.5" font-family="Helvetica,sans-Serif" font-size="10.00"> </text>
<text text-anchor="start" x="4" y="-748.5" font-family="Helvetica,sans-Serif" font-size="10.00">+</text>
<text text-anchor="start" x="17" y="-748.5" font-family="Helvetica,sans-Serif" font-size="10.00">~IReduceMemoryImpl()</text>
<text text-anchor="start" x="4" y="-733.5" font-family="Helvetica,sans-Serif" font-size="10.00">+</text>
<text text-anchor="start" x="17" y="-733.5" font-family="Helvetica,sans-Serif" font-size="10.00">allocateReduceDataMemory()</text>
<text text-anchor="start" x="4" y="-718.5" font-family="Helvetica,sans-Serif" font-size="10.00">+</text>
<text text-anchor="start" x="17" y="-718.5" font-family="Helvetica,sans-Serif" font-size="10.00">setGridSizeAndAllocate()</text>
<text text-anchor="start" x="4" y="-703.5" font-family="Helvetica,sans-Serif" font-size="10.00">+</text>
<text text-anchor="start" x="17" y="-703.5" font-family="Helvetica,sans-Serif" font-size="10.00">gridSize()</text>
<text text-anchor="start" x="4" y="-688.5" font-family="Helvetica,sans-Serif" font-size="10.00">+</text>
<text text-anchor="start" x="17" y="-688.5" font-family="Helvetica,sans-Serif" font-size="10.00">gridMemoryInfo()</text>
<text text-anchor="start" x="4" y="-673.5" font-family="Helvetica,sans-Serif" font-size="10.00">+</text>
<text text-anchor="start" x="17" y="-673.5" font-family="Helvetica,sans-Serif" font-size="10.00">release()</text>
<polygon fill="#666666" stroke="#666666" points="0,-773.5 0,-773.5 168,-773.5 168,-773.5 0,-773.5"/>
<polygon fill="#666666" stroke="#666666" points="0,-758.5 0,-758.5 168,-758.5 168,-758.5 0,-758.5"/>
<polygon fill="none" stroke="#666666" points="0,-667 0,-802 168,-802 168,-667 0,-667"/>
</a>
</g>
</g>
<!-- Node4&#45;&gt;Node3 -->
<g id="edge3_Node000003_Node000004" class="edge">
<title>Node4&#45;&gt;Node3</title>
<g id="a_edge3_Node000003_Node000004"><a xlink:title=" ">
<path fill="none" stroke="#63b8ff" d="M105.19,-666.82C108.7,-655.77 112.45,-643.97 116.28,-631.94"/>
<polygon fill="none" stroke="#63b8ff" points="116.32,-631.78 114.33,-624.85 119.96,-620.35 121.95,-627.28 116.32,-631.78"/>
</a>
</g>
<text text-anchor="middle" x="159.5" y="-641" font-family="Helvetica,sans-Serif" font-size="10.00" fill="grey"> #m_memory_impl</text>
</g>
<!-- Node5 -->
<g id="Node000005" class="node">
<title>Node5</title>
<g id="a_Node000005"><a xlink:href="../../de/def/structArcane_1_1Accelerator_1_1Impl_1_1IReduceMemoryImpl_1_1GridMemoryInfo.html" target="_top" xlink:title="Informations mémoire pour la réduction sur les accélérateurs.">
<polygon fill="white" stroke="transparent" points="352.5,-783 185.5,-783 185.5,-686 352.5,-686 352.5,-783"/>
<text text-anchor="start" x="201.5" y="-770.5" font-family="Helvetica,sans-Serif" font-size="10.00">Arcane::Accelerator</text>
<text text-anchor="start" x="201.5" y="-759.5" font-family="Helvetica,sans-Serif" font-size="10.00">::Impl::IReduceMemoryImpl</text>
<text text-anchor="start" x="226.5" y="-748.5" font-family="Helvetica,sans-Serif" font-size="10.00">::GridMemoryInfo</text>
<text text-anchor="start" x="190" y="-733.5" font-family="Helvetica,sans-Serif" font-size="10.00">+</text>
<text text-anchor="start" x="203" y="-733.5" font-family="Helvetica,sans-Serif" font-size="10.00">m_grid_device_count</text>
<text text-anchor="start" x="190" y="-718.5" font-family="Helvetica,sans-Serif" font-size="10.00">+</text>
<text text-anchor="start" x="203" y="-718.5" font-family="Helvetica,sans-Serif" font-size="10.00">m_host_memory_for_reduced</text>
<text text-anchor="start" x="203" y="-707.5" font-family="Helvetica,sans-Serif" font-size="10.00">_value</text>
<text text-anchor="start" x="267.5" y="-692.5" font-family="Helvetica,sans-Serif" font-size="10.00"> </text>
<polygon fill="#666666" stroke="#666666" points="186,-743.5 186,-743.5 353,-743.5 353,-743.5 186,-743.5"/>
<polygon fill="#666666" stroke="#666666" points="186,-702.5 186,-702.5 201,-702.5 201,-702.5 186,-702.5"/>
<polygon fill="#666666" stroke="#666666" points="201,-702.5 201,-702.5 353,-702.5 353,-702.5 201,-702.5"/>
<polygon fill="none" stroke="#666666" points="185.5,-686 185.5,-783 352.5,-783 352.5,-686 185.5,-686"/>
</a>
</g>
</g>
<!-- Node5&#45;&gt;Node3 -->
<g id="edge4_Node000003_Node000005" class="edge">
<title>Node5&#45;&gt;Node3</title>
<g id="a_edge4_Node000003_Node000005"><a xlink:title=" ">
<path fill="none" stroke="#63b8ff" d="M246.74,-685.74C239.25,-669.68 230.49,-650.89 221.46,-631.51"/>
<polygon fill="none" stroke="#63b8ff" points="221.34,-631.25 215.18,-627.5 216.27,-620.37 222.43,-624.12 221.34,-631.25"/>
</a>
</g>
<text text-anchor="middle" x="285" y="-641" font-family="Helvetica,sans-Serif" font-size="10.00" fill="grey"> #m_grid_memory_info</text>
</g>
<!-- Node6 -->
<g id="Node000006" class="node">
<title>Node6</title>
<g id="a_Node000006"><a xlink:href="../../d4/d71/classArcane_1_1MutableMemoryView.html" target="_top" xlink:title="Vue modifiable sur une zone mémoire contigue contenant des éléments de taille fixe.">
<polygon fill="white" stroke="transparent" points="352,-1138 186,-1138 186,-849 352,-849 352,-1138"/>
<text text-anchor="start" x="196.5" y="-1125.5" font-family="Helvetica,sans-Serif" font-size="10.00">Arcane::MutableMemoryView</text>
<text text-anchor="start" x="192.5" y="-1110.5" font-family="Helvetica,sans-Serif" font-size="10.00">&#45;</text>
<text text-anchor="start" x="203" y="-1110.5" font-family="Helvetica,sans-Serif" font-size="10.00">m_nb_element</text>
<text text-anchor="start" x="192.5" y="-1095.5" font-family="Helvetica,sans-Serif" font-size="10.00">&#45;</text>
<text text-anchor="start" x="203" y="-1095.5" font-family="Helvetica,sans-Serif" font-size="10.00">m_datatype_size</text>
<text text-anchor="start" x="190" y="-1080.5" font-family="Helvetica,sans-Serif" font-size="10.00">+</text>
<text text-anchor="start" x="203" y="-1080.5" font-family="Helvetica,sans-Serif" font-size="10.00">MutableMemoryView()</text>
<text text-anchor="start" x="190" y="-1065.5" font-family="Helvetica,sans-Serif" font-size="10.00">+</text>
<text text-anchor="start" x="203" y="-1065.5" font-family="Helvetica,sans-Serif" font-size="10.00">MutableMemoryView()</text>
<text text-anchor="start" x="190" y="-1050.5" font-family="Helvetica,sans-Serif" font-size="10.00">+</text>
<text text-anchor="start" x="203" y="-1050.5" font-family="Helvetica,sans-Serif" font-size="10.00">MutableMemoryView()</text>
<text text-anchor="start" x="190" y="-1035.5" font-family="Helvetica,sans-Serif" font-size="10.00">+</text>
<text text-anchor="start" x="203" y="-1035.5" font-family="Helvetica,sans-Serif" font-size="10.00">MutableMemoryView()</text>
<text text-anchor="start" x="190" y="-1020.5" font-family="Helvetica,sans-Serif" font-size="10.00">+</text>
<text text-anchor="start" x="203" y="-1020.5" font-family="Helvetica,sans-Serif" font-size="10.00">MutableMemoryView()</text>
<text text-anchor="start" x="190" y="-1005.5" font-family="Helvetica,sans-Serif" font-size="10.00">+</text>
<text text-anchor="start" x="203" y="-1005.5" font-family="Helvetica,sans-Serif" font-size="10.00">MutableMemoryView()</text>
<text text-anchor="start" x="190" y="-990.5" font-family="Helvetica,sans-Serif" font-size="10.00">+</text>
<text text-anchor="start" x="203" y="-990.5" font-family="Helvetica,sans-Serif" font-size="10.00">operator=()</text>
<text text-anchor="start" x="190" y="-975.5" font-family="Helvetica,sans-Serif" font-size="10.00">+</text>
<text text-anchor="start" x="203" y="-975.5" font-family="Helvetica,sans-Serif" font-size="10.00">operator ConstMemoryView()</text>
<text text-anchor="start" x="190" y="-960.5" font-family="Helvetica,sans-Serif" font-size="10.00">+</text>
<text text-anchor="start" x="203" y="-960.5" font-family="Helvetica,sans-Serif" font-size="10.00">bytes()</text>
<text text-anchor="start" x="190" y="-945.5" font-family="Helvetica,sans-Serif" font-size="10.00">+</text>
<text text-anchor="start" x="203" y="-945.5" font-family="Helvetica,sans-Serif" font-size="10.00">data()</text>
<text text-anchor="start" x="190" y="-930.5" font-family="Helvetica,sans-Serif" font-size="10.00">+</text>
<text text-anchor="start" x="203" y="-930.5" font-family="Helvetica,sans-Serif" font-size="10.00">nbElement()</text>
<text text-anchor="start" x="190" y="-915.5" font-family="Helvetica,sans-Serif" font-size="10.00">+</text>
<text text-anchor="start" x="203" y="-915.5" font-family="Helvetica,sans-Serif" font-size="10.00">datatypeSize()</text>
<text text-anchor="start" x="190" y="-900.5" font-family="Helvetica,sans-Serif" font-size="10.00">+</text>
<text text-anchor="start" x="203" y="-900.5" font-family="Helvetica,sans-Serif" font-size="10.00">subView()</text>
<text text-anchor="start" x="190" y="-885.5" font-family="Helvetica,sans-Serif" font-size="10.00">+</text>
<text text-anchor="start" x="203" y="-885.5" font-family="Helvetica,sans-Serif" font-size="10.00">span()</text>
<text text-anchor="start" x="190" y="-870.5" font-family="Helvetica,sans-Serif" font-size="10.00">+</text>
<text text-anchor="start" x="203" y="-870.5" font-family="Helvetica,sans-Serif" font-size="10.00">size()</text>
<text text-anchor="start" x="192.5" y="-855.5" font-family="Helvetica,sans-Serif" font-size="10.00">&#45;</text>
<text text-anchor="start" x="203" y="-855.5" font-family="Helvetica,sans-Serif" font-size="10.00">MutableMemoryView()</text>
<polygon fill="#666666" stroke="#666666" points="186,-1120.5 186,-1120.5 352,-1120.5 352,-1120.5 186,-1120.5"/>
<polygon fill="#666666" stroke="#666666" points="186,-1090.5 186,-1090.5 201,-1090.5 201,-1090.5 186,-1090.5"/>
<polygon fill="#666666" stroke="#666666" points="201,-1090.5 201,-1090.5 352,-1090.5 352,-1090.5 201,-1090.5"/>
<polygon fill="none" stroke="#666666" points="186,-849 186,-1138 352,-1138 352,-849 186,-849"/>
</a>
</g>
</g>
<!-- Node6&#45;&gt;Node5 -->
<g id="edge5_Node000005_Node000006" class="edge">
<title>Node6&#45;&gt;Node5</title>
<g id="a_edge5_Node000005_Node000006"><a xlink:title=" ">
<path fill="none" stroke="#63b8ff" d="M269,-848.97C269,-830.1 269,-811.66 269,-795.32"/>
<polygon fill="none" stroke="#63b8ff" points="269,-795.27 265,-789.27 269,-783.27 273,-789.27 269,-795.27"/>
</a>
</g>
<text text-anchor="middle" x="334" y="-823" font-family="Helvetica,sans-Serif" font-size="10.00" fill="grey"> +m_grid_memory_values</text>
</g>
<!-- Node7 -->
<g id="Node000007" class="node">
<title>Node7</title>
<g id="a_Node000007"><a xlink:href="../../d2/d5e/classArcane_1_1Span.html" target="_top" xlink:title=" ">
<polygon fill="white" stroke="transparent" points="322.5,-1500 215.5,-1500 215.5,-1185 322.5,-1185 322.5,-1500"/>
<text text-anchor="start" x="221" y="-1487.5" font-family="Helvetica,sans-Serif" font-size="10.00">Arcane::Span&lt; std::</text>
<text text-anchor="start" x="252.5" y="-1476.5" font-family="Helvetica,sans-Serif" font-size="10.00">byte &gt;</text>
<text text-anchor="start" x="223" y="-1461.5" font-family="Helvetica,sans-Serif" font-size="10.00">+</text>
<text text-anchor="start" x="239" y="-1461.5" font-family="Helvetica,sans-Serif" font-size="10.00">IsDynamic</text>
<text text-anchor="start" x="223" y="-1446.5" font-family="Helvetica,sans-Serif" font-size="10.00">+</text>
<text text-anchor="start" x="239" y="-1446.5" font-family="Helvetica,sans-Serif" font-size="10.00">IsDynamic</text>
<text text-anchor="start" x="223" y="-1431.5" font-family="Helvetica,sans-Serif" font-size="10.00">+</text>
<text text-anchor="start" x="239" y="-1431.5" font-family="Helvetica,sans-Serif" font-size="10.00">IsDynamic</text>
<text text-anchor="start" x="223" y="-1416.5" font-family="Helvetica,sans-Serif" font-size="10.00">+</text>
<text text-anchor="start" x="239" y="-1416.5" font-family="Helvetica,sans-Serif" font-size="10.00">IsDynamic</text>
<text text-anchor="start" x="223" y="-1401.5" font-family="Helvetica,sans-Serif" font-size="10.00">+</text>
<text text-anchor="start" x="239" y="-1401.5" font-family="Helvetica,sans-Serif" font-size="10.00">Span()</text>
<text text-anchor="start" x="223" y="-1386.5" font-family="Helvetica,sans-Serif" font-size="10.00">+</text>
<text text-anchor="start" x="239" y="-1386.5" font-family="Helvetica,sans-Serif" font-size="10.00">Span()</text>
<text text-anchor="start" x="223" y="-1371.5" font-family="Helvetica,sans-Serif" font-size="10.00">+</text>
<text text-anchor="start" x="239" y="-1371.5" font-family="Helvetica,sans-Serif" font-size="10.00">Span()</text>
<text text-anchor="start" x="223" y="-1356.5" font-family="Helvetica,sans-Serif" font-size="10.00">+</text>
<text text-anchor="start" x="239" y="-1356.5" font-family="Helvetica,sans-Serif" font-size="10.00">Span()</text>
<text text-anchor="start" x="223" y="-1341.5" font-family="Helvetica,sans-Serif" font-size="10.00">+</text>
<text text-anchor="start" x="239" y="-1341.5" font-family="Helvetica,sans-Serif" font-size="10.00">Span()</text>
<text text-anchor="start" x="223" y="-1326.5" font-family="Helvetica,sans-Serif" font-size="10.00">+</text>
<text text-anchor="start" x="239" y="-1326.5" font-family="Helvetica,sans-Serif" font-size="10.00">Span()</text>
<text text-anchor="start" x="223" y="-1311.5" font-family="Helvetica,sans-Serif" font-size="10.00">+</text>
<text text-anchor="start" x="239" y="-1311.5" font-family="Helvetica,sans-Serif" font-size="10.00">Span()</text>
<text text-anchor="start" x="223" y="-1296.5" font-family="Helvetica,sans-Serif" font-size="10.00">+</text>
<text text-anchor="start" x="239" y="-1296.5" font-family="Helvetica,sans-Serif" font-size="10.00">Span()</text>
<text text-anchor="start" x="223" y="-1281.5" font-family="Helvetica,sans-Serif" font-size="10.00">+</text>
<text text-anchor="start" x="239" y="-1281.5" font-family="Helvetica,sans-Serif" font-size="10.00">Span()</text>
<text text-anchor="start" x="223" y="-1266.5" font-family="Helvetica,sans-Serif" font-size="10.00">+</text>
<text text-anchor="start" x="239" y="-1266.5" font-family="Helvetica,sans-Serif" font-size="10.00">Span()</text>
<text text-anchor="start" x="239" y="-1251.5" font-family="Helvetica,sans-Serif" font-size="10.00">et 62 de plus...</text>
<text text-anchor="start" x="223" y="-1236.5" font-family="Helvetica,sans-Serif" font-size="10.00">+</text>
<text text-anchor="start" x="239" y="-1236.5" font-family="Helvetica,sans-Serif" font-size="10.00">create()</text>
<text text-anchor="start" x="223" y="-1221.5" font-family="Helvetica,sans-Serif" font-size="10.00">+</text>
<text text-anchor="start" x="239" y="-1221.5" font-family="Helvetica,sans-Serif" font-size="10.00">create()</text>
<text text-anchor="start" x="223" y="-1206.5" font-family="Helvetica,sans-Serif" font-size="10.00">+</text>
<text text-anchor="start" x="239" y="-1206.5" font-family="Helvetica,sans-Serif" font-size="10.00">create()</text>
<text text-anchor="start" x="223" y="-1191.5" font-family="Helvetica,sans-Serif" font-size="10.00">+</text>
<text text-anchor="start" x="239" y="-1191.5" font-family="Helvetica,sans-Serif" font-size="10.00">create()</text>
<polygon fill="#666666" stroke="#666666" points="216,-1471.5 216,-1471.5 323,-1471.5 323,-1471.5 216,-1471.5"/>
<polygon fill="#666666" stroke="#666666" points="216,-1411.5 216,-1411.5 237,-1411.5 237,-1411.5 216,-1411.5"/>
<polygon fill="#666666" stroke="#666666" points="237,-1411.5 237,-1411.5 323,-1411.5 323,-1411.5 237,-1411.5"/>
<polygon fill="none" stroke="#666666" points="215.5,-1185 215.5,-1500 322.5,-1500 322.5,-1185 215.5,-1185"/>
</a>
</g>
</g>
<!-- Node7&#45;&gt;Node6 -->
<g id="edge6_Node000006_Node000007" class="edge">
<title>Node7&#45;&gt;Node6</title>
<g id="a_edge6_Node000006_Node000007"><a xlink:title=" ">
<path fill="none" stroke="#63b8ff" d="M269,-1184.75C269,-1173.34 269,-1161.83 269,-1150.43"/>
<polygon fill="none" stroke="#63b8ff" points="269,-1150.11 265,-1144.11 269,-1138.11 273,-1144.11 269,-1150.11"/>
</a>
</g>
<text text-anchor="middle" x="293.5" y="-1159" font-family="Helvetica,sans-Serif" font-size="10.00" fill="grey"> &#45;m_bytes</text>
</g>
<!-- Node8 -->
<g id="Node000008" class="node">
<title>Node8</title>
<g id="a_Node000008"><a xlink:href="../../df/d52/classArcane_1_1SpanImpl.html" target="_top" xlink:title="Vue d&#39;un tableau d&#39;éléments de type T.">
<polygon fill="white" stroke="transparent" points="327,-1837 211,-1837 211,-1537 327,-1537 327,-1837"/>
<text text-anchor="start" x="216" y="-1825" font-family="Helvetica,sans-Serif" font-size="10.00">Arcane::SpanImpl&lt; T,</text>
<text text-anchor="start" x="221.5" y="-1814" font-family="Helvetica,sans-Serif" font-size="10.00"> SizeType, Extent &gt;</text>
<text text-anchor="start" x="220.5" y="-1799" font-family="Helvetica,sans-Serif" font-size="10.00">+</text>
<text text-anchor="start" x="239" y="-1799" font-family="Helvetica,sans-Serif" font-size="10.00">IsDynamic</text>
<text text-anchor="start" x="223" y="-1784" font-family="Helvetica,sans-Serif" font-size="10.00">&#45;</text>
<text text-anchor="start" x="239" y="-1784" font-family="Helvetica,sans-Serif" font-size="10.00">m_ptr</text>
<text text-anchor="start" x="220.5" y="-1769" font-family="Helvetica,sans-Serif" font-size="10.00">+</text>
<text text-anchor="start" x="239" y="-1769" font-family="Helvetica,sans-Serif" font-size="10.00">SpanImpl()</text>
<text text-anchor="start" x="220.5" y="-1754" font-family="Helvetica,sans-Serif" font-size="10.00">+</text>
<text text-anchor="start" x="239" y="-1754" font-family="Helvetica,sans-Serif" font-size="10.00">SpanImpl()</text>
<text text-anchor="start" x="220.5" y="-1739" font-family="Helvetica,sans-Serif" font-size="10.00">+</text>
<text text-anchor="start" x="239" y="-1739" font-family="Helvetica,sans-Serif" font-size="10.00">SpanImpl()</text>
<text text-anchor="start" x="220.5" y="-1724" font-family="Helvetica,sans-Serif" font-size="10.00">+</text>
<text text-anchor="start" x="239" y="-1724" font-family="Helvetica,sans-Serif" font-size="10.00">SpanImpl()</text>
<text text-anchor="start" x="220.5" y="-1709" font-family="Helvetica,sans-Serif" font-size="10.00">+</text>
<text text-anchor="start" x="239" y="-1709" font-family="Helvetica,sans-Serif" font-size="10.00">SpanImpl()</text>
<text text-anchor="start" x="220.5" y="-1694" font-family="Helvetica,sans-Serif" font-size="10.00">+</text>
<text text-anchor="start" x="239" y="-1694" font-family="Helvetica,sans-Serif" font-size="10.00">SpanImpl()</text>
<text text-anchor="start" x="220.5" y="-1679" font-family="Helvetica,sans-Serif" font-size="10.00">+</text>
<text text-anchor="start" x="239" y="-1679" font-family="Helvetica,sans-Serif" font-size="10.00">operator=()</text>
<text text-anchor="start" x="220.5" y="-1664" font-family="Helvetica,sans-Serif" font-size="10.00">+</text>
<text text-anchor="start" x="239" y="-1664" font-family="Helvetica,sans-Serif" font-size="10.00">operator[]()</text>
<text text-anchor="start" x="220.5" y="-1649" font-family="Helvetica,sans-Serif" font-size="10.00">+</text>
<text text-anchor="start" x="239" y="-1649" font-family="Helvetica,sans-Serif" font-size="10.00">operator()()</text>
<text text-anchor="start" x="220.5" y="-1634" font-family="Helvetica,sans-Serif" font-size="10.00">+</text>
<text text-anchor="start" x="239" y="-1634" font-family="Helvetica,sans-Serif" font-size="10.00">item()</text>
<text text-anchor="start" x="239" y="-1619" font-family="Helvetica,sans-Serif" font-size="10.00">et 29 de plus...</text>
<text text-anchor="start" x="220.5" y="-1604" font-family="Helvetica,sans-Serif" font-size="10.00">+</text>
<text text-anchor="start" x="239" y="-1604" font-family="Helvetica,sans-Serif" font-size="10.00">create()</text>
<text text-anchor="start" x="220.5" y="-1589" font-family="Helvetica,sans-Serif" font-size="10.00">#</text>
<text text-anchor="start" x="239" y="-1589" font-family="Helvetica,sans-Serif" font-size="10.00">_setArray()</text>
<text text-anchor="start" x="220.5" y="-1574" font-family="Helvetica,sans-Serif" font-size="10.00">#</text>
<text text-anchor="start" x="239" y="-1574" font-family="Helvetica,sans-Serif" font-size="10.00">_setPtr()</text>
<text text-anchor="start" x="220.5" y="-1559" font-family="Helvetica,sans-Serif" font-size="10.00">#</text>
<text text-anchor="start" x="239" y="-1559" font-family="Helvetica,sans-Serif" font-size="10.00">_setSize()</text>
<text text-anchor="start" x="223" y="-1544" font-family="Helvetica,sans-Serif" font-size="10.00">&#45;</text>
<text text-anchor="start" x="239" y="-1544" font-family="Helvetica,sans-Serif" font-size="10.00">_min()</text>
<polygon fill="#666666" stroke="#666666" points="211,-1809 211,-1809 327,-1809 327,-1809 211,-1809"/>
<polygon fill="#666666" stroke="#666666" points="211,-1779 211,-1779 237,-1779 237,-1779 211,-1779"/>
<polygon fill="#666666" stroke="#666666" points="237,-1779 237,-1779 327,-1779 327,-1779 237,-1779"/>
<polygon fill="none" stroke="#666666" points="211,-1537 211,-1837 327,-1837 327,-1537 211,-1537"/>
</a>
</g>
</g>
<!-- Node8&#45;&gt;Node7 -->
<g id="edge7_Node000007_Node000008" class="edge">
<title>Node8&#45;&gt;Node7</title>
<g id="a_edge7_Node000007_Node000008"><a xlink:title=" ">
<path fill="none" stroke="#63b8ff" d="M269,-1526.76C269,-1517.87 269,-1508.94 269,-1500.07"/>
<polygon fill="none" stroke="#63b8ff" points="265.5,-1526.77 269,-1536.77 272.5,-1526.77 265.5,-1526.77"/>
</a>
</g>
</g>
<!-- Node9 -->
<g id="Node000009" class="node">
<title>Node9</title>
<g id="a_Node000009"><a xlink:href="../../de/d3d/classArcane_1_1Impl_1_1ExtentStorage.html" target="_top" xlink:title=" ">
<polygon fill="white" stroke="transparent" points="342.5,-2034 195.5,-2034 195.5,-1884 342.5,-1884 342.5,-2034"/>
<text text-anchor="start" x="201" y="-2022" font-family="Helvetica,sans-Serif" font-size="10.00">Arcane::Impl::ExtentStorage</text>
<text text-anchor="start" x="218" y="-2011" font-family="Helvetica,sans-Serif" font-size="10.00">&lt; SizeType, Extent &gt;</text>
<text text-anchor="start" x="214.5" y="-1996" font-family="Helvetica,sans-Serif" font-size="10.00">&#45;</text>
<text text-anchor="start" x="237" y="-1996" font-family="Helvetica,sans-Serif" font-size="10.00">m_size</text>
<text text-anchor="start" x="214.5" y="-1981" font-family="Helvetica,sans-Serif" font-size="10.00">&#45;</text>
<text text-anchor="start" x="237" y="-1981" font-family="Helvetica,sans-Serif" font-size="10.00">m_size</text>
<text text-anchor="start" x="212" y="-1966" font-family="Helvetica,sans-Serif" font-size="10.00">+</text>
<text text-anchor="start" x="237" y="-1966" font-family="Helvetica,sans-Serif" font-size="10.00">ExtentStorage()</text>
<text text-anchor="start" x="212" y="-1951" font-family="Helvetica,sans-Serif" font-size="10.00">+</text>
<text text-anchor="start" x="237" y="-1951" font-family="Helvetica,sans-Serif" font-size="10.00">ExtentStorage()</text>
<text text-anchor="start" x="212" y="-1936" font-family="Helvetica,sans-Serif" font-size="10.00">+</text>
<text text-anchor="start" x="237" y="-1936" font-family="Helvetica,sans-Serif" font-size="10.00">size()</text>
<text text-anchor="start" x="212" y="-1921" font-family="Helvetica,sans-Serif" font-size="10.00">+</text>
<text text-anchor="start" x="237" y="-1921" font-family="Helvetica,sans-Serif" font-size="10.00">ExtentStorage()</text>
<text text-anchor="start" x="212" y="-1906" font-family="Helvetica,sans-Serif" font-size="10.00">+</text>
<text text-anchor="start" x="237" y="-1906" font-family="Helvetica,sans-Serif" font-size="10.00">ExtentStorage()</text>
<text text-anchor="start" x="212" y="-1891" font-family="Helvetica,sans-Serif" font-size="10.00">+</text>
<text text-anchor="start" x="237" y="-1891" font-family="Helvetica,sans-Serif" font-size="10.00">size()</text>
<polygon fill="#666666" stroke="#666666" points="196,-2006 196,-2006 343,-2006 343,-2006 196,-2006"/>
<polygon fill="#666666" stroke="#666666" points="196,-1976 196,-1976 235,-1976 235,-1976 196,-1976"/>
<polygon fill="#666666" stroke="#666666" points="235,-1976 235,-1976 343,-1976 343,-1976 235,-1976"/>
<polygon fill="none" stroke="#666666" points="195.5,-1884 195.5,-2034 342.5,-2034 342.5,-1884 195.5,-1884"/>
</a>
</g>
</g>
<!-- Node9&#45;&gt;Node8 -->
<g id="edge8_Node000008_Node000009" class="edge">
<title>Node9&#45;&gt;Node8</title>
<g id="a_edge8_Node000008_Node000009"><a xlink:title=" ">
<path fill="none" stroke="#63b8ff" d="M269,-1883.86C269,-1872.86 269,-1861.17 269,-1849.19"/>
<polygon fill="none" stroke="#63b8ff" points="269,-1849.14 265,-1843.14 269,-1837.14 273,-1843.14 269,-1849.14"/>
</a>
</g>
<text text-anchor="middle" x="290" y="-1858" font-family="Helvetica,sans-Serif" font-size="10.00" fill="grey"> &#45;m_size</text>
</g>
</g>
</svg>

<g id="navigator" transform="translate(0 0)" fill="#404254">
  <rect fill="#f2f5e9" fill-opacity="0.5" stroke="#606060" stroke-width=".5" x="0" y="0" width="60" height="60"/>
  <use id="zoomplus" xlink:href="#zoomPlus" x="17" y="9" onmousedown="handleZoom(evt,'in')"/>
  <use id="zoomminus" xlink:href="#zoomMin" x="42" y="9" onmousedown="handleZoom(evt,'out')"/>
  <use id="reset" xlink:href="#resetDef" x="30" y="36" onmousedown="handleReset()"/>
   <use id="arrowup" xlink:href="#arrowUp" x="0" y="0" onmousedown="handlePan(0,-1)"/>
  <use id="arrowright" xlink:href="#arrowRight" x="0" y="0" onmousedown="handlePan(1,0)"/>
  <use id="arrowdown" xlink:href="#arrowDown" x="0" y="0" onmousedown="handlePan(0,1)"/>
  <use id="arrowleft" xlink:href="#arrowLeft" x="0" y="0" onmousedown="handlePan(-1,0)"/>
</g>
<svg viewBox="0 0 15 15" width="100%" height="30px" preserveAspectRatio="xMaxYMin meet">
 <g id="arrow_out" transform="scale(0.3 0.3)">
  <a xlink:href="classArcane_1_1Accelerator_1_1ReducerMin2__coll__graph_org.svg" target="_base">
   <rect id="button" ry="5" rx="5" y="6" x="6" height="38" width="38"
        fill="#f2f5e9" fill-opacity="0.5" stroke="#606060" stroke-width="1.0"/>
   <path id="arrow"
     d="M 11.500037,31.436501 C 11.940474,20.09759 22.043105,11.32322 32.158766,21.979434 L 37.068811,17.246167 C 37.068811,17.246167 37.088388,32 37.088388,32 L 22.160133,31.978069 C 22.160133,31.978069 26.997745,27.140456 26.997745,27.140456 C 18.528582,18.264221 13.291696,25.230495 11.500037,31.436501 z"
     style="fill:#404040;"/>
  </a>
 </g>
</svg>

<style type='text/css'>
<![CDATA[
[data-mouse-over-selected='false'] { opacity: 0.7; }
[data-mouse-over-selected='true']  { opacity: 1.0; }
]]>
</style>
<script type="application/ecmascript"><![CDATA[
document.addEventListener('DOMContentLoaded', (event) => {
  highlightEdges();
  highlightAdjacentNodes();
});
]]></script>
</svg>
