<?xml version="1.0" encoding="UTF-8" standalone="no"?>
<!DOCTYPE svg PUBLIC "-//W3C//DTD SVG 1.1//EN"
 "http://www.w3.org/Graphics/SVG/1.1/DTD/svg11.dtd">
<!-- Generated by graphviz version 2.43.0 (0)
 -->
<!-- Title: Arcane::ItemFamilyPolicyMng Pages: 1 -->
<!--zoomable 504 -->

<svg id="main" version="1.1" xmlns="http://www.w3.org/2000/svg" xmlns:xlink="http://www.w3.org/1999/xlink" xml:space="preserve" onload="init(evt)">

<style type="text/css"><![CDATA[
.node, .edge {opacity: 0.7;}
.node.selected, .edge.selected {opacity: 1;}
.edge:hover path { stroke: red; }
.edge:hover polygon { stroke: red; fill: red; }
]]></style>

<defs>
  <circle id="rim" cx="0" cy="0" r="7"/>
  <circle id="rim2" cx="0" cy="0" r="3.5"/>
  <g id="zoomPlus">
    <use xlink:href="#rim" fill="#404040"><set attributeName="fill" to="#808080" begin="zoomplus.mouseover" end="zoomplus.mouseout"/></use>
    <path d="M-4,0h8M0,-4v8" fill="none" stroke="white" stroke-width="1.5" pointer-events="none"/>
  </g>
  <g id="zoomMin">
    <use xlink:href="#rim" fill="#404040"><set attributeName="fill" to="#808080" begin="zoomminus.mouseover" end="zoomminus.mouseout"/></use>
    <path d="M-4,0h8" fill="none" stroke="white" stroke-width="1.5" pointer-events="none"/>
  </g>
  <g id="arrowUp" transform="translate(30 24)">
    <use xlink:href="#rim"/>
    <path pointer-events="none" fill="none" stroke="white" stroke-width="1.5" d="M0,-3.0v7 M-2.5,-0.5L0,-3.0L2.5,-0.5"/>
  </g>
  <g id="arrowRight" transform="rotate(90) translate(36 -43)">
    <use xlink:href="#rim"/>
    <path pointer-events="none" fill="none" stroke="white" stroke-width="1.5" d="M0,-3.0v7 M-2.5,-0.5L0,-3.0L2.5,-0.5"/>
  </g>
  <g id="arrowDown" transform="rotate(180) translate(-30 -48)">
    <use xlink:href="#rim"/>
    <path pointer-events="none" fill="none" stroke="white" stroke-width="1.5" d="M0,-3.0v7 M-2.5,-0.5L0,-3.0L2.5,-0.5"/>
  </g>
  <g id="arrowLeft" transform="rotate(270) translate(-36 17)">
    <use xlink:href="#rim"/>
    <path pointer-events="none" fill="none" stroke="white" stroke-width="1.5" d="M0,-3.0v7 M-2.5,-0.5L0,-3.0L2.5,-0.5"/>
  </g>
  <g id="resetDef">
    <use xlink:href="#rim2" fill="#404040"><set attributeName="fill" to="#808080" begin="reset.mouseover" end="reset.mouseout"/></use>
  </g>
</defs>
<script type="application/ecmascript">
var viewWidth = 1038;
var viewHeight = 504;
var sectionId = 'dynsection-0';
</script>
<script type="application/ecmascript" xlink:href="../../svg.min.js"/>
<svg id="graph" class="graph">
<g id="viewport">
<title>Arcane::ItemFamilyPolicyMng</title>
<!-- Node1 -->
<g id="Node000001" class="node">
<title>Node1</title>
<g id="a_Node000001"><a xlink:title="Gestionnaire des politiques d&#39;une famille d&#39;entités.">
<polygon fill="#999999" stroke="transparent" points="584.5,-336 429.5,-336 429.5,-152 584.5,-152 584.5,-336"/>
<text text-anchor="start" x="435" y="-324" font-family="Helvetica,sans-Serif" font-size="10.00">Arcane::ItemFamilyPolicyMng</text>
<text text-anchor="start" x="437" y="-309" font-family="Helvetica,sans-Serif" font-size="10.00">&#45;</text>
<text text-anchor="start" x="448" y="-309" font-family="Helvetica,sans-Serif" font-size="10.00">m_item_family</text>
<text text-anchor="start" x="437" y="-294" font-family="Helvetica,sans-Serif" font-size="10.00">&#45;</text>
<text text-anchor="start" x="448" y="-294" font-family="Helvetica,sans-Serif" font-size="10.00">m_compact_policy</text>
<text text-anchor="start" x="437" y="-279" font-family="Helvetica,sans-Serif" font-size="10.00">&#45;</text>
<text text-anchor="start" x="448" y="-279" font-family="Helvetica,sans-Serif" font-size="10.00">m_serialize_step_factories</text>
<text text-anchor="start" x="434.5" y="-264" font-family="Helvetica,sans-Serif" font-size="10.00">+</text>
<text text-anchor="start" x="448" y="-264" font-family="Helvetica,sans-Serif" font-size="10.00">ItemFamilyPolicyMng()</text>
<text text-anchor="start" x="434.5" y="-249" font-family="Helvetica,sans-Serif" font-size="10.00">+</text>
<text text-anchor="start" x="448" y="-249" font-family="Helvetica,sans-Serif" font-size="10.00">~ItemFamilyPolicyMng()</text>
<text text-anchor="start" x="434.5" y="-234" font-family="Helvetica,sans-Serif" font-size="10.00">+</text>
<text text-anchor="start" x="448" y="-234" font-family="Helvetica,sans-Serif" font-size="10.00">compactPolicy()</text>
<text text-anchor="start" x="434.5" y="-219" font-family="Helvetica,sans-Serif" font-size="10.00">+</text>
<text text-anchor="start" x="448" y="-219" font-family="Helvetica,sans-Serif" font-size="10.00">createExchanger()</text>
<text text-anchor="start" x="434.5" y="-204" font-family="Helvetica,sans-Serif" font-size="10.00">+</text>
<text text-anchor="start" x="448" y="-204" font-family="Helvetica,sans-Serif" font-size="10.00">createSerializer()</text>
<text text-anchor="start" x="434.5" y="-189" font-family="Helvetica,sans-Serif" font-size="10.00">+</text>
<text text-anchor="start" x="448" y="-189" font-family="Helvetica,sans-Serif" font-size="10.00">addSerializeStep()</text>
<text text-anchor="start" x="434.5" y="-174" font-family="Helvetica,sans-Serif" font-size="10.00">+</text>
<text text-anchor="start" x="448" y="-174" font-family="Helvetica,sans-Serif" font-size="10.00">removeSerializeStep()</text>
<text text-anchor="start" x="434.5" y="-159" font-family="Helvetica,sans-Serif" font-size="10.00">#</text>
<text text-anchor="start" x="448" y="-159" font-family="Helvetica,sans-Serif" font-size="10.00">_createExchanger()</text>
<polygon fill="#666666" stroke="#666666" points="430,-319 430,-319 585,-319 585,-319 430,-319"/>
<polygon fill="#666666" stroke="#666666" points="430,-274 430,-274 446,-274 446,-274 430,-274"/>
<polygon fill="#666666" stroke="#666666" points="446,-274 446,-274 585,-274 585,-274 446,-274"/>
<polygon fill="none" stroke="#666666" points="429.5,-152 429.5,-336 584.5,-336 584.5,-152 429.5,-152"/>
</a>
</g>
</g>
<!-- Node3 -->
<g id="Node000003" class="node">
<title>Node3</title>
<g id="a_Node000003"><a xlink:href="../../d6/dcf/classArcane_1_1CellFamilyPolicyMng.html" target="_top" xlink:title="Gestionnaire des politiques d&#39;une famille de mailles.">
<polygon fill="white" stroke="transparent" points="152,-90 0,-90 0,-26 152,-26 152,-90"/>
<text text-anchor="start" x="5" y="-78" font-family="Helvetica,sans-Serif" font-size="10.00">Arcane::CellFamilyPolicyMng</text>
<text text-anchor="start" x="12" y="-63" font-family="Helvetica,sans-Serif" font-size="10.00">&#45;</text>
<text text-anchor="start" x="28" y="-63" font-family="Helvetica,sans-Serif" font-size="10.00">m_family</text>
<text text-anchor="start" x="9.5" y="-48" font-family="Helvetica,sans-Serif" font-size="10.00">+</text>
<text text-anchor="start" x="28" y="-48" font-family="Helvetica,sans-Serif" font-size="10.00">CellFamilyPolicyMng()</text>
<text text-anchor="start" x="9.5" y="-33" font-family="Helvetica,sans-Serif" font-size="10.00">+</text>
<text text-anchor="start" x="28" y="-33" font-family="Helvetica,sans-Serif" font-size="10.00">createSerializer()</text>
<polygon fill="#666666" stroke="#666666" points="0,-73 0,-73 152,-73 152,-73 0,-73"/>
<polygon fill="#666666" stroke="#666666" points="0,-58 0,-58 26,-58 26,-58 0,-58"/>
<polygon fill="#666666" stroke="#666666" points="26,-58 26,-58 152,-58 152,-58 26,-58"/>
<polygon fill="none" stroke="#666666" points="0,-26 0,-90 152,-90 152,-26 0,-26"/>
</a>
</g>
</g>
<!-- Node1&#45;&gt;Node3 -->
<g id="edge2_Node000001_Node000003" class="edge">
<title>Node1&#45;&gt;Node3</title>
<g id="a_edge2_Node000001_Node000003"><a xlink:title=" ">
<path fill="none" stroke="#63b8ff" d="M419.32,-217.24C347.89,-194.74 245.4,-159.01 161,-116 146.44,-108.58 131.36,-99.13 118.02,-90.07"/>
<polygon fill="none" stroke="#63b8ff" points="418.6,-220.68 429.19,-220.32 420.69,-214 418.6,-220.68"/>
</a>
</g>
</g>
<!-- Node4 -->
<g id="Node000004" class="node">
<title>Node4</title>
<g id="a_Node000004"><a xlink:href="../../dc/d0d/classArcane_1_1DoFFamilyPolicyMng.html" target="_top" xlink:title="Gestionnaire des politiques d&#39;une famille de DoF.">
<polygon fill="white" stroke="transparent" points="322,-90 170,-90 170,-26 322,-26 322,-90"/>
<text text-anchor="start" x="175" y="-78" font-family="Helvetica,sans-Serif" font-size="10.00">Arcane::DoFFamilyPolicyMng</text>
<text text-anchor="start" x="181.5" y="-63" font-family="Helvetica,sans-Serif" font-size="10.00">&#45;</text>
<text text-anchor="start" x="197" y="-63" font-family="Helvetica,sans-Serif" font-size="10.00">m_family</text>
<text text-anchor="start" x="179" y="-48" font-family="Helvetica,sans-Serif" font-size="10.00">+</text>
<text text-anchor="start" x="197" y="-48" font-family="Helvetica,sans-Serif" font-size="10.00">DoFFamilyPolicyMng()</text>
<text text-anchor="start" x="179" y="-33" font-family="Helvetica,sans-Serif" font-size="10.00">+</text>
<text text-anchor="start" x="197" y="-33" font-family="Helvetica,sans-Serif" font-size="10.00">createSerializer()</text>
<polygon fill="#666666" stroke="#666666" points="170,-73 170,-73 322,-73 322,-73 170,-73"/>
<polygon fill="#666666" stroke="#666666" points="170,-58 170,-58 195,-58 195,-58 170,-58"/>
<polygon fill="#666666" stroke="#666666" points="195,-58 195,-58 322,-58 322,-58 195,-58"/>
<polygon fill="none" stroke="#666666" points="170,-26 170,-90 322,-90 322,-26 170,-26"/>
</a>
</g>
</g>
<!-- Node1&#45;&gt;Node4 -->
<g id="edge3_Node000001_Node000004" class="edge">
<title>Node1&#45;&gt;Node4</title>
<g id="a_edge3_Node000001_Node000004"><a xlink:title=" ">
<path fill="none" stroke="#63b8ff" d="M421.05,-182.41C377.34,-151.59 326.06,-115.44 290.35,-90.26"/>
<polygon fill="none" stroke="#63b8ff" points="419.21,-185.39 429.4,-188.29 423.24,-179.67 419.21,-185.39"/>
</a>
</g>
</g>
<!-- Node5 -->
<g id="Node000005" class="node">
<title>Node5</title>
<g id="a_Node000005"><a xlink:href="../../d3/d6a/classArcane_1_1EdgeFamilyPolicyMng.html" target="_top" xlink:title="Gestionnaire des politiques d&#39;une famille d&#39;arêtes.">
<polygon fill="white" stroke="transparent" points="497.5,-90 340.5,-90 340.5,-26 497.5,-26 497.5,-90"/>
<text text-anchor="start" x="346" y="-78" font-family="Helvetica,sans-Serif" font-size="10.00">Arcane::EdgeFamilyPolicyMng</text>
<text text-anchor="start" x="352.5" y="-63" font-family="Helvetica,sans-Serif" font-size="10.00">&#45;</text>
<text text-anchor="start" x="368" y="-63" font-family="Helvetica,sans-Serif" font-size="10.00">m_family</text>
<text text-anchor="start" x="350" y="-48" font-family="Helvetica,sans-Serif" font-size="10.00">+</text>
<text text-anchor="start" x="368" y="-48" font-family="Helvetica,sans-Serif" font-size="10.00">EdgeFamilyPolicyMng()</text>
<text text-anchor="start" x="350" y="-33" font-family="Helvetica,sans-Serif" font-size="10.00">+</text>
<text text-anchor="start" x="368" y="-33" font-family="Helvetica,sans-Serif" font-size="10.00">createSerializer()</text>
<polygon fill="#666666" stroke="#666666" points="341,-73 341,-73 498,-73 498,-73 341,-73"/>
<polygon fill="#666666" stroke="#666666" points="341,-58 341,-58 366,-58 366,-58 341,-58"/>
<polygon fill="#666666" stroke="#666666" points="366,-58 366,-58 498,-58 498,-58 366,-58"/>
<polygon fill="none" stroke="#666666" points="340.5,-26 340.5,-90 497.5,-90 497.5,-26 340.5,-26"/>
</a>
</g>
</g>
<!-- Node1&#45;&gt;Node5 -->
<g id="edge4_Node000001_Node000005" class="edge">
<title>Node1&#45;&gt;Node5</title>
<g id="a_edge4_Node000001_Node000005"><a xlink:title=" ">
<path fill="none" stroke="#63b8ff" d="M459.03,-142.7C449.89,-123.58 440.97,-104.94 433.88,-90.12"/>
<polygon fill="none" stroke="#63b8ff" points="455.91,-144.3 463.39,-151.81 462.23,-141.28 455.91,-144.3"/>
</a>
</g>
</g>
<!-- Node6 -->
<g id="Node000006" class="node">
<title>Node6</title>
<g id="a_Node000006"><a xlink:href="../../d1/da4/classArcane_1_1NodeFamilyPolicyMng.html" target="_top" xlink:title="Gestionnaire des politiques d&#39;une famille de noeuds.">
<polygon fill="white" stroke="transparent" points="674,-90 516,-90 516,-26 674,-26 674,-90"/>
<text text-anchor="start" x="521" y="-78" font-family="Helvetica,sans-Serif" font-size="10.00">Arcane::NodeFamilyPolicyMng</text>
<text text-anchor="start" x="527.5" y="-63" font-family="Helvetica,sans-Serif" font-size="10.00">&#45;</text>
<text text-anchor="start" x="543" y="-63" font-family="Helvetica,sans-Serif" font-size="10.00">m_family</text>
<text text-anchor="start" x="525" y="-48" font-family="Helvetica,sans-Serif" font-size="10.00">+</text>
<text text-anchor="start" x="543" y="-48" font-family="Helvetica,sans-Serif" font-size="10.00">NodeFamilyPolicyMng()</text>
<text text-anchor="start" x="525" y="-33" font-family="Helvetica,sans-Serif" font-size="10.00">+</text>
<text text-anchor="start" x="543" y="-33" font-family="Helvetica,sans-Serif" font-size="10.00">createSerializer()</text>
<polygon fill="#666666" stroke="#666666" points="516,-73 516,-73 674,-73 674,-73 516,-73"/>
<polygon fill="#666666" stroke="#666666" points="516,-58 516,-58 541,-58 541,-58 516,-58"/>
<polygon fill="#666666" stroke="#666666" points="541,-58 541,-58 674,-58 674,-58 541,-58"/>
<polygon fill="none" stroke="#666666" points="516,-26 516,-90 674,-90 674,-26 516,-26"/>
</a>
</g>
</g>
<!-- Node1&#45;&gt;Node6 -->
<g id="edge5_Node000001_Node000006" class="edge">
<title>Node1&#45;&gt;Node6</title>
<g id="a_edge5_Node000001_Node000006"><a xlink:title=" ">
<path fill="none" stroke="#63b8ff" d="M554.97,-142.7C564.11,-123.58 573.03,-104.94 580.12,-90.12"/>
<polygon fill="none" stroke="#63b8ff" points="551.77,-141.28 550.61,-151.81 558.09,-144.3 551.77,-141.28"/>
</a>
</g>
</g>
<!-- Node7 -->
<g id="Node000007" class="node">
<title>Node7</title>
<g id="a_Node000007"><a xlink:href="../../da/dd8/classArcane_1_1ParticleFamilyPolicyMng.html" target="_top" xlink:title="Gestionnaire des politiques d&#39;une famille de particules.">
<polygon fill="white" stroke="transparent" points="860.5,-90 691.5,-90 691.5,-26 860.5,-26 860.5,-90"/>
<text text-anchor="start" x="697" y="-78" font-family="Helvetica,sans-Serif" font-size="10.00">Arcane::ParticleFamilyPolicyMng</text>
<text text-anchor="start" x="703.5" y="-63" font-family="Helvetica,sans-Serif" font-size="10.00">&#45;</text>
<text text-anchor="start" x="719" y="-63" font-family="Helvetica,sans-Serif" font-size="10.00">m_family</text>
<text text-anchor="start" x="701" y="-48" font-family="Helvetica,sans-Serif" font-size="10.00">+</text>
<text text-anchor="start" x="719" y="-48" font-family="Helvetica,sans-Serif" font-size="10.00">ParticleFamilyPolicyMng()</text>
<text text-anchor="start" x="701" y="-33" font-family="Helvetica,sans-Serif" font-size="10.00">+</text>
<text text-anchor="start" x="719" y="-33" font-family="Helvetica,sans-Serif" font-size="10.00">createSerializer()</text>
<polygon fill="#666666" stroke="#666666" points="692,-73 692,-73 861,-73 861,-73 692,-73"/>
<polygon fill="#666666" stroke="#666666" points="692,-58 692,-58 717,-58 717,-58 692,-58"/>
<polygon fill="#666666" stroke="#666666" points="717,-58 717,-58 861,-58 861,-58 717,-58"/>
<polygon fill="none" stroke="#666666" points="691.5,-26 691.5,-90 860.5,-90 860.5,-26 691.5,-26"/>
</a>
</g>
</g>
<!-- Node1&#45;&gt;Node7 -->
<g id="edge6_Node000001_Node000007" class="edge">
<title>Node1&#45;&gt;Node7</title>
<g id="a_edge6_Node000001_Node000007"><a xlink:title=" ">
<path fill="none" stroke="#63b8ff" d="M593.21,-184.03C638.77,-152.86 692.87,-115.86 730.33,-90.24"/>
<polygon fill="none" stroke="#63b8ff" points="591.08,-181.24 584.81,-189.78 595.04,-187.02 591.08,-181.24"/>
</a>
</g>
</g>
<!-- Node8 -->
<g id="Node000008" class="node">
<title>Node8</title>
<g id="a_Node000008"><a xlink:href="../../d0/d62/classArcane_1_1mesh_1_1FaceFamilyPolicyMng.html" target="_top" xlink:title="Gestionnaire des politiques d&#39;une famille de faces.">
<polygon fill="white" stroke="transparent" points="1029.5,-116 878.5,-116 878.5,0 1029.5,0 1029.5,-116"/>
<text text-anchor="start" x="891" y="-104" font-family="Helvetica,sans-Serif" font-size="10.00">Arcane::mesh::FaceFamily</text>
<text text-anchor="start" x="929" y="-93" font-family="Helvetica,sans-Serif" font-size="10.00">PolicyMng</text>
<text text-anchor="start" x="885.5" y="-78" font-family="Helvetica,sans-Serif" font-size="10.00">&#45;</text>
<text text-anchor="start" x="896" y="-78" font-family="Helvetica,sans-Serif" font-size="10.00">m_family</text>
<text text-anchor="start" x="885.5" y="-63" font-family="Helvetica,sans-Serif" font-size="10.00">&#45;</text>
<text text-anchor="start" x="896" y="-63" font-family="Helvetica,sans-Serif" font-size="10.00">m_tied_interface_serialize</text>
<text text-anchor="start" x="896" y="-52" font-family="Helvetica,sans-Serif" font-size="10.00">_factory</text>
<text text-anchor="start" x="883" y="-37" font-family="Helvetica,sans-Serif" font-size="10.00">+</text>
<text text-anchor="start" x="896" y="-37" font-family="Helvetica,sans-Serif" font-size="10.00">FaceFamilyPolicyMng()</text>
<text text-anchor="start" x="883" y="-22" font-family="Helvetica,sans-Serif" font-size="10.00">+</text>
<text text-anchor="start" x="896" y="-22" font-family="Helvetica,sans-Serif" font-size="10.00">~FaceFamilyPolicyMng()</text>
<text text-anchor="start" x="883" y="-7" font-family="Helvetica,sans-Serif" font-size="10.00">+</text>
<text text-anchor="start" x="896" y="-7" font-family="Helvetica,sans-Serif" font-size="10.00">createSerializer()</text>
<polygon fill="#666666" stroke="#666666" points="879,-88 879,-88 1030,-88 1030,-88 879,-88"/>
<polygon fill="#666666" stroke="#666666" points="879,-47 879,-47 894,-47 894,-47 879,-47"/>
<polygon fill="#666666" stroke="#666666" points="894,-47 894,-47 1030,-47 1030,-47 894,-47"/>
<polygon fill="none" stroke="#666666" points="878.5,0 878.5,-116 1029.5,-116 1029.5,0 878.5,0"/>
</a>
</g>
</g>
<!-- Node1&#45;&gt;Node8 -->
<g id="edge7_Node000001_Node000008" class="edge">
<title>Node1&#45;&gt;Node8</title>
<g id="a_edge7_Node000001_Node000008"><a xlink:title=" ">
<path fill="none" stroke="#63b8ff" d="M594.7,-219.3C669.88,-197.36 779.97,-161.32 870,-116 872.68,-114.65 875.37,-113.23 878.06,-111.76"/>
<polygon fill="none" stroke="#63b8ff" points="593.42,-216.02 584.79,-222.17 595.37,-222.75 593.42,-216.02"/>
</a>
</g>
</g>
<!-- Node2 -->
<g id="Node000002" class="node">
<title>Node2</title>
<g id="a_Node000002"><a xlink:href="../../d6/d57/classArcane_1_1IItemFamilyPolicyMng.html" target="_top" xlink:title="Interface des politiques d&#39;une famille d&#39;entités.">
<polygon fill="white" stroke="transparent" points="586,-496 428,-496 428,-372 586,-372 586,-496"/>
<text text-anchor="start" x="433" y="-484" font-family="Helvetica,sans-Serif" font-size="10.00">Arcane::IItemFamilyPolicyMng</text>
<text text-anchor="start" x="505" y="-469" font-family="Helvetica,sans-Serif" font-size="10.00"> </text>
<text text-anchor="start" x="435" y="-454" font-family="Helvetica,sans-Serif" font-size="10.00">+</text>
<text text-anchor="start" x="451" y="-454" font-family="Helvetica,sans-Serif" font-size="10.00">~IItemFamilyPolicyMng()</text>
<text text-anchor="start" x="435" y="-439" font-family="Helvetica,sans-Serif" font-size="10.00">+</text>
<text text-anchor="start" x="451" y="-439" font-family="Helvetica,sans-Serif" font-size="10.00">compactPolicy()</text>
<text text-anchor="start" x="435" y="-424" font-family="Helvetica,sans-Serif" font-size="10.00">+</text>
<text text-anchor="start" x="451" y="-424" font-family="Helvetica,sans-Serif" font-size="10.00">createExchanger()</text>
<text text-anchor="start" x="435" y="-409" font-family="Helvetica,sans-Serif" font-size="10.00">+</text>
<text text-anchor="start" x="451" y="-409" font-family="Helvetica,sans-Serif" font-size="10.00">createSerializer()</text>
<text text-anchor="start" x="435" y="-394" font-family="Helvetica,sans-Serif" font-size="10.00">+</text>
<text text-anchor="start" x="451" y="-394" font-family="Helvetica,sans-Serif" font-size="10.00">addSerializeStep()</text>
<text text-anchor="start" x="435" y="-379" font-family="Helvetica,sans-Serif" font-size="10.00">+</text>
<text text-anchor="start" x="451" y="-379" font-family="Helvetica,sans-Serif" font-size="10.00">removeSerializeStep()</text>
<polygon fill="#666666" stroke="#666666" points="428,-479 428,-479 586,-479 586,-479 428,-479"/>
<polygon fill="#666666" stroke="#666666" points="428,-464 428,-464 586,-464 586,-464 428,-464"/>
<polygon fill="none" stroke="#666666" points="428,-372 428,-496 586,-496 586,-372 428,-372"/>
</a>
</g>
</g>
<!-- Node2&#45;&gt;Node1 -->
<g id="edge1_Node000001_Node000002" class="edge">
<title>Node2&#45;&gt;Node1</title>
<g id="a_edge1_Node000001_Node000002"><a xlink:title=" ">
<path fill="none" stroke="#63b8ff" d="M507,-361.84C507,-353.43 507,-344.75 507,-336.11"/>
<polygon fill="none" stroke="#63b8ff" points="503.5,-361.96 507,-371.96 510.5,-361.96 503.5,-361.96"/>
</a>
</g>
</g>
</g>
</svg>

<g id="navigator" transform="translate(0 0)" fill="#404254">
  <rect fill="#f2f5e9" fill-opacity="0.5" stroke="#606060" stroke-width=".5" x="0" y="0" width="60" height="60"/>
  <use id="zoomplus" xlink:href="#zoomPlus" x="17" y="9" onmousedown="handleZoom(evt,'in')"/>
  <use id="zoomminus" xlink:href="#zoomMin" x="42" y="9" onmousedown="handleZoom(evt,'out')"/>
  <use id="reset" xlink:href="#resetDef" x="30" y="36" onmousedown="handleReset()"/>
   <use id="arrowup" xlink:href="#arrowUp" x="0" y="0" onmousedown="handlePan(0,-1)"/>
  <use id="arrowright" xlink:href="#arrowRight" x="0" y="0" onmousedown="handlePan(1,0)"/>
  <use id="arrowdown" xlink:href="#arrowDown" x="0" y="0" onmousedown="handlePan(0,1)"/>
  <use id="arrowleft" xlink:href="#arrowLeft" x="0" y="0" onmousedown="handlePan(-1,0)"/>
</g>
<svg viewBox="0 0 15 15" width="100%" height="30px" preserveAspectRatio="xMaxYMin meet">
 <g id="arrow_out" transform="scale(0.3 0.3)">
  <a xlink:href="classArcane_1_1ItemFamilyPolicyMng__inherit__graph_org.svg" target="_base">
   <rect id="button" ry="5" rx="5" y="6" x="6" height="38" width="38"
        fill="#f2f5e9" fill-opacity="0.5" stroke="#606060" stroke-width="1.0"/>
   <path id="arrow"
     d="M 11.500037,31.436501 C 11.940474,20.09759 22.043105,11.32322 32.158766,21.979434 L 37.068811,17.246167 C 37.068811,17.246167 37.088388,32 37.088388,32 L 22.160133,31.978069 C 22.160133,31.978069 26.997745,27.140456 26.997745,27.140456 C 18.528582,18.264221 13.291696,25.230495 11.500037,31.436501 z"
     style="fill:#404040;"/>
  </a>
 </g>
</svg>

<style type='text/css'>
<![CDATA[
[data-mouse-over-selected='false'] { opacity: 0.7; }
[data-mouse-over-selected='true']  { opacity: 1.0; }
]]>
</style>
<script type="application/ecmascript"><![CDATA[
document.addEventListener('DOMContentLoaded', (event) => {
  highlightEdges();
  highlightAdjacentNodes();
});
]]></script>
</svg>
