<?xml version="1.0" encoding="UTF-8" standalone="no"?>
<!DOCTYPE svg PUBLIC "-//W3C//DTD SVG 1.1//EN"
 "http://www.w3.org/Graphics/SVG/1.1/DTD/svg11.dtd">
<!-- Generated by graphviz version 2.43.0 (0)
 -->
<!-- Title: Arcane::impl::KeyValueTextWriter::Impl Pages: 1 -->
<svg width="167pt" height="680pt"
 viewBox="0.00 0.00 167.00 680.00" xmlns="http://www.w3.org/2000/svg" xmlns:xlink="http://www.w3.org/1999/xlink">
<g id="graph0" class="graph" transform="scale(1 1) rotate(0) translate(4 676)">
<title>Arcane::impl::KeyValueTextWriter::Impl</title>
<!-- Node1 -->
<g id="Node000001" class="node">
<title>Node1</title>
<g id="a_Node000001"><a xlink:title=" ">
<polygon fill="#999999" stroke="transparent" points="151,-225 8,-225 8,0 151,0 151,-225"/>
<text text-anchor="start" x="13.5" y="-212.5" font-family="Helvetica,sans-Serif" font-size="10.00">Arcane::impl::KeyValueText</text>
<text text-anchor="start" x="51" y="-201.5" font-family="Helvetica,sans-Serif" font-size="10.00">Writer::Impl</text>
<text text-anchor="start" x="24.5" y="-186.5" font-family="Helvetica,sans-Serif" font-size="10.00">+</text>
<text text-anchor="start" x="49.5" y="-186.5" font-family="Helvetica,sans-Serif" font-size="10.00">m_writer</text>
<text text-anchor="start" x="24.5" y="-171.5" font-family="Helvetica,sans-Serif" font-size="10.00">+</text>
<text text-anchor="start" x="49.5" y="-171.5" font-family="Helvetica,sans-Serif" font-size="10.00">m_version</text>
<text text-anchor="start" x="24.5" y="-156.5" font-family="Helvetica,sans-Serif" font-size="10.00">+</text>
<text text-anchor="start" x="49.5" y="-156.5" font-family="Helvetica,sans-Serif" font-size="10.00">m_hasher</text>
<text text-anchor="start" x="24.5" y="-141.5" font-family="Helvetica,sans-Serif" font-size="10.00">+</text>
<text text-anchor="start" x="49.5" y="-141.5" font-family="Helvetica,sans-Serif" font-size="10.00">Impl()</text>
<text text-anchor="start" x="24.5" y="-126.5" font-family="Helvetica,sans-Serif" font-size="10.00">+</text>
<text text-anchor="start" x="49.5" y="-126.5" font-family="Helvetica,sans-Serif" font-size="10.00">~Impl()</text>
<text text-anchor="start" x="24.5" y="-111.5" font-family="Helvetica,sans-Serif" font-size="10.00">+</text>
<text text-anchor="start" x="49.5" y="-111.5" font-family="Helvetica,sans-Serif" font-size="10.00">fileOffset()</text>
<text text-anchor="start" x="24.5" y="-96.5" font-family="Helvetica,sans-Serif" font-size="10.00">+</text>
<text text-anchor="start" x="49.5" y="-96.5" font-family="Helvetica,sans-Serif" font-size="10.00">setExtents()</text>
<text text-anchor="start" x="24.5" y="-81.5" font-family="Helvetica,sans-Serif" font-size="10.00">+</text>
<text text-anchor="start" x="49.5" y="-81.5" font-family="Helvetica,sans-Serif" font-size="10.00">write()</text>
<text text-anchor="start" x="27" y="-66.5" font-family="Helvetica,sans-Serif" font-size="10.00">&#45;</text>
<text text-anchor="start" x="49.5" y="-66.5" font-family="Helvetica,sans-Serif" font-size="10.00">_addKey()</text>
<text text-anchor="start" x="27" y="-51.5" font-family="Helvetica,sans-Serif" font-size="10.00">&#45;</text>
<text text-anchor="start" x="49.5" y="-51.5" font-family="Helvetica,sans-Serif" font-size="10.00">_writeKey()</text>
<text text-anchor="start" x="27" y="-36.5" font-family="Helvetica,sans-Serif" font-size="10.00">&#45;</text>
<text text-anchor="start" x="49.5" y="-36.5" font-family="Helvetica,sans-Serif" font-size="10.00">_writeHeader()</text>
<text text-anchor="start" x="27" y="-21.5" font-family="Helvetica,sans-Serif" font-size="10.00">&#45;</text>
<text text-anchor="start" x="49.5" y="-21.5" font-family="Helvetica,sans-Serif" font-size="10.00">_writeEpilog()</text>
<text text-anchor="start" x="27" y="-6.5" font-family="Helvetica,sans-Serif" font-size="10.00">&#45;</text>
<text text-anchor="start" x="49.5" y="-6.5" font-family="Helvetica,sans-Serif" font-size="10.00">_write2()</text>
<polygon fill="#666666" stroke="#666666" points="8.5,-196.5 8.5,-196.5 151.5,-196.5 151.5,-196.5 8.5,-196.5"/>
<polygon fill="#666666" stroke="#666666" points="8.5,-151.5 8.5,-151.5 47.5,-151.5 47.5,-151.5 8.5,-151.5"/>
<polygon fill="#666666" stroke="#666666" points="47.5,-151.5 47.5,-151.5 151.5,-151.5 151.5,-151.5 47.5,-151.5"/>
<polygon fill="none" stroke="#666666" points="8,0 8,-225 151,-225 151,0 8,0"/>
</a>
</g>
</g>
<!-- Node2 -->
<g id="Node000002" class="node">
<title>Node2</title>
<g id="a_Node000002"><a xlink:href="../../d2/d9c/classArcane_1_1impl_1_1BasicReaderWriterDatabaseCommon.html" target="_top" xlink:title=" ">
<polygon fill="white" stroke="transparent" points="159,-392 0,-392 0,-261 159,-261 159,-392"/>
<text text-anchor="start" x="15.5" y="-379.5" font-family="Helvetica,sans-Serif" font-size="10.00">Arcane::impl::BasicReader</text>
<text text-anchor="start" x="19.5" y="-368.5" font-family="Helvetica,sans-Serif" font-size="10.00">WriterDatabaseCommon</text>
<text text-anchor="start" x="4.5" y="-353.5" font-family="Helvetica,sans-Serif" font-size="10.00">+</text>
<text text-anchor="start" x="17.5" y="-353.5" font-family="Helvetica,sans-Serif" font-size="10.00">m_data_infos</text>
<text text-anchor="start" x="4.5" y="-338.5" font-family="Helvetica,sans-Serif" font-size="10.00">+</text>
<text text-anchor="start" x="17.5" y="-338.5" font-family="Helvetica,sans-Serif" font-size="10.00">m_data_compressor</text>
<text text-anchor="start" x="4.5" y="-323.5" font-family="Helvetica,sans-Serif" font-size="10.00">+</text>
<text text-anchor="start" x="17.5" y="-323.5" font-family="Helvetica,sans-Serif" font-size="10.00">m_hash_algorithm</text>
<text text-anchor="start" x="4.5" y="-308.5" font-family="Helvetica,sans-Serif" font-size="10.00">+</text>
<text text-anchor="start" x="17.5" y="-308.5" font-family="Helvetica,sans-Serif" font-size="10.00">m_hash_database</text>
<text text-anchor="start" x="4.5" y="-293.5" font-family="Helvetica,sans-Serif" font-size="10.00">+</text>
<text text-anchor="start" x="17.5" y="-293.5" font-family="Helvetica,sans-Serif" font-size="10.00">BasicReaderWriterDatabase</text>
<text text-anchor="start" x="17.5" y="-282.5" font-family="Helvetica,sans-Serif" font-size="10.00">Common()</text>
<text text-anchor="start" x="4.5" y="-267.5" font-family="Helvetica,sans-Serif" font-size="10.00">+</text>
<text text-anchor="start" x="17.5" y="-267.5" font-family="Helvetica,sans-Serif" font-size="10.00">findData()</text>
<polygon fill="#bfbfbf" stroke="#bfbfbf" points="0.5,-363.5 0.5,-363.5 159.5,-363.5 159.5,-363.5 0.5,-363.5"/>
<polygon fill="#bfbfbf" stroke="#bfbfbf" points="0.5,-303.5 0.5,-303.5 15.5,-303.5 15.5,-303.5 0.5,-303.5"/>
<polygon fill="#bfbfbf" stroke="#bfbfbf" points="15.5,-303.5 15.5,-303.5 159.5,-303.5 159.5,-303.5 15.5,-303.5"/>
<polygon fill="none" stroke="#bfbfbf" points="0,-261 0,-392 159,-392 159,-261 0,-261"/>
</a>
</g>
</g>
<!-- Node2&#45;&gt;Node1 -->
<g id="edge1_Node000001_Node000002" class="edge">
<title>Node2&#45;&gt;Node1</title>
<g id="a_edge1_Node000001_Node000002"><a xlink:title=" ">
<path fill="none" stroke="#63b8ff" d="M79.5,-250.48C79.5,-242.24 79.5,-233.74 79.5,-225.18"/>
<polygon fill="none" stroke="#63b8ff" points="76,-250.74 79.5,-260.74 83,-250.74 76,-250.74"/>
</a>
</g>
</g>
<!-- Node3 -->
<g id="Node000003" class="node">
<title>Node3</title>
<g id="a_Node000003"><a xlink:href="../../d1/d17/classArcane_1_1TraceAccessor.html" target="_top" xlink:title="Classe d&#39;accès aux traces.">
<polygon fill="white" stroke="transparent" points="149.5,-672 9.5,-672 9.5,-428 149.5,-428 149.5,-672"/>
<text text-anchor="start" x="25" y="-660" font-family="Helvetica,sans-Serif" font-size="10.00">Arcane::TraceAccessor</text>
<text text-anchor="start" x="16" y="-645" font-family="Helvetica,sans-Serif" font-size="10.00">&#45;</text>
<text text-anchor="start" x="26.5" y="-645" font-family="Helvetica,sans-Serif" font-size="10.00">m_trace</text>
<text text-anchor="start" x="16" y="-630" font-family="Helvetica,sans-Serif" font-size="10.00">&#45;</text>
<text text-anchor="start" x="26.5" y="-630" font-family="Helvetica,sans-Serif" font-size="10.00">m_local_verbose_level</text>
<text text-anchor="start" x="13.5" y="-615" font-family="Helvetica,sans-Serif" font-size="10.00">+</text>
<text text-anchor="start" x="26.5" y="-615" font-family="Helvetica,sans-Serif" font-size="10.00">TraceAccessor()</text>
<text text-anchor="start" x="13.5" y="-600" font-family="Helvetica,sans-Serif" font-size="10.00">+</text>
<text text-anchor="start" x="26.5" y="-600" font-family="Helvetica,sans-Serif" font-size="10.00">TraceAccessor()</text>
<text text-anchor="start" x="13.5" y="-585" font-family="Helvetica,sans-Serif" font-size="10.00">+</text>
<text text-anchor="start" x="26.5" y="-585" font-family="Helvetica,sans-Serif" font-size="10.00">operator=()</text>
<text text-anchor="start" x="13.5" y="-570" font-family="Helvetica,sans-Serif" font-size="10.00">+</text>
<text text-anchor="start" x="26.5" y="-570" font-family="Helvetica,sans-Serif" font-size="10.00">~TraceAccessor()</text>
<text text-anchor="start" x="13.5" y="-555" font-family="Helvetica,sans-Serif" font-size="10.00">+</text>
<text text-anchor="start" x="26.5" y="-555" font-family="Helvetica,sans-Serif" font-size="10.00">traceMng()</text>
<text text-anchor="start" x="13.5" y="-540" font-family="Helvetica,sans-Serif" font-size="10.00">+</text>
<text text-anchor="start" x="26.5" y="-540" font-family="Helvetica,sans-Serif" font-size="10.00">info()</text>
<text text-anchor="start" x="13.5" y="-525" font-family="Helvetica,sans-Serif" font-size="10.00">+</text>
<text text-anchor="start" x="26.5" y="-525" font-family="Helvetica,sans-Serif" font-size="10.00">pinfo()</text>
<text text-anchor="start" x="13.5" y="-510" font-family="Helvetica,sans-Serif" font-size="10.00">+</text>
<text text-anchor="start" x="26.5" y="-510" font-family="Helvetica,sans-Serif" font-size="10.00">info()</text>
<text text-anchor="start" x="13.5" y="-495" font-family="Helvetica,sans-Serif" font-size="10.00">+</text>
<text text-anchor="start" x="26.5" y="-495" font-family="Helvetica,sans-Serif" font-size="10.00">pinfo()</text>
<text text-anchor="start" x="13.5" y="-480" font-family="Helvetica,sans-Serif" font-size="10.00">+</text>
<text text-anchor="start" x="26.5" y="-480" font-family="Helvetica,sans-Serif" font-size="10.00">info()</text>
<text text-anchor="start" x="26.5" y="-465" font-family="Helvetica,sans-Serif" font-size="10.00">et 15 de plus...</text>
<text text-anchor="start" x="13.5" y="-450" font-family="Helvetica,sans-Serif" font-size="10.00">#</text>
<text text-anchor="start" x="26.5" y="-450" font-family="Helvetica,sans-Serif" font-size="10.00">_setLocalVerboseLevel()</text>
<text text-anchor="start" x="13.5" y="-435" font-family="Helvetica,sans-Serif" font-size="10.00">#</text>
<text text-anchor="start" x="26.5" y="-435" font-family="Helvetica,sans-Serif" font-size="10.00">_localVerboseLevel()</text>
<polygon fill="#666666" stroke="#666666" points="9.5,-655 9.5,-655 149.5,-655 149.5,-655 9.5,-655"/>
<polygon fill="#666666" stroke="#666666" points="9.5,-625 9.5,-625 24.5,-625 24.5,-625 9.5,-625"/>
<polygon fill="#666666" stroke="#666666" points="24.5,-625 24.5,-625 149.5,-625 149.5,-625 24.5,-625"/>
<polygon fill="none" stroke="#666666" points="9.5,-428 9.5,-672 149.5,-672 149.5,-428 9.5,-428"/>
</a>
</g>
</g>
<!-- Node3&#45;&gt;Node2 -->
<g id="edge2_Node000002_Node000003" class="edge">
<title>Node3&#45;&gt;Node2</title>
<g id="a_edge2_Node000002_Node000003"><a xlink:title=" ">
<path fill="none" stroke="#63b8ff" d="M79.5,-417.82C79.5,-408.97 79.5,-400.3 79.5,-392.05"/>
<polygon fill="none" stroke="#63b8ff" points="76,-417.88 79.5,-427.88 83,-417.88 76,-417.88"/>
</a>
</g>
</g>
</g>
</svg>
