<?xml version="1.0" encoding="UTF-8" standalone="no"?>
<!DOCTYPE svg PUBLIC "-//W3C//DTD SVG 1.1//EN"
 "http://www.w3.org/Graphics/SVG/1.1/DTD/svg11.dtd">
<!-- Generated by graphviz version 2.43.0 (0)
 -->
<!-- Title: Arcane::LimaCutInfosReader::_readUniqueIndex Pages: 1 -->
<svg width="734pt" height="796pt"
 viewBox="0.00 0.00 734.00 796.00" xmlns="http://www.w3.org/2000/svg" xmlns:xlink="http://www.w3.org/1999/xlink">
<g id="graph0" class="graph" transform="scale(1 1) rotate(0) translate(4 792)">
<title>Arcane::LimaCutInfosReader::_readUniqueIndex</title>
<!-- Node1 -->
<g id="Node000001" class="node">
<title>Node1</title>
<g id="a_Node000001"><a xlink:title="Récupération des indices uniques des entités.">
<polygon fill="#999999" stroke="#666666" points="155,-325.5 0,-325.5 0,-295.5 155,-295.5 155,-325.5"/>
<text text-anchor="start" x="8" y="-313.5" font-family="Helvetica,sans-Serif" font-size="10.00">Arcane::LimaCutInfosReader</text>
<text text-anchor="middle" x="77.5" y="-302.5" font-family="Helvetica,sans-Serif" font-size="10.00">::_readUniqueIndex</text>
</a>
</g>
</g>
<!-- Node2 -->
<g id="Node000002" class="node">
<title>Node2</title>
<g id="a_Node000002"><a xlink:href="../../dd/d4b/classArcane_1_1LimaCutInfosReader.html#ac73cb68223e6bcfa393227f2dffd4e13" target="_top" xlink:title="Lecture des indices uniques à partir d&#39;un fichier de correspondance XML.">
<polygon fill="white" stroke="#666666" points="360,-661.5 205,-661.5 205,-631.5 360,-631.5 360,-661.5"/>
<text text-anchor="start" x="213" y="-649.5" font-family="Helvetica,sans-Serif" font-size="10.00">Arcane::LimaCutInfosReader</text>
<text text-anchor="middle" x="282.5" y="-638.5" font-family="Helvetica,sans-Serif" font-size="10.00">::_readUniqueIndexFromXml</text>
</a>
</g>
</g>
<!-- Node1&#45;&gt;Node2 -->
<g id="edge1_Node000001_Node000002" class="edge">
<title>Node1&#45;&gt;Node2</title>
<g id="a_edge1_Node000001_Node000002"><a xlink:title=" ">
<path fill="none" stroke="#63b8ff" d="M81.56,-325.65C91.07,-369.63 123.58,-499.58 191,-583.5 204.89,-600.78 224.73,-615.32 242.3,-626.06"/>
<polygon fill="#63b8ff" stroke="#63b8ff" points="240.84,-629.27 251.24,-631.33 244.4,-623.24 240.84,-629.27"/>
</a>
</g>
</g>
<!-- Node11 -->
<g id="Node000011" class="node">
<title>Node11</title>
<g id="a_Node000011"><a xlink:href="../../d2/d30/classArcane_1_1ArrayView.html#abdc30b186a464d086d452be8eb6c6397" target="_top" xlink:title="Retourne la taille du tableau.">
<polygon fill="white" stroke="#666666" points="548.5,-564 417.5,-564 417.5,-545 548.5,-545 548.5,-564"/>
<text text-anchor="middle" x="483" y="-552" font-family="Helvetica,sans-Serif" font-size="10.00">Arcane::ArrayView::size</text>
</a>
</g>
</g>
<!-- Node1&#45;&gt;Node11 -->
<g id="edge29_Node000001_Node000011" class="edge">
<title>Node1&#45;&gt;Node11</title>
<g id="a_edge29_Node000001_Node000011"><a xlink:title=" ">
<path fill="none" stroke="#63b8ff" d="M80.19,-325.57C86.01,-369.56 109.61,-497.98 191,-550.5 225.41,-572.71 332.95,-568.39 407.19,-562.24"/>
<polygon fill="#63b8ff" stroke="#63b8ff" points="407.77,-565.7 417.43,-561.36 407.17,-558.73 407.77,-565.7"/>
</a>
</g>
</g>
<!-- Node13 -->
<g id="Node000013" class="node">
<title>Node13</title>
<g id="a_Node000013"><a xlink:href="../../dc/d5a/classArcane_1_1IParallelMng.html#af7c4f789cba5c7b73fe7079d7d74336d" target="_top" xlink:title="Effectue une barière.">
<polygon fill="white" stroke="#666666" points="340.5,-523.5 224.5,-523.5 224.5,-493.5 340.5,-493.5 340.5,-523.5"/>
<text text-anchor="start" x="232.5" y="-511.5" font-family="Helvetica,sans-Serif" font-size="10.00">Arcane::IParallelMng</text>
<text text-anchor="middle" x="282.5" y="-500.5" font-family="Helvetica,sans-Serif" font-size="10.00">::barrier</text>
</a>
</g>
</g>
<!-- Node1&#45;&gt;Node13 -->
<g id="edge15_Node000001_Node000013" class="edge">
<title>Node1&#45;&gt;Node13</title>
<g id="a_edge15_Node000001_Node000013"><a xlink:title=" ">
<path fill="none" stroke="#63b8ff" d="M83.94,-325.77C96.87,-359.8 132.78,-442.23 191,-484.5 198.07,-489.63 206.17,-493.67 214.54,-496.84"/>
<polygon fill="#63b8ff" stroke="#63b8ff" points="213.48,-500.18 224.07,-500.07 215.72,-493.55 213.48,-500.18"/>
</a>
</g>
</g>
<!-- Node14 -->
<g id="Node000014" class="node">
<title>Node14</title>
<g id="a_Node000014"><a xlink:href="../../dc/d5a/classArcane_1_1IParallelMng.html#a26fc7494a02a7370d3be787fcc742b04" target="_top" xlink:title="Rang de cette instance dans le communicateur.">
<polygon fill="white" stroke="#666666" points="340.5,-475.5 224.5,-475.5 224.5,-445.5 340.5,-445.5 340.5,-475.5"/>
<text text-anchor="start" x="232.5" y="-463.5" font-family="Helvetica,sans-Serif" font-size="10.00">Arcane::IParallelMng</text>
<text text-anchor="middle" x="282.5" y="-452.5" font-family="Helvetica,sans-Serif" font-size="10.00">::commRank</text>
</a>
</g>
</g>
<!-- Node1&#45;&gt;Node14 -->
<g id="edge17_Node000001_Node000014" class="edge">
<title>Node1&#45;&gt;Node14</title>
<g id="a_edge17_Node000001_Node000014"><a xlink:title=" ">
<path fill="none" stroke="#63b8ff" d="M87.88,-325.92C104.96,-352.64 143.77,-407.5 191,-436.5 198.27,-440.96 206.36,-444.6 214.63,-447.57"/>
<polygon fill="#63b8ff" stroke="#63b8ff" points="213.79,-450.98 224.38,-450.76 215.96,-444.33 213.79,-450.98"/>
</a>
</g>
</g>
<!-- Node15 -->
<g id="Node000015" class="node">
<title>Node15</title>
<g id="a_Node000015"><a xlink:href="../../dc/d5a/classArcane_1_1IParallelMng.html#a7c5831fb289f8aa3fac3b05cdbb3d194" target="_top" xlink:title="Nombre d&#39;instance dans le communicateur.">
<polygon fill="white" stroke="#666666" points="340.5,-427.5 224.5,-427.5 224.5,-397.5 340.5,-397.5 340.5,-427.5"/>
<text text-anchor="start" x="232.5" y="-415.5" font-family="Helvetica,sans-Serif" font-size="10.00">Arcane::IParallelMng</text>
<text text-anchor="middle" x="282.5" y="-404.5" font-family="Helvetica,sans-Serif" font-size="10.00">::commSize</text>
</a>
</g>
</g>
<!-- Node1&#45;&gt;Node15 -->
<g id="edge18_Node000001_Node000015" class="edge">
<title>Node1&#45;&gt;Node15</title>
<g id="a_edge18_Node000001_Node000015"><a xlink:title=" ">
<path fill="none" stroke="#63b8ff" d="M96.46,-325.6C117.76,-342.82 154.94,-370.75 191,-387.5 198.54,-391 206.68,-394.11 214.86,-396.82"/>
<polygon fill="#63b8ff" stroke="#63b8ff" points="213.88,-400.18 224.47,-399.84 215.98,-393.5 213.88,-400.18"/>
</a>
</g>
</g>
<!-- Node16 -->
<g id="Node000016" class="node">
<title>Node16</title>
<g id="a_Node000016"><a xlink:href="../../db/dc4/classArcane_1_1String.html#a9fb9127a8efbeec1c9f821c6ec917afd" target="_top" xlink:title="Vrai si la chaîne est vide (nulle ou &quot;&quot;)">
<polygon fill="white" stroke="#666666" points="343.5,-379 221.5,-379 221.5,-360 343.5,-360 343.5,-379"/>
<text text-anchor="middle" x="282.5" y="-367" font-family="Helvetica,sans-Serif" font-size="10.00">Arcane::String::empty</text>
</a>
</g>
</g>
<!-- Node1&#45;&gt;Node16 -->
<g id="edge19_Node000001_Node000016" class="edge">
<title>Node1&#45;&gt;Node16</title>
<g id="a_edge19_Node000001_Node000016"><a xlink:title=" ">
<path fill="none" stroke="#63b8ff" d="M116.87,-325.59C138.43,-333.7 165.96,-343.45 191,-350.5 200.29,-353.11 210.21,-355.55 219.95,-357.74"/>
<polygon fill="#63b8ff" stroke="#63b8ff" points="219.48,-361.22 230,-359.94 220.97,-354.38 219.48,-361.22"/>
</a>
</g>
</g>
<!-- Node17 -->
<g id="Node000017" class="node">
<title>Node17</title>
<g id="a_Node000017"><a xlink:href="../../dd/de0/classArcane_1_1PtrT.html#a9c7fa8140675c7a6329142abcc9cf224" target="_top" xlink:title="Retourne l&#39;objet référé par l&#39;instance.">
<polygon fill="white" stroke="#666666" points="331,-342 234,-342 234,-323 331,-323 331,-342"/>
<text text-anchor="middle" x="282.5" y="-330" font-family="Helvetica,sans-Serif" font-size="10.00">Arcane::PtrT::get</text>
</a>
</g>
</g>
<!-- Node1&#45;&gt;Node17 -->
<g id="edge20_Node000001_Node000017" class="edge">
<title>Node1&#45;&gt;Node17</title>
<g id="a_edge20_Node000001_Node000017"><a xlink:title=" ">
<path fill="none" stroke="#63b8ff" d="M155.25,-318.82C177.92,-321.27 202.35,-323.92 223.62,-326.23"/>
<polygon fill="#63b8ff" stroke="#63b8ff" points="223.47,-329.73 233.79,-327.33 224.23,-322.77 223.47,-329.73"/>
</a>
</g>
</g>
<!-- Node18 -->
<g id="Node000018" class="node">
<title>Node18</title>
<g id="a_Node000018"><a xlink:href="../../d1/d17/classArcane_1_1TraceAccessor.html#a7f15f017b10b72c85bba3fce76314619" target="_top" xlink:title="Flot pour un message d&#39;information.">
<polygon fill="white" stroke="#666666" points="345,-304.5 220,-304.5 220,-274.5 345,-274.5 345,-304.5"/>
<text text-anchor="start" x="228" y="-292.5" font-family="Helvetica,sans-Serif" font-size="10.00">Arcane::TraceAccessor</text>
<text text-anchor="middle" x="282.5" y="-281.5" font-family="Helvetica,sans-Serif" font-size="10.00">::info</text>
</a>
</g>
</g>
<!-- Node1&#45;&gt;Node18 -->
<g id="edge21_Node000001_Node000018" class="edge">
<title>Node1&#45;&gt;Node18</title>
<g id="a_edge21_Node000001_Node000018"><a xlink:title=" ">
<path fill="none" stroke="#63b8ff" d="M155.25,-302.56C173.08,-300.72 192,-298.76 209.61,-296.94"/>
<polygon fill="#63b8ff" stroke="#63b8ff" points="210.23,-300.39 219.81,-295.88 209.51,-293.43 210.23,-300.39"/>
</a>
</g>
</g>
<!-- Node19 -->
<g id="Node000019" class="node">
<title>Node19</title>
<g id="a_Node000019"><a xlink:href="../../dc/d5a/classArcane_1_1IParallelMng.html#a8746a40a4004b747518f77a2a926a845" target="_top" xlink:title="Gestionnaire des entrées/sorties.">
<polygon fill="white" stroke="#666666" points="340.5,-256.5 224.5,-256.5 224.5,-226.5 340.5,-226.5 340.5,-256.5"/>
<text text-anchor="start" x="232.5" y="-244.5" font-family="Helvetica,sans-Serif" font-size="10.00">Arcane::IParallelMng</text>
<text text-anchor="middle" x="282.5" y="-233.5" font-family="Helvetica,sans-Serif" font-size="10.00">::ioMng</text>
</a>
</g>
</g>
<!-- Node1&#45;&gt;Node19 -->
<g id="edge22_Node000001_Node000019" class="edge">
<title>Node1&#45;&gt;Node19</title>
<g id="a_edge22_Node000001_Node000019"><a xlink:title=" ">
<path fill="none" stroke="#63b8ff" d="M113.06,-295.41C135.11,-286.1 164.44,-274.3 191,-265.5 198.57,-262.99 206.56,-260.57 214.53,-258.28"/>
<polygon fill="#63b8ff" stroke="#63b8ff" points="215.54,-261.63 224.22,-255.56 213.65,-254.89 215.54,-261.63"/>
</a>
</g>
</g>
<!-- Node20 -->
<g id="Node000020" class="node">
<title>Node20</title>
<g id="a_Node000020"><a xlink:href="../../dc/d5a/classArcane_1_1IParallelMng.html#ae491defb6248865ffed9e8c04c9def4a" target="_top" xlink:title="Retourne true si l&#39;exécution est parallèle.">
<polygon fill="white" stroke="#666666" points="340.5,-208.5 224.5,-208.5 224.5,-178.5 340.5,-178.5 340.5,-208.5"/>
<text text-anchor="start" x="232.5" y="-196.5" font-family="Helvetica,sans-Serif" font-size="10.00">Arcane::IParallelMng</text>
<text text-anchor="middle" x="282.5" y="-185.5" font-family="Helvetica,sans-Serif" font-size="10.00">::isParallel</text>
</a>
</g>
</g>
<!-- Node1&#45;&gt;Node20 -->
<g id="edge23_Node000001_Node000020" class="edge">
<title>Node1&#45;&gt;Node20</title>
<g id="a_edge23_Node000001_Node000020"><a xlink:title=" ">
<path fill="none" stroke="#63b8ff" d="M92.63,-295.26C112.6,-274.62 151.11,-238.01 191,-217.5 198.38,-213.71 206.41,-210.47 214.54,-207.72"/>
<polygon fill="#63b8ff" stroke="#63b8ff" points="215.61,-211.06 224.1,-204.72 213.51,-204.38 215.61,-211.06"/>
</a>
</g>
</g>
<!-- Node21 -->
<g id="Node000021" class="node">
<title>Node21</title>
<g id="a_Node000021"><a xlink:href="../../d3/d97/classArcane_1_1Timer.html#ae1bf22aebbb2fa7df528a0e4e1618418" target="_top" xlink:title="Retourne le temps (en secondes) passé lors de la dernière activation du timer.">
<polygon fill="white" stroke="#666666" points="374,-160 191,-160 191,-141 374,-141 374,-160"/>
<text text-anchor="middle" x="282.5" y="-148" font-family="Helvetica,sans-Serif" font-size="10.00">Arcane::Timer::lastActivationTime</text>
</a>
</g>
</g>
<!-- Node1&#45;&gt;Node21 -->
<g id="edge24_Node000001_Node000021" class="edge">
<title>Node1&#45;&gt;Node21</title>
<g id="a_edge24_Node000001_Node000021"><a xlink:title=" ">
<path fill="none" stroke="#63b8ff" d="M86,-295.3C101.34,-265.91 139.27,-201.37 191,-169.5 194.44,-167.38 198.08,-165.5 201.84,-163.82"/>
<polygon fill="#63b8ff" stroke="#63b8ff" points="203.38,-166.97 211.41,-160.06 200.82,-160.46 203.38,-166.97"/>
</a>
</g>
</g>
<!-- Node22 -->
<g id="Node000022" class="node">
<title>Node22</title>
<g id="a_Node000022"><a xlink:href="../../da/dd2/classArcane_1_1IIOMng.html#ac4616604190f9a5adfb3c9c30a2d8d87" target="_top" xlink:title="Lit et analyse le fichier XML filename.">
<polygon fill="white" stroke="#666666" points="363,-123 202,-123 202,-104 363,-104 363,-123"/>
<text text-anchor="middle" x="282.5" y="-111" font-family="Helvetica,sans-Serif" font-size="10.00">Arcane::IIOMng::parseXmlFile</text>
</a>
</g>
</g>
<!-- Node1&#45;&gt;Node22 -->
<g id="edge25_Node000001_Node000022" class="edge">
<title>Node1&#45;&gt;Node22</title>
<g id="a_edge25_Node000001_Node000022"><a xlink:title=" ">
<path fill="none" stroke="#63b8ff" d="M83.34,-295.32C95.37,-260.26 130.08,-173.44 191,-131.5 193.14,-130.03 195.36,-128.67 197.66,-127.42"/>
<polygon fill="#63b8ff" stroke="#63b8ff" points="199.29,-130.53 206.84,-123.1 196.3,-124.19 199.29,-130.53"/>
</a>
</g>
</g>
<!-- Node23 -->
<g id="Node000023" class="node">
<title>Node23</title>
<g id="a_Node000023"><a xlink:href="../../dc/d5a/classArcane_1_1IParallelMng.html#a6ffa41efd37b159a719ee3caeee2d5ff" target="_top" xlink:title=" ">
<polygon fill="white" stroke="#666666" points="340.5,-67.5 224.5,-67.5 224.5,-37.5 340.5,-37.5 340.5,-67.5"/>
<text text-anchor="start" x="232.5" y="-55.5" font-family="Helvetica,sans-Serif" font-size="10.00">Arcane::IParallelMng</text>
<text text-anchor="middle" x="282.5" y="-44.5" font-family="Helvetica,sans-Serif" font-size="10.00">::recv</text>
</a>
</g>
</g>
<!-- Node1&#45;&gt;Node23 -->
<g id="edge26_Node000001_Node000023" class="edge">
<title>Node1&#45;&gt;Node23</title>
<g id="a_edge26_Node000001_Node000023"><a xlink:title=" ">
<path fill="none" stroke="#63b8ff" d="M82.65,-295.33C93.89,-256.87 128.33,-154.37 191,-94.5 200.68,-85.25 212.77,-77.76 224.92,-71.8"/>
<polygon fill="#63b8ff" stroke="#63b8ff" points="226.57,-74.9 234.19,-67.55 223.64,-68.54 226.57,-74.9"/>
</a>
</g>
</g>
<!-- Node24 -->
<g id="Node000024" class="node">
<title>Node24</title>
<g id="a_Node000024"><a xlink:href="../../d1/dfb/classArcane_1_1Array.html#a31fc5b4bd79b4f6e4a011735d33b1818" target="_top" xlink:title="Change le nombre d&#39;éléments du tableau à s.">
<polygon fill="white" stroke="#666666" points="341,-19 224,-19 224,0 341,0 341,-19"/>
<text text-anchor="middle" x="282.5" y="-7" font-family="Helvetica,sans-Serif" font-size="10.00">Arcane::Array::resize</text>
</a>
</g>
</g>
<!-- Node1&#45;&gt;Node24 -->
<g id="edge28_Node000001_Node000024" class="edge">
<title>Node1&#45;&gt;Node24</title>
<g id="a_edge28_Node000001_Node000024"><a xlink:title=" ">
<path fill="none" stroke="#63b8ff" d="M79.68,-295.42C84.25,-247.99 105.06,-100.75 191,-28.5 197.62,-22.93 205.47,-18.86 213.73,-15.92"/>
<polygon fill="#63b8ff" stroke="#63b8ff" points="215.01,-19.19 223.57,-12.94 212.99,-12.48 215.01,-19.19"/>
</a>
</g>
</g>
<!-- Node3 -->
<g id="Node000003" class="node">
<title>Node3</title>
<g id="a_Node000003"><a xlink:href="../../d9/dcc/classArcane_1_1XmlNode.html#a74a4eeb96817dfae77a85147bc1652e6" target="_top" xlink:title="Noeud fils de celui&#45;ci de nom name.">
<polygon fill="white" stroke="#666666" points="548.5,-675 417.5,-675 417.5,-656 548.5,-656 548.5,-675"/>
<text text-anchor="middle" x="483" y="-663" font-family="Helvetica,sans-Serif" font-size="10.00">Arcane::XmlNode::child</text>
</a>
</g>
</g>
<!-- Node2&#45;&gt;Node3 -->
<g id="edge2_Node000002_Node000003" class="edge">
<title>Node2&#45;&gt;Node3</title>
<g id="a_edge2_Node000002_Node000003"><a xlink:title=" ">
<path fill="none" stroke="#63b8ff" d="M360.25,-653.85C375.73,-655.33 391.98,-656.88 407.39,-658.36"/>
<polygon fill="#63b8ff" stroke="#63b8ff" points="407.09,-661.85 417.38,-659.31 407.75,-654.88 407.09,-661.85"/>
</a>
</g>
</g>
<!-- Node6 -->
<g id="Node000006" class="node">
<title>Node6</title>
<g id="a_Node000006"><a xlink:href="../../d9/dcc/classArcane_1_1XmlNode.html#a92d501b203486fe9581c81cd91d8fda4" target="_top" xlink:title="Ensemble des noeuds fils de ce noeud ayant pour nom name.">
<polygon fill="white" stroke="#666666" points="556,-638 410,-638 410,-619 556,-619 556,-638"/>
<text text-anchor="middle" x="483" y="-626" font-family="Helvetica,sans-Serif" font-size="10.00">Arcane::XmlNode::children</text>
</a>
</g>
</g>
<!-- Node2&#45;&gt;Node6 -->
<g id="edge5_Node000002_Node000006" class="edge">
<title>Node2&#45;&gt;Node6</title>
<g id="a_edge5_Node000002_Node000006"><a xlink:title=" ">
<path fill="none" stroke="#63b8ff" d="M360.25,-639.54C373.07,-638.38 386.43,-637.17 399.39,-635.99"/>
<polygon fill="#63b8ff" stroke="#63b8ff" points="400.05,-639.45 409.69,-635.06 399.42,-632.47 400.05,-639.45"/>
</a>
</g>
</g>
<!-- Node8 -->
<g id="Node000008" class="node">
<title>Node8</title>
<g id="a_Node000008"><a xlink:href="../../db/dc4/classArcane_1_1String.html#a3e077c33daf6f96bc96747fccd1edde0" target="_top" xlink:title="Retourne la conversion de l&#39;instance dans l&#39;encodage UTF&#45;8.">
<polygon fill="white" stroke="#666666" points="546.5,-601 419.5,-601 419.5,-582 546.5,-582 546.5,-601"/>
<text text-anchor="middle" x="483" y="-589" font-family="Helvetica,sans-Serif" font-size="10.00">Arcane::String::localstr</text>
</a>
</g>
</g>
<!-- Node2&#45;&gt;Node8 -->
<g id="edge9_Node000002_Node000008" class="edge">
<title>Node2&#45;&gt;Node8</title>
<g id="a_edge9_Node000002_Node000008"><a xlink:title=" ">
<path fill="none" stroke="#63b8ff" d="M333.24,-631.46C356.5,-624.55 384.6,-616.39 410,-609.5 417.35,-607.51 425.14,-605.48 432.78,-603.53"/>
<polygon fill="#63b8ff" stroke="#63b8ff" points="433.85,-606.87 442.69,-601.03 432.14,-600.08 433.85,-606.87"/>
</a>
</g>
</g>
<!-- Node9 -->
<g id="Node000009" class="node">
<title>Node9</title>
<g id="a_Node000009"><a xlink:href="../../db/dc4/classArcane_1_1String.html#a1398bc50c737c9974bf0ef9f2e291610" target="_top" xlink:title="Retourne true si la chaîne est nulle.">
<polygon fill="white" stroke="#666666" points="537.5,-788 428.5,-788 428.5,-769 537.5,-769 537.5,-788"/>
<text text-anchor="middle" x="483" y="-776" font-family="Helvetica,sans-Serif" font-size="10.00">Arcane::String::null</text>
</a>
</g>
</g>
<!-- Node2&#45;&gt;Node9 -->
<g id="edge10_Node000002_Node000009" class="edge">
<title>Node2&#45;&gt;Node9</title>
<g id="a_edge10_Node000002_Node000009"><a xlink:title=" ">
<path fill="none" stroke="#63b8ff" d="M295.81,-661.61C316.68,-686.19 361.46,-734.66 410,-760.5 413.48,-762.35 417.16,-764.02 420.94,-765.52"/>
<polygon fill="#63b8ff" stroke="#63b8ff" points="419.9,-768.87 430.49,-768.92 422.24,-762.27 419.9,-768.87"/>
</a>
</g>
</g>
<!-- Node10 -->
<g id="Node000010" class="node">
<title>Node10</title>
<g id="a_Node000010"><a xlink:href="../../d9/dcc/classArcane_1_1XmlNode.html#aa55e4b639e759107e44fbe17c21d311e" target="_top" xlink:title="Vrai si le noeud est nul.">
<polygon fill="white" stroke="#666666" points="721.5,-732 596.5,-732 596.5,-713 721.5,-713 721.5,-732"/>
<text text-anchor="middle" x="659" y="-720" font-family="Helvetica,sans-Serif" font-size="10.00">Arcane::XmlNode::null</text>
</a>
</g>
</g>
<!-- Node2&#45;&gt;Node10 -->
<g id="edge11_Node000002_Node000010" class="edge">
<title>Node2&#45;&gt;Node10</title>
<g id="a_edge11_Node000002_Node000010"><a xlink:title=" ">
<path fill="none" stroke="#63b8ff" d="M329.69,-661.56C353.49,-668.92 383.09,-677.48 410,-683.5 468.89,-696.69 536.63,-707.02 586.41,-713.72"/>
<polygon fill="#63b8ff" stroke="#63b8ff" points="586.06,-717.21 596.44,-715.06 586.98,-710.27 586.06,-717.21"/>
</a>
</g>
</g>
<!-- Node2&#45;&gt;Node11 -->
<g id="edge12_Node000002_Node000011" class="edge">
<title>Node2&#45;&gt;Node11</title>
<g id="a_edge12_Node000002_Node000011"><a xlink:title=" ">
<path fill="none" stroke="#63b8ff" d="M304.91,-631.41C329.31,-614.83 370.89,-588.45 410,-572.5 415.07,-570.43 420.44,-568.56 425.87,-566.86"/>
<polygon fill="#63b8ff" stroke="#63b8ff" points="427.04,-570.17 435.67,-564.01 425.09,-563.45 427.04,-570.17"/>
</a>
</g>
</g>
<!-- Node12 -->
<g id="Node000012" class="node">
<title>Node12</title>
<g id="a_Node000012"><a xlink:href="../../d9/dcc/classArcane_1_1XmlNode.html#a8caccaab130a8ddb49c02096094be089" target="_top" xlink:title="Valeur du noeud.">
<polygon fill="white" stroke="#666666" points="550,-751 416,-751 416,-732 550,-732 550,-751"/>
<text text-anchor="middle" x="483" y="-739" font-family="Helvetica,sans-Serif" font-size="10.00">Arcane::XmlNode::value</text>
</a>
</g>
</g>
<!-- Node2&#45;&gt;Node12 -->
<g id="edge13_Node000002_Node000012" class="edge">
<title>Node2&#45;&gt;Node12</title>
<g id="a_edge13_Node000002_Node000012"><a xlink:title=" ">
<path fill="none" stroke="#63b8ff" d="M307.05,-661.51C331.94,-676.94 372.69,-700.99 410,-717.5 419.31,-721.62 429.55,-725.44 439.33,-728.76"/>
<polygon fill="#63b8ff" stroke="#63b8ff" points="438.29,-732.11 448.89,-731.91 440.49,-725.46 438.29,-732.11"/>
</a>
</g>
</g>
<!-- Node4 -->
<g id="Node000004" class="node">
<title>Node4</title>
<g id="a_Node000004"><a xlink:href="../../d9/dcc/classArcane_1_1XmlNode.html#abf6d1792b8086d109b73d8b8bed727d4" target="_top" xlink:title="Retourne un iterateur sur le premier élément du tableau.">
<polygon fill="white" stroke="#666666" points="726,-675 592,-675 592,-656 726,-656 726,-675"/>
<text text-anchor="middle" x="659" y="-663" font-family="Helvetica,sans-Serif" font-size="10.00">Arcane::XmlNode::begin</text>
</a>
</g>
</g>
<!-- Node3&#45;&gt;Node4 -->
<g id="edge3_Node000003_Node000004" class="edge">
<title>Node3&#45;&gt;Node4</title>
<g id="a_edge3_Node000003_Node000004"><a xlink:title=" ">
<path fill="none" stroke="#63b8ff" d="M548.79,-665.5C559.59,-665.5 570.88,-665.5 581.93,-665.5"/>
<polygon fill="#63b8ff" stroke="#63b8ff" points="581.99,-669 591.99,-665.5 581.99,-662 581.99,-669"/>
</a>
</g>
</g>
<!-- Node5 -->
<g id="Node000005" class="node">
<title>Node5</title>
<g id="a_Node000005"><a xlink:href="../../d9/dcc/classArcane_1_1XmlNode.html#a3efa9c89f49f74584439b1b7c3516724" target="_top" xlink:title="Retourne un iterateur sur le premier élément après la fin du tableau.">
<polygon fill="white" stroke="#666666" points="721.5,-638 596.5,-638 596.5,-619 721.5,-619 721.5,-638"/>
<text text-anchor="middle" x="659" y="-626" font-family="Helvetica,sans-Serif" font-size="10.00">Arcane::XmlNode::end</text>
</a>
</g>
</g>
<!-- Node3&#45;&gt;Node5 -->
<g id="edge4_Node000003_Node000005" class="edge">
<title>Node3&#45;&gt;Node5</title>
<g id="a_edge4_Node000003_Node000005"><a xlink:title=" ">
<path fill="none" stroke="#63b8ff" d="M528.81,-655.97C551.45,-651.16 579.13,-645.27 603.05,-640.19"/>
<polygon fill="#63b8ff" stroke="#63b8ff" points="603.99,-643.56 613.04,-638.06 602.53,-636.72 603.99,-643.56"/>
</a>
</g>
</g>
<!-- Node6&#45;&gt;Node4 -->
<g id="edge7_Node000006_Node000004" class="edge">
<title>Node6&#45;&gt;Node4</title>
<g id="a_edge7_Node000006_Node000004"><a xlink:title=" ">
<path fill="none" stroke="#63b8ff" d="M528.81,-638.03C551.45,-642.84 579.13,-648.73 603.05,-653.81"/>
<polygon fill="#63b8ff" stroke="#63b8ff" points="602.53,-657.28 613.04,-655.94 603.99,-650.44 602.53,-657.28"/>
</a>
</g>
</g>
<!-- Node6&#45;&gt;Node5 -->
<g id="edge8_Node000006_Node000005" class="edge">
<title>Node6&#45;&gt;Node5</title>
<g id="a_edge8_Node000006_Node000005"><a xlink:title=" ">
<path fill="none" stroke="#63b8ff" d="M556.03,-628.5C565.95,-628.5 576.14,-628.5 586.06,-628.5"/>
<polygon fill="#63b8ff" stroke="#63b8ff" points="586.28,-632 596.28,-628.5 586.28,-625 586.28,-632"/>
</a>
</g>
</g>
<!-- Node7 -->
<g id="Node000007" class="node">
<title>Node7</title>
<g id="a_Node000007"><a xlink:href="../../d1/dfb/classArcane_1_1Array.html#afb30a771d3fd8022c7220afe7b78e60b" target="_top" xlink:title="Ajoute l&#39;élément val à la fin du tableau.">
<polygon fill="white" stroke="#666666" points="712,-601 606,-601 606,-582 712,-582 712,-601"/>
<text text-anchor="middle" x="659" y="-589" font-family="Helvetica,sans-Serif" font-size="10.00">Arcane::Array::add</text>
</a>
</g>
</g>
<!-- Node6&#45;&gt;Node7 -->
<g id="edge6_Node000006_Node000007" class="edge">
<title>Node6&#45;&gt;Node7</title>
<g id="a_edge6_Node000006_Node000007"><a xlink:title=" ">
<path fill="none" stroke="#63b8ff" d="M528.81,-618.97C551.45,-614.16 579.13,-608.27 603.05,-603.19"/>
<polygon fill="#63b8ff" stroke="#63b8ff" points="603.99,-606.56 613.04,-601.06 602.53,-599.72 603.99,-606.56"/>
</a>
</g>
</g>
<!-- Node12&#45;&gt;Node10 -->
<g id="edge14_Node000012_Node000010" class="edge">
<title>Node12&#45;&gt;Node10</title>
<g id="a_edge14_Node000012_Node000010"><a xlink:title=" ">
<path fill="none" stroke="#63b8ff" d="M550.28,-734.26C562.13,-732.97 574.53,-731.61 586.53,-730.3"/>
<polygon fill="#63b8ff" stroke="#63b8ff" points="586.92,-733.78 596.48,-729.22 586.16,-726.82 586.92,-733.78"/>
</a>
</g>
</g>
<!-- Node13&#45;&gt;Node13 -->
<g id="edge16_Node000013_Node000013" class="edge">
<title>Node13&#45;&gt;Node13</title>
<g id="a_edge16_Node000013_Node000013"><a xlink:title=" ">
<path fill="none" stroke="#63b8ff" d="M247.34,-523.78C239.53,-532.91 251.25,-541.5 282.5,-541.5 301.05,-541.5 312.72,-538.47 317.51,-534.1"/>
<polygon fill="#63b8ff" stroke="#63b8ff" points="321.01,-533.82 317.66,-523.78 314.01,-533.72 321.01,-533.82"/>
</a>
</g>
</g>
<!-- Node23&#45;&gt;Node23 -->
<g id="edge27_Node000023_Node000023" class="edge">
<title>Node23&#45;&gt;Node23</title>
<g id="a_edge27_Node000023_Node000023"><a xlink:title=" ">
<path fill="none" stroke="#63b8ff" d="M247.34,-67.78C239.53,-76.91 251.25,-85.5 282.5,-85.5 301.05,-85.5 312.72,-82.47 317.51,-78.1"/>
<polygon fill="#63b8ff" stroke="#63b8ff" points="321.01,-77.82 317.66,-67.78 314.01,-77.72 321.01,-77.82"/>
</a>
</g>
</g>
</g>
</svg>
