<?xml version="1.0" encoding="UTF-8" standalone="no"?>
<!DOCTYPE svg PUBLIC "-//W3C//DTD SVG 1.1//EN"
 "http://www.w3.org/Graphics/SVG/1.1/DTD/svg11.dtd">
<!-- Generated by graphviz version 2.43.0 (0)
 -->
<!-- Title: Arcane::ExternalPartitionConstraint::addLinkedCells Pages: 1 -->
<svg width="317pt" height="224pt"
 viewBox="0.00 0.00 317.00 224.00" xmlns="http://www.w3.org/2000/svg" xmlns:xlink="http://www.w3.org/1999/xlink">
<g id="graph0" class="graph" transform="scale(1 1) rotate(0) translate(4 220)">
<title>Arcane::ExternalPartitionConstraint::addLinkedCells</title>
<!-- Node1 -->
<g id="Node000001" class="node">
<title>Node1</title>
<g id="a_Node000001"><a xlink:title="Ajoute un ensemble de contraintes sur les mailles.">
<polygon fill="#999999" stroke="#666666" points="146,-128.5 0,-128.5 0,-98.5 146,-98.5 146,-128.5"/>
<text text-anchor="start" x="8" y="-116.5" font-family="Helvetica,sans-Serif" font-size="10.00">Arcane::ExternalPartition</text>
<text text-anchor="middle" x="73" y="-105.5" font-family="Helvetica,sans-Serif" font-size="10.00">Constraint::addLinkedCells</text>
</a>
</g>
</g>
<!-- Node2 -->
<g id="Node000002" class="node">
<title>Node2</title>
<g id="a_Node000002"><a xlink:href="../../d1/dfb/classArcane_1_1Array.html#afb30a771d3fd8022c7220afe7b78e60b" target="_top" xlink:title="Ajoute l&#39;élément val à la fin du tableau.">
<polygon fill="white" stroke="#666666" points="298.5,-216 192.5,-216 192.5,-197 298.5,-197 298.5,-216"/>
<text text-anchor="middle" x="245.5" y="-204" font-family="Helvetica,sans-Serif" font-size="10.00">Arcane::Array::add</text>
</a>
</g>
</g>
<!-- Node1&#45;&gt;Node2 -->
<g id="edge1_Node000001_Node000002" class="edge">
<title>Node1&#45;&gt;Node2</title>
<g id="a_edge1_Node000001_Node000002"><a xlink:title=" ">
<path fill="none" stroke="#63b8ff" d="M91.97,-128.76C112.52,-145.53 147.78,-172.23 182,-188.5 186.01,-190.41 190.26,-192.15 194.59,-193.74"/>
<polygon fill="#63b8ff" stroke="#63b8ff" points="193.51,-197.07 204.11,-196.97 195.76,-190.44 193.51,-197.07"/>
</a>
</g>
</g>
<!-- Node3 -->
<g id="Node000003" class="node">
<title>Node3</title>
<g id="a_Node000003"><a xlink:href="../../d1/dfb/classArcane_1_1Array.html#a0d76a9d28e8c370b17f40851863d6ee3" target="_top" xlink:title="Remplissage du tableau.">
<polygon fill="white" stroke="#666666" points="295.5,-179 195.5,-179 195.5,-160 295.5,-160 295.5,-179"/>
<text text-anchor="middle" x="245.5" y="-167" font-family="Helvetica,sans-Serif" font-size="10.00">Arcane::Array::fill</text>
</a>
</g>
</g>
<!-- Node1&#45;&gt;Node3 -->
<g id="edge2_Node000001_Node000003" class="edge">
<title>Node1&#45;&gt;Node3</title>
<g id="a_edge2_Node000001_Node000003"><a xlink:title=" ">
<path fill="none" stroke="#63b8ff" d="M115.1,-128.59C135.18,-135.8 159.75,-144.39 182,-151.5 187.93,-153.4 194.2,-155.31 200.4,-157.14"/>
<polygon fill="#63b8ff" stroke="#63b8ff" points="199.43,-160.51 210.01,-159.95 201.39,-153.79 199.43,-160.51"/>
</a>
</g>
</g>
<!-- Node4 -->
<g id="Node000004" class="node">
<title>Node4</title>
<g id="a_Node000004"><a xlink:href="../../df/d5f/classArcane_1_1Item.html#a5651b2880e289af4cf8b93ef9164272c" target="_top" xlink:title="Numéro du sous&#45;domaine propriétaire de l&#39;entité">
<polygon fill="white" stroke="#666666" points="303,-142 188,-142 188,-123 303,-123 303,-142"/>
<text text-anchor="middle" x="245.5" y="-130" font-family="Helvetica,sans-Serif" font-size="10.00">Arcane::Item::owner</text>
</a>
</g>
</g>
<!-- Node1&#45;&gt;Node4 -->
<g id="edge3_Node000001_Node000004" class="edge">
<title>Node1&#45;&gt;Node4</title>
<g id="a_edge3_Node000001_Node000004"><a xlink:title=" ">
<path fill="none" stroke="#63b8ff" d="M146.31,-121.56C156.72,-122.72 167.4,-123.91 177.7,-125.06"/>
<polygon fill="#63b8ff" stroke="#63b8ff" points="177.53,-128.56 187.85,-126.19 178.3,-121.6 177.53,-128.56"/>
</a>
</g>
</g>
<!-- Node5 -->
<g id="Node000005" class="node">
<title>Node5</title>
<g id="a_Node000005"><a xlink:href="../../d1/dfb/classArcane_1_1Array.html#a31fc5b4bd79b4f6e4a011735d33b1818" target="_top" xlink:title="Change le nombre d&#39;éléments du tableau à s.">
<polygon fill="white" stroke="#666666" points="304,-105 187,-105 187,-86 304,-86 304,-105"/>
<text text-anchor="middle" x="245.5" y="-93" font-family="Helvetica,sans-Serif" font-size="10.00">Arcane::Array::resize</text>
</a>
</g>
</g>
<!-- Node1&#45;&gt;Node5 -->
<g id="edge4_Node000001_Node000005" class="edge">
<title>Node1&#45;&gt;Node5</title>
<g id="a_edge4_Node000001_Node000005"><a xlink:title=" ">
<path fill="none" stroke="#63b8ff" d="M146.31,-105.87C156.34,-104.81 166.63,-103.72 176.58,-102.67"/>
<polygon fill="#63b8ff" stroke="#63b8ff" points="177.23,-106.12 186.81,-101.59 176.5,-99.16 177.23,-106.12"/>
</a>
</g>
</g>
<!-- Node6 -->
<g id="Node000006" class="node">
<title>Node6</title>
<g id="a_Node000006"><a xlink:href="../../d5/d72/classArcane_1_1AbstractArray.html#a462e7632cf9664d773016bc972bed483" target="_top" xlink:title="Nombre d&#39;éléments du vecteur.">
<polygon fill="white" stroke="#666666" points="307,-67.5 184,-67.5 184,-37.5 307,-37.5 307,-67.5"/>
<text text-anchor="start" x="192" y="-55.5" font-family="Helvetica,sans-Serif" font-size="10.00">Arcane::AbstractArray</text>
<text text-anchor="middle" x="245.5" y="-44.5" font-family="Helvetica,sans-Serif" font-size="10.00">::size</text>
</a>
</g>
</g>
<!-- Node1&#45;&gt;Node6 -->
<g id="edge5_Node000001_Node000006" class="edge">
<title>Node1&#45;&gt;Node6</title>
<g id="a_edge5_Node000001_Node000006"><a xlink:title=" ">
<path fill="none" stroke="#63b8ff" d="M116.15,-98.42C139.39,-90.11 168.44,-79.71 193.02,-70.92"/>
<polygon fill="#63b8ff" stroke="#63b8ff" points="194.31,-74.17 202.54,-67.51 191.95,-67.58 194.31,-74.17"/>
</a>
</g>
</g>
<!-- Node7 -->
<g id="Node000007" class="node">
<title>Node7</title>
<g id="a_Node000007"><a xlink:href="../../df/d5f/classArcane_1_1Item.html#a8e5cf3572ae8a043fae3e32fe400551b" target="_top" xlink:title="Identifiant unique sur tous les domaines.">
<polygon fill="white" stroke="#666666" points="309,-19 182,-19 182,0 309,0 309,-19"/>
<text text-anchor="middle" x="245.5" y="-7" font-family="Helvetica,sans-Serif" font-size="10.00">Arcane::Item::uniqueId</text>
</a>
</g>
</g>
<!-- Node1&#45;&gt;Node7 -->
<g id="edge6_Node000001_Node000007" class="edge">
<title>Node1&#45;&gt;Node7</title>
<g id="a_edge6_Node000001_Node000007"><a xlink:title=" ">
<path fill="none" stroke="#63b8ff" d="M89.5,-98.18C109.37,-79.33 145.62,-47.49 182,-28.5 186.24,-26.29 190.78,-24.29 195.4,-22.49"/>
<polygon fill="#63b8ff" stroke="#63b8ff" points="196.7,-25.75 204.94,-19.09 194.35,-19.15 196.7,-25.75"/>
</a>
</g>
</g>
</g>
</svg>
