<?xml version="1.0" encoding="UTF-8" standalone="no"?>
<!DOCTYPE svg PUBLIC "-//W3C//DTD SVG 1.1//EN"
 "http://www.w3.org/Graphics/SVG/1.1/DTD/svg11.dtd">
<!-- Generated by graphviz version 2.43.0 (0)
 -->
<!-- Title: Arcane::SerialTask Pages: 1 -->
<svg width="141pt" height="262pt"
 viewBox="0.00 0.00 141.00 262.00" xmlns="http://www.w3.org/2000/svg" xmlns:xlink="http://www.w3.org/1999/xlink">
<g id="graph0" class="graph" transform="scale(1 1) rotate(0) translate(4 258)">
<title>Arcane::SerialTask</title>
<!-- Node1 -->
<g id="Node000001" class="node">
<title>Node1</title>
<g id="a_Node000001"><a xlink:title=" ">
<polygon fill="#999999" stroke="transparent" points="133,-124 0,-124 0,0 133,0 133,-124"/>
<text text-anchor="start" x="22" y="-112" font-family="Helvetica,sans-Serif" font-size="10.00">Arcane::SerialTask</text>
<text text-anchor="start" x="4.5" y="-97" font-family="Helvetica,sans-Serif" font-size="10.00">+</text>
<text text-anchor="start" x="17.5" y="-97" font-family="Helvetica,sans-Serif" font-size="10.00">FUNCTOR_CLASS_SIZE</text>
<text text-anchor="start" x="7" y="-82" font-family="Helvetica,sans-Serif" font-size="10.00">&#45;</text>
<text text-anchor="start" x="17.5" y="-82" font-family="Helvetica,sans-Serif" font-size="10.00">m_functor</text>
<text text-anchor="start" x="7" y="-67" font-family="Helvetica,sans-Serif" font-size="10.00">&#45;</text>
<text text-anchor="start" x="17.5" y="-67" font-family="Helvetica,sans-Serif" font-size="10.00">functor_buf</text>
<text text-anchor="start" x="4.5" y="-52" font-family="Helvetica,sans-Serif" font-size="10.00">+</text>
<text text-anchor="start" x="17.5" y="-52" font-family="Helvetica,sans-Serif" font-size="10.00">SerialTask()</text>
<text text-anchor="start" x="4.5" y="-37" font-family="Helvetica,sans-Serif" font-size="10.00">+</text>
<text text-anchor="start" x="17.5" y="-37" font-family="Helvetica,sans-Serif" font-size="10.00">launchAndWait()</text>
<text text-anchor="start" x="4.5" y="-22" font-family="Helvetica,sans-Serif" font-size="10.00">+</text>
<text text-anchor="start" x="17.5" y="-22" font-family="Helvetica,sans-Serif" font-size="10.00">launchAndWait()</text>
<text text-anchor="start" x="4.5" y="-7" font-family="Helvetica,sans-Serif" font-size="10.00">+</text>
<text text-anchor="start" x="17.5" y="-7" font-family="Helvetica,sans-Serif" font-size="10.00">_createChildTask()</text>
<polygon fill="#666666" stroke="#666666" points="0.5,-107 0.5,-107 133.5,-107 133.5,-107 0.5,-107"/>
<polygon fill="#666666" stroke="#666666" points="0.5,-62 0.5,-62 15.5,-62 15.5,-62 0.5,-62"/>
<polygon fill="#666666" stroke="#666666" points="15.5,-62 15.5,-62 133.5,-62 133.5,-62 15.5,-62"/>
<polygon fill="none" stroke="#666666" points="0,0 0,-124 133,-124 133,0 0,0"/>
</a>
</g>
</g>
<!-- Node2 -->
<g id="Node000002" class="node">
<title>Node2</title>
<g id="a_Node000002"><a xlink:href="../../da/dd2/classArcane_1_1ITask.html" target="_top" xlink:title="Interface d&#39;une tâche concourante.">
<polygon fill="white" stroke="transparent" points="122.5,-254 10.5,-254 10.5,-160 122.5,-160 122.5,-254"/>
<text text-anchor="start" x="34" y="-242" font-family="Helvetica,sans-Serif" font-size="10.00">Arcane::ITask</text>
<text text-anchor="start" x="64.5" y="-227" font-family="Helvetica,sans-Serif" font-size="10.00"> </text>
<text text-anchor="start" x="14.5" y="-212" font-family="Helvetica,sans-Serif" font-size="10.00">+</text>
<text text-anchor="start" x="27.5" y="-212" font-family="Helvetica,sans-Serif" font-size="10.00">~ITask()</text>
<text text-anchor="start" x="14.5" y="-197" font-family="Helvetica,sans-Serif" font-size="10.00">+</text>
<text text-anchor="start" x="27.5" y="-197" font-family="Helvetica,sans-Serif" font-size="10.00">launchAndWait()</text>
<text text-anchor="start" x="14.5" y="-182" font-family="Helvetica,sans-Serif" font-size="10.00">+</text>
<text text-anchor="start" x="27.5" y="-182" font-family="Helvetica,sans-Serif" font-size="10.00">launchAndWait()</text>
<text text-anchor="start" x="14.5" y="-167" font-family="Helvetica,sans-Serif" font-size="10.00">#</text>
<text text-anchor="start" x="27.5" y="-167" font-family="Helvetica,sans-Serif" font-size="10.00">_createChildTask()</text>
<polygon fill="#666666" stroke="#666666" points="10.5,-237 10.5,-237 122.5,-237 122.5,-237 10.5,-237"/>
<polygon fill="#666666" stroke="#666666" points="10.5,-222 10.5,-222 122.5,-222 122.5,-222 10.5,-222"/>
<polygon fill="none" stroke="#666666" points="10.5,-160 10.5,-254 122.5,-254 122.5,-160 10.5,-160"/>
</a>
</g>
</g>
<!-- Node2&#45;&gt;Node1 -->
<g id="edge1_Node000001_Node000002" class="edge">
<title>Node2&#45;&gt;Node1</title>
<g id="a_edge1_Node000001_Node000002"><a xlink:title=" ">
<path fill="none" stroke="#63b8ff" d="M66.5,-149.84C66.5,-141.38 66.5,-132.63 66.5,-124.08"/>
<polygon fill="none" stroke="#63b8ff" points="63,-149.97 66.5,-159.97 70,-149.97 63,-149.97"/>
</a>
</g>
</g>
</g>
</svg>
