<?xml version="1.0" encoding="UTF-8" standalone="no"?>
<!DOCTYPE svg PUBLIC "-//W3C//DTD SVG 1.1//EN"
 "http://www.w3.org/Graphics/SVG/1.1/DTD/svg11.dtd">
<!-- Generated by graphviz version 2.43.0 (0)
 -->
<!-- Title: Arcane::DefaultMemoryAllocator Pages: 1 -->
<svg width="186pt" height="497pt"
 viewBox="0.00 0.00 186.00 497.00" xmlns="http://www.w3.org/2000/svg" xmlns:xlink="http://www.w3.org/1999/xlink">
<g id="graph0" class="graph" transform="scale(1 1) rotate(0) translate(4 493)">
<title>Arcane::DefaultMemoryAllocator</title>
<!-- Node1 -->
<g id="Node000001" class="node">
<title>Node1</title>
<g id="a_Node000001"><a xlink:title="Allocateur mémoire via malloc/realloc/free.">
<polygon fill="#999999" stroke="transparent" points="174,-254 4,-254 4,-115 174,-115 174,-254"/>
<text text-anchor="start" x="9" y="-241.5" font-family="Helvetica,sans-Serif" font-size="10.00">Arcane::DefaultMemoryAllocator</text>
<text text-anchor="start" x="19" y="-226.5" font-family="Helvetica,sans-Serif" font-size="10.00">&#45;</text>
<text text-anchor="start" x="38" y="-226.5" font-family="Helvetica,sans-Serif" font-size="10.00">shared_null_instance</text>
<text text-anchor="start" x="16.5" y="-211.5" font-family="Helvetica,sans-Serif" font-size="10.00">+</text>
<text text-anchor="start" x="38" y="-211.5" font-family="Helvetica,sans-Serif" font-size="10.00">hasRealloc()</text>
<text text-anchor="start" x="16.5" y="-196.5" font-family="Helvetica,sans-Serif" font-size="10.00">+</text>
<text text-anchor="start" x="38" y="-196.5" font-family="Helvetica,sans-Serif" font-size="10.00">allocate()</text>
<text text-anchor="start" x="16.5" y="-181.5" font-family="Helvetica,sans-Serif" font-size="10.00">+</text>
<text text-anchor="start" x="38" y="-181.5" font-family="Helvetica,sans-Serif" font-size="10.00">reallocate()</text>
<text text-anchor="start" x="16.5" y="-166.5" font-family="Helvetica,sans-Serif" font-size="10.00">+</text>
<text text-anchor="start" x="38" y="-166.5" font-family="Helvetica,sans-Serif" font-size="10.00">deallocate()</text>
<text text-anchor="start" x="16.5" y="-151.5" font-family="Helvetica,sans-Serif" font-size="10.00">+</text>
<text text-anchor="start" x="38" y="-151.5" font-family="Helvetica,sans-Serif" font-size="10.00">adjustedCapacity()</text>
<text text-anchor="start" x="16.5" y="-136.5" font-family="Helvetica,sans-Serif" font-size="10.00">+</text>
<text text-anchor="start" x="38" y="-136.5" font-family="Helvetica,sans-Serif" font-size="10.00">guaranteedAlignment()</text>
<text text-anchor="start" x="16.5" y="-121.5" font-family="Helvetica,sans-Serif" font-size="10.00">+</text>
<text text-anchor="start" x="38" y="-121.5" font-family="Helvetica,sans-Serif" font-size="10.00">memoryResource()</text>
<polygon fill="#666666" stroke="#666666" points="4,-236.5 4,-236.5 174,-236.5 174,-236.5 4,-236.5"/>
<polygon fill="#666666" stroke="#666666" points="4,-221.5 4,-221.5 36,-221.5 36,-221.5 4,-221.5"/>
<polygon fill="#666666" stroke="#666666" points="36,-221.5 36,-221.5 174,-221.5 174,-221.5 36,-221.5"/>
<polygon fill="none" stroke="#666666" points="4,-115 4,-254 174,-254 174,-115 4,-115"/>
</a>
</g>
</g>
<!-- Node3 -->
<g id="Node000003" class="node">
<title>Node3</title>
<g id="a_Node000003"><a xlink:href="../../df/db0/classArcane_1_1PrintableMemoryAllocator.html" target="_top" xlink:title="Allocateur mémoire via malloc/realloc/free avec impression listing.">
<polygon fill="white" stroke="transparent" points="178,-79 0,-79 0,0 178,0 178,-79"/>
<text text-anchor="start" x="5" y="-66.5" font-family="Helvetica,sans-Serif" font-size="10.00">Arcane::PrintableMemoryAllocator</text>
<text text-anchor="start" x="87" y="-51.5" font-family="Helvetica,sans-Serif" font-size="10.00"> </text>
<text text-anchor="start" x="28.5" y="-36.5" font-family="Helvetica,sans-Serif" font-size="10.00">+</text>
<text text-anchor="start" x="66" y="-36.5" font-family="Helvetica,sans-Serif" font-size="10.00">allocate()</text>
<text text-anchor="start" x="28.5" y="-21.5" font-family="Helvetica,sans-Serif" font-size="10.00">+</text>
<text text-anchor="start" x="66" y="-21.5" font-family="Helvetica,sans-Serif" font-size="10.00">reallocate()</text>
<text text-anchor="start" x="28.5" y="-6.5" font-family="Helvetica,sans-Serif" font-size="10.00">+</text>
<text text-anchor="start" x="66" y="-6.5" font-family="Helvetica,sans-Serif" font-size="10.00">deallocate()</text>
<polygon fill="#666666" stroke="#666666" points="0,-61.5 0,-61.5 178,-61.5 178,-61.5 0,-61.5"/>
<polygon fill="#666666" stroke="#666666" points="0,-46.5 0,-46.5 178,-46.5 178,-46.5 0,-46.5"/>
<polygon fill="none" stroke="#666666" points="0,0 0,-79 178,-79 178,0 0,0"/>
</a>
</g>
</g>
<!-- Node1&#45;&gt;Node3 -->
<g id="edge2_Node000001_Node000003" class="edge">
<title>Node1&#45;&gt;Node3</title>
<g id="a_edge2_Node000001_Node000003"><a xlink:title=" ">
<path fill="none" stroke="#63b8ff" d="M89,-104.82C89,-95.9 89,-87.12 89,-79.07"/>
<polygon fill="none" stroke="#63b8ff" points="85.5,-104.93 89,-114.93 92.5,-104.93 85.5,-104.93"/>
</a>
</g>
</g>
<!-- Node2 -->
<g id="Node000002" class="node">
<title>Node2</title>
<g id="a_Node000002"><a xlink:href="../../dc/d3c/classArcane_1_1IMemoryAllocator.html" target="_top" xlink:title="Interface d&#39;un allocateur pour la mémoire.">
<polygon fill="white" stroke="transparent" points="170,-489 8,-489 8,-290 170,-290 170,-489"/>
<text text-anchor="start" x="25.5" y="-476.5" font-family="Helvetica,sans-Serif" font-size="10.00">Arcane::IMemoryAllocator</text>
<text text-anchor="start" x="87" y="-461.5" font-family="Helvetica,sans-Serif" font-size="10.00"> </text>
<text text-anchor="start" x="12" y="-446.5" font-family="Helvetica,sans-Serif" font-size="10.00">+</text>
<text text-anchor="start" x="25" y="-446.5" font-family="Helvetica,sans-Serif" font-size="10.00">~IMemoryAllocator()</text>
<text text-anchor="start" x="12" y="-431.5" font-family="Helvetica,sans-Serif" font-size="10.00">+</text>
<text text-anchor="start" x="25" y="-431.5" font-family="Helvetica,sans-Serif" font-size="10.00">hasRealloc()</text>
<text text-anchor="start" x="12" y="-416.5" font-family="Helvetica,sans-Serif" font-size="10.00">+</text>
<text text-anchor="start" x="25" y="-416.5" font-family="Helvetica,sans-Serif" font-size="10.00">allocate()</text>
<text text-anchor="start" x="12" y="-401.5" font-family="Helvetica,sans-Serif" font-size="10.00">+</text>
<text text-anchor="start" x="25" y="-401.5" font-family="Helvetica,sans-Serif" font-size="10.00">reallocate()</text>
<text text-anchor="start" x="12" y="-386.5" font-family="Helvetica,sans-Serif" font-size="10.00">+</text>
<text text-anchor="start" x="25" y="-386.5" font-family="Helvetica,sans-Serif" font-size="10.00">deallocate()</text>
<text text-anchor="start" x="12" y="-371.5" font-family="Helvetica,sans-Serif" font-size="10.00">+</text>
<text text-anchor="start" x="25" y="-371.5" font-family="Helvetica,sans-Serif" font-size="10.00">adjustedCapacity()</text>
<text text-anchor="start" x="12" y="-356.5" font-family="Helvetica,sans-Serif" font-size="10.00">+</text>
<text text-anchor="start" x="25" y="-356.5" font-family="Helvetica,sans-Serif" font-size="10.00">guaranteedAlignment()</text>
<text text-anchor="start" x="12" y="-341.5" font-family="Helvetica,sans-Serif" font-size="10.00">+</text>
<text text-anchor="start" x="25" y="-341.5" font-family="Helvetica,sans-Serif" font-size="10.00">guarantedAlignment()</text>
<text text-anchor="start" x="12" y="-326.5" font-family="Helvetica,sans-Serif" font-size="10.00">+</text>
<text text-anchor="start" x="25" y="-326.5" font-family="Helvetica,sans-Serif" font-size="10.00">notifyMemoryArgsChanged()</text>
<text text-anchor="start" x="12" y="-311.5" font-family="Helvetica,sans-Serif" font-size="10.00">+</text>
<text text-anchor="start" x="25" y="-311.5" font-family="Helvetica,sans-Serif" font-size="10.00">copyMemory()</text>
<text text-anchor="start" x="12" y="-296.5" font-family="Helvetica,sans-Serif" font-size="10.00">+</text>
<text text-anchor="start" x="25" y="-296.5" font-family="Helvetica,sans-Serif" font-size="10.00">memoryResource()</text>
<polygon fill="#666666" stroke="#666666" points="8,-471.5 8,-471.5 170,-471.5 170,-471.5 8,-471.5"/>
<polygon fill="#666666" stroke="#666666" points="8,-456.5 8,-456.5 170,-456.5 170,-456.5 8,-456.5"/>
<polygon fill="none" stroke="#666666" points="8,-290 8,-489 170,-489 170,-290 8,-290"/>
</a>
</g>
</g>
<!-- Node2&#45;&gt;Node1 -->
<g id="edge1_Node000001_Node000002" class="edge">
<title>Node2&#45;&gt;Node1</title>
<g id="a_edge1_Node000001_Node000002"><a xlink:title=" ">
<path fill="none" stroke="#63b8ff" d="M89,-279.75C89,-271.05 89,-262.43 89,-254.13"/>
<polygon fill="none" stroke="#63b8ff" points="85.5,-279.97 89,-289.97 92.5,-279.97 85.5,-279.97"/>
</a>
</g>
</g>
</g>
</svg>
