<?xml version="1.0" encoding="UTF-8" standalone="no"?>
<!DOCTYPE svg PUBLIC "-//W3C//DTD SVG 1.1//EN"
 "http://www.w3.org/Graphics/SVG/1.1/DTD/svg11.dtd">
<!-- Generated by graphviz version 2.43.0 (0)
 -->
<!-- Title: Arcane::CaseOptionMultiSimpleT&lt; T &gt; Pages: 1 -->
<svg width="320pt" height="1055pt"
 viewBox="0.00 0.00 320.00 1055.00" xmlns="http://www.w3.org/2000/svg" xmlns:xlink="http://www.w3.org/1999/xlink">
<g id="graph0" class="graph" transform="scale(1 1) rotate(0) translate(4 1051)">
<title>Arcane::CaseOptionMultiSimpleT&lt; T &gt;</title>
<!-- Node1 -->
<g id="Node000001" class="node">
<title>Node1</title>
<g id="a_Node000001"><a xlink:title="Option du jeu de données de type liste de types simples (réel, entier, booléen, .....">
<polygon fill="#999999" stroke="transparent" points="247,-262 82,-262 82,0 247,0 247,-262"/>
<text text-anchor="start" x="87.5" y="-250" font-family="Helvetica,sans-Serif" font-size="10.00">Arcane::CaseOptionMultiSimple</text>
<text text-anchor="start" x="147.5" y="-239" font-family="Helvetica,sans-Serif" font-size="10.00">T&lt; T &gt;</text>
<text text-anchor="start" x="90.5" y="-224" font-family="Helvetica,sans-Serif" font-size="10.00">&#45;</text>
<text text-anchor="start" x="102.5" y="-224" font-family="Helvetica,sans-Serif" font-size="10.00">m_view</text>
<text text-anchor="start" x="88" y="-209" font-family="Helvetica,sans-Serif" font-size="10.00">+</text>
<text text-anchor="start" x="102.5" y="-209" font-family="Helvetica,sans-Serif" font-size="10.00">CaseOptionMultiSimpleT()</text>
<text text-anchor="start" x="88" y="-194" font-family="Helvetica,sans-Serif" font-size="10.00">+</text>
<text text-anchor="start" x="102.5" y="-194" font-family="Helvetica,sans-Serif" font-size="10.00">CaseOptionMultiSimpleT()</text>
<text text-anchor="start" x="88" y="-179" font-family="Helvetica,sans-Serif" font-size="10.00">+</text>
<text text-anchor="start" x="102.5" y="-179" font-family="Helvetica,sans-Serif" font-size="10.00">~CaseOptionMultiSimpleT()</text>
<text text-anchor="start" x="88" y="-164" font-family="Helvetica,sans-Serif" font-size="10.00">+</text>
<text text-anchor="start" x="102.5" y="-164" font-family="Helvetica,sans-Serif" font-size="10.00">operator()()</text>
<text text-anchor="start" x="88" y="-149" font-family="Helvetica,sans-Serif" font-size="10.00">+</text>
<text text-anchor="start" x="102.5" y="-149" font-family="Helvetica,sans-Serif" font-size="10.00">operator()()</text>
<text text-anchor="start" x="88" y="-134" font-family="Helvetica,sans-Serif" font-size="10.00">+</text>
<text text-anchor="start" x="102.5" y="-134" font-family="Helvetica,sans-Serif" font-size="10.00">operator ArrayView</text>
<text text-anchor="start" x="102.5" y="-123" font-family="Helvetica,sans-Serif" font-size="10.00">&lt; T &gt;()</text>
<text text-anchor="start" x="88" y="-108" font-family="Helvetica,sans-Serif" font-size="10.00">+</text>
<text text-anchor="start" x="102.5" y="-108" font-family="Helvetica,sans-Serif" font-size="10.00">operator ConstArrayView</text>
<text text-anchor="start" x="102.5" y="-97" font-family="Helvetica,sans-Serif" font-size="10.00">&lt; T &gt;()</text>
<text text-anchor="start" x="88" y="-82" font-family="Helvetica,sans-Serif" font-size="10.00">+</text>
<text text-anchor="start" x="102.5" y="-82" font-family="Helvetica,sans-Serif" font-size="10.00">view()</text>
<text text-anchor="start" x="88" y="-67" font-family="Helvetica,sans-Serif" font-size="10.00">+</text>
<text text-anchor="start" x="102.5" y="-67" font-family="Helvetica,sans-Serif" font-size="10.00">view()</text>
<text text-anchor="start" x="88" y="-52" font-family="Helvetica,sans-Serif" font-size="10.00">+</text>
<text text-anchor="start" x="102.5" y="-52" font-family="Helvetica,sans-Serif" font-size="10.00">operator[]()</text>
<text text-anchor="start" x="102.5" y="-37" font-family="Helvetica,sans-Serif" font-size="10.00">et 9 de plus...</text>
<text text-anchor="start" x="88" y="-22" font-family="Helvetica,sans-Serif" font-size="10.00">#</text>
<text text-anchor="start" x="102.5" y="-22" font-family="Helvetica,sans-Serif" font-size="10.00">_search()</text>
<text text-anchor="start" x="88" y="-7" font-family="Helvetica,sans-Serif" font-size="10.00">#</text>
<text text-anchor="start" x="102.5" y="-7" font-family="Helvetica,sans-Serif" font-size="10.00">_allowPhysicalUnit()</text>
<polygon fill="#666666" stroke="#666666" points="82.5,-234 82.5,-234 247.5,-234 247.5,-234 82.5,-234"/>
<polygon fill="#666666" stroke="#666666" points="82.5,-219 82.5,-219 100.5,-219 100.5,-219 82.5,-219"/>
<polygon fill="#666666" stroke="#666666" points="100.5,-219 100.5,-219 247.5,-219 247.5,-219 100.5,-219"/>
<polygon fill="none" stroke="#666666" points="82,0 82,-262 247,-262 247,0 82,0"/>
</a>
</g>
</g>
<!-- Node2 -->
<g id="Node000002" class="node">
<title>Node2</title>
<g id="a_Node000002"><a xlink:href="../../d8/de3/classArcane_1_1CaseOptionMultiSimple.html" target="_top" xlink:title=" ">
<polygon fill="white" stroke="transparent" points="165,-482 0,-482 0,-433 165,-433 165,-482"/>
<text text-anchor="start" x="5.5" y="-469.5" font-family="Helvetica,sans-Serif" font-size="10.00">Arcane::CaseOptionMultiSimple</text>
<text text-anchor="start" x="81" y="-454.5" font-family="Helvetica,sans-Serif" font-size="10.00"> </text>
<text text-anchor="start" x="9.5" y="-439.5" font-family="Helvetica,sans-Serif" font-size="10.00">+</text>
<text text-anchor="start" x="27.5" y="-439.5" font-family="Helvetica,sans-Serif" font-size="10.00">CaseOptionMultiSimple()</text>
<polygon fill="#bfbfbf" stroke="#bfbfbf" points="0.5,-464.5 0.5,-464.5 165.5,-464.5 165.5,-464.5 0.5,-464.5"/>
<polygon fill="#bfbfbf" stroke="#bfbfbf" points="0.5,-449.5 0.5,-449.5 165.5,-449.5 165.5,-449.5 0.5,-449.5"/>
<polygon fill="none" stroke="#bfbfbf" points="0,-433 0,-482 165,-482 165,-433 0,-433"/>
</a>
</g>
</g>
<!-- Node2&#45;&gt;Node1 -->
<g id="edge1_Node000001_Node000002" class="edge">
<title>Node2&#45;&gt;Node1</title>
<g id="a_edge1_Node000001_Node000002"><a xlink:title=" ">
<path fill="none" stroke="#63b8ff" d="M90.99,-422.9C100.59,-384.89 116.83,-320.66 131.6,-262.21"/>
<polygon fill="none" stroke="#63b8ff" points="87.52,-422.35 88.46,-432.9 94.31,-424.06 87.52,-422.35"/>
</a>
</g>
</g>
<!-- Node3 -->
<g id="Node000003" class="node">
<title>Node3</title>
<g id="a_Node000003"><a xlink:href="../../df/d69/classArcane_1_1CaseOptionBase.html" target="_top" xlink:title="Classe de base d&#39;une option du jeu de donnée.">
<polygon fill="white" stroke="transparent" points="161,-1047 4,-1047 4,-653 161,-653 161,-1047"/>
<text text-anchor="start" x="22.5" y="-1035" font-family="Helvetica,sans-Serif" font-size="10.00">Arcane::CaseOptionBase</text>
<text text-anchor="start" x="11" y="-1020" font-family="Helvetica,sans-Serif" font-size="10.00">&#45;</text>
<text text-anchor="start" x="21.5" y="-1020" font-family="Helvetica,sans-Serif" font-size="10.00">m_p</text>
<text text-anchor="start" x="8.5" y="-1005" font-family="Helvetica,sans-Serif" font-size="10.00">+</text>
<text text-anchor="start" x="21.5" y="-1005" font-family="Helvetica,sans-Serif" font-size="10.00">~CaseOptionBase()</text>
<text text-anchor="start" x="8.5" y="-990" font-family="Helvetica,sans-Serif" font-size="10.00">+</text>
<text text-anchor="start" x="21.5" y="-990" font-family="Helvetica,sans-Serif" font-size="10.00">trueName()</text>
<text text-anchor="start" x="8.5" y="-975" font-family="Helvetica,sans-Serif" font-size="10.00">+</text>
<text text-anchor="start" x="21.5" y="-975" font-family="Helvetica,sans-Serif" font-size="10.00">name()</text>
<text text-anchor="start" x="8.5" y="-960" font-family="Helvetica,sans-Serif" font-size="10.00">+</text>
<text text-anchor="start" x="21.5" y="-960" font-family="Helvetica,sans-Serif" font-size="10.00">translatedName()</text>
<text text-anchor="start" x="8.5" y="-945" font-family="Helvetica,sans-Serif" font-size="10.00">+</text>
<text text-anchor="start" x="21.5" y="-945" font-family="Helvetica,sans-Serif" font-size="10.00">search()</text>
<text text-anchor="start" x="8.5" y="-930" font-family="Helvetica,sans-Serif" font-size="10.00">+</text>
<text text-anchor="start" x="21.5" y="-930" font-family="Helvetica,sans-Serif" font-size="10.00">print()</text>
<text text-anchor="start" x="8.5" y="-915" font-family="Helvetica,sans-Serif" font-size="10.00">+</text>
<text text-anchor="start" x="21.5" y="-915" font-family="Helvetica,sans-Serif" font-size="10.00">caseMng()</text>
<text text-anchor="start" x="8.5" y="-900" font-family="Helvetica,sans-Serif" font-size="10.00">+</text>
<text text-anchor="start" x="21.5" y="-900" font-family="Helvetica,sans-Serif" font-size="10.00">parentOptionList()</text>
<text text-anchor="start" x="8.5" y="-885" font-family="Helvetica,sans-Serif" font-size="10.00">+</text>
<text text-anchor="start" x="21.5" y="-885" font-family="Helvetica,sans-Serif" font-size="10.00">traceMng()</text>
<text text-anchor="start" x="8.5" y="-870" font-family="Helvetica,sans-Serif" font-size="10.00">+</text>
<text text-anchor="start" x="21.5" y="-870" font-family="Helvetica,sans-Serif" font-size="10.00">subDomain()</text>
<text text-anchor="start" x="21.5" y="-855" font-family="Helvetica,sans-Serif" font-size="10.00">et 13 de plus...</text>
<text text-anchor="start" x="8.5" y="-840" font-family="Helvetica,sans-Serif" font-size="10.00">#</text>
<text text-anchor="start" x="21.5" y="-840" font-family="Helvetica,sans-Serif" font-size="10.00">CaseOptionBase()</text>
<text text-anchor="start" x="8.5" y="-825" font-family="Helvetica,sans-Serif" font-size="10.00">#</text>
<text text-anchor="start" x="21.5" y="-825" font-family="Helvetica,sans-Serif" font-size="10.00">_defaultValue()</text>
<text text-anchor="start" x="8.5" y="-810" font-family="Helvetica,sans-Serif" font-size="10.00">#</text>
<text text-anchor="start" x="21.5" y="-810" font-family="Helvetica,sans-Serif" font-size="10.00">_setDefaultValue()</text>
<text text-anchor="start" x="8.5" y="-795" font-family="Helvetica,sans-Serif" font-size="10.00">#</text>
<text text-anchor="start" x="21.5" y="-795" font-family="Helvetica,sans-Serif" font-size="10.00">_search()</text>
<text text-anchor="start" x="8.5" y="-780" font-family="Helvetica,sans-Serif" font-size="10.00">#</text>
<text text-anchor="start" x="21.5" y="-780" font-family="Helvetica,sans-Serif" font-size="10.00">_setIsInitialized()</text>
<text text-anchor="start" x="8.5" y="-765" font-family="Helvetica,sans-Serif" font-size="10.00">#</text>
<text text-anchor="start" x="21.5" y="-765" font-family="Helvetica,sans-Serif" font-size="10.00">_isInitialized()</text>
<text text-anchor="start" x="8.5" y="-750" font-family="Helvetica,sans-Serif" font-size="10.00">#</text>
<text text-anchor="start" x="21.5" y="-750" font-family="Helvetica,sans-Serif" font-size="10.00">_checkIsInitialized()</text>
<text text-anchor="start" x="8.5" y="-735" font-family="Helvetica,sans-Serif" font-size="10.00">#</text>
<text text-anchor="start" x="21.5" y="-735" font-family="Helvetica,sans-Serif" font-size="10.00">_checkMinMaxOccurs()</text>
<text text-anchor="start" x="8.5" y="-720" font-family="Helvetica,sans-Serif" font-size="10.00">#</text>
<text text-anchor="start" x="21.5" y="-720" font-family="Helvetica,sans-Serif" font-size="10.00">_xpathFullName()</text>
<text text-anchor="start" x="11" y="-705" font-family="Helvetica,sans-Serif" font-size="10.00">&#45;</text>
<text text-anchor="start" x="21.5" y="-705" font-family="Helvetica,sans-Serif" font-size="10.00">_setTranslatedName()</text>
<text text-anchor="start" x="11" y="-690" font-family="Helvetica,sans-Serif" font-size="10.00">&#45;</text>
<text text-anchor="start" x="21.5" y="-690" font-family="Helvetica,sans-Serif" font-size="10.00">_setCategoryDefaultValue()</text>
<text text-anchor="start" x="11" y="-675" font-family="Helvetica,sans-Serif" font-size="10.00">&#45;</text>
<text text-anchor="start" x="21.5" y="-675" font-family="Helvetica,sans-Serif" font-size="10.00">CaseOptionBase()</text>
<text text-anchor="start" x="11" y="-660" font-family="Helvetica,sans-Serif" font-size="10.00">&#45;</text>
<text text-anchor="start" x="21.5" y="-660" font-family="Helvetica,sans-Serif" font-size="10.00">operator=()</text>
<polygon fill="#666666" stroke="#666666" points="4.5,-1030 4.5,-1030 161.5,-1030 161.5,-1030 4.5,-1030"/>
<polygon fill="#666666" stroke="#666666" points="4.5,-1015 4.5,-1015 19.5,-1015 19.5,-1015 4.5,-1015"/>
<polygon fill="#666666" stroke="#666666" points="19.5,-1015 19.5,-1015 161.5,-1015 161.5,-1015 19.5,-1015"/>
<polygon fill="none" stroke="#666666" points="4,-653 4,-1047 161,-1047 161,-653 4,-653"/>
</a>
</g>
</g>
<!-- Node3&#45;&gt;Node2 -->
<g id="edge2_Node000002_Node000003" class="edge">
<title>Node3&#45;&gt;Node2</title>
<g id="a_edge2_Node000002_Node000003"><a xlink:title=" ">
<path fill="none" stroke="#63b8ff" d="M82.5,-642.53C82.5,-578.02 82.5,-515.15 82.5,-482.21"/>
<polygon fill="none" stroke="#63b8ff" points="79,-642.89 82.5,-652.89 86,-642.89 79,-642.89"/>
</a>
</g>
</g>
<!-- Node4 -->
<g id="Node000004" class="node">
<title>Node4</title>
<g id="a_Node000004"><a xlink:href="../../d2/d30/classArcane_1_1ArrayView.html" target="_top" xlink:title="Vue modifiable d&#39;un tableau d&#39;un type T.">
<polygon fill="white" stroke="transparent" points="312,-617 183,-617 183,-298 312,-298 312,-617"/>
<text text-anchor="start" x="188.5" y="-604.5" font-family="Helvetica,sans-Serif" font-size="10.00">Arcane::ArrayView&lt; T &gt;</text>
<text text-anchor="start" x="198.5" y="-589.5" font-family="Helvetica,sans-Serif" font-size="10.00">&#45;</text>
<text text-anchor="start" x="217.5" y="-589.5" font-family="Helvetica,sans-Serif" font-size="10.00">m_size</text>
<text text-anchor="start" x="198.5" y="-574.5" font-family="Helvetica,sans-Serif" font-size="10.00">&#45;</text>
<text text-anchor="start" x="217.5" y="-574.5" font-family="Helvetica,sans-Serif" font-size="10.00">m_ptr</text>
<text text-anchor="start" x="196" y="-559.5" font-family="Helvetica,sans-Serif" font-size="10.00">+</text>
<text text-anchor="start" x="217.5" y="-559.5" font-family="Helvetica,sans-Serif" font-size="10.00">ArrayView()</text>
<text text-anchor="start" x="196" y="-544.5" font-family="Helvetica,sans-Serif" font-size="10.00">+</text>
<text text-anchor="start" x="217.5" y="-544.5" font-family="Helvetica,sans-Serif" font-size="10.00">ArrayView()</text>
<text text-anchor="start" x="196" y="-529.5" font-family="Helvetica,sans-Serif" font-size="10.00">+</text>
<text text-anchor="start" x="217.5" y="-529.5" font-family="Helvetica,sans-Serif" font-size="10.00">ArrayView()</text>
<text text-anchor="start" x="196" y="-514.5" font-family="Helvetica,sans-Serif" font-size="10.00">+</text>
<text text-anchor="start" x="217.5" y="-514.5" font-family="Helvetica,sans-Serif" font-size="10.00">ArrayView()</text>
<text text-anchor="start" x="196" y="-499.5" font-family="Helvetica,sans-Serif" font-size="10.00">+</text>
<text text-anchor="start" x="217.5" y="-499.5" font-family="Helvetica,sans-Serif" font-size="10.00">operator=()</text>
<text text-anchor="start" x="196" y="-484.5" font-family="Helvetica,sans-Serif" font-size="10.00">+</text>
<text text-anchor="start" x="217.5" y="-484.5" font-family="Helvetica,sans-Serif" font-size="10.00">operator=()</text>
<text text-anchor="start" x="196" y="-469.5" font-family="Helvetica,sans-Serif" font-size="10.00">+</text>
<text text-anchor="start" x="217.5" y="-469.5" font-family="Helvetica,sans-Serif" font-size="10.00">operator[]()</text>
<text text-anchor="start" x="196" y="-454.5" font-family="Helvetica,sans-Serif" font-size="10.00">+</text>
<text text-anchor="start" x="217.5" y="-454.5" font-family="Helvetica,sans-Serif" font-size="10.00">operator[]()</text>
<text text-anchor="start" x="196" y="-439.5" font-family="Helvetica,sans-Serif" font-size="10.00">+</text>
<text text-anchor="start" x="217.5" y="-439.5" font-family="Helvetica,sans-Serif" font-size="10.00">operator()()</text>
<text text-anchor="start" x="196" y="-424.5" font-family="Helvetica,sans-Serif" font-size="10.00">+</text>
<text text-anchor="start" x="217.5" y="-424.5" font-family="Helvetica,sans-Serif" font-size="10.00">operator()()</text>
<text text-anchor="start" x="217.5" y="-409.5" font-family="Helvetica,sans-Serif" font-size="10.00">et 33 de plus...</text>
<text text-anchor="start" x="196" y="-394.5" font-family="Helvetica,sans-Serif" font-size="10.00">+</text>
<text text-anchor="start" x="217.5" y="-394.5" font-family="Helvetica,sans-Serif" font-size="10.00">create()</text>
<text text-anchor="start" x="196" y="-379.5" font-family="Helvetica,sans-Serif" font-size="10.00">#</text>
<text text-anchor="start" x="217.5" y="-379.5" font-family="Helvetica,sans-Serif" font-size="10.00">_ptr()</text>
<text text-anchor="start" x="196" y="-364.5" font-family="Helvetica,sans-Serif" font-size="10.00">#</text>
<text text-anchor="start" x="217.5" y="-364.5" font-family="Helvetica,sans-Serif" font-size="10.00">_ptr()</text>
<text text-anchor="start" x="196" y="-349.5" font-family="Helvetica,sans-Serif" font-size="10.00">#</text>
<text text-anchor="start" x="217.5" y="-349.5" font-family="Helvetica,sans-Serif" font-size="10.00">_setArray()</text>
<text text-anchor="start" x="196" y="-334.5" font-family="Helvetica,sans-Serif" font-size="10.00">#</text>
<text text-anchor="start" x="217.5" y="-334.5" font-family="Helvetica,sans-Serif" font-size="10.00">_setPtr()</text>
<text text-anchor="start" x="196" y="-319.5" font-family="Helvetica,sans-Serif" font-size="10.00">#</text>
<text text-anchor="start" x="217.5" y="-319.5" font-family="Helvetica,sans-Serif" font-size="10.00">_setSize()</text>
<text text-anchor="start" x="198.5" y="-304.5" font-family="Helvetica,sans-Serif" font-size="10.00">&#45;</text>
<text text-anchor="start" x="217.5" y="-304.5" font-family="Helvetica,sans-Serif" font-size="10.00">_min()</text>
<polygon fill="#666666" stroke="#666666" points="183.5,-599.5 183.5,-599.5 312.5,-599.5 312.5,-599.5 183.5,-599.5"/>
<polygon fill="#666666" stroke="#666666" points="183.5,-569.5 183.5,-569.5 215.5,-569.5 215.5,-569.5 183.5,-569.5"/>
<polygon fill="#666666" stroke="#666666" points="215.5,-569.5 215.5,-569.5 312.5,-569.5 312.5,-569.5 215.5,-569.5"/>
<polygon fill="none" stroke="#666666" points="183,-298 183,-617 312,-617 312,-298 183,-298"/>
</a>
</g>
</g>
<!-- Node4&#45;&gt;Node1 -->
<g id="edge3_Node000001_Node000004" class="edge">
<title>Node4&#45;&gt;Node1</title>
<g id="a_edge3_Node000001_Node000004"><a xlink:title=" ">
<path fill="none" stroke="#63b8ff" d="M204.36,-287.83C202.15,-279.2 199.95,-270.59 197.78,-262.11"/>
<polygon fill="none" stroke="#63b8ff" points="200.98,-288.76 206.85,-297.58 207.76,-287.02 200.98,-288.76"/>
</a>
</g>
</g>
</g>
</svg>
