<?xml version="1.0" encoding="UTF-8" standalone="no"?>
<!DOCTYPE svg PUBLIC "-//W3C//DTD SVG 1.1//EN"
 "http://www.w3.org/Graphics/SVG/1.1/DTD/svg11.dtd">
<!-- Generated by graphviz version 2.43.0 (0)
 -->
<!-- Title: Arcane::ArcaneArcaneBasicMeshSubdividerServiceObject::options Pages: 1 -->
<svg width="860pt" height="134pt"
 viewBox="0.00 0.00 860.00 134.00" xmlns="http://www.w3.org/2000/svg" xmlns:xlink="http://www.w3.org/1999/xlink">
<g id="graph0" class="graph" transform="scale(1 1) rotate(0) translate(4 130)">
<title>Arcane::ArcaneArcaneBasicMeshSubdividerServiceObject::options</title>
<!-- Node1 -->
<g id="Node000001" class="node">
<title>Node1</title>
<g id="a_Node000001"><a xlink:title="Options du jeu de données du service.">
<polygon fill="#999999" stroke="#666666" points="852,-58.5 690,-58.5 690,-17.5 852,-17.5 852,-58.5"/>
<text text-anchor="start" x="698" y="-46.5" font-family="Helvetica,sans-Serif" font-size="10.00">Arcane::ArcaneArcaneBasic</text>
<text text-anchor="start" x="698" y="-35.5" font-family="Helvetica,sans-Serif" font-size="10.00">MeshSubdividerServiceObject</text>
<text text-anchor="middle" x="771" y="-24.5" font-family="Helvetica,sans-Serif" font-size="10.00">::options</text>
</a>
</g>
</g>
<!-- Node2 -->
<g id="Node000002" class="node">
<title>Node2</title>
<g id="a_Node000002"><a xlink:href="../../dd/d88/classArcane_1_1ArcaneBasicMeshSubdividerService.html#ac59745427a4b2e196fd4b2b1a5af2ed1" target="_top" xlink:title="Raffine une fois le maillage avec les motifs présent dans le pattern_manager.">
<polygon fill="white" stroke="#666666" points="654,-76 460,-76 460,-46 654,-46 654,-76"/>
<text text-anchor="start" x="468" y="-64" font-family="Helvetica,sans-Serif" font-size="10.00">Arcane::ArcaneBasicMeshSubdivider</text>
<text text-anchor="middle" x="557" y="-53" font-family="Helvetica,sans-Serif" font-size="10.00">Service::_refineOnce</text>
</a>
</g>
</g>
<!-- Node1&#45;&gt;Node2 -->
<g id="edge1_Node000001_Node000002" class="edge">
<title>Node1&#45;&gt;Node2</title>
<g id="a_edge1_Node000001_Node000002"><a xlink:title=" ">
<path fill="none" stroke="#63b8ff" d="M679.69,-47.8C671.29,-48.71 662.76,-49.63 654.31,-50.55"/>
<polygon fill="#63b8ff" stroke="#63b8ff" points="680.29,-51.25 689.85,-46.7 679.53,-44.29 680.29,-51.25"/>
</a>
</g>
</g>
<!-- Node6 -->
<g id="Node000006" class="node">
<title>Node6</title>
<g id="a_Node000006"><a xlink:href="../../dd/d88/classArcane_1_1ArcaneBasicMeshSubdividerService.html#a67b99301f0613f498b149aa76961d6fd" target="_top" xlink:title="Raffine le maillage un nombre nb&#45;subdivision.">
<polygon fill="white" stroke="#666666" points="424,-30 230,-30 230,0 424,0 424,-30"/>
<text text-anchor="start" x="238" y="-18" font-family="Helvetica,sans-Serif" font-size="10.00">Arcane::ArcaneBasicMeshSubdivider</text>
<text text-anchor="middle" x="327" y="-7" font-family="Helvetica,sans-Serif" font-size="10.00">Service::subdivideMesh</text>
</a>
</g>
</g>
<!-- Node1&#45;&gt;Node6 -->
<g id="edge7_Node000001_Node000006" class="edge">
<title>Node1&#45;&gt;Node6</title>
<g id="a_edge7_Node000001_Node000006"><a xlink:title=" ">
<path fill="none" stroke="#63b8ff" d="M679.68,-33.3C605.38,-29.43 500.31,-23.97 424.39,-20.02"/>
<polygon fill="#63b8ff" stroke="#63b8ff" points="679.79,-36.81 689.96,-33.83 680.15,-29.82 679.79,-36.81"/>
</a>
</g>
</g>
<!-- Node3 -->
<g id="Node000003" class="node">
<title>Node3</title>
<g id="a_Node000003"><a xlink:href="../../dd/d88/classArcane_1_1ArcaneBasicMeshSubdividerService.html#a5d858e9d9294f3a933c49764d679c128" target="_top" xlink:title="Methode pour obtenir les fichier vtk pour les différent pattern disponibles en 2D.">
<polygon fill="white" stroke="#666666" points="424,-126 230,-126 230,-96 424,-96 424,-126"/>
<text text-anchor="start" x="238" y="-114" font-family="Helvetica,sans-Serif" font-size="10.00">Arcane::ArcaneBasicMeshSubdivider</text>
<text text-anchor="middle" x="327" y="-103" font-family="Helvetica,sans-Serif" font-size="10.00">Service::_generatePattern2D</text>
</a>
</g>
</g>
<!-- Node2&#45;&gt;Node3 -->
<g id="edge2_Node000002_Node000003" class="edge">
<title>Node2&#45;&gt;Node3</title>
<g id="a_edge2_Node000002_Node000003"><a xlink:title=" ">
<path fill="none" stroke="#63b8ff" d="M477.67,-78.18C451.37,-83.95 422.26,-90.33 396.75,-95.92"/>
<polygon fill="#63b8ff" stroke="#63b8ff" points="478.57,-81.56 487.59,-76 477.07,-74.73 478.57,-81.56"/>
</a>
</g>
</g>
<!-- Node5 -->
<g id="Node000005" class="node">
<title>Node5</title>
<g id="a_Node000005"><a xlink:href="../../dd/d88/classArcane_1_1ArcaneBasicMeshSubdividerService.html#a61df19e5d48b05b03fa04e459a26d766" target="_top" xlink:title="Methode pour obtenir les fichier vtk pour les différent pattern disponibles en 3D.">
<polygon fill="white" stroke="#666666" points="424,-78 230,-78 230,-48 424,-48 424,-78"/>
<text text-anchor="start" x="238" y="-66" font-family="Helvetica,sans-Serif" font-size="10.00">Arcane::ArcaneBasicMeshSubdivider</text>
<text text-anchor="middle" x="327" y="-55" font-family="Helvetica,sans-Serif" font-size="10.00">Service::_generatePattern3D</text>
</a>
</g>
</g>
<!-- Node2&#45;&gt;Node5 -->
<g id="edge4_Node000002_Node000005" class="edge">
<title>Node2&#45;&gt;Node5</title>
<g id="a_edge4_Node000002_Node000005"><a xlink:title=" ">
<path fill="none" stroke="#63b8ff" d="M449.96,-61.93C441.4,-62.01 432.77,-62.08 424.29,-62.16"/>
<polygon fill="#63b8ff" stroke="#63b8ff" points="450,-65.43 459.97,-61.84 449.94,-58.43 450,-65.43"/>
</a>
</g>
</g>
<!-- Node2&#45;&gt;Node6 -->
<g id="edge6_Node000002_Node000006" class="edge">
<title>Node2&#45;&gt;Node6</title>
<g id="a_edge6_Node000002_Node000006"><a xlink:title=" ">
<path fill="none" stroke="#63b8ff" d="M471.42,-43.93C448.78,-39.37 424.48,-34.47 402.43,-30.02"/>
<polygon fill="#63b8ff" stroke="#63b8ff" points="470.85,-47.39 481.34,-45.94 472.23,-40.53 470.85,-47.39"/>
</a>
</g>
</g>
<!-- Node4 -->
<g id="Node000004" class="node">
<title>Node4</title>
<g id="a_Node000004"><a xlink:href="../../dd/d88/classArcane_1_1ArcaneBasicMeshSubdividerService.html#ac088bd17e898955e0b09474bcd75be71" target="_top" xlink:title="Méthode pour générer les motifs sur un seul élément de base.">
<polygon fill="white" stroke="#666666" points="194,-102 0,-102 0,-72 194,-72 194,-102"/>
<text text-anchor="start" x="8" y="-90" font-family="Helvetica,sans-Serif" font-size="10.00">Arcane::ArcaneBasicMeshSubdivider</text>
<text text-anchor="middle" x="97" y="-79" font-family="Helvetica,sans-Serif" font-size="10.00">Service::_generatePattern</text>
</a>
</g>
</g>
<!-- Node3&#45;&gt;Node4 -->
<g id="edge3_Node000003_Node000004" class="edge">
<title>Node3&#45;&gt;Node4</title>
<g id="a_edge3_Node000003_Node000004"><a xlink:title=" ">
<path fill="none" stroke="#63b8ff" d="M219.96,-99.84C211.4,-98.94 202.77,-98.03 194.29,-97.14"/>
<polygon fill="#63b8ff" stroke="#63b8ff" points="219.66,-103.33 229.97,-100.89 220.39,-96.36 219.66,-103.33"/>
</a>
</g>
</g>
<!-- Node5&#45;&gt;Node4 -->
<g id="edge5_Node000005_Node000004" class="edge">
<title>Node5&#45;&gt;Node4</title>
<g id="a_edge5_Node000005_Node000004"><a xlink:title=" ">
<path fill="none" stroke="#63b8ff" d="M219.96,-74.16C211.4,-75.06 202.77,-75.97 194.29,-76.86"/>
<polygon fill="#63b8ff" stroke="#63b8ff" points="220.39,-77.64 229.97,-73.11 219.66,-70.67 220.39,-77.64"/>
</a>
</g>
</g>
</g>
</svg>
