<?xml version="1.0" encoding="UTF-8" standalone="no"?>
<!DOCTYPE svg PUBLIC "-//W3C//DTD SVG 1.1//EN"
 "http://www.w3.org/Graphics/SVG/1.1/DTD/svg11.dtd">
<!-- Generated by graphviz version 14.1.2 (0)
 -->
<!-- Title: Arcane::CartesianMeshNumberingMngInternal::cellUniqueIdToCoordY Pages: 1 -->
<!--zoomable 214 -->

<svg id="main" version="1.1" xmlns="http://www.w3.org/2000/svg" xmlns:xlink="http://www.w3.org/1999/xlink" xml:space="preserve" onload="init(evt)">

<style type="text/css"><![CDATA[
.node, .edge {opacity: 0.7;}
.node.selected, .edge.selected {opacity: 1;}
.edge:hover path { stroke: red; }
.edge:hover polygon { stroke: red; fill: red; }
]]></style>

<defs>
  <circle id="rim" cx="0" cy="0" r="7"/>
  <circle id="rim2" cx="0" cy="0" r="3.5"/>
  <g id="zoomPlus">
    <use xlink:href="#rim" fill="#404040"><set attributeName="fill" to="#808080" begin="zoomplus.mouseover" end="zoomplus.mouseout"/></use>
    <path d="M-4,0h8M0,-4v8" fill="none" stroke="white" stroke-width="1.5" pointer-events="none"/>
  </g>
  <g id="zoomMin">
    <use xlink:href="#rim" fill="#404040"><set attributeName="fill" to="#808080" begin="zoomminus.mouseover" end="zoomminus.mouseout"/></use>
    <path d="M-4,0h8" fill="none" stroke="white" stroke-width="1.5" pointer-events="none"/>
  </g>
  <g id="arrowUp" transform="translate(30 24)">
    <use xlink:href="#rim"/>
    <path pointer-events="none" fill="none" stroke="white" stroke-width="1.5" d="M0,-3.0v7 M-2.5,-0.5L0,-3.0L2.5,-0.5"/>
  </g>
  <g id="arrowRight" transform="rotate(90) translate(36 -43)">
    <use xlink:href="#rim"/>
    <path pointer-events="none" fill="none" stroke="white" stroke-width="1.5" d="M0,-3.0v7 M-2.5,-0.5L0,-3.0L2.5,-0.5"/>
  </g>
  <g id="arrowDown" transform="rotate(180) translate(-30 -48)">
    <use xlink:href="#rim"/>
    <path pointer-events="none" fill="none" stroke="white" stroke-width="1.5" d="M0,-3.0v7 M-2.5,-0.5L0,-3.0L2.5,-0.5"/>
  </g>
  <g id="arrowLeft" transform="rotate(270) translate(-36 17)">
    <use xlink:href="#rim"/>
    <path pointer-events="none" fill="none" stroke="white" stroke-width="1.5" d="M0,-3.0v7 M-2.5,-0.5L0,-3.0L2.5,-0.5"/>
  </g>
  <g id="resetDef">
    <use xlink:href="#rim2" fill="#404040"><set attributeName="fill" to="#808080" begin="reset.mouseover" end="reset.mouseout"/></use>
  </g>
</defs>
<script type="application/ecmascript">
var viewWidth = 635;
var viewHeight = 214;
var sectionId = 'dynsection-34';
</script>
<script type="application/ecmascript" xlink:href="../../svg.min.js"/>
<svg id="graph" class="graph">
<g id="viewport">
<title>Arcane::CartesianMeshNumberingMngInternal::cellUniqueIdToCoordY</title>
<!-- Node1 -->
<g id="Node000001" class="node">
<title>Node1</title>
<g id="a_Node000001"><a xlink:title="Méthode permettant de récupérer la coordonnée en Y d&#39;une maille.">
<polygon fill="#999999" stroke="#666666" points="186.25,-66.12 0,-66.12 0,-32.62 186.25,-32.62 186.25,-66.12"/>
<text xml:space="preserve" text-anchor="start" x="8" y="-52.62" font-family="Helvetica,sans-Serif" font-size="10.00">Arcane::CartesianMeshNumbering</text>
<text xml:space="preserve" text-anchor="middle" x="93.12" y="-39.88" font-family="Helvetica,sans-Serif" font-size="10.00">MngInternal::cellUniqueIdToCoordY</text>
</a>
</g>
</g>
<!-- Node2 -->
<g id="Node000002" class="node">
<title>Node2</title>
<g id="a_Node000002"><a xlink:href="../../d4/d31/classArcane_1_1CartesianMeshNumberingMngInternal.html#afabe34edb2e3edae6f21ac2f3b17db42" target="_top" xlink:title="Méthode permettant de récupérer la coordonnée en Y d&#39;une maille grâce à son uniqueId.">
<polygon fill="white" stroke="#666666" points="408.5,-146.12 222.25,-146.12 222.25,-112.62 408.5,-112.62 408.5,-146.12"/>
<text xml:space="preserve" text-anchor="start" x="230.25" y="-132.62" font-family="Helvetica,sans-Serif" font-size="10.00">Arcane::CartesianMeshNumbering</text>
<text xml:space="preserve" text-anchor="middle" x="315.38" y="-119.88" font-family="Helvetica,sans-Serif" font-size="10.00">MngInternal::cellUniqueIdToCoordY</text>
</a>
</g>
</g>
<!-- Node1&#45;&gt;Node2 -->
<g id="edge1_Node000001_Node000002" class="edge">
<title>Node1&#45;&gt;Node2</title>
<g id="a_edge1_Node000001_Node000002"><a xlink:title=" ">
<path fill="none" stroke="#63b8ff" d="M141.37,-66.54C175.05,-78.77 220.53,-95.29 256.4,-108.32"/>
<polygon fill="#63b8ff" stroke="#63b8ff" points="255.19,-111.6 265.78,-111.72 257.58,-105.02 255.19,-111.6"/>
</a>
</g>
</g>
<!-- Node6 -->
<g id="Node000006" class="node">
<title>Node6</title>
<g id="a_Node000006"><a xlink:href="../../d9/db2/classArcane_1_1Cell.html#ab44f39a1be502703b0cfda2833842c70" target="_top" xlink:title=" ">
<polygon fill="white" stroke="#666666" points="367.62,-59.75 263.12,-59.75 263.12,-39 367.62,-39 367.62,-59.75"/>
<text xml:space="preserve" text-anchor="middle" x="315.38" y="-46.25" font-family="Helvetica,sans-Serif" font-size="10.00">Arcane::Cell::level</text>
</a>
</g>
</g>
<!-- Node1&#45;&gt;Node6 -->
<g id="edge5_Node000001_Node000006" class="edge">
<title>Node1&#45;&gt;Node6</title>
<g id="a_edge5_Node000001_Node000006"><a xlink:title=" ">
<path fill="none" stroke="#63b8ff" d="M186.57,-49.38C208.42,-49.38 231.23,-49.38 251.42,-49.38"/>
<polygon fill="#63b8ff" stroke="#63b8ff" points="251.15,-52.88 261.15,-49.38 251.15,-45.88 251.15,-52.88"/>
</a>
</g>
</g>
<!-- Node8 -->
<g id="Node000008" class="node">
<title>Node8</title>
<g id="a_Node000008"><a xlink:href="../../df/d5f/classArcane_1_1Item.html#a8e5cf3572ae8a043fae3e32fe400551b" target="_top" xlink:title="Identifiant unique sur tous les domaines.">
<polygon fill="white" stroke="#666666" points="378.5,-20.75 252.25,-20.75 252.25,0 378.5,0 378.5,-20.75"/>
<text xml:space="preserve" text-anchor="middle" x="315.38" y="-7.25" font-family="Helvetica,sans-Serif" font-size="10.00">Arcane::Item::uniqueId</text>
</a>
</g>
</g>
<!-- Node1&#45;&gt;Node8 -->
<g id="edge8_Node000001_Node000008" class="edge">
<title>Node1&#45;&gt;Node8</title>
<g id="a_edge8_Node000001_Node000008"><a xlink:title=" ">
<path fill="none" stroke="#63b8ff" d="M186.57,-33.01C205.11,-29.72 224.32,-26.32 242.05,-23.18"/>
<polygon fill="#63b8ff" stroke="#63b8ff" points="242.45,-26.67 251.68,-21.48 241.23,-19.77 242.45,-26.67"/>
</a>
</g>
</g>
<!-- Node3 -->
<g id="Node000003" class="node">
<title>Node3</title>
<g id="a_Node000003"><a xlink:href="../../d4/d31/classArcane_1_1CartesianMeshNumberingMngInternal.html#a85632e9a57ba28e56a5dbef5e7d2602a" target="_top" xlink:title="Méthode permettant de récupérer le premier unique id utilisé par les mailles d&#39;un niveau....">
<polygon fill="white" stroke="#666666" points="627,-206.12 444.5,-206.12 444.5,-172.62 627,-172.62 627,-206.12"/>
<text xml:space="preserve" text-anchor="start" x="452.5" y="-192.62" font-family="Helvetica,sans-Serif" font-size="10.00">Arcane::CartesianMeshNumbering</text>
<text xml:space="preserve" text-anchor="middle" x="535.75" y="-179.88" font-family="Helvetica,sans-Serif" font-size="10.00">MngInternal::firstCellUniqueId</text>
</a>
</g>
</g>
<!-- Node2&#45;&gt;Node3 -->
<g id="edge2_Node000002_Node000003" class="edge">
<title>Node2&#45;&gt;Node3</title>
<g id="a_edge2_Node000002_Node000003"><a xlink:title=" ">
<path fill="none" stroke="#63b8ff" d="M378.95,-146.57C404.65,-153.63 434.59,-161.86 461.32,-169.2"/>
<polygon fill="#63b8ff" stroke="#63b8ff" points="460.13,-172.5 470.7,-171.78 461.99,-165.75 460.13,-172.5"/>
</a>
</g>
</g>
<!-- Node4 -->
<g id="Node000004" class="node">
<title>Node4</title>
<g id="a_Node000004"><a xlink:href="../../d4/d31/classArcane_1_1CartesianMeshNumberingMngInternal.html#acd05528a67a638b22aadd5539cfe17e3" target="_top" xlink:title="Méthode permettant de récupérer le nombre de mailles global en X d&#39;un niveau.">
<polygon fill="white" stroke="#666666" points="627,-154.12 444.5,-154.12 444.5,-120.62 627,-120.62 627,-154.12"/>
<text xml:space="preserve" text-anchor="start" x="452.5" y="-140.62" font-family="Helvetica,sans-Serif" font-size="10.00">Arcane::CartesianMeshNumbering</text>
<text xml:space="preserve" text-anchor="middle" x="535.75" y="-127.88" font-family="Helvetica,sans-Serif" font-size="10.00">MngInternal::globalNbCellsX</text>
</a>
</g>
</g>
<!-- Node2&#45;&gt;Node4 -->
<g id="edge3_Node000002_Node000004" class="edge">
<title>Node2&#45;&gt;Node4</title>
<g id="a_edge3_Node000002_Node000004"><a xlink:title=" ">
<path fill="none" stroke="#63b8ff" d="M408.99,-132.77C416.8,-133.05 424.72,-133.34 432.6,-133.63"/>
<polygon fill="#63b8ff" stroke="#63b8ff" points="432.45,-137.13 442.57,-134 432.71,-130.13 432.45,-137.13"/>
</a>
</g>
</g>
<!-- Node5 -->
<g id="Node000005" class="node">
<title>Node5</title>
<g id="a_Node000005"><a xlink:href="../../d4/d31/classArcane_1_1CartesianMeshNumberingMngInternal.html#adf02694aeb9ef5dc9cfef280d3201b21" target="_top" xlink:title="Méthode permettant de récupérer le nombre de mailles global en Y d&#39;un niveau.">
<polygon fill="white" stroke="#666666" points="627,-102.12 444.5,-102.12 444.5,-68.62 627,-68.62 627,-102.12"/>
<text xml:space="preserve" text-anchor="start" x="452.5" y="-88.62" font-family="Helvetica,sans-Serif" font-size="10.00">Arcane::CartesianMeshNumbering</text>
<text xml:space="preserve" text-anchor="middle" x="535.75" y="-75.88" font-family="Helvetica,sans-Serif" font-size="10.00">MngInternal::globalNbCellsY</text>
</a>
</g>
</g>
<!-- Node2&#45;&gt;Node5 -->
<g id="edge4_Node000002_Node000005" class="edge">
<title>Node2&#45;&gt;Node5</title>
<g id="a_edge4_Node000002_Node000005"><a xlink:title=" ">
<path fill="none" stroke="#63b8ff" d="M401.74,-112.17C413.74,-109.76 426.14,-107.26 438.33,-104.8"/>
<polygon fill="#63b8ff" stroke="#63b8ff" points="438.85,-108.27 447.96,-102.86 437.46,-101.41 438.85,-108.27"/>
</a>
</g>
</g>
<!-- Node6&#45;&gt;Node6 -->
<g id="edge7_Node000006_Node000006" class="edge">
<title>Node6&#45;&gt;Node6</title>
<g id="a_edge7_Node000006_Node000006"><a xlink:title=" ">
<path fill="none" stroke="#63b8ff" d="M279.87,-60.15C265.66,-68.81 277.5,-77.75 315.38,-77.75 336.68,-77.75 349.75,-74.92 354.57,-70.9"/>
<polygon fill="#63b8ff" stroke="#63b8ff" points="357.93,-69.9 351.38,-61.58 351.31,-72.17 357.93,-69.9"/>
</a>
</g>
</g>
<!-- Node7 -->
<g id="Node000007" class="node">
<title>Node7</title>
<g id="a_Node000007"><a xlink:href="../../df/d5f/classArcane_1_1Item.html#a195637276ad84f071e6f095e6449d1ee" target="_top" xlink:title="Nombre de parent pour l&#39;AMR.">
<polygon fill="white" stroke="#666666" points="605.62,-50.75 465.88,-50.75 465.88,-30 605.62,-30 605.62,-50.75"/>
<text xml:space="preserve" text-anchor="middle" x="535.75" y="-37.25" font-family="Helvetica,sans-Serif" font-size="10.00">Arcane::Item::_nbHParent</text>
</a>
</g>
</g>
<!-- Node6&#45;&gt;Node7 -->
<g id="edge6_Node000006_Node000007" class="edge">
<title>Node6&#45;&gt;Node7</title>
<g id="a_edge6_Node000006_Node000007"><a xlink:title=" ">
<path fill="none" stroke="#63b8ff" d="M367.85,-47.25C393.57,-46.19 425.27,-44.89 454.12,-43.7"/>
<polygon fill="#63b8ff" stroke="#63b8ff" points="454.08,-47.2 463.92,-43.29 453.79,-40.21 454.08,-47.2"/>
</a>
</g>
</g>
</g>
</svg>

<g id="navigator" transform="translate(0 0)" fill="#404254">
  <rect fill="#f2f5e9" fill-opacity="0.5" stroke="#606060" stroke-width=".5" x="0" y="0" width="60" height="60"/>
  <use id="zoomplus" xlink:href="#zoomPlus" x="17" y="9" onmousedown="handleZoom(evt,'in')"/>
  <use id="zoomminus" xlink:href="#zoomMin" x="42" y="9" onmousedown="handleZoom(evt,'out')"/>
  <use id="reset" xlink:href="#resetDef" x="30" y="36" onmousedown="handleReset()"/>
   <use id="arrowup" xlink:href="#arrowUp" x="0" y="0" onmousedown="handlePan(0,-1)"/>
  <use id="arrowright" xlink:href="#arrowRight" x="0" y="0" onmousedown="handlePan(1,0)"/>
  <use id="arrowdown" xlink:href="#arrowDown" x="0" y="0" onmousedown="handlePan(0,1)"/>
  <use id="arrowleft" xlink:href="#arrowLeft" x="0" y="0" onmousedown="handlePan(-1,0)"/>
</g>
<svg viewBox="0 0 15 15" width="100%" height="30px" preserveAspectRatio="xMaxYMin meet">
 <g id="arrow_out" transform="scale(0.3 0.3)">
  <a xlink:href="classArcane_1_1CartesianMeshNumberingMngInternal_ab6baf6597de95dba058f6e97311affeb_cgraph_org.svg" target="_base">
   <rect id="button" ry="5" rx="5" y="6" x="6" height="38" width="38"
        fill="#f2f5e9" fill-opacity="0.5" stroke="#606060" stroke-width="1.0"/>
   <path id="arrow"
     d="M 11.500037,31.436501 C 11.940474,20.09759 22.043105,11.32322 32.158766,21.979434 L 37.068811,17.246167 C 37.068811,17.246167 37.088388,32 37.088388,32 L 22.160133,31.978069 C 22.160133,31.978069 26.997745,27.140456 26.997745,27.140456 C 18.528582,18.264221 13.291696,25.230495 11.500037,31.436501 z"
     style="fill:#404040;"/>
  </a>
 </g>
</svg>

<style type='text/css'>
<![CDATA[
[data-mouse-over-selected='false'] { opacity: 0.7; }
[data-mouse-over-selected='true']  { opacity: 1.0; }
]]>
</style>
<script type="application/ecmascript"><![CDATA[
document.addEventListener('DOMContentLoaded', (event) => {
  highlightEdges();
  highlightAdjacentNodes();
});
]]></script>
</svg>
