<?xml version="1.0" encoding="UTF-8" standalone="no"?>
<!DOCTYPE svg PUBLIC "-//W3C//DTD SVG 1.1//EN"
 "http://www.w3.org/Graphics/SVG/1.1/DTD/svg11.dtd">
<!-- Generated by graphviz version 2.43.0 (0)
 -->
<!-- Title: Arcane::CartesianMeshNumberingMngInternal::firstFaceUniqueId Pages: 1 -->
<svg width="912pt" height="479pt"
 viewBox="0.00 0.00 912.00 479.00" xmlns="http://www.w3.org/2000/svg" xmlns:xlink="http://www.w3.org/1999/xlink">
<g id="graph0" class="graph" transform="scale(1 1) rotate(0) translate(4 475)">
<title>Arcane::CartesianMeshNumberingMngInternal::firstFaceUniqueId</title>
<!-- Node1 -->
<g id="Node000001" class="node">
<title>Node1</title>
<g id="a_Node000001"><a xlink:title="Méthode permettant de récupérer le premier unique id utilisé par les faces d&#39;un niveau....">
<polygon fill="#999999" stroke="#666666" points="904,-222 721,-222 721,-192 904,-192 904,-222"/>
<text text-anchor="start" x="729" y="-210" font-family="Helvetica,sans-Serif" font-size="10.00">Arcane::CartesianMeshNumbering</text>
<text text-anchor="middle" x="812.5" y="-199" font-family="Helvetica,sans-Serif" font-size="10.00">MngInternal::firstFaceUniqueId</text>
</a>
</g>
</g>
<!-- Node2 -->
<g id="Node000002" class="node">
<title>Node2</title>
<g id="a_Node000002"><a xlink:href="../../d4/d31/classArcane_1_1CartesianMeshNumberingMngInternal.html#ae0818c2e3081179f30467d2127d12e20" target="_top" xlink:title="Méthode permettant de récupérer les uniqueIds des faces d&#39;une maille à partir de ses coordonnées.">
<polygon fill="white" stroke="#666666" points="681,-417 498,-417 498,-387 681,-387 681,-417"/>
<text text-anchor="start" x="506" y="-405" font-family="Helvetica,sans-Serif" font-size="10.00">Arcane::CartesianMeshNumbering</text>
<text text-anchor="middle" x="589.5" y="-394" font-family="Helvetica,sans-Serif" font-size="10.00">MngInternal::cellFaceUniqueIds</text>
</a>
</g>
</g>
<!-- Node1&#45;&gt;Node2 -->
<g id="edge1_Node000001_Node000002" class="edge">
<title>Node1&#45;&gt;Node2</title>
<g id="a_edge1_Node000001_Node000002"><a xlink:title=" ">
<path fill="none" stroke="#63b8ff" d="M800.37,-231.23C781.9,-268.67 741.29,-340.21 685,-378 679.94,-381.4 674.44,-384.31 668.71,-386.82"/>
<polygon fill="#63b8ff" stroke="#63b8ff" points="803.61,-232.59 804.79,-222.06 797.3,-229.55 803.61,-232.59"/>
</a>
</g>
</g>
<!-- Node3 -->
<g id="Node000003" class="node">
<title>Node3</title>
<g id="a_Node000003"><a xlink:href="../../d4/d31/classArcane_1_1CartesianMeshNumberingMngInternal.html#a2c46d5f9fba6342ca1ed3726d6382b60" target="_top" xlink:title="Méthode permettant de récupérer les uniqueIds des faces d&#39;une maille à partir de ses coordonnées.">
<polygon fill="white" stroke="#666666" points="681,-369 498,-369 498,-339 681,-339 681,-369"/>
<text text-anchor="start" x="506" y="-357" font-family="Helvetica,sans-Serif" font-size="10.00">Arcane::CartesianMeshNumbering</text>
<text text-anchor="middle" x="589.5" y="-346" font-family="Helvetica,sans-Serif" font-size="10.00">MngInternal::cellFaceUniqueIds</text>
</a>
</g>
</g>
<!-- Node1&#45;&gt;Node3 -->
<g id="edge2_Node000001_Node000003" class="edge">
<title>Node1&#45;&gt;Node3</title>
<g id="a_edge2_Node000001_Node000003"><a xlink:title=" ">
<path fill="none" stroke="#63b8ff" d="M793.18,-230.15C770.55,-257.22 729.55,-301.57 685,-327 676.7,-331.74 667.51,-335.69 658.22,-338.98"/>
<polygon fill="#63b8ff" stroke="#63b8ff" points="795.95,-232.29 799.6,-222.34 790.55,-227.84 795.95,-232.29"/>
</a>
</g>
</g>
<!-- Node7 -->
<g id="Node000007" class="node">
<title>Node7</title>
<g id="a_Node000007"><a xlink:href="../../d4/d31/classArcane_1_1CartesianMeshNumberingMngInternal.html#a66047ecb3cd2d492dc5bed5b23ea9380" target="_top" xlink:title="Méthode permettant de récupérer le niveau d&#39;une face avec son uid.">
<polygon fill="white" stroke="#666666" points="681,-126 498,-126 498,-96 681,-96 681,-126"/>
<text text-anchor="start" x="506" y="-114" font-family="Helvetica,sans-Serif" font-size="10.00">Arcane::CartesianMeshNumbering</text>
<text text-anchor="middle" x="589.5" y="-103" font-family="Helvetica,sans-Serif" font-size="10.00">MngInternal::faceLevel</text>
</a>
</g>
</g>
<!-- Node1&#45;&gt;Node7 -->
<g id="edge6_Node000001_Node000007" class="edge">
<title>Node1&#45;&gt;Node7</title>
<g id="a_edge6_Node000001_Node000007"><a xlink:title=" ">
<path fill="none" stroke="#63b8ff" d="M780.49,-186.2C755.58,-170.29 719.23,-148.8 685,-135 676.68,-131.65 667.75,-128.65 658.83,-126.01"/>
<polygon fill="#63b8ff" stroke="#63b8ff" points="778.83,-189.29 789.12,-191.79 782.63,-183.42 778.83,-189.29"/>
</a>
</g>
</g>
<!-- Node13 -->
<g id="Node000013" class="node">
<title>Node13</title>
<g id="a_Node000013"><a xlink:href="../../d4/d31/classArcane_1_1CartesianMeshNumberingMngInternal.html#ad7553cf623fedfe0250082ce64fd481b" target="_top" xlink:title="Méthode permettant de récupérer l&#39;uniqueId d&#39;une face à partir de sa position et de son niveau.">
<polygon fill="white" stroke="#666666" points="681,-78 498,-78 498,-48 681,-48 681,-78"/>
<text text-anchor="start" x="506" y="-66" font-family="Helvetica,sans-Serif" font-size="10.00">Arcane::CartesianMeshNumbering</text>
<text text-anchor="middle" x="589.5" y="-55" font-family="Helvetica,sans-Serif" font-size="10.00">MngInternal::faceUniqueId</text>
</a>
</g>
</g>
<!-- Node1&#45;&gt;Node13 -->
<g id="edge12_Node000001_Node000013" class="edge">
<title>Node1&#45;&gt;Node13</title>
<g id="a_edge12_Node000001_Node000013"><a xlink:title=" ">
<path fill="none" stroke="#63b8ff" d="M793.67,-184.06C771.24,-156.81 730.16,-111.9 685,-87 678.77,-83.57 672.05,-80.62 665.15,-78.08"/>
<polygon fill="#63b8ff" stroke="#63b8ff" points="791.01,-186.34 800.01,-191.91 796.45,-181.94 791.01,-186.34"/>
</a>
</g>
</g>
<!-- Node14 -->
<g id="Node000014" class="node">
<title>Node14</title>
<g id="a_Node000014"><a xlink:href="../../d4/d31/classArcane_1_1CartesianMeshNumberingMngInternal.html#ae901ce65dd97e3f8559bea2f84acaa34" target="_top" xlink:title="Méthode permettant de récupérer l&#39;uniqueId d&#39;une face à partir de sa position et de son niveau.">
<polygon fill="white" stroke="#666666" points="681,-318 498,-318 498,-288 681,-288 681,-318"/>
<text text-anchor="start" x="506" y="-306" font-family="Helvetica,sans-Serif" font-size="10.00">Arcane::CartesianMeshNumbering</text>
<text text-anchor="middle" x="589.5" y="-295" font-family="Helvetica,sans-Serif" font-size="10.00">MngInternal::faceUniqueId</text>
</a>
</g>
</g>
<!-- Node1&#45;&gt;Node14 -->
<g id="edge13_Node000001_Node000014" class="edge">
<title>Node1&#45;&gt;Node14</title>
<g id="a_edge13_Node000001_Node000014"><a xlink:title=" ">
<path fill="none" stroke="#63b8ff" d="M780.49,-227.8C755.58,-243.71 719.23,-265.2 685,-279 676.68,-282.35 667.75,-285.35 658.83,-287.99"/>
<polygon fill="#63b8ff" stroke="#63b8ff" points="782.63,-230.58 789.12,-222.21 778.83,-224.71 782.63,-230.58"/>
</a>
</g>
</g>
<!-- Node17 -->
<g id="Node000017" class="node">
<title>Node17</title>
<g id="a_Node000017"><a xlink:href="../../d4/d31/classArcane_1_1CartesianMeshNumberingMngInternal.html#a27b40c20d601b4237e70396bc11c68df" target="_top" xlink:title="Méthode permettant de récupérer la coordonnée en X d&#39;une face grâce à son uniqueId.">
<polygon fill="white" stroke="#666666" points="685,-270 494,-270 494,-240 685,-240 685,-270"/>
<text text-anchor="start" x="502" y="-258" font-family="Helvetica,sans-Serif" font-size="10.00">Arcane::CartesianMeshNumbering</text>
<text text-anchor="middle" x="589.5" y="-247" font-family="Helvetica,sans-Serif" font-size="10.00">MngInternal::faceUniqueIdToCoordX</text>
</a>
</g>
</g>
<!-- Node1&#45;&gt;Node17 -->
<g id="edge18_Node000001_Node000017" class="edge">
<title>Node1&#45;&gt;Node17</title>
<g id="a_edge18_Node000001_Node000017"><a xlink:title=" ">
<path fill="none" stroke="#63b8ff" d="M732.15,-224.23C708.42,-229.39 682.59,-235 659.57,-240"/>
<polygon fill="#63b8ff" stroke="#63b8ff" points="733.15,-227.6 742.18,-222.06 731.67,-220.76 733.15,-227.6"/>
</a>
</g>
</g>
<!-- Node18 -->
<g id="Node000018" class="node">
<title>Node18</title>
<g id="a_Node000018"><a xlink:href="../../d4/d31/classArcane_1_1CartesianMeshNumberingMngInternal.html#ac6ed4d35a7ad308e35700dcf2320bdda" target="_top" xlink:title="Méthode permettant de récupérer la coordonnée en Y d&#39;une face grâce à son uniqueId.">
<polygon fill="white" stroke="#666666" points="685,-222 494,-222 494,-192 685,-192 685,-222"/>
<text text-anchor="start" x="502" y="-210" font-family="Helvetica,sans-Serif" font-size="10.00">Arcane::CartesianMeshNumbering</text>
<text text-anchor="middle" x="589.5" y="-199" font-family="Helvetica,sans-Serif" font-size="10.00">MngInternal::faceUniqueIdToCoordY</text>
</a>
</g>
</g>
<!-- Node1&#45;&gt;Node18 -->
<g id="edge22_Node000001_Node000018" class="edge">
<title>Node1&#45;&gt;Node18</title>
<g id="a_edge22_Node000001_Node000018"><a xlink:title=" ">
<path fill="none" stroke="#63b8ff" d="M710.95,-207C702.38,-207 693.72,-207 685.19,-207"/>
<polygon fill="#63b8ff" stroke="#63b8ff" points="710.97,-210.5 720.97,-207 710.97,-203.5 710.97,-210.5"/>
</a>
</g>
</g>
<!-- Node19 -->
<g id="Node000019" class="node">
<title>Node19</title>
<g id="a_Node000019"><a xlink:href="../../d4/d31/classArcane_1_1CartesianMeshNumberingMngInternal.html#ac4bb84e3c2fb9a15d7f9b3025fa34a5f" target="_top" xlink:title="Méthode permettant de récupérer la coordonnée en Z d&#39;une face grâce à son uniqueId.">
<polygon fill="white" stroke="#666666" points="685,-174 494,-174 494,-144 685,-144 685,-174"/>
<text text-anchor="start" x="502" y="-162" font-family="Helvetica,sans-Serif" font-size="10.00">Arcane::CartesianMeshNumbering</text>
<text text-anchor="middle" x="589.5" y="-151" font-family="Helvetica,sans-Serif" font-size="10.00">MngInternal::faceUniqueIdToCoordZ</text>
</a>
</g>
</g>
<!-- Node1&#45;&gt;Node19 -->
<g id="edge26_Node000001_Node000019" class="edge">
<title>Node1&#45;&gt;Node19</title>
<g id="a_edge26_Node000001_Node000019"><a xlink:title=" ">
<path fill="none" stroke="#63b8ff" d="M732.15,-189.77C708.42,-184.61 682.59,-179 659.57,-174"/>
<polygon fill="#63b8ff" stroke="#63b8ff" points="731.67,-193.24 742.18,-191.94 733.15,-186.4 731.67,-193.24"/>
</a>
</g>
</g>
<!-- Node20 -->
<g id="Node000020" class="node">
<title>Node20</title>
<g id="a_Node000020"><a xlink:href="../../d4/d31/classArcane_1_1CartesianMeshNumberingMngInternal.html#a1ec8a46345aa6118563521e5488ba836" target="_top" xlink:title="Méthode permettant de décrire l&#39;état de l&#39;objet.">
<polygon fill="white" stroke="#666666" points="681,-30 498,-30 498,0 681,0 681,-30"/>
<text text-anchor="start" x="506" y="-18" font-family="Helvetica,sans-Serif" font-size="10.00">Arcane::CartesianMeshNumbering</text>
<text text-anchor="middle" x="589.5" y="-7" font-family="Helvetica,sans-Serif" font-size="10.00">MngInternal::printStatus</text>
</a>
</g>
</g>
<!-- Node1&#45;&gt;Node20 -->
<g id="edge30_Node000001_Node000020" class="edge">
<title>Node1&#45;&gt;Node20</title>
<g id="a_edge30_Node000001_Node000020"><a xlink:title=" ">
<path fill="none" stroke="#63b8ff" d="M800.12,-182.92C781.43,-146.06 740.67,-76.04 685,-39 679.79,-35.53 674.1,-32.56 668.2,-30.02"/>
<polygon fill="#63b8ff" stroke="#63b8ff" points="797.02,-184.55 804.6,-191.96 803.29,-181.44 797.02,-184.55"/>
</a>
</g>
</g>
<!-- Node4 -->
<g id="Node000004" class="node">
<title>Node4</title>
<g id="a_Node000004"><a xlink:href="../../d4/d31/classArcane_1_1CartesianMeshNumberingMngInternal.html#a71455e99f10b2ee7967c927fa5d8e4af" target="_top" xlink:title="Méthode permettant de récupérer les uniqueIds des faces d&#39;une maille.">
<polygon fill="white" stroke="#666666" points="444,-471 261,-471 261,-441 444,-441 444,-471"/>
<text text-anchor="start" x="269" y="-459" font-family="Helvetica,sans-Serif" font-size="10.00">Arcane::CartesianMeshNumbering</text>
<text text-anchor="middle" x="352.5" y="-448" font-family="Helvetica,sans-Serif" font-size="10.00">MngInternal::cellFaceUniqueIds</text>
</a>
</g>
</g>
<!-- Node3&#45;&gt;Node4 -->
<g id="edge3_Node000003_Node000004" class="edge">
<title>Node3&#45;&gt;Node4</title>
<g id="a_edge3_Node000003_Node000004"><a xlink:title=" ">
<path fill="none" stroke="#63b8ff" d="M500.58,-373.78C498.32,-375.1 496.12,-376.5 494,-378 470.45,-394.66 481.74,-415.61 458,-432 453.02,-435.44 447.62,-438.39 441.99,-440.92"/>
<polygon fill="#63b8ff" stroke="#63b8ff" points="502.34,-376.82 509.63,-369.13 499.14,-370.59 502.34,-376.82"/>
</a>
</g>
</g>
<!-- Node5 -->
<g id="Node000005" class="node">
<title>Node5</title>
<g id="a_Node000005"><a xlink:href="../../d4/d31/classArcane_1_1CartesianMeshNumberingMngInternal.html#a3457ed4ad2b611fe5c0c751468a0f6e0" target="_top" xlink:title="Méthode permettant de récupérer les uniqueIds des faces d&#39;une maille à partir de son uniqueId.">
<polygon fill="white" stroke="#666666" points="444,-423 261,-423 261,-393 444,-393 444,-423"/>
<text text-anchor="start" x="269" y="-411" font-family="Helvetica,sans-Serif" font-size="10.00">Arcane::CartesianMeshNumbering</text>
<text text-anchor="middle" x="352.5" y="-400" font-family="Helvetica,sans-Serif" font-size="10.00">MngInternal::cellFaceUniqueIds</text>
</a>
</g>
</g>
<!-- Node3&#45;&gt;Node5 -->
<g id="edge4_Node000003_Node000005" class="edge">
<title>Node3&#45;&gt;Node5</title>
<g id="a_edge4_Node000003_Node000005"><a xlink:title=" ">
<path fill="none" stroke="#63b8ff" d="M513.21,-371.31C495.12,-375.47 475.87,-379.89 458,-384 445.39,-386.9 431.93,-389.99 419,-392.96"/>
<polygon fill="#63b8ff" stroke="#63b8ff" points="514.15,-374.69 523.12,-369.03 512.59,-367.86 514.15,-374.69"/>
</a>
</g>
</g>
<!-- Node6 -->
<g id="Node000006" class="node">
<title>Node6</title>
<g id="a_Node000006"><a xlink:href="../../d4/d31/classArcane_1_1CartesianMeshNumberingMngInternal.html#a90a6f259f099414b739a1be4f5a5a8f7" target="_top" xlink:title="Méthode permettant de renuméroter les faces du niveau 0.">
<polygon fill="white" stroke="#666666" points="454,-374.5 251,-374.5 251,-333.5 454,-333.5 454,-374.5"/>
<text text-anchor="start" x="259" y="-362.5" font-family="Helvetica,sans-Serif" font-size="10.00">Arcane::CartesianMeshNumbering</text>
<text text-anchor="start" x="259" y="-351.5" font-family="Helvetica,sans-Serif" font-size="10.00">MngInternal::renumberingFacesLevel0</text>
<text text-anchor="middle" x="352.5" y="-340.5" font-family="Helvetica,sans-Serif" font-size="10.00">FromOriginalArcaneNumbering</text>
</a>
</g>
</g>
<!-- Node3&#45;&gt;Node6 -->
<g id="edge5_Node000003_Node000006" class="edge">
<title>Node3&#45;&gt;Node6</title>
<g id="a_edge5_Node000003_Node000006"><a xlink:title=" ">
<path fill="none" stroke="#63b8ff" d="M487.81,-354C476.65,-354 465.29,-354 454.14,-354"/>
<polygon fill="#63b8ff" stroke="#63b8ff" points="487.98,-357.5 497.98,-354 487.98,-350.5 487.98,-357.5"/>
</a>
</g>
</g>
<!-- Node8 -->
<g id="Node000008" class="node">
<title>Node8</title>
<g id="a_Node000008"><a xlink:href="../../d4/d31/classArcane_1_1CartesianMeshNumberingMngInternal.html#a951f79b3499c6c9ca94794fa0f37c5f0" target="_top" xlink:title="Méthode permettant de récupérer l&#39;uniqueId d&#39;une face enfant d&#39;une face parent à partir de l&#39;index de...">
<polygon fill="white" stroke="#666666" points="207,-258 4,-258 4,-228 207,-228 207,-258"/>
<text text-anchor="start" x="12" y="-246" font-family="Helvetica,sans-Serif" font-size="10.00">Arcane::CartesianMeshNumbering</text>
<text text-anchor="middle" x="105.5" y="-235" font-family="Helvetica,sans-Serif" font-size="10.00">MngInternal::childFaceUniqueIdOfFace</text>
</a>
</g>
</g>
<!-- Node7&#45;&gt;Node8 -->
<g id="edge7_Node000007_Node000008" class="edge">
<title>Node7&#45;&gt;Node8</title>
<g id="a_edge7_Node000007_Node000008"><a xlink:title=" ">
<path fill="none" stroke="#63b8ff" d="M518.77,-93.84C499.23,-89.78 477.89,-86.04 458,-84 364.71,-74.45 325.87,-33.27 247,-84 214.55,-104.87 235.04,-132.82 211,-163 189.22,-190.35 156.15,-213.58 133.06,-227.85"/>
<polygon fill="#63b8ff" stroke="#63b8ff" points="518.29,-97.31 528.8,-95.98 519.76,-90.47 518.29,-97.31"/>
</a>
</g>
</g>
<!-- Node9 -->
<g id="Node000009" class="node">
<title>Node9</title>
<g id="a_Node000009"><a xlink:href="../../d4/d31/classArcane_1_1CartesianMeshNumberingMngInternal.html#a50f00e9c521b389375704ec9c06fdd69" target="_top" xlink:title="Méthode permettant de récupérer la coordonnée en X d&#39;une face.">
<polygon fill="white" stroke="#666666" points="448,-219 257,-219 257,-189 448,-189 448,-219"/>
<text text-anchor="start" x="265" y="-207" font-family="Helvetica,sans-Serif" font-size="10.00">Arcane::CartesianMeshNumbering</text>
<text text-anchor="middle" x="352.5" y="-196" font-family="Helvetica,sans-Serif" font-size="10.00">MngInternal::faceUniqueIdToCoordX</text>
</a>
</g>
</g>
<!-- Node7&#45;&gt;Node9 -->
<g id="edge8_Node000007_Node000009" class="edge">
<title>Node7&#45;&gt;Node9</title>
<g id="a_edge8_Node000007_Node000009"><a xlink:title=" ">
<path fill="none" stroke="#63b8ff" d="M501.68,-130.54C499.04,-131.93 496.47,-133.41 494,-135 472.47,-148.87 479.69,-166.38 458,-180 452.48,-183.47 446.52,-186.43 440.34,-188.97"/>
<polygon fill="#63b8ff" stroke="#63b8ff" points="503.35,-133.62 510.91,-126.19 500.37,-127.28 503.35,-133.62"/>
</a>
</g>
</g>
<!-- Node10 -->
<g id="Node000010" class="node">
<title>Node10</title>
<g id="a_Node000010"><a xlink:href="../../d4/d31/classArcane_1_1CartesianMeshNumberingMngInternal.html#ab91e06797cc8ddabd5993c0979637ea6" target="_top" xlink:title="Méthode permettant de récupérer la coordonnée en Y d&#39;une face.">
<polygon fill="white" stroke="#666666" points="448,-171 257,-171 257,-141 448,-141 448,-171"/>
<text text-anchor="start" x="265" y="-159" font-family="Helvetica,sans-Serif" font-size="10.00">Arcane::CartesianMeshNumbering</text>
<text text-anchor="middle" x="352.5" y="-148" font-family="Helvetica,sans-Serif" font-size="10.00">MngInternal::faceUniqueIdToCoordY</text>
</a>
</g>
</g>
<!-- Node7&#45;&gt;Node10 -->
<g id="edge9_Node000007_Node000010" class="edge">
<title>Node7&#45;&gt;Node10</title>
<g id="a_edge9_Node000007_Node000010"><a xlink:title=" ">
<path fill="none" stroke="#63b8ff" d="M500.1,-127.93C477.73,-132.21 453.85,-136.78 432,-140.97"/>
<polygon fill="#63b8ff" stroke="#63b8ff" points="500.76,-131.37 509.92,-126.05 499.44,-124.49 500.76,-131.37"/>
</a>
</g>
</g>
<!-- Node11 -->
<g id="Node000011" class="node">
<title>Node11</title>
<g id="a_Node000011"><a xlink:href="../../d4/d31/classArcane_1_1CartesianMeshNumberingMngInternal.html#aa3414051fecbb948948ee0fbd4d33063" target="_top" xlink:title="Méthode permettant de récupérer la coordonnée en Z d&#39;une face.">
<polygon fill="white" stroke="#666666" points="448,-123 257,-123 257,-93 448,-93 448,-123"/>
<text text-anchor="start" x="265" y="-111" font-family="Helvetica,sans-Serif" font-size="10.00">Arcane::CartesianMeshNumbering</text>
<text text-anchor="middle" x="352.5" y="-100" font-family="Helvetica,sans-Serif" font-size="10.00">MngInternal::faceUniqueIdToCoordZ</text>
</a>
</g>
</g>
<!-- Node7&#45;&gt;Node11 -->
<g id="edge10_Node000007_Node000011" class="edge">
<title>Node7&#45;&gt;Node11</title>
<g id="a_edge10_Node000007_Node000011"><a xlink:title=" ">
<path fill="none" stroke="#63b8ff" d="M487.97,-109.72C474.8,-109.55 461.33,-109.38 448.26,-109.21"/>
<polygon fill="#63b8ff" stroke="#63b8ff" points="487.94,-113.22 497.98,-109.84 488.02,-106.22 487.94,-113.22"/>
</a>
</g>
</g>
<!-- Node12 -->
<g id="Node000012" class="node">
<title>Node12</title>
<g id="a_Node000012"><a xlink:href="../../d4/d31/classArcane_1_1CartesianMeshNumberingMngInternal.html#a420d91805d24b4d74fd30ce548fe91a3" target="_top" xlink:title="Méthode permettant de récupérer l&#39;uniqueId du parent d&#39;une face.">
<polygon fill="white" stroke="#666666" points="211,-154 0,-154 0,-124 211,-124 211,-154"/>
<text text-anchor="start" x="8" y="-142" font-family="Helvetica,sans-Serif" font-size="10.00">Arcane::CartesianMeshNumbering</text>
<text text-anchor="middle" x="105.5" y="-131" font-family="Helvetica,sans-Serif" font-size="10.00">MngInternal::parentFaceUniqueIdOfFace</text>
</a>
</g>
</g>
<!-- Node7&#45;&gt;Node12 -->
<g id="edge11_Node000007_Node000012" class="edge">
<title>Node7&#45;&gt;Node12</title>
<g id="a_edge11_Node000007_Node000012"><a xlink:title=" ">
<path fill="none" stroke="#63b8ff" d="M503.98,-92.07C500.55,-90.51 497.2,-88.82 494,-87 474.33,-75.81 478.91,-59.66 458,-51 371.36,-15.11 337.13,-25.1 247,-51 197.48,-65.23 148.52,-102.58 123.55,-123.77"/>
<polygon fill="#63b8ff" stroke="#63b8ff" points="502.68,-95.32 513.26,-95.91 505.36,-88.85 502.68,-95.32"/>
</a>
</g>
</g>
<!-- Node15 -->
<g id="Node000015" class="node">
<title>Node15</title>
<g id="a_Node000015"><a xlink:href="../../d4/d31/classArcane_1_1CartesianMeshNumberingMngInternal.html#a35605c4ca092b5ded7acb7df3d429045" target="_top" xlink:title="Méthode permettant de récupérer l&#39;uniqueId d&#39;une face enfant d&#39;une face parent à partir de l&#39;index de...">
<polygon fill="white" stroke="#666666" points="454,-315 251,-315 251,-285 454,-285 454,-315"/>
<text text-anchor="start" x="259" y="-303" font-family="Helvetica,sans-Serif" font-size="10.00">Arcane::CartesianMeshNumbering</text>
<text text-anchor="middle" x="352.5" y="-292" font-family="Helvetica,sans-Serif" font-size="10.00">MngInternal::childFaceUniqueIdOfFace</text>
</a>
</g>
</g>
<!-- Node14&#45;&gt;Node15 -->
<g id="edge14_Node000014_Node000015" class="edge">
<title>Node14&#45;&gt;Node15</title>
<g id="a_edge14_Node000014_Node000015"><a xlink:title=" ">
<path fill="none" stroke="#63b8ff" d="M487.81,-301.71C476.65,-301.57 465.29,-301.43 454.14,-301.28"/>
<polygon fill="#63b8ff" stroke="#63b8ff" points="487.94,-305.22 497.98,-301.84 488.02,-298.22 487.94,-305.22"/>
</a>
</g>
</g>
<!-- Node16 -->
<g id="Node000016" class="node">
<title>Node16</title>
<g id="a_Node000016"><a xlink:href="../../d4/d31/classArcane_1_1CartesianMeshNumberingMngInternal.html#a4756093bdb96fa91bf889c0b4af42e17" target="_top" xlink:title="Méthode permettant de récupérer l&#39;uniqueId du parent d&#39;une face.">
<polygon fill="white" stroke="#666666" points="458,-267 247,-267 247,-237 458,-237 458,-267"/>
<text text-anchor="start" x="255" y="-255" font-family="Helvetica,sans-Serif" font-size="10.00">Arcane::CartesianMeshNumbering</text>
<text text-anchor="middle" x="352.5" y="-244" font-family="Helvetica,sans-Serif" font-size="10.00">MngInternal::parentFaceUniqueIdOfFace</text>
</a>
</g>
</g>
<!-- Node14&#45;&gt;Node16 -->
<g id="edge16_Node000014_Node000016" class="edge">
<title>Node14&#45;&gt;Node16</title>
<g id="a_edge16_Node000014_Node000016"><a xlink:title=" ">
<path fill="none" stroke="#63b8ff" d="M509.46,-285.85C481.33,-279.74 449.89,-272.92 422.65,-267.01"/>
<polygon fill="#63b8ff" stroke="#63b8ff" points="508.75,-289.27 519.26,-287.97 510.23,-282.43 508.75,-289.27"/>
</a>
</g>
</g>
<!-- Node15&#45;&gt;Node8 -->
<g id="edge15_Node000015_Node000008" class="edge">
<title>Node15&#45;&gt;Node8</title>
<g id="a_edge15_Node000015_Node000008"><a xlink:title=" ">
<path fill="none" stroke="#63b8ff" d="M275.7,-282.64C266.04,-280.41 256.29,-278.16 247,-276 221.86,-270.16 194.21,-263.68 170.13,-258.02"/>
<polygon fill="#63b8ff" stroke="#63b8ff" points="275.18,-286.11 285.71,-284.94 276.75,-279.29 275.18,-286.11"/>
</a>
</g>
</g>
<!-- Node16&#45;&gt;Node12 -->
<g id="edge17_Node000016_Node000012" class="edge">
<title>Node16&#45;&gt;Node12</title>
<g id="a_edge17_Node000016_Node000012"><a xlink:title=" ">
<path fill="none" stroke="#63b8ff" d="M262.85,-233.88C257.42,-232.08 252.1,-230.13 247,-228 200.36,-208.55 151.83,-174.1 125.79,-154.25"/>
<polygon fill="#63b8ff" stroke="#63b8ff" points="262.11,-237.32 272.7,-236.95 264.19,-230.63 262.11,-237.32"/>
</a>
</g>
</g>
<!-- Node17&#45;&gt;Node9 -->
<g id="edge20_Node000017_Node000009" class="edge">
<title>Node17&#45;&gt;Node9</title>
<g id="a_edge20_Node000017_Node000009"><a xlink:title=" ">
<path fill="none" stroke="#63b8ff" d="M509.46,-237.85C481.33,-231.74 449.89,-224.92 422.65,-219.01"/>
<polygon fill="#63b8ff" stroke="#63b8ff" points="508.75,-241.27 519.26,-239.97 510.23,-234.43 508.75,-241.27"/>
</a>
</g>
</g>
<!-- Node17&#45;&gt;Node15 -->
<g id="edge19_Node000017_Node000015" class="edge">
<title>Node17&#45;&gt;Node15</title>
<g id="a_edge19_Node000017_Node000015"><a xlink:title=" ">
<path fill="none" stroke="#63b8ff" d="M500.1,-271.93C477.73,-276.21 453.85,-280.78 432,-284.97"/>
<polygon fill="#63b8ff" stroke="#63b8ff" points="500.76,-275.37 509.92,-270.05 499.44,-268.49 500.76,-275.37"/>
</a>
</g>
</g>
<!-- Node17&#45;&gt;Node16 -->
<g id="edge21_Node000017_Node000016" class="edge">
<title>Node17&#45;&gt;Node16</title>
<g id="a_edge21_Node000017_Node000016"><a xlink:title=" ">
<path fill="none" stroke="#63b8ff" d="M483.69,-253.66C475.25,-253.55 466.71,-253.45 458.27,-253.34"/>
<polygon fill="#63b8ff" stroke="#63b8ff" points="483.89,-257.16 493.93,-253.79 483.98,-250.17 483.89,-257.16"/>
</a>
</g>
</g>
<!-- Node18&#45;&gt;Node10 -->
<g id="edge24_Node000018_Node000010" class="edge">
<title>Node18&#45;&gt;Node10</title>
<g id="a_edge24_Node000018_Node000010"><a xlink:title=" ">
<path fill="none" stroke="#63b8ff" d="M509.46,-189.85C481.33,-183.74 449.89,-176.92 422.65,-171.01"/>
<polygon fill="#63b8ff" stroke="#63b8ff" points="508.75,-193.27 519.26,-191.97 510.23,-186.43 508.75,-193.27"/>
</a>
</g>
</g>
<!-- Node18&#45;&gt;Node15 -->
<g id="edge23_Node000018_Node000015" class="edge">
<title>Node18&#45;&gt;Node15</title>
<g id="a_edge23_Node000018_Node000015"><a xlink:title=" ">
<path fill="none" stroke="#63b8ff" d="M501.68,-226.54C499.04,-227.93 496.47,-229.41 494,-231 472.47,-244.87 479.69,-262.38 458,-276 452.48,-279.47 446.52,-282.43 440.34,-284.97"/>
<polygon fill="#63b8ff" stroke="#63b8ff" points="503.35,-229.62 510.91,-222.19 500.37,-223.28 503.35,-229.62"/>
</a>
</g>
</g>
<!-- Node18&#45;&gt;Node16 -->
<g id="edge25_Node000018_Node000016" class="edge">
<title>Node18&#45;&gt;Node16</title>
<g id="a_edge25_Node000018_Node000016"><a xlink:title=" ">
<path fill="none" stroke="#63b8ff" d="M500.1,-223.93C477.73,-228.21 453.85,-232.78 432,-236.97"/>
<polygon fill="#63b8ff" stroke="#63b8ff" points="500.76,-227.37 509.92,-222.05 499.44,-220.49 500.76,-227.37"/>
</a>
</g>
</g>
<!-- Node19&#45;&gt;Node11 -->
<g id="edge28_Node000019_Node000011" class="edge">
<title>Node19&#45;&gt;Node11</title>
<g id="a_edge28_Node000019_Node000011"><a xlink:title=" ">
<path fill="none" stroke="#63b8ff" d="M509.46,-141.85C481.33,-135.74 449.89,-128.92 422.65,-123.01"/>
<polygon fill="#63b8ff" stroke="#63b8ff" points="508.75,-145.27 519.26,-143.97 510.23,-138.43 508.75,-145.27"/>
</a>
</g>
</g>
<!-- Node19&#45;&gt;Node15 -->
<g id="edge27_Node000019_Node000015" class="edge">
<title>Node19&#45;&gt;Node15</title>
<g id="a_edge27_Node000019_Node000015"><a xlink:title=" ">
<path fill="none" stroke="#63b8ff" d="M498.06,-179.69C496.66,-180.74 495.31,-181.84 494,-183 460.83,-212.39 491.51,-246.99 458,-276 454.06,-279.41 449.73,-282.36 445.15,-284.92"/>
<polygon fill="#63b8ff" stroke="#63b8ff" points="500,-182.6 506.48,-174.21 496.18,-176.73 500,-182.6"/>
</a>
</g>
</g>
<!-- Node19&#45;&gt;Node16 -->
<g id="edge29_Node000019_Node000016" class="edge">
<title>Node19&#45;&gt;Node16</title>
<g id="a_edge29_Node000019_Node000016"><a xlink:title=" ">
<path fill="none" stroke="#63b8ff" d="M501.68,-178.54C499.04,-179.93 496.47,-181.41 494,-183 472.47,-196.87 479.69,-214.38 458,-228 452.48,-231.47 446.52,-234.43 440.34,-236.97"/>
<polygon fill="#63b8ff" stroke="#63b8ff" points="503.35,-181.62 510.91,-174.19 500.37,-175.28 503.35,-181.62"/>
</a>
</g>
</g>
</g>
</svg>
