<?xml version="1.0" encoding="UTF-8" standalone="no"?>
<!DOCTYPE svg PUBLIC "-//W3C//DTD SVG 1.1//EN"
 "http://www.w3.org/Graphics/SVG/1.1/DTD/svg11.dtd">
<!-- Generated by graphviz version 2.43.0 (0)
 -->
<!-- Title: Arcane::CartesianMeshNumberingMngInternal::nbFaceInLevel Pages: 1 -->
<!--zoomable 230 -->

<svg id="main" version="1.1" xmlns="http://www.w3.org/2000/svg" xmlns:xlink="http://www.w3.org/1999/xlink" xml:space="preserve" onload="init(evt)">

<style type="text/css"><![CDATA[
.node, .edge {opacity: 0.7;}
.node.selected, .edge.selected {opacity: 1;}
.edge:hover path { stroke: red; }
.edge:hover polygon { stroke: red; fill: red; }
]]></style>

<defs>
  <circle id="rim" cx="0" cy="0" r="7"/>
  <circle id="rim2" cx="0" cy="0" r="3.5"/>
  <g id="zoomPlus">
    <use xlink:href="#rim" fill="#404040"><set attributeName="fill" to="#808080" begin="zoomplus.mouseover" end="zoomplus.mouseout"/></use>
    <path d="M-4,0h8M0,-4v8" fill="none" stroke="white" stroke-width="1.5" pointer-events="none"/>
  </g>
  <g id="zoomMin">
    <use xlink:href="#rim" fill="#404040"><set attributeName="fill" to="#808080" begin="zoomminus.mouseover" end="zoomminus.mouseout"/></use>
    <path d="M-4,0h8" fill="none" stroke="white" stroke-width="1.5" pointer-events="none"/>
  </g>
  <g id="arrowUp" transform="translate(30 24)">
    <use xlink:href="#rim"/>
    <path pointer-events="none" fill="none" stroke="white" stroke-width="1.5" d="M0,-3.0v7 M-2.5,-0.5L0,-3.0L2.5,-0.5"/>
  </g>
  <g id="arrowRight" transform="rotate(90) translate(36 -43)">
    <use xlink:href="#rim"/>
    <path pointer-events="none" fill="none" stroke="white" stroke-width="1.5" d="M0,-3.0v7 M-2.5,-0.5L0,-3.0L2.5,-0.5"/>
  </g>
  <g id="arrowDown" transform="rotate(180) translate(-30 -48)">
    <use xlink:href="#rim"/>
    <path pointer-events="none" fill="none" stroke="white" stroke-width="1.5" d="M0,-3.0v7 M-2.5,-0.5L0,-3.0L2.5,-0.5"/>
  </g>
  <g id="arrowLeft" transform="rotate(270) translate(-36 17)">
    <use xlink:href="#rim"/>
    <path pointer-events="none" fill="none" stroke="white" stroke-width="1.5" d="M0,-3.0v7 M-2.5,-0.5L0,-3.0L2.5,-0.5"/>
  </g>
  <g id="resetDef">
    <use xlink:href="#rim2" fill="#404040"><set attributeName="fill" to="#808080" begin="reset.mouseover" end="reset.mouseout"/></use>
  </g>
</defs>
<script type="application/ecmascript">
var viewWidth = 657;
var viewHeight = 230;
var sectionId = 'dynsection-95';
</script>
<script type="application/ecmascript" xlink:href="../../svg.min.js"/>
<svg id="graph" class="graph">
<g id="viewport">
<title>Arcane::CartesianMeshNumberingMngInternal::nbFaceInLevel</title>
<!-- Node1 -->
<g id="Node000001" class="node">
<title>Node1</title>
<g id="a_Node000001"><a xlink:title="Méthode permettant de récupérer le nombre de faces total dans un niveau.">
<polygon fill="#999999" stroke="#666666" points="649,-78 466,-78 466,-48 649,-48 649,-78"/>
<text text-anchor="start" x="474" y="-66" font-family="Helvetica,sans-Serif" font-size="10.00">Arcane::CartesianMeshNumbering</text>
<text text-anchor="middle" x="557.5" y="-55" font-family="Helvetica,sans-Serif" font-size="10.00">MngInternal::nbFaceInLevel</text>
</a>
</g>
</g>
<!-- Node2 -->
<g id="Node000002" class="node">
<title>Node2</title>
<g id="a_Node000002"><a xlink:href="../../d4/d31/classArcane_1_1CartesianMeshNumberingMngInternal.html#a66047ecb3cd2d492dc5bed5b23ea9380" target="_top" xlink:title="Méthode permettant de récupérer le niveau d&#39;une face avec son uid.">
<polygon fill="white" stroke="#666666" points="430,-126 247,-126 247,-96 430,-96 430,-126"/>
<text text-anchor="start" x="255" y="-114" font-family="Helvetica,sans-Serif" font-size="10.00">Arcane::CartesianMeshNumbering</text>
<text text-anchor="middle" x="338.5" y="-103" font-family="Helvetica,sans-Serif" font-size="10.00">MngInternal::faceLevel</text>
</a>
</g>
</g>
<!-- Node1&#45;&gt;Node2 -->
<g id="edge1_Node000001_Node000002" class="edge">
<title>Node1&#45;&gt;Node2</title>
<g id="a_edge1_Node000001_Node000002"><a xlink:title=" ">
<path fill="none" stroke="#63b8ff" d="M478.59,-80.23C455.28,-85.39 429.93,-91 407.32,-96"/>
<polygon fill="#63b8ff" stroke="#63b8ff" points="479.43,-83.63 488.44,-78.06 477.92,-76.8 479.43,-83.63"/>
</a>
</g>
</g>
<!-- Node8 -->
<g id="Node000008" class="node">
<title>Node8</title>
<g id="a_Node000008"><a xlink:href="../../d4/d31/classArcane_1_1CartesianMeshNumberingMngInternal.html#a4d8edc005ae90f281534d138be5ca732" target="_top" xlink:title="Méthode permettant de préparer un nouveau niveau.">
<polygon fill="white" stroke="#666666" points="430,-78 247,-78 247,-48 430,-48 430,-78"/>
<text text-anchor="start" x="255" y="-66" font-family="Helvetica,sans-Serif" font-size="10.00">Arcane::CartesianMeshNumbering</text>
<text text-anchor="middle" x="338.5" y="-55" font-family="Helvetica,sans-Serif" font-size="10.00">MngInternal::prepareLevel</text>
</a>
</g>
</g>
<!-- Node1&#45;&gt;Node8 -->
<g id="edge7_Node000001_Node000008" class="edge">
<title>Node1&#45;&gt;Node8</title>
<g id="a_edge7_Node000001_Node000008"><a xlink:title=" ">
<path fill="none" stroke="#63b8ff" d="M455.5,-63C447.08,-63 438.59,-63 430.26,-63"/>
<polygon fill="#63b8ff" stroke="#63b8ff" points="455.73,-66.5 465.73,-63 455.73,-59.5 455.73,-66.5"/>
</a>
</g>
</g>
<!-- Node9 -->
<g id="Node000009" class="node">
<title>Node9</title>
<g id="a_Node000009"><a xlink:href="../../d4/d31/classArcane_1_1CartesianMeshNumberingMngInternal.html#a1ec8a46345aa6118563521e5488ba836" target="_top" xlink:title="Méthode permettant de décrire l&#39;état de l&#39;objet.">
<polygon fill="white" stroke="#666666" points="430,-30 247,-30 247,0 430,0 430,-30"/>
<text text-anchor="start" x="255" y="-18" font-family="Helvetica,sans-Serif" font-size="10.00">Arcane::CartesianMeshNumbering</text>
<text text-anchor="middle" x="338.5" y="-7" font-family="Helvetica,sans-Serif" font-size="10.00">MngInternal::printStatus</text>
</a>
</g>
</g>
<!-- Node1&#45;&gt;Node9 -->
<g id="edge8_Node000001_Node000009" class="edge">
<title>Node1&#45;&gt;Node9</title>
<g id="a_edge8_Node000001_Node000009"><a xlink:title=" ">
<path fill="none" stroke="#63b8ff" d="M478.59,-45.77C455.28,-40.61 429.93,-35 407.32,-30"/>
<polygon fill="#63b8ff" stroke="#63b8ff" points="477.92,-49.2 488.44,-47.94 479.43,-42.37 477.92,-49.2"/>
</a>
</g>
</g>
<!-- Node3 -->
<g id="Node000003" class="node">
<title>Node3</title>
<g id="a_Node000003"><a xlink:href="../../d4/d31/classArcane_1_1CartesianMeshNumberingMngInternal.html#a951f79b3499c6c9ca94794fa0f37c5f0" target="_top" xlink:title="Méthode permettant de récupérer l&#39;uniqueId d&#39;une face enfant d&#39;une face parent à partir de l&#39;index de...">
<polygon fill="white" stroke="#666666" points="207,-222 4,-222 4,-192 207,-192 207,-222"/>
<text text-anchor="start" x="12" y="-210" font-family="Helvetica,sans-Serif" font-size="10.00">Arcane::CartesianMeshNumbering</text>
<text text-anchor="middle" x="105.5" y="-199" font-family="Helvetica,sans-Serif" font-size="10.00">MngInternal::childFaceUniqueIdOfFace</text>
</a>
</g>
</g>
<!-- Node2&#45;&gt;Node3 -->
<g id="edge2_Node000002_Node000003" class="edge">
<title>Node2&#45;&gt;Node3</title>
<g id="a_edge2_Node000002_Node000003"><a xlink:title=" ">
<path fill="none" stroke="#63b8ff" d="M307.03,-131.72C282.16,-147.79 245.6,-169.52 211,-183 202.33,-186.38 193.06,-189.35 183.75,-191.95"/>
<polygon fill="#63b8ff" stroke="#63b8ff" points="309.19,-134.49 315.64,-126.09 305.35,-128.64 309.19,-134.49"/>
</a>
</g>
</g>
<!-- Node4 -->
<g id="Node000004" class="node">
<title>Node4</title>
<g id="a_Node000004"><a xlink:href="../../d4/d31/classArcane_1_1CartesianMeshNumberingMngInternal.html#a50f00e9c521b389375704ec9c06fdd69" target="_top" xlink:title="Méthode permettant de récupérer la coordonnée en X d&#39;une face.">
<polygon fill="white" stroke="#666666" points="201,-174 10,-174 10,-144 201,-144 201,-174"/>
<text text-anchor="start" x="18" y="-162" font-family="Helvetica,sans-Serif" font-size="10.00">Arcane::CartesianMeshNumbering</text>
<text text-anchor="middle" x="105.5" y="-151" font-family="Helvetica,sans-Serif" font-size="10.00">MngInternal::faceUniqueIdToCoordX</text>
</a>
</g>
</g>
<!-- Node2&#45;&gt;Node4 -->
<g id="edge3_Node000002_Node000004" class="edge">
<title>Node2&#45;&gt;Node4</title>
<g id="a_edge3_Node000002_Node000004"><a xlink:title=" ">
<path fill="none" stroke="#63b8ff" d="M255.22,-128.1C230.23,-133.29 202.97,-138.95 178.7,-144"/>
<polygon fill="#63b8ff" stroke="#63b8ff" points="255.97,-131.52 265.04,-126.06 254.54,-124.66 255.97,-131.52"/>
</a>
</g>
</g>
<!-- Node5 -->
<g id="Node000005" class="node">
<title>Node5</title>
<g id="a_Node000005"><a xlink:href="../../d4/d31/classArcane_1_1CartesianMeshNumberingMngInternal.html#ab91e06797cc8ddabd5993c0979637ea6" target="_top" xlink:title="Méthode permettant de récupérer la coordonnée en Y d&#39;une face.">
<polygon fill="white" stroke="#666666" points="201,-126 10,-126 10,-96 201,-96 201,-126"/>
<text text-anchor="start" x="18" y="-114" font-family="Helvetica,sans-Serif" font-size="10.00">Arcane::CartesianMeshNumbering</text>
<text text-anchor="middle" x="105.5" y="-103" font-family="Helvetica,sans-Serif" font-size="10.00">MngInternal::faceUniqueIdToCoordY</text>
</a>
</g>
</g>
<!-- Node2&#45;&gt;Node5 -->
<g id="edge4_Node000002_Node000005" class="edge">
<title>Node2&#45;&gt;Node5</title>
<g id="a_edge4_Node000002_Node000005"><a xlink:title=" ">
<path fill="none" stroke="#63b8ff" d="M236.56,-111C224.77,-111 212.76,-111 201.06,-111"/>
<polygon fill="#63b8ff" stroke="#63b8ff" points="236.87,-114.5 246.87,-111 236.87,-107.5 236.87,-114.5"/>
</a>
</g>
</g>
<!-- Node6 -->
<g id="Node000006" class="node">
<title>Node6</title>
<g id="a_Node000006"><a xlink:href="../../d4/d31/classArcane_1_1CartesianMeshNumberingMngInternal.html#aa3414051fecbb948948ee0fbd4d33063" target="_top" xlink:title="Méthode permettant de récupérer la coordonnée en Z d&#39;une face.">
<polygon fill="white" stroke="#666666" points="201,-78 10,-78 10,-48 201,-48 201,-78"/>
<text text-anchor="start" x="18" y="-66" font-family="Helvetica,sans-Serif" font-size="10.00">Arcane::CartesianMeshNumbering</text>
<text text-anchor="middle" x="105.5" y="-55" font-family="Helvetica,sans-Serif" font-size="10.00">MngInternal::faceUniqueIdToCoordZ</text>
</a>
</g>
</g>
<!-- Node2&#45;&gt;Node6 -->
<g id="edge5_Node000002_Node000006" class="edge">
<title>Node2&#45;&gt;Node6</title>
<g id="a_edge5_Node000002_Node000006"><a xlink:title=" ">
<path fill="none" stroke="#63b8ff" d="M255.22,-93.9C230.23,-88.71 202.97,-83.05 178.7,-78"/>
<polygon fill="#63b8ff" stroke="#63b8ff" points="254.54,-97.34 265.04,-95.94 255.97,-90.48 254.54,-97.34"/>
</a>
</g>
</g>
<!-- Node7 -->
<g id="Node000007" class="node">
<title>Node7</title>
<g id="a_Node000007"><a xlink:href="../../d4/d31/classArcane_1_1CartesianMeshNumberingMngInternal.html#a420d91805d24b4d74fd30ce548fe91a3" target="_top" xlink:title="Méthode permettant de récupérer l&#39;uniqueId du parent d&#39;une face.">
<polygon fill="white" stroke="#666666" points="211,-30 0,-30 0,0 211,0 211,-30"/>
<text text-anchor="start" x="8" y="-18" font-family="Helvetica,sans-Serif" font-size="10.00">Arcane::CartesianMeshNumbering</text>
<text text-anchor="middle" x="105.5" y="-7" font-family="Helvetica,sans-Serif" font-size="10.00">MngInternal::parentFaceUniqueIdOfFace</text>
</a>
</g>
</g>
<!-- Node2&#45;&gt;Node7 -->
<g id="edge6_Node000002_Node000007" class="edge">
<title>Node2&#45;&gt;Node7</title>
<g id="a_edge6_Node000002_Node000007"><a xlink:title=" ">
<path fill="none" stroke="#63b8ff" d="M254.49,-91.54C251.91,-90.13 249.4,-88.62 247,-87 224.89,-72.09 233.36,-53.54 211,-39 205.69,-35.55 199.95,-32.59 193.99,-30.06"/>
<polygon fill="#63b8ff" stroke="#63b8ff" points="253.01,-94.71 263.53,-95.94 256.07,-88.42 253.01,-94.71"/>
</a>
</g>
</g>
</g>
</svg>

<g id="navigator" transform="translate(0 0)" fill="#404254">
  <rect fill="#f2f5e9" fill-opacity="0.5" stroke="#606060" stroke-width=".5" x="0" y="0" width="60" height="60"/>
  <use id="zoomplus" xlink:href="#zoomPlus" x="17" y="9" onmousedown="handleZoom(evt,'in')"/>
  <use id="zoomminus" xlink:href="#zoomMin" x="42" y="9" onmousedown="handleZoom(evt,'out')"/>
  <use id="reset" xlink:href="#resetDef" x="30" y="36" onmousedown="handleReset()"/>
   <use id="arrowup" xlink:href="#arrowUp" x="0" y="0" onmousedown="handlePan(0,-1)"/>
  <use id="arrowright" xlink:href="#arrowRight" x="0" y="0" onmousedown="handlePan(1,0)"/>
  <use id="arrowdown" xlink:href="#arrowDown" x="0" y="0" onmousedown="handlePan(0,1)"/>
  <use id="arrowleft" xlink:href="#arrowLeft" x="0" y="0" onmousedown="handlePan(-1,0)"/>
</g>
<svg viewBox="0 0 15 15" width="100%" height="30px" preserveAspectRatio="xMaxYMin meet">
 <g id="arrow_out" transform="scale(0.3 0.3)">
  <a xlink:href="classArcane_1_1CartesianMeshNumberingMngInternal_a5631724b1ec2defd1bd8d07f7457c3a7_icgraph_org.svg" target="_base">
   <rect id="button" ry="5" rx="5" y="6" x="6" height="38" width="38"
        fill="#f2f5e9" fill-opacity="0.5" stroke="#606060" stroke-width="1.0"/>
   <path id="arrow"
     d="M 11.500037,31.436501 C 11.940474,20.09759 22.043105,11.32322 32.158766,21.979434 L 37.068811,17.246167 C 37.068811,17.246167 37.088388,32 37.088388,32 L 22.160133,31.978069 C 22.160133,31.978069 26.997745,27.140456 26.997745,27.140456 C 18.528582,18.264221 13.291696,25.230495 11.500037,31.436501 z"
     style="fill:#404040;"/>
  </a>
 </g>
</svg>

<style type='text/css'>
<![CDATA[
[data-mouse-over-selected='false'] { opacity: 0.7; }
[data-mouse-over-selected='true']  { opacity: 1.0; }
]]>
</style>
<script type="application/ecmascript"><![CDATA[
document.addEventListener('DOMContentLoaded', (event) => {
  highlightEdges();
  highlightAdjacentNodes();
});
]]></script>
</svg>
