<?xml version="1.0" encoding="UTF-8" standalone="no"?>
<!DOCTYPE svg PUBLIC "-//W3C//DTD SVG 1.1//EN"
 "http://www.w3.org/Graphics/SVG/1.1/DTD/svg11.dtd">
<!-- Generated by graphviz version 2.43.0 (0)
 -->
<!-- Title: Arcane::LevelCellGroupComputeFunctor::executeFunctor Pages: 1 -->
<!--zoomable 338 -->

<svg id="main" version="1.1" xmlns="http://www.w3.org/2000/svg" xmlns:xlink="http://www.w3.org/1999/xlink" xml:space="preserve" onload="init(evt)">

<style type="text/css"><![CDATA[
.node, .edge {opacity: 0.7;}
.node.selected, .edge.selected {opacity: 1;}
.edge:hover path { stroke: red; }
.edge:hover polygon { stroke: red; fill: red; }
]]></style>

<defs>
  <circle id="rim" cx="0" cy="0" r="7"/>
  <circle id="rim2" cx="0" cy="0" r="3.5"/>
  <g id="zoomPlus">
    <use xlink:href="#rim" fill="#404040"><set attributeName="fill" to="#808080" begin="zoomplus.mouseover" end="zoomplus.mouseout"/></use>
    <path d="M-4,0h8M0,-4v8" fill="none" stroke="white" stroke-width="1.5" pointer-events="none"/>
  </g>
  <g id="zoomMin">
    <use xlink:href="#rim" fill="#404040"><set attributeName="fill" to="#808080" begin="zoomminus.mouseover" end="zoomminus.mouseout"/></use>
    <path d="M-4,0h8" fill="none" stroke="white" stroke-width="1.5" pointer-events="none"/>
  </g>
  <g id="arrowUp" transform="translate(30 24)">
    <use xlink:href="#rim"/>
    <path pointer-events="none" fill="none" stroke="white" stroke-width="1.5" d="M0,-3.0v7 M-2.5,-0.5L0,-3.0L2.5,-0.5"/>
  </g>
  <g id="arrowRight" transform="rotate(90) translate(36 -43)">
    <use xlink:href="#rim"/>
    <path pointer-events="none" fill="none" stroke="white" stroke-width="1.5" d="M0,-3.0v7 M-2.5,-0.5L0,-3.0L2.5,-0.5"/>
  </g>
  <g id="arrowDown" transform="rotate(180) translate(-30 -48)">
    <use xlink:href="#rim"/>
    <path pointer-events="none" fill="none" stroke="white" stroke-width="1.5" d="M0,-3.0v7 M-2.5,-0.5L0,-3.0L2.5,-0.5"/>
  </g>
  <g id="arrowLeft" transform="rotate(270) translate(-36 17)">
    <use xlink:href="#rim"/>
    <path pointer-events="none" fill="none" stroke="white" stroke-width="1.5" d="M0,-3.0v7 M-2.5,-0.5L0,-3.0L2.5,-0.5"/>
  </g>
  <g id="resetDef">
    <use xlink:href="#rim2" fill="#404040"><set attributeName="fill" to="#808080" begin="reset.mouseover" end="reset.mouseout"/></use>
  </g>
</defs>
<script type="application/ecmascript">
var viewWidth = 537;
var viewHeight = 338;
var sectionId = 'dynsection-2';
</script>
<script type="application/ecmascript" xlink:href="../../svg.min.js"/>
<svg id="graph" class="graph">
<g id="viewport">
<title>Arcane::LevelCellGroupComputeFunctor::executeFunctor</title>
<!-- Node1 -->
<g id="Node000001" class="node">
<title>Node1</title>
<g id="a_Node000001"><a xlink:title="Exécute la méthode associé">
<polygon fill="#999999" stroke="#666666" points="175,-165.5 0,-165.5 0,-135.5 175,-135.5 175,-165.5"/>
<text text-anchor="start" x="8" y="-153.5" font-family="Helvetica,sans-Serif" font-size="10.00">Arcane::LevelCellGroupCompute</text>
<text text-anchor="middle" x="87.5" y="-142.5" font-family="Helvetica,sans-Serif" font-size="10.00">Functor::executeFunctor</text>
</a>
</g>
</g>
<!-- Node2 -->
<g id="Node000002" class="node">
<title>Node2</title>
<g id="a_Node000002"><a xlink:href="../../d1/dfb/classArcane_1_1Array.html#afb30a771d3fd8022c7220afe7b78e60b" target="_top" xlink:title="Ajoute l&#39;élément val à la fin du tableau.">
<polygon fill="white" stroke="#666666" points="335,-330 229,-330 229,-311 335,-311 335,-330"/>
<text text-anchor="middle" x="282" y="-318" font-family="Helvetica,sans-Serif" font-size="10.00">Arcane::Array::add</text>
</a>
</g>
</g>
<!-- Node1&#45;&gt;Node2 -->
<g id="edge1_Node000001_Node000002" class="edge">
<title>Node1&#45;&gt;Node2</title>
<g id="a_edge1_Node000001_Node000002"><a xlink:title=" ">
<path fill="none" stroke="#63b8ff" d="M96.4,-165.55C113.2,-196.06 155.55,-265.4 211,-301.5 214.14,-303.54 217.49,-305.37 220.97,-307"/>
<polygon fill="#63b8ff" stroke="#63b8ff" points="219.82,-310.31 230.4,-310.88 222.48,-303.84 219.82,-310.31"/>
</a>
</g>
</g>
<!-- Node3 -->
<g id="Node000003" class="node">
<title>Node3</title>
<g id="a_Node000003"><a xlink:href="../../d3/d00/classArcane_1_1ITraceMng.html#aedf2055d636e0b6261dc5862cea1b786" target="_top" xlink:title="Flot pour un message de debug.">
<polygon fill="white" stroke="#666666" points="338,-292.5 226,-292.5 226,-262.5 338,-262.5 338,-292.5"/>
<text text-anchor="start" x="234" y="-280.5" font-family="Helvetica,sans-Serif" font-size="10.00">Arcane::ITraceMng::</text>
<text text-anchor="middle" x="282" y="-269.5" font-family="Helvetica,sans-Serif" font-size="10.00">debug</text>
</a>
</g>
</g>
<!-- Node1&#45;&gt;Node3 -->
<g id="edge2_Node000001_Node000003" class="edge">
<title>Node1&#45;&gt;Node3</title>
<g id="a_edge2_Node000001_Node000003"><a xlink:title=" ">
<path fill="none" stroke="#63b8ff" d="M102.97,-165.83C124.59,-187.96 167.47,-228.88 211,-253.5 214.06,-255.23 217.26,-256.86 220.54,-258.4"/>
<polygon fill="#63b8ff" stroke="#63b8ff" points="219.37,-261.71 229.94,-262.48 222.16,-255.29 219.37,-261.71"/>
</a>
</g>
</g>
<!-- Node4 -->
<g id="Node000004" class="node">
<title>Node4</title>
<g id="a_Node000004"><a xlink:href="../../d3/d00/classArcane_1_1ITraceMng.html#a9e99f88de0e9f0ea3c0f8b7823e5d052" target="_top" xlink:title="Flot pour un message d&#39;erreur fatale.">
<polygon fill="white" stroke="#666666" points="338,-244.5 226,-244.5 226,-214.5 338,-214.5 338,-244.5"/>
<text text-anchor="start" x="234" y="-232.5" font-family="Helvetica,sans-Serif" font-size="10.00">Arcane::ITraceMng::</text>
<text text-anchor="middle" x="282" y="-221.5" font-family="Helvetica,sans-Serif" font-size="10.00">fatal</text>
</a>
</g>
</g>
<!-- Node1&#45;&gt;Node4 -->
<g id="edge3_Node000001_Node000004" class="edge">
<title>Node1&#45;&gt;Node4</title>
<g id="a_edge3_Node000001_Node000004"><a xlink:title=" ">
<path fill="none" stroke="#63b8ff" d="M119.89,-165.55C144.44,-177.09 179.56,-193.08 211,-205.5 215.73,-207.37 220.68,-209.23 225.65,-211.05"/>
<polygon fill="#63b8ff" stroke="#63b8ff" points="224.62,-214.4 235.22,-214.48 226.98,-207.81 224.62,-214.4"/>
</a>
</g>
</g>
<!-- Node5 -->
<g id="Node000005" class="node">
<title>Node5</title>
<g id="a_Node000005"><a xlink:href="../../dd/d0a/classArcane_1_1IItemFamily.html#a9ad039c775d18575532c390f1f1eaab4" target="_top" xlink:title="Genre des entités.">
<polygon fill="white" stroke="#666666" points="339,-196.5 225,-196.5 225,-166.5 339,-166.5 339,-196.5"/>
<text text-anchor="start" x="233" y="-184.5" font-family="Helvetica,sans-Serif" font-size="10.00">Arcane::IItemFamily</text>
<text text-anchor="middle" x="282" y="-173.5" font-family="Helvetica,sans-Serif" font-size="10.00">::itemKind</text>
</a>
</g>
</g>
<!-- Node1&#45;&gt;Node5 -->
<g id="edge4_Node000001_Node000005" class="edge">
<title>Node1&#45;&gt;Node5</title>
<g id="a_edge4_Node000001_Node000005"><a xlink:title=" ">
<path fill="none" stroke="#63b8ff" d="M175.18,-164.46C188.48,-166.6 202.04,-168.78 214.81,-170.84"/>
<polygon fill="#63b8ff" stroke="#63b8ff" points="214.43,-174.32 224.86,-172.46 215.54,-167.41 214.43,-174.32"/>
</a>
</g>
</g>
<!-- Node6 -->
<g id="Node000006" class="node">
<title>Node6</title>
<g id="a_Node000006"><a xlink:href="../../d9/db2/classArcane_1_1Cell.html#ab44f39a1be502703b0cfda2833842c70" target="_top" xlink:title=" ">
<polygon fill="white" stroke="#666666" points="334.5,-130 229.5,-130 229.5,-111 334.5,-111 334.5,-130"/>
<text text-anchor="middle" x="282" y="-118" font-family="Helvetica,sans-Serif" font-size="10.00">Arcane::Cell::level</text>
</a>
</g>
</g>
<!-- Node1&#45;&gt;Node6 -->
<g id="edge5_Node000001_Node000006" class="edge">
<title>Node1&#45;&gt;Node6</title>
<g id="a_edge5_Node000001_Node000006"><a xlink:title=" ">
<path fill="none" stroke="#63b8ff" d="M175.18,-136.99C190.03,-134.68 205.2,-132.31 219.23,-130.13"/>
<polygon fill="#63b8ff" stroke="#63b8ff" points="219.89,-133.57 229.23,-128.57 218.81,-126.65 219.89,-133.57"/>
</a>
</g>
</g>
<!-- Node8 -->
<g id="Node000008" class="node">
<title>Node8</title>
<g id="a_Node000008"><a xlink:href="../../df/d5f/classArcane_1_1Item.html#a337f519e8727634e55ea621f4734ec04" target="_top" xlink:title="Identifiant local de l&#39;entité dans le sous&#45;domaine du processeur.">
<polygon fill="white" stroke="#666666" points="340.5,-93 223.5,-93 223.5,-74 340.5,-74 340.5,-93"/>
<text text-anchor="middle" x="282" y="-81" font-family="Helvetica,sans-Serif" font-size="10.00">Arcane::Item::localId</text>
</a>
</g>
</g>
<!-- Node1&#45;&gt;Node8 -->
<g id="edge8_Node000001_Node000008" class="edge">
<title>Node1&#45;&gt;Node8</title>
<g id="a_edge8_Node000001_Node000008"><a xlink:title=" ">
<path fill="none" stroke="#63b8ff" d="M124.04,-135.39C148.29,-125.38 181.29,-112.32 211,-102.5 218.15,-100.14 225.78,-97.84 233.27,-95.71"/>
<polygon fill="#63b8ff" stroke="#63b8ff" points="234.29,-99.06 242.99,-93.01 232.42,-92.31 234.29,-99.06"/>
</a>
</g>
</g>
<!-- Node9 -->
<g id="Node000009" class="node">
<title>Node9</title>
<g id="a_Node000009"><a xlink:href="../../d9/d27/classArcane_1_1ItemGroup.html#a315ae5dbc0dbbd2a4f31edc961c4441f" target="_top" xlink:title="Nom du groupe.">
<polygon fill="white" stroke="#666666" points="353,-56 211,-56 211,-37 353,-37 353,-56"/>
<text text-anchor="middle" x="282" y="-44" font-family="Helvetica,sans-Serif" font-size="10.00">Arcane::ItemGroup::name</text>
</a>
</g>
</g>
<!-- Node1&#45;&gt;Node9 -->
<g id="edge9_Node000001_Node000009" class="edge">
<title>Node1&#45;&gt;Node9</title>
<g id="a_edge9_Node000001_Node000009"><a xlink:title=" ">
<path fill="none" stroke="#63b8ff" d="M105.98,-135.45C128.73,-116.58 170.4,-84.41 211,-65.5 216.07,-63.14 221.48,-61.03 226.97,-59.15"/>
<polygon fill="#63b8ff" stroke="#63b8ff" points="228.39,-62.37 236.86,-56.01 226.27,-55.7 228.39,-62.37"/>
</a>
</g>
</g>
<!-- Node10 -->
<g id="Node000010" class="node">
<title>Node10</title>
<g id="a_Node000010"><a xlink:href="../../d9/d27/classArcane_1_1ItemGroup.html#a5e13f5b3aed43db2383db28d8036c193" target="_top" xlink:title="Nombre d&#39;éléments du groupe.">
<polygon fill="white" stroke="#666666" points="349,-19 215,-19 215,0 349,0 349,-19"/>
<text text-anchor="middle" x="282" y="-7" font-family="Helvetica,sans-Serif" font-size="10.00">Arcane::ItemGroup::size</text>
</a>
</g>
</g>
<!-- Node1&#45;&gt;Node10 -->
<g id="edge10_Node000001_Node000010" class="edge">
<title>Node1&#45;&gt;Node10</title>
<g id="a_edge10_Node000001_Node000010"><a xlink:title=" ">
<path fill="none" stroke="#63b8ff" d="M99.5,-135.23C118.98,-109.3 162.15,-56.74 211,-28.5 214.84,-26.28 218.96,-24.31 223.19,-22.56"/>
<polygon fill="#63b8ff" stroke="#63b8ff" points="224.44,-25.83 232.6,-19.09 222.01,-19.27 224.44,-25.83"/>
</a>
</g>
</g>
<!-- Node6&#45;&gt;Node6 -->
<g id="edge7_Node000006_Node000006" class="edge">
<title>Node6&#45;&gt;Node6</title>
<g id="a_edge7_Node000006_Node000006"><a xlink:title=" ">
<path fill="none" stroke="#63b8ff" d="M254.87,-130.08C241.68,-138.73 250.72,-148 282,-148 303.02,-148 314,-143.82 314.93,-138.45"/>
<polygon fill="#63b8ff" stroke="#63b8ff" points="317.7,-136.3 309.13,-130.08 311.95,-140.29 317.7,-136.3"/>
</a>
</g>
</g>
<!-- Node7 -->
<g id="Node000007" class="node">
<title>Node7</title>
<g id="a_Node000007"><a xlink:href="../../df/d5f/classArcane_1_1Item.html#a195637276ad84f071e6f095e6449d1ee" target="_top" xlink:title="Nombre de parent pour l&#39;AMR.">
<polygon fill="white" stroke="#666666" points="529,-130 389,-130 389,-111 529,-111 529,-130"/>
<text text-anchor="middle" x="459" y="-118" font-family="Helvetica,sans-Serif" font-size="10.00">Arcane::Item::_nbHParent</text>
</a>
</g>
</g>
<!-- Node6&#45;&gt;Node7 -->
<g id="edge6_Node000006_Node000007" class="edge">
<title>Node6&#45;&gt;Node7</title>
<g id="a_edge6_Node000006_Node000007"><a xlink:title=" ">
<path fill="none" stroke="#63b8ff" d="M334.56,-120.5C348.4,-120.5 363.7,-120.5 378.67,-120.5"/>
<polygon fill="#63b8ff" stroke="#63b8ff" points="378.97,-124 388.97,-120.5 378.97,-117 378.97,-124"/>
</a>
</g>
</g>
</g>
</svg>

<g id="navigator" transform="translate(0 0)" fill="#404254">
  <rect fill="#f2f5e9" fill-opacity="0.5" stroke="#606060" stroke-width=".5" x="0" y="0" width="60" height="60"/>
  <use id="zoomplus" xlink:href="#zoomPlus" x="17" y="9" onmousedown="handleZoom(evt,'in')"/>
  <use id="zoomminus" xlink:href="#zoomMin" x="42" y="9" onmousedown="handleZoom(evt,'out')"/>
  <use id="reset" xlink:href="#resetDef" x="30" y="36" onmousedown="handleReset()"/>
   <use id="arrowup" xlink:href="#arrowUp" x="0" y="0" onmousedown="handlePan(0,-1)"/>
  <use id="arrowright" xlink:href="#arrowRight" x="0" y="0" onmousedown="handlePan(1,0)"/>
  <use id="arrowdown" xlink:href="#arrowDown" x="0" y="0" onmousedown="handlePan(0,1)"/>
  <use id="arrowleft" xlink:href="#arrowLeft" x="0" y="0" onmousedown="handlePan(-1,0)"/>
</g>
<svg viewBox="0 0 15 15" width="100%" height="30px" preserveAspectRatio="xMaxYMin meet">
 <g id="arrow_out" transform="scale(0.3 0.3)">
  <a xlink:href="classArcane_1_1LevelCellGroupComputeFunctor_ae312687e97ffa9349cd4678ea9f455c5_cgraph_org.svg" target="_base">
   <rect id="button" ry="5" rx="5" y="6" x="6" height="38" width="38"
        fill="#f2f5e9" fill-opacity="0.5" stroke="#606060" stroke-width="1.0"/>
   <path id="arrow"
     d="M 11.500037,31.436501 C 11.940474,20.09759 22.043105,11.32322 32.158766,21.979434 L 37.068811,17.246167 C 37.068811,17.246167 37.088388,32 37.088388,32 L 22.160133,31.978069 C 22.160133,31.978069 26.997745,27.140456 26.997745,27.140456 C 18.528582,18.264221 13.291696,25.230495 11.500037,31.436501 z"
     style="fill:#404040;"/>
  </a>
 </g>
</svg>

<style type='text/css'>
<![CDATA[
[data-mouse-over-selected='false'] { opacity: 0.7; }
[data-mouse-over-selected='true']  { opacity: 1.0; }
]]>
</style>
<script type="application/ecmascript"><![CDATA[
document.addEventListener('DOMContentLoaded', (event) => {
  highlightEdges();
  highlightAdjacentNodes();
});
]]></script>
</svg>
