<?xml version="1.0" encoding="UTF-8" standalone="no"?>
<!DOCTYPE svg PUBLIC "-//W3C//DTD SVG 1.1//EN"
 "http://www.w3.org/Graphics/SVG/1.1/DTD/svg11.dtd">
<!-- Generated by graphviz version 14.1.2 (0)
 -->
<!-- Title: Arcane::ItemConnectivityMng::isUpToDate Pages: 1 -->
<svg width="549pt" height="198pt"
 viewBox="0.00 0.00 549.00 198.00" xmlns="http://www.w3.org/2000/svg" xmlns:xlink="http://www.w3.org/1999/xlink">
<g id="graph0" class="graph" transform="scale(1 1) rotate(0) translate(4 193.5)">
<title>Arcane::ItemConnectivityMng::isUpToDate</title>
<!-- Node1 -->
<g id="Node000001" class="node">
<title>Node1</title>
<g id="a_Node000001"><a xlink:title="Test if the connectivity is up to date compared to the source family and the target family.">
<polygon fill="#999999" stroke="#666666" points="139.75,-111.5 0,-111.5 0,-78 139.75,-78 139.75,-111.5"/>
<text xml:space="preserve" text-anchor="start" x="8" y="-98" font-family="Helvetica,sans-Serif" font-size="10.00">Arcane::ItemConnectivity</text>
<text xml:space="preserve" text-anchor="middle" x="69.88" y="-85.25" font-family="Helvetica,sans-Serif" font-size="10.00">Mng::isUpToDate</text>
</a>
</g>
</g>
<!-- Node2 -->
<g id="Node000002" class="node">
<title>Node2</title>
<g id="a_Node000002"><a xlink:href="../../d1/d74/classArcane_1_1ItemConnectivityMng.html#a719ff694971fe7d13392e9e165586c4d" target="_top" xlink:title="relative to the source family and the target family">
<polygon fill="white" stroke="#666666" points="362,-85.5 175.75,-85.5 175.75,-52 362,-52 362,-85.5"/>
<text xml:space="preserve" text-anchor="start" x="183.75" y="-72" font-family="Helvetica,sans-Serif" font-size="10.00">Arcane::ItemConnectivity</text>
<text xml:space="preserve" text-anchor="middle" x="268.88" y="-59.25" font-family="Helvetica,sans-Serif" font-size="10.00">Mng::isUpToDateWithSourceFamily</text>
</a>
</g>
</g>
<!-- Node1&#45;&gt;Node2 -->
<g id="edge1_Node000001_Node000002" class="edge">
<title>Node1&#45;&gt;Node2</title>
<g id="a_edge1_Node000001_Node000002"><a xlink:title=" ">
<path fill="none" stroke="#63b8ff" d="M140.05,-85.62C147.9,-84.58 156.03,-83.51 164.2,-82.43"/>
<polygon fill="#63b8ff" stroke="#63b8ff" points="164.39,-85.94 173.85,-81.16 163.48,-79 164.39,-85.94"/>
</a>
</g>
</g>
<!-- Node6 -->
<g id="Node000006" class="node">
<title>Node6</title>
<g id="a_Node000006"><a xlink:href="../../d1/d74/classArcane_1_1ItemConnectivityMng.html#ad3c873716ff222a38efa378a33bd634e" target="_top" xlink:title="relative to the source family">
<polygon fill="white" stroke="#666666" points="360.5,-137.5 177.25,-137.5 177.25,-104 360.5,-104 360.5,-137.5"/>
<text xml:space="preserve" text-anchor="start" x="185.25" y="-124" font-family="Helvetica,sans-Serif" font-size="10.00">Arcane::ItemConnectivity</text>
<text xml:space="preserve" text-anchor="middle" x="268.88" y="-111.25" font-family="Helvetica,sans-Serif" font-size="10.00">Mng::isUpToDateWithTargetFamily</text>
</a>
</g>
</g>
<!-- Node1&#45;&gt;Node6 -->
<g id="edge5_Node000001_Node000006" class="edge">
<title>Node1&#45;&gt;Node6</title>
<g id="a_edge5_Node000001_Node000006"><a xlink:title=" ">
<path fill="none" stroke="#63b8ff" d="M140.05,-103.88C148.38,-104.98 157.01,-106.12 165.68,-107.26"/>
<polygon fill="#63b8ff" stroke="#63b8ff" points="165.21,-110.73 175.58,-108.57 166.12,-103.79 165.21,-110.73"/>
</a>
</g>
</g>
<!-- Node3 -->
<g id="Node000003" class="node">
<title>Node3</title>
<g id="a_Node000003"><a xlink:href="../../dd/d0a/classArcane_1_1IItemFamily.html#aae7845b24c15e409df3652ac0e15e3df" target="_top" xlink:title="Full family name (with the mesh&#39;s name).">
<polygon fill="white" stroke="#666666" points="526.12,-137.5 412.62,-137.5 412.62,-104 526.12,-104 526.12,-137.5"/>
<text xml:space="preserve" text-anchor="start" x="420.62" y="-124" font-family="Helvetica,sans-Serif" font-size="10.00">Arcane::IItemFamily</text>
<text xml:space="preserve" text-anchor="middle" x="469.38" y="-111.25" font-family="Helvetica,sans-Serif" font-size="10.00">::fullName</text>
</a>
</g>
</g>
<!-- Node2&#45;&gt;Node3 -->
<g id="edge2_Node000002_Node000003" class="edge">
<title>Node2&#45;&gt;Node3</title>
<g id="a_edge2_Node000002_Node000003"><a xlink:title=" ">
<path fill="none" stroke="#63b8ff" d="M335.7,-85.99C356.84,-91.53 380.27,-97.67 401.49,-103.23"/>
<polygon fill="#63b8ff" stroke="#63b8ff" points="400.34,-106.54 410.9,-105.69 402.11,-99.77 400.34,-106.54"/>
</a>
</g>
</g>
<!-- Node4 -->
<g id="Node000004" class="node">
<title>Node4</title>
<g id="a_Node000004"><a xlink:href="../../d0/dc0/classArcane_1_1IItemConnectivity.html#af5f9ad1c2248d99658cb7a9d7f1b2482" target="_top" xlink:title="Name of the connectivity.">
<polygon fill="white" stroke="#666666" points="540.75,-85.5 398,-85.5 398,-52 540.75,-52 540.75,-85.5"/>
<text xml:space="preserve" text-anchor="start" x="406" y="-72" font-family="Helvetica,sans-Serif" font-size="10.00">Arcane::IItemConnectivity</text>
<text xml:space="preserve" text-anchor="middle" x="469.38" y="-59.25" font-family="Helvetica,sans-Serif" font-size="10.00">::name</text>
</a>
</g>
</g>
<!-- Node2&#45;&gt;Node4 -->
<g id="edge3_Node000002_Node000004" class="edge">
<title>Node2&#45;&gt;Node4</title>
<g id="a_edge3_Node000002_Node000004"><a xlink:title=" ">
<path fill="none" stroke="#63b8ff" d="M362.44,-68.75C370.39,-68.75 378.39,-68.75 386.24,-68.75"/>
<polygon fill="#63b8ff" stroke="#63b8ff" points="386.11,-72.25 396.11,-68.75 386.11,-65.25 386.11,-72.25"/>
</a>
</g>
</g>
<!-- Node5 -->
<g id="Node000005" class="node">
<title>Node5</title>
<g id="a_Node000005"><a xlink:href="../../d0/dc0/classArcane_1_1IItemConnectivity.html#af190e1b8022d46ba7a55a5229ce2eb43" target="_top" xlink:title="Source family.">
<polygon fill="white" stroke="#666666" points="540.75,-33.5 398,-33.5 398,0 540.75,0 540.75,-33.5"/>
<text xml:space="preserve" text-anchor="start" x="406" y="-20" font-family="Helvetica,sans-Serif" font-size="10.00">Arcane::IItemConnectivity</text>
<text xml:space="preserve" text-anchor="middle" x="469.38" y="-7.25" font-family="Helvetica,sans-Serif" font-size="10.00">::sourceFamily</text>
</a>
</g>
</g>
<!-- Node2&#45;&gt;Node5 -->
<g id="edge4_Node000002_Node000005" class="edge">
<title>Node2&#45;&gt;Node5</title>
<g id="a_edge4_Node000002_Node000005"><a xlink:title=" ">
<path fill="none" stroke="#63b8ff" d="M335.7,-51.51C353.63,-46.81 373.21,-41.68 391.7,-36.84"/>
<polygon fill="#63b8ff" stroke="#63b8ff" points="392.48,-40.25 401.27,-34.33 390.71,-33.48 392.48,-40.25"/>
</a>
</g>
</g>
<!-- Node6&#45;&gt;Node3 -->
<g id="edge6_Node000006_Node000003" class="edge">
<title>Node6&#45;&gt;Node3</title>
<g id="a_edge6_Node000006_Node000003"><a xlink:title=" ">
<path fill="none" stroke="#63b8ff" d="M360.99,-120.75C374.55,-120.75 388.31,-120.75 401.26,-120.75"/>
<polygon fill="#63b8ff" stroke="#63b8ff" points="400.88,-124.25 410.88,-120.75 400.88,-117.25 400.88,-124.25"/>
</a>
</g>
</g>
<!-- Node6&#45;&gt;Node4 -->
<g id="edge7_Node000006_Node000004" class="edge">
<title>Node6&#45;&gt;Node4</title>
<g id="a_edge7_Node000006_Node000004"><a xlink:title=" ">
<path fill="none" stroke="#63b8ff" d="M335.7,-103.51C353.63,-98.81 373.21,-93.68 391.7,-88.84"/>
<polygon fill="#63b8ff" stroke="#63b8ff" points="392.48,-92.25 401.27,-86.33 390.71,-85.48 392.48,-92.25"/>
</a>
</g>
</g>
<!-- Node7 -->
<g id="Node000007" class="node">
<title>Node7</title>
<g id="a_Node000007"><a xlink:href="../../d0/dc0/classArcane_1_1IItemConnectivity.html#a7c133c6a5415276bc86b6e1ae228fb9e" target="_top" xlink:title="Target family.">
<polygon fill="white" stroke="#666666" points="540.75,-189.5 398,-189.5 398,-156 540.75,-156 540.75,-189.5"/>
<text xml:space="preserve" text-anchor="start" x="406" y="-176" font-family="Helvetica,sans-Serif" font-size="10.00">Arcane::IItemConnectivity</text>
<text xml:space="preserve" text-anchor="middle" x="469.38" y="-163.25" font-family="Helvetica,sans-Serif" font-size="10.00">::targetFamily</text>
</a>
</g>
</g>
<!-- Node6&#45;&gt;Node7 -->
<g id="edge8_Node000006_Node000007" class="edge">
<title>Node6&#45;&gt;Node7</title>
<g id="a_edge8_Node000006_Node000007"><a xlink:title=" ">
<path fill="none" stroke="#63b8ff" d="M335.7,-137.99C353.63,-142.69 373.21,-147.82 391.7,-152.66"/>
<polygon fill="#63b8ff" stroke="#63b8ff" points="390.71,-156.02 401.27,-155.17 392.48,-149.25 390.71,-156.02"/>
</a>
</g>
</g>
</g>
</svg>
