<?xml version="1.0" encoding="UTF-8" standalone="no"?>
<!DOCTYPE svg PUBLIC "-//W3C//DTD SVG 1.1//EN"
 "http://www.w3.org/Graphics/SVG/1.1/DTD/svg11.dtd">
<!-- Generated by graphviz version 2.43.0 (0)
 -->
<!-- Title: Arcane::ActionWrapperService Pages: 1 -->
<svg width="500pt" height="659pt"
 viewBox="0.00 0.00 500.00 659.00" xmlns="http://www.w3.org/2000/svg" xmlns:xlink="http://www.w3.org/1999/xlink">
<g id="graph0" class="graph" transform="scale(1 1) rotate(0) translate(4 655)">
<title>Arcane::ActionWrapperService</title>
<!-- Node1 -->
<g id="Node000001" class="node">
<title>Node1</title>
<g id="a_Node000001"><a xlink:title="Wrapper autour d&#39;une action.">
<polygon fill="#999999" stroke="transparent" points="308,-94 150,-94 150,0 308,0 308,-94"/>
<text text-anchor="start" x="155" y="-82" font-family="Helvetica,sans-Serif" font-size="10.00">Arcane::ActionWrapperService</text>
<text text-anchor="start" x="227" y="-67" font-family="Helvetica,sans-Serif" font-size="10.00"> </text>
<text text-anchor="start" x="157" y="-52" font-family="Helvetica,sans-Serif" font-size="10.00">+</text>
<text text-anchor="start" x="173" y="-52" font-family="Helvetica,sans-Serif" font-size="10.00">ActionWrapperService()</text>
<text text-anchor="start" x="157" y="-37" font-family="Helvetica,sans-Serif" font-size="10.00">+</text>
<text text-anchor="start" x="173" y="-37" font-family="Helvetica,sans-Serif" font-size="10.00">~ActionWrapperService()</text>
<text text-anchor="start" x="157" y="-22" font-family="Helvetica,sans-Serif" font-size="10.00">+</text>
<text text-anchor="start" x="173" y="-22" font-family="Helvetica,sans-Serif" font-size="10.00">serviceParent()</text>
<text text-anchor="start" x="157" y="-7" font-family="Helvetica,sans-Serif" font-size="10.00">+</text>
<text text-anchor="start" x="173" y="-7" font-family="Helvetica,sans-Serif" font-size="10.00">serviceInfo()</text>
<polygon fill="#666666" stroke="#666666" points="150,-77 150,-77 308,-77 308,-77 150,-77"/>
<polygon fill="#666666" stroke="#666666" points="150,-62 150,-62 308,-62 308,-62 150,-62"/>
<polygon fill="none" stroke="#666666" points="150,0 150,-94 308,-94 308,0 150,0"/>
</a>
</g>
</g>
<!-- Node2 -->
<g id="Node000002" class="node">
<title>Node2</title>
<g id="a_Node000002"><a xlink:title=" ">
<polygon fill="white" stroke="transparent" points="122,-310 0,-310 0,-261 122,-261 122,-310"/>
<text text-anchor="start" x="5" y="-297.5" font-family="Helvetica,sans-Serif" font-size="10.00">IActionWrapperService</text>
<text text-anchor="start" x="59" y="-282.5" font-family="Helvetica,sans-Serif" font-size="10.00"> </text>
<text text-anchor="start" x="59" y="-267.5" font-family="Helvetica,sans-Serif" font-size="10.00"> </text>
<polygon fill="#bfbfbf" stroke="#bfbfbf" points="0,-292.5 0,-292.5 122,-292.5 122,-292.5 0,-292.5"/>
<polygon fill="#bfbfbf" stroke="#bfbfbf" points="0,-277.5 0,-277.5 122,-277.5 122,-277.5 0,-277.5"/>
<polygon fill="none" stroke="#bfbfbf" points="0,-261 0,-310 122,-310 122,-261 0,-261"/>
</a>
</g>
</g>
<!-- Node2&#45;&gt;Node1 -->
<g id="edge1_Node000001_Node000002" class="edge">
<title>Node2&#45;&gt;Node1</title>
<g id="a_edge1_Node000001_Node000002"><a xlink:title=" ">
<path fill="none" stroke="#63b8ff" d="M73.23,-251.28C85.3,-220.93 105.6,-175.64 131,-141 143.21,-124.35 158.6,-108.16 173.55,-94.08"/>
<polygon fill="none" stroke="#63b8ff" points="69.83,-250.38 69.46,-260.97 76.35,-252.92 69.83,-250.38"/>
</a>
</g>
</g>
<!-- Node3 -->
<g id="Node000003" class="node">
<title>Node3</title>
<g id="a_Node000003"><a xlink:href="../../d9/d7f/classArcane_1_1IApplication.html" target="_top" xlink:title="Interface de l&#39;application.">
<polygon fill="white" stroke="transparent" points="318,-396 140,-396 140,-175 318,-175 318,-396"/>
<text text-anchor="start" x="180" y="-383.5" font-family="Helvetica,sans-Serif" font-size="10.00">Arcane::IApplication</text>
<text text-anchor="start" x="227" y="-368.5" font-family="Helvetica,sans-Serif" font-size="10.00"> </text>
<text text-anchor="start" x="144" y="-353.5" font-family="Helvetica,sans-Serif" font-size="10.00">+</text>
<text text-anchor="start" x="157" y="-353.5" font-family="Helvetica,sans-Serif" font-size="10.00">parallelSuperMng()</text>
<text text-anchor="start" x="144" y="-338.5" font-family="Helvetica,sans-Serif" font-size="10.00">+</text>
<text text-anchor="start" x="157" y="-338.5" font-family="Helvetica,sans-Serif" font-size="10.00">sequentialParallelSuperMng()</text>
<text text-anchor="start" x="144" y="-323.5" font-family="Helvetica,sans-Serif" font-size="10.00">+</text>
<text text-anchor="start" x="157" y="-323.5" font-family="Helvetica,sans-Serif" font-size="10.00">ioMng()</text>
<text text-anchor="start" x="144" y="-308.5" font-family="Helvetica,sans-Serif" font-size="10.00">+</text>
<text text-anchor="start" x="157" y="-308.5" font-family="Helvetica,sans-Serif" font-size="10.00">configurationMng()</text>
<text text-anchor="start" x="144" y="-293.5" font-family="Helvetica,sans-Serif" font-size="10.00">+</text>
<text text-anchor="start" x="157" y="-293.5" font-family="Helvetica,sans-Serif" font-size="10.00">dataFactory()</text>
<text text-anchor="start" x="144" y="-278.5" font-family="Helvetica,sans-Serif" font-size="10.00">+</text>
<text text-anchor="start" x="157" y="-278.5" font-family="Helvetica,sans-Serif" font-size="10.00">dataFactoryMng()</text>
<text text-anchor="start" x="144" y="-263.5" font-family="Helvetica,sans-Serif" font-size="10.00">+</text>
<text text-anchor="start" x="157" y="-263.5" font-family="Helvetica,sans-Serif" font-size="10.00">applicationInfo()</text>
<text text-anchor="start" x="144" y="-248.5" font-family="Helvetica,sans-Serif" font-size="10.00">+</text>
<text text-anchor="start" x="157" y="-248.5" font-family="Helvetica,sans-Serif" font-size="10.00">applicationBuildInfo()</text>
<text text-anchor="start" x="144" y="-233.5" font-family="Helvetica,sans-Serif" font-size="10.00">+</text>
<text text-anchor="start" x="157" y="-233.5" font-family="Helvetica,sans-Serif" font-size="10.00">dotnetRuntimeInitialisation</text>
<text text-anchor="start" x="157" y="-222.5" font-family="Helvetica,sans-Serif" font-size="10.00">Info()</text>
<text text-anchor="start" x="144" y="-207.5" font-family="Helvetica,sans-Serif" font-size="10.00">+</text>
<text text-anchor="start" x="157" y="-207.5" font-family="Helvetica,sans-Serif" font-size="10.00">acceleratorRuntimeInitialisation</text>
<text text-anchor="start" x="157" y="-196.5" font-family="Helvetica,sans-Serif" font-size="10.00">Info()</text>
<text text-anchor="start" x="157" y="-181.5" font-family="Helvetica,sans-Serif" font-size="10.00">et 21 de plus...</text>
<polygon fill="#666666" stroke="#666666" points="140,-378.5 140,-378.5 318,-378.5 318,-378.5 140,-378.5"/>
<polygon fill="#666666" stroke="#666666" points="140,-363.5 140,-363.5 318,-363.5 318,-363.5 140,-363.5"/>
<polygon fill="none" stroke="#666666" points="140,-175 140,-396 318,-396 318,-175 140,-175"/>
</a>
</g>
</g>
<!-- Node3&#45;&gt;Node1 -->
<g id="edge2_Node000001_Node000003" class="edge">
<title>Node3&#45;&gt;Node1</title>
<g id="a_edge2_Node000001_Node000003"><a xlink:title=" ">
<path fill="none" stroke="#63b8ff" d="M229,-174.9C229,-151.18 229,-126.99 229,-106.17"/>
<polygon fill="none" stroke="#63b8ff" points="229,-106.01 225,-100.01 229,-94.01 233,-100.01 229,-106.01"/>
</a>
</g>
<text text-anchor="middle" x="267" y="-115" font-family="Helvetica,sans-Serif" font-size="10.00" fill="grey"> &#45;m_application</text>
</g>
<!-- Node4 -->
<g id="Node000004" class="node">
<title>Node4</title>
<g id="a_Node000004"><a xlink:href="../../d3/d96/classArcane_1_1IBase.html" target="_top" xlink:title="Interface de la classe de base des objets principaux arcane.">
<polygon fill="white" stroke="transparent" points="296,-651 162,-651 162,-467 296,-467 296,-651"/>
<text text-anchor="start" x="195.5" y="-639" font-family="Helvetica,sans-Serif" font-size="10.00">Arcane::IBase</text>
<text text-anchor="start" x="227" y="-624" font-family="Helvetica,sans-Serif" font-size="10.00"> </text>
<text text-anchor="start" x="166" y="-609" font-family="Helvetica,sans-Serif" font-size="10.00">+</text>
<text text-anchor="start" x="179" y="-609" font-family="Helvetica,sans-Serif" font-size="10.00">~IBase()</text>
<text text-anchor="start" x="166" y="-594" font-family="Helvetica,sans-Serif" font-size="10.00">+</text>
<text text-anchor="start" x="179" y="-594" font-family="Helvetica,sans-Serif" font-size="10.00">build()</text>
<text text-anchor="start" x="166" y="-579" font-family="Helvetica,sans-Serif" font-size="10.00">+</text>
<text text-anchor="start" x="179" y="-579" font-family="Helvetica,sans-Serif" font-size="10.00">initialize()</text>
<text text-anchor="start" x="166" y="-564" font-family="Helvetica,sans-Serif" font-size="10.00">+</text>
<text text-anchor="start" x="179" y="-564" font-family="Helvetica,sans-Serif" font-size="10.00">objectParent()</text>
<text text-anchor="start" x="166" y="-549" font-family="Helvetica,sans-Serif" font-size="10.00">+</text>
<text text-anchor="start" x="179" y="-549" font-family="Helvetica,sans-Serif" font-size="10.00">objectNamespaceURI()</text>
<text text-anchor="start" x="166" y="-534" font-family="Helvetica,sans-Serif" font-size="10.00">+</text>
<text text-anchor="start" x="179" y="-534" font-family="Helvetica,sans-Serif" font-size="10.00">objectLocalName()</text>
<text text-anchor="start" x="166" y="-519" font-family="Helvetica,sans-Serif" font-size="10.00">+</text>
<text text-anchor="start" x="179" y="-519" font-family="Helvetica,sans-Serif" font-size="10.00">objectVersion()</text>
<text text-anchor="start" x="166" y="-504" font-family="Helvetica,sans-Serif" font-size="10.00">+</text>
<text text-anchor="start" x="179" y="-504" font-family="Helvetica,sans-Serif" font-size="10.00">traceMng()</text>
<text text-anchor="start" x="166" y="-489" font-family="Helvetica,sans-Serif" font-size="10.00">+</text>
<text text-anchor="start" x="179" y="-489" font-family="Helvetica,sans-Serif" font-size="10.00">ressourceMng()</text>
<text text-anchor="start" x="166" y="-474" font-family="Helvetica,sans-Serif" font-size="10.00">+</text>
<text text-anchor="start" x="179" y="-474" font-family="Helvetica,sans-Serif" font-size="10.00">serviceMng()</text>
<polygon fill="#666666" stroke="#666666" points="162,-634 162,-634 296,-634 296,-634 162,-634"/>
<polygon fill="#666666" stroke="#666666" points="162,-619 162,-619 296,-619 296,-619 162,-619"/>
<polygon fill="none" stroke="#666666" points="162,-467 162,-651 296,-651 296,-467 162,-467"/>
</a>
</g>
</g>
<!-- Node4&#45;&gt;Node3 -->
<g id="edge3_Node000003_Node000004" class="edge">
<title>Node4&#45;&gt;Node3</title>
<g id="a_edge3_Node000003_Node000004"><a xlink:title=" ">
<path fill="none" stroke="#63b8ff" d="M229,-456.64C229,-436.94 229,-416.21 229,-396.25"/>
<polygon fill="none" stroke="#63b8ff" points="225.5,-456.84 229,-466.84 232.5,-456.84 225.5,-456.84"/>
</a>
</g>
</g>
<!-- Node5 -->
<g id="Node000005" class="node">
<title>Node5</title>
<g id="a_Node000005"><a xlink:href="../../de/df8/classArcane_1_1IServiceInfo.html" target="_top" xlink:title="Interface des informations d&#39;un service ou d&#39;un module.">
<polygon fill="white" stroke="transparent" points="492,-430 336,-430 336,-141 492,-141 492,-430"/>
<text text-anchor="start" x="365" y="-417.5" font-family="Helvetica,sans-Serif" font-size="10.00">Arcane::IServiceInfo</text>
<text text-anchor="start" x="340" y="-402.5" font-family="Helvetica,sans-Serif" font-size="10.00">+</text>
<text text-anchor="start" x="353" y="-402.5" font-family="Helvetica,sans-Serif" font-size="10.00">Dim1</text>
<text text-anchor="start" x="340" y="-387.5" font-family="Helvetica,sans-Serif" font-size="10.00">+</text>
<text text-anchor="start" x="353" y="-387.5" font-family="Helvetica,sans-Serif" font-size="10.00">Dim2</text>
<text text-anchor="start" x="340" y="-372.5" font-family="Helvetica,sans-Serif" font-size="10.00">+</text>
<text text-anchor="start" x="353" y="-372.5" font-family="Helvetica,sans-Serif" font-size="10.00">Dim3</text>
<text text-anchor="start" x="340" y="-357.5" font-family="Helvetica,sans-Serif" font-size="10.00">+</text>
<text text-anchor="start" x="353" y="-357.5" font-family="Helvetica,sans-Serif" font-size="10.00">~IServiceInfo()</text>
<text text-anchor="start" x="340" y="-342.5" font-family="Helvetica,sans-Serif" font-size="10.00">+</text>
<text text-anchor="start" x="353" y="-342.5" font-family="Helvetica,sans-Serif" font-size="10.00">localName()</text>
<text text-anchor="start" x="340" y="-327.5" font-family="Helvetica,sans-Serif" font-size="10.00">+</text>
<text text-anchor="start" x="353" y="-327.5" font-family="Helvetica,sans-Serif" font-size="10.00">namespaceURI()</text>
<text text-anchor="start" x="340" y="-312.5" font-family="Helvetica,sans-Serif" font-size="10.00">+</text>
<text text-anchor="start" x="353" y="-312.5" font-family="Helvetica,sans-Serif" font-size="10.00">version()</text>
<text text-anchor="start" x="340" y="-297.5" font-family="Helvetica,sans-Serif" font-size="10.00">+</text>
<text text-anchor="start" x="353" y="-297.5" font-family="Helvetica,sans-Serif" font-size="10.00">axlVersion()</text>
<text text-anchor="start" x="340" y="-282.5" font-family="Helvetica,sans-Serif" font-size="10.00">+</text>
<text text-anchor="start" x="353" y="-282.5" font-family="Helvetica,sans-Serif" font-size="10.00">allowDimension()</text>
<text text-anchor="start" x="340" y="-267.5" font-family="Helvetica,sans-Serif" font-size="10.00">+</text>
<text text-anchor="start" x="353" y="-267.5" font-family="Helvetica,sans-Serif" font-size="10.00">addImplementedInterface()</text>
<text text-anchor="start" x="340" y="-252.5" font-family="Helvetica,sans-Serif" font-size="10.00">+</text>
<text text-anchor="start" x="353" y="-252.5" font-family="Helvetica,sans-Serif" font-size="10.00">implementedInterfaces()</text>
<text text-anchor="start" x="340" y="-237.5" font-family="Helvetica,sans-Serif" font-size="10.00">+</text>
<text text-anchor="start" x="353" y="-237.5" font-family="Helvetica,sans-Serif" font-size="10.00">caseOptionsFileName()</text>
<text text-anchor="start" x="340" y="-222.5" font-family="Helvetica,sans-Serif" font-size="10.00">+</text>
<text text-anchor="start" x="353" y="-222.5" font-family="Helvetica,sans-Serif" font-size="10.00">factories()</text>
<text text-anchor="start" x="340" y="-207.5" font-family="Helvetica,sans-Serif" font-size="10.00">+</text>
<text text-anchor="start" x="353" y="-207.5" font-family="Helvetica,sans-Serif" font-size="10.00">singletonFactory()</text>
<text text-anchor="start" x="340" y="-192.5" font-family="Helvetica,sans-Serif" font-size="10.00">+</text>
<text text-anchor="start" x="353" y="-192.5" font-family="Helvetica,sans-Serif" font-size="10.00">tagName()</text>
<text text-anchor="start" x="340" y="-177.5" font-family="Helvetica,sans-Serif" font-size="10.00">+</text>
<text text-anchor="start" x="353" y="-177.5" font-family="Helvetica,sans-Serif" font-size="10.00">factoryInfo()</text>
<text text-anchor="start" x="340" y="-162.5" font-family="Helvetica,sans-Serif" font-size="10.00">+</text>
<text text-anchor="start" x="353" y="-162.5" font-family="Helvetica,sans-Serif" font-size="10.00">usageType()</text>
<text text-anchor="start" x="340" y="-147.5" font-family="Helvetica,sans-Serif" font-size="10.00">+</text>
<text text-anchor="start" x="353" y="-147.5" font-family="Helvetica,sans-Serif" font-size="10.00">axlContent()</text>
<polygon fill="#666666" stroke="#666666" points="336,-412.5 336,-412.5 492,-412.5 492,-412.5 336,-412.5"/>
<polygon fill="#666666" stroke="#666666" points="336,-367.5 336,-367.5 351,-367.5 351,-367.5 336,-367.5"/>
<polygon fill="#666666" stroke="#666666" points="351,-367.5 351,-367.5 492,-367.5 492,-367.5 351,-367.5"/>
<polygon fill="none" stroke="#666666" points="336,-141 336,-430 492,-430 492,-141 336,-141"/>
</a>
</g>
</g>
<!-- Node5&#45;&gt;Node1 -->
<g id="edge4_Node000001_Node000005" class="edge">
<title>Node5&#45;&gt;Node1</title>
<g id="a_edge4_Node000001_Node000005"><a xlink:title=" ">
<path fill="none" stroke="#63b8ff" d="M335.77,-145.72C327.27,-133.91 318.31,-122.49 309,-112 306.2,-108.84 303.23,-105.72 300.15,-102.66"/>
<polygon fill="none" stroke="#63b8ff" points="299.93,-102.45 292.82,-101.22 291.22,-94.19 298.32,-95.41 299.93,-102.45"/>
</a>
</g>
<text text-anchor="middle" x="358" y="-115" font-family="Helvetica,sans-Serif" font-size="10.00" fill="grey"> &#45;m_service_info</text>
</g>
</g>
</svg>
