<?xml version="1.0" encoding="UTF-8" standalone="no"?>
<!DOCTYPE svg PUBLIC "-//W3C//DTD SVG 1.1//EN"
 "http://www.w3.org/Graphics/SVG/1.1/DTD/svg11.dtd">
<!-- Generated by graphviz version 2.43.0 (0)
 -->
<!-- Title: RunCommandLaunch.h Pages: 1 -->
<svg width="734pt" height="93pt"
 viewBox="0.00 0.00 734.00 93.00" xmlns="http://www.w3.org/2000/svg" xmlns:xlink="http://www.w3.org/1999/xlink">
<g id="graph0" class="graph" transform="scale(1 1) rotate(0) translate(4 89)">
<title>RunCommandLaunch.h</title>
<!-- Node1 -->
<g id="Node000001" class="node">
<title>Node1</title>
<g id="a_Node000001"><a xlink:title="Types et macros pour gérer le parallélisme hiérarchique sur les accélérateurs.">
<polygon fill="#999999" stroke="#666666" points="429.5,-85 300.5,-85 300.5,-66 429.5,-66 429.5,-85"/>
<text text-anchor="middle" x="365" y="-73" font-family="Helvetica,sans-Serif" font-size="10.00">RunCommandLaunch.h</text>
</a>
</g>
</g>
<!-- Node2 -->
<g id="Node000002" class="node">
<title>Node2</title>
<g id="a_Node000002"><a xlink:href="../../dd/daf/RunCommandLaunch_8cc_source.html" target="_top" xlink:title=" ">
<polygon fill="white" stroke="#666666" points="134,-24.5 0,-24.5 0,-5.5 134,-5.5 134,-24.5"/>
<text text-anchor="middle" x="67" y="-12.5" font-family="Helvetica,sans-Serif" font-size="10.00">RunCommandLaunch.cc</text>
</a>
</g>
</g>
<!-- Node1&#45;&gt;Node2 -->
<g id="edge1_Node000001_Node000002" class="edge">
<title>Node1&#45;&gt;Node2</title>
<g id="a_edge1_Node000001_Node000002"><a xlink:title=" ">
<path fill="none" stroke="#63b8ff" d="M311.68,-64.03C254.17,-52.74 163.71,-34.98 110.38,-24.52"/>
<polygon fill="#63b8ff" stroke="#63b8ff" points="311.18,-67.5 321.67,-65.99 312.53,-60.63 311.18,-67.5"/>
</a>
</g>
</g>
<!-- Node3 -->
<g id="Node000003" class="node">
<title>Node3</title>
<g id="a_Node000003"><a xlink:href="../../d9/dca/arcane_2src_2arcane_2accelerator_2RunCommandLaunch_8h_source.html" target="_top" xlink:title=" ">
<polygon fill="white" stroke="#666666" points="281.5,-24.5 152.5,-24.5 152.5,-5.5 281.5,-5.5 281.5,-24.5"/>
<text text-anchor="middle" x="217" y="-12.5" font-family="Helvetica,sans-Serif" font-size="10.00">RunCommandLaunch.h</text>
</a>
</g>
</g>
<!-- Node1&#45;&gt;Node3 -->
<g id="edge2_Node000001_Node000003" class="edge">
<title>Node1&#45;&gt;Node3</title>
<g id="a_edge2_Node000001_Node000003"><a xlink:title=" ">
<path fill="none" stroke="#63b8ff" d="M333.96,-62.23C305.36,-50.92 263.66,-34.44 238.55,-24.52"/>
<polygon fill="#63b8ff" stroke="#63b8ff" points="332.89,-65.57 343.48,-65.99 335.47,-59.06 332.89,-65.57"/>
</a>
</g>
</g>
<!-- Node4 -->
<g id="Node000004" class="node">
<title>Node4</title>
<g id="a_Node000004"><a xlink:href="../../d3/db6/TestCooperativeLaunch__Accelerator_8cc_source.html" target="_top" xlink:title=" ">
<polygon fill="white" stroke="#666666" points="430,-30 300,-30 300,0 430,0 430,-30"/>
<text text-anchor="start" x="308" y="-18" font-family="Helvetica,sans-Serif" font-size="10.00">TestCooperativeLaunch</text>
<text text-anchor="middle" x="365" y="-7" font-family="Helvetica,sans-Serif" font-size="10.00">_Accelerator.cc</text>
</a>
</g>
</g>
<!-- Node1&#45;&gt;Node4 -->
<g id="edge3_Node000001_Node000004" class="edge">
<title>Node1&#45;&gt;Node4</title>
<g id="a_edge3_Node000001_Node000004"><a xlink:title=" ">
<path fill="none" stroke="#63b8ff" d="M365,-55.65C365,-47.36 365,-37.78 365,-30.11"/>
<polygon fill="#63b8ff" stroke="#63b8ff" points="361.5,-55.87 365,-65.87 368.5,-55.87 361.5,-55.87"/>
</a>
</g>
</g>
<!-- Node5 -->
<g id="Node000005" class="node">
<title>Node5</title>
<g id="a_Node000005"><a xlink:href="../../d4/dad/TestCooperativeLaunch__Accelerator2_8cc_source.html" target="_top" xlink:title=" ">
<polygon fill="white" stroke="#666666" points="578,-30 448,-30 448,0 578,0 578,-30"/>
<text text-anchor="start" x="456" y="-18" font-family="Helvetica,sans-Serif" font-size="10.00">TestCooperativeLaunch</text>
<text text-anchor="middle" x="513" y="-7" font-family="Helvetica,sans-Serif" font-size="10.00">_Accelerator2.cc</text>
</a>
</g>
</g>
<!-- Node1&#45;&gt;Node5 -->
<g id="edge4_Node000001_Node000005" class="edge">
<title>Node1&#45;&gt;Node5</title>
<g id="a_edge4_Node000001_Node000005"><a xlink:title=" ">
<path fill="none" stroke="#63b8ff" d="M396.1,-62.21C419.86,-52.82 452.62,-39.87 477.42,-30.06"/>
<polygon fill="#63b8ff" stroke="#63b8ff" points="394.53,-59.06 386.52,-65.99 397.11,-65.57 394.53,-59.06"/>
</a>
</g>
</g>
<!-- Node6 -->
<g id="Node000006" class="node">
<title>Node6</title>
<g id="a_Node000006"><a xlink:href="../../d7/dbd/TestCooperativeLaunch__GridSync_8cc_source.html" target="_top" xlink:title=" ">
<polygon fill="white" stroke="#666666" points="726,-30 596,-30 596,0 726,0 726,-30"/>
<text text-anchor="start" x="604" y="-18" font-family="Helvetica,sans-Serif" font-size="10.00">TestCooperativeLaunch</text>
<text text-anchor="middle" x="661" y="-7" font-family="Helvetica,sans-Serif" font-size="10.00">_GridSync.cc</text>
</a>
</g>
</g>
<!-- Node1&#45;&gt;Node6 -->
<g id="edge5_Node000001_Node000006" class="edge">
<title>Node1&#45;&gt;Node6</title>
<g id="a_edge5_Node000001_Node000006"><a xlink:title=" ">
<path fill="none" stroke="#63b8ff" d="M417.96,-64.03C467.73,-54.2 542.35,-39.45 595.77,-28.89"/>
<polygon fill="#63b8ff" stroke="#63b8ff" points="417.17,-60.62 408.04,-65.99 418.53,-67.49 417.17,-60.62"/>
</a>
</g>
</g>
</g>
</svg>
