<?xml version="1.0" encoding="UTF-8" standalone="no"?>
<!DOCTYPE svg PUBLIC "-//W3C//DTD SVG 1.1//EN"
 "http://www.w3.org/Graphics/SVG/1.1/DTD/svg11.dtd">
<!-- Generated by graphviz version 2.43.0 (0)
 -->
<!-- Title: Arcane::Accelerator::ReducerSum2&lt; DataType &gt; Pages: 1 -->
<!--zoomable 682 -->

<svg id="main" version="1.1" xmlns="http://www.w3.org/2000/svg" xmlns:xlink="http://www.w3.org/1999/xlink" xml:space="preserve" onload="init(evt)">

<style type="text/css"><![CDATA[
.node, .edge {opacity: 0.7;}
.node.selected, .edge.selected {opacity: 1;}
.edge:hover path { stroke: red; }
.edge:hover polygon { stroke: red; fill: red; }
]]></style>

<defs>
  <circle id="rim" cx="0" cy="0" r="7"/>
  <circle id="rim2" cx="0" cy="0" r="3.5"/>
  <g id="zoomPlus">
    <use xlink:href="#rim" fill="#404040"><set attributeName="fill" to="#808080" begin="zoomplus.mouseover" end="zoomplus.mouseout"/></use>
    <path d="M-4,0h8M0,-4v8" fill="none" stroke="white" stroke-width="1.5" pointer-events="none"/>
  </g>
  <g id="zoomMin">
    <use xlink:href="#rim" fill="#404040"><set attributeName="fill" to="#808080" begin="zoomminus.mouseover" end="zoomminus.mouseout"/></use>
    <path d="M-4,0h8" fill="none" stroke="white" stroke-width="1.5" pointer-events="none"/>
  </g>
  <g id="arrowUp" transform="translate(30 24)">
    <use xlink:href="#rim"/>
    <path pointer-events="none" fill="none" stroke="white" stroke-width="1.5" d="M0,-3.0v7 M-2.5,-0.5L0,-3.0L2.5,-0.5"/>
  </g>
  <g id="arrowRight" transform="rotate(90) translate(36 -43)">
    <use xlink:href="#rim"/>
    <path pointer-events="none" fill="none" stroke="white" stroke-width="1.5" d="M0,-3.0v7 M-2.5,-0.5L0,-3.0L2.5,-0.5"/>
  </g>
  <g id="arrowDown" transform="rotate(180) translate(-30 -48)">
    <use xlink:href="#rim"/>
    <path pointer-events="none" fill="none" stroke="white" stroke-width="1.5" d="M0,-3.0v7 M-2.5,-0.5L0,-3.0L2.5,-0.5"/>
  </g>
  <g id="arrowLeft" transform="rotate(270) translate(-36 17)">
    <use xlink:href="#rim"/>
    <path pointer-events="none" fill="none" stroke="white" stroke-width="1.5" d="M0,-3.0v7 M-2.5,-0.5L0,-3.0L2.5,-0.5"/>
  </g>
  <g id="resetDef">
    <use xlink:href="#rim2" fill="#404040"><set attributeName="fill" to="#808080" begin="reset.mouseover" end="reset.mouseout"/></use>
  </g>
</defs>
<script type="application/ecmascript">
var viewWidth = 204;
var viewHeight = 682;
var sectionId = 'dynsection-0';
</script>
<script type="application/ecmascript" xlink:href="../../svg.min.js"/>
<svg id="graph" class="graph">
<g id="viewport">
<title>Arcane::Accelerator::ReducerSum2&lt; DataType &gt;</title>
<!-- Node1 -->
<g id="Node000001" class="node">
<title>Node1</title>
<g id="a_Node000001"><a xlink:title="Classe pour effectuer une réduction &#39;somme&#39;.">
<polygon fill="#999999" stroke="transparent" points="174,-75 22,-75 22,0 174,0 174,-75"/>
<text text-anchor="start" x="27" y="-62.5" font-family="Helvetica,sans-Serif" font-size="10.00">Arcane::Accelerator</text>
<text text-anchor="start" x="27" y="-51.5" font-family="Helvetica,sans-Serif" font-size="10.00">::ReducerSum2&lt; DataType &gt;</text>
<text text-anchor="start" x="96" y="-36.5" font-family="Helvetica,sans-Serif" font-size="10.00"> </text>
<text text-anchor="start" x="39.5" y="-21.5" font-family="Helvetica,sans-Serif" font-size="10.00">+</text>
<text text-anchor="start" x="66" y="-21.5" font-family="Helvetica,sans-Serif" font-size="10.00">ReducerSum2()</text>
<text text-anchor="start" x="39.5" y="-6.5" font-family="Helvetica,sans-Serif" font-size="10.00">+</text>
<text text-anchor="start" x="66" y="-6.5" font-family="Helvetica,sans-Serif" font-size="10.00">combine()</text>
<polygon fill="#666666" stroke="#666666" points="22,-46.5 22,-46.5 174,-46.5 174,-46.5 22,-46.5"/>
<polygon fill="#666666" stroke="#666666" points="22,-31.5 22,-31.5 174,-31.5 174,-31.5 22,-31.5"/>
<polygon fill="none" stroke="#666666" points="22,0 22,-75 174,-75 174,0 22,0"/>
</a>
</g>
</g>
<!-- Node2 -->
<g id="Node000002" class="node">
<title>Node2</title>
<g id="a_Node000002"><a xlink:href="../../d1/db3/classArcane_1_1Accelerator_1_1HostDeviceReducer2.html" target="_top" xlink:title=" ">
<polygon fill="white" stroke="transparent" points="184.5,-335 11.5,-335 11.5,-111 184.5,-111 184.5,-335"/>
<text text-anchor="start" x="17" y="-323" font-family="Helvetica,sans-Serif" font-size="10.00">Arcane::Accelerator</text>
<text text-anchor="start" x="17" y="-312" font-family="Helvetica,sans-Serif" font-size="10.00">::HostDeviceReducer2</text>
<text text-anchor="start" x="17" y="-301" font-family="Helvetica,sans-Serif" font-size="10.00">&lt; DataType, Impl::ReduceFunctor</text>
<text text-anchor="start" x="47.5" y="-290" font-family="Helvetica,sans-Serif" font-size="10.00">Sum&lt; DataType &gt; &gt;</text>
<text text-anchor="start" x="17.5" y="-275" font-family="Helvetica,sans-Serif" font-size="10.00">+</text>
<text text-anchor="start" x="32" y="-275" font-family="Helvetica,sans-Serif" font-size="10.00">m_grid_memory_info</text>
<text text-anchor="start" x="17.5" y="-260" font-family="Helvetica,sans-Serif" font-size="10.00">+</text>
<text text-anchor="start" x="32" y="-260" font-family="Helvetica,sans-Serif" font-size="10.00">m_host_memory_for_reduced</text>
<text text-anchor="start" x="32" y="-249" font-family="Helvetica,sans-Serif" font-size="10.00">_value</text>
<text text-anchor="start" x="17.5" y="-234" font-family="Helvetica,sans-Serif" font-size="10.00">+</text>
<text text-anchor="start" x="32" y="-234" font-family="Helvetica,sans-Serif" font-size="10.00">m_local_value</text>
<text text-anchor="start" x="17.5" y="-219" font-family="Helvetica,sans-Serif" font-size="10.00">+</text>
<text text-anchor="start" x="32" y="-219" font-family="Helvetica,sans-Serif" font-size="10.00">m_grid_memory_info</text>
<text text-anchor="start" x="17.5" y="-204" font-family="Helvetica,sans-Serif" font-size="10.00">+</text>
<text text-anchor="start" x="32" y="-204" font-family="Helvetica,sans-Serif" font-size="10.00">m_host_memory_for_reduced</text>
<text text-anchor="start" x="32" y="-193" font-family="Helvetica,sans-Serif" font-size="10.00">_value</text>
<text text-anchor="start" x="17.5" y="-178" font-family="Helvetica,sans-Serif" font-size="10.00">+</text>
<text text-anchor="start" x="32" y="-178" font-family="Helvetica,sans-Serif" font-size="10.00">m_local_value</text>
<text text-anchor="start" x="17.5" y="-163" font-family="Helvetica,sans-Serif" font-size="10.00">+</text>
<text text-anchor="start" x="32" y="-163" font-family="Helvetica,sans-Serif" font-size="10.00">HostDeviceReducer2()</text>
<text text-anchor="start" x="17.5" y="-148" font-family="Helvetica,sans-Serif" font-size="10.00">+</text>
<text text-anchor="start" x="32" y="-148" font-family="Helvetica,sans-Serif" font-size="10.00">reducedValue()</text>
<text text-anchor="start" x="17.5" y="-133" font-family="Helvetica,sans-Serif" font-size="10.00">+</text>
<text text-anchor="start" x="32" y="-133" font-family="Helvetica,sans-Serif" font-size="10.00">HostDeviceReducer2()</text>
<text text-anchor="start" x="17.5" y="-118" font-family="Helvetica,sans-Serif" font-size="10.00">+</text>
<text text-anchor="start" x="32" y="-118" font-family="Helvetica,sans-Serif" font-size="10.00">reducedValue()</text>
<polygon fill="#666666" stroke="#666666" points="12,-285 12,-285 185,-285 185,-285 12,-285"/>
<polygon fill="#666666" stroke="#666666" points="12,-173 12,-173 30,-173 30,-173 12,-173"/>
<polygon fill="#666666" stroke="#666666" points="30,-173 30,-173 185,-173 185,-173 30,-173"/>
<polygon fill="none" stroke="#666666" points="11.5,-111 11.5,-335 184.5,-335 184.5,-111 11.5,-111"/>
</a>
</g>
</g>
<!-- Node2&#45;&gt;Node1 -->
<g id="edge1_Node000001_Node000002" class="edge">
<title>Node2&#45;&gt;Node1</title>
<g id="a_edge1_Node000001_Node000002"><a xlink:title=" ">
<path fill="none" stroke="#63b8ff" d="M98,-100.7C98,-91.56 98,-82.87 98,-75.03"/>
<polygon fill="none" stroke="#63b8ff" points="94.5,-100.76 98,-110.76 101.5,-100.76 94.5,-100.76"/>
</a>
</g>
</g>
<!-- Node3 -->
<g id="Node000003" class="node">
<title>Node3</title>
<g id="a_Node000003"><a xlink:href="../../d6/dac/classArcane_1_1Accelerator_1_1HostDeviceReducerBase.html" target="_top" xlink:title="Opérateur de réduction.">
<polygon fill="white" stroke="transparent" points="196,-674 0,-674 0,-371 196,-371 196,-674"/>
<text text-anchor="start" x="24.5" y="-661.5" font-family="Helvetica,sans-Serif" font-size="10.00">Arcane::Accelerator</text>
<text text-anchor="start" x="24.5" y="-650.5" font-family="Helvetica,sans-Serif" font-size="10.00">::HostDeviceReducerBase</text>
<text text-anchor="start" x="24.5" y="-639.5" font-family="Helvetica,sans-Serif" font-size="10.00">&lt; DataType, ReduceFunctor &gt;</text>
<text text-anchor="start" x="4" y="-624.5" font-family="Helvetica,sans-Serif" font-size="10.00">#</text>
<text text-anchor="start" x="17" y="-624.5" font-family="Helvetica,sans-Serif" font-size="10.00">m_memory_impl</text>
<text text-anchor="start" x="4" y="-609.5" font-family="Helvetica,sans-Serif" font-size="10.00">#</text>
<text text-anchor="start" x="17" y="-609.5" font-family="Helvetica,sans-Serif" font-size="10.00">m_host_memory_for_reduced</text>
<text text-anchor="start" x="17" y="-598.5" font-family="Helvetica,sans-Serif" font-size="10.00">_value</text>
<text text-anchor="start" x="4" y="-583.5" font-family="Helvetica,sans-Serif" font-size="10.00">#</text>
<text text-anchor="start" x="17" y="-583.5" font-family="Helvetica,sans-Serif" font-size="10.00">m_grid_memory_info</text>
<text text-anchor="start" x="4" y="-568.5" font-family="Helvetica,sans-Serif" font-size="10.00">#</text>
<text text-anchor="start" x="17" y="-568.5" font-family="Helvetica,sans-Serif" font-size="10.00">m_local_value</text>
<text text-anchor="start" x="4" y="-553.5" font-family="Helvetica,sans-Serif" font-size="10.00">#</text>
<text text-anchor="start" x="17" y="-553.5" font-family="Helvetica,sans-Serif" font-size="10.00">m_atomic_parent_value</text>
<text text-anchor="start" x="4" y="-538.5" font-family="Helvetica,sans-Serif" font-size="10.00">#</text>
<text text-anchor="start" x="17" y="-538.5" font-family="Helvetica,sans-Serif" font-size="10.00">m_atomic_value</text>
<text text-anchor="start" x="6.5" y="-523.5" font-family="Helvetica,sans-Serif" font-size="10.00">&#45;</text>
<text text-anchor="start" x="17" y="-523.5" font-family="Helvetica,sans-Serif" font-size="10.00">m_is_master_instance</text>
<text text-anchor="start" x="4" y="-508.5" font-family="Helvetica,sans-Serif" font-size="10.00">+</text>
<text text-anchor="start" x="17" y="-508.5" font-family="Helvetica,sans-Serif" font-size="10.00">HostDeviceReducerBase()</text>
<text text-anchor="start" x="4" y="-493.5" font-family="Helvetica,sans-Serif" font-size="10.00">+</text>
<text text-anchor="start" x="17" y="-493.5" font-family="Helvetica,sans-Serif" font-size="10.00">HostDeviceReducerBase()</text>
<text text-anchor="start" x="4" y="-478.5" font-family="Helvetica,sans-Serif" font-size="10.00">+</text>
<text text-anchor="start" x="17" y="-478.5" font-family="Helvetica,sans-Serif" font-size="10.00">HostDeviceReducerBase()</text>
<text text-anchor="start" x="4" y="-463.5" font-family="Helvetica,sans-Serif" font-size="10.00">+</text>
<text text-anchor="start" x="17" y="-463.5" font-family="Helvetica,sans-Serif" font-size="10.00">operator=()</text>
<text text-anchor="start" x="4" y="-448.5" font-family="Helvetica,sans-Serif" font-size="10.00">+</text>
<text text-anchor="start" x="17" y="-448.5" font-family="Helvetica,sans-Serif" font-size="10.00">setValue()</text>
<text text-anchor="start" x="4" y="-433.5" font-family="Helvetica,sans-Serif" font-size="10.00">+</text>
<text text-anchor="start" x="17" y="-433.5" font-family="Helvetica,sans-Serif" font-size="10.00">localValue()</text>
<text text-anchor="start" x="4" y="-418.5" font-family="Helvetica,sans-Serif" font-size="10.00">#</text>
<text text-anchor="start" x="17" y="-418.5" font-family="Helvetica,sans-Serif" font-size="10.00">_reduce()</text>
<text text-anchor="start" x="4" y="-403.5" font-family="Helvetica,sans-Serif" font-size="10.00">#</text>
<text text-anchor="start" x="17" y="-403.5" font-family="Helvetica,sans-Serif" font-size="10.00">_finalize()</text>
<text text-anchor="start" x="6.5" y="-388.5" font-family="Helvetica,sans-Serif" font-size="10.00">&#45;</text>
<text text-anchor="start" x="17" y="-388.5" font-family="Helvetica,sans-Serif" font-size="10.00">_getHostPinnedMemoryForReduced</text>
<text text-anchor="start" x="17" y="-377.5" font-family="Helvetica,sans-Serif" font-size="10.00">Value()</text>
<polygon fill="#666666" stroke="#666666" points="0,-634.5 0,-634.5 196,-634.5 196,-634.5 0,-634.5"/>
<polygon fill="#666666" stroke="#666666" points="0,-518.5 0,-518.5 15,-518.5 15,-518.5 0,-518.5"/>
<polygon fill="#666666" stroke="#666666" points="15,-518.5 15,-518.5 196,-518.5 196,-518.5 15,-518.5"/>
<polygon fill="none" stroke="#666666" points="0,-371 0,-674 196,-674 196,-371 0,-371"/>
</a>
</g>
</g>
<!-- Node3&#45;&gt;Node2 -->
<g id="edge2_Node000002_Node000003" class="edge">
<title>Node3&#45;&gt;Node2</title>
<g id="a_edge2_Node000002_Node000003"><a xlink:title=" ">
<path fill="none" stroke="#63b8ff" d="M98,-360.51C98,-351.95 98,-343.45 98,-335.12"/>
<polygon fill="none" stroke="#63b8ff" points="94.5,-360.57 98,-370.57 101.5,-360.57 94.5,-360.57"/>
</a>
</g>
</g>
</g>
</svg>

<g id="navigator" transform="translate(0 0)" fill="#404254">
  <rect fill="#f2f5e9" fill-opacity="0.5" stroke="#606060" stroke-width=".5" x="0" y="0" width="60" height="60"/>
  <use id="zoomplus" xlink:href="#zoomPlus" x="17" y="9" onmousedown="handleZoom(evt,'in')"/>
  <use id="zoomminus" xlink:href="#zoomMin" x="42" y="9" onmousedown="handleZoom(evt,'out')"/>
  <use id="reset" xlink:href="#resetDef" x="30" y="36" onmousedown="handleReset()"/>
   <use id="arrowup" xlink:href="#arrowUp" x="0" y="0" onmousedown="handlePan(0,-1)"/>
  <use id="arrowright" xlink:href="#arrowRight" x="0" y="0" onmousedown="handlePan(1,0)"/>
  <use id="arrowdown" xlink:href="#arrowDown" x="0" y="0" onmousedown="handlePan(0,1)"/>
  <use id="arrowleft" xlink:href="#arrowLeft" x="0" y="0" onmousedown="handlePan(-1,0)"/>
</g>
<svg viewBox="0 0 15 15" width="100%" height="30px" preserveAspectRatio="xMaxYMin meet">
 <g id="arrow_out" transform="scale(0.3 0.3)">
  <a xlink:href="classArcane_1_1Accelerator_1_1ReducerSum2__inherit__graph_org.svg" target="_base">
   <rect id="button" ry="5" rx="5" y="6" x="6" height="38" width="38"
        fill="#f2f5e9" fill-opacity="0.5" stroke="#606060" stroke-width="1.0"/>
   <path id="arrow"
     d="M 11.500037,31.436501 C 11.940474,20.09759 22.043105,11.32322 32.158766,21.979434 L 37.068811,17.246167 C 37.068811,17.246167 37.088388,32 37.088388,32 L 22.160133,31.978069 C 22.160133,31.978069 26.997745,27.140456 26.997745,27.140456 C 18.528582,18.264221 13.291696,25.230495 11.500037,31.436501 z"
     style="fill:#404040;"/>
  </a>
 </g>
</svg>

<style type='text/css'>
<![CDATA[
[data-mouse-over-selected='false'] { opacity: 0.7; }
[data-mouse-over-selected='true']  { opacity: 1.0; }
]]>
</style>
<script type="application/ecmascript"><![CDATA[
document.addEventListener('DOMContentLoaded', (event) => {
  highlightEdges();
  highlightAdjacentNodes();
});
]]></script>
</svg>
