<?xml version="1.0" encoding="UTF-8" standalone="no"?>
<!DOCTYPE svg PUBLIC "-//W3C//DTD SVG 1.1//EN"
 "http://www.w3.org/Graphics/SVG/1.1/DTD/svg11.dtd">
<!-- Generated by graphviz version 14.1.2 (0)
 -->
<!-- Title: Arcane::Alina::PreconditionedSolver&lt; Precond, IterativeSolver &gt; Pages: 1 -->
<!--zoomable 511 -->

<svg id="main" version="1.1" xmlns="http://www.w3.org/2000/svg" xmlns:xlink="http://www.w3.org/1999/xlink" xml:space="preserve" onload="init(evt)">

<style type="text/css"><![CDATA[
.node, .edge {opacity: 0.7;}
.node.selected, .edge.selected {opacity: 1;}
.edge:hover path { stroke: red; }
.edge:hover polygon { stroke: red; fill: red; }
]]></style>

<defs>
  <circle id="rim" cx="0" cy="0" r="7"/>
  <circle id="rim2" cx="0" cy="0" r="3.5"/>
  <g id="zoomPlus">
    <use xlink:href="#rim" fill="#404040"><set attributeName="fill" to="#808080" begin="zoomplus.mouseover" end="zoomplus.mouseout"/></use>
    <path d="M-4,0h8M0,-4v8" fill="none" stroke="white" stroke-width="1.5" pointer-events="none"/>
  </g>
  <g id="zoomMin">
    <use xlink:href="#rim" fill="#404040"><set attributeName="fill" to="#808080" begin="zoomminus.mouseover" end="zoomminus.mouseout"/></use>
    <path d="M-4,0h8" fill="none" stroke="white" stroke-width="1.5" pointer-events="none"/>
  </g>
  <g id="arrowUp" transform="translate(30 24)">
    <use xlink:href="#rim"/>
    <path pointer-events="none" fill="none" stroke="white" stroke-width="1.5" d="M0,-3.0v7 M-2.5,-0.5L0,-3.0L2.5,-0.5"/>
  </g>
  <g id="arrowRight" transform="rotate(90) translate(36 -43)">
    <use xlink:href="#rim"/>
    <path pointer-events="none" fill="none" stroke="white" stroke-width="1.5" d="M0,-3.0v7 M-2.5,-0.5L0,-3.0L2.5,-0.5"/>
  </g>
  <g id="arrowDown" transform="rotate(180) translate(-30 -48)">
    <use xlink:href="#rim"/>
    <path pointer-events="none" fill="none" stroke="white" stroke-width="1.5" d="M0,-3.0v7 M-2.5,-0.5L0,-3.0L2.5,-0.5"/>
  </g>
  <g id="arrowLeft" transform="rotate(270) translate(-36 17)">
    <use xlink:href="#rim"/>
    <path pointer-events="none" fill="none" stroke="white" stroke-width="1.5" d="M0,-3.0v7 M-2.5,-0.5L0,-3.0L2.5,-0.5"/>
  </g>
  <g id="resetDef">
    <use xlink:href="#rim2" fill="#404040"><set attributeName="fill" to="#808080" begin="reset.mouseover" end="reset.mouseout"/></use>
  </g>
</defs>
<script type="application/ecmascript">
var viewWidth = 300;
var viewHeight = 511;
var sectionId = 'dynsection-1';
</script>
<script type="application/ecmascript" xlink:href="../../svg.min.js"/>
<svg id="graph" class="graph">
<g id="viewport">
<title>Arcane::Alina::PreconditionedSolver&lt; Precond, IterativeSolver &gt;</title>
<!-- Node1 -->
<g id="Node000001" class="node">
<title>Node1</title>
<g id="a_Node000001"><a xlink:title="Convenience class that bundles together a preconditioner and an iterative solver.">
<polygon fill="#999999" stroke="none" points="219.25,-318.25 41,-318.25 41,0 219.25,0 219.25,-318.25"/>
<text xml:space="preserve" text-anchor="start" x="45" y="-304.75" font-family="Helvetica,sans-Serif" font-size="10.00">Arcane::Alina::Preconditioned</text>
<text xml:space="preserve" text-anchor="start" x="45" y="-292" font-family="Helvetica,sans-Serif" font-size="10.00">Solver&lt; Precond, IterativeSolver &gt;</text>
<text xml:space="preserve" text-anchor="start" x="59" y="-275.25" font-family="Helvetica,sans-Serif" font-size="10.00">&#45;</text>
<text xml:space="preserve" text-anchor="start" x="80.75" y="-275.25" font-family="Helvetica,sans-Serif" font-size="10.00">n</text>
<text xml:space="preserve" text-anchor="start" x="59" y="-258.5" font-family="Helvetica,sans-Serif" font-size="10.00">&#45;</text>
<text xml:space="preserve" text-anchor="start" x="80.75" y="-258.5" font-family="Helvetica,sans-Serif" font-size="10.00">P</text>
<text xml:space="preserve" text-anchor="start" x="59" y="-241.75" font-family="Helvetica,sans-Serif" font-size="10.00">&#45;</text>
<text xml:space="preserve" text-anchor="start" x="80.75" y="-241.75" font-family="Helvetica,sans-Serif" font-size="10.00">S</text>
<text xml:space="preserve" text-anchor="start" x="56.75" y="-225" font-family="Helvetica,sans-Serif" font-size="10.00">+</text>
<text xml:space="preserve" text-anchor="start" x="80.75" y="-225" font-family="Helvetica,sans-Serif" font-size="10.00">PreconditionedSolver()</text>
<text xml:space="preserve" text-anchor="start" x="56.75" y="-208.25" font-family="Helvetica,sans-Serif" font-size="10.00">+</text>
<text xml:space="preserve" text-anchor="start" x="80.75" y="-208.25" font-family="Helvetica,sans-Serif" font-size="10.00">PreconditionedSolver()</text>
<text xml:space="preserve" text-anchor="start" x="56.75" y="-191.5" font-family="Helvetica,sans-Serif" font-size="10.00">+</text>
<text xml:space="preserve" text-anchor="start" x="80.75" y="-191.5" font-family="Helvetica,sans-Serif" font-size="10.00">operator()()</text>
<text xml:space="preserve" text-anchor="start" x="56.75" y="-174.75" font-family="Helvetica,sans-Serif" font-size="10.00">+</text>
<text xml:space="preserve" text-anchor="start" x="80.75" y="-174.75" font-family="Helvetica,sans-Serif" font-size="10.00">operator()()</text>
<text xml:space="preserve" text-anchor="start" x="56.75" y="-158" font-family="Helvetica,sans-Serif" font-size="10.00">+</text>
<text xml:space="preserve" text-anchor="start" x="80.75" y="-158" font-family="Helvetica,sans-Serif" font-size="10.00">apply()</text>
<text xml:space="preserve" text-anchor="start" x="56.75" y="-141.25" font-family="Helvetica,sans-Serif" font-size="10.00">+</text>
<text xml:space="preserve" text-anchor="start" x="80.75" y="-141.25" font-family="Helvetica,sans-Serif" font-size="10.00">precond()</text>
<text xml:space="preserve" text-anchor="start" x="56.75" y="-124.5" font-family="Helvetica,sans-Serif" font-size="10.00">+</text>
<text xml:space="preserve" text-anchor="start" x="80.75" y="-124.5" font-family="Helvetica,sans-Serif" font-size="10.00">precond()</text>
<text xml:space="preserve" text-anchor="start" x="56.75" y="-107.75" font-family="Helvetica,sans-Serif" font-size="10.00">+</text>
<text xml:space="preserve" text-anchor="start" x="80.75" y="-107.75" font-family="Helvetica,sans-Serif" font-size="10.00">solver()</text>
<text xml:space="preserve" text-anchor="start" x="56.75" y="-91" font-family="Helvetica,sans-Serif" font-size="10.00">+</text>
<text xml:space="preserve" text-anchor="start" x="80.75" y="-91" font-family="Helvetica,sans-Serif" font-size="10.00">solver()</text>
<text xml:space="preserve" text-anchor="start" x="56.75" y="-74.25" font-family="Helvetica,sans-Serif" font-size="10.00">+</text>
<text xml:space="preserve" text-anchor="start" x="80.75" y="-74.25" font-family="Helvetica,sans-Serif" font-size="10.00">system_matrix_ptr()</text>
<text xml:space="preserve" text-anchor="start" x="56.75" y="-57.5" font-family="Helvetica,sans-Serif" font-size="10.00">+</text>
<text xml:space="preserve" text-anchor="start" x="80.75" y="-57.5" font-family="Helvetica,sans-Serif" font-size="10.00">system_matrix()</text>
<text xml:space="preserve" text-anchor="start" x="56.75" y="-40.75" font-family="Helvetica,sans-Serif" font-size="10.00">+</text>
<text xml:space="preserve" text-anchor="start" x="80.75" y="-40.75" font-family="Helvetica,sans-Serif" font-size="10.00">get_params()</text>
<text xml:space="preserve" text-anchor="start" x="56.75" y="-24" font-family="Helvetica,sans-Serif" font-size="10.00">+</text>
<text xml:space="preserve" text-anchor="start" x="80.75" y="-24" font-family="Helvetica,sans-Serif" font-size="10.00">size()</text>
<text xml:space="preserve" text-anchor="start" x="56.75" y="-7.25" font-family="Helvetica,sans-Serif" font-size="10.00">+</text>
<text xml:space="preserve" text-anchor="start" x="80.75" y="-7.25" font-family="Helvetica,sans-Serif" font-size="10.00">bytes()</text>
<polygon fill="#666666" stroke="#666666" points="41,-286.75 41,-286.75 219.25,-286.75 219.25,-286.75 41,-286.75"/>
<polygon fill="#666666" stroke="#666666" points="41,-236.5 41,-236.5 78.75,-236.5 78.75,-236.5 41,-236.5"/>
<polygon fill="#666666" stroke="#666666" points="78.75,-236.5 78.75,-236.5 219.25,-236.5 219.25,-236.5 78.75,-236.5"/>
<polygon fill="none" stroke="#666666" points="41,0 41,-318.25 219.25,-318.25 219.25,0 41,0"/>
</a>
</g>
</g>
<!-- Node2 -->
<g id="Node000002" class="node">
<title>Node2</title>
<g id="a_Node000002"><a xlink:href="../../d6/d28/classArcane_1_1Alina_1_1detail_1_1non__copyable.html" target="_top" xlink:title=" ">
<polygon fill="white" stroke="none" points="106.25,-496.62 0,-496.62 0,-379.38 106.25,-379.38 106.25,-496.62"/>
<text xml:space="preserve" text-anchor="start" x="4" y="-483.12" font-family="Helvetica,sans-Serif" font-size="10.00">Arcane::Alina::detail</text>
<text xml:space="preserve" text-anchor="start" x="16.38" y="-470.38" font-family="Helvetica,sans-Serif" font-size="10.00">::non_copyable</text>
<text xml:space="preserve" text-anchor="start" x="51.62" y="-453.62" font-family="Helvetica,sans-Serif" font-size="10.00"> </text>
<text xml:space="preserve" text-anchor="start" x="4.69" y="-436.88" font-family="Helvetica,sans-Serif" font-size="10.00">#</text>
<text xml:space="preserve" text-anchor="start" x="17.62" y="-436.88" font-family="Helvetica,sans-Serif" font-size="10.00">non_copyable()</text>
<text xml:space="preserve" text-anchor="start" x="4.69" y="-420.12" font-family="Helvetica,sans-Serif" font-size="10.00">#</text>
<text xml:space="preserve" text-anchor="start" x="17.62" y="-420.12" font-family="Helvetica,sans-Serif" font-size="10.00">~non_copyable()</text>
<text xml:space="preserve" text-anchor="start" x="4.69" y="-403.38" font-family="Helvetica,sans-Serif" font-size="10.00">#</text>
<text xml:space="preserve" text-anchor="start" x="17.62" y="-403.38" font-family="Helvetica,sans-Serif" font-size="10.00">non_copyable()</text>
<text xml:space="preserve" text-anchor="start" x="4.69" y="-386.62" font-family="Helvetica,sans-Serif" font-size="10.00">#</text>
<text xml:space="preserve" text-anchor="start" x="17.62" y="-386.62" font-family="Helvetica,sans-Serif" font-size="10.00">operator=()</text>
<polygon fill="#bfbfbf" stroke="#bfbfbf" points="0,-465.12 0,-465.12 106.25,-465.12 106.25,-465.12 0,-465.12"/>
<polygon fill="#bfbfbf" stroke="#bfbfbf" points="0,-448.38 0,-448.38 106.25,-448.38 106.25,-448.38 0,-448.38"/>
<polygon fill="none" stroke="#bfbfbf" points="0,-379.38 0,-496.62 106.25,-496.62 106.25,-379.38 0,-379.38"/>
</a>
</g>
</g>
<!-- Node2&#45;&gt;Node1 -->
<g id="edge1_Node000001_Node000002" class="edge">
<title>Node2&#45;&gt;Node1</title>
<g id="a_edge1_Node000001_Node000002"><a xlink:title=" ">
<path fill="none" stroke="#63b8ff" d="M72.15,-368.59C76.48,-353.03 81.25,-335.85 86.15,-318.24"/>
<polygon fill="none" stroke="#63b8ff" points="68.79,-367.6 69.48,-378.17 75.54,-369.48 68.79,-367.6"/>
</a>
</g>
</g>
<!-- Node3 -->
<g id="Node000003" class="node">
<title>Node3</title>
<g id="a_Node000003"><a xlink:href="../../d8/d2e/structArcane_1_1Alina_1_1PreconditionedSolver_1_1params.html" target="_top" xlink:title="Combined parameters of the bundled preconditioner and the iterative solver.">
<polygon fill="white" stroke="none" points="291.62,-503 124.62,-503 124.62,-373 291.62,-373 291.62,-503"/>
<text xml:space="preserve" text-anchor="start" x="128.62" y="-489.5" font-family="Helvetica,sans-Serif" font-size="10.00">Arcane::Alina::Preconditioned</text>
<text xml:space="preserve" text-anchor="start" x="128.62" y="-476.75" font-family="Helvetica,sans-Serif" font-size="10.00">Solver&lt; Precond, IterativeSolver</text>
<text xml:space="preserve" text-anchor="start" x="181.12" y="-464" font-family="Helvetica,sans-Serif" font-size="10.00"> &gt;::params</text>
<text xml:space="preserve" text-anchor="start" x="154.25" y="-447.25" font-family="Helvetica,sans-Serif" font-size="10.00">+</text>
<text xml:space="preserve" text-anchor="start" x="192.12" y="-447.25" font-family="Helvetica,sans-Serif" font-size="10.00">precond</text>
<text xml:space="preserve" text-anchor="start" x="154.25" y="-430.5" font-family="Helvetica,sans-Serif" font-size="10.00">+</text>
<text xml:space="preserve" text-anchor="start" x="192.12" y="-430.5" font-family="Helvetica,sans-Serif" font-size="10.00">solver</text>
<text xml:space="preserve" text-anchor="start" x="154.25" y="-413.75" font-family="Helvetica,sans-Serif" font-size="10.00">+</text>
<text xml:space="preserve" text-anchor="start" x="192.12" y="-413.75" font-family="Helvetica,sans-Serif" font-size="10.00">params()</text>
<text xml:space="preserve" text-anchor="start" x="154.25" y="-397" font-family="Helvetica,sans-Serif" font-size="10.00">+</text>
<text xml:space="preserve" text-anchor="start" x="192.12" y="-397" font-family="Helvetica,sans-Serif" font-size="10.00">params()</text>
<text xml:space="preserve" text-anchor="start" x="154.25" y="-380.25" font-family="Helvetica,sans-Serif" font-size="10.00">+</text>
<text xml:space="preserve" text-anchor="start" x="192.12" y="-380.25" font-family="Helvetica,sans-Serif" font-size="10.00">get()</text>
<polygon fill="#666666" stroke="#666666" points="124.62,-458.75 124.62,-458.75 291.62,-458.75 291.62,-458.75 124.62,-458.75"/>
<polygon fill="#666666" stroke="#666666" points="124.62,-425.25 124.62,-425.25 190.12,-425.25 190.12,-425.25 124.62,-425.25"/>
<polygon fill="#666666" stroke="#666666" points="190.12,-425.25 190.12,-425.25 291.62,-425.25 291.62,-425.25 190.12,-425.25"/>
<polygon fill="none" stroke="#666666" points="124.62,-373 124.62,-503 291.62,-503 291.62,-373 124.62,-373"/>
</a>
</g>
</g>
<!-- Node3&#45;&gt;Node1 -->
<g id="edge2_Node000001_Node000003" class="edge">
<title>Node3&#45;&gt;Node1</title>
<g id="a_edge2_Node000001_Node000003"><a xlink:title=" ">
<path fill="none" stroke="#63b8ff" d="M190.13,-373.13C186.4,-359.9 182.31,-345.37 178.07,-330.32"/>
<polygon fill="none" stroke="#63b8ff" points="178.14,-330.56 172.66,-325.87 174.89,-319.01 180.36,-323.7 178.14,-330.56"/>
</a>
</g>
<text xml:space="preserve" text-anchor="start" x="185.9" y="-342.5" font-family="Helvetica,sans-Serif" font-size="10.00" fill="grey">+prm</text>
</g>
</g>
</svg>

<g id="navigator" transform="translate(0 0)" fill="#404254">
  <rect fill="#f2f5e9" fill-opacity="0.5" stroke="#606060" stroke-width=".5" x="0" y="0" width="60" height="60"/>
  <use id="zoomplus" xlink:href="#zoomPlus" x="17" y="9" onmousedown="handleZoom(evt,'in')"/>
  <use id="zoomminus" xlink:href="#zoomMin" x="42" y="9" onmousedown="handleZoom(evt,'out')"/>
  <use id="reset" xlink:href="#resetDef" x="30" y="36" onmousedown="handleReset()"/>
   <use id="arrowup" xlink:href="#arrowUp" x="0" y="0" onmousedown="handlePan(0,-1)"/>
  <use id="arrowright" xlink:href="#arrowRight" x="0" y="0" onmousedown="handlePan(1,0)"/>
  <use id="arrowdown" xlink:href="#arrowDown" x="0" y="0" onmousedown="handlePan(0,1)"/>
  <use id="arrowleft" xlink:href="#arrowLeft" x="0" y="0" onmousedown="handlePan(-1,0)"/>
</g>
<svg viewBox="0 0 15 15" width="100%" height="30px" preserveAspectRatio="xMaxYMin meet">
 <g id="arrow_out" transform="scale(0.3 0.3)">
  <a xlink:href="classArcane_1_1Alina_1_1PreconditionedSolver__coll__graph_org.svg" target="_base">
   <rect id="button" ry="5" rx="5" y="6" x="6" height="38" width="38"
        fill="#f2f5e9" fill-opacity="0.5" stroke="#606060" stroke-width="1.0"/>
   <path id="arrow"
     d="M 11.500037,31.436501 C 11.940474,20.09759 22.043105,11.32322 32.158766,21.979434 L 37.068811,17.246167 C 37.068811,17.246167 37.088388,32 37.088388,32 L 22.160133,31.978069 C 22.160133,31.978069 26.997745,27.140456 26.997745,27.140456 C 18.528582,18.264221 13.291696,25.230495 11.500037,31.436501 z"
     style="fill:#404040;"/>
  </a>
 </g>
</svg>

<style type='text/css'>
<![CDATA[
[data-mouse-over-selected='false'] { opacity: 0.7; }
[data-mouse-over-selected='true']  { opacity: 1.0; }
]]>
</style>
<script type="application/ecmascript"><![CDATA[
document.addEventListener('DOMContentLoaded', (event) => {
  highlightEdges();
  highlightAdjacentNodes();
});
]]></script>
</svg>
