<?xml version="1.0" encoding="UTF-8" standalone="no"?>
<!DOCTYPE svg PUBLIC "-//W3C//DTD SVG 1.1//EN"
 "http://www.w3.org/Graphics/SVG/1.1/DTD/svg11.dtd">
<!-- Generated by graphviz version 14.1.2 (0)
 -->
<!-- Title: Arcane::impl::ArrayExtentsValue&lt; IndexType_, X0 &gt; Pages: 1 -->
<svg width="147pt" height="364pt"
 viewBox="0.00 0.00 147.00 364.00" xmlns="http://www.w3.org/2000/svg" xmlns:xlink="http://www.w3.org/1999/xlink">
<g id="graph0" class="graph" transform="scale(1 1) rotate(0) translate(4 360.25)">
<title>Arcane::impl::ArrayExtentsValue&lt; IndexType_, X0 &gt;</title>
<!-- Node1 -->
<g id="Node000001" class="node">
<title>Node1</title>
<g id="a_Node000001"><a xlink:title="Spécialisation pour contenir les dimensions d&#39;un tableau à 1 dimension.">
<polygon fill="#999999" stroke="none" points="138.5,-234.5 0,-234.5 0,0 138.5,0 138.5,-234.5"/>
<text xml:space="preserve" text-anchor="start" x="4" y="-221" font-family="Helvetica,sans-Serif" font-size="10.00">Arcane::impl::ArrayExtents</text>
<text xml:space="preserve" text-anchor="start" x="7.75" y="-208.25" font-family="Helvetica,sans-Serif" font-size="10.00">Value&lt; IndexType_, X0 &gt;</text>
<text xml:space="preserve" text-anchor="start" x="67.75" y="-191.5" font-family="Helvetica,sans-Serif" font-size="10.00"> </text>
<text xml:space="preserve" text-anchor="start" x="7.88" y="-174.75" font-family="Helvetica,sans-Serif" font-size="10.00">+</text>
<text xml:space="preserve" text-anchor="start" x="24" y="-174.75" font-family="Helvetica,sans-Serif" font-size="10.00">ArrayExtentsValue()</text>
<text xml:space="preserve" text-anchor="start" x="7.88" y="-158" font-family="Helvetica,sans-Serif" font-size="10.00">+</text>
<text xml:space="preserve" text-anchor="start" x="24" y="-158" font-family="Helvetica,sans-Serif" font-size="10.00">constExtent()</text>
<text xml:space="preserve" text-anchor="start" x="7.88" y="-141.25" font-family="Helvetica,sans-Serif" font-size="10.00">+</text>
<text xml:space="preserve" text-anchor="start" x="24" y="-141.25" font-family="Helvetica,sans-Serif" font-size="10.00">asStdArray()</text>
<text xml:space="preserve" text-anchor="start" x="7.88" y="-124.5" font-family="Helvetica,sans-Serif" font-size="10.00">+</text>
<text xml:space="preserve" text-anchor="start" x="24" y="-124.5" font-family="Helvetica,sans-Serif" font-size="10.00">totalNbElement()</text>
<text xml:space="preserve" text-anchor="start" x="7.88" y="-107.75" font-family="Helvetica,sans-Serif" font-size="10.00">+</text>
<text xml:space="preserve" text-anchor="start" x="24" y="-107.75" font-family="Helvetica,sans-Serif" font-size="10.00">getIndices()</text>
<text xml:space="preserve" text-anchor="start" x="7.88" y="-91" font-family="Helvetica,sans-Serif" font-size="10.00">+</text>
<text xml:space="preserve" text-anchor="start" x="24" y="-91" font-family="Helvetica,sans-Serif" font-size="10.00">extent0()</text>
<text xml:space="preserve" text-anchor="start" x="7.88" y="-74.25" font-family="Helvetica,sans-Serif" font-size="10.00">+</text>
<text xml:space="preserve" text-anchor="start" x="24" y="-74.25" font-family="Helvetica,sans-Serif" font-size="10.00">dynamicExtents()</text>
<text xml:space="preserve" text-anchor="start" x="7.88" y="-57.5" font-family="Helvetica,sans-Serif" font-size="10.00">#</text>
<text xml:space="preserve" text-anchor="start" x="24" y="-57.5" font-family="Helvetica,sans-Serif" font-size="10.00">ArrayExtentsValue()</text>
<text xml:space="preserve" text-anchor="start" x="7.88" y="-40.75" font-family="Helvetica,sans-Serif" font-size="10.00">#</text>
<text xml:space="preserve" text-anchor="start" x="24" y="-40.75" font-family="Helvetica,sans-Serif" font-size="10.00">ArrayExtentsValue()</text>
<text xml:space="preserve" text-anchor="start" x="7.88" y="-24" font-family="Helvetica,sans-Serif" font-size="10.00">#</text>
<text xml:space="preserve" text-anchor="start" x="24" y="-24" font-family="Helvetica,sans-Serif" font-size="10.00">_removeFirstExtent()</text>
<text xml:space="preserve" text-anchor="start" x="7.88" y="-7.25" font-family="Helvetica,sans-Serif" font-size="10.00">#</text>
<text xml:space="preserve" text-anchor="start" x="24" y="-7.25" font-family="Helvetica,sans-Serif" font-size="10.00">_checkIndex()</text>
<polygon fill="#666666" stroke="#666666" points="0,-203 0,-203 138.5,-203 138.5,-203 0,-203"/>
<polygon fill="#666666" stroke="#666666" points="0,-186.25 0,-186.25 138.5,-186.25 138.5,-186.25 0,-186.25"/>
<polygon fill="none" stroke="#666666" points="0,0 0,-234.5 138.5,-234.5 138.5,0 0,0"/>
</a>
</g>
</g>
<!-- Node2 -->
<g id="Node000002" class="node">
<title>Node2</title>
<g id="a_Node000002"><a xlink:href="../../d9/d3f/classArcane_1_1impl_1_1ExtentValue.html" target="_top" xlink:title=" ">
<polygon fill="white" stroke="none" points="136.25,-356.25 2.25,-356.25 2.25,-289.25 136.25,-289.25 136.25,-356.25"/>
<text xml:space="preserve" text-anchor="start" x="6.25" y="-342.75" font-family="Helvetica,sans-Serif" font-size="10.00">Arcane::impl::ExtentValue</text>
<text xml:space="preserve" text-anchor="start" x="51.62" y="-330" font-family="Helvetica,sans-Serif" font-size="10.00">&lt; X0 &gt;</text>
<text xml:space="preserve" text-anchor="start" x="27.94" y="-313.25" font-family="Helvetica,sans-Serif" font-size="10.00">+</text>
<text xml:space="preserve" text-anchor="start" x="61.88" y="-313.25" font-family="Helvetica,sans-Serif" font-size="10.00">v</text>
<text xml:space="preserve" text-anchor="start" x="27.94" y="-296.5" font-family="Helvetica,sans-Serif" font-size="10.00">+</text>
<text xml:space="preserve" text-anchor="start" x="61.88" y="-296.5" font-family="Helvetica,sans-Serif" font-size="10.00">size()</text>
<polygon fill="#666666" stroke="#666666" points="2.25,-324.75 2.25,-324.75 136.25,-324.75 136.25,-324.75 2.25,-324.75"/>
<polygon fill="#666666" stroke="#666666" points="2.25,-308 2.25,-308 59.88,-308 59.88,-308 2.25,-308"/>
<polygon fill="#666666" stroke="#666666" points="59.88,-308 59.88,-308 136.25,-308 136.25,-308 59.88,-308"/>
<polygon fill="none" stroke="#666666" points="2.25,-289.25 2.25,-356.25 136.25,-356.25 136.25,-289.25 2.25,-289.25"/>
</a>
</g>
</g>
<!-- Node2&#45;&gt;Node1 -->
<g id="edge1_Node000001_Node000002" class="edge">
<title>Node2&#45;&gt;Node1</title>
<g id="a_edge1_Node000001_Node000002"><a xlink:title=" ">
<path fill="none" stroke="#63b8ff" d="M69.25,-289.5C69.25,-277.3 69.25,-262.54 69.25,-246.87"/>
<polygon fill="none" stroke="#63b8ff" points="69.25,-247.03 65.25,-241.03 69.25,-235.03 73.25,-241.03 69.25,-247.03"/>
</a>
</g>
<text xml:space="preserve" text-anchor="start" x="72.25" y="-258.75" font-family="Helvetica,sans-Serif" font-size="10.00" fill="grey">#m_extent0</text>
</g>
</g>
</svg>
