<?xml version="1.0" encoding="UTF-8" standalone="no"?>
<!DOCTYPE svg PUBLIC "-//W3C//DTD SVG 1.1//EN"
 "http://www.w3.org/Graphics/SVG/1.1/DTD/svg11.dtd">
<!-- Generated by graphviz version 2.43.0 (0)
 -->
<!-- Title: Arcane::VtkHdfV2DataWriter::DatasetGroupAndName Pages: 1 -->
<svg width="375pt" height="1548pt"
 viewBox="0.00 0.00 374.50 1548.00" xmlns="http://www.w3.org/2000/svg" xmlns:xlink="http://www.w3.org/1999/xlink">
<g id="graph0" class="graph" transform="scale(1 1) rotate(0) translate(4 1544)">
<title>Arcane::VtkHdfV2DataWriter::DatasetGroupAndName</title>
<!-- Node1 -->
<g id="Node000001" class="node">
<title>Node1</title>
<g id="a_Node000001"><a xlink:title="Classe pour conserver un couple (hdf_group,nom_du_dataset).">
<polygon fill="#999999" stroke="transparent" points="210.5,-60 60.5,-60 60.5,0 210.5,0 210.5,-60"/>
<text text-anchor="start" x="65.5" y="-48" font-family="Helvetica,sans-Serif" font-size="10.00">Arcane::VtkHdfV2DataWriter</text>
<text text-anchor="start" x="74.5" y="-37" font-family="Helvetica,sans-Serif" font-size="10.00">::DatasetGroupAndName</text>
<text text-anchor="start" x="133.5" y="-22" font-family="Helvetica,sans-Serif" font-size="10.00"> </text>
<text text-anchor="start" x="65.5" y="-7" font-family="Helvetica,sans-Serif" font-size="10.00">+</text>
<text text-anchor="start" x="79.5" y="-7" font-family="Helvetica,sans-Serif" font-size="10.00">DatasetGroupAndName()</text>
<polygon fill="#666666" stroke="#666666" points="60.5,-32 60.5,-32 210.5,-32 210.5,-32 60.5,-32"/>
<polygon fill="#666666" stroke="#666666" points="60.5,-17 60.5,-17 210.5,-17 210.5,-17 60.5,-17"/>
<polygon fill="none" stroke="#666666" points="60.5,0 60.5,-60 210.5,-60 210.5,0 60.5,0"/>
</a>
</g>
</g>
<!-- Node2 -->
<g id="Node000002" class="node">
<title>Node2</title>
<g id="a_Node000002"><a xlink:href="../../df/d6f/classArcane_1_1Hdf5Utils_1_1HGroup.html" target="_top" xlink:title="Encapsule un hid_t pour un groupe.">
<polygon fill="white" stroke="transparent" points="112.5,-499 6.5,-499 6.5,-244 112.5,-244 112.5,-499"/>
<text text-anchor="start" x="13.5" y="-486.5" font-family="Helvetica,sans-Serif" font-size="10.00">Arcane::Hdf5Utils::</text>
<text text-anchor="start" x="41" y="-475.5" font-family="Helvetica,sans-Serif" font-size="10.00">HGroup</text>
<text text-anchor="start" x="57.5" y="-460.5" font-family="Helvetica,sans-Serif" font-size="10.00"> </text>
<text text-anchor="start" x="10.5" y="-445.5" font-family="Helvetica,sans-Serif" font-size="10.00">+</text>
<text text-anchor="start" x="23.5" y="-445.5" font-family="Helvetica,sans-Serif" font-size="10.00">HGroup()</text>
<text text-anchor="start" x="10.5" y="-430.5" font-family="Helvetica,sans-Serif" font-size="10.00">+</text>
<text text-anchor="start" x="23.5" y="-430.5" font-family="Helvetica,sans-Serif" font-size="10.00">~HGroup()</text>
<text text-anchor="start" x="10.5" y="-415.5" font-family="Helvetica,sans-Serif" font-size="10.00">+</text>
<text text-anchor="start" x="23.5" y="-415.5" font-family="Helvetica,sans-Serif" font-size="10.00">HGroup()</text>
<text text-anchor="start" x="10.5" y="-400.5" font-family="Helvetica,sans-Serif" font-size="10.00">+</text>
<text text-anchor="start" x="23.5" y="-400.5" font-family="Helvetica,sans-Serif" font-size="10.00">operator=()</text>
<text text-anchor="start" x="10.5" y="-385.5" font-family="Helvetica,sans-Serif" font-size="10.00">+</text>
<text text-anchor="start" x="23.5" y="-385.5" font-family="Helvetica,sans-Serif" font-size="10.00">operator=()</text>
<text text-anchor="start" x="10.5" y="-370.5" font-family="Helvetica,sans-Serif" font-size="10.00">+</text>
<text text-anchor="start" x="23.5" y="-370.5" font-family="Helvetica,sans-Serif" font-size="10.00">HGroup()</text>
<text text-anchor="start" x="10.5" y="-355.5" font-family="Helvetica,sans-Serif" font-size="10.00">+</text>
<text text-anchor="start" x="23.5" y="-355.5" font-family="Helvetica,sans-Serif" font-size="10.00">create()</text>
<text text-anchor="start" x="10.5" y="-340.5" font-family="Helvetica,sans-Serif" font-size="10.00">+</text>
<text text-anchor="start" x="23.5" y="-340.5" font-family="Helvetica,sans-Serif" font-size="10.00">openOrCreate()</text>
<text text-anchor="start" x="10.5" y="-325.5" font-family="Helvetica,sans-Serif" font-size="10.00">+</text>
<text text-anchor="start" x="23.5" y="-325.5" font-family="Helvetica,sans-Serif" font-size="10.00">recursiveCreate()</text>
<text text-anchor="start" x="10.5" y="-310.5" font-family="Helvetica,sans-Serif" font-size="10.00">+</text>
<text text-anchor="start" x="23.5" y="-310.5" font-family="Helvetica,sans-Serif" font-size="10.00">recursiveCreate()</text>
<text text-anchor="start" x="23.5" y="-295.5" font-family="Helvetica,sans-Serif" font-size="10.00">et 6 de plus...</text>
<text text-anchor="start" x="10.5" y="-280.5" font-family="Helvetica,sans-Serif" font-size="10.00">+</text>
<text text-anchor="start" x="23.5" y="-280.5" font-family="Helvetica,sans-Serif" font-size="10.00">hasChildren()</text>
<text text-anchor="start" x="13" y="-265.5" font-family="Helvetica,sans-Serif" font-size="10.00">&#45;</text>
<text text-anchor="start" x="23.5" y="-265.5" font-family="Helvetica,sans-Serif" font-size="10.00">_checkOrCreate()</text>
<text text-anchor="start" x="13" y="-250.5" font-family="Helvetica,sans-Serif" font-size="10.00">&#45;</text>
<text text-anchor="start" x="23.5" y="-250.5" font-family="Helvetica,sans-Serif" font-size="10.00">_checkExist()</text>
<polygon fill="#666666" stroke="#666666" points="6.5,-470.5 6.5,-470.5 112.5,-470.5 112.5,-470.5 6.5,-470.5"/>
<polygon fill="#666666" stroke="#666666" points="6.5,-455.5 6.5,-455.5 112.5,-455.5 112.5,-455.5 6.5,-455.5"/>
<polygon fill="none" stroke="#666666" points="6.5,-244 6.5,-499 112.5,-499 112.5,-244 6.5,-244"/>
</a>
</g>
</g>
<!-- Node2&#45;&gt;Node1 -->
<g id="edge1_Node000001_Node000002" class="edge">
<title>Node2&#45;&gt;Node1</title>
<g id="a_edge1_Node000001_Node000002"><a xlink:title=" ">
<path fill="none" stroke="#63b8ff" d="M87.91,-243.6C101.49,-182.92 116.83,-114.42 126.33,-71.97"/>
<polygon fill="none" stroke="#63b8ff" points="126.34,-71.9 123.75,-65.18 128.96,-60.19 131.56,-66.92 126.34,-71.9"/>
</a>
</g>
<text text-anchor="middle" x="144.5" y="-81" font-family="Helvetica,sans-Serif" font-size="10.00" fill="grey"> +group</text>
</g>
<!-- Node3 -->
<g id="Node000003" class="node">
<title>Node3</title>
<g id="a_Node000003"><a xlink:href="../../dd/d43/classArcane_1_1Hdf5Utils_1_1Hid.html" target="_top" xlink:title="Encapsule un hid_t.">
<polygon fill="white" stroke="transparent" points="119,-964.5 0,-964.5 0,-795.5 119,-795.5 119,-964.5"/>
<text text-anchor="start" x="5.5" y="-952" font-family="Helvetica,sans-Serif" font-size="10.00">Arcane::Hdf5Utils::Hid</text>
<text text-anchor="start" x="17" y="-937" font-family="Helvetica,sans-Serif" font-size="10.00">&#45;</text>
<text text-anchor="start" x="37.5" y="-937" font-family="Helvetica,sans-Serif" font-size="10.00">m_id</text>
<text text-anchor="start" x="14.5" y="-922" font-family="Helvetica,sans-Serif" font-size="10.00">+</text>
<text text-anchor="start" x="37.5" y="-922" font-family="Helvetica,sans-Serif" font-size="10.00">Hid()</text>
<text text-anchor="start" x="14.5" y="-907" font-family="Helvetica,sans-Serif" font-size="10.00">+</text>
<text text-anchor="start" x="37.5" y="-907" font-family="Helvetica,sans-Serif" font-size="10.00">Hid()</text>
<text text-anchor="start" x="14.5" y="-892" font-family="Helvetica,sans-Serif" font-size="10.00">+</text>
<text text-anchor="start" x="37.5" y="-892" font-family="Helvetica,sans-Serif" font-size="10.00">~Hid()</text>
<text text-anchor="start" x="14.5" y="-877" font-family="Helvetica,sans-Serif" font-size="10.00">+</text>
<text text-anchor="start" x="37.5" y="-877" font-family="Helvetica,sans-Serif" font-size="10.00">id()</text>
<text text-anchor="start" x="14.5" y="-862" font-family="Helvetica,sans-Serif" font-size="10.00">+</text>
<text text-anchor="start" x="37.5" y="-862" font-family="Helvetica,sans-Serif" font-size="10.00">isBad()</text>
<text text-anchor="start" x="14.5" y="-847" font-family="Helvetica,sans-Serif" font-size="10.00">#</text>
<text text-anchor="start" x="37.5" y="-847" font-family="Helvetica,sans-Serif" font-size="10.00">Hid()</text>
<text text-anchor="start" x="14.5" y="-832" font-family="Helvetica,sans-Serif" font-size="10.00">#</text>
<text text-anchor="start" x="37.5" y="-832" font-family="Helvetica,sans-Serif" font-size="10.00">_setId()</text>
<text text-anchor="start" x="14.5" y="-817" font-family="Helvetica,sans-Serif" font-size="10.00">#</text>
<text text-anchor="start" x="37.5" y="-817" font-family="Helvetica,sans-Serif" font-size="10.00">_setNullId()</text>
<text text-anchor="start" x="17" y="-802" font-family="Helvetica,sans-Serif" font-size="10.00">&#45;</text>
<text text-anchor="start" x="37.5" y="-802" font-family="Helvetica,sans-Serif" font-size="10.00">operator=()</text>
<polygon fill="#666666" stroke="#666666" points="0.5,-947 0.5,-947 119.5,-947 119.5,-947 0.5,-947"/>
<polygon fill="#666666" stroke="#666666" points="0.5,-932 0.5,-932 35.5,-932 35.5,-932 0.5,-932"/>
<polygon fill="#666666" stroke="#666666" points="35.5,-932 35.5,-932 119.5,-932 119.5,-932 35.5,-932"/>
<polygon fill="none" stroke="#666666" points="0,-795.5 0,-964.5 119,-964.5 119,-795.5 0,-795.5"/>
</a>
</g>
</g>
<!-- Node3&#45;&gt;Node2 -->
<g id="edge2_Node000002_Node000003" class="edge">
<title>Node3&#45;&gt;Node2</title>
<g id="a_edge2_Node000002_Node000003"><a xlink:title=" ">
<path fill="none" stroke="#63b8ff" d="M59.5,-785.25C59.5,-704.84 59.5,-588.25 59.5,-499.48"/>
<polygon fill="none" stroke="#63b8ff" points="56,-785.36 59.5,-795.36 63,-785.36 56,-785.36"/>
</a>
</g>
</g>
<!-- Node4 -->
<g id="Node000004" class="node">
<title>Node4</title>
<g id="a_Node000004"><a xlink:href="../../db/dc4/classArcane_1_1String.html" target="_top" xlink:title="Chaîne de caractères unicode.">
<polygon fill="white" stroke="transparent" points="296.5,-636 130.5,-636 130.5,-107 296.5,-107 296.5,-636"/>
<text text-anchor="start" x="179" y="-623.5" font-family="Helvetica,sans-Serif" font-size="10.00">Arcane::String</text>
<text text-anchor="start" x="137" y="-608.5" font-family="Helvetica,sans-Serif" font-size="10.00">&#45;</text>
<text text-anchor="start" x="147.5" y="-608.5" font-family="Helvetica,sans-Serif" font-size="10.00">m_const_ptr</text>
<text text-anchor="start" x="137" y="-593.5" font-family="Helvetica,sans-Serif" font-size="10.00">&#45;</text>
<text text-anchor="start" x="147.5" y="-593.5" font-family="Helvetica,sans-Serif" font-size="10.00">m_const_ptr_size</text>
<text text-anchor="start" x="134.5" y="-578.5" font-family="Helvetica,sans-Serif" font-size="10.00">+</text>
<text text-anchor="start" x="147.5" y="-578.5" font-family="Helvetica,sans-Serif" font-size="10.00">String()</text>
<text text-anchor="start" x="134.5" y="-563.5" font-family="Helvetica,sans-Serif" font-size="10.00">+</text>
<text text-anchor="start" x="147.5" y="-563.5" font-family="Helvetica,sans-Serif" font-size="10.00">String()</text>
<text text-anchor="start" x="134.5" y="-548.5" font-family="Helvetica,sans-Serif" font-size="10.00">+</text>
<text text-anchor="start" x="147.5" y="-548.5" font-family="Helvetica,sans-Serif" font-size="10.00">String()</text>
<text text-anchor="start" x="134.5" y="-533.5" font-family="Helvetica,sans-Serif" font-size="10.00">+</text>
<text text-anchor="start" x="147.5" y="-533.5" font-family="Helvetica,sans-Serif" font-size="10.00">String()</text>
<text text-anchor="start" x="134.5" y="-518.5" font-family="Helvetica,sans-Serif" font-size="10.00">+</text>
<text text-anchor="start" x="147.5" y="-518.5" font-family="Helvetica,sans-Serif" font-size="10.00">String()</text>
<text text-anchor="start" x="134.5" y="-503.5" font-family="Helvetica,sans-Serif" font-size="10.00">+</text>
<text text-anchor="start" x="147.5" y="-503.5" font-family="Helvetica,sans-Serif" font-size="10.00">String()</text>
<text text-anchor="start" x="134.5" y="-488.5" font-family="Helvetica,sans-Serif" font-size="10.00">+</text>
<text text-anchor="start" x="147.5" y="-488.5" font-family="Helvetica,sans-Serif" font-size="10.00">String()</text>
<text text-anchor="start" x="134.5" y="-473.5" font-family="Helvetica,sans-Serif" font-size="10.00">+</text>
<text text-anchor="start" x="147.5" y="-473.5" font-family="Helvetica,sans-Serif" font-size="10.00">String()</text>
<text text-anchor="start" x="134.5" y="-458.5" font-family="Helvetica,sans-Serif" font-size="10.00">+</text>
<text text-anchor="start" x="147.5" y="-458.5" font-family="Helvetica,sans-Serif" font-size="10.00">String()</text>
<text text-anchor="start" x="134.5" y="-443.5" font-family="Helvetica,sans-Serif" font-size="10.00">+</text>
<text text-anchor="start" x="147.5" y="-443.5" font-family="Helvetica,sans-Serif" font-size="10.00">String()</text>
<text text-anchor="start" x="147.5" y="-428.5" font-family="Helvetica,sans-Serif" font-size="10.00">et 46 de plus...</text>
<text text-anchor="start" x="134.5" y="-413.5" font-family="Helvetica,sans-Serif" font-size="10.00">+</text>
<text text-anchor="start" x="147.5" y="-413.5" font-family="Helvetica,sans-Serif" font-size="10.00">fromUtf8()</text>
<text text-anchor="start" x="134.5" y="-398.5" font-family="Helvetica,sans-Serif" font-size="10.00">+</text>
<text text-anchor="start" x="147.5" y="-398.5" font-family="Helvetica,sans-Serif" font-size="10.00">replaceWhiteSpace()</text>
<text text-anchor="start" x="134.5" y="-383.5" font-family="Helvetica,sans-Serif" font-size="10.00">+</text>
<text text-anchor="start" x="147.5" y="-383.5" font-family="Helvetica,sans-Serif" font-size="10.00">collapseWhiteSpace()</text>
<text text-anchor="start" x="134.5" y="-368.5" font-family="Helvetica,sans-Serif" font-size="10.00">+</text>
<text text-anchor="start" x="147.5" y="-368.5" font-family="Helvetica,sans-Serif" font-size="10.00">fromNumber()</text>
<text text-anchor="start" x="134.5" y="-353.5" font-family="Helvetica,sans-Serif" font-size="10.00">+</text>
<text text-anchor="start" x="147.5" y="-353.5" font-family="Helvetica,sans-Serif" font-size="10.00">fromNumber()</text>
<text text-anchor="start" x="134.5" y="-338.5" font-family="Helvetica,sans-Serif" font-size="10.00">+</text>
<text text-anchor="start" x="147.5" y="-338.5" font-family="Helvetica,sans-Serif" font-size="10.00">fromNumber()</text>
<text text-anchor="start" x="134.5" y="-323.5" font-family="Helvetica,sans-Serif" font-size="10.00">+</text>
<text text-anchor="start" x="147.5" y="-323.5" font-family="Helvetica,sans-Serif" font-size="10.00">fromNumber()</text>
<text text-anchor="start" x="134.5" y="-308.5" font-family="Helvetica,sans-Serif" font-size="10.00">+</text>
<text text-anchor="start" x="147.5" y="-308.5" font-family="Helvetica,sans-Serif" font-size="10.00">fromNumber()</text>
<text text-anchor="start" x="134.5" y="-293.5" font-family="Helvetica,sans-Serif" font-size="10.00">+</text>
<text text-anchor="start" x="147.5" y="-293.5" font-family="Helvetica,sans-Serif" font-size="10.00">fromNumber()</text>
<text text-anchor="start" x="134.5" y="-278.5" font-family="Helvetica,sans-Serif" font-size="10.00">+</text>
<text text-anchor="start" x="147.5" y="-278.5" font-family="Helvetica,sans-Serif" font-size="10.00">fromNumber()</text>
<text text-anchor="start" x="147.5" y="-263.5" font-family="Helvetica,sans-Serif" font-size="10.00">et 20 de plus...</text>
<text text-anchor="start" x="137" y="-248.5" font-family="Helvetica,sans-Serif" font-size="10.00">&#45;</text>
<text text-anchor="start" x="147.5" y="-248.5" font-family="Helvetica,sans-Serif" font-size="10.00">_checkClone()</text>
<text text-anchor="start" x="137" y="-233.5" font-family="Helvetica,sans-Serif" font-size="10.00">&#45;</text>
<text text-anchor="start" x="147.5" y="-233.5" font-family="Helvetica,sans-Serif" font-size="10.00">isLess()</text>
<text text-anchor="start" x="137" y="-218.5" font-family="Helvetica,sans-Serif" font-size="10.00">&#45;</text>
<text text-anchor="start" x="147.5" y="-218.5" font-family="Helvetica,sans-Serif" font-size="10.00">_append()</text>
<text text-anchor="start" x="137" y="-203.5" font-family="Helvetica,sans-Serif" font-size="10.00">&#45;</text>
<text text-anchor="start" x="147.5" y="-203.5" font-family="Helvetica,sans-Serif" font-size="10.00">_viewFromConstChar()</text>
<text text-anchor="start" x="137" y="-188.5" font-family="Helvetica,sans-Serif" font-size="10.00">&#45;</text>
<text text-anchor="start" x="147.5" y="-188.5" font-family="Helvetica,sans-Serif" font-size="10.00">_removeReference()</text>
<text text-anchor="start" x="137" y="-173.5" font-family="Helvetica,sans-Serif" font-size="10.00">&#45;</text>
<text text-anchor="start" x="147.5" y="-173.5" font-family="Helvetica,sans-Serif" font-size="10.00">_internalUtf16BE()</text>
<text text-anchor="start" x="137" y="-158.5" font-family="Helvetica,sans-Serif" font-size="10.00">&#45;</text>
<text text-anchor="start" x="147.5" y="-158.5" font-family="Helvetica,sans-Serif" font-size="10.00">_resetFields()</text>
<text text-anchor="start" x="137" y="-143.5" font-family="Helvetica,sans-Serif" font-size="10.00">&#45;</text>
<text text-anchor="start" x="147.5" y="-143.5" font-family="Helvetica,sans-Serif" font-size="10.00">_copyFields()</text>
<text text-anchor="start" x="137" y="-128.5" font-family="Helvetica,sans-Serif" font-size="10.00">&#45;</text>
<text text-anchor="start" x="147.5" y="-128.5" font-family="Helvetica,sans-Serif" font-size="10.00">_removeReferenceIfNeeded()</text>
<text text-anchor="start" x="137" y="-113.5" font-family="Helvetica,sans-Serif" font-size="10.00">&#45;</text>
<text text-anchor="start" x="147.5" y="-113.5" font-family="Helvetica,sans-Serif" font-size="10.00">_removeImplReference()</text>
<polygon fill="#666666" stroke="#666666" points="130.5,-618.5 130.5,-618.5 296.5,-618.5 296.5,-618.5 130.5,-618.5"/>
<polygon fill="#666666" stroke="#666666" points="130.5,-588.5 130.5,-588.5 145.5,-588.5 145.5,-588.5 130.5,-588.5"/>
<polygon fill="#666666" stroke="#666666" points="145.5,-588.5 145.5,-588.5 296.5,-588.5 296.5,-588.5 145.5,-588.5"/>
<polygon fill="none" stroke="#666666" points="130.5,-107 130.5,-636 296.5,-636 296.5,-107 130.5,-107"/>
</a>
</g>
</g>
<!-- Node4&#45;&gt;Node1 -->
<g id="edge3_Node000001_Node000004" class="edge">
<title>Node4&#45;&gt;Node1</title>
<g id="a_edge3_Node000001_Node000004"><a xlink:title=" ">
<path fill="none" stroke="#63b8ff" d="M178.82,-106.63C175.67,-96.87 172.24,-87.3 168.5,-78 167.5,-75.52 166.35,-73.04 165.09,-70.6"/>
<polygon fill="none" stroke="#63b8ff" points="165.04,-70.51 158.56,-67.35 158.99,-60.15 165.47,-63.32 165.04,-70.51"/>
</a>
</g>
<text text-anchor="middle" x="191.5" y="-81" font-family="Helvetica,sans-Serif" font-size="10.00" fill="grey"> +name</text>
</g>
<!-- Node5 -->
<g id="Node000005" class="node">
<title>Node5</title>
<g id="a_Node000005"><a xlink:href="../../d8/db4/classArcane_1_1StringImpl.html" target="_top" xlink:title="Implémentation de la classe String.">
<polygon fill="white" stroke="transparent" points="269.5,-1077 157.5,-1077 157.5,-683 269.5,-683 269.5,-1077"/>
<text text-anchor="start" x="168" y="-1065" font-family="Helvetica,sans-Serif" font-size="10.00">Arcane::StringImpl</text>
<text text-anchor="start" x="164" y="-1050" font-family="Helvetica,sans-Serif" font-size="10.00">&#45;</text>
<text text-anchor="start" x="174.5" y="-1050" font-family="Helvetica,sans-Serif" font-size="10.00">m_nb_ref</text>
<text text-anchor="start" x="164" y="-1035" font-family="Helvetica,sans-Serif" font-size="10.00">&#45;</text>
<text text-anchor="start" x="174.5" y="-1035" font-family="Helvetica,sans-Serif" font-size="10.00">m_flags</text>
<text text-anchor="start" x="161.5" y="-1020" font-family="Helvetica,sans-Serif" font-size="10.00">+</text>
<text text-anchor="start" x="174.5" y="-1020" font-family="Helvetica,sans-Serif" font-size="10.00">StringImpl()</text>
<text text-anchor="start" x="161.5" y="-1005" font-family="Helvetica,sans-Serif" font-size="10.00">+</text>
<text text-anchor="start" x="174.5" y="-1005" font-family="Helvetica,sans-Serif" font-size="10.00">StringImpl()</text>
<text text-anchor="start" x="161.5" y="-990" font-family="Helvetica,sans-Serif" font-size="10.00">+</text>
<text text-anchor="start" x="174.5" y="-990" font-family="Helvetica,sans-Serif" font-size="10.00">StringImpl()</text>
<text text-anchor="start" x="161.5" y="-975" font-family="Helvetica,sans-Serif" font-size="10.00">+</text>
<text text-anchor="start" x="174.5" y="-975" font-family="Helvetica,sans-Serif" font-size="10.00">utf16()</text>
<text text-anchor="start" x="161.5" y="-960" font-family="Helvetica,sans-Serif" font-size="10.00">+</text>
<text text-anchor="start" x="174.5" y="-960" font-family="Helvetica,sans-Serif" font-size="10.00">largeUtf8()</text>
<text text-anchor="start" x="161.5" y="-945" font-family="Helvetica,sans-Serif" font-size="10.00">+</text>
<text text-anchor="start" x="174.5" y="-945" font-family="Helvetica,sans-Serif" font-size="10.00">bytes()</text>
<text text-anchor="start" x="161.5" y="-930" font-family="Helvetica,sans-Serif" font-size="10.00">+</text>
<text text-anchor="start" x="174.5" y="-930" font-family="Helvetica,sans-Serif" font-size="10.00">isEqual()</text>
<text text-anchor="start" x="161.5" y="-915" font-family="Helvetica,sans-Serif" font-size="10.00">+</text>
<text text-anchor="start" x="174.5" y="-915" font-family="Helvetica,sans-Serif" font-size="10.00">isLessThan()</text>
<text text-anchor="start" x="161.5" y="-900" font-family="Helvetica,sans-Serif" font-size="10.00">+</text>
<text text-anchor="start" x="174.5" y="-900" font-family="Helvetica,sans-Serif" font-size="10.00">isEqual()</text>
<text text-anchor="start" x="161.5" y="-885" font-family="Helvetica,sans-Serif" font-size="10.00">+</text>
<text text-anchor="start" x="174.5" y="-885" font-family="Helvetica,sans-Serif" font-size="10.00">isLessThan()</text>
<text text-anchor="start" x="174.5" y="-870" font-family="Helvetica,sans-Serif" font-size="10.00">et 17 de plus...</text>
<text text-anchor="start" x="161.5" y="-855" font-family="Helvetica,sans-Serif" font-size="10.00">+</text>
<text text-anchor="start" x="174.5" y="-855" font-family="Helvetica,sans-Serif" font-size="10.00">substring()</text>
<text text-anchor="start" x="164" y="-840" font-family="Helvetica,sans-Serif" font-size="10.00">&#45;</text>
<text text-anchor="start" x="174.5" y="-840" font-family="Helvetica,sans-Serif" font-size="10.00">StringImpl()</text>
<text text-anchor="start" x="164" y="-825" font-family="Helvetica,sans-Serif" font-size="10.00">&#45;</text>
<text text-anchor="start" x="174.5" y="-825" font-family="Helvetica,sans-Serif" font-size="10.00">StringImpl()</text>
<text text-anchor="start" x="164" y="-810" font-family="Helvetica,sans-Serif" font-size="10.00">&#45;</text>
<text text-anchor="start" x="174.5" y="-810" font-family="Helvetica,sans-Serif" font-size="10.00">_setUtf16()</text>
<text text-anchor="start" x="164" y="-795" font-family="Helvetica,sans-Serif" font-size="10.00">&#45;</text>
<text text-anchor="start" x="174.5" y="-795" font-family="Helvetica,sans-Serif" font-size="10.00">_createUtf16()</text>
<text text-anchor="start" x="164" y="-780" font-family="Helvetica,sans-Serif" font-size="10.00">&#45;</text>
<text text-anchor="start" x="174.5" y="-780" font-family="Helvetica,sans-Serif" font-size="10.00">_setUtf8()</text>
<text text-anchor="start" x="164" y="-765" font-family="Helvetica,sans-Serif" font-size="10.00">&#45;</text>
<text text-anchor="start" x="174.5" y="-765" font-family="Helvetica,sans-Serif" font-size="10.00">_createUtf8()</text>
<text text-anchor="start" x="164" y="-750" font-family="Helvetica,sans-Serif" font-size="10.00">&#45;</text>
<text text-anchor="start" x="174.5" y="-750" font-family="Helvetica,sans-Serif" font-size="10.00">_checkReference()</text>
<text text-anchor="start" x="164" y="-735" font-family="Helvetica,sans-Serif" font-size="10.00">&#45;</text>
<text text-anchor="start" x="174.5" y="-735" font-family="Helvetica,sans-Serif" font-size="10.00">_invalidateUtf16()</text>
<text text-anchor="start" x="164" y="-720" font-family="Helvetica,sans-Serif" font-size="10.00">&#45;</text>
<text text-anchor="start" x="174.5" y="-720" font-family="Helvetica,sans-Serif" font-size="10.00">_invalidateUtf8()</text>
<text text-anchor="start" x="164" y="-705" font-family="Helvetica,sans-Serif" font-size="10.00">&#45;</text>
<text text-anchor="start" x="174.5" y="-705" font-family="Helvetica,sans-Serif" font-size="10.00">_setArray()</text>
<text text-anchor="start" x="174.5" y="-690" font-family="Helvetica,sans-Serif" font-size="10.00">et 6 de plus...</text>
<polygon fill="#666666" stroke="#666666" points="157.5,-1060 157.5,-1060 269.5,-1060 269.5,-1060 157.5,-1060"/>
<polygon fill="#666666" stroke="#666666" points="157.5,-1030 157.5,-1030 172.5,-1030 172.5,-1030 157.5,-1030"/>
<polygon fill="#666666" stroke="#666666" points="172.5,-1030 172.5,-1030 269.5,-1030 269.5,-1030 172.5,-1030"/>
<polygon fill="none" stroke="#666666" points="157.5,-683 157.5,-1077 269.5,-1077 269.5,-683 157.5,-683"/>
</a>
</g>
</g>
<!-- Node5&#45;&gt;Node4 -->
<g id="edge4_Node000004_Node000005" class="edge">
<title>Node5&#45;&gt;Node4</title>
<g id="a_edge4_Node000004_Node000005"><a xlink:title=" ">
<path fill="none" stroke="#63b8ff" d="M213.5,-682.81C213.5,-671.45 213.5,-659.94 213.5,-648.35"/>
<polygon fill="none" stroke="#63b8ff" points="213.5,-648.26 209.5,-642.26 213.5,-636.26 217.5,-642.26 213.5,-648.26"/>
</a>
</g>
<text text-anchor="middle" x="227.5" y="-657" font-family="Helvetica,sans-Serif" font-size="10.00" fill="grey"> &#45;m_p</text>
</g>
<!-- Node6 -->
<g id="Node000006" class="node">
<title>Node6</title>
<g id="a_Node000006"><a xlink:href="../../d0/d2b/classArcane_1_1Impl_1_1CoreArray.html" target="_top" xlink:title=" ">
<polygon fill="white" stroke="transparent" points="206.5,-1540 56.5,-1540 56.5,-1124 206.5,-1124 206.5,-1540"/>
<text text-anchor="start" x="73" y="-1528" font-family="Helvetica,sans-Serif" font-size="10.00">Arcane::Impl::CoreArray</text>
<text text-anchor="start" x="105" y="-1517" font-family="Helvetica,sans-Serif" font-size="10.00">&lt; UChar &gt;</text>
<text text-anchor="start" x="63" y="-1502" font-family="Helvetica,sans-Serif" font-size="10.00">&#45;</text>
<text text-anchor="start" x="73.5" y="-1502" font-family="Helvetica,sans-Serif" font-size="10.00">m_p</text>
<text text-anchor="start" x="63" y="-1487" font-family="Helvetica,sans-Serif" font-size="10.00">&#45;</text>
<text text-anchor="start" x="73.5" y="-1487" font-family="Helvetica,sans-Serif" font-size="10.00">m_p</text>
<text text-anchor="start" x="63" y="-1472" font-family="Helvetica,sans-Serif" font-size="10.00">&#45;</text>
<text text-anchor="start" x="73.5" y="-1472" font-family="Helvetica,sans-Serif" font-size="10.00">m_p</text>
<text text-anchor="start" x="60.5" y="-1457" font-family="Helvetica,sans-Serif" font-size="10.00">+</text>
<text text-anchor="start" x="73.5" y="-1457" font-family="Helvetica,sans-Serif" font-size="10.00">CoreArray()</text>
<text text-anchor="start" x="60.5" y="-1442" font-family="Helvetica,sans-Serif" font-size="10.00">+</text>
<text text-anchor="start" x="73.5" y="-1442" font-family="Helvetica,sans-Serif" font-size="10.00">CoreArray()</text>
<text text-anchor="start" x="60.5" y="-1427" font-family="Helvetica,sans-Serif" font-size="10.00">+</text>
<text text-anchor="start" x="73.5" y="-1427" font-family="Helvetica,sans-Serif" font-size="10.00">CoreArray()</text>
<text text-anchor="start" x="60.5" y="-1412" font-family="Helvetica,sans-Serif" font-size="10.00">+</text>
<text text-anchor="start" x="73.5" y="-1412" font-family="Helvetica,sans-Serif" font-size="10.00">operator Span&lt; const</text>
<text text-anchor="start" x="73.5" y="-1401" font-family="Helvetica,sans-Serif" font-size="10.00"> UChar &gt;()</text>
<text text-anchor="start" x="60.5" y="-1386" font-family="Helvetica,sans-Serif" font-size="10.00">+</text>
<text text-anchor="start" x="73.5" y="-1386" font-family="Helvetica,sans-Serif" font-size="10.00">operator Span&lt; UChar &gt;()</text>
<text text-anchor="start" x="60.5" y="-1371" font-family="Helvetica,sans-Serif" font-size="10.00">+</text>
<text text-anchor="start" x="73.5" y="-1371" font-family="Helvetica,sans-Serif" font-size="10.00">operator[]()</text>
<text text-anchor="start" x="60.5" y="-1356" font-family="Helvetica,sans-Serif" font-size="10.00">+</text>
<text text-anchor="start" x="73.5" y="-1356" font-family="Helvetica,sans-Serif" font-size="10.00">operator[]()</text>
<text text-anchor="start" x="60.5" y="-1341" font-family="Helvetica,sans-Serif" font-size="10.00">+</text>
<text text-anchor="start" x="73.5" y="-1341" font-family="Helvetica,sans-Serif" font-size="10.00">size()</text>
<text text-anchor="start" x="60.5" y="-1326" font-family="Helvetica,sans-Serif" font-size="10.00">+</text>
<text text-anchor="start" x="73.5" y="-1326" font-family="Helvetica,sans-Serif" font-size="10.00">begin()</text>
<text text-anchor="start" x="60.5" y="-1311" font-family="Helvetica,sans-Serif" font-size="10.00">+</text>
<text text-anchor="start" x="73.5" y="-1311" font-family="Helvetica,sans-Serif" font-size="10.00">begin()</text>
<text text-anchor="start" x="73.5" y="-1296" font-family="Helvetica,sans-Serif" font-size="10.00">et 71 de plus...</text>
<text text-anchor="start" x="63" y="-1281" font-family="Helvetica,sans-Serif" font-size="10.00">&#45;</text>
<text text-anchor="start" x="73.5" y="-1281" font-family="Helvetica,sans-Serif" font-size="10.00">_constView()</text>
<text text-anchor="start" x="63" y="-1266" font-family="Helvetica,sans-Serif" font-size="10.00">&#45;</text>
<text text-anchor="start" x="73.5" y="-1266" font-family="Helvetica,sans-Serif" font-size="10.00">_view()</text>
<text text-anchor="start" x="63" y="-1251" font-family="Helvetica,sans-Serif" font-size="10.00">&#45;</text>
<text text-anchor="start" x="73.5" y="-1251" font-family="Helvetica,sans-Serif" font-size="10.00">_constSpan()</text>
<text text-anchor="start" x="63" y="-1236" font-family="Helvetica,sans-Serif" font-size="10.00">&#45;</text>
<text text-anchor="start" x="73.5" y="-1236" font-family="Helvetica,sans-Serif" font-size="10.00">_span()</text>
<text text-anchor="start" x="63" y="-1221" font-family="Helvetica,sans-Serif" font-size="10.00">&#45;</text>
<text text-anchor="start" x="73.5" y="-1221" font-family="Helvetica,sans-Serif" font-size="10.00">_add()</text>
<text text-anchor="start" x="63" y="-1206" font-family="Helvetica,sans-Serif" font-size="10.00">&#45;</text>
<text text-anchor="start" x="73.5" y="-1206" font-family="Helvetica,sans-Serif" font-size="10.00">_data()</text>
<text text-anchor="start" x="63" y="-1191" font-family="Helvetica,sans-Serif" font-size="10.00">&#45;</text>
<text text-anchor="start" x="73.5" y="-1191" font-family="Helvetica,sans-Serif" font-size="10.00">_data()</text>
<text text-anchor="start" x="63" y="-1176" font-family="Helvetica,sans-Serif" font-size="10.00">&#45;</text>
<text text-anchor="start" x="73.5" y="-1176" font-family="Helvetica,sans-Serif" font-size="10.00">_constView()</text>
<text text-anchor="start" x="63" y="-1161" font-family="Helvetica,sans-Serif" font-size="10.00">&#45;</text>
<text text-anchor="start" x="73.5" y="-1161" font-family="Helvetica,sans-Serif" font-size="10.00">_view()</text>
<text text-anchor="start" x="63" y="-1146" font-family="Helvetica,sans-Serif" font-size="10.00">&#45;</text>
<text text-anchor="start" x="73.5" y="-1146" font-family="Helvetica,sans-Serif" font-size="10.00">_constSpan()</text>
<text text-anchor="start" x="73.5" y="-1131" font-family="Helvetica,sans-Serif" font-size="10.00">et 11 de plus...</text>
<polygon fill="#666666" stroke="#666666" points="56.5,-1512 56.5,-1512 206.5,-1512 206.5,-1512 56.5,-1512"/>
<polygon fill="#666666" stroke="#666666" points="56.5,-1467 56.5,-1467 71.5,-1467 71.5,-1467 56.5,-1467"/>
<polygon fill="#666666" stroke="#666666" points="71.5,-1467 71.5,-1467 206.5,-1467 206.5,-1467 71.5,-1467"/>
<polygon fill="none" stroke="#666666" points="56.5,-1124 56.5,-1540 206.5,-1540 206.5,-1124 56.5,-1124"/>
</a>
</g>
</g>
<!-- Node6&#45;&gt;Node5 -->
<g id="edge5_Node000005_Node000006" class="edge">
<title>Node6&#45;&gt;Node5</title>
<g id="a_edge5_Node000005_Node000006"><a xlink:title=" ">
<path fill="none" stroke="#63b8ff" d="M169.26,-1123.78C171.37,-1112.23 173.48,-1100.61 175.59,-1089.05"/>
<polygon fill="none" stroke="#63b8ff" points="175.63,-1088.83 172.77,-1082.21 177.78,-1077.03 180.64,-1083.65 175.63,-1088.83"/>
</a>
</g>
<text text-anchor="middle" x="212" y="-1098" font-family="Helvetica,sans-Serif" font-size="10.00" fill="grey"> &#45;m_utf16_array</text>
</g>
<!-- Node7 -->
<g id="Node000007" class="node">
<title>Node7</title>
<g id="a_Node000007"><a xlink:href="../../d0/d2b/classArcane_1_1Impl_1_1CoreArray.html" target="_top" xlink:title=" ">
<polygon fill="white" stroke="transparent" points="366.5,-1540 224.5,-1540 224.5,-1124 366.5,-1124 366.5,-1540"/>
<text text-anchor="start" x="237" y="-1528" font-family="Helvetica,sans-Serif" font-size="10.00">Arcane::Impl::CoreArray</text>
<text text-anchor="start" x="272.5" y="-1517" font-family="Helvetica,sans-Serif" font-size="10.00">&lt; Byte &gt;</text>
<text text-anchor="start" x="231" y="-1502" font-family="Helvetica,sans-Serif" font-size="10.00">&#45;</text>
<text text-anchor="start" x="241.5" y="-1502" font-family="Helvetica,sans-Serif" font-size="10.00">m_p</text>
<text text-anchor="start" x="231" y="-1487" font-family="Helvetica,sans-Serif" font-size="10.00">&#45;</text>
<text text-anchor="start" x="241.5" y="-1487" font-family="Helvetica,sans-Serif" font-size="10.00">m_p</text>
<text text-anchor="start" x="231" y="-1472" font-family="Helvetica,sans-Serif" font-size="10.00">&#45;</text>
<text text-anchor="start" x="241.5" y="-1472" font-family="Helvetica,sans-Serif" font-size="10.00">m_p</text>
<text text-anchor="start" x="228.5" y="-1457" font-family="Helvetica,sans-Serif" font-size="10.00">+</text>
<text text-anchor="start" x="241.5" y="-1457" font-family="Helvetica,sans-Serif" font-size="10.00">CoreArray()</text>
<text text-anchor="start" x="228.5" y="-1442" font-family="Helvetica,sans-Serif" font-size="10.00">+</text>
<text text-anchor="start" x="241.5" y="-1442" font-family="Helvetica,sans-Serif" font-size="10.00">CoreArray()</text>
<text text-anchor="start" x="228.5" y="-1427" font-family="Helvetica,sans-Serif" font-size="10.00">+</text>
<text text-anchor="start" x="241.5" y="-1427" font-family="Helvetica,sans-Serif" font-size="10.00">CoreArray()</text>
<text text-anchor="start" x="228.5" y="-1412" font-family="Helvetica,sans-Serif" font-size="10.00">+</text>
<text text-anchor="start" x="241.5" y="-1412" font-family="Helvetica,sans-Serif" font-size="10.00">operator Span&lt; const</text>
<text text-anchor="start" x="241.5" y="-1401" font-family="Helvetica,sans-Serif" font-size="10.00"> Byte &gt;()</text>
<text text-anchor="start" x="228.5" y="-1386" font-family="Helvetica,sans-Serif" font-size="10.00">+</text>
<text text-anchor="start" x="241.5" y="-1386" font-family="Helvetica,sans-Serif" font-size="10.00">operator Span&lt; Byte &gt;()</text>
<text text-anchor="start" x="228.5" y="-1371" font-family="Helvetica,sans-Serif" font-size="10.00">+</text>
<text text-anchor="start" x="241.5" y="-1371" font-family="Helvetica,sans-Serif" font-size="10.00">operator[]()</text>
<text text-anchor="start" x="228.5" y="-1356" font-family="Helvetica,sans-Serif" font-size="10.00">+</text>
<text text-anchor="start" x="241.5" y="-1356" font-family="Helvetica,sans-Serif" font-size="10.00">operator[]()</text>
<text text-anchor="start" x="228.5" y="-1341" font-family="Helvetica,sans-Serif" font-size="10.00">+</text>
<text text-anchor="start" x="241.5" y="-1341" font-family="Helvetica,sans-Serif" font-size="10.00">size()</text>
<text text-anchor="start" x="228.5" y="-1326" font-family="Helvetica,sans-Serif" font-size="10.00">+</text>
<text text-anchor="start" x="241.5" y="-1326" font-family="Helvetica,sans-Serif" font-size="10.00">begin()</text>
<text text-anchor="start" x="228.5" y="-1311" font-family="Helvetica,sans-Serif" font-size="10.00">+</text>
<text text-anchor="start" x="241.5" y="-1311" font-family="Helvetica,sans-Serif" font-size="10.00">begin()</text>
<text text-anchor="start" x="241.5" y="-1296" font-family="Helvetica,sans-Serif" font-size="10.00">et 71 de plus...</text>
<text text-anchor="start" x="231" y="-1281" font-family="Helvetica,sans-Serif" font-size="10.00">&#45;</text>
<text text-anchor="start" x="241.5" y="-1281" font-family="Helvetica,sans-Serif" font-size="10.00">_constView()</text>
<text text-anchor="start" x="231" y="-1266" font-family="Helvetica,sans-Serif" font-size="10.00">&#45;</text>
<text text-anchor="start" x="241.5" y="-1266" font-family="Helvetica,sans-Serif" font-size="10.00">_view()</text>
<text text-anchor="start" x="231" y="-1251" font-family="Helvetica,sans-Serif" font-size="10.00">&#45;</text>
<text text-anchor="start" x="241.5" y="-1251" font-family="Helvetica,sans-Serif" font-size="10.00">_constSpan()</text>
<text text-anchor="start" x="231" y="-1236" font-family="Helvetica,sans-Serif" font-size="10.00">&#45;</text>
<text text-anchor="start" x="241.5" y="-1236" font-family="Helvetica,sans-Serif" font-size="10.00">_span()</text>
<text text-anchor="start" x="231" y="-1221" font-family="Helvetica,sans-Serif" font-size="10.00">&#45;</text>
<text text-anchor="start" x="241.5" y="-1221" font-family="Helvetica,sans-Serif" font-size="10.00">_add()</text>
<text text-anchor="start" x="231" y="-1206" font-family="Helvetica,sans-Serif" font-size="10.00">&#45;</text>
<text text-anchor="start" x="241.5" y="-1206" font-family="Helvetica,sans-Serif" font-size="10.00">_data()</text>
<text text-anchor="start" x="231" y="-1191" font-family="Helvetica,sans-Serif" font-size="10.00">&#45;</text>
<text text-anchor="start" x="241.5" y="-1191" font-family="Helvetica,sans-Serif" font-size="10.00">_data()</text>
<text text-anchor="start" x="231" y="-1176" font-family="Helvetica,sans-Serif" font-size="10.00">&#45;</text>
<text text-anchor="start" x="241.5" y="-1176" font-family="Helvetica,sans-Serif" font-size="10.00">_constView()</text>
<text text-anchor="start" x="231" y="-1161" font-family="Helvetica,sans-Serif" font-size="10.00">&#45;</text>
<text text-anchor="start" x="241.5" y="-1161" font-family="Helvetica,sans-Serif" font-size="10.00">_view()</text>
<text text-anchor="start" x="231" y="-1146" font-family="Helvetica,sans-Serif" font-size="10.00">&#45;</text>
<text text-anchor="start" x="241.5" y="-1146" font-family="Helvetica,sans-Serif" font-size="10.00">_constSpan()</text>
<text text-anchor="start" x="241.5" y="-1131" font-family="Helvetica,sans-Serif" font-size="10.00">et 11 de plus...</text>
<polygon fill="#666666" stroke="#666666" points="224.5,-1512 224.5,-1512 366.5,-1512 366.5,-1512 224.5,-1512"/>
<polygon fill="#666666" stroke="#666666" points="224.5,-1467 224.5,-1467 239.5,-1467 239.5,-1467 224.5,-1467"/>
<polygon fill="#666666" stroke="#666666" points="239.5,-1467 239.5,-1467 366.5,-1467 366.5,-1467 239.5,-1467"/>
<polygon fill="none" stroke="#666666" points="224.5,-1124 224.5,-1540 366.5,-1540 366.5,-1124 224.5,-1124"/>
</a>
</g>
</g>
<!-- Node7&#45;&gt;Node5 -->
<g id="edge6_Node000005_Node000007" class="edge">
<title>Node7&#45;&gt;Node5</title>
<g id="a_edge6_Node000005_Node000007"><a xlink:title=" ">
<path fill="none" stroke="#63b8ff" d="M260.68,-1123.74C258.95,-1114.02 257.22,-1104.4 255.5,-1095 255.15,-1093.08 254.79,-1091.14 254.44,-1089.2"/>
<polygon fill="none" stroke="#63b8ff" points="254.39,-1088.97 249.37,-1083.8 252.21,-1077.17 257.23,-1082.34 254.39,-1088.97"/>
</a>
</g>
<text text-anchor="middle" x="293" y="-1098" font-family="Helvetica,sans-Serif" font-size="10.00" fill="grey"> &#45;m_utf8_array</text>
</g>
</g>
</svg>
