<?xml version="1.0" encoding="UTF-8" standalone="no"?>
<!DOCTYPE svg PUBLIC "-//W3C//DTD SVG 1.1//EN"
 "http://www.w3.org/Graphics/SVG/1.1/DTD/svg11.dtd">
<!-- Generated by graphviz version 2.43.0 (0)
 -->
<!-- Title: Arcane::Convert::toDouble Pages: 1 -->
<!--zoomable 654 -->

<svg id="main" version="1.1" xmlns="http://www.w3.org/2000/svg" xmlns:xlink="http://www.w3.org/1999/xlink" xml:space="preserve" onload="init(evt)">

<style type="text/css"><![CDATA[
.node, .edge {opacity: 0.7;}
.node.selected, .edge.selected {opacity: 1;}
.edge:hover path { stroke: red; }
.edge:hover polygon { stroke: red; fill: red; }
]]></style>

<defs>
  <circle id="rim" cx="0" cy="0" r="7"/>
  <circle id="rim2" cx="0" cy="0" r="3.5"/>
  <g id="zoomPlus">
    <use xlink:href="#rim" fill="#404040"><set attributeName="fill" to="#808080" begin="zoomplus.mouseover" end="zoomplus.mouseout"/></use>
    <path d="M-4,0h8M0,-4v8" fill="none" stroke="white" stroke-width="1.5" pointer-events="none"/>
  </g>
  <g id="zoomMin">
    <use xlink:href="#rim" fill="#404040"><set attributeName="fill" to="#808080" begin="zoomminus.mouseover" end="zoomminus.mouseout"/></use>
    <path d="M-4,0h8" fill="none" stroke="white" stroke-width="1.5" pointer-events="none"/>
  </g>
  <g id="arrowUp" transform="translate(30 24)">
    <use xlink:href="#rim"/>
    <path pointer-events="none" fill="none" stroke="white" stroke-width="1.5" d="M0,-3.0v7 M-2.5,-0.5L0,-3.0L2.5,-0.5"/>
  </g>
  <g id="arrowRight" transform="rotate(90) translate(36 -43)">
    <use xlink:href="#rim"/>
    <path pointer-events="none" fill="none" stroke="white" stroke-width="1.5" d="M0,-3.0v7 M-2.5,-0.5L0,-3.0L2.5,-0.5"/>
  </g>
  <g id="arrowDown" transform="rotate(180) translate(-30 -48)">
    <use xlink:href="#rim"/>
    <path pointer-events="none" fill="none" stroke="white" stroke-width="1.5" d="M0,-3.0v7 M-2.5,-0.5L0,-3.0L2.5,-0.5"/>
  </g>
  <g id="arrowLeft" transform="rotate(270) translate(-36 17)">
    <use xlink:href="#rim"/>
    <path pointer-events="none" fill="none" stroke="white" stroke-width="1.5" d="M0,-3.0v7 M-2.5,-0.5L0,-3.0L2.5,-0.5"/>
  </g>
  <g id="resetDef">
    <use xlink:href="#rim2" fill="#404040"><set attributeName="fill" to="#808080" begin="reset.mouseover" end="reset.mouseout"/></use>
  </g>
</defs>
<script type="application/ecmascript">
var viewWidth = 1053;
var viewHeight = 654;
var sectionId = 'dynsection-1';
</script>
<script type="application/ecmascript" xlink:href="../../svg.min.js"/>
<svg id="graph" class="graph">
<g id="viewport">
<title>Arcane::Convert::toDouble</title>
<!-- Node1 -->
<g id="Node000001" class="node">
<title>Node1</title>
<g id="a_Node000001"><a xlink:title="Converti un Real en double.">
<polygon fill="#999999" stroke="#666666" points="1045,-357 900,-357 900,-338 1045,-338 1045,-357"/>
<text text-anchor="middle" x="972.5" y="-345" font-family="Helvetica,sans-Serif" font-size="10.00">Arcane::Convert::toDouble</text>
</a>
</g>
</g>
<!-- Node2 -->
<g id="Node000002" class="node">
<title>Node2</title>
<g id="a_Node000002"><a xlink:href="../../d9/dcd/group__GroupMathUtils.html#gadb03e1255758a07024b055fbe632f0dd" target="_top" xlink:title="Symétrie d&#39;un vecteur u par rapport à un axe de vecteur directeur a .">
<polygon fill="white" stroke="#666666" points="858.5,-646 697.5,-646 697.5,-627 858.5,-627 858.5,-646"/>
<text text-anchor="middle" x="778" y="-634" font-family="Helvetica,sans-Serif" font-size="10.00">Arcane::math::axisSymmetric</text>
</a>
</g>
</g>
<!-- Node1&#45;&gt;Node2 -->
<g id="edge1_Node000001_Node000002" class="edge">
<title>Node1&#45;&gt;Node2</title>
<g id="a_edge1_Node000001_Node000002"><a xlink:title=" ">
<path fill="none" stroke="#63b8ff" d="M969.77,-367.37C964.3,-417.59 942.72,-550.39 864,-617.5 859.51,-621.33 854.42,-624.43 849.01,-626.93"/>
<polygon fill="#63b8ff" stroke="#63b8ff" points="973.28,-367.5 970.78,-357.2 966.31,-366.81 973.28,-367.5"/>
</a>
</g>
</g>
<!-- Node3 -->
<g id="Node000003" class="node">
<title>Node3</title>
<g id="a_Node000003"><a xlink:href="../../dd/d1f/classArcane_1_1MeshPartitionerBase.html#ad4ab172d40f2b0d1636168f74436e056" target="_top" xlink:title="Dump les informations de repartitionnement sur le disque.">
<polygon fill="white" stroke="#666666" points="856.5,-590.5 699.5,-590.5 699.5,-560.5 856.5,-560.5 856.5,-590.5"/>
<text text-anchor="start" x="707.5" y="-578.5" font-family="Helvetica,sans-Serif" font-size="10.00">Arcane::MeshPartitionerBase</text>
<text text-anchor="middle" x="778" y="-567.5" font-family="Helvetica,sans-Serif" font-size="10.00">::dumpObject</text>
</a>
</g>
</g>
<!-- Node1&#45;&gt;Node3 -->
<g id="edge2_Node000001_Node000003" class="edge">
<title>Node1&#45;&gt;Node3</title>
<g id="a_edge2_Node000001_Node000003"><a xlink:title=" ">
<path fill="none" stroke="#63b8ff" d="M966.76,-367.14C955.9,-407.88 925.28,-501.89 864,-551.5 859.71,-554.97 854.94,-557.94 849.92,-560.49"/>
<polygon fill="#63b8ff" stroke="#63b8ff" points="970.18,-367.91 969.26,-357.35 963.39,-366.18 970.18,-367.91"/>
</a>
</g>
</g>
<!-- Node4 -->
<g id="Node000004" class="node">
<title>Node4</title>
<g id="a_Node000004"><a xlink:href="../../d8/d68/namespaceArcane_1_1math.html#ae554ec527bf24e6e3c60e5d1c6beb448" target="_top" xlink:title="Logarithme népérien de v.">
<polygon fill="white" stroke="#666666" points="829.5,-542 726.5,-542 726.5,-523 829.5,-523 829.5,-542"/>
<text text-anchor="middle" x="778" y="-530" font-family="Helvetica,sans-Serif" font-size="10.00">Arcane::math::log</text>
</a>
</g>
</g>
<!-- Node1&#45;&gt;Node4 -->
<g id="edge4_Node000001_Node000004" class="edge">
<title>Node1&#45;&gt;Node4</title>
<g id="a_edge4_Node000001_Node000004"><a xlink:title=" ">
<path fill="none" stroke="#63b8ff" d="M964.76,-366.98C951.45,-402.38 918.28,-477.07 864,-514.5 853.94,-521.44 841.74,-525.79 829.76,-528.49"/>
<polygon fill="#63b8ff" stroke="#63b8ff" points="968.14,-367.93 968.25,-357.34 961.56,-365.55 968.14,-367.93"/>
</a>
</g>
</g>
<!-- Node5 -->
<g id="Node000005" class="node">
<title>Node5</title>
<g id="a_Node000005"><a xlink:href="../../d9/dcd/group__GroupMathUtils.html#gac06e6a49ba96f9ba7a165c53e38ddb9f" target="_top" xlink:title="Symétrie d&#39;un vecteur u par rapport à un plan de normale n.">
<polygon fill="white" stroke="#666666" points="864,-505 692,-505 692,-486 864,-486 864,-505"/>
<text text-anchor="middle" x="778" y="-493" font-family="Helvetica,sans-Serif" font-size="10.00">Arcane::math::planarSymmetric</text>
</a>
</g>
</g>
<!-- Node1&#45;&gt;Node5 -->
<g id="edge5_Node000001_Node000005" class="edge">
<title>Node1&#45;&gt;Node5</title>
<g id="a_edge5_Node000001_Node000005"><a xlink:title=" ">
<path fill="none" stroke="#63b8ff" d="M961.55,-366.24C945.23,-395.02 909.95,-449.69 864,-477.5 858.32,-480.94 852.08,-483.72 845.65,-485.98"/>
<polygon fill="#63b8ff" stroke="#63b8ff" points="964.75,-367.67 966.52,-357.22 958.62,-364.29 964.75,-367.67"/>
</a>
</g>
</g>
<!-- Node6 -->
<g id="Node000006" class="node">
<title>Node6</title>
<g id="a_Node000006"><a xlink:href="../../d8/d68/namespaceArcane_1_1math.html#a207645e2a738d3447fd4da66425068de" target="_top" xlink:title="Fonction puissance.">
<polygon fill="white" stroke="#666666" points="832,-468 724,-468 724,-449 832,-449 832,-468"/>
<text text-anchor="middle" x="778" y="-456" font-family="Helvetica,sans-Serif" font-size="10.00">Arcane::math::pow</text>
</a>
</g>
</g>
<!-- Node1&#45;&gt;Node6 -->
<g id="edge6_Node000001_Node000006" class="edge">
<title>Node1&#45;&gt;Node6</title>
<g id="a_edge6_Node000001_Node000006"><a xlink:title=" ">
<path fill="none" stroke="#63b8ff" d="M956.7,-364.81C937.54,-386.07 902.05,-421.6 864,-440.5 854.14,-445.4 842.99,-448.97 832.09,-451.56"/>
<polygon fill="#63b8ff" stroke="#63b8ff" points="959.45,-366.99 963.44,-357.18 954.2,-362.36 959.45,-366.99"/>
</a>
</g>
</g>
<!-- Node7 -->
<g id="Node000007" class="node">
<title>Node7</title>
<g id="a_Node000007"><a xlink:href="../../d8/d68/namespaceArcane_1_1math.html#ae70ca3d90c3b3483808617b0f63bfba7" target="_top" xlink:title="Racine carrée de v.">
<polygon fill="white" stroke="#666666" points="831.5,-431 724.5,-431 724.5,-412 831.5,-412 831.5,-431"/>
<text text-anchor="middle" x="778" y="-419" font-family="Helvetica,sans-Serif" font-size="10.00">Arcane::math::sqrt</text>
</a>
</g>
</g>
<!-- Node1&#45;&gt;Node7 -->
<g id="edge7_Node000001_Node000007" class="edge">
<title>Node1&#45;&gt;Node7</title>
<g id="a_edge7_Node000001_Node000007"><a xlink:title=" ">
<path fill="none" stroke="#63b8ff" d="M947.78,-362.26C926.55,-374.88 894.19,-392.67 864,-403.5 853.78,-407.17 842.58,-410.2 831.77,-412.65"/>
<polygon fill="#63b8ff" stroke="#63b8ff" points="949.68,-365.2 956.43,-357.04 946.06,-359.21 949.68,-365.2"/>
</a>
</g>
</g>
<!-- Node8 -->
<g id="Node000008" class="node">
<title>Node8</title>
<g id="a_Node000008"><a xlink:href="../../d5/dee/namespaceArcane_1_1Convert.html#a33fa33c1c5612b36695457201909fb58" target="_top" xlink:title="Converti un Real en Integer.">
<polygon fill="white" stroke="#666666" points="844,-394 712,-394 712,-375 844,-375 844,-394"/>
<text text-anchor="middle" x="778" y="-382" font-family="Helvetica,sans-Serif" font-size="10.00">Arcane::Convert::toBool</text>
</a>
</g>
</g>
<!-- Node1&#45;&gt;Node8 -->
<g id="edge8_Node000001_Node000008" class="edge">
<title>Node1&#45;&gt;Node8</title>
<g id="a_edge8_Node000001_Node000008"><a xlink:title=" ">
<path fill="none" stroke="#63b8ff" d="M911.94,-358.95C885.26,-364.08 854.15,-370.06 828.74,-374.94"/>
<polygon fill="#63b8ff" stroke="#63b8ff" points="912.77,-362.35 921.93,-357.03 911.45,-355.48 912.77,-362.35"/>
</a>
</g>
</g>
<!-- Node9 -->
<g id="Node000009" class="node">
<title>Node9</title>
<g id="a_Node000009"><a xlink:href="../../d5/dee/namespaceArcane_1_1Convert.html#af04b5f78f7c6eb4d360604cdfe1be61a" target="_top" xlink:title="Converti un Real en Int32.">
<polygon fill="white" stroke="#666666" points="845.5,-357 710.5,-357 710.5,-338 845.5,-338 845.5,-357"/>
<text text-anchor="middle" x="778" y="-345" font-family="Helvetica,sans-Serif" font-size="10.00">Arcane::Convert::toInt32</text>
</a>
</g>
</g>
<!-- Node1&#45;&gt;Node9 -->
<g id="edge9_Node000001_Node000009" class="edge">
<title>Node1&#45;&gt;Node9</title>
<g id="a_edge9_Node000001_Node000009"><a xlink:title=" ">
<path fill="none" stroke="#63b8ff" d="M889.73,-347.5C875.02,-347.5 859.86,-347.5 845.64,-347.5"/>
<polygon fill="#63b8ff" stroke="#63b8ff" points="889.82,-351 899.82,-347.5 889.82,-344 889.82,-351"/>
</a>
</g>
</g>
<!-- Node11 -->
<g id="Node000011" class="node">
<title>Node11</title>
<g id="a_Node000011"><a xlink:href="../../d5/dee/namespaceArcane_1_1Convert.html#a1d6d71911bd36c5b1b7fbf443b1dee0a" target="_top" xlink:title="Converti un Real en Int64.">
<polygon fill="white" stroke="#666666" points="845.5,-320 710.5,-320 710.5,-301 845.5,-301 845.5,-320"/>
<text text-anchor="middle" x="778" y="-308" font-family="Helvetica,sans-Serif" font-size="10.00">Arcane::Convert::toInt64</text>
</a>
</g>
</g>
<!-- Node1&#45;&gt;Node11 -->
<g id="edge11_Node000001_Node000011" class="edge">
<title>Node1&#45;&gt;Node11</title>
<g id="a_edge11_Node000001_Node000011"><a xlink:title=" ">
<path fill="none" stroke="#63b8ff" d="M911.94,-336.05C885.26,-330.92 854.15,-324.94 828.74,-320.06"/>
<polygon fill="#63b8ff" stroke="#63b8ff" points="911.45,-339.52 921.93,-337.97 912.77,-332.65 911.45,-339.52"/>
</a>
</g>
</g>
<!-- Node13 -->
<g id="Node000013" class="node">
<title>Node13</title>
<g id="a_Node000013"><a xlink:href="../../d6/d50/namespaceArcane_1_1CheckedConvert.html#a0b4c4b43b7054b52a5c9b15083b2ae00" target="_top" xlink:title="Converti un Int64 en un Integer.">
<polygon fill="white" stroke="#666666" points="846,-282.5 710,-282.5 710,-252.5 846,-252.5 846,-282.5"/>
<text text-anchor="start" x="718" y="-270.5" font-family="Helvetica,sans-Serif" font-size="10.00">Arcane::CheckedConvert</text>
<text text-anchor="middle" x="778" y="-259.5" font-family="Helvetica,sans-Serif" font-size="10.00">::toInteger</text>
</a>
</g>
</g>
<!-- Node1&#45;&gt;Node13 -->
<g id="edge13_Node000001_Node000013" class="edge">
<title>Node1&#45;&gt;Node13</title>
<g id="a_edge13_Node000001_Node000013"><a xlink:title=" ">
<path fill="none" stroke="#63b8ff" d="M946.86,-332.81C925.5,-320.53 893.48,-303.2 864,-291.5 855.88,-288.28 847.16,-285.3 838.51,-282.62"/>
<polygon fill="#63b8ff" stroke="#63b8ff" points="945.19,-335.89 955.6,-337.89 948.72,-329.84 945.19,-335.89"/>
</a>
</g>
</g>
<!-- Node31 -->
<g id="Node000031" class="node">
<title>Node31</title>
<g id="a_Node000031"><a xlink:href="../../d5/dee/namespaceArcane_1_1Convert.html#a224c42e7f73f8b3aad498d1413cdba26" target="_top" xlink:title="Converti un Real en Integer.">
<polygon fill="white" stroke="#666666" points="612.5,-19 467.5,-19 467.5,0 612.5,0 612.5,-19"/>
<text text-anchor="middle" x="540" y="-7" font-family="Helvetica,sans-Serif" font-size="10.00">Arcane::Convert::toInteger</text>
</a>
</g>
</g>
<!-- Node1&#45;&gt;Node31 -->
<g id="edge32_Node000001_Node000031" class="edge">
<title>Node1&#45;&gt;Node31</title>
<g id="a_edge32_Node000001_Node000031"><a xlink:title=" ">
<path fill="none" stroke="#63b8ff" d="M958.5,-329.9C940.16,-306.39 904.36,-265.19 864,-243.5 795.04,-206.44 746.89,-261.32 692,-205.5 635.71,-148.26 713.8,-84.21 656,-28.5 644.27,-17.2 628.55,-11.12 612.5,-8.11"/>
<polygon fill="#63b8ff" stroke="#63b8ff" points="955.81,-332.14 964.65,-337.97 961.37,-327.89 955.81,-332.14"/>
</a>
</g>
</g>
<!-- Node32 -->
<g id="Node000032" class="node">
<title>Node32</title>
<g id="a_Node000032"><a xlink:href="../../d6/dcb/classArcane_1_1GnuplotTimeHistoryCurveWriter2.html#a3ced3fb4931c6e05b461da7d379b052d" target="_top" xlink:title="Ecrit une courbe.">
<polygon fill="white" stroke="#666666" points="855.5,-196.5 700.5,-196.5 700.5,-166.5 855.5,-166.5 855.5,-196.5"/>
<text text-anchor="start" x="708.5" y="-184.5" font-family="Helvetica,sans-Serif" font-size="10.00">Arcane::GnuplotTimeHistory</text>
<text text-anchor="middle" x="778" y="-173.5" font-family="Helvetica,sans-Serif" font-size="10.00">CurveWriter2::writeCurve</text>
</a>
</g>
</g>
<!-- Node1&#45;&gt;Node32 -->
<g id="edge34_Node000001_Node000032" class="edge">
<title>Node1&#45;&gt;Node32</title>
<g id="a_edge34_Node000001_Node000032"><a xlink:title=" ">
<path fill="none" stroke="#63b8ff" d="M961.61,-328.86C945.16,-299.55 909.43,-242.74 864,-210.5 856.12,-204.91 847.07,-200.32 837.88,-196.58"/>
<polygon fill="#63b8ff" stroke="#63b8ff" points="958.74,-330.9 966.61,-337.99 964.88,-327.54 958.74,-330.9"/>
</a>
</g>
</g>
<!-- Node33 -->
<g id="Node000033" class="node">
<title>Node33</title>
<g id="a_Node000033"><a xlink:href="../../da/d6c/classArcane_1_1LimaMeshWriter.html#a8d635870002dd708595577e06f06fa3c" target="_top" xlink:title="Ecriture du maillage au format Lima.">
<polygon fill="white" stroke="#666666" points="846.5,-148.5 709.5,-148.5 709.5,-118.5 846.5,-118.5 846.5,-148.5"/>
<text text-anchor="start" x="717.5" y="-136.5" font-family="Helvetica,sans-Serif" font-size="10.00">Arcane::LimaMeshWriter</text>
<text text-anchor="middle" x="778" y="-125.5" font-family="Helvetica,sans-Serif" font-size="10.00">::writeMeshToFile</text>
</a>
</g>
</g>
<!-- Node1&#45;&gt;Node33 -->
<g id="edge35_Node000001_Node000033" class="edge">
<title>Node1&#45;&gt;Node33</title>
<g id="a_edge35_Node000001_Node000033"><a xlink:title=" ">
<path fill="none" stroke="#63b8ff" d="M965.96,-327.92C954,-289.29 922.06,-203.08 864,-157.5 858.81,-153.43 852.97,-150.05 846.84,-147.24"/>
<polygon fill="#63b8ff" stroke="#63b8ff" points="962.72,-329.29 968.92,-337.88 969.43,-327.3 962.72,-329.29"/>
</a>
</g>
</g>
<!-- Node34 -->
<g id="Node000034" class="node">
<title>Node34</title>
<g id="a_Node000034"><a xlink:href="../../da/d95/classArcane_1_1VtuMeshWriter.html#a075ef49dc7bb7c32c64a1241df4c4b14" target="_top" xlink:title="Écrit un maillage. Les données sont stockées selon ARCANE_VTU_DATA_MODE_TO_[ASCII|BINARY],...">
<polygon fill="white" stroke="#666666" points="842.5,-100.5 713.5,-100.5 713.5,-70.5 842.5,-70.5 842.5,-100.5"/>
<text text-anchor="start" x="721.5" y="-88.5" font-family="Helvetica,sans-Serif" font-size="10.00">Arcane::VtuMeshWriter</text>
<text text-anchor="middle" x="778" y="-77.5" font-family="Helvetica,sans-Serif" font-size="10.00">::writeMeshToFile</text>
</a>
</g>
</g>
<!-- Node1&#45;&gt;Node34 -->
<g id="edge36_Node000001_Node000034" class="edge">
<title>Node1&#45;&gt;Node34</title>
<g id="a_edge36_Node000001_Node000034"><a xlink:title=" ">
<path fill="none" stroke="#63b8ff" d="M968.31,-327.48C959.94,-281.74 933.05,-168.95 864,-109.5 857.73,-104.1 850.32,-99.91 842.53,-96.66"/>
<polygon fill="#63b8ff" stroke="#63b8ff" points="964.9,-328.33 970.05,-337.59 971.8,-327.14 964.9,-328.33"/>
</a>
</g>
</g>
<!-- Node35 -->
<g id="Node000035" class="node">
<title>Node35</title>
<g id="a_Node000035"><a xlink:href="../../d3/d8d/classArcane_1_1XmfMeshWriter.html#a8170bb5fc18bd16e14bc581b53a6735f" target="_top" xlink:title="Ecrit un maillage sur un fichier.">
<polygon fill="white" stroke="#666666" points="844.5,-34.5 711.5,-34.5 711.5,-4.5 844.5,-4.5 844.5,-34.5"/>
<text text-anchor="start" x="719.5" y="-22.5" font-family="Helvetica,sans-Serif" font-size="10.00">Arcane::XmfMeshWriter</text>
<text text-anchor="middle" x="778" y="-11.5" font-family="Helvetica,sans-Serif" font-size="10.00">::writeMeshToFile</text>
</a>
</g>
</g>
<!-- Node1&#45;&gt;Node35 -->
<g id="edge37_Node000001_Node000035" class="edge">
<title>Node1&#45;&gt;Node35</title>
<g id="a_edge37_Node000001_Node000035"><a xlink:title=" ">
<path fill="none" stroke="#63b8ff" d="M969.09,-327.59C962.02,-277.06 936.99,-142.13 864,-61.5 853.51,-49.91 839.09,-41.13 825.12,-34.69"/>
<polygon fill="#63b8ff" stroke="#63b8ff" points="965.66,-328.34 970.43,-337.8 972.6,-327.43 965.66,-328.34"/>
</a>
</g>
</g>
<!-- Node3&#45;&gt;Node3 -->
<g id="edge3_Node000003_Node000003" class="edge">
<title>Node3&#45;&gt;Node3</title>
<g id="a_edge3_Node000003_Node000003"><a xlink:title=" ">
<path fill="none" stroke="#63b8ff" d="M811.96,-601.1C807.32,-605.47 796,-608.5 778,-608.5 747.69,-608.5 736.32,-599.91 743.9,-590.78"/>
<polygon fill="#63b8ff" stroke="#63b8ff" points="815.46,-600.82 812.1,-590.78 808.46,-600.73 815.46,-600.82"/>
</a>
</g>
</g>
<!-- Node10 -->
<g id="Node000010" class="node">
<title>Node10</title>
<g id="a_Node000010"><a xlink:href="../../db/d6f/classArcane_1_1CartesianMeshImpl.html#a29e755a26555c3ef09f7636e9291d678" target="_top" xlink:title="Méthode permettant de supprimer une ou plusieurs couches de mailles fantômes sur un niveau de raffine...">
<polygon fill="white" stroke="#666666" points="615.5,-549.5 464.5,-549.5 464.5,-519.5 615.5,-519.5 615.5,-549.5"/>
<text text-anchor="start" x="472.5" y="-537.5" font-family="Helvetica,sans-Serif" font-size="10.00">Arcane::CartesianMeshImpl</text>
<text text-anchor="middle" x="540" y="-526.5" font-family="Helvetica,sans-Serif" font-size="10.00">::reduceNbGhostLayers</text>
</a>
</g>
</g>
<!-- Node9&#45;&gt;Node10 -->
<g id="edge10_Node000009_Node000010" class="edge">
<title>Node9&#45;&gt;Node10</title>
<g id="a_edge10_Node000009_Node000010"><a xlink:title=" ">
<path fill="none" stroke="#63b8ff" d="M701.09,-358.5C697.83,-360.51 694.77,-362.83 692,-365.5 644.24,-411.63 703.83,-464.44 656,-510.5 644.98,-521.11 630.55,-527.56 615.65,-531.39"/>
<polygon fill="#63b8ff" stroke="#63b8ff" points="702.84,-361.54 710.16,-353.88 699.66,-355.3 702.84,-361.54"/>
</a>
</g>
</g>
<!-- Node12 -->
<g id="Node000012" class="node">
<title>Node12</title>
<g id="a_Node000012"><a xlink:href="../../d1/d57/classArcane_1_1Parallel_1_1Stat.html#a261e70a2a9f09fcbaa96e04fad51ad7c" target="_top" xlink:title="Imprime sur trace les statistiques.">
<polygon fill="white" stroke="#666666" points="599,-501.5 481,-501.5 481,-471.5 599,-471.5 599,-501.5"/>
<text text-anchor="start" x="489" y="-489.5" font-family="Helvetica,sans-Serif" font-size="10.00">Arcane::Parallel::Stat</text>
<text text-anchor="middle" x="540" y="-478.5" font-family="Helvetica,sans-Serif" font-size="10.00">::print</text>
</a>
</g>
</g>
<!-- Node11&#45;&gt;Node12 -->
<g id="edge12_Node000011_Node000012" class="edge">
<title>Node11&#45;&gt;Node12</title>
<g id="a_edge12_Node000011_Node000012"><a xlink:title=" ">
<path fill="none" stroke="#63b8ff" d="M701.15,-321.57C697.87,-323.56 694.79,-325.85 692,-328.5 647.24,-370.92 700.82,-420.15 656,-462.5 640.8,-476.86 619.34,-483.56 599.07,-486.45"/>
<polygon fill="#63b8ff" stroke="#63b8ff" points="702.9,-324.6 710.25,-316.98 699.75,-318.35 702.9,-324.6"/>
</a>
</g>
</g>
<!-- Node14 -->
<g id="Node000014" class="node">
<title>Node14</title>
<g id="a_Node000014"><a xlink:href="../../de/dce/classArcane_1_1mesh_1_1FaceUniqueIdBuilder2.html#a44c11bd7dddabdef63a37438939393db" target="_top" xlink:title="Détermine la liste des faces frontières de chaque sous&#45;domaine et les trie sur tous les procs.">
<polygon fill="white" stroke="#666666" points="656,-309.5 424,-309.5 424,-279.5 656,-279.5 656,-309.5"/>
<text text-anchor="start" x="432" y="-297.5" font-family="Helvetica,sans-Serif" font-size="10.00">Arcane::mesh::FaceUnique</text>
<text text-anchor="middle" x="540" y="-286.5" font-family="Helvetica,sans-Serif" font-size="10.00">IdBuilder2::_computeAndSortBoundaryFaces</text>
</a>
</g>
</g>
<!-- Node13&#45;&gt;Node14 -->
<g id="edge14_Node000013_Node000014" class="edge">
<title>Node13&#45;&gt;Node14</title>
<g id="a_edge14_Node000013_Node000014"><a xlink:title=" ">
<path fill="none" stroke="#63b8ff" d="M699.69,-276.34C685.73,-277.94 670.9,-279.64 656.14,-281.33"/>
<polygon fill="#63b8ff" stroke="#63b8ff" points="700.15,-279.82 709.69,-275.2 699.35,-272.86 700.15,-279.82"/>
</a>
</g>
</g>
<!-- Node17 -->
<g id="Node000017" class="node">
<title>Node17</title>
<g id="a_Node000017"><a xlink:href="../../dd/d49/classArcane_1_1mesh_1_1FaceUniqueIdBuilder.html#abe1b38534432e2a01c1fb6fca4b4e227" target="_top" xlink:title="Calcul les numéros uniques de chaque face en parallèle.">
<polygon fill="white" stroke="#666666" points="628,-261 452,-261 452,-220 628,-220 628,-261"/>
<text text-anchor="start" x="460" y="-249" font-family="Helvetica,sans-Serif" font-size="10.00">Arcane::mesh::FaceUnique</text>
<text text-anchor="start" x="460" y="-238" font-family="Helvetica,sans-Serif" font-size="10.00">IdBuilder::_computeFacesUnique</text>
<text text-anchor="middle" x="540" y="-227" font-family="Helvetica,sans-Serif" font-size="10.00">IdsParallelV1</text>
</a>
</g>
</g>
<!-- Node13&#45;&gt;Node17 -->
<g id="edge17_Node000013_Node000017" class="edge">
<title>Node13&#45;&gt;Node17</title>
<g id="a_edge17_Node000013_Node000017"><a xlink:title=" ">
<path fill="none" stroke="#63b8ff" d="M699.71,-258.66C676.86,-256.04 651.69,-253.16 628.26,-250.48"/>
<polygon fill="#63b8ff" stroke="#63b8ff" points="699.35,-262.14 709.69,-259.8 700.15,-255.18 699.35,-262.14"/>
</a>
</g>
</g>
<!-- Node18 -->
<g id="Node000018" class="node">
<title>Node18</title>
<g id="a_Node000018"><a xlink:href="../../d3/dc1/classArcane_1_1TBBTaskImplementation.html#adfa5ce1372fcd7116aa1b551da1cf323" target="_top" xlink:title="Exécution d&#39;une boucle N&#45;dimensions.">
<polygon fill="white" stroke="#666666" points="628,-201.5 452,-201.5 452,-171.5 628,-171.5 628,-201.5"/>
<text text-anchor="start" x="460" y="-189.5" font-family="Helvetica,sans-Serif" font-size="10.00">Arcane::TBBTaskImplementation</text>
<text text-anchor="middle" x="540" y="-178.5" font-family="Helvetica,sans-Serif" font-size="10.00">::_executeMDParallelFor</text>
</a>
</g>
</g>
<!-- Node13&#45;&gt;Node18 -->
<g id="edge18_Node000013_Node000018" class="edge">
<title>Node13&#45;&gt;Node18</title>
<g id="a_edge18_Node000013_Node000018"><a xlink:title=" ">
<path fill="none" stroke="#63b8ff" d="M714.32,-248.79C706.64,-245.73 699.02,-242.29 692,-238.5 674.16,-228.87 674.4,-219.01 656,-210.5 647.21,-206.43 637.72,-203.05 628.1,-200.23"/>
<polygon fill="#63b8ff" stroke="#63b8ff" points="713.11,-252.08 723.7,-252.36 715.59,-245.53 713.11,-252.08"/>
</a>
</g>
</g>
<!-- Node23 -->
<g id="Node000023" class="node">
<title>Node23</title>
<g id="a_Node000023"><a xlink:href="../../d7/d2b/classArcane_1_1MetisMeshPartitioner.html#a767cafcf1a7031f78dfc57c795881da5" target="_top" xlink:title=" ">
<polygon fill="white" stroke="#666666" points="380,-67.5 220,-67.5 220,-37.5 380,-37.5 380,-67.5"/>
<text text-anchor="start" x="228" y="-55.5" font-family="Helvetica,sans-Serif" font-size="10.00">Arcane::MetisMeshPartitioner</text>
<text text-anchor="middle" x="300" y="-44.5" font-family="Helvetica,sans-Serif" font-size="10.00">::_partitionMesh</text>
</a>
</g>
</g>
<!-- Node13&#45;&gt;Node23 -->
<g id="edge23_Node000013_Node000023" class="edge">
<title>Node13&#45;&gt;Node23</title>
<g id="a_edge23_Node000013_Node000023"><a xlink:title=" ">
<path fill="none" stroke="#63b8ff" d="M704.57,-247.6C700.08,-244.93 695.83,-241.92 692,-238.5 664.11,-213.61 685.86,-184.98 656,-162.5 572.53,-99.65 513.63,-178.2 424,-124.5 401.43,-110.98 409.74,-92.32 388,-77.5 382.29,-73.6 375.97,-70.31 369.42,-67.52"/>
<polygon fill="#63b8ff" stroke="#63b8ff" points="703.01,-250.73 713.48,-252.3 706.27,-244.54 703.01,-250.73"/>
</a>
</g>
</g>
<!-- Node24 -->
<g id="Node000024" class="node">
<title>Node24</title>
<g id="a_Node000024"><a xlink:href="../../d4/d6e/classArcane_1_1LimaMalippReaderT.html#abefcc7e1b8c4ad357452ffbd111c7c81" target="_top" xlink:title="Lecture du maillage. Seul le proc maitre a une instance de reader non nulle. Les autres ne doivent pa...">
<polygon fill="white" stroke="#666666" points="614,-115.5 466,-115.5 466,-85.5 614,-85.5 614,-115.5"/>
<text text-anchor="start" x="474" y="-103.5" font-family="Helvetica,sans-Serif" font-size="10.00">Arcane::LimaMalippReader</text>
<text text-anchor="middle" x="540" y="-92.5" font-family="Helvetica,sans-Serif" font-size="10.00">T::_readMeshPart</text>
</a>
</g>
</g>
<!-- Node13&#45;&gt;Node24 -->
<g id="edge24_Node000013_Node000024" class="edge">
<title>Node13&#45;&gt;Node24</title>
<g id="a_edge24_Node000013_Node000024"><a xlink:title=" ">
<path fill="none" stroke="#63b8ff" d="M702.72,-247.24C698.85,-244.67 695.23,-241.77 692,-238.5 656.1,-202.25 693.35,-164.25 656,-129.5 644.39,-118.7 629.36,-111.77 614.02,-107.37"/>
<polygon fill="#63b8ff" stroke="#63b8ff" points="701.14,-250.37 711.54,-252.36 704.65,-244.31 701.14,-250.37"/>
</a>
</g>
</g>
<!-- Node25 -->
<g id="Node000025" class="node">
<title>Node25</title>
<g id="a_Node000025"><a xlink:href="../../d7/d2b/classArcane_1_1MetisMeshPartitioner.html#abb5de9f97949d86cc86a91c483a721ac" target="_top" xlink:title="Comble les partitions vides (version 1).">
<polygon fill="white" stroke="#666666" points="620,-67.5 460,-67.5 460,-37.5 620,-37.5 620,-67.5"/>
<text text-anchor="start" x="468" y="-55.5" font-family="Helvetica,sans-Serif" font-size="10.00">Arcane::MetisMeshPartitioner</text>
<text text-anchor="middle" x="540" y="-44.5" font-family="Helvetica,sans-Serif" font-size="10.00">::_removeEmptyPartsV1</text>
</a>
</g>
</g>
<!-- Node13&#45;&gt;Node25 -->
<g id="edge25_Node000013_Node000025" class="edge">
<title>Node13&#45;&gt;Node25</title>
<g id="a_edge25_Node000013_Node000025"><a xlink:title=" ">
<path fill="none" stroke="#63b8ff" d="M701.59,-247.08C698.1,-244.55 694.87,-241.7 692,-238.5 642.8,-183.56 708.49,-128.32 656,-76.5 646.2,-66.83 633.58,-60.59 620.29,-56.64"/>
<polygon fill="#63b8ff" stroke="#63b8ff" points="699.82,-250.1 710.15,-252.44 703.53,-244.17 699.82,-250.1"/>
</a>
</g>
</g>
<!-- Node26 -->
<g id="Node000026" class="node">
<title>Node26</title>
<g id="a_Node000026"><a xlink:href="../../de/d74/classArcane_1_1mesh_1_1FacesToMergeFinder.html#aeb4a8b43021c8d076b9a49018104b2b9" target="_top" xlink:title=" ">
<polygon fill="white" stroke="#666666" points="619,-453.5 461,-453.5 461,-423.5 619,-423.5 619,-453.5"/>
<text text-anchor="start" x="469" y="-441.5" font-family="Helvetica,sans-Serif" font-size="10.00">Arcane::mesh::FacesToMerge</text>
<text text-anchor="middle" x="540" y="-430.5" font-family="Helvetica,sans-Serif" font-size="10.00">Finder::_setEdgeFaceList</text>
</a>
</g>
</g>
<!-- Node13&#45;&gt;Node26 -->
<g id="edge27_Node000013_Node000026" class="edge">
<title>Node13&#45;&gt;Node26</title>
<g id="a_edge27_Node000013_Node000026"><a xlink:title=" ">
<path fill="none" stroke="#63b8ff" d="M700.91,-284.28C697.72,-286.41 694.72,-288.81 692,-291.5 651.53,-331.58 697.84,-375.84 656,-414.5 645.74,-423.98 632.74,-430.11 619.19,-433.99"/>
<polygon fill="#63b8ff" stroke="#63b8ff" points="702.82,-287.22 709.78,-279.23 699.36,-281.13 702.82,-287.22"/>
</a>
</g>
</g>
<!-- Node28 -->
<g id="Node000028" class="node">
<title>Node28</title>
<g id="a_Node000028"><a xlink:href="../../d1/d3c/classArcane_1_1mesh_1_1DynamicMeshIncrementalBuilder.html#ae47b40d04a265a821e5b5643af631e48" target="_top" xlink:title="Ajout générique d&#39;items d&#39;une famille, décrite par son ItemInfo.">
<polygon fill="white" stroke="#666666" points="637,-405.5 443,-405.5 443,-375.5 637,-375.5 637,-405.5"/>
<text text-anchor="start" x="451" y="-393.5" font-family="Helvetica,sans-Serif" font-size="10.00">Arcane::mesh::DynamicMesh</text>
<text text-anchor="middle" x="540" y="-382.5" font-family="Helvetica,sans-Serif" font-size="10.00">IncrementalBuilder::addFamilyItems</text>
</a>
</g>
</g>
<!-- Node13&#45;&gt;Node28 -->
<g id="edge29_Node000013_Node000028" class="edge">
<title>Node13&#45;&gt;Node28</title>
<g id="a_edge29_Node000013_Node000028"><a xlink:title=" ">
<path fill="none" stroke="#63b8ff" d="M700.72,-285.26C697.65,-287.14 694.72,-289.21 692,-291.5 663.7,-315.3 685.11,-343.7 656,-366.5 650.22,-371.03 643.79,-374.76 637.01,-377.82"/>
<polygon fill="#63b8ff" stroke="#63b8ff" points="702.53,-288.27 709.72,-280.48 699.25,-282.09 702.53,-288.27"/>
</a>
</g>
</g>
<!-- Node29 -->
<g id="Node000029" class="node">
<title>Node29</title>
<g id="a_Node000029"><a xlink:href="../../db/d2b/classArcane_1_1mesh_1_1FullCellInfo.html#a1904ff93c52d1dffdf56c16d1dfca7c6" target="_top" xlink:title="AMR.">
<polygon fill="white" stroke="#666666" points="612,-357.5 468,-357.5 468,-327.5 612,-327.5 612,-357.5"/>
<text text-anchor="start" x="476" y="-345.5" font-family="Helvetica,sans-Serif" font-size="10.00">Arcane::mesh::FullCellInfo</text>
<text text-anchor="middle" x="540" y="-334.5" font-family="Helvetica,sans-Serif" font-size="10.00">::level</text>
</a>
</g>
</g>
<!-- Node13&#45;&gt;Node29 -->
<g id="edge30_Node000013_Node000029" class="edge">
<title>Node13&#45;&gt;Node29</title>
<g id="a_edge30_Node000013_Node000029"><a xlink:title=" ">
<path fill="none" stroke="#63b8ff" d="M704.39,-286.01C700.13,-287.71 695.97,-289.53 692,-291.5 674.07,-300.37 674.22,-310.26 656,-318.5 642.34,-324.68 627.05,-329.28 612.18,-332.71"/>
<polygon fill="#63b8ff" stroke="#63b8ff" points="705.66,-289.27 713.81,-282.51 703.22,-282.71 705.66,-289.27"/>
</a>
</g>
</g>
<!-- Node15 -->
<g id="Node000015" class="node">
<title>Node15</title>
<g id="a_Node000015"><a xlink:href="../../de/dce/classArcane_1_1mesh_1_1FaceUniqueIdBuilder2.html#a4da47530e35ec4f39890bfdfc60ccfdf" target="_top" xlink:title="Calcul les numéros uniques de chaque face en parallèle.">
<polygon fill="white" stroke="#666666" points="378,-309.5 222,-309.5 222,-279.5 378,-279.5 378,-309.5"/>
<text text-anchor="start" x="230" y="-297.5" font-family="Helvetica,sans-Serif" font-size="10.00">Arcane::mesh::FaceUnique</text>
<text text-anchor="middle" x="300" y="-286.5" font-family="Helvetica,sans-Serif" font-size="10.00">IdBuilder2::_computeParallel</text>
</a>
</g>
</g>
<!-- Node14&#45;&gt;Node15 -->
<g id="edge15_Node000014_Node000015" class="edge">
<title>Node14&#45;&gt;Node15</title>
<g id="a_edge15_Node000014_Node000015"><a xlink:title=" ">
<path fill="none" stroke="#63b8ff" d="M413.63,-294.5C401.5,-294.5 389.45,-294.5 378,-294.5"/>
<polygon fill="#63b8ff" stroke="#63b8ff" points="413.83,-298 423.83,-294.5 413.83,-291 413.83,-298"/>
</a>
</g>
</g>
<!-- Node16 -->
<g id="Node000016" class="node">
<title>Node16</title>
<g id="a_Node000016"><a xlink:href="../../de/dce/classArcane_1_1mesh_1_1FaceUniqueIdBuilder2.html#a78c213fa49c7e8aef26eb69c13f814b2" target="_top" xlink:title="Calcul les numéros uniques de chaque face en parallèle.">
<polygon fill="white" stroke="#666666" points="176,-315 0,-315 0,-274 176,-274 176,-315"/>
<text text-anchor="start" x="8" y="-303" font-family="Helvetica,sans-Serif" font-size="10.00">Arcane::mesh::FaceUnique</text>
<text text-anchor="start" x="8" y="-292" font-family="Helvetica,sans-Serif" font-size="10.00">IdBuilder2::computeFacesUnique</text>
<text text-anchor="middle" x="88" y="-281" font-family="Helvetica,sans-Serif" font-size="10.00">IdAndOwnerVersion3</text>
</a>
</g>
</g>
<!-- Node15&#45;&gt;Node16 -->
<g id="edge16_Node000015_Node000016" class="edge">
<title>Node15&#45;&gt;Node16</title>
<g id="a_edge16_Node000015_Node000016"><a xlink:title=" ">
<path fill="none" stroke="#63b8ff" d="M211.78,-294.5C200.05,-294.5 188.02,-294.5 176.29,-294.5"/>
<polygon fill="#63b8ff" stroke="#63b8ff" points="212,-298 222,-294.5 212,-291 212,-298"/>
</a>
</g>
</g>
<!-- Node19 -->
<g id="Node000019" class="node">
<title>Node19</title>
<g id="a_Node000019"><a xlink:href="../../d3/dc1/classArcane_1_1TBBTaskImplementation.html#a5c5f7d09c3b852fd14b7f6a48f0fe844" target="_top" xlink:title="Exécute une boucle 1D en concurrence.">
<polygon fill="white" stroke="#666666" points="388,-164.5 212,-164.5 212,-134.5 388,-134.5 388,-164.5"/>
<text text-anchor="start" x="220" y="-152.5" font-family="Helvetica,sans-Serif" font-size="10.00">Arcane::TBBTaskImplementation</text>
<text text-anchor="middle" x="300" y="-141.5" font-family="Helvetica,sans-Serif" font-size="10.00">::executeParallelFor</text>
</a>
</g>
</g>
<!-- Node18&#45;&gt;Node19 -->
<g id="edge19_Node000018_Node000019" class="edge">
<title>Node18&#45;&gt;Node19</title>
<g id="a_edge19_Node000018_Node000019"><a xlink:title=" ">
<path fill="none" stroke="#63b8ff" d="M441.44,-171.33C423.83,-168.59 405.56,-165.76 388.26,-163.07"/>
<polygon fill="#63b8ff" stroke="#63b8ff" points="441.31,-174.85 451.73,-172.93 442.39,-167.94 441.31,-174.85"/>
</a>
</g>
</g>
<!-- Node20 -->
<g id="Node000020" class="node">
<title>Node20</title>
<g id="a_Node000020"><a xlink:href="../../d3/dc1/classArcane_1_1TBBTaskImplementation.html#aef0bf2b12158389734db05aad9456ac1" target="_top" xlink:title="Exécute une boucle 2D en concurrence.">
<polygon fill="white" stroke="#666666" points="388,-116.5 212,-116.5 212,-86.5 388,-86.5 388,-116.5"/>
<text text-anchor="start" x="220" y="-104.5" font-family="Helvetica,sans-Serif" font-size="10.00">Arcane::TBBTaskImplementation</text>
<text text-anchor="middle" x="300" y="-93.5" font-family="Helvetica,sans-Serif" font-size="10.00">::executeParallelFor</text>
</a>
</g>
</g>
<!-- Node18&#45;&gt;Node20 -->
<g id="edge20_Node000018_Node000020" class="edge">
<title>Node18&#45;&gt;Node20</title>
<g id="a_edge20_Node000018_Node000020"><a xlink:title=" ">
<path fill="none" stroke="#63b8ff" d="M448.6,-168.18C440.07,-165.13 431.73,-161.59 424,-157.5 405.08,-147.49 406.81,-135.72 388,-125.5 381.67,-122.06 374.8,-119.08 367.8,-116.5"/>
<polygon fill="#63b8ff" stroke="#63b8ff" points="447.69,-171.56 458.28,-171.41 449.91,-164.92 447.69,-171.56"/>
</a>
</g>
</g>
<!-- Node21 -->
<g id="Node000021" class="node">
<title>Node21</title>
<g id="a_Node000021"><a xlink:href="../../d3/dc1/classArcane_1_1TBBTaskImplementation.html#ab6b5940cc0c9f602fd8bbfd48ca51cc6" target="_top" xlink:title="Exécute une boucle 3D en concurrence.">
<polygon fill="white" stroke="#666666" points="388,-260.5 212,-260.5 212,-230.5 388,-230.5 388,-260.5"/>
<text text-anchor="start" x="220" y="-248.5" font-family="Helvetica,sans-Serif" font-size="10.00">Arcane::TBBTaskImplementation</text>
<text text-anchor="middle" x="300" y="-237.5" font-family="Helvetica,sans-Serif" font-size="10.00">::executeParallelFor</text>
</a>
</g>
</g>
<!-- Node18&#45;&gt;Node21 -->
<g id="edge21_Node000018_Node000021" class="edge">
<title>Node18&#45;&gt;Node21</title>
<g id="a_edge21_Node000018_Node000021"><a xlink:title=" ">
<path fill="none" stroke="#63b8ff" d="M452.16,-203.74C442.63,-205.9 433.09,-208.17 424,-210.5 407.79,-214.66 404.07,-216.83 388,-221.5 377.77,-224.47 366.83,-227.56 356.29,-230.49"/>
<polygon fill="#63b8ff" stroke="#63b8ff" points="453.07,-207.13 462.07,-201.54 451.55,-200.3 453.07,-207.13"/>
</a>
</g>
</g>
<!-- Node22 -->
<g id="Node000022" class="node">
<title>Node22</title>
<g id="a_Node000022"><a xlink:href="../../d3/dc1/classArcane_1_1TBBTaskImplementation.html#ac2f35d06696cf9116ac663646bf45e32" target="_top" xlink:title="Exécute une boucle 4D en concurrence.">
<polygon fill="white" stroke="#666666" points="388,-212.5 212,-212.5 212,-182.5 388,-182.5 388,-212.5"/>
<text text-anchor="start" x="220" y="-200.5" font-family="Helvetica,sans-Serif" font-size="10.00">Arcane::TBBTaskImplementation</text>
<text text-anchor="middle" x="300" y="-189.5" font-family="Helvetica,sans-Serif" font-size="10.00">::executeParallelFor</text>
</a>
</g>
</g>
<!-- Node18&#45;&gt;Node22 -->
<g id="edge22_Node000018_Node000022" class="edge">
<title>Node18&#45;&gt;Node22</title>
<g id="a_edge22_Node000018_Node000022"><a xlink:title=" ">
<path fill="none" stroke="#63b8ff" d="M441.44,-191.01C423.83,-191.82 405.56,-192.67 388.26,-193.47"/>
<polygon fill="#63b8ff" stroke="#63b8ff" points="441.9,-194.49 451.73,-190.53 441.58,-187.5 441.9,-194.49"/>
</a>
</g>
</g>
<!-- Node25&#45;&gt;Node23 -->
<g id="edge26_Node000025_Node000023" class="edge">
<title>Node25&#45;&gt;Node23</title>
<g id="a_edge26_Node000025_Node000023"><a xlink:title=" ">
<path fill="none" stroke="#63b8ff" d="M449.74,-52.5C426.94,-52.5 402.58,-52.5 380.31,-52.5"/>
<polygon fill="#63b8ff" stroke="#63b8ff" points="449.75,-56 459.75,-52.5 449.75,-49 449.75,-56"/>
</a>
</g>
</g>
<!-- Node27 -->
<g id="Node000027" class="node">
<title>Node27</title>
<g id="a_Node000027"><a xlink:href="../../de/d74/classArcane_1_1mesh_1_1FacesToMergeFinder.html#af1d6a9b0ceab8e32a44a58c69bcae63e" target="_top" xlink:title=" ">
<polygon fill="white" stroke="#666666" points="379,-453.5 221,-453.5 221,-423.5 379,-423.5 379,-453.5"/>
<text text-anchor="start" x="229" y="-441.5" font-family="Helvetica,sans-Serif" font-size="10.00">Arcane::mesh::FacesToMerge</text>
<text text-anchor="middle" x="300" y="-430.5" font-family="Helvetica,sans-Serif" font-size="10.00">Finder::FacesToMergeFinder</text>
</a>
</g>
</g>
<!-- Node26&#45;&gt;Node27 -->
<g id="edge28_Node000026_Node000027" class="edge">
<title>Node26&#45;&gt;Node27</title>
<g id="a_edge28_Node000026_Node000027"><a xlink:title=" ">
<path fill="none" stroke="#63b8ff" d="M450.49,-438.5C427.13,-438.5 402.09,-438.5 379.31,-438.5"/>
<polygon fill="#63b8ff" stroke="#63b8ff" points="450.74,-442 460.74,-438.5 450.74,-435 450.74,-442"/>
</a>
</g>
</g>
<!-- Node30 -->
<g id="Node000030" class="node">
<title>Node30</title>
<g id="a_Node000030"><a xlink:href="../../d9/d24/classArcane_1_1mesh_1_1OneMeshItemAdder.html#ac19cad80b7d34476efd70054d4a424e0" target="_top" xlink:title=" ">
<polygon fill="white" stroke="#666666" points="379,-357.5 221,-357.5 221,-327.5 379,-327.5 379,-357.5"/>
<text text-anchor="start" x="229" y="-345.5" font-family="Helvetica,sans-Serif" font-size="10.00">Arcane::mesh::OneMeshItem</text>
<text text-anchor="middle" x="300" y="-334.5" font-family="Helvetica,sans-Serif" font-size="10.00">Adder::_AMR_Patch</text>
</a>
</g>
</g>
<!-- Node29&#45;&gt;Node30 -->
<g id="edge31_Node000029_Node000030" class="edge">
<title>Node29&#45;&gt;Node30</title>
<g id="a_edge31_Node000029_Node000030"><a xlink:title=" ">
<path fill="none" stroke="#63b8ff" d="M457.59,-342.5C432.23,-342.5 404.33,-342.5 379.2,-342.5"/>
<polygon fill="#63b8ff" stroke="#63b8ff" points="457.91,-346 467.91,-342.5 457.91,-339 457.91,-346"/>
</a>
</g>
</g>
<!-- Node31&#45;&gt;Node23 -->
<g id="edge33_Node000031_Node000023" class="edge">
<title>Node31&#45;&gt;Node23</title>
<g id="a_edge33_Node000031_Node000023"><a xlink:title=" ">
<path fill="none" stroke="#63b8ff" d="M469.08,-20.72C454.19,-23.2 438.56,-25.88 424,-28.5 408.48,-31.3 391.88,-34.43 376.06,-37.49"/>
<polygon fill="#63b8ff" stroke="#63b8ff" points="469.96,-24.12 479.26,-19.03 468.82,-17.22 469.96,-24.12"/>
</a>
</g>
</g>
<!-- Node35&#45;&gt;Node35 -->
<g id="edge38_Node000035_Node000035" class="edge">
<title>Node35&#45;&gt;Node35</title>
<g id="a_edge38_Node000035_Node000035"><a xlink:title=" ">
<path fill="none" stroke="#63b8ff" d="M811.96,-45.1C807.32,-49.47 796,-52.5 778,-52.5 747.69,-52.5 736.32,-43.91 743.9,-34.78"/>
<polygon fill="#63b8ff" stroke="#63b8ff" points="815.46,-44.82 812.1,-34.78 808.46,-44.73 815.46,-44.82"/>
</a>
</g>
</g>
</g>
</svg>

<g id="navigator" transform="translate(0 0)" fill="#404254">
  <rect fill="#f2f5e9" fill-opacity="0.5" stroke="#606060" stroke-width=".5" x="0" y="0" width="60" height="60"/>
  <use id="zoomplus" xlink:href="#zoomPlus" x="17" y="9" onmousedown="handleZoom(evt,'in')"/>
  <use id="zoomminus" xlink:href="#zoomMin" x="42" y="9" onmousedown="handleZoom(evt,'out')"/>
  <use id="reset" xlink:href="#resetDef" x="30" y="36" onmousedown="handleReset()"/>
   <use id="arrowup" xlink:href="#arrowUp" x="0" y="0" onmousedown="handlePan(0,-1)"/>
  <use id="arrowright" xlink:href="#arrowRight" x="0" y="0" onmousedown="handlePan(1,0)"/>
  <use id="arrowdown" xlink:href="#arrowDown" x="0" y="0" onmousedown="handlePan(0,1)"/>
  <use id="arrowleft" xlink:href="#arrowLeft" x="0" y="0" onmousedown="handlePan(-1,0)"/>
</g>
<svg viewBox="0 0 15 15" width="100%" height="30px" preserveAspectRatio="xMaxYMin meet">
 <g id="arrow_out" transform="scale(0.3 0.3)">
  <a xlink:href="namespaceArcane_1_1Convert_a9991535d65307251e061bc477bb87bc5_icgraph_org.svg" target="_base">
   <rect id="button" ry="5" rx="5" y="6" x="6" height="38" width="38"
        fill="#f2f5e9" fill-opacity="0.5" stroke="#606060" stroke-width="1.0"/>
   <path id="arrow"
     d="M 11.500037,31.436501 C 11.940474,20.09759 22.043105,11.32322 32.158766,21.979434 L 37.068811,17.246167 C 37.068811,17.246167 37.088388,32 37.088388,32 L 22.160133,31.978069 C 22.160133,31.978069 26.997745,27.140456 26.997745,27.140456 C 18.528582,18.264221 13.291696,25.230495 11.500037,31.436501 z"
     style="fill:#404040;"/>
  </a>
 </g>
</svg>

<style type='text/css'>
<![CDATA[
[data-mouse-over-selected='false'] { opacity: 0.7; }
[data-mouse-over-selected='true']  { opacity: 1.0; }
]]>
</style>
<script type="application/ecmascript"><![CDATA[
document.addEventListener('DOMContentLoaded', (event) => {
  highlightEdges();
  highlightAdjacentNodes();
});
]]></script>
</svg>
