<?xml version="1.0" encoding="UTF-8" standalone="no"?>
<!DOCTYPE svg PUBLIC "-//W3C//DTD SVG 1.1//EN"
 "http://www.w3.org/Graphics/SVG/1.1/DTD/svg11.dtd">
<!-- Generated by graphviz version 2.43.0 (0)
 -->
<!-- Title: Arcane::Array::addRange Pages: 1 -->
<svg width="873pt" height="597pt"
 viewBox="0.00 0.00 873.00 596.50" xmlns="http://www.w3.org/2000/svg" xmlns:xlink="http://www.w3.org/1999/xlink">
<g id="graph0" class="graph" transform="scale(1 1) rotate(0) translate(4 592.5)">
<title>Arcane::Array::addRange</title>
<!-- Node1 -->
<g id="Node000001" class="node">
<title>Node1</title>
<g id="a_Node000001"><a xlink:title="Ajoute n élément de valeur val à la fin du tableau.">
<polygon fill="#999999" stroke="#666666" points="865,-301.5 728,-301.5 728,-282.5 865,-282.5 865,-301.5"/>
<text text-anchor="middle" x="796.5" y="-289.5" font-family="Helvetica,sans-Serif" font-size="10.00">Arcane::Array::addRange</text>
</a>
</g>
</g>
<!-- Node2 -->
<g id="Node000002" class="node">
<title>Node2</title>
<g id="a_Node000002"><a xlink:href="../../de/dce/classArcane_1_1mesh_1_1FaceUniqueIdBuilder2.html#a44c11bd7dddabdef63a37438939393db" target="_top" xlink:title="Détermine la liste des faces frontières de chaque sous&#45;domaine et les trie sur tous les procs.">
<polygon fill="white" stroke="#666666" points="692,-583 460,-583 460,-553 692,-553 692,-583"/>
<text text-anchor="start" x="468" y="-571" font-family="Helvetica,sans-Serif" font-size="10.00">Arcane::mesh::FaceUnique</text>
<text text-anchor="middle" x="576" y="-560" font-family="Helvetica,sans-Serif" font-size="10.00">IdBuilder2::_computeAndSortBoundaryFaces</text>
</a>
</g>
</g>
<!-- Node1&#45;&gt;Node2 -->
<g id="edge1_Node000001_Node000002" class="edge">
<title>Node1&#45;&gt;Node2</title>
<g id="a_edge1_Node000001_Node000002"><a xlink:title=" ">
<path fill="none" stroke="#63b8ff" d="M793.58,-311.57C787.8,-359.32 766.08,-482.43 692,-544 687.92,-547.39 683.49,-550.34 678.81,-552.9"/>
<polygon fill="#63b8ff" stroke="#63b8ff" points="797.06,-311.93 794.68,-301.6 790.1,-311.16 797.06,-311.93"/>
</a>
</g>
</g>
<!-- Node5 -->
<g id="Node000005" class="node">
<title>Node5</title>
<g id="a_Node000005"><a xlink:href="../../d2/db4/classArcane_1_1CartesianMeshCoarsening2.html#a45e75feb12d2fb5b78572fd8a7f22bec" target="_top" xlink:title=" ">
<polygon fill="white" stroke="#666666" points="671,-535 481,-535 481,-505 671,-505 671,-535"/>
<text text-anchor="start" x="489" y="-523" font-family="Helvetica,sans-Serif" font-size="10.00">Arcane::CartesianMeshCoarsening2</text>
<text text-anchor="middle" x="576" y="-512" font-family="Helvetica,sans-Serif" font-size="10.00">::_createCoarseCells3D</text>
</a>
</g>
</g>
<!-- Node1&#45;&gt;Node5 -->
<g id="edge4_Node000001_Node000005" class="edge">
<title>Node1&#45;&gt;Node5</title>
<g id="a_edge4_Node000001_Node000005"><a xlink:title=" ">
<path fill="none" stroke="#63b8ff" d="M791.56,-311.39C782.16,-352.44 754.39,-448.23 692,-496 685.68,-500.84 678.62,-504.76 671.19,-507.93"/>
<polygon fill="#63b8ff" stroke="#63b8ff" points="795,-312.08 793.7,-301.57 788.16,-310.59 795,-312.08"/>
</a>
</g>
</g>
<!-- Node7 -->
<g id="Node000007" class="node">
<title>Node7</title>
<g id="a_Node000007"><a xlink:href="../../d3/da2/classArcane_1_1MshMeshReader.html#adca11364773899e2f5137f678fd50740" target="_top" xlink:title="Lecture des éléments (mailles,faces,...)">
<polygon fill="white" stroke="#666666" points="658,-486.5 494,-486.5 494,-445.5 658,-445.5 658,-486.5"/>
<text text-anchor="start" x="502" y="-474.5" font-family="Helvetica,sans-Serif" font-size="10.00">Arcane::MshMeshReader</text>
<text text-anchor="start" x="502" y="-463.5" font-family="Helvetica,sans-Serif" font-size="10.00">::_readElementsFromAsciiMsh</text>
<text text-anchor="middle" x="576" y="-452.5" font-family="Helvetica,sans-Serif" font-size="10.00">V4File</text>
</a>
</g>
</g>
<!-- Node1&#45;&gt;Node7 -->
<g id="edge6_Node000001_Node000007" class="edge">
<title>Node1&#45;&gt;Node7</title>
<g id="a_edge6_Node000001_Node000007"><a xlink:title=" ">
<path fill="none" stroke="#63b8ff" d="M787.1,-311.16C772.45,-342.28 739.21,-403.6 692,-436 681.79,-443 670.05,-448.37 658.06,-452.49"/>
<polygon fill="#63b8ff" stroke="#63b8ff" points="790.38,-312.39 791.35,-301.84 784.02,-309.49 790.38,-312.39"/>
</a>
</g>
</g>
<!-- Node10 -->
<g id="Node000010" class="node">
<title>Node10</title>
<g id="a_Node000010"><a xlink:href="../../db/df3/classArcane_1_1MshParallelMeshReader.html#aed9484a1233e6ef87322e4e00b0b8e59" target="_top" xlink:title="Lit un bloc d&#39;entité de type &#39;Element&#39;.">
<polygon fill="white" stroke="#666666" points="662.5,-427 489.5,-427 489.5,-397 662.5,-397 662.5,-427"/>
<text text-anchor="start" x="497.5" y="-415" font-family="Helvetica,sans-Serif" font-size="10.00">Arcane::MshParallelMeshReader</text>
<text text-anchor="middle" x="576" y="-404" font-family="Helvetica,sans-Serif" font-size="10.00">::_readOneElementBlock</text>
</a>
</g>
</g>
<!-- Node1&#45;&gt;Node10 -->
<g id="edge9_Node000001_Node000010" class="edge">
<title>Node1&#45;&gt;Node10</title>
<g id="a_edge9_Node000001_Node000010"><a xlink:title=" ">
<path fill="none" stroke="#63b8ff" d="M781.81,-309.58C763.71,-331.53 729.68,-368.54 692,-388 682.85,-392.73 672.83,-396.52 662.65,-399.57"/>
<polygon fill="#63b8ff" stroke="#63b8ff" points="784.59,-311.7 788.14,-301.72 779.14,-307.31 784.59,-311.7"/>
</a>
</g>
</g>
<!-- Node12 -->
<g id="Node000012" class="node">
<title>Node12</title>
<g id="a_Node000012"><a xlink:href="../../dd/d88/classArcane_1_1ArcaneBasicMeshSubdividerService.html#ac59745427a4b2e196fd4b2b1a5af2ed1" target="_top" xlink:title="Raffine une fois le maillage avec les motifs présent dans le pattern_manager.">
<polygon fill="white" stroke="#666666" points="673,-379 479,-379 479,-349 673,-349 673,-379"/>
<text text-anchor="start" x="487" y="-367" font-family="Helvetica,sans-Serif" font-size="10.00">Arcane::ArcaneBasicMeshSubdivider</text>
<text text-anchor="middle" x="576" y="-356" font-family="Helvetica,sans-Serif" font-size="10.00">Service::_refineOnce</text>
</a>
</g>
</g>
<!-- Node1&#45;&gt;Node12 -->
<g id="edge11_Node000001_Node000012" class="edge">
<title>Node1&#45;&gt;Node12</title>
<g id="a_edge11_Node000001_Node000012"><a xlink:title=" ">
<path fill="none" stroke="#63b8ff" d="M769.02,-306.33C748.51,-316.93 719.11,-331.02 692,-340 681.84,-343.37 671,-346.36 660.21,-349"/>
<polygon fill="#63b8ff" stroke="#63b8ff" points="770.82,-309.34 778.05,-301.6 767.57,-303.14 770.82,-309.34"/>
</a>
</g>
</g>
<!-- Node17 -->
<g id="Node000017" class="node">
<title>Node17</title>
<g id="a_Node000017"><a xlink:href="../../d8/dc1/classArcane_1_1mesh_1_1GhostLayerBuilder2.html#a69f87cbdfaf97c83a6333b01fefde9c6" target="_top" xlink:title="Trie parallèle de la liste des infos sur les noeuds frontières.">
<polygon fill="white" stroke="#666666" points="664,-331 488,-331 488,-301 664,-301 664,-331"/>
<text text-anchor="start" x="496" y="-319" font-family="Helvetica,sans-Serif" font-size="10.00">Arcane::mesh::GhostLayer</text>
<text text-anchor="middle" x="576" y="-308" font-family="Helvetica,sans-Serif" font-size="10.00">Builder2::_sortBoundaryNodeList</text>
</a>
</g>
</g>
<!-- Node1&#45;&gt;Node17 -->
<g id="edge17_Node000001_Node000017" class="edge">
<title>Node1&#45;&gt;Node17</title>
<g id="a_edge17_Node000001_Node000017"><a xlink:title=" ">
<path fill="none" stroke="#63b8ff" d="M717.77,-300.54C700.36,-302.45 681.79,-304.49 664.04,-306.44"/>
<polygon fill="#63b8ff" stroke="#63b8ff" points="718.3,-304 727.86,-299.43 717.54,-297.04 718.3,-304"/>
</a>
</g>
</g>
<!-- Node18 -->
<g id="Node000018" class="node">
<title>Node18</title>
<g id="a_Node000018"><a xlink:href="../../de/ddb/classArcane_1_1mesh_1_1GraphDoFs.html#a6cbe16a8e120ee6ed67c391aa0bc4998" target="_top" xlink:title="Ajout de liaisons dans le graphe avec un nombre fixe de noeuds dual par liaison.">
<polygon fill="white" stroke="#666666" points="647.5,-283 504.5,-283 504.5,-253 647.5,-253 647.5,-283"/>
<text text-anchor="start" x="512.5" y="-271" font-family="Helvetica,sans-Serif" font-size="10.00">Arcane::mesh::GraphDoFs</text>
<text text-anchor="middle" x="576" y="-260" font-family="Helvetica,sans-Serif" font-size="10.00">::addLinks</text>
</a>
</g>
</g>
<!-- Node1&#45;&gt;Node18 -->
<g id="edge18_Node000001_Node000018" class="edge">
<title>Node1&#45;&gt;Node18</title>
<g id="a_edge18_Node000001_Node000018"><a xlink:title=" ">
<path fill="none" stroke="#63b8ff" d="M717.86,-283.47C695,-280.96 670.12,-278.23 647.72,-275.77"/>
<polygon fill="#63b8ff" stroke="#63b8ff" points="717.54,-286.96 727.86,-284.57 718.3,-280 717.54,-286.96"/>
</a>
</g>
</g>
<!-- Node19 -->
<g id="Node000019" class="node">
<title>Node19</title>
<g id="a_Node000019"><a xlink:href="../../d0/d9e/classArcane_1_1ItemConnectivitySynchronizer.html#a2c6beb189703165ffaa9e0e87295d5af" target="_top" xlink:title="Interface IExtraGhostItemsBuilder.">
<polygon fill="white" stroke="#666666" points="667,-234.5 485,-234.5 485,-193.5 667,-193.5 667,-234.5"/>
<text text-anchor="start" x="493" y="-222.5" font-family="Helvetica,sans-Serif" font-size="10.00">Arcane::ItemConnectivity</text>
<text text-anchor="start" x="493" y="-211.5" font-family="Helvetica,sans-Serif" font-size="10.00">Synchronizer::computeExtraItems</text>
<text text-anchor="middle" x="576" y="-200.5" font-family="Helvetica,sans-Serif" font-size="10.00">ToSend</text>
</a>
</g>
</g>
<!-- Node1&#45;&gt;Node19 -->
<g id="edge19_Node000001_Node000019" class="edge">
<title>Node1&#45;&gt;Node19</title>
<g id="a_edge19_Node000001_Node000019"><a xlink:title=" ">
<path fill="none" stroke="#63b8ff" d="M768.52,-277.86C747.95,-267.49 718.71,-253.59 692,-244 682.58,-240.62 672.6,-237.44 662.62,-234.51"/>
<polygon fill="#63b8ff" stroke="#63b8ff" points="767.09,-281.06 777.59,-282.49 770.28,-274.83 767.09,-281.06"/>
</a>
</g>
</g>
<!-- Node20 -->
<g id="Node000020" class="node">
<title>Node20</title>
<g id="a_Node000020"><a xlink:href="../../d5/d2e/classArcane_1_1Process.html#aa1744857645cc083bd7c62d7fc6f255b" target="_top" xlink:title="Exécute un processus dont les infos sont contenues dans args.">
<polygon fill="white" stroke="#666666" points="645,-175.5 507,-175.5 507,-156.5 645,-156.5 645,-175.5"/>
<text text-anchor="middle" x="576" y="-163.5" font-family="Helvetica,sans-Serif" font-size="10.00">Arcane::Process::execute</text>
</a>
</g>
</g>
<!-- Node1&#45;&gt;Node20 -->
<g id="edge20_Node000001_Node000020" class="edge">
<title>Node1&#45;&gt;Node20</title>
<g id="a_edge20_Node000001_Node000020"><a xlink:title=" ">
<path fill="none" stroke="#63b8ff" d="M783.76,-273.71C766.76,-248.92 732.83,-205.31 692,-184 677.67,-176.52 661.06,-171.96 645,-169.22"/>
<polygon fill="#63b8ff" stroke="#63b8ff" points="780.96,-275.83 789.42,-282.21 786.78,-271.94 780.96,-275.83"/>
</a>
</g>
</g>
<!-- Node22 -->
<g id="Node000022" class="node">
<title>Node22</title>
<g id="a_Node000022"><a xlink:href="../../d4/d86/classArcane_1_1ParameterOptionElementsCollection.html#adc1d2c1548395ddaeea26650bafdca56" target="_top" xlink:title="Méthode permettant de récupérer un ou plusieurs indices dans la liste d&#39;adresses.">
<polygon fill="white" stroke="#666666" points="668.5,-138 483.5,-138 483.5,-108 668.5,-108 668.5,-138"/>
<text text-anchor="start" x="491.5" y="-126" font-family="Helvetica,sans-Serif" font-size="10.00">Arcane::ParameterOptionElements</text>
<text text-anchor="middle" x="576" y="-115" font-family="Helvetica,sans-Serif" font-size="10.00">Collection::getIndexInAddr</text>
</a>
</g>
</g>
<!-- Node1&#45;&gt;Node22 -->
<g id="edge22_Node000001_Node000022" class="edge">
<title>Node1&#45;&gt;Node22</title>
<g id="a_edge22_Node000001_Node000022"><a xlink:title=" ">
<path fill="none" stroke="#63b8ff" d="M787.52,-272.9C773.29,-241.33 740.4,-178.59 692,-147 684.83,-142.32 676.91,-138.53 668.69,-135.46"/>
<polygon fill="#63b8ff" stroke="#63b8ff" points="784.43,-274.56 791.63,-282.33 790.84,-271.76 784.43,-274.56"/>
</a>
</g>
</g>
<!-- Node23 -->
<g id="Node000023" class="node">
<title>Node23</title>
<g id="a_Node000023"><a xlink:href="../../d8/d9e/classArcane_1_1Materials_1_1ItemMaterialVariableArray.html#a5d453f182f1dbe79819b62047a9477d6" target="_top" xlink:title="Sérialise la variable pour les entités de numéro local ids.">
<polygon fill="white" stroke="#666666" points="649,-89.5 503,-89.5 503,-48.5 649,-48.5 649,-89.5"/>
<text text-anchor="start" x="511" y="-77.5" font-family="Helvetica,sans-Serif" font-size="10.00">Arcane::Materials::</text>
<text text-anchor="start" x="511" y="-66.5" font-family="Helvetica,sans-Serif" font-size="10.00">ItemMaterialVariableArray</text>
<text text-anchor="middle" x="576" y="-55.5" font-family="Helvetica,sans-Serif" font-size="10.00">::serialize</text>
</a>
</g>
</g>
<!-- Node1&#45;&gt;Node23 -->
<g id="edge23_Node000001_Node000023" class="edge">
<title>Node1&#45;&gt;Node23</title>
<g id="a_edge23_Node000001_Node000023"><a xlink:title=" ">
<path fill="none" stroke="#63b8ff" d="M790.63,-272.27C779.87,-233.01 750.31,-144.9 692,-99 679.6,-89.24 664.34,-82.63 649.04,-78.16"/>
<polygon fill="#63b8ff" stroke="#63b8ff" points="787.3,-273.4 793.22,-282.18 794.07,-271.62 787.3,-273.4"/>
</a>
</g>
</g>
<!-- Node24 -->
<g id="Node000024" class="node">
<title>Node24</title>
<g id="a_Node000024"><a xlink:href="../../d1/d74/classArcane_1_1ItemConnectivityMng.html#ae5be983e31f35e6d8156ec35b21a81b2" target="_top" xlink:title="Enregistrement de modifications d&#39;une famille d&#39;items.">
<polygon fill="white" stroke="#666666" points="646,-30 506,-30 506,0 646,0 646,-30"/>
<text text-anchor="start" x="514" y="-18" font-family="Helvetica,sans-Serif" font-size="10.00">Arcane::ItemConnectivity</text>
<text text-anchor="middle" x="576" y="-7" font-family="Helvetica,sans-Serif" font-size="10.00">Mng::setModifiedItems</text>
</a>
</g>
</g>
<!-- Node1&#45;&gt;Node24 -->
<g id="edge24_Node000001_Node000024" class="edge">
<title>Node1&#45;&gt;Node24</title>
<g id="a_edge24_Node000001_Node000024"><a xlink:title=" ">
<path fill="none" stroke="#63b8ff" d="M793.61,-272.36C787.88,-224.42 766.29,-100.83 692,-39 679.07,-28.24 662.53,-21.92 646.05,-18.3"/>
<polygon fill="#63b8ff" stroke="#63b8ff" points="790.13,-272.8 794.7,-282.36 797.09,-272.04 790.13,-272.8"/>
</a>
</g>
</g>
<!-- Node3 -->
<g id="Node000003" class="node">
<title>Node3</title>
<g id="a_Node000003"><a xlink:href="../../de/dce/classArcane_1_1mesh_1_1FaceUniqueIdBuilder2.html#a4da47530e35ec4f39890bfdfc60ccfdf" target="_top" xlink:title="Calcul les numéros uniques de chaque face en parallèle.">
<polygon fill="white" stroke="#666666" points="405,-583 249,-583 249,-553 405,-553 405,-583"/>
<text text-anchor="start" x="257" y="-571" font-family="Helvetica,sans-Serif" font-size="10.00">Arcane::mesh::FaceUnique</text>
<text text-anchor="middle" x="327" y="-560" font-family="Helvetica,sans-Serif" font-size="10.00">IdBuilder2::_computeParallel</text>
</a>
</g>
</g>
<!-- Node2&#45;&gt;Node3 -->
<g id="edge2_Node000002_Node000003" class="edge">
<title>Node2&#45;&gt;Node3</title>
<g id="a_edge2_Node000002_Node000003"><a xlink:title=" ">
<path fill="none" stroke="#63b8ff" d="M449.4,-568C434.35,-568 419.34,-568 405.27,-568"/>
<polygon fill="#63b8ff" stroke="#63b8ff" points="449.82,-571.5 459.82,-568 449.82,-564.5 449.82,-571.5"/>
</a>
</g>
</g>
<!-- Node4 -->
<g id="Node000004" class="node">
<title>Node4</title>
<g id="a_Node000004"><a xlink:href="../../de/dce/classArcane_1_1mesh_1_1FaceUniqueIdBuilder2.html#a78c213fa49c7e8aef26eb69c13f814b2" target="_top" xlink:title="Calcul les numéros uniques de chaque face en parallèle.">
<polygon fill="white" stroke="#666666" points="185,-588.5 9,-588.5 9,-547.5 185,-547.5 185,-588.5"/>
<text text-anchor="start" x="17" y="-576.5" font-family="Helvetica,sans-Serif" font-size="10.00">Arcane::mesh::FaceUnique</text>
<text text-anchor="start" x="17" y="-565.5" font-family="Helvetica,sans-Serif" font-size="10.00">IdBuilder2::computeFacesUnique</text>
<text text-anchor="middle" x="97" y="-554.5" font-family="Helvetica,sans-Serif" font-size="10.00">IdAndOwnerVersion3</text>
</a>
</g>
</g>
<!-- Node3&#45;&gt;Node4 -->
<g id="edge3_Node000003_Node000004" class="edge">
<title>Node3&#45;&gt;Node4</title>
<g id="a_edge3_Node000003_Node000004"><a xlink:title=" ">
<path fill="none" stroke="#63b8ff" d="M238.63,-568C221.16,-568 202.79,-568 185.32,-568"/>
<polygon fill="#63b8ff" stroke="#63b8ff" points="238.81,-571.5 248.81,-568 238.81,-564.5 238.81,-571.5"/>
</a>
</g>
</g>
<!-- Node6 -->
<g id="Node000006" class="node">
<title>Node6</title>
<g id="a_Node000006"><a xlink:href="../../d2/db4/classArcane_1_1CartesianMeshCoarsening2.html#a25dea01f8982749c190ec6f8e75951b9" target="_top" xlink:title="Déraffine le maillage initial par 2.">
<polygon fill="white" stroke="#666666" points="422,-535 232,-535 232,-505 422,-505 422,-535"/>
<text text-anchor="start" x="240" y="-523" font-family="Helvetica,sans-Serif" font-size="10.00">Arcane::CartesianMeshCoarsening2</text>
<text text-anchor="middle" x="327" y="-512" font-family="Helvetica,sans-Serif" font-size="10.00">::createCoarseCells</text>
</a>
</g>
</g>
<!-- Node5&#45;&gt;Node6 -->
<g id="edge5_Node000005_Node000006" class="edge">
<title>Node5&#45;&gt;Node6</title>
<g id="a_edge5_Node000005_Node000006"><a xlink:title=" ">
<path fill="none" stroke="#63b8ff" d="M470.47,-520C454.45,-520 438.01,-520 422.23,-520"/>
<polygon fill="#63b8ff" stroke="#63b8ff" points="470.92,-523.5 480.92,-520 470.92,-516.5 470.92,-523.5"/>
</a>
</g>
</g>
<!-- Node8 -->
<g id="Node000008" class="node">
<title>Node8</title>
<g id="a_Node000008"><a xlink:href="../../d3/da2/classArcane_1_1MshMeshReader.html#a7e9ee0a0fec68f6102c2bb2e13d6acd0" target="_top" xlink:title=" ">
<polygon fill="white" stroke="#666666" points="407,-481 247,-481 247,-451 407,-451 407,-481"/>
<text text-anchor="start" x="255" y="-469" font-family="Helvetica,sans-Serif" font-size="10.00">Arcane::MshMeshReader</text>
<text text-anchor="middle" x="327" y="-458" font-family="Helvetica,sans-Serif" font-size="10.00">::_readMeshFromNewMshFile</text>
</a>
</g>
</g>
<!-- Node7&#45;&gt;Node8 -->
<g id="edge7_Node000007_Node000008" class="edge">
<title>Node7&#45;&gt;Node8</title>
<g id="a_edge7_Node000007_Node000008"><a xlink:title=" ">
<path fill="none" stroke="#63b8ff" d="M483.54,-466C458.46,-466 431.49,-466 407.16,-466"/>
<polygon fill="#63b8ff" stroke="#63b8ff" points="483.78,-469.5 493.78,-466 483.78,-462.5 483.78,-469.5"/>
</a>
</g>
</g>
<!-- Node9 -->
<g id="Node000009" class="node">
<title>Node9</title>
<g id="a_Node000009"><a xlink:href="../../d3/da2/classArcane_1_1MshMeshReader.html#a6cc7b09c9f3ce7f3a855eb9009d12998" target="_top" xlink:title=" ">
<polygon fill="white" stroke="#666666" points="165.5,-481 28.5,-481 28.5,-451 165.5,-451 165.5,-481"/>
<text text-anchor="start" x="36.5" y="-469" font-family="Helvetica,sans-Serif" font-size="10.00">Arcane::MshMeshReader</text>
<text text-anchor="middle" x="97" y="-458" font-family="Helvetica,sans-Serif" font-size="10.00">::readMeshFromMshFile</text>
</a>
</g>
</g>
<!-- Node8&#45;&gt;Node9 -->
<g id="edge8_Node000008_Node000009" class="edge">
<title>Node8&#45;&gt;Node9</title>
<g id="a_edge8_Node000008_Node000009"><a xlink:title=" ">
<path fill="none" stroke="#63b8ff" d="M236.84,-466C213.14,-466 187.93,-466 165.59,-466"/>
<polygon fill="#63b8ff" stroke="#63b8ff" points="236.9,-469.5 246.9,-466 236.9,-462.5 236.9,-469.5"/>
</a>
</g>
</g>
<!-- Node11 -->
<g id="Node000011" class="node">
<title>Node11</title>
<g id="a_Node000011"><a xlink:href="../../db/df3/classArcane_1_1MshParallelMeshReader.html#a327b7bfc6e0ca080e1eb87c6f3324083" target="_top" xlink:title="Lecture des éléments (mailles,faces,...)">
<polygon fill="white" stroke="#666666" points="413.5,-430 240.5,-430 240.5,-400 413.5,-400 413.5,-430"/>
<text text-anchor="start" x="248.5" y="-418" font-family="Helvetica,sans-Serif" font-size="10.00">Arcane::MshParallelMeshReader</text>
<text text-anchor="middle" x="327" y="-407" font-family="Helvetica,sans-Serif" font-size="10.00">::_readElementsFromFile</text>
</a>
</g>
</g>
<!-- Node10&#45;&gt;Node11 -->
<g id="edge10_Node000010_Node000011" class="edge">
<title>Node10&#45;&gt;Node11</title>
<g id="a_edge10_Node000010_Node000011"><a xlink:title=" ">
<path fill="none" stroke="#63b8ff" d="M479.13,-413.16C457.52,-413.43 434.71,-413.7 413.54,-413.96"/>
<polygon fill="#63b8ff" stroke="#63b8ff" points="479.35,-416.66 489.3,-413.04 479.26,-409.66 479.35,-416.66"/>
</a>
</g>
</g>
<!-- Node13 -->
<g id="Node000013" class="node">
<title>Node13</title>
<g id="a_Node000013"><a xlink:href="../../dd/d88/classArcane_1_1ArcaneBasicMeshSubdividerService.html#a5d858e9d9294f3a933c49764d679c128" target="_top" xlink:title="Methode pour obtenir les fichier vtk pour les différent pattern disponibles en 2D.">
<polygon fill="white" stroke="#666666" points="424,-382 230,-382 230,-352 424,-352 424,-382"/>
<text text-anchor="start" x="238" y="-370" font-family="Helvetica,sans-Serif" font-size="10.00">Arcane::ArcaneBasicMeshSubdivider</text>
<text text-anchor="middle" x="327" y="-359" font-family="Helvetica,sans-Serif" font-size="10.00">Service::_generatePattern2D</text>
</a>
</g>
</g>
<!-- Node12&#45;&gt;Node13 -->
<g id="edge12_Node000012_Node000013" class="edge">
<title>Node12&#45;&gt;Node13</title>
<g id="a_edge12_Node000012_Node000013"><a xlink:title=" ">
<path fill="none" stroke="#63b8ff" d="M468.66,-365.29C453.94,-365.47 438.88,-365.65 424.35,-365.83"/>
<polygon fill="#63b8ff" stroke="#63b8ff" points="468.84,-368.79 478.8,-365.17 468.75,-361.79 468.84,-368.79"/>
</a>
</g>
</g>
<!-- Node15 -->
<g id="Node000015" class="node">
<title>Node15</title>
<g id="a_Node000015"><a xlink:href="../../dd/d88/classArcane_1_1ArcaneBasicMeshSubdividerService.html#a61df19e5d48b05b03fa04e459a26d766" target="_top" xlink:title="Methode pour obtenir les fichier vtk pour les différent pattern disponibles en 3D.">
<polygon fill="white" stroke="#666666" points="424,-334 230,-334 230,-304 424,-304 424,-334"/>
<text text-anchor="start" x="238" y="-322" font-family="Helvetica,sans-Serif" font-size="10.00">Arcane::ArcaneBasicMeshSubdivider</text>
<text text-anchor="middle" x="327" y="-311" font-family="Helvetica,sans-Serif" font-size="10.00">Service::_generatePattern3D</text>
</a>
</g>
</g>
<!-- Node12&#45;&gt;Node15 -->
<g id="edge14_Node000012_Node000015" class="edge">
<title>Node12&#45;&gt;Node15</title>
<g id="a_edge14_Node000012_Node000015"><a xlink:title=" ">
<path fill="none" stroke="#63b8ff" d="M482.4,-347.13C458.79,-342.83 433.58,-338.23 410.51,-334.03"/>
<polygon fill="#63b8ff" stroke="#63b8ff" points="481.94,-350.6 492.41,-348.95 483.2,-343.72 481.94,-350.6"/>
</a>
</g>
</g>
<!-- Node16 -->
<g id="Node000016" class="node">
<title>Node16</title>
<g id="a_Node000016"><a xlink:href="../../dd/d88/classArcane_1_1ArcaneBasicMeshSubdividerService.html#a67b99301f0613f498b149aa76961d6fd" target="_top" xlink:title="Raffine le maillage un nombre nb&#45;subdivision.">
<polygon fill="white" stroke="#666666" points="424,-286 230,-286 230,-256 424,-256 424,-286"/>
<text text-anchor="start" x="238" y="-274" font-family="Helvetica,sans-Serif" font-size="10.00">Arcane::ArcaneBasicMeshSubdivider</text>
<text text-anchor="middle" x="327" y="-263" font-family="Helvetica,sans-Serif" font-size="10.00">Service::subdivideMesh</text>
</a>
</g>
</g>
<!-- Node12&#45;&gt;Node16 -->
<g id="edge16_Node000012_Node000016" class="edge">
<title>Node12&#45;&gt;Node16</title>
<g id="a_edge16_Node000012_Node000016"><a xlink:title=" ">
<path fill="none" stroke="#63b8ff" d="M469.47,-345.19C466.22,-343.6 463.05,-341.87 460,-340 438.18,-326.59 445.56,-308.83 424,-295 418.65,-291.57 412.84,-288.63 406.82,-286.1"/>
<polygon fill="#63b8ff" stroke="#63b8ff" points="468.31,-348.51 478.88,-349.35 471.14,-342.1 468.31,-348.51"/>
</a>
</g>
</g>
<!-- Node14 -->
<g id="Node000014" class="node">
<title>Node14</title>
<g id="a_Node000014"><a xlink:href="../../dd/d88/classArcane_1_1ArcaneBasicMeshSubdividerService.html#ac088bd17e898955e0b09474bcd75be71" target="_top" xlink:title="Méthode pour générer les motifs sur un seul élément de base.">
<polygon fill="white" stroke="#666666" points="194,-358 0,-358 0,-328 194,-328 194,-358"/>
<text text-anchor="start" x="8" y="-346" font-family="Helvetica,sans-Serif" font-size="10.00">Arcane::ArcaneBasicMeshSubdivider</text>
<text text-anchor="middle" x="97" y="-335" font-family="Helvetica,sans-Serif" font-size="10.00">Service::_generatePattern</text>
</a>
</g>
</g>
<!-- Node13&#45;&gt;Node14 -->
<g id="edge13_Node000013_Node000014" class="edge">
<title>Node13&#45;&gt;Node14</title>
<g id="a_edge13_Node000013_Node000014"><a xlink:title=" ">
<path fill="none" stroke="#63b8ff" d="M219.96,-355.84C211.4,-354.94 202.77,-354.03 194.29,-353.14"/>
<polygon fill="#63b8ff" stroke="#63b8ff" points="219.66,-359.33 229.97,-356.89 220.39,-352.36 219.66,-359.33"/>
</a>
</g>
</g>
<!-- Node15&#45;&gt;Node14 -->
<g id="edge15_Node000015_Node000014" class="edge">
<title>Node15&#45;&gt;Node14</title>
<g id="a_edge15_Node000015_Node000014"><a xlink:title=" ">
<path fill="none" stroke="#63b8ff" d="M219.96,-330.16C211.4,-331.06 202.77,-331.97 194.29,-332.86"/>
<polygon fill="#63b8ff" stroke="#63b8ff" points="220.39,-333.64 229.97,-329.11 219.66,-326.67 220.39,-333.64"/>
</a>
</g>
</g>
<!-- Node21 -->
<g id="Node000021" class="node">
<title>Node21</title>
<g id="a_Node000021"><a xlink:href="../../d0/df6/classArcane_1_1LLVMSymbolizerService.html#a618027ec58847e4eb9a1bdd00cd0afa5" target="_top" xlink:title="Informations pour la pile d&#39;appel frames.">
<polygon fill="white" stroke="#666666" points="413.5,-181 240.5,-181 240.5,-151 413.5,-151 413.5,-181"/>
<text text-anchor="start" x="248.5" y="-169" font-family="Helvetica,sans-Serif" font-size="10.00">Arcane::LLVMSymbolizerService</text>
<text text-anchor="middle" x="327" y="-158" font-family="Helvetica,sans-Serif" font-size="10.00">::stackTrace</text>
</a>
</g>
</g>
<!-- Node20&#45;&gt;Node21 -->
<g id="edge21_Node000020_Node000021" class="edge">
<title>Node20&#45;&gt;Node21</title>
<g id="a_edge21_Node000020_Node000021"><a xlink:title=" ">
<path fill="none" stroke="#63b8ff" d="M496.52,-166C470.1,-166 440.51,-166 413.58,-166"/>
<polygon fill="#63b8ff" stroke="#63b8ff" points="496.85,-169.5 506.85,-166 496.85,-162.5 496.85,-169.5"/>
</a>
</g>
</g>
</g>
</svg>
