<?xml version="1.0" encoding="UTF-8" standalone="no"?>
<!DOCTYPE svg PUBLIC "-//W3C//DTD SVG 1.1//EN"
 "http://www.w3.org/Graphics/SVG/1.1/DTD/svg11.dtd">
<!-- Generated by graphviz version 2.43.0 (0)
 -->
<!-- Title: Arcane::mesh::DynamicMesh::_multipleExchangeItems Pages: 1 -->
<!--zoomable 700 -->

<svg id="main" version="1.1" xmlns="http://www.w3.org/2000/svg" xmlns:xlink="http://www.w3.org/1999/xlink" xml:space="preserve" onload="init(evt)">

<style type="text/css"><![CDATA[
.node, .edge {opacity: 0.7;}
.node.selected, .edge.selected {opacity: 1;}
.edge:hover path { stroke: red; }
.edge:hover polygon { stroke: red; fill: red; }
]]></style>

<defs>
  <circle id="rim" cx="0" cy="0" r="7"/>
  <circle id="rim2" cx="0" cy="0" r="3.5"/>
  <g id="zoomPlus">
    <use xlink:href="#rim" fill="#404040"><set attributeName="fill" to="#808080" begin="zoomplus.mouseover" end="zoomplus.mouseout"/></use>
    <path d="M-4,0h8M0,-4v8" fill="none" stroke="white" stroke-width="1.5" pointer-events="none"/>
  </g>
  <g id="zoomMin">
    <use xlink:href="#rim" fill="#404040"><set attributeName="fill" to="#808080" begin="zoomminus.mouseover" end="zoomminus.mouseout"/></use>
    <path d="M-4,0h8" fill="none" stroke="white" stroke-width="1.5" pointer-events="none"/>
  </g>
  <g id="arrowUp" transform="translate(30 24)">
    <use xlink:href="#rim"/>
    <path pointer-events="none" fill="none" stroke="white" stroke-width="1.5" d="M0,-3.0v7 M-2.5,-0.5L0,-3.0L2.5,-0.5"/>
  </g>
  <g id="arrowRight" transform="rotate(90) translate(36 -43)">
    <use xlink:href="#rim"/>
    <path pointer-events="none" fill="none" stroke="white" stroke-width="1.5" d="M0,-3.0v7 M-2.5,-0.5L0,-3.0L2.5,-0.5"/>
  </g>
  <g id="arrowDown" transform="rotate(180) translate(-30 -48)">
    <use xlink:href="#rim"/>
    <path pointer-events="none" fill="none" stroke="white" stroke-width="1.5" d="M0,-3.0v7 M-2.5,-0.5L0,-3.0L2.5,-0.5"/>
  </g>
  <g id="arrowLeft" transform="rotate(270) translate(-36 17)">
    <use xlink:href="#rim"/>
    <path pointer-events="none" fill="none" stroke="white" stroke-width="1.5" d="M0,-3.0v7 M-2.5,-0.5L0,-3.0L2.5,-0.5"/>
  </g>
  <g id="resetDef">
    <use xlink:href="#rim2" fill="#404040"><set attributeName="fill" to="#808080" begin="reset.mouseover" end="reset.mouseout"/></use>
  </g>
</defs>
<script type="application/ecmascript">
var viewWidth = 362;
var viewHeight = 700;
var sectionId = 'dynsection-6';
</script>
<script type="application/ecmascript" xlink:href="../../svg.min.js"/>
<svg id="graph" class="graph">
<g id="viewport">
<title>Arcane::mesh::DynamicMesh::_multipleExchangeItems</title>
<!-- Node1 -->
<g id="Node000001" class="node">
<title>Node1</title>
<g id="a_Node000001"><a xlink:title="Echange les entités en plusieurs fois.">
<polygon fill="#999999" stroke="#666666" points="159,-330.5 0,-330.5 0,-300.5 159,-300.5 159,-330.5"/>
<text text-anchor="start" x="8" y="-318.5" font-family="Helvetica,sans-Serif" font-size="10.00">Arcane::mesh::DynamicMesh</text>
<text text-anchor="middle" x="79.5" y="-307.5" font-family="Helvetica,sans-Serif" font-size="10.00">::_multipleExchangeItems</text>
</a>
</g>
</g>
<!-- Node2 -->
<g id="Node000002" class="node">
<title>Node2</title>
<g id="a_Node000002"><a xlink:href="../../d1/dfb/classArcane_1_1Array.html#afb30a771d3fd8022c7220afe7b78e60b" target="_top" xlink:title="Ajoute l&#39;élément val à la fin du tableau.">
<polygon fill="white" stroke="#666666" points="327.5,-692 221.5,-692 221.5,-673 327.5,-673 327.5,-692"/>
<text text-anchor="middle" x="274.5" y="-680" font-family="Helvetica,sans-Serif" font-size="10.00">Arcane::Array::add</text>
</a>
</g>
</g>
<!-- Node1&#45;&gt;Node2 -->
<g id="edge1_Node000001_Node000002" class="edge">
<title>Node1&#45;&gt;Node2</title>
<g id="a_edge1_Node000001_Node000002"><a xlink:title=" ">
<path fill="none" stroke="#63b8ff" d="M80.6,-330.75C81.82,-384.94 93.56,-569.91 195,-663.5 199.8,-667.93 205.46,-671.38 211.49,-674.05"/>
<polygon fill="#63b8ff" stroke="#63b8ff" points="210.64,-677.47 221.23,-677.65 213.06,-670.9 210.64,-677.47"/>
</a>
</g>
</g>
<!-- Node3 -->
<g id="Node000003" class="node">
<title>Node3</title>
<g id="a_Node000003"><a xlink:href="../../d2/daa/classArcane_1_1mesh_1_1DynamicMesh.html#a257d9a1579b7d562a86e13e6727300ad" target="_top" xlink:title="Retourne la famille des mailles.">
<polygon fill="white" stroke="#666666" points="354,-654.5 195,-654.5 195,-624.5 354,-624.5 354,-654.5"/>
<text text-anchor="start" x="203" y="-642.5" font-family="Helvetica,sans-Serif" font-size="10.00">Arcane::mesh::DynamicMesh</text>
<text text-anchor="middle" x="274.5" y="-631.5" font-family="Helvetica,sans-Serif" font-size="10.00">::cellFamily</text>
</a>
</g>
</g>
<!-- Node1&#45;&gt;Node3 -->
<g id="edge2_Node000001_Node000003" class="edge">
<title>Node1&#45;&gt;Node3</title>
<g id="a_edge2_Node000001_Node000003"><a xlink:title=" ">
<path fill="none" stroke="#63b8ff" d="M81.73,-330.84C86.49,-379.86 108.03,-534.24 195,-615.5 196.14,-616.56 197.32,-617.58 198.55,-618.55"/>
<polygon fill="#63b8ff" stroke="#63b8ff" points="196.9,-621.66 207.15,-624.34 200.8,-615.85 196.9,-621.66"/>
</a>
</g>
</g>
<!-- Node4 -->
<g id="Node000004" class="node">
<title>Node4</title>
<g id="a_Node000004"><a xlink:href="../../dd/d6a/classArcane_1_1IMeshUtilities.html#a0266268ca4c31dfca2884d8ed75f3742" target="_top" xlink:title="Positionne les nouveaux propriétaires des noeuds, arêtes et faces à partir des mailles.">
<polygon fill="white" stroke="#666666" points="346,-588.5 203,-588.5 203,-558.5 346,-558.5 346,-588.5"/>
<text text-anchor="start" x="211" y="-576.5" font-family="Helvetica,sans-Serif" font-size="10.00">Arcane::IMeshUtilities</text>
<text text-anchor="middle" x="274.5" y="-565.5" font-family="Helvetica,sans-Serif" font-size="10.00">::changeOwnersFromCells</text>
</a>
</g>
</g>
<!-- Node1&#45;&gt;Node4 -->
<g id="edge3_Node000001_Node000004" class="edge">
<title>Node1&#45;&gt;Node4</title>
<g id="a_edge3_Node000001_Node000004"><a xlink:title=" ">
<path fill="none" stroke="#63b8ff" d="M83.52,-330.66C92.57,-372.13 123.43,-488.45 195,-549.5 196.5,-550.78 198.08,-552 199.7,-553.15"/>
<polygon fill="#63b8ff" stroke="#63b8ff" points="197.9,-556.14 208.25,-558.37 201.55,-550.17 197.9,-556.14"/>
</a>
</g>
</g>
<!-- Node5 -->
<g id="Node000005" class="node">
<title>Node5</title>
<g id="a_Node000005"><a xlink:href="../../d1/d17/classArcane_1_1TraceAccessor.html#a7f15f017b10b72c85bba3fce76314619" target="_top" xlink:title="Flot pour un message d&#39;information.">
<polygon fill="white" stroke="#666666" points="337,-540.5 212,-540.5 212,-510.5 337,-510.5 337,-540.5"/>
<text text-anchor="start" x="220" y="-528.5" font-family="Helvetica,sans-Serif" font-size="10.00">Arcane::TraceAccessor</text>
<text text-anchor="middle" x="274.5" y="-517.5" font-family="Helvetica,sans-Serif" font-size="10.00">::info</text>
</a>
</g>
</g>
<!-- Node1&#45;&gt;Node5 -->
<g id="edge5_Node000001_Node000005" class="edge">
<title>Node1&#45;&gt;Node5</title>
<g id="a_edge5_Node000001_Node000005"><a xlink:title=" ">
<path fill="none" stroke="#63b8ff" d="M85.54,-330.59C98.14,-365.93 134.39,-454.67 195,-501.5 197.46,-503.4 200.07,-505.15 202.78,-506.76"/>
<polygon fill="#63b8ff" stroke="#63b8ff" points="201.28,-509.93 211.77,-511.46 204.52,-503.72 201.28,-509.93"/>
</a>
</g>
</g>
<!-- Node6 -->
<g id="Node000006" class="node">
<title>Node6</title>
<g id="a_Node000006"><a xlink:href="../../dd/d0a/classArcane_1_1IItemFamily.html#a5274480df9c2e1163d59cda218f882bf" target="_top" xlink:title="Tableau interne des entités.">
<polygon fill="white" stroke="#666666" points="331.5,-492.5 217.5,-492.5 217.5,-462.5 331.5,-462.5 331.5,-492.5"/>
<text text-anchor="start" x="225.5" y="-480.5" font-family="Helvetica,sans-Serif" font-size="10.00">Arcane::IItemFamily</text>
<text text-anchor="middle" x="274.5" y="-469.5" font-family="Helvetica,sans-Serif" font-size="10.00">::itemsInternal</text>
</a>
</g>
</g>
<!-- Node1&#45;&gt;Node6 -->
<g id="edge6_Node000001_Node000006" class="edge">
<title>Node1&#45;&gt;Node6</title>
<g id="a_edge6_Node000001_Node000006"><a xlink:title=" ">
<path fill="none" stroke="#63b8ff" d="M89.06,-330.85C105.72,-359.31 145.25,-420.37 195,-453.5 199.01,-456.17 203.34,-458.56 207.82,-460.69"/>
<polygon fill="#63b8ff" stroke="#63b8ff" points="206.63,-463.98 217.2,-464.7 209.38,-457.55 206.63,-463.98"/>
</a>
</g>
</g>
<!-- Node7 -->
<g id="Node000007" class="node">
<title>Node7</title>
<g id="a_Node000007"><a xlink:href="../../dd/d0a/classArcane_1_1IItemFamily.html#ae0c3a21b4dd921d789093afe4915877e" target="_top" xlink:title="Variable contenant le numéro du nouveau sous&#45;domaine propriétaire de l&#39;entité.">
<polygon fill="white" stroke="#666666" points="331.5,-444.5 217.5,-444.5 217.5,-414.5 331.5,-414.5 331.5,-444.5"/>
<text text-anchor="start" x="225.5" y="-432.5" font-family="Helvetica,sans-Serif" font-size="10.00">Arcane::IItemFamily</text>
<text text-anchor="middle" x="274.5" y="-421.5" font-family="Helvetica,sans-Serif" font-size="10.00">::itemsNewOwner</text>
</a>
</g>
</g>
<!-- Node1&#45;&gt;Node7 -->
<g id="edge7_Node000001_Node000007" class="edge">
<title>Node1&#45;&gt;Node7</title>
<g id="a_edge7_Node000001_Node000007"><a xlink:title=" ">
<path fill="none" stroke="#63b8ff" d="M95.86,-330.68C116.68,-350.48 155.78,-385.01 195,-405.5 199.02,-407.6 203.25,-409.55 207.57,-411.35"/>
<polygon fill="#63b8ff" stroke="#63b8ff" points="206.57,-414.71 217.16,-415.06 209.1,-408.18 206.57,-414.71"/>
</a>
</g>
</g>
<!-- Node8 -->
<g id="Node000008" class="node">
<title>Node8</title>
<g id="a_Node000008"><a xlink:href="../../dd/d0a/classArcane_1_1IItemFamily.html#ac84615ed0ea22a2104fdae7d9c8c5179" target="_top" xlink:title="Converti un tableau de numéros uniques en numéros locaux.">
<polygon fill="white" stroke="#666666" points="344,-378.5 205,-378.5 205,-348.5 344,-348.5 344,-378.5"/>
<text text-anchor="start" x="213" y="-366.5" font-family="Helvetica,sans-Serif" font-size="10.00">Arcane::IItemFamily</text>
<text text-anchor="middle" x="274.5" y="-355.5" font-family="Helvetica,sans-Serif" font-size="10.00">::itemsUniqueIdToLocalId</text>
</a>
</g>
</g>
<!-- Node1&#45;&gt;Node8 -->
<g id="edge8_Node000001_Node000008" class="edge">
<title>Node1&#45;&gt;Node8</title>
<g id="a_edge8_Node000001_Node000008"><a xlink:title=" ">
<path fill="none" stroke="#63b8ff" d="M141.04,-330.56C160.8,-335.47 182.91,-340.97 203.31,-346.04"/>
<polygon fill="#63b8ff" stroke="#63b8ff" points="202.63,-349.48 213.18,-348.5 204.32,-342.69 202.63,-349.48"/>
</a>
</g>
</g>
<!-- Node9 -->
<g id="Node000009" class="node">
<title>Node9</title>
<g id="a_Node000009"><a xlink:href="../../d2/daa/classArcane_1_1mesh_1_1DynamicMesh.html#a4705352e3793b9af2d7b18c2c67d03ef" target="_top" xlink:title="Maillage associé">
<polygon fill="white" stroke="#666666" points="354,-330.5 195,-330.5 195,-300.5 354,-300.5 354,-330.5"/>
<text text-anchor="start" x="203" y="-318.5" font-family="Helvetica,sans-Serif" font-size="10.00">Arcane::mesh::DynamicMesh</text>
<text text-anchor="middle" x="274.5" y="-307.5" font-family="Helvetica,sans-Serif" font-size="10.00">::mesh</text>
</a>
</g>
</g>
<!-- Node1&#45;&gt;Node9 -->
<g id="edge10_Node000001_Node000009" class="edge">
<title>Node1&#45;&gt;Node9</title>
<g id="a_edge10_Node000001_Node000009"><a xlink:title=" ">
<path fill="none" stroke="#63b8ff" d="M159,-315.5C167.48,-315.5 176.14,-315.5 184.73,-315.5"/>
<polygon fill="#63b8ff" stroke="#63b8ff" points="184.76,-319 194.76,-315.5 184.76,-312 184.76,-319"/>
</a>
</g>
</g>
<!-- Node10 -->
<g id="Node000010" class="node">
<title>Node10</title>
<g id="a_Node000010"><a xlink:href="../../d2/daa/classArcane_1_1mesh_1_1DynamicMesh.html#acbc2c379aa499c86ca9adbfb996fb3ed" target="_top" xlink:title="Groupe de toutes les mailles propres au domaine.">
<polygon fill="white" stroke="#666666" points="354,-282.5 195,-282.5 195,-252.5 354,-252.5 354,-282.5"/>
<text text-anchor="start" x="203" y="-270.5" font-family="Helvetica,sans-Serif" font-size="10.00">Arcane::mesh::DynamicMesh</text>
<text text-anchor="middle" x="274.5" y="-259.5" font-family="Helvetica,sans-Serif" font-size="10.00">::ownCells</text>
</a>
</g>
</g>
<!-- Node1&#45;&gt;Node10 -->
<g id="edge11_Node000001_Node000010" class="edge">
<title>Node1&#45;&gt;Node10</title>
<g id="a_edge11_Node000001_Node000010"><a xlink:title=" ">
<path fill="none" stroke="#63b8ff" d="M141.04,-300.44C160.8,-295.53 182.91,-290.03 203.31,-284.96"/>
<polygon fill="#63b8ff" stroke="#63b8ff" points="204.32,-288.31 213.18,-282.5 202.63,-281.52 204.32,-288.31"/>
</a>
</g>
</g>
<!-- Node11 -->
<g id="Node000011" class="node">
<title>Node11</title>
<g id="a_Node000011"><a xlink:href="../../df/d5f/classArcane_1_1Item.html#a5651b2880e289af4cf8b93ef9164272c" target="_top" xlink:title="Numéro du sous&#45;domaine propriétaire de l&#39;entité">
<polygon fill="white" stroke="#666666" points="332,-234 217,-234 217,-215 332,-215 332,-234"/>
<text text-anchor="middle" x="274.5" y="-222" font-family="Helvetica,sans-Serif" font-size="10.00">Arcane::Item::owner</text>
</a>
</g>
</g>
<!-- Node1&#45;&gt;Node11 -->
<g id="edge12_Node000001_Node000011" class="edge">
<title>Node1&#45;&gt;Node11</title>
<g id="a_edge12_Node000001_Node000011"><a xlink:title=" ">
<path fill="none" stroke="#63b8ff" d="M100.09,-300.39C122.06,-284.12 159.3,-258.57 195,-243.5 200.85,-241.03 207.09,-238.84 213.39,-236.91"/>
<polygon fill="#63b8ff" stroke="#63b8ff" points="214.65,-240.19 223.3,-234.08 212.73,-233.46 214.65,-240.19"/>
</a>
</g>
</g>
<!-- Node12 -->
<g id="Node000012" class="node">
<title>Node12</title>
<g id="a_Node000012"><a xlink:href="../../d1/dfb/classArcane_1_1Array.html#a31fc5b4bd79b4f6e4a011735d33b1818" target="_top" xlink:title="Change le nombre d&#39;éléments du tableau à s.">
<polygon fill="white" stroke="#666666" points="333,-197 216,-197 216,-178 333,-178 333,-197"/>
<text text-anchor="middle" x="274.5" y="-185" font-family="Helvetica,sans-Serif" font-size="10.00">Arcane::Array::resize</text>
</a>
</g>
</g>
<!-- Node1&#45;&gt;Node12 -->
<g id="edge13_Node000001_Node000012" class="edge">
<title>Node1&#45;&gt;Node12</title>
<g id="a_edge13_Node000001_Node000012"><a xlink:title=" ">
<path fill="none" stroke="#63b8ff" d="M92.05,-300.22C110.91,-276.41 150.66,-230.67 195,-206.5 199.24,-204.19 203.76,-202.16 208.41,-200.37"/>
<polygon fill="#63b8ff" stroke="#63b8ff" points="209.77,-203.6 218.08,-197.03 207.48,-196.98 209.77,-203.6"/>
</a>
</g>
</g>
<!-- Node13 -->
<g id="Node000013" class="node">
<title>Node13</title>
<g id="a_Node000013"><a xlink:href="../../d9/d2e/classArcane_1_1ConstArrayView.html#ac6a4f407a7ec0a0e0985113552fe2f54" target="_top" xlink:title="Nombre d&#39;éléments du tableau.">
<polygon fill="white" stroke="#666666" points="341.5,-159.5 207.5,-159.5 207.5,-129.5 341.5,-129.5 341.5,-159.5"/>
<text text-anchor="start" x="215.5" y="-147.5" font-family="Helvetica,sans-Serif" font-size="10.00">Arcane::ConstArrayView</text>
<text text-anchor="middle" x="274.5" y="-136.5" font-family="Helvetica,sans-Serif" font-size="10.00">::size</text>
</a>
</g>
</g>
<!-- Node1&#45;&gt;Node13 -->
<g id="edge14_Node000001_Node000013" class="edge">
<title>Node1&#45;&gt;Node13</title>
<g id="a_edge14_Node000001_Node000013"><a xlink:title=" ">
<path fill="none" stroke="#63b8ff" d="M88.36,-300.23C104.38,-270.61 143.67,-205.15 195,-169.5 197.85,-167.52 200.86,-165.7 203.98,-164.01"/>
<polygon fill="#63b8ff" stroke="#63b8ff" points="205.55,-167.14 213.01,-159.61 202.48,-160.84 205.55,-167.14"/>
</a>
</g>
</g>
<!-- Node14 -->
<g id="Node000014" class="node">
<title>Node14</title>
<g id="a_Node000014"><a xlink:href="../../d9/d27/classArcane_1_1ItemGroup.html#a5e13f5b3aed43db2383db28d8036c193" target="_top" xlink:title="Nombre d&#39;éléments du groupe.">
<polygon fill="white" stroke="#666666" points="341.5,-111 207.5,-111 207.5,-92 341.5,-92 341.5,-111"/>
<text text-anchor="middle" x="274.5" y="-99" font-family="Helvetica,sans-Serif" font-size="10.00">Arcane::ItemGroup::size</text>
</a>
</g>
</g>
<!-- Node1&#45;&gt;Node14 -->
<g id="edge15_Node000001_Node000014" class="edge">
<title>Node1&#45;&gt;Node14</title>
<g id="a_edge15_Node000001_Node000014"><a xlink:title=" ">
<path fill="none" stroke="#63b8ff" d="M84.88,-300.27C96.34,-263.25 130.86,-168.13 195,-120.5 197.51,-118.64 200.17,-116.96 202.95,-115.44"/>
<polygon fill="#63b8ff" stroke="#63b8ff" points="204.58,-118.54 212.15,-111.12 201.61,-112.2 204.58,-118.54"/>
</a>
</g>
</g>
<!-- Node15 -->
<g id="Node000015" class="node">
<title>Node15</title>
<g id="a_Node000015"><a xlink:href="../../df/d5f/classArcane_1_1Item.html#a8e5cf3572ae8a043fae3e32fe400551b" target="_top" xlink:title="Identifiant unique sur tous les domaines.">
<polygon fill="white" stroke="#666666" points="338,-74 211,-74 211,-55 338,-55 338,-74"/>
<text text-anchor="middle" x="274.5" y="-62" font-family="Helvetica,sans-Serif" font-size="10.00">Arcane::Item::uniqueId</text>
</a>
</g>
</g>
<!-- Node1&#45;&gt;Node15 -->
<g id="edge16_Node000001_Node000015" class="edge">
<title>Node1&#45;&gt;Node15</title>
<g id="a_edge16_Node000001_Node000015"><a xlink:title=" ">
<path fill="none" stroke="#63b8ff" d="M83.37,-300.25C92.06,-258.55 122.06,-141.87 195,-83.5 197.18,-81.75 199.5,-80.16 201.92,-78.72"/>
<polygon fill="#63b8ff" stroke="#63b8ff" points="203.73,-81.72 211.07,-74.08 200.57,-75.48 203.73,-81.72"/>
</a>
</g>
</g>
<!-- Node16 -->
<g id="Node000016" class="node">
<title>Node16</title>
<g id="a_Node000016"><a xlink:href="../../d0/d9f/classArcane_1_1IMesh.html#a4b8aa4434d276a0765fa9213cfc2d4cf" target="_top" xlink:title="Interface des fonctions utilitaires associée.">
<polygon fill="white" stroke="#666666" points="338.5,-19 210.5,-19 210.5,0 338.5,0 338.5,-19"/>
<text text-anchor="middle" x="274.5" y="-7" font-family="Helvetica,sans-Serif" font-size="10.00">Arcane::IMesh::utilities</text>
</a>
</g>
</g>
<!-- Node1&#45;&gt;Node16 -->
<g id="edge17_Node000001_Node000016" class="edge">
<title>Node1&#45;&gt;Node16</title>
<g id="a_edge17_Node000001_Node000016"><a xlink:title=" ">
<path fill="none" stroke="#63b8ff" d="M83.04,-300.32C91.24,-255.74 120.9,-123.47 195,-46.5 204.74,-36.38 217.8,-28.72 230.47,-23.08"/>
<polygon fill="#63b8ff" stroke="#63b8ff" points="232.1,-26.19 240.02,-19.15 229.44,-19.72 232.1,-26.19"/>
</a>
</g>
</g>
<!-- Node4&#45;&gt;Node4 -->
<g id="edge4_Node000004_Node000004" class="edge">
<title>Node4&#45;&gt;Node4</title>
<g id="a_edge4_Node000004_Node000004"><a xlink:title=" ">
<path fill="none" stroke="#63b8ff" d="M240.4,-588.78C232.82,-597.91 244.19,-606.5 274.5,-606.5 292.5,-606.5 303.82,-603.47 308.46,-599.1"/>
<polygon fill="#63b8ff" stroke="#63b8ff" points="311.96,-598.82 308.6,-588.78 304.96,-598.73 311.96,-598.82"/>
</a>
</g>
</g>
<!-- Node8&#45;&gt;Node8 -->
<g id="edge9_Node000008_Node000008" class="edge">
<title>Node8&#45;&gt;Node8</title>
<g id="a_edge9_Node000008_Node000008"><a xlink:title=" ">
<path fill="none" stroke="#63b8ff" d="M240.4,-378.78C232.82,-387.91 244.19,-396.5 274.5,-396.5 292.5,-396.5 303.82,-393.47 308.46,-389.1"/>
<polygon fill="#63b8ff" stroke="#63b8ff" points="311.96,-388.82 308.6,-378.78 304.96,-388.73 311.96,-388.82"/>
</a>
</g>
</g>
<!-- Node16&#45;&gt;Node16 -->
<g id="edge18_Node000016_Node000016" class="edge">
<title>Node16&#45;&gt;Node16</title>
<g id="a_edge18_Node000016_Node000016"><a xlink:title=" ">
<path fill="none" stroke="#63b8ff" d="M244.6,-19.08C230.05,-27.73 240.02,-37 274.5,-37 298.21,-37 310.32,-32.62 310.86,-27.07"/>
<polygon fill="#63b8ff" stroke="#63b8ff" points="313.41,-24.66 304.4,-19.08 307.96,-29.06 313.41,-24.66"/>
</a>
</g>
</g>
</g>
</svg>

<g id="navigator" transform="translate(0 0)" fill="#404254">
  <rect fill="#f2f5e9" fill-opacity="0.5" stroke="#606060" stroke-width=".5" x="0" y="0" width="60" height="60"/>
  <use id="zoomplus" xlink:href="#zoomPlus" x="17" y="9" onmousedown="handleZoom(evt,'in')"/>
  <use id="zoomminus" xlink:href="#zoomMin" x="42" y="9" onmousedown="handleZoom(evt,'out')"/>
  <use id="reset" xlink:href="#resetDef" x="30" y="36" onmousedown="handleReset()"/>
   <use id="arrowup" xlink:href="#arrowUp" x="0" y="0" onmousedown="handlePan(0,-1)"/>
  <use id="arrowright" xlink:href="#arrowRight" x="0" y="0" onmousedown="handlePan(1,0)"/>
  <use id="arrowdown" xlink:href="#arrowDown" x="0" y="0" onmousedown="handlePan(0,1)"/>
  <use id="arrowleft" xlink:href="#arrowLeft" x="0" y="0" onmousedown="handlePan(-1,0)"/>
</g>
<svg viewBox="0 0 15 15" width="100%" height="30px" preserveAspectRatio="xMaxYMin meet">
 <g id="arrow_out" transform="scale(0.3 0.3)">
  <a xlink:href="classArcane_1_1mesh_1_1DynamicMesh_af0b41680acdd5f220d1886fc0dace2b9_cgraph_org.svg" target="_base">
   <rect id="button" ry="5" rx="5" y="6" x="6" height="38" width="38"
        fill="#f2f5e9" fill-opacity="0.5" stroke="#606060" stroke-width="1.0"/>
   <path id="arrow"
     d="M 11.500037,31.436501 C 11.940474,20.09759 22.043105,11.32322 32.158766,21.979434 L 37.068811,17.246167 C 37.068811,17.246167 37.088388,32 37.088388,32 L 22.160133,31.978069 C 22.160133,31.978069 26.997745,27.140456 26.997745,27.140456 C 18.528582,18.264221 13.291696,25.230495 11.500037,31.436501 z"
     style="fill:#404040;"/>
  </a>
 </g>
</svg>

<style type='text/css'>
<![CDATA[
[data-mouse-over-selected='false'] { opacity: 0.7; }
[data-mouse-over-selected='true']  { opacity: 1.0; }
]]>
</style>
<script type="application/ecmascript"><![CDATA[
document.addEventListener('DOMContentLoaded', (event) => {
  highlightEdges();
  highlightAdjacentNodes();
});
]]></script>
</svg>
