<?xml version="1.0" encoding="UTF-8" standalone="no"?>
<!DOCTYPE svg PUBLIC "-//W3C//DTD SVG 1.1//EN"
 "http://www.w3.org/Graphics/SVG/1.1/DTD/svg11.dtd">
<!-- Generated by graphviz version 2.43.0 (0)
 -->
<!-- Title: Arcane::HWLocProcessorAffinityService Pages: 1 -->
<svg width="377pt" height="1463pt"
 viewBox="0.00 0.00 377.00 1463.00" xmlns="http://www.w3.org/2000/svg" xmlns:xlink="http://www.w3.org/1999/xlink">
<g id="graph0" class="graph" transform="scale(1 1) rotate(0) translate(4 1459)">
<title>Arcane::HWLocProcessorAffinityService</title>
<!-- Node1 -->
<g id="Node000001" class="node">
<title>Node1</title>
<g id="a_Node000001"><a xlink:title=" ">
<polygon fill="#999999" stroke="transparent" points="300.5,-255 110.5,-255 110.5,0 300.5,0 300.5,-255"/>
<text text-anchor="start" x="127" y="-242.5" font-family="Helvetica,sans-Serif" font-size="10.00">Arcane::HWLocProcessorAffinity</text>
<text text-anchor="start" x="187" y="-231.5" font-family="Helvetica,sans-Serif" font-size="10.00">Service</text>
<text text-anchor="start" x="117" y="-216.5" font-family="Helvetica,sans-Serif" font-size="10.00">&#45;</text>
<text text-anchor="start" x="127.5" y="-216.5" font-family="Helvetica,sans-Serif" font-size="10.00">m_is_init</text>
<text text-anchor="start" x="117" y="-201.5" font-family="Helvetica,sans-Serif" font-size="10.00">&#45;</text>
<text text-anchor="start" x="127.5" y="-201.5" font-family="Helvetica,sans-Serif" font-size="10.00">m_topology</text>
<text text-anchor="start" x="114.5" y="-186.5" font-family="Helvetica,sans-Serif" font-size="10.00">+</text>
<text text-anchor="start" x="127.5" y="-186.5" font-family="Helvetica,sans-Serif" font-size="10.00">HWLocProcessorAffinityService()</text>
<text text-anchor="start" x="114.5" y="-171.5" font-family="Helvetica,sans-Serif" font-size="10.00">+</text>
<text text-anchor="start" x="127.5" y="-171.5" font-family="Helvetica,sans-Serif" font-size="10.00">HWLocProcessorAffinityService()</text>
<text text-anchor="start" x="114.5" y="-156.5" font-family="Helvetica,sans-Serif" font-size="10.00">+</text>
<text text-anchor="start" x="127.5" y="-156.5" font-family="Helvetica,sans-Serif" font-size="10.00">~HWLocProcessorAffinityService()</text>
<text text-anchor="start" x="114.5" y="-141.5" font-family="Helvetica,sans-Serif" font-size="10.00">+</text>
<text text-anchor="start" x="127.5" y="-141.5" font-family="Helvetica,sans-Serif" font-size="10.00">build()</text>
<text text-anchor="start" x="114.5" y="-126.5" font-family="Helvetica,sans-Serif" font-size="10.00">+</text>
<text text-anchor="start" x="127.5" y="-126.5" font-family="Helvetica,sans-Serif" font-size="10.00">printInfos()</text>
<text text-anchor="start" x="114.5" y="-111.5" font-family="Helvetica,sans-Serif" font-size="10.00">+</text>
<text text-anchor="start" x="127.5" y="-111.5" font-family="Helvetica,sans-Serif" font-size="10.00">cpuSetString()</text>
<text text-anchor="start" x="114.5" y="-96.5" font-family="Helvetica,sans-Serif" font-size="10.00">+</text>
<text text-anchor="start" x="127.5" y="-96.5" font-family="Helvetica,sans-Serif" font-size="10.00">bindThread()</text>
<text text-anchor="start" x="114.5" y="-81.5" font-family="Helvetica,sans-Serif" font-size="10.00">+</text>
<text text-anchor="start" x="127.5" y="-81.5" font-family="Helvetica,sans-Serif" font-size="10.00">numberOfCore()</text>
<text text-anchor="start" x="114.5" y="-66.5" font-family="Helvetica,sans-Serif" font-size="10.00">+</text>
<text text-anchor="start" x="127.5" y="-66.5" font-family="Helvetica,sans-Serif" font-size="10.00">numberOfSocket()</text>
<text text-anchor="start" x="114.5" y="-51.5" font-family="Helvetica,sans-Serif" font-size="10.00">+</text>
<text text-anchor="start" x="127.5" y="-51.5" font-family="Helvetica,sans-Serif" font-size="10.00">numberOfProcessingUnit()</text>
<text text-anchor="start" x="117" y="-36.5" font-family="Helvetica,sans-Serif" font-size="10.00">&#45;</text>
<text text-anchor="start" x="127.5" y="-36.5" font-family="Helvetica,sans-Serif" font-size="10.00">_checkInit()</text>
<text text-anchor="start" x="117" y="-21.5" font-family="Helvetica,sans-Serif" font-size="10.00">&#45;</text>
<text text-anchor="start" x="127.5" y="-21.5" font-family="Helvetica,sans-Serif" font-size="10.00">_outputTopology()</text>
<text text-anchor="start" x="117" y="-6.5" font-family="Helvetica,sans-Serif" font-size="10.00">&#45;</text>
<text text-anchor="start" x="127.5" y="-6.5" font-family="Helvetica,sans-Serif" font-size="10.00">_numberOf()</text>
<polygon fill="#666666" stroke="#666666" points="110.5,-226.5 110.5,-226.5 300.5,-226.5 300.5,-226.5 110.5,-226.5"/>
<polygon fill="#666666" stroke="#666666" points="110.5,-196.5 110.5,-196.5 125.5,-196.5 125.5,-196.5 110.5,-196.5"/>
<polygon fill="#666666" stroke="#666666" points="125.5,-196.5 125.5,-196.5 300.5,-196.5 300.5,-196.5 125.5,-196.5"/>
<polygon fill="none" stroke="#666666" points="110.5,0 110.5,-255 300.5,-255 300.5,0 110.5,0"/>
</a>
</g>
</g>
<!-- Node2 -->
<g id="Node000002" class="node">
<title>Node2</title>
<g id="a_Node000002"><a xlink:href="../../d1/d17/classArcane_1_1TraceAccessor.html" target="_top" xlink:title="Classe d&#39;accès aux traces.">
<polygon fill="white" stroke="transparent" points="191.5,-521 51.5,-521 51.5,-292 191.5,-292 191.5,-521"/>
<text text-anchor="start" x="67" y="-508.5" font-family="Helvetica,sans-Serif" font-size="10.00">Arcane::TraceAccessor</text>
<text text-anchor="start" x="58" y="-493.5" font-family="Helvetica,sans-Serif" font-size="10.00">&#45;</text>
<text text-anchor="start" x="68.5" y="-493.5" font-family="Helvetica,sans-Serif" font-size="10.00">m_local_verbose_level</text>
<text text-anchor="start" x="55.5" y="-478.5" font-family="Helvetica,sans-Serif" font-size="10.00">+</text>
<text text-anchor="start" x="68.5" y="-478.5" font-family="Helvetica,sans-Serif" font-size="10.00">TraceAccessor()</text>
<text text-anchor="start" x="55.5" y="-463.5" font-family="Helvetica,sans-Serif" font-size="10.00">+</text>
<text text-anchor="start" x="68.5" y="-463.5" font-family="Helvetica,sans-Serif" font-size="10.00">TraceAccessor()</text>
<text text-anchor="start" x="55.5" y="-448.5" font-family="Helvetica,sans-Serif" font-size="10.00">+</text>
<text text-anchor="start" x="68.5" y="-448.5" font-family="Helvetica,sans-Serif" font-size="10.00">operator=()</text>
<text text-anchor="start" x="55.5" y="-433.5" font-family="Helvetica,sans-Serif" font-size="10.00">+</text>
<text text-anchor="start" x="68.5" y="-433.5" font-family="Helvetica,sans-Serif" font-size="10.00">~TraceAccessor()</text>
<text text-anchor="start" x="55.5" y="-418.5" font-family="Helvetica,sans-Serif" font-size="10.00">+</text>
<text text-anchor="start" x="68.5" y="-418.5" font-family="Helvetica,sans-Serif" font-size="10.00">traceMng()</text>
<text text-anchor="start" x="55.5" y="-403.5" font-family="Helvetica,sans-Serif" font-size="10.00">+</text>
<text text-anchor="start" x="68.5" y="-403.5" font-family="Helvetica,sans-Serif" font-size="10.00">info()</text>
<text text-anchor="start" x="55.5" y="-388.5" font-family="Helvetica,sans-Serif" font-size="10.00">+</text>
<text text-anchor="start" x="68.5" y="-388.5" font-family="Helvetica,sans-Serif" font-size="10.00">pinfo()</text>
<text text-anchor="start" x="55.5" y="-373.5" font-family="Helvetica,sans-Serif" font-size="10.00">+</text>
<text text-anchor="start" x="68.5" y="-373.5" font-family="Helvetica,sans-Serif" font-size="10.00">info()</text>
<text text-anchor="start" x="55.5" y="-358.5" font-family="Helvetica,sans-Serif" font-size="10.00">+</text>
<text text-anchor="start" x="68.5" y="-358.5" font-family="Helvetica,sans-Serif" font-size="10.00">pinfo()</text>
<text text-anchor="start" x="55.5" y="-343.5" font-family="Helvetica,sans-Serif" font-size="10.00">+</text>
<text text-anchor="start" x="68.5" y="-343.5" font-family="Helvetica,sans-Serif" font-size="10.00">info()</text>
<text text-anchor="start" x="68.5" y="-328.5" font-family="Helvetica,sans-Serif" font-size="10.00">et 15 de plus...</text>
<text text-anchor="start" x="55.5" y="-313.5" font-family="Helvetica,sans-Serif" font-size="10.00">#</text>
<text text-anchor="start" x="68.5" y="-313.5" font-family="Helvetica,sans-Serif" font-size="10.00">_setLocalVerboseLevel()</text>
<text text-anchor="start" x="55.5" y="-298.5" font-family="Helvetica,sans-Serif" font-size="10.00">#</text>
<text text-anchor="start" x="68.5" y="-298.5" font-family="Helvetica,sans-Serif" font-size="10.00">_localVerboseLevel()</text>
<polygon fill="#666666" stroke="#666666" points="51.5,-503.5 51.5,-503.5 191.5,-503.5 191.5,-503.5 51.5,-503.5"/>
<polygon fill="#666666" stroke="#666666" points="51.5,-488.5 51.5,-488.5 66.5,-488.5 66.5,-488.5 51.5,-488.5"/>
<polygon fill="#666666" stroke="#666666" points="66.5,-488.5 66.5,-488.5 191.5,-488.5 191.5,-488.5 66.5,-488.5"/>
<polygon fill="none" stroke="#666666" points="51.5,-292 51.5,-521 191.5,-521 191.5,-292 51.5,-292"/>
</a>
</g>
</g>
<!-- Node2&#45;&gt;Node1 -->
<g id="edge1_Node000001_Node000002" class="edge">
<title>Node2&#45;&gt;Node1</title>
<g id="a_edge1_Node000001_Node000002"><a xlink:title=" ">
<path fill="none" stroke="#63b8ff" d="M159.01,-281.79C161.67,-273.04 164.35,-264.21 167.01,-255.44"/>
<polygon fill="none" stroke="#63b8ff" points="155.58,-281.05 156.03,-291.63 162.28,-283.08 155.58,-281.05"/>
</a>
</g>
</g>
<!-- Node3 -->
<g id="Node000003" class="node">
<title>Node3</title>
<g id="a_Node000003"><a xlink:href="../../d6/da9/classArcane_1_1Ref.html" target="_top" xlink:title=" ">
<polygon fill="white" stroke="transparent" points="185,-1348 58,-1348 58,-568 185,-568 185,-1348"/>
<text text-anchor="start" x="71" y="-1336" font-family="Helvetica,sans-Serif" font-size="10.00">Arcane::Ref&lt; Arcane</text>
<text text-anchor="start" x="88.5" y="-1325" font-family="Helvetica,sans-Serif" font-size="10.00">::ITraceMng &gt;</text>
<text text-anchor="start" x="62.5" y="-1310" font-family="Helvetica,sans-Serif" font-size="10.00">+</text>
<text text-anchor="start" x="75.5" y="-1310" font-family="Helvetica,sans-Serif" font-size="10.00">RefType</text>
<text text-anchor="start" x="62.5" y="-1295" font-family="Helvetica,sans-Serif" font-size="10.00">+</text>
<text text-anchor="start" x="75.5" y="-1295" font-family="Helvetica,sans-Serif" font-size="10.00">RefType</text>
<text text-anchor="start" x="62.5" y="-1280" font-family="Helvetica,sans-Serif" font-size="10.00">+</text>
<text text-anchor="start" x="75.5" y="-1280" font-family="Helvetica,sans-Serif" font-size="10.00">RefType</text>
<text text-anchor="start" x="62.5" y="-1265" font-family="Helvetica,sans-Serif" font-size="10.00">+</text>
<text text-anchor="start" x="75.5" y="-1265" font-family="Helvetica,sans-Serif" font-size="10.00">Ref()</text>
<text text-anchor="start" x="62.5" y="-1250" font-family="Helvetica,sans-Serif" font-size="10.00">+</text>
<text text-anchor="start" x="75.5" y="-1250" font-family="Helvetica,sans-Serif" font-size="10.00">Ref()</text>
<text text-anchor="start" x="62.5" y="-1235" font-family="Helvetica,sans-Serif" font-size="10.00">+</text>
<text text-anchor="start" x="75.5" y="-1235" font-family="Helvetica,sans-Serif" font-size="10.00">Ref()</text>
<text text-anchor="start" x="62.5" y="-1220" font-family="Helvetica,sans-Serif" font-size="10.00">+</text>
<text text-anchor="start" x="75.5" y="-1220" font-family="Helvetica,sans-Serif" font-size="10.00">operator=()</text>
<text text-anchor="start" x="62.5" y="-1205" font-family="Helvetica,sans-Serif" font-size="10.00">+</text>
<text text-anchor="start" x="75.5" y="-1205" font-family="Helvetica,sans-Serif" font-size="10.00">~Ref()</text>
<text text-anchor="start" x="62.5" y="-1190" font-family="Helvetica,sans-Serif" font-size="10.00">+</text>
<text text-anchor="start" x="75.5" y="-1190" font-family="Helvetica,sans-Serif" font-size="10.00">operator bool()</text>
<text text-anchor="start" x="62.5" y="-1175" font-family="Helvetica,sans-Serif" font-size="10.00">+</text>
<text text-anchor="start" x="75.5" y="-1175" font-family="Helvetica,sans-Serif" font-size="10.00">get()</text>
<text text-anchor="start" x="62.5" y="-1160" font-family="Helvetica,sans-Serif" font-size="10.00">+</text>
<text text-anchor="start" x="75.5" y="-1160" font-family="Helvetica,sans-Serif" font-size="10.00">isNull()</text>
<text text-anchor="start" x="62.5" y="-1145" font-family="Helvetica,sans-Serif" font-size="10.00">+</text>
<text text-anchor="start" x="75.5" y="-1145" font-family="Helvetica,sans-Serif" font-size="10.00">operator&#45;&gt;()</text>
<text text-anchor="start" x="62.5" y="-1130" font-family="Helvetica,sans-Serif" font-size="10.00">+</text>
<text text-anchor="start" x="75.5" y="-1130" font-family="Helvetica,sans-Serif" font-size="10.00">reset()</text>
<text text-anchor="start" x="75.5" y="-1115" font-family="Helvetica,sans-Serif" font-size="10.00">et 26 de plus...</text>
<text text-anchor="start" x="62.5" y="-1100" font-family="Helvetica,sans-Serif" font-size="10.00">+</text>
<text text-anchor="start" x="75.5" y="-1100" font-family="Helvetica,sans-Serif" font-size="10.00">create()</text>
<text text-anchor="start" x="62.5" y="-1085" font-family="Helvetica,sans-Serif" font-size="10.00">+</text>
<text text-anchor="start" x="75.5" y="-1085" font-family="Helvetica,sans-Serif" font-size="10.00">createRef()</text>
<text text-anchor="start" x="62.5" y="-1070" font-family="Helvetica,sans-Serif" font-size="10.00">+</text>
<text text-anchor="start" x="75.5" y="-1070" font-family="Helvetica,sans-Serif" font-size="10.00">createWithHandle()</text>
<text text-anchor="start" x="62.5" y="-1055" font-family="Helvetica,sans-Serif" font-size="10.00">+</text>
<text text-anchor="start" x="75.5" y="-1055" font-family="Helvetica,sans-Serif" font-size="10.00">_createNoDestroy()</text>
<text text-anchor="start" x="62.5" y="-1040" font-family="Helvetica,sans-Serif" font-size="10.00">+</text>
<text text-anchor="start" x="75.5" y="-1040" font-family="Helvetica,sans-Serif" font-size="10.00">create()</text>
<text text-anchor="start" x="62.5" y="-1025" font-family="Helvetica,sans-Serif" font-size="10.00">+</text>
<text text-anchor="start" x="75.5" y="-1025" font-family="Helvetica,sans-Serif" font-size="10.00">createRef()</text>
<text text-anchor="start" x="62.5" y="-1010" font-family="Helvetica,sans-Serif" font-size="10.00">+</text>
<text text-anchor="start" x="75.5" y="-1010" font-family="Helvetica,sans-Serif" font-size="10.00">createWithHandle()</text>
<text text-anchor="start" x="62.5" y="-995" font-family="Helvetica,sans-Serif" font-size="10.00">+</text>
<text text-anchor="start" x="75.5" y="-995" font-family="Helvetica,sans-Serif" font-size="10.00">_createNoDestroy()</text>
<text text-anchor="start" x="62.5" y="-980" font-family="Helvetica,sans-Serif" font-size="10.00">+</text>
<text text-anchor="start" x="75.5" y="-980" font-family="Helvetica,sans-Serif" font-size="10.00">create()</text>
<text text-anchor="start" x="62.5" y="-965" font-family="Helvetica,sans-Serif" font-size="10.00">+</text>
<text text-anchor="start" x="75.5" y="-965" font-family="Helvetica,sans-Serif" font-size="10.00">createRef()</text>
<text text-anchor="start" x="62.5" y="-950" font-family="Helvetica,sans-Serif" font-size="10.00">+</text>
<text text-anchor="start" x="75.5" y="-950" font-family="Helvetica,sans-Serif" font-size="10.00">createWithHandle()</text>
<text text-anchor="start" x="62.5" y="-935" font-family="Helvetica,sans-Serif" font-size="10.00">+</text>
<text text-anchor="start" x="75.5" y="-935" font-family="Helvetica,sans-Serif" font-size="10.00">_createNoDestroy()</text>
<text text-anchor="start" x="65" y="-920" font-family="Helvetica,sans-Serif" font-size="10.00">&#45;</text>
<text text-anchor="start" x="75.5" y="-920" font-family="Helvetica,sans-Serif" font-size="10.00">Ref()</text>
<text text-anchor="start" x="65" y="-905" font-family="Helvetica,sans-Serif" font-size="10.00">&#45;</text>
<text text-anchor="start" x="75.5" y="-905" font-family="Helvetica,sans-Serif" font-size="10.00">Ref()</text>
<text text-anchor="start" x="65" y="-890" font-family="Helvetica,sans-Serif" font-size="10.00">&#45;</text>
<text text-anchor="start" x="75.5" y="-890" font-family="Helvetica,sans-Serif" font-size="10.00">Ref()</text>
<text text-anchor="start" x="65" y="-875" font-family="Helvetica,sans-Serif" font-size="10.00">&#45;</text>
<text text-anchor="start" x="75.5" y="-875" font-family="Helvetica,sans-Serif" font-size="10.00">Ref()</text>
<text text-anchor="start" x="65" y="-860" font-family="Helvetica,sans-Serif" font-size="10.00">&#45;</text>
<text text-anchor="start" x="75.5" y="-860" font-family="Helvetica,sans-Serif" font-size="10.00">Ref()</text>
<text text-anchor="start" x="65" y="-845" font-family="Helvetica,sans-Serif" font-size="10.00">&#45;</text>
<text text-anchor="start" x="75.5" y="-845" font-family="Helvetica,sans-Serif" font-size="10.00">Ref()</text>
<text text-anchor="start" x="65" y="-830" font-family="Helvetica,sans-Serif" font-size="10.00">&#45;</text>
<text text-anchor="start" x="75.5" y="-830" font-family="Helvetica,sans-Serif" font-size="10.00">Ref()</text>
<text text-anchor="start" x="65" y="-815" font-family="Helvetica,sans-Serif" font-size="10.00">&#45;</text>
<text text-anchor="start" x="75.5" y="-815" font-family="Helvetica,sans-Serif" font-size="10.00">Ref()</text>
<text text-anchor="start" x="65" y="-800" font-family="Helvetica,sans-Serif" font-size="10.00">&#45;</text>
<text text-anchor="start" x="75.5" y="-800" font-family="Helvetica,sans-Serif" font-size="10.00">Ref()</text>
<text text-anchor="start" x="65" y="-785" font-family="Helvetica,sans-Serif" font-size="10.00">&#45;</text>
<text text-anchor="start" x="75.5" y="-785" font-family="Helvetica,sans-Serif" font-size="10.00">Ref()</text>
<text text-anchor="start" x="65" y="-770" font-family="Helvetica,sans-Serif" font-size="10.00">&#45;</text>
<text text-anchor="start" x="75.5" y="-770" font-family="Helvetica,sans-Serif" font-size="10.00">Ref()</text>
<text text-anchor="start" x="65" y="-755" font-family="Helvetica,sans-Serif" font-size="10.00">&#45;</text>
<text text-anchor="start" x="75.5" y="-755" font-family="Helvetica,sans-Serif" font-size="10.00">Ref()</text>
<text text-anchor="start" x="65" y="-740" font-family="Helvetica,sans-Serif" font-size="10.00">&#45;</text>
<text text-anchor="start" x="75.5" y="-740" font-family="Helvetica,sans-Serif" font-size="10.00">_createBasicDeleter()</text>
<text text-anchor="start" x="65" y="-725" font-family="Helvetica,sans-Serif" font-size="10.00">&#45;</text>
<text text-anchor="start" x="75.5" y="-725" font-family="Helvetica,sans-Serif" font-size="10.00">_createBasicDeleter()</text>
<text text-anchor="start" x="65" y="-710" font-family="Helvetica,sans-Serif" font-size="10.00">&#45;</text>
<text text-anchor="start" x="75.5" y="-710" font-family="Helvetica,sans-Serif" font-size="10.00">_getDeleter()</text>
<text text-anchor="start" x="65" y="-695" font-family="Helvetica,sans-Serif" font-size="10.00">&#45;</text>
<text text-anchor="start" x="75.5" y="-695" font-family="Helvetica,sans-Serif" font-size="10.00">_getDeleter()</text>
<text text-anchor="start" x="65" y="-680" font-family="Helvetica,sans-Serif" font-size="10.00">&#45;</text>
<text text-anchor="start" x="75.5" y="-680" font-family="Helvetica,sans-Serif" font-size="10.00">_createBasicDeleter()</text>
<text text-anchor="start" x="65" y="-665" font-family="Helvetica,sans-Serif" font-size="10.00">&#45;</text>
<text text-anchor="start" x="75.5" y="-665" font-family="Helvetica,sans-Serif" font-size="10.00">_createBasicDeleter()</text>
<text text-anchor="start" x="65" y="-650" font-family="Helvetica,sans-Serif" font-size="10.00">&#45;</text>
<text text-anchor="start" x="75.5" y="-650" font-family="Helvetica,sans-Serif" font-size="10.00">_getDeleter()</text>
<text text-anchor="start" x="65" y="-635" font-family="Helvetica,sans-Serif" font-size="10.00">&#45;</text>
<text text-anchor="start" x="75.5" y="-635" font-family="Helvetica,sans-Serif" font-size="10.00">_getDeleter()</text>
<text text-anchor="start" x="65" y="-620" font-family="Helvetica,sans-Serif" font-size="10.00">&#45;</text>
<text text-anchor="start" x="75.5" y="-620" font-family="Helvetica,sans-Serif" font-size="10.00">_createBasicDeleter()</text>
<text text-anchor="start" x="65" y="-605" font-family="Helvetica,sans-Serif" font-size="10.00">&#45;</text>
<text text-anchor="start" x="75.5" y="-605" font-family="Helvetica,sans-Serif" font-size="10.00">_createBasicDeleter()</text>
<text text-anchor="start" x="65" y="-590" font-family="Helvetica,sans-Serif" font-size="10.00">&#45;</text>
<text text-anchor="start" x="75.5" y="-590" font-family="Helvetica,sans-Serif" font-size="10.00">_getDeleter()</text>
<text text-anchor="start" x="65" y="-575" font-family="Helvetica,sans-Serif" font-size="10.00">&#45;</text>
<text text-anchor="start" x="75.5" y="-575" font-family="Helvetica,sans-Serif" font-size="10.00">_getDeleter()</text>
<polygon fill="#666666" stroke="#666666" points="58.5,-1320 58.5,-1320 185.5,-1320 185.5,-1320 58.5,-1320"/>
<polygon fill="#666666" stroke="#666666" points="58.5,-1275 58.5,-1275 73.5,-1275 73.5,-1275 58.5,-1275"/>
<polygon fill="#666666" stroke="#666666" points="73.5,-1275 73.5,-1275 185.5,-1275 185.5,-1275 73.5,-1275"/>
<polygon fill="none" stroke="#666666" points="58,-568 58,-1348 185,-1348 185,-568 58,-568"/>
</a>
</g>
</g>
<!-- Node3&#45;&gt;Node2 -->
<g id="edge2_Node000002_Node000003" class="edge">
<title>Node3&#45;&gt;Node2</title>
<g id="a_edge2_Node000002_Node000003"><a xlink:title=" ">
<path fill="none" stroke="#63b8ff" d="M121.5,-567.92C121.5,-556.01 121.5,-544.45 121.5,-533.36"/>
<polygon fill="none" stroke="#63b8ff" points="121.5,-533.04 117.5,-527.04 121.5,-521.04 125.5,-527.04 121.5,-533.04"/>
</a>
</g>
<text text-anchor="middle" x="145" y="-542" font-family="Helvetica,sans-Serif" font-size="10.00" fill="grey"> &#45;m_trace</text>
</g>
<!-- Node4 -->
<g id="Node000004" class="node">
<title>Node4</title>
<g id="a_Node000004"><a xlink:href="../../d2/db9/classArcane_1_1RefBase.html" target="_top" xlink:title="Classe de base de gestion d&#39;une référence.">
<polygon fill="white" stroke="transparent" points="91,-1449.5 0,-1449.5 0,-1400.5 91,-1400.5 91,-1449.5"/>
<text text-anchor="start" x="5.5" y="-1437" font-family="Helvetica,sans-Serif" font-size="10.00">Arcane::RefBase</text>
<text text-anchor="start" x="44" y="-1422" font-family="Helvetica,sans-Serif" font-size="10.00"> </text>
<text text-anchor="start" x="44" y="-1407" font-family="Helvetica,sans-Serif" font-size="10.00"> </text>
<polygon fill="#666666" stroke="#666666" points="0.5,-1432 0.5,-1432 91.5,-1432 91.5,-1432 0.5,-1432"/>
<polygon fill="#666666" stroke="#666666" points="0.5,-1417 0.5,-1417 91.5,-1417 91.5,-1417 0.5,-1417"/>
<polygon fill="none" stroke="#666666" points="0,-1400.5 0,-1449.5 91,-1449.5 91,-1400.5 0,-1400.5"/>
</a>
</g>
</g>
<!-- Node4&#45;&gt;Node3 -->
<g id="edge3_Node000003_Node000004" class="edge">
<title>Node4&#45;&gt;Node3</title>
<g id="a_edge3_Node000003_Node000004"><a xlink:title=" ">
<path fill="none" stroke="#63b8ff" d="M51.01,-1390.28C52.93,-1378.55 55.27,-1364.2 57.93,-1347.95"/>
<polygon fill="none" stroke="#63b8ff" points="47.53,-1389.87 49.37,-1400.3 54.44,-1391 47.53,-1389.87"/>
</a>
</g>
</g>
<!-- Node5 -->
<g id="Node000005" class="node">
<title>Node5</title>
<g id="a_Node000005"><a xlink:href="../../d4/de6/structArcane_1_1RefTraitsTagId.html" target="_top" xlink:title=" ">
<polygon fill="white" stroke="transparent" points="285.5,-1455 109.5,-1455 109.5,-1395 285.5,-1395 285.5,-1455"/>
<text text-anchor="start" x="114.5" y="-1443" font-family="Helvetica,sans-Serif" font-size="10.00">Arcane::RefTraitsTagId</text>
<text text-anchor="start" x="114.5" y="-1432" font-family="Helvetica,sans-Serif" font-size="10.00">&lt; Arcane::ITraceMng, ImplTagId &gt;</text>
<text text-anchor="start" x="195.5" y="-1417" font-family="Helvetica,sans-Serif" font-size="10.00"> </text>
<text text-anchor="start" x="195.5" y="-1402" font-family="Helvetica,sans-Serif" font-size="10.00"> </text>
<polygon fill="#bfbfbf" stroke="#bfbfbf" points="109.5,-1427 109.5,-1427 285.5,-1427 285.5,-1427 109.5,-1427"/>
<polygon fill="#bfbfbf" stroke="#bfbfbf" points="109.5,-1412 109.5,-1412 285.5,-1412 285.5,-1412 109.5,-1412"/>
<polygon fill="none" stroke="#bfbfbf" points="109.5,-1395 109.5,-1455 285.5,-1455 285.5,-1395 109.5,-1395"/>
</a>
</g>
</g>
<!-- Node5&#45;&gt;Node3 -->
<g id="edge4_Node000003_Node000005" class="edge">
<title>Node5&#45;&gt;Node3</title>
<g id="a_edge4_Node000003_Node000005"><a xlink:title=" ">
<path fill="none" stroke="#63b8ff" d="M192.75,-1394.91C191.16,-1385.22 189.24,-1373.43 187.04,-1360.02"/>
<polygon fill="none" stroke="#63b8ff" points="186.99,-1359.68 182.07,-1354.4 185.05,-1347.84 189.97,-1353.11 186.99,-1359.68"/>
</a>
</g>
<text text-anchor="middle" x="222.5" y="-1369" font-family="Helvetica,sans-Serif" font-size="10.00" fill="grey"> &#45;m_instance</text>
</g>
<!-- Node6 -->
<g id="Node000006" class="node">
<title>Node6</title>
<g id="a_Node000006"><a xlink:href="../../da/db0/classArcane_1_1IProcessorAffinityService.html" target="_top" xlink:title="Interface d&#39;un service de gestion de l&#39;affinité des coeurs CPU.">
<polygon fill="white" stroke="transparent" points="369,-489 210,-489 210,-324 369,-324 369,-489"/>
<text text-anchor="start" x="227" y="-476.5" font-family="Helvetica,sans-Serif" font-size="10.00">Arcane::IProcessorAffinity</text>
<text text-anchor="start" x="271.5" y="-465.5" font-family="Helvetica,sans-Serif" font-size="10.00">Service</text>
<text text-anchor="start" x="288" y="-450.5" font-family="Helvetica,sans-Serif" font-size="10.00"> </text>
<text text-anchor="start" x="214.5" y="-435.5" font-family="Helvetica,sans-Serif" font-size="10.00">+</text>
<text text-anchor="start" x="227.5" y="-435.5" font-family="Helvetica,sans-Serif" font-size="10.00">~IProcessorAffinityService()</text>
<text text-anchor="start" x="214.5" y="-420.5" font-family="Helvetica,sans-Serif" font-size="10.00">+</text>
<text text-anchor="start" x="227.5" y="-420.5" font-family="Helvetica,sans-Serif" font-size="10.00">build()</text>
<text text-anchor="start" x="214.5" y="-405.5" font-family="Helvetica,sans-Serif" font-size="10.00">+</text>
<text text-anchor="start" x="227.5" y="-405.5" font-family="Helvetica,sans-Serif" font-size="10.00">printInfos()</text>
<text text-anchor="start" x="214.5" y="-390.5" font-family="Helvetica,sans-Serif" font-size="10.00">+</text>
<text text-anchor="start" x="227.5" y="-390.5" font-family="Helvetica,sans-Serif" font-size="10.00">cpuSetString()</text>
<text text-anchor="start" x="214.5" y="-375.5" font-family="Helvetica,sans-Serif" font-size="10.00">+</text>
<text text-anchor="start" x="227.5" y="-375.5" font-family="Helvetica,sans-Serif" font-size="10.00">bindThread()</text>
<text text-anchor="start" x="214.5" y="-360.5" font-family="Helvetica,sans-Serif" font-size="10.00">+</text>
<text text-anchor="start" x="227.5" y="-360.5" font-family="Helvetica,sans-Serif" font-size="10.00">numberOfCore()</text>
<text text-anchor="start" x="214.5" y="-345.5" font-family="Helvetica,sans-Serif" font-size="10.00">+</text>
<text text-anchor="start" x="227.5" y="-345.5" font-family="Helvetica,sans-Serif" font-size="10.00">numberOfSocket()</text>
<text text-anchor="start" x="214.5" y="-330.5" font-family="Helvetica,sans-Serif" font-size="10.00">+</text>
<text text-anchor="start" x="227.5" y="-330.5" font-family="Helvetica,sans-Serif" font-size="10.00">numberOfProcessingUnit()</text>
<polygon fill="#666666" stroke="#666666" points="210.5,-460.5 210.5,-460.5 369.5,-460.5 369.5,-460.5 210.5,-460.5"/>
<polygon fill="#666666" stroke="#666666" points="210.5,-445.5 210.5,-445.5 369.5,-445.5 369.5,-445.5 210.5,-445.5"/>
<polygon fill="none" stroke="#666666" points="210,-324 210,-489 369,-489 369,-324 210,-324"/>
</a>
</g>
</g>
<!-- Node6&#45;&gt;Node1 -->
<g id="edge5_Node000001_Node000006" class="edge">
<title>Node6&#45;&gt;Node1</title>
<g id="a_edge5_Node000001_Node000006"><a xlink:title=" ">
<path fill="none" stroke="#63b8ff" d="M261.8,-314.16C256.08,-295.3 249.96,-275.12 243.94,-255.26"/>
<polygon fill="none" stroke="#63b8ff" points="258.5,-315.34 264.75,-323.89 265.2,-313.3 258.5,-315.34"/>
</a>
</g>
</g>
</g>
</svg>
