<?xml version="1.0" encoding="UTF-8" standalone="no"?>
<!DOCTYPE svg PUBLIC "-//W3C//DTD SVG 1.1//EN"
 "http://www.w3.org/Graphics/SVG/1.1/DTD/svg11.dtd">
<!-- Generated by graphviz version 14.1.2 (0)
 -->
<!-- Title: Arcane::mesh::DynamicMeshKindInfos::beginCompactItems Pages: 1 -->
<svg width="769pt" height="585pt"
 viewBox="0.00 0.00 769.00 585.00" xmlns="http://www.w3.org/2000/svg" xmlns:xlink="http://www.w3.org/1999/xlink">
<g id="graph0" class="graph" transform="scale(1 1) rotate(0) translate(4 580.5)">
<title>Arcane::mesh::DynamicMeshKindInfos::beginCompactItems</title>
<!-- Node1 -->
<g id="Node000001" class="node">
<title>Node1</title>
<g id="a_Node000001"><a xlink:title="Calculates the new local IDs of the entities so that they are consecutive.">
<polygon fill="#999999" stroke="#666666" points="166,-305.5 0,-305.5 0,-272 166,-272 166,-305.5"/>
<text xml:space="preserve" text-anchor="start" x="8" y="-292" font-family="Helvetica,sans-Serif" font-size="10.00">Arcane::mesh::DynamicMesh</text>
<text xml:space="preserve" text-anchor="middle" x="83" y="-279.25" font-family="Helvetica,sans-Serif" font-size="10.00">KindInfos::beginCompactItems</text>
</a>
</g>
</g>
<!-- Node2 -->
<g id="Node000002" class="node">
<title>Node2</title>
<g id="a_Node000002"><a xlink:href="../../d0/d32/namespaceArcane.html#a27057b1e8297ea22b7754b8c3dfc8f01" target="_top" xlink:title="True if running in check mode.">
<polygon fill="white" stroke="#666666" points="356.75,-537.12 229.75,-537.12 229.75,-516.38 356.75,-516.38 356.75,-537.12"/>
<text xml:space="preserve" text-anchor="middle" x="293.25" y="-523.62" font-family="Helvetica,sans-Serif" font-size="10.00">Arcane::arcaneIsCheck</text>
</a>
</g>
</g>
<!-- Node1&#45;&gt;Node2 -->
<g id="edge1_Node000001_Node000002" class="edge">
<title>Node1&#45;&gt;Node2</title>
<g id="a_edge1_Node000001_Node000002"><a xlink:title=" ">
<path fill="none" stroke="#63b8ff" d="M88.44,-305.95C99.87,-346.74 134.31,-449.84 202,-502.75 207.16,-506.78 212.93,-510.13 219,-512.93"/>
<polygon fill="#63b8ff" stroke="#63b8ff" points="217.44,-516.08 228.03,-516.56 220.05,-509.58 217.44,-516.08"/>
</a>
</g>
</g>
<!-- Node3 -->
<g id="Node000003" class="node">
<title>Node3</title>
<g id="a_Node000003"><a xlink:href="../../d6/da2/classArcane_1_1mesh_1_1DynamicMeshKindInfos.html#aa449e8e0aa973c0c105cbea9c963861c" target="_top" xlink:title="Checks if the internal structures of the instance are valid.">
<polygon fill="white" stroke="#666666" points="372.5,-460.5 214,-460.5 214,-427 372.5,-427 372.5,-460.5"/>
<text xml:space="preserve" text-anchor="start" x="222" y="-447" font-family="Helvetica,sans-Serif" font-size="10.00">Arcane::mesh::DynamicMesh</text>
<text xml:space="preserve" text-anchor="middle" x="293.25" y="-434.25" font-family="Helvetica,sans-Serif" font-size="10.00">KindInfos::checkValid</text>
</a>
</g>
</g>
<!-- Node1&#45;&gt;Node3 -->
<g id="edge2_Node000001_Node000003" class="edge">
<title>Node1&#45;&gt;Node3</title>
<g id="a_edge2_Node000001_Node000003"><a xlink:title=" ">
<path fill="none" stroke="#63b8ff" d="M94.88,-305.74C113.47,-333.38 154.02,-387.99 202,-417.75 204.28,-419.16 206.64,-420.5 209.06,-421.77"/>
<polygon fill="#63b8ff" stroke="#63b8ff" points="207.39,-424.85 217.93,-425.96 210.37,-418.52 207.39,-424.85"/>
</a>
</g>
</g>
<!-- Node4 -->
<g id="Node000004" class="node">
<title>Node4</title>
<g id="a_Node000004"><a xlink:href="../../d1/d17/classArcane_1_1TraceAccessor.html#a24ff2b7ec9158ea6c25512a00b7db890" target="_top" xlink:title="Flow for a debug message.">
<polygon fill="white" stroke="#666666" points="569.25,-576.5 444.5,-576.5 444.5,-543 569.25,-543 569.25,-576.5"/>
<text xml:space="preserve" text-anchor="start" x="452.5" y="-563" font-family="Helvetica,sans-Serif" font-size="10.00">Arcane::TraceAccessor</text>
<text xml:space="preserve" text-anchor="middle" x="506.88" y="-550.25" font-family="Helvetica,sans-Serif" font-size="10.00">::debug</text>
</a>
</g>
</g>
<!-- Node1&#45;&gt;Node4 -->
<g id="edge13_Node000001_Node000004" class="edge">
<title>Node1&#45;&gt;Node4</title>
<g id="a_edge13_Node000001_Node000004"><a xlink:title=" ">
<path fill="none" stroke="#63b8ff" d="M89.98,-305.96C103.62,-342.49 140.67,-427.86 202,-469.75 270.42,-516.47 308.69,-474.32 384.5,-507.75 402.56,-515.71 402.82,-524.98 420.5,-533.75 424.72,-535.84 429.13,-537.8 433.65,-539.64"/>
<polygon fill="#63b8ff" stroke="#63b8ff" points="432.29,-542.86 442.88,-543.14 434.77,-536.32 432.29,-542.86"/>
</a>
</g>
</g>
<!-- Node12 -->
<g id="Node000012" class="node">
<title>Node12</title>
<g id="a_Node000012"><a xlink:href="../../d1/dfb/classArcane_1_1Array.html#aafe98ae0167c85696ed2051d6bd73294" target="_top" xlink:title="Access to the root of the array without any protection.">
<polygon fill="white" stroke="#666666" points="347.75,-409.12 238.75,-409.12 238.75,-388.38 347.75,-388.38 347.75,-409.12"/>
<text xml:space="preserve" text-anchor="middle" x="293.25" y="-395.62" font-family="Helvetica,sans-Serif" font-size="10.00">Arcane::Array::data</text>
</a>
</g>
</g>
<!-- Node1&#45;&gt;Node12 -->
<g id="edge12_Node000001_Node000012" class="edge">
<title>Node1&#45;&gt;Node12</title>
<g id="a_edge12_Node000001_Node000012"><a xlink:title=" ">
<path fill="none" stroke="#63b8ff" d="M101.17,-305.79C122.82,-326.27 162.04,-360.19 202,-378.75 209.98,-382.46 218.69,-385.49 227.44,-387.98"/>
<polygon fill="#63b8ff" stroke="#63b8ff" points="226.47,-391.34 237.03,-390.46 228.22,-384.57 226.47,-391.34"/>
</a>
</g>
</g>
<!-- Node13 -->
<g id="Node000013" class="node">
<title>Node13</title>
<g id="a_Node000013"><a xlink:href="../../d1/dfb/classArcane_1_1Array.html#a083966dab9220bea7777c2e7f9631dc2" target="_top" xlink:title="Fills the array with the value value.">
<polygon fill="white" stroke="#666666" points="342.88,-370.12 243.62,-370.12 243.62,-349.38 342.88,-349.38 342.88,-370.12"/>
<text xml:space="preserve" text-anchor="middle" x="293.25" y="-356.62" font-family="Helvetica,sans-Serif" font-size="10.00">Arcane::Array::fill</text>
</a>
</g>
</g>
<!-- Node1&#45;&gt;Node13 -->
<g id="edge14_Node000001_Node000013" class="edge">
<title>Node1&#45;&gt;Node13</title>
<g id="a_edge14_Node000001_Node000013"><a xlink:title=" ">
<path fill="none" stroke="#63b8ff" d="M117.86,-305.92C141.06,-317.12 172.8,-331.36 202,-340.75 211.74,-343.88 222.24,-346.64 232.51,-349"/>
<polygon fill="#63b8ff" stroke="#63b8ff" points="231.53,-352.37 242.04,-351.1 233.03,-345.53 231.53,-352.37"/>
</a>
</g>
</g>
<!-- Node14 -->
<g id="Node000014" class="node">
<title>Node14</title>
<g id="a_Node000014"><a xlink:href="../../d1/d17/classArcane_1_1TraceAccessor.html#a7f15f017b10b72c85bba3fce76314619" target="_top" xlink:title="Flow for an information message.">
<polygon fill="white" stroke="#666666" points="355.62,-331.5 230.88,-331.5 230.88,-298 355.62,-298 355.62,-331.5"/>
<text xml:space="preserve" text-anchor="start" x="238.88" y="-318" font-family="Helvetica,sans-Serif" font-size="10.00">Arcane::TraceAccessor</text>
<text xml:space="preserve" text-anchor="middle" x="293.25" y="-305.25" font-family="Helvetica,sans-Serif" font-size="10.00">::info</text>
</a>
</g>
</g>
<!-- Node1&#45;&gt;Node14 -->
<g id="edge15_Node000001_Node000014" class="edge">
<title>Node1&#45;&gt;Node14</title>
<g id="a_edge15_Node000001_Node000014"><a xlink:title=" ">
<path fill="none" stroke="#63b8ff" d="M166.31,-299.03C183.84,-301.21 202.24,-303.51 219.39,-305.65"/>
<polygon fill="#63b8ff" stroke="#63b8ff" points="218.6,-309.08 228.95,-306.85 219.46,-302.14 218.6,-309.08"/>
</a>
</g>
</g>
<!-- Node15 -->
<g id="Node000015" class="node">
<title>Node15</title>
<g id="a_Node000015"><a xlink:href="../../d3/d4e/classArcane_1_1IMeshCompacter.html#a80328ec13b85f18f810139c4b1273a1b" target="_top" xlink:title="Indicates whether it wishes to sort the entities in addition to compacting them.">
<polygon fill="white" stroke="#666666" points="362.38,-279.5 224.12,-279.5 224.12,-246 362.38,-246 362.38,-279.5"/>
<text xml:space="preserve" text-anchor="start" x="232.12" y="-266" font-family="Helvetica,sans-Serif" font-size="10.00">Arcane::IMeshCompacter</text>
<text xml:space="preserve" text-anchor="middle" x="293.25" y="-253.25" font-family="Helvetica,sans-Serif" font-size="10.00">::isSorted</text>
</a>
</g>
</g>
<!-- Node1&#45;&gt;Node15 -->
<g id="edge16_Node000001_Node000015" class="edge">
<title>Node1&#45;&gt;Node15</title>
<g id="a_edge16_Node000001_Node000015"><a xlink:title=" ">
<path fill="none" stroke="#63b8ff" d="M166.31,-278.47C181.53,-276.57 197.4,-274.59 212.54,-272.7"/>
<polygon fill="#63b8ff" stroke="#63b8ff" points="212.96,-276.18 222.45,-271.46 212.09,-269.23 212.96,-276.18"/>
</a>
</g>
</g>
<!-- Node16 -->
<g id="Node000016" class="node">
<title>Node16</title>
<g id="a_Node000016"><a xlink:href="../../d3/d97/classArcane_1_1Timer.html#ae1bf22aebbb2fa7df528a0e4e1618418" target="_top" xlink:title="Returns the time (in seconds) spent during the last activation of the timer.">
<polygon fill="white" stroke="#666666" points="384.5,-228.12 202,-228.12 202,-207.38 384.5,-207.38 384.5,-228.12"/>
<text xml:space="preserve" text-anchor="middle" x="293.25" y="-214.62" font-family="Helvetica,sans-Serif" font-size="10.00">Arcane::Timer::lastActivationTime</text>
</a>
</g>
</g>
<!-- Node1&#45;&gt;Node16 -->
<g id="edge17_Node000001_Node000016" class="edge">
<title>Node1&#45;&gt;Node16</title>
<g id="a_edge17_Node000001_Node000016"><a xlink:title=" ">
<path fill="none" stroke="#63b8ff" d="M117.86,-271.58C141.06,-260.38 172.8,-246.14 202,-236.75 208.15,-234.77 214.61,-232.94 221.12,-231.27"/>
<polygon fill="#63b8ff" stroke="#63b8ff" points="221.72,-234.72 230.61,-228.95 220.07,-227.92 221.72,-234.72"/>
</a>
</g>
</g>
<!-- Node17 -->
<g id="Node000017" class="node">
<title>Node17</title>
<g id="a_Node000017"><a xlink:href="../../d6/da2/classArcane_1_1mesh_1_1DynamicMeshKindInfos.html#a200ea93a8b83ffd53f0eb2e8e37ce334" target="_top" xlink:title="Largest local ID used.">
<polygon fill="white" stroke="#666666" points="372.5,-189.5 214,-189.5 214,-156 372.5,-156 372.5,-189.5"/>
<text xml:space="preserve" text-anchor="start" x="222" y="-176" font-family="Helvetica,sans-Serif" font-size="10.00">Arcane::mesh::DynamicMesh</text>
<text xml:space="preserve" text-anchor="middle" x="293.25" y="-163.25" font-family="Helvetica,sans-Serif" font-size="10.00">KindInfos::maxUsedLocalId</text>
</a>
</g>
</g>
<!-- Node1&#45;&gt;Node17 -->
<g id="edge18_Node000001_Node000017" class="edge">
<title>Node1&#45;&gt;Node17</title>
<g id="a_edge18_Node000001_Node000017"><a xlink:title=" ">
<path fill="none" stroke="#63b8ff" d="M101.76,-271.77C123.67,-251.66 162.87,-218.43 202,-198.75 205.28,-197.1 208.68,-195.54 212.15,-194.07"/>
<polygon fill="#63b8ff" stroke="#63b8ff" points="213.31,-197.37 221.34,-190.46 210.75,-190.86 213.31,-197.37"/>
</a>
</g>
</g>
<!-- Node18 -->
<g id="Node000018" class="node">
<title>Node18</title>
<g id="a_Node000018"><a xlink:href="../../de/d9f/classArcane_1_1IItemInternalSortFunction.html#ac8f6772915616d98edf601cb4e1752fe" target="_top" xlink:title="Name of the sorting function.">
<polygon fill="white" stroke="#666666" points="362.38,-137.5 224.12,-137.5 224.12,-104 362.38,-104 362.38,-137.5"/>
<text xml:space="preserve" text-anchor="start" x="232.12" y="-124" font-family="Helvetica,sans-Serif" font-size="10.00">Arcane::IItemInternalSort</text>
<text xml:space="preserve" text-anchor="middle" x="293.25" y="-111.25" font-family="Helvetica,sans-Serif" font-size="10.00">Function::name</text>
</a>
</g>
</g>
<!-- Node1&#45;&gt;Node18 -->
<g id="edge19_Node000001_Node000018" class="edge">
<title>Node1&#45;&gt;Node18</title>
<g id="a_edge19_Node000001_Node000018"><a xlink:title=" ">
<path fill="none" stroke="#63b8ff" d="M93.32,-271.95C110.72,-242.15 151.02,-180.07 202,-146.75 205.66,-144.36 209.54,-142.18 213.55,-140.21"/>
<polygon fill="#63b8ff" stroke="#63b8ff" points="214.66,-143.54 222.39,-136.29 211.83,-137.14 214.66,-143.54"/>
</a>
</g>
</g>
<!-- Node19 -->
<g id="Node000019" class="node">
<title>Node19</title>
<g id="a_Node000019"><a xlink:href="../../d5/d72/classArcane_1_1AbstractArray.html#a462e7632cf9664d773016bc972bed483" target="_top" xlink:title="Number of elements in the vector.">
<polygon fill="white" stroke="#666666" points="354.5,-85.5 232,-85.5 232,-52 354.5,-52 354.5,-85.5"/>
<text xml:space="preserve" text-anchor="start" x="240" y="-72" font-family="Helvetica,sans-Serif" font-size="10.00">Arcane::AbstractArray</text>
<text xml:space="preserve" text-anchor="middle" x="293.25" y="-59.25" font-family="Helvetica,sans-Serif" font-size="10.00">::size</text>
</a>
</g>
</g>
<!-- Node1&#45;&gt;Node19 -->
<g id="edge20_Node000001_Node000019" class="edge">
<title>Node1&#45;&gt;Node19</title>
<g id="a_edge20_Node000001_Node000019"><a xlink:title=" ">
<path fill="none" stroke="#63b8ff" d="M89.57,-271.55C102.75,-233.64 139.51,-142.5 202,-94.75 207.83,-90.29 214.4,-86.6 221.28,-83.54"/>
<polygon fill="#63b8ff" stroke="#63b8ff" points="222.09,-86.98 230.1,-80.05 219.51,-80.47 222.09,-86.98"/>
</a>
</g>
</g>
<!-- Node20 -->
<g id="Node000020" class="node">
<title>Node20</title>
<g id="a_Node000020"><a xlink:href="../../de/d9f/classArcane_1_1IItemInternalSortFunction.html#a3692f793d7bcafd6d9b8cfb88eee42e2" target="_top" xlink:title="Sorts the entities in the array items.">
<polygon fill="white" stroke="#666666" points="362.38,-33.5 224.12,-33.5 224.12,0 362.38,0 362.38,-33.5"/>
<text xml:space="preserve" text-anchor="start" x="232.12" y="-20" font-family="Helvetica,sans-Serif" font-size="10.00">Arcane::IItemInternalSort</text>
<text xml:space="preserve" text-anchor="middle" x="293.25" y="-7.25" font-family="Helvetica,sans-Serif" font-size="10.00">Function::sortItems</text>
</a>
</g>
</g>
<!-- Node1&#45;&gt;Node20 -->
<g id="edge21_Node000001_Node000020" class="edge">
<title>Node1&#45;&gt;Node20</title>
<g id="a_edge21_Node000001_Node000020"><a xlink:title=" ">
<path fill="none" stroke="#63b8ff" d="M87.15,-271.8C96.34,-227.24 127.32,-105.91 202,-42.75 205.64,-39.67 209.63,-36.95 213.84,-34.56"/>
<polygon fill="#63b8ff" stroke="#63b8ff" points="215.22,-37.78 222.63,-30.21 212.12,-31.5 215.22,-37.78"/>
</a>
</g>
</g>
<!-- Node3&#45;&gt;Node4 -->
<g id="edge3_Node000003_Node000004" class="edge">
<title>Node3&#45;&gt;Node4</title>
<g id="a_edge3_Node000003_Node000004"><a xlink:title=" ">
<path fill="none" stroke="#63b8ff" d="M361.59,-460.94C369.78,-464.7 377.66,-469.25 384.5,-474.75 408.45,-493.99 396.22,-514.93 420.5,-533.75 424.72,-537.02 429.35,-539.88 434.2,-542.38"/>
<polygon fill="#63b8ff" stroke="#63b8ff" points="432.48,-545.44 443.03,-546.4 435.38,-539.07 432.48,-545.44"/>
</a>
</g>
</g>
<!-- Node5 -->
<g id="Node000005" class="node">
<title>Node5</title>
<g id="a_Node000005"><a xlink:href="../../d1/d17/classArcane_1_1TraceAccessor.html#a8d387594447fa4c03443c8e085d62472" target="_top" xlink:title="Flow for an error message.">
<polygon fill="white" stroke="#666666" points="569.25,-524.5 444.5,-524.5 444.5,-491 569.25,-491 569.25,-524.5"/>
<text xml:space="preserve" text-anchor="start" x="452.5" y="-511" font-family="Helvetica,sans-Serif" font-size="10.00">Arcane::TraceAccessor</text>
<text xml:space="preserve" text-anchor="middle" x="506.88" y="-498.25" font-family="Helvetica,sans-Serif" font-size="10.00">::error</text>
</a>
</g>
</g>
<!-- Node3&#45;&gt;Node5 -->
<g id="edge4_Node000003_Node000005" class="edge">
<title>Node3&#45;&gt;Node5</title>
<g id="a_edge4_Node000003_Node000005"><a xlink:title=" ">
<path fill="none" stroke="#63b8ff" d="M351.24,-460.99C378.04,-469.09 410.2,-478.82 438.23,-487.29"/>
<polygon fill="#63b8ff" stroke="#63b8ff" points="437.12,-490.61 447.7,-490.16 439.14,-483.91 437.12,-490.61"/>
</a>
</g>
</g>
<!-- Node6 -->
<g id="Node000006" class="node">
<title>Node6</title>
<g id="a_Node000006"><a xlink:href="../../d7/dac/classArcane_1_1ItemBase.html#aa251e07a6dc0ffe8651ca5b5f31c150b" target="_top" xlink:title="True if the entity belongs to the subdomain.">
<polygon fill="white" stroke="#666666" points="576,-473.12 437.75,-473.12 437.75,-452.38 576,-452.38 576,-473.12"/>
<text xml:space="preserve" text-anchor="middle" x="506.88" y="-459.62" font-family="Helvetica,sans-Serif" font-size="10.00">Arcane::ItemBase::isOwn</text>
</a>
</g>
</g>
<!-- Node3&#45;&gt;Node6 -->
<g id="edge5_Node000003_Node000006" class="edge">
<title>Node3&#45;&gt;Node6</title>
<g id="a_edge5_Node000003_Node000006"><a xlink:title=" ">
<path fill="none" stroke="#63b8ff" d="M372.75,-450.8C390.12,-452.36 408.54,-454.01 425.97,-455.58"/>
<polygon fill="#63b8ff" stroke="#63b8ff" points="425.47,-459.05 435.74,-456.45 426.1,-452.07 425.47,-459.05"/>
</a>
</g>
</g>
<!-- Node8 -->
<g id="Node000008" class="node">
<title>Node8</title>
<g id="a_Node000008"><a xlink:href="../../d7/dac/classArcane_1_1ItemBase.html#a0eb46548f1c0d825abbde1859e3b25f0" target="_top" xlink:title="True if the entity is suppressed.">
<polygon fill="white" stroke="#666666" points="593.25,-434.12 420.5,-434.12 420.5,-413.38 593.25,-413.38 593.25,-434.12"/>
<text xml:space="preserve" text-anchor="middle" x="506.88" y="-420.62" font-family="Helvetica,sans-Serif" font-size="10.00">Arcane::ItemBase::isSuppressed</text>
</a>
</g>
</g>
<!-- Node3&#45;&gt;Node8 -->
<g id="edge7_Node000003_Node000008" class="edge">
<title>Node3&#45;&gt;Node8</title>
<g id="a_edge7_Node000003_Node000008"><a xlink:title=" ">
<path fill="none" stroke="#63b8ff" d="M372.75,-436.33C384.43,-435.23 396.58,-434.08 408.59,-432.94"/>
<polygon fill="#63b8ff" stroke="#63b8ff" points="408.9,-436.43 418.53,-432 408.24,-429.46 408.9,-436.43"/>
</a>
</g>
</g>
<!-- Node9 -->
<g id="Node000009" class="node">
<title>Node9</title>
<g id="a_Node000009"><a xlink:href="../../d7/dac/classArcane_1_1ItemBase.html#af872fabfb4a2112efb5d5cd8856841f8" target="_top" xlink:title="Local number (in the subdomain) of the entity.">
<polygon fill="white" stroke="#666666" points="577.12,-395.12 436.62,-395.12 436.62,-374.38 577.12,-374.38 577.12,-395.12"/>
<text xml:space="preserve" text-anchor="middle" x="506.88" y="-381.62" font-family="Helvetica,sans-Serif" font-size="10.00">Arcane::ItemBase::localId</text>
</a>
</g>
</g>
<!-- Node3&#45;&gt;Node9 -->
<g id="edge9_Node000003_Node000009" class="edge">
<title>Node3&#45;&gt;Node9</title>
<g id="a_edge9_Node000003_Node000009"><a xlink:title=" ">
<path fill="none" stroke="#63b8ff" d="M356.07,-426.53C365.62,-423.7 375.35,-420.72 384.5,-417.75 400.68,-412.5 404.19,-409.59 420.5,-404.75 428.23,-402.46 436.41,-400.26 444.53,-398.21"/>
<polygon fill="#63b8ff" stroke="#63b8ff" points="445.16,-401.66 454.04,-395.88 443.49,-394.86 445.16,-401.66"/>
</a>
</g>
</g>
<!-- Node10 -->
<g id="Node000010" class="node">
<title>Node10</title>
<g id="a_Node000010"><a xlink:href="../../d7/dac/classArcane_1_1ItemBase.html#a4ecbf8f24852890cfe6d09202c2ef17f" target="_top" xlink:title="Number of the owning subdomain of the entity.">
<polygon fill="white" stroke="#666666" points="576,-356.12 437.75,-356.12 437.75,-335.38 576,-335.38 576,-356.12"/>
<text xml:space="preserve" text-anchor="middle" x="506.88" y="-342.62" font-family="Helvetica,sans-Serif" font-size="10.00">Arcane::ItemBase::owner</text>
</a>
</g>
</g>
<!-- Node3&#45;&gt;Node10 -->
<g id="edge10_Node000003_Node000010" class="edge">
<title>Node3&#45;&gt;Node10</title>
<g id="a_edge10_Node000003_Node000010"><a xlink:title=" ">
<path fill="none" stroke="#63b8ff" d="M369.54,-426.52C374.81,-423.98 379.86,-421.08 384.5,-417.75 407.33,-401.35 397.26,-381.57 420.5,-365.75 422.87,-364.14 425.35,-362.66 427.91,-361.29"/>
<polygon fill="#63b8ff" stroke="#63b8ff" points="429.15,-364.58 436.78,-357.23 426.23,-358.21 429.15,-364.58"/>
</a>
</g>
</g>
<!-- Node11 -->
<g id="Node000011" class="node">
<title>Node11</title>
<g id="a_Node000011"><a xlink:href="../../d7/dac/classArcane_1_1ItemBase.html#a1caf9fd5a9b2c25ce5a3739b7f832848" target="_top" xlink:title="Unique number of the entity.">
<polygon fill="white" stroke="#666666" points="582,-317.12 431.75,-317.12 431.75,-296.38 582,-296.38 582,-317.12"/>
<text xml:space="preserve" text-anchor="middle" x="506.88" y="-303.62" font-family="Helvetica,sans-Serif" font-size="10.00">Arcane::ItemBase::uniqueId</text>
</a>
</g>
</g>
<!-- Node3&#45;&gt;Node11 -->
<g id="edge11_Node000003_Node000011" class="edge">
<title>Node3&#45;&gt;Node11</title>
<g id="a_edge11_Node000003_Node000011"><a xlink:title=" ">
<path fill="none" stroke="#63b8ff" d="M372.18,-426.68C376.6,-424.1 380.76,-421.15 384.5,-417.75 416.7,-388.51 387.58,-355.17 420.5,-326.75 421.97,-325.48 423.5,-324.3 425.08,-323.18"/>
<polygon fill="#63b8ff" stroke="#63b8ff" points="426.54,-326.38 433.39,-318.3 422.99,-320.35 426.54,-326.38"/>
</a>
</g>
</g>
<!-- Node7 -->
<g id="Node000007" class="node">
<title>Node7</title>
<g id="a_Node000007"><a xlink:href="../../d7/dac/classArcane_1_1ItemBase.html#a5030296e5244ff3c2cc6fc65dba7d128" target="_top" xlink:title="Flags of the entity.">
<polygon fill="white" stroke="#666666" points="760.75,-453.12 629.25,-453.12 629.25,-432.38 760.75,-432.38 760.75,-453.12"/>
<text xml:space="preserve" text-anchor="middle" x="695" y="-439.62" font-family="Helvetica,sans-Serif" font-size="10.00">Arcane::ItemBase::flags</text>
</a>
</g>
</g>
<!-- Node6&#45;&gt;Node7 -->
<g id="edge6_Node000006_Node000007" class="edge">
<title>Node6&#45;&gt;Node7</title>
<g id="a_edge6_Node000006_Node000007"><a xlink:title=" ">
<path fill="none" stroke="#63b8ff" d="M576.39,-455.39C589.83,-453.94 604.01,-452.42 617.69,-450.95"/>
<polygon fill="#63b8ff" stroke="#63b8ff" points="617.96,-454.44 627.53,-449.89 617.21,-447.48 617.96,-454.44"/>
</a>
</g>
</g>
<!-- Node8&#45;&gt;Node7 -->
<g id="edge8_Node000008_Node000007" class="edge">
<title>Node8&#45;&gt;Node7</title>
<g id="a_edge8_Node000008_Node000007"><a xlink:title=" ">
<path fill="none" stroke="#63b8ff" d="M593.58,-432.5C601.53,-433.31 609.55,-434.13 617.41,-434.93"/>
<polygon fill="#63b8ff" stroke="#63b8ff" points="616.97,-438.4 627.28,-435.94 617.68,-431.44 616.97,-438.4"/>
</a>
</g>
</g>
</g>
</svg>
