<?xml version="1.0" encoding="UTF-8" standalone="no"?>
<!DOCTYPE svg PUBLIC "-//W3C//DTD SVG 1.1//EN"
 "http://www.w3.org/Graphics/SVG/1.1/DTD/svg11.dtd">
<!-- Generated by graphviz version 2.43.0 (0)
 -->
<!-- Title: ArcaneArcaneCaseMeshServiceObject::options Pages: 1 -->
<svg width="390pt" height="86pt"
 viewBox="0.00 0.00 390.00 86.00" xmlns="http://www.w3.org/2000/svg" xmlns:xlink="http://www.w3.org/1999/xlink">
<g id="graph0" class="graph" transform="scale(1 1) rotate(0) translate(4 82)">
<title>ArcaneArcaneCaseMeshServiceObject::options</title>
<!-- Node1 -->
<g id="Node000001" class="node">
<title>Node1</title>
<g id="a_Node000001"><a xlink:title="Options du jeu de données du service.">
<polygon fill="#999999" stroke="#666666" points="382,-54 212,-54 212,-24 382,-24 382,-54"/>
<text text-anchor="start" x="220" y="-42" font-family="Helvetica,sans-Serif" font-size="10.00">ArcaneArcaneCaseMeshService</text>
<text text-anchor="middle" x="297" y="-31" font-family="Helvetica,sans-Serif" font-size="10.00">Object::options</text>
</a>
</g>
</g>
<!-- Node2 -->
<g id="Node000002" class="node">
<title>Node2</title>
<g id="a_Node000002"><a xlink:href="../../df/db4/classArcane_1_1ArcaneCaseMeshService.html#afd15655f085c32744240cf9331f893c3" target="_top" xlink:title="Applique les opérations après tout le reste.">
<polygon fill="white" stroke="#666666" points="176,-78 0,-78 0,-48 176,-48 176,-78"/>
<text text-anchor="start" x="8" y="-66" font-family="Helvetica,sans-Serif" font-size="10.00">Arcane::ArcaneCaseMeshService</text>
<text text-anchor="middle" x="88" y="-55" font-family="Helvetica,sans-Serif" font-size="10.00">::applyAdditionalOperations</text>
</a>
</g>
</g>
<!-- Node1&#45;&gt;Node2 -->
<g id="edge1_Node000001_Node000002" class="edge">
<title>Node1&#45;&gt;Node2</title>
<g id="a_edge1_Node000001_Node000002"><a xlink:title=" ">
<path fill="none" stroke="#63b8ff" d="M201.82,-49.92C193.27,-50.91 184.63,-51.91 176.15,-52.9"/>
<polygon fill="#63b8ff" stroke="#63b8ff" points="202.27,-53.39 211.81,-48.76 201.47,-46.44 202.27,-53.39"/>
</a>
</g>
</g>
<!-- Node3 -->
<g id="Node000003" class="node">
<title>Node3</title>
<g id="a_Node000003"><a xlink:href="../../df/db4/classArcane_1_1ArcaneCaseMeshService.html#a3abd6cd1e6de5427fbe5bb16772f49fb" target="_top" xlink:title="Créé le maillage avec le nom name.">
<polygon fill="white" stroke="#666666" points="176,-30 0,-30 0,0 176,0 176,-30"/>
<text text-anchor="start" x="8" y="-18" font-family="Helvetica,sans-Serif" font-size="10.00">Arcane::ArcaneCaseMeshService</text>
<text text-anchor="middle" x="88" y="-7" font-family="Helvetica,sans-Serif" font-size="10.00">::createMesh</text>
</a>
</g>
</g>
<!-- Node1&#45;&gt;Node3 -->
<g id="edge2_Node000001_Node000003" class="edge">
<title>Node1&#45;&gt;Node3</title>
<g id="a_edge2_Node000001_Node000003"><a xlink:title=" ">
<path fill="none" stroke="#63b8ff" d="M201.82,-28.08C193.27,-27.09 184.63,-26.09 176.15,-25.1"/>
<polygon fill="#63b8ff" stroke="#63b8ff" points="201.47,-31.56 211.81,-29.24 202.27,-24.61 201.47,-31.56"/>
</a>
</g>
</g>
</g>
</svg>
