<?xml version="1.0" encoding="UTF-8" standalone="no"?>
<!DOCTYPE svg PUBLIC "-//W3C//DTD SVG 1.1//EN"
 "http://www.w3.org/Graphics/SVG/1.1/DTD/svg11.dtd">
<!-- Generated by graphviz version 2.43.0 (0)
 -->
<!-- Title: Graphe hiérarchique des classes Pages: 1 -->
<svg width="305pt" height="86pt"
 viewBox="0.00 0.00 305.00 86.00" xmlns="http://www.w3.org/2000/svg" xmlns:xlink="http://www.w3.org/1999/xlink">
<g id="graph0" class="graph" transform="scale(1 1) rotate(0) translate(4 82)">
<title>Graphe hiérarchique des classes</title>
<!-- Node0 -->
<g id="Node000000" class="node">
<title>Node0</title>
<g id="a_Node000000"><a xlink:href="d4/d63/classArcane_1_1MultiArray2.html" target="_top" xlink:title="Classe de base des tableau 2D à taille multiple.">
<polygon fill="white" stroke="#666666" points="113,-54 0,-54 0,-24 113,-24 113,-54"/>
<text text-anchor="start" x="8" y="-42" font-family="Helvetica,sans-Serif" font-size="10.00">Arcane::MultiArray2</text>
<text text-anchor="middle" x="56.5" y="-31" font-family="Helvetica,sans-Serif" font-size="10.00">&lt; DataType &gt;</text>
</a>
</g>
</g>
<!-- Node1 -->
<g id="Node000001" class="node">
<title>Node1</title>
<g id="a_Node000001"><a xlink:href="de/d2b/classArcane_1_1SharedMultiArray2.html" target="_top" xlink:title="Tableau 2D à taille multiple avec sémantique par référence.">
<polygon fill="white" stroke="#666666" points="296.5,-78 149.5,-78 149.5,-48 296.5,-48 296.5,-78"/>
<text text-anchor="start" x="157.5" y="-66" font-family="Helvetica,sans-Serif" font-size="10.00">Arcane::SharedMultiArray2</text>
<text text-anchor="middle" x="223" y="-55" font-family="Helvetica,sans-Serif" font-size="10.00">&lt; DataType &gt;</text>
</a>
</g>
</g>
<!-- Node0&#45;&gt;Node1 -->
<g id="edge1715_Node000000_Node000001" class="edge">
<title>Node0&#45;&gt;Node1</title>
<g id="a_edge1715_Node000000_Node000001"><a xlink:title=" ">
<path fill="none" stroke="#63b8ff" d="M123.19,-48.58C131.82,-49.84 140.71,-51.14 149.45,-52.42"/>
<polygon fill="#63b8ff" stroke="#63b8ff" points="123.59,-45.11 113.19,-47.13 122.58,-52.03 123.59,-45.11"/>
</a>
</g>
</g>
<!-- Node2 -->
<g id="Node000002" class="node">
<title>Node2</title>
<g id="a_Node000002"><a xlink:href="db/d5b/classArcane_1_1UniqueMultiArray2.html" target="_top" xlink:title="Tableau 2D à taille multiple avec sémantique par valeur.">
<polygon fill="white" stroke="#666666" points="297,-30 149,-30 149,0 297,0 297,-30"/>
<text text-anchor="start" x="157" y="-18" font-family="Helvetica,sans-Serif" font-size="10.00">Arcane::UniqueMultiArray2</text>
<text text-anchor="middle" x="223" y="-7" font-family="Helvetica,sans-Serif" font-size="10.00">&lt; DataType &gt;</text>
</a>
</g>
</g>
<!-- Node0&#45;&gt;Node2 -->
<g id="edge1716_Node000000_Node000002" class="edge">
<title>Node0&#45;&gt;Node2</title>
<g id="a_edge1716_Node000000_Node000002"><a xlink:title=" ">
<path fill="none" stroke="#63b8ff" d="M123.3,-29.4C131.71,-28.17 140.35,-26.91 148.87,-25.67"/>
<polygon fill="#63b8ff" stroke="#63b8ff" points="122.58,-25.97 113.19,-30.87 123.59,-32.89 122.58,-25.97"/>
</a>
</g>
</g>
</g>
</svg>
