<?xml version="1.0" encoding="UTF-8" standalone="no"?>
<!DOCTYPE svg PUBLIC "-//W3C//DTD SVG 1.1//EN"
 "http://www.w3.org/Graphics/SVG/1.1/DTD/svg11.dtd">
<!-- Generated by graphviz version 14.1.2 (0)
 -->
<!-- Title: Graphe hiérarchique des classes Pages: 1 -->
<svg width="915pt" height="236pt"
 viewBox="0.00 0.00 915.00 236.00" xmlns="http://www.w3.org/2000/svg" xmlns:xlink="http://www.w3.org/1999/xlink">
<g id="graph0" class="graph" transform="scale(1 1) rotate(0) translate(4 231.5)">
<title>Graphe hiérarchique des classes</title>
<!-- Node0 -->
<g id="Node000000" class="node">
<title>Node0</title>
<g id="a_Node000000"><a xlink:href="da/dc0/classArcane_1_1IArray2DataVisitor.html" target="_top" xlink:title="Interface du pattern visitor pour une donnée tableau 2D.">
<polygon fill="white" stroke="#666666" points="145.75,-221.12 0,-221.12 0,-200.38 145.75,-200.38 145.75,-221.12"/>
<text xml:space="preserve" text-anchor="middle" x="72.88" y="-207.62" font-family="Helvetica,sans-Serif" font-size="10.00">Arcane::IArray2DataVisitor</text>
</a>
</g>
</g>
<!-- Node1 -->
<g id="Node000001" class="node">
<title>Node1</title>
<g id="a_Node000001"><a xlink:href="d1/dc4/classArcane_1_1AbstractArray2DataVisitor.html" target="_top" xlink:title="Visiteur abstrait pour une donnée tableau 2D.">
<polygon fill="white" stroke="#666666" points="334.25,-227.5 182.5,-227.5 182.5,-194 334.25,-194 334.25,-227.5"/>
<text xml:space="preserve" text-anchor="start" x="190.5" y="-214" font-family="Helvetica,sans-Serif" font-size="10.00">Arcane::AbstractArray2Data</text>
<text xml:space="preserve" text-anchor="middle" x="258.38" y="-201.25" font-family="Helvetica,sans-Serif" font-size="10.00">Visitor</text>
</a>
</g>
</g>
<!-- Node0&#45;&gt;Node1 -->
<g id="edge1258_Node000000_Node000001" class="edge">
<title>Node0&#45;&gt;Node1</title>
<g id="a_edge1258_Node000000_Node000001"><a xlink:title=" ">
<path fill="none" stroke="#63b8ff" d="M157.62,-210.75C165.8,-210.75 174.07,-210.75 182.16,-210.75"/>
<polygon fill="#63b8ff" stroke="#63b8ff" points="157.65,-207.25 147.65,-210.75 157.65,-214.25 157.65,-207.25"/>
</a>
</g>
</g>
<!-- Node2 -->
<g id="Node000002" class="node">
<title>Node2</title>
<g id="a_Node000002"><a xlink:href="d5/d50/classArcane_1_1AbstractDataVisitor.html" target="_top" xlink:title="Visiteur abstrait pour une donnée.">
<polygon fill="white" stroke="#666666" points="522,-124.12 371,-124.12 371,-103.38 522,-103.38 522,-124.12"/>
<text xml:space="preserve" text-anchor="middle" x="446.5" y="-110.62" font-family="Helvetica,sans-Serif" font-size="10.00">Arcane::AbstractDataVisitor</text>
</a>
</g>
</g>
<!-- Node1&#45;&gt;Node2 -->
<g id="edge1259_Node000001_Node000002" class="edge">
<title>Node1&#45;&gt;Node2</title>
<g id="a_edge1259_Node000001_Node000002"><a xlink:title=" ">
<path fill="none" stroke="#63b8ff" d="M324.95,-189.31C328.38,-187.85 331.75,-186.32 335,-184.75 371.53,-167.05 410.68,-139.64 431.15,-124.58"/>
<polygon fill="#63b8ff" stroke="#63b8ff" points="323.89,-185.97 315.93,-192.96 326.52,-192.45 323.89,-185.97"/>
</a>
</g>
</g>
<!-- Node3 -->
<g id="Node000003" class="node">
<title>Node3</title>
<g id="a_Node000003"><a xlink:href="da/d46/classArcane_1_1AbstractDataTypeDispatchingDataVisitor.html" target="_top" xlink:title="IDataVisitor dispatchant les opérations suivant le type de la donnée.">
<polygon fill="white" stroke="#666666" points="700,-130.5 558,-130.5 558,-97 700,-97 700,-130.5"/>
<text xml:space="preserve" text-anchor="start" x="566" y="-117" font-family="Helvetica,sans-Serif" font-size="10.00">Arcane::AbstractDataType</text>
<text xml:space="preserve" text-anchor="middle" x="629" y="-104.25" font-family="Helvetica,sans-Serif" font-size="10.00">DispatchingDataVisitor</text>
</a>
</g>
</g>
<!-- Node2&#45;&gt;Node3 -->
<g id="edge1260_Node000002_Node000003" class="edge">
<title>Node2&#45;&gt;Node3</title>
<g id="a_edge1260_Node000002_Node000003"><a xlink:title=" ">
<path fill="none" stroke="#63b8ff" d="M533.73,-113.75C541.73,-113.75 549.76,-113.75 557.59,-113.75"/>
<polygon fill="#63b8ff" stroke="#63b8ff" points="533.99,-110.25 523.99,-113.75 533.99,-117.25 533.99,-110.25"/>
</a>
</g>
</g>
<!-- Node4 -->
<g id="Node000004" class="node">
<title>Node4</title>
<g id="a_Node000004"><a xlink:href="dd/dc7/classArcane_1_1DataTypeDispatchingDataVisitor.html" target="_top" xlink:title="IDataVisitor dispatchant les opérations suivant le type de la donnée.">
<polygon fill="white" stroke="#666666" points="907.25,-130.5 736,-130.5 736,-97 907.25,-97 907.25,-130.5"/>
<text xml:space="preserve" text-anchor="start" x="744" y="-117" font-family="Helvetica,sans-Serif" font-size="10.00">Arcane::DataTypeDispatching</text>
<text xml:space="preserve" text-anchor="middle" x="821.62" y="-104.25" font-family="Helvetica,sans-Serif" font-size="10.00">DataVisitor&lt; IDispatcherType &gt;</text>
</a>
</g>
</g>
<!-- Node3&#45;&gt;Node4 -->
<g id="edge1261_Node000003_Node000004" class="edge">
<title>Node3&#45;&gt;Node4</title>
<g id="a_edge1261_Node000003_Node000004"><a xlink:title=" ">
<path fill="none" stroke="#63b8ff" d="M711.86,-113.75C719.73,-113.75 727.72,-113.75 735.62,-113.75"/>
<polygon fill="#63b8ff" stroke="#63b8ff" points="711.95,-110.25 701.95,-113.75 711.95,-117.25 711.95,-110.25"/>
</a>
</g>
</g>
<!-- Node6 -->
<g id="Node000006" class="node">
<title>Node6</title>
<g id="a_Node000006"><a xlink:href="db/d75/classArcane_1_1IArrayDataVisitor.html" target="_top" xlink:title="Interface du pattern visitor pour une donnée tableau.">
<polygon fill="white" stroke="#666666" points="142.75,-169.12 3,-169.12 3,-148.38 142.75,-148.38 142.75,-169.12"/>
<text xml:space="preserve" text-anchor="middle" x="72.88" y="-155.62" font-family="Helvetica,sans-Serif" font-size="10.00">Arcane::IArrayDataVisitor</text>
</a>
</g>
</g>
<!-- Node5 -->
<g id="Node000005" class="node">
<title>Node5</title>
<g id="a_Node000005"><a xlink:href="d5/db7/classArcane_1_1AbstractArrayDataVisitor.html" target="_top" xlink:title="Visiteur abstrait pour une donnée tableau.">
<polygon fill="white" stroke="#666666" points="331.25,-175.5 185.5,-175.5 185.5,-142 331.25,-142 331.25,-175.5"/>
<text xml:space="preserve" text-anchor="start" x="193.5" y="-162" font-family="Helvetica,sans-Serif" font-size="10.00">Arcane::AbstractArrayData</text>
<text xml:space="preserve" text-anchor="middle" x="258.38" y="-149.25" font-family="Helvetica,sans-Serif" font-size="10.00">Visitor</text>
</a>
</g>
</g>
<!-- Node6&#45;&gt;Node5 -->
<g id="edge1262_Node000006_Node000005" class="edge">
<title>Node6&#45;&gt;Node5</title>
<g id="a_edge1262_Node000006_Node000005"><a xlink:title=" ">
<path fill="none" stroke="#63b8ff" d="M154.62,-158.75C164.78,-158.75 175.13,-158.75 185.15,-158.75"/>
<polygon fill="#63b8ff" stroke="#63b8ff" points="154.76,-155.25 144.76,-158.75 154.76,-162.25 154.76,-155.25"/>
</a>
</g>
</g>
<!-- Node5&#45;&gt;Node2 -->
<g id="edge1263_Node000005_Node000002" class="edge">
<title>Node5&#45;&gt;Node2</title>
<g id="a_edge1263_Node000005_Node000002"><a xlink:title=" ">
<path fill="none" stroke="#63b8ff" d="M341.72,-138.84C362.03,-133.93 383.02,-128.85 400.77,-124.56"/>
<polygon fill="#63b8ff" stroke="#63b8ff" points="340.91,-135.44 332.01,-141.19 342.55,-142.24 340.91,-135.44"/>
</a>
</g>
</g>
<!-- Node7 -->
<g id="Node000007" class="node">
<title>Node7</title>
<g id="a_Node000007"><a xlink:href="d0/d7c/classArcane_1_1IDataVisitor.html" target="_top" xlink:title="Interface du pattern visitor pour une donnée.">
<polygon fill="white" stroke="#666666" points="315.12,-124.12 201.62,-124.12 201.62,-103.38 315.12,-103.38 315.12,-124.12"/>
<text xml:space="preserve" text-anchor="middle" x="258.38" y="-110.62" font-family="Helvetica,sans-Serif" font-size="10.00">Arcane::IDataVisitor</text>
</a>
</g>
</g>
<!-- Node7&#45;&gt;Node2 -->
<g id="edge1264_Node000007_Node000002" class="edge">
<title>Node7&#45;&gt;Node2</title>
<g id="a_edge1264_Node000007_Node000002"><a xlink:title=" ">
<path fill="none" stroke="#63b8ff" d="M326.69,-113.75C340.95,-113.75 356.08,-113.75 370.6,-113.75"/>
<polygon fill="#63b8ff" stroke="#63b8ff" points="326.98,-110.25 316.98,-113.75 326.98,-117.25 326.98,-110.25"/>
</a>
</g>
</g>
<!-- Node9 -->
<g id="Node000009" class="node">
<title>Node9</title>
<g id="a_Node000009"><a xlink:href="db/dd3/classArcane_1_1IMultiArray2DataVisitor.html" target="_top" xlink:title="Interface du pattern visitor pour une donnée tableau 2D à taille variable.">
<polygon fill="white" stroke="#666666" points="142.38,-85.5 3.38,-85.5 3.38,-52 142.38,-52 142.38,-85.5"/>
<text xml:space="preserve" text-anchor="start" x="11.38" y="-72" font-family="Helvetica,sans-Serif" font-size="10.00">Arcane::IMultiArray2Data</text>
<text xml:space="preserve" text-anchor="middle" x="72.88" y="-59.25" font-family="Helvetica,sans-Serif" font-size="10.00">Visitor</text>
</a>
</g>
</g>
<!-- Node8 -->
<g id="Node000008" class="node">
<title>Node8</title>
<g id="a_Node000008"><a xlink:href="dc/d74/classArcane_1_1AbstractMultiArray2DataVisitor.html" target="_top" xlink:title="Visiteur abstrait pour une donnée tableau 2D à taille variable.">
<polygon fill="white" stroke="#666666" points="335,-85.5 181.75,-85.5 181.75,-52 335,-52 335,-85.5"/>
<text xml:space="preserve" text-anchor="start" x="189.75" y="-72" font-family="Helvetica,sans-Serif" font-size="10.00">Arcane::AbstractMultiArray2</text>
<text xml:space="preserve" text-anchor="middle" x="258.38" y="-59.25" font-family="Helvetica,sans-Serif" font-size="10.00">DataVisitor</text>
</a>
</g>
</g>
<!-- Node9&#45;&gt;Node8 -->
<g id="edge1265_Node000009_Node000008" class="edge">
<title>Node9&#45;&gt;Node8</title>
<g id="a_edge1265_Node000009_Node000008"><a xlink:title=" ">
<path fill="none" stroke="#63b8ff" d="M154.09,-68.75C163.15,-68.75 172.36,-68.75 181.37,-68.75"/>
<polygon fill="#63b8ff" stroke="#63b8ff" points="154.24,-65.25 144.24,-68.75 154.24,-72.25 154.24,-65.25"/>
</a>
</g>
</g>
<!-- Node8&#45;&gt;Node2 -->
<g id="edge1266_Node000008_Node000002" class="edge">
<title>Node8&#45;&gt;Node2</title>
<g id="a_edge1266_Node000008_Node000002"><a xlink:title=" ">
<path fill="none" stroke="#63b8ff" d="M341.72,-88.66C362.03,-93.57 383.02,-98.65 400.77,-102.94"/>
<polygon fill="#63b8ff" stroke="#63b8ff" points="342.55,-85.26 332.01,-86.31 340.91,-92.06 342.55,-85.26"/>
</a>
</g>
</g>
<!-- Node11 -->
<g id="Node000011" class="node">
<title>Node11</title>
<g id="a_Node000011"><a xlink:href="db/d50/classArcane_1_1IScalarDataVisitor.html" target="_top" xlink:title="Interface du pattern visitor pour une donnée scalaire.">
<polygon fill="white" stroke="#666666" points="144.62,-27.12 1.12,-27.12 1.12,-6.38 144.62,-6.38 144.62,-27.12"/>
<text xml:space="preserve" text-anchor="middle" x="72.88" y="-13.62" font-family="Helvetica,sans-Serif" font-size="10.00">Arcane::IScalarDataVisitor</text>
</a>
</g>
</g>
<!-- Node10 -->
<g id="Node000010" class="node">
<title>Node10</title>
<g id="a_Node000010"><a xlink:href="d2/d08/classArcane_1_1AbstractScalarDataVisitor.html" target="_top" xlink:title="Visiteur abstrait pour une donnée scalaire.">
<polygon fill="white" stroke="#666666" points="333.12,-33.5 183.62,-33.5 183.62,0 333.12,0 333.12,-33.5"/>
<text xml:space="preserve" text-anchor="start" x="191.62" y="-20" font-family="Helvetica,sans-Serif" font-size="10.00">Arcane::AbstractScalarData</text>
<text xml:space="preserve" text-anchor="middle" x="258.38" y="-7.25" font-family="Helvetica,sans-Serif" font-size="10.00">Visitor</text>
</a>
</g>
</g>
<!-- Node11&#45;&gt;Node10 -->
<g id="edge1267_Node000011_Node000010" class="edge">
<title>Node11&#45;&gt;Node10</title>
<g id="a_edge1267_Node000011_Node000010"><a xlink:title=" ">
<path fill="none" stroke="#63b8ff" d="M156.33,-16.75C165.27,-16.75 174.34,-16.75 183.17,-16.75"/>
<polygon fill="#63b8ff" stroke="#63b8ff" points="156.6,-13.25 146.6,-16.75 156.6,-20.25 156.6,-13.25"/>
</a>
</g>
</g>
<!-- Node10&#45;&gt;Node2 -->
<g id="edge1268_Node000010_Node000002" class="edge">
<title>Node10&#45;&gt;Node2</title>
<g id="a_edge1268_Node000010_Node000002"><a xlink:title=" ">
<path fill="none" stroke="#63b8ff" d="M324.95,-38.19C328.38,-39.65 331.75,-41.18 335,-42.75 371.53,-60.45 410.68,-87.86 431.15,-102.92"/>
<polygon fill="#63b8ff" stroke="#63b8ff" points="326.52,-35.05 315.93,-34.54 323.89,-41.53 326.52,-35.05"/>
</a>
</g>
</g>
</g>
</svg>
