<?xml version="1.0" encoding="UTF-8" standalone="no"?>
<!DOCTYPE svg PUBLIC "-//W3C//DTD SVG 1.1//EN"
 "http://www.w3.org/Graphics/SVG/1.1/DTD/svg11.dtd">
<!-- Generated by graphviz version 2.43.0 (0)
 -->
<!-- Title: Graphe hiérarchique des classes Pages: 1 -->
<svg width="306pt" height="86pt"
 viewBox="0.00 0.00 306.00 86.00" xmlns="http://www.w3.org/2000/svg" xmlns:xlink="http://www.w3.org/1999/xlink">
<g id="graph0" class="graph" transform="scale(1 1) rotate(0) translate(4 82)">
<title>Graphe hiérarchique des classes</title>
<!-- Node0 -->
<g id="Node000000" class="node">
<title>Node0</title>
<g id="a_Node000000"><a xlink:href="df/d52/classArcane_1_1SpanImpl.html" target="_top" xlink:title=" ">
<polygon fill="white" stroke="#666666" points="140,-54 0,-54 0,-24 140,-24 140,-54"/>
<text text-anchor="start" x="8" y="-42" font-family="Helvetica,sans-Serif" font-size="10.00">Arcane::SpanImpl&lt; const</text>
<text text-anchor="middle" x="70" y="-31" font-family="Helvetica,sans-Serif" font-size="10.00"> Int32, Int32, Extent &gt;</text>
</a>
</g>
</g>
<!-- Node1 -->
<g id="Node000001" class="node">
<title>Node1</title>
<g id="a_Node000001"><a xlink:href="db/d21/classArcane_1_1SmallSpan.html" target="_top" xlink:title=" ">
<polygon fill="white" stroke="#666666" points="295,-78 179,-78 179,-48 295,-48 295,-78"/>
<text text-anchor="start" x="187" y="-66" font-family="Helvetica,sans-Serif" font-size="10.00">Arcane::SmallSpan&lt;</text>
<text text-anchor="middle" x="237" y="-55" font-family="Helvetica,sans-Serif" font-size="10.00"> const Int32 &gt;</text>
</a>
</g>
</g>
<!-- Node0&#45;&gt;Node1 -->
<g id="edge1835_Node000000_Node000001" class="edge">
<title>Node0&#45;&gt;Node1</title>
<g id="a_edge1835_Node000000_Node000001"><a xlink:title=" ">
<path fill="none" stroke="#63b8ff" d="M150.06,-50.5C159.74,-51.91 169.48,-53.32 178.75,-54.67"/>
<polygon fill="#63b8ff" stroke="#63b8ff" points="150.42,-47.02 140.02,-49.04 149.41,-53.94 150.42,-47.02"/>
</a>
</g>
</g>
<!-- Node2 -->
<g id="Node000002" class="node">
<title>Node2</title>
<g id="a_Node000002"><a xlink:href="db/d21/classArcane_1_1SmallSpan.html" target="_top" xlink:title=" ">
<polygon fill="white" stroke="#666666" points="298,-30 176,-30 176,0 298,0 298,-30"/>
<text text-anchor="start" x="184" y="-18" font-family="Helvetica,sans-Serif" font-size="10.00">Arcane::SmallSpan&lt;</text>
<text text-anchor="middle" x="237" y="-7" font-family="Helvetica,sans-Serif" font-size="10.00"> const Int32, Extent &gt;</text>
</a>
</g>
</g>
<!-- Node0&#45;&gt;Node2 -->
<g id="edge1836_Node000000_Node000002" class="edge">
<title>Node0&#45;&gt;Node2</title>
<g id="a_edge1836_Node000000_Node000002"><a xlink:title=" ">
<path fill="none" stroke="#63b8ff" d="M150.15,-27.49C158.81,-26.23 167.53,-24.96 175.91,-23.74"/>
<polygon fill="#63b8ff" stroke="#63b8ff" points="149.41,-24.06 140.02,-28.96 150.42,-30.98 149.41,-24.06"/>
</a>
</g>
</g>
</g>
</svg>
