<?xml version="1.0" encoding="UTF-8" standalone="no"?>
<!DOCTYPE svg PUBLIC "-//W3C//DTD SVG 1.1//EN"
 "http://www.w3.org/Graphics/SVG/1.1/DTD/svg11.dtd">
<!-- Generated by graphviz version 14.1.2 (0)
 -->
<!-- Title: Graphe hiérarchique des classes Pages: 1 -->
<svg width="259pt" height="146pt"
 viewBox="0.00 0.00 259.00 146.00" xmlns="http://www.w3.org/2000/svg" xmlns:xlink="http://www.w3.org/1999/xlink">
<g id="graph0" class="graph" transform="scale(1 1) rotate(0) translate(4 141.5)">
<title>Graphe hiérarchique des classes</title>
<!-- Node0 -->
<g id="Node000000" class="node">
<title>Node0</title>
<g id="a_Node000000"><a xlink:href="dc/dca/classArcane_1_1Materials_1_1ConstituentItem.html" target="_top" xlink:title="Représente un composant d&#39;une maille multi&#45;matériau.">
<polygon fill="white" stroke="#666666" points="107.5,-85.5 0,-85.5 0,-52 107.5,-52 107.5,-85.5"/>
<text xml:space="preserve" text-anchor="start" x="8" y="-72" font-family="Helvetica,sans-Serif" font-size="10.00">Arcane::Materials::</text>
<text xml:space="preserve" text-anchor="middle" x="53.75" y="-59.25" font-family="Helvetica,sans-Serif" font-size="10.00">ConstituentItem</text>
</a>
</g>
</g>
<!-- Node1 -->
<g id="Node000001" class="node">
<title>Node1</title>
<g id="a_Node000001"><a xlink:href="d1/d25/classArcane_1_1Materials_1_1AllEnvCell.html" target="_top" xlink:title="Maille arcane avec info matériaux et milieux.">
<polygon fill="white" stroke="#666666" points="251,-137.5 143.5,-137.5 143.5,-104 251,-104 251,-137.5"/>
<text xml:space="preserve" text-anchor="start" x="151.5" y="-124" font-family="Helvetica,sans-Serif" font-size="10.00">Arcane::Materials::</text>
<text xml:space="preserve" text-anchor="middle" x="197.25" y="-111.25" font-family="Helvetica,sans-Serif" font-size="10.00">AllEnvCell</text>
</a>
</g>
</g>
<!-- Node0&#45;&gt;Node1 -->
<g id="edge1630_Node000000_Node000001" class="edge">
<title>Node0&#45;&gt;Node1</title>
<g id="a_edge1630_Node000000_Node000001"><a xlink:title=" ">
<path fill="none" stroke="#63b8ff" d="M112.21,-89.86C124.63,-94.43 137.62,-99.21 149.57,-103.6"/>
<polygon fill="#63b8ff" stroke="#63b8ff" points="113.49,-86.61 102.9,-86.44 111.07,-93.18 113.49,-86.61"/>
</a>
</g>
</g>
<!-- Node2 -->
<g id="Node000002" class="node">
<title>Node2</title>
<g id="a_Node000002"><a xlink:href="de/dd0/classArcane_1_1Materials_1_1EnvCell.html" target="_top" xlink:title="Maille arcane d&#39;un milieu.">
<polygon fill="white" stroke="#666666" points="251,-85.5 143.5,-85.5 143.5,-52 251,-52 251,-85.5"/>
<text xml:space="preserve" text-anchor="start" x="151.5" y="-72" font-family="Helvetica,sans-Serif" font-size="10.00">Arcane::Materials::</text>
<text xml:space="preserve" text-anchor="middle" x="197.25" y="-59.25" font-family="Helvetica,sans-Serif" font-size="10.00">EnvCell</text>
</a>
</g>
</g>
<!-- Node0&#45;&gt;Node2 -->
<g id="edge1631_Node000000_Node000002" class="edge">
<title>Node0&#45;&gt;Node2</title>
<g id="a_edge1631_Node000000_Node000002"><a xlink:title=" ">
<path fill="none" stroke="#63b8ff" d="M119.16,-68.75C127.25,-68.75 135.45,-68.75 143.33,-68.75"/>
<polygon fill="#63b8ff" stroke="#63b8ff" points="119.36,-65.25 109.36,-68.75 119.36,-72.25 119.36,-65.25"/>
</a>
</g>
</g>
<!-- Node3 -->
<g id="Node000003" class="node">
<title>Node3</title>
<g id="a_Node000003"><a xlink:href="da/d7c/classArcane_1_1Materials_1_1MatCell.html" target="_top" xlink:title="Représente un matériau d&#39;une maille multi&#45;matériau.">
<polygon fill="white" stroke="#666666" points="251,-33.5 143.5,-33.5 143.5,0 251,0 251,-33.5"/>
<text xml:space="preserve" text-anchor="start" x="151.5" y="-20" font-family="Helvetica,sans-Serif" font-size="10.00">Arcane::Materials::</text>
<text xml:space="preserve" text-anchor="middle" x="197.25" y="-7.25" font-family="Helvetica,sans-Serif" font-size="10.00">MatCell</text>
</a>
</g>
</g>
<!-- Node0&#45;&gt;Node3 -->
<g id="edge1632_Node000000_Node000003" class="edge">
<title>Node0&#45;&gt;Node3</title>
<g id="a_edge1632_Node000000_Node000003"><a xlink:title=" ">
<path fill="none" stroke="#63b8ff" d="M112.21,-47.64C124.63,-43.07 137.62,-38.29 149.57,-33.9"/>
<polygon fill="#63b8ff" stroke="#63b8ff" points="111.07,-44.32 102.9,-51.06 113.49,-50.89 111.07,-44.32"/>
</a>
</g>
</g>
</g>
</svg>
