<?xml version="1.0" encoding="UTF-8" standalone="no"?>
<!DOCTYPE svg PUBLIC "-//W3C//DTD SVG 1.1//EN"
 "http://www.w3.org/Graphics/SVG/1.1/DTD/svg11.dtd">
<!-- Generated by graphviz version 2.43.0 (0)
 -->
<!-- Title: Graphe hiérarchique des classes Pages: 1 -->
<svg width="365pt" height="98pt"
 viewBox="0.00 0.00 365.00 97.50" xmlns="http://www.w3.org/2000/svg" xmlns:xlink="http://www.w3.org/1999/xlink">
<g id="graph0" class="graph" transform="scale(1 1) rotate(0) translate(4 93.5)">
<title>Graphe hiérarchique des classes</title>
<!-- Node0 -->
<g id="Node000000" class="node">
<title>Node0</title>
<g id="a_Node000000"><a xlink:href="d8/d7f/classArcane_1_1MessagePassing_1_1Mpi_1_1IMpiReduceOperator.html" target="_top" xlink:title="Opérateurs de réduction pour les types complexes (Real2, Real3, Real2x2 et Real3x3)">
<polygon fill="white" stroke="#666666" points="146,-87.5 0,-87.5 0,-57.5 146,-57.5 146,-87.5"/>
<text text-anchor="start" x="8" y="-75.5" font-family="Helvetica,sans-Serif" font-size="10.00">Arcane::MessagePassing</text>
<text text-anchor="middle" x="73" y="-64.5" font-family="Helvetica,sans-Serif" font-size="10.00">::Mpi::IMpiReduceOperator</text>
</a>
</g>
</g>
<!-- Node1 -->
<g id="Node000001" class="node">
<title>Node1</title>
<g id="a_Node000001"><a xlink:href="da/d47/classArcane_1_1MessagePassing_1_1Mpi_1_1BuiltInMpiReduceOperator.html" target="_top" xlink:title="Opérateur de réduction interne MPI (MPI_MAX, MPI_MIN, MPI_SUM)">
<polygon fill="white" stroke="#666666" points="357,-89.5 182,-89.5 182,-59.5 357,-59.5 357,-89.5"/>
<text text-anchor="start" x="190" y="-77.5" font-family="Helvetica,sans-Serif" font-size="10.00">Arcane::MessagePassing</text>
<text text-anchor="middle" x="269.5" y="-66.5" font-family="Helvetica,sans-Serif" font-size="10.00">::Mpi::BuiltInMpiReduceOperator</text>
</a>
</g>
</g>
<!-- Node0&#45;&gt;Node1 -->
<g id="edge1711_Node000000_Node000001" class="edge">
<title>Node0&#45;&gt;Node1</title>
<g id="a_edge1711_Node000000_Node000001"><a xlink:title=" ">
<path fill="none" stroke="#63b8ff" d="M156.39,-73.35C164.86,-73.43 173.48,-73.52 181.99,-73.61"/>
<polygon fill="#63b8ff" stroke="#63b8ff" points="156.18,-69.84 146.15,-73.24 156.11,-76.84 156.18,-69.84"/>
</a>
</g>
</g>
<!-- Node3 -->
<g id="Node000003" class="node">
<title>Node3</title>
<g id="a_Node000003"><a xlink:href="dd/dc9/classArcane_1_1MessagePassing_1_1Mpi_1_1StdMpiReduceOperator.html" target="_top" xlink:title="Opérateurs de réduction pour les types classiques.">
<polygon fill="white" stroke="#666666" points="349,-41 190,-41 190,0 349,0 349,-41"/>
<text text-anchor="start" x="198" y="-29" font-family="Helvetica,sans-Serif" font-size="10.00">Arcane::MessagePassing</text>
<text text-anchor="start" x="198" y="-18" font-family="Helvetica,sans-Serif" font-size="10.00">::Mpi::StdMpiReduceOperator</text>
<text text-anchor="middle" x="269.5" y="-7" font-family="Helvetica,sans-Serif" font-size="10.00">&lt; RealType &gt;</text>
</a>
</g>
</g>
<!-- Node0&#45;&gt;Node3 -->
<g id="edge1712_Node000000_Node000003" class="edge">
<title>Node0&#45;&gt;Node3</title>
<g id="a_edge1712_Node000000_Node000003"><a xlink:title=" ">
<path fill="none" stroke="#63b8ff" d="M140.36,-54.76C156.9,-50.34 174.76,-45.56 191.75,-41.02"/>
<polygon fill="#63b8ff" stroke="#63b8ff" points="139.01,-51.5 130.26,-57.46 140.82,-58.26 139.01,-51.5"/>
</a>
</g>
</g>
<!-- Node2 -->
<g id="Node000002" class="node">
<title>Node2</title>
<g id="a_Node000002"><a xlink:href="d9/d62/classArccore_1_1MessagePassing_1_1Mpi_1_1IMpiReduceOperator.html" target="_top" xlink:title="Opérateurs de réduction pour les types complexes (Real2, Real3, Real2x2 et Real3x3)">
<polygon fill="white" stroke="#666666" points="146,-38.5 0,-38.5 0,-8.5 146,-8.5 146,-38.5"/>
<text text-anchor="start" x="8" y="-26.5" font-family="Helvetica,sans-Serif" font-size="10.00">Arccore::MessagePassing</text>
<text text-anchor="middle" x="73" y="-15.5" font-family="Helvetica,sans-Serif" font-size="10.00">::Mpi::IMpiReduceOperator</text>
</a>
</g>
</g>
<!-- Node2&#45;&gt;Node1 -->
<g id="edge1713_Node000002_Node000001" class="edge">
<title>Node2&#45;&gt;Node1</title>
<g id="a_edge1713_Node000002_Node000001"><a xlink:title=" ">
<path fill="none" stroke="#63b8ff" d="M141.25,-41.13C164.06,-47.12 189.31,-53.74 211.27,-59.49"/>
<polygon fill="#63b8ff" stroke="#63b8ff" points="141.87,-37.68 131.3,-38.53 140.09,-44.45 141.87,-37.68"/>
</a>
</g>
</g>
<!-- Node2&#45;&gt;Node3 -->
<g id="edge1714_Node000002_Node000003" class="edge">
<title>Node2&#45;&gt;Node3</title>
<g id="a_edge1714_Node000002_Node000003"><a xlink:title=" ">
<path fill="none" stroke="#63b8ff" d="M156.29,-22.23C167.44,-22.06 178.86,-21.88 189.93,-21.71"/>
<polygon fill="#63b8ff" stroke="#63b8ff" points="156.09,-18.73 146.15,-22.39 156.2,-25.73 156.09,-18.73"/>
</a>
</g>
</g>
</g>
</svg>
