<?xml version="1.0" encoding="UTF-8" standalone="no"?>
<!DOCTYPE svg PUBLIC "-//W3C//DTD SVG 1.1//EN"
 "http://www.w3.org/Graphics/SVG/1.1/DTD/svg11.dtd">
<!-- Generated by graphviz version 2.43.0 (0)
 -->
<!-- Title: Graphe hiérarchique des classes Pages: 1 -->
<svg width="583pt" height="27pt"
 viewBox="0.00 0.00 583.00 27.00" xmlns="http://www.w3.org/2000/svg" xmlns:xlink="http://www.w3.org/1999/xlink">
<g id="graph0" class="graph" transform="scale(1 1) rotate(0) translate(4 23)">
<title>Graphe hiérarchique des classes</title>
<!-- Node0 -->
<g id="Node000000" class="node">
<title>Node0</title>
<g id="a_Node000000"><a xlink:href="da/dcc/classArcane_1_1ItemFlags.html" target="_top" xlink:title="Flags pour les caractéristiques des entités.">
<polygon fill="white" stroke="#666666" points="105,-19 0,-19 0,0 105,0 105,-19"/>
<text text-anchor="middle" x="52.5" y="-7" font-family="Helvetica,sans-Serif" font-size="10.00">Arcane::ItemFlags</text>
</a>
</g>
</g>
<!-- Node1 -->
<g id="Node000001" class="node">
<title>Node1</title>
<g id="a_Node000001"><a xlink:href="d7/dac/classArcane_1_1ItemBase.html" target="_top" xlink:title="Classe de base pour les entités du maillage.">
<polygon fill="white" stroke="#666666" points="244,-19 141,-19 141,0 244,0 244,-19"/>
<text text-anchor="middle" x="192.5" y="-7" font-family="Helvetica,sans-Serif" font-size="10.00">Arcane::ItemBase</text>
</a>
</g>
</g>
<!-- Node0&#45;&gt;Node1 -->
<g id="edge1462_Node000000_Node000001" class="edge">
<title>Node0&#45;&gt;Node1</title>
<g id="a_edge1462_Node000000_Node000001"><a xlink:title=" ">
<path fill="none" stroke="#63b8ff" d="M115.5,-9.5C123.97,-9.5 132.57,-9.5 140.81,-9.5"/>
<polygon fill="#63b8ff" stroke="#63b8ff" points="115.28,-6 105.28,-9.5 115.28,-13 115.28,-6"/>
</a>
</g>
</g>
<!-- Node2 -->
<g id="Node000002" class="node">
<title>Node2</title>
<g id="a_Node000002"><a xlink:href="d6/d29/classArcane_1_1MutableItemBase.html" target="_top" xlink:title="Méthodes permettant de modifier ItemBase.">
<polygon fill="white" stroke="#666666" points="423,-19 280,-19 280,0 423,0 423,-19"/>
<text text-anchor="middle" x="351.5" y="-7" font-family="Helvetica,sans-Serif" font-size="10.00">Arcane::MutableItemBase</text>
</a>
</g>
</g>
<!-- Node1&#45;&gt;Node2 -->
<g id="edge1463_Node000001_Node000002" class="edge">
<title>Node1&#45;&gt;Node2</title>
<g id="a_edge1463_Node000001_Node000002"><a xlink:title=" ">
<path fill="none" stroke="#63b8ff" d="M254.11,-9.5C262.51,-9.5 271.19,-9.5 279.75,-9.5"/>
<polygon fill="#63b8ff" stroke="#63b8ff" points="254.04,-6 244.04,-9.5 254.04,-13 254.04,-6"/>
</a>
</g>
</g>
<!-- Node3 -->
<g id="Node000003" class="node">
<title>Node3</title>
<g id="a_Node000003"><a xlink:href="dd/df1/classArcane_1_1ItemInternal.html" target="_top" xlink:title=" ">
<polygon fill="white" stroke="#666666" points="575,-19 459,-19 459,0 575,0 575,-19"/>
<text text-anchor="middle" x="517" y="-7" font-family="Helvetica,sans-Serif" font-size="10.00">Arcane::ItemInternal</text>
</a>
</g>
</g>
<!-- Node2&#45;&gt;Node3 -->
<g id="edge1464_Node000002_Node000003" class="edge">
<title>Node2&#45;&gt;Node3</title>
<g id="a_edge1464_Node000002_Node000003"><a xlink:title=" ">
<path fill="none" stroke="#63b8ff" d="M433.36,-9.5C441.99,-9.5 450.64,-9.5 458.91,-9.5"/>
<polygon fill="#63b8ff" stroke="#63b8ff" points="433.26,-6 423.26,-9.5 433.26,-13 433.26,-6"/>
</a>
</g>
</g>
</g>
</svg>
