<?xml version="1.0" encoding="UTF-8" standalone="no"?>
<!DOCTYPE svg PUBLIC "-//W3C//DTD SVG 1.1//EN"
 "http://www.w3.org/Graphics/SVG/1.1/DTD/svg11.dtd">
<!-- Generated by graphviz version 2.43.0 (0)
 -->
<!-- Title: Event.h Pages: 1 -->
<svg width="2061pt" height="434pt"
 viewBox="0.00 0.00 2060.50 434.00" xmlns="http://www.w3.org/2000/svg" xmlns:xlink="http://www.w3.org/1999/xlink">
<g id="graph0" class="graph" transform="scale(1 1) rotate(0) translate(4 430)">
<title>Event.h</title>
<!-- Node1 -->
<g id="Node000001" class="node">
<title>Node1</title>
<g id="a_Node000001"><a xlink:title="Fichier contenant les mécanismes de gestion des évènements.">
<polygon fill="#999999" stroke="#666666" points="829,-426 776,-426 776,-407 829,-407 829,-426"/>
<text text-anchor="middle" x="802.5" y="-414" font-family="Helvetica,sans-Serif" font-size="10.00">Event.h</text>
</a>
</g>
</g>
<!-- Node2 -->
<g id="Node000002" class="node">
<title>Node2</title>
<g id="a_Node000002"><a xlink:href="../../d4/da8/UtilsTypes_8h.html" target="_top" xlink:title="Déclarations des types utilisés dans Arcane.">
<polygon fill="white" stroke="#666666" points="468.5,-310.5 332.5,-310.5 332.5,-291.5 468.5,-291.5 468.5,-310.5"/>
<text text-anchor="middle" x="400.5" y="-298.5" font-family="Helvetica,sans-Serif" font-size="10.00">arcane/utils/UtilsTypes.h</text>
</a>
</g>
</g>
<!-- Node1&#45;&gt;Node2 -->
<g id="edge1_Node000001_Node000002" class="edge">
<title>Node1&#45;&gt;Node2</title>
<g id="a_edge1_Node000001_Node000002"><a xlink:title=" ">
<path fill="none" stroke="#63b8ff" d="M775.81,-407.97C706.79,-388.48 522.1,-336.33 440.37,-313.26"/>
<polygon fill="#63b8ff" stroke="#63b8ff" points="441.27,-309.87 430.69,-310.52 439.36,-316.61 441.27,-309.87"/>
</a>
</g>
</g>
<!-- Node18 -->
<g id="Node000018" class="node">
<title>Node18</title>
<g id="a_Node000018"><a xlink:href="../../dc/d22/arcane_2src_2arcane_2utils_2Array_8h_source.html" target="_top" xlink:title=" ">
<polygon fill="white" stroke="#666666" points="857.5,-371 747.5,-371 747.5,-352 857.5,-352 857.5,-371"/>
<text text-anchor="middle" x="802.5" y="-359" font-family="Helvetica,sans-Serif" font-size="10.00">arcane/utils/Array.h</text>
</a>
</g>
</g>
<!-- Node1&#45;&gt;Node18 -->
<g id="edge22_Node000001_Node000018" class="edge">
<title>Node1&#45;&gt;Node18</title>
<g id="a_edge22_Node000001_Node000018"><a xlink:title=" ">
<path fill="none" stroke="#63b8ff" d="M802.5,-406.75C802.5,-399.8 802.5,-389.85 802.5,-381.13"/>
<polygon fill="#63b8ff" stroke="#63b8ff" points="806,-381.09 802.5,-371.09 799,-381.09 806,-381.09"/>
</a>
</g>
</g>
<!-- Node36 -->
<g id="Node000036" class="node">
<title>Node36</title>
<g id="a_Node000036"><a xlink:title=" ">
<polygon fill="#e0e0e0" stroke="#999999" points="941,-371 876,-371 876,-352 941,-352 941,-371"/>
<text text-anchor="middle" x="908.5" y="-359" font-family="Helvetica,sans-Serif" font-size="10.00">functional</text>
</a>
</g>
</g>
<!-- Node1&#45;&gt;Node36 -->
<g id="edge46_Node000001_Node000036" class="edge">
<title>Node1&#45;&gt;Node36</title>
<g id="a_edge46_Node000001_Node000036"><a xlink:title=" ">
<path fill="none" stroke="#63b8ff" d="M819.53,-406.98C836.43,-398.54 862.56,-385.47 882.14,-375.68"/>
<polygon fill="#63b8ff" stroke="#63b8ff" points="883.78,-378.77 891.16,-371.17 880.65,-372.51 883.78,-378.77"/>
</a>
</g>
</g>
<!-- Node3 -->
<g id="Node000003" class="node">
<title>Node3</title>
<g id="a_Node000003"><a xlink:href="../../d0/d1e/ArcaneGlobal_8h.html" target="_top" xlink:title="Fichier de configuration d&#39;Arcane.">
<polygon fill="white" stroke="#666666" points="1752,-244.5 1601,-244.5 1601,-225.5 1752,-225.5 1752,-244.5"/>
<text text-anchor="middle" x="1676.5" y="-232.5" font-family="Helvetica,sans-Serif" font-size="10.00">arcane/utils/ArcaneGlobal.h</text>
</a>
</g>
</g>
<!-- Node2&#45;&gt;Node3 -->
<g id="edge2_Node000002_Node000003" class="edge">
<title>Node2&#45;&gt;Node3</title>
<g id="a_edge2_Node000002_Node000003"><a xlink:title=" ">
<path fill="none" stroke="#63b8ff" d="M468.8,-297.16C720.82,-286.68 1584.47,-250.72 1591.5,-250 1601.11,-249.01 1611.27,-247.63 1621.11,-246.12"/>
<polygon fill="#63b8ff" stroke="#63b8ff" points="1621.88,-249.54 1631.2,-244.51 1620.77,-242.63 1621.88,-249.54"/>
</a>
</g>
</g>
<!-- Node9 -->
<g id="Node000009" class="node">
<title>Node9</title>
<g id="a_Node000009"><a xlink:href="../../d4/d12/BaseTypes_8h.html" target="_top" xlink:title="Déclarations des types de la composante &#39;base&#39; de Arccore.">
<polygon fill="white" stroke="#666666" points="403,-129 260,-129 260,-110 403,-110 403,-129"/>
<text text-anchor="middle" x="331.5" y="-117" font-family="Helvetica,sans-Serif" font-size="10.00">arccore/base/BaseTypes.h</text>
</a>
</g>
</g>
<!-- Node2&#45;&gt;Node9 -->
<g id="edge8_Node000002_Node000009" class="edge">
<title>Node2&#45;&gt;Node9</title>
<g id="a_edge8_Node000002_Node000009"><a xlink:title=" ">
<path fill="none" stroke="#63b8ff" d="M395.36,-291.29C384.42,-272.4 358.67,-225.95 344.5,-184 339.54,-169.32 336.16,-152.07 334.09,-139.25"/>
<polygon fill="#63b8ff" stroke="#63b8ff" points="337.54,-138.68 332.6,-129.31 330.62,-139.72 337.54,-138.68"/>
</a>
</g>
</g>
<!-- Node11 -->
<g id="Node000011" class="node">
<title>Node11</title>
<g id="a_Node000011"><a xlink:href="../../dc/d80/RefDeclarations_8h.html" target="_top" xlink:title=" ">
<polygon fill="white" stroke="#666666" points="298,-184 129,-184 129,-165 298,-165 298,-184"/>
<text text-anchor="middle" x="213.5" y="-172" font-family="Helvetica,sans-Serif" font-size="10.00">arccore/base/RefDeclarations.h</text>
</a>
</g>
</g>
<!-- Node2&#45;&gt;Node11 -->
<g id="edge11_Node000002_Node000011" class="edge">
<title>Node2&#45;&gt;Node11</title>
<g id="a_edge11_Node000002_Node000011"><a xlink:title=" ">
<path fill="none" stroke="#63b8ff" d="M390.57,-291.48C372.53,-276.18 332.85,-243.5 296.5,-220 278.48,-208.35 257.12,-196.95 240.58,-188.6"/>
<polygon fill="#63b8ff" stroke="#63b8ff" points="241.98,-185.39 231.47,-184.07 238.86,-191.65 241.98,-185.39"/>
</a>
</g>
</g>
<!-- Node14 -->
<g id="Node000014" class="node">
<title>Node14</title>
<g id="a_Node000014"><a xlink:href="../../d0/d8d/CollectionsGlobal_8h_source.html" target="_top" xlink:title=" ">
<polygon fill="white" stroke="#666666" points="503.5,-250 389.5,-250 389.5,-220 503.5,-220 503.5,-250"/>
<text text-anchor="start" x="397.5" y="-238" font-family="Helvetica,sans-Serif" font-size="10.00">arccore/collections</text>
<text text-anchor="middle" x="446.5" y="-227" font-family="Helvetica,sans-Serif" font-size="10.00">/CollectionsGlobal.h</text>
</a>
</g>
</g>
<!-- Node2&#45;&gt;Node14 -->
<g id="edge15_Node000002_Node000014" class="edge">
<title>Node2&#45;&gt;Node14</title>
<g id="a_edge15_Node000002_Node000014"><a xlink:title=" ">
<path fill="none" stroke="#63b8ff" d="M406.7,-291.37C412.72,-282.99 422.12,-269.93 430.27,-258.59"/>
<polygon fill="#63b8ff" stroke="#63b8ff" points="433.18,-260.52 436.18,-250.36 427.5,-256.44 433.18,-260.52"/>
</a>
</g>
</g>
<!-- Node16 -->
<g id="Node000016" class="node">
<title>Node16</title>
<g id="a_Node000016"><a xlink:href="../../d1/db9/ConcurrencyGlobal_8h_source.html" target="_top" xlink:title=" ">
<polygon fill="white" stroke="#666666" points="121,-250 0,-250 0,-220 121,-220 121,-250"/>
<text text-anchor="start" x="8" y="-238" font-family="Helvetica,sans-Serif" font-size="10.00">arccore/concurrency</text>
<text text-anchor="middle" x="60.5" y="-227" font-family="Helvetica,sans-Serif" font-size="10.00">/ConcurrencyGlobal.h</text>
</a>
</g>
</g>
<!-- Node2&#45;&gt;Node16 -->
<g id="edge18_Node000002_Node000016" class="edge">
<title>Node2&#45;&gt;Node16</title>
<g id="a_edge18_Node000002_Node000016"><a xlink:title=" ">
<path fill="none" stroke="#63b8ff" d="M352.97,-291.49C300.88,-282.11 214.59,-266.4 130.99,-250.27"/>
<polygon fill="#63b8ff" stroke="#63b8ff" points="131.55,-246.82 121.07,-248.35 130.22,-253.69 131.55,-246.82"/>
</a>
</g>
</g>
<!-- Node17 -->
<g id="Node000017" class="node">
<title>Node17</title>
<g id="a_Node000017"><a xlink:href="../../dd/d4e/TraceGlobal_8h_source.html" target="_top" xlink:title=" ">
<polygon fill="white" stroke="#666666" points="288,-244.5 139,-244.5 139,-225.5 288,-225.5 288,-244.5"/>
<text text-anchor="middle" x="213.5" y="-232.5" font-family="Helvetica,sans-Serif" font-size="10.00">arccore/trace/TraceGlobal.h</text>
</a>
</g>
</g>
<!-- Node2&#45;&gt;Node17 -->
<g id="edge20_Node000002_Node000017" class="edge">
<title>Node2&#45;&gt;Node17</title>
<g id="a_edge20_Node000002_Node000017"><a xlink:title=" ">
<path fill="none" stroke="#63b8ff" d="M375.28,-291.37C342.57,-280.17 285.33,-260.58 248.44,-247.96"/>
<polygon fill="#63b8ff" stroke="#63b8ff" points="249.21,-244.52 238.62,-244.6 246.95,-251.15 249.21,-244.52"/>
</a>
</g>
</g>
<!-- Node4 -->
<g id="Node000004" class="node">
<title>Node4</title>
<g id="a_Node000004"><a xlink:href="../../dd/d76/ArccoreGlobal_8h_source.html" target="_top" xlink:title=" ">
<polygon fill="white" stroke="#666666" points="647,-74 488,-74 488,-55 647,-55 647,-74"/>
<text text-anchor="middle" x="567.5" y="-62" font-family="Helvetica,sans-Serif" font-size="10.00">arccore/base/ArccoreGlobal.h</text>
</a>
</g>
</g>
<!-- Node3&#45;&gt;Node4 -->
<g id="edge3_Node000003_Node000004" class="edge">
<title>Node3&#45;&gt;Node4</title>
<g id="a_edge3_Node000003_Node000004"><a xlink:title=" ">
<path fill="none" stroke="#63b8ff" d="M1625.28,-225.45C1614.15,-223.62 1602.43,-221.72 1591.5,-220 1231.86,-163.25 800.42,-99.61 635.83,-75.48"/>
<polygon fill="#63b8ff" stroke="#63b8ff" points="636.25,-72.01 625.85,-74.02 635.23,-78.93 636.25,-72.01"/>
</a>
</g>
</g>
<!-- Node7 -->
<g id="Node000007" class="node">
<title>Node7</title>
<g id="a_Node000007"><a xlink:title=" ">
<polygon fill="#e0e0e0" stroke="#999999" points="1787,-184 1668,-184 1668,-165 1787,-165 1787,-184"/>
<text text-anchor="middle" x="1727.5" y="-172" font-family="Helvetica,sans-Serif" font-size="10.00">arcane_core_config.h</text>
</a>
</g>
</g>
<!-- Node3&#45;&gt;Node7 -->
<g id="edge6_Node000003_Node000007" class="edge">
<title>Node3&#45;&gt;Node7</title>
<g id="a_edge6_Node000003_Node000007"><a xlink:title=" ">
<path fill="none" stroke="#63b8ff" d="M1684.03,-225.37C1691.71,-216.55 1703.82,-202.66 1713.31,-191.77"/>
<polygon fill="#63b8ff" stroke="#63b8ff" points="1716.01,-194.01 1719.94,-184.17 1710.73,-189.41 1716.01,-194.01"/>
</a>
</g>
</g>
<!-- Node8 -->
<g id="Node000008" class="node">
<title>Node8</title>
<g id="a_Node000008"><a xlink:title=" ">
<polygon fill="#e0e0e0" stroke="#999999" points="1649.5,-184 1601.5,-184 1601.5,-165 1649.5,-165 1649.5,-184"/>
<text text-anchor="middle" x="1625.5" y="-172" font-family="Helvetica,sans-Serif" font-size="10.00">iosfwd</text>
</a>
</g>
</g>
<!-- Node3&#45;&gt;Node8 -->
<g id="edge7_Node000003_Node000008" class="edge">
<title>Node3&#45;&gt;Node8</title>
<g id="a_edge7_Node000003_Node000008"><a xlink:title=" ">
<path fill="none" stroke="#63b8ff" d="M1668.97,-225.37C1661.29,-216.55 1649.18,-202.66 1639.69,-191.77"/>
<polygon fill="#63b8ff" stroke="#63b8ff" points="1642.27,-189.41 1633.06,-184.17 1636.99,-194.01 1642.27,-189.41"/>
</a>
</g>
</g>
<!-- Node5 -->
<g id="Node000005" class="node">
<title>Node5</title>
<g id="a_Node000005"><a xlink:title=" ">
<polygon fill="#e0e0e0" stroke="#999999" points="536.5,-19 486.5,-19 486.5,0 536.5,0 536.5,-19"/>
<text text-anchor="middle" x="511.5" y="-7" font-family="Helvetica,sans-Serif" font-size="10.00">cstdint</text>
</a>
</g>
</g>
<!-- Node4&#45;&gt;Node5 -->
<g id="edge4_Node000004_Node000005" class="edge">
<title>Node4&#45;&gt;Node5</title>
<g id="a_edge4_Node000004_Node000005"><a xlink:title=" ">
<path fill="none" stroke="#63b8ff" d="M558.5,-54.98C550.31,-47.23 537.99,-35.58 528.03,-26.14"/>
<polygon fill="#63b8ff" stroke="#63b8ff" points="530.33,-23.5 520.66,-19.17 525.52,-28.59 530.33,-23.5"/>
</a>
</g>
</g>
<!-- Node6 -->
<g id="Node000006" class="node">
<title>Node6</title>
<g id="a_Node000006"><a xlink:title=" ">
<polygon fill="#e0e0e0" stroke="#999999" points="690,-19 555,-19 555,0 690,0 690,-19"/>
<text text-anchor="middle" x="622.5" y="-7" font-family="Helvetica,sans-Serif" font-size="10.00">arccore/arccore_config.h</text>
</a>
</g>
</g>
<!-- Node4&#45;&gt;Node6 -->
<g id="edge5_Node000004_Node000006" class="edge">
<title>Node4&#45;&gt;Node6</title>
<g id="a_edge5_Node000004_Node000006"><a xlink:title=" ">
<path fill="none" stroke="#63b8ff" d="M576.58,-54.75C584.59,-47.03 596.46,-35.6 606.12,-26.28"/>
<polygon fill="#63b8ff" stroke="#63b8ff" points="608.81,-28.55 613.59,-19.09 603.96,-23.51 608.81,-28.55"/>
</a>
</g>
</g>
<!-- Node9&#45;&gt;Node4 -->
<g id="edge9_Node000009_Node000004" class="edge">
<title>Node9&#45;&gt;Node4</title>
<g id="a_edge9_Node000009_Node000004"><a xlink:title=" ">
<path fill="none" stroke="#63b8ff" d="M369.42,-109.98C410.15,-100.84 475,-86.27 519.32,-76.32"/>
<polygon fill="#63b8ff" stroke="#63b8ff" points="520.3,-79.69 529.29,-74.08 518.76,-72.86 520.3,-79.69"/>
</a>
</g>
</g>
<!-- Node10 -->
<g id="Node000010" class="node">
<title>Node10</title>
<g id="a_Node000010"><a xlink:title=" ">
<polygon fill="#e0e0e0" stroke="#999999" points="358,-74 305,-74 305,-55 358,-55 358,-74"/>
<text text-anchor="middle" x="331.5" y="-62" font-family="Helvetica,sans-Serif" font-size="10.00">cstddef</text>
</a>
</g>
</g>
<!-- Node9&#45;&gt;Node10 -->
<g id="edge10_Node000009_Node000010" class="edge">
<title>Node9&#45;&gt;Node10</title>
<g id="a_edge10_Node000009_Node000010"><a xlink:title=" ">
<path fill="none" stroke="#63b8ff" d="M331.5,-109.75C331.5,-102.8 331.5,-92.85 331.5,-84.13"/>
<polygon fill="#63b8ff" stroke="#63b8ff" points="335,-84.09 331.5,-74.09 328,-84.09 335,-84.09"/>
</a>
</g>
</g>
<!-- Node11&#45;&gt;Node9 -->
<g id="edge12_Node000011_Node000009" class="edge">
<title>Node11&#45;&gt;Node9</title>
<g id="a_edge12_Node000011_Node000009"><a xlink:title=" ">
<path fill="none" stroke="#63b8ff" d="M232.46,-164.98C251.53,-156.42 281.16,-143.11 303.05,-133.28"/>
<polygon fill="#63b8ff" stroke="#63b8ff" points="304.51,-136.46 312.2,-129.17 301.64,-130.07 304.51,-136.46"/>
</a>
</g>
</g>
<!-- Node12 -->
<g id="Node000012" class="node">
<title>Node12</title>
<g id="a_Node000012"><a xlink:title=" ">
<polygon fill="#e0e0e0" stroke="#999999" points="242,-129 173,-129 173,-110 242,-110 242,-129"/>
<text text-anchor="middle" x="207.5" y="-117" font-family="Helvetica,sans-Serif" font-size="10.00">type_traits</text>
</a>
</g>
</g>
<!-- Node11&#45;&gt;Node12 -->
<g id="edge13_Node000011_Node000012" class="edge">
<title>Node11&#45;&gt;Node12</title>
<g id="a_edge13_Node000011_Node000012"><a xlink:title=" ">
<path fill="none" stroke="#63b8ff" d="M212.51,-164.75C211.72,-157.8 210.6,-147.85 209.61,-139.13"/>
<polygon fill="#63b8ff" stroke="#63b8ff" points="213.08,-138.63 208.47,-129.09 206.12,-139.42 213.08,-138.63"/>
</a>
</g>
</g>
<!-- Node13 -->
<g id="Node000013" class="node">
<title>Node13</title>
<g id="a_Node000013"><a xlink:title=" ">
<polygon fill="#e0e0e0" stroke="#999999" points="653.5,-129 595.5,-129 595.5,-110 653.5,-110 653.5,-129"/>
<text text-anchor="middle" x="624.5" y="-117" font-family="Helvetica,sans-Serif" font-size="10.00">memory</text>
</a>
</g>
</g>
<!-- Node11&#45;&gt;Node13 -->
<g id="edge14_Node000011_Node000013" class="edge">
<title>Node11&#45;&gt;Node13</title>
<g id="a_edge14_Node000011_Node000013"><a xlink:title=" ">
<path fill="none" stroke="#63b8ff" d="M279.53,-164.98C365.87,-153.85 514.38,-134.7 584.99,-125.59"/>
<polygon fill="#63b8ff" stroke="#63b8ff" points="585.76,-129.02 595.23,-124.27 584.86,-122.08 585.76,-129.02"/>
</a>
</g>
</g>
<!-- Node14&#45;&gt;Node4 -->
<g id="edge16_Node000014_Node000004" class="edge">
<title>Node14&#45;&gt;Node4</title>
<g id="a_edge16_Node000014_Node000004"><a xlink:title=" ">
<path fill="none" stroke="#63b8ff" d="M497.71,-219.93C516.44,-212.27 536.07,-200.8 548.5,-184 570.32,-154.51 571.11,-109.55 569.48,-84.33"/>
<polygon fill="#63b8ff" stroke="#63b8ff" points="572.96,-83.93 568.63,-74.26 565.99,-84.52 572.96,-83.93"/>
</a>
</g>
</g>
<!-- Node15 -->
<g id="Node000015" class="node">
<title>Node15</title>
<g id="a_Node000015"><a xlink:title=" ">
<polygon fill="#e0e0e0" stroke="#999999" points="539.5,-184 353.5,-184 353.5,-165 539.5,-165 539.5,-184"/>
<text text-anchor="middle" x="446.5" y="-172" font-family="Helvetica,sans-Serif" font-size="10.00">arccore/common/CommonGlobal.h</text>
</a>
</g>
</g>
<!-- Node14&#45;&gt;Node15 -->
<g id="edge17_Node000014_Node000015" class="edge">
<title>Node14&#45;&gt;Node15</title>
<g id="a_edge17_Node000014_Node000015"><a xlink:title=" ">
<path fill="none" stroke="#63b8ff" d="M446.5,-219.84C446.5,-212.21 446.5,-202.7 446.5,-194.45"/>
<polygon fill="#63b8ff" stroke="#63b8ff" points="450,-194.27 446.5,-184.27 443,-194.27 450,-194.27"/>
</a>
</g>
</g>
<!-- Node16&#45;&gt;Node11 -->
<g id="edge19_Node000016_Node000011" class="edge">
<title>Node16&#45;&gt;Node11</title>
<g id="a_edge19_Node000016_Node000011"><a xlink:title=" ">
<path fill="none" stroke="#63b8ff" d="M97.15,-219.99C122.79,-210.18 156.72,-197.21 181.32,-187.81"/>
<polygon fill="#63b8ff" stroke="#63b8ff" points="182.81,-190.98 190.91,-184.14 180.31,-184.44 182.81,-190.98"/>
</a>
</g>
</g>
<!-- Node17&#45;&gt;Node11 -->
<g id="edge21_Node000017_Node000011" class="edge">
<title>Node17&#45;&gt;Node11</title>
<g id="a_edge21_Node000017_Node000011"><a xlink:title=" ">
<path fill="none" stroke="#63b8ff" d="M213.5,-225.37C213.5,-217.25 213.5,-204.81 213.5,-194.39"/>
<polygon fill="#63b8ff" stroke="#63b8ff" points="217,-194.17 213.5,-184.17 210,-194.17 217,-194.17"/>
</a>
</g>
</g>
<!-- Node18&#45;&gt;Node2 -->
<g id="edge31_Node000018_Node000002" class="edge">
<title>Node18&#45;&gt;Node2</title>
<g id="a_edge31_Node000018_Node000002"><a xlink:title=" ">
<path fill="none" stroke="#63b8ff" d="M747.45,-352.49C675.11,-341.96 548.06,-323.47 469.41,-312.03"/>
<polygon fill="#63b8ff" stroke="#63b8ff" points="469.52,-308.51 459.12,-310.53 468.51,-315.43 469.52,-308.51"/>
</a>
</g>
</g>
<!-- Node19 -->
<g id="Node000019" class="node">
<title>Node19</title>
<g id="a_Node000019"><a xlink:href="../../da/d85/arccore_2src_2collections_2arccore_2collections_2Array_8h_source.html" target="_top" xlink:title=" ">
<polygon fill="white" stroke="#666666" points="856.5,-316 748.5,-316 748.5,-286 856.5,-286 856.5,-316"/>
<text text-anchor="start" x="756.5" y="-304" font-family="Helvetica,sans-Serif" font-size="10.00">arccore/collections</text>
<text text-anchor="middle" x="802.5" y="-293" font-family="Helvetica,sans-Serif" font-size="10.00">/Array.h</text>
</a>
</g>
</g>
<!-- Node18&#45;&gt;Node19 -->
<g id="edge23_Node000018_Node000019" class="edge">
<title>Node18&#45;&gt;Node19</title>
<g id="a_edge23_Node000018_Node000019"><a xlink:title=" ">
<path fill="none" stroke="#63b8ff" d="M802.5,-351.87C802.5,-345.11 802.5,-335.35 802.5,-326.26"/>
<polygon fill="#63b8ff" stroke="#63b8ff" points="806,-326.11 802.5,-316.11 799,-326.11 806,-326.11"/>
</a>
</g>
</g>
<!-- Node25 -->
<g id="Node000025" class="node">
<title>Node25</title>
<g id="a_Node000025"><a xlink:href="../../d2/d39/StdHeader_8h_source.html" target="_top" xlink:title=" ">
<polygon fill="white" stroke="#666666" points="1466.5,-310.5 1330.5,-310.5 1330.5,-291.5 1466.5,-291.5 1466.5,-310.5"/>
<text text-anchor="middle" x="1398.5" y="-298.5" font-family="Helvetica,sans-Serif" font-size="10.00">arcane/utils/StdHeader.h</text>
</a>
</g>
</g>
<!-- Node18&#45;&gt;Node25 -->
<g id="edge32_Node000018_Node000025" class="edge">
<title>Node18&#45;&gt;Node25</title>
<g id="a_edge32_Node000018_Node000025"><a xlink:title=" ">
<path fill="none" stroke="#63b8ff" d="M857.8,-353.13C861.08,-352.74 864.33,-352.36 867.5,-352 1028.01,-333.95 1216.33,-317.29 1320.03,-308.5"/>
<polygon fill="#63b8ff" stroke="#63b8ff" points="1320.43,-311.97 1330.1,-307.64 1319.84,-305 1320.43,-311.97"/>
</a>
</g>
</g>
<!-- Node31 -->
<g id="Node000031" class="node">
<title>Node31</title>
<g id="a_Node000031"><a xlink:href="../../da/d7c/Iostream_8h_source.html" target="_top" xlink:title=" ">
<polygon fill="white" stroke="#666666" points="1901,-310.5 1772,-310.5 1772,-291.5 1901,-291.5 1901,-310.5"/>
<text text-anchor="middle" x="1836.5" y="-298.5" font-family="Helvetica,sans-Serif" font-size="10.00">arcane/utils/Iostream.h</text>
</a>
</g>
</g>
<!-- Node18&#45;&gt;Node31 -->
<g id="edge40_Node000018_Node000031" class="edge">
<title>Node18&#45;&gt;Node31</title>
<g id="a_edge40_Node000018_Node000031"><a xlink:title=" ">
<path fill="none" stroke="#63b8ff" d="M857.79,-352.97C861.07,-352.62 864.33,-352.29 867.5,-352 1040.86,-336.22 1565.88,-313.33 1761.76,-305.1"/>
<polygon fill="#63b8ff" stroke="#63b8ff" points="1762.11,-308.58 1771.95,-304.67 1761.81,-301.59 1762.11,-308.58"/>
</a>
</g>
</g>
<!-- Node19&#45;&gt;Node13 -->
<g id="edge28_Node000019_Node000013" class="edge">
<title>Node19&#45;&gt;Node13</title>
<g id="a_edge28_Node000019_Node000013"><a xlink:title=" ">
<path fill="none" stroke="#63b8ff" d="M748.22,-297.06C681.77,-292.2 575.02,-279.86 550.5,-250 542.04,-239.7 546.31,-232.66 550.5,-220 556.59,-201.62 590.66,-159.93 610.39,-136.77"/>
<polygon fill="#63b8ff" stroke="#63b8ff" points="613.07,-139.03 616.92,-129.16 607.75,-134.47 613.07,-139.03"/>
</a>
</g>
</g>
<!-- Node19&#45;&gt;Node14 -->
<g id="edge27_Node000019_Node000014" class="edge">
<title>Node19&#45;&gt;Node14</title>
<g id="a_edge27_Node000019_Node000014"><a xlink:title=" ">
<path fill="none" stroke="#63b8ff" d="M748.33,-290.85C690.96,-281.07 597.75,-264.95 517.5,-250 516.25,-249.77 514.99,-249.53 513.71,-249.29"/>
<polygon fill="#63b8ff" stroke="#63b8ff" points="514.31,-245.84 503.83,-247.41 513,-252.72 514.31,-245.84"/>
</a>
</g>
</g>
<!-- Node20 -->
<g id="Node000020" class="node">
<title>Node20</title>
<g id="a_Node000020"><a xlink:title=" ">
<polygon fill="#e0e0e0" stroke="#999999" points="695,-244.5 560,-244.5 560,-225.5 695,-225.5 695,-244.5"/>
<text text-anchor="middle" x="627.5" y="-232.5" font-family="Helvetica,sans-Serif" font-size="10.00">arccore/common/Array.h</text>
</a>
</g>
</g>
<!-- Node19&#45;&gt;Node20 -->
<g id="edge24_Node000019_Node000020" class="edge">
<title>Node19&#45;&gt;Node20</title>
<g id="a_edge24_Node000019_Node000020"><a xlink:title=" ">
<path fill="none" stroke="#63b8ff" d="M764.1,-285.95C733,-274.58 689.67,-258.74 660.21,-247.96"/>
<polygon fill="#63b8ff" stroke="#63b8ff" points="661.38,-244.66 650.79,-244.52 658.98,-251.24 661.38,-244.66"/>
</a>
</g>
</g>
<!-- Node21 -->
<g id="Node000021" class="node">
<title>Node21</title>
<g id="a_Node000021"><a xlink:title=" ">
<polygon fill="#e0e0e0" stroke="#999999" points="892,-250 713,-250 713,-220 892,-220 892,-250"/>
<text text-anchor="start" x="721" y="-238" font-family="Helvetica,sans-Serif" font-size="10.00">arccore/common/AlignedMemory</text>
<text text-anchor="middle" x="802.5" y="-227" font-family="Helvetica,sans-Serif" font-size="10.00">Allocator.h</text>
</a>
</g>
</g>
<!-- Node19&#45;&gt;Node21 -->
<g id="edge25_Node000019_Node000021" class="edge">
<title>Node19&#45;&gt;Node21</title>
<g id="a_edge25_Node000019_Node000021"><a xlink:title=" ">
<path fill="none" stroke="#63b8ff" d="M802.5,-285.8C802.5,-278.34 802.5,-268.99 802.5,-260.41"/>
<polygon fill="#63b8ff" stroke="#63b8ff" points="806,-260.16 802.5,-250.16 799,-260.16 806,-260.16"/>
</a>
</g>
</g>
<!-- Node22 -->
<g id="Node000022" class="node">
<title>Node22</title>
<g id="a_Node000022"><a xlink:title=" ">
<polygon fill="#e0e0e0" stroke="#999999" points="1088.5,-250 910.5,-250 910.5,-220 1088.5,-220 1088.5,-250"/>
<text text-anchor="start" x="918.5" y="-238" font-family="Helvetica,sans-Serif" font-size="10.00">arccore/common/DefaultMemory</text>
<text text-anchor="middle" x="999.5" y="-227" font-family="Helvetica,sans-Serif" font-size="10.00">Allocator.h</text>
</a>
</g>
</g>
<!-- Node19&#45;&gt;Node22 -->
<g id="edge26_Node000019_Node000022" class="edge">
<title>Node19&#45;&gt;Node22</title>
<g id="a_edge26_Node000019_Node000022"><a xlink:title=" ">
<path fill="none" stroke="#63b8ff" d="M845.73,-285.95C875.5,-276.28 915.22,-263.38 946.84,-253.11"/>
<polygon fill="#63b8ff" stroke="#63b8ff" points="947.94,-256.43 956.37,-250.01 945.78,-249.77 947.94,-256.43"/>
</a>
</g>
</g>
<!-- Node23 -->
<g id="Node000023" class="node">
<title>Node23</title>
<g id="a_Node000023"><a xlink:title=" ">
<polygon fill="#e0e0e0" stroke="#999999" points="1190,-244.5 1107,-244.5 1107,-225.5 1190,-225.5 1190,-244.5"/>
<text text-anchor="middle" x="1148.5" y="-232.5" font-family="Helvetica,sans-Serif" font-size="10.00">initializer_list</text>
</a>
</g>
</g>
<!-- Node19&#45;&gt;Node23 -->
<g id="edge29_Node000019_Node000023" class="edge">
<title>Node19&#45;&gt;Node23</title>
<g id="a_edge29_Node000019_Node000023"><a xlink:title=" ">
<path fill="none" stroke="#63b8ff" d="M856.64,-292.48C916.05,-283.85 1014.07,-268.47 1097.5,-250 1101.42,-249.13 1105.49,-248.15 1109.55,-247.12"/>
<polygon fill="#63b8ff" stroke="#63b8ff" points="1110.72,-250.43 1119.5,-244.5 1108.94,-243.66 1110.72,-250.43"/>
</a>
</g>
</g>
<!-- Node24 -->
<g id="Node000024" class="node">
<title>Node24</title>
<g id="a_Node000024"><a xlink:title=" ">
<polygon fill="#e0e0e0" stroke="#999999" points="1258.5,-244.5 1208.5,-244.5 1208.5,-225.5 1258.5,-225.5 1258.5,-244.5"/>
<text text-anchor="middle" x="1233.5" y="-232.5" font-family="Helvetica,sans-Serif" font-size="10.00">cstring</text>
</a>
</g>
</g>
<!-- Node19&#45;&gt;Node24 -->
<g id="edge30_Node000019_Node000024" class="edge">
<title>Node19&#45;&gt;Node24</title>
<g id="a_edge30_Node000019_Node000024"><a xlink:title=" ">
<path fill="none" stroke="#63b8ff" d="M856.66,-297.72C933.89,-293.46 1079.6,-281.63 1199.5,-250 1201.44,-249.49 1203.42,-248.89 1205.4,-248.23"/>
<polygon fill="#63b8ff" stroke="#63b8ff" points="1206.96,-251.39 1215.1,-244.61 1204.51,-244.83 1206.96,-251.39"/>
</a>
</g>
</g>
<!-- Node25&#45;&gt;Node3 -->
<g id="edge33_Node000025_Node000003" class="edge">
<title>Node25&#45;&gt;Node3</title>
<g id="a_edge33_Node000025_Node000003"><a xlink:title=" ">
<path fill="none" stroke="#63b8ff" d="M1435.7,-291.44C1485.85,-279.89 1575.11,-259.34 1629.74,-246.77"/>
<polygon fill="#63b8ff" stroke="#63b8ff" points="1630.56,-250.17 1639.52,-244.51 1628.99,-243.35 1630.56,-250.17"/>
</a>
</g>
</g>
<!-- Node25&#45;&gt;Node24 -->
<g id="edge35_Node000025_Node000024" class="edge">
<title>Node25&#45;&gt;Node24</title>
<g id="a_edge35_Node000025_Node000024"><a xlink:title=" ">
<path fill="none" stroke="#63b8ff" d="M1375.92,-291.42C1349.96,-281.53 1306.09,-264.75 1268.5,-250 1267.13,-249.46 1265.73,-248.91 1264.32,-248.35"/>
<polygon fill="#63b8ff" stroke="#63b8ff" points="1265.54,-245.07 1254.95,-244.63 1262.95,-251.58 1265.54,-245.07"/>
</a>
</g>
</g>
<!-- Node26 -->
<g id="Node000026" class="node">
<title>Node26</title>
<g id="a_Node000026"><a xlink:title=" ">
<polygon fill="#e0e0e0" stroke="#999999" points="1582.5,-244.5 1536.5,-244.5 1536.5,-225.5 1582.5,-225.5 1582.5,-244.5"/>
<text text-anchor="middle" x="1559.5" y="-232.5" font-family="Helvetica,sans-Serif" font-size="10.00">cstdio</text>
</a>
</g>
</g>
<!-- Node25&#45;&gt;Node26 -->
<g id="edge34_Node000025_Node000026" class="edge">
<title>Node25&#45;&gt;Node26</title>
<g id="a_edge34_Node000025_Node000026"><a xlink:title=" ">
<path fill="none" stroke="#63b8ff" d="M1421.45,-291.44C1447.34,-281.71 1490.64,-265.2 1527.5,-250 1528.67,-249.52 1529.86,-249.02 1531.05,-248.52"/>
<polygon fill="#63b8ff" stroke="#63b8ff" points="1532.45,-251.73 1540.27,-244.57 1529.7,-245.29 1532.45,-251.73"/>
</a>
</g>
</g>
<!-- Node27 -->
<g id="Node000027" class="node">
<title>Node27</title>
<g id="a_Node000027"><a xlink:title=" ">
<polygon fill="#e0e0e0" stroke="#999999" points="1326,-244.5 1277,-244.5 1277,-225.5 1326,-225.5 1326,-244.5"/>
<text text-anchor="middle" x="1301.5" y="-232.5" font-family="Helvetica,sans-Serif" font-size="10.00">cstdlib</text>
</a>
</g>
</g>
<!-- Node25&#45;&gt;Node27 -->
<g id="edge36_Node000025_Node000027" class="edge">
<title>Node25&#45;&gt;Node27</title>
<g id="a_edge36_Node000025_Node000027"><a xlink:title=" ">
<path fill="none" stroke="#63b8ff" d="M1385.42,-291.37C1369.44,-280.82 1342.17,-262.84 1323.07,-250.23"/>
<polygon fill="#63b8ff" stroke="#63b8ff" points="1324.96,-247.28 1314.68,-244.7 1321.1,-253.13 1324.96,-247.28"/>
</a>
</g>
</g>
<!-- Node28 -->
<g id="Node000028" class="node">
<title>Node28</title>
<g id="a_Node000028"><a xlink:title=" ">
<polygon fill="#e0e0e0" stroke="#999999" points="1388.5,-244.5 1344.5,-244.5 1344.5,-225.5 1388.5,-225.5 1388.5,-244.5"/>
<text text-anchor="middle" x="1366.5" y="-232.5" font-family="Helvetica,sans-Serif" font-size="10.00">ctime</text>
</a>
</g>
</g>
<!-- Node25&#45;&gt;Node28 -->
<g id="edge37_Node000025_Node000028" class="edge">
<title>Node25&#45;&gt;Node28</title>
<g id="a_edge37_Node000025_Node000028"><a xlink:title=" ">
<path fill="none" stroke="#63b8ff" d="M1394.18,-291.37C1389.44,-281.88 1381.68,-266.36 1375.58,-254.16"/>
<polygon fill="#63b8ff" stroke="#63b8ff" points="1378.56,-252.28 1370.95,-244.91 1372.29,-255.41 1378.56,-252.28"/>
</a>
</g>
</g>
<!-- Node29 -->
<g id="Node000029" class="node">
<title>Node29</title>
<g id="a_Node000029"><a xlink:title=" ">
<polygon fill="#e0e0e0" stroke="#999999" points="1454,-244.5 1407,-244.5 1407,-225.5 1454,-225.5 1454,-244.5"/>
<text text-anchor="middle" x="1430.5" y="-232.5" font-family="Helvetica,sans-Serif" font-size="10.00">cmath</text>
</a>
</g>
</g>
<!-- Node25&#45;&gt;Node29 -->
<g id="edge38_Node000025_Node000029" class="edge">
<title>Node25&#45;&gt;Node29</title>
<g id="a_edge38_Node000025_Node000029"><a xlink:title=" ">
<path fill="none" stroke="#63b8ff" d="M1402.82,-291.37C1407.56,-281.88 1415.32,-266.36 1421.42,-254.16"/>
<polygon fill="#63b8ff" stroke="#63b8ff" points="1424.71,-255.41 1426.05,-244.91 1418.44,-252.28 1424.71,-255.41"/>
</a>
</g>
</g>
<!-- Node30 -->
<g id="Node000030" class="node">
<title>Node30</title>
<g id="a_Node000030"><a xlink:title=" ">
<polygon fill="#e0e0e0" stroke="#999999" points="1518.5,-244.5 1472.5,-244.5 1472.5,-225.5 1518.5,-225.5 1518.5,-244.5"/>
<text text-anchor="middle" x="1495.5" y="-232.5" font-family="Helvetica,sans-Serif" font-size="10.00">locale</text>
</a>
</g>
</g>
<!-- Node25&#45;&gt;Node30 -->
<g id="edge39_Node000025_Node000030" class="edge">
<title>Node25&#45;&gt;Node30</title>
<g id="a_edge39_Node000025_Node000030"><a xlink:title=" ">
<path fill="none" stroke="#63b8ff" d="M1411.58,-291.37C1427.56,-280.82 1454.83,-262.84 1473.93,-250.23"/>
<polygon fill="#63b8ff" stroke="#63b8ff" points="1475.9,-253.13 1482.32,-244.7 1472.04,-247.28 1475.9,-253.13"/>
</a>
</g>
</g>
<!-- Node31&#45;&gt;Node3 -->
<g id="edge41_Node000031_Node000003" class="edge">
<title>Node31&#45;&gt;Node3</title>
<g id="a_edge41_Node000031_Node000003"><a xlink:title=" ">
<path fill="none" stroke="#63b8ff" d="M1814.92,-291.37C1787.29,-280.32 1739.21,-261.08 1707.62,-248.45"/>
<polygon fill="#63b8ff" stroke="#63b8ff" points="1708.58,-245.06 1697.99,-244.6 1705.98,-251.56 1708.58,-245.06"/>
</a>
</g>
</g>
<!-- Node32 -->
<g id="Node000032" class="node">
<title>Node32</title>
<g id="a_Node000032"><a xlink:title=" ">
<polygon fill="#e0e0e0" stroke="#999999" points="1904.5,-244.5 1844.5,-244.5 1844.5,-225.5 1904.5,-225.5 1904.5,-244.5"/>
<text text-anchor="middle" x="1874.5" y="-232.5" font-family="Helvetica,sans-Serif" font-size="10.00">iostream</text>
</a>
</g>
</g>
<!-- Node31&#45;&gt;Node32 -->
<g id="edge42_Node000031_Node000032" class="edge">
<title>Node31&#45;&gt;Node32</title>
<g id="a_edge42_Node000031_Node000032"><a xlink:title=" ">
<path fill="none" stroke="#63b8ff" d="M1841.62,-291.37C1847.32,-281.78 1856.66,-266.05 1863.93,-253.8"/>
<polygon fill="#63b8ff" stroke="#63b8ff" points="1867.12,-255.29 1869.21,-244.91 1861.1,-251.72 1867.12,-255.29"/>
</a>
</g>
</g>
<!-- Node33 -->
<g id="Node000033" class="node">
<title>Node33</title>
<g id="a_Node000033"><a xlink:title=" ">
<polygon fill="#e0e0e0" stroke="#999999" points="1978,-244.5 1923,-244.5 1923,-225.5 1978,-225.5 1978,-244.5"/>
<text text-anchor="middle" x="1950.5" y="-232.5" font-family="Helvetica,sans-Serif" font-size="10.00">fstream</text>
</a>
</g>
</g>
<!-- Node31&#45;&gt;Node33 -->
<g id="edge43_Node000031_Node000033" class="edge">
<title>Node31&#45;&gt;Node33</title>
<g id="a_edge43_Node000031_Node000033"><a xlink:title=" ">
<path fill="none" stroke="#63b8ff" d="M1851.87,-291.37C1870.91,-280.68 1903.57,-262.35 1926.06,-249.72"/>
<polygon fill="#63b8ff" stroke="#63b8ff" points="1928,-252.65 1935,-244.7 1924.57,-246.54 1928,-252.65"/>
</a>
</g>
</g>
<!-- Node34 -->
<g id="Node000034" class="node">
<title>Node34</title>
<g id="a_Node000034"><a xlink:title=" ">
<polygon fill="#e0e0e0" stroke="#999999" points="2052.5,-244.5 1996.5,-244.5 1996.5,-225.5 2052.5,-225.5 2052.5,-244.5"/>
<text text-anchor="middle" x="2024.5" y="-232.5" font-family="Helvetica,sans-Serif" font-size="10.00">sstream</text>
</a>
</g>
</g>
<!-- Node31&#45;&gt;Node34 -->
<g id="edge44_Node000031_Node000034" class="edge">
<title>Node31&#45;&gt;Node34</title>
<g id="a_edge44_Node000031_Node000034"><a xlink:title=" ">
<path fill="none" stroke="#63b8ff" d="M1863.35,-291.49C1893.63,-281.8 1944.29,-265.32 1987.5,-250 1989.15,-249.42 1990.83,-248.81 1992.53,-248.19"/>
<polygon fill="#63b8ff" stroke="#63b8ff" points="1994.09,-251.35 2002.25,-244.59 1991.66,-244.78 1994.09,-251.35"/>
</a>
</g>
</g>
<!-- Node35 -->
<g id="Node000035" class="node">
<title>Node35</title>
<g id="a_Node000035"><a xlink:title=" ">
<polygon fill="#e0e0e0" stroke="#999999" points="1826.5,-244.5 1770.5,-244.5 1770.5,-225.5 1826.5,-225.5 1826.5,-244.5"/>
<text text-anchor="middle" x="1798.5" y="-232.5" font-family="Helvetica,sans-Serif" font-size="10.00">iomanip</text>
</a>
</g>
</g>
<!-- Node31&#45;&gt;Node35 -->
<g id="edge45_Node000031_Node000035" class="edge">
<title>Node31&#45;&gt;Node35</title>
<g id="a_edge45_Node000031_Node000035"><a xlink:title=" ">
<path fill="none" stroke="#63b8ff" d="M1831.38,-291.37C1825.68,-281.78 1816.34,-266.05 1809.07,-253.8"/>
<polygon fill="#63b8ff" stroke="#63b8ff" points="1811.9,-251.72 1803.79,-244.91 1805.88,-255.29 1811.9,-251.72"/>
</a>
</g>
</g>
</g>
</svg>
