<?xml version="1.0" encoding="UTF-8" standalone="no"?>
<!DOCTYPE svg PUBLIC "-//W3C//DTD SVG 1.1//EN"
 "http://www.w3.org/Graphics/SVG/1.1/DTD/svg11.dtd">
<!-- Generated by graphviz version 2.43.0 (0)
 -->
<!-- Title: Arcane::geometric::GeomShape::initFromHexaedron8 Pages: 1 -->
<svg width="406pt" height="98pt"
 viewBox="0.00 0.00 406.00 97.50" xmlns="http://www.w3.org/2000/svg" xmlns:xlink="http://www.w3.org/1999/xlink">
<g id="graph0" class="graph" transform="scale(1 1) rotate(0) translate(4 93.5)">
<title>Arcane::geometric::GeomShape::initFromHexaedron8</title>
<!-- Node1 -->
<g id="Node000001" class="node">
<title>Node1</title>
<g id="a_Node000001"><a xlink:title="Initialise la forme avec un hexaèdre hexa et retourne une vue dessus.">
<polygon fill="#999999" stroke="#666666" points="182,-57 0,-57 0,-27 182,-27 182,-57"/>
<text text-anchor="start" x="8" y="-45" font-family="Helvetica,sans-Serif" font-size="10.00">Arcane::geometric::</text>
<text text-anchor="middle" x="91" y="-34" font-family="Helvetica,sans-Serif" font-size="10.00">GeomShape::initFromHexaedron8</text>
</a>
</g>
</g>
<!-- Node2 -->
<g id="Node000002" class="node">
<title>Node2</title>
<g id="a_Node000002"><a xlink:href="../../d7/d5e/classArcane_1_1geometric_1_1GeomShapeStdBuilder.html#ac3afcbcab201e385c5a5cc8f54b3c048" target="_top" xlink:title="En 3D, calcule les psoitions à partir de l&#39;hexaèdre hexa.">
<polygon fill="white" stroke="#666666" points="398,-89.5 218,-89.5 218,-48.5 398,-48.5 398,-89.5"/>
<text text-anchor="start" x="226" y="-77.5" font-family="Helvetica,sans-Serif" font-size="10.00">Arcane::geometric::</text>
<text text-anchor="start" x="226" y="-66.5" font-family="Helvetica,sans-Serif" font-size="10.00">GeomShapeStdBuilder</text>
<text text-anchor="middle" x="308" y="-55.5" font-family="Helvetica,sans-Serif" font-size="10.00">::computeNodePositionFromHexa</text>
</a>
</g>
</g>
<!-- Node1&#45;&gt;Node2 -->
<g id="edge1_Node000001_Node000002" class="edge">
<title>Node1&#45;&gt;Node2</title>
<g id="a_edge1_Node000001_Node000002"><a xlink:title=" ">
<path fill="none" stroke="#63b8ff" d="M182.24,-53.33C190.67,-54.39 199.24,-55.47 207.74,-56.53"/>
<polygon fill="#63b8ff" stroke="#63b8ff" points="207.32,-60.01 217.68,-57.78 208.19,-53.06 207.32,-60.01"/>
</a>
</g>
</g>
<!-- Node3 -->
<g id="Node000003" class="node">
<title>Node3</title>
<g id="a_Node000003"><a xlink:href="../../de/d5c/classArcane_1_1geometric_1_1GeomShape.html#a7c045ad52e51b5818e312b8c7a99bc6d" target="_top" xlink:title="Vue modifiable sur cet instance.">
<polygon fill="white" stroke="#666666" points="385.5,-30 230.5,-30 230.5,0 385.5,0 385.5,-30"/>
<text text-anchor="start" x="238.5" y="-18" font-family="Helvetica,sans-Serif" font-size="10.00">Arcane::geometric::</text>
<text text-anchor="middle" x="308" y="-7" font-family="Helvetica,sans-Serif" font-size="10.00">GeomShape::toMutableView</text>
</a>
</g>
</g>
<!-- Node1&#45;&gt;Node3 -->
<g id="edge2_Node000001_Node000003" class="edge">
<title>Node1&#45;&gt;Node3</title>
<g id="a_edge2_Node000001_Node000003"><a xlink:title=" ">
<path fill="none" stroke="#63b8ff" d="M182.24,-30.67C194.85,-29.08 207.78,-27.46 220.31,-25.89"/>
<polygon fill="#63b8ff" stroke="#63b8ff" points="220.78,-29.35 230.27,-24.64 219.91,-22.41 220.78,-29.35"/>
</a>
</g>
</g>
</g>
</svg>
