<?xml version="1.0" encoding="UTF-8" standalone="no"?>
<!DOCTYPE svg PUBLIC "-//W3C//DTD SVG 1.1//EN"
 "http://www.w3.org/Graphics/SVG/1.1/DTD/svg11.dtd">
<!-- Generated by graphviz version 2.43.0 (0)
 -->
<!-- Title: Arcane::mesh::CommonItemGroupFilterer::applyFiltering Pages: 1 -->
<svg width="867pt" height="640pt"
 viewBox="0.00 0.00 867.00 639.50" xmlns="http://www.w3.org/2000/svg" xmlns:xlink="http://www.w3.org/1999/xlink">
<g id="graph0" class="graph" transform="scale(1 1) rotate(0) translate(4 635.5)">
<title>Arcane::mesh::CommonItemGroupFilterer::applyFiltering</title>
<!-- Node1 -->
<g id="Node000001" class="node">
<title>Node1</title>
<g id="a_Node000001"><a xlink:title="Filtre les groupes communs.">
<polygon fill="#999999" stroke="#666666" points="156,-319 0,-319 0,-289 156,-289 156,-319"/>
<text text-anchor="start" x="8" y="-307" font-family="Helvetica,sans-Serif" font-size="10.00">Arcane::mesh::CommonItem</text>
<text text-anchor="middle" x="78" y="-296" font-family="Helvetica,sans-Serif" font-size="10.00">GroupFilterer::applyFiltering</text>
</a>
</g>
</g>
<!-- Node2 -->
<g id="Node000002" class="node">
<title>Node2</title>
<g id="a_Node000002"><a xlink:href="../../d1/dfb/classArcane_1_1Array.html#afb30a771d3fd8022c7220afe7b78e60b" target="_top" xlink:title="Ajoute l&#39;élément val à la fin du tableau.">
<polygon fill="white" stroke="#666666" points="310.5,-631.5 204.5,-631.5 204.5,-612.5 310.5,-612.5 310.5,-631.5"/>
<text text-anchor="middle" x="257.5" y="-619.5" font-family="Helvetica,sans-Serif" font-size="10.00">Arcane::Array::add</text>
</a>
</g>
</g>
<!-- Node1&#45;&gt;Node2 -->
<g id="edge1_Node000001_Node000002" class="edge">
<title>Node1&#45;&gt;Node2</title>
<g id="a_edge1_Node000001_Node000002"><a xlink:title=" ">
<path fill="none" stroke="#63b8ff" d="M80.13,-319.32C84.57,-368.28 105.15,-522.42 192,-603 193.7,-604.58 195.53,-606.03 197.46,-607.36"/>
<polygon fill="#63b8ff" stroke="#63b8ff" points="195.99,-610.55 206.41,-612.45 199.45,-604.47 195.99,-610.55"/>
</a>
</g>
</g>
<!-- Node3 -->
<g id="Node000003" class="node">
<title>Node3</title>
<g id="a_Node000003"><a xlink:href="../../dc/d5a/classArcane_1_1IParallelMng.html#a865add98ac0a6167b13231267aed8e2d" target="_top" xlink:title="Effectue un regroupement sur tous les processeurs. Il s&#39;agit d&#39;une opération collective....">
<polygon fill="white" stroke="#666666" points="315.5,-576 199.5,-576 199.5,-546 315.5,-546 315.5,-576"/>
<text text-anchor="start" x="207.5" y="-564" font-family="Helvetica,sans-Serif" font-size="10.00">Arcane::IParallelMng</text>
<text text-anchor="middle" x="257.5" y="-553" font-family="Helvetica,sans-Serif" font-size="10.00">::allGather</text>
</a>
</g>
</g>
<!-- Node1&#45;&gt;Node3 -->
<g id="edge2_Node000001_Node000003" class="edge">
<title>Node1&#45;&gt;Node3</title>
<g id="a_edge2_Node000001_Node000003"><a xlink:title=" ">
<path fill="none" stroke="#63b8ff" d="M82.2,-319.16C91.6,-360.15 122.97,-474.25 192,-537 193.31,-538.19 194.68,-539.32 196.1,-540.39"/>
<polygon fill="#63b8ff" stroke="#63b8ff" points="194.45,-543.49 204.74,-545.98 198.25,-537.61 194.45,-543.49"/>
</a>
</g>
</g>
<!-- Node4 -->
<g id="Node000004" class="node">
<title>Node4</title>
<g id="a_Node000004"><a xlink:href="../../d0/dde/classArcane_1_1BasicSerializer.html#a78e5e437a8925c25a04de50fb9d7373b" target="_top" xlink:title="Alloue la mémoire du sérialiseur.">
<polygon fill="white" stroke="#666666" points="321.5,-528 193.5,-528 193.5,-498 321.5,-498 321.5,-528"/>
<text text-anchor="start" x="201.5" y="-516" font-family="Helvetica,sans-Serif" font-size="10.00">Arcane::BasicSerializer</text>
<text text-anchor="middle" x="257.5" y="-505" font-family="Helvetica,sans-Serif" font-size="10.00">::allocateBuffer</text>
</a>
</g>
</g>
<!-- Node1&#45;&gt;Node4 -->
<g id="edge4_Node000001_Node000004" class="edge">
<title>Node1&#45;&gt;Node4</title>
<g id="a_edge4_Node000001_Node000004"><a xlink:title=" ">
<path fill="none" stroke="#63b8ff" d="M84.23,-319.03C97.08,-353.85 133.48,-440.77 192,-489 193.56,-490.28 195.19,-491.5 196.88,-492.66"/>
<polygon fill="#63b8ff" stroke="#63b8ff" points="195.35,-495.82 205.73,-497.93 198.93,-489.81 195.35,-495.82"/>
</a>
</g>
</g>
<!-- Node5 -->
<g id="Node000005" class="node">
<title>Node5</title>
<g id="a_Node000005"><a xlink:href="../../dc/d5a/classArcane_1_1IParallelMng.html#a7c5831fb289f8aa3fac3b05cdbb3d194" target="_top" xlink:title="Nombre d&#39;instance dans le communicateur.">
<polygon fill="white" stroke="#666666" points="315.5,-480 199.5,-480 199.5,-450 315.5,-450 315.5,-480"/>
<text text-anchor="start" x="207.5" y="-468" font-family="Helvetica,sans-Serif" font-size="10.00">Arcane::IParallelMng</text>
<text text-anchor="middle" x="257.5" y="-457" font-family="Helvetica,sans-Serif" font-size="10.00">::commSize</text>
</a>
</g>
</g>
<!-- Node1&#45;&gt;Node5 -->
<g id="edge5_Node000001_Node000005" class="edge">
<title>Node1&#45;&gt;Node5</title>
<g id="a_edge5_Node000001_Node000005"><a xlink:title=" ">
<path fill="none" stroke="#63b8ff" d="M87.88,-319.41C104.74,-347.4 144.03,-406.85 192,-441 194.09,-442.49 196.28,-443.89 198.54,-445.22"/>
<polygon fill="#63b8ff" stroke="#63b8ff" points="197.06,-448.4 207.54,-449.96 200.32,-442.2 197.06,-448.4"/>
</a>
</g>
</g>
<!-- Node6 -->
<g id="Node000006" class="node">
<title>Node6</title>
<g id="a_Node000006"><a xlink:href="../../d5/d72/classArcane_1_1AbstractArray.html#a711e2fc7a92105d55942543ecadc5fc2" target="_top" xlink:title="Capacité (nombre d&#39;éléments alloués) du vecteur.">
<polygon fill="white" stroke="#666666" points="319,-432 196,-432 196,-402 319,-402 319,-432"/>
<text text-anchor="start" x="204" y="-420" font-family="Helvetica,sans-Serif" font-size="10.00">Arcane::AbstractArray</text>
<text text-anchor="middle" x="257.5" y="-409" font-family="Helvetica,sans-Serif" font-size="10.00">::empty</text>
</a>
</g>
</g>
<!-- Node1&#45;&gt;Node6 -->
<g id="edge6_Node000001_Node000006" class="edge">
<title>Node1&#45;&gt;Node6</title>
<g id="a_edge6_Node000001_Node000006"><a xlink:title=" ">
<path fill="none" stroke="#63b8ff" d="M95.05,-319.33C115.97,-338.64 154.33,-371.85 192,-393 195.01,-394.69 198.16,-396.3 201.38,-397.84"/>
<polygon fill="#63b8ff" stroke="#63b8ff" points="200.03,-401.07 210.59,-401.94 202.88,-394.67 200.03,-401.07"/>
</a>
</g>
</g>
<!-- Node7 -->
<g id="Node000007" class="node">
<title>Node7</title>
<g id="a_Node000007"><a xlink:href="../../d9/d27/classArcane_1_1ItemGroup.html#a52bfe01b80b3bf6a2ff5bed44545aa3a" target="_top" xlink:title="Nom du groupe.">
<polygon fill="white" stroke="#666666" points="314.5,-384 200.5,-384 200.5,-354 314.5,-354 314.5,-384"/>
<text text-anchor="start" x="208.5" y="-372" font-family="Helvetica,sans-Serif" font-size="10.00">Arcane::ItemGroup::</text>
<text text-anchor="middle" x="257.5" y="-361" font-family="Helvetica,sans-Serif" font-size="10.00">fullName</text>
</a>
</g>
</g>
<!-- Node1&#45;&gt;Node7 -->
<g id="edge7_Node000001_Node000007" class="edge">
<title>Node1&#45;&gt;Node7</title>
<g id="a_edge7_Node000001_Node000007"><a xlink:title=" ">
<path fill="none" stroke="#63b8ff" d="M120.17,-319.08C145.62,-328.39 178.47,-340.43 205.56,-350.34"/>
<polygon fill="#63b8ff" stroke="#63b8ff" points="204.65,-353.74 215.25,-353.89 207.06,-347.17 204.65,-353.74"/>
</a>
</g>
</g>
<!-- Node8 -->
<g id="Node000008" class="node">
<title>Node8</title>
<g id="a_Node000008"><a xlink:href="../../d0/dde/classArcane_1_1BasicSerializer.html#ac4aeb9fb6d49f269ffae88ac64c7e4cb" target="_top" xlink:title="Récupère le tableau values.">
<polygon fill="white" stroke="#666666" points="695,-292.5 545,-292.5 545,-273.5 695,-273.5 695,-292.5"/>
<text text-anchor="middle" x="620" y="-280.5" font-family="Helvetica,sans-Serif" font-size="10.00">Arcane::BasicSerializer::get</text>
</a>
</g>
</g>
<!-- Node1&#45;&gt;Node8 -->
<g id="edge8_Node000001_Node000008" class="edge">
<title>Node1&#45;&gt;Node8</title>
<g id="a_edge8_Node000001_Node000008"><a xlink:title=" ">
<path fill="none" stroke="#63b8ff" d="M156.17,-309.83C242.43,-315.11 386.16,-320.25 509,-307 530.68,-304.66 554.35,-299.8 574.16,-295.07"/>
<polygon fill="#63b8ff" stroke="#63b8ff" points="575.27,-298.4 584.14,-292.61 573.6,-291.6 575.27,-298.4"/>
</a>
</g>
</g>
<!-- Node10 -->
<g id="Node000010" class="node">
<title>Node10</title>
<g id="a_Node000010"><a xlink:href="../../d0/dde/classArcane_1_1BasicSerializer.html#ab82b1537ec9934e71969dbe594a711a8" target="_top" xlink:title="Récupère une taille.">
<polygon fill="white" stroke="#666666" points="321.5,-298 193.5,-298 193.5,-268 321.5,-268 321.5,-298"/>
<text text-anchor="start" x="201.5" y="-286" font-family="Helvetica,sans-Serif" font-size="10.00">Arcane::BasicSerializer</text>
<text text-anchor="middle" x="257.5" y="-275" font-family="Helvetica,sans-Serif" font-size="10.00">::getInteger</text>
</a>
</g>
</g>
<!-- Node1&#45;&gt;Node10 -->
<g id="edge10_Node000001_Node000010" class="edge">
<title>Node1&#45;&gt;Node10</title>
<g id="a_edge10_Node000001_Node000010"><a xlink:title=" ">
<path fill="none" stroke="#63b8ff" d="M156.08,-294.88C165.12,-293.81 174.33,-292.72 183.31,-291.66"/>
<polygon fill="#63b8ff" stroke="#63b8ff" points="183.82,-295.12 193.34,-290.47 183,-288.17 183.82,-295.12"/>
</a>
</g>
</g>
<!-- Node13 -->
<g id="Node000013" class="node">
<title>Node13</title>
<g id="a_Node000013"><a xlink:href="../../d3/d00/classArcane_1_1ITraceMng.html#ae543f61206161e5cdb3a81c9f6ebaa66" target="_top" xlink:title="Flot pour un message d&#39;information.">
<polygon fill="white" stroke="#666666" points="323,-249.5 192,-249.5 192,-230.5 323,-230.5 323,-249.5"/>
<text text-anchor="middle" x="257.5" y="-237.5" font-family="Helvetica,sans-Serif" font-size="10.00">Arcane::ITraceMng::info</text>
</a>
</g>
</g>
<!-- Node1&#45;&gt;Node13 -->
<g id="edge15_Node000001_Node000013" class="edge">
<title>Node1&#45;&gt;Node13</title>
<g id="a_edge15_Node000001_Node000013"><a xlink:title=" ">
<path fill="none" stroke="#63b8ff" d="M114.31,-288.96C136.44,-279.78 165.66,-268.1 192,-259 198.45,-256.77 205.32,-254.57 212.07,-252.5"/>
<polygon fill="#63b8ff" stroke="#63b8ff" points="213.26,-255.8 221.83,-249.57 211.25,-249.09 213.26,-255.8"/>
</a>
</g>
</g>
<!-- Node14 -->
<g id="Node000014" class="node">
<title>Node14</title>
<g id="a_Node000014"><a xlink:href="../../d0/dde/classArcane_1_1BasicSerializer.html#a64efa02a9865ae622e32880e2e08a532" target="_top" xlink:title="Ajoute le tableau values.">
<polygon fill="white" stroke="#666666" points="509,-185.5 359,-185.5 359,-166.5 509,-166.5 509,-185.5"/>
<text text-anchor="middle" x="434" y="-173.5" font-family="Helvetica,sans-Serif" font-size="10.00">Arcane::BasicSerializer::put</text>
</a>
</g>
</g>
<!-- Node1&#45;&gt;Node14 -->
<g id="edge16_Node000001_Node000014" class="edge">
<title>Node1&#45;&gt;Node14</title>
<g id="a_edge16_Node000001_Node000014"><a xlink:title=" ">
<path fill="none" stroke="#63b8ff" d="M94.8,-288.98C115.44,-270.24 153.51,-238.64 192,-222 241.64,-200.53 301.32,-189.04 348.88,-182.92"/>
<polygon fill="#63b8ff" stroke="#63b8ff" points="349.34,-186.39 358.83,-181.69 348.48,-179.44 349.34,-186.39"/>
</a>
</g>
</g>
<!-- Node15 -->
<g id="Node000015" class="node">
<title>Node15</title>
<g id="a_Node000015"><a xlink:href="../../d0/dde/classArcane_1_1BasicSerializer.html#ace601eddb5b3777cde4fae0590277563" target="_top" xlink:title="Ajoute l&#39;entier value.">
<polygon fill="white" stroke="#666666" points="321.5,-174 193.5,-174 193.5,-144 321.5,-144 321.5,-174"/>
<text text-anchor="start" x="201.5" y="-162" font-family="Helvetica,sans-Serif" font-size="10.00">Arcane::BasicSerializer</text>
<text text-anchor="middle" x="257.5" y="-151" font-family="Helvetica,sans-Serif" font-size="10.00">::putInteger</text>
</a>
</g>
</g>
<!-- Node1&#45;&gt;Node15 -->
<g id="edge17_Node000001_Node000015" class="edge">
<title>Node1&#45;&gt;Node15</title>
<g id="a_edge17_Node000001_Node000015"><a xlink:title=" ">
<path fill="none" stroke="#63b8ff" d="M90.73,-288.67C109.78,-264.61 149.61,-217.66 192,-188 196.83,-184.62 202.12,-181.48 207.53,-178.62"/>
<polygon fill="#63b8ff" stroke="#63b8ff" points="209.28,-181.66 216.68,-174.07 206.17,-175.39 209.28,-181.66"/>
</a>
</g>
</g>
<!-- Node16 -->
<g id="Node000016" class="node">
<title>Node16</title>
<g id="a_Node000016"><a xlink:href="../../d0/dde/classArcane_1_1BasicSerializer.html#a721e216fa57001d6fbde638d6724b32b" target="_top" xlink:title="Réserve de la mémoire pour n objets de type dt.">
<polygon fill="white" stroke="#666666" points="321.5,-126 193.5,-126 193.5,-96 321.5,-96 321.5,-126"/>
<text text-anchor="start" x="201.5" y="-114" font-family="Helvetica,sans-Serif" font-size="10.00">Arcane::BasicSerializer</text>
<text text-anchor="middle" x="257.5" y="-103" font-family="Helvetica,sans-Serif" font-size="10.00">::reserve</text>
</a>
</g>
</g>
<!-- Node1&#45;&gt;Node16 -->
<g id="edge19_Node000001_Node000016" class="edge">
<title>Node1&#45;&gt;Node16</title>
<g id="a_edge19_Node000001_Node000016"><a xlink:title=" ">
<path fill="none" stroke="#63b8ff" d="M85.33,-288.58C99.56,-255.73 137.17,-178.33 192,-135 193.75,-133.62 195.59,-132.31 197.5,-131.07"/>
<polygon fill="#63b8ff" stroke="#63b8ff" points="199.27,-134.08 206.2,-126.07 195.79,-128.01 199.27,-134.08"/>
</a>
</g>
</g>
<!-- Node17 -->
<g id="Node000017" class="node">
<title>Node17</title>
<g id="a_Node000017"><a xlink:href="../../d0/dde/classArcane_1_1BasicSerializer.html#ac8bd62fd0fa5c4d07e65f7f977fb219e" target="_top" xlink:title="Positionne le fonctionnement actuel.">
<polygon fill="white" stroke="#666666" points="321.5,-78 193.5,-78 193.5,-48 321.5,-48 321.5,-78"/>
<text text-anchor="start" x="201.5" y="-66" font-family="Helvetica,sans-Serif" font-size="10.00">Arcane::BasicSerializer</text>
<text text-anchor="middle" x="257.5" y="-55" font-family="Helvetica,sans-Serif" font-size="10.00">::setMode</text>
</a>
</g>
</g>
<!-- Node1&#45;&gt;Node17 -->
<g id="edge20_Node000001_Node000017" class="edge">
<title>Node1&#45;&gt;Node17</title>
<g id="a_edge20_Node000001_Node000017"><a xlink:title=" ">
<path fill="none" stroke="#63b8ff" d="M82.82,-288.74C93.37,-249.63 126.58,-144.78 192,-87 193.32,-85.83 194.71,-84.72 196.15,-83.66"/>
<polygon fill="#63b8ff" stroke="#63b8ff" points="198.28,-86.45 204.85,-78.13 194.53,-80.54 198.28,-86.45"/>
</a>
</g>
</g>
<!-- Node18 -->
<g id="Node000018" class="node">
<title>Node18</title>
<g id="a_Node000018"><a xlink:href="../../d5/d72/classArcane_1_1AbstractArray.html#a462e7632cf9664d773016bc972bed483" target="_top" xlink:title="Nombre d&#39;éléments du vecteur.">
<polygon fill="white" stroke="#666666" points="319,-30 196,-30 196,0 319,0 319,-30"/>
<text text-anchor="start" x="204" y="-18" font-family="Helvetica,sans-Serif" font-size="10.00">Arcane::AbstractArray</text>
<text text-anchor="middle" x="257.5" y="-7" font-family="Helvetica,sans-Serif" font-size="10.00">::size</text>
</a>
</g>
</g>
<!-- Node1&#45;&gt;Node18 -->
<g id="edge21_Node000001_Node000018" class="edge">
<title>Node1&#45;&gt;Node18</title>
<g id="a_edge21_Node000001_Node000018"><a xlink:title=" ">
<path fill="none" stroke="#63b8ff" d="M81.22,-288.75C88.52,-244.01 115.83,-111.68 192,-39 193.25,-37.81 194.56,-36.68 195.93,-35.6"/>
<polygon fill="#63b8ff" stroke="#63b8ff" points="197.9,-38.49 204.25,-30.01 194,-32.68 197.9,-38.49"/>
</a>
</g>
</g>
<!-- Node3&#45;&gt;Node3 -->
<g id="edge3_Node000003_Node000003" class="edge">
<title>Node3&#45;&gt;Node3</title>
<g id="a_edge3_Node000003_Node000003"><a xlink:title=" ">
<path fill="none" stroke="#63b8ff" d="M226.56,-576.28C219.69,-585.41 230,-594 257.5,-594 273.83,-594 284.1,-590.97 288.31,-586.6"/>
<polygon fill="#63b8ff" stroke="#63b8ff" points="291.81,-586.32 288.44,-576.28 284.81,-586.23 291.81,-586.32"/>
</a>
</g>
</g>
<!-- Node9 -->
<g id="Node000009" class="node">
<title>Node9</title>
<g id="a_Node000009"><a xlink:href="../../d0/dde/classArcane_1_1BasicSerializer.html#a45fc40b19c738a15c9a9f40e005704ff" target="_top" xlink:title="Récupère le tableau values.">
<polygon fill="white" stroke="#666666" points="859,-298 731,-298 731,-268 859,-268 859,-298"/>
<text text-anchor="start" x="739" y="-286" font-family="Helvetica,sans-Serif" font-size="10.00">Arcane::BasicSerializer</text>
<text text-anchor="middle" x="795" y="-275" font-family="Helvetica,sans-Serif" font-size="10.00">::getSpan</text>
</a>
</g>
</g>
<!-- Node8&#45;&gt;Node9 -->
<g id="edge9_Node000008_Node000009" class="edge">
<title>Node8&#45;&gt;Node9</title>
<g id="a_edge9_Node000008_Node000009"><a xlink:title=" ">
<path fill="none" stroke="#63b8ff" d="M695.12,-283C703.6,-283 712.23,-283 720.7,-283"/>
<polygon fill="#63b8ff" stroke="#63b8ff" points="720.92,-286.5 730.92,-283 720.92,-279.5 720.92,-286.5"/>
</a>
</g>
</g>
<!-- Node11 -->
<g id="Node000011" class="node">
<title>Node11</title>
<g id="a_Node000011"><a xlink:href="../../d0/dde/classArcane_1_1BasicSerializer.html#ac7d614dc530d64395cf5fc8c46fd1b29" target="_top" xlink:title="Récupère un entier naturel.">
<polygon fill="white" stroke="#666666" points="498,-298 370,-298 370,-268 498,-268 498,-298"/>
<text text-anchor="start" x="378" y="-286" font-family="Helvetica,sans-Serif" font-size="10.00">Arcane::BasicSerializer</text>
<text text-anchor="middle" x="434" y="-275" font-family="Helvetica,sans-Serif" font-size="10.00">::getInt32</text>
</a>
</g>
</g>
<!-- Node10&#45;&gt;Node11 -->
<g id="edge11_Node000010_Node000011" class="edge">
<title>Node10&#45;&gt;Node11</title>
<g id="a_edge11_Node000010_Node000011"><a xlink:title=" ">
<path fill="none" stroke="#63b8ff" d="M321.99,-283C334.17,-283 347.02,-283 359.49,-283"/>
<polygon fill="#63b8ff" stroke="#63b8ff" points="359.85,-286.5 369.85,-283 359.85,-279.5 359.85,-286.5"/>
</a>
</g>
</g>
<!-- Node12 -->
<g id="Node000012" class="node">
<title>Node12</title>
<g id="a_Node000012"><a xlink:href="../../d0/dde/classArcane_1_1BasicSerializer.html#a9cbe0cd71ca0aac89da2d44bd19fcb55" target="_top" xlink:title="Récupère une taille.">
<polygon fill="white" stroke="#666666" points="498,-250 370,-250 370,-220 498,-220 498,-250"/>
<text text-anchor="start" x="378" y="-238" font-family="Helvetica,sans-Serif" font-size="10.00">Arcane::BasicSerializer</text>
<text text-anchor="middle" x="434" y="-227" font-family="Helvetica,sans-Serif" font-size="10.00">::getInt64</text>
</a>
</g>
</g>
<!-- Node10&#45;&gt;Node12 -->
<g id="edge13_Node000010_Node000012" class="edge">
<title>Node10&#45;&gt;Node12</title>
<g id="a_edge13_Node000010_Node000012"><a xlink:title=" ">
<path fill="none" stroke="#63b8ff" d="M313.23,-267.94C330.86,-263.1 350.54,-257.68 368.79,-252.66"/>
<polygon fill="#63b8ff" stroke="#63b8ff" points="369.75,-256.03 378.46,-250 367.89,-249.28 369.75,-256.03"/>
</a>
</g>
</g>
<!-- Node11&#45;&gt;Node8 -->
<g id="edge12_Node000011_Node000008" class="edge">
<title>Node11&#45;&gt;Node8</title>
<g id="a_edge12_Node000011_Node000008"><a xlink:title=" ">
<path fill="none" stroke="#63b8ff" d="M498.06,-283C509.85,-283 522.34,-283 534.65,-283"/>
<polygon fill="#63b8ff" stroke="#63b8ff" points="534.92,-286.5 544.92,-283 534.92,-279.5 534.92,-286.5"/>
</a>
</g>
</g>
<!-- Node12&#45;&gt;Node8 -->
<g id="edge14_Node000012_Node000008" class="edge">
<title>Node12&#45;&gt;Node8</title>
<g id="a_edge14_Node000012_Node000008"><a xlink:title=" ">
<path fill="none" stroke="#63b8ff" d="M492.71,-250.06C518.47,-256.77 548.4,-264.58 572.66,-270.91"/>
<polygon fill="#63b8ff" stroke="#63b8ff" points="571.78,-274.3 582.34,-273.44 573.54,-267.52 571.78,-274.3"/>
</a>
</g>
</g>
<!-- Node15&#45;&gt;Node14 -->
<g id="edge18_Node000015_Node000014" class="edge">
<title>Node15&#45;&gt;Node14</title>
<g id="a_edge18_Node000015_Node000014"><a xlink:title=" ">
<path fill="none" stroke="#63b8ff" d="M321.99,-165.19C330.7,-166.03 339.75,-166.92 348.76,-167.79"/>
<polygon fill="#63b8ff" stroke="#63b8ff" points="348.6,-171.29 358.89,-168.78 349.28,-164.33 348.6,-171.29"/>
</a>
</g>
</g>
</g>
</svg>
