<?xml version="1.0" encoding="UTF-8" standalone="no"?>
<!DOCTYPE svg PUBLIC "-//W3C//DTD SVG 1.1//EN"
 "http://www.w3.org/Graphics/SVG/1.1/DTD/svg11.dtd">
<!-- Generated by graphviz version 2.43.0 (0)
 -->
<!-- Title: Arcane::Materials::MatVarIndex::arrayIndex Pages: 1 -->
<!--zoomable 904 -->

<svg id="main" version="1.1" xmlns="http://www.w3.org/2000/svg" xmlns:xlink="http://www.w3.org/1999/xlink" xml:space="preserve" onload="init(evt)">

<style type="text/css"><![CDATA[
.node, .edge {opacity: 0.7;}
.node.selected, .edge.selected {opacity: 1;}
.edge:hover path { stroke: red; }
.edge:hover polygon { stroke: red; fill: red; }
]]></style>

<defs>
  <circle id="rim" cx="0" cy="0" r="7"/>
  <circle id="rim2" cx="0" cy="0" r="3.5"/>
  <g id="zoomPlus">
    <use xlink:href="#rim" fill="#404040"><set attributeName="fill" to="#808080" begin="zoomplus.mouseover" end="zoomplus.mouseout"/></use>
    <path d="M-4,0h8M0,-4v8" fill="none" stroke="white" stroke-width="1.5" pointer-events="none"/>
  </g>
  <g id="zoomMin">
    <use xlink:href="#rim" fill="#404040"><set attributeName="fill" to="#808080" begin="zoomminus.mouseover" end="zoomminus.mouseout"/></use>
    <path d="M-4,0h8" fill="none" stroke="white" stroke-width="1.5" pointer-events="none"/>
  </g>
  <g id="arrowUp" transform="translate(30 24)">
    <use xlink:href="#rim"/>
    <path pointer-events="none" fill="none" stroke="white" stroke-width="1.5" d="M0,-3.0v7 M-2.5,-0.5L0,-3.0L2.5,-0.5"/>
  </g>
  <g id="arrowRight" transform="rotate(90) translate(36 -43)">
    <use xlink:href="#rim"/>
    <path pointer-events="none" fill="none" stroke="white" stroke-width="1.5" d="M0,-3.0v7 M-2.5,-0.5L0,-3.0L2.5,-0.5"/>
  </g>
  <g id="arrowDown" transform="rotate(180) translate(-30 -48)">
    <use xlink:href="#rim"/>
    <path pointer-events="none" fill="none" stroke="white" stroke-width="1.5" d="M0,-3.0v7 M-2.5,-0.5L0,-3.0L2.5,-0.5"/>
  </g>
  <g id="arrowLeft" transform="rotate(270) translate(-36 17)">
    <use xlink:href="#rim"/>
    <path pointer-events="none" fill="none" stroke="white" stroke-width="1.5" d="M0,-3.0v7 M-2.5,-0.5L0,-3.0L2.5,-0.5"/>
  </g>
  <g id="resetDef">
    <use xlink:href="#rim2" fill="#404040"><set attributeName="fill" to="#808080" begin="reset.mouseover" end="reset.mouseout"/></use>
  </g>
</defs>
<script type="application/ecmascript">
var viewWidth = 582;
var viewHeight = 904;
var sectionId = 'dynsection-1';
</script>
<script type="application/ecmascript" xlink:href="../../svg.min.js"/>
<svg id="graph" class="graph">
<g id="viewport">
<title>Arcane::Materials::MatVarIndex::arrayIndex</title>
<!-- Node1 -->
<g id="Node000001" class="node">
<title>Node1</title>
<g id="a_Node000001"><a xlink:title="Retourne l&#39;indice du tableau de valeur dans la liste des variables.">
<polygon fill="#999999" stroke="#666666" points="574,-459 437,-459 437,-429 574,-429 574,-459"/>
<text text-anchor="start" x="445" y="-447" font-family="Helvetica,sans-Serif" font-size="10.00">Arcane::Materials::</text>
<text text-anchor="middle" x="505.5" y="-436" font-family="Helvetica,sans-Serif" font-size="10.00">MatVarIndex::arrayIndex</text>
</a>
</g>
</g>
<!-- Node2 -->
<g id="Node000002" class="node">
<title>Node2</title>
<g id="a_Node000002"><a xlink:href="../../dd/d50/classArcane_1_1Materials_1_1ConstituentItemVectorImpl.html#a96416ed1ccba23f3a8586f3aea0dc10d" target="_top" xlink:title="Calcul du nombre de mailles pures et impures sans API accélérateur.">
<polygon fill="white" stroke="#666666" points="401,-895.5 207,-895.5 207,-854.5 401,-854.5 401,-895.5"/>
<text text-anchor="start" x="215" y="-883.5" font-family="Helvetica,sans-Serif" font-size="10.00">Arcane::Materials::</text>
<text text-anchor="start" x="215" y="-872.5" font-family="Helvetica,sans-Serif" font-size="10.00">ConstituentItemVectorImpl</text>
<text text-anchor="middle" x="304" y="-861.5" font-family="Helvetica,sans-Serif" font-size="10.00">::_computeNbPureAndImpureLegacy</text>
</a>
</g>
</g>
<!-- Node1&#45;&gt;Node2 -->
<g id="edge1_Node000001_Node000002" class="edge">
<title>Node1&#45;&gt;Node2</title>
<g id="a_edge1_Node000001_Node000002"><a xlink:title=" ">
<path fill="none" stroke="#63b8ff" d="M501.18,-469.46C490.37,-548.8 453.76,-789.51 401,-845 397.63,-848.54 393.85,-851.67 389.79,-854.43"/>
<polygon fill="#63b8ff" stroke="#63b8ff" points="504.68,-469.75 502.54,-459.38 497.74,-468.82 504.68,-469.75"/>
</a>
</g>
</g>
<!-- Node4 -->
<g id="Node000004" class="node">
<title>Node4</title>
<g id="a_Node000004"><a xlink:href="../../d3/d68/classArcaneTest_1_1MeshMaterialTesterModule.html#a9b4991e58a2af327e5cdbd8ceb2ee0c6" target="_top" xlink:title="Teste les itérateurs par partie.">
<polygon fill="white" stroke="#666666" points="397.5,-836 210.5,-836 210.5,-806 397.5,-806 397.5,-836"/>
<text text-anchor="start" x="218.5" y="-824" font-family="Helvetica,sans-Serif" font-size="10.00">ArcaneTest::MeshMaterial</text>
<text text-anchor="middle" x="304" y="-813" font-family="Helvetica,sans-Serif" font-size="10.00">TesterModule::_testComponentPart</text>
</a>
</g>
</g>
<!-- Node1&#45;&gt;Node4 -->
<g id="edge3_Node000001_Node000004" class="edge">
<title>Node1&#45;&gt;Node4</title>
<g id="a_edge3_Node000001_Node000004"><a xlink:title=" ">
<path fill="none" stroke="#63b8ff" d="M505.06,-469.08C505.05,-533.49 495.7,-706.04 401,-797 397.41,-800.45 393.4,-803.43 389.11,-806"/>
<polygon fill="#63b8ff" stroke="#63b8ff" points="508.56,-468.99 504.98,-459.02 501.56,-469.05 508.56,-468.99"/>
</a>
</g>
</g>
<!-- Node5 -->
<g id="Node000005" class="node">
<title>Node5</title>
<g id="a_Node000005"><a xlink:href="../../d7/d43/classArcane_1_1Materials_1_1MeshMaterialMng.html#adc4945e1704614cac7220471010682b5" target="_top" xlink:title="Vérifie la validité des structures internes.">
<polygon fill="white" stroke="#666666" points="385.5,-788 222.5,-788 222.5,-758 385.5,-758 385.5,-788"/>
<text text-anchor="start" x="230.5" y="-776" font-family="Helvetica,sans-Serif" font-size="10.00">Arcane::Materials::</text>
<text text-anchor="middle" x="304" y="-765" font-family="Helvetica,sans-Serif" font-size="10.00">MeshMaterialMng::checkValid</text>
</a>
</g>
</g>
<!-- Node1&#45;&gt;Node5 -->
<g id="edge4_Node000001_Node000005" class="edge">
<title>Node1&#45;&gt;Node5</title>
<g id="a_edge4_Node000001_Node000005"><a xlink:title=" ">
<path fill="none" stroke="#63b8ff" d="M503.69,-469.19C500.41,-527.52 483.88,-672.66 401,-749 396.45,-753.19 391.28,-756.68 385.76,-759.57"/>
<polygon fill="#63b8ff" stroke="#63b8ff" points="507.2,-469.2 504.18,-459.04 500.21,-468.86 507.2,-469.2"/>
</a>
</g>
</g>
<!-- Node6 -->
<g id="Node000006" class="node">
<title>Node6</title>
<g id="a_Node000006"><a xlink:href="../../d1/d89/classArcane_1_1Materials_1_1MatVarIndex.html#ac63f44e130a7a76d5ab9b703da7996ce" target="_top" xlink:title="Opérateur d&#39;écriture.">
<polygon fill="white" stroke="#666666" points="375,-722 233,-722 233,-692 375,-692 375,-722"/>
<text text-anchor="start" x="241" y="-710" font-family="Helvetica,sans-Serif" font-size="10.00">Arcane::Materials::</text>
<text text-anchor="middle" x="304" y="-699" font-family="Helvetica,sans-Serif" font-size="10.00">MatVarIndex::operator&lt;&lt;</text>
</a>
</g>
</g>
<!-- Node1&#45;&gt;Node6 -->
<g id="edge5_Node000001_Node000006" class="edge">
<title>Node1&#45;&gt;Node6</title>
<g id="a_edge5_Node000001_Node000006"><a xlink:title=" ">
<path fill="none" stroke="#63b8ff" d="M501.04,-469.05C492.92,-517.92 468,-626.16 401,-683 393.53,-689.33 384.63,-694.04 375.31,-697.52"/>
<polygon fill="#63b8ff" stroke="#63b8ff" points="504.52,-469.45 502.6,-459.03 497.6,-468.37 504.52,-469.45"/>
</a>
</g>
</g>
<!-- Node7 -->
<g id="Node000007" class="node">
<title>Node7</title>
<g id="a_Node000007"><a xlink:href="../../d1/d89/classArcane_1_1Materials_1_1MatVarIndex.html#a275474607e67217d08b0ea12b0340a33" target="_top" xlink:title="Opérateur de comparaison.">
<polygon fill="white" stroke="#666666" points="375,-674 233,-674 233,-644 375,-644 375,-674"/>
<text text-anchor="start" x="241" y="-662" font-family="Helvetica,sans-Serif" font-size="10.00">Arcane::Materials::</text>
<text text-anchor="middle" x="304" y="-651" font-family="Helvetica,sans-Serif" font-size="10.00">MatVarIndex::operator==</text>
</a>
</g>
</g>
<!-- Node1&#45;&gt;Node7 -->
<g id="edge7_Node000001_Node000007" class="edge">
<title>Node1&#45;&gt;Node7</title>
<g id="a_edge7_Node000001_Node000007"><a xlink:title=" ">
<path fill="none" stroke="#63b8ff" d="M498.09,-468.9C486.19,-510.01 456.66,-591.84 401,-635 393.4,-640.9 384.53,-645.36 375.31,-648.74"/>
<polygon fill="#63b8ff" stroke="#63b8ff" points="501.5,-469.71 500.81,-459.14 494.76,-467.83 501.5,-469.71"/>
</a>
</g>
</g>
<!-- Node9 -->
<g id="Node000009" class="node">
<title>Node9</title>
<g id="a_Node000009"><a xlink:href="../../dc/d44/classArcane_1_1Accelerator_1_1MatItemVariableScalarInViewT.html#a2aabf0e14e0bc4e549c7e9461e2c841c" target="_top" xlink:title="Opérateur d&#39;accès pour l&#39;entité item.">
<polygon fill="white" stroke="#666666" points="387.5,-625.5 220.5,-625.5 220.5,-584.5 387.5,-584.5 387.5,-625.5"/>
<text text-anchor="start" x="228.5" y="-613.5" font-family="Helvetica,sans-Serif" font-size="10.00">Arcane::Accelerator</text>
<text text-anchor="start" x="228.5" y="-602.5" font-family="Helvetica,sans-Serif" font-size="10.00">::MatItemVariableScalarInView</text>
<text text-anchor="middle" x="304" y="-591.5" font-family="Helvetica,sans-Serif" font-size="10.00">T::operator[]</text>
</a>
</g>
</g>
<!-- Node1&#45;&gt;Node9 -->
<g id="edge9_Node000001_Node000009" class="edge">
<title>Node1&#45;&gt;Node9</title>
<g id="a_edge9_Node000001_Node000009"><a xlink:title=" ">
<path fill="none" stroke="#63b8ff" d="M491.84,-468C474.99,-497.66 442.43,-547.68 401,-576 396.4,-579.14 391.45,-581.96 386.31,-584.47"/>
<polygon fill="#63b8ff" stroke="#63b8ff" points="494.97,-469.58 496.75,-459.14 488.84,-466.19 494.97,-469.58"/>
</a>
</g>
</g>
<!-- Node10 -->
<g id="Node000010" class="node">
<title>Node10</title>
<g id="a_Node000010"><a xlink:href="../../d3/d3e/classArcane_1_1Accelerator_1_1MatItemVariableScalarOutViewT.html#a31bf83ab81daa1505f38770ae2d6f6fe" target="_top" xlink:title="Opérateur d&#39;accès pour l&#39;entité item.">
<polygon fill="white" stroke="#666666" points="379.5,-566.5 228.5,-566.5 228.5,-525.5 379.5,-525.5 379.5,-566.5"/>
<text text-anchor="start" x="236.5" y="-554.5" font-family="Helvetica,sans-Serif" font-size="10.00">Arcane::Accelerator</text>
<text text-anchor="start" x="236.5" y="-543.5" font-family="Helvetica,sans-Serif" font-size="10.00">::MatItemVariableScalarOut</text>
<text text-anchor="middle" x="304" y="-532.5" font-family="Helvetica,sans-Serif" font-size="10.00">ViewT::operator[]</text>
</a>
</g>
</g>
<!-- Node1&#45;&gt;Node10 -->
<g id="edge10_Node000001_Node000010" class="edge">
<title>Node1&#45;&gt;Node10</title>
<g id="a_edge10_Node000001_Node000010"><a xlink:title=" ">
<path fill="none" stroke="#63b8ff" d="M478.45,-465.49C458.32,-481.24 429.21,-502.19 401,-516 393.94,-519.46 386.4,-522.62 378.76,-525.5"/>
<polygon fill="#63b8ff" stroke="#63b8ff" points="480.84,-468.06 486.5,-459.1 476.49,-462.57 480.84,-468.06"/>
</a>
</g>
</g>
<!-- Node11 -->
<g id="Node000011" class="node">
<title>Node11</title>
<g id="a_Node000011"><a xlink:href="../../d0/d91/classArcane_1_1MatItemVariableScalarInViewT.html#ac0bd6a9efd2b310cea1848346653b1d6" target="_top" xlink:title="Opérateur d&#39;accès pour l&#39;entité item.">
<polygon fill="white" stroke="#666666" points="387.5,-507 220.5,-507 220.5,-477 387.5,-477 387.5,-507"/>
<text text-anchor="start" x="228.5" y="-495" font-family="Helvetica,sans-Serif" font-size="10.00">Arcane::MatItemVariableScalar</text>
<text text-anchor="middle" x="304" y="-484" font-family="Helvetica,sans-Serif" font-size="10.00">InViewT::operator[]</text>
</a>
</g>
</g>
<!-- Node1&#45;&gt;Node11 -->
<g id="edge11_Node000001_Node000011" class="edge">
<title>Node1&#45;&gt;Node11</title>
<g id="a_edge11_Node000001_Node000011"><a xlink:title=" ">
<path fill="none" stroke="#63b8ff" d="M432.01,-461.44C410.82,-466.54 387.85,-472.07 367.35,-477"/>
<polygon fill="#63b8ff" stroke="#63b8ff" points="433.02,-464.8 441.92,-459.06 431.38,-457.99 433.02,-464.8"/>
</a>
</g>
</g>
<!-- Node12 -->
<g id="Node000012" class="node">
<title>Node12</title>
<g id="a_Node000012"><a xlink:href="../../d0/d91/classArcane_1_1MatItemVariableScalarInViewT.html#a2d4ddaae804f416ef40fc3b3f3133572" target="_top" xlink:title="Opérateur d&#39;accès pour l&#39;entité item.">
<polygon fill="white" stroke="#666666" points="387.5,-459 220.5,-459 220.5,-429 387.5,-429 387.5,-459"/>
<text text-anchor="start" x="228.5" y="-447" font-family="Helvetica,sans-Serif" font-size="10.00">Arcane::MatItemVariableScalar</text>
<text text-anchor="middle" x="304" y="-436" font-family="Helvetica,sans-Serif" font-size="10.00">InViewT::operator[]</text>
</a>
</g>
</g>
<!-- Node1&#45;&gt;Node12 -->
<g id="edge12_Node000001_Node000012" class="edge">
<title>Node1&#45;&gt;Node12</title>
<g id="a_edge12_Node000001_Node000012"><a xlink:title=" ">
<path fill="none" stroke="#63b8ff" d="M426.8,-444C413.97,-444 400.64,-444 387.69,-444"/>
<polygon fill="#63b8ff" stroke="#63b8ff" points="426.96,-447.5 436.96,-444 426.96,-440.5 426.96,-447.5"/>
</a>
</g>
</g>
<!-- Node13 -->
<g id="Node000013" class="node">
<title>Node13</title>
<g id="a_Node000013"><a xlink:href="../../d1/d2b/classArcane_1_1MatItemVariableScalarOutViewT.html#aae32dd252073b2e3bd7c451946447bf9" target="_top" xlink:title="Opérateur d&#39;accès pour l&#39;entité item.">
<polygon fill="white" stroke="#666666" points="387.5,-411 220.5,-411 220.5,-381 387.5,-381 387.5,-411"/>
<text text-anchor="start" x="228.5" y="-399" font-family="Helvetica,sans-Serif" font-size="10.00">Arcane::MatItemVariableScalar</text>
<text text-anchor="middle" x="304" y="-388" font-family="Helvetica,sans-Serif" font-size="10.00">OutViewT::operator[]</text>
</a>
</g>
</g>
<!-- Node1&#45;&gt;Node13 -->
<g id="edge13_Node000001_Node000013" class="edge">
<title>Node1&#45;&gt;Node13</title>
<g id="a_edge13_Node000001_Node000013"><a xlink:title=" ">
<path fill="none" stroke="#63b8ff" d="M432.01,-426.56C410.82,-421.46 387.85,-415.93 367.35,-411"/>
<polygon fill="#63b8ff" stroke="#63b8ff" points="431.38,-430.01 441.92,-428.94 433.02,-423.2 431.38,-430.01"/>
</a>
</g>
</g>
<!-- Node14 -->
<g id="Node000014" class="node">
<title>Node14</title>
<g id="a_Node000014"><a xlink:href="../../d1/d2b/classArcane_1_1MatItemVariableScalarOutViewT.html#a2b8858a74482e80591f61f8e6f0389e5" target="_top" xlink:title="Opérateur d&#39;accès pour l&#39;entité item.">
<polygon fill="white" stroke="#666666" points="387.5,-363 220.5,-363 220.5,-333 387.5,-333 387.5,-363"/>
<text text-anchor="start" x="228.5" y="-351" font-family="Helvetica,sans-Serif" font-size="10.00">Arcane::MatItemVariableScalar</text>
<text text-anchor="middle" x="304" y="-340" font-family="Helvetica,sans-Serif" font-size="10.00">OutViewT::operator[]</text>
</a>
</g>
</g>
<!-- Node1&#45;&gt;Node14 -->
<g id="edge14_Node000001_Node000014" class="edge">
<title>Node1&#45;&gt;Node14</title>
<g id="a_edge14_Node000001_Node000014"><a xlink:title=" ">
<path fill="none" stroke="#63b8ff" d="M479.04,-422.33C459.01,-406.3 429.77,-385.07 401,-372 393.49,-368.59 385.42,-365.61 377.27,-363.03"/>
<polygon fill="#63b8ff" stroke="#63b8ff" points="477.07,-425.23 487.03,-428.84 481.49,-419.81 477.07,-425.23"/>
</a>
</g>
</g>
<!-- Node15 -->
<g id="Node000015" class="node">
<title>Node15</title>
<g id="a_Node000015"><a xlink:href="../../d3/d3e/classArcane_1_1Accelerator_1_1MatItemVariableScalarOutViewT.html#a7aa4bc7bc2a50b1d119d3bc8c6f0fb95" target="_top" xlink:title="Positionne la valeur pour l&#39;entité item à v.">
<polygon fill="white" stroke="#666666" points="379.5,-314.5 228.5,-314.5 228.5,-273.5 379.5,-273.5 379.5,-314.5"/>
<text text-anchor="start" x="236.5" y="-302.5" font-family="Helvetica,sans-Serif" font-size="10.00">Arcane::Accelerator</text>
<text text-anchor="start" x="236.5" y="-291.5" font-family="Helvetica,sans-Serif" font-size="10.00">::MatItemVariableScalarOut</text>
<text text-anchor="middle" x="304" y="-280.5" font-family="Helvetica,sans-Serif" font-size="10.00">ViewT::setValue</text>
</a>
</g>
</g>
<!-- Node1&#45;&gt;Node15 -->
<g id="edge15_Node000001_Node000015" class="edge">
<title>Node1&#45;&gt;Node15</title>
<g id="a_edge15_Node000001_Node000015"><a xlink:title=" ">
<path fill="none" stroke="#63b8ff" d="M489.92,-420.21C472.14,-393.12 439.64,-349.37 401,-324 394.43,-319.69 387.21,-315.96 379.76,-312.76"/>
<polygon fill="#63b8ff" stroke="#63b8ff" points="487.02,-422.18 495.37,-428.7 492.91,-418.39 487.02,-422.18"/>
</a>
</g>
</g>
<!-- Node16 -->
<g id="Node000016" class="node">
<title>Node16</title>
<g id="a_Node000016"><a xlink:href="../../d1/dec/classArcane_1_1Materials_1_1MeshMaterialVariableIndexer.html#a5f15ccb9ae6f630f249147285bf9ab96" target="_top" xlink:title="Transforme des mailles entre pure et partielle.">
<polygon fill="white" stroke="#666666" points="383.5,-255.5 224.5,-255.5 224.5,-214.5 383.5,-214.5 383.5,-255.5"/>
<text text-anchor="start" x="232.5" y="-243.5" font-family="Helvetica,sans-Serif" font-size="10.00">Arcane::Materials::</text>
<text text-anchor="start" x="232.5" y="-232.5" font-family="Helvetica,sans-Serif" font-size="10.00">MeshMaterialVariableIndexer</text>
<text text-anchor="middle" x="304" y="-221.5" font-family="Helvetica,sans-Serif" font-size="10.00">::transformCells</text>
</a>
</g>
</g>
<!-- Node1&#45;&gt;Node16 -->
<g id="edge16_Node000001_Node000016" class="edge">
<title>Node1&#45;&gt;Node16</title>
<g id="a_edge16_Node000001_Node000016"><a xlink:title=" ">
<path fill="none" stroke="#63b8ff" d="M496.62,-418.82C483.24,-380.09 452.37,-306.1 401,-265 395.68,-260.75 389.76,-257.09 383.53,-253.95"/>
<polygon fill="#63b8ff" stroke="#63b8ff" points="493.45,-420.37 499.94,-428.75 500.09,-418.15 493.45,-420.37"/>
</a>
</g>
</g>
<!-- Node19 -->
<g id="Node000019" class="node">
<title>Node19</title>
<g id="a_Node000019"><a xlink:href="../../dc/d44/classArcane_1_1Accelerator_1_1MatItemVariableScalarInViewT.html#a313f731bf47ce4f2d1c492ac82a349c5" target="_top" xlink:title="Opérateur d&#39;accès pour l&#39;entité item.">
<polygon fill="white" stroke="#666666" points="387.5,-196.5 220.5,-196.5 220.5,-155.5 387.5,-155.5 387.5,-196.5"/>
<text text-anchor="start" x="228.5" y="-184.5" font-family="Helvetica,sans-Serif" font-size="10.00">Arcane::Accelerator</text>
<text text-anchor="start" x="228.5" y="-173.5" font-family="Helvetica,sans-Serif" font-size="10.00">::MatItemVariableScalarInView</text>
<text text-anchor="middle" x="304" y="-162.5" font-family="Helvetica,sans-Serif" font-size="10.00">T::value</text>
</a>
</g>
</g>
<!-- Node1&#45;&gt;Node19 -->
<g id="edge19_Node000001_Node000019" class="edge">
<title>Node1&#45;&gt;Node19</title>
<g id="a_edge19_Node000001_Node000019"><a xlink:title=" ">
<path fill="none" stroke="#63b8ff" d="M500.73,-418.88C492.12,-370.34 466.44,-263.3 401,-205 396.97,-201.41 392.51,-198.26 387.78,-195.51"/>
<polygon fill="#63b8ff" stroke="#63b8ff" points="497.3,-419.56 502.4,-428.85 504.2,-418.4 497.3,-419.56"/>
</a>
</g>
</g>
<!-- Node20 -->
<g id="Node000020" class="node">
<title>Node20</title>
<g id="a_Node000020"><a xlink:href="../../d3/d3e/classArcane_1_1Accelerator_1_1MatItemVariableScalarOutViewT.html#a6113e870516c96914f484db1bf7f4a05" target="_top" xlink:title="Opérateur d&#39;accès pour l&#39;entité item.">
<polygon fill="white" stroke="#666666" points="379.5,-137.5 228.5,-137.5 228.5,-96.5 379.5,-96.5 379.5,-137.5"/>
<text text-anchor="start" x="236.5" y="-125.5" font-family="Helvetica,sans-Serif" font-size="10.00">Arcane::Accelerator</text>
<text text-anchor="start" x="236.5" y="-114.5" font-family="Helvetica,sans-Serif" font-size="10.00">::MatItemVariableScalarOut</text>
<text text-anchor="middle" x="304" y="-103.5" font-family="Helvetica,sans-Serif" font-size="10.00">ViewT::value</text>
</a>
</g>
</g>
<!-- Node1&#45;&gt;Node20 -->
<g id="edge20_Node000001_Node000020" class="edge">
<title>Node1&#45;&gt;Node20</title>
<g id="a_edge20_Node000001_Node000020"><a xlink:title=" ">
<path fill="none" stroke="#63b8ff" d="M503.16,-418.48C498.77,-361.29 480.08,-221.91 401,-146 394.85,-140.09 387.53,-135.38 379.72,-131.63"/>
<polygon fill="#63b8ff" stroke="#63b8ff" points="499.69,-419.04 503.86,-428.78 506.68,-418.57 499.69,-419.04"/>
</a>
</g>
</g>
<!-- Node21 -->
<g id="Node000021" class="node">
<title>Node21</title>
<g id="a_Node000021"><a xlink:href="../../d0/d91/classArcane_1_1MatItemVariableScalarInViewT.html#a849861d6db3ca7432a2c2f4cdf4e53d5" target="_top" xlink:title="Opérateur d&#39;accès pour l&#39;entité item.">
<polygon fill="white" stroke="#666666" points="387.5,-78 220.5,-78 220.5,-48 387.5,-48 387.5,-78"/>
<text text-anchor="start" x="228.5" y="-66" font-family="Helvetica,sans-Serif" font-size="10.00">Arcane::MatItemVariableScalar</text>
<text text-anchor="middle" x="304" y="-55" font-family="Helvetica,sans-Serif" font-size="10.00">InViewT::value</text>
</a>
</g>
</g>
<!-- Node1&#45;&gt;Node21 -->
<g id="edge21_Node000001_Node000021" class="edge">
<title>Node1&#45;&gt;Node21</title>
<g id="a_edge21_Node000001_Node000021"><a xlink:title=" ">
<path fill="none" stroke="#63b8ff" d="M505.15,-418.65C505.38,-353.52 496.55,-179.06 401,-87 397.04,-83.19 392.57,-79.95 387.78,-77.21"/>
<polygon fill="#63b8ff" stroke="#63b8ff" points="501.65,-418.77 505.04,-428.81 508.65,-418.85 501.65,-418.77"/>
</a>
</g>
</g>
<!-- Node22 -->
<g id="Node000022" class="node">
<title>Node22</title>
<g id="a_Node000022"><a xlink:href="../../d1/d2b/classArcane_1_1MatItemVariableScalarOutViewT.html#a10634fde3733bacc8a517ef3b17705c0" target="_top" xlink:title="Opérateur d&#39;accès pour l&#39;entité item.">
<polygon fill="white" stroke="#666666" points="387.5,-30 220.5,-30 220.5,0 387.5,0 387.5,-30"/>
<text text-anchor="start" x="228.5" y="-18" font-family="Helvetica,sans-Serif" font-size="10.00">Arcane::MatItemVariableScalar</text>
<text text-anchor="middle" x="304" y="-7" font-family="Helvetica,sans-Serif" font-size="10.00">OutViewT::value</text>
</a>
</g>
</g>
<!-- Node1&#45;&gt;Node22 -->
<g id="edge22_Node000001_Node000022" class="edge">
<title>Node1&#45;&gt;Node22</title>
<g id="a_edge22_Node000001_Node000022"><a xlink:title=" ">
<path fill="none" stroke="#63b8ff" d="M501.42,-418.69C491.21,-338.74 455.91,-93.63 401,-39 397.1,-35.12 392.68,-31.84 387.92,-29.06"/>
<polygon fill="#63b8ff" stroke="#63b8ff" points="497.98,-419.35 502.7,-428.84 504.93,-418.48 497.98,-419.35"/>
</a>
</g>
</g>
<!-- Node3 -->
<g id="Node000003" class="node">
<title>Node3</title>
<g id="a_Node000003"><a xlink:href="../../dd/d50/classArcane_1_1Materials_1_1ConstituentItemVectorImpl.html#ad5980d58e10e655ba43738c10490d17f" target="_top" xlink:title="Positionne les entités du vecteur.">
<polygon fill="white" stroke="#666666" points="159.5,-895.5 11.5,-895.5 11.5,-854.5 159.5,-854.5 159.5,-895.5"/>
<text text-anchor="start" x="19.5" y="-883.5" font-family="Helvetica,sans-Serif" font-size="10.00">Arcane::Materials::</text>
<text text-anchor="start" x="19.5" y="-872.5" font-family="Helvetica,sans-Serif" font-size="10.00">ConstituentItemVectorImpl</text>
<text text-anchor="middle" x="85.5" y="-861.5" font-family="Helvetica,sans-Serif" font-size="10.00">::_setItems</text>
</a>
</g>
</g>
<!-- Node2&#45;&gt;Node3 -->
<g id="edge2_Node000002_Node000003" class="edge">
<title>Node2&#45;&gt;Node3</title>
<g id="a_edge2_Node000002_Node000003"><a xlink:title=" ">
<path fill="none" stroke="#63b8ff" d="M196.74,-875C184.2,-875 171.62,-875 159.68,-875"/>
<polygon fill="#63b8ff" stroke="#63b8ff" points="196.78,-878.5 206.78,-875 196.78,-871.5 196.78,-878.5"/>
</a>
</g>
</g>
<!-- Node6&#45;&gt;Node6 -->
<g id="edge6_Node000006_Node000006" class="edge">
<title>Node6&#45;&gt;Node6</title>
<g id="a_edge6_Node000006_Node000006"><a xlink:title=" ">
<path fill="none" stroke="#63b8ff" d="M339.01,-732.6C334.22,-736.97 322.55,-740 304,-740 272.75,-740 261.03,-731.41 268.84,-722.28"/>
<polygon fill="#63b8ff" stroke="#63b8ff" points="342.51,-732.32 339.16,-722.28 335.51,-732.22 342.51,-732.32"/>
</a>
</g>
</g>
<!-- Node8 -->
<g id="Node000008" class="node">
<title>Node8</title>
<g id="a_Node000008"><a xlink:href="../../d1/d89/classArcane_1_1Materials_1_1MatVarIndex.html#a29391dddac51c5a20fc33d956627ab43" target="_top" xlink:title="Opérateur de comparaison.">
<polygon fill="white" stroke="#666666" points="154,-674 17,-674 17,-644 154,-644 154,-674"/>
<text text-anchor="start" x="25" y="-662" font-family="Helvetica,sans-Serif" font-size="10.00">Arcane::Materials::</text>
<text text-anchor="middle" x="85.5" y="-651" font-family="Helvetica,sans-Serif" font-size="10.00">MatVarIndex::operator!=</text>
</a>
</g>
</g>
<!-- Node7&#45;&gt;Node8 -->
<g id="edge8_Node000007_Node000008" class="edge">
<title>Node7&#45;&gt;Node8</title>
<g id="a_edge8_Node000007_Node000008"><a xlink:title=" ">
<path fill="none" stroke="#63b8ff" d="M222.52,-659C200.06,-659 175.88,-659 154.23,-659"/>
<polygon fill="#63b8ff" stroke="#63b8ff" points="222.71,-662.5 232.71,-659 222.71,-655.5 222.71,-662.5"/>
</a>
</g>
</g>
<!-- Node17 -->
<g id="Node000017" class="node">
<title>Node17</title>
<g id="a_Node000017"><a xlink:href="../../d5/d40/classArcane_1_1Materials_1_1IncrementalComponentModifier.html#a155ddc775a0f237569e0ff7749e12d0b" target="_top" xlink:title="Transforme les entités pour les milieux.">
<polygon fill="white" stroke="#666666" points="171,-284.5 0,-284.5 0,-243.5 171,-243.5 171,-284.5"/>
<text text-anchor="start" x="8" y="-272.5" font-family="Helvetica,sans-Serif" font-size="10.00">Arcane::Materials::</text>
<text text-anchor="start" x="8" y="-261.5" font-family="Helvetica,sans-Serif" font-size="10.00">IncrementalComponentModifier</text>
<text text-anchor="middle" x="85.5" y="-250.5" font-family="Helvetica,sans-Serif" font-size="10.00">::_switchCellsForEnvironments</text>
</a>
</g>
</g>
<!-- Node16&#45;&gt;Node17 -->
<g id="edge17_Node000016_Node000017" class="edge">
<title>Node16&#45;&gt;Node17</title>
<g id="a_edge17_Node000016_Node000017"><a xlink:title=" ">
<path fill="none" stroke="#63b8ff" d="M213.99,-246.92C199.79,-248.82 185.14,-250.79 171.06,-252.67"/>
<polygon fill="#63b8ff" stroke="#63b8ff" points="214.78,-250.35 224.23,-245.55 213.85,-243.41 214.78,-250.35"/>
</a>
</g>
</g>
<!-- Node18 -->
<g id="Node000018" class="node">
<title>Node18</title>
<g id="a_Node000018"><a xlink:href="../../d5/d40/classArcane_1_1Materials_1_1IncrementalComponentModifier.html#a02ad5be06efa7a8d7f864c66bdc3904a" target="_top" xlink:title="Transforme les entités pour un milieu.">
<polygon fill="white" stroke="#666666" points="171,-225.5 0,-225.5 0,-184.5 171,-184.5 171,-225.5"/>
<text text-anchor="start" x="8" y="-213.5" font-family="Helvetica,sans-Serif" font-size="10.00">Arcane::Materials::</text>
<text text-anchor="start" x="8" y="-202.5" font-family="Helvetica,sans-Serif" font-size="10.00">IncrementalComponentModifier</text>
<text text-anchor="middle" x="85.5" y="-191.5" font-family="Helvetica,sans-Serif" font-size="10.00">::_switchCellsForMaterials</text>
</a>
</g>
</g>
<!-- Node16&#45;&gt;Node18 -->
<g id="edge18_Node000016_Node000018" class="edge">
<title>Node16&#45;&gt;Node18</title>
<g id="a_edge18_Node000016_Node000018"><a xlink:title=" ">
<path fill="none" stroke="#63b8ff" d="M213.99,-222.67C199.79,-220.7 185.14,-218.67 171.06,-216.72"/>
<polygon fill="#63b8ff" stroke="#63b8ff" points="213.84,-226.18 224.23,-224.08 214.8,-219.24 213.84,-226.18"/>
</a>
</g>
</g>
</g>
</svg>

<g id="navigator" transform="translate(0 0)" fill="#404254">
  <rect fill="#f2f5e9" fill-opacity="0.5" stroke="#606060" stroke-width=".5" x="0" y="0" width="60" height="60"/>
  <use id="zoomplus" xlink:href="#zoomPlus" x="17" y="9" onmousedown="handleZoom(evt,'in')"/>
  <use id="zoomminus" xlink:href="#zoomMin" x="42" y="9" onmousedown="handleZoom(evt,'out')"/>
  <use id="reset" xlink:href="#resetDef" x="30" y="36" onmousedown="handleReset()"/>
   <use id="arrowup" xlink:href="#arrowUp" x="0" y="0" onmousedown="handlePan(0,-1)"/>
  <use id="arrowright" xlink:href="#arrowRight" x="0" y="0" onmousedown="handlePan(1,0)"/>
  <use id="arrowdown" xlink:href="#arrowDown" x="0" y="0" onmousedown="handlePan(0,1)"/>
  <use id="arrowleft" xlink:href="#arrowLeft" x="0" y="0" onmousedown="handlePan(-1,0)"/>
</g>
<svg viewBox="0 0 15 15" width="100%" height="30px" preserveAspectRatio="xMaxYMin meet">
 <g id="arrow_out" transform="scale(0.3 0.3)">
  <a xlink:href="classArcane_1_1Materials_1_1MatVarIndex_a3f9d22557c887d7e99272759d239c6b6_icgraph_org.svg" target="_base">
   <rect id="button" ry="5" rx="5" y="6" x="6" height="38" width="38"
        fill="#f2f5e9" fill-opacity="0.5" stroke="#606060" stroke-width="1.0"/>
   <path id="arrow"
     d="M 11.500037,31.436501 C 11.940474,20.09759 22.043105,11.32322 32.158766,21.979434 L 37.068811,17.246167 C 37.068811,17.246167 37.088388,32 37.088388,32 L 22.160133,31.978069 C 22.160133,31.978069 26.997745,27.140456 26.997745,27.140456 C 18.528582,18.264221 13.291696,25.230495 11.500037,31.436501 z"
     style="fill:#404040;"/>
  </a>
 </g>
</svg>

<style type='text/css'>
<![CDATA[
[data-mouse-over-selected='false'] { opacity: 0.7; }
[data-mouse-over-selected='true']  { opacity: 1.0; }
]]>
</style>
<script type="application/ecmascript"><![CDATA[
document.addEventListener('DOMContentLoaded', (event) => {
  highlightEdges();
  highlightAdjacentNodes();
});
]]></script>
</svg>
