<?xml version="1.0" encoding="UTF-8" standalone="no"?>
<!DOCTYPE svg PUBLIC "-//W3C//DTD SVG 1.1//EN"
 "http://www.w3.org/Graphics/SVG/1.1/DTD/svg11.dtd">
<!-- Generated by graphviz version 2.43.0 (0)
 -->
<!-- Title: Arcane::LimaMalippReaderWrapper&lt; LimaMaliReader &gt; Pages: 1 -->
<svg width="207pt" height="691pt"
 viewBox="0.00 0.00 207.00 691.00" xmlns="http://www.w3.org/2000/svg" xmlns:xlink="http://www.w3.org/1999/xlink">
<g id="graph0" class="graph" transform="scale(1 1) rotate(0) translate(4 687)">
<title>Arcane::LimaMalippReaderWrapper&lt; LimaMaliReader &gt;</title>
<!-- Node1 -->
<g id="Node000001" class="node">
<title>Node1</title>
<g id="a_Node000001"><a xlink:title=" ">
<polygon fill="#999999" stroke="transparent" points="162,-210 0,-210 0,0 162,0 162,-210"/>
<text text-anchor="start" x="9" y="-198" font-family="Helvetica,sans-Serif" font-size="10.00">Arcane::LimaMalippReader</text>
<text text-anchor="start" x="9" y="-187" font-family="Helvetica,sans-Serif" font-size="10.00">Wrapper&lt; LimaMaliReader &gt;</text>
<text text-anchor="start" x="4" y="-172" font-family="Helvetica,sans-Serif" font-size="10.00">#</text>
<text text-anchor="start" x="17" y="-172" font-family="Helvetica,sans-Serif" font-size="10.00">m_mali_reader</text>
<text text-anchor="start" x="4" y="-157" font-family="Helvetica,sans-Serif" font-size="10.00">+</text>
<text text-anchor="start" x="17" y="-157" font-family="Helvetica,sans-Serif" font-size="10.00">LimaMalippReaderWrapper()</text>
<text text-anchor="start" x="4" y="-142" font-family="Helvetica,sans-Serif" font-size="10.00">+</text>
<text text-anchor="start" x="17" y="-142" font-family="Helvetica,sans-Serif" font-size="10.00">setReader()</text>
<text text-anchor="start" x="4" y="-127" font-family="Helvetica,sans-Serif" font-size="10.00">+</text>
<text text-anchor="start" x="17" y="-127" font-family="Helvetica,sans-Serif" font-size="10.00">reader()</text>
<text text-anchor="start" x="4" y="-112" font-family="Helvetica,sans-Serif" font-size="10.00">+</text>
<text text-anchor="start" x="17" y="-112" font-family="Helvetica,sans-Serif" font-size="10.00">_readGroup()</text>
<text text-anchor="start" x="4" y="-97" font-family="Helvetica,sans-Serif" font-size="10.00">+</text>
<text text-anchor="start" x="17" y="-97" font-family="Helvetica,sans-Serif" font-size="10.00">_readGroup()</text>
<text text-anchor="start" x="4" y="-82" font-family="Helvetica,sans-Serif" font-size="10.00">+</text>
<text text-anchor="start" x="17" y="-82" font-family="Helvetica,sans-Serif" font-size="10.00">_readGroup()</text>
<text text-anchor="start" x="4" y="-67" font-family="Helvetica,sans-Serif" font-size="10.00">+</text>
<text text-anchor="start" x="17" y="-67" font-family="Helvetica,sans-Serif" font-size="10.00">_readGroup()</text>
<text text-anchor="start" x="4" y="-52" font-family="Helvetica,sans-Serif" font-size="10.00">+</text>
<text text-anchor="start" x="17" y="-52" font-family="Helvetica,sans-Serif" font-size="10.00">allocateNodesCoordsBuffer()</text>
<text text-anchor="start" x="4" y="-37" font-family="Helvetica,sans-Serif" font-size="10.00">+</text>
<text text-anchor="start" x="17" y="-37" font-family="Helvetica,sans-Serif" font-size="10.00">allocateNodesIdBuffer()</text>
<text text-anchor="start" x="4" y="-22" font-family="Helvetica,sans-Serif" font-size="10.00">+</text>
<text text-anchor="start" x="17" y="-22" font-family="Helvetica,sans-Serif" font-size="10.00">readNodes()</text>
<text text-anchor="start" x="4" y="-7" font-family="Helvetica,sans-Serif" font-size="10.00">+</text>
<text text-anchor="start" x="17" y="-7" font-family="Helvetica,sans-Serif" font-size="10.00">readGroup()</text>
<polygon fill="#666666" stroke="#666666" points="0,-182 0,-182 162,-182 162,-182 0,-182"/>
<polygon fill="#666666" stroke="#666666" points="0,-167 0,-167 15,-167 15,-167 0,-167"/>
<polygon fill="#666666" stroke="#666666" points="15,-167 15,-167 162,-167 162,-167 15,-167"/>
<polygon fill="none" stroke="#666666" points="0,0 0,-210 162,-210 162,0 0,0"/>
</a>
</g>
</g>
<!-- Node2 -->
<g id="Node000002" class="node">
<title>Node2</title>
<g id="a_Node000002"><a xlink:href="../../db/d19/classArcane_1_1ScopedPtrT.html" target="_top" xlink:title=" ">
<polygon fill="white" stroke="transparent" points="155.5,-410 6.5,-410 6.5,-279 155.5,-279 155.5,-410"/>
<text text-anchor="start" x="12" y="-397.5" font-family="Helvetica,sans-Serif" font-size="10.00">Arcane::ScopedPtrT</text>
<text text-anchor="start" x="12" y="-386.5" font-family="Helvetica,sans-Serif" font-size="10.00">&lt; Arcane::LimaGroupReader</text>
<text text-anchor="start" x="24.5" y="-375.5" font-family="Helvetica,sans-Serif" font-size="10.00">&lt; LimaMaliReader &gt; &gt;</text>
<text text-anchor="start" x="79.5" y="-360.5" font-family="Helvetica,sans-Serif" font-size="10.00"> </text>
<text text-anchor="start" x="25" y="-345.5" font-family="Helvetica,sans-Serif" font-size="10.00">+</text>
<text text-anchor="start" x="52" y="-345.5" font-family="Helvetica,sans-Serif" font-size="10.00">ScopedPtrT()</text>
<text text-anchor="start" x="25" y="-330.5" font-family="Helvetica,sans-Serif" font-size="10.00">+</text>
<text text-anchor="start" x="52" y="-330.5" font-family="Helvetica,sans-Serif" font-size="10.00">ScopedPtrT()</text>
<text text-anchor="start" x="25" y="-315.5" font-family="Helvetica,sans-Serif" font-size="10.00">+</text>
<text text-anchor="start" x="52" y="-315.5" font-family="Helvetica,sans-Serif" font-size="10.00">~ScopedPtrT()</text>
<text text-anchor="start" x="25" y="-300.5" font-family="Helvetica,sans-Serif" font-size="10.00">+</text>
<text text-anchor="start" x="52" y="-300.5" font-family="Helvetica,sans-Serif" font-size="10.00">operator=()</text>
<text text-anchor="start" x="25" y="-285.5" font-family="Helvetica,sans-Serif" font-size="10.00">+</text>
<text text-anchor="start" x="52" y="-285.5" font-family="Helvetica,sans-Serif" font-size="10.00">operator=()</text>
<polygon fill="#666666" stroke="#666666" points="7,-370.5 7,-370.5 156,-370.5 156,-370.5 7,-370.5"/>
<polygon fill="#666666" stroke="#666666" points="7,-355.5 7,-355.5 156,-355.5 156,-355.5 7,-355.5"/>
<polygon fill="none" stroke="#666666" points="6.5,-279 6.5,-410 155.5,-410 155.5,-279 6.5,-279"/>
</a>
</g>
</g>
<!-- Node2&#45;&gt;Node1 -->
<g id="edge1_Node000001_Node000002" class="edge">
<title>Node2&#45;&gt;Node1</title>
<g id="a_edge1_Node000001_Node000002"><a xlink:title=" ">
<path fill="none" stroke="#63b8ff" d="M81,-278.92C81,-261.4 81,-241.88 81,-222.44"/>
<polygon fill="none" stroke="#63b8ff" points="81,-222.37 77,-216.37 81,-210.37 85,-216.37 81,-222.37"/>
</a>
</g>
<text text-anchor="middle" x="140" y="-253" font-family="Helvetica,sans-Serif" font-size="10.00" fill="grey"> #m_cell_group_reader</text>
<text text-anchor="middle" x="140" y="-242" font-family="Helvetica,sans-Serif" font-size="10.00" fill="grey">#m_face_group_reader</text>
<text text-anchor="middle" x="140" y="-231" font-family="Helvetica,sans-Serif" font-size="10.00" fill="grey">#m_node_group_reader</text>
</g>
<!-- Node3 -->
<g id="Node000003" class="node">
<title>Node3</title>
<g id="a_Node000003"><a xlink:href="../../dd/de0/classArcane_1_1PtrT.html" target="_top" xlink:title=" ">
<polygon fill="white" stroke="transparent" points="161.5,-683 0.5,-683 0.5,-447 161.5,-447 161.5,-683"/>
<text text-anchor="start" x="6" y="-671" font-family="Helvetica,sans-Serif" font-size="10.00">Arcane::PtrT&lt; Arcane</text>
<text text-anchor="start" x="6" y="-660" font-family="Helvetica,sans-Serif" font-size="10.00">::LimaGroupReader&lt; LimaMali</text>
<text text-anchor="start" x="52.5" y="-649" font-family="Helvetica,sans-Serif" font-size="10.00">Reader &gt; &gt;</text>
<text text-anchor="start" x="24.5" y="-634" font-family="Helvetica,sans-Serif" font-size="10.00">#</text>
<text text-anchor="start" x="57" y="-634" font-family="Helvetica,sans-Serif" font-size="10.00">m_value</text>
<text text-anchor="start" x="24.5" y="-619" font-family="Helvetica,sans-Serif" font-size="10.00">+</text>
<text text-anchor="start" x="57" y="-619" font-family="Helvetica,sans-Serif" font-size="10.00">PtrT()</text>
<text text-anchor="start" x="24.5" y="-604" font-family="Helvetica,sans-Serif" font-size="10.00">+</text>
<text text-anchor="start" x="57" y="-604" font-family="Helvetica,sans-Serif" font-size="10.00">PtrT()</text>
<text text-anchor="start" x="24.5" y="-589" font-family="Helvetica,sans-Serif" font-size="10.00">+</text>
<text text-anchor="start" x="57" y="-589" font-family="Helvetica,sans-Serif" font-size="10.00">~PtrT()</text>
<text text-anchor="start" x="24.5" y="-574" font-family="Helvetica,sans-Serif" font-size="10.00">+</text>
<text text-anchor="start" x="57" y="-574" font-family="Helvetica,sans-Serif" font-size="10.00">operator&#45;&gt;()</text>
<text text-anchor="start" x="24.5" y="-559" font-family="Helvetica,sans-Serif" font-size="10.00">+</text>
<text text-anchor="start" x="57" y="-559" font-family="Helvetica,sans-Serif" font-size="10.00">operator*()</text>
<text text-anchor="start" x="24.5" y="-544" font-family="Helvetica,sans-Serif" font-size="10.00">+</text>
<text text-anchor="start" x="57" y="-544" font-family="Helvetica,sans-Serif" font-size="10.00">get()</text>
<text text-anchor="start" x="24.5" y="-529" font-family="Helvetica,sans-Serif" font-size="10.00">+</text>
<text text-anchor="start" x="57" y="-529" font-family="Helvetica,sans-Serif" font-size="10.00">isNull()</text>
<text text-anchor="start" x="24.5" y="-514" font-family="Helvetica,sans-Serif" font-size="10.00">#</text>
<text text-anchor="start" x="57" y="-514" font-family="Helvetica,sans-Serif" font-size="10.00">operator=()</text>
<text text-anchor="start" x="24.5" y="-499" font-family="Helvetica,sans-Serif" font-size="10.00">#</text>
<text text-anchor="start" x="57" y="-499" font-family="Helvetica,sans-Serif" font-size="10.00">operator=()</text>
<text text-anchor="start" x="24.5" y="-484" font-family="Helvetica,sans-Serif" font-size="10.00">#</text>
<text text-anchor="start" x="57" y="-484" font-family="Helvetica,sans-Serif" font-size="10.00">operator=()</text>
<text text-anchor="start" x="24.5" y="-469" font-family="Helvetica,sans-Serif" font-size="10.00">#</text>
<text text-anchor="start" x="57" y="-469" font-family="Helvetica,sans-Serif" font-size="10.00">PtrT()</text>
<text text-anchor="start" x="24.5" y="-454" font-family="Helvetica,sans-Serif" font-size="10.00">#</text>
<text text-anchor="start" x="57" y="-454" font-family="Helvetica,sans-Serif" font-size="10.00">PtrT()</text>
<polygon fill="#666666" stroke="#666666" points="1,-644 1,-644 162,-644 162,-644 1,-644"/>
<polygon fill="#666666" stroke="#666666" points="1,-629 1,-629 55,-629 55,-629 1,-629"/>
<polygon fill="#666666" stroke="#666666" points="55,-629 55,-629 162,-629 162,-629 55,-629"/>
<polygon fill="none" stroke="#666666" points="0.5,-447 0.5,-683 161.5,-683 161.5,-447 0.5,-447"/>
</a>
</g>
</g>
<!-- Node3&#45;&gt;Node2 -->
<g id="edge2_Node000002_Node000003" class="edge">
<title>Node3&#45;&gt;Node2</title>
<g id="a_edge2_Node000002_Node000003"><a xlink:title=" ">
<path fill="none" stroke="#63b8ff" d="M81,-436.5C81,-427.47 81,-418.62 81,-410.19"/>
<polygon fill="none" stroke="#63b8ff" points="77.5,-436.75 81,-446.75 84.5,-436.75 77.5,-436.75"/>
</a>
</g>
</g>
</g>
</svg>
