<?xml version="1.0" encoding="UTF-8" standalone="no"?>
<!DOCTYPE svg PUBLIC "-//W3C//DTD SVG 1.1//EN"
 "http://www.w3.org/Graphics/SVG/1.1/DTD/svg11.dtd">
<!-- Generated by graphviz version 2.43.0 (0)
 -->
<!-- Title: Arcane::TimeLoopMng::subDomain Pages: 1 -->
<svg width="623pt" height="210pt"
 viewBox="0.00 0.00 623.00 210.00" xmlns="http://www.w3.org/2000/svg" xmlns:xlink="http://www.w3.org/1999/xlink">
<g id="graph0" class="graph" transform="scale(1 1) rotate(0) translate(4 206)">
<title>Arcane::TimeLoopMng::subDomain</title>
<!-- Node1 -->
<g id="Node000001" class="node">
<title>Node1</title>
<g id="a_Node000001"><a xlink:title="&lt; Retourne le gestionnaire du sous&#45;domaine">
<polygon fill="#999999" stroke="#666666" points="615,-121 490,-121 490,-91 615,-91 615,-121"/>
<text text-anchor="start" x="498" y="-109" font-family="Helvetica,sans-Serif" font-size="10.00">Arcane::TimeLoopMng</text>
<text text-anchor="middle" x="552.5" y="-98" font-family="Helvetica,sans-Serif" font-size="10.00">::subDomain</text>
</a>
</g>
</g>
<!-- Node2 -->
<g id="Node000002" class="node">
<title>Node2</title>
<g id="a_Node000002"><a xlink:href="../../d9/d6b/classArcane_1_1TimeLoopMng.html#aeff9ebc0473c7c002fbb4457b84e3fa5" target="_top" xlink:title="Effectue un repartitionnement des maillages.">
<polygon fill="white" stroke="#666666" points="450.5,-202 325.5,-202 325.5,-172 450.5,-172 450.5,-202"/>
<text text-anchor="start" x="333.5" y="-190" font-family="Helvetica,sans-Serif" font-size="10.00">Arcane::TimeLoopMng</text>
<text text-anchor="middle" x="388" y="-179" font-family="Helvetica,sans-Serif" font-size="10.00">::_doMeshPartition</text>
</a>
</g>
</g>
<!-- Node1&#45;&gt;Node2 -->
<g id="edge1_Node000001_Node000002" class="edge">
<title>Node1&#45;&gt;Node2</title>
<g id="a_edge1_Node000001_Node000002"><a xlink:title=" ">
<path fill="none" stroke="#63b8ff" d="M515.59,-125.93C497.31,-135.88 474.64,-147.91 454,-158 444.34,-162.72 433.74,-167.58 423.95,-171.95"/>
<polygon fill="#63b8ff" stroke="#63b8ff" points="517.35,-128.96 524.45,-121.09 513.99,-122.81 517.35,-128.96"/>
</a>
</g>
</g>
<!-- Node3 -->
<g id="Node000003" class="node">
<title>Node3</title>
<g id="a_Node000003"><a xlink:href="../../d9/d6b/classArcane_1_1TimeLoopMng.html#a875da9467f6c9ae3f64d704f8cb584a1" target="_top" xlink:title="Lance l&#39;exécution d&#39;une itération de la boucle de calcul.">
<polygon fill="white" stroke="#666666" points="286,-164 161,-164 161,-134 286,-134 286,-164"/>
<text text-anchor="start" x="169" y="-152" font-family="Helvetica,sans-Serif" font-size="10.00">Arcane::TimeLoopMng</text>
<text text-anchor="middle" x="223.5" y="-141" font-family="Helvetica,sans-Serif" font-size="10.00">::doOneIteration</text>
</a>
</g>
</g>
<!-- Node1&#45;&gt;Node3 -->
<g id="edge7_Node000001_Node000003" class="edge">
<title>Node1&#45;&gt;Node3</title>
<g id="a_edge7_Node000001_Node000003"><a xlink:title=" ">
<path fill="none" stroke="#63b8ff" d="M479.76,-116.44C471.08,-117.66 462.34,-118.87 454,-120 397.29,-127.65 332.6,-135.77 286.39,-141.47"/>
<polygon fill="#63b8ff" stroke="#63b8ff" points="480.48,-119.88 489.89,-115.01 479.5,-112.94 480.48,-119.88"/>
</a>
</g>
</g>
<!-- Node4 -->
<g id="Node000004" class="node">
<title>Node4</title>
<g id="a_Node000004"><a xlink:href="../../d9/d6b/classArcane_1_1TimeLoopMng.html#ab019ca64146dfd7ce6c94e3cb9ea35c4" target="_top" xlink:title="Exécute la boucle de calcul.">
<polygon fill="white" stroke="#666666" points="125,-142 0,-142 0,-112 125,-112 125,-142"/>
<text text-anchor="start" x="8" y="-130" font-family="Helvetica,sans-Serif" font-size="10.00">Arcane::TimeLoopMng</text>
<text text-anchor="middle" x="62.5" y="-119" font-family="Helvetica,sans-Serif" font-size="10.00">::doComputeLoop</text>
</a>
</g>
</g>
<!-- Node1&#45;&gt;Node4 -->
<g id="edge6_Node000001_Node000004" class="edge">
<title>Node1&#45;&gt;Node4</title>
<g id="a_edge6_Node000001_Node000004"><a xlink:title=" ">
<path fill="none" stroke="#63b8ff" d="M479.51,-109.1C383.6,-113.22 215.57,-120.46 125.19,-124.35"/>
<polygon fill="#63b8ff" stroke="#63b8ff" points="479.85,-112.59 489.69,-108.66 479.55,-105.59 479.85,-112.59"/>
</a>
</g>
</g>
<!-- Node5 -->
<g id="Node000005" class="node">
<title>Node5</title>
<g id="a_Node000005"><a xlink:href="../../d9/d6b/classArcane_1_1TimeLoopMng.html#afa2856d5405dfe4d4eb9b7ec573dd0f1" target="_top" xlink:title="Remplit m_module_factory_map avec la liste des fabriques disponibles.">
<polygon fill="white" stroke="#666666" points="454,-78 322,-78 322,-48 454,-48 454,-78"/>
<text text-anchor="start" x="330" y="-66" font-family="Helvetica,sans-Serif" font-size="10.00">Arcane::TimeLoopMng</text>
<text text-anchor="middle" x="388" y="-55" font-family="Helvetica,sans-Serif" font-size="10.00">::_fillModuleFactoryMap</text>
</a>
</g>
</g>
<!-- Node1&#45;&gt;Node5 -->
<g id="edge4_Node000001_Node000005" class="edge">
<title>Node1&#45;&gt;Node5</title>
<g id="a_edge4_Node000001_Node000005"><a xlink:title=" ">
<path fill="none" stroke="#63b8ff" d="M484.87,-88.37C471.9,-84.94 458.42,-81.37 445.8,-78.03"/>
<polygon fill="#63b8ff" stroke="#63b8ff" points="484.1,-91.79 494.67,-90.96 485.89,-85.02 484.1,-91.79"/>
</a>
</g>
</g>
<!-- Node7 -->
<g id="Node000007" class="node">
<title>Node7</title>
<g id="a_Node000007"><a xlink:href="../../d9/d6b/classArcane_1_1TimeLoopMng.html#a6fefc8dbb8c3dd601738a1c672544907" target="_top" xlink:title="Exécute les points d&#39;entrée de terminaison.">
<polygon fill="white" stroke="#666666" points="450.5,-30 325.5,-30 325.5,0 450.5,0 450.5,-30"/>
<text text-anchor="start" x="333.5" y="-18" font-family="Helvetica,sans-Serif" font-size="10.00">Arcane::TimeLoopMng</text>
<text text-anchor="middle" x="388" y="-7" font-family="Helvetica,sans-Serif" font-size="10.00">::execExitEntryPoints</text>
</a>
</g>
</g>
<!-- Node1&#45;&gt;Node7 -->
<g id="edge8_Node000001_Node000007" class="edge">
<title>Node1&#45;&gt;Node7</title>
<g id="a_edge8_Node000001_Node000007"><a xlink:title=" ">
<path fill="none" stroke="#63b8ff" d="M524.44,-84.69C505.49,-70.45 479.15,-52.02 454,-39 447.8,-35.79 441.08,-32.8 434.38,-30.1"/>
<polygon fill="#63b8ff" stroke="#63b8ff" points="522.53,-87.63 532.6,-90.9 526.77,-82.06 522.53,-87.63"/>
</a>
</g>
</g>
<!-- Node2&#45;&gt;Node3 -->
<g id="edge2_Node000002_Node000003" class="edge">
<title>Node2&#45;&gt;Node3</title>
<g id="a_edge2_Node000002_Node000003"><a xlink:title=" ">
<path fill="none" stroke="#63b8ff" d="M315.14,-170.2C305.5,-167.94 295.67,-165.64 286.23,-163.43"/>
<polygon fill="#63b8ff" stroke="#63b8ff" points="314.57,-173.66 325.1,-172.53 316.16,-166.84 314.57,-173.66"/>
</a>
</g>
</g>
<!-- Node3&#45;&gt;Node4 -->
<g id="edge3_Node000003_Node000004" class="edge">
<title>Node3&#45;&gt;Node4</title>
<g id="a_edge3_Node000003_Node000004"><a xlink:title=" ">
<path fill="none" stroke="#63b8ff" d="M150.41,-139.03C142.01,-137.86 133.5,-136.69 125.26,-135.55"/>
<polygon fill="#63b8ff" stroke="#63b8ff" points="150.19,-142.53 160.57,-140.43 151.15,-135.59 150.19,-142.53"/>
</a>
</g>
</g>
<!-- Node6 -->
<g id="Node000006" class="node">
<title>Node6</title>
<g id="a_Node000006"><a xlink:href="../../d9/d6b/classArcane_1_1TimeLoopMng.html#ae5ce3fb07fb1aa70034e5d6b52df9427" target="_top" xlink:title="Positionne la boucle en temps à exécuter. Sélectionne la boucle en temps de nom name comme celle qui ...">
<polygon fill="white" stroke="#666666" points="286,-78 161,-78 161,-48 286,-48 286,-78"/>
<text text-anchor="start" x="169" y="-66" font-family="Helvetica,sans-Serif" font-size="10.00">Arcane::TimeLoopMng</text>
<text text-anchor="middle" x="223.5" y="-55" font-family="Helvetica,sans-Serif" font-size="10.00">::setUsedTimeLoop</text>
</a>
</g>
</g>
<!-- Node5&#45;&gt;Node6 -->
<g id="edge5_Node000005_Node000006" class="edge">
<title>Node5&#45;&gt;Node6</title>
<g id="a_edge5_Node000005_Node000006"><a xlink:title=" ">
<path fill="none" stroke="#63b8ff" d="M311.57,-63C303.09,-63 294.52,-63 286.24,-63"/>
<polygon fill="#63b8ff" stroke="#63b8ff" points="311.84,-66.5 321.84,-63 311.84,-59.5 311.84,-66.5"/>
</a>
</g>
</g>
</g>
</svg>
