<?xml version="1.0" encoding="UTF-8" standalone="no"?>
<!DOCTYPE svg PUBLIC "-//W3C//DTD SVG 1.1//EN"
 "http://www.w3.org/Graphics/SVG/1.1/DTD/svg11.dtd">
<!-- Generated by graphviz version 2.43.0 (0)
 -->
<!-- Title: GenericReader&lt; SourceEncoding, TargetEncoding, StackAllocator &gt;::NumberStream&lt; InputStream, StackCharacter, true, true &gt; Pages: 1 -->
<svg width="212pt" height="223pt"
 viewBox="0.00 0.00 212.00 223.00" xmlns="http://www.w3.org/2000/svg" xmlns:xlink="http://www.w3.org/1999/xlink">
<g id="graph0" class="graph" transform="scale(1 1) rotate(0) translate(4 219)">
<title>GenericReader&lt; SourceEncoding, TargetEncoding, StackAllocator &gt;::NumberStream&lt; InputStream, StackCharacter, true, true &gt;</title>
<!-- Node1 -->
<g id="Node000001" class="node">
<title>Node1</title>
<g id="a_Node000001"><a xlink:title=" ">
<polygon fill="#999999" stroke="transparent" points="190,-97 14,-97 14,0 190,0 190,-97"/>
<text text-anchor="start" x="19" y="-84.5" font-family="Helvetica,sans-Serif" font-size="10.00">GenericReader&lt; SourceEncoding,</text>
<text text-anchor="start" x="19" y="-73.5" font-family="Helvetica,sans-Serif" font-size="10.00"> TargetEncoding, StackAllocator</text>
<text text-anchor="start" x="19" y="-62.5" font-family="Helvetica,sans-Serif" font-size="10.00"> &gt;::NumberStream&lt; InputStream,</text>
<text text-anchor="start" x="32" y="-51.5" font-family="Helvetica,sans-Serif" font-size="10.00"> StackCharacter, true, true &gt;</text>
<text text-anchor="start" x="100" y="-36.5" font-family="Helvetica,sans-Serif" font-size="10.00"> </text>
<text text-anchor="start" x="36" y="-21.5" font-family="Helvetica,sans-Serif" font-size="10.00">+</text>
<text text-anchor="start" x="67" y="-21.5" font-family="Helvetica,sans-Serif" font-size="10.00">NumberStream()</text>
<text text-anchor="start" x="36" y="-6.5" font-family="Helvetica,sans-Serif" font-size="10.00">+</text>
<text text-anchor="start" x="67" y="-6.5" font-family="Helvetica,sans-Serif" font-size="10.00">Take()</text>
<polygon fill="#666666" stroke="#666666" points="14,-46.5 14,-46.5 190,-46.5 190,-46.5 14,-46.5"/>
<polygon fill="#666666" stroke="#666666" points="14,-31.5 14,-31.5 190,-31.5 190,-31.5 14,-31.5"/>
<polygon fill="none" stroke="#666666" points="14,0 14,-97 190,-97 190,0 14,0"/>
</a>
</g>
</g>
<!-- Node2 -->
<g id="Node000002" class="node">
<title>Node2</title>
<g id="a_Node000002"><a xlink:href="../../dd/db2/classGenericReader_1_1NumberStream.html" target="_top" xlink:title=" ">
<polygon fill="white" stroke="transparent" points="204,-215 0,-215 0,-133 204,-133 204,-215"/>
<text text-anchor="start" x="5" y="-203" font-family="Helvetica,sans-Serif" font-size="10.00">GenericReader&lt; SourceEncoding,</text>
<text text-anchor="start" x="5" y="-192" font-family="Helvetica,sans-Serif" font-size="10.00"> TargetEncoding, StackAllocator</text>
<text text-anchor="start" x="5" y="-181" font-family="Helvetica,sans-Serif" font-size="10.00"> &gt;::NumberStream&lt; InputStream,</text>
<text text-anchor="start" x="5" y="-170" font-family="Helvetica,sans-Serif" font-size="10.00"> StackCharacter, backup, pushOnTake &gt;</text>
<text text-anchor="start" x="100" y="-155" font-family="Helvetica,sans-Serif" font-size="10.00"> </text>
<text text-anchor="start" x="100" y="-140" font-family="Helvetica,sans-Serif" font-size="10.00"> </text>
<polygon fill="#bfbfbf" stroke="#bfbfbf" points="0,-165 0,-165 204,-165 204,-165 0,-165"/>
<polygon fill="#bfbfbf" stroke="#bfbfbf" points="0,-150 0,-150 204,-150 204,-150 0,-150"/>
<polygon fill="none" stroke="#bfbfbf" points="0,-133 0,-215 204,-215 204,-133 0,-133"/>
</a>
</g>
</g>
<!-- Node2&#45;&gt;Node1 -->
<g id="edge1_Node000001_Node000002" class="edge">
<title>Node2&#45;&gt;Node1</title>
<g id="a_edge1_Node000001_Node000002"><a xlink:title=" ">
<path fill="none" stroke="#63b8ff" d="M102,-122.77C102,-114.3 102,-105.54 102,-97.14"/>
<polygon fill="none" stroke="#63b8ff" points="98.5,-122.9 102,-132.9 105.5,-122.9 98.5,-122.9"/>
</a>
</g>
</g>
</g>
</svg>
